<?xml version="1.0" encoding="utf-8"?>
<!-- Generator: Adobe Illustrator 22.0.0, SVG Export Plug-In . SVG Version: 6.00 Build 0)  -->
<svg version="1.1" id="Layer_1" xmlns="http://www.w3.org/2000/svg" xmlns:xlink="http://www.w3.org/1999/xlink" x="0px" y="0px"
	 viewBox="0 0 24 24" style="enable-background:new 0 0 24 24;" xml:space="preserve">
<path d="M2.6,9.5V6.9c0-1.7,0.9-2.5,2.6-2.5h13.6c1.7,0,2.6,0.8,2.6,2.5v2.6H19V8.2c0-0.9-0.5-1.3-1.4-1.3h-3.2
	c-0.9,0-1.4,0.4-1.4,1.3v1.3H11V8.2c0-0.9-0.4-1.3-1.3-1.3H6.3C5.4,6.9,5,7.3,5,8.2v1.3H2.6z M0.5,18.9v-5.4c0-1.8,0.9-2.7,2.7-2.7
	h17.7c1.8,0,2.7,0.9,2.7,2.7v5.4c0,0.5-0.3,0.8-0.8,0.8h-0.5c-0.5,0-0.8-0.3-0.8-0.8v-1.4c-0.1,0-0.3,0-0.6,0H3.2
	c-0.4,0-0.6,0-0.6,0v1.4c0,0.5-0.3,0.8-0.8,0.8H1.2C0.7,19.7,0.5,19.4,0.5,18.9z"/>
</svg>
