<?xml version="1.0" encoding="utf-8"?>
<!-- Generator: Adobe Illustrator 22.0.0, SVG Export Plug-In . SVG Version: 6.00 Build 0)  -->
<svg version="1.1" id="Layer_1" xmlns="http://www.w3.org/2000/svg" xmlns:xlink="http://www.w3.org/1999/xlink" x="0px" y="0px"
	 viewBox="0 0 24 24" style="enable-background:new 0 0 24 24;" xml:space="preserve">
<path d="M3.5,21.3c-2,0-3.1-1-3.1-3V8.1c0-2,1-3.1,3.1-3.1h2.2c0.5,0,1-0.2,1.4-0.6L8,3.5c0.5-0.5,1.2-0.8,2-0.8h3.9
	c0.9,0,1.6,0.3,2,0.8l0.8,0.9C17.1,4.8,17.6,5,18.1,5h2.3c2.1,0,3.1,1,3.1,3.1v10.3c0,2-1,3-3.1,3H3.5z M12,18.2
	c1.5,0,2.8-0.5,3.8-1.6s1.6-2.3,1.6-3.8s-0.5-2.8-1.6-3.8S13.5,7.5,12,7.5S9.2,8,8.2,9s-1.6,2.3-1.6,3.8s0.5,2.8,1.6,3.8
	S10.5,18.2,12,18.2z M19.1,10.4c0.3,0,0.6-0.1,0.8-0.3s0.3-0.5,0.3-0.8s-0.1-0.6-0.3-0.9C19.7,8.1,19.4,8,19.1,8s-0.6,0.1-0.9,0.4
	c-0.2,0.2-0.4,0.5-0.4,0.9s0.1,0.6,0.4,0.8C18.4,10.3,18.7,10.4,19.1,10.4z M12,16.7c-1.1,0-2-0.4-2.7-1.1s-1.1-1.7-1.1-2.7
	s0.4-2,1.1-2.7S10.9,9,12,9s2,0.4,2.7,1.1c0.7,0.8,1.1,1.7,1.1,2.7s-0.4,2-1.1,2.7C14,16.3,13.1,16.7,12,16.7z"/>
</svg>
