<?xml version="1.0" encoding="utf-8"?>
<!-- Generator: Adobe Illustrator 22.0.0, SVG Export Plug-In . SVG Version: 6.00 Build 0)  -->
<svg version="1.1" id="Layer_1" xmlns="http://www.w3.org/2000/svg" xmlns:xlink="http://www.w3.org/1999/xlink" x="0px" y="0px"
	 viewBox="0 0 24 24" style="enable-background:new 0 0 24 24;" xml:space="preserve">
<path d="M19.2,11.2c0-1.3-0.5-2.5-1.5-3.5c-1-1-2.2-1.5-3.7-1.6c-0.2-0.4-0.5-0.8-0.8-1.1C13.5,3.9,14,3,14.9,2.2
	c0.9-0.8,1.7-1.2,2.5-1.3C17.8,0.9,18,1,18,1.3c0,0.1-0.1,0.4-0.3,1s-0.3,1.1-0.3,1.5c0,1,0.3,1.7,0.9,2.3C18.9,6.7,19.8,7,20.8,7
	c0.5,0,1-0.1,1.4-0.3c0.5-0.2,0.8-0.3,0.8-0.3c0.3,0,0.5,0.2,0.5,0.6c0,0.8-0.4,1.6-1.2,2.5C21.5,10.4,20.5,11,19.2,11.2z M4.1,15.7
	c-1.1,0-2-0.3-2.6-0.9s-1-1.4-1-2.4c0-0.8,0.2-1.4,0.7-2c0.4-0.6,1-1,1.8-1.2C3,7.7,3.6,6.5,4.7,5.5S7,4,8.4,4c2.3,0,3.9,1,5,3.1
	c1.3,0,2.4,0.4,3.3,1.2c0.9,0.8,1.3,1.8,1.3,3.1c0,1.2-0.4,2.2-1.3,3c-0.9,0.8-1.9,1.2-3.1,1.2H4.1z M11.5,18.9c0.1,0,0.2,0,0.2,0.1
	c0,0.1,0,0.2-0.1,0.3L7.8,23c-0.1,0.1-0.2,0.1-0.2,0.1c-0.1-0.1-0.1-0.1-0.1-0.2l1.1-2.7H7.2c-0.2,0-0.3-0.1-0.2-0.4l1.1-2.6
	C8.2,17.1,8.3,17,8.5,17h1.8c0.2,0,0.3,0.1,0.2,0.4l-0.8,1.5H11.5z"/>
</svg>
