<?xml version="1.0" encoding="utf-8"?>
<!-- Generator: Adobe Illustrator 22.0.0, SVG Export Plug-In . SVG Version: 6.00 Build 0)  -->
<svg version="1.1" id="Layer_1" xmlns="http://www.w3.org/2000/svg" xmlns:xlink="http://www.w3.org/1999/xlink" x="0px" y="0px"
	 viewBox="0 0 24 24" style="enable-background:new 0 0 24 24;" xml:space="preserve">
<path d="M5.5,22.4c-1.5,0-2.3-0.7-2.3-2.2v-9L2,12.4c-0.2,0.2-0.5,0.3-0.7,0.3c-0.6,0-0.8-0.3-0.8-0.8c0-0.2,0.1-0.5,0.3-0.6
	l10.1-9.2c0.3-0.3,0.7-0.5,1.2-0.5c0.5,0,0.9,0.2,1.2,0.5l3.9,3.6V2.3c0-0.5,0.2-0.7,0.7-0.7h1.3c0.5,0,0.7,0.2,0.7,0.7v5.8l3.4,3.1
	c0.2,0.2,0.3,0.4,0.3,0.6c0,0.2-0.1,0.4-0.3,0.6s-0.4,0.2-0.6,0.2c-0.2,0-0.4-0.1-0.7-0.3l-1.3-1.2v9c0,1.4-0.7,2.2-2.2,2.2H5.5z
	 M14.8,14.3v6.5h3.3c0.6,0,1-0.3,1-1v-10l-6.8-6.2c-0.1-0.1-0.2-0.1-0.4-0.1c-0.1,0-0.2,0-0.3,0.1L4.9,9.7v10c0,0.7,0.3,1,1,1h3.3
	v-6.5c0-0.5,0.3-0.8,0.8-0.8h4.2C14.6,13.5,14.8,13.7,14.8,14.3z"/>
</svg>
