<?xml version="1.0" encoding="UTF-8"?>
<!--Generator: Apple Native CoreSVG 341-->
<!DOCTYPE svg
PUBLIC "-//W3C//DTD SVG 1.1//EN"
       "http://www.w3.org/Graphics/SVG/1.1/DTD/svg11.dtd">
<svg version="1.1" xmlns="http://www.w3.org/2000/svg" xmlns:xlink="http://www.w3.org/1999/xlink" viewBox="0 0 20.5381 20.1848">
 <g>
  <rect height="20.1848" opacity="0" width="20.5381" x="0" y="0"/>
  <path d="M20.1767 10.0875C20.1767 15.6478 15.6576 20.175 10.0875 20.175C4.52715 20.175 0 15.6478 0 10.0875C0 4.51914 4.52715 0 10.0875 0C15.6576 0 20.1767 4.51914 20.1767 10.0875ZM6.46777 10.0875C6.46777 12.9375 7.90586 14.8244 10.0805 14.8244C12.2613 14.8244 13.717 12.9375 13.717 10.0875C13.717 7.23574 12.2613 5.34882 10.0805 5.34882C7.90586 5.34882 6.46777 7.23574 6.46777 10.0875ZM11.8918 10.0875C11.8918 12.0887 11.1639 13.3234 10.0875 13.3234C9.01288 13.3234 8.28495 12.0887 8.28495 10.0875C8.28495 8.08632 9.01288 6.85155 10.0875 6.85155C11.1639 6.85155 11.8918 8.08632 11.8918 10.0875Z" fill="white" fill-opacity="0.85"/>
 </g>
</svg>
