<?xml version="1.0" encoding="UTF-8"?>
<!--Generator: Apple Native CoreSVG 341-->
<!DOCTYPE svg
PUBLIC "-//W3C//DTD SVG 1.1//EN"
       "http://www.w3.org/Graphics/SVG/1.1/DTD/svg11.dtd">
<svg version="1.1" xmlns="http://www.w3.org/2000/svg" xmlns:xlink="http://www.w3.org/1999/xlink" viewBox="0 0 20.5381 20.1848">
 <g>
  <rect height="20.1848" opacity="0" width="20.5381" x="0" y="0"/>
  <path d="M20.1767 10.0875C20.1767 15.6478 15.6576 20.175 10.0875 20.175C4.52715 20.175 0 15.6478 0 10.0875C0 4.51914 4.52715 0 10.0875 0C15.6576 0 20.1767 4.51914 20.1767 10.0875ZM4.27871 10.0875C4.27871 12.1082 4.88769 14.3385 6.90292 14.3385C8.91191 14.3385 9.52089 12.1082 9.52089 10.0875C9.52089 8.06679 8.91191 5.83652 6.90292 5.83652C4.88769 5.83652 4.27871 8.06679 4.27871 10.0875ZM10.6559 10.0857C10.6559 12.1064 11.2648 14.3367 13.2721 14.3367C15.2891 14.3367 15.898 12.1064 15.898 10.0857C15.898 8.06503 15.2891 5.83476 13.2721 5.83476C11.2648 5.83476 10.6559 8.06503 10.6559 10.0857ZM7.94433 10.0875C7.94433 11.8144 7.65644 13.0652 6.90292 13.0652C6.15292 13.0652 5.86503 11.8144 5.86503 10.0875C5.86503 8.35253 6.15292 7.10976 6.90292 7.10976C7.65644 7.10976 7.94433 8.35253 7.94433 10.0875ZM14.3117 10.0857C14.3117 11.8127 14.0238 13.0635 13.2721 13.0635C12.5203 13.0635 12.2324 11.8127 12.2324 10.0857C12.2324 8.35078 12.5203 7.108 13.2721 7.108C14.0238 7.108 14.3117 8.35078 14.3117 10.0857Z" fill="white" fill-opacity="0.85"/>
 </g>
</svg>
