<?xml version="1.0" encoding="UTF-8"?>
<!--Generator: Apple Native CoreSVG 341-->
<!DOCTYPE svg
PUBLIC "-//W3C//DTD SVG 1.1//EN"
       "http://www.w3.org/Graphics/SVG/1.1/DTD/svg11.dtd">
<svg version="1.1" xmlns="http://www.w3.org/2000/svg" xmlns:xlink="http://www.w3.org/1999/xlink" viewBox="0 0 18.5894 18.2316">
 <g>
  <rect height="18.2316" opacity="0" width="18.5894" x="0" y="0"/>
  <path d="M3.20351 18.2281L15.0246 18.2281C17.1404 18.2281 18.2281 17.1502 18.2281 15.0646L18.2281 3.17148C18.2281 1.08769 17.1404 0 15.0246 0L3.20351 0C1.0957 0 0 1.08769 0 3.17148L0 15.0646C0 17.1502 1.0957 18.2281 3.20351 18.2281ZM3.31444 16.3148C2.40643 16.3148 1.91327 15.8465 1.91327 14.8977L1.91327 3.34023C1.91327 2.39139 2.40643 1.91503 3.31444 1.91503L14.9137 1.91503C15.8137 1.91503 16.3148 2.39139 16.3148 3.34023L16.3148 14.8977C16.3148 15.8465 15.8137 16.3148 14.9137 16.3148Z" fill="white" fill-opacity="0.85"/>
  <path d="M6.05488 13.2033C7.98945 13.2033 8.57363 11.0492 8.57363 9.11093C8.57363 7.17265 7.98945 5.01679 6.05488 5.01679C4.12206 5.01679 3.53613 7.17265 3.53613 9.11093C3.53613 11.0492 4.12206 13.2033 6.05488 13.2033ZM6.05488 11.985C5.32616 11.985 5.04804 10.767 5.04804 9.11093C5.04804 7.44511 5.32616 6.2289 6.05488 6.2289C6.78535 6.2289 7.06347 7.44511 7.06347 9.11093C7.06347 10.767 6.78535 11.985 6.05488 11.985ZM12.183 13.2033C14.1256 13.2033 14.7018 11.0492 14.7018 9.11093C14.7018 7.17265 14.1256 5.01679 12.183 5.01679C10.2484 5.01679 9.66425 7.17265 9.66425 9.11093C9.66425 11.0492 10.2484 13.2033 12.183 13.2033ZM12.183 11.985C11.4525 11.985 11.1744 10.767 11.1744 9.11093C11.1744 7.44511 11.4525 6.2289 12.183 6.2289C12.9135 6.2289 13.1898 7.44511 13.1898 9.11093C13.1898 10.767 12.9135 11.985 12.183 11.985Z" fill="white" fill-opacity="0.85"/>
 </g>
</svg>
