<?xml version="1.0" encoding="UTF-8"?>
<!--Generator: Apple Native CoreSVG 341-->
<!DOCTYPE svg
PUBLIC "-//W3C//DTD SVG 1.1//EN"
       "http://www.w3.org/Graphics/SVG/1.1/DTD/svg11.dtd">
<svg version="1.1" xmlns="http://www.w3.org/2000/svg" xmlns:xlink="http://www.w3.org/1999/xlink" viewBox="0 0 20.5381 20.1848">
 <g>
  <rect height="20.1848" opacity="0" width="20.5381" x="0" y="0"/>
  <path d="M10.0875 20.175C15.6576 20.175 20.1767 15.6559 20.1767 10.0875C20.1767 4.51914 15.6576 0 10.0875 0C4.51914 0 0 4.51914 0 10.0875C0 15.6559 4.51914 20.175 10.0875 20.175ZM10.0875 18.1879C5.60839 18.1879 1.9871 14.5666 1.9871 10.0875C1.9871 5.60839 5.60839 1.9871 10.0875 1.9871C14.5666 1.9871 18.1897 5.60839 18.1897 10.0875C18.1897 14.5666 14.5666 18.1879 10.0875 18.1879Z" fill="white" fill-opacity="0.85"/>
  <path d="M7.70175 14.1799C9.63632 14.1799 10.2205 12.0258 10.2205 10.0875C10.2205 8.14921 9.63632 5.99335 7.70175 5.99335C5.76894 5.99335 5.183 8.14921 5.183 10.0875C5.183 12.0258 5.76894 14.1799 7.70175 14.1799ZM7.70175 12.9615C6.97128 12.9615 6.69491 11.7436 6.69491 10.0875C6.69491 8.42167 6.97128 7.20546 7.70175 7.20546C8.43222 7.20546 8.71035 8.42167 8.71035 10.0875C8.71035 11.7436 8.43222 12.9615 7.70175 12.9615ZM13.5111 14.0857C13.9184 14.0857 14.2582 13.7459 14.2582 13.3307L14.2582 6.91347C14.2582 6.38027 13.9264 6.07323 13.3852 6.07323C12.9574 6.07323 12.6254 6.29257 12.3762 6.48417L11.3635 7.26679C11.1701 7.41757 11.0352 7.61015 11.0352 7.87109C11.0352 8.20546 11.2613 8.41503 11.5623 8.41503C11.7141 8.41503 11.8152 8.3662 11.9252 8.28905L12.748 7.62968L12.748 13.3307C12.748 13.7459 13.0879 14.0857 13.5111 14.0857Z" fill="white" fill-opacity="0.85"/>
 </g>
</svg>
