<?xml version="1.0" encoding="UTF-8"?>
<!--Generator: Apple Native CoreSVG 341-->
<!DOCTYPE svg
PUBLIC "-//W3C//DTD SVG 1.1//EN"
       "http://www.w3.org/Graphics/SVG/1.1/DTD/svg11.dtd">
<svg version="1.1" xmlns="http://www.w3.org/2000/svg" xmlns:xlink="http://www.w3.org/1999/xlink" viewBox="0 0 20.5381 20.1848">
 <g>
  <rect height="20.1848" opacity="0" width="20.5381" x="0" y="0"/>
  <path d="M20.1767 10.0875C20.1767 15.6478 15.6576 20.175 10.0875 20.175C4.52715 20.175 0 15.6478 0 10.0875C0 4.51914 4.52715 0 10.0875 0C15.6576 0 20.1767 4.51914 20.1767 10.0875ZM5.00937 10.0875C5.00937 12.1082 5.61835 14.3385 7.62558 14.3385C9.64257 14.3385 10.2516 12.1082 10.2516 10.0875C10.2516 8.06679 9.64257 5.83652 7.62558 5.83652C5.61835 5.83652 5.00937 8.06679 5.00937 10.0875ZM12.4879 6.34413L11.4309 7.15605C11.2322 7.31035 11.0893 7.51269 11.0893 7.78691C11.0893 8.13456 11.3287 8.35741 11.643 8.35741C11.8045 8.35741 11.9092 8.30683 12.0191 8.21816L12.873 7.53925L12.873 13.4494C12.873 13.8894 13.2244 14.2426 13.6725 14.2426C14.0947 14.2426 14.4496 13.8894 14.4496 13.4494L14.4496 6.79648C14.4496 6.23671 14.1027 5.91816 13.5385 5.91816C13.0939 5.91816 12.7389 6.14726 12.4879 6.34413ZM8.66523 10.0875C8.66523 11.8144 8.37734 13.0652 7.62558 13.0652C6.87382 13.0652 6.58593 11.8144 6.58593 10.0875C6.58593 8.35253 6.87382 7.10976 7.62558 7.10976C8.37734 7.10976 8.66523 8.35253 8.66523 10.0875Z" fill="white" fill-opacity="0.85"/>
 </g>
</svg>
