<?xml version="1.0" encoding="UTF-8"?>
<!--Generator: Apple Native CoreSVG 341-->
<!DOCTYPE svg
PUBLIC "-//W3C//DTD SVG 1.1//EN"
       "http://www.w3.org/Graphics/SVG/1.1/DTD/svg11.dtd">
<svg version="1.1" xmlns="http://www.w3.org/2000/svg" xmlns:xlink="http://www.w3.org/1999/xlink" viewBox="0 0 20.5381 20.1848">
 <g>
  <rect height="20.1848" opacity="0" width="20.5381" x="0" y="0"/>
  <path d="M10.0875 20.175C15.6576 20.175 20.1767 15.6559 20.1767 10.0875C20.1767 4.51914 15.6576 0 10.0875 0C4.51914 0 0 4.51914 0 10.0875C0 15.6559 4.51914 20.175 10.0875 20.175ZM10.0875 18.1879C5.60839 18.1879 1.9871 14.5666 1.9871 10.0875C1.9871 5.60839 5.60839 1.9871 10.0875 1.9871C14.5666 1.9871 18.1897 5.60839 18.1897 10.0875C18.1897 14.5666 14.5666 18.1879 10.0875 18.1879Z" fill="white" fill-opacity="0.85"/>
  <path d="M7.16347 14.1799C9.10605 14.1799 9.68222 12.0258 9.68222 10.0875C9.68222 8.14921 9.10605 5.99335 7.16347 5.99335C5.23066 5.99335 4.65273 8.14921 4.65273 10.0875C4.65273 12.0258 5.23066 14.1799 7.16347 14.1799ZM7.16347 12.9615C6.43476 12.9615 6.15663 11.7436 6.15663 10.0875C6.15663 8.42167 6.43476 7.20546 7.16347 7.20546C7.89394 7.20546 8.17207 8.42167 8.17207 10.0875C8.17207 11.7436 7.89394 12.9615 7.16347 12.9615ZM11.3736 13.9766L14.685 13.9766C15.0664 13.9766 15.268 13.7291 15.268 13.382C15.268 13.0109 15.0584 12.7795 14.685 12.7795L12.4918 12.7795L12.4918 12.7014L13.8385 11.009C14.7676 9.86308 15.1285 9.14569 15.1285 8.25292C15.1285 6.9205 14.2178 5.99687 12.8771 5.99687C11.6412 5.99687 10.6887 6.99687 10.6887 8.01425C10.6887 8.39491 10.9141 8.6664 11.3062 8.6664C11.6373 8.6664 11.8537 8.51288 11.9664 8.16601C12.1264 7.56972 12.3512 7.18065 12.8754 7.18065C13.4279 7.18065 13.7213 7.67362 13.7213 8.31777C13.7213 9.07792 13.1937 9.84082 12.6674 10.5137L11.0648 12.5551C10.8539 12.8316 10.6824 13.0775 10.6824 13.3803C10.6824 13.7369 10.9131 13.9766 11.3736 13.9766Z" fill="white" fill-opacity="0.85"/>
 </g>
</svg>
