<?xml version="1.0" encoding="UTF-8"?>
<!--Generator: Apple Native CoreSVG 341-->
<!DOCTYPE svg
PUBLIC "-//W3C//DTD SVG 1.1//EN"
       "http://www.w3.org/Graphics/SVG/1.1/DTD/svg11.dtd">
<svg version="1.1" xmlns="http://www.w3.org/2000/svg" xmlns:xlink="http://www.w3.org/1999/xlink" viewBox="0 0 18.5894 18.2316">
 <g>
  <rect height="18.2316" opacity="0" width="18.5894" x="0" y="0"/>
  <path d="M18.2281 3.17148L18.2281 15.0646C18.2281 17.1502 17.1404 18.2281 15.0246 18.2281L3.20351 18.2281C1.0957 18.2281 0 17.1502 0 15.0646L0 3.17148C0 1.08769 1.0957 0 3.20351 0L15.0246 0C17.1404 0 18.2281 1.08769 18.2281 3.17148ZM3.49706 9.11093C3.49706 11.1316 4.0998 13.3619 6.11503 13.3619C8.13027 13.3619 8.733 11.1316 8.733 9.11093C8.733 7.09023 8.13027 4.85995 6.11503 4.85995C4.0998 4.85995 3.49706 7.09023 3.49706 9.11093ZM9.77226 6.95351C9.77226 7.35722 10.0074 7.63398 10.4262 7.63398C10.7687 7.63398 11.0047 7.4787 11.1111 7.11679C11.2906 6.49921 11.5074 6.10038 12.0547 6.10038C12.6187 6.10038 12.9219 6.60487 12.9219 7.27206C12.9219 8.06328 12.373 8.86074 11.8299 9.55214L10.1715 11.6689C9.94726 11.9508 9.76601 12.21 9.76601 12.5322C9.76601 12.9039 10.01 13.1551 10.5016 13.1551L13.9432 13.1551C14.3299 13.1551 14.543 12.8926 14.543 12.5357C14.543 12.1398 14.3219 11.8969 13.9432 11.8969L11.6613 11.8969L11.6613 11.8187L13.0541 10.0687C14.0098 8.88027 14.392 8.13632 14.392 7.2037C14.392 5.82167 13.4467 4.86171 12.0547 4.86171C10.7789 4.86171 9.77226 5.89804 9.77226 6.95351ZM7.15468 9.11093C7.15468 10.8379 6.86503 12.0887 6.11503 12.0887C5.36952 12.0887 5.08163 10.8379 5.08163 9.11093C5.08163 7.37597 5.36952 6.13319 6.11503 6.13319C6.86503 6.13319 7.15468 7.37597 7.15468 9.11093Z" fill="white" fill-opacity="0.85"/>
 </g>
</svg>
