<?xml version="1.0" encoding="UTF-8"?>
<!--Generator: Apple Native CoreSVG 341-->
<!DOCTYPE svg
PUBLIC "-//W3C//DTD SVG 1.1//EN"
       "http://www.w3.org/Graphics/SVG/1.1/DTD/svg11.dtd">
<svg version="1.1" xmlns="http://www.w3.org/2000/svg" xmlns:xlink="http://www.w3.org/1999/xlink" viewBox="0 0 20.5381 20.2008">
 <g>
  <rect height="20.2008" opacity="0" width="20.5381" x="0" y="0"/>
  <path d="M20.1767 10.0875C20.1767 15.6478 15.6576 20.175 10.0875 20.175C4.52715 20.175 0 15.6478 0 10.0875C0 4.51914 4.52715 0 10.0875 0C15.6576 0 20.1767 4.51914 20.1767 10.0875ZM4.30507 10.0875C4.30507 12.1082 4.90781 14.3385 6.92304 14.3385C8.93827 14.3385 9.54101 12.1082 9.54101 10.0875C9.54101 8.06679 8.93827 5.83652 6.92304 5.83652C4.90781 5.83652 4.30507 8.06679 4.30507 10.0875ZM10.8314 7.34492C10.7746 7.53496 10.7533 7.7205 10.7533 7.89003C10.7533 8.23085 10.9779 8.52089 11.4152 8.52089C11.7658 8.52089 12.0078 8.39394 12.109 8.02656C12.2494 7.48183 12.5453 7.11249 13.0766 7.11249C13.6967 7.11249 13.9758 7.608 13.9758 8.22812C13.9758 8.91484 13.6061 9.44668 12.8875 9.44668L12.6848 9.44668C12.3096 9.44668 12.0894 9.67031 12.0894 10.0102C12.0894 10.358 12.3158 10.5754 12.6848 10.5754L12.8973 10.5754C13.7162 10.5754 14.148 11.0213 14.148 11.8562C14.148 12.4941 13.8121 13.0723 13.1139 13.0723C12.4482 13.0723 12.1488 12.6262 12.0219 12.1918C11.9137 11.8387 11.683 11.6621 11.3299 11.6621C10.9094 11.6621 10.6316 11.9141 10.6316 12.3391C10.6316 12.5281 10.6609 12.7074 10.7115 12.8734C10.9947 13.8039 12.0246 14.3127 13.1156 14.3127C14.5803 14.3127 15.6785 13.4062 15.6785 11.9129C15.6785 10.7051 14.9697 10.0705 14.1166 9.9791L14.1166 9.94628C14.9685 9.71796 15.4459 8.92226 15.4459 8.05956C15.4459 6.6666 14.4115 5.87382 13.073 5.87382C12.0432 5.87382 11.1209 6.44746 10.8314 7.34492ZM7.95293 10.0875C7.95293 11.8144 7.66504 13.0652 6.92304 13.0652C6.16952 13.0652 5.88163 11.8144 5.88163 10.0875C5.88163 8.35253 6.16952 7.10175 6.92304 7.10175C7.66504 7.10175 7.95293 8.35253 7.95293 10.0875Z" fill="white" fill-opacity="0.85"/>
 </g>
</svg>
