<?xml version="1.0" encoding="UTF-8"?>
<!--Generator: Apple Native CoreSVG 341-->
<!DOCTYPE svg
PUBLIC "-//W3C//DTD SVG 1.1//EN"
       "http://www.w3.org/Graphics/SVG/1.1/DTD/svg11.dtd">
<svg version="1.1" xmlns="http://www.w3.org/2000/svg" xmlns:xlink="http://www.w3.org/1999/xlink" viewBox="0 0 20.5381 20.1848">
 <g>
  <rect height="20.1848" opacity="0" width="20.5381" x="0" y="0"/>
  <path d="M10.0875 20.175C15.6576 20.175 20.1767 15.6559 20.1767 10.0875C20.1767 4.51914 15.6576 0 10.0875 0C4.51914 0 0 4.51914 0 10.0875C0 15.6559 4.51914 20.175 10.0875 20.175ZM10.0875 18.1879C5.60839 18.1879 1.9871 14.5666 1.9871 10.0875C1.9871 5.60839 5.60839 1.9871 10.0875 1.9871C14.5666 1.9871 18.1897 5.60839 18.1897 10.0875C18.1897 14.5666 14.5666 18.1879 10.0875 18.1879Z" fill="white" fill-opacity="0.85"/>
  <path d="M7.03378 14.1799C8.96835 14.1799 9.54452 12.0258 9.54452 10.0875C9.54452 8.14921 8.96835 5.99335 7.03378 5.99335C5.0912 5.99335 4.51503 8.14921 4.51503 10.0875C4.51503 12.0258 5.0912 14.1799 7.03378 14.1799ZM7.03378 12.9615C6.30331 12.9615 6.02518 11.7436 6.02518 10.0875C6.02518 8.42167 6.30331 7.20546 7.03378 7.20546C7.75625 7.20546 8.03437 8.42167 8.03437 10.0875C8.03437 11.7436 7.75625 12.9615 7.03378 12.9615ZM12.9889 14.1541C14.3924 14.1541 15.4525 13.284 15.4525 11.8402C15.4525 10.6785 14.765 10.0705 13.9482 9.9791L13.9482 9.94804C14.7709 9.72949 15.2297 8.96659 15.2297 8.13398C15.2297 6.79863 14.2334 6.03066 12.9463 6.03066C11.9527 6.03066 11.0685 6.58124 10.7906 7.45214C10.7418 7.63066 10.7205 7.80644 10.7205 7.97421C10.7205 8.29999 10.9336 8.57851 11.3478 8.57851C11.6851 8.57851 11.9121 8.45331 12.0133 8.09745C12.1537 7.57401 12.4381 7.21796 12.9498 7.21796C13.5469 7.21796 13.818 7.70019 13.818 8.29726C13.818 8.96269 13.4678 9.47148 12.7705 9.47148L12.5678 9.47148C12.2094 9.47148 12.0008 9.68535 12.0008 10.0182C12.0008 10.3545 12.2156 10.5506 12.5678 10.5506L12.7803 10.5506C13.5664 10.5506 13.9885 10.985 13.9885 11.7871C13.9885 12.4135 13.6623 12.9668 12.9871 12.9668C12.341 12.9668 12.0514 12.5305 11.9279 12.1094C11.8295 11.7793 11.6023 11.6045 11.2705 11.6045C10.8668 11.6045 10.6006 11.8529 10.6006 12.2549C10.6006 12.4342 10.6299 12.6082 10.6787 12.7644C10.9504 13.6603 11.9359 14.1541 12.9889 14.1541Z" fill="white" fill-opacity="0.85"/>
 </g>
</svg>
