<?xml version="1.0" encoding="UTF-8"?>
<!--Generator: Apple Native CoreSVG 341-->
<!DOCTYPE svg
PUBLIC "-//W3C//DTD SVG 1.1//EN"
       "http://www.w3.org/Graphics/SVG/1.1/DTD/svg11.dtd">
<svg version="1.1" xmlns="http://www.w3.org/2000/svg" xmlns:xlink="http://www.w3.org/1999/xlink" viewBox="0 0 18.5894 18.2316">
 <g>
  <rect height="18.2316" opacity="0" width="18.5894" x="0" y="0"/>
  <path d="M3.20351 18.2281L15.0246 18.2281C17.1404 18.2281 18.2281 17.1502 18.2281 15.0646L18.2281 3.17148C18.2281 1.08769 17.1404 0 15.0246 0L3.20351 0C1.0957 0 0 1.08769 0 3.17148L0 15.0646C0 17.1502 1.0957 18.2281 3.20351 18.2281ZM3.31444 16.3148C2.40643 16.3148 1.91327 15.8465 1.91327 14.8977L1.91327 3.34023C1.91327 2.39139 2.40643 1.91503 3.31444 1.91503L14.9137 1.91503C15.8137 1.91503 16.3148 2.39139 16.3148 3.34023L16.3148 14.8977C16.3148 15.8465 15.8137 16.3148 14.9137 16.3148Z" fill="white" fill-opacity="0.85"/>
  <path d="M6.07323 13.2033C8.00605 13.2033 8.59199 11.0492 8.59199 9.11093C8.59199 7.17265 8.00605 5.01679 6.07323 5.01679C4.13066 5.01679 3.55448 7.17265 3.55448 9.11093C3.55448 11.0492 4.13066 13.2033 6.07323 13.2033ZM6.07323 11.985C5.34276 11.985 5.06464 10.767 5.06464 9.11093C5.06464 7.44511 5.34276 6.2289 6.07323 6.2289C6.80371 6.2289 7.08007 7.44511 7.08007 9.11093C7.08007 10.767 6.80371 11.985 6.07323 11.985ZM12.0283 13.1775C13.4318 13.1775 14.5 12.3074 14.5 10.8637C14.5 9.70195 13.8045 9.09394 12.9877 9.00253L12.9877 8.97148C13.8184 8.75292 14.2691 7.99003 14.2691 7.15742C14.2691 5.82206 13.2711 5.05409 11.9857 5.05409C10.9922 5.05409 10.108 5.60468 9.83808 6.47558C9.78124 6.6541 9.75996 6.82988 9.75996 6.99765C9.75996 7.32343 9.97304 7.60195 10.3873 7.60195C10.7326 7.60195 10.9516 7.47675 11.0527 7.12089C11.1932 6.59745 11.4775 6.2414 11.9893 6.2414C12.5863 6.2414 12.8654 6.72362 12.8654 7.3207C12.8654 7.98613 12.5072 8.49492 11.81 8.49492L11.6055 8.49492C11.2488 8.49492 11.0385 8.70878 11.0385 9.0416C11.0385 9.37792 11.2533 9.57402 11.6055 9.57402L11.8197 9.57402C12.6059 9.57402 13.0279 10.0084 13.0279 10.8105C13.0279 11.4369 12.7018 11.9902 12.0266 11.9902C11.3805 11.9902 11.0908 11.5539 10.9674 11.1328C10.8689 10.8027 10.6498 10.6279 10.31 10.6279C9.90624 10.6279 9.64003 10.8764 9.64003 11.2783C9.64003 11.4576 9.66933 11.6316 9.71816 11.7879C9.99785 12.6838 10.9736 13.1775 12.0283 13.1775Z" fill="white" fill-opacity="0.85"/>
 </g>
</svg>
