<?xml version="1.0" encoding="UTF-8"?>
<!--Generator: Apple Native CoreSVG 341-->
<!DOCTYPE svg
PUBLIC "-//W3C//DTD SVG 1.1//EN"
       "http://www.w3.org/Graphics/SVG/1.1/DTD/svg11.dtd">
<svg version="1.1" xmlns="http://www.w3.org/2000/svg" xmlns:xlink="http://www.w3.org/1999/xlink" viewBox="0 0 18.5894 18.2316">
 <g>
  <rect height="18.2316" opacity="0" width="18.5894" x="0" y="0"/>
  <path d="M18.2281 3.17148L18.2281 15.0646C18.2281 17.1502 17.1404 18.2281 15.0246 18.2281L3.20351 18.2281C1.0957 18.2281 0 17.1502 0 15.0646L0 3.17148C0 1.08769 1.0957 0 3.20351 0L15.0246 0C17.1404 0 18.2281 1.08769 18.2281 3.17148ZM3.35761 9.11093C3.35761 11.1316 3.95859 13.3619 5.97382 13.3619C7.99081 13.3619 8.5998 11.1316 8.5998 9.11093C8.5998 7.09023 7.99081 4.85995 5.97382 4.85995C3.95859 4.85995 3.35761 7.09023 3.35761 9.11093ZM9.89199 6.36835C9.82538 6.55839 9.80585 6.74394 9.80585 6.91347C9.80585 7.25429 10.0287 7.54433 10.4678 7.54433C10.8246 7.54433 11.0586 7.41738 11.1615 7.04999C11.3019 6.50526 11.5978 6.13593 12.1291 6.13593C12.7475 6.13593 13.0346 6.63144 13.0346 7.25156C13.0346 7.93828 12.6586 8.47011 11.9383 8.47011L11.7355 8.47011C11.3603 8.47011 11.142 8.69375 11.142 9.0416C11.142 9.38945 11.3666 9.59882 11.7355 9.59882L11.948 9.59882C12.7687 9.59882 13.2006 10.0447 13.2006 10.8797C13.2006 11.5176 12.8646 12.0957 12.1646 12.0957C11.499 12.0957 11.1996 11.6496 11.0726 11.2152C10.9644 10.8621 10.7435 10.6855 10.3807 10.6855C9.96191 10.6855 9.68242 10.9455 9.68242 11.3625C9.68242 11.5516 9.71171 11.7309 9.7623 11.8969C10.0553 12.8273 11.0771 13.3361 12.1682 13.3361C13.6328 13.3361 14.7373 12.4297 14.7373 10.9363C14.7373 9.72851 14.0205 9.09394 13.1674 9.00253L13.1674 8.96972C14.0291 8.7414 14.5047 7.9457 14.5047 7.083C14.5047 5.69003 13.4623 4.89726 12.1238 4.89726C11.0957 4.89726 10.1734 5.47089 9.89199 6.36835ZM7.01347 9.11093C7.01347 10.8379 6.72558 12.0887 5.97382 12.0887C5.22206 12.0887 4.93417 10.8379 4.93417 9.11093C4.93417 7.37597 5.22206 6.13319 5.97382 6.13319C6.72558 6.13319 7.01347 7.37597 7.01347 9.11093Z" fill="white" fill-opacity="0.85"/>
 </g>
</svg>
