<?xml version="1.0" encoding="UTF-8"?>
<!--Generator: Apple Native CoreSVG 341-->
<!DOCTYPE svg
PUBLIC "-//W3C//DTD SVG 1.1//EN"
       "http://www.w3.org/Graphics/SVG/1.1/DTD/svg11.dtd">
<svg version="1.1" xmlns="http://www.w3.org/2000/svg" xmlns:xlink="http://www.w3.org/1999/xlink" viewBox="0 0 20.5381 20.1848">
 <g>
  <rect height="20.1848" opacity="0" width="20.5381" x="0" y="0"/>
  <path d="M10.0875 20.175C15.6576 20.175 20.1767 15.6559 20.1767 10.0875C20.1767 4.51914 15.6576 0 10.0875 0C4.51914 0 0 4.51914 0 10.0875C0 15.6559 4.51914 20.175 10.0875 20.175ZM10.0875 18.1879C5.60839 18.1879 1.9871 14.5666 1.9871 10.0875C1.9871 5.60839 5.60839 1.9871 10.0875 1.9871C14.5666 1.9871 18.1897 5.60839 18.1897 10.0875C18.1897 14.5666 14.5666 18.1879 10.0875 18.1879Z" fill="white" fill-opacity="0.85"/>
  <path d="M7.0205 14.1799C8.95507 14.1799 9.53124 12.0258 9.53124 10.0875C9.53124 8.14921 8.95507 5.99335 7.0205 5.99335C5.07968 5.99335 4.50175 8.14921 4.50175 10.0875C4.50175 12.0258 5.07968 14.1799 7.0205 14.1799ZM7.0205 12.9615C6.29003 12.9615 6.01366 11.7436 6.01366 10.0875C6.01366 8.42167 6.29003 7.20546 7.0205 7.20546C7.74296 7.20546 8.02109 8.42167 8.02109 10.0875C8.02109 11.7436 7.74296 12.9615 7.0205 12.9615ZM14.1664 14.1053C14.5506 14.1053 14.8709 13.8736 14.8709 13.3732L14.8709 12.4916L15.1715 12.4916C15.5742 12.4916 15.7545 12.2281 15.7545 11.8873C15.7545 11.5484 15.5779 11.3008 15.1732 11.3008L14.8709 11.3008L14.8709 7.18241C14.8709 6.47519 14.4086 6.07675 13.7316 6.07675C12.9486 6.07675 12.6229 6.52675 12.3406 7.19022L10.7684 10.684C10.6156 11.0666 10.5518 11.3469 10.5518 11.6602C10.5518 12.1658 10.881 12.4916 11.4 12.4916L13.4539 12.4916L13.4539 13.3732C13.4539 13.9102 13.8223 14.1053 14.1664 14.1053ZM13.4885 11.3353L11.8074 11.3353L11.8074 11.2652L13.4494 7.34237L13.4885 7.34237Z" fill="white" fill-opacity="0.85"/>
 </g>
</svg>
