<?xml version="1.0" encoding="UTF-8"?>
<!--Generator: Apple Native CoreSVG 341-->
<!DOCTYPE svg
PUBLIC "-//W3C//DTD SVG 1.1//EN"
       "http://www.w3.org/Graphics/SVG/1.1/DTD/svg11.dtd">
<svg version="1.1" xmlns="http://www.w3.org/2000/svg" xmlns:xlink="http://www.w3.org/1999/xlink" viewBox="0 0 18.5894 18.2316">
 <g>
  <rect height="18.2316" opacity="0" width="18.5894" x="0" y="0"/>
  <path d="M3.20351 18.2281L15.0246 18.2281C17.1404 18.2281 18.2281 17.1502 18.2281 15.0646L18.2281 3.17148C18.2281 1.08769 17.1404 0 15.0246 0L3.20351 0C1.0957 0 0 1.08769 0 3.17148L0 15.0646C0 17.1502 1.0957 18.2281 3.20351 18.2281ZM3.31444 16.3148C2.40643 16.3148 1.91327 15.8465 1.91327 14.8977L1.91327 3.34023C1.91327 2.39139 2.40643 1.91503 3.31444 1.91503L14.9137 1.91503C15.8137 1.91503 16.3148 2.39139 16.3148 3.34023L16.3148 14.8977C16.3148 15.8465 15.8137 16.3148 14.9137 16.3148Z" fill="white" fill-opacity="0.85"/>
  <path d="M6.05995 13.2033C7.99452 13.2033 8.5707 11.0492 8.5707 9.11093C8.5707 7.17265 7.99452 5.01679 6.05995 5.01679C4.11738 5.01679 3.5412 7.17265 3.5412 9.11093C3.5412 11.0492 4.11738 13.2033 6.05995 13.2033ZM6.05995 11.985C5.32948 11.985 5.05136 10.767 5.05136 9.11093C5.05136 7.44511 5.32948 6.2289 6.05995 6.2289C6.79043 6.2289 7.06855 7.44511 7.06855 9.11093C7.06855 10.767 6.79043 11.985 6.05995 11.985ZM13.2059 13.1287C13.598 13.1287 13.9103 12.8971 13.9103 12.3967L13.9103 11.515L14.2109 11.515C14.6217 11.515 14.7939 11.2516 14.7939 10.9107C14.7939 10.5719 14.6174 10.3242 14.2127 10.3242L13.9103 10.3242L13.9103 6.20585C13.9103 5.49862 13.448 5.10019 12.7711 5.10019C11.9881 5.10019 11.6623 5.55018 11.3801 6.21366L9.80781 9.70742C9.65331 10.09 9.59121 10.3703 9.59121 10.6836C9.59121 11.1893 9.9205 11.515 10.4394 11.515L12.4934 11.515L12.4934 12.3967C12.4934 12.9336 12.8617 13.1287 13.2059 13.1287ZM12.5279 10.3588L10.8469 10.3588L10.8469 10.2887L12.4889 6.36581L12.5279 6.36581Z" fill="white" fill-opacity="0.85"/>
 </g>
</svg>
