<?xml version="1.0" encoding="UTF-8"?>
<!--Generator: Apple Native CoreSVG 341-->
<!DOCTYPE svg
PUBLIC "-//W3C//DTD SVG 1.1//EN"
       "http://www.w3.org/Graphics/SVG/1.1/DTD/svg11.dtd">
<svg version="1.1" xmlns="http://www.w3.org/2000/svg" xmlns:xlink="http://www.w3.org/1999/xlink" viewBox="0 0 20.5381 20.1848">
 <g>
  <rect height="20.1848" opacity="0" width="20.5381" x="0" y="0"/>
  <path d="M20.1767 10.0875C20.1767 15.6478 15.6576 20.175 10.0875 20.175C4.52715 20.175 0 15.6478 0 10.0875C0 4.51914 4.52715 0 10.0875 0C15.6576 0 20.1767 4.51914 20.1767 10.0875ZM4.3539 10.0875C4.3539 12.1082 4.96464 14.3385 6.97187 14.3385C8.99062 14.3385 9.5996 12.1082 9.5996 10.0875C9.5996 8.06679 8.99062 5.83652 6.97187 5.83652C4.96464 5.83652 4.3539 8.06679 4.3539 10.0875ZM11.9623 6.04511C11.4289 6.04511 11.1795 6.40722 11.1484 6.94238L10.9885 9.62421C10.9805 9.76464 10.9787 9.93496 10.9787 10.0594C10.9787 10.4842 11.1986 10.8295 11.6814 10.8295C11.9689 10.8295 12.134 10.7273 12.3418 10.4469C12.5453 10.1394 12.7834 9.90859 13.1619 9.90859C13.8434 9.90859 14.1002 10.7621 14.1002 11.4709C14.1002 12.2457 13.8459 13.0883 13.1512 13.0883C12.6367 13.0883 12.3426 12.7125 12.1711 12.2131C12.0486 11.8732 11.81 11.7047 11.5154 11.7047C11.1312 11.7047 10.8766 11.9531 10.8766 12.3453C10.8766 12.5691 10.9316 12.7814 11.0125 12.9715C11.3527 13.79 12.2432 14.3385 13.176 14.3385C14.7535 14.3385 15.6041 13.0236 15.6041 11.4283C15.6041 10.0785 14.984 8.79316 13.6904 8.79316C13.0701 8.79316 12.5549 9.09824 12.3221 9.64726L12.2812 9.64726L12.4252 7.31132L14.7041 7.31132C15.0775 7.31132 15.3021 7.04784 15.3021 6.67597C15.3021 6.31757 15.0607 6.04511 14.7041 6.04511ZM8.01328 10.0875C8.01328 11.8144 7.72363 13.0652 6.97187 13.0652C6.22187 13.0652 5.93222 11.8144 5.93222 10.0875C5.93222 8.35253 6.22187 7.10976 6.97187 7.10976C7.72363 7.10976 8.01328 8.35253 8.01328 10.0875Z" fill="white" fill-opacity="0.85"/>
 </g>
</svg>
