<?xml version="1.0" encoding="UTF-8"?>
<!--Generator: Apple Native CoreSVG 341-->
<!DOCTYPE svg
PUBLIC "-//W3C//DTD SVG 1.1//EN"
       "http://www.w3.org/Graphics/SVG/1.1/DTD/svg11.dtd">
<svg version="1.1" xmlns="http://www.w3.org/2000/svg" xmlns:xlink="http://www.w3.org/1999/xlink" viewBox="0 0 18.5894 18.2316">
 <g>
  <rect height="18.2316" opacity="0" width="18.5894" x="0" y="0"/>
  <path d="M3.20351 18.2281L15.0246 18.2281C17.1404 18.2281 18.2281 17.1502 18.2281 15.0646L18.2281 3.17148C18.2281 1.08769 17.1404 0 15.0246 0L3.20351 0C1.0957 0 0 1.08769 0 3.17148L0 15.0646C0 17.1502 1.0957 18.2281 3.20351 18.2281ZM3.31444 16.3148C2.40643 16.3148 1.91327 15.8465 1.91327 14.8977L1.91327 3.34023C1.91327 2.39139 2.40643 1.91503 3.31444 1.91503L14.9137 1.91503C15.8137 1.91503 16.3148 2.39139 16.3148 3.34023L16.3148 14.8977C16.3148 15.8465 15.8137 16.3148 14.9137 16.3148Z" fill="white" fill-opacity="0.85"/>
  <path d="M6.12206 13.2033C8.05488 13.2033 8.64081 11.0492 8.64081 9.11093C8.64081 7.17265 8.05488 5.01679 6.12206 5.01679C4.18749 5.01679 3.60331 7.17265 3.60331 9.11093C3.60331 11.0492 4.18749 13.2033 6.12206 13.2033ZM6.12206 11.985C5.39159 11.985 5.11347 10.767 5.11347 9.11093C5.11347 7.44511 5.39159 6.2289 6.12206 6.2289C6.85253 6.2289 7.1289 7.44511 7.1289 9.11093C7.1289 10.767 6.85253 11.985 6.12206 11.985ZM12.0852 13.2033C13.6033 13.2033 14.4176 11.9381 14.4176 10.4039C14.4176 9.10195 13.8205 7.86445 12.5748 7.86445C11.9891 7.86445 11.4853 8.158 11.2543 8.68574L11.2135 8.68574L11.3574 6.4287L13.5557 6.4287C13.9221 6.4287 14.1271 6.17675 14.1271 5.82792C14.1271 5.48456 13.899 5.22363 13.5557 5.22363L10.9193 5.22363C10.4027 5.22363 10.1631 5.56445 10.1338 6.0828L9.9916 8.6707C9.97558 8.80136 9.97382 8.96816 9.97382 9.08632C9.97382 9.49257 10.1805 9.82636 10.6482 9.82636C10.9242 9.82636 11.076 9.72421 11.274 9.45703C11.4775 9.15937 11.7059 8.93202 12.0728 8.93202C12.733 8.93202 12.9863 9.76074 12.9863 10.4447C12.9863 11.192 12.732 12.0062 12.0603 12.0062C11.5592 12.0062 11.2748 11.642 11.1131 11.1541C10.9924 10.8258 10.7652 10.6705 10.4857 10.6705C10.1148 10.6705 9.87343 10.9057 9.87343 11.2846C9.87343 11.4969 9.92675 11.6994 10.0059 11.8877C10.3283 12.6717 11.1807 13.2033 12.0852 13.2033Z" fill="white" fill-opacity="0.85"/>
 </g>
</svg>
