<?xml version="1.0" encoding="UTF-8"?>
<!--Generator: Apple Native CoreSVG 341-->
<!DOCTYPE svg
PUBLIC "-//W3C//DTD SVG 1.1//EN"
       "http://www.w3.org/Graphics/SVG/1.1/DTD/svg11.dtd">
<svg version="1.1" xmlns="http://www.w3.org/2000/svg" xmlns:xlink="http://www.w3.org/1999/xlink" viewBox="0 0 18.5894 18.2316">
 <g>
  <rect height="18.2316" opacity="0" width="18.5894" x="0" y="0"/>
  <path d="M18.2281 3.17148L18.2281 15.0646C18.2281 17.1502 17.1404 18.2281 15.0246 18.2281L3.20351 18.2281C1.0957 18.2281 0 17.1502 0 15.0646L0 3.17148C0 1.08769 1.0957 0 3.20351 0L15.0246 0C17.1404 0 18.2281 1.08769 18.2281 3.17148ZM3.25195 9.11093C3.25195 11.1316 3.86093 13.3619 5.86991 13.3619C7.87714 13.3619 8.48612 11.1316 8.48612 9.11093C8.48612 7.09023 7.87714 4.85995 5.86991 4.85995C3.86093 4.85995 3.25195 7.09023 3.25195 9.11093ZM9.62636 9.19628C9.62636 11.076 10.231 13.3619 12.2889 13.3619C13.8273 13.3619 14.6957 12.0711 14.6957 10.5049C14.6957 9.16855 14.0713 7.88828 12.7545 7.88828C11.9492 7.88828 11.3656 8.44042 11.1418 9.2664L11.108 9.2664C11.108 9.19922 11.108 9.13203 11.108 9.07461C11.108 7.91211 11.2623 6.12792 12.2658 6.12792C12.6781 6.12792 12.9555 6.42909 13.1144 6.81562C13.2732 7.14218 13.4693 7.28241 13.8057 7.28241C14.2572 7.28241 14.44 6.98437 14.44 6.633C14.44 6.52734 14.4205 6.38984 14.3814 6.26464C14.1676 5.38847 13.2975 4.87773 12.3021 4.87773C10.2336 4.87773 9.62636 7.15175 9.62636 9.19628ZM13.1936 10.5785C13.1936 11.3074 12.8861 12.1117 12.2676 12.1117C11.5717 12.1117 11.2998 11.2559 11.2998 10.5377C11.2998 9.80605 11.6055 9.0498 12.2596 9.0498C12.9279 9.0498 13.2096 9.8416 13.1936 10.5785ZM6.90781 9.11093C6.90781 10.8379 6.61992 12.0887 5.86991 12.0887C5.1164 12.0887 4.8285 10.8379 4.8285 9.11093C4.8285 7.37597 5.1164 6.13319 5.86991 6.13319C6.61992 6.13319 6.90781 7.37597 6.90781 9.11093Z" fill="white" fill-opacity="0.85"/>
 </g>
</svg>
