<?xml version="1.0" encoding="UTF-8"?>
<!--Generator: Apple Native CoreSVG 341-->
<!DOCTYPE svg
PUBLIC "-//W3C//DTD SVG 1.1//EN"
       "http://www.w3.org/Graphics/SVG/1.1/DTD/svg11.dtd">
<svg version="1.1" xmlns="http://www.w3.org/2000/svg" xmlns:xlink="http://www.w3.org/1999/xlink" viewBox="0 0 18.5894 18.2316">
 <g>
  <rect height="18.2316" opacity="0" width="18.5894" x="0" y="0"/>
  <path d="M3.20351 18.2281L15.0246 18.2281C17.1404 18.2281 18.2281 17.1502 18.2281 15.0646L18.2281 3.17148C18.2281 1.08769 17.1404 0 15.0246 0L3.20351 0C1.0957 0 0 1.08769 0 3.17148L0 15.0646C0 17.1502 1.0957 18.2281 3.20351 18.2281ZM3.31444 16.3148C2.40643 16.3148 1.91327 15.8465 1.91327 14.8977L1.91327 3.34023C1.91327 2.39139 2.40643 1.91503 3.31444 1.91503L14.9137 1.91503C15.8137 1.91503 16.3148 2.39139 16.3148 3.34023L16.3148 14.8977C16.3148 15.8465 15.8137 16.3148 14.9137 16.3148Z" fill="white" fill-opacity="0.85"/>
  <path d="M5.96757 13.2033C7.90214 13.2033 8.48632 11.0492 8.48632 9.11093C8.48632 7.17265 7.90214 5.01679 5.96757 5.01679C4.03476 5.01679 3.44882 7.17265 3.44882 9.11093C3.44882 11.0492 4.03476 13.2033 5.96757 13.2033ZM5.96757 11.985C5.2371 11.985 4.96073 10.767 4.96073 9.11093C4.96073 7.44511 5.2371 6.2289 5.96757 6.2289C6.69804 6.2289 6.97617 7.44511 6.97617 9.11093C6.97617 10.767 6.69804 11.985 5.96757 11.985ZM12.1375 13.2033C13.6166 13.2033 14.4584 11.9621 14.4584 10.4553C14.4584 9.16503 13.8553 7.93437 12.5863 7.93437C11.8076 7.93437 11.2435 8.46347 11.0312 9.26464L10.9975 9.26464C10.9975 9.20097 10.9975 9.13554 10.9975 9.07988C10.9975 7.96074 11.15 6.23339 12.1127 6.23339C12.517 6.23339 12.7828 6.5248 12.9418 6.8998C13.0891 7.21132 13.2816 7.3498 13.6047 7.3498C14.0332 7.3498 14.2045 7.06503 14.2045 6.73046C14.2045 6.62304 14.1867 6.49706 14.1557 6.37363C13.9436 5.53378 13.108 5.03632 12.1508 5.03632C10.1629 5.03632 9.58046 7.22441 9.58046 9.19628C9.58046 11.0051 10.1621 13.2033 12.1375 13.2033ZM12.1144 12.0062C11.4496 12.0062 11.1795 11.1797 11.1795 10.4801C11.1795 9.78124 11.4736 9.04628 12.1064 9.04628C12.757 9.04628 13.0352 9.80878 13.0191 10.5191C13.0191 11.2232 12.725 12.0062 12.1144 12.0062Z" fill="white" fill-opacity="0.85"/>
 </g>
</svg>
