<?xml version="1.0" encoding="UTF-8"?>
<!--Generator: Apple Native CoreSVG 341-->
<!DOCTYPE svg
PUBLIC "-//W3C//DTD SVG 1.1//EN"
       "http://www.w3.org/Graphics/SVG/1.1/DTD/svg11.dtd">
<svg version="1.1" xmlns="http://www.w3.org/2000/svg" xmlns:xlink="http://www.w3.org/1999/xlink" viewBox="0 0 20.5381 20.1848">
 <g>
  <rect height="20.1848" opacity="0" width="20.5381" x="0" y="0"/>
  <path d="M10.0875 20.175C15.6576 20.175 20.1767 15.6559 20.1767 10.0875C20.1767 4.51914 15.6576 0 10.0875 0C4.51914 0 0 4.51914 0 10.0875C0 15.6559 4.51914 20.175 10.0875 20.175ZM10.0875 18.1879C5.60839 18.1879 1.9871 14.5666 1.9871 10.0875C1.9871 5.60839 5.60839 1.9871 10.0875 1.9871C14.5666 1.9871 18.1897 5.60839 18.1897 10.0875C18.1897 14.5666 14.5666 18.1879 10.0875 18.1879Z" fill="white" fill-opacity="0.85"/>
  <path d="M7.41562 14.1799C9.35019 14.1799 9.93437 12.0258 9.93437 10.0875C9.93437 8.14921 9.35019 5.99335 7.41562 5.99335C5.47304 5.99335 4.89687 8.14921 4.89687 10.0875C4.89687 12.0258 5.47304 14.1799 7.41562 14.1799ZM7.41562 12.9615C6.68515 12.9615 6.40702 11.7436 6.40702 10.0875C6.40702 8.42167 6.68515 7.20546 7.41562 7.20546C8.14609 7.20546 8.42246 8.42167 8.42246 10.0875C8.42246 11.7436 8.14609 12.9615 7.41562 12.9615ZM12.1557 14.1115C12.5318 14.1115 12.7049 13.9562 12.8336 13.5977L14.9715 7.8287C15.0824 7.51894 15.1508 7.27577 15.1508 6.97675C15.1508 6.50995 14.7949 6.20019 14.3477 6.20019L11.2768 6.20019C10.9201 6.20019 10.6902 6.46015 10.6902 6.80273C10.6902 7.15058 10.9236 7.40526 11.2768 7.40526L13.6389 7.40526L13.6389 7.49667L11.5914 12.8824C11.5053 13.0973 11.4725 13.2365 11.4725 13.4744C11.4725 13.7717 11.657 14.1115 12.1557 14.1115Z" fill="white" fill-opacity="0.85"/>
 </g>
</svg>
