<?xml version="1.0" encoding="UTF-8"?>
<!--Generator: Apple Native CoreSVG 341-->
<!DOCTYPE svg
PUBLIC "-//W3C//DTD SVG 1.1//EN"
       "http://www.w3.org/Graphics/SVG/1.1/DTD/svg11.dtd">
<svg version="1.1" xmlns="http://www.w3.org/2000/svg" xmlns:xlink="http://www.w3.org/1999/xlink" viewBox="0 0 18.5894 18.2316">
 <g>
  <rect height="18.2316" opacity="0" width="18.5894" x="0" y="0"/>
  <path d="M3.20351 18.2281L15.0246 18.2281C17.1404 18.2281 18.2281 17.1502 18.2281 15.0646L18.2281 3.17148C18.2281 1.08769 17.1404 0 15.0246 0L3.20351 0C1.0957 0 0 1.08769 0 3.17148L0 15.0646C0 17.1502 1.0957 18.2281 3.20351 18.2281ZM3.31444 16.3148C2.40643 16.3148 1.91327 15.8465 1.91327 14.8977L1.91327 3.34023C1.91327 2.39139 2.40643 1.91503 3.31444 1.91503L14.9137 1.91503C15.8137 1.91503 16.3148 2.39139 16.3148 3.34023L16.3148 14.8977C16.3148 15.8465 15.8137 16.3148 14.9137 16.3148Z" fill="white" fill-opacity="0.85"/>
  <path d="M6.45507 13.2033C8.38788 13.2033 8.97382 11.0492 8.97382 9.11093C8.97382 7.17265 8.38788 5.01679 6.45507 5.01679C4.5205 5.01679 3.93632 7.17265 3.93632 9.11093C3.93632 11.0492 4.5205 13.2033 6.45507 13.2033ZM6.45507 11.985C5.7246 11.985 5.44647 10.767 5.44647 9.11093C5.44647 7.44511 5.7246 6.2289 6.45507 6.2289C7.18378 6.2289 7.46191 7.44511 7.46191 9.11093C7.46191 10.767 7.18378 11.985 6.45507 11.985ZM11.1934 13.135C11.5713 13.135 11.7443 12.9797 11.873 12.6211L14.0109 6.85214C14.1219 6.54237 14.1885 6.29921 14.1885 6.00019C14.1885 5.53339 13.8344 5.22363 13.3871 5.22363L10.3242 5.22363C9.95956 5.22363 9.72968 5.48359 9.72968 5.82616C9.72968 6.17401 9.96308 6.4287 10.3242 6.4287L12.6863 6.4287L12.6863 6.52011L10.6309 11.9059C10.5447 12.1207 10.5119 12.26 10.5119 12.4979C10.5119 12.7951 10.6965 13.135 11.1934 13.135Z" fill="white" fill-opacity="0.85"/>
 </g>
</svg>
