<?xml version="1.0" encoding="UTF-8"?>
<!--Generator: Apple Native CoreSVG 341-->
<!DOCTYPE svg
PUBLIC "-//W3C//DTD SVG 1.1//EN"
       "http://www.w3.org/Graphics/SVG/1.1/DTD/svg11.dtd">
<svg version="1.1" xmlns="http://www.w3.org/2000/svg" xmlns:xlink="http://www.w3.org/1999/xlink" viewBox="0 0 20.5381 20.1848">
 <g>
  <rect height="20.1848" opacity="0" width="20.5381" x="0" y="0"/>
  <path d="M20.1767 10.0875C20.1767 15.6478 15.6576 20.175 10.0875 20.175C4.52715 20.175 0 15.6478 0 10.0875C0 4.51914 4.52715 0 10.0875 0C15.6576 0 20.1767 4.51914 20.1767 10.0875ZM4.28574 10.0875C4.28574 12.1082 4.89648 14.3385 6.91171 14.3385C8.92245 14.3385 9.52968 12.1082 9.52968 10.0875C9.52968 8.06679 8.92245 5.83652 6.91171 5.83652C4.89648 5.83652 4.28574 8.06679 4.28574 10.0875ZM10.8637 8.04277C10.8637 9.05585 11.5012 9.65957 12.1555 9.85664L12.1555 9.88769C11.2898 10.0777 10.6426 10.8758 10.6426 11.9502C10.6426 13.4338 11.7719 14.3144 13.2508 14.3144C14.8225 14.3144 15.8812 13.3553 15.8812 11.9519C15.8812 10.8713 15.2045 10.0732 14.3861 9.88769L14.3861 9.85664C15.0758 9.64453 15.6637 8.98496 15.6637 8.05253C15.6637 6.74218 14.6828 5.87206 13.2508 5.87206C11.9982 5.87206 10.8637 6.62851 10.8637 8.04277ZM14.2541 11.826C14.2541 12.5603 13.9209 13.1645 13.2588 13.1645C12.5967 13.1645 12.2652 12.5603 12.2652 11.826C12.2652 11.1191 12.5967 10.523 13.2588 10.523C13.9049 10.523 14.2541 11.0871 14.2541 11.826ZM7.95312 10.0875C7.95312 11.8144 7.66523 13.0652 6.91171 13.0652C6.16171 13.0652 5.87382 11.8144 5.87382 10.0875C5.87382 8.35253 6.16171 7.10976 6.91171 7.10976C7.66523 7.10976 7.95312 8.35253 7.95312 10.0875ZM14.1412 8.20156C14.1412 8.85156 13.8355 9.3748 13.2588 9.3748C12.6758 9.3748 12.3781 8.79374 12.3781 8.20156C12.3781 7.56933 12.6918 7.0123 13.2588 7.0123C13.8516 7.0123 14.1412 7.56933 14.1412 8.20156Z" fill="white" fill-opacity="0.85"/>
 </g>
</svg>
