<?xml version="1.0" encoding="UTF-8"?>
<!--Generator: Apple Native CoreSVG 341-->
<!DOCTYPE svg
PUBLIC "-//W3C//DTD SVG 1.1//EN"
       "http://www.w3.org/Graphics/SVG/1.1/DTD/svg11.dtd">
<svg version="1.1" xmlns="http://www.w3.org/2000/svg" xmlns:xlink="http://www.w3.org/1999/xlink" viewBox="0 0 20.5381 20.1848">
 <g>
  <rect height="20.1848" opacity="0" width="20.5381" x="0" y="0"/>
  <path d="M10.0875 20.175C15.6576 20.175 20.1767 15.6559 20.1767 10.0875C20.1767 4.51914 15.6576 0 10.0875 0C4.51914 0 0 4.51914 0 10.0875C0 15.6559 4.51914 20.175 10.0875 20.175ZM10.0875 18.1879C5.60839 18.1879 1.9871 14.5666 1.9871 10.0875C1.9871 5.60839 5.60839 1.9871 10.0875 1.9871C14.5666 1.9871 18.1897 5.60839 18.1897 10.0875C18.1897 14.5666 14.5666 18.1879 10.0875 18.1879Z" fill="white" fill-opacity="0.85"/>
  <path d="M7.02421 14.1799C8.95878 14.1799 9.54296 12.0258 9.54296 10.0875C9.54296 8.14921 8.95878 5.99335 7.02421 5.99335C5.0914 5.99335 4.50546 8.14921 4.50546 10.0875C4.50546 12.0258 5.0914 14.1799 7.02421 14.1799ZM7.02421 12.9615C6.29374 12.9615 6.01737 11.7436 6.01737 10.0875C6.01737 8.42167 6.29374 7.20546 7.02421 7.20546C7.75468 7.20546 8.03281 8.42167 8.03281 10.0875C8.03281 11.7436 7.75468 12.9615 7.02421 12.9615ZM13.1205 14.1559C14.6363 14.1559 15.6455 13.2312 15.6455 11.8793C15.6455 10.8447 15.0016 10.0732 14.2098 9.89746L14.2098 9.8664C14.8728 9.65957 15.4377 9.0248 15.4377 8.12519C15.4377 6.87421 14.4949 6.03066 13.1205 6.03066C11.9176 6.03066 10.8309 6.75878 10.8309 8.11718C10.8309 9.09218 11.4355 9.67285 12.0668 9.8664L12.0668 9.89746C11.2375 10.0777 10.6115 10.8492 10.6115 11.8775C10.6115 13.3035 11.6947 14.1559 13.1205 14.1559ZM13.1285 9.40312C12.5668 9.40312 12.2726 8.8416 12.2726 8.27245C12.2726 7.66327 12.5828 7.11952 13.1285 7.11952C13.7035 7.11952 13.9816 7.66327 13.9816 8.27245C13.9816 8.89941 13.6875 9.40312 13.1285 9.40312ZM13.1285 13.0572C12.4877 13.0572 12.166 12.4664 12.166 11.7648C12.166 11.0828 12.4877 10.5 13.1285 10.5C13.7551 10.5 14.0945 11.0508 14.0945 11.7648C14.0945 12.4664 13.7711 13.0572 13.1285 13.0572Z" fill="white" fill-opacity="0.85"/>
 </g>
</svg>
