<?xml version="1.0" encoding="UTF-8"?>
<!--Generator: Apple Native CoreSVG 341-->
<!DOCTYPE svg
PUBLIC "-//W3C//DTD SVG 1.1//EN"
       "http://www.w3.org/Graphics/SVG/1.1/DTD/svg11.dtd">
<svg version="1.1" xmlns="http://www.w3.org/2000/svg" xmlns:xlink="http://www.w3.org/1999/xlink" viewBox="0 0 18.5894 18.2316">
 <g>
  <rect height="18.2316" opacity="0" width="18.5894" x="0" y="0"/>
  <path d="M18.2281 3.17148L18.2281 15.0646C18.2281 17.1502 17.1404 18.2281 15.0246 18.2281L3.20351 18.2281C1.0957 18.2281 0 17.1502 0 15.0646L0 3.17148C0 1.08769 1.0957 0 3.20351 0L15.0246 0C17.1404 0 18.2281 1.08769 18.2281 3.17148ZM3.33827 9.11093C3.33827 11.1316 3.94726 13.3619 5.96249 13.3619C7.97324 13.3619 8.58046 11.1316 8.58046 9.11093C8.58046 7.09023 7.97324 4.85995 5.96249 4.85995C3.94726 4.85995 3.33827 7.09023 3.33827 9.11093ZM9.91445 7.06621C9.91445 8.07929 10.5617 8.683 11.208 8.88007L11.208 8.91113C10.3424 9.10117 9.69511 9.89921 9.69511 10.9736C9.69511 12.4572 10.8227 13.3379 12.3096 13.3379C13.875 13.3379 14.9338 12.3787 14.9338 10.9754C14.9338 9.89472 14.257 9.09667 13.4387 8.91113L13.4387 8.88007C14.1283 8.66796 14.7144 8.00839 14.7144 7.07597C14.7144 5.76562 13.7336 4.8955 12.3096 4.8955C11.049 4.8955 9.91445 5.65195 9.91445 7.06621ZM13.3049 10.8494C13.3049 11.5838 12.9717 12.1879 12.3096 12.1879C11.6475 12.1879 11.316 11.5838 11.316 10.8494C11.316 10.1426 11.6555 9.54648 12.3096 9.54648C12.9557 9.54648 13.3049 10.1105 13.3049 10.8494ZM7.0039 9.11093C7.0039 10.8379 6.71601 12.0887 5.96249 12.0887C5.21249 12.0887 4.9246 10.8379 4.9246 9.11093C4.9246 7.37597 5.21249 6.13319 5.96249 6.13319C6.71601 6.13319 7.0039 7.37597 7.0039 9.11093ZM13.1937 7.22499C13.1937 7.87499 12.8863 8.39824 12.3096 8.39824C11.7266 8.39824 11.4307 7.81718 11.4307 7.22499C11.4307 6.59277 11.7426 6.03573 12.3096 6.03573C12.9023 6.03573 13.1937 6.59277 13.1937 7.22499Z" fill="white" fill-opacity="0.85"/>
 </g>
</svg>
