<?xml version="1.0" encoding="UTF-8"?>
<!--Generator: Apple Native CoreSVG 341-->
<!DOCTYPE svg
PUBLIC "-//W3C//DTD SVG 1.1//EN"
       "http://www.w3.org/Graphics/SVG/1.1/DTD/svg11.dtd">
<svg version="1.1" xmlns="http://www.w3.org/2000/svg" xmlns:xlink="http://www.w3.org/1999/xlink" viewBox="0 0 20.5381 20.1848">
 <g>
  <rect height="20.1848" opacity="0" width="20.5381" x="0" y="0"/>
  <path d="M10.0875 20.175C15.6576 20.175 20.1767 15.6559 20.1767 10.0875C20.1767 4.51914 15.6576 0 10.0875 0C4.51914 0 0 4.51914 0 10.0875C0 15.6559 4.51914 20.175 10.0875 20.175ZM10.0875 18.1879C5.60839 18.1879 1.9871 14.5666 1.9871 10.0875C1.9871 5.60839 5.60839 1.9871 10.0875 1.9871C14.5666 1.9871 18.1897 5.60839 18.1897 10.0875C18.1897 14.5666 14.5666 18.1879 10.0875 18.1879Z" fill="white" fill-opacity="0.85"/>
  <path d="M7.08808 14.1799C9.02265 14.1799 9.60683 12.0258 9.60683 10.0875C9.60683 8.14921 9.02265 5.99335 7.08808 5.99335C5.15527 5.99335 4.56933 8.14921 4.56933 10.0875C4.56933 12.0258 5.15527 14.1799 7.08808 14.1799ZM7.08808 12.9615C6.35761 12.9615 6.08124 11.7436 6.08124 10.0875C6.08124 8.42167 6.35761 7.20546 7.08808 7.20546C7.81855 7.20546 8.09668 8.42167 8.09668 10.0875C8.09668 11.7436 7.81855 12.9615 7.08808 12.9615ZM12.5348 11.2818C13.3135 11.2818 13.8838 10.7527 14.0961 9.95156L14.1236 9.95156C14.1236 10.0152 14.1236 10.0807 14.1236 10.1363C14.1236 11.2555 13.9791 12.9766 13.0066 12.9766C12.6111 12.9766 12.3498 12.709 12.1793 12.3119C12.0258 11.9826 11.8234 11.8521 11.5244 11.8521C11.0879 11.8521 10.9068 12.1432 10.9068 12.4777C10.9068 12.5932 10.9264 12.7191 10.9654 12.8363C11.1775 13.6824 12.0131 14.1736 12.9703 14.1736C14.9582 14.1736 15.5406 12.0078 15.5406 10.0199C15.5406 8.21113 14.9572 6.01288 12.9916 6.01288C11.5125 6.01288 10.6707 7.25409 10.6707 8.76093C10.6707 10.0512 11.2721 11.2818 12.5348 11.2818ZM13.0129 10.1654C12.3641 10.1654 12.0939 9.41269 12.0939 8.70058C12.0939 7.98222 12.3961 7.20546 13.0129 7.20546C13.6715 7.20546 13.9416 7.98398 13.9416 8.70761C13.9416 9.43847 13.6475 10.1654 13.0129 10.1654Z" fill="white" fill-opacity="0.85"/>
 </g>
</svg>
