<?xml version="1.0" encoding="UTF-8"?>
<!--Generator: Apple Native CoreSVG 341-->
<!DOCTYPE svg
PUBLIC "-//W3C//DTD SVG 1.1//EN"
       "http://www.w3.org/Graphics/SVG/1.1/DTD/svg11.dtd">
<svg version="1.1" xmlns="http://www.w3.org/2000/svg" xmlns:xlink="http://www.w3.org/1999/xlink" viewBox="0 0 18.5894 18.2316">
 <g>
  <rect height="18.2316" opacity="0" width="18.5894" x="0" y="0"/>
  <path d="M18.2281 3.17148L18.2281 15.0646C18.2281 17.1502 17.1404 18.2281 15.0246 18.2281L3.20351 18.2281C1.0957 18.2281 0 17.1502 0 15.0646L0 3.17148C0 1.08769 1.0957 0 3.20351 0L15.0246 0C17.1404 0 18.2281 1.08769 18.2281 3.17148ZM3.41191 9.11093C3.41191 11.1316 4.02089 13.3619 6.02988 13.3619C8.04511 13.3619 8.65409 11.1316 8.65409 9.11093C8.65409 7.09023 8.04511 4.85995 6.02988 4.85995C4.02089 4.85995 3.41191 7.09023 3.41191 9.11093ZM9.75429 7.73476C9.75429 9.07109 10.3787 10.3514 11.6875 10.3514C12.5105 10.3514 13.0941 9.79921 13.3082 8.97324L13.3437 8.97324C13.3437 9.04042 13.3437 9.10761 13.3437 9.16503C13.3437 10.3275 13.1877 12.1055 12.1877 12.1055C11.7789 12.1055 11.5096 11.8281 11.3293 11.4195C11.1705 11.0769 10.9664 10.9447 10.6443 10.9447C10.1865 10.9447 10.0037 11.249 10.0037 11.5986C10.0037 11.7123 10.0312 11.8498 10.0605 11.967C10.2842 12.8512 11.1543 13.3557 12.1496 13.3557C14.2119 13.3557 14.8174 11.1057 14.8174 9.04335C14.8174 7.16367 14.2207 4.87773 12.1691 4.87773C10.6307 4.87773 9.75429 6.16855 9.75429 7.73476ZM7.06777 9.11093C7.06777 10.8379 6.77988 12.0887 6.02988 12.0887C5.27636 12.0887 4.98847 10.8379 4.98847 9.11093C4.98847 7.37597 5.27636 6.13319 6.02988 6.13319C6.77988 6.13319 7.06777 7.37597 7.06777 9.11093ZM13.152 7.67343C13.152 8.4371 12.8463 9.18535 12.1922 9.18535C11.5238 9.18535 11.2439 8.41132 11.2439 7.6664C11.2439 6.92148 11.5559 6.13319 12.1922 6.13319C12.8703 6.13319 13.152 6.92324 13.152 7.67343Z" fill="white" fill-opacity="0.85"/>
 </g>
</svg>
