<?xml version="1.0" encoding="UTF-8"?>
<!--Generator: Apple Native CoreSVG 341-->
<!DOCTYPE svg
PUBLIC "-//W3C//DTD SVG 1.1//EN"
       "http://www.w3.org/Graphics/SVG/1.1/DTD/svg11.dtd">
<svg version="1.1" xmlns="http://www.w3.org/2000/svg" xmlns:xlink="http://www.w3.org/1999/xlink" viewBox="0 0 18.5894 18.2316">
 <g>
  <rect height="18.2316" opacity="0" width="18.5894" x="0" y="0"/>
  <path d="M3.20351 18.2281L15.0246 18.2281C17.1404 18.2281 18.2281 17.1502 18.2281 15.0646L18.2281 3.17148C18.2281 1.08769 17.1404 0 15.0246 0L3.20351 0C1.0957 0 0 1.08769 0 3.17148L0 15.0646C0 17.1502 1.0957 18.2281 3.20351 18.2281ZM3.31444 16.3148C2.40643 16.3148 1.91327 15.8465 1.91327 14.8977L1.91327 3.34023C1.91327 2.39139 2.40643 1.91503 3.31444 1.91503L14.9137 1.91503C15.8137 1.91503 16.3148 2.39139 16.3148 3.34023L16.3148 14.8977C16.3148 15.8465 15.8137 16.3148 14.9137 16.3148Z" fill="white" fill-opacity="0.85"/>
  <path d="M6.12753 13.2033C8.0621 13.2033 8.64628 11.0492 8.64628 9.11093C8.64628 7.17265 8.0621 5.01679 6.12753 5.01679C4.19296 5.01679 3.60878 7.17265 3.60878 9.11093C3.60878 11.0492 4.19296 13.2033 6.12753 13.2033ZM6.12753 11.985C5.39706 11.985 5.11893 10.767 5.11893 9.11093C5.11893 7.44511 5.39706 6.2289 6.12753 6.2289C6.858 6.2289 7.13613 7.44511 7.13613 9.11093C7.13613 10.767 6.858 11.985 6.12753 11.985ZM11.5725 10.3053C12.3609 10.3053 12.9232 9.77617 13.1355 8.97499L13.1711 8.97499C13.1711 9.03867 13.1711 9.10409 13.1711 9.15976C13.1711 10.2789 13.0186 12 12.0461 12C11.6488 12 11.3893 11.7324 11.217 11.3353C11.0652 11.0061 10.8691 10.8756 10.5621 10.8756C10.1273 10.8756 9.94628 11.1666 9.94628 11.5012C9.94628 11.6166 9.97382 11.7426 10.0031 11.8598C10.217 12.7059 11.0525 13.1971 12.0098 13.1971C13.9959 13.1971 14.5783 11.0312 14.5783 9.04335C14.5783 7.23456 14.0047 5.03632 12.0293 5.03632C10.5519 5.03632 9.71015 6.27753 9.71015 7.78437C9.71015 9.0746 10.3115 10.3053 11.5725 10.3053ZM12.0523 9.18886C11.4035 9.18886 11.1316 8.43613 11.1316 7.72402C11.1316 7.00566 11.4355 6.2289 12.0523 6.2289C12.7109 6.2289 12.9891 7.00742 12.9891 7.73105C12.9891 8.46191 12.6852 9.18886 12.0523 9.18886Z" fill="white" fill-opacity="0.85"/>
 </g>
</svg>
