<?xml version="1.0" encoding="UTF-8"?>
<!--Generator: Apple Native CoreSVG 341-->
<!DOCTYPE svg
PUBLIC "-//W3C//DTD SVG 1.1//EN"
       "http://www.w3.org/Graphics/SVG/1.1/DTD/svg11.dtd">
<svg version="1.1" xmlns="http://www.w3.org/2000/svg" xmlns:xlink="http://www.w3.org/1999/xlink" viewBox="0 0 20.1969 18.2476">
 <g>
  <rect height="18.2476" opacity="0" width="20.1969" x="0" y="0"/>
  <path d="M3.20351 18.2476L16.64 18.2476C18.7478 18.2476 19.8355 17.16 19.8355 15.0762L19.8355 3.19101C19.8355 1.10547 18.7478 0.0195312 16.64 0.0195312L3.20351 0.0195312C1.0957 0.0195312 0 1.09746 0 3.19101L0 15.0762C0 17.168 1.0957 18.2476 3.20351 18.2476ZM3.17655 16.3344C2.35663 16.3344 1.91327 15.9141 1.91327 15.0551L1.91327 6.03241C1.91327 5.18144 2.35663 4.75487 3.17655 4.75487L16.651 4.75487C17.4709 4.75487 17.9223 5.18144 17.9223 6.03241L17.9223 15.0551C17.9223 15.9141 17.4709 16.3344 16.651 16.3344Z" fill="white" fill-opacity="0.85"/>
  <path d="M10.431 14.8023C10.9639 14.8023 11.2873 14.4732 11.2873 13.867L11.2873 7.26366C11.2873 6.67929 10.9365 6.32656 10.3586 6.32656C9.97382 6.32656 9.69199 6.42851 9.26543 6.71679L7.70937 7.76933C7.47363 7.93066 7.36465 8.0955 7.36465 8.3703C7.36465 8.69471 7.61914 8.98026 7.95957 8.98026C8.10585 8.98026 8.2123 8.95721 8.43847 8.80819L9.51894 8.09471L9.58281 8.09471L9.58281 13.867C9.58281 14.4732 9.90449 14.8023 10.431 14.8023Z" fill="white" fill-opacity="0.85"/>
 </g>
</svg>
