<?xml version="1.0" encoding="UTF-8"?>
<!--Generator: Apple Native CoreSVG 341-->
<!DOCTYPE svg
PUBLIC "-//W3C//DTD SVG 1.1//EN"
       "http://www.w3.org/Graphics/SVG/1.1/DTD/svg11.dtd">
<svg version="1.1" xmlns="http://www.w3.org/2000/svg" xmlns:xlink="http://www.w3.org/1999/xlink" viewBox="0 0 18.5894 15.2672">
 <g>
  <rect height="15.2672" opacity="0" width="18.5894" x="0" y="0"/>
  <path d="M0 14.3074C0 14.832 0.428903 15.2672 0.953509 15.2672C1.48436 15.2672 1.91327 14.832 1.91327 14.3074L1.91327 1.01171C1.91327 0.487105 1.48436 0.0582016 0.953509 0.0582016C0.428903 0.0582016 0 0.487105 0 1.01171ZM16.3148 14.3074C16.3148 14.832 16.7518 15.2672 17.2746 15.2672C17.7992 15.2672 18.2281 14.832 18.2281 14.3074L18.2281 1.01171C18.2281 0.487105 17.7992 0.0582016 17.2746 0.0582016C16.7518 0.0582016 16.3148 0.487105 16.3148 1.01171Z" fill="white" fill-opacity="0.85"/>
  <path d="M9.61503 12.1392C10.1357 12.1392 10.4551 11.7676 10.4551 11.2469L10.4551 4.43104C10.4551 3.82518 10.0781 3.48456 9.47851 3.48456C9.00214 3.48456 8.65176 3.68593 8.27031 3.98046L7.10019 4.83964C6.87128 5.01444 6.72754 5.21757 6.72754 5.50682C6.72754 5.84393 6.97597 6.11542 7.32109 6.11542C7.48964 6.11542 7.60058 6.06307 7.73632 5.95839L8.74843 5.19862L8.775 5.19862L8.775 11.2469C8.775 11.7773 9.09257 12.1392 9.61503 12.1392Z" fill="white" fill-opacity="0.85"/>
 </g>
</svg>
