<?xml version="1.0" encoding="UTF-8"?>
<!--Generator: Apple Native CoreSVG 341-->
<!DOCTYPE svg
PUBLIC "-//W3C//DTD SVG 1.1//EN"
       "http://www.w3.org/Graphics/SVG/1.1/DTD/svg11.dtd">
<svg version="1.1" xmlns="http://www.w3.org/2000/svg" xmlns:xlink="http://www.w3.org/1999/xlink" viewBox="0 0 18.5894 18.2316">
 <g>
  <rect height="18.2316" opacity="0" width="18.5894" x="0" y="0"/>
  <path d="M18.2281 3.17148L18.2281 15.0646C18.2281 17.1502 17.1404 18.2281 15.0246 18.2281L3.20351 18.2281C1.0957 18.2281 0 17.1502 0 15.0646L0 3.17148C0 1.08769 1.0957 0 3.20351 0L15.0246 0C17.1404 0 18.2281 1.08769 18.2281 3.17148ZM8.3961 4.75585L6.63594 5.94062C6.36836 6.13652 6.24434 6.31991 6.24434 6.62655C6.24434 7.00409 6.53691 7.33573 6.91894 7.33573C7.0998 7.33573 7.21777 7.31268 7.47851 7.13885L8.68769 6.33924L8.76309 6.33924L8.76309 12.8377C8.76309 13.5307 9.12988 13.9076 9.73612 13.9076C10.3469 13.9076 10.7269 13.5307 10.7269 12.8377L10.7269 5.38241C10.7269 4.71386 10.3178 4.31425 9.65488 4.31425C9.20898 4.31425 8.88555 4.42773 8.3961 4.75585Z" fill="white" fill-opacity="0.85"/>
 </g>
</svg>
