<?xml version="1.0" encoding="UTF-8"?>
<!--Generator: Apple Native CoreSVG 341-->
<!DOCTYPE svg
PUBLIC "-//W3C//DTD SVG 1.1//EN"
       "http://www.w3.org/Graphics/SVG/1.1/DTD/svg11.dtd">
<svg version="1.1" xmlns="http://www.w3.org/2000/svg" xmlns:xlink="http://www.w3.org/1999/xlink" viewBox="0 0 20.5381 23.885">
 <g>
  <rect height="23.885" opacity="0" width="20.5381" x="0" y="0"/>
  <path d="M12.0514 0.722792C12.0514-0.00845663 11.5078-0.191269 10.9557 0.203652L7.80273 2.47377C7.36582 2.79076 7.37382 3.27709 7.80273 3.58783L10.9637 5.85618C11.5078 6.24134 12.0514 6.06029 12.0514 5.34056ZM10.0875 22.0251C15.6576 22.0251 20.1767 17.5042 20.1767 11.9376C20.1767 6.36928 15.6656 1.85815 10.076 1.85014C9.52734 1.85815 9.09043 2.30131 9.09043 2.83568C9.09043 3.38431 9.53535 3.83724 10.084 3.83724C14.5666 3.83724 18.1897 7.45853 18.1897 11.9376C18.1897 16.4167 14.5666 20.038 10.0875 20.038C5.60839 20.038 1.9871 16.4167 1.9871 11.9376C1.9871 9.31087 3.23124 7.01262 5.15742 5.54407C5.61406 5.14817 5.7621 4.58548 5.42305 4.10677C5.10156 3.66341 4.45001 3.56029 3.93946 3.99427C1.51661 5.84759 0 8.71986 0 11.9376C0 17.5042 4.51914 22.0251 10.0875 22.0251Z" fill="white" fill-opacity="0.85"/>
  <path d="M7.50468 15.8915C7.96952 15.8915 8.24628 15.5642 8.24628 15.1091L8.24628 9.12884C8.24628 8.60462 7.91366 8.30033 7.39121 8.30033C6.96894 8.30033 6.66289 8.48841 6.33203 8.74037L5.30937 9.49916C5.10175 9.64467 4.97753 9.82474 4.97753 10.0732C4.97753 10.3757 5.19492 10.6064 5.4912 10.6064C5.64648 10.6064 5.74589 10.5638 5.8621 10.4706L6.74629 9.8095L6.77109 9.8095L6.77109 15.1091C6.77109 15.566 7.04785 15.8915 7.50468 15.8915ZM12.4293 15.9537C14.3566 15.9537 15.0463 14.0197 15.0463 12.0853C15.0463 10.1527 14.3566 8.23021 12.4293 8.23021C10.4887 8.23021 9.80878 10.1642 9.80878 12.0853C9.80878 14.0242 10.51 15.9537 12.4293 15.9537ZM12.4293 14.7675C11.682 14.7675 11.3053 13.6507 11.3053 12.0853C11.3053 10.5314 11.682 9.42435 12.4293 9.42435C13.1811 9.42435 13.5533 10.5394 13.5533 12.0853C13.5533 13.6507 13.1811 14.7675 12.4293 14.7675Z" fill="white" fill-opacity="0.85"/>
 </g>
</svg>
