<?xml version="1.0" encoding="UTF-8"?>
<!--Generator: Apple Native CoreSVG 341-->
<!DOCTYPE svg
PUBLIC "-//W3C//DTD SVG 1.1//EN"
       "http://www.w3.org/Graphics/SVG/1.1/DTD/svg11.dtd">
<svg version="1.1" xmlns="http://www.w3.org/2000/svg" xmlns:xlink="http://www.w3.org/1999/xlink" viewBox="0 0 20.1969 18.2476">
 <g>
  <rect height="18.2476" opacity="0" width="20.1969" x="0" y="0"/>
  <path d="M3.20351 18.2476L16.64 18.2476C18.7478 18.2476 19.8355 17.16 19.8355 15.0762L19.8355 3.19101C19.8355 1.10547 18.7478 0.0195312 16.64 0.0195312L3.20351 0.0195312C1.0957 0.0195312 0 1.09746 0 3.19101L0 15.0762C0 17.168 1.0957 18.2476 3.20351 18.2476ZM3.17655 16.3344C2.35663 16.3344 1.91327 15.9141 1.91327 15.0551L1.91327 6.03241C1.91327 5.18144 2.35663 4.75487 3.17655 4.75487L16.651 4.75487C17.4709 4.75487 17.9223 5.18144 17.9223 6.03241L17.9223 15.0551C17.9223 15.9141 17.4709 16.3344 16.651 16.3344Z" fill="white" fill-opacity="0.85"/>
  <path d="M7.38319 14.5645C7.79843 14.5645 8.13827 14.2246 8.13827 13.7996L8.13827 7.39042C8.13827 6.84921 7.80644 6.54218 7.26698 6.54218C6.83925 6.54218 6.50546 6.76152 6.258 6.95488L5.2453 7.7455C5.05019 7.88652 4.91523 8.0871 4.91523 8.34804C4.91523 8.68241 5.1414 8.89198 5.43437 8.89198C5.59413 8.89198 5.69706 8.84316 5.80526 8.758L6.62812 8.10663L6.62812 13.7996C6.62812 14.2246 6.96796 14.5645 7.38319 14.5645ZM12.1437 14.6488C14.0766 14.6488 14.6625 12.5027 14.6625 10.5644C14.6625 8.61816 14.0766 6.47206 12.1437 6.47206C10.2092 6.47206 9.62499 8.61816 9.62499 10.5644C9.62499 12.5027 10.2092 14.6488 12.1437 14.6488ZM12.1437 13.4385C11.4133 13.4385 11.1351 12.2205 11.1351 10.5644C11.1351 8.90038 11.4133 7.68241 12.1437 7.68241C12.8742 7.68241 13.1506 8.90038 13.1506 10.5644C13.1506 12.2205 12.8742 13.4385 12.1437 13.4385Z" fill="white" fill-opacity="0.85"/>
 </g>
</svg>
