<?xml version="1.0" encoding="UTF-8"?>
<!--Generator: Apple Native CoreSVG 341-->
<!DOCTYPE svg
PUBLIC "-//W3C//DTD SVG 1.1//EN"
       "http://www.w3.org/Graphics/SVG/1.1/DTD/svg11.dtd">
<svg version="1.1" xmlns="http://www.w3.org/2000/svg" xmlns:xlink="http://www.w3.org/1999/xlink" viewBox="0 0 20.5381 20.1848">
 <g>
  <rect height="20.1848" opacity="0" width="20.5381" x="0" y="0"/>
  <path d="M20.1767 10.0875C20.1767 15.6478 15.6576 20.175 10.0875 20.175C4.52715 20.175 0 15.6478 0 10.0875C0 4.51914 4.52715 0 10.0875 0C15.6576 0 20.1767 4.51914 20.1767 10.0875ZM9.78808 10.0875C9.78808 12.1082 10.3971 14.3385 12.4043 14.3385C14.415 14.3385 15.0223 12.1082 15.0223 10.0875C15.0223 8.06679 14.415 5.83652 12.4043 5.83652C10.3971 5.83652 9.78808 8.06679 9.78808 10.0875ZM6.26777 6.34413L5.21874 7.15605C5.02187 7.31035 4.88515 7.51269 4.88515 7.78691C4.88515 8.13456 5.1166 8.35741 5.42109 8.35741C5.59062 8.35741 5.69531 8.30683 5.81503 8.21816L6.65918 7.53925L6.65918 13.4494C6.65918 13.8894 7.01406 14.2426 7.45234 14.2426C7.87636 14.2426 8.23573 13.8894 8.23573 13.4494L8.23573 6.79648C8.23573 6.23671 7.88437 5.91816 7.33261 5.91816C6.88359 5.91816 6.53476 6.14726 6.26777 6.34413ZM13.4457 10.0875C13.4457 11.8144 13.1578 13.0652 12.4043 13.0652C11.6543 13.0652 11.3664 11.8144 11.3664 10.0875C11.3664 8.35253 11.6543 7.10976 12.4043 7.10976C13.1578 7.10976 13.4457 8.35253 13.4457 10.0875Z" fill="white" fill-opacity="0.85"/>
 </g>
</svg>
