<?xml version="1.0" encoding="UTF-8"?>
<!--Generator: Apple Native CoreSVG 341-->
<!DOCTYPE svg
PUBLIC "-//W3C//DTD SVG 1.1//EN"
       "http://www.w3.org/Graphics/SVG/1.1/DTD/svg11.dtd">
<svg version="1.1" xmlns="http://www.w3.org/2000/svg" xmlns:xlink="http://www.w3.org/1999/xlink" viewBox="0 0 18.5894 18.2316">
 <g>
  <rect height="18.2316" opacity="0" width="18.5894" x="0" y="0"/>
  <path d="M18.2281 3.17148L18.2281 15.0646C18.2281 17.1502 17.1404 18.2281 15.0246 18.2281L3.20351 18.2281C1.0957 18.2281 0 17.1502 0 15.0646L0 3.17148C0 1.08769 1.0957 0 3.20351 0L15.0246 0C17.1404 0 18.2281 1.08769 18.2281 3.17148ZM8.83886 9.11093C8.83886 11.1316 9.44784 13.3619 11.4568 13.3619C13.4658 13.3619 14.073 11.1316 14.073 9.11093C14.073 7.09023 13.4658 4.85995 11.4568 4.85995C9.44784 4.85995 8.83886 7.09023 8.83886 9.11093ZM5.31855 5.36757L4.27128 6.17949C4.07441 6.33378 3.93769 6.53613 3.93769 6.81035C3.93769 7.158 4.16913 7.38085 4.47363 7.38085C4.64316 7.38085 4.74784 7.33027 4.86581 7.24159L5.71171 6.56269L5.71171 12.4728C5.71171 12.9129 6.06484 13.266 6.50312 13.266C6.93515 13.266 7.29628 12.9129 7.29628 12.4728L7.29628 5.81991C7.29628 5.26015 6.94316 4.9416 6.38515 4.9416C5.93437 4.9416 5.5873 5.1707 5.31855 5.36757ZM12.4965 9.11093C12.4965 10.8379 12.2086 12.0887 11.4568 12.0887C10.7051 12.0887 10.4172 10.8379 10.4172 9.11093C10.4172 7.37597 10.7051 6.13319 11.4568 6.13319C12.2086 6.13319 12.4965 7.37597 12.4965 9.11093Z" fill="white" fill-opacity="0.85"/>
 </g>
</svg>
