<?xml version="1.0" encoding="UTF-8"?>
<!--Generator: Apple Native CoreSVG 341-->
<!DOCTYPE svg
PUBLIC "-//W3C//DTD SVG 1.1//EN"
       "http://www.w3.org/Graphics/SVG/1.1/DTD/svg11.dtd">
<svg version="1.1" xmlns="http://www.w3.org/2000/svg" xmlns:xlink="http://www.w3.org/1999/xlink" viewBox="0 0 18.5894 18.2316">
 <g>
  <rect height="18.2316" opacity="0" width="18.5894" x="0" y="0"/>
  <path d="M3.20351 18.2281L15.0246 18.2281C17.1404 18.2281 18.2281 17.1502 18.2281 15.0646L18.2281 3.17148C18.2281 1.08769 17.1404 0 15.0246 0L3.20351 0C1.0957 0 0 1.08769 0 3.17148L0 15.0646C0 17.1502 1.0957 18.2281 3.20351 18.2281ZM3.31444 16.3148C2.40643 16.3148 1.91327 15.8465 1.91327 14.8977L1.91327 3.34023C1.91327 2.39139 2.40643 1.91503 3.31444 1.91503L14.9137 1.91503C15.8137 1.91503 16.3148 2.39139 16.3148 3.34023L16.3148 14.8977C16.3148 15.8465 15.8137 16.3148 14.9137 16.3148Z" fill="white" fill-opacity="0.85"/>
  <path d="M6.57949 13.1092C6.99472 13.1092 7.33456 12.7693 7.33456 12.3541L7.33456 5.9369C7.33456 5.4037 7.00273 5.09667 6.46327 5.09667C6.03554 5.09667 5.70175 5.31601 5.44628 5.50761L4.43359 6.29023C4.24648 6.44101 4.11152 6.63359 4.11152 6.89452C4.11152 7.2289 4.33769 7.43847 4.63066 7.43847C4.79042 7.43847 4.89335 7.38964 5.00155 7.31249L5.82441 6.65311L5.82441 12.3541C5.82441 12.7693 6.16425 13.1092 6.57949 13.1092ZM11.34 13.2033C13.2728 13.2033 13.8588 11.0492 13.8588 9.11093C13.8588 7.17265 13.2728 5.01679 11.34 5.01679C9.40546 5.01679 8.82128 7.17265 8.82128 9.11093C8.82128 11.0492 9.40546 13.2033 11.34 13.2033ZM11.34 11.985C10.6096 11.985 10.3314 10.767 10.3314 9.11093C10.3314 7.44511 10.6096 6.2289 11.34 6.2289C12.0705 6.2289 12.3469 7.44511 12.3469 9.11093C12.3469 10.767 12.0705 11.985 11.34 11.985Z" fill="white" fill-opacity="0.85"/>
 </g>
</svg>
