<?xml version="1.0" encoding="UTF-8"?>
<!--Generator: Apple Native CoreSVG 341-->
<!DOCTYPE svg
PUBLIC "-//W3C//DTD SVG 1.1//EN"
       "http://www.w3.org/Graphics/SVG/1.1/DTD/svg11.dtd">
<svg version="1.1" xmlns="http://www.w3.org/2000/svg" xmlns:xlink="http://www.w3.org/1999/xlink" viewBox="0 0 18.5894 15.2672">
 <g>
  <rect height="15.2672" opacity="0" width="18.5894" x="0" y="0"/>
  <path d="M0 14.3074C0 14.832 0.428903 15.2672 0.953509 15.2672C1.48436 15.2672 1.91327 14.832 1.91327 14.3074L1.91327 1.01171C1.91327 0.487105 1.48436 0.0582016 0.953509 0.0582016C0.428903 0.0582016 0 0.487105 0 1.01171ZM16.3148 14.3074C16.3148 14.832 16.7518 15.2672 17.2746 15.2672C17.7992 15.2672 18.2281 14.832 18.2281 14.3074L18.2281 1.01171C18.2281 0.487105 17.7992 0.0582016 17.2746 0.0582016C16.7518 0.0582016 16.3148 0.487105 16.3148 1.01171Z" fill="white" fill-opacity="0.85"/>
  <path d="M7.28027 11.7783C7.75312 11.7783 8.0539 11.443 8.0539 10.9621L8.0539 4.67401C8.0539 4.12577 7.70527 3.8037 7.14902 3.8037C6.71074 3.8037 6.39668 3.99979 6.0418 4.25975L4.96132 5.06034C4.75546 5.22186 4.62324 5.40194 4.62324 5.66639C4.62324 5.98671 4.84863 6.22538 5.15917 6.22538C5.3162 6.22538 5.42187 6.18104 5.54784 6.08788L6.48008 5.3867L6.50664 5.3867L6.50664 10.9621C6.50664 11.443 6.79941 11.7783 7.28027 11.7783ZM12.1477 11.7783C12.6187 11.7783 12.9133 11.443 12.9133 10.9603L12.9133 4.67401C12.9133 4.12577 12.5709 3.8037 12.0164 3.8037C11.5781 3.8037 11.2641 3.99979 10.9092 4.26151L9.82871 5.06034C9.62109 5.22186 9.49062 5.40018 9.49062 5.66639C9.49062 5.98495 9.71601 6.22538 10.0266 6.22538C10.1818 6.22538 10.2893 6.1828 10.4135 6.08788L11.3475 5.3867L11.3723 5.3867L11.3723 10.9603C11.3723 11.4447 11.6668 11.7783 12.1477 11.7783Z" fill="white" fill-opacity="0.85"/>
 </g>
</svg>
