<?xml version="1.0" encoding="UTF-8"?>
<!--Generator: Apple Native CoreSVG 341-->
<!DOCTYPE svg
PUBLIC "-//W3C//DTD SVG 1.1//EN"
       "http://www.w3.org/Graphics/SVG/1.1/DTD/svg11.dtd">
<svg version="1.1" xmlns="http://www.w3.org/2000/svg" xmlns:xlink="http://www.w3.org/1999/xlink" viewBox="0 0 18.5894 18.2316">
 <g>
  <rect height="18.2316" opacity="0" width="18.5894" x="0" y="0"/>
  <path d="M18.2281 3.17148L18.2281 15.0646C18.2281 17.1502 17.1404 18.2281 15.0246 18.2281L3.20351 18.2281C1.0957 18.2281 0 17.1502 0 15.0646L0 3.17148C0 1.08769 1.0957 0 3.20351 0L15.0246 0C17.1404 0 18.2281 1.08769 18.2281 3.17148ZM5.97207 5.36757L4.9248 6.17949C4.71816 6.33378 4.59121 6.53613 4.59121 6.81035C4.59121 7.158 4.82265 7.37909 5.13515 7.37909C5.28867 7.37909 5.40136 7.33027 5.51308 7.24159L6.36523 6.56269L6.36523 12.4728C6.36523 12.9129 6.71835 13.266 7.15839 13.266C7.58866 13.266 7.94179 12.9129 7.94179 12.4728L7.94179 5.81991C7.94179 5.26015 7.59667 4.9416 7.03066 4.9416C6.58613 4.9416 6.23281 5.1707 5.97207 5.36757ZM10.6275 5.36757L9.58202 6.17949C9.38339 6.33378 9.23867 6.53613 9.23867 6.81035C9.23867 7.158 9.47812 7.37909 9.79062 7.37909C9.94413 7.37909 10.0568 7.33027 10.1668 7.24159L11.0207 6.56269L11.0207 12.4728C11.0207 12.9129 11.3756 13.266 11.8121 13.266C12.2441 13.266 12.5973 12.9129 12.5973 12.4728L12.5973 5.81991C12.5973 5.26015 12.2539 4.9416 11.6861 4.9416C11.2353 4.9416 10.89 5.1707 10.6275 5.36757Z" fill="white" fill-opacity="0.85"/>
 </g>
</svg>
