<?xml version="1.0" encoding="UTF-8"?>
<!--Generator: Apple Native CoreSVG 341-->
<!DOCTYPE svg
PUBLIC "-//W3C//DTD SVG 1.1//EN"
       "http://www.w3.org/Graphics/SVG/1.1/DTD/svg11.dtd">
<svg version="1.1" xmlns="http://www.w3.org/2000/svg" xmlns:xlink="http://www.w3.org/1999/xlink" viewBox="0 0 20.5381 20.1848">
 <g>
  <rect height="20.1848" opacity="0" width="20.5381" x="0" y="0"/>
  <path d="M20.1767 10.0875C20.1767 15.6478 15.6576 20.175 10.0875 20.175C4.52715 20.175 0 15.6478 0 10.0875C0 4.51914 4.52715 0 10.0875 0C15.6576 0 20.1767 4.51914 20.1767 10.0875ZM6.31914 6.35214L5.27187 7.15605C5.07324 7.31035 4.93027 7.51269 4.93027 7.78691C4.93027 8.13456 5.16972 8.35741 5.47421 8.35741C5.64374 8.35741 5.74843 8.30683 5.8664 8.22968L6.7123 7.53925L6.7123 13.4574C6.7123 13.8894 7.06542 14.2443 7.50546 14.2443C7.93398 14.2443 8.28886 13.8894 8.28886 13.4574L8.28886 6.79648C8.28886 6.23671 7.94374 5.91816 7.37773 5.91816C6.9332 5.91816 6.58789 6.14726 6.31914 6.35214ZM9.76503 7.93359C9.76503 8.33554 10.0019 8.61855 10.4092 8.61855C10.7615 8.61855 10.9832 8.45527 11.1039 8.09511C11.2674 7.47753 11.5002 7.07694 12.0475 7.07694C12.6115 7.07694 12.9146 7.58144 12.9146 8.24863C12.9146 9.03984 12.3641 9.8373 11.8227 10.5367L10.1643 12.6455C9.94003 12.9371 9.75878 13.1945 9.75878 13.5088C9.75878 13.8805 10.0027 14.1316 10.4881 14.1316L13.9279 14.1316C14.3226 14.1316 14.5357 13.8691 14.5357 13.5123C14.5357 13.1182 14.3146 12.8814 13.9279 12.8814L11.6541 12.8814L11.6541 12.7953L13.0486 11.0453C14.0105 9.85683 14.3865 9.11288 14.3865 8.18202C14.3865 6.79824 13.4377 5.83827 12.0475 5.83827C10.7539 5.83827 9.76503 6.8746 9.76503 7.93359Z" fill="white" fill-opacity="0.85"/>
 </g>
</svg>
