<?xml version="1.0" encoding="UTF-8"?>
<!--Generator: Apple Native CoreSVG 341-->
<!DOCTYPE svg
PUBLIC "-//W3C//DTD SVG 1.1//EN"
       "http://www.w3.org/Graphics/SVG/1.1/DTD/svg11.dtd">
<svg version="1.1" xmlns="http://www.w3.org/2000/svg" xmlns:xlink="http://www.w3.org/1999/xlink" viewBox="0 0 18.5894 18.2316">
 <g>
  <rect height="18.2316" opacity="0" width="18.5894" x="0" y="0"/>
  <path d="M18.2281 3.17148L18.2281 15.0646C18.2281 17.1502 17.1404 18.2281 15.0246 18.2281L3.20351 18.2281C1.0957 18.2281 0 17.1502 0 15.0646L0 3.17148C0 1.08769 1.0957 0 3.20351 0L15.0246 0C17.1404 0 18.2281 1.08769 18.2281 3.17148ZM5.37968 5.37558L4.33066 6.17949C4.12402 6.33378 3.98105 6.53613 3.98105 6.81035C3.98105 7.158 4.2205 7.38085 4.52499 7.38085C4.69628 7.38085 4.79921 7.33027 4.91894 7.25312L5.76484 6.56269L5.76484 12.4809C5.76484 12.9129 6.1162 13.2678 6.55624 13.2678C6.98651 13.2678 7.33964 12.9129 7.33964 12.4809L7.33964 5.81991C7.33964 5.26015 6.99452 4.9416 6.42851 4.9416C5.98574 4.9416 5.63867 5.1707 5.37968 5.37558ZM8.81581 6.95703C8.81581 7.35898 9.05448 7.64198 9.46171 7.64198C9.8123 7.64198 10.042 7.4787 10.1547 7.11855C10.3262 6.50097 10.5527 6.10038 11.0982 6.10038C11.6623 6.10038 11.9654 6.60487 11.9654 7.27206C11.9654 8.06328 11.4148 8.86074 10.8752 9.56015L9.21503 11.6689C8.99257 11.9605 8.80956 12.218 8.80956 12.5322C8.80956 12.9039 9.05351 13.1551 9.54687 13.1551L12.9867 13.1551C13.3734 13.1551 13.5865 12.8926 13.5865 12.5357C13.5865 12.1416 13.3654 11.9049 12.9867 11.9049L10.7049 11.9049L10.7049 11.8187L12.0994 10.0687C13.0613 8.88027 13.4373 8.13632 13.4373 7.20546C13.4373 5.82167 12.4902 4.86171 11.0982 4.86171C9.81269 4.86171 8.81581 5.89804 8.81581 6.95703Z" fill="white" fill-opacity="0.85"/>
 </g>
</svg>
