<?xml version="1.0" encoding="UTF-8"?>
<!--Generator: Apple Native CoreSVG 341-->
<!DOCTYPE svg
PUBLIC "-//W3C//DTD SVG 1.1//EN"
       "http://www.w3.org/Graphics/SVG/1.1/DTD/svg11.dtd">
<svg version="1.1" xmlns="http://www.w3.org/2000/svg" xmlns:xlink="http://www.w3.org/1999/xlink" viewBox="0 0 18.5894 18.2316">
 <g>
  <rect height="18.2316" opacity="0" width="18.5894" x="0" y="0"/>
  <path d="M3.20351 18.2281L15.0246 18.2281C17.1404 18.2281 18.2281 17.1502 18.2281 15.0646L18.2281 3.17148C18.2281 1.08769 17.1404 0 15.0246 0L3.20351 0C1.0957 0 0 1.08769 0 3.17148L0 15.0646C0 17.1502 1.0957 18.2281 3.20351 18.2281ZM3.31444 16.3148C2.40643 16.3148 1.91327 15.8465 1.91327 14.8977L1.91327 3.34023C1.91327 2.39139 2.40643 1.91503 3.31444 1.91503L14.9137 1.91503C15.8137 1.91503 16.3148 2.39139 16.3148 3.34023L16.3148 14.8977C16.3148 15.8465 15.8137 16.3148 14.9137 16.3148Z" fill="white" fill-opacity="0.85"/>
  <path d="M6.61933 13.1092C7.03456 13.1092 7.37441 12.7693 7.37441 12.3541L7.37441 5.9369C7.37441 5.4037 7.04433 5.09667 6.50312 5.09667C6.07538 5.09667 5.7416 5.31601 5.49414 5.50761L4.48144 6.29023C4.28632 6.44101 4.15136 6.63359 4.15136 6.89452C4.15136 7.2289 4.37929 7.43847 4.6705 7.43847C4.83027 7.43847 4.9332 7.38964 5.0414 7.31249L5.86425 6.65311L5.86425 12.3541C5.86425 12.7693 6.2041 13.1092 6.61933 13.1092ZM9.48945 13L12.8008 13C13.1725 13 13.3758 12.7525 13.3758 12.4055C13.3758 12.0344 13.1644 11.8029 12.8008 11.8029L10.5996 11.8029L10.5996 11.7248L11.9463 10.0324C12.8754 8.88652 13.2346 8.16913 13.2346 7.27636C13.2346 5.94394 12.3256 5.0203 10.9832 5.0203C9.75527 5.0203 8.79648 6.02031 8.79648 7.03769C8.79648 7.41835 9.02011 7.68984 9.41406 7.68984C9.74511 7.68984 9.96777 7.53632 10.0725 7.18945C10.2422 6.59316 10.459 6.20409 10.9832 6.20409C11.5357 6.20409 11.8291 6.69706 11.8291 7.3412C11.8291 8.10136 11.3016 8.86425 10.7752 9.5371L9.17265 11.5785C8.96171 11.8551 8.79023 12.101 8.79023 12.4037C8.79023 12.7603 9.02089 13 9.48945 13Z" fill="white" fill-opacity="0.85"/>
 </g>
</svg>
