<?xml version="1.0" encoding="UTF-8"?>
<!--Generator: Apple Native CoreSVG 341-->
<!DOCTYPE svg
PUBLIC "-//W3C//DTD SVG 1.1//EN"
       "http://www.w3.org/Graphics/SVG/1.1/DTD/svg11.dtd">
<svg version="1.1" xmlns="http://www.w3.org/2000/svg" xmlns:xlink="http://www.w3.org/1999/xlink" viewBox="0 0 18.5894 18.2316">
 <g>
  <rect height="18.2316" opacity="0" width="18.5894" x="0" y="0"/>
  <path d="M3.20351 18.2281L15.0246 18.2281C17.1404 18.2281 18.2281 17.1502 18.2281 15.0646L18.2281 3.17148C18.2281 1.08769 17.1404 0 15.0246 0L3.20351 0C1.0957 0 0 1.08769 0 3.17148L0 15.0646C0 17.1502 1.0957 18.2281 3.20351 18.2281ZM3.31444 16.3148C2.40643 16.3148 1.91327 15.8465 1.91327 14.8977L1.91327 3.34023C1.91327 2.39139 2.40643 1.91503 3.31444 1.91503L14.9137 1.91503C15.8137 1.91503 16.3148 2.39139 16.3148 3.34023L16.3148 14.8977C16.3148 15.8465 15.8137 16.3148 14.9137 16.3148Z" fill="white" fill-opacity="0.85"/>
  <path d="M6.52363 13.1092C6.93085 13.1092 7.27069 12.7693 7.27069 12.3541L7.27069 5.9369C7.27069 5.4037 6.93886 5.09667 6.39941 5.09667C5.97968 5.09667 5.64589 5.31601 5.39043 5.50761L4.37773 6.29023C4.18261 6.44101 4.05566 6.63359 4.05566 6.89452C4.05566 7.2289 4.28359 7.43847 4.5748 7.43847C4.72656 7.43847 4.82948 7.38964 4.93769 7.31249L5.76054 6.65311L5.76054 12.3541C5.76054 12.7693 6.10039 13.1092 6.52363 13.1092ZM11.1387 13.1775C12.5422 13.1775 13.6103 12.3074 13.6103 10.8637C13.6103 9.70195 12.9246 9.09394 12.098 9.00253L12.098 8.97148C12.9287 8.75292 13.3795 7.99003 13.3795 7.15742C13.3795 5.82206 12.3912 5.05409 11.0961 5.05409C10.1025 5.05409 9.22636 5.60468 8.94843 6.47558C8.8916 6.6541 8.87031 6.82988 8.87031 6.99765C8.87031 7.32343 9.08339 7.60195 9.50566 7.60195C9.84296 7.60195 10.0699 7.47675 10.1631 7.12089C10.3035 6.59745 10.5879 6.2414 11.0996 6.2414C11.6967 6.2414 11.9758 6.72362 11.9758 7.3207C11.9758 7.98613 11.6176 8.49492 10.9203 8.49492L10.7176 8.49492C10.3592 8.49492 10.1506 8.70878 10.1506 9.0416C10.1506 9.37792 10.3654 9.57402 10.7176 9.57402L10.9301 9.57402C11.718 9.57402 12.1383 10.0084 12.1383 10.8105C12.1383 11.4369 11.8201 11.9902 11.1369 11.9902C10.4988 11.9902 10.2012 11.5539 10.0857 11.1328C9.97929 10.8027 9.76015 10.6279 9.42831 10.6279C9.0166 10.6279 8.75039 10.8764 8.75039 11.2783C8.75039 11.4576 8.77968 11.6316 8.82851 11.7879C9.1082 12.6838 10.0937 13.1775 11.1387 13.1775Z" fill="white" fill-opacity="0.85"/>
 </g>
</svg>
