<?xml version="1.0" encoding="UTF-8"?>
<!--Generator: Apple Native CoreSVG 341-->
<!DOCTYPE svg
PUBLIC "-//W3C//DTD SVG 1.1//EN"
       "http://www.w3.org/Graphics/SVG/1.1/DTD/svg11.dtd">
<svg version="1.1" xmlns="http://www.w3.org/2000/svg" xmlns:xlink="http://www.w3.org/1999/xlink" viewBox="0 0 20.1969 18.2476">
 <g>
  <rect height="18.2476" opacity="0" width="20.1969" x="0" y="0"/>
  <path d="M3.20351 18.2476L16.64 18.2476C18.7478 18.2476 19.8355 17.16 19.8355 15.0762L19.8355 3.19101C19.8355 1.10547 18.7478 0.0195312 16.64 0.0195312L3.20351 0.0195312C1.0957 0.0195312 0 1.09746 0 3.19101L0 15.0762C0 17.168 1.0957 18.2476 3.20351 18.2476ZM3.17655 16.3344C2.35663 16.3344 1.91327 15.9141 1.91327 15.0551L1.91327 6.03241C1.91327 5.18144 2.35663 4.75487 3.17655 4.75487L16.651 4.75487C17.4709 4.75487 17.9223 5.18144 17.9223 6.03241L17.9223 15.0551C17.9223 15.9141 17.4709 16.3344 16.651 16.3344Z" fill="white" fill-opacity="0.85"/>
  <path d="M7.14315 14.5645C7.55038 14.5645 7.89022 14.2246 7.89022 13.7996L7.89022 7.39042C7.89022 6.84921 7.55839 6.54218 7.01894 6.54218C6.5912 6.54218 6.25741 6.76152 6.00819 6.95488L4.9955 7.7455C4.80214 7.88652 4.66718 8.0871 4.66718 8.34804C4.66718 8.68241 4.89335 8.89198 5.19432 8.89198C5.34608 8.89198 5.44901 8.84316 5.55721 8.758L6.38007 8.10663L6.38007 13.7996C6.38007 14.2246 6.71991 14.5645 7.14315 14.5645ZM12.9152 14.5822C13.3012 14.5822 13.6197 14.3506 13.6197 13.8439L13.6197 12.9686L13.9123 12.9686C14.323 12.9686 14.4953 12.7051 14.4953 12.366C14.4953 12.0254 14.3187 11.7777 13.9141 11.7777L13.6197 11.7777L13.6197 7.65312C13.6197 6.94413 13.1574 6.5537 12.4742 6.5537C11.6975 6.5537 11.3717 7.0037 11.0895 7.66717L9.51718 11.1627C9.35643 11.5373 9.29257 11.8176 9.29257 12.1309C9.29257 12.6348 9.62987 12.9686 10.1506 12.9686L12.1947 12.9686L12.1947 13.8439C12.1947 14.3791 12.5711 14.5822 12.9152 14.5822ZM12.2293 11.8123L10.558 11.8123L10.558 11.7422L12.2 7.81933L12.2293 7.81933Z" fill="white" fill-opacity="0.85"/>
 </g>
</svg>
