<?xml version="1.0" encoding="UTF-8"?>
<!--Generator: Apple Native CoreSVG 341-->
<!DOCTYPE svg
PUBLIC "-//W3C//DTD SVG 1.1//EN"
       "http://www.w3.org/Graphics/SVG/1.1/DTD/svg11.dtd">
<svg version="1.1" xmlns="http://www.w3.org/2000/svg" xmlns:xlink="http://www.w3.org/1999/xlink" viewBox="0 0 20.5381 20.1848">
 <g>
  <rect height="20.1848" opacity="0" width="20.5381" x="0" y="0"/>
  <path d="M10.0875 20.175C15.6576 20.175 20.1767 15.6559 20.1767 10.0875C20.1767 4.51914 15.6576 0 10.0875 0C4.51914 0 0 4.51914 0 10.0875C0 15.6559 4.51914 20.175 10.0875 20.175ZM10.0875 18.1879C5.60839 18.1879 1.9871 14.5666 1.9871 10.0875C1.9871 5.60839 5.60839 1.9871 10.0875 1.9871C14.5666 1.9871 18.1897 5.60839 18.1897 10.0875C18.1897 14.5666 14.5666 18.1879 10.0875 18.1879Z" fill="white" fill-opacity="0.85"/>
  <path d="M7.29198 14.0857C7.70722 14.0857 8.04706 13.7459 8.04706 13.3307L8.04706 6.91347C8.04706 6.38027 7.71523 6.07323 7.17577 6.07323C6.74804 6.07323 6.41425 6.29257 6.15878 6.48417L5.14609 7.26679C4.95898 7.41757 4.82402 7.61015 4.82402 7.87109C4.82402 8.20546 5.05019 8.41503 5.34316 8.41503C5.50292 8.41503 5.60585 8.3662 5.71405 8.28905L6.53691 7.62968L6.53691 13.3307C6.53691 13.7459 6.87675 14.0857 7.29198 14.0857ZM13.0641 14.1053C13.458 14.1053 13.7766 13.8736 13.7766 13.3732L13.7766 12.4916L14.0691 12.4916C14.4799 12.4916 14.6521 12.2281 14.6521 11.8873C14.6521 11.5484 14.4773 11.3008 14.0709 11.3008L13.7766 11.3008L13.7766 7.18241C13.7766 6.47519 13.3062 6.07675 12.631 6.07675C11.8543 6.07675 11.5285 6.52675 11.2383 7.19022L9.67402 10.684C9.51327 11.0666 9.44941 11.3469 9.44941 11.6602C9.44941 12.1658 9.78671 12.4916 10.2994 12.4916L12.3516 12.4916L12.3516 13.3732C12.3516 13.9102 12.7297 14.1053 13.0641 14.1053ZM12.3879 11.3353L10.7068 11.3353L10.7068 11.2652L12.3488 7.34237L12.3879 7.34237Z" fill="white" fill-opacity="0.85"/>
 </g>
</svg>
