<?xml version="1.0" encoding="UTF-8"?>
<!--Generator: Apple Native CoreSVG 341-->
<!DOCTYPE svg
PUBLIC "-//W3C//DTD SVG 1.1//EN"
       "http://www.w3.org/Graphics/SVG/1.1/DTD/svg11.dtd">
<svg version="1.1" xmlns="http://www.w3.org/2000/svg" xmlns:xlink="http://www.w3.org/1999/xlink" viewBox="0 0 20.5381 20.1848">
 <g>
  <rect height="20.1848" opacity="0" width="20.5381" x="0" y="0"/>
  <path d="M20.1767 10.0875C20.1767 15.6478 15.6576 20.175 10.0875 20.175C4.52715 20.175 0 15.6478 0 10.0875C0 4.51914 4.52715 0 10.0875 0C15.6576 0 20.1767 4.51914 20.1767 10.0875ZM10.9723 6.04511C10.4228 6.04511 10.1859 6.39921 10.1424 6.94062L9.99667 9.62421C9.98867 9.76464 9.98691 9.9332 9.98691 10.0594C9.98691 10.4842 10.2068 10.8295 10.6834 10.8295C10.9709 10.8295 11.1404 10.7256 11.35 10.4451C11.5553 10.1377 11.7934 9.90859 12.1621 9.90859C12.8533 9.90859 13.1084 10.7621 13.1084 11.4691C13.1084 12.2457 12.8541 13.0883 12.1594 13.0883C11.6387 13.0883 11.3525 12.7125 11.181 12.2033C11.0586 11.8635 10.8182 11.7047 10.5254 11.7047C10.1332 11.7047 9.88652 11.9531 9.88652 12.3453C9.88652 12.5691 9.93984 12.7814 10.0207 12.9715C10.3467 13.79 11.2416 14.3385 12.1859 14.3385C13.7537 14.3385 14.6123 13.0236 14.6123 11.4283C14.6123 10.0785 13.9939 8.79316 12.6986 8.79316C12.0801 8.79316 11.5613 9.09824 11.332 9.63925L11.2734 9.63925L11.4351 7.30331L13.7123 7.30331C14.0857 7.30331 14.3041 7.04784 14.3041 6.67597C14.3041 6.31757 14.0707 6.04511 13.7123 6.04511ZM6.18086 6.34062L5.13359 7.15605C4.94296 7.30859 4.79824 7.51269 4.79824 7.78691C4.79824 8.13456 5.03769 8.35566 5.34218 8.35566C5.51347 8.35566 5.6164 8.30683 5.72812 8.21816L6.58027 7.53925L6.58027 13.4494C6.58027 13.8877 6.93515 14.2426 7.36542 14.2426C7.79745 14.2426 8.14882 13.8877 8.14882 13.4494L8.14882 6.79472C8.14882 6.23671 7.80546 5.9164 7.2457 5.9164C6.80468 5.9164 6.44961 6.14726 6.18086 6.34062Z" fill="white" fill-opacity="0.85"/>
 </g>
</svg>
