<?xml version="1.0" encoding="UTF-8"?>
<!--Generator: Apple Native CoreSVG 341-->
<!DOCTYPE svg
PUBLIC "-//W3C//DTD SVG 1.1//EN"
       "http://www.w3.org/Graphics/SVG/1.1/DTD/svg11.dtd">
<svg version="1.1" xmlns="http://www.w3.org/2000/svg" xmlns:xlink="http://www.w3.org/1999/xlink" viewBox="0 0 20.5381 20.1848">
 <g>
  <rect height="20.1848" opacity="0" width="20.5381" x="0" y="0"/>
  <path d="M10.0875 20.175C15.6576 20.175 20.1767 15.6559 20.1767 10.0875C20.1767 4.51914 15.6576 0 10.0875 0C4.51914 0 0 4.51914 0 10.0875C0 15.6559 4.51914 20.175 10.0875 20.175ZM10.0875 18.1879C5.60839 18.1879 1.9871 14.5666 1.9871 10.0875C1.9871 5.60839 5.60839 1.9871 10.0875 1.9871C14.5666 1.9871 18.1897 5.60839 18.1897 10.0875C18.1897 14.5666 14.5666 18.1879 10.0875 18.1879Z" fill="white" fill-opacity="0.85"/>
  <path d="M7.45136 14.0857C7.85859 14.0857 8.19843 13.7459 8.19843 13.3307L8.19843 6.91347C8.19843 6.38027 7.86659 6.07323 7.33515 6.07323C6.90742 6.07323 6.57363 6.29257 6.31816 6.48417L5.3037 7.26679C5.11835 7.41757 4.98339 7.61015 4.98339 7.87109C4.98339 8.20546 5.20956 8.41503 5.50253 8.41503C5.6623 8.41503 5.75722 8.3662 5.87343 8.28905L6.69628 7.62968L6.69628 13.3307C6.69628 13.7459 7.03613 14.0857 7.45136 14.0857ZM12.0787 14.1799C13.5889 14.1799 14.4111 12.9146 14.4111 11.3805C14.4111 10.0785 13.8141 8.84101 12.5684 8.84101C11.9728 8.84101 11.4789 9.13456 11.2478 9.6623L11.199 9.6623L11.351 7.40526L13.5492 7.40526C13.9076 7.40526 14.1127 7.15331 14.1127 6.80448C14.1127 6.46113 13.8926 6.20019 13.5492 6.20019L10.9129 6.20019C10.3865 6.20019 10.1566 6.54101 10.1193 7.05937L9.97714 9.64726C9.96913 9.77793 9.96738 9.94472 9.96738 10.0629C9.96738 10.4691 10.174 10.8029 10.6338 10.8029C10.9098 10.8029 11.0695 10.7008 11.2676 10.4336C11.4711 10.1359 11.6994 9.90859 12.0584 9.90859C12.7266 9.90859 12.9719 10.7373 12.9719 11.4213C12.9719 12.1686 12.7256 12.9828 12.0539 12.9828C11.5527 12.9828 11.2684 12.6186 11.1066 12.1307C10.9859 11.8023 10.7588 11.6471 10.4793 11.6471C10.1004 11.6471 9.86699 11.8822 9.86699 12.2611C9.86699 12.4734 9.92031 12.676 9.99941 12.8643C10.3139 13.6482 11.1742 14.1799 12.0787 14.1799Z" fill="white" fill-opacity="0.85"/>
 </g>
</svg>
