<?xml version="1.0" encoding="UTF-8"?>
<!--Generator: Apple Native CoreSVG 341-->
<!DOCTYPE svg
PUBLIC "-//W3C//DTD SVG 1.1//EN"
       "http://www.w3.org/Graphics/SVG/1.1/DTD/svg11.dtd">
<svg version="1.1" xmlns="http://www.w3.org/2000/svg" xmlns:xlink="http://www.w3.org/1999/xlink" viewBox="0 0 18.5894 18.2316">
 <g>
  <rect height="18.2316" opacity="0" width="18.5894" x="0" y="0"/>
  <path d="M18.2281 3.17148L18.2281 15.0646C18.2281 17.1502 17.1404 18.2281 15.0246 18.2281L3.20351 18.2281C1.0957 18.2281 0 17.1502 0 15.0646L0 3.17148C0 1.08769 1.0957 0 3.20351 0L15.0246 0C17.1404 0 18.2281 1.08769 18.2281 3.17148ZM10.023 5.06855C9.48163 5.06855 9.23847 5.42265 9.20117 5.96406L9.04921 8.64765C9.0412 8.78808 9.03945 8.95664 9.03945 9.08281C9.03945 9.50761 9.25761 9.85292 9.73417 9.85292C10.0314 9.85292 10.193 9.74902 10.4008 9.46855C10.6078 9.16113 10.8459 8.93202 11.2146 8.93202C11.9041 8.93202 12.1592 9.78554 12.1592 10.4926C12.1592 11.2691 11.9049 12.1117 11.2101 12.1117C10.6912 12.1117 10.4033 11.7359 10.2318 11.2268C10.1094 10.8869 9.87069 10.7281 9.57792 10.7281C9.18398 10.7281 8.93906 10.9766 8.93906 11.3687C8.93906 11.5926 8.99238 11.8049 9.07148 11.9949C9.40722 12.8135 10.2941 13.3619 11.2367 13.3619C12.8062 13.3619 13.6631 12.0471 13.6631 10.4518C13.6631 9.10195 13.0447 7.8166 11.7512 7.8166C11.1326 7.8166 10.6139 8.12167 10.3828 8.66269L10.3322 8.66269L10.4877 6.32675L12.7648 6.32675C13.1365 6.32675 13.3549 6.07128 13.3549 5.69941C13.3549 5.34101 13.1232 5.06855 12.7648 5.06855ZM5.23164 5.36406L4.18613 6.17949C3.9955 6.33203 3.85078 6.53613 3.85078 6.81035C3.85078 7.158 4.09023 7.37909 4.39472 7.37909C4.56425 7.37909 4.66894 7.33027 4.7789 7.24159L5.63281 6.56269L5.63281 12.4728C5.63281 12.9111 5.98593 13.266 6.4162 13.266C6.85624 13.266 7.20937 12.9111 7.20937 12.4728L7.20937 5.81816C7.20937 5.26015 6.86425 4.93984 6.29824 4.93984C5.85546 4.93984 5.50214 5.1707 5.23164 5.36406Z" fill="white" fill-opacity="0.85"/>
 </g>
</svg>
