<?xml version="1.0" encoding="UTF-8"?>
<!--Generator: Apple Native CoreSVG 341-->
<!DOCTYPE svg
PUBLIC "-//W3C//DTD SVG 1.1//EN"
       "http://www.w3.org/Graphics/SVG/1.1/DTD/svg11.dtd">
<svg version="1.1" xmlns="http://www.w3.org/2000/svg" xmlns:xlink="http://www.w3.org/1999/xlink" viewBox="0 0 18.5894 18.2316">
 <g>
  <rect height="18.2316" opacity="0" width="18.5894" x="0" y="0"/>
  <path d="M3.20351 18.2281L15.0246 18.2281C17.1404 18.2281 18.2281 17.1502 18.2281 15.0646L18.2281 3.17148C18.2281 1.08769 17.1404 0 15.0246 0L3.20351 0C1.0957 0 0 1.08769 0 3.17148L0 15.0646C0 17.1502 1.0957 18.2281 3.20351 18.2281ZM3.31444 16.3148C2.40643 16.3148 1.91327 15.8465 1.91327 14.8977L1.91327 3.34023C1.91327 2.39139 2.40643 1.91503 3.31444 1.91503L14.9137 1.91503C15.8137 1.91503 16.3148 2.39139 16.3148 3.34023L16.3148 14.8977C16.3148 15.8465 15.8137 16.3148 14.9137 16.3148Z" fill="white" fill-opacity="0.85"/>
  <path d="M6.49081 13.1092C6.90605 13.1092 7.24589 12.7693 7.24589 12.3541L7.24589 5.9369C7.24589 5.4037 6.91406 5.09667 6.37285 5.09667C5.94511 5.09667 5.61308 5.31601 5.35586 5.50761L4.34316 6.29023C4.15781 6.44101 4.02285 6.63359 4.02285 6.89452C4.02285 7.2289 4.24902 7.43847 4.54199 7.43847C4.70175 7.43847 4.80468 7.38964 4.91288 7.31249L5.73574 6.65311L5.73574 12.3541C5.73574 12.7693 6.07558 13.1092 6.49081 13.1092ZM11.1182 13.2033C12.6266 13.2033 13.4506 11.9381 13.4506 10.4039C13.4506 9.10195 12.8518 7.86445 11.6078 7.86445C11.0123 7.86445 10.5166 8.158 10.2873 8.68574L10.2465 8.68574L10.3904 6.4287L12.5869 6.4287C12.9453 6.4287 13.1521 6.17675 13.1521 5.82792C13.1521 5.48456 12.932 5.22363 12.5869 5.22363L9.95234 5.22363C9.43398 5.22363 9.19609 5.56445 9.16679 6.0828L9.0166 8.6707C9.00859 8.80136 9.00507 8.96816 9.00507 9.08632C9.00507 9.49257 9.21171 9.82636 9.67323 9.82636C9.95722 9.82636 10.109 9.72421 10.307 9.45703C10.5105 9.15937 10.7389 8.93202 11.0978 8.93202C11.766 8.93202 12.0113 9.76074 12.0113 10.4447C12.0113 11.192 11.765 12.0062 11.0934 12.0062C10.5922 12.0062 10.3078 11.642 10.1461 11.1541C10.0254 10.8258 9.79823 10.6705 9.51698 10.6705C9.13984 10.6705 8.90644 10.9057 8.90644 11.2846C8.90644 11.4969 8.95976 11.6994 9.03886 11.8877C9.36132 12.6717 10.2137 13.2033 11.1182 13.2033Z" fill="white" fill-opacity="0.85"/>
 </g>
</svg>
