<?xml version="1.0" encoding="UTF-8"?>
<!--Generator: Apple Native CoreSVG 341-->
<!DOCTYPE svg
PUBLIC "-//W3C//DTD SVG 1.1//EN"
       "http://www.w3.org/Graphics/SVG/1.1/DTD/svg11.dtd">
<svg version="1.1" xmlns="http://www.w3.org/2000/svg" xmlns:xlink="http://www.w3.org/1999/xlink" viewBox="0 0 20.5381 20.1848">
 <g>
  <rect height="20.1848" opacity="0" width="20.5381" x="0" y="0"/>
  <path d="M10.0875 20.175C15.6576 20.175 20.1767 15.6559 20.1767 10.0875C20.1767 4.51914 15.6576 0 10.0875 0C4.51914 0 0 4.51914 0 10.0875C0 15.6559 4.51914 20.175 10.0875 20.175ZM10.0875 18.1879C5.60839 18.1879 1.9871 14.5666 1.9871 10.0875C1.9871 5.60839 5.60839 1.9871 10.0875 1.9871C14.5666 1.9871 18.1897 5.60839 18.1897 10.0875C18.1897 14.5666 14.5666 18.1879 10.0875 18.1879Z" fill="white" fill-opacity="0.85"/>
  <path d="M7.91132 14.0857C8.31855 14.0857 8.65839 13.7459 8.65839 13.3307L8.65839 6.91347C8.65839 6.38027 8.32656 6.07323 7.7871 6.07323C7.36738 6.07323 7.03359 6.29257 6.77812 6.48417L5.76542 7.26679C5.57031 7.41757 5.44335 7.61015 5.44335 7.87109C5.44335 8.20546 5.66952 8.41503 5.96249 8.41503C6.11425 8.41503 6.21718 8.3662 6.32538 8.28905L7.14824 7.62968L7.14824 13.3307C7.14824 13.7459 7.48808 14.0857 7.91132 14.0857ZM11.457 14.1115C11.8332 14.1115 12.008 13.9562 12.1367 13.5977L14.2746 7.8287C14.3838 7.51894 14.4602 7.27577 14.4602 6.97675C14.4602 6.50995 14.098 6.20019 13.6508 6.20019L10.5861 6.20019C10.2232 6.20019 9.99335 6.46015 9.99335 6.80273C9.99335 7.15058 10.2268 7.40526 10.5861 7.40526L12.95 7.40526L12.95 7.49667L10.8945 12.8824C10.8084 13.0973 10.7756 13.2365 10.7756 13.4744C10.7756 13.7717 10.9602 14.1115 11.457 14.1115Z" fill="white" fill-opacity="0.85"/>
 </g>
</svg>
