<?xml version="1.0" encoding="UTF-8"?>
<!--Generator: Apple Native CoreSVG 341-->
<!DOCTYPE svg
PUBLIC "-//W3C//DTD SVG 1.1//EN"
       "http://www.w3.org/Graphics/SVG/1.1/DTD/svg11.dtd">
<svg version="1.1" xmlns="http://www.w3.org/2000/svg" xmlns:xlink="http://www.w3.org/1999/xlink" viewBox="0 0 20.5381 20.1848">
 <g>
  <rect height="20.1848" opacity="0" width="20.5381" x="0" y="0"/>
  <path d="M10.0875 20.175C15.6576 20.175 20.1767 15.6559 20.1767 10.0875C20.1767 4.51914 15.6576 0 10.0875 0C4.51914 0 0 4.51914 0 10.0875C0 15.6559 4.51914 20.175 10.0875 20.175ZM10.0875 18.1879C5.60839 18.1879 1.9871 14.5666 1.9871 10.0875C1.9871 5.60839 5.60839 1.9871 10.0875 1.9871C14.5666 1.9871 18.1897 5.60839 18.1897 10.0875C18.1897 14.5666 14.5666 18.1879 10.0875 18.1879Z" fill="white" fill-opacity="0.85"/>
  <path d="M7.47167 14.0857C7.8789 14.0857 8.21874 13.7459 8.21874 13.3307L8.21874 6.91347C8.21874 6.38027 7.88691 6.07323 7.34745 6.07323C6.92773 6.07323 6.59394 6.29257 6.33847 6.48417L5.32577 7.26679C5.13066 7.41757 5.0037 7.61015 5.0037 7.87109C5.0037 8.20546 5.23163 8.41503 5.52284 8.41503C5.68261 8.41503 5.77753 8.3662 5.88573 8.28905L6.70859 7.62968L6.70859 13.3307C6.70859 13.7459 7.04843 14.0857 7.47167 14.0857ZM12.1977 14.1559C13.7135 14.1559 14.7227 13.2312 14.7227 11.8793C14.7227 10.8447 14.0787 10.0732 13.2869 9.89746L13.2869 9.8664C13.95 9.65957 14.5131 9.0248 14.5131 8.12519C14.5131 6.87421 13.5721 6.03066 12.1977 6.03066C10.9947 6.03066 9.90624 6.75878 9.90624 8.11718C9.90624 9.09218 10.5127 9.67285 11.1422 9.8664L11.1422 9.89746C10.3129 10.0777 9.68867 10.8492 9.68867 11.8775C9.68867 13.3035 10.7719 14.1559 12.1977 14.1559ZM12.2057 9.40312C11.6422 9.40312 11.348 8.8416 11.348 8.27245C11.348 7.66327 11.66 7.11952 12.2057 7.11952C12.7789 7.11952 13.0588 7.66327 13.0588 8.27245C13.0588 8.89941 12.7629 9.40312 12.2057 9.40312ZM12.2057 13.0572C11.5631 13.0572 11.2432 12.4664 11.2432 11.7648C11.2432 11.0828 11.5631 10.5 12.2057 10.5C12.8305 10.5 13.1699 11.0508 13.1699 11.7648C13.1699 12.4664 12.8465 13.0572 12.2057 13.0572Z" fill="white" fill-opacity="0.85"/>
 </g>
</svg>
