<?xml version="1.0" encoding="UTF-8"?>
<!--Generator: Apple Native CoreSVG 341-->
<!DOCTYPE svg
PUBLIC "-//W3C//DTD SVG 1.1//EN"
       "http://www.w3.org/Graphics/SVG/1.1/DTD/svg11.dtd">
<svg version="1.1" xmlns="http://www.w3.org/2000/svg" xmlns:xlink="http://www.w3.org/1999/xlink" viewBox="0 0 18.5894 18.2316">
 <g>
  <rect height="18.2316" opacity="0" width="18.5894" x="0" y="0"/>
  <path d="M18.2281 3.17148L18.2281 15.0646C18.2281 17.1502 17.1404 18.2281 15.0246 18.2281L3.20351 18.2281C1.0957 18.2281 0 17.1502 0 15.0646L0 3.17148C0 1.08769 1.0957 0 3.20351 0L15.0246 0C17.1404 0 18.2281 1.08769 18.2281 3.17148ZM8.96679 7.06621C8.96679 8.07929 9.60429 8.683 10.2506 8.88007L10.2506 8.91113C9.39648 9.10117 8.73769 9.89921 8.73769 10.9736C8.73769 12.4555 9.86874 13.3379 11.3619 13.3379C12.9291 13.3379 13.9764 12.3787 13.9764 10.9754C13.9764 9.89472 13.3111 9.09667 12.4893 8.91113L12.4893 8.88007C13.1807 8.66796 13.7668 8.00839 13.7668 7.07597C13.7668 5.76562 12.7797 4.8955 11.3619 4.8955C10.1014 4.8955 8.96679 5.65195 8.96679 7.06621ZM5.25019 5.36757L4.20468 6.17949C4.00605 6.33378 3.86933 6.53613 3.86933 6.81035C3.86933 7.158 4.10077 7.37909 4.40527 7.37909C4.5748 7.37909 4.67948 7.33027 4.79745 7.24159L5.64335 6.56269L5.64335 12.4728C5.64335 12.9129 5.99648 13.266 6.43476 13.266C6.85878 13.266 7.22968 12.9129 7.22968 12.4728L7.22968 5.81991C7.22968 5.26015 6.86679 4.9416 6.31679 4.9416C5.86601 4.9416 5.5207 5.1707 5.25019 5.36757ZM12.3572 10.8494C12.3572 11.5758 12.024 12.1879 11.3619 12.1879C10.6998 12.1879 10.3683 11.5758 10.3683 10.8494C10.3683 10.1426 10.7078 9.53847 11.3619 9.53847C12.008 9.53847 12.3572 10.1105 12.3572 10.8494ZM12.2461 7.22499C12.2461 7.87499 11.9404 8.39824 11.3619 8.39824C10.7789 8.39824 10.4732 7.81718 10.4732 7.22499C10.4732 6.59277 10.7949 6.03573 11.3619 6.03573C11.9564 6.03573 12.2461 6.59277 12.2461 7.22499Z" fill="white" fill-opacity="0.85"/>
 </g>
</svg>
