<?xml version="1.0" encoding="UTF-8"?>
<!--Generator: Apple Native CoreSVG 341-->
<!DOCTYPE svg
PUBLIC "-//W3C//DTD SVG 1.1//EN"
       "http://www.w3.org/Graphics/SVG/1.1/DTD/svg11.dtd">
<svg version="1.1" xmlns="http://www.w3.org/2000/svg" xmlns:xlink="http://www.w3.org/1999/xlink" viewBox="0 0 18.5894 18.2316">
 <g>
  <rect height="18.2316" opacity="0" width="18.5894" x="0" y="0"/>
  <path d="M3.20351 18.2281L15.0246 18.2281C17.1404 18.2281 18.2281 17.1502 18.2281 15.0646L18.2281 3.17148C18.2281 1.08769 17.1404 0 15.0246 0L3.20351 0C1.0957 0 0 1.08769 0 3.17148L0 15.0646C0 17.1502 1.0957 18.2281 3.20351 18.2281ZM3.31444 16.3148C2.40643 16.3148 1.91327 15.8465 1.91327 14.8977L1.91327 3.34023C1.91327 2.39139 2.40643 1.91503 3.31444 1.91503L14.9137 1.91503C15.8137 1.91503 16.3148 2.39139 16.3148 3.34023L16.3148 14.8977C16.3148 15.8465 15.8137 16.3148 14.9137 16.3148Z" fill="white" fill-opacity="0.85"/>
  <path d="M6.51113 13.1092C6.91835 13.1092 7.2662 12.7693 7.2662 12.3541L7.2662 5.9369C7.2662 5.4037 6.92636 5.09667 6.39492 5.09667C5.96718 5.09667 5.63339 5.31601 5.37793 5.50761L4.36523 6.29023C4.17812 6.44101 4.04316 6.63359 4.04316 6.89452C4.04316 7.2289 4.26933 7.43847 4.5623 7.43847C4.72206 7.43847 4.82499 7.38964 4.9332 7.31249L5.75605 6.65311L5.75605 12.3541C5.75605 12.7693 6.09589 13.1092 6.51113 13.1092ZM11.2451 13.1793C12.7529 13.1793 13.7621 12.2547 13.7621 10.9027C13.7621 9.86816 13.1182 9.09667 12.3264 8.92089L12.3264 8.88984C12.9894 8.683 13.5525 8.04824 13.5525 7.14863C13.5525 5.89765 12.6115 5.05409 11.2451 5.05409C10.0342 5.05409 8.9457 5.78222 8.9457 7.14062C8.9457 8.11562 9.56015 8.69628 10.1816 8.88984L10.1816 8.92089C9.35234 9.10117 8.72812 9.87265 8.72812 10.901C8.72812 12.3269 9.81132 13.1793 11.2451 13.1793ZM11.2451 8.42656C10.6816 8.42656 10.3875 7.86503 10.3875 7.29589C10.3875 6.68671 10.6994 6.14296 11.2451 6.14296C11.8184 6.14296 12.0982 6.68671 12.0982 7.29589C12.0982 7.92285 11.8023 8.42656 11.2451 8.42656ZM11.2451 12.0807C10.6025 12.0807 10.2808 11.4898 10.2808 10.7883C10.2808 10.1062 10.6105 9.52343 11.2451 9.52343C11.8699 9.52343 12.2094 10.0742 12.2094 10.7883C12.2094 11.4898 11.8859 12.0807 11.2451 12.0807Z" fill="white" fill-opacity="0.85"/>
 </g>
</svg>
