<?xml version="1.0" encoding="UTF-8"?>
<!--Generator: Apple Native CoreSVG 341-->
<!DOCTYPE svg
PUBLIC "-//W3C//DTD SVG 1.1//EN"
       "http://www.w3.org/Graphics/SVG/1.1/DTD/svg11.dtd">
<svg version="1.1" xmlns="http://www.w3.org/2000/svg" xmlns:xlink="http://www.w3.org/1999/xlink" viewBox="0 0 18.5894 18.2316">
 <g>
  <rect height="18.2316" opacity="0" width="18.5894" x="0" y="0"/>
  <path d="M3.20351 18.2281L15.0246 18.2281C17.1404 18.2281 18.2281 17.1502 18.2281 15.0646L18.2281 3.17148C18.2281 1.08769 17.1404 0 15.0246 0L3.20351 0C1.0957 0 0 1.08769 0 3.17148L0 15.0646C0 17.1502 1.0957 18.2281 3.20351 18.2281ZM3.31444 16.3148C2.40643 16.3148 1.91327 15.8465 1.91327 14.8977L1.91327 3.34023C1.91327 2.39139 2.40643 1.91503 3.31444 1.91503L14.9137 1.91503C15.8137 1.91503 16.3148 2.39139 16.3148 3.34023L16.3148 14.8977C16.3148 15.8465 15.8137 16.3148 14.9137 16.3148Z" fill="white" fill-opacity="0.85"/>
  <path d="M6.52968 13.1092C6.93691 13.1092 7.27675 12.7693 7.27675 12.3541L7.27675 5.9369C7.27675 5.4037 6.94491 5.09667 6.40546 5.09667C5.97773 5.09667 5.64394 5.31601 5.39648 5.50761L4.38202 6.29023C4.18867 6.44101 4.0537 6.63359 4.0537 6.89452C4.0537 7.2289 4.27988 7.43847 4.57284 7.43847C4.73261 7.43847 4.83554 7.38964 4.94374 7.31249L5.7666 6.65311L5.7666 12.3541C5.7666 12.7693 6.10644 13.1092 6.52968 13.1092ZM10.5937 10.3053C11.3725 10.3053 11.9445 9.77617 12.1488 8.97499L12.1826 8.97499C12.1826 9.03867 12.1826 9.10409 12.1826 9.15976C12.1826 10.2789 12.0381 12 11.0674 12C10.6701 12 10.4088 11.7324 10.2383 11.3353C10.0848 11.0061 9.88241 10.8756 9.57538 10.8756C9.14687 10.8756 8.96757 11.1666 8.96757 11.5012C8.96757 11.6166 8.98534 11.7426 9.0164 11.8598C9.23652 12.7059 10.0721 13.1971 11.031 13.1971C13.0172 13.1971 13.5996 11.0312 13.5996 9.04335C13.5996 7.23456 13.018 5.03632 11.0426 5.03632C9.56347 5.03632 8.72167 6.27753 8.72167 7.78437C8.72167 9.0746 9.3248 10.3053 10.5937 10.3053ZM11.0656 9.18886C10.423 9.18886 10.1529 8.43613 10.1529 7.72402C10.1529 7.00566 10.4568 6.2289 11.0656 6.2289C11.7305 6.2289 12.0006 7.00742 12.0006 7.73105C12.0006 8.46191 11.7064 9.18886 11.0656 9.18886Z" fill="white" fill-opacity="0.85"/>
 </g>
</svg>
