<?xml version="1.0" encoding="UTF-8"?>
<!--Generator: Apple Native CoreSVG 341-->
<!DOCTYPE svg
PUBLIC "-//W3C//DTD SVG 1.1//EN"
       "http://www.w3.org/Graphics/SVG/1.1/DTD/svg11.dtd">
<svg version="1.1" xmlns="http://www.w3.org/2000/svg" xmlns:xlink="http://www.w3.org/1999/xlink" viewBox="0 0 20.5381 20.1848">
 <g>
  <rect height="20.1848" opacity="0" width="20.5381" x="0" y="0"/>
  <path d="M20.1767 10.0875C20.1767 15.6478 15.6576 20.175 10.0875 20.175C4.52715 20.175 0 15.6478 0 10.0875C0 4.51914 4.52715 0 10.0875 0C15.6576 0 20.1767 4.51914 20.1767 10.0875ZM6.97617 7.28476C6.92207 7.4498 6.90703 7.58808 6.90703 7.73886C6.90703 8.20858 7.23047 8.49237 7.71874 8.49237C8.13183 8.49237 8.34198 8.24843 8.53534 7.95819C8.7955 7.40721 9.2746 6.8242 10.143 6.8242C10.9945 6.8242 11.552 7.31581 11.552 8.05448C11.552 8.72363 11.007 9.29492 10.3832 9.91992L7.2959 13.1158C7.04727 13.3674 6.94785 13.6164 6.94785 13.8725C6.94785 14.3459 7.27754 14.6508 7.79531 14.6508L12.943 14.6508C13.4435 14.6508 13.783 14.3494 13.783 13.8619C13.783 13.3647 13.4488 13.0766 12.943 13.0766L9.63592 13.0766L9.63592 13.0029L11.7762 10.7529C12.7351 9.7916 13.3443 8.9873 13.3443 7.89589C13.3443 6.34081 12.0594 5.29082 10.1221 5.29082C8.62597 5.29082 7.3293 6.14414 6.97617 7.28476Z" fill="white" fill-opacity="0.85"/>
 </g>
</svg>
