<?xml version="1.0" encoding="UTF-8"?>
<!--Generator: Apple Native CoreSVG 341-->
<!DOCTYPE svg
PUBLIC "-//W3C//DTD SVG 1.1//EN"
       "http://www.w3.org/Graphics/SVG/1.1/DTD/svg11.dtd">
<svg version="1.1" xmlns="http://www.w3.org/2000/svg" xmlns:xlink="http://www.w3.org/1999/xlink" viewBox="0 0 20.5381 20.1848">
 <g>
  <rect height="20.1848" opacity="0" width="20.5381" x="0" y="0"/>
  <path d="M10.0875 20.175C15.6576 20.175 20.1767 15.6559 20.1767 10.0875C20.1767 4.51914 15.6576 0 10.0875 0C4.51914 0 0 4.51914 0 10.0875C0 15.6559 4.51914 20.175 10.0875 20.175ZM10.0875 18.1879C5.60839 18.1879 1.9871 14.5666 1.9871 10.0875C1.9871 5.60839 5.60839 1.9871 10.0875 1.9871C14.5666 1.9871 18.1897 5.60839 18.1897 10.0875C18.1897 14.5666 14.5666 18.1879 10.0875 18.1879Z" fill="white" fill-opacity="0.85"/>
  <path d="M7.87324 14.4727L12.8277 14.4727C13.3 14.4727 13.6226 14.1863 13.6226 13.7254C13.6226 13.2484 13.3053 12.9736 12.8277 12.9736L9.62186 12.9736L9.62186 12.9L11.7018 10.7264C12.6209 9.79335 13.207 9.02538 13.207 7.97831C13.207 6.4746 11.9734 5.47245 10.1141 5.47245C8.67285 5.47245 7.42929 6.29296 7.08945 7.39374C7.04336 7.54902 7.03008 7.68202 7.03008 7.82304C7.03008 8.27421 7.33672 8.54296 7.79667 8.54296C8.19296 8.54296 8.39159 8.31229 8.57968 8.03358C8.83007 7.49589 9.2914 6.93241 10.1367 6.93241C10.959 6.93241 11.5004 7.40624 11.5004 8.12362C11.5004 8.77324 10.9715 9.32324 10.3742 9.92343L7.40039 13.0129C7.16055 13.2512 7.06738 13.4852 7.06738 13.7359C7.06738 14.1828 7.38379 14.4727 7.87324 14.4727Z" fill="white" fill-opacity="0.85"/>
 </g>
</svg>
