<?xml version="1.0" encoding="UTF-8"?>
<!--Generator: Apple Native CoreSVG 341-->
<!DOCTYPE svg
PUBLIC "-//W3C//DTD SVG 1.1//EN"
       "http://www.w3.org/Graphics/SVG/1.1/DTD/svg11.dtd">
<svg version="1.1" xmlns="http://www.w3.org/2000/svg" xmlns:xlink="http://www.w3.org/1999/xlink" viewBox="0 0 18.5894 15.2672">
 <g>
  <rect height="15.2672" opacity="0" width="18.5894" x="0" y="0"/>
  <path d="M0 14.3074C0 14.832 0.428903 15.2672 0.953509 15.2672C1.48436 15.2672 1.91327 14.832 1.91327 14.3074L1.91327 1.01171C1.91327 0.487105 1.48436 0.0582016 0.953509 0.0582016C0.428903 0.0582016 0 0.487105 0 1.01171ZM16.3148 14.3074C16.3148 14.832 16.7518 15.2672 17.2746 15.2672C17.7992 15.2672 18.2281 14.832 18.2281 14.3074L18.2281 1.01171C18.2281 0.487105 17.7992 0.0582016 17.2746 0.0582016C16.7518 0.0582016 16.3148 0.487105 16.3148 1.01171Z" fill="white" fill-opacity="0.85"/>
  <path d="M7.1912 12.0906L11.2223 12.0906C11.6463 12.0906 11.901 11.8271 11.901 11.4119C11.901 11.0012 11.6428 10.7492 11.2223 10.7492L8.50956 10.7492L8.50956 10.6684L10.0826 8.93964C10.4707 8.51151 10.7814 8.13671 11.0273 7.81444C11.4535 7.22929 11.7029 6.66288 11.7029 5.93144C11.7029 4.37714 10.5322 3.47851 9.02402 3.47851C7.78808 3.47851 6.72754 4.27167 6.47011 5.24452C6.44082 5.38925 6.41328 5.52773 6.41328 5.6662C6.41328 6.09999 6.68652 6.37675 7.12031 6.37675C7.49023 6.37675 7.72441 6.18339 7.86366 5.83827C8.04394 5.20116 8.41093 4.79061 9.02226 4.79061C9.70547 4.79061 10.084 5.3201 10.084 5.9953C10.084 6.51659 9.90195 6.90292 9.60625 7.32831C9.42422 7.58671 9.16406 7.90995 8.83379 8.29003L6.85234 10.4982C6.60839 10.7537 6.39726 11.0154 6.39726 11.3951C6.39726 11.7428 6.59589 12.0906 7.1912 12.0906Z" fill="white" fill-opacity="0.85"/>
 </g>
</svg>
