<?xml version="1.0" encoding="UTF-8"?>
<!--Generator: Apple Native CoreSVG 341-->
<!DOCTYPE svg
PUBLIC "-//W3C//DTD SVG 1.1//EN"
       "http://www.w3.org/Graphics/SVG/1.1/DTD/svg11.dtd">
<svg version="1.1" xmlns="http://www.w3.org/2000/svg" xmlns:xlink="http://www.w3.org/1999/xlink" viewBox="0 0 20.1969 18.2476">
 <g>
  <rect height="18.2476" opacity="0" width="20.1969" x="0" y="0"/>
  <path d="M3.20351 18.2476L16.64 18.2476C18.7478 18.2476 19.8355 17.16 19.8355 15.0762L19.8355 3.19101C19.8355 1.10547 18.7478 0.0195312 16.64 0.0195312L3.20351 0.0195312C1.0957 0.0195312 0 1.09746 0 3.19101L0 15.0762C0 17.168 1.0957 18.2476 3.20351 18.2476ZM3.17655 16.3344C2.35663 16.3344 1.91327 15.9141 1.91327 15.0551L1.91327 6.03241C1.91327 5.18144 2.35663 4.75487 3.17655 4.75487L16.651 4.75487C17.4709 4.75487 17.9223 5.18144 17.9223 6.03241L17.9223 15.0551C17.9223 15.9141 17.4709 16.3344 16.651 16.3344Z" fill="white" fill-opacity="0.85"/>
  <path d="M5.42089 14.4535L8.73046 14.4535C9.11191 14.4535 9.31523 14.2061 9.31523 13.851C9.31523 13.4879 9.1039 13.2564 8.73046 13.2564L6.53729 13.2564L6.53729 13.1783L7.88398 11.4859C8.81484 10.34 9.17401 9.62265 9.17401 8.72988C9.17401 7.38945 8.26327 6.47382 6.92265 6.47382C5.68671 6.47382 4.73417 7.47382 4.73417 8.49296C4.73417 8.86562 4.95956 9.14335 5.35175 9.14335C5.68456 9.14335 5.89921 8.98984 6.0119 8.64296C6.17362 8.04667 6.39667 7.6496 6.92265 7.6496C7.47343 7.6496 7.76679 8.15058 7.76679 8.78671C7.76679 9.55488 7.23925 10.3098 6.71288 10.9826L5.1121 13.032C4.89941 13.3086 4.72792 13.5465 4.72792 13.8572C4.72792 14.2059 4.95858 14.4535 5.42089 14.4535ZM12.8014 14.6488C14.7359 14.6488 15.3201 12.5027 15.3201 10.5644C15.3201 8.61816 14.7359 6.47206 12.8014 6.47206C10.8685 6.47206 10.2826 8.61816 10.2826 10.5644C10.2826 12.5027 10.8685 14.6488 12.8014 14.6488ZM12.8014 13.4385C12.0709 13.4385 11.7945 12.2205 11.7945 10.5644C11.7945 8.90038 12.0709 7.68241 12.8014 7.68241C13.5318 7.68241 13.81 8.90038 13.81 10.5644C13.81 12.2205 13.5318 13.4385 12.8014 13.4385Z" fill="white" fill-opacity="0.85"/>
 </g>
</svg>
