<?xml version="1.0" encoding="UTF-8"?>
<!--Generator: Apple Native CoreSVG 341-->
<!DOCTYPE svg
PUBLIC "-//W3C//DTD SVG 1.1//EN"
       "http://www.w3.org/Graphics/SVG/1.1/DTD/svg11.dtd">
<svg version="1.1" xmlns="http://www.w3.org/2000/svg" xmlns:xlink="http://www.w3.org/1999/xlink" viewBox="0 0 18.5894 18.2316">
 <g>
  <rect height="18.2316" opacity="0" width="18.5894" x="0" y="0"/>
  <path d="M18.2281 3.17148L18.2281 15.0646C18.2281 17.1502 17.1404 18.2281 15.0246 18.2281L3.20351 18.2281C1.0957 18.2281 0 17.1502 0 15.0646L0 3.17148C0 1.08769 1.0957 0 3.20351 0L15.0246 0C17.1404 0 18.2281 1.08769 18.2281 3.17148ZM9.50976 9.11093C9.50976 11.1316 10.1107 13.3619 12.1277 13.3619C14.143 13.3619 14.7439 11.1316 14.7439 9.11093C14.7439 7.09023 14.143 4.85995 12.1277 4.85995C10.1107 4.85995 9.50976 7.09023 9.50976 9.11093ZM3.73535 6.95351C3.73535 7.35722 3.97402 7.63398 4.38124 7.63398C4.73183 7.63398 4.95175 7.4787 5.07421 7.11679C5.23769 6.49921 5.47226 6.10038 6.00976 6.10038C6.58183 6.10038 6.87695 6.60487 6.87695 7.27206C6.87695 8.06328 6.33613 8.86074 5.79472 9.55214L4.13456 11.6689C3.9041 11.9508 3.7291 12.21 3.7291 12.5322C3.7291 12.9039 3.97304 13.1551 4.45839 13.1551L7.89824 13.1551C8.29296 13.1551 8.50605 12.8926 8.50605 12.5357C8.50605 12.1398 8.28495 11.8969 7.89824 11.8969L5.6244 11.8969L5.6244 11.8187L7.01894 10.0687C7.98085 8.88027 8.35859 8.13632 8.35859 7.2037C8.35859 5.82167 7.40976 4.86171 6.01777 4.86171C4.73398 4.86171 3.73535 5.89804 3.73535 6.95351ZM13.1594 9.11093C13.1594 10.8379 12.8795 12.0887 12.1277 12.0887C11.3742 12.0887 11.0881 10.8379 11.0881 9.11093C11.0881 7.37597 11.3742 6.13319 12.1277 6.13319C12.8795 6.13319 13.1594 7.37597 13.1594 9.11093Z" fill="white" fill-opacity="0.85"/>
 </g>
</svg>
