<?xml version="1.0" encoding="UTF-8"?>
<!--Generator: Apple Native CoreSVG 341-->
<!DOCTYPE svg
PUBLIC "-//W3C//DTD SVG 1.1//EN"
       "http://www.w3.org/Graphics/SVG/1.1/DTD/svg11.dtd">
<svg version="1.1" xmlns="http://www.w3.org/2000/svg" xmlns:xlink="http://www.w3.org/1999/xlink" viewBox="0 0 18.5894 18.2316">
 <g>
  <rect height="18.2316" opacity="0" width="18.5894" x="0" y="0"/>
  <path d="M3.20351 18.2281L15.0246 18.2281C17.1404 18.2281 18.2281 17.1502 18.2281 15.0646L18.2281 3.17148C18.2281 1.08769 17.1404 0 15.0246 0L3.20351 0C1.0957 0 0 1.08769 0 3.17148L0 15.0646C0 17.1502 1.0957 18.2281 3.20351 18.2281ZM3.31444 16.3148C2.40643 16.3148 1.91327 15.8465 1.91327 14.8977L1.91327 3.34023C1.91327 2.39139 2.40643 1.91503 3.31444 1.91503L14.9137 1.91503C15.8137 1.91503 16.3148 2.39139 16.3148 3.34023L16.3148 14.8977C16.3148 15.8465 15.8137 16.3148 14.9137 16.3148Z" fill="white" fill-opacity="0.85"/>
  <path d="M4.61718 13L7.92675 13C8.3082 13 8.51152 12.7525 8.51152 12.4055C8.51152 12.0344 8.30019 11.8029 7.92675 11.8029L5.73358 11.8029L5.73358 11.7248L7.08027 10.0324C8.01113 8.88652 8.37031 8.16913 8.37031 7.27636C8.37031 5.94394 7.45956 5.0203 6.11894 5.0203C4.883 5.0203 3.93046 6.02031 3.93046 7.03769C3.93046 7.41835 4.15585 7.68984 4.54804 7.68984C4.88085 7.68984 5.0955 7.53632 5.20819 7.18945C5.36991 6.59316 5.59296 6.20409 6.11093 6.20409C6.66972 6.20409 6.95508 6.69706 6.95508 7.3412C6.95508 8.10136 6.43554 8.86425 5.90918 9.5371L4.30839 11.5785C4.08769 11.8551 3.92421 12.101 3.92421 12.4037C3.92421 12.7603 4.15488 13 4.61718 13ZM11.9977 13.2033C13.9322 13.2033 14.5084 11.0492 14.5084 9.11093C14.5084 7.17265 13.9322 5.01679 11.9977 5.01679C10.0568 5.01679 9.4789 7.17265 9.4789 9.11093C9.4789 11.0492 10.0568 13.2033 11.9977 13.2033ZM11.9977 11.985C11.2672 11.985 10.9908 10.767 10.9908 9.11093C10.9908 7.44511 11.2672 6.2289 11.9977 6.2289C12.7281 6.2289 12.9982 7.44511 12.9982 9.11093C12.9982 10.767 12.7281 11.985 11.9977 11.985Z" fill="white" fill-opacity="0.85"/>
 </g>
</svg>
