<?xml version="1.0" encoding="UTF-8"?>
<!--Generator: Apple Native CoreSVG 341-->
<!DOCTYPE svg
PUBLIC "-//W3C//DTD SVG 1.1//EN"
       "http://www.w3.org/Graphics/SVG/1.1/DTD/svg11.dtd">
<svg version="1.1" xmlns="http://www.w3.org/2000/svg" xmlns:xlink="http://www.w3.org/1999/xlink" viewBox="0 0 20.1969 18.2476">
 <g>
  <rect height="18.2476" opacity="0" width="20.1969" x="0" y="0"/>
  <path d="M3.20351 18.2476L16.64 18.2476C18.7478 18.2476 19.8355 17.16 19.8355 15.0762L19.8355 3.19101C19.8355 1.10547 18.7478 0.0195312 16.64 0.0195312L3.20351 0.0195312C1.0957 0.0195312 0 1.09746 0 3.19101L0 15.0762C0 17.168 1.0957 18.2476 3.20351 18.2476ZM3.17655 16.3344C2.35663 16.3344 1.91327 15.9141 1.91327 15.0551L1.91327 6.03241C1.91327 5.18144 2.35663 4.75487 3.17655 4.75487L16.651 4.75487C17.4709 4.75487 17.9223 5.18144 17.9223 6.03241L17.9223 15.0551C17.9223 15.9141 17.4709 16.3344 16.651 16.3344Z" fill="white" fill-opacity="0.85"/>
  <path d="M6.13378 14.4535L9.44511 14.4535C9.8248 14.4535 10.0281 14.2061 10.0281 13.851C10.0281 13.4879 9.81679 13.2564 9.44511 13.2564L7.25018 13.2564L7.25018 13.1783L8.59687 11.4859C9.52773 10.34 9.88691 9.62265 9.88691 8.72988C9.88691 7.38945 8.97792 6.47382 7.63554 6.47382C6.3996 6.47382 5.44706 7.47382 5.44706 8.49296C5.44706 8.86562 5.67245 9.14335 6.06464 9.14335C6.39745 9.14335 6.6121 8.98984 6.72479 8.64296C6.88651 8.04667 7.10956 7.6496 7.62753 7.6496C8.18632 7.6496 8.47968 8.15058 8.47968 8.78671C8.47968 9.55488 7.95214 10.3098 7.42578 10.9826L5.82499 13.032C5.61405 13.3086 5.44081 13.5465 5.44081 13.8572C5.44081 14.2059 5.67323 14.4535 6.13378 14.4535ZM13.2328 14.5645C13.64 14.5645 13.9799 14.2246 13.9799 13.7996L13.9799 7.39042C13.9799 6.84921 13.6498 6.54218 13.1086 6.54218C12.6809 6.54218 12.3471 6.76152 12.0996 6.95488L11.0869 7.7455C10.8918 7.88652 10.7568 8.0871 10.7568 8.34804C10.7568 8.68241 10.9848 8.89198 11.276 8.89198C11.4357 8.89198 11.5387 8.84316 11.6469 8.758L12.4697 8.10663L12.4697 13.7996C12.4697 14.2246 12.8096 14.5645 13.2328 14.5645Z" fill="white" fill-opacity="0.85"/>
 </g>
</svg>
