<?xml version="1.0" encoding="UTF-8"?>
<!--Generator: Apple Native CoreSVG 341-->
<!DOCTYPE svg
PUBLIC "-//W3C//DTD SVG 1.1//EN"
       "http://www.w3.org/Graphics/SVG/1.1/DTD/svg11.dtd">
<svg version="1.1" xmlns="http://www.w3.org/2000/svg" xmlns:xlink="http://www.w3.org/1999/xlink" viewBox="0 0 18.5894 18.2316">
 <g>
  <rect height="18.2316" opacity="0" width="18.5894" x="0" y="0"/>
  <path d="M18.2281 3.17148L18.2281 15.0646C18.2281 17.1502 17.1404 18.2281 15.0246 18.2281L3.20351 18.2281C1.0957 18.2281 0 17.1502 0 15.0646L0 3.17148C0 1.08769 1.0957 0 3.20351 0L15.0246 0C17.1404 0 18.2281 1.08769 18.2281 3.17148ZM11.4057 5.37558L10.3584 6.17949C10.1535 6.33378 10.0088 6.53613 10.0088 6.81035C10.0088 7.158 10.2482 7.38085 10.5527 7.38085C10.7223 7.38085 10.8269 7.33027 10.9467 7.25312L11.7908 6.56269L11.7908 12.4809C11.7908 12.9129 12.1457 13.2678 12.584 13.2678C13.016 13.2678 13.3674 12.9129 13.3674 12.4809L13.3674 5.81991C13.3674 5.26015 13.024 4.9416 12.4562 4.9416C12.0152 4.9416 11.6664 5.1707 11.4057 5.37558ZM4.49433 6.95703C4.49433 7.35898 4.72324 7.64198 5.13847 7.64198C5.4828 7.64198 5.70898 7.4787 5.81718 7.11855C5.99667 6.50097 6.22148 6.10038 6.75898 6.10038C7.34082 6.10038 7.63593 6.60487 7.63593 7.27206C7.63593 8.06328 7.09336 8.86074 6.54218 9.56015L4.88554 11.6689C4.65156 11.9605 4.48808 12.218 4.48808 12.5322C4.48808 12.9039 4.72226 13.1551 5.20585 13.1551L8.64921 13.1551C9.04394 13.1551 9.25702 12.8926 9.25702 12.5357C9.25702 12.1416 9.03593 11.9049 8.64921 11.9049L6.37538 11.9049L6.37538 11.8187L7.7664 10.0687C8.73984 8.88027 9.11581 8.13632 9.11581 7.20546C9.11581 5.82167 8.15898 4.86171 6.76874 4.86171C5.4832 4.86171 4.49433 5.89804 4.49433 6.95703Z" fill="white" fill-opacity="0.85"/>
 </g>
</svg>
