<?xml version="1.0" encoding="UTF-8"?>
<!--Generator: Apple Native CoreSVG 341-->
<!DOCTYPE svg
PUBLIC "-//W3C//DTD SVG 1.1//EN"
       "http://www.w3.org/Graphics/SVG/1.1/DTD/svg11.dtd">
<svg version="1.1" xmlns="http://www.w3.org/2000/svg" xmlns:xlink="http://www.w3.org/1999/xlink" viewBox="0 0 18.5894 18.2316">
 <g>
  <rect height="18.2316" opacity="0" width="18.5894" x="0" y="0"/>
  <path d="M3.20351 18.2281L15.0246 18.2281C17.1404 18.2281 18.2281 17.1502 18.2281 15.0646L18.2281 3.17148C18.2281 1.08769 17.1404 0 15.0246 0L3.20351 0C1.0957 0 0 1.08769 0 3.17148L0 15.0646C0 17.1502 1.0957 18.2281 3.20351 18.2281ZM3.31444 16.3148C2.40643 16.3148 1.91327 15.8465 1.91327 14.8977L1.91327 3.34023C1.91327 2.39139 2.40643 1.91503 3.31444 1.91503L14.9137 1.91503C15.8137 1.91503 16.3148 2.39139 16.3148 3.34023L16.3148 14.8977C16.3148 15.8465 15.8137 16.3148 14.9137 16.3148Z" fill="white" fill-opacity="0.85"/>
  <path d="M5.33007 13L8.6414 13C9.02109 13 9.22441 12.7525 9.22441 12.4055C9.22441 12.0344 9.01308 11.8029 8.6414 11.8029L6.44647 11.8029L6.44647 11.7248L7.79316 10.0324C8.72402 8.88652 9.0832 8.16913 9.0832 7.27636C9.0832 5.94394 8.17421 5.0203 6.83183 5.0203C5.59589 5.0203 4.64335 6.02031 4.64335 7.03769C4.64335 7.41835 4.86874 7.68984 5.26093 7.68984C5.59374 7.68984 5.80839 7.53632 5.91308 7.18945C6.0828 6.59316 6.30585 6.20409 6.82382 6.20409C7.38261 6.20409 7.66797 6.69706 7.66797 7.3412C7.66797 8.10136 7.14843 8.86425 6.62207 9.5371L5.02128 11.5785C4.80234 11.8551 4.6371 12.101 4.6371 12.4037C4.6371 12.7603 4.86952 13 5.33007 13ZM12.4211 13.1092C12.8363 13.1092 13.1762 12.7693 13.1762 12.3541L13.1762 5.9369C13.1762 5.4037 12.8461 5.09667 12.3049 5.09667C11.8771 5.09667 11.5434 5.31601 11.2959 5.50761L10.2832 6.29023C10.0881 6.44101 9.95312 6.63359 9.95312 6.89452C9.95312 7.2289 10.1811 7.43847 10.4723 7.43847C10.632 7.43847 10.735 7.38964 10.8432 7.31249L11.666 6.65311L11.666 12.3541C11.666 12.7693 12.0059 13.1092 12.4211 13.1092Z" fill="white" fill-opacity="0.85"/>
 </g>
</svg>
