<?xml version="1.0" encoding="UTF-8"?>
<!--Generator: Apple Native CoreSVG 341-->
<!DOCTYPE svg
PUBLIC "-//W3C//DTD SVG 1.1//EN"
       "http://www.w3.org/Graphics/SVG/1.1/DTD/svg11.dtd">
<svg version="1.1" xmlns="http://www.w3.org/2000/svg" xmlns:xlink="http://www.w3.org/1999/xlink" viewBox="0 0 20.1969 18.2476">
 <g>
  <rect height="18.2476" opacity="0" width="20.1969" x="0" y="0"/>
  <path d="M3.20351 18.2476L16.64 18.2476C18.7478 18.2476 19.8355 17.16 19.8355 15.0762L19.8355 3.19101C19.8355 1.10547 18.7478 0.0195312 16.64 0.0195312L3.20351 0.0195312C1.0957 0.0195312 0 1.09746 0 3.19101L0 15.0762C0 17.168 1.0957 18.2476 3.20351 18.2476ZM3.17655 16.3344C2.35663 16.3344 1.91327 15.9141 1.91327 15.0551L1.91327 6.03241C1.91327 5.18144 2.35663 4.75487 3.17655 4.75487L16.651 4.75487C17.4709 4.75487 17.9223 5.18144 17.9223 6.03241L17.9223 15.0551C17.9223 15.9141 17.4709 16.3344 16.651 16.3344Z" fill="white" fill-opacity="0.85"/>
  <path d="M5.62323 14.4535L8.93456 14.4535C9.30624 14.4535 9.51757 14.2061 9.51757 13.851C9.51757 13.4879 9.29823 13.2564 8.93456 13.2564L6.73163 13.2564L6.73163 13.1783L8.07831 11.4859C9.01718 10.34 9.36835 9.62265 9.36835 8.72988C9.36835 7.38945 8.46737 6.47382 7.11698 6.47382C5.88905 6.47382 4.93651 7.47382 4.93651 8.49296C4.93651 8.86562 5.1539 9.14335 5.54784 9.14335C5.8789 9.14335 6.10155 8.98984 6.20624 8.64296C6.37597 8.04667 6.59901 7.6496 7.11698 7.6496C7.66777 7.6496 7.96288 8.15058 7.96288 8.78671C7.96288 9.55488 7.43359 10.3098 6.90722 10.9826L5.31444 13.032C5.0955 13.3086 4.92226 13.5465 4.92226 13.8572C4.92226 14.2059 5.15468 14.4535 5.62323 14.4535ZM11.1346 14.4535L14.4459 14.4535C14.8193 14.4535 15.0289 14.2061 15.0289 13.851C15.0289 13.4879 14.8096 13.2564 14.4459 13.2564L12.2527 13.2564L12.2527 13.1783L13.5914 11.4859C14.5285 10.34 14.8877 9.62265 14.8877 8.72988C14.8877 7.38945 13.9787 6.47382 12.6363 6.47382C11.4021 6.47382 10.4496 7.47382 10.4496 8.49296C10.4496 8.86562 10.667 9.14335 11.0672 9.14335C11.3982 9.14335 11.6129 8.98984 11.7176 8.64296C11.8873 8.04667 12.1121 7.6496 12.6283 7.6496C13.1809 7.6496 13.4742 8.15058 13.4742 8.78671C13.4742 9.55488 12.9467 10.3098 12.4203 10.9826L10.8258 13.032C10.6068 13.3086 10.4434 13.5465 10.4434 13.8572C10.4434 14.2059 10.666 14.4535 11.1346 14.4535Z" fill="white" fill-opacity="0.85"/>
 </g>
</svg>
