<?xml version="1.0" encoding="UTF-8"?>
<!--Generator: Apple Native CoreSVG 341-->
<!DOCTYPE svg
PUBLIC "-//W3C//DTD SVG 1.1//EN"
       "http://www.w3.org/Graphics/SVG/1.1/DTD/svg11.dtd">
<svg version="1.1" xmlns="http://www.w3.org/2000/svg" xmlns:xlink="http://www.w3.org/1999/xlink" viewBox="0 0 20.5381 20.1848">
 <g>
  <rect height="20.1848" opacity="0" width="20.5381" x="0" y="0"/>
  <path d="M20.1767 10.0875C20.1767 15.6478 15.6576 20.175 10.0875 20.175C4.52715 20.175 0 15.6478 0 10.0875C0 4.51914 4.52715 0 10.0875 0C15.6576 0 20.1767 4.51914 20.1767 10.0875ZM10.6977 7.34492C10.6471 7.53496 10.6258 7.7205 10.6258 7.89003C10.6258 8.23085 10.8326 8.52089 11.2797 8.52089C11.6285 8.52089 11.8705 8.39394 11.9734 8.02656C12.1219 7.48183 12.4018 7.11249 12.941 7.11249C13.5594 7.11249 13.8385 7.608 13.8385 8.22812C13.8385 8.91484 13.4705 9.44668 12.7422 9.44668L12.5475 9.44668C12.1758 9.44668 11.9459 9.67031 11.9459 10.0182C11.9459 10.366 12.1705 10.5754 12.5475 10.5754L12.76 10.5754C13.5807 10.5754 14.0125 11.0213 14.0125 11.8562C14.0125 12.5039 13.6766 13.0723 12.9766 13.0723C12.3109 13.0723 12.0035 12.6262 11.8881 12.1918C11.7701 11.8387 11.5475 11.6621 11.2023 11.6621C10.7756 11.6621 10.4863 11.9221 10.4863 12.3391C10.4863 12.5281 10.5174 12.7074 10.5662 12.8734C10.8592 13.8039 11.8891 14.3127 12.9738 14.3127C14.4447 14.3127 15.5412 13.4143 15.5412 11.9129C15.5412 10.7051 14.8324 10.0705 13.9713 9.9791L13.9713 9.94628C14.833 9.71796 15.3086 8.92226 15.3086 8.05956C15.3086 6.6666 14.2742 5.87382 12.9357 5.87382C11.8996 5.87382 10.9853 6.44746 10.6977 7.34492ZM4.72695 7.93007C4.72695 8.33378 4.9541 8.61855 5.37109 8.61855C5.71542 8.61855 5.94335 8.45527 6.0578 8.09335C6.22929 7.47577 6.45234 7.07694 6.99335 7.07694C7.57343 7.07694 7.87656 7.58144 7.87656 8.24863C7.87656 9.03984 7.32597 9.8373 6.7748 10.5287L5.11816 12.6455C4.89218 12.9371 4.7207 13.1865 4.7207 13.5088C4.7207 13.8805 4.95663 14.1316 5.44023 14.1316L8.88007 14.1316C9.27656 14.1316 9.48964 13.8691 9.48964 13.5123C9.48964 13.1164 9.26855 12.8734 8.88007 12.8734L6.608 12.8734L6.608 12.7953L8.00077 11.0453C8.96445 9.85683 9.34667 9.11288 9.34667 8.18027C9.34667 6.79824 8.3916 5.83827 7.00136 5.83827C5.71581 5.83827 4.72695 6.8746 4.72695 7.93007Z" fill="white" fill-opacity="0.85"/>
 </g>
</svg>
