<?xml version="1.0" encoding="UTF-8"?>
<!--Generator: Apple Native CoreSVG 341-->
<!DOCTYPE svg
PUBLIC "-//W3C//DTD SVG 1.1//EN"
       "http://www.w3.org/Graphics/SVG/1.1/DTD/svg11.dtd">
<svg version="1.1" xmlns="http://www.w3.org/2000/svg" xmlns:xlink="http://www.w3.org/1999/xlink" viewBox="0 0 20.1969 18.2476">
 <g>
  <rect height="18.2476" opacity="0" width="20.1969" x="0" y="0"/>
  <path d="M3.20351 18.2476L16.64 18.2476C18.7478 18.2476 19.8355 17.16 19.8355 15.0762L19.8355 3.19101C19.8355 1.10547 18.7478 0.0195312 16.64 0.0195312L3.20351 0.0195312C1.0957 0.0195312 0 1.09746 0 3.19101L0 15.0762C0 17.168 1.0957 18.2476 3.20351 18.2476ZM3.17655 16.3344C2.35663 16.3344 1.91327 15.9141 1.91327 15.0551L1.91327 6.03241C1.91327 5.18144 2.35663 4.75487 3.17655 4.75487L16.651 4.75487C17.4709 4.75487 17.9223 5.18144 17.9223 6.03241L17.9223 15.0551C17.9223 15.9141 17.4709 16.3344 16.651 16.3344Z" fill="white" fill-opacity="0.85"/>
  <path d="M5.45975 14.4535L8.77109 14.4535C9.14452 14.4535 9.34608 14.2061 9.34608 13.851C9.34608 13.4879 9.13651 13.2564 8.77109 13.2564L6.56991 13.2564L6.56991 13.1783L7.91659 11.4859C8.8537 10.34 9.20663 9.62265 9.20663 8.72988C9.20663 7.38945 8.3039 6.47382 6.95526 6.47382C5.72733 6.47382 4.7748 7.47382 4.7748 8.49296C4.7748 8.86562 4.99218 9.14335 5.38436 9.14335C5.71718 9.14335 5.93983 8.98984 6.04452 8.64296C6.21425 8.04667 6.42929 7.6496 6.95526 7.6496C7.50605 7.6496 7.79941 8.15058 7.79941 8.78671C7.79941 9.55488 7.27187 10.3098 6.7455 10.9826L5.14296 13.032C4.93202 13.3086 4.76054 13.5465 4.76054 13.8572C4.76054 14.2059 4.9912 14.4535 5.45975 14.4535ZM12.708 14.6311C14.1115 14.6311 15.1717 13.7609 15.1717 12.3172C15.1717 11.1555 14.4842 10.5492 13.6674 10.4561L13.6674 10.417C14.49 10.2002 14.9408 9.44355 14.9408 8.61093C14.9408 7.27558 13.9508 6.50761 12.6637 6.50761C11.6639 6.50761 10.7877 7.05996 10.5098 7.9291C10.4609 8.10761 10.4396 8.27538 10.4396 8.45117C10.4396 8.76894 10.6527 9.05546 11.067 9.05546C11.4043 9.05546 11.6312 8.92226 11.7324 8.57441C11.8728 8.05097 12.1572 7.68691 12.6689 7.68691C13.266 7.68691 13.5371 8.1789 13.5371 8.77597C13.5371 9.43964 13.1869 9.94843 12.4896 9.94843L12.2851 9.94843C11.9285 9.94843 11.7182 10.1543 11.7182 10.4871C11.7182 10.8234 11.933 11.0275 12.2851 11.0275L12.4994 11.0275C13.2855 11.0275 13.7076 11.4539 13.7076 12.2641C13.7076 12.8904 13.3814 13.4357 12.7045 13.4357C12.0601 13.4357 11.7705 13.0012 11.6453 12.5863C11.5469 12.2562 11.3197 12.0814 10.9896 12.0814C10.5859 12.0814 10.3197 12.3219 10.3197 12.7318C10.3197 12.9111 10.3473 13.0852 10.3978 13.2414C10.6695 14.1373 11.6533 14.6311 12.708 14.6311Z" fill="white" fill-opacity="0.85"/>
 </g>
</svg>
