<?xml version="1.0" encoding="UTF-8"?>
<!--Generator: Apple Native CoreSVG 341-->
<!DOCTYPE svg
PUBLIC "-//W3C//DTD SVG 1.1//EN"
       "http://www.w3.org/Graphics/SVG/1.1/DTD/svg11.dtd">
<svg version="1.1" xmlns="http://www.w3.org/2000/svg" xmlns:xlink="http://www.w3.org/1999/xlink" viewBox="0 0 18.5894 18.2316">
 <g>
  <rect height="18.2316" opacity="0" width="18.5894" x="0" y="0"/>
  <path d="M3.20351 18.2281L15.0246 18.2281C17.1404 18.2281 18.2281 17.1502 18.2281 15.0646L18.2281 3.17148C18.2281 1.08769 17.1404 0 15.0246 0L3.20351 0C1.0957 0 0 1.08769 0 3.17148L0 15.0646C0 17.1502 1.0957 18.2281 3.20351 18.2281ZM3.31444 16.3148C2.40643 16.3148 1.91327 15.8465 1.91327 14.8977L1.91327 3.34023C1.91327 2.39139 2.40643 1.91503 3.31444 1.91503L14.9137 1.91503C15.8137 1.91503 16.3148 2.39139 16.3148 3.34023L16.3148 14.8977C16.3148 15.8465 15.8137 16.3148 14.9137 16.3148Z" fill="white" fill-opacity="0.85"/>
  <path d="M4.64804 13L7.96738 13C8.34081 13 8.54238 12.7525 8.54238 12.4055C8.54238 12.0344 8.33281 11.8029 7.96738 11.8029L5.7662 11.8029L5.7662 11.7248L7.11288 10.0324C8.04199 8.88652 8.40292 8.16913 8.40292 7.27636C8.40292 5.94394 7.49218 5.0203 6.15156 5.0203C4.91562 5.0203 3.96308 6.02031 3.96308 7.03769C3.96308 7.41835 4.18847 7.68984 4.58066 7.68984C4.91347 7.68984 5.12812 7.53632 5.24081 7.18945C5.40253 6.59316 5.62558 6.20409 6.15156 6.20409C6.70234 6.20409 6.9957 6.69706 6.9957 7.3412C6.9957 8.10136 6.46816 8.86425 5.94179 9.5371L4.33925 11.5785C4.12831 11.8551 3.95683 12.101 3.95683 12.4037C3.95683 12.7603 4.18749 13 4.64804 13ZM11.8963 13.1775C13.3078 13.1775 14.368 12.3074 14.368 10.8637C14.368 9.70195 13.6805 9.09394 12.8637 9.00253L12.8637 8.97148C13.6863 8.75292 14.1371 7.99003 14.1371 7.15742C14.1371 5.82206 13.1471 5.05409 11.86 5.05409C10.8602 5.05409 9.98398 5.60468 9.70605 6.47558C9.65722 6.6541 9.63593 6.82988 9.63593 6.99765C9.63593 7.32343 9.84902 7.60195 10.2633 7.60195C10.6006 7.60195 10.8275 7.47675 10.9287 7.12089C11.0691 6.59745 11.3455 6.2414 11.8652 6.2414C12.4623 6.2414 12.7334 6.72362 12.7334 7.3207C12.7334 7.98613 12.3832 8.49492 11.6859 8.49492L11.4814 8.49492C11.1248 8.49492 10.9064 8.70878 10.9064 9.0416C10.9064 9.37792 11.1293 9.57402 11.4814 9.57402L11.6957 9.57402C12.4818 9.57402 12.9039 10.0084 12.9039 10.8105C12.9039 11.4369 12.5777 11.9902 11.9008 11.9902C11.2564 11.9902 10.9588 11.5539 10.8416 11.1328C10.7432 10.8027 10.516 10.6279 10.1859 10.6279C9.78222 10.6279 9.51601 10.8764 9.51601 11.2783C9.51601 11.4576 9.53554 11.6316 9.59414 11.7879C9.86582 12.6838 10.8496 13.1775 11.8963 13.1775Z" fill="white" fill-opacity="0.85"/>
 </g>
</svg>
