<?xml version="1.0" encoding="UTF-8"?>
<!--Generator: Apple Native CoreSVG 341-->
<!DOCTYPE svg
PUBLIC "-//W3C//DTD SVG 1.1//EN"
       "http://www.w3.org/Graphics/SVG/1.1/DTD/svg11.dtd">
<svg version="1.1" xmlns="http://www.w3.org/2000/svg" xmlns:xlink="http://www.w3.org/1999/xlink" viewBox="0 0 18.5894 18.2316">
 <g>
  <rect height="18.2316" opacity="0" width="18.5894" x="0" y="0"/>
  <path d="M18.2281 3.17148L18.2281 15.0646C18.2281 17.1502 17.1404 18.2281 15.0246 18.2281L3.20351 18.2281C1.0957 18.2281 0 17.1502 0 15.0646L0 3.17148C0 1.08769 1.0957 0 3.20351 0L15.0246 0C17.1404 0 18.2281 1.08769 18.2281 3.17148ZM9.74843 6.36835C9.69785 6.55839 9.67656 6.74394 9.67656 6.91347C9.67656 7.25429 9.8914 7.54433 10.3305 7.54433C10.681 7.54433 10.9213 7.41738 11.0242 7.04999C11.1726 6.50526 11.4525 6.13593 11.9918 6.13593C12.6119 6.13593 12.891 6.63144 12.891 7.25156C12.891 7.93828 12.5293 8.47011 11.8027 8.47011L11.5982 8.47011C11.2266 8.47011 10.9967 8.69375 10.9967 9.0416C10.9967 9.38945 11.231 9.59882 11.5982 9.59882L11.8125 9.59882C12.6314 9.59882 13.0633 10.0447 13.0633 10.8797C13.0633 11.5273 12.7273 12.0957 12.0291 12.0957C11.3617 12.0957 11.056 11.6496 10.9389 11.2152C10.8307 10.8621 10.5982 10.6855 10.2531 10.6855C9.82636 10.6855 9.54687 10.9455 9.54687 11.3625C9.54687 11.5516 9.56992 11.7309 9.62675 11.8969C9.90996 12.8273 10.9398 13.3361 12.0246 13.3361C13.4955 13.3361 14.5937 12.4377 14.5937 10.9363C14.5937 9.72851 13.8832 9.09394 13.0318 9.00253L13.0318 8.96972C13.8838 8.7414 14.3611 7.9457 14.3611 7.083C14.3611 5.69003 13.3268 4.89726 11.9883 4.89726C10.9504 4.89726 10.0361 5.47089 9.74843 6.36835ZM3.77773 6.95351C3.77773 7.35722 4.00663 7.64198 4.42362 7.64198C4.76796 7.64198 4.99413 7.4787 5.10858 7.11679C5.28007 6.49921 5.50487 6.10038 6.05214 6.10038C6.62421 6.10038 6.9291 6.60487 6.9291 7.27206C6.9291 8.06328 6.37851 8.86074 5.82734 9.55214L4.1707 11.6689C3.94472 11.9605 3.77324 12.21 3.77324 12.5322C3.77324 12.9039 4.00741 13.1551 4.49101 13.1551L7.93886 13.1551C8.32909 13.1551 8.54042 12.8926 8.54042 12.5357C8.54042 12.1398 8.31933 11.8969 7.93886 11.8969L5.65878 11.8969L5.65878 11.8187L7.05155 10.0687C8.01699 8.88027 8.39921 8.13632 8.39921 7.2037C8.39921 5.82167 7.44413 4.86171 6.05214 4.86171C4.76835 4.86171 3.77773 5.89804 3.77773 6.95351Z" fill="white" fill-opacity="0.85"/>
 </g>
</svg>
