<?xml version="1.0" encoding="UTF-8"?>
<!--Generator: Apple Native CoreSVG 341-->
<!DOCTYPE svg
PUBLIC "-//W3C//DTD SVG 1.1//EN"
       "http://www.w3.org/Graphics/SVG/1.1/DTD/svg11.dtd">
<svg version="1.1" xmlns="http://www.w3.org/2000/svg" xmlns:xlink="http://www.w3.org/1999/xlink" viewBox="0 0 20.5381 20.1848">
 <g>
  <rect height="20.1848" opacity="0" width="20.5381" x="0" y="0"/>
  <path d="M20.1767 10.0875C20.1767 15.6478 15.6576 20.175 10.0875 20.175C4.52715 20.175 0 15.6478 0 10.0875C0 4.51914 4.52715 0 10.0875 0C15.6576 0 20.1767 4.51914 20.1767 10.0875ZM12.1375 7.09178L10.5164 10.7053C10.3539 11.0994 10.2803 11.3947 10.2803 11.7195C10.2803 12.2518 10.6406 12.5908 11.1684 12.5908L13.2977 12.5908L13.2977 13.5035C13.2977 14.0635 13.6873 14.2621 14.0465 14.2621C14.4555 14.2621 14.7873 14.0189 14.7873 13.5035L14.7873 12.5908L15.0896 12.5908C15.5154 12.5908 15.6975 12.3141 15.6975 11.96C15.6975 11.6061 15.5111 11.3451 15.0914 11.3451L14.7873 11.3451L14.7873 7.0787C14.7873 6.3414 14.2922 5.91992 13.5904 5.91992C12.7721 5.91992 12.433 6.39198 12.1375 7.09178ZM4.68359 7.93359C4.68359 8.33554 4.92226 8.61855 5.32949 8.61855C5.68183 8.61855 5.89999 8.45527 6.02245 8.09511C6.18593 7.47753 6.4205 7.07694 6.96601 7.07694C7.53007 7.07694 7.83496 7.58144 7.83496 8.24863C7.83496 9.03984 7.28437 9.8373 6.74121 10.5367L5.08456 12.6455C4.86035 12.9371 4.67734 13.1945 4.67734 13.5088C4.67734 13.8805 4.92128 14.1316 5.40663 14.1316L8.84648 14.1316C9.24296 14.1316 9.45429 13.8691 9.45429 13.5123C9.45429 13.1182 9.23495 12.8814 8.84648 12.8814L6.5744 12.8814L6.5744 12.7953L7.96718 11.0453C8.93085 9.85683 9.30683 9.11288 9.30683 8.18027C9.30683 6.79824 8.358 5.83827 6.96601 5.83827C5.68222 5.83827 4.68359 6.8746 4.68359 7.93359ZM13.334 11.3832L11.5971 11.3832L11.5971 11.3113L13.2949 7.23691L13.334 7.23691Z" fill="white" fill-opacity="0.85"/>
 </g>
</svg>
