<?xml version="1.0" encoding="UTF-8"?>
<!--Generator: Apple Native CoreSVG 341-->
<!DOCTYPE svg
PUBLIC "-//W3C//DTD SVG 1.1//EN"
       "http://www.w3.org/Graphics/SVG/1.1/DTD/svg11.dtd">
<svg version="1.1" xmlns="http://www.w3.org/2000/svg" xmlns:xlink="http://www.w3.org/1999/xlink" viewBox="0 0 18.5894 18.2316">
 <g>
  <rect height="18.2316" opacity="0" width="18.5894" x="0" y="0"/>
  <path d="M3.20351 18.2281L15.0246 18.2281C17.1404 18.2281 18.2281 17.1502 18.2281 15.0646L18.2281 3.17148C18.2281 1.08769 17.1404 0 15.0246 0L3.20351 0C1.0957 0 0 1.08769 0 3.17148L0 15.0646C0 17.1502 1.0957 18.2281 3.20351 18.2281ZM3.31444 16.3148C2.40643 16.3148 1.91327 15.8465 1.91327 14.8977L1.91327 3.34023C1.91327 2.39139 2.40643 1.91503 3.31444 1.91503L14.9137 1.91503C15.8137 1.91503 16.3148 2.39139 16.3148 3.34023L16.3148 14.8977C16.3148 15.8465 15.8137 16.3148 14.9137 16.3148Z" fill="white" fill-opacity="0.85"/>
  <path d="M4.62421 13L7.93554 13C8.30898 13 8.51054 12.7525 8.51054 12.4055C8.51054 12.0344 8.29921 11.8029 7.93554 11.8029L5.73436 11.8029L5.73436 11.7248L7.08105 10.0324C8.01015 8.88652 8.36933 8.16913 8.36933 7.27636C8.36933 5.94394 7.46035 5.0203 6.11796 5.0203C4.89179 5.0203 3.93124 6.02031 3.93124 7.03769C3.93124 7.41835 4.15663 7.68984 4.54882 7.68984C4.87987 7.68984 5.10253 7.53632 5.20722 7.18945C5.37694 6.59316 5.59374 6.20409 6.11796 6.20409C6.6705 6.20409 6.96386 6.69706 6.96386 7.3412C6.96386 8.10136 6.43632 8.86425 5.90996 9.5371L4.30741 11.5785C4.09648 11.8551 3.92499 12.101 3.92499 12.4037C3.92499 12.7603 4.15566 13 4.62421 13ZM12.9344 13.1287C13.3186 13.1287 13.6371 12.8971 13.6371 12.3967L13.6371 11.515L13.9297 11.515C14.3422 11.515 14.5127 11.2516 14.5127 10.9107C14.5127 10.5719 14.3379 10.3242 13.9314 10.3242L13.6371 10.3242L13.6371 6.20585C13.6371 5.49862 13.1748 5.10019 12.4916 5.10019C11.7148 5.10019 11.3891 5.55018 11.1068 6.21366L9.53632 9.70742C9.37382 10.09 9.30996 10.3703 9.30996 10.6836C9.30996 11.1893 9.64902 11.515 10.168 11.515L12.2139 11.515L12.2139 12.3967C12.2139 12.9336 12.5902 13.1287 12.9344 13.1287ZM12.2484 10.3588L10.5754 10.3588L10.5754 10.2887L12.2174 6.36581L12.2484 6.36581Z" fill="white" fill-opacity="0.85"/>
 </g>
</svg>
