<?xml version="1.0" encoding="UTF-8"?>
<!--Generator: Apple Native CoreSVG 341-->
<!DOCTYPE svg
PUBLIC "-//W3C//DTD SVG 1.1//EN"
       "http://www.w3.org/Graphics/SVG/1.1/DTD/svg11.dtd">
<svg version="1.1" xmlns="http://www.w3.org/2000/svg" xmlns:xlink="http://www.w3.org/1999/xlink" viewBox="0 0 20.5381 20.1848">
 <g>
  <rect height="20.1848" opacity="0" width="20.5381" x="0" y="0"/>
  <path d="M20.1767 10.0875C20.1767 15.6478 15.6576 20.175 10.0875 20.175C4.52715 20.175 0 15.6478 0 10.0875C0 4.51914 4.52715 0 10.0875 0C15.6576 0 20.1767 4.51914 20.1767 10.0875ZM11.7519 6.04511C11.2123 6.04511 10.9594 6.40722 10.9318 6.94238L10.7701 9.62421C10.7621 9.76464 10.7603 9.93496 10.7603 10.0594C10.7603 10.4842 10.9803 10.8295 11.4648 10.8295C11.7603 10.8295 11.9139 10.7273 12.1234 10.4469C12.3367 10.1394 12.5668 9.90859 12.9435 9.90859C13.6268 9.90859 13.8818 10.7621 13.8818 11.4709C13.8818 12.2457 13.6275 13.0883 12.931 13.0883C12.4184 13.0883 12.1242 12.7125 11.9545 12.2131C11.832 11.8732 11.5916 11.7047 11.2988 11.7047C10.9146 11.7047 10.66 11.9531 10.66 12.3453C10.66 12.5691 10.7133 12.7814 10.8021 12.9715C11.1361 13.79 12.023 14.3385 12.9559 14.3385C14.5352 14.3385 15.3857 13.0236 15.3857 11.4283C15.3857 10.0785 14.7674 8.79316 13.4721 8.79316C12.8518 8.79316 12.3445 9.09824 12.1037 9.64726L12.0629 9.64726L12.2086 7.31132L14.4857 7.31132C14.8672 7.31132 15.0838 7.04784 15.0838 6.67597C15.0838 6.31757 14.8521 6.04511 14.4857 6.04511ZM4.69394 7.93007C4.69394 8.33378 4.93085 8.61054 5.33808 8.61054C5.68417 8.61054 5.9121 8.45351 6.01855 8.09335C6.19628 7.47577 6.42909 7.07694 6.95859 7.07694C7.54218 7.07694 7.83554 7.58144 7.83554 8.24863C7.83554 9.03984 7.29296 9.8373 6.74355 10.5287L5.08515 12.6455C4.85292 12.9273 4.68769 13.1865 4.68769 13.5088C4.68769 13.8805 4.92988 14.1316 5.40722 14.1316L8.84882 14.1316C9.24355 14.1316 9.45839 13.8691 9.45839 13.5123C9.45839 13.1164 9.23554 12.8734 8.84882 12.8734L6.57675 12.8734L6.57675 12.7953L7.96777 11.0453C8.93945 9.85683 9.31542 9.11288 9.31542 8.18027C9.31542 6.79824 8.36835 5.83827 6.9666 5.83827C5.68281 5.83827 4.69394 6.8746 4.69394 7.93007Z" fill="white" fill-opacity="0.85"/>
 </g>
</svg>
