<?xml version="1.0" encoding="UTF-8"?>
<!--Generator: Apple Native CoreSVG 341-->
<!DOCTYPE svg
PUBLIC "-//W3C//DTD SVG 1.1//EN"
       "http://www.w3.org/Graphics/SVG/1.1/DTD/svg11.dtd">
<svg version="1.1" xmlns="http://www.w3.org/2000/svg" xmlns:xlink="http://www.w3.org/1999/xlink" viewBox="0 0 20.1969 18.2476">
 <g>
  <rect height="18.2476" opacity="0" width="20.1969" x="0" y="0"/>
  <path d="M3.20351 18.2476L16.64 18.2476C18.7478 18.2476 19.8355 17.16 19.8355 15.0762L19.8355 3.19101C19.8355 1.10547 18.7478 0.0195312 16.64 0.0195312L3.20351 0.0195312C1.0957 0.0195312 0 1.09746 0 3.19101L0 15.0762C0 17.168 1.0957 18.2476 3.20351 18.2476ZM3.17655 16.3344C2.35663 16.3344 1.91327 15.9141 1.91327 15.0551L1.91327 6.03241C1.91327 5.18144 2.35663 4.75487 3.17655 4.75487L16.651 4.75487C17.4709 4.75487 17.9223 5.18144 17.9223 6.03241L17.9223 15.0551C17.9223 15.9141 17.4709 16.3344 16.651 16.3344Z" fill="white" fill-opacity="0.85"/>
  <path d="M5.42675 14.4535L8.73808 14.4535C9.11151 14.4535 9.31308 14.2061 9.31308 13.851C9.31308 13.4879 9.10175 13.2564 8.73808 13.2564L6.5369 13.2564L6.5369 13.1783L7.88358 11.4859C8.81269 10.34 9.17186 9.62265 9.17186 8.72988C9.17186 7.38945 8.26288 6.47382 6.9205 6.47382C5.68632 6.47382 4.73378 7.47382 4.73378 8.49296C4.73378 8.86562 4.95917 9.14335 5.35136 9.14335C5.68241 9.14335 5.89706 8.98984 6.00975 8.64296C6.17948 8.04667 6.39628 7.6496 6.9205 7.6496C7.47304 7.6496 7.7664 8.15058 7.7664 8.78671C7.7664 9.55488 7.23886 10.3098 6.71249 10.9826L5.10995 13.032C4.89901 13.3086 4.72753 13.5465 4.72753 13.8572C4.72753 14.2059 4.95819 14.4535 5.42675 14.4535ZM12.682 14.6488C14.2002 14.6488 15.0144 13.3916 15.0144 11.8574C15.0144 10.5555 14.4174 9.30996 13.1717 9.30996C12.5859 9.30996 12.0822 9.61152 11.8592 10.1393L11.8103 10.1393L11.956 7.88398L14.1525 7.88398C14.5189 7.88398 14.7258 7.62402 14.7258 7.28144C14.7258 6.93007 14.4959 6.67714 14.1525 6.67714L11.5162 6.67714C10.9996 6.67714 10.76 7.01796 10.7307 7.53632L10.5885 10.1162C10.5725 10.2549 10.5707 10.4154 10.5707 10.5398C10.5707 10.9461 10.7853 11.2799 11.2451 11.2799C11.5211 11.2799 11.6808 11.1777 11.8726 10.9025C12.0762 10.6049 12.3027 10.3855 12.6697 10.3855C13.3299 10.3855 13.585 11.2143 13.585 11.8902C13.585 12.6455 13.3307 13.4598 12.6572 13.4598C12.156 13.4598 11.8717 13.0875 11.71 12.6076C11.5892 12.2811 11.3621 12.116 11.0826 12.116C10.7117 12.116 10.4783 12.3609 10.4783 12.7301C10.4783 12.9441 10.5236 13.1547 10.6027 13.3332C10.9269 14.1172 11.7793 14.6488 12.682 14.6488Z" fill="white" fill-opacity="0.85"/>
 </g>
</svg>
