<?xml version="1.0" encoding="UTF-8"?>
<!--Generator: Apple Native CoreSVG 341-->
<!DOCTYPE svg
PUBLIC "-//W3C//DTD SVG 1.1//EN"
       "http://www.w3.org/Graphics/SVG/1.1/DTD/svg11.dtd">
<svg version="1.1" xmlns="http://www.w3.org/2000/svg" xmlns:xlink="http://www.w3.org/1999/xlink" viewBox="0 0 18.5894 18.2316">
 <g>
  <rect height="18.2316" opacity="0" width="18.5894" x="0" y="0"/>
  <path d="M18.2281 3.17148L18.2281 15.0646C18.2281 17.1502 17.1404 18.2281 15.0246 18.2281L3.20351 18.2281C1.0957 18.2281 0 17.1502 0 15.0646L0 3.17148C0 1.08769 1.0957 0 3.20351 0L15.0246 0C17.1404 0 18.2281 1.08769 18.2281 3.17148ZM10.8027 5.06855C10.2631 5.06855 10.0119 5.43066 9.98261 5.96581L9.83066 8.64765C9.81464 8.78808 9.81113 8.95839 9.81113 9.08281C9.81113 9.50761 10.031 9.85292 10.5236 9.85292C10.8129 9.85292 10.9664 9.75078 11.1742 9.47031C11.3893 9.16288 11.6193 8.93202 11.9961 8.93202C12.6775 8.93202 12.9406 9.78554 12.9406 10.4943C12.9406 11.2691 12.6783 12.1117 11.9836 12.1117C11.4709 12.1117 11.175 11.7359 11.0053 11.2365C10.8828 10.8967 10.6441 10.7281 10.3514 10.7281C9.96542 10.7281 9.7205 10.9766 9.7205 11.3687C9.7205 11.5926 9.76581 11.8049 9.85292 11.9949C10.1887 12.8135 11.0756 13.3619 12.0084 13.3619C13.5877 13.3619 14.4365 12.0471 14.4365 10.4518C14.4365 9.10195 13.8182 7.8166 12.5246 7.8166C11.9105 7.8166 11.3953 8.12167 11.1545 8.6707L11.1137 8.6707L11.2611 6.33476L13.5383 6.33476C13.926 6.33476 14.1346 6.07128 14.1346 5.69941C14.1346 5.34101 13.9047 5.06855 13.5383 5.06855ZM3.74472 6.95351C3.74472 7.35722 3.98163 7.63398 4.38886 7.63398C4.73495 7.63398 4.96288 7.47695 5.07733 7.11679C5.24706 6.49921 5.48163 6.10038 6.01913 6.10038C6.59296 6.10038 6.89433 6.60487 6.89433 7.27206C6.89433 8.06328 6.34374 8.86074 5.79609 9.55214L4.13593 11.6689C3.91347 11.9508 3.73847 12.21 3.73847 12.5322C3.73847 12.9039 3.98241 13.1551 4.45976 13.1551L7.8996 13.1551C8.29433 13.1551 8.50917 12.8926 8.50917 12.5357C8.50917 12.1398 8.28632 11.8969 7.8996 11.8969L5.62753 11.8969L5.62753 11.8187L7.0203 10.0687C7.99023 8.88027 8.3662 8.13632 8.3662 7.2037C8.3662 5.82167 7.42089 4.86171 6.01913 4.86171C4.73359 4.86171 3.74472 5.89804 3.74472 6.95351Z" fill="white" fill-opacity="0.85"/>
 </g>
</svg>
