<?xml version="1.0" encoding="UTF-8"?>
<!--Generator: Apple Native CoreSVG 341-->
<!DOCTYPE svg
PUBLIC "-//W3C//DTD SVG 1.1//EN"
       "http://www.w3.org/Graphics/SVG/1.1/DTD/svg11.dtd">
<svg version="1.1" xmlns="http://www.w3.org/2000/svg" xmlns:xlink="http://www.w3.org/1999/xlink" viewBox="0 0 20.5381 20.1848">
 <g>
  <rect height="20.1848" opacity="0" width="20.5381" x="0" y="0"/>
  <path d="M20.1767 10.0875C20.1767 15.6478 15.6576 20.175 10.0875 20.175C4.52715 20.175 0 15.6478 0 10.0875C0 4.51914 4.52715 0 10.0875 0C15.6576 0 20.1767 4.51914 20.1767 10.0875ZM10.4285 10.1728C10.4285 12.0525 11.0252 14.3385 13.0848 14.3385C14.6312 14.3385 15.4916 13.0477 15.4916 11.4814C15.4916 10.1451 14.8672 8.86484 13.5504 8.86484C12.7434 8.86484 12.1598 9.41699 11.9377 10.243L11.9021 10.243C11.9021 10.1758 11.9021 10.1086 11.9021 10.0512C11.9021 8.88867 12.0582 7.10448 13.06 7.10448C13.482 7.10448 13.7496 7.40566 13.9121 7.79218C14.0691 8.11874 14.2715 8.25898 14.6176 8.25898C15.0514 8.25898 15.2359 7.96093 15.2359 7.60956C15.2359 7.5039 15.2262 7.3664 15.1853 7.24121C14.9617 6.36503 14.0996 5.85429 13.1043 5.85429C11.0277 5.85429 10.4285 8.12832 10.4285 10.1728ZM4.64531 7.93007C4.64531 8.33378 4.87421 8.61054 5.2912 8.61054C5.63554 8.61054 5.86972 8.45351 5.97616 8.09335C6.15566 7.47577 6.37245 7.07694 6.91972 7.07694C7.48378 7.07694 7.78691 7.58144 7.78691 8.24863C7.78691 9.03984 7.23808 9.8373 6.69492 10.5287L5.03827 12.6455C4.8123 12.9273 4.64081 13.1865 4.64081 13.5088C4.64081 13.8805 4.87499 14.1316 5.36659 14.1316L8.8082 14.1316C9.19667 14.1316 9.408 13.8691 9.408 13.5123C9.408 13.1164 9.18691 12.8734 8.8082 12.8734L6.52636 12.8734L6.52636 12.7953L7.91913 11.0453C8.88457 9.85683 9.25702 9.11288 9.25702 8.18027C9.25702 6.79824 8.31171 5.83827 6.91972 5.83827C5.64394 5.83827 4.64531 6.8746 4.64531 7.93007ZM13.9975 11.5551C13.9975 12.284 13.6998 13.0883 13.0617 13.0883C12.3756 13.0883 12.0957 12.2324 12.0957 11.5143C12.0957 10.7826 12.4076 10.0264 13.0617 10.0264C13.7318 10.0264 14.0135 10.8182 13.9975 11.5551Z" fill="white" fill-opacity="0.85"/>
 </g>
</svg>
