<?xml version="1.0" encoding="UTF-8"?>
<!--Generator: Apple Native CoreSVG 341-->
<!DOCTYPE svg
PUBLIC "-//W3C//DTD SVG 1.1//EN"
       "http://www.w3.org/Graphics/SVG/1.1/DTD/svg11.dtd">
<svg version="1.1" xmlns="http://www.w3.org/2000/svg" xmlns:xlink="http://www.w3.org/1999/xlink" viewBox="0 0 20.5381 20.1848">
 <g>
  <rect height="20.1848" opacity="0" width="20.5381" x="0" y="0"/>
  <path d="M10.0875 20.175C15.6576 20.175 20.1767 15.6559 20.1767 10.0875C20.1767 4.51914 15.6576 0 10.0875 0C4.51914 0 0 4.51914 0 10.0875C0 15.6559 4.51914 20.175 10.0875 20.175ZM10.0875 18.1879C5.60839 18.1879 1.9871 14.5666 1.9871 10.0875C1.9871 5.60839 5.60839 1.9871 10.0875 1.9871C14.5666 1.9871 18.1897 5.60839 18.1897 10.0875C18.1897 14.5666 14.5666 18.1879 10.0875 18.1879Z" fill="white" fill-opacity="0.85"/>
  <path d="M5.53671 13.9766L8.84804 13.9766C9.21972 13.9766 9.42304 13.7291 9.42304 13.382C9.42304 13.0109 9.21171 12.7795 8.84804 12.7795L6.64686 12.7795L6.64686 12.7014L7.99355 11.009C8.92265 9.86308 9.28183 9.14569 9.28183 8.25292C9.28183 6.9205 8.37285 5.99687 7.03046 5.99687C5.79452 5.99687 4.84374 6.99687 4.84374 8.01425C4.84374 8.39491 5.06738 8.6664 5.46132 8.6664C5.79237 8.6664 6.00702 8.51288 6.11972 8.16601C6.28944 7.56972 6.50624 7.18065 7.03046 7.18065C7.583 7.18065 7.87636 7.67362 7.87636 8.31777C7.87636 9.07792 7.34882 9.84082 6.82246 10.5137L5.21991 12.5551C5.00898 12.8316 4.83749 13.0775 4.83749 13.3803C4.83749 13.7369 5.06816 13.9766 5.53671 13.9766ZM12.958 14.1799C14.4451 14.1799 15.2771 12.9387 15.2771 11.4318C15.2771 10.1416 14.6758 8.91093 13.4068 8.91093C12.6264 8.91093 12.0641 9.44003 11.8518 10.2412L11.8162 10.2412C11.8162 10.1775 11.8162 10.1121 11.8162 10.0564C11.8162 8.9373 11.9687 7.20995 12.9332 7.20995C13.3437 7.20995 13.6033 7.50136 13.7623 7.87636C13.9096 8.18788 14.1102 8.32636 14.4332 8.32636C14.852 8.32636 15.025 8.04159 15.025 7.70702C15.025 7.5996 15.0135 7.47363 14.9842 7.35019C14.7641 6.51035 13.9365 6.01288 12.9775 6.01288C10.9834 6.01288 10.409 8.20097 10.409 10.1728C10.409 11.9816 10.9826 14.1799 12.958 14.1799ZM12.935 12.9828C12.2764 12.9828 11.9982 12.1562 11.9982 11.4566C11.9982 10.7578 12.3021 10.0228 12.935 10.0228C13.5838 10.0228 13.8637 10.7853 13.8477 11.4957C13.8477 12.1998 13.5518 12.9828 12.935 12.9828Z" fill="white" fill-opacity="0.85"/>
 </g>
</svg>
