<?xml version="1.0" encoding="UTF-8"?>
<!--Generator: Apple Native CoreSVG 341-->
<!DOCTYPE svg
PUBLIC "-//W3C//DTD SVG 1.1//EN"
       "http://www.w3.org/Graphics/SVG/1.1/DTD/svg11.dtd">
<svg version="1.1" xmlns="http://www.w3.org/2000/svg" xmlns:xlink="http://www.w3.org/1999/xlink" viewBox="0 0 18.5894 18.2316">
 <g>
  <rect height="18.2316" opacity="0" width="18.5894" x="0" y="0"/>
  <path d="M3.20351 18.2281L15.0246 18.2281C17.1404 18.2281 18.2281 17.1502 18.2281 15.0646L18.2281 3.17148C18.2281 1.08769 17.1404 0 15.0246 0L3.20351 0C1.0957 0 0 1.08769 0 3.17148L0 15.0646C0 17.1502 1.0957 18.2281 3.20351 18.2281ZM3.31444 16.3148C2.40643 16.3148 1.91327 15.8465 1.91327 14.8977L1.91327 3.34023C1.91327 2.39139 2.40643 1.91503 3.31444 1.91503L14.9137 1.91503C15.8137 1.91503 16.3148 2.39139 16.3148 3.34023L16.3148 14.8977C16.3148 15.8465 15.8137 16.3148 14.9137 16.3148Z" fill="white" fill-opacity="0.85"/>
  <path d="M4.57616 13L7.88749 13C8.25917 13 8.4705 12.7525 8.4705 12.4055C8.4705 12.0344 8.25117 11.8029 7.88749 11.8029L5.68456 11.8029L5.68456 11.7248L7.033 10.0324C7.97011 8.88652 8.32128 8.16913 8.32128 7.27636C8.32128 5.94394 7.42031 5.0203 6.06992 5.0203C4.84199 5.0203 3.88945 6.02031 3.88945 7.03769C3.88945 7.41835 4.10683 7.68984 4.50077 7.68984C4.83183 7.68984 5.05448 7.53632 5.15917 7.18945C5.3289 6.59316 5.55194 6.20409 6.06992 6.20409C6.62246 6.20409 6.91582 6.69706 6.91582 7.3412C6.91582 8.10136 6.38652 8.86425 5.86191 9.5371L4.26737 11.5785C4.04843 11.8551 3.87695 12.101 3.87695 12.4037C3.87695 12.7603 4.10761 13 4.57616 13ZM11.9975 13.2033C13.4828 13.2033 14.3166 11.9621 14.3166 10.4553C14.3166 9.16503 13.7152 7.93437 12.4445 7.93437C11.6658 7.93437 11.1035 8.46347 10.8912 9.26464L10.8557 9.26464C10.8557 9.20097 10.8557 9.13554 10.8557 9.07988C10.8557 7.96074 11.0082 6.23339 11.9727 6.23339C12.3832 6.23339 12.641 6.5248 12.8 6.8998C12.957 7.21132 13.1496 7.3498 13.4727 7.3498C13.8914 7.3498 14.0645 7.06503 14.0645 6.73046C14.0645 6.62304 14.0529 6.49706 14.0236 6.37363C13.8018 5.53378 12.9742 5.03632 12.017 5.03632C10.0291 5.03632 9.44668 7.22441 9.44668 9.19628C9.44668 11.0051 10.0221 13.2033 11.9975 13.2033ZM11.9744 12.0062C11.3158 12.0062 11.0377 11.1797 11.0377 10.4801C11.0377 9.78124 11.3398 9.04628 11.9744 9.04628C12.6232 9.04628 12.9031 9.80878 12.8854 10.5191C12.8854 11.2232 12.5912 12.0062 11.9744 12.0062Z" fill="white" fill-opacity="0.85"/>
 </g>
</svg>
