<?xml version="1.0" encoding="UTF-8"?>
<!--Generator: Apple Native CoreSVG 341-->
<!DOCTYPE svg
PUBLIC "-//W3C//DTD SVG 1.1//EN"
       "http://www.w3.org/Graphics/SVG/1.1/DTD/svg11.dtd">
<svg version="1.1" xmlns="http://www.w3.org/2000/svg" xmlns:xlink="http://www.w3.org/1999/xlink" viewBox="0 0 18.5894 18.2316">
 <g>
  <rect height="18.2316" opacity="0" width="18.5894" x="0" y="0"/>
  <path d="M18.2281 3.17148L18.2281 15.0646C18.2281 17.1502 17.1404 18.2281 15.0246 18.2281L3.20351 18.2281C1.0957 18.2281 0 17.1502 0 15.0646L0 3.17148C0 1.08769 1.0957 0 3.20351 0L15.0246 0C17.1404 0 18.2281 1.08769 18.2281 3.17148ZM10.3883 5.07031C10.0103 5.07031 9.76894 5.34179 9.76894 5.7039C9.76894 6.06679 10.0139 6.33476 10.3883 6.33476L12.8311 6.33476L12.8311 6.42792L10.7144 12.0113C10.6203 12.2377 10.5777 12.3787 10.5777 12.6264C10.5777 12.9387 10.7818 13.2918 11.2955 13.2918C11.6947 13.2918 11.873 13.133 12.0098 12.7549L14.2203 6.77323C14.333 6.45019 14.4076 6.19374 14.4076 5.87968C14.4076 5.3996 14.042 5.07031 13.5682 5.07031ZM4.1916 6.95703C4.1916 7.35898 4.41874 7.64198 4.83749 7.64198C5.18007 7.64198 5.408 7.4787 5.52245 7.11855C5.70194 6.50097 5.91874 6.10038 6.46601 6.10038C7.03007 6.10038 7.3332 6.60487 7.3332 7.27206C7.3332 8.06328 6.78261 8.86074 6.24121 9.56015L4.58281 11.6689C4.35859 11.9605 4.18535 12.218 4.18535 12.5322C4.18535 12.9039 4.42128 13.1551 4.91288 13.1551L8.35273 13.1551C8.7412 13.1551 8.95429 12.8926 8.95429 12.5357C8.95429 12.1416 8.7332 11.9049 8.35273 11.9049L6.07265 11.9049L6.07265 11.8187L7.46542 10.0687C8.4291 8.88027 8.80331 8.13632 8.80331 7.20546C8.80331 5.82167 7.858 4.86171 6.46601 4.86171C5.18222 4.86171 4.1916 5.89804 4.1916 6.95703Z" fill="white" fill-opacity="0.85"/>
 </g>
</svg>
