<?xml version="1.0" encoding="UTF-8"?>
<!--Generator: Apple Native CoreSVG 341-->
<!DOCTYPE svg
PUBLIC "-//W3C//DTD SVG 1.1//EN"
       "http://www.w3.org/Graphics/SVG/1.1/DTD/svg11.dtd">
<svg version="1.1" xmlns="http://www.w3.org/2000/svg" xmlns:xlink="http://www.w3.org/1999/xlink" viewBox="0 0 18.5894 18.2316">
 <g>
  <rect height="18.2316" opacity="0" width="18.5894" x="0" y="0"/>
  <path d="M3.20351 18.2281L15.0246 18.2281C17.1404 18.2281 18.2281 17.1502 18.2281 15.0646L18.2281 3.17148C18.2281 1.08769 17.1404 0 15.0246 0L3.20351 0C1.0957 0 0 1.08769 0 3.17148L0 15.0646C0 17.1502 1.0957 18.2281 3.20351 18.2281ZM3.31444 16.3148C2.40643 16.3148 1.91327 15.8465 1.91327 14.8977L1.91327 3.34023C1.91327 2.39139 2.40643 1.91503 3.31444 1.91503L14.9137 1.91503C15.8137 1.91503 16.3148 2.39139 16.3148 3.34023L16.3148 14.8977C16.3148 15.8465 15.8137 16.3148 14.9137 16.3148Z" fill="white" fill-opacity="0.85"/>
  <path d="M5.05839 13L8.36972 13C8.7414 13 8.94472 12.7525 8.94472 12.4055C8.94472 12.0344 8.73339 11.8029 8.36972 11.8029L6.16679 11.8029L6.16679 11.7248L7.51347 10.0324C8.44433 8.88652 8.80351 8.16913 8.80351 7.27636C8.80351 5.94394 7.89453 5.0203 6.55214 5.0203C5.3162 5.0203 4.36367 6.02031 4.36367 7.03769C4.36367 7.41835 4.58906 7.68984 4.983 7.68984C5.31405 7.68984 5.5287 7.53632 5.6414 7.18945C5.81112 6.59316 6.02616 6.20409 6.55214 6.20409C7.10293 6.20409 7.39804 6.69706 7.39804 7.3412C7.39804 8.10136 6.86875 8.86425 6.34238 9.5371L4.74159 11.5785C4.53066 11.8551 4.35742 12.101 4.35742 12.4037C4.35742 12.7603 4.58984 13 5.05839 13ZM11.192 13.135C11.5762 13.135 11.751 12.9797 11.8797 12.6211L14.0078 6.85214C14.1187 6.54237 14.1951 6.29921 14.1951 6.00019C14.1951 5.53339 13.841 5.22363 13.384 5.22363L10.3211 5.22363C9.96445 5.22363 9.72832 5.48359 9.72832 5.82616C9.72832 6.17401 9.96972 6.4287 10.3211 6.4287L12.6832 6.4287L12.6832 6.52011L10.6375 11.9059C10.5514 12.1207 10.5105 12.26 10.5105 12.4979C10.5105 12.7951 10.7014 13.135 11.192 13.135Z" fill="white" fill-opacity="0.85"/>
 </g>
</svg>
