<?xml version="1.0" encoding="UTF-8"?>
<!--Generator: Apple Native CoreSVG 341-->
<!DOCTYPE svg
PUBLIC "-//W3C//DTD SVG 1.1//EN"
       "http://www.w3.org/Graphics/SVG/1.1/DTD/svg11.dtd">
<svg version="1.1" xmlns="http://www.w3.org/2000/svg" xmlns:xlink="http://www.w3.org/1999/xlink" viewBox="0 0 20.5381 20.1848">
 <g>
  <rect height="20.1848" opacity="0" width="20.5381" x="0" y="0"/>
  <path d="M10.0875 20.175C15.6576 20.175 20.1767 15.6559 20.1767 10.0875C20.1767 4.51914 15.6576 0 10.0875 0C4.51914 0 0 4.51914 0 10.0875C0 15.6559 4.51914 20.175 10.0875 20.175ZM10.0875 18.1879C5.60839 18.1879 1.9871 14.5666 1.9871 10.0875C1.9871 5.60839 5.60839 1.9871 10.0875 1.9871C14.5666 1.9871 18.1897 5.60839 18.1897 10.0875C18.1897 14.5666 14.5666 18.1879 10.0875 18.1879Z" fill="white" fill-opacity="0.85"/>
  <path d="M5.50839 13.9766L8.81972 13.9766C9.19316 13.9766 9.40273 13.7291 9.40273 13.382C9.40273 13.0109 9.18339 12.7795 8.81972 12.7795L6.62655 12.7795L6.62655 12.7014L7.96523 11.009C8.90234 9.86308 9.25351 9.14569 9.25351 8.25292C9.25351 6.9205 8.35253 5.99687 7.01015 5.99687C5.77597 5.99687 4.82343 6.99687 4.82343 8.01425C4.82343 8.39491 5.04081 8.6664 5.433 8.6664C5.77206 8.6664 5.98671 8.51288 6.0914 8.16601C6.26112 7.56972 6.48593 7.18065 7.00214 7.18065C7.55468 7.18065 7.84804 7.67362 7.84804 8.31777C7.84804 9.07792 7.3205 9.84082 6.79414 10.5137L5.1996 12.5551C4.98066 12.8316 4.80917 13.0775 4.80917 13.3803C4.80917 13.7369 5.03984 13.9766 5.50839 13.9766ZM12.8676 14.1559C14.3834 14.1559 15.3926 13.2312 15.3926 11.8793C15.3926 10.8447 14.7406 10.0732 13.9568 9.89746L13.9568 9.8664C14.6199 9.65957 15.1768 9.0248 15.1768 8.12519C15.1768 6.87421 14.234 6.03066 12.8676 6.03066C11.6566 6.03066 10.5779 6.75878 10.5779 8.11718C10.5779 9.09218 11.1826 9.67285 11.8059 9.8664L11.8059 9.89746C10.9846 10.0777 10.3586 10.8492 10.3586 11.8775C10.3586 13.3035 11.4418 14.1559 12.8676 14.1559ZM12.8676 9.40312C12.3139 9.40312 12.0197 8.8416 12.0197 8.27245C12.0197 7.66327 12.3219 7.11952 12.8676 7.11952C13.4426 7.11952 13.7287 7.66327 13.7287 8.27245C13.7287 8.89941 13.4346 9.40312 12.8676 9.40312ZM12.8676 13.0572C12.2348 13.0572 11.9131 12.4664 11.9131 11.7648C11.9131 11.0828 12.2348 10.5 12.8676 10.5C13.4941 10.5 13.8416 11.0508 13.8416 11.7648C13.8416 12.4664 13.5182 13.0572 12.8676 13.0572Z" fill="white" fill-opacity="0.85"/>
 </g>
</svg>
