<?xml version="1.0" encoding="UTF-8"?>
<!--Generator: Apple Native CoreSVG 341-->
<!DOCTYPE svg
PUBLIC "-//W3C//DTD SVG 1.1//EN"
       "http://www.w3.org/Graphics/SVG/1.1/DTD/svg11.dtd">
<svg version="1.1" xmlns="http://www.w3.org/2000/svg" xmlns:xlink="http://www.w3.org/1999/xlink" viewBox="0 0 18.5894 18.2316">
 <g>
  <rect height="18.2316" opacity="0" width="18.5894" x="0" y="0"/>
  <path d="M18.2281 3.17148L18.2281 15.0646C18.2281 17.1502 17.1404 18.2281 15.0246 18.2281L3.20351 18.2281C1.0957 18.2281 0 17.1502 0 15.0646L0 3.17148C0 1.08769 1.0957 0 3.20351 0L15.0246 0C17.1404 0 18.2281 1.08769 18.2281 3.17148ZM9.658 7.06621C9.658 8.07929 10.2875 8.683 10.9338 8.88007L10.9338 8.91113C10.0797 9.10117 9.4289 9.89921 9.4289 10.9736C9.4289 12.4555 10.56 13.3379 12.0371 13.3379C13.6123 13.3379 14.6676 12.3787 14.6676 10.9754C14.6676 9.89472 13.9943 9.09667 13.1725 8.91113L13.1725 8.88007C13.8621 8.66796 14.442 8.00839 14.442 7.07597C14.442 5.77363 13.4629 4.8955 12.0371 4.8955C10.7846 4.8955 9.658 5.65195 9.658 7.06621ZM3.66777 6.95351C3.66777 7.35722 3.90468 7.64198 4.31191 7.64198C4.66601 7.64198 4.88593 7.47695 5.00038 7.11679C5.17011 6.49921 5.40292 6.10038 5.94218 6.10038C6.508 6.10038 6.80937 6.60487 6.80937 7.27206C6.80937 8.06328 6.26679 8.86074 5.71738 9.55214L4.06699 11.6689C3.83476 11.9605 3.66152 12.21 3.66152 12.5322C3.66152 12.9039 3.89745 13.1551 4.39081 13.1551L7.83066 13.1551C8.21738 13.1551 8.44023 12.8926 8.44023 12.5357C8.44023 12.1398 8.20937 11.8969 7.83066 11.8969L5.55858 11.8969L5.55858 11.8187L6.95136 10.0687C7.91328 8.88027 8.28925 8.13632 8.28925 7.2037C8.28925 5.82167 7.34218 4.86171 5.95019 4.86171C4.66464 4.86171 3.66777 5.89804 3.66777 6.95351ZM13.0404 10.8494C13.0404 11.5838 12.7072 12.1879 12.0451 12.1879C11.383 12.1879 11.0516 11.5838 11.0516 10.8494C11.0516 10.1426 11.383 9.54648 12.0451 9.54648C12.6912 9.54648 13.0404 10.1105 13.0404 10.8494ZM12.9275 7.22499C12.9275 7.87499 12.6236 8.39824 12.0451 8.39824C11.4621 8.39824 11.1644 7.81718 11.1644 7.22499C11.1644 6.59277 11.4781 6.03573 12.0451 6.03573C12.6316 6.03573 12.9275 6.59277 12.9275 7.22499Z" fill="white" fill-opacity="0.85"/>
 </g>
</svg>
