<?xml version="1.0" encoding="UTF-8"?>
<!--Generator: Apple Native CoreSVG 341-->
<!DOCTYPE svg
PUBLIC "-//W3C//DTD SVG 1.1//EN"
       "http://www.w3.org/Graphics/SVG/1.1/DTD/svg11.dtd">
<svg version="1.1" xmlns="http://www.w3.org/2000/svg" xmlns:xlink="http://www.w3.org/1999/xlink" viewBox="0 0 18.5894 18.2316">
 <g>
  <rect height="18.2316" opacity="0" width="18.5894" x="0" y="0"/>
  <path d="M3.20351 18.2281L15.0246 18.2281C17.1404 18.2281 18.2281 17.1502 18.2281 15.0646L18.2281 3.17148C18.2281 1.08769 17.1404 0 15.0246 0L3.20351 0C1.0957 0 0 1.08769 0 3.17148L0 15.0646C0 17.1502 1.0957 18.2281 3.20351 18.2281ZM3.31444 16.3148C2.40643 16.3148 1.91327 15.8465 1.91327 14.8977L1.91327 3.34023C1.91327 2.39139 2.40643 1.91503 3.31444 1.91503L14.9137 1.91503C15.8137 1.91503 16.3148 2.39139 16.3148 3.34023L16.3148 14.8977C16.3148 15.8465 15.8137 16.3148 14.9137 16.3148Z" fill="white" fill-opacity="0.85"/>
  <path d="M4.54784 13L7.85917 13C8.23085 13 8.44218 12.7525 8.44218 12.4055C8.44218 12.0344 8.22285 11.8029 7.85917 11.8029L5.66601 11.8029L5.66601 11.7248L7.01269 10.0324C7.94179 8.88652 8.30097 8.16913 8.30097 7.27636C8.30097 5.94394 7.39199 5.0203 6.0496 5.0203C4.81367 5.0203 3.86288 6.02031 3.86288 7.03769C3.86288 7.41835 4.07851 7.68984 4.48046 7.68984C4.81152 7.68984 5.02616 7.53632 5.13085 7.18945C5.30058 6.59316 5.52538 6.20409 6.0416 6.20409C6.59414 6.20409 6.8875 6.69706 6.8875 7.3412C6.8875 8.10136 6.36796 8.86425 5.83359 9.5371L4.23905 11.5785C4.02011 11.8551 3.85663 12.101 3.85663 12.4037C3.85663 12.7603 4.07929 13 4.54784 13ZM11.907 13.1793C13.4228 13.1793 14.432 12.2547 14.432 10.9027C14.432 9.86816 13.7881 9.09667 12.9963 8.92089L12.9963 8.88984C13.6594 8.683 14.2162 8.04824 14.2162 7.14863C14.2162 5.89765 13.2734 5.05409 11.907 5.05409C10.7041 5.05409 9.61738 5.78222 9.61738 7.14062C9.61738 8.11562 10.2221 8.69628 10.8436 8.88984L10.8436 8.92089C10.024 9.10117 9.39804 9.87265 9.39804 10.901C9.39804 12.3269 10.4812 13.1793 11.907 13.1793ZM11.915 8.42656C11.3533 8.42656 11.0574 7.86503 11.0574 7.29589C11.0574 6.68671 11.3693 6.14296 11.915 6.14296C12.482 6.14296 12.7682 6.68671 12.7682 7.29589C12.7682 7.92285 12.474 8.42656 11.915 8.42656ZM11.915 12.0807C11.2742 12.0807 10.9525 11.4898 10.9525 10.7883C10.9525 10.1062 11.2742 9.52343 11.915 9.52343C12.5416 9.52343 12.8811 10.0742 12.8811 10.7883C12.8811 11.4898 12.5576 12.0807 11.915 12.0807Z" fill="white" fill-opacity="0.85"/>
 </g>
</svg>
