<?xml version="1.0" encoding="UTF-8"?>
<!--Generator: Apple Native CoreSVG 341-->
<!DOCTYPE svg
PUBLIC "-//W3C//DTD SVG 1.1//EN"
       "http://www.w3.org/Graphics/SVG/1.1/DTD/svg11.dtd">
<svg version="1.1" xmlns="http://www.w3.org/2000/svg" xmlns:xlink="http://www.w3.org/1999/xlink" viewBox="0 0 20.5381 20.1848">
 <g>
  <rect height="20.1848" opacity="0" width="20.5381" x="0" y="0"/>
  <path d="M20.1767 10.0875C20.1767 15.6478 15.6576 20.175 10.0875 20.175C4.52715 20.175 0 15.6478 0 10.0875C0 4.51914 4.52715 0 10.0875 0C15.6576 0 20.1767 4.51914 20.1767 10.0875ZM10.4693 8.71132C10.4693 10.0477 11.0937 11.3279 12.4025 11.3279C13.2256 11.3279 13.8109 10.7758 14.025 9.9498L14.0605 9.9498C14.0605 10.017 14.0605 10.0842 14.0605 10.1416C14.0605 11.3041 13.9027 13.082 12.9027 13.082C12.4939 13.082 12.2246 12.8047 12.0443 12.3961C11.8971 12.0535 11.6814 11.9195 11.3629 11.9195C10.9096 11.9195 10.7187 12.2256 10.7187 12.5752C10.7187 12.6889 10.7463 12.8264 10.7756 12.9435C11.001 13.8277 11.8711 14.3322 12.8646 14.3322C14.9269 14.3322 15.5324 12.0822 15.5324 10.0199C15.5324 8.14023 14.9357 5.85429 12.8842 5.85429C11.3457 5.85429 10.4693 7.14511 10.4693 8.71132ZM4.71992 7.93007C4.71992 8.33378 4.93906 8.61054 5.35605 8.61054C5.70038 8.61054 5.93456 8.45351 6.04276 8.09335C6.22226 7.47577 6.4373 7.07519 6.98456 7.07519C7.55839 7.07519 7.86152 7.58144 7.86152 8.24863C7.86152 9.03984 7.31093 9.8373 6.75976 10.5287L5.11113 12.6455C4.87714 12.9273 4.70566 13.1865 4.70566 13.5088C4.70566 13.8805 4.93984 14.1316 5.43144 14.1316L8.8748 14.1316C9.26152 14.1316 9.48261 13.8691 9.48261 13.5123C9.48261 13.1164 9.25351 12.8734 8.8748 12.8734L6.59296 12.8734L6.59296 12.7936L7.98398 11.0453C8.95742 9.85683 9.33163 9.11288 9.33163 8.18027C9.33163 6.79824 8.38456 5.83827 6.98632 5.83827C5.70878 5.83827 4.71992 6.87285 4.71992 7.93007ZM13.8768 8.64999C13.8768 9.41367 13.5613 10.1619 12.909 10.1619C12.2389 10.1619 11.959 9.38789 11.959 8.64296C11.959 7.89804 12.2709 7.10976 12.909 7.10976C13.5853 7.10976 13.8768 7.8998 13.8768 8.64999Z" fill="white" fill-opacity="0.85"/>
 </g>
</svg>
