<?xml version="1.0" encoding="UTF-8"?>
<!--Generator: Apple Native CoreSVG 341-->
<!DOCTYPE svg
PUBLIC "-//W3C//DTD SVG 1.1//EN"
       "http://www.w3.org/Graphics/SVG/1.1/DTD/svg11.dtd">
<svg version="1.1" xmlns="http://www.w3.org/2000/svg" xmlns:xlink="http://www.w3.org/1999/xlink" viewBox="0 0 18.5894 18.2316">
 <g>
  <rect height="18.2316" opacity="0" width="18.5894" x="0" y="0"/>
  <path d="M3.20351 18.2281L15.0246 18.2281C17.1404 18.2281 18.2281 17.1502 18.2281 15.0646L18.2281 3.17148C18.2281 1.08769 17.1404 0 15.0246 0L3.20351 0C1.0957 0 0 1.08769 0 3.17148L0 15.0646C0 17.1502 1.0957 18.2281 3.20351 18.2281ZM3.31444 16.3148C2.40643 16.3148 1.91327 15.8465 1.91327 14.8977L1.91327 3.34023C1.91327 2.39139 2.40643 1.91503 3.31444 1.91503L14.9137 1.91503C15.8137 1.91503 16.3148 2.39139 16.3148 3.34023L16.3148 14.8977C16.3148 15.8465 15.8137 16.3148 14.9137 16.3148Z" fill="white" fill-opacity="0.85"/>
  <path d="M4.64101 13L7.95234 13C8.32577 13 8.53535 12.7525 8.53535 12.4055C8.53535 12.0344 8.31777 11.8029 7.95234 11.8029L5.75917 11.8029L5.75917 11.7248L7.09784 10.0324C8.03496 8.88652 8.38788 8.16913 8.38788 7.27636C8.38788 5.94394 7.48515 5.0203 6.14277 5.0203C4.90859 5.0203 3.95605 6.02031 3.95605 7.03769C3.95605 7.41835 4.17343 7.68984 4.56562 7.68984C4.90468 7.68984 5.12108 7.53632 5.22401 7.18945C5.39374 6.59316 5.61855 6.20409 6.13476 6.20409C6.6873 6.20409 6.98066 6.69706 6.98066 7.3412C6.98066 8.10136 6.45312 8.86425 5.92675 9.5371L4.33222 11.5785C4.11327 11.8551 3.94179 12.101 3.94179 12.4037C3.94179 12.7603 4.17245 13 4.64101 13ZM11.3596 10.3053C12.14 10.3053 12.7023 9.77617 12.9146 8.97499L12.9502 8.97499C12.9502 9.03867 12.9502 9.10409 12.9502 9.15976C12.9502 10.2789 12.7977 12 11.8252 12C11.4279 12 11.1684 11.7324 10.9961 11.3353C10.8506 11.0061 10.6482 10.8756 10.3412 10.8756C9.90644 10.8756 9.72539 11.1666 9.72539 11.5012C9.72539 11.6166 9.75293 11.7426 9.78222 11.8598C9.99433 12.7059 10.8299 13.1971 11.7889 13.1971C13.783 13.1971 14.3574 11.0312 14.3574 9.04335C14.3574 7.23456 13.7838 5.03632 11.8084 5.03632C10.3293 5.03632 9.48925 6.27753 9.48925 7.78437C9.48925 9.0746 10.0906 10.3053 11.3596 10.3053ZM11.8314 9.18886C11.1826 9.18886 10.9107 8.43613 10.9107 7.72402C10.9107 7.00566 11.2146 6.2289 11.8314 6.2289C12.49 6.2289 12.7682 7.00742 12.7682 7.73105C12.7682 8.46191 12.4643 9.18886 11.8314 9.18886Z" fill="white" fill-opacity="0.85"/>
 </g>
</svg>
