<?xml version="1.0" encoding="UTF-8"?>
<!--Generator: Apple Native CoreSVG 341-->
<!DOCTYPE svg
PUBLIC "-//W3C//DTD SVG 1.1//EN"
       "http://www.w3.org/Graphics/SVG/1.1/DTD/svg11.dtd">
<svg version="1.1" xmlns="http://www.w3.org/2000/svg" xmlns:xlink="http://www.w3.org/1999/xlink" viewBox="0 0 20.5381 20.1848">
 <g>
  <rect height="20.1848" opacity="0" width="20.5381" x="0" y="0"/>
  <path d="M10.0875 20.175C15.6576 20.175 20.1767 15.6559 20.1767 10.0875C20.1767 4.51914 15.6576 0 10.0875 0C4.51914 0 0 4.51914 0 10.0875C0 15.6559 4.51914 20.175 10.0875 20.175ZM10.0875 18.1879C5.60839 18.1879 1.9871 14.5666 1.9871 10.0875C1.9871 5.60839 5.60839 1.9871 10.0875 1.9871C14.5666 1.9871 18.1897 5.60839 18.1897 10.0875C18.1897 14.5666 14.5666 18.1879 10.0875 18.1879Z" fill="white" fill-opacity="0.85"/>
  <path d="M5.18573 13.9766L8.49706 13.9766C8.87851 13.9766 9.08007 13.7291 9.08007 13.382C9.08007 13.0109 8.8705 12.7795 8.49706 12.7795L6.30389 12.7795L6.30389 12.7014L7.65058 11.009C8.57968 9.86308 8.94062 9.14569 8.94062 8.25292C8.94062 6.9205 8.02988 5.99687 6.68925 5.99687C5.45331 5.99687 4.50077 6.99687 4.50077 8.01425C4.50077 8.39491 4.72616 8.6664 5.11835 8.6664C5.45116 8.6664 5.66581 8.51288 5.7705 8.16601C5.94022 7.56972 6.16327 7.18065 6.68124 7.18065C7.24003 7.18065 7.52539 7.67362 7.52539 8.31777C7.52539 9.07792 7.00585 9.84082 6.47949 10.5137L4.87694 12.5551C4.658 12.8316 4.49452 13.0775 4.49452 13.3803C4.49452 13.7369 4.72519 13.9766 5.18573 13.9766ZM10.9926 14.1035C11.4033 14.1035 11.7459 13.7672 11.7459 13.3387L11.7459 10.65L13.9488 10.65L13.9488 13.3387C13.9488 13.7672 14.2852 14.1035 14.7057 14.1035C15.1164 14.1035 15.451 13.7672 15.451 13.3387L15.451 6.81855C15.451 6.3998 15.1164 6.06523 14.7057 6.06523C14.2852 6.06523 13.9488 6.3998 13.9488 6.81855L13.9488 9.40058L11.7459 9.40058L11.7459 6.81855C11.7459 6.3998 11.4033 6.06523 10.9926 6.06523C10.5721 6.06523 10.2375 6.3998 10.2375 6.81855L10.2375 13.3387C10.2375 13.7672 10.5721 14.1035 10.9926 14.1035Z" fill="white" fill-opacity="0.85"/>
 </g>
</svg>
