<?xml version="1.0" encoding="UTF-8"?>
<!--Generator: Apple Native CoreSVG 341-->
<!DOCTYPE svg
PUBLIC "-//W3C//DTD SVG 1.1//EN"
       "http://www.w3.org/Graphics/SVG/1.1/DTD/svg11.dtd">
<svg version="1.1" xmlns="http://www.w3.org/2000/svg" xmlns:xlink="http://www.w3.org/1999/xlink" viewBox="0 0 20.1969 18.2476">
 <g>
  <rect height="18.2476" opacity="0" width="20.1969" x="0" y="0"/>
  <path d="M3.20351 18.2476L16.64 18.2476C18.7478 18.2476 19.8355 17.16 19.8355 15.0762L19.8355 3.19101C19.8355 1.10547 18.7478 0.0195312 16.64 0.0195312L3.20351 0.0195312C1.0957 0.0195312 0 1.09746 0 3.19101L0 15.0762C0 17.168 1.0957 18.2476 3.20351 18.2476ZM3.17655 16.3344C2.35663 16.3344 1.91327 15.9141 1.91327 15.0551L1.91327 6.03241C1.91327 5.18144 2.35663 4.75487 3.17655 4.75487L16.651 4.75487C17.4709 4.75487 17.9223 5.18144 17.9223 6.03241L17.9223 15.0551C17.9223 15.9141 17.4709 16.3344 16.651 16.3344Z" fill="white" fill-opacity="0.85"/>
  <path d="M9.97675 14.8023C11.9508 14.8023 13.1668 13.798 13.1668 12.3768C13.1668 11.3361 12.3853 10.5006 11.3215 10.4082L11.3215 10.3275C12.2068 10.1961 12.9029 9.3871 12.9029 8.483C12.9029 7.21445 11.726 6.32656 10.0408 6.32656C8.55312 6.32656 7.43456 6.98378 7.18085 8.01836C7.14628 8.15234 7.13125 8.2623 7.13125 8.39804C7.13125 8.8121 7.42382 9.07636 7.85722 9.07636C8.19433 9.07636 8.41249 8.92812 8.54354 8.60683C8.75389 7.99979 9.27284 7.62557 10.015 7.62557C10.8266 7.62557 11.3172 8.01581 11.3172 8.66386C11.3172 9.32871 10.7607 9.81406 9.98398 9.81406L9.50897 9.81406C9.10761 9.81406 8.82831 10.0668 8.82831 10.4551C8.82831 10.8256 9.11112 11.0898 9.50897 11.0898L10.0258 11.0898C10.9447 11.0898 11.559 11.5762 11.559 12.3033C11.559 13.0154 10.943 13.4893 10.0113 13.4893C9.13143 13.4893 8.6285 13.0688 8.40838 12.508C8.25331 12.1725 8.04139 12.0305 7.70429 12.0305C7.27265 12.0305 6.98007 12.3107 6.98007 12.7248C6.98007 12.8686 6.99335 12.9625 7.02968 13.0965C7.30566 14.1053 8.50488 14.8023 9.97675 14.8023Z" fill="white" fill-opacity="0.85"/>
 </g>
</svg>
