<?xml version="1.0" encoding="UTF-8"?>
<!--Generator: Apple Native CoreSVG 341-->
<!DOCTYPE svg
PUBLIC "-//W3C//DTD SVG 1.1//EN"
       "http://www.w3.org/Graphics/SVG/1.1/DTD/svg11.dtd">
<svg version="1.1" xmlns="http://www.w3.org/2000/svg" xmlns:xlink="http://www.w3.org/1999/xlink" viewBox="0 0 20.5381 20.1848">
 <g>
  <rect height="20.1848" opacity="0" width="20.5381" x="0" y="0"/>
  <path d="M20.1767 10.0875C20.1767 15.6478 15.6576 20.175 10.0875 20.175C4.52715 20.175 0 15.6478 0 10.0875C0 4.51914 4.52715 0 10.0875 0C15.6576 0 20.1767 4.51914 20.1767 10.0875ZM6.94668 7.2C6.91035 7.35527 6.89531 7.48203 6.89531 7.63906C6.89531 8.108 7.22773 8.42011 7.72128 8.42011C8.11249 8.42011 8.36073 8.24081 8.51835 7.87519C8.7535 7.19179 9.32929 6.77225 10.1719 6.77225C11.074 6.77225 11.6393 7.21581 11.6393 7.93847C11.6393 8.68593 11.01 9.22637 10.1408 9.22637L9.60624 9.22637C9.13847 9.22637 8.82558 9.51718 8.82558 9.96835C8.82558 10.3955 9.14199 10.6978 9.60624 10.6978L10.1809 10.6978C11.2135 10.6978 11.9068 11.2455 11.9068 12.0553C11.9068 12.8563 11.2037 13.3754 10.1619 13.3754C9.17186 13.3754 8.60858 12.9078 8.35741 12.2725C8.18554 11.9104 7.94355 11.7373 7.55859 11.7373C7.05879 11.7373 6.7166 12.0557 6.7166 12.5326C6.7166 12.6932 6.7414 12.8004 6.77773 12.9557C7.0998 14.1019 8.44707 14.8842 10.1256 14.8842C12.3691 14.8842 13.7545 13.7619 13.7545 12.142C13.7545 10.9639 12.8683 10.0201 11.6652 9.90996L11.6652 9.81601C12.6668 9.67304 13.4498 8.75761 13.4498 7.73105C13.4498 6.29492 12.115 5.29082 10.1994 5.29082C8.50781 5.29082 7.24648 6.03144 6.94668 7.2Z" fill="white" fill-opacity="0.85"/>
 </g>
</svg>
