<?xml version="1.0" encoding="UTF-8"?>
<!--Generator: Apple Native CoreSVG 341-->
<!DOCTYPE svg
PUBLIC "-//W3C//DTD SVG 1.1//EN"
       "http://www.w3.org/Graphics/SVG/1.1/DTD/svg11.dtd">
<svg version="1.1" xmlns="http://www.w3.org/2000/svg" xmlns:xlink="http://www.w3.org/1999/xlink" viewBox="0 0 18.5894 15.2672">
 <g>
  <rect height="15.2672" opacity="0" width="18.5894" x="0" y="0"/>
  <path d="M0 14.3074C0 14.832 0.428903 15.2672 0.953509 15.2672C1.48436 15.2672 1.91327 14.832 1.91327 14.3074L1.91327 1.01171C1.91327 0.487105 1.48436 0.0582016 0.953509 0.0582016C0.428903 0.0582016 0 0.487105 0 1.01171ZM16.3148 14.3074C16.3148 14.832 16.7518 15.2672 17.2746 15.2672C17.7992 15.2672 18.2281 14.832 18.2281 14.3074L18.2281 1.01171C18.2281 0.487105 17.7992 0.0582016 17.2746 0.0582016C16.7518 0.0582016 16.3148 0.487105 16.3148 1.01171Z" fill="white" fill-opacity="0.85"/>
  <path d="M9.07285 12.2014C10.7072 12.2014 12.0439 11.2752 12.0439 9.69062C12.0439 8.4246 11.1943 7.77362 10.2051 7.67597L10.2051 7.65116C11.1492 7.43183 11.751 6.65917 11.751 5.68983C11.751 4.25155 10.5719 3.43046 9.03378 3.43046C7.78476 3.43046 6.69472 4.1203 6.44882 5.11464C6.41777 5.24335 6.39824 5.38007 6.39824 5.51854C6.39824 5.90077 6.61093 6.19901 7.09902 6.19901C7.48945 6.19901 7.72792 6.04276 7.86366 5.6746C8.05995 5.05526 8.45097 4.74256 9.04355 4.74256C9.73476 4.74256 10.1631 5.19823 10.1631 5.88944C10.1631 6.6578 9.64062 7.11171 8.87226 7.11171L8.58417 7.11171C8.16738 7.11171 7.93476 7.35644 7.93476 7.71503C7.93476 8.10272 8.19648 8.31835 8.58417 8.31835L8.88027 8.31835C9.74277 8.31835 10.3496 8.68788 10.3496 9.61269C10.3496 10.3615 9.82988 10.8582 9.08261 10.8582C8.36288 10.8582 7.93905 10.493 7.74374 9.92792C7.59472 9.59081 7.32675 9.40175 6.99062 9.40175C6.5373 9.40175 6.24726 9.67499 6.24726 10.1283C6.24726 10.2808 6.27207 10.4236 6.31367 10.5629C6.62851 11.6728 7.89374 12.2014 9.07285 12.2014Z" fill="white" fill-opacity="0.85"/>
 </g>
</svg>
