<?xml version="1.0" encoding="UTF-8"?>
<!--Generator: Apple Native CoreSVG 341-->
<!DOCTYPE svg
PUBLIC "-//W3C//DTD SVG 1.1//EN"
       "http://www.w3.org/Graphics/SVG/1.1/DTD/svg11.dtd">
<svg version="1.1" xmlns="http://www.w3.org/2000/svg" xmlns:xlink="http://www.w3.org/1999/xlink" viewBox="0 0 18.5894 18.2316">
 <g>
  <rect height="18.2316" opacity="0" width="18.5894" x="0" y="0"/>
  <path d="M18.2281 3.17148L18.2281 15.0646C18.2281 17.1502 17.1404 18.2281 15.0246 18.2281L3.20351 18.2281C1.0957 18.2281 0 17.1502 0 15.0646L0 3.17148C0 1.08769 1.0957 0 3.20351 0L15.0246 0C17.1404 0 18.2281 1.08769 18.2281 3.17148ZM6.00722 6.22343C5.96113 6.37871 5.94785 6.50546 5.94785 6.6625C5.94785 7.13144 6.28027 7.44355 6.77382 7.44355C7.16327 7.44355 7.41151 7.26425 7.57714 6.89862C7.80429 6.21522 8.38983 5.79569 9.22441 5.79569C10.1266 5.79569 10.69 6.23925 10.69 6.96191C10.69 7.70937 10.0607 8.2498 9.1916 8.2498L8.65702 8.2498C8.19902 8.2498 7.87636 8.54062 7.87636 8.99179C7.87636 9.41894 8.20253 9.72128 8.65702 9.72128L9.23339 9.72128C10.2643 9.72128 10.9656 10.2689 10.9656 11.0787C10.9656 11.8797 10.2625 12.3988 9.2207 12.3988C8.2244 12.3988 7.66737 11.9313 7.40819 11.2959C7.24433 10.9338 6.99433 10.7607 6.60937 10.7607C6.10957 10.7607 5.77539 11.0791 5.77539 11.5561C5.77539 11.7166 5.79219 11.8238 5.83027 11.9791C6.15234 13.1254 7.4996 13.9076 9.18437 13.9076C11.4199 13.9076 12.8053 12.7853 12.8053 11.1654C12.8053 9.9873 11.9191 9.04355 10.716 8.93339L10.716 8.83945C11.7193 8.69648 12.5006 7.78105 12.5006 6.75449C12.5006 5.31835 11.1676 4.31425 9.25019 4.31425C7.56035 4.31425 6.29726 5.05488 6.00722 6.22343Z" fill="white" fill-opacity="0.85"/>
 </g>
</svg>
