<?xml version="1.0" encoding="UTF-8"?>
<!--Generator: Apple Native CoreSVG 341-->
<!DOCTYPE svg
PUBLIC "-//W3C//DTD SVG 1.1//EN"
       "http://www.w3.org/Graphics/SVG/1.1/DTD/svg11.dtd">
<svg version="1.1" xmlns="http://www.w3.org/2000/svg" xmlns:xlink="http://www.w3.org/1999/xlink" viewBox="0 0 20.5381 23.885">
 <g>
  <rect height="23.885" opacity="0" width="20.5381" x="0" y="0"/>
  <path d="M8.12539 0.722792L8.12539 5.34056C8.12539 6.06029 8.66894 6.24134 9.21308 5.85618L12.3723 3.58783C12.8029 3.27709 12.8109 2.79076 12.3723 2.47377L9.22109 0.203652C8.66894-0.191269 8.12539-0.00845663 8.12539 0.722792ZM10.0875 22.0251C15.6576 22.0251 20.1767 17.5042 20.1767 11.9376C20.1767 8.71986 18.6584 5.84759 16.2355 3.99427C15.725 3.56029 15.0734 3.66341 14.7519 4.10677C14.4146 4.58548 14.5609 5.14817 15.0176 5.54407C16.9437 7.01262 18.1897 9.31087 18.1897 11.9376C18.1897 16.4167 14.5666 20.038 10.0875 20.038C5.60839 20.038 1.9871 16.4167 1.9871 11.9376C1.9871 7.45853 5.60839 3.83724 10.0928 3.83724C10.6414 3.83724 11.0863 3.38431 11.0863 2.83568C11.0863 2.30131 10.6494 1.85815 10.1008 1.85014C4.51113 1.85815 0 6.36928 0 11.9376C0 17.5042 4.51914 22.0251 10.0875 22.0251Z" fill="white" fill-opacity="0.85"/>
  <path d="M6.99062 15.9537C8.42617 15.9537 9.59159 15.1429 9.59159 13.7492C9.59159 12.6314 8.84941 12.0648 7.97734 11.9787L7.97734 11.9538C8.80781 11.7638 9.33769 11.0951 9.33769 10.2384C9.33769 8.97591 8.30683 8.25424 6.95956 8.25424C5.8623 8.25424 4.91074 8.86595 4.69589 9.74135C4.66484 9.85052 4.64706 9.97572 4.64706 10.0947C4.64706 10.4326 4.8412 10.69 5.26093 10.69C5.60702 10.69 5.81269 10.5533 5.92714 10.2214C6.10565 9.68119 6.45136 9.40755 6.97109 9.40755C7.57793 9.40755 7.94316 9.80638 7.94316 10.4132C7.94316 11.091 7.49355 11.488 6.81132 11.488L6.56503 11.488C6.19433 11.488 6.00078 11.7062 6.00078 12.016C6.00078 12.3611 6.22167 12.5456 6.56503 12.5456L6.82734 12.5456C7.57793 12.5456 8.11015 12.8699 8.11015 13.6747C8.11015 14.3312 7.65703 14.771 6.99863 14.771C6.36952 14.771 6.00253 14.4511 5.82675 13.9492C5.68925 13.6626 5.4621 13.4966 5.16855 13.4966C4.76933 13.4966 4.51386 13.7371 4.51386 14.1283C4.51386 14.2595 4.53867 14.389 4.57675 14.5167C4.84902 15.482 5.96601 15.9537 6.99062 15.9537ZM13.2082 15.9537C15.1275 15.9537 15.8269 14.0277 15.8269 12.0853C15.8269 10.1527 15.1275 8.23021 13.2082 8.23021C11.2693 8.23021 10.5797 10.1642 10.5797 12.0853C10.5797 14.0322 11.2809 15.9537 13.2082 15.9537ZM13.2082 14.7675C12.4547 14.7675 12.0762 13.6507 12.0762 12.0853C12.0762 10.5314 12.4547 9.42435 13.2082 9.42435C13.952 9.42435 14.3322 10.5314 14.3322 12.0853C14.3322 13.6507 13.952 14.7675 13.2082 14.7675Z" fill="white" fill-opacity="0.85"/>
 </g>
</svg>
