<?xml version="1.0" encoding="UTF-8"?>
<!--Generator: Apple Native CoreSVG 341-->
<!DOCTYPE svg
PUBLIC "-//W3C//DTD SVG 1.1//EN"
       "http://www.w3.org/Graphics/SVG/1.1/DTD/svg11.dtd">
<svg version="1.1" xmlns="http://www.w3.org/2000/svg" xmlns:xlink="http://www.w3.org/1999/xlink" viewBox="0 0 20.5381 20.1848">
 <g>
  <rect height="20.1848" opacity="0" width="20.5381" x="0" y="0"/>
  <path d="M20.1767 10.0875C20.1767 15.6478 15.6576 20.175 10.0875 20.175C4.52715 20.175 0 15.6478 0 10.0875C0 4.51914 4.52715 0 10.0875 0C15.6576 0 20.1767 4.51914 20.1767 10.0875ZM10.5477 10.0795C10.5477 12.1002 11.1486 14.3305 13.1639 14.3305C15.1809 14.3305 15.7818 12.1002 15.7818 10.0795C15.7818 8.05878 15.1809 5.82851 13.1639 5.82851C11.1486 5.82851 10.5477 8.05878 10.5477 10.0795ZM4.68183 7.33691C4.62499 7.52695 4.60546 7.71249 4.60546 7.88203C4.60546 8.21308 4.82832 8.51288 5.26562 8.51288C5.62421 8.51288 5.85819 8.37792 5.95761 8.01855C6.10155 7.47382 6.39745 7.10448 6.92871 7.10448C7.54531 7.10448 7.82617 7.59999 7.82617 8.22011C7.82617 8.90683 7.4582 9.43867 6.73789 9.43867L6.53339 9.43867C6.15195 9.43867 5.9416 9.6623 5.9416 10.0021C5.9416 10.35 6.1582 10.5674 6.53339 10.5674L6.74765 10.5674C7.5666 10.5674 8.00019 11.0053 8.00019 11.8482C8.00019 12.4861 7.67226 13.0545 6.96425 13.0545C6.29862 13.0545 5.99921 12.6102 5.88026 12.1838C5.76405 11.8307 5.53339 11.6541 5.18827 11.6541C4.76152 11.6541 4.48203 11.9061 4.48203 12.3311C4.48203 12.5201 4.51132 12.6994 4.56191 12.8637C4.85312 13.7959 5.86699 14.3029 6.96777 14.3029C8.43242 14.3029 9.53691 13.3965 9.53691 11.9049C9.53691 10.6971 8.82011 10.0625 7.96523 9.97109L7.96523 9.93027C8.82871 9.70195 9.29628 8.91425 9.29628 8.05156C9.29628 6.65859 8.26191 5.86406 6.92343 5.86406C5.8873 5.86406 4.97304 6.43769 4.68183 7.33691ZM14.2035 10.0795C14.2035 11.8064 13.9156 13.0572 13.1639 13.0572C12.4201 13.0572 12.1322 11.8064 12.1322 10.0795C12.1322 8.34453 12.4201 7.09374 13.1639 7.09374C13.9156 7.09374 14.2035 8.34453 14.2035 10.0795Z" fill="white" fill-opacity="0.85"/>
 </g>
</svg>
