<?xml version="1.0" encoding="UTF-8"?>
<!--Generator: Apple Native CoreSVG 341-->
<!DOCTYPE svg
PUBLIC "-//W3C//DTD SVG 1.1//EN"
       "http://www.w3.org/Graphics/SVG/1.1/DTD/svg11.dtd">
<svg version="1.1" xmlns="http://www.w3.org/2000/svg" xmlns:xlink="http://www.w3.org/1999/xlink" viewBox="0 0 18.5894 18.2316">
 <g>
  <rect height="18.2316" opacity="0" width="18.5894" x="0" y="0"/>
  <path d="M3.20351 18.2281L15.0246 18.2281C17.1404 18.2281 18.2281 17.1502 18.2281 15.0646L18.2281 3.17148C18.2281 1.08769 17.1404 0 15.0246 0L3.20351 0C1.0957 0 0 1.08769 0 3.17148L0 15.0646C0 17.1502 1.0957 18.2281 3.20351 18.2281ZM3.31444 16.3148C2.40643 16.3148 1.91327 15.8465 1.91327 14.8977L1.91327 3.34023C1.91327 2.39139 2.40643 1.91503 3.31444 1.91503L14.9137 1.91503C15.8137 1.91503 16.3148 2.39139 16.3148 3.34023L16.3148 14.8977C16.3148 15.8465 15.8137 16.3148 14.9137 16.3148Z" fill="white" fill-opacity="0.85"/>
  <path d="M6.11972 13.1695C7.53124 13.1695 8.5914 12.2994 8.5914 10.8557C8.5914 9.69394 7.9039 9.08593 7.07909 8.99453L7.07909 8.95546C7.908 8.73691 8.36054 7.98202 8.36054 7.14941C8.36054 5.81406 7.3705 5.04609 6.07538 5.04609C5.08359 5.04609 4.20742 5.59667 3.92949 6.46757C3.87265 6.64609 3.85136 6.82187 3.85136 6.98964C3.85136 7.30742 4.06445 7.59394 4.48671 7.59394C4.82402 7.59394 5.05097 7.46073 5.14237 7.11288C5.28456 6.58944 5.56894 6.22538 6.08066 6.22538C6.67773 6.22538 6.95508 6.71562 6.95508 7.31269C6.95508 7.97812 6.59687 8.48691 5.8996 8.48691L5.69687 8.48691C5.33847 8.48691 5.12988 8.69902 5.12988 9.02558C5.12988 9.36191 5.34472 9.56601 5.69687 9.56601L5.91113 9.56601C6.69726 9.56601 7.11933 9.99238 7.11933 10.8025C7.11933 11.4289 6.80117 11.9742 6.1162 11.9742C5.47987 11.9742 5.18222 11.5379 5.06503 11.1248C4.95858 10.793 4.73944 10.6199 4.40937 10.6199C3.99765 10.6199 3.73144 10.8586 3.73144 11.2703C3.73144 11.4478 3.75898 11.6236 3.80781 11.7799C4.08749 12.6758 5.07304 13.1695 6.11972 13.1695ZM12.0846 13.1953C14.0191 13.1953 14.5953 11.0412 14.5953 9.10292C14.5953 7.16464 14.0191 5.00878 12.0846 5.00878C10.142 5.00878 9.56582 7.16464 9.56582 9.10292C9.56582 11.0412 10.142 13.1953 12.0846 13.1953ZM12.0846 11.9752C11.3541 11.9752 11.076 10.759 11.076 9.10292C11.076 7.4371 11.3541 6.22089 12.0846 6.22089C12.815 6.22089 13.0852 7.4371 13.0852 9.10292C13.0852 10.759 12.815 11.9752 12.0846 11.9752Z" fill="white" fill-opacity="0.85"/>
 </g>
</svg>
