<?xml version="1.0" encoding="UTF-8"?>
<!--Generator: Apple Native CoreSVG 341-->
<!DOCTYPE svg
PUBLIC "-//W3C//DTD SVG 1.1//EN"
       "http://www.w3.org/Graphics/SVG/1.1/DTD/svg11.dtd">
<svg version="1.1" xmlns="http://www.w3.org/2000/svg" xmlns:xlink="http://www.w3.org/1999/xlink" viewBox="0 0 20.1969 18.2476">
 <g>
  <rect height="18.2476" opacity="0" width="20.1969" x="0" y="0"/>
  <path d="M3.20351 18.2476L16.64 18.2476C18.7478 18.2476 19.8355 17.16 19.8355 15.0762L19.8355 3.19101C19.8355 1.10547 18.7478 0.0195312 16.64 0.0195312L3.20351 0.0195312C1.0957 0.0195312 0 1.09746 0 3.19101L0 15.0762C0 17.168 1.0957 18.2476 3.20351 18.2476ZM3.17655 16.3344C2.35663 16.3344 1.91327 15.9141 1.91327 15.0551L1.91327 6.03241C1.91327 5.18144 2.35663 4.75487 3.17655 4.75487L16.651 4.75487C17.4709 4.75487 17.9223 5.18144 17.9223 6.03241L17.9223 15.0551C17.9223 15.9141 17.4709 16.3344 16.651 16.3344Z" fill="white" fill-opacity="0.85"/>
  <path d="M7.6453 14.6311C9.04882 14.6311 10.117 13.7609 10.117 12.3172C10.117 11.1555 9.42323 10.5492 8.60468 10.4561L8.60468 10.417C9.43534 10.2002 9.88612 9.44355 9.88612 8.61093C9.88612 7.27558 8.89784 6.50761 7.60273 6.50761C6.61093 6.50761 5.733 7.05996 5.45507 7.9291C5.39823 8.10761 5.3787 8.27538 5.3787 8.45117C5.3787 8.76894 5.59179 9.05546 6.01229 9.05546C6.3496 9.05546 6.57831 8.92226 6.66972 8.57441C6.81015 8.05097 7.09628 7.68691 7.60624 7.68691C8.20331 7.68691 8.48242 8.1789 8.48242 8.77597C8.48242 9.43964 8.12421 9.94843 7.42694 9.94843L7.22421 9.94843C6.86581 9.94843 6.65722 10.1543 6.65722 10.4871C6.65722 10.8234 6.87206 11.0275 7.22421 11.0275L7.43671 11.0275C8.2246 11.0275 8.64667 11.4539 8.64667 12.2641C8.64667 12.8904 8.32851 13.4357 7.64355 13.4357C6.99745 13.4357 6.70956 13.0012 6.59237 12.5863C6.48593 12.2562 6.26679 12.0814 5.93495 12.0814C5.52323 12.0814 5.25702 12.3219 5.25702 12.7318C5.25702 12.9111 5.28632 13.0852 5.33515 13.2414C5.61484 14.1373 6.60038 14.6311 7.6453 14.6311ZM13.3402 14.5645C13.7475 14.5645 14.0873 14.2246 14.0873 13.7996L14.0873 7.39042C14.0873 6.84921 13.7555 6.54218 13.216 6.54218C12.7883 6.54218 12.4545 6.76152 12.2053 6.95488L11.1926 7.7455C10.9992 7.88652 10.8643 8.0871 10.8643 8.34804C10.8643 8.68241 11.0904 8.89198 11.3914 8.89198C11.5432 8.89198 11.6461 8.84316 11.7543 8.758L12.5771 8.10663L12.5771 13.7996C12.5771 14.2246 12.917 14.5645 13.3402 14.5645Z" fill="white" fill-opacity="0.85"/>
 </g>
</svg>
