<?xml version="1.0" encoding="UTF-8"?>
<!--Generator: Apple Native CoreSVG 341-->
<!DOCTYPE svg
PUBLIC "-//W3C//DTD SVG 1.1//EN"
       "http://www.w3.org/Graphics/SVG/1.1/DTD/svg11.dtd">
<svg version="1.1" xmlns="http://www.w3.org/2000/svg" xmlns:xlink="http://www.w3.org/1999/xlink" viewBox="0 0 20.5381 20.1848">
 <g>
  <rect height="20.1848" opacity="0" width="20.5381" x="0" y="0"/>
  <path d="M10.0875 20.175C15.6576 20.175 20.1767 15.6559 20.1767 10.0875C20.1767 4.51914 15.6576 0 10.0875 0C4.51914 0 0 4.51914 0 10.0875C0 15.6559 4.51914 20.175 10.0875 20.175ZM10.0875 18.1879C5.60839 18.1879 1.9871 14.5666 1.9871 10.0875C1.9871 5.60839 5.60839 1.9871 10.0875 1.9871C14.5666 1.9871 18.1897 5.60839 18.1897 10.0875C18.1897 14.5666 14.5666 18.1879 10.0875 18.1879Z" fill="white" fill-opacity="0.85"/>
  <path d="M7.17519 14.1541C8.5787 14.1541 9.64863 13.284 9.64863 11.8402C9.64863 10.6785 8.95312 10.0705 8.13456 9.9791L8.13456 9.94804C8.95722 9.72949 9.41777 8.96659 9.41777 8.13398C9.41777 6.79863 8.41972 6.03066 7.13261 6.03066C6.14081 6.03066 5.25488 6.58124 4.98671 7.45214C4.92812 7.63066 4.90859 7.80644 4.90859 7.97421C4.90859 8.29999 5.12167 8.57851 5.53417 8.57851C5.88124 8.57851 6.10019 8.45331 6.1996 8.09745C6.34179 7.57401 6.62616 7.21796 7.13788 7.21796C7.73496 7.21796 8.00429 7.70019 8.00429 8.29726C8.00429 8.96269 7.6541 9.47148 6.95683 9.47148L6.75409 9.47148C6.3957 9.47148 6.1871 9.68535 6.1871 10.0182C6.1871 10.3545 6.40195 10.5506 6.75409 10.5506L6.96835 10.5506C7.75449 10.5506 8.17656 10.985 8.17656 11.7871C8.17656 12.4135 7.85039 12.9668 7.17343 12.9668C6.52733 12.9668 6.23944 12.5305 6.11425 12.1094C6.01581 11.7793 5.78866 11.6045 5.45683 11.6045C5.05488 11.6045 4.78866 11.8529 4.78866 12.2549C4.78866 12.4342 4.8162 12.6082 4.86503 12.7644C5.14472 13.6603 6.12226 14.1541 7.17519 14.1541ZM13.0078 14.1541C14.4193 14.1541 15.4812 13.284 15.4812 11.8402C15.4812 10.6785 14.7937 10.0705 13.9672 9.9791L13.9672 9.94804C14.7978 9.72949 15.2504 8.96659 15.2504 8.13398C15.2504 6.79863 14.2603 6.03066 12.9652 6.03066C11.9734 6.03066 11.0955 6.58124 10.8193 7.45214C10.7687 7.63066 10.7412 7.80644 10.7412 7.97421C10.7412 8.29999 10.9543 8.57851 11.3748 8.57851C11.7139 8.57851 11.9408 8.45331 12.0402 8.09745C12.1744 7.57401 12.4588 7.21796 12.9705 7.21796C13.5676 7.21796 13.8449 7.70019 13.8449 8.29726C13.8449 8.96269 13.4867 9.47148 12.7894 9.47148L12.5867 9.47148C12.2363 9.47148 12.0197 9.68535 12.0197 10.0182C12.0197 10.3545 12.2346 10.5506 12.5867 10.5506L12.809 10.5506C13.5951 10.5506 14.0092 10.985 14.0092 11.7871C14.0092 12.4135 13.691 12.9668 13.0061 12.9668C12.368 12.9668 12.0721 12.5305 11.9549 12.1094C11.8484 11.7793 11.6293 11.6045 11.2975 11.6045C10.8955 11.6045 10.6213 11.8529 10.6213 12.2549C10.6213 12.4342 10.6488 12.6082 10.6977 12.7644C10.9773 13.6603 11.9629 14.1541 13.0078 14.1541Z" fill="white" fill-opacity="0.85"/>
 </g>
</svg>
