<?xml version="1.0" encoding="UTF-8"?>
<!--Generator: Apple Native CoreSVG 341-->
<!DOCTYPE svg
PUBLIC "-//W3C//DTD SVG 1.1//EN"
       "http://www.w3.org/Graphics/SVG/1.1/DTD/svg11.dtd">
<svg version="1.1" xmlns="http://www.w3.org/2000/svg" xmlns:xlink="http://www.w3.org/1999/xlink" viewBox="0 0 18.5894 18.2316">
 <g>
  <rect height="18.2316" opacity="0" width="18.5894" x="0" y="0"/>
  <path d="M3.20351 18.2281L15.0246 18.2281C17.1404 18.2281 18.2281 17.1502 18.2281 15.0646L18.2281 3.17148C18.2281 1.08769 17.1404 0 15.0246 0L3.20351 0C1.0957 0 0 1.08769 0 3.17148L0 15.0646C0 17.1502 1.0957 18.2281 3.20351 18.2281ZM3.31444 16.3148C2.40643 16.3148 1.91327 15.8465 1.91327 14.8977L1.91327 3.34023C1.91327 2.39139 2.40643 1.91503 3.31444 1.91503L14.9137 1.91503C15.8137 1.91503 16.3148 2.39139 16.3148 3.34023L16.3148 14.8977C16.3148 15.8465 15.8137 16.3148 14.9137 16.3148Z" fill="white" fill-opacity="0.85"/>
  <path d="M6.21464 13.1775C7.61816 13.1775 8.68632 12.3074 8.68632 10.8637C8.68632 9.70195 7.99257 9.09394 7.17402 9.00253L7.17402 8.97148C8.00468 8.75292 8.45722 7.99003 8.45722 7.15742C8.45722 5.82206 7.45917 5.05409 6.17206 5.05409C5.18027 5.05409 4.29433 5.60468 4.02441 6.47558C3.96757 6.6541 3.94804 6.82988 3.94804 6.99765C3.94804 7.32343 4.16113 7.60195 4.57362 7.60195C4.91894 7.60195 5.13964 7.47675 5.23905 7.12089C5.37948 6.59745 5.66562 6.2414 6.17558 6.2414C6.77265 6.2414 7.05175 6.72362 7.05175 7.3207C7.05175 7.98613 6.69355 8.49492 5.99628 8.49492L5.79355 8.49492C5.43515 8.49492 5.22656 8.70878 5.22656 9.0416C5.22656 9.37792 5.4414 9.57402 5.79355 9.57402L6.00605 9.57402C6.79394 9.57402 7.21601 10.0084 7.21601 10.8105C7.21601 11.4369 6.88984 11.9902 6.21288 11.9902C5.56679 11.9902 5.2789 11.5539 5.16171 11.1328C5.05526 10.8027 4.83612 10.6279 4.49628 10.6279C4.09433 10.6279 3.82812 10.8764 3.82812 11.2783C3.82812 11.4576 3.85566 11.6316 3.90449 11.7879C4.18417 12.6838 5.16171 13.1775 6.21464 13.1775ZM12.0473 13.1775C13.4588 13.1775 14.5189 12.3074 14.5189 10.8637C14.5189 9.70195 13.8332 9.09394 13.0066 9.00253L13.0066 8.97148C13.8373 8.75292 14.2898 7.99003 14.2898 7.15742C14.2898 5.82206 13.2998 5.05409 12.0127 5.05409C11.0129 5.05409 10.135 5.60468 9.85703 6.47558C9.8082 6.6541 9.78867 6.82988 9.78867 6.99765C9.78867 7.32343 9.99375 7.60195 10.4143 7.60195C10.7516 7.60195 10.9803 7.47675 11.0797 7.12089C11.2201 6.59745 11.4982 6.2414 12.0162 6.2414C12.6133 6.2414 12.8844 6.72362 12.8844 7.3207C12.8844 7.98613 12.5262 8.49492 11.8289 8.49492L11.6342 8.49492C11.2758 8.49492 11.0592 8.70878 11.0592 9.0416C11.0592 9.37792 11.274 9.57402 11.6342 9.57402L11.8467 9.57402C12.6346 9.57402 13.0566 10.0084 13.0566 10.8105C13.0566 11.4369 12.7305 11.9902 12.0535 11.9902C11.4074 11.9902 11.1115 11.5539 10.9943 11.1328C10.8959 10.8027 10.6687 10.6279 10.3369 10.6279C9.93496 10.6279 9.66074 10.8764 9.66074 11.2783C9.66074 11.4576 9.68828 11.6316 9.73711 11.7879C10.0168 12.6838 11.0023 13.1775 12.0473 13.1775Z" fill="white" fill-opacity="0.85"/>
 </g>
</svg>
