<?xml version="1.0" encoding="UTF-8"?>
<!--Generator: Apple Native CoreSVG 341-->
<!DOCTYPE svg
PUBLIC "-//W3C//DTD SVG 1.1//EN"
       "http://www.w3.org/Graphics/SVG/1.1/DTD/svg11.dtd">
<svg version="1.1" xmlns="http://www.w3.org/2000/svg" xmlns:xlink="http://www.w3.org/1999/xlink" viewBox="0 0 20.5381 20.1848">
 <g>
  <rect height="20.1848" opacity="0" width="20.5381" x="0" y="0"/>
  <path d="M20.1767 10.0875C20.1767 15.6478 15.6576 20.175 10.0875 20.175C4.52715 20.175 0 15.6478 0 10.0875C0 4.51914 4.52715 0 10.0875 0C15.6576 0 20.1767 4.51914 20.1767 10.0875ZM4.56796 7.34492C4.51913 7.53496 4.48808 7.71249 4.48808 7.89003C4.48808 8.23085 4.71445 8.52089 5.15175 8.52089C5.50234 8.52089 5.74081 8.39394 5.85175 8.02656C5.98769 7.48183 6.28183 7.11249 6.81484 7.11249C7.42343 7.11249 7.7123 7.608 7.7123 8.22812C7.7123 8.91484 7.34433 9.44668 6.62226 9.44668L6.40976 9.44668C6.03808 9.44668 5.81621 9.67031 5.81621 10.0182C5.81621 10.366 6.04433 10.5754 6.40976 10.5754L6.64179 10.5754C7.44296 10.5754 7.88633 11.0213 7.88633 11.8482C7.88633 12.4941 7.55839 13.0723 6.85038 13.0723C6.19276 13.0723 5.88534 12.6262 5.75839 12.1918C5.65019 11.8387 5.41776 11.6621 5.07265 11.6621C4.64765 11.6621 4.36816 11.9221 4.36816 12.3391C4.36816 12.5281 4.39745 12.7074 4.44628 12.8734C4.73749 13.8039 5.75937 14.3127 6.85214 14.3127C8.31503 14.3127 9.42304 13.4062 9.42304 11.9129C9.42304 10.7051 8.70624 10.0705 7.85136 9.9791L7.85136 9.94628C8.71484 9.71796 9.18066 8.92226 9.18066 8.05956C9.18066 6.6666 8.15605 5.87382 6.80956 5.87382C5.77167 5.87382 4.85917 6.44746 4.56796 7.34492ZM12.2404 7.08378L10.6193 10.7035C10.4471 11.0994 10.3894 11.3947 10.3894 11.7195C10.3894 12.2518 10.7338 12.5908 11.2775 12.5908L13.4068 12.5908L13.4068 13.4937C13.4068 14.0555 13.7902 14.2603 14.1477 14.2603C14.5486 14.2603 14.8885 14.0189 14.8885 13.4937L14.8885 12.5908L15.1891 12.5908C15.6184 12.5908 15.7924 12.3123 15.7924 11.96C15.7924 11.6061 15.6221 11.3451 15.1943 11.3451L14.8885 11.3451L14.8885 7.0787C14.8885 6.33339 14.4031 5.91992 13.6836 5.91992C12.875 5.91992 12.5342 6.39198 12.2404 7.08378ZM13.4432 11.3797L11.7 11.3797L11.7 11.3113L13.4059 7.23691L13.4432 7.23691Z" fill="white" fill-opacity="0.85"/>
 </g>
</svg>
