<?xml version="1.0" encoding="UTF-8"?>
<!--Generator: Apple Native CoreSVG 341-->
<!DOCTYPE svg
PUBLIC "-//W3C//DTD SVG 1.1//EN"
       "http://www.w3.org/Graphics/SVG/1.1/DTD/svg11.dtd">
<svg version="1.1" xmlns="http://www.w3.org/2000/svg" xmlns:xlink="http://www.w3.org/1999/xlink" viewBox="0 0 20.5381 20.1848">
 <g>
  <rect height="20.1848" opacity="0" width="20.5381" x="0" y="0"/>
  <path d="M10.0875 20.175C15.6576 20.175 20.1767 15.6559 20.1767 10.0875C20.1767 4.51914 15.6576 0 10.0875 0C4.51914 0 0 4.51914 0 10.0875C0 15.6559 4.51914 20.175 10.0875 20.175ZM10.0875 18.1879C5.60839 18.1879 1.9871 14.5666 1.9871 10.0875C1.9871 5.60839 5.60839 1.9871 10.0875 1.9871C14.5666 1.9871 18.1897 5.60839 18.1897 10.0875C18.1897 14.5666 14.5666 18.1879 10.0875 18.1879Z" fill="white" fill-opacity="0.85"/>
  <path d="M6.9664 14.1541C8.37792 14.1541 9.43808 13.284 9.43808 11.8402C9.43808 10.6785 8.75058 10.0705 7.92401 9.9791L7.92401 9.94804C8.75468 9.72949 9.20722 8.96659 9.20722 8.13398C9.20722 6.79863 8.21718 6.03066 6.92206 6.03066C5.93027 6.03066 5.05409 6.58124 4.77616 7.45214C4.72734 7.63066 4.69804 7.80644 4.69804 7.97421C4.69804 8.29999 4.91113 8.57851 5.33339 8.57851C5.67069 8.57851 5.89765 8.45331 5.99706 8.09745C6.13124 7.57401 6.41562 7.21796 6.92734 7.21796C7.52441 7.21796 7.80175 7.70019 7.80175 8.29726C7.80175 8.96269 7.44355 9.47148 6.74628 9.47148L6.54355 9.47148C6.18515 9.47148 5.97656 9.68535 5.97656 10.0182C5.97656 10.3545 6.1914 10.5506 6.54355 10.5506L6.76581 10.5506C7.54394 10.5506 7.96601 10.985 7.96601 11.7871C7.96601 12.4135 7.64785 12.9668 6.96288 12.9668C6.32655 12.9668 6.0289 12.5305 5.91171 12.1094C5.80526 11.7793 5.58612 11.6045 5.25605 11.6045C4.84433 11.6045 4.57812 11.8529 4.57812 12.2549C4.57812 12.4342 4.60566 12.6082 4.65448 12.7644C4.93417 13.6603 5.91972 14.1541 6.9664 14.1541ZM13.9863 14.1053C14.3705 14.1053 14.6908 13.8736 14.6908 13.3732L14.6908 12.4916L14.9914 12.4916C15.3941 12.4916 15.5664 12.2281 15.5664 11.8873C15.5664 11.5484 15.3978 11.3008 14.9932 11.3008L14.6908 11.3008L14.6908 7.18241C14.6908 6.47519 14.2285 6.07675 13.5436 6.07675C12.7686 6.07675 12.4428 6.52675 12.1605 7.19022L10.5883 10.684C10.4275 11.0666 10.3717 11.3469 10.3717 11.6602C10.3717 12.1658 10.701 12.4916 11.2199 12.4916L13.2738 12.4916L13.2738 13.3732C13.2738 13.9102 13.6422 14.1053 13.9863 14.1053ZM13.3084 11.3353L11.6273 11.3353L11.6273 11.2652L13.2693 7.34237L13.3084 7.34237Z" fill="white" fill-opacity="0.85"/>
 </g>
</svg>
