<?xml version="1.0" encoding="UTF-8"?>
<!--Generator: Apple Native CoreSVG 341-->
<!DOCTYPE svg
PUBLIC "-//W3C//DTD SVG 1.1//EN"
       "http://www.w3.org/Graphics/SVG/1.1/DTD/svg11.dtd">
<svg version="1.1" xmlns="http://www.w3.org/2000/svg" xmlns:xlink="http://www.w3.org/1999/xlink" viewBox="0 0 18.5894 18.2316">
 <g>
  <rect height="18.2316" opacity="0" width="18.5894" x="0" y="0"/>
  <path d="M18.2281 3.17148L18.2281 15.0646C18.2281 17.1502 17.1404 18.2281 15.0246 18.2281L3.20351 18.2281C1.0957 18.2281 0 17.1502 0 15.0646L0 3.17148C0 1.08769 1.0957 0 3.20351 0L15.0246 0C17.1404 0 18.2281 1.08769 18.2281 3.17148ZM3.6205 6.36835C3.57167 6.55839 3.54062 6.73593 3.54062 6.91347C3.54062 7.25429 3.76523 7.54433 4.20429 7.54433C4.55312 7.54433 4.79335 7.41738 4.90429 7.04999C5.03847 6.50526 5.33437 6.13593 5.86562 6.13593C6.47421 6.13593 6.76308 6.63144 6.76308 7.25156C6.76308 7.93828 6.39511 8.47011 5.67304 8.47011L5.4623 8.47011C5.09687 8.47011 4.86874 8.69375 4.86874 9.0416C4.86874 9.38945 5.09511 9.59882 5.4623 9.59882L5.69433 9.59882C6.50351 9.59882 6.93711 10.0447 6.93711 10.8717C6.93711 11.5176 6.60917 12.0957 5.91093 12.0957C5.24355 12.0957 4.93612 11.6496 4.80917 11.2152C4.70097 10.8621 4.4703 10.6855 4.12343 10.6855C3.70644 10.6855 3.4207 10.9455 3.4207 11.3625C3.4207 11.5516 3.44824 11.7309 3.49706 11.8969C3.79003 12.8273 4.81191 13.3361 5.90468 13.3361C7.36757 13.3361 8.47382 12.4297 8.47382 10.9363C8.47382 9.72851 7.75702 9.09394 6.90214 9.00253L6.90214 8.96972C7.76562 8.7414 8.23144 7.9457 8.23144 7.083C8.23144 5.69003 7.20683 4.89726 5.8621 4.89726C4.82421 4.89726 3.90995 5.47089 3.6205 6.36835ZM11.2912 6.10721L9.67011 9.72695C9.50761 10.1228 9.44199 10.4182 9.44199 10.743C9.44199 11.2752 9.78456 11.6143 10.3301 11.6143L12.4594 11.6143L12.4594 12.5172C12.4594 13.0789 12.841 13.2838 13.2002 13.2838C13.6012 13.2838 13.941 13.0424 13.941 12.5172L13.941 11.6143L14.2416 11.6143C14.6691 11.6143 14.8512 11.3357 14.8512 10.9834C14.8512 10.6295 14.6728 10.3686 14.2451 10.3686L13.941 10.3686L13.941 6.10214C13.941 5.35683 13.4539 4.94335 12.7344 4.94335C11.9258 4.94335 11.5867 5.41542 11.2912 6.10721ZM12.4957 10.4031L10.7508 10.4031L10.7508 10.3348L12.4566 6.26034L12.4957 6.26034Z" fill="white" fill-opacity="0.85"/>
 </g>
</svg>
