<?xml version="1.0" encoding="UTF-8"?>
<!--Generator: Apple Native CoreSVG 341-->
<!DOCTYPE svg
PUBLIC "-//W3C//DTD SVG 1.1//EN"
       "http://www.w3.org/Graphics/SVG/1.1/DTD/svg11.dtd">
<svg version="1.1" xmlns="http://www.w3.org/2000/svg" xmlns:xlink="http://www.w3.org/1999/xlink" viewBox="0 0 18.5894 18.2316">
 <g>
  <rect height="18.2316" opacity="0" width="18.5894" x="0" y="0"/>
  <path d="M3.20351 18.2281L15.0246 18.2281C17.1404 18.2281 18.2281 17.1502 18.2281 15.0646L18.2281 3.17148C18.2281 1.08769 17.1404 0 15.0246 0L3.20351 0C1.0957 0 0 1.08769 0 3.17148L0 15.0646C0 17.1502 1.0957 18.2281 3.20351 18.2281ZM3.31444 16.3148C2.40643 16.3148 1.91327 15.8465 1.91327 14.8977L1.91327 3.34023C1.91327 2.39139 2.40643 1.91503 3.31444 1.91503L14.9137 1.91503C15.8137 1.91503 16.3148 2.39139 16.3148 3.34023L16.3148 14.8977C16.3148 15.8465 15.8137 16.3148 14.9137 16.3148Z" fill="white" fill-opacity="0.85"/>
  <path d="M6.00409 13.1775C7.41562 13.1775 8.47753 12.3074 8.47753 10.8637C8.47753 9.70195 7.79003 9.09394 6.96347 9.00253L6.96347 8.97148C7.79413 8.75292 8.24667 7.99003 8.24667 7.15742C8.24667 5.82206 7.25663 5.05409 5.96152 5.05409C4.96972 5.05409 4.09179 5.60468 3.81562 6.47558C3.76503 6.6541 3.73749 6.82988 3.73749 6.99765C3.73749 7.32343 3.95058 7.60195 4.37109 7.60195C4.71015 7.60195 4.9371 7.47675 5.03651 7.12089C5.17069 6.59745 5.45507 6.2414 5.96679 6.2414C6.56386 6.2414 6.84121 6.72362 6.84121 7.3207C6.84121 7.98613 6.483 8.49492 5.78574 8.49492L5.583 8.49492C5.23261 8.49492 5.01601 8.70878 5.01601 9.0416C5.01601 9.37792 5.23085 9.57402 5.583 9.57402L5.80527 9.57402C6.5914 9.57402 7.00547 10.0084 7.00547 10.8105C7.00547 11.4369 6.6873 11.9902 6.01034 11.9902C5.36425 11.9902 5.06835 11.5539 4.95116 11.1328C4.84472 10.8027 4.62558 10.6279 4.29374 10.6279C3.89179 10.6279 3.61757 10.8764 3.61757 11.2783C3.61757 11.4576 3.64511 11.6316 3.69394 11.7879C3.97363 12.6838 4.95917 13.1775 6.00409 13.1775ZM13.0258 13.1287C13.41 13.1287 13.7303 12.8971 13.7303 12.3967L13.7303 11.515L14.0309 11.515C14.4336 11.515 14.6139 11.2516 14.6139 10.9107C14.6139 10.5719 14.4373 10.3242 14.0326 10.3242L13.7303 10.3242L13.7303 6.20585C13.7303 5.49862 13.268 5.10019 12.583 5.10019C11.808 5.10019 11.4822 5.55018 11.2 6.21366L9.62773 9.70742C9.47324 10.09 9.41113 10.3703 9.41113 10.6836C9.41113 11.1893 9.74042 11.515 10.2594 11.515L12.3133 11.515L12.3133 12.3967C12.3133 12.9336 12.6816 13.1287 13.0258 13.1287ZM12.3479 10.3588L10.6668 10.3588L10.6668 10.2887L12.3088 6.36581L12.3479 6.36581Z" fill="white" fill-opacity="0.85"/>
 </g>
</svg>
