<?xml version="1.0" encoding="UTF-8"?>
<!--Generator: Apple Native CoreSVG 341-->
<!DOCTYPE svg
PUBLIC "-//W3C//DTD SVG 1.1//EN"
       "http://www.w3.org/Graphics/SVG/1.1/DTD/svg11.dtd">
<svg version="1.1" xmlns="http://www.w3.org/2000/svg" xmlns:xlink="http://www.w3.org/1999/xlink" viewBox="0 0 20.5381 20.1848">
 <g>
  <rect height="20.1848" opacity="0" width="20.5381" x="0" y="0"/>
  <path d="M10.0875 20.175C15.6576 20.175 20.1767 15.6559 20.1767 10.0875C20.1767 4.51914 15.6576 0 10.0875 0C4.51914 0 0 4.51914 0 10.0875C0 15.6559 4.51914 20.175 10.0875 20.175ZM10.0875 18.1879C5.60839 18.1879 1.9871 14.5666 1.9871 10.0875C1.9871 5.60839 5.60839 1.9871 10.0875 1.9871C14.5666 1.9871 18.1897 5.60839 18.1897 10.0875C18.1897 14.5666 14.5666 18.1879 10.0875 18.1879Z" fill="white" fill-opacity="0.85"/>
  <path d="M7.14062 14.1541C8.55214 14.1541 9.6123 13.284 9.6123 11.8402C9.6123 10.6785 8.92655 10.0705 8.09999 9.9791L8.09999 9.94804C8.93066 9.72949 9.3832 8.96659 9.3832 8.13398C9.3832 6.79863 8.39316 6.03066 7.09804 6.03066C6.10624 6.03066 5.22831 6.58124 4.95214 7.45214C4.90156 7.63066 4.87402 7.80644 4.87402 7.97421C4.87402 8.29999 5.0871 8.57851 5.50761 8.57851C5.84491 8.57851 6.07362 8.45331 6.17304 8.09745C6.30722 7.57401 6.59159 7.21796 7.10331 7.21796C7.69863 7.21796 7.97773 7.70019 7.97773 8.29726C7.97773 8.96269 7.61953 9.47148 6.92226 9.47148L6.71952 9.47148C6.36113 9.47148 6.15253 9.68535 6.15253 10.0182C6.15253 10.3545 6.36738 10.5506 6.71952 10.5506L6.94179 10.5506C7.71992 10.5506 8.14199 10.985 8.14199 11.7871C8.14199 12.4135 7.82382 12.9668 7.13886 12.9668C6.50077 12.9668 6.20487 12.5305 6.08769 12.1094C5.98124 11.7793 5.7621 11.6045 5.43027 11.6045C5.0203 11.6045 4.75409 11.8529 4.75409 12.2549C4.75409 12.4342 4.78163 12.6082 4.83046 12.7644C5.11015 13.6603 6.0957 14.1541 7.14062 14.1541ZM12.998 14.1799C14.5162 14.1799 15.3402 12.9146 15.3402 11.3805C15.3402 10.0785 14.7334 8.84101 13.4957 8.84101C12.9019 8.84101 12.3982 9.13456 12.1752 9.6623L12.1264 9.6623L12.2721 7.40526L14.4686 7.40526C14.835 7.40526 15.0418 7.15331 15.0418 6.80448C15.0418 6.46113 14.8199 6.20019 14.4686 6.20019L11.8402 6.20019C11.3156 6.20019 11.084 6.54101 11.0467 7.05937L10.9045 9.64726C10.8965 9.77793 10.8867 9.94472 10.8867 10.0629C10.8867 10.4691 11.1014 10.8029 11.5611 10.8029C11.8371 10.8029 11.9969 10.7008 12.1967 10.4336C12.4002 10.1359 12.6285 9.90859 12.9857 9.90859C13.6539 9.90859 13.901 10.7373 13.901 11.4213C13.901 12.1686 13.6467 12.9828 12.9732 12.9828C12.4738 12.9828 12.1957 12.6186 12.0277 12.1307C11.915 11.8023 11.6799 11.6471 11.4066 11.6471C11.0277 11.6471 10.7943 11.8822 10.7943 12.2611C10.7943 12.4734 10.8477 12.676 10.9205 12.8643C11.243 13.6482 12.1033 14.1799 12.998 14.1799Z" fill="white" fill-opacity="0.85"/>
 </g>
</svg>
