<?xml version="1.0" encoding="UTF-8"?>
<!--Generator: Apple Native CoreSVG 341-->
<!DOCTYPE svg
PUBLIC "-//W3C//DTD SVG 1.1//EN"
       "http://www.w3.org/Graphics/SVG/1.1/DTD/svg11.dtd">
<svg version="1.1" xmlns="http://www.w3.org/2000/svg" xmlns:xlink="http://www.w3.org/1999/xlink" viewBox="0 0 18.5894 18.2316">
 <g>
  <rect height="18.2316" opacity="0" width="18.5894" x="0" y="0"/>
  <path d="M18.2281 3.17148L18.2281 15.0646C18.2281 17.1502 17.1404 18.2281 15.0246 18.2281L3.20351 18.2281C1.0957 18.2281 0 17.1502 0 15.0646L0 3.17148C0 1.08769 1.0957 0 3.20351 0L15.0246 0C17.1404 0 18.2281 1.08769 18.2281 3.17148ZM10.9734 5.06855C10.4223 5.06855 10.1809 5.42265 10.1436 5.96581L9.9996 8.64765C9.9916 8.78808 9.98984 8.95839 9.98984 9.08281C9.98984 9.50761 10.2 9.85292 10.6828 9.85292C10.9738 9.85292 11.1434 9.74902 11.3432 9.47031C11.5564 9.16113 11.7945 8.93202 12.165 8.93202C12.8527 8.93202 13.1096 9.78554 13.1096 10.4943C13.1096 11.2691 12.8553 12.1117 12.1525 12.1117C11.6398 12.1117 11.3439 11.7359 11.1822 11.2365C11.0517 10.8869 10.8211 10.7281 10.5266 10.7281C10.1246 10.7281 9.88144 10.9766 9.88144 11.3687C9.88144 11.5926 9.94277 11.8049 10.0139 11.9949C10.3478 12.8135 11.2445 13.3619 12.1773 13.3619C13.7566 13.3619 14.6152 12.0471 14.6152 10.4518C14.6152 9.10195 13.9934 7.8166 12.7016 7.8166C12.0812 7.8166 11.5643 8.12167 11.3234 8.66269L11.2746 8.66269L11.4381 6.33476L13.7072 6.33476C14.0869 6.33476 14.3035 6.07128 14.3035 5.69941C14.3035 5.34101 14.0736 5.06855 13.7072 5.06855ZM3.80624 6.36835C3.75742 6.55839 3.72812 6.73593 3.72812 6.91347C3.72812 7.25078 3.94296 7.54433 4.39003 7.54433C4.73886 7.54433 4.98085 7.41738 5.08202 7.04999C5.22421 6.50526 5.52011 6.13593 6.04335 6.13593C6.66796 6.13593 6.95058 6.63144 6.95058 7.25156C6.95058 7.93652 6.58085 8.47011 5.86054 8.47011L5.64804 8.47011C5.28437 8.47011 5.05624 8.69375 5.05624 9.0416C5.05624 9.38945 5.28085 9.59882 5.64804 9.59882L5.88007 9.59882C6.69101 9.59882 7.11484 10.0447 7.11484 10.8717C7.11484 11.5176 6.78691 12.0957 6.08867 12.0957C5.42128 12.0957 5.11386 11.6496 4.99667 11.2072C4.88671 10.8621 4.65605 10.6855 4.31269 10.6855C3.88417 10.6855 3.59843 10.9455 3.59843 11.3625C3.59843 11.5516 3.62597 11.7309 3.68632 11.8934C3.96777 12.8273 4.99765 13.3361 6.08242 13.3361C7.55507 13.3361 8.66132 12.4297 8.66132 10.9363C8.66132 9.72851 7.94277 9.09394 7.0914 9.00253L7.0914 8.96171C7.94335 8.7414 8.41894 7.9457 8.41894 7.083C8.41894 5.69003 7.38456 4.89726 6.03984 4.89726C5.00995 4.89726 4.0957 5.47089 3.80624 6.36835Z" fill="white" fill-opacity="0.85"/>
 </g>
</svg>
