<?xml version="1.0" encoding="UTF-8"?>
<!--Generator: Apple Native CoreSVG 341-->
<!DOCTYPE svg
PUBLIC "-//W3C//DTD SVG 1.1//EN"
       "http://www.w3.org/Graphics/SVG/1.1/DTD/svg11.dtd">
<svg version="1.1" xmlns="http://www.w3.org/2000/svg" xmlns:xlink="http://www.w3.org/1999/xlink" viewBox="0 0 20.5381 20.1848">
 <g>
  <rect height="20.1848" opacity="0" width="20.5381" x="0" y="0"/>
  <path d="M10.0875 20.175C15.6576 20.175 20.1767 15.6559 20.1767 10.0875C20.1767 4.51914 15.6576 0 10.0875 0C4.51914 0 0 4.51914 0 10.0875C0 15.6559 4.51914 20.175 10.0875 20.175ZM10.0875 18.1879C5.60839 18.1879 1.9871 14.5666 1.9871 10.0875C1.9871 5.60839 5.60839 1.9871 10.0875 1.9871C14.5666 1.9871 18.1897 5.60839 18.1897 10.0875C18.1897 14.5666 14.5666 18.1879 10.0875 18.1879Z" fill="white" fill-opacity="0.85"/>
  <path d="M7.06757 14.1541C8.47909 14.1541 9.53925 13.284 9.53925 11.8402C9.53925 10.6785 8.85351 10.0705 8.03495 9.9791L8.03495 9.94804C8.85761 9.72949 9.31015 8.96659 9.31015 8.13398C9.31015 6.79863 8.32011 6.03066 7.033 6.03066C6.0332 6.03066 5.15527 6.58124 4.87734 7.45214C4.82851 7.63066 4.80898 7.80644 4.80898 7.97421C4.80898 8.29999 5.01405 8.57851 5.43456 8.57851C5.77187 8.57851 6.00058 8.45331 6.09999 8.09745C6.24042 7.57401 6.51855 7.21796 7.03652 7.21796C7.63359 7.21796 7.90468 7.70019 7.90468 8.29726C7.90468 8.96269 7.54648 9.47148 6.84921 9.47148L6.65448 9.47148C6.29609 9.47148 6.07948 9.68535 6.07948 10.0182C6.07948 10.3545 6.30234 10.5506 6.65448 10.5506L6.86698 10.5506C7.65488 10.5506 8.07695 10.985 8.07695 11.7871C8.07695 12.4135 7.75078 12.9668 7.07382 12.9668C6.42772 12.9668 6.13182 12.5305 6.01464 12.1094C5.9162 11.7793 5.68905 11.6045 5.35722 11.6045C4.95526 11.6045 4.68905 11.8529 4.68905 12.2549C4.68905 12.4342 4.70859 12.6082 4.75741 12.7644C5.0371 13.6603 6.02265 14.1541 7.06757 14.1541ZM13.0875 14.1799C14.5728 14.1799 15.4066 12.9387 15.4066 11.4318C15.4066 10.1416 14.8053 8.91093 13.5426 8.91093C12.7639 8.91093 12.1935 9.44003 11.9812 10.2412L11.9537 10.2412C11.9537 10.1775 11.9537 10.1121 11.9537 10.0564C11.9537 8.9373 12.0982 7.20995 13.0707 7.20995C13.4732 7.20995 13.7311 7.50136 13.898 7.87636C14.0471 8.18788 14.2396 8.32636 14.5627 8.32636C14.9814 8.32636 15.1607 8.04159 15.1607 7.70702C15.1607 7.5996 15.143 7.47363 15.1119 7.35019C14.8998 6.51035 14.0643 6.01288 13.107 6.01288C11.1191 6.01288 10.5367 8.20097 10.5367 10.1728C10.5367 11.9816 11.1201 14.1799 13.0875 14.1799ZM13.0644 12.9828C12.4059 12.9828 12.1357 12.1562 12.1357 11.4566C12.1357 10.7578 12.4299 10.0228 13.0644 10.0228C13.7133 10.0228 13.9932 10.7853 13.9754 11.4957C13.9754 12.1998 13.6812 12.9828 13.0644 12.9828Z" fill="white" fill-opacity="0.85"/>
 </g>
</svg>
