<?xml version="1.0" encoding="UTF-8"?>
<!--Generator: Apple Native CoreSVG 341-->
<!DOCTYPE svg
PUBLIC "-//W3C//DTD SVG 1.1//EN"
       "http://www.w3.org/Graphics/SVG/1.1/DTD/svg11.dtd">
<svg version="1.1" xmlns="http://www.w3.org/2000/svg" xmlns:xlink="http://www.w3.org/1999/xlink" viewBox="0 0 18.5894 18.2316">
 <g>
  <rect height="18.2316" opacity="0" width="18.5894" x="0" y="0"/>
  <path d="M18.2281 3.17148L18.2281 15.0646C18.2281 17.1502 17.1404 18.2281 15.0246 18.2281L3.20351 18.2281C1.0957 18.2281 0 17.1502 0 15.0646L0 3.17148C0 1.08769 1.0957 0 3.20351 0L15.0246 0C17.1404 0 18.2281 1.08769 18.2281 3.17148ZM4.15781 6.36835C4.10546 6.55839 4.07792 6.73593 4.07792 6.91347C4.07792 7.25429 4.30253 7.54433 4.73808 7.54433C5.09042 7.54433 5.33065 7.41738 5.43358 7.04999C5.58202 6.50526 5.86015 6.13593 6.40292 6.13593C7.01953 6.13593 7.30039 6.63144 7.30039 7.25156C7.30039 7.93828 6.93242 8.47011 6.21035 8.47011L6.00761 8.47011C5.63417 8.47011 5.40605 8.69375 5.40605 9.0416C5.40605 9.38945 5.64042 9.59882 6.00761 9.59882L6.22011 9.59882C7.04082 9.59882 7.47441 10.0447 7.47441 10.8717C7.47441 11.5176 7.13847 12.0957 6.43847 12.0957C5.77284 12.0957 5.46366 11.6496 5.34647 11.2152C5.23827 10.8621 5.00761 10.6855 4.65273 10.6855C4.23574 10.6855 3.958 10.9455 3.958 11.3625C3.958 11.5516 3.97753 11.7309 4.03437 11.8969C4.31933 12.8273 5.34921 13.3361 6.43398 13.3361C7.90488 13.3361 9.00312 12.4297 9.00312 10.9363C9.00312 9.72851 8.29257 9.09394 7.43945 9.00253L7.43945 8.96972C8.29492 8.7414 8.76874 7.9457 8.76874 7.083C8.76874 5.69003 7.73437 4.89726 6.39589 4.89726C5.35976 4.89726 4.4455 5.47089 4.15781 6.36835ZM10.4672 5.06855C10.0955 5.06855 9.84609 5.34179 9.84609 5.69589C9.84609 6.06679 10.1008 6.33476 10.4672 6.33476L12.918 6.33476L12.918 6.42792L10.7836 12.0113C10.7037 12.2359 10.6629 12.3787 10.6629 12.6264C10.6629 12.9387 10.851 13.29 11.3744 13.29C11.7736 13.29 11.9484 13.133 12.0887 12.7549L14.2975 6.77323C14.4182 6.45019 14.4945 6.19374 14.4945 5.87968C14.4945 5.39159 14.1191 5.06855 13.6471 5.06855Z" fill="white" fill-opacity="0.85"/>
 </g>
</svg>
