<?xml version="1.0" encoding="UTF-8"?>
<!--Generator: Apple Native CoreSVG 341-->
<!DOCTYPE svg
PUBLIC "-//W3C//DTD SVG 1.1//EN"
       "http://www.w3.org/Graphics/SVG/1.1/DTD/svg11.dtd">
<svg version="1.1" xmlns="http://www.w3.org/2000/svg" xmlns:xlink="http://www.w3.org/1999/xlink" viewBox="0 0 18.5894 18.2316">
 <g>
  <rect height="18.2316" opacity="0" width="18.5894" x="0" y="0"/>
  <path d="M18.2281 3.17148L18.2281 15.0646C18.2281 17.1502 17.1404 18.2281 15.0246 18.2281L3.20351 18.2281C1.0957 18.2281 0 17.1502 0 15.0646L0 3.17148C0 1.08769 1.0957 0 3.20351 0L15.0246 0C17.1404 0 18.2281 1.08769 18.2281 3.17148ZM9.8 7.06621C9.8 8.07929 10.4295 8.683 11.0758 8.88007L11.0758 8.91113C10.2199 9.10117 9.57089 9.89921 9.57089 10.9736C9.57089 12.4555 10.6984 13.3379 12.1853 13.3379C13.7588 13.3379 14.8096 12.3787 14.8096 10.9754C14.8096 9.89472 14.1426 9.09667 13.3144 8.91113L13.3144 8.88007C14.0041 8.66796 14.5822 8.00839 14.5822 7.07597C14.5822 5.76562 13.6014 4.8955 12.1853 4.8955C10.9346 4.8955 9.8 5.65195 9.8 7.06621ZM3.70234 6.36835C3.65351 6.55839 3.63222 6.73593 3.63222 6.91347C3.63222 7.25078 3.85507 7.54433 4.28613 7.54433C4.64296 7.54433 4.87694 7.41738 4.98788 7.04999C5.12831 6.50526 5.4162 6.13593 5.95546 6.13593C6.57382 6.13593 6.84668 6.63144 6.84668 7.25156C6.84668 7.93652 6.47695 8.47011 5.7664 8.47011L5.56015 8.47011C5.18046 8.47011 4.96035 8.69375 4.96035 9.0416C4.96035 9.38945 5.18671 9.59882 5.56015 9.59882L5.77617 9.59882C6.59511 9.59882 7.02695 10.0447 7.02695 10.8717C7.02695 11.5176 6.69101 12.0957 5.99277 12.0957C5.32538 12.0957 5.01972 11.6496 4.89276 11.2152C4.79257 10.8621 4.5539 10.6855 4.20878 10.6855C3.78827 10.6855 3.51054 10.9455 3.51054 11.3625C3.51054 11.5516 3.53007 11.7309 3.58242 11.8934C3.87187 12.8273 4.8955 13.3361 5.98652 13.3361C7.45116 13.3361 8.55742 12.4297 8.55742 10.9363C8.55742 9.72851 7.84687 9.09394 6.9955 9.00253L6.9955 8.96972C7.84746 8.7414 8.31503 7.9457 8.31503 7.083C8.31503 5.69003 7.29042 4.89726 5.95195 4.89726C4.90605 4.89726 3.99179 5.47089 3.70234 6.36835ZM13.1904 10.8494C13.1904 11.5758 12.8555 12.1879 12.1934 12.1879C11.5312 12.1879 11.1998 11.5758 11.1998 10.8494C11.1998 10.1426 11.5312 9.53847 12.1934 9.53847C12.8395 9.53847 13.1904 10.1105 13.1904 10.8494ZM13.0695 7.22499C13.0695 7.87499 12.7719 8.39824 12.1934 8.39824C11.6103 8.39824 11.3064 7.81718 11.3064 7.22499C11.3064 6.59277 11.6281 6.03573 12.1934 6.03573C12.7799 6.03573 13.0695 6.59277 13.0695 7.22499Z" fill="white" fill-opacity="0.85"/>
 </g>
</svg>
