<?xml version="1.0" encoding="UTF-8"?>
<!--Generator: Apple Native CoreSVG 341-->
<!DOCTYPE svg
PUBLIC "-//W3C//DTD SVG 1.1//EN"
       "http://www.w3.org/Graphics/SVG/1.1/DTD/svg11.dtd">
<svg version="1.1" xmlns="http://www.w3.org/2000/svg" xmlns:xlink="http://www.w3.org/1999/xlink" viewBox="0 0 20.5381 20.1848">
 <g>
  <rect height="20.1848" opacity="0" width="20.5381" x="0" y="0"/>
  <path d="M20.1767 10.0875C20.1767 15.6478 15.6576 20.175 10.0875 20.175C4.52715 20.175 0 15.6478 0 10.0875C0 4.51914 4.52715 0 10.0875 0C15.6576 0 20.1767 4.51914 20.1767 10.0875ZM10.5269 8.71132C10.5269 10.0477 11.1514 11.3279 12.4682 11.3279C13.2734 11.3279 13.8588 10.7758 14.0809 9.9498L14.1146 9.9498C14.1146 10.017 14.1146 10.0842 14.1146 10.1416C14.1146 11.3041 13.9604 13.082 12.9523 13.082C12.5435 13.082 12.2742 12.8047 12.1002 12.3961C11.9432 12.0535 11.7391 11.9195 11.417 11.9195C10.9592 11.9195 10.7666 12.2256 10.7666 12.5752C10.7666 12.6889 10.7941 12.8264 10.8332 12.9435C11.0568 13.8277 11.9189 14.3322 12.9205 14.3322C14.9926 14.3322 15.59 12.0822 15.59 10.0199C15.59 8.14023 14.9934 5.85429 12.9338 5.85429C11.3953 5.85429 10.5269 7.14511 10.5269 8.71132ZM4.66835 7.34492C4.61953 7.53496 4.59648 7.71249 4.59648 7.89003C4.59648 8.22734 4.81308 8.52089 5.25038 8.52089C5.60273 8.52089 5.8412 8.39394 5.94413 8.02656C6.09257 7.48183 6.37245 7.11249 6.91347 7.11249C7.53183 7.11249 7.81269 7.608 7.81269 8.22812C7.81269 8.91308 7.45097 9.44668 6.72089 9.44668L6.51816 9.44668C6.14648 9.44668 5.9246 9.67031 5.9246 10.0182C5.9246 10.366 6.15273 10.5754 6.51816 10.5754L6.73242 10.5754C7.55136 10.5754 7.98496 11.0213 7.98496 11.8482C7.98496 12.4941 7.64902 13.0723 6.95078 13.0723C6.28515 13.0723 5.97772 12.6262 5.85878 12.1918C5.75058 11.8387 5.51816 11.6621 5.17304 11.6621C4.74628 11.6621 4.46855 11.9221 4.46855 12.3391C4.46855 12.5281 4.49609 12.7074 4.54667 12.8699C4.82988 13.8039 5.85976 14.3127 6.95253 14.3127C8.41542 14.3127 9.51542 13.4062 9.51542 11.9129C9.51542 10.7051 8.80312 10.0705 7.95175 9.9791L7.95175 9.94628C8.80546 9.71796 9.27929 8.92226 9.27929 8.05956C9.27929 6.6666 8.24667 5.87382 6.9082 5.87382C5.87031 5.87382 4.95605 6.44746 4.66835 7.34492ZM13.9229 8.64999C13.9229 9.41367 13.6109 10.1619 12.9568 10.1619C12.2885 10.1619 12.0148 9.37988 12.0148 8.64296C12.0148 7.89804 12.3285 7.10976 12.9568 7.10976C13.643 7.10976 13.9229 7.8998 13.9229 8.64999Z" fill="white" fill-opacity="0.85"/>
 </g>
</svg>
