<?xml version="1.0" encoding="UTF-8"?>
<!--Generator: Apple Native CoreSVG 341-->
<!DOCTYPE svg
PUBLIC "-//W3C//DTD SVG 1.1//EN"
       "http://www.w3.org/Graphics/SVG/1.1/DTD/svg11.dtd">
<svg version="1.1" xmlns="http://www.w3.org/2000/svg" xmlns:xlink="http://www.w3.org/1999/xlink" viewBox="0 0 18.5894 18.2316">
 <g>
  <rect height="18.2316" opacity="0" width="18.5894" x="0" y="0"/>
  <path d="M18.2281 3.17148L18.2281 15.0646C18.2281 17.1502 17.1404 18.2281 15.0246 18.2281L3.20351 18.2281C1.0957 18.2281 0 17.1502 0 15.0646L0 3.17148C0 1.08769 1.0957 0 3.20351 0L15.0246 0C17.1404 0 18.2281 1.08769 18.2281 3.17148ZM9.57773 7.73476C9.57773 9.07109 10.2039 10.3514 11.5207 10.3514C12.326 10.3514 12.9096 9.79921 13.1316 8.97324L13.1672 8.97324C13.1672 9.04042 13.1672 9.10761 13.1672 9.16503C13.1672 10.3275 13.0129 12.1055 12.0031 12.1055C11.5943 12.1055 11.325 11.8281 11.1607 11.4195C10.9939 11.0769 10.7898 10.943 10.4695 10.943C10.01 10.943 9.81738 11.249 9.81738 11.5986C9.81738 11.7123 9.84667 11.8498 9.88574 11.967C10.1076 12.8512 10.9777 13.3557 11.973 13.3557C14.0434 13.3557 14.6408 11.1057 14.6408 9.04335C14.6408 7.16367 14.0441 4.87773 11.9846 4.87773C10.4461 4.87773 9.57773 6.16855 9.57773 7.73476ZM3.7289 6.36835C3.67031 6.55839 3.64902 6.73593 3.64902 6.91347C3.64902 7.25078 3.86562 7.54433 4.30116 7.54433C4.66152 7.54433 4.89374 7.41738 4.99491 7.04999C5.14511 6.50526 5.43124 6.13593 5.96601 6.13593C6.58261 6.13593 6.86347 6.63144 6.86347 7.25156C6.86347 7.93652 6.50351 8.47011 5.77343 8.47011L5.5707 8.47011C5.19726 8.47011 4.97714 8.69375 4.97714 9.0416C4.97714 9.38945 5.20351 9.59882 5.5707 9.59882L5.7832 9.59882C6.6039 9.59882 7.0375 10.0447 7.0375 10.8717C7.0375 11.5176 6.70156 12.0957 6.00156 12.0957C5.33593 12.0957 5.03651 11.6496 4.90956 11.2152C4.80136 10.8621 4.5787 10.6855 4.22382 10.6855C3.79882 10.6855 3.51933 10.9455 3.51933 11.3625C3.51933 11.5516 3.54863 11.7309 3.59745 11.8934C3.88867 12.8273 4.9123 13.3361 6.00331 13.3361C7.46796 13.3361 8.57421 12.4297 8.57421 10.9363C8.57421 9.72851 7.85566 9.09394 7.00253 9.00253L7.00253 8.96972C7.858 8.7414 8.33984 7.9457 8.33984 7.083C8.33984 5.69003 7.29745 4.89726 5.95898 4.89726C4.93085 4.89726 4.00859 5.47089 3.7289 6.36835ZM12.9754 7.67343C12.9754 8.4371 12.6697 9.18535 12.0076 9.18535C11.3392 9.18535 11.0754 8.40331 11.0754 7.6664C11.0754 6.92148 11.381 6.13319 12.0076 6.13319C12.7018 6.13319 12.9754 6.92324 12.9754 7.67343Z" fill="white" fill-opacity="0.85"/>
 </g>
</svg>
