<?xml version="1.0" encoding="UTF-8"?>
<!--Generator: Apple Native CoreSVG 341-->
<!DOCTYPE svg
PUBLIC "-//W3C//DTD SVG 1.1//EN"
       "http://www.w3.org/Graphics/SVG/1.1/DTD/svg11.dtd">
<svg version="1.1" xmlns="http://www.w3.org/2000/svg" xmlns:xlink="http://www.w3.org/1999/xlink" viewBox="0 0 18.5894 18.2316">
 <g>
  <rect height="18.2316" opacity="0" width="18.5894" x="0" y="0"/>
  <path d="M3.20351 18.2281L15.0246 18.2281C17.1404 18.2281 18.2281 17.1502 18.2281 15.0646L18.2281 3.17148C18.2281 1.08769 17.1404 0 15.0246 0L3.20351 0C1.0957 0 0 1.08769 0 3.17148L0 15.0646C0 17.1502 1.0957 18.2281 3.20351 18.2281ZM3.31444 16.3148C2.40643 16.3148 1.91327 15.8465 1.91327 14.8977L1.91327 3.34023C1.91327 2.39139 2.40643 1.91503 3.31444 1.91503L14.9137 1.91503C15.8137 1.91503 16.3148 2.39139 16.3148 3.34023L16.3148 14.8977C16.3148 15.8465 15.8137 16.3148 14.9137 16.3148Z" fill="white" fill-opacity="0.85"/>
  <path d="M6.10273 13.1775C7.50624 13.1775 8.57441 12.3074 8.57441 10.8637C8.57441 9.70195 7.88066 9.09394 7.0621 9.00253L7.0621 8.97148C7.88476 8.75292 8.34355 7.99003 8.34355 7.15742C8.34355 5.82206 7.34726 5.05409 6.06015 5.05409C5.06659 5.05409 4.18242 5.60468 3.91249 6.47558C3.85566 6.6541 3.83437 6.82988 3.83437 6.99765C3.83437 7.32343 4.04745 7.60195 4.46171 7.60195C4.80702 7.60195 5.02597 7.47675 5.12714 7.12089C5.26757 6.59745 5.55194 6.2414 6.06367 6.2414C6.66074 6.2414 6.93183 6.72362 6.93183 7.3207C6.93183 7.98613 6.58164 8.49492 5.88437 8.49492L5.68163 8.49492C5.32324 8.49492 5.11464 8.70878 5.11464 9.0416C5.11464 9.37792 5.32949 9.57402 5.68163 9.57402L5.89413 9.57402C6.68027 9.57402 7.10234 10.0084 7.10234 10.8105C7.10234 11.4369 6.77617 11.9902 6.10097 11.9902C5.45487 11.9902 5.16522 11.5539 5.04179 11.1328C4.94335 10.8027 4.7162 10.6279 4.38437 10.6279C3.98066 10.6279 3.71445 10.8764 3.71445 11.2783C3.71445 11.4576 3.74374 11.6316 3.79257 11.7879C4.07226 12.6838 5.0498 13.1775 6.10273 13.1775ZM11.4074 10.3053C12.1861 10.3053 12.7502 9.77617 12.9625 8.97499L12.9963 8.97499C12.9963 9.03867 12.9963 9.10409 12.9963 9.15976C12.9963 10.2789 12.8438 12 11.873 12C11.4758 12 11.2144 11.7324 11.0519 11.3353C10.8984 11.0061 10.6961 10.8756 10.3891 10.8756C9.95253 10.8756 9.77324 11.1666 9.77324 11.5012C9.77324 11.6166 9.79902 11.7426 9.83007 11.8598C10.0502 12.7059 10.8857 13.1971 11.843 13.1971C13.8309 13.1971 14.4053 11.0312 14.4053 9.04335C14.4053 7.23456 13.8316 5.03632 11.8562 5.03632C10.3771 5.03632 9.53535 6.27753 9.53535 7.78437C9.53535 9.0746 10.1367 10.3053 11.4074 10.3053ZM11.8775 9.18886C11.2287 9.18886 10.9666 8.43613 10.9666 7.72402C10.9666 7.00566 11.2607 6.2289 11.8775 6.2289C12.5441 6.2289 12.8143 7.00742 12.8143 7.73105C12.8143 8.46191 12.5201 9.18886 11.8775 9.18886Z" fill="white" fill-opacity="0.85"/>
 </g>
</svg>
