<?xml version="1.0" encoding="UTF-8"?>
<!--Generator: Apple Native CoreSVG 341-->
<!DOCTYPE svg
PUBLIC "-//W3C//DTD SVG 1.1//EN"
       "http://www.w3.org/Graphics/SVG/1.1/DTD/svg11.dtd">
<svg version="1.1" xmlns="http://www.w3.org/2000/svg" xmlns:xlink="http://www.w3.org/1999/xlink" viewBox="0 0 18.5894 18.2316">
 <g>
  <rect height="18.2316" opacity="0" width="18.5894" x="0" y="0"/>
  <path d="M3.20351 18.2281L15.0246 18.2281C17.1404 18.2281 18.2281 17.1502 18.2281 15.0646L18.2281 3.17148C18.2281 1.08769 17.1404 0 15.0246 0L3.20351 0C1.0957 0 0 1.08769 0 3.17148L0 15.0646C0 17.1502 1.0957 18.2281 3.20351 18.2281ZM3.31444 16.3148C2.40643 16.3148 1.91327 15.8465 1.91327 14.8977L1.91327 3.34023C1.91327 2.39139 2.40643 1.91503 3.31444 1.91503L14.9137 1.91503C15.8137 1.91503 16.3148 2.39139 16.3148 3.34023L16.3148 14.8977C16.3148 15.8465 15.8137 16.3148 14.9137 16.3148Z" fill="white" fill-opacity="0.85"/>
  <path d="M5.33144 10.8648C5.33144 11.4463 5.71445 11.8002 6.31835 11.8002L9.81348 11.8002L9.81348 12.8125C9.81348 13.3969 10.1193 13.726 10.6283 13.726C11.1435 13.726 11.4592 13.4066 11.4592 12.8125L11.4592 11.8002L12.0105 11.8002C12.5221 11.8002 12.8297 11.5031 12.8297 11.0367C12.8297 10.6023 12.5238 10.3213 12.0123 10.3213L11.4592 10.3213L11.4592 8.49491C11.4592 7.93065 11.1418 7.60253 10.6266 7.60253C10.1176 7.60253 9.81348 7.94218 9.81348 8.49491L9.81348 10.3213L7.38866 10.3213C8.19296 8.81777 9.01366 7.35097 9.8084 5.84803C9.91562 5.63729 9.96621 5.4785 9.96621 5.29237C9.96621 4.86581 9.6623 4.5039 9.16211 4.5039C8.80938 4.5039 8.56368 4.67323 8.37032 5.03241C7.40723 6.75136 6.50898 8.35742 5.55019 10.0844C5.40312 10.3553 5.33144 10.6105 5.33144 10.8648Z" fill="white" fill-opacity="0.85"/>
 </g>
</svg>
