<?xml version="1.0" encoding="UTF-8"?>
<!--Generator: Apple Native CoreSVG 341-->
<!DOCTYPE svg
PUBLIC "-//W3C//DTD SVG 1.1//EN"
       "http://www.w3.org/Graphics/SVG/1.1/DTD/svg11.dtd">
<svg version="1.1" xmlns="http://www.w3.org/2000/svg" xmlns:xlink="http://www.w3.org/1999/xlink" viewBox="0 0 20.5381 20.1848">
 <g>
  <rect height="20.1848" opacity="0" width="20.5381" x="0" y="0"/>
  <path d="M10.0875 20.175C15.6576 20.175 20.1767 15.6559 20.1767 10.0875C20.1767 4.51914 15.6576 0 10.0875 0C4.51914 0 0 4.51914 0 10.0875C0 15.6559 4.51914 20.175 10.0875 20.175ZM10.0875 18.1879C5.60839 18.1879 1.9871 14.5666 1.9871 10.0875C1.9871 5.60839 5.60839 1.9871 10.0875 1.9871C14.5666 1.9871 18.1897 5.60839 18.1897 10.0875C18.1897 14.5666 14.5666 18.1879 10.0875 18.1879Z" fill="white" fill-opacity="0.85"/>
  <path d="M6.29199 11.8414C6.29199 12.4228 6.675 12.7767 7.27089 12.7767L10.774 12.7767L10.774 13.7891C10.774 14.3734 11.0816 14.7025 11.5889 14.7025C12.1041 14.7025 12.4117 14.3832 12.4117 13.7891L12.4117 12.7767L12.9711 12.7767C13.4826 12.7767 13.7902 12.4797 13.7902 12.0133C13.7902 11.5789 13.4844 11.2979 12.9728 11.2979L12.4117 11.2979L12.4117 9.47147C12.4117 8.90722 12.1023 8.57909 11.5871 8.57909C11.0781 8.57909 10.774 8.91874 10.774 9.47147L10.774 11.2979L8.34921 11.2979C9.15351 9.79433 9.9662 8.32753 10.7689 6.8246C10.8762 6.61386 10.9268 6.45507 10.9268 6.26894C10.9268 5.84238 10.6246 5.48046 10.1227 5.48046C9.76992 5.48046 9.52422 5.6498 9.33086 6.00898C8.36778 7.72793 7.46953 9.33398 6.51074 11.0609C6.36367 11.3318 6.29199 11.5871 6.29199 11.8414Z" fill="white" fill-opacity="0.85"/>
 </g>
</svg>
