<?xml version="1.0" encoding="UTF-8"?>
<!--Generator: Apple Native CoreSVG 341-->
<!DOCTYPE svg
PUBLIC "-//W3C//DTD SVG 1.1//EN"
       "http://www.w3.org/Graphics/SVG/1.1/DTD/svg11.dtd">
<svg version="1.1" xmlns="http://www.w3.org/2000/svg" xmlns:xlink="http://www.w3.org/1999/xlink" viewBox="0 0 18.5894 15.2672">
 <g>
  <rect height="15.2672" opacity="0" width="18.5894" x="0" y="0"/>
  <path d="M0 14.3074C0 14.832 0.428903 15.2672 0.953509 15.2672C1.48436 15.2672 1.91327 14.832 1.91327 14.3074L1.91327 1.01171C1.91327 0.487105 1.48436 0.0582016 0.953509 0.0582016C0.428903 0.0582016 0 0.487105 0 1.01171ZM16.3148 14.3074C16.3148 14.832 16.7518 15.2672 17.2746 15.2672C17.7992 15.2672 18.2281 14.832 18.2281 14.3074L18.2281 1.01171C18.2281 0.487105 17.7992 0.0582016 17.2746 0.0582016C16.7518 0.0582016 16.3148 0.487105 16.3148 1.01171Z" fill="white" fill-opacity="0.85"/>
  <path d="M10.3514 12.1392C10.7754 12.1392 11.1488 11.8988 11.1488 11.324L11.1488 10.4217L11.5295 10.4217C12.0014 10.4217 12.1922 10.1121 12.1922 9.75722C12.1922 9.36679 11.9853 9.083 11.5312 9.083L11.1488 9.083L11.1488 4.70702C11.1488 3.91659 10.6113 3.49257 9.82539 3.49257C9.03672 3.49257 8.65703 3.91307 8.30293 4.58924C7.68027 5.70018 6.7539 7.45819 6.28027 8.50585C6.14609 8.84784 6.03496 9.17206 6.03496 9.52831C6.03496 10.0482 6.40859 10.4217 6.98417 10.4217L9.5539 10.4217L9.5539 11.324C9.5539 11.8908 9.93359 12.1392 10.3514 12.1392ZM9.59824 9.13085L7.45175 9.13085L7.45175 9.04921C8.01503 7.76054 8.86796 6.10682 9.55293 4.86522L9.59824 4.86522Z" fill="white" fill-opacity="0.85"/>
 </g>
</svg>
