<?xml version="1.0" encoding="UTF-8"?>
<!--Generator: Apple Native CoreSVG 341-->
<!DOCTYPE svg
PUBLIC "-//W3C//DTD SVG 1.1//EN"
       "http://www.w3.org/Graphics/SVG/1.1/DTD/svg11.dtd">
<svg version="1.1" xmlns="http://www.w3.org/2000/svg" xmlns:xlink="http://www.w3.org/1999/xlink" viewBox="0 0 20.5381 20.1848">
 <g>
  <rect height="20.1848" opacity="0" width="20.5381" x="0" y="0"/>
  <path d="M10.0875 20.175C15.6576 20.175 20.1767 15.6559 20.1767 10.0875C20.1767 4.51914 15.6576 0 10.0875 0C4.51914 0 0 4.51914 0 10.0875C0 15.6559 4.51914 20.175 10.0875 20.175ZM10.0875 18.1879C5.60839 18.1879 1.9871 14.5666 1.9871 10.0875C1.9871 5.60839 5.60839 1.9871 10.0875 1.9871C14.5666 1.9871 18.1897 5.60839 18.1897 10.0875C18.1897 14.5666 14.5666 18.1879 10.0875 18.1879Z" fill="white" fill-opacity="0.85"/>
  <path d="M7.89609 14.1053C8.28202 14.1053 8.60058 13.8736 8.60058 13.3732L8.60058 12.4916L8.90117 12.4916C9.30566 12.4916 9.48417 12.2281 9.48417 11.8873C9.48417 11.5484 9.30937 11.3008 8.90292 11.3008L8.60058 11.3008L8.60058 7.18241C8.60058 6.47519 8.13827 6.07675 7.46308 6.07675C6.67832 6.07675 6.35254 6.52675 6.07031 7.19022L4.4998 10.684C4.3453 11.0666 4.28144 11.3469 4.28144 11.6602C4.28144 12.1658 4.61073 12.4916 5.13143 12.4916L7.18359 12.4916L7.18359 13.3732C7.18359 13.9102 7.55371 14.1053 7.89609 14.1053ZM7.21992 11.3353L5.53886 11.3353L5.53886 11.2652L7.18085 7.34237L7.21992 7.34237ZM12.9428 14.1799C14.8773 14.1799 15.4615 12.0258 15.4615 10.0875C15.4615 8.14921 14.8773 5.99335 12.9428 5.99335C11.01 5.99335 10.4258 8.14921 10.4258 10.0875C10.4258 12.0258 11.01 14.1799 12.9428 14.1799ZM12.9428 12.9615C12.2141 12.9615 11.9359 11.7436 11.9359 10.0875C11.9359 8.42167 12.2141 7.20546 12.9428 7.20546C13.6732 7.20546 13.9514 8.42167 13.9514 10.0875C13.9514 11.7436 13.6732 12.9615 12.9428 12.9615Z" fill="white" fill-opacity="0.85"/>
 </g>
</svg>
