<?xml version="1.0" encoding="UTF-8"?>
<!--Generator: Apple Native CoreSVG 341-->
<!DOCTYPE svg
PUBLIC "-//W3C//DTD SVG 1.1//EN"
       "http://www.w3.org/Graphics/SVG/1.1/DTD/svg11.dtd">
<svg version="1.1" xmlns="http://www.w3.org/2000/svg" xmlns:xlink="http://www.w3.org/1999/xlink" viewBox="0 0 18.5894 18.2316">
 <g>
  <rect height="18.2316" opacity="0" width="18.5894" x="0" y="0"/>
  <path d="M3.20351 18.2281L15.0246 18.2281C17.1404 18.2281 18.2281 17.1502 18.2281 15.0646L18.2281 3.17148C18.2281 1.08769 17.1404 0 15.0246 0L3.20351 0C1.0957 0 0 1.08769 0 3.17148L0 15.0646C0 17.1502 1.0957 18.2281 3.20351 18.2281ZM3.31444 16.3148C2.40643 16.3148 1.91327 15.8465 1.91327 14.8977L1.91327 3.34023C1.91327 2.39139 2.40643 1.91503 3.31444 1.91503L14.9137 1.91503C15.8137 1.91503 16.3148 2.39139 16.3148 3.34023L16.3148 14.8977C16.3148 15.8465 15.8137 16.3148 14.9137 16.3148Z" fill="white" fill-opacity="0.85"/>
  <path d="M6.93554 13.1287C7.32948 13.1287 7.64003 12.8971 7.64003 12.3967L7.64003 11.515L7.94062 11.515C8.35136 11.515 8.52363 11.2516 8.52363 10.9107C8.52363 10.5719 8.34882 10.3242 7.94238 10.3242L7.64003 10.3242L7.64003 6.20585C7.64003 5.49862 7.17773 5.10019 6.50253 5.10019C5.71777 5.10019 5.39199 5.55018 5.10976 6.21366L3.5455 9.70742C3.38476 10.09 3.32089 10.3703 3.32089 10.6836C3.32089 11.1893 3.65019 11.515 4.17089 11.515L6.22304 11.515L6.22304 12.3967C6.22304 12.9336 6.5914 13.1287 6.93554 13.1287ZM6.25761 10.3588L4.57831 10.3588L4.57831 10.2887L6.22031 6.36581L6.25761 6.36581ZM11.9822 13.2033C13.9168 13.2033 14.501 11.0492 14.501 9.11093C14.501 7.17265 13.9168 5.01679 11.9822 5.01679C10.0494 5.01679 9.46347 7.17265 9.46347 9.11093C9.46347 11.0492 10.0494 13.2033 11.9822 13.2033ZM11.9822 11.985C11.2518 11.985 10.9754 10.767 10.9754 9.11093C10.9754 7.44511 11.2518 6.2289 11.9822 6.2289C12.7127 6.2289 12.9908 7.44511 12.9908 9.11093C12.9908 10.767 12.7127 11.985 11.9822 11.985Z" fill="white" fill-opacity="0.85"/>
 </g>
</svg>
