<?xml version="1.0" encoding="UTF-8"?>
<!--Generator: Apple Native CoreSVG 341-->
<!DOCTYPE svg
PUBLIC "-//W3C//DTD SVG 1.1//EN"
       "http://www.w3.org/Graphics/SVG/1.1/DTD/svg11.dtd">
<svg version="1.1" xmlns="http://www.w3.org/2000/svg" xmlns:xlink="http://www.w3.org/1999/xlink" viewBox="0 0 20.5381 20.1848">
 <g>
  <rect height="20.1848" opacity="0" width="20.5381" x="0" y="0"/>
  <path d="M10.0875 20.175C15.6576 20.175 20.1767 15.6559 20.1767 10.0875C20.1767 4.51914 15.6576 0 10.0875 0C4.51914 0 0 4.51914 0 10.0875C0 15.6559 4.51914 20.175 10.0875 20.175ZM10.0875 18.1879C5.60839 18.1879 1.9871 14.5666 1.9871 10.0875C1.9871 5.60839 5.60839 1.9871 10.0875 1.9871C14.5666 1.9871 18.1897 5.60839 18.1897 10.0875C18.1897 14.5666 14.5666 18.1879 10.0875 18.1879Z" fill="white" fill-opacity="0.85"/>
  <path d="M8.59941 14.1053C8.98359 14.1053 9.30214 13.8736 9.30214 13.3732L9.30214 12.4916L9.59472 12.4916C10.0072 12.4916 10.1795 12.2281 10.1795 11.8873C10.1795 11.5484 10.0029 11.3008 9.59824 11.3008L9.30214 11.3008L9.30214 7.18241C9.30214 6.47519 8.83984 6.07675 8.15664 6.07675C7.37988 6.07675 7.05586 6.52675 6.77363 7.19022L5.20136 10.684C5.03886 11.0666 4.98476 11.3469 4.98476 11.6602C4.98476 12.1658 5.31405 12.4916 5.833 12.4916L7.8789 12.4916L7.8789 13.3732C7.8789 13.9102 8.25527 14.1053 8.59941 14.1053ZM7.91347 11.3353L6.24042 11.3353L6.24042 11.2652L7.88242 7.34237L7.91347 7.34237ZM13.3016 14.0857C13.7088 14.0857 14.0486 13.7459 14.0486 13.3307L14.0486 6.91347C14.0486 6.38027 13.7168 6.07323 13.1756 6.07323C12.7478 6.07323 12.4141 6.29257 12.1666 6.48417L11.1539 7.26679C10.9588 7.41757 10.8238 7.61015 10.8238 7.87109C10.8238 8.20546 11.0518 8.41503 11.3527 8.41503C11.5045 8.41503 11.6057 8.3662 11.7139 8.28905L12.5367 7.62968L12.5367 13.3307C12.5367 13.7459 12.8766 14.0857 13.3016 14.0857Z" fill="white" fill-opacity="0.85"/>
 </g>
</svg>
