<?xml version="1.0" encoding="UTF-8"?>
<!--Generator: Apple Native CoreSVG 341-->
<!DOCTYPE svg
PUBLIC "-//W3C//DTD SVG 1.1//EN"
       "http://www.w3.org/Graphics/SVG/1.1/DTD/svg11.dtd">
<svg version="1.1" xmlns="http://www.w3.org/2000/svg" xmlns:xlink="http://www.w3.org/1999/xlink" viewBox="0 0 18.5894 18.2316">
 <g>
  <rect height="18.2316" opacity="0" width="18.5894" x="0" y="0"/>
  <path d="M3.20351 18.2281L15.0246 18.2281C17.1404 18.2281 18.2281 17.1502 18.2281 15.0646L18.2281 3.17148C18.2281 1.08769 17.1404 0 15.0246 0L3.20351 0C1.0957 0 0 1.08769 0 3.17148L0 15.0646C0 17.1502 1.0957 18.2281 3.20351 18.2281ZM3.31444 16.3148C2.40643 16.3148 1.91327 15.8465 1.91327 14.8977L1.91327 3.34023C1.91327 2.39139 2.40643 1.91503 3.31444 1.91503L14.9137 1.91503C15.8137 1.91503 16.3148 2.39139 16.3148 3.34023L16.3148 14.8977C16.3148 15.8465 15.8137 16.3148 14.9137 16.3148Z" fill="white" fill-opacity="0.85"/>
  <path d="M7.6371 13.1287C8.02304 13.1287 8.34159 12.8971 8.34159 12.3967L8.34159 11.515L8.64218 11.515C9.04667 11.515 9.21718 11.2516 9.21718 10.9107C9.21718 10.5719 9.05038 10.3242 8.64394 10.3242L8.34159 10.3242L8.34159 6.20585C8.34159 5.49862 7.87929 5.10019 7.19609 5.10019C6.41934 5.10019 6.09355 5.55018 5.81133 6.21366L4.24081 9.70742C4.07831 10.09 4.02245 10.3703 4.02245 10.6836C4.02245 11.1893 4.35351 11.515 4.87245 11.515L6.92636 11.515L6.92636 12.3967C6.92636 12.9336 7.29472 13.1287 7.6371 13.1287ZM6.96093 10.3588L5.27987 10.3588L5.27987 10.2887L6.92187 6.36581L6.96093 6.36581ZM12.3393 13.1092C12.7482 13.1092 13.0881 12.7693 13.0881 12.3541L13.0881 5.9369C13.0881 5.4037 12.7562 5.09667 12.215 5.09667C11.7873 5.09667 11.4535 5.31601 11.2061 5.50761L10.1934 6.29023C9.99824 6.44101 9.86328 6.63359 9.86328 6.89452C9.86328 7.2289 10.0912 7.43847 10.3922 7.43847C10.5422 7.43847 10.6451 7.38964 10.7533 7.31249L11.5762 6.65311L11.5762 12.3541C11.5762 12.7693 11.916 13.1092 12.3393 13.1092Z" fill="white" fill-opacity="0.85"/>
 </g>
</svg>
