<?xml version="1.0" encoding="UTF-8"?>
<!--Generator: Apple Native CoreSVG 341-->
<!DOCTYPE svg
PUBLIC "-//W3C//DTD SVG 1.1//EN"
       "http://www.w3.org/Graphics/SVG/1.1/DTD/svg11.dtd">
<svg version="1.1" xmlns="http://www.w3.org/2000/svg" xmlns:xlink="http://www.w3.org/1999/xlink" viewBox="0 0 18.5894 18.2316">
 <g>
  <rect height="18.2316" opacity="0" width="18.5894" x="0" y="0"/>
  <path d="M3.20351 18.2281L15.0246 18.2281C17.1404 18.2281 18.2281 17.1502 18.2281 15.0646L18.2281 3.17148C18.2281 1.08769 17.1404 0 15.0246 0L3.20351 0C1.0957 0 0 1.08769 0 3.17148L0 15.0646C0 17.1502 1.0957 18.2281 3.20351 18.2281ZM3.31444 16.3148C2.40643 16.3148 1.91327 15.8465 1.91327 14.8977L1.91327 3.34023C1.91327 2.39139 2.40643 1.91503 3.31444 1.91503L14.9137 1.91503C15.8137 1.91503 16.3148 2.39139 16.3148 3.34023L16.3148 14.8977C16.3148 15.8465 15.8137 16.3148 14.9137 16.3148Z" fill="white" fill-opacity="0.85"/>
  <path d="M7.12187 13.1287C7.51581 13.1287 7.83437 12.8971 7.83437 12.3967L7.83437 11.515L8.12695 11.515C8.53769 11.515 8.70995 11.2516 8.70995 10.9107C8.70995 10.5719 8.53515 10.3242 8.1287 10.3242L7.83437 10.3242L7.83437 6.20585C7.83437 5.49862 7.36405 5.10019 6.68886 5.10019C5.91211 5.10019 5.58633 5.55018 5.3041 6.21366L3.73183 9.70742C3.57108 10.09 3.50722 10.3703 3.50722 10.6836C3.50722 11.1893 3.84452 11.515 4.35722 11.515L6.40937 11.515L6.40937 12.3967C6.40937 12.9336 6.78574 13.1287 7.12187 13.1287ZM6.44394 10.3588L4.76464 10.3588L4.76464 10.2887L6.40664 6.36581L6.44394 6.36581ZM10.3012 13L13.6125 13C13.9842 13 14.1955 12.7525 14.1955 12.4055C14.1955 12.0344 13.9762 11.8029 13.6125 11.8029L11.4193 11.8029L11.4193 11.7248L12.766 10.0324C13.6951 8.88652 14.0543 8.16913 14.0543 7.27636C14.0543 5.94394 13.1453 5.0203 11.8029 5.0203C10.567 5.0203 9.61621 6.02031 9.61621 7.03769C9.61621 7.41835 9.83984 7.68984 10.2338 7.68984C10.5648 7.68984 10.7795 7.53632 10.8842 7.18945C11.0539 6.59316 11.2787 6.20409 11.7949 6.20409C12.3555 6.20409 12.6408 6.69706 12.6408 7.3412C12.6408 8.10136 12.1213 8.86425 11.5869 9.5371L9.99238 11.5785C9.77343 11.8551 9.60996 12.101 9.60996 12.4037C9.60996 12.7603 9.83261 13 10.3012 13Z" fill="white" fill-opacity="0.85"/>
 </g>
</svg>
