<?xml version="1.0" encoding="UTF-8"?>
<!--Generator: Apple Native CoreSVG 341-->
<!DOCTYPE svg
PUBLIC "-//W3C//DTD SVG 1.1//EN"
       "http://www.w3.org/Graphics/SVG/1.1/DTD/svg11.dtd">
<svg version="1.1" xmlns="http://www.w3.org/2000/svg" xmlns:xlink="http://www.w3.org/1999/xlink" viewBox="0 0 18.5894 18.2316">
 <g>
  <rect height="18.2316" opacity="0" width="18.5894" x="0" y="0"/>
  <path d="M18.2281 3.17148L18.2281 15.0646C18.2281 17.1502 17.1404 18.2281 15.0246 18.2281L3.20351 18.2281C1.0957 18.2281 0 17.1502 0 15.0646L0 3.17148C0 1.08769 1.0957 0 3.20351 0L15.0246 0C17.1404 0 18.2281 1.08769 18.2281 3.17148ZM5.17109 6.11522L3.54823 9.72871C3.37773 10.1228 3.3121 10.4182 3.3121 10.743C3.3121 11.2752 3.66269 11.6143 4.20018 11.6143L6.32949 11.6143L6.32949 12.527C6.32949 13.0869 6.72089 13.2855 7.07831 13.2855C7.4873 13.2855 7.82089 13.0424 7.82089 12.527L7.82089 11.6143L8.12148 11.6143C8.54901 11.6143 8.73105 11.3375 8.73105 10.9834C8.73105 10.6295 8.54296 10.3686 8.12324 10.3686L7.82089 10.3686L7.82089 6.10214C7.82089 5.36484 7.32577 4.94335 6.6205 4.94335C5.8039 4.94335 5.46484 5.41542 5.17109 6.11522ZM9.6666 6.95703C9.6666 7.35898 9.8955 7.64198 10.3143 7.64198C10.6568 7.64198 10.8848 7.4787 10.9912 7.11855C11.1689 6.50097 11.3955 6.10038 11.933 6.10038C12.5068 6.10038 12.8019 6.60487 12.8019 7.27206C12.8019 8.06328 12.2594 8.86074 11.71 9.56015L10.0596 11.6689C9.82734 11.9605 9.6621 12.218 9.6621 12.5322C9.6621 12.9039 9.89003 13.1551 10.3816 13.1551L13.8215 13.1551C14.21 13.1551 14.431 12.8926 14.431 12.5357C14.431 12.1416 14.2019 11.9049 13.8215 11.9049L11.5494 11.9049L11.5494 11.8187L12.9422 10.0687C13.9059 8.88027 14.2801 8.13632 14.2801 7.2037C14.2801 5.82167 13.333 4.86171 11.941 4.86171C10.6572 4.86171 9.6666 5.89804 9.6666 6.95703ZM6.36757 10.4066L4.63065 10.4066L4.63065 10.3348L6.32675 6.26034L6.36757 6.26034Z" fill="white" fill-opacity="0.85"/>
 </g>
</svg>
