<?xml version="1.0" encoding="UTF-8"?>
<!--Generator: Apple Native CoreSVG 341-->
<!DOCTYPE svg
PUBLIC "-//W3C//DTD SVG 1.1//EN"
       "http://www.w3.org/Graphics/SVG/1.1/DTD/svg11.dtd">
<svg version="1.1" xmlns="http://www.w3.org/2000/svg" xmlns:xlink="http://www.w3.org/1999/xlink" viewBox="0 0 18.5894 18.2316">
 <g>
  <rect height="18.2316" opacity="0" width="18.5894" x="0" y="0"/>
  <path d="M3.20351 18.2281L15.0246 18.2281C17.1404 18.2281 18.2281 17.1502 18.2281 15.0646L18.2281 3.17148C18.2281 1.08769 17.1404 0 15.0246 0L3.20351 0C1.0957 0 0 1.08769 0 3.17148L0 15.0646C0 17.1502 1.0957 18.2281 3.20351 18.2281ZM3.31444 16.3148C2.40643 16.3148 1.91327 15.8465 1.91327 14.8977L1.91327 3.34023C1.91327 2.39139 2.40643 1.91503 3.31444 1.91503L14.9137 1.91503C15.8137 1.91503 16.3148 2.39139 16.3148 3.34023L16.3148 14.8977C16.3148 15.8465 15.8137 16.3148 14.9137 16.3148Z" fill="white" fill-opacity="0.85"/>
  <path d="M7.04921 13.1287C7.43339 13.1287 7.75195 12.8971 7.75195 12.3967L7.75195 11.515L8.05253 11.515C8.45702 11.515 8.63554 11.2516 8.63554 10.9107C8.63554 10.5719 8.46074 10.3242 8.05605 10.3242L7.75195 10.3242L7.75195 6.20585C7.75195 5.49862 7.28964 5.10019 6.61445 5.10019C5.82969 5.10019 5.50566 5.55018 5.22344 6.21366L3.65116 9.70742C3.49667 10.09 3.43456 10.3703 3.43456 10.6836C3.43456 11.1893 3.76386 11.515 4.2828 11.515L6.33671 11.515L6.33671 12.3967C6.33671 12.9336 6.70507 13.1287 7.04921 13.1287ZM6.37128 10.3588L4.69022 10.3588L4.69022 10.2887L6.33222 6.36581L6.37128 6.36581ZM11.9557 13.1775C13.3672 13.1775 14.4273 12.3074 14.4273 10.8637C14.4273 9.70195 13.7416 9.09394 12.923 9.00253L12.923 8.97148C13.7457 8.75292 14.1982 7.99003 14.1982 7.15742C14.1982 5.82206 13.2082 5.05409 11.9211 5.05409C10.9213 5.05409 10.0434 5.60468 9.76718 6.47558C9.7166 6.6541 9.69707 6.82988 9.69707 6.99765C9.69707 7.32343 9.91015 7.60195 10.3227 7.60195C10.66 7.60195 10.8887 7.47675 10.9881 7.12089C11.1285 6.59745 11.4066 6.2414 11.9264 6.2414C12.5217 6.2414 12.7928 6.72362 12.7928 7.3207C12.7928 7.98613 12.4426 8.49492 11.7453 8.49492L11.5426 8.49492C11.1842 8.49492 10.9676 8.70878 10.9676 9.0416C10.9676 9.37792 11.1904 9.57402 11.5426 9.57402L11.7551 9.57402C12.543 9.57402 12.965 10.0084 12.965 10.8105C12.965 11.4369 12.6389 11.9902 11.9619 11.9902C11.3158 11.9902 11.0199 11.5539 10.9027 11.1328C10.8043 10.8027 10.5771 10.6279 10.2453 10.6279C9.84335 10.6279 9.57714 10.8764 9.57714 11.2783C9.57714 11.4576 9.59668 11.6316 9.65351 11.7879C9.92519 12.6838 10.9107 13.1775 11.9557 13.1775Z" fill="white" fill-opacity="0.85"/>
 </g>
</svg>
