<?xml version="1.0" encoding="UTF-8"?>
<!--Generator: Apple Native CoreSVG 341-->
<!DOCTYPE svg
PUBLIC "-//W3C//DTD SVG 1.1//EN"
       "http://www.w3.org/Graphics/SVG/1.1/DTD/svg11.dtd">
<svg version="1.1" xmlns="http://www.w3.org/2000/svg" xmlns:xlink="http://www.w3.org/1999/xlink" viewBox="0 0 20.5381 23.885">
 <g>
  <rect height="23.885" opacity="0" width="20.5381" x="0" y="0"/>
  <path d="M12.0514 0.722792C12.0514-0.00845663 11.5078-0.191269 10.9557 0.203652L7.80273 2.47377C7.36582 2.79076 7.37382 3.27709 7.80273 3.58783L10.9637 5.85618C11.5078 6.24134 12.0514 6.06029 12.0514 5.34056ZM10.0875 22.0251C15.6576 22.0251 20.1767 17.5042 20.1767 11.9376C20.1767 6.36928 15.6656 1.85815 10.076 1.85014C9.52734 1.85815 9.09043 2.30131 9.09043 2.83568C9.09043 3.38431 9.53535 3.83724 10.084 3.83724C14.5666 3.83724 18.1897 7.45853 18.1897 11.9376C18.1897 16.4167 14.5666 20.038 10.0875 20.038C5.60839 20.038 1.9871 16.4167 1.9871 11.9376C1.9871 9.31087 3.23124 7.01262 5.15742 5.54407C5.61406 5.14817 5.7621 4.58548 5.42305 4.10677C5.10156 3.66341 4.45001 3.56029 3.93946 3.99427C1.51661 5.84759 0 8.71986 0 11.9376C0 17.5042 4.51914 22.0251 10.0875 22.0251Z" fill="white" fill-opacity="0.85"/>
  <path d="M7.88359 15.8933C8.25527 15.8933 8.58437 15.6839 8.58437 15.1747L8.58437 14.3853L8.91523 14.3853C9.33124 14.3853 9.50253 14.1183 9.50253 13.8042C9.50253 13.4662 9.31523 13.2169 8.91699 13.2169L8.58437 13.2169L8.58437 9.38001C8.58437 8.68627 8.11249 8.31634 7.42499 8.31634C6.74101 8.31634 6.3959 8.68275 6.09062 9.27728C5.54609 10.2515 4.73164 11.7947 4.31933 12.7154C4.20468 13.0023 4.10331 13.2972 4.10331 13.6081C4.10331 14.0642 4.42636 14.3853 4.9328 14.3853L7.19257 14.3853L7.19257 15.1747C7.19257 15.6759 7.52167 15.8933 7.88359 15.8933ZM7.22089 13.263L5.34628 13.263L5.34628 13.1912C5.83671 12.0552 6.58925 10.6111 7.18359 9.52044L7.22089 9.52044ZM12.9752 15.9697C14.5039 15.9697 15.4512 14.8492 15.4512 13.3169C15.4512 12.0224 14.7318 10.9099 13.4621 10.9099C12.8219 10.9099 12.2883 11.1976 12.0236 11.7107L11.9846 11.7107L12.1463 9.60013L14.5539 9.60013C14.9043 9.60013 15.1262 9.36595 15.1262 9.01283C15.1262 8.65619 14.9025 8.42728 14.5539 8.42728L11.7332 8.42728C11.2096 8.42728 10.9611 8.70502 10.9318 9.24017L10.7363 11.9941C10.707 12.4413 10.9457 12.7935 11.4105 12.7935C11.7363 12.7935 11.8853 12.6833 12.0842 12.4454C12.3027 12.1558 12.6049 11.964 12.9727 11.964C13.6904 11.964 14.0371 12.6328 14.0371 13.3497C14.0371 14.1386 13.6576 14.7888 12.9584 14.7888C12.4262 14.7888 12.0707 14.4494 11.8824 13.9855C11.7351 13.6962 11.524 13.5525 11.2508 13.5525C10.8844 13.5525 10.6502 13.7831 10.6502 14.1576C10.6502 14.3195 10.7004 14.4876 10.7922 14.6329C11.0767 15.4728 12.0807 15.9697 12.9752 15.9697Z" fill="white" fill-opacity="0.85"/>
 </g>
</svg>
