<?xml version="1.0" encoding="UTF-8"?>
<!--Generator: Apple Native CoreSVG 341-->
<!DOCTYPE svg
PUBLIC "-//W3C//DTD SVG 1.1//EN"
       "http://www.w3.org/Graphics/SVG/1.1/DTD/svg11.dtd">
<svg version="1.1" xmlns="http://www.w3.org/2000/svg" xmlns:xlink="http://www.w3.org/1999/xlink" viewBox="0 0 18.5894 18.2316">
 <g>
  <rect height="18.2316" opacity="0" width="18.5894" x="0" y="0"/>
  <path d="M3.20351 18.2281L15.0246 18.2281C17.1404 18.2281 18.2281 17.1502 18.2281 15.0646L18.2281 3.17148C18.2281 1.08769 17.1404 0 15.0246 0L3.20351 0C1.0957 0 0 1.08769 0 3.17148L0 15.0646C0 17.1502 1.0957 18.2281 3.20351 18.2281ZM3.31444 16.3148C2.40643 16.3148 1.91327 15.8465 1.91327 14.8977L1.91327 3.34023C1.91327 2.39139 2.40643 1.91503 3.31444 1.91503L14.9137 1.91503C15.8137 1.91503 16.3148 2.39139 16.3148 3.34023L16.3148 14.8977C16.3148 15.8465 15.8137 16.3148 14.9137 16.3148Z" fill="white" fill-opacity="0.85"/>
  <path d="M7.11406 13.1287C7.49824 13.1287 7.81855 12.8971 7.81855 12.3967L7.81855 11.515L8.10937 11.515C8.52187 11.515 8.69413 11.2516 8.69413 10.9107C8.69413 10.5719 8.51757 10.3242 8.11288 10.3242L7.81855 10.3242L7.81855 6.20585C7.81855 5.49862 7.34648 5.10019 6.67128 5.10019C5.89629 5.10019 5.57051 5.55018 5.28828 6.21366L3.71601 9.70742C3.55351 10.09 3.4914 10.3703 3.4914 10.6836C3.4914 11.1893 3.8287 11.515 4.33964 11.515L6.39355 11.515L6.39355 12.3967C6.39355 12.9336 6.76992 13.1287 7.11406 13.1287ZM6.42812 10.3588L4.75507 10.3588L4.75507 10.2887L6.38906 6.36581L6.42812 6.36581ZM12.0293 13.2033C13.5475 13.2033 14.3697 11.9381 14.3697 10.4039C14.3697 9.10195 13.7727 7.86445 12.5269 7.86445C11.9332 7.86445 11.4295 8.158 11.2064 8.68574L11.1576 8.68574L11.3113 6.4287L13.4998 6.4287C13.8662 6.4287 14.073 6.17675 14.073 5.82792C14.073 5.48456 13.8512 5.22363 13.4998 5.22363L10.8715 5.22363C10.3469 5.22363 10.1152 5.56445 10.0779 6.0828L9.93574 8.6707C9.92773 8.80136 9.91796 8.96816 9.91796 9.08632C9.91796 9.49257 10.1326 9.82636 10.5924 9.82636C10.8684 9.82636 11.0281 9.72421 11.2279 9.45703C11.4314 9.15937 11.6598 8.93202 12.017 8.93202C12.6852 8.93202 12.9322 9.76074 12.9322 10.4447C12.9322 11.192 12.6779 12.0062 12.0045 12.0062C11.5051 12.0062 11.2269 11.642 11.059 11.1541C10.9463 10.8258 10.7111 10.6705 10.4379 10.6705C10.059 10.6705 9.82558 10.9057 9.82558 11.2846C9.82558 11.4969 9.8789 11.6994 9.95175 11.8877C10.2742 12.6717 11.1346 13.2033 12.0293 13.2033Z" fill="white" fill-opacity="0.85"/>
 </g>
</svg>
