<?xml version="1.0" encoding="UTF-8"?>
<!--Generator: Apple Native CoreSVG 341-->
<!DOCTYPE svg
PUBLIC "-//W3C//DTD SVG 1.1//EN"
       "http://www.w3.org/Graphics/SVG/1.1/DTD/svg11.dtd">
<svg version="1.1" xmlns="http://www.w3.org/2000/svg" xmlns:xlink="http://www.w3.org/1999/xlink" viewBox="0 0 18.5894 18.2316">
 <g>
  <rect height="18.2316" opacity="0" width="18.5894" x="0" y="0"/>
  <path d="M18.2281 3.17148L18.2281 15.0646C18.2281 17.1502 17.1404 18.2281 15.0246 18.2281L3.20351 18.2281C1.0957 18.2281 0 17.1502 0 15.0646L0 3.17148C0 1.08769 1.0957 0 3.20351 0L15.0246 0C17.1404 0 18.2281 1.08769 18.2281 3.17148ZM10.975 5.06855C10.4238 5.06855 10.1824 5.42265 10.1451 5.96406L9.99316 8.64589C9.98515 8.78808 9.97538 8.95664 9.97538 9.08281C9.97538 9.50761 10.2016 9.85292 10.6861 9.85292C10.9736 9.85292 11.1369 9.74902 11.3465 9.46855C11.558 9.16113 11.7881 8.93202 12.1586 8.93202C12.848 8.93202 13.1031 9.78554 13.1031 10.4926C13.1031 11.2691 12.8408 12.1117 12.1461 12.1117C11.6334 12.1117 11.3473 11.7342 11.1678 11.2268C11.0516 10.8869 10.8066 10.7281 10.5201 10.7281C10.1279 10.7281 9.88124 10.9766 9.88124 11.3687C9.88124 11.5926 9.93632 11.8049 10.0092 11.9949C10.3494 12.8135 11.2461 13.3619 12.1709 13.3619C13.7502 13.3619 14.6088 12.0471 14.6088 10.4518C14.6088 9.10195 13.9887 7.8166 12.6951 7.8166C12.0748 7.8166 11.5578 8.12167 11.3267 8.66269L11.2779 8.66269L11.4299 6.32675L13.7008 6.32675C14.0822 6.32675 14.2988 6.07128 14.2988 5.69941C14.2988 5.34101 14.0654 5.06855 13.7008 5.06855ZM5.15176 6.10721L3.53066 9.72695C3.36015 10.1228 3.29452 10.4164 3.29452 10.743C3.29452 11.2734 3.64511 11.6107 4.18437 11.6107L6.30566 11.6107L6.30566 12.5172C6.30566 13.0771 6.70156 13.2838 7.06074 13.2838C7.46171 13.2838 7.79355 13.0406 7.79355 12.5172L7.79355 11.6107L8.09589 11.6107C8.52968 11.6107 8.7037 11.3357 8.7037 10.9834C8.7037 10.6295 8.52538 10.3686 8.09765 10.3686L7.79355 10.3686L7.79355 6.10038C7.79355 5.35683 7.3082 4.9416 6.59492 4.9416C5.78633 4.9416 5.44902 5.41542 5.15176 6.10721ZM6.34023 10.4031L4.61132 10.4031L4.61132 10.3348L6.30117 6.26034L6.34023 6.26034Z" fill="white" fill-opacity="0.85"/>
 </g>
</svg>
