<?xml version="1.0" encoding="UTF-8"?>
<!--Generator: Apple Native CoreSVG 341-->
<!DOCTYPE svg
PUBLIC "-//W3C//DTD SVG 1.1//EN"
       "http://www.w3.org/Graphics/SVG/1.1/DTD/svg11.dtd">
<svg version="1.1" xmlns="http://www.w3.org/2000/svg" xmlns:xlink="http://www.w3.org/1999/xlink" viewBox="0 0 18.5894 18.2316">
 <g>
  <rect height="18.2316" opacity="0" width="18.5894" x="0" y="0"/>
  <path d="M18.2281 3.17148L18.2281 15.0646C18.2281 17.1502 17.1404 18.2281 15.0246 18.2281L3.20351 18.2281C1.0957 18.2281 0 17.1502 0 15.0646L0 3.17148C0 1.08769 1.0957 0 3.20351 0L15.0246 0C17.1404 0 18.2281 1.08769 18.2281 3.17148ZM9.52617 9.19628C9.52617 11.076 10.1228 13.3619 12.1824 13.3619C13.7271 13.3619 14.5875 12.0711 14.5875 10.5049C14.5875 9.16855 13.9631 7.88828 12.6463 7.88828C11.841 7.88828 11.2557 8.44042 11.0318 9.2664L10.998 9.2664C10.998 9.19922 10.998 9.13203 10.998 9.07461C10.998 7.91211 11.1541 6.12792 12.1559 6.12792C12.5779 6.12792 12.8455 6.42909 13.0062 6.81562C13.1633 7.14218 13.3691 7.28241 13.7117 7.28241C14.149 7.28241 14.3301 6.98437 14.3301 6.633C14.3301 6.52734 14.3203 6.38984 14.2812 6.26464C14.0576 5.38847 13.1955 4.87773 12.2019 4.87773C10.1316 4.87773 9.52617 7.15175 9.52617 9.19628ZM4.96523 6.10721L3.34062 9.72695C3.17988 10.1228 3.11425 10.4182 3.11425 10.743C3.11425 11.2752 3.46484 11.6143 4.00233 11.6143L6.12363 11.6143L6.12363 12.5172C6.12363 13.0789 6.52304 13.2838 6.88046 13.2838C7.27968 13.2838 7.61327 13.0424 7.61327 12.5172L7.61327 11.6143L7.91386 11.6143C8.3414 11.6143 8.52343 11.3357 8.52343 10.9834C8.52343 10.6295 8.33534 10.3686 7.91562 10.3686L7.61327 10.3686L7.61327 6.10214C7.61327 5.35683 7.12616 4.94335 6.41464 4.94335C5.60605 4.94335 5.25898 5.41542 4.96523 6.10721ZM13.0916 10.5785C13.0916 11.3074 12.7939 12.1117 12.1576 12.1117C11.4732 12.1117 11.1898 11.2559 11.1898 10.5297C11.1898 9.80605 11.5053 9.0498 12.1576 9.0498C12.8277 9.0498 13.1076 9.8416 13.0916 10.5785ZM6.15996 10.4031L4.4328 10.4031L4.4328 10.3348L6.11914 6.26034L6.15996 6.26034Z" fill="white" fill-opacity="0.85"/>
 </g>
</svg>
