<?xml version="1.0" encoding="UTF-8"?>
<!--Generator: Apple Native CoreSVG 341-->
<!DOCTYPE svg
PUBLIC "-//W3C//DTD SVG 1.1//EN"
       "http://www.w3.org/Graphics/SVG/1.1/DTD/svg11.dtd">
<svg version="1.1" xmlns="http://www.w3.org/2000/svg" xmlns:xlink="http://www.w3.org/1999/xlink" viewBox="0 0 18.5894 18.2316">
 <g>
  <rect height="18.2316" opacity="0" width="18.5894" x="0" y="0"/>
  <path d="M3.20351 18.2281L15.0246 18.2281C17.1404 18.2281 18.2281 17.1502 18.2281 15.0646L18.2281 3.17148C18.2281 1.08769 17.1404 0 15.0246 0L3.20351 0C1.0957 0 0 1.08769 0 3.17148L0 15.0646C0 17.1502 1.0957 18.2281 3.20351 18.2281ZM3.31444 16.3148C2.40643 16.3148 1.91327 15.8465 1.91327 14.8977L1.91327 3.34023C1.91327 2.39139 2.40643 1.91503 3.31444 1.91503L14.9137 1.91503C15.8137 1.91503 16.3148 2.39139 16.3148 3.34023L16.3148 14.8977C16.3148 15.8465 15.8137 16.3148 14.9137 16.3148Z" fill="white" fill-opacity="0.85"/>
  <path d="M6.93378 13.1287C7.31972 13.1287 7.63827 12.8971 7.63827 12.3967L7.63827 11.515L7.93085 11.515C8.34159 11.515 8.51386 11.2516 8.51386 10.9107C8.51386 10.5719 8.33906 10.3242 7.93261 10.3242L7.63827 10.3242L7.63827 6.20585C7.63827 5.49862 7.16796 5.10019 6.49277 5.10019C5.71601 5.10019 5.39023 5.55018 5.10801 6.21366L3.53573 9.70742C3.37499 10.09 3.31112 10.3703 3.31112 10.6836C3.31112 11.1893 3.64843 11.515 4.16913 11.515L6.21328 11.515L6.21328 12.3967C6.21328 12.9336 6.58964 13.1287 6.93378 13.1287ZM6.24785 10.3588L4.57655 10.3588L4.57655 10.2887L6.21054 6.36581L6.24785 6.36581ZM12.0293 13.2033C13.5164 13.2033 14.3502 11.9621 14.3502 10.4553C14.3502 9.16503 13.7488 7.93437 12.4781 7.93437C11.6994 7.93437 11.1353 8.46347 10.923 9.26464L10.8892 9.26464C10.8892 9.20097 10.8892 9.13554 10.8892 9.07988C10.8892 7.96074 11.0418 6.23339 12.0045 6.23339C12.4168 6.23339 12.6746 6.5248 12.8336 6.8998C12.9809 7.21132 13.1814 7.3498 13.5045 7.3498C13.925 7.3498 14.0963 7.06503 14.0963 6.73046C14.0963 6.62304 14.0865 6.49706 14.0555 6.37363C13.8353 5.53378 13.0078 5.03632 12.0506 5.03632C10.0627 5.03632 9.48027 7.22441 9.48027 9.19628C9.48027 11.0051 10.0539 13.2033 12.0293 13.2033ZM12.008 12.0062C11.3494 12.0062 11.0713 11.1797 11.0713 10.4801C11.0713 9.78124 11.3734 9.04628 12.008 9.04628C12.6568 9.04628 12.935 9.80878 12.9189 10.5191C12.9189 11.2232 12.6248 12.0062 12.008 12.0062Z" fill="white" fill-opacity="0.85"/>
 </g>
</svg>
