<?xml version="1.0" encoding="UTF-8"?>
<!--Generator: Apple Native CoreSVG 341-->
<!DOCTYPE svg
PUBLIC "-//W3C//DTD SVG 1.1//EN"
       "http://www.w3.org/Graphics/SVG/1.1/DTD/svg11.dtd">
<svg version="1.1" xmlns="http://www.w3.org/2000/svg" xmlns:xlink="http://www.w3.org/1999/xlink" viewBox="0 0 18.5894 18.2316">
 <g>
  <rect height="18.2316" opacity="0" width="18.5894" x="0" y="0"/>
  <path d="M18.2281 3.17148L18.2281 15.0646C18.2281 17.1502 17.1404 18.2281 15.0246 18.2281L3.20351 18.2281C1.0957 18.2281 0 17.1502 0 15.0646L0 3.17148C0 1.08769 1.0957 0 3.20351 0L15.0246 0C17.1404 0 18.2281 1.08769 18.2281 3.17148ZM10.334 5.06855C9.96406 5.06855 9.71464 5.34179 9.71464 5.69589C9.71464 6.06679 9.96757 6.33476 10.334 6.33476L12.783 6.33476L12.783 6.42792L10.6521 12.0113C10.5723 12.2359 10.5314 12.3787 10.5314 12.6264C10.5314 12.9387 10.7338 13.29 11.2394 13.29C11.6484 13.29 11.817 13.133 11.9635 12.7514L14.1723 6.77323C14.2832 6.44667 14.3613 6.19374 14.3613 5.87968C14.3613 5.39159 13.9922 5.06855 13.5139 5.06855ZM5.43867 6.10721L3.82558 9.72695C3.66132 10.1228 3.5957 10.4182 3.5957 10.743C3.5957 11.2734 3.93827 11.6143 4.48554 11.6143L6.60507 11.6143L6.60507 12.5172C6.60507 13.0771 6.99648 13.2838 7.35566 13.2838C7.75488 13.2838 8.08847 13.0424 8.08847 12.5172L8.08847 11.6143L8.39706 11.6143C8.8246 11.6143 9.00663 11.3357 9.00663 10.9834C9.00663 10.6295 8.82831 10.3686 8.39882 10.3686L8.08847 10.3686L8.08847 6.10214C8.08847 5.35683 7.60937 4.94335 6.89785 4.94335C6.07949 4.94335 5.73418 5.41542 5.43867 6.10721ZM6.64316 10.4031L4.90624 10.4031L4.90624 10.3348L6.60234 6.26034L6.64316 6.26034Z" fill="white" fill-opacity="0.85"/>
 </g>
</svg>
