<?xml version="1.0" encoding="UTF-8"?>
<!--Generator: Apple Native CoreSVG 341-->
<!DOCTYPE svg
PUBLIC "-//W3C//DTD SVG 1.1//EN"
       "http://www.w3.org/Graphics/SVG/1.1/DTD/svg11.dtd">
<svg version="1.1" xmlns="http://www.w3.org/2000/svg" xmlns:xlink="http://www.w3.org/1999/xlink" viewBox="0 0 18.5894 18.2316">
 <g>
  <rect height="18.2316" opacity="0" width="18.5894" x="0" y="0"/>
  <path d="M18.2281 3.17148L18.2281 15.0646C18.2281 17.1502 17.1404 18.2281 15.0246 18.2281L3.20351 18.2281C1.0957 18.2281 0 17.1502 0 15.0646L0 3.17148C0 1.08769 1.0957 0 3.20351 0L15.0246 0C17.1404 0 18.2281 1.08769 18.2281 3.17148ZM9.72148 7.06621C9.72148 8.07929 10.367 8.683 11.0133 8.88007L11.0133 8.91113C10.1574 9.10117 9.50214 9.89921 9.50214 10.9736C9.50214 12.4555 10.6297 13.3379 12.1166 13.3379C13.682 13.3379 14.7408 12.3787 14.7408 10.9754C14.7408 9.89472 14.0641 9.09667 13.2457 8.91113L13.2457 8.88007C13.9336 8.66796 14.5197 8.00839 14.5197 7.07597C14.5197 5.76562 13.5406 4.8955 12.1166 4.8955C10.856 4.8955 9.72148 5.65195 9.72148 7.06621ZM4.97754 6.10721L3.35644 9.72695C3.20019 10.1228 3.12655 10.4182 3.12655 10.743C3.12655 11.2734 3.4789 11.6143 4.0164 11.6143L6.1457 11.6143L6.1457 12.5172C6.1457 13.0789 6.52734 13.2838 6.88476 13.2838C7.2955 13.2838 7.62558 13.0424 7.62558 12.5172L7.62558 11.6143L7.93769 11.6143C8.35546 11.6143 8.53749 11.3357 8.53749 10.9834C8.53749 10.6295 8.35917 10.3686 7.93945 10.3686L7.62558 10.3686L7.62558 6.10214C7.62558 5.35683 7.14198 4.94335 6.4287 4.94335C5.61211 4.94335 5.2748 5.41542 4.97754 6.10721ZM13.1199 10.8494C13.1199 11.5758 12.785 12.1879 12.1166 12.1879C11.4545 12.1879 11.123 11.5758 11.123 10.8494C11.123 10.1426 11.4625 9.53847 12.1166 9.53847C12.7609 9.53847 13.1199 10.1105 13.1199 10.8494ZM6.18203 10.4031L4.44511 10.4031L4.44511 10.3348L6.14296 6.26034L6.18203 6.26034ZM12.999 7.22499C12.999 7.87499 12.6934 8.39824 12.1166 8.39824C11.5336 8.39824 11.2457 7.81718 11.2457 7.22499C11.2457 6.59277 11.5496 6.03573 12.1166 6.03573C12.7094 6.03573 12.999 6.59277 12.999 7.22499Z" fill="white" fill-opacity="0.85"/>
 </g>
</svg>
