<?xml version="1.0" encoding="UTF-8"?>
<!--Generator: Apple Native CoreSVG 341-->
<!DOCTYPE svg
PUBLIC "-//W3C//DTD SVG 1.1//EN"
       "http://www.w3.org/Graphics/SVG/1.1/DTD/svg11.dtd">
<svg version="1.1" xmlns="http://www.w3.org/2000/svg" xmlns:xlink="http://www.w3.org/1999/xlink" viewBox="0 0 20.5381 20.1848">
 <g>
  <rect height="20.1848" opacity="0" width="20.5381" x="0" y="0"/>
  <path d="M10.0875 20.175C15.6576 20.175 20.1767 15.6559 20.1767 10.0875C20.1767 4.51914 15.6576 0 10.0875 0C4.51914 0 0 4.51914 0 10.0875C0 15.6559 4.51914 20.175 10.0875 20.175ZM10.0875 18.1879C5.60839 18.1879 1.9871 14.5666 1.9871 10.0875C1.9871 5.60839 5.60839 1.9871 10.0875 1.9871C14.5666 1.9871 18.1897 5.60839 18.1897 10.0875C18.1897 14.5666 14.5666 18.1879 10.0875 18.1879Z" fill="white" fill-opacity="0.85"/>
  <path d="M8.03906 14.1053C8.433 14.1053 8.74355 13.8736 8.74355 13.3732L8.74355 12.4916L9.04413 12.4916C9.45663 12.4916 9.62714 12.2281 9.62714 11.8873C9.62714 11.5484 9.45234 11.3008 9.04589 11.3008L8.74355 11.3008L8.74355 7.18241C8.74355 6.47519 8.28124 6.07675 7.60605 6.07675C6.82129 6.07675 6.49551 6.52675 6.21328 7.19022L4.65077 10.684C4.48827 11.0666 4.42441 11.3469 4.42441 11.6602C4.42441 12.1658 4.75546 12.4916 5.2744 12.4916L7.32832 12.4916L7.32832 13.3732C7.32832 13.9102 7.70468 14.1053 8.03906 14.1053ZM7.36289 11.3353L5.68183 11.3353L5.68183 11.2652L7.32382 7.34237L7.36289 7.34237ZM12.4176 11.2818C13.2043 11.2818 13.7684 10.7527 13.9807 9.95156L14.0145 9.95156C14.0145 10.0152 14.0145 10.0807 14.0145 10.1363C14.0145 11.2555 13.8619 12.9766 12.8912 12.9766C12.4939 12.9766 12.2326 12.709 12.0621 12.3119C11.9166 11.9826 11.7143 11.8521 11.4072 11.8521C10.9707 11.8521 10.7914 12.1432 10.7914 12.4777C10.7914 12.5932 10.8172 12.7191 10.8482 12.8363C11.0603 13.6824 11.8959 14.1736 12.8531 14.1736C14.841 14.1736 15.4234 12.0078 15.4234 10.0199C15.4234 8.21113 14.8498 6.01288 12.8744 6.01288C11.3953 6.01288 10.5535 7.25409 10.5535 8.76093C10.5535 10.0512 11.1566 11.2818 12.4176 11.2818ZM12.8975 10.1654C12.2469 10.1654 11.9767 9.41269 11.9767 8.70058C11.9767 7.98222 12.2807 7.20546 12.8975 7.20546C13.5543 7.20546 13.8324 7.98398 13.8324 8.70761C13.8324 9.43847 13.5303 10.1654 12.8975 10.1654Z" fill="white" fill-opacity="0.85"/>
 </g>
</svg>
