<?xml version="1.0" encoding="UTF-8"?>
<!--Generator: Apple Native CoreSVG 341-->
<!DOCTYPE svg
PUBLIC "-//W3C//DTD SVG 1.1//EN"
       "http://www.w3.org/Graphics/SVG/1.1/DTD/svg11.dtd">
<svg version="1.1" xmlns="http://www.w3.org/2000/svg" xmlns:xlink="http://www.w3.org/1999/xlink" viewBox="0 0 18.5894 18.2316">
 <g>
  <rect height="18.2316" opacity="0" width="18.5894" x="0" y="0"/>
  <path d="M18.2281 3.17148L18.2281 15.0646C18.2281 17.1502 17.1404 18.2281 15.0246 18.2281L3.20351 18.2281C1.0957 18.2281 0 17.1502 0 15.0646L0 3.17148C0 1.08769 1.0957 0 3.20351 0L15.0246 0C17.1404 0 18.2281 1.08769 18.2281 3.17148ZM9.63886 7.73476C9.63886 9.07109 10.2615 10.3514 11.5801 10.3514C12.3934 10.3514 12.977 9.79921 13.1928 8.97324L13.2266 8.97324C13.2266 9.04042 13.2266 9.10761 13.2266 9.16503C13.2266 10.3275 13.0723 12.1055 12.0687 12.1055C11.6617 12.1055 11.3924 11.8281 11.2103 11.4195C11.0631 11.0769 10.8492 10.943 10.5289 10.943C10.0773 10.943 9.88652 11.249 9.88652 11.5986C9.88652 11.7123 9.9123 11.8498 9.94511 11.967C10.175 12.8512 11.0371 13.3557 12.0404 13.3557C14.101 13.3557 14.7002 11.1057 14.7002 9.04335C14.7002 7.16367 14.1035 4.87773 12.0537 4.87773C10.5152 4.87773 9.63886 6.16855 9.63886 7.73476ZM5.11797 6.10721L3.49511 9.72695C3.33261 10.1228 3.26698 10.4182 3.26698 10.743C3.26698 11.2734 3.61757 11.6143 4.15507 11.6143L6.27636 11.6143L6.27636 12.5172C6.27636 13.0789 6.67578 13.2838 7.0332 13.2838C7.43241 13.2838 7.76601 13.0424 7.76601 12.5172L7.76601 11.6143L8.0666 11.6143C8.49589 11.6143 8.67792 11.3357 8.67792 10.9834C8.67792 10.6295 8.48984 10.3686 8.07011 10.3686L7.76601 10.3686L7.76601 6.10214C7.76601 5.35683 7.28066 4.94335 6.56738 4.94335C5.75879 4.94335 5.41172 5.41542 5.11797 6.10721ZM6.31269 10.4031L4.57753 10.4031L4.57753 10.3348L6.27187 6.26034L6.31269 6.26034ZM13.0428 7.67343C13.0428 8.4371 12.7291 9.18535 12.075 9.18535C11.4049 9.18535 11.125 8.40331 11.125 7.6664C11.125 6.92148 11.4387 6.13319 12.075 6.13319C12.7531 6.13319 13.0428 6.92324 13.0428 7.67343Z" fill="white" fill-opacity="0.85"/>
 </g>
</svg>
