<?xml version="1.0" encoding="UTF-8"?>
<!--Generator: Apple Native CoreSVG 341-->
<!DOCTYPE svg
PUBLIC "-//W3C//DTD SVG 1.1//EN"
       "http://www.w3.org/Graphics/SVG/1.1/DTD/svg11.dtd">
<svg version="1.1" xmlns="http://www.w3.org/2000/svg" xmlns:xlink="http://www.w3.org/1999/xlink" viewBox="0 0 20.5381 20.1848">
 <g>
  <rect height="20.1848" opacity="0" width="20.5381" x="0" y="0"/>
  <path d="M20.1767 10.0875C20.1767 15.6478 15.6576 20.175 10.0875 20.175C4.52715 20.175 0 15.6478 0 10.0875C0 4.51914 4.52715 0 10.0875 0C15.6576 0 20.1767 4.51914 20.1767 10.0875ZM11.7324 6.89413L10.1396 13.0281C10.1103 13.1488 10.0678 13.39 10.0678 13.524C10.0678 13.9658 10.3518 14.2684 10.8051 14.2684C11.2361 14.2684 11.5068 14.0484 11.5885 13.5516L11.8685 12.3187L13.9943 12.3187L14.2877 13.5666C14.3916 14.1018 14.6979 14.2684 15.0969 14.2684C15.5174 14.2684 15.8182 13.9445 15.8182 13.524C15.8182 13.3508 15.7836 13.1729 15.7463 13.0201L14.15 6.89413C13.9867 6.20488 13.5344 5.92792 12.9213 5.92792C12.3045 5.92792 11.8957 6.23691 11.7324 6.89413ZM5.625 7.08378L4.01191 10.7035C3.84765 11.0994 3.78202 11.3947 3.78202 11.7195C3.78202 12.25 4.13437 12.5908 4.67362 12.5908L6.79316 12.5908L6.79316 13.4937C6.79316 14.0537 7.19082 14.2603 7.54023 14.2603C7.95097 14.2603 8.28105 14.0189 8.28105 13.4937L8.28105 12.5908L8.58515 12.5908C9.01093 12.5908 9.19296 12.3123 9.19296 11.96C9.19296 11.6061 9.01464 11.3451 8.58691 11.3451L8.28105 11.3451L8.28105 7.0787C8.28105 6.33339 7.79745 5.91992 7.08417 5.91992C6.27559 5.91992 5.93027 6.39198 5.625 7.08378ZM6.82949 11.3797L5.09257 11.3797L5.09257 11.3113L6.79043 7.23691L6.82949 7.23691ZM13.7289 11.1404L12.1305 11.1404L12.876 7.71483L12.9506 7.71483Z" fill="white" fill-opacity="0.85"/>
 </g>
</svg>
