<?xml version="1.0" encoding="UTF-8"?>
<!--Generator: Apple Native CoreSVG 341-->
<!DOCTYPE svg
PUBLIC "-//W3C//DTD SVG 1.1//EN"
       "http://www.w3.org/Graphics/SVG/1.1/DTD/svg11.dtd">
<svg version="1.1" xmlns="http://www.w3.org/2000/svg" xmlns:xlink="http://www.w3.org/1999/xlink" viewBox="0 0 25.5392 14.6613">
 <g>
  <rect height="14.6613" opacity="0" width="25.5392" x="0" y="0"/>
  <path d="M7.92187 14.6207C8.50936 14.6207 8.95584 14.1582 8.95584 13.5449L8.95584 11.516L10.0674 11.516C10.6055 11.516 10.99 11.1635 10.99 10.6254C10.99 10.1113 10.5992 9.73477 10.0691 9.73477L8.95584 9.73477L8.95584 1.71874C8.95584 0.734369 8.22226 0.0361317 7.19277 0.0361317C6.14161 0.0361317 5.51603 0.759761 5.0131 1.61249L0.357813 9.02246C0.126953 9.40762 0 9.81758 0 10.1955C0 10.926 0.464646 11.516 1.41991 11.516L6.88789 11.516L6.88789 13.5449C6.88789 14.24 7.40019 14.6207 7.92187 14.6207ZM6.91699 9.77891L1.94725 9.77891L1.94725 9.68926L6.82559 2.01874L6.91699 2.01874ZM13.8931 14.6471C14.5496 14.6471 14.8879 14.3814 15.0998 13.6887L16.1873 10.6527L21.7644 10.6527L22.8537 13.6887C23.0639 14.3814 23.4021 14.6471 24.0523 14.6471C24.7369 14.6471 25.1779 14.2361 25.1779 13.5984C25.1779 13.3639 25.1398 13.1602 25.0441 12.8971L20.7207 1.22186C20.4257 0.402926 19.8724 0 18.9838 0C18.1357 0 17.5779 0.396675 17.2893 1.21385L12.943 12.9473C12.8525 13.1981 12.8127 13.4105 12.8127 13.6188C12.8127 14.2547 13.2254 14.6471 13.8931 14.6471ZM16.7467 8.83789L18.9562 2.49237L19.0121 2.49237L21.2199 8.83789Z" fill="white" fill-opacity="0.85"/>
 </g>
</svg>
