<?xml version="1.0" encoding="UTF-8"?>
<!--Generator: Apple Native CoreSVG 341-->
<!DOCTYPE svg
PUBLIC "-//W3C//DTD SVG 1.1//EN"
       "http://www.w3.org/Graphics/SVG/1.1/DTD/svg11.dtd">
<svg version="1.1" xmlns="http://www.w3.org/2000/svg" xmlns:xlink="http://www.w3.org/1999/xlink" viewBox="0 0 20.5381 20.1848">
 <g>
  <rect height="20.1848" opacity="0" width="20.5381" x="0" y="0"/>
  <path d="M20.1767 10.0875C20.1767 15.6478 15.6576 20.175 10.0875 20.175C4.52715 20.175 0 15.6478 0 10.0875C0 4.51914 4.52715 0 10.0875 0C15.6576 0 20.1767 4.51914 20.1767 10.0875ZM5.49629 7.08378L3.88144 10.7035C3.71718 11.0994 3.65507 11.3947 3.65507 11.7195C3.65507 12.25 3.99589 12.5908 4.54315 12.5908L6.66269 12.5908L6.66269 13.5018C6.66269 14.0555 7.05234 14.2603 7.41328 14.2603C7.8205 14.2603 8.14609 14.0189 8.14609 13.5018L8.14609 12.5908L8.45468 12.5908C8.88222 12.5908 9.06425 12.3123 9.06425 11.96C9.06425 11.6061 8.88417 11.3451 8.45644 11.3451L8.14609 11.3451L8.14609 7.0787C8.14609 6.33339 7.66699 5.91992 6.95371 5.91992C6.13711 5.91992 5.7918 6.39198 5.49629 7.08378ZM14.0926 6.6998L14.0926 9.37402L11.8142 9.37402L11.8142 6.6998C11.8142 6.25624 11.4699 5.91015 11.0246 5.91015C10.5891 5.91015 10.2412 6.25624 10.2412 6.6998L10.2412 13.4574C10.2412 13.9107 10.5891 14.2586 11.0246 14.2586C11.4699 14.2586 11.8142 13.9107 11.8142 13.4574L11.8142 10.6766L14.0926 10.6766L14.0926 13.4574C14.0926 13.9107 14.4422 14.2586 14.8857 14.2586C15.3133 14.2586 15.6674 13.9107 15.6674 13.4574L15.6674 6.6998C15.6674 6.25624 15.3133 5.91015 14.8857 5.91015C14.4422 5.91015 14.0926 6.25624 14.0926 6.6998ZM6.69902 11.3797L4.96386 11.3797L4.96386 11.3113L6.65996 7.23691L6.69902 7.23691Z" fill="white" fill-opacity="0.85"/>
 </g>
</svg>
