<?xml version="1.0" encoding="UTF-8"?>
<!--Generator: Apple Native CoreSVG 341-->
<!DOCTYPE svg
PUBLIC "-//W3C//DTD SVG 1.1//EN"
       "http://www.w3.org/Graphics/SVG/1.1/DTD/svg11.dtd">
<svg version="1.1" xmlns="http://www.w3.org/2000/svg" xmlns:xlink="http://www.w3.org/1999/xlink" viewBox="0 0 20.5381 20.1848">
 <g>
  <rect height="20.1848" opacity="0" width="20.5381" x="0" y="0"/>
  <path d="M10.0875 20.175C15.6576 20.175 20.1767 15.6559 20.1767 10.0875C20.1767 4.51914 15.6576 0 10.0875 0C4.51914 0 0 4.51914 0 10.0875C0 15.6559 4.51914 20.175 10.0875 20.175ZM10.0875 18.1879C5.60839 18.1879 1.9871 14.5666 1.9871 10.0875C1.9871 5.60839 5.60839 1.9871 10.0875 1.9871C14.5666 1.9871 18.1897 5.60839 18.1897 10.0875C18.1897 14.5666 14.5666 18.1879 10.0875 18.1879Z" fill="white" fill-opacity="0.85"/>
  <path d="M7.48769 14.1053C7.88163 14.1053 8.19218 13.8736 8.19218 13.3732L8.19218 12.4916L8.49277 12.4916C8.90527 12.4916 9.07577 12.2281 9.07577 11.8873C9.07577 11.5484 8.90097 11.3008 8.49452 11.3008L8.19218 11.3008L8.19218 7.18241C8.19218 6.47519 7.72988 6.07675 7.05468 6.07675C6.26992 6.07675 5.94414 6.52675 5.66191 7.19022L4.09941 10.684C3.93691 11.0666 3.87304 11.3469 3.87304 11.6602C3.87304 12.1658 4.20233 12.4916 4.72304 12.4916L6.77695 12.4916L6.77695 13.3732C6.77695 13.9102 7.14531 14.1053 7.48769 14.1053ZM6.81152 11.3353L5.13046 11.3353L5.13046 11.2652L6.77246 7.34237L6.81152 7.34237ZM10.9652 14.1035C11.3857 14.1035 11.7185 13.7672 11.7185 13.3387L11.7185 10.65L13.9232 10.65L13.9232 13.3387C13.9232 13.7672 14.2578 14.1035 14.6783 14.1035C15.0891 14.1035 15.4316 13.7672 15.4316 13.3387L15.4316 6.81855C15.4316 6.3998 15.0891 6.06523 14.6783 6.06523C14.2578 6.06523 13.9232 6.3998 13.9232 6.81855L13.9232 9.40058L11.7185 9.40058L11.7185 6.81855C11.7185 6.3998 11.3857 6.06523 10.9652 6.06523C10.5465 6.06523 10.2102 6.3998 10.2102 6.81855L10.2102 13.3387C10.2102 13.7672 10.5465 14.1035 10.9652 14.1035Z" fill="white" fill-opacity="0.85"/>
 </g>
</svg>
