<?xml version="1.0" encoding="UTF-8"?>
<!--Generator: Apple Native CoreSVG 341-->
<!DOCTYPE svg
PUBLIC "-//W3C//DTD SVG 1.1//EN"
       "http://www.w3.org/Graphics/SVG/1.1/DTD/svg11.dtd">
<svg version="1.1" xmlns="http://www.w3.org/2000/svg" xmlns:xlink="http://www.w3.org/1999/xlink" viewBox="0 0 25.1146 20.0754">
 <g>
  <rect height="20.0754" opacity="0" width="25.1146" x="0" y="0"/>
  <path d="M2.69257 16.6478L22.0607 16.6478C23.741 16.6478 24.7533 15.6275 24.7533 13.9553L24.7533 2.69257C24.7533 1.02031 23.741 0 22.0607 0L2.69257 0C1.02031 0 0 1.02031 0 2.69257L0 13.9553C0 15.6275 1.02031 16.6478 2.69257 16.6478ZM2.80272 14.7803C2.21307 14.7803 1.86757 14.4435 1.86757 13.8531L1.86757 2.79647C1.86757 2.20429 2.21307 1.86932 2.80272 1.86932L21.9506 1.86932C22.5402 1.86932 22.8857 2.20429 22.8857 2.79647L22.8857 13.8531C22.8857 14.4435 22.5402 14.7803 21.9506 14.7803ZM7.38105 20.0638L17.3723 20.0638C17.8582 20.0638 18.2582 19.6631 18.2582 19.1797C18.2582 18.6963 17.8582 18.2955 17.3723 18.2955L7.38105 18.2955C6.89512 18.2955 6.49512 18.6963 6.49512 19.1797C6.49512 19.6631 6.89512 20.0638 7.38105 20.0638Z" fill="white" fill-opacity="0.85"/>
  <path d="M9.79628 12.3537C10.1805 12.3537 10.5008 12.1141 10.5008 11.6137L10.5008 10.732L10.8014 10.732C11.2041 10.732 11.3844 10.4685 11.3844 10.1357C11.3844 9.78886 11.2078 9.5412 10.8031 9.5412L10.5008 9.5412L10.5008 5.42284C10.5008 4.71561 10.0385 4.32518 9.36152 4.32518C8.57851 4.32518 8.25273 4.77518 7.9705 5.43865L6.39823 8.93242C6.2455 9.30703 6.18163 9.5873 6.18163 9.90058C6.18163 10.4062 6.51093 10.732 7.02987 10.732L9.08378 10.732L9.08378 11.6137C9.08378 12.1506 9.45214 12.3537 9.79628 12.3537ZM9.11835 9.57577L7.43729 9.57577L7.43729 9.51367L9.07929 5.59081L9.11835 5.59081ZM13.2641 12.36C13.7832 12.36 14.0271 12.0094 14.0271 11.5738L14.0271 9.94179L14.6074 9.00819L16.2006 11.7824C16.4064 12.1594 16.6008 12.3404 17.0045 12.3404C17.4162 12.3404 17.685 12.0414 17.685 11.6394C17.685 11.4158 17.6353 11.2625 17.5119 11.0432L15.7297 7.99921L17.2828 5.6328C17.4088 5.44842 17.4859 5.2826 17.4859 5.02362C17.4859 4.68026 17.2287 4.34745 16.8098 4.34745C16.4053 4.34745 16.2562 4.56737 16.1117 4.81991L14.0892 8.02402L14.0156 8.02402L14.0156 5.11581C14.0156 4.66073 13.7609 4.32968 13.2623 4.32968C12.7875 4.32968 12.5107 4.6244 12.5107 5.11581L12.5107 11.5738C12.5107 12.0467 12.7832 12.36 13.2641 12.36Z" fill="white" fill-opacity="0.85"/>
 </g>
</svg>
