<?xml version="1.0" encoding="UTF-8"?>
<!--Generator: Apple Native CoreSVG 341-->
<!DOCTYPE svg
PUBLIC "-//W3C//DTD SVG 1.1//EN"
       "http://www.w3.org/Graphics/SVG/1.1/DTD/svg11.dtd">
<svg version="1.1" xmlns="http://www.w3.org/2000/svg" xmlns:xlink="http://www.w3.org/1999/xlink" viewBox="0 0 20.5381 20.1848">
 <g>
  <rect height="20.1848" opacity="0" width="20.5381" x="0" y="0"/>
  <path d="M10.0875 20.175C15.6576 20.175 20.1767 15.6559 20.1767 10.0875C20.1767 4.51914 15.6576 0 10.0875 0C4.51914 0 0 4.51914 0 10.0875C0 15.6559 4.51914 20.175 10.0875 20.175ZM10.0875 18.1879C5.60839 18.1879 1.9871 14.5666 1.9871 10.0875C1.9871 5.60839 5.60839 1.9871 10.0875 1.9871C14.5666 1.9871 18.1897 5.60839 18.1897 10.0875C18.1897 14.5666 14.5666 18.1879 10.0875 18.1879Z" fill="white" fill-opacity="0.85"/>
  <path d="M8.22988 14.1053C8.61405 14.1053 8.93437 13.8736 8.93437 13.3732L8.93437 12.4916L9.23495 12.4916C9.63769 12.4916 9.81796 12.2281 9.81796 11.8873C9.81796 11.5484 9.6414 11.3008 9.23671 11.3008L8.93437 11.3008L8.93437 7.18241C8.93437 6.47519 8.47206 6.07675 7.7871 6.07675C7.01211 6.07675 6.68633 6.52675 6.4041 7.19022L4.83183 10.684C4.67909 11.0666 4.61523 11.3469 4.61523 11.6602C4.61523 12.1658 4.94452 12.4916 5.46347 12.4916L7.51738 12.4916L7.51738 13.3732C7.51738 13.9102 7.88574 14.1053 8.22988 14.1053ZM7.55195 11.3353L5.87089 11.3353L5.87089 11.2652L7.51289 7.34237L7.55195 7.34237ZM11.6799 13.9801L14.3418 13.9801C14.7057 13.9801 14.9922 13.7732 14.9922 13.3545C14.9922 12.9543 14.718 12.7352 14.3418 12.7352L12.4465 12.7352L12.4465 6.88065C12.4465 6.41581 12.2203 6.07675 11.6896 6.07675C11.2025 6.07675 10.9443 6.38554 10.9443 6.88065L10.9443 13.202C10.9443 13.6873 11.2025 13.9801 11.6799 13.9801Z" fill="white" fill-opacity="0.85"/>
 </g>
</svg>
