<?xml version="1.0" encoding="UTF-8"?>
<!--Generator: Apple Native CoreSVG 341-->
<!DOCTYPE svg
PUBLIC "-//W3C//DTD SVG 1.1//EN"
       "http://www.w3.org/Graphics/SVG/1.1/DTD/svg11.dtd">
<svg version="1.1" xmlns="http://www.w3.org/2000/svg" xmlns:xlink="http://www.w3.org/1999/xlink" viewBox="0 0 20.5381 23.885">
 <g>
  <rect height="23.885" opacity="0" width="20.5381" x="0" y="0"/>
  <path d="M12.0514 0.722792C12.0514-0.00845663 11.5078-0.191269 10.9557 0.203652L7.80273 2.47377C7.36582 2.79076 7.37382 3.27709 7.80273 3.58783L10.9637 5.85618C11.5078 6.24134 12.0514 6.06029 12.0514 5.34056ZM10.0875 22.0251C15.6576 22.0251 20.1767 17.5042 20.1767 11.9376C20.1767 6.36928 15.6656 1.85815 10.076 1.85014C9.52734 1.85815 9.09043 2.30131 9.09043 2.83568C9.09043 3.38431 9.53535 3.83724 10.084 3.83724C14.5666 3.83724 18.1897 7.45853 18.1897 11.9376C18.1897 16.4167 14.5666 20.038 10.0875 20.038C5.60839 20.038 1.9871 16.4167 1.9871 11.9376C1.9871 9.31087 3.23124 7.01262 5.15742 5.54407C5.61406 5.14817 5.7621 4.58548 5.42305 4.10677C5.10156 3.66341 4.45001 3.56029 3.93946 3.99427C1.51661 5.84759 0 8.71986 0 11.9376C0 17.5042 4.51914 22.0251 10.0875 22.0251Z" fill="white" fill-opacity="0.85"/>
  <path d="M10.1273 15.9697C11.6578 15.9697 12.6051 14.8492 12.6051 13.3169C12.6051 12.0242 11.884 10.9099 10.6143 10.9099C9.98202 10.9099 9.44042 11.2074 9.18554 11.7107L9.14648 11.7107L9.29843 9.59837L11.7061 9.59837C12.0564 9.59837 12.2801 9.36595 12.2801 9.01283C12.2801 8.65619 12.0627 8.42552 11.7061 8.42552L8.89511 8.42552C8.37148 8.42552 8.12304 8.71302 8.08574 9.24193L7.89824 12.0021C7.86894 12.4511 8.10585 12.8015 8.5707 12.8015C8.88847 12.8015 9.03925 12.6833 9.23808 12.4517C9.45488 12.1558 9.75703 11.9658 10.1248 11.9658C10.8523 11.9658 11.191 12.6328 11.191 13.3578C11.191 14.1386 10.8115 14.7968 10.1123 14.7968C9.58007 14.7968 9.21484 14.4494 9.03456 13.9837C8.8953 13.6962 8.68593 13.5525 8.40292 13.5525C8.03652 13.5525 7.8041 13.7814 7.8041 14.1478C7.8041 14.3195 7.8623 14.4876 7.94608 14.6249C8.2289 15.4728 9.2328 15.9697 10.1273 15.9697Z" fill="white" fill-opacity="0.85"/>
 </g>
</svg>
