<?xml version="1.0" encoding="UTF-8"?>
<!--Generator: Apple Native CoreSVG 341-->
<!DOCTYPE svg
PUBLIC "-//W3C//DTD SVG 1.1//EN"
       "http://www.w3.org/Graphics/SVG/1.1/DTD/svg11.dtd">
<svg version="1.1" xmlns="http://www.w3.org/2000/svg" xmlns:xlink="http://www.w3.org/1999/xlink" viewBox="0 0 20.1969 18.2476">
 <g>
  <rect height="18.2476" opacity="0" width="20.1969" x="0" y="0"/>
  <path d="M3.20351 18.2476L16.64 18.2476C18.7478 18.2476 19.8355 17.16 19.8355 15.0762L19.8355 3.19101C19.8355 1.10547 18.7478 0.0195312 16.64 0.0195312L3.20351 0.0195312C1.0957 0.0195312 0 1.09746 0 3.19101L0 15.0762C0 17.168 1.0957 18.2476 3.20351 18.2476ZM3.17655 16.3344C2.35663 16.3344 1.91327 15.9141 1.91327 15.0551L1.91327 6.03241C1.91327 5.18144 2.35663 4.75487 3.17655 4.75487L16.651 4.75487C17.4709 4.75487 17.9223 5.18144 17.9223 6.03241L17.9223 15.0551C17.9223 15.9141 17.4709 16.3344 16.651 16.3344Z" fill="white" fill-opacity="0.85"/>
  <path d="M9.87909 14.8023C11.7678 14.8023 13.0301 13.6633 13.0301 11.9145C13.0301 10.327 11.9121 9.24804 10.2891 9.24804C9.54784 9.24804 8.80018 9.56679 8.49022 10.0275L8.40956 10.0275L8.60155 7.79335L12.0512 7.79335C12.4392 7.79335 12.7008 7.54413 12.7008 7.16737C12.7008 6.78085 12.4508 6.53515 12.0512 6.53515L8.34628 6.53515C7.72519 6.53515 7.31171 6.89609 7.27089 7.46562L7.0496 10.2826C7.00703 10.8723 7.34316 11.2369 7.93437 11.2369C8.29452 11.2369 8.5119 11.1535 8.84589 10.9082C9.23866 10.5926 9.55234 10.4646 9.98945 10.4646C10.8418 10.4646 11.4213 11.0601 11.4213 11.9463C11.4213 12.8369 10.7467 13.4938 9.84902 13.4938C9.16933 13.4938 8.61014 13.1693 8.31796 12.6395C8.1494 12.3773 7.92577 12.2371 7.60936 12.2371C7.17773 12.2371 6.90195 12.5076 6.90195 12.8986C6.90195 13.0584 6.94101 13.2084 6.9996 13.3486C7.34765 14.2402 8.40136 14.8023 9.87909 14.8023Z" fill="white" fill-opacity="0.85"/>
 </g>
</svg>
