<?xml version="1.0" encoding="UTF-8"?>
<!--Generator: Apple Native CoreSVG 341-->
<!DOCTYPE svg
PUBLIC "-//W3C//DTD SVG 1.1//EN"
       "http://www.w3.org/Graphics/SVG/1.1/DTD/svg11.dtd">
<svg version="1.1" xmlns="http://www.w3.org/2000/svg" xmlns:xlink="http://www.w3.org/1999/xlink" viewBox="0 0 18.5894 15.2672">
 <g>
  <rect height="15.2672" opacity="0" width="18.5894" x="0" y="0"/>
  <path d="M0 14.3074C0 14.832 0.428903 15.2672 0.953509 15.2672C1.48436 15.2672 1.91327 14.832 1.91327 14.3074L1.91327 1.01171C1.91327 0.487105 1.48436 0.0582016 0.953509 0.0582016C0.428903 0.0582016 0 0.487105 0 1.01171ZM16.3148 14.3074C16.3148 14.832 16.7518 15.2672 17.2746 15.2672C17.7992 15.2672 18.2281 14.832 18.2281 14.3074L18.2281 1.01171C18.2281 0.487105 17.7992 0.0582016 17.2746 0.0582016C16.7518 0.0582016 16.3148 0.487105 16.3148 1.01171Z" fill="white" fill-opacity="0.85"/>
  <path d="M9.16679 12.2254C10.9076 12.2254 11.9934 10.9486 11.9934 9.20605C11.9934 7.72773 11.1666 6.45722 9.71308 6.45722C8.99296 6.45722 8.383 6.79374 8.08105 7.36718L8.04023 7.36718L8.21972 4.95643L10.9621 4.95643C11.3648 4.95643 11.6213 4.6912 11.6213 4.29374C11.6213 3.88475 11.3711 3.61327 10.9621 3.61327L7.75703 3.61327C7.15351 3.61327 6.87226 3.94335 6.83496 4.55214L6.61992 7.69589C6.58261 8.20702 6.86035 8.61151 7.38105 8.61151C7.74941 8.61151 7.91972 8.48358 8.14784 8.21288C8.39394 7.87792 8.7414 7.66034 9.16425 7.66034C9.98418 7.66034 10.3744 8.42323 10.3744 9.24687C10.3744 10.1334 9.94336 10.884 9.14199 10.884C8.53691 10.884 8.12812 10.4894 7.91855 9.96249C7.74999 9.63241 7.5078 9.46738 7.19199 9.46738C6.77324 9.46738 6.508 9.72909 6.508 10.1496C6.508 10.3381 6.57148 10.5346 6.67206 10.6967C6.99296 11.6592 8.14433 12.2254 9.16679 12.2254Z" fill="white" fill-opacity="0.85"/>
 </g>
</svg>
