<?xml version="1.0" encoding="UTF-8"?>
<!--Generator: Apple Native CoreSVG 341-->
<!DOCTYPE svg
PUBLIC "-//W3C//DTD SVG 1.1//EN"
       "http://www.w3.org/Graphics/SVG/1.1/DTD/svg11.dtd">
<svg version="1.1" xmlns="http://www.w3.org/2000/svg" xmlns:xlink="http://www.w3.org/1999/xlink" viewBox="0 0 18.5894 18.2316">
 <g>
  <rect height="18.2316" opacity="0" width="18.5894" x="0" y="0"/>
  <path d="M3.20351 18.2281L15.0246 18.2281C17.1404 18.2281 18.2281 17.1502 18.2281 15.0646L18.2281 3.17148C18.2281 1.08769 17.1404 0 15.0246 0L3.20351 0C1.0957 0 0 1.08769 0 3.17148L0 15.0646C0 17.1502 1.0957 18.2281 3.20351 18.2281ZM3.31444 16.3148C2.40643 16.3148 1.91327 15.8465 1.91327 14.8977L1.91327 3.34023C1.91327 2.39139 2.40643 1.91503 3.31444 1.91503L14.9137 1.91503C15.8137 1.91503 16.3148 2.39139 16.3148 3.34023L16.3148 14.8977C16.3148 15.8465 15.8137 16.3148 14.9137 16.3148Z" fill="white" fill-opacity="0.85"/>
  <path d="M9.06562 13.726C11.1166 13.726 12.5014 12.484 12.5014 10.5781C12.5014 8.85664 11.2777 7.67832 9.51093 7.67832C8.69784 7.67832 7.88808 8.02812 7.54882 8.52168L7.46464 8.52168L7.6744 6.10272L11.4303 6.10272C11.8484 6.10272 12.1348 5.82245 12.1348 5.40936C12.1348 4.99277 11.86 4.72577 11.4303 4.72577L7.38906 4.72577C6.71035 4.72577 6.2623 5.11952 6.22148 5.7369L5.98066 8.80254C5.93008 9.44179 6.30078 9.84101 6.94335 9.84101C7.33632 9.84101 7.57675 9.75409 7.93827 9.49101C8.36835 9.14159 8.70956 9.0039 9.17597 9.0039C10.1092 9.0039 10.734 9.65273 10.734 10.6197C10.734 11.5832 10.0043 12.3014 9.02753 12.3014C8.283 12.3014 7.67851 11.9414 7.36503 11.376C7.17694 11.0881 6.93202 10.9283 6.5873 10.9283C6.11933 10.9283 5.81699 11.2316 5.81699 11.6572C5.81699 11.8285 5.85605 11.99 5.92617 12.1418C6.30351 13.1133 7.45215 13.726 9.06562 13.726Z" fill="white" fill-opacity="0.85"/>
 </g>
</svg>
