<?xml version="1.0" encoding="UTF-8"?>
<!--Generator: Apple Native CoreSVG 341-->
<!DOCTYPE svg
PUBLIC "-//W3C//DTD SVG 1.1//EN"
       "http://www.w3.org/Graphics/SVG/1.1/DTD/svg11.dtd">
<svg version="1.1" xmlns="http://www.w3.org/2000/svg" xmlns:xlink="http://www.w3.org/1999/xlink" viewBox="0 0 20.1969 18.2476">
 <g>
  <rect height="18.2476" opacity="0" width="20.1969" x="0" y="0"/>
  <path d="M3.20351 18.2476L16.64 18.2476C18.7478 18.2476 19.8355 17.16 19.8355 15.0762L19.8355 3.19101C19.8355 1.10547 18.7478 0.0195312 16.64 0.0195312L3.20351 0.0195312C1.0957 0.0195312 0 1.09746 0 3.19101L0 15.0762C0 17.168 1.0957 18.2476 3.20351 18.2476ZM3.17655 16.3344C2.35663 16.3344 1.91327 15.9141 1.91327 15.0551L1.91327 6.03241C1.91327 5.18144 2.35663 4.75487 3.17655 4.75487L16.651 4.75487C17.4709 4.75487 17.9223 5.18144 17.9223 6.03241L17.9223 15.0551C17.9223 15.9141 17.4709 16.3344 16.651 16.3344Z" fill="white" fill-opacity="0.85"/>
  <path d="M10.0025 14.8023C11.8514 14.8023 13.143 13.7309 13.143 11.9125C13.143 10.2615 11.9119 9.31503 10.4879 9.31503C9.3578 9.31503 8.66268 9.8748 8.36268 10.4992C8.34315 10.4992 8.31034 10.4992 8.29081 10.4992C8.28729 10.4523 8.28553 10.4055 8.28553 10.3523C8.28553 8.708 9.04452 7.62557 10.1801 7.62557C10.7541 7.62557 11.0855 7.8744 11.3359 8.16151C11.6201 8.41835 11.8019 8.57636 12.1408 8.57636C12.5033 8.57636 12.7756 8.33339 12.7756 7.9707C12.7756 7.81113 12.7357 7.6746 12.6613 7.53183C12.3588 6.87207 11.3937 6.32656 10.2236 6.32656C8.04472 6.32656 6.6955 7.80663 6.6955 10.7088C6.6955 11.9139 6.91836 12.8088 7.308 13.4328C7.88945 14.3836 8.88281 14.8023 10.0025 14.8023ZM9.92812 13.5479C9.02421 13.5479 8.37538 12.8848 8.37538 11.9631C8.37538 11.0752 9.02421 10.4424 9.93613 10.4424C10.8561 10.4424 11.4889 11.0672 11.4889 11.9711C11.4889 12.923 10.8801 13.5479 9.92812 13.5479Z" fill="white" fill-opacity="0.85"/>
 </g>
</svg>
