<?xml version="1.0" encoding="UTF-8"?>
<!--Generator: Apple Native CoreSVG 341-->
<!DOCTYPE svg
PUBLIC "-//W3C//DTD SVG 1.1//EN"
       "http://www.w3.org/Graphics/SVG/1.1/DTD/svg11.dtd">
<svg version="1.1" xmlns="http://www.w3.org/2000/svg" xmlns:xlink="http://www.w3.org/1999/xlink" viewBox="0 0 20.5381 20.1848">
 <g>
  <rect height="20.1848" opacity="0" width="20.5381" x="0" y="0"/>
  <path d="M10.0875 20.175C15.6576 20.175 20.1767 15.6559 20.1767 10.0875C20.1767 4.51914 15.6576 0 10.0875 0C4.51914 0 0 4.51914 0 10.0875C0 15.6559 4.51914 20.175 10.0875 20.175ZM10.0875 18.1879C5.60839 18.1879 1.9871 14.5666 1.9871 10.0875C1.9871 5.60839 5.60839 1.9871 10.0875 1.9871C14.5666 1.9871 18.1897 5.60839 18.1897 10.0875C18.1897 14.5666 14.5666 18.1879 10.0875 18.1879Z" fill="white" fill-opacity="0.85"/>
  <path d="M10.1611 14.7025C12.1803 14.7025 13.5881 13.5441 13.5881 11.5545C13.5881 9.75527 12.2398 8.72714 10.6916 8.72714C9.46561 8.72714 8.70038 9.34023 8.37909 10.0152C8.3578 10.0152 8.31698 10.0152 8.29745 10.0152C8.29217 9.95859 8.29042 9.90996 8.29042 9.86133C8.29042 8.06503 9.11425 6.89198 10.36 6.89198C10.9811 6.89198 11.34 7.16659 11.61 7.47323C11.9154 7.75761 12.1266 7.92538 12.4902 7.92538C12.8908 7.92538 13.1781 7.65937 13.1781 7.27011C13.1781 7.08925 13.1383 6.93144 13.0603 6.77714C12.733 6.06503 11.6685 5.47245 10.4035 5.47245C8.02324 5.47245 6.55781 7.07675 6.55781 10.2461C6.55781 11.5586 6.80019 12.5352 7.22265 13.2053C7.85644 14.2475 8.93496 14.7025 10.1611 14.7025ZM10.0769 13.3338C9.10019 13.3338 8.39628 12.6174 8.39628 11.6131C8.39628 10.6461 9.09218 9.95995 10.085 9.95995C11.0857 9.95995 11.7736 10.6381 11.7736 11.6228C11.7736 12.6557 11.1115 13.3338 10.0769 13.3338Z" fill="white" fill-opacity="0.85"/>
 </g>
</svg>
