<?xml version="1.0" encoding="UTF-8"?>
<!--Generator: Apple Native CoreSVG 341-->
<!DOCTYPE svg
PUBLIC "-//W3C//DTD SVG 1.1//EN"
       "http://www.w3.org/Graphics/SVG/1.1/DTD/svg11.dtd">
<svg version="1.1" xmlns="http://www.w3.org/2000/svg" xmlns:xlink="http://www.w3.org/1999/xlink" viewBox="0 0 20.5381 20.1848">
 <g>
  <rect height="20.1848" opacity="0" width="20.5381" x="0" y="0"/>
  <path d="M20.1767 10.0875C20.1767 15.6478 15.6576 20.175 10.0875 20.175C4.52715 20.175 0 15.6478 0 10.0875C0 4.51914 4.52715 0 10.0875 0C15.6576 0 20.1767 4.51914 20.1767 10.0875ZM7.50917 5.52246C7.04863 5.52246 6.74473 5.82206 6.74473 6.27753C6.74473 6.72499 7.05664 7.0326 7.50917 7.0326L11.5703 7.0326L11.5703 7.116L8.03613 13.4117C7.9289 13.6086 7.86953 13.7805 7.86953 14.0154C7.86953 14.526 8.28359 14.8762 8.82148 14.8762C9.23807 14.8762 9.50682 14.6926 9.76541 14.2176L13.3775 7.60115C13.6045 7.18787 13.6726 6.93006 13.6726 6.64491C13.6726 5.98984 13.1672 5.52246 12.3986 5.52246Z" fill="white" fill-opacity="0.85"/>
 </g>
</svg>
