<?xml version="1.0" encoding="UTF-8"?>
<!--Generator: Apple Native CoreSVG 341-->
<!DOCTYPE svg
PUBLIC "-//W3C//DTD SVG 1.1//EN"
       "http://www.w3.org/Graphics/SVG/1.1/DTD/svg11.dtd">
<svg version="1.1" xmlns="http://www.w3.org/2000/svg" xmlns:xlink="http://www.w3.org/1999/xlink" viewBox="0 0 18.5894 15.2672">
 <g>
  <rect height="15.2672" opacity="0" width="18.5894" x="0" y="0"/>
  <path d="M0 14.3074C0 14.832 0.428903 15.2672 0.953509 15.2672C1.48436 15.2672 1.91327 14.832 1.91327 14.3074L1.91327 1.01171C1.91327 0.487105 1.48436 0.0582016 0.953509 0.0582016C0.428903 0.0582016 0 0.487105 0 1.01171ZM16.3148 14.3074C16.3148 14.832 16.7518 15.2672 17.2746 15.2672C17.7992 15.2672 18.2281 14.832 18.2281 14.3074L18.2281 1.01171C18.2281 0.487105 17.7992 0.0582016 17.2746 0.0582016C16.7518 0.0582016 16.3148 0.487105 16.3148 1.01171Z" fill="white" fill-opacity="0.85"/>
  <path d="M8.15781 12.1392C8.55878 12.1392 8.76366 11.976 8.91093 11.606L11.5213 5.45155C11.657 5.13749 11.7582 4.83319 11.7582 4.48807C11.7582 3.91229 11.3271 3.62128 10.8338 3.62128L7.0998 3.62128C6.70234 3.62128 6.4371 3.88475 6.4371 4.28397C6.4371 4.67518 6.70234 4.94842 7.0998 4.94842L10.0684 4.94842L10.0684 5.02479L7.51562 10.8324C7.43398 11.0365 7.37539 11.2148 7.37539 11.4402C7.37539 11.8527 7.70273 12.1392 8.15781 12.1392Z" fill="white" fill-opacity="0.85"/>
 </g>
</svg>
