<?xml version="1.0" encoding="UTF-8"?>
<!--Generator: Apple Native CoreSVG 341-->
<!DOCTYPE svg
PUBLIC "-//W3C//DTD SVG 1.1//EN"
       "http://www.w3.org/Graphics/SVG/1.1/DTD/svg11.dtd">
<svg version="1.1" xmlns="http://www.w3.org/2000/svg" xmlns:xlink="http://www.w3.org/1999/xlink" viewBox="0 0 20.1969 18.2476">
 <g>
  <rect height="18.2476" opacity="0" width="20.1969" x="0" y="0"/>
  <path d="M3.20351 18.2476L16.64 18.2476C18.7478 18.2476 19.8355 17.16 19.8355 15.0762L19.8355 3.19101C19.8355 1.10547 18.7478 0.0195312 16.64 0.0195312L3.20351 0.0195312C1.0957 0.0195312 0 1.09746 0 3.19101L0 15.0762C0 17.168 1.0957 18.2476 3.20351 18.2476ZM3.17655 16.3344C2.35663 16.3344 1.91327 15.9141 1.91327 15.0551L1.91327 6.03241C1.91327 5.18144 2.35663 4.75487 3.17655 4.75487L16.651 4.75487C17.4709 4.75487 17.9223 5.18144 17.9223 6.03241L17.9223 15.0551C17.9223 15.9141 17.4709 16.3344 16.651 16.3344Z" fill="white" fill-opacity="0.85"/>
  <path d="M9.92265 14.8023C11.907 14.8023 13.2269 13.8336 13.2269 12.3768C13.2269 11.3709 12.5016 10.5654 11.4203 10.3664L11.4203 10.3053C12.3398 10.0478 12.8887 9.35585 12.8887 8.50175C12.8887 7.21093 11.6859 6.32656 9.93241 6.32656C8.18515 6.32656 6.98418 7.21093 6.98418 8.50175C6.98418 9.35585 7.51523 10.0238 8.45078 10.3053L8.45078 10.3664C7.36328 10.5654 6.64414 11.3789 6.64414 12.3848C6.64414 13.8416 7.94003 14.8023 9.92265 14.8023ZM9.94042 13.6533C8.99022 13.6533 8.30135 13.0783 8.30135 12.2803C8.30135 11.5062 8.99823 10.9197 9.94042 10.9197C10.8986 10.9197 11.5777 11.4982 11.5777 12.2803C11.5777 13.0783 10.8906 13.6533 9.94042 13.6533ZM9.93241 9.8459C9.14218 9.8459 8.5742 9.34199 8.5742 8.64784C8.5742 7.96347 9.13593 7.47557 9.93241 7.47557C10.7352 7.47557 11.2969 7.96347 11.2969 8.64784C11.2969 9.34199 10.7307 9.8459 9.93241 9.8459Z" fill="white" fill-opacity="0.85"/>
 </g>
</svg>
