<?xml version="1.0" encoding="UTF-8"?>
<!--Generator: Apple Native CoreSVG 341-->
<!DOCTYPE svg
PUBLIC "-//W3C//DTD SVG 1.1//EN"
       "http://www.w3.org/Graphics/SVG/1.1/DTD/svg11.dtd">
<svg version="1.1" xmlns="http://www.w3.org/2000/svg" xmlns:xlink="http://www.w3.org/1999/xlink" viewBox="0 0 20.5381 20.1848">
 <g>
  <rect height="20.1848" opacity="0" width="20.5381" x="0" y="0"/>
  <path d="M20.1767 10.0875C20.1767 15.6478 15.6576 20.175 10.0875 20.175C4.52715 20.175 0 15.6478 0 10.0875C0 4.51914 4.52715 0 10.0875 0C15.6576 0 20.1767 4.51914 20.1767 10.0875ZM6.73945 7.75429C6.73945 8.72812 7.34238 9.47773 8.39492 9.79375L8.39492 9.8664C7.16289 10.0947 6.34883 11.0146 6.34883 12.15C6.34883 13.8037 7.82207 14.8842 10.0715 14.8842C12.3307 14.8842 13.8359 13.7877 13.8359 12.142C13.8359 11.0066 13.0041 10.0947 11.7818 9.8664L11.7818 9.79375C12.8166 9.4955 13.4373 8.72812 13.4373 7.75429C13.4373 6.28339 12.0785 5.29082 10.0875 5.29082C8.09824 5.29082 6.73945 6.28339 6.73945 7.75429ZM11.9371 12.0287C11.9371 12.9289 11.1496 13.5723 10.0955 13.5723C9.03515 13.5723 8.25565 12.9289 8.25565 12.0287C8.25565 11.1525 9.04315 10.4976 10.0955 10.4976C11.1754 10.4976 11.9371 11.1445 11.9371 12.0287ZM11.6189 7.92421C11.6189 8.70898 10.9781 9.26972 10.0875 9.26972C9.20038 9.26972 8.5578 8.70898 8.5578 7.92421C8.5578 7.16347 9.19413 6.60897 10.0875 6.60897C10.9826 6.60897 11.6189 7.16347 11.6189 7.92421Z" fill="white" fill-opacity="0.85"/>
 </g>
</svg>
