<?xml version="1.0" encoding="UTF-8"?>
<!--Generator: Apple Native CoreSVG 341-->
<!DOCTYPE svg
PUBLIC "-//W3C//DTD SVG 1.1//EN"
       "http://www.w3.org/Graphics/SVG/1.1/DTD/svg11.dtd">
<svg version="1.1" xmlns="http://www.w3.org/2000/svg" xmlns:xlink="http://www.w3.org/1999/xlink" viewBox="0 0 18.5894 18.2316">
 <g>
  <rect height="18.2316" opacity="0" width="18.5894" x="0" y="0"/>
  <path d="M3.20351 18.2281L15.0246 18.2281C17.1404 18.2281 18.2281 17.1502 18.2281 15.0646L18.2281 3.17148C18.2281 1.08769 17.1404 0 15.0246 0L3.20351 0C1.0957 0 0 1.08769 0 3.17148L0 15.0646C0 17.1502 1.0957 18.2281 3.20351 18.2281ZM3.31444 16.3148C2.40643 16.3148 1.91327 15.8465 1.91327 14.8977L1.91327 3.34023C1.91327 2.39139 2.40643 1.91503 3.31444 1.91503L14.9137 1.91503C15.8137 1.91503 16.3148 2.39139 16.3148 3.34023L16.3148 14.8977C16.3148 15.8465 15.8137 16.3148 14.9137 16.3148Z" fill="white" fill-opacity="0.85"/>
  <path d="M9.10292 13.726C11.2691 13.726 12.7133 12.6658 12.7133 11.083C12.7133 9.99375 11.916 9.11816 10.7416 8.90136L10.7416 8.82871C11.7445 8.54375 12.3359 7.79941 12.3359 6.85742C12.3359 5.45214 11.0285 4.49589 9.11894 4.49589C7.21113 4.49589 5.90371 5.45214 5.90371 6.85742C5.90371 7.79941 6.48535 8.52597 7.5043 8.82871L7.5043 8.90136C6.31387 9.11816 5.53262 10.0035 5.53262 11.091C5.53262 12.6818 6.94472 13.726 9.10292 13.726ZM9.12695 12.4742C8.09589 12.4742 7.34569 11.8521 7.34569 10.983C7.34569 10.1361 8.1039 9.50253 9.12695 9.50253C10.174 9.50253 10.9082 10.1281 10.9082 10.983C10.9082 11.8521 10.158 12.4742 9.12695 12.4742ZM9.11894 8.33125C8.25937 8.33125 7.63807 7.78378 7.63807 7.02655C7.63807 6.2871 8.25312 5.74588 9.11894 5.74588C9.98477 5.74588 10.6078 6.2871 10.6078 7.02655C10.6078 7.78378 9.98828 8.33125 9.11894 8.33125Z" fill="white" fill-opacity="0.85"/>
 </g>
</svg>
