<?xml version="1.0" encoding="UTF-8"?>
<!--Generator: Apple Native CoreSVG 341-->
<!DOCTYPE svg
PUBLIC "-//W3C//DTD SVG 1.1//EN"
       "http://www.w3.org/Graphics/SVG/1.1/DTD/svg11.dtd">
<svg version="1.1" xmlns="http://www.w3.org/2000/svg" xmlns:xlink="http://www.w3.org/1999/xlink" viewBox="0 0 18.5894 18.2316">
 <g>
  <rect height="18.2316" opacity="0" width="18.5894" x="0" y="0"/>
  <path d="M18.2281 3.17148L18.2281 15.0646C18.2281 17.1502 17.1404 18.2281 15.0246 18.2281L3.20351 18.2281C1.0957 18.2281 0 17.1502 0 15.0646L0 3.17148C0 1.08769 1.0957 0 3.20351 0L15.0246 0C17.1404 0 18.2281 1.08769 18.2281 3.17148ZM5.4875 7.57363C5.4875 9.25781 6.75625 10.49 8.49199 10.49C9.14024 10.49 9.82852 10.2715 10.1703 9.92519L10.3008 9.92519C10.2139 10.0769 10.0506 10.2953 9.8375 10.5484C9.34316 11.1699 8.76523 11.8635 8.25488 12.4975C8.06152 12.7051 7.95527 12.9258 7.95527 13.1773C7.95527 13.5469 8.2787 13.8996 8.78905 13.8996C9.26932 13.8996 9.48006 13.6301 9.80291 13.2283C10.2765 12.6303 10.968 11.7381 11.4365 11.1166C12.3713 9.85526 12.8318 8.83866 12.8318 7.67636C12.8318 5.66171 11.3576 4.31425 9.15527 4.31425C6.96699 4.31425 5.4875 5.65722 5.4875 7.57363ZM11.0781 7.49394C11.0781 8.46797 10.2535 9.16563 9.16328 9.16563C8.05878 9.16563 7.2244 8.45996 7.2244 7.49394C7.2244 6.52616 8.05878 5.81249 9.15527 5.81249C10.2455 5.81249 11.0781 6.53417 11.0781 7.49394Z" fill="white" fill-opacity="0.85"/>
 </g>
</svg>
