<?xml version="1.0" encoding="UTF-8"?>
<!--Generator: Apple Native CoreSVG 341-->
<!DOCTYPE svg
PUBLIC "-//W3C//DTD SVG 1.1//EN"
       "http://www.w3.org/Graphics/SVG/1.1/DTD/svg11.dtd">
<svg version="1.1" xmlns="http://www.w3.org/2000/svg" xmlns:xlink="http://www.w3.org/1999/xlink" viewBox="0 0 18.5894 18.2316">
 <g>
  <rect height="18.2316" opacity="0" width="18.5894" x="0" y="0"/>
  <path d="M3.20351 18.2281L15.0246 18.2281C17.1404 18.2281 18.2281 17.1502 18.2281 15.0646L18.2281 3.17148C18.2281 1.08769 17.1404 0 15.0246 0L3.20351 0C1.0957 0 0 1.08769 0 3.17148L0 15.0646C0 17.1502 1.0957 18.2281 3.20351 18.2281ZM3.31444 16.3148C2.40643 16.3148 1.91327 15.8465 1.91327 14.8977L1.91327 3.34023C1.91327 2.39139 2.40643 1.91503 3.31444 1.91503L14.9137 1.91503C15.8137 1.91503 16.3148 2.39139 16.3148 3.34023L16.3148 14.8977C16.3148 15.8465 15.8137 16.3148 14.9137 16.3148Z" fill="white" fill-opacity="0.85"/>
  <path d="M5.6125 7.63124C5.6125 9.25429 6.83164 10.4369 8.50625 10.4369C9.13145 10.4369 9.79493 10.2201 10.1252 9.88534L10.2459 9.88534C10.1607 10.0371 10.0072 10.2422 9.80743 10.4935C9.3291 11.0875 8.76894 11.7633 8.26835 12.3777C8.08828 12.5773 7.98379 12.7893 7.98379 13.0275C7.98379 13.382 8.29218 13.718 8.77245 13.718C9.23417 13.718 9.42987 13.4617 9.73944 13.075C10.1998 12.4982 10.8717 11.6371 11.3242 11.0316C12.2226 9.82167 12.6646 8.8414 12.6646 7.7287C12.6646 5.79374 11.2453 4.49589 9.13418 4.49589C7.03711 4.49589 5.6125 5.78925 5.6125 7.63124ZM7.26718 7.55331C7.26718 6.61659 8.0705 5.9242 9.13418 5.9242C10.1934 5.9242 10.9949 6.6246 10.9949 7.55331C10.9949 8.49629 10.2014 9.17266 9.14218 9.17266C8.0705 9.17266 7.26718 8.48828 7.26718 7.55331Z" fill="white" fill-opacity="0.85"/>
 </g>
</svg>
