<?xml version="1.0" encoding="UTF-8"?>
<!--Generator: Apple Native CoreSVG 341-->
<!DOCTYPE svg
PUBLIC "-//W3C//DTD SVG 1.1//EN"
       "http://www.w3.org/Graphics/SVG/1.1/DTD/svg11.dtd">
<svg version="1.1" xmlns="http://www.w3.org/2000/svg" xmlns:xlink="http://www.w3.org/1999/xlink" viewBox="0 0 18.5894 18.2316">
 <g>
  <rect height="18.2316" opacity="0" width="18.5894" x="0" y="0"/>
  <path d="M3.20351 18.2281L15.0246 18.2281C17.1404 18.2281 18.2281 17.1502 18.2281 15.0646L18.2281 3.17148C18.2281 1.08769 17.1404 0 15.0246 0L3.20351 0C1.0957 0 0 1.08769 0 3.17148L0 15.0646C0 17.1502 1.0957 18.2281 3.20351 18.2281ZM3.31444 16.3148C2.40643 16.3148 1.91327 15.8465 1.91327 14.8977L1.91327 3.34023C1.91327 2.39139 2.40643 1.91503 3.31444 1.91503L14.9137 1.91503C15.8137 1.91503 16.3148 2.39139 16.3148 3.34023L16.3148 14.8977C16.3148 15.8465 15.8137 16.3148 14.9137 16.3148Z" fill="white" fill-opacity="0.85"/>
  <path d="M8.92148 13.726C11.3137 13.726 12.6432 12.04 12.6432 8.85116C12.6432 6.04042 11.3217 4.49589 9.06464 4.49589C7.01425 4.49589 5.65469 5.73417 5.65469 7.62167C5.65469 9.4207 7.0002 10.4603 8.55527 10.4603C9.78379 10.4603 10.5359 9.86327 10.8467 9.15116L10.9283 9.15116C10.9742 11.1027 10.1406 12.3029 8.90546 12.3029C8.28261 12.3029 7.8703 12.0461 7.48651 11.5678C7.30468 11.3572 7.10155 11.193 6.74335 11.193C6.31328 11.193 6.00039 11.4873 6.00039 11.9103C6.00039 12.0353 6.02519 12.1568 6.07304 12.2846C6.33554 12.9619 7.26757 13.726 8.92148 13.726ZM9.13378 9.22148C8.13749 9.22148 7.44608 8.52558 7.44608 7.55331C7.44608 6.53475 8.12147 5.85135 9.14179 5.85135C10.1043 5.85135 10.8277 6.57479 10.8277 7.56933C10.8277 8.52383 10.1238 9.22148 9.13378 9.22148Z" fill="white" fill-opacity="0.85"/>
 </g>
</svg>
