<?xml version="1.0" encoding="UTF-8"?>
<!--Generator: Apple Native CoreSVG 341-->
<!DOCTYPE svg
PUBLIC "-//W3C//DTD SVG 1.1//EN"
       "http://www.w3.org/Graphics/SVG/1.1/DTD/svg11.dtd">
<svg version="1.1" xmlns="http://www.w3.org/2000/svg" xmlns:xlink="http://www.w3.org/1999/xlink" viewBox="0 0 20.5381 23.885">
 <g>
  <rect height="23.885" opacity="0" width="20.5381" x="0" y="0"/>
  <path d="M8.12539 0.722792L8.12539 5.34056C8.12539 6.06029 8.66894 6.24134 9.21308 5.85618L12.3723 3.58783C12.8029 3.27709 12.8109 2.79076 12.3723 2.47377L9.22109 0.203652C8.66894-0.191269 8.12539-0.00845663 8.12539 0.722792ZM10.0875 22.0251C15.6576 22.0251 20.1767 17.5042 20.1767 11.9376C20.1767 8.71986 18.6584 5.84759 16.2355 3.99427C15.725 3.56029 15.0734 3.66341 14.7519 4.10677C14.4146 4.58548 14.5609 5.14817 15.0176 5.54407C16.9437 7.01262 18.1897 9.31087 18.1897 11.9376C18.1897 16.4167 14.5666 20.038 10.0875 20.038C5.60839 20.038 1.9871 16.4167 1.9871 11.9376C1.9871 7.45853 5.60839 3.83724 10.0928 3.83724C10.6414 3.83724 11.0863 3.38431 11.0863 2.83568C11.0863 2.30131 10.6494 1.85815 10.1008 1.85014C4.51113 1.85815 0 6.36928 0 11.9376C0 17.5042 4.51914 22.0251 10.0875 22.0251Z" fill="white" fill-opacity="0.85"/>
  <path d="M6.90566 15.9537C8.96445 15.9537 9.6248 14.0001 9.6248 12.0212C9.6248 10.0488 8.84726 8.23021 6.94472 8.23021C5.5205 8.23021 4.48828 9.28978 4.48828 10.8351C4.48828 12.1376 5.25293 13.2316 6.52441 13.2316C7.39472 13.2316 7.99863 12.6995 8.21172 11.9742L8.22148 11.9742C8.22148 11.9937 8.22148 12.031 8.22148 12.0585C8.22949 13.1736 8.04258 14.7826 6.96152 14.7826C6.50468 14.7826 6.22655 14.5435 5.98866 14.1412C5.82636 13.8677 5.6498 13.7345 5.34003 13.7345C4.9373 13.7345 4.73144 14.0201 4.73144 14.3431C4.73144 14.6484 4.91699 14.9857 5.15839 15.2253C5.56581 15.6915 6.21035 15.9537 6.90566 15.9537ZM6.958 12.1349C6.27734 12.1349 5.9121 11.481 5.9121 10.781C5.9121 10.0915 6.28007 9.40931 6.97578 9.40931C7.65019 9.40931 8.04394 10.0943 8.04394 10.8085C8.04394 11.5035 7.64472 12.1349 6.958 12.1349ZM13.3469 15.9537C15.2742 15.9537 15.9639 14.0197 15.9639 12.0853C15.9639 10.1527 15.2742 8.23021 13.3469 8.23021C11.4143 8.23021 10.7264 10.1642 10.7264 12.0853C10.7264 14.0322 11.4258 15.9537 13.3469 15.9537ZM13.3469 14.7675C12.5996 14.7675 12.2148 13.6507 12.2148 12.0853C12.2148 10.5314 12.5996 9.42435 13.3469 9.42435C14.0906 9.42435 14.4771 10.5314 14.4771 12.0853C14.4771 13.6507 14.0986 14.7675 13.3469 14.7675Z" fill="white" fill-opacity="0.85"/>
 </g>
</svg>
