<?xml version="1.0" encoding="UTF-8"?>
<!--Generator: Apple Native CoreSVG 341-->
<!DOCTYPE svg
PUBLIC "-//W3C//DTD SVG 1.1//EN"
       "http://www.w3.org/Graphics/SVG/1.1/DTD/svg11.dtd">
<svg version="1.1" xmlns="http://www.w3.org/2000/svg" xmlns:xlink="http://www.w3.org/1999/xlink" viewBox="0 0 18.5894 18.2316">
 <g>
  <rect height="18.2316" opacity="0" width="18.5894" x="0" y="0"/>
  <path d="M3.20351 18.2281L15.0246 18.2281C17.1404 18.2281 18.2281 17.1502 18.2281 15.0646L18.2281 3.17148C18.2281 1.08769 17.1404 0 15.0246 0L3.20351 0C1.0957 0 0 1.08769 0 3.17148L0 15.0646C0 17.1502 1.0957 18.2281 3.20351 18.2281ZM3.31444 16.3148C2.40643 16.3148 1.91327 15.8465 1.91327 14.8977L1.91327 3.34023C1.91327 2.39139 2.40643 1.91503 3.31444 1.91503L14.9137 1.91503C15.8137 1.91503 16.3148 2.39139 16.3148 3.34023L16.3148 14.8977C16.3148 15.8465 15.8137 16.3148 14.9137 16.3148Z" fill="white" fill-opacity="0.85"/>
  <path d="M6.00448 13.6877C6.43866 13.6877 6.73475 13.4689 6.88827 12.9238L7.49218 11.1461L10.7475 11.1461L11.3496 12.9238C11.5031 13.4609 11.7992 13.6877 12.2334 13.6877C12.7562 13.6877 13.0949 13.3605 13.0949 12.8768C13.0949 12.7064 13.0506 12.5346 12.9699 12.2775L10.4693 5.43006C10.2318 4.76581 9.77811 4.43359 9.10566 4.43359C8.44473 4.43359 8.00957 4.76405 7.76856 5.43006L5.26972 12.2775C5.1873 12.5346 5.14472 12.7064 5.14472 12.8688C5.14472 13.3686 5.48164 13.6877 6.00448 13.6877ZM7.89862 9.79668L9.07011 6.26346L9.16777 6.26346L10.3393 9.79668Z" fill="white" fill-opacity="0.85"/>
 </g>
</svg>
