<?xml version="1.0" encoding="UTF-8"?>
<!--Generator: Apple Native CoreSVG 341-->
<!DOCTYPE svg
PUBLIC "-//W3C//DTD SVG 1.1//EN"
       "http://www.w3.org/Graphics/SVG/1.1/DTD/svg11.dtd">
<svg version="1.1" xmlns="http://www.w3.org/2000/svg" xmlns:xlink="http://www.w3.org/1999/xlink" viewBox="0 0 24.3326 24.1843">
 <g>
  <rect height="24.1843" opacity="0" width="24.3326" x="0" y="0"/>
  <path d="M13.1773 15.0734C13.1773 17.7863 15.3492 19.1648 15.3492 21.4578C15.3492 21.9886 15.2383 22.4211 14.9275 22.9795C14.7129 23.3627 14.8496 23.7279 15.1199 23.9273C15.4611 24.1515 15.9471 24.1119 16.214 23.6338C16.609 22.9646 16.8051 22.2298 16.8051 21.4578C16.8051 18.7049 14.6252 17.3343 14.6252 15.0734C14.6252 14.5425 14.7441 14.1101 15.0611 13.5392C15.273 13.1703 15.139 12.7883 14.8412 12.5941C14.5115 12.3894 14.0238 12.4308 13.7683 12.8814C13.3574 13.5506 13.1773 14.3013 13.1773 15.0734ZM10.1727 15.0814C10.1727 17.7863 12.341 19.1728 12.341 21.4578C12.341 21.9966 12.2336 22.4291 11.9113 22.9875C11.7082 23.3627 11.8432 23.7359 12.1135 23.9353C12.4512 24.1515 12.9424 24.1199 13.2094 23.6515C13.6025 22.9726 13.7969 22.2298 13.7969 21.4578C13.7969 18.7129 11.6205 17.3424 11.6205 15.0814C11.6205 14.5425 11.7359 14.1101 12.0484 13.5472C12.2648 13.1783 12.1326 12.7883 11.833 12.5941C11.5033 12.3894 11.0111 12.4308 10.7601 12.8894C10.3492 13.5603 10.1727 14.3093 10.1727 15.0814ZM7.16445 15.0734C7.16445 17.7863 9.33457 19.1648 9.33457 21.4578C9.33457 21.9886 9.22539 22.4211 8.90312 22.9795C8.69199 23.3627 8.83496 23.7279 9.10527 23.9273C9.44296 24.1515 9.93417 24.1119 10.2012 23.6338C10.5961 22.9646 10.7904 22.2298 10.7904 21.4578C10.7904 18.7049 8.6123 17.3343 8.6123 15.0734C8.6123 14.5425 8.72773 14.1101 9.04023 13.5392C9.25839 13.1703 9.1164 12.7883 8.82656 12.5941C8.49687 12.3894 8.00293 12.4308 7.7457 12.8814C7.34277 13.5506 7.16445 14.3013 7.16445 15.0734ZM16.3709 15.5174C16.3709 15.7603 16.5793 15.9324 16.8338 15.9041L17.6338 15.8394L17.1695 16.5009C17.0357 16.6933 17.0748 16.9683 17.2849 17.0943C17.4951 17.2318 17.7771 17.1334 17.8703 16.8922L18.2105 16.1685L18.564 16.9099C18.6705 17.1289 18.926 17.2256 19.1424 17.1041C19.3445 16.9924 19.3996 16.6978 19.2533 16.4912L18.7943 15.8429L19.589 15.9121C19.8338 15.9404 20.0519 15.7683 20.0519 15.5174C20.0519 15.2584 19.8515 15.0845 19.597 15.1129L18.7881 15.174L19.2551 14.5097C19.3933 14.3031 19.3588 14.0388 19.1424 13.9209C18.926 13.7994 18.6635 13.8836 18.5623 14.1088L18.214 14.8377L17.8765 14.115C17.7816 13.8818 17.5094 13.7834 17.2849 13.9146C17.0748 14.0263 17.0277 14.3013 17.1695 14.5097L17.6303 15.174L16.8338 15.1209C16.5713 15.1023 16.3709 15.2664 16.3709 15.5174ZM3.97989 21.1693C3.97989 21.422 4.18028 21.6021 4.43477 21.5738L5.2375 21.5109L4.77051 22.1769C4.63223 22.3755 4.66953 22.6443 4.88145 22.7578C5.10586 22.8855 5.36133 22.7986 5.45977 22.5716L5.81152 21.8445L6.15977 22.5601C6.24668 22.8013 6.5207 22.8918 6.74512 22.772C6.95527 22.6603 7.0041 22.3791 6.8623 22.1787L6.39629 21.5074L7.19805 21.5658C7.45254 21.5861 7.65293 21.414 7.65293 21.1693C7.65293 20.9263 7.44453 20.7543 7.19805 20.7808L6.39355 20.8437L6.8543 20.1857C6.98633 19.9951 6.94726 19.7201 6.74512 19.5923C6.53848 19.4531 6.2502 19.5498 6.15527 19.7927L5.80977 20.5136L5.46152 19.7785C5.36035 19.5613 5.10586 19.4611 4.88145 19.5808C4.68106 19.6908 4.62071 19.9888 4.76875 20.1955L5.22774 20.8437L4.44277 20.7728C4.19629 20.7445 3.97989 20.9183 3.97989 21.1693Z" fill="white" fill-opacity="0.85"/>
  <path d="M0 2.42948L0 8.66522C0 10.1623 0.926169 11.0965 2.39745 11.0965L21.5738 11.0965C23.0451 11.0965 23.9713 10.1623 23.9713 8.66522L23.9713 2.42948C23.9713 0.934177 23.0451 0 21.5738 0L2.39745 0C0.926169 0 0 0.934177 0 2.42948ZM16.0605 8.1992C16.0605 7.8869 16.3107 7.6492 16.6168 7.6492L20.565 7.6492C20.8658 7.6492 21.1195 7.8869 21.1195 8.1992C21.1195 8.5035 20.8658 8.74569 20.565 8.74569L16.6168 8.74569C16.3107 8.74569 16.0605 8.5035 16.0605 8.1992ZM16.0605 6.05507C16.0605 5.74452 16.3107 5.49081 16.6168 5.49081L20.565 5.49081C20.8658 5.49081 21.1195 5.74452 21.1195 6.05507C21.1195 6.35135 20.8658 6.59178 20.565 6.59178L16.6168 6.59178C16.3107 6.59178 16.0605 6.35135 16.0605 6.05507ZM9.48905 8.1992C9.48905 7.8869 9.733 7.6492 10.0471 7.6492L13.9953 7.6492C14.2898 7.6492 14.54 7.8869 14.54 8.1992C14.54 8.5035 14.2898 8.74569 13.9953 8.74569L10.0471 8.74569C9.733 8.74569 9.48905 8.5035 9.48905 8.1992ZM9.48905 6.05507C9.48905 5.74452 9.733 5.49081 10.0471 5.49081L13.9953 5.49081C14.2898 5.49081 14.54 5.74452 14.54 6.05507C14.54 6.35135 14.2898 6.59178 13.9953 6.59178L10.0471 6.59178C9.733 6.59178 9.48905 6.35135 9.48905 6.05507ZM2.8998 8.1992C2.8998 7.8869 3.15351 7.6492 3.44628 7.6492L7.39452 7.6492C7.70858 7.6492 7.95077 7.8869 7.95077 8.1992C7.95077 8.5035 7.70858 8.74569 7.39452 8.74569L3.44628 8.74569C3.15351 8.74569 2.8998 8.5035 2.8998 8.1992ZM2.8998 6.05507C2.8998 5.74452 3.15351 5.49081 3.44628 5.49081L7.39452 5.49081C7.70858 5.49081 7.95077 5.74452 7.95077 6.05507C7.95077 6.35135 7.70858 6.59178 7.39452 6.59178L3.44628 6.59178C3.15351 6.59178 2.8998 6.35135 2.8998 6.05507Z" fill="white" fill-opacity="0.85"/>
 </g>
</svg>
