<?xml version="1.0" encoding="UTF-8"?>
<!--Generator: Apple Native CoreSVG 341-->
<!DOCTYPE svg
PUBLIC "-//W3C//DTD SVG 1.1//EN"
       "http://www.w3.org/Graphics/SVG/1.1/DTD/svg11.dtd">
<svg version="1.1" xmlns="http://www.w3.org/2000/svg" xmlns:xlink="http://www.w3.org/1999/xlink" viewBox="0 0 38.1449 16.4261">
 <g>
  <rect height="16.4261" opacity="0" width="38.1449" x="0" y="0"/>
  <path d="M2.66249 14.1961L5.50291 14.1961L5.50291 12.3004L2.84882 12.3004C2.24921 12.3004 1.89745 11.8971 1.89745 11.2094L1.89745 9.26659C1.89745 7.8912 2.75096 7.17537 4.80253 6.87166L8.82108 6.2785L13.1461 3.5869C15.0892 2.38143 16.6687 1.97987 19.6103 1.97987L23.4906 1.97987C24.4283 1.97987 24.9562 2.44745 25.0629 3.36913L25.4045 6.48631L34.948 6.48631C35.5379 6.48631 35.8914 6.89588 35.8914 7.57733L35.8914 11.2094C35.8914 11.8971 35.5379 12.3004 34.948 12.3004L31.0234 12.3004L31.0234 14.1961L35.1308 14.1961C36.7802 14.1961 37.7836 13.1722 37.7836 11.475L37.7836 7.34335C37.7836 5.63027 36.7363 4.59414 35.0219 4.59414L27.1388 4.59414L26.9744 3.17011C26.7375 1.13105 25.5762 0.0824177 23.5416 0.0824177L19.6103 0.0824177C16.2865 0.0824177 14.3705 0.56191 12.134 1.97128L8.17147 4.45195L4.55878 4.9875C1.45742 5.43847 0 6.81347 0 9.26659L0 11.475C0 13.1933 1.01308 14.1961 2.66249 14.1961ZM9.78418 14.1961L26.1879 14.1961L26.1879 12.3004L9.78418 12.3004ZM7.61268 16.4261C9.56678 16.4261 11.1107 14.884 11.1107 12.9281C11.1107 10.9687 9.56678 9.42655 7.61268 9.42655C5.65507 9.42655 4.11289 10.9687 4.11289 12.9281C4.11289 14.884 5.65507 16.4261 7.61268 16.4261ZM7.61268 14.5973C6.67635 14.5973 5.95233 13.8715 5.95233 12.9369C5.95233 12.0006 6.67635 11.2765 7.61268 11.2765C8.5455 11.2765 9.27304 12.0006 9.27304 12.9369C9.27304 13.8715 8.5455 14.5973 7.61268 14.5973ZM28.3439 16.4261C30.2998 16.4261 31.842 14.884 31.842 12.9281C31.842 10.9687 30.2998 9.42655 28.3439 9.42655C26.3863 9.42655 24.8441 10.9687 24.8441 12.9281C24.8441 14.884 26.3863 16.4261 28.3439 16.4261ZM28.3439 14.5973C27.4094 14.5973 26.6836 13.8715 26.6836 12.9369C26.6836 12.0006 27.4094 11.2765 28.3439 11.2765C29.2767 11.2765 30.0043 12.0006 30.0043 12.9369C30.0043 13.8715 29.2767 14.5973 28.3439 14.5973Z" fill="white" fill-opacity="0.85"/>
  <path d="M13.5836 10.2402C13.9652 10.2402 14.1551 10.0334 14.2172 9.63593L14.3363 9.09374L15.4793 9.09374L15.6082 9.65722C15.6881 10.0476 15.8869 10.2402 16.2373 10.2402C16.6092 10.2402 16.8523 9.97401 16.8523 9.62616C16.8523 9.48065 16.8248 9.35995 16.7937 9.20644L15.9057 5.41034C15.7814 4.85409 15.4275 4.62675 14.8896 4.62675C14.382 4.62675 14.0404 4.87616 13.9197 5.41034L13.0414 9.20644C13.0086 9.36698 12.9891 9.49823 12.9891 9.62616C12.9891 10.0346 13.2439 10.2402 13.5836 10.2402ZM14.4846 8.16014L14.8719 6.07772L14.9109 6.07772L15.3178 8.16014ZM18.1918 10.2402C18.592 10.2402 18.8449 9.98104 18.8449 9.56757L18.8449 5.2994C18.8449 4.88593 18.592 4.62675 18.1918 4.62675C17.7898 4.62675 17.5484 4.88593 17.5484 5.2994L17.5484 9.56757C17.5484 9.98104 17.7898 10.2402 18.1918 10.2402ZM20.3514 10.2322C20.7471 10.2322 20.9947 9.97929 20.9947 9.56757L20.9947 8.19452L21.3449 8.19452L21.8539 9.69628C21.9631 10.0361 22.1557 10.2322 22.4937 10.2322C22.8664 10.2322 23.1228 9.99706 23.1228 9.65194C23.1228 9.533 23.0785 9.38124 23.0314 9.24179L22.5385 7.91854C22.9861 7.6326 23.1654 7.00253 23.1654 6.47675C23.1654 5.40995 22.6135 4.71464 21.4043 4.71464L20.3514 4.71464C19.9555 4.71464 19.7062 4.94725 19.7062 5.38729L19.7062 9.56757C19.7062 9.98104 19.9459 10.2322 20.3514 10.2322ZM20.9947 7.30702L20.9947 5.67928L21.2933 5.67928C21.6744 5.67928 21.8557 6.10897 21.8557 6.49803C21.8557 6.89686 21.6744 7.30702 21.2916 7.30702Z" fill="white" fill-opacity="0.85"/>
 </g>
</svg>
