<?xml version="1.0" encoding="UTF-8"?>
<!--Generator: Apple Native CoreSVG 341-->
<!DOCTYPE svg
PUBLIC "-//W3C//DTD SVG 1.1//EN"
       "http://www.w3.org/Graphics/SVG/1.1/DTD/svg11.dtd">
<svg version="1.1" xmlns="http://www.w3.org/2000/svg" xmlns:xlink="http://www.w3.org/1999/xlink" viewBox="0 0 35.501 16.1805">
 <g>
  <rect height="16.1805" opacity="0" width="35.501" x="0" y="0"/>
  <path d="M10.7078 13.1713C10.7078 14.6949 9.49393 15.907 7.96405 15.907C6.45019 15.907 5.22656 14.6869 5.22656 13.1713C5.22656 11.6494 6.45019 10.4275 7.96405 10.4275C9.48593 10.4275 10.7078 11.6494 10.7078 13.1713ZM30.4119 13.1713C30.4119 14.6869 29.19 15.907 27.6682 15.907C26.1543 15.907 24.9307 14.6869 24.9307 13.1713C24.9307 11.6574 26.1623 10.4275 27.6682 10.4275C29.19 10.4275 30.4119 11.6494 30.4119 13.1713ZM33.4461 2.35722L33.8873 3.00527C34.6711 4.14316 35.1396 5.58183 35.1396 6.83417L35.1396 11.092C35.1396 13.0396 34.2855 13.9924 32.5273 13.9924L31.5203 13.9924C31.5797 13.7281 31.6062 13.4586 31.6062 13.1713C31.6062 10.991 29.8484 9.2332 27.6682 9.2332C25.5039 9.2332 23.7283 10.999 23.7283 13.1713C23.7283 13.4586 23.7629 13.7281 23.8143 13.9924L11.8162 13.9924C11.8756 13.7281 11.9021 13.4586 11.9021 13.1713C11.9021 10.991 10.1443 9.2332 7.96405 9.2332C5.79179 9.2332 4.02422 10.991 4.02422 13.1713C4.02422 13.4586 4.05879 13.7281 4.11016 13.9924L2.66249 13.9924C1.01308 13.9924 0 12.9879 0 11.2713L0 9.59511C0 6.8209 1.7207 5.23418 5.13163 4.81523L8.74609 4.36953L12.6588 1.91465C15.083 0.399414 16.7295 0 20.7881 0L28.5398 0C30.867 0 32.2896 0.673632 33.4461 2.35722ZM13.8412 4.69062L12.9363 8.62227C12.8955 8.79434 12.876 8.93535 12.876 9.06504C12.876 9.48672 13.1424 9.70566 13.4971 9.70566C13.9 9.70566 14.0934 9.48906 14.1652 9.07656L14.2844 8.52109L15.4637 8.52109L15.5943 9.09785C15.684 9.50332 15.8846 9.70566 16.2598 9.70566C16.6432 9.70566 16.8996 9.42617 16.8996 9.06504C16.8996 8.90801 16.8721 8.78555 16.841 8.62227L15.9184 4.69062C15.7906 4.10605 15.4154 3.86895 14.8607 3.86895C14.3283 3.86895 13.9637 4.12988 13.8412 4.69062ZM17.6142 4.56992L17.6142 9.00469C17.6142 9.4332 17.8734 9.70566 18.2922 9.70566C18.7154 9.70566 18.9719 9.4332 18.9719 9.00469L18.9719 4.56992C18.9719 4.14141 18.7154 3.86895 18.2922 3.86895C17.8734 3.86895 17.6142 4.14141 17.6142 4.56992ZM20.5474 3.95684C20.1303 3.95684 19.8678 4.20273 19.8678 4.66758L19.8678 9.00469C19.8678 9.4332 20.1207 9.69765 20.5474 9.69765C20.9582 9.69765 21.2174 9.43144 21.2174 9.00469L21.2174 7.58554L21.5773 7.58554L22.1014 9.13691C22.2123 9.49004 22.4164 9.69765 22.7678 9.69765C23.1635 9.69765 23.4314 9.44922 23.4314 9.08906C23.4314 8.97812 23.3791 8.80859 23.332 8.65937L22.824 7.29629C23.2849 6.99883 23.4758 6.34219 23.4758 5.79336C23.4758 4.68672 22.899 3.95684 21.6402 3.95684ZM15.3004 7.5414L14.4361 7.5414L14.835 5.38457L14.882 5.38457ZM22.1031 5.81465C22.1031 6.225 21.9201 6.6582 21.5258 6.6582L21.2174 6.6582L21.2174 4.97285L21.5275 4.97285C21.9201 4.97285 22.1031 5.41406 22.1031 5.81465Z" fill="white" fill-opacity="0.85"/>
 </g>
</svg>
