<?xml version="1.0" encoding="UTF-8"?>
<!--Generator: Apple Native CoreSVG 341-->
<!DOCTYPE svg
PUBLIC "-//W3C//DTD SVG 1.1//EN"
       "http://www.w3.org/Graphics/SVG/1.1/DTD/svg11.dtd">
<svg version="1.1" xmlns="http://www.w3.org/2000/svg" xmlns:xlink="http://www.w3.org/1999/xlink" viewBox="0 0 23.0813 23.6324">
 <g>
  <rect height="23.6324" opacity="0" width="23.0813" x="0" y="0"/>
  <path d="M6.81292 21.7693L15.9151 21.7693C17.9846 21.7693 19.0723 20.6834 19.0723 18.6379L19.0723 3.12343C19.0723 1.07168 17.9686 0 15.9151 0L6.81292 0C4.75941 0 3.64769 1.07168 3.64769 3.12343L3.64769 18.6379C3.64769 20.6834 4.74339 21.7693 6.81292 21.7693ZM7.91038 5.68612C7.101 5.68612 6.4469 5.0205 6.4469 4.20487C6.4469 3.40702 7.101 2.74941 7.91038 2.74941C8.71799 2.74941 9.38186 3.40702 9.38186 4.20487C9.38186 5.0205 8.71799 5.68612 7.91038 5.68612ZM7.08284 13.925C6.70139 13.925 6.39886 13.6269 6.39886 13.2392C6.39886 12.8596 6.70139 12.5517 7.08284 12.5517L9.92815 12.5517C10.3176 12.5517 10.6219 12.8596 10.6219 13.2392C10.6219 13.6269 10.3176 13.925 9.92815 13.925ZM7.08284 16.4515C6.70139 16.4515 6.39886 16.1553 6.39886 15.7658C6.39886 15.3781 6.70139 15.0818 7.08284 15.0818L9.92815 15.0818C10.3176 15.0818 10.6219 15.3781 10.6219 15.7658C10.6219 16.1553 10.3176 16.4515 9.92815 16.4515ZM7.08284 18.9799C6.70139 18.9799 6.39886 18.6738 6.39886 18.2959C6.39886 17.9064 6.70139 17.6004 7.08284 17.6004L9.92815 17.6004C10.3176 17.6004 10.6219 17.9064 10.6219 18.2959C10.6219 18.6738 10.3176 18.9799 9.92815 18.9799ZM12.7901 13.925C12.4024 13.925 12.0981 13.6269 12.0981 13.2392C12.0981 12.8596 12.4024 12.5517 12.7901 12.5517L15.6371 12.5517C16.0186 12.5517 16.3211 12.8596 16.3211 13.2392C16.3211 13.6269 16.0186 13.925 15.6371 13.925ZM12.7901 16.4515C12.4024 16.4515 12.0981 16.1553 12.0981 15.7658C12.0981 15.3781 12.4024 15.0818 12.7901 15.0818L15.6371 15.0818C16.0186 15.0818 16.3211 15.3781 16.3211 15.7658C16.3211 16.1553 16.0186 16.4515 15.6371 16.4515ZM12.7901 18.9799C12.4024 18.9799 12.0981 18.6738 12.0981 18.2959C12.0981 17.9064 12.4024 17.6004 12.7901 17.6004L15.6371 17.6004C16.0186 17.6004 16.3211 17.9064 16.3211 18.2959C16.3211 18.6738 16.0186 18.9799 15.6371 18.9799ZM14.4365 5.38944C13.6961 5.38944 12.9885 5.21991 12.344 4.82479C11.9268 4.58339 11.8862 4.13788 12.083 3.83808C12.2498 3.56659 12.5977 3.45194 12.9438 3.63397C13.4944 3.93339 13.9197 4.05585 14.4365 4.05585C16.636 4.05585 17.967 1.91816 20.5994 1.91816C21.3381 1.91816 22.0395 2.1037 22.6903 2.48105C23.127 2.73222 23.1596 3.17948 22.9547 3.48729C22.7826 3.733 22.4508 3.85565 22.094 3.66561C21.5416 3.37069 21.1162 3.26327 20.5994 3.26327C18.3698 3.26327 17.0369 5.38944 14.4365 5.38944ZM14.4446 8.08417C13.7059 8.08417 12.9965 7.90487 12.3555 7.51952C11.9268 7.27987 11.8862 6.83085 12.083 6.5328C12.2498 6.26132 12.6057 6.13866 12.9518 6.3287C13.4944 6.62011 13.9197 6.75234 14.4446 6.75234C16.644 6.75234 17.975 4.60488 20.5994 4.60488C21.3381 4.60488 22.0475 4.79042 22.708 5.16777C23.135 5.41718 23.1596 5.87421 22.9627 6.17401C22.7907 6.42772 22.4508 6.55038 22.102 6.35858C21.5496 6.05741 21.1242 5.94999 20.5994 5.94999C18.3778 5.94999 17.0369 8.08417 14.4446 8.08417ZM14.4365 10.7691C13.6961 10.7691 12.9885 10.5996 12.3475 10.2062C11.9268 9.96659 11.8862 9.51757 12.083 9.21952C12.2498 8.94628 12.5994 8.83163 12.9438 9.01542C13.4944 9.31484 13.9197 9.43906 14.4365 9.43906C16.636 9.43906 17.967 7.29785 20.5994 7.29785C21.3381 7.29785 22.0395 7.48515 22.6903 7.86249C23.127 8.11191 23.1596 8.56093 22.9547 8.86698C22.7826 9.11269 22.4508 9.23534 22.094 9.0453C21.5416 8.75214 21.1162 8.64648 20.5994 8.64648C18.3698 8.64648 17.0369 10.7691 14.4365 10.7691ZM6.54476 23.6146C7.07503 23.6146 7.43499 23.2449 7.43499 22.7146L7.43499 20.6881L5.64477 20.6881L5.64477 22.7146C5.64477 23.2449 6.01449 23.6146 6.54476 23.6146ZM16.1752 23.6146C16.7135 23.6146 17.0752 23.2449 17.0752 22.7146L17.0752 20.6881L15.285 20.6881L15.285 22.7146C15.285 23.2449 15.6449 23.6146 16.1752 23.6146Z" fill="white" fill-opacity="0.85"/>
 </g>
</svg>
