<?xml version="1.0" encoding="UTF-8"?>
<!--Generator: Apple Native CoreSVG 341-->
<!DOCTYPE svg
PUBLIC "-//W3C//DTD SVG 1.1//EN"
       "http://www.w3.org/Graphics/SVG/1.1/DTD/svg11.dtd">
<svg version="1.1" xmlns="http://www.w3.org/2000/svg" xmlns:xlink="http://www.w3.org/1999/xlink" viewBox="0 0 38.1449 16.2613">
 <g>
  <rect height="16.2613" opacity="0" width="38.1449" x="0" y="0"/>
  <path d="M10.3564 13.2943C10.3564 14.818 9.14081 16.0301 7.61268 16.0301C6.09706 16.0301 4.87343 14.8099 4.87343 13.2943C4.87343 11.7724 6.09706 10.5506 7.61268 10.5506C9.1328 10.5506 10.3564 11.7724 10.3564 13.2943ZM31.0877 13.2943C31.0877 14.8099 29.8658 16.0301 28.3439 16.0301C26.8221 16.0301 25.5984 14.8099 25.5984 13.2943C25.5984 11.7805 26.8301 10.5506 28.3439 10.5506C29.8658 10.5506 31.0877 11.7724 31.0877 13.2943ZM26.9744 3.08769L27.1789 4.83907L35.0219 4.83907C36.7363 4.83907 37.7836 5.87695 37.7836 7.58828L37.7836 11.558C37.7836 13.2535 36.7802 14.2773 35.1308 14.2773L32.156 14.2773C32.2394 13.957 32.282 13.6377 32.282 13.2943C32.282 11.1123 30.5242 9.35624 28.3439 9.35624C26.1717 9.35624 24.4041 11.1221 24.4041 13.2943C24.4041 13.6377 24.4467 13.957 24.5318 14.2773L11.431 14.2773C11.5082 13.965 11.5508 13.6377 11.5508 13.2943C11.5508 11.1123 9.7912 9.35624 7.61268 9.35624C5.43867 9.35624 3.67109 11.1123 3.67109 13.2943C3.67109 13.6377 3.72343 13.957 3.79882 14.2773L2.66249 14.2773C1.01308 14.2773 0 13.2746 0 11.558L0 9.18417C0 6.73105 1.45742 5.35605 4.55878 4.90508L8.17147 4.36953L12.134 1.88887C14.3705 0.479493 16.2865 0 19.6103 0L23.5416 0C25.5762 0 26.7375 1.04863 26.9744 3.08769ZM13.8834 4.77148L12.9785 8.70312C12.9377 8.87519 12.9164 9.01621 12.9164 9.14589C12.9164 9.56757 13.1828 9.78652 13.5392 9.78652C13.9404 9.78652 14.1338 9.56992 14.2057 9.15918L14.3248 8.60195L15.5059 8.60195L15.6348 9.17871C15.7244 9.58417 15.925 9.78652 16.3002 9.78652C16.6853 9.78652 16.94 9.50878 16.94 9.14589C16.94 8.99062 16.9125 8.86816 16.8814 8.70312L15.9588 4.77148C15.831 4.18867 15.4576 3.95156 14.9029 3.95156C14.3705 3.95156 14.0059 4.21074 13.8834 4.77148ZM17.6547 4.65078L17.6547 9.0873C17.6547 9.51406 17.9156 9.78652 18.3326 9.78652C18.7558 9.78652 19.0123 9.51406 19.0123 9.0873L19.0123 4.65078C19.0123 4.22402 18.7558 3.95156 18.3326 3.95156C17.9156 3.95156 17.6547 4.22402 17.6547 4.65078ZM20.5896 4.03945C20.1707 4.03945 19.9099 4.28535 19.9099 4.74843L19.9099 9.0873C19.9099 9.51406 20.1611 9.77851 20.5896 9.77851C20.9986 9.77851 21.2578 9.5123 21.2578 9.0873L21.2578 7.6664L21.6195 7.6664L22.1418 9.21777C22.2527 9.57265 22.4568 9.77851 22.8099 9.77851C23.2039 9.77851 23.4736 9.53183 23.4736 9.16992C23.4736 9.06074 23.4195 8.88945 23.3724 8.74023L22.8662 7.3789C23.3271 7.07968 23.5162 6.4248 23.5162 5.87597C23.5162 4.76758 22.9394 4.03945 21.6807 4.03945ZM15.3426 7.62226L14.4766 7.62226L14.8754 5.46542L14.9225 5.46542ZM22.1435 5.8955C22.1435 6.30761 21.9623 6.73906 21.5662 6.73906L21.2578 6.73906L21.2578 5.05371L21.568 5.05371C21.9623 5.05371 22.1435 5.49492 22.1435 5.8955Z" fill="white" fill-opacity="0.85"/>
 </g>
</svg>
