<?xml version="1.0" encoding="UTF-8"?>
<!--Generator: Apple Native CoreSVG 341-->
<!DOCTYPE svg
PUBLIC "-//W3C//DTD SVG 1.1//EN"
       "http://www.w3.org/Graphics/SVG/1.1/DTD/svg11.dtd">
<svg version="1.1" xmlns="http://www.w3.org/2000/svg" xmlns:xlink="http://www.w3.org/1999/xlink" viewBox="0 0 26.1901 23.973">
 <g>
  <rect height="23.973" opacity="0" width="26.1901" x="0" y="0"/>
  <path d="M4.55885 23.9713L10.7928 23.9713C12.2899 23.9713 13.2241 23.0451 13.2241 21.5738L13.2241 2.39745C13.2241 0.926169 12.2899 0 10.7928 0L4.55885 0C3.06179 0 2.12761 0.926169 2.12761 2.39745L2.12761 21.5738C2.12761 23.0451 3.06179 23.9713 4.55885 23.9713ZM10.3286 7.91073C10.0145 7.91073 9.77857 7.66054 9.77857 7.35448L9.77857 3.40624C9.77857 3.10546 10.0145 2.85175 10.3286 2.85175C10.6329 2.85175 10.8733 3.10546 10.8733 3.40624L10.8733 7.35448C10.8733 7.66054 10.6329 7.91073 10.3286 7.91073ZM8.18267 7.91073C7.87213 7.91073 7.61842 7.66054 7.61842 7.35448L7.61842 3.40624C7.61842 3.10546 7.87213 2.85175 8.18267 2.85175C8.47896 2.85175 8.72115 3.10546 8.72115 3.40624L8.72115 7.35448C8.72115 7.66054 8.47896 7.91073 8.18267 7.91073ZM10.3286 14.4822C10.0145 14.4822 9.77857 14.2383 9.77857 13.9242L9.77857 9.97597C9.77857 9.67343 10.0145 9.43124 10.3286 9.43124C10.6329 9.43124 10.8733 9.67343 10.8733 9.97597L10.8733 13.9242C10.8733 14.2383 10.6329 14.4822 10.3286 14.4822ZM8.18267 14.4822C7.87213 14.4822 7.61842 14.2383 7.61842 13.9242L7.61842 9.97597C7.61842 9.67343 7.87213 9.43124 8.18267 9.43124C8.47896 9.43124 8.72115 9.67343 8.72115 9.97597L8.72115 13.9242C8.72115 14.2383 8.47896 14.4822 8.18267 14.4822ZM10.3286 21.0715C10.0145 21.0715 9.77857 20.8178 9.77857 20.525L9.77857 16.575C9.77857 16.2627 10.0145 16.0107 10.3286 16.0107C10.6329 16.0107 10.8733 16.2627 10.8733 16.575L10.8733 20.525C10.8733 20.8178 10.6329 21.0715 10.3286 21.0715ZM8.18267 21.0715C7.87213 21.0715 7.61842 20.8178 7.61842 20.525L7.61842 16.575C7.61842 16.2627 7.87213 16.0107 8.18267 16.0107C8.47896 16.0107 8.72115 16.2627 8.72115 16.575L8.72115 20.525C8.72115 20.8178 8.47896 21.0715 8.18267 21.0715Z" fill="white" fill-opacity="0.85"/>
  <path d="M17.6467 7.60039C17.8897 7.60039 18.0618 7.38398 18.0334 7.1375L17.967 6.33574L18.6303 6.80176C18.8209 6.93554 19.0959 6.89648 19.2219 6.68457C19.3594 6.47617 19.261 6.19414 19.0198 6.10098L18.2961 5.76074L19.0393 5.40723C19.2582 5.30078 19.3532 5.04531 19.2334 4.82891C19.12 4.62676 18.8254 4.56992 18.6188 4.71797L17.9705 5.17695L18.0414 4.38223C18.0698 4.13574 17.8977 3.91934 17.6467 3.91934C17.386 3.91934 17.2122 4.11973 17.2405 4.37422L17.3016 5.1832L16.6373 4.71621C16.4307 4.57617 16.1682 4.6125 16.0485 4.82891C15.9207 5.04531 16.0112 5.30781 16.2364 5.40898L16.9653 5.75723L16.2426 6.09473C16.0094 6.18965 15.9127 6.46191 16.0422 6.68457C16.1557 6.89648 16.4289 6.93554 16.6373 6.80176L17.3016 6.34101L17.2485 7.1375C17.2299 7.39199 17.394 7.60039 17.6467 7.60039ZM23.2987 19.9914C23.5496 19.9914 23.7297 19.791 23.7014 19.5365L23.6403 18.7338L24.3045 19.2008C24.5032 19.339 24.7737 19.3 24.8854 19.0898C25.0149 18.8654 24.9262 18.6099 24.6992 18.5115L23.9739 18.158L24.6895 17.8097C24.9307 17.7246 25.0211 17.4506 24.8996 17.2262C24.7897 17.0142 24.5067 16.9672 24.3063 17.109L23.635 17.5732L23.6934 16.7732C23.7137 16.5187 23.5416 16.3183 23.2987 16.3183C23.0557 16.3183 22.8836 16.5267 22.9102 16.7732L22.9713 17.5777L22.3071 17.117C22.1227 16.9832 21.8494 17.0222 21.72 17.2262C21.5807 17.431 21.6791 17.7211 21.9203 17.816L22.643 18.1615L21.9061 18.5097C21.6889 18.6109 21.5887 18.8654 21.7102 19.0898C21.8201 19.2902 22.1164 19.3506 22.3151 19.2025L22.9713 18.7435L22.9022 19.5285C22.8721 19.7732 23.0477 19.9914 23.2987 19.9914ZM17.2028 10.7939C19.9174 10.7939 21.2879 8.62206 23.5809 8.62206C24.1118 8.62206 24.5522 8.733 25.1088 9.04374C25.492 9.25839 25.859 9.12167 26.0487 8.85136C26.2826 8.51015 26.2332 8.02246 25.7649 7.75723C25.094 7.3623 24.361 7.16621 23.5809 7.16621C20.836 7.16621 19.4655 9.34609 17.2028 9.34609C16.6737 9.34609 16.2332 9.22715 15.6686 8.9084C15.2997 8.69824 14.9194 8.83223 14.7252 9.13007C14.5125 9.45976 14.5602 9.94745 15.0108 10.2029C15.6817 10.6139 16.4227 10.7939 17.2028 10.7939ZM17.2125 13.7986C19.9174 13.7986 21.2959 11.6303 23.5809 11.6303C24.1198 11.6303 24.5602 11.7377 25.1186 12.0519C25.492 12.2631 25.867 12.1281 26.0567 11.8578C26.2826 11.5201 26.2412 11.0289 25.7809 10.7619C25.102 10.3687 24.361 10.1744 23.5809 10.1744C20.844 10.1744 19.4735 12.3508 17.2125 12.3508C16.6737 12.3508 16.2332 12.2353 15.6766 11.9228C15.3077 11.7047 14.9194 11.8387 14.7252 12.1383C14.5125 12.468 14.5602 12.9521 15.0206 13.2111C15.6897 13.6203 16.4325 13.7986 17.2125 13.7986ZM17.2028 16.8068C19.9174 16.8068 21.2879 14.6367 23.5809 14.6367C24.1118 14.6367 24.5522 14.7459 25.1088 15.0681C25.492 15.2793 25.859 15.1363 26.0487 14.866C26.2826 14.5283 26.2332 14.0353 25.7649 13.7701C25.094 13.3752 24.361 13.1808 23.5809 13.1808C20.836 13.1808 19.4655 15.359 17.2028 15.359C16.6737 15.359 16.2332 15.2418 15.6686 14.9293C15.2997 14.7129 14.9194 14.8469 14.7252 15.1447C14.5125 15.4744 14.5602 15.9683 15.0108 16.2256C15.6817 16.6285 16.4227 16.8068 17.2028 16.8068Z" fill="white" fill-opacity="0.85"/>
 </g>
</svg>
