<?xml version="1.0" encoding="UTF-8"?>
<!--Generator: Apple Native CoreSVG 341-->
<!DOCTYPE svg
PUBLIC "-//W3C//DTD SVG 1.1//EN"
       "http://www.w3.org/Graphics/SVG/1.1/DTD/svg11.dtd">
<svg version="1.1" xmlns="http://www.w3.org/2000/svg" xmlns:xlink="http://www.w3.org/1999/xlink" viewBox="0 0 25.8747 18.157">
 <g>
  <rect height="18.157" opacity="0" width="25.8747" x="0" y="0"/>
  <path d="M16.1031 7.7664L22.3415 7.7664C24.0113 7.7664 25.2921 6.50859 25.2921 4.89043C25.2921 3.25273 23.9943 2.02344 22.2437 2.01543C21.5894 0.750391 20.405 0 18.9564 0C17.0646 0 15.4728 1.43574 15.2724 3.34082C14.288 3.64609 13.647 4.48047 13.647 5.51914C13.647 6.83984 14.6339 7.7664 16.1031 7.7664Z" fill="white" fill-opacity="0.85"/>
  <path d="M4.2521 17.1023L21.6142 17.1184C23.6191 17.1246 25.3519 16.0971 25.2152 14.5846C25.0865 13.2168 23.3253 12.3801 21.4998 12.4945L15.2679 12.9162C14.847 12.9455 14.5796 12.8674 14.1925 12.5246L7.29077 6.69531C7.0601 6.48769 6.76382 6.39102 6.46655 6.39102L5.76264 6.42031C5.46753 6.43535 5.29819 6.73574 5.46577 7.04785L9.38471 14.3619L9.91362 13.2803L4.23746 13.6715L6.83978 14.4521L1.48295 10.7721C1.22749 10.5885 0.96323 10.5787 0.629637 10.7553L0.28081 10.9363C0.00502959 11.0676-0.0693838 11.3361 0.0653811 11.5826L2.37632 16.1885C2.69312 16.8256 3.34175 17.1006 4.2521 17.1023Z" fill="white" fill-opacity="0.85"/>
 </g>
</svg>
