<?xml version="1.0" encoding="UTF-8"?>
<!--Generator: Apple Native CoreSVG 341-->
<!DOCTYPE svg
PUBLIC "-//W3C//DTD SVG 1.1//EN"
       "http://www.w3.org/Graphics/SVG/1.1/DTD/svg11.dtd">
<svg version="1.1" xmlns="http://www.w3.org/2000/svg" xmlns:xlink="http://www.w3.org/1999/xlink" viewBox="0 0 20.0869 20.0629">
 <g>
  <rect height="20.0629" opacity="0" width="20.0869" x="0" y="0"/>
  <path d="M19.3599 0.701784C18.5441-0.106028 16.7948 0.365849 15.4343 1.71839L12.5921 4.56233C12.2095 4.94319 12.0009 5.02581 11.5028 5.00003L1.76164 4.6178C1.44738 4.60979 1.18371 4.69944 0.98488 4.89651L0.106758 5.78264C-0.0787891 5.96818-0.0201953 6.23537 0.264766 6.33303L7.95363 9.19026L4.81652 13.1344L1.29094 12.1334C1.02375 12.0553 0.801875 12.1272 0.582539 12.358L0.269258 12.6615C0.0766801 12.8524 0.0766801 13.0848 0.2675 13.2756L6.78781 19.7959C6.97687 19.985 7.21105 19.985 7.40011 19.7924L7.7134 19.4809C7.93625 19.2598 8.01613 19.0397 7.93 18.7725L6.93703 15.2469L10.8714 12.108L13.7286 19.7986C13.828 20.0819 14.1032 20.1422 14.2808 19.9567L15.1651 19.0848C15.364 18.8797 15.4536 18.616 15.4456 18.3018L15.0696 8.56057C15.0376 8.06076 15.1185 7.85217 15.5011 7.47131L18.3433 4.62912C19.6958 3.26858 20.1694 1.51936 19.3599 0.701784Z" fill="white" fill-opacity="0.85"/>
 </g>
</svg>
