<?xml version="1.0" encoding="UTF-8"?>
<!--Generator: Apple Native CoreSVG 341-->
<!DOCTYPE svg
PUBLIC "-//W3C//DTD SVG 1.1//EN"
       "http://www.w3.org/Graphics/SVG/1.1/DTD/svg11.dtd">
<svg version="1.1" xmlns="http://www.w3.org/2000/svg" xmlns:xlink="http://www.w3.org/1999/xlink" viewBox="0 0 30.3465 18.0516">
 <g>
  <rect height="18.0516" opacity="0" width="30.3465" x="0" y="0"/>
  <path d="M6.33554 10.4771C7.13065 10.4771 7.78378 9.82402 7.78378 9.0289C7.78378 8.23379 7.13065 7.58066 6.33554 7.58066C5.54042 7.58066 4.88906 8.23379 4.88906 9.0289C4.88906 9.82402 5.54042 10.4771 6.33554 10.4771ZM1.44824 10.4771C2.24336 10.4771 2.89472 9.82402 2.89472 9.0289C2.89472 8.23379 2.24336 7.58066 1.44824 7.58066C0.651366 7.58066 0 8.23379 0 9.0289C0 9.82402 0.651366 10.4771 1.44824 10.4771Z" fill="white" fill-opacity="0.85"/>
  <path d="M29.9851 9.0209C29.9771 7.98672 28.5621 7.17773 26.8359 7.17773L23.2277 7.17773C22.7359 7.17773 22.5539 7.08633 22.2574 6.75605L16.2929 0.3125C16.1039 0.105664 15.8793 0 15.6138 0L14.4998 0C14.2637 0 14.1349 0.206836 14.2441 0.450976L17.3181 7.17246L12.8246 7.67051L11.217 4.79726C11.0883 4.58066 10.9055 4.48301 10.6195 4.48301L10.2246 4.48301C9.98319 4.48301 9.82792 4.63828 9.82792 4.87168L9.82792 13.1719C9.82792 13.4115 9.98319 13.5588 10.2246 13.5588L10.6195 13.5588C10.9055 13.5588 11.0883 13.4691 11.217 13.2525L12.8246 10.3713L17.3181 10.8773L14.2441 17.5988C14.1349 17.835 14.2637 18.0418 14.4998 18.0418L15.6138 18.0418C15.8793 18.0418 16.1039 17.9361 16.2929 17.7293L22.2574 11.2857C22.5539 10.9555 22.7359 10.8721 23.2277 10.8721L26.8359 10.8721C28.5621 10.8721 29.9771 10.0551 29.9851 9.0209Z" fill="white" fill-opacity="0.85"/>
 </g>
</svg>
