<?xml version="1.0" encoding="UTF-8"?>
<!--Generator: Apple Native CoreSVG 341-->
<!DOCTYPE svg
PUBLIC "-//W3C//DTD SVG 1.1//EN"
       "http://www.w3.org/Graphics/SVG/1.1/DTD/svg11.dtd">
<svg version="1.1" xmlns="http://www.w3.org/2000/svg" xmlns:xlink="http://www.w3.org/1999/xlink" viewBox="0 0 23.9168 23.1337">
 <g>
  <rect height="23.1337" opacity="0" width="23.9168" x="0" y="0"/>
  <path d="M1.19181 20.4709L22.3557 20.4709C22.8803 20.4709 23.3092 20.034 23.3092 19.5094C23.3092 18.9848 22.8803 18.5577 22.3557 18.5577L1.19181 18.5577C0.667204 18.5577 0.238301 18.9848 0.238301 19.5094C0.238301 20.034 0.667204 20.4709 1.19181 20.4709Z" fill="white" fill-opacity="0.85"/>
  <path d="M2.63868 9.9434L19.3936 14.4506C21.3301 14.9725 23.2643 14.4288 23.535 12.9438C23.7533 11.5795 22.2779 10.3159 20.4754 9.96528L14.351 8.74907C13.9381 8.67095 13.708 8.51372 13.4186 8.09731L8.26485 0.683252C8.08653 0.431299 7.84083 0.260987 7.55157 0.189112L6.84767 0.0115734C6.55607-0.0593246 6.33009 0.204736 6.41076 0.551414L8.30861 8.63149L9.09434 7.70845L3.5051 6.61294L5.82597 8.05746L1.59767 3.11587C1.38653 2.87017 1.15333 2.79478 0.777161 2.87642L0.397278 2.9563C0.0984514 3.01392-0.0451022 3.25063 0.0125146 3.52544L1.04416 8.57876C1.18791 9.25669 1.75138 9.70649 2.63868 9.9434Z" fill="white" fill-opacity="0.85"/>
 </g>
</svg>
