<?xml version="1.0" encoding="UTF-8"?>
<!--Generator: Apple Native CoreSVG 341-->
<!DOCTYPE svg
PUBLIC "-//W3C//DTD SVG 1.1//EN"
       "http://www.w3.org/Graphics/SVG/1.1/DTD/svg11.dtd">
<svg version="1.1" xmlns="http://www.w3.org/2000/svg" xmlns:xlink="http://www.w3.org/1999/xlink" viewBox="0 0 35.9039 22.2344">
 <g>
  <rect height="22.2344" opacity="0" width="35.9039" x="0" y="0"/>
  <path d="M3.86796 17.7867C4.1998 17.4035 4.09687 16.9111 3.72597 16.4914C2.45429 15.0803 1.74296 13.1855 1.74296 11.1123C1.74296 9.04081 2.45253 7.14433 3.72597 5.73495C4.09863 5.31522 4.20332 4.82284 3.86796 4.43964C3.52734 4.03339 2.92949 4.01855 2.49863 4.48671C0.910938 6.20058 0 8.57773 0 11.1123C0 13.6504 0.886329 16.0037 2.49863 17.7396C2.93301 18.206 3.5291 18.1867 3.86796 17.7867ZM31.6648 17.7867C32.0135 18.1867 32.6015 18.206 33.0439 17.7396C34.6562 16.0037 35.5426 13.6504 35.5426 11.1123C35.5426 8.57773 34.6316 6.20058 33.0439 4.48671C32.6051 4.01855 32.0152 4.03339 31.6648 4.43964C31.3392 4.82284 31.4359 5.31522 31.8166 5.73495C33.0918 7.14608 33.7996 9.04081 33.7996 11.1123C33.7996 13.1855 33.0865 15.0803 31.8166 16.4914C31.4377 16.9111 31.341 17.4035 31.6648 17.7867Z" fill="white" fill-opacity="0.85"/>
  <path d="M6.71659 14.9877C7.03964 14.608 6.9162 14.1369 6.59316 13.6977C6.05292 13.0144 5.76796 12.0769 5.76796 11.1123C5.76796 10.1476 6.05292 9.20038 6.59316 8.52343C6.91444 8.08593 7.03964 7.61659 6.71659 7.23515C6.37323 6.82538 5.73105 6.81835 5.33476 7.29648C4.49746 8.31249 4.025 9.66445 4.025 11.1123C4.025 12.5601 4.49746 13.9121 5.33476 14.9246C5.73105 15.4045 6.37323 15.3894 6.71659 14.9877ZM28.818 14.9877C29.1596 15.3894 29.8035 15.4045 30.206 14.9246C31.0451 13.9121 31.5158 12.5601 31.5158 11.1123C31.5158 9.66445 31.0451 8.31249 30.206 7.29648C29.8035 6.81835 29.1596 6.82538 28.818 7.23515C28.4949 7.61659 28.6264 8.08593 28.9396 8.52343C29.4799 9.20038 29.7728 10.1476 29.7728 11.1123C29.7728 12.0769 29.4799 13.0144 28.9396 13.6977C28.6246 14.1369 28.4949 14.608 28.818 14.9877Z" fill="white" fill-opacity="0.85"/>
  <path d="M17.7664 20.4885C22.9676 20.4885 27.1674 16.2807 27.1674 11.0875C27.1674 5.89433 22.9676 1.68652 17.7664 1.68652C12.575 1.68652 8.36542 5.89433 8.36542 11.0875C8.36542 16.2807 12.575 20.4885 17.7664 20.4885ZM17.7664 18.5559C13.6406 18.5559 10.306 15.2133 10.306 11.0875C10.306 6.96971 13.6406 3.63514 17.7664 3.63514C21.8842 3.63514 25.2285 6.96971 25.2285 11.0875C25.2285 15.2133 21.8842 18.5559 17.7664 18.5559ZM9.6205 4.20683C9.76874 4.20683 9.87617 4.16875 10.0182 4.06132L13.4584 1.54238C13.6164 1.41719 13.7078 1.26367 13.7078 1.09238C13.7078 0.880272 13.6066 0.700194 13.4283 0.542186C13.015 0.188085 12.3457 0 11.7238 0C10.1449 0 8.875 1.24355 8.875 2.79414C8.875 3.19336 8.94687 3.55996 9.0498 3.8039C9.15898 4.04355 9.36933 4.20683 9.6205 4.20683ZM25.9238 4.20683C26.167 4.20683 26.3773 4.03378 26.4928 3.8039C26.6055 3.56972 26.6596 3.19336 26.6596 2.79414C26.6596 1.24355 25.3976 0 23.817 0C23.1889 0 22.5258 0.188085 22.1125 0.542186C21.9279 0.700194 21.825 0.880272 21.825 1.09238C21.825 1.26367 21.9182 1.41719 22.0842 1.54238L25.5244 4.06132C25.6664 4.16875 25.7721 4.20683 25.9238 4.20683ZM9.51972 20.3275C9.85312 20.6592 10.3861 20.6539 10.7258 20.3107L12.6576 18.3922L11.4764 17.2109L9.52773 19.1568C9.1916 19.4832 9.1996 20.0109 9.51972 20.3275ZM26.0228 20.3275C26.3412 20.0109 26.3492 19.4832 26.0131 19.1568L24.0644 17.2109L22.8832 18.3922L24.807 20.3107C25.1502 20.6504 25.6797 20.6592 26.0228 20.3275ZM13.5111 12.2928L17.7584 12.2928C18.1912 12.2928 18.5176 11.9566 18.5176 11.5318L18.5176 5.83709C18.5176 5.41405 18.1912 5.08768 17.7584 5.08768C17.3434 5.08768 17.0072 5.41405 17.0072 5.83709L17.0072 10.7824L13.5111 10.7824C13.0863 10.7824 12.7599 11.1105 12.7599 11.5318C12.7599 11.9566 13.0863 12.2928 13.5111 12.2928Z" fill="white" fill-opacity="0.85"/>
 </g>
</svg>
