<?xml version="1.0" encoding="UTF-8"?>
<!--Generator: Apple Native CoreSVG 341-->
<!DOCTYPE svg
PUBLIC "-//W3C//DTD SVG 1.1//EN"
       "http://www.w3.org/Graphics/SVG/1.1/DTD/svg11.dtd">
<svg version="1.1" xmlns="http://www.w3.org/2000/svg" xmlns:xlink="http://www.w3.org/1999/xlink" viewBox="0 0 19.1633 22.293">
 <g>
  <rect height="22.293" opacity="0" width="19.1633" x="0" y="0"/>
  <path d="M9.40097 20.4965C14.5941 20.4965 18.8019 16.2887 18.8019 11.0955C18.8019 5.9041 14.5941 1.68652 9.40097 1.68652C4.20781 1.68652 0 5.9041 0 11.0955C0 16.2887 4.20781 20.4965 9.40097 20.4965ZM9.40097 18.5576C5.27519 18.5576 1.93886 15.2213 1.93886 11.0955C1.93886 6.97948 5.27519 3.63514 9.40097 3.63514C13.5188 3.63514 16.8613 6.97948 16.8613 11.0955C16.8613 15.2213 13.5188 18.5576 9.40097 18.5576ZM1.25508 4.20683C1.40332 4.20683 1.50899 4.17851 1.65274 4.06933L5.09296 1.54238C5.25097 1.42519 5.34238 1.26367 5.34238 1.09238C5.34238 0.880272 5.23945 0.700194 5.06289 0.543944C4.64961 0.196093 3.98027 0 3.35039 0C1.77949 0 0.509574 1.24355 0.509574 2.80215C0.509574 3.19336 0.571683 3.56171 0.684378 3.8039C0.793558 4.05156 1.00391 4.20683 1.25508 4.20683ZM17.5504 4.20683C17.7998 4.20683 18.0119 4.04355 18.1273 3.8039C18.232 3.56972 18.2924 3.19336 18.2924 2.80215C18.2924 1.24355 17.0322 0 15.4516 0C14.8217 0 14.1523 0.196093 13.7391 0.543944C13.5625 0.700194 13.4596 0.880272 13.4596 1.09238C13.4596 1.26367 13.551 1.42519 13.7187 1.54238L17.151 4.06933C17.301 4.17851 17.3986 4.20683 17.5504 4.20683ZM1.1543 20.3293C1.48769 20.6689 2.0207 20.6619 2.36035 20.3125L4.29218 18.3922L3.11093 17.2207L1.16231 19.1568C0.826174 19.4849 0.834182 20.0109 1.1543 20.3293ZM17.6477 20.3293C17.9758 20.0109 17.9758 19.4849 17.6396 19.1568L15.691 17.2207L14.5178 18.3922L16.4416 20.3125C16.783 20.6601 17.3143 20.6689 17.6477 20.3293Z" fill="white" fill-opacity="0.85"/>
  <path d="M5.14569 12.2928L9.39297 12.2928C9.81601 12.2928 10.1521 11.9646 10.1521 11.5416L10.1521 5.8451C10.1521 5.42381 9.81601 5.08768 9.39297 5.08768C8.96816 5.08768 8.6418 5.42381 8.6418 5.8451L8.6418 10.7842L5.14569 10.7842C4.72089 10.7842 4.39277 11.1203 4.39277 11.5416C4.39277 11.9646 4.72089 12.2928 5.14569 12.2928Z" fill="white" fill-opacity="0.85"/>
 </g>
</svg>
