<?xml version="1.0" encoding="UTF-8"?>
<!--Generator: Apple Native CoreSVG 341-->
<!DOCTYPE svg
PUBLIC "-//W3C//DTD SVG 1.1//EN"
       "http://www.w3.org/Graphics/SVG/1.1/DTD/svg11.dtd">
<svg version="1.1" xmlns="http://www.w3.org/2000/svg" xmlns:xlink="http://www.w3.org/1999/xlink" viewBox="0 0 23.2482 23.2672">
 <g>
  <rect height="23.2672" opacity="0" width="23.2482" x="0" y="0"/>
  <path d="M17.0033 10.7148C18.5119 10.7148 19.3715 9.87304 19.3715 8.38398L19.3715 4.89238C19.3715 3.40508 18.5119 2.56328 17.0033 2.56328L9.17148 2.56328C7.65488 2.56328 6.80332 3.40508 6.80332 4.89238L6.80332 8.38398C6.80332 9.87304 7.65488 10.7148 9.17148 10.7148ZM16.8387 8.91504L9.33788 8.91504C8.86874 8.91504 8.60312 8.64941 8.60312 8.16426L8.60312 5.10585C8.60312 4.6287 8.86874 4.36307 9.33788 4.36307L16.8387 4.36307C17.306 4.36307 17.5717 4.6287 17.5717 5.10585L17.5717 8.16426C17.5717 8.64941 17.306 8.91504 16.8387 8.91504ZM17.0033 20.6861C18.5119 20.6861 19.3715 19.8426 19.3715 18.3535L19.3715 14.8637C19.3715 13.3844 18.5119 12.5328 17.0033 12.5328L2.36816 12.5328C0.853317 12.5328 0 13.3844 0 14.8637L0 18.3535C0 19.8426 0.853317 20.6861 2.36816 20.6861ZM16.8387 18.8846L2.53456 18.8846C2.06542 18.8846 1.79979 18.6207 1.79979 18.1418L1.79979 15.0851C1.79979 14.6 2.06542 14.3344 2.53456 14.3344L16.8387 14.3344C17.306 14.3344 17.5717 14.6 17.5717 15.0851L17.5717 18.1418C17.5717 18.6207 17.306 18.8846 16.8387 18.8846Z" fill="white" fill-opacity="0.85"/>
  <path d="M22.0052 23.2519C22.481 23.2519 22.8869 22.8781 22.8869 22.4023L22.8869 0.846087C22.8869 0.372067 22.481 0 22.0052 0C21.533 0 21.1191 0.372067 21.1191 0.846087L21.1191 22.4023C21.1191 22.8781 21.533 23.2519 22.0052 23.2519Z" fill="white" fill-opacity="0.85"/>
 </g>
</svg>
