<?xml version="1.0" encoding="UTF-8"?>
<!--Generator: Apple Native CoreSVG 341-->
<!DOCTYPE svg
PUBLIC "-//W3C//DTD SVG 1.1//EN"
       "http://www.w3.org/Graphics/SVG/1.1/DTD/svg11.dtd">
<svg version="1.1" xmlns="http://www.w3.org/2000/svg" xmlns:xlink="http://www.w3.org/1999/xlink" viewBox="0 0 23.6133 22.839">
 <g>
  <rect height="22.839" opacity="0" width="23.6133" x="0" y="0"/>
  <path d="M4.90468 22.839L8.39628 22.839C9.88358 22.839 10.7254 21.9857 10.7254 20.4709L10.7254 5.91834C10.7254 4.40975 9.88358 3.54843 8.39628 3.54843L4.90468 3.54843C3.41562 3.54843 2.57383 4.40975 2.57383 5.91834L2.57383 20.4709C2.57383 21.9857 3.41562 22.839 4.90468 22.839ZM5.1244 21.0392C4.63925 21.0392 4.37362 20.7736 4.37362 20.3045L4.37362 6.08299C4.37362 5.62361 4.63925 5.34998 5.1244 5.34998L8.1748 5.34998C8.65996 5.34998 8.92559 5.62361 8.92559 6.08299L8.92559 20.3045C8.92559 20.7736 8.65996 21.0392 8.1748 21.0392ZM14.884 16.0357L18.3738 16.0357C19.8531 16.0357 20.7047 15.1841 20.7047 13.6675L20.7047 5.91834C20.7047 4.40975 19.8531 3.54843 18.3738 3.54843L14.884 3.54843C13.3949 3.54843 12.5433 4.40975 12.5433 5.91834L12.5433 13.6675C12.5433 15.1841 13.3949 16.0357 14.884 16.0357ZM15.0957 14.2359C14.6185 14.2359 14.3449 13.9703 14.3449 13.5011L14.3449 6.08299C14.3449 5.62361 14.6185 5.34998 15.0957 5.34998L18.1523 5.34998C18.6312 5.34998 18.9031 5.62361 18.9031 6.08299L18.9031 13.5011C18.9031 13.9703 18.6312 14.2359 18.1523 14.2359Z" fill="white" fill-opacity="0.85"/>
  <path d="M0.855852 1.7785L22.4058 1.7785C22.8781 1.7785 23.2519 1.37265 23.2519 0.898626C23.2519 0.424607 22.8781 0.0107425 22.4058 0.0107425L0.855852 0.0107425C0.372067 0.0107425 0 0.424607 0 0.898626C0 1.37265 0.372067 1.7785 0.855852 1.7785Z" fill="white" fill-opacity="0.85"/>
 </g>
</svg>
