<?xml version="1.0" encoding="UTF-8"?>
<!--Generator: Apple Native CoreSVG 341-->
<!DOCTYPE svg
PUBLIC "-//W3C//DTD SVG 1.1//EN"
       "http://www.w3.org/Graphics/SVG/1.1/DTD/svg11.dtd">
<svg version="1.1" xmlns="http://www.w3.org/2000/svg" xmlns:xlink="http://www.w3.org/1999/xlink" viewBox="0 0 23.6133 22.839">
 <g>
  <rect height="22.839" opacity="0" width="23.6133" x="0" y="0"/>
  <path d="M4.90468 19.2996L8.39628 19.2996C9.88358 19.2996 10.7254 18.448 10.7254 16.9314L10.7254 2.3789C10.7254 0.862302 9.88358 0.0107425 8.39628 0.0107425L4.90468 0.0107425C3.41562 0.0107425 2.57383 0.862302 2.57383 2.3789L2.57383 16.9314C2.57383 18.448 3.41562 19.2996 4.90468 19.2996ZM5.1244 17.4998C4.63925 17.4998 4.37362 17.2342 4.37362 16.7668L4.37362 2.5453C4.37362 2.07616 4.63925 1.81053 5.1244 1.81053L8.1748 1.81053C8.65996 1.81053 8.92559 2.07616 8.92559 2.5453L8.92559 16.7668C8.92559 17.2342 8.65996 17.4998 8.1748 17.4998ZM14.884 19.2996L18.3738 19.2996C19.8531 19.2996 20.7047 18.448 20.7047 16.9314L20.7047 9.18223C20.7047 7.67363 19.8531 6.81231 18.3738 6.81231L14.884 6.81231C13.3949 6.81231 12.5433 7.67363 12.5433 9.18223L12.5433 16.9314C12.5433 18.448 13.3949 19.2996 14.884 19.2996ZM15.0957 17.4998C14.6185 17.4998 14.3449 17.2342 14.3449 16.7668L14.3449 9.34863C14.3449 8.87773 14.6185 8.61386 15.0957 8.61386L18.1523 8.61386C18.6312 8.61386 18.9031 8.87773 18.9031 9.34863L18.9031 16.7668C18.9031 17.2342 18.6312 17.4998 18.1523 17.4998Z" fill="white" fill-opacity="0.85"/>
  <path d="M0.855852 22.839L22.4058 22.839C22.8781 22.839 23.2519 22.4332 23.2519 21.9574C23.2519 21.4851 22.8781 21.0713 22.4058 21.0713L0.855852 21.0713C0.372067 21.0713 0 21.4851 0 21.9574C0 22.4332 0.372067 22.839 0.855852 22.839Z" fill="white" fill-opacity="0.85"/>
 </g>
</svg>
