<?xml version="1.0" encoding="UTF-8"?>
<!--Generator: Apple Native CoreSVG 341-->
<!DOCTYPE svg
PUBLIC "-//W3C//DTD SVG 1.1//EN"
       "http://www.w3.org/Graphics/SVG/1.1/DTD/svg11.dtd">
<svg version="1.1" xmlns="http://www.w3.org/2000/svg" xmlns:xlink="http://www.w3.org/1999/xlink" viewBox="0 0 20.4792 20.1196">
 <g>
  <rect height="20.1196" opacity="0" width="20.4792" x="0" y="0"/>
  <path d="M15.7465 15.7465C19.5627 11.9143 20.9049 6.49146 19.6657 2.31216C19.3133 1.17798 18.9399 0.794782 17.7959 0.452205C13.6247-0.795061 8.19556 0.547126 4.36334 4.36334C0.547126 8.19556-0.795061 13.6247 0.452205 17.7959C0.794782 18.9319 1.17798 19.3133 2.31216 19.6577C6.49146 20.9049 11.9143 19.5627 15.7465 15.7465ZM14.4536 14.4536C11.1864 17.7385 6.92193 18.9735 2.9188 17.9178C2.41782 17.7917 2.31997 17.6938 2.17876 17.1565C1.15766 13.1729 2.37309 8.91997 5.65454 5.65454C8.92798 2.37309 13.1729 1.14966 17.1565 2.17075C17.6938 2.31997 17.7917 2.41782 17.9178 2.9188C18.9815 6.91392 17.7385 11.1864 14.4536 14.4536ZM11.7579 0.782674L10.3911 2.14947L17.9834 9.74985L19.3582 8.37505ZM0.790682 11.7579L8.37505 19.3582L9.74985 17.9834L2.15747 10.3911ZM6.07779 12.0096L8.1065 14.0303C8.29361 14.2254 8.59067 14.2254 8.78403 14.0303C8.97114 13.845 8.97114 13.5399 8.78403 13.3448L6.76333 11.3258C6.57798 11.1387 6.2649 11.1387 6.07779 11.3258C5.89244 11.5192 5.89244 11.8163 6.07779 12.0096ZM7.39869 10.6825L9.4274 12.7112C9.61099 12.8965 9.91782 12.8965 10.1049 12.7112C10.2903 12.5258 10.2903 12.211 10.1049 12.0256L8.08423 10.0049C7.89888 9.81783 7.58228 9.81783 7.39869 10.0049C7.21334 10.1903 7.21334 10.4971 7.39869 10.6825ZM8.71783 9.36333L10.7465 11.392C10.9319 11.5756 11.2387 11.5756 11.4258 11.392C11.6094 11.1987 11.6094 10.8901 11.4258 10.7127L9.39712 8.68404C9.21802 8.50045 8.90318 8.50045 8.71783 8.68404C8.53248 8.87115 8.53248 9.17798 8.71783 9.36333ZM10.0422 8.04693L12.0629 10.0676C12.2563 10.2547 12.5614 10.2547 12.7467 10.0676C12.9418 9.87427 12.9418 9.5772 12.7467 9.39009L10.7278 7.36138C10.5327 7.17603 10.2356 7.17603 10.0422 7.36138C9.85513 7.54849 9.85513 7.86158 10.0422 8.04693ZM11.3694 6.72779L13.3821 8.73872C13.5754 8.93384 13.8823 8.93384 14.0676 8.73872C14.2627 8.55513 14.2627 8.2563 14.0676 8.06294L12.0469 6.03423C11.8536 5.84713 11.5547 5.84713 11.3694 6.03423C11.176 6.22759 11.176 6.53443 11.3694 6.72779ZM7.60493 13.1807L13.1887 7.60493L12.5112 6.9274L6.92916 12.5112Z" fill="white" fill-opacity="0.85"/>
 </g>
</svg>
