<?xml version="1.0" encoding="UTF-8"?>
<!--Generator: Apple Native CoreSVG 341-->
<!DOCTYPE svg
PUBLIC "-//W3C//DTD SVG 1.1//EN"
       "http://www.w3.org/Graphics/SVG/1.1/DTD/svg11.dtd">
<svg version="1.1" xmlns="http://www.w3.org/2000/svg" xmlns:xlink="http://www.w3.org/1999/xlink" viewBox="0 0 20.4792 20.1196">
 <g>
  <rect height="20.1196" opacity="0" width="20.4792" x="0" y="0"/>
  <path d="M15.7465 15.7465C19.5627 11.9143 20.9049 6.49146 19.6657 2.31216C19.3133 1.17798 18.9399 0.794782 17.7959 0.452205C13.6247-0.795061 8.19556 0.547126 4.36334 4.36334C0.547126 8.19556-0.795061 13.6247 0.452205 17.7959C0.794782 18.9319 1.17798 19.3133 2.31216 19.6577C6.49146 20.9049 11.9143 19.5627 15.7465 15.7465ZM14.4536 14.4536C11.1864 17.7385 6.92193 18.9735 2.9188 17.9178C2.41782 17.7917 2.31997 17.6938 2.17876 17.1565C1.15766 13.1729 2.37309 8.91997 5.65454 5.65454C8.92798 2.37309 13.1729 1.14966 17.1565 2.17075C17.6938 2.31997 17.7917 2.41782 17.9178 2.9188C18.9815 6.91392 17.7385 11.1864 14.4536 14.4536ZM5.82427 12.1413L7.97661 14.2856C8.17798 14.479 8.49106 14.479 8.7022 14.2856C8.89731 14.0825 8.89731 13.7534 8.7022 13.5502L6.55962 11.4077C6.3565 11.2126 6.0274 11.2126 5.82427 11.4077C5.62916 11.617 5.62916 11.9301 5.82427 12.1413ZM7.23501 10.7225L9.3856 12.8749C9.57896 13.0762 9.90981 13.0762 10.1049 12.8749C10.3081 12.6815 10.3081 12.3426 10.1049 12.1475L7.9606 10.0049C7.76724 9.80181 7.42662 9.80181 7.23501 10.0049C7.03189 10.2001 7.03189 10.5309 7.23501 10.7225ZM8.63599 9.32329L10.7866 11.4739C10.9817 11.6752 11.3125 11.6752 11.5077 11.4739C11.7073 11.2725 11.7073 10.9399 11.5077 10.7545L9.35532 8.6022C9.16997 8.40259 8.82935 8.40259 8.63599 8.6022C8.43462 8.79732 8.43462 9.12818 8.63599 9.32329ZM10.0422 7.92505L12.1848 10.0676C12.3879 10.2627 12.717 10.2627 12.9122 10.0676C13.1135 9.85649 13.1135 9.54341 12.9122 9.35005L10.7678 7.19771C10.5647 6.99459 10.2516 6.99459 10.0422 7.19771C9.84712 7.39283 9.84712 7.72993 10.0422 7.92505ZM11.453 6.52232L13.5876 8.65688C13.7952 8.86001 14.1198 8.86001 14.3211 8.65688C14.5243 8.45728 14.5243 8.14068 14.3211 7.9313L12.1786 5.77896C11.9674 5.59361 11.6526 5.59361 11.453 5.77896C11.2499 5.99009 11.2499 6.31294 11.453 6.52232ZM7.44927 13.3862L13.3862 7.44927L12.6668 6.73169L6.72369 12.6668Z" fill="white" fill-opacity="0.85"/>
 </g>
</svg>
