<?xml version="1.0" encoding="UTF-8"?>
<!--Generator: Apple Native CoreSVG 341-->
<!DOCTYPE svg
PUBLIC "-//W3C//DTD SVG 1.1//EN"
       "http://www.w3.org/Graphics/SVG/1.1/DTD/svg11.dtd">
<svg version="1.1" xmlns="http://www.w3.org/2000/svg" xmlns:xlink="http://www.w3.org/1999/xlink" viewBox="0 0 20.5381 20.1848">
 <g>
  <rect height="20.1848" opacity="0" width="20.5381" x="0" y="0"/>
  <path d="M10.0875 20.175C15.6576 20.175 20.1767 15.6559 20.1767 10.0875C20.1767 4.51914 15.6576 0 10.0875 0C4.51914 0 0 4.51914 0 10.0875C0 15.6559 4.51914 20.175 10.0875 20.175ZM10.0875 18.1879C5.60839 18.1879 1.9871 14.5666 1.9871 10.0875C1.9871 5.60839 5.60839 1.9871 10.0875 1.9871C14.5666 1.9871 18.1897 5.60839 18.1897 10.0875C18.1897 14.5666 14.5666 18.1879 10.0875 18.1879Z" fill="white" fill-opacity="0.85"/>
  <path d="M6.27948 14.7965C7.14472 15.0541 8.1041 15.0789 9.07148 14.8932L5.27733 11.107C5.09159 12.0664 5.1244 13.032 5.38202 13.899C5.5498 14.4459 5.7246 14.6207 6.27948 14.7965ZM12.8668 12.8615C13.674 12.0658 14.2441 11.1396 14.5984 10.1584L10.0121 5.58007C9.03886 5.9246 8.10468 6.50448 7.30898 7.30995C6.49999 8.10917 5.92812 9.04335 5.57558 10.0148L10.1557 14.5949C11.1352 14.2486 12.0613 13.6705 12.8668 12.8615ZM9.44433 12.126C9.33339 12.2174 9.18613 12.2094 9.07695 12.118L8.04453 11.0936C7.95312 10.9986 7.9496 10.8434 8.04453 10.7342C8.15722 10.6375 8.31249 10.6375 8.40566 10.7342L8.74042 11.0672L9.06035 10.749L8.72382 10.4223C8.62089 10.3309 8.62089 10.1561 8.72382 10.0611C8.81699 9.95195 8.98378 9.95195 9.08495 10.0514L9.42148 10.3994L9.72988 10.0715L9.40312 9.73671C9.30019 9.64003 9.29218 9.47851 9.40312 9.3916C9.4998 9.28066 9.65331 9.28066 9.74824 9.38359L10.091 9.72461L10.4189 9.40019L10.0744 9.06191C9.97148 8.96874 9.97148 8.80371 10.0744 8.70429C10.1853 8.60761 10.3424 8.60761 10.4275 8.70429L10.7623 9.0373L11.0902 8.7289L10.7457 8.39238C10.6588 8.2912 10.6508 8.12617 10.7457 8.02499C10.8566 7.93808 11.0057 7.93007 11.1068 8.02499L12.1455 9.05214C12.2404 9.15683 12.2324 9.32187 12.1455 9.42304C12.0443 9.51796 11.8855 9.51796 11.7781 9.41503L11.4416 9.08027L11.1234 9.40019L11.4662 9.74296C11.5629 9.82812 11.5629 9.99316 11.4662 10.0961C11.365 10.1973 11.2098 10.1893 11.1068 10.0881L10.7623 9.75156L10.4441 10.0715L10.7869 10.4125C10.8818 10.5092 10.8863 10.6787 10.7869 10.7674C10.6902 10.8748 10.5287 10.8685 10.4338 10.7674L10.091 10.4406L9.76308 10.749L10.1094 11.0838C10.2185 11.1867 10.2185 11.3518 10.1094 11.4467C10.0127 11.5478 9.85566 11.5559 9.74824 11.4467L9.42148 11.1102L9.10156 11.4221L9.44433 11.7728C9.533 11.866 9.533 12.0213 9.44433 12.126ZM14.792 6.27597C14.6162 5.72909 14.4414 5.55429 13.8945 5.37851C13.0275 5.12089 12.0717 5.09608 11.1025 5.28007L14.8904 9.06797C15.0824 8.09882 15.0496 7.1412 14.792 6.27597Z" fill="white" fill-opacity="0.85"/>
 </g>
</svg>
