<?xml version="1.0" encoding="UTF-8"?>
<!--Generator: Apple Native CoreSVG 341-->
<!DOCTYPE svg
PUBLIC "-//W3C//DTD SVG 1.1//EN"
       "http://www.w3.org/Graphics/SVG/1.1/DTD/svg11.dtd">
<svg version="1.1" xmlns="http://www.w3.org/2000/svg" xmlns:xlink="http://www.w3.org/1999/xlink" viewBox="0 0 20.5381 20.1848">
 <g>
  <rect height="20.1848" opacity="0" width="20.5381" x="0" y="0"/>
  <path d="M10.0875 20.175C15.6576 20.175 20.1767 15.6559 20.1767 10.0875C20.1767 4.51914 15.6576 0 10.0875 0C4.51914 0 0 4.51914 0 10.0875C0 15.6559 4.51914 20.175 10.0875 20.175ZM10.0875 18.1879C5.60839 18.1879 1.9871 14.5666 1.9871 10.0875C1.9871 5.60839 5.60839 1.9871 10.0875 1.9871C14.5666 1.9871 18.1897 5.60839 18.1897 10.0875C18.1897 14.5666 14.5666 18.1879 10.0875 18.1879Z" fill="white" fill-opacity="0.85"/>
  <path d="M5.7121 12.7293L6.11972 15.382C6.17031 15.6811 6.3123 15.8559 6.59355 15.8559C6.87128 15.8559 7.08066 15.6518 7.03007 15.3102L6.66327 12.8898C6.61796 12.5959 6.70859 12.4637 7.0373 12.366C7.15195 12.3287 7.26484 12.3029 7.38749 12.2674C7.32968 12.4353 7.30566 12.6176 7.30566 12.8381C7.30566 14.542 8.59316 16.15 10.0875 16.15C11.5818 16.15 12.8711 14.542 12.8711 12.8381C12.8711 12.6176 12.8471 12.4353 12.7875 12.2674C12.9021 12.3029 13.0168 12.3287 13.1377 12.366C13.4664 12.4637 13.5508 12.5959 13.5117 12.8898L13.1387 15.3102C13.0863 15.6518 13.2957 15.8559 13.5814 15.8559C13.8627 15.8559 14.0064 15.6811 14.049 15.382L14.4629 12.7293C14.5721 12.085 14.3031 11.7291 13.5949 11.5516L11.3324 11.0223C11.4896 10.9574 11.6807 10.7539 11.7633 10.481L13.285 10.282C13.9701 10.1914 14.2932 9.79394 14.2932 9.10527L14.2932 7.33612C14.2932 7.05487 14.1264 6.88183 13.8291 6.88183C13.5496 6.88183 13.3846 7.05487 13.3846 7.33612L13.3846 8.92519C13.3846 9.30058 13.1805 9.41327 12.8396 9.45859L11.7684 9.60703C11.7213 9.44003 11.6156 9.28203 11.5064 9.19765C12.3686 9.02714 12.8027 8.49531 12.8027 7.69081C12.8027 7.06191 12.5894 6.47831 12.2127 6.01913L12.2596 5.97929C12.7894 5.60292 12.8969 5.03651 12.5418 4.42675L12.2514 3.92948C12.1422 3.73339 12.018 3.64374 11.8271 3.64374C11.5937 3.64374 11.4109 3.81679 11.4109 4.04843C11.4109 4.1496 11.4287 4.21972 11.4908 4.32089L11.7467 4.71347C11.8896 4.96386 11.9324 5.18397 11.7424 5.33319L11.6172 5.43183C11.1635 5.1371 10.5961 4.95956 10.0875 4.95956C9.57089 4.95956 9.00351 5.1371 8.5498 5.43183L8.4246 5.33319C8.24433 5.18397 8.2871 4.96386 8.43007 4.71347L8.67617 4.32089C8.74628 4.21972 8.75605 4.1496 8.75605 4.04843C8.75605 3.81679 8.583 3.64374 8.3416 3.64374C8.15703 3.64374 8.01855 3.72538 7.91562 3.92948L7.62519 4.42675C7.28613 5.04628 7.37929 5.60292 7.91543 5.97929L7.95429 6.01913C7.57753 6.47831 7.36425 7.06191 7.36425 7.69081C7.36425 8.4873 7.80644 9.02714 8.66855 9.18964C8.56113 9.27402 8.4457 9.44003 8.40839 9.60703L7.32733 9.45859C6.99452 9.42128 6.78241 9.30058 6.78241 8.92519L6.78241 7.33612C6.78241 7.05487 6.62714 6.88183 6.33788 6.88183C6.05038 6.88183 5.88183 7.05487 5.88183 7.33612L5.88183 9.10527C5.88183 9.79394 6.19687 10.1914 6.89003 10.282L8.41171 10.481C8.48808 10.7539 8.67734 10.9494 8.84257 11.0223L6.58007 11.5516C5.87187 11.7211 5.60468 12.085 5.7121 12.7293Z" fill="white" fill-opacity="0.85"/>
 </g>
</svg>
