<?xml version="1.0" encoding="UTF-8"?>
<!--Generator: Apple Native CoreSVG 341-->
<!DOCTYPE svg
PUBLIC "-//W3C//DTD SVG 1.1//EN"
       "http://www.w3.org/Graphics/SVG/1.1/DTD/svg11.dtd">
<svg version="1.1" xmlns="http://www.w3.org/2000/svg" xmlns:xlink="http://www.w3.org/1999/xlink" viewBox="0 0 20.5381 20.1848">
 <g>
  <rect height="20.1848" opacity="0" width="20.5381" x="0" y="0"/>
  <path d="M10.0875 20.175C15.6576 20.175 20.1767 15.6559 20.1767 10.0875C20.1767 4.51914 15.6576 0 10.0875 0C4.51914 0 0 4.51914 0 10.0875C0 15.6559 4.51914 20.175 10.0875 20.175ZM10.0875 18.1879C5.60839 18.1879 1.9871 14.5666 1.9871 10.0875C1.9871 5.60839 5.60839 1.9871 10.0875 1.9871C14.5666 1.9871 18.1897 5.60839 18.1897 10.0875C18.1897 14.5666 14.5666 18.1879 10.0875 18.1879Z" fill="white" fill-opacity="0.85"/>
  <path d="M10.6562 12.3271L10.6562 15.64C10.6562 16.0162 10.4211 16.2647 10.0795 16.2647C9.74589 16.2647 9.51074 16.0064 9.51074 15.64L9.51074 11.1816ZM6.14549 5.43319L14.7516 14.0473C14.9449 14.2406 14.9449 14.5439 14.7516 14.7355C14.568 14.9271 14.2486 14.9174 14.065 14.7355L5.44745 6.11971C5.25409 5.93612 5.25409 5.62479 5.44745 5.43319C5.63905 5.23983 5.94413 5.23983 6.14549 5.43319ZM5.83436 7.50526C5.43397 8.17533 5.22284 8.96552 5.22284 9.8121C5.22284 10.9648 5.6119 12.0146 6.33144 12.7893C6.58437 13.1008 6.61542 13.4318 6.39706 13.6768C6.15663 13.9615 5.74667 13.942 5.47792 13.6492C4.53027 12.634 4.0205 11.2789 4.0205 9.8121C4.0205 8.65264 4.35288 7.54741 4.96581 6.6367ZM14.6828 5.97499C15.6172 6.98847 16.1482 8.35761 16.1482 9.8121C16.1482 11.1155 15.738 12.3306 14.981 13.2961L14.1234 12.4393C14.6601 11.7124 14.9459 10.8001 14.9459 9.8121C14.9459 8.66288 14.5568 7.61757 13.8373 6.83319C13.5746 6.53671 13.5453 6.19237 13.7557 5.95097C14.0023 5.6662 14.4123 5.67421 14.6828 5.97499ZM7.61411 9.285C7.5746 9.45602 7.55468 9.6332 7.55468 9.8121C7.55468 10.3488 7.71015 10.8338 7.99902 11.2025C8.2414 11.5451 8.27949 11.8504 8.07089 12.0873C7.83124 12.3766 7.38046 12.3605 7.133 12.0455C6.63652 11.4432 6.3541 10.6467 6.3541 9.8121C6.3541 9.29268 6.46282 8.78868 6.66528 8.33618ZM13.0277 7.57694C13.5242 8.18281 13.8066 8.97753 13.8066 9.8121C13.8066 10.4676 13.6313 11.0996 13.3143 11.6309L12.427 10.7445C12.5429 10.465 12.6043 10.1471 12.6043 9.8121C12.6043 9.29413 12.4373 8.79062 12.1529 8.3996C11.9203 8.07382 11.8928 7.77206 12.0898 7.53691C12.3375 7.24589 12.7785 7.26191 13.0277 7.57694Z" fill="white" fill-opacity="0.85"/>
 </g>
</svg>
