<?xml version="1.0" encoding="UTF-8"?>
<!--Generator: Apple Native CoreSVG 341-->
<!DOCTYPE svg
PUBLIC "-//W3C//DTD SVG 1.1//EN"
       "http://www.w3.org/Graphics/SVG/1.1/DTD/svg11.dtd">
<svg version="1.1" xmlns="http://www.w3.org/2000/svg" xmlns:xlink="http://www.w3.org/1999/xlink" viewBox="0 0 20.5381 20.1848">
 <g>
  <rect height="20.1848" opacity="0" width="20.5381" x="0" y="0"/>
  <path d="M10.0875 20.175C15.6576 20.175 20.1767 15.6559 20.1767 10.0875C20.1767 4.51914 15.6576 0 10.0875 0C4.51914 0 0 4.51914 0 10.0875C0 15.6559 4.51914 20.175 10.0875 20.175ZM10.0875 18.1879C5.60839 18.1879 1.9871 14.5666 1.9871 10.0875C1.9871 5.60839 5.60839 1.9871 10.0875 1.9871C14.5666 1.9871 18.1897 5.60839 18.1897 10.0875C18.1897 14.5666 14.5666 18.1879 10.0875 18.1879Z" fill="white" fill-opacity="0.85"/>
  <path d="M4.0205 9.8121C4.0205 11.2789 4.53027 12.634 5.47792 13.6492C5.74667 13.942 6.15663 13.9615 6.39706 13.6768C6.61542 13.4318 6.58437 13.1008 6.33144 12.7893C5.6119 12.0146 5.22284 10.9648 5.22284 9.8121C5.22284 8.66288 5.6119 7.61757 6.33144 6.83319C6.58437 6.53671 6.61542 6.19237 6.40507 5.95097C6.15663 5.6662 5.74667 5.67421 5.47792 5.97499C4.54355 6.98847 4.0205 8.35761 4.0205 9.8121ZM14.9459 9.8121C14.9459 10.9648 14.5568 12.0146 13.8373 12.7893C13.5746 13.1008 13.5453 13.4318 13.7637 13.6768C14.0023 13.9615 14.4123 13.942 14.6828 13.6492C15.6287 12.634 16.1482 11.2789 16.1482 9.8121C16.1482 8.35761 15.6172 6.98847 14.6828 5.97499C14.4123 5.67421 14.0023 5.6662 13.7557 5.95097C13.5453 6.19237 13.5746 6.53671 13.8373 6.83319C14.5568 7.61757 14.9459 8.66288 14.9459 9.8121Z" fill="white" fill-opacity="0.85"/>
  <path d="M6.3541 9.8121C6.3541 10.6467 6.63652 11.4432 7.133 12.0455C7.38046 12.3605 7.83124 12.3766 8.07089 12.0873C8.27949 11.8504 8.2414 11.5451 7.99902 11.2025C7.71015 10.8338 7.55468 10.3488 7.55468 9.8121C7.55468 9.29413 7.72167 8.79062 8.01581 8.3996C8.24843 8.07382 8.2662 7.77206 8.07089 7.53691C7.82324 7.24589 7.38046 7.26191 7.133 7.57694C6.63476 8.18281 6.3541 8.97753 6.3541 9.8121ZM12.6043 9.8121C12.6043 10.3541 12.4436 10.8514 12.1529 11.2148C11.9053 11.5486 11.8848 11.8539 12.0898 12.0873C12.3295 12.3766 12.7785 12.3605 13.0277 12.0455C13.5225 11.4432 13.8066 10.6467 13.8066 9.8121C13.8066 8.97753 13.5242 8.18281 13.0277 7.57694C12.7785 7.26191 12.3375 7.24589 12.0898 7.53691C11.8928 7.77206 11.9203 8.07382 12.1529 8.3996C12.4373 8.79062 12.6043 9.29413 12.6043 9.8121Z" fill="white" fill-opacity="0.85"/>
  <path d="M8.92382 9.8121C8.92382 10.2435 9.16269 10.6084 9.51074 10.8027L9.51074 15.64C9.51074 16.0064 9.74589 16.2647 10.0795 16.2647C10.4211 16.2647 10.6562 16.0162 10.6562 15.64L10.6562 10.8027C10.998 10.6084 11.2369 10.2355 11.2369 9.8121C11.2369 9.16503 10.7283 8.65292 10.0795 8.65292C9.44043 8.65292 8.92382 9.16503 8.92382 9.8121Z" fill="white" fill-opacity="0.85"/>
 </g>
</svg>
