<?xml version="1.0" encoding="UTF-8"?>
<!--Generator: Apple Native CoreSVG 341-->
<!DOCTYPE svg
PUBLIC "-//W3C//DTD SVG 1.1//EN"
       "http://www.w3.org/Graphics/SVG/1.1/DTD/svg11.dtd">
<svg version="1.1" xmlns="http://www.w3.org/2000/svg" xmlns:xlink="http://www.w3.org/1999/xlink" viewBox="0 0 18.573 18.2215">
 <g>
  <rect height="18.2215" opacity="0" width="18.573" x="0" y="0"/>
  <path d="M0 8.6957L4.77578 8.6957C3.55312 8.10625 2.72753 7.05742 2.72753 5.79004C2.72753 4.28945 3.84882 3.16113 5.358 3.16113C6.62441 3.16113 7.74004 3.92422 8.40605 5.1875L8.40605 0L9.81542 0L9.81542 5.1875C10.4797 3.92422 11.5953 3.16113 12.8537 3.16113C14.3727 3.16113 15.4842 4.28945 15.4842 5.79004C15.4842 7.05742 14.6603 8.10625 13.4457 8.6957L18.2117 8.6957L18.2117 9.99413L10.8547 9.99413C11.4443 11.1756 13.2969 12.8766 14.6719 13.0609C15.2627 13.1449 15.5883 13.4928 15.5883 14.0385C15.5883 14.5467 15.1873 15.0361 14.5195 14.9387C12.9398 14.6973 10.5691 12.9223 9.88202 10.8504L9.81542 10.8504L9.81542 18.2117L8.40605 18.2117L8.40605 10.8504L8.32969 10.8504C7.64433 12.9223 5.27187 14.6973 3.70194 14.9387C3.03417 15.0361 2.6332 14.5467 2.6332 14.0385C2.6332 13.4928 2.95878 13.1529 3.54159 13.0609C4.91484 12.8606 6.76738 11.1756 7.35703 9.99413L0 9.99413ZM7.92988 8.57558L8.21601 8.57558L8.21601 8.29043C8.21601 6.42675 6.95195 4.78358 5.48886 4.78358C4.77909 4.78358 4.32694 5.24296 4.32694 5.9705C4.32694 7.22382 5.98632 8.57558 7.92988 8.57558ZM10.2818 8.57558C12.2334 8.57558 13.8848 7.22382 13.8848 5.9705C13.8848 5.24296 13.4326 4.78358 12.7229 4.78358C11.2678 4.78358 9.99745 6.42675 9.99745 8.29043L9.99745 8.57558ZM5.34238 18.2117L12.8631 18.2117C14.5801 18.2117 15.9232 17.7101 16.8109 16.8189C17.7262 15.9152 18.2117 14.5703 18.2117 12.8631L18.2117 5.35137C18.2117 3.64238 17.7262 2.29922 16.8109 1.39375C15.9152 0.496289 14.5801 0.00097692 12.8631 0.00097692L5.34238 0.00097692C3.6334 0.00097692 2.28047 0.504297 1.39277 1.39375C0.485547 2.29922 0 3.64238 0 5.35137L0 12.8631C0 14.5703 0.477539 15.9152 1.39277 16.8189C2.28848 17.7182 3.6334 18.2117 5.34238 18.2117Z" fill="white" fill-opacity="0.85"/>
 </g>
</svg>
