<?xml version="1.0" encoding="UTF-8"?>
<!--Generator: Apple Native CoreSVG 341-->
<!DOCTYPE svg
PUBLIC "-//W3C//DTD SVG 1.1//EN"
       "http://www.w3.org/Graphics/SVG/1.1/DTD/svg11.dtd">
<svg version="1.1" xmlns="http://www.w3.org/2000/svg" xmlns:xlink="http://www.w3.org/1999/xlink" viewBox="0 0 18.023 21.7344">
 <g>
  <rect height="21.7344" opacity="0" width="18.023" x="0" y="0"/>
  <path d="M4.29003 6.94218C4.29003 8.08066 5.10175 8.89863 6.65233 9.31972L11.5838 10.6607C14.0047 11.3035 15.2648 12.7375 15.2648 14.818L15.2648 15.0146L13.3867 15.0146L13.3867 14.818C13.3867 13.6795 12.583 12.8793 11.0226 12.4484L6.09296 11.1092C3.67207 10.4646 2.41191 9.03065 2.41191 6.94218L2.41191 6.73924L4.29003 6.73924Z" fill="white" fill-opacity="0.85"/>
  <path d="M2.05605 6.73924L4.67167 6.73924C5.3035 6.73924 5.81815 6.55917 6.17401 6.1953C6.54764 5.83768 6.72772 5.31854 6.72772 4.69472L6.72772 2.08359C6.72772 1.44551 6.54589 0.921092 6.17401 0.563475C5.81639 0.199609 5.3035 0.0115234 4.67167 0.0115234L2.05605 0.0115234C1.41445 0.0115234 0.893553 0.211132 0.543944 0.563475C0.189843 0.913084 0 1.4375 0 2.08359L0 4.69472C0 5.32655 0.189843 5.84921 0.543944 6.1953C0.893553 6.55116 1.41445 6.73924 2.05605 6.73924ZM12.9998 21.7344L15.6154 21.7344C16.2455 21.7344 16.7601 21.5543 17.108 21.1904C17.4914 20.8408 17.6617 20.3137 17.6617 19.6881L17.6617 17.0867C17.6617 16.4469 17.4879 15.9242 17.108 15.5666C16.7584 15.2027 16.2455 15.0146 15.6154 15.0146L12.9998 15.0146C12.3582 15.0146 11.8355 15.2125 11.4877 15.5666C11.1336 15.9162 10.9437 16.4389 10.9437 17.0867L10.9437 19.6881C10.9437 20.3217 11.1336 20.8506 11.4877 21.1904C11.8355 21.5543 12.3582 21.7344 12.9998 21.7344Z" fill="white" fill-opacity="0.85"/>
 </g>
</svg>
