<?xml version="1.0" encoding="UTF-8"?>
<!--Generator: Apple Native CoreSVG 341-->
<!DOCTYPE svg
PUBLIC "-//W3C//DTD SVG 1.1//EN"
       "http://www.w3.org/Graphics/SVG/1.1/DTD/svg11.dtd">
<svg version="1.1" xmlns="http://www.w3.org/2000/svg" xmlns:xlink="http://www.w3.org/1999/xlink" viewBox="0 0 17.107 21.1441">
 <g>
  <rect height="21.1441" opacity="0" width="17.107" x="0" y="0"/>
  <path d="M6.04706 9.91465C7.19804 9.91465 8.00077 9.12246 8.00077 7.98222C8.00077 6.87656 7.31171 6.13769 6.31698 6.13769C5.81522 6.13769 5.40487 6.29843 5.1162 6.6582L4.92089 6.6582C4.9955 6.32324 5.2078 5.99726 5.52675 5.72812C5.82069 5.47148 6.18476 5.29394 6.61269 5.21484C6.94062 5.13925 7.05683 5.03007 7.05683 4.81171C7.05683 4.61015 6.91034 4.45741 6.64569 4.45741C6.02499 4.45741 5.26561 4.83046 4.72929 5.40058C4.19647 5.97343 3.93534 6.71757 3.93534 7.51777C3.93534 9.03281 4.87226 9.91465 6.04706 9.91465ZM10.8576 9.90664C12.0023 9.90664 12.8131 9.11445 12.8131 7.97422C12.8131 6.86855 12.124 6.12968 11.1293 6.12968C10.6195 6.12968 10.2172 6.29042 9.92851 6.65019L9.72519 6.65019C9.80156 6.31972 10.0156 6.00175 10.3193 5.73085C10.6178 5.46347 10.9943 5.29745 11.417 5.20683C11.7555 5.12597 11.8691 5.01855 11.8691 4.8037C11.8691 4.60038 11.7227 4.44941 11.458 4.44941C10.8338 4.44941 10.0486 4.8455 9.5416 5.39257C9.00078 5.96542 8.73964 6.70957 8.73964 7.50976C8.73964 9.0248 9.67656 9.90664 10.8576 9.90664ZM4.77694 13.6131L11.983 13.6131C12.3434 13.6131 12.6061 13.3326 12.6061 12.9803C12.6061 12.6377 12.3434 12.3768 11.983 12.3768L4.77694 12.3768C4.41483 12.3768 4.14413 12.6377 4.14413 12.9803C4.14413 13.3326 4.41483 13.6131 4.77694 13.6131ZM4.77694 16.4496L8.25487 16.4496C8.61522 16.4496 8.87616 16.1869 8.87616 15.8461C8.87616 15.4938 8.61522 15.2133 8.25487 15.2133L4.77694 15.2133C4.41483 15.2133 4.14413 15.4938 4.14413 15.8461C4.14413 16.1869 4.41483 16.4496 4.77694 16.4496ZM0 17.9406C0 20.0502 1.07968 21.1379 3.17148 21.1379L13.5742 21.1379C15.6678 21.1379 16.7457 20.0502 16.7457 17.9406L16.7457 3.20527C16.7457 1.10371 15.6678 0 13.5742 0L3.17148 0C1.07968 0 0 1.10371 0 3.20527ZM1.91327 17.8217L1.91327 3.32421C1.91327 2.41444 2.38163 1.91327 3.33222 1.91327L13.4152 1.91327C14.3641 1.91327 14.8324 2.41444 14.8324 3.32421L14.8324 17.8217C14.8324 18.7314 14.3641 19.2246 13.4152 19.2246L3.33222 19.2246C2.38163 19.2246 1.91327 18.7314 1.91327 17.8217Z" fill="white" fill-opacity="0.85"/>
 </g>
</svg>
