<?xml version="1.0" encoding="UTF-8"?>
<!--Generator: Apple Native CoreSVG 341-->
<!DOCTYPE svg
PUBLIC "-//W3C//DTD SVG 1.1//EN"
       "http://www.w3.org/Graphics/SVG/1.1/DTD/svg11.dtd">
<svg version="1.1" xmlns="http://www.w3.org/2000/svg" xmlns:xlink="http://www.w3.org/1999/xlink" viewBox="0 0 21.3638 24.8275">
 <g>
  <rect height="24.8275" opacity="0" width="21.3638" x="0" y="0"/>
  <path d="M19.6041 6.07489L19.6041 20.5436C19.6041 22.6638 18.5375 23.7321 16.4484 23.7321L9.60802 23.7321C11.2464 23.4875 12.9264 23.1389 14.709 22.6364C16.7723 22.0349 17.7174 20.6774 17.7174 18.3194L17.7174 4.0454C17.7174 3.68293 17.6877 3.34171 17.6292 3.0243C18.9395 3.37817 19.6041 4.40135 19.6041 6.07489Z" fill="white" fill-opacity="0.85"/>
  <path d="M16.3172 4.0454L16.3172 18.3194C16.3172 20.0513 15.7836 20.8698 14.3195 21.2903C10.7683 22.2841 7.67987 22.6554 4.39687 22.8347C2.49707 22.9509 1.39843 21.9929 1.39843 20.2268L1.39843 5.66474C1.39843 3.86201 2.43808 2.95127 4.08867 2.84306C7.51289 2.63447 10.524 2.13037 13.225 1.51162C15.1773 1.05107 16.3172 2.01064 16.3172 4.0454ZM6.54198 9.12802C5.66386 9.24872 4.74042 9.79384 4.34159 10.5239C4.28222 10.6472 4.28046 10.6968 4.28046 10.8546L4.28046 16.3872C4.28046 16.5954 4.42323 16.7089 4.63417 16.6788C4.76268 16.6593 4.85761 16.6017 4.96737 16.5042C5.4328 16.0448 6.05819 15.7392 6.71034 15.6405C7.27167 15.5642 7.83476 15.6708 8.28945 15.979C8.33554 16.0118 8.37988 16.0376 8.4287 16.0358C8.53163 16.0101 8.59374 15.9284 8.59374 15.8352L8.59374 9.95536C8.59374 9.86396 8.59023 9.82411 8.52011 9.73622C8.12577 9.23095 7.37831 9.01083 6.54198 9.12802ZM11.233 8.43739C10.4047 8.55634 9.64921 9.01884 9.25487 9.62353C9.18476 9.74071 9.18124 9.7788 9.18124 9.87196L9.18124 15.7519C9.18124 15.8433 9.24335 15.9054 9.34628 15.8956C9.39511 15.8841 9.43944 15.853 9.49355 15.8024C9.94023 15.3558 10.5113 15.0981 11.0726 15.004C11.7168 14.9116 12.3422 15.0485 12.8076 15.3587C12.9174 15.4261 13.0123 15.4554 13.1328 15.4358C13.3518 15.4093 13.4945 15.2452 13.4945 15.0468L13.4945 9.50614C13.4945 9.33857 13.4848 9.28271 13.4334 9.19677C13.0346 8.57411 12.1111 8.30693 11.233 8.43739Z" fill="white" fill-opacity="0.85"/>
 </g>
</svg>
