<?xml version="1.0" encoding="UTF-8"?>
<!--Generator: Apple Native CoreSVG 341-->
<!DOCTYPE svg
PUBLIC "-//W3C//DTD SVG 1.1//EN"
       "http://www.w3.org/Graphics/SVG/1.1/DTD/svg11.dtd">
<svg version="1.1" xmlns="http://www.w3.org/2000/svg" xmlns:xlink="http://www.w3.org/1999/xlink" viewBox="0 0 21.3638 24.8275">
 <g>
  <rect height="24.8275" opacity="0" width="21.3638" x="0" y="0"/>
  <path d="M19.6041 6.07489L19.6041 20.5436C19.6041 22.6638 18.5375 23.7321 16.4484 23.7321L9.60802 23.7321C11.2464 23.4875 12.9264 23.1389 14.709 22.6364C16.7723 22.0349 17.7174 20.6774 17.7174 18.3194L17.7174 4.0454C17.7174 3.68293 17.6877 3.34171 17.6292 3.0243C18.9395 3.37817 19.6041 4.40135 19.6041 6.07489Z" fill="white" fill-opacity="0.85"/>
  <path d="M16.3172 4.0454L16.3172 18.3194C16.3172 20.0513 15.7836 20.8698 14.3195 21.2903C10.7683 22.2841 7.67987 22.6554 4.39687 22.8347C2.49707 22.9509 1.39843 21.9929 1.39843 20.2268L1.39843 5.66474C1.39843 3.86201 2.43808 2.95127 4.08867 2.84306C7.51289 2.63447 10.524 2.13037 13.225 1.51162C15.1773 1.05107 16.3172 2.01064 16.3172 4.0454ZM8.82909 13.2683C7.96972 13.3935 7.3873 13.9909 7.47695 14.7118L7.77167 16.9431C7.85956 17.5433 8.24667 17.839 8.85038 17.7511C9.44081 17.6667 9.82792 17.2503 9.90956 16.6386L10.2025 14.3274C10.2904 13.5772 9.69472 13.1413 8.82909 13.2683ZM8.82909 7.19521C6.12382 7.59735 3.93612 10.0895 3.93612 12.8126C3.93612 14.9222 5.29902 16.6296 7.30566 16.9811L7.19296 16.0083C5.72421 15.6044 4.81581 14.3026 4.81581 12.7034C4.81581 10.4642 6.59335 8.39892 8.85038 8.06513C11.1039 7.7331 12.8734 9.26747 12.8734 11.5005C12.8734 13.1077 11.965 14.6731 10.4945 15.513L10.3818 16.5347C12.3742 15.5874 13.7416 13.4974 13.7416 11.3798C13.7416 8.65673 11.5441 6.79306 8.82909 7.19521ZM8.82909 8.77919C7.00546 9.04286 5.52363 10.7546 5.52363 12.5765C5.52363 13.6544 6.04843 14.5858 7.07656 15.1753L7.04199 14.852C7.01269 14.6089 7.03398 14.3479 7.12363 14.0905C6.6582 13.7212 6.40331 13.1333 6.40331 12.469C6.40331 11.0999 7.47499 9.86571 8.85038 9.66064C10.216 9.46357 11.2744 10.3772 11.2744 11.7349C11.2744 12.3991 11.031 13.0616 10.5594 13.5659C10.6535 13.7923 10.6668 14.047 10.6455 14.2999L10.6082 14.6587C11.631 13.7763 12.1656 12.6921 12.1656 11.6142C12.1656 9.78427 10.6625 8.51552 8.82909 8.77919ZM8.82909 10.5282C8.17031 10.6099 7.63847 11.2163 7.63847 11.8946C7.63847 12.5517 8.18808 13.0204 8.85038 12.9245C9.49316 12.8331 10.0312 12.2196 10.0312 11.5546C10.0312 10.8825 9.49765 10.4208 8.82909 10.5282Z" fill="white" fill-opacity="0.85"/>
 </g>
</svg>
