<?xml version="1.0" encoding="UTF-8"?>
<!--Generator: Apple Native CoreSVG 341-->
<!DOCTYPE svg
PUBLIC "-//W3C//DTD SVG 1.1//EN"
       "http://www.w3.org/Graphics/SVG/1.1/DTD/svg11.dtd">
<svg version="1.1" xmlns="http://www.w3.org/2000/svg" xmlns:xlink="http://www.w3.org/1999/xlink" viewBox="0 0 23.4906 18.2316">
 <g>
  <rect height="18.2316" opacity="0" width="23.4906" x="0" y="0"/>
  <path d="M23.1293 3.17499L23.1293 15.0682C23.1293 17.1519 22.0416 18.2316 19.9258 18.2316L3.20351 18.2316C1.0957 18.2316 0 17.1519 0 15.0682L0 3.17499C0 1.08945 1.0957 0.00351548 3.20351 0.00351548L19.9258 0.00351548C22.0416 0.00351548 23.1293 1.08945 23.1293 3.17499ZM3.31444 1.91678C2.40643 1.91678 1.91327 2.39315 1.91327 3.34198L1.91327 3.34432L1.27499 3.34432C1.08066 3.34432 0.942962 3.48553 0.942962 3.6701L0.942962 14.5633C0.942962 14.7576 1.08867 14.8971 1.283 14.8971L1.91327 14.8971L1.91327 14.8994C1.91327 15.8482 2.40643 16.3184 3.31444 16.3184L19.8148 16.3184C20.7149 16.3184 21.216 15.8482 21.216 14.8994L21.216 14.8971L21.8953 14.8971C22.0816 14.8971 22.2193 14.7576 22.2193 14.5633L22.2193 3.6701C22.2193 3.48553 22.0816 3.34432 21.8953 3.34432L21.216 3.34432L21.216 3.34198C21.216 2.39315 20.7149 1.91678 19.8148 1.91678Z" fill="white" fill-opacity="0.85"/>
  <path d="M1.283 14.8971L13.9309 14.8971C14.425 14.8971 14.7006 14.61 14.7006 14.1078L14.7006 4.13358C14.7006 3.63143 14.425 3.34432 13.9309 3.34432L1.27499 3.34432C1.08066 3.34432 0.942962 3.48553 0.942962 3.6701L0.942962 14.5633C0.942962 14.7576 1.08867 14.8971 1.283 14.8971ZM16.8934 14.8971L21.8953 14.8971C22.0816 14.8971 22.2193 14.7576 22.2193 14.5633L22.2193 3.6701C22.2193 3.48553 22.0816 3.34432 21.8953 3.34432L16.8934 3.34432C16.4055 3.34432 16.1299 3.63143 16.1299 4.13358L16.1299 14.1078C16.1299 14.61 16.4055 14.8971 16.8934 14.8971Z" fill="white" fill-opacity="0.85"/>
 </g>
</svg>
