<?xml version="1.0" encoding="UTF-8"?>
<!--Generator: Apple Native CoreSVG 341-->
<!DOCTYPE svg
PUBLIC "-//W3C//DTD SVG 1.1//EN"
       "http://www.w3.org/Graphics/SVG/1.1/DTD/svg11.dtd">
<svg version="1.1" xmlns="http://www.w3.org/2000/svg" xmlns:xlink="http://www.w3.org/1999/xlink" viewBox="0 0 31.5572 26.4555">
 <g>
  <rect height="26.4555" opacity="0" width="31.5572" x="0" y="0"/>
  <path d="M16.9656 24.1637C16.9656 24.9303 16.3605 25.5273 15.5939 25.5273C14.8336 25.5273 14.2303 24.924 14.2303 24.1637C14.2303 23.4113 14.8416 22.8 15.5939 22.8C16.3508 22.8 16.9656 23.4068 16.9656 24.1637ZM12.2502 21.45C12.2502 22.2201 11.6584 22.8137 10.8865 22.8137C10.1297 22.8137 9.5166 22.2086 9.5166 21.45C9.5166 20.7012 10.1394 20.0783 10.8865 20.0783C11.6486 20.0783 12.2502 20.6896 12.2502 21.45ZM19.0521 20.9002C19.0876 20.8171 19.1316 20.7386 19.1831 20.6659ZM7.54452 18.6892C7.54452 19.4726 6.9412 20.0609 6.17284 20.0609C5.41425 20.0609 4.81093 19.4558 4.81093 18.6892C4.81093 17.9484 5.43203 17.3256 6.17284 17.3256C6.93319 17.3256 7.54452 17.9369 7.54452 18.6892ZM7.54452 13.2228C7.54452 13.993 6.94296 14.5865 6.17284 14.5865C5.41425 14.5865 4.81093 13.9814 4.81093 13.2228C4.81093 12.474 5.42578 11.8592 6.17284 11.8592C6.93144 11.8592 7.54452 12.4643 7.54452 13.2228ZM26.3849 13.2228C26.3849 13.5239 26.2887 13.8008 26.1241 14.0244C25.6973 13.7572 25.205 13.616 24.7064 13.616C24.3846 13.616 24.0671 13.6735 23.7691 13.7852C23.694 13.6154 23.6531 13.4252 23.6531 13.2228C23.6531 12.4643 24.2582 11.8592 25.0168 11.8592C25.7621 11.8592 26.3849 12.474 26.3849 13.2228ZM7.54452 7.74843C7.54452 8.51855 6.94296 9.12011 6.17284 9.12011C5.41425 9.12011 4.81093 8.50703 4.81093 7.74843C4.81093 6.99961 5.42578 6.38476 6.17284 6.38476C6.93144 6.38476 7.54452 6.98984 7.54452 7.74843ZM26.3476 7.74843C26.3476 8.51679 25.7541 9.12011 24.9777 9.12011C24.2254 9.12011 23.6141 8.50878 23.6141 7.74843C23.6141 7.00761 24.2369 6.38476 24.9777 6.38476C25.7408 6.38476 26.3476 6.98984 26.3476 7.74843ZM12.2502 4.9957C12.2502 5.76582 11.6584 6.36738 10.8865 6.36738C10.1297 6.36738 9.5166 5.75429 9.5166 4.9957C9.5166 4.24687 10.1394 3.63203 10.8865 3.63203C11.6451 3.63203 12.2502 4.23711 12.2502 4.9957ZM21.673 4.9957C21.673 5.76582 21.0795 6.36738 20.3094 6.36738C19.549 6.36738 18.9377 5.75605 18.9377 4.9957C18.9377 4.24687 19.5605 3.63203 20.3094 3.63203C21.068 3.63203 21.673 4.23711 21.673 4.9957ZM16.9656 2.28203C16.9656 3.05214 16.3658 3.6457 15.5939 3.6457C14.8353 3.6457 14.2303 3.04062 14.2303 2.28203C14.2303 1.5332 14.8549 0.910353 15.5939 0.910353C16.3525 0.910353 16.9656 1.52344 16.9656 2.28203Z" fill="white" fill-opacity="0.85"/>
  <path d="M17.3312 18.6892C17.3312 19.6617 16.5664 20.4346 15.5939 20.4346C14.641 20.4346 13.8566 19.6502 13.8566 18.6892C13.8566 17.7461 14.6525 16.9519 15.5939 16.9519C16.5486 16.9519 17.3312 17.7346 17.3312 18.6892ZM12.6256 15.9658C12.6256 16.9383 11.8527 17.7031 10.8865 17.7031C9.92734 17.7031 9.14921 16.917 9.14921 15.9658C9.14921 15.0146 9.9371 14.2187 10.8865 14.2187C11.8412 14.2187 12.6256 15.0031 12.6256 15.9658ZM22.0089 15.6111L20.8991 17.5964C20.7153 17.666 20.5163 17.7031 20.3094 17.7031C19.3369 17.7031 18.5721 16.9383 18.5721 15.9658C18.5721 15.0031 19.3467 14.2187 20.3094 14.2187C21.1308 14.2187 21.8414 14.8247 22.0089 15.6111ZM12.6256 10.4799C12.6256 11.4523 11.8625 12.2172 10.8865 12.2172C9.92734 12.2172 9.14921 11.4408 9.14921 10.4799C9.14921 9.53847 9.94511 8.74258 10.8865 8.74258C11.8394 8.74258 12.6256 9.51894 12.6256 10.4799ZM22.0467 10.4799C22.0467 11.4523 21.2818 12.2172 20.3094 12.2172C19.3467 12.2172 18.5721 11.4426 18.5721 10.4799C18.5721 9.53847 19.3662 8.74258 20.3094 8.74258C21.2623 8.74258 22.0467 9.51894 22.0467 10.4799ZM17.3312 7.74843C17.3312 8.72089 16.5664 9.49374 15.5939 9.49374C14.641 9.49374 13.8566 8.70937 13.8566 7.74843C13.8566 6.80527 14.6525 6.01113 15.5939 6.01113C16.5549 6.01113 17.3312 6.79551 17.3312 7.74843Z" fill="white" fill-opacity="0.85"/>
  <path d="M17.5877 13.2228C17.5877 14.331 16.7021 15.2068 15.5939 15.2068C14.499 15.2068 13.61 14.3178 13.61 13.2228C13.61 12.1377 14.5168 11.2371 15.5939 11.2371C16.6906 11.2371 17.5877 12.1262 17.5877 13.2228Z" fill="white" fill-opacity="0.85"/>
  <path d="M25.8609 15.6793L29.9988 23.0797C30.1293 23.2918 30.1879 23.5092 30.1879 23.7346C30.1879 24.4863 29.6537 25.0799 28.8363 25.0799L20.5685 25.0799C19.7512 25.0799 19.2312 24.4863 19.2312 23.7346C19.2312 23.5092 19.2933 23.2918 19.4158 23.0797L23.5439 15.6793C23.7941 15.2268 24.2556 14.9916 24.7064 14.9916C25.159 14.9916 25.6027 15.2215 25.8609 15.6793ZM23.8379 22.7836C23.8379 23.2547 24.2265 23.6301 24.7047 23.6301C25.1863 23.6301 25.5732 23.2547 25.5732 22.7836C25.5732 22.3142 25.189 21.9344 24.7047 21.9344C24.2363 21.9344 23.8379 22.3125 23.8379 22.7836ZM23.9853 18.0287L24.0652 20.682C24.0767 21.0359 24.3375 21.2932 24.7047 21.2932C25.0736 21.2932 25.3344 21.0359 25.3476 20.682L25.4275 18.0287C25.439 17.6012 25.142 17.3049 24.7047 17.3049C24.2754 17.3049 23.9721 17.6029 23.9853 18.0287Z" fill="white" fill-opacity="0.85"/>
 </g>
</svg>
