<?xml version="1.0" encoding="UTF-8"?>
<!--Generator: Apple Native CoreSVG 341-->
<!DOCTYPE svg
PUBLIC "-//W3C//DTD SVG 1.1//EN"
       "http://www.w3.org/Graphics/SVG/1.1/DTD/svg11.dtd">
<svg version="1.1" xmlns="http://www.w3.org/2000/svg" xmlns:xlink="http://www.w3.org/1999/xlink" viewBox="0 0 22.4152 19.1332">
 <g>
  <rect height="19.1332" opacity="0" width="22.4152" x="0" y="0"/>
  <path d="M11.0238 0C4.93359 0 0 4.93359 0 11.0238C0 13.9916 1.16934 16.71 3.1252 18.7107C3.53281 19.1324 4.19452 19.1291 4.62186 18.7275C5.0037 18.3439 4.92401 17.6883 4.47714 17.191C2.98221 15.5979 2.07088 13.4041 2.07088 11.0221C2.07088 6.02245 6.03221 2.0451 11.0238 2.0451C16.0234 2.0451 19.983 6.02245 19.983 11.0221C19.983 13.4041 19.0717 15.5979 17.5768 17.191C17.1299 17.6883 17.0502 18.3439 17.4338 18.7275C17.8576 19.1273 18.5211 19.1324 18.9287 18.7107C20.8846 16.71 22.0539 13.9916 22.0539 11.0238C22.0539 4.93359 17.1203 0 11.0238 0Z" fill="white" fill-opacity="0.85"/>
  <path d="M11.0318 6.60565C11.4109 6.60565 11.7137 6.30292 11.7137 5.92831C11.7137 5.55546 11.4012 5.25448 11.0318 5.25448C10.667 5.25448 10.3465 5.55897 10.3465 5.92831C10.3465 6.2994 10.651 6.60565 11.0318 6.60565ZM8.83749 7.87558C9.22636 7.87558 9.51132 7.5746 9.51132 7.19198C9.51132 6.81913 9.20859 6.51015 8.83749 6.51015C8.47265 6.51015 8.16015 6.83065 8.16015 7.19198C8.16015 7.57108 8.46464 7.87558 8.83749 7.87558ZM13.2244 7.87558C13.6053 7.87558 13.908 7.5746 13.908 7.19198C13.908 6.81913 13.5955 6.51015 13.2244 6.51015C12.8533 6.51015 12.5488 6.83065 12.5488 7.19198C12.5488 7.5746 12.8516 7.87558 13.2244 7.87558ZM6.64315 9.15878C7.01425 9.15878 7.31874 8.85605 7.31874 8.48144C7.31874 8.1121 7.01425 7.7996 6.64315 7.7996C6.27206 7.7996 5.9578 8.1121 5.9578 8.48144C5.9578 8.85429 6.2703 9.15878 6.64315 9.15878ZM11.0318 9.32655C11.5068 9.32655 11.8814 8.95194 11.8814 8.48144C11.8814 8.01444 11.4988 7.62382 11.0318 7.62382C10.5711 7.62382 10.1822 8.02421 10.1822 8.48144C10.1822 8.93593 10.5711 9.32655 11.0318 9.32655ZM15.4072 9.15878C15.7801 9.15878 16.0846 8.85605 16.0846 8.48144C16.0846 8.10409 15.7801 7.7996 15.4072 7.7996C15.0379 7.7996 14.7236 8.1121 14.7236 8.48144C14.7236 8.85605 15.0361 9.15878 15.4072 9.15878ZM8.83749 10.5982C9.30624 10.5982 9.6871 10.2174 9.6871 9.74687C9.6871 9.27988 9.30448 8.89726 8.83749 8.89726C8.37675 8.89726 7.97812 9.29589 7.97812 9.74687C7.97812 10.2156 8.36874 10.5982 8.83749 10.5982ZM13.2244 10.5982C13.7012 10.5982 14.082 10.2174 14.082 9.74687C14.082 9.27988 13.6914 8.89726 13.2244 8.89726C12.7734 8.89726 12.373 9.29589 12.373 9.74687C12.373 10.2156 12.7557 10.5982 13.2244 10.5982ZM6.64315 11.7119C7.01425 11.7119 7.31874 11.4012 7.31874 11.0221C7.31874 10.6492 7.01425 10.3447 6.64315 10.3447C6.27206 10.3447 5.9578 10.6572 5.9578 11.0221C5.9578 11.3994 6.2703 11.7119 6.64315 11.7119ZM15.4072 11.7119C15.7801 11.7119 16.0846 11.4092 16.0846 11.0221C16.0846 10.6492 15.7801 10.3447 15.4072 10.3447C15.0379 10.3447 14.7236 10.6572 14.7236 11.0221C14.7236 11.4012 15.0361 11.7119 15.4072 11.7119ZM8.83749 13.1594C9.30624 13.1594 9.6871 12.7785 9.6871 12.3018C9.6871 11.833 9.30448 11.4504 8.83749 11.4504C8.37675 11.4504 7.97812 11.8428 7.97812 12.3018C7.97812 12.7687 8.36874 13.1594 8.83749 13.1594ZM13.2244 13.1594C13.6932 13.1594 14.082 12.7785 14.082 12.3018C14.082 11.833 13.6932 11.4504 13.2244 11.4504C12.7717 11.4504 12.373 11.841 12.373 12.3018C12.373 12.7705 12.7637 13.1594 13.2244 13.1594ZM6.64315 14.2508C7.02128 14.2508 7.31874 13.9641 7.31874 13.5752C7.31874 13.2023 7.01425 12.8978 6.64315 12.8978C6.2703 12.8978 5.9578 13.2103 5.9578 13.5752C5.9578 13.9463 6.2703 14.2508 6.64315 14.2508ZM11.0318 14.4328C11.5068 14.4328 11.8814 14.0457 11.8814 13.5752C11.8814 13.1047 11.4988 12.7336 11.0318 12.7336C10.5711 12.7336 10.1822 13.1225 10.1822 13.5752C10.1822 14.0422 10.5711 14.4328 11.0318 14.4328ZM15.4072 14.2508C15.7801 14.2508 16.0846 13.9721 16.0846 13.5752C16.0846 13.2023 15.7801 12.8978 15.4072 12.8978C15.0361 12.8978 14.7236 13.2103 14.7236 13.5752C14.7236 13.9543 15.0361 14.2508 15.4072 14.2508ZM8.83749 15.542C9.21659 15.542 9.51132 15.2473 9.51132 14.8566C9.51132 14.4855 9.20859 14.1811 8.83749 14.1811C8.47265 14.1811 8.16015 14.4953 8.16015 14.8566C8.16015 15.2295 8.45663 15.542 8.83749 15.542ZM13.2244 15.542C13.6053 15.542 13.908 15.2553 13.908 14.8566C13.908 14.4855 13.5973 14.1811 13.2244 14.1811C12.8533 14.1811 12.5488 14.4936 12.5488 14.8566C12.5488 15.2295 12.8516 15.542 13.2244 15.542ZM11.0318 16.8057C11.4109 16.8057 11.7137 16.5012 11.7137 16.1283C11.7137 15.7572 11.4029 15.4527 11.0318 15.4527C10.667 15.4527 10.3465 15.759 10.3465 16.1283C10.3465 16.5012 10.651 16.8057 11.0318 16.8057ZM11.0318 11.9951C11.5689 11.9951 11.9986 11.5672 11.9986 11.0221C11.9986 10.4912 11.5592 10.0615 11.0318 10.0615C10.5125 10.0615 10.0633 10.5027 10.0633 11.0221C10.0633 11.5477 10.5107 11.9951 11.0318 11.9951Z" fill="white" fill-opacity="0.85"/>
 </g>
</svg>
