<?xml version="1.0" encoding="UTF-8"?>
<!--Generator: Apple Native CoreSVG 341-->
<!DOCTYPE svg
PUBLIC "-//W3C//DTD SVG 1.1//EN"
       "http://www.w3.org/Graphics/SVG/1.1/DTD/svg11.dtd">
<svg version="1.1" xmlns="http://www.w3.org/2000/svg" xmlns:xlink="http://www.w3.org/1999/xlink" viewBox="0 0 20.8969 23.6336">
 <g>
  <rect height="23.6336" opacity="0" width="20.8969" x="0" y="0"/>
  <path d="M10.2904 1.73417C10.7818 1.73417 11.1535 1.3705 11.1535 0.871091C11.1535 0.383202 10.7703 0 10.2904 0C9.81406 0 9.41933 0.394725 9.41933 0.871091C9.41933 1.34921 9.80429 1.73417 10.2904 1.73417ZM5.57675 4.45585C6.07441 4.45585 6.44784 4.08417 6.44784 3.58476C6.44784 3.09863 6.06288 2.71367 5.57675 2.71367C5.1084 2.71367 4.70566 3.1164 4.70566 3.58476C4.70566 4.07089 5.08886 4.45585 5.57675 4.45585ZM14.9978 4.45585C15.4973 4.45585 15.8689 4.08417 15.8689 3.58476C15.8689 3.09863 15.484 2.71367 14.9978 2.71367C14.5295 2.71367 14.1268 3.1164 14.1268 3.58476C14.1268 4.07265 14.5082 4.45585 14.9978 4.45585ZM0.869333 7.20859C1.36074 7.20859 1.73242 6.83691 1.73242 6.33749C1.73242 5.85761 1.34746 5.47441 0.869333 5.47441C0.392967 5.47441 0 5.86914 0 6.33749C0 6.82538 0.383202 7.20859 0.869333 7.20859ZM19.6742 7.20859C20.1701 7.20859 20.5355 6.83691 20.5355 6.33749C20.5355 5.84961 20.1603 5.47441 19.6742 5.47441C19.1978 5.47441 18.8031 5.86914 18.8031 6.33749C18.8031 6.82538 19.1846 7.20859 19.6742 7.20859ZM0.869333 12.675C1.36074 12.675 1.73242 12.3113 1.73242 11.8119C1.73242 11.3258 1.34746 10.9408 0.869333 10.9408C0.392967 10.9408 0 11.3355 0 11.8119C0 12.2918 0.383202 12.675 0.869333 12.675ZM19.6742 12.675C20.1701 12.675 20.5355 12.3113 20.5355 11.8119C20.5355 11.3258 20.1603 10.9408 19.6742 10.9408C19.1978 10.9408 18.8031 11.3435 18.8031 11.8119C18.8031 12.2918 19.1846 12.675 19.6742 12.675ZM0.869333 18.1494C1.36074 18.1494 1.73242 17.7777 1.73242 17.2783C1.73242 16.7967 1.34921 16.4152 0.869333 16.4152C0.392967 16.4152 0 16.8082 0 17.2783C0 17.7662 0.383202 18.1494 0.869333 18.1494ZM19.6742 18.1494C20.1701 18.1494 20.5355 17.7857 20.5355 17.2783C20.5355 16.7967 20.1523 16.4152 19.6742 16.4152C19.1961 16.4152 18.8031 16.8082 18.8031 17.2783C18.8031 17.7662 19.1846 18.1494 19.6742 18.1494ZM5.57675 20.9021C6.07441 20.9021 6.44784 20.5385 6.44784 20.0391C6.44784 19.5494 6.06464 19.168 5.57675 19.168C5.1084 19.168 4.70566 19.5627 4.70566 20.0391C4.70566 20.5172 5.08886 20.9021 5.57675 20.9021ZM14.9978 20.9021C15.4973 20.9021 15.8689 20.5385 15.8689 20.0391C15.8689 19.5494 15.4857 19.168 14.9978 19.168C14.5277 19.168 14.1268 19.5609 14.1268 20.0391C14.1268 20.5189 14.5082 20.9021 14.9978 20.9021ZM10.2904 23.6238C10.7801 23.6238 11.1535 23.2504 11.1535 22.7527C11.1535 22.2631 10.7721 21.8816 10.2904 21.8816C9.81406 21.8816 9.41933 22.2844 9.41933 22.7527C9.41933 23.2389 9.80429 23.6238 10.2904 23.6238Z" fill="white" fill-opacity="0.85"/>
  <path d="M10.2904 7.20859C10.7818 7.20859 11.1535 6.83691 11.1535 6.33749C11.1535 5.85761 10.7703 5.47441 10.2904 5.47441C9.81406 5.47441 9.41933 5.86914 9.41933 6.33749C9.41933 6.82363 9.80429 7.20859 10.2904 7.20859ZM5.57675 9.94003C6.07441 9.94003 6.44784 9.56835 6.44784 9.06894C6.44784 8.58281 6.06288 8.19785 5.57675 8.19785C5.1084 8.19785 4.70566 8.59257 4.70566 9.06894C4.70566 9.55683 5.08886 9.94003 5.57675 9.94003ZM14.9978 9.94003C15.4973 9.94003 15.8689 9.56835 15.8689 9.06894C15.8689 8.58281 15.484 8.19785 14.9978 8.19785C14.5295 8.19785 14.1268 8.59257 14.1268 9.06894C14.1268 9.55859 14.5082 9.94003 14.9978 9.94003ZM5.57675 15.418C6.07441 15.418 6.44784 15.0525 6.44784 14.5549C6.44784 14.0652 6.06464 13.682 5.57675 13.682C5.1084 13.682 4.70566 14.0768 4.70566 14.5549C4.70566 15.041 5.08886 15.418 5.57675 15.418ZM14.9978 15.418C15.4973 15.418 15.8689 15.0525 15.8689 14.5549C15.8689 14.0652 15.4857 13.682 14.9978 13.682C14.5277 13.682 14.1268 14.075 14.1268 14.5549C14.1268 15.0428 14.5082 15.418 14.9978 15.418ZM10.2904 18.1494C10.7818 18.1494 11.1535 17.7777 11.1535 17.2783C11.1535 16.7967 10.7721 16.4152 10.2904 16.4152C9.81406 16.4152 9.41933 16.81 9.41933 17.2783C9.41933 17.7644 9.80429 18.1494 10.2904 18.1494Z" fill="white" fill-opacity="0.85"/>
  <path d="M10.2904 12.675C10.7818 12.675 11.1535 12.3113 11.1535 11.8119C11.1535 11.3258 10.7703 10.9408 10.2904 10.9408C9.81406 10.9408 9.41933 11.3355 9.41933 11.8119C9.41933 12.29 9.80429 12.675 10.2904 12.675Z" fill="white" fill-opacity="0.85"/>
 </g>
</svg>
