<?xml version="1.0" encoding="UTF-8"?>
<!--Generator: Apple Native CoreSVG 341-->
<!DOCTYPE svg
PUBLIC "-//W3C//DTD SVG 1.1//EN"
       "http://www.w3.org/Graphics/SVG/1.1/DTD/svg11.dtd">
<svg version="1.1" xmlns="http://www.w3.org/2000/svg" xmlns:xlink="http://www.w3.org/1999/xlink" viewBox="0 0 28.62 18.0394">
 <g>
  <rect height="18.0394" opacity="0" width="28.62" x="0" y="0"/>
  <path d="M4.29194 18.0394L23.9667 18.0394C27.047 18.0394 28.5904 16.1199 28.1964 12.8637L27.1365 4.0455C26.8259 1.4164 25.3429 0 22.9339 0L5.32476 0C2.91578 0 1.43101 1.4164 1.12047 4.0455L0.0605062 12.8637C-0.333438 16.1199 1.20992 18.0394 4.29194 18.0394ZM4.29194 16.1262C2.58237 16.1262 1.72866 14.9111 1.97827 12.8281L3.0142 4.27323C3.20073 2.74471 4.00561 1.91327 5.32476 1.91327L22.9339 1.91327C24.2531 1.91327 25.0562 2.74471 25.2365 4.27323L26.2707 12.8281C26.53 14.9191 25.6746 16.1262 23.9667 16.1262Z" fill="white" fill-opacity="0.85"/>
  <path d="M7.66714 11.7434C8.07065 11.7434 8.39096 11.5518 8.39096 11.2777L8.39096 8.57831C9.3812 8.28554 10.1095 7.35136 10.1095 6.25468C10.1095 4.91054 9.01128 3.81054 7.66714 3.81054C6.31499 3.81054 5.22124 4.91854 5.22124 6.25468C5.22124 7.35937 5.95132 8.2873 6.95132 8.59433L6.95132 11.2777C6.95132 11.5518 7.26538 11.7434 7.66714 11.7434ZM7.66889 13.8875C9.68823 13.8875 11.1013 12.8002 11.1013 11.2682C11.1013 10.2064 10.4195 9.36581 9.34702 8.94159L9.34702 10.3158C9.66792 10.5494 9.85815 10.8781 9.85815 11.2682C9.85815 12.1568 8.96147 12.7783 7.66889 12.7783C6.37456 12.7783 5.46811 12.1568 5.46811 11.2682C5.46811 10.8701 5.6646 10.5396 5.99526 10.306L5.99526 8.94335C4.90855 9.35605 4.22671 10.2064 4.22671 11.2682C4.22671 12.8002 5.64956 13.8875 7.66889 13.8875ZM13.3738 8.41542C14.1876 8.41542 14.8347 7.77011 14.8347 6.96425C14.8347 6.15214 14.1876 5.50331 13.3738 5.50331C12.5714 5.50331 11.9208 6.15214 11.9208 6.96425C11.9208 7.77011 12.5714 8.41542 13.3738 8.41542ZM17.5398 8.41542C18.3439 8.41542 19.0007 7.77011 19.0007 6.96425C19.0007 6.15214 18.3439 5.50331 17.5398 5.50331C16.7277 5.50331 16.0789 6.15214 16.0789 6.96425C16.0789 7.77011 16.7277 8.41542 17.5398 8.41542ZM21.6828 8.41542C22.4886 8.41542 23.1437 7.77011 23.1437 6.96425C23.1437 6.15214 22.4886 5.50331 21.6828 5.50331C20.8804 5.50331 20.2218 6.15214 20.2218 6.96425C20.2218 7.77011 20.8804 8.41542 21.6828 8.41542ZM14.7226 12.5601C15.5285 12.5601 16.1755 11.9148 16.1755 11.109C16.1755 10.2969 15.5285 9.64804 14.7226 9.64804C13.9123 9.64804 13.2617 10.2969 13.2617 11.109C13.2617 11.9148 13.9123 12.5601 14.7226 12.5601ZM18.8806 12.5601C19.6927 12.5601 20.3415 11.9148 20.3415 11.109C20.3415 10.2969 19.6927 9.64804 18.8806 9.64804C18.0765 9.64804 17.4277 10.2969 17.4277 11.109C17.4277 11.9148 18.0765 12.5601 18.8806 12.5601ZM23.0333 12.5601C23.8455 12.5601 24.4943 11.9148 24.4943 11.109C24.4943 10.2969 23.8455 9.64804 23.0333 9.64804C22.2292 9.64804 21.5804 10.2969 21.5804 11.109C21.5804 11.9148 22.2292 12.5601 23.0333 12.5601Z" fill="white" fill-opacity="0.85"/>
 </g>
</svg>
