<?xml version="1.0" encoding="UTF-8"?>
<!--Generator: Apple Native CoreSVG 341-->
<!DOCTYPE svg
PUBLIC "-//W3C//DTD SVG 1.1//EN"
       "http://www.w3.org/Graphics/SVG/1.1/DTD/svg11.dtd">
<svg version="1.1" xmlns="http://www.w3.org/2000/svg" xmlns:xlink="http://www.w3.org/1999/xlink" viewBox="0 0 28.62 18.0394">
 <g>
  <rect height="18.0394" opacity="0" width="28.62" x="0" y="0"/>
  <path d="M4.29194 18.0394L23.9667 18.0394C27.047 18.0394 28.5904 16.1199 28.1964 12.8637L27.1365 4.0455C26.8259 1.4164 25.3429 0 22.9339 0L5.32476 0C2.91578 0 1.43101 1.4164 1.12047 4.0455L0.0605062 12.8637C-0.333438 16.1199 1.20992 18.0394 4.29194 18.0394ZM7.40405 11.8523C6.97749 11.8523 6.65015 11.6555 6.65015 11.3664L6.65015 8.5873C5.61558 8.25898 4.85269 7.29472 4.85269 6.15194C4.85269 4.75819 5.99253 3.6121 7.40405 3.6121C8.79956 3.6121 9.94565 4.75019 9.94565 6.15194C9.94565 7.28671 9.18452 8.25722 8.15971 8.56152L8.15971 11.3664C8.15971 11.6555 7.82436 11.8523 7.40405 11.8523ZM7.40581 14.0859C5.3023 14.0859 3.81304 12.9605 3.81304 11.3656C3.81304 10.2543 4.52144 9.37734 5.65777 8.93984L5.65777 10.3672C5.31734 10.6141 5.11734 10.9543 5.11734 11.3656C5.11734 12.2871 6.0521 12.9351 7.40581 12.9351C8.74976 12.9351 9.67476 12.2871 9.67476 11.3656C9.67476 10.9623 9.48276 10.6238 9.1521 10.3769L9.1521 8.93808C10.2724 9.38534 10.9773 10.2543 10.9773 11.3656C10.9773 12.9605 9.50307 14.0859 7.40581 14.0859ZM13.3357 8.40214C12.4953 8.40214 11.8199 7.72851 11.8199 6.88632C11.8199 6.03613 12.4953 5.36425 13.3357 5.36425C14.1859 5.36425 14.8595 6.03613 14.8595 6.88632C14.8595 7.72851 14.1859 8.40214 13.3357 8.40214ZM17.6656 8.40214C16.8269 8.40214 16.1498 7.72851 16.1498 6.88632C16.1498 6.03613 16.8269 5.36425 17.6656 5.36425C18.5078 5.36425 19.1894 6.03613 19.1894 6.88632C19.1894 7.72851 18.5078 8.40214 17.6656 8.40214ZM21.9822 8.40214C21.1435 8.40214 20.4583 7.72851 20.4583 6.88632C20.4583 6.03613 21.1435 5.36425 21.9822 5.36425C22.8163 5.36425 23.4997 6.03613 23.4997 6.88632C23.4997 7.72851 22.8163 8.40214 21.9822 8.40214ZM14.7421 12.7107C13.8937 12.7107 13.2201 12.0371 13.2201 11.1949C13.2201 10.3527 13.8937 9.67284 14.7421 9.67284C15.5763 9.67284 16.2499 10.3527 16.2499 11.1949C16.2499 12.0371 15.5763 12.7107 14.7421 12.7107ZM19.064 12.7107C18.2253 12.7107 17.5482 12.0371 17.5482 11.1949C17.5482 10.3527 18.2253 9.67284 19.064 9.67284C19.9062 9.67284 20.5878 10.3527 20.5878 11.1949C20.5878 12.0371 19.9062 12.7107 19.064 12.7107ZM23.3824 12.7107C22.5419 12.7107 21.8648 12.0371 21.8648 11.1949C21.8648 10.3527 22.5419 9.67284 23.3824 9.67284C24.2308 9.67284 24.9062 10.3527 24.9062 11.1949C24.9062 12.0371 24.2308 12.7107 23.3824 12.7107Z" fill="white" fill-opacity="0.85"/>
 </g>
</svg>
