<?xml version="1.0" encoding="UTF-8"?>
<!--Generator: Apple Native CoreSVG 341-->
<!DOCTYPE svg
PUBLIC "-//W3C//DTD SVG 1.1//EN"
       "http://www.w3.org/Graphics/SVG/1.1/DTD/svg11.dtd">
<svg version="1.1" xmlns="http://www.w3.org/2000/svg" xmlns:xlink="http://www.w3.org/1999/xlink" viewBox="0 0 20.5381 20.1848">
 <g>
  <rect height="20.1848" opacity="0" width="20.5381" x="0" y="0"/>
  <path d="M20.1767 10.0973C20.1767 15.6656 15.6576 20.1848 10.0875 20.1848C4.52715 20.1848 0 15.6656 0 10.0973C0 4.53691 4.52715 0.00976562 10.0875 0.00976562C15.6576 0.00976562 20.1767 4.53691 20.1767 10.0973ZM5.53574 8.66483L5.53574 13.5133C5.53574 14.6086 6.12499 15.1721 7.20253 15.1721L12.9742 15.1721C14.05 15.1721 14.641 14.6086 14.641 13.5133L14.641 8.66483ZM12.2176 10.1068L12.2176 10.2773C12.2176 10.5328 12.042 10.6986 11.7883 10.6986L8.38847 10.6986C8.14452 10.6986 7.95917 10.5328 7.95917 10.2773L7.95917 10.1068C7.95917 9.8496 8.14277 9.68554 8.38847 9.68554L11.7883 9.68554C12.042 9.68554 12.2176 9.8496 12.2176 10.1068ZM5.67831 5.36406C5.08378 5.36406 4.7332 5.72265 4.7332 6.35097L4.7332 6.84628C4.7332 7.46483 5.05175 7.83144 5.67831 7.83144L14.5002 7.83144C15.1348 7.83144 15.4516 7.46483 15.4516 6.84628L15.4516 6.35097C15.4516 5.72265 15.1348 5.36406 14.5002 5.36406Z" fill="white" fill-opacity="0.85"/>
 </g>
</svg>
