<?xml version="1.0" encoding="UTF-8"?>
<!--Generator: Apple Native CoreSVG 341-->
<!DOCTYPE svg
PUBLIC "-//W3C//DTD SVG 1.1//EN"
       "http://www.w3.org/Graphics/SVG/1.1/DTD/svg11.dtd">
<svg version="1.1" xmlns="http://www.w3.org/2000/svg" xmlns:xlink="http://www.w3.org/1999/xlink" viewBox="0 0 22.5086 18.1695">
 <g>
  <rect height="18.1695" opacity="0" width="22.5086" x="0" y="0"/>
  <path d="M0 9.08164C0 9.4373 0.148046 9.85409 0.527928 10.2127L8.25761 17.4758C8.76679 17.9521 9.18906 18.1633 9.71327 18.1633C10.467 18.1633 11.0193 17.6029 11.0193 16.859L11.0193 13.3377L18.6449 13.3377C20.2828 13.3377 21.2393 12.3973 21.2393 10.7834L21.2393 7.40546C21.2393 5.78984 20.2828 4.84942 18.6449 4.84942L11.0193 4.84942L11.0193 1.34609C11.0193 0.602146 10.467 0 9.69726 0C9.18007 0 8.81738 0.212109 8.25761 0.737303L0.524413 7.94433C0.13828 8.31094 0 8.71093 0 9.08164ZM2.13123 9.08164C2.13123 9.02304 2.16053 8.96796 2.2369 8.8996L8.93164 2.4951C8.98046 2.45604 9.03906 2.42225 9.09589 2.42225C9.18554 2.42225 9.23964 2.4826 9.23964 2.56776L9.23964 6.28124C9.23964 6.50233 9.34355 6.59999 9.5664 6.59999L18.5463 6.59999C19.1484 6.59999 19.4904 6.93144 19.4904 7.54862L19.4904 10.6367C19.4904 11.2539 19.1484 11.5889 18.5463 11.5889L9.5664 11.5889C9.34355 11.5889 9.23964 11.6848 9.23964 11.9076L9.23964 15.5234C9.23964 15.6166 9.18554 15.6805 9.1039 15.6805C9.04707 15.6805 8.98847 15.6512 8.93964 15.5943L2.2369 9.26367C2.16053 9.1873 2.13123 9.13847 2.13123 9.08164Z" fill="white" fill-opacity="0.85"/>
 </g>
</svg>
