<?xml version="1.0" encoding="UTF-8"?>
<!--Generator: Apple Native CoreSVG 341-->
<!DOCTYPE svg
PUBLIC "-//W3C//DTD SVG 1.1//EN"
       "http://www.w3.org/Graphics/SVG/1.1/DTD/svg11.dtd">
<svg version="1.1" xmlns="http://www.w3.org/2000/svg" xmlns:xlink="http://www.w3.org/1999/xlink" viewBox="0 0 22.3183 23.5347">
 <g>
  <rect height="23.5347" opacity="0" width="22.3183" x="0" y="0"/>
  <path d="M21.9582 21.915L21.9582 14.1888C21.9582 12.9424 21.3781 12.3588 20.1396 12.3588L8.57244 12.3588C7.54081 12.3588 6.97909 13.1246 6.97909 13.947C6.97909 14.5205 7.24042 15.0875 7.82596 15.465L19.3764 23.1801C19.7408 23.4142 20.1144 23.525 20.5062 23.525C21.3105 23.525 21.9582 23.007 21.9582 21.915ZM20.0728 20.9588C20.0728 21.1209 19.917 21.1439 19.8115 21.0766L9.58533 14.4146C9.49919 14.3578 9.51872 14.2556 9.62263 14.2556L19.7861 14.2556C20.0002 14.2556 20.0728 14.3301 20.0728 14.5521ZM21.9582 1.60996C21.9582 0.516209 21.3105 0 20.5062 0C20.1144 0 19.7408 0.108984 19.3764 0.34492L7.82596 8.05997C7.24042 8.43751 6.97909 9.00449 6.97909 9.56992C6.97909 10.3986 7.54081 11.1644 8.57244 11.1644L20.1396 11.1644C21.3781 11.1644 21.9582 10.5826 21.9582 9.33613ZM20.0728 2.56619L20.0728 8.97285C20.0728 9.18691 20.0002 9.26758 19.7861 9.26758L9.62263 9.26758C9.51872 9.26758 9.49919 9.15742 9.58533 9.10859L19.8115 2.44842C19.917 2.37303 20.0728 2.39432 20.0728 2.56619Z" fill="white" fill-opacity="0.85"/>
  <path d="M0.74414 5.67909L4.78496 5.67909C5.49218 5.67909 5.74863 4.99765 5.31913 4.42792L3.29746 1.73691C3.02148 1.36953 2.49609 1.38105 2.22812 1.73691L0.206446 4.42792C-0.218553 4.99941 0.0378919 5.67909 0.74414 5.67909ZM2.76328 19.8449C3.12675 19.8449 3.42109 19.5488 3.42109 19.1871L3.42109 4.33788C3.42109 3.98418 3.12675 3.68008 2.76328 3.68008C2.40957 3.68008 2.10723 3.98418 2.10723 4.33788L2.10723 19.1871C2.10723 19.5488 2.40957 19.8449 2.76328 19.8449ZM0.74414 17.8459C0.0378919 17.8459-0.218553 18.5238 0.206446 19.089L2.22812 21.7801C2.5041 22.1519 3.02148 22.1537 3.29746 21.7801L5.31913 19.089C5.73261 18.5433 5.5082 17.8459 4.78496 17.8459Z" fill="white" fill-opacity="0.85"/>
 </g>
</svg>
