<?xml version="1.0" encoding="UTF-8"?>
<!--Generator: Apple Native CoreSVG 341-->
<!DOCTYPE svg
PUBLIC "-//W3C//DTD SVG 1.1//EN"
       "http://www.w3.org/Graphics/SVG/1.1/DTD/svg11.dtd">
<svg version="1.1" xmlns="http://www.w3.org/2000/svg" xmlns:xlink="http://www.w3.org/1999/xlink" viewBox="0 0 23.8881 25.2751">
 <g>
  <rect height="25.2751" opacity="0" width="23.8881" x="0" y="0"/>
  <path d="M1.61171 21.7946L9.34413 21.7946C10.5826 21.7946 11.1662 21.2207 11.1662 19.9743L11.1662 8.41683C11.1662 7.38344 10.4084 6.81547 9.57793 6.81547C9.0125 6.81547 8.43751 7.08305 8.06173 7.66058L0.346678 19.219C0.110741 19.5754 0 19.9491 0 20.3409C0 21.1451 0.517967 21.7946 1.61171 21.7946ZM21.915 21.7946C23.0168 21.7946 23.5267 21.1451 23.5267 20.3409C23.5267 19.9491 23.416 19.5754 23.1801 19.219L15.473 7.66058C15.0875 7.08305 14.5205 6.81547 13.9551 6.81547C13.1263 6.81547 12.3685 7.38344 12.3685 8.41683L12.3685 19.9743C12.3685 21.2207 12.9424 21.7946 14.1906 21.7946Z" fill="white" fill-opacity="0.85"/>
  <path d="M17.8476 0.748683L17.8476 4.78149C17.8476 5.49672 18.5371 5.75317 19.1006 5.32368L21.7916 3.302C22.1572 3.01802 22.1474 2.49263 21.7916 2.22466L19.1006 0.210989C18.5353-0.22026 17.8476 0.0344266 17.8476 0.748683ZM5.69062 4.78149L5.69062 0.748683C5.69062 0.0344266 5.00292-0.22026 4.43769 0.210989L1.74668 2.22466C1.3748 2.50063 1.37305 3.01802 1.74668 3.302L4.43769 5.32368C4.98339 5.73715 5.69062 5.5145 5.69062 4.78149ZM19.1888 3.42563C19.5443 3.42563 19.8467 3.1313 19.8467 2.76157C19.8467 2.4061 19.5443 2.11177 19.1888 2.11177L4.3414 2.11177C3.97793 2.11177 3.68359 2.4061 3.68359 2.76157C3.68359 3.1313 3.97793 3.42563 4.3414 3.42563Z" fill="white" fill-opacity="0.85"/>
 </g>
</svg>
