<?xml version="1.0" encoding="UTF-8"?>
<!--Generator: Apple Native CoreSVG 341-->
<!DOCTYPE svg
PUBLIC "-//W3C//DTD SVG 1.1//EN"
       "http://www.w3.org/Graphics/SVG/1.1/DTD/svg11.dtd">
<svg version="1.1" xmlns="http://www.w3.org/2000/svg" xmlns:xlink="http://www.w3.org/1999/xlink" viewBox="0 0 18.5894 18.2316">
 <g>
  <rect height="18.2316" opacity="0" width="18.5894" x="0" y="0"/>
  <path d="M18.2281 3.17148L18.2281 15.0646C18.2281 17.1502 17.1404 18.2281 15.0246 18.2281L3.20351 18.2281C1.0957 18.2281 0 17.1502 0 15.0646L0 3.17148C0 1.08769 1.0957 0 3.20351 0L15.0246 0C17.1404 0 18.2281 1.08769 18.2281 3.17148ZM11.5617 5.39804L8.04003 8.92598L6.64224 10.4579L6.81405 8.95215L6.81405 7.34843C6.81405 6.78457 6.48593 6.43262 5.97343 6.43262C5.47246 6.43262 5.14433 6.80684 5.14433 7.35918L5.14433 12.0709C5.14433 12.7783 5.53339 13.0935 6.1705 13.0935L10.9062 13.0935C11.4639 13.0935 11.8176 12.7654 11.8176 12.2609C11.8176 11.7502 11.4576 11.4141 10.8973 11.4141L9.20214 11.4141L7.76878 11.6039L9.31542 10.1934L12.8619 6.66464C13.0383 6.48827 13.1517 6.24277 13.1517 6.00703C13.1517 5.46543 12.7717 5.1127 12.2602 5.1127C11.9809 5.1127 11.7584 5.21113 11.5617 5.39804Z" fill="white" fill-opacity="0.85"/>
 </g>
</svg>
