<?xml version="1.0" encoding="UTF-8"?>
<!--Generator: Apple Native CoreSVG 341-->
<!DOCTYPE svg
PUBLIC "-//W3C//DTD SVG 1.1//EN"
       "http://www.w3.org/Graphics/SVG/1.1/DTD/svg11.dtd">
<svg version="1.1" xmlns="http://www.w3.org/2000/svg" xmlns:xlink="http://www.w3.org/1999/xlink" viewBox="0 0 18.5894 18.2316">
 <g>
  <rect height="18.2316" opacity="0" width="18.5894" x="0" y="0"/>
  <path d="M3.20351 18.2281L15.0246 18.2281C17.1404 18.2281 18.2281 17.1502 18.2281 15.0646L18.2281 3.17148C18.2281 1.08769 17.1404 0 15.0246 0L3.20351 0C1.0957 0 0 1.08769 0 3.17148L0 15.0646C0 17.1502 1.0957 18.2281 3.20351 18.2281ZM3.31444 16.3148C2.40643 16.3148 1.91327 15.8465 1.91327 14.8977L1.91327 3.34023C1.91327 2.39139 2.40643 1.91503 3.31444 1.91503L14.9137 1.91503C15.8137 1.91503 16.3148 2.39139 16.3148 3.34023L16.3148 14.8977C16.3148 15.8465 15.8137 16.3148 14.9137 16.3148Z" fill="white" fill-opacity="0.85"/>
  <path d="M4.86152 9.02617L8.12793 9.02617C8.70781 9.02617 9.04218 8.75234 9.04218 8.11543L9.04218 4.83124C9.04218 4.4205 8.70683 4.09492 8.29609 4.09492C7.88711 4.09492 7.55976 4.4205 7.55976 4.83124L7.55976 5.25703L7.67148 6.64707L5.3371 4.20273C5.02929 3.87187 4.5078 3.87363 4.1912 4.19472C3.87812 4.50956 3.88261 5.03104 4.20097 5.33886L6.63555 7.65722L5.28203 7.54375L4.86152 7.54375C4.45253 7.54375 4.11718 7.86933 4.11718 8.28183C4.11718 8.69081 4.45253 9.02617 4.86152 9.02617ZM9.94003 14.1189C10.349 14.1189 10.6764 13.7934 10.6764 13.3809L10.6764 12.9568L10.5646 11.5668L12.899 14.0094C13.2068 14.3437 13.7283 14.3402 14.0449 14.0191C14.358 13.7025 14.3535 13.173 14.0352 12.8732L11.6006 10.5566L12.9541 10.6684L13.3746 10.6684C13.7836 10.6684 14.1189 10.3428 14.1189 9.93203C14.1189 9.51503 13.7836 9.18593 13.3746 9.18593L10.1082 9.18593C9.52832 9.18593 9.19394 9.46152 9.19394 10.0904L9.19394 13.3809C9.19394 13.7934 9.52929 14.1189 9.94003 14.1189Z" fill="white" fill-opacity="0.85"/>
 </g>
</svg>
