<?xml version="1.0" encoding="UTF-8"?>
<!--Generator: Apple Native CoreSVG 341-->
<!DOCTYPE svg
PUBLIC "-//W3C//DTD SVG 1.1//EN"
       "http://www.w3.org/Graphics/SVG/1.1/DTD/svg11.dtd">
<svg version="1.1" xmlns="http://www.w3.org/2000/svg" xmlns:xlink="http://www.w3.org/1999/xlink" viewBox="0 0 20.5381 20.1848">
 <g>
  <rect height="20.1848" opacity="0" width="20.5381" x="0" y="0"/>
  <path d="M10.0875 20.175C15.6576 20.175 20.1767 15.6559 20.1767 10.0875C20.1767 4.51914 15.6576 0 10.0875 0C4.51914 0 0 4.51914 0 10.0875C0 15.6559 4.51914 20.175 10.0875 20.175ZM10.0875 18.1879C5.60839 18.1879 1.9871 14.5666 1.9871 10.0875C1.9871 5.60839 5.60839 1.9871 10.0875 1.9871C14.5666 1.9871 18.1897 5.60839 18.1897 10.0875C18.1897 14.5666 14.5666 18.1879 10.0875 18.1879Z" fill="white" fill-opacity="0.85"/>
  <path d="M6.09569 14.373C6.5037 14.373 6.81229 14.0707 6.81229 13.6547L6.81229 6.51054C6.81229 6.09452 6.5037 5.79394 6.09569 5.79394C5.67968 5.79394 5.36308 6.09452 5.36308 6.51054L5.36308 13.6547C5.36308 14.0707 5.67968 14.373 6.09569 14.373ZM16.1289 10.0955C16.1289 9.66367 15.8123 9.36035 15.3814 9.36035L11.3121 9.36035L9.64451 9.47129L11.4019 7.91913L12.0154 7.3119C12.1662 7.17089 12.2424 6.98456 12.2424 6.77714C12.2424 6.36562 11.931 6.07656 11.5187 6.07656C11.3271 6.07656 11.1418 6.1457 10.9893 6.308L7.74315 9.54121C7.58964 9.69648 7.50097 9.88535 7.50097 10.0955C7.50097 10.2977 7.58163 10.4945 7.74315 10.6418L10.9812 13.8527C11.1223 13.9973 11.3432 14.0887 11.5267 14.0887C11.9471 14.0887 12.2424 13.8014 12.2424 13.3836C12.2424 13.1602 12.1644 12.9881 12.0154 12.8551L11.3939 12.2719L9.6365 10.7197L11.3121 10.8307L15.3814 10.8307C15.8123 10.8307 16.1289 10.5353 16.1289 10.0955Z" fill="white" fill-opacity="0.85"/>
 </g>
</svg>
