<?xml version="1.0" encoding="UTF-8"?>
<!--Generator: Apple Native CoreSVG 341-->
<!DOCTYPE svg
PUBLIC "-//W3C//DTD SVG 1.1//EN"
       "http://www.w3.org/Graphics/SVG/1.1/DTD/svg11.dtd">
<svg version="1.1" xmlns="http://www.w3.org/2000/svg" xmlns:xlink="http://www.w3.org/1999/xlink" viewBox="0 0 20.5381 20.1848">
 <g>
  <rect height="20.1848" opacity="0" width="20.5381" x="0" y="0"/>
  <path d="M20.1767 10.0875C20.1767 15.6478 15.6576 20.175 10.0875 20.175C4.52715 20.175 0 15.6478 0 10.0875C0 4.51914 4.52715 0 10.0875 0C15.6576 0 20.1767 4.51914 20.1767 10.0875ZM10.1799 5.24198L10.1799 7.175L10.0465 7.175C6.33651 7.175 4.61523 9.55527 4.61523 13.4555C4.61523 14.1115 4.90624 14.44 5.26678 14.44C5.5451 14.44 5.80428 14.3498 6.00467 13.9728C6.86229 12.3828 8.06991 11.807 10.0465 11.807L10.1799 11.807L10.1799 13.749C10.1799 14.1543 10.4787 14.4629 10.8955 14.4629C11.1865 14.4629 11.4074 14.3404 11.6824 14.0867L15.9299 10.1072C16.1465 9.91191 16.2236 9.68398 16.2236 9.48261C16.2236 9.27949 16.1447 9.05507 15.9299 8.85976L11.6824 4.90429C11.3799 4.62304 11.191 4.5041 10.9035 4.5041C10.4787 4.5041 10.1799 4.83671 10.1799 5.24198Z" fill="white" fill-opacity="0.85"/>
 </g>
</svg>
