<?xml version="1.0" encoding="UTF-8"?>
<!--Generator: Apple Native CoreSVG 341-->
<!DOCTYPE svg
PUBLIC "-//W3C//DTD SVG 1.1//EN"
       "http://www.w3.org/Graphics/SVG/1.1/DTD/svg11.dtd">
<svg version="1.1" xmlns="http://www.w3.org/2000/svg" xmlns:xlink="http://www.w3.org/1999/xlink" viewBox="0 0 23.4906 18.2316">
 <g>
  <rect height="18.2316" opacity="0" width="23.4906" x="0" y="0"/>
  <path d="M3.20351 18.2316L19.9258 18.2316C22.0416 18.2316 23.1293 17.1519 23.1293 15.0682L23.1293 3.17499C23.1293 1.08945 22.0416 0.00351548 19.9258 0.00351548L3.20351 0.00351548C1.0957 0.00351548 0 1.08945 0 3.17499L0 15.0682C0 17.1519 1.0957 18.2316 3.20351 18.2316ZM3.31444 16.3184C2.40643 16.3184 1.91327 15.8482 1.91327 14.8994L1.91327 3.34198C1.91327 2.39315 2.40643 1.91678 3.31444 1.91678L19.8148 1.91678C20.7149 1.91678 21.216 2.39315 21.216 3.34198L21.216 14.8994C21.216 15.8482 20.7149 16.3184 19.8148 16.3184Z" fill="white" fill-opacity="0.85"/>
  <path d="M19.5016 4.76463C19.6576 4.60858 19.7623 4.39666 19.7623 4.18202C19.7623 3.6951 19.4299 3.3705 18.9615 3.3705C18.7016 3.3705 18.5047 3.4619 18.3416 3.62499L15.5471 6.41777L13.9645 8.12363C13.2672 8.8916 14.2125 9.85527 14.9879 9.15507L16.7018 7.56444ZM13.8029 10.2422L18.152 10.2422C18.6223 10.2342 18.9301 9.93788 18.9301 9.48358C18.9301 9.02577 18.6143 8.72148 18.1244 8.71347L16.4451 8.71347L14.149 8.96699L14.4025 6.5828L14.4025 4.98983C14.3945 4.49374 14.0885 4.17616 13.6324 4.17616C13.1764 4.17616 12.8801 4.48397 12.8721 4.96405L12.8721 9.30507C12.8721 9.91347 13.2025 10.2422 13.8029 10.2422Z" fill="white" fill-opacity="0.85"/>
 </g>
</svg>
