<?xml version="1.0" encoding="UTF-8"?>
<!--Generator: Apple Native CoreSVG 341-->
<!DOCTYPE svg
PUBLIC "-//W3C//DTD SVG 1.1//EN"
       "http://www.w3.org/Graphics/SVG/1.1/DTD/svg11.dtd">
<svg version="1.1" xmlns="http://www.w3.org/2000/svg" xmlns:xlink="http://www.w3.org/1999/xlink" viewBox="0 0 20.5381 20.1848">
 <g>
  <rect height="20.1848" opacity="0" width="20.5381" x="0" y="0"/>
  <path d="M20.1767 10.0973C20.1767 15.6656 15.6576 20.1848 10.0875 20.1848C4.52715 20.1848 0 15.6656 0 10.0973C0 4.53691 4.52715 0.00976562 10.0875 0.00976562C15.6576 0.00976562 20.1767 4.53691 20.1767 10.0973ZM9.50664 7.26308L6.16093 10.6359C6.01113 10.7805 5.92597 11.0129 5.92597 11.1822C5.92597 11.6371 6.22832 11.9457 6.65663 11.9457C6.90136 11.9457 7.07343 11.8678 7.21796 11.7072L7.80019 11.0769L9.42519 9.25291L9.30625 10.9844L9.30625 15.1877C9.30625 15.6514 9.61484 15.975 10.0795 15.975C10.5201 15.975 10.8465 15.6514 10.8465 15.1877L10.8465 10.9844L10.7355 9.26268L12.3348 11.0769L12.9588 11.7072C13.1113 11.866 13.3029 11.9457 13.5316 11.9457C13.9467 11.9457 14.2508 11.6211 14.2508 11.1902C14.2508 10.9871 14.1914 10.7867 14.0096 10.6279L10.6541 7.26308C10.4953 7.1078 10.2949 7.00937 10.0795 7.00937C9.86406 7.00937 9.66367 7.09179 9.50664 7.26308ZM6.38027 4.77851C5.94921 4.77851 5.62558 5.11015 5.62558 5.55097C5.62558 5.97577 5.94921 6.2994 6.38027 6.2994L13.8045 6.2994C14.2355 6.2994 14.5512 5.97577 14.5512 5.55097C14.5512 5.11015 14.2355 4.77851 13.8045 4.77851Z" fill="white" fill-opacity="0.85"/>
 </g>
</svg>
