<?xml version="1.0" encoding="UTF-8"?>
<!--Generator: Apple Native CoreSVG 341-->
<!DOCTYPE svg
PUBLIC "-//W3C//DTD SVG 1.1//EN"
       "http://www.w3.org/Graphics/SVG/1.1/DTD/svg11.dtd">
<svg version="1.1" xmlns="http://www.w3.org/2000/svg" xmlns:xlink="http://www.w3.org/1999/xlink" viewBox="0 0 18.5894 18.2316">
 <g>
  <rect height="18.2316" opacity="0" width="18.5894" x="0" y="0"/>
  <path d="M18.2281 3.17148L18.2281 15.0646C18.2281 17.1502 17.1404 18.2281 15.0246 18.2281L3.20351 18.2281C1.0957 18.2281 0 17.1502 0 15.0646L0 3.17148C0 1.08769 1.0957 0 3.20351 0L15.0246 0C17.1404 0 18.2281 1.08769 18.2281 3.17148ZM4.71425 9.18418C4.28046 9.18418 3.93007 9.52656 3.93007 9.96835C3.93007 10.3941 4.28046 10.7348 4.71425 10.7348L5.14453 10.7348L6.54688 10.6195L4.02714 13.0115C3.69375 13.3326 3.683 13.8807 4.01913 14.2105C4.34902 14.5467 4.88905 14.5502 5.2119 14.2025L7.62968 11.6748L7.51445 13.1137L7.51445 13.5492C7.51445 13.9848 7.85683 14.3254 8.2791 14.3254C8.71464 14.3254 9.06327 13.9848 9.06327 13.5492L9.06327 10.132C9.06327 9.4748 8.71562 9.18418 8.10742 9.18418ZM13.0646 4.00956L10.6469 6.53906L10.7701 5.09843L10.7701 4.66464C10.7701 4.22734 10.4197 3.88847 9.9957 3.88847C9.56191 3.88847 9.21953 4.22734 9.21953 4.66464L9.21953 8.07383C9.21953 8.7373 9.56093 9.02792 10.1691 9.02792L13.5623 9.02792C14.0041 9.02792 14.3465 8.67929 14.3465 8.24375C14.3465 7.81797 14.0041 7.4791 13.5623 7.4791L13.132 7.4791L11.7297 7.59258L14.2494 5.20233C14.5828 4.87147 14.5935 4.33144 14.2574 4.00156C13.9275 3.66718 13.3875 3.66367 13.0646 4.00956Z" fill="white" fill-opacity="0.85"/>
 </g>
</svg>
