<?xml version="1.0" encoding="UTF-8"?>
<!--Generator: Apple Native CoreSVG 341-->
<!DOCTYPE svg
PUBLIC "-//W3C//DTD SVG 1.1//EN"
       "http://www.w3.org/Graphics/SVG/1.1/DTD/svg11.dtd">
<svg version="1.1" xmlns="http://www.w3.org/2000/svg" xmlns:xlink="http://www.w3.org/1999/xlink" viewBox="0 0 20.5381 23.9811">
 <g>
  <rect height="23.9811" opacity="0" width="20.5381" x="0" y="0"/>
  <path d="M8.3416 0.722792L8.3416 5.34056C8.3416 6.05228 8.88515 6.24134 9.42129 5.85618L12.5805 3.58783C13.0191 3.27709 13.0271 2.79076 12.5805 2.47377L9.42929 0.203652C8.88515-0.191269 8.3416-0.00845663 8.3416 0.722792ZM1.9871 11.9857C1.9871 7.50658 5.60839 3.88528 10.0928 3.88528C10.6334 3.88528 11.0863 3.43236 11.0863 2.88373C11.0863 2.34135 10.6414 1.90619 10.1008 1.89819C4.51113 1.90619 0 6.41732 0 11.9857C0 14.7783 1.15879 17.315 3.02931 19.1095C3.50567 19.6154 4.17852 19.5068 4.52832 19.1093C4.83027 18.7687 4.91132 18.2476 4.43945 17.7224C2.91952 16.2781 1.9871 14.2328 1.9871 11.9857ZM11.8351 23.2406L11.8351 18.6308C11.8351 17.9111 11.2916 17.73 10.7555 18.1152L7.59453 20.3818C7.15761 20.6925 7.1496 21.1806 7.59453 21.4976L10.7475 23.7579C11.2916 24.1609 11.8351 23.9718 11.8351 23.2406ZM18.1897 11.9857C18.1897 16.4648 14.5666 20.0861 10.084 20.0861C9.54336 20.0861 9.09844 20.531 9.09844 21.0796C9.09844 21.6202 9.53535 22.0652 10.076 22.0732C15.6656 22.0652 20.1767 17.554 20.1767 11.9857C20.1767 9.1931 19.0162 6.65637 17.1457 4.86184C16.6711 4.35423 15.9965 4.46282 15.6484 4.85228C15.3447 5.20266 15.2654 5.71575 15.7435 6.23918C17.2572 7.69153 18.1897 9.72884 18.1897 11.9857Z" fill="white" fill-opacity="0.85"/>
 </g>
</svg>
