<?xml version="1.0" encoding="UTF-8"?>
<!--Generator: Apple Native CoreSVG 341-->
<!DOCTYPE svg
PUBLIC "-//W3C//DTD SVG 1.1//EN"
       "http://www.w3.org/Graphics/SVG/1.1/DTD/svg11.dtd">
<svg version="1.1" xmlns="http://www.w3.org/2000/svg" xmlns:xlink="http://www.w3.org/1999/xlink" viewBox="0 0 19.6139 23.8449">
 <g>
  <rect height="23.8449" opacity="0" width="19.6139" x="0" y="0"/>
  <path d="M14.0459 2.37382L14.0459 3.83984L18.3963 3.83984C18.8775 3.83984 19.2525 4.21406 19.2525 4.69179C19.2525 5.17304 18.8775 5.55526 18.3963 5.55526L17.316 5.55526L16.6543 19.6244C16.5842 21.1211 15.6133 22.0363 14.1184 22.0363L5.14218 22.0363C3.63125 22.0363 2.67812 21.1291 2.60625 19.6324L1.93662 5.55526L0.864252 5.55526C0.391014 5.55526 0 5.18104 0 4.69179C0 4.21406 0.391014 3.83984 0.864252 3.83984L5.19062 3.83984L5.19062 2.37382C5.19062 0.880468 6.14375 0 7.76191 0L11.4746 0C13.0928 0 14.0459 0.880468 14.0459 2.37382ZM9.0084 8.92636L6.27382 11.5695C6.12656 11.7008 6.0414 11.8756 6.0414 12.0857C6.0414 12.5035 6.37031 12.8016 6.76601 12.8016C6.96816 12.8016 7.18378 12.7031 7.3248 12.5541L8.49765 11.2941L8.861 10.8873L8.80156 11.9586L8.80156 16.4072C8.80156 16.831 9.18828 17.207 9.62714 17.207C10.066 17.207 10.443 16.831 10.443 16.4072L10.443 11.9586L10.3834 10.8844L10.7469 11.2941L11.9215 12.5541C12.0687 12.7031 12.2701 12.8016 12.4723 12.8016C12.868 12.8016 13.2031 12.5035 13.2031 12.0857C13.2031 11.8756 13.118 11.7088 12.9707 11.5695L10.2361 8.92636C10.0225 8.72597 9.8328 8.65683 9.62714 8.65683C9.41171 8.65683 9.22207 8.72597 9.0084 8.92636ZM7.89042 1.63437C7.34667 1.63437 6.99296 1.95878 6.99296 2.46445L6.99296 3.83984L12.2436 3.83984L12.2436 2.46445C12.2436 1.95878 11.8898 1.63437 11.3461 1.63437Z" fill="white" fill-opacity="0.85"/>
 </g>
</svg>
