<?xml version="1.0" encoding="UTF-8"?>
<!--Generator: Apple Native CoreSVG 341-->
<!DOCTYPE svg
PUBLIC "-//W3C//DTD SVG 1.1//EN"
       "http://www.w3.org/Graphics/SVG/1.1/DTD/svg11.dtd">
<svg version="1.1" xmlns="http://www.w3.org/2000/svg" xmlns:xlink="http://www.w3.org/1999/xlink" viewBox="0 0 22.8129 22.46">
 <g>
  <rect height="22.46" opacity="0" width="22.8129" x="0" y="0"/>
  <path d="M13.4913 1.12864L21.3214 8.95872C22.8142 10.4532 22.8239 11.989 21.3454 13.4675L13.4753 21.3456C11.9905 22.8224 10.461 22.8144 8.96651 21.3198L1.13018 13.4835C-0.364349 11.989-0.380365 10.4613 1.1044 8.97473L8.98428 1.10461C10.469-0.380149 11.9985-0.364134 13.4913 1.12864ZM13.0417 7.24758L13.0417 8.23489L10.3323 8.23489C8.5374 8.23489 7.40557 9.35168 7.40557 11.1263L7.40557 15.1874C7.40557 15.6566 7.75869 16.0193 8.22509 16.0193C8.67646 16.0193 9.04111 15.6566 9.04111 15.1874L9.04111 11.1583C9.04111 10.3726 9.54052 9.8757 10.3403 9.8757L13.0417 9.8757L13.0417 10.8712C13.0417 11.4702 13.5011 11.6511 13.9677 11.3042L16.4562 9.56457C16.8501 9.28156 16.8546 8.84524 16.4562 8.55598L13.9757 6.81008C13.5046 6.45168 13.0417 6.63879 13.0417 7.24758Z" fill="white" fill-opacity="0.85"/>
 </g>
</svg>
