<?xml version="1.0" encoding="UTF-8"?>
<!--Generator: Apple Native CoreSVG 341-->
<!DOCTYPE svg
PUBLIC "-//W3C//DTD SVG 1.1//EN"
       "http://www.w3.org/Graphics/SVG/1.1/DTD/svg11.dtd">
<svg version="1.1" xmlns="http://www.w3.org/2000/svg" xmlns:xlink="http://www.w3.org/1999/xlink" viewBox="0 0 15.848 18.5422">
 <g>
  <rect height="18.5422" opacity="0" width="15.848" x="0" y="0"/>
  <path d="M7.55253 16.3744L4.81464 13.2916L1.7785 10.252C1.59335 10.057 1.32382 9.942 1.02089 9.942C0.432419 9.942 0 10.3834 0 10.9885C0 11.2615 0.110741 11.5176 0.333201 11.7498L6.76562 18.1982C6.97754 18.4182 7.26543 18.5404 7.56054 18.5404C7.85566 18.5404 8.14179 18.4182 8.35546 18.1982L14.7924 11.7498C15.0166 11.5176 15.1193 11.2615 15.1193 10.9885C15.1193 10.3834 14.6869 9.942 14.0984 9.942C13.7955 9.942 13.5322 10.057 13.3408 10.252L10.3064 13.2916ZM13.0824 0C8.66035 0 6.49453 1.825 6.49453 6.2711L6.49453 12.6942L6.58145 16.334C6.59473 16.8594 7.02539 17.3051 7.55253 17.3051C8.09569 17.3051 8.51659 16.8594 8.53163 16.334L8.62655 12.6942L8.61678 6.40645C8.60877 3.19999 9.99882 2.10799 13.1492 2.10799C13.658 2.116 14.0836 2.1283 14.4277 2.13631C15.0453 2.13631 15.4867 1.74549 15.4867 1.12519C15.4867 0.475973 14.9928 0.175585 14.5311 0.0824213C14.1387 0.0132811 13.6471 0 13.0824 0Z" fill="white" fill-opacity="0.85"/>
 </g>
</svg>
