<?xml version="1.0" encoding="UTF-8"?>
<!--Generator: Apple Native CoreSVG 341-->
<!DOCTYPE svg
PUBLIC "-//W3C//DTD SVG 1.1//EN"
       "http://www.w3.org/Graphics/SVG/1.1/DTD/svg11.dtd">
<svg version="1.1" xmlns="http://www.w3.org/2000/svg" xmlns:xlink="http://www.w3.org/1999/xlink" viewBox="0 0 18.5894 18.2316">
 <g>
  <rect height="18.2316" opacity="0" width="18.5894" x="0" y="0"/>
  <path d="M3.20351 18.2281L15.0246 18.2281C17.1404 18.2281 18.2281 17.1502 18.2281 15.0646L18.2281 3.17148C18.2281 1.08769 17.1404 0 15.0246 0L3.20351 0C1.0957 0 0 1.08769 0 3.17148L0 15.0646C0 17.1502 1.0957 18.2281 3.20351 18.2281ZM3.31444 16.3148C2.40643 16.3148 1.91327 15.8465 1.91327 14.8977L1.91327 3.34023C1.91327 2.39139 2.40643 1.91503 3.31444 1.91503L14.9137 1.91503C15.8137 1.91503 16.3148 2.39139 16.3148 3.34023L16.3148 14.8977C16.3148 15.8465 15.8137 16.3148 14.9137 16.3148Z" fill="white" fill-opacity="0.85"/>
  <path d="M10.7855 6.3789L8.97364 8.02695L5.55214 11.4564C5.38906 11.6213 5.27734 11.8518 5.27734 12.0805C5.27734 12.5955 5.63261 12.9314 6.12558 12.9314C6.39784 12.9314 6.60702 12.8348 6.78417 12.6611L10.1969 9.25018L11.8449 7.44452C12.5992 6.62128 11.627 5.62324 10.7855 6.3789ZM11.3705 9.22577L11.3705 10.7852C11.3705 11.3127 11.6836 11.6576 12.1775 11.6576C12.6635 11.6576 12.9766 11.2887 12.9766 10.7727L12.9766 6.22655C12.9766 5.55898 12.6043 5.25879 11.9973 5.25879L7.42539 5.25879C6.89785 5.25879 6.55918 5.57187 6.55918 6.05781C6.55918 6.54374 6.9041 6.85683 7.43613 6.85683L9.08516 6.85683L11.6791 6.51464Z" fill="white" fill-opacity="0.85"/>
 </g>
</svg>
