<?xml version="1.0" encoding="UTF-8"?>
<!--Generator: Apple Native CoreSVG 341-->
<!DOCTYPE svg
PUBLIC "-//W3C//DTD SVG 1.1//EN"
       "http://www.w3.org/Graphics/SVG/1.1/DTD/svg11.dtd">
<svg version="1.1" xmlns="http://www.w3.org/2000/svg" xmlns:xlink="http://www.w3.org/1999/xlink" viewBox="0 0 20.5381 20.1848">
 <g>
  <rect height="20.1848" opacity="0" width="20.5381" x="0" y="0"/>
  <path d="M20.1767 10.0875C20.1767 15.6478 15.6576 20.175 10.0875 20.175C4.52715 20.175 0 15.6478 0 10.0875C0 4.51914 4.52715 0 10.0875 0C15.6576 0 20.1767 4.51914 20.1767 10.0875ZM9.3707 5.21855L6.01699 8.45156C5.84141 8.62089 5.74746 8.808 5.74746 9.06601C5.74746 9.53495 6.12402 9.87987 6.58965 9.87987C6.82539 9.87987 7.07285 9.78417 7.23593 9.59706L8.66543 8.07518L9.20508 7.45553L9.14356 8.92167L9.14356 14.3404C9.14356 14.851 9.56992 15.2746 10.0955 15.2746C10.6246 15.2746 11.0572 14.851 11.0572 14.3404L11.0572 8.92167L10.9904 7.45868L11.5273 8.07518L12.9568 9.59706C13.1199 9.78417 13.3594 9.87987 13.5951 9.87987C14.0607 9.87987 14.4453 9.53495 14.4453 9.06601C14.4453 8.808 14.3514 8.62089 14.1678 8.45156L10.8221 5.21855C10.573 4.9748 10.3463 4.90039 10.0955 4.90039C9.84648 4.90039 9.61973 4.9748 9.3707 5.21855Z" fill="white" fill-opacity="0.85"/>
 </g>
</svg>
