<?xml version="1.0" encoding="UTF-8"?>
<!--Generator: Apple Native CoreSVG 341-->
<!DOCTYPE svg
PUBLIC "-//W3C//DTD SVG 1.1//EN"
       "http://www.w3.org/Graphics/SVG/1.1/DTD/svg11.dtd">
<svg version="1.1" xmlns="http://www.w3.org/2000/svg" xmlns:xlink="http://www.w3.org/1999/xlink" viewBox="0 0 18.5894 18.2316">
 <g>
  <rect height="18.2316" opacity="0" width="18.5894" x="0" y="0"/>
  <path d="M18.2281 3.17148L18.2281 15.0646C18.2281 17.1502 17.1404 18.2281 15.0246 18.2281L3.20351 18.2281C1.0957 18.2281 0 17.1502 0 15.0646L0 3.17148C0 1.08769 1.0957 0 3.20351 0L15.0246 0C17.1404 0 18.2281 1.08769 18.2281 3.17148ZM6.86562 3.75996L4.15195 6.50117C3.99043 6.68222 3.88125 6.90234 3.88125 7.13398C3.88125 7.37988 3.98867 7.59374 4.15195 7.77656L6.87363 10.5338C7.01913 10.6873 7.20449 10.7609 7.4246 10.7609C7.84784 10.7609 8.19374 10.4185 8.19374 9.96601C8.19374 9.77168 8.11835 9.56406 7.95155 9.42207L6.74901 8.30175L6.1825 7.88819L7.25605 7.92519L10.2506 7.92519C11.684 7.92519 12.757 8.75976 12.757 10.2562C12.757 11.7795 11.7098 12.7244 10.2461 12.7244L8.82148 12.7244C8.33554 12.7244 7.97012 13.0117 7.97012 13.5156C7.97012 14.023 8.33203 14.3139 8.83574 14.3139L10.2461 14.3139C12.6365 14.3139 14.3953 12.7668 14.3953 10.3221C14.3953 7.88613 12.6428 6.38613 10.2506 6.38613L7.25605 6.38613L6.17431 6.41012L6.93046 5.83613L7.94355 4.86015C8.10058 4.73242 8.19023 4.52656 8.19023 4.31445C8.19023 3.87343 7.84257 3.52929 7.41308 3.52929C7.19296 3.52929 7.01113 3.59316 6.86562 3.75996Z" fill="white" fill-opacity="0.85"/>
 </g>
</svg>
