<?xml version="1.0" encoding="UTF-8"?>
<!--Generator: Apple Native CoreSVG 341-->
<!DOCTYPE svg
PUBLIC "-//W3C//DTD SVG 1.1//EN"
       "http://www.w3.org/Graphics/SVG/1.1/DTD/svg11.dtd">
<svg version="1.1" xmlns="http://www.w3.org/2000/svg" xmlns:xlink="http://www.w3.org/1999/xlink" viewBox="0 0 18.5894 18.2316">
 <g>
  <rect height="18.2316" opacity="0" width="18.5894" x="0" y="0"/>
  <path d="M3.20351 18.2281L15.0246 18.2281C17.1404 18.2281 18.2281 17.1502 18.2281 15.0646L18.2281 3.17148C18.2281 1.08769 17.1404 0 15.0246 0L3.20351 0C1.0957 0 0 1.08769 0 3.17148L0 15.0646C0 17.1502 1.0957 18.2281 3.20351 18.2281ZM3.31444 16.3148C2.40643 16.3148 1.91327 15.8465 1.91327 14.8977L1.91327 3.34023C1.91327 2.39139 2.40643 1.91503 3.31444 1.91503L14.9137 1.91503C15.8137 1.91503 16.3148 2.39139 16.3148 3.34023L16.3148 14.8977C16.3148 15.8465 15.8137 16.3148 14.9137 16.3148Z" fill="white" fill-opacity="0.85"/>
  <path d="M4.06835 7.20664C4.06835 7.43925 4.16425 7.64335 4.32578 7.81289L6.94023 10.4691C7.08222 10.6129 7.25429 10.6848 7.4664 10.6848C7.87284 10.6848 8.20546 10.3574 8.20546 9.92968C8.20546 9.74511 8.13183 9.54277 7.97304 9.40879L6.80858 8.32304L5.31347 7.22968L6.98202 5.95839L7.96503 5.01699C8.1123 4.88925 8.20019 4.69492 8.20019 4.48632C8.20019 4.06835 7.86933 3.73925 7.45312 3.73925C7.24452 3.73925 7.07421 3.80312 6.93046 3.95664L4.32578 6.59863C4.16601 6.76816 4.06835 6.97675 4.06835 7.20664ZM7.99414 13.3455C7.99414 13.8281 8.34277 14.1057 8.82793 14.1057L10.1869 14.1057C12.4781 14.1057 14.1678 12.6197 14.1678 10.2725C14.1678 7.93398 12.4844 6.48711 10.1914 6.48711L7.29785 6.48711L5.42323 6.52871C5.04882 6.54023 4.73827 6.83925 4.73827 7.20566C4.73827 7.58808 5.04882 7.87909 5.42323 7.89238L7.29785 7.958L10.1914 7.958C11.5689 7.958 12.6074 8.76601 12.6074 10.2066C12.6074 11.674 11.5965 12.5861 10.1869 12.5861L8.81367 12.5861C8.34453 12.5861 7.99414 12.8584 7.99414 13.3455Z" fill="white" fill-opacity="0.85"/>
 </g>
</svg>
