<?xml version="1.0" encoding="UTF-8"?>
<!--Generator: Apple Native CoreSVG 341-->
<!DOCTYPE svg
PUBLIC "-//W3C//DTD SVG 1.1//EN"
       "http://www.w3.org/Graphics/SVG/1.1/DTD/svg11.dtd">
<svg version="1.1" xmlns="http://www.w3.org/2000/svg" xmlns:xlink="http://www.w3.org/1999/xlink" viewBox="0 0 15.848 18.5422">
 <g>
  <rect height="18.5422" opacity="0" width="15.848" x="0" y="0"/>
  <path d="M7.55253 2.166L10.3064 5.24705L13.3408 8.28847C13.5322 8.48163 13.7955 8.59667 14.0984 8.59667C14.6869 8.59667 15.1193 8.15702 15.1193 7.55195C15.1193 7.27714 15.0166 7.02109 14.7924 6.79062L8.35546 0.342185C8.14179 0.120507 7.85566 0 7.56054 0C7.26543 0 6.97754 0.120507 6.76562 0.342185L0.333201 6.79062C0.110741 7.02109 0 7.27714 0 7.55195C0 8.15702 0.432419 8.59667 1.02089 8.59667C1.32382 8.59667 1.59335 8.48163 1.7785 8.28847L4.81464 5.24705ZM13.0824 18.5404C13.6471 18.5404 14.1387 18.5271 14.5311 18.458C14.9928 18.3631 15.4867 18.0645 15.4867 17.4152C15.4867 16.7949 15.0453 16.4024 14.4277 16.4024C14.0836 16.4104 13.658 16.4227 13.1492 16.4324C9.99882 16.4324 8.60877 15.3404 8.61678 12.134L8.62655 5.84627L8.53163 2.20643C8.51659 1.67928 8.09569 1.23534 7.55253 1.23534C7.02539 1.23534 6.59473 1.67928 6.58145 2.20643L6.49453 5.84627L6.49453 12.2693C6.49453 16.7154 8.66035 18.5404 13.0824 18.5404Z" fill="white" fill-opacity="0.85"/>
 </g>
</svg>
