<?xml version="1.0" encoding="UTF-8"?>
<!--Generator: Apple Native CoreSVG 341-->
<!DOCTYPE svg
PUBLIC "-//W3C//DTD SVG 1.1//EN"
       "http://www.w3.org/Graphics/SVG/1.1/DTD/svg11.dtd">
<svg version="1.1" xmlns="http://www.w3.org/2000/svg" xmlns:xlink="http://www.w3.org/1999/xlink" viewBox="0 0 18.5894 18.2316">
 <g>
  <rect height="18.2316" opacity="0" width="18.5894" x="0" y="0"/>
  <path d="M18.2281 3.17148L18.2281 15.0646C18.2281 17.1502 17.1404 18.2281 15.0246 18.2281L3.20351 18.2281C1.0957 18.2281 0 17.1502 0 15.0646L0 3.17148C0 1.08769 1.0957 0 3.20351 0L15.0246 0C17.1404 0 18.2281 1.08769 18.2281 3.17148ZM3.33925 8.27812L3.38808 11.7912C3.38984 11.9643 3.4537 12.1781 3.58945 12.2961C3.87519 12.5836 4.27089 12.5836 4.55038 12.2943C4.69413 12.1586 4.76776 11.9873 4.758 11.801L4.73319 10.1654L4.70988 9.90084L5.00761 10.2109L9.53007 14.7191C9.80956 15.0049 10.2266 14.9969 10.5078 14.7191C10.7873 14.4361 10.7935 14.0209 10.5158 13.7352L5.99159 9.21894L5.66694 8.91164L5.96836 8.92851L7.60566 8.95331C7.79999 8.95507 7.96327 8.88945 8.09726 8.75722C8.38026 8.46621 8.37226 8.06875 8.09101 7.78925C7.96327 7.67304 7.78046 7.57714 7.59589 7.57714L4.06327 7.54257C3.66581 7.53457 3.33124 7.86914 3.33925 8.27812ZM7.75273 3.52304C7.475 3.80878 7.475 4.21952 7.75273 4.49726L12.2609 9.02148L12.5769 9.32071L12.3082 9.29765L10.6771 9.27109C10.4926 9.26308 10.323 9.34296 10.1891 9.47519C9.89804 9.76621 9.89804 10.1717 10.1855 10.4494C10.3133 10.5656 10.5059 10.6473 10.6984 10.6473L14.2115 10.6996C14.6045 10.6996 14.9471 10.3598 14.9471 9.96406L14.9027 6.44296C14.9027 6.25039 14.8068 6.05429 14.6889 5.94257C14.4014 5.65683 14.0074 5.65683 13.7182 5.93808C13.5859 6.07832 13.5168 6.24687 13.5168 6.42167L13.5531 8.06874L13.5711 8.36431L13.2627 8.03574L8.73046 3.52304C8.45898 3.23378 8.03398 3.24003 7.75273 3.52304Z" fill="white" fill-opacity="0.85"/>
 </g>
</svg>
