<?xml version="1.0" encoding="UTF-8"?>
<!--Generator: Apple Native CoreSVG 341-->
<!DOCTYPE svg
PUBLIC "-//W3C//DTD SVG 1.1//EN"
       "http://www.w3.org/Graphics/SVG/1.1/DTD/svg11.dtd">
<svg version="1.1" xmlns="http://www.w3.org/2000/svg" xmlns:xlink="http://www.w3.org/1999/xlink" viewBox="0 0 20.5381 20.1848">
 <g>
  <rect height="20.1848" opacity="0" width="20.5381" x="0" y="0"/>
  <path d="M20.1767 10.0875C20.1767 15.6478 15.6576 20.175 10.0875 20.175C4.52715 20.175 0 15.6478 0 10.0875C0 4.51914 4.52715 0 10.0875 0C15.6576 0 20.1767 4.51914 20.1767 10.0875ZM4.28671 9.25468L4.3373 12.7678C4.33906 12.9408 4.40292 13.1547 4.53691 13.2727C4.82441 13.5601 5.21835 13.5601 5.4996 13.2709C5.64335 13.1352 5.71698 12.9639 5.70546 12.7775L5.68066 11.142L5.65595 10.876L5.95507 11.1875L10.4793 15.6957C10.757 15.9814 11.1758 15.9734 11.4553 15.6957C11.7365 15.4127 11.7428 14.9975 11.4633 14.7117L6.94081 10.1955L6.61636 9.88839L6.91582 9.90507L8.55488 9.92988C8.74921 9.93163 8.91249 9.86601 9.03671 9.73378C9.32773 9.44277 9.31972 9.04531 9.03046 8.76582C8.91249 8.64961 8.72792 8.55371 8.54335 8.55371L5.01249 8.51914C4.61503 8.51113 4.27871 8.8457 4.28671 9.25468ZM8.70195 4.4996C8.42422 4.78535 8.41621 5.19609 8.70195 5.47382L13.2084 9.99804L13.521 10.297L13.2557 10.2742L11.6264 10.2477C11.4418 10.2396 11.2723 10.3195 11.1365 10.4518C10.8455 10.7428 10.8455 11.1482 11.1348 11.426C11.2625 11.5422 11.4533 11.6238 11.6459 11.6238L15.1607 11.6762C15.5537 11.6762 15.8945 11.3363 15.8865 10.9406L15.8519 7.41953C15.8519 7.22695 15.756 7.03085 15.6363 6.91914C15.3506 6.63339 14.9549 6.63339 14.6674 6.91464C14.5334 7.05488 14.458 7.22343 14.458 7.39824L14.4926 9.0453L14.5119 9.33371L14.2102 9.0123L9.67792 4.4996C9.40019 4.21035 8.9832 4.2166 8.70195 4.4996Z" fill="white" fill-opacity="0.85"/>
 </g>
</svg>
