<?xml version="1.0" encoding="UTF-8"?>
<!--Generator: Apple Native CoreSVG 341-->
<!DOCTYPE svg
PUBLIC "-//W3C//DTD SVG 1.1//EN"
       "http://www.w3.org/Graphics/SVG/1.1/DTD/svg11.dtd">
<svg version="1.1" xmlns="http://www.w3.org/2000/svg" xmlns:xlink="http://www.w3.org/1999/xlink" viewBox="0 0 18.5894 18.2316">
 <g>
  <rect height="18.2316" opacity="0" width="18.5894" x="0" y="0"/>
  <path d="M18.2281 3.17148L18.2281 15.0646C18.2281 17.1502 17.1404 18.2281 15.0246 18.2281L3.20351 18.2281C1.0957 18.2281 0 17.1502 0 15.0646L0 3.17148C0 1.08769 1.0957 0 3.20351 0L15.0246 0C17.1404 0 18.2281 1.08769 18.2281 3.17148ZM10.0783 4.31445C10.0783 4.52656 10.168 4.73242 10.3268 4.86015L11.3398 5.83613L12.0952 6.41012L11.0143 6.38613L8.01796 6.38613C5.62753 6.38613 3.88125 7.88613 3.88125 10.3221C3.88125 12.7668 5.63203 14.3139 8.02246 14.3139L9.43281 14.3139C9.93651 14.3139 10.2984 14.023 10.2984 13.5156C10.2984 13.0117 9.93476 12.7244 9.44706 12.7244L8.02246 12.7244C6.55878 12.7244 5.51952 11.7795 5.51952 10.2562C5.51952 8.75976 6.58456 7.92519 8.01796 7.92519L11.0143 7.92519L12.086 7.88822L11.5195 8.30175L10.3187 9.42207C10.1502 9.56406 10.0748 9.77168 10.0748 9.96601C10.0748 10.4185 10.4207 10.7609 10.8439 10.7609C11.0658 10.7609 11.2494 10.6873 11.3949 10.5338L14.1166 7.77656C14.2896 7.59374 14.3953 7.37988 14.3953 7.13398C14.3953 6.90234 14.2861 6.68222 14.1166 6.50117L11.4029 3.75996C11.2574 3.59316 11.0756 3.52929 10.8572 3.52929C10.4277 3.52929 10.0783 3.87343 10.0783 4.31445Z" fill="white" fill-opacity="0.85"/>
 </g>
</svg>
