<?xml version="1.0" encoding="UTF-8"?>
<!--Generator: Apple Native CoreSVG 341-->
<!DOCTYPE svg
PUBLIC "-//W3C//DTD SVG 1.1//EN"
       "http://www.w3.org/Graphics/SVG/1.1/DTD/svg11.dtd">
<svg version="1.1" xmlns="http://www.w3.org/2000/svg" xmlns:xlink="http://www.w3.org/1999/xlink" viewBox="0 0 19.6957 24.8148">
 <g>
  <rect height="24.8148" opacity="0" width="19.6957" x="0" y="0"/>
  <path d="M9.67029 24.5115C9.96794 24.5115 10.2515 24.3777 10.4652 24.1613L14.4508 20.2257C14.6777 19.996 14.8 19.7267 14.8 19.4386C14.8 18.8511 14.3666 18.415 13.7799 18.415C13.4769 18.415 13.2207 18.5168 13.0265 18.733L9.67029 22.3984L6.3158 18.733C6.11814 18.5168 5.86365 18.415 5.56072 18.415C4.97577 18.415 4.54061 18.8511 4.54061 19.4386C4.54061 19.7267 4.66464 19.996 4.89159 20.2257L8.87537 24.1613C9.0908 24.3812 9.36639 24.5115 9.67029 24.5115ZM10.6539 22.0025L10.7363 19.4005L10.7363 15.4121C10.7363 14.7627 10.2994 14.325 9.67029 14.325C9.04119 14.325 8.59803 14.7627 8.59803 15.4121L8.59803 19.4005L8.6867 22.0025C8.70526 22.5519 9.12264 22.9861 9.67029 22.9861C10.2197 22.9861 10.6353 22.5519 10.6539 22.0025Z" fill="white" fill-opacity="0.85"/>
  <path d="M0 12.2549C0 12.8558 0.435934 13.3033 1.03866 13.3033L18.3037 13.3033C18.8966 13.3033 19.3343 12.8558 19.3343 12.2549C19.3343 11.6556 18.8966 11.2002 18.3037 11.2002L1.03866 11.2002C0.435934 11.2002 0 11.6556 0 12.2549Z" fill="white" fill-opacity="0.85"/>
  <path d="M10.6539 2.50096C10.6353 1.95956 10.2197 1.52538 9.67029 1.52538C9.12264 1.52538 8.70526 1.95956 8.6867 2.50096L8.59803 5.11092L8.59803 9.0914C8.59803 9.74081 9.04119 10.1785 9.67029 10.1785C10.2994 10.1785 10.7363 9.74081 10.7363 9.0914L10.7363 5.11092ZM9.67029 0C9.36639 0 9.0908 0.122265 8.87537 0.342185L4.89159 4.28574C4.66464 4.51543 4.54061 4.77675 4.54061 5.06308C4.54061 5.65233 4.97577 6.08846 5.56072 6.08846C5.86365 6.08846 6.11814 5.99471 6.3158 5.7705L9.67029 2.10507L13.0265 5.7705C13.2207 5.99471 13.4769 6.08846 13.7799 6.08846C14.3666 6.08846 14.8 5.65233 14.8 5.06308C14.8 4.77675 14.6777 4.51543 14.4508 4.28574L10.4652 0.342185C10.2515 0.124022 9.96794 0 9.67029 0Z" fill="white" fill-opacity="0.85"/>
 </g>
</svg>
