<?xml version="1.0" encoding="UTF-8"?>
<!--Generator: Apple Native CoreSVG 341-->
<!DOCTYPE svg
PUBLIC "-//W3C//DTD SVG 1.1//EN"
       "http://www.w3.org/Graphics/SVG/1.1/DTD/svg11.dtd">
<svg version="1.1" xmlns="http://www.w3.org/2000/svg" xmlns:xlink="http://www.w3.org/1999/xlink" viewBox="0 0 20.5381 20.1848">
 <g>
  <rect height="20.1848" opacity="0" width="20.5381" x="0" y="0"/>
  <path d="M10.0875 20.175C15.6576 20.175 20.1767 15.6559 20.1767 10.0875C20.1767 4.51914 15.6576 0 10.0875 0C4.51914 0 0 4.51914 0 10.0875C0 15.6559 4.51914 20.175 10.0875 20.175ZM10.0875 18.1879C5.60839 18.1879 1.9871 14.5666 1.9871 10.0875C1.9871 5.60839 5.60839 1.9871 10.0875 1.9871C14.5666 1.9871 18.1897 5.60839 18.1897 10.0875C18.1897 14.5666 14.5666 18.1879 10.0875 18.1879Z" fill="white" fill-opacity="0.85"/>
  <path d="M12.2504 14.2354L12.2504 8.0746C12.2504 7.27499 11.7898 6.80644 11.0045 6.80644L9.18027 6.80644C8.39316 6.80644 7.93613 7.27499 7.93613 8.0746L7.93613 14.2354C7.93613 15.0447 8.39316 15.5133 9.18027 15.5133L11.0045 15.5133C11.7898 15.5133 12.2504 15.0447 12.2504 14.2354ZM5.93085 10.041L14.2281 10.041C14.6184 10.041 14.9297 9.74569 14.9297 9.33769C14.9297 9.07148 14.8205 8.87812 14.5428 8.5871L10.6953 4.44941C10.4982 4.24433 10.2809 4.16718 10.0875 4.16718C9.90742 4.16718 9.675 4.24609 9.48945 4.44941L5.60019 8.5871C5.358 8.84706 5.24531 9.07421 5.24531 9.35546C5.24531 9.74569 5.53261 10.041 5.93085 10.041Z" fill="white" fill-opacity="0.85"/>
 </g>
</svg>
