<?xml version="1.0" encoding="UTF-8"?>
<!--Generator: Apple Native CoreSVG 341-->
<!DOCTYPE svg
PUBLIC "-//W3C//DTD SVG 1.1//EN"
       "http://www.w3.org/Graphics/SVG/1.1/DTD/svg11.dtd">
<svg version="1.1" xmlns="http://www.w3.org/2000/svg" xmlns:xlink="http://www.w3.org/1999/xlink" viewBox="0 0 18.5894 18.2316">
 <g>
  <rect height="18.2316" opacity="0" width="18.5894" x="0" y="0"/>
  <path d="M18.2281 3.17148L18.2281 15.0646C18.2281 17.1502 17.1404 18.2281 15.0246 18.2281L3.20351 18.2281C1.0957 18.2281 0 17.1502 0 15.0646L0 3.17148C0 1.08769 1.0957 0 3.20351 0L15.0246 0C17.1404 0 18.2281 1.08769 18.2281 3.17148ZM3.89433 9.85585L3.89433 13.3857C3.89433 14.067 4.24374 14.3656 4.86796 14.3656L8.3916 14.3656C8.83163 14.3656 9.18202 14.0072 9.18202 13.5654C9.18202 13.1219 8.83163 12.775 8.3916 12.775L7.92245 12.775L6.48631 12.8885L8.65761 10.8387C9.00077 10.5158 8.99999 9.94375 8.66562 9.60586C8.32773 9.26172 7.76191 9.24844 7.43281 9.61386L5.37148 11.8012L5.48671 10.3285L5.48671 9.85585C5.48671 9.4123 5.12831 9.06543 4.68827 9.06543C4.24472 9.06543 3.89433 9.4123 3.89433 9.85585ZM9.88417 3.87578C9.44414 3.87578 9.08574 4.23417 9.08574 4.67773C9.08574 5.11952 9.44414 5.46815 9.88417 5.46815L10.3533 5.46815L11.7895 5.35292L9.61015 7.40273C9.26699 7.72734 9.26601 8.29765 9.60214 8.63554C9.94804 8.97968 10.5059 8.99472 10.843 8.62753L12.9043 6.44022L12.7891 7.91288L12.7891 8.3873C12.7891 8.82909 13.1395 9.17773 13.5795 9.17773C14.0213 9.17773 14.3797 8.82909 14.3797 8.3873L14.3797 4.85565C14.3797 4.17616 14.024 3.87578 13.398 3.87578Z" fill="white" fill-opacity="0.85"/>
 </g>
</svg>
