<?xml version="1.0" encoding="UTF-8"?>
<!--Generator: Apple Native CoreSVG 341-->
<!DOCTYPE svg
PUBLIC "-//W3C//DTD SVG 1.1//EN"
       "http://www.w3.org/Graphics/SVG/1.1/DTD/svg11.dtd">
<svg version="1.1" xmlns="http://www.w3.org/2000/svg" xmlns:xlink="http://www.w3.org/1999/xlink" viewBox="0 0 18.5894 18.2316">
 <g>
  <rect height="18.2316" opacity="0" width="18.5894" x="0" y="0"/>
  <path d="M3.20351 18.2281L15.0246 18.2281C17.1404 18.2281 18.2281 17.1502 18.2281 15.0646L18.2281 3.17148C18.2281 1.08769 17.1404 0 15.0246 0L3.20351 0C1.0957 0 0 1.08769 0 3.17148L0 15.0646C0 17.1502 1.0957 18.2281 3.20351 18.2281ZM3.31444 16.3148C2.40643 16.3148 1.91327 15.8465 1.91327 14.8977L1.91327 3.34023C1.91327 2.39139 2.40643 1.91503 3.31444 1.91503L14.9137 1.91503C15.8137 1.91503 16.3148 2.39139 16.3148 3.34023L16.3148 14.8977C16.3148 15.8465 15.8137 16.3148 14.9137 16.3148Z" fill="white" fill-opacity="0.85"/>
  <path d="M5.05546 9.98866L10.3705 9.98866L12.1953 9.90624C12.6307 9.87792 12.9969 9.54628 12.9969 9.10292C12.9969 8.65781 12.6307 8.32617 12.1953 8.29961L10.3705 8.21543L5.05546 8.20742C4.58554 8.20742 4.17949 8.61269 4.17949 9.10292C4.17949 9.58964 4.58554 9.98866 5.05546 9.98866ZM10.0857 13.215C10.3172 13.215 10.4893 13.1264 10.6578 12.9641L13.7201 9.77655C13.9453 9.5496 14.0242 9.33163 14.0242 9.10292C14.0242 8.86445 13.9453 8.65625 13.7201 8.4293L10.6578 5.24004C10.4893 5.07773 10.3172 4.99082 10.0857 4.99082C9.63438 4.99082 9.31953 5.34629 9.31953 5.78984C9.31953 6.00703 9.41172 6.22968 9.58379 6.38222L11.041 7.75234L12.3484 8.89727L12.3484 9.30858L11.041 10.4535L9.58379 11.8219C9.41172 11.9762 9.31953 12.2068 9.31953 12.424C9.31953 12.8658 9.63438 13.215 10.0857 13.215Z" fill="white" fill-opacity="0.85"/>
 </g>
</svg>
