<?xml version="1.0" encoding="UTF-8"?>
<!--Generator: Apple Native CoreSVG 341-->
<!DOCTYPE svg
PUBLIC "-//W3C//DTD SVG 1.1//EN"
       "http://www.w3.org/Graphics/SVG/1.1/DTD/svg11.dtd">
<svg version="1.1" xmlns="http://www.w3.org/2000/svg" xmlns:xlink="http://www.w3.org/1999/xlink" viewBox="0 0 18.5894 18.2316">
 <g>
  <rect height="18.2316" opacity="0" width="18.5894" x="0" y="0"/>
  <path d="M18.2281 3.17148L18.2281 15.0646C18.2281 17.1502 17.1404 18.2281 15.0246 18.2281L3.20351 18.2281C1.0957 18.2281 0 17.1502 0 15.0646L0 3.17148C0 1.08769 1.0957 0 3.20351 0L15.0246 0C17.1404 0 18.2281 1.08769 18.2281 3.17148ZM10.3014 4.11308L7.53613 6.82675C7.38261 6.97226 7.30898 7.16562 7.30898 7.38574C7.30898 7.80097 7.65937 8.15663 8.10214 8.15663C8.30624 8.15663 8.50409 8.07148 8.65585 7.91269L9.77441 6.71015L10.1854 6.14022L10.1527 7.21718L10.1527 10.2037C10.1527 11.6371 9.30839 12.7102 7.82167 12.7102C6.29667 12.7102 5.34374 11.6646 5.34374 10.1992L5.34374 8.7746C5.34374 8.29668 5.05819 7.92324 4.5623 7.92324C4.05312 7.92324 3.75429 8.29492 3.75429 8.79062L3.75429 10.1992C3.75429 12.5976 5.30136 14.3484 7.75585 14.3484C10.1918 14.3484 11.69 12.6039 11.69 10.2037L11.69 7.21718L11.6616 6.13675L12.232 6.89159L13.216 7.90468C13.3455 8.0537 13.5416 8.15136 13.7555 8.15136C14.2027 8.15136 14.5469 7.7957 14.5469 7.37421C14.5469 7.1541 14.475 6.96425 14.31 6.81875L11.567 4.11308C11.3957 3.94355 11.1738 3.83437 10.9342 3.83437C10.698 3.83437 10.4744 3.94179 10.3014 4.11308Z" fill="white" fill-opacity="0.85"/>
 </g>
</svg>
