<?xml version="1.0" encoding="UTF-8"?>
<!--Generator: Apple Native CoreSVG 341-->
<!DOCTYPE svg
PUBLIC "-//W3C//DTD SVG 1.1//EN"
       "http://www.w3.org/Graphics/SVG/1.1/DTD/svg11.dtd">
<svg version="1.1" xmlns="http://www.w3.org/2000/svg" xmlns:xlink="http://www.w3.org/1999/xlink" viewBox="0 0 23.1727 22.8812">
 <g>
  <rect height="22.8812" opacity="0" width="23.1727" x="0" y="0"/>
  <path d="M8.47054 5.16384L14.3391 5.16384C15.2502 5.16384 15.7782 4.25877 15.0889 3.5078L12.2143 0.381037C11.7461-0.146303 11.0414-0.11271 10.5838 0.397834L7.71722 3.51834C7.04828 4.25525 7.57445 5.16384 8.47054 5.16384ZM17.6455 8.4908L17.6455 14.3594C17.6455 15.2705 18.5489 15.7984 19.3078 15.1092L22.4283 12.2426C22.9397 11.7744 22.9364 11.0777 22.4276 10.6121L19.2991 7.73748C18.5541 7.06854 17.6455 7.59471 17.6455 8.4908ZM14.3373 17.6916L8.46878 17.6916C7.57269 17.6916 7.04652 18.6002 7.71546 19.3371L10.5901 22.4656C11.0557 22.9824 11.7604 22.9857 12.2205 22.4664L15.0871 19.3459C15.7764 18.5949 15.2485 17.6916 14.3373 17.6916ZM5.16585 14.3594L5.16585 8.4908C5.16585 7.59471 4.24925 7.06854 3.51234 7.73748L0.391832 10.6041C-0.110704 11.0617-0.144297 11.7584 0.375035 12.2345L3.50179 15.1092C4.25277 15.7984 5.16585 15.2705 5.16585 14.3594ZM11.4155 20.1668C11.9871 20.1668 12.4516 19.6926 12.4516 19.1209L12.4516 3.73279C12.4516 3.16287 11.9871 2.69666 11.4155 2.69666C10.8438 2.69666 10.3713 3.16287 10.3713 3.73279L10.3713 19.1209C10.3713 19.6926 10.8438 20.1668 11.4155 20.1668ZM2.68441 11.4277C2.68441 11.9994 3.15062 12.4638 3.72229 12.4638L19.1086 12.4638C19.6803 12.4638 20.1545 11.9994 20.1545 11.4277C20.1545 10.856 19.6803 10.3818 19.1086 10.3818L3.72229 10.3818C3.15062 10.3818 2.68441 10.856 2.68441 11.4277Z" fill="white" fill-opacity="0.85"/>
 </g>
</svg>
