<?xml version="1.0" encoding="UTF-8"?>
<!--Generator: Apple Native CoreSVG 341-->
<!DOCTYPE svg
PUBLIC "-//W3C//DTD SVG 1.1//EN"
       "http://www.w3.org/Graphics/SVG/1.1/DTD/svg11.dtd">
<svg version="1.1" xmlns="http://www.w3.org/2000/svg" xmlns:xlink="http://www.w3.org/1999/xlink" viewBox="0 0 18.5326 21.2437">
 <g>
  <rect height="21.2437" opacity="0" width="18.5326" x="0" y="0"/>
  <path d="M9.08164 0.00625014C8.72597 0.00625014 8.30918 0.152538 7.95058 0.532421L0.687498 8.26211C0.211132 8.77129 0 9.19355 0 9.71952C0 10.4715 0.560349 11.0256 1.30605 11.0256L4.82559 11.0256L4.82559 18.6494C4.82559 20.2873 5.76602 21.2437 7.37988 21.2437L10.7578 21.2437C12.3734 21.2437 13.3139 20.2873 13.3139 18.6494L13.3139 11.0256L16.8172 11.0256C17.5629 11.0256 18.1713 10.4715 18.1713 9.70351C18.1713 9.18456 17.9512 8.82363 17.4277 8.26211L10.2189 0.530663C9.86034 0.142773 9.45234 0.00625014 9.08164 0.00625014ZM9.08164 2.13748C9.14023 2.13748 9.19531 2.16502 9.26367 2.24139L15.6682 8.93789C15.7152 8.98671 15.7428 9.04355 15.7428 9.10039C15.7428 9.19003 15.6887 9.24589 15.5955 9.24589L11.8838 9.24589C11.6609 9.24589 11.565 9.3498 11.565 9.57265L11.565 18.5508C11.565 19.1547 11.2398 19.4949 10.6227 19.4949L7.52656 19.4949C6.90937 19.4949 6.5744 19.1547 6.5744 18.5508L6.5744 9.57265C6.5744 9.3498 6.47851 9.24589 6.25565 9.24589L2.63983 9.24589C2.54666 9.24589 2.4828 9.19003 2.4828 9.10839C2.4828 9.05156 2.51209 8.99472 2.56893 8.93789L8.8996 2.24139C8.97597 2.16502 9.0248 2.13748 9.08164 2.13748Z" fill="white" fill-opacity="0.85"/>
 </g>
</svg>
