<?xml version="1.0" encoding="UTF-8"?>
<!--Generator: Apple Native CoreSVG 341-->
<!DOCTYPE svg
PUBLIC "-//W3C//DTD SVG 1.1//EN"
       "http://www.w3.org/Graphics/SVG/1.1/DTD/svg11.dtd">
<svg version="1.1" xmlns="http://www.w3.org/2000/svg" xmlns:xlink="http://www.w3.org/1999/xlink" viewBox="0 0 18.5894 18.2316">
 <g>
  <rect height="18.2316" opacity="0" width="18.5894" x="0" y="0"/>
  <path d="M3.20351 18.2281L15.0246 18.2281C17.1404 18.2281 18.2281 17.1502 18.2281 15.0646L18.2281 3.17148C18.2281 1.08769 17.1404 0 15.0246 0L3.20351 0C1.0957 0 0 1.08769 0 3.17148L0 15.0646C0 17.1502 1.0957 18.2281 3.20351 18.2281ZM3.31444 16.3148C2.40643 16.3148 1.91327 15.8465 1.91327 14.8977L1.91327 3.34023C1.91327 2.39139 2.40643 1.91503 3.31444 1.91503L14.9137 1.91503C15.8137 1.91503 16.3148 2.39139 16.3148 3.34023L16.3148 14.8977C16.3148 15.8465 15.8137 16.3148 14.9137 16.3148Z" fill="white" fill-opacity="0.85"/>
  <path d="M9.11894 13.9213C11.5135 13.9213 13.4498 11.9769 13.4498 9.55488C13.4498 7.21933 11.5685 5.29765 9.29394 5.29765C8.95097 5.29765 8.60175 5.30566 8.22675 5.32968C7.8205 5.33769 7.51191 5.65429 7.51191 6.05253C7.51191 6.45253 7.83652 6.77538 8.25077 6.76737C8.51991 6.75136 8.81933 6.74335 9.13828 6.74335C10.7424 6.74335 11.9854 7.98632 11.9854 9.58066C11.9854 11.1742 10.716 12.4471 9.11894 12.4471C7.53339 12.4471 6.26054 11.1697 6.26054 9.58066C6.26054 9.18242 5.92968 8.85332 5.52343 8.85332C5.12519 8.85332 4.79609 9.18242 4.79609 9.58066C4.79609 11.9769 6.72441 13.9213 9.11894 13.9213ZM6.76211 6.13437C6.76211 6.31444 6.82773 6.49276 6.95371 6.61601L8.77441 8.4578C8.89238 8.58105 9.07422 8.67323 9.25683 8.67323C9.65585 8.67323 9.93007 8.36991 9.93007 8.01581C9.93007 7.81718 9.86093 7.66093 9.72519 7.52617L8.34179 6.13437L9.72519 4.74257C9.86093 4.6078 9.93007 4.45331 9.93007 4.25468C9.93007 3.90058 9.65585 3.59726 9.25683 3.59726C9.07422 3.59726 8.88437 3.69745 8.77441 3.81269L6.95371 5.65449C6.82773 5.77773 6.76211 5.95429 6.76211 6.13437Z" fill="white" fill-opacity="0.85"/>
 </g>
</svg>
