<?xml version="1.0" encoding="UTF-8"?>
<!--Generator: Apple Native CoreSVG 341-->
<!DOCTYPE svg
PUBLIC "-//W3C//DTD SVG 1.1//EN"
       "http://www.w3.org/Graphics/SVG/1.1/DTD/svg11.dtd">
<svg version="1.1" xmlns="http://www.w3.org/2000/svg" xmlns:xlink="http://www.w3.org/1999/xlink" viewBox="0 0 23.4906 18.2316">
 <g>
  <rect height="18.2316" opacity="0" width="23.4906" x="0" y="0"/>
  <path d="M3.20351 18.2316L19.9258 18.2316C22.0416 18.2316 23.1293 17.1519 23.1293 15.0682L23.1293 3.17499C23.1293 1.08945 22.0416 0.00351548 19.9258 0.00351548L3.20351 0.00351548C1.0957 0.00351548 0 1.08945 0 3.17499L0 15.0682C0 17.1519 1.0957 18.2316 3.20351 18.2316ZM3.31444 16.3184C2.40643 16.3184 1.91327 15.8482 1.91327 14.8994L1.91327 3.34198C1.91327 2.39315 2.40643 1.91678 3.31444 1.91678L19.8148 1.91678C20.7149 1.91678 21.216 2.39315 21.216 3.34198L21.216 14.8994C21.216 15.8482 20.7149 16.3184 19.8148 16.3184Z" fill="white" fill-opacity="0.85"/>
  <path d="M6.15507 8.67089C6.57753 8.67089 6.87831 8.35409 6.87831 7.91386L6.87831 6.81659L6.6455 4.53026L8.85722 4.7576L10.0416 4.7576C10.4898 4.7576 10.7986 4.46483 10.7986 4.04061C10.7986 3.61639 10.4898 3.31561 10.0576 3.31561L6.30273 3.31561C5.77421 3.31561 5.43808 3.59393 5.43808 4.1785L5.43808 7.89784C5.43808 8.33808 5.73085 8.67089 6.15507 8.67089ZM10.3459 8.95624C10.7824 8.95624 11.0955 8.64316 11.0955 8.20214C11.0955 8.00253 10.9943 7.79941 10.848 7.65312L8.95136 5.75018L7.53866 4.49588C6.7746 3.82909 5.93183 4.65917 6.60956 5.4076L7.87617 6.82538L9.76406 8.71327C9.92363 8.87284 10.1125 8.95624 10.3459 8.95624ZM16.9742 9.57051C16.5518 9.57051 16.259 9.8793 16.259 10.3195L16.259 11.4248L16.4838 13.7111L14.2721 13.4758L13.0957 13.4758C12.6475 13.4758 12.3307 13.7766 12.3307 14.2008C12.3307 14.625 12.6475 14.9178 13.0797 14.9178L16.8266 14.9178C17.3551 14.9178 17.6992 14.6475 17.6992 14.0629L17.6992 10.3373C17.6992 9.89707 17.3984 9.57051 16.9742 9.57051ZM12.7834 9.28516C12.3549 9.28516 12.0338 9.59023 12.0338 10.041C12.0338 10.2389 12.135 10.442 12.2812 10.59L14.1779 12.4912L15.5986 13.7455C16.3547 14.4061 17.1975 13.5822 16.5277 12.8338L15.2531 11.408L13.3732 9.52812C13.2057 9.36855 13.0168 9.28516 12.7834 9.28516Z" fill="white" fill-opacity="0.85"/>
 </g>
</svg>
