<?xml version="1.0" encoding="UTF-8"?>
<!--Generator: Apple Native CoreSVG 341-->
<!DOCTYPE svg
PUBLIC "-//W3C//DTD SVG 1.1//EN"
       "http://www.w3.org/Graphics/SVG/1.1/DTD/svg11.dtd">
<svg version="1.1" xmlns="http://www.w3.org/2000/svg" xmlns:xlink="http://www.w3.org/1999/xlink" viewBox="0 0 18.5894 18.2316">
 <g>
  <rect height="18.2316" opacity="0" width="18.5894" x="0" y="0"/>
  <path d="M18.2281 3.17148L18.2281 15.0646C18.2281 17.1502 17.1404 18.2281 15.0246 18.2281L3.20351 18.2281C1.0957 18.2281 0 17.1502 0 15.0646L0 3.17148C0 1.08769 1.0957 0 3.20351 0L15.0246 0C17.1404 0 18.2281 1.08769 18.2281 3.17148ZM8.42324 4.24199L5.07578 7.475C4.89219 7.64433 4.8 7.83144 4.8 8.08945C4.8 8.55839 5.1748 8.90331 5.64219 8.90331C5.87793 8.90331 6.12539 8.80761 6.28671 8.6205L7.71797 7.09862L8.25642 6.47943L8.19609 7.9451L8.19609 13.3639C8.19609 13.8744 8.6207 14.298 9.14804 14.298C9.67714 14.298 10.108 13.8744 10.108 13.3639L10.108 7.9451L10.0424 6.4826L10.5781 7.09862L12.0094 8.6205C12.1707 8.80761 12.4101 8.90331 12.6459 8.90331C13.1133 8.90331 13.4961 8.55839 13.4961 8.08945C13.4961 7.83144 13.4039 7.64433 13.2283 7.475L9.87284 4.24199C9.62558 3.99824 9.40507 3.92383 9.14804 3.92383C8.89726 3.92383 8.67051 3.99824 8.42324 4.24199Z" fill="white" fill-opacity="0.85"/>
 </g>
</svg>
