<?xml version="1.0" encoding="UTF-8"?>
<!--Generator: Apple Native CoreSVG 341-->
<!DOCTYPE svg
PUBLIC "-//W3C//DTD SVG 1.1//EN"
       "http://www.w3.org/Graphics/SVG/1.1/DTD/svg11.dtd">
<svg version="1.1" xmlns="http://www.w3.org/2000/svg" xmlns:xlink="http://www.w3.org/1999/xlink" viewBox="0 0 23.4906 22.3609">
 <g>
  <rect height="22.3609" opacity="0" width="23.4906" x="0" y="0"/>
  <path d="M5.84237 0.724787L5.84237 5.33455C5.84237 6.05427 6.38417 6.23982 6.93006 5.85017L10.0892 3.58182C10.5199 3.27107 10.5279 2.78475 10.0892 2.47576L6.93807 0.205647C6.38417-0.193766 5.84237-0.00646175 5.84237 0.724787ZM6.02968 3.98943C6.55428 3.98943 6.98318 3.55251 6.98318 3.02791C6.98318 2.5033 6.55428 2.07616 6.02968 2.07616L3.20351 2.07616C1.0957 2.07616 0 3.15409 0 5.24764L0 17.1328C0 19.2246 1.0957 20.3043 3.20351 20.3043L19.9258 20.3043C22.0416 20.3043 23.1293 19.2166 23.1293 17.1328L23.1293 5.24764C23.1293 3.16209 22.0416 2.07616 19.9258 2.07616L13.524 2.07616C12.9994 2.07616 12.5625 2.5033 12.5625 3.02791C12.5625 3.55251 12.9994 3.98943 13.524 3.98943L19.8148 3.98943C20.7149 3.98943 21.216 4.45779 21.216 5.40662L21.216 16.9721C21.216 17.9209 20.7149 18.391 19.8148 18.391L3.31444 18.391C2.40643 18.391 1.91327 17.9209 1.91327 16.9721L1.91327 5.40662C1.91327 4.45779 2.40643 3.98943 3.31444 3.98943Z" fill="white" fill-opacity="0.85"/>
 </g>
</svg>
