<?xml version="1.0" encoding="UTF-8"?>
<!--Generator: Apple Native CoreSVG 341-->
<!DOCTYPE svg
PUBLIC "-//W3C//DTD SVG 1.1//EN"
       "http://www.w3.org/Graphics/SVG/1.1/DTD/svg11.dtd">
<svg version="1.1" xmlns="http://www.w3.org/2000/svg" xmlns:xlink="http://www.w3.org/1999/xlink" viewBox="0 0 23.4906 18.2316">
 <g>
  <rect height="18.2316" opacity="0" width="23.4906" x="0" y="0"/>
  <path d="M23.1293 3.17499L23.1293 15.0682C23.1293 17.1519 22.0416 18.2316 19.9258 18.2316L3.20351 18.2316C1.0957 18.2316 0 17.1519 0 15.0682L0 3.17499C0 1.08945 1.0957 0.00351548 3.20351 0.00351548L19.9258 0.00351548C22.0416 0.00351548 23.1293 1.08945 23.1293 3.17499ZM13.7205 7.86367C13.0918 7.86367 12.7463 8.20918 12.7463 8.83964L12.7463 13.3518C12.7543 13.8469 13.0604 14.176 13.5332 14.176C14.0158 14.176 14.3352 13.8371 14.3432 13.326L14.3432 11.6666L14.2117 10.4348L15.5365 11.8519L18.4152 14.7289C18.5916 14.9053 18.8 15.0002 19.0733 15.0002C19.5602 15.0002 19.9059 14.6686 19.9059 14.1533C19.9059 13.9352 19.7994 13.7037 19.6336 13.5441L16.7381 10.6504L15.3328 9.33626L16.4674 9.46054L18.2051 9.46054C18.718 9.45254 19.0488 9.1332 19.0488 8.66035C19.0488 8.18301 18.726 7.87168 18.2309 7.86367Z" fill="white" fill-opacity="0.85"/>
 </g>
</svg>
