<?xml version="1.0" encoding="UTF-8"?>
<!--Generator: Apple Native CoreSVG 341-->
<!DOCTYPE svg
PUBLIC "-//W3C//DTD SVG 1.1//EN"
       "http://www.w3.org/Graphics/SVG/1.1/DTD/svg11.dtd">
<svg version="1.1" xmlns="http://www.w3.org/2000/svg" xmlns:xlink="http://www.w3.org/1999/xlink" viewBox="0 0 20.5381 20.1848">
 <g>
  <rect height="20.1848" opacity="0" width="20.5381" x="0" y="0"/>
  <path d="M10.0875 20.175C15.6576 20.175 20.1767 15.6559 20.1767 10.0875C20.1767 4.51914 15.6576 0 10.0875 0C4.51914 0 0 4.51914 0 10.0875C0 15.6559 4.51914 20.175 10.0875 20.175ZM10.0875 18.1879C5.60839 18.1879 1.9871 14.5666 1.9871 10.0875C1.9871 5.60839 5.60839 1.9871 10.0875 1.9871C14.5666 1.9871 18.1897 5.60839 18.1897 10.0875C18.1897 14.5666 14.5666 18.1879 10.0875 18.1879Z" fill="white" fill-opacity="0.85"/>
  <path d="M11.7461 12.8195C12.5875 13.5752 13.5518 12.5852 12.8055 11.7619L11.1574 9.95625L7.74471 6.54531C7.55956 6.37168 7.35038 6.275 7.08613 6.275C6.59316 6.275 6.22988 6.61093 6.22988 7.12421C6.22988 7.35468 6.3416 7.58515 6.50468 7.74999L9.93418 11.1697ZM12.3311 9.98066L12.6396 12.6838L10.0475 12.3416L8.39668 12.3416C7.86465 12.3416 7.51973 12.6627 7.51973 13.1486C7.51973 13.6328 7.8584 13.9476 8.38593 13.9476L12.9498 13.9476C13.5568 13.9476 13.9371 13.6475 13.9371 12.9719L13.9371 8.43203C13.9371 7.90801 13.616 7.54883 13.1301 7.54883C12.6459 7.54883 12.3311 7.88574 12.3311 8.42128Z" fill="white" fill-opacity="0.85"/>
 </g>
</svg>
