<?xml version="1.0" encoding="UTF-8"?>
<!--Generator: Apple Native CoreSVG 341-->
<!DOCTYPE svg
PUBLIC "-//W3C//DTD SVG 1.1//EN"
       "http://www.w3.org/Graphics/SVG/1.1/DTD/svg11.dtd">
<svg version="1.1" xmlns="http://www.w3.org/2000/svg" xmlns:xlink="http://www.w3.org/1999/xlink" viewBox="0 0 23.4906 18.2316">
 <g>
  <rect height="18.2316" opacity="0" width="23.4906" x="0" y="0"/>
  <path d="M3.20351 18.2316L19.9258 18.2316C22.0416 18.2316 23.1293 17.1519 23.1293 15.0682L23.1293 3.17499C23.1293 1.08945 22.0416 0.00351548 19.9258 0.00351548L3.20351 0.00351548C1.0957 0.00351548 0 1.08945 0 3.17499L0 15.0682C0 17.1519 1.0957 18.2316 3.20351 18.2316ZM3.31444 16.3184C2.40643 16.3184 1.91327 15.8482 1.91327 14.8994L1.91327 3.34198C1.91327 2.39315 2.40643 1.91678 3.31444 1.91678L19.8148 1.91678C20.7149 1.91678 21.216 2.39315 21.216 3.34198L21.216 14.8994C21.216 15.8482 20.7149 16.3184 19.8148 16.3184Z" fill="white" fill-opacity="0.85"/>
  <path d="M16.9742 8.67089C17.3984 8.67089 17.6992 8.33808 17.6992 7.89784L17.6992 4.1785C17.6992 3.59393 17.3551 3.31561 16.8266 3.31561L13.0797 3.31561C12.6475 3.31561 12.3307 3.61639 12.3307 4.04061C12.3307 4.46483 12.6475 4.7576 13.0957 4.7576L14.2721 4.7576L16.4838 4.53026L16.259 6.81659L16.259 7.91386C16.259 8.35409 16.5518 8.67089 16.9742 8.67089ZM12.7834 8.95624C13.0168 8.95624 13.2057 8.87284 13.3732 8.71327L15.2531 6.82538L16.5277 5.4076C17.1975 4.65917 16.3547 3.82909 15.5986 4.49588L14.1779 5.75018L12.2812 7.65312C12.135 7.79941 12.0338 8.00253 12.0338 8.20214C12.0338 8.64316 12.3549 8.95624 12.7834 8.95624ZM6.15507 9.57051C5.73085 9.57051 5.43808 9.89707 5.43808 10.3373L5.43808 14.0629C5.43808 14.6475 5.77421 14.9178 6.30273 14.9178L10.0576 14.9178C10.4898 14.9178 10.7986 14.625 10.7986 14.2008C10.7986 13.7766 10.4898 13.4758 10.0416 13.4758L8.85722 13.4758L6.6455 13.7111L6.87831 11.4248L6.87831 10.3195C6.87831 9.8793 6.57753 9.57051 6.15507 9.57051ZM10.3459 9.28516C10.1125 9.28516 9.92363 9.36855 9.76406 9.52812L7.87617 11.408L6.60956 12.8338C5.93183 13.5822 6.7746 14.4061 7.53866 13.7455L8.95136 12.4912L10.848 10.59C10.9943 10.442 11.0955 10.2389 11.0955 10.041C11.0955 9.59023 10.7824 9.28516 10.3459 9.28516Z" fill="white" fill-opacity="0.85"/>
 </g>
</svg>
