<?xml version="1.0" encoding="UTF-8"?>
<!--Generator: Apple Native CoreSVG 341-->
<!DOCTYPE svg
PUBLIC "-//W3C//DTD SVG 1.1//EN"
       "http://www.w3.org/Graphics/SVG/1.1/DTD/svg11.dtd">
<svg version="1.1" xmlns="http://www.w3.org/2000/svg" xmlns:xlink="http://www.w3.org/1999/xlink" viewBox="0 0 18.5894 18.2316">
 <g>
  <rect height="18.2316" opacity="0" width="18.5894" x="0" y="0"/>
  <path d="M3.20351 18.2281L15.0246 18.2281C17.1404 18.2281 18.2281 17.1502 18.2281 15.0646L18.2281 3.17148C18.2281 1.08769 17.1404 0 15.0246 0L3.20351 0C1.0957 0 0 1.08769 0 3.17148L0 15.0646C0 17.1502 1.0957 18.2281 3.20351 18.2281ZM3.31444 16.3148C2.40643 16.3148 1.91327 15.8465 1.91327 14.8977L1.91327 3.34023C1.91327 2.39139 2.40643 1.91503 3.31444 1.91503L14.9137 1.91503C15.8137 1.91503 16.3148 2.39139 16.3148 3.34023L16.3148 14.8977C16.3148 15.8465 15.8137 16.3148 14.9137 16.3148Z" fill="white" fill-opacity="0.85"/>
  <path d="M10.4353 3.72773C10.1674 3.46152 9.76367 3.45351 9.49746 3.72773L5.13983 8.07734L4.39511 8.85586C4.15644 9.10254 4.14843 9.50976 4.39511 9.7582C4.64355 10.0084 5.05077 9.99863 5.29921 9.7582L6.07597 9.02949L10.4434 4.66386C10.7096 4.39765 10.7033 3.9957 10.4353 3.72773ZM8.10448 10.3963C8.3707 10.1301 8.38046 9.74765 8.11073 9.47168C7.98827 9.33945 7.82675 9.27558 7.64218 9.27734L6.06855 9.30214L4.76132 9.37773L4.86894 8.10702L4.89374 6.52714C4.90351 6.35859 4.83163 6.19081 4.6994 6.0666C4.42968 5.79062 4.04902 5.79062 3.7748 6.06484C3.65058 6.18105 3.58847 6.37363 3.58671 6.54492L3.53788 9.93398C3.52988 10.3182 3.85292 10.6394 4.23359 10.6314L7.63242 10.5986C7.80546 10.5986 7.98827 10.5107 8.10448 10.3963ZM7.78476 14.4994C8.05273 14.7754 8.46445 14.7736 8.72265 14.5074L13.0883 10.1498L13.825 9.37304C14.0637 9.10859 14.0717 8.70136 13.825 8.45292C13.5846 8.20449 13.1773 8.21249 12.9209 8.45292L12.1361 9.20742L7.78476 13.5633C7.51855 13.8375 7.51855 14.2332 7.78476 14.4994ZM14.4613 12.1721C14.5695 12.0621 14.6637 11.8793 14.6637 11.6965L14.7062 8.29941C14.7062 7.92675 14.377 7.60195 14.0008 7.60195L10.6197 7.64453C10.4387 7.64453 10.2478 7.72441 10.1316 7.83886C9.85742 8.10507 9.85742 8.4955 10.1334 8.77324C10.2576 8.88769 10.4254 8.96757 10.6002 8.95956L12.1658 8.933L13.449 8.82538L13.3752 10.1344L13.3406 11.708C13.3406 11.8828 13.4062 12.0461 13.5287 12.1783C13.8064 12.4463 14.1871 12.4463 14.4613 12.1721Z" fill="white" fill-opacity="0.85"/>
 </g>
</svg>
