<?xml version="1.0" encoding="UTF-8"?>
<!--Generator: Apple Native CoreSVG 341-->
<!DOCTYPE svg
PUBLIC "-//W3C//DTD SVG 1.1//EN"
       "http://www.w3.org/Graphics/SVG/1.1/DTD/svg11.dtd">
<svg version="1.1" xmlns="http://www.w3.org/2000/svg" xmlns:xlink="http://www.w3.org/1999/xlink" viewBox="0 0 20.5381 20.1848">
 <g>
  <rect height="20.1848" opacity="0" width="20.5381" x="0" y="0"/>
  <path d="M20.1767 10.0875C20.1767 15.6478 15.6576 20.175 10.0875 20.175C4.52715 20.175 0 15.6478 0 10.0875C0 4.51914 4.52715 0 10.0875 0C15.6576 0 20.1767 4.51914 20.1767 10.0875ZM11.6459 8.55996C11.4533 8.55996 11.2625 8.64785 11.1348 8.76406C10.8455 9.04355 10.8455 9.44902 11.1365 9.73827C11.2723 9.86425 11.4418 9.94413 11.6264 9.93613L13.2557 9.90956L13.5262 9.88598L13.2084 10.1937L8.70195 14.7082C8.41621 14.9957 8.42422 15.4047 8.70195 15.6842C8.9832 15.9734 9.40019 15.9717 9.67792 15.6922L14.2102 11.1777L14.5118 10.8563L14.4926 11.1465L14.458 12.7838C14.458 12.9684 14.5334 13.1352 14.6674 13.2771C14.9549 13.5584 15.3506 13.5584 15.6363 13.2709C15.756 13.1609 15.8519 12.9631 15.8519 12.7723L15.8865 9.24941C15.8945 8.85546 15.5537 8.51386 15.1607 8.51386ZM10.4793 4.49609L5.95507 9.00254L5.6559 9.31482L5.68066 9.04979L5.70546 7.40449C5.71698 7.22617 5.64335 7.05488 5.4996 6.91914C5.21835 6.63164 4.82441 6.63164 4.53691 6.91738C4.40292 7.0371 4.33906 7.24121 4.3373 7.42402L4.28671 10.9371C4.27871 11.3443 4.61503 11.6807 5.01249 11.6726L8.54335 11.6363C8.72792 11.6363 8.91249 11.5404 9.03046 11.4242C9.31972 11.1465 9.32773 10.749 9.03671 10.458C8.91249 10.316 8.74921 10.2521 8.55488 10.2539L6.91582 10.2787L6.62183 10.2951L6.94081 9.99628L11.4633 5.47206C11.7428 5.19433 11.7365 4.77734 11.4553 4.49609C11.1758 4.2166 10.757 4.20859 10.4793 4.49609Z" fill="white" fill-opacity="0.85"/>
 </g>
</svg>
