<?xml version="1.0" encoding="UTF-8"?>
<!--Generator: Apple Native CoreSVG 341-->
<!DOCTYPE svg
PUBLIC "-//W3C//DTD SVG 1.1//EN"
       "http://www.w3.org/Graphics/SVG/1.1/DTD/svg11.dtd">
<svg version="1.1" xmlns="http://www.w3.org/2000/svg" xmlns:xlink="http://www.w3.org/1999/xlink" viewBox="0 0 18.5894 18.2316">
 <g>
  <rect height="18.2316" opacity="0" width="18.5894" x="0" y="0"/>
  <path d="M18.2281 3.17148L18.2281 15.0646C18.2281 17.1502 17.1404 18.2281 15.0246 18.2281L3.20351 18.2281C1.0957 18.2281 0 17.1502 0 15.0646L0 3.17148C0 1.08769 1.0957 0 3.20351 0L15.0246 0C17.1404 0 18.2281 1.08769 18.2281 3.17148ZM12.7742 5.39569L12.7742 12.8182C12.7742 13.251 13.0979 13.5666 13.5209 13.5666C13.9697 13.5666 14.2934 13.251 14.2934 12.8182L14.2934 5.39569C14.2934 4.96288 13.9697 4.64726 13.5209 4.64726C13.0979 4.64726 12.7742 4.96288 12.7742 5.39569ZM7.12618 5.67206C7.12618 5.89101 7.2041 6.0871 7.36641 6.23163L7.99668 6.85565L9.81896 8.46289L8.08751 8.35371L3.88417 8.35371C3.42851 8.35371 3.10488 8.67031 3.10488 9.11894C3.10488 9.58359 3.42851 9.89394 3.88417 9.89394L8.08751 9.89394L9.82696 9.77499L8.00469 11.3822L7.36641 11.9805C7.20586 12.1187 7.12618 12.3006 7.12618 12.5373C7.12618 12.9701 7.44453 13.2725 7.88965 13.2725C8.06875 13.2725 8.30117 13.181 8.45371 13.0232L11.8168 9.69179C11.9801 9.53476 12.0705 9.33437 12.0705 9.11894C12.0705 8.8955 11.9641 8.70312 11.8168 8.53808L8.4457 5.18437C8.2834 5.01054 8.08476 4.9414 7.88965 4.9414C7.46055 4.9414 7.12618 5.24374 7.12618 5.67206Z" fill="white" fill-opacity="0.85"/>
 </g>
</svg>
