<?xml version="1.0" encoding="UTF-8"?>
<!--Generator: Apple Native CoreSVG 341-->
<!DOCTYPE svg
PUBLIC "-//W3C//DTD SVG 1.1//EN"
       "http://www.w3.org/Graphics/SVG/1.1/DTD/svg11.dtd">
<svg version="1.1" xmlns="http://www.w3.org/2000/svg" xmlns:xlink="http://www.w3.org/1999/xlink" viewBox="0 0 20.3034 19.7771">
 <g>
  <rect height="19.7771" opacity="0" width="20.3034" x="0" y="0"/>
  <path d="M3.18141 16.9817C3.70446 16.9817 4.14156 16.5366 4.14156 16.0233L4.14957 5.53366C4.14957 3.90221 5.17516 2.84186 6.56578 2.84186C7.96618 2.84186 9.01579 3.87643 9.01579 5.53366L9.01579 14.1868C9.01579 17.0661 10.8535 18.9657 13.3826 18.9657C15.9441 18.9657 17.7271 17.0766 17.7271 14.1868L17.7271 3.72175C17.7271 3.19069 17.29 2.76335 16.7589 2.76335C16.2377 2.76335 15.8005 3.19069 15.8005 3.72175L15.8005 14.342C15.8005 15.9815 14.7732 17.0338 13.3826 17.0338C11.9839 17.0338 10.9343 15.9975 10.9343 14.342L10.9343 5.68093C10.9343 2.80163 9.09664 0.910034 6.56578 0.910034C4.00602 0.910034 2.22302 2.79909 2.22302 5.68093L2.21501 16.0233C2.21501 16.5366 2.65212 16.9817 3.18141 16.9817ZM0.745483 14.977C-0.0103745 14.977-0.205491 15.5329 0.224585 16.1395L2.55622 19.4102C2.91188 19.9016 3.4527 19.8971 3.80211 19.4102L6.13023 16.1315C6.55406 15.5294 6.35367 14.977 5.61109 14.977ZM14.339 4.80807L19.1966 4.80807C19.9392 4.80807 20.1476 4.26374 19.7175 3.66159L17.3957 0.382886C17.0462-0.112034 16.5054-0.116526 16.1498 0.382886L13.8181 3.65358C13.38 4.26198 13.5832 4.80807 14.339 4.80807Z" fill="white" fill-opacity="0.85"/>
 </g>
</svg>
