<?xml version="1.0" encoding="UTF-8"?>
<!--Generator: Apple Native CoreSVG 341-->
<!DOCTYPE svg
PUBLIC "-//W3C//DTD SVG 1.1//EN"
       "http://www.w3.org/Graphics/SVG/1.1/DTD/svg11.dtd">
<svg version="1.1" xmlns="http://www.w3.org/2000/svg" xmlns:xlink="http://www.w3.org/1999/xlink" viewBox="0 0 16.2188 21.3844">
 <g>
  <rect height="21.3844" opacity="0" width="16.2188" x="0" y="0"/>
  <path d="M7.93275 21.3551C11.6339 21.3551 14.1003 18.8904 14.1003 15.1697L14.1003 13.4681C14.1003 12.9408 13.6847 12.5252 13.1574 12.5252C12.6318 12.5252 12.2081 12.9408 12.2081 13.4681L12.2081 15.1697C12.2081 17.7478 10.4913 19.4629 7.93275 19.4629C5.35638 19.4629 3.64134 17.7478 3.64134 15.1697L3.64134 6.17558C3.64134 3.61698 5.35638 1.89393 7.93275 1.89393C10.4913 1.89393 12.2081 3.61698 12.2081 6.17558L12.2081 7.42089C12.2081 7.94022 12.6398 8.36385 13.1574 8.36385C13.6767 8.36385 14.1003 7.94022 14.1003 7.42089L14.1003 6.17558C14.1003 2.4664 11.6339 0 7.93275 0C4.21381 0 1.74916 2.4664 1.74916 6.17558L1.74916 15.1697C1.74916 18.8904 4.21381 21.3551 7.93275 21.3551ZM15.496 6.27441L10.8703 6.27441C10.1585 6.27441 9.96947 6.81796 10.3546 7.3621L12.6212 10.523C12.9337 10.9519 13.4201 10.9599 13.737 10.523L16.0152 7.37186C16.4101 6.81796 16.2273 6.27441 15.496 6.27441Z" fill="white" fill-opacity="0.85"/>
 </g>
</svg>
