<?xml version="1.0" encoding="UTF-8"?>
<!--Generator: Apple Native CoreSVG 341-->
<!DOCTYPE svg
PUBLIC "-//W3C//DTD SVG 1.1//EN"
       "http://www.w3.org/Graphics/SVG/1.1/DTD/svg11.dtd">
<svg version="1.1" xmlns="http://www.w3.org/2000/svg" xmlns:xlink="http://www.w3.org/1999/xlink" viewBox="0 0 18.5894 18.2316">
 <g>
  <rect height="18.2316" opacity="0" width="18.5894" x="0" y="0"/>
  <path d="M18.2281 3.17148L18.2281 15.0646C18.2281 17.1502 17.1404 18.2281 15.0246 18.2281L3.20351 18.2281C1.0957 18.2281 0 17.1502 0 15.0646L0 3.17148C0 1.08769 1.0957 0 3.20351 0L15.0246 0C17.1404 0 18.2281 1.08769 18.2281 3.17148ZM12.7891 9.85585L12.7891 10.3285L12.9043 11.8012L10.843 9.61386C10.5059 9.24844 9.94804 9.26172 9.60214 9.60586C9.26601 9.94375 9.26699 10.5158 9.61015 10.8387L11.7895 12.8885L10.3533 12.775L9.88417 12.775C9.44414 12.775 9.08574 13.1219 9.08574 13.5654C9.08574 14.0072 9.44414 14.3656 9.88417 14.3656L13.398 14.3656C14.024 14.3656 14.3797 14.067 14.3797 13.3857L14.3797 9.85585C14.3797 9.4123 14.0213 9.06543 13.5795 9.06543C13.1395 9.06543 12.7891 9.4123 12.7891 9.85585ZM4.86796 3.87578C4.24374 3.87578 3.89433 4.17616 3.89433 4.85565L3.89433 8.3873C3.89433 8.82909 4.24472 9.17773 4.68827 9.17773C5.12831 9.17773 5.48671 8.82909 5.48671 8.3873L5.48671 7.91288L5.37148 6.44022L7.43281 8.62753C7.76191 8.99472 8.32773 8.97968 8.66562 8.63554C8.99999 8.29765 9.00077 7.72734 8.65761 7.40273L6.48631 5.35292L7.92245 5.46815L8.3916 5.46815C8.83163 5.46815 9.18202 5.11952 9.18202 4.67773C9.18202 4.23417 8.83163 3.87578 8.3916 3.87578Z" fill="white" fill-opacity="0.85"/>
 </g>
</svg>
