<?xml version="1.0" encoding="UTF-8"?>
<!--Generator: Apple Native CoreSVG 341-->
<!DOCTYPE svg
PUBLIC "-//W3C//DTD SVG 1.1//EN"
       "http://www.w3.org/Graphics/SVG/1.1/DTD/svg11.dtd">
<svg version="1.1" xmlns="http://www.w3.org/2000/svg" xmlns:xlink="http://www.w3.org/1999/xlink" viewBox="0 0 18.5894 18.2316">
 <g>
  <rect height="18.2316" opacity="0" width="18.5894" x="0" y="0"/>
  <path d="M18.2281 3.17148L18.2281 15.0646C18.2281 17.1502 17.1404 18.2281 15.0246 18.2281L3.20351 18.2281C1.0957 18.2281 0 17.1502 0 15.0646L0 3.17148C0 1.08769 1.0957 0 3.20351 0L15.0246 0C17.1404 0 18.2281 1.08769 18.2281 3.17148ZM6.16249 5.10469C5.52539 5.10469 5.13633 5.42168 5.13633 6.11933L5.13633 10.8391C5.13633 11.3834 5.46445 11.7674 5.96542 11.7674C6.47792 11.7674 6.80605 11.4057 6.80605 10.8516L6.80605 9.24608L6.63479 7.74091L8.03203 9.27225L11.5537 12.8002C11.7504 12.9871 11.9728 13.0855 12.2521 13.0855C12.7637 13.0855 13.142 12.7328 13.142 12.1912C13.142 11.9572 13.0303 11.7117 12.8539 11.5354L9.30741 7.99687L7.75892 6.58604L9.19413 6.77616L10.8892 6.77616C11.4496 6.77616 11.8096 6.4498 11.8096 5.9373C11.8096 5.43281 11.4558 5.10469 10.8982 5.10469Z" fill="white" fill-opacity="0.85"/>
 </g>
</svg>
