<?xml version="1.0" encoding="UTF-8"?>
<!--Generator: Apple Native CoreSVG 341-->
<!DOCTYPE svg
PUBLIC "-//W3C//DTD SVG 1.1//EN"
       "http://www.w3.org/Graphics/SVG/1.1/DTD/svg11.dtd">
<svg version="1.1" xmlns="http://www.w3.org/2000/svg" xmlns:xlink="http://www.w3.org/1999/xlink" viewBox="0 0 20.5381 20.1848">
 <g>
  <rect height="20.1848" opacity="0" width="20.5381" x="0" y="0"/>
  <path d="M20.1767 10.0875C20.1767 15.6478 15.6576 20.175 10.0875 20.175C4.52715 20.175 0 15.6478 0 10.0875C0 4.51914 4.52715 0 10.0875 0C15.6576 0 20.1767 4.51914 20.1767 10.0875ZM4.84355 10.8324L4.84355 14.3623C4.84355 15.0436 5.19121 15.3422 5.81718 15.3422L9.33906 15.3422C9.7791 15.3422 10.1295 14.9838 10.1295 14.542C10.1295 14.0984 9.7791 13.7516 9.33906 13.7516L8.86992 13.7516L7.43378 13.865L9.60507 11.8152C9.94999 11.4924 9.94921 10.9203 9.61308 10.5824C9.27519 10.2383 8.70937 10.225 8.38027 10.5904L6.31269 12.7777L6.43417 11.3051L6.43417 10.8324C6.43417 10.3889 6.07577 10.042 5.63574 10.042C5.19394 10.042 4.84355 10.3889 4.84355 10.8324ZM10.8316 4.85234C10.3916 4.85234 10.0332 5.21074 10.0332 5.65429C10.0332 6.09609 10.3916 6.44472 10.8316 6.44472L11.3025 6.44472L12.7387 6.32948L10.5594 8.37929C10.2145 8.7039 10.2152 9.27421 10.5514 9.6121C10.8973 9.95624 11.4533 9.97128 11.7922 9.60409L13.8518 7.41678L13.7365 8.88945L13.7365 9.36386C13.7365 9.80566 14.0869 10.1543 14.527 10.1543C14.9705 10.1543 15.3289 9.80566 15.3289 9.36386L15.3289 5.83222C15.3289 5.15273 14.9715 4.85234 14.3473 4.85234Z" fill="white" fill-opacity="0.85"/>
 </g>
</svg>
