<?xml version="1.0" encoding="UTF-8"?>
<!--Generator: Apple Native CoreSVG 341-->
<!DOCTYPE svg
PUBLIC "-//W3C//DTD SVG 1.1//EN"
       "http://www.w3.org/Graphics/SVG/1.1/DTD/svg11.dtd">
<svg version="1.1" xmlns="http://www.w3.org/2000/svg" xmlns:xlink="http://www.w3.org/1999/xlink" viewBox="0 0 20.5381 20.1848">
 <g>
  <rect height="20.1848" opacity="0" width="20.5381" x="0" y="0"/>
  <path d="M20.1767 10.0875C20.1767 15.6478 15.6576 20.175 10.0875 20.175C4.52715 20.175 0 15.6478 0 10.0875C0 4.51914 4.52715 0 10.0875 0C15.6576 0 20.1767 4.51914 20.1767 10.0875ZM9.15195 4.20136C8.33301 4.20136 7.85293 4.6832 7.85293 5.52441L7.85293 9.8668L5.78378 9.8668C5.36074 9.8668 5.06015 10.1754 5.06015 10.5904C5.06015 10.8832 5.18261 11.1139 5.43632 11.3871L9.47089 15.6914C9.66621 15.9 9.9039 15.9771 10.0955 15.9771C10.3004 15.9771 10.523 15.9018 10.7299 15.6914L14.7244 11.3871C15.0119 11.0846 15.1326 10.8877 15.1326 10.6082C15.1326 10.1754 14.8 9.8668 14.393 9.8668L12.3496 9.8668L12.3496 5.52441C12.3496 4.6832 11.8625 4.20136 11.0488 4.20136Z" fill="white" fill-opacity="0.85"/>
 </g>
</svg>
