<?xml version="1.0" encoding="UTF-8"?>
<!--Generator: Apple Native CoreSVG 341-->
<!DOCTYPE svg
PUBLIC "-//W3C//DTD SVG 1.1//EN"
       "http://www.w3.org/Graphics/SVG/1.1/DTD/svg11.dtd">
<svg version="1.1" xmlns="http://www.w3.org/2000/svg" xmlns:xlink="http://www.w3.org/1999/xlink" viewBox="0 0 23.4906 18.2316">
 <g>
  <rect height="18.2316" opacity="0" width="23.4906" x="0" y="0"/>
  <path d="M3.20351 18.2316L19.9258 18.2316C22.0416 18.2316 23.1293 17.1519 23.1293 15.0682L23.1293 3.17499C23.1293 1.08945 22.0416 0.00351548 19.9258 0.00351548L3.20351 0.00351548C1.0957 0.00351548 0 1.08945 0 3.17499L0 15.0682C0 17.1519 1.0957 18.2316 3.20351 18.2316ZM3.31444 16.3184C2.40643 16.3184 1.91327 15.8482 1.91327 14.8994L1.91327 3.34198C1.91327 2.39315 2.40643 1.91678 3.31444 1.91678L19.8148 1.91678C20.7149 1.91678 21.216 2.39315 21.216 3.34198L21.216 14.8994C21.216 15.8482 20.7149 16.3184 19.8148 16.3184Z" fill="white" fill-opacity="0.85"/>
  <path d="M10.3705 14.6324C10.7947 14.6324 11.0955 14.3059 11.0955 13.8656L11.0955 10.148C11.0955 9.55547 10.7594 9.28516 10.2309 9.28516L6.47421 9.28516C6.04375 9.28516 5.7332 9.58594 5.7332 10.0102C5.7332 10.4344 6.04375 10.7271 6.49199 10.7271L7.66836 10.7271L9.87832 10.498L9.65351 12.7861L9.65351 13.8816C9.65351 14.3219 9.94629 14.6324 10.3705 14.6324ZM6.17968 14.9178C6.41308 14.9178 6.60819 14.8344 6.76952 14.673L8.64941 12.7932L9.92402 11.3691C10.6018 10.6287 9.75722 9.79687 8.99492 10.4637L7.57422 11.718L5.68554 13.6129C5.53749 13.7609 5.43808 13.9721 5.43808 14.1699C5.43808 14.6127 5.75117 14.9178 6.17968 14.9178ZM12.7588 3.60272C12.3346 3.60272 12.0338 3.93554 12.0338 4.37577L12.0338 8.09511C12.0338 8.67792 12.3779 8.95624 12.9064 8.95624L16.6533 8.95624C17.0855 8.95624 17.4041 8.65546 17.4041 8.233C17.4041 7.80878 17.0855 7.51601 16.6373 7.51601L15.4609 7.51601L13.251 7.74335L13.4758 5.45527L13.4758 4.35975C13.4758 3.91952 13.183 3.60272 12.7588 3.60272ZM16.9496 3.31561C16.7162 3.31561 16.5211 3.40077 16.3598 3.56034L14.4799 5.44823L13.2053 6.86425C12.5355 7.61445 13.3801 8.44452 14.1344 7.77773L15.5551 6.52343L17.4518 4.62049C17.5998 4.47245 17.6992 4.27108 17.6992 4.07147C17.6992 3.6287 17.3781 3.31561 16.9496 3.31561Z" fill="white" fill-opacity="0.85"/>
 </g>
</svg>
