<?xml version="1.0" encoding="UTF-8"?>
<!--Generator: Apple Native CoreSVG 341-->
<!DOCTYPE svg
PUBLIC "-//W3C//DTD SVG 1.1//EN"
       "http://www.w3.org/Graphics/SVG/1.1/DTD/svg11.dtd">
<svg version="1.1" xmlns="http://www.w3.org/2000/svg" xmlns:xlink="http://www.w3.org/1999/xlink" viewBox="0 0 20.0898 18.8629">
 <g>
  <rect height="18.8629" opacity="0" width="20.0898" x="0" y="0"/>
  <path d="M19.7285 6.68046C19.7285 10.8529 16.2281 14.9728 10.7758 18.4885C10.4766 18.6734 10.1133 18.8629 9.86425 18.8629C9.61347 18.8629 9.25195 18.6734 8.96074 18.4885C3.50039 14.9728 0 10.8529 0 6.68046C0 3.08808 2.48027 0.595703 5.59238 0.595703C7.52831 0.595703 9.00214 1.67422 9.86425 3.27051C10.7424 1.66621 12.1984 0.595703 14.1361 0.595703C17.2482 0.595703 19.7285 3.08808 19.7285 6.68046ZM9.17832 6.42324L6.38457 8.98183C6.19668 9.15468 6.0955 9.34003 6.0955 9.59628C6.0955 10.0637 6.43417 10.3891 6.90859 10.3891C7.13202 10.3891 7.36347 10.2783 7.51249 10.1187L8.27285 9.33885L9.02781 8.53555L8.96269 10.1111L8.96269 13.3922C8.96269 13.8797 9.3705 14.2514 9.86425 14.2514C10.358 14.2514 10.7738 13.8797 10.7738 13.3922L10.7738 10.1111L10.7017 8.54094L11.4574 9.33885L12.2143 10.1187C12.3678 10.2783 12.5902 10.3891 12.8182 10.3891C13.2783 10.3891 13.633 10.0637 13.633 9.59628C13.633 9.34003 13.5318 9.15468 13.3439 8.98183L10.5502 6.42324C10.3125 6.21308 10.1158 6.1166 9.86425 6.1166C9.61269 6.1166 9.41601 6.21308 9.17832 6.42324Z" fill="white" fill-opacity="0.85"/>
 </g>
</svg>
