<?xml version="1.0" encoding="UTF-8"?>
<!--Generator: Apple Native CoreSVG 341-->
<!DOCTYPE svg
PUBLIC "-//W3C//DTD SVG 1.1//EN"
       "http://www.w3.org/Graphics/SVG/1.1/DTD/svg11.dtd">
<svg version="1.1" xmlns="http://www.w3.org/2000/svg" xmlns:xlink="http://www.w3.org/1999/xlink" viewBox="0 0 26.5881 18.3848">
 <g>
  <rect height="18.3848" opacity="0" width="26.5881" x="0" y="0"/>
  <path d="M15.5687 1.45371L15.5687 16.9666C15.5687 17.7105 16.1228 18.2709 16.8748 18.2709C17.4008 18.2709 17.823 18.0615 18.3322 17.5834L26.0699 10.3221C26.4498 9.96171 26.5881 9.54492 26.5881 9.18925C26.5881 8.82031 26.4515 8.41055 26.0717 8.05195L18.3322 0.844921C17.7707 0.319727 17.4097 0.0996101 16.8908 0.0996101C16.1228 0.0996101 15.5687 0.709764 15.5687 1.45371ZM15.2523 13.4373L18.7779 13.4373C20.5219 13.4373 21.3103 12.6719 21.3103 10.9615L21.3103 7.43457C21.3103 5.74453 20.5043 4.95703 18.7779 4.95703L15.3242 4.95703C12.3492 4.95703 9.76053 6.63985 9.09881 10.2026L9.00018 10.2026C8.28065 6.31251 5.52655 4.96231 2.84862 4.96231L2.18925 4.96231C0.757223 4.96231 0.128711 5.57558 0.128711 7.11152L0.128711 11.6424C0.128711 12.883 0.749215 13.4642 2.11542 13.4642L3.22088 13.4642C5.74979 13.4642 7.41093 15.1941 8.13866 17.6887C8.27753 18.1559 8.58768 18.3848 9.06151 18.3848C9.52557 18.3848 9.84725 18.1559 9.99588 17.6967C11.0224 14.6195 12.623 13.4373 15.2523 13.4373Z" fill="white" fill-opacity="0.85"/>
 </g>
</svg>
