<?xml version="1.0" encoding="UTF-8"?>
<!--Generator: Apple Native CoreSVG 341-->
<!DOCTYPE svg
PUBLIC "-//W3C//DTD SVG 1.1//EN"
       "http://www.w3.org/Graphics/SVG/1.1/DTD/svg11.dtd">
<svg version="1.1" xmlns="http://www.w3.org/2000/svg" xmlns:xlink="http://www.w3.org/1999/xlink" viewBox="0 0 20.5381 20.1848">
 <g>
  <rect height="20.1848" opacity="0" width="20.5381" x="0" y="0"/>
  <path d="M20.1767 10.0875C20.1767 15.6478 15.6576 20.175 10.0875 20.175C4.52715 20.175 0 15.6478 0 10.0875C0 4.51914 4.52715 0 10.0875 0C15.6576 0 20.1767 4.51914 20.1767 10.0875ZM14.0998 13.966C14.31 14.3447 14.5611 14.435 14.8395 14.435C15.2 14.435 15.4973 14.1047 15.4973 13.4486C15.4973 9.54844 13.7777 7.16816 10.0678 7.16816L9.93261 7.16816L9.93261 5.23515C9.93261 4.82988 9.62577 4.49726 9.20273 4.49726C8.92148 4.49726 8.73437 4.61796 8.43183 4.89746L4.1746 8.85468C3.96953 9.05 3.88886 9.27265 3.88886 9.47753C3.88886 9.67714 3.96777 9.90683 4.1746 10.1021L8.43183 14.0799C8.70507 14.3336 8.92597 14.456 9.21073 14.456C9.62577 14.456 9.93261 14.1475 9.93261 13.7422L9.93261 11.8019L10.0678 11.8019C12.0363 11.8019 13.252 12.376 14.0998 13.966Z" fill="white" fill-opacity="0.85"/>
 </g>
</svg>
