<?xml version="1.0" encoding="UTF-8"?>
<!--Generator: Apple Native CoreSVG 341-->
<!DOCTYPE svg
PUBLIC "-//W3C//DTD SVG 1.1//EN"
       "http://www.w3.org/Graphics/SVG/1.1/DTD/svg11.dtd">
<svg version="1.1" xmlns="http://www.w3.org/2000/svg" xmlns:xlink="http://www.w3.org/1999/xlink" viewBox="0 0 19.1609 18.8164">
 <g>
  <rect height="18.8164" opacity="0" width="19.1609" x="0" y="0"/>
  <path d="M17.7262 8.16835C18.3449 8.16835 18.7996 7.71171 18.7996 7.10898L18.7996 1.75937C18.7996 0.645505 18.1469 0.000780821 17.033 0.000780821L11.6201 0.000780821C11.0111 0.000780821 10.5527 0.4457 10.5527 1.0662C10.5527 1.68319 11.0111 2.12186 11.6201 2.12186L12.3736 2.12186L15.4647 1.91952L13.0504 4.19785L10.2289 7.01758C10.0232 7.22325 9.90449 7.48926 9.90449 7.78985C9.90449 8.44043 10.3842 8.88261 11.033 8.88261C11.3148 8.88261 11.5834 8.78691 11.781 8.57949L14.591 5.74198L16.8791 3.33748L16.6688 6.40995L16.6688 7.10898C16.6688 7.71972 17.1234 8.16835 17.7262 8.16835ZM7.17148 18.8164C7.79022 18.8164 8.23885 18.3715 8.23885 17.751C8.23885 17.1322 7.78222 16.6936 7.17148 16.6936L6.42597 16.6936L3.33494 16.8959L5.7412 14.6176L8.5707 11.7978C8.77636 11.5939 8.8871 11.3262 8.8871 11.0256C8.8871 10.3768 8.41543 9.93457 7.75859 9.93457C7.47676 9.93457 7.21622 10.0303 7.01856 10.2377L4.20058 13.0734L1.92049 15.4779L2.12284 12.4072L2.12284 11.7064C2.12284 11.0975 1.67616 10.6488 1.06542 10.6488C0.454684 10.6488 0 11.1055 0 11.7064L0 17.0561C0 18.1717 0.644724 18.8164 1.76034 18.8164Z" fill="white" fill-opacity="0.85"/>
 </g>
</svg>
