<?xml version="1.0" encoding="UTF-8"?>
<!--Generator: Apple Native CoreSVG 341-->
<!DOCTYPE svg
PUBLIC "-//W3C//DTD SVG 1.1//EN"
       "http://www.w3.org/Graphics/SVG/1.1/DTD/svg11.dtd">
<svg version="1.1" xmlns="http://www.w3.org/2000/svg" xmlns:xlink="http://www.w3.org/1999/xlink" viewBox="0 0 18.5894 18.2316">
 <g>
  <rect height="18.2316" opacity="0" width="18.5894" x="0" y="0"/>
  <path d="M3.20351 18.2281L15.0246 18.2281C17.1404 18.2281 18.2281 17.1502 18.2281 15.0646L18.2281 3.17148C18.2281 1.08769 17.1404 0 15.0246 0L3.20351 0C1.0957 0 0 1.08769 0 3.17148L0 15.0646C0 17.1502 1.0957 18.2281 3.20351 18.2281ZM3.31444 16.3148C2.40643 16.3148 1.91327 15.8465 1.91327 14.8977L1.91327 3.34023C1.91327 2.39139 2.40643 1.91503 3.31444 1.91503L14.9137 1.91503C15.8137 1.91503 16.3148 2.39139 16.3148 3.34023L16.3148 14.8977C16.3148 15.8465 15.8137 16.3148 14.9137 16.3148Z" fill="white" fill-opacity="0.85"/>
  <path d="M13.8582 6.23398C13.8582 5.85507 13.5787 5.57558 13.1998 5.57558L7.03769 5.57558L5.95917 5.5916C5.6078 5.5996 5.31679 5.88261 5.31679 6.23398C5.31679 6.5871 5.6078 6.86835 5.95917 6.87812L7.02968 6.91015L13.1998 6.91015C13.5787 6.91015 13.8582 6.61464 13.8582 6.23398ZM7.49218 9.31015C7.87909 9.31015 8.14882 9.04218 8.14882 8.66152C8.14882 8.48046 8.08046 8.31367 7.95624 8.19121L6.82617 7.09922L5.8453 6.22597L6.82617 5.40077L7.95624 4.30878C8.08046 4.18632 8.14882 4.01503 8.14882 3.84023C8.14882 3.4498 7.87909 3.18183 7.49218 3.18183C7.32538 3.18183 7.14257 3.26523 7.0121 3.39394L4.58554 5.74863C4.30781 6.02011 4.31757 6.48163 4.58554 6.74159L7.0121 9.11406C7.14257 9.23652 7.33339 9.31015 7.49218 9.31015ZM4.36191 11.9852C4.36191 12.3658 4.64941 12.6596 5.02831 12.6596L11.1904 12.6596L12.2689 12.6275C12.6123 12.6195 12.9113 12.3365 12.9113 11.9852C12.9113 11.632 12.6123 11.3508 12.2689 11.3428L11.1824 11.325L5.02831 11.325C4.6414 11.325 4.36191 11.6062 4.36191 11.9852ZM10.7279 15.0613C10.8947 15.0613 11.0855 14.9877 11.208 14.8652L13.6426 12.4928C13.9105 12.2328 13.9123 11.7615 13.6426 11.4998L11.208 9.13535C11.0855 9.01465 10.8947 8.933 10.7279 8.933C10.349 8.933 10.0713 9.20097 10.0713 9.58964C10.0713 9.76621 10.1396 9.93574 10.2639 10.0502L11.4019 11.1519L12.3748 11.9771L11.4019 12.8486L10.2639 13.9424C10.1396 14.0648 10.0713 14.2299 10.0713 14.4047C10.0713 14.7934 10.349 15.0613 10.7279 15.0613Z" fill="white" fill-opacity="0.85"/>
 </g>
</svg>
