<?xml version="1.0" encoding="UTF-8"?>
<!--Generator: Apple Native CoreSVG 341-->
<!DOCTYPE svg
PUBLIC "-//W3C//DTD SVG 1.1//EN"
       "http://www.w3.org/Graphics/SVG/1.1/DTD/svg11.dtd">
<svg version="1.1" xmlns="http://www.w3.org/2000/svg" xmlns:xlink="http://www.w3.org/1999/xlink" viewBox="0 0 18.5894 18.2316">
 <g>
  <rect height="18.2316" opacity="0" width="18.5894" x="0" y="0"/>
  <path d="M18.2281 3.17148L18.2281 15.0646C18.2281 17.1502 17.1404 18.2281 15.0246 18.2281L3.20351 18.2281C1.0957 18.2281 0 17.1502 0 15.0646L0 3.17148C0 1.08769 1.0957 0 3.20351 0L15.0246 0C17.1404 0 18.2281 1.08769 18.2281 3.17148ZM12.7871 5.42831L12.7871 12.8508C12.7871 13.2836 13.1107 13.5992 13.5338 13.5992C13.9746 13.5992 14.3062 13.2836 14.3062 12.8508L14.3062 5.42831C14.3062 4.9955 13.9746 4.67187 13.5338 4.67187C13.1107 4.67187 12.7871 4.9955 12.7871 5.42831ZM7.13906 5.70468C7.13906 5.92362 7.21699 6.11171 7.3793 6.26425L8.00957 6.88026L9.83185 8.4875L8.1004 8.38633L3.89706 8.38633C3.4414 8.38633 3.10976 8.70293 3.10976 9.14355C3.10976 9.60819 3.4414 9.92655 3.89706 9.92655L8.1004 9.92655L9.83985 9.7996L8.01758 11.4148L7.3793 12.0131C7.21875 12.1514 7.13906 12.3332 7.13906 12.5699C7.13906 12.9947 7.44941 13.3051 7.89453 13.3051C8.08164 13.3051 8.31406 13.2137 8.45859 13.0559L11.8217 9.7164C11.993 9.55937 12.0754 9.36698 12.0754 9.14355C12.0754 8.92812 11.977 8.72773 11.8217 8.5707L8.45058 5.20898C8.29629 5.03515 8.09765 4.97402 7.90254 4.97402C7.46543 4.97402 7.13906 5.27636 7.13906 5.70468Z" fill="white" fill-opacity="0.85"/>
 </g>
</svg>
