<?xml version="1.0" encoding="UTF-8"?>
<!--Generator: Apple Native CoreSVG 341-->
<!DOCTYPE svg
PUBLIC "-//W3C//DTD SVG 1.1//EN"
       "http://www.w3.org/Graphics/SVG/1.1/DTD/svg11.dtd">
<svg version="1.1" xmlns="http://www.w3.org/2000/svg" xmlns:xlink="http://www.w3.org/1999/xlink" viewBox="0 0 20.5381 20.1848">
 <g>
  <rect height="20.1848" opacity="0" width="20.5381" x="0" y="0"/>
  <path d="M10.0875 20.175C15.6576 20.175 20.1767 15.6559 20.1767 10.0875C20.1767 4.51914 15.6576 0 10.0875 0C4.51914 0 0 4.51914 0 10.0875C0 15.6559 4.51914 20.175 10.0875 20.175ZM10.0875 18.1879C5.60839 18.1879 1.9871 14.5666 1.9871 10.0875C1.9871 5.60839 5.60839 1.9871 10.0875 1.9871C14.5666 1.9871 18.1897 5.60839 18.1897 10.0875C18.1897 14.5666 14.5666 18.1879 10.0875 18.1879Z" fill="white" fill-opacity="0.85"/>
  <path d="M11.3959 4.70429C11.1279 4.43808 10.7242 4.43007 10.458 4.70429L6.10214 9.0539L5.35566 9.83242C5.11698 10.0791 5.10898 10.4863 5.35566 10.7348C5.60409 10.985 6.01132 10.9752 6.25975 10.7348L7.03651 10.0061L11.4039 5.64042C11.6701 5.37421 11.6639 4.97226 11.3959 4.70429ZM9.05702 11.3728C9.333 11.1066 9.34101 10.7242 9.06327 10.4482C8.94882 10.316 8.7873 10.2521 8.60273 10.2539L7.0291 10.2787L5.71386 10.3543L5.82948 9.08358L5.85429 7.5037C5.86405 7.33515 5.79218 7.16738 5.65995 7.04316C5.39198 6.76718 5.00956 6.76718 4.73534 7.0414C4.61113 7.15761 4.54902 7.35019 4.54726 7.52148L4.49843 10.9105C4.49042 11.2947 4.81347 11.616 5.19413 11.608L8.59296 11.5752C8.76777 11.5752 8.94882 11.4873 9.05702 11.3728ZM8.74531 15.476C9.01328 15.7519 9.41699 15.7502 9.6832 15.484L14.0488 11.1264L14.7855 10.3496C15.0242 10.0851 15.0322 9.67792 14.7855 9.42949C14.5371 9.18105 14.1299 9.18906 13.8734 9.42949L13.0967 10.184L8.74531 14.5398C8.47109 14.8141 8.4791 15.2098 8.74531 15.476ZM15.4219 13.1486C15.5301 13.0387 15.6242 12.8559 15.6242 12.673L15.6588 9.27597C15.6668 8.90332 15.3375 8.57851 14.9613 8.57851L11.5803 8.62109C11.3992 8.62109 11.2084 8.70097 11.0922 8.81543C10.818 9.08164 10.818 9.47206 11.0939 9.7498C11.2182 9.86425 11.3859 9.94413 11.5607 9.93613L13.1264 9.90956L14.4113 9.80195L14.3295 11.1109L14.2932 12.6846C14.2932 12.8594 14.3668 13.0227 14.491 13.1549C14.767 13.4228 15.1477 13.4228 15.4219 13.1486Z" fill="white" fill-opacity="0.85"/>
 </g>
</svg>
