<?xml version="1.0" encoding="UTF-8"?>
<!--Generator: Apple Native CoreSVG 341-->
<!DOCTYPE svg
PUBLIC "-//W3C//DTD SVG 1.1//EN"
       "http://www.w3.org/Graphics/SVG/1.1/DTD/svg11.dtd">
<svg version="1.1" xmlns="http://www.w3.org/2000/svg" xmlns:xlink="http://www.w3.org/1999/xlink" viewBox="0 0 20.5381 20.1848">
 <g>
  <rect height="20.1848" opacity="0" width="20.5381" x="0" y="0"/>
  <path d="M10.0875 20.175C15.6576 20.175 20.1767 15.6559 20.1767 10.0875C20.1767 4.51914 15.6576 0 10.0875 0C4.51914 0 0 4.51914 0 10.0875C0 15.6559 4.51914 20.175 10.0875 20.175ZM10.0875 18.1879C5.60839 18.1879 1.9871 14.5666 1.9871 10.0875C1.9871 5.60839 5.60839 1.9871 10.0875 1.9871C14.5666 1.9871 18.1897 5.60839 18.1897 10.0875C18.1897 14.5666 14.5666 18.1879 10.0875 18.1879Z" fill="white" fill-opacity="0.85"/>
  <path d="M6.01601 10.9652L11.3311 10.9652L13.1559 10.8828C13.5912 10.8545 13.9574 10.5228 13.9574 10.0795C13.9574 9.63437 13.5912 9.30273 13.1559 9.27617L11.3311 9.19199L6.01601 9.18398C5.54609 9.18398 5.14003 9.58926 5.14003 10.0795C5.14003 10.5662 5.54609 10.9652 6.01601 10.9652ZM11.0463 14.1916C11.2777 14.1916 11.4498 14.1029 11.6121 13.9406L14.6807 10.7531C14.9059 10.5262 14.9865 10.3082 14.9865 10.0795C14.9865 9.84101 14.9059 9.63281 14.6807 9.40586L11.6121 6.2166C11.4498 6.0543 11.2777 5.96738 11.0463 5.96738C10.5949 5.96738 10.2801 6.32285 10.2801 6.7664C10.2801 6.98359 10.3643 7.20624 10.5443 7.35878L12.0016 8.7289L13.309 9.87383L13.309 10.2851L12.0016 11.4301L10.5443 12.7984C10.3643 12.9527 10.2801 13.1834 10.2801 13.4006C10.2801 13.8424 10.5949 14.1916 11.0463 14.1916Z" fill="white" fill-opacity="0.85"/>
 </g>
</svg>
