<?xml version="1.0" encoding="UTF-8"?>
<!--Generator: Apple Native CoreSVG 341-->
<!DOCTYPE svg
PUBLIC "-//W3C//DTD SVG 1.1//EN"
       "http://www.w3.org/Graphics/SVG/1.1/DTD/svg11.dtd">
<svg version="1.1" xmlns="http://www.w3.org/2000/svg" xmlns:xlink="http://www.w3.org/1999/xlink" viewBox="0 0 20.6748 24.8633">
 <g>
  <rect height="24.8633" opacity="0" width="20.6748" x="0" y="0"/>
  <path d="M20.3135 3.20351L20.3135 16.6291C20.3135 18.7289 19.2275 19.8326 17.142 19.8326L15.484 19.8326L15.484 8.2119C15.484 6.10234 14.4043 5.00839 12.3125 5.00839L4.83125 5.00839L4.83125 3.20351C4.83125 1.09394 5.90917 0 8.00272 0L17.142 0C19.2275 0 20.3135 1.09394 20.3135 3.20351ZM10.2607 2.03965C9.80819 2.03965 9.60058 2.35879 9.60058 2.65976L9.60058 2.87539C9.60058 3.19296 9.82577 3.4955 10.2607 3.4955L14.8857 3.4955C15.3109 3.4955 15.5459 3.19296 15.5459 2.87539L15.5459 2.65976C15.5459 2.35879 15.3303 2.03965 14.8857 2.03965Z" fill="white" fill-opacity="0.85"/>
  <path d="M0 21.6375C0 23.7471 1.07968 24.841 3.17148 24.841L12.3125 24.841C14.4043 24.841 15.484 23.7373 15.484 21.6375L15.484 8.2119C15.484 6.10234 14.4043 5.00839 12.3125 5.00839L3.17148 5.00839C1.07968 5.00839 0 6.09433 0 8.2119ZM1.91327 21.5186L1.91327 8.32284C1.91327 7.42283 2.38163 6.92166 3.32421 6.92166L12.1518 6.92166C13.0926 6.92166 13.5689 7.42283 13.5689 8.32284L13.5689 21.5186C13.5689 22.4266 13.0926 22.9277 12.1518 22.9277L3.32421 22.9277C2.38163 22.9277 1.91327 22.4266 1.91327 21.5186Z" fill="white" fill-opacity="0.85"/>
  <path d="M3.61523 14.9287C3.61523 15.3508 3.97265 15.7127 4.37968 15.7127L8.68555 15.7127L10.2605 15.608C11.1602 15.5744 11.1602 14.283 10.2605 14.2334L8.68555 14.1527L4.37968 14.1527C3.97265 14.1527 3.61523 14.5084 3.61523 14.9287ZM7.86562 12.1783C7.86562 12.3769 7.95254 12.573 8.0998 12.7105L9.31895 13.8506L10.3482 14.7652L10.3482 15.0939L9.31895 16.0068L8.0998 17.1469C7.95254 17.2844 7.86562 17.4725 7.86562 17.6711C7.86562 18.0517 8.1584 18.3736 8.54511 18.3736C8.758 18.3736 8.91328 18.2902 9.04277 18.1447L11.5885 15.5174C11.7773 15.3152 11.8447 15.1291 11.8447 14.9287C11.8447 14.7283 11.7773 14.5422 11.5885 14.3418L9.04277 11.7127C8.91328 11.5672 8.758 11.4838 8.54511 11.4838C8.1584 11.4838 7.86562 11.7976 7.86562 12.1783Z" fill="white" fill-opacity="0.85"/>
 </g>
</svg>
