<?xml version="1.0" encoding="UTF-8"?>
<!--Generator: Apple Native CoreSVG 341-->
<!DOCTYPE svg
PUBLIC "-//W3C//DTD SVG 1.1//EN"
       "http://www.w3.org/Graphics/SVG/1.1/DTD/svg11.dtd">
<svg version="1.1" xmlns="http://www.w3.org/2000/svg" xmlns:xlink="http://www.w3.org/1999/xlink" viewBox="0 0 23.4906 18.2316">
 <g>
  <rect height="18.2316" opacity="0" width="23.4906" x="0" y="0"/>
  <path d="M3.20351 18.2316L19.9258 18.2316C22.0416 18.2316 23.1293 17.1519 23.1293 15.0682L23.1293 3.17499C23.1293 1.08945 22.0416 0.00351548 19.9258 0.00351548L3.20351 0.00351548C1.0957 0.00351548 0 1.08945 0 3.17499L0 15.0682C0 17.1519 1.0957 18.2316 3.20351 18.2316ZM3.31444 16.3184C2.40643 16.3184 1.91327 15.8482 1.91327 14.8994L1.91327 3.34198C1.91327 2.39315 2.40643 1.91678 3.31444 1.91678L19.8148 1.91678C20.7149 1.91678 21.216 2.39315 21.216 3.34198L21.216 14.8994C21.216 15.8482 20.7149 16.3184 19.8148 16.3184Z" fill="white" fill-opacity="0.85"/>
  <path d="M3.62596 4.75662L6.42753 7.55643L8.14941 9.14706C8.91679 9.84726 9.8621 8.88359 9.16484 8.11562L7.58221 6.40976L4.78768 3.61698C4.62459 3.45389 4.42772 3.36073 4.17577 3.36073C3.6994 3.36073 3.36698 3.6871 3.36698 4.17401C3.36698 4.38866 3.47167 4.60057 3.62596 4.75662ZM9.32636 10.2342C9.92675 10.2342 10.2652 9.90546 10.2652 9.29706L10.2652 4.95604C10.2572 4.47596 9.95292 4.16815 9.49687 4.16815C9.04081 4.16815 8.73476 4.48573 8.72675 4.98007L8.72675 6.57479L8.98027 8.95898L6.68417 8.70546L5.01288 8.70546C4.51503 8.71347 4.19921 9.01776 4.19921 9.47558C4.19921 9.92987 4.50702 10.2262 4.98534 10.2342Z" fill="white" fill-opacity="0.85"/>
 </g>
</svg>
