<?xml version="1.0" encoding="UTF-8"?>
<!--Generator: Apple Native CoreSVG 341-->
<!DOCTYPE svg
PUBLIC "-//W3C//DTD SVG 1.1//EN"
       "http://www.w3.org/Graphics/SVG/1.1/DTD/svg11.dtd">
<svg version="1.1" xmlns="http://www.w3.org/2000/svg" xmlns:xlink="http://www.w3.org/1999/xlink" viewBox="0 0 18.5894 18.2316">
 <g>
  <rect height="18.2316" opacity="0" width="18.5894" x="0" y="0"/>
  <path d="M3.20351 18.2281L15.0246 18.2281C17.1404 18.2281 18.2281 17.1502 18.2281 15.0646L18.2281 3.17148C18.2281 1.08769 17.1404 0 15.0246 0L3.20351 0C1.0957 0 0 1.08769 0 3.17148L0 15.0646C0 17.1502 1.0957 18.2281 3.20351 18.2281ZM3.31444 16.3148C2.40643 16.3148 1.91327 15.8465 1.91327 14.8977L1.91327 3.34023C1.91327 2.39139 2.40643 1.91503 3.31444 1.91503L14.9137 1.91503C15.8137 1.91503 16.3148 2.39139 16.3148 3.34023L16.3148 14.8977C16.3148 15.8465 15.8137 16.3148 14.9137 16.3148Z" fill="white" fill-opacity="0.85"/>
  <path d="M4.94765 9.16445C5.35839 9.16445 5.69374 8.83886 5.69374 8.42812L5.69374 7.983L5.58026 6.59296L7.52793 8.65683C7.83574 8.99921 8.35722 8.98593 8.67382 8.66484C8.98691 8.34999 8.98417 7.8205 8.66406 7.5207L6.6162 5.5828L7.97148 5.69452L8.41132 5.69452C8.82031 5.69452 9.14941 5.36894 9.14941 4.9582C9.14941 4.54921 8.82031 4.2121 8.41132 4.2121L5.11581 4.2121C4.53593 4.2121 4.21132 4.48769 4.21132 5.1246L4.21132 8.42812C4.21132 8.83886 4.53867 9.16445 4.94765 9.16445ZM9.82226 14.0293L13.1098 14.0293C13.6896 14.0293 14.0223 13.7555 14.0223 13.1186L14.0223 9.81503C14.0223 9.40254 13.6869 9.07695 13.2779 9.07695C12.8689 9.07695 12.5398 9.40254 12.5398 9.81503L12.5398 10.2602L12.6533 11.6502L10.7057 9.58457C10.3898 9.24394 9.87636 9.25547 9.55351 9.57656C9.24043 9.89316 9.2414 10.4209 9.56152 10.7225L11.6174 12.6604L10.2639 12.5469L9.82226 12.5469C9.41328 12.5469 9.07793 12.8725 9.07793 13.2832C9.07793 13.6939 9.41328 14.0293 9.82226 14.0293Z" fill="white" fill-opacity="0.85"/>
 </g>
</svg>
