<?xml version="1.0" encoding="UTF-8"?>
<!--Generator: Apple Native CoreSVG 341-->
<!DOCTYPE svg
PUBLIC "-//W3C//DTD SVG 1.1//EN"
       "http://www.w3.org/Graphics/SVG/1.1/DTD/svg11.dtd">
<svg version="1.1" xmlns="http://www.w3.org/2000/svg" xmlns:xlink="http://www.w3.org/1999/xlink" viewBox="0 0 20.5381 23.9811">
 <g>
  <rect height="23.9811" opacity="0" width="20.5381" x="0" y="0"/>
  <path d="M11.8351 0.722792C11.8351-0.00845663 11.2916-0.191269 10.7475 0.203652L7.59453 2.47377C7.1496 2.79076 7.15761 3.27709 7.59453 3.58783L10.7555 5.85618C11.2916 6.24134 11.8351 6.05228 11.8351 5.34056ZM18.1897 11.9857C18.1897 14.2328 17.2572 16.2781 15.7435 17.7224C15.2654 18.2476 15.3447 18.7687 15.6484 19.1093C15.9965 19.5068 16.6711 19.6154 17.1457 19.1095C19.0162 17.315 20.1767 14.7783 20.1767 11.9857C20.1767 6.41732 15.6656 1.90619 10.076 1.89819C9.53535 1.90619 9.09844 2.34135 9.09844 2.88373C9.09844 3.43236 9.54336 3.88528 10.084 3.88528C14.5666 3.88528 18.1897 7.50658 18.1897 11.9857ZM8.3416 23.2406C8.3416 23.9718 8.88515 24.1609 9.42929 23.7579L12.5805 21.4976C13.0271 21.1806 13.0191 20.6925 12.5805 20.3818L9.42129 18.1152C8.88515 17.73 8.3416 17.9111 8.3416 18.6308ZM1.9871 11.9857C1.9871 9.72884 2.91952 7.69153 4.43945 6.23918C4.91132 5.71575 4.83027 5.20266 4.52832 4.85228C4.17852 4.46282 3.50567 4.35423 3.02931 4.86184C1.15879 6.65637 0 9.1931 0 11.9857C0 17.554 4.51113 22.0652 10.1008 22.0732C10.6414 22.0652 11.0863 21.6202 11.0863 21.0796C11.0863 20.531 10.6334 20.0861 10.0928 20.0861C5.60839 20.0861 1.9871 16.4648 1.9871 11.9857Z" fill="white" fill-opacity="0.85"/>
 </g>
</svg>
