<?xml version="1.0" encoding="UTF-8"?>
<!--Generator: Apple Native CoreSVG 341-->
<!DOCTYPE svg
PUBLIC "-//W3C//DTD SVG 1.1//EN"
       "http://www.w3.org/Graphics/SVG/1.1/DTD/svg11.dtd">
<svg version="1.1" xmlns="http://www.w3.org/2000/svg" xmlns:xlink="http://www.w3.org/1999/xlink" viewBox="0 0 19.0609 18.5945">
 <g>
  <rect height="18.5945" opacity="0" width="19.0609" x="0" y="0"/>
  <path d="M18.6996 6.65839C18.6996 6.36328 18.5809 6.07715 18.3592 5.86348L12.7453 0.339451C12.5389 0.124999 12.241 0.00625014 11.9734 0.00625014C11.3469 0.00625014 10.9295 0.438669 10.9295 1.0414C10.9295 1.3621 11.0445 1.59159 11.2394 1.78475L13.7496 4.23184L16.6328 6.65664L13.7496 9.07695L11.2394 11.5223C11.0445 11.7154 10.9295 11.9449 10.9295 12.2639C10.9295 12.8684 11.3469 13.3008 11.9734 13.3008C12.241 13.3008 12.5389 13.182 12.7453 12.9676L18.3592 7.4453C18.5809 7.23163 18.6996 6.9455 18.6996 6.65839ZM10.3504 17.5303C10.3504 16.941 9.90565 16.4643 9.26484 16.4643L6.99413 16.4643C3.84862 16.4643 2.11092 14.599 2.11092 12.0484C2.11092 9.50761 3.84862 7.7244 6.99413 7.7244L13.2082 7.7244L16.6938 7.56386C17.2041 7.53905 17.6072 7.16073 17.6072 6.65839C17.6072 6.14805 17.2041 5.76973 16.6938 5.74493L13.2082 5.58438L7.05273 5.58438C2.61269 5.58438 0 8.25918 0 12.1303C0 16.0305 2.55488 18.5945 6.92109 18.5945L9.26484 18.5945C9.90565 18.5945 10.3504 18.1178 10.3504 17.5303Z" fill="white" fill-opacity="0.85"/>
 </g>
</svg>
