<?xml version="1.0" encoding="UTF-8"?>
<!--Generator: Apple Native CoreSVG 341-->
<!DOCTYPE svg
PUBLIC "-//W3C//DTD SVG 1.1//EN"
       "http://www.w3.org/Graphics/SVG/1.1/DTD/svg11.dtd">
<svg version="1.1" xmlns="http://www.w3.org/2000/svg" xmlns:xlink="http://www.w3.org/1999/xlink" viewBox="0 0 20.6748 24.8633">
 <g>
  <rect height="24.8633" opacity="0" width="20.6748" x="0" y="0"/>
  <path d="M20.3135 3.20351L20.3135 16.6291C20.3135 18.7387 19.2275 19.8326 17.142 19.8326L15.484 19.8326L15.484 8.2119C15.484 6.10234 14.4043 5.00839 12.3125 5.00839L4.83125 5.00839L4.83125 3.20351C4.83125 1.09394 5.90917 0 8.00272 0L17.142 0C19.2275 0 20.3135 1.10195 20.3135 3.20351ZM10.2607 2.03965C9.80819 2.03965 9.60058 2.35879 9.60058 2.65976L9.60058 2.87539C9.60058 3.19296 9.82577 3.4955 10.2607 3.4955L14.8857 3.4955C15.3109 3.4955 15.5459 3.19296 15.5459 2.87539L15.5459 2.65976C15.5459 2.35879 15.3303 2.03965 14.8857 2.03965Z" fill="white" fill-opacity="0.85"/>
  <path d="M0 21.6375C0 23.7471 1.07968 24.841 3.17148 24.841L12.3125 24.841C14.4043 24.841 15.484 23.7373 15.484 21.6375L15.484 8.2119C15.484 6.10234 14.4043 5.00839 12.3125 5.00839L3.17148 5.00839C1.07968 5.00839 0 6.09433 0 8.2119ZM1.91327 21.5186L1.91327 8.32284C1.91327 7.42283 2.38163 6.92166 3.32421 6.92166L12.1518 6.92166C13.0926 6.92166 13.5689 7.42283 13.5689 8.32284L13.5689 21.5186C13.5689 22.4266 13.0926 22.9277 12.1518 22.9277L3.32421 22.9277C2.38163 22.9277 1.91327 22.4266 1.91327 21.5186Z" fill="white" fill-opacity="0.85"/>
  <path d="M7.73574 19.0314C8.15781 19.0314 8.51972 18.6723 8.51972 18.2652L8.51972 13.9611L8.41679 12.3861C8.38144 11.4848 7.09179 11.4848 7.04043 12.3861L6.95976 13.9611L6.95976 18.2652C6.95976 18.6723 7.31718 19.0314 7.73574 19.0314ZM4.98535 14.781C5.18398 14.781 5.38007 14.6924 5.51757 14.5451L6.65761 13.3277L7.57227 12.2984L7.90096 12.2984L8.81562 13.3277L9.95566 14.5451C10.0914 14.6924 10.2812 14.781 10.4799 14.781C10.8605 14.781 11.1807 14.4963 11.1807 14.1016C11.1807 13.8887 11.0973 13.7396 10.9518 13.6039L8.32441 11.0582C8.12402 10.8693 7.93613 10.8019 7.73574 10.8019C7.54336 10.8019 7.34922 10.8693 7.14883 11.0582L4.52148 13.6039C4.38398 13.7316 4.29082 13.8887 4.29082 14.1016C4.29082 14.4963 4.61269 14.781 4.98535 14.781Z" fill="white" fill-opacity="0.85"/>
 </g>
</svg>
