<?xml version="1.0" encoding="UTF-8"?>
<!--Generator: Apple Native CoreSVG 341-->
<!DOCTYPE svg
PUBLIC "-//W3C//DTD SVG 1.1//EN"
       "http://www.w3.org/Graphics/SVG/1.1/DTD/svg11.dtd">
<svg version="1.1" xmlns="http://www.w3.org/2000/svg" xmlns:xlink="http://www.w3.org/1999/xlink" viewBox="0 0 21.0094 15.1273">
 <g>
  <rect height="15.1273" opacity="0" width="21.0094" x="0" y="0"/>
  <path d="M1.04667 15.1193C1.65565 15.1193 2.10135 14.6914 2.10135 14.0967L2.10135 1.03866C2.10135 0.435934 1.65565 0 1.04667 0C0.447457 0 0 0.435934 0 1.03866L0 14.0967C0 14.6914 0.447457 15.1193 1.04667 15.1193ZM10.698 1.02089C10.698 0.432419 10.2566 0 9.65408 0C9.3785 0 9.12244 0.110741 8.89022 0.334958L2.44178 6.76562C2.22186 6.9793 2.09334 7.26543 2.09334 7.56054C2.09334 7.85566 2.22186 8.14179 2.44178 8.35546L8.89022 14.7924C9.12244 15.0166 9.3785 15.1193 9.65408 15.1193C10.2566 15.1193 10.698 14.6869 10.698 14.0984C10.698 13.7955 10.575 13.5242 10.3881 13.3408L8.20056 11.1266L4.21872 7.56054L8.20056 3.99452L10.3881 1.7785C10.575 1.59335 10.698 1.32382 10.698 1.02089ZM4.06716 8.49979L7.43082 8.62655L19.5707 8.62655C20.2041 8.62655 20.648 8.18964 20.648 7.56054C20.648 6.93144 20.2041 6.49453 19.5707 6.49453L7.43082 6.49453L4.06716 6.62305C3.5488 6.64609 3.12791 7.05019 3.12791 7.56054C3.12791 8.0789 3.5488 8.47499 4.06716 8.49979Z" fill="white" fill-opacity="0.85"/>
 </g>
</svg>
