<?xml version="1.0" encoding="UTF-8"?>
<!--Generator: Apple Native CoreSVG 341-->
<!DOCTYPE svg
PUBLIC "-//W3C//DTD SVG 1.1//EN"
       "http://www.w3.org/Graphics/SVG/1.1/DTD/svg11.dtd">
<svg version="1.1" xmlns="http://www.w3.org/2000/svg" xmlns:xlink="http://www.w3.org/1999/xlink" viewBox="0 0 18.5894 18.2316">
 <g>
  <rect height="18.2316" opacity="0" width="18.5894" x="0" y="0"/>
  <path d="M3.20351 18.2281L15.0246 18.2281C17.1404 18.2281 18.2281 17.1502 18.2281 15.0646L18.2281 3.17148C18.2281 1.08769 17.1404 0 15.0246 0L3.20351 0C1.0957 0 0 1.08769 0 3.17148L0 15.0646C0 17.1502 1.0957 18.2281 3.20351 18.2281ZM3.31444 16.3148C2.40643 16.3148 1.91327 15.8465 1.91327 14.8977L1.91327 3.34023C1.91327 2.39139 2.40643 1.91503 3.31444 1.91503L14.9137 1.91503C15.8137 1.91503 16.3148 2.39139 16.3148 3.34023L16.3148 14.8977C16.3148 15.8465 15.8137 16.3148 14.9137 16.3148Z" fill="white" fill-opacity="0.85"/>
  <path d="M10.8422 4.04257C10.6176 4.04257 10.4055 4.13847 10.2422 4.308L7.57968 6.91269C7.43593 7.05644 7.36406 7.23652 7.36406 7.44687C7.36406 7.84706 7.69941 8.18593 8.11913 8.18593C8.31171 8.18593 8.50605 8.10429 8.64804 7.95527L9.73379 6.79081L10.8174 5.28769L12.0904 6.96249L13.0398 7.94726C13.1658 8.08652 13.3539 8.18241 13.5625 8.18241C13.9867 8.18241 14.3176 7.84179 14.3176 7.43535C14.3176 7.22675 14.2457 7.04843 14.0922 6.90468L11.4502 4.308C11.2887 4.14023 11.0801 4.04257 10.8422 4.04257ZM4.71132 7.97637C4.2287 7.97637 3.94316 8.325 3.94316 8.80214L3.94316 10.1611C3.94316 12.4603 5.4291 14.142 7.78437 14.142C10.1228 14.142 11.5697 12.4666 11.5697 10.1656L11.5697 7.28007L11.5201 5.40546C11.5086 5.02304 11.2176 4.71874 10.8432 4.71874C10.459 4.71874 10.1697 5.02304 10.1564 5.40546L10.0988 7.28007L10.0988 10.1656C10.0988 11.5432 9.28105 12.5816 7.85019 12.5816C6.3828 12.5816 5.46269 11.5689 5.46269 10.1611L5.46269 8.78789C5.46269 8.32676 5.19042 7.97637 4.71132 7.97637Z" fill="white" fill-opacity="0.85"/>
 </g>
</svg>
