<?xml version="1.0" encoding="UTF-8"?>
<!--Generator: Apple Native CoreSVG 341-->
<!DOCTYPE svg
PUBLIC "-//W3C//DTD SVG 1.1//EN"
       "http://www.w3.org/Graphics/SVG/1.1/DTD/svg11.dtd">
<svg version="1.1" xmlns="http://www.w3.org/2000/svg" xmlns:xlink="http://www.w3.org/1999/xlink" viewBox="0 0 21.7859 18.1695">
 <g>
  <rect height="18.1695" opacity="0" width="21.7859" x="0" y="0"/>
  <path d="M2.93691 5.03711C1.43125 5.03711 0.548437 5.89941 0.548437 7.38906L0.548437 10.8016C0.548437 12.2912 1.43125 13.15 2.93691 13.15L14.7854 13.15C16.299 13.15 17.1738 12.2912 17.1738 10.8016L17.1738 7.38906C17.1738 5.89941 16.299 5.03711 14.7854 5.03711ZM10.7586 16.859C10.7586 17.6029 11.3189 18.1633 12.0727 18.1633C12.5986 18.1633 13.0191 17.9521 13.5301 17.4758L21.2598 10.2127C21.6379 9.85409 21.7859 9.4373 21.7859 9.08164C21.7859 8.71093 21.6494 8.31094 21.2615 7.94433L13.5301 0.737303C12.9686 0.212109 12.6059 0 12.0887 0C11.3189 0 10.7586 0.602146 10.7586 1.34609Z" fill="white" fill-opacity="0.85"/>
 </g>
</svg>
