<?xml version="1.0" encoding="UTF-8"?>
<!--Generator: Apple Native CoreSVG 341-->
<!DOCTYPE svg
PUBLIC "-//W3C//DTD SVG 1.1//EN"
       "http://www.w3.org/Graphics/SVG/1.1/DTD/svg11.dtd">
<svg version="1.1" xmlns="http://www.w3.org/2000/svg" xmlns:xlink="http://www.w3.org/1999/xlink" viewBox="0 0 18.5894 18.2316">
 <g>
  <rect height="18.2316" opacity="0" width="18.5894" x="0" y="0"/>
  <path d="M3.20351 18.2281L15.0246 18.2281C17.1404 18.2281 18.2281 17.1502 18.2281 15.0646L18.2281 3.17148C18.2281 1.08769 17.1404 0 15.0246 0L3.20351 0C1.0957 0 0 1.08769 0 3.17148L0 15.0646C0 17.1502 1.0957 18.2281 3.20351 18.2281ZM3.31444 16.3148C2.40643 16.3148 1.91327 15.8465 1.91327 14.8977L1.91327 3.34023C1.91327 2.39139 2.40643 1.91503 3.31444 1.91503L14.9137 1.91503C15.8137 1.91503 16.3148 2.39139 16.3148 3.34023L16.3148 14.8977C16.3148 15.8465 15.8137 16.3148 14.9137 16.3148Z" fill="white" fill-opacity="0.85"/>
  <path d="M9.12695 14.0961C9.62773 14.0961 10.0435 13.6893 10.0435 13.2088L10.0435 7.97264L9.94608 5.88866C9.93105 5.39296 9.54882 5.09179 9.12695 5.09179C8.70508 5.09179 8.33262 5.39296 8.30781 5.88866L8.22012 7.97264L8.22012 13.2088C8.22012 13.6893 8.62969 14.0961 9.12695 14.0961ZM9.12695 4.12578C8.89121 4.12578 8.67148 4.20019 8.4375 4.4289L5.21582 7.53789C5.04375 7.70371 4.95332 7.87753 4.95332 8.12402C4.95332 8.5744 5.30957 8.90429 5.76015 8.90429C5.98261 8.90429 6.21679 8.81034 6.3746 8.63476L7.75351 7.15897L8.90547 5.84725L9.35018 5.84725L10.5004 7.15897L11.8793 8.63476C12.0371 8.81034 12.265 8.90429 12.4857 8.90429C12.9363 8.90429 13.3006 8.5744 13.3006 8.12402C13.3006 7.87753 13.2101 7.70371 13.0478 7.53789L9.81815 4.4289C9.58417 4.20019 9.3707 4.12578 9.12695 4.12578Z" fill="white" fill-opacity="0.85"/>
 </g>
</svg>
