<?xml version="1.0" encoding="UTF-8"?>
<!--Generator: Apple Native CoreSVG 341-->
<!DOCTYPE svg
PUBLIC "-//W3C//DTD SVG 1.1//EN"
       "http://www.w3.org/Graphics/SVG/1.1/DTD/svg11.dtd">
<svg version="1.1" xmlns="http://www.w3.org/2000/svg" xmlns:xlink="http://www.w3.org/1999/xlink" viewBox="0 0 23.4906 18.2316">
 <g>
  <rect height="18.2316" opacity="0" width="23.4906" x="0" y="0"/>
  <path d="M3.20351 18.2316L19.9258 18.2316C22.0416 18.2316 23.1293 17.1519 23.1293 15.0682L23.1293 3.17499C23.1293 1.08945 22.0416 0.00351548 19.9258 0.00351548L3.20351 0.00351548C1.0957 0.00351548 0 1.08945 0 3.17499L0 15.0682C0 17.1519 1.0957 18.2316 3.20351 18.2316ZM3.31444 16.3184C2.40643 16.3184 1.91327 15.8482 1.91327 14.8994L1.91327 3.34198C1.91327 2.39315 2.40643 1.91678 3.31444 1.91678L19.8148 1.91678C20.7149 1.91678 21.216 2.39315 21.216 3.34198L21.216 14.8994C21.216 15.8482 20.7149 16.3184 19.8148 16.3184Z" fill="white" fill-opacity="0.85"/>
  <path d="M10.3705 3.60272C9.94629 3.60272 9.65351 3.91952 9.65351 4.35975L9.65351 5.45527L9.87832 7.74335L7.66836 7.51601L6.49199 7.51601C6.04375 7.51601 5.7332 7.80878 5.7332 8.233C5.7332 8.65546 6.04375 8.95624 6.47421 8.95624L10.2309 8.95624C10.7594 8.95624 11.0955 8.67792 11.0955 8.09511L11.0955 4.37577C11.0955 3.93554 10.7947 3.60272 10.3705 3.60272ZM6.17968 3.31561C5.75117 3.31561 5.43808 3.6287 5.43808 4.07147C5.43808 4.27108 5.53749 4.47245 5.68554 4.62049L7.57422 6.52343L8.99492 7.77773C9.75722 8.44452 10.6018 7.61445 9.92402 6.86425L8.64941 5.44823L6.76952 3.56034C6.60819 3.40077 6.41308 3.31561 6.17968 3.31561ZM12.7588 14.6324C13.183 14.6324 13.4758 14.3219 13.4758 13.8816L13.4758 12.7861L13.251 10.498L15.4609 10.7271L16.6373 10.7271C17.0855 10.7271 17.4041 10.4344 17.4041 10.0102C17.4041 9.58594 17.0855 9.28516 16.6533 9.28516L12.9064 9.28516C12.3779 9.28516 12.0338 9.55547 12.0338 10.148L12.0338 13.8656C12.0338 14.3059 12.3346 14.6324 12.7588 14.6324ZM16.9496 14.9178C17.3781 14.9178 17.6992 14.6127 17.6992 14.1699C17.6992 13.9721 17.5998 13.7609 17.4518 13.6129L15.5551 11.718L14.1344 10.4637C13.3801 9.79687 12.5355 10.6287 13.2053 11.3691L14.4799 12.7932L16.3598 14.673C16.5211 14.8344 16.7162 14.9178 16.9496 14.9178Z" fill="white" fill-opacity="0.85"/>
 </g>
</svg>
