<?xml version="1.0" encoding="UTF-8"?>
<!--Generator: Apple Native CoreSVG 341-->
<!DOCTYPE svg
PUBLIC "-//W3C//DTD SVG 1.1//EN"
       "http://www.w3.org/Graphics/SVG/1.1/DTD/svg11.dtd">
<svg version="1.1" xmlns="http://www.w3.org/2000/svg" xmlns:xlink="http://www.w3.org/1999/xlink" viewBox="0 0 11.07 19.7918">
 <g>
  <rect height="19.7918" opacity="0" width="11.07" x="0" y="0"/>
  <path d="M0.745483 4.80389L5.61109 4.80389C6.35367 4.80389 6.55406 4.24979 6.13023 3.64941L3.80211 0.370702C3.4527-0.116211 2.91188-0.120703 2.55622 0.370702L0.224585 3.6414C-0.205491 4.24804-0.0103745 4.80389 0.745483 4.80389ZM9.40523 16.4511C10.0646 16.6631 10.5363 16.2703 10.6703 15.7871C10.7945 15.3304 10.6076 14.7984 10.0003 14.6068C6.13296 13.3402 4.12477 10.8695 4.12477 7.30545L4.12477 3.43632C4.12477 2.9123 3.69743 2.4787 3.1734 2.4787C2.64938 2.4787 2.21579 2.9123 2.21579 3.43632L2.21579 7.30545C2.21579 11.7465 4.73746 14.9142 9.40523 16.4511ZM4.12477 3.43632C4.12477 2.9123 3.69743 2.4787 3.1734 2.4787C2.64938 2.4787 2.21579 2.9123 2.21579 3.43632L2.21579 18.8422C2.21579 19.3662 2.64938 19.7918 3.1734 19.7918C3.69743 19.7918 4.12477 19.3662 4.12477 18.8422Z" fill="white" fill-opacity="0.85"/>
 </g>
</svg>
