<?xml version="1.0" encoding="UTF-8"?>
<!--Generator: Apple Native CoreSVG 341-->
<!DOCTYPE svg
PUBLIC "-//W3C//DTD SVG 1.1//EN"
       "http://www.w3.org/Graphics/SVG/1.1/DTD/svg11.dtd">
<svg version="1.1" xmlns="http://www.w3.org/2000/svg" xmlns:xlink="http://www.w3.org/1999/xlink" viewBox="0 0 21.7016 18.1695">
 <g>
  <rect height="18.1695" opacity="0" width="21.7016" x="0" y="0"/>
  <path d="M11.9883 18.1633C12.5143 18.1633 12.9365 17.9521 13.4457 17.4758L21.1754 10.2127C21.5553 9.85409 21.7016 9.4373 21.7016 9.08164C21.7016 8.71093 21.565 8.31094 21.1771 7.94433L13.4457 0.737303C12.8842 0.212109 12.5232 0 12.0043 0C11.2363 0 10.6742 0.602146 10.6742 1.34609L10.6742 4.84942L10.4315 4.84942C3.65957 4.84942 0.546679 9.20196 0.546679 16.2992C0.546679 17.4924 1.06386 18.1228 1.73886 18.1228C2.23866 18.1228 2.72128 17.9689 3.09999 17.2631C4.64452 14.3773 6.84375 13.3377 10.4315 13.3377L10.6742 13.3377L10.6742 16.859C10.6742 17.6029 11.2363 18.1633 11.9883 18.1633ZM12.5994 15.6805C12.5178 15.6805 12.4539 15.6166 12.4539 15.5234L12.4539 11.8971C12.4539 11.6742 12.358 11.5783 12.1352 11.5783L10.8811 11.5783C6.38476 11.5783 3.52596 13.0191 2.35253 15.4527C2.32499 15.5193 2.3037 15.5469 2.25839 15.5469C2.21932 15.5469 2.19003 15.5176 2.19003 15.4447C2.35546 10.8037 4.53065 6.59296 10.8811 6.59296L12.1352 6.59296C12.358 6.59296 12.4539 6.49706 12.4539 6.27421L12.4539 2.56776C12.4539 2.4826 12.5178 2.42225 12.6074 2.42225C12.6643 2.42225 12.7211 2.45604 12.7699 2.4951L19.4664 8.8996C19.5348 8.96796 19.5623 9.02304 19.5623 9.08164C19.5623 9.13847 19.5428 9.1873 19.4664 9.26367L12.7619 15.5943C12.7131 15.6512 12.6562 15.6805 12.5994 15.6805Z" fill="white" fill-opacity="0.85"/>
 </g>
</svg>
