<?xml version="1.0" encoding="UTF-8"?>
<!--Generator: Apple Native CoreSVG 341-->
<!DOCTYPE svg
PUBLIC "-//W3C//DTD SVG 1.1//EN"
       "http://www.w3.org/Graphics/SVG/1.1/DTD/svg11.dtd">
<svg version="1.1" xmlns="http://www.w3.org/2000/svg" xmlns:xlink="http://www.w3.org/1999/xlink" viewBox="0 0 24.3311 20.1848">
 <g>
  <rect height="20.1848" opacity="0" width="24.3311" x="0" y="0"/>
  <path d="M0.721107 8.33984C-0.00838452 8.33984-0.191197 8.87715 0.203725 9.42929L2.47384 12.5805C2.79083 13.0254 3.27716 13.0174 3.5879 12.5805L5.85626 9.42129C6.23965 8.87715 6.06036 8.33984 5.34063 8.33984ZM11.9858 1.9871C14.2408 1.9871 16.2782 2.91776 17.7225 4.43144C18.2557 4.90957 18.767 4.83027 19.1094 4.51856C19.5069 4.17852 19.6154 3.50392 19.1096 3.02931C17.3151 1.15879 14.7783 0 11.9858 0C6.41564 0 1.90451 4.50937 1.8965 10.099C1.90451 10.6396 2.34142 11.0766 2.88204 11.0766C3.43243 11.0766 3.8836 10.6316 3.8836 10.091C3.8836 5.60839 7.50665 1.9871 11.9858 1.9871ZM23.2486 11.8351C23.9719 11.8351 24.1609 11.2898 23.766 10.7457L21.4977 7.58652C21.1807 7.1496 20.6926 7.15761 20.3818 7.58652L18.1152 10.7537C17.7301 11.2898 17.9094 11.8351 18.6309 11.8351ZM11.9858 18.1879C9.72891 18.1879 7.6916 17.2475 6.24726 15.7355C5.71406 15.2637 5.20274 15.3447 4.86036 15.6484C4.4629 15.9965 4.3543 16.6613 4.86016 17.1457C6.65645 19.0162 9.19317 20.175 11.9858 20.175C17.5541 20.175 22.0652 15.6639 22.0732 10.0742C22.0652 9.53359 21.6283 9.09043 21.0877 9.09043C20.5311 9.09043 20.0862 9.5416 20.0862 10.084C20.0862 14.5666 16.4649 18.1879 11.9858 18.1879Z" fill="white" fill-opacity="0.85"/>
 </g>
</svg>
