<?xml version="1.0" encoding="UTF-8"?>
<!--Generator: Apple Native CoreSVG 341-->
<!DOCTYPE svg
PUBLIC "-//W3C//DTD SVG 1.1//EN"
       "http://www.w3.org/Graphics/SVG/1.1/DTD/svg11.dtd">
<svg version="1.1" xmlns="http://www.w3.org/2000/svg" xmlns:xlink="http://www.w3.org/1999/xlink" viewBox="0 0 18.5894 18.2316">
 <g>
  <rect height="18.2316" opacity="0" width="18.5894" x="0" y="0"/>
  <path d="M18.2281 3.17148L18.2281 15.0646C18.2281 17.1502 17.1404 18.2281 15.0246 18.2281L3.20351 18.2281C1.0957 18.2281 0 17.1502 0 15.0646L0 3.17148C0 1.08769 1.0957 0 3.20351 0L15.0246 0C17.1404 0 18.2281 1.08769 18.2281 3.17148ZM5.4328 12.9277C4.99999 12.9277 4.68437 13.2514 4.68437 13.6744C4.68437 14.1152 4.99999 14.4389 5.4328 14.4389L12.8553 14.4389C13.2881 14.4389 13.6037 14.1152 13.6037 13.6744C13.6037 13.2514 13.2881 12.9277 12.8553 12.9277ZM8.35703 4.03768L8.35703 8.24102L8.47597 9.97247L6.85272 8.14219L6.26874 7.51192C6.12421 7.35762 5.95214 7.27969 5.71718 7.27969C5.28085 7.27969 4.97675 7.59004 4.97675 8.02715C4.97675 8.21426 5.06367 8.44492 5.21347 8.59121L8.55742 11.9623C8.71621 12.1256 8.9166 12.216 9.13203 12.216C9.35546 12.216 9.54784 12.1096 9.70487 11.9623L13.0603 8.59922C13.2422 8.43867 13.3096 8.23828 13.3096 8.02715C13.3096 7.60606 12.9992 7.27969 12.5824 7.27969C12.3617 7.27969 12.1639 7.35938 12.0176 7.51192L11.3855 8.1502L9.78632 9.96446L9.89726 8.24102L9.89726 4.03768C9.89726 3.57402 9.58066 3.25038 9.13203 3.25038C8.66738 3.25038 8.35703 3.57402 8.35703 4.03768Z" fill="white" fill-opacity="0.85"/>
 </g>
</svg>
