<?xml version="1.0" encoding="UTF-8"?>
<!--Generator: Apple Native CoreSVG 341-->
<!DOCTYPE svg
PUBLIC "-//W3C//DTD SVG 1.1//EN"
       "http://www.w3.org/Graphics/SVG/1.1/DTD/svg11.dtd">
<svg version="1.1" xmlns="http://www.w3.org/2000/svg" xmlns:xlink="http://www.w3.org/1999/xlink" viewBox="0 0 22.8129 22.46">
 <g>
  <rect height="22.46" opacity="0" width="22.8129" x="0" y="0"/>
  <path d="M1.13018 13.4835L8.96651 21.3198C10.461 22.8144 11.9905 22.8224 13.4753 21.3456L21.3454 13.4675C22.8239 11.989 22.8142 10.4532 21.3214 8.95872L13.4913 1.12864C11.9985-0.364134 10.469-0.380149 8.98428 1.10461L1.1044 8.97473C-0.380365 10.4613-0.364349 11.989 1.13018 13.4835ZM2.56884 12.2185C1.91493 11.5646 1.89989 10.8989 2.57685 10.222L10.2235 2.57531C10.9005 1.89835 11.5661 1.91339 12.22 2.5673L19.8827 10.23C20.5286 10.8759 20.5517 11.5513 19.8747 12.2265L12.228 19.8749C11.5511 20.5501 10.8694 20.5288 10.2315 19.8909Z" fill="white" fill-opacity="0.85"/>
  <path d="M8.33056 15.8359C8.76689 15.8359 9.1165 15.4882 9.1165 15.0456L9.1165 11.1636C9.1165 10.3974 9.59638 9.91828 10.3669 9.91828L13.8813 9.91828C14.3089 9.91828 14.661 9.57414 14.661 9.13859C14.661 8.70754 14.3089 8.34914 13.8813 8.34914L10.3589 8.34914C8.63662 8.34914 7.55088 9.42785 7.55088 11.1298L7.55088 15.0456C7.55088 15.4882 7.89072 15.8359 8.33056 15.8359ZM12.9806 7.39289L12.9806 10.8782C12.9806 11.4507 13.4151 11.6298 13.8649 11.2962L16.255 9.6257C16.6356 9.35246 16.6401 8.93293 16.255 8.65695L13.8729 6.97844C13.4187 6.63508 12.9806 6.80891 12.9806 7.39289Z" fill="white" fill-opacity="0.85"/>
 </g>
</svg>
