<?xml version="1.0" encoding="UTF-8"?>
<!--Generator: Apple Native CoreSVG 341-->
<!DOCTYPE svg
PUBLIC "-//W3C//DTD SVG 1.1//EN"
       "http://www.w3.org/Graphics/SVG/1.1/DTD/svg11.dtd">
<svg version="1.1" xmlns="http://www.w3.org/2000/svg" xmlns:xlink="http://www.w3.org/1999/xlink" viewBox="0 0 20.5381 20.1848">
 <g>
  <rect height="20.1848" opacity="0" width="20.5381" x="0" y="0"/>
  <path d="M10.0875 20.175C15.6576 20.175 20.1767 15.6559 20.1767 10.0875C20.1767 4.51914 15.6576 0 10.0875 0C4.51914 0 0 4.51914 0 10.0875C0 15.6559 4.51914 20.175 10.0875 20.175ZM10.0875 18.1879C5.60839 18.1879 1.9871 14.5666 1.9871 10.0875C1.9871 5.60839 5.60839 1.9871 10.0875 1.9871C14.5666 1.9871 18.1897 5.60839 18.1897 10.0875C18.1897 14.5666 14.5666 18.1879 10.0875 18.1879Z" fill="white" fill-opacity="0.85"/>
  <path d="M7.9914 15.1727C8.22401 15.1727 8.42812 15.0768 8.59765 14.9072L11.2539 12.3008C11.3976 12.157 11.4695 11.9787 11.4695 11.7666C11.4695 11.3682 11.1422 11.0355 10.7144 11.0355C10.5219 11.0355 10.3275 11.1092 10.1935 11.26L9.09979 12.4324L8.01444 13.9275L6.74316 12.259L5.80175 11.268C5.66601 11.1287 5.47968 11.0408 5.27108 11.0408C4.85312 11.0408 4.51601 11.3717 4.51601 11.7799C4.51601 11.9885 4.58788 12.1668 4.7414 12.3088L7.38339 14.9072C7.55292 15.075 7.76151 15.1727 7.9914 15.1727ZM14.1223 11.2371C14.6129 11.2371 14.8904 10.8902 14.8904 10.4131L14.8904 9.0541C14.8904 6.75488 13.4045 5.07324 11.0572 5.07324C8.71073 5.07324 7.27187 6.74863 7.27187 9.0496L7.27187 11.9334L7.31347 13.8098C7.32499 14.1922 7.61601 14.4947 7.99042 14.4947C8.37284 14.4947 8.66386 14.1922 8.67714 13.8098L8.74276 11.9334L8.74276 9.0496C8.74276 7.67206 9.55077 6.63358 10.9914 6.63358C12.4588 6.63358 13.3709 7.64452 13.3709 9.0541L13.3709 10.4273C13.3709 10.8885 13.6432 11.2371 14.1223 11.2371Z" fill="white" fill-opacity="0.85"/>
 </g>
</svg>
