<?xml version="1.0" encoding="UTF-8"?>
<!--Generator: Apple Native CoreSVG 341-->
<!DOCTYPE svg
PUBLIC "-//W3C//DTD SVG 1.1//EN"
       "http://www.w3.org/Graphics/SVG/1.1/DTD/svg11.dtd">
<svg version="1.1" xmlns="http://www.w3.org/2000/svg" xmlns:xlink="http://www.w3.org/1999/xlink" viewBox="0 0 23.4906 18.2316">
 <g>
  <rect height="18.2316" opacity="0" width="23.4906" x="0" y="0"/>
  <path d="M23.1293 3.17499L23.1293 15.0682C23.1293 17.1519 22.0416 18.2316 19.9258 18.2316L3.20351 18.2316C1.0957 18.2316 0 17.1519 0 15.0682L0 3.17499C0 1.08945 1.0957 0.00351548 3.20351 0.00351548L19.9258 0.00351548C22.0416 0.00351548 23.1293 1.08945 23.1293 3.17499ZM6.28105 9.32207C5.82578 9.32207 5.50195 9.63437 5.50195 10.0816C5.50195 10.5191 5.82578 10.835 6.29707 10.835L7.50801 10.835L8.71209 10.7111L7.40586 11.8586L5.45781 13.8129C5.30625 13.9725 5.19707 14.1854 5.19707 14.3965C5.19707 14.8623 5.52519 15.1824 5.97675 15.1824C6.22167 15.1824 6.42206 15.0875 6.59491 14.9244L8.53242 12.9869L9.70748 11.6638L9.57734 12.9701L9.57734 14.1002C9.57734 14.5617 9.8834 14.8855 10.3209 14.8855C10.7699 14.8855 11.0822 14.5457 11.0822 14.0842L11.0822 10.2248C11.0822 9.60742 10.7328 9.32207 10.176 9.32207ZM16.5344 3.30897L14.5969 5.25449L13.4227 6.56948L13.5519 5.27128L13.5519 4.14296C13.5519 3.67968 13.2459 3.34784 12.8084 3.34784C12.3594 3.34784 12.0471 3.6957 12.0471 4.15898L12.0471 8.0166C12.0471 8.62773 12.4045 8.91933 12.9613 8.91933L16.8482 8.91933C17.3035 8.91933 17.6353 8.60702 17.6353 8.15976C17.6353 7.72226 17.3035 7.40644 16.8322 7.40644L15.6213 7.40644L14.416 7.53131L15.7234 6.3828L17.6795 4.42225C17.8311 4.26268 17.9402 4.0578 17.9402 3.84667C17.9402 3.37909 17.6041 3.05097 17.1525 3.05097C16.9076 3.05097 16.7072 3.14589 16.5344 3.30897Z" fill="white" fill-opacity="0.85"/>
 </g>
</svg>
