<?xml version="1.0" encoding="UTF-8"?>
<!--Generator: Apple Native CoreSVG 341-->
<!DOCTYPE svg
PUBLIC "-//W3C//DTD SVG 1.1//EN"
       "http://www.w3.org/Graphics/SVG/1.1/DTD/svg11.dtd">
<svg version="1.1" xmlns="http://www.w3.org/2000/svg" xmlns:xlink="http://www.w3.org/1999/xlink" viewBox="0 0 18.573 18.2195">
 <g>
  <rect height="18.2195" opacity="0" width="18.573" x="0" y="0"/>
  <path d="M16.8109 1.39277C17.7262 2.29824 18.2117 3.64141 18.2117 5.35039L18.2117 12.8621C18.2117 14.5693 17.7262 15.9143 16.8109 16.818C15.9232 17.7092 14.5801 18.2107 12.8631 18.2107L5.34238 18.2107C3.6334 18.2107 2.28848 17.7172 1.39277 16.818C0.477539 15.9143 0 14.5693 0 12.8621L0 5.35039C0 3.64141 0.485547 2.29824 1.39277 1.39277C2.28047 0.50332 3.6334 0 5.34238 0L12.8631 0C14.5801 0 15.9152 0.495312 16.8109 1.39277ZM7.33164 5.09688C6.78379 5.09688 6.42032 5.425 6.42032 5.92949C6.42032 6.44023 6.78828 6.76835 7.34238 6.76835L9.0375 6.76835L10.474 6.57806L8.93047 7.98906L5.38398 11.5258C5.20762 11.7021 5.0959 11.9477 5.0959 12.1834C5.0959 12.725 5.46621 13.0777 5.98749 13.0777C6.26503 13.0777 6.48925 12.9793 6.67792 12.7924L10.2076 9.26444L11.5966 7.73496L11.4256 9.23827L11.4256 10.8437C11.4256 11.3978 11.76 11.7578 12.2725 11.7578C12.7752 11.7578 13.1016 11.3756 13.1016 10.8312L13.1016 6.11152C13.1016 5.41211 12.7125 5.09688 12.0754 5.09688Z" fill="white" fill-opacity="0.85"/>
 </g>
</svg>
