<?xml version="1.0" encoding="UTF-8"?>
<!--Generator: Apple Native CoreSVG 341-->
<!DOCTYPE svg
PUBLIC "-//W3C//DTD SVG 1.1//EN"
       "http://www.w3.org/Graphics/SVG/1.1/DTD/svg11.dtd">
<svg version="1.1" xmlns="http://www.w3.org/2000/svg" xmlns:xlink="http://www.w3.org/1999/xlink" viewBox="0 0 18.5894 18.2316">
 <g>
  <rect height="18.2316" opacity="0" width="18.5894" x="0" y="0"/>
  <path d="M18.2281 3.17148L18.2281 15.0646C18.2281 17.1502 17.1404 18.2281 15.0246 18.2281L3.20351 18.2281C1.0957 18.2281 0 17.1502 0 15.0646L0 3.17148C0 1.08769 1.0957 0 3.20351 0L15.0246 0C17.1404 0 18.2281 1.08769 18.2281 3.17148ZM6.23144 8.03496L6.23144 11.0215L6.25559 12.1107L5.68144 11.3551L4.70546 10.334C4.57597 10.185 4.37187 10.0936 4.15976 10.0936C3.71874 10.0936 3.36659 10.443 3.36659 10.8644C3.36659 11.0828 3.43847 11.2744 3.60351 11.4182L6.34648 14.1238C6.52577 14.2951 6.74765 14.4025 6.97929 14.4025C7.22343 14.4025 7.43905 14.2969 7.62187 14.1238L10.3773 11.4102C10.5308 11.2646 10.6045 11.073 10.6045 10.8512C10.6045 10.4359 10.2621 10.09 9.81132 10.09C9.60722 10.09 9.40937 10.1654 9.26562 10.326L8.14706 11.5348L7.73143 12.1041L7.76874 11.0215L7.76874 8.03496C7.76874 6.60156 8.60507 5.52675 10.0998 5.52675C11.6248 5.52675 12.5697 6.57402 12.5697 8.03769L12.5697 9.4623C12.5697 9.94198 12.8553 10.3057 13.3592 10.3057C13.8683 10.3057 14.1592 9.94374 14.1592 9.44804L14.1592 8.03769C14.1592 5.64101 12.6121 3.88847 10.1656 3.88847C7.72968 3.88847 6.23144 5.63476 6.23144 8.03496Z" fill="white" fill-opacity="0.85"/>
 </g>
</svg>
