<?xml version="1.0" encoding="UTF-8"?>
<!--Generator: Apple Native CoreSVG 341-->
<!DOCTYPE svg
PUBLIC "-//W3C//DTD SVG 1.1//EN"
       "http://www.w3.org/Graphics/SVG/1.1/DTD/svg11.dtd">
<svg version="1.1" xmlns="http://www.w3.org/2000/svg" xmlns:xlink="http://www.w3.org/1999/xlink" viewBox="0 0 20.9623 23.2225">
 <g>
  <rect height="23.2225" opacity="0" width="20.9623" x="0" y="0"/>
  <path d="M2.8289 20.7333L7.80313 20.7333C8.34824 20.7333 8.75156 20.346 8.75156 19.8169C8.75156 19.2878 8.34824 18.8925 7.80313 18.8925L2.94413 18.8925C2.34061 18.8925 1.94061 18.4115 1.94061 17.871C1.94061 17.7005 1.98045 17.4892 2.0826 17.3124L4.82382 12.3845C5.05507 11.9716 4.98984 11.3634 4.49961 11.0806C4.01289 10.7915 3.44473 11.0685 3.22149 11.4734L0.405272 16.4955C0.155077 16.9515 0 17.4263 0 17.915C0 19.4814 1.06504 20.7333 2.8289 20.7333ZM5.7164 15.2638C6.17929 15.1468 6.4453 14.7017 6.31405 14.2265L5.50253 11.0027C5.40761 10.6505 5.25155 10.4048 4.97304 10.246C4.69277 10.0757 4.41249 10.0589 4.05058 10.1654L0.864056 11.0683C0.372848 11.2031 0.124607 11.665 0.257614 12.1101C0.384371 12.5783 0.842767 12.854 1.32148 12.698L4.0209 11.8968L4.67109 14.6335C4.77832 15.1255 5.25449 15.3906 5.7164 15.2638ZM14.074 9.32671C14.3649 9.85874 14.8637 10.0103 15.3584 9.71597C15.8398 9.43315 15.9576 8.93082 15.6721 8.41383L12.7103 3.13354C12.1894 2.2062 11.2496 1.72514 10.3062 1.72514C9.35312 1.72514 8.42129 2.20268 7.89062 3.13354L5.33066 7.70542C5.03984 8.21343 5.18359 8.72475 5.6453 8.99155C6.11679 9.25034 6.65838 9.0978 6.92342 8.62983L9.41659 4.15443C9.61484 3.80599 9.9623 3.65931 10.3027 3.65931C10.6449 3.65931 10.9809 3.80774 11.1729 4.15618ZM14.8969 10.6408C15.2535 10.7357 15.5373 10.7286 15.8158 10.5601C16.0961 10.3898 16.2504 10.1636 16.3453 9.8017L17.1488 6.57787C17.2801 6.10092 17.0186 5.65229 16.5539 5.54057C16.092 5.42084 15.6176 5.68061 15.5121 6.16732L14.8637 8.90757L12.158 8.10991C11.6855 7.96186 11.2201 8.22788 11.0906 8.69955C10.9727 9.14818 11.2174 9.60306 11.7006 9.73783ZM12.0107 20.7333L17.7721 20.7333C19.5359 20.7333 20.601 19.4814 20.601 17.915C20.601 17.4263 20.4557 16.9648 20.1957 16.4955L17.7607 12.1505C17.4957 11.6585 16.9506 11.5345 16.4986 11.7995C16.0404 12.0663 15.8906 12.6185 16.1459 13.0794L18.5104 17.3124C18.6125 17.4892 18.6684 17.7005 18.6684 17.871C18.6684 18.4115 18.2523 18.8925 17.6488 18.8925L12.0107 18.8925C11.4051 18.8925 11.0303 19.2433 11.0303 19.8169C11.0303 20.3826 11.4051 20.7333 12.0107 20.7333ZM12.9516 22.9714C13.2947 23.3173 13.8205 23.2978 14.1441 22.9626C14.4873 22.6337 14.4838 22.0982 14.1221 21.748L12.0791 19.8169L14.1203 17.8876C14.4873 17.5357 14.4891 16.9966 14.1406 16.6695C13.8152 16.3298 13.293 16.3183 12.9428 16.6748L10.5598 18.9796C10.2945 19.2351 10.1748 19.4958 10.1748 19.8169C10.1748 20.1398 10.2945 20.3925 10.5598 20.648Z" fill="white" fill-opacity="0.85"/>
 </g>
</svg>
