<?xml version="1.0" encoding="UTF-8"?>
<!--Generator: Apple Native CoreSVG 341-->
<!DOCTYPE svg
PUBLIC "-//W3C//DTD SVG 1.1//EN"
       "http://www.w3.org/Graphics/SVG/1.1/DTD/svg11.dtd">
<svg version="1.1" xmlns="http://www.w3.org/2000/svg" xmlns:xlink="http://www.w3.org/1999/xlink" viewBox="0 0 16.9327 21.3844">
 <g>
  <rect height="21.3844" opacity="0" width="16.9327" x="0" y="0"/>
  <path d="M8.27993 0C4.57876 0 2.11412 2.4664 2.11412 6.18535L2.11412 7.88867C2.11412 8.41426 2.53775 8.83964 3.06333 8.83964C3.59067 8.83964 4.00629 8.41426 4.00629 7.88867L4.00629 6.18535C4.00629 3.61698 5.72134 1.89393 8.27993 1.89393C10.8563 1.89393 12.5731 3.61698 12.5731 6.18535L12.5731 15.1812C12.5731 17.7478 10.8563 19.4629 8.27993 19.4629C5.72134 19.4629 4.00629 17.7478 4.00629 15.1812L4.00629 13.9422C4.00629 13.4246 3.58266 12.9912 3.06333 12.9912C2.54576 12.9912 2.11412 13.4246 2.11412 13.9422L2.11412 15.1812C2.11412 18.8904 4.57876 21.3551 8.27993 21.3551C12.0006 21.3551 14.4653 18.8904 14.4653 15.1812L14.4653 6.18535C14.4653 2.4664 12.0006 0 8.27993 0ZM0.724662 15.0904L5.34419 15.0904C6.06391 15.0904 6.24321 14.5451 5.85981 14.001L3.59146 10.8418C3.28071 10.4031 2.79439 10.3951 2.47739 10.8418L0.20728 13.993C-0.195649 14.5451-0.00482864 15.0904 0.724662 15.0904Z" fill="white" fill-opacity="0.85"/>
 </g>
</svg>
