<?xml version="1.0" encoding="UTF-8"?>
<!--Generator: Apple Native CoreSVG 341-->
<!DOCTYPE svg
PUBLIC "-//W3C//DTD SVG 1.1//EN"
       "http://www.w3.org/Graphics/SVG/1.1/DTD/svg11.dtd">
<svg version="1.1" xmlns="http://www.w3.org/2000/svg" xmlns:xlink="http://www.w3.org/1999/xlink" viewBox="0 0 36.084 23.3418">
 <g>
  <rect height="23.3418" opacity="0" width="36.084" x="0" y="0"/>
  <path d="M10.8947 14.4805L10.8947 21.2555C10.8947 22.4404 10.0295 23.3162 8.86836 23.3162L2.01035 23.3162C0.849217 23.3162 0 22.4404 0 21.2555L0 14.4805C0 13.2937 0.849217 12.4117 2.01035 12.4117L8.86836 12.4117C10.0295 12.4117 10.8947 13.2937 10.8947 14.4805ZM23.3127 14.4805L23.3127 21.2555C23.3127 22.4404 22.4474 23.3162 21.2863 23.3162L14.4283 23.3162C13.2672 23.3162 12.418 22.4404 12.418 21.2555L12.418 14.4805C12.418 13.2937 13.2672 12.4117 14.4283 12.4117L21.2863 12.4117C22.4474 12.4117 23.3127 13.2937 23.3127 14.4805ZM35.7226 14.4805L35.7226 21.2555C35.7226 22.4404 34.8734 23.3162 33.7123 23.3162L26.8543 23.3162C25.6931 23.3162 24.8279 22.4404 24.8279 21.2555L24.8279 14.4805C24.8279 13.2937 25.6931 12.4117 26.8543 12.4117L33.7123 12.4117C34.8734 12.4117 35.7226 13.2937 35.7226 14.4805ZM6.52773 15.1865L2.89374 17.333C2.48476 17.5654 2.49277 18.175 2.90175 18.4092L6.52773 20.5379C6.95449 20.7898 7.48593 20.5174 7.48593 20.0517L7.48593 15.6629C7.48593 15.207 6.95801 14.9346 6.52773 15.1865ZM28.2367 15.6629L28.2367 20.0517C28.2367 20.5174 28.7664 20.7898 29.2029 20.5379L32.8289 18.4092C33.2281 18.175 33.2379 17.5654 32.8369 17.333L29.2029 15.1865C28.7646 14.9346 28.2367 15.207 28.2367 15.6629ZM15.6789 15.4519C15.2053 15.4519 14.9426 15.9719 15.1928 16.4084L17.3152 20.0344C17.5476 20.4353 18.1572 20.4433 18.3914 20.0424L20.5361 16.4084C20.7881 15.9816 20.5156 15.4519 20.058 15.4519ZM23.3127 2.06074L23.3127 8.84375C23.3127 10.0287 22.4474 10.8965 21.2863 10.8965L14.4283 10.8965C13.2672 10.8965 12.418 10.0287 12.418 8.84375L12.418 2.06074C12.418 0.874022 13.2672 0 14.4283 0L21.2863 0C22.4474 0 23.3127 0.874022 23.3127 2.06074ZM17.3152 3.28007L15.1928 6.90605C14.9346 7.33633 15.2053 7.86426 15.6709 7.86426L20.058 7.86426C20.5156 7.86426 20.7881 7.33457 20.5361 6.90605L18.3914 3.27207C18.1572 2.87109 17.5476 2.88086 17.3152 3.28007Z" fill="white" fill-opacity="0.85"/>
 </g>
</svg>
