<?xml version="1.0" encoding="UTF-8"?>
<!--Generator: Apple Native CoreSVG 341-->
<!DOCTYPE svg
PUBLIC "-//W3C//DTD SVG 1.1//EN"
       "http://www.w3.org/Graphics/SVG/1.1/DTD/svg11.dtd">
<svg version="1.1" xmlns="http://www.w3.org/2000/svg" xmlns:xlink="http://www.w3.org/1999/xlink" viewBox="0 0 18.5894 18.2316">
 <g>
  <rect height="18.2316" opacity="0" width="18.5894" x="0" y="0"/>
  <path d="M18.2281 3.17148L18.2281 15.0646C18.2281 17.1502 17.1404 18.2281 15.0246 18.2281L3.20351 18.2281C1.0957 18.2281 0 17.1502 0 15.0646L0 3.17148C0 1.08769 1.0957 0 3.20351 0L15.0246 0C17.1404 0 18.2281 1.08769 18.2281 3.17148ZM8.79375 3.81269L6.9748 5.65449C6.84707 5.77773 6.78144 5.95429 6.78144 6.13437C6.78144 6.31444 6.84707 6.49276 6.9748 6.61601L8.79375 8.4578C8.91347 8.58105 9.09531 8.67323 9.27792 8.67323C9.67695 8.67323 9.95116 8.36991 9.95116 8.01581C9.95116 7.81718 9.88027 7.66093 9.74628 7.52617L8.96939 6.74455C9.03095 6.74367 9.09392 6.74335 9.15761 6.74335C10.7635 6.74335 12.0064 7.98632 12.0064 9.58066C12.0064 11.1742 10.7371 12.4471 9.14003 12.4471C7.55273 12.4471 6.27987 11.1697 6.27987 9.58066C6.27987 9.18242 5.95077 8.85332 5.54452 8.85332C5.14628 8.85332 4.81718 9.18242 4.81718 9.58066C4.81718 11.9769 6.74374 13.9213 9.14003 13.9213C11.5346 13.9213 13.4709 11.9769 13.4709 9.55488C13.4709 7.21933 11.5879 5.29765 9.31328 5.29765C9.27373 5.29765 9.23407 5.29776 9.1938 5.2984L9.74628 4.74257C9.88027 4.6078 9.95116 4.45331 9.95116 4.25468C9.95116 3.90058 9.67695 3.59726 9.27792 3.59726C9.09531 3.59726 8.90547 3.69745 8.79375 3.81269Z" fill="white" fill-opacity="0.85"/>
 </g>
</svg>
