<?xml version="1.0" encoding="UTF-8"?>
<!--Generator: Apple Native CoreSVG 341-->
<!DOCTYPE svg
PUBLIC "-//W3C//DTD SVG 1.1//EN"
       "http://www.w3.org/Graphics/SVG/1.1/DTD/svg11.dtd">
<svg version="1.1" xmlns="http://www.w3.org/2000/svg" xmlns:xlink="http://www.w3.org/1999/xlink" viewBox="0 0 20.5381 20.1848">
 <g>
  <rect height="20.1848" opacity="0" width="20.5381" x="0" y="0"/>
  <path d="M10.0875 20.175C15.6576 20.175 20.1767 15.6559 20.1767 10.0875C20.1767 4.51914 15.6576 0 10.0875 0C4.51914 0 0 4.51914 0 10.0875C0 15.6559 4.51914 20.175 10.0875 20.175ZM10.0875 18.1879C5.60839 18.1879 1.9871 14.5666 1.9871 10.0875C1.9871 5.60839 5.60839 1.9871 10.0875 1.9871C14.5666 1.9871 18.1897 5.60839 18.1897 10.0875C18.1897 14.5666 14.5666 18.1879 10.0875 18.1879Z" fill="white" fill-opacity="0.85"/>
  <path d="M5.77772 7.93789C4.96835 7.93789 4.50155 8.39218 4.50155 9.18554L4.50155 11.0098C4.50155 11.7969 4.96835 12.2459 5.77772 12.2459L11.9385 12.2459C12.7398 12.2459 13.2066 11.7969 13.2066 11.0098L13.2066 9.18554C13.2066 8.39218 12.7398 7.93789 11.9385 7.93789ZM9.97383 5.94862L9.97383 14.2459C9.97383 14.6441 10.2674 14.9314 10.6594 14.9314C10.9389 14.9314 11.166 14.8187 11.426 14.5766L15.5637 10.6873C15.7687 10.4937 15.8459 10.2693 15.8459 10.0893C15.8459 9.89765 15.7705 9.67851 15.5637 9.4832L11.426 5.63398C11.135 5.358 10.9434 5.24706 10.6754 5.24706C10.2674 5.24706 9.97383 5.55839 9.97383 5.94862Z" fill="white" fill-opacity="0.85"/>
 </g>
</svg>
