<?xml version="1.0" encoding="UTF-8"?>
<!--Generator: Apple Native CoreSVG 341-->
<!DOCTYPE svg
PUBLIC "-//W3C//DTD SVG 1.1//EN"
       "http://www.w3.org/Graphics/SVG/1.1/DTD/svg11.dtd">
<svg version="1.1" xmlns="http://www.w3.org/2000/svg" xmlns:xlink="http://www.w3.org/1999/xlink" viewBox="0 0 16.0883 16.1476">
 <g>
  <rect height="16.1476" opacity="0" width="16.0883" x="0" y="0"/>
  <path d="M15.7269 1.38476C15.7269 0.600581 15.1228 0.0529283 14.1695 0.0529283L1.54941 0.0449204C0.596092 0.0449204 0 0.592573 0 1.37675C0 1.78847 0.175781 2.13183 0.39746 2.59296L6.40157 14.959C6.82754 15.8225 7.26191 16.1476 7.85859 16.1476C8.45702 16.1476 8.8994 15.8225 9.32362 14.959L15.3215 2.59296C15.5512 2.13983 15.7269 1.79648 15.7269 1.38476ZM13.3818 2.07264C13.3818 2.10819 13.3641 2.14549 13.3445 2.19432L7.9705 13.4451C7.94297 13.494 7.91367 13.5295 7.85859 13.5295C7.81328 13.5295 7.78398 13.494 7.75644 13.4451L2.38064 2.18631C2.35936 2.13748 2.34158 2.10018 2.34158 2.06463C2.34158 2.0078 2.37264 1.97049 2.44725 1.97049L13.2699 1.9785C13.3445 1.9785 13.3818 2.0158 13.3818 2.07264Z" fill="white" fill-opacity="0.85"/>
 </g>
</svg>
