<?xml version="1.0" encoding="UTF-8"?>
<!--Generator: Apple Native CoreSVG 341-->
<!DOCTYPE svg
PUBLIC "-//W3C//DTD SVG 1.1//EN"
       "http://www.w3.org/Graphics/SVG/1.1/DTD/svg11.dtd">
<svg version="1.1" xmlns="http://www.w3.org/2000/svg" xmlns:xlink="http://www.w3.org/1999/xlink" viewBox="0 0 17.107 21.1441">
 <g>
  <rect height="21.1441" opacity="0" width="17.107" x="0" y="0"/>
  <path d="M7.62929 7.38066C7.62929 8.60429 8.22324 9.19823 9.44511 9.19823L16.7457 9.19823L16.7457 17.9406C16.7457 20.0422 15.6678 21.1379 13.5742 21.1379L3.17148 21.1379C1.07968 21.1379 0 20.0502 0 17.9406L0 3.20527C0 1.10371 1.08769 0 3.17148 0L7.62929 0ZM7.71797 11.249L4.94355 13.7873C4.75566 13.9584 4.658 14.1402 4.658 14.4027C4.658 14.8568 4.9914 15.1867 5.46855 15.1867C5.68398 15.1867 5.9119 15.0777 6.06893 14.9119L6.81777 14.14L7.60256 13.3083L7.50762 14.9088L7.50762 18.1793C7.50762 18.6615 7.91191 19.0234 8.39863 19.0234C8.8871 19.0234 9.29765 18.6615 9.29765 18.1793L9.29765 14.9088L9.19792 13.3113L9.98124 14.14L10.7381 14.9119C10.8881 15.0777 11.1105 15.1867 11.3367 15.1867C11.7898 15.1867 12.149 14.8568 12.149 14.4027C12.149 14.1402 12.0416 13.9584 11.8537 13.7873L9.07929 11.249C8.84159 11.0424 8.65468 10.9459 8.39863 10.9459C8.14257 10.9459 7.95566 11.0424 7.71797 11.249ZM10.4248 0.980467L15.7564 6.39395C16.2639 6.91113 16.5875 7.3334 16.639 7.7707L9.61855 7.7707C9.2414 7.7707 9.05683 7.58613 9.05683 7.21699L9.05683 0.100391C9.50214 0.161719 9.93417 0.483593 10.4248 0.980467Z" fill="white" fill-opacity="0.85"/>
 </g>
</svg>
