<?xml version="1.0" encoding="UTF-8"?>
<!--Generator: Apple Native CoreSVG 341-->
<!DOCTYPE svg
PUBLIC "-//W3C//DTD SVG 1.1//EN"
       "http://www.w3.org/Graphics/SVG/1.1/DTD/svg11.dtd">
<svg version="1.1" xmlns="http://www.w3.org/2000/svg" xmlns:xlink="http://www.w3.org/1999/xlink" viewBox="0 0 12.3601 19.763">
 <g>
  <rect height="19.763" opacity="0" width="12.3601" x="0" y="0"/>
  <path d="M6.62323 0.366871L8.9451 3.64557C9.37694 4.24596 9.16854 4.80006 8.43397 4.80006L6.9539 4.80006L6.9539 3.35065C6.9539 2.80885 6.5203 2.38327 5.99628 2.38327C5.48027 2.38327 5.04492 2.80885 5.04492 3.35065L5.04492 4.80006L3.5666 4.80006C2.81075 4.80006 2.61739 4.24421 3.04746 3.63757L5.37734 0.366871C5.733-0.124534 6.27382-0.120041 6.62323 0.366871Z" fill="white" fill-opacity="0.85"/>
  <path d="M10.9318 17.5739L11.4648 17.926C11.8295 18.1629 11.9988 18.4911 11.9988 18.8049C11.9988 19.3032 11.6209 19.735 11.0367 19.735C10.8 19.735 10.5437 19.6561 10.2848 19.4876L9.86054 19.2053C8.47711 18.2893 6.95355 16.797 5.9991 15.0874C6.58226 14.0468 6.9539 12.9255 6.9539 11.8047L6.9539 11.803C6.9539 14.1839 9.32909 16.5083 10.9318 17.5739ZM5.99628 2.38327C5.48027 2.38327 5.04492 2.80885 5.04492 3.35065L5.04492 3.34889C5.04492 2.80709 5.48027 2.38151 5.99628 2.38151C6.5203 2.38151 6.9539 2.80709 6.9539 3.34889L6.9539 3.35065C6.9539 2.80885 6.5203 2.38327 5.99628 2.38327Z" fill="white" fill-opacity="0.85"/>
  <path d="M0.954097 19.7368C1.20058 19.7368 1.45683 19.6596 1.71405 19.4893L2.13827 19.2071C4.35839 17.7329 6.9539 14.7665 6.9539 11.8047L6.9539 3.35065C6.9539 2.80885 6.5203 2.38327 5.99628 2.38327C5.48027 2.38327 5.04492 2.80885 5.04492 3.35065L5.04492 11.8047C5.04492 14.1856 2.66972 16.51 1.06699 17.5756L0.533983 17.9278C0.161327 18.1665 0 18.4928 0 18.8067C0 19.3049 0.379686 19.7368 0.954097 19.7368Z" fill="white" fill-opacity="0.85"/>
 </g>
</svg>
