<?xml version="1.0" encoding="UTF-8"?>
<!--Generator: Apple Native CoreSVG 341-->
<!DOCTYPE svg
PUBLIC "-//W3C//DTD SVG 1.1//EN"
       "http://www.w3.org/Graphics/SVG/1.1/DTD/svg11.dtd">
<svg version="1.1" xmlns="http://www.w3.org/2000/svg" xmlns:xlink="http://www.w3.org/1999/xlink" viewBox="0 0 26.8908 19.3754">
 <g>
  <rect height="19.3754" opacity="0" width="26.8908" x="0" y="0"/>
  <path d="M12.6041 7.08007C12.6041 7.41249 12.8576 7.68105 13.2078 7.72363C17.6791 8.22714 18.323 8.84706 18.933 13.4719C18.9906 13.8123 19.2557 14.0428 19.5668 14.0428C19.8859 14.0428 20.1492 13.8123 20.2068 13.4719C20.8379 8.84706 21.458 8.24472 25.9293 7.72363C26.2875 7.67402 26.5295 7.41074 26.5295 7.08007C26.5295 6.74941 26.2822 6.48086 25.9258 6.43828C21.4625 5.93301 20.8168 5.30508 20.2068 0.688275C20.1492 0.357613 19.8939 0.125388 19.5668 0.125388C19.2459 0.125388 18.9906 0.357613 18.933 0.688275C18.2699 5.28105 17.6818 5.83535 13.2025 6.43828C12.8523 6.48613 12.6041 6.75117 12.6041 7.08007ZM11.6148 15.6264C11.6148 15.8498 11.7709 16.0387 12.0121 16.091C14.4584 16.5439 14.4879 16.5146 14.7658 18.8004C14.8084 19.0549 14.9875 19.2385 15.2305 19.2385C15.4797 19.2385 15.6605 19.0629 15.7031 18.8119C16.0068 16.4187 16.0896 16.424 18.4355 16.091C18.6848 16.0484 18.8523 15.8578 18.8523 15.6264C18.8523 15.4029 18.698 15.2078 18.4471 15.1617C16.0691 14.7105 16.0148 14.7709 15.7031 12.431C15.6605 12.1898 15.4699 12.0143 15.2305 12.0143C14.9875 12.0143 14.8084 12.1978 14.7658 12.4523C14.4879 14.7469 14.4398 14.7789 12.0564 15.1617C11.7807 15.2078 11.6148 15.3834 11.6148 15.6264Z" fill="white" fill-opacity="0.85"/>
  <path d="M5.37499 2.01229L7.75136 4.83299L9.01445 6.16718C9.19082 6.35507 9.42304 6.46659 9.7332 6.46659C10.3201 6.46659 10.7402 6.05976 10.7402 5.45253C10.7402 5.19199 10.6232 4.90293 10.4256 4.70176L6.13905 0.331639C5.93241 0.113476 5.65331 0 5.37499 0C5.08691 0 4.80957 0.113476 4.60293 0.331639L0.324412 4.70176C0.124999 4.90293 0 5.19199 0 5.45253C0 6.05976 0.420114 6.46659 1.00878 6.46659C1.31718 6.46659 1.55917 6.34706 1.72753 6.16718L2.99687 4.83299ZM5.37499 17.3525L2.99687 14.5318L1.72753 13.1977C1.55917 13.0178 1.31718 12.8982 1.00878 12.8982C0.420114 12.8982 0 13.3051 0 13.9123C0 14.1728 0.124999 14.4619 0.324412 14.6631L4.60293 19.0332C4.80957 19.2514 5.08691 19.3648 5.37499 19.3648C5.65331 19.3648 5.94042 19.2514 6.13905 19.0332L10.4256 14.6631C10.6232 14.4619 10.7402 14.1728 10.7402 13.9123C10.7402 13.3051 10.3201 12.8982 9.7332 12.8982C9.42304 12.8982 9.18281 13.0178 9.01445 13.1977L7.75136 14.5318ZM4.43828 17.4279C4.44981 17.9473 4.8539 18.3647 5.37499 18.3647C5.88632 18.3647 6.29042 17.9473 6.30194 17.4279L6.40936 14.008L6.40936 5.35858L6.30194 1.95291C6.29042 1.44159 5.88632 1.02596 5.37499 1.02596C4.8539 1.02596 4.44981 1.44159 4.43828 1.95291L4.33086 5.35858L4.33086 14.008Z" fill="white" fill-opacity="0.85"/>
 </g>
</svg>
