<?xml version="1.0" encoding="UTF-8"?>
<!--Generator: Apple Native CoreSVG 341-->
<!DOCTYPE svg
PUBLIC "-//W3C//DTD SVG 1.1//EN"
       "http://www.w3.org/Graphics/SVG/1.1/DTD/svg11.dtd">
<svg version="1.1" xmlns="http://www.w3.org/2000/svg" xmlns:xlink="http://www.w3.org/1999/xlink" viewBox="0 0 18.5894 18.2316">
 <g>
  <rect height="18.2316" opacity="0" width="18.5894" x="0" y="0"/>
  <path d="M3.20351 18.2281L15.0246 18.2281C17.1404 18.2281 18.2281 17.1502 18.2281 15.0646L18.2281 3.17148C18.2281 1.08769 17.1404 0 15.0246 0L3.20351 0C1.0957 0 0 1.08769 0 3.17148L0 15.0646C0 17.1502 1.0957 18.2281 3.20351 18.2281ZM3.31444 16.3148C2.40643 16.3148 1.91327 15.8465 1.91327 14.8977L1.91327 3.34023C1.91327 2.39139 2.40643 1.91503 3.31444 1.91503L14.9137 1.91503C15.8137 1.91503 16.3148 2.39139 16.3148 3.34023L16.3148 14.8977C16.3148 15.8465 15.8137 16.3148 14.9137 16.3148Z" fill="white" fill-opacity="0.85"/>
  <path d="M13.3746 9.02617C13.7836 9.02617 14.1189 8.69081 14.1189 8.28183C14.1189 7.86933 13.7836 7.54375 13.3746 7.54375L12.9541 7.54375L11.6006 7.65722L14.0352 5.33886C14.3535 5.03104 14.358 4.50956 14.0449 4.19472C13.7283 3.87363 13.2068 3.87187 12.899 4.20273L10.5646 6.64707L10.6764 5.25703L10.6764 4.83124C10.6764 4.4205 10.349 4.09492 9.94003 4.09492C9.52929 4.09492 9.19394 4.4205 9.19394 4.83124L9.19394 8.11543C9.19394 8.75234 9.52832 9.02617 10.1082 9.02617ZM8.29609 14.1189C8.70683 14.1189 9.04218 13.7934 9.04218 13.3809L9.04218 10.0904C9.04218 9.46152 8.70781 9.18593 8.12793 9.18593L4.86152 9.18593C4.45253 9.18593 4.11718 9.51503 4.11718 9.93203C4.11718 10.3428 4.45253 10.6684 4.86152 10.6684L5.28203 10.6684L6.63555 10.5566L4.20097 12.8732C3.88261 13.173 3.87812 13.7025 4.1912 14.0191C4.5078 14.3402 5.02929 14.3437 5.3371 14.0094L7.67148 11.5668L7.55976 12.9568L7.55976 13.3809C7.55976 13.7934 7.88711 14.1189 8.29609 14.1189Z" fill="white" fill-opacity="0.85"/>
 </g>
</svg>
