<?xml version="1.0" encoding="UTF-8"?>
<!--Generator: Apple Native CoreSVG 341-->
<!DOCTYPE svg
PUBLIC "-//W3C//DTD SVG 1.1//EN"
       "http://www.w3.org/Graphics/SVG/1.1/DTD/svg11.dtd">
<svg version="1.1" xmlns="http://www.w3.org/2000/svg" xmlns:xlink="http://www.w3.org/1999/xlink" viewBox="0 0 20.5381 20.1848">
 <g>
  <rect height="20.1848" opacity="0" width="20.5381" x="0" y="0"/>
  <path d="M10.0875 20.175C15.6576 20.175 20.1767 15.6559 20.1767 10.0875C20.1767 4.51914 15.6576 0 10.0875 0C4.51914 0 0 4.51914 0 10.0875C0 15.6559 4.51914 20.175 10.0875 20.175ZM10.0875 18.1879C5.60839 18.1879 1.9871 14.5666 1.9871 10.0875C1.9871 5.60839 5.60839 1.9871 10.0875 1.9871C14.5666 1.9871 18.1897 5.60839 18.1897 10.0875C18.1897 14.5666 14.5666 18.1879 10.0875 18.1879Z" fill="white" fill-opacity="0.85"/>
  <path d="M14.3352 10.0027C14.7441 10.0027 15.0795 9.66738 15.0795 9.25839C15.0795 8.84589 14.7441 8.52031 14.3352 8.52031L13.9146 8.52031L12.5611 8.63379L14.9975 6.31542C15.3141 6.00761 15.3186 5.48612 15.0055 5.17128C14.6889 4.85019 14.1674 4.84843 13.8596 5.17929L11.5252 7.62363L11.6369 6.23359L11.6369 5.80781C11.6369 5.39706 11.3096 5.07148 10.9006 5.07148C10.4898 5.07148 10.1545 5.39706 10.1545 5.80781L10.1545 9.09199C10.1545 9.7289 10.4889 10.0027 11.0687 10.0027ZM9.25839 15.0955C9.66738 15.0955 9.99472 14.7699 9.99472 14.3574L9.99472 11.067C9.99472 10.4381 9.66835 10.1625 9.09023 10.1625L5.81406 10.1625C5.40507 10.1625 5.07773 10.4916 5.07773 10.9086C5.07773 11.3193 5.40507 11.6449 5.81406 11.6449L6.24257 11.6449L7.59609 11.5332L5.16152 13.8498C4.84316 14.1496 4.83867 14.6791 5.15351 14.9957C5.46835 15.3168 5.98983 15.3203 6.29764 14.9859L8.63379 12.5433L8.5123 13.9334L8.5123 14.3574C8.5123 14.7699 8.84765 15.0955 9.25839 15.0955Z" fill="white" fill-opacity="0.85"/>
 </g>
</svg>
