<?xml version="1.0" encoding="UTF-8"?>
<!--Generator: Apple Native CoreSVG 341-->
<!DOCTYPE svg
PUBLIC "-//W3C//DTD SVG 1.1//EN"
       "http://www.w3.org/Graphics/SVG/1.1/DTD/svg11.dtd">
<svg version="1.1" xmlns="http://www.w3.org/2000/svg" xmlns:xlink="http://www.w3.org/1999/xlink" viewBox="0 0 16.2412 15.7305">
 <g>
  <rect height="15.7305" opacity="0" width="16.2412" x="0" y="0"/>
  <path d="M1.47831 15.7305C1.88827 15.7305 2.22538 15.5609 2.68476 15.333L15.0508 9.33515C15.916 8.90917 16.2412 8.46855 16.2412 7.87011C16.2412 7.27344 15.916 6.83906 15.0508 6.41309L2.68476 0.407225C2.21562 0.179297 1.88027 0.0115234 1.46855 0.0115234C0.686129 0.0115234 0.136719 0.605857 0.136719 1.56093L0.144727 14.1811C0.144727 15.1344 0.694137 15.7305 1.47831 15.7305ZM2.15643 13.3934C2.0996 13.3934 2.06229 13.3543 2.06229 13.2797L2.06229 2.45877C2.06229 2.38416 2.0996 2.3451 2.15643 2.3451C2.19198 2.3451 2.22928 2.36287 2.2701 2.39217L13.5369 7.76796C13.5858 7.7875 13.6213 7.82304 13.6213 7.87011C13.6213 7.91718 13.5858 7.95273 13.5369 7.97402L2.2701 13.3543C2.22928 13.3756 2.19198 13.3934 2.15643 13.3934Z" fill="white" fill-opacity="0.85"/>
 </g>
</svg>
