<?xml version="1.0" encoding="UTF-8"?>
<!--Generator: Apple Native CoreSVG 341-->
<!DOCTYPE svg
PUBLIC "-//W3C//DTD SVG 1.1//EN"
       "http://www.w3.org/Graphics/SVG/1.1/DTD/svg11.dtd">
<svg version="1.1" xmlns="http://www.w3.org/2000/svg" xmlns:xlink="http://www.w3.org/1999/xlink" viewBox="0 0 24.2513 18.2476">
 <g>
  <rect height="18.2476" opacity="0" width="24.2513" x="0" y="0"/>
  <path d="M6.75605 18.2476L17.126 18.2476C19.1359 18.2476 20.0189 17.2543 20.3295 15.2559L21.9088 4.7539L20.0166 4.83573L18.4453 15.1449C18.3041 16.052 17.8463 16.4162 17.0361 16.4162L6.8539 16.4162C6.02772 16.4162 5.57792 16.052 5.44471 15.1449L3.87342 4.83573L1.98125 4.7539L3.56055 15.2559C3.86308 17.2623 4.7541 18.2476 6.75605 18.2476ZM2.09101 5.77557L21.8008 5.77557C23.1267 5.77557 23.89 4.92694 23.89 3.61074L23.89 2.18261C23.89 0.86816 23.1267 0.0195312 21.8008 0.0195312L2.09101 0.0195312C0.816597 0.0195312 0 0.86816 0 2.18261L0 3.61074C0 4.92694 0.766792 5.77557 2.09101 5.77557ZM2.46679 4.03378C2.01894 4.03378 1.82362 3.83046 1.82362 3.38085L1.82362 2.41249C1.82362 1.96288 2.01894 1.75956 2.46679 1.75956L21.4312 1.75956C21.8791 1.75956 22.0664 1.96288 22.0664 2.41249L22.0664 3.38085C22.0664 3.83046 21.8791 4.03378 21.4312 4.03378Z" fill="white" fill-opacity="0.85"/>
  <path d="M9.14393 11.2207C9.35409 11.2207 9.57049 11.1312 9.716 10.9689L10.4488 10.2148L11.8717 8.70546L12.0691 8.70546L13.5025 10.2148L14.2336 10.9689C14.3658 11.1312 14.5893 11.2207 14.8039 11.2207C15.2402 11.2207 15.5683 10.9139 15.5683 10.4828C15.5683 10.2353 15.4787 10.0553 15.2961 9.8957L12.6219 7.44159C12.3992 7.23847 12.2158 7.1455 11.9748 7.1455C11.7338 7.1455 11.5504 7.23847 11.3277 7.44159L8.65351 9.8957C8.47089 10.0553 8.38124 10.2353 8.38124 10.4828C8.38124 10.9139 8.6996 11.2207 9.14393 11.2207ZM11.9748 14.9352C12.4349 14.9352 12.8224 14.5803 12.8224 14.1166L12.8224 10.949L12.6808 8.48222C12.6242 7.57382 11.3254 7.57382 11.2687 8.48222L11.1191 10.949L11.1191 14.1166C11.1191 14.5803 11.5146 14.9352 11.9748 14.9352Z" fill="white" fill-opacity="0.85"/>
 </g>
</svg>
