<?xml version="1.0" encoding="UTF-8"?>
<!--Generator: Apple Native CoreSVG 341-->
<!DOCTYPE svg
PUBLIC "-//W3C//DTD SVG 1.1//EN"
       "http://www.w3.org/Graphics/SVG/1.1/DTD/svg11.dtd">
<svg version="1.1" xmlns="http://www.w3.org/2000/svg" xmlns:xlink="http://www.w3.org/1999/xlink" viewBox="0 0 18.573 18.2195">
 <g>
  <rect height="18.2195" opacity="0" width="18.573" x="0" y="0"/>
  <path d="M5.34238 18.2107L12.8631 18.2107C14.5801 18.2107 15.9232 17.7092 16.8109 16.818C17.7262 15.9143 18.2117 14.5693 18.2117 12.8621L18.2117 5.35039C18.2117 3.64141 17.7262 2.29824 16.8109 1.39277C15.9152 0.495312 14.5801 0 12.8631 0L5.34238 0C3.6334 0 2.28047 0.50332 1.39277 1.39277C0.485547 2.29824 0 3.64141 0 5.35039L0 12.8621C0 14.5693 0.477539 15.9143 1.39277 16.818C2.28848 17.7172 3.6334 18.2107 5.34238 18.2107ZM5.39863 16.2975C4.2457 16.2975 3.36347 15.9943 2.79393 15.4248C2.20839 14.849 1.91327 13.9766 1.91327 12.8041L1.91327 5.40664C1.91327 4.23593 2.20839 3.36347 2.79393 2.78593C3.3537 2.22616 4.2457 1.91327 5.39863 1.91327L12.8051 1.91327C13.9678 1.91327 14.842 2.21815 15.4178 2.78593C16.0033 3.36347 16.2984 4.23593 16.2984 5.40664L16.2984 12.8041C16.2984 13.9766 16.0033 14.849 15.4178 15.4248C14.85 15.9863 13.9678 16.2975 12.8051 16.2975Z" fill="white" fill-opacity="0.85"/>
  <path d="M10.7742 6.37109L8.97032 8.01914L5.54082 11.4486C5.37597 11.6117 5.26601 11.8439 5.26601 12.0727C5.26601 12.5877 5.62128 12.9236 6.12226 12.9236C6.38652 12.9236 6.59569 12.8269 6.77108 12.6533L10.1918 9.24237L11.8318 7.43671C12.5879 6.61347 11.6156 5.61543 10.7742 6.37109ZM11.3592 9.21796L11.3592 10.7773C11.3592 11.3031 11.6803 11.6498 12.1662 11.6498C12.6521 11.6498 12.9652 11.2809 12.9652 10.7648L12.9652 6.21874C12.9652 5.55117 12.5912 5.25098 11.9859 5.25098L7.41406 5.25098C6.89453 5.25098 6.54785 5.56406 6.54785 6.05C6.54785 6.53593 6.89902 6.84902 7.4248 6.84902L9.07383 6.84902L11.666 6.50683Z" fill="white" fill-opacity="0.85"/>
 </g>
</svg>
