<?xml version="1.0" encoding="UTF-8"?>
<!--Generator: Apple Native CoreSVG 341-->
<!DOCTYPE svg
PUBLIC "-//W3C//DTD SVG 1.1//EN"
       "http://www.w3.org/Graphics/SVG/1.1/DTD/svg11.dtd">
<svg version="1.1" xmlns="http://www.w3.org/2000/svg" xmlns:xlink="http://www.w3.org/1999/xlink" viewBox="0 0 18.5894 18.2316">
 <g>
  <rect height="18.2316" opacity="0" width="18.5894" x="0" y="0"/>
  <path d="M3.20351 18.2281L15.0246 18.2281C17.1404 18.2281 18.2281 17.1502 18.2281 15.0646L18.2281 3.17148C18.2281 1.08769 17.1404 0 15.0246 0L3.20351 0C1.0957 0 0 1.08769 0 3.17148L0 15.0646C0 17.1502 1.0957 18.2281 3.20351 18.2281ZM3.31444 16.3148C2.40643 16.3148 1.91327 15.8465 1.91327 14.8977L1.91327 3.34023C1.91327 2.39139 2.40643 1.91503 3.31444 1.91503L14.9137 1.91503C15.8137 1.91503 16.3148 2.39139 16.3148 3.34023L16.3148 14.8977C16.3148 15.8465 15.8137 16.3148 14.9137 16.3148Z" fill="white" fill-opacity="0.85"/>
  <path d="M13.2779 9.16445C13.6869 9.16445 14.0223 8.83886 14.0223 8.42812L14.0223 5.1246C14.0223 4.48769 13.6896 4.2121 13.1098 4.2121L9.82226 4.2121C9.41328 4.2121 9.07793 4.54921 9.07793 4.9582C9.07793 5.36894 9.41328 5.69452 9.82226 5.69452L10.2639 5.69452L11.6174 5.5828L9.56152 7.5207C9.2414 7.8205 9.24043 8.34999 9.55351 8.66484C9.87636 8.98593 10.3898 8.99921 10.7057 8.65683L12.6533 6.59296L12.5398 7.983L12.5398 8.42812C12.5398 8.83886 12.8689 9.16445 13.2779 9.16445ZM8.41132 14.0293C8.82031 14.0293 9.14941 13.6939 9.14941 13.2832C9.14941 12.8725 8.82031 12.5469 8.41132 12.5469L7.97148 12.5469L6.6162 12.6604L8.66406 10.7225C8.98417 10.4209 8.98691 9.89316 8.67382 9.57656C8.35722 9.25547 7.83574 9.24394 7.52793 9.58457L5.58026 11.6502L5.69374 10.2602L5.69374 9.81503C5.69374 9.40254 5.35839 9.07695 4.94765 9.07695C4.53867 9.07695 4.21132 9.40254 4.21132 9.81503L4.21132 13.1186C4.21132 13.7555 4.53593 14.0293 5.11581 14.0293Z" fill="white" fill-opacity="0.85"/>
 </g>
</svg>
