<?xml version="1.0" encoding="UTF-8"?>
<!--Generator: Apple Native CoreSVG 341-->
<!DOCTYPE svg
PUBLIC "-//W3C//DTD SVG 1.1//EN"
       "http://www.w3.org/Graphics/SVG/1.1/DTD/svg11.dtd">
<svg version="1.1" xmlns="http://www.w3.org/2000/svg" xmlns:xlink="http://www.w3.org/1999/xlink" viewBox="0 0 17.8637 14.9199">
 <g>
  <rect height="14.9199" opacity="0" width="17.8637" x="0" y="0"/>
  <path d="M1.04667 14.9102C1.65565 14.9102 2.10135 14.4822 2.10135 13.8875L2.10135 1.03866C2.10135 0.435934 1.65565 0 1.04667 0C0.447457 0 0 0.435934 0 1.03866L0 13.8875C0 14.4822 0.447457 14.9102 1.04667 14.9102ZM10.4484 1.09296C10.4484 0.506244 10.0088 0.0738251 9.39569 0.0738251C9.1289 0.0738251 8.87109 0.173043 8.64238 0.399018L2.44002 6.66016C2.22186 6.87559 2.08983 7.14941 2.08983 7.45508C2.08983 7.76074 2.22186 8.03456 2.44002 8.24999L8.64238 14.5049C8.87109 14.7291 9.1289 14.8381 9.39569 14.8381C10.0088 14.8381 10.4484 14.4057 10.4484 13.819C10.4484 13.5143 10.3236 13.2447 10.1385 13.0596L8.13728 11.0211L4.17478 7.45508L8.13728 3.88905L10.1385 1.85233C10.3254 1.66542 10.4484 1.39764 10.4484 1.09296ZM4.1111 8.39081L7.32536 8.52108L16.4232 8.52108C17.0646 8.52108 17.5023 8.08417 17.5023 7.45508C17.5023 6.82598 17.0646 6.38907 16.4232 6.38907L7.32536 6.38907L4.1111 6.51934C3.59802 6.5459 3.17537 6.93848 3.17537 7.45508C3.17537 7.96367 3.59802 8.36425 4.1111 8.39081Z" fill="white" fill-opacity="0.85"/>
 </g>
</svg>
