<?xml version="1.0" encoding="UTF-8"?>
<!--Generator: Apple Native CoreSVG 341-->
<!DOCTYPE svg
PUBLIC "-//W3C//DTD SVG 1.1//EN"
       "http://www.w3.org/Graphics/SVG/1.1/DTD/svg11.dtd">
<svg version="1.1" xmlns="http://www.w3.org/2000/svg" xmlns:xlink="http://www.w3.org/1999/xlink" viewBox="0 0 40.5551 16.4433">
 <g>
  <rect height="16.4433" opacity="0" width="40.5551" x="0" y="0"/>
  <path d="M0 8.21679C0 8.60624 0.170312 8.98944 0.493358 9.29296L7.37871 15.7912C7.85429 16.234 8.25703 16.4256 8.7414 16.4256C9.44921 16.4256 9.99823 15.8943 9.99823 15.1883L9.99823 12.0836L16.4592 12.0836C17.957 12.0836 18.8709 11.1715 18.8709 9.71269L18.8709 6.71738C18.8709 5.24707 17.9668 4.36602 16.4592 4.36602L9.99823 4.36602L9.99823 1.29589C9.99823 0.568553 9.43944 0 8.73163 0C8.26503 0 7.9457 0.166796 7.37871 0.692967L0.493358 7.1291C0.150781 7.45215 0 7.82558 0 8.21679ZM2.27069 8.42363C2.11444 8.26913 2.12245 8.15292 2.27069 8.00644L8.08789 2.46639C8.158 2.4078 8.2334 2.43885 8.2334 2.51073L8.2334 5.67324C8.2334 5.98788 8.41855 6.15878 8.7287 6.15878L16.398 6.15878C16.8203 6.15878 17.0719 6.41034 17.0719 6.85214L17.0719 9.60722C17.0719 10.0473 16.8203 10.2828 16.398 10.2828L8.7287 10.2828C8.41855 10.2828 8.2334 10.4537 8.2334 10.7844L8.2334 13.8465C8.2334 13.9281 8.158 13.9574 8.08789 13.8908ZM40.1937 8.21855C40.1937 7.82734 40.0412 7.4539 39.6986 7.13086L32.8133 0.696483C32.2463 0.170312 31.9287 0.00175774 31.4621 0.00175774C30.7525 0.00175774 30.1937 0.57031 30.1937 1.29765L30.1937 4.36777L23.7328 4.36777C22.2252 4.36777 21.3211 5.24883 21.3211 6.71914L21.3211 9.71445C21.3211 11.1732 22.2349 12.0853 23.7328 12.0853L30.1937 12.0853L30.1937 15.1918C30.1937 15.8961 30.7428 16.4273 31.4506 16.4273C31.9367 16.4273 32.3394 16.2375 32.8133 15.793L39.6986 9.29472C40.0234 8.9912 40.1937 8.60976 40.1937 8.21855ZM23.7939 10.2846C23.3734 10.2846 23.1201 10.049 23.1201 9.60898L23.1201 6.85566C23.1201 6.4121 23.3734 6.16054 23.7939 6.16054L31.465 6.16054C31.7734 6.16054 31.9603 5.98964 31.9603 5.67499L31.9603 2.51424C31.9603 2.44061 32.0357 2.40956 32.1041 2.46815L37.9213 8.00996C38.0695 8.15644 38.0775 8.27089 37.9213 8.42538L32.1041 13.8926C32.0357 13.9609 31.9603 13.9299 31.9603 13.8482L31.9603 10.7861C31.9603 10.4555 31.7734 10.2846 31.465 10.2846Z" fill="white" fill-opacity="0.85"/>
 </g>
</svg>
