<?xml version="1.0" encoding="UTF-8"?>
<!--Generator: Apple Native CoreSVG 341-->
<!DOCTYPE svg
PUBLIC "-//W3C//DTD SVG 1.1//EN"
       "http://www.w3.org/Graphics/SVG/1.1/DTD/svg11.dtd">
<svg version="1.1" xmlns="http://www.w3.org/2000/svg" xmlns:xlink="http://www.w3.org/1999/xlink" viewBox="0 0 18.5894 18.2316">
 <g>
  <rect height="18.2316" opacity="0" width="18.5894" x="0" y="0"/>
  <path d="M18.2281 3.17148L18.2281 15.0646C18.2281 17.1502 17.1404 18.2281 15.0246 18.2281L3.20351 18.2281C1.0957 18.2281 0 17.1502 0 15.0646L0 3.17148C0 1.08769 1.0957 0 3.20351 0L15.0246 0C17.1404 0 18.2281 1.08769 18.2281 3.17148ZM8.29082 4.06855C8.29082 4.2787 8.37949 4.44472 8.50898 4.583L9.0674 5.14677C9.02948 5.14618 8.99231 5.14609 8.95527 5.14609C6.58945 5.14609 4.63906 7.1537 4.63906 9.57343C4.63906 12.093 6.64804 14.118 9.14003 14.118C11.632 14.118 13.641 12.093 13.641 9.60722C13.641 9.18593 13.2889 8.84179 12.8773 8.84179C12.4525 8.84179 12.1004 9.18593 12.1004 9.60722C12.1004 11.2521 10.7832 12.5773 9.14003 12.5773C7.49335 12.5773 6.17792 11.2566 6.17792 9.60722C6.17792 7.94726 7.46523 6.66171 9.11894 6.66171C9.18004 6.66171 9.24068 6.66198 9.30009 6.66282L8.50898 7.46054C8.37949 7.60683 8.29082 7.76308 8.29082 7.97499C8.29082 8.34238 8.58632 8.66073 9.00214 8.66073C9.19628 8.66073 9.3914 8.56679 9.50312 8.44179L11.3912 6.52733C11.5385 6.39433 11.5961 6.21249 11.5961 6.02265C11.5961 5.8373 11.5385 5.64921 11.3912 5.52246L9.50312 3.61152C9.39941 3.49452 9.19628 3.38456 9.00214 3.38456C8.58632 3.38456 8.29082 3.70116 8.29082 4.06855Z" fill="white" fill-opacity="0.85"/>
 </g>
</svg>
