<?xml version="1.0" encoding="UTF-8"?>
<!--Generator: Apple Native CoreSVG 341-->
<!DOCTYPE svg
PUBLIC "-//W3C//DTD SVG 1.1//EN"
       "http://www.w3.org/Graphics/SVG/1.1/DTD/svg11.dtd">
<svg version="1.1" xmlns="http://www.w3.org/2000/svg" xmlns:xlink="http://www.w3.org/1999/xlink" viewBox="0 0 20.5381 20.1848">
 <g>
  <rect height="20.1848" opacity="0" width="20.5381" x="0" y="0"/>
  <path d="M20.1767 10.0875C20.1767 15.6478 15.6576 20.175 10.0875 20.175C4.52715 20.175 0 15.6478 0 10.0875C0 4.51914 4.52715 0 10.0875 0C15.6576 0 20.1767 4.51914 20.1767 10.0875ZM6.08555 6.98359C6.08555 7.21933 6.19726 7.46483 6.37363 7.6412L9.92012 11.1699L11.4666 12.5804L10.0352 12.3906L8.34004 12.3906C7.77793 12.3906 7.41797 12.7268 7.41797 13.2375C7.41797 13.742 7.77168 14.0701 8.32929 14.0701L13.065 14.0701C13.7021 14.0701 14.0992 13.7549 14.0992 13.0475L14.0992 8.33574C14.0992 7.7834 13.7631 7.40918 13.2621 7.40918C12.7496 7.40918 12.4215 7.76113 12.4215 8.325L12.4215 9.92871L12.5931 11.4327L11.1955 9.90254L7.67382 6.37461C7.47714 6.18769 7.25468 6.08926 6.97538 6.08926C6.46386 6.08926 6.08555 6.44199 6.08555 6.98359Z" fill="white" fill-opacity="0.85"/>
 </g>
</svg>
