<?xml version="1.0" encoding="UTF-8"?>
<!--Generator: Apple Native CoreSVG 341-->
<!DOCTYPE svg
PUBLIC "-//W3C//DTD SVG 1.1//EN"
       "http://www.w3.org/Graphics/SVG/1.1/DTD/svg11.dtd">
<svg version="1.1" xmlns="http://www.w3.org/2000/svg" xmlns:xlink="http://www.w3.org/1999/xlink" viewBox="0 0 13.0721 22.4687">
 <g>
  <rect height="22.4687" opacity="0" width="13.0721" x="0" y="0"/>
  <path d="M1.32695 11.1115C0.438084 11.1115 0 11.6525 0 12.2742C0 12.5429 0.0833982 12.841 0.229686 13.1017L5.13496 21.515C5.50859 22.1629 5.84374 22.4687 6.35624 22.4687C6.86874 22.4687 7.20214 22.1629 7.57577 21.515L12.473 13.1017C12.6273 12.841 12.7107 12.5429 12.7107 12.2742C12.7107 11.6525 12.2726 11.1115 11.3838 11.1115Z" fill="white" fill-opacity="0.85"/>
  <path d="M1.32695 0.0267583C0.438084 0.0267583 0 0.559764 0 1.18945C0 1.45996 0.0833982 1.75624 0.229686 2.00898L5.13496 10.4223C5.5166 11.0781 5.84374 11.384 6.35624 11.384C6.86874 11.384 7.19413 11.0781 7.57577 10.4223L12.473 2.00898C12.6273 1.75624 12.7107 1.45996 12.7107 1.18945C12.7107 0.559764 12.2726 0.0267583 11.3838 0.0267583Z" fill="white" fill-opacity="0.85"/>
 </g>
</svg>
