<?xml version="1.0" encoding="UTF-8"?>
<!--Generator: Apple Native CoreSVG 341-->
<!DOCTYPE svg
PUBLIC "-//W3C//DTD SVG 1.1//EN"
       "http://www.w3.org/Graphics/SVG/1.1/DTD/svg11.dtd">
<svg version="1.1" xmlns="http://www.w3.org/2000/svg" xmlns:xlink="http://www.w3.org/1999/xlink" viewBox="0 0 18.573 18.2195">
 <g>
  <rect height="18.2195" opacity="0" width="18.573" x="0" y="0"/>
  <path d="M16.8109 1.39277C17.7262 2.29824 18.2117 3.64141 18.2117 5.35039L18.2117 12.8621C18.2117 14.5693 17.7262 15.9143 16.8109 16.818C15.9232 17.7092 14.5801 18.2107 12.8631 18.2107L5.34238 18.2107C3.6334 18.2107 2.28848 17.7172 1.39277 16.818C0.477539 15.9143 0 14.5693 0 12.8621L0 5.35039C0 3.64141 0.485547 2.29824 1.39277 1.39277C2.28047 0.50332 3.6334 0 5.34238 0L12.8631 0C14.5801 0 15.9152 0.495312 16.8109 1.39277ZM8.1459 4.84843L8.1459 10.2592L8.20717 11.7245L7.67578 11.1074L6.23828 9.5918C6.07695 9.40645 5.82949 9.30899 5.59375 9.30899C5.12637 9.30899 4.75157 9.64766 4.75157 10.1246C4.75157 10.3746 4.85176 10.5697 5.02735 10.7391L8.38106 13.9703C8.63008 14.2141 8.84883 14.2902 9.09961 14.2902C9.35663 14.2902 9.57714 14.2141 9.8244 13.9703L13.1781 10.7391C13.3555 10.5697 13.4476 10.3746 13.4476 10.1246C13.4476 9.64766 13.0648 9.30899 12.6055 9.30899C12.3617 9.30899 12.1223 9.40645 11.9609 9.5918L10.5297 11.1074L9.99967 11.7197L10.0596 10.2592L10.0596 4.84843C10.0596 4.33965 9.62695 3.91426 9.09961 3.91426C8.57226 3.91426 8.1459 4.33965 8.1459 4.84843Z" fill="white" fill-opacity="0.85"/>
 </g>
</svg>
