<?xml version="1.0" encoding="UTF-8"?>
<!--Generator: Apple Native CoreSVG 341-->
<!DOCTYPE svg
PUBLIC "-//W3C//DTD SVG 1.1//EN"
       "http://www.w3.org/Graphics/SVG/1.1/DTD/svg11.dtd">
<svg version="1.1" xmlns="http://www.w3.org/2000/svg" xmlns:xlink="http://www.w3.org/1999/xlink" viewBox="0 0 20.0898 18.8629">
 <g>
  <rect height="18.8629" opacity="0" width="20.0898" x="0" y="0"/>
  <path d="M19.7285 6.68046C19.7285 10.8529 16.2281 14.9728 10.7758 18.4885C10.4766 18.6734 10.1133 18.8629 9.86425 18.8629C9.61347 18.8629 9.25195 18.6734 8.96074 18.4885C3.50039 14.9728 0 10.8529 0 6.68046C0 3.08808 2.48027 0.595703 5.59238 0.595703C7.52831 0.595703 9.00214 1.67422 9.86425 3.27051C10.7424 1.66621 12.1984 0.595703 14.1361 0.595703C17.2482 0.595703 19.7285 3.08808 19.7285 6.68046ZM9.18281 6.07987L9.18281 6.89441C7.50565 7.21551 6.23925 8.69173 6.23925 10.4955C6.23925 12.5402 7.86484 14.1641 9.87402 14.1641C11.8832 14.1641 13.5088 12.5402 13.5088 10.5115C13.5088 10.1789 13.2303 9.91015 12.8896 9.91015C12.549 9.91015 12.2705 10.1789 12.2705 10.5115C12.2705 11.8492 11.21 12.924 9.87402 12.924C8.54433 12.924 7.47753 11.8475 7.47753 10.4955C7.47753 9.38833 8.19299 8.46468 9.18281 8.16752L9.18281 9.21562C9.18281 9.63612 9.64062 9.80468 9.96972 9.52343L11.6529 8.08339C11.9475 7.81718 11.9377 7.42948 11.6529 7.18905L9.96972 5.7703C9.63886 5.49882 9.18281 5.65136 9.18281 6.07987Z" fill="white" fill-opacity="0.85"/>
 </g>
</svg>
