<?xml version="1.0" encoding="UTF-8"?>
<!--Generator: Apple Native CoreSVG 341-->
<!DOCTYPE svg
PUBLIC "-//W3C//DTD SVG 1.1//EN"
       "http://www.w3.org/Graphics/SVG/1.1/DTD/svg11.dtd">
<svg version="1.1" xmlns="http://www.w3.org/2000/svg" xmlns:xlink="http://www.w3.org/1999/xlink" viewBox="0 0 20.5381 20.1848">
 <g>
  <rect height="20.1848" opacity="0" width="20.5381" x="0" y="0"/>
  <path d="M10.0875 20.175C15.6576 20.175 20.1767 15.6559 20.1767 10.0875C20.1767 4.51914 15.6576 0 10.0875 0C4.51914 0 0 4.51914 0 10.0875C0 15.6559 4.51914 20.175 10.0875 20.175ZM10.0875 18.1879C5.60839 18.1879 1.9871 14.5666 1.9871 10.0875C1.9871 5.60839 5.60839 1.9871 10.0875 1.9871C14.5666 1.9871 18.1897 5.60839 18.1897 10.0875C18.1897 14.5666 14.5666 18.1879 10.0875 18.1879Z" fill="white" fill-opacity="0.85"/>
  <path d="M14.2434 7.93789L8.32011 7.93789C7.51875 7.93789 7.05019 8.39218 7.05019 9.18554L7.05019 11.0098C7.05019 11.7969 7.51875 12.2459 8.32011 12.2459L14.2434 12.2459C15.043 12.2459 15.5115 11.7969 15.5115 11.0098L15.5115 9.18554C15.5115 8.39218 15.043 7.93789 14.2434 7.93789ZM10.0392 14.2459L10.0392 5.94862C10.0392 5.55839 9.74394 5.24706 9.33769 5.24706C9.06972 5.24706 8.88613 5.358 8.5871 5.63398L4.44765 9.4832C4.24257 9.67851 4.16718 9.89765 4.16718 10.0893C4.16718 10.2693 4.24433 10.4937 4.44765 10.6873L8.5871 14.5766C8.85507 14.8187 9.07421 14.9314 9.3537 14.9314C9.74394 14.9314 10.0392 14.6441 10.0392 14.2459Z" fill="white" fill-opacity="0.85"/>
 </g>
</svg>
