<?xml version="1.0" encoding="UTF-8"?>
<!--Generator: Apple Native CoreSVG 341-->
<!DOCTYPE svg
PUBLIC "-//W3C//DTD SVG 1.1//EN"
       "http://www.w3.org/Graphics/SVG/1.1/DTD/svg11.dtd">
<svg version="1.1" xmlns="http://www.w3.org/2000/svg" xmlns:xlink="http://www.w3.org/1999/xlink" viewBox="0 0 24.0877 18.2476">
 <g>
  <rect height="18.2476" opacity="0" width="24.0877" x="0" y="0"/>
  <path d="M20.1738 15.174C19.8713 17.1564 19.0541 18.2476 17.0441 18.2476L6.67421 18.2476C4.67226 18.2476 3.85508 17.1644 3.55254 15.174L2.16484 6.05468L21.5535 6.05468ZM11.2043 8.23436L8.42987 10.7789C8.24999 10.9517 8.14257 11.1336 8.14257 11.3881C8.14257 11.8502 8.48573 12.1721 8.95487 12.1721C9.16854 12.1721 9.39823 12.0631 9.5535 11.8973L10.3121 11.1254L11.094 10.2913L10.9939 11.8941L10.9939 15.1646C10.9939 15.6451 11.4045 16.0168 11.893 16.0168C12.3797 16.0168 12.784 15.6451 12.784 15.1646L12.784 11.8941L12.6881 10.2958L13.4756 11.1254L14.2227 11.8973C14.3744 12.0631 14.6049 12.1721 14.823 12.1721C15.2762 12.1721 15.6336 11.8502 15.6336 11.3881C15.6336 11.1336 15.5359 10.9517 15.348 10.7789L12.5736 8.23436C12.3359 8.02772 12.149 7.93124 11.893 7.93124C11.6369 7.93124 11.45 8.02772 11.2043 8.23436ZM23.7263 1.81328L23.7263 2.83964C23.7263 3.97031 23.1275 4.63515 22.0064 4.63515L1.72168 4.63515C0.602342 4.63515 0 3.97031 0 2.83964L0 1.81328C0 0.682617 0.652147 0.0195312 1.72168 0.0195312L22.0064 0.0195312C23.1275 0.0195312 23.7263 0.682617 23.7263 1.81328Z" fill="white" fill-opacity="0.85"/>
 </g>
</svg>
