<?xml version="1.0" encoding="UTF-8"?>
<!--Generator: Apple Native CoreSVG 341-->
<!DOCTYPE svg
PUBLIC "-//W3C//DTD SVG 1.1//EN"
       "http://www.w3.org/Graphics/SVG/1.1/DTD/svg11.dtd">
<svg version="1.1" xmlns="http://www.w3.org/2000/svg" xmlns:xlink="http://www.w3.org/1999/xlink" viewBox="0 0 16.9559 15.7305">
 <g>
  <rect height="15.7305" opacity="0" width="16.9559" x="0" y="0"/>
  <path d="M14.7629 0.0115234C14.3529 0.0115234 14.0158 0.179297 13.5564 0.407225L1.18867 6.41309C0.325193 6.83906 0 7.27344 0 7.87011C0 8.46855 0.325193 8.90917 1.18867 9.33515L13.5564 15.333C14.0238 15.5609 14.3609 15.7305 14.7709 15.7305C15.5551 15.7305 16.0947 15.1344 16.0947 14.1811L16.0947 1.56093C16.0947 0.605857 15.5471 0.0115234 14.7629 0.0115234ZM14.0768 2.34686C14.1336 2.34686 14.1691 2.39393 14.1691 2.46053L14.1772 13.2815C14.1772 13.3578 14.1416 13.3951 14.0848 13.3951C14.0475 13.3951 14.0119 13.3774 13.9711 13.3578L2.70428 7.97402C2.65545 7.95273 2.6199 7.91718 2.6199 7.87011C2.6199 7.82304 2.65545 7.7875 2.70428 7.76796L13.9631 2.39393C14.0039 2.36463 14.0395 2.34686 14.0768 2.34686Z" fill="white" fill-opacity="0.85"/>
 </g>
</svg>
