<?xml version="1.0" encoding="UTF-8"?>
<!--Generator: Apple Native CoreSVG 341-->
<!DOCTYPE svg
PUBLIC "-//W3C//DTD SVG 1.1//EN"
       "http://www.w3.org/Graphics/SVG/1.1/DTD/svg11.dtd">
<svg version="1.1" xmlns="http://www.w3.org/2000/svg" xmlns:xlink="http://www.w3.org/1999/xlink" viewBox="0 0 20.0898 18.8629">
 <g>
  <rect height="18.8629" opacity="0" width="20.0898" x="0" y="0"/>
  <path d="M0 6.68046C0 10.8529 3.50039 14.9728 8.96074 18.4885C9.25195 18.6734 9.61347 18.8629 9.86425 18.8629C10.1133 18.8629 10.4766 18.6734 10.7758 18.4885C16.2281 14.9728 19.7285 10.8529 19.7285 6.68046C19.7285 3.08808 17.2482 0.595703 14.0543 0.595703C12.1984 0.595703 10.7424 1.4498 9.86425 2.73652C9.00214 1.45781 7.52831 0.595703 5.67421 0.595703C2.48027 0.595703 0 3.08808 0 6.68046ZM1.966 6.67167C1.966 4.19354 3.59471 2.53006 5.77948 2.53006C7.54335 2.53006 8.53828 3.59882 9.15097 4.53144C9.41992 4.92558 9.60703 5.05233 9.86425 5.05233C10.1215 5.05233 10.2873 4.91581 10.574 4.53144C11.2355 3.61307 12.1932 2.53006 13.949 2.53006C16.1338 2.53006 17.7607 4.19354 17.7607 6.67167C17.7607 10.1287 14.1584 13.9463 10.0518 16.6787C9.96464 16.74 9.90331 16.7836 9.86425 16.7836C9.82519 16.7836 9.76386 16.74 9.68476 16.6787C5.56835 13.9463 1.966 10.1287 1.966 6.67167Z" fill="white" fill-opacity="0.85"/>
  <path d="M9.20136 6.17186L9.20136 9.22714C9.20136 9.6246 9.64413 9.7914 9.9582 9.52167L11.5945 8.11698C11.8855 7.86405 11.8758 7.48964 11.5945 7.25273L9.9582 5.86933C9.64238 5.61737 9.20136 5.76815 9.20136 6.17186ZM9.87226 14.0295C11.8248 14.0295 13.4053 12.449 13.4053 10.4885C13.4053 10.1674 13.132 9.9039 12.8047 9.9039C12.4773 9.9039 12.2059 10.1674 12.2059 10.4885C12.2059 11.7881 11.1639 12.8363 9.87226 12.8363C8.57265 12.8363 7.53241 11.7863 7.53241 10.4707C7.53241 9.14882 8.57265 8.09706 9.87226 8.09706C10.1996 8.09706 10.4648 7.82557 10.4648 7.49647C10.4648 7.17714 10.1996 6.9039 9.87226 6.9039C7.92323 6.9039 6.34101 8.48437 6.34101 10.4707C6.34101 12.449 7.92148 14.0295 9.87226 14.0295Z" fill="white" fill-opacity="0.85"/>
 </g>
</svg>
