<?xml version="1.0" encoding="UTF-8"?>
<!--Generator: Apple Native CoreSVG 341-->
<!DOCTYPE svg
PUBLIC "-//W3C//DTD SVG 1.1//EN"
       "http://www.w3.org/Graphics/SVG/1.1/DTD/svg11.dtd">
<svg version="1.1" xmlns="http://www.w3.org/2000/svg" xmlns:xlink="http://www.w3.org/1999/xlink" viewBox="0 0 18.5326 21.2437">
 <g>
  <rect height="21.2437" opacity="0" width="18.5326" x="0" y="0"/>
  <path d="M9.08164 21.2437C9.45234 21.2437 9.86034 21.0992 10.2189 20.7193L17.4277 12.9879C17.9512 12.4264 18.1713 12.0654 18.1713 11.5465C18.1713 10.7785 17.5629 10.2164 16.8172 10.2164L13.3139 10.2164L13.3139 2.60058C13.3139 0.954685 12.3734 0.00625014 10.7578 0.00625014L7.37988 0.00625014C5.76602 0.00625014 4.82559 0.954685 4.82559 2.60058L4.82559 10.2164L1.30605 10.2164C0.560349 10.2164 0 10.7785 0 11.5305C0 12.0564 0.211132 12.4787 0.687498 12.9879L7.95058 20.7176C8.30918 21.0975 8.72597 21.2437 9.08164 21.2437ZM9.08164 19.1045C9.0248 19.1045 8.97597 19.085 8.8996 19.0086L2.56893 12.3041C2.51209 12.2473 2.4828 12.1984 2.4828 12.1416C2.4828 12.06 2.54666 11.9961 2.63983 11.9961L6.25565 11.9961C6.47851 11.9961 6.5744 11.9002 6.5744 11.6773L6.5744 2.69921C6.5744 2.0953 6.90937 1.75507 7.52656 1.75507L10.6227 1.75507C11.2398 1.75507 11.565 2.0953 11.565 2.69921L11.565 11.6773C11.565 11.9002 11.6609 11.9961 11.8838 11.9961L15.5955 11.9961C15.6887 11.9961 15.7428 12.06 15.7428 12.1416C15.7428 12.2064 15.7152 12.2633 15.6682 12.3121L9.26367 19.0086C9.19531 19.077 9.14023 19.1045 9.08164 19.1045Z" fill="white" fill-opacity="0.85"/>
 </g>
</svg>
