<?xml version="1.0" encoding="UTF-8"?>
<!--Generator: Apple Native CoreSVG 341-->
<!DOCTYPE svg
PUBLIC "-//W3C//DTD SVG 1.1//EN"
       "http://www.w3.org/Graphics/SVG/1.1/DTD/svg11.dtd">
<svg version="1.1" xmlns="http://www.w3.org/2000/svg" xmlns:xlink="http://www.w3.org/1999/xlink" viewBox="0 0 22.7412 18.3812">
 <g>
  <rect height="18.3812" opacity="0" width="22.7412" x="0" y="0"/>
  <path d="M7.8744 0.743749L8.43495 1.19688C8.96893 1.63965 9.39217 1.80117 10.0896 1.80117L19.1764 1.80117C21.2762 1.80117 22.3799 2.88886 22.3799 4.97265L22.3799 15.016C22.3799 17.0998 21.2842 18.1875 19.4219 18.1875L3.20351 18.1875C1.0957 18.1875 0 17.1078 0 15.016L0 3.11171C0 1.06269 1.07949 0 2.89921 0L5.66308 0C6.68612 0 7.1912 0.181054 7.8744 0.743749ZM10.4965 5.14374L7.18496 8.33456C7.01289 8.50038 6.91445 8.68222 6.91445 8.93671C6.91445 9.39511 7.28047 9.73299 7.73906 9.73299C7.97578 9.73299 8.21171 9.63905 8.36953 9.45721L9.79824 7.94588L10.3375 7.29022L10.2631 8.78534L10.2631 14.1531C10.2631 14.6496 10.6887 15.0644 11.2037 15.0644C11.7187 15.0644 12.1363 14.6496 12.1363 14.1531L12.1363 8.78534L12.0619 7.29022L12.6012 7.94588L14.0299 9.45721C14.1877 9.63905 14.4139 9.73299 14.6523 9.73299C15.1029 9.73299 15.4832 9.39511 15.4832 8.93671C15.4832 8.68222 15.3848 8.50038 15.2127 8.33456L11.9029 5.14374C11.6609 4.90703 11.4475 4.8246 11.2037 4.8246C10.952 4.8246 10.7385 4.90703 10.4965 5.14374Z" fill="white" fill-opacity="0.85"/>
 </g>
</svg>
