<?xml version="1.0" encoding="UTF-8"?>
<!--Generator: Apple Native CoreSVG 341-->
<!DOCTYPE svg
PUBLIC "-//W3C//DTD SVG 1.1//EN"
       "http://www.w3.org/Graphics/SVG/1.1/DTD/svg11.dtd">
<svg version="1.1" xmlns="http://www.w3.org/2000/svg" xmlns:xlink="http://www.w3.org/1999/xlink" viewBox="0 0 20.5381 20.1848">
 <g>
  <rect height="20.1848" opacity="0" width="20.5381" x="0" y="0"/>
  <path d="M10.0875 20.175C15.6576 20.175 20.1767 15.6559 20.1767 10.0875C20.1767 4.51914 15.6576 0 10.0875 0C4.51914 0 0 4.51914 0 10.0875C0 15.6559 4.51914 20.175 10.0875 20.175ZM10.0875 18.1879C5.60839 18.1879 1.9871 14.5666 1.9871 10.0875C1.9871 5.60839 5.60839 1.9871 10.0875 1.9871C14.5666 1.9871 18.1897 5.60839 18.1897 10.0875C18.1897 14.5666 14.5666 18.1879 10.0875 18.1879Z" fill="white" fill-opacity="0.85"/>
  <path d="M10.0795 14.8978C12.4758 14.8978 14.4103 12.9535 14.4103 10.5572C14.4103 10.159 14.0732 9.82988 13.6768 9.82988C13.2768 9.82988 12.9396 10.159 12.9396 10.5572C12.9396 12.1463 11.6668 13.4236 10.0795 13.4236C8.49218 13.4236 7.22108 12.1508 7.22108 10.5572C7.22108 8.96288 8.46406 7.71991 10.0619 7.71991C10.3791 7.71991 10.6865 7.72792 10.9557 7.74393C11.3717 7.75194 11.6865 7.42909 11.6865 7.02909C11.6865 6.63085 11.3797 6.31425 10.9717 6.30624C10.5967 6.28222 10.2492 6.27421 9.90624 6.27421C7.63164 6.27421 5.74863 8.19589 5.74863 10.5314C5.74863 12.9535 7.68496 14.8978 10.0795 14.8978ZM12.4381 7.11093C12.4381 6.93085 12.3725 6.75429 12.2447 6.63105L10.4258 4.78925C10.3238 4.67402 10.1322 4.57382 9.9416 4.57382C9.55058 4.57382 9.26836 4.87714 9.26836 5.23124C9.26836 5.42987 9.34726 5.58437 9.47324 5.71913L10.8566 7.11093L9.47324 8.50273C9.34726 8.63749 9.26836 8.79374 9.26836 8.99238C9.26836 9.34648 9.55058 9.6498 9.9416 9.6498C10.1322 9.6498 10.3141 9.55761 10.4258 9.43437L12.2447 7.59257C12.3725 7.46933 12.4381 7.29101 12.4381 7.11093Z" fill="white" fill-opacity="0.85"/>
 </g>
</svg>
