<?xml version="1.0" encoding="UTF-8"?>
<!--Generator: Apple Native CoreSVG 341-->
<!DOCTYPE svg
PUBLIC "-//W3C//DTD SVG 1.1//EN"
       "http://www.w3.org/Graphics/SVG/1.1/DTD/svg11.dtd">
<svg version="1.1" xmlns="http://www.w3.org/2000/svg" xmlns:xlink="http://www.w3.org/1999/xlink" viewBox="0 0 28.2125 20.6961">
 <g>
  <rect height="20.6961" opacity="0" width="28.2125" x="0" y="0"/>
  <path d="M9.68514 11.6318C10.7301 10.9851 10.7506 9.72519 9.68514 9.08203L2.18788 4.50508C1.14843 3.86914 0 4.3709 0 5.64726L0 15.0586C0 16.3607 1.17148 16.8332 2.18788 16.2088ZM8.40293 10.5316L1.98202 14.4957C1.87714 14.5588 1.66913 14.5615 1.66913 14.3473L1.66913 6.36659C1.66913 6.13807 1.8914 6.15507 1.98202 6.21815L8.39492 10.1725C8.60566 10.3059 8.53183 10.4543 8.40293 10.5316ZM25.6552 16.2088C26.6796 16.8332 27.8511 16.3607 27.8511 15.0586L27.8511 5.64726C27.8511 4.3709 26.7027 3.86914 25.6552 4.50508L18.158 9.08203C17.1006 9.72519 17.1131 10.9851 18.158 11.6318ZM25.8611 14.4957L19.45 10.5316C19.3113 10.4543 19.2455 10.3059 19.45 10.1725L25.8611 6.21815C25.9597 6.15507 26.174 6.13807 26.174 6.36659L26.174 14.3473C26.174 14.5615 25.974 14.5588 25.8611 14.4957Z" fill="white" fill-opacity="0.85"/>
  <path d="M13.9224 20.6961C14.3771 20.6961 14.7734 20.3529 14.7734 19.8877L14.7734 0.818159C14.7734 0.356444 14.3718 0.0177735 13.9224 0.0177735C13.4765 0.0177735 13.0777 0.358201 13.0777 0.818159L13.0777 19.8877C13.0777 20.3512 13.473 20.6961 13.9224 20.6961Z" fill="white" fill-opacity="0.85"/>
 </g>
</svg>
