<?xml version="1.0" encoding="UTF-8"?>
<!--Generator: Apple Native CoreSVG 341-->
<!DOCTYPE svg
PUBLIC "-//W3C//DTD SVG 1.1//EN"
       "http://www.w3.org/Graphics/SVG/1.1/DTD/svg11.dtd">
<svg version="1.1" xmlns="http://www.w3.org/2000/svg" xmlns:xlink="http://www.w3.org/1999/xlink" viewBox="0 0 20.0898 18.8629">
 <g>
  <rect height="18.8629" opacity="0" width="20.0898" x="0" y="0"/>
  <path d="M0 6.68046C0 10.8529 3.50039 14.9728 8.96074 18.4885C9.25195 18.6734 9.61347 18.8629 9.86425 18.8629C10.1133 18.8629 10.4766 18.6734 10.7758 18.4885C16.2281 14.9728 19.7285 10.8529 19.7285 6.68046C19.7285 3.08808 17.2482 0.595703 14.0543 0.595703C12.1984 0.595703 10.7424 1.4498 9.86425 2.73652C9.00214 1.45781 7.52831 0.595703 5.67421 0.595703C2.48027 0.595703 0 3.08808 0 6.68046ZM1.966 6.67167C1.966 4.19354 3.59471 2.53006 5.77948 2.53006C7.54335 2.53006 8.53828 3.59882 9.15097 4.53144C9.41992 4.92558 9.60703 5.05233 9.86425 5.05233C10.1215 5.05233 10.2873 4.91581 10.574 4.53144C11.2355 3.61307 12.1932 2.53006 13.949 2.53006C16.1338 2.53006 17.7607 4.19354 17.7607 6.67167C17.7607 10.1287 14.1584 13.9463 10.0518 16.6787C9.96464 16.74 9.90331 16.7836 9.86425 16.7836C9.82519 16.7836 9.76386 16.74 9.68476 16.6787C5.56835 13.9463 1.966 10.1287 1.966 6.67167Z" fill="white" fill-opacity="0.85"/>
  <path d="M9.86425 14.0797C10.0973 14.0797 10.2887 13.9867 10.5113 13.7854L13.1855 11.3295C13.3682 11.1699 13.4578 10.9898 13.4578 10.7424C13.4578 10.3113 13.1297 10.0045 12.6934 10.0045C12.4787 10.0045 12.2633 10.0957 12.123 10.2562L11.392 11.0023L9.85898 12.6256L8.33827 11.0023L7.60546 10.2562C7.46796 10.0957 7.24354 10.0045 7.03339 10.0045C6.58906 10.0045 6.2707 10.3113 6.2707 10.7424C6.2707 10.9898 6.36035 11.1699 6.5412 11.3295L9.21718 13.7854C9.43984 13.9867 9.62949 14.0797 9.86425 14.0797ZM9.86425 6.29003C9.40234 6.29003 9.0166 6.64667 9.0166 7.10858L9.0166 10.2682L9.10078 12.2971C9.12734 12.7191 9.44218 13.0605 9.86425 13.0605C10.2863 13.0605 10.6012 12.7191 10.6277 12.2971L10.7199 10.2682L10.7199 7.10858C10.7199 6.64667 10.3244 6.29003 9.86425 6.29003Z" fill="white" fill-opacity="0.85"/>
 </g>
</svg>
