<?xml version="1.0" encoding="UTF-8"?>
<!--Generator: Apple Native CoreSVG 341-->
<!DOCTYPE svg
PUBLIC "-//W3C//DTD SVG 1.1//EN"
       "http://www.w3.org/Graphics/SVG/1.1/DTD/svg11.dtd">
<svg version="1.1" xmlns="http://www.w3.org/2000/svg" xmlns:xlink="http://www.w3.org/1999/xlink" viewBox="0 0 20.5381 20.1848">
 <g>
  <rect height="20.1848" opacity="0" width="20.5381" x="0" y="0"/>
  <path d="M20.1767 10.0875C20.1767 15.6478 15.6576 20.175 10.0875 20.175C4.52715 20.175 0 15.6478 0 10.0875C0 4.51914 4.52715 0 10.0875 0C15.6576 0 20.1767 4.51914 20.1767 10.0875ZM11.9043 6.10995L11.9043 7.09726L9.19316 7.09726C7.39999 7.09726 6.2664 8.21406 6.2664 9.98867L6.2664 14.0498C6.2664 14.5189 6.62128 14.8816 7.08593 14.8816C7.53905 14.8816 7.9037 14.5189 7.9037 14.0498L7.9037 10.0207C7.9037 9.23495 8.41112 8.73808 9.20917 8.73808L11.9043 8.73808L11.9043 9.73359C11.9043 10.3326 12.3637 10.5135 12.8383 10.1666L15.317 8.42695C15.7127 8.14394 15.7172 7.70761 15.317 7.41836L12.8463 5.67246C12.3672 5.31406 11.9043 5.50117 11.9043 6.10995Z" fill="white" fill-opacity="0.85"/>
 </g>
</svg>
