<?xml version="1.0" encoding="UTF-8"?>
<!--Generator: Apple Native CoreSVG 341-->
<!DOCTYPE svg
PUBLIC "-//W3C//DTD SVG 1.1//EN"
       "http://www.w3.org/Graphics/SVG/1.1/DTD/svg11.dtd">
<svg version="1.1" xmlns="http://www.w3.org/2000/svg" xmlns:xlink="http://www.w3.org/1999/xlink" viewBox="0 0 18.9514 18.7672">
 <g>
  <rect height="18.7672" opacity="0" width="18.9514" x="0" y="0"/>
  <path d="M6.65214 18.7672C6.93925 18.7672 7.22714 18.6564 7.43905 18.4348L12.9613 12.8209C13.1775 12.6144 13.2963 12.3166 13.2963 12.049C13.2963 11.4225 12.8639 10.9971 12.2594 10.9971C11.9387 10.9971 11.7092 11.1201 11.5178 11.315L9.0707 13.8252L6.65039 16.7084L4.23535 13.8252L1.7785 11.315C1.59335 11.1201 1.35585 10.9971 1.03691 10.9971C0.432419 10.9971 0 11.4225 0 12.049C0 12.3166 0.126757 12.6144 0.333201 12.8209L5.85723 18.4348C6.0709 18.6564 6.35879 18.7672 6.65214 18.7672ZM17.524 10.3779C18.1115 10.3779 18.59 9.93319 18.59 9.29237L18.59 6.94863C18.59 2.58241 16.026 0.0275356 12.1258 0.0275356C8.25469 0.0275356 5.57989 2.64023 5.57989 7.08027L5.57989 13.2838L5.73868 16.7693C5.76348 17.2797 6.14356 17.6828 6.65214 17.6828C7.15448 17.6828 7.53456 17.2797 7.55936 16.7693L7.71815 13.2838L7.71815 7.02167C7.71815 3.87615 9.50136 2.13846 12.0439 2.13846C14.5928 2.13846 16.458 3.87615 16.458 7.02167L16.458 9.29237C16.458 9.93319 16.9365 10.3779 17.524 10.3779Z" fill="white" fill-opacity="0.85"/>
 </g>
</svg>
