<?xml version="1.0" encoding="UTF-8"?>
<!--Generator: Apple Native CoreSVG 341-->
<!DOCTYPE svg
PUBLIC "-//W3C//DTD SVG 1.1//EN"
       "http://www.w3.org/Graphics/SVG/1.1/DTD/svg11.dtd">
<svg version="1.1" xmlns="http://www.w3.org/2000/svg" xmlns:xlink="http://www.w3.org/1999/xlink" viewBox="0 0 18.5894 18.2316">
 <g>
  <rect height="18.2316" opacity="0" width="18.5894" x="0" y="0"/>
  <path d="M3.20351 18.2281L15.0246 18.2281C17.1404 18.2281 18.2281 17.1502 18.2281 15.0646L18.2281 3.17148C18.2281 1.08769 17.1404 0 15.0246 0L3.20351 0C1.0957 0 0 1.08769 0 3.17148L0 15.0646C0 17.1502 1.0957 18.2281 3.20351 18.2281ZM3.31444 16.3148C2.40643 16.3148 1.91327 15.8465 1.91327 14.8977L1.91327 3.34023C1.91327 2.39139 2.40643 1.91503 3.31444 1.91503L14.9137 1.91503C15.8137 1.91503 16.3148 2.39139 16.3148 3.34023L16.3148 14.8977C16.3148 15.8465 15.8137 16.3148 14.9137 16.3148Z" fill="white" fill-opacity="0.85"/>
  <path d="M7.45233 11.843L9.26424 10.1932L12.6937 6.77343C12.8586 6.60858 12.9685 6.37812 12.9685 6.14765C12.9685 5.63437 12.6053 5.29843 12.1123 5.29843C11.848 5.29843 11.6389 5.39511 11.4555 5.56875L8.04277 8.97969L6.39472 10.7854C5.64667 11.6086 6.61093 12.5986 7.45233 11.843ZM6.86737 9.0041L6.86737 7.44472C6.86737 6.90918 6.55429 6.57227 6.06835 6.57227C5.58242 6.57227 5.26933 6.93144 5.26933 7.45546L5.26933 11.9953C5.26933 12.6709 5.64335 12.9711 6.24862 12.9711L10.8125 12.9711C11.34 12.9711 11.6787 12.6562 11.6787 12.1721C11.6787 11.6861 11.3355 11.365 10.8018 11.365L9.15272 11.365L6.55878 11.7072Z" fill="white" fill-opacity="0.85"/>
 </g>
</svg>
