<?xml version="1.0" encoding="UTF-8"?>
<!--Generator: Apple Native CoreSVG 341-->
<!DOCTYPE svg
PUBLIC "-//W3C//DTD SVG 1.1//EN"
       "http://www.w3.org/Graphics/SVG/1.1/DTD/svg11.dtd">
<svg version="1.1" xmlns="http://www.w3.org/2000/svg" xmlns:xlink="http://www.w3.org/1999/xlink" viewBox="0 0 28.0017 21.0406">
 <g>
  <rect height="21.0406" opacity="0" width="28.0017" x="0" y="0"/>
  <path d="M11.3047 2.42548L4.96425 8.33652C4.31112 8.94882 3.99804 9.74452 3.99804 10.5092C3.99804 11.2623 4.31288 12.0633 4.97577 12.6756L11.3097 18.6272C11.1729 19.1997 10.6802 19.5988 10.0441 19.5988C9.51816 19.5988 9.09765 19.3877 8.58672 18.9113L0.849021 11.6482C0.486912 11.3057 0.330858 10.8808 0.330858 10.5172C0.330858 10.1305 0.483397 9.72246 0.847263 9.37988L8.58672 2.17285C9.14824 1.64765 9.51093 1.43554 10.0281 1.43554C10.67 1.43554 11.1608 1.85434 11.3047 2.42548Z" fill="white" fill-opacity="0.85"/>
  <path d="M13.3322 6.28496C10.9849 6.28496 9.08495 8.17695 9.08495 10.526C9.08495 12.8812 10.9849 14.7732 13.3322 14.7732L16.7232 14.7732C20.3092 14.7732 22.5084 15.8129 24.0529 18.6986C24.4404 19.401 24.9143 19.5584 25.4141 19.5584C26.089 19.5584 26.608 18.9279 26.608 17.7348C26.608 10.6375 23.4933 6.28496 16.7232 6.28496ZM16.4787 18.2945L16.4787 2.78163C16.4787 2.03769 15.9183 1.43554 15.1566 1.43554C14.6314 1.43554 14.2687 1.64765 13.7072 2.17285L5.97577 9.37988C5.59588 9.74648 5.45135 10.1465 5.45135 10.5172C5.45135 10.8728 5.5994 11.2896 5.97753 11.6482L13.7072 18.9113C14.2181 19.3877 14.6387 19.5988 15.1726 19.5988C15.9183 19.5988 16.4787 19.0385 16.4787 18.2945Z" fill="white" fill-opacity="0.85"/>
 </g>
</svg>
