<?xml version="1.0" encoding="UTF-8"?>
<!--Generator: Apple Native CoreSVG 341-->
<!DOCTYPE svg
PUBLIC "-//W3C//DTD SVG 1.1//EN"
       "http://www.w3.org/Graphics/SVG/1.1/DTD/svg11.dtd">
<svg version="1.1" xmlns="http://www.w3.org/2000/svg" xmlns:xlink="http://www.w3.org/1999/xlink" viewBox="0 0 20.5381 20.2008">
 <g>
  <rect height="20.2008" opacity="0" width="20.5381" x="0" y="0"/>
  <path d="M10.0875 20.175C15.6576 20.175 20.1767 15.6559 20.1767 10.0875C20.1767 4.51914 15.6576 0 10.0875 0C4.51914 0 0 4.51914 0 10.0875C0 15.6559 4.51914 20.175 10.0875 20.175ZM10.0875 18.1879C5.60839 18.1879 1.9871 14.5666 1.9871 10.0875C1.9871 5.60839 5.60839 1.9871 10.0875 1.9871C14.5666 1.9871 18.1897 5.60839 18.1897 10.0875C18.1897 14.5666 14.5666 18.1879 10.0875 18.1879Z" fill="white" fill-opacity="0.85"/>
  <path d="M10.099 15.0852C10.6736 15.0852 10.9867 14.7174 10.9506 14.1391L10.8152 11.3851L13.2473 13.023C13.4148 13.1408 13.6055 13.21 13.8271 13.21C14.2715 13.21 14.6725 12.85 14.6725 12.3186C14.6725 11.9594 14.4943 11.6988 14.1281 11.523L11.5146 10.1338L14.1281 8.75253C14.4943 8.57675 14.6725 8.31171 14.6725 7.96054C14.6725 7.41933 14.2715 7.0664 13.8271 7.0664C13.6055 7.0664 13.4148 7.13554 13.2473 7.25781L10.8064 8.88222L10.9471 6.04218C10.9867 5.43476 10.642 5.08984 10.099 5.08984C9.54453 5.08984 9.17051 5.45253 9.21191 6.04745L9.35078 8.88222L6.91346 7.26581C6.7494 7.14179 6.55526 7.08242 6.3371 7.08242C5.89101 7.08242 5.48652 7.43261 5.48652 7.96855C5.48652 8.32772 5.66112 8.583 6.03261 8.76854L8.62832 10.1338L6.03436 11.5133C5.66816 11.6908 5.48652 11.9523 5.48652 12.3035C5.48652 12.8367 5.89101 13.2002 6.3371 13.2002C6.5535 13.2002 6.74413 13.1328 6.91171 13.015L9.34726 11.3851L9.21015 14.1391C9.17226 14.7014 9.51113 15.0852 10.099 15.0852Z" fill="white" fill-opacity="0.85"/>
 </g>
</svg>
