<?xml version="1.0" encoding="UTF-8"?>
<!--Generator: Apple Native CoreSVG 341-->
<!DOCTYPE svg
PUBLIC "-//W3C//DTD SVG 1.1//EN"
       "http://www.w3.org/Graphics/SVG/1.1/DTD/svg11.dtd">
<svg version="1.1" xmlns="http://www.w3.org/2000/svg" xmlns:xlink="http://www.w3.org/1999/xlink" viewBox="0 0 20.5381 20.1848">
 <g>
  <rect height="20.1848" opacity="0" width="20.5381" x="0" y="0"/>
  <path d="M20.1767 10.0875C20.1767 15.6478 15.6576 20.175 10.0875 20.175C4.52715 20.175 0 15.6478 0 10.0875C0 4.51914 4.52715 0 10.0875 0C15.6576 0 20.1767 4.51914 20.1767 10.0875ZM4.24628 10.1035C4.24628 13.6754 6.6496 16.0594 10.2426 16.0594C11.1131 16.0594 11.949 15.958 12.4936 15.7795C12.9012 15.641 13.1303 15.3844 13.1303 15.032C13.1303 14.6771 12.8623 14.4145 12.4969 14.4145C12.3977 14.4145 12.24 14.442 12.1 14.466C11.5168 14.5977 11.0543 14.6795 10.4184 14.6795C7.5121 14.6795 5.69628 12.9381 5.69628 10.1328C5.69628 7.34882 7.50956 5.46171 10.1939 5.46171C12.8057 5.46171 14.5719 7.09569 14.5719 9.54667C14.5719 11.0283 14.0799 11.9523 13.4107 11.9523C12.9779 11.9523 12.7566 11.7125 12.7566 11.2533L12.7566 7.76561C12.7566 7.30702 12.4631 7.00097 12.0125 7.00097C11.608 7.00097 11.3312 7.30898 11.3312 7.5953L11.3312 7.75898C10.9662 7.30995 10.3695 7.00097 9.71797 7.00097C8.20312 7.00097 7.13925 8.28769 7.13925 10.1133C7.13925 11.9707 8.21015 13.2725 9.76484 13.2725C10.5115 13.2742 11.135 12.9332 11.5133 12.325C11.7895 12.9049 12.41 13.2707 13.2213 13.2707C14.8705 13.2707 15.9641 11.7461 15.9641 9.51288C15.9641 6.29179 13.6254 4.09159 10.2019 4.09159C6.66484 4.09159 4.24628 6.53339 4.24628 10.1035ZM11.3424 10.0758C11.3424 11.165 10.8322 11.8324 10.0467 11.8324C9.27441 11.8324 8.79003 11.1811 8.79003 10.0998C8.79003 9.02831 9.28417 8.36366 10.0564 8.36366C10.8385 8.36366 11.3424 9.0123 11.3424 10.0758Z" fill="white" fill-opacity="0.85"/>
 </g>
</svg>
