<?xml version="1.0" encoding="UTF-8"?>
<!--Generator: Apple Native CoreSVG 341-->
<!DOCTYPE svg
PUBLIC "-//W3C//DTD SVG 1.1//EN"
       "http://www.w3.org/Graphics/SVG/1.1/DTD/svg11.dtd">
<svg version="1.1" xmlns="http://www.w3.org/2000/svg" xmlns:xlink="http://www.w3.org/1999/xlink" viewBox="0 0 20.7242 21.6762">
 <g>
  <rect height="21.6762" opacity="0" width="20.7242" x="0" y="0"/>
  <path d="M0 11.3203C0 17.7312 4.36953 21.6762 10.4676 21.6762C12.0764 21.6762 13.5016 21.4744 14.39 21.176C15.041 20.9594 15.2611 20.6131 15.2611 20.2113C15.2611 19.7973 14.9604 19.4939 14.5111 19.4939C14.3711 19.4939 14.2061 19.5135 14.0117 19.5553C12.9574 19.8043 12.0375 19.9732 10.7871 19.9732C5.46113 19.9732 1.87128 16.7717 1.87128 11.3771C1.87128 6.17831 5.2789 2.57753 10.3721 2.57753C14.9311 2.57753 18.601 5.40155 18.601 10.3697C18.601 13.16 17.6717 15.0344 16.1728 15.0344C15.1742 15.0344 14.6127 14.4287 14.6127 13.3924L14.6127 7.12284C14.6127 6.50234 14.2705 6.13437 13.6758 6.13437C13.0926 6.13437 12.7424 6.50234 12.7424 7.12284L12.7424 8.05859L12.6229 8.05859C12.1266 6.86972 10.9375 6.13437 9.5 6.13437C6.98828 6.13437 5.23906 8.26269 5.23906 11.3478C5.23906 14.4781 6.9961 16.6436 9.57774 16.6436C11.0756 16.6436 12.2018 15.8549 12.7576 14.4945L12.8736 14.4945C13.0996 15.8363 14.2617 16.6463 15.8188 16.6463C18.6295 16.6463 20.3629 14.0127 20.3629 10.2416C20.3629 4.58183 16.2053 0.882614 10.3881 0.882614C4.27441 0.882614 0 5.05058 0 11.3203ZM9.96093 14.8844C8.3412 14.8844 7.31757 13.5313 7.31757 11.3627C7.31757 9.2244 8.35097 7.86776 9.96894 7.86776C11.627 7.86776 12.6701 9.20038 12.6701 11.3307C12.6701 13.4992 11.6047 14.8844 9.96093 14.8844Z" fill="white" fill-opacity="0.85"/>
 </g>
</svg>
