<?xml version="1.0" encoding="UTF-8"?>
<!--Generator: Apple Native CoreSVG 341-->
<!DOCTYPE svg
PUBLIC "-//W3C//DTD SVG 1.1//EN"
       "http://www.w3.org/Graphics/SVG/1.1/DTD/svg11.dtd">
<svg version="1.1" xmlns="http://www.w3.org/2000/svg" xmlns:xlink="http://www.w3.org/1999/xlink" viewBox="0 0 21.7841 23.7965">
 <g>
  <rect height="23.7965" opacity="0" width="21.7841" x="0" y="0"/>
  <path d="M3.18302 13.1583C1.82298 14.7057 1.31515 16.0945 1.84867 17.0199C2.38829 17.9524 3.84524 18.2097 5.86507 17.808C6.00713 18.3959 6.17156 18.9471 6.35965 19.4519C3.50348 19.969 1.33058 19.4345 0.41411 17.8498C-0.497704 16.2682 0.125997 14.1203 2.0047 11.9072C2.3484 12.3228 2.74426 12.7411 3.18302 13.1583ZM10.7231 18.0555C9.78872 18.4694 8.88631 18.8025 8.02869 19.0537C7.85169 18.55 7.69723 17.9825 7.56901 17.3571C7.89785 17.253 8.23892 17.1319 8.58868 16.9971C9.31726 17.4041 10.0308 17.7569 10.7231 18.0555ZM14.0575 16.3138C13.8701 16.4295 13.6773 16.5438 13.4813 16.6572C13.2714 16.7782 13.0624 16.8954 12.857 17C12.1779 16.7432 11.4624 16.4292 10.7208 16.0614C11.3187 15.7687 11.934 15.4402 12.5612 15.0785C13.1817 14.7198 13.7681 14.355 14.3151 13.9875C14.2621 14.8161 14.1756 15.5954 14.0575 16.3138ZM18.2562 13.1579C17.6087 13.7766 16.8683 14.3931 16.0398 14.9963C16.1283 14.2447 16.1803 13.4471 16.1928 12.6092C16.4847 12.3744 16.7576 12.1404 17.0134 11.9081C17.4924 12.333 17.9078 12.7517 18.2562 13.1579ZM5.23716 11.2155C4.94937 11.4469 4.68045 11.6775 4.42803 11.9064C3.94846 11.481 3.53261 11.0618 3.1837 10.6551C3.8283 10.0407 4.5645 9.42853 5.38722 8.82945C5.29969 9.58102 5.24861 10.3782 5.23716 11.2155ZM21.0069 5.96445C21.92 7.54862 21.3025 9.69389 19.4326 11.9044C19.0904 11.4889 18.6961 11.0708 18.259 10.6538C19.6123 9.11057 20.1162 7.72527 19.5821 6.79433C19.0429 5.86194 17.5861 5.60334 15.5683 6.00488C15.4257 5.41679 15.2609 4.865 15.0722 4.35979C17.9211 3.84424 20.0909 4.38081 21.0069 5.96445ZM10.7203 7.75358C10.1278 8.04467 9.51831 8.37148 8.89711 8.73124C8.2665 9.09424 7.67104 9.46384 7.11572 9.83643C7.16745 9.00847 7.25305 8.23036 7.36986 7.51244C7.57016 7.38943 7.77577 7.26782 7.985 7.14726C8.18786 7.02994 8.38987 6.91608 8.58842 6.81484C9.26619 7.07196 9.98032 7.38605 10.7203 7.75358ZM13.867 6.45571C13.5415 6.55887 13.2039 6.679 12.8578 6.81253C12.1286 6.4059 11.4145 6.0534 10.7217 5.75501C11.6526 5.34122 12.5518 5.00848 13.4067 4.75754C13.5842 5.2615 13.7388 5.82956 13.867 6.45571Z" fill="white" fill-opacity="0.85"/>
  <path d="M21.0069 17.8498C20.0909 19.4287 17.922 19.9634 15.0715 19.4463C15.2594 18.9426 15.4235 18.3927 15.5654 17.8063C17.5846 18.2094 19.041 17.9526 19.5803 17.0199C20.3394 15.7085 19.0249 13.4918 16.1934 11.208C16.1817 10.3709 16.1304 9.57393 16.0425 8.82265C20.3919 11.9882 22.3444 15.52 21.0069 17.8498ZM8.89711 15.0865C10.6851 16.1183 12.3759 16.8792 13.8639 17.3561C13.7355 17.9822 13.5808 18.5502 13.4034 19.0543C11.734 18.5654 9.89722 17.7689 7.985 16.6652C7.77391 16.5436 7.56651 16.421 7.37201 16.295C7.25524 15.5794 7.16953 14.8038 7.11704 13.9794C7.67217 14.3524 8.2671 14.7226 8.89711 15.0865ZM6.35651 4.36063C6.16863 4.86449 6.0045 5.4147 5.86253 6.00117C3.84363 5.59781 2.38799 5.85438 1.84867 6.78456C1.0967 8.09515 2.40729 10.3115 5.23769 12.5982C5.24977 13.4331 5.30112 14.2279 5.38866 14.9773C1.0348 11.8098-0.921018 8.28178 0.41411 5.95469C1.32901 4.37862 3.50056 3.8438 6.35651 4.36063ZM13.4813 7.15527L14.0619 7.50678C14.179 8.22482 14.2647 9.00325 14.3166 9.83159C13.7684 9.46347 13.181 9.09826 12.5594 8.73924C10.7611 7.69859 9.06125 6.93213 7.56635 6.4525C7.69477 5.82575 7.8496 5.2572 8.02714 4.75284C9.70642 5.24311 11.5556 6.04404 13.4813 7.15527Z" fill="white" fill-opacity="0.85"/>
  <path d="M10.7114 23.7965C13.8778 23.7965 16.2077 18.9637 16.2077 11.8934C16.2077 4.84082 13.8778 0.0160158 10.7114 0.0160158C7.54848 0.0160158 5.22309 4.84258 5.22309 11.8934C5.22309 18.9601 7.54848 23.7965 10.7114 23.7965ZM10.7114 22.1447C8.65277 22.1447 7.04906 17.9629 7.04906 11.8934C7.04906 5.83183 8.65277 1.66776 10.7114 1.66776C12.7815 1.66776 14.3835 5.83007 14.3835 11.8934C14.3835 17.9646 12.7815 22.1447 10.7114 22.1447Z" fill="white" fill-opacity="0.85"/>
  <path d="M10.7114 13.8971C11.81 13.8971 12.6991 13.008 12.6991 11.9014C12.6991 10.8027 11.81 9.91366 10.7114 9.91366C9.60473 9.91366 8.71567 10.8027 8.71567 11.9014C8.71567 13.008 9.60473 13.8971 10.7114 13.8971Z" fill="white" fill-opacity="0.85"/>
 </g>
</svg>
