<?xml version="1.0" encoding="UTF-8"?>
<!--Generator: Apple Native CoreSVG 341-->
<!DOCTYPE svg
PUBLIC "-//W3C//DTD SVG 1.1//EN"
       "http://www.w3.org/Graphics/SVG/1.1/DTD/svg11.dtd">
<svg version="1.1" xmlns="http://www.w3.org/2000/svg" xmlns:xlink="http://www.w3.org/1999/xlink" viewBox="0 0 6.18788 22.6586">
 <g>
  <rect height="22.6586" opacity="0" width="6.18788" x="0" y="0"/>
  <path d="M2.91992 19.2732C4.52011 19.2732 5.82656 17.9748 5.82656 16.3746L5.82656 12.0187C5.82656 11.6355 5.55956 11.3765 5.18261 11.3765L0.655466 11.3765C0.262499 11.3765 0 11.6355 0 12.0187L0 16.3746C0 17.9748 1.3082 19.2732 2.91992 19.2732ZM2.02578 22.6568L3.80253 22.6568L3.80253 18.4662L2.02578 18.4662ZM1.91914 10.1822L3.90742 10.1822L3.90742 5.77323L1.91914 5.77323ZM1.91914 4.67382L3.90742 4.67382L3.90742 2.99941L1.91914 2.99941ZM1.91914 1.908L3.90742 1.908L3.90742 0.651951C3.90742 0.258983 3.64667 0 3.27148 0L2.55507 0C2.17988 0 1.91914 0.258983 1.91914 0.651951Z" fill="white" fill-opacity="0.85"/>
 </g>
</svg>
