<?xml version="1.0" encoding="UTF-8"?>
<!--Generator: Apple Native CoreSVG 341-->
<!DOCTYPE svg
PUBLIC "-//W3C//DTD SVG 1.1//EN"
       "http://www.w3.org/Graphics/SVG/1.1/DTD/svg11.dtd">
<svg version="1.1" xmlns="http://www.w3.org/2000/svg" xmlns:xlink="http://www.w3.org/1999/xlink" viewBox="0 0 20.5381 20.1848">
 <g>
  <rect height="20.1848" opacity="0" width="20.5381" x="0" y="0"/>
  <path d="M10.0875 20.175C15.6576 20.175 20.1767 15.6559 20.1767 10.0875C20.1767 4.51914 15.6576 0 10.0875 0C4.51914 0 0 4.51914 0 10.0875C0 15.6559 4.51914 20.175 10.0875 20.175ZM10.0875 18.1879C5.60839 18.1879 1.9871 14.5666 1.9871 10.0875C1.9871 5.60839 5.60839 1.9871 10.0875 1.9871C14.5666 1.9871 18.1897 5.60839 18.1897 10.0875C18.1897 14.5666 14.5666 18.1879 10.0875 18.1879Z" fill="white" fill-opacity="0.85"/>
  <path d="M7.30722 7.30195C5.87636 8.73281 5.00116 10.9295 5.18573 12.8377C5.29042 14.048 6.11444 14.8605 7.32304 14.975C9.233 15.1693 11.4377 14.2924 12.8668 12.8633C14.2959 11.4342 15.1729 9.22949 14.9785 7.31777C14.8641 6.11093 14.0498 5.28866 12.8395 5.18222C10.9312 4.99765 8.73808 5.87284 7.30722 7.30195ZM11.1068 8.01699L12.1455 9.04589C12.2387 9.15058 12.2307 9.31562 12.1455 9.41679C12.0426 9.51171 11.8873 9.5082 11.7826 9.40702L11.4478 9.07402L11.1234 9.39394L11.4627 9.74472C11.5514 9.82988 11.5594 9.98515 11.4644 10.0898C11.3633 10.191 11.2098 10.1795 11.1131 10.0801L10.7686 9.74531L10.4521 10.0652L10.7834 10.4125C10.8801 10.5012 10.8846 10.6725 10.7852 10.7611C10.6902 10.8668 10.535 10.8463 10.4383 10.7594L10.0973 10.4344L9.76132 10.741L10.1139 11.0873C10.2168 11.1805 10.2168 11.3455 10.1139 11.4404C10.0127 11.5434 9.85566 11.5434 9.75273 11.4324L9.42949 11.1039L9.10156 11.4238L9.43281 11.7666C9.53574 11.8615 9.53124 12.015 9.43456 12.1277C9.33339 12.2111 9.18613 12.2111 9.0832 12.118L8.04277 11.0873C7.9496 10.9941 7.94785 10.8389 8.04101 10.7279C8.15546 10.6312 8.30898 10.6312 8.40214 10.7279L8.73691 11.0707L9.0666 10.741L8.72207 10.416C8.61914 10.3086 8.61914 10.1498 8.72031 10.0549C8.82499 9.94394 8.98378 9.94218 9.08495 10.0469L9.42148 10.3932L9.73613 10.0635L9.40136 9.72871C9.3082 9.61601 9.29218 9.47402 9.40136 9.38535C9.49804 9.27441 9.6498 9.27441 9.74472 9.37734L10.0875 9.72011L10.4252 9.39394L10.0709 9.05566C9.97949 8.95273 9.97148 8.7957 10.0709 8.70605C10.1818 8.5996 10.3228 8.60136 10.424 8.70605L10.7668 9.03105L11.0965 8.72265L10.7439 8.38613C10.6588 8.2832 10.657 8.11992 10.7422 8.01874C10.8549 7.93007 11.0199 7.92206 11.1068 8.01699Z" fill="white" fill-opacity="0.85"/>
 </g>
</svg>
