<?xml version="1.0" encoding="UTF-8"?>
<!--Generator: Apple Native CoreSVG 341-->
<!DOCTYPE svg
PUBLIC "-//W3C//DTD SVG 1.1//EN"
       "http://www.w3.org/Graphics/SVG/1.1/DTD/svg11.dtd">
<svg version="1.1" xmlns="http://www.w3.org/2000/svg" xmlns:xlink="http://www.w3.org/1999/xlink" viewBox="0 0 24.226 20.1848">
 <g>
  <rect height="20.1848" opacity="0" width="24.226" x="0" y="0"/>
  <path d="M0.721518 8.12363C-0.00973073 8.12363-0.190785 8.66894 0.204136 9.22109L2.47249 12.3723C2.78948 12.8092 3.27757 12.8012 3.58831 12.3723L5.8469 9.21308C6.24007 8.66894 6.051 8.12363 5.33929 8.12363ZM22.0239 10.0875C22.0239 4.51914 17.503 0 11.9364 0C6.368 0 1.85687 4.50937 1.84886 10.099C1.85687 10.6476 2.29378 11.0846 2.83441 11.0846C3.38303 11.0846 3.83596 10.6396 3.83596 10.091C3.83596 5.60839 7.45725 1.9871 11.9364 1.9871C16.4155 1.9871 20.0368 5.60839 20.0368 10.0875C20.0368 14.5666 16.4155 18.1879 11.9364 18.1879C9.3096 18.1879 7.0131 16.9437 5.54279 15.0176C5.1469 14.5609 4.58421 14.4129 4.10726 14.7519C3.66214 15.0734 3.55902 15.725 3.99475 16.2355C5.84631 18.6584 8.71858 20.175 11.9364 20.175C17.503 20.175 22.0239 15.6559 22.0239 10.0875Z" fill="white" fill-opacity="0.85"/>
  <path d="M7.32405 13.7148C7.62815 13.7148 7.80744 13.5438 7.88108 13.2129L8.23147 11.8266L10.4039 11.8266L10.7641 13.2182C10.852 13.5473 11.0205 13.7148 11.3584 13.7148C11.652 13.7148 11.8951 13.534 11.8951 13.1791C11.8951 13.0586 11.8836 12.9512 11.8428 12.8137L10.1998 7.03807C10.0641 6.57323 9.79807 6.34256 9.31819 6.34256C8.85159 6.34256 8.57757 6.58924 8.45159 7.03807L6.8219 12.8137C6.78284 12.9281 6.75803 13.0559 6.75803 13.1791C6.75803 13.534 7.01096 13.7148 7.32405 13.7148ZM8.45608 10.933L9.26136 7.67811L9.34749 7.67811L10.1776 10.933ZM14.692 13.499C15.9202 13.499 16.8807 12.8631 16.8807 11.6217C16.8807 10.5594 16.2625 10.1447 15.3071 9.7041L14.6473 9.39941C14.125 9.16308 13.6459 8.86171 13.6459 8.31151C13.6459 7.73729 14.1098 7.44042 14.6813 7.44042C15.3026 7.44042 15.5825 7.7996 15.7299 8.39433C15.8123 8.63749 15.9739 8.77421 16.2303 8.77421C16.5373 8.77421 16.7467 8.59765 16.7467 8.29589C16.7467 8.17792 16.7272 8.06151 16.6881 7.93007C16.4467 7.03202 15.6938 6.55839 14.683 6.55839C13.4985 6.55839 12.5725 7.20936 12.5725 8.38417C12.5725 9.35663 13.1364 9.86816 14.0991 10.307L14.8073 10.6258C15.3485 10.8773 15.8028 11.1449 15.8028 11.7236C15.8028 12.3369 15.3639 12.6072 14.7043 12.6072C13.9746 12.6072 13.6672 12.199 13.5438 11.6676C13.4586 11.3586 13.2741 11.2299 13.0203 11.2299C12.7346 11.2299 12.511 11.4145 12.511 11.7305C12.511 11.8369 12.5243 11.9398 12.5473 12.0455C12.7416 12.9178 13.6225 13.499 14.692 13.499ZM14.6928 14.4229C14.819 14.4229 14.9336 14.3162 14.9336 14.182L14.9336 5.87538C14.9336 5.74745 14.819 5.6328 14.6928 5.6328C14.5586 5.6328 14.452 5.74745 14.452 5.87538L14.452 14.182C14.452 14.3162 14.5586 14.4229 14.6928 14.4229Z" fill="white" fill-opacity="0.85"/>
 </g>
</svg>
