<?xml version="1.0" encoding="UTF-8"?>
<!--Generator: Apple Native CoreSVG 341-->
<!DOCTYPE svg
PUBLIC "-//W3C//DTD SVG 1.1//EN"
       "http://www.w3.org/Graphics/SVG/1.1/DTD/svg11.dtd">
<svg version="1.1" xmlns="http://www.w3.org/2000/svg" xmlns:xlink="http://www.w3.org/1999/xlink" viewBox="0 0 20.5381 20.1848">
 <g>
  <rect height="20.1848" opacity="0" width="20.5381" x="0" y="0"/>
  <path d="M20.1767 10.0875C20.1767 15.6478 15.6576 20.175 10.0875 20.175C4.52715 20.175 0 15.6478 0 10.0875C0 4.51914 4.52715 0 10.0875 0C15.6576 0 20.1767 4.51914 20.1767 10.0875ZM12.859 5.46972L12.859 6.21913C11.6775 6.31776 10.783 7.01737 10.783 8.22284C10.783 9.30429 11.3937 9.86093 12.4574 10.3459L12.859 10.518L12.859 12.8234C12.2644 12.7301 11.981 12.3309 11.8736 11.8199C11.7752 11.4906 11.5721 11.3389 11.2768 11.3389C10.9592 11.3389 10.717 11.55 10.717 11.8961C10.717 12.0176 10.7303 12.1338 10.7551 12.2545C10.9502 13.1353 11.8014 13.7369 12.859 13.8303L12.859 14.5859C12.859 14.7334 12.9771 14.8498 13.1228 14.8498C13.2605 14.8498 13.3867 14.7334 13.3867 14.5859L13.3867 13.8303C14.6144 13.7441 15.5498 13.0453 15.5498 11.767C15.5498 10.61 14.859 10.1394 13.807 9.66523L13.3867 9.4789L13.3867 7.22596C13.8809 7.31307 14.1189 7.67753 14.2504 8.22597C14.3461 8.50546 14.5262 8.65722 14.8109 8.65722C15.1516 8.65722 15.3893 8.45234 15.3893 8.1205C15.3893 7.99374 15.3697 7.85956 15.3289 7.72284C15.0707 6.80995 14.358 6.29823 13.3867 6.22714L13.3867 5.46972C13.3867 5.32401 13.2605 5.20761 13.1228 5.20761C12.9771 5.20761 12.859 5.32401 12.859 5.46972ZM6.23008 6.766L4.45234 13.0699C4.41952 13.1932 4.37695 13.3279 4.37695 13.4697C4.37695 13.868 4.6582 14.0771 5.00839 14.0771C5.35136 14.0771 5.55721 13.8795 5.64237 13.5098L6.0203 12.0133L8.39043 12.0133L8.77637 13.5168C8.8793 13.883 9.05488 14.0771 9.43964 14.0771C9.77206 14.0771 10.0453 13.868 10.0453 13.4697C10.0453 13.3387 10.032 13.218 9.98769 13.0699L8.18866 6.75799C8.04413 6.23925 7.74452 5.98026 7.19921 5.98026C6.67871 5.98026 6.37285 6.25702 6.23008 6.766ZM14.341 11.892C14.341 12.4687 13.96 12.7701 13.3867 12.8314L13.3867 10.757C13.9215 11.0156 14.341 11.3125 14.341 11.892ZM8.1375 11.0189L6.26171 11.0189L7.14238 7.46795L7.23202 7.46795ZM12.859 9.22207C12.3695 8.97773 11.9855 8.66308 11.9855 8.14491C11.9855 7.60722 12.3578 7.2953 12.859 7.2162Z" fill="white" fill-opacity="0.85"/>
 </g>
</svg>
