<?xml version="1.0" encoding="UTF-8"?>
<!--Generator: Apple Native CoreSVG 341-->
<!DOCTYPE svg
PUBLIC "-//W3C//DTD SVG 1.1//EN"
       "http://www.w3.org/Graphics/SVG/1.1/DTD/svg11.dtd">
<svg version="1.1" xmlns="http://www.w3.org/2000/svg" xmlns:xlink="http://www.w3.org/1999/xlink" viewBox="0 0 24.2049 19.8808">
 <g>
  <rect height="19.8808" opacity="0" width="24.2049" x="0" y="0"/>
  <path d="M23.8435 11.9178C23.8435 9.01855 22.8031 6.3457 21.0623 4.27031C20.8547 4.02011 20.498 4.02011 20.2621 4.2623L17.9578 6.56484C17.7547 6.76796 17.7467 7.05097 17.9232 7.27363C18.9185 8.56269 19.517 10.1768 19.517 11.9178C19.517 13.6826 18.9115 15.3107 17.8488 16.6611C17.6945 16.8535 17.7025 17.0982 17.8719 17.2756L20.2242 19.6279C20.4646 19.8683 20.8133 19.8683 21.0359 19.6066C22.7908 17.5277 23.8435 14.8443 23.8435 11.9178Z" fill="white" fill-opacity="0.85"/>
  <path d="M11.9178 4.32656C13.6783 4.32656 15.2941 4.933 16.5912 5.93183C16.8041 6.09863 17.0791 6.0791 17.2787 5.87773L19.5812 3.57343C19.8252 3.33125 19.8154 2.9791 19.5582 2.76797C17.4926 1.04043 14.8232 0 11.9178 0C9.02031 0 6.35097 1.04043 4.28711 2.76797C4.02988 2.9791 4.01836 3.33125 4.2623 3.57343L6.56484 5.87773C6.76445 6.0791 7.05097 6.09863 7.28163 5.92207C8.56894 4.933 10.1768 4.32656 11.9178 4.32656Z" fill="white" fill-opacity="0.85"/>
  <path d="M0 11.9178C0 14.8461 1.05625 17.5348 2.81465 19.6137C3.02402 19.8719 3.3789 19.8683 3.61308 19.6279L5.96367 17.2756C6.133 17.0982 6.15077 16.8535 5.99472 16.6611C4.93378 15.3107 4.32656 13.6826 4.32656 11.9178C4.32656 10.1768 4.91699 8.56269 5.92031 7.27363C6.08886 7.05097 6.08886 6.76796 5.88574 6.56484L3.58144 4.2623C3.33926 4.02011 2.98711 4.02187 2.77422 4.2791C1.03867 6.35097 0 9.02031 0 11.9178Z" fill="white" fill-opacity="0.85"/>
  <path d="M7.23202 15.6734C7.54843 15.6734 7.73475 15.4953 7.81014 15.1584L8.16229 13.7793L10.3494 13.7793L10.7113 15.1637C10.7965 15.4988 10.9703 15.6734 11.3223 15.6734C11.6201 15.6734 11.8721 15.4855 11.8721 15.1166C11.8721 14.9908 11.8605 14.8879 11.818 14.7451L10.1629 8.92362C10.0219 8.44745 9.75155 8.20976 9.26034 8.20976C8.77617 8.20976 8.4916 8.46522 8.36035 8.93163L6.71855 14.7451C6.68573 14.8631 6.66093 14.9881 6.66093 15.1166C6.66093 15.4855 6.91288 15.6734 7.23202 15.6734ZM8.38593 12.8523L9.20351 9.58124L9.28339 9.58124L10.124 12.8523ZM14.71 15.4523C15.96 15.4523 16.9424 14.8103 16.9424 13.5533C16.9424 12.4744 16.3084 12.0492 15.3443 11.6061L14.667 11.2961C14.1404 11.0562 13.6641 10.7576 13.6641 10.2021C13.6641 9.62714 14.1287 9.333 14.6992 9.333C15.3213 9.333 15.5984 9.69745 15.7574 10.2832C15.8434 10.5351 16.0021 10.6834 16.2674 10.6834C16.5867 10.6834 16.8031 10.4918 16.8031 10.1795C16.8031 10.066 16.7818 9.94785 16.741 9.81288C16.4863 8.90175 15.7283 8.42909 14.701 8.42909C13.5025 8.42909 12.5502 9.08964 12.5502 10.2783C12.5502 11.2736 13.1201 11.7894 14.0977 12.2291L14.8207 12.5566C15.3805 12.8019 15.8303 13.073 15.8303 13.6605C15.8303 14.2648 15.3826 14.5387 14.724 14.5387C13.9918 14.5387 13.6773 14.135 13.5521 13.5965C13.4635 13.2867 13.2816 13.1545 13.0174 13.1545C12.7211 13.1545 12.4887 13.3443 12.4887 13.6611C12.4887 13.7809 12.5037 13.8855 12.5365 13.9885C12.7281 14.8721 13.6256 15.4523 14.71 15.4523ZM14.7107 16.3893C14.8404 16.3893 14.9488 16.2809 14.9488 16.1529L14.9488 7.73827C14.9488 7.60858 14.8404 7.49218 14.7107 7.49218C14.5748 7.49218 14.4664 7.60858 14.4664 7.73827L14.4664 16.1529C14.4664 16.2809 14.5748 16.3893 14.7107 16.3893Z" fill="white" fill-opacity="0.85"/>
 </g>
</svg>
