<?xml version="1.0" encoding="UTF-8"?>
<!--Generator: Apple Native CoreSVG 341-->
<!DOCTYPE svg
PUBLIC "-//W3C//DTD SVG 1.1//EN"
       "http://www.w3.org/Graphics/SVG/1.1/DTD/svg11.dtd">
<svg version="1.1" xmlns="http://www.w3.org/2000/svg" xmlns:xlink="http://www.w3.org/1999/xlink" viewBox="0 0 27.0543 22.0004">
 <g>
  <rect height="22.0004" opacity="0" width="27.0543" x="0" y="0"/>
  <path d="M1.21093 20.2041C1.9033 20.2041 2.26658 19.8439 2.4447 19.1568L3.64256 15.1504L9.74101 15.1504L10.9459 19.1727C11.1311 19.8598 11.4979 20.2041 12.208 20.2041C12.8873 20.2041 13.4056 19.749 13.4056 19.0635C13.4056 18.8379 13.34 18.5365 13.2701 18.3065L8.53083 3.20428C8.25193 2.27285 7.6783 1.75 6.68749 1.75C5.72129 1.75 5.15294 2.28066 4.8713 3.21229L0.147069 18.3065C0.0824213 18.5322 0 18.8235 0 19.0652C0 19.7684 0.496286 20.2041 1.21093 20.2041ZM4.17557 13.16L6.61659 4.72049L6.72284 4.72049L9.19922 13.16ZM21.0289 19.6795C24.1847 19.6795 26.6929 18.0621 26.6929 14.9596C26.6929 12.2186 24.8074 11.1391 22.4582 10.2193L20.7408 9.54727C19.207 8.96309 17.9304 8.19258 17.9304 6.67383C17.9304 5.09101 19.3767 4.26346 20.9967 4.26346C22.6902 4.26346 23.7512 5.17636 24.1125 6.79043C24.2717 7.3125 24.6119 7.68964 25.2396 7.68964C25.9478 7.68964 26.3881 7.25859 26.38 6.5957C26.38 6.40176 26.3552 6.18164 26.3049 5.9752C25.7035 3.46934 23.5347 2.2666 20.9967 2.2666C18.0531 2.2666 15.565 3.91406 15.565 6.86562C15.565 9.41581 17.3408 10.6754 19.6728 11.5764L21.5195 12.2889C23.0734 12.8807 24.3373 13.5748 24.3373 15.1959C24.3373 16.9029 22.8826 17.6826 21.0439 17.6826C19.1535 17.6826 17.9879 16.8168 17.6177 15.057C17.447 14.4834 17.0738 14.1348 16.4816 14.1348C15.8162 14.1348 15.3547 14.5691 15.3547 15.2125C15.3547 15.4342 15.3928 15.6691 15.4449 15.8693C16.04 18.4705 18.3486 19.6795 21.0289 19.6795ZM21.0176 21.9906C21.3515 21.9906 21.6207 21.7197 21.6207 21.3857L21.6207 0.604884C21.6207 0.270899 21.3515 0 21.0176 0C20.6836 0 20.4144 0.270899 20.4144 0.604884L20.4144 21.3857C20.4144 21.7197 20.6836 21.9906 21.0176 21.9906Z" fill="white" fill-opacity="0.85"/>
 </g>
</svg>
