<?xml version="1.0" encoding="UTF-8"?>
<!--Generator: Apple Native CoreSVG 341-->
<!DOCTYPE svg
PUBLIC "-//W3C//DTD SVG 1.1//EN"
       "http://www.w3.org/Graphics/SVG/1.1/DTD/svg11.dtd">
<svg version="1.1" xmlns="http://www.w3.org/2000/svg" xmlns:xlink="http://www.w3.org/1999/xlink" viewBox="0 0 24.2049 19.7961">
 <g>
  <rect height="19.7961" opacity="0" width="24.2049" x="0" y="0"/>
  <path d="M23.8435 11.8701C23.8435 5.64747 19.073 0.538875 12.9941 0.00293831C12.6553-0.029874 12.3998 0.215828 12.3998 0.554694L12.3998 3.8043C12.3998 4.08907 12.6012 4.30645 12.8842 4.33301C16.6191 4.80957 19.517 8.00293 19.517 11.8701C19.517 13.6332 18.9115 15.2613 17.8488 16.61C17.6945 16.8023 17.7025 17.0471 17.8719 17.2244L20.2322 19.5785C20.4646 19.8144 20.823 19.8109 21.0359 19.559C22.7926 17.4783 23.8435 14.7949 23.8435 11.8701Z" fill="white" fill-opacity="0.85"/>
  <path d="M0 11.8701C0 14.8029 1.05098 17.4863 2.80586 19.5652C3.01875 19.8172 3.36914 19.8109 3.61132 19.5768L5.96992 17.2227C6.13925 17.0453 6.14726 16.8006 5.99296 16.6082C4.92578 15.2613 4.32656 13.6332 4.32656 11.8701C4.32656 8.00293 7.22617 4.80957 10.9594 4.33301C11.2441 4.30645 11.4437 4.08907 11.4437 3.8043L11.4437 0.554694C11.4437 0.215828 11.1883-0.029874 10.8494 0.00293831C4.77226 0.538875 0 5.64747 0 11.8701Z" fill="white" fill-opacity="0.85"/>
  <path d="M9.15976 16.4326C9.50018 16.4326 9.69608 16.2633 9.78651 15.9326L11.8902 8.94882L11.9328 8.94882L14.0348 15.9406C14.1172 16.2473 14.3068 16.4326 14.6766 16.4326C15.0391 16.4326 15.3228 16.227 15.3228 15.8484C15.3228 15.727 15.3016 15.6143 15.2687 15.5043L12.8799 8.17265C12.7328 7.68633 12.4369 7.44082 11.9115 7.44082C11.4039 7.44082 11.0805 7.69609 10.9334 8.17265L8.55253 15.5363C8.51171 15.6481 8.49042 15.743 8.49042 15.8484C8.49042 16.2225 8.77773 16.4326 9.15976 16.4326ZM8.07695 12.2313C8.07695 12.4 8.21816 12.5412 8.38691 12.5412L15.4361 12.5412C15.6111 12.5412 15.7443 12.4 15.7443 12.2313C15.7443 12.0643 15.6111 11.923 15.4361 11.923L8.38691 11.923C8.21816 11.923 8.07695 12.0643 8.07695 12.2313ZM8.07695 13.9443C8.07695 14.1131 8.21816 14.2543 8.38691 14.2543L15.4361 14.2543C15.6111 14.2543 15.7443 14.1131 15.7443 13.9443C15.7443 13.7693 15.6111 13.6361 15.4361 13.6361L8.38691 13.6361C8.21816 13.6361 8.07695 13.7693 8.07695 13.9443Z" fill="white" fill-opacity="0.85"/>
 </g>
</svg>
