<?xml version="1.0" encoding="UTF-8"?>
<!--Generator: Apple Native CoreSVG 341-->
<!DOCTYPE svg
PUBLIC "-//W3C//DTD SVG 1.1//EN"
       "http://www.w3.org/Graphics/SVG/1.1/DTD/svg11.dtd">
<svg version="1.1" xmlns="http://www.w3.org/2000/svg" xmlns:xlink="http://www.w3.org/1999/xlink" viewBox="0 0 22.7515 21.4965">
 <g>
  <rect height="21.4965" opacity="0" width="22.7515" x="0" y="0"/>
  <path d="M12.481 0.359374L20.9545 5.24941C21.351 5.47734 21.5363 5.7664 21.5363 6.09277C21.5363 6.53886 21.1851 6.98046 20.5865 6.98046L19.7447 6.98046L19.7447 18.2742L20.3117 18.2742C20.7437 18.2742 20.9947 18.5297 20.9947 18.9572L20.9947 19.7158L21.499 19.7158C21.9797 19.7158 22.3902 20.1148 22.3902 20.5972C22.3902 21.0849 21.9797 21.4867 21.499 21.4867L0.881441 21.4867C0.399022 21.4867 0 21.0832 0 20.5972C0 20.1148 0.399022 19.7158 0.881441 19.7158L1.44999 19.7158L1.44999 18.9572C1.44999 18.5297 1.70898 18.2742 2.14101 18.2742L2.69999 18.2742L2.69999 6.98046L1.85995 6.98046C1.25957 6.98046 0.908396 6.53886 0.908396 6.09277C0.908396 5.7664 1.08574 5.47734 1.49023 5.24941L9.96366 0.359374C10.3523 0.125976 10.7969 0 11.2183 0C11.6398 0 12.0764 0.125976 12.481 0.359374ZM13.8181 7.27127L13.8181 7.97088C12.7185 8.05975 11.8818 8.71131 11.8818 9.84295C11.8818 10.8506 12.4525 11.3672 13.4504 11.8183L13.8181 11.9824L13.8181 14.118C13.2717 14.0326 13.006 13.6654 12.9049 13.1963C12.8144 12.883 12.6211 12.7472 12.3515 12.7472C12.05 12.7472 11.8158 12.9424 11.8158 13.2627C11.8158 13.3762 11.8291 13.4924 11.8619 13.5953C12.0473 14.4201 12.8424 14.9799 13.8181 15.067L13.8181 15.7746C13.8181 15.9123 13.9283 16.0207 14.066 16.0207C14.1957 16.0207 14.3121 15.9123 14.3121 15.7746L14.3121 15.067C15.4598 14.9889 16.3355 14.3381 16.3355 13.1433C16.3355 12.0601 15.6945 11.6217 14.7084 11.1795L14.3121 11.0029L14.3121 8.91814C14.7662 8.999 14.9963 9.33943 15.1197 9.84607C15.2154 10.1015 15.3795 10.2533 15.6385 10.2533C15.9648 10.2533 16.1928 10.0564 16.1928 9.74061C16.1928 9.62186 16.1732 9.49569 16.1324 9.36697C15.8902 8.52166 15.2273 8.04197 14.3121 7.97088L14.3121 7.27127C14.3121 7.13182 14.1957 7.02342 14.066 7.02342C13.9283 7.02342 13.8181 7.13182 13.8181 7.27127ZM7.62597 8.48396L5.96835 14.3484C5.93554 14.4637 5.90097 14.5904 5.90097 14.7305C5.90097 15.1047 6.1662 15.2978 6.49237 15.2978C6.81756 15.2978 7.0074 15.1144 7.0908 14.7642L7.44647 13.3799L9.64491 13.3799L10.0006 14.7695C10.1017 15.1197 10.2693 15.2978 10.6301 15.2978C10.9367 15.2978 11.2002 15.1047 11.2002 14.7305C11.2002 14.5994 11.1887 14.4867 11.1426 14.3484L9.46541 8.47595C9.33065 7.99099 9.05506 7.74002 8.54354 7.74002C8.04882 7.74002 7.75898 7.999 7.62597 8.48396ZM15.2023 13.2603C15.2023 13.7953 14.8471 14.0726 14.3121 14.134L14.3121 12.2054C14.8166 12.4463 15.2023 12.7289 15.2023 13.2603ZM9.408 12.4433L7.66209 12.4433L8.48671 9.14412L8.56835 9.14412ZM13.8181 10.7603C13.3705 10.54 13.0088 10.2431 13.0088 9.76502C13.0088 9.26736 13.357 8.97146 13.8181 8.90837Z" fill="white" fill-opacity="0.85"/>
 </g>
</svg>
