<?xml version="1.0" encoding="UTF-8"?>
<!--Generator: Apple Native CoreSVG 341-->
<!DOCTYPE svg
PUBLIC "-//W3C//DTD SVG 1.1//EN"
       "http://www.w3.org/Graphics/SVG/1.1/DTD/svg11.dtd">
<svg version="1.1" xmlns="http://www.w3.org/2000/svg" xmlns:xlink="http://www.w3.org/1999/xlink" viewBox="0 0 15.6549 18.1602">
 <g>
  <rect height="18.1602" opacity="0" width="15.6549" x="0" y="0"/>
  <path d="M2.01132 18.1486C2.6492 18.1486 3.00096 17.827 3.17556 17.2254L7.5953 2.81971L7.69374 2.81971L12.1295 17.2334C12.3023 17.851 12.6584 18.1486 13.3025 18.1486C13.9758 18.1486 14.4916 17.7596 14.4916 17.0713C14.4916 16.8986 14.449 16.6697 14.3834 16.4463L9.3863 1.30311C9.10115 0.423238 8.55486 0 7.6494 0C6.75098 0 6.19415 0.42148 5.91075 1.30311L0.913669 16.4543C0.846286 16.6733 0.813474 16.8408 0.813474 17.0713C0.813474 17.7666 1.34335 18.1486 2.01132 18.1486ZM0 9.59824C0 9.93749 0.274414 10.2119 0.613673 10.2119L14.6799 10.2119C15.0111 10.2119 15.2935 9.93749 15.2935 9.59824C15.2935 9.25722 15.0111 8.98281 14.6799 8.98281L0.613673 8.98281C0.274414 8.98281 0 9.25722 0 9.59824ZM0 13.0508C0 13.39 0.274414 13.6725 0.613673 13.6725L14.6799 13.6725C15.0111 13.6725 15.2935 13.39 15.2935 13.0508C15.2935 12.7195 15.0111 12.4371 14.6799 12.4371L0.613673 12.4371C0.274414 12.4371 0 12.7195 0 13.0508Z" fill="white" fill-opacity="0.85"/>
 </g>
</svg>
