<?xml version="1.0" encoding="UTF-8"?>
<!--Generator: Apple Native CoreSVG 341-->
<!DOCTYPE svg
PUBLIC "-//W3C//DTD SVG 1.1//EN"
       "http://www.w3.org/Graphics/SVG/1.1/DTD/svg11.dtd">
<svg version="1.1" xmlns="http://www.w3.org/2000/svg" xmlns:xlink="http://www.w3.org/1999/xlink" viewBox="0 0 20.4838 20.1234">
 <g>
  <rect height="20.1234" opacity="0" width="20.4838" x="0" y="0"/>
  <path d="M4.37188 4.36524C1.38536 7.35177-0.149798 11.4967 0.011533 14.7047C0.14259 18.092 2.0043 19.9812 5.3418 20.1008C8.62968 20.2639 12.7043 18.793 15.7506 15.7404C18.7951 12.6959 20.2723 8.62754 20.1029 5.33515C19.9879 2.00391 18.0941 0.140441 14.7149 0.0128998C11.5051-0.158197 7.36193 1.37696 4.37188 4.36524ZM5.6666 5.65645C8.39805 2.92324 11.8072 1.62168 14.7154 1.83438C16.9074 1.97676 18.1516 3.18887 18.2815 5.34434C18.4941 8.3166 17.1891 11.716 14.4639 14.4555C11.7244 17.1887 8.32676 18.484 5.35273 18.2731C3.19551 18.1432 1.97539 16.907 1.83477 14.7053C1.63008 11.7988 2.92539 8.39141 5.6666 5.65645ZM5.82657 12.1432L7.97715 14.2875C8.18028 14.4809 8.50137 14.4809 8.70449 14.2875C8.89961 14.0746 8.89961 13.7535 8.70449 13.5504L6.56192 11.4078C6.36055 11.2145 6.03946 11.2127 5.82657 11.4078C5.63145 11.6109 5.63321 11.932 5.82657 12.1432ZM7.23555 10.7244L9.3879 12.8768C9.59102 13.0684 9.91211 13.0781 10.0975 12.8768C10.3104 12.6834 10.3023 12.3428 10.1055 12.1477L7.97266 10.0051C7.77129 9.81173 7.43067 9.80372 7.23555 10.0131C7.03419 10.202 7.04395 10.5231 7.23555 10.7244ZM8.6463 9.32168L10.7889 11.474C10.9822 11.6771 11.3148 11.6771 11.5082 11.4758C11.7176 11.2744 11.7113 10.94 11.5162 10.7449L9.35938 8.59434C9.17227 8.41075 8.83165 8.40098 8.63829 8.60411C8.43692 8.79922 8.44493 9.13008 8.6463 9.32168ZM10.0525 7.92344L12.1951 10.0678C12.3902 10.2611 12.7211 10.2531 12.9207 10.0695C13.1256 9.85664 13.1256 9.54532 12.9207 9.34219L10.7701 7.19962C10.5768 6.98848 10.2539 6.98673 10.0428 7.19962C9.86544 7.39297 9.85919 7.72383 10.0525 7.92344ZM11.4553 6.52246L13.5961 8.65703C13.7912 8.85215 14.1301 8.86016 14.3314 8.65879C14.5283 8.45117 14.5363 8.12657 14.3314 7.93145L12.1791 5.78087C11.9875 5.5795 11.6647 5.58751 11.4535 5.78087C11.2584 5.99024 11.2619 6.3211 11.4553 6.52246ZM7.45157 13.3881L13.3867 7.45118L12.6709 6.7336L6.72774 12.6688Z" fill="white" fill-opacity="0.85"/>
 </g>
</svg>
