<?xml version="1.0" encoding="UTF-8"?>
<!--Generator: Apple Native CoreSVG 341-->
<!DOCTYPE svg
PUBLIC "-//W3C//DTD SVG 1.1//EN"
       "http://www.w3.org/Graphics/SVG/1.1/DTD/svg11.dtd">
<svg version="1.1" xmlns="http://www.w3.org/2000/svg" xmlns:xlink="http://www.w3.org/1999/xlink" viewBox="0 0 24.2049 19.7961">
 <g>
  <rect height="19.7961" opacity="0" width="24.2049" x="0" y="0"/>
  <path d="M23.8435 11.8701C23.8435 5.64747 19.073 0.538875 12.9941 0.00293831C12.6553-0.029874 12.3998 0.215828 12.3998 0.554694L12.3998 3.8043C12.3998 4.08907 12.6012 4.30645 12.8842 4.33301C16.6191 4.80957 19.517 8.00293 19.517 11.8701C19.517 13.6332 18.9115 15.2613 17.8488 16.61C17.6945 16.8023 17.7025 17.0471 17.8719 17.2244L20.2322 19.5785C20.4646 19.8144 20.823 19.8109 21.0359 19.559C22.7926 17.4783 23.8435 14.7949 23.8435 11.8701Z" fill="white" fill-opacity="0.85"/>
  <path d="M0 11.8701C0 14.8029 1.05098 17.4863 2.80586 19.5652C3.01875 19.8172 3.36914 19.8109 3.61132 19.5768L5.96992 17.2227C6.13925 17.0453 6.14726 16.8006 5.99296 16.6082C4.92578 15.2613 4.32656 13.6332 4.32656 11.8701C4.32656 8.00293 7.22617 4.80957 10.9594 4.33301C11.2441 4.30645 11.4437 4.08907 11.4437 3.8043L11.4437 0.554694C11.4437 0.215828 11.1883-0.029874 10.8494 0.00293831C4.77226 0.538875 0 5.64747 0 11.8701Z" fill="white" fill-opacity="0.85"/>
  <path d="M7.23202 15.6311C7.54843 15.6311 7.73475 15.4529 7.81014 15.116L8.16229 13.7369L10.3494 13.7369L10.7113 15.1213C10.7965 15.4565 10.9703 15.6311 11.3223 15.6311C11.6201 15.6311 11.8721 15.4432 11.8721 15.0742C11.8721 14.9484 11.8605 14.8455 11.818 14.7027L10.1629 8.88125C10.0219 8.40508 9.75155 8.16738 9.26034 8.16738C8.77617 8.16738 8.4916 8.42285 8.36035 8.88925L6.71855 14.7027C6.68573 14.8207 6.66093 14.9457 6.66093 15.0742C6.66093 15.4432 6.91288 15.6311 7.23202 15.6311ZM8.38593 12.81L9.20351 9.53886L9.28339 9.53886L10.124 12.81ZM14.71 15.41C15.96 15.41 16.9424 14.768 16.9424 13.5109C16.9424 12.432 16.3084 12.0068 15.3443 11.5637L14.667 11.2537C14.1404 11.0139 13.6641 10.7152 13.6641 10.1598C13.6641 9.58476 14.1287 9.29062 14.6992 9.29062C15.3213 9.29062 15.5984 9.65508 15.7574 10.2408C15.8434 10.4928 16.0021 10.641 16.2674 10.641C16.5867 10.641 16.8031 10.4494 16.8031 10.1371C16.8031 10.0236 16.7818 9.90547 16.741 9.77051C16.4863 8.85938 15.7283 8.38672 14.701 8.38672C13.5025 8.38672 12.5502 9.04727 12.5502 10.2359C12.5502 11.2312 13.1201 11.7471 14.0977 12.1867L14.8207 12.5143C15.3805 12.7596 15.8303 13.0307 15.8303 13.6182C15.8303 14.2225 15.3826 14.4963 14.724 14.4963C13.9918 14.4963 13.6773 14.0926 13.5521 13.5541C13.4635 13.2443 13.2816 13.1121 13.0174 13.1121C12.7211 13.1121 12.4887 13.302 12.4887 13.6188C12.4887 13.7385 12.5037 13.8432 12.5365 13.9461C12.7281 14.8297 13.6256 15.41 14.71 15.41ZM14.7107 16.3469C14.8404 16.3469 14.9488 16.2385 14.9488 16.1106L14.9488 7.6959C14.9488 7.56621 14.8404 7.4498 14.7107 7.4498C14.5748 7.4498 14.4664 7.56621 14.4664 7.6959L14.4664 16.1106C14.4664 16.2385 14.5748 16.3469 14.7107 16.3469Z" fill="white" fill-opacity="0.85"/>
 </g>
</svg>
