<?xml version="1.0" encoding="UTF-8"?>
<!--Generator: Apple Native CoreSVG 341-->
<!DOCTYPE svg
PUBLIC "-//W3C//DTD SVG 1.1//EN"
       "http://www.w3.org/Graphics/SVG/1.1/DTD/svg11.dtd">
<svg version="1.1" xmlns="http://www.w3.org/2000/svg" xmlns:xlink="http://www.w3.org/1999/xlink" viewBox="0 0 20.5381 20.1848">
 <g>
  <rect height="20.1848" opacity="0" width="20.5381" x="0" y="0"/>
  <path d="M10.0875 20.175C15.6576 20.175 20.1767 15.6559 20.1767 10.0875C20.1767 4.51914 15.6576 0 10.0875 0C4.51914 0 0 4.51914 0 10.0875C0 15.6559 4.51914 20.175 10.0875 20.175ZM10.0875 18.1879C5.60839 18.1879 1.9871 14.5666 1.9871 10.0875C1.9871 5.60839 5.60839 1.9871 10.0875 1.9871C14.5666 1.9871 18.1897 5.60839 18.1897 10.0875C18.1897 14.5666 14.5666 18.1879 10.0875 18.1879Z" fill="white" fill-opacity="0.85"/>
  <path d="M7.32148 14.567C7.66991 14.567 7.8578 14.3977 7.95624 14.0572L10.06 7.07343L10.1025 7.07343L12.1965 14.0652C12.2869 14.3816 12.4766 14.567 12.8463 14.567C13.2088 14.567 13.4926 14.3613 13.4926 13.973C13.4926 13.8613 13.473 13.7486 13.4322 13.6387L11.0514 6.29901C10.8945 5.81093 10.5986 5.57343 10.0812 5.57343C9.56562 5.57343 9.24219 5.83046 9.09512 6.29901L6.71425 13.6627C6.68144 13.7807 6.66015 13.8773 6.66015 13.973C6.66015 14.3568 6.94746 14.567 7.32148 14.567ZM6.24043 10.3656C6.24043 10.5326 6.37988 10.6738 6.54863 10.6738L13.6059 10.6738C13.7728 10.6738 13.9141 10.5326 13.9141 10.3656C13.9141 10.1906 13.7728 10.0494 13.6059 10.0494L6.54863 10.0494C6.37988 10.0494 6.24043 10.1906 6.24043 10.3656ZM6.24043 12.0707C6.24043 12.2377 6.37988 12.3789 6.54863 12.3789L13.6059 12.3789C13.7728 12.3789 13.9141 12.2377 13.9141 12.0707C13.9141 11.9037 13.7728 11.7625 13.6059 11.7625L6.54863 11.7625C6.37988 11.7625 6.24043 11.9037 6.24043 12.0707Z" fill="white" fill-opacity="0.85"/>
 </g>
</svg>
