<?xml version="1.0" encoding="UTF-8"?>
<!--Generator: Apple Native CoreSVG 341-->
<!DOCTYPE svg
PUBLIC "-//W3C//DTD SVG 1.1//EN"
       "http://www.w3.org/Graphics/SVG/1.1/DTD/svg11.dtd">
<svg version="1.1" xmlns="http://www.w3.org/2000/svg" xmlns:xlink="http://www.w3.org/1999/xlink" viewBox="0 0 24.2049 19.8808">
 <g>
  <rect height="19.8808" opacity="0" width="24.2049" x="0" y="0"/>
  <path d="M23.8435 11.9178C23.8435 9.01855 22.8031 6.3457 21.0623 4.27031C20.8547 4.02011 20.498 4.02011 20.2621 4.2623L17.9578 6.56484C17.7547 6.76796 17.7467 7.05097 17.9232 7.27363C18.9185 8.56269 19.517 10.1768 19.517 11.9178C19.517 13.6826 18.9115 15.3107 17.8488 16.6611C17.6945 16.8535 17.7025 17.0982 17.8719 17.2756L20.2242 19.6279C20.4646 19.8683 20.8133 19.8683 21.0359 19.6066C22.7908 17.5277 23.8435 14.8443 23.8435 11.9178Z" fill="white" fill-opacity="0.85"/>
  <path d="M11.9178 4.32656C13.6783 4.32656 15.2941 4.933 16.5912 5.93183C16.8041 6.09863 17.0791 6.0791 17.2787 5.87773L19.5812 3.57343C19.8252 3.33125 19.8154 2.9791 19.5582 2.76797C17.4926 1.04043 14.8232 0 11.9178 0C9.02031 0 6.35097 1.04043 4.28711 2.76797C4.02988 2.9791 4.01836 3.33125 4.2623 3.57343L6.56484 5.87773C6.76445 6.0791 7.05097 6.09863 7.28163 5.92207C8.56894 4.933 10.1768 4.32656 11.9178 4.32656Z" fill="white" fill-opacity="0.85"/>
  <path d="M0 11.9178C0 14.8461 1.05625 17.5348 2.81465 19.6137C3.02402 19.8719 3.3789 19.8683 3.61308 19.6279L5.96367 17.2756C6.133 17.0982 6.15077 16.8535 5.99472 16.6611C4.93378 15.3107 4.32656 13.6826 4.32656 11.9178C4.32656 10.1768 4.91699 8.56269 5.92031 7.27363C6.08886 7.05097 6.08886 6.76796 5.88574 6.56484L3.58144 4.2623C3.33926 4.02011 2.98711 4.02187 2.77422 4.2791C1.03867 6.35097 0 9.02031 0 11.9178Z" fill="white" fill-opacity="0.85"/>
  <path d="M9.15976 16.475C9.50018 16.475 9.69608 16.3057 9.78651 15.975L11.8902 8.9912L11.9328 8.9912L14.0348 15.983C14.1172 16.2896 14.3068 16.475 14.6766 16.475C15.0391 16.475 15.3228 16.2693 15.3228 15.8908C15.3228 15.7693 15.3016 15.6566 15.2687 15.5467L12.8799 8.21503C12.7328 7.7287 12.4369 7.4832 11.9115 7.4832C11.4039 7.4832 11.0805 7.73847 10.9334 8.21503L8.55253 15.5787C8.51171 15.6904 8.49042 15.7854 8.49042 15.8908C8.49042 16.2648 8.77773 16.475 9.15976 16.475ZM8.07695 12.2736C8.07695 12.4424 8.21816 12.5836 8.38691 12.5836L15.4361 12.5836C15.6111 12.5836 15.7443 12.4424 15.7443 12.2736C15.7443 12.1066 15.6111 11.9654 15.4361 11.9654L8.38691 11.9654C8.21816 11.9654 8.07695 12.1066 8.07695 12.2736ZM8.07695 13.9867C8.07695 14.1555 8.21816 14.2967 8.38691 14.2967L15.4361 14.2967C15.6111 14.2967 15.7443 14.1555 15.7443 13.9867C15.7443 13.8117 15.6111 13.6785 15.4361 13.6785L8.38691 13.6785C8.21816 13.6785 8.07695 13.8117 8.07695 13.9867Z" fill="white" fill-opacity="0.85"/>
 </g>
</svg>
