<?xml version="1.0" encoding="UTF-8"?>
<!--Generator: Apple Native CoreSVG 341-->
<!DOCTYPE svg
PUBLIC "-//W3C//DTD SVG 1.1//EN"
       "http://www.w3.org/Graphics/SVG/1.1/DTD/svg11.dtd">
<svg version="1.1" xmlns="http://www.w3.org/2000/svg" xmlns:xlink="http://www.w3.org/1999/xlink" viewBox="0 0 20.5381 20.1848">
 <g>
  <rect height="20.1848" opacity="0" width="20.5381" x="0" y="0"/>
  <path d="M10.0875 20.175C15.6576 20.175 20.1767 15.6559 20.1767 10.0875C20.1767 4.51914 15.6576 0 10.0875 0C4.51914 0 0 4.51914 0 10.0875C0 15.6559 4.51914 20.175 10.0875 20.175ZM10.0875 18.1879C5.60839 18.1879 1.9871 14.5666 1.9871 10.0875C1.9871 5.60839 5.60839 1.9871 10.0875 1.9871C14.5666 1.9871 18.1897 5.60839 18.1897 10.0875C18.1897 14.5666 14.5666 18.1879 10.0875 18.1879Z" fill="white" fill-opacity="0.85"/>
  <path d="M5.19003 13.9273C5.51444 13.9273 5.70878 13.7412 5.79393 13.3865L6.15409 11.9353L8.44531 11.9353L8.825 13.3936C8.9164 13.7447 9.09023 13.9273 9.4582 13.9273C9.77382 13.9273 10.0338 13.7314 10.0338 13.3465C10.0338 13.2189 10.0223 13.108 9.97968 12.9652L8.24276 6.86795C8.10175 6.37753 7.81542 6.13007 7.30019 6.13007C6.79824 6.13007 6.50566 6.39354 6.37441 6.87596L4.65077 12.9652C4.61796 13.085 4.58515 13.218 4.58515 13.3465C4.58515 13.7314 4.85312 13.9273 5.19003 13.9273ZM6.39374 10.9844L7.24335 7.55135L7.32948 7.55135L8.2039 10.9844ZM12.9936 13.6982C14.3014 13.6982 15.3238 13.0242 15.3238 11.7111C15.3238 10.5904 14.6658 10.1412 13.6537 9.68203L12.9506 9.35429C12.4 9.09843 11.8996 8.78554 11.8996 8.2123C11.8996 7.60526 12.3803 7.2951 12.9828 7.2951C13.6369 7.2951 13.9301 7.67557 14.0891 8.29335C14.183 8.56132 14.3516 8.70155 14.623 8.70155C14.9504 8.70155 15.1766 8.50995 15.1766 8.1914C15.1766 8.06816 15.1553 7.94023 15.1144 7.80527C14.8518 6.85585 14.0617 6.35116 12.9846 6.35116C11.7283 6.35116 10.7439 7.04999 10.7439 8.28847C10.7439 9.32558 11.3379 9.86542 12.3572 10.3291L13.1141 10.6646C13.6881 10.9277 14.1717 11.2051 14.1717 11.8246C14.1717 12.4627 13.7062 12.7428 13.0076 12.7428C12.2434 12.7428 11.9129 12.3168 11.7859 11.7525C11.691 11.4348 11.4994 11.2945 11.2191 11.2945C10.9148 11.2945 10.6842 11.4924 10.6842 11.8269C10.6842 11.9449 10.6975 12.0514 10.7223 12.1703C10.9316 13.0859 11.8611 13.6982 12.9936 13.6982ZM12.9943 14.677C13.132 14.677 13.2484 14.5588 13.2484 14.4229L13.2484 5.63456C13.2484 5.49686 13.132 5.38046 12.9943 5.38046C12.8584 5.38046 12.742 5.49686 12.742 5.63456L12.742 14.4229C12.742 14.5588 12.8584 14.677 12.9943 14.677Z" fill="white" fill-opacity="0.85"/>
 </g>
</svg>
