<?xml version="1.0" encoding="UTF-8"?>
<!--Generator: Apple Native CoreSVG 341-->
<!DOCTYPE svg
PUBLIC "-//W3C//DTD SVG 1.1//EN"
       "http://www.w3.org/Graphics/SVG/1.1/DTD/svg11.dtd">
<svg version="1.1" xmlns="http://www.w3.org/2000/svg" xmlns:xlink="http://www.w3.org/1999/xlink" viewBox="0 0 18.5894 18.2316">
 <g>
  <rect height="18.2316" opacity="0" width="18.5894" x="0" y="0"/>
  <path d="M18.2281 3.17148L18.2281 15.0646C18.2281 17.1502 17.1404 18.2281 15.0246 18.2281L3.20351 18.2281C1.0957 18.2281 0 17.1502 0 15.0646L0 3.17148C0 1.08769 1.0957 0 3.20351 0L15.0246 0C17.1404 0 18.2281 1.08769 18.2281 3.17148ZM8.11153 5.17967L6.85566 9.07812L5.47285 9.07812C5.28808 9.07812 5.14512 9.21933 5.14512 9.40585C5.14512 9.5746 5.28808 9.72734 5.47285 9.72734L6.65137 9.72734L6.28281 10.8506L5.47285 10.8506C5.28808 10.8506 5.14512 11.0016 5.14512 11.1783C5.14512 11.3488 5.28808 11.4998 5.47285 11.4998L6.07051 11.4998L5.64375 12.8191C5.60117 12.9504 5.58164 13.0488 5.58164 13.1463C5.58164 13.5389 5.88222 13.7686 6.2748 13.7686C6.63827 13.7686 6.8412 13.5895 6.94139 13.2322L7.46835 11.4998L10.8135 11.4998L11.3324 13.242C11.4246 13.5734 11.6293 13.7686 12.0141 13.7686C12.3934 13.7686 12.6922 13.5496 12.6922 13.1463C12.6922 13.0328 12.6709 12.9104 12.6283 12.7951L12.2113 11.4998L12.809 11.4998C12.984 11.4998 13.1367 11.3488 13.1367 11.1783C13.1367 11.0016 12.984 10.8506 12.809 10.8506L11.999 10.8506L11.6287 9.72734L12.809 9.72734C12.984 9.72734 13.1367 9.5746 13.1367 9.40585C13.1367 9.21933 12.984 9.07812 12.809 9.07812L11.4244 9.07812L10.1623 5.17967C10.0019 4.67929 9.68925 4.41874 9.14179 4.41874C8.60234 4.41874 8.27188 4.68905 8.11153 5.17967ZM10.6207 10.8506L7.66112 10.8506L7.99862 9.72734L10.2814 9.72734ZM10.0824 9.07812L8.1914 9.07812L9.11874 5.9869L9.16132 5.9869Z" fill="white" fill-opacity="0.85"/>
 </g>
</svg>
