<?xml version="1.0" encoding="UTF-8"?>
<!--Generator: Apple Native CoreSVG 341-->
<!DOCTYPE svg
PUBLIC "-//W3C//DTD SVG 1.1//EN"
       "http://www.w3.org/Graphics/SVG/1.1/DTD/svg11.dtd">
<svg version="1.1" xmlns="http://www.w3.org/2000/svg" xmlns:xlink="http://www.w3.org/1999/xlink" viewBox="0 0 22.301 21.9477">
 <g>
  <rect height="21.9477" opacity="0" width="22.301" x="0" y="0"/>
  <path d="M10.9689 21.9379C16.9984 21.9379 21.9396 16.9984 21.9396 10.9689C21.9396 4.93945 16.9984 0 10.9689 0C4.93945 0 0 4.93945 0 10.9689C0 16.9984 4.93945 21.9379 10.9689 21.9379ZM10.9689 18.2242C6.96133 18.2242 3.71367 14.9766 3.71367 10.9689C3.71367 6.95332 6.96133 3.71367 10.9689 3.71367C14.9846 3.71367 18.226 6.95332 18.226 10.9689C18.226 14.9766 14.9846 18.2242 10.9689 18.2242Z" fill="white" fill-opacity="0.85"/>
  <path d="M6.32636 14.6188C6.63925 14.6188 6.82382 14.4441 6.89921 14.1027L7.2496 12.7271L9.42441 12.7271L9.78633 14.108C9.86797 14.4477 10.04 14.6188 10.3805 14.6188C10.6828 14.6188 10.9312 14.4326 10.9312 14.0689C10.9312 13.9449 10.9197 13.8357 10.8771 13.7027L9.23085 7.91464C9.09159 7.4455 8.82656 7.20956 8.34062 7.20956C7.86172 7.20956 7.58242 7.45351 7.45293 7.91464L5.81992 13.7027C5.7871 13.819 5.75429 13.9422 5.75429 14.0689C5.75429 14.4326 6.01249 14.6188 6.32636 14.6188ZM7.47148 11.8187L8.28378 8.55897L8.36367 8.55897L9.19277 11.8187ZM13.7463 14.3994C14.9795 14.3994 15.9514 13.7627 15.9514 12.5082C15.9514 11.4443 15.3324 11.0244 14.3674 10.5848L13.7033 10.2766C13.182 10.0367 12.7057 9.73183 12.7057 9.18613C12.7057 8.61464 13.1605 8.32226 13.7355 8.32226C14.3541 8.32226 14.6295 8.67694 14.7885 9.26718C14.8727 9.51738 15.0314 9.65585 15.2914 9.65585C15.6072 9.65585 15.8219 9.47402 15.8219 9.16699C15.8219 9.0455 15.8023 8.93535 15.7615 8.80214C15.5086 7.89804 14.7576 7.42089 13.7391 7.42089C12.5414 7.42089 11.6059 8.08241 11.6059 9.26054C11.6059 10.2408 12.1705 10.7611 13.141 11.1973L13.857 11.5213C14.4053 11.7666 14.8613 12.0359 14.8613 12.6217C14.8613 13.2242 14.4172 13.4963 13.7604 13.4963C13.0316 13.4963 12.7207 13.0943 12.5955 12.5576C12.5068 12.2434 12.3205 12.1191 12.0598 12.1191C11.7732 12.1191 11.5443 12.3072 11.5443 12.6223C11.5443 12.7305 11.5594 12.8352 11.5842 12.9443C11.782 13.8209 12.6707 14.3994 13.7463 14.3994ZM13.7408 15.3293C13.8768 15.3293 13.9834 15.2227 13.9834 15.0867L13.9834 6.74159C13.9834 6.60566 13.8768 6.49726 13.7408 6.49726C13.6129 6.49726 13.5045 6.60566 13.5045 6.74159L13.5045 15.0867C13.5045 15.2227 13.6129 15.3293 13.7408 15.3293Z" fill="white" fill-opacity="0.85"/>
 </g>
</svg>
