<?xml version="1.0" encoding="UTF-8"?>
<!--Generator: Apple Native CoreSVG 341-->
<!DOCTYPE svg
PUBLIC "-//W3C//DTD SVG 1.1//EN"
       "http://www.w3.org/Graphics/SVG/1.1/DTD/svg11.dtd">
<svg version="1.1" xmlns="http://www.w3.org/2000/svg" xmlns:xlink="http://www.w3.org/1999/xlink" viewBox="0 0 18.5894 18.2316">
 <g>
  <rect height="18.2316" opacity="0" width="18.5894" x="0" y="0"/>
  <path d="M3.20351 18.2281L15.0246 18.2281C17.1404 18.2281 18.2281 17.1502 18.2281 15.0646L18.2281 3.17148C18.2281 1.08769 17.1404 0 15.0246 0L3.20351 0C1.0957 0 0 1.08769 0 3.17148L0 15.0646C0 17.1502 1.0957 18.2281 3.20351 18.2281ZM3.31444 16.3148C2.40643 16.3148 1.91327 15.8465 1.91327 14.8977L1.91327 3.34023C1.91327 2.39139 2.40643 1.91503 3.31444 1.91503L14.9137 1.91503C15.8137 1.91503 16.3148 2.39139 16.3148 3.34023L16.3148 14.8977C16.3148 15.8465 15.8137 16.3148 14.9137 16.3148Z" fill="white" fill-opacity="0.85"/>
  <path d="M4.22948 12.9508C4.55389 12.9508 4.74823 12.7646 4.83339 12.41L5.20155 10.9588L7.48476 10.9588L7.86445 12.417C7.95586 12.7682 8.12968 12.9508 8.49765 12.9508C8.81328 12.9508 9.07324 12.7549 9.07324 12.3699C9.07324 12.2424 9.06171 12.1314 9.01738 11.9887L7.28221 5.89139C7.1412 5.40096 6.85487 5.1535 6.33964 5.1535C5.83769 5.1535 5.54511 5.41698 5.41386 5.8994L3.69023 11.9887C3.65741 12.1084 3.6246 12.2414 3.6246 12.3699C3.6246 12.7549 3.89257 12.9508 4.22948 12.9508ZM5.43143 10.0078L6.28105 6.57479L6.36894 6.57479L7.24336 10.0078ZM12.033 12.7217C13.3408 12.7217 14.3633 12.0477 14.3633 10.7346C14.3633 9.61386 13.7053 9.16465 12.6932 8.70546L11.99 8.37773C11.4394 8.12187 10.9373 7.80898 10.9373 7.23573C10.9373 6.6287 11.4197 6.31854 12.0303 6.31854C12.6764 6.31854 12.9695 6.69901 13.1285 7.31679C13.2225 7.58476 13.391 7.72499 13.6625 7.72499C13.9898 7.72499 14.216 7.53339 14.216 7.21484C14.216 7.09159 14.1947 6.96366 14.1539 6.8287C13.8894 5.87929 13.0994 5.3746 12.032 5.3746C10.7678 5.3746 9.78339 6.07343 9.78339 7.3119C9.78339 8.34901 10.3773 8.88886 11.3967 9.35253L12.1518 9.68808C12.7355 9.95116 13.2111 10.2285 13.2111 10.848C13.2111 11.4861 12.7457 11.7662 12.0471 11.7662C11.2828 11.7662 10.9523 11.3402 10.8254 10.776C10.7385 10.4582 10.5389 10.318 10.2666 10.318C9.9623 10.318 9.72363 10.5158 9.72363 10.8504C9.72363 10.9684 9.73691 11.0748 9.76171 11.1937C9.97109 12.1094 10.9006 12.7217 12.033 12.7217ZM12.0338 13.7004C12.1715 13.7004 12.2879 13.5822 12.2879 13.4463L12.2879 4.658C12.2879 4.5203 12.1715 4.40389 12.0338 4.40389C11.8978 4.40389 11.7814 4.5203 11.7814 4.658L11.7814 13.4463C11.7814 13.5822 11.8978 13.7004 12.0338 13.7004Z" fill="white" fill-opacity="0.85"/>
 </g>
</svg>
