<?xml version="1.0" encoding="UTF-8"?>
<!--Generator: Apple Native CoreSVG 341-->
<!DOCTYPE svg
PUBLIC "-//W3C//DTD SVG 1.1//EN"
       "http://www.w3.org/Graphics/SVG/1.1/DTD/svg11.dtd">
<svg version="1.1" xmlns="http://www.w3.org/2000/svg" xmlns:xlink="http://www.w3.org/1999/xlink" viewBox="0 0 22.301 21.9477">
 <g>
  <rect height="21.9477" opacity="0" width="22.301" x="0" y="0"/>
  <path d="M10.9689 21.9379C16.9984 21.9379 21.9396 16.9984 21.9396 10.9689C21.9396 4.93945 16.9984 0 10.9689 0C4.93945 0 0 4.93945 0 10.9689C0 16.9984 4.93945 21.9379 10.9689 21.9379ZM10.9689 18.2242C6.96133 18.2242 3.71367 14.9766 3.71367 10.9689C3.71367 6.95332 6.96133 3.71367 10.9689 3.71367C14.9846 3.71367 18.226 6.95332 18.226 10.9689C18.226 14.9766 14.9846 18.2242 10.9689 18.2242Z" fill="white" fill-opacity="0.85"/>
  <path d="M8.21269 15.4484C8.55937 15.4484 8.74902 15.2791 8.8457 14.9387L10.9494 7.95487L10.992 7.95487L13.0859 14.9467C13.1764 15.2631 13.366 15.4484 13.7357 15.4484C14.0982 15.4484 14.382 15.2428 14.382 14.8545C14.382 14.7428 14.3625 14.6301 14.3217 14.5201L11.9408 7.18046C11.792 6.69238 11.4881 6.45488 10.9707 6.45488C10.4551 6.45488 10.1397 6.71191 9.98458 7.18046L7.61172 14.5441C7.5709 14.6621 7.54961 14.7588 7.54961 14.8545C7.54961 15.2383 7.83691 15.4484 8.21269 15.4484ZM7.12988 11.2471C7.12988 11.4141 7.27109 11.5553 7.44609 11.5553L14.4953 11.5553C14.6623 11.5553 14.8035 11.4141 14.8035 11.2471C14.8035 11.0721 14.6623 10.9309 14.4953 10.9309L7.44609 10.9309C7.27109 10.9309 7.12988 11.0721 7.12988 11.2471ZM7.12988 12.9521C7.12988 13.1191 7.27109 13.2603 7.44609 13.2603L14.4953 13.2603C14.6623 13.2603 14.8035 13.1191 14.8035 12.9521C14.8035 12.7852 14.6623 12.6439 14.4953 12.6439L7.44609 12.6439C7.27109 12.6439 7.12988 12.7852 7.12988 12.9521Z" fill="white" fill-opacity="0.85"/>
 </g>
</svg>
