<?xml version="1.0" encoding="UTF-8"?>
<!--Generator: Apple Native CoreSVG 341-->
<!DOCTYPE svg
PUBLIC "-//W3C//DTD SVG 1.1//EN"
       "http://www.w3.org/Graphics/SVG/1.1/DTD/svg11.dtd">
<svg version="1.1" xmlns="http://www.w3.org/2000/svg" xmlns:xlink="http://www.w3.org/1999/xlink" viewBox="0 0 22.4275 22.0635">
 <g>
  <rect height="22.0635" opacity="0" width="22.4275" x="0" y="0"/>
  <path d="M17.996 20.8001L14.4822 21.2876C13.9379 21.364 13.6111 21.039 13.7125 20.5044L14.3146 17.1182ZM4.08059 6.88259C3.34918 8.0905 2.93358 9.50945 2.93358 11.0269C2.93358 13.6536 4.18749 15.9519 6.11191 17.4204C6.56855 17.803 6.70507 18.379 6.36953 18.8479C6.05605 19.3011 5.40801 19.3989 4.89395 18.9685C2.46543 17.1466 0.946482 14.2142 0.946482 11.0269C0.946482 8.96051 1.56879 7.03864 2.63837 5.44014ZM21.1215 11.0269C21.1215 13.0715 20.4939 15.014 19.4118 16.6149L17.9781 15.1807C18.7139 13.9744 19.1344 12.5578 19.1344 11.0269C19.1344 6.54774 15.5131 2.92645 11.034 2.92645C9.51266 2.92645 8.0903 3.34421 6.88037 4.07914L5.43837 2.63665C7.03885 1.56391 8.96391 0.939356 11.034 0.939356C16.6023 0.939356 21.1215 5.45849 21.1215 11.0269Z" fill="white" fill-opacity="0.85"/>
  <path d="M9.6371 12.4399L9.41522 12.4399L8.8033 14.2194C8.64979 14.7548 8.3617 14.9833 7.92753 14.9833C7.39667 14.9833 7.06777 14.6624 7.06777 14.1644C7.06777 14.0021 7.10234 13.8302 7.18476 13.5714L8.14523 10.9478ZM12.3844 6.72391L14.0306 11.2318L11.4503 8.65061L11.0908 7.55907L10.9851 7.55907L10.83 8.03016L9.64674 6.84647L9.6916 6.72391C9.92285 6.0579 10.3678 5.72919 11.0189 5.72919C11.6932 5.72919 12.1469 6.05966 12.3844 6.72391Z" fill="white" fill-opacity="0.85"/>
  <path d="M19.5408 20.6413C19.8426 20.9413 20.3467 20.935 20.6404 20.6315C20.9404 20.3298 20.9422 19.8354 20.6404 19.5337L2.53515 1.43018C2.23339 1.12842 1.72929 1.12041 1.42578 1.43018C1.12578 1.72393 1.12578 2.22978 1.42578 2.52978Z" fill="white" fill-opacity="0.85"/>
 </g>
</svg>
