<?xml version="1.0" encoding="UTF-8"?>
<!--Generator: Apple Native CoreSVG 341-->
<!DOCTYPE svg
PUBLIC "-//W3C//DTD SVG 1.1//EN"
       "http://www.w3.org/Graphics/SVG/1.1/DTD/svg11.dtd">
<svg version="1.1" xmlns="http://www.w3.org/2000/svg" xmlns:xlink="http://www.w3.org/1999/xlink" viewBox="0 0 12.1799 23.359">
 <g>
  <rect height="23.359" opacity="0" width="12.1799" x="0" y="0"/>
  <path d="M2.67714 23.3537L9.14138 23.3537C10.8058 23.3537 11.8185 22.3756 11.8185 20.8008L11.8185 2.54667C11.8185 0.971874 10.8058 0 9.14138 0L2.67714 0C1.01269 0 0 0.971874 0 2.54667L0 20.8008C0 22.3756 1.01269 23.3537 2.67714 23.3537ZM2.93983 21.5939C2.23065 21.5939 1.78631 21.1709 1.78631 20.5025L1.78631 2.85292C1.78631 2.18456 2.23065 1.75975 2.93983 1.75975L8.87869 1.75975C9.58788 1.75975 10.0322 2.18456 10.0322 2.85292L10.0322 20.5025C10.0322 21.1709 9.58788 21.5939 8.87869 21.5939ZM6.5076 4.13846L8.58592 4.13846C8.93651 4.13846 9.22049 3.86248 9.22049 3.5119C9.22049 3.14979 8.93651 2.87381 8.58592 2.87381L6.5076 2.87381C6.15702 2.87381 5.87303 3.14979 5.87303 3.5119C5.87303 3.86248 6.15702 4.13846 6.5076 4.13846ZM3.53436 7.8117C4.07401 7.8117 4.50448 7.38924 4.50448 6.84334C4.50448 6.31698 4.07401 5.87674 3.53436 5.87674C2.99823 5.87674 2.56776 6.31698 2.56776 6.84334C2.56776 7.38924 2.99823 7.8117 3.53436 7.8117ZM5.90838 7.8117C6.44803 7.8117 6.87674 7.38924 6.87674 6.84334C6.87674 6.31698 6.44979 5.87674 5.90838 5.87674C5.36698 5.87674 4.94178 6.31698 4.94178 6.84334C4.94178 7.38924 5.37049 7.8117 5.90838 7.8117ZM8.29393 7.8117C8.83006 7.8117 9.26053 7.38924 9.26053 6.84334C9.26053 6.31698 8.83006 5.87674 8.29393 5.87674C7.75253 5.87674 7.32557 6.31698 7.32557 6.84334C7.32557 7.38924 7.75428 7.8117 8.29393 7.8117ZM3.53436 10.539C4.07401 10.539 4.50448 10.1103 4.50448 9.57244C4.50448 9.04432 4.07401 8.60409 3.53436 8.60409C2.99823 8.60409 2.56776 9.04432 2.56776 9.57244C2.56776 10.1103 2.99823 10.539 3.53436 10.539ZM5.90838 10.539C6.44803 10.539 6.87674 10.1103 6.87674 9.57244C6.87674 9.04432 6.44979 8.60409 5.90838 8.60409C5.36698 8.60409 4.94178 9.04432 4.94178 9.57244C4.94178 10.1103 5.37049 10.539 5.90838 10.539ZM8.29393 10.539C8.83006 10.539 9.26053 10.1103 9.26053 9.57244C9.26053 9.04432 8.83006 8.60409 8.29393 8.60409C7.75253 8.60409 7.32557 9.04432 7.32557 9.57244C7.32557 10.1103 7.75428 10.539 8.29393 10.539ZM3.53436 13.2619C4.07401 13.2619 4.50448 12.8377 4.50448 12.2935C4.50448 11.7637 4.07401 11.3252 3.53436 11.3252C2.99823 11.3252 2.56776 11.7637 2.56776 12.2935C2.56776 12.8377 2.99823 13.2619 3.53436 13.2619ZM5.90838 13.2619C6.44803 13.2619 6.87674 12.8217 6.87674 12.2935C6.87674 11.7539 6.44803 11.3252 5.90838 11.3252C5.37049 11.3252 4.94178 11.7539 4.94178 12.2935C4.94178 12.8217 5.37049 13.2619 5.90838 13.2619ZM8.29393 13.2619C8.83006 13.2619 9.26053 12.8217 9.26053 12.2935C9.26053 11.7539 8.83006 11.3252 8.29393 11.3252C7.75428 11.3252 7.32557 11.7539 7.32557 12.2935C7.32557 12.8217 7.75428 13.2619 8.29393 13.2619ZM3.32303 19.6531C3.74198 19.6531 4.07655 19.3088 4.07655 18.8996L4.07655 15.4918C4.07655 15.0728 3.74198 14.7383 3.32303 14.7383C2.90858 14.7383 2.56776 15.0728 2.56776 15.4918L2.56776 18.8996C2.56776 19.3088 2.90858 19.6531 3.32303 19.6531ZM5.43163 16.8527L6.37889 16.8527C6.72323 16.8527 6.91581 16.6433 6.91581 16.3203L6.91581 15.6855C6.91581 15.3545 6.72323 15.1486 6.37889 15.1486L5.43163 15.1486C5.10507 15.1486 4.90272 15.3545 4.90272 15.6855L4.90272 16.3203C4.90272 16.6433 5.10507 16.8527 5.43163 16.8527ZM5.43163 19.2348L6.37889 19.2348C6.72323 19.2348 6.91581 19.0387 6.91581 18.7058L6.91581 18.0728C6.91581 17.74 6.72323 17.5404 6.37889 17.5404L5.43163 17.5404C5.10507 17.5404 4.90272 17.74 4.90272 18.0728L4.90272 18.7058C4.90272 19.0387 5.10682 19.2348 5.43163 19.2348ZM8.50526 19.6531C8.91971 19.6531 9.26053 19.3088 9.26053 18.8996L9.26053 15.4918C9.26053 15.0728 8.91971 14.7383 8.50526 14.7383C8.08632 14.7383 7.75175 15.0728 7.75175 15.4918L7.75175 18.8996C7.75175 19.3088 8.08632 19.6531 8.50526 19.6531Z" fill="white" fill-opacity="0.85"/>
 </g>
</svg>
