<?xml version="1.0" encoding="UTF-8"?>
<!--Generator: Apple Native CoreSVG 341-->
<!DOCTYPE svg
PUBLIC "-//W3C//DTD SVG 1.1//EN"
       "http://www.w3.org/Graphics/SVG/1.1/DTD/svg11.dtd">
<svg version="1.1" xmlns="http://www.w3.org/2000/svg" xmlns:xlink="http://www.w3.org/1999/xlink" viewBox="0 0 18.9608 21.6841">
 <g>
  <rect height="21.6841" opacity="0" width="18.9608" x="0" y="0"/>
  <path d="M0.970625 6.79988L1.82609 7.11101C2.64581 7.4153 3.42022 7.02859 3.72276 6.19109L5.13136 2.33093C5.43389 1.49519 5.0835 0.71551 4.26554 0.412971L3.41007 0.103598C2.59035-0.200698 1.82395 0.182504 1.5134 1.02801L0.112816 4.88015C-0.199488 5.71765 0.152659 6.49734 0.970625 6.79988ZM14.3276 6.79988L15.1894 7.11101C16.0091 7.4153 16.7772 7.02859 17.0798 6.19109L18.4866 2.33093C18.7972 1.49519 18.4405 0.71551 17.6306 0.412971L16.7671 0.103598C15.9474-0.200698 15.1872 0.182504 14.8767 1.02801L13.4698 4.88015C13.1655 5.71765 13.5177 6.50535 14.3276 6.79988ZM2.16242 21.6268L3.11593 21.6268C3.98624 21.6268 4.58233 21.0059 4.58233 20.1161L4.58233 16.0163C4.58233 15.1184 3.98624 14.4993 3.11593 14.4993L2.16242 14.4993C1.29836 14.4993 0.704026 15.1184 0.704026 16.0163L0.704026 20.1161C0.704026 21.0059 1.29836 21.6268 2.16242 21.6268ZM15.4772 21.6268L16.4308 21.6268C17.3011 21.6268 17.8972 21.0059 17.8972 20.1161L17.8972 16.0163C17.8972 15.1184 17.3011 14.4993 16.4308 14.4993L15.4772 14.4993C14.6149 14.4993 14.0189 15.1184 14.0189 16.0163L14.0189 20.1161C14.0189 21.0059 14.6149 21.6268 15.4772 21.6268ZM3.76515 4.52351L14.8353 4.52351L14.8353 2.65946L3.76515 2.65946ZM8.33976 2.65946L8.33976 7.81512C8.50694 7.87644 8.65811 7.9659 8.79444 8.09597L9.2544 8.54968L9.77842 8.01589C9.90401 7.88582 10.0614 7.79461 10.2126 7.74129L10.2126 2.65946ZM8.33976 19.0008L10.2126 19.0008L10.2126 13.8434C10.0534 13.7803 9.89776 13.6864 9.75967 13.5626L9.3042 13.1071L8.77842 13.6426C8.6546 13.7665 8.49718 13.8622 8.33976 13.9173ZM3.75987 19.0008L14.8405 19.0008L14.8405 17.128L3.75987 17.128Z" fill="white" fill-opacity="0.85"/>
  <path d="M7.08272 13.0258C7.33194 13.2786 7.74424 13.3169 8.00948 13.0516L9.3042 11.7649L10.5269 12.9796C10.7778 13.2208 11.1769 13.211 11.4261 12.9743C11.6673 12.7393 11.6708 12.326 11.4296 12.0768L10.2069 10.8542L11.4999 9.56921C11.7687 9.30046 11.7269 8.89519 11.4759 8.63445C11.2151 8.37546 10.8081 8.33992 10.5394 8.60867L9.2544 9.89363L8.02549 8.67898C7.77803 8.43601 7.37374 8.44128 7.12276 8.68074C6.87979 8.91218 6.87979 9.328 7.121 9.57546L8.34366 10.8044L7.05694 12.0911C6.79171 12.3563 6.82374 12.7669 7.08272 13.0258Z" fill="white" fill-opacity="0.85"/>
 </g>
</svg>
