<?xml version="1.0" encoding="UTF-8"?>
<!--Generator: Apple Native CoreSVG 341-->
<!DOCTYPE svg
PUBLIC "-//W3C//DTD SVG 1.1//EN"
       "http://www.w3.org/Graphics/SVG/1.1/DTD/svg11.dtd">
<svg version="1.1" xmlns="http://www.w3.org/2000/svg" xmlns:xlink="http://www.w3.org/1999/xlink" viewBox="0 0 18.9608 21.6841">
 <g>
  <rect height="21.6841" opacity="0" width="18.9608" x="0" y="0"/>
  <path d="M0.970625 6.79988L1.82609 7.11101C2.64581 7.4153 3.42022 7.02859 3.72276 6.19109L5.13136 2.33093C5.43389 1.49519 5.0835 0.71551 4.26554 0.412971L3.41007 0.103598C2.59035-0.200698 1.82395 0.182504 1.5134 1.02801L0.112816 4.88015C-0.199488 5.71765 0.152659 6.49734 0.970625 6.79988ZM14.3276 6.79988L15.1894 7.11101C16.0091 7.4153 16.7772 7.02859 17.0798 6.19109L18.4866 2.33093C18.7972 1.49519 18.4405 0.71551 17.6306 0.412971L16.7671 0.103598C15.9474-0.200698 15.1872 0.182504 14.8767 1.02801L13.4698 4.88015C13.1655 5.71765 13.5177 6.50535 14.3276 6.79988ZM2.16242 21.6268L3.11593 21.6268C3.98624 21.6268 4.58233 21.0059 4.58233 20.1161L4.58233 16.0163C4.58233 15.1184 3.98624 14.4993 3.11593 14.4993L2.16242 14.4993C1.29836 14.4993 0.704026 15.1184 0.704026 16.0163L0.704026 20.1161C0.704026 21.0059 1.29836 21.6268 2.16242 21.6268ZM15.4772 21.6268L16.4308 21.6268C17.3011 21.6268 17.8972 21.0059 17.8972 20.1161L17.8972 16.0163C17.8972 15.1184 17.3011 14.4993 16.4308 14.4993L15.4772 14.4993C14.6149 14.4993 14.0189 15.1184 14.0189 16.0163L14.0189 20.1161C14.0189 21.0059 14.6149 21.6268 15.4772 21.6268ZM3.76515 4.52351L14.8353 4.52351L14.8353 2.65946L3.76515 2.65946ZM8.35577 2.65946L8.35577 15.0551C8.51495 15.1165 8.66612 15.1962 8.79444 15.328L9.2544 15.7817L9.77842 15.2479C9.91026 15.1063 10.0712 15.0186 10.2286 14.9653L10.2286 2.65946ZM3.75987 19.0008L6.19308 19.0008C6.23839 18.8417 6.33409 18.6922 6.45792 18.5702L7.00147 18.0346L6.53976 17.5747C6.41593 17.4464 6.32023 17.2872 6.26515 17.128L3.75987 17.128ZM14.8405 19.0008L14.8405 17.128L12.3593 17.128C12.314 17.2774 12.2165 17.4383 12.0927 17.5604L11.5571 18.0844L12.0144 18.5559C12.1382 18.686 12.2339 18.8337 12.2872 19.0008Z" fill="white" fill-opacity="0.85"/>
  <path d="M7.08272 20.2579C7.33194 20.5088 7.74424 20.5489 8.00948 20.2819L9.3042 18.9952L10.5269 20.2098C10.7778 20.4528 11.1769 20.4413 11.4261 20.2063C11.6673 19.9714 11.6708 19.5581 11.4296 19.3151L10.2069 18.0844L11.4999 16.7995C11.7687 16.5325 11.7269 16.1272 11.4759 15.8665C11.2151 15.6155 10.8081 15.5719 10.5394 15.8407L9.2544 17.1239L8.02549 15.9092C7.77803 15.668 7.37374 15.6813 7.12276 15.9128C6.87979 16.1424 6.87979 16.5583 7.121 16.8155L8.34366 18.0346L7.05694 19.3214C6.79171 19.5964 6.82374 20.0051 7.08272 20.2579Z" fill="white" fill-opacity="0.85"/>
 </g>
</svg>
