<?xml version="1.0" encoding="UTF-8"?>
<!--Generator: Apple Native CoreSVG 341-->
<!DOCTYPE svg
PUBLIC "-//W3C//DTD SVG 1.1//EN"
       "http://www.w3.org/Graphics/SVG/1.1/DTD/svg11.dtd">
<svg version="1.1" xmlns="http://www.w3.org/2000/svg" xmlns:xlink="http://www.w3.org/1999/xlink" viewBox="0 0 20.5381 20.1848">
 <g>
  <rect height="20.1848" opacity="0" width="20.5381" x="0" y="0"/>
  <path d="M10.0875 20.175C15.6576 20.175 20.1767 15.6559 20.1767 10.0875C20.1767 4.51914 15.6576 0 10.0875 0C4.51914 0 0 4.51914 0 10.0875C0 15.6559 4.51914 20.175 10.0875 20.175ZM10.0875 18.1879C5.60839 18.1879 1.9871 14.5666 1.9871 10.0875C1.9871 5.60839 5.60839 1.9871 10.0875 1.9871C14.5666 1.9871 18.1897 5.60839 18.1897 10.0875C18.1897 14.5666 14.5666 18.1879 10.0875 18.1879Z" fill="white" fill-opacity="0.85"/>
  <path d="M8.60527 15.8896L11.5555 15.8896C13.2531 15.8896 14.101 15.0223 14.0912 13.2988C14.0637 11.3584 14.0557 9.94726 14.0068 8.90292C13.8719 5.76835 12.9787 4.84589 10.0795 4.84589C7.18202 4.84589 6.29511 5.76835 6.1539 8.90292C6.10683 9.94726 6.0953 11.3584 6.06952 13.2988C6.05976 15.0223 6.90585 15.8896 8.60527 15.8896ZM8.49062 13.9486C8.05741 13.9486 7.77519 13.6682 7.77519 13.243L7.77519 10.7775C7.77519 10.3541 8.05741 10.0656 8.49062 10.0656L11.6781 10.0656C12.1131 10.0656 12.3838 10.3523 12.3838 10.7775L12.3838 13.243C12.3838 13.6682 12.1131 13.9486 11.6781 13.9486ZM7.77519 12.0398L12.3838 12.0398L12.3838 11.3894L7.77519 11.3894ZM10.0795 3.66601C9.12421 3.66601 8.46445 4.32304 8.46445 5.22577L9.23378 5.22577C9.23378 4.76229 9.59628 4.42479 10.0795 4.42479C10.5627 4.42479 10.9287 4.76229 10.9287 5.22577L11.6883 5.22577C11.6883 4.32304 11.0365 3.66601 10.0795 3.66601Z" fill="white" fill-opacity="0.85"/>
 </g>
</svg>
