<?xml version="1.0" encoding="UTF-8"?>
<!--Generator: Apple Native CoreSVG 341-->
<!DOCTYPE svg
PUBLIC "-//W3C//DTD SVG 1.1//EN"
       "http://www.w3.org/Graphics/SVG/1.1/DTD/svg11.dtd">
<svg version="1.1" xmlns="http://www.w3.org/2000/svg" xmlns:xlink="http://www.w3.org/1999/xlink" viewBox="0 0 16.2384 15.4765">
 <g>
  <rect height="15.4765" opacity="0" width="16.2384" x="0" y="0"/>
  <path d="M15.8771 13.9424L15.8771 1.5164C15.8771 0.494724 15.2644 0 14.548 0C14.2297 0 13.9095 0.0886714 13.5912 0.274022L3.19216 6.32968C2.42635 6.77695 2.08162 7.15546 2.08162 7.73339C2.08162 8.30956 2.42635 8.68983 3.19216 9.13709L13.5912 15.1928C13.9095 15.3701 14.2297 15.4668 14.548 15.4668C15.2644 15.4668 15.8771 14.9623 15.8771 13.9424ZM13.9638 12.8773C13.9638 12.9918 13.8822 13.0814 13.7775 13.0814C13.7402 13.0814 13.6994 13.0637 13.6586 13.0424L4.84606 7.89042C4.76442 7.8496 4.74137 7.78573 4.74137 7.73339C4.74137 7.67128 4.76442 7.61718 4.84606 7.57636L13.6586 2.4244C13.6994 2.3951 13.7402 2.38533 13.7775 2.38533C13.8822 2.38533 13.9638 2.46697 13.9638 2.58943ZM1.06562 15.4668C1.68299 15.4668 2.13924 15.0123 2.13924 14.4215L2.13924 1.0453C2.13924 0.454488 1.68299 0 1.06562 0C0.456246 0 0 0.454488 0 1.0453L0 14.4215C0 15.0123 0.456246 15.4668 1.06562 15.4668Z" fill="white" fill-opacity="0.85"/>
 </g>
</svg>
