<?xml version="1.0" encoding="UTF-8"?>
<!--Generator: Apple Native CoreSVG 341-->
<!DOCTYPE svg
PUBLIC "-//W3C//DTD SVG 1.1//EN"
       "http://www.w3.org/Graphics/SVG/1.1/DTD/svg11.dtd">
<svg version="1.1" xmlns="http://www.w3.org/2000/svg" xmlns:xlink="http://www.w3.org/1999/xlink" viewBox="0 0 36.2554 17.7664">
 <g>
  <rect height="17.7664" opacity="0" width="36.2554" x="0" y="0"/>
  <path d="M3.86796 15.5527C4.1998 15.1695 4.09687 14.6771 3.72597 14.2574C2.45429 12.8463 1.74296 10.9516 1.74296 8.87831C1.74296 6.80682 2.45078 4.9121 3.72597 3.50096C4.09863 3.08123 4.20332 2.58885 3.86796 2.20565C3.52734 1.7994 2.92949 1.78456 2.49863 2.25272C0.910938 3.96659 0 6.34374 0 8.87831C0 11.4164 0.886329 13.7697 2.49863 15.5057C2.93301 15.9721 3.5291 15.9527 3.86796 15.5527ZM32.0261 15.5562C32.365 15.958 32.9611 15.9756 33.3955 15.5092C35.0095 13.7732 35.8941 11.4199 35.8941 8.88182C35.8941 6.34725 34.9832 3.97011 33.3955 2.258C32.9646 1.78808 32.3668 1.80292 32.0261 2.21092C31.6908 2.59413 31.7955 3.08475 32.1681 3.50448C33.4433 4.91737 34.1511 6.81034 34.1511 8.88182C34.1511 10.9551 33.4398 12.8498 32.1681 14.2627C31.7972 14.6824 31.6943 15.173 32.0261 15.5562Z" fill="white" fill-opacity="0.85"/>
  <path d="M6.71659 12.7537C7.03964 12.374 6.9162 11.9029 6.59316 11.4637C6.05292 10.7805 5.76796 9.84296 5.76796 8.87831C5.76796 7.91366 6.05292 6.96639 6.59316 6.28944C6.91444 5.85194 7.03964 5.3826 6.71659 5.00116C6.37323 4.59139 5.73105 4.58436 5.33476 5.06249C4.49746 6.0785 4.025 7.43046 4.025 8.87831C4.025 10.3262 4.49746 11.6781 5.33476 12.6906C5.73105 13.1705 6.37323 13.1555 6.71659 12.7537ZM29.1775 12.759C29.5209 13.1607 30.1631 13.174 30.5593 12.6959C31.3966 11.6816 31.8691 10.3297 31.8691 8.88182C31.8691 7.43397 31.3966 6.08202 30.5593 5.06776C30.1631 4.58788 29.5209 4.59667 29.1775 5.00643C28.8545 5.38612 28.9797 5.85545 29.3009 6.29471C29.8412 6.97167 30.1261 7.91717 30.1261 8.88182C30.1261 9.84647 29.8412 10.7857 29.3009 11.4689C28.9779 11.9064 28.8545 12.3775 29.1775 12.759Z" fill="white" fill-opacity="0.85"/>
  <path d="M17.9488 17.7556C22.8556 17.7556 26.8306 13.7887 26.8306 8.88182C26.8306 3.97499 22.8556 0 17.9488 0C13.042 0 9.06699 3.97499 9.06699 8.88182C9.06699 13.7887 13.042 17.7556 17.9488 17.7556ZM17.9488 15.8617C14.0887 15.8617 10.9609 12.742 10.9609 8.88182C10.9609 5.02167 14.0887 1.89569 17.9488 1.89569C21.8072 1.89569 24.9349 5.02167 24.9349 8.88182C24.9349 12.742 21.8072 15.8617 17.9488 15.8617Z" fill="white" fill-opacity="0.85"/>
  <path d="M16.6711 13.931L19.2346 13.931C20.7162 13.931 21.4512 13.1766 21.4414 11.6691C21.4236 9.98651 21.4138 8.75585 21.3748 7.84842C21.2496 5.1201 20.4756 4.31053 17.9488 4.31053C15.4318 4.31053 14.6578 5.1201 14.5326 7.84842C14.4935 8.75585 14.4838 9.98651 14.466 11.6691C14.4562 13.1766 15.1894 13.931 16.6711 13.931ZM16.5644 12.2398C16.1926 12.2398 15.9476 11.9949 15.9476 11.623L15.9476 9.48124C15.9476 9.11288 16.1926 8.85819 16.5644 8.85819L19.3412 8.85819C19.7148 8.85819 19.9597 9.10936 19.9597 9.48124L19.9597 11.623C19.9597 11.9949 19.7148 12.2398 19.3412 12.2398ZM15.9476 10.5773L19.9597 10.5773L19.9597 10.0078L15.9476 10.0078ZM17.9488 3.28885C17.1242 3.28885 16.5498 3.85702 16.5498 4.64686L17.2205 4.64686C17.2205 4.24296 17.5332 3.95077 17.9488 3.95077C18.3724 3.95077 18.6887 4.24296 18.6887 4.64686L19.3576 4.64686C19.3576 3.85702 18.7832 3.28885 17.9488 3.28885Z" fill="white" fill-opacity="0.85"/>
 </g>
</svg>
