<?xml version="1.0" encoding="UTF-8"?>
<!--Generator: Apple Native CoreSVG 341-->
<!DOCTYPE svg
PUBLIC "-//W3C//DTD SVG 1.1//EN"
       "http://www.w3.org/Graphics/SVG/1.1/DTD/svg11.dtd">
<svg version="1.1" xmlns="http://www.w3.org/2000/svg" xmlns:xlink="http://www.w3.org/1999/xlink" viewBox="0 0 32.9187 15.4765">
 <g>
  <rect height="15.4765" opacity="0" width="32.9187" x="0" y="0"/>
  <path d="M32.5574 13.9424L32.5574 1.5164C32.5574 0.494724 31.9527 0 31.2283 0C30.9179 0 30.5898 0.0886714 30.2714 0.274022L19.8804 6.32968C19.1066 6.77695 18.7619 7.15546 18.7619 7.73339C18.7619 8.30956 19.1066 8.68983 19.8804 9.13709L30.2714 15.1928C30.5898 15.3701 30.9179 15.4668 31.2283 15.4668C31.9527 15.4668 32.5574 14.9623 32.5574 13.9424ZM18.8187 13.9424L18.8187 1.5164C18.8187 0.494724 18.206 0 17.4896 0C17.173 0 16.8512 0.0886714 16.5346 0.274022L6.13378 6.32968C5.36796 6.77695 5.02323 7.15546 5.02323 7.73339C5.02323 8.30956 5.36796 8.68983 6.13378 9.13709L16.5346 15.1928C16.8512 15.3701 17.173 15.4668 17.4896 15.4668C18.206 15.4668 18.8187 14.9623 18.8187 13.9424ZM3.6871 15.417C4.60878 15.417 5.08085 14.9379 5.08085 14.0135L5.08085 1.44355C5.08085 0.51914 4.60175 0.0417972 3.6871 0.0417972L1.3955 0.0417972C0.4791 0.0417972 0 0.495897 0 1.44355L0 14.0135C0 14.9379 0.4791 15.417 1.3955 15.417Z" fill="white" fill-opacity="0.85"/>
 </g>
</svg>
