<?xml version="1.0" encoding="UTF-8"?>
<!--Generator: Apple Native CoreSVG 341-->
<!DOCTYPE svg
PUBLIC "-//W3C//DTD SVG 1.1//EN"
       "http://www.w3.org/Graphics/SVG/1.1/DTD/svg11.dtd">
<svg version="1.1" xmlns="http://www.w3.org/2000/svg" xmlns:xlink="http://www.w3.org/1999/xlink" viewBox="0 0 23.3043 15.4765">
 <g>
  <rect height="15.4765" opacity="0" width="23.3043" x="0" y="0"/>
  <path d="M17.8097 15.4668C18.4174 15.4668 18.8754 15.0123 18.8754 14.4215L18.8754 1.0453C18.8754 0.454488 18.4174 0 17.8097 0C17.2004 0 16.7361 0.454488 16.7361 1.0453L16.7361 14.4215C16.7361 15.0123 17.2004 15.4668 17.8097 15.4668ZM13.7875 13.9424L13.7875 1.5164C13.7875 0.494724 13.1828 0 12.4584 0C12.148 0 11.8199 0.0886714 11.5016 0.274022L1.11054 6.32968C0.336716 6.77695 0 7.15546 0 7.73339C0 8.30956 0.336716 8.68983 1.11054 9.13709L11.5016 15.1928C11.8199 15.3701 12.148 15.4668 12.4584 15.4668C13.1828 15.4668 13.7875 14.9623 13.7875 13.9424ZM11.8742 12.8773C11.8742 12.9918 11.8006 13.0814 11.6959 13.0814C11.6506 13.0814 11.6178 13.0637 11.5769 13.0424L2.75643 7.89042C2.68279 7.8496 2.65174 7.78573 2.65174 7.73339C2.65174 7.67128 2.68279 7.61718 2.75643 7.57636L11.5769 2.4244C11.6178 2.3951 11.6506 2.38533 11.6959 2.38533C11.8006 2.38533 11.8742 2.46697 11.8742 2.58943Z" fill="white" fill-opacity="0.85"/>
 </g>
</svg>
