<?xml version="1.0" encoding="UTF-8"?>
<!--Generator: Apple Native CoreSVG 341-->
<!DOCTYPE svg
PUBLIC "-//W3C//DTD SVG 1.1//EN"
       "http://www.w3.org/Graphics/SVG/1.1/DTD/svg11.dtd">
<svg version="1.1" xmlns="http://www.w3.org/2000/svg" xmlns:xlink="http://www.w3.org/1999/xlink" viewBox="0 0 20.5381 20.1848">
 <g>
  <rect height="20.1848" opacity="0" width="20.5381" x="0" y="0"/>
  <path d="M20.1767 10.0875C20.1767 15.6478 15.6576 20.175 10.0875 20.175C4.52715 20.175 0 15.6478 0 10.0875C0 4.51914 4.52715 0 10.0875 0C15.6576 0 20.1767 4.51914 20.1767 10.0875ZM6.36464 6.31113C5.94843 6.31113 5.72031 6.52948 5.72031 6.95194L5.72031 13.2248C5.72031 13.6553 5.94667 13.8656 6.36464 13.8656L7.43808 13.8656C7.85253 13.8656 8.08066 13.6553 8.08066 13.2248L8.08066 10.4201C8.15781 10.5781 8.29355 10.7148 8.49687 10.832L13.168 13.5734C13.3508 13.6826 13.5318 13.7412 13.7244 13.7412C14.1148 13.7412 14.4404 13.4564 14.4404 12.9115L14.4404 7.28925C14.4404 6.75234 14.1166 6.46132 13.7244 6.46132C13.5318 6.46132 13.3508 6.51816 13.168 6.62734L8.49687 9.36875C8.29003 9.48593 8.15605 9.62089 8.08066 9.7789L8.08066 6.95194C8.08066 6.52675 7.85253 6.31113 7.43808 6.31113Z" fill="white" fill-opacity="0.85"/>
 </g>
</svg>
