<?xml version="1.0" encoding="UTF-8"?>
<!--Generator: Apple Native CoreSVG 341-->
<!DOCTYPE svg
PUBLIC "-//W3C//DTD SVG 1.1//EN"
       "http://www.w3.org/Graphics/SVG/1.1/DTD/svg11.dtd">
<svg version="1.1" xmlns="http://www.w3.org/2000/svg" xmlns:xlink="http://www.w3.org/1999/xlink" viewBox="0 0 16.7324 25.9234">
 <g>
  <rect height="25.9234" opacity="0" width="16.7324" x="0" y="0"/>
  <path d="M5.19333 24.9176L11.1777 24.9176C14.6552 24.9176 16.4 23.1355 16.3707 19.6154C16.3316 15.6773 16.3121 12.8135 16.2127 10.666C15.9259 4.2873 14.0968 2.38359 8.18864 2.38359C2.2822 2.38359 0.44509 4.2873 0.158371 10.666C0.058957 12.8135 0.0394257 15.6773 0.000363245 19.6154C-0.0289336 23.1355 1.71403 24.9176 5.19333 24.9176ZM5.19333 23.2166C2.66871 23.2166 1.67828 22.2066 1.69781 19.6349C1.73688 15.6986 1.76617 12.8578 1.86383 10.7467C2.10445 5.2703 3.22887 4.09081 8.18864 4.09081C13.1422 4.09081 14.2666 5.2703 14.5152 10.7467C14.6049 12.8578 14.6342 15.6986 14.6732 19.6349C14.6927 22.2066 13.7023 23.2166 11.1777 23.2166ZM8.18688 0C6.23806 0 4.89685 1.3082 4.89685 3.14921L6.432 3.14921C6.432 2.18085 7.1443 1.51054 8.18688 1.51054C9.22321 1.51054 9.94352 2.18085 9.94352 3.14921L11.4769 3.14921C11.4769 1.3082 10.1277 0 8.18688 0ZM5.00739 20.9539L11.3716 20.9539C12.2857 20.9539 12.8882 20.3514 12.8882 19.4488L12.8882 14.5398C12.8882 13.631 12.2857 13.0267 11.3716 13.0267L5.00739 13.0267C4.09684 13.0267 3.48278 13.6391 3.48278 14.5398L3.48278 19.4488C3.48278 20.3416 4.09684 20.9539 5.00739 20.9539ZM5.28571 19.4654C5.10094 19.4654 4.98102 19.3455 4.98102 19.1723L4.98102 14.8182C4.98102 14.6351 5.10094 14.5152 5.28571 14.5152L11.0853 14.5152C11.2701 14.5152 11.39 14.6351 11.39 14.8182L11.39 19.1723C11.39 19.3455 11.2701 19.4654 11.0853 19.4654ZM4.27282 17.0519L12.0982 17.0519L12.0982 15.7037L4.27282 15.7037Z" fill="white" fill-opacity="0.85"/>
 </g>
</svg>
