<?xml version="1.0" encoding="UTF-8"?>
<!--Generator: Apple Native CoreSVG 341-->
<!DOCTYPE svg
PUBLIC "-//W3C//DTD SVG 1.1//EN"
       "http://www.w3.org/Graphics/SVG/1.1/DTD/svg11.dtd">
<svg version="1.1" xmlns="http://www.w3.org/2000/svg" xmlns:xlink="http://www.w3.org/1999/xlink" viewBox="0 0 20.5381 20.1848">
 <g>
  <rect height="20.1848" opacity="0" width="20.5381" x="0" y="0"/>
  <path d="M20.1767 10.0875C20.1767 15.6478 15.6576 20.175 10.0875 20.175C4.52715 20.175 0 15.6478 0 10.0875C0 4.51914 4.52715 0 10.0875 0C15.6576 0 20.1767 4.51914 20.1767 10.0875ZM14.4797 6.60273L9.81835 9.34414C9.61601 9.46308 9.47675 9.59179 9.3916 9.74531L9.3916 7.26113C9.3916 6.7162 9.07129 6.43496 8.68086 6.43496C8.47676 6.43496 8.31972 6.48554 8.12265 6.60273L3.45956 9.34414C3.1205 9.54297 2.95117 9.77558 2.95117 10.0691C2.95117 10.3689 3.1205 10.6068 3.45956 10.8057L8.12265 13.5471C8.31972 13.6643 8.47676 13.7148 8.6791 13.7148C9.06953 13.7148 9.3916 13.4318 9.3916 12.8887L9.3916 10.401C9.47851 10.5562 9.61601 10.6867 9.81835 10.8057L14.4797 13.5471C14.6785 13.6643 14.8418 13.7148 15.0441 13.7148C15.4283 13.7148 15.7602 13.4318 15.7602 12.8887L15.7602 7.26113C15.7602 6.7162 15.4301 6.43496 15.0459 6.43496C14.8436 6.43496 14.6785 6.48554 14.4797 6.60273Z" fill="white" fill-opacity="0.85"/>
 </g>
</svg>
