<?xml version="1.0" encoding="UTF-8"?>
<!--Generator: Apple Native CoreSVG 341-->
<!DOCTYPE svg
PUBLIC "-//W3C//DTD SVG 1.1//EN"
       "http://www.w3.org/Graphics/SVG/1.1/DTD/svg11.dtd">
<svg version="1.1" xmlns="http://www.w3.org/2000/svg" xmlns:xlink="http://www.w3.org/1999/xlink" viewBox="0 0 20.5381 20.1848">
 <g>
  <rect height="20.1848" opacity="0" width="20.5381" x="0" y="0"/>
  <path d="M20.1767 10.0973C20.1767 15.6656 15.6576 20.1848 10.0875 20.1848C4.52715 20.1848 0 15.6656 0 10.0973C0 4.53691 4.52715 0.00976562 10.0875 0.00976562C15.6576 0.00976562 20.1767 4.53691 20.1767 10.0973ZM8.42109 4.81601C6.7082 5.18261 6.11425 6.32792 5.99706 8.87988C5.94999 9.97031 5.94023 11.4293 5.91445 13.4406C5.90292 15.2332 6.78534 16.1387 8.54765 16.1387L11.6131 16.1387C13.3736 16.1387 14.2561 15.2332 14.2463 13.4406C14.2205 11.4293 14.2125 9.97031 14.1619 8.87988C14.0465 6.32792 13.4525 5.18261 11.7396 4.81601C11.6305 4.00116 10.9832 3.43827 10.0795 3.43827C9.17753 3.43827 8.52851 4.00116 8.42109 4.81601ZM12.476 13.383C12.476 13.8295 12.192 14.1232 11.7357 14.1232L8.433 14.1232C7.97675 14.1232 7.683 13.8295 7.683 13.383L7.683 12.1373L12.476 12.1373ZM12.476 10.8236L12.476 11.4603L7.683 11.4603L7.683 10.8236C7.683 10.3869 7.97675 10.0932 8.433 10.0932L11.7357 10.0932C12.192 10.0932 12.476 10.3852 12.476 10.8236ZM10.8719 4.69355C10.6223 4.67577 10.3629 4.66425 10.0795 4.66425C9.79609 4.66425 9.53847 4.67577 9.29062 4.69355C9.42831 4.4164 9.71347 4.23515 10.0795 4.23515C10.4473 4.23515 10.7307 4.4164 10.8719 4.69355Z" fill="white" fill-opacity="0.85"/>
 </g>
</svg>
