<?xml version="1.0" encoding="UTF-8"?>
<!--Generator: Apple Native CoreSVG 341-->
<!DOCTYPE svg
PUBLIC "-//W3C//DTD SVG 1.1//EN"
       "http://www.w3.org/Graphics/SVG/1.1/DTD/svg11.dtd">
<svg version="1.1" xmlns="http://www.w3.org/2000/svg" xmlns:xlink="http://www.w3.org/1999/xlink" viewBox="0 0 20.5381 20.1848">
 <g>
  <rect height="20.1848" opacity="0" width="20.5381" x="0" y="0"/>
  <path d="M20.1767 10.0973C20.1767 15.6656 15.6576 20.1848 10.0875 20.1848C4.52715 20.1848 0 15.6656 0 10.0973C0 4.53691 4.52715 0.00976562 10.0875 0.00976562C15.6576 0.00976562 20.1767 4.53691 20.1767 10.0973ZM7.86679 6.42148L7.12988 6.42148C6.0123 6.42148 5.43105 6.97695 5.43105 8.07675L5.43105 13.416C5.43105 14.5078 6.0123 15.0748 7.12988 15.0748L13.1848 15.0748C14.1725 15.0748 14.7457 14.5078 14.7457 13.416L14.7457 8.07675C14.7457 6.98495 14.1627 6.42148 13.0451 6.42148L12.3082 6.42148C12.2904 5.26425 11.3105 4.31269 10.0875 4.31269C8.86445 4.31269 7.88633 5.26425 7.86679 6.42148ZM11.2209 6.42148L8.95409 6.42148C8.97988 5.75898 9.408 5.32655 10.0875 5.32655C10.7687 5.32655 11.1969 5.75898 11.2209 6.42148Z" fill="white" fill-opacity="0.85"/>
 </g>
</svg>
