<?xml version="1.0" encoding="UTF-8"?>
<!--Generator: Apple Native CoreSVG 341-->
<!DOCTYPE svg
PUBLIC "-//W3C//DTD SVG 1.1//EN"
       "http://www.w3.org/Graphics/SVG/1.1/DTD/svg11.dtd">
<svg version="1.1" xmlns="http://www.w3.org/2000/svg" xmlns:xlink="http://www.w3.org/1999/xlink" viewBox="0 0 18.0099 20.0519">
 <g>
  <rect height="20.0519" opacity="0" width="18.0099" x="0" y="0"/>
  <path d="M3.20351 20.0422L14.6906 20.0422C16.5529 20.0422 17.6486 18.9562 17.6486 16.8707L17.6486 6.77558C17.6486 4.69003 16.5449 3.6041 14.4451 3.6041L3.20351 3.6041C1.0957 3.6041 0 4.68202 0 6.77558L0 16.8707C0 18.9642 1.0957 20.0422 3.20351 20.0422ZM3.31444 18.1289C2.40643 18.1289 1.91327 17.6605 1.91327 16.7117L1.91327 6.93456C1.91327 5.98573 2.40643 5.51736 3.31444 5.51736L14.3262 5.51736C15.2262 5.51736 15.7354 5.98573 15.7354 6.93456L15.7354 16.7117C15.7354 17.6605 15.2262 18.1289 14.5717 18.1289ZM4.7793 4.01835L6.63104 4.02988C6.63104 2.6703 7.51737 1.70409 8.82031 1.70409C10.1232 1.70409 11.0176 2.6703 11.0176 4.02988L12.8693 4.01835C12.8693 1.75293 11.1344 0 8.82031 0C6.50801 0 4.7793 1.75293 4.7793 4.01835Z" fill="white" fill-opacity="0.85"/>
 </g>
</svg>
