<?xml version="1.0" encoding="UTF-8"?>
<!--Generator: Apple Native CoreSVG 341-->
<!DOCTYPE svg
PUBLIC "-//W3C//DTD SVG 1.1//EN"
       "http://www.w3.org/Graphics/SVG/1.1/DTD/svg11.dtd">
<svg version="1.1" xmlns="http://www.w3.org/2000/svg" xmlns:xlink="http://www.w3.org/1999/xlink" viewBox="0 0 20.5381 20.1848">
 <g>
  <rect height="20.1848" opacity="0" width="20.5381" x="0" y="0"/>
  <path d="M10.0875 20.175C15.6576 20.175 20.1767 15.6559 20.1767 10.0875C20.1767 4.51914 15.6576 0 10.0875 0C4.51914 0 0 4.51914 0 10.0875C0 15.6559 4.51914 20.175 10.0875 20.175ZM10.0875 18.1879C5.60839 18.1879 1.9871 14.5666 1.9871 10.0875C1.9871 5.60839 5.60839 1.9871 10.0875 1.9871C14.5666 1.9871 18.1897 5.60839 18.1897 10.0875C18.1897 14.5666 14.5666 18.1879 10.0875 18.1879Z" fill="white" fill-opacity="0.85"/>
  <path d="M8.07988 14.3547L10.5879 14.3547C12.241 14.3547 13.5408 13.5789 13.5408 11.9434C13.5408 10.7678 12.6984 9.96699 11.5291 9.84609L11.5291 9.79101C12.4426 9.6498 13.1154 8.82128 13.1154 7.91132C13.1154 6.44648 11.8744 5.77421 10.557 5.77421L8.07988 5.77421C7.56641 5.77421 7.28613 6.10683 7.28613 6.58476L7.28613 13.5521C7.28613 14.0238 7.57441 14.3547 8.07988 14.3547ZM8.62558 9.43183L8.62558 6.8455L10.2281 6.8455C11.1201 6.8455 11.798 7.21327 11.798 8.09374C11.798 9.06406 10.9912 9.43183 10.0031 9.43183ZM8.62558 13.2932L8.62558 10.4351L10.2227 10.4351C11.2986 10.4351 12.1678 10.7887 12.1678 11.8566C12.1678 12.9059 11.3617 13.2932 10.301 13.2932ZM10.0391 15.4389C10.2353 15.4389 10.3473 15.3172 10.3473 15.1209L10.3473 4.92089C10.3473 4.73261 10.2273 4.60468 10.0391 4.60468C9.85078 4.60468 9.72109 4.73261 9.72109 4.92089L9.72109 15.1209C9.72109 15.3172 9.85078 15.4389 10.0391 15.4389Z" fill="white" fill-opacity="0.85"/>
 </g>
</svg>
