<?xml version="1.0" encoding="UTF-8"?>
<!--Generator: Apple Native CoreSVG 341-->
<!DOCTYPE svg
PUBLIC "-//W3C//DTD SVG 1.1//EN"
       "http://www.w3.org/Graphics/SVG/1.1/DTD/svg11.dtd">
<svg version="1.1" xmlns="http://www.w3.org/2000/svg" xmlns:xlink="http://www.w3.org/1999/xlink" viewBox="0 0 18.5894 18.2316">
 <g>
  <rect height="18.2316" opacity="0" width="18.5894" x="0" y="0"/>
  <path d="M3.20351 18.2281L15.0246 18.2281C17.1404 18.2281 18.2281 17.1502 18.2281 15.0646L18.2281 3.17148C18.2281 1.08769 17.1404 0 15.0246 0L3.20351 0C1.0957 0 0 1.08769 0 3.17148L0 15.0646C0 17.1502 1.0957 18.2281 3.20351 18.2281ZM3.31444 16.3148C2.40643 16.3148 1.91327 15.8465 1.91327 14.8977L1.91327 3.34023C1.91327 2.39139 2.40643 1.91503 3.31444 1.91503L14.9137 1.91503C15.8137 1.91503 16.3148 2.39139 16.3148 3.34023L16.3148 14.8977C16.3148 15.8465 15.8137 16.3148 14.9137 16.3148Z" fill="white" fill-opacity="0.85"/>
  <path d="M7.11933 13.3781L9.62734 13.3781C11.2805 13.3781 12.5803 12.6023 12.5803 10.9668C12.5803 9.79121 11.7379 8.99043 10.5668 8.86953L10.5668 8.81445C11.482 8.67324 12.1531 7.84472 12.1531 6.93476C12.1531 5.46992 10.9139 4.79765 9.59648 4.79765L7.11933 4.79765C6.60586 4.79765 6.32559 5.13027 6.32559 5.60819L6.32559 12.5756C6.32559 13.0473 6.61387 13.3781 7.11933 13.3781ZM7.66503 8.45527L7.66503 5.86893L9.26757 5.86893C10.1578 5.86893 10.8375 6.23671 10.8375 7.11718C10.8375 8.0875 10.0289 8.45527 9.04257 8.45527ZM7.66503 12.3166L7.66503 9.45859L9.27011 9.45859C10.3381 9.45859 11.2072 9.8121 11.2072 10.8801C11.2072 11.9293 10.4012 12.3166 9.34043 12.3166ZM9.07851 14.4623C9.2748 14.4623 9.38672 14.3406 9.38672 14.1443L9.38672 3.94433C9.38672 3.75605 9.26679 3.62812 9.07851 3.62812C8.89023 3.62812 8.76054 3.75605 8.76054 3.94433L8.76054 14.1443C8.76054 14.3406 8.89023 14.4623 9.07851 14.4623Z" fill="white" fill-opacity="0.85"/>
 </g>
</svg>
