<?xml version="1.0" encoding="UTF-8"?>
<!--Generator: Apple Native CoreSVG 341-->
<!DOCTYPE svg
PUBLIC "-//W3C//DTD SVG 1.1//EN"
       "http://www.w3.org/Graphics/SVG/1.1/DTD/svg11.dtd">
<svg version="1.1" xmlns="http://www.w3.org/2000/svg" xmlns:xlink="http://www.w3.org/1999/xlink" viewBox="0 0 24.2049 19.8808">
 <g>
  <rect height="19.8808" opacity="0" width="24.2049" x="0" y="0"/>
  <path d="M23.8435 11.9178C23.8435 9.01855 22.8031 6.3457 21.0623 4.27031C20.8547 4.02011 20.498 4.02011 20.2621 4.2623L17.9578 6.56484C17.7547 6.76796 17.7467 7.05097 17.9232 7.27363C18.9185 8.56269 19.517 10.1768 19.517 11.9178C19.517 13.6826 18.9115 15.3107 17.8488 16.6611C17.6945 16.8535 17.7025 17.0982 17.8719 17.2756L20.2242 19.6279C20.4646 19.8683 20.8133 19.8683 21.0359 19.6066C22.7908 17.5277 23.8435 14.8443 23.8435 11.9178Z" fill="white" fill-opacity="0.85"/>
  <path d="M11.9178 4.32656C13.6783 4.32656 15.2941 4.933 16.5912 5.93183C16.8041 6.09863 17.0791 6.0791 17.2787 5.87773L19.5812 3.57343C19.8252 3.33125 19.8154 2.9791 19.5582 2.76797C17.4926 1.04043 14.8232 0 11.9178 0C9.02031 0 6.35097 1.04043 4.28711 2.76797C4.02988 2.9791 4.01836 3.33125 4.2623 3.57343L6.56484 5.87773C6.76445 6.0791 7.05097 6.09863 7.28163 5.92207C8.56894 4.933 10.1768 4.32656 11.9178 4.32656Z" fill="white" fill-opacity="0.85"/>
  <path d="M0 11.9178C0 14.8461 1.05625 17.5348 2.81465 19.6137C3.02402 19.8719 3.3789 19.8683 3.61308 19.6279L5.96367 17.2756C6.133 17.0982 6.15077 16.8535 5.99472 16.6611C4.93378 15.3107 4.32656 13.6826 4.32656 11.9178C4.32656 10.1768 4.91699 8.56269 5.92031 7.27363C6.08886 7.05097 6.08886 6.76796 5.88574 6.56484L3.58144 4.2623C3.33926 4.02011 2.98711 4.02187 2.77422 4.2791C1.03867 6.35097 0 9.02031 0 11.9178Z" fill="white" fill-opacity="0.85"/>
  <path d="M9.91015 16.2707L12.4182 16.2707C14.0713 16.2707 15.3711 15.4869 15.3711 13.8594C15.3711 12.6758 14.5287 11.875 13.3576 11.7541L13.3576 11.699C14.2728 11.5658 14.9439 10.7293 14.9439 9.81933C14.9439 8.35449 13.7127 7.68222 12.3873 7.68222L9.91015 7.68222C9.39668 7.68222 9.11641 8.01484 9.11641 8.49276L9.11641 15.4699C9.11641 15.9318 9.40469 16.2707 9.91015 16.2707ZM10.4559 11.3416L10.4559 8.7535L12.0664 8.7535C12.9486 8.7535 13.6283 9.12304 13.6283 10.0018C13.6283 10.9801 12.8277 11.3416 11.8334 11.3416ZM10.4559 15.2012L10.4559 12.3512L12.0609 12.3512C13.1289 12.3512 13.998 12.6967 13.998 13.7646C13.998 14.8139 13.192 15.2012 12.1312 15.2012ZM11.8693 17.3549C12.0656 17.3549 12.1855 17.227 12.1855 17.0307L12.1855 6.83867C12.1855 6.64238 12.0576 6.51269 11.8693 6.51269C11.681 6.51269 11.5514 6.64238 11.5514 6.83867L11.5514 17.0307C11.5514 17.227 11.681 17.3549 11.8693 17.3549Z" fill="white" fill-opacity="0.85"/>
 </g>
</svg>
