<?xml version="1.0" encoding="UTF-8"?>
<!--Generator: Apple Native CoreSVG 341-->
<!DOCTYPE svg
PUBLIC "-//W3C//DTD SVG 1.1//EN"
       "http://www.w3.org/Graphics/SVG/1.1/DTD/svg11.dtd">
<svg version="1.1" xmlns="http://www.w3.org/2000/svg" xmlns:xlink="http://www.w3.org/1999/xlink" viewBox="0 0 18.5894 18.2316">
 <g>
  <rect height="18.2316" opacity="0" width="18.5894" x="0" y="0"/>
  <path d="M18.2281 3.17148L18.2281 15.0646C18.2281 17.1502 17.1404 18.2281 15.0246 18.2281L3.20351 18.2281C1.0957 18.2281 0 17.1502 0 15.0646L0 3.17148C0 1.08769 1.0957 0 3.20351 0L15.0246 0C17.1404 0 18.2281 1.08769 18.2281 3.17148ZM8.75859 3.7414L8.75859 4.62929L7.05273 4.62929C6.51269 4.62929 6.21738 4.97519 6.21738 5.48144L6.21738 12.7121C6.21738 13.2023 6.5207 13.5482 7.05273 13.5482L8.75859 13.5482L8.75859 14.349C8.75859 14.5471 8.88828 14.6768 9.08632 14.6768C9.29238 14.6768 9.40781 14.5471 9.40781 14.349L9.40781 13.5482L9.65722 13.5482C11.3812 13.5482 12.7307 12.7441 12.7307 11.0377C12.7307 9.82402 11.8582 8.98867 10.641 8.85976L10.641 8.80292C11.5926 8.66171 12.292 7.79687 12.292 6.85058C12.292 5.3246 10.9996 4.62929 9.62285 4.62929L9.40781 4.62929L9.40781 3.7414C9.40781 3.55136 9.28437 3.41191 9.08632 3.41191C8.88828 3.41191 8.75859 3.55136 8.75859 3.7414ZM8.75859 12.4398L7.6205 12.4398L7.6205 9.47538L8.75859 9.47538ZM11.2904 10.9492C11.2904 11.9992 10.5209 12.4398 9.48515 12.4398L9.40781 12.4398L9.40781 9.48339L9.46289 9.48339C10.4898 9.48339 11.2904 9.90449 11.2904 10.9492ZM8.75859 8.42871L7.6205 8.42871L7.6205 5.7537L8.75859 5.7537ZM10.9109 7.04452C10.9109 7.92402 10.266 8.33535 9.40781 8.40468L9.40781 5.7537C10.2775 5.79726 10.9109 6.18632 10.9109 7.04452Z" fill="white" fill-opacity="0.85"/>
 </g>
</svg>
