<?xml version="1.0" encoding="UTF-8"?>
<!--Generator: Apple Native CoreSVG 341-->
<!DOCTYPE svg
PUBLIC "-//W3C//DTD SVG 1.1//EN"
       "http://www.w3.org/Graphics/SVG/1.1/DTD/svg11.dtd">
<svg version="1.1" xmlns="http://www.w3.org/2000/svg" xmlns:xlink="http://www.w3.org/1999/xlink" viewBox="0 0 13.2465 27.1168">
 <g>
  <rect height="27.1168" opacity="0" width="13.2465" x="0" y="0"/>
  <path d="M6.43769 15.2545C10.0635 15.2545 12.8851 11.4041 12.8851 6.62324C12.8851 2.85 10.2437 0 6.43769 0C2.63164 0 0 2.85 0 6.62324C0 11.4041 2.81191 15.2545 6.43769 15.2545ZM6.43769 13.584C3.74999 13.584 1.67675 10.4443 1.67675 6.62324C1.67675 3.85136 3.62402 1.67675 6.43769 1.67675C9.23359 1.67675 11.2146 3.85136 11.2146 6.62324C11.2146 10.4443 9.11738 13.584 6.43769 13.584ZM4.98262 14.4031L4.49902 16.2559C4.36777 16.7115 4.63633 17.1877 5.19589 17.1877L7.68574 17.1877C8.24706 17.1877 8.50761 16.7115 8.38436 16.2559L7.883 14.4031ZM6.33984 26.9555C6.75585 26.9555 7.09823 26.6051 7.09823 26.189C7.09823 24.0504 9.03983 23.5576 9.03983 21.3879C9.03983 19.1262 7.15605 18.7713 7.17206 16.8209L5.65703 16.8209C5.64902 19.5685 7.53632 19.9084 7.53632 21.3879C7.53632 22.8932 5.58496 23.1082 5.58496 26.189C5.58496 26.6051 5.92558 26.9555 6.33984 26.9555Z" fill="white" fill-opacity="0.85"/>
 </g>
</svg>
