<?xml version="1.0" encoding="UTF-8"?>
<!--Generator: Apple Native CoreSVG 341-->
<!DOCTYPE svg
PUBLIC "-//W3C//DTD SVG 1.1//EN"
       "http://www.w3.org/Graphics/SVG/1.1/DTD/svg11.dtd">
<svg version="1.1" xmlns="http://www.w3.org/2000/svg" xmlns:xlink="http://www.w3.org/1999/xlink" viewBox="0 0 26.1391 16.2902">
 <g>
  <rect height="16.2902" opacity="0" width="26.1391" x="0" y="0"/>
  <path d="M2.87479 12.8867C2.87479 13.2297 3.06054 13.4137 3.39023 13.4137L22.3955 13.4137C22.7172 13.4137 22.9109 13.2297 22.9109 12.8867L22.9109 3.39726C22.9109 3.0623 22.7172 2.8703 22.3955 2.8703L3.39023 2.8703C3.06054 2.8703 2.87479 3.0623 2.87479 3.39726ZM3.90858 12.1693L3.90858 4.11464C3.90858 3.9787 3.97518 3.90585 4.10936 3.90585L21.6684 3.90585C21.8026 3.90585 21.8772 3.9787 21.8772 4.11464L21.8772 12.1693C21.8772 12.3053 21.8026 12.3781 21.6684 12.3781L4.10936 12.3781C3.97518 12.3781 3.90858 12.3053 3.90858 12.1693ZM12.8498 13.4137C14.9205 13.4137 16.5369 11.342 16.5369 8.13222C16.5369 4.93222 14.9205 2.8703 12.8498 2.8703C10.8359 2.8703 9.25058 4.93222 9.25058 8.13222C9.25058 11.342 10.8359 13.4137 12.8498 13.4137ZM12.8498 12.1857C11.5422 12.1857 10.4379 10.6232 10.4379 8.13222C10.4379 5.65097 11.5422 4.09823 12.8498 4.09823C14.216 4.09823 15.3576 5.65097 15.3576 8.13222C15.3576 10.6232 14.216 12.1857 12.8498 12.1857Z" fill="white" fill-opacity="0.85"/>
  <path d="M0 15.451C0 15.9549 0.335351 16.2902 0.839255 16.2902L24.9465 16.2902C25.4504 16.2902 25.7777 15.9549 25.7777 15.451L25.7777 0.833005C25.7777 0.330858 25.4504 0.00175774 24.9465 0.00175774L0.839255 0.00175774C0.335351 0.00175774 0 0.330858 0 0.833005ZM1.91327 14.0973L1.91327 2.19471C1.91327 1.98866 1.99491 1.91503 2.1912 1.91503L23.5865 1.91503C23.7908 1.91503 23.8645 1.98866 23.8645 2.19471L23.8645 14.0973C23.8645 14.2953 23.7908 14.377 23.5865 14.377L2.1912 14.377C1.99491 14.377 1.91327 14.2953 1.91327 14.0973Z" fill="white" fill-opacity="0.85"/>
 </g>
</svg>
