<?xml version="1.0" encoding="UTF-8"?>
<!--Generator: Apple Native CoreSVG 341-->
<!DOCTYPE svg
PUBLIC "-//W3C//DTD SVG 1.1//EN"
       "http://www.w3.org/Graphics/SVG/1.1/DTD/svg11.dtd">
<svg version="1.1" xmlns="http://www.w3.org/2000/svg" xmlns:xlink="http://www.w3.org/1999/xlink" viewBox="0 0 26.1799 20.3871">
 <g>
  <rect height="20.3871" opacity="0" width="26.1799" x="0" y="0"/>
  <path d="M0.501487 10.5076L4.55598 13.3236C5.0509 13.6678 5.75519 13.6678 6.29718 13.2846L10.2931 10.5076C10.9671 10.0402 10.9706 9.2494 10.2931 8.78026L6.25461 5.97226C5.74191 5.61034 5.0509 5.61835 4.55598 5.96425L0.501487 8.78026C-0.168041 9.2494-0.166283 10.0367 0.501487 10.5076ZM8.00948 4.86347L12.064 7.67948C12.5749 8.03163 13.2632 8.02011 13.8212 7.64042L17.7993 4.86347C18.4751 4.39433 18.4786 3.60527 17.7993 3.13262L13.7724 0.326366C13.2579-0.0257814 12.5784-0.0337893 12.064 0.318358L8.00948 3.13262C7.3382 3.60351 7.34347 4.39433 8.00948 4.86347ZM15.5353 10.5076L19.5312 13.2926C20.0714 13.6722 20.7659 13.6775 21.2786 13.3156L25.3091 10.5076C25.9946 10.0287 25.9946 9.25741 25.3091 8.78026L21.2786 5.97226C20.7659 5.61034 20.0847 5.60233 19.5737 5.96425L15.5353 8.78026C14.848 9.25741 14.8532 10.0322 15.5353 10.5076ZM3.98332 20.3871C5.27804 20.3871 6.32784 19.3373 6.32784 18.0506C6.32784 16.7558 5.27804 15.7043 3.98332 15.7043C2.6966 15.7043 1.6468 16.7558 1.6468 18.0506C1.6468 19.3373 2.6966 20.3871 3.98332 20.3871ZM12.9173 20.3871C14.2023 20.3871 15.2556 19.3373 15.2556 18.0506C15.2556 16.7558 14.2023 15.7043 12.9173 15.7043C11.6226 15.7043 10.571 16.7558 10.571 18.0506C10.571 19.3373 11.6226 20.3871 12.9173 20.3871ZM21.837 20.3871C23.1317 20.3871 24.1815 19.3373 24.1815 18.0506C24.1815 16.7558 23.1317 15.7043 21.837 15.7043C20.5503 15.7043 19.4987 16.7558 19.4987 18.0506C19.4987 19.3373 20.5503 20.3871 21.837 20.3871Z" fill="white" fill-opacity="0.85"/>
 </g>
</svg>
