<?xml version="1.0" encoding="UTF-8"?>
<!--Generator: Apple Native CoreSVG 341-->
<!DOCTYPE svg
PUBLIC "-//W3C//DTD SVG 1.1//EN"
       "http://www.w3.org/Graphics/SVG/1.1/DTD/svg11.dtd">
<svg version="1.1" xmlns="http://www.w3.org/2000/svg" xmlns:xlink="http://www.w3.org/1999/xlink" viewBox="0 0 29.051 15.0574">
 <g>
  <rect height="15.0574" opacity="0" width="29.051" x="0" y="0"/>
  <path d="M0.565354 11.6168L5.06106 14.7453C5.61984 15.14 6.39601 15.1205 7.00988 14.7062L11.4372 11.6168C12.1884 11.0935 12.1919 10.2238 11.4372 9.6988L6.95754 6.57829C6.38273 6.18357 5.61984 6.17556 5.06106 6.56228L0.565354 9.6988C-0.18933 10.2238-0.187572 11.0935 0.565354 11.6168ZM8.90401 5.34255L13.4077 8.47106C13.9665 8.86579 14.7427 8.84802 15.3485 8.42399L19.7856 5.34255C20.5351 4.81931 20.5403 3.94959 19.7856 3.42459L15.298 0.304082C14.7312-0.0986508 13.9665-0.0986508 13.4077 0.288066L8.90401 3.42459C8.15734 3.94959 8.1591 4.81931 8.90401 5.34255ZM17.2587 11.6168L21.7038 14.7142C22.3017 15.1285 23.0778 15.132 23.6446 14.7373L28.1323 11.6168C28.8772 11.0935 28.879 10.2238 28.1323 9.6988L23.6446 6.57829C23.0778 6.18357 22.3132 6.17556 21.7544 6.56228L17.2587 9.6988C16.504 10.2238 16.5093 11.0935 17.2587 11.6168Z" fill="white" fill-opacity="0.85"/>
 </g>
</svg>
