<?xml version="1.0" encoding="UTF-8"?>
<!--Generator: Apple Native CoreSVG 341-->
<!DOCTYPE svg
PUBLIC "-//W3C//DTD SVG 1.1//EN"
       "http://www.w3.org/Graphics/SVG/1.1/DTD/svg11.dtd">
<svg version="1.1" xmlns="http://www.w3.org/2000/svg" xmlns:xlink="http://www.w3.org/1999/xlink" viewBox="0 0 23.5207 22.0295">
 <g>
  <rect height="22.0295" opacity="0" width="23.5207" x="0" y="0"/>
  <path d="M0 9.92684C0 10.9063 0.615623 11.53 1.60664 11.53L21.543 11.53C22.5322 11.53 23.1594 10.9063 23.1594 9.92684L23.1594 8.36141C23.1594 7.38192 22.5322 6.74501 21.543 6.74501L1.60664 6.74501C0.613865 6.74501 0 7.38192 0 8.36141ZM2.05781 8.51571L21.0936 8.51571C21.2855 8.51571 21.4002 8.6286 21.4002 8.82059L21.4002 9.45614C21.4002 9.64813 21.2855 9.77079 21.0936 9.77079L2.05781 9.77079C1.86581 9.77079 1.75917 9.64813 1.75917 9.45614L1.75917 8.82059C1.75917 8.6286 1.86581 8.51571 2.05781 8.51571ZM6.36913 21.3186L16.7902 21.3186C19.1568 21.3186 19.873 19.9177 20.173 18.47L21.7363 10.9882L19.9957 10.6718L18.5283 17.8163C18.2646 19.068 17.9074 19.5399 16.5027 19.5399L6.65663 19.5399C5.25195 19.5399 4.89472 19.068 4.63105 17.8163L3.16366 10.6718L1.42305 10.9882L2.98633 18.47C3.28633 19.9177 4.00078 21.3186 6.36913 21.3186ZM7.41425 18.5634C7.8037 18.4977 8.01835 18.213 7.96249 17.8741L7.16073 12.895C7.09687 12.5464 6.79882 12.3548 6.42265 12.4071C6.0332 12.4807 5.80703 12.7575 5.87089 13.0981L6.67441 18.0755C6.73828 18.4241 7.0248 18.6255 7.41425 18.5634ZM10.217 18.4995C10.5967 18.48 10.8504 18.2227 10.8291 17.8741L10.5254 12.9509C10.4978 12.5925 10.2291 12.3468 9.83964 12.3796C9.46171 12.4071 9.208 12.6643 9.22754 13.0245L9.53125 17.9362C9.55254 18.2946 9.83906 18.5288 10.217 18.4995ZM12.9521 18.4995C13.3301 18.5288 13.6166 18.2946 13.6379 17.9362L13.9416 13.0245C13.9611 12.6643 13.7074 12.4071 13.3295 12.3796C12.94 12.3468 12.6713 12.5925 12.6437 12.9509L12.34 17.8741C12.3187 18.2227 12.5742 18.48 12.9521 18.4995ZM15.7451 18.5634C16.1213 18.6255 16.4211 18.4241 16.485 18.0755L17.2965 13.0981C17.3506 12.7575 17.1262 12.4807 16.7367 12.4071C16.3605 12.3548 16.0607 12.5464 15.9986 12.895L15.1969 17.8741C15.141 18.213 15.3557 18.4977 15.7451 18.5634ZM3.16133 7.23153L5.38436 7.23153L8.76542 1.34579C9.05897 0.82782 8.83183 0.347354 8.40898 0.12216C8.00468-0.0932689 7.4709-0.0463946 7.1791 0.445791ZM17.775 7.23153L19.998 7.23153L15.9803 0.445791C15.6982-0.0348712 15.168-0.0835033 14.7521 0.118644C14.3355 0.347354 14.1004 0.82782 14.3939 1.34579Z" fill="white" fill-opacity="0.85"/>
 </g>
</svg>
