<?xml version="1.0" encoding="UTF-8"?>
<!--Generator: Apple Native CoreSVG 341-->
<!DOCTYPE svg
PUBLIC "-//W3C//DTD SVG 1.1//EN"
       "http://www.w3.org/Graphics/SVG/1.1/DTD/svg11.dtd">
<svg version="1.1" xmlns="http://www.w3.org/2000/svg" xmlns:xlink="http://www.w3.org/1999/xlink" viewBox="0 0 20.5381 20.1848">
 <g>
  <rect height="20.1848" opacity="0" width="20.5381" x="0" y="0"/>
  <path d="M1.33046 10.8695C3.94979 7.28515 7.95527 5.03163 12.6008 5.03163C14.4935 5.03163 16.2586 5.39647 17.9428 6.12967L17.7279 4.76444C16.1449 4.17499 14.3809 3.85273 12.6008 3.85273C7.6289 3.85273 3.21191 6.32968 0.433781 10.1029ZM17.6807 14.7172L18.8107 14.3881C17.3766 9.20449 8.98983 8.11484 8.98983 4.05507C8.98983 2.84296 9.60175 1.96815 10.7516 1.36347L10.0549 0.399407C8.69413 1.16738 7.81093 2.47851 7.81093 4.05507C7.81093 9.07011 16.4689 10.3363 17.6807 14.7172ZM3.58573 16.9797L4.94823 17.0881C3.43847 14.3336 4.86015 10.3523 4.65643 6.75741C4.60038 5.76191 3.98632 4.0373 2.88241 3.81152L2.59667 4.96112C3.06894 5.02499 3.44902 6.17167 3.48281 6.80839C3.66074 9.87343 2.36777 13.843 3.58573 16.9797ZM11.4111 19.2951L12.3594 18.5846C6.58925 11.4348 5.8328 3.61758 6.83007 1.76659L5.50781 1.96776C4.77714 4.99081 5.98808 12.5277 11.4111 19.2951ZM10.0875 20.175C15.6576 20.175 20.1767 15.6559 20.1767 10.0875C20.1767 4.51914 15.6576 0 10.0875 0C4.51914 0 0 4.51914 0 10.0875C0 15.6559 4.51914 20.175 10.0875 20.175ZM10.0875 18.6113C5.38339 18.6113 1.56542 14.7916 1.56542 10.0875C1.56542 5.38339 5.38339 1.56366 10.0875 1.56366C14.7934 1.56366 18.6113 5.38339 18.6113 10.0875C18.6113 14.7916 14.7934 18.6113 10.0875 18.6113Z" fill="white" fill-opacity="0.85"/>
 </g>
</svg>
