<?xml version="1.0" encoding="UTF-8"?>
<!--Generator: Apple Native CoreSVG 341-->
<!DOCTYPE svg
PUBLIC "-//W3C//DTD SVG 1.1//EN"
       "http://www.w3.org/Graphics/SVG/1.1/DTD/svg11.dtd">
<svg version="1.1" xmlns="http://www.w3.org/2000/svg" xmlns:xlink="http://www.w3.org/1999/xlink" viewBox="0 0 20.5381 20.1848">
 <g>
  <rect height="20.1848" opacity="0" width="20.5381" x="0" y="0"/>
  <path d="M10.0875 20.175C15.6576 20.175 20.1767 15.6559 20.1767 10.0875C20.1767 4.51914 15.6576 0 10.0875 0C4.51914 0 0 4.51914 0 10.0875C0 15.6559 4.51914 20.175 10.0875 20.175ZM10.0875 18.1879C5.60839 18.1879 1.9871 14.5666 1.9871 10.0875C1.9871 5.60839 5.60839 1.9871 10.0875 1.9871C14.5666 1.9871 18.1897 5.60839 18.1897 10.0875C18.1897 14.5666 14.5666 18.1879 10.0875 18.1879Z" fill="white" fill-opacity="0.85"/>
  <path d="M4.94452 9.95683C5.39023 9.36835 5.9078 8.84823 6.49901 8.39374C6.49101 7.9787 6.2496 7.32733 5.83534 7.20761C5.2955 7.99062 4.94296 9.08495 4.94452 9.95683ZM7.11308 7.95624C7.25351 7.86738 7.39569 7.78027 7.54941 7.69941C7.44823 6.85487 7.4705 6.1455 7.62284 5.58066C7.10448 5.87011 6.63144 6.24648 6.23554 6.6912C6.70937 6.84492 7.00038 7.45839 7.11308 7.95624ZM8.15819 7.39589C8.38476 7.28749 8.62382 7.19862 8.85839 7.10976C8.84863 7.02187 8.84863 6.91972 8.84863 6.8123C8.84863 6.05058 9.22851 5.37694 9.88319 4.95253C9.48964 4.96054 8.81933 5.07968 8.32987 5.26191C8.17675 5.73358 8.06581 6.42089 8.15819 7.39589ZM9.52929 6.92519C10.1475 6.75995 10.7977 6.6871 11.4611 6.6871C12.459 6.6871 13.4586 6.87343 14.3305 7.22226C13.5941 6.13905 12.4494 5.33827 11.1271 5.05351C10.0754 5.38925 9.47148 6.04745 9.52929 6.92519ZM5.033 11.0086C5.23163 12.0877 5.78202 13.0611 6.55448 13.7992C6.02304 12.4271 6.37675 10.7443 6.47343 9.28183C5.92108 9.78612 5.44237 10.3508 5.033 11.0086ZM7.16815 8.72206C7.1621 10.968 6.19218 13.3795 8.26581 14.835C8.81288 15.0855 9.4373 15.234 10.0875 15.234C10.3467 15.234 10.6041 15.2242 10.8615 15.1834C8.97265 12.8486 8.01015 10.3621 7.65234 8.40761C7.48534 8.50351 7.32187 8.61366 7.16815 8.72206ZM8.24335 8.08456C8.56386 9.97519 9.5371 12.5789 11.5768 15.0131C12.6756 14.6748 13.6225 13.9793 14.2699 13.0537C14.0535 10.5963 9.99648 9.85019 9.04648 7.75936C8.77109 7.84022 8.50898 7.95663 8.24335 8.08456ZM9.70839 7.55702C10.5508 9.14433 13.9311 9.90175 14.766 12.207C15.0617 11.557 15.2322 10.8467 15.2322 10.0893C15.2322 9.4246 15.0971 8.78749 14.8473 8.20194C13.7846 7.63397 12.6863 7.35175 11.4611 7.35175C10.865 7.35175 10.2769 7.42284 9.70839 7.55702Z" fill="white" fill-opacity="0.85"/>
 </g>
</svg>
