<?xml version="1.0" encoding="UTF-8"?>
<!--Generator: Apple Native CoreSVG 341-->
<!DOCTYPE svg
PUBLIC "-//W3C//DTD SVG 1.1//EN"
       "http://www.w3.org/Graphics/SVG/1.1/DTD/svg11.dtd">
<svg version="1.1" xmlns="http://www.w3.org/2000/svg" xmlns:xlink="http://www.w3.org/1999/xlink" viewBox="0 0 20.5381 20.1848">
 <g>
  <rect height="20.1848" opacity="0" width="20.5381" x="0" y="0"/>
  <path d="M20.1767 10.0875C20.1767 15.6478 15.6576 20.175 10.0875 20.175C4.52715 20.175 0 15.6478 0 10.0875C0 4.51914 4.52715 0 10.0875 0C15.6576 0 20.1767 4.51914 20.1767 10.0875ZM7.06269 8.66972C7.05487 11.0043 6.05038 13.509 8.21445 15.0264C8.78281 15.2867 9.42226 15.4369 10.0955 15.4369C10.368 15.4369 10.6369 15.4271 10.9076 15.3828C8.93632 12.9594 7.93749 10.3789 7.56816 8.34198C7.3914 8.4494 7.22616 8.56132 7.06269 8.66972ZM8.18573 8.00741C8.51952 9.97695 9.52734 12.6746 11.6494 15.2027C12.7828 14.8529 13.7643 14.1326 14.441 13.1742C14.2211 10.6193 10.0062 9.83867 9.01191 7.67069C8.73476 7.76132 8.46112 7.87773 8.18573 8.00741ZM4.84159 11.0537C5.05351 12.1709 5.62694 13.1869 6.42421 13.9463C5.88573 12.5281 6.2412 10.7779 6.33964 9.25604C5.76601 9.78339 5.2705 10.3711 4.84159 11.0537ZM9.71015 7.46483C10.5791 9.10976 14.0941 9.89199 14.9539 12.2894C15.2629 11.6164 15.4432 10.8795 15.4432 10.0893C15.4432 9.40507 15.3 8.74315 15.0484 8.13807C13.9396 7.5453 12.7935 7.24804 11.517 7.24804C10.9014 7.24804 10.292 7.32265 9.71015 7.46483ZM4.7496 9.95233C5.21835 9.33905 5.75097 8.8039 6.36874 8.32636C6.36073 7.85273 6.10605 7.22187 5.67499 7.09238C5.12187 7.9037 4.74804 9.0539 4.7496 9.95233ZM6.09023 6.55917C6.58886 6.71288 6.89315 7.35292 7.00761 7.87382C7.15605 7.78671 7.29999 7.68808 7.46171 7.60722C7.35253 6.72812 7.38281 5.99218 7.53866 5.40078C6.99726 5.70351 6.50917 6.0914 6.09023 6.55917ZM8.27577 5.0705C8.11737 5.56073 7.99667 6.27909 8.09882 7.29218C8.32714 7.18027 8.57421 7.08515 8.81855 6.99452C8.80878 6.90487 8.80878 6.80273 8.80878 6.68378C8.80878 5.8955 9.2037 5.19706 9.88671 4.7496C9.34999 4.77363 8.77851 4.89277 8.27577 5.0705ZM9.51777 6.80644C10.159 6.63144 10.8322 6.55859 11.517 6.55859C12.5644 6.55859 13.6004 6.74843 14.5086 7.11855C13.7475 5.98749 12.5584 5.15214 11.1865 4.85409C10.0629 5.21738 9.49374 5.81405 9.51777 6.80644Z" fill="white" fill-opacity="0.85"/>
 </g>
</svg>
