<?xml version="1.0" encoding="UTF-8"?>
<!--Generator: Apple Native CoreSVG 341-->
<!DOCTYPE svg
PUBLIC "-//W3C//DTD SVG 1.1//EN"
       "http://www.w3.org/Graphics/SVG/1.1/DTD/svg11.dtd">
<svg version="1.1" xmlns="http://www.w3.org/2000/svg" xmlns:xlink="http://www.w3.org/1999/xlink" viewBox="0 0 26.7726 15.9535">
 <g>
  <rect height="15.9535" opacity="0" width="26.7726" x="0" y="0"/>
  <path d="M0 2.16796C0 3.3912 0.944723 4.32616 2.15644 4.32616L24.2531 4.32616C25.4631 4.32616 26.4113 3.3912 26.4113 2.16796C26.4113 0.928708 25.4631 0 24.2531 0L2.15644 0C0.944723 0 0 0.928708 0 2.16796ZM1.79882 2.16796C1.79882 1.90507 1.99687 1.71503 2.27577 1.71503L24.132 1.71503C24.4109 1.71503 24.609 1.90507 24.609 2.16796C24.609 2.42284 24.4109 2.61288 24.132 2.61288L2.27577 2.61288C1.99687 2.61288 1.79882 2.42284 1.79882 2.16796ZM7.53397 13.499L18.8836 13.499C22.6732 13.499 24.6619 11.623 24.6619 8.00917L24.6619 3.33359L22.7891 3.33359L22.7891 8.00917C22.7891 10.4199 21.4851 11.6279 18.8836 11.6279L7.53397 11.6279C4.9244 11.6279 3.62225 10.4199 3.62225 8.00917L3.62225 3.33359L1.74941 3.33359L1.74941 8.00917C1.74941 11.623 3.73632 13.499 7.53397 13.499ZM4.72851 15.7471C5.208 15.9314 5.75487 15.6681 5.92948 15.1904L6.81229 12.7496L5.05292 12.1088L4.17187 14.5461C3.99551 15.0273 4.24902 15.5805 4.72851 15.7471ZM21.689 15.7471C22.165 15.584 22.414 15.0273 22.2394 14.5478L21.3566 12.1088L19.5973 12.7496L20.4801 15.1904C20.6547 15.6681 21.2015 15.9314 21.689 15.7471Z" fill="white" fill-opacity="0.85"/>
 </g>
</svg>
