<?xml version="1.0" encoding="UTF-8"?>
<!--Generator: Apple Native CoreSVG 341-->
<!DOCTYPE svg
PUBLIC "-//W3C//DTD SVG 1.1//EN"
       "http://www.w3.org/Graphics/SVG/1.1/DTD/svg11.dtd">
<svg version="1.1" xmlns="http://www.w3.org/2000/svg" xmlns:xlink="http://www.w3.org/1999/xlink" viewBox="0 0 23.4906 16.9976">
 <g>
  <rect height="16.9976" opacity="0" width="23.4906" x="0" y="0"/>
  <path d="M3.20351 16.9976L19.9258 16.9976C22.0416 16.9976 23.1293 15.91 23.1293 13.8262L23.1293 5.73476C23.1293 3.65722 22.0416 2.57129 19.9258 2.57129L18.8998 2.57129L18.8998 1.34003C18.8998 0.509959 18.4191 0.00976562 17.5828 0.00976562L15.7879 0.00976562C14.9613 0.00976562 14.4807 0.509959 14.4807 1.34003L14.4807 2.57129L8.65663 2.57129L8.65663 1.34003C8.65663 0.509959 8.17597 0.00976562 7.33965 0.00976562L5.54648 0.00976562C4.71015 0.00976562 4.22949 0.509959 4.22949 1.34003L4.22949 2.57129L3.20351 2.57129C1.0957 2.57129 0 3.64921 0 5.73476L0 13.8262C0 15.918 1.0957 16.9976 3.20351 16.9976Z" fill="white" fill-opacity="0.85"/>
 </g>
</svg>
