<?xml version="1.0" encoding="UTF-8"?>
<!--Generator: Apple Native CoreSVG 341-->
<!DOCTYPE svg
PUBLIC "-//W3C//DTD SVG 1.1//EN"
       "http://www.w3.org/Graphics/SVG/1.1/DTD/svg11.dtd">
<svg version="1.1" xmlns="http://www.w3.org/2000/svg" xmlns:xlink="http://www.w3.org/1999/xlink" viewBox="0 0 28.8166 22.1355">
 <g>
  <rect height="22.1355" opacity="0" width="28.8166" x="0" y="0"/>
  <path d="M28.4553 11.1021L28.4553 20.5377C28.4553 21.4517 27.8758 21.9902 26.9012 21.9902L7.7205 21.9902C6.77426 21.9902 6.21221 21.4784 6.20963 20.6082L26.5547 20.6082C26.8797 20.6082 27.0652 20.4387 27.0652 20.1039L27.0652 9.72285C27.9365 9.7615 28.4553 10.2641 28.4553 11.1021Z" fill="white" fill-opacity="0.85"/>
  <path d="M25.8111 7.64276L25.8111 17.884C25.8111 18.8103 25.2228 19.3541 24.2412 19.3541L4.53046 19.3541C3.56328 19.3541 2.99199 18.8344 2.99199 17.948L2.99199 17.8461L23.7828 17.8461C24.1096 17.8461 24.2951 17.6766 24.2951 17.3418L24.2951 6.24221C25.2425 6.24441 25.8111 6.76648 25.8111 7.64276Z" fill="white" fill-opacity="0.85"/>
  <path d="M3.20351 16.3803L19.632 16.3803C22.1211 16.3803 22.8373 15.659 22.8373 13.2088L22.8373 5.30937C22.8373 3.29589 21.7361 2.22754 19.6961 2.22754L18.8482 2.22754L18.8482 1.18652C18.8482 0.439842 18.4119 0 17.667 0L15.7553 0C15.0086 0 14.5785 0.439842 14.5785 1.18652L14.5785 2.22754L8.26757 2.22754L8.26757 1.18652C8.26757 0.439842 7.83925 0 7.08457 0L5.17109 0C4.42792 0 3.99785 0.439842 3.99785 1.18652L3.99785 2.22754L3.20351 2.22754C1.0957 2.22754 0 3.31523 0 5.39901L0 13.2088C0 15.3006 1.0957 16.3803 3.20351 16.3803ZM3.31444 14.467C2.40643 14.467 1.91327 13.9906 1.91327 13.048L1.91327 5.55975C1.91327 4.61717 2.42245 4.1408 3.31444 4.1408L19.5051 4.1408C20.3963 4.1408 20.916 4.63651 20.916 5.56503L20.916 13.0955C20.916 14.1523 20.6147 14.467 19.5588 14.467Z" fill="white" fill-opacity="0.85"/>
 </g>
</svg>
