<?xml version="1.0" encoding="UTF-8"?>
<!--Generator: Apple Native CoreSVG 341-->
<!DOCTYPE svg
PUBLIC "-//W3C//DTD SVG 1.1//EN"
       "http://www.w3.org/Graphics/SVG/1.1/DTD/svg11.dtd">
<svg version="1.1" xmlns="http://www.w3.org/2000/svg" xmlns:xlink="http://www.w3.org/1999/xlink" viewBox="0 0 20.291 23.2792">
 <g>
  <rect height="23.2792" opacity="0" width="20.291" x="0" y="0"/>
  <path d="M0.0719441 8.02105C-0.142704 8.62515 0.147334 9.15444 0.619012 9.32554C0.996548 9.46382 1.34674 9.32085 1.73775 9.08413C2.54557 8.51245 3.31959 8.26694 4.23327 8.5976C5.14519 8.92553 5.53601 9.61069 5.74343 10.6099C5.82741 10.9886 5.97624 11.2744 6.30612 11.3958C6.64323 11.5218 6.94557 11.3957 7.25494 11.1693C7.75651 10.7468 8.42976 10.5298 9.07097 10.5583L4.903 21.9796C4.71862 22.4787 4.9819 23.0398 5.48717 23.2242C5.97643 23.4005 6.54732 23.139 6.7317 22.64L10.8917 11.2152C11.3942 11.6109 11.7589 12.2103 11.8717 12.8578C11.9717 13.2152 12.1143 13.5142 12.4469 13.6304C12.7813 13.7519 13.0801 13.616 13.3913 13.3958C14.1965 12.7632 14.9251 12.4894 15.837 12.8156C16.7489 13.156 17.1913 13.8386 17.4364 14.8093C17.5971 15.2378 17.761 15.5705 18.1403 15.7025C18.6137 15.8736 19.1928 15.6556 19.3977 15.0515C20.7171 11.4353 19.8212 5.33999 13.9915 2.68433L14.4764 1.36187C14.6723 0.803275 14.4411 0.27945 13.902 0.0790606C13.379-0.113321 12.8534 0.144685 12.6512 0.697026L12.1743 2.02574C6.00417 0.306205 1.39128 4.38531 0.0719441 8.02105ZM2.71919 6.84078C4.3231 4.50464 7.2319 3.03744 10.4626 3.51889C8.99402 4.52417 7.58229 6.22632 6.64518 8.41363C6.25807 7.71617 5.6444 7.2232 4.84147 6.93902C4.12604 6.68218 3.42838 6.64234 2.71919 6.84078ZM7.97272 8.97222C9.07194 6.43823 10.8784 4.64819 12.4827 3.9769C13.2966 5.52768 13.5307 8.05386 12.7409 10.7191C12.2739 9.94898 11.5075 9.32281 10.6557 9.00484C9.80397 8.69488 8.81725 8.6896 7.97272 8.97222ZM14.1118 11.1324C14.8067 8.8519 14.8217 6.65131 14.3462 4.93256C17.1188 6.64506 18.4024 9.63765 18.1227 12.4486C17.7114 11.8476 17.1454 11.4236 16.4477 11.1587C15.6448 10.8701 14.8544 10.847 14.1118 11.1324Z" fill="white" fill-opacity="0.85"/>
 </g>
</svg>
