<?xml version="1.0" encoding="UTF-8"?>
<!--Generator: Apple Native CoreSVG 341-->
<!DOCTYPE svg
PUBLIC "-//W3C//DTD SVG 1.1//EN"
       "http://www.w3.org/Graphics/SVG/1.1/DTD/svg11.dtd">
<svg version="1.1" xmlns="http://www.w3.org/2000/svg" xmlns:xlink="http://www.w3.org/1999/xlink" viewBox="0 0 25.4889 16.8984">
 <g>
  <rect height="16.8984" opacity="0" width="25.4889" x="0" y="0"/>
  <path d="M0.858202 16.8806L1.46347 16.8806C1.97734 16.8806 2.32168 16.5478 2.32168 16.0242L2.32168 14.614C2.43086 14.6451 2.77246 14.6664 3.02089 14.6664L22.1066 14.6664C22.3551 14.6664 22.6967 14.6451 22.8058 14.614L22.8058 16.0242C22.8058 16.5478 23.1502 16.8806 23.664 16.8806L24.2693 16.8806C24.7894 16.8806 25.1275 16.5478 25.1275 16.0242L25.1275 9.19765C25.1275 7.2621 24.0732 6.22109 22.1307 6.22109L2.99687 6.22109C1.05605 6.22109 0 7.2621 0 9.19765L0 16.0242C0 16.5478 0.338085 16.8806 0.858202 16.8806ZM2.20097 13.0191C1.98183 13.0191 1.85136 12.8709 1.85136 12.6242L1.85136 9.06092C1.85136 8.33631 2.32909 7.86834 3.0662 7.86834L22.0693 7.86834C22.7984 7.86834 23.2762 8.33631 23.2762 9.06092L23.2762 12.6242C23.2762 12.8709 23.1457 13.0191 22.9266 13.0191ZM2.52852 6.54042L5.15137 6.54042L5.15137 4.42324C5.15137 3.48515 5.66972 2.97656 6.62558 2.97656L10.1271 2.97656C11.075 2.97656 11.5934 3.48515 11.5934 4.42324L11.5934 6.54042L13.5342 6.54042L13.5342 4.42324C13.5342 3.48515 14.0525 2.97656 15.0004 2.97656L18.5019 2.97656C19.4578 2.97656 19.9762 3.48515 19.9762 4.42324L19.9762 6.54042L22.599 6.54042L22.599 2.8082C22.599 0.957616 21.6058 0 19.79 0L5.3375 0C3.52969 0 2.52852 0.957616 2.52852 2.8082Z" fill="white" fill-opacity="0.85"/>
 </g>
</svg>
