<?xml version="1.0" encoding="UTF-8"?>
<!--Generator: Apple Native CoreSVG 341-->
<!DOCTYPE svg
PUBLIC "-//W3C//DTD SVG 1.1//EN"
       "http://www.w3.org/Graphics/SVG/1.1/DTD/svg11.dtd">
<svg version="1.1" xmlns="http://www.w3.org/2000/svg" xmlns:xlink="http://www.w3.org/1999/xlink" viewBox="0 0 20.5381 20.1848">
 <g>
  <rect height="20.1848" opacity="0" width="20.5381" x="0" y="0"/>
  <path d="M20.1767 10.0875C20.1767 15.6559 15.6576 20.175 10.0875 20.175C4.51914 20.175 0 15.6559 0 10.0875C0 4.51914 4.51914 0 10.0875 0C15.6576 0 20.1767 4.51914 20.1767 10.0875ZM1.9871 10.0875C1.9871 14.5666 5.60839 18.1879 10.0875 18.1879C14.5666 18.1879 18.1897 14.5666 18.1897 10.0875C18.1897 5.60839 14.5666 1.9871 10.0875 1.9871C5.60839 1.9871 1.9871 5.60839 1.9871 10.0875Z" fill="white" fill-opacity="0.85"/>
  <path d="M10.0875 15.7896C9.15898 15.7896 8.48437 15.1353 8.41953 14.3426L11.7572 14.3426C11.7004 15.1353 11.0178 15.7896 10.0875 15.7896ZM11.8488 13.5197L5.87323 13.5197C5.3373 13.5197 5.02148 13.2279 5.02148 12.8066C5.02148 12.2475 5.54121 11.784 6.00546 11.3088C6.37558 10.9438 6.45195 10.1846 6.51835 9.50957C6.53307 9.0801 6.57203 8.67891 6.63994 8.31083ZM11.6527 5.67499C13.0187 6.17773 13.5877 7.54902 13.6664 9.50957C13.7266 10.1846 13.7932 10.9438 14.1713 11.3088C14.6516 11.7742 15.1553 12.2475 15.1553 12.8066C15.1553 12.9976 15.09 13.162 14.9691 13.2842L7.77679 6.09858C7.99232 5.92044 8.24116 5.7791 8.52402 5.67499C8.7539 4.99042 9.3123 4.45214 10.0875 4.45214C10.8644 4.45214 11.4291 4.99042 11.6527 5.67499Z" fill="white" fill-opacity="0.85"/>
  <path d="M14.065 14.7355C14.2486 14.9174 14.568 14.9271 14.7516 14.7355C14.9449 14.5439 14.9449 14.2406 14.7516 14.0473L6.14549 5.43319C5.94413 5.23983 5.63905 5.23983 5.44745 5.43319C5.25409 5.62479 5.25409 5.93612 5.44745 6.11971Z" fill="white" fill-opacity="0.85"/>
 </g>
</svg>
