<?xml version="1.0" encoding="UTF-8"?>
<!--Generator: Apple Native CoreSVG 341-->
<!DOCTYPE svg
PUBLIC "-//W3C//DTD SVG 1.1//EN"
       "http://www.w3.org/Graphics/SVG/1.1/DTD/svg11.dtd">
<svg version="1.1" xmlns="http://www.w3.org/2000/svg" xmlns:xlink="http://www.w3.org/1999/xlink" viewBox="0 0 18.5894 18.2316">
 <g>
  <rect height="18.2316" opacity="0" width="18.5894" x="0" y="0"/>
  <path d="M18.2281 3.17148L18.2281 15.0646C18.2281 17.1502 17.1404 18.2281 15.0246 18.2281L3.20351 18.2281C1.0957 18.2281 0 17.1502 0 15.0646L0 3.17148C0 1.08769 1.0957 0 3.20351 0L15.0246 0C17.1404 0 18.2281 1.08769 18.2281 3.17148ZM7.41543 13.5309C7.48027 14.3519 8.18144 15.0391 9.14804 15.0391C10.1146 15.0391 10.8238 14.3519 10.8887 13.5309ZM7.52167 4.52031C6.0998 5.04433 5.50429 6.46972 5.43535 8.51192C5.37343 9.21074 5.2873 9.99297 4.9039 10.3713C4.41836 10.8598 3.88359 11.3445 3.88359 11.9285C3.88359 12.3666 4.21445 12.6734 4.77695 12.6734L13.5271 12.6734C14.0799 12.6734 14.4125 12.3666 14.4125 11.9285C14.4125 11.3445 13.8937 10.8518 13.3904 10.3713C13.0008 9.99297 12.9324 9.21074 12.8687 8.51192C12.7963 6.46972 12.1963 5.04433 10.7744 4.52031C10.5393 3.80742 9.95605 3.25136 9.14804 3.25136C8.33827 3.25136 7.76484 3.80742 7.52167 4.52031Z" fill="white" fill-opacity="0.85"/>
 </g>
</svg>
