<?xml version="1.0" encoding="UTF-8"?>
<!--Generator: Apple Native CoreSVG 341-->
<!DOCTYPE svg
PUBLIC "-//W3C//DTD SVG 1.1//EN"
       "http://www.w3.org/Graphics/SVG/1.1/DTD/svg11.dtd">
<svg version="1.1" xmlns="http://www.w3.org/2000/svg" xmlns:xlink="http://www.w3.org/1999/xlink" viewBox="0 0 36.141 20.7957">
 <g>
  <rect height="20.7957" opacity="0" width="36.141" x="0" y="0"/>
  <path d="M3.86796 17.0674C4.1998 16.6842 4.09687 16.1918 3.72597 15.7721C2.45429 14.3609 1.74296 12.4662 1.74296 10.393C1.74296 8.32148 2.45253 6.42499 3.72597 5.01562C4.09863 4.59589 4.20332 4.10351 3.86796 3.72031C3.52734 3.31406 2.92949 3.29922 2.49863 3.76738C0.910938 5.48125 0 7.85839 0 10.393C0 12.931 0.886329 15.2844 2.49863 17.0203C2.93301 17.4867 3.5291 17.4674 3.86796 17.0674ZM31.9117 17.0674C32.2506 17.4674 32.8466 17.4867 33.281 17.0203C34.8951 15.2844 35.7796 12.931 35.7796 10.393C35.7796 7.85839 34.8705 5.48125 33.281 3.76738C32.8519 3.29922 32.2541 3.31406 31.9117 3.72031C31.5781 4.10351 31.681 4.59589 32.0554 5.01562C33.3271 6.42499 34.0367 8.32148 34.0367 10.393C34.0367 12.4662 33.3254 14.3609 32.0554 15.7721C31.6845 16.1918 31.5798 16.6842 31.9117 17.0674Z" fill="white" fill-opacity="0.85"/>
  <path d="M6.71659 14.2684C7.03964 13.8887 6.9162 13.4176 6.59316 12.9783C6.05292 12.2951 5.76796 11.3576 5.76796 10.393C5.76796 9.42831 6.05292 8.48105 6.59316 7.80409C6.91444 7.36659 7.03964 6.89726 6.71659 6.51581C6.37323 6.10605 5.73105 6.09902 5.33476 6.57714C4.49746 7.59316 4.025 8.94511 4.025 10.393C4.025 11.8408 4.49746 13.1928 5.33476 14.2053C5.73105 14.6852 6.37323 14.6701 6.71659 14.2684ZM29.0568 14.2684C29.4064 14.6701 30.0406 14.6852 30.4449 14.2053C31.2839 13.1928 31.7547 11.8408 31.7547 10.393C31.7547 8.94511 31.2839 7.59316 30.4449 6.57714C30.0406 6.09902 29.4064 6.10605 29.0568 6.51581C28.74 6.89726 28.8652 7.36659 29.1865 7.80409C29.7187 8.48105 30.0117 9.42831 30.0117 10.393C30.0117 11.3576 29.7187 12.2951 29.1865 12.9783C28.8634 13.4176 28.74 13.8887 29.0568 14.2684Z" fill="white" fill-opacity="0.85"/>
  <path d="M10.0926 16.7742L25.6871 16.7742C26.6824 16.7742 27.3006 16.2334 27.3006 15.4186C27.3006 14.391 26.3484 13.5051 25.4804 12.6588C24.799 11.9938 24.6338 10.5947 24.5099 9.32052C24.3748 5.7252 23.3242 3.19277 20.7898 2.27813C20.3888 0.988282 19.332 0.00175774 17.8867 0.00175774C16.4476 0.00175774 15.3828 0.988282 14.9898 2.27813C12.4555 3.19277 11.4066 5.7252 11.2697 9.32052C11.1459 10.5947 10.9824 11.9938 10.2992 12.6588C9.42323 13.5051 8.47909 14.391 8.47909 15.4186C8.47909 16.2334 9.08924 16.7742 10.0926 16.7742ZM17.8867 20.7957C19.6119 20.7957 20.8738 19.5601 20.9972 18.1402L14.7824 18.1402C14.9076 19.5601 16.1678 20.7957 17.8867 20.7957Z" fill="white" fill-opacity="0.85"/>
 </g>
</svg>
