<?xml version="1.0" encoding="UTF-8"?>
<!--Generator: Apple Native CoreSVG 341-->
<!DOCTYPE svg
PUBLIC "-//W3C//DTD SVG 1.1//EN"
       "http://www.w3.org/Graphics/SVG/1.1/DTD/svg11.dtd">
<svg version="1.1" xmlns="http://www.w3.org/2000/svg" xmlns:xlink="http://www.w3.org/1999/xlink" viewBox="0 0 19.1828 20.7957">
 <g>
  <rect height="20.7957" opacity="0" width="19.1828" x="0" y="0"/>
  <path d="M1.61347 16.7742L17.2062 16.7742C18.2015 16.7742 18.8215 16.2334 18.8215 15.4186C18.8215 14.391 17.8693 13.5051 17.0014 12.6588C16.3181 11.9938 16.1547 10.5947 16.0308 9.32052C15.8939 5.7252 14.8451 3.19277 12.3107 2.27813C11.9098 0.988282 10.8529 0.00175774 9.40585 0.00175774C7.96855 0.00175774 6.90371 0.988282 6.51074 2.27813C3.97636 3.19277 2.92578 5.7252 2.79062 9.32052C2.6668 10.5947 2.50156 11.9938 1.82012 12.6588C0.944142 13.5051 0 14.391 0 15.4186C0 16.2334 0.610154 16.7742 1.61347 16.7742ZM9.40585 20.7957C11.1328 20.7957 12.393 19.5601 12.5182 18.1402L6.30332 18.1402C6.42675 19.5601 7.68867 20.7957 9.40585 20.7957Z" fill="white" fill-opacity="0.85"/>
 </g>
</svg>
