<?xml version="1.0" encoding="UTF-8"?>
<!--Generator: Apple Native CoreSVG 341-->
<!DOCTYPE svg
PUBLIC "-//W3C//DTD SVG 1.1//EN"
       "http://www.w3.org/Graphics/SVG/1.1/DTD/svg11.dtd">
<svg version="1.1" xmlns="http://www.w3.org/2000/svg" xmlns:xlink="http://www.w3.org/1999/xlink" viewBox="0 0 36.141 20.4808">
 <g>
  <rect height="20.4808" opacity="0" width="36.141" x="0" y="0"/>
  <path d="M3.86796 16.91C4.1998 16.5268 4.09687 16.0344 3.72597 15.6146C2.45429 14.2035 1.74296 12.3088 1.74296 10.2355C1.74296 8.16406 2.45253 6.26757 3.72597 4.85819C4.09863 4.43847 4.20332 3.94609 3.86796 3.56288C3.52734 3.15664 2.92949 3.14179 2.49863 3.60995C0.910938 5.32382 0 7.70097 0 10.2355C0 12.7736 0.886329 15.1269 2.49863 16.8629C2.93301 17.3293 3.5291 17.31 3.86796 16.91ZM31.9117 16.91C32.2506 17.31 32.8466 17.3293 33.281 16.8629C34.8951 15.1269 35.7796 12.7736 35.7796 10.2355C35.7796 7.70097 34.8705 5.32382 33.281 3.60995C32.8519 3.14179 32.2541 3.15664 31.9117 3.56288C31.5781 3.94609 31.681 4.43847 32.0554 4.85819C33.3271 6.26757 34.0367 8.16406 34.0367 10.2355C34.0367 12.3088 33.3254 14.2035 32.0554 15.6146C31.6845 16.0344 31.5798 16.5268 31.9117 16.91Z" fill="white" fill-opacity="0.85"/>
  <path d="M6.71659 14.1109C7.03964 13.7312 6.9162 13.2602 6.59316 12.8209C6.05292 12.1377 5.76796 11.2002 5.76796 10.2355C5.76796 9.27089 6.05292 8.32362 6.59316 7.64667C6.91444 7.20917 7.03964 6.73984 6.71659 6.35839C6.37323 5.94863 5.73105 5.9416 5.33476 6.41972C4.49746 7.43574 4.025 8.78769 4.025 10.2355C4.025 11.6834 4.49746 13.0353 5.33476 14.0478C5.73105 14.5277 6.37323 14.5127 6.71659 14.1109ZM29.0568 14.1109C29.4064 14.5127 30.0406 14.5277 30.4449 14.0478C31.2839 13.0353 31.7547 11.6834 31.7547 10.2355C31.7547 8.78769 31.2839 7.43574 30.4449 6.41972C30.0406 5.9416 29.4064 5.94863 29.0568 6.35839C28.74 6.73984 28.8652 7.20917 29.1865 7.64667C29.7187 8.32362 30.0117 9.27089 30.0117 10.2355C30.0117 11.2002 29.7187 12.1377 29.1865 12.8209C28.8634 13.2602 28.74 13.7312 29.0568 14.1109Z" fill="white" fill-opacity="0.85"/>
  <path d="M8.41581 15.5152C8.41581 16.3424 9.033 16.8885 10.0486 16.8885L14.0678 16.8885C14.1459 18.7662 15.6715 20.4711 17.8867 20.4711C20.1082 20.4711 21.6355 18.7742 21.7119 16.8885L25.731 16.8885C26.7404 16.8885 27.3638 16.3424 27.3638 15.5152C27.3638 14.4771 26.4064 13.5877 25.5297 12.7344C24.8412 12.0623 24.6742 10.716 24.5486 9.37149C24.4205 5.67149 23.3488 3.20332 20.7951 2.2834C20.4226 0.981251 19.3443 0 17.8867 0C16.4353 0 15.349 0.981251 14.9846 2.2834C12.4308 3.20332 11.3592 5.67149 11.231 9.37149C11.1055 10.716 10.9385 12.0623 10.25 12.7344C9.36523 13.5877 8.41581 14.4771 8.41581 15.5152ZM10.7463 15.1027L10.7463 14.9891C10.9959 14.7111 11.5642 14.1877 12.0439 13.6389C12.7172 12.8682 13.0334 11.4625 13.1353 9.60918C13.2451 5.64218 14.4636 4.32343 16.0369 3.89257C16.2758 3.83573 16.4107 3.72382 16.4293 3.45233C16.4744 2.46132 17.0304 1.79237 17.8867 1.79237C18.7492 1.79237 19.2972 2.46132 19.3504 3.45233C19.3689 3.72382 19.4976 3.83573 19.7428 3.89257C21.316 4.32343 22.5346 5.64218 22.6443 9.60918C22.7463 11.4625 23.0678 12.8682 23.7277 13.6389C24.2137 14.1877 24.7564 14.7111 25.006 14.9891L25.006 15.1027ZM15.9094 16.8885L19.8703 16.8885C19.8037 18.1199 18.998 18.9043 17.8867 18.9043C16.7816 18.9043 15.976 18.1199 15.9094 16.8885Z" fill="white" fill-opacity="0.85"/>
 </g>
</svg>
