<?xml version="1.0" encoding="UTF-8"?>
<!--Generator: Apple Native CoreSVG 341-->
<!DOCTYPE svg
PUBLIC "-//W3C//DTD SVG 1.1//EN"
       "http://www.w3.org/Graphics/SVG/1.1/DTD/svg11.dtd">
<svg version="1.1" xmlns="http://www.w3.org/2000/svg" xmlns:xlink="http://www.w3.org/1999/xlink" viewBox="0 0 36.2554 17.7664">
 <g>
  <rect height="17.7664" opacity="0" width="36.2554" x="0" y="0"/>
  <path d="M3.86796 15.5527C4.1998 15.1695 4.09687 14.6771 3.72597 14.2574C2.45429 12.8463 1.74296 10.9516 1.74296 8.87831C1.74296 6.80682 2.45078 4.9121 3.72597 3.50096C4.09863 3.08123 4.20332 2.58885 3.86796 2.20565C3.52734 1.7994 2.92949 1.78456 2.49863 2.25272C0.910938 3.96659 0 6.34374 0 8.87831C0 11.4164 0.886329 13.7697 2.49863 15.5057C2.93301 15.9721 3.5291 15.9527 3.86796 15.5527ZM32.0261 15.5562C32.365 15.958 32.9611 15.9756 33.3955 15.5092C35.0095 13.7732 35.8941 11.4199 35.8941 8.88182C35.8941 6.34725 34.9832 3.97011 33.3955 2.258C32.9646 1.78808 32.3668 1.80292 32.0261 2.21092C31.6908 2.59413 31.7955 3.08475 32.1681 3.50448C33.4433 4.91737 34.1511 6.81034 34.1511 8.88182C34.1511 10.9551 33.4398 12.8498 32.1681 14.2627C31.7972 14.6824 31.6943 15.173 32.0261 15.5562Z" fill="white" fill-opacity="0.85"/>
  <path d="M6.71659 12.7537C7.03964 12.374 6.9162 11.9029 6.59316 11.4637C6.05292 10.7805 5.76796 9.84296 5.76796 8.87831C5.76796 7.91366 6.05292 6.96639 6.59316 6.28944C6.91444 5.85194 7.03964 5.3826 6.71659 5.00116C6.37323 4.59139 5.73105 4.58436 5.33476 5.06249C4.49746 6.0785 4.025 7.43046 4.025 8.87831C4.025 10.3262 4.49746 11.6781 5.33476 12.6906C5.73105 13.1705 6.37323 13.1555 6.71659 12.7537ZM29.1775 12.759C29.5209 13.1607 30.1631 13.174 30.5593 12.6959C31.3966 11.6816 31.8691 10.3297 31.8691 8.88182C31.8691 7.43397 31.3966 6.08202 30.5593 5.06776C30.1631 4.58788 29.5209 4.59667 29.1775 5.00643C28.8545 5.38612 28.9797 5.85545 29.3009 6.29471C29.8412 6.97167 30.1261 7.91717 30.1261 8.88182C30.1261 9.84647 29.8412 10.7857 29.3009 11.4689C28.9779 11.9064 28.8545 12.3775 29.1775 12.759Z" fill="white" fill-opacity="0.85"/>
  <path d="M17.9488 17.7556C22.8556 17.7556 26.8306 13.7887 26.8306 8.88182C26.8306 3.97499 22.8556 0 17.9488 0C13.042 0 9.06699 3.97499 9.06699 8.88182C9.06699 13.7887 13.042 17.7556 17.9488 17.7556ZM17.9488 15.8617C14.0887 15.8617 10.9609 12.742 10.9609 8.88182C10.9609 5.02167 14.0887 1.89569 17.9488 1.89569C21.8072 1.89569 24.9349 5.02167 24.9349 8.88182C24.9349 12.742 21.8072 15.8617 17.9488 15.8617Z" fill="white" fill-opacity="0.85"/>
  <path d="M14.324 12.1769C15.6017 12.1769 16.6308 11.1381 16.6308 9.86034C16.6308 8.5826 15.6017 7.54374 14.324 7.54374C13.0445 7.54374 12.0074 8.5826 12.0074 9.86034C12.0074 11.1381 13.0445 12.1769 14.324 12.1769ZM14.332 11.4537C13.4332 11.4537 12.7209 10.7414 12.7209 9.85057C12.7209 8.96151 13.4332 8.2492 14.332 8.2492C15.2113 8.2492 15.9254 8.96952 15.9254 9.85057C15.9254 10.7414 15.2113 11.4537 14.332 11.4537ZM14.324 10.4205C14.64 10.4205 14.8877 10.1728 14.8877 9.84882C14.8877 9.54081 14.64 9.28514 14.324 9.28514C14.008 9.28514 13.7523 9.54081 13.7523 9.84882C13.7523 10.1728 14.008 10.4205 14.324 10.4205ZM21.5959 12.1769C22.8754 12.1769 23.9125 11.1381 23.9125 9.86034C23.9125 8.5826 22.8754 7.54374 21.5959 7.54374C20.3181 7.54374 19.2793 8.5826 19.2793 9.86034C19.2793 11.1381 20.3181 12.1769 21.5959 12.1769ZM21.6039 11.4537C20.7068 11.4537 19.9945 10.7414 19.9945 9.85057C19.9945 8.96151 20.7068 8.2492 21.6039 8.2492C22.4867 8.2492 23.199 8.96952 23.199 9.85057C23.199 10.7414 22.4867 11.4537 21.6039 11.4537ZM21.6039 10.4205C21.9119 10.4205 22.1676 10.1728 22.1676 9.84882C22.1676 9.54081 21.9119 9.28514 21.6039 9.28514C21.2799 9.28514 21.0322 9.54081 21.0322 9.84882C21.0322 10.1728 21.2799 10.4205 21.6039 10.4205ZM15.1056 6.19764L16.6543 6.19764C16.8469 6.19764 17.0119 6.03436 17.0119 5.84979C17.0119 5.65546 16.8566 5.49393 16.6543 5.49393L15.1056 5.49393C14.9113 5.49393 14.7578 5.64745 14.7578 5.84979C14.7578 6.03612 14.9113 6.19764 15.1056 6.19764ZM14.2158 9.44784L14.7775 9.85429L16.5351 7.9287L17.3463 9.39374L16.4027 9.39374L16.4027 10.0682L17.4746 10.0682C17.8111 10.0682 17.9736 9.98026 18.1529 9.77968L20.2045 7.38885L21.1734 9.77792L21.807 9.49218L19.9892 5.03963C19.8996 4.82303 19.7771 4.7494 19.5357 4.7494L18.5304 4.7494C18.3281 4.7494 18.1631 4.91268 18.1631 5.10702C18.1631 5.29334 18.3183 5.45487 18.5304 5.45487L19.4178 5.45487L19.9055 6.65506L16.8369 7.0494L16.2189 5.94217L15.5099 6.10467L16.1482 7.24276ZM17.2043 7.71229L19.3738 7.32948L17.931 9.00058Z" fill="white" fill-opacity="0.85"/>
 </g>
</svg>
