<?xml version="1.0" encoding="UTF-8"?>
<!--Generator: Apple Native CoreSVG 341-->
<!DOCTYPE svg
PUBLIC "-//W3C//DTD SVG 1.1//EN"
       "http://www.w3.org/Graphics/SVG/1.1/DTD/svg11.dtd">
<svg version="1.1" xmlns="http://www.w3.org/2000/svg" xmlns:xlink="http://www.w3.org/1999/xlink" viewBox="0 0 20.5381 20.1848">
 <g>
  <rect height="20.1848" opacity="0" width="20.5381" x="0" y="0"/>
  <path d="M20.1767 10.0973C20.1767 15.6656 15.6576 20.1848 10.0875 20.1848C4.52715 20.1848 0 15.6656 0 10.0973C0 4.53691 4.52715 0.00976562 10.0875 0.00976562C15.6576 0.00976562 20.1767 4.53691 20.1767 10.0973ZM10.7916 5.11718C10.5449 5.11718 10.3488 5.30351 10.3488 5.54042C10.3488 5.78085 10.5352 5.98319 10.7916 5.98319L11.8725 5.98319L12.4561 7.42226L8.74472 7.90273L8.16835 6.86718L8.51601 6.86718C8.74765 6.86718 8.96327 6.67734 8.96327 6.45195C8.96327 6.20703 8.75917 6.01269 8.51601 6.01269L6.64433 6.01269C6.40742 6.01269 6.21308 6.19902 6.21308 6.45195C6.21308 6.68085 6.40742 6.86718 6.64433 6.86718L7.19941 6.86718L7.89726 8.13593L7.19218 8.94765C6.75878 8.6705 6.2455 8.51328 5.69042 8.51328C4.14023 8.51328 2.88124 9.75449 2.88124 11.3127C2.88124 12.8629 4.14023 14.1201 5.69042 14.1201C7.15448 14.1201 8.35663 12.9943 8.48808 11.5596L9.50761 11.5596C9.91425 11.5596 10.1176 11.4584 10.3457 11.209L12.8207 8.31835L13.0668 8.90742C12.2508 9.39394 11.6949 10.2818 11.6949 11.3127C11.6949 12.8629 12.9521 14.1201 14.5023 14.1201C16.0525 14.1201 17.3115 12.8629 17.3115 11.3127C17.3115 9.75449 16.0525 8.51328 14.5023 8.51328C14.282 8.51328 14.0537 8.53105 13.8494 8.59238L12.5699 5.46152C12.4607 5.2121 12.3072 5.11718 12.0072 5.11718ZM6.61191 9.60156L5.72636 10.623C5.29648 10.6113 5.00253 10.9301 5.00253 11.2994C5.00253 11.6953 5.30253 11.9953 5.69843 11.9953C6.07655 11.9953 6.37655 11.6953 6.37655 11.2994C6.37655 11.2506 6.36855 11.192 6.36679 11.1752L7.27382 10.1713C7.49413 10.4893 7.63007 10.8783 7.63007 11.2949C7.63007 12.3855 6.76327 13.2363 5.69843 13.2363C4.62206 13.2363 3.75526 12.3855 3.75526 11.2949C3.75526 10.2266 4.62206 9.35976 5.69843 9.35976C6.02812 9.35976 6.34355 9.45312 6.61191 9.60156ZM16.4553 11.2949C16.4553 12.3855 15.5885 13.2363 14.5184 13.2363C13.4375 13.2363 12.5707 12.3855 12.5707 11.2949C12.5707 10.643 12.9012 10.0736 13.3871 9.7246L13.9023 10.9914C13.8535 11.0828 13.8242 11.1902 13.8242 11.2994C13.8242 11.6953 14.1242 11.9953 14.5184 11.9953C14.8982 11.9953 15.2 11.6953 15.2 11.2994C15.2 10.9727 14.9762 10.7125 14.6822 10.6336L14.1812 9.3998C14.2889 9.37577 14.3947 9.35976 14.5184 9.35976C15.5885 9.35976 16.4553 10.2266 16.4553 11.2949ZM9.35547 10.7344L8.43671 10.7344C8.34706 10.2875 8.14277 9.87265 7.86738 9.53242L8.37734 8.96913ZM10.0635 10.2641L9.18749 8.70312L11.8082 8.24394Z" fill="white" fill-opacity="0.85"/>
 </g>
</svg>
