<?xml version="1.0" encoding="UTF-8"?>
<!--Generator: Apple Native CoreSVG 341-->
<!DOCTYPE svg
PUBLIC "-//W3C//DTD SVG 1.1//EN"
       "http://www.w3.org/Graphics/SVG/1.1/DTD/svg11.dtd">
<svg version="1.1" xmlns="http://www.w3.org/2000/svg" xmlns:xlink="http://www.w3.org/1999/xlink" viewBox="0 0 20.5381 20.1848">
 <g>
  <rect height="20.1848" opacity="0" width="20.5381" x="0" y="0"/>
  <path d="M10.0875 20.175C15.6576 20.175 20.1767 15.6559 20.1767 10.0875C20.1767 4.51914 15.6576 0 10.0875 0C4.51914 0 0 4.51914 0 10.0875C0 15.6559 4.51914 20.175 10.0875 20.175ZM10.0875 18.1879C5.60839 18.1879 1.9871 14.5666 1.9871 10.0875C1.9871 5.60839 5.60839 1.9871 10.0875 1.9871C14.5666 1.9871 18.1897 5.60839 18.1897 10.0875C18.1897 14.5666 14.5666 18.1879 10.0875 18.1879Z" fill="white" fill-opacity="0.85"/>
  <path d="M3.87226 12.1791C3.87226 13.534 5.07089 14.5639 6.57577 14.5639C8.07265 14.5639 9.2873 13.534 9.2873 12.1791L9.2873 11.0018C9.51464 10.9191 9.79706 10.8676 10.0795 10.8676C10.3877 10.8676 10.6523 10.9031 10.8734 10.976L10.8734 12.1809C10.8734 13.5357 12.0881 14.5656 13.5769 14.5656C15.0801 14.5656 16.2867 13.5357 16.2867 12.1809C16.2867 11.8283 16.2424 11.491 16.0611 11.0424L14.0877 6.41562C13.8037 5.7457 13.2062 5.35429 12.4518 5.35429C11.4939 5.35429 10.8734 5.97031 10.8734 6.89335L10.8734 7.31484C10.6363 7.24023 10.3699 7.20468 10.0795 7.20468C9.80683 7.20468 9.53417 7.24999 9.2873 7.3291L9.2873 6.89159C9.2873 5.97031 8.66503 5.35253 7.70722 5.35253C6.95449 5.35253 6.35527 5.74218 6.07929 6.4121L4.0996 11.0406C3.91835 11.4875 3.87226 11.8266 3.87226 12.1791ZM4.95546 12.1791C4.95546 11.384 5.60839 10.8447 6.57577 10.8447C7.55742 10.8447 8.22187 11.384 8.22187 12.1791C8.22187 12.9547 7.55742 13.502 6.57577 13.502C5.60839 13.502 4.95546 12.9547 4.95546 12.1791ZM11.9309 12.1809C11.9309 11.3857 12.6016 10.8465 13.5769 10.8465C14.5443 10.8465 15.2053 11.3857 15.2053 12.1809C15.2053 12.9564 14.5443 13.502 13.5769 13.502C12.6016 13.502 11.9309 12.9564 11.9309 12.1809ZM9.28554 9.558L9.28554 8.78261C9.52441 8.708 9.80683 8.66445 10.0795 8.66445C10.3699 8.66445 10.6363 8.7 10.8734 8.76484L10.8734 9.51972C10.6523 9.45488 10.3877 9.41933 10.0795 9.41933C9.79531 9.41933 9.51464 9.46288 9.28554 9.558Z" fill="white" fill-opacity="0.85"/>
 </g>
</svg>
