<?xml version="1.0" encoding="UTF-8"?>
<!--Generator: Apple Native CoreSVG 341-->
<!DOCTYPE svg
PUBLIC "-//W3C//DTD SVG 1.1//EN"
       "http://www.w3.org/Graphics/SVG/1.1/DTD/svg11.dtd">
<svg version="1.1" xmlns="http://www.w3.org/2000/svg" xmlns:xlink="http://www.w3.org/1999/xlink" viewBox="0 0 20.5381 20.1848">
 <g>
  <rect height="20.1848" opacity="0" width="20.5381" x="0" y="0"/>
  <path d="M10.0875 20.175C15.6576 20.175 20.1767 15.6559 20.1767 10.0875C20.1767 4.51914 15.6576 0 10.0875 0C4.51914 0 0 4.51914 0 10.0875C0 15.6559 4.51914 20.175 10.0875 20.175ZM10.0875 18.1879C5.60839 18.1879 1.9871 14.5666 1.9871 10.0875C1.9871 5.60839 5.60839 1.9871 10.0875 1.9871C14.5666 1.9871 18.1897 5.60839 18.1897 10.0875C18.1897 14.5666 14.5666 18.1879 10.0875 18.1879Z" fill="white" fill-opacity="0.85"/>
  <path d="M12.8283 6.96698C12.1383 6.96698 11.6143 7.3498 11.2369 8.26816C9.88984 6.89433 7.7619 5.67929 5.63221 5.51854C5.16444 5.48925 5.10409 5.8371 5.09432 6.10702C4.9371 8.4578 6.78358 10.5074 9.22167 10.699C8.55742 12.2482 7.48984 13.468 6.41894 14.4406C6.23612 14.5889 6.29198 14.824 6.3994 14.9883C6.96405 15.8397 8.70233 16.3738 9.84784 15.9805C10.1123 15.8811 10.1594 15.7488 10.1594 15.542L10.1594 13.8205C11.416 13.7451 13.3602 12.9213 13.098 10.3264L13.0562 9.98867C13.6123 9.84745 14.06 9.58632 14.3344 9.27636L15.6914 9.47616C16.0145 9.51874 16.1822 9.01991 15.8396 8.88769L14.6441 8.38144C14.5518 7.66757 13.7793 6.96698 12.8283 6.96698ZM8.7914 5.75507C9.6412 6.17069 10.4146 6.68046 11.0779 7.23632C11.4047 6.80116 11.7963 6.52851 12.2385 6.41034C11.6408 5.35253 10.8744 4.5621 9.90722 4.00526C9.52734 3.78514 9.14218 3.95116 9.04101 4.36288C8.91132 4.82929 8.82069 5.29042 8.7914 5.75507ZM12.9748 8.31659C12.9748 8.13456 13.1391 7.98183 13.3113 7.98183C13.5014 7.98183 13.6541 8.13456 13.6541 8.31659C13.6541 8.50663 13.5014 8.65136 13.3113 8.65136C13.1391 8.65136 12.9748 8.50663 12.9748 8.31659Z" fill="white" fill-opacity="0.85"/>
 </g>
</svg>
