<?xml version="1.0" encoding="UTF-8"?>
<!--Generator: Apple Native CoreSVG 341-->
<!DOCTYPE svg
PUBLIC "-//W3C//DTD SVG 1.1//EN"
       "http://www.w3.org/Graphics/SVG/1.1/DTD/svg11.dtd">
<svg version="1.1" xmlns="http://www.w3.org/2000/svg" xmlns:xlink="http://www.w3.org/1999/xlink" viewBox="0 0 20.5381 20.1848">
 <g>
  <rect height="20.1848" opacity="0" width="20.5381" x="0" y="0"/>
  <path d="M20.1767 10.0973C20.1767 15.6656 15.6576 20.1848 10.0875 20.1848C4.52715 20.1848 0 15.6656 0 10.0973C0 4.53691 4.52715 0.00976562 10.0875 0.00976562C15.6576 0.00976562 20.1767 4.53691 20.1767 10.0973ZM4.88339 5.97499C4.72616 8.41796 6.64003 10.5402 9.16054 10.7371C8.47324 12.3564 7.36757 13.6045 6.26034 14.6277C6.06601 14.776 6.12362 15.0164 6.23456 15.1842C6.8205 16.0799 8.63319 16.6371 9.82304 16.218C10.099 16.115 10.1478 15.9793 10.1478 15.7609L10.1478 13.9738C11.4541 13.8984 13.4674 13.0543 13.1955 10.3557L13.1519 10.0002C13.7293 9.86523 14.1902 9.59433 14.4762 9.26308L15.8873 9.4664C16.2254 9.51874 16.3949 9.00312 16.0391 8.85312L14.7975 8.33183C14.7051 7.58691 13.898 6.86777 12.9107 6.86777C12.1896 6.86777 11.6506 7.26386 11.2537 8.20703C9.86503 6.78534 7.65468 5.52597 5.44608 5.36171C4.95526 5.32616 4.89315 5.69354 4.88339 5.97499ZM13.7711 8.26698C13.7711 8.46679 13.6068 8.61503 13.415 8.61503C13.233 8.61503 13.067 8.46679 13.067 8.26698C13.067 8.07519 13.233 7.91894 13.415 7.91894C13.6068 7.91894 13.7711 8.07519 13.7711 8.26698ZM8.97988 4.16171C8.84218 4.63964 8.7498 5.12206 8.7205 5.59823C9.60312 6.02714 10.4031 6.55995 11.0912 7.14511C11.4312 6.68242 11.8424 6.39999 12.3014 6.27831C11.6789 5.18593 10.8859 4.36093 9.88593 3.7828C9.49101 3.55917 9.0828 3.72694 8.97988 4.16171Z" fill="white" fill-opacity="0.85"/>
 </g>
</svg>
