<?xml version="1.0" encoding="UTF-8"?>
<!--Generator: Apple Native CoreSVG 341-->
<!DOCTYPE svg
PUBLIC "-//W3C//DTD SVG 1.1//EN"
       "http://www.w3.org/Graphics/SVG/1.1/DTD/svg11.dtd">
<svg version="1.1" xmlns="http://www.w3.org/2000/svg" xmlns:xlink="http://www.w3.org/1999/xlink" viewBox="0 0 22.7515 21.4965">
 <g>
  <rect height="21.4965" opacity="0" width="22.7515" x="0" y="0"/>
  <path d="M12.481 0.359374L20.9545 5.24941C21.351 5.47734 21.5363 5.7664 21.5363 6.09277C21.5363 6.53886 21.1851 6.98046 20.5865 6.98046L19.7447 6.98046L19.7447 18.2742L20.3117 18.2742C20.7437 18.2742 20.9947 18.5297 20.9947 18.9572L20.9947 19.7158L21.499 19.7158C21.9797 19.7158 22.3902 20.1148 22.3902 20.5972C22.3902 21.0849 21.9797 21.4867 21.499 21.4867L0.881441 21.4867C0.399022 21.4867 0 21.0832 0 20.5972C0 20.1148 0.399022 19.7158 0.881441 19.7158L1.44999 19.7158L1.44999 18.9572C1.44999 18.5297 1.70898 18.2742 2.14101 18.2742L2.69999 18.2742L2.69999 6.98046L1.85995 6.98046C1.25957 6.98046 0.908396 6.53886 0.908396 6.09277C0.908396 5.7664 1.08574 5.47734 1.49023 5.24941L9.96366 0.359374C10.3523 0.125976 10.7969 0 11.2183 0C11.6398 0 12.0764 0.125976 12.481 0.359374ZM11.3273 6.1828L11.3273 7.1619L10.3598 7.1619L10.3598 6.1828C10.3598 5.99178 10.2265 5.85682 10.04 5.85682C9.84549 5.85682 9.71053 5.99178 9.71053 6.1828L9.71053 7.1619L9.10741 7.1619C8.5914 7.1619 8.27206 7.49178 8.27206 8.00428L8.27206 15.1611C8.27206 15.6691 8.5914 16.007 9.10741 16.007L9.71053 16.007L9.71053 16.9951C9.71053 17.1781 9.84549 17.3131 10.04 17.3131C10.2265 17.3131 10.3598 17.1781 10.3598 16.9951L10.3598 16.007L11.3273 16.007L11.3273 16.9951C11.3273 17.1781 11.4685 17.3131 11.6453 17.3131C11.8398 17.3131 11.9828 17.1781 11.9828 16.9951L11.9828 15.999C13.6316 15.9012 14.7933 15.0633 14.7933 13.5125C14.7933 12.3291 13.9351 11.4795 12.6974 11.3506L12.6974 11.292C13.689 11.1445 14.3547 10.2717 14.3547 9.3574C14.3547 8.02713 13.3096 7.28377 11.9828 7.17791L11.9828 6.1828C11.9828 5.99178 11.8398 5.85682 11.6453 5.85682C11.4685 5.85682 11.3273 5.99178 11.3273 6.1828ZM13.3549 13.416C13.3549 14.4963 12.5 14.8808 11.426 14.8808L9.69725 14.8808L9.69725 11.9662L11.3299 11.9662C12.4369 11.9662 13.3549 12.333 13.3549 13.416ZM12.932 9.55135C12.932 10.566 12.0879 10.9195 11.075 10.9195L9.69725 10.9195L9.69725 8.26853L11.3195 8.26853C12.2353 8.26853 12.932 8.65662 12.932 9.55135Z" fill="white" fill-opacity="0.85"/>
 </g>
</svg>
