<?xml version="1.0" encoding="UTF-8"?>
<!--Generator: Apple Native CoreSVG 341-->
<!DOCTYPE svg
PUBLIC "-//W3C//DTD SVG 1.1//EN"
       "http://www.w3.org/Graphics/SVG/1.1/DTD/svg11.dtd">
<svg version="1.1" xmlns="http://www.w3.org/2000/svg" xmlns:xlink="http://www.w3.org/1999/xlink" viewBox="0 0 18.5894 18.2316">
 <g>
  <rect height="18.2316" opacity="0" width="18.5894" x="0" y="0"/>
  <path d="M18.2281 3.17148L18.2281 15.0646C18.2281 17.1502 17.1404 18.2281 15.0246 18.2281L3.20351 18.2281C1.0957 18.2281 0 17.1502 0 15.0646L0 3.17148C0 1.08769 1.0957 0 3.20351 0L15.0246 0C17.1404 0 18.2281 1.08769 18.2281 3.17148ZM9.23925 3.72578L9.23925 4.69511L8.27167 4.69511L8.27167 3.72578C8.27167 3.52499 8.13847 3.39003 7.95195 3.39003C7.75741 3.39003 7.62245 3.52499 7.62245 3.72578L7.62245 4.69511L7.01933 4.69511C6.51133 4.69511 6.18398 5.033 6.18398 5.53925L6.18398 12.6943C6.18398 13.2103 6.51133 13.5402 7.01933 13.5402L7.62245 13.5402L7.62245 14.5283C7.62245 14.7131 7.75741 14.848 7.95195 14.848C8.13847 14.848 8.27167 14.7131 8.27167 14.5283L8.27167 13.5402L9.23925 13.5402L9.23925 14.5283C9.23925 14.7131 9.38046 14.848 9.55898 14.848C9.76152 14.848 9.89648 14.7131 9.89648 14.5283L9.89648 13.5322C11.5435 13.4344 12.707 12.6045 12.707 11.0457C12.707 9.8623 11.8551 9.01269 10.6094 8.88378L10.6094 8.82695C11.601 8.67773 12.2666 7.80488 12.2666 6.89863C12.2666 5.56035 11.2215 4.825 9.89648 4.71914L9.89648 3.72578C9.89648 3.52499 9.76152 3.39003 9.55898 3.39003C9.38046 3.39003 9.23925 3.52499 9.23925 3.72578ZM11.2668 10.959C11.2668 12.0295 10.4119 12.4141 9.33788 12.4141L7.60917 12.4141L7.60917 9.50742L9.2498 9.50742C10.3488 9.50742 11.2668 9.8662 11.2668 10.959ZM10.8439 7.09433C10.8439 8.09922 10.0078 8.45449 8.98691 8.45449L7.60917 8.45449L7.60917 5.81151L9.23144 5.81151C10.1473 5.81151 10.8439 6.18983 10.8439 7.09433Z" fill="white" fill-opacity="0.85"/>
 </g>
</svg>
