<?xml version="1.0" encoding="UTF-8"?>
<!--Generator: Apple Native CoreSVG 341-->
<!DOCTYPE svg
PUBLIC "-//W3C//DTD SVG 1.1//EN"
       "http://www.w3.org/Graphics/SVG/1.1/DTD/svg11.dtd">
<svg version="1.1" xmlns="http://www.w3.org/2000/svg" xmlns:xlink="http://www.w3.org/1999/xlink" viewBox="0 0 22.301 21.9477">
 <g>
  <rect height="21.9477" opacity="0" width="22.301" x="0" y="0"/>
  <path d="M10.9689 21.9379C16.9984 21.9379 21.9396 16.9984 21.9396 10.9689C21.9396 4.93945 16.9984 0 10.9689 0C4.93945 0 0 4.93945 0 10.9689C0 16.9984 4.93945 21.9379 10.9689 21.9379ZM10.9689 18.2242C6.96133 18.2242 3.71367 14.9766 3.71367 10.9689C3.71367 6.95332 6.96133 3.71367 10.9689 3.71367C14.9846 3.71367 18.226 6.95332 18.226 10.9689C18.226 14.9766 14.9846 18.2242 10.9689 18.2242Z" fill="white" fill-opacity="0.85"/>
  <path d="M8.93769 15.2281L11.4537 15.2281C13.1389 15.2281 14.4066 14.4203 14.4066 12.8328C14.4066 11.6955 13.5848 10.8725 12.3852 10.7516L12.3852 10.6965C13.3404 10.5473 13.9795 9.71074 13.9795 8.84082C13.9795 7.4498 12.8221 6.72148 11.4148 6.72148L8.93769 6.72148C8.45625 6.72148 8.14395 7.04433 8.14395 7.52402L8.14395 14.4256C8.14395 14.9133 8.45625 15.2281 8.93769 15.2281ZM9.5037 10.3391L9.5037 7.79101L11.0719 7.79101C11.9549 7.79101 12.6303 8.1498 12.6303 9.02324C12.6303 9.99707 11.8172 10.3391 10.8353 10.3391ZM9.5037 14.1506L9.5037 11.3504L11.0867 11.3504C12.1467 11.3504 13.0336 11.6959 13.0336 12.7461C13.0336 13.7856 12.2098 14.1506 11.1668 14.1506ZM9.52226 7.3705L10.1484 7.3705L10.1484 5.79023C10.1484 5.59922 10.0152 5.46601 9.84023 5.46601C9.65546 5.46601 9.52226 5.59922 9.52226 5.79023ZM11.0779 7.3705L11.7023 7.3705L11.7023 5.79023C11.7023 5.59922 11.5789 5.46601 11.3861 5.46601C11.2094 5.46601 11.0779 5.59922 11.0779 5.79023ZM9.52226 14.5676L9.52226 16.1799C9.52226 16.3549 9.65546 16.4881 9.84023 16.4881C10.0152 16.4881 10.1484 16.3549 10.1484 16.1799L10.1484 14.5676ZM11.0779 14.5676L11.0779 16.1799C11.0779 16.3549 11.2094 16.4881 11.3861 16.4881C11.5789 16.4881 11.7023 16.3549 11.7023 16.1799L11.7023 14.5676Z" fill="white" fill-opacity="0.85"/>
 </g>
</svg>
