<?xml version="1.0" encoding="UTF-8"?>
<!--Generator: Apple Native CoreSVG 341-->
<!DOCTYPE svg
PUBLIC "-//W3C//DTD SVG 1.1//EN"
       "http://www.w3.org/Graphics/SVG/1.1/DTD/svg11.dtd">
<svg version="1.1" xmlns="http://www.w3.org/2000/svg" xmlns:xlink="http://www.w3.org/1999/xlink" viewBox="0 0 24.226 20.1848">
 <g>
  <rect height="20.1848" opacity="0" width="24.226" x="0" y="0"/>
  <path d="M0.721518 8.12363C-0.00973073 8.12363-0.190785 8.66894 0.204136 9.22109L2.47249 12.3723C2.78948 12.8092 3.27757 12.8012 3.58831 12.3723L5.8469 9.21308C6.24007 8.66894 6.051 8.12363 5.33929 8.12363ZM22.0239 10.0875C22.0239 4.51914 17.503 0 11.9364 0C6.368 0 1.85687 4.50937 1.84886 10.099C1.85687 10.6476 2.29378 11.0846 2.83441 11.0846C3.38303 11.0846 3.83596 10.6396 3.83596 10.091C3.83596 5.60839 7.45725 1.9871 11.9364 1.9871C16.4155 1.9871 20.0368 5.60839 20.0368 10.0875C20.0368 14.5666 16.4155 18.1879 11.9364 18.1879C9.3096 18.1879 7.0131 16.9437 5.54279 15.0176C5.1469 14.5609 4.58421 14.4129 4.10726 14.7519C3.66214 15.0734 3.55902 15.725 3.99475 16.2355C5.84631 18.6584 8.71858 20.175 11.9364 20.175C17.503 20.175 22.0239 15.6559 22.0239 10.0875Z" fill="white" fill-opacity="0.85"/>
  <path d="M9.90511 14.3467L12.4211 14.3467C14.1063 14.3467 15.3741 13.5389 15.3741 11.9514C15.3741 10.8141 14.5522 9.99101 13.3526 9.87011L13.3526 9.81503C14.3078 9.66582 14.9469 8.82929 14.9469 7.95937C14.9469 6.56835 13.7895 5.84003 12.3823 5.84003L9.90511 5.84003C9.41566 5.84003 9.11136 6.16288 9.11136 6.64257L9.11136 13.5441C9.11136 14.0318 9.41566 14.3467 9.90511 14.3467ZM10.4711 9.45761L10.4711 6.90956L12.0393 6.90956C12.9223 6.90956 13.5977 7.26835 13.5977 8.14179C13.5977 9.11562 12.7766 9.45761 11.8028 9.45761ZM10.4711 13.2691L10.4711 10.4689L12.0559 10.4689C13.1141 10.4689 14.001 10.8144 14.001 11.8646C14.001 12.9041 13.1772 13.2691 12.1342 13.2691ZM10.4897 6.48905L11.1159 6.48905L11.1159 4.90878C11.1159 4.71777 10.9826 4.58456 10.8076 4.58456C10.6229 4.58456 10.4897 4.71777 10.4897 4.90878ZM12.0453 6.48905L12.6698 6.48905L12.6698 4.90878C12.6698 4.71777 12.5383 4.58456 12.3535 4.58456C12.1768 4.58456 12.0453 4.71777 12.0453 4.90878ZM10.4897 13.6861L10.4897 15.2984C10.4897 15.4734 10.6229 15.6066 10.8076 15.6066C10.9826 15.6066 11.1159 15.4734 11.1159 15.2984L11.1159 13.6861ZM12.0453 13.6861L12.0453 15.2984C12.0453 15.4734 12.1768 15.6066 12.3535 15.6066C12.5383 15.6066 12.6698 15.4734 12.6698 15.2984L12.6698 13.6861Z" fill="white" fill-opacity="0.85"/>
 </g>
</svg>
