<?xml version="1.0" encoding="UTF-8"?>
<!--Generator: Apple Native CoreSVG 341-->
<!DOCTYPE svg
PUBLIC "-//W3C//DTD SVG 1.1//EN"
       "http://www.w3.org/Graphics/SVG/1.1/DTD/svg11.dtd">
<svg version="1.1" xmlns="http://www.w3.org/2000/svg" xmlns:xlink="http://www.w3.org/1999/xlink" viewBox="0 0 22.7515 21.4965">
 <g>
  <rect height="21.4965" opacity="0" width="22.7515" x="0" y="0"/>
  <path d="M1.44999 18.9656L20.9947 18.9656L20.9947 18.2322C20.9947 17.8064 20.7437 17.551 20.3117 17.551L19.7447 17.551L19.7447 6.98046L20.5865 6.98046C21.1851 6.98046 21.5363 6.53886 21.5363 6.09277C21.5363 5.7664 21.351 5.47734 20.9545 5.24941L12.481 0.359374C12.0764 0.125976 11.6398 0 11.2183 0C10.7969 0 10.3523 0.125976 9.96366 0.359374L1.49023 5.24941C1.08574 5.47734 0.908396 5.7664 0.908396 6.09277C0.908396 6.53886 1.25957 6.98046 1.85995 6.98046L2.69999 6.98046L2.69999 17.551L2.14101 17.551C1.70898 17.551 1.44999 17.8064 1.44999 18.2322ZM4.32401 17.551L4.32401 5.67245L10.8779 1.99999C10.9846 1.93866 11.1072 1.90487 11.2183 1.90487C11.333 1.90487 11.4521 1.93866 11.5668 1.99999L18.1207 5.67245L18.1207 17.551ZM0.881441 21.4867L21.499 21.4867C21.9797 21.4867 22.3902 21.0849 22.3902 20.5972C22.3902 20.1148 21.9797 19.7158 21.499 19.7158L0.881441 19.7158C0.399022 19.7158 0 20.1148 0 20.5972C0 21.0832 0.399022 21.4867 0.881441 21.4867Z" fill="white" fill-opacity="0.85"/>
  <path d="M9.19686 14.835L11.7111 14.835C13.3963 14.835 14.664 14.0271 14.664 12.4476C14.664 11.3023 13.8342 10.4873 12.6443 10.3584L12.6443 10.3113C13.5996 10.1639 14.2387 9.32557 14.2387 8.44764C14.2387 7.05663 13.0795 6.33631 11.6723 6.33631L9.19686 6.33631C8.70741 6.33631 8.40136 6.65116 8.40136 7.13885L8.40136 14.0324C8.40136 14.5201 8.70741 14.835 9.19686 14.835ZM9.76111 9.9539L9.76111 7.39959L11.3293 7.39959C12.2123 7.39959 12.8894 7.76639 12.8894 8.63006C12.8894 9.60389 12.0666 9.9539 11.0945 9.9539ZM9.76111 13.7654L9.76111 10.9572L11.3379 10.9572C12.4041 10.9572 13.291 11.3107 13.291 12.3529C13.291 13.3924 12.4672 13.7654 11.426 13.7654ZM9.78143 6.98533L10.4058 6.98533L10.4058 5.39706C10.4058 5.21405 10.2744 5.08085 10.0976 5.08085C9.91463 5.08085 9.78143 5.21405 9.78143 5.39706ZM11.3353 6.98533L11.9615 6.98533L11.9615 5.39706C11.9615 5.21405 11.8283 5.08085 11.6435 5.08085C11.4685 5.08085 11.3353 5.21405 11.3353 5.39706ZM9.78143 14.1744L9.78143 15.7867C9.78143 15.9617 9.91463 16.0949 10.0976 16.0949C10.2744 16.0949 10.4058 15.9617 10.4058 15.7867L10.4058 14.1744ZM11.3353 14.1744L11.3353 15.7867C11.3353 15.9617 11.4685 16.0949 11.6435 16.0949C11.8283 16.0949 11.9615 15.9617 11.9615 15.7867L11.9615 14.1744Z" fill="white" fill-opacity="0.85"/>
 </g>
</svg>
