<?xml version="1.0" encoding="UTF-8"?>
<!--Generator: Apple Native CoreSVG 341-->
<!DOCTYPE svg
PUBLIC "-//W3C//DTD SVG 1.1//EN"
       "http://www.w3.org/Graphics/SVG/1.1/DTD/svg11.dtd">
<svg version="1.1" xmlns="http://www.w3.org/2000/svg" xmlns:xlink="http://www.w3.org/1999/xlink" viewBox="0 0 36.4769 20.8422">
 <g>
  <rect height="20.8422" opacity="0" width="36.4769" x="0" y="0"/>
  <path d="M25.7758 20.8422L35.4189 20.8422C35.8097 20.8422 36.1156 20.5558 36.1156 20.1623C36.1156 19.7705 35.8097 19.4744 35.4189 19.4744L25.7758 19.4744C25.401 19.4744 25.0853 19.7705 25.0853 20.1623C25.0853 20.5558 25.401 20.8422 25.7758 20.8422Z" fill="white" fill-opacity="0.85"/>
  <path d="M30.5965 17.7404C33.9572 17.7404 36.1156 15.7137 36.1156 12.7277L36.1156 4.23417C36.1156 3.55195 35.6636 3.12832 34.9814 3.12832C34.301 3.12832 33.8713 3.55195 33.8713 4.23417L33.8713 12.5232C33.8713 14.45 32.4513 15.7471 30.5965 15.7471C28.5814 15.7471 27.3332 14.45 27.3332 12.5232L27.3332 4.23417C27.3332 3.55195 26.8875 3.12832 26.207 3.12832C25.5265 3.12832 25.0888 3.55195 25.0888 4.23417L25.0888 12.7277C25.0888 15.7137 27.2392 17.7404 30.5965 17.7404Z" fill="white" fill-opacity="0.85"/>
  <path d="M13.29 17.4812L19.4496 17.4812C20.0123 17.4812 20.4013 17.1453 20.4013 16.5861C20.4013 16.0465 20.0238 15.7105 19.4576 15.7105L17.5293 15.7105L19.723 5.12889L21.7242 5.12889C22.2887 5.12889 22.6777 4.79295 22.6777 4.23554C22.6777 3.69413 22.3002 3.35644 21.734 3.35644L15.5584 3.35644C14.9904 3.35644 14.6111 3.69413 14.6111 4.23554C14.6111 4.79295 15.0037 5.12889 15.5664 5.12889L17.5613 5.12889L15.2849 15.7105L13.282 15.7105C12.7158 15.7105 12.3285 16.0465 12.3285 16.5861C12.3285 17.1453 12.7273 17.4812 13.29 17.4812Z" fill="white" fill-opacity="0.85"/>
  <path d="M1.74531 17.4812L5.95839 17.4812C8.99764 17.4812 10.9228 15.8826 10.9228 13.4371C10.9228 11.5223 9.48963 10.1207 7.48964 10.0221L7.48964 9.94394C9.1371 9.71933 10.2775 8.48632 10.2775 6.90722C10.2775 4.70488 8.57948 3.35644 5.80585 3.35644L1.74531 3.35644C0.65117 3.35644 0 3.9998 0 5.12323L0 15.7225C0 16.8396 0.65117 17.4812 1.74531 17.4812ZM3.51971 15.1041L3.51971 11.2992L4.76386 11.2992C6.4166 11.2992 7.34902 11.9562 7.34902 13.1746C7.34902 14.431 6.49257 15.1041 4.85683 15.1041ZM3.51971 9.1871L3.51971 5.76737L4.69921 5.76737C6.02949 5.76737 6.8207 6.38183 6.8207 7.4332C6.8207 8.5291 5.95039 9.1871 4.4832 9.1871Z" fill="white" fill-opacity="0.85"/>
 </g>
</svg>
