<?xml version="1.0" encoding="UTF-8"?>
<!--Generator: Apple Native CoreSVG 341-->
<!DOCTYPE svg
PUBLIC "-//W3C//DTD SVG 1.1//EN"
       "http://www.w3.org/Graphics/SVG/1.1/DTD/svg11.dtd">
<svg version="1.1" xmlns="http://www.w3.org/2000/svg" xmlns:xlink="http://www.w3.org/1999/xlink" viewBox="0 0 25.0361 20.8422">
 <g>
  <rect height="20.8422" opacity="0" width="25.0361" x="0" y="0"/>
  <path d="M14.343 20.8422L23.9843 20.8422C24.3769 20.8422 24.6748 20.5558 24.6748 20.1623C24.6748 19.7705 24.3769 19.4744 23.9843 19.4744L14.343 19.4744C13.9601 19.4744 13.6525 19.7705 13.6525 20.1623C13.6525 20.5558 13.9601 20.8422 14.343 20.8422Z" fill="white" fill-opacity="0.85"/>
  <path d="M19.1637 17.7404C22.5164 17.7404 24.6748 15.7137 24.6748 12.7277L24.6748 4.23417C24.6748 3.55195 24.2308 3.12832 23.5486 3.12832C22.8681 3.12832 22.4305 3.55195 22.4305 4.23417L22.4305 12.5232C22.4305 14.45 21.0185 15.7471 19.1637 15.7471C17.1486 15.7471 15.9004 14.45 15.9004 12.5232L15.9004 4.23417C15.9004 3.55195 15.4547 3.12832 14.7742 3.12832C14.0857 3.12832 13.656 3.55195 13.656 4.23417L13.656 12.7277C13.656 15.7137 15.8064 17.7404 19.1637 17.7404Z" fill="white" fill-opacity="0.85"/>
  <path d="M1.74531 17.4812L5.95839 17.4812C8.99764 17.4812 10.9228 15.8826 10.9228 13.4371C10.9228 11.5223 9.48963 10.1207 7.48964 10.0221L7.48964 9.94394C9.1371 9.71933 10.2775 8.48632 10.2775 6.90722C10.2775 4.70488 8.57948 3.35644 5.80585 3.35644L1.74531 3.35644C0.65117 3.35644 0 3.9998 0 5.12323L0 15.7225C0 16.8396 0.65117 17.4812 1.74531 17.4812ZM3.51971 15.1041L3.51971 11.2992L4.76386 11.2992C6.4166 11.2992 7.34902 11.9562 7.34902 13.1746C7.34902 14.431 6.49257 15.1041 4.85683 15.1041ZM3.51971 9.1871L3.51971 5.76737L4.69921 5.76737C6.02949 5.76737 6.8207 6.38183 6.8207 7.4332C6.8207 8.5291 5.95039 9.1871 4.4832 9.1871Z" fill="white" fill-opacity="0.85"/>
 </g>
</svg>
