<?xml version="1.0" encoding="UTF-8"?>
<!--Generator: Apple Native CoreSVG 341-->
<!DOCTYPE svg
PUBLIC "-//W3C//DTD SVG 1.1//EN"
       "http://www.w3.org/Graphics/SVG/1.1/DTD/svg11.dtd">
<svg version="1.1" xmlns="http://www.w3.org/2000/svg" xmlns:xlink="http://www.w3.org/1999/xlink" viewBox="0 0 23.4906 16.9976">
 <g>
  <rect height="16.9976" opacity="0" width="23.4906" x="0" y="0"/>
  <path d="M3.20351 16.9976L19.9258 16.9976C22.0416 16.9976 23.1293 15.91 23.1293 13.8262L23.1293 5.73476C23.1293 3.65722 22.0416 2.57129 19.9258 2.57129L18.8998 2.57129L18.8998 1.34003C18.8998 0.509959 18.4191 0.00976562 17.5828 0.00976562L15.7879 0.00976562C14.9613 0.00976562 14.4807 0.509959 14.4807 1.34003L14.4807 2.57129L8.65663 2.57129L8.65663 1.34003C8.65663 0.509959 8.17597 0.00976562 7.33965 0.00976562L5.54648 0.00976562C4.71015 0.00976562 4.22949 0.509959 4.22949 1.34003L4.22949 2.57129L3.20351 2.57129C1.0957 2.57129 0 3.64921 0 5.73476L0 13.8262C0 15.918 1.0957 16.9976 3.20351 16.9976ZM1.91327 13.6654L1.91327 5.90175C1.91327 4.95292 2.40643 4.48455 3.31444 4.48455L19.8148 4.48455C20.7149 4.48455 21.216 4.95292 21.216 5.90175L21.216 13.6654C21.216 14.608 20.7149 15.0844 19.8148 15.0844L3.31444 15.0844C2.40643 15.0844 1.91327 14.608 1.91327 13.6654Z" fill="white" fill-opacity="0.85"/>
  <path d="M8.6289 10.3549C8.6289 10.5439 8.7789 10.6744 8.96972 10.6744L11.2475 10.6744L10.026 13.9215C9.85995 14.3805 10.3598 14.6397 10.658 14.2588L14.3797 9.62187C14.4543 9.53574 14.5031 9.43007 14.5031 9.33867C14.5031 9.15937 14.3469 9.02089 14.1578 9.02089L11.8863 9.02089L13.0998 5.78182C13.2676 5.31307 12.774 5.05565 12.4775 5.43651L8.74609 10.0814C8.67948 10.1756 8.6289 10.2652 8.6289 10.3549Z" fill="white" fill-opacity="0.85"/>
 </g>
</svg>
