<?xml version="1.0" encoding="UTF-8"?>
<!--Generator: Apple Native CoreSVG 341-->
<!DOCTYPE svg
PUBLIC "-//W3C//DTD SVG 1.1//EN"
       "http://www.w3.org/Graphics/SVG/1.1/DTD/svg11.dtd">
<svg version="1.1" xmlns="http://www.w3.org/2000/svg" xmlns:xlink="http://www.w3.org/1999/xlink" viewBox="0 0 27.4792 13.1309">
 <g>
  <rect height="13.1309" opacity="0" width="27.4792" x="0" y="0"/>
  <path d="M0.378552 10.5572C-0.654647 11.8664 0.619374 13.0652 1.89573 12.3471L8.94066 8.38495L17.0596 12.7867C17.4854 13.0084 17.8579 13.1309 18.217 13.1309C18.7383 13.1309 19.2153 12.8853 19.6569 12.3311L26.7793 3.38261C27.6907 2.24336 26.6123 0.832816 25.2461 1.58477L18.1995 5.56914L10.0742 1.1709C9.65647 0.934961 9.26976 0.825001 8.91683 0.825001C8.38753 0.825001 7.9266 1.07226 7.485 1.62656ZM2.82386 10.1816C2.71018 10.2438 2.64104 10.1408 2.72268 10.0512L8.82874 2.84218C8.96019 2.67519 9.08362 2.65565 9.25863 2.7498L17.8918 7.41347C18.2774 7.61777 18.3991 7.56269 18.7055 7.3664L24.342 3.75194C24.4317 3.68983 24.5329 3.79276 24.4512 3.88241L18.3211 11.1383C18.1897 11.2955 18.0582 11.3248 17.8912 11.2307L9.25003 6.58809C8.86273 6.38379 8.7428 6.43262 8.43636 6.62715Z" fill="white" fill-opacity="0.85"/>
 </g>
</svg>
