<?xml version="1.0" encoding="UTF-8"?>
<!--Generator: Apple Native CoreSVG 341-->
<!DOCTYPE svg
PUBLIC "-//W3C//DTD SVG 1.1//EN"
       "http://www.w3.org/Graphics/SVG/1.1/DTD/svg11.dtd">
<svg version="1.1" xmlns="http://www.w3.org/2000/svg" xmlns:xlink="http://www.w3.org/1999/xlink" viewBox="0 0 20.5381 20.1848">
 <g>
  <rect height="20.1848" opacity="0" width="20.5381" x="0" y="0"/>
  <path d="M20.1767 10.0973C20.1767 15.6656 15.6576 20.1848 10.0875 20.1848C4.52715 20.1848 0 15.6656 0 10.0973C0 4.53691 4.52715 0.00976562 10.0875 0.00976562C15.6576 0.00976562 20.1767 4.53691 20.1767 10.0973ZM7.58788 5.52734C6.97265 5.60722 6.49062 5.92499 6.23847 6.45234C6.07597 6.78534 5.79179 7.63613 5.61952 8.46113L5.21738 8.96816C4.7912 9.50449 4.63925 9.95546 4.63925 10.7385L4.63925 13.3967C4.63925 13.743 4.91093 14.0111 5.25546 14.0111L5.80507 14.0111C6.14511 14.0111 6.41152 13.743 6.41152 13.3967L6.41152 12.6252C7.42031 12.6936 8.89335 12.7344 10.0875 12.7344C11.2834 12.7344 12.7484 12.6953 13.759 12.6252L13.759 13.3967C13.759 13.743 14.0254 14.0111 14.3734 14.0111L14.9195 14.0111C15.2596 14.0111 15.5277 13.743 15.5277 13.3967L15.5277 10.7385C15.5277 9.95546 15.3873 9.50449 14.9531 8.96816L14.559 8.46113C14.3787 7.63613 14.0928 6.78534 13.932 6.45234C13.6844 5.92499 13.2059 5.61523 12.5826 5.52734C12.2613 5.48652 11.2834 5.46699 10.0875 5.46699C8.8871 5.46699 7.91894 5.48652 7.58788 5.52734ZM10.9043 6.983L10.3021 8.59863L11.5338 8.59062C11.6562 8.59062 11.7512 8.68378 11.7512 8.80624C11.7512 8.8666 11.7139 8.93847 11.681 8.99706L9.70195 11.5111C9.49609 11.7641 9.15976 11.591 9.28222 11.2777L9.8746 9.66835L8.64648 9.66835C8.52226 9.66835 8.42734 9.57695 8.42734 9.46249C8.42734 9.40039 8.45039 9.33652 8.50097 9.27968L10.4961 6.76386C10.6984 6.51269 11.017 6.66972 10.9043 6.983Z" fill="white" fill-opacity="0.85"/>
 </g>
</svg>
