<?xml version="1.0" encoding="UTF-8"?>
<!--Generator: Apple Native CoreSVG 341-->
<!DOCTYPE svg
PUBLIC "-//W3C//DTD SVG 1.1//EN"
       "http://www.w3.org/Graphics/SVG/1.1/DTD/svg11.dtd">
<svg version="1.1" xmlns="http://www.w3.org/2000/svg" xmlns:xlink="http://www.w3.org/1999/xlink" viewBox="0 0 20.0898 18.8629">
 <g>
  <rect height="18.8629" opacity="0" width="20.0898" x="0" y="0"/>
  <path d="M19.7285 6.68046C19.7285 10.8529 16.2281 14.9728 10.7758 18.4885C10.4766 18.6734 10.1133 18.8629 9.86425 18.8629C9.61347 18.8629 9.25195 18.6734 8.96074 18.4885C3.50039 14.9728 0 10.8529 0 6.68046C0 3.08808 2.48027 0.595703 5.59238 0.595703C7.52831 0.595703 9.00214 1.67422 9.86425 3.27051C10.7424 1.66621 12.1984 0.595703 14.1361 0.595703C17.2482 0.595703 19.7285 3.08808 19.7285 6.68046ZM10.8332 5.40605L6.84667 10.3652C6.76679 10.4566 6.72421 10.5693 6.72421 10.666C6.72421 10.8639 6.883 11.0129 7.08261 11.0129L9.5166 11.0129L8.21835 14.4719C8.03203 14.967 8.57148 15.25 8.89706 14.848L12.8853 9.8871C12.9652 9.78769 13.006 9.67675 13.006 9.58007C13.006 9.38222 12.857 9.2332 12.6477 9.2332L10.2154 9.2332L11.5119 5.77421C11.7062 5.27909 11.1685 5.00409 10.8332 5.40605Z" fill="white" fill-opacity="0.85"/>
 </g>
</svg>
