<?xml version="1.0" encoding="UTF-8"?>
<!--Generator: Apple Native CoreSVG 341-->
<!DOCTYPE svg
PUBLIC "-//W3C//DTD SVG 1.1//EN"
       "http://www.w3.org/Graphics/SVG/1.1/DTD/svg11.dtd">
<svg version="1.1" xmlns="http://www.w3.org/2000/svg" xmlns:xlink="http://www.w3.org/1999/xlink" viewBox="0 0 18.5894 18.2316">
 <g>
  <rect height="18.2316" opacity="0" width="18.5894" x="0" y="0"/>
  <path d="M18.2281 3.17148L18.2281 15.0646C18.2281 17.1502 17.1404 18.2281 15.0246 18.2281L3.20351 18.2281C1.0957 18.2281 0 17.1502 0 15.0646L0 3.17148C0 1.08769 1.0957 0 3.20351 0L15.0246 0C17.1404 0 18.2281 1.08769 18.2281 3.17148ZM10.3947 2.5662L4.92636 9.36875C4.81542 9.49921 4.75507 9.65273 4.75507 9.79023C4.75507 10.0617 4.97597 10.2648 5.24921 10.2648L8.58808 10.2648L6.80585 15.0098C6.54765 15.6912 7.2832 16.0727 7.73651 15.5154L13.2111 8.71288C13.3141 8.59042 13.3744 8.43691 13.3744 8.30117C13.3744 8.02792 13.1615 7.82656 12.8803 7.82656L9.5494 7.82656L11.3254 3.07987C11.5898 2.39843 10.8463 2.01874 10.3947 2.5662Z" fill="white" fill-opacity="0.85"/>
 </g>
</svg>
