<?xml version="1.0" encoding="UTF-8"?>
<!--Generator: Apple Native CoreSVG 341-->
<!DOCTYPE svg
PUBLIC "-//W3C//DTD SVG 1.1//EN"
       "http://www.w3.org/Graphics/SVG/1.1/DTD/svg11.dtd">
<svg version="1.1" xmlns="http://www.w3.org/2000/svg" xmlns:xlink="http://www.w3.org/1999/xlink" viewBox="0 0 18.5894 18.2316">
 <g>
  <rect height="18.2316" opacity="0" width="18.5894" x="0" y="0"/>
  <path d="M3.20351 18.2281L15.0246 18.2281C17.1404 18.2281 18.2281 17.1502 18.2281 15.0646L18.2281 3.17148C18.2281 1.08769 17.1404 0 15.0246 0L3.20351 0C1.0957 0 0 1.08769 0 3.17148L0 15.0646C0 17.1502 1.0957 18.2281 3.20351 18.2281ZM3.31444 16.3148C2.40643 16.3148 1.91327 15.8465 1.91327 14.8977L1.91327 3.34023C1.91327 2.39139 2.40643 1.91503 3.31444 1.91503L14.9137 1.91503C15.8137 1.91503 16.3148 2.39139 16.3148 3.34023L16.3148 14.8977C16.3148 15.8465 15.8137 16.3148 14.9137 16.3148Z" fill="white" fill-opacity="0.85"/>
  <path d="M4.95585 9.75664C4.95585 10.0113 5.16796 10.1977 5.4244 10.1977L8.59433 10.1977L6.90234 14.7135C6.66093 15.3561 7.34784 15.7154 7.77558 15.1936L12.9734 8.72792C13.0728 8.60898 13.1314 8.46874 13.1314 8.33652C13.1314 8.08183 12.9273 7.8955 12.6629 7.8955L9.50097 7.8955L11.185 3.37967C11.4326 2.7371 10.7394 2.37772 10.3117 2.89159L5.12187 9.35722C5.01269 9.48418 4.95585 9.62441 4.95585 9.75664Z" fill="white" fill-opacity="0.85"/>
 </g>
</svg>
