<?xml version="1.0" encoding="UTF-8"?>
<!--Generator: Apple Native CoreSVG 341-->
<!DOCTYPE svg
PUBLIC "-//W3C//DTD SVG 1.1//EN"
       "http://www.w3.org/Graphics/SVG/1.1/DTD/svg11.dtd">
<svg version="1.1" xmlns="http://www.w3.org/2000/svg" xmlns:xlink="http://www.w3.org/1999/xlink" viewBox="0 0 20.5381 20.1848">
 <g>
  <rect height="20.1848" opacity="0" width="20.5381" x="0" y="0"/>
  <path d="M10.0875 20.175C15.6576 20.175 20.1767 15.6559 20.1767 10.0875C20.1767 4.51914 15.6576 0 10.0875 0C4.51914 0 0 4.51914 0 10.0875C0 15.6559 4.51914 20.175 10.0875 20.175ZM10.0875 18.1879C5.60839 18.1879 1.9871 14.5666 1.9871 10.0875C1.9871 5.60839 5.60839 1.9871 10.0875 1.9871C14.5666 1.9871 18.1897 5.60839 18.1897 10.0875C18.1897 14.5666 14.5666 18.1879 10.0875 18.1879Z" fill="white" fill-opacity="0.85"/>
  <path d="M3.908 11.8076C3.42187 12.4225 4.0289 13.0139 4.65233 12.691L7.8039 11.008L11.8129 13.1762C12.0072 13.2906 12.2016 13.3492 12.3719 13.3492C12.6193 13.3492 12.8455 13.218 13.0646 12.9562L16.267 8.84863C16.7176 8.26757 16.1684 7.64414 15.5227 7.983L12.3551 9.6625L8.35409 7.4916C8.14999 7.38339 7.96542 7.31503 7.7871 7.31503C7.53964 7.31503 7.31171 7.44453 7.10234 7.71601Z" fill="white" fill-opacity="0.85"/>
 </g>
</svg>
