<?xml version="1.0" encoding="UTF-8"?>
<!--Generator: Apple Native CoreSVG 341-->
<!DOCTYPE svg
PUBLIC "-//W3C//DTD SVG 1.1//EN"
       "http://www.w3.org/Graphics/SVG/1.1/DTD/svg11.dtd">
<svg version="1.1" xmlns="http://www.w3.org/2000/svg" xmlns:xlink="http://www.w3.org/1999/xlink" viewBox="0 0 16.584 19.8398">
 <g>
  <rect height="19.8398" opacity="0" width="16.584" x="0" y="0"/>
  <path d="M9.11698 0.462304C10.1637 0.816016 13.7562 2.09317 14.8285 2.53379C15.7859 2.93535 16.2226 3.34375 16.2226 4.47968L16.2226 11.7463C16.2226 15.2504 14.381 16.7635 8.78574 19.6455C8.53808 19.7725 8.28339 19.8398 8.11132 19.8398C7.94101 19.8398 7.69257 19.7805 7.43691 19.6455C1.92519 16.6238 0 15.2504 0 11.7463L0 4.47968C0 3.34375 0.446484 2.92559 1.39589 2.53379C2.46816 2.10117 6.05898 0.8 7.11367 0.462304C7.42734 0.368359 7.78691 0.299219 8.11132 0.299219C8.43749 0.299219 8.79706 0.360351 9.11698 0.462304ZM9.37578 3.10019L3.89941 9.90274C3.79648 10.0332 3.73613 10.1867 3.73613 10.3162C3.73613 10.5957 3.94902 10.7988 4.23027 10.7988L7.56113 10.7988L5.78691 15.5455C5.5207 16.2252 6.26425 16.6066 6.71757 16.0494L12.1842 9.24863C12.2951 9.11816 12.3572 8.96465 12.3572 8.83516C12.3572 8.55391 12.1363 8.35254 11.8613 8.35254L8.52245 8.35254L10.3064 3.61386C10.5646 2.92441 9.82734 2.54472 9.37578 3.10019Z" fill="white" fill-opacity="0.85"/>
 </g>
</svg>
