<?xml version="1.0" encoding="UTF-8"?>
<!--Generator: Apple Native CoreSVG 341-->
<!DOCTYPE svg
PUBLIC "-//W3C//DTD SVG 1.1//EN"
       "http://www.w3.org/Graphics/SVG/1.1/DTD/svg11.dtd">
<svg version="1.1" xmlns="http://www.w3.org/2000/svg" xmlns:xlink="http://www.w3.org/1999/xlink" viewBox="0 0 20.5381 20.1848">
 <g>
  <rect height="20.1848" opacity="0" width="20.5381" x="0" y="0"/>
  <path d="M20.1767 10.0973C20.1767 15.6656 15.6576 20.1848 10.0875 20.1848C4.52715 20.1848 0 15.6656 0 10.0973C0 4.53691 4.52715 0.00976562 10.0875 0.00976562C15.6576 0.00976562 20.1767 4.53691 20.1767 10.0973ZM11.4 4.8537C10.9857 4.8537 10.7756 5.07987 10.7756 5.48612L10.7756 14.3061C10.7756 14.7025 10.9857 14.9305 11.4 14.9305L12.4582 14.9305C12.8644 14.9305 13.0924 14.7025 13.0924 14.3061L13.0924 9.09804L14.1807 14.4453C14.2543 14.8285 14.5283 15.0219 14.9115 14.9305L15.593 14.7723C15.9859 14.6906 16.158 14.4184 16.0924 14.0219L14.6 6.716C14.5264 6.31952 14.2621 6.11991 13.8674 6.21132L13.0924 6.40136L13.0924 5.48612C13.0924 5.07987 12.8644 4.8537 12.4582 4.8537ZM4.97792 6.13847C4.56367 6.13847 4.32597 6.35839 4.32597 6.75487L4.32597 14.3061C4.32597 14.7025 4.56367 14.9305 4.97792 14.9305L5.81718 14.9305C6.21816 14.9305 6.44609 14.7025 6.44609 14.3061L6.44609 6.75487C6.44609 6.35839 6.21816 6.13847 5.81718 6.13847ZM7.72773 7.72304C7.32948 7.72304 7.09355 7.96698 7.09355 8.35546L7.09355 14.3061C7.09355 14.7025 7.32948 14.9305 7.72773 14.9305L9.48945 14.9305C9.90019 14.9305 10.1121 14.7025 10.1121 14.3061L10.1121 8.35546C10.1121 7.96698 9.90019 7.72304 9.48945 7.72304ZM9.40644 13.5545C9.40644 13.7338 9.27597 13.8758 9.09667 13.8758L8.13202 13.8758C7.95898 13.8758 7.82675 13.7338 7.82675 13.5545C7.82675 13.3699 7.95273 13.2395 8.13202 13.2395L9.09667 13.2395C9.27597 13.2395 9.40644 13.3779 9.40644 13.5545ZM9.40644 9.11503C9.40644 9.27206 9.27597 9.42655 9.09667 9.42655L8.13202 9.42655C7.95273 9.42655 7.82675 9.28007 7.82675 9.11503C7.82675 8.93573 7.95898 8.79999 8.13202 8.79999L9.09667 8.79999C9.28476 8.79999 9.40644 8.93573 9.40644 9.11503Z" fill="white" fill-opacity="0.85"/>
 </g>
</svg>
