<?xml version="1.0" encoding="UTF-8"?>
<!--Generator: Apple Native CoreSVG 341-->
<!DOCTYPE svg
PUBLIC "-//W3C//DTD SVG 1.1//EN"
       "http://www.w3.org/Graphics/SVG/1.1/DTD/svg11.dtd">
<svg version="1.1" xmlns="http://www.w3.org/2000/svg" xmlns:xlink="http://www.w3.org/1999/xlink" viewBox="0 0 18.5894 18.2316">
 <g>
  <rect height="18.2316" opacity="0" width="18.5894" x="0" y="0"/>
  <path d="M3.20351 18.2281L15.0246 18.2281C17.1404 18.2281 18.2281 17.1502 18.2281 15.0646L18.2281 3.17148C18.2281 1.08769 17.1404 0 15.0246 0L3.20351 0C1.0957 0 0 1.08769 0 3.17148L0 15.0646C0 17.1502 1.0957 18.2281 3.20351 18.2281ZM3.31444 16.3148C2.40643 16.3148 1.91327 15.8465 1.91327 14.8977L1.91327 3.34023C1.91327 2.39139 2.40643 1.91503 3.31444 1.91503L14.9137 1.91503C15.8137 1.91503 16.3148 2.39139 16.3148 3.34023L16.3148 14.8977C16.3148 15.8465 15.8137 16.3148 14.9137 16.3148Z" fill="white" fill-opacity="0.85"/>
  <path d="M6.33378 14.2182C6.59823 14.2182 6.76054 14.077 7.17636 13.6674L9.07539 11.7906C9.10117 11.7631 9.13847 11.7631 9.16425 11.7906L11.0713 13.6674C11.4809 14.077 11.6414 14.2182 11.9041 14.2182C12.2748 14.2182 12.5098 13.9557 12.5098 13.5316L12.5098 5.50761C12.5098 4.55859 12.0092 4.04999 11.0539 4.04999L7.18398 4.04999C6.23847 4.04999 5.73613 4.55859 5.73613 5.50761L5.73613 13.5316C5.73613 13.9557 5.97284 14.2182 6.33378 14.2182Z" fill="white" fill-opacity="0.85"/>
 </g>
</svg>
