<?xml version="1.0" encoding="UTF-8"?>
<!--Generator: Apple Native CoreSVG 341-->
<!DOCTYPE svg
PUBLIC "-//W3C//DTD SVG 1.1//EN"
       "http://www.w3.org/Graphics/SVG/1.1/DTD/svg11.dtd">
<svg version="1.1" xmlns="http://www.w3.org/2000/svg" xmlns:xlink="http://www.w3.org/1999/xlink" viewBox="0 0 21.7772 21.57">
 <g>
  <rect height="21.57" opacity="0" width="21.7772" x="0" y="0"/>
  <path d="M5.79193 8.59713L5.79193 18.2305C5.79193 18.4188 5.94466 18.4614 6.07787 18.3282L10.0708 14.4569C10.4765 14.0663 10.9394 14.0663 11.3531 14.4569L15.346 18.3282C15.4297 18.4118 15.5179 18.4261 15.5719 18.3786L17.5052 20.3122C17.4331 21.0583 16.9731 21.4957 16.2636 21.4957C15.7341 21.4957 15.415 21.2223 14.5667 20.4061L10.8003 16.6744C10.7533 16.6274 10.6706 16.6274 10.6236 16.6744L6.85092 20.4043C6.0142 21.2205 5.68002 21.4957 5.15229 21.4957C4.3767 21.4957 3.89917 20.9729 3.89917 20.0969L3.89917 6.70408ZM17.5167 3.06469L17.5167 14.7237L15.624 12.83L15.624 3.16859C15.624 2.38851 15.232 1.99827 14.4456 1.99827L6.97826 1.99827C6.24333 1.99827 5.85281 2.33232 5.79924 3.00083L4.23688 1.43777C4.67732 0.559548 5.55341 0.105515 6.82631 0.105515L14.5896 0.105515C16.5081 0.105515 17.5167 1.12836 17.5167 3.06469Z" fill="white" fill-opacity="0.85"/>
  <path d="M19.0161 20.1276C19.3179 20.4276 19.822 20.4293 20.114 20.1276C20.4158 19.816 20.4175 19.3315 20.114 19.028L2.52846 1.43442C2.22495 1.13266 1.72885 1.12466 1.41909 1.43442C1.12534 1.72817 1.12534 2.24204 1.41909 2.53403Z" fill="white" fill-opacity="0.85"/>
 </g>
</svg>
