<?xml version="1.0" encoding="UTF-8"?>
<!--Generator: Apple Native CoreSVG 341-->
<!DOCTYPE svg
PUBLIC "-//W3C//DTD SVG 1.1//EN"
       "http://www.w3.org/Graphics/SVG/1.1/DTD/svg11.dtd">
<svg version="1.1" xmlns="http://www.w3.org/2000/svg" xmlns:xlink="http://www.w3.org/1999/xlink" viewBox="0 0 28.3262 21.3107">
 <g>
  <rect height="21.3107" opacity="0" width="28.3262" x="0" y="0"/>
  <path d="M24.866 4.28326C24.9707 4.46158 24.9928 4.62994 24.9928 4.82408L24.9928 5.06523C24.2746 4.74357 23.4853 4.61672 22.7099 4.68347C21.854 3.8455 20.424 3.30864 18.9434 3.30864C17.1705 3.30864 15.6144 4.04067 14.9342 5.15825L14.9342 13.4547C14.3281 13.8649 13.7488 14.2748 13.252 14.7213C13.17 14.7944 13.0919 14.8693 13.0209 14.9477L13.0209 5.15825C12.3504 4.04067 10.7943 3.30864 9.02148 3.30864C7.29394 3.30864 5.64902 4.03267 4.87558 5.11021L4.87558 16.9999C5.90546 16.3157 7.41543 15.8846 9.02148 15.8846C10.1194 15.8846 11.1882 16.1567 12.0646 16.5811C11.85 17.3296 11.8927 18.1202 12.1902 18.8552C11.2385 18.1527 10.1224 17.806 8.98066 17.7979C7.68652 17.7881 6.42089 18.211 5.35371 18.9241C4.92109 19.1803 4.61582 19.3756 4.24863 19.3756C3.55118 19.3756 2.96231 18.9665 2.96231 18.0778L2.96231 4.82408C2.96231 4.62994 2.99415 4.46158 3.09708 4.28326C4.01817 2.68522 6.29629 1.39537 9.02148 1.39537C11.1047 1.39537 12.9504 2.2028 13.9824 3.37233C15.0145 2.2028 16.8602 1.39537 18.9434 1.39537C21.6686 1.39537 23.9467 2.68522 24.866 4.28326ZM24.9928 18.0778C24.9928 18.9665 24.4137 19.3756 23.7145 19.3756C23.341 19.3756 23.0438 19.1803 22.6111 18.9241C21.8311 18.4029 20.9451 18.0367 20.019 17.8836C20.422 17.2919 20.8393 16.6851 21.2226 16.1837C21.932 16.3768 22.5674 16.6564 23.0795 16.9999L23.0795 14.5562C23.347 14.4582 23.6296 14.4144 23.9563 14.4086C24.3247 14.4035 24.6706 14.3634 24.9928 14.2921Z" fill="white" fill-opacity="0.85"/>
  <path d="M14.0453 19.1877C15.0348 20.1772 16.5106 20.2145 17.4822 19.059C18.2379 18.1596 19.8688 15.4545 21.3785 13.943C22.176 13.1456 23.2127 13.0233 23.9141 13.0233C26.2539 13.0233 27.2016 11.0993 26.8797 9.70045L23.9281 10.5036L23.6295 9.42642C23.5141 8.99576 23.7014 8.63345 24.1801 8.50025L26.3963 7.89419C26.3129 7.66197 26.1186 7.32603 25.8525 7.05025C24.4857 5.66393 22.2164 5.62936 20.8604 6.92154C18.8893 8.79498 20.3549 10.7444 19.1373 11.962C17.5588 13.5325 15.3555 14.6901 14.1723 15.7463C13.0363 16.7563 13.0479 18.1938 14.0453 19.1877ZM15.7402 18.1801C15.3619 18.1801 15.0467 17.8667 15.0467 17.4866C15.0467 17.1065 15.3619 16.7993 15.7402 16.7993C16.1283 16.7993 16.4338 17.1065 16.4338 17.4866C16.4338 17.8667 16.1283 18.1801 15.7402 18.1801Z" fill="white" fill-opacity="0.85"/>
 </g>
</svg>
