<?xml version="1.0" encoding="UTF-8"?>
<!--Generator: Apple Native CoreSVG 341-->
<!DOCTYPE svg
PUBLIC "-//W3C//DTD SVG 1.1//EN"
       "http://www.w3.org/Graphics/SVG/1.1/DTD/svg11.dtd">
<svg version="1.1" xmlns="http://www.w3.org/2000/svg" xmlns:xlink="http://www.w3.org/1999/xlink" viewBox="0 0 20.5381 20.1848">
 <g>
  <rect height="20.1848" opacity="0" width="20.5381" x="0" y="0"/>
  <path d="M20.1767 10.0973C20.1767 15.6656 15.6576 20.1848 10.0875 20.1848C4.52715 20.1848 0 15.6656 0 10.0973C0 4.53691 4.52715 0.00976562 10.0875 0.00976562C15.6576 0.00976562 20.1767 4.53691 20.1767 10.0973ZM4.7787 7.1291C4.7078 7.23632 4.70429 7.30546 4.70429 7.50234L4.70429 13.9641C4.70429 14.2131 4.86835 14.3674 5.12011 14.3674C5.27167 14.3674 5.38436 14.3213 5.51893 14.2256C6.06073 13.7812 6.79101 13.5244 7.54179 13.5244C8.20527 13.5244 8.84472 13.7367 9.38379 14.1844C9.44414 14.2385 9.49199 14.258 9.55058 14.258C9.66328 14.258 9.75293 14.1764 9.75293 14.0592L9.75293 7.19081C9.75293 7.06386 9.73789 7.03378 9.65351 6.90683C9.20234 6.25507 8.31542 5.85468 7.33437 5.85468C6.30702 5.85468 5.23261 6.33144 4.7787 7.1291ZM10.5295 6.90683C10.4434 7.03378 10.4381 7.06386 10.4381 7.19081L10.4381 14.0592C10.4381 14.1764 10.5197 14.258 10.6324 14.258C10.691 14.258 10.7469 14.2385 10.7992 14.1844C11.3383 13.7367 11.9857 13.5244 12.6394 13.5244C13.4 13.5244 14.1303 13.7812 14.6623 14.2256C14.8066 14.3213 14.9113 14.3674 15.0629 14.3674C15.3146 14.3674 15.4867 14.2131 15.4867 13.9641L15.4867 7.50234C15.4867 7.30546 15.4734 7.22831 15.4043 7.1291C14.9486 6.33144 13.876 5.85468 12.8469 5.85468C11.8676 5.85468 10.9887 6.25507 10.5295 6.90683Z" fill="white" fill-opacity="0.85"/>
 </g>
</svg>
