<?xml version="1.0" encoding="UTF-8"?>
<!--Generator: Apple Native CoreSVG 341-->
<!DOCTYPE svg
PUBLIC "-//W3C//DTD SVG 1.1//EN"
       "http://www.w3.org/Graphics/SVG/1.1/DTD/svg11.dtd">
<svg version="1.1" xmlns="http://www.w3.org/2000/svg" xmlns:xlink="http://www.w3.org/1999/xlink" viewBox="0 0 20.5381 20.1848">
 <g>
  <rect height="20.1848" opacity="0" width="20.5381" x="0" y="0"/>
  <path d="M10.0875 20.175C15.6576 20.175 20.1767 15.6559 20.1767 10.0875C20.1767 4.51914 15.6576 0 10.0875 0C4.51914 0 0 4.51914 0 10.0875C0 15.6559 4.51914 20.175 10.0875 20.175ZM10.0875 18.1879C5.60839 18.1879 1.9871 14.5666 1.9871 10.0875C1.9871 5.60839 5.60839 1.9871 10.0875 1.9871C14.5666 1.9871 18.1897 5.60839 18.1897 10.0875C18.1897 14.5666 14.5666 18.1879 10.0875 18.1879Z" fill="white" fill-opacity="0.85"/>
  <path d="M7.56308 15.2043L13.6879 15.2043C13.9344 15.2043 14.1322 14.9967 14.1322 14.752C14.1322 14.5393 13.9904 14.3732 13.8131 14.2998C13.2402 14.0416 13.1301 13.2641 13.7045 12.7143C13.942 12.5076 14.1305 12.259 14.1305 11.7822L14.1305 6.5373C14.1305 5.51913 13.6096 4.98222 12.5914 4.98222L7.57109 4.98222C6.56269 4.98222 6.04179 5.51112 6.04179 6.5373L6.04179 13.6652C6.04179 14.6754 6.56269 15.2043 7.56308 15.2043ZM7.68046 14.3076C7.19589 14.3076 6.93847 14.0264 6.93847 13.5939C6.93847 13.1855 7.23593 12.8963 7.71425 12.8963L12.4277 12.8963C12.473 12.8963 12.5086 12.8883 12.5459 12.8883C12.3498 13.3668 12.3721 13.8789 12.5869 14.3076ZM7.49081 12.0752C7.32929 12.0752 7.19882 11.9527 7.19882 11.7752L7.19882 6.13066C7.19882 5.96112 7.32929 5.8289 7.49081 5.8289C7.66659 5.8289 7.80507 5.96112 7.80507 6.13066L7.80507 11.7752C7.80507 11.9527 7.66659 12.0752 7.49081 12.0752Z" fill="white" fill-opacity="0.85"/>
 </g>
</svg>
