<?xml version="1.0" encoding="UTF-8"?>
<!--Generator: Apple Native CoreSVG 341-->
<!DOCTYPE svg
PUBLIC "-//W3C//DTD SVG 1.1//EN"
       "http://www.w3.org/Graphics/SVG/1.1/DTD/svg11.dtd">
<svg version="1.1" xmlns="http://www.w3.org/2000/svg" xmlns:xlink="http://www.w3.org/1999/xlink" viewBox="0 0 20.5381 20.1848">
 <g>
  <rect height="20.1848" opacity="0" width="20.5381" x="0" y="0"/>
  <path d="M20.1767 10.0973C20.1767 15.6656 15.6576 20.1848 10.0875 20.1848C4.52715 20.1848 0 15.6656 0 10.0973C0 4.53691 4.52715 0.00976562 10.0875 0.00976562C15.6576 0.00976562 20.1767 4.53691 20.1767 10.0973ZM7.47538 4.79531C6.42714 4.79531 5.88144 5.34101 5.88144 6.42128L5.88144 13.8088C5.88144 14.865 6.42714 15.4107 7.46738 15.4107L13.8234 15.4107C14.0832 15.4107 14.2926 15.2094 14.2926 14.9416C14.2926 14.7236 14.141 14.5479 13.9584 14.4727C13.3625 14.1994 13.2506 13.3873 13.8516 12.8242C14.0943 12.6025 14.2908 12.3424 14.2908 11.8604L14.2908 6.42128C14.2908 5.34902 13.7451 4.79531 12.6889 4.79531ZM12.6773 14.4725L7.59003 14.4725C7.08866 14.4725 6.81972 14.1859 6.81972 13.7305C6.81972 13.3105 7.1287 13.0063 7.62382 13.0063L12.5182 13.0063C12.5635 13.0063 12.6008 13.0063 12.6381 12.9982C12.4305 13.4998 12.4527 14.0287 12.6773 14.4725ZM7.72441 5.99511L7.72441 11.8453C7.72441 12.0246 7.57441 12.1568 7.39511 12.1568C7.22382 12.1568 7.08984 12.0246 7.08984 11.8453L7.08984 5.99511C7.08984 5.81406 7.22382 5.67382 7.39511 5.67382C7.57441 5.67382 7.72441 5.82206 7.72441 5.99511Z" fill="white" fill-opacity="0.85"/>
 </g>
</svg>
