<?xml version="1.0" encoding="UTF-8"?>
<!--Generator: Apple Native CoreSVG 341-->
<!DOCTYPE svg
PUBLIC "-//W3C//DTD SVG 1.1//EN"
       "http://www.w3.org/Graphics/SVG/1.1/DTD/svg11.dtd">
<svg version="1.1" xmlns="http://www.w3.org/2000/svg" xmlns:xlink="http://www.w3.org/1999/xlink" viewBox="0 0 20.5381 20.1848">
 <g>
  <rect height="20.1848" opacity="0" width="20.5381" x="0" y="0"/>
  <path d="M20.1767 10.0875C20.1767 15.6478 15.6576 20.175 10.0875 20.175C4.52715 20.175 0 15.6478 0 10.0875C0 4.51914 4.52715 0 10.0875 0C15.6576 0 20.1767 4.51914 20.1767 10.0875ZM8.06757 4.78144C7.07519 4.78144 6.54277 5.32187 6.54277 6.31425L6.54277 14.7064C6.54277 15.1605 6.79628 15.4416 7.17929 15.4416C7.45702 15.4416 7.62284 15.2871 8.06347 14.858L10.0439 12.9078C10.0697 12.8785 10.107 12.8785 10.1328 12.9078L12.123 14.858C12.5557 15.2871 12.718 15.4416 12.9975 15.4416C13.3787 15.4416 13.634 15.1605 13.634 14.7064L13.634 6.31425C13.634 5.32187 13.1016 4.78144 12.1092 4.78144Z" fill="white" fill-opacity="0.85"/>
 </g>
</svg>
