<?xml version="1.0" encoding="UTF-8"?>
<!--Generator: Apple Native CoreSVG 341-->
<!DOCTYPE svg
PUBLIC "-//W3C//DTD SVG 1.1//EN"
       "http://www.w3.org/Graphics/SVG/1.1/DTD/svg11.dtd">
<svg version="1.1" xmlns="http://www.w3.org/2000/svg" xmlns:xlink="http://www.w3.org/1999/xlink" viewBox="0 0 26.5267 22.0156">
 <g>
  <rect height="22.0156" opacity="0" width="26.5267" x="0" y="0"/>
  <path d="M5.37715 16.2461C7.70977 16.2461 9.17891 14.7484 9.17891 12.7099C9.17891 12.0443 8.8879 11.3699 8.50879 10.997C8.07989 10.5842 7.78262 10.4318 7.78262 9.91541C7.78262 9.44998 8.13985 9.12557 8.66211 9.12557C9.02578 9.12557 9.28457 9.24784 9.64668 9.55584C9.95644 9.82127 10.2236 10.1551 10.4144 10.5351C11.7689 10.1853 12.2703 9.32186 12.2703 7.93865C12.2703 7.44393 12.6721 7.03162 13.1668 7.03162C13.6633 7.03162 14.0746 7.44568 14.0746 7.98259C14.0826 10.1338 13.09 11.6588 10.9254 12.2523C10.9432 12.4248 10.9592 12.6035 10.9592 12.7902C10.9592 14.5742 10.191 16.0295 8.87909 16.9748C9.82226 17.5152 11.0019 17.8201 12.2109 17.8201C12.4727 17.8201 12.7602 17.8041 13.2496 17.7881C13.1598 17.3543 13.1117 16.948 13.1117 16.5578C13.1117 10.5355 21.5558 10.9699 21.5558 5.35215C21.5558 3.06074 19.3328 1.45508 17.0646 1.45508C16.8834 1.45508 16.6328 1.49063 16.3787 1.54043C15.5641 0.580664 14.3351 0 13.165 0C11.1404 0 9.75819 1.32305 9.70214 3.25859C9.68436 3.85859 9.30136 4.19452 8.80136 4.19452C8.28359 4.19452 7.89433 3.79824 7.91035 3.21836C7.93613 2.5082 8.08086 1.84785 8.33125 1.25508C7.89687 1.14219 7.4625 1.08887 7.02636 1.08887C4.65429 1.08887 2.86562 2.54961 2.86562 4.34766C2.86562 5.5086 3.72988 6.45997 4.96035 6.45997C5.45683 6.45997 5.86113 6.87403 5.86113 7.36074C5.86113 7.85722 5.45683 8.26953 4.96035 8.26953C3.30059 8.26953 2.06289 7.53124 1.44277 6.36132C0.530078 7.44511 0 8.89882 0 10.4084C0 13.7615 2.16523 16.2461 5.37715 16.2461ZM21.4516 22.0058C23.9211 22.0058 25.225 19.1109 25.225 16.0463C25.225 15.6596 25.209 15.2969 25.201 14.9582C24.368 15.3519 23.367 15.5226 22.2273 15.448C21.7211 15.4135 21.3238 15.0482 21.3238 14.5455C21.3238 14.0437 21.7351 13.6021 22.2414 13.6465C24.5998 13.8373 26.1654 12.5318 26.1654 10.3398C26.1654 8.42011 25.1248 6.79745 23.4414 5.94648C22.1765 12.5094 15.0303 11.773 14.8506 16.1849C14.7928 17.6209 15.8982 18.7531 17.4471 18.7531C17.9256 18.7531 18.1684 18.7353 18.3836 18.7273C18.6521 20.4367 19.7568 22.0058 21.4516 22.0058Z" fill="white" fill-opacity="0.85"/>
 </g>
</svg>
