<?xml version="1.0" encoding="UTF-8"?>
<!--Generator: Apple Native CoreSVG 341-->
<!DOCTYPE svg
PUBLIC "-//W3C//DTD SVG 1.1//EN"
       "http://www.w3.org/Graphics/SVG/1.1/DTD/svg11.dtd">
<svg version="1.1" xmlns="http://www.w3.org/2000/svg" xmlns:xlink="http://www.w3.org/1999/xlink" viewBox="0 0 24.2049 19.7961">
 <g>
  <rect height="19.7961" opacity="0" width="24.2049" x="0" y="0"/>
  <path d="M23.8435 11.8701C23.8435 5.64747 19.073 0.538875 12.9941 0.00293831C12.6553-0.029874 12.3998 0.215828 12.3998 0.554694L12.3998 3.8043C12.3998 4.08907 12.6012 4.30645 12.8842 4.33301C16.6191 4.80957 19.517 8.00293 19.517 11.8701C19.517 13.6332 18.9115 15.2613 17.8488 16.61C17.6945 16.8023 17.7025 17.0471 17.8719 17.2244L20.2322 19.5785C20.4646 19.8144 20.823 19.8109 21.0359 19.559C22.7926 17.4783 23.8435 14.7949 23.8435 11.8701Z" fill="white" fill-opacity="0.85"/>
  <path d="M0 11.8701C0 14.8029 1.05098 17.4863 2.80586 19.5652C3.01875 19.8172 3.36914 19.8109 3.61132 19.5768L5.96992 17.2227C6.13925 17.0453 6.14726 16.8006 5.99296 16.6082C4.92578 15.2613 4.32656 13.6332 4.32656 11.8701C4.32656 8.00293 7.22617 4.80957 10.9594 4.33301C11.2441 4.30645 11.4437 4.08907 11.4437 3.8043L11.4437 0.554694C11.4437 0.215828 11.1883-0.029874 10.8494 0.00293831C4.77226 0.538875 0 5.64747 0 11.8701Z" fill="white" fill-opacity="0.85"/>
  <path d="M7.64062 15.7529C8.03612 15.7529 8.25878 15.5055 8.25878 15.11L8.25878 12.6955L9.32382 12.6955L10.416 15.2672C10.5473 15.5793 10.707 15.7529 11.0492 15.7529C11.3969 15.7529 11.6416 15.5233 11.6416 15.1703C11.6416 15.0098 11.5742 14.8502 11.5086 14.7074L10.5176 12.4436C11.2996 12.0732 11.6805 11.2719 11.6805 10.3752C11.6805 8.87832 10.7482 8.07109 9.30741 8.07109L7.63261 8.07109C7.2539 8.07109 7.0207 8.29824 7.0207 8.70605L7.0207 15.11C7.0207 15.4912 7.21933 15.7529 7.64062 15.7529ZM8.25878 11.7506L8.25878 9.0664L9.18945 9.0664C9.99902 9.0664 10.4336 9.60468 10.4336 10.3965C10.4336 11.1838 10.0488 11.7506 9.1957 11.7506ZM14.784 15.5318C16.1602 15.5318 17.1143 14.7975 17.1143 13.5447C17.1143 12.3984 16.3978 11.9482 15.4521 11.5156L14.741 11.1879C14.1467 10.9133 13.682 10.5996 13.682 10.0459C13.682 9.43535 14.1547 9.13222 14.7732 9.13222C15.4701 9.13222 15.7605 9.58828 15.8812 10.127C15.9432 10.3363 16.118 10.5432 16.4295 10.5432C16.7682 10.5432 16.967 10.3242 16.967 10.033C16.967 9.93379 16.9404 9.7918 16.9103 9.70313C16.6353 8.59512 15.766 8.18476 14.7768 8.18476C13.5053 8.18476 12.5264 8.89258 12.5264 10.1221C12.5264 11.1582 13.1203 11.6893 14.1557 12.1627L14.8605 12.4842C15.4381 12.757 15.9523 13.0291 15.9523 13.6582C15.9523 14.2875 15.5303 14.5764 14.7937 14.5764C14.0578 14.5764 13.7051 14.2332 13.5701 13.5541C13.5037 13.2701 13.2853 13.1281 13.0379 13.1281C12.699 13.1281 12.4728 13.3162 12.4728 13.6533C12.4728 13.7402 12.4959 13.8609 12.5189 13.9621C12.7994 15.0975 13.7211 15.5318 14.784 15.5318ZM14.7785 16.5088C14.9305 16.5088 15.0228 16.4102 15.0228 16.2645L15.0228 7.46816C15.0228 7.32246 14.9305 7.22207 14.7785 7.22207C14.6328 7.22207 14.5324 7.32246 14.5324 7.46816L14.5324 16.2645C14.5324 16.4102 14.6328 16.5088 14.7785 16.5088Z" fill="white" fill-opacity="0.85"/>
 </g>
</svg>
