<?xml version="1.0" encoding="UTF-8"?>
<!--Generator: Apple Native CoreSVG 341-->
<!DOCTYPE svg
PUBLIC "-//W3C//DTD SVG 1.1//EN"
       "http://www.w3.org/Graphics/SVG/1.1/DTD/svg11.dtd">
<svg version="1.1" xmlns="http://www.w3.org/2000/svg" xmlns:xlink="http://www.w3.org/1999/xlink" viewBox="0 0 24.226 20.1848">
 <g>
  <rect height="20.1848" opacity="0" width="24.226" x="0" y="0"/>
  <path d="M0.721518 8.12363C-0.00973073 8.12363-0.190785 8.66894 0.204136 9.22109L2.47249 12.3723C2.78948 12.8092 3.27757 12.8012 3.58831 12.3723L5.8469 9.21308C6.24007 8.66894 6.051 8.12363 5.33929 8.12363ZM22.0239 10.0875C22.0239 4.51914 17.503 0 11.9364 0C6.368 0 1.85687 4.50937 1.84886 10.099C1.85687 10.6476 2.29378 11.0846 2.83441 11.0846C3.38303 11.0846 3.83596 10.6396 3.83596 10.091C3.83596 5.60839 7.45725 1.9871 11.9364 1.9871C16.4155 1.9871 20.0368 5.60839 20.0368 10.0875C20.0368 14.5666 16.4155 18.1879 11.9364 18.1879C9.3096 18.1879 7.0131 16.9437 5.54279 15.0176C5.1469 14.5609 4.58421 14.4129 4.10726 14.7519C3.66214 15.0734 3.55902 15.725 3.99475 16.2355C5.84631 18.6584 8.71858 20.175 11.9364 20.175C17.503 20.175 22.0239 15.6559 22.0239 10.0875Z" fill="white" fill-opacity="0.85"/>
  <path d="M7.70237 13.8512C8.09085 13.8512 8.31174 13.6072 8.31174 13.217L8.31174 10.8131L9.37327 10.8131L10.4539 13.3805C10.5914 13.6873 10.7494 13.8512 11.0784 13.8512C11.4305 13.8512 11.6717 13.625 11.6717 13.2756C11.6717 13.1168 11.6061 12.9688 11.5405 12.826L10.553 10.5646C11.3332 10.2041 11.7088 9.39999 11.7088 8.50858C11.7088 7.02401 10.7774 6.22382 9.3471 6.22382L7.69261 6.22382C7.31917 6.22382 7.08948 6.45721 7.08948 6.85174L7.08948 13.217C7.08948 13.593 7.27659 13.8512 7.70237 13.8512ZM8.31174 9.87695L8.31174 7.21483L9.23265 7.21483C10.0369 7.21483 10.4778 7.74159 10.4778 8.53964C10.4778 9.32167 10.0868 9.87695 9.24691 9.87695ZM14.7815 13.6398C16.1551 13.6398 17.1004 12.9125 17.1004 11.6668C17.1004 10.5311 16.3813 10.0764 15.4444 9.6455L14.7465 9.32929C14.1539 9.05468 13.6928 8.74277 13.6928 8.1828C13.6928 7.58378 14.1619 7.28065 14.7707 7.28065C15.4739 7.28065 15.7608 7.72694 15.8735 8.27187C15.9434 8.47323 16.1147 8.67831 16.4147 8.67831C16.7578 8.67831 16.9549 8.46913 16.9549 8.17167C16.9549 8.08222 16.9284 7.94198 16.8983 7.84706C16.6188 6.75233 15.7645 6.34374 14.7743 6.34374C13.5213 6.34374 12.5512 7.04003 12.5512 8.26698C12.5512 9.28632 13.1336 9.81386 14.1602 10.2838L14.8598 10.6098C15.4321 10.8826 15.9508 11.1467 15.9508 11.7723C15.9508 12.3998 15.5323 12.6949 14.7912 12.6949C14.0668 12.6949 13.7158 12.3455 13.5809 11.6682C13.5082 11.3939 13.2996 11.2537 13.0477 11.2537C12.7221 11.2537 12.4959 11.44 12.4959 11.7656C12.4959 11.8588 12.519 11.9795 12.5438 12.0727C12.8127 13.2072 13.7354 13.6398 14.7815 13.6398ZM14.784 14.6035C14.928 14.6035 15.0266 14.5111 15.0266 14.3592L15.0266 5.63241C15.0266 5.48046 14.928 5.38983 14.784 5.38983C14.6303 5.38983 14.5397 5.48046 14.5397 5.63241L14.5397 14.3592C14.5397 14.5111 14.6303 14.6035 14.784 14.6035Z" fill="white" fill-opacity="0.85"/>
 </g>
</svg>
