<?xml version="1.0" encoding="UTF-8"?>
<!--Generator: Apple Native CoreSVG 341-->
<!DOCTYPE svg
PUBLIC "-//W3C//DTD SVG 1.1//EN"
       "http://www.w3.org/Graphics/SVG/1.1/DTD/svg11.dtd">
<svg version="1.1" xmlns="http://www.w3.org/2000/svg" xmlns:xlink="http://www.w3.org/1999/xlink" viewBox="0 0 24.2049 19.8808">
 <g>
  <rect height="19.8808" opacity="0" width="24.2049" x="0" y="0"/>
  <path d="M23.8435 11.9178C23.8435 9.01855 22.8031 6.3457 21.0623 4.27031C20.8547 4.02011 20.498 4.02011 20.2621 4.2623L17.9578 6.56484C17.7547 6.76796 17.7467 7.05097 17.9232 7.27363C18.9185 8.56269 19.517 10.1768 19.517 11.9178C19.517 13.6826 18.9115 15.3107 17.8488 16.6611C17.6945 16.8535 17.7025 17.0982 17.8719 17.2756L20.2242 19.6279C20.4646 19.8683 20.8133 19.8683 21.0359 19.6066C22.7908 17.5277 23.8435 14.8443 23.8435 11.9178Z" fill="white" fill-opacity="0.85"/>
  <path d="M11.9178 4.32656C13.6783 4.32656 15.2941 4.933 16.5912 5.93183C16.8041 6.09863 17.0791 6.0791 17.2787 5.87773L19.5812 3.57343C19.8252 3.33125 19.8154 2.9791 19.5582 2.76797C17.4926 1.04043 14.8232 0 11.9178 0C9.02031 0 6.35097 1.04043 4.28711 2.76797C4.02988 2.9791 4.01836 3.33125 4.2623 3.57343L6.56484 5.87773C6.76445 6.0791 7.05097 6.09863 7.28163 5.92207C8.56894 4.933 10.1768 4.32656 11.9178 4.32656Z" fill="white" fill-opacity="0.85"/>
  <path d="M0 11.9178C0 14.8461 1.05625 17.5348 2.81465 19.6137C3.02402 19.8719 3.3789 19.8683 3.61308 19.6279L5.96367 17.2756C6.133 17.0982 6.15077 16.8535 5.99472 16.6611C4.93378 15.3107 4.32656 13.6826 4.32656 11.9178C4.32656 10.1768 4.91699 8.56269 5.92031 7.27363C6.08886 7.05097 6.08886 6.76796 5.88574 6.56484L3.58144 4.2623C3.33926 4.02011 2.98711 4.02187 2.77422 4.2791C1.03867 6.35097 0 9.02031 0 11.9178Z" fill="white" fill-opacity="0.85"/>
  <path d="M7.64062 15.7953C8.03612 15.7953 8.25878 15.5479 8.25878 15.1523L8.25878 12.7379L9.32382 12.7379L10.416 15.3096C10.5473 15.6217 10.707 15.7953 11.0492 15.7953C11.3969 15.7953 11.6416 15.5656 11.6416 15.2127C11.6416 15.0522 11.5742 14.8926 11.5086 14.7498L10.5176 12.4859C11.2996 12.1156 11.6805 11.3142 11.6805 10.4176C11.6805 8.92069 10.7482 8.11347 9.30741 8.11347L7.63261 8.11347C7.2539 8.11347 7.0207 8.34061 7.0207 8.74842L7.0207 15.1523C7.0207 15.5336 7.21933 15.7953 7.64062 15.7953ZM8.25878 11.793L8.25878 9.10878L9.18945 9.10878C9.99902 9.10878 10.4336 9.64706 10.4336 10.4389C10.4336 11.2262 10.0488 11.793 9.1957 11.793ZM14.784 15.5742C16.1602 15.5742 17.1143 14.8398 17.1143 13.5871C17.1143 12.4408 16.3978 11.9906 15.4521 11.558L14.741 11.2303C14.1467 10.9557 13.682 10.642 13.682 10.0883C13.682 9.47772 14.1547 9.1746 14.7732 9.1746C15.4701 9.1746 15.7605 9.63065 15.8812 10.1693C15.9432 10.3787 16.118 10.5855 16.4295 10.5855C16.7682 10.5855 16.967 10.3666 16.967 10.0754C16.967 9.97617 16.9404 9.83417 16.9103 9.7455C16.6353 8.63749 15.766 8.22714 14.7768 8.22714C13.5053 8.22714 12.5264 8.93495 12.5264 10.1644C12.5264 11.2006 13.1203 11.7316 14.1557 12.2051L14.8605 12.5266C15.4381 12.7994 15.9523 13.0715 15.9523 13.7006C15.9523 14.3299 15.5303 14.6188 14.7937 14.6188C14.0578 14.6188 13.7051 14.2756 13.5701 13.5965C13.5037 13.3125 13.2853 13.1705 13.0379 13.1705C12.699 13.1705 12.4728 13.3586 12.4728 13.6957C12.4728 13.7826 12.4959 13.9033 12.5189 14.0045C12.7994 15.1398 13.7211 15.5742 14.784 15.5742ZM14.7785 16.5512C14.9305 16.5512 15.0228 16.4525 15.0228 16.3068L15.0228 7.51054C15.0228 7.36483 14.9305 7.26444 14.7785 7.26444C14.6328 7.26444 14.5324 7.36483 14.5324 7.51054L14.5324 16.3068C14.5324 16.4525 14.6328 16.5512 14.7785 16.5512Z" fill="white" fill-opacity="0.85"/>
 </g>
</svg>
