<?xml version="1.0" encoding="UTF-8"?>
<!--Generator: Apple Native CoreSVG 341-->
<!DOCTYPE svg
PUBLIC "-//W3C//DTD SVG 1.1//EN"
       "http://www.w3.org/Graphics/SVG/1.1/DTD/svg11.dtd">
<svg version="1.1" xmlns="http://www.w3.org/2000/svg" xmlns:xlink="http://www.w3.org/1999/xlink" viewBox="0 0 22.7515 21.4965">
 <g>
  <rect height="21.4965" opacity="0" width="22.7515" x="0" y="0"/>
  <path d="M12.481 0.359374L20.9545 5.24941C21.351 5.47734 21.5363 5.7664 21.5363 6.09277C21.5363 6.53886 21.1851 6.98046 20.5865 6.98046L19.7447 6.98046L19.7447 18.2742L20.3117 18.2742C20.7437 18.2742 20.9947 18.5297 20.9947 18.9572L20.9947 19.7158L21.499 19.7158C21.9797 19.7158 22.3902 20.1148 22.3902 20.5972C22.3902 21.0849 21.9797 21.4867 21.499 21.4867L0.881441 21.4867C0.399022 21.4867 0 21.0832 0 20.5972C0 20.1148 0.399022 19.7158 0.881441 19.7158L1.44999 19.7158L1.44999 18.9572C1.44999 18.5297 1.70898 18.2742 2.14101 18.2742L2.69999 18.2742L2.69999 6.98046L1.85995 6.98046C1.25957 6.98046 0.908396 6.53886 0.908396 6.09277C0.908396 5.7664 1.08574 5.47734 1.49023 5.24941L9.96366 0.359374C10.3523 0.125976 10.7969 0 11.2183 0C11.6398 0 12.0764 0.125976 12.481 0.359374ZM13.7205 7.32557L13.7205 8.00916C12.6234 8.09178 11.8002 8.74256 11.8002 9.8492C11.8002 10.8371 12.3611 11.3316 13.3527 11.7863L13.7205 11.9521L13.7205 14.0379C13.2015 13.9685 12.9244 13.6459 12.8135 13.0984C12.7453 12.8269 12.5412 12.6912 12.2982 12.6912C11.9781 12.6912 11.7529 12.8748 11.7529 13.1949C11.7529 13.2801 11.7697 13.4025 11.8025 13.4912C12.0447 14.4762 12.8062 14.9096 13.7205 14.9691L13.7205 15.6687C13.7205 15.8082 13.8146 15.9006 13.9523 15.9006C14.09 15.9006 14.1904 15.8082 14.1904 15.6687L14.1904 14.9691C15.3709 14.8928 16.1881 14.2056 16.1881 13.0793C16.1881 11.9928 15.4967 11.5596 14.5947 11.1555L14.1904 10.9771L14.1904 8.94392C14.673 9.03455 14.8986 9.40701 14.982 9.84607C15.0555 10.0429 15.216 10.2435 15.515 10.2435C15.8465 10.2435 16.039 10.0353 16.039 9.74861C16.039 9.65565 16.0125 9.51815 15.9806 9.43573C15.7377 8.48162 15.0258 8.07576 14.1904 8.00916L14.1904 7.32557C14.1904 7.17811 14.09 7.08748 13.9523 7.08748C13.8146 7.08748 13.7205 7.17811 13.7205 7.32557ZM7.14823 7.89549C6.77851 7.89549 6.5578 8.11014 6.5578 8.51072L6.5578 14.5625C6.5578 14.9347 6.74394 15.184 7.166 15.184C7.54276 15.184 7.76268 14.941 7.76268 14.5625L7.76268 12.2924L8.75116 12.2924L9.78007 14.7135C9.90507 15.0148 10.0586 15.184 10.3918 15.184C10.7287 15.184 10.9724 14.9588 10.9724 14.6131C10.9724 14.4605 10.8953 14.3135 10.8359 14.1672L9.90369 12.0529C10.651 11.7031 11.0113 10.941 11.0113 10.0801C11.0113 8.65545 10.1166 7.89549 8.73651 7.89549ZM15.0611 13.1945C15.0611 13.7144 14.7394 13.9988 14.1904 14.0459L14.1904 12.1654C14.6693 12.4027 15.0611 12.6578 15.0611 13.1945ZM9.79589 10.1049C9.79589 10.8556 9.42538 11.3797 8.63905 11.3797L7.76268 11.3797L7.76268 8.85056L8.62479 8.85056C9.38359 8.85056 9.79589 9.36209 9.79589 10.1049ZM13.7205 10.7523C13.2639 10.5097 12.9191 10.2299 12.9191 9.77303C12.9191 9.27986 13.2594 8.99548 13.7205 8.93416Z" fill="white" fill-opacity="0.85"/>
 </g>
</svg>
