<?xml version="1.0" encoding="UTF-8"?>
<!--Generator: Apple Native CoreSVG 341-->
<!DOCTYPE svg
PUBLIC "-//W3C//DTD SVG 1.1//EN"
       "http://www.w3.org/Graphics/SVG/1.1/DTD/svg11.dtd">
<svg version="1.1" xmlns="http://www.w3.org/2000/svg" xmlns:xlink="http://www.w3.org/1999/xlink" viewBox="0 0 20.5381 20.1848">
 <g>
  <rect height="20.1848" opacity="0" width="20.5381" x="0" y="0"/>
  <path d="M20.1767 10.0973C20.1767 15.6656 15.6576 20.1848 10.0875 20.1848C4.52715 20.1848 0 15.6656 0 10.0973C0 4.53691 4.52715 0.00976562 10.0875 0.00976562C15.6576 0.00976562 20.1767 4.53691 20.1767 10.0973ZM11.468 10.3023L11.468 10.6932C11.468 11.065 11.2541 11.2834 10.885 11.2834L9.30781 11.2834C8.93867 11.2834 8.7248 11.065 8.7248 10.6932L8.7248 10.3023C7.32695 10.2012 5.96191 9.94804 4.45624 9.39765L4.45624 12.9469C4.45624 14.0096 4.99413 14.5412 6.04882 14.5412L14.1439 14.5412C15.1986 14.5412 15.7445 14.0096 15.7445 12.9469L15.7445 9.39765C14.2309 9.94804 12.8658 10.2012 11.468 10.3023ZM8.42148 4.68222C7.57656 4.68222 7.05097 5.16699 7.05097 5.96952L7.05097 6.48788L6.04882 6.48788C4.99413 6.48788 4.45624 7.02128 4.45624 8.07421L4.45624 8.43066C6.28574 9.18281 8.13222 9.47558 10.0955 9.47558C12.0605 9.47558 13.907 9.18281 15.7445 8.43066L15.7445 8.07421C15.7445 7.02128 15.1986 6.48788 14.1439 6.48788L13.1418 6.48788L13.1418 5.96952C13.1418 5.16699 12.6162 4.68222 11.7713 4.68222ZM12.1047 6.01659L12.1047 6.48788L8.08808 6.48788L8.08808 6.01659C8.08808 5.78105 8.24003 5.64589 8.49335 5.64589L11.6994 5.64589C11.9447 5.64589 12.1047 5.78105 12.1047 6.01659Z" fill="white" fill-opacity="0.85"/>
 </g>
</svg>
