<?xml version="1.0" encoding="UTF-8"?>
<!--Generator: Apple Native CoreSVG 341-->
<!DOCTYPE svg
PUBLIC "-//W3C//DTD SVG 1.1//EN"
       "http://www.w3.org/Graphics/SVG/1.1/DTD/svg11.dtd">
<svg version="1.1" xmlns="http://www.w3.org/2000/svg" xmlns:xlink="http://www.w3.org/1999/xlink" viewBox="0 0 20.5381 20.1848">
 <g>
  <rect height="20.1848" opacity="0" width="20.5381" x="0" y="0"/>
  <path d="M20.1767 10.0973C20.1767 15.6656 15.6576 20.1848 10.0875 20.1848C4.52715 20.1848 0 15.6656 0 10.0973C0 4.53691 4.52715 0.00976562 10.0875 0.00976562C15.6576 0.00976562 20.1767 4.53691 20.1767 10.0973ZM6.92128 5.6C5.47324 5.6 4.64335 6.44316 4.64335 7.87167L4.64335 11.6512C4.64335 13.0975 5.47324 13.9371 6.92128 13.9371L10.1867 13.9371L11.9783 15.5539C12.2135 15.7838 12.3625 15.8699 12.5666 15.8699C12.8506 15.8699 13.0254 15.6613 13.0254 15.3428L13.0254 13.9371L13.2766 13.9371C14.6789 13.9371 15.5281 13.0975 15.5281 11.6512L15.5281 7.87167C15.5281 6.44316 14.7 5.6 13.2502 5.6Z" fill="white" fill-opacity="0.85"/>
 </g>
</svg>
