<?xml version="1.0" encoding="UTF-8"?>
<!--Generator: Apple Native CoreSVG 341-->
<!DOCTYPE svg
PUBLIC "-//W3C//DTD SVG 1.1//EN"
       "http://www.w3.org/Graphics/SVG/1.1/DTD/svg11.dtd">
<svg version="1.1" xmlns="http://www.w3.org/2000/svg" xmlns:xlink="http://www.w3.org/1999/xlink" viewBox="0 0 31.1119 25.4793">
 <g>
  <rect height="25.4793" opacity="0" width="31.1119" x="0" y="0"/>
  <path d="M22.5988 4.90117L16.1326 4.90117C12.5144 4.90117 10.3529 7.10117 10.3529 10.6377L10.3529 16.1705C10.3529 17.294 10.5761 18.2801 11.0004 19.0995L8.52578 21.2885C7.93105 21.8113 7.57968 22.0547 7.08613 22.0547C6.39824 22.0547 5.99355 21.5709 5.99355 20.8049L5.99355 18.1892L5.5916 18.1892C2.76327 18.1892 1.06621 16.5086 1.06621 13.6103L1.06621 6.0287C1.06621 3.13046 2.72109 1.44355 5.65312 1.44355L18.11 1.44355C20.6425 1.44355 22.2157 2.69677 22.5988 4.90117Z" fill="white" fill-opacity="0.85"/>
  <path d="M29.6826 10.6377L29.6826 16.1705C29.6826 18.8832 28.1693 20.4162 25.3972 20.4162L25.2213 20.4162L25.2213 22.818C25.2213 23.576 24.8228 24.0598 24.1349 24.0598C23.6494 24.0598 23.306 23.8066 22.7033 23.2935L19.3502 20.4162L16.1326 20.4162C13.3201 20.4162 11.7805 18.8912 11.7805 16.1705L11.7805 10.6377C11.7805 7.88007 13.3201 6.3207 16.1326 6.3207L25.3322 6.3207C28.1429 6.3207 29.6826 7.88007 29.6826 10.6377ZM19.7693 16.2914C19.7693 16.8228 20.2123 17.233 20.7701 17.233C21.3306 17.233 21.7736 16.8309 21.7736 16.2914C21.7736 15.7537 21.3351 15.3498 20.7701 15.3498C20.2043 15.3498 19.7693 15.7617 19.7693 16.2914ZM19.9 10.6967L20.0207 13.6738C20.0392 14.1617 20.2982 14.4234 20.7781 14.4234C21.2402 14.4234 21.4957 14.1697 21.5222 13.6721L21.6429 10.7064C21.666 10.1857 21.2881 9.81757 20.7683 9.81757C20.2469 9.81757 19.8769 10.1777 19.9 10.6967Z" fill="white" fill-opacity="0.85"/>
 </g>
</svg>
