<?xml version="1.0" encoding="UTF-8"?>
<!--Generator: Apple Native CoreSVG 341-->
<!DOCTYPE svg
PUBLIC "-//W3C//DTD SVG 1.1//EN"
       "http://www.w3.org/Graphics/SVG/1.1/DTD/svg11.dtd">
<svg version="1.1" xmlns="http://www.w3.org/2000/svg" xmlns:xlink="http://www.w3.org/1999/xlink" viewBox="0 0 30.0402 30.0415">
 <g>
  <rect height="30.0415" opacity="0" width="30.0402" x="0" y="0"/>
  <path d="M19.0924 7.24733L8.54469 7.24733C6.69059 7.24733 5.81031 8.17839 5.81031 9.9737L5.81031 17.4339C5.81031 19.2292 6.69059 20.1682 8.54469 20.1682L9.86441 20.1682C10.4209 20.1682 10.6601 20.3891 10.6601 20.9622L10.6601 23.7503L13.7587 20.6817C14.172 20.2639 14.4623 20.1682 15.0486 20.1682L21.1341 20.1682C22.9785 20.1682 23.8588 19.2292 23.8588 17.4339L23.8588 9.9737C23.8588 9.94475 23.8585 9.91601 23.8561 9.88945L25.5369 8.20866C25.694 8.71622 25.772 9.28993 25.772 9.92097L25.772 17.4946C25.772 20.3928 24.1252 22.0815 21.1869 22.0815L15.1591 22.0815L11.8084 25.0409C11.1398 25.635 10.7375 25.9012 10.1841 25.9012C9.40836 25.9012 8.94743 25.3514 8.94743 24.4887L8.94743 22.0815L8.42243 22.0815C5.59411 22.0815 3.89704 20.4008 3.89704 17.4946L3.89704 9.92097C3.89704 7.01472 5.55192 5.33406 8.48395 5.33406L21.006 5.33406Z" fill="white" fill-opacity="0.85"/>
  <path d="M16.248 14.1397L18.307 13.2493L26.7232 4.83307L25.2101 3.328L16.8019 11.7442L15.8652 13.7471C15.7677 13.9676 16.0238 14.2301 16.248 14.1397ZM27.4767 4.07956L28.1765 3.36373C28.5685 2.97174 28.5773 2.41843 28.2049 2.05124L27.9406 1.78874C27.5982 1.45163 27.0351 1.49499 26.6707 1.86745L25.9619 2.55847Z" fill="white" fill-opacity="0.85"/>
 </g>
</svg>
