<?xml version="1.0" encoding="UTF-8"?>
<!--Generator: Apple Native CoreSVG 341-->
<!DOCTYPE svg
PUBLIC "-//W3C//DTD SVG 1.1//EN"
       "http://www.w3.org/Graphics/SVG/1.1/DTD/svg11.dtd">
<svg version="1.1" xmlns="http://www.w3.org/2000/svg" xmlns:xlink="http://www.w3.org/1999/xlink" viewBox="0 0 28.9777 22.6402">
 <g>
  <rect height="22.6402" opacity="0" width="28.9777" x="0" y="0"/>
  <path d="M21.6289 4.60918L21.6289 4.90117L19.7156 4.90117L19.7156 4.66992C19.7156 2.8746 18.8274 1.93729 16.9893 1.93729L4.63964 1.93729C2.79354 1.93729 1.91327 2.8746 1.91327 4.66992L1.91327 12.1301C1.91327 13.9254 2.79354 14.8564 4.63964 14.8564L5.84433 14.8564C6.39277 14.8564 6.63827 15.0773 6.63827 15.6584L6.63827 18.4385L9.73866 15.3779C10.0708 15.0422 10.3183 14.9093 10.7106 14.8702C10.72 15.6109 10.8487 16.2582 11.0919 16.8044L7.78827 19.7371C7.11171 20.3232 6.70761 20.5894 6.16406 20.5894C5.37851 20.5894 4.92559 20.0494 4.92559 19.185L4.92559 16.7697L4.52363 16.7697C1.6873 16.7697 0 15.0891 0 12.1908L0 4.60918C0 1.71093 1.64687 0.0240237 4.58515 0.0240237L17.042 0.0240237C19.982 0.0240237 21.6289 1.71093 21.6289 4.60918Z" fill="white" fill-opacity="0.85"/>
  <path d="M16.3238 11.0246L23.0584 11.0246C23.5047 11.0246 23.84 10.6752 23.84 10.2475C23.84 9.79765 23.5082 9.45703 23.0584 9.45703L16.3238 9.45703C15.8695 9.45703 15.5439 9.79941 15.5439 10.2475C15.5439 10.6787 15.8713 11.0246 16.3238 11.0246ZM16.3238 14.5887L21.2131 14.5887C21.6496 14.5887 21.9992 14.2605 21.9992 13.8178C21.9992 13.3795 21.6514 13.0211 21.2131 13.0211L16.3238 13.0211C15.8695 13.0211 15.5439 13.383 15.5439 13.8178C15.5439 14.2605 15.8713 14.5887 16.3238 14.5887ZM15.0566 18.9967L18.0519 18.9967L21.3084 21.7879C21.9516 22.3361 22.4004 22.6402 22.9166 22.6402C23.6888 22.6402 24.1453 22.0879 24.1453 21.242L24.1453 18.9967L24.331 18.9967C27.1031 18.9967 28.6164 17.4637 28.6164 14.751L28.6164 9.21817C28.6164 6.46055 27.0767 4.90117 24.2642 4.90117L15.0566 4.90117C12.2459 4.90117 10.7062 6.46055 10.7062 9.21817L10.7062 14.751C10.7062 17.4717 12.2459 18.9967 15.0566 18.9967ZM15.2054 17.1256C13.4179 17.1256 12.6064 16.25 12.6064 14.5416L12.6064 9.36601C12.6064 7.65585 13.4179 6.77401 15.2054 6.77401L24.1252 6.77401C25.9047 6.77401 26.7242 7.65585 26.7242 9.36601L26.7242 14.5336C26.7242 16.25 25.9047 17.1256 24.1252 17.1256L23.2654 17.1256C22.791 17.1256 22.4326 17.4182 22.4326 17.9967L22.4326 20.5377L19.2232 17.6395C18.85 17.2822 18.4711 17.1256 18.0162 17.1256Z" fill="white" fill-opacity="0.85"/>
 </g>
</svg>
