<?xml version="1.0" encoding="UTF-8"?>
<!--Generator: Apple Native CoreSVG 341-->
<!DOCTYPE svg
PUBLIC "-//W3C//DTD SVG 1.1//EN"
       "http://www.w3.org/Graphics/SVG/1.1/DTD/svg11.dtd">
<svg version="1.1" xmlns="http://www.w3.org/2000/svg" xmlns:xlink="http://www.w3.org/1999/xlink" viewBox="0 0 21.9902 21.9316">
 <g>
  <rect height="21.9316" opacity="0" width="21.9902" x="0" y="0"/>
  <path d="M10.8336 21.9316C11.3961 21.9316 11.8256 21.66 12.276 20.9141L14.0369 18.0266L17.042 18.0266C19.982 18.0266 21.6289 16.3379 21.6289 13.4396L21.6289 5.86601C21.6289 2.96777 19.982 1.2791 17.042 1.2791L4.58515 1.2791C1.64687 1.2791 0 2.95977 0 5.86601L0 13.4396C0 16.3459 1.64687 18.0266 4.58515 18.0266L7.61973 18.0266L9.3877 20.9176C9.83281 21.6564 10.2693 21.9316 10.8336 21.9316ZM10.8336 19.9961L9.16406 16.9342C8.82246 16.2854 8.55996 16.1133 7.84199 16.1133L4.63964 16.1133C2.79354 16.1133 1.91327 15.1742 1.91327 13.3789L1.91327 5.91875C1.91327 4.12343 2.79354 3.19237 4.63964 3.19237L16.9893 3.19237C18.8274 3.19237 19.7156 4.12343 19.7156 5.91875L19.7156 13.3789C19.7156 15.1742 18.8274 16.1133 16.9893 16.1133L13.8164 16.1133C13.0967 16.1133 12.8289 16.2818 12.4891 16.9342Z" fill="white" fill-opacity="0.85"/>
 </g>
</svg>
