<?xml version="1.0" encoding="UTF-8"?>
<!--Generator: Apple Native CoreSVG 341-->
<!DOCTYPE svg
PUBLIC "-//W3C//DTD SVG 1.1//EN"
       "http://www.w3.org/Graphics/SVG/1.1/DTD/svg11.dtd">
<svg version="1.1" xmlns="http://www.w3.org/2000/svg" xmlns:xlink="http://www.w3.org/1999/xlink" viewBox="0 0 20.5381 20.1848">
 <g>
  <rect height="20.1848" opacity="0" width="20.5381" x="0" y="0"/>
  <path d="M10.0875 20.175C15.6576 20.175 20.1767 15.6559 20.1767 10.0875C20.1767 4.51914 15.6576 0 10.0875 0C4.51914 0 0 4.51914 0 10.0875C0 15.6559 4.51914 20.175 10.0875 20.175ZM10.0875 18.1879C5.60839 18.1879 1.9871 14.5666 1.9871 10.0875C1.9871 5.60839 5.60839 1.9871 10.0875 1.9871C14.5666 1.9871 18.1897 5.60839 18.1897 10.0875C18.1897 14.5666 14.5666 18.1879 10.0875 18.1879ZM10.0875 19.1322C10.9529 19.1322 11.7873 19.0045 12.5658 18.7463L12.5658 6.83378C12.5658 6.13456 12.1674 5.68281 11.4912 5.68281L5.15467 5.68281C4.48124 5.68281 4.07655 6.13456 4.07655 6.83378L4.07655 16.4744C5.55507 18.1119 7.68984 19.1322 10.0875 19.1322ZM6.34511 16.4932C6.21015 16.4932 6.12226 16.3937 6.12226 16.2588L6.12226 15.2271C6.12226 15.0922 6.21015 14.998 6.34511 14.998L7.40429 14.998C7.53124 14.998 7.6369 15.0922 7.6369 15.2271L7.6369 16.2588C7.6369 16.3937 7.53124 16.4932 7.40429 16.4932ZM9.22206 16.4932C9.09062 16.4932 8.99921 16.3937 8.99921 16.2588L8.99921 15.2271C8.99921 15.0922 9.09062 14.998 9.22206 14.998L10.2848 14.998C10.4162 14.998 10.5139 15.0922 10.5139 15.2271L10.5139 16.2588C10.5139 16.3937 10.4162 16.4932 10.2848 16.4932ZM6.34511 13.9572C6.21015 13.9572 6.12226 13.8578 6.12226 13.7246L6.12226 12.6877C6.12226 12.5643 6.21015 12.4568 6.34511 12.4568L7.40429 12.4568C7.53124 12.4568 7.6369 12.5643 7.6369 12.6877L7.6369 13.7246C7.6369 13.8578 7.53124 13.9572 7.40429 13.9572ZM9.22206 13.9572C9.09062 13.9572 8.99921 13.8578 8.99921 13.7246L8.99921 12.6877C8.99921 12.5643 9.09062 12.4568 9.22206 12.4568L10.2848 12.4568C10.4162 12.4568 10.5139 12.5643 10.5139 12.6877L10.5139 13.7246C10.5139 13.8578 10.4162 13.9572 10.2848 13.9572ZM6.34511 11.416C6.21015 11.416 6.12226 11.3166 6.12226 11.1834L6.12226 10.1562C6.12226 10.023 6.21015 9.91386 6.34511 9.91386L7.40429 9.91386C7.53124 9.91386 7.6369 10.023 7.6369 10.1562L7.6369 11.1834C7.6369 11.3166 7.53124 11.416 7.40429 11.416ZM9.22206 11.416C9.09062 11.416 8.99921 11.3166 8.99921 11.1834L8.99921 10.1562C8.99921 10.023 9.09062 9.91386 9.22206 9.91386L10.2848 9.91386C10.4162 9.91386 10.5139 10.023 10.5139 10.1562L10.5139 11.1834C10.5139 11.3166 10.4162 11.416 10.2848 11.416ZM6.34511 8.89882C6.21015 8.89882 6.12226 8.79667 6.12226 8.66972L6.12226 7.63457C6.12226 7.49335 6.21015 7.40371 6.34511 7.40371L7.40429 7.40371C7.53124 7.40371 7.6369 7.49335 7.6369 7.63457L7.6369 8.66972C7.6369 8.79667 7.53124 8.89882 7.40429 8.89882ZM9.22206 8.89882C9.09062 8.89882 8.99921 8.79667 8.99921 8.66972L8.99921 7.63457C8.99921 7.49335 9.09062 7.40371 9.22206 7.40371L10.2848 7.40371C10.4162 7.40371 10.5139 7.49335 10.5139 7.63457L10.5139 8.66972C10.5139 8.79667 10.4162 8.89882 10.2848 8.89882ZM13.3275 18.4439C14.8334 17.7824 16.1354 16.6766 16.9828 15.2846L16.9828 9.28183C16.9828 8.57109 16.5799 8.13261 15.9064 8.13261L13.3275 8.13261ZM14.7291 15.2391C14.6172 15.2391 14.5355 15.1592 14.5355 15.0615L14.5355 14.2203C14.5355 14.1244 14.6154 14.0268 14.7291 14.0268L15.5908 14.0268C15.692 14.0268 15.7719 14.1227 15.7719 14.2203L15.7719 15.0615C15.7719 15.1592 15.692 15.2391 15.5908 15.2391ZM14.7291 13.0969C14.6154 13.0969 14.5355 13.017 14.5355 12.9033L14.5355 12.0816C14.5355 11.9662 14.6154 11.8943 14.7291 11.8943L15.5908 11.8943C15.6937 11.8943 15.7719 11.9645 15.7719 12.0816L15.7719 12.9033C15.7719 13.0188 15.6937 13.0969 15.5908 13.0969ZM14.7291 10.9564C14.6154 10.9564 14.5355 10.8783 14.5355 10.7664L14.5355 9.93496C14.5355 9.82929 14.6154 9.74941 14.7291 9.74941L15.5908 9.74941C15.6937 9.74941 15.7719 9.82578 15.7719 9.93496L15.7719 10.7664C15.7719 10.8818 15.692 10.9564 15.5908 10.9564Z" fill="white" fill-opacity="0.85"/>
 </g>
</svg>
