<?xml version="1.0" encoding="UTF-8"?>
<!--Generator: Apple Native CoreSVG 341-->
<!DOCTYPE svg
PUBLIC "-//W3C//DTD SVG 1.1//EN"
       "http://www.w3.org/Graphics/SVG/1.1/DTD/svg11.dtd">
<svg version="1.1" xmlns="http://www.w3.org/2000/svg" xmlns:xlink="http://www.w3.org/1999/xlink" viewBox="0 0 22.8381 25.973">
 <g>
  <rect height="25.973" opacity="0" width="22.8381" x="0" y="0"/>
  <path d="M21.0896 8.12967L21.0896 22.6592C21.0896 23.8348 20.4246 24.5762 19.3174 24.5762L16.0858 24.5762C16.4223 24.0477 16.6072 23.3923 16.6072 22.6592L16.6072 19.6629L18.1611 19.6629C18.3627 19.6629 18.4861 19.5359 18.4861 19.3521L18.4861 17.8623C18.4861 17.6687 18.3627 17.5453 18.1611 17.5453L16.6072 17.5453L16.6072 16.0633L18.1611 16.0633C18.3627 16.0633 18.4861 15.9363 18.4861 15.7445L18.4861 14.2662C18.4861 14.0709 18.3627 13.9457 18.1611 13.9457L16.6072 13.9457L16.6072 12.4637L18.1611 12.4637C18.3627 12.4637 18.4861 12.3305 18.4861 12.1467L18.4861 10.6586C18.4861 10.4713 18.3627 10.3381 18.1611 10.3381L16.6072 10.3381L16.6072 6.20644L19.3174 6.20644C20.4246 6.20644 21.0896 6.93808 21.0896 8.12967Z" fill="white" fill-opacity="0.85"/>
  <path d="M4.45057 7.64863L4.45057 5.73339C4.45057 5.48124 4.60506 5.30273 4.8537 5.30273L6.87245 5.30273C7.12108 5.30273 7.2996 5.48124 7.2996 5.73339L7.2996 7.64863C7.2996 7.90878 7.12108 8.07753 6.87245 8.07753L4.8537 8.07753C4.60506 8.07753 4.45057 7.90878 4.45057 7.64863ZM9.31561 7.64863L9.31561 5.73339C9.31561 5.48124 9.47987 5.30273 9.73475 5.30273L11.7473 5.30273C12.0021 5.30273 12.1664 5.48124 12.1664 5.73339L12.1664 7.64863C12.1664 7.90878 12.0021 8.07753 11.7473 8.07753L9.73475 8.07753C9.47987 8.07753 9.31561 7.90878 9.31561 7.64863ZM4.45057 11.7424L4.45057 9.81913C4.45057 9.56699 4.60506 9.39648 4.8537 9.39648L6.87245 9.39648C7.12108 9.39648 7.2996 9.56699 7.2996 9.81913L7.2996 11.7424C7.2996 12.0025 7.12108 12.1668 6.87245 12.1668L4.8537 12.1668C4.60506 12.1668 4.45057 12.0025 4.45057 11.7424ZM9.31561 11.7424L9.31561 9.81913C9.31561 9.56699 9.47987 9.39648 9.73475 9.39648L11.7473 9.39648C12.0021 9.39648 12.1664 9.56699 12.1664 9.81913L12.1664 11.7424C12.1664 12.0025 12.0021 12.1668 11.7473 12.1668L9.73475 12.1668C9.47987 12.1668 9.31561 12.0025 9.31561 11.7424ZM4.45057 15.8299L4.45057 13.9129C4.45057 13.6545 4.60506 13.484 4.8537 13.484L6.87245 13.484C7.12108 13.484 7.2996 13.6545 7.2996 13.9129L7.2996 15.8299C7.2996 16.0803 7.12108 16.2605 6.87245 16.2605L4.8537 16.2605C4.60506 16.2605 4.45057 16.0803 4.45057 15.8299ZM9.31561 15.8299L9.31561 13.9129C9.31561 13.6545 9.47987 13.484 9.73475 13.484L11.7473 13.484C12.0021 13.484 12.1664 13.6545 12.1664 13.9129L12.1664 15.8299C12.1664 16.0803 12.0021 16.2605 11.7473 16.2605L9.73475 16.2605C9.47987 16.2605 9.31561 16.0803 9.31561 15.8299ZM3.16112 24.5762L13.4478 24.5762C14.5568 24.5762 15.2299 23.8348 15.2299 22.6592L15.2299 3.30409C15.2299 2.1205 14.5568 1.38711 13.4478 1.38711L3.16112 1.38711C2.05214 1.38711 1.3791 2.1205 1.3791 3.30409L1.3791 22.6592C1.3791 23.8348 2.05214 24.5762 3.16112 24.5762ZM5.83749 22.7682L5.83749 19.9301C5.83749 19.3853 6.17284 19.051 6.70429 19.051L9.91268 19.051C10.4521 19.051 10.7715 19.3853 10.7715 19.9301L10.7715 22.7682Z" fill="white" fill-opacity="0.85"/>
 </g>
</svg>
