<?xml version="1.0" encoding="UTF-8"?>
<!--Generator: Apple Native CoreSVG 341-->
<!DOCTYPE svg
PUBLIC "-//W3C//DTD SVG 1.1//EN"
       "http://www.w3.org/Graphics/SVG/1.1/DTD/svg11.dtd">
<svg version="1.1" xmlns="http://www.w3.org/2000/svg" xmlns:xlink="http://www.w3.org/1999/xlink" viewBox="0 0 20.5381 20.1848">
 <g>
  <rect height="20.1848" opacity="0" width="20.5381" x="0" y="0"/>
  <path d="M20.1767 10.0875C20.1767 15.6478 15.6576 20.175 10.0875 20.175C4.52715 20.175 0 15.6478 0 10.0875C0 4.51914 4.52715 0 10.0875 0C15.6576 0 20.1767 4.51914 20.1767 10.0875ZM5.14999 13.8955C4.89706 13.8955 4.68495 14.1094 4.68495 14.3543C4.68495 14.6107 4.89706 14.8326 5.14999 14.8326L15.0084 14.8326C15.2648 14.8326 15.4689 14.6125 15.4689 14.3543C15.4689 14.1094 15.2648 13.8955 15.0084 13.8955ZM5.86191 8.17988C5.63827 8.17988 5.51581 8.3121 5.51581 8.52246L5.51581 8.59257C5.51581 8.81894 5.64003 8.93964 5.86191 8.93964L6.05566 8.93964L6.05566 12.8393L5.86191 12.8393C5.64003 12.8393 5.51581 12.9777 5.51581 13.1898L5.51581 13.2582C5.51581 13.4766 5.63827 13.6088 5.86191 13.6088L7.12988 13.6088C7.35175 13.6088 7.49023 13.4766 7.49023 13.2582L7.49023 13.1898C7.49023 12.9777 7.34999 12.8393 7.12988 12.8393L6.93261 12.8393L6.93261 8.93964L7.12988 8.93964C7.34999 8.93964 7.49023 8.81894 7.49023 8.59257L7.49023 8.52246C7.49023 8.3121 7.35175 8.17988 7.12988 8.17988ZM8.25663 8.17988C8.04628 8.17988 7.90781 8.3121 7.90781 8.52246L7.90781 8.59257C7.90781 8.81894 8.04628 8.93964 8.25663 8.93964L8.46191 8.93964L8.46191 12.8393L8.25663 12.8393C8.04628 12.8393 7.90781 12.9777 7.90781 13.1898L7.90781 13.2582C7.90781 13.4766 8.04628 13.6088 8.25663 13.6088L9.52011 13.6088C9.74199 13.6088 9.87246 13.4766 9.87246 13.2582L9.87246 13.1898C9.87246 12.9777 9.74023 12.8393 9.52011 12.8393L9.32285 12.8393L9.32285 8.93964L9.52011 8.93964C9.74023 8.93964 9.87246 8.81894 9.87246 8.59257L9.87246 8.52246C9.87246 8.3121 9.74199 8.17988 9.52011 8.17988ZM10.6549 8.17988C10.4348 8.17988 10.3043 8.3121 10.3043 8.52246L10.3043 8.59257C10.3043 8.81894 10.4348 8.93964 10.6549 8.93964L10.8521 8.93964L10.8521 12.8393L10.6549 12.8393C10.4348 12.8393 10.3043 12.9777 10.3043 13.1898L10.3043 13.2582C10.3043 13.4766 10.4348 13.6088 10.6549 13.6088L11.9264 13.6088C12.1305 13.6088 12.2689 13.4766 12.2689 13.2582L12.2689 13.1898C12.2689 12.9777 12.1305 12.8393 11.9264 12.8393L11.7131 12.8393L11.7131 8.93964L11.9264 8.93964C12.1305 8.93964 12.2689 8.81894 12.2689 8.59257L12.2689 8.52246C12.2689 8.3121 12.1305 8.17988 11.9264 8.17988ZM13.0451 8.17988C12.833 8.17988 12.6865 8.3121 12.6865 8.52246L12.6865 8.59257C12.6865 8.81894 12.8348 8.93964 13.0451 8.93964L13.2504 8.93964L13.2504 12.8393L13.0451 12.8393C12.8348 12.8393 12.6865 12.9777 12.6865 13.1898L12.6865 13.2582C12.6865 13.4766 12.833 13.6088 13.0451 13.6088L14.3148 13.6088C14.5367 13.6088 14.6689 13.4766 14.6689 13.2582L14.6689 13.1898C14.6689 12.9777 14.5367 12.8393 14.3148 12.8393L14.1291 12.8393L14.1291 8.93964L14.3148 8.93964C14.5367 8.93964 14.6689 8.81894 14.6689 8.59257L14.6689 8.52246C14.6689 8.3121 14.5367 8.17988 14.3148 8.17988ZM9.46874 4.65449L5.40468 6.98711C5.2121 7.09004 5.11093 7.26133 5.11093 7.41836C5.11093 7.65976 5.29374 7.89492 5.59902 7.89492L14.576 7.89492C14.8928 7.89492 15.0658 7.65976 15.0658 7.41836C15.0658 7.26133 14.9727 7.09004 14.7721 6.98711L10.724 4.65449C10.5207 4.51953 10.2943 4.45742 10.0875 4.45742C9.88242 4.45742 9.65605 4.51953 9.46874 4.65449Z" fill="white" fill-opacity="0.85"/>
 </g>
</svg>
