<?xml version="1.0" encoding="UTF-8"?>
<!--Generator: Apple Native CoreSVG 341-->
<!DOCTYPE svg
PUBLIC "-//W3C//DTD SVG 1.1//EN"
       "http://www.w3.org/Graphics/SVG/1.1/DTD/svg11.dtd">
<svg version="1.1" xmlns="http://www.w3.org/2000/svg" xmlns:xlink="http://www.w3.org/1999/xlink" viewBox="0 0 20.5381 20.1812">
 <g>
  <rect height="20.1812" opacity="0" width="20.5381" x="0" y="0"/>
  <path d="M0 10.0875C0 15.606 4.5707 20.175 10.0875 20.175C15.6141 20.175 20.1767 15.606 20.1767 10.0875C20.1767 4.56094 15.606 0 10.0795 0C4.56269 0 0 4.56094 0 10.0875ZM1.9951 10.0875L10.0715 10.0875L6.03105 3.06425C7.2121 2.37069 8.60273 1.9871 10.0795 1.9871C11.558 1.9871 12.9469 2.37069 14.1297 3.06425L10.0715 10.0875L18.1897 10.0875C18.1977 13.1059 16.5682 15.7264 14.1412 17.109L10.0715 10.0875L6.02929 17.1027C3.60858 15.7086 1.9951 13.0978 1.9951 10.0875Z" fill="white" fill-opacity="0.85"/>
 </g>
</svg>
