<?xml version="1.0" encoding="UTF-8"?>
<!--Generator: Apple Native CoreSVG 341-->
<!DOCTYPE svg
PUBLIC "-//W3C//DTD SVG 1.1//EN"
       "http://www.w3.org/Graphics/SVG/1.1/DTD/svg11.dtd">
<svg version="1.1" xmlns="http://www.w3.org/2000/svg" xmlns:xlink="http://www.w3.org/1999/xlink" viewBox="0 0 26.3049 24.293">
 <g>
  <rect height="24.293" opacity="0" width="26.3049" x="0" y="0"/>
  <path d="M25.0322 13.1303C25.6463 12.8471 25.9435 12.4062 25.9435 11.9662C25.9435 11.5342 25.6463 11.1174 25.0322 10.9L20.3238 9.25761L22.2998 5.00508C22.3939 4.79375 22.4428 4.57012 22.4428 4.37129C22.4428 3.76973 21.9814 3.3041 21.3623 3.3041C21.1564 3.3041 20.9303 3.34492 20.7084 3.45938L16.3305 5.66719L14.123 0.858006C13.8631 0.266407 13.3994 0 12.9726 0C12.5441 0 12.0885 0.266407 11.8205 0.858006L9.62108 5.66719L5.23515 3.45938C5.01327 3.34492 4.78886 3.3041 4.58124 3.3041C3.96211 3.3041 3.50078 3.76973 3.50078 4.37129C3.50078 4.57012 3.54961 4.79375 3.65176 5.00508L5.62148 9.25761L0.911326 10.9C0.305273 11.1094 0 11.5422 0 11.9742C0 12.4062 0.305273 12.8471 0.911326 13.1303L5.45781 15.2281L3.13046 20.3533C3.02031 20.5824 2.97148 20.8141 2.97148 21.0209C2.97148 21.5727 3.35722 21.9902 3.90429 21.9902C4.11991 21.9902 4.36034 21.9254 4.59999 21.7869L10.2402 18.4609L11.9103 23.376C12.116 23.9738 12.5601 24.2517 12.9726 24.2517C13.3914 24.2517 13.8275 23.9738 14.0332 23.376L15.7113 18.4609L21.3435 21.7869C21.5832 21.9254 21.8236 21.9822 22.0392 21.9822C22.5783 21.9822 22.9801 21.5807 22.9801 21.0289C22.9801 20.8221 22.9232 20.5824 22.8131 20.3533L20.4857 15.2281ZM23.3369 11.9822L23.3369 12.0418L18.6181 14.0482C18.3728 14.1457 18.2471 14.3148 18.2471 14.508C18.2471 14.5736 18.2764 14.6641 18.3154 14.7359L20.7361 19.6297L20.6926 19.6795L15.2869 16.298C15.1849 16.2404 15.0654 16.1838 14.9556 16.1838C14.7783 16.1838 14.618 16.308 14.5586 16.5227L12.9984 21.5918L12.9469 21.5918L11.393 16.5227C11.3256 16.308 11.167 16.1838 10.9879 16.1838C10.8781 16.1838 10.7586 16.2404 10.6566 16.298L5.26072 19.6813L5.21092 19.6315L7.62811 14.7359C7.67518 14.6641 7.69647 14.5736 7.69647 14.508C7.69647 14.3148 7.57069 14.1457 7.33339 14.0482L2.60662 12.0418L2.60662 11.9822L7.48905 10.4615C7.74237 10.3818 7.87616 10.2127 7.87616 10.0195C7.87616 9.93788 7.85487 9.84745 7.8078 9.76757L5.5828 5.48495L5.62635 5.44315L9.97968 7.76425C10.0736 7.82186 10.1834 7.86249 10.2949 7.86249C10.4642 7.86249 10.6166 7.76229 10.692 7.56366L12.9451 2.35487L12.9967 2.35487L15.2516 7.56366C15.3269 7.76229 15.4793 7.86249 15.6486 7.86249C15.7601 7.86249 15.8699 7.82186 15.9719 7.76425L20.3154 5.44139L20.359 5.48319L18.1357 9.76757C18.0887 9.84745 18.0674 9.93788 18.0674 10.0195C18.0674 10.2127 18.2012 10.3818 18.4545 10.4615Z" fill="white" fill-opacity="0.85"/>
 </g>
</svg>
