<?xml version="1.0" encoding="UTF-8"?>
<!--Generator: Apple Native CoreSVG 341-->
<!DOCTYPE svg
PUBLIC "-//W3C//DTD SVG 1.1//EN"
       "http://www.w3.org/Graphics/SVG/1.1/DTD/svg11.dtd">
<svg version="1.1" xmlns="http://www.w3.org/2000/svg" xmlns:xlink="http://www.w3.org/1999/xlink" viewBox="0 0 22.8484 23.6324">
 <g>
  <rect height="23.6324" opacity="0" width="22.8484" x="0" y="0"/>
  <path d="M1.50429 17.9174C1.50429 18.5492 1.67831 19.0674 2.00234 19.4506L2.00234 22.0021C2.00234 22.832 2.57304 23.409 3.41268 23.409L4.58964 23.409C5.42928 23.409 6.00623 22.832 6.00623 22.0021L6.00623 20.5037C7.59295 20.6094 9.35174 20.6644 11.2435 20.6644C13.1353 20.6644 14.9021 20.6076 16.4889 20.5037L16.4889 22.0021C16.4889 22.832 17.0578 23.409 17.8974 23.409L19.0744 23.409C19.914 23.409 20.4927 22.832 20.4927 22.0021L20.4927 19.4541C20.8168 19.0691 20.9908 18.551 20.9908 17.9174L20.9908 2.74706C20.9908 1.38359 20.2082 0.571287 18.7816 0.385156C16.767 0.128711 14.0486 0 11.2435 0C8.43847 0 5.7121 0.131446 3.70546 0.385156C2.2789 0.574803 1.50429 1.3871 1.50429 2.74706ZM11.2435 19.1162C8.29511 19.1162 5.85995 18.991 4.15096 18.7656C3.34901 18.6592 3.05252 18.2277 3.05252 17.467L3.05252 3.19745C3.05252 2.44471 3.43084 1.99725 4.15096 1.89882C5.82792 1.67167 8.40272 1.54823 11.2435 1.54823C14.0603 1.54823 16.6351 1.68222 18.3361 1.90057C19.1381 2.0035 19.4426 2.43143 19.4426 3.19745L19.4426 17.467C19.4426 18.2312 19.1381 18.6627 18.3361 18.7621C16.6031 18.9769 14.168 19.1162 11.2435 19.1162ZM5.00252 13.6887C8.7162 14.2861 13.7637 14.2836 17.4943 13.6887C18.1412 13.576 18.4605 13.199 18.4605 12.5131L18.4605 4.15331C18.4605 3.38221 18.0986 2.94843 17.3586 2.87655C13.6347 2.5035 8.89393 2.50975 5.14979 2.87655C4.41776 2.94843 4.03631 3.38221 4.03631 4.15331L4.03631 12.5131C4.03631 13.199 4.36365 13.5742 5.00252 13.6887ZM1.50429 9.9283L1.50429 3.7662L1.05956 3.7662C0.44238 3.7662 0 4.16425 0 4.75389L0 8.94686C0 9.5365 0.44238 9.9283 1.05956 9.9283ZM20.9908 9.9283L21.4275 9.9283C22.0447 9.9283 22.4871 9.5365 22.4871 8.94686L22.4871 4.75389C22.4871 4.16425 22.0447 3.7662 21.4275 3.7662L20.9908 3.7662ZM5.67967 17.6553C6.36932 17.6553 6.89295 17.1236 6.89295 16.442C6.89295 15.7541 6.36932 15.2305 5.67967 15.2305C4.99178 15.2305 4.46815 15.7541 4.46815 16.442C4.46815 17.1236 4.99178 17.6553 5.67967 17.6553ZM8.95799 17.3178L13.5211 17.3178C14.0455 17.3178 14.4164 16.9451 14.4164 16.4242C14.4164 15.8935 14.0455 15.5307 13.5211 15.5307L8.95799 15.5307C8.42557 15.5307 8.05467 15.8935 8.05467 16.4242C8.05467 16.9451 8.42557 17.3178 8.95799 17.3178ZM16.8074 17.6553C17.4953 17.6553 18.0269 17.1236 18.0269 16.442C18.0269 15.7541 17.4953 15.2305 16.8074 15.2305C16.1258 15.2305 15.6021 15.7541 15.6021 16.442C15.6021 17.1236 16.1258 17.6553 16.8074 17.6553Z" fill="white" fill-opacity="0.85"/>
 </g>
</svg>
