<?xml version="1.0" encoding="UTF-8"?>
<!--Generator: Apple Native CoreSVG 341-->
<!DOCTYPE svg
PUBLIC "-//W3C//DTD SVG 1.1//EN"
       "http://www.w3.org/Graphics/SVG/1.1/DTD/svg11.dtd">
<svg version="1.1" xmlns="http://www.w3.org/2000/svg" xmlns:xlink="http://www.w3.org/1999/xlink" viewBox="0 0 23.1209 17.3433">
 <g>
  <rect height="17.3433" opacity="0" width="23.1209" x="0" y="0"/>
  <path d="M8.22851 0C2.50996 0 0 2.58633 0 8.05722L0 14.2137C0 16.2654 1.08769 17.3371 3.14745 17.3371L19.6121 17.3371C21.6719 17.3371 22.7596 16.2574 22.7596 14.2137L22.7596 8.05722C22.7596 2.58633 20.2496 0 14.531 0ZM8.26191 1.91503L14.4896 1.91503C18.9295 1.91503 20.8463 3.82558 20.8463 7.97968L20.8463 14.0529C20.8463 14.9557 20.3541 15.4238 19.4852 15.4238L3.2744 15.4238C2.38768 15.4238 1.91327 14.9557 1.91327 14.0529L1.91327 7.97968C1.91327 3.82558 3.82831 1.91503 8.26191 1.91503Z" fill="white" fill-opacity="0.85"/>
 </g>
</svg>
