<?xml version="1.0" encoding="UTF-8"?>
<!--Generator: Apple Native CoreSVG 341-->
<!DOCTYPE svg
PUBLIC "-//W3C//DTD SVG 1.1//EN"
       "http://www.w3.org/Graphics/SVG/1.1/DTD/svg11.dtd">
<svg version="1.1" xmlns="http://www.w3.org/2000/svg" xmlns:xlink="http://www.w3.org/1999/xlink" viewBox="0 0 25.9582 17.8977">
 <g>
  <rect height="17.8977" opacity="0" width="25.9582" x="0" y="0"/>
  <path d="M0 10.0414C0 12.1928 0.378709 13.2114 1.97539 14.0385L7.45058 16.8625C9.51601 17.9338 11.0264 18.2063 13.3412 17.5264L21.7824 15.0637C24.4601 14.2711 25.5969 12.6481 25.5969 10.0414L25.5969 3.85453C25.5969 1.97446 24.3793 0.732858 22.5072 0.732858L3.10566 0.72485C1.23535 0.72485 0 1.95844 0 3.83051ZM1.91327 10.0414L1.91327 3.94769C1.91327 3.15081 2.42948 2.6346 3.2246 2.6346L22.3963 2.64437C23.1754 2.64437 23.6836 3.16683 23.6836 3.97172L23.6836 10.0414C23.6836 11.7555 23.0021 12.7479 21.226 13.2692L13.2568 15.637C11.2502 16.2372 10.1178 16.0702 8.47499 15.2346L3.16483 12.517C2.17792 12.0178 1.91327 11.4024 1.91327 10.0414Z" fill="white" fill-opacity="0.85"/>
 </g>
</svg>
