<?xml version="1.0" encoding="UTF-8"?>
<!--Generator: Apple Native CoreSVG 341-->
<!DOCTYPE svg
PUBLIC "-//W3C//DTD SVG 1.1//EN"
       "http://www.w3.org/Graphics/SVG/1.1/DTD/svg11.dtd">
<svg version="1.1" xmlns="http://www.w3.org/2000/svg" xmlns:xlink="http://www.w3.org/1999/xlink" viewBox="0 0 14.065 24.0875">
 <g>
  <rect height="24.0875" opacity="0" width="14.065" x="0" y="0"/>
  <path d="M3.66132 18.5729C3.66132 21.8156 5.61776 24.084 8.68162 24.084C11.7455 24.084 13.7037 21.8156 13.7037 18.5729L13.7037 5.52089C13.7037 2.27011 11.7455 0 8.68162 0C5.61776 0 3.66132 2.27011 3.66132 5.52089ZM0 18.5729C0 21.5564 1.73164 23.8219 4.58202 24.0387C3.1162 22.7963 2.27421 20.8654 2.27421 18.5729L2.27421 5.52089C2.27421 3.2248 3.11796 1.28418 4.57753 0.0595707C1.73164 0.264845 0 2.52754 0 5.52089Z" fill="white" fill-opacity="0.85"/>
 </g>
</svg>
