<?xml version="1.0" encoding="UTF-8"?>
<!--Generator: Apple Native CoreSVG 341-->
<!DOCTYPE svg
PUBLIC "-//W3C//DTD SVG 1.1//EN"
       "http://www.w3.org/Graphics/SVG/1.1/DTD/svg11.dtd">
<svg version="1.1" xmlns="http://www.w3.org/2000/svg" xmlns:xlink="http://www.w3.org/1999/xlink" viewBox="0 0 25.6007 26.8582">
 <g>
  <rect height="26.8582" opacity="0" width="25.6007" x="0" y="0"/>
  <path d="M23.7369 6.89823L23.7369 19.96C23.7369 22.9477 21.9964 25.2001 19.1573 25.4139C20.6103 24.1833 21.4547 22.2449 21.4547 19.96L21.4547 6.89823C21.4547 4.60572 20.6047 2.66475 19.1426 1.43742C21.9904 1.64555 23.7369 3.913 23.7369 6.89823Z" fill="white" fill-opacity="0.85"/>
  <path d="M20.0756 6.89823L20.0756 19.96C20.0756 23.2027 18.1093 25.4711 15.0535 25.4711C11.9896 25.4711 10.0252 23.2027 10.0252 19.96L10.0252 17.7115L12.9801 15.1058C14.0086 14.1855 14.0246 12.6975 12.9801 11.7656L10.0252 9.15167L10.0252 6.89823C10.0252 3.65546 11.9896 1.38711 15.0535 1.38711C18.1093 1.38711 20.0756 3.65546 20.0756 6.89823Z" fill="white" fill-opacity="0.85"/>
  <path d="M2.36054 14.3738L9.02871 14.3738C9.57656 14.3738 9.97304 13.9598 9.97304 13.426C9.97304 12.8939 9.57656 12.4799 9.02871 12.4799L2.36054 12.4799C1.80468 12.4799 1.4082 12.8939 1.4082 13.426C1.4082 13.9598 1.80468 14.3738 2.36054 14.3738ZM7.51972 10.7316L7.51972 16.1451C7.51972 16.9863 8.37597 17.3457 9.00507 16.792L12.0871 14.0711C12.5051 13.7055 12.5131 13.1758 12.0871 12.8004L9.00507 10.0795C8.39648 9.52852 7.51972 9.84609 7.51972 10.7316Z" fill="white" fill-opacity="0.85"/>
 </g>
</svg>
