<?xml version="1.0" encoding="UTF-8"?>
<!--Generator: Apple Native CoreSVG 341-->
<!DOCTYPE svg
PUBLIC "-//W3C//DTD SVG 1.1//EN"
       "http://www.w3.org/Graphics/SVG/1.1/DTD/svg11.dtd">
<svg version="1.1" xmlns="http://www.w3.org/2000/svg" xmlns:xlink="http://www.w3.org/1999/xlink" viewBox="0 0 14.065 24.0875">
 <g>
  <rect height="24.0875" opacity="0" width="14.065" x="0" y="0"/>
  <path d="M10.0504 18.5729L10.0504 5.52089C10.0504 2.27011 8.08592 0 5.02206 0C1.96621 0 0 2.27011 0 5.52089L0 18.5729C0 21.8156 1.96621 24.084 5.02206 24.084C8.08592 24.084 10.0504 21.8156 10.0504 18.5729ZM13.7037 18.5729L13.7037 5.52089C13.7037 2.52754 11.9801 0.264845 9.13592 0.0595707C10.5857 1.28418 11.4295 3.2248 11.4295 5.52089L11.4295 18.5729C11.4295 20.8654 10.5875 22.7963 9.12967 24.0387C11.9801 23.8219 13.7037 21.5564 13.7037 18.5729Z" fill="white" fill-opacity="0.85"/>
 </g>
</svg>
