<?xml version="1.0" encoding="UTF-8"?>
<!--Generator: Apple Native CoreSVG 341-->
<!DOCTYPE svg
PUBLIC "-//W3C//DTD SVG 1.1//EN"
       "http://www.w3.org/Graphics/SVG/1.1/DTD/svg11.dtd">
<svg version="1.1" xmlns="http://www.w3.org/2000/svg" xmlns:xlink="http://www.w3.org/1999/xlink" viewBox="0 0 14.065 24.0875">
 <g>
  <rect height="24.0875" opacity="0" width="14.065" x="0" y="0"/>
  <path d="M3.66132 18.5729C3.66132 21.8156 5.61776 24.084 8.68162 24.084C11.7455 24.084 13.7037 21.8156 13.7037 18.5729L13.7037 5.52089C13.7037 2.27011 11.7455 0 8.68162 0C5.61776 0 3.66132 2.27011 3.66132 5.52089ZM5.57283 18.5729L5.57283 5.52089C5.57283 3.44608 6.79197 1.91151 8.68162 1.91151C10.573 1.91151 11.8002 3.44608 11.8002 5.52089L11.8002 18.5729C11.8002 20.6477 10.573 22.1742 8.68162 22.1742C6.79197 22.1742 5.57283 20.6477 5.57283 18.5729ZM0 18.5729C0 21.9393 2.22109 24.084 5.70917 24.084L8.68162 24.084L8.68162 22.1742L5.70917 22.1742C3.39882 22.1742 1.91327 20.7713 1.91327 18.5729L1.91327 5.52089C1.91327 3.32245 3.39882 1.91151 5.70917 1.91151L8.68162 1.91151L8.68162 0L5.70917 0C2.22109 0 0 2.14648 0 5.52089Z" fill="white" fill-opacity="0.85"/>
 </g>
</svg>
