<?xml version="1.0" encoding="UTF-8"?>
<!--Generator: Apple Native CoreSVG 341-->
<!DOCTYPE svg
PUBLIC "-//W3C//DTD SVG 1.1//EN"
       "http://www.w3.org/Graphics/SVG/1.1/DTD/svg11.dtd">
<svg version="1.1" xmlns="http://www.w3.org/2000/svg" xmlns:xlink="http://www.w3.org/1999/xlink" viewBox="0 0 18.5894 18.2316">
 <g>
  <rect height="18.2316" opacity="0" width="18.5894" x="0" y="0"/>
  <path d="M3.20351 18.2281L15.0246 18.2281C17.1404 18.2281 18.2281 17.1502 18.2281 15.0646L18.2281 3.17148C18.2281 1.08769 17.1404 0 15.0246 0L3.20351 0C1.0957 0 0 1.08769 0 3.17148L0 15.0646C0 17.1502 1.0957 18.2281 3.20351 18.2281ZM3.31444 16.3148C2.40643 16.3148 1.91327 15.8465 1.91327 14.8977L1.91327 3.34023C1.91327 2.39139 2.40643 1.91503 3.31444 1.91503L14.9137 1.91503C15.8137 1.91503 16.3148 2.39139 16.3148 3.34023L16.3148 14.8977C16.3148 15.8465 15.8137 16.3148 14.9137 16.3148Z" fill="white" fill-opacity="0.85"/>
  <path d="M9.11718 14.5852C12.1291 14.5852 14.5736 12.1406 14.5736 9.1207C14.5736 6.10878 12.1291 3.66425 9.11718 3.66425C6.09902 3.66425 3.65448 6.10878 3.65448 9.1207C3.65448 12.1406 6.09902 14.5852 9.11718 14.5852ZM9.11718 13.1494C6.88788 13.1494 5.08846 11.35 5.08846 9.1207C5.08846 6.89941 6.88788 5.09999 9.11718 5.09999C11.3402 5.09999 13.1397 6.89941 13.1397 9.1207C13.1397 11.35 11.3402 13.1494 9.11718 13.1494ZM9.11718 12.1162C10.7633 12.1162 12.1047 10.7748 12.1047 9.1207C12.1047 7.47636 10.7633 6.13495 9.11718 6.13495C7.46483 6.13495 6.12342 7.47636 6.12342 9.1207C6.12342 10.7748 7.46483 12.1162 9.11718 12.1162Z" fill="white" fill-opacity="0.85"/>
 </g>
</svg>
