<?xml version="1.0" encoding="UTF-8"?>
<!--Generator: Apple Native CoreSVG 341-->
<!DOCTYPE svg
PUBLIC "-//W3C//DTD SVG 1.1//EN"
       "http://www.w3.org/Graphics/SVG/1.1/DTD/svg11.dtd">
<svg version="1.1" xmlns="http://www.w3.org/2000/svg" xmlns:xlink="http://www.w3.org/1999/xlink" viewBox="0 0 24.4453 25.1371">
 <g>
  <rect height="25.1371" opacity="0" width="24.4453" x="0" y="0"/>
  <path d="M24.084 15.0455L24.084 18.0197C24.084 21.506 21.9375 23.7271 18.5729 23.7271L5.51112 23.7271C2.14648 23.7271 0 21.506 0 18.0197L0 15.0455C0 11.9816 2.26836 10.0154 5.51112 10.0154L7.75128 10.0154L9.44225 11.9269L5.51112 11.9269C3.43632 11.9269 1.91151 13.1558 1.91151 15.0455C1.91151 16.9351 3.43632 18.1543 5.51112 18.1543L18.5729 18.1543C20.6397 18.1543 22.1725 16.9351 22.1725 15.0455C22.1725 13.1558 20.6397 11.9269 18.5729 11.9269L14.6314 11.9269L16.3277 10.0154L18.5729 10.0154C21.8156 10.0154 24.084 11.9816 24.084 15.0455ZM18.5729 20.0658L5.51112 20.0658C4.14165 20.0658 2.94597 19.7154 2.02478 19.077C2.39187 20.7729 3.67901 21.8138 5.51112 21.8138L18.5729 21.8138C20.405 21.8138 21.6921 20.7729 22.0592 19.077C21.138 19.7154 19.9423 20.0658 18.5729 20.0658Z" fill="white" fill-opacity="0.85"/>
  <path d="M11.0973 2.35253L11.0973 9.0207C11.0973 9.56679 11.5113 9.97304 12.0434 9.97304C12.5771 9.97304 12.9912 9.56679 12.9912 9.0207L12.9912 2.35253C12.9912 1.79668 12.5771 1.40019 12.0434 1.40019C11.5113 1.40019 11.0973 1.79668 11.0973 2.35253ZM14.7394 7.50996L9.32598 7.50996C8.48477 7.50996 8.12539 8.36796 8.6791 8.99531L11.4 12.0791C11.7656 12.4953 12.2953 12.5033 12.6707 12.0791L15.3916 8.99531C15.9426 8.38847 15.625 7.50996 14.7394 7.50996Z" fill="white" fill-opacity="0.85"/>
 </g>
</svg>
