<?xml version="1.0" encoding="UTF-8"?>
<!--Generator: Apple Native CoreSVG 341-->
<!DOCTYPE svg
PUBLIC "-//W3C//DTD SVG 1.1//EN"
       "http://www.w3.org/Graphics/SVG/1.1/DTD/svg11.dtd">
<svg version="1.1" xmlns="http://www.w3.org/2000/svg" xmlns:xlink="http://www.w3.org/1999/xlink" viewBox="0 0 25.6007 24.084">
 <g>
  <rect height="24.084" opacity="0" width="25.6007" x="0" y="0"/>
  <path d="M23.7369 5.51112L23.7369 18.5648C23.7369 21.9375 21.5158 24.084 18.0277 24.084L15.0535 24.084C11.9896 24.084 10.0252 21.8139 10.0252 18.5648L10.0252 16.3224L11.9349 14.6345L11.9349 18.5648C11.9349 20.6379 13.1558 22.1725 15.0535 22.1725C16.9431 22.1725 18.164 20.6379 18.164 18.5648L18.164 5.51112C18.164 3.43632 16.9431 1.91151 15.0535 1.91151C13.1558 1.91151 11.9349 3.43632 11.9349 5.51112L11.9349 9.45337L10.0252 7.76288L10.0252 5.51112C10.0252 2.26836 11.9896 0 15.0535 0L18.0277 0C21.5158 0 23.7369 2.14472 23.7369 5.51112ZM20.0756 5.51112L20.0756 18.5648C20.0756 19.9381 19.7243 21.1365 19.0846 22.0592C20.7807 21.6921 21.8218 20.4038 21.8218 18.5648L21.8218 5.51112C21.8218 3.67111 20.7812 2.38959 19.0858 2.02427C19.7248 2.94554 20.0756 4.14141 20.0756 5.51112Z" fill="white" fill-opacity="0.85"/>
  <path d="M2.36054 12.985L9.02871 12.985C9.57656 12.985 9.97304 12.5726 9.97304 12.0309C9.97304 11.5068 9.57656 11.0848 9.02871 11.0848L2.36054 11.0848C1.80468 11.0848 1.4082 11.5068 1.4082 12.0309C1.4082 12.5726 1.80468 12.985 2.36054 12.985ZM7.51972 9.33652L7.51972 14.7562C7.51972 15.5975 8.37597 15.9586 9.00507 15.4031L12.0871 12.676C12.5051 12.3086 12.5131 11.7869 12.0871 11.4133L9.00507 8.69063C8.39648 8.14141 7.51972 8.45899 7.51972 9.33652Z" fill="white" fill-opacity="0.85"/>
 </g>
</svg>
