<?xml version="1.0" encoding="UTF-8"?>
<!--Generator: Apple Native CoreSVG 341-->
<!DOCTYPE svg
PUBLIC "-//W3C//DTD SVG 1.1//EN"
       "http://www.w3.org/Graphics/SVG/1.1/DTD/svg11.dtd">
<svg version="1.1" xmlns="http://www.w3.org/2000/svg" xmlns:xlink="http://www.w3.org/1999/xlink" viewBox="0 0 24.8585 24.084">
 <g>
  <rect height="24.084" opacity="0" width="24.8585" x="0" y="0"/>
  <path d="M1.13144 18.5648L1.13144 5.51112C1.13144 2.14472 3.35253 0 6.84061 0L9.81482 0C12.8787 0 14.8431 2.26836 14.8431 5.51112L14.8431 7.75605L12.9316 9.45252L12.9316 5.51112C12.9316 3.43632 11.7125 1.91151 9.81482 1.91151C7.92341 1.91151 6.70427 3.43632 6.70427 5.51112L6.70427 18.5648C6.70427 20.6379 7.92341 22.1725 9.81482 22.1725C11.7125 22.1725 12.9316 20.6379 12.9316 18.5648L12.9316 14.6353L14.8431 16.3292L14.8431 18.5648C14.8431 21.8139 12.8787 24.084 9.81482 24.084L6.84061 24.084C3.35253 24.084 1.13144 21.9375 1.13144 18.5648ZM3.04471 5.51112L3.04471 18.5648C3.04471 20.4039 4.08713 21.6922 5.78376 22.0593C5.14402 21.1365 4.79276 19.9381 4.79276 18.5648L4.79276 5.51112C4.79276 4.14139 5.14357 2.94551 5.78257 2.02424C4.08664 2.38951 3.04471 3.67105 3.04471 5.51112Z" fill="white" fill-opacity="0.85"/>
  <path d="M22.5078 12.985C23.0619 12.985 23.4601 12.5726 23.4601 12.0309C23.4601 11.5068 23.0619 11.0848 22.5078 11.0848L15.8396 11.0848C15.2918 11.0848 14.8873 11.5068 14.8873 12.0309C14.8873 12.5726 15.2918 12.985 15.8396 12.985ZM17.3486 9.33652C17.3486 8.45899 16.4718 8.14141 15.8632 8.69063L12.7812 11.4133C12.3552 11.7869 12.3632 12.3086 12.7812 12.676L15.8632 15.4031C16.4923 15.9586 17.3486 15.5975 17.3486 14.7562Z" fill="white" fill-opacity="0.85"/>
 </g>
</svg>
