<?xml version="1.0" encoding="UTF-8"?>
<!--Generator: Apple Native CoreSVG 341-->
<!DOCTYPE svg
PUBLIC "-//W3C//DTD SVG 1.1//EN"
       "http://www.w3.org/Graphics/SVG/1.1/DTD/svg11.dtd">
<svg version="1.1" xmlns="http://www.w3.org/2000/svg" xmlns:xlink="http://www.w3.org/1999/xlink" viewBox="0 0 20.5381 20.1848">
 <g>
  <rect height="20.1848" opacity="0" width="20.5381" x="0" y="0"/>
  <path d="M20.1767 10.0875C20.1767 15.6478 15.6576 20.175 10.0875 20.175C4.52715 20.175 0 15.6478 0 10.0875C0 4.51914 4.52715 0 10.0875 0C15.6576 0 20.1767 4.51914 20.1767 10.0875ZM5.72851 10.0172C5.72851 12.9478 7.42734 14.8316 10.093 14.8316C11.8914 14.8316 13.34 13.9935 13.8424 12.6432C13.9195 12.4488 13.9443 12.2875 13.9443 12.1146C13.9443 11.6164 13.6182 11.3123 13.09 11.3123C12.7223 11.3123 12.4813 11.4844 12.2854 11.8719C11.8988 12.7563 11.1398 13.2354 10.1178 13.2354C8.64979 13.2354 7.67752 11.9549 7.67752 10.0172C7.67752 8.07948 8.64979 6.791 10.1195 6.791C11.1398 6.791 11.8988 7.27362 12.2871 8.16952C12.49 8.56229 12.7152 8.72108 13.09 8.72108C13.6182 8.72108 13.9443 8.41698 13.9443 7.91698C13.9443 7.72988 13.9195 7.58632 13.8424 7.39023C13.332 6.04609 11.8861 5.19648 10.093 5.19648C7.43535 5.19648 5.72851 7.08652 5.72851 10.0172Z" fill="white" fill-opacity="0.85"/>
 </g>
</svg>
