<?xml version="1.0" encoding="UTF-8"?>
<!--Generator: Apple Native CoreSVG 341-->
<!DOCTYPE svg
PUBLIC "-//W3C//DTD SVG 1.1//EN"
       "http://www.w3.org/Graphics/SVG/1.1/DTD/svg11.dtd">
<svg version="1.1" xmlns="http://www.w3.org/2000/svg" xmlns:xlink="http://www.w3.org/1999/xlink" viewBox="0 0 16.691 23.3246">
 <g>
  <rect height="23.3246" opacity="0" width="16.691" x="0" y="0"/>
  <path d="M2.41054 21.1601L7.46073 21.1601L7.46073 0L2.41054 0C0.974997 0 0 0.998044 0 2.48515L0 18.675C0 20.1621 0.974997 21.1601 2.41054 21.1601ZM4.96543 12.107C4.35508 12.107 3.85996 11.6129 3.85996 11.0131C3.85996 10.4018 4.35508 9.90761 4.96543 9.90761C5.56875 9.90761 6.06913 10.3982 6.06913 11.0131C6.06913 11.6164 5.56875 12.107 4.96543 12.107ZM13.9156 21.1601C15.3512 21.1601 16.3297 20.1621 16.3297 18.675L16.3297 2.48515C16.3297 0.998044 15.3512 0 13.9156 0L8.86893 0L8.86893 21.1601ZM11.3562 12.107C10.7459 12.107 10.2508 11.6129 10.2508 11.0131C10.2508 10.4018 10.7459 9.90761 11.3562 9.90761C11.9596 9.90761 12.4599 10.3982 12.4599 11.0131C12.4599 11.6164 11.9596 12.107 11.3562 12.107ZM3.07577 23.1109C3.63261 23.1109 4.02167 22.7139 4.02167 22.157L4.02167 20.0482L2.12988 20.0482L2.12988 22.157C2.12988 22.7139 2.51894 23.1109 3.07577 23.1109ZM13.2451 23.1109C13.8019 23.1109 14.191 22.7139 14.191 22.157L14.191 20.0482L12.2992 20.0482L12.2992 22.157C12.2992 22.7139 12.6883 23.1109 13.2451 23.1109Z" fill="white" fill-opacity="0.85"/>
 </g>
</svg>
