<?xml version="1.0" encoding="UTF-8"?>
<!--Generator: Apple Native CoreSVG 341-->
<!DOCTYPE svg
PUBLIC "-//W3C//DTD SVG 1.1//EN"
       "http://www.w3.org/Graphics/SVG/1.1/DTD/svg11.dtd">
<svg version="1.1" xmlns="http://www.w3.org/2000/svg" xmlns:xlink="http://www.w3.org/1999/xlink" viewBox="0 0 24.6814 7.16483">
 <g>
  <rect height="7.16483" opacity="0" width="24.6814" x="0" y="0"/>
  <path d="M0 4.57264L10.1816 4.57264L10.1816 2.58242L0 2.58242ZM9.79258 7.14023L18.167 7.14023C19.0299 7.14023 19.4016 6.7623 19.4016 5.90917L19.4016 1.22305C19.4016 0.369921 19.0299 0 18.167 0L9.79258 0C8.9332 0 8.56328 0.369921 8.56328 1.22305L8.56328 5.90917C8.56328 6.7623 8.9332 7.14023 9.79258 7.14023Z" fill="white" fill-opacity="0.85"/>
  <path d="M20.5959 5.71034L23.0988 5.71034C23.9519 5.71034 24.3201 5.33242 24.3201 4.46953L24.3201 2.66269C24.3201 1.80781 23.9519 1.42988 23.0988 1.42988L20.5959 1.42988Z" fill="white" fill-opacity="0.85"/>
 </g>
</svg>
