<?xml version="1.0" encoding="UTF-8"?>
<!--Generator: Apple Native CoreSVG 341-->
<!DOCTYPE svg
PUBLIC "-//W3C//DTD SVG 1.1//EN"
       "http://www.w3.org/Graphics/SVG/1.1/DTD/svg11.dtd">
<svg version="1.1" xmlns="http://www.w3.org/2000/svg" xmlns:xlink="http://www.w3.org/1999/xlink" viewBox="0 0 6.92636 22.6746">
 <g>
  <rect height="22.6746" opacity="0" width="6.92636" x="0" y="0"/>
  <path d="M2.39414 22.6648L4.1789 22.6648L4.1789 13.1316L2.39414 13.1316ZM1.23105 14.6424L5.33398 14.6424C6.1871 14.6424 6.56503 14.2725 6.56503 13.4131L6.56503 5.84179C6.56503 4.98691 6.1871 4.60722 5.33398 4.60722L1.23105 4.60722C0.369921 4.60722 0 4.98691 0 5.84179L0 13.4131C0 14.2725 0.369921 14.6424 1.23105 14.6424Z" fill="white" fill-opacity="0.85"/>
  <path d="M1.33027 3.40488L5.233 3.40488L5.233 1.2293C5.233 0.369921 4.84707 0 3.99218 0L2.57109 0C1.7082 0 1.33027 0.369921 1.33027 1.2293Z" fill="white" fill-opacity="0.425"/>
 </g>
</svg>
