<?xml version="1.0" encoding="UTF-8"?>
<!--Generator: Apple Native CoreSVG 341-->
<!DOCTYPE svg
PUBLIC "-//W3C//DTD SVG 1.1//EN"
       "http://www.w3.org/Graphics/SVG/1.1/DTD/svg11.dtd">
<svg version="1.1" xmlns="http://www.w3.org/2000/svg" xmlns:xlink="http://www.w3.org/1999/xlink" viewBox="0 0 32.0101 21.0023">
 <g>
  <rect height="21.0023" opacity="0" width="32.0101" x="0" y="0"/>
  <path d="M25.7373 4.56835L25.7373 5.68259C25.4015 5.58631 25.0505 5.53808 24.693 5.53808C23.9372 5.53808 23.2191 5.75265 22.599 6.13376C22.5843 6.13237 22.5686 6.13221 22.5527 6.13221L9.07831 6.13221C8.25839 6.13221 7.81503 6.55878 7.81503 7.40976L7.81503 16.4324C7.81503 17.2914 8.25839 17.7117 9.07831 17.7117L17.4928 17.7117C17.413 18.02 17.374 18.3271 17.374 18.6277C17.374 18.9932 17.4488 19.329 17.5876 19.625L9.10527 19.625C6.99746 19.625 5.90176 18.5453 5.90176 16.4535L5.90176 4.56835C5.90176 2.4748 6.99746 1.39687 9.10527 1.39687L22.5418 1.39687C24.6496 1.39687 25.7373 2.48281 25.7373 4.56835ZM11.7894 14.7771L11.7894 15.3516C11.7894 15.7004 11.6767 15.8096 11.3199 15.8096L10.7535 15.8096C10.3967 15.8096 10.284 15.7004 10.284 15.3516L10.284 14.7771C10.284 14.4283 10.3967 14.3271 10.7535 14.3271L11.3199 14.3271C11.6767 14.3271 11.7894 14.4283 11.7894 14.7771ZM14.9807 14.7771L14.9807 15.3516C14.9807 15.7004 14.868 15.8096 14.5209 15.8096L13.9447 15.8096C13.5977 15.8096 13.4769 15.7004 13.4769 15.3516L13.4769 14.7771C13.4769 14.4283 13.5977 14.3271 13.9447 14.3271L14.5209 14.3271C14.868 14.3271 14.9807 14.4283 14.9807 14.7771ZM18.1816 14.7771L18.1816 15.3516C18.1816 15.7004 18.0592 15.8096 17.7121 15.8096L17.1359 15.8096C16.7889 15.8096 16.6682 15.7004 16.6682 15.3516L16.6682 14.7771C16.6682 14.4283 16.7889 14.3271 17.1359 14.3271L17.7121 14.3271C18.0592 14.3271 18.1816 14.4283 18.1816 14.7771ZM11.7894 11.633L11.7894 12.2092C11.7894 12.5562 11.6767 12.6592 11.3199 12.6592L10.7535 12.6592C10.3967 12.6592 10.284 12.5562 10.284 12.2092L10.284 11.633C10.284 11.2859 10.3967 11.183 10.7535 11.183L11.3199 11.183C11.6767 11.183 11.7894 11.2859 11.7894 11.633ZM14.9807 11.633L14.9807 12.2092C14.9807 12.5562 14.868 12.6592 14.5209 12.6592L13.9447 12.6592C13.5977 12.6592 13.4769 12.5562 13.4769 12.2092L13.4769 11.633C13.4769 11.2859 13.5977 11.183 13.9447 11.183L14.5209 11.183C14.868 11.183 14.9807 11.2859 14.9807 11.633ZM18.1816 11.633L18.1816 12.2092C18.1816 12.5562 18.0592 12.6592 17.7121 12.6592L17.1359 12.6592C16.7889 12.6592 16.6682 12.5562 16.6682 12.2092L16.6682 11.633C16.6682 11.2859 16.7889 11.183 17.1359 11.183L17.7121 11.183C18.0592 11.183 18.1816 11.2859 18.1816 11.633ZM21.2609 12.571C21.1874 12.6352 21.0726 12.6592 20.9051 12.6592L20.3289 12.6592C19.9818 12.6592 19.8691 12.5562 19.8691 12.2092L19.8691 11.633C19.8691 11.2859 19.9818 11.183 20.3289 11.183L20.6364 11.183C20.7653 11.6903 20.9796 12.1583 21.2609 12.571ZM14.9807 8.49062L14.9807 9.06679C14.9807 9.41386 14.868 9.51679 14.5209 9.51679L13.9447 9.51679C13.5977 9.51679 13.4769 9.41386 13.4769 9.06679L13.4769 8.49062C13.4769 8.14355 13.5977 8.03261 13.9447 8.03261L14.5209 8.03261C14.868 8.03261 14.9807 8.14355 14.9807 8.49062ZM18.1816 8.49062L18.1816 9.06679C18.1816 9.41386 18.0592 9.51679 17.7121 9.51679L17.1359 9.51679C16.7889 9.51679 16.6682 9.41386 16.6682 9.06679L16.6682 8.49062C16.6682 8.14355 16.7889 8.03261 17.1359 8.03261L17.7121 8.03261C18.0592 8.03261 18.1816 8.14355 18.1816 8.49062ZM20.9083 8.03268C20.6914 8.48541 20.5508 8.98605 20.499 9.51679L20.3289 9.51679C19.9818 9.51679 19.8691 9.41386 19.8691 9.06679L19.8691 8.49062C19.8691 8.14355 19.9818 8.03261 20.3289 8.03261L20.9051 8.03261C20.9062 8.03261 20.9073 8.03261 20.9083 8.03268Z" fill="white" fill-opacity="0.85"/>
  <path d="M20.0078 19.617L29.3684 19.617C30.1492 19.617 30.623 19.2506 30.623 18.6277C30.623 16.8148 28.3391 14.3271 24.693 14.3271C21.0389 14.3271 18.7531 16.8148 18.7531 18.6277C18.7531 19.2506 19.2269 19.617 20.0078 19.617ZM24.693 13.0842C26.225 13.0842 27.5301 11.7225 27.5301 9.95937C27.5301 8.23612 26.2152 6.92519 24.693 6.92519C23.1707 6.92519 21.8639 8.25214 21.8639 9.97538C21.8639 11.7225 23.1609 13.0842 24.693 13.0842Z" fill="white" fill-opacity="0.85"/>
 </g>
</svg>
