<?xml version="1.0" encoding="UTF-8"?>
<!--Generator: Apple Native CoreSVG 341-->
<!DOCTYPE svg
PUBLIC "-//W3C//DTD SVG 1.1//EN"
       "http://www.w3.org/Graphics/SVG/1.1/DTD/svg11.dtd">
<svg version="1.1" xmlns="http://www.w3.org/2000/svg" xmlns:xlink="http://www.w3.org/1999/xlink" viewBox="0 0 30.426 18.2476">
 <g>
  <rect height="18.2476" opacity="0" width="30.426" x="0" y="0"/>
  <path d="M27.0674 15.0762C27.0674 17.168 25.9717 18.2476 23.8639 18.2476L10.4291 18.2476C8.31952 18.2476 7.23183 17.16 7.23183 15.0762L7.23183 11.2715L9.1451 11.2715L9.1451 15.0551C9.1451 15.9141 9.59822 16.3344 10.4164 16.3344L23.8926 16.3344C24.7107 16.3344 25.1541 15.9141 25.1541 15.0551L25.1541 11.2715L27.0674 11.2715ZM27.0674 3.19101L27.0674 6.98242L25.1541 6.98242L25.1541 3.21034C25.1541 2.35135 24.7107 1.9328 23.8926 1.9328L10.4164 1.9328C9.59822 1.9328 9.1451 2.35135 9.1451 3.21034L9.1451 6.98242L7.23183 6.98242L7.23183 3.19101C7.23183 1.10547 8.31952 0.0195312 10.4291 0.0195312L23.8639 0.0195312C25.9717 0.0195312 27.0674 1.09746 27.0674 3.19101Z" fill="white" fill-opacity="0.85"/>
  <path d="M5.61073 16.9754C5.61073 17.6543 5.06581 18.209 4.38515 18.209C3.70625 18.209 3.15332 17.6543 3.15332 16.9754C3.15332 16.2965 3.70625 15.7498 4.38515 15.7498C5.06581 15.7498 5.61073 16.2965 5.61073 16.9754Z" fill="white" fill-opacity="0.85"/>
  <path d="M5.61073 13.0467C5.61073 13.7256 5.06581 14.2705 4.38515 14.2705C3.70625 14.2705 3.15332 13.7256 3.15332 13.0467C3.15332 12.3598 3.70625 11.8131 4.38515 11.8131C5.06581 11.8131 5.61073 12.3598 5.61073 13.0467Z" fill="white" fill-opacity="0.85"/>
  <path d="M5.61073 5.16719C5.61073 5.84609 5.06581 6.40078 4.38515 6.40078C3.70625 6.40078 3.15332 5.84609 3.15332 5.16719C3.15332 4.48828 3.70625 3.9416 4.38515 3.9416C5.06581 3.9416 5.61073 4.48828 5.61073 5.16719Z" fill="white" fill-opacity="0.85"/>
  <path d="M5.61073 1.22871C5.61073 1.91738 5.06581 2.4623 4.38515 2.4623C3.70625 2.4623 3.15332 1.91738 3.15332 1.22871C3.15332 0.549806 3.70625 0.0048846 4.38515 0.0048846C5.06581 0.0048846 5.61073 0.549806 5.61073 1.22871Z" fill="white" fill-opacity="0.85"/>
  <path d="M4.37812 10.4963C4.86445 10.4963 5.30019 10.2434 5.53534 9.85195L27.0656 9.85195C27.4711 9.85195 27.7906 9.53242 27.7906 9.12695C27.7906 8.72148 27.4711 8.40996 27.0656 8.40996L5.55136 8.40996C5.3162 8.00254 4.86445 7.73984 4.37812 7.73984C3.61757 7.73984 2.99101 8.35839 2.99101 9.11894C2.99101 9.87949 3.61757 10.4963 4.37812 10.4963Z" fill="white" fill-opacity="0.85"/>
 </g>
</svg>
