<?xml version="1.0" encoding="UTF-8"?>
<!--Generator: Apple Native CoreSVG 341-->
<!DOCTYPE svg
PUBLIC "-//W3C//DTD SVG 1.1//EN"
       "http://www.w3.org/Graphics/SVG/1.1/DTD/svg11.dtd">
<svg version="1.1" xmlns="http://www.w3.org/2000/svg" xmlns:xlink="http://www.w3.org/1999/xlink" viewBox="0 0 20.5381 20.1848">
 <g>
  <rect height="20.1848" opacity="0" width="20.5381" x="0" y="0"/>
  <path d="M20.1767 10.0875C20.1767 15.6478 15.6576 20.175 10.0875 20.175C4.52715 20.175 0 15.6478 0 10.0875C0 4.51914 4.52715 0 10.0875 0C15.6576 0 20.1767 4.51914 20.1767 10.0875ZM4.24081 11.2016L4.24081 13.0039C4.24081 14.0854 4.81249 14.6508 5.90195 14.6508L12.4908 14.6508C13.5803 14.6508 14.1537 14.0854 14.1537 13.0039L14.1537 11.2016L13.0279 11.2016L13.0279 12.9973C13.0279 13.373 12.8484 13.5445 12.5064 13.5445L5.87831 13.5445C5.52831 13.5445 5.34882 13.373 5.34882 12.9973L5.34882 11.2016ZM14.7314 13.9232C14.7314 14.3051 15.0334 14.6266 15.4348 14.6266C15.8229 14.6266 16.1381 14.3131 16.1381 13.9232C16.1381 13.5379 15.8229 13.2262 15.4348 13.2262C15.0334 13.2262 14.7314 13.5477 14.7314 13.9232ZM14.7314 11.9982C14.7314 12.3783 15.0334 12.6998 15.4348 12.6998C15.8229 12.6998 16.1381 12.3863 16.1381 11.9982C16.1381 11.6084 15.8148 11.3012 15.4348 11.3012C15.0334 11.3012 14.7314 11.6084 14.7314 11.9982ZM14.8186 9.62656L4.33867 9.62656C4.07226 9.62656 3.89198 9.84062 3.89198 10.0875C3.89198 10.3424 4.07226 10.5387 4.33867 10.5387L14.8186 10.5387C14.9535 10.734 15.1844 10.8592 15.4348 10.8592C15.8654 10.8592 16.2117 10.5084 16.2117 10.0795C16.2117 9.65058 15.8654 9.29804 15.4348 9.29804C15.1844 9.29804 14.9535 9.42499 14.8186 9.62656ZM5.90195 5.52421C4.81249 5.52421 4.24081 6.0914 4.24081 7.16483L4.24081 8.97968L5.34882 8.97968L5.34882 7.18749C5.34882 6.81171 5.52831 6.64022 5.87831 6.64022L12.5064 6.64022C12.8484 6.64022 13.0279 6.81171 13.0279 7.18749L13.0279 8.97968L14.1537 8.97968L14.1537 7.16483C14.1537 6.0914 13.5803 5.52421 12.4908 5.52421ZM14.7314 8.15273C14.7314 8.54257 15.0334 8.85605 15.4348 8.85605C15.8148 8.85605 16.1381 8.54257 16.1381 8.15273C16.1381 7.76113 15.8229 7.45116 15.4348 7.45116C15.0334 7.45116 14.7314 7.76913 14.7314 8.15273ZM14.7314 6.22773C14.7314 6.61132 15.0334 6.92929 15.4348 6.92929C15.8229 6.92929 16.1381 6.61933 16.1381 6.22773C16.1381 5.83613 15.8229 5.5164 15.4348 5.5164C15.0334 5.5164 14.7314 5.84413 14.7314 6.22773Z" fill="white" fill-opacity="0.85"/>
 </g>
</svg>
