<?xml version="1.0" encoding="UTF-8"?>
<!--Generator: Apple Native CoreSVG 341-->
<!DOCTYPE svg
PUBLIC "-//W3C//DTD SVG 1.1//EN"
       "http://www.w3.org/Graphics/SVG/1.1/DTD/svg11.dtd">
<svg version="1.1" xmlns="http://www.w3.org/2000/svg" xmlns:xlink="http://www.w3.org/1999/xlink" viewBox="0 0 20.5381 20.1848">
 <g>
  <rect height="20.1848" opacity="0" width="20.5381" x="0" y="0"/>
  <path d="M20.1767 10.0875C20.1767 15.6478 15.6576 20.175 10.0875 20.175C4.52715 20.175 0 15.6478 0 10.0875C0 4.51914 4.52715 0 10.0875 0C15.6576 0 20.1767 4.51914 20.1767 10.0875ZM6.02128 11.2016L6.02128 13.0039C6.02128 14.0854 6.59472 14.6508 7.68417 14.6508L14.2713 14.6508C15.3625 14.6508 15.9342 14.0854 15.9342 13.0039L15.9342 11.2016L14.8262 11.2016L14.8262 12.9973C14.8262 13.373 14.6467 13.5445 14.2887 13.5445L7.66679 13.5445C7.32655 13.5445 7.13905 13.373 7.13905 12.9973L7.13905 11.2016ZM4.0289 13.9232C4.0289 14.3131 4.35214 14.6266 4.74023 14.6266C5.14159 14.6266 5.44355 14.3051 5.44355 13.9232C5.44355 13.5477 5.14159 13.2262 4.74023 13.2262C4.35214 13.2262 4.0289 13.5379 4.0289 13.9232ZM4.0289 11.9982C4.0289 12.3863 4.35214 12.6998 4.74023 12.6998C5.14159 12.6998 5.44355 12.3783 5.44355 11.9982C5.44355 11.6084 5.14159 11.3012 4.74023 11.3012C4.36015 11.3012 4.0289 11.6084 4.0289 11.9982ZM3.96327 10.0795C3.96327 10.5084 4.30155 10.8592 4.74023 10.8592C4.98886 10.8592 5.21972 10.734 5.35468 10.5387L15.8283 10.5387C16.0947 10.5387 16.283 10.3424 16.283 10.0875C16.283 9.84062 16.0947 9.62656 15.8283 9.62656L5.35468 9.62656C5.21972 9.42499 4.98886 9.29804 4.74023 9.29804C4.30155 9.29804 3.96327 9.65058 3.96327 10.0795ZM7.68417 5.52421C6.59472 5.52421 6.02128 6.0914 6.02128 7.16483L6.02128 8.97968L7.13905 8.97968L7.13905 7.18749C7.13905 6.81171 7.32655 6.64022 7.66679 6.64022L14.2887 6.64022C14.6467 6.64022 14.8262 6.81171 14.8262 7.18749L14.8262 8.97968L15.9342 8.97968L15.9342 7.16483C15.9342 6.0914 15.3625 5.52421 14.2713 5.52421ZM4.0289 8.15273C4.0289 8.54257 4.36015 8.85605 4.74023 8.85605C5.14159 8.85605 5.44355 8.54257 5.44355 8.15273C5.44355 7.76913 5.14159 7.45116 4.74023 7.45116C4.35214 7.45116 4.0289 7.76113 4.0289 8.15273ZM4.0289 6.22773C4.0289 6.61933 4.35214 6.92929 4.74023 6.92929C5.14159 6.92929 5.44355 6.61132 5.44355 6.22773C5.44355 5.84413 5.14159 5.5164 4.74023 5.5164C4.35214 5.5164 4.0289 5.83613 4.0289 6.22773Z" fill="white" fill-opacity="0.85"/>
 </g>
</svg>
