<?xml version="1.0" encoding="UTF-8"?>
<!--Generator: Apple Native CoreSVG 341-->
<!DOCTYPE svg
PUBLIC "-//W3C//DTD SVG 1.1//EN"
       "http://www.w3.org/Graphics/SVG/1.1/DTD/svg11.dtd">
<svg version="1.1" xmlns="http://www.w3.org/2000/svg" xmlns:xlink="http://www.w3.org/1999/xlink" viewBox="0 0 20.5381 20.1848">
 <g>
  <rect height="20.1848" opacity="0" width="20.5381" x="0" y="0"/>
  <path d="M10.0875 20.175C15.6576 20.175 20.1767 15.6559 20.1767 10.0875C20.1767 4.51914 15.6576 0 10.0875 0C4.51914 0 0 4.51914 0 10.0875C0 15.6559 4.51914 20.175 10.0875 20.175ZM10.0875 18.1879C5.60839 18.1879 1.9871 14.5666 1.9871 10.0875C1.9871 5.60839 5.60839 1.9871 10.0875 1.9871C14.5666 1.9871 18.1897 5.60839 18.1897 10.0875C18.1897 14.5666 14.5666 18.1879 10.0875 18.1879Z" fill="white" fill-opacity="0.85"/>
  <path d="M10.5424 12.2133L10.5424 14.5944C10.8016 14.089 11.142 13.6256 11.555 13.2259L13.4688 15.1397C12.4854 15.7588 11.3062 16.116 10.0838 16.116C9.83632 16.116 9.62519 15.9289 9.62519 15.677L9.62519 11.2961ZM8.99883 13.7127L8.99883 15.677C8.99883 15.7914 9.02187 15.9076 9.06093 16.0043C6.87207 15.6787 5.00097 14.2287 4.33144 12.2742C4.20546 11.9371 4.34374 11.6994 4.71015 11.6994C6.56484 11.6994 8.06308 12.5125 8.99883 13.7127ZM6.14549 5.43319L14.7516 14.0473C14.9449 14.2406 14.9449 14.5439 14.7516 14.7355C14.568 14.9271 14.2486 14.9174 14.065 14.7355L5.44745 6.11971C5.25409 5.93612 5.25409 5.62479 5.44745 5.43319C5.63905 5.23983 5.94413 5.23983 6.14549 5.43319ZM15.8326 12.2742C15.6792 12.7149 15.4645 13.1303 15.1972 13.5121L13.6574 11.9737C14.2073 11.7954 14.8094 11.6994 15.4539 11.6994C15.8123 11.6994 15.9603 11.9371 15.8326 12.2742ZM8.78171 10.4526C7.9489 10.1289 7.32987 9.4892 7.01065 8.68155ZM10.4146 5.48359L11.3242 6.66679L12.3812 5.57597C12.5959 5.3498 12.9268 5.39765 13.0518 5.66464C13.3092 6.23027 13.4096 6.79667 13.4096 7.35155C13.4096 8.56473 12.8463 9.62395 11.8882 10.2062L7.21705 5.53936C7.36513 5.38815 7.61116 5.39141 7.78632 5.57597L8.85312 6.66679L9.76894 5.48359C9.94101 5.25116 10.2426 5.25116 10.4146 5.48359Z" fill="white" fill-opacity="0.85"/>
 </g>
</svg>
