<?xml version="1.0" encoding="UTF-8"?>
<!--Generator: Apple Native CoreSVG 341-->
<!DOCTYPE svg
PUBLIC "-//W3C//DTD SVG 1.1//EN"
       "http://www.w3.org/Graphics/SVG/1.1/DTD/svg11.dtd">
<svg version="1.1" xmlns="http://www.w3.org/2000/svg" xmlns:xlink="http://www.w3.org/1999/xlink" viewBox="0 0 24.4986 26.0153">
 <g>
  <rect height="26.0153" opacity="0" width="24.4986" x="0" y="0"/>
  <path d="M19.3145 10.9336C19.9803 10.9336 20.5254 10.3885 20.5254 9.72267C20.5254 9.04884 19.9803 8.51173 19.3145 8.51173C18.6406 8.51173 18.1035 9.04884 18.1035 9.72267C18.1035 10.3885 18.6406 10.9336 19.3145 10.9336ZM3.20351 22.1315L20.932 22.1315C23.0336 22.1315 24.1373 21.0438 24.1373 18.96L24.1373 8.71252C24.1373 6.62873 23.0336 5.54905 20.932 5.54905L18.2551 5.54905C17.4889 5.54905 17.2404 5.41037 16.7711 4.91682L15.9986 4.0801C15.4893 3.54651 14.9789 3.27463 13.9836 3.27463L10.0959 3.27463C9.10234 3.27463 8.59023 3.54651 8.08261 4.0801L7.3084 4.91682C6.83906 5.40237 6.58437 5.54905 5.82441 5.54905L3.20351 5.54905C1.0957 5.54905 0 6.62873 0 8.71252L0 18.96C0 21.0438 1.0957 22.1315 3.20351 22.1315ZM3.31444 20.2182C2.42245 20.2182 1.91327 19.7481 1.91327 18.7992L1.91327 8.88126C1.91327 7.93243 2.42245 7.46231 3.31444 7.46231L6.37851 7.46231C7.25741 7.46231 7.71484 7.30509 8.20663 6.76524L8.94902 5.94278C9.49511 5.34063 9.79863 5.1879 10.6492 5.1879L13.4303 5.1879C14.2826 5.1879 14.5844 5.34239 15.1234 5.93751L15.8746 6.76524C16.3664 7.30333 16.8238 7.46231 17.701 7.46231L20.8131 7.46231C21.7148 7.46231 22.224 7.93243 22.224 8.88126L22.224 18.7992C22.224 19.7481 21.7148 20.2182 20.8131 20.2182ZM12.0678 18.9174C14.9889 18.9174 17.3373 16.577 17.3373 13.6301C17.3373 10.693 14.9969 8.35255 12.0678 8.35255C9.14218 8.35255 6.79199 10.693 6.79199 13.6301C6.79199 16.577 9.14218 18.9174 12.0678 18.9174ZM12.0678 17.1729C10.1226 17.1729 8.5285 15.601 8.5285 13.6301C8.5285 11.6654 10.1146 10.0891 12.0678 10.0891C14.0244 10.0891 15.6008 11.6654 15.6008 13.6301C15.6008 15.601 14.0244 17.1729 12.0678 17.1729Z" fill="white" fill-opacity="0.85"/>
  <path d="M1.26465 1.49338L4.02988 3.84865C4.22676 4.01272 4.42988 4.13166 4.64551 4.13166C4.86738 4.13166 5.07051 4.01272 5.26738 3.84865L8.03261 1.49338C8.89589 0.76936 7.86328-0.591378 6.8875 0.284205L4.64551 2.32386L2.40976 0.284205C1.42598-0.591378 0.401371 0.76936 1.26465 1.49338Z" fill="white" fill-opacity="0.85"/>
 </g>
</svg>
