<?xml version="1.0" encoding="UTF-8"?>
<!--Generator: Apple Native CoreSVG 341-->
<!DOCTYPE svg
PUBLIC "-//W3C//DTD SVG 1.1//EN"
       "http://www.w3.org/Graphics/SVG/1.1/DTD/svg11.dtd">
<svg version="1.1" xmlns="http://www.w3.org/2000/svg" xmlns:xlink="http://www.w3.org/1999/xlink" viewBox="0 0 20.5381 20.1848">
 <g>
  <rect height="20.1848" opacity="0" width="20.5381" x="0" y="0"/>
  <path d="M20.1767 10.0875C20.1767 15.6478 15.6576 20.175 10.0875 20.175C4.52715 20.175 0 15.6478 0 10.0875C0 4.51914 4.52715 0 10.0875 0C15.6576 0 20.1767 4.51914 20.1767 10.0875ZM9.76191 5.2789L8.81328 6.50644L7.71015 5.37753C7.48398 5.1416 7.13984 5.18769 7.0291 5.47148C6.76015 6.06191 6.63398 6.64159 6.63398 7.21952C6.63398 8.99238 7.80058 10.4494 9.6164 10.6623L9.6164 15.8701C9.6164 16.1336 9.83105 16.3242 10.0918 16.3242C12.7693 16.3242 15.2516 14.6756 16.0719 12.3353C16.1996 11.9832 16.0516 11.7322 15.6701 11.7322C13.2838 11.7322 11.4627 13.015 10.5752 14.7441L10.5752 10.6623C12.391 10.4414 13.5514 8.99238 13.5514 7.21952C13.5514 6.63984 13.443 6.06015 13.1803 5.47148C13.0455 5.18945 12.6996 5.1416 12.4734 5.37753L11.3818 6.50644L10.4377 5.2789C10.2639 5.0332 9.94726 5.0332 9.76191 5.2789ZM4.10996 12.3353C4.80429 14.3625 6.75429 15.8719 9.02558 16.2125C8.97851 16.1141 8.95371 15.9863 8.95371 15.8701L8.95371 13.8129C7.97988 12.5764 6.43379 11.7322 4.51171 11.7322C4.12226 11.7322 3.98222 11.9832 4.10996 12.3353Z" fill="white" fill-opacity="0.85"/>
 </g>
</svg>
