<?xml version="1.0" encoding="UTF-8"?>
<!--Generator: Apple Native CoreSVG 341-->
<!DOCTYPE svg
PUBLIC "-//W3C//DTD SVG 1.1//EN"
       "http://www.w3.org/Graphics/SVG/1.1/DTD/svg11.dtd">
<svg version="1.1" xmlns="http://www.w3.org/2000/svg" xmlns:xlink="http://www.w3.org/1999/xlink" viewBox="0 0 20.5381 20.1848">
 <g>
  <rect height="20.1848" opacity="0" width="20.5381" x="0" y="0"/>
  <path d="M5.44237 18.4303L10.4576 15.5314C11.4969 14.9221 12.5068 14.2967 13.474 13.6232L13.474 18.318L14.9682 18.318L14.9682 10.1297C14.9682 9.70995 14.9201 9.29198 14.832 8.91229L18.9279 11.2707L19.6719 9.9539L14.5518 7.00175C13.5969 6.45546 12.6357 5.93319 11.6568 5.45722L11.4685 5.37733L15.4943 3.05975L14.7344 1.74296L9.70312 4.64804C8.69315 5.23164 7.6619 5.8748 6.716 6.53848L6.716 1.8535L5.2121 1.8535L5.20859 10.04C5.20859 10.4598 5.25663 10.8715 5.34472 11.2592L1.25506 8.89902L0.503113 10.206L5.61699 13.1582C6.47871 13.6539 7.36445 14.1318 8.2502 14.5572L8.70821 14.7924L4.69042 17.1135ZM10.0875 13.4625C8.22987 13.4625 6.71249 11.9451 6.71249 10.0875C6.71249 8.22186 8.22987 6.71249 10.0875 6.71249C11.9451 6.71249 13.4625 8.22186 13.4625 10.0875C13.4625 11.9451 11.9451 13.4625 10.0875 13.4625ZM10.0875 20.175C15.6576 20.175 20.1767 15.6559 20.1767 10.0875C20.1767 4.51914 15.6576 0 10.0875 0C4.51914 0 0 4.51914 0 10.0875C0 15.6559 4.51914 20.175 10.0875 20.175ZM10.0875 18.1879C5.60839 18.1879 1.9871 14.5666 1.9871 10.0875C1.9871 5.60839 5.60839 1.9871 10.0875 1.9871C14.5666 1.9871 18.1897 5.60839 18.1897 10.0875C18.1897 14.5666 14.5666 18.1879 10.0875 18.1879Z" fill="white" fill-opacity="0.85"/>
 </g>
</svg>
