<?xml version="1.0" encoding="UTF-8"?>
<!--Generator: Apple Native CoreSVG 341-->
<!DOCTYPE svg
PUBLIC "-//W3C//DTD SVG 1.1//EN"
       "http://www.w3.org/Graphics/SVG/1.1/DTD/svg11.dtd">
<svg version="1.1" xmlns="http://www.w3.org/2000/svg" xmlns:xlink="http://www.w3.org/1999/xlink" viewBox="0 0 19.7092 19.3629">
 <g>
  <rect height="19.3629" opacity="0" width="19.7092" x="0" y="0"/>
  <path d="M0 5.56328C0 6.07733 0.418357 6.49569 0.932416 6.49569C1.45448 6.49569 1.87284 6.07733 1.87284 5.56328L1.87284 3.72109C1.87284 2.57753 2.54647 1.89237 3.70156 1.89237L5.58281 1.89237C6.10038 1.89237 6.52323 1.46952 6.52323 0.951947C6.52323 0.43613 6.10038 0.021289 5.58281 0.021289L3.70156 0.021289C1.41269 0.021289 0 1.44199 0 3.72109ZM19.3478 5.56328L19.3478 3.72109C19.3478 1.44199 17.9369 0.021289 15.6463 0.021289L13.757 0.021289C13.2412 0.021289 12.8246 0.43613 12.8246 0.951947C12.8246 1.46952 13.2412 1.89237 13.757 1.89237L15.6463 1.89237C16.8014 1.89237 17.4768 2.57753 17.4768 3.72109L17.4768 5.56328C17.4768 6.07733 17.8934 6.49569 18.4074 6.49569C18.9215 6.49569 19.3478 6.07733 19.3478 5.56328ZM0 13.8209L0 15.6613C0 17.9404 1.41269 19.3629 3.70156 19.3629L5.58281 19.3629C6.10038 19.3629 6.52323 18.9463 6.52323 18.4305C6.52323 17.9146 6.10038 17.49 5.58281 17.49L3.70156 17.49C2.54647 17.49 1.87284 16.8066 1.87284 15.6613L1.87284 13.8209C1.87284 13.3068 1.45448 12.8805 0.932416 12.8805C0.418357 12.8805 0 13.3068 0 13.8209ZM19.3478 13.8209C19.3478 13.3068 18.9215 12.8805 18.4074 12.8805C17.8934 12.8805 17.4768 13.3068 17.4768 13.8209L17.4768 15.6613C17.4768 16.8066 16.8014 17.49 15.6463 17.49L13.757 17.49C13.2412 17.49 12.8246 17.9146 12.8246 18.4305C12.8246 18.9463 13.2412 19.3629 13.757 19.3629L15.6463 19.3629C17.9369 19.3629 19.3478 17.9404 19.3478 15.6613Z" fill="white" fill-opacity="0.85"/>
  <path d="M5.4248 14.0582L13.9363 14.0582C14.9723 14.0582 15.5172 13.5258 15.5172 12.5014L15.5172 7.43027C15.5172 6.39785 14.9723 5.86543 13.9363 5.86543L12.76 5.86543C12.3861 5.86543 12.2654 5.79785 12.0338 5.55546L11.6457 5.13613C11.3963 4.87773 11.1441 4.74355 10.6602 4.74355L8.67695 4.74355C8.18496 4.74355 7.93105 4.87597 7.68164 5.13613L7.29531 5.55546C7.06191 5.78984 6.94121 5.86543 6.57089 5.86543L5.4248 5.86543C4.38261 5.86543 3.84218 6.39785 3.84218 7.43027L3.84218 12.5014C3.84218 13.5258 4.38261 14.0582 5.4248 14.0582ZM9.69082 12.7662C8.10742 12.7662 6.83573 11.5025 6.83573 9.91738C6.83573 8.34023 8.10742 7.07831 9.69082 7.07831C11.2617 7.07831 12.5219 8.34023 12.5219 9.91738C12.5219 11.5283 11.2617 12.7662 9.69082 12.7662ZM9.68281 11.8191C10.7252 11.8191 11.5766 10.974 11.5766 9.91738C11.5766 8.86698 10.7252 8.02362 9.68281 8.02362C8.63593 8.02362 7.7828 8.86698 7.7828 9.91738C7.7828 10.974 8.63593 11.8191 9.68281 11.8191ZM13.691 8.45878C13.3244 8.45878 13.0279 8.15429 13.0279 7.78769C13.0279 7.42284 13.3244 7.11835 13.691 7.11835C14.0639 7.11835 14.3603 7.42284 14.3603 7.78769C14.3603 8.15429 14.0639 8.45878 13.691 8.45878Z" fill="white" fill-opacity="0.85"/>
 </g>
</svg>
