<?xml version="1.0" encoding="UTF-8"?>
<!--Generator: Apple Native CoreSVG 341-->
<!DOCTYPE svg
PUBLIC "-//W3C//DTD SVG 1.1//EN"
       "http://www.w3.org/Graphics/SVG/1.1/DTD/svg11.dtd">
<svg version="1.1" xmlns="http://www.w3.org/2000/svg" xmlns:xlink="http://www.w3.org/1999/xlink" viewBox="0 0 20.5381 20.1848">
 <g>
  <rect height="20.1848" opacity="0" width="20.5381" x="0" y="0"/>
  <path d="M20.1767 10.0973C20.1767 15.6656 15.6576 20.1848 10.0875 20.1848C4.52715 20.1848 0 15.6656 0 10.0973C0 4.53691 4.52715 0.00976562 10.0875 0.00976562C15.6576 0.00976562 20.1767 4.53691 20.1767 10.0973ZM9.04355 4.9666C8.53828 4.9666 8.27285 5.09902 8.01191 5.37871L7.60253 5.81132C7.36738 6.04746 7.24492 6.13105 6.85957 6.13105L5.67265 6.13105C4.59238 6.13105 4.02538 6.68027 4.02538 7.7623L4.02538 13.0248C4.02538 14.0891 4.59238 14.6445 5.67265 14.6445L14.5059 14.6445C15.5816 14.6445 16.1514 14.0891 16.1514 13.0248L16.1514 7.7623C16.1514 6.68027 15.5816 6.13105 14.5059 6.13105L13.2967 6.13105C12.9096 6.13105 12.7711 6.06347 12.5342 5.81132L12.1346 5.37871C11.8816 5.10253 11.6162 4.9666 11.1029 4.9666ZM13.0418 10.3434C13.0418 12.0199 11.7338 13.3012 10.0955 13.3012C8.46074 13.3012 7.14296 11.9959 7.14296 10.3434C7.14296 8.70859 8.46074 7.39081 10.0955 7.39081C11.7338 7.39081 13.0418 8.70859 13.0418 10.3434ZM8.12714 10.3434C8.12714 11.4328 9.00956 12.3072 10.0875 12.3072C11.1689 12.3072 12.0514 11.4328 12.0514 10.3434C12.0514 9.2539 11.1689 8.37948 10.0875 8.37948C9.00956 8.37948 8.12714 9.2539 8.12714 10.3434ZM14.9547 8.133C14.9547 8.51288 14.6369 8.83066 14.2588 8.83066C13.8789 8.83066 13.5629 8.51288 13.5629 8.133C13.5629 7.74687 13.8789 7.43085 14.2588 7.43085C14.6369 7.43085 14.9547 7.74687 14.9547 8.133Z" fill="white" fill-opacity="0.85"/>
 </g>
</svg>
