<?xml version="1.0" encoding="UTF-8"?>
<!--Generator: Apple Native CoreSVG 341-->
<!DOCTYPE svg
PUBLIC "-//W3C//DTD SVG 1.1//EN"
       "http://www.w3.org/Graphics/SVG/1.1/DTD/svg11.dtd">
<svg version="1.1" xmlns="http://www.w3.org/2000/svg" xmlns:xlink="http://www.w3.org/1999/xlink" viewBox="0 0 20.5381 20.1848">
 <g>
  <rect height="20.1848" opacity="0" width="20.5381" x="0" y="0"/>
  <path d="M10.0875 20.175C15.6576 20.175 20.1767 15.6559 20.1767 10.0875C20.1767 4.51914 15.6576 0 10.0875 0C4.51914 0 0 4.51914 0 10.0875C0 15.6559 4.51914 20.175 10.0875 20.175ZM10.0875 18.1879C5.60839 18.1879 1.9871 14.5666 1.9871 10.0875C1.9871 5.60839 5.60839 1.9871 10.0875 1.9871C14.5666 1.9871 18.1897 5.60839 18.1897 10.0875C18.1897 14.5666 14.5666 18.1879 10.0875 18.1879Z" fill="white" fill-opacity="0.85"/>
  <path d="M5.82948 14.4594L14.333 14.4594C15.3689 14.4594 15.9139 13.9287 15.9139 12.9025L15.9139 7.8332C15.9139 6.79902 15.3689 6.26835 14.333 6.26835L13.1646 6.26835C12.7908 6.26835 12.6621 6.20078 12.4305 5.95839L12.0504 5.53906C11.801 5.28066 11.5488 5.14648 11.0568 5.14648L9.07363 5.14648C8.58964 5.14648 8.33574 5.2789 8.08007 5.53906L7.69199 5.95839C7.45859 6.19277 7.34589 6.26835 6.96757 6.26835L5.82948 6.26835C4.7873 6.26835 4.24687 6.79902 4.24687 7.8332L4.24687 12.9025C4.24687 13.9287 4.7873 14.4594 5.82948 14.4594ZM10.0875 13.1691C8.5121 13.1691 7.24042 11.9055 7.24042 10.3203C7.24042 8.74316 8.5121 7.47948 10.0875 7.47948C11.6664 7.47948 12.9266 8.74316 12.9266 10.3203C12.9266 11.9295 11.6664 13.1691 10.0875 13.1691ZM10.0795 12.2221C11.1299 12.2221 11.9813 11.377 11.9813 10.3203C11.9813 9.26991 11.1299 8.42655 10.0795 8.42655C9.03261 8.42655 8.17948 9.26991 8.17948 10.3203C8.17948 11.377 9.03261 12.2221 10.0795 12.2221ZM14.0957 8.86171C13.7291 8.86171 13.4246 8.55722 13.4246 8.19062C13.4246 7.82577 13.7291 7.51952 14.0957 7.51952C14.4605 7.51952 14.765 7.82577 14.765 8.19062C14.765 8.55722 14.4605 8.86171 14.0957 8.86171Z" fill="white" fill-opacity="0.85"/>
 </g>
</svg>
