<?xml version="1.0" encoding="UTF-8"?>
<!--Generator: Apple Native CoreSVG 341-->
<!DOCTYPE svg
PUBLIC "-//W3C//DTD SVG 1.1//EN"
       "http://www.w3.org/Graphics/SVG/1.1/DTD/svg11.dtd">
<svg version="1.1" xmlns="http://www.w3.org/2000/svg" xmlns:xlink="http://www.w3.org/1999/xlink" viewBox="0 0 23.4906 18.2316">
 <g>
  <rect height="18.2316" opacity="0" width="23.4906" x="0" y="0"/>
  <path d="M3.20351 18.2316L10.8629 18.2316L10.8629 16.3184L3.31444 16.3184C2.40643 16.3184 1.91327 15.8482 1.91327 14.8994L1.91327 9.83046L0 9.83046L0 15.0682C0 17.1519 1.0957 18.2316 3.20351 18.2316ZM12.2904 18.2316L19.9258 18.2316C22.0416 18.2316 23.1293 17.1519 23.1293 15.0682L23.1293 9.83046L21.216 9.83046L21.216 14.8994C21.216 15.8482 20.7149 16.3184 19.8148 16.3184L12.2904 16.3184ZM21.216 8.41093L23.1293 8.41093L23.1293 3.17499C23.1293 1.08945 22.0416 0.00351548 19.9258 0.00351548L12.2904 0.00351548L12.2904 1.91678L19.8148 1.91678C20.7149 1.91678 21.216 2.39315 21.216 3.34198ZM0 8.41093L1.91327 8.41093L1.91327 3.34198C1.91327 2.39315 2.40643 1.91678 3.31444 1.91678L10.8629 1.91678L10.8629 0.00351548L3.20351 0.00351548C1.0957 0.00351548 0 1.08945 0 3.17499Z" fill="white" fill-opacity="0.85"/>
  <path d="M11.3695 11.0603C11.9018 11.0603 12.2502 10.7443 12.2748 10.3494C12.2766 10.3121 12.2783 10.2633 12.2801 10.234C12.3064 9.72754 12.6471 9.38652 13.285 8.9707C14.2498 8.34218 14.8709 7.78281 14.8709 6.64433C14.8709 5.02148 13.408 4.08984 11.6758 4.08984C10.0014 4.08984 8.86621 4.85898 8.56738 5.77324C8.50977 5.93828 8.47695 6.10332 8.47695 6.27988C8.47695 6.75097 8.8416 7.04159 9.23769 7.04159C9.59082 7.04159 9.8373 6.88886 10.0271 6.63515L10.1818 6.43066C10.5113 5.90116 10.9734 5.61307 11.5627 5.61307C12.3547 5.61307 12.8834 6.08222 12.8834 6.74355C12.8834 7.36542 12.4732 7.6666 11.642 8.24121C10.9522 8.72597 10.4424 9.22773 10.4424 10.1145C10.4424 10.1482 10.4424 10.1883 10.4424 10.2221C10.4424 10.7738 10.7766 11.0603 11.3695 11.0603ZM11.3553 14.0496C11.9797 14.0496 12.4961 13.5934 12.4961 12.9777C12.4961 12.3639 11.9894 11.9059 11.3553 11.9059C10.7211 11.9059 10.2092 12.3701 10.2092 12.9777C10.2092 13.5853 10.7291 14.0496 11.3553 14.0496Z" fill="white" fill-opacity="0.85"/>
 </g>
</svg>
