<?xml version="1.0" encoding="UTF-8"?>
<!--Generator: Apple Native CoreSVG 341-->
<!DOCTYPE svg
PUBLIC "-//W3C//DTD SVG 1.1//EN"
       "http://www.w3.org/Graphics/SVG/1.1/DTD/svg11.dtd">
<svg version="1.1" xmlns="http://www.w3.org/2000/svg" xmlns:xlink="http://www.w3.org/1999/xlink" viewBox="0 0 23.4906 18.2316">
 <g>
  <rect height="18.2316" opacity="0" width="23.4906" x="0" y="0"/>
  <path d="M3.20351 18.2316L10.8629 18.2316L10.8629 16.3184L3.31444 16.3184C2.40643 16.3184 1.91327 15.8482 1.91327 14.8994L1.91327 9.83046L0 9.83046L0 15.0682C0 17.1519 1.0957 18.2316 3.20351 18.2316ZM12.2904 18.2316L19.9258 18.2316C22.0416 18.2316 23.1293 17.1519 23.1293 15.0682L23.1293 9.83046L21.216 9.83046L21.216 14.8994C21.216 15.8482 20.7149 16.3184 19.8148 16.3184L12.2904 16.3184ZM21.216 8.41093L23.1293 8.41093L23.1293 3.17499C23.1293 1.08945 22.0416 0.00351548 19.9258 0.00351548L12.2904 0.00351548L12.2904 1.91678L19.8148 1.91678C20.7149 1.91678 21.216 2.39315 21.216 3.34198ZM0 8.41093L1.91327 8.41093L1.91327 3.34198C1.91327 2.39315 2.40643 1.91678 3.31444 1.91678L10.8629 1.91678L10.8629 0.00351548L3.20351 0.00351548C1.0957 0.00351548 0 1.08945 0 3.17499Z" fill="white" fill-opacity="0.85"/>
  <path d="M11.5824 6.51347C12.3707 6.51347 12.9947 5.88144 12.9947 5.10116C12.9947 4.32089 12.3707 3.69511 11.5824 3.69511C10.8021 3.69511 10.1764 4.32089 10.1764 5.10116C10.1764 5.88144 10.8021 6.51347 11.5824 6.51347ZM7.58066 10.5152C8.36093 10.5152 8.98496 9.89121 8.98496 9.11093C8.98496 8.33066 8.36093 7.69687 7.58066 7.69687C6.79238 7.69687 6.1666 8.33066 6.1666 9.11093C6.1666 9.89121 6.79238 10.5152 7.58066 10.5152ZM15.5922 10.5152C16.3725 10.5152 17.0062 9.89121 17.0062 9.11093C17.0062 8.33066 16.3725 7.69687 15.5922 7.69687C14.8119 7.69687 14.1781 8.33066 14.1781 9.11093C14.1781 9.89121 14.8119 10.5152 15.5922 10.5152ZM11.5824 14.5268C12.3707 14.5268 12.9947 13.901 12.9947 13.1207C12.9947 12.3324 12.3707 11.7066 11.5824 11.7066C10.8021 11.7066 10.1764 12.3324 10.1764 13.1207C10.1764 13.901 10.8021 14.5268 11.5824 14.5268Z" fill="white" fill-opacity="0.85"/>
  <path d="M11.5824 10.5152C12.3707 10.5152 12.9947 9.89121 12.9947 9.11093C12.9947 8.33066 12.3707 7.69687 11.5824 7.69687C10.8021 7.69687 10.1764 8.33066 10.1764 9.11093C10.1764 9.89121 10.8021 10.5152 11.5824 10.5152Z" fill="white" fill-opacity="0.85"/>
 </g>
</svg>
