<?xml version="1.0" encoding="UTF-8"?>
<!--Generator: Apple Native CoreSVG 341-->
<!DOCTYPE svg
PUBLIC "-//W3C//DTD SVG 1.1//EN"
       "http://www.w3.org/Graphics/SVG/1.1/DTD/svg11.dtd">
<svg version="1.1" xmlns="http://www.w3.org/2000/svg" xmlns:xlink="http://www.w3.org/1999/xlink" viewBox="0 0 24.4986 19.466">
 <g>
  <rect height="19.466" opacity="0" width="24.4986" x="0" y="0"/>
  <path d="M20.2678 7.66777C19.5738 7.66952 19.0059 7.10156 19.0059 6.40937C19.0059 5.71269 19.5773 5.15097 20.2678 5.15097C20.9645 5.15097 21.5342 5.71269 21.5342 6.40937C21.5342 7.10156 20.9662 7.66601 20.2678 7.66777ZM3.20351 18.8568L20.932 18.8568C23.0336 18.8568 24.1373 17.7691 24.1373 15.6853L24.1373 5.43789C24.1373 3.3541 23.0336 2.27442 20.932 2.27442L18.3166 2.27442C17.5504 2.27442 17.3019 2.13574 16.8326 1.64219L16.0601 0.80547C15.5525 0.271876 15.0404 0 14.0469 0L10.0344 0C9.04082 0 8.52871 0.271876 8.02109 0.80547L7.24687 1.64219C6.77754 2.12774 6.52285 2.27442 5.76289 2.27442L3.20351 2.27442C1.0957 2.27442 0 3.3541 0 5.43789L0 15.6853C0 17.7691 1.0957 18.8568 3.20351 18.8568ZM12.0678 15.8072C9.14218 15.8072 6.79199 13.465 6.79199 10.5199C6.79199 7.58281 9.14218 5.24238 12.0678 5.24238C14.9969 5.24238 17.3373 7.58281 17.3373 10.5199C17.3373 13.465 14.9889 15.8072 12.0678 15.8072ZM12.0678 14.0627C14.0244 14.0627 15.6008 12.4908 15.6008 10.5199C15.6008 8.55526 14.0244 6.97889 12.0678 6.97889C10.1146 6.97889 8.5285 8.55526 8.5285 10.5199C8.5285 12.4908 10.1226 14.0627 12.0678 14.0627Z" fill="white" fill-opacity="0.85"/>
 </g>
</svg>
