<?xml version="1.0" encoding="UTF-8"?>
<!--Generator: Apple Native CoreSVG 341-->
<!DOCTYPE svg
PUBLIC "-//W3C//DTD SVG 1.1//EN"
       "http://www.w3.org/Graphics/SVG/1.1/DTD/svg11.dtd">
<svg version="1.1" xmlns="http://www.w3.org/2000/svg" xmlns:xlink="http://www.w3.org/1999/xlink" viewBox="0 0 22.1846 20.8058">
 <g>
  <rect height="20.8058" opacity="0" width="22.1846" x="0" y="0"/>
  <path d="M4.27237 9.30681C2.75306 10.2256 1.74355 11.8928 1.74355 13.7893C1.74355 16.7103 4.09374 19.0623 7.00683 19.0623C7.9295 19.0623 8.79728 18.824 9.55084 18.4037C9.94716 18.8667 10.4072 19.2724 10.9144 19.6133C9.79844 20.3664 8.454 20.8058 7.00683 20.8058C3.14394 20.8058 0 17.6619 0 13.7893C0 11.0412 1.59922 8.65382 3.92189 7.51748C3.95342 8.14193 4.07465 8.74202 4.27237 9.30681ZM14.0137 13.7893C14.0137 15.5583 13.3593 17.1753 12.2743 18.4054C11.7585 18.1225 11.2967 17.7543 10.9103 17.3165C11.7254 16.4206 12.2315 15.2395 12.2631 13.9391C12.8737 13.8223 13.4552 13.6235 13.9932 13.3495ZM13.6404 11.5604C13.1512 11.8655 12.6053 12.0866 12.0227 12.2093C11.797 11.4832 11.4134 10.8273 10.9132 10.2785C11.299 9.84289 11.76 9.4759 12.2746 9.19346C12.8778 9.87625 13.3482 10.6778 13.6404 11.5604ZM10.9122 7.98503C10.4057 8.32537 9.94623 8.73017 9.55033 9.19177C8.79688 8.77316 7.92928 8.53573 7.00683 8.53573C6.62198 8.53573 6.24695 8.57692 5.88684 8.65756C5.72662 8.15593 5.64081 7.62091 5.64081 7.06542C5.64081 7.01869 5.64142 6.9721 5.64782 6.92698C6.08707 6.83776 6.54174 6.79219 7.00683 6.79219C8.45124 6.79219 9.79553 7.23216 10.9122 7.98503Z" fill="white" fill-opacity="0.2125"/>
  <path d="M21.8232 13.7893C21.8232 17.6619 18.6775 20.8058 14.8244 20.8058C10.9535 20.8058 7.80957 17.6619 7.80957 13.7893C7.80957 13.6417 7.81418 13.4951 7.83179 13.352C8.36956 13.6247 8.9506 13.8226 9.56065 13.939C9.63495 16.7911 11.9618 19.0623 14.8244 19.0623C17.7357 19.0623 20.0797 16.7023 20.0797 13.7893C20.0797 11.8843 19.0625 10.2162 17.541 9.30017C17.7374 8.73509 17.8578 8.13483 17.8885 7.51023C20.2162 8.64355 21.8232 11.0353 21.8232 13.7893ZM16.162 6.92415C16.1685 6.9702 16.1691 7.01774 16.1691 7.06542C16.1691 7.61948 16.0841 8.15317 15.9253 8.65374C15.5707 8.57576 15.2021 8.53573 14.8244 8.53573C12.4656 8.53573 10.4707 10.083 9.79784 12.2084C9.21555 12.0859 8.66987 11.8656 8.18066 11.5619C9.11055 8.79338 11.7361 6.79219 14.8244 6.79219C15.2819 6.79219 15.7295 6.83652 16.162 6.92415Z" fill="white" fill-opacity="0.425"/>
  <path d="M10.9139 14.0723C14.775 14.0723 17.9109 10.9363 17.9109 7.06542C17.9109 3.20429 14.775 0.0603515 10.9139 0.0603515C7.04297 0.0603515 3.89902 3.20429 3.89902 7.06542C3.89902 10.9363 7.04297 14.0723 10.9139 14.0723ZM10.9139 12.3287C8.00077 12.3287 5.64081 9.97851 5.64081 7.06542C5.64081 4.1621 8.00077 1.80214 10.9139 1.80214C13.8092 1.80214 16.1691 4.1621 16.1691 7.06542C16.1691 9.97851 13.8172 12.3287 10.9139 12.3287Z" fill="white" fill-opacity="0.85"/>
 </g>
</svg>
