<?xml version="1.0" encoding="UTF-8"?>
<!--Generator: Apple Native CoreSVG 341-->
<!DOCTYPE svg
PUBLIC "-//W3C//DTD SVG 1.1//EN"
       "http://www.w3.org/Graphics/SVG/1.1/DTD/svg11.dtd">
<svg version="1.1" xmlns="http://www.w3.org/2000/svg" xmlns:xlink="http://www.w3.org/1999/xlink" viewBox="0 0 26.093 20.9601">
 <g>
  <rect height="20.9601" opacity="0" width="26.093" x="0" y="0"/>
  <path d="M20.7086 3.19101L20.7086 5.56349C20.4055 5.50358 20.2085 5.36823 19.9293 5.08534L19.1928 4.34823C19.0609 4.21518 18.9294 4.1001 18.7936 4.00256L18.7936 3.358C18.7936 2.40917 18.2924 1.9328 17.3924 1.9328L3.31444 1.9328C2.42245 1.9328 1.91327 2.40917 1.91327 3.358L1.91327 12.9771C1.91327 13.9277 2.40643 14.4041 3.31444 14.4041L5.02304 14.4041L5.02304 16.3174L3.20351 16.3174C1.08769 16.3174 0 15.2297 0 13.1459L0 3.19101C0 1.10547 1.08769 0.0195312 3.20351 0.0195312L17.5113 0.0195312C19.6209 0.0195312 20.7086 1.10547 20.7086 3.19101Z" fill="white" fill-opacity="0.85"/>
  <path d="M8.22831 20.9601L22.5344 20.9601C24.6439 20.9601 25.7316 19.8724 25.7316 17.7887L25.7316 8.77108C25.7316 6.6873 24.6439 5.60761 22.5344 5.60761L21.3308 5.60761C20.5967 5.60761 20.3615 5.52324 19.9293 5.08534L19.1928 4.34823C18.6719 3.82245 18.1547 3.57733 17.3684 3.57733L13.3943 3.57733C12.6 3.57733 12.0908 3.82245 11.5637 4.34823L10.8334 5.08534C10.3932 5.52324 10.158 5.60761 9.42382 5.60761L8.22831 5.60761C6.11074 5.60761 5.02304 6.6873 5.02304 8.77108L5.02304 17.7887C5.02304 19.8724 6.11074 20.9601 8.22831 20.9601ZM8.33924 19.0469C7.42948 19.0469 6.93631 18.5687 6.93631 17.6199L6.93631 8.93983C6.93631 7.991 7.42948 7.52088 8.33924 7.52088L9.93475 7.52088C10.7553 7.52088 11.2711 7.35389 11.7533 6.86248L12.6652 5.94881C13.0234 5.61424 13.3094 5.4906 13.8578 5.4906L16.8969 5.4906C17.4533 5.4906 17.7312 5.61424 18.0894 5.94881L19.0094 6.86248C19.4916 7.35389 20.0012 7.52088 20.8217 7.52088L22.4154 7.52088C23.3252 7.52088 23.8184 7.991 23.8184 8.93983L23.8184 17.6199C23.8184 18.5687 23.3252 19.0469 22.4154 19.0469ZM15.3853 17.7865C17.9383 17.7865 20.0152 15.7193 20.0152 13.1504C20.0152 10.5974 17.9383 8.52049 15.3853 8.52049C12.8244 8.52049 10.7572 10.5974 10.7572 13.1504C10.7572 15.7193 12.8244 17.7865 15.3853 17.7865ZM15.3853 16.1184C13.7556 16.1184 12.4236 14.7863 12.4236 13.1486C12.4236 11.5189 13.7556 10.1949 15.3853 10.1949C17.015 10.1949 18.3391 11.5189 18.3391 13.1486C18.3391 14.7863 17.015 16.1184 15.3853 16.1184ZM21.5695 10.9031C22.174 10.9031 22.6516 10.4176 22.6516 9.82284C22.6516 9.22811 22.174 8.7328 21.5695 8.7328C20.973 8.7328 20.4795 9.22811 20.4795 9.82284C20.4795 10.4176 20.973 10.9031 21.5695 10.9031Z" fill="white" fill-opacity="0.85"/>
 </g>
</svg>
