<?xml version="1.0" encoding="UTF-8"?>
<!--Generator: Apple Native CoreSVG 341-->
<!DOCTYPE svg
PUBLIC "-//W3C//DTD SVG 1.1//EN"
       "http://www.w3.org/Graphics/SVG/1.1/DTD/svg11.dtd">
<svg version="1.1" xmlns="http://www.w3.org/2000/svg" xmlns:xlink="http://www.w3.org/1999/xlink" viewBox="0 0 26.1252 20.3496">
 <g>
  <rect height="20.3496" opacity="0" width="26.1252" x="0" y="0"/>
  <path d="M20.4692 5.05223C19.7687 4.83106 19.0053 4.6995 18.1882 4.66579C17.1742 2.93312 15.2516 1.90624 12.7658 1.90624L8.14745 1.90624C4.38144 1.90624 1.90799 4.26327 1.90799 7.84452C1.90799 10.2451 3.01438 12.0865 4.87805 13.038C4.91369 13.84 5.05391 14.5867 5.28984 15.2696C2.02659 14.2961 0 11.5769 0 7.84452C0 3.11894 3.25488 0 8.1457 0L12.764 0C16.6007 0 19.4387 1.92705 20.4692 5.05223Z" fill="white" fill-opacity="0.85"/>
  <path d="M4.8541 12.4873C4.8541 17.2174 8.10722 20.3203 12.9998 20.3203L17.6182 20.3203C22.4992 20.3203 25.7638 17.2174 25.7638 12.4873C25.7638 7.76171 22.4992 4.64277 17.6182 4.64277L12.9998 4.64277C8.10722 4.64277 4.8541 7.76171 4.8541 12.4873ZM6.76034 12.4873C6.76034 8.90428 9.23378 6.54725 13.0016 6.54725L17.6199 6.54725C21.3859 6.54725 23.8576 8.90428 23.8576 12.4873C23.8576 16.0766 21.3859 18.4158 17.6199 18.4158L13.0016 18.4158C9.23378 18.4158 6.76034 16.0766 6.76034 12.4873Z" fill="white" fill-opacity="0.85"/>
 </g>
</svg>
