<?xml version="1.0" encoding="UTF-8"?>
<!--Generator: Apple Native CoreSVG 341-->
<!DOCTYPE svg
PUBLIC "-//W3C//DTD SVG 1.1//EN"
       "http://www.w3.org/Graphics/SVG/1.1/DTD/svg11.dtd">
<svg version="1.1" xmlns="http://www.w3.org/2000/svg" xmlns:xlink="http://www.w3.org/1999/xlink" viewBox="0 0 21.1646 21.2613">
 <g>
  <rect height="21.2613" opacity="0" width="21.1646" x="0" y="0"/>
  <path d="M1.52715 11.051L19.2762 11.051C20.1307 11.051 20.8033 10.531 20.8033 9.7537C20.8033 9.27792 20.5654 8.88241 20.1101 8.483L11.7594 1.10702C11.2746 0.68241 10.8789 0.453308 10.4025 0.453308C9.92441 0.453308 9.53672 0.68241 9.04395 1.10702L0.693163 8.49101C0.221875 8.90644 0 9.27792 0 9.7537C0 10.531 0.672655 11.051 1.52715 11.051ZM15.7789 12.8027L15.7789 8.7326C15.7789 7.4199 15.0316 6.61463 13.6433 6.61463L7.15996 6.61463C5.77168 6.61463 5.02442 7.4199 5.02442 8.7326L5.02442 12.8027C5.02442 14.1252 5.77168 14.9224 7.15996 14.9224L13.6433 14.9224C15.0316 14.9224 15.7789 14.1252 15.7789 12.8027ZM6.65801 21.2613L14.1453 21.2613C15.1746 21.2613 15.7824 20.657 15.7824 19.641L15.7824 18.0053C15.7824 16.9892 15.1746 16.3867 14.1453 16.3867L6.65801 16.3867C5.62872 16.3867 5.02266 16.9892 5.02266 18.0053L5.02266 19.641C5.02266 20.657 5.62872 21.2613 6.65801 21.2613Z" fill="white" fill-opacity="0.85"/>
 </g>
</svg>
