<?xml version="1.0" encoding="UTF-8"?>
<!--Generator: Apple Native CoreSVG 341-->
<!DOCTYPE svg
PUBLIC "-//W3C//DTD SVG 1.1//EN"
       "http://www.w3.org/Graphics/SVG/1.1/DTD/svg11.dtd">
<svg version="1.1" xmlns="http://www.w3.org/2000/svg" xmlns:xlink="http://www.w3.org/1999/xlink" viewBox="0 0 22.2363 21.7609">
 <g>
  <rect height="21.7609" opacity="0" width="22.2363" x="0" y="0"/>
  <path d="M6.2871 21.7609C6.83065 21.7609 7.23475 21.4947 7.91131 20.9006L11.2541 17.9412L17.2898 17.9412C20.2281 17.9412 21.875 16.2525 21.875 13.3543L21.875 5.78066C21.875 2.88242 20.2281 1.19375 17.2898 1.19375L4.58515 1.19375C1.64687 1.19375 0 2.87441 0 5.78066L0 13.3543C0 16.2605 1.6873 17.9412 4.52363 17.9412L5.04863 17.9412L5.04863 20.3484C5.04863 21.2111 5.50156 21.7609 6.2871 21.7609ZM6.76131 19.61L6.76131 16.8219C6.76131 16.2488 6.51581 16.0279 5.96737 16.0279L4.63964 16.0279C2.79354 16.0279 1.91327 15.0889 1.91327 13.2936L1.91327 5.83339C1.91327 4.03808 2.79354 3.10702 4.63964 3.10702L17.2353 3.10702C19.0734 3.10702 19.9617 4.03808 19.9617 5.83339L19.9617 13.2936C19.9617 15.0889 19.0734 16.0279 17.2353 16.0279L11.1515 16.0279C10.5572 16.0279 10.275 16.1236 9.86171 16.5414Z" fill="white" fill-opacity="0.85"/>
  <path d="M4.85702 10.7205L8.62559 10.7205C8.97324 10.7205 9.25351 10.4332 9.25351 10.0811C9.25351 9.74316 8.97324 9.45762 8.62559 9.45762L4.85702 9.45762C4.51288 9.45762 4.23437 9.74492 4.23437 10.0811C4.23437 10.4332 4.51464 10.7205 4.85702 10.7205ZM10.6752 10.7205L17.0305 10.7205C17.3781 10.7205 17.6504 10.4332 17.6504 10.0811C17.6504 9.74316 17.3781 9.45762 17.0305 9.45762L10.6752 9.45762C10.3328 9.45762 10.0543 9.74492 10.0543 10.0811C10.0543 10.4332 10.3346 10.7205 10.6752 10.7205ZM4.85702 13.2852L6.45214 13.2852C6.79804 13.2852 7.07382 13.0041 7.07382 12.6635C7.07382 12.3061 6.79804 12.0223 6.45214 12.0223L4.85702 12.0223C4.51288 12.0223 4.23437 12.3096 4.23437 12.6635C4.23437 13.0041 4.51464 13.2852 4.85702 13.2852ZM8.4955 13.2852L13.1842 13.2852C13.5301 13.2852 13.8121 13.0041 13.8121 12.6635C13.8121 12.3061 13.5301 12.0223 13.1842 12.0223L8.4955 12.0223C8.15136 12.0223 7.88085 12.3096 7.88085 12.6635C7.88085 13.0041 8.15312 13.2852 8.4955 13.2852ZM15.2338 13.2852L17.0305 13.2852C17.3764 13.2852 17.6504 13.0041 17.6504 12.6635C17.6504 12.3061 17.3764 12.0223 17.0305 12.0223L15.2338 12.0223C14.8896 12.0223 14.6111 12.3096 14.6111 12.6635C14.6111 13.0041 14.8914 13.2852 15.2338 13.2852Z" fill="white" fill-opacity="0.85"/>
 </g>
</svg>
