<?xml version="1.0" encoding="UTF-8"?>
<!--Generator: Apple Native CoreSVG 341-->
<!DOCTYPE svg
PUBLIC "-//W3C//DTD SVG 1.1//EN"
       "http://www.w3.org/Graphics/SVG/1.1/DTD/svg11.dtd">
<svg version="1.1" xmlns="http://www.w3.org/2000/svg" xmlns:xlink="http://www.w3.org/1999/xlink" viewBox="0 0 25.0671 31.8613">
 <g>
  <rect height="31.8613" opacity="0" width="25.0671" x="0" y="0"/>
  <path d="M4.52785 21.0545C5.41687 22.3392 6.54537 23.3207 7.79054 23.9992C7.62446 24.1673 7.48511 24.3668 7.37845 24.5926C7.237 24.8947 7.16628 25.2082 7.16065 25.5151C5.56547 24.6696 4.17849 23.4415 3.15872 21.9246C2.86067 21.5033 2.98235 20.9916 3.41243 20.7584C3.8177 20.5287 4.2593 20.6529 4.52785 21.0545ZM21.2933 20.7584C21.7234 20.9916 21.8468 21.5033 21.547 21.9246C20.5275 23.4411 19.1411 24.6688 17.5458 25.5144C17.54 25.2077 17.469 24.8944 17.3273 24.5926C17.2206 24.3668 17.0813 24.1673 16.9153 23.9993C18.1611 23.3208 19.2898 22.3393 20.1796 21.0545C20.4482 20.6529 20.888 20.5287 21.2933 20.7584Z" fill="white" fill-opacity="0.85"/>
  <path d="M1.54075 22.9371C2.81245 24.8709 4.46366 26.3306 6.30064 27.3118C6.11936 27.4892 5.96657 27.7042 5.85052 27.9525C5.71785 28.2385 5.64869 28.5333 5.63959 28.8225C3.49947 27.7094 1.58365 26.0342 0.152863 23.8115C-0.135221 23.3443 0.00130175 22.8602 0.416339 22.626C0.821611 22.398 1.27395 22.5125 1.54075 22.9371ZM24.2911 22.626C24.7044 22.8602 24.8409 23.3443 24.5529 23.8115C23.1232 26.0339 21.2077 27.7089 19.0669 28.822C19.058 28.533 18.9891 28.2384 18.857 27.9525C18.7404 27.704 18.587 27.4887 18.4053 27.3112C20.242 26.3301 21.8912 24.8705 23.1587 22.9371C23.4318 22.5125 23.8841 22.398 24.2911 22.626Z" fill="white" fill-opacity="0.85"/>
  <path d="M12.3497 30.4742C14.0218 30.4742 15.6255 30.1838 17.0925 29.673C17.6228 29.485 17.8197 29.0006 17.6058 28.5394C17.4097 28.1219 16.9929 27.9783 16.5595 28.1291C15.2415 28.5812 13.8232 28.8354 12.3497 28.8354C10.8843 28.8354 9.46419 28.5812 8.14621 28.1291C7.71458 27.9783 7.29602 28.1219 7.09993 28.5394C6.88606 29.0006 7.08294 29.485 7.61321 29.673C9.0802 30.1838 10.6857 30.4742 12.3497 30.4742Z" fill="white" fill-opacity="0.85"/>
  <path d="M12.3497 26.8168C13.4749 26.8168 14.5486 26.64 15.5671 26.3353C16.0931 26.1881 16.298 25.6629 16.0779 25.1875C15.8995 24.8055 15.5058 24.6539 15.0513 24.7789C14.2144 25.0357 13.3038 25.1779 12.3497 25.1779C11.4019 25.1779 10.4913 25.0357 9.65442 24.7789C9.19993 24.6539 8.80618 24.8055 8.62786 25.1875C8.40774 25.6629 8.61263 26.1881 9.1386 26.3353C10.1572 26.64 11.2308 26.8168 12.3497 26.8168Z" fill="white" fill-opacity="0.85"/>
  <path d="M12.3497 21.8426C16.1165 21.8426 17.8103 20.9525 17.8103 18.7557L17.8103 10.4166L18.2284 10.4166C18.7316 10.4166 19.1159 10.0279 19.1159 9.52676L19.1159 9.21191C19.1159 8.70098 18.7316 8.32031 18.2284 8.32031L17.8103 8.32031L17.8103 6.23808C17.8103 3.94375 15.7806 2.6334 12.3497 2.6334C8.93665 2.6334 6.89544 3.94727 6.89544 6.23808L6.89544 8.30625L6.48528 8.30625C5.97415 8.30625 5.58978 8.68691 5.58978 9.19785L5.58978 9.51094C5.58978 10.0139 5.97415 10.4025 6.48528 10.4025L6.89544 10.4025L6.89544 18.7557C6.89544 20.9525 8.59271 21.8426 12.3497 21.8426ZM12.3497 20.1856C9.64114 20.1856 8.57024 19.7629 8.57024 18.7033L8.57024 6.25039C8.57024 5.00273 9.87845 4.3082 12.3497 4.3082C14.8388 4.3082 16.1355 5.00273 16.1355 6.25039L16.1355 18.7033C16.1355 19.7629 15.0663 20.1856 12.3497 20.1856ZM10.2824 10.8562C10.6103 10.8562 11.6867 10.7861 12.3497 10.7861C13.0591 10.7861 14.0954 10.8562 14.4314 10.8562C15.0173 10.8562 15.281 10.6103 15.3378 10.0004L15.4568 8.63847C15.5544 7.5207 14.7964 7.09453 12.3497 7.09453C9.91907 7.09453 9.1513 7.5207 9.24895 8.63847L9.37591 10.0004C9.42473 10.6103 9.68841 10.8562 10.2824 10.8562ZM12.3497 18.5252C14.8158 18.5252 15.5997 18.1443 15.4275 16.9973L15.3316 16.3402C15.1886 15.408 14.4589 15.1248 12.3497 15.1248C10.2486 15.1248 9.52513 15.408 9.38216 16.3402L9.27825 16.9973C9.10598 18.1443 9.89798 18.5252 12.3497 18.5252Z" fill="white" fill-opacity="0.85"/>
 </g>
</svg>
