<?xml version="1.0" encoding="UTF-8"?>
<!--Generator: Apple Native CoreSVG 341-->
<!DOCTYPE svg
PUBLIC "-//W3C//DTD SVG 1.1//EN"
       "http://www.w3.org/Graphics/SVG/1.1/DTD/svg11.dtd">
<svg version="1.1" xmlns="http://www.w3.org/2000/svg" xmlns:xlink="http://www.w3.org/1999/xlink" viewBox="0 0 35.7275 16.2203">
 <g>
  <rect height="16.2203" opacity="0" width="35.7275" x="0" y="0"/>
  <path d="M10.9125 13.1014C10.9125 14.7806 9.583 16.1084 7.89745 16.1084C6.21992 16.1084 4.89042 14.7806 4.89042 13.1014C4.89042 11.4238 6.21992 10.0961 7.89745 10.0961C9.583 10.0961 10.9125 11.4238 10.9125 13.1014ZM30.4775 13.1014C30.4775 14.7806 29.148 16.1084 27.4625 16.1084C25.7849 16.1084 24.4555 14.7806 24.4555 13.1014C24.4555 11.4238 25.7849 10.0961 27.4625 10.0961C29.148 10.0961 30.4775 11.4238 30.4775 13.1014ZM30.9789 3.69179L32.5193 4.21289C34.4328 4.85175 35.3662 6.02324 35.3662 7.9082L35.3662 10.6361C35.3662 12.9773 34.3221 14.0738 32.1113 14.0738L31.5619 14.0738C31.6355 13.7553 31.6799 13.4332 31.6799 13.1014C31.6799 10.7557 29.8144 8.90175 27.4625 8.90175C25.1168 8.90175 23.2531 10.7557 23.2531 13.1014C23.2531 13.4332 23.2939 13.7553 23.3613 14.0738L11.9906 14.0738C12.0642 13.7553 12.1068 13.4332 12.1068 13.1014C12.1068 10.7557 10.2494 8.90175 7.89745 8.90175C5.54374 8.90175 3.68808 10.7557 3.68808 13.1014C3.68808 13.4332 3.7289 13.7553 3.79629 14.0738L3.25488 14.0738C1.06015 14.0738 0 12.9969 0 10.6982L0 9.44999C0 7.05214 1.69414 5.29863 4.49062 4.95781L8.82558 4.43047L12.7912 1.93945C15.2295 0.405664 16.9391 0 20.992 0L22.5062 0C26.2246 0 29.0115 2.00859 30.9789 3.69179ZM15.8082 3.93066C13.9236 3.93066 12.6543 5.12187 12.6543 6.85995C12.6543 8.57851 13.9236 9.75194 15.7984 9.75194L19.6416 9.75194L19.6416 10.581C19.6416 11.2029 20.0975 11.4176 20.6226 11.084L22.94 9.56386C23.3525 9.30839 23.3721 8.78242 22.94 8.49765L20.6404 6.97578C20.0975 6.62265 19.6416 6.84707 19.6416 7.4707L19.6416 8.26875L15.7984 8.26875C14.8258 8.26875 14.1765 7.73222 14.1765 6.93632C14.1765 6.03827 14.8418 5.42538 15.8082 5.42538L21.5553 5.42538C22.0086 5.42538 22.3279 5.12558 22.3279 4.69179C22.3279 4.25976 22.0086 3.93066 21.5455 3.93066Z" fill="white" fill-opacity="0.85"/>
 </g>
</svg>
