<?xml version="1.0" encoding="UTF-8"?>
<!--Generator: Apple Native CoreSVG 341-->
<!DOCTYPE svg
PUBLIC "-//W3C//DTD SVG 1.1//EN"
       "http://www.w3.org/Graphics/SVG/1.1/DTD/svg11.dtd">
<svg version="1.1" xmlns="http://www.w3.org/2000/svg" xmlns:xlink="http://www.w3.org/1999/xlink" viewBox="0 0 35.8369 18.1516">
 <g>
  <rect height="18.1516" opacity="0" width="35.8369" x="0" y="0"/>
  <path d="M3.20351 18.1516L17.8836 18.1516C20.0172 18.1516 21.0889 17.0959 21.0889 14.9881L21.0889 3.11894C21.0889 1.08144 20.0092 0.0115234 17.9557 0.0115234L13.2017 0.0115234C11.5607 0.0115234 10.5242 0.365624 9.19648 1.35879L1.59629 7.11269C0.413476 8.00449 0 8.81445 0 10.2742L0 14.9881C0 17.0959 1.07968 18.1516 3.20351 18.1516ZM3.62244 9.02285C3.11189 9.02285 2.99217 8.45917 3.39783 8.16269L10.5133 2.74569C11.2941 2.12557 11.9658 1.92479 13.1174 1.92479L17.8367 1.92479C18.6887 1.92479 19.1738 2.38514 19.1738 3.27792L19.1738 7.66796C19.1738 8.52109 18.6807 9.02285 17.8367 9.02285Z" fill="white" fill-opacity="0.85"/>
  <path d="M25.674 14.4848C26.04 14.4848 26.2361 14.3562 26.5845 14.0238L35.0484 5.48983C35.3375 5.191 35.4756 4.97733 35.4756 4.6414C35.4756 4.1539 35.0597 3.75136 34.5572 3.75136C34.193 3.75136 33.9951 3.87988 33.6449 4.2123L25.1793 12.7365C24.8885 13.0371 24.7556 13.249 24.7556 13.593C24.7556 14.0805 25.1715 14.4848 25.674 14.4848ZM34.5572 14.4848C35.0597 14.4848 35.4756 14.0805 35.4756 13.593C35.4756 13.249 35.341 13.0371 35.0502 12.7365L26.5845 4.2123C26.2343 3.87988 26.0383 3.75136 25.674 3.75136C25.1715 3.75136 24.7556 4.1539 24.7556 4.6414C24.7556 4.97733 24.892 5.191 25.181 5.48983L33.6449 14.0238C33.9933 14.3562 34.1894 14.4848 34.5572 14.4848Z" fill="white" fill-opacity="0.85"/>
 </g>
</svg>
