<?xml version="1.0" encoding="UTF-8"?>
<!--Generator: Apple Native CoreSVG 341-->
<!DOCTYPE svg
PUBLIC "-//W3C//DTD SVG 1.1//EN"
       "http://www.w3.org/Graphics/SVG/1.1/DTD/svg11.dtd">
<svg version="1.1" xmlns="http://www.w3.org/2000/svg" xmlns:xlink="http://www.w3.org/1999/xlink" viewBox="0 0 32.305 18.7238">
 <g>
  <rect height="18.7238" opacity="0" width="32.305" x="0" y="0"/>
  <path d="M16.0144 0.066321C15.4506 0.0888776 15.0256 0.116396 14.7769 0.147265C13.6998 0.279141 12.8102 0.754953 12.2231 1.52809C12.0749 1.52745 11.9239 1.52714 11.7707 1.52714C9.19101 1.52714 7.27186 1.61151 6.60995 1.69667C5.75116 1.80409 5.13065 2.20468 4.80761 2.89257C4.39296 3.77167 3.76698 5.79354 3.52089 7.10761L2.47382 8.48476C1.77538 9.39999 1.53241 10.0268 1.53241 11.3471L1.53241 12.6559C1.53241 13.4016 1.83944 13.8242 2.67128 13.9201C3.79433 14.057 6.20043 14.1745 8.61849 14.2316C8.693 14.3873 8.78607 14.5289 8.89862 14.6544L8.89862 15.7906C7.30895 15.7561 5.66376 15.6936 4.31386 15.6134L4.31386 17.2076C4.31386 17.9461 3.73515 18.523 2.99043 18.523L1.82148 18.523C1.07676 18.523 0.498047 17.9461 0.498047 17.2076L0.498047 14.6462C0.172152 14.2695 0 13.7661 0 13.1484L0 11.4297C0 9.71249 0.305665 8.75234 1.23496 7.57695L2.09219 6.4914C2.45703 4.73359 3.10332 2.88964 3.44512 2.16523C3.98203 1.01601 5.03457 0.312304 6.38437 0.147265C7.08437 0.0603515 9.18261 0 11.7707 0C13.4932 0 14.9961 0.0230133 16.0144 0.066321ZM6.34237 11.3719C6.34237 12.2957 5.63417 13.0057 4.70859 13.0057C3.78476 13.0057 3.07656 12.2957 3.07656 11.3719C3.07656 10.44 3.78476 9.73984 4.70859 9.73984C5.63417 9.73984 6.34237 10.44 6.34237 11.3719ZM10.4945 6.4914L10.457 6.53837C8.0746 6.55833 6.57612 6.63245 5.34296 6.71054C4.92089 6.72832 4.75331 6.5459 4.84198 6.1584C5.06679 5.21464 5.47109 3.97069 5.7537 3.47577C6.02343 2.99237 6.33651 2.78827 6.90057 2.71113C7.56074 2.61996 9.12062 2.55903 11.6704 2.55756C11.3174 3.4318 10.7972 4.9929 10.4945 6.4914Z" fill="white" fill-opacity="0.85"/>
  <path d="M13.2443 6.1584C13.1539 6.5459 13.3215 6.72832 13.7355 6.71054C15.182 6.61894 16.9935 6.53281 20.1713 6.53281C23.3427 6.53281 25.1543 6.61894 26.599 6.71054C27.0228 6.72832 27.1824 6.5459 27.092 6.1584C26.8787 5.21464 26.4726 3.97069 26.1883 3.47577C25.922 2.99237 25.6072 2.78827 25.0431 2.71113C24.3742 2.61874 22.7797 2.55741 20.1713 2.55741C17.5566 2.55741 15.9621 2.61874 15.3011 2.71113C14.7371 2.78827 14.416 2.99237 14.148 3.47577C13.8717 3.97069 13.4594 5.21464 13.2443 6.1584ZM13.1109 13.0057C14.0347 13.0057 14.7349 12.2957 14.7349 11.3719C14.7349 10.44 14.0347 9.73984 13.1109 9.73984C12.1791 9.73984 11.4771 10.44 11.4771 11.3719C11.4771 12.2957 12.1791 13.0057 13.1109 13.0057ZM17.5324 12.5939L22.8021 12.5939C23.5023 12.5939 23.9842 12.1103 23.9842 11.4119C23.9842 10.7215 23.5023 10.2379 22.8021 10.2379L17.5324 10.2379C16.842 10.2379 16.3521 10.7215 16.3521 11.4119C16.3521 12.1103 16.842 12.5939 17.5324 12.5939ZM27.2334 13.0057C28.1572 13.0057 28.8672 12.2957 28.8672 11.3719C28.8672 10.44 28.1572 9.73984 27.2334 9.73984C26.3015 9.73984 25.6013 10.44 25.6013 11.3719C25.6013 12.2957 26.3015 13.0057 27.2334 13.0057ZM20.1713 15.8252C23.507 15.8252 27.8748 15.6574 29.7338 15.4443C31.1383 15.2855 31.9437 14.4846 31.9437 13.1484L31.9437 11.4297C31.9437 9.71249 31.6381 8.75234 30.7088 7.57695L29.8498 6.4914C29.4867 4.73359 28.8422 2.88964 28.4986 2.16523C27.9599 1.01777 26.9074 0.32832 25.5594 0.147265C24.8594 0.0523436 22.7611 0 20.1713 0C17.5752 0 15.4769 0.0603515 14.7769 0.147265C13.4289 0.312304 12.3746 1.01601 11.8377 2.16523C11.5039 2.88964 10.8496 4.73359 10.4945 6.4914L9.62753 7.57695C8.69823 8.75234 8.39257 9.71249 8.39257 11.4297L8.39257 13.1484C8.39257 14.4846 9.19803 15.2855 10.6105 15.4443C12.4615 15.6574 16.8293 15.8252 20.1713 15.8252ZM20.1713 14.2734C16.8246 14.2734 12.6519 14.1119 11.0719 13.9201C10.24 13.8242 9.92498 13.4016 9.92498 12.6559L9.92498 11.3471C9.92498 10.0268 10.176 9.39999 10.8664 8.48476L11.9215 7.10761C12.1595 5.79354 12.7953 3.77167 13.2019 2.89257C13.5312 2.20468 14.1517 1.80409 15.0105 1.69667C15.6724 1.61151 17.5836 1.52714 20.1713 1.52714C22.751 1.52714 24.7039 1.61503 25.3178 1.69667C26.1988 1.80858 26.8078 2.21269 27.1379 2.8996C27.5535 3.76112 28.1715 5.77948 28.4228 7.10761L29.4681 8.48476C30.1683 9.39999 30.4113 10.0268 30.4113 11.3471L30.4113 12.6559C30.4113 13.4016 30.1025 13.8242 29.2644 13.9201C27.6826 14.1119 23.5197 14.2734 20.1713 14.2734ZM10.214 18.523L11.391 18.523C12.1357 18.523 12.7064 17.9461 12.7064 17.2076L12.7064 14.8148L8.89862 14.123L8.89862 17.2076C8.89862 17.9461 9.46932 18.523 10.214 18.523ZM28.9533 18.523L30.1222 18.523C30.867 18.523 31.4457 17.9461 31.4457 17.2076L31.4457 14.123L27.6299 14.8148L27.6299 17.2076C27.6299 17.9461 28.2086 18.523 28.9533 18.523Z" fill="white" fill-opacity="0.85"/>
 </g>
</svg>
