<?xml version="1.0" encoding="UTF-8"?>
<!--Generator: Apple Native CoreSVG 341-->
<!DOCTYPE svg
PUBLIC "-//W3C//DTD SVG 1.1//EN"
       "http://www.w3.org/Graphics/SVG/1.1/DTD/svg11.dtd">
<svg version="1.1" xmlns="http://www.w3.org/2000/svg" xmlns:xlink="http://www.w3.org/1999/xlink" viewBox="0 0 34.3779 21.5789">
 <g>
  <rect height="21.5789" opacity="0" width="34.3779" x="0" y="0"/>
  <path d="M11.5508 2.98945C11.5141 3.07009 11.474 3.16255 11.4307 3.26778C9.31 3.2842 8.05968 3.3395 7.4785 3.4162C6.8826 3.49511 6.56249 3.71249 6.27948 4.22421C5.9871 4.74843 5.5535 6.04648 5.33495 7.02128C5.241 7.4371 5.4076 7.6248 5.84823 7.60702C6.90926 7.54275 8.16311 7.47635 10.0538 7.4426L9.51444 8.12265C8.39354 9.5746 7.97967 10.8418 7.97967 12.8572L7.97967 17.099C6.84711 17.0596 5.77691 17.0083 4.88027 16.9498L4.88027 18.6351C4.88027 19.3736 4.30156 19.9506 3.56484 19.9506L2.38789 19.9506C1.64316 19.9506 1.06445 19.3736 1.06445 18.6351L1.06445 12.8572C1.06445 11.14 1.38242 10.1904 2.30117 9.00448L3.15839 7.91894C3.52148 6.16113 4.16601 4.31718 4.50957 3.59277C5.04648 2.44355 6.10077 1.73984 7.44882 1.5748C8.13738 1.48931 10.1789 1.42951 12.7115 1.42772C12.2347 1.85186 11.8408 2.37499 11.5508 2.98945ZM3.39667 12.465C3.39667 13.3019 4.02948 13.9428 4.87265 13.9428C5.70956 13.9428 6.35038 13.3019 6.35038 12.465C6.35038 11.6219 5.70956 10.9891 4.87265 10.9891C4.02948 10.9891 3.39667 11.6219 3.39667 12.465Z" fill="white" fill-opacity="0.85"/>
  <path d="M13.6715 7.02128C13.8883 6.04648 14.3299 4.74843 14.624 4.22421C14.9052 3.71249 15.2254 3.49511 15.823 3.4162C16.515 3.32382 18.184 3.26249 21.1797 3.26249C24.1674 3.26249 25.8363 3.30604 26.5381 3.4162C27.134 3.50311 27.4461 3.71249 27.7353 4.22421C28.0375 4.74042 28.447 6.04648 28.6799 7.02128C28.7881 7.4371 28.609 7.6248 28.1666 7.60702C26.658 7.51542 24.7543 7.41952 21.1797 7.41952C17.5988 7.41952 15.6951 7.51542 14.1847 7.60702C13.7504 7.6248 13.5775 7.4371 13.6715 7.02128ZM14.0349 14.4736C13.1031 14.4736 12.4029 13.7654 12.4029 12.8416C12.4029 11.9098 13.1031 11.2078 14.0349 11.2078C14.9588 11.2078 15.6607 11.9098 15.6607 12.8416C15.6607 13.7654 14.9588 14.4736 14.0349 14.4736ZM18.5408 14.0619C17.8504 14.0619 17.3668 13.5801 17.3668 12.8816C17.3668 12.1894 17.8504 11.7076 18.5408 11.7076L23.8105 11.7076C24.509 11.7076 24.9925 12.1894 24.9925 12.8816C24.9925 13.5801 24.509 14.0619 23.8105 14.0619ZM28.3226 14.4736C27.3988 14.4736 26.6906 13.7654 26.6906 12.8416C26.6906 11.9098 27.3988 11.2078 28.3226 11.2078C29.2482 11.2078 29.9564 11.9098 29.9564 12.8416C29.9564 13.7654 29.2482 14.4736 28.3226 14.4736ZM21.1797 17.1912C24.5154 17.1912 28.8814 17.0252 30.7422 16.8103C32.1449 16.6498 32.9504 15.8506 32.9504 14.5144L32.9504 12.8572C32.9504 11.14 32.6324 10.1904 31.7154 9.00448L30.8582 7.91894C30.4951 6.16113 29.8488 4.31718 29.507 3.59277C28.9683 2.44355 27.9158 1.75586 26.566 1.5748C25.866 1.47988 23.7677 1.42754 21.1797 1.42754C18.5836 1.42754 16.4853 1.48789 15.7836 1.5748C14.4355 1.73984 13.3892 2.44355 12.8443 3.59277C12.5105 4.31718 11.8562 6.16113 11.5012 7.91894L10.6359 9.00448C9.72694 10.1904 9.40897 11.14 9.40897 12.8572L9.40897 14.5144C9.40897 15.8506 10.2047 16.6515 11.6172 16.8103C13.4699 17.0234 17.8439 17.1912 21.1797 17.1912ZM10.7244 19.9506L11.8996 19.9506C12.6461 19.9506 13.215 19.3736 13.215 18.6351L13.215 16.1543L9.40897 14.2627L9.40897 18.6351C9.40897 19.3736 9.97791 19.9506 10.7244 19.9506ZM30.4597 19.9506L31.6269 19.9506C32.3734 19.9506 32.9504 19.3736 32.9504 18.6351L32.9504 14.2627L29.1363 16.1543L29.1363 18.6351C29.1363 19.3736 29.7132 19.9506 30.4597 19.9506Z" fill="white" fill-opacity="0.85"/>
 </g>
</svg>
