<?xml version="1.0" encoding="UTF-8"?>
<!--Generator: Apple Native CoreSVG 341-->
<!DOCTYPE svg
PUBLIC "-//W3C//DTD SVG 1.1//EN"
       "http://www.w3.org/Graphics/SVG/1.1/DTD/svg11.dtd">
<svg version="1.1" xmlns="http://www.w3.org/2000/svg" xmlns:xlink="http://www.w3.org/1999/xlink" viewBox="0 0 35.8013 30.448">
 <g>
  <rect height="30.448" opacity="0" width="35.8013" x="0" y="0"/>
  <path d="M10.5227 12.735L5.54868 24.766C5.35884 25.2273 5.04048 25.5394 4.39829 25.5394L3.02447 25.5394C2.18287 25.5394 1.95514 24.8709 2.24595 24.2928L8.22818 12.5049C8.40728 12.1582 8.66431 11.9924 9.02974 11.9924L10.0833 11.9924C10.4954 11.9924 10.6956 12.3281 10.5227 12.735ZM27.1637 12.5129L28.086 14.3302C27.9121 14.3089 27.7344 14.3029 27.5555 14.3029C26.8895 14.3029 26.2409 14.3861 25.623 14.5517L24.8692 12.735C24.7043 12.3361 24.9045 11.9924 25.3166 11.9924L26.3701 11.9924C26.7356 11.9924 26.9864 12.1662 27.1637 12.5129Z" fill="white" fill-opacity="0.85"/>
  <path d="M19.6854 20.6598L8.55961 20.6598L9.14536 19.1891L20.1618 19.1891C19.9546 19.6571 19.7935 20.149 19.6854 20.6598Z" fill="white" fill-opacity="0.85"/>
  <path d="M20.6548 18.2488L9.5227 18.2488L10.1067 16.7666L21.7921 16.7666C21.3543 17.2106 20.9705 17.7073 20.6548 18.2488Z" fill="white" fill-opacity="0.85"/>
  <path d="M24.5279 14.9078C23.9536 15.1402 23.413 15.441 22.9177 15.8023L10.5018 15.8023L11.084 14.3316L24.2998 14.3316Z" fill="white" fill-opacity="0.85"/>
  <path d="M20.2086 4.93456C20.8557 5.00644 21.3776 5.33398 21.6588 6.1246L22.1373 7.48573L22.5963 7.98905C23.0713 8.50839 23.1735 8.98593 23.1735 9.77851L23.1735 12.8642C23.1735 13.2078 22.908 13.475 22.5627 13.475L22.0123 13.475C21.667 13.475 21.3998 13.2078 21.3998 12.8642L21.3998 12.2213L14.0016 12.2213L14.0016 12.8642C14.0016 13.2078 13.7362 13.475 13.3829 13.475L12.8405 13.475C12.4952 13.475 12.228 13.2078 12.228 12.8642L12.228 9.77851C12.228 8.98593 12.3301 8.50839 12.7989 7.98905L13.2579 7.48573L13.7444 6.1246C14.0239 5.33398 14.5475 5.00644 15.1928 4.93456C15.5149 4.89374 16.4926 4.86269 17.7016 4.86269C18.9026 4.86269 19.8803 4.89374 20.2086 4.93456ZM13.478 9.21386L13.478 9.92597C13.478 10.2135 13.7016 10.4273 13.9953 10.4273C14.2891 10.4273 14.5047 10.2215 14.5047 9.92597L14.5047 9.21386C14.5047 8.92011 14.2891 8.71425 13.9953 8.71425C13.7016 8.71425 13.478 8.92011 13.478 9.21386ZM20.9438 9.21386L20.9438 9.92597C20.9438 10.2117 21.1594 10.4273 21.4452 10.4273C21.7469 10.4273 21.9625 10.2215 21.9625 9.92597L21.9625 9.21386C21.9625 8.92011 21.7469 8.71425 21.4452 8.71425C21.1594 8.71425 20.9438 8.92987 20.9438 9.21386ZM16.6672 8.93085C16.4303 8.93085 16.275 9.08788 16.275 9.34257L16.275 9.79901C16.275 10.0537 16.4303 10.2107 16.6672 10.2107L18.7147 10.2107C18.9516 10.2107 19.1166 10.0555 19.1166 9.79901L19.1166 9.34257C19.1166 9.08788 18.9534 8.93085 18.7147 8.93085ZM15.2366 5.85819C14.9323 5.90077 14.7522 5.99843 14.6412 6.32597L14.3616 7.15273C14.2879 7.37187 14.3854 7.54316 14.6178 7.54316L20.7756 7.54316C21.0098 7.54316 21.1135 7.37187 21.0399 7.15273L20.7522 6.32597C20.643 5.99843 20.4612 5.90077 20.1586 5.85819C19.862 5.81288 18.9944 5.7871 17.7016 5.7871C16.4071 5.7871 15.5332 5.81288 15.2366 5.85819Z" fill="white" fill-opacity="0.85"/>
  <path d="M34.2272 22.3715C34.2272 18.7135 31.2037 15.682 27.5555 15.682C23.9055 15.682 20.8741 18.7135 20.8741 22.3715C20.8741 24.082 21.5354 25.6638 22.6282 26.8498C22.9723 27.2383 23.5854 27.276 24.0063 26.8631L24.9811 25.9043C25.2553 25.6381 25.2473 25.2086 24.9891 24.9504C24.7149 24.6939 24.2951 24.6922 24.0369 24.9504L23.4668 25.5223C22.7936 24.6529 22.3912 23.5713 22.3912 22.3697C22.3912 19.4785 24.6723 17.1974 27.5555 17.1974C30.4405 17.1974 32.7117 19.4785 32.7117 22.3697C32.7117 23.5713 32.3192 24.6529 31.6442 25.5223L31.066 24.9504C30.8114 24.6922 30.3864 24.6939 30.1201 24.9504C29.8637 25.2086 29.8539 25.6381 30.1282 25.9043L31.0949 26.8631C31.5176 27.284 32.1307 27.2383 32.4748 26.8498C33.5658 25.6638 34.2272 24.082 34.2272 22.3715ZM23.3069 21.7015L21.7539 21.7015L21.7539 23.0361L23.3069 23.0361C23.668 23.0361 23.983 22.7291 23.983 22.3697C23.983 21.9988 23.668 21.7015 23.3069 21.7015ZM31.7783 21.7015C31.4172 21.7015 31.1102 21.9988 31.1102 22.3697C31.1102 22.7291 31.4172 23.0361 31.7783 23.0361L33.333 23.0361L33.333 21.7015ZM26.8891 18.1431C26.8891 18.506 27.1961 18.8211 27.5555 18.8211C27.9184 18.8211 28.2254 18.506 28.2254 18.1431L28.2254 16.5982L26.8891 16.5982ZM25.0567 18.925L23.9604 17.8189L23.0145 18.7711L24.1125 19.8674C24.3707 20.1256 24.7905 20.1256 25.0647 19.8674C25.3229 19.6127 25.3229 19.1832 25.0567 18.925ZM33.8863 14.2596C33.6637 14.0307 33.3559 14.1531 33.2983 14.4414L32.835 16.6494C32.7694 16.9599 32.9848 17.1639 33.2821 17.0982L35.4901 16.6332C35.7881 16.5658 35.9123 16.282 35.6817 16.0531ZM26.6946 23.273C27.1463 23.707 27.819 23.707 28.269 23.265C28.3453 23.1709 28.4723 22.9951 28.5617 22.864L30.5561 19.9383C30.6918 19.7431 30.6563 19.5515 30.5313 19.4203C30.408 19.3015 30.2147 19.2838 30.0196 19.4017L27.0893 21.4076C26.9467 21.5068 26.7824 21.6205 26.6946 21.6986C26.2438 22.1433 26.2526 22.815 26.6946 23.273Z" fill="white" fill-opacity="0.85"/>
 </g>
</svg>
