<?xml version="1.0" encoding="UTF-8"?>
<!--Generator: Apple Native CoreSVG 341-->
<!DOCTYPE svg
PUBLIC "-//W3C//DTD SVG 1.1//EN"
       "http://www.w3.org/Graphics/SVG/1.1/DTD/svg11.dtd">
<svg version="1.1" xmlns="http://www.w3.org/2000/svg" xmlns:xlink="http://www.w3.org/1999/xlink" viewBox="0 0 27.3027 21.6879">
 <g>
  <rect height="21.6879" opacity="0" width="27.3027" x="0" y="0"/>
  <path d="M26.9414 10.0037L26.9414 8.08809C26.5523 8.28438 26.1553 8.49845 25.7502 8.75606L22.1734 11.0127L18.2619 11.4957C15.7379 11.7975 14.2053 13.3815 14.2053 15.5441L14.2053 16.6672C14.2053 18.7439 15.1607 19.7145 17.1514 19.7145L18.5051 19.7145L18.5051 18.0647L17.1514 18.0647C16.2699 18.0647 15.8568 17.6072 15.8568 16.6051L15.8568 15.5441C15.8568 14.2637 16.7877 13.3293 18.4676 13.118L22.0193 12.6865C22.5652 12.6244 22.9449 12.4922 23.3336 12.2553L26.4943 10.2668C26.6428 10.1699 26.7912 10.0828 26.9414 10.0037ZM26.9396 19.7145L26.9396 18.0647L23.1912 18.0647L23.1912 19.7145ZM20.9463 21.6461C22.7814 21.6461 24.2199 20.2076 24.2199 18.3725C24.2199 16.5373 22.7814 15.0988 20.9463 15.0988C19.1094 15.0988 17.6789 16.5373 17.6789 18.3725C17.6789 20.2076 19.1094 21.6461 20.9463 21.6461ZM20.9463 20.0815C19.9959 20.0815 19.2355 19.3291 19.2355 18.3725C19.2355 17.4078 19.9959 16.6537 20.9463 16.6537C21.9109 16.6537 22.6713 17.4078 22.6713 18.3725C22.6713 19.3291 21.9109 20.0815 20.9463 20.0815ZM5.34883 21.6461C7.18574 21.6461 8.61621 20.2076 8.61621 18.3725C8.61621 16.5373 7.18574 15.0988 5.34883 15.0988C3.50567 15.0988 2.0672 16.5373 2.0672 18.3725C2.0672 20.2076 3.50567 21.6461 5.34883 21.6461ZM5.34883 20.0815C4.38418 20.0815 3.62383 19.3291 3.62383 18.3725C3.62383 17.4078 4.38418 16.6537 5.34883 16.6537C6.29922 16.6537 7.05958 17.4078 7.05958 18.3725C7.05958 19.3291 6.29922 20.0815 5.34883 20.0815ZM0 18.0647L0 19.7145L3.1543 19.7145L3.1543 18.0647ZM7.77403 19.7145L9.14375 19.7145C11.1504 19.7145 12.0818 18.7307 12.0818 16.6051L12.0818 14.1541C12.0818 12.4502 11.2398 11.3834 9.51543 10.8129L8.13125 10.3567C6.31738 8.79317 3.84922 7.02345 0.615823 7.02345L0 7.02345L0 8.68125L0.615823 8.68125C2.83887 8.68125 4.62344 9.54961 6.8711 11.515C7.30332 11.8922 7.54277 12.0004 8.09297 12.1654L9.01719 12.4744C9.98184 12.7711 10.4303 13.3082 10.4303 14.191L10.4303 16.6051C10.4303 17.6072 10.0252 18.0647 9.14375 18.0647L7.77403 18.0647Z" fill="white" fill-opacity="0.85"/>
  <path d="M13.4725 6.58595C14.001 6.58595 14.3096 6.29063 14.3264 5.72657L14.4701 0.984371C14.4887 0.417772 14.0559 0 13.4627 0C12.8598 0 12.4447 0.409764 12.4633 0.976363L12.599 5.73009C12.6141 6.28263 12.9262 6.58595 13.4725 6.58595ZM13.4725 9.8213C14.0986 9.8213 14.6133 9.37305 14.6133 8.74942C14.6133 8.13556 14.1066 7.68556 13.4725 7.68556C12.8383 7.68556 12.3264 8.14181 12.3264 8.74942C12.3264 9.36505 12.8463 9.8213 13.4725 9.8213Z" fill="white" fill-opacity="0.85"/>
 </g>
</svg>
