<?xml version="1.0" encoding="UTF-8"?>
<!--Generator: Apple Native CoreSVG 341-->
<!DOCTYPE svg
PUBLIC "-//W3C//DTD SVG 1.1//EN"
       "http://www.w3.org/Graphics/SVG/1.1/DTD/svg11.dtd">
<svg version="1.1" xmlns="http://www.w3.org/2000/svg" xmlns:xlink="http://www.w3.org/1999/xlink" viewBox="0 0 20.5381 20.1848">
 <g>
  <rect height="20.1848" opacity="0" width="20.5381" x="0" y="0"/>
  <path d="M10.0875 20.175C15.6576 20.175 20.1767 15.6559 20.1767 10.0875C20.1767 4.51914 15.6576 0 10.0875 0C4.51914 0 0 4.51914 0 10.0875C0 15.6559 4.51914 20.175 10.0875 20.175ZM10.0875 18.1879C5.60839 18.1879 1.9871 14.5666 1.9871 10.0875C1.9871 5.60839 5.60839 1.9871 10.0875 1.9871C14.5666 1.9871 18.1897 5.60839 18.1897 10.0875C18.1897 14.5666 14.5666 18.1879 10.0875 18.1879Z" fill="white" fill-opacity="0.85"/>
  <path d="M4.84218 13.2531C4.84218 13.5861 5.10233 13.8383 5.43534 13.8383L5.96191 13.8383C6.28866 13.8383 6.5453 13.5861 6.5453 13.2531L6.5453 12.5082C7.51601 12.5668 8.94121 12.6156 10.0875 12.6156C11.2355 12.6156 12.651 12.5686 13.6252 12.5082L13.6252 13.2531C13.6252 13.5861 13.8818 13.8383 14.2166 13.8383L14.7414 13.8383C15.0682 13.8383 15.3248 13.5861 15.3248 13.2531L15.3248 10.6861C15.3248 9.93593 15.1809 9.50976 14.7715 8.97695L14.3924 8.49921C14.2236 7.70878 13.9395 6.8828 13.7965 6.56132C13.5541 6.05527 13.0889 5.75878 12.4887 5.67441C12.1807 5.63359 11.2355 5.6123 10.0875 5.6123C8.93496 5.6123 7.99784 5.63359 7.68183 5.67441C7.08964 5.75077 6.62265 6.05527 6.38202 6.56132C6.23105 6.8828 5.94687 7.70878 5.78612 8.49921L5.39726 8.97695C4.98964 9.50976 4.84218 9.93593 4.84218 10.6861ZM6.99999 8.05722C7.09862 7.63769 7.27284 7.09823 7.3955 6.88046C7.51269 6.66835 7.64491 6.58046 7.88808 6.55116C8.17421 6.50585 8.86698 6.48808 10.0875 6.48808C11.3035 6.48808 11.9945 6.49784 12.2904 6.55116C12.5336 6.58046 12.6561 6.66835 12.783 6.88046C12.9039 7.09023 13.0799 7.63769 13.167 8.05722C13.2158 8.21425 13.1457 8.29316 12.9674 8.28515C12.3391 8.2371 11.5484 8.20605 10.0875 8.20605C8.62206 8.20605 7.83769 8.2371 7.20311 8.28515C7.02479 8.29316 6.95917 8.21425 6.99999 8.05722ZM6.17948 10.6898C6.17948 10.2734 6.49999 9.96269 6.90038 9.96269C7.30702 9.96269 7.62753 10.2734 7.62753 10.6898C7.62753 11.0982 7.30702 11.401 6.90038 11.401C6.49999 11.401 6.17948 11.0982 6.17948 10.6898ZM8.39511 10.7139C8.39511 10.4031 8.60995 10.1865 8.9207 10.1865L11.2561 10.1865C11.5588 10.1865 11.7754 10.4031 11.7754 10.7139C11.7754 11.0166 11.5588 11.2314 11.2561 11.2314L8.9207 11.2314C8.60995 11.2314 8.39511 11.0166 8.39511 10.7139ZM12.5492 10.6898C12.5492 10.2734 12.86 9.96269 13.2684 9.96269C13.6785 9.96269 13.9955 10.2734 13.9955 10.6898C13.9955 11.0982 13.6785 11.401 13.2684 11.401C12.86 11.401 12.5492 11.0982 12.5492 10.6898Z" fill="white" fill-opacity="0.85"/>
 </g>
</svg>
