<?xml version="1.0" encoding="UTF-8"?>
<!--Generator: Apple Native CoreSVG 341-->
<!DOCTYPE svg
PUBLIC "-//W3C//DTD SVG 1.1//EN"
       "http://www.w3.org/Graphics/SVG/1.1/DTD/svg11.dtd">
<svg version="1.1" xmlns="http://www.w3.org/2000/svg" xmlns:xlink="http://www.w3.org/1999/xlink" viewBox="0 0 18.6595 25.6043">
 <g>
  <rect height="25.6043" opacity="0" width="18.6595" x="0" y="0"/>
  <path d="M0.936323 21.1226C1.49687 21.1226 1.87616 20.7504 1.87616 20.1765L1.87616 11.3672C1.87616 10.7951 1.49687 10.4211 0.936323 10.4211C0.385544 10.4211 0 10.7951 0 11.3574L0 20.1881C0 20.7504 0.385544 21.1226 0.936323 21.1226ZM0.950385 14.0873L4.6824 14.0873L4.6824 12.5637L0.950385 12.5637ZM11.1123 25.598C16.1336 25.598 18.2982 24.4402 18.2982 21.6662L18.2982 4.68671C18.2982 1.70332 15.6857 0 11.1123 0C6.54237 0 3.92987 1.70859 3.92987 4.68671L3.92987 21.6662C3.92987 24.4402 6.09452 25.598 11.1123 25.598ZM11.114 10.6342C10.1324 10.6342 8.67635 10.7078 8.20897 10.7078C7.43846 10.7078 7.11443 10.4113 7.03982 9.6248L6.87029 7.69335C6.73983 6.2207 7.79685 5.63476 11.114 5.63476C14.433 5.63476 15.498 6.2207 15.3613 7.69335L15.1918 9.6248C15.1234 10.4113 14.7914 10.7078 14.0289 10.7078C13.5535 10.7078 12.0556 10.6342 11.114 10.6342ZM11.114 21.4793C7.74119 21.4793 6.69373 20.9662 6.91385 19.4625L7.04432 18.534C7.21385 17.3187 8.23201 16.9033 11.114 16.9033C14.0058 16.9033 15.024 17.3187 15.1935 18.534L15.324 19.4625C15.5361 20.9662 14.4967 21.4793 11.114 21.4793Z" fill="white" fill-opacity="0.85"/>
 </g>
</svg>
