<?xml version="1.0" encoding="UTF-8"?>
<!--Generator: Apple Native CoreSVG 341-->
<!DOCTYPE svg
PUBLIC "-//W3C//DTD SVG 1.1//EN"
       "http://www.w3.org/Graphics/SVG/1.1/DTD/svg11.dtd">
<svg version="1.1" xmlns="http://www.w3.org/2000/svg" xmlns:xlink="http://www.w3.org/1999/xlink" viewBox="0 0 19.8627 28.3066">
 <g>
  <rect height="28.3066" opacity="0" width="19.8627" x="0" y="0"/>
  <path d="M6.76797 19.2092C10.525 19.2092 12.2205 18.3191 12.2205 16.1223L12.2205 3.60469C12.2205 1.32187 10.1811 0 6.76797 0C3.33711 0 1.30566 1.31836 1.30566 3.60469L1.30566 16.1223C1.30566 18.3191 3.00918 19.2092 6.76797 19.2092ZM6.76797 8.08808C6.0623 8.08808 4.95937 8.15019 4.60214 8.15019C3.99492 8.15019 3.72597 7.89277 3.66113 7.25801L3.54043 5.84648C3.44101 4.68086 4.2291 4.24316 6.76797 4.24316C9.29082 4.24316 10.0852 4.68086 9.98574 5.84648L9.84902 7.25801C9.8002 7.89277 9.525 8.15019 8.91602 8.15019C8.5668 8.15019 7.4959 8.08808 6.76797 8.08808ZM6.76797 16.1115C4.20625 16.1115 3.38769 15.7254 3.56972 14.5225L3.66738 13.8406C3.81836 12.8783 4.57636 12.5773 6.76797 12.5773C8.9498 12.5773 9.6998 12.8783 9.84277 13.8406L9.9582 14.5225C10.1322 15.7254 9.31191 16.1115 6.76797 16.1115ZM11.4123 7.76738L12.6307 7.76738C13.1418 7.76738 13.5182 7.37871 13.5182 6.87754L13.5182 6.56445C13.5182 6.05351 13.1418 5.67285 12.6307 5.67285L11.4123 5.67285ZM2.10586 7.7832L2.10586 5.68691L0.887499 5.68691C0.384375 5.68691 0 6.06758 0 6.57851L0 6.89336C0 7.39453 0.384375 7.7832 0.887499 7.7832Z" fill="white" fill-opacity="0.85"/>
  <path d="M15.1514 27.6066L12.5961 25.0514C12.0875 24.5428 12.0795 23.9551 12.5811 23.4535L14.9666 21.068C15.4682 20.5664 16.0318 20.5486 16.5484 21.067L19.1197 23.6383C19.6123 24.1309 19.6461 24.7346 19.1348 25.2441L16.7467 27.634C16.2434 28.1356 15.66 28.1152 15.1514 27.6066ZM12.7772 22.691L11.1014 22.5551C10.9195 22.5418 10.7643 22.4947 10.6676 22.398C10.4705 22.2027 10.4768 21.9275 10.6934 21.7189L13.233 19.1793C13.4318 18.9725 13.707 18.9662 13.9023 19.1633C13.999 19.26 14.0461 19.4232 14.0656 19.5891L14.2033 21.2729Z" fill="white" fill-opacity="0.85"/>
 </g>
</svg>
