<?xml version="1.0" encoding="UTF-8"?>
<!--Generator: Apple Native CoreSVG 341-->
<!DOCTYPE svg
PUBLIC "-//W3C//DTD SVG 1.1//EN"
       "http://www.w3.org/Graphics/SVG/1.1/DTD/svg11.dtd">
<svg version="1.1" xmlns="http://www.w3.org/2000/svg" xmlns:xlink="http://www.w3.org/1999/xlink" viewBox="0 0 33.2865 23.9039">
 <g>
  <rect height="23.9039" opacity="0" width="33.2865" x="0" y="0"/>
  <path d="M3.03124 19.4039L3.53535 19.4039C3.46972 19.1066 3.43066 18.8058 3.43066 18.4953C3.43066 16.3111 5.16386 14.5877 7.35605 14.5877C9.53847 14.5877 11.2717 16.3111 11.2717 18.4953C11.2717 18.8058 11.2389 19.1066 11.1652 19.4039L21.7519 19.4039C21.6846 19.1066 21.6535 18.8058 21.6535 18.4953C21.6535 16.3111 23.3787 14.5877 25.5709 14.5877C27.7613 14.5877 29.4865 16.3111 29.4865 18.4953C29.4865 18.8058 29.4537 19.1066 29.3801 19.4039L29.8939 19.4039C31.9547 19.4039 32.9252 18.381 32.9252 16.2031L32.9252 13.6625C32.9252 11.908 32.0539 10.8164 30.2789 10.2201L28.8459 9.73807C27.0152 8.17206 24.4174 6.3037 20.9484 6.3037L19.5433 6.3037C15.7691 6.3037 14.1803 6.68007 11.9098 8.10467L8.21757 10.4199L4.1791 10.9162C1.57344 11.2357 0 12.8605 0 15.1013L0 16.2554C0 18.4023 0.986521 19.4039 3.03124 19.4039ZM7.35605 21.3C8.92089 21.3 10.1607 20.0619 10.1607 18.4953C10.1607 16.9349 8.92089 15.6986 7.35605 15.6986C5.78769 15.6986 4.5496 16.9349 4.5496 18.4953C4.5496 20.0619 5.78769 21.3 7.35605 21.3ZM25.5709 21.3C27.1375 21.3 28.3756 20.0619 28.3756 18.4953C28.3756 16.9349 27.1375 15.6986 25.5709 15.6986C24.0043 15.6986 22.7644 16.9349 22.7644 18.4953C22.7644 20.0619 24.0043 21.3 25.5709 21.3Z" fill="white" fill-opacity="0.85"/>
  <path d="M14.8932 4.66444L25.1475 4.66444C26.0166 4.66444 26.4551 4.13378 26.4551 3.23203L26.4551 2.25293C26.4551 0.757811 25.7148 0 24.0328 0L22.0857 0C20.3043 0 18.9596 0.432618 16.6984 1.40605L14.5504 2.34609C13.8736 2.64394 13.6527 3.08418 13.6527 3.57792C13.6527 4.26015 14.0498 4.66444 14.8932 4.66444Z" fill="white" fill-opacity="0.85"/>
 </g>
</svg>
