<?xml version="1.0" encoding="UTF-8"?>
<!--Generator: Apple Native CoreSVG 341-->
<!DOCTYPE svg
PUBLIC "-//W3C//DTD SVG 1.1//EN"
       "http://www.w3.org/Graphics/SVG/1.1/DTD/svg11.dtd">
<svg version="1.1" xmlns="http://www.w3.org/2000/svg" xmlns:xlink="http://www.w3.org/1999/xlink" viewBox="0 0 19.4187 23.8055">
 <g>
  <rect height="23.8055" opacity="0" width="19.4187" x="0" y="0"/>
  <path d="M9.52695 1.78085C11.6266 1.78085 13.5459 2.4957 14.9746 3.7832C15.3996 4.16913 15.899 4.27109 16.291 3.93847C16.7016 3.58281 16.7191 2.98242 16.2422 2.53125C14.4914 0.903126 12.1002 0.00273466 9.52695 0.00273466C6.95723 0.00273466 4.54141 0.920703 2.81348 2.53125C2.33653 2.98242 2.3541 3.58281 2.76465 3.93847C3.15488 4.27109 3.65429 4.16913 4.08105 3.7832C5.50976 2.4957 7.4291 1.78085 9.52695 1.78085Z" fill="white" fill-opacity="0.85"/>
  <path d="M9.52871 5.79882C10.5039 5.79882 11.4617 6.09706 12.1439 6.64081C12.5885 6.96112 13.0666 7.09257 13.4551 6.76425C13.8719 6.41562 13.8887 5.76288 13.3937 5.3498C12.3672 4.50195 10.9959 4.02246 9.52871 4.02246C8.06152 4.02246 6.69023 4.50195 5.66367 5.3498C5.16875 5.76288 5.18555 6.41562 5.60234 6.76425C5.99082 7.09257 6.46093 6.96112 6.91347 6.64081C7.61972 6.11307 8.55351 5.79882 9.52871 5.79882Z" fill="white" fill-opacity="0.85"/>
  <path d="M0 22.6568C0 23.2906 0.508593 23.8055 1.16016 23.8055L2.10644 23.8055C2.74824 23.8055 3.25332 23.2906 3.25332 22.6568L3.25332 21.6478L15.8023 21.6478L15.8023 22.6568C15.8023 23.2906 16.3092 23.8055 16.951 23.8055L17.9053 23.8055C18.5488 23.8055 19.0574 23.2906 19.0574 22.6568L19.0574 17.3873C19.0574 16.001 18.8887 15.1551 18.0461 14.2283L17.2728 13.3769L16.433 11.0533C15.9379 9.64511 15.0016 9.06015 13.8557 8.92968C13.3002 8.85605 11.5978 8.81523 9.52871 8.81523C7.45957 8.81523 5.75722 8.85605 5.20176 8.92968C4.05586 9.06015 3.11953 9.64511 2.62441 11.0533L1.78457 13.3769L1.01133 14.2283C0.16875 15.1551 0 16.001 0 17.3873ZM4.22773 13.4209C3.87734 13.4209 3.7666 13.2221 3.87929 12.8902L4.36679 11.4658C4.55761 10.9447 4.79531 10.808 5.28945 10.7344C5.81796 10.6598 7.29921 10.6002 9.52871 10.6002C11.7582 10.6002 13.2395 10.6598 13.7582 10.7344C14.2541 10.808 14.5016 10.9447 14.6906 11.4658L15.1764 12.8902C15.2908 13.2221 15.1721 13.4209 14.8182 13.4209ZM3.14882 18.3957C2.68378 18.3957 2.36874 18.0859 2.36874 17.6289L2.36874 16.4045C2.36874 15.9474 2.68378 15.6439 3.14882 15.6439C3.61562 15.6439 3.91913 15.9394 3.91913 16.4045L3.91913 17.6289C3.91913 18.0939 3.61562 18.3957 3.14882 18.3957ZM7.74316 18.0166C7.38027 18.0166 7.17441 17.8072 7.17441 17.4025L7.17441 16.6228C7.17441 16.2359 7.38027 16.0283 7.74316 16.0283L11.2814 16.0283C11.6523 16.0283 11.86 16.2359 11.86 16.6228L11.86 17.4025C11.86 17.8072 11.6523 18.0166 11.2814 18.0166ZM15.9832 18.3957C15.5262 18.3957 15.2111 18.0842 15.2111 17.6289L15.2111 16.4045C15.2111 15.9474 15.5262 15.6439 15.9832 15.6439C16.45 15.6439 16.765 15.9377 16.765 16.4045L16.765 17.6289C16.765 18.0957 16.45 18.3957 15.9832 18.3957Z" fill="white" fill-opacity="0.85"/>
 </g>
</svg>
