<?xml version="1.0" encoding="UTF-8"?>
<!--Generator: Apple Native CoreSVG 341-->
<!DOCTYPE svg
PUBLIC "-//W3C//DTD SVG 1.1//EN"
       "http://www.w3.org/Graphics/SVG/1.1/DTD/svg11.dtd">
<svg version="1.1" xmlns="http://www.w3.org/2000/svg" xmlns:xlink="http://www.w3.org/1999/xlink" viewBox="0 0 27.3027 23.2833">
 <g>
  <rect height="23.2833" opacity="0" width="27.3027" x="0" y="0"/>
  <path d="M26.9414 10.8014L26.9414 8.88582C26.5523 9.08211 26.1553 9.29617 25.7502 9.55379L22.1734 11.8104L18.2619 12.2934C15.7379 12.5952 14.2053 14.1792 14.2053 16.3419L14.2053 17.4649C14.2053 19.5417 15.1607 20.5122 17.1514 20.5122L18.5051 20.5122L18.5051 18.8624L17.1514 18.8624C16.2699 18.8624 15.8568 18.405 15.8568 17.4028L15.8568 16.3419C15.8568 15.0614 16.7877 14.127 18.4676 13.9157L22.0193 13.4842C22.5652 13.4221 22.9449 13.2899 23.3336 13.053L26.4943 11.0645C26.6428 10.9676 26.7912 10.8805 26.9414 10.8014ZM26.9396 20.5122L26.9396 18.8624L23.1912 18.8624L23.1912 20.5122ZM20.9463 22.4438C22.7814 22.4438 24.2199 21.0053 24.2199 19.1702C24.2199 17.335 22.7814 15.8966 20.9463 15.8966C19.1094 15.8966 17.6789 17.335 17.6789 19.1702C17.6789 21.0053 19.1094 22.4438 20.9463 22.4438ZM20.9463 20.8792C19.9959 20.8792 19.2355 20.1268 19.2355 19.1702C19.2355 18.2055 19.9959 17.4514 20.9463 17.4514C21.9109 17.4514 22.6713 18.2055 22.6713 19.1702C22.6713 20.1268 21.9109 20.8792 20.9463 20.8792ZM5.34883 22.4438C7.18574 22.4438 8.61621 21.0053 8.61621 19.1702C8.61621 17.335 7.18574 15.8966 5.34883 15.8966C3.50567 15.8966 2.0672 17.335 2.0672 19.1702C2.0672 21.0053 3.50567 22.4438 5.34883 22.4438ZM5.34883 20.8792C4.38418 20.8792 3.62383 20.1268 3.62383 19.1702C3.62383 18.2055 4.38418 17.4514 5.34883 17.4514C6.29922 17.4514 7.05958 18.2055 7.05958 19.1702C7.05958 20.1268 6.29922 20.8792 5.34883 20.8792ZM0 18.8624L0 20.5122L3.1543 20.5122L3.1543 18.8624ZM7.77403 20.5122L9.14375 20.5122C11.1504 20.5122 12.0818 19.5284 12.0818 17.4028L12.0818 14.9518C12.0818 13.2479 11.2398 12.1811 9.51543 11.6106L8.13125 11.1544C6.31738 9.59089 3.84922 7.82117 0.615823 7.82117L0 7.82117L0 9.47897L0.615823 9.47897C2.83887 9.47897 4.62344 10.3473 6.8711 12.3128C7.30332 12.6899 7.54277 12.7981 8.09297 12.9632L9.01719 13.2721C9.98184 13.5688 10.4303 14.1059 10.4303 14.9887L10.4303 17.4028C10.4303 18.405 10.0252 18.8624 9.14375 18.8624L7.77403 18.8624Z" fill="white" fill-opacity="0.85"/>
  <path d="M14.5344 0.59617L14.1082 2.36746L11.8914 0.0938263C11.6988-0.108517 11.4318 0.0387481 11.5232 0.322732L12.3125 2.64617L11.3019 2.19597C11.0385 2.07176 10.8557 2.27664 11.042 2.52332L11.5988 3.23914L8.96015 2.87156C8.63711 2.82273 8.54843 3.15808 8.80488 3.31961L11.2926 4.82449L9.82304 5.36609C9.54355 5.47078 9.58613 5.79285 9.88691 5.81414L11.5322 5.93582L9.28418 7.45847C9.03847 7.62078 9.13867 7.98015 9.47402 7.89851L12.332 7.24949L12.3711 9.69089C12.3711 9.96765 12.6328 9.98992 12.7473 9.80359L14.615 6.73113L17.7197 9.52507C17.9646 9.7407 18.2707 9.51004 18.1092 9.21277L16.282 5.77957L18.1668 5.21316C18.3371 5.16082 18.3406 4.93367 18.1703 4.86804L16.5004 4.18445L17.7016 0.783474C17.7752 0.559842 17.541 0.34871 17.3449 0.544803L15.4166 2.37722L14.9451 0.594412C14.8848 0.333475 14.5982 0.326444 14.5344 0.59617Z" fill="white" fill-opacity="0.85"/>
 </g>
</svg>
