<?xml version="1.0" encoding="UTF-8"?>
<!--Generator: Apple Native CoreSVG 341-->
<!DOCTYPE svg
PUBLIC "-//W3C//DTD SVG 1.1//EN"
       "http://www.w3.org/Graphics/SVG/1.1/DTD/svg11.dtd">
<svg version="1.1" xmlns="http://www.w3.org/2000/svg" xmlns:xlink="http://www.w3.org/1999/xlink" viewBox="0 0 21.0023 18.7605">
 <g>
  <rect height="18.7605" opacity="0" width="21.0023" x="0" y="0"/>
  <path d="M12.6943 1.39238L20.2531 14.5709C20.506 15.0164 20.641 15.509 20.641 15.982C20.641 17.5166 19.5736 18.741 17.8695 18.741L2.77324 18.741C1.06738 18.741 0 17.5166 0 15.982C0 15.509 0.120703 15.0244 0.38789 14.5727L7.94668 1.39238C8.46582 0.468554 9.38515 0 10.3223 0C11.2576 0 12.1637 0.465038 12.6943 1.39238ZM7.96816 7.82949C7.35644 7.9041 6.85488 8.20859 6.59394 8.94882L6.14726 10.234L5.71835 10.702C5.25214 11.1912 5.17304 11.6404 5.17304 12.3906L5.17304 15.2686C5.17304 15.5908 5.4287 15.843 5.76523 15.843L6.26777 15.843C6.59804 15.843 6.85019 15.5908 6.85019 15.2686L6.85019 14.6697L13.7703 14.6697L13.7703 15.2686C13.7703 15.5908 14.0207 15.843 14.351 15.843L14.8615 15.843C15.198 15.843 15.4457 15.5908 15.4457 15.2686L15.4457 12.3906C15.4457 11.6404 15.3666 11.1912 14.9084 10.702L14.4795 10.234L14.0248 8.94882C13.7639 8.20859 13.2641 7.9041 12.6586 7.82949C12.3701 7.78867 11.4393 7.7709 10.3143 7.7709C9.17949 7.7709 8.25839 7.78867 7.96816 7.82949ZM7.29257 11.8516L7.29257 12.5088C7.29257 12.7902 7.09101 12.9803 6.8371 12.9803C6.55917 12.9803 6.35585 12.7902 6.35585 12.5088L6.35585 11.8516C6.35585 11.5896 6.55917 11.3881 6.8371 11.3881C7.09101 11.3881 7.29257 11.5816 7.29257 11.8516ZM14.3082 11.8516L14.3082 12.5088C14.3082 12.792 14.1066 12.9803 13.8367 12.9803C13.573 12.9803 13.3813 12.7902 13.3813 12.5088L13.3813 11.8516C13.3813 11.5896 13.573 11.3881 13.8367 11.3881C14.1066 11.3881 14.3082 11.5816 14.3082 11.8516ZM11.625 11.967L11.625 12.4031C11.625 12.634 11.49 12.7707 11.2654 12.7707L9.3373 12.7707C9.11894 12.7707 8.98398 12.634 8.98398 12.4031L8.98398 11.967C8.98398 11.7441 9.11894 11.5994 9.3373 11.5994L11.2654 11.5994C11.49 11.5994 11.625 11.7441 11.625 11.967ZM12.6289 8.70527C12.8996 8.74609 13.0691 8.84296 13.1748 9.13867L13.4342 9.92832C13.491 10.1219 13.4271 10.2728 13.207 10.2728L7.4162 10.2728C7.1996 10.2728 7.12421 10.1219 7.19081 9.92832L7.4537 9.13867C7.54335 8.84296 7.71913 8.74609 7.98984 8.70527C8.27148 8.67597 9.08867 8.64394 10.3143 8.64394C11.5381 8.64394 12.3393 8.67597 12.6289 8.70527Z" fill="white" fill-opacity="0.85"/>
 </g>
</svg>
