<?xml version="1.0" encoding="UTF-8"?>
<!--Generator: Apple Native CoreSVG 341-->
<!DOCTYPE svg
PUBLIC "-//W3C//DTD SVG 1.1//EN"
       "http://www.w3.org/Graphics/SVG/1.1/DTD/svg11.dtd">
<svg version="1.1" xmlns="http://www.w3.org/2000/svg" xmlns:xlink="http://www.w3.org/1999/xlink" viewBox="0 0 22.3184 25.7476">
 <g>
  <rect height="25.7476" opacity="0" width="22.3184" x="0" y="0"/>
  <path d="M10.9834 5.36485C11.4135 5.36485 11.66 5.12364 11.6732 4.66778L11.7957 0.79902C11.8125 0.332616 11.4568 0 10.9736 0C10.4842 0 10.1445 0.324608 10.1613 0.791012L10.266 4.66954C10.2811 5.11563 10.5373 5.36485 10.9834 5.36485ZM10.9834 8.00196C11.4916 8.00196 11.9068 7.63536 11.9068 7.12794C11.9068 6.62852 11.4916 6.26016 10.9834 6.26016C10.4689 6.26016 10.0502 6.63653 10.0502 7.12794C10.0502 7.62735 10.477 8.00196 10.9834 8.00196ZM21.957 8.15371L21.957 6.58555C21.6426 6.74454 21.3201 6.9213 20.9879 7.13985L18.0689 8.97481L14.8801 9.36368C12.8291 9.61309 11.5805 10.9016 11.5805 12.6676L11.5805 13.5855C11.5805 15.2709 12.3594 16.0613 13.9764 16.0613L15.0844 16.0613L15.0844 14.7191L13.9764 14.7191C13.2566 14.7191 12.9244 14.3443 12.9244 13.535L12.9244 12.6676C12.9244 11.626 13.6803 10.8604 15.0512 10.6881L17.9451 10.3428C18.3898 10.2842 18.6976 10.1795 19.0144 9.98516L21.5891 8.36348C21.7117 8.28613 21.8344 8.21504 21.957 8.15371ZM21.9553 16.0613L21.9553 14.7191L18.9041 14.7191L18.9041 16.0613ZM17.0746 17.6379C18.5717 17.6379 19.7457 16.4639 19.7457 14.9668C19.7457 13.468 18.5717 12.3037 17.0746 12.3037C15.574 12.3037 14.4098 13.468 14.4098 14.9668C14.4098 16.4639 15.574 17.6379 17.0746 17.6379ZM17.0746 16.3676C16.293 16.3676 15.6703 15.7547 15.6703 14.9668C15.6703 14.1869 16.293 13.5723 17.0746 13.5723C17.8545 13.5723 18.4754 14.1869 18.4754 14.9668C18.4754 15.7547 17.8545 16.3676 17.0746 16.3676ZM4.35703 17.6379C5.85762 17.6379 7.02187 16.4639 7.02187 14.9668C7.02187 13.468 5.85762 12.3037 4.35703 12.3037C2.85997 12.3037 1.68594 13.468 1.68594 14.9668C1.68594 16.4639 2.85997 17.6379 4.35703 17.6379ZM4.35703 16.3676C3.57715 16.3676 2.95625 15.7547 2.95625 14.9668C2.95625 14.1869 3.57715 13.5723 4.35703 13.5723C5.13067 13.5723 5.75333 14.1869 5.75333 14.9668C5.75333 15.7547 5.13067 16.3676 4.35703 16.3676ZM0 14.7191L0 16.0613L2.57071 16.0613L2.57071 14.7191ZM6.33926 16.0613L7.45527 16.0613C9.08828 16.0613 9.85117 15.2594 9.85117 13.535L9.85117 11.535C9.85117 10.1461 9.16445 9.27188 7.75508 8.81407L6.62304 8.4377C5.14746 7.15743 3.13281 5.717 0.501174 5.717L0 5.717L0 7.0707L0.501174 7.0707C2.31406 7.0707 3.76836 7.78106 5.60059 9.38516C5.94492 9.69043 6.14981 9.77734 6.58906 9.91133L7.35527 10.1617C8.13516 10.4113 8.50723 10.8428 8.50723 11.5648L8.50723 13.535C8.50723 14.3443 8.16699 14.7191 7.45527 14.7191L6.33926 14.7191Z" fill="white" fill-opacity="0.85"/>
  <path d="M6.41875 25.2381C8.1623 25.2381 9.01152 23.9603 9.01152 22.2533C9.01152 20.5248 8.15684 19.2428 6.41875 19.2428C4.72677 19.2428 3.82247 20.492 3.82247 22.2533C3.82247 23.9187 4.65489 25.2381 6.41875 25.2381ZM6.41875 24.0553C5.56094 24.0553 5.28008 23.0713 5.28008 22.2533C5.28008 21.359 5.58672 20.4353 6.41875 20.4353C7.30059 20.4353 7.56544 21.4133 7.56544 22.2533C7.56544 23.1389 7.25606 24.0553 6.41875 24.0553ZM10.599 25.1777C11.1053 25.1777 11.3092 24.8408 11.3092 24.4445L11.3092 22.9537L12.825 22.9537C13.1912 22.9537 13.4324 22.748 13.4324 22.3934C13.4324 22.0387 13.1992 21.8268 12.825 21.8268L11.3092 21.8268L11.3092 20.5728L12.9875 20.5728C13.3945 20.5728 13.625 20.3574 13.625 19.9814C13.625 19.6072 13.3945 19.39 12.9875 19.39L10.591 19.39C10.191 19.39 9.88437 19.6402 9.88437 20.1312L9.88437 24.4445C9.88437 24.8531 10.1068 25.1777 10.599 25.1777ZM15.0953 25.1777C15.6096 25.1777 15.8117 24.8408 15.8117 24.4445L15.8117 22.9537L17.3275 22.9537C17.6937 22.9537 17.9269 22.748 17.9269 22.3934C17.9269 22.0387 17.7017 21.8268 17.3275 21.8268L15.8117 21.8268L15.8117 20.5728L17.49 20.5728C17.8926 20.5728 18.1213 20.3574 18.1213 19.9814C18.1213 19.6072 17.8926 19.39 17.49 19.39L15.0873 19.39C14.6855 19.39 14.3789 19.6402 14.3789 20.1312L14.3789 24.4445C14.3789 24.8531 14.6031 25.1777 15.0953 25.1777Z" fill="white" fill-opacity="0.85"/>
 </g>
</svg>
