<?xml version="1.0" encoding="UTF-8"?>
<!--Generator: Apple Native CoreSVG 341-->
<!DOCTYPE svg
PUBLIC "-//W3C//DTD SVG 1.1//EN"
       "http://www.w3.org/Graphics/SVG/1.1/DTD/svg11.dtd">
<svg version="1.1" xmlns="http://www.w3.org/2000/svg" xmlns:xlink="http://www.w3.org/1999/xlink" viewBox="0 0 35.7275 24.5656">
 <g>
  <rect height="24.5656" opacity="0" width="35.7275" x="0" y="0"/>
  <path d="M3.25488 18.2465L3.79629 18.2465C3.7289 17.9279 3.68808 17.6058 3.68808 17.274C3.68808 14.9283 5.54374 13.0744 7.89745 13.0744C10.2494 13.0744 12.1068 14.9283 12.1068 17.274C12.1068 17.6058 12.0642 17.9279 11.9906 18.2465L23.3613 18.2465C23.2939 17.9279 23.2531 17.6058 23.2531 17.274C23.2531 14.9283 25.1168 13.0744 27.4625 13.0744C29.8144 13.0744 31.6799 14.9283 31.6799 17.274C31.6799 17.6058 31.6355 17.9279 31.5619 18.2465L32.1113 18.2465C34.3221 18.2465 35.3662 17.15 35.3662 14.8088L35.3662 12.0809C35.3662 10.1959 34.4328 9.02441 32.5193 8.38555L30.9789 7.86445C29.0115 6.18125 26.2246 4.17266 22.5062 4.17266L20.992 4.17266C16.9391 4.17266 15.2295 4.57832 12.7912 6.11211L8.82558 8.60313L4.49062 9.13047C1.69414 9.47129 0 11.2248 0 13.6227L0 14.8709C0 17.1695 1.06015 18.2465 3.25488 18.2465ZM7.89745 20.281C9.583 20.281 10.9125 18.9533 10.9125 17.274C10.9125 15.5965 9.583 14.2687 7.89745 14.2687C6.21992 14.2687 4.89042 15.5965 4.89042 17.274C4.89042 18.9533 6.21992 20.281 7.89745 20.281ZM27.4625 20.281C29.148 20.281 30.4775 18.9533 30.4775 17.274C30.4775 15.5965 29.148 14.2687 27.4625 14.2687C25.7849 14.2687 24.4555 15.5965 24.4555 17.274C24.4555 18.9533 25.7849 20.281 27.4625 20.281ZM18.3826 13.7111C17.5492 13.7111 16.8875 13.075 16.8875 12.2867C16.8875 11.502 17.5332 10.8801 18.3826 10.8801C19.2187 10.8801 19.8672 11.502 19.8672 12.2867C19.8672 13.075 19.2107 13.7111 18.3826 13.7111ZM18.3826 9.07402C17.765 9.07402 17.3467 8.67149 17.3236 8.04141L17.108 1.2623C17.0814 0.507028 17.5867 0 18.3773 0C19.1644 0 19.6715 0.507028 19.6449 1.2623L19.4265 8.03614C19.4017 8.67149 18.9949 9.07402 18.3826 9.07402Z" fill="white" fill-opacity="0.85"/>
 </g>
</svg>
