<?xml version="1.0" encoding="UTF-8"?>
<!--Generator: Apple Native CoreSVG 341-->
<!DOCTYPE svg
PUBLIC "-//W3C//DTD SVG 1.1//EN"
       "http://www.w3.org/Graphics/SVG/1.1/DTD/svg11.dtd">
<svg version="1.1" xmlns="http://www.w3.org/2000/svg" xmlns:xlink="http://www.w3.org/1999/xlink" viewBox="0 0 32.7383 24.8812">
 <g>
  <rect height="24.8812" opacity="0" width="32.7383" x="0" y="0"/>
  <path d="M7.11717 8.15289L7.50213 8.36715C7.58026 8.12047 7.68319 7.88355 7.81542 7.6484C8.75272 6.0232 10.7914 5.4818 12.4246 6.4191C14.0578 7.36441 14.601 9.40133 13.6637 11.0283C13.5314 11.2617 13.3744 11.4675 13.1916 11.6601L21.1056 16.2267C21.1838 15.98 21.2867 15.7351 21.4189 15.5097C22.3562 13.8748 24.3949 13.3334 26.0281 14.2804C27.6613 15.216 28.2125 17.2546 27.2672 18.8878C27.1349 19.1132 26.9779 19.3271 26.8031 19.5117L27.1881 19.7339C28.7191 20.6242 29.8867 20.2791 30.8258 18.6521L31.9178 16.7576C32.673 15.4511 32.4957 14.2539 31.4234 13.0468L30.5621 12.0711C29.8695 10.1045 28.7351 7.59508 26.1492 6.10192L25.1017 5.49918C22.2797 3.87379 20.9295 3.46188 18.6215 3.55153L14.8615 3.69L11.6342 2.32008C9.55369 1.42985 7.67303 1.96852 6.71541 3.63707L6.21288 4.49918C5.29335 6.09684 5.59413 7.27242 7.11717 8.15289ZM9.53455 11.4314C10.701 12.1043 12.1566 11.7164 12.8295 10.5482C13.5023 9.38179 13.1127 7.92613 11.9463 7.25328C10.7701 6.58043 9.31444 6.96832 8.64959 8.13648C7.96873 9.30465 8.35838 10.7586 9.53455 11.4314ZM23.1381 19.2927C24.3045 19.9638 25.7601 19.5759 26.441 18.4015C27.1058 17.2414 26.7162 15.7857 25.5498 15.1129C24.3816 14.432 22.926 14.8199 22.2531 15.988C21.5803 17.1562 21.9699 18.6101 23.1381 19.2927Z" fill="white" fill-opacity="0.85"/>
  <path d="M0.127921 8.7398C-0.135358 9.19624 0.0242112 9.77592 0.455849 10.0214L25.9232 24.7339C26.3566 24.9812 26.9363 24.8314 27.1836 24.3962C27.4486 23.9335 27.2873 23.3539 26.8636 23.1084L1.38826 8.40211C0.964635 8.14859 0.376943 8.2984 0.127921 8.7398Z" fill="white" fill-opacity="0.85"/>
  <path d="M3.43046 4.7066L5.51737 1.10446C5.88729 0.459536 5.36484-0.117024 4.71015 0.0204753L1.54101 0.61774C1.07968 0.706411 0.868551 1.06657 1.03183 1.51637L2.09101 4.54606C2.31015 5.19098 3.05878 5.34351 3.43046 4.7066Z" fill="white" fill-opacity="0.85"/>
 </g>
</svg>
