<?xml version="1.0" encoding="UTF-8"?>
<!--Generator: Apple Native CoreSVG 341-->
<!DOCTYPE svg
PUBLIC "-//W3C//DTD SVG 1.1//EN"
       "http://www.w3.org/Graphics/SVG/1.1/DTD/svg11.dtd">
<svg version="1.1" xmlns="http://www.w3.org/2000/svg" xmlns:xlink="http://www.w3.org/1999/xlink" viewBox="0 0 33.9417 25.6388">
 <g>
  <rect height="25.6388" opacity="0" width="33.9417" x="0" y="0"/>
  <path d="M9.36997 18.703L9.74693 18.4888C9.57037 18.2899 9.41509 18.0841 9.28287 17.8569C8.34381 16.2237 8.88873 14.1868 10.5219 13.2477C12.1551 12.3024 14.192 12.8456 15.1293 14.4788C15.2633 14.7042 15.3645 14.9509 15.4444 15.1976L23.3504 10.6292C23.1819 10.4384 23.0186 10.2308 22.8864 9.99735C21.9473 8.3704 22.4922 6.33349 24.1254 5.38818C25.7586 4.45087 27.7956 4.99228 28.7426 6.61923C28.8749 6.85263 28.976 7.0913 29.0479 7.34423L29.4329 7.12196C30.9719 6.23349 31.2532 5.05439 30.3141 3.42744L29.2221 1.53291C28.4606 0.226463 27.3424-0.220998 25.759 0.0995097L24.4876 0.360643C22.4383-0.0202163 19.6973-0.293654 17.1051 1.19951L16.0577 1.81025C13.2419 3.43388 12.2112 4.3997 11.1344 6.44228L9.3774 9.76631L6.57447 11.8776C4.76471 13.2374 4.29518 15.1313 5.25904 16.7999L5.75357 17.662C6.6731 19.2597 7.83892 19.5852 9.36997 18.703ZM13.4137 18.252C14.5881 17.5809 14.9778 16.1253 14.2969 14.9571C13.6303 13.789 12.1747 13.4011 11.0002 14.0739C9.83384 14.7548 9.44244 16.2104 10.117 17.3706C10.7899 18.5468 12.2456 18.9347 13.4137 18.252ZM27.0252 10.4005C28.1917 9.72763 28.5813 8.27372 27.9084 7.09755C27.2338 5.9374 25.7799 5.54951 24.6118 6.22236C23.4374 6.89521 23.046 8.35087 23.7206 9.51728C24.3934 10.6854 25.8491 11.0733 27.0252 10.4005Z" fill="white" fill-opacity="0.85"/>
  <path d="M6.36958 25.06C6.64615 25.521 7.21782 25.6565 7.6477 25.419L33.1248 10.711C33.5547 10.4718 33.7178 9.89384 33.4625 9.45068C33.194 8.98974 32.6143 8.84443 32.1844 9.09345L6.70904 23.8015C6.28365 24.039 6.12232 24.6186 6.36958 25.06Z" fill="white" fill-opacity="0.85"/>
  <path d="M4.52897 20.1835L2.45807 16.5751C2.08639 15.9302 1.32975 16.097 1.11862 16.7241L0.0514318 19.7653C-0.103841 20.2169 0.099283 20.5735 0.568618 20.6622L3.72799 21.2657C4.39244 21.397 4.90689 20.8204 4.52897 20.1835Z" fill="white" fill-opacity="0.85"/>
 </g>
</svg>
