<?xml version="1.0" encoding="UTF-8"?>
<!--Generator: Apple Native CoreSVG 341-->
<!DOCTYPE svg
PUBLIC "-//W3C//DTD SVG 1.1//EN"
       "http://www.w3.org/Graphics/SVG/1.1/DTD/svg11.dtd">
<svg version="1.1" xmlns="http://www.w3.org/2000/svg" xmlns:xlink="http://www.w3.org/1999/xlink" viewBox="0 0 29.266 23.4367">
 <g>
  <rect height="23.4367" opacity="0" width="29.266" x="0" y="0"/>
  <path d="M5.00773 8.54726L0.120624 18.2035C-0.170195 18.7719 0.0557798 19.4422 0.897378 19.4422L2.19425 19.4422C2.83644 19.4422 3.16456 19.1221 3.33663 18.6687L7.30401 8.77558C7.46534 8.37851 7.2669 8.03477 6.8548 8.03477L5.80128 8.03477C5.43585 8.03477 5.18683 8.20859 5.00773 8.54726ZM23.8952 8.5455C23.7179 8.20683 23.4671 8.03301 23.1034 8.03301L22.0499 8.03301C21.6378 8.03301 21.4474 8.37675 21.6007 8.77382L25.5681 18.667C25.7481 19.1203 26.0683 19.4404 26.7104 19.4404L28.0056 19.4404C28.8569 19.4404 29.0749 18.7701 28.7841 18.2018Z" fill="white" fill-opacity="0.85"/>
  <path d="M8.98526 10.4389C8.98526 10.7824 9.25069 11.0496 9.596 11.0496L10.1384 11.0496C10.4917 11.0496 10.7589 10.7824 10.7589 10.4389L10.7589 9.79589L18.1571 9.79589L18.1571 10.4389C18.1571 10.7824 18.4226 11.0496 18.7679 11.0496L19.3183 11.0496C19.6636 11.0496 19.9308 10.7824 19.9308 10.4389L19.9308 7.35312C19.9308 6.56054 19.8286 6.083 19.3599 5.56367L18.8929 5.06035L18.4144 3.6912C18.1349 2.90058 17.6112 2.58105 16.9659 2.50918C16.6358 2.46836 15.6581 2.4373 14.4571 2.4373C13.2481 2.4373 12.2704 2.46836 11.9501 2.50918C11.303 2.58105 10.7812 2.90058 10.4999 3.6912L10.0134 5.06035L9.5544 5.56367C9.08741 6.083 8.98526 6.56054 8.98526 7.35312ZM11.3751 5.11777C11.1409 5.11777 11.0435 4.94648 11.1188 4.72734L11.3968 3.89257C11.5095 3.57304 11.6896 3.46738 11.9921 3.4248C12.2968 3.38749 13.1626 3.3537 14.4571 3.3537C15.7517 3.3537 16.6175 3.38749 16.9142 3.4248C17.2167 3.46738 17.3985 3.57304 17.5095 3.89257L17.7954 4.72734C17.869 4.94648 17.7733 5.11777 17.5312 5.11777ZM10.7526 8.00195C10.4571 8.00195 10.2433 7.78808 10.2433 7.49257L10.2433 6.78847C10.2433 6.49472 10.4571 6.28886 10.7526 6.28886C11.0464 6.28886 11.2603 6.49472 11.2603 6.78847L11.2603 7.49257C11.2603 7.79609 11.0464 8.00195 10.7526 8.00195ZM13.4228 7.78534C13.1858 7.78534 13.0306 7.62031 13.0306 7.36562L13.0306 6.91718C13.0306 6.66249 13.1858 6.50546 13.4228 6.50546L15.4702 6.50546C15.7169 6.50546 15.8722 6.66249 15.8722 6.91718L15.8722 7.36562C15.8722 7.62206 15.7151 7.78534 15.4702 7.78534ZM18.2087 8.00195C17.9247 8.00195 17.7011 7.78632 17.7011 7.49257L17.7011 6.78847C17.7011 6.49648 17.9247 6.28886 18.2087 6.28886C18.5042 6.28886 18.7181 6.49472 18.7181 6.78847L18.7181 7.49257C18.7181 7.79609 18.5042 8.00195 18.2087 8.00195Z" fill="white" fill-opacity="0.85"/>
  <path d="M15.7776 13.0781L15.3044 15.051L12.8337 12.5172C12.6296 12.2935 12.3218 12.4603 12.431 12.7674L13.3081 15.3607L12.1839 14.8555C11.9167 14.7365 11.7056 14.96 11.9009 15.2139L12.5226 16.0238L9.57842 15.6092C9.22432 15.5586 9.13213 15.9267 9.40987 16.0918L12.1968 17.7707L10.539 18.3851C10.2382 18.4996 10.2888 18.85 10.6108 18.8695L12.456 19.0027L9.94151 20.7057C9.68253 20.8795 9.78448 21.2814 10.1526 21.1883L13.3392 20.4709L13.3685 23.1857C13.372 23.4855 13.6532 23.5078 13.7774 23.3002L15.8601 19.8859L19.3163 23.0004C19.5825 23.2355 19.9214 22.9818 19.7466 22.6553L17.7064 18.8252L19.798 18.2082C19.9958 18.1461 20.0011 17.9057 19.8192 17.8223L17.954 17.0685L19.2839 13.2787C19.3735 13.0338 19.1136 12.8111 18.8962 13.025L16.745 15.0625L16.231 13.0764C16.1511 12.7941 15.8433 12.7773 15.7776 13.0781Z" fill="white" fill-opacity="0.85"/>
 </g>
</svg>
