<?xml version="1.0" encoding="UTF-8"?>
<!--Generator: Apple Native CoreSVG 341-->
<!DOCTYPE svg
PUBLIC "-//W3C//DTD SVG 1.1//EN"
       "http://www.w3.org/Graphics/SVG/1.1/DTD/svg11.dtd">
<svg version="1.1" xmlns="http://www.w3.org/2000/svg" xmlns:xlink="http://www.w3.org/1999/xlink" viewBox="0 0 32.7383 24.8812">
 <g>
  <rect height="24.8812" opacity="0" width="32.7383" x="0" y="0"/>
  <path d="M7.11717 8.15289L8.16854 8.75796L8.89822 7.49098L7.85486 6.8859C7.17244 6.49137 7.0658 5.9566 7.50916 5.18629L7.9824 4.365C8.55252 3.37925 9.6824 3.0648 11.0721 3.65797L13.9982 4.90621C14.4492 5.09351 14.8041 5.16539 15.207 5.15562L18.6773 5.02066C20.7176 4.95054 21.7779 5.27203 24.3721 6.76617L25.4195 7.3689C27.1883 8.38824 28.2058 9.84625 29.0812 12.4103C29.241 12.8851 29.3883 13.0767 29.7326 13.4521L30.3115 14.0976C30.9111 14.7603 31.0275 15.3668 30.6367 16.056L29.5588 17.9224C29.1154 18.683 28.6002 18.8615 27.9178 18.467L26.8584 17.8636L26.1287 19.1306L27.1881 19.7339C28.7191 20.6242 29.8867 20.2791 30.8258 18.6521L31.9178 16.7576C32.673 15.4511 32.4957 14.2539 31.4314 13.0468L30.5621 12.0711C29.8775 10.0884 28.7351 7.59508 26.1492 6.10192L25.1017 5.49918C22.2797 3.87379 20.9295 3.46188 18.6215 3.55153L14.8615 3.69L11.6342 2.32008C9.55369 1.42985 7.68104 1.96852 6.71541 3.63707L6.21288 4.49918C5.29335 6.09684 5.59413 7.27242 7.11717 8.15289ZM11.7693 10.8416L22.5746 17.0757L23.3043 15.8088L12.507 9.57457ZM9.19217 11.3263C10.6051 12.1437 12.3428 11.6707 13.1601 10.2578C13.9775 8.84312 13.5125 7.10543 12.0996 6.28805C10.6867 5.47067 8.93924 5.93571 8.12186 7.35035C7.31248 8.76148 7.77928 10.5089 9.19217 11.3263ZM9.88103 10.1312C9.14021 9.7066 8.89236 8.78453 9.31697 8.04547C9.74959 7.29839 10.6734 7.05679 11.4125 7.48316C12.1498 7.90777 12.3994 8.82984 11.965 9.56891C11.5404 10.308 10.6183 10.5558 9.88103 10.1312ZM23.4023 19.531C24.8152 20.3484 26.5547 19.8753 27.3721 18.4625C28.1894 17.0496 27.7244 15.3101 26.3097 14.4927C24.8986 13.6754 23.1512 14.1404 22.3418 15.555C21.5244 16.9679 21.9894 18.7136 23.4023 19.531ZM24.0894 18.3359C23.3521 17.9113 23.1025 16.9892 23.5271 16.2502C23.9615 15.5031 24.8836 15.2632 25.6226 15.6879C26.3617 16.1125 26.6113 17.0345 26.1769 17.7754C25.7523 18.5127 24.8303 18.7623 24.0894 18.3359Z" fill="white" fill-opacity="0.85"/>
  <path d="M0.127921 8.7398C-0.135358 9.19624 0.0242112 9.77592 0.455849 10.0214L25.9232 24.7339C26.3566 24.9812 26.9363 24.8314 27.1836 24.3962C27.4486 23.9335 27.2873 23.3539 26.8556 23.1084L1.38826 8.40211C0.964635 8.14859 0.376943 8.2984 0.127921 8.7398Z" fill="white" fill-opacity="0.85"/>
  <path d="M3.43046 4.7066L5.51737 1.10446C5.88729 0.459536 5.36484-0.117024 4.71015 0.0204753L1.54101 0.61774C1.07968 0.706411 0.868551 1.06657 1.03183 1.51637L2.09101 4.54606C2.31015 5.19098 3.05878 5.34351 3.43046 4.7066Z" fill="white" fill-opacity="0.85"/>
 </g>
</svg>
