<?xml version="1.0" encoding="UTF-8"?>
<!--Generator: Apple Native CoreSVG 341-->
<!DOCTYPE svg
PUBLIC "-//W3C//DTD SVG 1.1//EN"
       "http://www.w3.org/Graphics/SVG/1.1/DTD/svg11.dtd">
<svg version="1.1" xmlns="http://www.w3.org/2000/svg" xmlns:xlink="http://www.w3.org/1999/xlink" viewBox="0 0 18.1273 16.2203">
 <g>
  <rect height="16.2203" opacity="0" width="18.1273" x="0" y="0"/>
  <path d="M0 0.166796L0 2.01425C0.899999 1.87499 1.9748 1.83065 3.3998 1.83065L4.91406 1.83065C7.45156 1.83065 9.46171 2.77089 11.9935 4.98495C12.4603 5.40116 12.7389 5.52089 13.3512 5.71522L14.373 6.0455C15.4398 6.38749 15.9353 6.96542 15.9353 7.95038L15.9353 10.6361C15.9353 11.7289 15.493 12.2432 14.5191 12.2432L12.9959 12.2432L12.9959 14.0738L14.5191 14.0738C16.7299 14.0738 17.766 12.9773 17.766 10.6361L17.766 7.9082C17.766 6.02324 16.8406 4.85175 14.9271 4.21289L13.3867 3.69179C11.4193 2.00859 8.63241 0 4.91406 0L3.3998 0C2.04297 0 0.94785 0.042578 0 0.166796ZM0 12.2432L0 14.0738L7.87559 14.0738L7.87559 12.2432ZM10.3035 16.2043C12.2943 16.2043 13.8547 14.6422 13.8547 12.6549C13.8547 10.656 12.2943 9.09569 10.3035 9.09569C8.3082 9.09569 6.74609 10.656 6.74609 12.6549C6.74609 14.6422 8.3082 16.2043 10.3035 16.2043ZM10.3035 14.5275C9.24902 14.5275 8.4246 13.7014 8.4246 12.6549C8.4246 11.6004 9.24902 10.7742 10.3035 10.7742C11.3518 10.7742 12.1779 11.6004 12.1779 12.6549C12.1779 13.7014 11.3518 14.5275 10.3035 14.5275Z" fill="white" fill-opacity="0.85"/>
  <path d="M5.25117 6.25195C5.47754 6.4996 5.76425 6.4996 5.99062 6.25195L7.60019 4.42831C7.94101 4.0582 7.71914 3.56113 7.23007 3.56113L4.01972 3.56113C3.51113 3.56113 3.32031 4.08925 3.63984 4.42831ZM4.033 8.20214L10.3035 8.20214C10.615 8.20214 10.8564 7.95273 10.8564 7.6412C10.8564 7.33144 10.615 7.09003 10.3035 7.09003L4.033 7.09003C3.72148 7.09003 3.48007 7.33144 3.48007 7.6412C3.48007 7.95273 3.72148 8.20214 4.033 8.20214Z" fill="white" fill-opacity="0.85"/>
 </g>
</svg>
