<?xml version="1.0" encoding="UTF-8"?>
<!--Generator: Apple Native CoreSVG 341-->
<!DOCTYPE svg
PUBLIC "-//W3C//DTD SVG 1.1//EN"
       "http://www.w3.org/Graphics/SVG/1.1/DTD/svg11.dtd">
<svg version="1.1" xmlns="http://www.w3.org/2000/svg" xmlns:xlink="http://www.w3.org/1999/xlink" viewBox="0 0 21.4502 18.1516">
 <g>
  <rect height="18.1516" opacity="0" width="21.4502" x="0" y="0"/>
  <path d="M17.8836 18.1516C20.0092 18.1516 21.0889 17.0959 21.0889 14.9881L21.0889 10.2742C21.0889 8.81445 20.6754 8.00449 19.4908 7.11269L11.8924 1.35879C10.5629 0.365624 9.52636 0.0115234 7.88534 0.0115234L3.13144 0.0115234C1.07968 0.0115234 0 1.08144 0 3.11894L0 14.9881C0 17.0959 1.07168 18.1516 3.20351 18.1516ZM17.4647 9.02285L3.25038 9.02285C2.40643 9.02285 1.91327 8.52109 1.91327 7.66796L1.91327 3.27792C1.91327 2.38514 2.39843 1.92479 3.25038 1.92479L7.96972 1.92479C9.12128 1.92479 9.79296 2.12557 10.5738 2.74569L17.691 8.16269C18.0967 8.45917 17.977 9.02285 17.4647 9.02285Z" fill="white" fill-opacity="0.85"/>
 </g>
</svg>
