<?xml version="1.0" encoding="UTF-8"?>
<!--Generator: Apple Native CoreSVG 341-->
<!DOCTYPE svg
PUBLIC "-//W3C//DTD SVG 1.1//EN"
       "http://www.w3.org/Graphics/SVG/1.1/DTD/svg11.dtd">
<svg version="1.1" xmlns="http://www.w3.org/2000/svg" xmlns:xlink="http://www.w3.org/1999/xlink" viewBox="0 0 23.0508 25.9672">
 <g>
  <rect height="25.9672" opacity="0" width="23.0508" x="0" y="0"/>
  <path d="M13.2146 25.9672L21.674 25.9672L21.674 21.0811C21.674 19.3006 20.0918 18.2832 17.4492 18.2832C14.7844 18.2832 13.2146 19.3023 13.2146 21.0811ZM17.4492 24.5603C16.8713 24.5603 16.0473 24.6029 15.7709 24.6029C15.2924 24.6029 15.0775 24.4041 15.0367 23.9078L14.9391 22.8203C14.8672 21.9086 15.4725 21.5605 17.4492 21.5605C19.4082 21.5605 20.0152 21.9086 19.9354 22.8203L19.8439 23.9078C19.8031 24.4041 19.5803 24.6029 19.1098 24.6029C18.8414 24.6029 17.9773 24.5603 17.4492 24.5603ZM13.8506 24.3125L13.8506 22.6652L12.9004 22.6652C12.4957 22.6652 12.2072 22.9723 12.2072 23.375L12.2072 23.6143C12.2072 24.0055 12.4957 24.3125 12.9004 24.3125ZM21.0301 24.323L21.9883 24.323C22.377 24.323 22.6895 24.0178 22.6895 23.6266L22.6895 23.3855C22.6895 22.9828 22.377 22.6775 21.9883 22.6775L21.0301 22.6775Z" fill="white" fill-opacity="0.85"/>
  <path d="M13.0471 17.8055C14.2189 16.6336 14.8447 15.1537 14.9441 13.5521C14.9734 13.0768 14.6586 12.8215 14.3059 12.8215C13.8906 12.8215 13.6584 13.0572 13.6158 13.5744C13.5412 14.7928 13.0422 15.9535 12.1258 16.8779C11.2014 17.7863 10.0406 18.2863 8.83027 18.36C8.34511 18.4043 8.06308 18.649 8.06308 19.0162C8.06308 19.4268 8.35839 19.7176 8.808 19.7105C10.4016 19.693 11.8814 18.9711 13.0471 17.8055Z" fill="white" fill-opacity="0.85"/>
  <path d="M11.1193 15.8715C11.7887 15.2039 12.1908 14.3748 12.2955 13.4516C12.3514 12.9895 12.0445 12.6721 11.6527 12.6801C11.2455 12.6801 11.0451 12.899 10.968 13.3646C10.8783 13.974 10.6332 14.4928 10.1936 14.952C9.74238 15.3934 9.22988 15.6447 8.67832 15.7166C8.16289 15.7893 7.92168 16.0475 7.92168 16.3969C7.91367 16.7887 8.21152 17.0697 8.62558 17.0557C9.31933 17.0328 10.3539 16.6387 11.1193 15.8715Z" fill="white" fill-opacity="0.85"/>
  <path d="M5.23398 14.8893C8.15742 14.8893 9.46679 14.1953 9.46679 12.4893L9.46679 2.80586C9.46679 1.02363 7.89258 0.00625014 5.23398 0.00625014C2.58516 0.00625014 1.00742 1.02539 1.00742 2.80586L1.00742 12.4893C1.00742 14.1953 2.32031 14.8893 5.23398 14.8893ZM5.23398 6.27539C4.67207 6.27539 3.84804 6.33398 3.57168 6.33398C3.10117 6.33398 2.88633 6.1289 2.8375 5.63262L2.73984 4.54336C2.65195 3.6334 3.26523 3.28359 5.23398 3.28359C7.20098 3.28359 7.82578 3.6334 7.73789 4.54336L7.64473 5.63262C7.60391 6.1289 7.39082 6.33398 6.91055 6.33398C6.63594 6.33398 5.77012 6.27539 5.23398 6.27539ZM5.23398 12.493C3.25566 12.493 2.60488 12.1947 2.75761 11.2572L2.83574 10.7219C2.96093 9.96816 3.5459 9.73555 5.23398 9.73555C6.92832 9.73555 7.53105 9.96816 7.64023 10.7219L7.7166 11.2572C7.85332 12.1947 7.21855 12.493 5.23398 12.493ZM1.64336 6.0373L1.64336 4.39004L0.693163 4.39004C0.296484 4.39004 0 4.69531 0 5.09804L0 5.3373C0 5.73027 0.296484 6.0373 0.693163 6.0373ZM8.83086 6.04785L9.78105 6.04785C10.1777 6.04785 10.4822 5.74258 10.4822 5.34961L10.4822 5.10859C10.4822 4.70586 10.1777 4.40234 9.78105 4.40234L8.83086 4.40234Z" fill="white" fill-opacity="0.85"/>
 </g>
</svg>
