<?xml version="1.0" encoding="UTF-8"?>
<!--Generator: Apple Native CoreSVG 341-->
<!DOCTYPE svg
PUBLIC "-//W3C//DTD SVG 1.1//EN"
       "http://www.w3.org/Graphics/SVG/1.1/DTD/svg11.dtd">
<svg version="1.1" xmlns="http://www.w3.org/2000/svg" xmlns:xlink="http://www.w3.org/1999/xlink" viewBox="0 0 35.7275 16.2203">
 <g>
  <rect height="16.2203" opacity="0" width="35.7275" x="0" y="0"/>
  <path d="M13.3189 7.80722C11.9342 7.80722 10.9809 7.32343 10.1305 6.20585L7.51933 2.75839C6.96894 2.04198 6.56581 1.85995 5.47655 1.85995L3.09003 1.85995C2.64628 1.85995 2.28066 1.48808 2.28066 1.04433C2.28066 0.598819 2.64628 0.234953 3.09003 0.234953L5.47655 0.234953C6.97851 0.234953 7.96112 0.669913 8.79198 1.76796L11.4244 5.19765C12.0316 5.98241 12.3957 6.18222 13.3189 6.18222L15.4752 6.18222L15.4752 5.37851C15.4752 4.66054 16.0965 4.45019 16.6316 4.80253L19.0766 6.37655C19.5789 6.69784 19.5691 7.30312 19.0846 7.61464L16.6201 9.20018C16.0965 9.541 15.4752 9.33065 15.4752 8.62421L15.4752 7.80722ZM3.25488 14.0738L3.79629 14.0738C3.7289 13.7553 3.68808 13.4332 3.68808 13.1014C3.68808 10.7557 5.54374 8.90175 7.89745 8.90175C10.2494 8.90175 12.1068 10.7557 12.1068 13.1014C12.1068 13.4332 12.0642 13.7553 11.9906 14.0738L23.3613 14.0738C23.2939 13.7553 23.2531 13.4332 23.2531 13.1014C23.2531 10.7557 25.1168 8.90175 27.4625 8.90175C29.8144 8.90175 31.6799 10.7557 31.6799 13.1014C31.6799 13.4332 31.6355 13.7553 31.5619 14.0738L32.1113 14.0738C34.3221 14.0738 35.3662 12.9773 35.3662 10.6361L35.3662 7.9082C35.3662 6.02324 34.4328 4.85175 32.5193 4.21289L30.9789 3.69179C29.0115 2.00859 26.2246 0 22.5062 0L20.992 0C16.9391 0 15.2295 0.405664 12.7912 1.93945L8.82558 4.43047L4.49062 4.95781C1.69414 5.29863 0 7.05214 0 9.44999L0 10.6982C0 12.9969 1.06015 14.0738 3.25488 14.0738ZM7.89745 16.1084C9.583 16.1084 10.9125 14.7806 10.9125 13.1014C10.9125 11.4238 9.583 10.0961 7.89745 10.0961C6.21992 10.0961 4.89042 11.4238 4.89042 13.1014C4.89042 14.7806 6.21992 16.1084 7.89745 16.1084ZM27.4625 16.1084C29.148 16.1084 30.4775 14.7806 30.4775 13.1014C30.4775 11.4238 29.148 10.0961 27.4625 10.0961C25.7849 10.0961 24.4555 11.4238 24.4555 13.1014C24.4555 14.7806 25.7849 16.1084 27.4625 16.1084Z" fill="white" fill-opacity="0.85"/>
 </g>
</svg>
