<?xml version="1.0" encoding="UTF-8"?>
<!--Generator: Apple Native CoreSVG 341-->
<!DOCTYPE svg
PUBLIC "-//W3C//DTD SVG 1.1//EN"
       "http://www.w3.org/Graphics/SVG/1.1/DTD/svg11.dtd">
<svg version="1.1" xmlns="http://www.w3.org/2000/svg" xmlns:xlink="http://www.w3.org/1999/xlink" viewBox="0 0 23.0588 25.9707">
 <g>
  <rect height="25.9707" opacity="0" width="23.0588" x="0" y="0"/>
  <path d="M9.45879 25.9609L9.45879 21.0668C9.45879 19.2961 7.89082 18.277 5.25 18.277C2.59941 18.277 1.00742 19.2943 1.00742 21.0668L1.00742 25.9609L2.32656 25.9609L2.32656 21.0773C2.32656 20.1156 3.33105 19.5863 5.25 19.5863C7.15918 19.5863 8.14942 20.1156 8.14942 21.0773L8.14942 25.9609ZM5.25 24.5957C5.78535 24.5957 6.59434 24.64 6.84316 24.64C7.30215 24.64 7.51348 24.451 7.56055 23.9777L7.64219 22.9185C7.71231 22.0547 7.13984 21.7164 5.25 21.7164C3.35039 21.7164 2.75566 22.0547 2.83379 22.9185L2.92968 23.9777C2.96875 24.451 3.17558 24.64 3.64082 24.64C3.89765 24.64 4.7289 24.5957 5.25 24.5957ZM8.82285 24.2902L9.77304 24.2902C10.1697 24.2902 10.4662 23.9912 10.4662 23.5982L10.4662 23.3607C10.4662 22.95 10.1697 22.6527 9.77304 22.6527L8.82285 22.6527ZM1.65137 24.3008L1.65137 22.6633L0.701171 22.6633C0.304492 22.6633 0 22.9605 0 23.3713L0 23.6105C0 24.0035 0.304492 24.3008 0.701171 24.3008Z" fill="white" fill-opacity="0.85"/>
  <path d="M9.64239 17.7992C10.8178 18.9648 12.2977 19.685 13.8895 19.7043C14.3391 19.7096 14.6361 19.4205 14.6361 19.01C14.6361 18.6445 14.3523 18.398 13.8672 18.3537C12.6568 18.2783 11.4961 17.7783 10.5717 16.8717C9.65703 15.9473 9.15625 14.7865 9.08164 13.5682C9.03906 13.051 8.80234 12.817 8.3916 12.817C8.04063 12.817 7.71602 13.0705 7.74532 13.5459C7.84649 15.1457 8.47852 16.6273 9.64239 17.7992Z" fill="white" fill-opacity="0.85"/>
  <path d="M11.5701 15.8652C12.3391 16.6324 13.3701 17.0266 14.0719 17.0494C14.4859 17.0635 14.7793 16.7807 14.7793 16.3906C14.7793 16.0412 14.5266 15.783 14.0191 15.7121C13.4693 15.6385 12.9551 15.3871 12.4977 14.9475C12.0643 14.4865 11.8129 13.966 11.725 13.3584C11.6443 12.8928 11.452 12.6756 11.0447 12.6756C10.6547 12.6676 10.3479 12.9832 10.402 13.4453C10.5066 14.3686 10.9008 15.1977 11.5701 15.8652Z" fill="white" fill-opacity="0.85"/>
  <path d="M17.4572 14.8848C20.3807 14.8848 21.69 14.1908 21.69 12.483L21.69 2.79961C21.69 1.01914 20.1141 0 17.4572 0C14.8066 0 13.2307 1.01738 13.2307 2.79961L13.2307 12.483C13.2307 14.1908 14.5418 14.8848 17.4572 14.8848ZM17.4572 13.5754C15.3641 13.5754 14.5418 13.2566 14.5418 12.4404L14.5418 2.81015C14.5418 1.84668 15.5463 1.31914 17.4572 1.31914C19.3744 1.31914 20.3727 1.84668 20.3727 2.81015L20.3727 12.4404C20.3727 13.2566 19.5584 13.5754 17.4572 13.5754ZM17.4572 6.32851C18.0006 6.32851 18.8016 6.38711 19.0664 6.38711C19.5254 6.38711 19.7385 6.19179 19.7758 5.71054L19.8654 4.65761C19.9436 3.78574 19.3471 3.44746 17.4572 3.44746C15.5576 3.44746 14.9709 3.78574 15.049 4.65761L15.1369 5.71054C15.176 6.19179 15.3891 6.38711 15.8561 6.38711C16.1049 6.38711 16.9361 6.32851 17.4572 6.32851ZM17.4572 12.3166C19.3629 12.3166 19.9791 12.0219 19.8459 11.1287L19.7713 10.6182C19.6656 9.89102 19.0842 9.66641 17.4572 9.66641C15.8285 9.66641 15.2541 9.89102 15.1449 10.6182L15.0668 11.1287C14.9381 12.0219 15.5516 12.3166 17.4572 12.3166ZM21.0461 6.03105L21.9963 6.03105C22.401 6.03105 22.6975 5.72402 22.6975 5.33105L22.6975 5.09179C22.6975 4.68906 22.401 4.38555 21.9963 4.38555L21.0461 4.38555ZM13.8666 6.03984L13.8666 4.39434L12.9084 4.39434C12.5197 4.39434 12.2152 4.69961 12.2152 5.10234L12.2152 5.34336C12.2152 5.73633 12.5197 6.03984 12.9084 6.03984Z" fill="white" fill-opacity="0.85"/>
 </g>
</svg>
