<?xml version="1.0" encoding="UTF-8"?>
<!--Generator: Apple Native CoreSVG 341-->
<!DOCTYPE svg
PUBLIC "-//W3C//DTD SVG 1.1//EN"
       "http://www.w3.org/Graphics/SVG/1.1/DTD/svg11.dtd">
<svg version="1.1" xmlns="http://www.w3.org/2000/svg" xmlns:xlink="http://www.w3.org/1999/xlink" viewBox="0 0 19.5703 26.284">
 <g>
  <rect height="26.284" opacity="0" width="19.5703" x="0" y="0"/>
  <path d="M9.56582 1.77812C11.6734 1.77812 13.5848 2.49472 15.0135 3.78222C15.4402 4.15839 15.9396 4.26835 16.3299 3.92949C16.7484 3.58007 16.766 2.97168 16.281 2.52227C14.5303 0.892383 12.1391 0 9.56582 0C6.99785 0 4.58027 0.911719 2.85234 2.52227C2.37539 2.97168 2.39473 3.58007 2.80352 3.92949C3.20351 4.26835 3.69492 4.15839 4.11992 3.78222C5.55039 2.49472 7.46796 1.77812 9.56582 1.77812Z" fill="white" fill-opacity="0.85"/>
  <path d="M9.58359 5.78983C10.5588 5.78983 11.5103 6.08632 12.1988 6.63007C12.6434 6.95839 13.1232 7.08358 13.51 6.75351C13.9205 6.40487 13.9355 5.75214 13.4486 5.34882C12.4238 4.49921 11.0508 4.01171 9.58359 4.01171C8.11816 4.01171 6.74512 4.49921 5.72031 5.34882C5.22363 5.75214 5.24043 6.40487 5.65898 6.75351C6.0457 7.08358 6.51581 6.95038 6.96835 6.63007C7.6746 6.10233 8.61015 5.78983 9.58359 5.78983Z" fill="white" fill-opacity="0.85"/>
  <path d="M9.59961 21.7234C12.3348 21.7234 15.8346 21.5867 17.3119 21.4127C18.5125 21.2769 19.209 20.593 19.209 19.4447L19.209 18.001C19.209 16.6129 18.9504 15.7973 18.1941 14.8402L17.5268 14.0076C17.232 12.6039 16.718 11.1398 16.4463 10.5637C15.9945 9.60155 15.1025 9.02831 13.9887 8.87831C13.4297 8.80644 11.7434 8.75585 9.59961 8.75585C7.45761 8.75585 5.77929 8.81444 5.22031 8.87831C4.10644 9.01855 3.21094 9.59979 2.76269 10.5637C2.48301 11.1398 1.97695 12.6039 1.67422 14.0076L1.01484 14.8402C0.250587 15.7973 0 16.6129 0 18.001L0 19.4447C0 20.593 0.696483 21.2769 1.89707 21.4127C3.37441 21.5867 6.87422 21.7234 9.59961 21.7234ZM9.59961 20.2195C6.86601 20.2195 3.54296 20.0971 2.28593 19.9443C1.6832 19.868 1.48808 19.615 1.48808 19.0549L1.48808 17.9359C1.48808 16.9086 1.65741 16.4363 2.2039 15.7361L3.05409 14.6117C3.24687 13.573 3.76191 11.9549 4.08066 11.2596C4.33183 10.7394 4.77206 10.449 5.4248 10.3789C5.95546 10.3053 7.47148 10.2324 9.59961 10.2324C11.7375 10.2324 13.2855 10.3088 13.7584 10.3789C14.4369 10.4553 14.8754 10.7492 15.1301 11.2648C15.4533 11.9461 15.9506 13.5625 16.1469 14.6117L17.0033 15.7361C17.5498 16.4363 17.7209 16.9086 17.7209 17.9359L17.7209 19.0549C17.7209 19.615 17.5258 19.876 16.923 19.9443C15.666 20.0971 12.343 20.2195 9.59961 20.2195ZM4.00214 13.8174C3.93476 14.118 4.05976 14.2668 4.39941 14.2508C5.55097 14.1672 7.00117 14.1006 9.59961 14.1006C12.1998 14.1006 13.658 14.1672 14.8096 14.2508C15.1412 14.2668 15.2742 14.118 15.2068 13.8174C15.0291 13.0469 14.7057 12.0668 14.4764 11.666C14.2625 11.281 14.015 11.1195 13.5645 11.0557C13.027 10.9828 11.7617 10.9375 9.59961 10.9375C7.44726 10.9375 6.17402 10.9828 5.63652 11.0557C5.19394 11.1195 4.93847 11.281 4.73261 11.666C4.50957 12.0668 4.18163 13.0469 4.00214 13.8174ZM3.89433 19.2672C4.63808 19.2672 5.19277 18.7027 5.19277 17.9607C5.19277 17.225 4.63808 16.6703 3.89433 16.6703C3.15859 16.6703 2.59589 17.225 2.59589 17.9607C2.59589 18.7027 3.15859 19.2672 3.89433 19.2672ZM7.4291 18.9406L11.7719 18.9406C12.3328 18.9406 12.7197 18.5537 12.7197 18.0008C12.7197 17.4478 12.3328 17.0689 11.7719 17.0689L7.4291 17.0689C6.87441 17.0689 6.48926 17.4478 6.48926 18.0008C6.48926 18.5537 6.87441 18.9406 7.4291 18.9406ZM15.3066 19.2672C16.0504 19.2672 16.6131 18.7027 16.6131 17.9607C16.6131 17.225 16.0504 16.6703 15.3066 16.6703C14.5709 16.6703 14.0162 17.225 14.0162 17.9607C14.0162 18.7027 14.5709 19.2672 15.3066 19.2672ZM1.59004 23.823L2.56367 23.823C3.15488 23.823 3.6209 23.3685 3.6209 22.7836L3.6209 20.8521L0.550587 20.2984L0.550587 22.7836C0.550587 23.3685 1.00508 23.823 1.59004 23.823ZM16.6205 23.823L17.5941 23.823C18.1871 23.823 18.6336 23.3685 18.6336 22.7836L18.6336 20.2984L15.5633 20.8521L15.5633 22.7836C15.5633 23.3685 16.0293 23.823 16.6205 23.823Z" fill="white" fill-opacity="0.85"/>
 </g>
</svg>
