<?xml version="1.0" encoding="UTF-8"?>
<!--Generator: Apple Native CoreSVG 341-->
<!DOCTYPE svg
PUBLIC "-//W3C//DTD SVG 1.1//EN"
       "http://www.w3.org/Graphics/SVG/1.1/DTD/svg11.dtd">
<svg version="1.1" xmlns="http://www.w3.org/2000/svg" xmlns:xlink="http://www.w3.org/1999/xlink" viewBox="0 0 26.6061 26.446">
 <g>
  <rect height="26.446" opacity="0" width="26.6061" x="0" y="0"/>
  <path d="M4.79809 18.4183L4.79809 22.4798C4.79809 22.8671 4.50297 23.1622 4.10766 23.1622L3.49341 23.1622C3.0981 23.1622 2.80298 22.8671 2.80298 22.4798L2.80298 18.4183C2.80298 18.023 3.0981 17.7279 3.49341 17.7279L4.10766 17.7279C4.50297 17.7279 4.79809 18.023 4.79809 18.4183ZM23.4321 18.4183L23.4321 20.5502L21.4369 18.556L21.4369 18.4183C21.4369 18.023 21.7321 17.7279 22.1274 17.7279L22.7416 17.7279C23.1369 17.7279 23.4321 18.023 23.4321 18.4183ZM23.4321 11.1476L23.4321 15.1871C23.4321 15.5824 23.1369 15.8775 22.7416 15.8775L22.1274 15.8775C21.7321 15.8775 21.4369 15.5824 21.4369 15.1871L21.4369 11.1476C21.4369 10.7603 21.7321 10.4652 22.1274 10.4652L22.7416 10.4652C23.1369 10.4652 23.4321 10.7603 23.4321 11.1476ZM23.4321 3.87162L23.4321 7.91909C23.4321 8.3144 23.1369 8.60951 22.7416 8.60951L22.1274 8.60951C21.7321 8.60951 21.4369 8.3144 21.4369 7.91909L21.4369 3.87162C21.4369 3.47631 21.7321 3.1812 22.1274 3.1812L22.7416 3.1812C23.1369 3.1812 23.4321 3.47631 23.4321 3.87162ZM3.55132 6.42804C3.49508 6.47134 3.44034 6.51491 3.38701 6.55873C3.34309 6.59216 3.30204 6.6261 3.26504 6.66069C3.20123 6.71336 3.14059 6.76655 3.0834 6.82028C2.9804 6.90816 2.88665 6.99749 2.80298 7.0882L2.80298 5.68042Z" fill="white" fill-opacity="0.85"/>
  <path d="M6.39361 9.26758C4.59336 10.3495 4.23709 11.0451 4.82954 11.8929L5.58755 12.9785C5.93286 13.48 6.28169 13.5421 6.77075 13.2634C7.04087 13.0999 7.91548 12.521 8.47817 12.19C8.64335 12.0959 8.831 11.9947 9.02228 11.8937L12.1983 15.0666C11.7742 15.198 11.2501 15.456 10.584 15.8433C8.81977 16.8564 8.33969 17.4501 8.67251 18.3023L8.90239 18.9033C9.31508 19.9542 10.17 19.8876 12.2332 18.6935C13.3298 18.0591 13.9829 17.5651 14.2407 17.1071L16.312 19.1764C15.7642 19.8308 14.8872 20.4908 13.6811 21.187C10.6401 22.9357 8.84907 23.015 7.81958 21.2365L3.92635 14.4917L3.58892 14.6892C3.18794 14.9279 2.68657 14.7921 2.46216 14.3833L2.32075 14.1263C2.09634 13.7095 2.2065 13.2294 2.61372 12.989L2.94813 12.797L1.97974 11.1193C1.07485 9.55388 1.67075 7.87528 3.55351 6.43022ZM10.8 6.02611L11.763 7.69696L12.0918 7.50541C12.5088 7.26674 12.9844 7.39447 13.2186 7.81127L13.368 8.06029C13.6004 8.46908 13.4743 8.96693 13.075 9.19759L12.7385 9.38956L13.38 10.5027L7.4794 4.60467C8.94927 4.37616 10.1133 4.84614 10.8 6.02611Z" fill="white" fill-opacity="0.85"/>
  <path d="M23.4555 25.1035C23.9014 25.5494 24.6555 25.5591 25.0916 25.1035C25.5295 24.6496 25.5473 23.923 25.0916 23.4673L2.59868 0.992131C2.14301 0.536466 1.39867 0.536466 0.951017 0.992131C0.506876 1.42826 0.506876 2.18237 0.951017 2.62827Z" fill="white" fill-opacity="0.85"/>
 </g>
</svg>
