<?xml version="1.0" encoding="UTF-8"?>
<!--Generator: Apple Native CoreSVG 341-->
<!DOCTYPE svg
PUBLIC "-//W3C//DTD SVG 1.1//EN"
       "http://www.w3.org/Graphics/SVG/1.1/DTD/svg11.dtd">
<svg version="1.1" xmlns="http://www.w3.org/2000/svg" xmlns:xlink="http://www.w3.org/1999/xlink" viewBox="0 0 37.2003 14.9726">
 <g>
  <rect height="14.9726" opacity="0" width="37.2003" x="0" y="0"/>
  <path d="M10.5237 2.82284L11.3059 2.82284C11.784 2.82284 11.9844 2.64452 12.1502 2.22597L12.7397 0.762104C12.9028 0.373044 12.7026 0.021289 12.2922 0.021289L11.6381 0.021289C11.2665 0.021289 11.0157 0.203124 10.8383 0.540037L10.059 2.05781C9.8561 2.42988 10.0721 2.82284 10.5237 2.82284ZM7.81528 8.34569L9.00473 8.34569C9.45922 8.34569 9.7475 8.17186 9.91528 7.74667L10.8 5.56366C10.9579 5.16914 10.7237 4.78086 10.2735 4.78086L9.22055 4.78086C8.87095 4.78086 8.57016 4.95918 8.40864 5.27421L7.2895 7.45917C7.07056 7.89706 7.33384 8.34569 7.81528 8.34569ZM4.86938 14.9726L6.15649 14.9726C6.80043 14.9726 7.1268 14.6525 7.30688 14.1992L8.48324 11.2881C8.68813 10.8057 8.38656 10.333 7.83598 10.333L6.65513 10.333C6.03032 10.333 5.69146 10.5674 5.46177 11.0232L4.09087 13.734C3.79204 14.3023 4.01978 14.9726 4.86938 14.9726ZM25.5313 2.82109L26.3135 2.82109C26.7668 2.82109 26.9811 2.42812 26.7781 2.05605L26.0006 0.538279C25.8215 0.201367 25.5725 0.0177735 25.199 0.0177735L24.5467 0.0177735C24.1346 0.0177735 23.9442 0.371286 24.0975 0.760346L24.6887 2.22421C24.8545 2.64277 25.0549 2.82109 25.5313 2.82109ZM27.8342 8.34393L29.0219 8.34393C29.5033 8.34393 29.7684 7.8953 29.5494 7.45741L28.4285 5.27246C28.267 4.95742 27.9662 4.7791 27.6184 4.7791L26.5637 4.7791C26.1135 4.7791 25.8793 5.16738 26.0371 5.56191L26.9219 7.74491C27.0897 8.17011 27.3797 8.34393 27.8342 8.34393ZM30.6807 14.9709L31.9776 14.9709C32.8192 14.9709 33.0469 14.3006 32.7481 13.7322L31.3834 11.0215C31.1457 10.5639 30.8086 10.3312 30.1838 10.3312L29.0012 10.3312C28.4506 10.3312 28.1491 10.8039 28.3539 11.2863L29.5303 14.1975C29.7104 14.6508 30.0385 14.9709 30.6807 14.9709ZM12.1182 11.6242C12.1182 12.0139 12.428 12.3219 12.8176 12.3219L13.4434 12.3219C13.8411 12.3219 14.1411 12.0139 14.1411 11.6242L14.1411 10.8898L22.5948 10.8898L22.5948 11.6242C22.5948 12.0139 22.9028 12.3219 23.3004 12.3219L23.92 12.3219C24.3176 12.3219 24.6256 12.0139 24.6256 11.6242L24.6256 8.09941C24.6256 7.19335 24.5039 6.65019 23.9651 6.05722L23.4405 5.47851L22.8901 3.91953C22.5725 3.01543 21.9735 2.65156 21.2297 2.56016C20.8633 2.51758 19.7516 2.48652 18.3688 2.48652C16.994 2.48652 15.8823 2.51758 15.5061 2.56016C14.7641 2.65156 14.1713 3.01543 13.8475 3.91953L13.3034 5.47851L12.7707 6.05722C12.2319 6.65019 12.1182 7.19335 12.1182 8.09941ZM14.8565 5.54296C14.5877 5.54296 14.477 5.34863 14.5621 5.10293L14.8827 4.15546C15.0069 3.78359 15.2198 3.6664 15.5621 3.62207C15.9059 3.575 16.8942 3.54121 18.3688 3.54121C19.8496 3.54121 20.8299 3.575 21.1754 3.62207C21.516 3.6664 21.7307 3.78359 21.8532 4.15546L22.1799 5.10293C22.2668 5.34863 22.1481 5.54296 21.8793 5.54296ZM14.1426 8.84491C13.8045 8.84491 13.5561 8.59648 13.5561 8.25839L13.5561 7.45136C13.5561 7.12128 13.8045 6.8746 14.1426 6.8746C14.4807 6.8746 14.7291 7.11328 14.7291 7.45136L14.7291 8.25839C14.7291 8.59648 14.4807 8.84491 14.1426 8.84491ZM17.1871 8.58925C16.9157 8.58925 16.7373 8.40742 16.7373 8.11816L16.7373 7.5996C16.7373 7.3121 16.9157 7.13203 17.1871 7.13203L19.5274 7.13203C19.8086 7.13203 19.9869 7.3121 19.9869 7.5996L19.9869 8.11816C19.9869 8.40917 19.8069 8.58925 19.5274 8.58925ZM22.642 8.84491C22.32 8.84491 22.0635 8.58847 22.0635 8.25839L22.0635 7.45136C22.0635 7.12304 22.32 6.8746 22.642 6.8746C22.9801 6.8746 23.2285 7.11152 23.2285 7.45136L23.2285 8.25839C23.2285 8.59824 22.9801 8.84491 22.642 8.84491Z" fill="white" fill-opacity="0.85"/>
  <path d="M3.89322 8.42558C4.39615 8.73163 4.88462 8.48066 4.88462 7.89355L4.88462 3.50214C4.88462 2.9248 4.3979 2.6543 3.89322 2.96387L0.3649 5.11562C-0.116738 5.40214-0.126504 5.99355 0.3649 6.28984ZM32.9537 8.42558L36.482 6.28984C36.9557 5.98554 36.9539 5.41015 36.482 5.11562L32.9457 2.96387C32.4313 2.6623 31.9526 2.9248 31.9526 3.50214L31.9526 7.89355C31.9526 8.48066 32.4428 8.72362 32.9537 8.42558Z" fill="white" fill-opacity="0.85"/>
 </g>
</svg>
