<?xml version="1.0" encoding="UTF-8"?>
<!--Generator: Apple Native CoreSVG 341-->
<!DOCTYPE svg
PUBLIC "-//W3C//DTD SVG 1.1//EN"
       "http://www.w3.org/Graphics/SVG/1.1/DTD/svg11.dtd">
<svg version="1.1" xmlns="http://www.w3.org/2000/svg" xmlns:xlink="http://www.w3.org/1999/xlink" viewBox="0 0 27.4086 18.1516">
 <g>
  <rect height="18.1516" opacity="0" width="27.4086" x="0" y="0"/>
  <path d="M25.6308 15.6465C26.4191 15.6465 27.0472 15.0449 27.0472 14.2982C27.0472 13.5453 26.4271 12.9518 25.6308 12.9518C24.823 12.9518 24.2074 13.5453 24.2074 14.2982C24.2074 15.0449 24.839 15.6465 25.6308 15.6465ZM25.6308 11.1998C26.2131 11.1998 26.6013 10.8221 26.6261 10.2168L26.833 3.68593C26.8578 2.96249 26.3808 2.47753 25.6273 2.47753C24.8703 2.47753 24.3836 2.96249 24.4101 3.68593L24.6205 10.2238C24.6453 10.8221 25.0451 11.1998 25.6308 11.1998Z" fill="white" fill-opacity="0.85"/>
  <path d="M3.20351 18.1516L17.8836 18.1516C20.0172 18.1516 21.0889 17.0959 21.0889 14.9881L21.0889 3.11894C21.0889 1.08144 20.0092 0.0115234 17.9557 0.0115234L13.2017 0.0115234C11.5607 0.0115234 10.5242 0.365624 9.19648 1.35879L1.59629 7.11269C0.413476 8.00449 0 8.81445 0 10.2742L0 14.9881C0 17.0959 1.07968 18.1516 3.20351 18.1516ZM3.62244 9.02285C3.11189 9.02285 2.99217 8.45917 3.39783 8.16269L10.5133 2.74569C11.2941 2.12557 11.9658 1.92479 13.1174 1.92479L17.8367 1.92479C18.6887 1.92479 19.1738 2.38514 19.1738 3.27792L19.1738 7.66796C19.1738 8.52109 18.6807 9.02285 17.8367 9.02285Z" fill="white" fill-opacity="0.85"/>
 </g>
</svg>
