<?xml version="1.0" encoding="UTF-8"?>
<!--Generator: Apple Native CoreSVG 341-->
<!DOCTYPE svg
PUBLIC "-//W3C//DTD SVG 1.1//EN"
       "http://www.w3.org/Graphics/SVG/1.1/DTD/svg11.dtd">
<svg version="1.1" xmlns="http://www.w3.org/2000/svg" xmlns:xlink="http://www.w3.org/1999/xlink" viewBox="0 0 23.0508 25.9672">
 <g>
  <rect height="25.9672" opacity="0" width="23.0508" x="0" y="0"/>
  <path d="M9.4748 25.9672L9.4748 21.0811C9.4748 19.3023 7.89883 18.2832 5.24199 18.2832C2.59941 18.2832 1.01543 19.3006 1.01543 21.0811L1.01543 25.9672ZM5.24199 24.5603C4.71211 24.5603 3.84804 24.6029 3.57168 24.6029C3.10117 24.6029 2.88633 24.4041 2.8455 23.9078L2.74609 22.8203C2.66621 21.9086 3.28125 21.5605 5.24199 21.5605C7.21699 21.5605 7.82227 21.9086 7.74414 22.8203L7.65273 23.9078C7.60391 24.4041 7.39082 24.6029 6.91055 24.6029C6.64394 24.6029 5.81015 24.5603 5.24199 24.5603ZM8.83886 24.3125L9.78906 24.3125C10.1857 24.3125 10.4822 24.0055 10.4822 23.6143L10.4822 23.375C10.4822 22.9723 10.1857 22.6652 9.78906 22.6652L8.83886 22.6652ZM1.65137 24.323L1.65137 22.6775L0.701171 22.6775C0.304492 22.6775 0 22.9828 0 23.3855L0 23.6266C0 24.0178 0.304492 24.323 0.701171 24.323Z" fill="white" fill-opacity="0.85"/>
  <path d="M9.63438 17.8055C10.808 18.9711 12.2897 19.693 13.8814 19.7105C14.3311 19.7176 14.6264 19.4268 14.6264 19.0162C14.6264 18.649 14.3443 18.4043 13.8592 18.36C12.6488 18.2863 11.4881 17.7863 10.5637 16.8779C9.64726 15.9535 9.14824 14.7928 9.07363 13.5744C9.03105 13.0572 8.79258 12.8215 8.38359 12.8215C8.03262 12.8215 7.70801 13.0768 7.73731 13.5521C7.83848 15.1537 8.47051 16.6336 9.63438 17.8055Z" fill="white" fill-opacity="0.85"/>
  <path d="M11.5621 15.8715C12.3293 16.6387 13.3621 17.0328 14.0639 17.0557C14.4779 17.0697 14.7678 16.7887 14.7678 16.3969C14.7678 16.0475 14.5186 15.7893 14.0111 15.7166C13.4596 15.6447 12.9471 15.3934 12.4879 14.952C12.0562 14.4928 11.8031 13.974 11.7152 13.3646C11.6363 12.899 11.4439 12.6801 11.0367 12.6801C10.6467 12.6721 10.3381 12.9895 10.3939 13.4516C10.4986 14.3748 10.8928 15.2039 11.5621 15.8715Z" fill="white" fill-opacity="0.85"/>
  <path d="M17.4492 14.8893C20.3691 14.8893 21.682 14.1953 21.682 12.4893L21.682 2.80586C21.682 1.02539 20.1061 0.00625014 17.4492 0.00625014C14.7969 0.00625014 13.2227 1.02363 13.2227 2.80586L13.2227 12.4893C13.2227 14.1953 14.5338 14.8893 17.4492 14.8893ZM17.4492 6.27539C16.9113 6.27539 16.0473 6.33398 15.7789 6.33398C15.3004 6.33398 15.0775 6.1289 15.0367 5.63262L14.9533 4.54336C14.8654 3.6334 15.4805 3.28359 17.4492 3.28359C19.4162 3.28359 20.0295 3.6334 19.9496 4.54336L19.852 5.63262C19.8031 6.1289 19.5883 6.33398 19.1178 6.33398C18.8414 6.33398 18.0174 6.27539 17.4492 6.27539ZM17.4492 12.493C15.4709 12.493 14.8361 12.1947 14.9648 11.2572L15.043 10.7219C15.1504 9.96816 15.7611 9.73555 17.4492 9.73555C19.1436 9.73555 19.7303 9.96816 19.8457 10.7219L19.9238 11.2572C20.0783 12.1947 19.4338 12.493 17.4492 12.493ZM21.0381 6.0373L21.9883 6.0373C22.393 6.0373 22.6895 5.73027 22.6895 5.3373L22.6895 5.09804C22.6895 4.69531 22.393 4.39004 21.9883 4.39004L21.0381 4.39004ZM13.8586 6.04785L13.8586 4.40234L12.9004 4.40234C12.5117 4.40234 12.2072 4.70586 12.2072 5.10859L12.2072 5.34961C12.2072 5.74258 12.5117 6.04785 12.9004 6.04785Z" fill="white" fill-opacity="0.85"/>
 </g>
</svg>
