<?xml version="1.0" encoding="UTF-8"?>
<!--Generator: Apple Native CoreSVG 341-->
<!DOCTYPE svg
PUBLIC "-//W3C//DTD SVG 1.1//EN"
       "http://www.w3.org/Graphics/SVG/1.1/DTD/svg11.dtd">
<svg version="1.1" xmlns="http://www.w3.org/2000/svg" xmlns:xlink="http://www.w3.org/1999/xlink" viewBox="0 0 33.2865 27.8077">
 <g>
  <rect height="27.8077" opacity="0" width="33.2865" x="0" y="0"/>
  <path d="M11.7716 12.1703L9.41054 13.6507C9.01034 13.8974 8.62089 14.0331 8.05546 14.1015L4.39452 14.5542C2.6578 14.7576 1.70565 15.7275 1.70565 17.0533L1.70565 18.155C1.70565 19.1749 2.1205 19.6501 3.03124 19.6501L3.59181 19.6501C3.74299 17.9054 5.16175 16.5867 6.95311 16.5867C8.74282 16.5867 10.1615 17.9054 10.3127 19.6501L19.2564 19.6501L20.9632 21.3558L10.0361 21.3558C9.51827 22.5364 8.34846 23.338 6.95311 23.338C5.55647 23.338 4.38633 22.5364 3.86845 21.3558L3.03124 21.3558C0.986521 21.3558 0 20.3542 0 18.2074L0 17.0533C0 14.8124 1.57344 13.1876 4.1791 12.8681L8.21757 12.3718L10.5252 10.9248ZM28.8459 11.69L30.2789 12.172C32.0539 12.7683 32.9252 13.8599 32.9252 15.6144L32.9252 18.155C32.9252 20.3329 31.9547 21.3558 29.8939 21.3558L29.0567 21.3558C28.8144 21.9119 28.4258 22.3831 27.9358 22.7243L26.7623 21.551C27.3445 21.2655 27.7379 20.6679 27.7379 19.9632C27.7379 18.9773 26.958 18.1974 25.9721 18.1974C25.2709 18.1974 24.6734 18.5933 24.3895 19.1785L23.2107 17.9999C23.8136 17.1376 24.8153 16.5867 25.9721 16.5867C27.7634 16.5867 29.1822 17.9054 29.3334 19.6501L29.8939 19.6501C30.7967 19.6501 31.2195 19.1749 31.2195 18.155L31.2195 15.6531C31.2195 14.7347 30.7533 14.1958 29.7611 13.8796L28.8076 13.5706C28.2441 13.3861 27.9869 13.2779 27.5414 12.899C25.1871 10.8331 23.3119 9.96127 20.9484 9.96127L19.5433 9.96127C17.7359 9.96127 16.5309 10.0418 15.5084 10.2988L14.139 8.92973C15.5397 8.41677 17.0736 8.25562 19.5433 8.25562L20.9484 8.25562C24.4174 8.25562 27.0152 10.0999 28.8459 11.69ZM5.17928 19.9632C5.17928 20.9554 5.95917 21.7353 6.95311 21.7353C7.9373 21.7353 8.71718 20.9554 8.71718 19.9632C8.71718 18.9773 7.9373 18.1974 6.95311 18.1974C5.95917 18.1974 5.17928 18.9773 5.17928 19.9632Z" fill="white" fill-opacity="0.85"/>
  <path d="M26.4551 4.20484L26.4551 5.18394C26.4551 6.0857 26.0166 6.61636 25.1475 6.61636L14.8932 6.61636C14.0498 6.61636 13.6527 6.21206 13.6527 5.52984C13.6527 5.03609 13.8736 4.59586 14.5504 4.29801L16.6984 3.35797C18.9596 2.38453 20.3043 1.95192 22.0857 1.95192L24.0328 1.95192C25.7148 1.95192 26.4551 2.70973 26.4551 4.20484Z" fill="white" fill-opacity="0.85"/>
  <path d="M27.6967 26.3816C27.9984 26.6816 28.5025 26.6833 28.7963 26.3816C29.0963 26.0781 29.098 25.5837 28.7963 25.282L6.47363 2.97085C6.16386 2.65933 5.67578 2.65933 5.36426 2.97085C5.07226 3.26284 5.06426 3.76069 5.36426 4.07046Z" fill="white" fill-opacity="0.85"/>
 </g>
</svg>
