<?xml version="1.0" encoding="UTF-8"?>
<!--Generator: Apple Native CoreSVG 341-->
<!DOCTYPE svg
PUBLIC "-//W3C//DTD SVG 1.1//EN"
       "http://www.w3.org/Graphics/SVG/1.1/DTD/svg11.dtd">
<svg version="1.1" xmlns="http://www.w3.org/2000/svg" xmlns:xlink="http://www.w3.org/1999/xlink" viewBox="0 0 27.3027 23.8769">
 <g>
  <rect height="23.8769" opacity="0" width="27.3027" x="0" y="0"/>
  <path d="M26.9414 11.0982L26.9414 9.18258C26.5523 9.37887 26.1553 9.59293 25.7502 9.85055L22.1734 12.1072L18.2619 12.5902C15.7379 12.892 14.2053 14.4759 14.2053 16.6386L14.2053 17.7617C14.2053 19.8384 15.1607 20.8089 17.1514 20.8089L18.5051 20.8089L18.5051 19.1591L17.1514 19.1591C16.2699 19.1591 15.8568 18.7017 15.8568 17.6996L15.8568 16.6386C15.8568 15.3582 16.7877 14.4238 18.4676 14.2125L22.0193 13.781C22.5652 13.7189 22.9449 13.5867 23.3336 13.3498L26.4943 11.3613C26.6428 11.2644 26.7912 11.1773 26.9414 11.0982ZM26.9396 20.8089L26.9396 19.1591L23.1912 19.1591L23.1912 20.8089ZM20.9463 22.7406C22.7814 22.7406 24.2199 21.3021 24.2199 19.4669C24.2199 17.6318 22.7814 16.1933 20.9463 16.1933C19.1094 16.1933 17.6789 17.6318 17.6789 19.4669C17.6789 21.3021 19.1094 22.7406 20.9463 22.7406ZM20.9463 21.1759C19.9959 21.1759 19.2355 20.4236 19.2355 19.4669C19.2355 18.5023 19.9959 17.7482 20.9463 17.7482C21.9109 17.7482 22.6713 18.5023 22.6713 19.4669C22.6713 20.4236 21.9109 21.1759 20.9463 21.1759ZM5.34883 22.7406C7.18574 22.7406 8.61621 21.3021 8.61621 19.4669C8.61621 17.6318 7.18574 16.1933 5.34883 16.1933C3.50567 16.1933 2.0672 17.6318 2.0672 19.4669C2.0672 21.3021 3.50567 22.7406 5.34883 22.7406ZM5.34883 21.1759C4.38418 21.1759 3.62383 20.4236 3.62383 19.4669C3.62383 18.5023 4.38418 17.7482 5.34883 17.7482C6.29922 17.7482 7.05958 18.5023 7.05958 19.4669C7.05958 20.4236 6.29922 21.1759 5.34883 21.1759ZM0 19.1591L0 20.8089L3.1543 20.8089L3.1543 19.1591ZM7.77403 20.8089L9.14375 20.8089C11.1504 20.8089 12.0818 19.8252 12.0818 17.6996L12.0818 15.2486C12.0818 13.5447 11.2398 12.4779 9.51543 11.9074L8.13125 11.4511C6.31738 9.88766 3.84922 8.11793 0.615823 8.11793L0 8.11793L0 9.77574L0.615823 9.77574C2.83887 9.77574 4.62344 10.6441 6.8711 12.6095C7.30332 12.9867 7.54277 13.0949 8.09297 13.2599L9.01719 13.5689C9.98184 13.8656 10.4303 14.4027 10.4303 15.2855L10.4303 17.6996C10.4303 18.7017 10.0252 19.1591 9.14375 19.1591L7.77403 19.1591Z" fill="white" fill-opacity="0.85"/>
  <path d="M13.9619 4.0316C12.7824 5.81989 12.1615 7.8986 12.1943 9.92477C12.2201 10.3691 12.5535 10.6875 12.9693 10.6875C13.4012 10.6714 13.7017 10.3328 13.7035 9.86735C13.676 8.16403 14.2037 6.36363 15.2129 4.83609C16.2353 3.3023 17.6514 2.10523 19.235 1.46265C19.6553 1.28023 19.8443 0.83961 19.6707 0.443127C19.5068 0.0528939 19.0715-0.102379 18.6572 0.0694944C16.7924 0.856602 15.1316 2.25309 13.9619 4.0316Z" fill="white" fill-opacity="0.85"/>
  <path d="M16.4572 5.67262C15.5939 6.97067 15.1498 8.48727 15.1941 9.94157C15.2154 10.3841 15.5435 10.6795 15.9639 10.6875C16.385 10.6795 16.7033 10.3408 16.7033 9.85407C16.6723 8.7359 17.033 7.53942 17.7357 6.47086C18.4207 5.43258 19.3855 4.61636 20.4283 4.2107C20.8637 4.00699 21.042 3.56988 20.8728 3.19039C20.6912 2.80368 20.2754 2.64391 19.8744 2.80426C18.5479 3.32067 17.3285 4.34606 16.4572 5.67262Z" fill="white" fill-opacity="0.85"/>
  <path d="M18.9641 7.30114C18.4135 8.12946 18.1318 9.11227 18.1877 9.9609C18.1965 10.3672 18.5299 10.6875 18.9467 10.6795C19.4078 10.6795 19.7111 10.315 19.7076 9.82301C19.6836 9.27672 19.8773 8.65114 20.2328 8.11188C20.5998 7.56988 21.1037 7.1443 21.5896 6.96676C22.0463 6.7693 22.2601 6.33746 22.0768 5.90817C21.9004 5.54274 21.4836 5.37419 21.0941 5.52223C20.2721 5.84254 19.4871 6.49059 18.9641 7.30114Z" fill="white" fill-opacity="0.85"/>
 </g>
</svg>
