<?xml version="1.0" encoding="UTF-8"?>
<!--Generator: Apple Native CoreSVG 341-->
<!DOCTYPE svg
PUBLIC "-//W3C//DTD SVG 1.1//EN"
       "http://www.w3.org/Graphics/SVG/1.1/DTD/svg11.dtd">
<svg version="1.1" xmlns="http://www.w3.org/2000/svg" xmlns:xlink="http://www.w3.org/1999/xlink" viewBox="0 0 31.5008 20.7226">
 <g>
  <rect height="20.7226" opacity="0" width="31.5008" x="0" y="0"/>
  <path d="M0.897378 20.6767L2.2632 20.6767C2.90538 20.6767 3.2255 20.3646 3.41358 19.9033L8.39737 7.87226C8.57022 7.46543 8.36827 7.12969 7.95616 7.12969L6.90265 7.12969C6.53898 7.12969 6.28019 7.29551 6.10285 7.64219L0.120624 19.4301C-0.170195 20.0082 0.0557798 20.6767 0.897378 20.6767ZM28.8843 20.6767L30.2421 20.6767C31.0917 20.6767 31.3114 20.0162 31.0206 19.4381L25.0384 7.6502C24.8593 7.30352 24.6102 7.12969 24.2448 7.12969L23.1913 7.12969C22.7792 7.12969 22.579 7.47344 22.7421 7.87226L27.7339 19.9033C27.922 20.3646 28.2421 20.6767 28.8843 20.6767Z" fill="white" fill-opacity="0.85"/>
  <path d="M4.44678 20.6527L26.6882 20.6527C26.6128 20.5392 26.5489 20.4017 26.4851 20.2562L26.0554 19.1803L5.08585 19.1803L4.64639 20.2562C4.59405 20.3937 4.52843 20.5392 4.44678 20.6527Z" fill="white" fill-opacity="0.85"/>
  <path d="M5.45694 18.232L25.6843 18.232L25.0843 16.7613L6.04893 16.7613Z" fill="white" fill-opacity="0.85"/>
  <path d="M6.43428 15.7971L24.7052 15.7971L24.1149 14.3264L7.01827 14.3264Z" fill="white" fill-opacity="0.85"/>
  <path d="M7.39737 13.3861L23.7358 13.3861L23.1438 11.9039L7.98936 11.9039Z" fill="white" fill-opacity="0.85"/>
  <path d="M8.37647 10.9396L22.7567 10.9396L22.1665 9.46894L8.9587 9.46894Z" fill="white" fill-opacity="0.85"/>
  <path d="M10.1026 8.00156C10.1026 8.34511 10.3698 8.6123 10.7134 8.6123L11.2575 8.6123C11.6091 8.6123 11.8763 8.34511 11.8763 8.00156L11.8763 7.35859L19.2745 7.35859L19.2745 8.00156C19.2745 8.34511 19.5417 8.6123 19.8853 8.6123L20.4374 8.6123C20.781 8.6123 21.0481 8.34511 21.0481 8.00156L21.0481 4.91582C21.0481 4.12324 20.946 3.6457 20.479 3.12637L20.0103 2.62305L19.5317 1.26191C19.2522 0.471289 18.7304 0.14375 18.0833 0.0718749C17.755 0.0310546 16.7755 0 15.5745 0C14.3655 0 13.3878 0.0310546 13.0675 0.0718749C12.4204 0.14375 11.8985 0.471289 11.619 1.26191L11.1325 2.62305L10.6718 3.12637C10.2048 3.6457 10.1026 4.12324 10.1026 4.91582ZM12.4925 2.68047C12.2583 2.68047 12.1626 2.50918 12.2362 2.29004L12.5159 1.46328C12.6269 1.13574 12.8069 1.03808 13.1112 0.995505C13.4142 0.950193 14.28 0.924411 15.5745 0.924411C16.869 0.924411 17.7349 0.950193 18.0315 0.995505C18.3341 1.03808 18.5159 1.13574 18.6269 1.46328L18.9128 2.29004C18.9882 2.50918 18.8925 2.68047 18.6485 2.68047ZM11.87 5.56464C11.5763 5.56464 11.3606 5.35078 11.3606 5.06328L11.3606 4.35117C11.3606 4.05742 11.5763 3.85156 11.87 3.85156C12.1638 3.85156 12.3794 4.05742 12.3794 4.35117L12.3794 5.06328C12.3794 5.35879 12.1638 5.56464 11.87 5.56464ZM14.5419 5.34804C14.305 5.34804 14.1497 5.19101 14.1497 4.93633L14.1497 4.47988C14.1497 4.22519 14.305 4.06816 14.5419 4.06816L16.5894 4.06816C16.8343 4.06816 16.9913 4.22519 16.9913 4.47988L16.9913 4.93633C16.9913 5.19277 16.8343 5.34804 16.5894 5.34804ZM19.3278 5.56464C19.0341 5.56464 18.8185 5.34902 18.8185 5.06328L18.8185 4.35117C18.8185 4.06718 19.0341 3.85156 19.3278 3.85156C19.6216 3.85156 19.8372 4.05742 19.8372 4.35117L19.8372 5.06328C19.8372 5.35879 19.6216 5.56464 19.3278 5.56464Z" fill="white" fill-opacity="0.85"/>
 </g>
</svg>
