<?xml version="1.0" encoding="UTF-8"?>
<!--Generator: Apple Native CoreSVG 341-->
<!DOCTYPE svg
PUBLIC "-//W3C//DTD SVG 1.1//EN"
       "http://www.w3.org/Graphics/SVG/1.1/DTD/svg11.dtd">
<svg version="1.1" xmlns="http://www.w3.org/2000/svg" xmlns:xlink="http://www.w3.org/1999/xlink" viewBox="0 0 19.649 25.4594">
 <g>
  <rect height="25.4594" opacity="0" width="19.649" x="0" y="0"/>
  <path d="M16.834 22.9633C18.3476 21.4691 19.1555 19.5533 19.2877 17.4865C19.3267 16.8967 18.9205 16.5793 18.4728 16.5793C17.9564 16.5793 17.6656 16.8674 17.6115 17.5363C17.5174 19.109 16.8639 20.616 15.6793 21.8104C14.4832 22.9949 12.9699 23.6379 11.4053 23.7426C10.7959 23.7904 10.4322 24.0973 10.4322 24.5541C10.4322 25.0676 10.8074 25.432 11.3617 25.425C13.4303 25.4004 15.3381 24.4707 16.834 22.9633Z" fill="white" fill-opacity="0.85"/>
  <path d="M14.3435 20.4666C15.2002 19.6117 15.7115 18.5518 15.8455 17.3586C15.9191 16.782 15.5404 16.399 15.0457 16.399C14.5391 16.399 14.2961 16.6588 14.1959 17.2637C14.0867 18.048 13.759 18.7373 13.1906 19.3137C12.6 19.8981 11.925 20.232 11.2064 20.3189C10.5553 20.4191 10.252 20.7439 10.252 21.1768C10.252 21.6635 10.6189 22.0021 11.1359 21.9846C12.0355 21.9564 13.357 21.4549 14.3435 20.4666Z" fill="white" fill-opacity="0.85"/>
  <path d="M6.75195 19.2109C10.5187 19.2109 12.2125 18.3191 12.2125 16.124L12.2125 3.60644C12.2125 1.32012 10.1828 0 6.75195 0C3.33887 0 1.30566 1.32187 1.30566 3.60644L1.30566 16.124C1.30566 18.3191 2.99492 19.2109 6.75195 19.2109ZM6.75996 8.08808C6.03027 8.08808 4.95937 8.15195 4.60214 8.15195C4.00293 8.15195 3.72773 7.89453 3.66914 7.25976L3.54043 5.84824C3.433 4.68086 4.2291 4.24316 6.75996 4.24316C9.29082 4.24316 10.0771 4.68086 9.97773 5.84824L9.85703 7.25976C9.8082 7.89453 9.525 8.15195 8.91602 8.15195C8.5668 8.15195 7.45586 8.08808 6.75996 8.08808ZM6.75996 16.1115C4.20625 16.1115 3.37168 15.7254 3.56972 14.5225L3.67539 13.8406C3.82636 12.8801 4.57636 12.5773 6.75996 12.5773C8.9418 12.5773 9.70781 12.8801 9.85078 13.8406L9.95019 14.5225C10.1322 15.7254 9.31191 16.1115 6.75996 16.1115ZM2.10586 7.76914L2.10586 5.67285L0.887499 5.67285C0.376367 5.67285 0 6.05351 0 6.56445L0 6.8793C0 7.38047 0.376367 7.76914 0.887499 7.76914ZM11.4123 7.7832L12.6307 7.7832C13.1418 7.7832 13.5182 7.39453 13.5182 6.89336L13.5182 6.58027C13.5182 6.06758 13.1418 5.68691 12.6307 5.68691L11.4123 5.68691Z" fill="white" fill-opacity="0.85"/>
 </g>
</svg>
