<?xml version="1.0" encoding="UTF-8"?>
<!--Generator: Apple Native CoreSVG 341-->
<!DOCTYPE svg
PUBLIC "-//W3C//DTD SVG 1.1//EN"
       "http://www.w3.org/Graphics/SVG/1.1/DTD/svg11.dtd">
<svg version="1.1" xmlns="http://www.w3.org/2000/svg" xmlns:xlink="http://www.w3.org/1999/xlink" viewBox="0 0 23.4787 20.0836">
 <g>
  <rect height="20.0836" opacity="0" width="23.4787" x="0" y="0"/>
  <path d="M21.8724 15.2371L21.8724 19.2986C21.8724 19.6939 21.5772 19.9891 21.1819 19.9891L20.5677 19.9891C20.1724 19.9891 19.8773 19.6939 19.8773 19.2986L19.8773 15.2371C19.8773 14.8418 20.1724 14.5467 20.5677 14.5467L21.1819 14.5467C21.5772 14.5467 21.8724 14.8418 21.8724 15.2371ZM3.23839 15.2371L3.23839 19.2986C3.23839 19.6859 2.94327 19.981 2.54796 19.981L1.93371 19.981C1.5384 19.981 1.24329 19.6859 1.24329 19.2986L1.24329 15.2371C1.24329 14.8418 1.5384 14.5467 1.93371 14.5467L2.54796 14.5467C2.94327 14.5467 3.23839 14.8418 3.23839 15.2371ZM21.8724 7.9664L21.8724 12.0059C21.8724 12.4012 21.5772 12.6963 21.1819 12.6963L20.5677 12.6963C20.1724 12.6963 19.8773 12.4012 19.8773 12.0059L19.8773 7.9664C19.8773 7.5791 20.1724 7.28398 20.5677 7.28398L21.1819 7.28398C21.5772 7.28398 21.8724 7.5791 21.8724 7.9664ZM21.8724 0.690425L21.8724 4.73789C21.8724 5.1332 21.5772 5.42831 21.1819 5.42831L20.5677 5.42831C20.1724 5.42831 19.8773 5.1332 19.8773 4.73789L19.8773 0.690425C19.8773 0.295115 20.1724 0 20.5677 0L21.1819 0C21.5772 0 21.8724 0.295115 21.8724 0.690425ZM3.23839 0.690425L3.23839 2.42974L3.23839 2.42974C3.21006 2.44342 3.1808 2.46009 3.15149 2.47695C2.99179 2.56871 2.83786 2.66184 2.69131 2.75656C2.67001 2.76882 2.65035 2.78144 2.63163 2.79426C2.49491 2.88202 2.36406 2.97102 2.23996 3.06133C2.20865 3.08193 2.17957 3.10297 2.15257 3.12439C2.03787 3.2074 1.92883 3.29148 1.82514 3.37648C1.78099 3.40994 1.73977 3.44393 1.70258 3.47856C1.63813 3.53167 1.57685 3.58531 1.51902 3.63947C1.41773 3.72563 1.32555 3.8132 1.24329 3.90213L1.24329 0.690425C1.24329 0.295115 1.5384 0 1.93371 0L2.54796 0C2.94327 0 3.23839 0.295115 3.23839 0.690425Z" fill="white" fill-opacity="0.85"/>
  <path d="M12.1214 18.0058C15.1474 16.259 16.1017 14.7406 15.0722 12.9639L9.23234 2.84492C8.16301 0.993748 5.91086 0.890037 3.15149 2.47695C0.372583 4.07363-0.659058 6.08515 0.420042 7.93808L6.25188 18.0553C7.28938 19.8338 9.08039 19.7545 12.1214 18.0058ZM11.3409 16.6791C9.15656 17.9418 8.07512 18.0945 7.58312 17.2322L1.7716 7.17792C1.18468 6.15683 1.91379 4.98105 3.93019 3.81347C5.92707 2.66542 7.30617 2.6246 7.89309 3.63769L13.7046 13.692C14.1984 14.5623 13.5333 15.4129 11.3409 16.6791ZM6.95656 9.06991C7.52023 8.74413 8.3966 8.32147 8.6632 8.15526C9.14699 7.88632 9.23488 7.55878 9.00051 7.04921L8.46613 5.89257C8.01867 4.94003 7.20305 4.95058 5.23351 6.08808C3.24797 7.23359 2.84426 7.933 3.43722 8.78788L4.16691 9.83359C4.5007 10.3103 4.83449 10.3742 5.31027 10.107C5.56887 9.9453 6.41691 9.38944 6.95656 9.06991ZM10.5708 15.3351C12.5499 14.1871 13.0169 13.516 12.3396 12.6611L11.9587 12.1809C11.4146 11.492 10.6796 11.6029 8.98625 12.5894C7.27511 13.5662 6.81359 14.1414 7.13937 14.959L7.36574 15.5351C7.7634 16.548 8.58371 16.4832 10.5708 15.3351ZM10.5316 6.57753L11.5153 6.0164C11.9146 5.78574 12.0407 5.28788 11.8083 4.8791L11.6589 4.63007C11.4247 4.21328 10.9411 4.08554 10.5321 4.32421L9.55812 4.8916ZM3.00149 10.9389L2.02805 9.24843L1.05403 9.8078C0.638793 10.0482 0.536645 10.5283 0.761058 10.9451L0.902465 11.2021C1.12688 11.6109 1.62024 11.7467 2.02922 11.508Z" fill="white" fill-opacity="0.85"/>
 </g>
</svg>
