<?xml version="1.0" encoding="UTF-8"?>
<!--Generator: Apple Native CoreSVG 341-->
<!DOCTYPE svg
PUBLIC "-//W3C//DTD SVG 1.1//EN"
       "http://www.w3.org/Graphics/SVG/1.1/DTD/svg11.dtd">
<svg version="1.1" xmlns="http://www.w3.org/2000/svg" xmlns:xlink="http://www.w3.org/1999/xlink" viewBox="0 0 37.8043 27.9207">
 <g>
  <rect height="27.9207" opacity="0" width="37.8043" x="0" y="0"/>
  <path d="M3.86796 22.9807C4.1998 22.5974 4.09687 22.1068 3.72597 21.6871C2.45429 20.2742 1.74296 18.3875 1.74296 16.3062C1.74296 14.2348 2.45253 12.34 3.72597 10.9289C4.09863 10.5092 4.20332 10.0265 3.86796 9.63534C3.52734 9.23534 2.92949 9.21249 2.49863 9.69042C0.910938 11.4043 0 13.7734 0 16.3062C0 18.8443 0.886329 21.2056 2.49863 22.9336C2.93301 23.4017 3.5291 23.3904 3.86796 22.9807ZM33.575 22.9807C33.9219 23.3904 34.5099 23.4017 34.9523 22.9336C36.5664 21.2056 37.4429 18.8443 37.4429 16.3062C37.4429 13.7734 36.5418 11.4043 34.9523 9.69042C34.5152 9.21249 33.9254 9.23534 33.575 9.63534C33.2414 10.0265 33.3461 10.5092 33.7187 10.9289C35.0019 12.3418 35.7 14.2348 35.7 16.3062C35.7 18.3875 34.9967 20.2742 33.7187 21.6871C33.3478 22.1068 33.2431 22.5974 33.575 22.9807ZM18.6971 1.77636C20.7984 1.77636 22.708 2.49296 24.1367 3.78046C24.5715 4.15663 25.0629 4.26659 25.4549 3.92773C25.8717 3.58007 25.891 2.97168 25.4043 2.52051C23.6553 0.890626 21.2703 0 18.6971 0C16.1211 0 13.7115 0.909961 11.9853 2.52051C11.4986 2.97168 11.518 3.58007 11.9348 3.92773C12.3267 4.26659 12.8182 4.15663 13.2529 3.78046C14.6816 2.49296 16.5912 1.77636 18.6971 1.77636Z" fill="white" fill-opacity="0.85"/>
  <path d="M6.71659 20.1834C7.03964 19.8019 6.9162 19.3389 6.59316 18.8934C6.05292 18.2182 5.76796 17.2709 5.76796 16.3062C5.76796 15.3416 6.05292 14.4041 6.59316 13.7191C6.91444 13.2799 7.03964 12.8123 6.71659 12.4308C6.37323 12.0291 5.73105 12.0123 5.33476 12.4922C4.49746 13.5064 4.025 14.8584 4.025 16.3062C4.025 17.7541 4.49746 19.106 5.33476 20.1203C5.73105 20.6064 6.37323 20.5932 6.71659 20.1834ZM30.7281 20.1834C31.0697 20.5932 31.7119 20.6064 32.1162 20.1203C32.9553 19.106 33.426 17.7541 33.426 16.3062C33.426 14.8584 32.9553 13.5064 32.1162 12.4922C31.7119 12.0123 31.0697 12.0291 30.7281 12.4308C30.4033 12.8123 30.5365 13.2799 30.8498 13.7191C31.39 14.4041 31.683 15.3416 31.683 16.3062C31.683 17.2709 31.39 18.2182 30.8498 18.8934C30.5347 19.3389 30.4033 19.8019 30.7281 20.1834ZM18.7086 5.78807C19.682 5.78807 20.6416 6.08632 21.3221 6.63007C21.7666 6.95663 22.2465 7.08183 22.6332 6.75175C23.0517 6.40312 23.0685 5.75038 22.5719 5.34707C21.5471 4.49746 20.174 4.00996 18.7086 4.00996C17.2414 4.00996 15.8683 4.49746 14.8435 5.34707C14.3566 5.75038 14.3717 6.40312 14.7822 6.75175C15.1689 7.08183 15.6488 6.94862 16.0933 6.63007C16.7978 6.10233 17.7334 5.78807 18.7086 5.78807Z" fill="white" fill-opacity="0.85"/>
  <path d="M18.7246 21.7217C21.458 21.7217 24.9578 21.5849 26.4351 21.4189C27.6357 21.2769 28.3322 20.5912 28.3322 19.443L28.3322 18.0072C28.3322 16.6111 28.0816 15.7955 27.3174 14.8402L26.65 14.0058C26.3553 12.6101 25.8492 11.1381 25.5695 10.5699C25.1178 9.60155 24.2258 9.02655 23.1119 8.87655C22.5529 8.80644 20.8746 8.7621 18.7246 8.7621C16.5889 8.7621 14.9025 8.81444 14.3435 8.87655C13.2297 9.01855 12.3359 9.59804 11.8859 10.5699C11.6142 11.1381 11.1002 12.6101 10.8055 14.0058L10.1381 14.8402C9.38183 15.7955 9.12323 16.6111 9.12323 18.0072L9.12323 19.443C9.12323 20.5912 9.81972 21.2769 11.0203 21.4189C12.4976 21.5849 15.9974 21.7217 18.7246 21.7217ZM18.7246 20.2178C15.9892 20.2178 12.6662 20.0953 11.4092 19.9426C10.8064 19.868 10.6113 19.6133 10.6113 19.0611L10.6113 17.9439C10.6113 16.9068 10.7824 16.4363 11.3289 15.7344L12.1853 14.6099C12.3781 13.5713 12.8851 11.9531 13.2039 11.2596C13.4551 10.7394 13.8953 10.4473 14.548 10.3789C15.0787 10.3053 16.5947 10.2306 18.7246 10.2306C20.8607 10.2306 22.4088 10.307 22.8834 10.3789C23.5601 10.4535 23.9986 10.7474 24.2533 11.2631C24.5766 11.9461 25.0738 13.5607 25.2781 14.6099L26.1283 15.7344C26.6748 16.4363 26.8441 16.9068 26.8441 17.9439L26.8441 19.0611C26.8441 19.6133 26.6508 19.876 26.0463 19.9426C24.7892 20.0953 21.4662 20.2178 18.7246 20.2178ZM13.1254 13.8156C13.058 14.1162 13.183 14.265 13.5226 14.249C14.6742 14.1654 16.1324 14.0988 18.7246 14.0988C21.331 14.0988 22.7812 14.1654 23.9328 14.249C24.2725 14.265 24.3975 14.1162 24.3301 13.8156C24.1523 13.0469 23.8307 12.0668 23.5996 11.6642C23.3857 11.281 23.1383 11.1178 22.6957 11.0539C22.1582 10.981 20.8849 10.9357 18.7246 10.9357C16.5705 10.9357 15.3053 10.981 14.7597 11.0539C14.3172 11.1178 14.0697 11.281 13.8558 11.6642C13.6346 12.0668 13.3049 13.0469 13.1254 13.8156ZM13.0256 19.2654C13.7613 19.2654 14.316 18.7027 14.316 17.9607C14.316 17.225 13.7613 16.6685 13.0256 16.6685C12.2818 16.6685 11.7191 17.225 11.7191 17.9607C11.7191 18.7027 12.2818 19.2654 13.0256 19.2654ZM16.5603 18.9389L20.9031 18.9389C21.4578 18.9389 21.843 18.5519 21.843 18.0008C21.843 17.4461 21.4578 17.0689 20.9031 17.0689L16.5603 17.0689C15.9994 17.0689 15.6125 17.4461 15.6125 18.0008C15.6125 18.5519 15.9994 18.9389 16.5603 18.9389ZM24.4379 19.2654C25.1736 19.2654 25.7363 18.7027 25.7363 17.9607C25.7363 17.225 25.1736 16.6685 24.4379 16.6685C23.6941 16.6685 23.1394 17.225 23.1394 17.9607C23.1394 18.7027 23.6941 19.2654 24.4379 19.2654ZM10.7213 23.823L11.6869 23.823C12.2781 23.823 12.7441 23.3668 12.7441 22.7818L12.7441 20.8521L9.67382 20.2967L9.67382 22.7818C9.67382 23.3668 10.1283 23.823 10.7213 23.823ZM25.7517 23.823L26.7191 23.823C27.3103 23.823 27.7586 23.3668 27.7586 22.7818L27.7586 20.2967L24.6865 20.8521L24.6865 22.7818C24.6865 23.3668 25.1525 23.823 25.7517 23.823Z" fill="white" fill-opacity="0.85"/>
 </g>
</svg>
