<?xml version="1.0" encoding="UTF-8"?>
<!--Generator: Apple Native CoreSVG 341-->
<!DOCTYPE svg
PUBLIC "-//W3C//DTD SVG 1.1//EN"
       "http://www.w3.org/Graphics/SVG/1.1/DTD/svg11.dtd">
<svg version="1.1" xmlns="http://www.w3.org/2000/svg" xmlns:xlink="http://www.w3.org/1999/xlink" viewBox="0 0 35.7275 30.2908">
 <g>
  <rect height="30.2908" opacity="0" width="35.7275" x="0" y="0"/>
  <path d="M10.2264 28.1848L24.9887 28.1848C25.3441 28.1848 25.6465 27.8807 25.6465 27.5172C25.6465 27.1635 25.3441 26.8674 24.9887 26.8674L10.2264 26.8674C9.86113 26.8674 9.55879 27.1635 9.55879 27.5172C9.55879 27.8807 9.86113 28.1848 10.2264 28.1848ZM11.6557 29.5389L11.6557 25.5044C11.6557 24.7901 10.984 24.5354 10.4027 24.9667L7.71172 26.9821C7.34785 27.2581 7.34609 27.7772 7.71172 28.0612L10.4027 30.0811C10.9564 30.4946 11.6557 30.2719 11.6557 29.5389ZM23.5594 29.5389C23.5594 30.2559 24.2408 30.5106 24.8123 30.0811L27.4953 28.0612C27.8689 27.7772 27.8592 27.2483 27.4953 26.9821L24.8123 24.9667C24.2391 24.5354 23.5594 24.7901 23.5594 25.5044Z" fill="white" fill-opacity="0.85"/>
  <path d="M3.25488 21.109L3.79629 21.109C3.7289 20.7905 3.68808 20.4684 3.68808 20.1366C3.68808 17.7909 5.54374 15.937 7.89745 15.937C10.2494 15.937 12.1068 17.7909 12.1068 20.1366C12.1068 20.4684 12.0642 20.7905 11.9906 21.109L23.3613 21.109C23.2939 20.7905 23.2531 20.4684 23.2531 20.1366C23.2531 17.7909 25.1168 15.937 27.4625 15.937C29.8144 15.937 31.6799 17.7909 31.6799 20.1366C31.6799 20.4684 31.6355 20.7905 31.5619 21.109L32.1113 21.109C34.3221 21.109 35.3662 20.0126 35.3662 17.6714L35.3662 14.9434C35.3662 13.0585 34.4328 11.887 32.5193 11.2481L30.9789 10.727C29.0115 9.04383 26.2246 7.03523 22.5062 7.03523L20.992 7.03523C16.9391 7.03523 15.2295 7.4409 12.7912 8.97469L8.82558 11.4657L4.49062 11.993C1.69414 12.3339 0 14.0874 0 16.4852L0 17.7335C0 20.0321 1.06015 21.109 3.25488 21.109ZM7.89745 23.1436C9.583 23.1436 10.9125 21.8159 10.9125 20.1366C10.9125 18.4591 9.583 17.1313 7.89745 17.1313C6.21992 17.1313 4.89042 18.4591 4.89042 20.1366C4.89042 21.8159 6.21992 23.1436 7.89745 23.1436ZM27.4625 23.1436C29.148 23.1436 30.4775 21.8159 30.4775 20.1366C30.4775 18.4591 29.148 17.1313 27.4625 17.1313C25.7849 17.1313 24.4555 18.4591 24.4555 20.1366C24.4555 21.8159 25.7849 23.1436 27.4625 23.1436Z" fill="white" fill-opacity="0.85"/>
 </g>
</svg>
