<?xml version="1.0" encoding="UTF-8"?>
<!--Generator: Apple Native CoreSVG 341-->
<!DOCTYPE svg
PUBLIC "-//W3C//DTD SVG 1.1//EN"
       "http://www.w3.org/Graphics/SVG/1.1/DTD/svg11.dtd">
<svg version="1.1" xmlns="http://www.w3.org/2000/svg" xmlns:xlink="http://www.w3.org/1999/xlink" viewBox="0 0 19.5906 26.284">
 <g>
  <rect height="26.284" opacity="0" width="19.5906" x="0" y="0"/>
  <path d="M9.58086 1.77812C11.6885 1.77812 13.5998 2.49472 15.0285 3.78222C15.4615 4.15839 15.9529 4.26835 16.3449 3.92949C16.7617 3.58007 16.781 2.97168 16.2961 2.52227C14.5453 0.892383 12.1541 0 9.58086 0C7.01113 0 4.60332 0.911719 2.86738 2.52227C2.39043 2.97168 2.40801 3.58007 2.81855 3.92949C3.21679 4.26835 3.7082 4.15839 4.13496 3.78222C5.57168 2.49472 7.483 1.77812 9.58086 1.77812Z" fill="white" fill-opacity="0.85"/>
  <path d="M9.59863 5.78983C10.5738 5.78983 11.5316 6.08632 12.2139 6.63007C12.6584 6.95839 13.1365 7.08358 13.525 6.75351C13.9418 6.40487 13.9586 5.75214 13.4619 5.34882C12.4371 4.49921 11.0641 4.01171 9.59863 4.01171C8.13144 4.01171 6.76015 4.49921 5.73359 5.34882C5.23867 5.75214 5.25547 6.40487 5.67226 6.75351C6.05898 7.08358 6.53085 6.95038 6.98339 6.63007C7.68964 6.10233 8.62343 5.78983 9.59863 5.78983Z" fill="white" fill-opacity="0.85"/>
  <path d="M9.61464 21.5189C11.6297 21.5189 14.1369 21.4506 15.9135 21.3414L15.9135 22.7658C15.9135 23.3685 16.3795 23.823 16.9822 23.823L18.1525 23.823C18.7553 23.823 19.2293 23.3685 19.2293 22.7658L19.2293 18.0074C19.2293 16.6176 18.9787 15.8392 18.2242 14.8875L17.5275 14.0096C17.2363 12.5846 16.7107 11.0867 16.4373 10.5025C15.9908 9.56796 15.1459 9.00175 14.0498 8.86601C13.4908 8.79413 11.7307 8.74355 9.61464 8.74355C7.49863 8.74355 5.73847 8.79413 5.17949 8.86601C4.0834 9.00175 3.23047 9.56796 2.79023 10.5025C2.5168 11.0867 1.99297 12.5846 1.7 14.0096L1.00508 14.8875C0.250587 15.8392 0 16.6176 0 18.0074L0 22.7658C0 23.3685 0.474023 23.823 1.07676 23.823L2.24707 23.823C2.8498 23.823 3.31582 23.3685 3.31582 22.7658L3.31582 21.3414C5.09238 21.4506 7.59961 21.5189 9.61464 21.5189ZM3.51679 13.3033C3.69003 12.5 4.04726 11.441 4.28632 11.0092C4.51347 10.5914 4.77597 10.4246 5.25663 10.351C5.82343 10.2826 7.17734 10.2205 9.61464 10.2205C12.052 10.2205 13.4059 10.2666 13.9727 10.351C14.4533 10.4246 14.7061 10.5914 14.943 11.0092C15.19 11.4312 15.5152 12.5 15.7125 13.3033C15.7994 13.635 15.6531 13.7891 15.3047 13.773C14.0732 13.6894 12.5281 13.6113 9.61464 13.6113C6.70117 13.6113 5.15605 13.6894 3.92284 13.773C3.57617 13.7891 3.43613 13.635 3.51679 13.3033ZM3.81074 19.3248C3.06348 19.3248 2.48301 18.7523 2.48301 17.9988C2.48301 17.2453 3.06348 16.6826 3.81074 16.6826C4.5625 16.6826 5.12695 17.2453 5.12695 17.9988C5.12695 18.7523 4.5625 19.3248 3.81074 19.3248ZM7.47187 18.9885C6.90742 18.9885 6.5125 18.6016 6.5125 18.0389C6.5125 17.4682 6.90742 17.0812 7.47187 17.0812L11.7574 17.0812C12.3219 17.0812 12.715 17.4682 12.715 18.0389C12.715 18.6016 12.3219 18.9885 11.7574 18.9885ZM15.4185 19.3248C14.6668 19.3248 14.1023 18.7523 14.1023 17.9988C14.1023 17.2453 14.6668 16.6826 15.4185 16.6826C16.1641 16.6826 16.7365 17.2453 16.7365 17.9988C16.7365 18.7523 16.1641 19.3248 15.4185 19.3248Z" fill="white" fill-opacity="0.85"/>
 </g>
</svg>
