<?xml version="1.0" encoding="UTF-8"?>
<!--Generator: Apple Native CoreSVG 341-->
<!DOCTYPE svg
PUBLIC "-//W3C//DTD SVG 1.1//EN"
       "http://www.w3.org/Graphics/SVG/1.1/DTD/svg11.dtd">
<svg version="1.1" xmlns="http://www.w3.org/2000/svg" xmlns:xlink="http://www.w3.org/1999/xlink" viewBox="0 0 22.2581 23.4473">
 <g>
  <rect height="23.4473" opacity="0" width="22.2581" x="0" y="0"/>
  <path d="M1.31081 23.3351L1.36667 23.3351C4.48913 23.3351 4.736 21.3387 6.28385 21.3387C7.78991 21.3387 8.20026 23.3351 10.9524 23.3351C13.6965 23.3351 14.1069 21.3387 15.613 21.3387C17.1608 21.3387 17.4077 23.3351 20.5301 23.3351L20.5878 23.3351C21.0301 23.3351 21.3821 22.9832 21.3821 22.5408C21.3821 22.1002 21.0301 21.7402 20.5878 21.7402L20.5301 21.7402C19.544 21.7402 18.9721 21.3439 18.2001 20.7955C17.56 20.3312 16.7391 19.742 15.613 19.742C14.4628 19.742 13.6339 20.3633 12.9956 20.8355C12.3147 21.3531 11.7934 21.7402 10.9524 21.7402C10.1034 21.7402 9.5901 21.3531 8.911 20.8355C8.27096 20.3633 7.43405 19.742 6.28385 19.742C5.15768 19.742 4.33679 20.3312 3.69675 20.7955C2.92468 21.3439 2.3528 21.7402 1.36667 21.7402L1.31081 21.7402C0.868428 21.7402 0.51472 22.1002 0.51472 22.5408C0.51472 22.9832 0.868428 23.3351 1.31081 23.3351ZM0.462176 17.2818L2.49011 19.9742C2.60808 19.9023 2.74284 19.8057 2.89968 19.6967C4.06218 18.8475 5.04382 18.384 6.28385 18.384C7.55768 18.384 8.52956 18.8715 9.72584 19.7447C10.4253 20.2809 10.596 20.3805 10.9524 20.3805C11.2848 20.3805 11.4555 20.2809 12.0714 19.8266C13.3094 18.8875 14.3071 18.384 15.613 18.384C16.861 18.384 17.8364 18.8475 18.9971 19.6967C19.154 19.8057 19.2887 19.9023 19.4147 19.9742L21.4346 17.2818C22.4069 16.0133 21.7852 14.5584 20.1315 14.5584L1.7653 14.5584C0.111591 14.5584-0.510086 16.0133 0.462176 17.2818ZM5.50963 4.05567C5.67135 3.33496 5.98502 2.39667 6.19831 2.01816C6.40417 1.65273 6.6401 1.48945 7.06666 1.43535C7.57838 1.3625 8.7858 1.32519 10.9507 1.32519C13.1075 1.32519 14.3229 1.35273 14.8266 1.43535C15.2612 1.49921 15.4891 1.65273 15.695 2.01816C15.9163 2.38867 16.2139 3.33496 16.3837 4.05567C16.4591 4.35449 16.3278 4.48555 16.0139 4.47578C14.9202 4.40996 13.5376 4.33535 10.9507 4.33535C8.35573 4.33535 6.98288 4.40996 5.87936 4.47578C5.56549 4.48555 5.44049 4.35449 5.50963 4.05567ZM5.77331 9.43359C5.10944 9.43359 4.59909 8.92949 4.59909 8.25937C4.59909 7.5875 5.10944 7.0834 5.77331 7.0834C6.44518 7.0834 6.94928 7.5875 6.94928 8.25937C6.94928 8.92949 6.44518 9.43359 5.77331 9.43359ZM9.03854 9.14609C8.54596 9.14609 8.19186 8.79199 8.19186 8.2914C8.19186 7.78906 8.54596 7.44297 9.03854 7.44297L12.8548 7.44297C13.3553 7.44297 13.7014 7.78906 13.7014 8.2914C13.7014 8.79199 13.3553 9.14609 12.8548 9.14609ZM16.12 9.43359C15.4481 9.43359 14.944 8.92949 14.944 8.25937C14.944 7.5875 15.4481 7.0834 16.12 7.0834C16.7919 7.0834 17.2942 7.5875 17.2942 8.25937C17.2942 8.92949 16.7919 9.43359 16.12 9.43359ZM10.9507 11.4041C13.359 11.4041 16.5278 11.2789 17.8684 11.1307C18.8844 11.0082 19.4602 10.4369 19.4602 9.46973L19.4602 8.26445C19.4602 7.02812 19.2284 6.33848 18.5723 5.48711L17.9475 4.69883C17.6856 3.42207 17.2124 2.08847 16.9682 1.56465C16.5786 0.731249 15.8171 0.243164 14.8434 0.112695C14.3465 0.0408202 12.8182 0 10.9507 0C9.07507 0 7.55475 0.0488281 7.04987 0.112695C6.07624 0.227148 5.31471 0.731249 4.92507 1.56465C4.68093 2.08847 4.20768 3.42207 3.94577 4.69883L3.32897 5.48711C2.66491 6.33848 2.43307 7.02812 2.43307 8.26445L2.43307 9.46973C2.43307 10.4369 3.00885 11.01 4.02487 11.1307C5.3735 11.2771 8.53424 11.4041 10.9507 11.4041ZM3.38913 13.3986L4.23776 13.3986C4.77839 13.3986 5.19382 12.9832 5.19382 12.4506L5.19382 10.6557L2.43307 9.28203L2.43307 12.4506C2.43307 12.9832 2.8485 13.3986 3.38913 13.3986ZM17.6555 13.3986L18.5042 13.3986C19.0448 13.3986 19.4602 12.9832 19.4602 12.4506L19.4602 9.28203L16.7075 10.6557L16.7075 12.4506C16.7075 12.9832 17.1229 13.3986 17.6555 13.3986Z" fill="white" fill-opacity="0.85"/>
 </g>
</svg>
