<?xml version="1.0" encoding="UTF-8"?>
<!--Generator: Apple Native CoreSVG 341-->
<!DOCTYPE svg
PUBLIC "-//W3C//DTD SVG 1.1//EN"
       "http://www.w3.org/Graphics/SVG/1.1/DTD/svg11.dtd">
<svg version="1.1" xmlns="http://www.w3.org/2000/svg" xmlns:xlink="http://www.w3.org/1999/xlink" viewBox="0 0 29.2761 24.6191">
 <g>
  <rect height="24.6191" opacity="0" width="29.2761" x="0" y="0"/>
  <path d="M26.7195 19.7941L28.0146 19.7941C28.858 19.7941 29.0919 19.1238 28.7851 18.5555L22.0474 5.36151C21.8683 5.0246 21.6095 4.84101 21.2378 4.84101L20.5855 4.84101C20.1734 4.84101 19.983 5.19452 20.1363 5.58358L25.5691 19.0207C25.7492 19.474 26.0773 19.7941 26.7195 19.7941Z" fill="white" fill-opacity="0.85"/>
  <path d="M0.906422 19.7959L2.19529 19.7959C2.83747 19.7959 3.1656 19.4758 3.34567 19.0224L8.77849 5.58534C8.93981 5.19628 8.74138 4.84452 8.32927 4.84452L7.67693 4.84452C7.30349 4.84452 7.04646 5.02636 6.87537 5.36327L0.129668 18.5572C-0.178924 19.1256 0.0568161 19.7959 0.906422 19.7959Z" fill="white" fill-opacity="0.85"/>
  <path d="M14.4734 1.41132C15.8976 1.41132 17.1834 1.92909 18.1734 2.81347C18.5679 3.15487 18.982 3.17616 19.2595 2.89687C19.5609 2.59902 19.5564 2.1416 19.2285 1.80644C17.9779 0.585741 16.2709 0 14.4734 0C12.6759 0 10.9787 0.587499 9.72809 1.8082C9.3904 2.1416 9.38767 2.59902 9.69528 2.89687C9.97106 3.17616 10.3789 3.15312 10.7797 2.81347C11.775 1.93437 13.0554 1.41132 14.4734 1.41132Z" fill="white" fill-opacity="0.85"/>
  <path d="M14.4734 4.39393C15.167 4.39393 15.7736 4.608 16.2513 4.98729C16.6992 5.30214 17.0814 5.2994 17.3509 5.03163C17.6478 4.73476 17.6328 4.30234 17.3076 3.99374C16.7365 3.46757 15.648 2.98085 14.4734 2.98085C13.297 2.98085 12.2086 3.46757 11.6392 3.99374C11.314 4.30234 11.3052 4.73476 11.6056 5.03163C11.8734 5.2994 12.2556 5.30038 12.7052 4.98729C13.1732 4.608 13.7816 4.39393 14.4734 4.39393Z" fill="white" fill-opacity="0.85"/>
  <path d="M8.14899 16.4474C8.14899 16.8371 8.457 17.1451 8.84665 17.1451L9.47419 17.1451C9.87184 17.1451 10.1718 16.8371 10.1718 16.4474L10.1718 15.7131L18.6238 15.7131L18.6238 16.4474C18.6238 16.8371 18.9336 17.1451 19.3312 17.1451L19.949 17.1451C20.3466 17.1451 20.6546 16.8371 20.6546 16.4474L20.6546 12.9226C20.6546 12.0166 20.5347 11.4734 19.9959 10.8805L19.4712 10.3017L18.9191 8.74276C18.6033 7.83866 18.0025 7.4748 17.2605 7.38339C16.8923 7.34081 15.7806 7.30976 14.3978 7.30976C13.023 7.30976 11.9113 7.34081 11.5369 7.38339C10.7931 7.4748 10.2021 7.83866 9.87653 8.74276L9.33415 10.3017L8.80153 10.8805C8.26267 11.4734 8.14899 12.0166 8.14899 12.9226ZM10.8873 10.3662C10.6185 10.3662 10.506 10.1719 10.5929 9.92616L10.9134 8.9787C11.0377 8.60682 11.2506 8.48964 11.5912 8.4453C11.9349 8.39823 12.925 8.36444 14.3978 8.36444C15.8787 8.36444 16.8607 8.39823 17.2045 8.4453C17.5451 8.48964 17.7615 8.60682 17.8839 8.9787L18.2107 9.92616C18.2976 10.1719 18.1789 10.3662 17.9084 10.3662ZM10.1716 13.6681C9.83356 13.6681 9.58512 13.4197 9.58512 13.0816L9.58512 12.2746C9.58512 11.9445 9.83356 11.6978 10.1716 11.6978C10.5097 11.6978 10.7582 11.9365 10.7582 12.2746L10.7582 13.0816C10.7582 13.4197 10.5097 13.6681 10.1716 13.6681ZM13.2179 13.4125C12.9464 13.4125 12.7681 13.2306 12.7681 12.9414L12.7681 12.4228C12.7681 12.1353 12.9464 11.9553 13.2179 11.9553L15.5582 11.9553C15.8377 11.9553 16.0177 12.1353 16.0177 12.4228L16.0177 12.9414C16.0177 13.2324 15.8377 13.4125 15.5582 13.4125ZM18.6711 13.6681C18.3507 13.6681 18.0925 13.4117 18.0925 13.0816L18.0925 12.2746C18.0925 11.9463 18.3507 11.6978 18.6711 11.6978C19.0109 11.6978 19.2576 11.9348 19.2576 12.2746L19.2576 13.0816C19.2576 13.4215 19.0109 13.6681 18.6711 13.6681Z" fill="white" fill-opacity="0.85"/>
 </g>
</svg>
