<?xml version="1.0" encoding="UTF-8"?>
<!--Generator: Apple Native CoreSVG 341-->
<!DOCTYPE svg
PUBLIC "-//W3C//DTD SVG 1.1//EN"
       "http://www.w3.org/Graphics/SVG/1.1/DTD/svg11.dtd">
<svg version="1.1" xmlns="http://www.w3.org/2000/svg" xmlns:xlink="http://www.w3.org/1999/xlink" viewBox="0 0 22.7561 20.0836">
 <g>
  <rect height="20.0836" opacity="0" width="22.7561" x="0" y="0"/>
  <path d="M2.87706 15.2371L2.87706 19.2986C2.87706 19.6939 2.58195 19.9891 2.19464 19.9891L1.57238 19.9891C1.17707 19.9891 0.881957 19.6939 0.881957 19.2986L0.881957 15.2371C0.881957 14.8418 1.17707 14.5467 1.57238 14.5467L2.19464 14.5467C2.58195 14.5467 2.87706 14.8418 2.87706 15.2371ZM21.511 15.2371L21.511 19.2986C21.511 19.6859 21.2159 19.981 20.8206 19.981L20.2063 19.981C19.811 19.981 19.5159 19.6859 19.5159 19.2986L19.5159 15.2371C19.5159 14.8418 19.811 14.5467 20.2063 14.5467L20.8206 14.5467C21.2159 14.5467 21.511 14.8418 21.511 15.2371ZM2.87706 7.9664L2.87706 12.0059C2.87706 12.4012 2.58195 12.6963 2.19464 12.6963L1.57238 12.6963C1.17707 12.6963 0.881957 12.4012 0.881957 12.0059L0.881957 7.9664C0.881957 7.5791 1.17707 7.28398 1.57238 7.28398L2.19464 7.28398C2.58195 7.28398 2.87706 7.5791 2.87706 7.9664ZM2.87706 0.690425L2.87706 4.73789C2.87706 5.1332 2.58195 5.42831 2.19464 5.42831L1.57238 5.42831C1.17707 5.42831 0.881957 5.1332 0.881957 4.73789L0.881957 0.690425C0.881957 0.295115 1.17707 0 1.57238 0L2.19464 0C2.58195 0 2.87706 0.295115 2.87706 0.690425ZM21.511 0.690425L21.511 3.90036C21.0208 3.40136 20.3808 2.92297 19.6046 2.47695C19.5747 2.45976 19.5448 2.44277 19.5159 2.42882L19.5159 0.690425C19.5159 0.295115 19.811 0 20.2063 0L20.8206 0C21.2159 0 21.511 0.295115 21.511 0.690425Z" fill="white" fill-opacity="0.85"/>
  <path d="M10.6347 18.0058C13.6819 19.7545 15.4747 19.8338 16.5042 18.0553L22.336 7.93808C23.4151 6.08515 22.3835 4.07363 19.6046 2.47695C16.8435 0.890037 14.5913 0.993748 13.5237 2.84492L7.68213 12.9639C6.65264 14.7406 7.60694 16.259 10.6347 18.0058ZM11.4151 16.6791C9.22099 15.4129 8.55771 14.5623 9.05771 13.692L14.863 3.63769C15.4499 2.6246 16.8272 2.66542 18.8241 3.81347C20.8405 4.98105 21.5714 6.15683 20.9845 7.17792L15.1729 17.2322C14.6792 18.0945 13.6058 17.9418 11.4151 16.6791ZM15.7995 9.06991C16.3374 9.38944 17.1854 9.9453 17.4538 10.107C17.9198 10.3742 18.2554 10.3103 18.5874 9.83359L19.3188 8.78788C19.9181 7.933 19.5063 7.23359 17.5226 6.08808C15.553 4.95058 14.7374 4.94003 14.2882 5.89257L13.7556 7.04921C13.5212 7.55878 13.6091 7.88632 14.0929 8.15526C14.3595 8.32147 15.2341 8.74413 15.7995 9.06991ZM12.1835 15.3351C14.1706 16.4832 14.9909 16.548 15.3886 15.5351L15.6149 14.959C15.9425 14.1414 15.481 13.5662 13.7698 12.5894C12.0747 11.6029 11.3397 11.492 10.7974 12.1809L10.4165 12.6611C9.7374 13.516 10.2044 14.1871 12.1835 15.3351ZM12.2228 6.57753L13.1962 4.8916L12.2239 4.32421C11.8149 4.08554 11.3296 4.21328 11.0972 4.63007L10.9478 4.8791C10.7153 5.28788 10.8415 5.78574 11.2407 6.0164ZM19.7528 10.9389L20.7269 11.508C21.1358 11.7467 21.6372 11.6109 21.8616 11.2021L22.0013 10.9451C22.2274 10.5283 22.1173 10.0482 21.702 9.8078L20.7263 9.24843Z" fill="white" fill-opacity="0.85"/>
 </g>
</svg>
