<?xml version="1.0" encoding="UTF-8"?>
<!--Generator: Apple Native CoreSVG 341-->
<!DOCTYPE svg
PUBLIC "-//W3C//DTD SVG 1.1//EN"
       "http://www.w3.org/Graphics/SVG/1.1/DTD/svg11.dtd">
<svg version="1.1" xmlns="http://www.w3.org/2000/svg" xmlns:xlink="http://www.w3.org/1999/xlink" viewBox="0 0 23.0588 25.9707">
 <g>
  <rect height="25.9707" opacity="0" width="23.0588" x="0" y="0"/>
  <path d="M13.2387 25.9609L14.5498 25.9609L14.5498 21.0773C14.5498 20.1156 15.5383 19.5863 17.4492 19.5863C19.3584 19.5863 20.3727 20.1156 20.3727 21.0773L20.3727 25.9609L21.69 25.9609L21.69 21.0668C21.69 19.2943 20.0998 18.277 17.4492 18.277C14.8004 18.277 13.2387 19.2961 13.2387 21.0668ZM17.4492 24.5957C17.9686 24.5957 18.8016 24.64 19.0504 24.64C19.5156 24.64 19.7287 24.451 19.7678 23.9777L19.8557 22.9185C19.9338 22.0547 19.3471 21.7164 17.4492 21.7164C15.5576 21.7164 14.9852 22.0547 15.0473 22.9185L15.1369 23.9777C15.176 24.451 15.3873 24.64 15.848 24.64C16.1049 24.64 16.9041 24.5957 17.4492 24.5957ZM13.8746 24.2902L13.8746 22.6527L12.9244 22.6527C12.5197 22.6527 12.2313 22.95 12.2313 23.3607L12.2313 23.5982C12.2313 23.9912 12.5197 24.2902 12.9244 24.2902ZM21.0381 24.3008L21.9963 24.3008C22.385 24.3008 22.6975 24.0035 22.6975 23.6105L22.6975 23.3713C22.6975 22.9605 22.385 22.6633 21.9963 22.6633L21.0381 22.6633Z" fill="white" fill-opacity="0.85"/>
  <path d="M13.0471 17.7992C14.2189 16.6273 14.8447 15.1457 14.9441 13.5459C14.9734 13.0705 14.6586 12.817 14.3059 12.817C13.8889 12.817 13.6584 13.051 13.6158 13.5682C13.5412 14.7865 13.0422 15.9473 12.1258 16.8717C11.2014 17.7783 10.0406 18.2783 8.83027 18.3537C8.34511 18.398 8.06133 18.6445 8.06133 19.01C8.06133 19.4205 8.35839 19.7096 8.808 19.7043C10.4016 19.685 11.8814 18.9648 13.0471 17.7992Z" fill="white" fill-opacity="0.85"/>
  <path d="M11.1193 15.8652C11.7887 15.1977 12.1908 14.3686 12.2955 13.4453C12.3514 12.9832 12.0445 12.6676 11.6527 12.6756C11.2455 12.6756 11.0451 12.8928 10.9645 13.3584C10.8766 13.966 10.6332 14.4865 10.1918 14.9475C9.74238 15.3871 9.22988 15.6385 8.67832 15.7121C8.16289 15.783 7.91992 16.0412 7.91992 16.3906C7.91191 16.7807 8.21152 17.0635 8.62558 17.0494C9.31933 17.0266 10.3504 16.6324 11.1193 15.8652Z" fill="white" fill-opacity="0.85"/>
  <path d="M5.23398 14.8848C8.15742 14.8848 9.46679 14.1908 9.46679 12.483L9.46679 2.79961C9.46679 1.01738 7.89258 0 5.23398 0C2.58516 0 1.00742 1.01914 1.00742 2.79961L1.00742 12.483C1.00742 14.1908 2.31855 14.8848 5.23398 14.8848ZM5.23398 13.5754C3.13105 13.5754 2.32656 13.2566 2.32656 12.4404L2.32656 2.81015C2.32656 1.84668 3.31504 1.31914 5.23398 1.31914C7.15117 1.31914 8.15742 1.84668 8.15742 2.81015L8.15742 12.4404C8.15742 13.2566 7.3334 13.5754 5.23398 13.5754ZM5.23398 6.32851C5.75332 6.32851 6.58633 6.38711 6.84316 6.38711C7.3084 6.38711 7.51348 6.19179 7.55254 5.71054L7.64844 4.65761C7.72656 3.78574 7.13184 3.44746 5.23398 3.44746C3.34238 3.44746 2.74589 3.78574 2.83203 4.65761L2.92168 5.71054C2.96074 6.19179 3.17207 6.38711 3.63105 6.38711C3.89765 6.38711 4.69687 6.32851 5.23398 6.32851ZM5.23398 12.3166C7.14766 12.3166 7.75938 12.0219 7.62266 11.1287L7.54453 10.6182C7.43711 9.89102 6.86895 9.66641 5.23398 9.66641C3.61328 9.66641 3.03183 9.89102 2.91992 10.6182L2.84355 11.1287C2.71035 12.0219 3.33632 12.3166 5.23398 12.3166ZM1.64336 6.03105L1.64336 4.38555L0.693163 4.38555C0.296484 4.38555 0 4.68906 0 5.09179L0 5.33105C0 5.72402 0.296484 6.03105 0.693163 6.03105ZM8.83086 6.03984L9.78105 6.03984C10.1777 6.03984 10.4822 5.73633 10.4822 5.34336L10.4822 5.10234C10.4822 4.69961 10.1777 4.39434 9.78105 4.39434L8.83086 4.39434Z" fill="white" fill-opacity="0.85"/>
 </g>
</svg>
