<?xml version="1.0" encoding="UTF-8"?>
<!--Generator: Apple Native CoreSVG 341-->
<!DOCTYPE svg
PUBLIC "-//W3C//DTD SVG 1.1//EN"
       "http://www.w3.org/Graphics/SVG/1.1/DTD/svg11.dtd">
<svg version="1.1" xmlns="http://www.w3.org/2000/svg" xmlns:xlink="http://www.w3.org/1999/xlink" viewBox="0 0 33.9417 25.6388">
 <g>
  <rect height="25.6388" opacity="0" width="33.9417" x="0" y="0"/>
  <path d="M9.36997 18.703L10.4133 18.0997L9.68365 16.8327L8.64029 17.436C7.95787 17.8323 7.43462 17.652 6.99927 16.8915L6.51802 16.0702C5.94966 15.0765 6.24458 13.9448 7.4522 13.0347L9.99751 11.1224C10.3819 10.8294 10.6206 10.5579 10.8131 10.2038L12.436 7.13564C13.3958 5.32978 14.2012 4.56962 16.7874 3.06923L17.8348 2.4665C19.6036 1.44716 21.3768 1.29442 24.0323 1.81825C24.5249 1.91142 24.767 1.88036 25.2649 1.77743L26.112 1.59364C26.9887 1.40087 27.5704 1.60946 27.971 2.28896L29.0489 4.15712C29.4922 4.92568 29.3856 5.46045 28.7032 5.85674L27.6438 6.46005L28.3735 7.72704L29.4329 7.12196C30.9719 6.23349 31.2532 5.05439 30.3141 3.42744L29.2221 1.53291C28.4606 0.226463 27.3424-0.220998 25.759 0.0995097L24.4876 0.360643C22.4303-0.0362321 19.6973-0.293654 17.1051 1.19951L16.0577 1.81025C13.2419 3.43388 12.2112 4.3997 11.1344 6.44228L9.3774 9.76631L6.57447 11.8776C4.76471 13.2374 4.29518 15.1313 5.25904 16.7999L5.75357 17.662C6.6731 19.2597 7.83892 19.5852 9.36997 18.703ZM14.0221 16.0161L24.8194 9.78192L24.0897 8.51494L13.2844 14.7571ZM13.1477 18.5001C14.5668 17.6827 15.0336 15.937 14.2163 14.5241C13.3989 13.1112 11.6594 12.6462 10.2465 13.4618C8.82564 14.2792 8.3606 16.0186 9.17798 17.4315C9.99537 18.8444 11.7331 19.3175 13.1477 18.5001ZM12.4588 17.305C11.7198 17.7313 10.7977 17.4817 10.3731 16.7444C9.94673 16.0054 10.1883 15.0815 10.9354 14.6569C11.6727 14.2323 12.5965 14.4722 13.0211 15.213C13.4458 15.9583 13.2059 16.8724 12.4588 17.305ZM27.3659 10.2954C28.7788 9.47802 29.2438 7.73232 28.4282 6.31943C27.609 4.90478 25.8713 4.43974 24.4567 5.25713C23.0376 6.07451 22.5725 7.81396 23.3899 9.22685C24.2055 10.6397 25.945 11.1128 27.3659 10.2954ZM26.669 9.10205C25.9317 9.52666 25.0079 9.27705 24.5833 8.53974C24.1586 7.79892 24.4065 6.87685 25.1456 6.45224C25.8846 6.02763 26.8085 6.26747 27.2331 7.00653C27.6577 7.75361 27.4161 8.66767 26.669 9.10205Z" fill="white" fill-opacity="0.85"/>
  <path d="M6.36958 25.06C6.64615 25.521 7.21782 25.6565 7.6477 25.419L33.1248 10.711C33.5547 10.4718 33.7178 9.89384 33.4625 9.45068C33.194 8.98974 32.6143 8.84443 32.1844 9.09345L6.70904 23.8015C6.28365 24.039 6.12232 24.6186 6.36958 25.06Z" fill="white" fill-opacity="0.85"/>
  <path d="M4.52897 20.1835L2.45807 16.5751C2.08639 15.9302 1.32975 16.097 1.11862 16.7241L0.0514318 19.7653C-0.103841 20.2169 0.099283 20.5735 0.568618 20.6622L3.72799 21.2657C4.39244 21.397 4.90689 20.8204 4.52897 20.1835Z" fill="white" fill-opacity="0.85"/>
 </g>
</svg>
