<?xml version="1.0" encoding="UTF-8"?>
<!--Generator: Apple Native CoreSVG 341-->
<!DOCTYPE svg
PUBLIC "-//W3C//DTD SVG 1.1//EN"
       "http://www.w3.org/Graphics/SVG/1.1/DTD/svg11.dtd">
<svg version="1.1" xmlns="http://www.w3.org/2000/svg" xmlns:xlink="http://www.w3.org/1999/xlink" viewBox="0 0 28.0959 25.6043">
 <g>
  <rect height="25.6043" opacity="0" width="28.0959" x="0" y="0"/>
  <path d="M13.8633 25.598C18.8828 25.598 21.0555 24.4402 21.0555 21.6662L21.0555 4.68671C21.0555 1.70332 18.4349 0 13.8633 0C9.30136 0 6.68886 1.70859 6.68886 4.68671L6.68886 21.6662C6.68886 24.4402 8.85351 25.598 13.8633 25.598ZM13.8713 10.6517C12.8967 10.6517 11.4494 10.7254 10.9775 10.7254C10.2185 10.7254 9.88827 10.4324 9.82167 9.6494L9.65389 7.73202C9.51717 6.26991 10.5734 5.68573 13.8713 5.68573C17.1691 5.68573 18.2174 6.26991 18.0887 7.73202L17.9209 9.6494C17.8463 10.4324 17.524 10.7254 16.757 10.7254C16.2914 10.7254 14.7961 10.6517 13.8713 10.6517ZM13.8713 21.4283C10.5098 21.4283 9.47909 20.917 9.68944 19.4238L9.81815 18.5006C9.98768 17.2941 10.9988 16.8805 13.8713 16.8805C16.734 16.8805 17.7451 17.2941 17.9164 18.5006L18.0451 19.4238C18.2635 20.917 17.223 21.4283 13.8713 21.4283ZM7.42675 10.118L7.42675 7.68867L5.98124 7.68867C5.41445 7.68867 4.98847 8.11445 4.98847 8.69784L4.98847 9.10429C4.98847 9.68593 5.41445 10.118 5.98124 10.118ZM20.3078 10.1391L21.7533 10.1391C22.3281 10.1391 22.7461 9.70526 22.7461 9.12538L22.7461 8.71893C22.7461 8.13554 22.3281 7.70976 21.7533 7.70976L20.3078 7.70976Z" fill="white" fill-opacity="0.85"/>
  <path d="M28.0959 7.78828L28.0959 3.39511C28.0959 2.82129 27.6092 2.54902 27.1045 2.85859L23.5762 5.01035C23.0945 5.29863 23.0848 5.88652 23.5762 6.18456L27.1045 8.32031C27.6074 8.62636 28.0959 8.37714 28.0959 7.78828Z" fill="white" fill-opacity="0.85"/>
 </g>
</svg>
