<?xml version="1.0" encoding="UTF-8"?>
<!--Generator: Apple Native CoreSVG 341-->
<!DOCTYPE svg
PUBLIC "-//W3C//DTD SVG 1.1//EN"
       "http://www.w3.org/Graphics/SVG/1.1/DTD/svg11.dtd">
<svg version="1.1" xmlns="http://www.w3.org/2000/svg" xmlns:xlink="http://www.w3.org/1999/xlink" viewBox="0 0 21.0023 18.7605">
 <g>
  <rect height="18.7605" opacity="0" width="21.0023" x="0" y="0"/>
  <path d="M2.77324 18.741L17.8695 18.741C19.5736 18.741 20.641 17.5166 20.641 15.982C20.641 15.509 20.506 15.0164 20.2531 14.5709L12.6943 1.39238C12.1637 0.465038 11.2576 0 10.3223 0C9.38515 0 8.46582 0.468554 7.94668 1.39238L0.38789 14.5727C0.120703 15.0244 0 15.509 0 15.982C0 17.5166 1.06738 18.741 2.77324 18.741ZM2.93944 16.902C2.3244 16.902 1.95291 16.4256 1.95291 15.8861C1.95291 15.7217 1.9867 15.5084 2.08182 15.3244L9.47441 2.40526C9.65663 2.08084 9.99609 1.94217 10.3223 1.94217C10.6467 1.94217 10.9746 2.0826 11.1586 2.40702L18.5529 15.3377C18.6481 15.5199 18.6899 15.7234 18.6899 15.8861C18.6899 16.4256 18.3024 16.902 17.6953 16.902Z" fill="white" fill-opacity="0.85"/>
  <path d="M5.41542 15.1647C5.41542 15.4701 5.65604 15.709 5.97929 15.709L6.45976 15.709C6.77499 15.709 7.01386 15.4701 7.01386 15.1647L7.01386 14.5906L13.6049 14.5906L13.6049 15.1647C13.6049 15.4701 13.8438 15.709 14.159 15.709L14.6492 15.709C14.9707 15.709 15.2033 15.4701 15.2033 15.1647L15.2033 12.4221C15.2033 11.7135 15.1242 11.2828 14.6943 10.8219L14.2805 10.3707L13.8443 9.14394C13.5984 8.43905 13.1252 8.15136 12.5516 8.08652C12.2701 8.04569 11.3809 8.02616 10.3143 8.02616C9.23789 8.02616 8.35663 8.04569 8.07519 8.08652C7.49355 8.15136 7.02206 8.43905 6.77441 9.14394L6.34628 10.3707L5.93417 10.8219C5.49452 11.2828 5.41542 11.7135 5.41542 12.4221ZM7.54628 10.406C7.3412 10.406 7.26933 10.2603 7.33593 10.0783L7.58378 9.32675C7.66991 9.03808 7.83417 8.94921 8.0996 8.91015C8.36796 8.88085 9.14706 8.84882 10.3143 8.84882C11.4814 8.84882 12.2428 8.88085 12.5191 8.91015C12.7846 8.94921 12.9408 9.03808 13.043 9.32675L13.2908 10.0783C13.3477 10.2603 13.2855 10.406 13.0805 10.406ZM6.99198 12.9816C6.72909 12.9816 6.53104 12.8049 6.53104 12.5385L6.53104 11.9078C6.53104 11.6609 6.72909 11.4727 6.99198 11.4727C7.23261 11.4727 7.4289 11.6529 7.4289 11.9078L7.4289 12.5385C7.4289 12.8049 7.23261 12.9816 6.99198 12.9816ZM9.3789 12.7853C9.17734 12.7853 9.04413 12.6602 9.04413 12.4346L9.04413 12.0232C9.04413 11.8039 9.17734 11.6707 9.3789 11.6707L11.2221 11.6707C11.4316 11.6707 11.5648 11.8039 11.5648 12.0232L11.5648 12.4346C11.5648 12.6602 11.4316 12.7853 11.2221 12.7853ZM13.6801 12.9816C13.4314 12.9816 13.2432 12.8049 13.2432 12.5385L13.2432 11.9078C13.2432 11.6609 13.4314 11.4727 13.6801 11.4727C13.935 11.4727 14.125 11.6529 14.125 11.9078L14.125 12.5385C14.125 12.8066 13.935 12.9816 13.6801 12.9816Z" fill="white" fill-opacity="0.85"/>
 </g>
</svg>
