<?xml version="1.0" encoding="UTF-8"?>
<!--Generator: Apple Native CoreSVG 341-->
<!DOCTYPE svg
PUBLIC "-//W3C//DTD SVG 1.1//EN"
       "http://www.w3.org/Graphics/SVG/1.1/DTD/svg11.dtd">
<svg version="1.1" xmlns="http://www.w3.org/2000/svg" xmlns:xlink="http://www.w3.org/1999/xlink" viewBox="0 0 29.266 23.8726">
 <g>
  <rect height="23.8726" opacity="0" width="29.266" x="0" y="0"/>
  <path d="M7.30401 8.99355L3.34464 18.8867C3.15655 19.34 2.83644 19.6601 2.19425 19.6601L0.897378 19.6601C0.0557798 19.6601-0.170195 18.9898 0.120624 18.4215L5.00773 8.76523C5.18683 8.42656 5.43585 8.25273 5.80128 8.25273L6.8548 8.25273C7.2669 8.25273 7.45733 8.59648 7.30401 8.99355ZM23.8952 8.76347L28.7841 18.4197C29.0749 18.9881 28.8552 19.6584 28.0056 19.6584L26.7184 19.6584C26.0763 19.6584 25.7481 19.3383 25.5681 18.885L21.6087 8.99179C21.4474 8.59472 21.6378 8.25098 22.0499 8.25098L23.1034 8.25098C23.4671 8.25098 23.7259 8.4248 23.8952 8.76347Z" fill="white" fill-opacity="0.85"/>
  <path d="M10.6289 11.0377C10.5184 11.1789 10.3453 11.2676 10.1464 11.2676L9.596 11.2676C9.25069 11.2676 8.98526 11.0004 8.98526 10.6568L8.98526 9.39596ZM16.9659 2.72714C17.6112 2.79902 18.1349 3.11855 18.4144 3.90917L18.9009 5.27831L19.3599 5.78163C19.8286 6.30097 19.9308 6.77851 19.9308 7.57109L19.9308 10.6568C19.9308 11.0004 19.6636 11.2676 19.3183 11.2676L18.7759 11.2676C18.4226 11.2676 18.1571 11.0004 18.1571 10.6568L18.1571 10.0139L15.2058 10.0139L10.1371 4.94723L10.4999 3.90917C10.7812 3.11855 11.303 2.79902 11.9501 2.72714C12.2784 2.68632 13.2562 2.65527 14.4571 2.65527C15.6661 2.65527 16.6439 2.68632 16.9659 2.72714ZM17.7011 7.00644L17.7011 7.71054C17.7011 8.00429 17.9247 8.21991 18.2087 8.21991C18.5042 8.21991 18.7181 8.01405 18.7181 7.71054L18.7181 7.00644C18.7181 6.71269 18.5042 6.50683 18.2087 6.50683C17.9247 6.50683 17.7011 6.71445 17.7011 7.00644ZM13.4228 6.72343C13.1858 6.72343 13.0306 6.88046 13.0306 7.13515L13.0306 7.58359C13.0306 7.83827 13.1858 8.00331 13.4228 8.00331L15.4702 8.00331C15.7151 8.00331 15.8722 7.84003 15.8722 7.58359L15.8722 7.13515C15.8722 6.88046 15.7169 6.72343 15.4702 6.72343ZM11.9921 3.64277C11.6976 3.68534 11.5095 3.79101 11.3968 4.11054L11.1188 4.94531C11.0435 5.16445 11.1409 5.33573 11.3751 5.33573L17.5312 5.33573C17.7733 5.33573 17.869 5.16445 17.7954 4.94531L17.5095 4.11054C17.3985 3.79101 17.2167 3.68534 16.9222 3.64277C16.6175 3.60546 15.7517 3.57167 14.4571 3.57167C13.1626 3.57167 12.2968 3.60546 11.9921 3.64277Z" fill="white" fill-opacity="0.85"/>
  <path d="M18.43 18.8297L17.7064 19.0432L19.7466 22.8732C19.9214 23.1998 19.5825 23.4535 19.3163 23.2183L15.8601 20.1039L13.7855 23.5182C13.6532 23.7258 13.3782 23.7035 13.3685 23.4037L13.3392 20.6889L10.1526 21.4062C9.78448 21.4994 9.68253 21.0974 9.94151 20.9236L12.464 19.2207L10.6108 19.0875C10.2888 19.068 10.2382 18.7176 10.539 18.6031L12.1968 17.9887L9.40987 16.3098C9.13213 16.1447 9.22432 15.7766 9.57842 15.8271L12.5226 16.2418L11.9009 15.4318C11.7056 15.1779 11.9167 14.9545 12.1839 15.0734L13.3081 15.5787L12.431 12.9853C12.4108 12.9241 12.4062 12.8685 12.4138 12.8205Z" fill="white" fill-opacity="0.85"/>
  <path d="M23.7435 22.4422C24.0452 22.7439 24.5493 22.7537 24.8413 22.4422C25.1431 22.1387 25.1448 21.6461 24.8413 21.3426L5.171 1.68026C4.86748 1.37851 4.36338 1.3705 4.05987 1.68026C3.75987 1.97401 3.75987 2.47987 4.05987 2.77987Z" fill="white" fill-opacity="0.85"/>
 </g>
</svg>
