<?xml version="1.0" encoding="UTF-8"?>
<!--Generator: Apple Native CoreSVG 341-->
<!DOCTYPE svg
PUBLIC "-//W3C//DTD SVG 1.1//EN"
       "http://www.w3.org/Graphics/SVG/1.1/DTD/svg11.dtd">
<svg version="1.1" xmlns="http://www.w3.org/2000/svg" xmlns:xlink="http://www.w3.org/1999/xlink" viewBox="0 0 20.6198 21.9523">
 <g>
  <rect height="21.9523" opacity="0" width="20.6198" x="0" y="0"/>
  <path d="M3.7443 11.125C3.7443 11.6141 4.12769 11.9894 4.62828 11.9894L5.38101 11.9894C5.87008 11.9894 6.24371 11.6141 6.24371 11.125L6.24371 10.2545L16.4847 10.2545L16.4847 11.125C16.4847 11.6141 16.8584 11.9894 17.3492 11.9894L18.1002 11.9894C18.6007 11.9894 18.9761 11.6141 18.9761 11.125L18.9761 6.84081C18.9761 5.73945 18.8562 5.06582 18.1824 4.3459L17.5378 3.65078L16.8738 1.76308C16.4808 0.654882 15.7468 0.209374 14.8451 0.101953C14.3925 0.0380856 13.0375 0.00703096 11.3642 0.00703096C9.69097 0.00703096 8.32789 0.0380856 7.88511 0.101953C6.9816 0.209374 6.23961 0.654882 5.85641 1.76308L5.19059 3.65078L4.54605 4.3459C3.87223 5.06582 3.7443 5.73945 3.7443 6.84081ZM7.09683 3.72773C6.77652 3.72773 6.65679 3.50039 6.75621 3.20839L7.1398 2.04863C7.2898 1.61718 7.53296 1.47949 7.9437 1.41562C8.36206 1.36679 9.55914 1.32499 11.3642 1.32499C13.1693 1.32499 14.3584 1.36679 14.775 1.41562C15.1875 1.47949 15.4341 1.61718 15.5806 2.04863L15.9705 3.20839C16.0699 3.50039 15.9519 3.72773 15.6298 3.72773ZM6.22574 7.72597C5.81831 7.72597 5.52183 7.44277 5.52183 7.03535L5.52183 6.05156C5.52183 5.66015 5.81831 5.37343 6.22574 5.37343C6.62691 5.37343 6.91011 5.65214 6.91011 6.05156L6.91011 7.03535C6.91011 7.44277 6.62691 7.72597 6.22574 7.72597ZM9.92496 7.42324C9.60191 7.42324 9.40308 7.20664 9.40308 6.85957L9.40308 6.2371C9.40308 5.89804 9.60191 5.68945 9.92496 5.68945L12.7724 5.68945C13.0955 5.68945 13.3121 5.89804 13.3121 6.2371L13.3121 6.85957C13.3121 7.20664 13.0955 7.42324 12.7724 7.42324ZM16.5613 7.72597C16.1681 7.72597 15.8734 7.44101 15.8734 7.03535L15.8734 6.05156C15.8734 5.66816 16.1681 5.37343 16.5613 5.37343C16.967 5.37343 17.2554 5.65039 17.2554 6.05156L17.2554 7.03535C17.2554 7.44628 16.967 7.72597 16.5613 7.72597ZM8.75133 13.7773L8.00387 13.2172C7.72867 13.0183 7.41441 12.9207 7.07887 12.9207L5.30524 12.9207C4.9111 12.9207 4.76286 13.393 5.07888 13.6193L6.58356 14.7236C7.05583 15.0654 6.99723 15.5199 6.44684 15.7641L1.55466 17.8812C-0.332647 18.689-0.508428 19.9265 1.06462 21.0894L1.81208 21.6398C2.08727 21.8467 2.40153 21.9443 2.74509 21.9443L4.5107 21.9443C4.91285 21.9443 5.05133 21.4738 4.74508 21.2457L3.24039 20.1351C2.76813 19.7996 2.82672 19.3389 3.3691 19.101L8.2693 16.9758C10.1486 16.1697 10.3244 14.9402 8.75133 13.7773ZM19.1939 13.7933L18.4464 13.2332C18.1712 13.0264 17.857 12.9367 17.5214 12.9367L15.7478 12.9367C15.3537 12.9367 15.2054 13.401 15.5214 13.6353L17.0261 14.7396C17.4904 15.0734 17.4318 15.5359 16.8894 15.7721L11.9892 17.8973C10.1099 18.7051 9.93414 19.9346 11.5072 21.0974L12.2546 21.6478C12.5298 21.8547 12.8441 21.9523 13.1796 21.9523L14.9533 21.9523C15.3474 21.9523 15.4939 21.4818 15.1796 21.2537L13.675 20.1512C13.2107 19.8076 13.2693 19.3549 13.8117 19.109L18.7119 16.9918C20.5912 16.1857 20.7669 14.9482 19.1939 13.7933Z" fill="white" fill-opacity="0.85"/>
 </g>
</svg>
