<?xml version="1.0" encoding="UTF-8"?>
<!--Generator: Apple Native CoreSVG 341-->
<!DOCTYPE svg
PUBLIC "-//W3C//DTD SVG 1.1//EN"
       "http://www.w3.org/Graphics/SVG/1.1/DTD/svg11.dtd">
<svg version="1.1" xmlns="http://www.w3.org/2000/svg" xmlns:xlink="http://www.w3.org/1999/xlink" viewBox="0 0 18.1078 16.2203">
 <g>
  <rect height="16.2203" opacity="0" width="18.1078" x="0" y="0"/>
  <path d="M12.8641 13.1014C12.8641 14.7806 11.5346 16.1084 9.85077 16.1084C8.17148 16.1084 6.84199 14.7806 6.84199 13.1014C6.84199 11.4238 8.17148 10.0961 9.85077 10.0961C11.5346 10.0961 12.8641 11.4238 12.8641 13.1014ZM13.3672 3.69179L14.9058 4.21289C16.8193 4.85175 17.7465 6.02324 17.7465 7.9082L17.7465 10.6361C17.7465 12.9773 16.7103 14.0738 14.4978 14.0738L13.9422 14.0738C14.0238 13.7553 14.0584 13.4332 14.0584 13.1014C14.0584 10.7557 12.201 8.90175 9.85077 8.90175C7.50507 8.90175 5.63965 10.7557 5.63965 13.1014C5.63965 13.4332 5.68047 13.7553 5.74785 14.0738L0 14.0738L0 0.166796C0.938085 0.042578 2.02968 0 3.37851 0L4.89277 0C8.61112 0 11.3998 2.00859 13.3672 3.69179ZM3.91074 6.49218C3.58418 6.49218 3.33301 6.75488 3.33301 7.07792C3.33301 7.40097 3.58418 7.66367 3.91074 7.66367L10.4275 7.66367C10.7523 7.66367 11.0035 7.40097 11.0035 7.07792C11.0035 6.75488 10.7523 6.49218 10.4275 6.49218ZM3.8957 2.83574C3.36406 2.83574 3.15996 3.37714 3.50254 3.73925L5.175 5.62753C5.40488 5.88671 5.70312 5.87871 5.94101 5.62753L7.61523 3.73925C7.97558 3.34609 7.74394 2.83574 7.23007 2.83574Z" fill="white" fill-opacity="0.85"/>
 </g>
</svg>
