<?xml version="1.0" encoding="UTF-8"?>
<!--Generator: Apple Native CoreSVG 341-->
<!DOCTYPE svg
PUBLIC "-//W3C//DTD SVG 1.1//EN"
       "http://www.w3.org/Graphics/SVG/1.1/DTD/svg11.dtd">
<svg version="1.1" xmlns="http://www.w3.org/2000/svg" xmlns:xlink="http://www.w3.org/1999/xlink" viewBox="0 0 35.7275 27.2976">
 <g>
  <rect height="27.2976" opacity="0" width="35.7275" x="0" y="0"/>
  <path d="M30.9789 9.23047L32.5193 9.75156C34.4328 10.3904 35.3662 11.5619 35.3662 13.4469L35.3662 16.1748C35.3662 18.516 34.3221 19.6125 32.1113 19.6125L31.2135 19.6125C30.6566 20.8796 29.3974 21.743 27.8957 21.743C26.3953 21.743 25.1364 20.8796 24.5796 19.6125L10.7787 19.6125C10.2223 20.8796 8.96503 21.743 7.4705 21.743C5.96877 21.743 4.70959 20.8796 4.15266 19.6125L3.25488 19.6125C1.06015 19.6125 0 18.5355 0 16.2369L0 14.9887C0 12.5908 1.69414 10.8373 4.49062 10.4965L8.82558 9.96914L12.7912 7.47813C13.8826 6.79157 14.828 6.33106 15.9041 6.03304L15.9653 7.93766C15.2392 8.18893 14.5596 8.54432 13.7699 9.03749L10.1117 11.3437C9.68222 11.6002 9.25194 11.7475 8.65722 11.8256L4.72109 12.3076C2.85741 12.5287 1.83065 13.575 1.83065 14.9887L1.83065 16.1748C1.83065 17.2676 2.28105 17.7818 3.25488 17.7818L3.85582 17.7818C4.02003 15.9079 5.54612 14.4902 7.4705 14.4902C9.38566 14.4902 10.9112 15.9079 11.0754 17.7818L24.2828 17.7818C24.447 15.9079 25.973 14.4902 27.8957 14.4902C29.8201 14.4902 31.3462 15.9079 31.5104 17.7818L32.1113 17.7818C33.0851 17.7818 33.5355 17.2676 33.5355 16.1748L33.5355 13.4891C33.5355 12.5041 33.032 11.9262 31.9732 11.5842L30.9433 11.2539C30.331 11.0596 30.0623 10.9398 29.5857 10.5236C27.0539 8.30956 25.0437 7.36933 22.5062 7.36933L20.992 7.36933C20.9213 7.36933 20.8515 7.36944 20.7883 7.37051L20.8439 5.53967C20.8901 5.53874 20.9408 5.53867 20.992 5.53867L22.5062 5.53867C26.2246 5.53867 29.0115 7.52324 30.9789 9.23047ZM5.56522 18.1215C5.56522 19.1803 6.40194 20.0152 7.4705 20.0152C8.52929 20.0152 9.36425 19.1803 9.36425 18.1215C9.36425 17.0529 8.52929 16.2162 7.4705 16.2162C6.40194 16.2162 5.56522 17.0529 5.56522 18.1215ZM25.9939 18.1215C25.9939 19.1803 26.8369 20.0152 27.8957 20.0152C28.9562 20.0152 29.801 19.1803 29.801 18.1215C29.801 17.0529 28.9562 16.2162 27.8957 16.2162C26.8369 16.2162 25.9939 17.0529 25.9939 18.1215Z" fill="white" fill-opacity="0.85"/>
  <path d="M18.3728 14.535C19.1611 14.535 19.7892 13.9254 19.7892 13.1787C19.7892 12.4258 19.1691 11.8322 18.3728 11.8322C17.565 11.8322 16.9396 12.4258 16.9396 13.1787C16.9396 13.9254 17.573 14.535 18.3728 14.535ZM18.3728 10.09C18.9551 10.09 19.3433 9.70254 19.3681 9.09903L19.575 2.5664C19.5998 1.84296 19.1148 1.36601 18.3693 1.36601C17.6123 1.36601 17.1256 1.84296 17.1521 2.5664L17.3625 9.1043C17.3873 9.70254 17.7871 10.09 18.3728 10.09Z" fill="white" fill-opacity="0.85"/>
 </g>
</svg>
