<?xml version="1.0" encoding="UTF-8"?>
<!--Generator: Apple Native CoreSVG 341-->
<!DOCTYPE svg
PUBLIC "-//W3C//DTD SVG 1.1//EN"
       "http://www.w3.org/Graphics/SVG/1.1/DTD/svg11.dtd">
<svg version="1.1" xmlns="http://www.w3.org/2000/svg" xmlns:xlink="http://www.w3.org/1999/xlink" viewBox="0 0 29.2761 14.9726">
 <g>
  <rect height="14.9726" opacity="0" width="29.2761" x="0" y="0"/>
  <path d="M0.906422 14.9726L2.19529 14.9726C2.83747 14.9726 3.1656 14.6525 3.34567 14.1992L8.77849 0.762104C8.93981 0.373044 8.74138 0.021289 8.32927 0.021289L7.67693 0.021289C7.30349 0.021289 7.04646 0.203124 6.87537 0.540037L0.129668 13.734C-0.178924 14.3023 0.0568161 14.9726 0.906422 14.9726ZM26.7195 14.9709L28.0146 14.9709C28.858 14.9709 29.0919 14.3006 28.7851 13.7322L22.0474 0.538279C21.8683 0.201367 21.6095 0.0177735 21.2378 0.0177735L20.5855 0.0177735C20.1734 0.0177735 19.983 0.371286 20.1363 0.760346L25.5691 14.1975C25.7492 14.6508 26.0773 14.9709 26.7195 14.9709Z" fill="white" fill-opacity="0.85"/>
  <path d="M8.14899 11.6242C8.14899 12.0139 8.457 12.3219 8.84665 12.3219L9.47419 12.3219C9.87184 12.3219 10.1718 12.0139 10.1718 11.6242L10.1718 10.8898L18.6238 10.8898L18.6238 11.6242C18.6238 12.0139 18.9336 12.3219 19.3312 12.3219L19.949 12.3219C20.3466 12.3219 20.6546 12.0139 20.6546 11.6242L20.6546 8.09941C20.6546 7.19335 20.5347 6.65019 19.9959 6.05722L19.4712 5.47851L18.9191 3.91953C18.6033 3.01543 18.0025 2.65156 17.2605 2.56016C16.8923 2.51758 15.7806 2.48652 14.3978 2.48652C13.023 2.48652 11.9113 2.51758 11.5369 2.56016C10.7931 2.65156 10.2021 3.01543 9.87653 3.91953L9.33415 5.47851L8.80153 6.05722C8.26267 6.65019 8.14899 7.19335 8.14899 8.09941ZM10.8873 5.54296C10.6185 5.54296 10.506 5.34863 10.5929 5.10293L10.9134 4.15546C11.0377 3.78359 11.2506 3.6664 11.5912 3.62207C11.9349 3.575 12.925 3.54121 14.3978 3.54121C15.8787 3.54121 16.8607 3.575 17.2045 3.62207C17.5451 3.6664 17.7615 3.78359 17.8839 4.15546L18.2107 5.10293C18.2976 5.34863 18.1789 5.54296 17.9084 5.54296ZM10.1716 8.84491C9.83356 8.84491 9.58512 8.59648 9.58512 8.25839L9.58512 7.45136C9.58512 7.12128 9.83356 6.8746 10.1716 6.8746C10.5097 6.8746 10.7582 7.11328 10.7582 7.45136L10.7582 8.25839C10.7582 8.59648 10.5097 8.84491 10.1716 8.84491ZM13.2179 8.58925C12.9464 8.58925 12.7681 8.40742 12.7681 8.11816L12.7681 7.5996C12.7681 7.3121 12.9464 7.13203 13.2179 7.13203L15.5582 7.13203C15.8377 7.13203 16.0177 7.3121 16.0177 7.5996L16.0177 8.11816C16.0177 8.40917 15.8377 8.58925 15.5582 8.58925ZM18.6711 8.84491C18.3507 8.84491 18.0925 8.58847 18.0925 8.25839L18.0925 7.45136C18.0925 7.12304 18.3507 6.8746 18.6711 6.8746C19.0109 6.8746 19.2576 7.11152 19.2576 7.45136L19.2576 8.25839C19.2576 8.59824 19.0109 8.84491 18.6711 8.84491Z" fill="white" fill-opacity="0.85"/>
 </g>
</svg>
