<?xml version="1.0" encoding="UTF-8"?>
<!--Generator: Apple Native CoreSVG 341-->
<!DOCTYPE svg
PUBLIC "-//W3C//DTD SVG 1.1//EN"
       "http://www.w3.org/Graphics/SVG/1.1/DTD/svg11.dtd">
<svg version="1.1" xmlns="http://www.w3.org/2000/svg" xmlns:xlink="http://www.w3.org/1999/xlink" viewBox="0 0 23.2972 16.2203">
 <g>
  <rect height="16.2203" opacity="0" width="23.2972" x="0" y="0"/>
  <path d="M9.85077 16.1084C11.5346 16.1084 12.8641 14.7806 12.8641 13.1014C12.8641 11.4238 11.5346 10.0961 9.85077 10.0961C8.17148 10.0961 6.84199 11.4238 6.84199 13.1014C6.84199 14.7806 8.17148 16.1084 9.85077 16.1084ZM0 0.166796L0 14.0738L5.74785 14.0738C5.68047 13.7553 5.63965 13.4332 5.63965 13.1014C5.63965 10.7557 7.50507 8.90175 9.85077 8.90175C12.201 8.90175 14.0584 10.7557 14.0584 13.1014C14.0584 13.4332 14.0238 13.7553 13.9422 14.0738L14.4978 14.0738C16.7103 14.0738 17.7465 12.9773 17.7465 10.6361L17.7465 7.9082C17.7465 6.02324 16.8193 4.85175 14.9058 4.21289L13.3672 3.69179C11.3998 2.00859 8.61112 0 4.89277 0L3.37851 0C2.02968 0 0.938085 0.042578 0 0.166796ZM16.3285 11.9105L16.1104 13.2568L22.2779 13.2568C22.6388 13.2568 22.9359 12.9455 22.9359 12.5828C22.9359 12.2139 22.6388 11.9105 22.2779 11.9105ZM19.801 10.7928L21.5242 10.7928C21.6174 10.7928 21.708 10.7537 21.8074 10.7031C22.2529 10.3295 22.5564 9.79433 22.5564 9.17929C22.5564 8.15429 21.7062 7.29082 20.6635 7.29082C19.6189 7.29082 18.7642 8.15429 18.7642 9.17929C18.7642 9.79433 19.0722 10.3295 19.5178 10.7031C19.6109 10.7537 19.6998 10.7928 19.801 10.7928ZM20.6652 14.5949C21.0467 14.5949 21.3342 14.2959 21.3342 13.9162L21.3342 10.6629L19.9803 10.6629L19.9803 13.9162C19.9803 14.2959 20.2793 14.5949 20.6652 14.5949Z" fill="white" fill-opacity="0.85"/>
 </g>
</svg>
