<?xml version="1.0" encoding="UTF-8"?>
<!--Generator: Apple Native CoreSVG 341-->
<!DOCTYPE svg
PUBLIC "-//W3C//DTD SVG 1.1//EN"
       "http://www.w3.org/Graphics/SVG/1.1/DTD/svg11.dtd">
<svg version="1.1" xmlns="http://www.w3.org/2000/svg" xmlns:xlink="http://www.w3.org/1999/xlink" viewBox="0 0 26.1319 26.446">
 <g>
  <rect height="26.446" opacity="0" width="26.1319" x="0" y="0"/>
  <path d="M4.56498 18.4183L4.56498 22.4798C4.56498 22.8751 4.26987 23.1703 3.88257 23.1703L3.2603 23.1703C2.86499 23.1703 2.56988 22.8751 2.56988 22.4798L2.56988 18.4183C2.56988 18.023 2.86499 17.7279 3.2603 17.7279L3.88257 17.7279C4.26987 17.7279 4.56498 18.023 4.56498 18.4183ZM23.199 18.4183L23.199 20.2312L21.2221 18.2553C21.2905 17.9444 21.5557 17.7279 21.8943 17.7279L22.5085 17.7279C22.9038 17.7279 23.199 18.023 23.199 18.4183ZM4.56498 11.1476L4.56498 15.1871C4.56498 15.5824 4.26987 15.8775 3.88257 15.8775L3.2603 15.8775C2.86499 15.8775 2.56988 15.5824 2.56988 15.1871L2.56988 11.1476C2.56988 10.7603 2.86499 10.4652 3.2603 10.4652L3.88257 10.4652C4.26987 10.4652 4.56498 10.7603 4.56498 11.1476ZM4.56498 7.35652L4.56498 7.91909C4.56498 8.3144 4.26987 8.60951 3.88257 8.60951L3.2603 8.60951C2.86499 8.60951 2.56988 8.3144 2.56988 7.91909L2.56988 5.36335ZM23.199 3.87162L23.199 7.08156C22.7087 6.58255 22.0688 6.10416 21.2925 5.65815C21.2626 5.64096 21.2328 5.62397 21.2038 5.61001L21.2038 3.87162C21.2038 3.47631 21.499 3.1812 21.8943 3.1812L22.5085 3.1812C22.9038 3.1812 23.199 3.47631 23.199 3.87162Z" fill="white" fill-opacity="0.85"/>
  <path d="M12.4769 15.2608C12.4269 15.3054 12.3793 15.3576 12.3329 15.4152L11.9308 15.9185C11.2269 16.8097 11.7169 17.5056 13.7687 18.6935C15.3181 19.5902 16.1906 19.8511 16.7004 19.4802L18.2894 21.0677L18.1921 21.2365C17.1626 23.015 15.3699 22.9357 12.3226 21.187C9.29486 19.4402 8.34056 17.9218 9.37005 16.1451L10.8302 13.6157ZM21.2925 5.65815C24.0714 7.25482 25.1031 9.26635 24.024 11.1193L23.0564 12.7978L23.39 12.989C23.8052 13.2294 23.9154 13.7095 23.6892 14.1263L23.5495 14.3833C23.3251 14.7921 22.8238 14.9279 22.4148 14.6892L22.0792 14.4931L20.39 17.4235L12.9342 9.9711L13.2686 9.39186L12.9286 9.19759C12.5294 8.96693 12.4033 8.46908 12.6357 8.06029L12.7851 7.81127C13.0175 7.39447 13.5029 7.26674 13.9118 7.50541L14.2453 7.70001L15.2117 6.02611C16.2792 4.17494 18.5314 4.07123 21.2925 5.65815ZM15.9531 8.88685L15.4036 10.0931C15.1658 10.6177 15.2474 10.9568 15.756 11.2372C16.0324 11.415 16.9353 11.8492 17.5238 12.19C18.0882 12.521 18.9628 13.0999 19.2392 13.2634C19.7202 13.5421 20.0628 13.48 20.4144 12.9785L21.1804 11.8929C21.7982 10.9999 21.3697 10.2757 19.3115 9.09213C17.2693 7.90853 16.4191 7.88646 15.9531 8.88685Z" fill="white" fill-opacity="0.85"/>
  <path d="M23.5415 25.1035C23.9874 25.5494 24.7415 25.5591 25.1777 25.1035C25.6138 24.6496 25.6333 23.923 25.1777 23.4673L2.68295 0.992131C2.22905 0.536466 1.48471 0.536466 1.03705 0.992131C0.592909 1.42826 0.592909 2.18237 1.03705 2.62827Z" fill="white" fill-opacity="0.85"/>
 </g>
</svg>
