<?xml version="1.0" encoding="UTF-8"?>
<!--Generator: Apple Native CoreSVG 341-->
<!DOCTYPE svg
PUBLIC "-//W3C//DTD SVG 1.1//EN"
       "http://www.w3.org/Graphics/SVG/1.1/DTD/svg11.dtd">
<svg version="1.1" xmlns="http://www.w3.org/2000/svg" xmlns:xlink="http://www.w3.org/1999/xlink" viewBox="0 0 25.4353 25.4594">
 <g>
  <rect height="25.4594" opacity="0" width="25.4353" x="0" y="0"/>
  <path d="M2.45631 22.965C3.95396 24.4725 5.86177 25.4021 7.93033 25.4268C8.48462 25.4338 8.86157 25.0676 8.86157 24.5541C8.86157 24.0955 8.49615 23.7887 7.88677 23.7408C6.32212 23.6361 4.80884 22.9932 3.6145 21.8086C2.42993 20.6143 1.77642 19.109 1.68228 17.5346C1.62817 16.8674 1.3356 16.5775 0.819192 16.5775C0.371539 16.5775-0.0364677 16.8967 0.00259483 17.4865C0.134821 19.5533 0.942633 21.4691 2.45631 22.965ZM22.6176 22.965C24.1313 21.4691 24.9391 19.5533 25.0713 17.4865C25.1104 16.8967 24.7041 16.5775 24.253 16.5775C23.7463 16.5775 23.444 16.8674 23.3917 17.5346C23.2975 19.109 22.652 20.6143 21.4594 21.8086C20.2651 22.9932 18.7598 23.6361 17.1872 23.7408C16.584 23.7887 16.2204 24.0955 16.2204 24.5541C16.2204 25.0676 16.5893 25.4338 17.1534 25.4268C19.2122 25.4021 21.1182 24.4725 22.6176 22.965Z" fill="white" fill-opacity="0.85"/>
  <path d="M4.94497 20.4701C5.9315 21.4566 7.2565 21.9582 8.15611 21.9881C8.67485 22.0057 9.04184 21.6652 9.04184 21.1768C9.04184 20.7422 8.73677 20.4174 8.08911 20.3172C7.3688 20.2303 6.6938 19.8945 6.10317 19.3119C5.53657 18.7355 5.20708 18.0463 5.0979 17.2619C4.9977 16.6588 4.75474 16.3973 4.24634 16.3973C3.74986 16.3973 3.36939 16.7803 3.44478 17.3586C3.57876 18.5518 4.09009 19.6135 4.94497 20.4701ZM20.1272 20.4701C20.9918 19.6135 21.4934 18.5518 21.6291 17.3586C21.7045 16.7803 21.3241 16.3973 20.8276 16.3973C20.3192 16.3973 20.086 16.6588 19.9823 17.2619C19.8668 18.0463 19.5374 18.7355 18.9708 19.3119C18.3801 19.8945 17.7051 20.2303 16.9866 20.3172C16.3354 20.4174 16.0401 20.7422 16.0401 21.1768C16.0321 21.6652 16.4053 22.0057 16.9178 21.9881C17.8174 21.9582 19.1407 21.4566 20.1272 20.4701Z" fill="white" fill-opacity="0.85"/>
  <path d="M12.5401 19.2109C16.3006 19.2109 17.9944 18.3191 17.9944 16.124L17.9944 3.60644C17.9944 1.32012 15.9629 0 12.5401 0C9.12075 0 7.08755 1.32187 7.08755 3.60644L7.08755 16.124C7.08755 18.3191 8.77505 19.2109 12.5401 19.2109ZM12.5401 17.5539C9.82524 17.5539 8.75434 17.1295 8.75434 16.0699L8.75434 3.61875C8.75434 2.37109 10.0625 1.6748 12.5401 1.6748C15.0211 1.6748 16.3196 2.37109 16.3196 3.61875L16.3196 16.0699C16.3196 17.1295 15.2567 17.5539 12.5401 17.5539ZM12.5321 8.1625C13.2432 8.1625 14.2795 8.22285 14.6155 8.22285C15.2014 8.22285 15.4731 7.97871 15.5219 7.36875L15.6409 6.00507C15.7385 4.88906 14.9805 4.46289 12.5321 4.46289C10.1014 4.46289 9.34341 4.88906 9.44106 6.00507L9.56001 7.36875C9.60884 7.97871 9.88052 8.22285 10.4665 8.22285C10.7944 8.22285 11.8708 8.1625 12.5321 8.1625ZM12.5321 15.8918C14.9999 15.8918 15.7918 15.5189 15.6116 14.3656L15.5157 13.7086C15.3727 12.7826 14.6413 12.4914 12.5321 12.4914C10.4389 12.4914 9.70923 12.7826 9.56626 13.7086L9.46235 14.3656C9.29009 15.5189 10.0821 15.8918 12.5321 15.8918ZM7.88775 7.76914L7.88775 5.67285L6.66939 5.67285C6.15825 5.67285 5.78189 6.05351 5.78189 6.56445L5.78189 6.8793C5.78189 7.38047 6.15825 7.76914 6.66939 7.76914ZM17.1942 7.7832L18.4125 7.7832C18.9237 7.7832 19.3 7.39453 19.3 6.89336L19.3 6.58027C19.3 6.06758 18.9237 5.68691 18.4125 5.68691L17.1942 5.68691Z" fill="white" fill-opacity="0.85"/>
 </g>
</svg>
