<?xml version="1.0" encoding="UTF-8"?>
<!--Generator: Apple Native CoreSVG 341-->
<!DOCTYPE svg
PUBLIC "-//W3C//DTD SVG 1.1//EN"
       "http://www.w3.org/Graphics/SVG/1.1/DTD/svg11.dtd">
<svg version="1.1" xmlns="http://www.w3.org/2000/svg" xmlns:xlink="http://www.w3.org/1999/xlink" viewBox="0 0 19.2682 16.2203">
 <g>
  <rect height="16.2203" opacity="0" width="19.2682" x="0" y="0"/>
  <path d="M10.3035 16.2043C12.3348 16.2043 13.9267 14.6123 13.9267 12.5828C13.9267 10.5435 12.3348 8.95156 10.3035 8.95156C8.26602 8.95156 6.67403 10.5435 6.67403 12.5828C6.67403 14.6123 8.26602 16.2043 10.3035 16.2043ZM10.3035 14.4766C9.23671 14.4766 8.40175 13.6416 8.40175 12.5828C8.40175 11.5142 9.23671 10.6775 10.3035 10.6775C11.3641 10.6775 12.2008 11.5142 12.2008 12.5828C12.2008 13.6416 11.3641 14.4766 10.3035 14.4766ZM11.9311 3.53673L13.2687 4.61641L15.8137 2.02968C16.0443 1.783 16.309 1.68456 16.6619 1.68456L18.0559 1.68456C18.5789 1.68456 18.9068 1.34511 18.9068 0.854883C18.9068 0.366409 18.5771 0.0287157 18.0559 0.0287157L16.7885 0.0287157C15.8389 0.0287157 15.1478 0.277153 14.5561 0.883206ZM0 12.2432L0 14.0738L7.87559 14.0738L7.87559 12.2432ZM0 0.166796L0 2.01425C0.899999 1.87499 1.9748 1.83065 3.3998 1.83065L4.91406 1.83065C7.45156 1.83065 9.46171 2.77089 11.9935 4.98495C12.4603 5.40116 12.7389 5.52089 13.3512 5.71522L14.373 6.0455C15.4398 6.38749 15.9353 6.96542 15.9353 7.95038L15.9353 10.6361C15.9353 11.7289 15.493 12.2432 14.5191 12.2432L12.9959 12.2432L12.9959 14.0738L14.5191 14.0738C16.7299 14.0738 17.766 12.9773 17.766 10.6361L17.766 7.9082C17.766 6.02324 16.8406 4.85175 14.9271 4.21289L13.3867 3.69179C11.4193 2.00859 8.63241 0 4.91406 0L3.3998 0C2.04297 0 0.94785 0.042578 0 0.166796Z" fill="white" fill-opacity="0.85"/>
 </g>
</svg>
