<?xml version="1.0" encoding="UTF-8"?>
<!--Generator: Apple Native CoreSVG 341-->
<!DOCTYPE svg
PUBLIC "-//W3C//DTD SVG 1.1//EN"
       "http://www.w3.org/Graphics/SVG/1.1/DTD/svg11.dtd">
<svg version="1.1" xmlns="http://www.w3.org/2000/svg" xmlns:xlink="http://www.w3.org/1999/xlink" viewBox="0 0 23.9045 18.7238">
 <g>
  <rect height="18.7238" opacity="0" width="23.9045" x="0" y="0"/>
  <path d="M4.84198 6.1584C4.75331 6.5459 4.92089 6.72832 5.34296 6.71054C6.78944 6.61894 8.60097 6.53281 11.7707 6.53281C14.9502 6.53281 16.7617 6.61894 18.2064 6.71054C18.6223 6.72832 18.7898 6.5459 18.6994 6.1584C18.4861 5.21464 18.0721 3.97069 17.7877 3.47577C17.5215 2.99237 17.2066 2.78827 16.6426 2.71113C15.9816 2.61874 14.3871 2.55741 11.7707 2.55741C9.1623 2.55741 7.56952 2.61874 6.90057 2.71113C6.33651 2.78827 6.02343 2.99237 5.7537 3.47577C5.47109 3.97069 5.06679 5.21464 4.84198 6.1584ZM4.70859 13.0057C5.63417 13.0057 6.34237 12.2957 6.34237 11.3719C6.34237 10.44 5.63417 9.73984 4.70859 9.73984C3.78476 9.73984 3.07656 10.44 3.07656 11.3719C3.07656 12.2957 3.78476 13.0057 4.70859 13.0057ZM9.13984 12.5939L14.4096 12.5939C15.1017 12.5939 15.5836 12.1103 15.5836 11.4119C15.5836 10.7215 15.1017 10.2379 14.4096 10.2379L9.13984 10.2379C8.4414 10.2379 7.95957 10.7215 7.95957 11.4119C7.95957 12.1103 8.4414 12.5939 9.13984 12.5939ZM18.8328 13.0057C19.7646 13.0057 20.4666 12.2957 20.4666 11.3719C20.4666 10.44 19.7646 9.73984 18.8328 9.73984C17.909 9.73984 17.2088 10.44 17.2088 11.3719C17.2088 12.2957 17.909 13.0057 18.8328 13.0057ZM11.7707 15.8252C15.1064 15.8252 19.4822 15.6574 21.3332 15.4443C22.7457 15.2855 23.5431 14.4846 23.5431 13.1484L23.5431 11.4297C23.5431 9.71249 23.2375 8.75234 22.3144 7.57695L21.4492 6.4914C21.0941 4.73359 20.4416 2.88964 20.106 2.16523C19.5594 1.01777 18.5148 0.32832 17.1668 0.147265C16.4668 0.0523436 14.3685 0 11.7707 0C9.18261 0 7.08437 0.0603515 6.38437 0.147265C5.03457 0.312304 3.98203 1.01601 3.44512 2.16523C3.10332 2.88964 2.45703 4.73359 2.09219 6.4914L1.23496 7.57695C0.305665 8.75234 0 9.71249 0 11.4297L0 13.1484C0 14.4846 0.805466 15.2855 2.20995 15.4443C4.06894 15.6574 8.43671 15.8252 11.7707 15.8252ZM11.7707 14.2734C8.42402 14.2734 4.25936 14.1119 2.67128 13.9201C1.83944 13.8242 1.53241 13.4016 1.53241 12.6559L1.53241 11.3471C1.53241 10.0268 1.77538 9.39999 2.47382 8.48476L3.52089 7.10761C3.76698 5.79354 4.39296 3.77167 4.80761 2.89257C5.13065 2.20468 5.75116 1.80409 6.60995 1.69667C7.27186 1.61151 9.19101 1.52714 11.7707 1.52714C14.3584 1.52714 16.3033 1.61503 16.9172 1.69667C17.7982 1.80858 18.4072 2.21269 18.7435 2.8996C19.1529 3.76112 19.7789 5.77948 20.0223 7.10761L21.0756 8.48476C21.7678 9.39999 22.0107 10.0268 22.0107 11.3471L22.0107 12.6559C22.0107 13.4016 21.7019 13.8242 20.8719 13.9201C19.29 14.1119 15.1191 14.2734 11.7707 14.2734ZM1.82148 18.523L2.99043 18.523C3.73515 18.523 4.31386 17.9461 4.31386 17.2076L4.31386 14.8148L0.498047 14.123L0.498047 17.2076C0.498047 17.9461 1.07676 18.523 1.82148 18.523ZM20.5527 18.523L21.7297 18.523C22.4744 18.523 23.0451 17.9461 23.0451 17.2076L23.0451 14.123L19.2373 14.8148L19.2373 17.2076C19.2373 17.9461 19.808 18.523 20.5527 18.523Z" fill="white" fill-opacity="0.85"/>
 </g>
</svg>
