<?xml version="1.0" encoding="UTF-8"?>
<!--Generator: Apple Native CoreSVG 341-->
<!DOCTYPE svg
PUBLIC "-//W3C//DTD SVG 1.1//EN"
       "http://www.w3.org/Graphics/SVG/1.1/DTD/svg11.dtd">
<svg version="1.1" xmlns="http://www.w3.org/2000/svg" xmlns:xlink="http://www.w3.org/1999/xlink" viewBox="0 0 24.265 18.9027">
 <g>
  <rect height="18.9027" opacity="0" width="24.265" x="0" y="0"/>
  <path d="M17.6599 7.25117C21.2674 7.25117 23.9037 9.75917 23.9037 13.0635C23.9037 16.3367 21.2933 18.8885 17.9232 18.8885L5.11523 18.8885C2.03242 18.8885 0.175389 16.8889 0.175389 14.3537C0.175389 12.2535 1.49551 10.5725 3.50312 9.97187C3.90117 6.02617 7.14394 3.10781 10.9892 3.10781C13.9467 3.10781 16.3418 4.65019 17.6599 7.25117ZM6.86035 12.2221C6.86035 13.9654 7.55976 15.4851 9.3332 15.4851C10.6797 15.4851 11.5068 14.5238 11.5389 13.4808C11.5469 13.1064 11.318 12.843 10.9728 12.843C10.6455 12.843 10.4752 13.0248 10.3873 13.3957C10.2816 13.8789 10.001 14.4002 9.3332 14.4002C8.37148 14.4002 8.06151 13.3691 8.06151 12.2221C8.06151 11.1469 8.38476 10.076 9.32343 10.076C9.98945 10.076 10.2488 10.591 10.3527 11.076C10.4441 11.4469 10.618 11.6287 10.9418 11.6287C11.2904 11.6287 11.5193 11.3732 11.5113 10.9908C11.4793 9.94608 10.6486 8.99276 9.30214 8.99276C7.62011 8.99276 6.86035 10.4476 6.86035 12.2221ZM11.9525 12.2398C11.9525 14.2193 12.9076 15.4851 14.4041 15.4851C15.8988 15.4851 16.8441 14.2193 16.8441 12.2398C16.8441 10.2523 15.8988 8.99276 14.4041 8.99276C12.9076 8.99276 11.9525 10.2523 11.9525 12.2398ZM15.6482 12.2398C15.6482 13.6125 15.1723 14.4002 14.4041 14.4002C13.6342 14.4002 13.1519 13.6125 13.1519 12.2398C13.1519 10.8672 13.6342 10.076 14.4041 10.076C15.1723 10.076 15.6482 10.8672 15.6482 12.2398ZM2.78613 7.67773C2.78613 8.45702 2.1666 9.07655 1.39883 9.07655C0.619531 9.07655 0 8.45702 0 7.67773C0 6.90996 0.619531 6.29042 1.39883 6.29042C2.1666 6.29042 2.78613 6.90996 2.78613 7.67773ZM22.165 4.11484C22.165 5.21191 21.2978 6.08085 20.2168 6.08085C19.118 6.08085 18.241 5.21191 18.241 4.11484C18.241 3.02578 19.118 2.15683 20.2168 2.15683C21.2978 2.15683 22.165 3.02578 22.165 4.11484ZM17.3215 1.31719C17.3215 2.03613 16.7312 2.62636 16.0123 2.62636C15.2933 2.62636 14.7031 2.03613 14.7031 1.31719C14.7031 0.598242 15.2933 0 16.0123 0C16.7312 0 17.3215 0.598242 17.3215 1.31719Z" fill="white" fill-opacity="0.85"/>
 </g>
</svg>
