<?xml version="1.0" encoding="UTF-8"?>
<!--Generator: Apple Native CoreSVG 341-->
<!DOCTYPE svg
PUBLIC "-//W3C//DTD SVG 1.1//EN"
       "http://www.w3.org/Graphics/SVG/1.1/DTD/svg11.dtd">
<svg version="1.1" xmlns="http://www.w3.org/2000/svg" xmlns:xlink="http://www.w3.org/1999/xlink" viewBox="0 0 24.265 18.9062">
 <g>
  <rect height="18.9062" opacity="0" width="24.265" x="0" y="0"/>
  <path d="M5.11523 18.8885L17.9232 18.8885C21.2933 18.8885 23.9037 16.3349 23.9037 13.0635C23.9037 9.75917 21.2674 7.25117 17.6599 7.25117C16.3418 4.65019 13.9467 3.10781 10.9892 3.10781C7.14394 3.10781 3.90117 6.02617 3.50312 9.97011C1.49551 10.5725 0.175389 12.2535 0.175389 14.3537C0.175389 16.8889 2.03242 18.8885 5.11523 18.8885ZM5.1203 17.0578C3.16932 17.0578 2.0078 16.0142 2.0078 14.4043C2.0078 13.0244 2.89218 12.0467 4.48475 11.625C5.04218 11.4865 5.24374 11.2379 5.29686 10.6398C5.58748 7.32225 7.97479 4.93846 10.9892 4.93846C13.2732 4.93846 15.0766 6.22069 16.1861 8.44921C16.423 8.94354 16.7098 9.10956 17.3195 9.10956C20.3516 9.10956 22.0713 10.8762 22.0713 13.1078C22.0713 15.3357 20.2978 17.0578 17.9902 17.0578ZM1.39883 9.07655C2.1666 9.07655 2.78613 8.45702 2.78613 7.67773C2.78613 6.9082 2.1666 6.29042 1.39883 6.29042C0.619531 6.29042 0 6.9082 0 7.67773C0 8.45702 0.619531 9.07655 1.39883 9.07655ZM16.0123 2.62636C16.7312 2.62636 17.3215 2.03613 17.3215 1.31719C17.3215 0.598242 16.7312 0 16.0123 0C15.2933 0 14.7031 0.598242 14.7031 1.31719C14.7031 2.03613 15.2933 2.62636 16.0123 2.62636ZM20.2168 6.08085C21.2978 6.08085 22.165 5.21015 22.165 4.11484C22.165 3.02578 21.2978 2.15508 20.2168 2.15508C19.118 2.15508 18.241 3.02578 18.241 4.11484C18.241 5.21015 19.118 6.08085 20.2168 6.08085Z" fill="white" fill-opacity="0.85"/>
  <path d="M9.41054 15.3611C10.7039 15.3611 11.4965 14.4361 11.5285 13.4312C11.5365 13.0719 11.3191 12.8199 10.9873 12.8199C10.6715 12.8199 10.5144 13 10.4346 13.3478C10.3307 13.8195 10.0518 14.3275 9.41054 14.3275C8.47538 14.3275 8.18319 13.331 8.18319 12.2221C8.18319 11.1832 8.49491 10.1504 9.40077 10.1504C10.042 10.1504 10.2898 10.6504 10.4018 11.1238C10.4834 11.4717 10.6457 11.6517 10.9562 11.6517C11.2898 11.6517 11.5072 11.4078 11.4992 11.0404C11.4672 10.0338 10.6746 9.11679 9.37949 9.11679C7.76835 9.11679 7.03515 10.5123 7.03515 12.2221C7.03515 13.9008 7.70175 15.3611 9.41054 15.3611ZM14.1881 15.3611C15.6217 15.3611 16.5289 14.1432 16.5289 12.2398C16.5289 10.3267 15.6217 9.11679 14.1881 9.11679C12.7447 9.11679 11.8242 10.3267 11.8242 12.2398C11.8242 14.1432 12.7447 15.3611 14.1881 15.3611ZM14.1881 14.3275C13.4412 14.3275 12.9785 13.5629 12.9785 12.2398C12.9785 10.9168 13.4412 10.1504 14.1881 10.1504C14.9234 10.1504 15.3826 10.9168 15.3826 12.2398C15.3826 13.5629 14.9234 14.3275 14.1881 14.3275Z" fill="white" fill-opacity="0.85"/>
 </g>
</svg>
