<?xml version="1.0" encoding="UTF-8"?>
<!--Generator: Apple Native CoreSVG 341-->
<!DOCTYPE svg
PUBLIC "-//W3C//DTD SVG 1.1//EN"
       "http://www.w3.org/Graphics/SVG/1.1/DTD/svg11.dtd">
<svg version="1.1" xmlns="http://www.w3.org/2000/svg" xmlns:xlink="http://www.w3.org/1999/xlink" viewBox="0 0 24.265 18.9062">
 <g>
  <rect height="18.9062" opacity="0" width="24.265" x="0" y="0"/>
  <path d="M5.11523 18.8885L17.9232 18.8885C21.2933 18.8885 23.9037 16.3349 23.9037 13.0635C23.9037 9.75917 21.2674 7.25117 17.6599 7.25117C16.3418 4.65019 13.9467 3.10781 10.9892 3.10781C7.14394 3.10781 3.90117 6.02617 3.50312 9.97011C1.49551 10.5725 0.175389 12.2535 0.175389 14.3537C0.175389 16.8889 2.03242 18.8885 5.11523 18.8885ZM5.1203 17.0578C3.16932 17.0578 2.0078 16.0142 2.0078 14.4043C2.0078 13.0244 2.89218 12.0467 4.48475 11.625C5.04218 11.4865 5.24374 11.2379 5.29686 10.6398C5.58748 7.32225 7.97479 4.93846 10.9892 4.93846C13.2732 4.93846 15.0766 6.22069 16.1861 8.44921C16.423 8.94354 16.7098 9.10956 17.3195 9.10956C20.3516 9.10956 22.0713 10.8762 22.0713 13.1078C22.0713 15.3357 20.2978 17.0578 17.9902 17.0578ZM1.39883 9.07655C2.1666 9.07655 2.78613 8.45702 2.78613 7.67773C2.78613 6.9082 2.1666 6.29042 1.39883 6.29042C0.619531 6.29042 0 6.9082 0 7.67773C0 8.45702 0.619531 9.07655 1.39883 9.07655ZM16.0123 2.62636C16.7312 2.62636 17.3215 2.03613 17.3215 1.31719C17.3215 0.598242 16.7312 0 16.0123 0C15.2933 0 14.7031 0.598242 14.7031 1.31719C14.7031 2.03613 15.2933 2.62636 16.0123 2.62636ZM20.2168 6.08085C21.2978 6.08085 22.165 5.21015 22.165 4.11484C22.165 3.02578 21.2978 2.15508 20.2168 2.15508C19.118 2.15508 18.241 3.02578 18.241 4.11484C18.241 5.21015 19.118 6.08085 20.2168 6.08085Z" fill="white" fill-opacity="0.85"/>
  <path d="M8.8205 15.3611C10.1076 15.3611 10.9064 14.4361 10.9305 13.4312C10.9385 13.0719 10.7211 12.8199 10.399 12.8199C10.0832 12.8199 9.9164 13 9.83827 13.3478C9.73437 13.8195 9.46347 14.3275 8.8205 14.3275C7.87733 14.3275 7.5869 13.331 7.5869 12.2221C7.5869 11.1832 7.89862 10.1504 8.81073 10.1504C9.45194 10.1504 9.70155 10.6504 9.80546 11.1238C9.8871 11.4717 10.0557 11.6517 10.368 11.6517C10.6935 11.6517 10.9092 11.4078 10.9012 11.0404C10.8771 10.0338 10.0766 9.11679 8.78944 9.11679C7.1703 9.11679 6.4371 10.5123 6.4371 12.2221C6.4371 13.9008 7.11171 15.3611 8.8205 15.3611ZM13.598 15.3611C15.0316 15.3611 15.9326 14.1432 15.9326 12.2398C15.9326 10.3267 15.0316 9.11679 13.59 9.11679C12.1467 9.11679 11.2359 10.3267 11.2359 12.2398C11.2359 14.1432 12.1467 15.3611 13.598 15.3611ZM13.598 14.3275C12.8449 14.3275 12.3822 13.5629 12.3822 12.2398C12.3822 10.9168 12.8449 10.1504 13.59 10.1504C14.3334 10.1504 14.7943 10.9168 14.7943 12.2398C14.7943 13.5629 14.3334 14.3275 13.598 14.3275ZM16.6062 15.7131L18.1918 15.7131C18.4012 15.7131 18.5697 15.5267 18.5697 15.3174C18.5697 15.1178 18.3896 14.9377 18.1918 14.9377L17.5031 14.9377L17.7734 14.6514C18.1658 14.2687 18.4463 13.9074 18.4463 13.5062C18.4463 12.9435 17.983 12.5326 17.3457 12.5326C16.664 12.5326 16.2398 13.043 16.2398 13.4717C16.2398 13.7334 16.4297 13.8939 16.6408 13.8939C16.8928 13.8939 17.0055 13.7103 17.0658 13.5701C17.1226 13.3969 17.2133 13.3098 17.3537 13.3098C17.4826 13.3098 17.576 13.4049 17.576 13.5275C17.576 13.7398 17.3664 13.9902 17.1586 14.198L16.4049 14.9607C16.3117 15.0557 16.2478 15.2127 16.2478 15.3351C16.2478 15.5445 16.4049 15.7131 16.6062 15.7131Z" fill="white" fill-opacity="0.85"/>
 </g>
</svg>
