<?xml version="1.0" encoding="UTF-8"?>
<!--Generator: Apple Native CoreSVG 341-->
<!DOCTYPE svg
PUBLIC "-//W3C//DTD SVG 1.1//EN"
       "http://www.w3.org/Graphics/SVG/1.1/DTD/svg11.dtd">
<svg version="1.1" xmlns="http://www.w3.org/2000/svg" xmlns:xlink="http://www.w3.org/1999/xlink" viewBox="0 0 23.264 23.2785">
 <g>
  <rect height="23.2785" opacity="0" width="23.264" x="0" y="0"/>
  <path d="M16.1683 6.59255C17.808 5.69763 19.5763 0.953694 17.6623 0.471275C15.7029 0.00311288 15.1076 5.0449 16.1683 6.59255ZM16.3693 6.9699C18.6683 7.09392 23.6013 3.20467 21.8679 1.46151C20.1345-0.271886 16.247 4.65935 16.3693 6.9699ZM16.7466 7.16111C18.2845 8.23962 23.3378 7.62654 22.8697 5.69471C22.3935 3.75311 17.6416 5.5365 16.7466 7.16111ZM0.594688 22.6957C1.14195 23.2527 2.00738 23.5468 2.95816 22.9476L7.9396 19.8302L6.83628 18.7367C6.54097 18.4431 6.54448 18.0138 6.82827 17.7283C7.11557 17.4427 7.54311 17.433 7.83842 17.7283L9.17768 19.0498L10.2099 18.3968L8.6396 16.8834C8.34428 16.5933 8.35405 16.1605 8.63334 15.875C8.93041 15.5894 9.35444 15.5814 9.64174 15.8687L11.4462 17.6342L16.0554 14.7265C19.4523 12.591 20.0779 9.18865 17.5208 6.60838L16.6757 5.75701C14.4867 3.54744 11.6498 3.70584 9.53999 5.97557L12.0638 8.46913C12.3591 8.76444 12.3574 9.18397 12.0798 9.47127C11.7943 9.76483 11.3632 9.77283 11.0714 9.47928L8.64703 7.09412L7.99859 8.11034L9.80055 9.8785C10.0959 10.1721 10.0941 10.6111 9.80855 10.8887C9.51148 11.1777 9.09371 11.1822 8.80016 10.8887L7.22789 9.35642L0.324962 20.3029C-0.235975 21.1994-0.0219117 22.0826 0.594688 22.6957Z" fill="white" fill-opacity="0.85"/>
 </g>
</svg>
