<?xml version="1.0" encoding="UTF-8"?>
<!--Generator: Apple Native CoreSVG 341-->
<!DOCTYPE svg
PUBLIC "-//W3C//DTD SVG 1.1//EN"
       "http://www.w3.org/Graphics/SVG/1.1/DTD/svg11.dtd">
<svg version="1.1" xmlns="http://www.w3.org/2000/svg" xmlns:xlink="http://www.w3.org/1999/xlink" viewBox="0 0 22.9283 21.1172">
 <g>
  <rect height="21.1172" opacity="0" width="22.9283" x="0" y="0"/>
  <path d="M0.17246 16.8127C1.06172 20.0877 1.98203 21.0879 4.06581 21.0879L15.8053 21.0879C17.3174 21.0879 18.3299 20.2697 18.7088 18.7363L22.4246 3.6705C22.9705 1.46738 21.8951 0 19.8836 0C17.4146 0 15.5346 2.45194 16.4883 5.54881L16.7758 4.31328C14.3721 5.97558 13.1445 9.5162 13.5221 13.7791L14.075 13.0148C11.9303 12.6367 9.41815 12.4299 6.91855 12.4299C1.53222 12.4299-0.663476 13.7803 0.17246 16.8127ZM1.92597 16.3207C1.51913 14.8531 2.67186 14.2623 6.91855 14.2623C10.4601 14.2623 12.9777 14.7469 14.0682 14.8109C14.7324 14.8189 15.1615 14.3801 15.1535 13.7158C15.0974 9.95605 16.0221 7.1746 17.7258 5.8619C18.1092 5.54686 18.2049 5.2953 18.0992 4.62597C17.8373 2.83925 18.7844 1.83241 19.8748 1.83241C20.5254 1.83241 20.8703 2.35605 20.6641 3.19707L16.9225 18.2957C16.7687 18.9248 16.3998 19.2572 15.8053 19.2572L4.06581 19.2572C3.03358 19.2572 2.63358 18.9391 1.92597 16.3207Z" fill="white" fill-opacity="0.85"/>
  <path d="M4.86718 9.04453C6.71835 9.04453 7.96171 8.09472 7.96171 6.66035C7.96171 5.64043 7.20272 4.85371 6.17108 4.74785L6.17108 4.74609C7.00565 4.63222 7.68475 3.84921 7.68475 2.92695C7.68475 1.68886 6.55761 0.804685 4.93554 0.804685C3.55663 0.804685 2.45273 1.4414 2.17343 2.46348C2.13183 2.59824 2.11679 2.69746 2.11679 2.85801C2.11679 3.23222 2.39433 3.508 2.80937 3.508C3.1455 3.508 3.36542 3.358 3.49921 3.0332C3.69979 2.43691 4.22128 2.08163 4.92128 2.08163C5.6871 2.08163 6.18105 2.46718 6.18105 3.09179C6.18105 3.73418 5.63632 4.19277 4.88046 4.19277L4.39257 4.19277C4.03261 4.19277 3.76034 4.44551 3.76034 4.80468C3.76034 5.16562 4.0246 5.4246 4.39257 5.4246L4.92675 5.4246C5.81953 5.4246 6.41406 5.88144 6.41406 6.58691C6.41406 7.27637 5.80624 7.74199 4.89374 7.74199C4.13769 7.74199 3.60018 7.40176 3.36932 6.80625C3.21522 6.48418 3.00409 6.34394 2.67421 6.34394C2.26367 6.34394 1.97109 6.62324 1.97109 7.0205C1.97109 7.15976 1.98789 7.24121 2.02949 7.37597C2.28925 8.36601 3.45488 9.04453 4.86718 9.04453Z" fill="white" fill-opacity="0.85"/>
 </g>
</svg>
