<?xml version="1.0" encoding="UTF-8"?>
<!--Generator: Apple Native CoreSVG 341-->
<!DOCTYPE svg
PUBLIC "-//W3C//DTD SVG 1.1//EN"
       "http://www.w3.org/Graphics/SVG/1.1/DTD/svg11.dtd">
<svg version="1.1" xmlns="http://www.w3.org/2000/svg" xmlns:xlink="http://www.w3.org/1999/xlink" viewBox="0 0 22.9283 21.1172">
 <g>
  <rect height="21.1172" opacity="0" width="22.9283" x="0" y="0"/>
  <path d="M22.4246 3.6705L18.7088 18.7363C18.3299 20.2697 17.3174 21.0879 15.8053 21.0879L4.06581 21.0879C1.98203 21.0879 1.06172 20.0877 0.17246 16.8127C-0.482655 14.4362 0.724172 13.0928 3.87865 12.6269C3.59696 13.0722 3.31679 13.5709 3.31679 14.2449C3.31679 14.3446 3.32128 14.4416 3.33184 14.5355C2.02029 14.8391 1.67398 15.4117 1.92597 16.3207C2.63358 18.9391 3.03358 19.2572 4.06581 19.2572L15.8053 19.2572C16.3998 19.2572 16.7687 18.9248 16.9225 18.2957L20.6641 3.19707C20.8703 2.35605 20.5254 1.83241 19.8748 1.83241C18.7844 1.83241 17.8373 2.83925 18.0992 4.62597C18.2049 5.2953 18.1092 5.54686 17.7258 5.8619C16.0221 7.1746 15.0974 9.95605 15.1535 13.7158C15.1615 14.3801 14.7324 14.8189 14.0682 14.8109C13.4363 14.7738 12.3254 14.5955 10.8109 14.4524C10.7994 14.3675 10.7941 14.2755 10.7941 14.173C10.7941 13.6804 11.2029 13.2284 11.5333 12.6643C12.2002 12.7333 12.8491 12.8169 13.4686 12.9161C13.3289 9.32657 14.3641 6.33458 16.2984 4.68399C15.8987 2.0064 17.6502 0 19.8836 0C21.8951 0 22.9705 1.46738 22.4246 3.6705ZM7.14974 12.4323C6.83313 12.9284 6.46386 13.4711 6.46386 14.2449C6.46386 14.2523 6.46388 14.2596 6.46469 14.2665C5.7031 14.2731 5.05676 14.3026 4.51474 14.3569C4.51014 14.2994 4.508 14.2383 4.508 14.173C4.508 13.6272 5.00984 13.1313 5.35062 12.4776C5.83337 12.4445 6.35873 12.4299 6.91855 12.4299C6.99562 12.4299 7.07271 12.4301 7.14974 12.4323ZM10.2133 12.5508C9.91633 13.0153 9.60292 13.5321 9.60292 14.2449C9.60292 14.2824 9.60356 14.3195 9.60729 14.3548C9.00642 14.3134 8.35454 14.2825 7.65688 14.2699C7.65563 14.2388 7.65507 14.2065 7.65507 14.173C7.65507 13.6221 8.16629 13.1221 8.50726 12.4595C9.08212 12.4774 9.65273 12.5079 10.2133 12.5508Z" fill="white" fill-opacity="0.85"/>
  <path d="M5.6621 11.3135C5.6621 10.0008 4.508 9.28964 4.508 8.44413C4.508 7.96464 4.63144 7.70878 4.95644 7.27108C5.46913 6.58984 4.5121 5.90156 3.99316 6.56152C3.52714 7.15624 3.31679 7.70741 3.31679 8.37401C3.31679 9.73554 4.4496 10.3758 4.4496 11.3135C4.4496 12.2432 3.31679 12.8896 3.31679 14.2449C3.31679 14.9275 3.52714 15.4787 3.99316 16.0654C4.49609 16.7156 5.46112 16.0273 4.94843 15.3461C4.63144 14.9182 4.508 14.6685 4.508 14.173C4.508 13.3453 5.6621 12.6324 5.6621 11.3135ZM8.80917 11.3135C8.80917 10.0008 7.65507 9.28964 7.65507 8.44413C7.65507 7.96464 7.77851 7.70878 8.10351 7.27108C8.60819 6.58984 7.65116 5.90156 7.14023 6.56152C6.6662 7.15624 6.46386 7.70741 6.46386 8.37401C6.46386 9.73554 7.59667 10.3758 7.59667 11.3135C7.59667 12.2432 6.46386 12.8896 6.46386 14.2449C6.46386 14.9275 6.6662 15.4787 7.13222 16.0654C7.64316 16.7156 8.60819 16.0273 8.0955 15.3461C7.77851 14.9182 7.65507 14.6685 7.65507 14.173C7.65507 13.3453 8.80917 12.6324 8.80917 11.3135ZM11.9482 11.3135C11.9482 10.0008 10.7941 9.28964 10.7941 8.44413C10.7941 7.96464 10.9176 7.70878 11.2426 7.27108C11.7553 6.58984 10.7982 5.90156 10.2793 6.56152C9.81327 7.15624 9.60292 7.70741 9.60292 8.37401C9.60292 9.73554 10.7357 10.3758 10.7357 11.3135C10.7357 12.2432 9.60292 12.8896 9.60292 14.2449C9.60292 14.9275 9.81327 15.4787 10.2793 16.0654C10.7902 16.7156 11.7473 16.0273 11.2346 15.3461C10.9176 14.9182 10.7941 14.6685 10.7941 14.173C10.7941 13.3453 11.9482 12.6324 11.9482 11.3135Z" fill="white" fill-opacity="0.85"/>
 </g>
</svg>
