<?xml version="1.0" encoding="UTF-8"?>
<!--Generator: Apple Native CoreSVG 341-->
<!DOCTYPE svg
PUBLIC "-//W3C//DTD SVG 1.1//EN"
       "http://www.w3.org/Graphics/SVG/1.1/DTD/svg11.dtd">
<svg version="1.1" xmlns="http://www.w3.org/2000/svg" xmlns:xlink="http://www.w3.org/1999/xlink" viewBox="0 0 22.7371 21.0555">
 <g>
  <rect height="21.0555" opacity="0" width="22.7371" x="0" y="0"/>
  <path d="M22.2018 16.7766C23.0342 13.7635 20.8605 12.4219 15.475 12.4219C12.9229 12.4219 10.3047 12.6687 8.27012 13.0816L8.59356 13.6982C9.23965 9.31542 7.91758 5.73066 4.9043 4.12793L5.25957 5.46093C6.34063 2.22597 4.35156 0 2.29649 0C0.761929 0-0.44022 1.21503 0.155483 3.63789L3.8713 18.7037C4.24669 20.2265 5.2504 21.0394 6.75372 21.0394L18.3295 21.0394C20.4027 21.0394 21.316 20.0463 22.2018 16.7766Z" fill="white" fill-opacity="0.85"/>
  <path d="M15.26 9.11992L19.9395 9.11992C20.3527 9.11992 20.6383 8.83613 20.6383 8.44238C20.6383 8.03887 20.3447 7.7586 19.9395 7.7586L16.8047 7.7586L16.8047 7.7293L18.8254 5.61289C19.6055 4.81738 20.1684 4.09492 20.1684 3.12246C20.1684 1.70762 19.0457 0.773827 17.3053 0.773827C16.0023 0.773827 14.8459 1.51445 14.5459 2.56191C14.5166 2.71191 14.4856 2.82363 14.4856 2.95937C14.4856 3.36289 14.7568 3.64042 15.1816 3.64042C15.5523 3.64042 15.7535 3.43183 15.9213 3.12675C16.1336 2.61074 16.5742 2.1121 17.3393 2.1121C18.1148 2.1121 18.6328 2.56347 18.6328 3.22187C18.6328 3.81094 18.1369 4.31816 17.6291 4.85195L14.8225 7.7627C14.6143 7.9586 14.5035 8.17305 14.5035 8.42656C14.5035 8.85039 14.7908 9.11992 15.26 9.11992Z" fill="white" fill-opacity="0.85"/>
 </g>
</svg>
