<?xml version="1.0" encoding="UTF-8"?>
<!--Generator: Apple Native CoreSVG 341-->
<!DOCTYPE svg
PUBLIC "-//W3C//DTD SVG 1.1//EN"
       "http://www.w3.org/Graphics/SVG/1.1/DTD/svg11.dtd">
<svg version="1.1" xmlns="http://www.w3.org/2000/svg" xmlns:xlink="http://www.w3.org/1999/xlink" viewBox="0 0 22.7352 21.0555">
 <g>
  <rect height="21.0555" opacity="0" width="22.7352" x="0" y="0"/>
  <path d="M0.171322 16.7766C1.05882 20.0463 1.97034 21.0394 4.04534 21.0394L15.6194 21.0394C17.1244 21.0394 18.1264 20.2265 18.5035 18.7037L22.2194 3.63789C22.8133 1.21503 21.6129 0 20.0766 0C18.0215 0 16.0324 2.22597 17.1135 5.46093L17.4705 4.12793C14.4573 5.73066 13.1352 9.31542 13.7813 13.6982L14.1047 13.0816C12.0684 12.6687 9.45022 12.4219 6.89807 12.4219C1.5223 12.4219-0.659341 13.7635 0.171322 16.7766Z" fill="white" fill-opacity="0.85"/>
  <path d="M2.70296 9.11992L7.39222 9.11992C7.79749 9.11992 8.09104 8.83613 8.09104 8.44238C8.09104 8.03887 7.79749 7.7586 7.39222 7.7586L4.25744 7.7586L4.25744 7.7293L6.27815 5.61289C7.05823 4.81738 7.61936 4.09492 7.61936 3.12246C7.61936 1.70762 6.49846 0.773827 4.74827 0.773827C3.45335 0.773827 2.29066 1.51445 1.9889 2.56191C1.9596 2.71191 1.93831 2.82363 1.93831 2.95937C1.93831 3.36289 2.20784 3.64042 2.62639 3.64042C2.9971 3.64042 3.19651 3.43183 3.36428 3.12675C3.58635 2.61074 4.02522 2.1121 4.78401 2.1121C5.55784 2.1121 6.08382 2.56347 6.08382 3.22187C6.08382 3.81094 5.58968 4.31816 5.07386 4.85195L2.26722 7.7627C2.06702 7.9586 1.95628 8.17305 1.95628 8.42656C1.95628 8.85039 2.24183 9.11992 2.70296 9.11992Z" fill="white" fill-opacity="0.85"/>
 </g>
</svg>
