<?xml version="1.0" encoding="UTF-8"?>
<!--Generator: Apple Native CoreSVG 341-->
<!DOCTYPE svg
PUBLIC "-//W3C//DTD SVG 1.1//EN"
       "http://www.w3.org/Graphics/SVG/1.1/DTD/svg11.dtd">
<svg version="1.1" xmlns="http://www.w3.org/2000/svg" xmlns:xlink="http://www.w3.org/1999/xlink" viewBox="0 0 22.9263 21.1172">
 <g>
  <rect height="21.1172" opacity="0" width="22.9263" x="0" y="0"/>
  <path d="M22.3935 16.8127C23.2294 13.7803 21.032 12.4299 15.6457 12.4299C13.1478 12.4299 10.6357 12.6367 8.4812 13.0148L9.04389 13.7791C9.42143 9.5162 8.19213 5.97558 5.79019 4.31328L6.07768 5.54881C7.02963 2.45194 5.14155 0 2.67261 0C0.670855 0-0.404533 1.46738 0.141365 3.6705L3.85718 18.7363C4.23609 20.2697 5.24859 21.0879 6.75269 21.0879L18.5001 21.0879C20.5839 21.0879 21.5042 20.0877 22.3935 16.8127ZM20.64 16.3207C19.9306 18.9391 19.5306 19.2572 18.5001 19.2572L6.75269 19.2572C6.16616 19.2572 5.79546 18.9248 5.6435 18.2957L1.90014 3.19707C1.69565 2.35605 2.04057 1.83241 2.69116 1.83241C3.78159 1.83241 4.72867 2.83925 4.45874 4.62597C4.36109 5.2953 4.44878 5.54686 4.83218 5.8619C6.5439 7.1746 7.46851 9.95605 7.40445 13.7158C7.40445 14.3801 7.83179 14.8189 8.4978 14.8109C9.58823 14.7469 12.1058 14.2623 15.6457 14.2623C19.8941 14.2623 21.0371 14.8531 20.64 16.3207Z" fill="white" fill-opacity="0.85"/>
 </g>
</svg>
