<?xml version="1.0" encoding="UTF-8"?>
<!--Generator: Apple Native CoreSVG 341-->
<!DOCTYPE svg
PUBLIC "-//W3C//DTD SVG 1.1//EN"
       "http://www.w3.org/Graphics/SVG/1.1/DTD/svg11.dtd">
<svg version="1.1" xmlns="http://www.w3.org/2000/svg" xmlns:xlink="http://www.w3.org/1999/xlink" viewBox="0 0 22.7371 21.0555">
 <g>
  <rect height="21.0555" opacity="0" width="22.7371" x="0" y="0"/>
  <path d="M22.2018 16.7766C23.0342 13.7635 20.8605 12.4219 15.475 12.4219C12.9229 12.4219 10.3047 12.6687 8.27012 13.0816L8.59356 13.6982C9.23965 9.31542 7.91758 5.73066 4.9043 4.12793L5.25957 5.46093C6.34063 2.22597 4.35156 0 2.29649 0C0.761929 0-0.44022 1.21503 0.155483 3.63789L3.8713 18.7037C4.24669 20.2265 5.2504 21.0394 6.75372 21.0394L18.3295 21.0394C20.4027 21.0394 21.316 20.0463 22.2018 16.7766Z" fill="white" fill-opacity="0.85"/>
  <path d="M18.1555 9.2832C18.6725 9.2832 18.9783 8.95859 18.9783 8.39531L18.9783 1.67402C18.9783 1.0957 18.6504 0.773827 18.0848 0.773827C17.6938 0.773827 17.4516 0.867772 17.032 1.17383L15.4209 2.2459C15.1992 2.40019 15.108 2.57129 15.108 2.81425C15.108 3.14316 15.3643 3.40839 15.6869 3.40839C15.8324 3.40839 15.9424 3.38535 16.1582 3.22636L17.258 2.50585L17.3434 2.50585L17.3434 8.39531C17.3434 8.94883 17.659 9.2832 18.1555 9.2832Z" fill="white" fill-opacity="0.85"/>
 </g>
</svg>
