<?xml version="1.0" encoding="UTF-8"?>
<!--Generator: Apple Native CoreSVG 341-->
<!DOCTYPE svg
PUBLIC "-//W3C//DTD SVG 1.1//EN"
       "http://www.w3.org/Graphics/SVG/1.1/DTD/svg11.dtd">
<svg version="1.1" xmlns="http://www.w3.org/2000/svg" xmlns:xlink="http://www.w3.org/1999/xlink" viewBox="0 0 22.9263 21.1172">
 <g>
  <rect height="21.1172" opacity="0" width="22.9263" x="0" y="0"/>
  <path d="M22.3935 16.8127C23.2294 13.7803 21.032 12.4299 15.6457 12.4299C13.1478 12.4299 10.6357 12.6367 8.4812 13.0148L9.04389 13.7791C9.42143 9.5162 8.19213 5.97558 5.79019 4.31328L6.07768 5.54881C7.02963 2.45194 5.14155 0 2.67261 0C0.670855 0-0.404533 1.46738 0.141365 3.6705L3.85718 18.7363C4.23609 20.2697 5.24859 21.0879 6.75269 21.0879L18.5001 21.0879C20.5839 21.0879 21.5042 20.0877 22.3935 16.8127ZM20.64 16.3207C19.9306 18.9391 19.5306 19.2572 18.5001 19.2572L6.75269 19.2572C6.16616 19.2572 5.79546 18.9248 5.6435 18.2957L1.90014 3.19707C1.69565 2.35605 2.04057 1.83241 2.69116 1.83241C3.78159 1.83241 4.72867 2.83925 4.45874 4.62597C4.36109 5.2953 4.44878 5.54686 4.83218 5.8619C6.5439 7.1746 7.46851 9.95605 7.40445 13.7158C7.40445 14.3801 7.83179 14.8189 8.4978 14.8109C9.58823 14.7469 12.1058 14.2623 15.6457 14.2623C19.8941 14.2623 21.0371 14.8531 20.64 16.3207Z" fill="white" fill-opacity="0.85"/>
  <path d="M11.7337 6.68886C11.7337 8.13847 13.0318 9.57851 14.2849 9.57851C15.414 9.57851 16.0015 8.58769 16.6093 6.8289L16.8913 6.78534L16.8913 8.63867C16.8913 9.47656 17.3351 9.91581 18.149 9.91581C19.5906 9.91581 21.0306 8.62929 21.0306 7.36992C21.0306 6.23105 20.038 5.65332 18.2695 5.0455L18.2339 4.76347L20.089 4.76347C20.9251 4.76347 21.3599 4.32773 21.3599 3.51562C21.3599 2.06777 20.0814 0.619723 18.8185 0.619723C17.6796 0.619723 17.1037 1.6248 16.4878 3.3916L16.2121 3.41914L16.2121 1.56406C16.2121 0.735934 15.7746 0.286911 14.9624 0.286911C13.5146 0.286911 12.0665 1.5832 12.0665 2.83632C12.0665 3.97519 13.0734 4.54941 14.8419 5.15898L14.8597 5.43925L13.0144 5.43925C12.1863 5.43925 11.7337 5.88476 11.7337 6.68886ZM16.5451 6.08457C16.0062 6.08457 15.565 5.64335 15.565 5.09648C15.565 4.55761 16.0062 4.1164 16.5451 4.1164C17.0839 4.1164 17.5251 4.55761 17.5251 5.09648C17.5251 5.64335 17.0839 6.08457 16.5451 6.08457Z" fill="white" fill-opacity="0.85"/>
 </g>
</svg>
