<?xml version="1.0" encoding="UTF-8"?>
<!--Generator: Apple Native CoreSVG 341-->
<!DOCTYPE svg
PUBLIC "-//W3C//DTD SVG 1.1//EN"
       "http://www.w3.org/Graphics/SVG/1.1/DTD/svg11.dtd">
<svg version="1.1" xmlns="http://www.w3.org/2000/svg" xmlns:xlink="http://www.w3.org/1999/xlink" viewBox="0 0 22.7371 27.5453">
 <g>
  <rect height="27.5453" opacity="0" width="22.7371" x="0" y="0"/>
  <path d="M22.2018 16.7766C23.0342 13.7617 20.8605 12.4219 15.475 12.4219C12.9229 12.4219 10.3047 12.6607 8.27012 13.0816L8.59356 13.6982C9.23965 9.31366 7.91758 5.72265 4.9043 4.12617L5.25957 5.45292C6.34063 2.22597 4.35156 0 2.29649 0C0.761929 0-0.44022 1.21503 0.155483 3.62812L3.8713 18.6939C4.24669 20.2248 5.2504 21.0377 6.75372 21.0377L18.3295 21.0377C20.4027 21.0377 21.316 20.0445 22.2018 16.7766Z" fill="white" fill-opacity="0.85"/>
  <path d="M17.007 22.509L12.6156 22.509C12.04 22.509 11.7695 23.0055 12.0774 23.5101L14.2291 27.0385C14.5156 27.5103 15.099 27.5299 15.4051 27.0385L17.5391 23.5101C17.8389 23.0072 17.5959 22.509 17.007 22.509Z" fill="white" fill-opacity="0.85"/>
  <path d="M17.0053 10.9533C17.5959 10.9533 17.8469 10.4648 17.5373 9.96191L15.4016 6.4336C15.107 5.94219 14.5156 5.95196 14.2273 6.4336L12.0756 9.96191C11.7695 10.4666 12.04 10.9533 12.6139 10.9533Z" fill="white" fill-opacity="0.85"/>
 </g>
</svg>
