<?xml version="1.0" encoding="UTF-8"?>
<!--Generator: Apple Native CoreSVG 341-->
<!DOCTYPE svg
PUBLIC "-//W3C//DTD SVG 1.1//EN"
       "http://www.w3.org/Graphics/SVG/1.1/DTD/svg11.dtd">
<svg version="1.1" xmlns="http://www.w3.org/2000/svg" xmlns:xlink="http://www.w3.org/1999/xlink" viewBox="0 0 28.6331 21.0519">
 <g>
  <rect height="21.0519" opacity="0" width="28.6331" x="0" y="0"/>
  <path d="M28.0973 16.7766C28.928 13.7635 26.7463 12.4219 21.3706 12.4219C18.8184 12.4219 16.2003 12.6687 14.1657 13.0816L14.4874 13.6982C15.1352 9.31542 13.8131 5.73241 10.7981 4.12793L11.1551 5.46093C12.2362 2.22597 10.2471 0 8.19206 0C6.65574 0 5.45535 1.21503 6.04929 3.63789L9.76511 18.7037C10.1423 20.2265 11.1442 21.0394 12.6493 21.0394L24.2233 21.0394C26.2983 21.0394 27.2098 20.0463 28.0973 16.7766Z" fill="white" fill-opacity="0.85"/>
  <path d="M5.24148 9.88827L4.15203 5.71366C4.003 5.14432 3.45066 5.01034 3.03914 5.43612L0.225859 8.36249C-0.170624 8.75897-0.0296088 9.34061 0.52742 9.50291L4.40262 10.6615C4.97742 10.8318 5.3905 10.4576 5.24148 9.88827Z" fill="white" fill-opacity="0.85"/>
  <path d="M16.0577 6.32636C16.2102 6.90897 16.7581 7.01717 17.1678 6.59139L19.9891 3.67928C20.3874 3.27479 20.2348 2.70292 19.6938 2.54062L15.7946 1.37226C15.2358 1.2037 14.821 1.58944 14.97 2.14374Z" fill="white" fill-opacity="0.85"/>
 </g>
</svg>
