<?xml version="1.0" encoding="UTF-8"?>
<!--Generator: Apple Native CoreSVG 341-->
<!DOCTYPE svg
PUBLIC "-//W3C//DTD SVG 1.1//EN"
       "http://www.w3.org/Graphics/SVG/1.1/DTD/svg11.dtd">
<svg version="1.1" xmlns="http://www.w3.org/2000/svg" xmlns:xlink="http://www.w3.org/1999/xlink" viewBox="0 0 28.7732 21.1101">
 <g>
  <rect height="21.1101" opacity="0" width="28.7732" x="0" y="0"/>
  <path d="M0.17246 16.8109C1.06172 20.0859 1.98203 21.0861 4.06581 21.0861L15.8053 21.0861C17.3174 21.0861 18.3299 20.268 18.7088 18.7346L22.4246 3.66874C22.9705 1.46562 21.8951 0 19.8836 0C17.4146 0 15.5346 2.45018 16.4883 5.54881L16.7758 4.31328C14.3721 5.97382 13.1445 9.51445 13.5221 13.7773L14.075 13.0131C11.9303 12.635 9.41815 12.4281 6.91855 12.4281C1.53222 12.4281-0.663476 13.7785 0.17246 16.8109ZM1.92597 16.3189C1.51913 14.8514 2.67186 14.2605 6.91855 14.2605C10.4601 14.2605 12.9777 14.7451 14.0682 14.8092C14.7324 14.8172 15.1615 14.3783 15.1535 13.7141C15.0974 9.95429 16.0221 7.1746 17.7258 5.8619C18.1092 5.54511 18.2049 5.29355 18.0992 4.62421C17.8373 2.83749 18.7844 1.83065 19.8748 1.83065C20.5254 1.83065 20.8703 2.35429 20.6641 3.19531L16.9225 18.2939C16.7687 18.923 16.3998 19.2555 15.8053 19.2555L4.06581 19.2555C3.03358 19.2555 2.63358 18.9391 1.92597 16.3189Z" fill="white" fill-opacity="0.85"/>
  <path d="M23.1742 9.91737C23.0252 10.4867 23.4383 10.8609 24.0131 10.6906L27.8883 9.53201C28.4453 9.36971 28.5863 8.78807 28.1881 8.39159L25.3765 5.46522C24.965 5.03944 24.4127 5.17342 24.2637 5.74276Z" fill="white" fill-opacity="0.85"/>
  <path d="M12.3562 6.35546L13.4457 2.17284C13.5947 1.61854 13.1799 1.2328 12.6211 1.40136L8.72187 2.56972C8.18086 2.73202 8.02832 3.30389 8.42656 3.70838L11.2478 6.62049C11.6576 7.04627 12.2055 6.93807 12.3562 6.35546Z" fill="white" fill-opacity="0.85"/>
 </g>
</svg>
