<?xml version="1.0" encoding="UTF-8"?>
<!--Generator: Apple Native CoreSVG 341-->
<!DOCTYPE svg
PUBLIC "-//W3C//DTD SVG 1.1//EN"
       "http://www.w3.org/Graphics/SVG/1.1/DTD/svg11.dtd">
<svg version="1.1" xmlns="http://www.w3.org/2000/svg" xmlns:xlink="http://www.w3.org/1999/xlink" viewBox="0 0 28.7745 21.0519">
 <g>
  <rect height="21.0519" opacity="0" width="28.7745" x="0" y="0"/>
  <path d="M0.171322 16.7766C1.05882 20.0463 1.97034 21.0394 4.04534 21.0394L15.6194 21.0394C17.1244 21.0394 18.1264 20.2265 18.5035 18.7037L22.2194 3.63789C22.8133 1.21503 21.6129 0 20.0766 0C18.0215 0 16.0324 2.22597 17.1135 5.46093L17.4705 4.12793C14.4573 5.73241 13.1352 9.31542 13.7813 13.6982L14.1047 13.0816C12.0684 12.6687 9.45022 12.4219 6.89807 12.4219C1.5223 12.4219-0.659341 13.7635 0.171322 16.7766Z" fill="white" fill-opacity="0.85"/>
  <path d="M23.1748 9.88827C23.0258 10.4576 23.4389 10.8318 24.0137 10.6615L27.8889 9.50291C28.4459 9.34061 28.5869 8.75897 28.1887 8.36249L25.3772 5.43612C24.9656 5.01034 24.4133 5.14432 24.2643 5.71366Z" fill="white" fill-opacity="0.85"/>
  <path d="M12.3569 6.32636L13.4463 2.14374C13.5953 1.58944 13.1805 1.2037 12.6217 1.37226L8.72249 2.54062C8.18148 2.70292 8.02894 3.27479 8.42718 3.67928L11.2485 6.59139C11.6582 7.01717 12.2061 6.90897 12.3569 6.32636Z" fill="white" fill-opacity="0.85"/>
 </g>
</svg>
