<?xml version="1.0" encoding="UTF-8"?>
<!--Generator: Apple Native CoreSVG 341-->
<!DOCTYPE svg
PUBLIC "-//W3C//DTD SVG 1.1//EN"
       "http://www.w3.org/Graphics/SVG/1.1/DTD/svg11.dtd">
<svg version="1.1" xmlns="http://www.w3.org/2000/svg" xmlns:xlink="http://www.w3.org/1999/xlink" viewBox="0 0 20.5381 20.1848">
 <g>
  <rect height="20.1848" opacity="0" width="20.5381" x="0" y="0"/>
  <path d="M10.0875 20.175C15.6576 20.175 20.1767 15.6559 20.1767 10.0875C20.1767 4.51914 15.6576 0 10.0875 0C4.51914 0 0 4.51914 0 10.0875C0 15.6559 4.51914 20.175 10.0875 20.175ZM10.0875 18.1879C5.60839 18.1879 1.9871 14.5666 1.9871 10.0875C1.9871 5.60839 5.60839 1.9871 10.0875 1.9871C14.5666 1.9871 18.1897 5.60839 18.1897 10.0875C18.1897 14.5666 14.5666 18.1879 10.0875 18.1879Z" fill="white" fill-opacity="0.85"/>
  <path d="M8.44316 13.3312L13.6617 13.3312C13.9732 13.3312 14.1879 13.1209 14.1879 12.7926C14.1879 12.4758 13.9732 12.2574 13.6617 12.2574L8.50488 12.2574C8.24706 12.2574 8.07636 12.1143 8.04257 11.8467L8.00175 11.4826L13.874 11.4826C14.6117 11.4826 14.9853 11.0432 15.0945 10.318L15.4553 7.84979C15.473 7.79745 15.4828 7.70956 15.4828 7.66171C15.4828 7.38944 15.2947 7.20859 14.9676 7.20859L7.36601 7.20859L7.28515 6.61308C7.21952 6.17733 6.89003 5.90214 6.41093 5.90214L4.79472 5.90214C4.4744 5.90214 4.24647 6.13007 4.24647 6.46014C4.24647 6.78221 4.4744 7.01014 4.79472 7.01014L6.24081 7.01014L6.97714 12.1328C7.08632 12.9141 7.58359 13.3312 8.44316 13.3312ZM8.63808 15.7133C9.13964 15.7133 9.52577 15.3191 9.52577 14.8336C9.52577 14.3303 9.13964 13.9344 8.63808 13.9344C8.15253 13.9344 7.75488 14.3303 7.75488 14.8336C7.75488 15.3191 8.15253 15.7133 8.63808 15.7133ZM12.8795 15.7133C13.3713 15.7133 13.7672 15.3191 13.7672 14.8336C13.7672 14.3303 13.3713 13.9344 12.8795 13.9344C12.3842 13.9344 11.9803 14.3303 11.9803 14.8336C11.9803 15.3191 12.3842 15.7133 12.8795 15.7133Z" fill="white" fill-opacity="0.85"/>
 </g>
</svg>
