<?xml version="1.0" encoding="UTF-8"?>
<!--Generator: Apple Native CoreSVG 341-->
<!DOCTYPE svg
PUBLIC "-//W3C//DTD SVG 1.1//EN"
       "http://www.w3.org/Graphics/SVG/1.1/DTD/svg11.dtd">
<svg version="1.1" xmlns="http://www.w3.org/2000/svg" xmlns:xlink="http://www.w3.org/1999/xlink" viewBox="0 0 23.4469 19.4312">
 <g>
  <rect height="19.4312" opacity="0" width="23.4469" x="0" y="0"/>
  <path d="M3.15644 19.4215L19.9308 19.4215C22.0209 19.4215 23.0855 18.3728 23.0855 16.2988L23.0855 6.73886C23.0855 4.66483 22.0209 3.6162 19.9308 3.6162L3.15644 3.6162C1.07265 3.6162 0 4.66483 0 6.73886L0 16.2988C0 18.3728 1.07265 19.4215 3.15644 19.4215ZM6.42675 4.41308L8.1953 4.41308L8.1953 2.72675C8.1953 2.02499 8.60311 1.63319 9.32089 1.63319L13.7646 1.63319C14.4824 1.63319 14.8822 2.02675 14.8822 2.72675L14.8822 4.39707L16.6525 4.39707L16.6525 2.72695C16.6525 0.880468 15.6541 0 13.8162 0L9.25781 0C7.50175 0 6.42675 0.880468 6.42675 2.72695Z" fill="white" fill-opacity="0.85"/>
 </g>
</svg>
