<?xml version="1.0" encoding="UTF-8"?>
<!--Generator: Apple Native CoreSVG 341-->
<!DOCTYPE svg
PUBLIC "-//W3C//DTD SVG 1.1//EN"
       "http://www.w3.org/Graphics/SVG/1.1/DTD/svg11.dtd">
<svg version="1.1" xmlns="http://www.w3.org/2000/svg" xmlns:xlink="http://www.w3.org/1999/xlink" viewBox="0 0 20.5381 20.1848">
 <g>
  <rect height="20.1848" opacity="0" width="20.5381" x="0" y="0"/>
  <path d="M20.1767 10.0973C20.1767 15.6656 15.6576 20.1848 10.0875 20.1848C4.52715 20.1848 0 15.6656 0 10.0973C0 4.53691 4.52715 0.00976562 10.0875 0.00976562C15.6576 0.00976562 20.1767 4.53691 20.1767 10.0973ZM3.91913 7.06855C3.91913 8.10292 4.44921 8.91796 5.29277 9.2455C5.55116 9.35117 5.6498 9.55351 5.6498 9.79785C5.63378 10.0572 5.63378 10.2615 5.63378 10.4268C5.63378 11.9719 4.94296 12.1957 5.15253 12.9289L5.74648 15.1535C5.8539 15.5902 6.10527 15.7963 6.48261 15.7963L7.01777 15.7963C7.54589 15.7963 7.86972 15.5301 7.86972 15.0508C7.86972 14.7197 7.58046 14.4268 7.10702 14.3521L7.10702 13.2435C7.10702 12.7703 7.20038 12.4791 7.45468 12.04C8.26582 12.3527 8.84531 12.4521 9.52968 12.4521C10.3094 12.4521 11.1363 12.3295 11.6023 12.2025C11.7107 12.559 11.8121 12.9863 11.8121 13.4111C11.8121 13.9838 11.7473 14.5266 11.7473 14.9951C11.7473 15.5248 12.0295 15.7963 12.5805 15.7963L13.1363 15.7963C13.6627 15.7963 13.99 15.5158 13.99 15.0508C13.99 14.6797 13.7666 14.4268 13.359 14.3682L13.359 13.832C13.359 11.2232 15.2078 12.0182 15.2769 8.76327C16.1436 8.68085 16.7607 8.12499 16.7607 7.68827C16.7607 7.06855 16.11 6.42577 15.3844 5.90097C15.2228 5.35507 14.9201 4.91913 14.7053 4.91913C14.4869 4.91913 14.1326 5.33632 13.9445 5.92773C13.5547 6.27695 13.2184 6.77031 12.9857 7.20898L12.801 7.50742C12.6385 7.8289 12.4867 8.01718 12.2648 8.01718C10.3945 8.01718 9.70097 7.75078 7.92695 7.75078C7.09316 7.75078 6.55956 8.03144 6.22753 8.40527C6.05351 8.60957 5.92304 8.66543 5.61405 8.54921C5.06503 8.31836 4.68651 7.78007 4.68651 7.06855C4.68651 6.11562 5.44062 5.46015 6.52226 5.46015C6.93964 5.46015 7.36327 5.54452 7.86054 5.74608C8.39999 5.96522 8.66523 5.2289 8.16132 5.02128C7.57616 4.7789 7.0328 4.68476 6.52226 4.68476C4.98984 4.68476 3.91913 5.66933 3.91913 7.06855ZM15.3174 6.8582C15.4398 6.88222 15.5187 7.01718 15.4947 7.1414C15.4707 7.27538 15.3437 7.34277 15.2213 7.31874C15.0793 7.28671 15.0084 7.17929 15.0324 7.0453C15.0564 6.92109 15.1754 6.82616 15.3174 6.8582Z" fill="white" fill-opacity="0.85"/>
 </g>
</svg>
