<?xml version="1.0" encoding="UTF-8"?>
<!--Generator: Apple Native CoreSVG 341-->
<!DOCTYPE svg
PUBLIC "-//W3C//DTD SVG 1.1//EN"
       "http://www.w3.org/Graphics/SVG/1.1/DTD/svg11.dtd">
<svg version="1.1" xmlns="http://www.w3.org/2000/svg" xmlns:xlink="http://www.w3.org/1999/xlink" viewBox="0 0 27.0141 23.0922">
 <g>
  <rect height="23.0922" opacity="0" width="27.0141" x="0" y="0"/>
  <path d="M5.29433 23.0922L6.41855 23.0922C7.54023 23.0922 8.19999 22.5519 8.19999 21.5537C8.19999 20.8545 7.62167 20.2652 6.63241 20.084L6.63241 17.8103C6.63241 16.8135 6.80488 16.2072 7.33574 15.3248C9.01367 15.9527 10.2148 16.1683 11.6508 16.1683C13.2568 16.1683 14.9654 15.932 15.9283 15.6541C16.1514 16.3883 16.3531 17.2473 16.3531 18.1394C16.3531 19.3244 16.2164 20.4453 16.2164 21.4416C16.2164 22.5326 16.8197 23.0922 17.9648 23.0922L19.1322 23.0922C20.2281 23.0922 20.9217 22.5137 20.9217 21.5537C20.9217 20.7726 20.4412 20.2492 19.5676 20.124L19.5676 19.0041C19.5676 13.5906 23.4367 15.2642 23.566 8.50839C25.3752 8.34003 26.6527 7.18066 26.6527 6.28437C26.6527 4.99023 25.2912 3.66152 23.7869 2.56855C23.456 1.41758 22.817 0.529101 22.3572 0.529101C21.9064 0.529101 21.1793 1.38633 20.7988 2.60703C19.998 3.34356 19.2848 4.37617 18.7912 5.27187L18.4342 5.89355C18.0773 6.55762 17.7588 6.95547 17.3125 6.95547C13.4244 6.95547 11.9879 6.40683 8.30664 6.40683C6.57285 6.40683 5.4748 6.98223 4.78164 7.77246C4.40703 8.18711 4.1373 8.31035 3.52656 8.04863C2.37988 7.59063 1.58476 6.44941 1.58476 4.98847C1.58476 3.00214 3.14589 1.63906 5.40644 1.63906C6.27031 1.63906 7.13515 1.81308 8.16855 2.23124C9.27011 2.66757 9.82343 1.18125 8.78847 0.74668C7.57324 0.262891 6.43085 0.0542974 5.40644 0.0542974C2.22695 0.0542974 0 2.08418 0 4.98847C0 7.12148 1.11055 8.80527 2.84336 9.4957C3.37246 9.71581 3.58477 10.1213 3.57676 10.6393C3.55273 11.2246 3.55273 11.6473 3.55273 11.935C3.55273 15.1746 2.13418 15.5982 2.53535 17.1219L3.76562 21.768C4.00703 22.6713 4.50078 23.0922 5.29433 23.0922ZM23.5305 5.62734C23.1994 5.62734 22.9385 5.37617 22.9385 5.04511C22.9385 4.71582 23.1994 4.45488 23.5305 4.45488C23.8517 4.45488 24.1127 4.71582 24.1127 5.04511C24.1127 5.37617 23.8517 5.62734 23.5305 5.62734Z" fill="white" fill-opacity="0.85"/>
 </g>
</svg>
