<?xml version="1.0" encoding="UTF-8"?>
<!--Generator: Apple Native CoreSVG 341-->
<!DOCTYPE svg
PUBLIC "-//W3C//DTD SVG 1.1//EN"
       "http://www.w3.org/Graphics/SVG/1.1/DTD/svg11.dtd">
<svg version="1.1" xmlns="http://www.w3.org/2000/svg" xmlns:xlink="http://www.w3.org/1999/xlink" viewBox="0 0 27.392 23.3875">
 <g>
  <rect height="23.3875" opacity="0" width="27.392" x="0" y="0"/>
  <path d="M5.07285 23.3875L6.45898 23.3875C7.73593 23.3875 8.57616 22.6361 8.57616 21.4711C8.57616 20.4141 7.96386 19.9199 7.27226 19.7469L7.27226 18.401C7.27226 17.4611 7.35585 16.8767 7.54257 16.3437C8.65663 16.7904 10.2594 17.0613 11.6508 17.0613C12.9365 17.0613 14.3475 16.9219 15.4715 16.6687C15.5941 17.1851 15.7133 17.6492 15.7133 17.7896C15.7133 19.1055 15.5766 19.773 15.5766 21.0734C15.5766 22.5377 16.3893 23.3875 17.8295 23.3875L19.1322 23.3875C20.3666 23.3875 21.2363 22.6041 21.2363 21.4711C21.2363 20.4 20.6433 19.9375 19.9437 19.7521L19.9437 19.0041C19.9437 14.2309 23.6754 15.8035 23.9307 8.83046C25.6973 8.56093 27.0307 7.28535 27.0307 6.20253C27.0307 4.93359 25.7781 3.44824 24.4846 2.65859C24.1889 1.28086 23.2433 0.359766 22.5469 0.359766C21.8301 0.359766 21.0314 1.2625 20.5805 2.42109C19.8006 3.07539 18.9734 4.18359 18.4576 5.09004L17.9689 5.94297C17.7355 6.36367 17.5252 6.5793 17.1648 6.5793C13.506 6.5793 12.0535 6.02891 8.30664 6.02891C6.30937 6.02891 5.08359 6.7418 4.34785 7.69082C4.02461 8.1127 3.64531 8.08476 3.22636 7.84434C2.20839 7.31699 1.58476 6.27793 1.58476 4.98847C1.58476 3.01015 3.1539 1.63906 5.40644 1.63906C6.27031 1.63906 7.13515 1.81308 8.16054 2.23124C9.27011 2.67558 9.82343 1.18125 8.78847 0.74668C7.57324 0.262891 6.43085 0.0542974 5.40644 0.0542974C2.22695 0.0542974 0 2.09219 0 4.98847C0 6.99101 0.980078 8.58163 2.52207 9.34218C3.03613 9.60937 3.20684 9.8412 3.19883 10.3685C3.17481 11.0553 3.17481 11.5818 3.17481 11.935C3.17481 14.7398 1.7457 15.6373 2.16895 17.2168L3.44727 21.9199C3.72324 22.9359 4.2539 23.3875 5.07285 23.3875ZM5.5041 21.8221C5.19589 21.8221 5.0039 21.6293 4.86718 21.1197L3.69003 16.8053C3.49999 16.1152 4.74023 15.2674 4.74023 11.935C4.74023 10.5918 4.79882 7.59433 8.30664 7.59433C11.6277 7.59433 14.3457 8.14296 17.4746 8.14296C18.1646 8.14296 18.8494 7.62343 19.332 6.77168L19.8607 5.82792C20.4562 4.77793 21.057 3.908 21.607 3.55625C22.0723 2.4453 22.2853 2.04179 22.4922 1.99785C22.6156 2.03652 22.9578 2.52304 23.1508 3.48515C24.3732 4.23495 25.4652 5.4498 25.4652 6.15195C25.4652 6.59882 24.5275 7.39531 23.1496 7.39531L23.0191 7.39531C22.6092 7.39531 22.3785 7.63398 22.3785 8.06347L22.3785 8.21699C22.3785 14.4879 18.3801 12.5064 18.3801 19.0041L18.3801 20.3853C18.3801 20.6471 18.5406 20.8094 18.8121 20.8094L19.0551 20.8094C19.4754 20.8094 19.6779 20.9959 19.6779 21.3166C19.6779 21.6516 19.4674 21.8221 19.0391 21.8221L17.9945 21.8221C17.4307 21.8221 17.142 21.5193 17.142 20.9607C17.142 20.0383 17.2787 19.3689 17.2787 17.7896C17.2787 17.2305 16.7887 15.7143 16.7887 14.9826C16.7887 14.7037 16.9805 14.2252 17.1971 13.6943C17.5582 12.8168 16.1723 12.233 15.7898 13.1646C15.5262 13.8252 15.2848 14.4935 15.2848 15.1141C14.3473 15.3449 12.9568 15.4977 11.6508 15.4977C10.3953 15.4977 9.07675 15.2668 8.23691 14.9453C8.62128 14.3559 8.92499 13.8045 9.05019 13.4582C9.36249 12.5674 8.05644 11.9711 7.59414 12.948C7.25761 13.7037 6.89355 14.2746 6.45605 15.0432C5.94648 15.9273 5.70683 16.5336 5.70683 17.6414L5.70683 20.3853C5.70683 20.6471 5.86914 20.8094 6.13086 20.8094L6.39667 20.8094C6.81347 20.8094 7.01777 21.0137 7.01777 21.3166C7.01777 21.6684 6.80546 21.8221 6.38867 21.8221ZM23.2344 5.8539C23.5797 5.8539 23.8744 5.57695 23.8744 5.22187C23.8744 4.86855 23.5797 4.58183 23.2344 4.58183C22.8793 4.58183 22.5943 4.86855 22.5943 5.22187C22.5943 5.57695 22.8793 5.8539 23.2344 5.8539Z" fill="white" fill-opacity="0.85"/>
 </g>
</svg>
