<?xml version="1.0" encoding="UTF-8"?>
<!--Generator: Apple Native CoreSVG 341-->
<!DOCTYPE svg
PUBLIC "-//W3C//DTD SVG 1.1//EN"
       "http://www.w3.org/Graphics/SVG/1.1/DTD/svg11.dtd">
<svg version="1.1" xmlns="http://www.w3.org/2000/svg" xmlns:xlink="http://www.w3.org/1999/xlink" viewBox="0 0 22.7515 21.4965">
 <g>
  <rect height="21.4965" opacity="0" width="22.7515" x="0" y="0"/>
  <path d="M12.481 0.359374L20.9545 5.24941C21.351 5.47734 21.5363 5.7664 21.5363 6.09277C21.5363 6.53886 21.1851 6.98046 20.5865 6.98046L19.7447 6.98046L19.7447 18.2742L20.3117 18.2742C20.7437 18.2742 20.9947 18.5297 20.9947 18.9572L20.9947 19.7158L21.499 19.7158C21.9797 19.7158 22.3902 20.1148 22.3902 20.5972C22.3902 21.0849 21.9797 21.4867 21.499 21.4867L0.881441 21.4867C0.399022 21.4867 0 21.0832 0 20.5972C0 20.1148 0.399022 19.7158 0.881441 19.7158L1.44999 19.7158L1.44999 18.9572C1.44999 18.5297 1.70898 18.2742 2.14101 18.2742L2.69999 18.2742L2.69999 6.98046L1.85995 6.98046C1.25957 6.98046 0.908396 6.53886 0.908396 6.09277C0.908396 5.7664 1.08574 5.47734 1.49023 5.24941L9.96366 0.359374C10.3523 0.125976 10.7969 0 11.2183 0C11.6398 0 12.0764 0.125976 12.481 0.359374ZM10.9101 6.34783L10.9101 7.14862C8.6744 7.32362 7.38925 9.08162 7.38925 11.4969C7.38925 13.8695 8.59725 15.6728 10.9101 15.8594L10.9101 16.6744C10.9101 16.8547 11.0478 16.9959 11.2281 16.9959C11.4164 16.9959 11.5398 16.8627 11.5398 16.6744L11.5398 15.8691C12.9273 15.8043 14.191 15.1562 14.6463 13.9099C14.7101 13.7547 14.743 13.5969 14.743 13.4123C14.743 13.0365 14.4806 12.7928 14.1014 12.7928C13.7582 12.7928 13.5756 12.9746 13.4568 13.3045C13.1826 14.0994 12.4521 14.6084 11.5398 14.6848L11.5398 8.31697C12.4183 8.41111 13.1443 8.96716 13.4035 9.71424C13.5275 10.0459 13.6941 10.2162 14.0523 10.2162C14.4228 10.2162 14.6746 9.98221 14.6746 9.60369C14.6746 9.36678 14.5992 9.15311 14.5088 8.96151C13.9808 7.82088 12.8199 7.20721 11.5398 7.14061L11.5398 6.34783C11.5398 6.15955 11.4164 6.02635 11.2281 6.02635C11.0478 6.02635 10.9101 6.15955 10.9101 6.34783ZM10.9101 14.6652C9.44979 14.4476 8.82146 13.031 8.82146 11.4951C8.82146 9.94236 9.49061 8.55408 10.9101 8.34451Z" fill="white" fill-opacity="0.85"/>
 </g>
</svg>
