<?xml version="1.0" encoding="UTF-8"?>
<!--Generator: Apple Native CoreSVG 341-->
<!DOCTYPE svg
PUBLIC "-//W3C//DTD SVG 1.1//EN"
       "http://www.w3.org/Graphics/SVG/1.1/DTD/svg11.dtd">
<svg version="1.1" xmlns="http://www.w3.org/2000/svg" xmlns:xlink="http://www.w3.org/1999/xlink" viewBox="0 0 14.8851 21.9977">
 <g>
  <rect height="21.9977" opacity="0" width="14.8851" x="0" y="0"/>
  <path d="M7.75136 19.7272C10.6117 19.7272 13.3488 18.5012 14.3385 15.8016C14.4564 15.5186 14.5238 15.1229 14.5238 14.8391C14.5238 14.1229 14.0523 13.7289 13.3908 13.7289C12.757 13.7289 12.4451 14.0633 12.2219 14.6457C11.6352 16.5262 9.85176 17.5904 7.73828 17.5904C4.23202 17.5904 2.57635 14.5865 2.57635 10.9717C2.57635 7.49726 4.16444 4.40799 7.72851 4.40799C9.71387 4.40799 11.5293 5.51757 12.1072 7.3832C12.3305 7.96835 12.6502 8.29198 13.2955 8.29198C13.9767 8.29198 14.3986 7.84726 14.3986 7.2039C14.3986 6.87246 14.3137 6.48946 14.1746 6.16231C13.1535 3.64629 10.5408 2.26953 7.71972 2.26953C2.78593 2.26953 0 5.91387 0 10.9734C0 16.1084 2.77441 19.7272 7.75136 19.7272ZM7.5748 21.9977C7.9496 21.9977 8.20624 21.7508 8.20624 21.3742L8.20624 0.66797C8.20624 0.241602 7.88378 0.0445318 7.5748 0.0445318C7.28007 0.0445318 6.96738 0.241602 6.96738 0.66797L6.96738 21.3742C6.96738 21.7828 7.25605 21.9977 7.5748 21.9977Z" fill="white" fill-opacity="0.85"/>
 </g>
</svg>
