<?xml version="1.0" encoding="UTF-8"?>
<!--Generator: Apple Native CoreSVG 341-->
<!DOCTYPE svg
PUBLIC "-//W3C//DTD SVG 1.1//EN"
       "http://www.w3.org/Graphics/SVG/1.1/DTD/svg11.dtd">
<svg version="1.1" xmlns="http://www.w3.org/2000/svg" xmlns:xlink="http://www.w3.org/1999/xlink" viewBox="0 0 20.5381 20.1848">
 <g>
  <rect height="20.1848" opacity="0" width="20.5381" x="0" y="0"/>
  <path d="M10.0875 20.175C15.6576 20.175 20.1767 15.6559 20.1767 10.0875C20.1767 4.51914 15.6576 0 10.0875 0C4.51914 0 0 4.51914 0 10.0875C0 15.6559 4.51914 20.175 10.0875 20.175ZM10.0875 18.1879C5.60839 18.1879 1.9871 14.5666 1.9871 10.0875C1.9871 5.60839 5.60839 1.9871 10.0875 1.9871C14.5666 1.9871 18.1897 5.60839 18.1897 10.0875C18.1897 14.5666 14.5666 18.1879 10.0875 18.1879Z" fill="white" fill-opacity="0.85"/>
  <path d="M10.1611 14.3324C11.6119 14.3324 12.9744 13.6932 13.4502 12.3996C13.5088 12.2363 13.5434 12.082 13.5434 11.9107C13.5434 11.534 13.2961 11.3053 12.9193 11.3053C12.5814 11.3053 12.4041 11.4818 12.2871 11.7984C11.9969 12.6512 11.157 13.1824 10.1506 13.1824C8.43163 13.1824 7.69217 11.6582 7.69217 10.0049C7.69217 8.33651 8.48222 6.85487 10.1426 6.85487C11.1232 6.85487 11.9488 7.43319 12.2338 8.24159C12.3543 8.5662 12.5271 8.73475 12.8686 8.73475C13.2303 8.73475 13.4785 8.50604 13.4785 8.13456C13.4785 7.90116 13.4049 7.69101 13.3144 7.50468C12.766 6.308 11.4957 5.69687 10.1391 5.69687C7.70488 5.69687 6.29336 7.4871 6.29336 10.0084C6.29336 12.4809 7.625 14.3324 10.1611 14.3324ZM10.0777 15.4389C10.2643 15.4389 10.3859 15.3154 10.3859 15.1209L10.3859 4.92089C10.3859 4.74413 10.2643 4.60468 10.0777 4.60468C9.89921 4.60468 9.76328 4.74413 9.76328 4.92089L9.76328 15.1209C9.76328 15.3074 9.89921 15.4389 10.0777 15.4389Z" fill="white" fill-opacity="0.85"/>
 </g>
</svg>
