<?xml version="1.0" encoding="UTF-8"?>
<!--Generator: Apple Native CoreSVG 341-->
<!DOCTYPE svg
PUBLIC "-//W3C//DTD SVG 1.1//EN"
       "http://www.w3.org/Graphics/SVG/1.1/DTD/svg11.dtd">
<svg version="1.1" xmlns="http://www.w3.org/2000/svg" xmlns:xlink="http://www.w3.org/1999/xlink" viewBox="0 0 22.301 21.9477">
 <g>
  <rect height="21.9477" opacity="0" width="22.301" x="0" y="0"/>
  <path d="M10.9689 21.9379C16.9984 21.9379 21.9396 16.9984 21.9396 10.9689C21.9396 4.93945 16.9984 0 10.9689 0C4.93945 0 0 4.93945 0 10.9689C0 16.9984 4.93945 21.9379 10.9689 21.9379ZM10.9689 18.2242C6.96133 18.2242 3.71367 14.9766 3.71367 10.9689C3.71367 6.95332 6.96133 3.71367 10.9689 3.71367C14.9846 3.71367 18.226 6.95332 18.226 10.9689C18.226 14.9766 14.9846 18.2242 10.9689 18.2242Z" fill="white" fill-opacity="0.85"/>
  <path d="M11.0506 15.2139C12.5014 15.2139 13.8639 14.5746 14.3396 13.2811C14.3982 13.1178 14.4328 12.9635 14.4328 12.7922C14.4328 12.4154 14.1855 12.1867 13.8088 12.1867C13.4709 12.1867 13.2936 12.3633 13.1846 12.6799C12.8863 13.5326 12.0465 14.0639 11.04 14.0639C9.32109 14.0639 8.58163 12.5397 8.58163 10.8863C8.58163 9.21796 9.37167 7.73632 11.032 7.73632C12.0127 7.73632 12.8463 8.31464 13.1232 9.12304C13.2438 9.44765 13.4166 9.6162 13.758 9.6162C14.1197 9.6162 14.368 9.38749 14.368 9.01601C14.368 8.78261 14.2943 8.57246 14.2039 8.38613C13.6555 7.18945 12.3852 6.57832 11.0285 6.57832C8.60234 6.57832 7.18281 8.36855 7.18281 10.8898C7.18281 13.3623 8.51445 15.2139 11.0506 15.2139ZM10.9672 16.3203C11.1537 16.3203 11.2754 16.1969 11.2754 16.0023L11.2754 5.80234C11.2754 5.62558 11.1537 5.48613 10.9672 5.48613C10.7887 5.48613 10.6527 5.62558 10.6527 5.80234L10.6527 16.0023C10.6527 16.1889 10.7887 16.3203 10.9672 16.3203Z" fill="white" fill-opacity="0.85"/>
 </g>
</svg>
