<?xml version="1.0" encoding="UTF-8"?>
<!--Generator: Apple Native CoreSVG 341-->
<!DOCTYPE svg
PUBLIC "-//W3C//DTD SVG 1.1//EN"
       "http://www.w3.org/Graphics/SVG/1.1/DTD/svg11.dtd">
<svg version="1.1" xmlns="http://www.w3.org/2000/svg" xmlns:xlink="http://www.w3.org/1999/xlink" viewBox="0 0 22.7515 21.4965">
 <g>
  <rect height="21.4965" opacity="0" width="22.7515" x="0" y="0"/>
  <path d="M1.44999 18.9656L20.9947 18.9656L20.9947 18.2322C20.9947 17.8064 20.7437 17.551 20.3117 17.551L19.7447 17.551L19.7447 6.98046L20.5865 6.98046C21.1851 6.98046 21.5363 6.53886 21.5363 6.09277C21.5363 5.7664 21.351 5.47734 20.9545 5.24941L12.481 0.359374C12.0764 0.125976 11.6398 0 11.2183 0C10.7969 0 10.3523 0.125976 9.96366 0.359374L1.49023 5.24941C1.08574 5.47734 0.908396 5.7664 0.908396 6.09277C0.908396 6.53886 1.25957 6.98046 1.85995 6.98046L2.69999 6.98046L2.69999 17.551L2.14101 17.551C1.70898 17.551 1.44999 17.8064 1.44999 18.2322ZM4.32401 17.551L4.32401 5.67245L10.8779 1.99999C10.9846 1.93866 11.1072 1.90487 11.2183 1.90487C11.333 1.90487 11.4521 1.93866 11.5668 1.99999L18.1207 5.67245L18.1207 17.551ZM0.881441 21.4867L21.499 21.4867C21.9797 21.4867 22.3902 21.0849 22.3902 20.5972C22.3902 20.1148 21.9797 19.7158 21.499 19.7158L0.881441 19.7158C0.399022 19.7158 0 20.1148 0 20.5972C0 21.0832 0.399022 21.4867 0.881441 21.4867Z" fill="white" fill-opacity="0.85"/>
  <path d="M11.3098 14.8287C12.7588 14.8287 14.1133 14.1894 14.5971 12.8879C14.6574 12.7326 14.692 12.5703 14.692 12.399C14.692 12.0303 14.4349 11.7935 14.0662 11.7935C13.7301 11.7935 13.551 11.9719 13.434 12.2867C13.1437 13.1412 12.2959 13.6707 11.2992 13.6707C9.5785 13.6707 8.83904 12.1465 8.83904 10.5029C8.83904 8.82479 9.63084 7.3449 11.2912 7.3449C12.2719 7.3449 13.0975 7.92322 13.3807 8.72987C13.5029 9.05623 13.666 9.22303 14.0154 9.22303C14.3789 9.22303 14.6254 9.00233 14.6254 8.62284C14.6254 8.38944 14.5517 8.18729 14.4631 7.99296C13.9146 6.79803 12.6443 6.18514 11.2859 6.18514C8.85175 6.18514 7.44022 7.98339 7.44022 10.5047C7.44022 12.9771 8.77186 14.8287 11.3098 14.8287ZM11.2264 15.9351C11.4111 15.9351 11.5346 15.8037 11.5346 15.6189L11.5346 5.41092C11.5346 5.23241 11.4111 5.09295 11.2264 5.09295C11.0478 5.09295 10.9101 5.23241 10.9101 5.41092L10.9101 15.6189C10.9101 15.7957 11.0478 15.9351 11.2264 15.9351Z" fill="white" fill-opacity="0.85"/>
 </g>
</svg>
