<?xml version="1.0" encoding="UTF-8"?>
<!--Generator: Apple Native CoreSVG 341-->
<!DOCTYPE svg
PUBLIC "-//W3C//DTD SVG 1.1//EN"
       "http://www.w3.org/Graphics/SVG/1.1/DTD/svg11.dtd">
<svg version="1.1" xmlns="http://www.w3.org/2000/svg" xmlns:xlink="http://www.w3.org/1999/xlink" viewBox="0 0 20.5381 20.1848">
 <g>
  <rect height="20.1848" opacity="0" width="20.5381" x="0" y="0"/>
  <path d="M20.1767 10.0875C20.1767 15.6478 15.6576 20.175 10.0875 20.175C4.52715 20.175 0 15.6478 0 10.0875C0 4.51914 4.52715 0 10.0875 0C15.6576 0 20.1767 4.51914 20.1767 10.0875ZM4.73906 10.9256C4.41015 10.9256 4.19472 11.141 4.19472 11.4691L4.19472 13.4047C4.19472 13.7328 4.41015 13.9687 4.73906 13.9687L5.7457 13.9687C6.06484 13.9687 6.29804 13.7328 6.29804 13.4047L6.29804 11.4691C6.29804 11.141 6.06484 10.9256 5.7457 10.9256ZM7.88359 9.53574C7.55644 9.53574 7.34726 9.7539 7.34726 10.0838L7.34726 13.4047C7.34726 13.7328 7.55644 13.9687 7.88359 13.9687L8.89824 13.9687C9.22714 13.9687 9.43456 13.7328 9.43456 13.4047L9.43456 10.0838C9.43456 9.7539 9.22714 9.53574 8.89824 9.53574ZM11.0299 7.89316C10.7055 7.89316 10.4918 8.11308 10.4918 8.45097L10.4918 13.4047C10.4918 13.7328 10.7055 13.9687 11.0299 13.9687L12.0508 13.9687C12.3797 13.9687 12.5853 13.7328 12.5853 13.4047L12.5853 8.45097C12.5853 8.11308 12.3797 7.89316 12.0508 7.89316ZM14.1789 6.10585C13.8598 6.10585 13.6346 6.32578 13.6346 6.66366L13.6346 13.4047C13.6346 13.7328 13.8598 13.9687 14.1789 13.9687L15.1936 13.9687C15.5242 13.9687 15.7299 13.7328 15.7299 13.4047L15.7299 6.66366C15.7299 6.32578 15.5242 6.10585 15.1936 6.10585Z" fill="white" fill-opacity="0.85"/>
 </g>
</svg>
