<?xml version="1.0" encoding="UTF-8"?>
<!--Generator: Apple Native CoreSVG 341-->
<!DOCTYPE svg
PUBLIC "-//W3C//DTD SVG 1.1//EN"
       "http://www.w3.org/Graphics/SVG/1.1/DTD/svg11.dtd">
<svg version="1.1" xmlns="http://www.w3.org/2000/svg" xmlns:xlink="http://www.w3.org/1999/xlink" viewBox="0 0 18.5894 18.2316">
 <g>
  <rect height="18.2316" opacity="0" width="18.5894" x="0" y="0"/>
  <path d="M18.2281 3.17148L18.2281 15.0646C18.2281 17.1502 17.1404 18.2281 15.0246 18.2281L3.20351 18.2281C1.0957 18.2281 0 17.1502 0 15.0646L0 3.17148C0 1.08769 1.0957 0 3.20351 0L15.0246 0C17.1404 0 18.2281 1.08769 18.2281 3.17148ZM8.78554 4.68085L8.78554 5.51562C6.88379 5.67109 5.80175 7.09414 5.80175 9.05585C5.80175 11.1578 6.9875 12.4441 8.78554 12.5996L8.78554 13.4326C8.78554 13.6174 8.93652 13.7684 9.12304 13.7684C9.30781 13.7684 9.45878 13.6174 9.45878 13.4326L9.45878 12.6076C10.2539 12.541 11.0162 12.2498 11.5141 11.7406C11.8258 11.4219 12.0709 10.9787 12.0709 10.6166C12.0709 10.2398 11.7846 10.0199 11.4398 10.0199C11.118 10.0199 10.9629 10.2195 10.8344 10.443C10.527 11.0393 10.0853 11.385 9.45878 11.4613L9.45878 6.66366C10.0871 6.74003 10.5492 7.06972 10.8229 7.68027C10.9486 7.94101 11.15 8.09355 11.4381 8.09355C11.7953 8.09355 12.0611 7.87363 12.0611 7.49687C12.0611 7.12656 11.8017 6.69863 11.491 6.38261C10.9967 5.87773 10.2601 5.58398 9.45878 5.51738L9.45878 4.68085C9.45878 4.50234 9.30781 4.35136 9.12304 4.35136C8.93652 4.35136 8.78554 4.50234 8.78554 4.68085ZM8.78554 11.4533C7.69901 11.265 7.20741 10.2951 7.20741 9.05585C7.20741 7.79882 7.72304 6.84218 8.78554 6.66991Z" fill="white" fill-opacity="0.85"/>
 </g>
</svg>
