<?xml version="1.0" encoding="UTF-8"?>
<!--Generator: Apple Native CoreSVG 341-->
<!DOCTYPE svg
PUBLIC "-//W3C//DTD SVG 1.1//EN"
       "http://www.w3.org/Graphics/SVG/1.1/DTD/svg11.dtd">
<svg version="1.1" xmlns="http://www.w3.org/2000/svg" xmlns:xlink="http://www.w3.org/1999/xlink" viewBox="0 0 24.2049 19.8808">
 <g>
  <rect height="19.8808" opacity="0" width="24.2049" x="0" y="0"/>
  <path d="M23.8435 11.9178C23.8435 9.01855 22.8031 6.3457 21.0623 4.27031C20.8547 4.02011 20.498 4.02011 20.2621 4.2623L17.9578 6.56484C17.7547 6.76796 17.7467 7.05097 17.9232 7.27363C18.9185 8.56269 19.517 10.1768 19.517 11.9178C19.517 13.6826 18.9115 15.3107 17.8488 16.6611C17.6945 16.8535 17.7025 17.0982 17.8719 17.2756L20.2242 19.6279C20.4646 19.8683 20.8133 19.8683 21.0359 19.6066C22.7908 17.5277 23.8435 14.8443 23.8435 11.9178Z" fill="white" fill-opacity="0.85"/>
  <path d="M11.9178 4.32656C13.6783 4.32656 15.2941 4.933 16.5912 5.93183C16.8041 6.09863 17.0791 6.0791 17.2787 5.87773L19.5812 3.57343C19.8252 3.33125 19.8154 2.9791 19.5582 2.76797C17.4926 1.04043 14.8232 0 11.9178 0C9.02031 0 6.35097 1.04043 4.28711 2.76797C4.02988 2.9791 4.01836 3.33125 4.2623 3.57343L6.56484 5.87773C6.76445 6.0791 7.05097 6.09863 7.28163 5.92207C8.56894 4.933 10.1768 4.32656 11.9178 4.32656Z" fill="white" fill-opacity="0.85"/>
  <path d="M0 11.9178C0 14.8461 1.05625 17.5348 2.81465 19.6137C3.02402 19.8719 3.3789 19.8683 3.61308 19.6279L5.96367 17.2756C6.133 17.0982 6.15077 16.8535 5.99472 16.6611C4.93378 15.3107 4.32656 13.6826 4.32656 11.9178C4.32656 10.1768 4.91699 8.56269 5.92031 7.27363C6.08886 7.05097 6.08886 6.76796 5.88574 6.56484L3.58144 4.2623C3.33926 4.02011 2.98711 4.02187 2.77422 4.2791C1.03867 6.35097 0 9.02031 0 11.9178Z" fill="white" fill-opacity="0.85"/>
  <path d="M11.9195 15.3646C12.7822 15.3646 13.6396 15.0707 14.1891 14.5277C14.4892 14.2205 14.7166 13.7906 14.7166 13.4418C14.7166 13.0818 14.4435 12.8832 14.1156 12.8832C13.815 12.8832 13.6652 13.0678 13.5385 13.2814C13.1937 13.9391 12.6891 14.2785 11.9328 14.2785C10.6225 14.2785 10.0375 13.2748 10.0375 11.9404C10.0375 10.606 10.6465 9.61561 11.9168 9.61561C12.673 9.61561 13.224 9.93905 13.5287 10.6189C13.659 10.8699 13.8408 11.0172 14.1139 11.0172C14.4543 11.0172 14.7068 10.8105 14.7068 10.4488C14.7068 10.0918 14.4572 9.67714 14.158 9.37265C13.6219 8.82597 12.7885 8.52773 11.9018 8.52773C9.86738 8.52773 8.69726 9.94648 8.69726 11.9404C8.69726 14.1021 9.99511 15.3646 11.9195 15.3646ZM11.8893 16.473C12.066 16.473 12.2072 16.3318 12.2072 16.1568L12.2072 7.73378C12.2072 7.55878 12.066 7.41757 11.8893 7.41757C11.7062 7.41757 11.565 7.55878 11.565 7.73378L11.565 16.1568C11.565 16.3318 11.7062 16.473 11.8893 16.473Z" fill="white" fill-opacity="0.85"/>
 </g>
</svg>
