<?xml version="1.0" encoding="UTF-8"?>
<!--Generator: Apple Native CoreSVG 341-->
<!DOCTYPE svg
PUBLIC "-//W3C//DTD SVG 1.1//EN"
       "http://www.w3.org/Graphics/SVG/1.1/DTD/svg11.dtd">
<svg version="1.1" xmlns="http://www.w3.org/2000/svg" xmlns:xlink="http://www.w3.org/1999/xlink" viewBox="0 0 22.301 21.9477">
 <g>
  <rect height="21.9477" opacity="0" width="22.301" x="0" y="0"/>
  <path d="M10.9689 21.9379C16.9984 21.9379 21.9396 16.9984 21.9396 10.9689C21.9396 4.93945 16.9984 0 10.9689 0C4.93945 0 0 4.93945 0 10.9689C0 16.9984 4.93945 21.9379 10.9689 21.9379ZM10.9689 18.2242C6.96133 18.2242 3.71367 14.9766 3.71367 10.9689C3.71367 6.95332 6.96133 3.71367 10.9689 3.71367C14.9846 3.71367 18.226 6.95332 18.226 10.9689C18.226 14.9766 14.9846 18.2242 10.9689 18.2242Z" fill="white" fill-opacity="0.85"/>
  <path d="M10.9707 14.3381C11.8414 14.3381 12.7006 14.0441 13.2402 13.4932C13.5422 13.1939 13.7758 12.7641 13.7758 12.4135C13.7758 12.0535 13.5045 11.8469 13.1766 11.8469C12.8662 11.8469 12.7262 12.0332 12.5994 12.2549C12.2529 12.9125 11.7482 13.252 10.984 13.252C9.68163 13.252 9.09667 12.2385 9.09667 10.9139C9.09667 9.57949 9.69941 8.5873 10.976 8.5873C11.7322 8.5873 12.285 8.91249 12.5879 9.58437C12.7119 9.8416 12.9 9.98085 13.173 9.98085C13.5135 9.98085 13.766 9.77421 13.766 9.41426C13.766 9.05722 13.5164 8.65058 13.2189 8.34609C12.6811 7.7914 11.8477 7.50117 10.9609 7.50117C8.92656 7.50117 7.75644 8.91191 7.75644 10.9139C7.75644 13.0756 9.0543 14.3381 10.9707 14.3381ZM10.9404 15.4465C11.1252 15.4465 11.2664 15.3053 11.2664 15.1223L11.2664 6.70722C11.2664 6.53046 11.1252 6.39101 10.9404 6.39101C10.7654 6.39101 10.6242 6.53046 10.6242 6.70722L10.6242 15.1223C10.6242 15.3053 10.7654 15.4465 10.9404 15.4465Z" fill="white" fill-opacity="0.85"/>
 </g>
</svg>
