<?xml version="1.0" encoding="UTF-8"?>
<!--Generator: Apple Native CoreSVG 341-->
<!DOCTYPE svg
PUBLIC "-//W3C//DTD SVG 1.1//EN"
       "http://www.w3.org/Graphics/SVG/1.1/DTD/svg11.dtd">
<svg version="1.1" xmlns="http://www.w3.org/2000/svg" xmlns:xlink="http://www.w3.org/1999/xlink" viewBox="0 0 24.226 20.1848">
 <g>
  <rect height="20.1848" opacity="0" width="24.226" x="0" y="0"/>
  <path d="M0.721518 8.12363C-0.00973073 8.12363-0.190785 8.66894 0.204136 9.22109L2.47249 12.3723C2.78948 12.8092 3.27757 12.8012 3.58831 12.3723L5.8469 9.21308C6.24007 8.66894 6.051 8.12363 5.33929 8.12363ZM22.0239 10.0875C22.0239 4.51914 17.503 0 11.9364 0C6.368 0 1.85687 4.50937 1.84886 10.099C1.85687 10.6476 2.29378 11.0846 2.83441 11.0846C3.38303 11.0846 3.83596 10.6396 3.83596 10.091C3.83596 5.60839 7.45725 1.9871 11.9364 1.9871C16.4155 1.9871 20.0368 5.60839 20.0368 10.0875C20.0368 14.5666 16.4155 18.1879 11.9364 18.1879C9.3096 18.1879 7.0131 16.9437 5.54279 15.0176C5.1469 14.5609 4.58421 14.4129 4.10726 14.7519C3.66214 15.0734 3.55902 15.725 3.99475 16.2355C5.84631 18.6584 8.71858 20.175 11.9364 20.175C17.503 20.175 22.0239 15.6559 22.0239 10.0875Z" fill="white" fill-opacity="0.85"/>
  <path d="M11.9399 13.4566C12.8088 13.4566 13.668 13.1627 14.2094 12.6117C14.5096 12.3125 14.7432 11.8826 14.7432 11.532C14.7432 11.1721 14.4719 10.9654 14.144 10.9654C13.8354 10.9654 13.6936 11.1518 13.5668 11.3734C13.2203 12.0311 12.7157 12.3705 11.9514 12.3705C10.6491 12.3705 10.0658 11.357 10.0658 10.0324C10.0658 8.69804 10.6668 7.70585 11.9434 7.70585C12.6996 7.70585 13.2524 8.03104 13.5553 8.70292C13.6793 8.96015 13.8674 9.09941 14.1422 9.09941C14.4809 9.09941 14.7334 8.89277 14.7334 8.53281C14.7334 8.17577 14.4838 7.76913 14.1864 7.46464C13.6485 6.90996 12.8151 6.61972 11.9284 6.61972C9.89398 6.61972 8.72386 8.03046 8.72386 10.0324C8.72386 12.1941 10.0217 13.4566 11.9399 13.4566ZM11.9078 14.565C12.0846 14.565 12.2258 14.4238 12.2258 14.2408L12.2258 5.82577C12.2258 5.64902 12.0846 5.50956 11.9078 5.50956C11.7328 5.50956 11.5916 5.64902 11.5916 5.82577L11.5916 14.2408C11.5916 14.4238 11.7328 14.565 11.9078 14.565Z" fill="white" fill-opacity="0.85"/>
 </g>
</svg>
