<?xml version="1.0" encoding="UTF-8"?>
<!--Generator: Apple Native CoreSVG 341-->
<!DOCTYPE svg
PUBLIC "-//W3C//DTD SVG 1.1//EN"
       "http://www.w3.org/Graphics/SVG/1.1/DTD/svg11.dtd">
<svg version="1.1" xmlns="http://www.w3.org/2000/svg" xmlns:xlink="http://www.w3.org/1999/xlink" viewBox="0 0 19.9504 17.4535">
 <g>
  <rect height="17.4535" opacity="0" width="19.9504" x="0" y="0"/>
  <path d="M2.90547 5.82304L4.73417 5.82304L4.73417 2.55917C4.73417 2.11308 5.03007 1.82695 5.46015 1.82695L14.1191 1.82695C14.5572 1.82695 14.8469 2.11308 14.8469 2.55917L14.8469 5.82304L16.6756 5.82304L16.6756 2.52656C16.6756 1.00898 15.6861 0 14.2299 0L5.35742 0C3.89316 0 2.90547 1.00898 2.90547 2.52656ZM0 12.9865C0 14.456 0.971678 15.4312 2.41992 15.4312L17.1674 15.4312C18.6076 15.4312 19.5891 14.456 19.5891 12.9865L19.5891 7.01386C19.5891 5.55234 18.6076 4.56738 17.1674 4.56738L15.9949 4.56738C14.5467 4.56738 13.575 5.55234 13.575 7.01386L13.575 9.42734L6.01405 9.42734L6.01405 7.01386C6.01405 5.55234 5.03261 4.56738 3.59238 4.56738L2.41992 4.56738C0.971678 4.56738 0 5.55234 0 7.01386ZM1.84472 12.967L1.84472 7.03339C1.84472 6.64589 2.10429 6.39433 2.50156 6.39433L3.50898 6.39433C3.908 6.39433 4.16758 6.64589 4.16758 7.03339L4.16758 11.2543L15.4215 11.2543L15.4215 7.03339C15.4215 6.64589 15.6793 6.39433 16.0783 6.39433L17.0857 6.39433C17.483 6.39433 17.7443 6.64589 17.7443 7.03339L17.7443 12.967C17.7443 13.3545 17.483 13.6043 17.0857 13.6043L2.50156 13.6043C2.10429 13.6043 1.84472 13.3545 1.84472 12.967ZM3.59512 17.4375L4.2164 17.4375C4.75429 17.4375 5.1084 17.0949 5.1084 16.557L5.1084 14.4322L2.70312 14.4322L2.70312 16.557C2.70312 17.0949 3.05723 17.4375 3.59512 17.4375ZM15.3041 17.4375L15.9121 17.4375C16.4816 17.4375 16.8603 17.0668 16.8603 16.499L16.8603 14.3285L14.3576 14.3285L14.3576 16.499C14.3576 17.0668 14.7346 17.4375 15.3041 17.4375Z" fill="white" fill-opacity="0.85"/>
 </g>
</svg>
