<?xml version="1.0" encoding="UTF-8"?>
<!--Generator: Apple Native CoreSVG 341-->
<!DOCTYPE svg
PUBLIC "-//W3C//DTD SVG 1.1//EN"
       "http://www.w3.org/Graphics/SVG/1.1/DTD/svg11.dtd">
<svg version="1.1" xmlns="http://www.w3.org/2000/svg" xmlns:xlink="http://www.w3.org/1999/xlink" viewBox="0 0 19.9553 17.4535">
 <g>
  <rect height="17.4535" opacity="0" width="19.9553" x="0" y="0"/>
  <path d="M5.95018 9.2584L13.6438 9.2584L13.6438 7.34901C13.6438 5.48261 14.9121 4.11113 16.6994 4.11113L16.8139 4.11113L16.8139 2.26328C16.8139 0.903122 15.924 0 14.6154 0L4.98027 0C3.66367 0 2.77207 0.903122 2.77207 2.26328L2.77207 4.11113L2.88301 4.11113C4.67831 4.11113 5.95018 5.48437 5.95018 7.34901ZM0 13.16C0 14.4721 0.873826 15.3494 2.15663 15.3494L17.4338 15.3494C18.7103 15.3494 19.5939 14.4721 19.5939 13.16L19.5939 7.34901C19.5939 6.04491 18.7103 5.15781 17.4338 5.15781L16.9947 5.15781C15.7182 5.15781 14.8381 6.04491 14.8381 7.34901L14.8381 10.4527L4.74784 10.4527L4.74784 7.34901C4.74784 6.04491 3.87226 5.15781 2.58945 5.15781L2.15663 5.15781C0.873826 5.15781 0 6.04491 0 7.34901ZM3.50527 17.4375L4.13457 17.4375C4.67246 17.4375 5.02656 17.0949 5.02656 16.557L5.02656 14.4322L2.62129 14.4322L2.62129 16.557C2.62129 17.0949 2.96738 17.4375 3.50527 17.4375ZM15.3908 17.4375L16.0068 17.4375C16.5764 17.4375 16.9471 17.0668 16.9471 16.499L16.9471 14.3285L14.4443 14.3285L14.4443 16.499C14.4443 17.0668 14.8195 17.4375 15.3908 17.4375Z" fill="white" fill-opacity="0.85"/>
 </g>
</svg>
