<?xml version="1.0" encoding="UTF-8"?>
<!--Generator: Apple Native CoreSVG 341-->
<!DOCTYPE svg
PUBLIC "-//W3C//DTD SVG 1.1//EN"
       "http://www.w3.org/Graphics/SVG/1.1/DTD/svg11.dtd">
<svg version="1.1" xmlns="http://www.w3.org/2000/svg" xmlns:xlink="http://www.w3.org/1999/xlink" viewBox="0 0 17.114 21.1316">
 <g>
  <rect height="21.1316" opacity="0" width="17.114" x="0" y="0"/>
  <path d="M3.14745 21.1316L15.8502 21.1316C16.359 21.1316 16.7527 20.7459 16.7527 20.2291C16.7527 19.7959 16.4568 19.4773 16.0881 19.3119C14.8892 18.7832 14.6494 17.1299 15.8726 15.9566C16.3545 15.524 16.7457 15.042 16.7457 14.0549L16.7457 3.20703C16.7457 1.10547 15.6678 0.00175774 13.5742 0.00175774L3.17148 0.00175774C1.07968 0.00175774 0 1.09746 0 3.20703L0 17.9664C0 20.0519 1.08769 21.1316 3.14745 21.1316ZM1.91327 14.8543L1.91327 3.32597C1.91327 2.41796 2.38163 1.91678 3.32421 1.91678L13.4152 1.91678C14.3641 1.91678 14.8324 2.41796 14.8324 3.32597L14.8324 13.7662C14.8324 14.2373 14.5631 14.5067 14.0725 14.5067L3.39784 14.5067C2.81581 14.5067 2.32186 14.6258 1.91327 14.8543ZM3.39354 19.3203C2.358 19.3203 1.81659 18.7385 1.81659 17.8143C1.81659 16.9318 2.43983 16.318 3.46737 16.318L13.2355 16.318C13.3484 16.318 13.4551 16.31 13.5439 16.294C13.0691 17.3236 13.1297 18.44 13.6438 19.3203ZM3.06034 15.408L4.43983 15.408L4.43983 1.43573L3.06034 1.43573ZM6.98553 12.1402C7.35506 12.1402 7.60506 11.9516 7.74354 11.4924L8.26385 9.95918L11.06 9.95918L11.5785 11.4924C11.7107 11.9516 11.959 12.1402 12.3365 12.1402C12.7814 12.1402 13.0625 11.8689 13.0625 11.4453C13.0625 11.3078 13.0377 11.1545 12.9605 10.9418L10.8082 5.04999C10.6088 4.48574 10.2215 4.20488 9.65175 4.20488C9.0873 4.20488 8.71504 4.48398 8.51387 5.04999L6.35526 10.9418C6.28437 11.1545 6.25155 11.3078 6.25155 11.4453C6.25155 11.8689 6.53261 12.1402 6.98553 12.1402ZM8.60819 8.80469L9.61796 5.77148L9.70409 5.77148L10.7076 8.80469Z" fill="white" fill-opacity="0.85"/>
 </g>
</svg>
