<?xml version="1.0" encoding="UTF-8"?>
<!--Generator: Apple Native CoreSVG 341-->
<!DOCTYPE svg
PUBLIC "-//W3C//DTD SVG 1.1//EN"
       "http://www.w3.org/Graphics/SVG/1.1/DTD/svg11.dtd">
<svg version="1.1" xmlns="http://www.w3.org/2000/svg" xmlns:xlink="http://www.w3.org/1999/xlink" viewBox="0 0 12.7265 14.6613">
 <g>
  <rect height="14.6613" opacity="0" width="12.7265" x="0" y="0"/>
  <path d="M1.08046 14.6471C1.7369 14.6471 2.07518 14.3814 2.28709 13.6887L6.14354 2.49237L6.1994 2.49237L10.041 13.6887C10.2512 14.3814 10.5894 14.6471 11.2396 14.6471C11.9242 14.6471 12.3652 14.2361 12.3652 13.5984C12.3652 13.3639 12.3271 13.1602 12.2314 12.8971L7.90798 1.22186C7.61306 0.402926 7.05974 0 6.17108 0C5.32305 0 4.76524 0.396675 4.47657 1.21385L0.130273 12.9473C0.0398433 13.1981 0 13.4105 0 13.6188C0 14.2547 0.412691 14.6471 1.08046 14.6471ZM2.98964 10.6527L9.35448 10.6527C9.84803 10.6527 10.2539 10.2469 10.2539 9.75331C10.2539 9.25175 9.84803 8.8539 9.35448 8.8539L2.98964 8.8539C2.49609 8.8539 2.09024 9.25175 2.09024 9.75331C2.09024 10.2469 2.49609 10.6527 2.98964 10.6527Z" fill="white" fill-opacity="0.85"/>
 </g>
</svg>
