<?xml version="1.0" encoding="UTF-8"?>
<!--Generator: Apple Native CoreSVG 341-->
<!DOCTYPE svg
PUBLIC "-//W3C//DTD SVG 1.1//EN"
       "http://www.w3.org/Graphics/SVG/1.1/DTD/svg11.dtd">
<svg version="1.1" xmlns="http://www.w3.org/2000/svg" xmlns:xlink="http://www.w3.org/1999/xlink" viewBox="0 0 17.0754 25.0269">
 <g>
  <rect height="25.0269" opacity="0" width="17.0754" x="0" y="0"/>
  <path d="M3.25273 2.94902L3.25273 4.08203C3.25273 5.34238 4.1039 6.23613 5.34648 6.23613L11.3658 6.23613C12.6101 6.23613 13.4596 5.34238 13.4596 4.08203L13.4596 2.94902C13.4596 2.84492 13.4455 2.73809 13.4174 2.64981L13.6191 2.64981C15.6133 2.64981 16.7141 3.76035 16.7141 5.86738L16.7141 20.6502C16.7141 22.7572 15.6133 23.8678 13.5373 23.8678L3.17499 23.8678C1.09902 23.8678 0 22.7572 0 20.6502L0 5.86738C0 3.76035 1.09902 2.64981 3.09316 2.64981L3.29667 2.64981C3.26855 2.73809 3.25273 2.84492 3.25273 2.94902ZM3.98573 19.0445C3.61659 19.0445 3.32636 19.3348 3.32636 19.6906C3.32636 20.0545 3.6246 20.3482 3.98573 20.3482L9.04277 20.3482C9.39862 20.3482 9.68886 20.0545 9.68886 19.6906C9.68886 19.3348 9.40663 19.0445 9.04277 19.0445ZM3.98573 15.2654C3.61659 15.2654 3.32636 15.5477 3.32636 15.9018C3.32636 16.2674 3.61659 16.5611 3.98573 16.5611L12.7318 16.5611C13.0992 16.5611 13.3894 16.2674 13.3894 15.9018C13.3894 15.5477 13.0992 15.2654 12.7318 15.2654ZM11.4629 9.45468L8.74082 11.4539C8.60156 11.367 8.42148 11.3129 8.23164 11.3129C7.99023 11.3129 7.77812 11.399 7.60683 11.5473L5.2662 10.3443C5.26327 9.74726 4.79921 9.31269 4.24569 9.31269C3.67245 9.31269 3.22167 9.77499 3.22167 10.3465C3.22167 10.9064 3.67245 11.3705 4.24569 11.3705C4.45253 11.3705 4.64784 11.3057 4.80761 11.1982L7.22539 12.4553C7.27519 12.9891 7.72304 13.3689 8.23164 13.3689C8.72597 13.3689 9.26367 13.0211 9.26367 12.2978L12.0244 10.2642C12.1514 10.3291 12.3059 10.3664 12.4621 10.3664C13.0416 10.3664 13.4941 9.90234 13.4941 9.35038C13.4941 8.77265 13.0416 8.31035 12.4621 8.31035C11.907 8.31035 11.402 8.76933 11.4629 9.45468ZM10.5377 2.05469L11.3658 2.05469C11.9533 2.05469 12.3074 2.42832 12.3074 3.05664L12.3074 4.08203C12.3074 4.70859 11.9533 5.08398 11.3658 5.08398L5.34648 5.08398C4.76074 5.08398 4.40664 4.70859 4.40664 4.08203L4.40664 3.05664C4.40664 2.42832 4.76074 2.05469 5.34648 2.05469L6.17636 2.05469C6.25 0.91953 7.19257 0 8.35703 0C9.52148 0 10.4641 0.91953 10.5377 2.05469ZM7.49511 2.13633C7.49511 2.60058 7.88124 2.99648 8.35703 2.99648C8.83281 2.99648 9.21718 2.60058 9.21718 2.13633C9.21718 1.65429 8.83281 1.26816 8.35703 1.26816C7.88124 1.26816 7.49511 1.65429 7.49511 2.13633Z" fill="white" fill-opacity="0.85"/>
 </g>
</svg>
