<?xml version="1.0" encoding="UTF-8"?>
<!--Generator: Apple Native CoreSVG 341-->
<!DOCTYPE svg
PUBLIC "-//W3C//DTD SVG 1.1//EN"
       "http://www.w3.org/Graphics/SVG/1.1/DTD/svg11.dtd">
<svg version="1.1" xmlns="http://www.w3.org/2000/svg" xmlns:xlink="http://www.w3.org/1999/xlink" viewBox="0 0 14.8328 20.7035">
 <g>
  <rect height="20.7035" opacity="0" width="14.8328" x="0" y="0"/>
  <path d="M6.69784 20.676C10.4457 20.676 13.4037 17.7179 13.4037 13.9701C13.4037 10.2125 10.4457 7.26074 6.68808 7.26074C2.93847 7.26074 0 10.2125 0 13.9701C0 17.7179 2.95 20.676 6.69784 20.676ZM6.69784 18.7584C4.00936 18.7584 1.91581 16.6683 1.91581 13.9701C1.91581 11.2799 4.00761 9.1783 6.68808 9.1783C9.38456 9.1783 11.4861 11.2799 11.4861 13.9701C11.4861 16.6683 9.39433 18.7584 6.69784 18.7584ZM11.4861 13.9701L13.4037 13.9701L13.4037 2.76015L11.4861 2.76015ZM12.44 4.06464C13.5746 4.06464 14.4715 3.158 14.4715 2.0332C14.4715 0.906638 13.5746 0 12.44 0C11.3135 0 10.4068 0.906638 10.4068 2.0332C10.4068 3.158 11.3135 4.06464 12.44 4.06464Z" fill="white" fill-opacity="0.85"/>
 </g>
</svg>
