<?xml version="1.0" encoding="UTF-8"?>
<!--Generator: Apple Native CoreSVG 341-->
<!DOCTYPE svg
PUBLIC "-//W3C//DTD SVG 1.1//EN"
       "http://www.w3.org/Graphics/SVG/1.1/DTD/svg11.dtd">
<svg version="1.1" xmlns="http://www.w3.org/2000/svg" xmlns:xlink="http://www.w3.org/1999/xlink" viewBox="0 0 20.5381 20.1848">
 <g>
  <rect height="20.1848" opacity="0" width="20.5381" x="0" y="0"/>
  <path d="M20.1767 10.0973C20.1767 15.6656 15.6576 20.1848 10.0875 20.1848C4.52715 20.1848 0 15.6656 0 10.0973C0 4.53691 4.52715 0.00976562 10.0875 0.00976562C15.6576 0.00976562 20.1767 4.53691 20.1767 10.0973ZM4.63535 5.8662L4.63535 13.8258C4.63535 14.3527 4.97421 14.6934 5.49316 14.6934L14.8738 14.6934C15.2152 14.6934 15.5018 14.4148 15.5018 14.0752C15.5018 13.7258 15.2152 13.4473 14.8738 13.4473L5.96132 13.4473C5.90272 13.4473 5.87968 13.4162 5.87968 13.3479L5.87968 11.4078L7.74765 9.51601C7.80273 9.46093 7.8498 9.46093 7.89511 9.51601L9.57031 11.2523C9.81972 11.5018 10.0789 11.6225 10.3691 11.6225C10.6639 11.6225 10.9328 11.4937 11.1795 11.2523L13.0424 9.34863L13.7096 10.0318C13.9766 10.3068 14.4014 10.1596 14.5078 9.74882L15.235 6.90468C15.3334 6.5455 14.9955 6.2289 14.6318 6.32558L11.8002 7.04297C11.4037 7.1414 11.2422 7.56269 11.5207 7.83144L12.1871 8.48984L10.4437 10.2615C10.3984 10.3246 10.3594 10.3246 10.3123 10.2695L8.62109 8.5207C8.38144 8.26777 8.11874 8.14531 7.8205 8.14531C7.51601 8.14531 7.2746 8.27929 7.0332 8.5207L5.87968 9.68398L5.87968 5.8662C5.87968 5.5248 5.59491 5.23476 5.25526 5.23476C4.91386 5.23476 4.63535 5.52128 4.63535 5.8662Z" fill="white" fill-opacity="0.85"/>
 </g>
</svg>
