<?xml version="1.0" encoding="UTF-8"?>
<!--Generator: Apple Native CoreSVG 341-->
<!DOCTYPE svg
PUBLIC "-//W3C//DTD SVG 1.1//EN"
       "http://www.w3.org/Graphics/SVG/1.1/DTD/svg11.dtd">
<svg version="1.1" xmlns="http://www.w3.org/2000/svg" xmlns:xlink="http://www.w3.org/1999/xlink" viewBox="0 0 20.5381 20.1687">
 <g>
  <rect height="20.1687" opacity="0" width="20.5381" x="0" y="0"/>
  <path d="M10.0875 20.1687C12.4295 20.1687 14.6758 19.3447 16.4754 17.8572L9.37207 10.9117C9.16797 10.7236 9.10957 10.5506 9.10957 10.243L9.10957 0.0468743C4.02715 0.544333 0 4.8916 0 10.0812C0 15.6078 4.5707 20.1687 10.0875 20.1687ZM20.1767 10.0812C20.1767 8.6498 19.84 7.17284 19.2599 5.94394L11.3025 10.5127L17.6285 16.7394C19.2125 14.9756 20.1767 12.582 20.1767 10.0812ZM10.6625 9.07949L18.5082 4.57637C16.8055 1.93847 13.782 0.17617 10.6625 0.0123042Z" fill="white" fill-opacity="0.85"/>
 </g>
</svg>
