<?xml version="1.0" encoding="UTF-8"?>
<!--Generator: Apple Native CoreSVG 341-->
<!DOCTYPE svg
PUBLIC "-//W3C//DTD SVG 1.1//EN"
       "http://www.w3.org/Graphics/SVG/1.1/DTD/svg11.dtd">
<svg version="1.1" xmlns="http://www.w3.org/2000/svg" xmlns:xlink="http://www.w3.org/1999/xlink" viewBox="0 0 20.5381 20.1848">
 <g>
  <rect height="20.1848" opacity="0" width="20.5381" x="0" y="0"/>
  <path d="M20.1767 10.0973C20.1767 15.6656 15.6576 20.1848 10.0875 20.1848C4.52715 20.1848 0 15.6656 0 10.0973C0 4.53691 4.52715 0.00976562 10.0875 0.00976562C15.6576 0.00976562 20.1767 4.53691 20.1767 10.0973ZM4.66738 5.8662L4.66738 13.8258C4.66738 14.3527 5.01601 14.6934 5.53319 14.6934L14.9236 14.6934C15.265 14.6934 15.5436 14.4148 15.5436 14.0752C15.5436 13.7258 15.265 13.4473 14.9236 13.4473L6.03515 13.4473C5.95878 13.4473 5.91347 13.4002 5.91347 13.3238L5.91347 9.97812L12.16 9.97812L12.16 10.9262C12.16 11.3129 12.5725 11.5035 12.9361 11.2906L15.4463 9.78105C15.7674 9.59921 15.7691 9.13808 15.4543 8.95449L12.9281 7.45644C12.5582 7.24531 12.16 7.42793 12.16 7.81289L12.16 8.7707L5.91347 8.7707L5.91347 5.8662C5.91347 5.5248 5.64472 5.23476 5.29706 5.23476C4.9539 5.23476 4.66738 5.52128 4.66738 5.8662Z" fill="white" fill-opacity="0.85"/>
 </g>
</svg>
