<?xml version="1.0" encoding="UTF-8"?>
<!--Generator: Apple Native CoreSVG 341-->
<!DOCTYPE svg
PUBLIC "-//W3C//DTD SVG 1.1//EN"
       "http://www.w3.org/Graphics/SVG/1.1/DTD/svg11.dtd">
<svg version="1.1" xmlns="http://www.w3.org/2000/svg" xmlns:xlink="http://www.w3.org/1999/xlink" viewBox="0 0 37.6265 13.9301">
 <g>
  <rect height="13.9301" opacity="0" width="37.6265" x="0" y="0"/>
  <path d="M31.6289 13.8695C34.0712 13.8695 35.9802 12.8055 36.9007 11.0723C37.0994 10.6863 37.2236 10.3006 37.2236 9.91484C37.2236 9.34512 36.8117 8.94649 36.2349 8.94649C35.7628 8.94649 35.4882 9.13438 35.2066 9.69102C34.5861 11.1691 33.3554 11.9732 31.6306 11.9732C29.1376 11.9732 27.5517 10.0492 27.5517 6.9041C27.5517 3.81229 29.1474 1.89627 31.6289 1.89627C33.2867 1.89627 34.5851 2.86308 35.2177 4.39511C35.4861 4.92792 35.7919 5.12928 36.2845 5.12928C36.8683 5.12928 37.2652 4.75722 37.2652 4.17949C37.2652 3.89941 37.204 3.59531 37.0755 3.27246C36.3203 1.2666 34.1519 0 31.6289 0C27.7136 0 25.2595 2.64805 25.2595 6.91562C25.2595 11.2215 27.6994 13.8695 31.6289 13.8695Z" fill="white" fill-opacity="0.85"/>
  <path d="M14.4517 13.6414L19.1074 13.6414C22.065 13.6414 23.8933 12.1654 23.8933 9.92793C23.8933 8.06367 22.4966 6.74297 20.5845 6.57754L20.5845 6.51543C22.0906 6.27207 23.2052 5.00781 23.2052 3.48828C23.2052 1.55977 21.5578 0.239648 19.0181 0.239648L14.4517 0.239648C13.7822 0.239648 13.3402 0.656051 13.3402 1.34335L13.3402 12.5297C13.3402 13.2187 13.7822 13.6414 14.4517 13.6414ZM15.6086 5.94375L15.6086 2.00526L18.4533 2.00526C20.0295 2.00526 20.9633 2.7373 20.9633 3.83613C20.9633 5.16015 19.9201 5.94375 18.149 5.94375ZM15.6086 11.9033L15.6086 7.52987L18.4574 7.52987C20.4656 7.52987 21.5709 8.3205 21.5709 9.7625C21.5709 11.0904 20.5056 11.9033 18.575 11.9033Z" fill="white" fill-opacity="0.85"/>
  <path d="M1.02108 13.9096C1.6412 13.9096 1.96443 13.6332 2.16307 12.9883L3.19276 10.1133L8.4537 10.1133L9.49141 12.9883C9.6918 13.6332 10.0168 13.9096 10.6289 13.9096C11.2771 13.9096 11.6996 13.4977 11.6996 12.8918C11.6996 12.6705 11.665 12.4783 11.5773 12.2365L7.47595 1.18846C7.19431 0.412887 6.66756 0.00097692 5.83827 0.00097692C5.02559 0.00097692 4.50411 0.416403 4.22872 1.18046L0.120507 12.2832C0.0300777 12.5145 0 12.7137 0 12.9104C0 13.5082 0.387887 13.9096 1.02108 13.9096ZM3.70702 8.39238L5.80019 2.40038L5.84452 2.40038L7.93769 8.39238Z" fill="white" fill-opacity="0.85"/>
 </g>
</svg>
