<?xml version="1.0" encoding="UTF-8"?>
<!--Generator: Apple Native CoreSVG 341-->
<!DOCTYPE svg
PUBLIC "-//W3C//DTD SVG 1.1//EN"
       "http://www.w3.org/Graphics/SVG/1.1/DTD/svg11.dtd">
<svg version="1.1" xmlns="http://www.w3.org/2000/svg" xmlns:xlink="http://www.w3.org/1999/xlink" viewBox="0 0 24.373 18.2476">
 <g>
  <rect height="18.2476" opacity="0" width="24.373" x="0" y="0"/>
  <path d="M3.6416 18.2476L20.3701 18.2476C22.4877 18.2476 23.5754 17.16 23.5754 15.0762L23.5754 12.5504C23.5754 11.9512 23.2131 11.5853 22.6139 11.5853C22.0164 11.5853 21.6621 11.9512 21.6621 12.5504L21.6621 14.9154C21.6621 15.8643 21.1529 16.3344 20.2592 16.3344L3.76054 16.3344C2.85253 16.3344 2.35936 15.8643 2.35936 14.9154L2.35936 12.5504C2.35936 11.9512 1.98905 11.5853 1.39785 11.5853C0.808397 11.5853 0.446095 11.9512 0.446095 12.5504L0.446095 15.0762C0.446095 17.168 1.5418 18.2476 3.6416 18.2476ZM3.6416 0.0195312C1.5418 0.0195312 0.446095 1.09746 0.446095 3.19101L0.446095 5.30586C0.446095 5.90508 0.808397 6.2789 1.39785 6.2789C1.98905 6.2789 2.35936 5.90508 2.35936 5.30586L2.35936 3.34999C2.35936 2.40116 2.85253 1.9328 3.76054 1.9328L20.2592 1.9328C21.1529 1.9328 21.6621 2.40116 21.6621 3.34999L21.6621 5.30586C21.6621 5.90508 22.0244 6.2789 22.6139 6.2789C23.2211 6.2789 23.5754 5.90508 23.5754 5.30586L23.5754 3.19101C23.5754 1.10547 22.4877 0.0195312 20.3701 0.0195312ZM1.39785 10.3211C2.17128 10.3211 2.79745 9.6869 2.79745 8.91347C2.79745 8.1498 2.17128 7.52363 1.39785 7.52363C0.634177 7.52363 0 8.1498 0 8.91347C0 9.6869 0.634177 10.3211 1.39785 10.3211ZM22.6139 10.3211C23.3793 10.3211 24.0117 9.6869 24.0117 8.91347C24.0117 8.1498 23.3793 7.52363 22.6139 7.52363C21.8422 7.52363 21.216 8.14179 21.216 8.91347C21.216 9.6869 21.8422 10.3211 22.6139 10.3211Z" fill="white" fill-opacity="0.85"/>
  <path d="M8.90429 13.6957C9.33847 13.6957 9.62831 13.477 9.78183 12.9318L10.384 11.1541L13.6393 11.1541L14.2414 12.9318C14.3949 13.4689 14.6928 13.6957 15.127 13.6957C15.648 13.6957 15.9867 13.3686 15.9867 12.8848C15.9867 12.7145 15.9521 12.5426 15.8617 12.2856L13.3611 5.43807C13.1236 4.77382 12.6717 4.44159 11.9975 4.44159C11.3383 4.44159 10.9014 4.77206 10.6701 5.43807L8.16152 12.2856C8.0791 12.5426 8.03652 12.7145 8.03652 12.8768C8.03652 13.3766 8.37344 13.6957 8.90429 13.6957ZM10.7984 9.80468L11.9619 6.27147L12.0693 6.27147L13.2311 9.80468Z" fill="white" fill-opacity="0.85"/>
 </g>
</svg>
