<?xml version="1.0" encoding="UTF-8"?>
<!--Generator: Apple Native CoreSVG 341-->
<!DOCTYPE svg
PUBLIC "-//W3C//DTD SVG 1.1//EN"
       "http://www.w3.org/Graphics/SVG/1.1/DTD/svg11.dtd">
<svg version="1.1" xmlns="http://www.w3.org/2000/svg" xmlns:xlink="http://www.w3.org/1999/xlink" viewBox="0 0 17.0754 25.0269">
 <g>
  <rect height="25.0269" opacity="0" width="17.0754" x="0" y="0"/>
  <path d="M3.17499 23.8678L13.5373 23.8678C15.6133 23.8678 16.7141 22.7572 16.7141 20.6502L16.7141 5.87539C16.7141 3.81016 15.6471 2.65782 13.6271 2.65782L13.4068 2.65782C13.443 2.77988 13.457 2.91875 13.457 3.05664L13.457 3.96191C13.457 4.16386 13.435 4.36054 13.381 4.53065L13.5873 4.53065C14.4156 4.53065 14.8412 5.06835 14.8412 5.89492L14.8412 20.6307C14.8412 21.5053 14.3658 21.9949 13.4557 21.9949L3.25839 21.9949C2.34647 21.9949 1.87284 21.5053 1.87284 20.6307L1.87284 5.89492C1.87284 5.06835 2.29843 4.53065 3.12675 4.53065L3.33124 4.53065C3.27734 4.36054 3.25527 4.16386 3.25527 3.96191L3.25527 3.05664C3.25527 2.91875 3.26933 2.77988 3.30722 2.65782L3.08515 2.65782C1.06699 2.65782 0 3.81016 0 5.87539L0 20.6502C0 22.7572 1.09902 23.8678 3.17499 23.8678ZM5.34648 5.08398L11.3658 5.08398C11.9533 5.08398 12.3074 4.70859 12.3074 4.08203L12.3074 3.05664C12.3074 2.42832 11.9533 2.05469 11.3658 2.05469L10.5377 2.05469C10.4641 0.91953 9.52148 0 8.35703 0C7.19257 0 6.25 0.91953 6.17636 2.05469L5.34648 2.05469C4.76074 2.05469 4.40664 2.42832 4.40664 3.05664L4.40664 4.08203C4.40664 4.70859 4.76074 5.08398 5.34648 5.08398ZM8.35703 2.99648C7.88124 2.99648 7.49511 2.60058 7.49511 2.13633C7.49511 1.65429 7.88124 1.26816 8.35703 1.26816C8.83281 1.26816 9.21718 1.65429 9.21718 2.13633C9.21718 2.60058 8.83281 2.99648 8.35703 2.99648Z" fill="white" fill-opacity="0.85"/>
  <path d="M4.14882 15.3686L12.5687 15.3686C12.9211 15.3686 13.198 15.0898 13.198 14.7375C13.198 14.3949 12.9211 14.1242 12.5687 14.1242L4.14882 14.1242C3.79472 14.1242 3.51601 14.3949 3.51601 14.7375C3.51601 15.0898 3.79472 15.3686 4.14882 15.3686ZM4.14882 19.0104L9.01445 19.0104C9.35702 19.0104 9.63573 18.7299 9.63573 18.3855C9.63573 18.0447 9.36679 17.766 9.01445 17.766L4.14882 17.766C3.79472 17.766 3.51601 18.0447 3.51601 18.3855C3.51601 18.7299 3.80273 19.0104 4.14882 19.0104ZM4.39726 10.3275C4.94569 10.3275 5.38143 9.88828 5.38143 9.34336C5.38143 8.79844 4.94569 8.35918 4.39726 8.35918C3.84882 8.35918 3.41483 8.79844 3.41483 9.34336C3.41483 9.88828 3.84882 10.3275 4.39726 10.3275ZM3.95702 9.64414L8.10097 11.8078L8.59433 10.9965L4.43358 8.83906ZM8.23867 12.2516C8.79336 12.2516 9.2291 11.8123 9.2291 11.2691C9.2291 10.7225 8.79336 10.2832 8.23867 10.2832C7.69824 10.2832 7.2625 10.7225 7.2625 11.2691C7.2625 11.8123 7.69824 12.2516 8.23867 12.2516ZM8.02226 10.9396L8.56191 11.7012L12.6873 8.66933L12.1344 7.90957ZM12.3105 9.36152C12.8652 9.36152 13.301 8.9205 13.301 8.37734C13.301 7.83242 12.8652 7.39141 12.3105 7.39141C11.7701 7.39141 11.3344 7.83242 11.3344 8.37734C11.3344 8.9205 11.7701 9.36152 12.3105 9.36152Z" fill="white" fill-opacity="0.85"/>
 </g>
</svg>
