<?xml version="1.0" encoding="UTF-8"?>
<!--Generator: Apple Native CoreSVG 341-->
<!DOCTYPE svg
PUBLIC "-//W3C//DTD SVG 1.1//EN"
       "http://www.w3.org/Graphics/SVG/1.1/DTD/svg11.dtd">
<svg version="1.1" xmlns="http://www.w3.org/2000/svg" xmlns:xlink="http://www.w3.org/1999/xlink" viewBox="0 0 17.107 21.1441">
 <g>
  <rect height="21.1441" opacity="0" width="17.107" x="0" y="0"/>
  <path d="M16.7457 3.20527L16.7457 17.9406C16.7457 20.0502 15.6678 21.1379 13.5742 21.1379L3.17148 21.1379C1.07968 21.1379 0 20.0502 0 17.9406L0 3.20527C0 1.10371 1.07968 0 3.17148 0L13.5742 0C15.6678 0 16.7457 1.10371 16.7457 3.20527ZM3.86542 14.7795C3.44042 14.7795 3.18319 15.051 3.18319 15.4822L3.18319 17.0357C3.18319 17.459 3.44042 17.7385 3.86542 17.7385L8.24257 17.7385C8.65155 17.7385 8.9203 17.459 8.9203 17.0357L8.9203 15.4822C8.9203 15.051 8.65155 14.7795 8.24257 14.7795ZM3.86542 10.9848C3.44042 10.9848 3.18319 11.2465 3.18319 11.6715L3.18319 13.233C3.18319 13.6643 3.44042 13.9295 3.86542 13.9295L11.2727 13.9295C11.6896 13.9295 11.9451 13.6643 11.9451 13.233L11.9451 11.6715C11.9451 11.2465 11.6896 10.9848 11.2727 10.9848ZM3.86542 7.17753C3.44042 7.17753 3.18319 7.45078 3.18319 7.88203L3.18319 9.43379C3.18319 9.86679 3.44042 10.1383 3.86542 10.1383L12.8963 10.1383C13.3133 10.1383 13.5705 9.86679 13.5705 9.43379L13.5705 7.88203C13.5705 7.45078 13.3133 7.17753 12.8963 7.17753ZM3.86542 3.38456C3.44042 3.38456 3.18319 3.65605 3.18319 4.0873L3.18319 5.64082C3.18319 6.06406 3.44042 6.34355 3.86542 6.34355L9.73046 6.34355C10.1475 6.34355 10.4064 6.06406 10.4064 5.64082L10.4064 4.0873C10.4064 3.65605 10.1475 3.38456 9.73046 3.38456Z" fill="white" fill-opacity="0.85"/>
 </g>
</svg>
