<?xml version="1.0" encoding="UTF-8"?>
<!--Generator: Apple Native CoreSVG 341-->
<!DOCTYPE svg
PUBLIC "-//W3C//DTD SVG 1.1//EN"
       "http://www.w3.org/Graphics/SVG/1.1/DTD/svg11.dtd">
<svg version="1.1" xmlns="http://www.w3.org/2000/svg" xmlns:xlink="http://www.w3.org/1999/xlink" viewBox="0 0 21.7635 18.5535">
 <g>
  <rect height="18.5535" opacity="0" width="21.7635" x="0" y="0"/>
  <path d="M12.749 3.57325L16.7545 7.60639L15.4081 8.95934L11.6064 5.09882C11.5221 5.02245 11.4244 4.97538 11.3418 4.97538C11.2672 4.97538 11.1695 5.01445 11.0851 5.10058L7.59686 8.7084C7.14257 9.17949 6.683 9.38984 6.19413 9.38984C5.70702 9.38984 5.26073 9.19726 4.79316 8.7084L1.91327 5.78223L1.91327 3.04698L5.93573 7.1793C6.02011 7.27344 6.108 7.31426 6.19237 7.31426C6.27499 7.31426 6.36464 7.2752 6.44901 7.1793L9.9373 3.575C10.3836 3.10391 10.8512 2.8918 11.34 2.8918C11.8351 2.8918 12.2832 3.11368 12.749 3.57325Z" fill="white" fill-opacity="0.85"/>
  <path d="M19.4342 6.48535L20.9041 12.2326C21.0459 12.7795 20.5656 13.2322 20.0365 13.0904L14.299 11.6338C13.7096 11.4725 13.4578 10.9072 13.8779 10.4969L18.2875 6.06601C18.7058 5.64766 19.2826 5.89766 19.4342 6.48535Z" fill="white" fill-opacity="0.85"/>
  <path d="M0 17.724C0 18.2262 0.335351 18.5535 0.839255 18.5535L20.3967 18.5535C20.9318 18.5535 21.3652 18.1484 21.3652 17.6017C21.3652 17.0631 20.9318 16.6482 20.3967 16.6482L2.18319 16.6482C1.9869 16.6482 1.91327 16.5746 1.91327 16.3783L1.91327 1.01621C1.91327 0.489062 1.50018 0.0539088 0.961516 0.0539088C0.414841 0.0539088 0 0.489062 0 1.01621Z" fill="white" fill-opacity="0.85"/>
 </g>
</svg>
