<?xml version="1.0" encoding="UTF-8"?>
<!--Generator: Apple Native CoreSVG 341-->
<!DOCTYPE svg
PUBLIC "-//W3C//DTD SVG 1.1//EN"
       "http://www.w3.org/Graphics/SVG/1.1/DTD/svg11.dtd">
<svg version="1.1" xmlns="http://www.w3.org/2000/svg" xmlns:xlink="http://www.w3.org/1999/xlink" viewBox="0 0 21.7265 18.5535">
 <g>
  <rect height="18.5535" opacity="0" width="21.7265" x="0" y="0"/>
  <path d="M14.2715 7.56739L14.2715 9.47988L1.91327 9.47988L1.91327 7.56739Z" fill="white" fill-opacity="0.85"/>
  <path d="M15.3695 4.88438L20.457 7.90821C20.9383 8.19805 20.9525 8.8457 20.465 9.13378L15.381 12.1629C14.8492 12.4723 14.2715 12.2518 14.2715 11.657L14.2715 5.39199C14.2715 4.80703 14.8412 4.58301 15.3695 4.88438Z" fill="white" fill-opacity="0.85"/>
  <path d="M0 17.724C0 18.2262 0.335351 18.5535 0.839255 18.5535L20.3967 18.5535C20.9301 18.5535 21.3652 18.1484 21.3652 17.6017C21.3652 17.0631 20.9301 16.6482 20.3967 16.6482L2.18319 16.6482C1.9869 16.6482 1.91327 16.5746 1.91327 16.3783L1.91327 1.01621C1.91327 0.489062 1.50018 0.0539088 0.961516 0.0539088C0.413083 0.0539088 0 0.489062 0 1.01621Z" fill="white" fill-opacity="0.85"/>
 </g>
</svg>
