<?xml version="1.0" encoding="UTF-8"?>
<!--Generator: Apple Native CoreSVG 341-->
<!DOCTYPE svg
PUBLIC "-//W3C//DTD SVG 1.1//EN"
       "http://www.w3.org/Graphics/SVG/1.1/DTD/svg11.dtd">
<svg version="1.1" xmlns="http://www.w3.org/2000/svg" xmlns:xlink="http://www.w3.org/1999/xlink" viewBox="0 0 18.573 18.2195">
 <g>
  <rect height="18.2195" opacity="0" width="18.573" x="0" y="0"/>
  <path d="M16.8109 1.39277C17.7262 2.29824 18.2117 3.64141 18.2117 5.35039L18.2117 12.8621C18.2117 14.5693 17.7262 15.9143 16.8109 16.818C15.9232 17.7092 14.5801 18.2107 12.8631 18.2107L5.34238 18.2107C3.6334 18.2107 2.28848 17.7172 1.39277 16.818C0.477539 15.9143 0 14.5693 0 12.8621L0 5.35039C0 3.64141 0.485547 2.29824 1.39277 1.39277C2.28047 0.50332 3.6334 0 5.34238 0L12.8631 0C14.5801 0 15.9152 0.495312 16.8109 1.39277ZM12.0154 5.25429L7.96933 11.7197L6.0871 9.32988C5.84394 9.00761 5.60175 8.9039 5.30195 8.9039C4.79824 8.9039 4.40195 9.30742 4.40195 9.80488C4.40195 10.0523 4.4916 10.2777 4.66621 10.5012L7.06113 13.4123C7.34062 13.7664 7.63418 13.926 8.01113 13.926C8.3748 13.926 8.68515 13.7469 8.9078 13.4053L13.4783 6.28769C13.6211 6.06327 13.7312 5.8246 13.7312 5.59921C13.7312 5.08749 13.2914 4.74531 12.8037 4.74531C12.4961 4.74531 12.2211 4.92089 12.0154 5.25429Z" fill="white" fill-opacity="0.85"/>
 </g>
</svg>
