<?xml version="1.0" encoding="UTF-8"?>
<!--Generator: Apple Native CoreSVG 341-->
<!DOCTYPE svg
PUBLIC "-//W3C//DTD SVG 1.1//EN"
       "http://www.w3.org/Graphics/SVG/1.1/DTD/svg11.dtd">
<svg version="1.1" xmlns="http://www.w3.org/2000/svg" xmlns:xlink="http://www.w3.org/1999/xlink" viewBox="0 0 17.107 21.1441">
 <g>
  <rect height="21.1441" opacity="0" width="17.107" x="0" y="0"/>
  <path d="M4.63866 13.776C4.26327 13.776 3.97929 13.484 3.97929 13.1184C3.97929 12.7607 4.26327 12.4883 4.63866 12.4883L12.123 12.4883C12.4949 12.4883 12.7691 12.7607 12.7691 13.1184C12.7691 13.484 12.4949 13.776 12.123 13.776ZM4.63866 16.726C4.26327 16.726 3.97929 16.4518 3.97929 16.0977C3.97929 15.7223 4.26327 15.4303 4.63866 15.4303L8.25038 15.4303C8.63026 15.4303 8.89647 15.7223 8.89647 16.0977C8.89647 16.4518 8.63026 16.726 8.25038 16.726ZM6.21034 10.1129C5.58085 10.1129 5.2746 9.81465 5.2746 9.1914L5.2746 8.43828C5.2746 8.36718 5.26659 8.31562 5.208 8.26679L4.67421 7.72675C4.22675 7.28554 4.22675 6.85234 4.67421 6.40488L5.208 5.87109C5.26659 5.82577 5.2746 5.77245 5.2746 5.70937L5.2746 4.958C5.2746 4.31523 5.57733 4.02499 6.21034 4.02499L6.96523 4.02499C7.03456 4.02499 7.08613 4.00097 7.13144 3.94765L7.67499 3.42987C8.11796 2.97265 8.54589 2.96464 8.98886 3.42987L9.53242 3.94765C9.58574 3.98495 9.62304 4.02499 9.69062 4.02499L10.4375 4.02499C11.0768 4.02499 11.375 4.32323 11.375 4.958L11.375 5.70937C11.375 5.77245 11.3865 5.82402 11.4478 5.87109L11.9736 6.40488C12.4291 6.85234 12.4291 7.28554 11.9736 7.72675L11.4478 8.26679C11.3865 8.31562 11.375 8.36718 11.375 8.43828L11.375 9.1914C11.375 9.81465 11.0705 10.1129 10.4375 10.1129L9.69062 10.1129C9.62304 10.1129 9.58574 10.1449 9.53242 10.192L8.98886 10.7178C8.54589 11.167 8.11796 11.175 7.67499 10.7178L7.13144 10.192C7.07812 10.1369 7.03456 10.1129 6.96523 10.1129ZM7.93671 8.89746C8.10097 8.89746 8.25722 8.82734 8.35488 8.65859L9.9916 6.10956C10.0422 6.02792 10.0937 5.91249 10.0937 5.80234C10.0937 5.5582 9.88867 5.39667 9.6623 5.39667C9.50605 5.39667 9.3791 5.49609 9.2957 5.63632L7.91894 7.81875L7.3371 7.08847C7.21718 6.95527 7.108 6.88242 6.9748 6.88242C6.71464 6.88242 6.53358 7.08398 6.53358 7.32187C6.53358 7.42753 6.58065 7.54296 6.66054 7.6246L7.51855 8.66836C7.64999 8.82734 7.7787 8.89746 7.93671 8.89746ZM0 17.9406C0 20.0502 1.07968 21.1379 3.17148 21.1379L13.5742 21.1379C15.6678 21.1379 16.7457 20.0502 16.7457 17.9406L16.7457 3.20527C16.7457 1.10371 15.6678 0 13.5742 0L3.17148 0C1.07968 0 0 1.10371 0 3.20527Z" fill="white" fill-opacity="0.85"/>
 </g>
</svg>
