<?xml version="1.0" encoding="UTF-8"?>
<!--Generator: Apple Native CoreSVG 341-->
<!DOCTYPE svg
PUBLIC "-//W3C//DTD SVG 1.1//EN"
       "http://www.w3.org/Graphics/SVG/1.1/DTD/svg11.dtd">
<svg version="1.1" xmlns="http://www.w3.org/2000/svg" xmlns:xlink="http://www.w3.org/1999/xlink" viewBox="0 0 24.1775 25.2707">
 <g>
  <rect height="25.2707" opacity="0" width="24.1775" x="0" y="0"/>
  <path d="M18.0952 2.88261L5.72099 2.88261C5.75663 2.04585 6.28265 1.56055 7.15234 1.56055L16.6639 1.56055C17.5336 1.56055 18.0596 2.04585 18.0952 2.88261Z" fill="white" fill-opacity="0.85"/>
  <path d="M20.07 5.78717C19.7399 5.73352 19.3903 5.70644 19.0228 5.70644L4.79335 5.70644C4.42595 5.70644 4.07642 5.73351 3.74638 5.78715C3.85387 4.80443 4.52056 4.24765 5.59745 4.24765L18.2268 4.24765C19.3037 4.24765 19.9637 4.80444 20.07 5.78717Z" fill="white" fill-opacity="0.85"/>
  <path d="M22.2264 10.4678L22.2264 20.5111C22.2264 22.5949 21.1307 23.6826 19.0228 23.6826L4.79335 23.6826C2.68379 23.6826 1.58984 22.5949 1.58984 20.5111L1.58984 10.4678C1.58984 8.38221 2.68379 7.29628 4.79335 7.29628L19.0228 7.29628C21.1307 7.29628 22.2264 8.38221 22.2264 10.4678ZM14.8279 11.6455L10.7916 18.1109L8.90937 15.7193C8.65644 15.3988 8.41601 15.2853 8.11445 15.2853C7.61875 15.2853 7.22422 15.6889 7.22422 16.1961C7.22422 16.4355 7.31386 16.6689 7.48672 16.8924L9.87363 19.8017C10.1531 20.1558 10.4467 20.3074 10.8236 20.3074C11.1891 20.3074 11.5057 20.1301 11.7203 19.7965L16.2988 12.6691C16.4336 12.4545 16.5535 12.214 16.5535 11.9806C16.5535 11.4769 16.1039 11.1348 15.6162 11.1348C15.3104 11.1348 15.0336 11.3041 14.8279 11.6455Z" fill="white" fill-opacity="0.85"/>
 </g>
</svg>
