<?xml version="1.0" encoding="UTF-8"?>
<!--Generator: Apple Native CoreSVG 341-->
<!DOCTYPE svg
PUBLIC "-//W3C//DTD SVG 1.1//EN"
       "http://www.w3.org/Graphics/SVG/1.1/DTD/svg11.dtd">
<svg version="1.1" xmlns="http://www.w3.org/2000/svg" xmlns:xlink="http://www.w3.org/1999/xlink" viewBox="0 0 22.2363 21.8605">
 <g>
  <rect height="21.8605" opacity="0" width="22.2363" x="0" y="0"/>
  <path d="M21.875 5.83047L21.875 13.4041C21.875 16.3023 20.2281 17.983 17.2898 17.983L10.8412 17.983L7.26835 21.2162C6.78124 21.6652 6.46991 21.8605 6.0662 21.8605C5.47792 21.8605 5.1373 21.4426 5.1373 20.8002L5.1373 17.983L4.52363 17.983C1.6873 17.983 0 16.3103 0 13.4041L0 5.83047C0 2.92422 1.64687 1.24356 4.58515 1.24356L17.2898 1.24356C20.2281 1.24356 21.875 2.93223 21.875 5.83047ZM13.8631 5.76132L9.81698 12.2268L7.93475 9.83515C7.69159 9.51465 7.4494 9.40918 7.1496 9.40918C6.64589 9.40918 6.25761 9.81269 6.25761 10.3119C6.25761 10.5594 6.34101 10.7848 6.51386 11.0082L8.90878 13.9176C9.18828 14.2717 9.48183 14.4312 9.85878 14.4312C10.2225 14.4312 10.5408 14.2539 10.7555 13.9123L15.326 6.79296C15.4687 6.57831 15.5869 6.32988 15.5869 6.10449C15.5869 5.59277 15.1391 5.25058 14.6514 5.25058C14.3437 5.25058 14.0687 5.42793 13.8631 5.76132Z" fill="white" fill-opacity="0.85"/>
 </g>
</svg>
