<?xml version="1.0" encoding="UTF-8"?>
<!--Generator: Apple Native CoreSVG 341-->
<!DOCTYPE svg
PUBLIC "-//W3C//DTD SVG 1.1//EN"
       "http://www.w3.org/Graphics/SVG/1.1/DTD/svg11.dtd">
<svg version="1.1" xmlns="http://www.w3.org/2000/svg" xmlns:xlink="http://www.w3.org/1999/xlink" viewBox="0 0 22.7586 19.9457">
 <g>
  <rect height="19.9457" opacity="0" width="22.7586" x="0" y="0"/>
  <path d="M11.7558 16.5637L21.4681 16.5637C21.9814 16.5637 22.3972 16.1498 22.3972 15.6418C22.3972 15.1205 21.9832 14.7119 21.4681 14.7119L11.7558 14.7119C11.2346 14.7119 10.8348 15.124 10.8348 15.6418C10.8348 16.1463 11.2363 16.5637 11.7558 16.5637Z" fill="white" fill-opacity="0.85"/>
  <path d="M4.3039 19.9457C6.65331 19.9457 8.60605 17.993 8.60605 15.6418C8.60605 13.2781 6.65331 11.3334 4.3039 11.3334C1.94297 11.3334 0 13.2861 0 15.6418C0 17.993 1.95098 19.9457 4.3039 19.9457ZM4.3039 18.2897C2.8623 18.2897 1.6578 17.0754 1.6578 15.6418C1.6578 14.2037 2.87031 12.9894 4.3039 12.9894C5.73574 12.9894 6.95 14.2037 6.95 15.6418C6.95 17.0754 5.73574 18.2897 4.3039 18.2897Z" fill="white" fill-opacity="0.85"/>
  <path d="M11.7558 5.26757L21.4681 5.26757C21.9814 5.26757 22.3972 4.8457 22.3972 4.33769C22.3972 3.82441 21.9832 3.41582 21.4681 3.41582L11.7558 3.41582C11.2346 3.41582 10.8348 3.82793 10.8348 4.33769C10.8348 4.84218 11.2363 5.26757 11.7558 5.26757Z" fill="white" fill-opacity="0.85"/>
  <path d="M4.3039 8.64159C6.65331 8.64159 8.60605 6.68085 8.60605 4.32968C8.60605 1.97226 6.65331 0.0292969 4.3039 0.0292969C1.94297 0.0292969 0 1.97226 0 4.32968C0 6.68085 1.95098 8.64159 4.3039 8.64159ZM3.79179 6.6498C3.57441 6.6498 3.42012 6.5371 3.27012 6.36406L2.17812 5.05273C2.07969 4.92499 2.03711 4.81406 2.03711 4.65429C2.03711 4.34824 2.26953 4.10781 2.55605 4.10781C2.75214 4.10781 2.88886 4.18945 3.02285 4.35722L3.77578 5.29414L5.5123 2.50996C5.63828 2.3166 5.79707 2.21367 5.98867 2.21367C6.28496 2.21367 6.53867 2.44258 6.53867 2.71308C6.53867 2.85156 6.4996 2.97226 6.40644 3.12578L4.32324 6.35703C4.20527 6.54335 4.01543 6.6498 3.79179 6.6498Z" fill="white" fill-opacity="0.85"/>
 </g>
</svg>
