<?xml version="1.0" encoding="UTF-8"?>
<!--Generator: Apple Native CoreSVG 341-->
<!DOCTYPE svg
PUBLIC "-//W3C//DTD SVG 1.1//EN"
       "http://www.w3.org/Graphics/SVG/1.1/DTD/svg11.dtd">
<svg version="1.1" xmlns="http://www.w3.org/2000/svg" xmlns:xlink="http://www.w3.org/1999/xlink" viewBox="0 0 16.584 19.8398">
 <g>
  <rect height="19.8398" opacity="0" width="16.584" x="0" y="0"/>
  <path d="M9.11698 0.462304C10.1637 0.816016 13.7562 2.09317 14.8285 2.53379C15.7859 2.93535 16.2226 3.34375 16.2226 4.47968L16.2226 11.7463C16.2226 15.2504 14.381 16.7635 8.78574 19.6455C8.53808 19.7725 8.28339 19.8398 8.11132 19.8398C7.94101 19.8398 7.69257 19.7805 7.43691 19.6455C1.92519 16.6238 0 15.2504 0 11.7463L0 4.47968C0 3.34375 0.446484 2.92559 1.39589 2.53379C2.46816 2.10117 6.05898 0.8 7.11367 0.462304C7.42734 0.368359 7.78691 0.299219 8.11132 0.299219C8.43749 0.299219 8.79706 0.360351 9.11698 0.462304ZM11.0369 5.79785L6.99882 12.2615L5.11034 9.87168C4.86542 9.55117 4.62499 9.4377 4.32343 9.4377C3.81972 9.4377 3.43144 9.84121 3.43144 10.3467C3.43144 10.5861 3.52285 10.8195 3.6957 11.043L6.08262 13.9541C6.36211 14.3082 6.65566 14.4598 7.03261 14.4598C7.39628 14.4598 7.71464 14.2824 7.92929 13.9471L12.5078 6.82148C12.6426 6.60683 12.7625 6.3664 12.7625 6.13301C12.7625 5.6293 12.3129 5.28711 11.8252 5.28711C11.5193 5.28711 11.2426 5.45469 11.0369 5.79785Z" fill="white" fill-opacity="0.85"/>
 </g>
</svg>
