<?xml version="1.0" encoding="UTF-8"?>
<!--Generator: Apple Native CoreSVG 341-->
<!DOCTYPE svg
PUBLIC "-//W3C//DTD SVG 1.1//EN"
       "http://www.w3.org/Graphics/SVG/1.1/DTD/svg11.dtd">
<svg version="1.1" xmlns="http://www.w3.org/2000/svg" xmlns:xlink="http://www.w3.org/1999/xlink" viewBox="0 0 22.6856 22.4088">
 <g>
  <rect height="22.4088" opacity="0" width="22.6856" x="0" y="0"/>
  <path d="M5.25959 19.7081L7.34612 19.7081C7.53713 19.7081 7.67131 19.7596 7.81077 19.8991L9.29534 21.3757C10.5627 22.6511 11.758 22.643 13.0254 21.3757L14.51 19.8991C14.6477 19.7596 14.7836 19.7081 14.9746 19.7081L17.0612 19.7081C18.8602 19.7081 19.7076 18.8669 19.7076 17.0616L19.7076 14.9751C19.7076 14.7841 19.7627 14.6544 19.8987 14.5104L21.3672 13.0259C22.6426 11.7585 22.6346 10.5712 21.3672 9.29578L19.8987 7.81121C19.7592 7.67176 19.7076 7.53758 19.7076 7.35457L19.7076 5.26004C19.7076 3.46903 18.8664 2.61356 17.0612 2.61356L14.9746 2.61356C14.7836 2.61356 14.6459 2.56649 14.51 2.43055L13.0254 0.953987C11.7545-0.324918 10.5662-0.311637 9.29534 0.955744L7.81077 2.43055C7.67307 2.56649 7.53713 2.61356 7.34612 2.61356L5.25959 2.61356C3.46057 2.61356 2.61311 3.44949 2.61311 5.26004L2.61311 7.35457C2.61311 7.53758 2.56604 7.67352 2.4301 7.81121L0.953541 9.29578C-0.321848 10.5712-0.31384 11.7585 0.953541 13.0259L2.4301 14.5104C2.56604 14.6544 2.61311 14.7841 2.61311 14.9751L2.61311 17.0616C2.61311 18.8606 3.46233 19.7081 5.25959 19.7081ZM5.38791 17.9339C4.52756 17.9339 4.38908 17.7954 4.38732 16.9333L4.38732 14.3819C4.38732 14.0925 4.30295 13.8749 4.09338 13.6636L2.29513 11.8751C1.68517 11.2554 1.68517 11.0778 2.29513 10.4581L4.09338 8.66961C4.30295 8.45828 4.38732 8.2407 4.38908 7.94324L4.38908 5.39011C4.38908 4.51999 4.51779 4.39128 5.38791 4.39128L7.94104 4.38953C8.2385 4.38953 8.45783 4.3114 8.6674 4.09558L10.4559 2.29734C11.0739 1.68737 11.2514 1.68562 11.8631 2.29734L13.6614 4.09558C13.8612 4.3114 14.0903 4.38953 14.378 4.38953L16.9311 4.39128C17.7932 4.39128 17.9317 4.52976 17.9317 5.39011L17.9317 7.94324C17.9334 8.2407 18.0258 8.45828 18.2354 8.66961L20.0336 10.4581C20.6436 11.0778 20.6436 11.2554 20.0336 11.8751L18.2354 13.6636C18.0258 13.8749 17.9334 14.0925 17.9334 14.3819L17.9317 16.9333C17.9317 17.7954 17.7932 17.9339 16.9311 17.9339L14.378 17.9356C14.0903 17.9356 13.8664 18.0165 13.6614 18.2376L11.8631 20.0358C11.2531 20.6458 11.0739 20.6458 10.4559 20.0358L8.6674 18.2376C8.45432 18.0165 8.2385 17.9356 7.94104 17.9356Z" fill="white" fill-opacity="0.85"/>
  <path d="M10.1149 15.8016C10.4653 15.8016 10.7703 15.6261 10.9797 15.3138L15.3459 8.48288C15.4692 8.27976 15.5891 8.05261 15.5891 7.82273C15.5891 7.34383 15.1563 7.01844 14.7032 7.01844C14.4106 7.01844 14.1436 7.17898 13.9369 7.50886L10.0828 13.7034L8.26623 11.3889C8.02658 11.08 7.79768 10.978 7.51115 10.978C7.03225 10.978 6.65276 11.3585 6.65276 11.8454C6.65276 12.0733 6.74241 12.2952 6.90373 12.5053L9.21448 15.319C9.47444 15.6536 9.76096 15.8016 10.1149 15.8016Z" fill="white" fill-opacity="0.85"/>
 </g>
</svg>
