<?xml version="1.0" encoding="UTF-8"?>
<!--Generator: Apple Native CoreSVG 341-->
<!DOCTYPE svg
PUBLIC "-//W3C//DTD SVG 1.1//EN"
       "http://www.w3.org/Graphics/SVG/1.1/DTD/svg11.dtd">
<svg version="1.1" xmlns="http://www.w3.org/2000/svg" xmlns:xlink="http://www.w3.org/1999/xlink" viewBox="0 0 18.5894 18.2316">
 <g>
  <rect height="18.2316" opacity="0" width="18.5894" x="0" y="0"/>
  <path d="M3.20351 18.2281L15.0246 18.2281C17.1404 18.2281 18.2281 17.1502 18.2281 15.0646L18.2281 3.17148C18.2281 1.08769 17.1404 0 15.0246 0L3.20351 0C1.0957 0 0 1.08769 0 3.17148L0 15.0646C0 17.1502 1.0957 18.2281 3.20351 18.2281ZM3.31444 16.3148C2.40643 16.3148 1.91327 15.8465 1.91327 14.8977L1.91327 3.34023C1.91327 2.39139 2.40643 1.91503 3.31444 1.91503L14.9137 1.91503C15.8137 1.91503 16.3148 2.39139 16.3148 3.34023L16.3148 14.8977C16.3148 15.8465 15.8137 16.3148 14.9137 16.3148Z" fill="white" fill-opacity="0.85"/>
  <path d="M8.07031 13.7549C8.4207 13.7549 8.72577 13.5811 8.93339 13.259L13.3014 6.43612C13.4326 6.22499 13.5428 5.99784 13.5428 5.77772C13.5428 5.28905 13.11 4.96367 12.6586 4.96367C12.3643 4.96367 12.099 5.13398 11.8924 5.45585L8.03652 11.6504L6.21991 9.33593C5.98026 9.02695 5.75136 8.93125 5.46484 8.93125C4.98593 8.93125 4.60644 9.31347 4.60644 9.79238C4.60644 10.0283 4.69609 10.2404 4.85917 10.4523L7.16816 13.266C7.42812 13.5988 7.71464 13.7549 8.07031 13.7549Z" fill="white" fill-opacity="0.85"/>
 </g>
</svg>
