<?xml version="1.0" encoding="UTF-8"?>
<!--Generator: Apple Native CoreSVG 341-->
<!DOCTYPE svg
PUBLIC "-//W3C//DTD SVG 1.1//EN"
       "http://www.w3.org/Graphics/SVG/1.1/DTD/svg11.dtd">
<svg version="1.1" xmlns="http://www.w3.org/2000/svg" xmlns:xlink="http://www.w3.org/1999/xlink" viewBox="0 0 17.107 21.1441">
 <g>
  <rect height="21.1441" opacity="0" width="17.107" x="0" y="0"/>
  <path d="M4.77694 13.6131L11.983 13.6131C12.3434 13.6131 12.6061 13.3326 12.6061 12.9803C12.6061 12.6377 12.3434 12.3768 11.983 12.3768L4.77694 12.3768C4.41483 12.3768 4.14413 12.6377 4.14413 12.9803C4.14413 13.3326 4.41483 13.6131 4.77694 13.6131ZM4.77694 16.4496L8.25487 16.4496C8.61522 16.4496 8.87616 16.1869 8.87616 15.8461C8.87616 15.4938 8.61522 15.2133 8.25487 15.2133L4.77694 15.2133C4.41483 15.2133 4.14413 15.4938 4.14413 15.8461C4.14413 16.1869 4.41483 16.4496 4.77694 16.4496ZM6.33905 10.1225L7.06913 10.1225C7.13046 10.1225 7.17577 10.1482 7.22734 10.1998L7.7496 10.7061C8.17753 11.15 8.58593 11.1402 9.0121 10.7061L9.53437 10.1998C9.58769 10.1562 9.62499 10.1225 9.69433 10.1225L10.4146 10.1225C11.0246 10.1225 11.3158 9.8375 11.3158 9.23554L11.3158 8.50898C11.3158 8.44589 11.3273 8.39433 11.3789 8.34726L11.8932 7.82675C12.3256 7.40058 12.3256 6.98866 11.8932 6.55448L11.3789 6.04198C11.3273 5.99491 11.3158 5.94511 11.3158 5.88202L11.3158 5.1537C11.3158 4.5455 11.0309 4.25878 10.4146 4.25878L9.69433 4.25878C9.62499 4.25878 9.58769 4.22675 9.53437 4.18944L9.0121 3.68495C8.58593 3.241 8.17753 3.24901 7.7496 3.68495L7.22734 4.18944C7.18378 4.24276 7.13046 4.25878 7.06913 4.25878L6.33905 4.25878C5.73085 4.25878 5.43788 4.53749 5.43788 5.1537L5.43788 5.88202C5.43788 5.94511 5.42987 5.99843 5.37479 6.04198L4.86054 6.55448C4.42811 6.98866 4.42811 7.40058 4.86054 7.82675L5.37479 8.34726C5.42987 8.39433 5.43788 8.44589 5.43788 8.50898L5.43788 9.23554C5.43788 9.8375 5.73261 10.1225 6.33905 10.1225ZM7.99804 8.95488C7.8498 8.95488 7.72284 8.88476 7.60116 8.73554L6.76796 7.72636C6.69784 7.64472 6.65077 7.54081 6.65077 7.43515C6.65077 7.20878 6.8203 7.01698 7.07069 7.01698C7.20214 7.01698 7.30956 7.08359 7.41972 7.21327L7.99003 7.9205L9.31269 5.80897C9.39433 5.67851 9.51777 5.58261 9.66425 5.58261C9.88086 5.58261 10.0824 5.73886 10.0824 5.97323C10.0824 6.07538 10.0309 6.1873 9.98027 6.26718L8.40292 8.72578C8.30702 8.88476 8.16054 8.95488 7.99804 8.95488ZM0 17.9406C0 20.0502 1.07968 21.1379 3.17148 21.1379L13.5742 21.1379C15.6678 21.1379 16.7457 20.0502 16.7457 17.9406L16.7457 3.20527C16.7457 1.10371 15.6678 0 13.5742 0L3.17148 0C1.07968 0 0 1.10371 0 3.20527ZM1.91327 17.8217L1.91327 3.32421C1.91327 2.41444 2.38163 1.91327 3.33222 1.91327L13.4152 1.91327C14.3641 1.91327 14.8324 2.41444 14.8324 3.32421L14.8324 17.8217C14.8324 18.7314 14.3641 19.2246 13.4152 19.2246L3.33222 19.2246C2.38163 19.2246 1.91327 18.7314 1.91327 17.8217Z" fill="white" fill-opacity="0.85"/>
 </g>
</svg>
