<?xml version="1.0" encoding="UTF-8"?>
<!--Generator: Apple Native CoreSVG 341-->
<!DOCTYPE svg
PUBLIC "-//W3C//DTD SVG 1.1//EN"
       "http://www.w3.org/Graphics/SVG/1.1/DTD/svg11.dtd">
<svg version="1.1" xmlns="http://www.w3.org/2000/svg" xmlns:xlink="http://www.w3.org/1999/xlink" viewBox="0 0 20.5381 20.1848">
 <g>
  <rect height="20.1848" opacity="0" width="20.5381" x="0" y="0"/>
  <path d="M20.1767 10.0875C20.1767 15.6478 15.6576 20.175 10.0875 20.175C4.52715 20.175 0 15.6478 0 10.0875C0 4.51914 4.52715 0 10.0875 0C15.6576 0 20.1767 4.51914 20.1767 10.0875ZM5.09746 7.95859C4.78886 8.27968 4.78886 8.80546 5.13476 9.1664L9.01855 13.2996C9.67793 14.0033 10.5228 14.0051 11.1822 13.3031L15.066 9.16816C15.4039 8.80722 15.4199 8.27168 15.1033 7.95859C14.7389 7.60742 14.1988 7.59941 13.8689 7.94433L10.0973 11.9522L6.32382 7.94433C6.00194 7.59941 5.4539 7.59941 5.09746 7.95859Z" fill="white" fill-opacity="0.85"/>
 </g>
</svg>
