<?xml version="1.0" encoding="UTF-8"?>
<!--Generator: Apple Native CoreSVG 341-->
<!DOCTYPE svg
PUBLIC "-//W3C//DTD SVG 1.1//EN"
       "http://www.w3.org/Graphics/SVG/1.1/DTD/svg11.dtd">
<svg version="1.1" xmlns="http://www.w3.org/2000/svg" xmlns:xlink="http://www.w3.org/1999/xlink" viewBox="0 0 14.4357 17.7203">
 <g>
  <rect height="17.7203" opacity="0" width="14.4357" x="0" y="0"/>
  <path d="M9.96657 17.6723C10.4088 17.6723 10.7882 17.3807 10.9664 16.9488L13.6468 10.359C13.863 9.84296 14.0744 9.3207 14.0744 8.833C14.0744 8.34531 13.863 7.82304 13.6468 7.30703L10.9664 0.715426C10.7882 0.283592 10.4088 0 9.96657 0C9.24978 0.00351548 8.74451 0.523629 8.74451 1.18144C8.74451 1.52265 8.94744 1.98534 9.08103 2.3201L11.9678 9.45781L11.9678 8.20819L9.08103 15.3441C8.94744 15.6807 8.74451 16.1336 8.74451 16.4846C8.74451 17.1504 9.24978 17.6705 9.96657 17.6723ZM4.09979 17.6723C4.81659 17.6705 5.32811 17.1504 5.32811 16.4846C5.32811 16.1336 5.12518 15.6807 4.98358 15.3441L2.09861 8.20819L2.09861 9.45781L4.98358 2.3201C5.12518 1.98534 5.32811 1.52265 5.32811 1.18144C5.32811 0.523629 4.81659 0.00351548 4.09979 0C3.66386 0 3.28613 0.283592 3.108 0.715426L0.42578 7.30703C0.211328 7.82304 0 8.34531 0 8.833C0 9.3207 0.211328 9.84296 0.42578 10.359L3.108 16.9488C3.28613 17.3807 3.66386 17.6723 4.09979 17.6723Z" fill="white" fill-opacity="0.85"/>
 </g>
</svg>
