<?xml version="1.0" encoding="UTF-8"?>
<!--Generator: Apple Native CoreSVG 341-->
<!DOCTYPE svg
PUBLIC "-//W3C//DTD SVG 1.1//EN"
       "http://www.w3.org/Graphics/SVG/1.1/DTD/svg11.dtd">
<svg version="1.1" xmlns="http://www.w3.org/2000/svg" xmlns:xlink="http://www.w3.org/1999/xlink" viewBox="0 0 20.5381 20.1848">
 <g>
  <rect height="20.1848" opacity="0" width="20.5381" x="0" y="0"/>
  <path d="M20.1767 10.0875C20.1767 15.6478 15.6576 20.175 10.0875 20.175C4.52715 20.175 0 15.6478 0 10.0875C0 4.51914 4.52715 0 10.0875 0C15.6576 0 20.1767 4.51914 20.1767 10.0875ZM9.01055 7.13867L5.12675 11.2816C4.78886 11.6328 4.78086 12.1764 5.08945 12.4814C5.44589 12.8389 5.99394 12.8389 6.31581 12.4957L10.0955 8.48612L13.8689 12.4957C14.1891 12.8389 14.7389 12.8389 15.0953 12.4814C15.4119 12.1764 15.4039 11.6311 15.058 11.2781L11.1742 7.13691C10.5148 6.44297 9.66992 6.44472 9.01055 7.13867Z" fill="white" fill-opacity="0.85"/>
 </g>
</svg>
