<?xml version="1.0" encoding="UTF-8"?>
<!--Generator: Apple Native CoreSVG 341-->
<!DOCTYPE svg
PUBLIC "-//W3C//DTD SVG 1.1//EN"
       "http://www.w3.org/Graphics/SVG/1.1/DTD/svg11.dtd">
<svg version="1.1" xmlns="http://www.w3.org/2000/svg" xmlns:xlink="http://www.w3.org/1999/xlink" viewBox="0 0 18.866 18.5312">
 <g>
  <rect height="18.5312" opacity="0" width="18.866" x="0" y="0"/>
  <path d="M14.9285 16.5646C14.3865 16.5646 13.951 17.0002 13.951 17.5422C13.951 18.0859 14.3865 18.5215 14.9285 18.5215C15.4705 18.5215 15.906 18.0859 15.906 17.5422C15.906 17.0002 15.4705 16.5646 14.9285 16.5646ZM12.3379 16.5646C11.7959 16.5646 11.3603 17.0002 11.3603 17.5422C11.3603 18.0859 11.7959 18.5215 12.3379 18.5215C12.8799 18.5215 13.3154 18.0859 13.3154 17.5422C13.3154 17.0002 12.8799 16.5646 12.3379 16.5646ZM9.73925 16.5646C9.19726 16.5646 8.75996 17.0002 8.75996 17.5422C8.75996 18.0859 9.19726 18.5215 9.73925 18.5215C10.2812 18.5215 10.7168 18.0859 10.7168 17.5422C10.7168 17.0002 10.2812 16.5646 9.73925 16.5646ZM7.14863 16.5646C6.60488 16.5646 6.16934 17.0002 6.16934 17.5422C6.16934 18.0859 6.60488 18.5215 7.14863 18.5215C7.69062 18.5215 8.12617 18.0859 8.12617 17.5422C8.12617 17.0002 7.69062 16.5646 7.14863 16.5646ZM17.5271 6.18613C16.9851 6.18613 16.5496 6.62168 16.5496 7.16367C16.5496 7.70566 16.9851 8.1412 17.5271 8.1412C18.0691 8.1412 18.5047 7.70566 18.5047 7.16367C18.5047 6.62168 18.0691 6.18613 17.5271 6.18613ZM17.5271 8.77675C16.9851 8.77675 16.5496 9.2123 16.5496 9.75429C16.5496 10.3043 16.9851 10.7318 17.5271 10.7318C18.0691 10.7318 18.5047 10.3043 18.5047 9.75429C18.5047 9.2123 18.0691 8.77675 17.5271 8.77675ZM17.5271 11.3754C16.9851 11.3754 16.5496 11.8109 16.5496 12.3529C16.5496 12.8949 16.9851 13.3322 17.5271 13.3322C18.0691 13.3322 18.5047 12.8949 18.5047 12.3529C18.5047 11.8109 18.0691 11.3754 17.5271 11.3754ZM17.5271 13.966C16.9851 13.966 16.5496 14.4016 16.5496 14.9435C16.5496 15.4935 16.9851 15.9308 17.5271 15.9308C18.0691 15.9308 18.5047 15.4935 18.5047 14.9435C18.5047 14.4016 18.0691 13.966 17.5271 13.966ZM17.5271 16.5646C16.9851 16.5646 16.5496 17.0002 16.5496 17.5422C16.5496 18.0859 16.9851 18.5215 17.5271 18.5215C18.0691 18.5215 18.5047 18.0859 18.5047 17.5422C18.5047 17.0002 18.0691 16.5646 17.5271 16.5646Z" fill="white" fill-opacity="0.85"/>
  <path d="M8.76717 10.3785C8.22343 10.3785 7.78788 10.8158 7.78788 11.3578C7.78788 11.8998 8.22343 12.3353 8.76717 12.3353C9.30916 12.3353 9.74471 11.8998 9.74471 11.3578C9.74471 10.8158 9.30916 10.3785 8.76717 10.3785ZM6.16679 10.3785C5.6248 10.3785 5.18925 10.8158 5.18925 11.3578C5.18925 11.8998 5.6248 12.3353 6.16679 12.3353C6.71054 12.3353 7.14608 11.8998 7.14608 11.3578C7.14608 10.8158 6.71054 10.3785 6.16679 10.3785ZM3.57617 10.3785C3.02617 10.3785 2.59863 10.8158 2.59863 11.3578C2.59863 11.8998 3.02617 12.3353 3.57617 12.3353C4.11991 12.3353 4.55546 11.8998 4.55546 11.3578C4.55546 10.8158 4.11991 10.3785 3.57617 10.3785ZM0.977536 10.3785C0.435545 10.3785 0 10.8158 0 11.3578C0 11.8998 0.435545 12.3353 0.977536 12.3353C1.51953 12.3353 1.95683 11.8998 1.95683 11.3578C1.95683 10.8158 1.51953 10.3785 0.977536 10.3785ZM11.3578 0C10.8158 0 10.3785 0.435545 10.3785 0.977536C10.3785 1.51953 10.8158 1.95683 11.3578 1.95683C11.8998 1.95683 12.3353 1.51953 12.3353 0.977536C12.3353 0.435545 11.8998 0 11.3578 0ZM11.3578 2.59062C10.8158 2.59062 10.3785 3.02617 10.3785 3.56816C10.3785 4.11191 10.8158 4.54745 11.3578 4.54745C11.8998 4.54745 12.3353 4.11191 12.3353 3.56816C12.3353 3.02617 11.8998 2.59062 11.3578 2.59062ZM11.3578 5.18925C10.8158 5.18925 10.3785 5.6248 10.3785 6.16679C10.3785 6.71054 10.8158 7.14608 11.3578 7.14608C11.8998 7.14608 12.3353 6.71054 12.3353 6.16679C12.3353 5.6248 11.8998 5.18925 11.3578 5.18925ZM11.3578 7.77987C10.8158 7.77987 10.3785 8.21542 10.3785 8.75917C10.3785 9.30116 10.8158 9.7367 11.3578 9.7367C11.8998 9.7367 12.3353 9.30116 12.3353 8.75917C12.3353 8.21542 11.8998 7.77987 11.3578 7.77987ZM11.3578 10.3785C10.8158 10.3785 10.3785 10.8158 10.3785 11.3578C10.3785 11.8998 10.8158 12.3353 11.3578 12.3353C11.8998 12.3353 12.3353 11.8998 12.3353 11.3578C12.3353 10.8158 11.8998 10.3785 11.3578 10.3785Z" fill="white" fill-opacity="0.85"/>
 </g>
</svg>
