<?xml version="1.0" encoding="UTF-8"?>
<!--Generator: Apple Native CoreSVG 341-->
<!DOCTYPE svg
PUBLIC "-//W3C//DTD SVG 1.1//EN"
       "http://www.w3.org/Graphics/SVG/1.1/DTD/svg11.dtd">
<svg version="1.1" xmlns="http://www.w3.org/2000/svg" xmlns:xlink="http://www.w3.org/1999/xlink" viewBox="0 0 17.6582 10.6957">
 <g>
  <rect height="10.6957" opacity="0" width="17.6582" x="0" y="0"/>
  <path d="M8.65331 10.6957C8.98534 10.6939 9.28573 10.5664 9.5326 10.307L16.9682 2.68944C17.1816 2.47597 17.2969 2.21191 17.2969 1.90273C17.2969 1.26484 16.8017 0.761722 16.1691 0.761722C15.86 0.761722 15.5721 0.885745 15.3516 1.10352L8.17519 8.46349L9.13046 8.46349L1.94705 1.10352C1.7328 0.88926 1.44667 0.761722 1.12772 0.761722C0.493355 0.761722 0 1.26484 0 1.90273C0 2.21015 0.116991 2.47421 0.326951 2.69745L7.76602 10.307C8.02891 10.5699 8.31504 10.6957 8.65331 10.6957Z" fill="white" fill-opacity="0.85"/>
 </g>
</svg>
