<?xml version="1.0" encoding="UTF-8"?>
<!--Generator: Apple Native CoreSVG 341-->
<!DOCTYPE svg
PUBLIC "-//W3C//DTD SVG 1.1//EN"
       "http://www.w3.org/Graphics/SVG/1.1/DTD/svg11.dtd">
<svg version="1.1" xmlns="http://www.w3.org/2000/svg" xmlns:xlink="http://www.w3.org/1999/xlink" viewBox="0 0 21.69 21.3332">
 <g>
  <rect height="21.3332" opacity="0" width="21.69" x="0" y="0"/>
  <path d="M6.92362 3.68592C7.26581 3.68592 7.7117 3.49003 8.02967 3.35995L11.2768 2.04686L10.0439 2.04686L13.291 3.35995C13.6152 3.49003 14.0611 3.68592 14.4033 3.68592C15.0533 3.68592 15.5629 3.19471 15.5646 2.49374C15.5646 2.0621 15.2783 1.68789 14.857 1.5168L12.1648 0.421484C11.6594 0.212305 11.1406 0.0044924 10.6635 0.0044924C10.1783 0.0044924 9.68183 0.204297 9.1621 0.421484L6.46366 1.5168C6.04238 1.68789 5.7623 2.0621 5.7623 2.49374C5.76406 3.19471 6.27362 3.68592 6.92362 3.68592ZM18.8377 15.5629C19.2613 15.5629 19.6418 15.2828 19.8146 14.8615L20.9117 12.1613C21.1226 11.6639 21.3287 11.1389 21.3287 10.66C21.3287 10.1828 21.1289 9.68808 20.9117 9.16035L19.8146 6.46816C19.6338 6.04511 19.2613 5.76679 18.8377 5.76679C18.1385 5.76855 17.6455 6.27636 17.6455 6.92011C17.6455 7.27206 17.8352 7.71795 17.9732 8.0324L19.2846 11.2812L19.2846 10.0467L17.9732 13.2955C17.8352 13.6197 17.6455 14.0639 17.6455 14.4096C17.6455 15.0516 18.1385 15.5611 18.8377 15.5629ZM10.6635 21.3332C11.1406 21.3332 11.6594 21.1236 12.1648 20.9162L14.857 19.8129C15.2783 19.64 15.5646 19.2676 15.5646 18.8439C15.5629 18.143 15.0533 17.642 14.4033 17.642C14.0611 17.642 13.6152 17.8396 13.291 17.976L10.0439 19.2828L11.2768 19.2828L8.02967 17.976C7.7117 17.8396 7.26581 17.642 6.92362 17.642C6.27362 17.642 5.76406 18.143 5.7623 18.8439C5.7623 19.2676 6.04238 19.64 6.46366 19.8129L9.1621 20.9162C9.68183 21.1334 10.1783 21.3332 10.6635 21.3332ZM2.49277 15.5629C3.19022 15.5611 3.68495 15.0516 3.68495 14.4096C3.68495 14.0639 3.49354 13.6197 3.35721 13.2955L2.04588 10.0467L2.04588 11.2812L3.35721 8.0324C3.49354 7.71795 3.68495 7.27206 3.68495 6.92011C3.68495 6.27636 3.19022 5.76855 2.49277 5.76679C2.06738 5.76679 1.69492 6.04511 1.51406 6.46816L0.420507 9.16035C0.20332 9.68808 0 10.1828 0 10.66C0 11.1389 0.209571 11.6639 0.420507 12.1613L1.51406 14.8615C1.68691 15.2828 2.06738 15.5629 2.49277 15.5629Z" fill="white" fill-opacity="0.85"/>
 </g>
</svg>
