<?xml version="1.0" encoding="UTF-8"?>
<!--Generator: Apple Native CoreSVG 341-->
<!DOCTYPE svg
PUBLIC "-//W3C//DTD SVG 1.1//EN"
       "http://www.w3.org/Graphics/SVG/1.1/DTD/svg11.dtd">
<svg version="1.1" xmlns="http://www.w3.org/2000/svg" xmlns:xlink="http://www.w3.org/1999/xlink" viewBox="0 0 18.5894 18.2316">
 <g>
  <rect height="18.2316" opacity="0" width="18.5894" x="0" y="0"/>
  <path d="M3.20351 18.2281L15.0246 18.2281C17.1404 18.2281 18.2281 17.1502 18.2281 15.0646L18.2281 3.17148C18.2281 1.08769 17.1404 0 15.0246 0L3.20351 0C1.0957 0 0 1.08769 0 3.17148L0 15.0646C0 17.1502 1.0957 18.2281 3.20351 18.2281ZM3.31444 16.3148C2.40643 16.3148 1.91327 15.8465 1.91327 14.8977L1.91327 3.34023C1.91327 2.39139 2.40643 1.91503 3.31444 1.91503L14.9137 1.91503C15.8137 1.91503 16.3148 2.39139 16.3148 3.34023L16.3148 14.8977C16.3148 15.8465 15.8137 16.3148 14.9137 16.3148Z" fill="white" fill-opacity="0.85"/>
  <path d="M9.2666 3.48905C9.06621 3.48905 8.87109 3.58397 8.70351 3.74179L5.36327 6.95761C5.22675 7.08437 5.12128 7.26796 5.12128 7.49511C5.12128 7.9164 5.4662 8.23046 5.8664 8.23046C6.03221 8.23046 6.24335 8.18085 6.40038 8.02734L9.2666 5.21444L12.1426 8.02734C12.2979 8.17284 12.501 8.23046 12.6766 8.23046C13.0705 8.23046 13.4199 7.9164 13.4199 7.49511C13.4199 7.26972 13.31 7.08437 13.1797 6.95761L9.83769 3.74179C9.67011 3.58397 9.46699 3.48905 9.2666 3.48905ZM9.2666 14.7328C9.46699 14.7328 9.67812 14.6361 9.83769 14.4783L13.1797 11.2562C13.31 11.1375 13.4199 10.9441 13.4199 10.7268C13.4199 10.3037 13.0705 9.9834 12.6766 9.9834C12.501 9.9834 12.2979 10.049 12.1426 10.1945L9.2666 13.0057L6.40038 10.1945C6.24335 10.041 6.03221 9.9834 5.8664 9.9834C5.4662 9.9834 5.12128 10.3037 5.12128 10.7268C5.12128 10.9459 5.22675 11.1375 5.36327 11.2562L8.70351 14.4783C8.86308 14.6361 9.06621 14.7328 9.2666 14.7328Z" fill="white" fill-opacity="0.85"/>
 </g>
</svg>
