<?xml version="1.0" encoding="UTF-8"?>
<!--Generator: Apple Native CoreSVG 341-->
<!DOCTYPE svg
PUBLIC "-//W3C//DTD SVG 1.1//EN"
       "http://www.w3.org/Graphics/SVG/1.1/DTD/svg11.dtd">
<svg version="1.1" xmlns="http://www.w3.org/2000/svg" xmlns:xlink="http://www.w3.org/1999/xlink" viewBox="0 0 17.6582 18.6742">
 <g>
  <rect height="18.6742" opacity="0" width="17.6582" x="0" y="0"/>
  <path d="M0.326951 10.6582L7.76602 18.2758C8.02891 18.5306 8.31504 18.6644 8.65331 18.6644C8.98534 18.6627 9.27772 18.5191 9.5326 18.2678L16.9682 10.6582C17.1816 10.4447 17.2969 10.1807 17.2969 9.86347C17.2969 9.22558 16.8017 8.73047 16.1691 8.73047C15.86 8.73047 15.5721 8.85625 15.3516 9.07226L8.17519 16.4242L9.13046 16.4242L1.94705 9.07226C1.7328 8.85801 1.44667 8.73047 1.12772 8.73047C0.493355 8.73047 0 9.22558 0 9.86347C0 10.1789 0.116991 10.443 0.326951 10.6582Z" fill="white" fill-opacity="0.85"/>
  <path d="M0.326951 1.93748L7.76602 9.54706C8.02891 9.80819 8.31504 9.93573 8.65331 9.93573C8.98534 9.93397 9.28573 9.79842 9.5326 9.53905L16.9682 1.92948C17.1816 1.716 17.2969 1.45194 17.2969 1.13476C17.2969 0.49687 16.8017 0 16.1691 0C15.86 0 15.5721 0.12578 15.3516 0.343551L8.17519 7.70352L9.13046 7.70352L1.94705 0.343551C1.7328 0.127538 1.44667 0 1.12772 0C0.493355 0 0 0.49687 0 1.13476C0 1.45018 0.116991 1.71424 0.326951 1.93748Z" fill="white" fill-opacity="0.85"/>
 </g>
</svg>
