<?xml version="1.0" encoding="UTF-8"?>
<!--Generator: Apple Native CoreSVG 341-->
<!DOCTYPE svg
PUBLIC "-//W3C//DTD SVG 1.1//EN"
       "http://www.w3.org/Graphics/SVG/1.1/DTD/svg11.dtd">
<svg version="1.1" xmlns="http://www.w3.org/2000/svg" xmlns:xlink="http://www.w3.org/1999/xlink" viewBox="0 0 20.5381 20.1848">
 <g>
  <rect height="20.1848" opacity="0" width="20.5381" x="0" y="0"/>
  <path d="M10.0875 20.175C15.6576 20.175 20.1767 15.6559 20.1767 10.0875C20.1767 4.51914 15.6576 0 10.0875 0C4.51914 0 0 4.51914 0 10.0875C0 15.6559 4.51914 20.175 10.0875 20.175ZM10.0875 18.1879C5.60839 18.1879 1.9871 14.5666 1.9871 10.0875C1.9871 5.60839 5.60839 1.9871 10.0875 1.9871C14.5666 1.9871 18.1897 5.60839 18.1897 10.0875C18.1897 14.5666 14.5666 18.1879 10.0875 18.1879Z" fill="white" fill-opacity="0.85"/>
  <path d="M5.28437 12.3707C5.61601 12.7148 6.1455 12.7148 6.45233 12.385L10.0875 8.52518L13.7227 12.385C14.0375 12.7148 14.567 12.7148 14.8924 12.3707C15.1939 12.0789 15.1859 11.5619 14.8631 11.224L11.1211 7.23613C10.49 6.56875 9.68672 6.57226 9.06191 7.23964L5.31191 11.2258C4.98906 11.5637 4.98105 12.0789 5.28437 12.3707Z" fill="white" fill-opacity="0.85"/>
 </g>
</svg>
