<?xml version="1.0" encoding="UTF-8"?>
<!--Generator: Apple Native CoreSVG 341-->
<!DOCTYPE svg
PUBLIC "-//W3C//DTD SVG 1.1//EN"
       "http://www.w3.org/Graphics/SVG/1.1/DTD/svg11.dtd">
<svg version="1.1" xmlns="http://www.w3.org/2000/svg" xmlns:xlink="http://www.w3.org/1999/xlink" viewBox="0 0 18.4318 17.393">
 <g>
  <rect height="17.393" opacity="0" width="18.4318" x="0" y="0"/>
  <path d="M17.093 2.3539C17.6349 2.3539 18.0705 1.9166 18.0705 1.37461C18.0705 0.83262 17.6349 0.397075 17.093 0.397075C16.551 0.397075 16.1137 0.83262 16.1137 1.37461C16.1137 1.9166 16.551 2.3539 17.093 2.3539ZM15.2762 4.18496C15.8181 4.18496 16.2537 3.74941 16.2537 3.20742C16.2537 2.66543 15.8181 2.22989 15.2762 2.22989C14.7342 2.22989 14.2986 2.66543 14.2986 3.20742C14.2986 3.74941 14.7342 4.18496 15.2762 4.18496ZM13.4594 6.00976C14.0014 6.00976 14.4369 5.58222 14.4369 5.03222C14.4369 4.49023 14.0014 4.05469 13.4594 4.05469C12.9094 4.05469 12.4818 4.49023 12.4818 5.03222C12.4818 5.58222 12.9094 6.00976 13.4594 6.00976ZM11.6346 7.84257C12.1766 7.84257 12.6139 7.40703 12.6139 6.86503C12.6139 6.32304 12.1766 5.8875 11.6346 5.8875C11.0926 5.8875 10.657 6.32304 10.657 6.86503C10.657 7.40703 11.0926 7.84257 11.6346 7.84257ZM9.81952 9.67538C10.3615 9.67538 10.7971 9.23984 10.7971 8.69785C10.7971 8.15585 10.3615 7.72031 9.81952 7.72031C9.27577 7.72031 8.84023 8.15585 8.84023 8.69785C8.84023 9.23984 9.27577 9.67538 9.81952 9.67538ZM11.6346 11.5082C12.1766 11.5082 12.6139 11.0726 12.6139 10.5307C12.6139 9.98066 12.1766 9.55136 11.6346 9.55136C11.0926 9.55136 10.657 9.98066 10.657 10.5307C10.657 11.0726 11.0926 11.5082 11.6346 11.5082ZM13.4594 13.333C14.0014 13.333 14.4369 12.8974 14.4369 12.3555C14.4369 11.8117 14.0014 11.3762 13.4594 11.3762C12.9094 11.3762 12.4818 11.8117 12.4818 12.3555C12.4818 12.8974 12.9094 13.333 13.4594 13.333ZM15.2762 15.1658C15.8181 15.1658 16.2537 14.7303 16.2537 14.1865C16.2537 13.6445 15.8181 13.209 15.2762 13.209C14.7342 13.209 14.2986 13.6445 14.2986 14.1865C14.2986 14.7303 14.7342 15.1658 15.2762 15.1658ZM17.093 16.9986C17.6349 16.9986 18.0705 16.5613 18.0705 16.0193C18.0705 15.4773 17.6349 15.0418 17.093 15.0418C16.551 15.0418 16.1137 15.4773 16.1137 16.0193C16.1137 16.5613 16.551 16.9986 17.093 16.9986Z" fill="white" fill-opacity="0.85"/>
  <path d="M8.80097 17.2951C9.43886 17.2951 9.93573 16.8017 9.93573 16.1691C9.93573 15.8564 9.80819 15.5703 9.59218 15.3481L2.2322 8.1664L2.2322 9.12167L9.59218 1.95155C9.80995 1.73104 9.93573 1.43514 9.93573 1.13397C9.93573 0.501363 9.43886 0 8.80097 0C8.48379 0 8.21973 0.113476 8.00625 0.326951L0.396675 7.77227C0.135546 8.00762 0.00175774 8.30976 0 8.6498C0 8.98007 0.12578 9.26971 0.388668 9.52909L8.00625 16.9682C8.21973 17.1816 8.48554 17.2951 8.80097 17.2951Z" fill="white" fill-opacity="0.85"/>
 </g>
</svg>
