<?xml version="1.0" encoding="UTF-8"?>
<!--Generator: Apple Native CoreSVG 341-->
<!DOCTYPE svg
PUBLIC "-//W3C//DTD SVG 1.1//EN"
       "http://www.w3.org/Graphics/SVG/1.1/DTD/svg11.dtd">
<svg version="1.1" xmlns="http://www.w3.org/2000/svg" xmlns:xlink="http://www.w3.org/1999/xlink" viewBox="0 0 12.8601 17.2969">
 <g>
  <rect height="17.2969" opacity="0" width="12.8601" x="0" y="0"/>
  <path d="M0 8.64355C0 8.97382 0.117772 9.2537 0.382417 9.51483L7.99649 16.9601C8.20996 17.1816 8.47578 17.2889 8.79121 17.2889C9.42909 17.2889 9.93397 16.7937 9.93397 16.1611C9.93397 15.8422 9.79842 15.5623 9.58241 15.3418L2.7156 8.64179L9.58241 1.9453C9.80018 1.72303 9.93397 1.4369 9.93397 1.12772C9.93397 0.493355 9.42909 0 8.79121 0C8.47402 0 8.20996 0.107226 7.99649 0.3207L0.382417 7.77227C0.11953 8.02539 0.00175774 8.31152 0 8.64355Z" fill="white" fill-opacity="0.85"/>
 </g>
</svg>
