<?xml version="1.0" encoding="UTF-8"?>
<!--Generator: Apple Native CoreSVG 341-->
<!DOCTYPE svg
PUBLIC "-//W3C//DTD SVG 1.1//EN"
       "http://www.w3.org/Graphics/SVG/1.1/DTD/svg11.dtd">
<svg version="1.1" xmlns="http://www.w3.org/2000/svg" xmlns:xlink="http://www.w3.org/1999/xlink" viewBox="0 0 19.0258 17.3129">
 <g>
  <rect height="17.3129" opacity="0" width="19.0258" x="0" y="0"/>
  <path d="M16.7287 16.9682C16.9439 17.1799 17.216 17.2969 17.5234 17.2969C18.1613 17.2969 18.6644 16.8017 18.6644 16.1691C18.6644 15.8582 18.5289 15.5703 18.3146 15.3498L10.9627 8.1664L10.9627 9.12167L18.3146 1.9533C18.5306 1.73104 18.6644 1.4369 18.6644 1.13573C18.6644 0.501363 18.1613 0 17.5234 0C17.2143 0 16.9484 0.115234 16.7287 0.328708L9.11914 7.77227C8.85801 8.01113 8.72422 8.31152 8.7207 8.65156C8.7207 8.98183 8.85625 9.26796 9.11914 9.53084Z" fill="white" fill-opacity="0.85"/>
  <path d="M8.00625 16.9682C8.22148 17.1799 8.48554 17.2969 8.80097 17.2969C9.43886 17.2969 9.93573 16.8017 9.93573 16.1691C9.93573 15.8582 9.80819 15.5703 9.59218 15.3498L2.2322 8.1664L2.2322 9.12167L9.59218 1.9533C9.80995 1.73104 9.93573 1.4369 9.93573 1.13573C9.93573 0.501363 9.43886 0 8.80097 0C8.48379 0 8.21973 0.115234 8.00625 0.328708L0.396675 7.77227C0.137303 8.01113 0.00175774 8.31152 0 8.65156C0 8.98183 0.127538 9.26796 0.388668 9.53084Z" fill="white" fill-opacity="0.85"/>
 </g>
</svg>
