<?xml version="1.0" encoding="UTF-8"?>
<!--Generator: Apple Native CoreSVG 341-->
<!DOCTYPE svg
PUBLIC "-//W3C//DTD SVG 1.1//EN"
       "http://www.w3.org/Graphics/SVG/1.1/DTD/svg11.dtd">
<svg version="1.1" xmlns="http://www.w3.org/2000/svg" xmlns:xlink="http://www.w3.org/1999/xlink" viewBox="0 0 28.5904 18.8053">
 <g>
  <rect height="18.8053" opacity="0" width="28.5904" x="0" y="0"/>
  <path d="M11.3988 18.7589C12.0482 18.9378 12.6453 18.586 12.842 17.9296L17.6473 1.45653C17.8279 0.841883 17.5277 0.244817 16.8783 0.0659129C16.2369-0.112992 15.6639 0.166692 15.4512 0.895203L10.6699 17.2944C10.4733 17.9589 10.7254 18.5737 11.3988 18.7589Z" fill="white" fill-opacity="0.85"/>
  <path d="M1.55724e-05 9.39774C-0.00174217 9.73094 0.145327 10.0649 0.429699 10.3182L6.74748 16.0206C7.26486 16.4866 7.95587 16.4761 8.39258 15.9897C8.8293 15.4936 8.77071 14.8026 8.26934 14.3526L2.80272 9.39774L8.26934 4.44285C8.77071 3.99109 8.8293 3.29207 8.39258 2.80575C7.95587 2.31943 7.26486 2.30888 6.74748 2.77489L0.429699 8.46923C0.145327 8.7288-0.00174217 9.06278 1.55724e-05 9.39774ZM28.2291 9.39774C28.2308 9.06278 28.0918 8.7288 27.8056 8.46923L21.4896 2.77489C20.9642 2.30888 20.2795 2.31943 19.8445 2.80575C19.4078 3.29207 19.4584 3.99109 19.958 4.44285L25.4344 9.39774L19.958 14.3526C19.4584 14.8026 19.4078 15.4936 19.8445 15.9897C20.2795 16.4761 20.9642 16.4866 21.4896 16.0206L27.8056 10.3182C28.0918 10.0649 28.2308 9.73094 28.2291 9.39774Z" fill="white" fill-opacity="0.85"/>
 </g>
</svg>
