<?xml version="1.0" encoding="UTF-8"?>
<!--Generator: Apple Native CoreSVG 341-->
<!DOCTYPE svg
PUBLIC "-//W3C//DTD SVG 1.1//EN"
       "http://www.w3.org/Graphics/SVG/1.1/DTD/svg11.dtd">
<svg version="1.1" xmlns="http://www.w3.org/2000/svg" xmlns:xlink="http://www.w3.org/1999/xlink" viewBox="0 0 18.5894 18.2316">
 <g>
  <rect height="18.2316" opacity="0" width="18.5894" x="0" y="0"/>
  <path d="M18.2281 3.17148L18.2281 15.0646C18.2281 17.1502 17.1404 18.2281 15.0246 18.2281L3.20351 18.2281C1.0957 18.2281 0 17.1502 0 15.0646L0 3.17148C0 1.08769 1.0957 0 3.20351 0L15.0246 0C17.1404 0 18.2281 1.08769 18.2281 3.17148ZM12.241 10.2371L9.2666 13.1484L6.30194 10.2371C6.13514 10.0738 5.9205 10.0162 5.7414 10.0162C5.32616 10.0162 4.95995 10.3498 4.95995 10.7879C4.95995 11.0185 5.07343 11.2234 5.21347 11.3475L8.67519 14.6875C8.84629 14.8506 9.05468 14.9535 9.2666 14.9535C9.48027 14.9535 9.69492 14.8506 9.86601 14.6875L13.3295 11.3475C13.4615 11.2234 13.5812 11.0168 13.5812 10.7879C13.5812 10.3498 13.2088 10.0162 12.8016 10.0162C12.6127 10.0162 12.4061 10.0818 12.241 10.2371ZM8.67519 3.53261L5.21347 6.8664C5.07343 6.99668 4.95995 7.19355 4.95995 7.43398C4.95995 7.87206 5.32616 8.19765 5.7414 8.19765C5.9205 8.19765 6.13514 8.14804 6.30194 7.98476L9.2666 5.07342L12.241 7.98476C12.4061 8.14003 12.6127 8.19765 12.8016 8.19765C13.2088 8.19765 13.5812 7.87206 13.5812 7.43398C13.5812 7.19531 13.4615 6.99668 13.3295 6.8664L9.86601 3.53261C9.68691 3.37128 9.48027 3.26659 9.2666 3.26659C9.05468 3.26659 8.85605 3.37128 8.67519 3.53261Z" fill="white" fill-opacity="0.85"/>
 </g>
</svg>
