<?xml version="1.0" encoding="UTF-8"?>
<!--Generator: Apple Native CoreSVG 341-->
<!DOCTYPE svg
PUBLIC "-//W3C//DTD SVG 1.1//EN"
       "http://www.w3.org/Graphics/SVG/1.1/DTD/svg11.dtd">
<svg version="1.1" xmlns="http://www.w3.org/2000/svg" xmlns:xlink="http://www.w3.org/1999/xlink" viewBox="0 0 12.5476 17.2496">
 <g>
  <rect height="17.2496" opacity="0" width="12.5476" x="0" y="0"/>
  <path d="M0 16.1111C0 16.7437 0.508394 17.2398 1.14101 17.2398C1.43261 17.2398 1.68788 17.1502 1.93221 16.9084L9.64373 9.47108C9.89959 9.22753 10.0236 8.95292 10.0236 8.61992C10.0236 8.28515 9.89959 8.00254 9.65174 7.76699L1.93221 0.323435C1.67987 0.0976562 1.43261 0 1.133 0C0.508394 0 0 0.486324 0 1.1287C0 1.45546 0.124803 1.73983 0.351559 1.94803L7.88457 9.20683L7.88457 8.02499L0.351559 15.2918C0.126561 15.508 0 15.7826 0 16.1111ZM10.0023 16.16C10.0023 16.7934 10.4638 17.2398 11.0912 17.2398C11.7132 17.2398 12.1863 16.7934 12.1863 16.16L12.1863 1.09413C12.1863 0.452731 11.7185 0 11.0912 0C10.4638 0 10.0023 0.452731 10.0023 1.09413Z" fill="white" fill-opacity="0.85"/>
 </g>
</svg>
