<?xml version="1.0" encoding="UTF-8"?>
<!--Generator: Apple Native CoreSVG 341-->
<!DOCTYPE svg
PUBLIC "-//W3C//DTD SVG 1.1//EN"
       "http://www.w3.org/Graphics/SVG/1.1/DTD/svg11.dtd">
<svg version="1.1" xmlns="http://www.w3.org/2000/svg" xmlns:xlink="http://www.w3.org/1999/xlink" viewBox="0 0 13.9834 19.5847">
 <g>
  <rect height="19.5847" opacity="0" width="13.9834" x="0" y="0"/>
  <path d="M6.81503 0C6.47675 0 6.18886 0.132811 5.91972 0.396675L0.364644 5.7289C0.153123 5.93691 0 6.20878 0 6.54999C0 7.20545 0.516205 7.68748 1.12772 7.68748C1.4076 7.68748 1.70702 7.60603 1.95955 7.35701L6.81503 2.6072L11.6625 7.35701C11.923 7.59803 12.2144 7.68748 12.4943 7.68748C13.1058 7.68748 13.622 7.20545 13.622 6.54999C13.622 6.20878 13.4752 5.93691 13.2574 5.7289L7.70232 0.396675C7.43318 0.132811 7.1453 0 6.81503 0ZM6.81503 19.575C7.1453 19.575 7.43318 19.4341 7.70232 19.1765L13.2574 13.8443C13.4752 13.6301 13.622 13.3662 13.622 13.017C13.622 12.3615 13.1058 11.8857 12.4943 11.8857C12.2144 11.8857 11.923 11.9769 11.6625 12.218L6.81503 16.9678L1.95955 12.218C1.70702 11.9672 1.4076 11.8857 1.12772 11.8857C0.516205 11.8857 0 12.3615 0 13.017C0 13.3662 0.153123 13.6301 0.364644 13.8443L5.91972 19.1765C6.18886 19.4341 6.47675 19.575 6.81503 19.575Z" fill="white" fill-opacity="0.85"/>
 </g>
</svg>
