<?xml version="1.0" encoding="UTF-8"?>
<!--Generator: Apple Native CoreSVG 341-->
<!DOCTYPE svg
PUBLIC "-//W3C//DTD SVG 1.1//EN"
       "http://www.w3.org/Graphics/SVG/1.1/DTD/svg11.dtd">
<svg version="1.1" xmlns="http://www.w3.org/2000/svg" xmlns:xlink="http://www.w3.org/1999/xlink" viewBox="0 0 5.68943 17.7203">
 <g>
  <rect height="17.7203" opacity="0" width="5.68943" x="0" y="0"/>
  <path d="M2.22186 16.9488L4.90233 10.359C5.11502 9.84296 5.32811 9.3207 5.32811 8.833C5.32811 8.34531 5.11502 7.82304 4.90233 7.30703L2.22186 0.715426C2.04374 0.283592 1.66425 0 1.22206 0C0.503513 0.00351548 0 0.523629 0 1.18144C0 1.52265 0.202928 1.98534 0.33652 2.3201L3.22148 9.45781L3.22148 8.20819L0.33652 15.3441C0.202928 15.6807 0 16.1336 0 16.4846C0 17.1504 0.503513 17.6705 1.22206 17.6723C1.66425 17.6723 2.04374 17.3807 2.22186 16.9488Z" fill="white" fill-opacity="0.85"/>
 </g>
</svg>
