<?xml version="1.0" encoding="UTF-8"?>
<!--Generator: Apple Native CoreSVG 341-->
<!DOCTYPE svg
PUBLIC "-//W3C//DTD SVG 1.1//EN"
       "http://www.w3.org/Graphics/SVG/1.1/DTD/svg11.dtd">
<svg version="1.1" xmlns="http://www.w3.org/2000/svg" xmlns:xlink="http://www.w3.org/1999/xlink" viewBox="0 0 18.5894 18.2316">
 <g>
  <rect height="18.2316" opacity="0" width="18.5894" x="0" y="0"/>
  <path d="M18.2281 3.17148L18.2281 15.0646C18.2281 17.1502 17.1404 18.2281 15.0246 18.2281L3.20351 18.2281C1.0957 18.2281 0 17.1502 0 15.0646L0 3.17148C0 1.08769 1.0957 0 3.20351 0L15.0246 0C17.1404 0 18.2281 1.08769 18.2281 3.17148ZM4.14999 6.98203C3.83964 7.30312 3.83964 7.8289 4.18554 8.18984L8.07109 12.323C8.73047 13.0268 9.57362 13.0285 10.233 12.3266L14.1185 8.19159C14.4644 7.83066 14.4725 7.29511 14.1541 6.98203C13.7896 6.63086 13.2496 6.62285 12.9277 6.96777L9.15605 10.9756L5.37636 6.96777C5.05448 6.62285 4.50468 6.62285 4.14999 6.98203Z" fill="white" fill-opacity="0.85"/>
 </g>
</svg>
