<?xml version="1.0" encoding="UTF-8"?>
<!--Generator: Apple Native CoreSVG 341-->
<!DOCTYPE svg
PUBLIC "-//W3C//DTD SVG 1.1//EN"
       "http://www.w3.org/Graphics/SVG/1.1/DTD/svg11.dtd">
<svg version="1.1" xmlns="http://www.w3.org/2000/svg" xmlns:xlink="http://www.w3.org/1999/xlink" viewBox="0 0 22.5314 21.8207">
 <g>
  <rect height="21.8207" opacity="0" width="22.5314" x="0" y="0"/>
  <path d="M13.582 21.8207C18.3269 21.8207 22.1701 17.9775 22.1701 13.2326C22.1701 9.43788 19.7004 6.20683 16.2898 5.08261L16.2898 3.62128C16.2898 1.53574 15.1941 0.449803 13.0943 0.449803L3.20351 0.449803C1.08769 0.449803 0 1.53574 0 3.62128L0 13.5762C0 15.6599 1.08769 16.7476 3.20351 16.7476L5.74316 16.7476C7.07812 19.7342 10.0887 21.8207 13.582 21.8207ZM13.582 19.8736C10.5316 19.8736 8.00409 17.866 7.22382 15.1445C7.17499 14.9318 7.05976 14.8344 6.84882 14.8344L3.31444 14.8344C2.40643 14.8344 1.91327 14.358 1.91327 13.4074L1.91327 3.78827C1.91327 2.83944 2.40643 2.36307 3.31444 2.36307L12.9754 2.36307C13.8754 2.36307 14.3766 2.83944 14.3766 3.78827L14.3766 6.33221C14.3766 6.5449 14.4936 6.67615 14.716 6.70545C17.9564 7.21541 20.2186 10.0244 20.2186 13.2326C20.2186 16.9363 17.2857 19.8736 13.582 19.8736Z" fill="white" fill-opacity="0.85"/>
 </g>
</svg>
