<?xml version="1.0" encoding="UTF-8"?>
<!--Generator: Apple Native CoreSVG 341-->
<!DOCTYPE svg
PUBLIC "-//W3C//DTD SVG 1.1//EN"
       "http://www.w3.org/Graphics/SVG/1.1/DTD/svg11.dtd">
<svg version="1.1" xmlns="http://www.w3.org/2000/svg" xmlns:xlink="http://www.w3.org/1999/xlink" viewBox="0 0 18.5894 18.2316">
 <g>
  <rect height="18.2316" opacity="0" width="18.5894" x="0" y="0"/>
  <path d="M3.20351 18.2281L15.0246 18.2281C17.1404 18.2281 18.2281 17.1502 18.2281 15.0646L18.2281 3.17148C18.2281 1.08769 17.1404 0 15.0246 0L3.20351 0C1.0957 0 0 1.08769 0 3.17148L0 15.0646C0 17.1502 1.0957 18.2281 3.20351 18.2281ZM3.31444 16.3148C2.40643 16.3148 1.91327 15.8465 1.91327 14.8977L1.91327 3.34023C1.91327 2.39139 2.40643 1.91503 3.31444 1.91503L14.9137 1.91503C15.8137 1.91503 16.3148 2.39139 16.3148 3.34023L16.3148 14.8977C16.3148 15.8465 15.8137 16.3148 14.9137 16.3148Z" fill="white" fill-opacity="0.85"/>
  <path d="M9.11894 14.2564C11.9736 14.2564 14.2742 11.9559 14.2742 9.11093C14.2742 6.26425 11.9736 3.95566 9.11894 3.95566C6.27402 3.95566 3.97343 6.26425 3.97343 9.11093C3.97343 11.9559 6.27402 14.2564 9.11894 14.2564ZM9.11894 12.5477C7.21932 12.5477 5.68221 11.0105 5.68221 9.11093C5.68221 7.21132 7.21932 5.6742 9.11894 5.6742C11.0186 5.6742 12.5557 7.21132 12.5557 9.11093C12.5557 11.0105 11.0186 12.5477 9.11894 12.5477Z" fill="white" fill-opacity="0.85"/>
 </g>
</svg>
