<?xml version="1.0" encoding="UTF-8"?>
<!--Generator: Apple Native CoreSVG 341-->
<!DOCTYPE svg
PUBLIC "-//W3C//DTD SVG 1.1//EN"
       "http://www.w3.org/Graphics/SVG/1.1/DTD/svg11.dtd">
<svg version="1.1" xmlns="http://www.w3.org/2000/svg" xmlns:xlink="http://www.w3.org/1999/xlink" viewBox="0 0 17.142 22.468">
 <g>
  <rect height="22.468" opacity="0" width="17.142" x="0" y="0"/>
  <path d="M0 19.6523C0 21.343 1.14375 22.4467 2.90019 22.4467L13.8805 22.4467C15.6369 22.4467 16.7806 21.343 16.7806 19.6523L16.7806 2.80234C16.7806 1.11172 15.6369 0 13.8805 0L2.90019 0C1.14375 0 0 1.11172 0 2.80234ZM1.91327 19.3377L1.91327 3.11874C1.91327 2.35663 2.35761 1.91327 3.15878 1.91327L13.6219 1.91327C14.415 1.91327 14.8674 2.35663 14.8674 3.11874L14.8674 19.3377C14.8674 20.098 14.415 20.5334 13.6219 20.5334L3.15878 20.5334C2.35761 20.5334 1.91327 20.098 1.91327 19.3377Z" fill="white" fill-opacity="0.85"/>
  <path d="M8.38632 16.0359C11.041 16.0359 13.2029 13.882 13.2029 11.2193C13.2029 8.57265 11.041 6.41874 8.38632 6.41874C5.7414 6.41874 3.57948 8.57265 3.57948 11.2193C3.57948 13.882 5.7414 16.0359 8.38632 16.0359Z" fill="white" fill-opacity="0.85"/>
 </g>
</svg>
