<?xml version="1.0" encoding="UTF-8"?>
<!--Generator: Apple Native CoreSVG 341-->
<!DOCTYPE svg
PUBLIC "-//W3C//DTD SVG 1.1//EN"
       "http://www.w3.org/Graphics/SVG/1.1/DTD/svg11.dtd">
<svg version="1.1" xmlns="http://www.w3.org/2000/svg" xmlns:xlink="http://www.w3.org/1999/xlink" viewBox="0 0 26.6717 11.734">
 <g>
  <rect height="11.734" opacity="0" width="26.6717" x="0" y="0"/>
  <path d="M20.4562 11.7162C23.6859 11.7162 26.3103 9.09179 26.3103 5.8621C26.3103 2.63242 23.6859 0 20.4562 0C17.2185 0 14.5941 2.63242 14.5941 5.8621C14.5941 9.09179 17.2185 11.7162 20.4562 11.7162ZM20.4562 9.84336C18.2449 9.84336 16.4652 8.06543 16.4652 5.8621C16.4652 3.65878 18.2449 1.87108 20.4562 1.87108C22.6596 1.87108 24.4375 3.65878 24.4375 5.8621C24.4375 8.06543 22.6596 9.84336 20.4562 9.84336Z" fill="white" fill-opacity="0.85"/>
  <path d="M5.85409 11.7162C9.09179 11.7162 11.7162 9.09179 11.7162 5.8621C11.7162 2.63242 9.09179 0 5.85409 0C2.62441 0 0 2.63242 0 5.8621C0 9.09179 2.62441 11.7162 5.85409 11.7162Z" fill="white" fill-opacity="0.85"/>
 </g>
</svg>
