<?xml version="1.0" encoding="UTF-8"?>
<!--Generator: Apple Native CoreSVG 341-->
<!DOCTYPE svg
PUBLIC "-//W3C//DTD SVG 1.1//EN"
       "http://www.w3.org/Graphics/SVG/1.1/DTD/svg11.dtd">
<svg version="1.1" xmlns="http://www.w3.org/2000/svg" xmlns:xlink="http://www.w3.org/1999/xlink" viewBox="0 0 20.5016 20.0586">
 <g>
  <rect height="20.0586" opacity="0" width="20.5016" x="0" y="0"/>
  <path d="M10.0732 1.83613C10.5779 1.83613 10.9922 1.42187 10.9922 0.917184C10.9922 0.414256 10.5779 0 10.0732 0C9.57031 0 9.15605 0.414256 9.15605 0.917184C9.15605 1.42187 9.57031 1.83613 10.0732 1.83613ZM12.8855 2.29511C13.3885 2.29511 13.8045 1.88085 13.8045 1.37793C13.8045 0.873241 13.3885 0.458984 12.8855 0.458984C12.3826 0.458984 11.9666 0.873241 11.9666 1.37793C11.9666 1.88085 12.3826 2.29511 12.8855 2.29511ZM15.4369 3.58495C15.9416 3.58495 16.3558 3.16894 16.3558 2.66601C16.3558 2.16308 15.9416 1.74707 15.4369 1.74707C14.934 1.74707 14.5197 2.16308 14.5197 2.66601C14.5197 3.16894 14.934 3.58495 15.4369 3.58495ZM17.4529 5.60722C17.9559 5.60722 18.3719 5.19296 18.3719 4.68828C18.3719 4.18535 17.9559 3.77109 17.4529 3.77109C16.95 3.77109 16.534 4.18535 16.534 4.68828C16.534 5.19296 16.95 5.60722 17.4529 5.60722ZM18.7393 8.12304C19.2422 8.12304 19.6582 7.70702 19.6582 7.2041C19.6582 6.70117 19.2422 6.28515 18.7393 6.28515C18.2363 6.28515 17.8203 6.70117 17.8203 7.2041C17.8203 7.70702 18.2363 8.12304 18.7393 8.12304ZM19.2213 10.9434C19.7242 10.9434 20.1402 10.5273 20.1402 10.0244C20.1402 9.52148 19.7242 9.10547 19.2213 9.10547C18.7184 9.10547 18.3023 9.52148 18.3023 10.0244C18.3023 10.5273 18.7184 10.9434 19.2213 10.9434ZM18.7393 13.7619C19.2422 13.7619 19.6582 13.3476 19.6582 12.8447C19.6582 12.34 19.2422 11.9258 18.7393 11.9258C18.2363 11.9258 17.8203 12.34 17.8203 12.8447C17.8203 13.3476 18.2363 13.7619 18.7393 13.7619ZM17.4529 16.2857C17.9559 16.2857 18.3719 15.8715 18.3719 15.3668C18.3719 14.8639 17.9559 14.4496 17.4529 14.4496C16.95 14.4496 16.534 14.8639 16.534 15.3668C16.534 15.8715 16.95 16.2857 17.4529 16.2857ZM15.4369 18.3017C15.9416 18.3017 16.3558 17.8857 16.3558 17.3828C16.3558 16.8799 15.9416 16.4639 15.4369 16.4639C14.934 16.4639 14.5197 16.8799 14.5197 17.3828C14.5197 17.8857 14.934 18.3017 15.4369 18.3017ZM12.8855 19.5898C13.3885 19.5898 13.8045 19.1738 13.8045 18.6709C13.8045 18.168 13.3885 17.7519 12.8855 17.7519C12.3826 17.7519 11.9666 18.168 11.9666 18.6709C11.9666 19.1738 12.3826 19.5898 12.8855 19.5898ZM10.0732 20.0488C10.5779 20.0488 10.9922 19.6346 10.9922 19.1299C10.9922 18.6269 10.5779 18.2127 10.0732 18.2127C9.57031 18.2127 9.15605 18.6269 9.15605 19.1299C9.15605 19.6346 9.57031 20.0488 10.0732 20.0488ZM7.26269 19.5898C7.76562 19.5898 8.18163 19.1738 8.18163 18.6709C8.18163 18.168 7.76562 17.7519 7.26269 17.7519C6.75175 17.7519 6.34375 18.168 6.34375 18.6709C6.34375 19.1738 6.75175 19.5898 7.26269 19.5898ZM4.70957 18.3017C5.21425 18.3017 5.62851 17.8857 5.62851 17.3828C5.62851 16.8799 5.21425 16.4639 4.70957 16.4639C4.19863 16.4639 3.79238 16.8799 3.79238 17.3828C3.79238 17.8857 4.19863 18.3017 4.70957 18.3017ZM2.6873 16.2857C3.19023 16.2857 3.60624 15.8715 3.60624 15.3668C3.60624 14.8639 3.19023 14.4496 2.6873 14.4496C2.18437 14.4496 1.76836 14.8639 1.76836 15.3668C1.76836 15.8715 2.18437 16.2857 2.6873 16.2857ZM1.40097 13.7619C1.9039 13.7619 2.31992 13.3476 2.31992 12.8447C2.31992 12.34 1.9039 11.9258 1.40097 11.9258C0.898045 11.9258 0.482031 12.34 0.482031 12.8447C0.482031 13.3476 0.898045 13.7619 1.40097 13.7619ZM0.918942 10.9434C1.42187 10.9434 1.83788 10.5273 1.83788 10.0244C1.83788 9.52148 1.42187 9.10547 0.918942 9.10547C0.416014 9.10547 0 9.52148 0 10.0244C0 10.5273 0.416014 10.9434 0.918942 10.9434ZM1.40097 8.12304C1.9039 8.12304 2.31992 7.70702 2.31992 7.2041C2.31992 6.70117 1.9039 6.28515 1.40097 6.28515C0.898045 6.28515 0.482031 6.70117 0.482031 7.2041C0.482031 7.70702 0.898045 8.12304 1.40097 8.12304ZM2.6873 5.60722C3.19023 5.60722 3.60624 5.19296 3.60624 4.68828C3.60624 4.18535 3.19023 3.77109 2.6873 3.77109C2.18437 3.77109 1.76836 4.18535 1.76836 4.68828C1.76836 5.19296 2.18437 5.60722 2.6873 5.60722ZM4.70957 3.58495C5.21425 3.58495 5.62851 3.16894 5.62851 2.66601C5.62851 2.16308 5.21425 1.74707 4.70957 1.74707C4.19863 1.74707 3.79238 2.16308 3.79238 2.66601C3.79238 3.16894 4.19863 3.58495 4.70957 3.58495ZM7.26269 2.29511C7.76562 2.29511 8.18163 1.88085 8.18163 1.37793C8.18163 0.873241 7.76562 0.458984 7.26269 0.458984C6.75175 0.458984 6.34375 0.873241 6.34375 1.37793C6.34375 1.88085 6.75175 2.29511 7.26269 2.29511Z" fill="white" fill-opacity="0.85"/>
 </g>
</svg>
