<?xml version="1.0" encoding="UTF-8"?>
<!--Generator: Apple Native CoreSVG 341-->
<!DOCTYPE svg
PUBLIC "-//W3C//DTD SVG 1.1//EN"
       "http://www.w3.org/Graphics/SVG/1.1/DTD/svg11.dtd">
<svg version="1.1" xmlns="http://www.w3.org/2000/svg" xmlns:xlink="http://www.w3.org/1999/xlink" viewBox="0 0 20.5381 20.1848">
 <g>
  <rect height="20.1848" opacity="0" width="20.5381" x="0" y="0"/>
  <path d="M19.009 10.0893C19.009 5.0539 15.1246 1.16953 10.0955 1.16953L10.0955 19.001C15.1246 19.001 19.009 15.1264 19.009 10.0893ZM10.7183 2.18495L10.7183 0.830075L7.22245 0.830075L7.22245 2.18495ZM10.7183 4.29159L10.7183 3.10039L3.60058 3.10039L3.60058 4.29159ZM10.7183 6.39023L10.7183 5.20078L2.14785 5.20078L2.14785 6.39023ZM10.7183 8.50038L10.7183 7.30742L1.27342 7.30742L1.27342 8.50038ZM10.7183 10.5955L10.7183 9.40605L1.27342 9.40605L1.27342 10.5955ZM10.7183 12.7039L10.7183 11.5127L1.27342 11.5127L1.27342 12.7039ZM10.7183 14.8105L10.7183 13.6193L2.14785 13.6193L2.14785 14.8105ZM10.7183 17.0746L10.7183 15.718L3.60058 15.718L3.60058 17.0746ZM10.7183 19.3449L10.7183 17.9918L7.22245 17.9918L7.22245 19.3449ZM10.0875 20.175C15.6576 20.175 20.1767 15.6559 20.1767 10.0875C20.1767 4.51914 15.6576 0 10.0875 0C4.51914 0 0 4.51914 0 10.0875C0 15.6559 4.51914 20.175 10.0875 20.175ZM10.0875 18.1879C5.60839 18.1879 1.9871 14.5666 1.9871 10.0875C1.9871 5.60839 5.60839 1.9871 10.0875 1.9871C14.5666 1.9871 18.1897 5.60839 18.1897 10.0875C18.1897 14.5666 14.5666 18.1879 10.0875 18.1879Z" fill="white" fill-opacity="0.85"/>
 </g>
</svg>
