<?xml version="1.0" encoding="UTF-8"?>
<!--Generator: Apple Native CoreSVG 341-->
<!DOCTYPE svg
PUBLIC "-//W3C//DTD SVG 1.1//EN"
       "http://www.w3.org/Graphics/SVG/1.1/DTD/svg11.dtd">
<svg version="1.1" xmlns="http://www.w3.org/2000/svg" xmlns:xlink="http://www.w3.org/1999/xlink" viewBox="0 0 20.5381 20.1848">
 <g>
  <rect height="20.1848" opacity="0" width="20.5381" x="0" y="0"/>
  <path d="M20.1767 10.0973C20.1767 15.6656 15.6576 20.1848 10.0875 20.1848C4.52715 20.1848 0 15.6656 0 10.0973C0 4.53691 4.52715 0.00976562 10.0875 0.00976562C15.6576 0.00976562 20.1767 4.53691 20.1767 10.0973ZM6.18105 13.9549C6.18105 14.9199 6.96054 15.6994 7.92382 15.6994C8.8871 15.6994 9.67636 14.9199 9.67636 13.9549C9.67636 12.9916 8.8871 12.2041 7.92382 12.2041C6.96054 12.2041 6.18105 12.9916 6.18105 13.9549ZM10.4684 13.9549C10.4684 14.9199 11.2559 15.6994 12.2191 15.6994C13.1824 15.6994 13.9619 14.9199 13.9619 13.9549C13.9619 12.9916 13.1824 12.2041 12.2191 12.2041C11.2559 12.2041 10.4684 12.9916 10.4684 13.9549ZM4.04941 10.0973C4.04941 11.0605 4.83691 11.848 5.79218 11.848C6.75722 11.848 7.54472 11.0605 7.54472 10.0973C7.54472 9.13398 6.75722 8.35449 5.79218 8.35449C4.83691 8.35449 4.04941 9.13398 4.04941 10.0973ZM8.34472 10.0973C8.34472 11.0605 9.12421 11.848 10.0875 11.848C11.0508 11.848 11.84 11.0605 11.84 10.0973C11.84 9.13398 11.0508 8.35449 10.0875 8.35449C9.12421 8.35449 8.34472 9.13398 8.34472 10.0973ZM12.632 10.0973C12.632 11.0605 13.4195 11.848 14.3828 11.848C15.3461 11.848 16.1273 11.0605 16.1273 10.0973C16.1273 9.13398 15.3461 8.35449 14.3828 8.35449C13.4195 8.35449 12.632 9.13398 12.632 10.0973ZM6.18105 6.23964C6.18105 7.20292 6.96054 7.99042 7.92382 7.99042C8.8871 7.99042 9.67636 7.20292 9.67636 6.23964C9.67636 5.28437 8.8871 4.49511 7.92382 4.49511C6.96054 4.49511 6.18105 5.28437 6.18105 6.23964ZM10.4684 6.23964C10.4684 7.20292 11.2559 7.99042 12.2191 7.99042C13.1824 7.99042 13.9619 7.20292 13.9619 6.23964C13.9619 5.28437 13.1824 4.49511 12.2191 4.49511C11.2559 4.49511 10.4684 5.28437 10.4684 6.23964Z" fill="white" fill-opacity="0.85"/>
 </g>
</svg>
