<?xml version="1.0" encoding="UTF-8"?>
<!--Generator: Apple Native CoreSVG 341-->
<!DOCTYPE svg
PUBLIC "-//W3C//DTD SVG 1.1//EN"
       "http://www.w3.org/Graphics/SVG/1.1/DTD/svg11.dtd">
<svg version="1.1" xmlns="http://www.w3.org/2000/svg" xmlns:xlink="http://www.w3.org/1999/xlink" viewBox="0 0 20.5381 20.1848">
 <g>
  <rect height="20.1848" opacity="0" width="20.5381" x="0" y="0"/>
  <path d="M10.0875 20.175C15.6576 20.175 20.1767 15.6559 20.1767 10.0875C20.1767 4.51914 15.6576 0 10.0875 0C4.51914 0 0 4.51914 0 10.0875C0 15.6559 4.51914 20.175 10.0875 20.175ZM10.0875 18.1879C5.60839 18.1879 1.9871 14.5666 1.9871 10.0875C1.9871 5.60839 5.60839 1.9871 10.0875 1.9871C14.5666 1.9871 18.1897 5.60839 18.1897 10.0875C18.1897 14.5666 14.5666 18.1879 10.0875 18.1879Z" fill="white" fill-opacity="0.85"/>
  <path d="M10.0795 15.233C12.9262 15.233 15.2348 12.9324 15.2348 10.0875C15.2348 7.24081 12.9262 4.93222 10.0795 4.93222C7.23456 4.93222 4.93398 7.24081 4.93398 10.0875C4.93398 12.9324 7.23456 15.233 10.0795 15.233ZM10.0795 13.5242C8.17987 13.5242 6.64276 11.9871 6.64276 10.0875C6.64276 8.18788 8.17987 6.65076 10.0795 6.65076C11.9791 6.65076 13.5162 8.18788 13.5162 10.0875C13.5162 11.9871 11.9791 13.5242 10.0795 13.5242Z" fill="white" fill-opacity="0.85"/>
 </g>
</svg>
