<?xml version="1.0" encoding="UTF-8"?>
<!--Generator: Apple Native CoreSVG 341-->
<!DOCTYPE svg
PUBLIC "-//W3C//DTD SVG 1.1//EN"
       "http://www.w3.org/Graphics/SVG/1.1/DTD/svg11.dtd">
<svg version="1.1" xmlns="http://www.w3.org/2000/svg" xmlns:xlink="http://www.w3.org/1999/xlink" viewBox="0 0 22.5314 21.8207">
 <g>
  <rect height="21.8207" opacity="0" width="22.5314" x="0" y="0"/>
  <path d="M16.2898 3.62128L16.2898 5.07938C15.6819 4.87028 15.0407 4.73387 14.3766 4.67669L14.3766 3.78827C14.3766 2.83944 13.8754 2.36307 12.9754 2.36307L3.31444 2.36307C2.40643 2.36307 1.91327 2.83944 1.91327 3.78827L1.91327 13.4074C1.91327 14.358 2.40643 14.8344 3.31444 14.8344L5.14836 14.8344C5.26907 15.5052 5.47257 16.1468 5.75015 16.7476L3.20351 16.7476C1.08769 16.7476 0 15.6599 0 13.5762L0 3.62128C0 1.53574 1.08769 0.449803 3.20351 0.449803L13.0943 0.449803C15.2021 0.449803 16.2898 1.53574 16.2898 3.62128ZM14.7631 15.6838C14.7631 16.1689 14.3648 16.5689 13.8637 16.5689C13.3848 16.5689 12.9848 16.1689 12.9848 15.6838C12.9848 15.1969 13.3848 14.8066 13.8637 14.8066C14.3648 14.8066 14.7631 15.1969 14.7631 15.6838ZM12.0064 15.6838C12.0064 16.1689 11.6082 16.5689 11.1133 16.5689C10.6264 16.5689 10.2264 16.1689 10.2264 15.6838C10.2264 15.1969 10.6264 14.8066 11.1133 14.8066C11.6082 14.8066 12.0064 15.1969 12.0064 15.6838ZM9.24003 15.6838C9.24003 16.1609 8.84804 16.5689 8.35488 16.5689C8.04693 16.5689 7.7799 16.4121 7.62167 16.179L7.50514 15.9344C7.48081 15.8546 7.46797 15.7703 7.46797 15.6838C7.46797 15.2049 7.8582 14.8066 8.35488 14.8066C8.84804 14.8066 9.24003 15.2049 9.24003 15.6838ZM16.3113 13.7793C16.3113 14.2644 15.9211 14.6742 15.4359 14.6742C14.941 14.6742 14.549 14.2644 14.549 13.7793C14.549 13.3039 14.941 12.8941 15.4359 12.8941C15.9211 12.8941 16.3113 13.3039 16.3113 13.7793ZM16.3113 11.0289C16.3113 11.5256 15.9211 11.9158 15.4359 11.9158C14.941 11.9158 14.549 11.5256 14.549 11.0289C14.549 10.534 14.941 10.142 15.4359 10.142C15.9211 10.142 16.3113 10.534 16.3113 11.0289ZM16.3113 8.27675C16.3113 8.75565 15.9211 9.16366 15.4359 9.16366C14.941 9.16366 14.549 8.75565 14.549 8.27675C14.549 7.79159 14.941 7.38534 15.4359 7.38534C15.9211 7.38534 16.3113 7.79159 16.3113 8.27675Z" fill="white" fill-opacity="0.85"/>
  <path d="M13.582 21.8207C18.3269 21.8207 22.1701 17.9775 22.1701 13.2326C22.1701 8.48769 18.3269 4.63652 13.582 4.63652C8.83086 4.63652 4.99395 8.48769 4.99395 13.2326C4.99395 17.9775 8.83086 21.8207 13.582 21.8207ZM13.582 19.8736C9.8703 19.8736 6.941 16.9363 6.941 13.2326C6.941 9.52889 9.8703 6.58807 13.582 6.58807C17.2857 6.58807 20.2186 9.52889 20.2186 13.2326C20.2186 16.9363 17.2857 19.8736 13.582 19.8736Z" fill="white" fill-opacity="0.85"/>
 </g>
</svg>
