<?xml version="1.0" encoding="UTF-8"?>
<!--Generator: Apple Native CoreSVG 341-->
<!DOCTYPE svg
PUBLIC "-//W3C//DTD SVG 1.1//EN"
       "http://www.w3.org/Graphics/SVG/1.1/DTD/svg11.dtd">
<svg version="1.1" xmlns="http://www.w3.org/2000/svg" xmlns:xlink="http://www.w3.org/1999/xlink" viewBox="0 0 23.4906 18.2316">
 <g>
  <rect height="18.2316" opacity="0" width="23.4906" x="0" y="0"/>
  <path d="M23.1293 3.17499L23.1293 15.0682C23.1293 17.1519 22.0416 18.2316 19.9258 18.2316L3.20351 18.2316C1.0957 18.2316 0 17.1519 0 15.0682L0 3.17499C0 1.08945 1.0957 0.00351548 3.20351 0.00351548L19.9258 0.00351548C22.0416 0.00351548 23.1293 1.08945 23.1293 3.17499ZM16.1965 1.91678L13.8533 4.25896C13.2887 3.98173 12.6662 3.80644 12.0092 3.75201L13.8483 1.91678L8.91425 1.91678L1.91327 8.91777L1.91327 13.8543L6.15655 9.61102C6.21262 10.2656 6.38773 10.8857 6.66387 11.4481L2.21038 15.8937C2.44499 16.1776 2.81762 16.3184 3.31444 16.3184L6.9221 16.3184L9.23695 14.0047C9.80382 14.2782 10.4284 14.4497 11.0877 14.4991L9.27347 16.3184L14.202 16.3184L21.216 9.29756L21.216 4.36853L16.9032 8.68137C16.8548 8.02735 16.6855 7.40728 16.4154 6.84372L20.9122 2.34049C20.6763 2.05784 20.3046 1.91678 19.8148 1.91678ZM16.564 16.3184L19.8148 16.3184C20.7149 16.3184 21.216 15.8482 21.216 14.8994L21.216 11.6601ZM3.31444 1.91678C2.40643 1.91678 1.91327 2.39315 1.91327 3.34198L1.91327 6.56104L6.55305 1.91678Z" fill="white" fill-opacity="0.85"/>
  <path d="M11.5326 14.5215C14.5096 14.5215 16.9254 12.1057 16.9254 9.1207C16.9254 6.14374 14.5096 3.72792 11.5326 3.72792C8.54765 3.72792 6.13183 6.14374 6.13183 9.1207C6.13183 12.1057 8.54765 14.5215 11.5326 14.5215ZM11.5326 13.1264C9.30683 13.1264 7.5287 11.3465 7.5287 9.1207C7.5287 6.89491 9.30683 5.12479 11.5326 5.12479C13.7584 5.12479 15.5303 6.89491 15.5303 9.1207C15.5303 11.3465 13.7584 13.1264 11.5326 13.1264Z" fill="white" fill-opacity="0.85"/>
 </g>
</svg>
