<?xml version="1.0" encoding="UTF-8"?>
<!--Generator: Apple Native CoreSVG 341-->
<!DOCTYPE svg
PUBLIC "-//W3C//DTD SVG 1.1//EN"
       "http://www.w3.org/Graphics/SVG/1.1/DTD/svg11.dtd">
<svg version="1.1" xmlns="http://www.w3.org/2000/svg" xmlns:xlink="http://www.w3.org/1999/xlink" viewBox="0 0 28.1377 20.1848">
 <g>
  <rect height="20.1848" opacity="0" width="28.1377" x="0" y="0"/>
  <path d="M0 10.091C0 9.57969 0.410349 9.13496 0.936516 9.13496L26.8433 9.13496C27.3695 9.13496 27.7764 9.57969 27.7764 10.091C27.7764 10.5988 27.3695 11.0515 26.8433 11.0515L0.936516 11.0515C0.410349 11.0515 0 10.5988 0 10.091ZM13.8971 20.175C19.4574 20.175 23.9846 15.6478 23.9846 10.0875C23.9846 4.51914 19.4574 0 13.8971 0C8.32695 0 3.80781 4.51914 3.80781 10.0875C3.80781 15.6478 8.32695 20.175 13.8971 20.175Z" fill="white" fill-opacity="0.85"/>
 </g>
</svg>
