<?xml version="1.0" encoding="UTF-8"?>
<!--Generator: Apple Native CoreSVG 341-->
<!DOCTYPE svg
PUBLIC "-//W3C//DTD SVG 1.1//EN"
       "http://www.w3.org/Graphics/SVG/1.1/DTD/svg11.dtd">
<svg version="1.1" xmlns="http://www.w3.org/2000/svg" xmlns:xlink="http://www.w3.org/1999/xlink" viewBox="0 0 20.5381 20.1848">
 <g>
  <rect height="20.1848" opacity="0" width="20.5381" x="0" y="0"/>
  <path d="M20.1767 10.0875C20.1767 15.6478 15.6576 20.175 10.0875 20.175C4.52715 20.175 0 15.6478 0 10.0875C0 4.51914 4.52715 0 10.0875 0C15.6576 0 20.1767 4.51914 20.1767 10.0875ZM5.21855 13.3502C5.21855 14.1217 5.84355 14.7467 6.61503 14.7467C7.37851 14.7467 8.00351 14.1217 8.00351 13.3502C8.00351 12.5787 7.37851 11.9617 6.61503 11.9617C5.84355 11.9617 5.21855 12.5787 5.21855 13.3502ZM8.70253 13.3502C8.70253 14.1217 9.31777 14.7467 10.091 14.7467C10.8625 14.7467 11.4795 14.1217 11.4795 13.3502C11.4795 12.5867 10.8625 11.9617 10.091 11.9617C9.31777 11.9617 8.70253 12.5867 8.70253 13.3502ZM12.1768 13.3582C12.1768 14.1297 12.8018 14.7467 13.5732 14.7467C14.3447 14.7467 14.9617 14.1297 14.9617 13.3582C14.9617 12.5867 14.3447 11.9617 13.5732 11.9617C12.8018 11.9617 12.1768 12.5867 12.1768 13.3582ZM12.175 10.0875C12.175 10.859 12.8 11.484 13.5715 11.484C14.343 11.484 14.96 10.859 14.96 10.0875C14.96 9.31601 14.343 8.69902 13.5715 8.69902C12.8 8.69902 12.175 9.31601 12.175 10.0875ZM5.21679 10.0875C5.21679 10.851 5.84179 11.476 6.61327 11.476C7.37675 11.476 8.00175 10.851 8.00175 10.0875C8.00175 9.31601 7.37675 8.69101 6.61327 8.69101C5.84179 8.69101 5.21679 9.31601 5.21679 10.0875ZM8.69902 10.0875C8.69902 10.859 9.31601 11.476 10.0875 11.476C10.8607 11.476 11.476 10.859 11.476 10.0875C11.476 9.31601 10.8607 8.69101 10.0875 8.69101C9.31601 8.69101 8.69902 9.31601 8.69902 10.0875ZM12.175 6.80878C12.175 7.58027 12.8 8.20527 13.5715 8.20527C14.343 8.20527 14.96 7.58027 14.96 6.80878C14.96 6.0373 14.343 5.42031 13.5715 5.42031C12.8 5.42031 12.175 6.0373 12.175 6.80878ZM5.21679 6.80878C5.21679 7.58027 5.84179 8.19726 6.61327 8.19726C7.37675 8.19726 8.00175 7.58027 8.00175 6.80878C8.00175 6.0373 7.37675 5.4123 6.61327 5.4123C5.84179 5.4123 5.21679 6.0373 5.21679 6.80878ZM8.69902 6.80878C8.69902 7.58027 9.31601 8.19726 10.0875 8.19726C10.8607 8.19726 11.476 7.58027 11.476 6.80878C11.476 6.0373 10.8607 5.42031 10.0875 5.42031C9.31601 5.42031 8.69902 6.0373 8.69902 6.80878Z" fill="white" fill-opacity="0.85"/>
 </g>
</svg>
