<?xml version="1.0" encoding="UTF-8"?>
<!--Generator: Apple Native CoreSVG 341-->
<!DOCTYPE svg
PUBLIC "-//W3C//DTD SVG 1.1//EN"
       "http://www.w3.org/Graphics/SVG/1.1/DTD/svg11.dtd">
<svg version="1.1" xmlns="http://www.w3.org/2000/svg" xmlns:xlink="http://www.w3.org/1999/xlink" viewBox="0 0 23.4906 18.2316">
 <g>
  <rect height="18.2316" opacity="0" width="23.4906" x="0" y="0"/>
  <path d="M3.20351 18.2316L19.9258 18.2316C22.0416 18.2316 23.1293 17.1519 23.1293 15.0682L23.1293 3.17499C23.1293 1.08945 22.0416 0.00351548 19.9258 0.00351548L3.20351 0.00351548C1.0957 0.00351548 0 1.08945 0 3.17499L0 15.0682C0 17.1519 1.0957 18.2316 3.20351 18.2316ZM3.31444 16.3184C2.40643 16.3184 1.91327 15.8482 1.91327 14.8994L1.91327 3.34198C1.91327 2.39315 2.40643 1.91678 3.31444 1.91678L19.8148 1.91678C20.7149 1.91678 21.216 2.39315 21.216 3.34198L21.216 14.8994C21.216 15.8482 20.7149 16.3184 19.8148 16.3184Z" fill="white" fill-opacity="0.85"/>
  <path d="M6.20468 8.44433L7.61483 8.44433C7.71523 7.84531 7.95077 7.28983 8.29921 6.81796L7.30683 5.81757C6.71621 6.56523 6.32187 7.4666 6.20468 8.44433ZM8.27949 4.84492L9.28613 5.84979C9.758 5.51561 10.2912 5.28632 10.884 5.18417L10.884 3.7705C9.9125 3.8912 9.02363 4.28105 8.27949 4.84492ZM12.2631 3.7705L12.2631 5.18417C12.8461 5.28632 13.3855 5.51561 13.8512 5.84179L14.8498 4.85292C14.1217 4.28105 13.2248 3.89921 12.2631 3.7705ZM15.8385 5.82558L14.8381 6.82597C15.1768 7.29784 15.4221 7.84531 15.5145 8.44433L16.9246 8.44433C16.7977 7.4666 16.4113 6.57324 15.8385 5.82558ZM16.9211 9.83144L15.4994 9.83144C15.3973 10.4029 15.168 10.9389 14.8436 11.3992L15.8439 12.3978C16.4105 11.6715 16.7924 10.7816 16.9211 9.83144ZM14.8598 13.3785L13.8594 12.3781C13.399 12.7248 12.8568 12.9666 12.2631 13.0527L12.2631 14.4789C13.2355 14.3519 14.1334 13.9594 14.8598 13.3785ZM10.884 14.4789L10.884 13.0527C10.2885 12.9666 9.74628 12.7248 9.27792 12.3861L8.26953 13.3865C9.01191 13.9674 9.90976 14.3519 10.884 14.4789ZM7.29336 12.4139L8.29374 11.4072C7.96132 10.9469 7.73202 10.4109 7.62987 9.83144L6.2082 9.83144C6.33691 10.7896 6.71875 11.6795 7.29336 12.4139Z" fill="white" fill-opacity="0.85"/>
 </g>
</svg>
