<?xml version="1.0" encoding="UTF-8"?>
<!--Generator: Apple Native CoreSVG 341-->
<!DOCTYPE svg
PUBLIC "-//W3C//DTD SVG 1.1//EN"
       "http://www.w3.org/Graphics/SVG/1.1/DTD/svg11.dtd">
<svg version="1.1" xmlns="http://www.w3.org/2000/svg" xmlns:xlink="http://www.w3.org/1999/xlink" viewBox="0 0 23.1473 23.2582">
 <g>
  <rect height="23.2582" opacity="0" width="23.1473" x="0" y="0"/>
  <path d="M11.3881 23.2387C13.7361 23.2387 15.6723 21.3008 15.6723 18.9545C15.6723 16.6162 13.7361 14.6783 11.3881 14.6783C9.02851 14.6783 7.10039 16.6162 7.10039 18.9545C7.10039 21.3008 9.02851 23.2387 11.3881 23.2387Z" fill="white" fill-opacity="0.85"/>
  <path d="M18.5098 15.9004C20.8498 15.9004 22.7859 13.9643 22.7859 11.6162C22.7859 9.27793 20.8498 7.34004 18.5098 7.34004C16.1422 7.34004 14.2141 9.27793 14.2141 11.6162C14.2141 13.9643 16.1422 15.9004 18.5098 15.9004Z" fill="white" fill-opacity="0.85"/>
  <path d="M4.28769 15.9004C6.63574 15.9004 8.57011 13.9643 8.57011 11.6162C8.57011 9.27793 6.63574 7.34004 4.28769 7.34004C1.91836 7.34004 0 9.27793 0 11.6162C0 13.9643 1.91836 15.9004 4.28769 15.9004Z" fill="white" fill-opacity="0.85"/>
  <path d="M11.3881 8.56211C13.7361 8.56211 15.6723 6.62422 15.6723 4.27617C15.6723 1.92988 13.7361 0 11.3881 0C9.02851 0 7.10039 1.92988 7.10039 4.27617C7.10039 6.62422 9.02851 8.56211 11.3881 8.56211Z" fill="white" fill-opacity="0.85"/>
 </g>
</svg>
