<?xml version="1.0" encoding="UTF-8"?>
<!--Generator: Apple Native CoreSVG 341-->
<!DOCTYPE svg
PUBLIC "-//W3C//DTD SVG 1.1//EN"
       "http://www.w3.org/Graphics/SVG/1.1/DTD/svg11.dtd">
<svg version="1.1" xmlns="http://www.w3.org/2000/svg" xmlns:xlink="http://www.w3.org/1999/xlink" viewBox="0 0 17.142 22.468">
 <g>
  <rect height="22.468" opacity="0" width="17.142" x="0" y="0"/>
  <path d="M16.7806 2.80234L16.7806 19.6523C16.7806 21.343 15.6369 22.4467 13.8805 22.4467L2.90019 22.4467C1.14375 22.4467 0 21.343 0 19.6523L0 2.80234C0 1.11172 1.14375 0 2.90019 0L13.8805 0C15.6369 0 16.7806 1.11172 16.7806 2.80234ZM3.35292 11.2193C3.35292 14.0103 5.61659 16.2625 8.38632 16.2625C11.1658 16.2625 13.4277 14.0103 13.4277 11.2193C13.4277 8.44609 11.1658 6.19394 8.38632 6.19394C5.61659 6.19394 3.35292 8.44609 3.35292 11.2193Z" fill="white" fill-opacity="0.85"/>
 </g>
</svg>
