<?xml version="1.0" encoding="UTF-8"?>
<!--Generator: Apple Native CoreSVG 341-->
<!DOCTYPE svg
PUBLIC "-//W3C//DTD SVG 1.1//EN"
       "http://www.w3.org/Graphics/SVG/1.1/DTD/svg11.dtd">
<svg version="1.1" xmlns="http://www.w3.org/2000/svg" xmlns:xlink="http://www.w3.org/1999/xlink" viewBox="0 0 22.5314 21.8207">
 <g>
  <rect height="21.8207" opacity="0" width="22.5314" x="0" y="0"/>
  <path d="M16.2898 3.62128L16.2898 5.07938C15.6819 4.87028 15.0407 4.73387 14.3766 4.67669L14.3766 3.78827C14.3766 2.83944 13.8754 2.36307 12.9754 2.36307L3.31444 2.36307C2.40643 2.36307 1.91327 2.83944 1.91327 3.78827L1.91327 13.4074C1.91327 14.358 2.42245 14.8344 3.31444 14.8344L5.14836 14.8344C5.26907 15.5052 5.47257 16.1468 5.75015 16.7476L3.20351 16.7476C1.08769 16.7476 0 15.6599 0 13.5762L0 3.62128C0 1.53574 1.08769 0.449803 3.20351 0.449803L13.0943 0.449803C15.2021 0.449803 16.2898 1.53574 16.2898 3.62128Z" fill="white" fill-opacity="0.85"/>
  <path d="M13.582 21.8207C18.3269 21.8207 22.1701 17.9775 22.1701 13.2326C22.1701 8.48769 18.3269 4.63652 13.582 4.63652C8.83086 4.63652 4.99395 8.48769 4.99395 13.2326C4.99395 17.9775 8.83086 21.8207 13.582 21.8207ZM13.582 19.8736C9.8703 19.8736 6.941 16.9363 6.941 13.2326C6.941 9.52889 9.8703 6.58807 13.582 6.58807C17.2857 6.58807 20.2186 9.52889 20.2186 13.2326C20.2186 16.9363 17.2857 19.8736 13.582 19.8736Z" fill="white" fill-opacity="0.85"/>
 </g>
</svg>
