<?xml version="1.0" encoding="UTF-8"?>
<!--Generator: Apple Native CoreSVG 341-->
<!DOCTYPE svg
PUBLIC "-//W3C//DTD SVG 1.1//EN"
       "http://www.w3.org/Graphics/SVG/1.1/DTD/svg11.dtd">
<svg version="1.1" xmlns="http://www.w3.org/2000/svg" xmlns:xlink="http://www.w3.org/1999/xlink" viewBox="0 0 21.8035 19.8996">
 <g>
  <rect height="19.8996" opacity="0" width="21.8035" x="0" y="0"/>
  <path d="M14.3996 19.8978C16.2678 19.8978 17.7738 18.3838 17.7738 16.5236C17.7738 14.6537 16.2678 13.1396 14.3996 13.1396C12.5297 13.1396 11.0254 14.6537 11.0254 16.5236C11.0254 18.3838 12.5297 19.8978 14.3996 19.8978ZM14.3996 18.0865C13.5404 18.0865 12.8349 17.3828 12.8349 16.5236C12.8349 15.6564 13.5404 14.951 14.3996 14.951C15.2668 14.951 15.9625 15.6564 15.9625 16.5236C15.9625 17.3828 15.2668 18.0865 14.3996 18.0865Z" fill="white" fill-opacity="0.85"/>
  <path d="M7.04257 19.8978C8.91073 19.8978 10.4168 18.3838 10.4168 16.5236C10.4168 14.6537 8.91073 13.1396 7.04257 13.1396C5.17265 13.1396 3.66836 14.6537 3.66836 16.5236C3.66836 18.3838 5.17265 19.8978 7.04257 19.8978ZM7.04257 18.0865C6.18339 18.0865 5.47792 17.3828 5.47792 16.5236C5.47792 15.6564 6.18339 14.951 7.04257 14.951C7.90175 14.951 8.60547 15.6564 8.60547 16.5236C8.60547 17.3828 7.90175 18.0865 7.04257 18.0865Z" fill="white" fill-opacity="0.85"/>
  <path d="M18.068 13.3191C19.9361 13.3191 21.4422 11.8131 21.4422 9.94491C21.4422 8.07499 19.9361 6.5707 18.068 6.5707C16.198 6.5707 14.684 8.07499 14.684 9.94491C14.684 11.8131 16.198 13.3191 18.068 13.3191ZM18.068 11.5078C17.199 11.5078 16.4953 10.8041 16.4953 9.94491C16.4953 9.07772 17.199 8.38026 18.068 8.38026C18.9271 8.38026 19.6308 9.07772 19.6308 9.94491C19.6308 10.8041 18.9271 11.5078 18.068 11.5078Z" fill="white" fill-opacity="0.85"/>
  <path d="M3.37421 13.3191C5.24413 13.3191 6.75644 11.8131 6.75644 9.94491C6.75644 8.07499 5.24413 6.5707 3.37421 6.5707C1.51406 6.5707 0 8.07499 0 9.94491C0 11.8131 1.51406 13.3191 3.37421 13.3191ZM3.37421 11.5078C2.51503 11.5078 1.81132 10.8041 1.81132 9.94491C1.81132 9.07772 2.51503 8.38026 3.37421 8.38026C4.2414 8.38026 4.94688 9.07772 4.94688 9.94491C4.94688 10.8041 4.2414 11.5078 3.37421 11.5078Z" fill="white" fill-opacity="0.85"/>
  <path d="M14.3996 6.74843C16.2678 6.74843 17.7738 5.24413 17.7738 3.37421C17.7738 1.50605 16.2678 0 14.3996 0C12.5297 0 11.0254 1.50605 11.0254 3.37421C11.0254 5.24413 12.5297 6.74843 14.3996 6.74843ZM14.3996 4.93887C13.5404 4.93887 12.8349 4.2414 12.8349 3.37421C12.8349 2.51503 13.5404 1.81132 14.3996 1.81132C15.2668 1.81132 15.9625 2.51503 15.9625 3.37421C15.9625 4.2414 15.2668 4.93887 14.3996 4.93887Z" fill="white" fill-opacity="0.85"/>
  <path d="M7.04257 6.74843C8.91073 6.74843 10.4168 5.24413 10.4168 3.37421C10.4168 1.50605 8.91073 0 7.04257 0C5.17265 0 3.66836 1.50605 3.66836 3.37421C3.66836 5.24413 5.17265 6.74843 7.04257 6.74843ZM7.04257 4.93887C6.18339 4.93887 5.47792 4.2414 5.47792 3.37421C5.47792 2.51503 6.18339 1.81132 7.04257 1.81132C7.90175 1.81132 8.60547 2.51503 8.60547 3.37421C8.60547 4.2414 7.90175 4.93887 7.04257 4.93887Z" fill="white" fill-opacity="0.85"/>
 </g>
</svg>
