<?xml version="1.0" encoding="UTF-8"?>
<!--Generator: Apple Native CoreSVG 341-->
<!DOCTYPE svg
PUBLIC "-//W3C//DTD SVG 1.1//EN"
       "http://www.w3.org/Graphics/SVG/1.1/DTD/svg11.dtd">
<svg version="1.1" xmlns="http://www.w3.org/2000/svg" xmlns:xlink="http://www.w3.org/1999/xlink" viewBox="0 0 19.0068 18.6508">
 <g>
  <rect height="18.6508" opacity="0" width="19.0068" x="0" y="0"/>
  <path d="M14.3613 18.6375C16.7289 18.6375 18.6455 16.7209 18.6455 14.3533C18.6455 11.984 16.7289 10.0674 14.3613 10.0674C11.992 10.0674 10.0754 11.984 10.0754 14.3533C10.0754 16.7209 11.992 18.6375 14.3613 18.6375Z" fill="white" fill-opacity="0.85"/>
  <path d="M4.28594 18.641C6.65351 18.641 8.57011 16.7227 8.57011 14.3551C8.57011 11.9857 6.65351 10.0691 4.28594 10.0691C1.9166 10.0691 0 11.9857 0 14.3551C0 16.7227 1.9166 18.641 4.28594 18.641Z" fill="white" fill-opacity="0.85"/>
  <path d="M14.3613 8.57187C16.7289 8.57187 18.6455 6.65351 18.6455 4.28594C18.6455 1.9166 16.7289 0 14.3613 0C11.992 0 10.0754 1.9166 10.0754 4.28594C10.0754 6.65351 11.992 8.57187 14.3613 8.57187Z" fill="white" fill-opacity="0.85"/>
  <path d="M4.28594 8.57363C6.65351 8.57363 8.57011 6.65527 8.57011 4.28769C8.57011 1.92012 6.65351 0.00175774 4.28594 0.00175774C1.9166 0.00175774 0 1.92012 0 4.28769C0 6.65527 1.9166 8.57363 4.28594 8.57363Z" fill="white" fill-opacity="0.85"/>
 </g>
</svg>
