<?xml version="1.0" encoding="UTF-8"?>
<!--Generator: Apple Native CoreSVG 341-->
<!DOCTYPE svg
PUBLIC "-//W3C//DTD SVG 1.1//EN"
       "http://www.w3.org/Graphics/SVG/1.1/DTD/svg11.dtd">
<svg version="1.1" xmlns="http://www.w3.org/2000/svg" xmlns:xlink="http://www.w3.org/1999/xlink" viewBox="0 0 21.8035 19.8996">
 <g>
  <rect height="19.8996" opacity="0" width="21.8035" x="0" y="0"/>
  <path d="M14.3996 19.8978C16.2678 19.8978 17.7738 18.3838 17.7738 16.5236C17.7738 14.6537 16.2678 13.1396 14.3996 13.1396C12.5297 13.1396 11.0254 14.6537 11.0254 16.5236C11.0254 18.3838 12.5297 19.8978 14.3996 19.8978Z" fill="white" fill-opacity="0.85"/>
  <path d="M7.04257 19.8978C8.91073 19.8978 10.4168 18.3838 10.4168 16.5236C10.4168 14.6537 8.91073 13.1396 7.04257 13.1396C5.17265 13.1396 3.66836 14.6537 3.66836 16.5236C3.66836 18.3838 5.17265 19.8978 7.04257 19.8978Z" fill="white" fill-opacity="0.85"/>
  <path d="M18.068 13.3191C19.9361 13.3191 21.4422 11.8131 21.4422 9.94491C21.4422 8.07499 19.9361 6.5707 18.068 6.5707C16.198 6.5707 14.684 8.07499 14.684 9.94491C14.684 11.8131 16.198 13.3191 18.068 13.3191Z" fill="white" fill-opacity="0.85"/>
  <path d="M3.37421 13.3191C5.24413 13.3191 6.75644 11.8131 6.75644 9.94491C6.75644 8.07499 5.24413 6.5707 3.37421 6.5707C1.51406 6.5707 0 8.07499 0 9.94491C0 11.8131 1.51406 13.3191 3.37421 13.3191Z" fill="white" fill-opacity="0.85"/>
  <path d="M14.3996 6.74843C16.2678 6.74843 17.7738 5.24413 17.7738 3.37421C17.7738 1.50605 16.2678 0 14.3996 0C12.5297 0 11.0254 1.50605 11.0254 3.37421C11.0254 5.24413 12.5297 6.74843 14.3996 6.74843Z" fill="white" fill-opacity="0.85"/>
  <path d="M7.04257 6.74843C8.91073 6.74843 10.4168 5.24413 10.4168 3.37421C10.4168 1.50605 8.91073 0 7.04257 0C5.17265 0 3.66836 1.50605 3.66836 3.37421C3.66836 5.24413 5.17265 6.74843 7.04257 6.74843Z" fill="white" fill-opacity="0.85"/>
 </g>
</svg>
