<?xml version="1.0" encoding="UTF-8"?>
<!--Generator: Apple Native CoreSVG 341-->
<!DOCTYPE svg
PUBLIC "-//W3C//DTD SVG 1.1//EN"
       "http://www.w3.org/Graphics/SVG/1.1/DTD/svg11.dtd">
<svg version="1.1" xmlns="http://www.w3.org/2000/svg" xmlns:xlink="http://www.w3.org/1999/xlink" viewBox="0 0 18.5894 18.2316">
 <g>
  <rect height="18.2316" opacity="0" width="18.5894" x="0" y="0"/>
  <path d="M18.2281 3.17148L18.2281 15.0646C18.2281 17.1502 17.1404 18.2281 15.0246 18.2281L3.20351 18.2281C1.0957 18.2281 0 17.1502 0 15.0646L0 3.17148C0 1.08769 1.0957 0 3.20351 0L15.0246 0C17.1404 0 18.2281 1.08769 18.2281 3.17148ZM11.7154 5.26855L9.14003 7.82617L6.58241 5.27656C6.40155 5.10546 6.19765 5.01679 5.93261 5.01679C5.41835 5.01679 5.01933 5.40781 5.01933 5.93183C5.01933 6.17304 5.11152 6.39823 5.29062 6.57382L7.8375 9.12246L5.29062 11.6809C5.11152 11.8484 5.01933 12.0816 5.01933 12.3211C5.01933 12.8371 5.41835 13.2459 5.93261 13.2459C6.19765 13.2459 6.42733 13.1572 6.60643 12.9764L9.14003 10.4303L11.6834 12.9764C11.8545 13.1572 12.0922 13.2459 12.3492 13.2459C12.8715 13.2459 13.2785 12.8371 13.2785 12.3211C13.2785 12.0736 13.1863 11.8404 13.0072 11.6729L10.4541 9.12246L13.0152 6.56581C13.2023 6.37245 13.2865 6.16327 13.2865 5.91581C13.2865 5.3998 12.8795 5.00078 12.3652 5.00078C12.1162 5.00078 11.9043 5.08144 11.7154 5.26855Z" fill="white" fill-opacity="0.85"/>
 </g>
</svg>
