<?xml version="1.0" encoding="UTF-8"?>
<!--Generator: Apple Native CoreSVG 341-->
<!DOCTYPE svg
PUBLIC "-//W3C//DTD SVG 1.1//EN"
       "http://www.w3.org/Graphics/SVG/1.1/DTD/svg11.dtd">
<svg version="1.1" xmlns="http://www.w3.org/2000/svg" xmlns:xlink="http://www.w3.org/1999/xlink" viewBox="0 0 23.5105 20.1848">
 <g>
  <rect height="20.1848" opacity="0" width="23.5105" x="0" y="0"/>
  <path d="M22.7854 8.12363L18.1757 8.12363C17.4559 8.12363 17.2669 8.66894 17.66 9.21308L19.9266 12.3723C20.2374 12.8012 20.7255 12.8092 21.0344 12.3723L23.3028 9.22109C23.7057 8.66894 23.5167 8.12363 22.7854 8.12363ZM11.5786 20.175C12.1192 20.175 12.5641 19.7221 12.5641 19.1814C12.5641 18.6328 12.1192 18.1879 11.5786 18.1879C7.09948 18.1879 3.47819 14.5666 3.47819 10.0875C3.47819 5.60839 7.09948 1.9871 11.5786 1.9871C16.0577 1.9871 19.679 5.60839 19.679 10.091C19.679 10.6396 20.1319 11.0846 20.6725 11.0846C21.2132 11.0846 21.6581 10.6476 21.6661 10.099C21.6581 4.50937 17.1469 0 11.5786 0C6.01199 0 1.49109 4.51914 1.49109 10.0875C1.49109 15.6559 6.01199 20.175 11.5786 20.175ZM14.7606 19.5422C15.2743 19.5422 15.6993 19.1154 15.6993 18.6018C15.6993 18.0783 15.2743 17.6533 14.7606 17.6533C14.2372 17.6533 13.8122 18.0783 13.8122 18.6018C13.8122 19.1154 14.2372 19.5422 14.7606 19.5422ZM17.4694 18.058C17.9831 18.058 18.4081 17.633 18.4081 17.1193C18.4081 16.5959 17.9831 16.1691 17.4694 16.1691C16.946 16.1691 16.5192 16.5959 16.5192 17.1193C16.5192 17.633 16.946 18.058 17.4694 18.058ZM19.5221 15.7228C20.0358 15.7228 20.4608 15.2978 20.4608 14.7842C20.4608 14.259 20.0358 13.834 19.5221 13.834C18.9987 13.834 18.5719 14.259 18.5719 14.7842C18.5719 15.2978 18.9987 15.7228 19.5221 15.7228Z" fill="white" fill-opacity="0.85"/>
  <path d="M6.63366 11.3004L11.5706 11.3004C12.0042 11.3004 12.3491 10.9635 12.3491 10.5219L12.3491 4.1244C12.3491 3.68905 12.0042 3.35389 11.5706 3.35389C11.137 3.35389 10.8001 3.68905 10.8001 4.1244L10.8001 9.75136L6.63366 9.75136C6.20007 9.75136 5.86315 10.0883 5.86315 10.5219C5.86315 10.9635 6.20007 11.3004 6.63366 11.3004Z" fill="white" fill-opacity="0.85"/>
 </g>
</svg>
