<?xml version="1.0" encoding="UTF-8"?>
<!--Generator: Apple Native CoreSVG 341-->
<!DOCTYPE svg
PUBLIC "-//W3C//DTD SVG 1.1//EN"
       "http://www.w3.org/Graphics/SVG/1.1/DTD/svg11.dtd">
<svg version="1.1" xmlns="http://www.w3.org/2000/svg" xmlns:xlink="http://www.w3.org/1999/xlink" viewBox="0 0 20.5381 20.1848">
 <g>
  <rect height="20.1848" opacity="0" width="20.5381" x="0" y="0"/>
  <path d="M10.0875 20.175C15.6576 20.175 20.1767 15.6559 20.1767 10.0875C20.1767 4.51914 15.6576 0 10.0875 0C4.51914 0 0 4.51914 0 10.0875C0 15.6559 4.51914 20.175 10.0875 20.175ZM10.0875 18.1879C5.60839 18.1879 1.9871 14.5666 1.9871 10.0875C1.9871 5.60839 5.60839 1.9871 10.0875 1.9871C14.5666 1.9871 18.1897 5.60839 18.1897 10.0875C18.1897 14.5666 14.5666 18.1879 10.0875 18.1879Z" fill="white" fill-opacity="0.85"/>
  <path d="M5.15057 11.3004L10.0795 11.3004C10.5148 11.3004 10.858 10.9635 10.858 10.5219L10.858 4.1244C10.858 3.68905 10.5148 3.35389 10.0795 3.35389C9.6459 3.35389 9.30898 3.68905 9.30898 4.1244L9.30898 9.75136L5.15057 9.75136C4.70897 9.75136 4.37206 10.0883 4.37206 10.5219C4.37206 10.9635 4.70897 11.3004 5.15057 11.3004Z" fill="white" fill-opacity="0.85"/>
 </g>
</svg>
