<?xml version="1.0" encoding="UTF-8"?>
<!--Generator: Apple Native CoreSVG 341-->
<!DOCTYPE svg
PUBLIC "-//W3C//DTD SVG 1.1//EN"
       "http://www.w3.org/Graphics/SVG/1.1/DTD/svg11.dtd">
<svg version="1.1" xmlns="http://www.w3.org/2000/svg" xmlns:xlink="http://www.w3.org/1999/xlink" viewBox="0 0 23.2461 24.962">
 <g>
  <rect height="24.962" opacity="0" width="23.2461" x="0" y="0"/>
  <path d="M18.7244 23.8788C19.042 24.0509 19.4199 23.9392 19.5982 23.6331L20.8572 21.449C21.0435 21.1367 20.9441 20.7615 20.6346 20.5734C20.3107 20.3853 19.9541 20.4935 19.7643 20.8208L18.4973 23.013C18.3189 23.3173 18.3988 23.6908 18.7244 23.8788Z" fill="white" fill-opacity="0.85"/>
  <path d="M16.8369 21.1462C17.1527 21.3263 17.5324 21.2128 17.7107 20.9005L18.968 18.7244C19.1543 18.4023 19.0566 18.0288 18.7471 17.839C18.4215 17.6589 18.0666 17.7689 17.875 18.0865L16.6098 20.2884C16.4314 20.5927 16.5113 20.9644 16.8369 21.1462Z" fill="white" fill-opacity="0.85"/>
  <path d="M14.4297 19.8408L12.1373 19.8408L12.1055 20.3329L13.2934 18.0566C13.4088 17.8417 13.3209 17.674 13.1043 17.674L10.8129 17.674C10.5297 17.674 10.432 17.7716 10.3441 17.9785L8.98965 21.0638C8.88398 21.3062 8.98789 21.4544 9.24355 21.4544L11.1275 21.4544L11.2316 20.8343L9.65234 24.6703C9.6 24.799 9.63105 24.9064 9.71894 24.9454C9.80683 24.9845 9.91426 24.9552 10.0234 24.8495L14.5842 20.3326C14.7945 20.1212 14.7164 19.8408 14.4297 19.8408Z" fill="white" fill-opacity="0.85"/>
  <path d="M5.10449 23.8788C5.42207 24.0509 5.80175 23.9392 5.97832 23.6331L7.2373 21.449C7.42363 21.1367 7.32597 20.7615 7.0084 20.5734C6.69082 20.3853 6.33418 20.4935 6.14434 20.8208L4.86934 23.013C4.69902 23.3173 4.77891 23.6908 5.10449 23.8788Z" fill="white" fill-opacity="0.85"/>
  <path d="M3.21699 21.1462C3.53457 21.3263 3.9125 21.2128 4.09082 20.9005L5.3498 18.7244C5.53613 18.4023 5.43671 18.0288 5.11914 17.839C4.80332 17.6589 4.44668 17.7689 4.25684 18.0865L2.98984 20.2884C2.81152 20.5927 2.89141 20.9644 3.21699 21.1462Z" fill="white" fill-opacity="0.85"/>
  <path d="M5.36699 16.2335L17.5336 16.2335C20.8017 16.2335 23.2461 13.7492 23.2461 10.657C23.2461 7.47319 20.6842 5.11167 17.3279 5.11167C16.1283 2.7523 13.8996 1.15738 10.9402 1.15738C7.19804 1.15738 4.16191 4.03648 3.79394 7.67007C2 8.21929 0.634766 9.78062 0.634766 11.8851C0.634766 14.305 2.40586 16.2335 5.36699 16.2335ZM5.37031 14.4056C3.43163 14.4056 2.46093 13.3335 2.46093 11.9357C2.46093 10.7761 3.14979 9.77241 4.78183 9.34174C5.34354 9.18999 5.53358 8.92905 5.59296 8.35932C5.8703 5.15366 8.17675 2.98529 10.9402 2.98529C13.0707 2.98529 14.7676 4.16811 15.8275 6.29643C16.0644 6.78725 16.3609 6.95854 16.9564 6.95854C19.8541 6.95854 21.4199 8.65112 21.4199 10.6996C21.4199 12.7617 19.7928 14.4056 17.5961 14.4056Z" fill="white" fill-opacity="0.85"/>
 </g>
</svg>
