<?xml version="1.0" encoding="UTF-8"?>
<!--Generator: Apple Native CoreSVG 341-->
<!DOCTYPE svg
PUBLIC "-//W3C//DTD SVG 1.1//EN"
       "http://www.w3.org/Graphics/SVG/1.1/DTD/svg11.dtd">
<svg version="1.1" xmlns="http://www.w3.org/2000/svg" xmlns:xlink="http://www.w3.org/1999/xlink" viewBox="0 0 30.2931 27.9668">
 <g>
  <rect height="27.9668" opacity="0" width="30.2931" x="0" y="0"/>
  <path d="M17.5865 24.4678C17.9023 24.6478 18.0018 25.031 17.8154 25.3433L16.5484 27.5275C16.3781 27.8318 15.9922 27.9453 15.6826 27.7732C15.357 27.5851 15.2691 27.2117 15.4475 26.9074L16.7145 24.7152C16.9123 24.3879 17.2689 24.2797 17.5865 24.4678Z" fill="white" fill-opacity="0.85"/>
  <path d="M14.5211 21.7174C14.8387 21.9055 14.9381 22.2806 14.7518 22.601L13.4928 24.7771C13.3144 25.0912 12.9365 25.2029 12.6189 25.0228C12.2934 24.8428 12.2135 24.4631 12.3918 24.165L13.657 21.9648C13.8486 21.6455 14.2035 21.5373 14.5211 21.7174Z" fill="white" fill-opacity="0.85"/>
  <path d="M9.81933 24.4758C10.1289 24.6558 10.2266 25.039 10.0402 25.3513L8.783 27.5355C8.60468 27.8416 8.22675 27.9533 7.90918 27.7812C7.5916 27.5931 7.50371 27.2197 7.68203 26.9154L8.94726 24.7232C9.13886 24.3959 9.49375 24.2877 9.81933 24.4758Z" fill="white" fill-opacity="0.85"/>
  <path d="M6.75566 21.7254C7.07324 21.9135 7.16288 22.2887 6.97656 22.609L5.71933 24.7851C5.54101 25.0992 5.16132 25.2109 4.8455 25.0308C4.52793 24.8508 4.44004 24.4711 4.6166 24.173L5.88359 21.9728C6.07343 21.6535 6.43007 21.5453 6.75566 21.7254Z" fill="white" fill-opacity="0.85"/>
  <path d="M25.8805 14.79L27.3273 16.2324C27.6662 16.5713 27.6715 17.1346 27.3308 17.4672C26.9902 17.806 26.4217 17.8176 26.0908 17.4752L24.6394 16.0328C24.2988 15.6887 24.2953 15.1271 24.6342 14.7865C24.9748 14.4557 25.5381 14.4574 25.8805 14.79ZM24.9642 10.2352C24.9642 11.9715 24.0386 13.5119 22.6571 14.3769C22.3083 11.5077 20.016 9.37128 17.006 9.06172C16.6897 8.57035 16.3254 8.11742 15.9156 7.71367C16.7713 6.295 18.3275 5.34219 20.0873 5.34219C22.7592 5.34219 24.9642 7.54902 24.9642 10.2352ZM30.2931 10.2352C30.2931 10.723 29.8984 11.1143 29.4168 11.1143L27.3873 11.1143C26.9172 11.1143 26.5029 10.723 26.5029 10.2352C26.5029 9.75703 26.9172 9.35254 27.3873 9.35254L29.4168 9.35254C29.8984 9.35254 30.2931 9.75703 30.2931 10.2352ZM27.3238 3.00664C27.6644 3.34726 27.6644 3.92031 27.3221 4.26093L25.8814 5.69179C25.5346 6.03867 24.9678 6.03593 24.6289 5.69531C24.2883 5.35469 24.2883 4.78789 24.6306 4.45527L26.0873 3.01191C26.4217 2.66152 26.9849 2.66777 27.3238 3.00664ZM14.0998 3.00488L15.5369 4.45527C15.8695 4.7834 15.873 5.36094 15.5324 5.69355C15.1935 6.03242 14.6303 6.03066 14.2879 5.68828L12.857 4.24765C12.5164 3.91679 12.5209 3.34551 12.8615 3.00488C13.2004 2.66426 13.7707 2.6625 14.0998 3.00488ZM20.9646 0.884372L20.9646 2.91387C20.9646 3.39375 20.5637 3.79023 20.0838 3.79023C19.6039 3.79023 19.2029 3.39375 19.2029 2.91387L19.2029 0.884372C19.2029 0.410741 19.6039 0 20.0838 0C20.5637 0 20.9646 0.410741 20.9646 0.884372Z" fill="white" fill-opacity="0.85"/>
  <path d="M5.66387 20.0529L16.4957 20.0529C19.2965 20.0529 21.4547 17.9189 21.4547 15.1566C21.4547 12.3805 19.2346 10.2955 16.2637 10.283C15.167 8.20233 13.1719 6.81113 10.6051 6.81113C7.34941 6.81113 4.61367 9.30995 4.31621 12.5721C2.65645 13.0568 1.53887 14.4734 1.53887 16.2664C1.53887 18.4871 3.19434 20.0529 5.66387 20.0529Z" fill="white" fill-opacity="0.85"/>
 </g>
</svg>
