<?xml version="1.0" encoding="UTF-8"?>
<!--Generator: Apple Native CoreSVG 341-->
<!DOCTYPE svg
PUBLIC "-//W3C//DTD SVG 1.1//EN"
       "http://www.w3.org/Graphics/SVG/1.1/DTD/svg11.dtd">
<svg version="1.1" xmlns="http://www.w3.org/2000/svg" xmlns:xlink="http://www.w3.org/1999/xlink" viewBox="0 0 27.0169 17.6714">
 <g>
  <rect height="17.6714" opacity="0" width="27.0169" x="0" y="0"/>
  <path d="M20.4637 1.06831C20.4637 1.61695 20.1167 2.26109 20.1167 3.38745C20.1167 5.66206 21.377 6.98355 23.7952 6.98355C24.8374 6.98355 25.3458 6.71206 25.9756 6.71206C26.8042 6.71206 27.2399 7.46616 26.9018 8.32925C26.1415 10.3626 24.0552 12.182 20.9105 12.2366C20.9036 11.6553 20.797 11.1054 20.6026 10.601C20.659 10.6085 20.7179 10.6095 20.7772 10.6095C22.9145 10.6095 24.5921 9.55776 25.2676 8.30932L25.1958 8.23745C24.7571 8.38217 24.1389 8.50815 23.428 8.50815C20.5809 8.50815 18.5698 6.57749 18.5698 3.75425C18.5698 2.99702 18.718 2.33921 18.8805 1.8687L18.7696 1.79057C17.5061 2.51479 16.4419 3.97085 16.4419 5.86441C16.4419 6.42566 16.515 6.95378 16.6559 7.43704C16.3488 7.3787 16.0289 7.34803 15.7003 7.34292C15.4582 6.89208 15.1771 6.47928 14.8591 6.1109C14.8516 6.05182 14.8508 5.99046 14.8508 5.92886C14.8508 3.12105 16.6544 0.812065 18.8178 0.103082C19.7141-0.210199 20.4637 0.213042 20.4637 1.06831Z" fill="white" fill-opacity="0.85"/>
  <path d="M5.15885 17.3595L15.7692 17.3595C18.6618 17.3595 20.9153 15.1628 20.9153 12.3333C20.9153 9.51811 18.6669 7.38901 15.7003 7.34292C14.5436 5.18843 12.4938 3.90268 10.0237 3.90268C6.74733 3.90268 4.01589 6.38237 3.64089 9.63569C1.98464 10.1593 0.872337 11.6025 0.872337 13.4167C0.872337 15.7072 2.61159 17.3595 5.15885 17.3595ZM5.1444 15.558C3.52643 15.558 2.67741 14.6431 2.67741 13.454C2.67741 12.4347 3.28463 11.5687 4.69909 11.1869C5.18717 11.0644 5.35768 10.8408 5.40729 10.3269C5.67408 7.57143 7.63854 5.70424 10.0237 5.70424C11.8637 5.70424 13.3173 6.72807 14.2307 8.52865C14.4544 8.95912 14.694 9.11088 15.2096 9.11088C17.7424 9.11088 19.104 10.5921 19.104 12.3804C19.104 14.1458 17.6829 15.558 15.7739 15.558Z" fill="white" fill-opacity="0.85"/>
 </g>
</svg>
