<?xml version="1.0" encoding="UTF-8"?>
<!--Generator: Apple Native CoreSVG 341-->
<!DOCTYPE svg
PUBLIC "-//W3C//DTD SVG 1.1//EN"
       "http://www.w3.org/Graphics/SVG/1.1/DTD/svg11.dtd">
<svg version="1.1" xmlns="http://www.w3.org/2000/svg" xmlns:xlink="http://www.w3.org/1999/xlink" viewBox="0 0 20.5381 20.1848">
 <g>
  <rect height="20.1848" opacity="0" width="20.5381" x="0" y="0"/>
  <path d="M10.0875 20.175C15.6576 20.175 20.1767 15.6559 20.1767 10.0875C20.1767 4.51914 15.6576 0 10.0875 0C4.51914 0 0 4.51914 0 10.0875C0 15.6559 4.51914 20.175 10.0875 20.175ZM10.0875 18.1879C5.60839 18.1879 1.9871 14.5666 1.9871 10.0875C1.9871 5.60839 5.60839 1.9871 10.0875 1.9871C14.5666 1.9871 18.1897 5.60839 18.1897 10.0875C18.1897 14.5666 14.5666 18.1879 10.0875 18.1879Z" fill="white" fill-opacity="0.85"/>
  <path d="M7.09667 11.0578L12.7641 11.0578C14.2566 11.0578 15.4029 9.90527 15.4029 8.48027C15.4029 6.99218 14.2103 5.90995 12.6564 5.90995C12.0713 4.78222 11.0207 4.07245 9.69414 4.07245C7.97148 4.07245 6.54804 5.39765 6.36972 7.10429C5.52988 7.3705 4.91171 8.08437 4.91171 9.05585C4.91171 10.1699 5.7248 11.0578 7.09667 11.0578ZM8.42675 15.1195L9.86113 12.6283C9.99609 12.4019 9.92148 12.1312 9.69335 12.0025C9.47324 11.8818 9.20878 11.9519 9.08183 12.1783L7.63945 14.6615C7.51249 14.8781 7.57909 15.1586 7.80898 15.2873C8.02734 15.408 8.2998 15.3361 8.42675 15.1195ZM12.7478 15.1195L14.192 12.6283C14.327 12.4019 14.2506 12.1312 14.0242 12.0025C13.8023 11.8818 13.5379 11.9519 13.4047 12.1783L11.9686 14.6615C11.8416 14.8781 11.9082 15.1586 12.1381 15.2873C12.3564 15.408 12.6289 15.3361 12.7478 15.1195ZM10.5873 15.116L12.0217 12.623C12.1566 12.3984 12.082 12.126 11.8539 11.9973C11.6338 11.8766 11.3693 11.9484 11.2344 12.173L9.8 14.658C9.67304 14.8746 9.73964 15.1551 9.96953 15.2838C10.1879 15.4045 10.4603 15.3326 10.5873 15.116ZM6.25819 15.116L7.69257 12.623C7.82753 12.3984 7.75292 12.126 7.5248 11.9973C7.31269 11.8766 7.04023 11.9484 6.91327 12.173L5.46913 14.658C5.34394 14.8746 5.41054 15.1551 5.64042 15.2838C5.85878 15.4045 6.13124 15.3326 6.25819 15.116Z" fill="white" fill-opacity="0.85"/>
 </g>
</svg>
