<?xml version="1.0" encoding="UTF-8"?>
<!--Generator: Apple Native CoreSVG 341-->
<!DOCTYPE svg
PUBLIC "-//W3C//DTD SVG 1.1//EN"
       "http://www.w3.org/Graphics/SVG/1.1/DTD/svg11.dtd">
<svg version="1.1" xmlns="http://www.w3.org/2000/svg" xmlns:xlink="http://www.w3.org/1999/xlink" viewBox="0 0 23.2461 26.0195">
 <g>
  <rect height="26.0195" opacity="0" width="23.2461" x="0" y="0"/>
  <path d="M15.0264 24.5644C15.2215 24.5644 15.359 24.3861 15.3404 24.183L15.2545 23.257L16.0252 23.7967C16.1777 23.9119 16.4031 23.8746 16.5078 23.7105C16.6107 23.5482 16.5451 23.3096 16.342 23.2199L15.5021 22.8291L16.3518 22.4267C16.5469 22.3353 16.608 22.1117 16.5176 21.9494C16.4209 21.7791 16.176 21.7463 16.0234 21.8615L15.2562 22.4021L15.3484 21.4752C15.3732 21.2623 15.2215 21.0937 15.0264 21.0937C14.809 21.0937 14.6715 21.2623 14.6883 21.4752L14.7689 22.4021L13.9973 21.858C13.843 21.7445 13.6221 21.7711 13.5174 21.9494C13.4225 22.1117 13.4756 22.3371 13.6769 22.4267L14.5203 22.8273L13.6752 23.2217C13.4756 23.3131 13.4144 23.5385 13.5129 23.7105C13.6096 23.8826 13.843 23.9119 13.9973 23.7967L14.7689 23.2703L14.6963 24.183C14.6795 24.3861 14.809 24.5644 15.0264 24.5644Z" fill="white" fill-opacity="0.85"/>
  <path d="M9.45195 26.0195C9.65331 26.0195 9.78281 25.843 9.76425 25.6461L9.68632 24.7219L10.449 25.2517C10.6113 25.367 10.835 25.3297 10.9396 25.1674C11.0443 25.0033 10.9769 24.7664 10.7738 24.6767L9.93574 24.2922L10.7853 23.8916C10.9787 23.7984 11.0398 23.5765 10.9494 23.4045C10.8545 23.2342 10.6096 23.2014 10.4473 23.3166L9.68808 23.8652L9.77226 22.932C9.79706 22.7271 9.65331 22.5568 9.45195 22.5568C9.23281 22.5568 9.10332 22.7271 9.12011 22.932L9.19453 23.8652L8.4291 23.3148C8.26855 23.1996 8.04765 23.2262 7.94297 23.4045C7.84629 23.5765 7.89941 23.7922 8.10253 23.8916L8.9539 24.2904L8.10078 24.6865C7.89941 24.7762 7.83828 24.9953 7.93671 25.1674C8.03515 25.3457 8.26855 25.375 8.4291 25.2597L9.19453 24.7254L9.12812 25.6461C9.11308 25.843 9.23281 26.0195 9.45195 26.0195Z" fill="white" fill-opacity="0.85"/>
  <path d="M4.75156 24.5254C4.94668 24.5254 5.08242 24.3471 5.06386 24.1519L4.97793 23.2197L5.75039 23.7576C5.90293 23.8728 6.13632 23.8355 6.23125 23.6715C6.33593 23.5092 6.26855 23.2723 6.06718 23.1808L5.22734 22.79L6.07695 22.3877C6.27031 22.2963 6.33144 22.0824 6.24277 21.9103C6.1541 21.74 5.90117 21.7072 5.74687 21.8224L4.97968 22.3631L5.07187 21.4361C5.09668 21.233 4.94668 21.0627 4.75156 21.0627C4.53242 21.0627 4.39668 21.233 4.41172 21.4361L4.49414 22.3631L3.7207 21.8207C3.56816 21.7055 3.34726 21.732 3.24258 21.9103C3.14765 22.0824 3.19902 22.298 3.40215 22.3877L4.2455 22.7883L3.40039 23.1844C3.19902 23.274 3.13789 23.5012 3.23633 23.6715C3.33476 23.8515 3.56816 23.8808 3.7207 23.7656L4.49414 23.2312L4.42148 24.1519C4.40469 24.3471 4.53242 24.5254 4.75156 24.5254Z" fill="white" fill-opacity="0.85"/>
  <path d="M16.9367 20.3258L17.5435 19.2578C17.7316 18.9437 17.6385 18.5623 17.3209 18.3742C17.0033 18.1941 16.6404 18.3086 16.4488 18.6217L15.834 19.7137C15.6654 20.0099 15.7373 20.3834 16.0611 20.5715C16.3787 20.7515 16.7584 20.6301 16.9367 20.3258Z" fill="white" fill-opacity="0.85"/>
  <path d="M10.9601 21.7808L12.4344 19.2303C12.6127 18.9082 12.523 18.5347 12.2135 18.3529C11.8879 18.1648 11.5232 18.2748 11.3414 18.6021L9.85917 21.1687C9.68085 21.473 9.76874 21.8465 10.0943 22.0265C10.4039 22.2066 10.7898 22.0949 10.9601 21.7808Z" fill="white" fill-opacity="0.85"/>
  <path d="M6.70233 20.2867L7.30917 19.2187C7.49726 18.9047 7.40409 18.5232 7.08652 18.3351C6.7707 18.1551 6.40605 18.2695 6.21621 18.5826L5.5996 19.6746C5.43105 19.9709 5.50292 20.3443 5.82851 20.5324C6.14433 20.7125 6.52402 20.599 6.70233 20.2867Z" fill="white" fill-opacity="0.85"/>
  <path d="M5.36699 16.7623L17.5336 16.7623C20.8017 16.7623 23.2461 14.2779 23.2461 11.1857C23.2461 8.00195 20.6842 5.64043 17.3279 5.64043C16.1283 3.28105 13.8996 1.68613 10.9402 1.68613C7.19804 1.68613 4.16191 4.56523 3.79394 8.19883C2 8.74804 0.634766 10.3094 0.634766 12.4139C0.634766 14.8338 2.40586 16.7623 5.36699 16.7623Z" fill="white" fill-opacity="0.85"/>
 </g>
</svg>
