<?xml version="1.0" encoding="UTF-8"?>
<!--Generator: Apple Native CoreSVG 341-->
<!DOCTYPE svg
PUBLIC "-//W3C//DTD SVG 1.1//EN"
       "http://www.w3.org/Graphics/SVG/1.1/DTD/svg11.dtd">
<svg version="1.1" xmlns="http://www.w3.org/2000/svg" xmlns:xlink="http://www.w3.org/1999/xlink" viewBox="0 0 20.5381 20.1848">
 <g>
  <rect height="20.1848" opacity="0" width="20.5381" x="0" y="0"/>
  <path d="M20.1767 10.0973C20.1767 15.6656 15.6576 20.1848 10.0875 20.1848C4.52715 20.1848 0 15.6656 0 10.0973C0 4.53691 4.52715 0.00976562 10.0875 0.00976562C15.6576 0.00976562 20.1767 4.53691 20.1767 10.0973ZM4.88691 10.4381C4.07987 10.7018 3.53202 11.4111 3.53202 12.2945C3.53202 13.4193 4.37284 14.2211 5.61054 14.2211L10.8902 14.2211C12.2984 14.2211 13.3791 13.1592 13.3791 11.7635C13.3791 10.3875 12.2896 9.33632 10.8141 9.3123C10.2687 8.29355 9.28476 7.61015 8.02363 7.61015C6.40956 7.61015 5.06269 8.85058 4.88691 10.4381ZM10.9092 8.1791C11.0369 8.3166 11.1434 8.4541 11.248 8.6041C12.7912 8.80917 13.9455 9.93593 14.0918 11.432C15.749 11.2246 16.7525 9.9041 16.7525 9.03398C16.7525 8.84668 16.6727 8.70019 16.5146 8.70019C16.2687 8.70019 15.9012 9.00214 15.2246 9.00214C14.0248 9.0039 13.2734 8.29433 13.2734 7.19843C13.2734 6.54413 13.6154 6.05488 13.6154 5.78945C13.6154 5.63945 13.492 5.54179 13.3047 5.54179C12.3473 5.58359 11.0805 6.71503 10.9092 8.1791Z" fill="white" fill-opacity="0.85"/>
 </g>
</svg>
