<?xml version="1.0" encoding="UTF-8"?>
<!--Generator: Apple Native CoreSVG 341-->
<!DOCTYPE svg
PUBLIC "-//W3C//DTD SVG 1.1//EN"
       "http://www.w3.org/Graphics/SVG/1.1/DTD/svg11.dtd">
<svg version="1.1" xmlns="http://www.w3.org/2000/svg" xmlns:xlink="http://www.w3.org/1999/xlink" viewBox="0 0 23.2461 24.8445">
 <g>
  <rect height="24.8445" opacity="0" width="23.2461" x="0" y="0"/>
  <path d="M14.5439 24.8445C14.7373 24.8445 14.873 24.6582 14.8562 24.4631L14.7703 23.5388L15.541 24.0767C15.6953 24.184 15.9269 24.1467 16.0316 23.9826C16.1301 23.8203 16.0689 23.5851 15.8578 23.4937L15.0197 23.1092L15.8693 22.7068C16.0707 22.6154 16.1238 22.3935 16.0414 22.2295C15.9465 22.0592 15.6936 22.0263 15.5393 22.1336L14.7721 22.6822L14.8643 21.7472C14.8891 21.5441 14.7373 21.3738 14.5439 21.3738C14.3248 21.3738 14.1953 21.5441 14.2121 21.7472L14.2865 22.6822L13.5131 22.1318C13.3605 22.0263 13.1396 22.0512 13.035 22.2295C12.9383 22.3935 12.9914 22.6074 13.1945 22.7068L14.0379 23.1074L13.1928 23.5035C12.9914 23.5949 12.9303 23.8123 13.0287 23.9826C13.1254 24.1627 13.3605 24.192 13.5131 24.0767L14.2865 23.5424L14.2201 24.4631C14.2051 24.6582 14.3248 24.8445 14.5439 24.8445Z" fill="white" fill-opacity="0.85"/>
  <path d="M9.13379 24.8445C9.32715 24.8445 9.46289 24.6582 9.44609 24.4631L9.36816 23.5388L10.1309 24.0767C10.2852 24.184 10.5186 24.1467 10.6215 23.9826C10.7199 23.8203 10.6588 23.5851 10.4477 23.4937L9.60957 23.1092L10.4592 22.7068C10.6605 22.6154 10.7137 22.3935 10.633 22.2295C10.5363 22.0592 10.2834 22.0263 10.1291 22.1336L9.36992 22.6822L9.4541 21.7472C9.4789 21.5441 9.32715 21.3738 9.13379 21.3738C8.91465 21.3738 8.78515 21.5441 8.80195 21.7472L8.87636 22.6822L8.10293 22.1318C7.95039 22.0263 7.72949 22.0512 7.6248 22.2295C7.52812 22.3935 7.58125 22.6074 7.78437 22.7068L8.62773 23.1074L7.78261 23.5035C7.58125 23.5949 7.52012 23.8123 7.61855 23.9826C7.71523 24.1627 7.95039 24.192 8.10293 24.0767L8.87636 23.5424L8.80996 24.4631C8.79492 24.6582 8.91465 24.8445 9.13379 24.8445Z" fill="white" fill-opacity="0.85"/>
  <path d="M3.72363 24.8445C3.91699 24.8445 4.05273 24.6582 4.03593 24.4631L3.95801 23.5388L4.7207 24.0767C4.88301 24.184 5.1084 24.1467 5.21132 23.9826C5.30976 23.8203 5.24863 23.5851 5.0375 23.4937L4.20742 23.1092L5.04902 22.7068C5.25039 22.6154 5.30351 22.3935 5.22285 22.2295C5.12617 22.0592 4.88125 22.0263 4.71894 22.1336L3.95976 22.6822L4.04394 21.7472C4.06875 21.5441 3.91699 21.3738 3.72363 21.3738C3.50449 21.3738 3.375 21.5441 3.3918 21.7472L3.46621 22.6822L2.70078 22.1318C2.54023 22.0263 2.31933 22.0512 2.21465 22.2295C2.11797 22.3935 2.17109 22.6074 2.37422 22.7068L3.21758 23.1074L2.37246 23.5035C2.17109 23.5949 2.10996 23.8123 2.2084 23.9826C2.30508 24.1627 2.54023 24.192 2.70078 24.0767L3.46621 23.5424L3.3998 24.4631C3.38476 24.6582 3.50449 24.8445 3.72363 24.8445Z" fill="white" fill-opacity="0.85"/>
  <path d="M16.6631 21.1744C16.8564 21.1744 16.9922 20.9961 16.9754 20.801L16.8895 19.867L17.6602 20.4066C17.8145 20.5219 18.0461 20.4845 18.1508 20.3205C18.2492 20.1582 18.1881 19.923 17.977 19.8299L17.1389 19.439L17.9885 19.0367C18.1898 18.9453 18.243 18.7297 18.1605 18.5594C18.0656 18.389 17.8127 18.3562 17.6584 18.4715L16.8912 19.0121L16.9834 18.0851C17.0082 17.8803 16.8564 17.7117 16.6631 17.7117C16.4439 17.7117 16.3145 17.8803 16.3312 18.0851L16.4057 19.0121L15.6322 18.4679C15.4797 18.3562 15.2588 18.381 15.1541 18.5594C15.0574 18.7297 15.1105 18.9453 15.3137 19.0367L16.157 19.4373L15.3119 19.8316C15.1105 19.9248 15.0494 20.1484 15.1478 20.3205C15.2445 20.4926 15.4797 20.5219 15.6322 20.4146L16.4057 19.8803L16.3393 20.801C16.3242 20.9961 16.4439 21.1744 16.6631 21.1744Z" fill="white" fill-opacity="0.85"/>
  <path d="M11.2529 21.1744C11.4463 21.1744 11.582 20.9961 11.5652 20.801L11.4873 19.867L12.25 20.4066C12.4043 20.5219 12.6377 20.4845 12.7406 20.3205C12.8391 20.1582 12.7779 19.923 12.5668 19.8299L11.7287 19.439L12.5783 19.0367C12.7797 18.9453 12.8328 18.7297 12.7521 18.5594C12.6555 18.389 12.4025 18.3562 12.2482 18.4715L11.4891 19.0121L11.5732 18.0851C11.598 17.8803 11.4463 17.7117 11.2529 17.7117C11.0338 17.7117 10.9043 17.8803 10.9211 18.0851L10.9955 19.0121L10.2221 18.4679C10.0695 18.3562 9.84863 18.381 9.74394 18.5594C9.64726 18.7297 9.70039 18.9453 9.90351 19.0367L10.7469 19.4373L9.90176 19.8316C9.70039 19.9248 9.63926 20.1484 9.73769 20.3205C9.83437 20.4926 10.0695 20.5219 10.2221 20.4146L10.9955 19.8803L10.9291 20.801C10.9141 20.9961 11.0338 21.1744 11.2529 21.1744Z" fill="white" fill-opacity="0.85"/>
  <path d="M5.84277 21.1744C6.03613 21.1744 6.17187 20.9961 6.15507 20.801L6.07715 19.867L6.83984 20.4066C6.99414 20.5219 7.22754 20.4845 7.33047 20.3205C7.4289 20.1582 7.36777 19.923 7.15664 19.8299L6.32656 19.439L7.16816 19.0367C7.36953 18.9453 7.42265 18.7297 7.34199 18.5594C7.24531 18.389 6.99238 18.3562 6.83808 18.4715L6.0789 19.0121L6.16308 18.0851C6.18789 17.8803 6.03613 17.7117 5.84277 17.7117C5.62363 17.7117 5.49414 17.8803 5.51094 18.0851L5.58535 19.0121L4.81992 18.4679C4.65937 18.3562 4.43847 18.381 4.33379 18.5594C4.23711 18.7297 4.29023 18.9453 4.49336 19.0367L5.33672 19.4373L4.4916 19.8316C4.29023 19.9248 4.2291 20.1484 4.32754 20.3205C4.42422 20.4926 4.65937 20.5219 4.81992 20.4146L5.58535 19.8803L5.51894 20.801C5.5039 20.9961 5.62363 21.1744 5.84277 21.1744Z" fill="white" fill-opacity="0.85"/>
  <path d="M5.36699 16.1748L17.5336 16.1748C20.8017 16.1748 23.2461 13.6904 23.2461 10.5982C23.2461 7.41444 20.6842 5.05292 17.3279 5.05292C16.1283 2.69355 13.8996 1.09863 10.9402 1.09863C7.19804 1.09863 4.16191 3.97773 3.79394 7.61132C2 8.16054 0.634766 9.72187 0.634766 11.8264C0.634766 14.2463 2.40586 16.1748 5.36699 16.1748ZM5.37031 14.3469C3.43163 14.3469 2.46093 13.2748 2.46093 11.8769C2.46093 10.7174 3.14979 9.71366 4.78183 9.28299C5.34354 9.13124 5.53358 8.8703 5.59296 8.30057C5.8703 5.09491 8.17675 2.92655 10.9402 2.92655C13.0707 2.92655 14.7676 4.10936 15.8275 6.23768C16.0644 6.7285 16.3609 6.89979 16.9564 6.89979C19.8541 6.89979 21.4199 8.59237 21.4199 10.6408C21.4199 12.7029 19.7928 14.3469 17.5961 14.3469Z" fill="white" fill-opacity="0.85"/>
 </g>
</svg>
