<?xml version="1.0" encoding="UTF-8"?>
<!--Generator: Apple Native CoreSVG 341-->
<!DOCTYPE svg
PUBLIC "-//W3C//DTD SVG 1.1//EN"
       "http://www.w3.org/Graphics/SVG/1.1/DTD/svg11.dtd">
<svg version="1.1" xmlns="http://www.w3.org/2000/svg" xmlns:xlink="http://www.w3.org/1999/xlink" viewBox="0 0 20.5381 20.1848">
 <g>
  <rect height="20.1848" opacity="0" width="20.5381" x="0" y="0"/>
  <path d="M10.0875 20.175C15.6576 20.175 20.1767 15.6559 20.1767 10.0875C20.1767 4.51914 15.6576 0 10.0875 0C4.51914 0 0 4.51914 0 10.0875C0 15.6559 4.51914 20.175 10.0875 20.175ZM10.0875 18.1879C5.60839 18.1879 1.9871 14.5666 1.9871 10.0875C1.9871 5.60839 5.60839 1.9871 10.0875 1.9871C14.5666 1.9871 18.1897 5.60839 18.1897 10.0875C18.1897 14.5666 14.5666 18.1879 10.0875 18.1879Z" fill="white" fill-opacity="0.85"/>
  <path d="M5.56171 12.7426L10.3703 12.7426C11.6623 12.7426 12.6418 11.756 12.6418 10.4846C12.6418 9.23456 11.6455 8.27831 10.3057 8.25429C9.80292 7.32518 8.90859 6.69765 7.75917 6.69765C6.2871 6.69765 5.05644 7.82538 4.89394 9.2789C4.16679 9.52753 3.66151 10.1668 3.66151 10.9846C3.66151 12.0047 4.42069 12.7426 5.56171 12.7426ZM9.41171 6.27792C9.59277 6.46698 9.89628 6.44921 10.0693 6.27968C10.2344 6.10663 10.2451 5.80487 10.0693 5.63183L9.41366 4.9789C9.22734 4.80761 8.94335 4.80937 8.76405 4.9789C8.58749 5.14394 8.59452 5.44569 8.76757 5.62675ZM12.0193 5.45741C12.282 5.45741 12.4826 5.25507 12.4826 5.00038L12.4826 4.08886C12.4826 3.83241 12.282 3.63007 12.0193 3.63007C11.7762 3.63007 11.5658 3.83241 11.5658 4.08886L11.5658 5.00038C11.5658 5.25507 11.7762 5.45741 12.0193 5.45741ZM13.9924 6.27167C14.1619 6.44921 14.4752 6.46698 14.6527 6.27968L15.2924 5.63026C15.4672 5.44745 15.4609 5.14394 15.2941 4.98065C15.1166 4.80761 14.8291 4.7996 14.648 4.98065L13.9924 5.63007C13.8113 5.80487 13.8256 6.10663 13.9924 6.27167ZM15.2664 8.69296L16.1734 8.69296C16.4344 8.69296 16.635 8.48886 16.635 8.23769C16.635 7.97851 16.4344 7.78242 16.1734 7.78242L15.2664 7.78242C15.0232 7.78242 14.8111 7.97851 14.8111 8.23769C14.8111 8.48886 15.0232 8.69296 15.2664 8.69296ZM14.648 11.5125C14.8291 11.6935 15.1148 11.6775 15.2941 11.5027C15.4592 11.3217 15.4672 11.0217 15.2924 10.8566L14.6562 10.2187C14.4734 10.0457 14.1682 10.0439 13.9889 10.217C13.8221 10.3865 13.8078 10.69 13.9906 10.8711ZM14.2721 8.23769C14.2721 6.99277 13.2775 6.00448 12.0211 6.00448C11.2602 6.00448 10.5773 6.38983 10.1893 6.97323C10.3908 7.16679 10.5586 7.36835 10.7113 7.6037C12.0859 7.77948 13.1355 8.76874 13.2996 10.0945C13.9 9.66113 14.2721 8.99159 14.2721 8.23769ZM6.76327 14.8561C6.71445 14.9697 6.76152 15.0639 6.89472 15.0639L7.73281 15.0639L7.11015 16.5615C7.06308 16.6797 7.20077 16.7613 7.30195 16.6574L9.50058 14.5094C9.60624 14.4072 9.55917 14.2607 9.41444 14.2607L8.42284 14.2607L8.85292 13.4564C8.90976 13.3543 8.86093 13.2566 8.74726 13.2566L7.6416 13.2566C7.50039 13.2566 7.44531 13.3055 7.39824 13.4094Z" fill="white" fill-opacity="0.85"/>
 </g>
</svg>
