<?xml version="1.0" encoding="UTF-8"?>
<!--Generator: Apple Native CoreSVG 341-->
<!DOCTYPE svg
PUBLIC "-//W3C//DTD SVG 1.1//EN"
       "http://www.w3.org/Graphics/SVG/1.1/DTD/svg11.dtd">
<svg version="1.1" xmlns="http://www.w3.org/2000/svg" xmlns:xlink="http://www.w3.org/1999/xlink" viewBox="0 0 20.5381 20.1848">
 <g>
  <rect height="20.1848" opacity="0" width="20.5381" x="0" y="0"/>
  <path d="M20.1767 10.0973C20.1767 15.6656 15.6576 20.1848 10.0875 20.1848C4.52715 20.1848 0 15.6656 0 10.0973C0 4.53691 4.52715 0.00976562 10.0875 0.00976562C15.6576 0.00976562 20.1767 4.53691 20.1767 10.0973ZM7.54238 13.4002C7.3914 13.4002 7.33632 13.441 7.2875 13.5467L6.63124 15.051C6.58242 15.1727 6.62773 15.2605 6.76269 15.2605L7.63535 15.2605L6.9914 16.8221C6.94433 16.9402 7.08202 17.0236 7.18495 16.926L9.48105 14.6955C9.58671 14.5756 9.5414 14.4353 9.39315 14.4353L8.35722 14.4353L8.80507 13.6018C8.86366 13.4898 8.81484 13.4002 8.69765 13.4002ZM4.68749 9.25585C3.9373 9.51777 3.40898 10.1801 3.40898 11.0262C3.40898 12.0906 4.20097 12.8533 5.38007 12.8533L10.3853 12.8533C11.7234 12.8533 12.741 11.8402 12.741 10.5191C12.741 9.21327 11.7066 8.21894 10.3092 8.19316C9.79316 7.23124 8.86425 6.5789 7.66347 6.5789C6.14179 6.5789 4.86152 7.75097 4.68749 9.25585ZM14.1359 10.2268C13.9656 10.4096 13.9514 10.7326 14.1377 10.9092L14.8164 11.5799C15.009 11.7707 15.308 11.7467 15.4891 11.5701C15.6656 11.3855 15.6736 11.0758 15.4873 10.8894L14.8299 10.2303C14.6435 10.0537 14.3268 10.0519 14.1359 10.2268ZM10.191 6.86249C10.4041 7.06132 10.5754 7.27265 10.7361 7.50976C12.1586 7.69531 13.2543 8.72265 13.4236 10.1025C14.0453 9.65761 14.4307 8.95527 14.4307 8.18456C14.4307 6.88202 13.3998 5.85917 12.0955 5.85917C11.308 5.85917 10.5924 6.2578 10.191 6.86249ZM15.4648 7.69472C15.2164 7.69472 14.991 7.9121 14.991 8.18456C14.991 8.44101 15.2164 8.65312 15.4648 8.65312L16.4029 8.65312C16.6771 8.65312 16.8875 8.44101 16.8875 8.18456C16.8875 7.9121 16.6771 7.69472 16.4029 7.69472ZM14.8164 4.79901L14.1412 5.46796C13.9549 5.64628 13.9691 5.96132 14.1412 6.14413C14.3205 6.31718 14.6453 6.33671 14.8264 6.15214L15.4873 5.47343C15.6736 5.2871 15.6674 4.97206 15.4891 4.79901C15.3098 4.6207 15.009 4.60468 14.8164 4.79901ZM8.70995 4.78573C8.52812 4.96405 8.53691 5.27733 8.71171 5.46991L9.3789 6.15038C9.56972 6.33671 9.88652 6.31718 10.0711 6.14413C10.2379 5.96132 10.2486 5.65429 10.0711 5.46972L9.39237 4.79374C9.19452 4.61269 8.89726 4.62245 8.70995 4.78573ZM11.6172 3.87089L11.6172 4.81523C11.6172 5.07343 11.8373 5.29706 12.0937 5.29706C12.368 5.29706 12.5783 5.07343 12.5783 4.81523L12.5783 3.87089C12.5783 3.60292 12.368 3.39081 12.0937 3.39081C11.8373 3.39081 11.6172 3.60292 11.6172 3.87089Z" fill="white" fill-opacity="0.85"/>
 </g>
</svg>
