<?xml version="1.0" encoding="UTF-8"?>
<!--Generator: Apple Native CoreSVG 341-->
<!DOCTYPE svg
PUBLIC "-//W3C//DTD SVG 1.1//EN"
       "http://www.w3.org/Graphics/SVG/1.1/DTD/svg11.dtd">
<svg version="1.1" xmlns="http://www.w3.org/2000/svg" xmlns:xlink="http://www.w3.org/1999/xlink" viewBox="0 0 23.2461 23.065">
 <g>
  <rect height="23.065" opacity="0" width="23.2461" x="0" y="0"/>
  <path d="M16.5019 22.7251L17.7592 20.5507C17.9455 20.2286 17.8478 19.8534 17.5303 19.6733C17.2127 19.4852 16.8578 19.5934 16.6662 19.9208L15.393 22.113C15.2227 22.419 15.3025 22.7907 15.6281 22.9708C15.9457 23.1509 16.3236 23.0391 16.5019 22.7251Z" fill="white" fill-opacity="0.85"/>
  <path d="M13.4383 19.9845L14.6955 17.8003C14.8818 17.4862 14.7842 17.1128 14.4666 16.9229C14.149 16.7429 13.7924 16.8448 13.6025 17.1722L12.3355 19.3724C12.159 19.6686 12.2389 20.0403 12.5627 20.2302C12.8803 20.4102 13.26 20.2888 13.4383 19.9845Z" fill="white" fill-opacity="0.85"/>
  <path d="M8.72851 22.7349L9.98573 20.5587C10.1721 20.2366 10.0824 19.8614 9.76484 19.6813C9.43925 19.4933 9.08261 19.6015 8.89277 19.9288L7.62578 22.1227C7.44746 22.427 7.53535 22.7987 7.85292 22.9788C8.1705 23.1589 8.55019 23.0472 8.72851 22.7349Z" fill="white" fill-opacity="0.85"/>
  <path d="M5.66308 19.9925L6.92206 17.8083C7.1164 17.4942 7.01698 17.1208 6.70117 16.9327C6.38359 16.7526 6.02695 16.8528 5.8291 17.1802L4.5621 19.3804C4.38379 19.6767 4.47168 20.0501 4.79726 20.2382C5.10683 20.4183 5.48476 20.2968 5.66308 19.9925Z" fill="white" fill-opacity="0.85"/>
  <path d="M5.36699 15.2851L17.5336 15.2851C20.8017 15.2851 23.2461 12.8007 23.2461 9.7085C23.2461 6.52471 20.6842 4.16319 17.3279 4.16319C16.1283 1.80381 13.8996 0.208894 10.9402 0.208894C7.19804 0.208894 4.16191 3.088 3.79394 6.72159C2 7.27081 0.634766 8.83213 0.634766 10.9366C0.634766 13.3565 2.40586 15.2851 5.36699 15.2851ZM5.37031 13.4571C3.43163 13.4571 2.46093 12.3851 2.46093 10.9872C2.46093 9.82764 3.14979 8.82393 4.78183 8.39326C5.34354 8.2415 5.53358 7.98057 5.59296 7.41084C5.8703 4.20518 8.17675 2.03681 10.9402 2.03681C13.0707 2.03681 14.7676 3.21963 15.8275 5.34795C16.0644 5.83877 16.3609 6.01006 16.9564 6.01006C19.8541 6.01006 21.4199 7.70264 21.4199 9.75108C21.4199 11.8132 19.7928 13.4571 17.5961 13.4571Z" fill="white" fill-opacity="0.85"/>
 </g>
</svg>
