<?xml version="1.0" encoding="UTF-8"?>
<!--Generator: Apple Native CoreSVG 341-->
<!DOCTYPE svg
PUBLIC "-//W3C//DTD SVG 1.1//EN"
       "http://www.w3.org/Graphics/SVG/1.1/DTD/svg11.dtd">
<svg version="1.1" xmlns="http://www.w3.org/2000/svg" xmlns:xlink="http://www.w3.org/1999/xlink" viewBox="0 0 23.2461 23.1241">
 <g>
  <rect height="23.1241" opacity="0" width="23.2461" x="0" y="0"/>
  <path d="M15.7092 22.7919L18.5875 17.8183C18.7641 17.506 18.6744 17.1405 18.3666 16.9587C18.065 16.7706 17.6906 16.8743 17.5025 17.1982L14.6402 22.1558C14.4637 22.4681 14.5516 22.8415 14.8611 23.0296C15.1689 23.2097 15.5309 23.1042 15.7092 22.7919Z" fill="white" fill-opacity="0.85"/>
  <path d="M13.4383 20.014L14.6955 17.8298C14.8818 17.5157 14.7842 17.1423 14.4666 16.9525C14.149 16.7724 13.7924 16.8743 13.6025 17.2017L12.3355 19.4019C12.159 19.6982 12.2389 20.0698 12.5627 20.2597C12.8803 20.4398 13.26 20.3183 13.4383 20.014Z" fill="white" fill-opacity="0.85"/>
  <path d="M7.94374 22.7999L10.8123 17.828C10.9906 17.514 10.909 17.1485 10.5994 16.9685C10.2898 16.7786 9.90742 16.8823 9.72734 17.2062L6.8748 22.1638C6.69648 22.4761 6.77636 22.8495 7.09394 23.0376C7.40351 23.2177 7.76542 23.106 7.94374 22.7999Z" fill="white" fill-opacity="0.85"/>
  <path d="M5.66308 20.022L6.92206 17.8378C7.1164 17.5237 7.01698 17.1503 6.70117 16.9622C6.38359 16.7821 6.02695 16.8823 5.8291 17.2097L4.5621 19.4099C4.38379 19.7062 4.47168 20.0796 4.79726 20.2677C5.10683 20.4478 5.48476 20.3263 5.66308 20.022Z" fill="white" fill-opacity="0.85"/>
  <path d="M5.36699 15.3146L17.5336 15.3146C20.8017 15.3146 23.2461 12.8302 23.2461 9.73801C23.2461 6.55422 20.6842 4.1927 17.3279 4.1927C16.1283 1.83333 13.8996 0.238406 10.9402 0.238406C7.19804 0.238406 4.16191 3.11751 3.79394 6.7511C2 7.30032 0.634766 8.86165 0.634766 10.9661C0.634766 13.3861 2.40586 15.3146 5.36699 15.3146Z" fill="white" fill-opacity="0.85"/>
 </g>
</svg>
