<?xml version="1.0" encoding="UTF-8"?>
<!--Generator: Apple Native CoreSVG 341-->
<!DOCTYPE svg
PUBLIC "-//W3C//DTD SVG 1.1//EN"
       "http://www.w3.org/Graphics/SVG/1.1/DTD/svg11.dtd">
<svg version="1.1" xmlns="http://www.w3.org/2000/svg" xmlns:xlink="http://www.w3.org/1999/xlink" viewBox="0 0 27.4207 25.1095">
 <g>
  <rect height="25.1095" opacity="0" width="27.4207" x="0" y="0"/>
  <path d="M17.2 21.7098C17.5176 21.8979 17.617 22.2731 17.4306 22.5854L16.1717 24.7696C15.9933 25.0836 15.6154 25.1953 15.2978 25.0153C14.9723 24.8272 14.8924 24.4555 15.0707 24.1575L16.3359 21.9573C16.5275 21.6379 16.8824 21.5297 17.2 21.7098Z" fill="white" fill-opacity="0.85"/>
  <path d="M14.1443 18.9674C14.4539 19.1475 14.5515 19.5227 14.3652 19.8448L13.108 22.0209C12.9297 22.3332 12.55 22.445 12.2342 22.2729C11.9086 22.0848 11.8287 21.7131 12.0053 21.4088L13.2723 19.2149C13.4621 18.8875 13.8187 18.7793 14.1443 18.9674Z" fill="white" fill-opacity="0.85"/>
  <path d="M9.43456 21.7178C9.75213 21.9059 9.84979 22.2811 9.65545 22.5934L8.39823 24.7776C8.21991 25.0916 7.84022 25.2033 7.53241 25.0233C7.20682 24.8352 7.11893 24.4635 7.2955 24.1655L8.56249 21.9653C8.76034 21.6459 9.11698 21.5377 9.43456 21.7178Z" fill="white" fill-opacity="0.85"/>
  <path d="M6.37088 18.9754C6.68846 19.1573 6.78612 19.5307 6.59979 19.8528L5.3328 22.0289C5.15624 22.3412 4.77655 22.4547 4.46698 22.2826C4.1414 22.0928 4.0535 21.7211 4.23182 21.4168L5.49882 19.2229C5.69667 18.8955 6.05331 18.7873 6.37088 18.9754Z" fill="white" fill-opacity="0.85"/>
  <path d="M21.075 0.900635C21.075 1.43931 20.4097 2.40063 20.4097 3.71782C20.4097 5.93403 21.8445 7.31098 24.2347 7.31098C25.6275 7.31098 26.3465 6.6895 26.8461 6.6895C27.1674 6.6895 27.3369 6.97973 27.3369 7.37466C27.3369 8.85078 25.7627 11.5284 22.5699 12.027C22.3849 8.93603 20.0177 6.60474 16.8523 6.25786C16.5524 5.79464 16.2114 5.36758 15.8312 4.9852C16.4024 2.27503 18.7593 0.452443 20.4758 0.396534C20.8584 0.388526 21.075 0.592627 21.075 0.900635Z" fill="white" fill-opacity="0.85"/>
  <path d="M5.46054 17.3047L16.3021 17.3047C19.0851 17.3047 21.2353 15.1868 21.2353 12.4307C21.2353 9.65453 19.0232 7.57758 16.0523 7.56508C14.9396 5.45414 12.9365 4.09321 10.4115 4.09321C7.16386 4.09321 4.42636 6.59203 4.13691 9.84789C2.44687 10.3389 1.36132 11.7733 1.36132 13.5342C1.36132 15.7709 3.03105 17.3047 5.46054 17.3047Z" fill="white" fill-opacity="0.85"/>
 </g>
</svg>
