<?xml version="1.0" encoding="UTF-8"?>
<!--Generator: Apple Native CoreSVG 341-->
<!DOCTYPE svg
PUBLIC "-//W3C//DTD SVG 1.1//EN"
       "http://www.w3.org/Graphics/SVG/1.1/DTD/svg11.dtd">
<svg version="1.1" xmlns="http://www.w3.org/2000/svg" xmlns:xlink="http://www.w3.org/1999/xlink" viewBox="0 0 20.5381 20.1848">
 <g>
  <rect height="20.1848" opacity="0" width="20.5381" x="0" y="0"/>
  <path d="M20.1767 10.0973C20.1767 15.6656 15.6576 20.1848 10.0875 20.1848C4.52715 20.1848 0 15.6656 0 10.0973C0 4.53691 4.52715 0.00976562 10.0875 0.00976562C15.6576 0.00976562 20.1767 4.53691 20.1767 10.0973ZM6.63691 14.5609C6.38398 14.5609 6.17363 14.7633 6.17363 15.026C6.17363 15.2949 6.38398 15.5053 6.63691 15.5053L13.5301 15.5053C13.7928 15.5053 14.0031 15.2949 14.0031 15.026C14.0031 14.7633 13.7928 14.5609 13.5301 14.5609ZM6.63691 12.5268C6.38398 12.5268 6.17363 12.7486 6.17363 13.0096C6.17363 13.2705 6.38398 13.4746 6.63691 13.4746L13.5301 13.4746C13.7928 13.4746 14.0031 13.2705 14.0031 13.0096C14.0031 12.7406 13.7928 12.5268 13.5301 12.5268ZM6.22617 7.25586C5.34999 7.52558 4.70077 8.27226 4.70077 9.27207C4.70077 10.4322 5.5582 11.3662 6.97968 11.3662L12.8518 11.3662C14.4117 11.3662 15.5978 10.1676 15.5978 8.6832C15.5978 7.14375 14.3592 6.01367 12.7441 6.01367C12.1439 4.84609 11.057 4.09726 9.6746 4.09726C7.88105 4.09726 6.408 5.47656 6.22617 7.25586Z" fill="white" fill-opacity="0.85"/>
 </g>
</svg>
