<?xml version="1.0" encoding="UTF-8"?>
<!--Generator: Apple Native CoreSVG 341-->
<!DOCTYPE svg
PUBLIC "-//W3C//DTD SVG 1.1//EN"
       "http://www.w3.org/Graphics/SVG/1.1/DTD/svg11.dtd">
<svg version="1.1" xmlns="http://www.w3.org/2000/svg" xmlns:xlink="http://www.w3.org/1999/xlink" viewBox="0 0 20.5381 20.1848">
 <g>
  <rect height="20.1848" opacity="0" width="20.5381" x="0" y="0"/>
  <path d="M20.1767 10.0973C20.1767 15.6656 15.6576 20.1848 10.0875 20.1848C4.52715 20.1848 0 15.6656 0 10.0973C0 4.53691 4.52715 0.00976562 10.0875 0.00976562C15.6576 0.00976562 20.1767 4.53691 20.1767 10.0973ZM4.56093 10.5305C3.76894 10.7889 3.20683 11.501 3.20683 12.3791C3.20683 13.4871 4.04862 14.2898 5.28554 14.2898L10.5185 14.2898C11.9225 14.2898 12.9801 13.2269 12.9801 11.84C12.9801 10.4684 11.9057 9.43398 10.4424 9.4082C9.90234 8.39823 8.93163 7.72011 7.6748 7.72011C6.07128 7.72011 4.73319 8.95175 4.56093 10.5305ZM14.4568 11.5512C14.2705 11.7385 14.2643 12.0535 14.4586 12.2559L15.1613 12.9603C15.3619 13.1592 15.685 13.1432 15.8758 12.9506C16.0603 12.7562 16.0684 12.4287 15.874 12.2441L15.1748 11.5529C14.9805 11.3603 14.6557 11.3586 14.4568 11.5512ZM10.3162 8.02324C10.5373 8.21855 10.7246 8.43789 10.8853 8.69277C12.3816 8.88808 13.5254 9.96972 13.7027 11.4012C14.3582 10.9482 14.7596 10.2139 14.7596 9.3996C14.7596 8.03476 13.6709 6.96835 12.3185 6.96835C11.483 6.96835 10.7416 7.383 10.3162 8.02324ZM15.8498 8.90351C15.5693 8.90351 15.3457 9.11914 15.3457 9.3996C15.3457 9.67207 15.5693 9.89394 15.8498 9.89394L16.8297 9.89394C17.1119 9.89394 17.3303 9.67207 17.3303 9.3996C17.3303 9.11914 17.1119 8.90351 16.8297 8.90351ZM15.1613 5.85038L14.4603 6.56289C14.266 6.74746 14.2723 7.07226 14.4603 7.26308C14.6494 7.44238 14.9902 7.46191 15.1713 7.27109L15.874 6.55859C16.0603 6.358 16.0621 6.0412 15.8758 5.85038C15.6867 5.66581 15.3619 5.65781 15.1613 5.85038ZM8.76933 5.84863C8.58749 6.0332 8.59804 6.35624 8.77109 6.55683L9.47206 7.26933C9.66113 7.46191 9.9957 7.44238 10.1963 7.26308C10.3631 7.07226 10.3658 6.74746 10.1963 6.56464L9.47753 5.84863C9.26991 5.66581 8.95663 5.66757 8.76933 5.84863ZM11.8144 4.87597L11.8144 5.87812C11.8144 6.14433 12.0443 6.37245 12.3168 6.37245C12.599 6.37245 12.8174 6.14433 12.8174 5.87812L12.8174 4.87597C12.8174 4.59198 12.599 4.37636 12.3168 4.37636C12.0443 4.37636 11.8144 4.59198 11.8144 4.87597Z" fill="white" fill-opacity="0.85"/>
 </g>
</svg>
