<?xml version="1.0" encoding="UTF-8"?>
<!--Generator: Apple Native CoreSVG 341-->
<!DOCTYPE svg
PUBLIC "-//W3C//DTD SVG 1.1//EN"
       "http://www.w3.org/Graphics/SVG/1.1/DTD/svg11.dtd">
<svg version="1.1" xmlns="http://www.w3.org/2000/svg" xmlns:xlink="http://www.w3.org/1999/xlink" viewBox="0 0 23.8713 16.0176">
 <g>
  <rect height="16.0176" opacity="0" width="23.8713" x="0" y="0"/>
  <path d="M5.08281 15.7807L17.8908 15.7807C21.2609 15.7807 23.8713 13.2289 23.8713 9.95566C23.8713 6.65136 21.2269 4.14336 17.6275 4.14336C16.3094 1.54238 13.916 0 10.9506 0C7.10527 0 3.8705 2.91836 3.4707 6.86406C1.46484 7.46465 0.144727 9.1457 0.144727 11.2539C0.144727 13.781 2.00175 15.7807 5.08281 15.7807ZM5.08964 13.95C3.13866 13.95 1.97538 12.9064 1.97538 11.3045C1.97538 9.9246 2.85976 8.93886 4.45409 8.51718C5.00975 8.3787 5.21308 8.13007 5.2662 7.53202C5.55682 4.21445 7.94237 1.83065 10.9506 1.83065C13.2426 1.83065 15.0379 3.11288 16.1457 5.3414C16.3906 5.83573 16.6773 6.00351 17.2871 6.00351C20.3191 6.00351 22.0326 7.77011 22.0326 10.0018C22.0326 12.2279 20.2654 13.95 17.9596 13.95Z" fill="white" fill-opacity="0.85"/>
 </g>
</svg>
