<?xml version="1.0" encoding="UTF-8"?>
<!--Generator: Apple Native CoreSVG 341-->
<!DOCTYPE svg
PUBLIC "-//W3C//DTD SVG 1.1//EN"
       "http://www.w3.org/Graphics/SVG/1.1/DTD/svg11.dtd">
<svg version="1.1" xmlns="http://www.w3.org/2000/svg" xmlns:xlink="http://www.w3.org/1999/xlink" viewBox="0 0 20.5381 20.1848">
 <g>
  <rect height="20.1848" opacity="0" width="20.5381" x="0" y="0"/>
  <path d="M20.1767 10.0973C20.1767 15.6656 15.6576 20.1848 10.0875 20.1848C4.52715 20.1848 0 15.6656 0 10.0973C0 4.53691 4.52715 0.00976562 10.0875 0.00976562C15.6576 0.00976562 20.1767 4.53691 20.1767 10.0973ZM6.31191 13.0133L6.35175 13.5959L5.86855 13.2496C5.73105 13.1609 5.52519 13.1822 5.4498 13.3375C5.36288 13.4687 5.40624 13.6711 5.59257 13.7607L6.10409 14.0148L5.59081 14.2627C5.39823 14.3488 5.36288 14.5449 5.43378 14.6877C5.51093 14.8492 5.72304 14.8785 5.86855 14.7881L6.35175 14.4436L6.32167 15.0164C6.30663 15.1965 6.41484 15.3535 6.61093 15.3535C6.78124 15.3535 6.90546 15.1965 6.88866 15.0164L6.84882 14.4418L7.32128 14.7881C7.46054 14.8785 7.66112 14.8412 7.74452 14.6939C7.85722 14.5609 7.79784 14.3391 7.60351 14.2609L7.08398 14.0166L7.60526 13.7527C7.78983 13.6728 7.8412 13.4928 7.75253 13.3375C7.67714 13.1902 7.45702 13.1609 7.32128 13.2531L6.84882 13.5959L6.88866 13.0213C6.90546 12.8367 6.78124 12.6744 6.61093 12.6744C6.41484 12.6744 6.29862 12.8367 6.31191 13.0133ZM9.58027 13.0133L9.6246 13.5959L9.1414 13.2496C9.01191 13.1609 8.80605 13.1822 8.73242 13.3375C8.63574 13.4687 8.68085 13.6711 8.86542 13.7607L9.38671 14.0148L8.86366 14.2627C8.67284 14.3488 8.63574 14.5449 8.7164 14.6877C8.79179 14.8492 9.0039 14.8785 9.1414 14.7881L9.6246 14.4436L9.58827 15.0164C9.57324 15.1965 9.69745 15.3535 9.88378 15.3535C10.0621 15.3535 10.1783 15.1965 10.1615 15.0164L10.1234 14.4418L10.5941 14.7881C10.7334 14.8785 10.9437 14.8412 11.0254 14.6939C11.1301 14.5609 11.0707 14.3391 10.8764 14.2609L10.3648 14.0166L10.8781 13.7527C11.0627 13.6728 11.1141 13.4928 11.0334 13.3375C10.9598 13.1902 10.7379 13.1609 10.5941 13.2531L10.1234 13.5959L10.1615 13.0213C10.1783 12.8367 10.0621 12.6744 9.88378 12.6744C9.69745 12.6744 9.56523 12.8367 9.58027 13.0133ZM12.8611 13.0133L12.9072 13.5959L12.4143 13.2496C12.2848 13.1609 12.0807 13.1822 11.9973 13.3375C11.9184 13.4687 11.9537 13.6711 12.1383 13.7607L12.6613 14.0148L12.1365 14.2627C11.9537 14.3488 11.9184 14.5449 11.9893 14.6877C12.0664 14.8492 12.2768 14.8785 12.4143 14.7881L12.9072 14.4436L12.8691 15.0164C12.8523 15.1965 12.9703 15.3535 13.1566 15.3535C13.3367 15.3535 13.4627 15.1965 13.4441 15.0164L13.3963 14.4418L13.875 14.7881C14.008 14.8768 14.2166 14.8412 14.3 14.6939C14.3949 14.5609 14.3453 14.3391 14.1572 14.2609L13.6394 14.0166L14.159 13.7527C14.3373 13.6728 14.3869 13.4928 14.3098 13.3375C14.2246 13.1902 14.0107 13.1609 13.875 13.2531L13.3963 13.5959L13.4441 13.0213C13.4627 12.8367 13.3367 12.6744 13.1566 12.6744C12.9703 12.6744 12.8443 12.8367 12.8611 13.0133ZM6.16034 7.42285C5.28417 7.68457 4.64296 8.43925 4.64296 9.44082C4.64296 10.5912 5.49237 11.5172 6.91386 11.5172L12.7939 11.5172C14.3459 11.5172 15.54 10.3346 15.54 8.84218C15.54 7.30273 14.3014 6.18066 12.6863 6.18066C12.0781 5.00507 10.9912 4.26601 9.60878 4.26601C7.82324 4.26601 6.34218 5.6373 6.16034 7.42285Z" fill="white" fill-opacity="0.85"/>
 </g>
</svg>
