<?xml version="1.0" encoding="UTF-8"?>
<!--Generator: Apple Native CoreSVG 341-->
<!DOCTYPE svg
PUBLIC "-//W3C//DTD SVG 1.1//EN"
       "http://www.w3.org/Graphics/SVG/1.1/DTD/svg11.dtd">
<svg version="1.1" xmlns="http://www.w3.org/2000/svg" xmlns:xlink="http://www.w3.org/1999/xlink" viewBox="0 0 20.5381 20.1848">
 <g>
  <rect height="20.1848" opacity="0" width="20.5381" x="0" y="0"/>
  <path d="M10.0875 20.175C15.6576 20.175 20.1767 15.6559 20.1767 10.0875C20.1767 4.51914 15.6576 0 10.0875 0C4.51914 0 0 4.51914 0 10.0875C0 15.6559 4.51914 20.175 10.0875 20.175ZM10.0875 18.1879C5.60839 18.1879 1.9871 14.5666 1.9871 10.0875C1.9871 5.60839 5.60839 1.9871 10.0875 1.9871C14.5666 1.9871 18.1897 5.60839 18.1897 10.0875C18.1897 14.5666 14.5666 18.1879 10.0875 18.1879Z" fill="white" fill-opacity="0.85"/>
  <path d="M5.46542 14.0904L10.5035 14.0904C11.8613 14.0904 12.8809 13.0719 12.8809 11.7363C12.8809 10.4205 11.8445 9.42246 10.4389 9.39843C9.9121 8.42128 8.97773 7.76972 7.76874 7.76972C6.2246 7.76972 4.93612 8.95351 4.77362 10.4728C4.00643 10.7215 3.46737 11.4008 3.46737 12.2523C3.46737 13.3223 4.27636 14.0904 5.46542 14.0904ZM9.50488 7.33222C9.68417 7.52304 10.0055 7.50527 10.1945 7.32597C10.3596 7.14667 10.3623 6.83515 10.1945 6.65585L9.49706 5.96913C9.30273 5.78984 9.00273 5.79159 8.82519 5.96913C8.64687 6.14394 8.6539 6.45194 8.82694 6.64276ZM12.2424 6.47167C12.5131 6.47167 12.7217 6.25331 12.7217 5.99062L12.7217 5.02929C12.7217 4.75683 12.5131 4.54647 12.2424 4.54647C11.9832 4.54647 11.7551 4.75683 11.7551 5.02929L11.7551 5.99062C11.7551 6.25331 11.9832 6.47167 12.2424 6.47167ZM14.3053 7.32597C14.4828 7.50527 14.8121 7.52304 14.9914 7.33398L15.6711 6.64452C15.8441 6.4537 15.8459 6.14394 15.6729 5.97089C15.4873 5.78984 15.174 5.78183 14.985 5.97089L14.3053 6.6541C14.1225 6.83515 14.1287 7.14667 14.3053 7.32597ZM15.6451 9.86113L16.5922 9.86113C16.8611 9.86113 17.0697 9.64277 17.0697 9.38359C17.0697 9.11464 16.8611 8.91054 16.5922 8.91054L15.6451 8.91054C15.3779 8.91054 15.1561 9.11464 15.1561 9.38359C15.1561 9.64277 15.3779 9.86113 15.6451 9.86113ZM14.985 12.8141C15.174 13.0094 15.4838 12.9854 15.6729 12.8025C15.8441 12.6135 15.8521 12.3055 15.6711 12.1324L14.9932 11.4625C14.8023 11.2717 14.4891 11.2699 14.3018 11.4607C14.127 11.6383 14.1207 11.9418 14.3035 12.1309ZM14.593 9.38359C14.593 8.07285 13.5486 7.04452 12.2441 7.04452C11.4352 7.04452 10.7185 7.44589 10.3144 8.06132C10.524 8.25488 10.7078 8.46445 10.8605 8.70781C12.301 8.8996 13.4066 9.93867 13.5725 11.3205C14.2049 10.8728 14.593 10.1695 14.593 9.38359Z" fill="white" fill-opacity="0.85"/>
 </g>
</svg>
