<?xml version="1.0" encoding="UTF-8"?>
<!--Generator: Apple Native CoreSVG 341-->
<!DOCTYPE svg
PUBLIC "-//W3C//DTD SVG 1.1//EN"
       "http://www.w3.org/Graphics/SVG/1.1/DTD/svg11.dtd">
<svg version="1.1" xmlns="http://www.w3.org/2000/svg" xmlns:xlink="http://www.w3.org/1999/xlink" viewBox="0 0 20.5381 20.1848">
 <g>
  <rect height="20.1848" opacity="0" width="20.5381" x="0" y="0"/>
  <path d="M10.0875 20.175C15.6576 20.175 20.1767 15.6559 20.1767 10.0875C20.1767 4.51914 15.6576 0 10.0875 0C4.51914 0 0 4.51914 0 10.0875C0 15.6559 4.51914 20.175 10.0875 20.175ZM10.0875 18.1879C5.60839 18.1879 1.9871 14.5666 1.9871 10.0875C1.9871 5.60839 5.60839 1.9871 10.0875 1.9871C14.5666 1.9871 18.1897 5.60839 18.1897 10.0875C18.1897 14.5666 14.5666 18.1879 10.0875 18.1879Z" fill="white" fill-opacity="0.85"/>
  <path d="M7.03085 10.9963L12.6982 10.9963C14.1908 10.9963 15.3371 9.84375 15.3371 8.41074C15.3371 6.93066 14.1463 5.84843 12.5906 5.84843C12.0072 4.7207 10.9549 4.00292 9.62831 4.00292C7.90566 4.00292 6.48398 5.33613 6.3039 7.04277C5.46405 7.30097 4.84589 8.02285 4.84589 8.99433C4.84589 10.1066 5.65897 10.9963 7.03085 10.9963ZM8.36953 13.7863C8.29492 13.9311 8.35976 14.0447 8.52226 14.0447L9.55722 14.0447L8.77324 15.9607C8.73418 16.0451 8.75547 16.1215 8.8123 16.149C8.8709 16.1703 8.93925 16.1525 9.00586 16.0842L11.7646 13.3564C11.8934 13.2232 11.8445 13.0457 11.6625 13.0457L10.4342 13.0457L10.991 11.9791C11.0496 11.8521 11.0105 11.7385 10.8658 11.7385L9.47207 11.7385C9.30781 11.7385 9.22343 11.7971 9.17461 11.924ZM6.84199 13.8852L7.50371 12.743C7.63242 12.5246 7.56406 12.2459 7.33593 12.1172C7.11582 11.9965 6.84511 12.0666 6.7164 12.285L6.05468 13.4352C5.93398 13.6535 6.00234 13.9322 6.22422 14.0529C6.44257 14.1816 6.71328 14.1035 6.84199 13.8852ZM13.4639 13.8852L14.1256 12.743C14.2543 12.5246 14.1779 12.2459 13.9578 12.1172C13.7377 11.9965 13.467 12.0666 13.3383 12.285L12.6766 13.4352C12.5478 13.6535 12.6242 13.9322 12.8461 14.0529C13.0644 14.1816 13.3351 14.1035 13.4639 13.8852Z" fill="white" fill-opacity="0.85"/>
 </g>
</svg>
