<?xml version="1.0" encoding="UTF-8"?>
<!--Generator: Apple Native CoreSVG 341-->
<!DOCTYPE svg
PUBLIC "-//W3C//DTD SVG 1.1//EN"
       "http://www.w3.org/Graphics/SVG/1.1/DTD/svg11.dtd">
<svg version="1.1" xmlns="http://www.w3.org/2000/svg" xmlns:xlink="http://www.w3.org/1999/xlink" viewBox="0 0 20.5381 20.1848">
 <g>
  <rect height="20.1848" opacity="0" width="20.5381" x="0" y="0"/>
  <path d="M20.1767 10.0973C20.1767 15.6656 15.6576 20.1848 10.0875 20.1848C4.52715 20.1848 0 15.6656 0 10.0973C0 4.53691 4.52715 0.00976562 10.0875 0.00976562C15.6576 0.00976562 20.1767 4.53691 20.1767 10.0973ZM10.6918 14.443L10.1625 15.3416C10.0596 15.5307 10.1279 15.7623 10.3223 15.8652C10.4953 15.9682 10.7252 15.9078 10.8264 15.725L11.3592 14.8219C11.4541 14.6426 11.3982 14.4012 11.2092 14.2982C11.0281 14.2051 10.8027 14.2637 10.6918 14.443ZM7.43808 14.435L6.90702 15.3416C6.80585 15.5324 6.87245 15.7623 7.07304 15.8652C7.23808 15.9682 7.47772 15.8998 7.57714 15.725L8.10018 14.8219C8.20311 14.6391 8.15077 14.4012 7.9537 14.2982C7.77089 14.2051 7.5455 14.2619 7.43808 14.435ZM6.17948 13.3312L5.62265 14.2842C5.52499 14.4555 5.57558 14.6969 5.7664 14.7918C5.93944 14.9027 6.17909 14.8344 6.27226 14.6693L6.82733 13.7164C6.93827 13.5256 6.87792 13.31 6.67733 13.191C6.51054 13.0916 6.27265 13.1502 6.17948 13.3312ZM9.43827 13.3215L8.88944 14.2762C8.79804 14.4475 8.83886 14.6969 9.0412 14.7918C9.2205 14.901 9.44413 14.8326 9.54354 14.6613L10.1004 13.7164C10.2131 13.5256 10.1412 13.31 9.95214 13.191C9.76933 13.0916 9.53769 13.1502 9.43827 13.3215ZM5.09765 8.9498C4.33769 9.20995 3.81738 9.87402 3.81738 10.7264C3.81738 11.7846 4.61288 12.5553 5.79023 12.5553L10.7857 12.5553C12.1256 12.5553 13.1414 11.5324 13.1414 10.2113C13.1414 8.90546 12.1088 7.91113 10.7256 7.8871C10.2016 6.92519 9.2664 6.27109 8.07363 6.27109C6.54218 6.27109 5.26191 7.45468 5.09765 8.9498ZM10.8109 6.78847C10.9307 6.91269 11.0353 7.0582 11.14 7.19394C12.6131 7.38925 13.6945 8.46718 13.8435 9.8789C15.4102 9.6875 16.3746 8.43359 16.3746 7.60429C16.3746 7.41874 16.2982 7.29003 16.1518 7.29003C15.9201 7.29003 15.5543 7.57597 14.9203 7.57597C13.7738 7.57773 13.0598 6.90019 13.0598 5.85488C13.0598 5.22988 13.3955 4.78945 13.3955 4.52851C13.3955 4.37402 13.2783 4.28613 13.0928 4.28613C12.1807 4.32792 10.9822 5.40078 10.8109 6.78847Z" fill="white" fill-opacity="0.85"/>
 </g>
</svg>
