<?xml version="1.0" encoding="UTF-8"?>
<!--Generator: Apple Native CoreSVG 341-->
<!DOCTYPE svg
PUBLIC "-//W3C//DTD SVG 1.1//EN"
       "http://www.w3.org/Graphics/SVG/1.1/DTD/svg11.dtd">
<svg version="1.1" xmlns="http://www.w3.org/2000/svg" xmlns:xlink="http://www.w3.org/1999/xlink" viewBox="0 0 20.5381 20.1848">
 <g>
  <rect height="20.1848" opacity="0" width="20.5381" x="0" y="0"/>
  <path d="M20.1767 10.0973C20.1767 15.6656 15.6576 20.1848 10.0875 20.1848C4.52715 20.1848 0 15.6656 0 10.0973C0 4.53691 4.52715 0.00976562 10.0875 0.00976562C15.6576 0.00976562 20.1767 4.53691 20.1767 10.0973ZM9.44375 11.8254C9.26797 11.8254 9.18984 11.876 9.13301 12.0127L8.2916 13.9494C8.21699 14.0896 8.28183 14.2131 8.45586 14.2131L9.53066 14.2131L8.72011 16.2098C8.67929 16.2959 8.70234 16.366 8.75918 16.4096C8.81777 16.4228 8.88789 16.4113 8.95449 16.3269L11.8408 13.493C11.9713 13.35 11.9225 13.1707 11.7289 13.1707L10.451 13.1707L11.0309 12.0678C11.0894 11.9328 11.0486 11.8254 10.9021 11.8254ZM6.16034 6.92851C5.28417 7.20625 4.64296 7.94492 4.64296 8.96074C4.64296 10.1146 5.49237 11.0389 6.91386 11.0389L12.7939 11.0389C14.3459 11.0389 15.54 9.84023 15.54 8.36386C15.54 6.82441 14.3014 5.68632 12.6863 5.68632C12.0781 4.51875 10.9912 3.77792 9.60878 3.77792C7.82324 3.77792 6.34218 5.16074 6.16034 6.92851Z" fill="white" fill-opacity="0.85"/>
 </g>
</svg>
