<?xml version="1.0" encoding="UTF-8"?>
<!--Generator: Apple Native CoreSVG 341-->
<!DOCTYPE svg
PUBLIC "-//W3C//DTD SVG 1.1//EN"
       "http://www.w3.org/Graphics/SVG/1.1/DTD/svg11.dtd">
<svg version="1.1" xmlns="http://www.w3.org/2000/svg" xmlns:xlink="http://www.w3.org/1999/xlink" viewBox="0 0 27.1882 25.1513">
 <g>
  <rect height="25.1513" opacity="0" width="27.1882" x="0" y="0"/>
  <path d="M17.0717 21.752C17.3893 21.9401 17.4887 22.3135 17.3024 22.6276L16.0354 24.8118C15.8651 25.1241 15.4792 25.2375 15.1696 25.0575C14.844 24.8694 14.7561 24.4959 14.9344 24.1997L16.1997 21.9995C16.3993 21.6801 16.7542 21.5719 17.0717 21.752Z" fill="white" fill-opacity="0.85"/>
  <path d="M14.0081 19.0096C14.3257 19.1897 14.4233 19.5649 14.237 19.8852L12.9798 22.0614C12.8014 22.3737 12.4217 22.4872 12.1059 22.3151C11.7803 22.127 11.7005 21.7536 11.877 21.4493L13.144 19.2571C13.3339 18.9297 13.6905 18.8215 14.0081 19.0096Z" fill="white" fill-opacity="0.85"/>
  <path d="M9.30632 21.76C9.61589 21.9481 9.71354 22.3233 9.52722 22.6356L8.26999 24.8198C8.09167 25.1321 7.71198 25.2456 7.39616 25.0655C7.07859 24.8774 6.9907 24.504 7.16726 24.2077L8.43425 22.0075C8.62409 21.6881 8.98073 21.5799 9.30632 21.76Z" fill="white" fill-opacity="0.85"/>
  <path d="M6.24265 19.0176C6.56022 19.1977 6.64987 19.5729 6.46354 19.8932L5.20456 22.0694C5.028 22.3834 4.64831 22.4952 4.33073 22.3231C4.01316 22.135 3.92527 21.7616 4.10359 21.4573L5.37058 19.2651C5.56042 18.9377 5.91706 18.8295 6.24265 19.0176Z" fill="white" fill-opacity="0.85"/>
  <path d="M20.635 1.17272C20.635 1.72135 20.2879 2.35748 20.2879 3.49186C20.2879 5.76647 21.5483 7.07995 23.9665 7.07995C25.0087 7.07995 25.5171 6.80846 26.1469 6.80846C26.9754 6.80846 27.4112 7.57057 27.0731 8.42565C26.3128 10.4608 24.2263 12.2786 21.0814 12.333C21.0739 11.751 20.9667 11.2012 20.7721 10.6974C20.829 10.7048 20.8885 10.7059 20.9485 10.7059C23.0858 10.7059 24.7633 9.65416 25.4389 8.40572L25.3671 8.33561C24.9284 8.47857 24.3102 8.61256 23.5993 8.61256C20.7522 8.61256 18.7411 6.67389 18.7411 3.86041C18.7411 3.09342 18.8893 2.43561 19.0518 1.9651L18.9409 1.88697C17.6774 2.61119 16.6131 4.07525 16.6131 5.9608C16.6131 6.52347 16.6862 7.05236 16.8271 7.53596C16.52 7.47701 16.2002 7.44551 15.8715 7.43932C15.6294 6.98831 15.3482 6.57537 15.03 6.20688C15.0228 6.15054 15.0221 6.09201 15.0221 6.03326C15.0221 3.22545 16.8256 0.916472 18.9891 0.199481C19.8854-0.105792 20.635 0.309442 20.635 1.17272Z" fill="white" fill-opacity="0.85"/>
  <path d="M5.33015 17.4559L15.9405 17.4559C18.8331 17.4559 21.0866 15.2672 21.0866 12.4377C21.0866 9.61451 18.8381 7.49518 15.8715 7.43932C14.7149 5.28483 12.6651 3.99908 10.195 3.99908C6.91862 3.99908 4.18718 6.48678 3.81218 9.73209C2.15593 10.2557 1.04363 11.6989 1.04363 13.5131C1.04363 15.8116 2.78288 17.4559 5.33015 17.4559ZM5.31569 15.6544C3.69772 15.6544 2.8487 14.7395 2.8487 13.5504C2.8487 12.5391 3.45592 11.6651 4.87038 11.2913C5.35846 11.1608 5.52897 10.9372 5.57858 10.4313C5.84538 7.66783 7.80983 5.80064 10.195 5.80064C12.035 5.80064 13.4885 6.82622 14.402 8.63482C14.6257 9.06353 14.8653 9.20728 15.3809 9.20728C17.9137 9.20728 19.2753 10.6885 19.2753 12.4768C19.2753 14.2503 17.8542 15.6544 15.9452 15.6544Z" fill="white" fill-opacity="0.85"/>
 </g>
</svg>
