<?xml version="1.0" encoding="UTF-8"?>
<!--Generator: Apple Native CoreSVG 341-->
<!DOCTYPE svg
PUBLIC "-//W3C//DTD SVG 1.1//EN"
       "http://www.w3.org/Graphics/SVG/1.1/DTD/svg11.dtd">
<svg version="1.1" xmlns="http://www.w3.org/2000/svg" xmlns:xlink="http://www.w3.org/1999/xlink" viewBox="0 0 20.5381 20.1848">
 <g>
  <rect height="20.1848" opacity="0" width="20.5381" x="0" y="0"/>
  <path d="M10.0875 20.175C15.6576 20.175 20.1767 15.6559 20.1767 10.0875C20.1767 4.51914 15.6576 0 10.0875 0C4.51914 0 0 4.51914 0 10.0875C0 15.6559 4.51914 20.175 10.0875 20.175ZM10.0875 18.1879C5.60839 18.1879 1.9871 14.5666 1.9871 10.0875C1.9871 5.60839 5.60839 1.9871 10.0875 1.9871C14.5666 1.9871 18.1897 5.60839 18.1897 10.0875C18.1897 14.5666 14.5666 18.1879 10.0875 18.1879Z" fill="white" fill-opacity="0.85"/>
  <path d="M9.49628 8.63515L9.7875 6.40605L9.51738 4.82206C9.4623 4.50233 9.30605 4.35585 9.09824 4.35585C8.90644 4.35585 8.78124 4.4535 8.67909 4.70663L8.22363 5.89588C8.12245 6.20545 8.15605 6.42987 8.32011 6.67655ZM9.91328 9.88945L11.8521 6.67655C12.0162 6.42987 12.0498 6.20545 11.9389 5.89588L11.5012 4.70663C11.399 4.46151 11.2658 4.35585 11.074 4.35585C10.8582 4.35585 10.7002 4.52635 10.6531 4.82206ZM7.6332 15.3611L9.22128 15.3611L9.22128 9.40819L7.63691 6.88944C7.44882 6.57069 7.36992 6.28944 7.5039 5.93026L7.88203 4.93495L6.80038 5.33202C6.37538 5.50429 6.14277 5.758 6.03632 6.14569L4.40663 12.0281C4.26816 12.5012 4.43144 12.8668 4.90526 13.0088L5.94237 13.2947C6.10058 13.3463 6.22577 13.3355 6.32968 13.2795L6.41503 13.0072L6.37597 14.0516C6.3414 14.818 6.86503 15.3611 7.6332 15.3611ZM9.92128 15.3611L12.5471 15.3611C13.3232 15.3611 13.8326 14.818 13.8061 14.0516L13.767 13.0072L13.8523 13.2795C13.9562 13.3355 14.0957 13.3383 14.2379 13.2947L15.2687 13.0008C15.723 12.8668 15.9041 12.5012 15.7736 12.0281L14.1262 6.13768C14.0215 5.758 13.7853 5.49628 13.3701 5.33202L12.2902 4.92694L12.6426 5.89823C12.7863 6.2494 12.7394 6.55467 12.5273 6.88944L9.92304 11.0424ZM11.1691 12.3689C10.8762 12.3689 10.6613 12.1461 10.6693 11.8646C10.6693 11.5699 10.8842 11.3488 11.1691 11.3488C11.4506 11.3488 11.6734 11.5797 11.6734 11.8646C11.6734 12.1461 11.4426 12.3689 11.1691 12.3689ZM11.1691 14.3639C10.8762 14.3639 10.6613 14.1295 10.6693 13.8436C10.6693 13.5666 10.8842 13.3455 11.1691 13.3455C11.4506 13.3455 11.6734 13.5746 11.6734 13.8436C11.6734 14.1295 11.4426 14.3639 11.1691 14.3639Z" fill="white" fill-opacity="0.85"/>
 </g>
</svg>
