<?xml version="1.0" encoding="UTF-8"?>
<!--Generator: Apple Native CoreSVG 341-->
<!DOCTYPE svg
PUBLIC "-//W3C//DTD SVG 1.1//EN"
       "http://www.w3.org/Graphics/SVG/1.1/DTD/svg11.dtd">
<svg version="1.1" xmlns="http://www.w3.org/2000/svg" xmlns:xlink="http://www.w3.org/1999/xlink" viewBox="0 0 26.1217 24.834">
 <g>
  <rect height="24.834" opacity="0" width="26.1217" x="0" y="0"/>
  <path d="M12.4776 24.6793L18.4212 24.6793C20.1442 24.6793 21.3327 23.4453 21.2485 21.7267L20.9403 15.5395L19.502 16.1847L20.2017 19.2043C20.4226 20.1664 21.236 20.2916 22.1954 20.0209L24.5145 19.3578C25.5636 19.0545 25.9645 18.2269 25.655 17.1412L22.0054 4.01015C21.7589 3.13418 21.2167 2.51699 20.2518 2.16563L17.7841 1.25449L18.6384 3.54803C18.9434 4.37225 18.8046 5.01951 18.354 5.71267L12.4714 14.9986ZM15.3196 17.9896C14.6683 17.9896 14.1687 17.4838 14.1784 16.8387C14.1784 16.1873 14.678 15.6814 15.3196 15.6814C15.971 15.6814 16.4706 16.1971 16.4706 16.8387C16.4706 17.4838 15.9612 17.9896 15.3196 17.9896ZM15.3196 22.4316C14.6683 22.4316 14.1687 21.9142 14.1784 21.2744C14.1784 20.6213 14.678 20.1234 15.3196 20.1234C15.971 20.1234 16.4706 20.6373 16.4706 21.2744C16.4706 21.9142 15.9612 22.4316 15.3196 22.4316ZM12.5017 12.3693L16.8235 5.27752C17.1931 4.70994 17.2761 4.17713 17.0251 3.49198L16.0259 0.784765C15.8181 0.226367 15.5163 0 15.0813 0C14.5896 0 14.2319 0.377344 14.1388 1.02519ZM7.40636 5.71267C6.95577 5.01951 6.81066 4.37225 7.12199 3.54803L7.96827 1.25449L5.50226 2.17363C4.52414 2.53301 3.99523 3.13418 3.755 4.01816L0.097381 17.1492C-0.194415 18.2269 0.164764 19.0642 1.23956 19.3658L3.59073 20.0209C4.57413 20.2916 5.36885 20.1664 5.58448 19.2043L6.35791 15.8367L4.87843 15.0697L4.53761 21.7267C4.45519 23.4453 5.64815 24.6793 7.36495 24.6793L10.8985 24.6793L10.8985 11.2467ZM11.544 9.55253L12.1839 4.45391L11.6136 1.02519C11.5142 0.319531 11.1485 0 10.6808 0C10.2458 0 9.95206 0.18457 9.72647 0.784765L8.73702 3.49198C8.47803 4.17713 8.56729 4.71795 8.93858 5.27752Z" fill="white" fill-opacity="0.85"/>
 </g>
</svg>
