<?xml version="1.0" encoding="UTF-8"?>
<!--Generator: Apple Native CoreSVG 341-->
<!DOCTYPE svg
PUBLIC "-//W3C//DTD SVG 1.1//EN"
       "http://www.w3.org/Graphics/SVG/1.1/DTD/svg11.dtd">
<svg version="1.1" xmlns="http://www.w3.org/2000/svg" xmlns:xlink="http://www.w3.org/1999/xlink" viewBox="0 0 20.5381 20.1848">
 <g>
  <rect height="20.1848" opacity="0" width="20.5381" x="0" y="0"/>
  <path d="M20.1767 10.0875C20.1767 15.6478 15.6576 20.175 10.0875 20.175C4.52715 20.175 0 15.6478 0 10.0875C0 4.51914 4.52715 0 10.0875 0C15.6576 0 20.1767 4.51914 20.1767 10.0875ZM12.0971 4.5998L11.7871 5.8457C11.4381 5.69374 11.0695 5.60488 10.6947 5.55781L10.8705 4.81386C10.8963 4.733 10.9043 4.68144 10.9043 4.65214C10.9043 4.47363 10.7764 4.34042 10.5801 4.34042C10.3935 4.34042 10.2896 4.4248 10.2443 4.5998L10.0072 5.52851C7.54453 5.6246 6.16601 7.46425 6.16601 10.0164C6.16601 11.7096 6.77363 13.1096 7.93847 13.8707L7.57245 15.3516C7.55468 15.4084 7.54667 15.468 7.54667 15.5133C7.54667 15.7016 7.69062 15.8348 7.8789 15.8348C8.04941 15.8348 8.15331 15.7584 8.20663 15.5816L8.54687 14.1969C8.87812 14.3391 9.24492 14.4297 9.64726 14.4732L9.42167 15.3516C9.41191 15.4084 9.4039 15.468 9.4039 15.5133C9.4039 15.7016 9.54335 15.8348 9.73164 15.8348C9.90039 15.8348 10.0105 15.7584 10.0559 15.5816L10.325 14.5105L10.3436 14.5105C11.8217 14.5105 13.1519 13.7344 13.6205 12.4518C13.6861 12.2797 13.7154 12.1217 13.7154 11.9398C13.7154 11.508 13.4166 11.2945 13.0613 11.2945C12.7004 11.2945 12.524 11.5039 12.3973 11.8223C12.1131 12.6299 11.4475 13.1291 10.6353 13.2578L12.0311 7.63729C12.1777 7.8035 12.2791 7.99198 12.3439 8.21601C12.46 8.53788 12.6203 8.72597 13.0105 8.72597C13.3945 8.72597 13.6488 8.49628 13.6488 8.09745C13.6488 7.9246 13.593 7.70644 13.5168 7.53711C13.2658 6.95136 12.8648 6.50039 12.3857 6.17714L12.7215 4.81386C12.749 4.733 12.757 4.68144 12.757 4.65214C12.757 4.47363 12.6256 4.34042 12.4293 4.34042C12.2463 4.34042 12.1406 4.4248 12.0971 4.5998ZM11.4732 7.10897L9.93456 13.2844C9.51894 13.2523 9.1539 13.1129 8.85898 12.9131L10.3977 6.74491C10.7973 6.78221 11.1686 6.91542 11.4732 7.10897ZM8.30741 12.3705C7.8578 11.7496 7.63827 10.9004 7.63827 10.0129C7.63827 8.44315 8.30917 7.04686 9.69863 6.78397Z" fill="white" fill-opacity="0.85"/>
 </g>
</svg>
