<?xml version="1.0" encoding="UTF-8"?>
<!--Generator: Apple Native CoreSVG 341-->
<!DOCTYPE svg
PUBLIC "-//W3C//DTD SVG 1.1//EN"
       "http://www.w3.org/Graphics/SVG/1.1/DTD/svg11.dtd">
<svg version="1.1" xmlns="http://www.w3.org/2000/svg" xmlns:xlink="http://www.w3.org/1999/xlink" viewBox="0 0 14.8816 22.4477">
 <g>
  <rect height="22.4477" opacity="0" width="14.8816" x="0" y="0"/>
  <path d="M7.74785 19.7965C10.7039 19.7965 13.3629 18.4561 14.3447 15.7891C14.4582 15.4938 14.5203 15.1031 14.5203 14.8186C14.5203 14.1248 14.0748 13.7244 13.3793 13.7244C12.7553 13.7244 12.4389 14.0686 12.2219 14.627C11.6236 16.575 9.82422 17.6598 7.73652 17.6598C4.19471 17.6598 2.57283 14.6328 2.57283 11.041C2.57283 7.43339 4.25858 4.47733 7.72675 4.47733C9.73965 4.47733 11.5045 5.61542 12.1072 7.53437C12.3357 8.12655 12.6502 8.44491 13.2937 8.44491C13.9582 8.44491 14.3969 8.02226 14.3969 7.35684C14.3969 7.04063 14.3137 6.64414 14.1728 6.31348C13.143 3.7336 10.5437 2.33887 7.71796 2.33887C2.79297 2.33887 0 5.97891 0 11.0428C0 16.1572 2.76015 19.7965 7.74785 19.7965ZM3.13592 22.4281C3.48768 22.4281 3.7035 22.2691 3.77811 21.9254L9.05351 0.945119C9.08906 0.822462 9.10683 0.726564 9.10683 0.626173C9.10683 0.246094 8.87421 0 8.46464 0C8.15292 0 7.93886 0.184766 7.85448 0.504493L2.57909 21.491C2.5453 21.6137 2.52577 21.7354 2.52577 21.8518C2.52577 22.158 2.76815 22.4281 3.13592 22.4281ZM6.80683 22.4281C7.15859 22.4281 7.37265 22.2691 7.45703 21.9254L12.7324 0.945119C12.7582 0.822462 12.784 0.726564 12.784 0.626173C12.784 0.246094 12.5514 0 12.1418 0C11.8318 0 11.608 0.184766 11.5236 0.504493L6.24999 21.491C6.22245 21.6137 6.20468 21.7354 6.20468 21.8518C6.20468 22.158 6.4373 22.4281 6.80683 22.4281Z" fill="white" fill-opacity="0.85"/>
 </g>
</svg>
