<?xml version="1.0" encoding="UTF-8"?>
<!--Generator: Apple Native CoreSVG 341-->
<!DOCTYPE svg
PUBLIC "-//W3C//DTD SVG 1.1//EN"
       "http://www.w3.org/Graphics/SVG/1.1/DTD/svg11.dtd">
<svg version="1.1" xmlns="http://www.w3.org/2000/svg" xmlns:xlink="http://www.w3.org/1999/xlink" viewBox="0 0 22.301 21.9477">
 <g>
  <rect height="21.9477" opacity="0" width="22.301" x="0" y="0"/>
  <path d="M10.9689 21.9379C16.9984 21.9379 21.9396 16.9984 21.9396 10.9689C21.9396 4.93945 16.9984 0 10.9689 0C4.93945 0 0 4.93945 0 10.9689C0 16.9984 4.93945 21.9379 10.9689 21.9379ZM10.9689 18.2242C6.96133 18.2242 3.71367 14.9766 3.71367 10.9689C3.71367 6.95332 6.96133 3.71367 10.9689 3.71367C14.9846 3.71367 18.226 6.95332 18.226 10.9689C18.226 14.9766 14.9846 18.2242 10.9689 18.2242Z" fill="white" fill-opacity="0.85"/>
  <path d="M11.0658 15.2219C12.5424 15.2219 13.8934 14.5203 14.3531 13.2393C14.4187 13.0787 14.448 12.9207 14.448 12.7504C14.448 12.3354 14.1625 12.1369 13.8258 12.1369C13.4879 12.1369 13.315 12.333 13.1981 12.6381C12.8668 13.5594 12.052 14.0639 11.057 14.0639C9.34609 14.0639 8.59511 12.5281 8.59511 10.8943C8.59511 9.21972 9.38867 7.73632 11.0473 7.73632C12.0377 7.73632 12.8678 8.33241 13.1367 9.16308C13.251 9.47167 13.4078 9.65624 13.7715 9.65624C14.1422 9.65624 14.3814 9.43183 14.3814 9.05781C14.3814 8.88672 14.3353 8.68359 14.2609 8.51777C13.7072 7.21797 12.4102 6.57832 11.042 6.57832C8.59902 6.57832 7.19629 8.38711 7.19629 10.8978C7.19629 13.3764 8.54551 15.2219 11.0658 15.2219ZM8.83925 16.5C8.99824 16.5 9.10839 16.4236 9.1457 16.2584L11.7156 5.89824C11.7414 5.81738 11.7494 5.76582 11.7494 5.73828C11.7494 5.56777 11.6215 5.43632 11.443 5.43632C11.2582 5.43632 11.1561 5.5207 11.1125 5.67792L8.54257 16.0301C8.53105 16.0869 8.52304 16.1465 8.52304 16.1918C8.52304 16.3686 8.65273 16.5 8.83925 16.5ZM10.6229 16.5C10.7818 16.5 10.892 16.4236 10.9293 16.2584L13.4992 5.89824C13.525 5.81738 13.533 5.76582 13.533 5.73828C13.533 5.56777 13.4051 5.43632 13.2266 5.43632C13.0436 5.43632 12.9414 5.5207 12.8961 5.67792L10.3262 16.0301C10.3164 16.0869 10.3084 16.1465 10.3084 16.1918C10.3084 16.3686 10.4363 16.5 10.6229 16.5Z" fill="white" fill-opacity="0.85"/>
 </g>
</svg>
