<?xml version="1.0" encoding="UTF-8"?>
<!--Generator: Apple Native CoreSVG 341-->
<!DOCTYPE svg
PUBLIC "-//W3C//DTD SVG 1.1//EN"
       "http://www.w3.org/Graphics/SVG/1.1/DTD/svg11.dtd">
<svg version="1.1" xmlns="http://www.w3.org/2000/svg" xmlns:xlink="http://www.w3.org/1999/xlink" viewBox="0 0 22.7515 21.4965">
 <g>
  <rect height="21.4965" opacity="0" width="22.7515" x="0" y="0"/>
  <path d="M1.44999 18.9656L20.9947 18.9656L20.9947 18.2322C20.9947 17.8064 20.7437 17.551 20.3117 17.551L19.7447 17.551L19.7447 6.98046L20.5865 6.98046C21.1851 6.98046 21.5363 6.53886 21.5363 6.09277C21.5363 5.7664 21.351 5.47734 20.9545 5.24941L12.481 0.359374C12.0764 0.125976 11.6398 0 11.2183 0C10.7969 0 10.3523 0.125976 9.96366 0.359374L1.49023 5.24941C1.08574 5.47734 0.908396 5.7664 0.908396 6.09277C0.908396 6.53886 1.25957 6.98046 1.85995 6.98046L2.69999 6.98046L2.69999 17.551L2.14101 17.551C1.70898 17.551 1.44999 17.8064 1.44999 18.2322ZM4.32401 17.551L4.32401 5.67245L10.8779 1.99999C10.9846 1.93866 11.1072 1.90487 11.2183 1.90487C11.333 1.90487 11.4521 1.93866 11.5668 1.99999L18.1207 5.67245L18.1207 17.551ZM0.881441 21.4867L21.499 21.4867C21.9797 21.4867 22.3902 21.0849 22.3902 20.5972C22.3902 20.1148 21.9797 19.7158 21.499 19.7158L0.881441 19.7158C0.399022 19.7158 0 20.1148 0 20.5972C0 21.0832 0.399022 21.4867 0.881441 21.4867Z" fill="white" fill-opacity="0.85"/>
  <path d="M11.3232 14.8287C12.7998 14.8287 14.1525 14.1351 14.6123 12.8541C14.6779 12.6855 14.7055 12.5355 14.7055 12.367C14.7055 11.9502 14.4137 11.7518 14.0832 11.7518C13.7373 11.7518 13.5742 11.9478 13.4492 12.2449C13.126 13.168 12.3014 13.6707 11.3144 13.6707C9.59549 13.6707 8.85428 12.1447 8.85428 10.5029C8.85428 8.8283 9.64608 7.3449 11.3047 7.3449C12.2951 7.3449 13.1172 7.94725 13.3959 8.76991C13.5084 9.0785 13.6652 9.26483 14.0307 9.26483C14.3933 9.26483 14.6406 9.03865 14.6406 8.66463C14.6406 8.4953 14.5928 8.29842 14.5201 8.1326C13.9566 6.82655 12.6693 6.19315 11.3012 6.19315C8.85643 6.19315 7.45546 8.00194 7.45546 10.5047C7.45546 12.9912 8.80292 14.8287 11.3232 14.8287ZM9.09666 16.1148C9.25565 16.1148 9.3578 16.0402 9.40311 15.8652L11.973 5.50682C11.9988 5.4242 12.0068 5.38065 12.0068 5.3451C12.0068 5.17459 11.8789 5.04491 11.6924 5.04491C11.5174 5.04491 11.4152 5.12752 11.3699 5.29276L8.79998 15.6449C8.78221 15.7017 8.7742 15.7533 8.7742 15.8066C8.7742 15.9851 8.91014 16.1148 9.09666 16.1148ZM10.8803 16.1148C11.041 16.1148 11.1512 16.0402 11.1867 15.8652L13.7566 5.50682C13.7842 5.4242 13.7922 5.38065 13.7922 5.3451C13.7922 5.17459 13.6625 5.04491 13.4777 5.04491C13.301 5.04491 13.1988 5.12752 13.1535 5.29276L10.5836 15.6449C10.5738 15.7017 10.5658 15.7533 10.5658 15.8066C10.5658 15.9851 10.6955 16.1148 10.8803 16.1148Z" fill="white" fill-opacity="0.85"/>
 </g>
</svg>
