<?xml version="1.0" encoding="UTF-8"?>
<!--Generator: Apple Native CoreSVG 341-->
<!DOCTYPE svg
PUBLIC "-//W3C//DTD SVG 1.1//EN"
       "http://www.w3.org/Graphics/SVG/1.1/DTD/svg11.dtd">
<svg version="1.1" xmlns="http://www.w3.org/2000/svg" xmlns:xlink="http://www.w3.org/1999/xlink" viewBox="0 0 24.226 20.1848">
 <g>
  <rect height="20.1848" opacity="0" width="24.226" x="0" y="0"/>
  <path d="M0.721518 8.12363C-0.00973073 8.12363-0.190785 8.66894 0.204136 9.22109L2.47249 12.3723C2.78948 12.8092 3.27757 12.8012 3.58831 12.3723L5.8469 9.21308C6.24007 8.66894 6.051 8.12363 5.33929 8.12363ZM22.0239 10.0875C22.0239 4.51914 17.503 0 11.9364 0C6.368 0 1.85687 4.50937 1.84886 10.099C1.85687 10.6476 2.29378 11.0846 2.83441 11.0846C3.38303 11.0846 3.83596 10.6396 3.83596 10.091C3.83596 5.60839 7.45725 1.9871 11.9364 1.9871C16.4155 1.9871 20.0368 5.60839 20.0368 10.0875C20.0368 14.5666 16.4155 18.1879 11.9364 18.1879C9.3096 18.1879 7.0131 16.9437 5.54279 15.0176C5.1469 14.5609 4.58421 14.4129 4.10726 14.7519C3.66214 15.0734 3.55902 15.725 3.99475 16.2355C5.84631 18.6584 8.71858 20.175 11.9364 20.175C17.503 20.175 22.0239 15.6559 22.0239 10.0875Z" fill="white" fill-opacity="0.85"/>
  <path d="M12.0332 14.307C13.4975 14.307 14.8379 13.6107 15.2924 12.3402C15.358 12.1814 15.3856 12.0252 15.3856 11.8566C15.3856 11.4469 15.1053 11.252 14.7721 11.252C14.4315 11.252 14.2702 11.4463 14.1469 11.7479C13.8254 12.6639 13.0141 13.1631 12.0244 13.1631C10.3241 13.1631 9.57659 11.6396 9.57659 10.0146C9.57659 8.34882 10.3666 6.8742 12.0147 6.8742C12.9998 6.8742 13.8184 7.46678 14.0936 8.29394C14.2043 8.59725 14.3594 8.78182 14.7196 8.78182C15.085 8.78182 15.3207 8.55917 15.3207 8.18866C15.3207 8.02109 15.2746 7.81972 15.202 7.65566C14.6455 6.36816 13.367 5.73202 12.0112 5.73202C9.58753 5.73202 8.1971 7.52675 8.1971 10.0164C8.1971 12.4738 9.53402 14.307 12.0332 14.307ZM9.82073 15.5764C9.97972 15.5764 10.0819 15.5018 10.1254 15.3365L12.676 5.05722C12.7035 4.97636 12.7116 4.9248 12.7116 4.89726C12.7116 4.72851 12.5836 4.59882 12.3989 4.59882C12.2239 4.59882 12.1217 4.68144 12.0782 4.83866L9.52581 15.11C9.50803 15.1668 9.50003 15.2264 9.50003 15.2699C9.50003 15.4467 9.63596 15.5764 9.82073 15.5764ZM11.5938 15.5764C11.7528 15.5764 11.8612 15.5018 11.8985 15.3365L14.4491 5.05722C14.4766 4.97636 14.4846 4.9248 14.4846 4.89726C14.4846 4.72851 14.3567 4.59882 14.1719 4.59882C13.9969 4.59882 13.8948 4.68144 13.8494 4.83866L11.2989 15.11C11.2891 15.1668 11.2811 15.2264 11.2811 15.2699C11.2811 15.4467 11.409 15.5764 11.5938 15.5764Z" fill="white" fill-opacity="0.85"/>
 </g>
</svg>
