<?xml version="1.0" encoding="UTF-8"?>
<!--Generator: Apple Native CoreSVG 341-->
<!DOCTYPE svg
PUBLIC "-//W3C//DTD SVG 1.1//EN"
       "http://www.w3.org/Graphics/SVG/1.1/DTD/svg11.dtd">
<svg version="1.1" xmlns="http://www.w3.org/2000/svg" xmlns:xlink="http://www.w3.org/1999/xlink" viewBox="0 0 23.1632 23.5824">
 <g>
  <rect height="23.5824" opacity="0" width="23.1632" x="0" y="0"/>
  <path d="M1.11216 14.0689C-0.358342 15.5394-0.374358 17.3945 1.08638 18.857L5.53365 23.3105C5.89614 23.673 6.50512 23.673 6.86586 23.3105C7.2266 22.94 7.2266 22.3471 6.86586 21.9863L2.58715 17.7094C1.80336 16.9256 1.78032 16.035 2.56137 15.2619L14.4836 3.33964C15.2567 2.56659 16.1651 2.57362 16.9311 3.34765L21.2178 7.62812C21.5786 7.98886 22.1635 7.99862 22.5243 7.63612C22.893 7.27363 22.8948 6.68066 22.5243 6.31016L18.0788 1.86465C16.618 0.403911 14.7612 0.411918 13.2924 1.88867ZM2.4692 19.133L3.79516 20.4572L19.6977 4.55117L18.3735 3.22696ZM17.6541 5.89257L16.65 6.90917L19.4116 9.67069C19.6928 9.95995 20.1532 9.96347 20.4184 9.6787C20.7032 9.40019 20.7129 8.94511 20.4264 8.65859ZM15.7329 7.8121L14.7207 8.83046L17.4903 11.592C17.7698 11.8715 18.2301 11.8715 18.4989 11.6C18.7791 11.325 18.7854 10.8646 18.5086 10.5879ZM13.8116 9.73515L12.8075 10.7553L15.5672 13.5213C15.8485 13.7945 16.3088 13.7963 16.5776 13.5293C16.8606 13.2463 16.8721 12.7842 16.5856 12.5074ZM11.8983 11.6564L10.8862 12.6668L13.654 15.4328C13.9405 15.7158 14.3956 15.7193 14.6625 15.4346C14.9375 15.1578 14.9473 14.701 14.6706 14.4225ZM9.97699 13.5777L8.96489 14.5898L11.7291 17.3639C12.0059 17.6406 12.4663 17.6406 12.7413 17.3639C13.0163 17.0791 13.0295 16.6223 12.751 16.3437ZM8.05395 15.499L7.04184 16.5111L9.80962 19.2869C10.0926 19.5619 10.553 19.5619 10.82 19.2869C11.0967 19.0021 11.1065 18.5436 10.8297 18.2668ZM6.13266 17.4203L5.12231 18.4324L7.88833 21.2047C8.16508 21.4814 8.62192 21.4832 8.89868 21.2082C9.17719 20.9314 9.1852 20.4648 8.90844 20.1881Z" fill="white" fill-opacity="0.85"/>
 </g>
</svg>
