<?xml version="1.0" encoding="UTF-8"?>
<!--Generator: Apple Native CoreSVG 341-->
<!DOCTYPE svg
PUBLIC "-//W3C//DTD SVG 1.1//EN"
       "http://www.w3.org/Graphics/SVG/1.1/DTD/svg11.dtd">
<svg version="1.1" xmlns="http://www.w3.org/2000/svg" xmlns:xlink="http://www.w3.org/1999/xlink" viewBox="0 0 18.5894 18.2316">
 <g>
  <rect height="18.2316" opacity="0" width="18.5894" x="0" y="0"/>
  <path d="M3.20351 18.2281L15.0246 18.2281C17.1404 18.2281 18.2281 17.1502 18.2281 15.0646L18.2281 3.17148C18.2281 1.08769 17.1404 0 15.0246 0L3.20351 0C1.0957 0 0 1.08769 0 3.17148L0 15.0646C0 17.1502 1.0957 18.2281 3.20351 18.2281ZM3.31444 16.3148C2.40643 16.3148 1.91327 15.8465 1.91327 14.8977L1.91327 3.34023C1.91327 2.39139 2.40643 1.91503 3.31444 1.91503L14.9137 1.91503C15.8137 1.91503 16.3148 2.39139 16.3148 3.34023L16.3148 14.8977C16.3148 15.8465 15.8137 16.3148 14.9137 16.3148Z" fill="white" fill-opacity="0.85"/>
  <path d="M6.03378 14.2531C7.17909 14.2531 8.09882 13.3236 8.09882 12.1801L8.09882 6.04179C8.09882 4.89648 7.17909 3.96698 6.03378 3.96698C4.88144 3.96698 3.95722 4.89472 3.95722 6.04179C3.95722 7.19862 4.8912 8.09257 6.03026 8.09257L12.2076 8.09257C13.3387 8.09257 14.2727 7.19862 14.2727 6.04179C14.2727 4.89472 13.3484 3.96698 12.2059 3.96698C11.0588 3.96698 10.1311 4.89648 10.1311 6.04179L10.1311 12.1801C10.1311 13.3236 11.0588 14.2531 12.2059 14.2531C13.3484 14.2531 14.2727 13.3271 14.2727 12.1801C14.2727 11.0215 13.3387 10.1213 12.2076 10.1213L6.03026 10.1213C4.8912 10.1213 3.95722 11.0215 3.95722 12.1801C3.95722 13.3271 4.88144 14.2531 6.03378 14.2531ZM6.03378 13.0553C5.56112 13.0553 5.15682 12.651 5.15682 12.1783C5.15682 11.6994 5.55487 11.2916 6.04608 11.2916L12.1953 11.2916C12.6848 11.2916 13.073 11.6994 13.073 12.1783C13.073 12.651 12.6785 13.0553 12.2059 13.0553C11.727 13.0553 11.3191 12.6572 11.3191 12.1678L11.3191 6.05409C11.3191 5.55663 11.727 5.15858 12.2059 5.15858C12.6785 5.15858 13.073 5.56288 13.073 6.04355C13.073 6.52245 12.6848 6.92851 12.1953 6.92851L6.04608 6.92851C5.55487 6.92851 5.15682 6.52245 5.15682 6.04355C5.15682 5.56288 5.56112 5.15858 6.03378 5.15858C6.50292 5.15858 6.91074 5.55663 6.91074 6.05409L6.91074 12.1678C6.91074 12.6555 6.50292 13.0553 6.03378 13.0553Z" fill="white" fill-opacity="0.85"/>
 </g>
</svg>
