<?xml version="1.0" encoding="UTF-8"?>
<!--Generator: Apple Native CoreSVG 341-->
<!DOCTYPE svg
PUBLIC "-//W3C//DTD SVG 1.1//EN"
       "http://www.w3.org/Graphics/SVG/1.1/DTD/svg11.dtd">
<svg version="1.1" xmlns="http://www.w3.org/2000/svg" xmlns:xlink="http://www.w3.org/1999/xlink" viewBox="0 0 20.5381 20.1848">
 <g>
  <rect height="20.1848" opacity="0" width="20.5381" x="0" y="0"/>
  <path d="M20.1767 10.0973C20.1767 15.6656 15.6576 20.1848 10.0875 20.1848C4.52715 20.1848 0 15.6656 0 10.0973C0 4.53691 4.52715 0.00976562 10.0875 0.00976562C15.6576 0.00976562 20.1767 4.53691 20.1767 10.0973ZM11.1342 6.91112L11.1342 7.83242L9.03456 7.83242L9.03456 6.91112C9.03456 5.71972 8.07851 4.7539 6.88534 4.7539C5.68515 4.7539 4.72636 5.71796 4.72636 6.91112C4.72636 8.11757 5.69667 9.05409 6.88359 9.05409L7.79687 9.05409L7.79687 11.1484L6.88359 11.1484C5.69667 11.1484 4.72636 12.077 4.72636 13.2834C4.72636 14.4766 5.68515 15.4406 6.88534 15.4406C8.07851 15.4406 9.03456 14.4748 9.03456 13.2834L9.03456 12.3621L11.1342 12.3621L11.1342 13.2834C11.1342 14.4748 12.0982 15.4406 13.2834 15.4406C14.4818 15.4406 15.4424 14.4766 15.4424 13.2834C15.4424 12.077 14.4721 11.1484 13.2852 11.1484L12.3719 11.1484L12.3719 9.05409L13.2852 9.05409C14.4721 9.05409 15.4424 8.11757 15.4424 6.91112C15.4424 5.71796 14.4818 4.7539 13.2834 4.7539C12.0982 4.7539 11.1342 5.71972 11.1342 6.91112ZM7.79687 13.2693C7.79687 13.7846 7.36777 14.1977 6.88534 14.1977C6.3914 14.1977 5.97909 13.7818 5.97909 13.2816C5.97909 12.7912 6.38866 12.3621 6.89941 12.3621L7.79687 12.3621ZM14.1896 13.2816C14.1896 13.7818 13.7836 14.1977 13.2834 14.1977C12.7992 14.1977 12.3719 13.7881 12.3719 13.2693L12.3719 12.3621L13.2711 12.3621C13.7881 12.3621 14.1896 12.7912 14.1896 13.2816ZM11.1342 11.1484L9.03456 11.1484L9.03456 9.05409L11.1342 9.05409ZM7.79687 6.92519L7.79687 7.83242L6.89941 7.83242C6.38866 7.83242 5.97909 7.40331 5.97909 6.91288C5.97909 6.42245 6.3914 6.00663 6.88534 6.00663C7.36777 6.00663 7.79687 6.4162 7.79687 6.92519ZM14.1896 6.91288C14.1896 7.40331 13.7881 7.83242 13.2711 7.83242L12.3719 7.83242L12.3719 6.92519C12.3719 6.4162 12.7992 6.00663 13.2834 6.00663C13.7836 6.00663 14.1896 6.42245 14.1896 6.91288Z" fill="white" fill-opacity="0.85"/>
 </g>
</svg>
