<?xml version="1.0" encoding="UTF-8"?>
<!--Generator: Apple Native CoreSVG 341-->
<!DOCTYPE svg
PUBLIC "-//W3C//DTD SVG 1.1//EN"
       "http://www.w3.org/Graphics/SVG/1.1/DTD/svg11.dtd">
<svg version="1.1" xmlns="http://www.w3.org/2000/svg" xmlns:xlink="http://www.w3.org/1999/xlink" viewBox="0 0 18.5894 18.2316">
 <g>
  <rect height="18.2316" opacity="0" width="18.5894" x="0" y="0"/>
  <path d="M18.2281 3.17148L18.2281 15.0646C18.2281 17.1502 17.1404 18.2281 15.0246 18.2281L3.20351 18.2281C1.0957 18.2281 0 17.1502 0 15.0646L0 3.17148C0 1.08769 1.0957 0 3.20351 0L15.0246 0C17.1404 0 18.2281 1.08769 18.2281 3.17148ZM10.185 5.9248L10.185 6.84609L8.08534 6.84609L8.08534 5.9248C8.08534 4.73339 7.12929 3.76757 5.93612 3.76757C4.73769 3.76757 3.77714 4.73163 3.77714 5.9248C3.77714 7.13124 4.74745 8.05976 5.93437 8.05976L6.84765 8.05976L6.84765 10.1541L5.93437 10.1541C4.74745 10.1541 3.77714 11.0906 3.77714 12.2971C3.77714 13.4902 4.73769 14.4543 5.93612 14.4543C7.12929 14.4543 8.08534 13.4885 8.08534 12.2971L8.08534 11.3758L10.185 11.3758L10.185 12.2971C10.185 13.4885 11.149 14.4543 12.3422 14.4543C13.5344 14.4543 14.4932 13.4902 14.4932 12.2971C14.4932 11.0906 13.5228 10.1541 12.3439 10.1541L11.4244 10.1541L11.4244 8.05976L12.3439 8.05976C13.5228 8.05976 14.4932 7.13124 14.4932 5.9248C14.4932 4.73163 13.5344 3.76757 12.3422 3.76757C11.149 3.76757 10.185 4.73339 10.185 5.9248ZM6.84765 12.283C6.84765 12.7902 6.4203 13.2016 5.93612 13.2016C5.44393 13.2016 5.02987 12.7857 5.02987 12.2953C5.02987 11.8049 5.43944 11.3758 5.95019 11.3758L6.84765 11.3758ZM13.2422 12.2953C13.2422 12.7857 12.8361 13.2016 12.3422 13.2016C11.8518 13.2016 11.4244 12.792 11.4244 12.283L11.4244 11.3758L12.3299 11.3758C12.8406 11.3758 13.2422 11.8049 13.2422 12.2953ZM10.185 10.1541L8.08534 10.1541L8.08534 8.05976L10.185 8.05976ZM6.84765 5.93886L6.84765 6.84609L5.95019 6.84609C5.43944 6.84609 5.02987 6.41699 5.02987 5.92655C5.02987 5.42636 5.44393 5.01054 5.93612 5.01054C6.4203 5.01054 6.84765 5.42011 6.84765 5.93886ZM13.2422 5.92655C13.2422 6.41699 12.8406 6.84609 12.3299 6.84609L11.4244 6.84609L11.4244 5.93886C11.4244 5.42011 11.8518 5.01054 12.3422 5.01054C12.8361 5.01054 13.2422 5.42636 13.2422 5.92655Z" fill="white" fill-opacity="0.85"/>
 </g>
</svg>
