<?xml version="1.0" encoding="UTF-8"?>
<!--Generator: Apple Native CoreSVG 341-->
<!DOCTYPE svg
PUBLIC "-//W3C//DTD SVG 1.1//EN"
       "http://www.w3.org/Graphics/SVG/1.1/DTD/svg11.dtd">
<svg version="1.1" xmlns="http://www.w3.org/2000/svg" xmlns:xlink="http://www.w3.org/1999/xlink" viewBox="0 0 14.4139 21.8926">
 <g>
  <rect height="21.8926" opacity="0" width="14.4139" x="0" y="0"/>
  <path d="M7.02226 21.8926C11.6287 21.8926 14.0525 19.1474 14.0525 13.9533C14.0525 10.8346 13.9291 8.01894 13.7498 6.08144C13.3664 1.81933 11.3758 0.0275391 7.02226 0.0275391C2.67851 0.0275391 0.686132 1.81933 0.296484 6.08144C0.117188 8.01894 0 10.8346 0 13.9533C0 19.1474 2.41582 21.8926 7.02226 21.8926ZM7.02226 20.0355C3.61522 20.0355 1.85878 17.9701 1.85878 13.9533C1.85878 11.0008 1.9662 8.2205 2.1535 6.25605C2.4412 2.96991 3.63046 1.88632 7.02226 1.88632C10.4141 1.88632 11.6113 2.96991 11.899 6.25605C12.0783 8.2205 12.1955 11.0008 12.1955 13.9533C12.1955 17.9701 10.431 20.0355 7.02226 20.0355ZM1.24492 7.63456L12.8191 7.63456L12.8191 6.12675L1.24492 6.12675ZM6.283 6.96542L7.79081 6.97518L7.79081 1.09843L6.283 1.08691Z" fill="white" fill-opacity="0.85"/>
 </g>
</svg>
