<?xml version="1.0" encoding="UTF-8"?>
<!--Generator: Apple Native CoreSVG 341-->
<!DOCTYPE svg
PUBLIC "-//W3C//DTD SVG 1.1//EN"
       "http://www.w3.org/Graphics/SVG/1.1/DTD/svg11.dtd">
<svg version="1.1" xmlns="http://www.w3.org/2000/svg" xmlns:xlink="http://www.w3.org/1999/xlink" viewBox="0 0 25.7953 29.3951">
 <g>
  <rect height="29.3951" opacity="0" width="25.7953" x="0" y="0"/>
  <path d="M21.0849 8.79679L21.0849 20.6161C21.0849 22.7337 20.007 23.8214 17.9135 23.8214L7.51072 23.8214C5.41893 23.8214 4.33924 22.7337 4.33924 20.6161L4.33924 13.2544C4.86525 13.6753 5.56855 13.8528 6.25251 13.7058L6.25251 20.5052C6.25251 21.415 6.72087 21.9081 7.67146 21.9081L17.7625 21.9081C18.7033 21.9081 19.1717 21.415 19.1717 20.5052L19.1717 8.90773C19.1717 7.99971 18.7033 7.50655 17.7545 7.50655L8.98547 7.50655C9.06796 6.99097 8.91914 6.43124 8.47478 5.9802L8.09642 5.59328L17.9135 5.59328C20.007 5.59328 21.0849 6.67922 21.0849 8.79679Z" fill="white" fill-opacity="0.85"/>
  <path d="M16.6711 10.9341C16.6711 11.2864 16.4084 11.5589 16.048 11.5589L9.18044 11.5589C8.81833 11.5589 8.54939 11.2864 8.54939 10.9341C8.54939 10.5933 8.81833 10.3226 9.18044 10.3226L16.048 10.3226C16.4084 10.3226 16.6711 10.5933 16.6711 10.9341Z" fill="white" fill-opacity="0.85"/>
  <path d="M16.6711 14.6944C16.6711 15.0468 16.4084 15.3273 16.048 15.3273L9.18044 15.3273C8.81833 15.3273 8.54939 15.0468 8.54939 14.6944C8.54939 14.3519 8.81833 14.0909 9.18044 14.0909L16.048 14.0909C16.4084 14.0909 16.6711 14.3519 16.6711 14.6944Z" fill="white" fill-opacity="0.85"/>
  <path d="M16.6711 18.4788C16.6711 18.8214 16.4084 19.0823 16.048 19.0823L9.18044 19.0823C8.81833 19.0823 8.54939 18.8214 8.54939 18.4788C8.54939 18.1265 8.81833 17.846 9.18044 17.846L16.048 17.846C16.4084 17.846 16.6711 18.1265 16.6711 18.4788Z" fill="white" fill-opacity="0.85"/>
  <path d="M6.1326 12.3046C6.59568 12.1113 6.81834 11.5878 6.61873 11.1247L5.15681 7.73273L7.15799 7.67297C7.57303 7.66398 7.77967 7.25617 7.47811 6.94485L2.18474 1.52336C1.91072 1.24934 1.48944 1.40539 1.47791 1.80539L1.38123 9.50266C1.37147 9.92297 1.86639 10.0728 2.14217 9.7882L3.5449 8.36613L4.93495 11.8202C5.11502 12.2718 5.66151 12.4945 6.1326 12.3046Z" fill="white" fill-opacity="0.85"/>
 </g>
</svg>
