<?xml version="1.0" encoding="UTF-8"?>
<!--Generator: Apple Native CoreSVG 341-->
<!DOCTYPE svg
PUBLIC "-//W3C//DTD SVG 1.1//EN"
       "http://www.w3.org/Graphics/SVG/1.1/DTD/svg11.dtd">
<svg version="1.1" xmlns="http://www.w3.org/2000/svg" xmlns:xlink="http://www.w3.org/1999/xlink" viewBox="0 0 36.9023 30.2908">
 <g>
  <rect height="30.2908" opacity="0" width="36.9023" x="0" y="0"/>
  <path d="M10.6892 28.1848L25.8422 28.1848C26.1959 28.1848 26.4982 27.8807 26.4982 27.5172C26.4982 27.1635 26.1959 26.8674 25.8422 26.8674L10.6892 26.8674C10.324 26.8674 10.0217 27.1635 10.0217 27.5172C10.0217 27.8807 10.324 28.1848 10.6892 28.1848ZM12.1185 29.5389L12.1185 25.5044C12.1185 24.7901 11.4469 24.5354 10.8656 24.9667L8.18261 26.9821C7.81074 27.2581 7.80898 27.7772 8.18261 28.0612L10.8656 30.0811C11.4211 30.4946 12.1185 30.2719 12.1185 29.5389ZM24.4129 29.5389C24.4129 30.2559 25.0943 30.5106 25.664 30.0811L28.3471 28.0612C28.7305 27.7772 28.7109 27.2483 28.3471 26.9821L25.664 24.9667C25.0926 24.5354 24.4129 24.7901 24.4129 25.5044Z" fill="white" fill-opacity="0.85"/>
  <path d="M8.17148 23.494C9.85702 23.494 11.1865 22.1663 11.1865 20.487C11.1865 18.8094 9.85702 17.4817 8.17148 17.4817C6.49394 17.4817 5.16445 18.8094 5.16445 20.487C5.16445 22.1663 6.49394 23.494 8.17148 23.494ZM28.4834 23.494C30.1672 23.494 31.4967 22.1663 31.4967 20.487C31.4967 18.8094 30.1672 17.4817 28.4834 17.4817C26.7961 17.4817 25.4666 18.8094 25.4666 20.487C25.4666 22.1663 26.7961 23.494 28.4834 23.494ZM28.7875 11.1098C27.3398 10.8444 26.1178 10.728 24.4769 10.8354L14.9086 11.4343C16.1672 10.5151 17.4392 9.6614 19.0387 8.78816C20.1133 8.18562 19.2222 6.63856 18.0527 7.26981C15.6723 8.55574 13.4559 10.0139 11.5707 11.5946L4.90976 12.8429C1.65332 13.4526 0 14.9807 0 17.6327L0 19.0264C0 20.5827 0.699998 21.3616 2.26425 21.5381L4.11894 21.7585C4.02148 21.4249 3.96211 20.8727 3.96211 20.487C3.96211 18.151 5.82754 16.2874 8.17148 16.2874C10.5154 16.2874 12.3808 18.151 12.3808 20.487C12.3808 20.7983 12.3543 21.1381 12.2949 21.3686L24.384 21.3686C24.3086 21.1204 24.2723 20.8063 24.2723 20.487C24.2723 18.151 26.1377 16.2874 28.4834 16.2874C30.8273 16.2874 32.691 18.3147 32.691 20.6507C32.691 20.8075 32.6875 20.8967 32.6707 21.0421L33.618 20.9434C35.5871 20.7393 36.541 19.6469 36.541 17.6174L36.541 15.8022C36.541 13.3999 35.6457 12.3714 33.3638 11.9542Z" fill="white" fill-opacity="0.85"/>
 </g>
</svg>
