<?xml version="1.0" encoding="UTF-8"?>
<!--Generator: Apple Native CoreSVG 341-->
<!DOCTYPE svg
PUBLIC "-//W3C//DTD SVG 1.1//EN"
       "http://www.w3.org/Graphics/SVG/1.1/DTD/svg11.dtd">
<svg version="1.1" xmlns="http://www.w3.org/2000/svg" xmlns:xlink="http://www.w3.org/1999/xlink" viewBox="0 0 36.9023 22.5996">
 <g>
  <rect height="22.5996" opacity="0" width="36.9023" x="0" y="0"/>
  <path d="M11.1865 16.6414C11.1865 18.3207 9.85702 19.6484 8.17148 19.6484C6.49394 19.6484 5.16445 18.3207 5.16445 16.6414C5.16445 14.9639 6.49394 13.6361 8.17148 13.6361C9.85702 13.6361 11.1865 14.9639 11.1865 16.6414ZM31.4967 16.6414C31.4967 18.3207 30.1672 19.6484 28.4834 19.6484C26.7961 19.6484 25.4666 18.3207 25.4666 16.6414C25.4666 14.9639 26.7961 13.6361 28.4834 13.6361C30.1672 13.6361 31.4967 14.9639 31.4967 16.6414ZM13.3639 8.70956C13.3639 10.3623 14.4103 11.423 16.0107 11.423L20.5418 11.423C22.1324 11.423 23.1789 10.3623 23.1789 8.70956L23.1789 7.07108L24.4769 6.98984C26.1178 6.88242 27.3398 6.99883 28.7875 7.26426L33.3638 8.10859C35.6457 8.52578 36.541 9.55429 36.541 11.9566L36.541 13.7719C36.541 15.8014 35.5871 16.8937 33.618 17.0978L32.6707 17.1965C32.6875 17.0512 32.691 16.9619 32.691 16.8051C32.691 14.4691 30.8273 12.4418 28.4834 12.4418C26.1377 12.4418 24.2723 14.3055 24.2723 16.6414C24.2723 16.9607 24.3086 17.2748 24.384 17.523L12.2949 17.523C12.3543 17.2926 12.3808 16.9527 12.3808 16.6414C12.3808 14.3055 10.5154 12.4418 8.17148 12.4418C5.82754 12.4418 3.96211 14.3055 3.96211 16.6414C3.96211 17.0271 4.02148 17.5793 4.11894 17.9129L2.26425 17.6926C0.699998 17.516 0 16.7371 0 15.1808L0 13.7871C0 11.1352 1.65332 9.60703 4.90976 8.99726L11.5707 7.74902C12.1388 7.27268 12.737 6.80745 13.3639 6.35628Z" fill="white" fill-opacity="0.85"/>
  <path d="M16.0107 10.0377L20.5418 10.0377C21.3639 10.0377 21.7935 9.60175 21.7935 8.70956L21.7935 5.20742C21.7935 4.32324 21.3639 3.8873 20.5418 3.8873L16.0107 3.8873C15.1807 3.8873 14.751 4.32324 14.751 5.20742L14.751 8.70956C14.751 9.60175 15.1807 10.0377 16.0107 10.0377ZM19.5846 4.62031L20.7422 4.62031L20.7422 2.71641C20.7422 1.76777 21.3301 1.14609 22.2369 1.14609C23.1482 1.14609 23.7299 1.76777 23.7299 2.71641L23.7299 3.775C23.7299 4.09434 23.9933 4.3498 24.3127 4.3498C24.632 4.3498 24.8875 4.09434 24.8875 3.775L24.8875 2.85605C24.8875 1.1123 23.8473 0 22.2369 0C20.6328 0 19.5846 1.1123 19.5846 2.85605Z" fill="white" fill-opacity="0.85"/>
 </g>
</svg>
