<?xml version="1.0" encoding="UTF-8"?>
<!--Generator: Apple Native CoreSVG 341-->
<!DOCTYPE svg
PUBLIC "-//W3C//DTD SVG 1.1//EN"
       "http://www.w3.org/Graphics/SVG/1.1/DTD/svg11.dtd">
<svg version="1.1" xmlns="http://www.w3.org/2000/svg" xmlns:xlink="http://www.w3.org/1999/xlink" viewBox="0 0 38.7289 29.1117">
 <g>
  <rect height="29.1117" opacity="0" width="38.7289" x="0" y="0"/>
  <path d="M16.7409 4.69419C16.348 4.84956 15.9814 5.1458 15.6926 5.6127C15.6204 5.72849 15.5487 5.84488 15.4795 5.96331C15.3615 5.05007 15.0082 4.21997 14.4796 3.53377L13.8289 4.1871C13.5627 4.44531 13.143 4.44531 12.8768 4.1871C12.6123 3.92441 12.6203 3.50117 12.8768 3.24472L13.5371 2.58435C12.8391 2.03927 11.9905 1.67752 11.0558 1.56343L11.0558 2.46288C11.0558 2.82577 10.7408 3.1328 10.3779 3.1328C10.0185 3.1328 9.71952 2.82577 9.71952 2.46288L9.71952 1.56056C8.77993 1.67227 7.92623 2.03392 7.22423 2.5808L7.8871 3.24472C8.1453 3.50117 8.1453 3.92441 7.8871 4.1871C7.62089 4.44531 7.19315 4.44531 6.93495 4.1871L6.27842 3.53162C5.61189 4.39802 5.22167 5.49151 5.22167 6.68945C5.22167 7.99687 5.71386 9.20039 6.42714 9.99766C6.58964 10.1689 6.65175 10.3375 6.65175 10.5193C6.65175 10.9281 6.31484 11.2713 5.89453 11.2713C5.66484 11.2713 5.44316 11.1453 5.28789 10.9697C4.31289 9.86543 3.70449 8.33027 3.70449 6.69121C3.70449 3.03144 6.72792 0 10.3779 0C13.3373 0 15.8829 1.99094 16.7409 4.69419ZM0.551756 5.175L2.42402 6.40918C2.7 6.58047 2.68574 6.8748 2.43379 7.04609L0.53574 8.28027C0.296288 8.44355 0 8.3123 0 7.99824L0 5.46777C0.00625014 5.14394 0.302538 5.02246 0.551756 5.175ZM11.4625 6.78906C11.4705 7.41386 11.0197 7.91074 10.3709 7.92421C10.268 7.91621 10.0682 7.90117 9.90253 7.87109L6.69452 7.33847C6.46034 7.29062 6.34061 7.15136 6.33436 6.96875C6.3246 6.79941 6.43632 6.63613 6.65448 6.58027L9.79941 5.80488C9.97128 5.75879 10.1861 5.72148 10.3096 5.70371C10.9246 5.68769 11.4225 6.14824 11.4625 6.78906Z" fill="white" fill-opacity="0.85"/>
  <path d="M11.1576 27.4008C11.4262 27.8617 12.0041 28.0133 12.4357 27.758L37.9111 13.0517C38.333 12.8045 38.4978 12.2328 38.2506 11.7914C37.982 11.3305 37.3943 11.1869 36.9724 11.4324L11.4953 26.1404C11.0637 26.3877 10.9023 26.9656 11.1576 27.4008Z" fill="white" fill-opacity="0.85"/>
  <path d="M11.5953 22.6142L13.5834 21.7387L12.9734 20.4078L11.1777 21.1895C10.7414 21.377 10.4332 21.2926 10.2262 20.9301L9.73182 20.0736C9.07811 18.9527 9.45565 17.8469 10.8391 16.6473L14.7535 13.2894C15.0908 12.993 15.3951 12.7588 15.5193 12.4172C16.1691 10.6019 17.0443 8.79472 18.1398 7.02656C18.6639 6.16934 17.4174 5.45645 16.8631 6.34493C15.7277 8.1707 14.7654 10.0986 14.0881 11.9672L9.95429 15.515C7.93847 17.2406 7.39882 18.9633 8.46484 20.8051L9.02382 21.7678C9.64941 22.8557 10.4488 23.1174 11.5953 22.6142ZM16.0342 21.9387C17.4471 21.123 17.9121 19.3756 17.0947 17.9645C16.2773 16.5498 14.5396 16.0848 13.1267 16.9021C11.7121 17.7195 11.2471 19.4572 12.0644 20.8719C12.8738 22.2848 14.6213 22.7578 16.0342 21.9387ZM15.3471 20.7453C14.6062 21.1699 13.6842 20.9221 13.2515 20.183C12.8269 19.4439 13.0748 18.5219 13.8139 18.0955C14.5529 17.6709 15.475 17.9125 15.9014 18.6596C16.334 19.3969 16.0844 20.3207 15.3471 20.7453ZM16.7826 19.4582L28.6088 12.632L27.8791 11.365L16.0529 18.1912ZM31.0676 13.2615C32.4787 12.4459 32.9437 10.6984 32.1281 9.28554C31.3107 7.87265 29.5713 7.40761 28.1584 8.225C26.7455 9.04238 26.2725 10.7801 27.0898 12.1947C27.9072 13.6058 29.6529 14.0807 31.0676 13.2615ZM30.3787 12.0682C29.6316 12.4928 28.7158 12.2449 28.2832 11.5059C27.8586 10.7668 28.1082 9.84472 28.8473 9.41835C29.5846 8.99374 30.5084 9.23534 30.933 9.9744C31.3656 10.7197 31.1178 11.6435 30.3787 12.0682ZM31.9627 10.484L33.1613 9.61093C34.4455 8.6746 34.6771 7.53867 33.8615 6.12578L33.1375 4.86758C32.1736 3.20078 31.1211 2.8502 29.3805 3.47149L25.8521 4.72149C24.7916 5.09863 23.8961 5.49609 22.8219 6.20723L14.1281 11.9432L14.5375 13.4275L23.4904 7.51855C24.393 6.92128 25.2107 6.53417 26.4787 6.09999L29.908 4.89902C30.8418 4.57206 31.3793 4.74804 31.8687 5.59726L32.5928 6.85546C32.973 7.50761 32.8727 8.03359 32.2889 8.45566L31.233 9.21699Z" fill="white" fill-opacity="0.85"/>
 </g>
</svg>
