<?xml version="1.0" encoding="UTF-8"?>
<!--Generator: Apple Native CoreSVG 341-->
<!DOCTYPE svg
PUBLIC "-//W3C//DTD SVG 1.1//EN"
       "http://www.w3.org/Graphics/SVG/1.1/DTD/svg11.dtd">
<svg version="1.1" xmlns="http://www.w3.org/2000/svg" xmlns:xlink="http://www.w3.org/1999/xlink" viewBox="0 0 36.9023 16.866">
 <g>
  <rect height="16.866" opacity="0" width="36.9023" x="0" y="0"/>
  <path d="M2.26425 14.8258L4.95995 15.1301L5.13377 13.3012L2.69687 13.0244C2.11308 12.9613 1.83417 12.6789 1.83417 12.1529L1.83417 10.9203C1.83417 9.30213 2.91425 8.34647 5.15878 7.92205L11.4752 6.73065C12.0166 6.62948 12.4965 6.56209 12.8416 6.26932C14.6709 4.71522 16.7531 3.31288 19.0316 2.07929C20.1326 1.48554 19.2267-0.0720674 18.0785 0.541406C15.706 1.81582 13.4711 3.29257 11.5707 4.88222L4.90976 6.13046C1.65332 6.74023 0 8.26835 0 10.9203L0 12.314C0 13.8703 0.703514 14.659 2.26425 14.8258ZM7.47225 16.866C9.50174 16.866 11.0937 15.274 11.0937 13.2445C11.0937 11.2053 9.50174 9.61327 7.47225 9.61327C5.433 9.61327 3.84101 11.2053 3.84101 13.2445C3.84101 15.274 5.433 16.866 7.47225 16.866ZM7.47225 15.1383C6.4037 15.1383 5.56873 14.3033 5.56873 13.2445C5.56873 12.176 6.4037 11.3392 7.47225 11.3392C8.53105 11.3392 9.36777 12.176 9.36777 13.2445C9.36777 14.3033 8.53105 15.1383 7.47225 15.1383ZM9.82128 14.6562L26.8262 14.6562L26.8262 12.8238L9.82128 12.8238ZM29.0785 16.866C31.108 16.866 32.7 15.274 32.7 13.2445C32.7 11.2053 31.108 9.61327 29.0785 9.61327C27.0393 9.61327 25.4473 11.2053 25.4473 13.2445C25.4473 15.274 27.0393 16.866 29.0785 16.866ZM29.0785 15.1383C28.0099 15.1383 27.175 14.3033 27.175 13.2445C27.175 12.176 28.0099 11.3392 29.0785 11.3392C30.1373 11.3392 30.974 12.176 30.974 13.2445C30.974 14.3033 30.1373 15.1383 29.0785 15.1383ZM31.7754 14.4271L33.618 14.231C35.5871 14.0287 36.541 12.9346 36.541 10.9051L36.541 9.08983C36.541 6.68749 35.6342 5.65898 33.3638 5.24179L28.783 4.40097C27.3951 4.14179 26.1848 4.02187 24.5807 4.10976L11.6348 4.88222L11.1477 6.74569L24.4849 5.95194C25.8355 5.8703 26.9515 5.96444 28.5896 6.28143L33.0402 7.12127C34.2512 7.34784 34.7086 7.87206 34.7086 9.08983L34.7086 10.9051C34.7086 11.8424 34.2795 12.3426 33.3945 12.4332L31.7754 12.5965Z" fill="white" fill-opacity="0.85"/>
 </g>
</svg>
