<?xml version="1.0" encoding="UTF-8"?>
<!--Generator: Apple Native CoreSVG 341-->
<!DOCTYPE svg
PUBLIC "-//W3C//DTD SVG 1.1//EN"
       "http://www.w3.org/Graphics/SVG/1.1/DTD/svg11.dtd">
<svg version="1.1" xmlns="http://www.w3.org/2000/svg" xmlns:xlink="http://www.w3.org/1999/xlink" viewBox="0 0 20.1029 16.6972">
 <g>
  <rect height="16.6972" opacity="0" width="20.1029" x="0" y="0"/>
  <path d="M1.40957 2.2203L4.45176 2.2203C4.85097 2.2203 5.12363 2.32675 5.36406 2.56542L8.83437 6.03749L10.423 5.21054L6.62792 1.41719C6.02988 0.820897 5.32109 0.562695 4.33144 0.562695L1.40957 0.562695C0.890037 0.562695 0.552344 0.900388 0.552344 1.39062C0.552344 1.88085 0.88828 2.2203 1.40957 2.2203ZM8.17148 16.6972C9.85702 16.6972 11.1865 15.3695 11.1865 13.6902C11.1865 12.0127 9.85702 10.6849 8.17148 10.6849C6.49394 10.6849 5.16445 12.0127 5.16445 13.6902C5.16445 15.3695 6.49394 16.6972 8.17148 16.6972ZM14.9086 4.64551C16.1672 3.72636 17.4392 2.86464 19.0387 1.9914C20.1133 1.38887 19.2222-0.158197 18.0527 0.47305C15.6723 1.75899 13.4559 3.21719 11.5707 4.79785L4.90976 6.04609C1.65332 6.65586 0 8.18398 0 10.8359L0 12.2297C0 13.7859 0.699998 14.5648 2.26425 14.7414L4.11894 14.9617C4.02148 14.6281 3.96211 14.076 3.96211 13.6902C3.96211 11.3543 5.82754 9.49062 8.17148 9.49062C10.5154 9.49062 12.3808 11.3543 12.3808 13.6902C12.3808 14.0015 12.3543 14.3414 12.2949 14.5719L19.7416 14.5719L19.7416 4.34609Z" fill="white" fill-opacity="0.85"/>
 </g>
</svg>
