<?xml version="1.0" encoding="UTF-8"?>
<!--Generator: Apple Native CoreSVG 341-->
<!DOCTYPE svg
PUBLIC "-//W3C//DTD SVG 1.1//EN"
       "http://www.w3.org/Graphics/SVG/1.1/DTD/svg11.dtd">
<svg version="1.1" xmlns="http://www.w3.org/2000/svg" xmlns:xlink="http://www.w3.org/1999/xlink" viewBox="0 0 36.9023 22.5996">
 <g>
  <rect height="22.5996" opacity="0" width="36.9023" x="0" y="0"/>
  <path d="M13.5695 8.70956C13.5695 8.97772 13.5971 9.23029 13.6528 9.4634L11.5107 9.59088C11.499 9.59301 11.4871 9.59522 11.4752 9.59745L5.15878 10.7889C2.91425 11.2133 1.83417 12.1689 1.83417 13.7871L1.83417 15.0197C1.83417 15.5457 2.11308 15.8281 2.69687 15.8912L3.84538 16.0216C3.88846 14.0251 5.46333 12.4801 7.47225 12.4801C9.35965 12.4801 10.8687 13.8569 11.0689 15.6906L25.4721 15.6906C25.6724 13.8569 27.182 12.4801 29.0785 12.4801C30.8569 12.4801 32.2993 13.7025 32.6287 15.3772L33.3945 15.3C34.2795 15.2094 34.7086 14.7092 34.7086 13.7719L34.7086 11.9566C34.7086 10.7389 34.2512 10.2146 33.0402 9.98807L28.5896 9.14823C26.9515 8.83124 25.8355 8.7371 24.4849 8.81874L23.3775 8.88464C23.3832 8.82823 23.3845 8.76928 23.3845 8.70956L23.3845 7.04793L24.5807 6.97656C26.1848 6.88867 27.3951 7.00859 28.783 7.26777L33.3638 8.10859C35.6342 8.52578 36.541 9.55429 36.541 11.9566L36.541 13.7719C36.541 15.8014 35.5871 16.8955 33.618 17.0978L32.5347 17.2131C32.0789 18.6886 30.7222 19.7328 29.0785 19.7328C27.5451 19.7328 26.2646 18.8327 25.7242 17.523L10.817 17.523C10.277 18.8327 8.99829 19.7328 7.47225 19.7328C6.10174 19.7328 4.93325 19.0137 4.31688 17.9243L2.26425 17.6926C0.703514 17.5258 0 16.7371 0 15.1808L0 13.7871C0 11.1352 1.65332 9.60703 4.90976 8.99726L11.5707 7.74902C12.2015 7.22133 12.8693 6.70607 13.5695 6.20802ZM5.56873 16.1113C5.56873 17.1701 6.4037 18.0051 7.47225 18.0051C8.53105 18.0051 9.36777 17.1701 9.36777 16.1113C9.36777 15.0428 8.53105 14.206 7.47225 14.206C6.4037 14.206 5.56873 15.0428 5.56873 16.1113ZM27.175 16.1113C27.175 17.1701 28.0099 18.0051 29.0785 18.0051C30.1373 18.0051 30.974 17.1701 30.974 16.1113C30.974 15.0428 30.1373 14.206 29.0785 14.206C28.0099 14.206 27.175 15.0428 27.175 16.1113Z" fill="white" fill-opacity="0.85"/>
  <path d="M16.2164 10.0377L20.7474 10.0377C21.5695 10.0377 21.9974 9.60175 21.9974 8.70956L21.9974 5.20742C21.9974 4.32324 21.5695 3.8873 20.7474 3.8873L16.2164 3.8873C15.3846 3.8873 14.9566 4.32324 14.9566 5.20742L14.9566 8.70956C14.9566 9.60175 15.3846 10.0377 16.2164 10.0377ZM15.8256 4.62031L16.9867 4.62031L16.9867 2.71641C16.9867 1.76777 17.5711 1.14609 18.4779 1.14609C19.3892 1.14609 19.9771 1.76777 19.9771 2.71641L19.9771 4.62031L21.1285 4.62031L21.1285 2.85605C21.1285 1.1123 20.0883 0 18.4779 0C16.8738 0 15.8256 1.1123 15.8256 2.85605Z" fill="white" fill-opacity="0.85"/>
 </g>
</svg>
