<?xml version="1.0" encoding="UTF-8"?>
<!--Generator: Apple Native CoreSVG 341-->
<!DOCTYPE svg
PUBLIC "-//W3C//DTD SVG 1.1//EN"
       "http://www.w3.org/Graphics/SVG/1.1/DTD/svg11.dtd">
<svg version="1.1" xmlns="http://www.w3.org/2000/svg" xmlns:xlink="http://www.w3.org/1999/xlink" viewBox="0 0 32.0256 24.8294">
 <g>
  <rect height="24.8294" opacity="0" width="32.0256" x="0" y="0"/>
  <path d="M3.22932 24.2168C3.49787 24.6778 4.0758 24.8293 4.49943 24.582L29.9828 9.87404C30.4047 9.62053 30.5695 9.04885 30.3205 8.61546C30.052 8.15452 29.4643 8.00296 29.0424 8.24847L3.56701 22.9565C3.13537 23.2117 2.97229 23.7817 3.22932 24.2168Z" fill="white" fill-opacity="0.85"/>
  <path d="M3.66701 19.4303L5.65509 18.5547L5.04513 17.2239L3.24943 18.0055C2.8131 18.201 2.5049 18.1149 2.29787 17.7461L1.80353 16.8897C1.14982 15.7688 1.5256 14.6629 2.91076 13.4633L6.82346 10.1055C7.16252 9.80902 7.46506 9.57484 7.58928 9.23324C8.24084 7.41625 9.11427 5.61078 10.2115 3.84086C10.7356 2.9854 9.48908 2.27251 8.93303 3.15922C7.79768 4.99301 6.83713 6.91469 6.15803 8.78324L2.026 12.3311C0.00842252 14.0567-0.529468 15.7793 0.534789 17.6291L1.09377 18.5918C1.71936 19.67 2.51252 19.9317 3.66701 19.4303ZM8.10587 18.7547C9.51876 17.9391 9.9838 16.1996 9.16642 14.7868C8.34904 13.3739 6.60959 12.9008 5.19845 13.7164C3.78381 14.5356 3.31877 16.2813 4.12814 17.6959C4.94553 19.1071 6.69123 19.5721 8.10587 18.7547ZM7.41701 17.5614C6.67795 17.994 5.75587 17.7461 5.32325 17.0071C4.89689 16.26 5.1465 15.3459 5.88556 14.9116C6.62462 14.4869 7.5467 14.7366 7.97131 15.4756C8.40393 16.2129 8.15607 17.1368 7.41701 17.5614ZM8.85256 16.2743L20.6805 9.44632L19.9508 8.17934L8.12287 15.0073ZM23.1375 10.0776C24.5504 9.26194 25.0154 7.52249 24.1981 6.1096C23.3807 4.69672 21.643 4.22367 20.2301 5.03929C18.8172 5.85668 18.3424 7.60413 19.1615 9.01878C19.9772 10.4299 21.7246 10.8949 23.1375 10.0776ZM22.4504 8.88422C21.7033 9.30883 20.7875 9.06722 20.3549 8.32191C19.9303 7.58284 20.1781 6.65901 20.919 6.2344C21.6563 5.80979 22.5783 6.0594 23.0047 6.79847C23.4293 7.53577 23.1877 8.4596 22.4504 8.88422ZM24.0344 7.29827L25.233 6.42699C26.5172 5.49867 26.7488 4.35297 25.9315 2.94183L25.2092 1.68188C24.2453 0.0168387 23.1928-0.333747 21.4522 0.287542L17.9238 1.53754C16.8633 1.91469 15.9678 2.32016 14.8936 3.02152L6.19807 8.75922L6.6092 10.2418L15.5621 4.3346C16.4647 3.73734 17.2807 3.35023 18.5487 2.91605L21.9797 1.71507C22.9135 1.38812 23.451 1.57035 23.9405 2.41332L24.6645 3.67152C25.043 4.32367 24.9444 4.84965 24.3606 5.27797L23.3047 6.03129Z" fill="white" fill-opacity="0.85"/>
  <path d="M19.3377 24.6598C19.7252 24.6598 19.9674 24.4238 19.9674 24.0266L19.9674 22.0244L21.3606 22.0244L21.3606 24.0266C21.3606 24.4256 21.593 24.6598 21.9902 24.6598C22.3777 24.6598 22.6199 24.4238 22.6199 24.0266L22.6199 19.0672C22.6199 18.6815 22.3777 18.4403 21.9902 18.4403C21.5947 18.4403 21.3606 18.6815 21.3606 19.0672L21.3606 20.9955L19.9674 20.9955L19.9674 19.0672C19.9674 18.6674 19.7129 18.4403 19.3377 18.4403C18.9529 18.4403 18.7258 18.6832 18.7258 19.0672L18.7258 24.0266C18.7258 24.4256 18.9547 24.6598 19.3377 24.6598ZM24.0074 24.658L25.1248 24.658C26.743 24.658 27.2889 23.1354 27.2889 21.5235C27.2889 19.7914 26.6807 18.4403 25.1248 18.4403L24.0074 18.4403C23.6262 18.4403 23.3725 18.6487 23.3725 19.0895L23.3725 24.0035C23.3725 24.4444 23.6279 24.658 24.0074 24.658ZM24.6043 23.6291L24.6043 19.4674L24.9705 19.4674C25.8387 19.4674 26.0197 20.5358 26.0197 21.5235C26.0197 22.536 25.8627 23.6291 24.9705 23.6291ZM29.8924 24.7139C30.5244 24.7139 30.9859 24.4262 31.2877 23.976C31.5076 23.6725 31.6656 23.2233 31.6656 22.8684C31.6656 22.5137 31.4315 22.3008 31.075 22.3008C30.7922 22.3008 30.5758 22.4959 30.5172 22.808C30.4238 23.3199 30.2674 23.653 29.8578 23.653C29.3647 23.653 29.082 22.9334 29.082 21.5412C29.082 20.1313 29.41 19.4311 29.8578 19.4311C30.2178 19.4311 30.4328 19.7822 30.4994 20.2707C30.5553 20.6385 30.8043 20.8055 31.1008 20.8055C31.4307 20.8055 31.6311 20.5793 31.6311 20.2299C31.6311 19.8483 31.4588 19.3024 31.1039 18.926C30.8012 18.585 30.3565 18.3781 29.8481 18.3781C28.9492 18.3781 28.4141 18.9321 28.1336 19.6195C27.8742 20.2092 27.8076 20.8946 27.8076 21.5412C27.8076 22.319 27.8893 23.0631 28.2127 23.683C28.5678 24.3793 29.125 24.7139 29.8924 24.7139Z" fill="white" fill-opacity="0.85"/>
 </g>
</svg>
