<?xml version="1.0" encoding="UTF-8"?>
<!--Generator: Apple Native CoreSVG 341-->
<!DOCTYPE svg
PUBLIC "-//W3C//DTD SVG 1.1//EN"
       "http://www.w3.org/Graphics/SVG/1.1/DTD/svg11.dtd">
<svg version="1.1" xmlns="http://www.w3.org/2000/svg" xmlns:xlink="http://www.w3.org/1999/xlink" viewBox="0 0 32.0256 24.8294">
 <g>
  <rect height="24.8294" opacity="0" width="32.0256" x="0" y="0"/>
  <path d="M3.22932 24.2168C3.49787 24.6778 4.0758 24.8293 4.49943 24.582L29.9828 9.87404C30.4047 9.62053 30.5695 9.04885 30.3205 8.61546C30.052 8.15452 29.4643 8.00296 29.0424 8.24847L3.56701 22.9565C3.13537 23.2117 2.97229 23.7817 3.22932 24.2168Z" fill="white" fill-opacity="0.85"/>
  <path d="M8.56975 18.4147C9.73615 17.7418 10.1258 16.2862 9.45295 15.1198C8.7801 13.9516 7.32443 13.5637 6.15803 14.2366C4.98186 14.9094 4.59221 16.3651 5.26506 17.5315C5.93791 18.6996 7.39357 19.0875 8.56975 18.4147ZM22.6904 10.2588C23.8569 9.58597 24.2465 8.13031 23.5736 6.9639C22.899 5.79574 21.4434 5.40785 20.277 6.08871C19.1026 6.76156 18.7112 8.21546 19.3858 9.37562C20.0586 10.5518 21.5143 10.9397 22.6904 10.2588ZM17.9283 1.53754C16.8143 1.9352 15.9184 2.34125 14.825 3.06547L8.39806 7.34106C8.90353 6.19888 9.44454 5.08481 10.2151 3.83734C10.718 2.98364 9.48283 2.277 8.92502 3.177C7.78166 5.02856 6.83264 6.92992 6.15803 8.78324L2.026 12.3311C0.00842252 14.0567-0.529468 15.7793 0.534789 17.6291L1.09377 18.5918C1.71936 19.67 2.509 19.9317 3.66701 19.4303L5.04924 18.8369C4.84436 18.6399 4.59143 18.2821 4.43088 18.0116C3.49358 16.3926 4.04475 14.3477 5.6717 13.4024C7.30314 12.4651 9.34982 13.0145 10.2791 14.6317C10.4051 14.8526 10.524 15.0993 10.5781 15.2819L18.9774 10.4252C18.8328 10.2807 18.6776 10.0748 18.5516 9.86195C17.6205 8.23675 18.1655 6.19183 19.7906 5.25453C21.4238 4.30922 23.5346 4.97426 24.4719 6.59945C24.533 6.70492 24.5649 6.77211 24.6092 6.87933L25.233 6.42699C26.5154 5.49691 26.7488 4.35297 25.9315 2.94183L25.2092 1.68188C24.2453 0.0168387 23.2026-0.333747 21.4522 0.287542Z" fill="white" fill-opacity="0.85"/>
  <path d="M19.3377 24.6598C19.7252 24.6598 19.9674 24.4238 19.9674 24.0266L19.9674 22.0244L21.3606 22.0244L21.3606 24.0266C21.3606 24.4256 21.593 24.6598 21.9902 24.6598C22.3777 24.6598 22.6199 24.4238 22.6199 24.0266L22.6199 19.0672C22.6199 18.6815 22.3777 18.4403 21.9902 18.4403C21.5947 18.4403 21.3606 18.6815 21.3606 19.0672L21.3606 20.9955L19.9674 20.9955L19.9674 19.0672C19.9674 18.6674 19.7129 18.4403 19.3377 18.4403C18.9529 18.4403 18.7258 18.6832 18.7258 19.0672L18.7258 24.0266C18.7258 24.4256 18.9547 24.6598 19.3377 24.6598ZM24.0074 24.658L25.1248 24.658C26.743 24.658 27.2889 23.1354 27.2889 21.5235C27.2889 19.7914 26.6807 18.4403 25.1248 18.4403L24.0074 18.4403C23.6262 18.4403 23.3725 18.6487 23.3725 19.0895L23.3725 24.0035C23.3725 24.4444 23.6279 24.658 24.0074 24.658ZM24.6043 23.6291L24.6043 19.4674L24.9705 19.4674C25.8387 19.4674 26.0197 20.5358 26.0197 21.5235C26.0197 22.536 25.8627 23.6291 24.9705 23.6291ZM29.8924 24.7139C30.5244 24.7139 30.9859 24.4262 31.2877 23.976C31.5076 23.6725 31.6656 23.2233 31.6656 22.8684C31.6656 22.5137 31.4315 22.3008 31.075 22.3008C30.7922 22.3008 30.5758 22.4959 30.5172 22.808C30.4238 23.3199 30.2674 23.653 29.8578 23.653C29.3647 23.653 29.082 22.9334 29.082 21.5412C29.082 20.1313 29.41 19.4311 29.8578 19.4311C30.2178 19.4311 30.4328 19.7822 30.4994 20.2707C30.5553 20.6385 30.8043 20.8055 31.1008 20.8055C31.4307 20.8055 31.6311 20.5793 31.6311 20.2299C31.6311 19.8483 31.4588 19.3024 31.1039 18.926C30.8012 18.585 30.3565 18.3781 29.8481 18.3781C28.9492 18.3781 28.4141 18.9321 28.1336 19.6195C27.8742 20.2092 27.8076 20.8946 27.8076 21.5412C27.8076 22.319 27.8893 23.0631 28.2127 23.683C28.5678 24.3793 29.125 24.7139 29.8924 24.7139Z" fill="white" fill-opacity="0.85"/>
 </g>
</svg>
