<?xml version="1.0" encoding="UTF-8"?>
<!--Generator: Apple Native CoreSVG 341-->
<!DOCTYPE svg
PUBLIC "-//W3C//DTD SVG 1.1//EN"
       "http://www.w3.org/Graphics/SVG/1.1/DTD/svg11.dtd">
<svg version="1.1" xmlns="http://www.w3.org/2000/svg" xmlns:xlink="http://www.w3.org/1999/xlink" viewBox="0 0 36.9023 21.9867">
 <g>
  <rect height="21.9867" opacity="0" width="36.9023" x="0" y="0"/>
  <path d="M8.26757 19.342C9.95312 19.342 11.2826 18.0143 11.2826 16.335C11.2826 14.6574 9.95312 13.3297 8.26757 13.3297C6.59004 13.3297 5.26055 14.6574 5.26055 16.335C5.26055 18.0143 6.59004 19.342 8.26757 19.342ZM28.5019 19.342C30.1857 19.342 31.5152 18.0143 31.5152 16.335C31.5152 14.6574 30.1857 13.3297 28.5019 13.3297C26.8146 13.3297 25.4851 14.6574 25.4851 16.335C25.4851 18.0143 26.8146 19.342 28.5019 19.342ZM21.8228 8.72227C21.2371 8.72227 20.8373 8.34454 20.8125 7.7463L20.6102 1.20839C20.5836 0.484958 21.0623 0 21.8193 0C22.5728 0 23.0498 0.484958 23.025 1.20839L22.8181 7.73927C22.7933 8.34454 22.4051 8.72227 21.8228 8.72227ZM21.8228 13.1689C21.031 13.1689 20.3977 12.5674 20.3977 11.8207C20.3977 11.0678 21.015 10.4742 21.8228 10.4742C22.6191 10.4742 23.2392 11.0678 23.2392 11.8207C23.2392 12.5674 22.6111 13.1689 21.8228 13.1689ZM28.7875 6.95782C27.3398 6.69239 26.1178 6.56368 24.4769 6.68341L14.4164 7.36485C15.675 6.44571 16.9471 5.592 18.5447 4.71875C19.6211 4.11622 18.7301 2.5674 17.5606 3.2004C15.1801 4.48458 12.9637 5.94278 11.0768 7.5252L4.90976 8.69083C1.64804 9.31114 0 10.8287 0 13.4807L0 14.8744C0 16.4307 0.699998 17.2096 2.26425 17.3861L4.11894 17.6064C4.02148 17.2728 3.96211 16.7207 3.96211 16.335C3.96211 13.999 5.82754 12.1354 8.17148 12.1354C10.5154 12.1354 12.3808 13.999 12.3808 16.335C12.3808 16.6463 12.3543 16.9861 12.2949 17.2166L24.384 17.2166C24.3086 16.9684 24.2723 16.6543 24.2723 16.335C24.2723 13.999 26.1377 12.1354 28.4834 12.1354C30.8273 12.1354 32.691 14.1627 32.691 16.4986C32.691 16.6555 32.6875 16.7447 32.6707 16.89L33.618 16.7914C35.5871 16.5873 36.541 15.4949 36.541 13.4654L36.541 11.6502C36.541 9.24786 35.6457 8.21934 33.3638 7.80216Z" fill="white" fill-opacity="0.85"/>
 </g>
</svg>
