<?xml version="1.0" encoding="UTF-8"?>
<!--Generator: Apple Native CoreSVG 341-->
<!DOCTYPE svg
PUBLIC "-//W3C//DTD SVG 1.1//EN"
       "http://www.w3.org/Graphics/SVG/1.1/DTD/svg11.dtd">
<svg version="1.1" xmlns="http://www.w3.org/2000/svg" xmlns:xlink="http://www.w3.org/1999/xlink" viewBox="0 0 36.9023 24.4438">
 <g>
  <rect height="24.4438" opacity="0" width="36.9023" x="0" y="0"/>
  <path d="M11.1865 17.5635C11.1865 19.2428 9.85702 20.5705 8.17148 20.5705C6.49394 20.5705 5.16445 19.2428 5.16445 17.5635C5.16445 15.886 6.49394 14.5582 8.17148 14.5582C9.85702 14.5582 11.1865 15.886 11.1865 17.5635ZM31.4967 17.5635C31.4967 19.2428 30.1672 20.5705 28.4834 20.5705C26.7961 20.5705 25.4666 19.2428 25.4666 17.5635C25.4666 15.886 26.7961 14.5582 28.4834 14.5582C30.1672 14.5582 31.4967 15.886 31.4967 17.5635ZM19.0387 5.86469C17.4392 6.73793 16.1672 7.59164 14.9086 8.51079L24.4769 7.91196C26.1178 7.80453 27.3398 7.92094 28.7875 8.18637L33.3638 9.03071C35.6457 9.44789 36.541 10.4764 36.541 12.8787L36.541 14.694C36.541 16.7235 35.5871 17.8158 33.618 18.0199L32.6707 18.1186C32.6875 17.9733 32.691 17.884 32.691 17.7272C32.691 15.3912 30.8273 13.3639 28.4834 13.3639C26.1377 13.3639 24.2723 15.2276 24.2723 17.5635C24.2723 17.8828 24.3086 18.1969 24.384 18.4451L12.2949 18.4451C12.3543 18.2147 12.3808 17.8748 12.3808 17.5635C12.3808 15.2276 10.5154 13.3639 8.17148 13.3639C5.82754 13.3639 3.96211 15.2276 3.96211 17.5635C3.96211 17.9492 4.02148 18.5014 4.11894 18.835L2.26425 18.6147C0.699998 18.4381 0 17.6592 0 16.103L0 14.7092C0 12.0573 1.65332 10.5291 4.90976 9.91938L11.5707 8.67114C13.4559 7.09047 15.6723 5.63227 18.0527 4.34634C19.2222 3.71509 20.1133 5.26215 19.0387 5.86469ZM17.6941 11.4049L15.6102 14.844C15.3068 15.3362 15.5533 15.8219 16.1314 15.8219L20.4131 15.8219C20.9779 15.8219 21.2359 15.3442 20.9406 14.852L18.8406 11.4049C18.5666 10.9438 17.9779 10.934 17.6941 11.4049Z" fill="white" fill-opacity="0.85"/>
  <path d="M21.0094 20.5549L18.8576 24.0832C18.5711 24.5551 17.9717 24.5729 17.6816 24.0832L15.5396 20.5549C15.2318 20.052 15.4846 19.5537 16.0797 19.5537L20.4711 19.5537C21.0467 19.5537 21.3172 20.0485 21.0094 20.5549Z" fill="white" fill-opacity="0.85"/>
 </g>
</svg>
