<?xml version="1.0" encoding="UTF-8"?>
<!--Generator: Apple Native CoreSVG 341-->
<!DOCTYPE svg
PUBLIC "-//W3C//DTD SVG 1.1//EN"
       "http://www.w3.org/Graphics/SVG/1.1/DTD/svg11.dtd">
<svg version="1.1" xmlns="http://www.w3.org/2000/svg" xmlns:xlink="http://www.w3.org/1999/xlink" viewBox="0 0 20.2348 19.8832">
 <g>
  <rect height="19.8832" opacity="0" width="20.2348" x="0" y="0"/>
  <path d="M0 13.1982C0 13.6951 0.347655 14.0525 0.846286 14.0525L1.82226 14.0525L1.82226 17.2297C1.82226 17.7336 2.15761 18.0609 2.66152 18.0609L5.83066 18.0609L5.83066 19.0387C5.83066 19.5355 6.18633 19.8832 6.6832 19.8832C7.18183 19.8832 7.52949 19.5355 7.52949 19.0387L7.52949 18.0609L9.09043 18.0609L9.09043 19.0387C9.09043 19.5355 9.43984 19.8832 9.93671 19.8832C10.4353 19.8832 10.791 19.5355 10.791 19.0387L10.791 18.0609L12.3439 18.0609L12.3439 19.0387C12.3439 19.5355 12.6934 19.8832 13.1902 19.8832C13.6969 19.8832 14.0445 19.5355 14.0445 19.0387L14.0445 18.0609L17.2137 18.0609C17.7158 18.0609 18.0512 17.7336 18.0512 17.2297L18.0512 14.0445L19.0289 14.0445C19.5258 14.0445 19.8734 13.6871 19.8734 13.1902C19.8734 12.6916 19.5258 12.3439 19.0289 12.3439L18.0512 12.3439L18.0512 10.783L19.0289 10.783C19.5258 10.783 19.8734 10.4336 19.8734 9.93671C19.8734 9.43808 19.5258 9.08242 19.0289 9.08242L18.0512 9.08242L18.0512 7.52949L19.0289 7.52949C19.5258 7.52949 19.8734 7.17207 19.8734 6.67519C19.8734 6.17832 19.5258 5.82891 19.0289 5.82891L18.0512 5.82891L18.0512 2.67129C18.0512 2.16738 17.7158 1.83203 17.2137 1.83203L14.0445 1.83203L14.0445 0.86406C14.0445 0.365428 13.6969 0.00976562 13.1902 0.00976562C12.6934 0.00976562 12.3439 0.365428 12.3439 0.86406L12.3439 1.83203L10.791 1.83203L10.791 0.86406C10.791 0.365428 10.4353 0.00976562 9.93671 0.00976562C9.43984 0.00976562 9.09043 0.365428 9.09043 0.86406L9.09043 1.83203L7.52949 1.83203L7.52949 0.86406C7.52949 0.365428 7.18183 0.00976562 6.6832 0.00976562C6.18633 0.00976562 5.83066 0.365428 5.83066 0.86406L5.83066 1.83203L2.66152 1.83203C2.15761 1.83203 1.82226 2.16738 1.82226 2.67129L1.82226 5.83691L0.846286 5.83691C0.347655 5.83691 0 6.18633 0 6.6832C0 7.18183 0.347655 7.53749 0.846286 7.53749L1.82226 7.53749L1.82226 9.09043L0.846286 9.09043C0.347655 9.09043 0 9.44785 0 9.94472C0 10.4416 0.347655 10.791 0.846286 10.791L1.82226 10.791L1.82226 12.352L0.846286 12.352C0.347655 12.352 0 12.6996 0 13.1982ZM3.7162 15.8697L3.7162 4.03123C3.7162 3.81639 3.80663 3.7242 4.01346 3.7242L15.86 3.7242C16.0668 3.7242 16.159 3.81639 16.159 4.03123L16.159 15.8697C16.159 16.0846 16.0668 16.1688 15.86 16.1688L4.01346 16.1688C3.80663 16.1688 3.7162 16.0846 3.7162 15.8697ZM6.42265 14.1984L13.4703 14.1984C13.9543 14.1984 14.1939 13.9588 14.1939 13.4588L14.1939 6.43066C14.1939 5.93866 13.9543 5.69901 13.4703 5.69901L6.42265 5.69901C5.9369 5.69901 5.69101 5.93866 5.69101 6.43066L5.69101 13.4588C5.69101 13.9588 5.9369 14.1984 6.42265 14.1984ZM7.11971 12.5459L7.11971 7.34979C7.11971 7.21209 7.21209 7.12772 7.34178 7.12772L12.5432 7.12772C12.6809 7.12772 12.7652 7.21209 12.7652 7.34979L12.7652 12.5459C12.7652 12.6774 12.6809 12.7697 12.5432 12.7697L7.34178 12.7697C7.21209 12.7697 7.11971 12.6774 7.11971 12.5459Z" fill="white" fill-opacity="0.85"/>
 </g>
</svg>
