<?xml version="1.0" encoding="UTF-8"?>
<!--Generator: Apple Native CoreSVG 341-->
<!DOCTYPE svg
PUBLIC "-//W3C//DTD SVG 1.1//EN"
       "http://www.w3.org/Graphics/SVG/1.1/DTD/svg11.dtd">
<svg version="1.1" xmlns="http://www.w3.org/2000/svg" xmlns:xlink="http://www.w3.org/1999/xlink" viewBox="0 0 20.5381 20.1848">
 <g>
  <rect height="20.1848" opacity="0" width="20.5381" x="0" y="0"/>
  <path d="M4.29414 16.9002L17.1291 4.05547L16.131 3.05566L3.28457 15.8941ZM3.04238 12.8283L1.73301 14.1394C1.49883 14.3719 1.49883 14.7303 1.73301 14.9644C1.96367 15.2031 2.32207 15.2031 2.5625 14.9644L3.86562 13.6596C4.10605 13.4271 4.09453 13.0607 3.86562 12.8283C3.63496 12.5977 3.2748 12.5977 3.04238 12.8283ZM5.80488 10.0578L4.50351 11.3689C4.26934 11.6014 4.26934 11.9598 4.50351 12.2002C4.73418 12.4246 5.09433 12.4246 5.333 12.2002L6.63613 10.8891C6.87031 10.6549 6.86054 10.2885 6.63613 10.0578C6.40547 9.82363 6.04707 9.82363 5.80488 10.0578ZM8.5789 7.28554L7.26601 8.59843C7.03359 8.8291 7.03359 9.1955 7.26601 9.42968C7.50644 9.66035 7.86484 9.66035 8.0955 9.42968L9.40839 8.11855C9.64081 7.88437 9.64081 7.51797 9.40839 7.28554C9.17597 7.05312 8.80957 7.05312 8.5789 7.28554ZM11.3494 4.51504L10.0383 5.82617C9.8041 6.05859 9.8041 6.425 10.0383 6.65918C10.2689 6.88007 10.6353 6.88984 10.8695 6.65918L12.1789 5.34629C12.4131 5.11386 12.4131 4.7457 12.1789 4.51504C11.9482 4.28262 11.5801 4.28262 11.3494 4.51504ZM14.1199 1.75254L12.8088 3.05566C12.5764 3.28633 12.5764 3.65449 12.8088 3.88515C13.0394 4.10957 13.4076 4.11933 13.64 3.88515L14.9529 2.57578C15.1836 2.3416 15.1836 1.9832 14.9529 1.75254C14.7187 1.51035 14.3523 1.51035 14.1199 1.75254ZM6.53672 16.2881L5.23183 17.5912C4.99316 17.8334 4.99316 18.1918 5.23183 18.4225C5.458 18.6566 5.82441 18.6566 6.05683 18.4225L7.36796 17.1113C7.59863 16.8807 7.59863 16.5205 7.36796 16.2881C7.13554 16.0574 6.76738 16.0476 6.53672 16.2881ZM9.30722 13.5078L7.99609 14.8207C7.76367 15.0531 7.76367 15.4213 7.99609 15.6519C8.23652 15.8826 8.59667 15.8826 8.82734 15.6519L10.1385 14.3408C10.3709 14.1084 10.3709 13.75 10.1385 13.5078C9.90605 13.2949 9.5414 13.2852 9.30722 13.5078ZM12.0795 10.7453L10.7666 12.0484C10.5359 12.2906 10.5359 12.6473 10.7666 12.8814C11.0008 13.1201 11.3672 13.1201 11.5978 12.8814L12.9107 11.5766C13.1414 11.3379 13.1414 10.9795 12.9107 10.7453C12.6766 10.5146 12.3119 10.5146 12.0795 10.7453ZM14.85 7.9748L13.5389 9.28593C13.3064 9.52011 13.3162 9.87675 13.5389 10.1172C13.7713 10.3496 14.1377 10.3496 14.3701 10.1172L15.6732 8.80605C15.9154 8.57363 15.9154 8.20722 15.6732 7.9748C15.4426 7.74238 15.0824 7.74238 14.85 7.9748ZM17.6205 5.20254L16.3094 6.51543C16.0787 6.74609 16.0885 7.11249 16.3094 7.34667C16.5418 7.57734 16.91 7.57734 17.1326 7.34667L18.4437 6.03554C18.6779 5.80312 18.6779 5.43671 18.4437 5.20254C18.2131 4.97187 17.8547 4.97187 17.6205 5.20254ZM10.0875 0C4.51914 0 0 4.51914 0 10.0875C0 15.6559 4.51914 20.175 10.0875 20.175C15.6576 20.175 20.1767 15.6559 20.1767 10.0875C20.1767 4.51914 15.6576 0 10.0875 0ZM10.0875 1.56366C14.7934 1.56366 18.6113 5.38339 18.6113 10.0875C18.6113 14.7916 14.7934 18.6113 10.0875 18.6113C5.38339 18.6113 1.56542 14.7916 1.56542 10.0875C1.56542 5.38339 5.38339 1.56366 10.0875 1.56366Z" fill="white" fill-opacity="0.85"/>
 </g>
</svg>
