<?xml version="1.0" encoding="UTF-8"?>
<!--Generator: Apple Native CoreSVG 341-->
<!DOCTYPE svg
PUBLIC "-//W3C//DTD SVG 1.1//EN"
       "http://www.w3.org/Graphics/SVG/1.1/DTD/svg11.dtd">
<svg version="1.1" xmlns="http://www.w3.org/2000/svg" xmlns:xlink="http://www.w3.org/1999/xlink" viewBox="0 0 20.5381 20.1848">
 <g>
  <rect height="20.1848" opacity="0" width="20.5381" x="0" y="0"/>
  <path d="M10.0875 20.175C15.6576 20.175 20.1767 15.6559 20.1767 10.0875C20.1767 4.51914 15.6576 0 10.0875 0C4.51914 0 0 4.51914 0 10.0875C0 15.6559 4.51914 20.175 10.0875 20.175ZM10.0875 18.1879C5.60839 18.1879 1.9871 14.5666 1.9871 10.0875C1.9871 5.60839 5.60839 1.9871 10.0875 1.9871C14.5666 1.9871 18.1897 5.60839 18.1897 10.0875C18.1897 14.5666 14.5666 18.1879 10.0875 18.1879Z" fill="white" fill-opacity="0.85"/>
  <path d="M12.9203 5.82753L11.94 6.78203C11.8113 6.91874 11.617 6.91874 11.4803 6.78203C11.3498 6.65156 11.3578 6.45898 11.4803 6.3205L12.323 5.47949C11.64 5.14277 10.8727 4.94374 10.0795 4.94374C7.26835 4.94374 4.93398 7.28613 4.93398 10.0973C4.93398 10.8904 5.12499 11.648 5.46171 12.3248L6.3205 11.4883C6.45097 11.3578 6.64355 11.3578 6.78203 11.4883C6.91074 11.6187 6.9205 11.8176 6.78203 11.9561L5.81327 12.9283C5.92245 13.1094 6.04316 13.2727 6.19316 13.4262L13.4262 6.20741C13.2646 6.06718 13.0951 5.93847 12.9203 5.82753ZM11.1728 7.55722L10.4723 8.25156C10.3436 8.38203 10.1475 8.38027 10.0187 8.25156C9.88027 8.1291 9.88027 7.92851 10.0187 7.79003L10.7113 7.09746C10.8418 6.96699 11.0424 6.96699 11.1728 7.09746C11.3033 7.22617 11.3016 7.42675 11.1728 7.55722ZM9.71132 9.01875L9.01074 9.72734C8.88828 9.8498 8.67519 9.8498 8.55097 9.72734C8.4205 9.58886 8.4205 9.38828 8.55097 9.25605L9.24355 8.56523C9.37226 8.42851 9.58086 8.42851 9.71132 8.56523C9.83378 8.68769 9.83378 8.89628 9.71132 9.01875ZM8.24179 10.4803L7.55273 11.1809C7.43203 11.3193 7.21816 11.3096 7.08945 11.1809C6.95898 11.0584 6.95898 10.8498 7.08945 10.7193L7.78203 10.0268C7.9205 9.88828 8.11308 9.88828 8.24179 10.0268C8.37226 10.1572 8.36425 10.3498 8.24179 10.4803ZM14.699 7.85995L13.866 8.68495C13.7275 8.81542 13.535 8.81542 13.4045 8.68495C13.2678 8.54472 13.2678 8.34589 13.4045 8.21718L14.3555 7.26269C14.2365 7.0914 14.1158 6.92011 13.9693 6.75859L6.75234 13.9871C6.89784 14.1256 7.06737 14.2463 7.23866 14.3652L8.23847 13.3832C8.36894 13.2527 8.56952 13.2545 8.69823 13.3832C8.8287 13.5217 8.8287 13.7143 8.69823 13.8447L7.84394 14.7168C8.53046 15.0553 9.28632 15.2525 10.0795 15.2525C12.8906 15.2525 15.2348 12.9084 15.2348 10.0973C15.2348 9.30409 15.0375 8.53671 14.699 7.85995ZM13.0891 9.4539L12.3965 10.1465C12.258 10.285 12.0654 10.285 11.9367 10.1465C11.8062 10.0143 11.8143 9.82343 11.9367 9.6912L12.6258 8.98437C12.7482 8.8539 12.9586 8.86191 13.0891 8.98437C13.2195 9.11484 13.2195 9.32343 13.0891 9.4539ZM11.6178 10.9137L10.9269 11.6143C10.7965 11.7447 10.5976 11.7447 10.4592 11.6143C10.3367 11.49 10.3367 11.2769 10.4592 11.1545L11.166 10.4539C11.2902 10.3314 11.4953 10.3314 11.6178 10.4539C11.758 10.5844 11.758 10.7912 11.6178 10.9137ZM10.1598 12.3832L9.46718 13.0758C9.33671 13.2062 9.12812 13.2062 9.01366 13.0758C8.87519 12.9471 8.87519 12.7447 9.01366 12.6125L9.70449 11.9217C9.83671 11.7912 10.0275 11.793 10.1598 11.9217C10.2902 12.0441 10.2902 12.2447 10.1598 12.3832Z" fill="white" fill-opacity="0.85"/>
 </g>
</svg>
