<?xml version="1.0" encoding="UTF-8"?>
<!--Generator: Apple Native CoreSVG 341-->
<!DOCTYPE svg
PUBLIC "-//W3C//DTD SVG 1.1//EN"
       "http://www.w3.org/Graphics/SVG/1.1/DTD/svg11.dtd">
<svg version="1.1" xmlns="http://www.w3.org/2000/svg" xmlns:xlink="http://www.w3.org/1999/xlink" viewBox="0 0 20.5381 20.1848">
 <g>
  <rect height="20.1848" opacity="0" width="20.5381" x="0" y="0"/>
  <path d="M20.1767 10.0973C20.1767 15.6656 15.6576 20.1848 10.0875 20.1848C4.52715 20.1848 0 15.6656 0 10.0973C0 4.53691 4.52715 0.00976562 10.0875 0.00976562C15.6576 0.00976562 20.1767 4.53691 20.1767 10.0973ZM9.09941 4.5291C8.42617 4.5291 7.96757 4.98417 7.96757 5.67519L7.96757 7.97109L5.64589 7.97109C4.97441 7.97109 4.51582 8.43769 4.51582 9.10917L4.51582 11.0676C4.51582 11.7426 4.98242 12.1994 5.64941 12.1994L7.96757 12.1994L7.96757 14.5131C7.96757 15.2023 8.42617 15.6512 9.09941 15.6512L11.0578 15.6512C11.7408 15.6512 12.1896 15.2023 12.1896 14.5131L12.1896 12.1994L14.5113 12.1994C15.1908 12.1994 15.6494 11.7426 15.6494 11.0676L15.6494 9.10917C15.6494 8.43769 15.1908 7.97109 14.5113 7.97109L12.1896 7.97109L12.1896 5.67519C12.1896 4.98417 11.7408 4.5291 11.0578 4.5291Z" fill="white" fill-opacity="0.85"/>
 </g>
</svg>
