<?xml version="1.0" encoding="UTF-8"?>
<!--Generator: Apple Native CoreSVG 341-->
<!DOCTYPE svg
PUBLIC "-//W3C//DTD SVG 1.1//EN"
       "http://www.w3.org/Graphics/SVG/1.1/DTD/svg11.dtd">
<svg version="1.1" xmlns="http://www.w3.org/2000/svg" xmlns:xlink="http://www.w3.org/1999/xlink" viewBox="0 0 23.4469 19.4312">
 <g>
  <rect height="19.4312" opacity="0" width="23.4469" x="0" y="0"/>
  <path d="M16.6525 2.72695L16.6525 3.6162L19.9308 3.6162C22.0209 3.6162 23.0855 4.66483 23.0855 6.73886L23.0855 16.2988C23.0855 18.3728 22.0209 19.4215 19.9308 19.4215L3.15644 19.4215C1.07265 19.4215 0 18.3728 0 16.2988L0 6.73886C0 4.66483 1.07265 3.6162 3.15644 3.6162L6.42675 3.6162L6.42675 2.72695C6.42675 0.880468 7.50175 0 9.25781 0L13.8162 0C15.6541 0 16.6525 0.880468 16.6525 2.72695ZM10.7338 6.85018C10.1582 6.85018 9.77773 7.22889 9.77773 7.81249L9.77773 9.73514L7.83729 9.73514C7.26523 9.73514 6.883 10.1254 6.883 10.6894L6.883 12.3287C6.883 12.8945 7.27323 13.2848 7.83905 13.2848L9.77773 13.2848L9.77773 15.2154C9.77773 15.791 10.1582 16.1697 10.7338 16.1697L12.3633 16.1697C12.9308 16.1697 13.3193 15.791 13.3193 15.2154L13.3193 13.2848L15.25 13.2848C15.8238 13.2848 16.2123 12.8945 16.2123 12.3287L16.2123 10.6894C16.2123 10.1254 15.8238 9.73514 15.25 9.73514L13.3193 9.73514L13.3193 7.81249C13.3193 7.22889 12.9308 6.85018 12.3633 6.85018ZM9.32089 1.63319C8.60311 1.63319 8.1953 2.02499 8.1953 2.72675L8.1953 3.6162L14.8822 3.6162L14.8822 2.72675C14.8822 2.02675 14.4824 1.63319 13.7646 1.63319Z" fill="white" fill-opacity="0.85"/>
 </g>
</svg>
