<?xml version="1.0" encoding="UTF-8"?>
<!--Generator: Apple Native CoreSVG 341-->
<!DOCTYPE svg
PUBLIC "-//W3C//DTD SVG 1.1//EN"
       "http://www.w3.org/Graphics/SVG/1.1/DTD/svg11.dtd">
<svg version="1.1" xmlns="http://www.w3.org/2000/svg" xmlns:xlink="http://www.w3.org/1999/xlink" viewBox="0 0 20.5381 20.1848">
 <g>
  <rect height="20.1848" opacity="0" width="20.5381" x="0" y="0"/>
  <path d="M10.0875 20.175C15.6576 20.175 20.1767 15.6559 20.1767 10.0875C20.1767 4.51914 15.6576 0 10.0875 0C4.51914 0 0 4.51914 0 10.0875C0 15.6559 4.51914 20.175 10.0875 20.175ZM10.0875 18.1879C5.60839 18.1879 1.9871 14.5666 1.9871 10.0875C1.9871 5.60839 5.60839 1.9871 10.0875 1.9871C14.5666 1.9871 18.1897 5.60839 18.1897 10.0875C18.1897 14.5666 14.5666 18.1879 10.0875 18.1879Z" fill="white" fill-opacity="0.85"/>
  <path d="M4.72577 11.0268C4.72577 11.6717 5.16757 12.1055 5.80448 12.1055L8.04374 12.1055L8.04374 14.3385C8.04374 14.9994 8.47753 15.4234 9.12245 15.4234L11.0187 15.4234C11.6734 15.4234 12.0975 14.9994 12.0975 14.3385L12.0975 12.1055L14.3385 12.1055C14.9914 12.1055 15.4234 11.6717 15.4234 11.0268L15.4234 9.12245C15.4234 8.48554 14.9914 8.0455 14.3385 8.0455L12.0975 8.0455L12.0975 5.8205C12.0975 5.16581 11.6734 4.73554 11.0187 4.73554L9.12245 4.73554C8.47753 4.73554 8.04374 5.16581 8.04374 5.8205L8.04374 8.0455L5.80272 8.0455C5.15956 8.0455 4.72577 8.48554 4.72577 9.12245Z" fill="white" fill-opacity="0.85"/>
 </g>
</svg>
