<?xml version="1.0" encoding="UTF-8"?>
<!--Generator: Apple Native CoreSVG 341-->
<!DOCTYPE svg
PUBLIC "-//W3C//DTD SVG 1.1//EN"
       "http://www.w3.org/Graphics/SVG/1.1/DTD/svg11.dtd">
<svg version="1.1" xmlns="http://www.w3.org/2000/svg" xmlns:xlink="http://www.w3.org/1999/xlink" viewBox="0 0 21.3187 20.9707">
 <g>
  <rect height="20.9707" opacity="0" width="21.3187" x="0" y="0"/>
  <path d="M0 12.3939C0 13.6787 0.878707 14.5396 2.17147 14.5396L6.40976 14.5396L6.40976 18.7859C6.40976 20.0804 7.26894 20.9476 8.5537 20.9476L12.4037 20.9476C13.6885 20.9476 14.5494 20.0804 14.5494 18.7859L14.5494 14.5396L18.7957 14.5396C20.0902 14.5396 20.9574 13.6787 20.9574 12.3939L20.9574 8.54393C20.9574 7.25917 20.0902 6.39824 18.7957 6.39824L14.5494 6.39824L14.5494 2.16171C14.5494 0.868941 13.6885 0 12.4037 0L8.5537 0C7.26894 0 6.40976 0.868941 6.40976 2.16171L6.40976 6.39824L2.16171 6.39824C0.868941 6.39824 0 7.25917 0 8.54393Z" fill="white" fill-opacity="0.85"/>
 </g>
</svg>
