<?xml version="1.0" encoding="UTF-8"?>
<!--Generator: Apple Native CoreSVG 341-->
<!DOCTYPE svg
PUBLIC "-//W3C//DTD SVG 1.1//EN"
       "http://www.w3.org/Graphics/SVG/1.1/DTD/svg11.dtd">
<svg version="1.1" xmlns="http://www.w3.org/2000/svg" xmlns:xlink="http://www.w3.org/1999/xlink" viewBox="0 0 20.5381 20.1848">
 <g>
  <rect height="20.1848" opacity="0" width="20.5381" x="0" y="0"/>
  <path d="M10.0875 20.175C15.6576 20.175 20.1767 15.6559 20.1767 10.0875C20.1767 4.51914 15.6576 0 10.0875 0C4.51914 0 0 4.51914 0 10.0875C0 15.6559 4.51914 20.175 10.0875 20.175ZM10.0875 18.1879C5.60839 18.1879 1.9871 14.5666 1.9871 10.0875C1.9871 5.60839 5.60839 1.9871 10.0875 1.9871C14.5666 1.9871 18.1897 5.60839 18.1897 10.0875C18.1897 14.5666 14.5666 18.1879 10.0875 18.1879Z" fill="white" fill-opacity="0.85"/>
  <path d="M10.1326 14.4391C11.5906 14.4391 12.9453 13.7516 13.3891 12.4924C13.4557 12.3477 13.476 12.2031 13.476 12.0531C13.476 11.6932 13.2252 11.4848 12.867 11.4848C12.5344 11.4848 12.3518 11.6648 12.2313 11.9727C11.9125 12.91 11.0682 13.3543 10.1459 13.3543C8.4244 13.3543 7.69549 11.7807 7.69549 10.1115C7.69549 8.43515 8.46952 6.9535 10.167 6.9535C11.1098 6.9535 11.9025 7.4744 12.1885 8.30878C12.3187 8.62987 12.4846 8.78964 12.8082 8.78964C13.1416 8.78964 13.4111 8.56523 13.4111 8.21679C13.4111 8.083 13.3775 7.89765 13.3049 7.7291C12.8045 6.49218 11.5252 5.7955 10.1185 5.7955C7.72753 5.7955 6.28691 7.57168 6.28691 10.1133C6.28691 12.5492 7.5998 14.4391 10.1326 14.4391ZM9.6289 13.7809L10.2824 13.7809L10.2824 11.9984C10.2824 11.1596 10.8506 10.5758 11.6613 10.5336C11.8334 10.4949 12.0045 10.5059 12.1283 10.5059C12.3271 10.5059 12.4533 10.4391 12.4797 10.2434C12.5078 10.1375 12.4781 10.0256 12.3723 9.92109C12.2744 9.81386 12.0471 9.77226 11.866 9.76523C11.1053 9.74765 10.4945 10.1936 10.2939 10.8379L10.2691 10.8379L10.2691 10.1098C10.2691 9.91621 10.1394 9.77499 9.95566 9.77499C9.75409 9.77499 9.6289 9.91621 9.6289 10.1098Z" fill="white" fill-opacity="0.85"/>
 </g>
</svg>
