<?xml version="1.0" encoding="UTF-8"?>
<!--Generator: Apple Native CoreSVG 341-->
<!DOCTYPE svg
PUBLIC "-//W3C//DTD SVG 1.1//EN"
       "http://www.w3.org/Graphics/SVG/1.1/DTD/svg11.dtd">
<svg version="1.1" xmlns="http://www.w3.org/2000/svg" xmlns:xlink="http://www.w3.org/1999/xlink" viewBox="0 0 22.2675 21.9204">
 <g>
  <rect height="21.9204" opacity="0" width="22.2675" x="0" y="0"/>
  <path d="M8.09789 4.29242C8.72582 4.01703 9.39105 3.84027 10.0936 3.75238C10.3162 3.72757 10.475 3.55902 10.475 3.33461L10.475 0.440662C10.475 0.171913 10.2702-0.0232035 10.0014 0.00785115C8.69437 0.118789 7.44593 0.471328 6.29964 1.00941C6.06019 1.12562 5.9848 1.40238 6.11605 1.62855L7.55414 4.1141C7.66234 4.3057 7.885 4.37933 8.09789 4.29242Z" fill="white" fill-opacity="0.85"/>
  <path d="M5.14691 6.60355C5.56078 6.05375 6.0475 5.56703 6.60707 5.15316C6.7889 5.0139 6.83324 4.78148 6.72504 4.58988L5.28695 2.10609C5.1557 1.8764 4.87543 1.81078 4.65102 1.96508C3.6059 2.70824 2.70199 3.61215 1.96683 4.66527C1.8143 4.89144 1.87015 5.16195 2.10785 5.30121L4.59965 6.72328C4.79125 6.83949 5.00765 6.7934 5.14691 6.60355Z" fill="white" fill-opacity="0.85"/>
  <path d="M3.74789 10.0883C3.83402 9.3973 4.01253 8.72406 4.28168 8.1139C4.37484 7.89925 4.30921 7.6766 4.10785 7.56039L1.61605 6.13031C1.38012 5.99105 1.11137 6.07445 1.00316 6.3139C0.465078 7.45843 0.120546 8.69262 0.00160101 10.0077C-0.0116801 10.2764 0.173671 10.4733 0.44242 10.4733L3.33812 10.4733C3.56254 10.4733 3.73285 10.3225 3.74789 10.0883Z" fill="white" fill-opacity="0.85"/>
  <path d="M4.27992 13.8127C4.02054 13.1946 3.84203 12.5231 3.75589 11.8205C3.73285 11.5881 3.56254 11.4373 3.33812 11.4373L0.44242 11.4373C0.173671 11.4373-0.019688 11.6325 0.00160101 11.903C0.112538 13.226 0.465078 14.4664 1.01117 15.6127C1.11937 15.8602 1.38012 15.9436 1.62406 15.8043L4.10785 14.3582C4.30921 14.242 4.37308 14.0194 4.27992 13.8127Z" fill="white" fill-opacity="0.85"/>
  <path d="M6.60707 16.7655C6.05726 16.3596 5.56078 15.8729 5.15492 15.3133C5.01566 15.1332 4.79125 15.0791 4.59164 15.1953L2.10785 16.6174C1.87015 16.7567 1.8143 17.0334 1.95883 17.2614C2.70199 18.3065 3.61391 19.2121 4.65902 19.9536C4.88519 20.1078 5.16371 20.0387 5.29496 19.8125L6.72504 17.3207C6.83324 17.1291 6.7889 16.9047 6.60707 16.7655Z" fill="white" fill-opacity="0.85"/>
  <path d="M10.0936 18.1662C9.39906 18.0784 8.72582 17.8998 8.10589 17.6405C7.90101 17.5393 7.67035 17.6129 7.56215 17.8045L6.12406 20.2883C5.99281 20.5243 6.06996 20.801 6.31566 20.9092C7.45394 21.4473 8.69437 21.7998 10.0014 21.9188C10.2702 21.9321 10.475 21.7467 10.475 21.478L10.475 18.584C10.475 18.3596 10.3162 18.1911 10.0936 18.1662Z" fill="white" fill-opacity="0.85"/>
  <path d="M13.8118 17.6325C13.1981 17.8998 12.5248 18.0784 11.8143 18.1662C11.5899 18.1911 11.4311 18.3596 11.4311 18.584L11.4311 21.478C11.4311 21.7467 11.636 21.9401 11.9047 21.9188C13.2118 21.8078 14.47 21.4473 15.6082 20.9092C15.8477 20.801 15.9231 20.5225 15.7918 20.2866L14.3537 17.8045C14.2455 17.6129 14.0229 17.5393 13.8118 17.6325Z" fill="white" fill-opacity="0.85"/>
  <path d="M16.769 15.3133C16.3551 15.8649 15.8621 16.3436 15.3106 16.7655C15.1287 16.9047 15.0746 17.1371 15.1846 17.3207L16.6227 19.8045C16.7522 20.0342 17.0325 20.1078 17.2569 19.9536C18.31 19.2104 19.2077 18.2985 19.9491 17.2596C20.1016 17.0334 20.028 16.7567 19.8018 16.6174L17.3162 15.1873C17.1327 15.0711 16.9082 15.1332 16.769 15.3133Z" fill="white" fill-opacity="0.85"/>
  <path d="M18.168 11.8205C18.0819 12.5231 17.9051 13.1946 17.628 13.8145C17.5411 14.0194 17.6067 14.234 17.8063 14.3502L20.2918 15.7803C20.526 15.9196 20.7983 15.8522 20.9145 15.595C21.441 14.4584 21.7936 13.218 21.9045 11.903C21.9178 11.6325 21.7307 11.4373 21.4637 11.4373L18.5778 11.4373C18.3534 11.4373 18.1848 11.5881 18.168 11.8205Z" fill="white" fill-opacity="0.85"/>
  <path d="M17.628 8.10414C17.8891 8.72406 18.0819 9.39554 18.16 10.0883C18.1848 10.3225 18.3534 10.4733 18.5778 10.4733L21.4637 10.4733C21.7307 10.4733 21.9258 10.2764 21.9045 10.0077C21.7953 8.70238 21.441 7.45394 20.9145 6.31566C20.7983 6.06644 20.518 5.99105 20.2918 6.13031L17.7983 7.5684C17.6067 7.68461 17.5411 7.89925 17.628 8.10414Z" fill="white" fill-opacity="0.85"/>
  <path d="M15.3106 5.15316C15.8586 5.56703 16.3471 6.04574 16.769 6.60355C16.9082 6.78539 17.1327 6.8475 17.3162 6.73129L19.8018 5.30121C20.036 5.16195 20.1016 4.89144 19.9588 4.66703C19.2157 3.61215 18.302 2.69672 17.2569 1.96508C17.0325 1.81078 16.7522 1.87816 16.6227 2.1141L15.1926 4.58988C15.0746 4.78949 15.1207 5.0139 15.3106 5.15316Z" fill="white" fill-opacity="0.85"/>
  <path d="M11.8125 3.75238C12.5248 3.83226 13.1821 4.01703 13.8118 4.29242C14.0229 4.37933 14.2455 4.3057 14.3537 4.1141L15.7918 1.62855C15.9231 1.40238 15.8397 1.12562 15.5922 1.00941C14.4557 0.471328 13.2215 0.118789 11.9047 0.00785115C11.636-0.0151956 11.4311 0.179921 11.4311 0.44867L11.4311 3.33461C11.4311 3.55902 11.5899 3.72757 11.8125 3.75238Z" fill="white" fill-opacity="0.85"/>
  <path d="M11.0022 15.3069C12.4584 15.3069 13.8149 14.6194 14.2586 13.3602C14.3252 13.2155 14.3455 13.0709 14.3455 12.9209C14.3455 12.561 14.0948 12.3526 13.7366 12.3526C13.4039 12.3526 13.2213 12.5327 13.1008 12.8405C12.7821 13.7778 11.9297 14.2221 11.0155 14.2221C9.29398 14.2221 8.56507 12.6485 8.56507 10.9793C8.56507 9.30296 9.33909 7.82132 11.0366 7.82132C11.9776 7.82132 12.7721 8.34222 13.058 9.1766C13.1883 9.49769 13.3461 9.65745 13.6778 9.65745C14.0112 9.65745 14.2789 9.43304 14.2789 9.08461C14.2789 8.95082 14.2471 8.76547 14.1745 8.59691C13.6741 7.36 12.393 6.66332 10.9881 6.66332C8.59711 6.66332 7.15648 8.43949 7.15648 10.9811C7.15648 13.417 8.46937 15.3069 11.0022 15.3069ZM10.4985 14.6487L11.152 14.6487L11.152 12.8662C11.152 12.0274 11.7202 11.4436 12.5309 11.4014C12.703 11.3627 12.8661 11.3737 12.9979 11.3737C13.1967 11.3737 13.3229 11.3069 13.3493 11.1112C13.3774 11.0053 13.3477 10.8934 13.2418 10.7889C13.136 10.6817 12.9166 10.6401 12.7276 10.633C11.9748 10.6155 11.3641 11.0614 11.1635 11.7057L11.1387 11.7057L11.1387 10.9776C11.1387 10.784 11.009 10.6428 10.8235 10.6428C10.6237 10.6428 10.4985 10.784 10.4985 10.9776Z" fill="white" fill-opacity="0.85"/>
 </g>
</svg>
