<?xml version="1.0" encoding="UTF-8"?>
<!--Generator: Apple Native CoreSVG 341-->
<!DOCTYPE svg
PUBLIC "-//W3C//DTD SVG 1.1//EN"
       "http://www.w3.org/Graphics/SVG/1.1/DTD/svg11.dtd">
<svg version="1.1" xmlns="http://www.w3.org/2000/svg" xmlns:xlink="http://www.w3.org/1999/xlink" viewBox="0 0 22.301 21.9477">
 <g>
  <rect height="21.9477" opacity="0" width="22.301" x="0" y="0"/>
  <path d="M10.9689 21.9379C16.9984 21.9379 21.9396 16.9984 21.9396 10.9689C21.9396 4.93945 16.9984 0 10.9689 0C4.93945 0 0 4.93945 0 10.9689C0 16.9984 4.93945 21.9379 10.9689 21.9379ZM10.9689 18.2242C6.96133 18.2242 3.71367 14.9766 3.71367 10.9689C3.71367 6.95332 6.96133 3.71367 10.9689 3.71367C14.9846 3.71367 18.226 6.95332 18.226 10.9689C18.226 14.9766 14.9846 18.2242 10.9689 18.2242Z" fill="white" fill-opacity="0.85"/>
  <path d="M11.0221 15.3205C12.4801 15.3205 13.8348 14.633 14.2865 13.3738C14.3451 13.2291 14.3654 13.0846 14.3654 12.9346C14.3654 12.5746 14.1146 12.3662 13.7564 12.3662C13.4238 12.3662 13.2412 12.5463 13.1207 12.8541C12.802 13.7914 11.9576 14.2357 11.0371 14.2357C9.31386 14.2357 8.58495 12.6621 8.58495 10.993C8.58495 9.3166 9.35898 7.83495 11.0564 7.83495C11.9992 7.83495 12.8 8.35585 13.0779 9.19023C13.2082 9.51132 13.374 9.67109 13.6977 9.67109C14.0391 9.67109 14.3086 9.44668 14.3086 9.09824C14.3086 8.96445 14.267 8.7791 14.1943 8.61055C13.6939 7.37363 12.4146 6.67695 11.008 6.67695C8.61699 6.67695 7.18437 8.45312 7.18437 10.9947C7.18437 13.4307 8.48926 15.3205 11.0221 15.3205ZM10.5184 14.6623L11.1719 14.6623L11.1719 12.8799C11.1719 12.041 11.7418 11.4572 12.5508 11.415C12.7229 11.3764 12.8939 11.3873 13.0178 11.3873C13.2246 11.3873 13.3428 11.3205 13.3691 11.1248C13.3973 11.0189 13.3676 10.907 13.2617 10.8025C13.1639 10.6953 12.9365 10.6537 12.7555 10.6467C11.9947 10.6291 11.384 11.075 11.1834 11.7193L11.1586 11.7193L11.1586 10.9912C11.1586 10.7977 11.0369 10.6564 10.8451 10.6564C10.6516 10.6564 10.5184 10.7977 10.5184 10.9912Z" fill="white" fill-opacity="0.85"/>
 </g>
</svg>
