<?xml version="1.0" encoding="UTF-8"?>
<!--Generator: Apple Native CoreSVG 341-->
<!DOCTYPE svg
PUBLIC "-//W3C//DTD SVG 1.1//EN"
       "http://www.w3.org/Graphics/SVG/1.1/DTD/svg11.dtd">
<svg version="1.1" xmlns="http://www.w3.org/2000/svg" xmlns:xlink="http://www.w3.org/1999/xlink" viewBox="0 0 24.2049 19.7961">
 <g>
  <rect height="19.7961" opacity="0" width="24.2049" x="0" y="0"/>
  <path d="M23.8435 11.8701C23.8435 5.64747 19.073 0.538875 12.9941 0.00293831C12.6553-0.029874 12.3998 0.215828 12.3998 0.554694L12.3998 3.8043C12.3998 4.08907 12.6012 4.30645 12.8842 4.33301C16.6191 4.80957 19.517 8.00293 19.517 11.8701C19.517 13.6332 18.9115 15.2613 17.8488 16.61C17.6945 16.8023 17.7025 17.0471 17.8719 17.2244L20.2322 19.5785C20.4646 19.8144 20.823 19.8109 21.0359 19.559C22.7926 17.4783 23.8435 14.7949 23.8435 11.8701Z" fill="white" fill-opacity="0.85"/>
  <path d="M0 11.8701C0 14.8029 1.05098 17.4863 2.80586 19.5652C3.01875 19.8172 3.36914 19.8109 3.61132 19.5768L5.96992 17.2227C6.13925 17.0453 6.14726 16.8006 5.99296 16.6082C4.92578 15.2613 4.32656 13.6332 4.32656 11.8701C4.32656 8.00293 7.22617 4.80957 10.9594 4.33301C11.2441 4.30645 11.4437 4.08907 11.4437 3.8043L11.4437 0.554694C11.4437 0.215828 11.1883-0.029874 10.8494 0.00293831C4.77226 0.538875 0 5.64747 0 11.8701Z" fill="white" fill-opacity="0.85"/>
  <path d="M11.9629 16.3047C13.4191 16.3047 14.7756 15.6172 15.2273 14.366C15.2859 14.2213 15.3143 14.0705 15.3143 13.9188C15.3143 13.5606 15.0635 13.3602 14.6973 13.3602C14.3646 13.3602 14.182 13.5402 14.0695 13.8383C13.7508 14.7836 12.8984 15.2199 11.9762 15.2199C10.2547 15.2199 9.52577 13.6543 9.52577 11.9789C9.52577 10.3008 10.2998 8.81914 11.9973 8.81914C12.9383 8.81914 13.7408 9.3418 14.0268 10.1744C14.149 10.4955 14.3148 10.6553 14.6385 10.6553C14.9799 10.6553 15.2476 10.4309 15.2476 10.0904C15.2476 9.95665 15.2078 9.76329 15.1351 9.60274C14.6428 8.36583 13.3537 7.66914 11.9471 7.66914C9.55781 7.66914 8.12519 9.44532 8.12519 11.9807C8.12519 14.4229 9.43007 16.3047 11.9629 16.3047ZM11.4592 15.6563L12.1207 15.6563L12.1207 13.8721C12.1207 13.0252 12.6809 12.4494 13.4979 12.4072C13.6637 12.3686 13.8348 12.3813 13.9586 12.3813C14.1637 12.3813 14.2836 12.3047 14.31 12.117C14.3381 12.0031 14.3084 11.893 14.2025 11.7885C14.1047 11.6875 13.8773 11.6379 13.6963 11.6309C12.9355 11.6133 12.3328 12.0609 12.1322 12.7035L12.0994 12.7035L12.0994 11.9834C12.0994 11.7818 11.9777 11.6406 11.7842 11.6406C11.5924 11.6406 11.4592 11.7818 11.4592 11.9834Z" fill="white" fill-opacity="0.85"/>
 </g>
</svg>
