<?xml version="1.0" encoding="UTF-8"?>
<!--Generator: Apple Native CoreSVG 341-->
<!DOCTYPE svg
PUBLIC "-//W3C//DTD SVG 1.1//EN"
       "http://www.w3.org/Graphics/SVG/1.1/DTD/svg11.dtd">
<svg version="1.1" xmlns="http://www.w3.org/2000/svg" xmlns:xlink="http://www.w3.org/1999/xlink" viewBox="0 0 14.8088 17.4691">
 <g>
  <rect height="17.4691" opacity="0" width="14.8088" x="0" y="0"/>
  <path d="M7.71621 17.4691C10.6498 17.4691 13.3533 16.1041 14.2976 13.4312C14.3943 13.1775 14.4475 12.8768 14.4475 12.6223C14.4475 11.9514 13.9709 11.5613 13.3223 11.5613C12.7088 11.5613 12.3811 11.9027 12.1498 12.4738C11.5293 14.3857 9.83867 15.4326 7.73828 15.4326C4.14608 15.4326 2.57635 12.3111 2.57635 8.70391C2.57635 5.10429 4.26834 2.14647 7.74785 2.14647C9.80605 2.14647 11.4818 3.28163 12.0545 5.08906C12.2768 5.68496 12.5734 5.98124 13.2029 5.98124C13.8685 5.98124 14.324 5.57793 14.324 4.92207C14.324 4.61094 14.2603 4.3293 14.1178 4.02872C13.1607 1.46524 10.5586 0.00175774 7.68632 0.00175774C2.74199 0.00175774 0 3.68125 0 8.70566C0 13.7742 2.70078 17.4691 7.71621 17.4691ZM6.69374 16.3088L8.00507 16.3088L8.00507 12.6055C8.00507 11.6715 8.28652 10.9025 8.86894 10.3129C9.45761 9.72949 10.208 9.42578 11.1201 9.42578C11.5736 9.42578 11.65 9.51367 11.9295 9.51367C12.3646 9.51367 12.6023 9.3041 12.6023 8.87012C12.6023 8.56367 12.4514 8.36035 12.2027 8.22188C11.9143 8.06484 11.4768 8.00625 11.1084 8.00625C9.44648 8.00625 8.36738 9.07656 8.01386 10.241L7.97226 10.241L7.97226 8.73242C7.97226 8.32402 7.71386 8.04609 7.34628 8.04609C6.96366 8.04609 6.69374 8.32402 6.69374 8.73242Z" fill="white" fill-opacity="0.85"/>
 </g>
</svg>
