<?xml version="1.0" encoding="UTF-8"?>
<!--Generator: Apple Native CoreSVG 341-->
<!DOCTYPE svg
PUBLIC "-//W3C//DTD SVG 1.1//EN"
       "http://www.w3.org/Graphics/SVG/1.1/DTD/svg11.dtd">
<svg version="1.1" xmlns="http://www.w3.org/2000/svg" xmlns:xlink="http://www.w3.org/1999/xlink" viewBox="0 0 20.5381 20.1848">
 <g>
  <rect height="20.1848" opacity="0" width="20.5381" x="0" y="0"/>
  <path d="M20.1767 10.0875C20.1767 15.6478 15.6576 20.175 10.0875 20.175C4.52715 20.175 0 15.6478 0 10.0875C0 4.51914 4.52715 0 10.0875 0C15.6576 0 20.1767 4.51914 20.1767 10.0875ZM4.84238 7.93613L4.84238 12.4529C4.84238 12.9117 5.06777 13.3057 5.4662 13.5355L9.45664 15.8424C9.52402 15.8752 9.57539 15.916 9.6375 15.9373L9.6375 10.5607L4.84589 7.82011C4.84414 7.85195 4.84238 7.89804 4.84238 7.93613ZM10.5322 10.5537L10.5322 15.9373C10.5916 15.916 10.6537 15.8832 10.7148 15.8406L14.7053 13.5355C15.1002 13.3074 15.3353 12.9117 15.3353 12.4512L15.3353 7.92636C15.3353 7.89628 15.3318 7.84667 15.3301 7.80859ZM9.45664 4.44081L5.4662 6.75039C5.34277 6.81074 5.24785 6.8871 5.1662 6.98476L10.0822 9.78671L15.0045 6.975C14.9246 6.8871 14.8234 6.81074 14.7018 6.75039L10.7113 4.44081C10.3209 4.2039 9.85507 4.2039 9.45664 4.44081Z" fill="white" fill-opacity="0.85"/>
 </g>
</svg>
