<?xml version="1.0" encoding="UTF-8"?>
<!--Generator: Apple Native CoreSVG 341-->
<!DOCTYPE svg
PUBLIC "-//W3C//DTD SVG 1.1//EN"
       "http://www.w3.org/Graphics/SVG/1.1/DTD/svg11.dtd">
<svg version="1.1" xmlns="http://www.w3.org/2000/svg" xmlns:xlink="http://www.w3.org/1999/xlink" viewBox="0 0 18.5894 18.2316">
 <g>
  <rect height="18.2316" opacity="0" width="18.5894" x="0" y="0"/>
  <path d="M3.20351 18.2281L15.0246 18.2281C17.1404 18.2281 18.2281 17.1502 18.2281 15.0646L18.2281 3.17148C18.2281 1.08769 17.1404 0 15.0246 0L3.20351 0C1.0957 0 0 1.08769 0 3.17148L0 15.0646C0 17.1502 1.0957 18.2281 3.20351 18.2281ZM3.31444 16.3148C2.40643 16.3148 1.91327 15.8465 1.91327 14.8977L1.91327 3.34023C1.91327 2.39139 2.40643 1.91503 3.31444 1.91503L14.9137 1.91503C15.8137 1.91503 16.3148 2.39139 16.3148 3.34023L16.3148 14.8977C16.3148 15.8465 15.8137 16.3148 14.9137 16.3148Z" fill="white" fill-opacity="0.85"/>
  <path d="M7.19062 14.3762C7.80995 14.3762 8.16737 14.0816 8.16737 13.6408C8.16737 13.215 7.87011 12.9365 7.45312 12.9365C6.83476 12.9365 6.60292 12.6604 6.60292 11.9254L6.60292 10.6701C6.60292 9.78867 6.03417 9.13984 5.08925 8.95625L5.08925 9.27011C6.03417 9.12265 6.60292 8.47558 6.60292 7.57128L6.60292 6.32577C6.60292 5.59081 6.83476 5.30663 7.45312 5.30663C7.87011 5.30663 8.16737 5.03788 8.16737 4.6121C8.16737 4.17128 7.81347 3.86874 7.19062 3.86874C5.84589 3.86874 5.05234 4.66659 5.05234 6.19081L5.05234 7.34648C5.05234 7.98105 4.89863 8.13125 4.45683 8.24238C3.575 8.4748 3.583 9.76835 4.45683 10.0008C4.89863 10.1217 5.05234 10.2754 5.05234 10.91L5.05234 12.0604C5.05234 13.5846 5.84589 14.3762 7.19062 14.3762ZM11.0281 14.3762C12.3648 14.3762 13.1664 13.5846 13.1664 12.0604L13.1664 10.91C13.1664 10.2754 13.3201 10.1217 13.7539 10.0008C14.6393 9.78339 14.6393 8.45976 13.7539 8.24238C13.3201 8.13125 13.1664 7.98105 13.1664 7.34648L13.1664 6.19081C13.1664 4.66659 12.3648 3.86874 11.0281 3.86874C10.4053 3.86874 10.0434 4.17128 10.0434 4.6121C10.0434 5.03788 10.3486 5.30663 10.7656 5.30663C11.376 5.30663 11.6158 5.59081 11.6158 6.32577L11.6158 7.57128C11.6158 8.47558 12.1846 9.12265 13.1215 9.27011L13.1215 8.95625C12.1846 9.13984 11.6158 9.78867 11.6158 10.6701L11.6158 11.9254C11.6158 12.6604 11.376 12.9365 10.7656 12.9365C10.3486 12.9365 10.0434 13.215 10.0434 13.6408C10.0434 14.0816 10.4088 14.3762 11.0281 14.3762Z" fill="white" fill-opacity="0.85"/>
 </g>
</svg>
