<?xml version="1.0" encoding="UTF-8"?>
<!--Generator: Apple Native CoreSVG 341-->
<!DOCTYPE svg
PUBLIC "-//W3C//DTD SVG 1.1//EN"
       "http://www.w3.org/Graphics/SVG/1.1/DTD/svg11.dtd">
<svg version="1.1" xmlns="http://www.w3.org/2000/svg" xmlns:xlink="http://www.w3.org/1999/xlink" viewBox="0 0 18.5894 18.2316">
 <g>
  <rect height="18.2316" opacity="0" width="18.5894" x="0" y="0"/>
  <path d="M18.2281 3.17148L18.2281 15.0646C18.2281 17.1502 17.1404 18.2281 15.0246 18.2281L3.20351 18.2281C1.0957 18.2281 0 17.1502 0 15.0646L0 3.17148C0 1.08769 1.0957 0 3.20351 0L15.0246 0C17.1404 0 18.2281 1.08769 18.2281 3.17148ZM4.90957 6.08534L4.90957 7.27734C4.90957 7.93144 4.74433 8.08965 4.30078 8.20254C3.38086 8.44472 3.38086 9.79667 4.30078 10.0424C4.74433 10.1615 4.90957 10.3268 4.90957 10.9791L4.90957 12.1676C4.90957 13.7609 5.73945 14.5809 7.13554 14.5809C7.7832 14.5809 8.16366 14.2713 8.16366 13.8154C8.16366 13.3648 7.84511 13.0748 7.41308 13.0748C6.77167 13.0748 6.53007 12.7871 6.53007 12.0309L6.53007 10.7295C6.53007 9.99805 6.15195 9.41946 5.50216 9.12268C6.15195 8.84387 6.53007 8.26435 6.53007 7.51191L6.53007 6.22206C6.53007 5.46581 6.77167 5.17011 7.41308 5.17011C7.84511 5.17011 8.16366 4.88807 8.16366 4.43749C8.16366 3.97988 7.78495 3.6623 7.13554 3.6623C5.73945 3.6623 4.90957 4.49023 4.90957 6.08534ZM10.0937 4.43749C10.0937 4.88807 10.4123 5.17011 10.8443 5.17011C11.4857 5.17011 11.7273 5.46581 11.7273 6.22206L11.7273 7.51191C11.7273 8.26435 12.1055 8.84387 12.7553 9.12268C12.1055 9.41945 11.7273 9.99805 11.7273 10.7295L11.7273 12.0309C11.7273 12.7871 11.4857 13.0748 10.8443 13.0748C10.4123 13.0748 10.0937 13.3648 10.0937 13.8154C10.0937 14.2713 10.4742 14.5809 11.1219 14.5809C12.518 14.5809 13.3478 13.7609 13.3478 12.1676L13.3478 10.9791C13.3478 10.3268 13.5131 10.1615 13.9566 10.0424C14.8801 9.81347 14.8801 8.43144 13.9566 8.20254C13.5131 8.08965 13.3478 7.93144 13.3478 7.27734L13.3478 6.08534C13.3478 4.49023 12.518 3.6623 11.1219 3.6623C10.4707 3.6623 10.0937 3.97988 10.0937 4.43749Z" fill="white" fill-opacity="0.85"/>
 </g>
</svg>
