<?xml version="1.0" encoding="UTF-8"?>
<!--Generator: Apple Native CoreSVG 341-->
<!DOCTYPE svg
PUBLIC "-//W3C//DTD SVG 1.1//EN"
       "http://www.w3.org/Graphics/SVG/1.1/DTD/svg11.dtd">
<svg version="1.1" xmlns="http://www.w3.org/2000/svg" xmlns:xlink="http://www.w3.org/1999/xlink" viewBox="0 0 25.5412 21.7781">
 <g>
  <rect height="21.7781" opacity="0" width="25.5412" x="0" y="0"/>
  <path d="M2.94941 0.862306L3.73457 0.862306L3.73457 2.77557L2.95117 2.77557C2.67441 3.19393 2.18437 3.46932 1.64726 3.46932C0.743357 3.46932 0 2.72597 0 1.81406C0 0.911911 0.743357 0.170312 1.64726 0.170312C2.18261 0.170312 2.67265 0.453711 2.94941 0.862306ZM25.1799 1.81406C25.1799 2.72597 24.4383 3.46932 23.5361 3.46932C22.9972 3.46932 22.5072 3.19393 22.2287 2.77557L21.4453 2.77557L21.4453 0.862306L22.2305 0.862306C22.509 0.453711 22.9972 0.170312 23.5361 0.170312C24.4383 0.170312 25.1799 0.911911 25.1799 1.81406ZM13.2738 2.77557L11.906 2.77557L11.906 0.862306L13.2738 0.862306Z" fill="white" fill-opacity="0.85"/>
  <path d="M4.5246 21.0342L11.1178 21.0342C11.5779 21.0342 11.906 20.7043 11.906 20.2361L11.906 0.806051C11.906 0.337889 11.5779 0 11.1195 0L4.5246 0C4.06445 0 3.73457 0.337889 3.73457 0.806051L3.73457 20.2361C3.73457 20.7043 4.06445 21.0342 4.5246 21.0342ZM14.0621 21.0342L20.6553 21.0342C21.1172 21.0342 21.4453 20.7043 21.4453 20.2361L21.4453 0.806051C21.4453 0.337889 21.1172 0 20.6588 0L14.0621 0C13.6019 0 13.2738 0.337889 13.2738 0.806051L13.2738 20.2361C13.2738 20.7043 13.6019 21.0342 14.0621 21.0342Z" fill="white" fill-opacity="0.85"/>
 </g>
</svg>
