<?xml version="1.0" encoding="UTF-8"?>
<!--Generator: Apple Native CoreSVG 341-->
<!DOCTYPE svg
PUBLIC "-//W3C//DTD SVG 1.1//EN"
       "http://www.w3.org/Graphics/SVG/1.1/DTD/svg11.dtd">
<svg version="1.1" xmlns="http://www.w3.org/2000/svg" xmlns:xlink="http://www.w3.org/1999/xlink" viewBox="0 0 25.4586 21.7781">
 <g>
  <rect height="21.7781" opacity="0" width="25.4586" x="0" y="0"/>
  <path d="M2.94941 0.862306L3.73457 0.862306L3.73457 2.77557L2.95117 2.77557C2.67441 3.19393 2.18437 3.46932 1.64726 3.46932C0.743357 3.46932 0 2.72597 0 1.81406C0 0.911911 0.743357 0.170312 1.64726 0.170312C2.18261 0.170312 2.67265 0.453711 2.94941 0.862306ZM25.0972 1.81406C25.0972 2.72597 24.3556 3.46932 23.4535 3.46932C22.9164 3.46932 22.4246 3.19393 22.1461 2.77557L21.3627 2.77557L21.3627 0.862306L22.1496 0.862306C22.4281 0.453711 22.9164 0.170312 23.4535 0.170312C24.3556 0.170312 25.0972 0.911911 25.0972 1.81406ZM17.999 2.77557L7.09823 2.77557L7.09823 0.862306L17.999 0.862306Z" fill="white" fill-opacity="0.85"/>
  <path d="M4.52636 21.0342L6.30995 21.0342C6.7701 21.0342 7.09823 20.7043 7.09823 20.2361L7.09823 0.806051C7.09823 0.337889 6.7701 0 6.31171 0L4.5246 0C4.06445 0 3.73457 0.337889 3.73457 0.806051L3.73457 20.2361C3.73457 20.7043 4.0662 21.0342 4.52636 21.0342ZM18.7873 21.0342L20.5726 21.0342C21.0328 21.0342 21.3627 20.7043 21.3627 20.2361L21.3627 0.806051C21.3627 0.337889 21.0346 0 20.5744 0L18.7873 0C18.3289 0 17.999 0.337889 17.999 0.806051L17.999 20.2361C17.999 20.7043 18.3271 21.0342 18.7873 21.0342Z" fill="white" fill-opacity="0.85"/>
 </g>
</svg>
