<?xml version="1.0" encoding="UTF-8"?>
<!--Generator: Apple Native CoreSVG 341-->
<!DOCTYPE svg
PUBLIC "-//W3C//DTD SVG 1.1//EN"
       "http://www.w3.org/Graphics/SVG/1.1/DTD/svg11.dtd">
<svg version="1.1" xmlns="http://www.w3.org/2000/svg" xmlns:xlink="http://www.w3.org/1999/xlink" viewBox="0 0 17.4605 20.8769">
 <g>
  <rect height="20.8769" opacity="0" width="17.4605" x="0" y="0"/>
  <path d="M8.5496 14.6896C11.9035 14.6896 15.1574 13.6986 16.7762 12.2275L15.9523 10.8201C14.4609 12.0793 11.5316 12.9355 8.5496 12.9355C5.56933 12.9355 2.63827 12.0793 1.14687 10.8201L0.323043 12.2275C1.94355 13.6986 5.1957 14.6896 8.5496 14.6896ZM8.5496 20.8539C13.6906 20.8539 17.0992 18.8863 17.0992 16.068L17.0992 4.32363L15.2439 4.32363L15.2439 16.068C15.2439 17.7797 12.6502 19.0998 8.5496 19.0998C4.44902 19.0998 1.85526 17.7797 1.85526 16.068L1.85526 4.32363L0 4.32363L0 16.068C0 18.8863 3.40859 20.8539 8.5496 20.8539ZM8.5496 8.63924C13.6836 8.63924 17.0992 6.89354 17.0992 4.32363C17.0992 1.75371 13.6836 0 8.5496 0C3.41738 0 0 1.75371 0 4.32363C0 6.89354 3.41738 8.63924 8.5496 8.63924ZM8.5496 6.88515C4.56503 6.88515 1.85526 5.81855 1.85526 4.32363C1.85526 2.75683 4.558 1.65116 8.5496 1.65116C12.5412 1.65116 15.2439 2.75683 15.2439 4.32363C15.2439 5.81855 12.5359 6.88515 8.5496 6.88515Z" fill="white" fill-opacity="0.85"/>
 </g>
</svg>
