<?xml version="1.0" encoding="UTF-8"?>
<!--Generator: Apple Native CoreSVG 341-->
<!DOCTYPE svg
PUBLIC "-//W3C//DTD SVG 1.1//EN"
       "http://www.w3.org/Graphics/SVG/1.1/DTD/svg11.dtd">
<svg version="1.1" xmlns="http://www.w3.org/2000/svg" xmlns:xlink="http://www.w3.org/1999/xlink" viewBox="0 0 18.5894 18.2316">
 <g>
  <rect height="18.2316" opacity="0" width="18.5894" x="0" y="0"/>
  <path d="M3.20351 18.2281L15.0246 18.2281C17.1404 18.2281 18.2281 17.1502 18.2281 15.0646L18.2281 3.17148C18.2281 1.08769 17.1404 0 15.0246 0L3.20351 0C1.0957 0 0 1.08769 0 3.17148L0 15.0646C0 17.1502 1.0957 18.2281 3.20351 18.2281ZM3.31444 16.3148C2.40643 16.3148 1.91327 15.8465 1.91327 14.8977L1.91327 3.34023C1.91327 2.39139 2.40643 1.91503 3.31444 1.91503L14.9137 1.91503C15.8137 1.91503 16.3148 2.39139 16.3148 3.34023L16.3148 14.8977C16.3148 15.8465 15.8137 16.3148 14.9137 16.3148Z" fill="white" fill-opacity="0.85"/>
  <path d="M6.62363 13.4541L9.08925 13.4541C11.8381 13.4541 13.3883 11.8791 13.3883 9.01835C13.3883 6.18788 11.8541 4.62089 9.08925 4.62089L6.62363 4.62089C5.99726 4.62089 5.67207 5.02167 5.67207 5.67206L5.67207 12.4029C5.67207 13.0533 5.99551 13.4541 6.62363 13.4541ZM7.4537 12.0375L7.4537 6.03748L8.84492 6.03748C10.5893 6.03748 11.5199 7.06659 11.5199 9.04238C11.5199 11.052 10.5973 12.0375 8.84492 12.0375Z" fill="white" fill-opacity="0.85"/>
 </g>
</svg>
