<?xml version="1.0" encoding="UTF-8"?>
<!--Generator: Apple Native CoreSVG 341-->
<!DOCTYPE svg
PUBLIC "-//W3C//DTD SVG 1.1//EN"
       "http://www.w3.org/Graphics/SVG/1.1/DTD/svg11.dtd">
<svg version="1.1" xmlns="http://www.w3.org/2000/svg" xmlns:xlink="http://www.w3.org/1999/xlink" viewBox="0 0 24.226 20.1848">
 <g>
  <rect height="20.1848" opacity="0" width="24.226" x="0" y="0"/>
  <path d="M0.721518 8.12363C-0.00973073 8.12363-0.190785 8.66894 0.204136 9.22109L2.47249 12.3723C2.78948 12.8092 3.27757 12.8012 3.58831 12.3723L5.8469 9.21308C6.24007 8.66894 6.051 8.12363 5.33929 8.12363ZM22.0239 10.0875C22.0239 4.51914 17.503 0 11.9364 0C6.368 0 1.85687 4.50937 1.84886 10.099C1.85687 10.6476 2.29378 11.0846 2.83441 11.0846C3.38303 11.0846 3.83596 10.6396 3.83596 10.091C3.83596 5.60839 7.45725 1.9871 11.9364 1.9871C16.4155 1.9871 20.0368 5.60839 20.0368 10.0875C20.0368 14.5666 16.4155 18.1879 11.9364 18.1879C9.3096 18.1879 7.0131 16.9437 5.54279 15.0176C5.1469 14.5609 4.58421 14.4129 4.10726 14.7519C3.66214 15.0734 3.55902 15.725 3.99475 16.2355C5.84631 18.6584 8.71858 20.175 11.9364 20.175C17.503 20.175 22.0239 15.6559 22.0239 10.0875Z" fill="white" fill-opacity="0.85"/>
  <path d="M8.31175 13.8787C8.65862 13.8787 8.8928 13.6268 8.8928 13.2701L8.8928 11.8131L9.41175 11.3057L10.9977 13.5561C11.1237 13.7502 11.2842 13.8787 11.5307 13.8787C11.8332 13.8787 12.0842 13.6578 12.0842 13.365C12.0842 13.202 12.0221 13.075 11.9272 12.942L10.2553 10.6047L11.8143 8.96913C11.9553 8.82011 12.0289 8.72265 12.0289 8.54159C12.0289 8.26933 11.8 8.04218 11.5118 8.04218C11.3379 8.04218 11.1614 8.1371 11.0514 8.26835L8.92034 10.602L8.8928 10.602L8.8928 6.47264C8.8928 6.116 8.65862 5.8578 8.31175 5.8578C7.97288 5.8578 7.73069 6.10799 7.73069 6.46463L7.73069 13.2701C7.73069 13.6268 7.97288 13.8787 8.31175 13.8787ZM13.6825 13.8787C13.9502 13.8787 14.2307 13.7006 14.2307 13.2701L14.2307 10.4709C14.2307 9.82675 14.4707 9.15018 15.2305 9.14667C15.4391 9.14667 15.6485 9.12186 15.7967 9.02167C15.9272 8.94452 15.9973 8.80702 15.9973 8.61894C15.9973 8.25507 15.7344 8.04218 15.3741 8.04218C14.7657 8.04218 14.3711 8.56347 14.2467 9.17011L14.1864 9.17011L14.1864 8.62147C14.1864 8.28886 13.9627 8.04218 13.6629 8.04218C13.3516 8.04218 13.1262 8.28886 13.1262 8.62147L13.1262 13.2701C13.1262 13.6348 13.3328 13.8787 13.6825 13.8787ZM16.3114 13.7809C16.7241 13.7809 17.0143 13.4809 17.0143 13.0762C17.0143 12.659 16.7241 12.367 16.3114 12.367C15.8907 12.367 15.6004 12.659 15.6004 13.0762C15.6004 13.4809 15.8907 13.7809 16.3114 13.7809Z" fill="white" fill-opacity="0.85"/>
 </g>
</svg>
