<?xml version="1.0" encoding="UTF-8"?>
<!--Generator: Apple Native CoreSVG 341-->
<!DOCTYPE svg
PUBLIC "-//W3C//DTD SVG 1.1//EN"
       "http://www.w3.org/Graphics/SVG/1.1/DTD/svg11.dtd">
<svg version="1.1" xmlns="http://www.w3.org/2000/svg" xmlns:xlink="http://www.w3.org/1999/xlink" viewBox="0 0 22.7515 21.4965">
 <g>
  <rect height="21.4965" opacity="0" width="22.7515" x="0" y="0"/>
  <path d="M1.44999 18.9656L20.9947 18.9656L20.9947 18.2322C20.9947 17.8064 20.7437 17.551 20.3117 17.551L19.7447 17.551L19.7447 6.98046L20.5865 6.98046C21.1851 6.98046 21.5363 6.53886 21.5363 6.09277C21.5363 5.7664 21.351 5.47734 20.9545 5.24941L12.481 0.359374C12.0764 0.125976 11.6398 0 11.2183 0C10.7969 0 10.3523 0.125976 9.96366 0.359374L1.49023 5.24941C1.08574 5.47734 0.908396 5.7664 0.908396 6.09277C0.908396 6.53886 1.25957 6.98046 1.85995 6.98046L2.69999 6.98046L2.69999 17.551L2.14101 17.551C1.70898 17.551 1.44999 17.8064 1.44999 18.2322ZM4.32401 17.551L4.32401 5.67245L10.8779 1.99999C10.9846 1.93866 11.1072 1.90487 11.2183 1.90487C11.333 1.90487 11.4521 1.93866 11.5668 1.99999L18.1207 5.67245L18.1207 17.551ZM0.881441 21.4867L21.499 21.4867C21.9797 21.4867 22.3902 21.0849 22.3902 20.5972C22.3902 20.1148 21.9797 19.7158 21.499 19.7158L0.881441 19.7158C0.399022 19.7158 0 20.1148 0 20.5972C0 21.0832 0.399022 21.4867 0.881441 21.4867Z" fill="white" fill-opacity="0.85"/>
  <path d="M7.75858 14.1863C8.09374 14.1863 8.32069 13.9496 8.32069 13.5967L8.32069 12.2279L8.81639 11.7437L10.298 13.8639C10.4213 14.0588 10.5889 14.1863 10.8201 14.1863C11.1189 14.1863 11.3689 13.9726 11.3689 13.6871C11.3689 13.5232 11.3068 13.4088 11.2084 13.2723L9.64354 11.0697L11.1098 9.53494C11.2498 9.3869 11.3172 9.29393 11.3172 9.11385C11.3172 8.84706 11.0955 8.62089 10.8127 8.62089C10.6398 8.62089 10.466 8.71932 10.3588 8.84784L8.34823 11.0564L8.32069 11.0564L8.32069 7.15037C8.32069 6.79745 8.09374 6.54471 7.75858 6.54471C7.42519 6.54471 7.19023 6.78768 7.19023 7.14237L7.19023 13.5967C7.19023 13.9496 7.42519 14.1863 7.75858 14.1863ZM12.8973 14.1863C13.1676 14.1863 13.4408 14.0074 13.4408 13.5967L13.4408 10.9555C13.4408 10.339 13.6586 9.71151 14.3826 9.70799C14.5805 9.70799 14.7808 9.68143 14.9264 9.57772C15.0523 9.50506 15.126 9.3703 15.126 9.18495C15.126 8.8328 14.8738 8.62089 14.5172 8.62089C13.9445 8.62089 13.567 9.12245 13.4488 9.70136L13.3867 9.70136L13.3867 9.18924C13.3867 8.86835 13.1721 8.62089 12.876 8.62089C12.5781 8.62089 12.3519 8.86835 12.3519 9.18924L12.3519 13.5967C12.3519 13.9496 12.5594 14.1863 12.8973 14.1863ZM15.4265 14.0947C15.8275 14.0947 16.1105 13.8117 16.1105 13.4187C16.1105 13.0195 15.8275 12.7285 15.4265 12.7285C15.0256 12.7285 14.7346 13.0195 14.7346 13.4187C14.7346 13.8117 15.0256 14.0947 15.4265 14.0947Z" fill="white" fill-opacity="0.85"/>
 </g>
</svg>
