<?xml version="1.0" encoding="UTF-8"?>
<!--Generator: Apple Native CoreSVG 341-->
<!DOCTYPE svg
PUBLIC "-//W3C//DTD SVG 1.1//EN"
       "http://www.w3.org/Graphics/SVG/1.1/DTD/svg11.dtd">
<svg version="1.1" xmlns="http://www.w3.org/2000/svg" xmlns:xlink="http://www.w3.org/1999/xlink" viewBox="0 0 20.5381 20.1848">
 <g>
  <rect height="20.1848" opacity="0" width="20.5381" x="0" y="0"/>
  <path d="M20.1767 10.0875C20.1767 15.6478 15.6576 20.175 10.0875 20.175C4.52715 20.175 0 15.6478 0 10.0875C0 4.51914 4.52715 0 10.0875 0C15.6576 0 20.1767 4.51914 20.1767 10.0875ZM5.57813 6.25956L5.57813 13.4451C5.57813 13.8371 5.83613 14.1031 6.20859 14.1031C6.58632 14.1031 6.84257 13.8371 6.84257 13.4451L6.84257 11.9297L7.38183 11.3939L9.04571 13.7496C9.17871 13.9641 9.35781 14.1031 9.62012 14.1031C9.95801 14.1031 10.2248 13.8699 10.2248 13.5533C10.2248 13.3664 10.1592 13.2342 10.059 13.0861L8.30566 10.6303L9.93633 8.92128C10.0941 8.76171 10.1713 8.64921 10.1713 8.45761C10.1713 8.15976 9.92207 7.9123 9.6082 7.9123C9.42207 7.9123 9.22695 8.01249 9.11172 8.1623L6.87011 10.61L6.84257 10.61L6.84257 6.26757C6.84257 5.87382 6.58632 5.5998 6.20859 5.5998C5.83613 5.5998 5.57813 5.86581 5.57813 6.25956ZM12.5435 9.11445L12.4814 9.11445L12.4814 8.54276C12.4814 8.18105 12.2455 7.9123 11.9184 7.9123C11.5717 7.9123 11.3322 8.18105 11.3322 8.54276L11.3322 13.4451C11.3322 13.8451 11.5529 14.1031 11.9379 14.1031C12.2268 14.1031 12.5275 13.9109 12.5275 13.4451L12.5275 10.5018C12.5275 9.82226 12.7791 9.12089 13.584 9.11386C13.8094 9.11386 14.0293 9.08729 14.1961 8.97206C14.3318 8.8914 14.4055 8.73534 14.4055 8.53847C14.4055 8.1455 14.1338 7.9123 13.7398 7.9123C13.0926 7.9123 12.6777 8.4707 12.5435 9.11445ZM13.9768 13.2432C13.9768 13.6832 14.2891 14.0053 14.7469 14.0053C15.1869 14.0053 15.5027 13.6832 15.5027 13.2432C15.5027 12.7951 15.1869 12.4811 14.7469 12.4811C14.2891 12.4811 13.9768 12.7951 13.9768 13.2432Z" fill="white" fill-opacity="0.85"/>
 </g>
</svg>
