<?xml version="1.0" encoding="UTF-8"?>
<!--Generator: Apple Native CoreSVG 341-->
<!DOCTYPE svg
PUBLIC "-//W3C//DTD SVG 1.1//EN"
       "http://www.w3.org/Graphics/SVG/1.1/DTD/svg11.dtd">
<svg version="1.1" xmlns="http://www.w3.org/2000/svg" xmlns:xlink="http://www.w3.org/1999/xlink" viewBox="0 0 22.301 21.9477">
 <g>
  <rect height="21.9477" opacity="0" width="22.301" x="0" y="0"/>
  <path d="M10.9689 21.9379C16.9984 21.9379 21.9396 16.9984 21.9396 10.9689C21.9396 4.93945 16.9984 0 10.9689 0C4.93945 0 0 4.93945 0 10.9689C0 16.9984 4.93945 21.9379 10.9689 21.9379ZM10.9689 18.2242C6.96133 18.2242 3.71367 14.9766 3.71367 10.9689C3.71367 6.95332 6.96133 3.71367 10.9689 3.71367C14.9846 3.71367 18.226 6.95332 18.226 10.9689C18.226 14.9766 14.9846 18.2242 10.9689 18.2242Z" fill="white" fill-opacity="0.85"/>
  <path d="M7.2459 14.8393C7.60683 14.8393 7.8498 14.5803 7.8498 14.2096L7.8498 12.735L8.37754 12.2187L9.98106 14.5025C10.1123 14.7037 10.2816 14.8393 10.5369 14.8393C10.8518 14.8393 11.1115 14.6096 11.1115 14.308C11.1115 14.1361 11.0494 14.0039 10.951 13.8674L9.25624 11.4949L10.8363 9.83827C10.9826 9.68222 11.0598 9.57949 11.0598 9.3914C11.0598 9.11035 10.8221 8.87441 10.5232 8.87441C10.3406 8.87441 10.1588 8.97285 10.0436 9.10937L7.8791 11.4799L7.8498 11.4799L7.8498 7.28202C7.8498 6.91132 7.60683 6.64433 7.2459 6.64433C6.89649 6.64433 6.64375 6.90331 6.64375 7.27401L6.64375 14.2096C6.64375 14.5803 6.89649 14.8393 7.2459 14.8393ZM12.7537 14.8393C13.0338 14.8393 13.323 14.6541 13.323 14.2096L13.323 11.3646C13.323 10.7082 13.5648 10.0246 14.3387 10.0211C14.5525 10.0211 14.7689 9.99277 14.9225 9.88906C15.0582 9.80839 15.1318 9.66562 15.1318 9.47226C15.1318 9.09433 14.8699 8.87441 14.4893 8.87441C13.8748 8.87441 13.4652 9.40976 13.3391 10.0287L13.277 10.0287L13.277 9.47656C13.277 9.12988 13.0463 8.87441 12.7342 8.87441C12.4105 8.87441 12.1764 9.12988 12.1764 9.47656L12.1764 14.2096C12.1764 14.5883 12.3918 14.8393 12.7537 14.8393ZM15.4564 14.7414C15.8814 14.7414 16.1902 14.4326 16.1902 14.0156C16.1902 13.5844 15.8814 13.2836 15.4564 13.2836C15.0234 13.2836 14.7227 13.5844 14.7227 14.0156C14.7227 14.4326 15.0234 14.7414 15.4564 14.7414Z" fill="white" fill-opacity="0.85"/>
 </g>
</svg>
