<?xml version="1.0" encoding="UTF-8"?>
<!--Generator: Apple Native CoreSVG 341-->
<!DOCTYPE svg
PUBLIC "-//W3C//DTD SVG 1.1//EN"
       "http://www.w3.org/Graphics/SVG/1.1/DTD/svg11.dtd">
<svg version="1.1" xmlns="http://www.w3.org/2000/svg" xmlns:xlink="http://www.w3.org/1999/xlink" viewBox="0 0 24.2049 19.8808">
 <g>
  <rect height="19.8808" opacity="0" width="24.2049" x="0" y="0"/>
  <path d="M23.8435 11.9178C23.8435 9.01855 22.8031 6.3457 21.0623 4.27031C20.8547 4.02011 20.498 4.02011 20.2621 4.2623L17.9578 6.56484C17.7547 6.76796 17.7467 7.05097 17.9232 7.27363C18.9185 8.56269 19.517 10.1768 19.517 11.9178C19.517 13.6826 18.9115 15.3107 17.8488 16.6611C17.6945 16.8535 17.7025 17.0982 17.8719 17.2756L20.2242 19.6279C20.4646 19.8683 20.8133 19.8683 21.0359 19.6066C22.7908 17.5277 23.8435 14.8443 23.8435 11.9178Z" fill="white" fill-opacity="0.85"/>
  <path d="M11.9178 4.32656C13.6783 4.32656 15.2941 4.933 16.5912 5.93183C16.8041 6.09863 17.0791 6.0791 17.2787 5.87773L19.5812 3.57343C19.8252 3.33125 19.8154 2.9791 19.5582 2.76797C17.4926 1.04043 14.8232 0 11.9178 0C9.02031 0 6.35097 1.04043 4.28711 2.76797C4.02988 2.9791 4.01836 3.33125 4.2623 3.57343L6.56484 5.87773C6.76445 6.0791 7.05097 6.09863 7.28163 5.92207C8.56894 4.933 10.1768 4.32656 11.9178 4.32656Z" fill="white" fill-opacity="0.85"/>
  <path d="M0 11.9178C0 14.8461 1.05625 17.5348 2.81465 19.6137C3.02402 19.8719 3.3789 19.8683 3.61308 19.6279L5.96367 17.2756C6.133 17.0982 6.15077 16.8535 5.99472 16.6611C4.93378 15.3107 4.32656 13.6826 4.32656 11.9178C4.32656 10.1768 4.91699 8.56269 5.92031 7.27363C6.08886 7.05097 6.08886 6.76796 5.88574 6.56484L3.58144 4.2623C3.33926 4.02011 2.98711 4.02187 2.77422 4.2791C1.03867 6.35097 0 9.02031 0 11.9178Z" fill="white" fill-opacity="0.85"/>
  <path d="M8.19472 15.8658C8.54765 15.8658 8.79062 15.6148 8.79062 15.2361L8.79062 13.7615L9.32636 13.2471L10.9219 15.5291C11.0531 15.732 11.2287 15.8658 11.4777 15.8658C11.7926 15.8658 12.0603 15.6379 12.0603 15.3346C12.0603 15.1627 11.9885 15.0402 11.89 14.894L10.1971 12.5215L11.7771 10.8728C11.9234 10.7105 11.9988 10.6078 11.9988 10.4277C11.9988 10.1369 11.7709 9.90097 11.4641 9.90097C11.2895 9.90097 11.0996 10.0074 10.9844 10.1359L8.81991 12.5145L8.79062 12.5145L8.79062 8.31659C8.79062 7.93964 8.54765 7.6789 8.19472 7.6789C7.8373 7.6789 7.58457 7.92987 7.58457 8.30858L7.58457 15.2361C7.58457 15.6148 7.8373 15.8658 8.19472 15.8658ZM13.6945 15.8658C13.9826 15.8658 14.2719 15.6807 14.2719 15.2361L14.2719 12.401C14.2719 11.7348 14.5057 11.0592 15.2875 11.0557C15.4934 11.0557 15.7098 11.0211 15.8633 10.9156C15.9973 10.8367 16.0789 10.7002 16.0789 10.5068C16.0789 10.1226 15.8107 9.90097 15.4301 9.90097C14.8156 9.90097 14.4141 10.4443 14.2799 11.0553L14.2178 11.0553L14.2178 10.5111C14.2178 10.1564 13.9871 9.90097 13.6732 9.90097C13.3496 9.90097 13.1172 10.1564 13.1172 10.5111L13.1172 15.2361C13.1172 15.6148 13.3326 15.8658 13.6945 15.8658ZM16.3973 15.768C16.8223 15.768 17.131 15.4672 17.131 15.0422C17.131 14.6189 16.8223 14.3102 16.3973 14.3102C15.9625 14.3102 15.6635 14.6189 15.6635 15.0422C15.6635 15.4672 15.9625 15.768 16.3973 15.768Z" fill="white" fill-opacity="0.85"/>
 </g>
</svg>
