<?xml version="1.0" encoding="UTF-8"?>
<!--Generator: Apple Native CoreSVG 341-->
<!DOCTYPE svg
PUBLIC "-//W3C//DTD SVG 1.1//EN"
       "http://www.w3.org/Graphics/SVG/1.1/DTD/svg11.dtd">
<svg version="1.1" xmlns="http://www.w3.org/2000/svg" xmlns:xlink="http://www.w3.org/1999/xlink" viewBox="0 0 18.5894 18.2316">
 <g>
  <rect height="18.2316" opacity="0" width="18.5894" x="0" y="0"/>
  <path d="M18.2281 3.17148L18.2281 15.0646C18.2281 17.1502 17.1404 18.2281 15.0246 18.2281L3.20351 18.2281C1.0957 18.2281 0 17.1502 0 15.0646L0 3.17148C0 1.08769 1.0957 0 3.20351 0L15.0246 0C17.1404 0 18.2281 1.08769 18.2281 3.17148ZM4.63066 5.283L4.63066 12.4686C4.63066 12.8605 4.88867 13.1266 5.26914 13.1266C5.6371 13.1266 5.89335 12.8605 5.89335 12.4686L5.89335 10.9531L6.44238 10.4174L8.09649 12.773C8.22949 12.9875 8.41035 13.1266 8.67266 13.1266C9.01055 13.1266 9.27558 12.8934 9.27558 12.5768C9.27558 12.3898 9.20996 12.2576 9.10976 12.1096L7.35644 9.65371L8.98711 7.94472C9.14492 7.78515 9.22382 7.67265 9.22382 7.48105C9.22382 7.1832 8.98086 6.93574 8.66074 6.93574C8.47461 6.93574 8.27949 7.03593 8.1625 7.18574L5.92265 9.6334L5.89335 9.6334L5.89335 5.291C5.89335 4.89726 5.6371 4.62323 5.26914 4.62323C4.88867 4.62323 4.63066 4.88925 4.63066 5.283ZM11.5961 8.13789L11.5322 8.13789L11.5322 7.5662C11.5322 7.20449 11.2963 6.93574 10.9691 6.93574C10.6225 6.93574 10.383 7.20449 10.383 7.5662L10.383 12.4686C10.383 12.8686 10.6055 13.1266 10.9904 13.1266C11.2855 13.1266 11.5801 12.9344 11.5801 12.4686L11.5801 9.52519C11.5801 8.8457 11.8299 8.14432 12.6348 8.13729C12.8602 8.13729 13.0818 8.11073 13.2469 7.9955C13.3844 7.91483 13.458 7.75878 13.458 7.56191C13.458 7.16894 13.1943 6.93574 12.7906 6.93574C12.1531 6.93574 11.7303 7.49413 11.5961 8.13789ZM13.0275 12.2666C13.0275 12.7066 13.3416 13.0287 13.7994 13.0287C14.2394 13.0287 14.5615 12.7066 14.5615 12.2666C14.5615 11.8186 14.2394 11.5045 13.7994 11.5045C13.3416 11.5045 13.0275 11.8186 13.0275 12.2666Z" fill="white" fill-opacity="0.85"/>
 </g>
</svg>
