<?xml version="1.0" encoding="UTF-8"?>
<!--Generator: Apple Native CoreSVG 341-->
<!DOCTYPE svg
PUBLIC "-//W3C//DTD SVG 1.1//EN"
       "http://www.w3.org/Graphics/SVG/1.1/DTD/svg11.dtd">
<svg version="1.1" xmlns="http://www.w3.org/2000/svg" xmlns:xlink="http://www.w3.org/1999/xlink" viewBox="0 0 22.6541 17.8168">
 <g>
  <rect height="17.8168" opacity="0" width="22.6541" x="0" y="0"/>
  <path d="M15.581 17.8168C18.8264 17.8168 21.2269 16.2145 22.1172 13.8025C22.2271 13.4867 22.2928 13.1656 22.2928 12.8418C22.3008 12.1934 21.8605 11.7522 21.1855 11.7522C20.5863 11.7522 20.2797 12.0617 20.0521 12.6645C19.4799 14.5242 17.7826 15.7246 15.6004 15.7246C12.4521 15.7246 10.4582 13.0926 10.4582 8.86543C10.4582 4.70839 12.4303 2.1242 15.5582 2.1242C17.6547 2.1242 19.352 3.38339 19.9375 5.22636C20.1783 5.87362 20.4875 6.1369 21.092 6.1369C21.7494 6.1369 22.1756 5.70448 22.1676 5.05683C22.1596 4.71113 22.0976 4.37969 21.9533 4.05352C20.9943 1.60918 18.5414 0.0337893 15.5564 0.0337893C10.9252 0.0337893 7.95917 3.4334 7.95917 8.87773C7.95917 14.3869 10.9092 17.8168 15.581 17.8168ZM3.05234 7.18359C4.77246 7.18359 6.11269 5.84335 6.11269 4.12499C6.11269 2.40664 4.77246 1.06465 3.05234 1.06465C1.34199 1.06465 0 2.40664 0 4.12499C0 5.84335 1.34199 7.18359 3.05234 7.18359ZM3.05234 5.66074C2.19433 5.66074 1.52285 4.98925 1.52285 4.12499C1.52285 3.26698 2.19433 2.58749 3.05234 2.58749C3.91836 2.58749 4.58809 3.26698 4.58809 4.12499C4.58809 4.98925 3.91836 5.66074 3.05234 5.66074Z" fill="white" fill-opacity="0.85"/>
 </g>
</svg>
