<?xml version="1.0" encoding="UTF-8"?>
<!--Generator: Apple Native CoreSVG 341-->
<!DOCTYPE svg
PUBLIC "-//W3C//DTD SVG 1.1//EN"
       "http://www.w3.org/Graphics/SVG/1.1/DTD/svg11.dtd">
<svg version="1.1" xmlns="http://www.w3.org/2000/svg" xmlns:xlink="http://www.w3.org/1999/xlink" viewBox="0 0 22.2742 27.9988">
 <g>
  <rect height="27.9988" opacity="0" width="22.2742" x="0" y="0"/>
  <path d="M13.601 4.09647L6.5203 4.09647C5.65858 4.09647 5.15741 4.56483 5.15741 5.47538L5.15741 20.6621C5.15741 21.5629 5.65858 22.0393 6.5203 22.0393L15.3926 22.0393C16.2525 22.0393 16.7555 21.5629 16.7555 20.6621L16.7555 13.3939C16.9052 13.4082 17.0589 13.4139 17.215 13.4139C17.7286 13.4139 18.216 13.3525 18.6687 13.2322L18.6687 20.8211C18.6687 22.4412 17.9864 23.4594 16.6717 23.81L16.6717 24.8978C16.6717 25.4281 16.3099 25.7978 15.7717 25.7978C15.2414 25.7978 14.8814 25.4281 14.8814 24.8978L14.8814 23.9525L7.03144 23.9525L7.03144 24.8978C7.03144 25.4281 6.67148 25.7978 6.14121 25.7978C5.61093 25.7978 5.24121 25.4281 5.24121 24.8978L5.24121 23.808C3.92901 23.4557 3.24414 22.4383 3.24414 20.8211L3.24414 5.30663C3.24414 3.25488 4.35585 2.1832 6.40937 2.1832L14.7087 2.1832C14.3244 2.80737 13.9398 3.46521 13.601 4.09647ZM10.3637 20.0373C10.3637 20.4019 10.0744 20.6947 9.69999 20.6947L6.95838 20.6947C6.59198 20.6947 6.30096 20.4019 6.30096 20.0373C6.30096 19.6629 6.59198 19.3701 6.95838 19.3701L9.69999 19.3701C10.0744 19.3701 10.3637 19.6629 10.3637 20.0373ZM15.6119 20.0373C15.6119 20.4019 15.3209 20.6947 14.9545 20.6947L12.2129 20.6947C11.8385 20.6947 11.5474 20.4019 11.5474 20.0373C11.5474 19.6629 11.8385 19.3701 12.2129 19.3701L14.9545 19.3701C15.3209 19.3701 15.6119 19.6629 15.6119 20.0373ZM10.3637 17.6064C10.3637 17.9791 10.0744 18.2639 9.69999 18.2639L6.95838 18.2639C6.59198 18.2639 6.30096 17.9791 6.30096 17.6064C6.30096 17.2338 6.59198 16.949 6.95838 16.949L9.69999 16.949C10.0744 16.949 10.3637 17.2338 10.3637 17.6064ZM15.6119 17.6064C15.6119 17.9791 15.3209 18.2639 14.9545 18.2639L12.2129 18.2639C11.8385 18.2639 11.5474 17.9791 11.5474 17.6064C11.5474 17.2338 11.8385 16.949 12.2129 16.949L14.9545 16.949C15.3209 16.949 15.6119 17.2338 15.6119 17.6064ZM10.3637 15.1773C10.3637 15.55 10.0744 15.833 9.69999 15.833L6.95838 15.833C6.59198 15.833 6.30096 15.55 6.30096 15.1773C6.30096 14.8109 6.59198 14.5182 6.95838 14.5182L9.69999 14.5182C10.0744 14.5182 10.3637 14.8109 10.3637 15.1773ZM15.6119 15.1773C15.6119 15.55 15.3209 15.833 14.9545 15.833L12.2129 15.833C11.8385 15.833 11.5474 15.55 11.5474 15.1773C11.5474 14.8109 11.8385 14.5182 12.2129 14.5182L14.9545 14.5182C15.3209 14.5182 15.6119 14.8109 15.6119 15.1773ZM9.16795 6.80155C9.16795 7.5826 8.52889 8.22167 7.75936 8.22167C6.9783 8.22167 6.34901 7.5826 6.34901 6.80155C6.34901 6.03378 6.9783 5.40272 7.75936 5.40272C8.52889 5.40272 9.16795 6.03378 9.16795 6.80155Z" fill="white" fill-opacity="0.85"/>
  <path d="M17.215 12.0285C19.4207 12.0285 20.8951 10.6004 20.8951 8.45507C20.8951 7.43828 20.4767 6.51601 20.1343 5.76015C19.5564 4.53144 18.648 3.0289 17.841 1.79043C17.6504 1.52265 17.4545 1.38711 17.215 1.38711C16.9836 1.38711 16.7797 1.52265 16.597 1.79043C15.7865 3.0289 14.8701 4.5332 14.2957 5.76191C13.9613 6.51953 13.5429 7.43828 13.5429 8.45507C13.5429 10.6004 15.0094 12.0285 17.215 12.0285Z" fill="white" fill-opacity="0.85"/>
 </g>
</svg>
