<?xml version="1.0" encoding="UTF-8"?>
<!--Generator: Apple Native CoreSVG 341-->
<!DOCTYPE svg
PUBLIC "-//W3C//DTD SVG 1.1//EN"
       "http://www.w3.org/Graphics/SVG/1.1/DTD/svg11.dtd">
<svg version="1.1" xmlns="http://www.w3.org/2000/svg" xmlns:xlink="http://www.w3.org/1999/xlink" viewBox="0 0 22.1691 18.2476">
 <g>
  <rect height="18.2476" opacity="0" width="22.1691" x="0" y="0"/>
  <path d="M21.308 3.19101L21.308 15.1518C21.308 17.2435 20.2123 18.2476 18.1045 18.2476L9.66308 18.2396C8.35528 18.2396 7.4086 17.874 6.52247 16.9182L0.98574 11.0728C0.272657 10.3131 0 9.73496 0 9.1207C0 8.50019 0.275391 7.93359 0.98574 7.17207L6.5127 1.29921C7.39082 0.338866 8.34903 0.0195312 9.65683 0.0195312L18.1045 0.0195312C20.2123 0.0195312 21.308 1.09746 21.308 3.19101ZM15.0363 5.28984L12.4609 7.84746L9.90331 5.29785C9.72245 5.125 9.51679 5.03007 9.25351 5.03007C8.73925 5.03007 8.33222 5.4291 8.33222 5.94511C8.33222 6.18456 8.43242 6.40975 8.60175 6.58534L11.1584 9.14374L8.60175 11.6924C8.43242 11.868 8.33222 12.0932 8.33222 12.3326C8.33222 12.8584 8.73925 13.2654 9.25351 13.2654C9.51679 13.2654 9.74648 13.1687 9.92733 12.9977L12.4609 10.4418L15.0025 12.9977C15.1754 13.1687 15.4051 13.2654 15.6684 13.2654C16.1906 13.2654 16.5914 12.8584 16.5914 12.3326C16.5914 12.0852 16.5072 11.86 16.3201 11.6844L13.775 9.14374L16.3281 6.57733C16.5232 6.38573 16.5994 6.17655 16.5994 5.92909C16.5994 5.42109 16.1986 5.0123 15.6861 5.0123C15.4291 5.0123 15.2252 5.10097 15.0363 5.28984Z" fill="white" fill-opacity="0.85"/>
 </g>
</svg>
