<?xml version="1.0" encoding="UTF-8"?>
<!--Generator: Apple Native CoreSVG 341-->
<!DOCTYPE svg
PUBLIC "-//W3C//DTD SVG 1.1//EN"
       "http://www.w3.org/Graphics/SVG/1.1/DTD/svg11.dtd">
<svg version="1.1" xmlns="http://www.w3.org/2000/svg" xmlns:xlink="http://www.w3.org/1999/xlink" viewBox="0 0 20.5767 20.5617">
 <g>
  <rect height="20.5617" opacity="0" width="20.5767" x="0" y="0"/>
  <path d="M5.03242 20.5617L1.99706 20.5617C0.706248 20.5617 0.0818366 19.9551 0.0818366 18.6803L0.0818366 15.839C1.25625 17.9387 2.88496 19.508 5.03242 20.5617ZM20.1353 18.6803C20.1353 19.9551 19.5109 20.5617 18.2201 20.5617L15.1928 20.5617C17.3322 19.508 18.9609 17.9387 20.1353 15.839ZM20.1767 10.276C20.1767 15.8363 15.6576 20.3635 10.0875 20.3635C4.52715 20.3635 0 15.8363 0 10.276C0 4.70761 4.52715 0.188474 10.0875 0.188474C15.6576 0.188474 20.1767 4.70761 20.1767 10.276ZM14.0053 5.38593L10.09 9.29589L7.76503 6.96464C7.42987 6.63573 6.9414 6.63749 6.61777 6.96464C6.30214 7.28378 6.29238 7.77674 6.61777 8.10389L9.51816 11.0123C9.84531 11.3474 10.348 11.3394 10.6734 11.0123L15.1428 6.53494C15.4699 6.21756 15.4779 5.70331 15.1428 5.38593C14.8094 5.0703 14.3307 5.06229 14.0053 5.38593Z" fill="white" fill-opacity="0.85"/>
 </g>
</svg>
