<?xml version="1.0" encoding="UTF-8"?>
<!--Generator: Apple Native CoreSVG 341-->
<!DOCTYPE svg
PUBLIC "-//W3C//DTD SVG 1.1//EN"
       "http://www.w3.org/Graphics/SVG/1.1/DTD/svg11.dtd">
<svg version="1.1" xmlns="http://www.w3.org/2000/svg" xmlns:xlink="http://www.w3.org/1999/xlink" viewBox="0 0 20.5767 20.5687">
 <g>
  <rect height="20.5687" opacity="0" width="20.5767" x="0" y="0"/>
  <path d="M0.0978523 15.8443L0.0978523 18.6855C0.0978523 19.9603 0.722264 20.5687 2.01308 20.5687L5.05019 20.5687C2.90273 19.523 1.27227 17.9519 0.0978523 15.8443ZM20.1514 15.8443C18.9769 17.9519 17.3482 19.523 15.2088 20.5687L18.2361 20.5687C19.5269 20.5687 20.1514 19.9603 20.1514 18.6855ZM10.0875 20.367C15.6576 20.367 20.1767 15.8478 20.1767 10.2795C20.1767 4.71113 15.6576 0.19199 10.0875 0.19199C4.51914 0.19199 0 4.71113 0 10.2795C0 15.8478 4.51914 20.367 10.0875 20.367ZM10.0875 18.3799C5.60839 18.3799 1.9871 14.7586 1.9871 10.2795C1.9871 5.80038 5.60839 2.17909 10.0875 2.17909C14.5666 2.17909 18.1897 5.80038 18.1897 10.2795C18.1897 14.7586 14.5666 18.3799 10.0875 18.3799Z" fill="white" fill-opacity="0.85"/>
  <path d="M6.79238 8.11014L9.58906 10.9051C9.89941 11.2252 10.3773 11.2172 10.6877 10.9051L15.002 6.59256C15.3141 6.28846 15.3221 5.80077 15.002 5.50018C14.6818 5.1996 14.2217 5.19159 13.9096 5.50018L10.1326 9.27539L7.89276 7.01952C7.57089 6.70565 7.10273 6.70741 6.79238 7.01952C6.49179 7.32186 6.48203 7.79979 6.79238 8.11014Z" fill="white" fill-opacity="0.85"/>
 </g>
</svg>
