<?xml version="1.0" encoding="UTF-8"?>
<!--Generator: Apple Native CoreSVG 341-->
<!DOCTYPE svg
PUBLIC "-//W3C//DTD SVG 1.1//EN"
       "http://www.w3.org/Graphics/SVG/1.1/DTD/svg11.dtd">
<svg version="1.1" xmlns="http://www.w3.org/2000/svg" xmlns:xlink="http://www.w3.org/1999/xlink" viewBox="0 0 23.5928 20.1453">
 <g>
  <rect height="20.1453" opacity="0" width="23.5928" x="0" y="0"/>
  <path d="M4.16816 20.1348C4.77675 20.1348 5.26464 19.6486 5.26464 19.0383C5.26464 18.4297 4.77675 17.9418 4.16816 17.9418C3.55781 17.9418 3.07168 18.4297 3.07168 19.0383C3.07168 19.6486 3.55781 20.1348 4.16816 20.1348ZM1.09648 12.7064C1.70507 12.7064 2.19296 12.2186 2.19296 11.61C2.19296 11.0076 1.70507 10.5215 1.09648 10.5215C0.486131 10.5215 0 11.0076 0 11.61C0 12.2186 0.486131 12.7064 1.09648 12.7064ZM4.16816 5.30038C4.77675 5.30038 5.26464 4.81425 5.26464 4.2039C5.26464 3.59531 4.77675 3.10742 4.16816 3.10742C3.55781 3.10742 3.07168 3.59531 3.07168 4.2039C3.07168 4.81425 3.55781 5.30038 4.16816 5.30038ZM11.6197 2.19296C12.2221 2.19296 12.7082 1.70507 12.7082 1.09648C12.7082 0.486131 12.2221 0 11.6197 0C11.0111 0 10.5232 0.486131 10.5232 1.09648C10.5232 1.70507 11.0111 2.19296 11.6197 2.19296ZM19.0633 5.30038C19.6736 5.30038 20.1598 4.81425 20.1598 4.2039C20.1598 3.59531 19.6736 3.10742 19.0633 3.10742C18.4547 3.10742 17.9668 3.59531 17.9668 4.2039C17.9668 4.81425 18.4547 5.30038 19.0633 5.30038ZM22.135 12.7064C22.7453 12.7064 23.2314 12.2186 23.2314 11.61C23.2314 11.0076 22.7453 10.5215 22.135 10.5215C21.5264 10.5215 21.0385 11.0076 21.0385 11.61C21.0385 12.2186 21.5264 12.7064 22.135 12.7064ZM19.0633 20.1348C19.6736 20.1348 20.1598 19.6486 20.1598 19.0383C20.1598 18.4297 19.6736 17.9418 19.0633 17.9418C18.4547 17.9418 17.9668 18.4297 17.9668 19.0383C17.9668 19.6486 18.4547 20.1348 19.0633 20.1348Z" fill="white" fill-opacity="0.85"/>
  <path d="M11.6197 18.7439C15.5596 18.7439 18.7457 15.5578 18.7457 11.618C18.7457 7.67012 15.5596 4.48398 11.6197 4.48398C7.67187 4.48398 4.48574 7.67012 4.48574 11.618C4.48574 15.5578 7.67187 18.7439 11.6197 18.7439ZM11.6215 16.9106C8.6914 16.9106 6.32089 14.54 6.32089 11.618C6.32089 8.68788 8.6914 6.31737 11.6215 6.31737C14.5436 6.31737 16.9141 8.68788 16.9141 11.618C16.9141 14.54 14.5436 16.9106 11.6215 16.9106ZM11.6215 12.5609C12.0658 12.5609 12.4426 12.1965 12.4355 11.7469L12.3775 6.17128L10.8486 6.16952L10.7959 11.7434C10.7889 12.1982 11.1551 12.5557 11.6215 12.5609Z" fill="white" fill-opacity="0.85"/>
 </g>
</svg>
