<?xml version="1.0" encoding="UTF-8"?>
<!--Generator: Apple Native CoreSVG 341-->
<!DOCTYPE svg
PUBLIC "-//W3C//DTD SVG 1.1//EN"
       "http://www.w3.org/Graphics/SVG/1.1/DTD/svg11.dtd">
<svg version="1.1" xmlns="http://www.w3.org/2000/svg" xmlns:xlink="http://www.w3.org/1999/xlink" viewBox="0 0 20.5381 20.1848">
 <g>
  <rect height="20.1848" opacity="0" width="20.5381" x="0" y="0"/>
  <path d="M20.1767 10.0875C20.1767 15.6478 15.6576 20.175 10.0875 20.175C4.52715 20.175 0 15.6478 0 10.0875C0 4.51914 4.52715 0 10.0875 0C15.6576 0 20.1767 4.51914 20.1767 10.0875ZM9.23457 4.94589L4.93613 9.23808C4.40351 9.78046 4.41952 10.4043 4.95566 10.9439L9.2248 15.2148C9.7707 15.759 10.3865 15.7768 10.9307 15.2326L15.2228 10.9404C15.7732 10.3883 15.7555 9.77246 15.2051 9.22656L10.9422 4.96367C10.3963 4.42128 9.78046 4.40175 9.23457 4.94589Z" fill="white" fill-opacity="0.85"/>
 </g>
</svg>
