<?xml version="1.0" encoding="UTF-8"?>
<!--Generator: Apple Native CoreSVG 341-->
<!DOCTYPE svg
PUBLIC "-//W3C//DTD SVG 1.1//EN"
       "http://www.w3.org/Graphics/SVG/1.1/DTD/svg11.dtd">
<svg version="1.1" xmlns="http://www.w3.org/2000/svg" xmlns:xlink="http://www.w3.org/1999/xlink" viewBox="0 0 23.6367 23.7992">
 <g>
  <rect height="23.7992" opacity="0" width="23.6367" x="0" y="0"/>
  <path d="M17.2752 4.61054L17.2752 4.74316L9.20545 4.74316C6.31249 4.74316 4.58066 6.45096 4.58066 9.33416L4.58066 17.6543L4.26347 17.6543C2.1539 17.6543 1.0582 16.5666 1.0582 14.4828L1.0582 4.61054C1.0582 2.52499 2.1539 1.43906 4.26347 1.43906L14.0699 1.43906C16.1715 1.43906 17.2752 2.52499 17.2752 4.61054Z" fill="white" fill-opacity="0.85"/>
  <path d="M22.2172 9.33416L22.2172 19.2082C22.2172 21.292 21.1135 22.3797 19.0119 22.3797L9.20545 22.3797C7.09588 22.3797 6.00018 21.292 6.00018 19.2082L6.00018 9.33416C6.00018 7.24237 7.09588 6.16268 9.20545 6.16268L19.0119 6.16268C21.1135 6.16268 22.2172 7.25038 22.2172 9.33416ZM8.81678 18.1322C8.81678 18.9267 9.44705 19.573 10.2381 19.573C11.0211 19.573 11.6576 18.925 11.6576 18.1322C11.6576 17.3447 11.0193 16.7144 10.2381 16.7144C9.44705 16.7144 8.81678 17.343 8.81678 18.1322ZM16.5148 18.1322C16.5148 18.925 17.1514 19.573 17.9344 19.573C18.7191 19.573 19.3637 18.925 19.3637 18.1322C19.3637 17.343 18.7174 16.7144 17.9344 16.7144C17.1514 16.7144 16.5148 17.343 16.5148 18.1322ZM12.6627 14.2721C12.6627 15.0746 13.2974 15.7191 14.084 15.7191C14.867 15.7191 15.5115 15.0711 15.5115 14.2721C15.5115 13.489 14.8635 12.8623 14.084 12.8623C13.301 12.8623 12.6627 13.4873 12.6627 14.2721ZM8.80877 10.4217C8.80877 11.2207 9.44705 11.8492 10.2416 11.859C11.0211 11.8785 11.6691 11.2224 11.6691 10.4217C11.6691 9.63865 11.0228 8.99861 10.2416 8.99861C9.44705 8.99861 8.80877 9.63689 8.80877 10.4217ZM16.5033 10.4217C16.5033 11.2207 17.1496 11.8492 17.9344 11.859C18.7174 11.8785 19.3637 11.2224 19.3637 10.4217C19.3637 9.63689 18.7191 8.99861 17.9344 8.99861C17.1496 8.99861 16.5033 9.63689 16.5033 10.4217Z" fill="white" fill-opacity="0.85"/>
 </g>
</svg>
