<?xml version="1.0" encoding="UTF-8"?>
<!--Generator: Apple Native CoreSVG 341-->
<!DOCTYPE svg
PUBLIC "-//W3C//DTD SVG 1.1//EN"
       "http://www.w3.org/Graphics/SVG/1.1/DTD/svg11.dtd">
<svg version="1.1" xmlns="http://www.w3.org/2000/svg" xmlns:xlink="http://www.w3.org/1999/xlink" viewBox="0 0 18.5894 18.2316">
 <g>
  <rect height="18.2316" opacity="0" width="18.5894" x="0" y="0"/>
  <path d="M18.2281 3.17148L18.2281 15.0646C18.2281 17.1502 17.1404 18.2281 15.0246 18.2281L3.20351 18.2281C1.0957 18.2281 0 17.1502 0 15.0646L0 3.17148C0 1.08769 1.0957 0 3.20351 0L15.0246 0C17.1404 0 18.2281 1.08769 18.2281 3.17148ZM3.06503 13.543C3.06503 14.4564 3.79296 15.1924 4.70116 15.1924C5.59511 15.1924 6.33554 14.4547 6.33554 13.543C6.33554 12.6383 5.59335 11.9121 4.70116 11.9121C3.79296 11.9121 3.06503 12.6365 3.06503 13.543ZM7.48457 9.11093C7.48457 10.0324 8.20722 10.7648 9.1207 10.7648C10.0129 10.7648 10.7551 10.0271 10.7551 9.11093C10.7551 8.21249 10.0094 7.48632 9.1207 7.48632C8.21074 7.48632 7.48457 8.21074 7.48457 9.11093ZM11.8793 4.68866C11.8793 5.60487 12.6312 6.32304 13.543 6.34081C14.4334 6.3621 15.1711 5.60839 15.1711 4.68866C15.1711 3.78847 14.4352 3.06054 13.543 3.06054C12.6312 3.06054 11.8793 3.78847 11.8793 4.68866Z" fill="white" fill-opacity="0.85"/>
 </g>
</svg>
