<?xml version="1.0" encoding="UTF-8"?>
<!--Generator: Apple Native CoreSVG 341-->
<!DOCTYPE svg
PUBLIC "-//W3C//DTD SVG 1.1//EN"
       "http://www.w3.org/Graphics/SVG/1.1/DTD/svg11.dtd">
<svg version="1.1" xmlns="http://www.w3.org/2000/svg" xmlns:xlink="http://www.w3.org/1999/xlink" viewBox="0 0 18.5894 18.2316">
 <g>
  <rect height="18.2316" opacity="0" width="18.5894" x="0" y="0"/>
  <path d="M3.20351 18.2281L15.0246 18.2281C17.1404 18.2281 18.2281 17.1502 18.2281 15.0646L18.2281 3.17148C18.2281 1.08769 17.1404 0 15.0246 0L3.20351 0C1.0957 0 0 1.08769 0 3.17148L0 15.0646C0 17.1502 1.0957 18.2281 3.20351 18.2281ZM3.31444 16.3148C2.40643 16.3148 1.91327 15.8465 1.91327 14.8977L1.91327 3.34023C1.91327 2.39139 2.40643 1.91503 3.31444 1.91503L14.9137 1.91503C15.8137 1.91503 16.3148 2.39139 16.3148 3.34023L16.3148 14.8977C16.3148 15.8465 15.8137 16.3148 14.9137 16.3148Z" fill="white" fill-opacity="0.85"/>
  <path d="M4.86776 6.44276C5.72186 6.45429 6.44101 5.73515 6.44101 4.8535C6.44101 3.98788 5.72362 3.28651 4.86776 3.28651C3.99237 3.28651 3.283 3.98612 3.283 4.8535C3.283 5.73339 3.99237 6.42499 4.86776 6.44276ZM13.3781 6.44276C14.234 6.45429 14.9451 5.73515 14.9451 4.8535C14.9451 3.98612 14.2375 3.28651 13.3781 3.28651C12.5045 3.28651 11.7889 3.98612 11.7889 4.8535C11.7889 5.73339 12.5045 6.42499 13.3781 6.44276ZM4.86601 10.7037C5.72186 10.7037 6.43925 9.99257 6.43925 9.11093C6.43925 8.24882 5.72011 7.54921 4.86601 7.54921C3.99237 7.54921 3.29276 8.24706 3.29276 9.11093C3.29276 9.99433 3.99061 10.7037 4.86601 10.7037ZM13.3701 10.7037C14.2375 10.7037 14.9451 9.99433 14.9451 9.11093C14.9451 8.24706 14.2375 7.54921 13.3701 7.54921C12.5063 7.54921 11.7986 8.24882 11.7986 9.11093C11.7986 9.99433 12.5045 10.7037 13.3701 10.7037ZM4.86601 14.9664C5.72186 14.9664 6.43925 14.2553 6.43925 13.3816C6.43925 12.5115 5.72011 11.8084 4.86601 11.8084C3.99237 11.8084 3.29276 12.5098 3.29276 13.3816C3.29276 14.257 3.99237 14.9664 4.86601 14.9664ZM13.3781 14.9664C14.2375 14.9664 14.9451 14.2553 14.9451 13.3816C14.9451 12.5098 14.234 11.8084 13.3781 11.8084C12.5063 11.8084 11.8066 12.5098 11.8066 13.3816C11.8066 14.2553 12.5063 14.9664 13.3781 14.9664Z" fill="white" fill-opacity="0.85"/>
 </g>
</svg>
