<?xml version="1.0" encoding="UTF-8"?>
<!--Generator: Apple Native CoreSVG 341-->
<!DOCTYPE svg
PUBLIC "-//W3C//DTD SVG 1.1//EN"
       "http://www.w3.org/Graphics/SVG/1.1/DTD/svg11.dtd">
<svg version="1.1" xmlns="http://www.w3.org/2000/svg" xmlns:xlink="http://www.w3.org/1999/xlink" viewBox="0 0 20.5381 20.1848">
 <g>
  <rect height="20.1848" opacity="0" width="20.5381" x="0" y="0"/>
  <path d="M20.1767 10.0973C20.1767 15.6656 15.6576 20.1848 10.0875 20.1848C4.52715 20.1848 0 15.6656 0 10.0973C0 4.53691 4.52715 0.00976562 10.0875 0.00976562C15.6576 0.00976562 20.1767 4.53691 20.1767 10.0973ZM5.52226 14.1262L5.52226 14.2635C5.52226 15.0295 6.02011 15.5514 6.76835 15.5514L13.3426 15.5514C14.0908 15.5514 14.5869 15.0295 14.5869 14.2635L14.5869 14.1262ZM5.52226 8.02363L5.52226 13.3736L14.5869 13.3736L14.5869 8.02363ZM11.6084 9.28437C11.6084 9.46093 11.4922 9.59316 11.3111 9.59316L8.82109 9.59316C8.63476 9.59316 8.51855 9.46093 8.51855 9.28437C8.51855 9.10156 8.63476 8.97734 8.82109 8.97734L11.3111 8.97734C11.4922 8.97734 11.6084 9.10156 11.6084 9.28437ZM6.76835 4.61738C6.02011 4.61738 5.52226 5.133 5.52226 5.89902L5.52226 7.27109L14.5869 7.27109L14.5869 5.89902C14.5869 5.133 14.0908 4.61738 13.3426 4.61738ZM9.3207 6.16152C9.3207 6.42421 9.10058 6.64609 8.82812 6.64609C8.54941 6.64609 8.34355 6.42421 8.34355 6.16152C8.34355 5.88105 8.54941 5.65117 8.82812 5.65117C9.10058 5.65117 9.3207 5.88105 9.3207 6.16152ZM7.7289 5.9705C7.82968 6.13418 7.77851 6.36582 7.60683 6.46484C7.43515 6.56386 7.21503 6.50644 7.11425 6.34276C7.01523 6.16132 7.07089 5.9412 7.24433 5.84218C7.41601 5.74316 7.62988 5.79082 7.7289 5.9705Z" fill="white" fill-opacity="0.85"/>
 </g>
</svg>
