<?xml version="1.0" encoding="UTF-8"?>
<!--Generator: Apple Native CoreSVG 341-->
<!DOCTYPE svg
PUBLIC "-//W3C//DTD SVG 1.1//EN"
       "http://www.w3.org/Graphics/SVG/1.1/DTD/svg11.dtd">
<svg version="1.1" xmlns="http://www.w3.org/2000/svg" xmlns:xlink="http://www.w3.org/1999/xlink" viewBox="0 0 29.3703 25.0891">
 <g>
  <rect height="25.0891" opacity="0" width="29.3703" x="0" y="0"/>
  <path d="M26.356 5.18457L26.356 10.2035C25.7354 10.0179 25.085 10.0705 24.4832 10.3555L24.4832 5.3C24.4832 4.87636 24.2221 4.62324 23.8082 4.62324L5.20077 4.62324C4.7869 4.62324 4.52577 4.87636 4.52577 5.3L4.52577 16.8441C4.52577 17.258 4.7869 17.5191 5.20077 17.5191L18.851 17.5191L17.0887 19.2814C16.3996 19.3656 15.8429 19.718 15.5234 20.3066L14.5726 21.9699C14.4176 22.2673 14.3422 22.5988 14.3489 22.9221L11.2721 22.9221C10.7861 22.9221 10.3941 22.5195 10.3941 22.0361C10.3941 21.5527 10.7861 21.1519 11.2721 21.1519L11.3201 21.1519L11.3201 19.392L5.09511 19.392C3.56933 19.392 2.65293 18.4756 2.65293 16.9498L2.65293 5.18457C2.65293 3.66055 3.56933 2.75216 5.09511 2.75216L23.9236 2.75216C25.4396 2.75216 26.356 3.66055 26.356 5.18457Z" fill="white" fill-opacity="0.85"/>
  <path d="M20.458 16.099C20.1998 16.3572 20.1998 16.7023 20.458 16.965L22.4689 18.9875C22.7289 19.2457 23.0785 19.2297 23.3367 18.9795L23.9187 18.3717C23.7482 18.1133 23.7695 17.7678 24.0094 17.5377C24.2314 17.3139 24.5689 17.2846 24.8433 17.4648L27.4424 14.864C28.093 14.2135 28.101 13.4404 27.4629 12.8006L26.6369 11.9746C25.9873 11.3285 25.2338 11.3445 24.5717 12.0031L21.9664 14.5861C22.1512 14.8668 22.1219 15.2043 21.8918 15.4361C21.6599 15.6617 21.3224 15.6875 21.0498 15.5187ZM23.2849 15.0017L25.2377 13.0588C25.3246 12.9719 25.4754 12.9736 25.5721 13.0588C25.6625 13.1412 25.6527 13.292 25.5658 13.3806L23.6006 15.3299C23.5039 15.4283 23.3754 15.4185 23.2982 15.3379C23.1998 15.2394 23.1883 15.1047 23.2849 15.0017ZM24.1156 15.8209L26.0568 13.8814C26.1455 13.791 26.2918 13.791 26.3769 13.8814C26.4656 13.9879 26.4656 14.1146 26.3769 14.1918L24.4357 16.1525C24.331 16.2474 24.1865 16.2457 24.1094 16.1588C24.0029 16.0621 24.0029 15.9273 24.1156 15.8209ZM16.7613 20.9816L15.8088 22.6387C15.7281 22.809 15.7023 22.965 15.8158 23.0705L16.3545 23.6109C16.4679 23.7244 16.6195 23.6951 16.7863 23.6162L18.4531 22.6752C18.6244 22.582 18.7371 22.3894 18.7441 22.2289L18.7689 21.7172L21.5025 18.9933L20.4396 17.934L17.7176 20.6561L17.2121 20.6924C17.0293 20.7039 16.8545 20.8086 16.7613 20.9816Z" fill="white" fill-opacity="0.85"/>
 </g>
</svg>
