<?xml version="1.0" encoding="UTF-8"?>
<!--Generator: Apple Native CoreSVG 341-->
<!DOCTYPE svg
PUBLIC "-//W3C//DTD SVG 1.1//EN"
       "http://www.w3.org/Graphics/SVG/1.1/DTD/svg11.dtd">
<svg version="1.1" xmlns="http://www.w3.org/2000/svg" xmlns:xlink="http://www.w3.org/1999/xlink" viewBox="0 0 26.5814 23.4937">
 <g>
  <rect height="23.4937" opacity="0" width="26.5814" x="0" y="0"/>
  <path d="M2.33085 21.3922L5.82069 21.3922C7.30975 21.3922 8.15331 20.5308 8.15331 19.0142L8.15331 4.47147C8.15331 2.95487 7.30975 2.10156 5.82069 2.10156L2.33085 2.10156C0.843552 2.10156 0 2.95487 0 4.47147L0 19.0142C0 20.5308 0.843552 21.3922 2.33085 21.3922ZM17.0476 17.9834L20.5295 17.9834C22.0185 17.9834 22.8701 17.1283 22.8701 15.6117L22.8701 7.8705C22.8701 6.35566 22.0185 5.50234 20.5295 5.50234L17.0476 5.50234C15.5603 5.50234 14.7088 6.35566 14.7088 7.8705L14.7088 15.6117C14.7088 17.1283 15.5603 17.9834 17.0476 17.9834Z" fill="white" fill-opacity="0.85"/>
  <path d="M10.6217 23.4857C11.0974 23.4857 11.5033 23.1119 11.5033 22.6379L11.5033 0.846087C11.5033 0.372067 11.0974 0 10.6217 0C10.1494 0 9.73553 0.372067 9.73553 0.846087L9.73553 22.6379C9.73553 23.1119 10.1494 23.4857 10.6217 23.4857ZM25.3322 23.4857C25.8062 23.4857 26.2201 23.1119 26.2201 22.6379L26.2201 0.846087C26.2201 0.372067 25.8062 0 25.3322 0C24.8582 0 24.4523 0.372067 24.4523 0.846087L24.4523 22.6379C24.4523 23.1119 24.8582 23.4857 25.3322 23.4857Z" fill="white" fill-opacity="0.85"/>
 </g>
</svg>
