<?xml version="1.0" encoding="UTF-8"?>
<!--Generator: Apple Native CoreSVG 341-->
<!DOCTYPE svg
PUBLIC "-//W3C//DTD SVG 1.1//EN"
       "http://www.w3.org/Graphics/SVG/1.1/DTD/svg11.dtd">
<svg version="1.1" xmlns="http://www.w3.org/2000/svg" xmlns:xlink="http://www.w3.org/1999/xlink" viewBox="0 0 24.359 19.1214">
 <g>
  <rect height="19.1214" opacity="0" width="24.359" x="0" y="0"/>
  <path d="M4.68613 13.2635L19.3115 13.2635C20.8281 13.2635 21.6814 12.4199 21.6814 10.9308L21.6814 8.17108C21.6814 6.69178 20.8281 5.84022 19.3115 5.84022L4.68613 5.84022C3.16953 5.84022 2.31621 6.69178 2.31621 8.17108L2.31621 10.9308C2.31621 12.4199 3.16953 13.2635 4.68613 13.2635ZM4.841 11.4619C4.38163 11.4619 4.11776 11.1963 4.11776 10.7191L4.11776 8.39255C4.11776 7.90564 4.38163 7.64177 4.841 7.64177L19.1531 7.64177C19.616 7.64177 19.8799 7.90564 19.8799 8.39255L19.8799 10.7191C19.8799 11.1963 19.616 11.4619 19.1531 11.4619Z" fill="white" fill-opacity="0.85"/>
  <path d="M0.855852 1.76776L23.1435 1.76776C23.6176 1.76776 23.9976 1.3539 23.9976 0.879876C23.9976 0.404099 23.6176 0 23.1435 0L0.855852 0C0.372067 0 0 0.404099 0 0.879876C0 1.3539 0.372067 1.76776 0.855852 1.76776ZM0.855852 17.3439C0.372067 17.3439 0 17.7498 0 18.2318C0 18.7058 0.372067 19.1117 0.855852 19.1117L23.1435 19.1117C23.6176 19.1117 23.9976 18.7058 23.9976 18.2318C23.9976 17.7498 23.6176 17.3439 23.1435 17.3439Z" fill="white" fill-opacity="0.85"/>
 </g>
</svg>
