<?xml version="1.0" encoding="UTF-8"?>
<!--Generator: Apple Native CoreSVG 341-->
<!DOCTYPE svg
PUBLIC "-//W3C//DTD SVG 1.1//EN"
       "http://www.w3.org/Graphics/SVG/1.1/DTD/svg11.dtd">
<svg version="1.1" xmlns="http://www.w3.org/2000/svg" xmlns:xlink="http://www.w3.org/1999/xlink" viewBox="0 0 20.9068 23.4937">
 <g>
  <rect height="23.4937" opacity="0" width="20.9068" x="0" y="0"/>
  <path d="M4.96542 22.6379C4.96542 23.1119 4.55956 23.4857 4.08554 23.4857C3.61152 23.4857 3.19766 23.1119 3.19766 22.6379L3.19766 20.8345L4.96542 20.8345ZM17.3593 22.6379C17.3593 23.1119 16.9455 23.4857 16.4715 23.4857C15.9974 23.4857 15.5916 23.1119 15.5916 22.6379L15.5916 17.9008L17.3593 17.9008ZM17.3593 0.846087L17.3593 5.58495L15.5916 5.58495L15.5916 0.846087C15.5916 0.372067 15.9974 0 16.4715 0C16.9455 0 17.3593 0.372067 17.3593 0.846087ZM4.96542 0.846087L4.96542 2.65917L3.19766 2.65917L3.19766 0.846087C3.19766 0.372067 3.61152 0 4.08554 0C4.55956 0 4.96542 0.372067 4.96542 0.846087Z" fill="white" fill-opacity="0.85"/>
  <path d="M2.33261 20.8345L5.82245 20.8345C7.30975 20.8345 8.15331 19.9732 8.15331 18.4566L8.15331 5.02909C8.15331 3.51249 7.30975 2.65917 5.82245 2.65917L2.33261 2.65917C0.843552 2.65917 0 3.51249 0 5.02909L0 18.4566C0 19.9732 0.843552 20.8345 2.33261 20.8345ZM2.55233 19.033C2.06542 19.033 1.79979 18.7611 1.79979 18.2982L1.79979 5.18397C1.79979 4.72459 2.06542 4.46072 2.55233 4.46072L5.60898 4.46072C6.08613 4.46072 6.35176 4.72459 6.35176 5.18397L6.35176 18.2982C6.35176 18.7611 6.08613 19.033 5.60898 19.033ZM14.7265 17.9008L18.2164 17.9008C19.7037 17.9008 20.5455 17.0457 20.5455 15.5308L20.5455 7.95311C20.5455 6.43651 19.7037 5.58495 18.2164 5.58495L14.7265 5.58495C13.2357 5.58495 12.3939 6.43651 12.3939 7.95311L12.3939 15.5308C12.3939 17.0457 13.2357 17.9008 14.7265 17.9008ZM14.9365 16.0992C14.4593 16.0992 14.1937 15.8336 14.1937 15.3724L14.1937 8.11776C14.1937 7.65037 14.4593 7.38474 14.9365 7.38474L17.9949 7.38474C18.4801 7.38474 18.7457 7.65037 18.7457 8.11776L18.7457 15.3724C18.7457 15.8336 18.4801 16.0992 17.9949 16.0992Z" fill="white" fill-opacity="0.85"/>
 </g>
</svg>
