<?xml version="1.0" encoding="UTF-8"?>
<!--Generator: Apple Native CoreSVG 341-->
<!DOCTYPE svg
PUBLIC "-//W3C//DTD SVG 1.1//EN"
       "http://www.w3.org/Graphics/SVG/1.1/DTD/svg11.dtd">
<svg version="1.1" xmlns="http://www.w3.org/2000/svg" xmlns:xlink="http://www.w3.org/1999/xlink" viewBox="0 0 24.9638 20.85">
 <g>
  <rect height="20.85" opacity="0" width="24.9638" x="0" y="0"/>
  <path d="M2.71132 17.6844L0.855852 17.6844C0.372067 17.6844 0 17.2723 0 16.7982C0 16.3225 0.372067 15.9166 0.855852 15.9166L2.71132 15.9166ZM24.6025 16.7982C24.6025 17.2723 24.2224 17.6844 23.7484 17.6844L21.8894 17.6844L21.8894 15.9166L23.7484 15.9166C24.2224 15.9166 24.6025 16.3225 24.6025 16.7982ZM6.11386 4.92186L0.855852 4.92186C0.372067 4.92186 0 4.516 0 4.04374C0 3.56797 0.372067 3.1541 0.855852 3.1541L6.11386 3.1541ZM24.2912 4.04374C24.2912 4.516 23.9111 4.92186 23.4371 4.92186L18.4886 4.92186L18.4886 3.1541L23.4371 3.1541C23.9111 3.1541 24.2912 3.56797 24.2912 4.04374Z" fill="white" fill-opacity="0.85"/>
  <path d="M8.48378 8.07948L16.1187 8.07948C17.6353 8.07948 18.4886 7.23593 18.4886 5.74687L18.4886 2.33085C18.4886 0.843552 17.6353 0 16.1187 0L8.48378 0C6.96718 0 6.11386 0.843552 6.11386 2.33085L6.11386 5.74687C6.11386 7.23593 6.96718 8.07948 8.48378 8.07948ZM5.08124 20.8402L19.5195 20.8402C21.0361 20.8402 21.8894 19.9887 21.8894 18.5076L21.8894 15.0916C21.8894 13.6043 21.0361 12.7527 19.5195 12.7527L5.08124 12.7527C3.56464 12.7527 2.71132 13.6043 2.71132 15.0916L2.71132 18.5076C2.71132 19.9887 3.56464 20.8402 5.08124 20.8402Z" fill="white" fill-opacity="0.85"/>
 </g>
</svg>
