<?xml version="1.0" encoding="UTF-8"?>
<!--Generator: Apple Native CoreSVG 341-->
<!DOCTYPE svg
PUBLIC "-//W3C//DTD SVG 1.1//EN"
       "http://www.w3.org/Graphics/SVG/1.1/DTD/svg11.dtd">
<svg version="1.1" xmlns="http://www.w3.org/2000/svg" xmlns:xlink="http://www.w3.org/1999/xlink" viewBox="0 0 19.4748 23.4937">
 <g>
  <rect height="23.4937" opacity="0" width="19.4748" x="0" y="0"/>
  <path d="M5.84823 4.47147L5.84823 19.0142C5.84823 20.5308 6.69178 21.3922 8.18084 21.3922L10.9424 21.3922C12.4217 21.3922 13.2715 20.5308 13.2715 19.0142L13.2715 4.47147C13.2715 2.95487 12.4217 2.10156 10.9424 2.10156L8.18084 2.10156C6.69178 2.10156 5.84823 2.95487 5.84823 4.47147ZM7.64978 4.62635C7.64978 4.16697 7.9154 3.90311 8.39255 3.90311L10.7209 3.90311C11.206 3.90311 11.4717 4.16697 11.4717 4.62635L11.4717 18.8558C11.4717 19.3187 11.206 19.5906 10.7209 19.5906L8.39255 19.5906C7.9154 19.5906 7.64978 19.3187 7.64978 18.8558Z" fill="white" fill-opacity="0.85"/>
  <path d="M17.3457 0.847844L17.3457 22.6396C17.3457 23.1119 17.7578 23.4857 18.2318 23.4857C18.7076 23.4857 19.1134 23.1119 19.1134 22.6396L19.1134 0.847844C19.1134 0.372067 18.7076 0 18.2318 0C17.7578 0 17.3457 0.372067 17.3457 0.847844ZM1.76776 0.847844C1.76776 0.372067 1.3619 0 0.881634 0C0.405856 0 0 0.372067 0 0.847844L0 22.6396C0 23.1119 0.405856 23.4857 0.881634 23.4857C1.3619 23.4857 1.76776 23.1119 1.76776 22.6396Z" fill="white" fill-opacity="0.85"/>
 </g>
</svg>
