<?xml version="1.0" encoding="UTF-8"?>
<!--Generator: Apple Native CoreSVG 341-->
<!DOCTYPE svg
PUBLIC "-//W3C//DTD SVG 1.1//EN"
       "http://www.w3.org/Graphics/SVG/1.1/DTD/svg11.dtd">
<svg version="1.1" xmlns="http://www.w3.org/2000/svg" xmlns:xlink="http://www.w3.org/1999/xlink" viewBox="0 0 18.5894 18.2316">
 <g>
  <rect height="18.2316" opacity="0" width="18.5894" x="0" y="0"/>
  <path d="M3.20351 18.2281L15.0246 18.2281C17.1404 18.2281 18.2281 17.1502 18.2281 15.0646L18.2281 3.17148C18.2281 1.08769 17.1404 0 15.0246 0L3.20351 0C1.0957 0 0 1.08769 0 3.17148L0 15.0646C0 17.1502 1.0957 18.2281 3.20351 18.2281ZM3.31444 16.3148C2.40643 16.3148 1.91327 15.8465 1.91327 14.8977L1.91327 3.34023C1.91327 2.39139 2.40643 1.91503 3.31444 1.91503L14.9137 1.91503C15.8137 1.91503 16.3148 2.39139 16.3148 3.34023L16.3148 14.8977C16.3148 15.8465 15.8137 16.3148 14.9137 16.3148Z" fill="white" fill-opacity="0.85"/>
  <path d="M9.10117 6.7953C9.84296 6.7953 10.3709 6.30546 10.3709 5.67011C10.3709 4.95917 9.85097 4.45956 9.10117 4.45956C8.40468 4.45956 7.86523 4.96718 7.86523 5.67011C7.86523 6.30546 8.40468 6.7953 9.10117 6.7953ZM5.38691 10.006L12.8572 10.006C13.4234 10.006 13.8139 9.67617 13.8139 9.13046C13.8139 8.57851 13.4395 8.24863 12.8572 8.24863L5.38691 8.24863C4.80644 8.24863 4.42226 8.57851 4.42226 9.13046C4.42226 9.67617 4.82245 10.006 5.38691 10.006ZM9.10117 13.7766C9.84296 13.7766 10.3709 13.2787 10.3709 12.6416C10.3709 11.9404 9.85097 11.4426 9.10117 11.4426C8.40468 11.4426 7.86523 11.9404 7.86523 12.6416C7.86523 13.2787 8.40468 13.7766 9.10117 13.7766Z" fill="white" fill-opacity="0.85"/>
 </g>
</svg>
