<?xml version="1.0" encoding="UTF-8"?>
<!--Generator: Apple Native CoreSVG 341-->
<!DOCTYPE svg
PUBLIC "-//W3C//DTD SVG 1.1//EN"
       "http://www.w3.org/Graphics/SVG/1.1/DTD/svg11.dtd">
<svg version="1.1" xmlns="http://www.w3.org/2000/svg" xmlns:xlink="http://www.w3.org/1999/xlink" viewBox="0 0 18.5894 18.2316">
 <g>
  <rect height="18.2316" opacity="0" width="18.5894" x="0" y="0"/>
  <path d="M18.2281 3.17148L18.2281 15.0646C18.2281 17.1502 17.1404 18.2281 15.0246 18.2281L3.20351 18.2281C1.0957 18.2281 0 17.1502 0 15.0646L0 3.17148C0 1.08769 1.0957 0 3.20351 0L15.0246 0C17.1404 0 18.2281 1.08769 18.2281 3.17148ZM7.8332 12.7816C7.8332 13.4471 8.3957 13.9662 9.12226 13.9662C9.90038 13.9662 10.4451 13.4471 10.4451 12.7816C10.4451 12.0441 9.90839 11.5232 9.12226 11.5232C8.3957 11.5232 7.8332 12.0441 7.8332 12.7816ZM5.26445 8.20703C4.65566 8.20703 4.2582 8.55371 4.2582 9.13046C4.2582 9.70273 4.67343 10.0459 5.26445 10.0459L13.0219 10.0459C13.6129 10.0459 14.0184 9.70273 14.0184 9.13046C14.0184 8.55371 13.6307 8.20703 13.0219 8.20703ZM7.8332 5.53808C7.8332 6.20175 8.3957 6.71464 9.12226 6.71464C9.90038 6.71464 10.4451 6.20175 10.4451 5.53808C10.4451 4.79257 9.90839 4.26992 9.12226 4.26992C8.3957 4.26992 7.8332 4.80058 7.8332 5.53808Z" fill="white" fill-opacity="0.85"/>
 </g>
</svg>
