<?xml version="1.0" encoding="UTF-8"?>
<!--Generator: Apple Native CoreSVG 341-->
<!DOCTYPE svg
PUBLIC "-//W3C//DTD SVG 1.1//EN"
       "http://www.w3.org/Graphics/SVG/1.1/DTD/svg11.dtd">
<svg version="1.1" xmlns="http://www.w3.org/2000/svg" xmlns:xlink="http://www.w3.org/1999/xlink" viewBox="0 0 20.5381 20.1848">
 <g>
  <rect height="20.1848" opacity="0" width="20.5381" x="0" y="0"/>
  <path d="M20.1767 10.0875C20.1767 15.6478 15.6576 20.175 10.0875 20.175C4.52715 20.175 0 15.6478 0 10.0875C0 4.51914 4.52715 0 10.0875 0C15.6576 0 20.1767 4.51914 20.1767 10.0875ZM8.78066 13.7582C8.78066 14.4236 9.34492 14.9428 10.0715 14.9428C10.8496 14.9428 11.3926 14.4236 11.3926 13.7582C11.3926 13.0207 10.8576 12.4998 10.0715 12.4998C9.34492 12.4998 8.78066 13.0207 8.78066 13.7582ZM6.21367 9.18359C5.59687 9.18359 5.20742 9.53027 5.20742 10.107C5.20742 10.6793 5.61288 11.0225 6.21367 11.0225L13.9693 11.0225C14.5621 11.0225 14.9676 10.6793 14.9676 10.107C14.9676 9.53027 14.5781 9.18359 13.9693 9.18359ZM8.78066 6.51464C8.78066 7.17831 9.34492 7.6912 10.0715 7.6912C10.8496 7.6912 11.3926 7.17831 11.3926 6.51464C11.3926 5.76913 10.8576 5.24648 10.0715 5.24648C9.34492 5.24648 8.78066 5.77714 8.78066 6.51464Z" fill="white" fill-opacity="0.85"/>
 </g>
</svg>
