<?xml version="1.0" encoding="UTF-8"?>
<!--Generator: Apple Native CoreSVG 341-->
<!DOCTYPE svg
PUBLIC "-//W3C//DTD SVG 1.1//EN"
       "http://www.w3.org/Graphics/SVG/1.1/DTD/svg11.dtd">
<svg version="1.1" xmlns="http://www.w3.org/2000/svg" xmlns:xlink="http://www.w3.org/1999/xlink" viewBox="0 0 20.5381 20.1848">
 <g>
  <rect height="20.1848" opacity="0" width="20.5381" x="0" y="0"/>
  <path d="M10.0875 20.175C15.6576 20.175 20.1767 15.6559 20.1767 10.0875C20.1767 4.51914 15.6576 0 10.0875 0C4.51914 0 0 4.51914 0 10.0875C0 15.6559 4.51914 20.175 10.0875 20.175ZM10.0875 18.1879C5.60839 18.1879 1.9871 14.5666 1.9871 10.0875C1.9871 5.60839 5.60839 1.9871 10.0875 1.9871C14.5666 1.9871 18.1897 5.60839 18.1897 10.0875C18.1897 14.5666 14.5666 18.1879 10.0875 18.1879Z" fill="white" fill-opacity="0.85"/>
  <path d="M10.0635 7.77187C10.8035 7.77187 11.3314 7.28202 11.3314 6.64667C11.3314 5.93574 10.8115 5.43613 10.0635 5.43613C9.36523 5.43613 8.82754 5.94374 8.82754 6.64667C8.82754 7.28202 9.36523 7.77187 10.0635 7.77187ZM6.34921 10.9826L13.8178 10.9826C14.384 10.9826 14.7744 10.6527 14.7744 10.107C14.7744 9.55507 14.4 9.22519 13.8178 9.22519L6.34921 9.22519C5.75898 9.22519 5.38456 9.55507 5.38456 10.107C5.38456 10.6527 5.77499 10.9826 6.34921 10.9826ZM10.0635 14.7531C10.8035 14.7531 11.3314 14.2553 11.3314 13.6182C11.3314 12.917 10.8115 12.4191 10.0635 12.4191C9.36523 12.4191 8.82754 12.917 8.82754 13.6182C8.82754 14.2553 9.36523 14.7531 10.0635 14.7531Z" fill="white" fill-opacity="0.85"/>
 </g>
</svg>
