<?xml version="1.0" encoding="UTF-8"?>
<!--Generator: Apple Native CoreSVG 341-->
<!DOCTYPE svg
PUBLIC "-//W3C//DTD SVG 1.1//EN"
       "http://www.w3.org/Graphics/SVG/1.1/DTD/svg11.dtd">
<svg version="1.1" xmlns="http://www.w3.org/2000/svg" xmlns:xlink="http://www.w3.org/1999/xlink" viewBox="0 0 23.4906 18.2316">
 <g>
  <rect height="18.2316" opacity="0" width="23.4906" x="0" y="0"/>
  <path d="M4.20898 18.2316L19.124 18.2316C21.6518 18.2316 23.1293 16.6963 23.1293 14.0209L23.1293 4.2205C23.1293 1.54512 21.6518 0.00351548 19.124 0.00351548L4.20898 0.00351548C1.54336 0.00351548 0 1.54512 0 4.2205L0 14.0209C0 16.6963 1.54336 18.2316 4.20898 18.2316ZM4.31191 16.3184C2.79628 16.3184 1.91327 15.4434 1.91327 13.926L1.91327 4.31542C1.91327 2.79979 2.79628 1.91678 4.31191 1.91678L18.8174 1.91678C20.333 1.91678 21.216 2.79979 21.216 4.31542L21.216 13.926C21.216 15.4434 20.333 16.3184 18.8174 16.3184Z" fill="white" fill-opacity="0.85"/>
  <path d="M4.37851 13.9785C4.37851 14.5127 4.74765 14.8703 5.29159 14.8703L17.8652 14.8703C18.4109 14.8703 18.7783 14.5127 18.7783 13.9785L18.7783 12.5576C18.7783 12.0234 18.4109 11.6676 17.8652 11.6676L5.29159 11.6676C4.74765 11.6676 4.37851 12.0234 4.37851 12.5576Z" fill="white" fill-opacity="0.85"/>
  <path d="M11.5744 4.9035L13.0621 6.48339L14.2209 7.68183C14.3691 7.83886 14.5758 7.92753 14.7887 7.92753C15.2438 7.92753 15.5799 7.60566 15.5799 7.16835C15.5799 6.92968 15.4885 6.7416 15.3057 6.58632L12.1936 3.67148C11.9744 3.47011 11.7908 3.38495 11.5744 3.38495C11.3482 3.38495 11.1727 3.47011 10.9535 3.67148L7.83339 6.58632C7.66035 6.7416 7.56718 6.92968 7.56718 7.16835C7.56718 7.60566 7.89531 7.92753 8.34238 7.92753C8.55527 7.92753 8.76991 7.83886 8.92792 7.68183L10.085 6.48339ZM12.3373 5.05038C12.3205 4.62636 11.9949 4.28573 11.5709 4.28573C11.1486 4.28573 10.8195 4.62636 10.8063 5.05038L10.7176 7.23456L10.7176 9.77754C10.7176 10.2387 11.1 10.6033 11.5744 10.6033C12.0471 10.6033 12.4215 10.2387 12.4215 9.77754L12.4215 7.23456Z" fill="white" fill-opacity="0.85"/>
 </g>
</svg>
