<?xml version="1.0" encoding="UTF-8"?>
<!--Generator: Apple Native CoreSVG 341-->
<!DOCTYPE svg
PUBLIC "-//W3C//DTD SVG 1.1//EN"
       "http://www.w3.org/Graphics/SVG/1.1/DTD/svg11.dtd">
<svg version="1.1" xmlns="http://www.w3.org/2000/svg" xmlns:xlink="http://www.w3.org/1999/xlink" viewBox="0 0 23.5156 27.6613">
 <g>
  <rect height="27.6613" opacity="0" width="23.5156" x="0" y="0"/>
  <path d="M21.7347 4.60253L21.7347 18.0281C21.7347 20.1279 20.6551 21.2316 18.5633 21.2316L18.331 21.2316L18.331 15.4535C18.331 13.998 18.0857 12.9434 16.9318 11.7654L11.789 6.54081C10.518 5.24394 9.61034 4.98613 8.10253 4.98613L6.25077 4.98613L6.25077 4.60253C6.25077 2.49296 7.33046 1.39902 9.42225 1.39902L18.5633 1.39902C20.6551 1.39902 21.7347 2.49296 21.7347 4.60253ZM11.6803 3.43867C11.2295 3.43867 11.0201 3.7578 11.0201 4.05878L11.0201 4.27441C11.0201 4.59198 11.2453 4.89452 11.6803 4.89452L16.307 4.89452C16.7322 4.89452 16.9672 4.59198 16.9672 4.27441L16.9672 4.05878C16.9672 3.7578 16.7498 3.43867 16.307 3.43867Z" fill="white" fill-opacity="0.85"/>
  <path d="M1.41953 23.0365C1.41953 25.1461 2.50722 26.24 4.59101 26.24L13.732 26.24C15.8238 26.24 16.9035 25.1363 16.9035 23.0365L16.9035 15.4553L9.96054 15.4553C8.70956 15.4553 8.10253 14.8402 8.10253 13.5973L8.10253 6.40741L4.59101 6.40741C2.50722 6.40741 1.41953 7.50135 1.41953 9.61092ZM10.0545 14.0277L16.7305 14.0242C16.616 13.6117 16.3633 13.218 15.9213 12.76L10.7785 7.53534C10.3267 7.08183 9.93983 6.77831 9.53007 6.65507L9.53007 13.4963C9.53007 13.8459 9.71014 14.0277 10.0545 14.0277Z" fill="white" fill-opacity="0.85"/>
 </g>
</svg>
