<?xml version="1.0" encoding="UTF-8"?>
<!--Generator: Apple Native CoreSVG 341-->
<!DOCTYPE svg
PUBLIC "-//W3C//DTD SVG 1.1//EN"
       "http://www.w3.org/Graphics/SVG/1.1/DTD/svg11.dtd">
<svg version="1.1" xmlns="http://www.w3.org/2000/svg" xmlns:xlink="http://www.w3.org/1999/xlink" viewBox="0 0 20.5381 20.1848">
 <g>
  <rect height="20.1848" opacity="0" width="20.5381" x="0" y="0"/>
  <path d="M20.1767 10.0875C20.1767 15.6478 15.6576 20.175 10.0875 20.175C4.52715 20.175 0 15.6478 0 10.0875C0 4.51914 4.52715 0 10.0875 0C15.6576 0 20.1767 4.51914 20.1767 10.0875ZM13.5807 6.96952C13.0551 6.96952 12.6902 6.60819 12.4496 6.16073C12.0793 6.68027 11.9133 7.09863 10.923 7.43437L6.87636 7.7496C6.76444 7.76562 6.68534 7.7914 6.62851 7.81894L6.283 7.39257C5.68554 6.68867 4.76151 7.52304 5.34647 8.19413L5.72753 8.65781C5.5455 9.108 5.43183 9.65761 5.43183 10.3484C5.43183 11.4041 5.35897 11.699 5.05429 11.9504C4.3121 12.5363 4.01561 12.9332 4.01561 13.6018L4.01561 14.5031C4.01561 15.0305 4.38397 15.4033 4.88554 15.4033L5.85429 15.4033C6.40644 15.4033 6.72694 15.05 6.72694 14.6416C6.72694 14.2004 6.50058 14.0184 6.03983 13.9793C5.82401 13.9402 5.82577 13.6996 6.00604 13.6738C7.16855 13.483 7.86464 12.9027 8.01015 11.893C8.72675 12.3842 9.88945 12.4473 11.0785 12.2971C11.0625 12.9969 10.9746 13.9277 10.9746 14.418C10.9746 15.0189 11.3394 15.4033 11.9209 15.4033L12.7103 15.4033C13.2625 15.4033 13.5785 15.05 13.5785 14.6496C13.5785 14.2244 13.3744 14.0451 12.885 13.974C12.7705 13.9367 12.7092 13.8701 12.735 13.7574C12.8193 13.2945 13.0902 12.283 13.251 11.8248C13.576 10.8508 14.0412 10.2133 14.0412 9.19492C14.0412 8.73652 14.1621 8.46737 14.2643 8.35995C14.6373 8.57753 14.9037 8.68671 15.2713 8.68671C16.0898 8.68671 16.9102 7.86191 16.9102 6.97675C16.9102 6.50898 16.5062 6.48495 16.0436 6.18124C15.6297 5.91308 15.3936 5.55702 15.0207 5.35995C14.9008 5.98495 14.4125 6.96952 13.5807 6.96952ZM15.5588 6.7414C15.5588 6.91191 15.4336 7.03534 15.2728 7.03534C15.0828 7.03534 14.9674 6.91191 14.9674 6.7414C14.9674 6.56112 15.0828 6.43593 15.2728 6.43593C15.4336 6.43593 15.5588 6.56112 15.5588 6.7414ZM13.0025 4.59198C12.6955 4.59198 12.5277 4.758 12.5277 5.04999C12.5277 5.38202 12.874 6.53534 13.5807 6.53534C14.2678 6.53534 14.6238 5.38202 14.6238 5.04999C14.6238 4.758 14.4605 4.59198 14.1525 4.59198Z" fill="white" fill-opacity="0.85"/>
 </g>
</svg>
