<?xml version="1.0" encoding="UTF-8"?>
<!--Generator: Apple Native CoreSVG 341-->
<!DOCTYPE svg
PUBLIC "-//W3C//DTD SVG 1.1//EN"
       "http://www.w3.org/Graphics/SVG/1.1/DTD/svg11.dtd">
<svg version="1.1" xmlns="http://www.w3.org/2000/svg" xmlns:xlink="http://www.w3.org/1999/xlink" viewBox="0 0 24.2049 19.8808">
 <g>
  <rect height="19.8808" opacity="0" width="24.2049" x="0" y="0"/>
  <path d="M23.8435 11.9178C23.8435 9.01855 22.8031 6.3457 21.0623 4.27031C20.8547 4.02011 20.498 4.02011 20.2621 4.2623L17.9578 6.56484C17.7547 6.76796 17.7467 7.05097 17.9232 7.27363C18.9185 8.56269 19.517 10.1768 19.517 11.9178C19.517 13.6826 18.9115 15.3107 17.8488 16.6611C17.6945 16.8535 17.7025 17.0982 17.8719 17.2756L20.2242 19.6279C20.4646 19.8683 20.8133 19.8683 21.0359 19.6066C22.7908 17.5277 23.8435 14.8443 23.8435 11.9178Z" fill="white" fill-opacity="0.85"/>
  <path d="M11.9178 4.32656C13.6783 4.32656 15.2941 4.933 16.5912 5.93183C16.8041 6.09863 17.0791 6.0791 17.2787 5.87773L19.5812 3.57343C19.8252 3.33125 19.8154 2.9791 19.5582 2.76797C17.4926 1.04043 14.8232 0 11.9178 0C9.02031 0 6.35097 1.04043 4.28711 2.76797C4.02988 2.9791 4.01836 3.33125 4.2623 3.57343L6.56484 5.87773C6.76445 6.0791 7.05097 6.09863 7.28163 5.92207C8.56894 4.933 10.1768 4.32656 11.9178 4.32656Z" fill="white" fill-opacity="0.85"/>
  <path d="M0 11.9178C0 14.8461 1.05625 17.5348 2.81465 19.6137C3.02402 19.8719 3.3789 19.8683 3.61308 19.6279L5.96367 17.2756C6.133 17.0982 6.15077 16.8535 5.99472 16.6611C4.93378 15.3107 4.32656 13.6826 4.32656 11.9178C4.32656 10.1768 4.91699 8.56269 5.92031 7.27363C6.08886 7.05097 6.08886 6.76796 5.88574 6.56484L3.58144 4.2623C3.33926 4.02011 2.98711 4.02187 2.77422 4.2791C1.03867 6.35097 0 9.02031 0 11.9178Z" fill="white" fill-opacity="0.85"/>
  <path d="M11.9082 16.2332C13.5779 16.2332 15.1123 15.475 15.1123 13.7637C15.1123 12.2891 13.9525 11.7297 12.5875 11.4119L11.6605 11.2023C10.7916 11.0035 10.134 10.6721 10.134 9.9416C10.134 9.10351 11.0316 8.72675 11.9135 8.72675C12.7941 8.72675 13.4283 9.09745 13.6937 9.83593C13.8213 10.151 14.0314 10.3133 14.3303 10.3133C14.6316 10.3133 14.9367 10.1279 14.9367 9.75449C14.9367 8.50976 13.3545 7.63515 11.9082 7.63515C10.3078 7.63515 8.84336 8.50351 8.84336 10.0523C8.84336 11.5092 10.0492 12.0771 11.2873 12.3684L12.2178 12.5779C13.0676 12.7725 13.8252 13.0533 13.8252 13.8814C13.8252 14.8369 12.8912 15.1496 11.9295 15.1496C10.9594 15.1496 10.2947 14.8492 9.97401 14.0084C9.82421 13.6881 9.64687 13.5498 9.34628 13.5498C8.99882 13.5498 8.72929 13.76 8.72929 14.1314C8.72929 14.2422 8.76386 14.3672 8.80722 14.4922C9.18535 15.6863 10.5744 16.2332 11.9082 16.2332ZM11.908 17.3672C12.083 17.3672 12.2242 17.226 12.2242 17.059L12.2242 6.82812C12.2242 6.65136 12.083 6.51816 11.908 6.51816C11.7393 6.51816 11.598 6.65136 11.598 6.82812L11.598 17.059C11.598 17.226 11.7393 17.3672 11.908 17.3672Z" fill="white" fill-opacity="0.85"/>
 </g>
</svg>
