<?xml version="1.0" encoding="UTF-8"?>
<!--Generator: Apple Native CoreSVG 341-->
<!DOCTYPE svg
PUBLIC "-//W3C//DTD SVG 1.1//EN"
       "http://www.w3.org/Graphics/SVG/1.1/DTD/svg11.dtd">
<svg version="1.1" xmlns="http://www.w3.org/2000/svg" xmlns:xlink="http://www.w3.org/1999/xlink" viewBox="0 0 18.5894 18.2316">
 <g>
  <rect height="18.2316" opacity="0" width="18.5894" x="0" y="0"/>
  <path d="M18.2281 3.17148L18.2281 15.0646C18.2281 17.1502 17.1404 18.2281 15.0246 18.2281L3.20351 18.2281C1.0957 18.2281 0 17.1502 0 15.0646L0 3.17148C0 1.08769 1.0957 0 3.20351 0L15.0246 0C17.1404 0 18.2281 1.08769 18.2281 3.17148ZM8.81503 3.7291L8.81503 4.58847C7.28242 4.70312 5.94258 5.58378 5.94258 7.08886C5.94258 8.60507 7.19453 9.1996 8.4875 9.49608L8.81503 9.57851L8.81503 12.3688C7.99335 12.2994 7.42206 11.9635 7.12714 11.2C6.97382 10.8727 6.78495 10.7148 6.47734 10.7148C6.11308 10.7148 5.83027 10.9445 5.83027 11.3248C5.83027 11.4551 5.85683 11.5738 5.90996 11.7121C6.27558 12.8457 7.52226 13.4219 8.81503 13.509L8.81503 14.3791C8.81503 14.5478 8.958 14.6988 9.13476 14.6988C9.31328 14.6988 9.45624 14.5478 9.45624 14.3791L9.45624 13.5072C11.0637 13.4096 12.4603 12.615 12.4603 10.9402C12.4603 9.41074 11.2625 8.83008 9.84433 8.50078L9.45624 8.41484L9.45624 5.73222C10.2027 5.81307 10.7518 6.18905 10.9844 6.86894C11.1172 7.18749 11.3389 7.36132 11.6545 7.36132C11.9691 7.36132 12.2892 7.17421 12.2892 6.78222C12.2892 5.57753 10.883 4.71367 9.45624 4.59023L9.45624 3.7291C9.45624 3.56035 9.31328 3.41113 9.13476 3.41113C8.958 3.41113 8.81503 3.56035 8.81503 3.7291ZM9.55566 9.74726C10.3916 9.94804 11.1176 10.2457 11.1176 11.0633C11.1176 11.9557 10.3453 12.3119 9.45624 12.3785L9.45624 9.71972ZM8.81503 8.26562L8.73437 8.24258C7.92265 8.04101 7.29511 7.69804 7.29511 6.9746C7.29511 6.22011 8.01757 5.82557 8.81503 5.7287Z" fill="white" fill-opacity="0.85"/>
 </g>
</svg>
