<?xml version="1.0" encoding="UTF-8"?>
<!--Generator: Apple Native CoreSVG 341-->
<!DOCTYPE svg
PUBLIC "-//W3C//DTD SVG 1.1//EN"
       "http://www.w3.org/Graphics/SVG/1.1/DTD/svg11.dtd">
<svg version="1.1" xmlns="http://www.w3.org/2000/svg" xmlns:xlink="http://www.w3.org/1999/xlink" viewBox="0 0 22.7515 21.4965">
 <g>
  <rect height="21.4965" opacity="0" width="22.7515" x="0" y="0"/>
  <path d="M12.481 0.359374L20.9545 5.24941C21.351 5.47734 21.5363 5.7664 21.5363 6.09277C21.5363 6.53886 21.1851 6.98046 20.5865 6.98046L19.7447 6.98046L19.7447 18.2742L20.3117 18.2742C20.7437 18.2742 20.9947 18.5297 20.9947 18.9572L20.9947 19.7158L21.499 19.7158C21.9797 19.7158 22.3902 20.1148 22.3902 20.5972C22.3902 21.0849 21.9797 21.4867 21.499 21.4867L0.881441 21.4867C0.399022 21.4867 0 21.0832 0 20.5972C0 20.1148 0.399022 19.7158 0.881441 19.7158L1.44999 19.7158L1.44999 18.9572C1.44999 18.5297 1.70898 18.2742 2.14101 18.2742L2.69999 18.2742L2.69999 6.98046L1.85995 6.98046C1.25957 6.98046 0.908396 6.53886 0.908396 6.09277C0.908396 5.7664 1.08574 5.47734 1.49023 5.24941L9.96366 0.359374C10.3523 0.125976 10.7969 0 11.2183 0C11.6398 0 12.0764 0.125976 12.481 0.359374ZM10.9014 6.19588L10.9014 7.05526C9.36249 7.1619 8.03066 8.05057 8.03066 9.55564C8.03066 11.0719 9.2746 11.6664 10.5676 11.9629L10.9014 12.0355L10.9014 14.8275C10.0814 14.7662 9.51014 14.4303 9.21346 13.6668C9.0619 13.3394 8.87303 13.1816 8.55741 13.1816C8.20116 13.1816 7.91835 13.4015 7.91835 13.7916C7.91835 13.9138 7.94491 14.0406 7.99003 14.1691C8.36366 15.3125 9.60858 15.8887 10.9014 15.9758L10.9014 16.8379C10.9014 17.0146 11.0461 17.1639 11.2228 17.1639C11.4014 17.1639 11.5443 17.0146 11.5443 16.8379L11.5443 15.974C13.1517 15.8763 14.5484 15.0818 14.5484 13.4053C14.5484 11.8775 13.3488 11.2951 11.9244 10.9676L11.5443 10.8816L11.5443 8.19724C12.2908 8.27185 12.8318 8.65408 13.0725 9.33572C13.2035 9.65428 13.4269 9.8281 13.7426 9.8281C14.0492 9.8281 14.3773 9.63924 14.3773 9.24901C14.3773 8.04256 12.9711 7.17244 11.5443 7.05701L11.5443 6.19588C11.5443 6.02537 11.4014 5.87615 11.2228 5.87615C11.0461 5.87615 10.9014 6.02537 10.9014 6.19588ZM11.6437 12.214C12.4717 12.4131 13.2057 12.7027 13.2057 13.5283C13.2057 14.4224 12.4254 14.7707 11.5443 14.8355L11.5443 12.1847ZM10.9014 10.7324L10.8224 10.7094C10.0107 10.5078 9.38319 10.1648 9.38319 9.44139C9.38319 8.67888 10.0959 8.2906 10.9014 8.19548Z" fill="white" fill-opacity="0.85"/>
 </g>
</svg>
