<?xml version="1.0" encoding="UTF-8"?>
<!--Generator: Apple Native CoreSVG 341-->
<!DOCTYPE svg
PUBLIC "-//W3C//DTD SVG 1.1//EN"
       "http://www.w3.org/Graphics/SVG/1.1/DTD/svg11.dtd">
<svg version="1.1" xmlns="http://www.w3.org/2000/svg" xmlns:xlink="http://www.w3.org/1999/xlink" viewBox="0 0 24.226 20.1848">
 <g>
  <rect height="20.1848" opacity="0" width="24.226" x="0" y="0"/>
  <path d="M0.721518 8.12363C-0.00973073 8.12363-0.190785 8.66894 0.204136 9.22109L2.47249 12.3723C2.78948 12.8092 3.27757 12.8012 3.58831 12.3723L5.8469 9.21308C6.24007 8.66894 6.051 8.12363 5.33929 8.12363ZM22.0239 10.0875C22.0239 4.51914 17.503 0 11.9364 0C6.368 0 1.85687 4.50937 1.84886 10.099C1.85687 10.6476 2.29378 11.0846 2.83441 11.0846C3.38303 11.0846 3.83596 10.6396 3.83596 10.091C3.83596 5.60839 7.45725 1.9871 11.9364 1.9871C16.4155 1.9871 20.0368 5.60839 20.0368 10.0875C20.0368 14.5666 16.4155 18.1879 11.9364 18.1879C9.3096 18.1879 7.0131 16.9437 5.54279 15.0176C5.1469 14.5609 4.58421 14.4129 4.10726 14.7519C3.66214 15.0734 3.55902 15.725 3.99475 16.2355C5.84631 18.6584 8.71858 20.175 11.9364 20.175C17.503 20.175 22.0239 15.6559 22.0239 10.0875Z" fill="white" fill-opacity="0.85"/>
  <path d="M11.9268 14.3252C13.6063 14.3252 15.1309 13.559 15.1309 11.8459C15.1309 10.3793 13.9791 9.81992 12.6158 9.5039L11.6889 9.28632C10.8182 9.0875 10.1606 8.75429 10.1606 8.03359C10.1606 7.1955 11.06 6.81073 11.9321 6.81073C12.8225 6.81073 13.4549 7.18144 13.7203 7.92792C13.8479 8.23495 14.058 8.3955 14.3569 8.3955C14.6502 8.3955 14.9633 8.21991 14.9633 7.84472C14.9633 6.59999 13.3828 5.72714 11.9268 5.72714C10.3344 5.72714 8.86996 6.5955 8.86996 8.13632C8.86996 9.59316 10.0678 10.1691 11.3077 10.4523L12.2364 10.6682C13.0862 10.8644 13.8518 11.1453 13.8518 11.9654C13.8518 12.9271 12.9178 13.2416 11.9578 13.2416C10.986 13.2416 10.3231 12.9332 9.9926 12.0924C9.85257 11.7801 9.66546 11.6338 9.36487 11.6338C9.02542 11.6338 8.75765 11.8502 8.75765 12.2154C8.75765 12.3342 8.78421 12.4512 8.83382 12.5842C9.21195 13.7766 10.593 14.3252 11.9268 14.3252ZM11.9346 15.4592C12.1016 15.4592 12.2428 15.318 12.2428 15.151L12.2428 4.9121C12.2428 4.74335 12.1016 4.60214 11.9346 4.60214C11.7676 4.60214 11.6264 4.74335 11.6264 4.9121L11.6264 15.151C11.6264 15.318 11.7676 15.4592 11.9346 15.4592Z" fill="white" fill-opacity="0.85"/>
 </g>
</svg>
