<?xml version="1.0" encoding="UTF-8"?>
<!--Generator: Apple Native CoreSVG 341-->
<!DOCTYPE svg
PUBLIC "-//W3C//DTD SVG 1.1//EN"
       "http://www.w3.org/Graphics/SVG/1.1/DTD/svg11.dtd">
<svg version="1.1" xmlns="http://www.w3.org/2000/svg" xmlns:xlink="http://www.w3.org/1999/xlink" viewBox="0 0 22.301 21.9477">
 <g>
  <rect height="21.9477" opacity="0" width="22.301" x="0" y="0"/>
  <path d="M10.9689 21.9379C16.9984 21.9379 21.9396 16.9984 21.9396 10.9689C21.9396 4.93945 16.9984 0 10.9689 0C4.93945 0 0 4.93945 0 10.9689C0 16.9984 4.93945 21.9379 10.9689 21.9379ZM10.9689 18.2242C6.96133 18.2242 3.71367 14.9766 3.71367 10.9689C3.71367 6.95332 6.96133 3.71367 10.9689 3.71367C14.9846 3.71367 18.226 6.95332 18.226 10.9689C18.226 14.9766 14.9846 18.2242 10.9689 18.2242Z" fill="white" fill-opacity="0.85"/>
  <path d="M10.9594 15.2066C12.6371 15.2066 14.1635 14.4404 14.1635 12.7273C14.1635 11.2607 13.0117 10.7014 11.6484 10.3854L10.7215 10.1678C9.85078 9.96895 9.19316 9.63574 9.19316 8.91504C9.19316 8.07695 10.0926 7.69218 10.9646 7.69218C11.8551 7.69218 12.4875 8.06288 12.7529 8.80937C12.8805 9.1164 13.0906 9.27695 13.3895 9.27695C13.6908 9.27695 13.9959 9.10136 13.9959 8.72617C13.9959 7.48144 12.4137 6.60859 10.9594 6.60859C9.36699 6.60859 7.90254 7.47695 7.90254 9.01777C7.90254 10.4746 9.1084 11.0506 10.3482 11.3338L11.2689 11.5496C12.1268 11.7459 12.8844 12.0268 12.8844 12.8469C12.8844 13.8086 11.9504 14.1231 10.9887 14.1231C10.0186 14.1231 9.35566 13.8147 9.02519 12.9738C8.88515 12.6615 8.69804 12.5152 8.40546 12.5152C8.05801 12.5152 7.78848 12.7316 7.78848 13.0969C7.78848 13.2156 7.8168 13.3326 7.86641 13.4656C8.24453 14.658 9.62559 15.2066 10.9594 15.2066ZM10.9672 16.3406C11.1342 16.3406 11.2754 16.1994 11.2754 16.0324L11.2754 5.79355C11.2754 5.6248 11.1342 5.48359 10.9672 5.48359C10.8002 5.48359 10.659 5.6248 10.659 5.79355L10.659 16.0324C10.659 16.1994 10.8002 16.3406 10.9672 16.3406Z" fill="white" fill-opacity="0.85"/>
 </g>
</svg>
