<?xml version="1.0" encoding="UTF-8"?>
<!--Generator: Apple Native CoreSVG 341-->
<!DOCTYPE svg
PUBLIC "-//W3C//DTD SVG 1.1//EN"
       "http://www.w3.org/Graphics/SVG/1.1/DTD/svg11.dtd">
<svg version="1.1" xmlns="http://www.w3.org/2000/svg" xmlns:xlink="http://www.w3.org/1999/xlink" viewBox="0 0 22.7515 21.4965">
 <g>
  <rect height="21.4965" opacity="0" width="22.7515" x="0" y="0"/>
  <path d="M1.44999 18.9656L20.9947 18.9656L20.9947 18.2322C20.9947 17.8064 20.7437 17.551 20.3117 17.551L19.7447 17.551L19.7447 6.98046L20.5865 6.98046C21.1851 6.98046 21.5363 6.53886 21.5363 6.09277C21.5363 5.7664 21.351 5.47734 20.9545 5.24941L12.481 0.359374C12.0764 0.125976 11.6398 0 11.2183 0C10.7969 0 10.3523 0.125976 9.96366 0.359374L1.49023 5.24941C1.08574 5.47734 0.908396 5.7664 0.908396 6.09277C0.908396 6.53886 1.25957 6.98046 1.85995 6.98046L2.69999 6.98046L2.69999 17.551L2.14101 17.551C1.70898 17.551 1.44999 17.8064 1.44999 18.2322ZM4.32401 17.551L4.32401 5.67245L10.8779 1.99999C10.9846 1.93866 11.1072 1.90487 11.2183 1.90487C11.333 1.90487 11.4521 1.93866 11.5668 1.99999L18.1207 5.67245L18.1207 17.551ZM0.881441 21.4867L21.499 21.4867C21.9797 21.4867 22.3902 21.0849 22.3902 20.5972C22.3902 20.1148 21.9797 19.7158 21.499 19.7158L0.881441 19.7158C0.399022 19.7158 0 20.1148 0 20.5972C0 21.0832 0.399022 21.4867 0.881441 21.4867Z" fill="white" fill-opacity="0.85"/>
  <path d="M10.4519 13.8478C11.2672 13.8478 12.0512 13.5316 12.426 12.7848L12.4668 12.7848L12.4685 13.3646C12.4879 13.7078 12.7441 13.943 13.0891 13.943C13.4621 13.943 13.7131 13.6849 13.7131 13.3137L13.7131 7.19999L14.4217 7.19999C14.5922 7.19999 14.7299 7.06229 14.7299 6.89178C14.7299 6.71678 14.5922 6.59334 14.4217 6.59334L13.7113 6.59334L13.7096 6.24744C13.6937 5.86522 13.4525 5.64159 13.073 5.64159C12.6855 5.64159 12.4523 5.86522 12.4365 6.24744L12.4348 6.59334L10.6433 6.59334C10.4728 6.59334 10.3334 6.71678 10.3334 6.89178C10.3334 7.06854 10.4728 7.19999 10.6433 7.19999L12.433 7.19999L12.433 9.12714L12.3939 9.12714C12.0582 8.38925 11.2822 8.05702 10.4519 8.05702C8.97499 8.05702 7.83554 9.19842 7.83554 10.9449C7.83554 12.5756 8.86893 13.8478 10.4519 13.8478ZM10.8107 12.7855C9.76405 12.7855 9.13865 11.9904 9.13865 10.9449C9.13865 9.84959 9.83787 9.10076 10.8107 9.10076C11.8334 9.10076 12.441 9.95545 12.441 10.9449C12.441 12.0064 11.7596 12.7855 10.8107 12.7855ZM8.32655 14.8646C8.32655 15.0494 8.47401 15.1808 8.66054 15.1808L13.6685 15.1808C13.8453 15.1808 13.9928 15.0414 13.9928 14.8646C13.9928 14.6861 13.8453 14.5467 13.6685 14.5467L8.66054 14.5467C8.47401 14.5467 8.32655 14.6861 8.32655 14.8646Z" fill="white" fill-opacity="0.85"/>
 </g>
</svg>
