<?xml version="1.0" encoding="UTF-8"?>
<!--Generator: Apple Native CoreSVG 341-->
<!DOCTYPE svg
PUBLIC "-//W3C//DTD SVG 1.1//EN"
       "http://www.w3.org/Graphics/SVG/1.1/DTD/svg11.dtd">
<svg version="1.1" xmlns="http://www.w3.org/2000/svg" xmlns:xlink="http://www.w3.org/1999/xlink" viewBox="0 0 20.5381 20.1848">
 <g>
  <rect height="20.1848" opacity="0" width="20.5381" x="0" y="0"/>
  <path d="M20.1767 10.0875C20.1767 15.6478 15.6576 20.175 10.0875 20.175C4.52715 20.175 0 15.6478 0 10.0875C0 4.51914 4.52715 0 10.0875 0C15.6576 0 20.1767 4.51914 20.1767 10.0875ZM7.41367 14.2205C7.21738 14.2205 7.06992 14.36 7.06992 14.5562C7.06992 14.7365 7.21738 14.8857 7.41367 14.8857L12.6342 14.8857C12.8127 14.8857 12.9682 14.7365 12.9682 14.5562C12.9682 14.36 12.8127 14.2205 12.6342 14.2205ZM11.3385 5.59433L11.335 5.94023L9.47617 5.94023C9.29589 5.94023 9.15468 6.08144 9.15468 6.25195C9.15468 6.44648 9.29589 6.57968 9.47617 6.57968L11.3332 6.57968L11.3332 8.57773L11.2941 8.57773C10.9486 7.80703 10.1363 7.46953 9.27148 7.46953C7.74141 7.46953 6.55762 8.66054 6.55762 10.4797C6.55762 12.1652 7.62734 13.4951 9.27148 13.4951C10.1293 13.4951 10.9398 13.1594 11.3279 12.3975L11.3687 12.3975L11.3705 12.9853C11.3916 13.3453 11.6611 13.6 12.0211 13.6C12.4127 13.6 12.6787 13.3207 12.6787 12.9291L12.6787 6.57968L13.4121 6.57968C13.5906 6.57968 13.7301 6.44023 13.7301 6.25195C13.7301 6.08144 13.5906 5.94023 13.4121 5.94023L12.6752 5.94023L12.6734 5.59433C12.6559 5.19531 12.3996 4.96015 12.0051 4.96015C11.6105 4.96015 11.3561 5.19531 11.3385 5.59433ZM11.3412 10.4797C11.3412 11.574 10.6385 12.3842 9.64882 12.3842C8.56933 12.3842 7.9289 11.55 7.9289 10.4797C7.9289 9.34003 8.64316 8.56991 9.64882 8.56991C10.7123 8.56991 11.3412 9.44765 11.3412 10.4797Z" fill="white" fill-opacity="0.85"/>
 </g>
</svg>
