<?xml version="1.0" encoding="UTF-8"?>
<!--Generator: Apple Native CoreSVG 341-->
<!DOCTYPE svg
PUBLIC "-//W3C//DTD SVG 1.1//EN"
       "http://www.w3.org/Graphics/SVG/1.1/DTD/svg11.dtd">
<svg version="1.1" xmlns="http://www.w3.org/2000/svg" xmlns:xlink="http://www.w3.org/1999/xlink" viewBox="0 0 14.1 19.2301">
 <g>
  <rect height="19.2301" opacity="0" width="14.1" x="0" y="0"/>
  <path d="M5.27305 16.5394C7.21016 16.5394 8.65703 15.6545 9.32832 14.2818L9.3957 14.2818L9.39746 15.6668C9.43086 16.3182 9.88281 16.7395 10.5172 16.7314C11.1771 16.7314 11.6519 16.2988 11.6519 15.5764L11.6519 3.14043L13.1215 3.13242C13.4722 3.13242 13.7387 2.87578 13.7387 2.53477C13.7387 2.19199 13.4722 1.93711 13.1215 1.93711L11.6484 1.94512L11.6449 1.1082C11.6185 0.436522 11.1267 0 10.4834 0C9.81621 0 9.35351 0.450584 9.32363 1.10995L9.32188 1.94512L5.61933 1.94512C5.26855 1.94512 5.00214 2.2 5.00214 2.54277C5.00214 2.8918 5.26855 3.14043 5.61933 3.14043L9.31836 3.14043L9.31836 7.17227L9.25449 7.17227C8.58926 5.65665 7.01523 4.9211 5.27305 4.9211C2.10469 4.9211 0 7.43692 0 10.7201C0 14.1359 2.20273 16.5394 5.27305 16.5394ZM5.88905 14.5736C3.71854 14.5736 2.40193 12.8984 2.40193 10.7201C2.40193 8.37441 3.87713 6.85956 5.88905 6.85956C7.91972 6.85956 9.32813 8.5498 9.32813 10.7201C9.32813 12.8647 7.91718 14.5736 5.88905 14.5736ZM0.980078 18.5969C0.980078 18.9539 1.24473 19.2105 1.60352 19.2105L11.6029 19.2105C11.9617 19.2105 12.2281 18.9459 12.2281 18.5969C12.2281 18.2461 11.9617 17.9814 11.6029 17.9814L1.60352 17.9814C1.24473 17.9814 0.980078 18.2461 0.980078 18.5969Z" fill="white" fill-opacity="0.85"/>
 </g>
</svg>
