<?xml version="1.0" encoding="UTF-8"?>
<!--Generator: Apple Native CoreSVG 341-->
<!DOCTYPE svg
PUBLIC "-//W3C//DTD SVG 1.1//EN"
       "http://www.w3.org/Graphics/SVG/1.1/DTD/svg11.dtd">
<svg version="1.1" xmlns="http://www.w3.org/2000/svg" xmlns:xlink="http://www.w3.org/1999/xlink" viewBox="0 0 24.226 20.1848">
 <g>
  <rect height="20.1848" opacity="0" width="24.226" x="0" y="0"/>
  <path d="M0.721518 8.12363C-0.00973073 8.12363-0.190785 8.66894 0.204136 9.22109L2.47249 12.3723C2.78948 12.8092 3.27757 12.8012 3.58831 12.3723L5.8469 9.21308C6.24007 8.66894 6.051 8.12363 5.33929 8.12363ZM22.0239 10.0875C22.0239 4.51914 17.503 0 11.9364 0C6.368 0 1.85687 4.50937 1.84886 10.099C1.85687 10.6476 2.29378 11.0846 2.83441 11.0846C3.38303 11.0846 3.83596 10.6396 3.83596 10.091C3.83596 5.60839 7.45725 1.9871 11.9364 1.9871C16.4155 1.9871 20.0368 5.60839 20.0368 10.0875C20.0368 14.5666 16.4155 18.1879 11.9364 18.1879C9.3096 18.1879 7.0131 16.9437 5.54279 15.0176C5.1469 14.5609 4.58421 14.4129 4.10726 14.7519C3.66214 15.0734 3.55902 15.725 3.99475 16.2355C5.84631 18.6584 8.71858 20.175 11.9364 20.175C17.503 20.175 22.0239 15.6559 22.0239 10.0875Z" fill="white" fill-opacity="0.85"/>
  <path d="M11.1619 13.3596C11.9834 13.3596 12.7594 13.0353 13.136 12.2965L13.1768 12.2965L13.1786 12.8684C13.1961 13.2115 13.4524 13.4547 13.7991 13.4547C14.1721 13.4547 14.4231 13.1887 14.4231 12.8156L14.4231 6.7037L15.1317 6.7037C15.3004 6.7037 15.4399 6.57226 15.4399 6.3955C15.4399 6.22851 15.3004 6.09706 15.1317 6.09706L14.4213 6.09706L14.4196 5.75917C14.402 5.37694 14.1608 5.15331 13.783 5.15331C13.4035 5.15331 13.1623 5.37694 13.1465 5.75917L13.143 6.09706L11.3516 6.09706C11.1828 6.09706 11.0434 6.22851 11.0434 6.3955C11.0434 6.57851 11.1828 6.7037 11.3516 6.7037L13.1412 6.7037L13.1412 8.63086L13.1022 8.63086C12.7682 7.89296 11.9922 7.56874 11.1619 7.56874C9.685 7.56874 8.54554 8.71015 8.54554 10.4566C8.54554 12.0793 9.57894 13.3596 11.1619 13.3596ZM11.5207 12.2973C10.4741 12.2973 9.85491 11.4924 9.85491 10.4566C9.85491 9.36132 10.5479 8.61249 11.5207 8.61249C12.5416 8.61249 13.1493 9.45917 13.1493 10.4566C13.1493 11.5182 12.4678 12.2973 11.5207 12.2973ZM9.03656 14.3746C9.03656 14.5531 9.18402 14.6926 9.36878 14.6926L14.3768 14.6926C14.5553 14.6926 14.7028 14.5531 14.7028 14.3746C14.7028 14.1898 14.5553 14.0584 14.3768 14.0584L9.36878 14.0584C9.18402 14.0584 9.03656 14.1898 9.03656 14.3746Z" fill="white" fill-opacity="0.85"/>
 </g>
</svg>
