<?xml version="1.0" encoding="UTF-8"?>
<!--Generator: Apple Native CoreSVG 341-->
<!DOCTYPE svg
PUBLIC "-//W3C//DTD SVG 1.1//EN"
       "http://www.w3.org/Graphics/SVG/1.1/DTD/svg11.dtd">
<svg version="1.1" xmlns="http://www.w3.org/2000/svg" xmlns:xlink="http://www.w3.org/1999/xlink" viewBox="0 0 29.6383 20.968">
 <g>
  <rect height="20.968" opacity="0" width="29.6383" x="0" y="0"/>
  <path d="M0.953509 20.9617C1.48436 20.9617 1.91327 20.5328 1.91327 20.0082L1.91327 2.44491C1.91327 2.12186 2.12186 1.91327 2.42713 1.91327L26.848 1.91327C27.1551 1.91327 27.3637 2.12186 27.3637 2.44491L27.3637 20.0082C27.3637 20.5328 27.7926 20.9617 28.3234 20.9617C28.848 20.9617 29.2769 20.5328 29.2769 20.0082L29.2769 2.26815C29.2769 0.893942 28.3767 0 26.967 0L2.30995 0C0.9082 0 0 0.893942 0 2.26815L0 20.0082C0 20.5328 0.428903 20.9617 0.953509 20.9617Z" fill="white" fill-opacity="0.85"/>
  <path d="M3.39315 20.5461L25.8918 20.5461C26.0605 20.5461 26.2017 20.3969 26.2017 20.2264L26.2017 3.3869C26.2017 3.20838 26.0605 3.06717 25.8918 3.06717L3.39315 3.06717C3.21639 3.06717 3.07518 3.20838 3.07518 3.3869L3.07518 20.2264C3.07518 20.3969 3.21639 20.5461 3.39315 20.5461ZM4.82947 8.5201C4.60076 8.5201 4.43846 8.35955 4.43846 8.13084L4.43846 4.7494C4.43846 4.51893 4.60076 4.35037 4.82947 4.35037L8.22128 4.35037C8.44999 4.35037 8.6203 4.51893 8.6203 4.7494L8.6203 8.13084C8.6203 8.35955 8.44999 8.5201 8.22128 8.5201ZM10.2619 8.5201C10.0332 8.5201 9.86287 8.35955 9.86287 8.13084L9.86287 4.7494C9.86287 4.51893 10.0332 4.35037 10.2619 4.35037L13.6457 4.35037C13.8744 4.35037 14.0447 4.51893 14.0447 4.7494L14.0447 8.13084C14.0447 8.35955 13.8744 8.5201 13.6457 8.5201ZM15.6748 8.5201C15.4461 8.5201 15.2838 8.35955 15.2838 8.13084L15.2838 4.7494C15.2838 4.51893 15.4461 4.35037 15.6748 4.35037L19.0506 4.35037C19.2713 4.35037 19.4416 4.51893 19.4416 4.7494L19.4416 8.13084C19.4416 8.35955 19.2713 8.5201 19.1146 8.5201ZM21.0717 8.5201C20.843 8.5201 20.6806 8.35955 20.6806 8.13084L20.6806 4.7494C20.6806 4.51893 20.843 4.35037 21.0717 4.35037L24.4474 4.35037C24.6762 4.35037 24.8367 4.51893 24.8367 4.7494L24.8367 8.13084C24.8367 8.35955 24.6762 8.5201 24.5115 8.5201ZM12.5441 18.8658C12.2398 18.8658 12.0199 18.6477 12.0199 18.3514C12.0199 18.0453 12.2398 17.8271 12.5441 17.8271L16.7408 17.8271C17.0371 17.8271 17.257 18.0453 17.257 18.3514C17.257 18.6477 17.0371 18.8658 16.7408 18.8658Z" fill="white" fill-opacity="0.85"/>
 </g>
</svg>
