<?xml version="1.0" encoding="UTF-8"?>
<!--Generator: Apple Native CoreSVG 341-->
<!DOCTYPE svg
PUBLIC "-//W3C//DTD SVG 1.1//EN"
       "http://www.w3.org/Graphics/SVG/1.1/DTD/svg11.dtd">
<svg version="1.1" xmlns="http://www.w3.org/2000/svg" xmlns:xlink="http://www.w3.org/1999/xlink" viewBox="0 0 29.6383 20.968">
 <g>
  <rect height="20.968" opacity="0" width="29.6383" x="0" y="0"/>
  <path d="M0.953509 20.9617C1.48436 20.9617 1.91327 20.5328 1.91327 20.0082L1.91327 2.44491C1.91327 2.12186 2.12186 1.91327 2.42713 1.91327L26.848 1.91327C27.1551 1.91327 27.3637 2.12186 27.3637 2.44491L27.3637 20.0082C27.3637 20.5328 27.7926 20.9617 28.3234 20.9617C28.848 20.9617 29.2769 20.5328 29.2769 20.0082L29.2769 2.26815C29.2769 0.893942 28.3767 0 26.967 0L2.30995 0C0.9082 0 0 0.893942 0 2.26815L0 20.0082C0 20.5328 0.428903 20.9617 0.953509 20.9617Z" fill="white" fill-opacity="0.85"/>
  <path d="M3.39315 7.38279L25.8918 7.38279C26.0605 7.38279 26.2017 7.24158 26.2017 7.07283L26.2017 3.3869C26.2017 3.20838 26.0605 3.06717 25.8918 3.06717L3.39315 3.06717C3.21639 3.06717 3.07518 3.20838 3.07518 3.3869L3.07518 7.07283C3.07518 7.24158 3.21639 7.38279 3.39315 7.38279ZM12.5441 5.74432C12.2398 5.74432 12.0199 5.5244 12.0199 5.22811C12.0199 4.92381 12.2398 4.70565 12.5441 4.70565L16.7408 4.70565C17.0371 4.70565 17.257 4.92381 17.257 5.22811C17.257 5.5244 17.0371 5.74432 16.7408 5.74432Z" fill="white" fill-opacity="0.85"/>
 </g>
</svg>
