<?xml version="1.0" encoding="UTF-8"?>
<!--Generator: Apple Native CoreSVG 341-->
<!DOCTYPE svg
PUBLIC "-//W3C//DTD SVG 1.1//EN"
       "http://www.w3.org/Graphics/SVG/1.1/DTD/svg11.dtd">
<svg version="1.1" xmlns="http://www.w3.org/2000/svg" xmlns:xlink="http://www.w3.org/1999/xlink" viewBox="0 0 15.8242 20.968">
 <g>
  <rect height="20.968" opacity="0" width="15.8242" x="0" y="0"/>
  <path d="M0 20.0082C0 20.5328 0.428903 20.9617 0.953509 20.9617C1.48436 20.9617 1.91327 20.5328 1.91327 20.0082L1.91327 2.44491C1.91327 2.12186 2.12186 1.91327 2.42713 1.91327L13.0357 1.91327C13.341 1.91327 13.5496 2.12186 13.5496 2.44491L13.5496 20.0082C13.5496 20.5328 13.9785 20.9617 14.5111 20.9617C15.0357 20.9617 15.4629 20.5328 15.4629 20.0082L15.4629 2.26815C15.4629 0.893942 14.5627 0 13.1547 0L2.30995 0C0.9082 0 0 0.893942 0 2.26815Z" fill="white" fill-opacity="0.85"/>
  <path d="M3.07518 20.3031C3.07518 20.5115 3.24373 20.618 3.45916 20.5275L6.49041 19.2053C6.73807 19.0978 6.841 19.0057 6.841 18.757L6.841 4.84295C6.841 4.60057 6.73807 4.50038 6.49842 4.40272L3.45916 3.07069C3.24373 2.98202 3.07518 3.08846 3.07518 3.30487Z" fill="white" fill-opacity="0.85"/>
 </g>
</svg>
