<?xml version="1.0" encoding="UTF-8"?>
<!--Generator: Apple Native CoreSVG 341-->
<!DOCTYPE svg
PUBLIC "-//W3C//DTD SVG 1.1//EN"
       "http://www.w3.org/Graphics/SVG/1.1/DTD/svg11.dtd">
<svg version="1.1" xmlns="http://www.w3.org/2000/svg" xmlns:xlink="http://www.w3.org/1999/xlink" viewBox="0 0 24.7586 20.968">
 <g>
  <rect height="20.968" opacity="0" width="24.7586" x="0" y="0"/>
  <path d="M0.953509 20.9617C1.48436 20.9617 1.91327 20.5328 1.91327 20.0082L1.91327 2.44491C1.91327 2.12186 2.12186 1.91327 2.42713 1.91327L21.9701 1.91327C22.2754 1.91327 22.484 2.12186 22.484 2.44491L22.484 20.0082C22.484 20.5328 22.9129 20.9617 23.4357 20.9617C23.9683 20.9617 24.3972 20.5328 24.3972 20.0082L24.3972 2.26815C24.3972 0.893942 23.489 0 22.081 0L2.30995 0C0.9082 0 0 0.893942 0 2.26815L0 20.0082C0 20.5328 0.428903 20.9617 0.953509 20.9617Z" fill="white" fill-opacity="0.85"/>
  <path d="M3.39315 7.38279L21.0041 7.38279C21.1809 7.38279 21.3221 7.24158 21.3221 7.07283L21.3221 3.3869C21.3221 3.20838 21.1809 3.06717 21.0041 3.06717L3.39315 3.06717C3.21639 3.06717 3.07518 3.20838 3.07518 3.3869L3.07518 7.07283C3.07518 7.24158 3.21639 7.38279 3.39315 7.38279ZM10.2631 5.74432C9.95878 5.74432 9.74863 5.5244 9.74863 5.22811C9.74863 4.92381 9.95878 4.70565 10.2631 4.70565L14.1342 4.70565C14.4385 4.70565 14.6486 4.92381 14.6486 5.22811C14.6486 5.5244 14.4385 5.74432 14.1342 5.74432Z" fill="white" fill-opacity="0.85"/>
 </g>
</svg>
