<?xml version="1.0" encoding="UTF-8"?>
<!--Generator: Apple Native CoreSVG 341-->
<!DOCTYPE svg
PUBLIC "-//W3C//DTD SVG 1.1//EN"
       "http://www.w3.org/Graphics/SVG/1.1/DTD/svg11.dtd">
<svg version="1.1" xmlns="http://www.w3.org/2000/svg" xmlns:xlink="http://www.w3.org/1999/xlink" viewBox="0 0 15.8242 20.968">
 <g>
  <rect height="20.968" opacity="0" width="15.8242" x="0" y="0"/>
  <path d="M15.4629 20.0082L15.4629 2.26815C15.4629 0.893942 14.5627 0 13.1547 0L2.30995 0C0.9082 0 0 0.893942 0 2.26815L0 20.0082C0 20.5328 0.428903 20.9617 0.953509 20.9617C1.48436 20.9617 1.91327 20.5328 1.91327 20.0082L1.91327 2.44491C1.91327 2.12186 2.12186 1.91327 2.42713 1.91327L13.0357 1.91327C13.341 1.91327 13.5496 2.12186 13.5496 2.44491L13.5496 20.0082C13.5496 20.5328 13.9785 20.9617 14.5111 20.9617C15.0357 20.9617 15.4629 20.5328 15.4629 20.0082Z" fill="white" fill-opacity="0.85"/>
  <path d="M12.3894 20.3031L12.3894 3.30487C12.3894 3.08846 12.2191 2.98202 12.0037 3.07069L8.96444 4.40272C8.7248 4.50038 8.62362 4.60057 8.62362 4.84295L8.62362 18.757C8.62362 19.0057 8.7248 19.0978 8.97245 19.2053L12.0037 20.5275C12.2191 20.618 12.3894 20.5115 12.3894 20.3031Z" fill="white" fill-opacity="0.85"/>
 </g>
</svg>
