<?xml version="1.0" encoding="UTF-8"?>
<!--Generator: Apple Native CoreSVG 341-->
<!DOCTYPE svg
PUBLIC "-//W3C//DTD SVG 1.1//EN"
       "http://www.w3.org/Graphics/SVG/1.1/DTD/svg11.dtd">
<svg version="1.1" xmlns="http://www.w3.org/2000/svg" xmlns:xlink="http://www.w3.org/1999/xlink" viewBox="0 0 15.8242 20.968">
 <g>
  <rect height="20.968" opacity="0" width="15.8242" x="0" y="0"/>
  <path d="M14.5111 20.9617C15.0357 20.9617 15.4629 20.5328 15.4629 20.0082L15.4629 2.26815C15.4629 0.893942 14.5627 0 13.1547 0L2.30995 0C0.9082 0 0 0.893942 0 2.26815L0 20.0082C0 20.5328 0.428903 20.9617 0.953509 20.9617C1.48436 20.9617 1.91327 20.5328 1.91327 20.0082L1.91327 2.44491C1.91327 2.12186 2.12186 1.91327 2.42713 1.91327L13.0357 1.91327C13.341 1.91327 13.5496 2.12186 13.5496 2.44491L13.5496 20.0082C13.5496 20.5328 13.9785 20.9617 14.5111 20.9617Z" fill="white" fill-opacity="0.85"/>
  <path d="M12.0777 20.5461C12.2482 20.5461 12.3894 20.3969 12.3894 20.2264L12.3894 3.3869C12.3894 3.20838 12.2482 3.06717 12.0777 3.06717L3.39315 3.06717C3.21639 3.06717 3.07518 3.20838 3.07518 3.3869L3.07518 20.2264C3.07518 20.3969 3.21639 20.5461 3.39315 20.5461ZM5.41346 12.6646C4.98026 12.6646 4.6287 12.3096 4.6287 11.8799C4.6287 11.4404 4.98026 11.0951 5.41346 11.0951C5.84491 11.0951 6.19647 11.4404 6.19647 11.8799C6.19647 12.3096 5.84491 12.6646 5.41346 12.6646Z" fill="white" fill-opacity="0.85"/>
 </g>
</svg>
