<?xml version="1.0" encoding="UTF-8"?>
<!--Generator: Apple Native CoreSVG 341-->
<!DOCTYPE svg
PUBLIC "-//W3C//DTD SVG 1.1//EN"
       "http://www.w3.org/Graphics/SVG/1.1/DTD/svg11.dtd">
<svg version="1.1" xmlns="http://www.w3.org/2000/svg" xmlns:xlink="http://www.w3.org/1999/xlink" viewBox="0 0 16.6967 19.5675">
 <g>
  <rect height="19.5675" opacity="0" width="16.6967" x="0" y="0"/>
  <path d="M11.3191 19.2781C11.6517 19.647 12.2406 19.6861 12.6416 19.2621C15.001 16.7759 16.3353 13.4457 16.3353 9.81089C16.3353 6.17965 15.017 2.82535 12.6416 0.355238C12.2406-0.0687842 11.6517-0.0297217 11.3191 0.339222C10.9883 0.710901 11.0531 1.22633 11.4275 1.62555C13.4773 3.74976 14.5906 6.64273 14.5906 9.81089C14.5906 12.9808 13.4525 15.8445 11.4275 17.9917C11.0531 18.3927 10.9883 18.9126 11.3191 19.2781Z" fill="white" fill-opacity="0.85"/>
  <path d="M8.41249 16.5662C8.75487 16.9697 9.35272 16.9855 9.7951 16.5138C11.4215 14.7683 12.3121 12.3824 12.3121 9.81089C12.3121 7.24468 11.4119 4.82613 9.7951 3.10973C9.35272 2.6318 8.75487 2.64762 8.41249 3.05914C8.0789 3.44234 8.1871 3.93296 8.55976 4.35621C9.85702 5.77867 10.5674 7.70328 10.5674 9.81089C10.5674 11.914 9.84902 13.8386 8.55976 15.2691C8.1871 15.6906 8.0789 16.175 8.41249 16.5662Z" fill="white" fill-opacity="0.85"/>
  <path d="M5.58847 13.7267C5.93007 14.1285 6.57226 14.1453 6.96855 13.6636C7.81464 12.6423 8.30038 11.2763 8.30038 9.81089C8.30038 8.34722 7.81464 6.9732 6.96855 5.95992C6.57226 5.47027 5.93007 5.48531 5.58847 5.89507C5.26367 6.27652 5.39511 6.73785 5.71191 7.18511C6.24765 7.8771 6.55566 8.83394 6.55566 9.81089C6.55566 10.7878 6.25566 11.7447 5.71191 12.4367C5.38711 12.8777 5.26367 13.3453 5.58847 13.7267Z" fill="white" fill-opacity="0.85"/>
  <path d="M0 9.79839C0 10.7861 0.855467 11.6185 1.86269 11.6185C2.86992 11.6185 3.7041 10.7861 3.7041 9.77886C3.7041 8.75836 2.88945 7.92594 1.86269 7.92594C0.843944 7.92594 0 8.7814 0 9.79839Z" fill="white" fill-opacity="0.85"/>
 </g>
</svg>
