<?xml version="1.0" encoding="UTF-8"?>
<!--Generator: Apple Native CoreSVG 341-->
<!DOCTYPE svg
PUBLIC "-//W3C//DTD SVG 1.1//EN"
       "http://www.w3.org/Graphics/SVG/1.1/DTD/svg11.dtd">
<svg version="1.1" xmlns="http://www.w3.org/2000/svg" xmlns:xlink="http://www.w3.org/1999/xlink" viewBox="0 0 18.5894 18.2476">
 <g>
  <rect height="18.2476" opacity="0" width="18.5894" x="0" y="0"/>
  <path d="M18.2281 0.849021L18.2281 17.4084C18.2281 17.9123 17.9008 18.2476 17.3969 18.2476L0.839255 18.2476C0.335351 18.2476 0 17.9123 0 17.4084L0 0.849021C0 0.346874 0.335351 0.0195312 0.839255 0.0195312L17.3969 0.0195312C17.9008 0.0195312 18.2281 0.346874 18.2281 0.849021ZM5.91914 9.12871C5.91914 10.9021 7.34726 12.3365 9.11894 12.3365C10.8924 12.3365 12.3268 10.9021 12.3268 9.12871C12.3268 7.36504 10.8924 5.9289 9.11894 5.9289C7.34726 5.9289 5.91914 7.36504 5.91914 9.12871Z" fill="white" fill-opacity="0.85"/>
 </g>
</svg>
