<?xml version="1.0" encoding="UTF-8"?>
<!--Generator: Apple Native CoreSVG 341-->
<!DOCTYPE svg
PUBLIC "-//W3C//DTD SVG 1.1//EN"
       "http://www.w3.org/Graphics/SVG/1.1/DTD/svg11.dtd">
<svg version="1.1" xmlns="http://www.w3.org/2000/svg" xmlns:xlink="http://www.w3.org/1999/xlink" viewBox="0 0 29.1125 16.3406">
 <g>
  <rect height="16.3406" opacity="0" width="29.1125" x="0" y="0"/>
  <path d="M0 15.0955C0 15.781 0.561326 16.3406 1.2371 16.3406L27.5123 16.3406C28.1898 16.3406 28.7511 15.781 28.7511 15.0955C28.7511 14.41 28.1898 13.8521 27.5123 13.8521L25.4439 13.8521L25.4439 2.33593C25.4439 0.819332 24.6131 0.0125003 23.1045 0.0125003L5.64667 0.0125003C4.19413 0.0125003 3.30547 0.819332 3.30547 2.33593L3.30547 13.8521L1.2371 13.8521C0.561326 13.8521 0 14.41 0 15.0955ZM5.21873 13.8521L5.21873 2.8369C5.21873 2.22245 5.52244 1.92577 6.12987 1.92577L22.6213 1.92577C23.2269 1.92577 23.5307 2.22245 23.5307 2.8369L23.5307 13.8521Z" fill="white" fill-opacity="0.85"/>
  <path d="M14.3756 11.8725C16.5826 11.8725 18.368 10.0871 18.368 7.88007C18.368 5.67304 16.5826 3.87616 14.3756 3.87616C12.1863 3.87616 10.3894 5.67304 10.3894 7.88007C10.3894 10.0871 12.1863 11.8725 14.3756 11.8725ZM14.3756 10.8764C12.7008 10.8764 11.4086 9.58241 11.4086 7.88007C11.4086 6.17596 12.7008 4.87225 14.3756 4.87225C16.0584 4.87225 17.3506 6.17596 17.3506 7.88007C17.3506 9.58241 16.0682 10.8764 14.3756 10.8764ZM14.3756 2.87733C14.1281 2.87733 13.9135 3.08222 13.9135 3.32968L13.9135 5.67382C13.9135 5.94257 14.1281 6.14393 14.3756 6.14393C14.6328 6.14393 14.8377 5.92929 14.8377 5.67382L14.8377 3.32968C14.8377 3.08397 14.6461 2.87733 14.3756 2.87733ZM16.5703 8.34218L18.9144 8.34218C19.1654 8.34218 19.3846 8.12401 19.3846 7.88007C19.3846 7.62636 19.1654 7.42597 18.9144 7.42597L16.5703 7.42597C16.3246 7.42597 16.118 7.60956 16.118 7.88007C16.118 8.12753 16.3228 8.34218 16.5703 8.34218ZM14.3836 12.8713C14.6408 12.8713 14.8377 12.6646 14.8377 12.4092L14.8377 10.065C14.8377 9.81933 14.6541 9.61269 14.3836 9.61269C14.1281 9.61269 13.9215 9.81757 13.9215 10.065L13.9215 12.4092C13.9215 12.6762 14.1281 12.8713 14.3836 12.8713ZM9.85448 8.34218L12.1906 8.34218C12.4461 8.34218 12.651 8.12753 12.651 7.88007C12.651 7.60956 12.4426 7.42597 12.1906 7.42597L9.85448 7.42597C9.591 7.42597 9.3826 7.62108 9.3826 7.88007C9.3826 8.12753 9.57772 8.34218 9.85448 8.34218ZM14.3853 8.57479C14.7678 8.57479 15.0801 8.26249 15.0801 7.8703C15.0801 7.48788 14.7678 7.18183 14.3853 7.18183C13.9932 7.18183 13.6889 7.48788 13.6889 7.8703C13.6889 8.26249 13.9932 8.57479 14.3853 8.57479Z" fill="white" fill-opacity="0.85"/>
 </g>
</svg>
