<?xml version="1.0" encoding="UTF-8"?>
<!--Generator: Apple Native CoreSVG 341-->
<!DOCTYPE svg
PUBLIC "-//W3C//DTD SVG 1.1//EN"
       "http://www.w3.org/Graphics/SVG/1.1/DTD/svg11.dtd">
<svg version="1.1" xmlns="http://www.w3.org/2000/svg" xmlns:xlink="http://www.w3.org/1999/xlink" viewBox="0 0 18.5894 18.2476">
 <g>
  <rect height="18.2476" opacity="0" width="18.5894" x="0" y="0"/>
  <path d="M18.2281 0.839255L18.2281 17.3986C18.2281 17.9008 17.9008 18.2281 17.3969 18.2281L0.839255 18.2281C0.335351 18.2281 0 17.9008 0 17.3986L0 0.839255C0 0.335351 0.335351 0 0.839255 0L17.3969 0C17.9008 0 18.2281 0.335351 18.2281 0.839255ZM2.1912 16.3148L8.17852 16.3148L8.17852 13.4175C8.48413 13.4882 8.80247 13.524 9.12871 13.524C9.44447 13.524 9.75282 13.4901 10.0496 13.4239L10.0496 16.3148L16.0369 16.3148C16.2412 16.3148 16.3148 16.2412 16.3148 16.0369L16.3148 10.0691L13.4101 10.0691C13.4803 9.76376 13.516 9.44547 13.516 9.11894C13.516 8.80234 13.4819 8.4934 13.4153 8.19629L16.3148 8.19629L16.3148 2.19296C16.3148 1.99491 16.2412 1.91327 16.0369 1.91327L10.0496 1.91327L10.0496 4.84108C9.75282 4.77518 9.44447 4.7414 9.12871 4.7414C8.80247 4.7414 8.48413 4.77711 8.17852 4.84749L8.17852 1.91327L2.1912 1.91327C1.99491 1.91327 1.91327 1.99491 1.91327 2.19296L1.91327 8.19629L4.82295 8.19629C4.75611 8.4934 4.72187 8.80234 4.72187 9.11894C4.72187 9.44547 4.75771 9.76376 4.82824 10.0691L1.91327 10.0691L1.91327 16.0369C1.91327 16.2412 1.99491 16.3148 2.1912 16.3148Z" fill="white" fill-opacity="0.85"/>
  <path d="M9.12871 12.1369C10.7695 12.1369 12.1289 10.7891 12.1289 9.11894C12.1289 7.47812 10.7695 6.12851 9.12871 6.12851C7.46835 6.12851 6.10898 7.47812 6.10898 9.11894C6.10898 10.7891 7.46835 12.1369 9.12871 12.1369Z" fill="white" fill-opacity="0.85"/>
 </g>
</svg>
