<?xml version="1.0" encoding="UTF-8"?>
<!--Generator: Apple Native CoreSVG 341-->
<!DOCTYPE svg
PUBLIC "-//W3C//DTD SVG 1.1//EN"
       "http://www.w3.org/Graphics/SVG/1.1/DTD/svg11.dtd">
<svg version="1.1" xmlns="http://www.w3.org/2000/svg" xmlns:xlink="http://www.w3.org/1999/xlink" viewBox="0 0 32.4677 23.0836">
 <g>
  <rect height="23.0836" opacity="0" width="32.4677" x="0" y="0"/>
  <path d="M10.8615 13.1223L21.2369 13.1223C22.2183 13.1223 22.549 12.4092 22.0594 11.5453L19.083 6.27869C18.6599 5.53651 18.0982 5.19257 17.3338 5.19257L14.9123 5.19257C13.9584 5.19257 13.4367 5.53827 13.0234 6.27869L10.0471 11.5453C9.56092 12.4039 9.88631 13.1223 10.8615 13.1223ZM6.23456 21.1715L12.6502 18.5646L11.2879 15.8652L5.94413 18.0457C5.68866 18.1531 5.58398 18.0508 5.58398 17.8494L5.58398 16.2271C5.58398 15.6885 5.28222 15.3506 4.7205 15.3506L3.4127 15.3506C2.87051 15.3506 2.55723 15.6885 2.55723 16.2271L2.55723 19.0142C2.55723 21.1322 4.00371 22.0771 6.23456 21.1715ZM3.18066 15.673L4.93476 15.673L4.93476 12.9068C4.93476 12.4277 4.55058 12.0205 4.05371 12.0205C3.56308 12.0205 3.18066 12.4277 3.18066 12.9068ZM0.636131 14.3383L7.49882 14.3383C7.883 14.3383 8.1332 14.0064 8.1332 13.6648C8.1332 13.3215 7.883 12.9994 7.49882 12.9994L0.636131 12.9994C0.258203 12.9994 0 13.3215 0 13.6648C0 14.0064 0.258203 14.3383 0.636131 14.3383ZM14.6908 23.0836L17.4156 23.0836C18.0031 23.0836 18.3722 22.6363 18.3722 22.039L18.3722 19.7396L13.7342 19.7396L13.7342 22.039C13.7342 22.6363 14.1033 23.0836 14.6908 23.0836ZM16.0621 22.0929C15.6547 22.0929 15.3111 21.7574 15.3111 21.3437C15.3111 20.9523 15.6547 20.6203 16.0621 20.6203C16.458 20.6203 16.8033 20.9523 16.8033 21.3437C16.8033 21.7574 16.4562 22.0929 16.0621 22.0929ZM13.9539 20.2343L18.1605 20.2343C18.8101 20.2343 19.3763 20.0543 19.6896 19.464L21.9394 15.2338C22.1541 14.839 21.9599 14.5094 21.5592 14.5094L10.5472 14.5094C10.1545 14.5094 9.95233 14.839 10.167 15.2338L12.4168 19.464C12.7221 20.0383 13.2963 20.2343 13.9539 20.2343ZM9.833 9.40545L11.2994 6.80917L10.2969 6.21327C10.1459 6.11112 10.0838 6.0455 10.0838 5.86444L10.0838 4.64042C10.0838 4.09198 9.77401 3.76386 9.2203 3.76386L7.92226 3.76386C7.37207 3.76386 7.05703 4.09198 7.05703 4.64042L7.05703 6.59979C7.05703 7.50135 7.28124 7.93416 7.95487 8.32263ZM25.8718 21.1715C28.1187 22.0851 29.5492 21.1322 29.5492 19.0142L29.5492 16.2271C29.5492 15.6885 29.2439 15.3506 28.6937 15.3506L27.3939 15.3506C26.8322 15.3506 26.5224 15.6885 26.5224 16.2271L26.5224 17.8494C26.5224 18.0508 26.4257 18.1531 26.1703 18.0457L20.9484 15.915L19.4082 18.5388ZM7.67245 4.19882L9.42655 4.19882L9.42655 1.44023C9.42655 0.95312 9.04237 0.547652 8.53749 0.547652C8.05488 0.547652 7.67245 0.95312 7.67245 1.44023ZM5.11992 2.78183L11.9826 2.78183C12.3588 2.78183 12.617 2.45175 12.617 2.11015C12.617 1.7748 12.3588 1.44296 11.9826 1.44296L5.11992 1.44296C4.73398 1.44296 4.48378 1.7748 4.48378 2.11015C4.48378 2.45175 4.73398 2.78183 5.11992 2.78183ZM24.6076 14.3383L31.4703 14.3383C31.8562 14.3383 32.1064 14.0064 32.1064 13.6648C32.1064 13.3215 31.8562 12.9994 31.4703 12.9994L24.6076 12.9994C24.2314 12.9994 23.9732 13.3215 23.9732 13.6648C23.9732 14.0064 24.2314 14.3383 24.6076 14.3383ZM27.1716 15.5254L28.9257 15.5254L28.9257 12.9068C28.9257 12.4277 28.5433 12.0205 28.0607 12.0205C27.5558 12.0205 27.1716 12.4277 27.1716 12.9068ZM22.2877 9.48729L24.1756 8.38845C24.8802 7.98045 25.0894 7.54314 25.0894 6.6158L25.0894 4.67245C25.0894 4.108 24.7681 3.76386 24.2019 3.76386L22.8621 3.76386C22.2826 3.76386 21.9648 4.108 21.9648 4.67245L21.9648 5.85643C21.9648 6.0455 21.9107 6.11288 21.7437 6.22128L20.7679 6.78085ZM22.6799 4.19882L24.434 4.19882L24.434 1.44023C24.434 0.95312 24.0515 0.547652 23.5609 0.547652C23.064 0.547652 22.6799 0.95312 22.6799 1.44023ZM20.1238 2.78183L26.9865 2.78183C27.3644 2.78183 27.6226 2.45175 27.6226 2.11015C27.6226 1.7748 27.3644 1.44296 26.9865 1.44296L20.1238 1.44296C19.7396 1.44296 19.4894 1.7748 19.4894 2.11015C19.4894 2.45175 19.7396 2.78183 20.1238 2.78183Z" fill="white" fill-opacity="0.85"/>
 </g>
</svg>
