<?xml version="1.0" encoding="UTF-8"?>
<!--Generator: Apple Native CoreSVG 341-->
<!DOCTYPE svg
PUBLIC "-//W3C//DTD SVG 1.1//EN"
       "http://www.w3.org/Graphics/SVG/1.1/DTD/svg11.dtd">
<svg version="1.1" xmlns="http://www.w3.org/2000/svg" xmlns:xlink="http://www.w3.org/1999/xlink" viewBox="0 0 36.2468 23.1621">
 <g>
  <rect height="23.1621" opacity="0" width="36.2468" x="0" y="0"/>
  <path d="M13.475 16.016L22.3635 16.016C24.965 16.016 25.5144 13.9558 24.6455 12.2312L22.075 7.16835C21.5451 6.12187 20.8803 5.55293 19.3953 5.55293L16.4742 5.55293C14.9892 5.55293 14.3324 6.12187 13.7945 7.16835L11.193 12.2312C10.3143 13.9443 10.8637 16.016 13.475 16.016ZM6.86288 19.0301L12.8795 16.9176L12.6226 15.4555L6.56172 17.583C4.78437 18.2045 3.75195 17.4785 3.75195 16.0621L3.75195 14.1764C3.75195 14.0041 3.79902 13.9685 3.97402 13.9685L4.47324 13.9685C4.66601 13.9685 4.70508 14.0041 4.70508 14.1764L4.70508 15.7945C4.70508 16.6568 5.23906 16.99 6.16523 16.6599L11.9222 14.6099L12.0322 13.034L6.50585 15.0344C6.25859 15.1266 6.15663 14.9922 6.15663 14.7607L6.15663 13.8178C6.15663 13.1078 5.75995 12.675 5.01484 12.675L3.4209 12.675C2.70586 12.675 2.29063 13.1166 2.29063 13.8371L2.29063 16.3014C2.29063 18.3273 4.03554 20.0262 6.86288 19.0301ZM16.3349 23.1621L19.4857 23.1621C20.123 23.1621 20.5207 22.6748 20.5207 22.0375L20.5207 19.6385L15.2965 19.6385L15.2965 22.0375C15.2965 22.6748 15.6976 23.1621 16.3349 23.1621ZM17.9103 22.1514C17.4619 22.1514 17.0996 21.8051 17.0996 21.3486C17.0996 20.8904 17.4619 20.5476 17.9103 20.5476C18.357 20.5476 18.7211 20.8984 18.7211 21.3486C18.7211 21.8051 18.3473 22.1514 17.9103 22.1514ZM15.418 20.3129L20.4027 20.3129C21.0986 20.3129 21.6969 20.0635 22.0359 19.4945L24.7892 14.7717L22.3779 15.5553L20.7463 18.3379C20.5945 18.5908 20.3764 18.7078 20.0062 18.7078L15.8127 18.7078C15.439 18.7078 15.2244 18.5908 15.0726 18.3379L13.417 15.5072L11.0137 14.7316L13.7848 19.4945C14.1238 20.0635 14.7203 20.3129 15.418 20.3129ZM12.5678 11.1189L13.1115 9.75429L10.1986 8.18515C9.28847 7.69589 9.07616 7.37031 9.07616 6.31425L9.07616 5.00898C9.07616 4.83847 9.12323 4.80116 9.29648 4.80116L9.8037 4.80116C9.98847 4.80116 10.0355 4.83847 10.0355 5.00898L10.0355 6.22089C10.0355 6.92773 10.2273 7.14863 10.7101 7.39179L13.5008 8.8457L14.2078 7.53515L11.7234 6.20332C11.5414 6.10566 11.473 5.98047 11.473 5.83242L11.473 4.65039C11.473 3.94746 11.0834 3.51641 10.3654 3.51641L8.71347 3.51641C8.0248 3.51641 7.62363 3.94746 7.62363 4.65039L7.62363 6.61601C7.62363 8.18241 8.03535 8.73163 9.59082 9.54843ZM13.9213 14.4047C12.7181 14.4047 12.3943 13.5699 12.9305 12.4977L15.2004 8.01386C15.5174 7.39413 15.8306 7.18729 16.5859 7.18729L19.2818 7.18729C20.0371 7.18729 20.3504 7.39413 20.6674 8.01386L22.9213 12.4977C23.4654 13.5699 23.1416 14.4047 21.9385 14.4047ZM13.1424 2.68242C13.5266 2.68242 13.7767 2.36035 13.7767 2.01875C13.7767 1.67539 13.5266 1.34356 13.1424 1.34356L5.95058 1.34356C5.57265 1.34356 5.31445 1.67539 5.31445 2.01875C5.31445 2.36035 5.57265 2.68242 5.95058 2.68242ZM29.0066 19.0301C31.8375 20.0297 33.5789 18.3273 33.5789 16.3014L33.5789 13.8371C33.5789 13.1166 33.1636 12.675 32.4486 12.675L30.8547 12.675C30.1096 12.675 29.7146 13.1078 29.7146 13.8178L29.7146 14.7607C29.7146 14.9922 29.6127 15.1266 29.3637 15.0344L23.8373 13.034L23.9473 14.6099L29.706 16.6599C30.6304 16.99 31.1662 16.6568 31.1662 15.7945L31.1662 14.1764C31.1662 14.0041 31.2035 13.9685 31.3963 13.9685L31.8955 13.9685C32.0705 13.9685 32.1176 14.0041 32.1176 14.1764L32.1176 16.0621C32.1176 17.4785 31.0851 18.2045 29.3158 17.583L23.2469 15.4555L22.99 16.9176ZM23.3017 11.1189L26.2787 9.54843C27.8377 8.72812 28.2459 8.18241 28.2459 6.61601L28.2459 4.65039C28.2459 3.94746 27.8447 3.51641 27.156 3.51641L25.5041 3.51641C24.7861 3.51641 24.3965 3.9457 24.3965 4.65039L24.3965 5.83242C24.3965 5.98047 24.3299 6.10566 24.1461 6.20332L21.6599 7.53691L22.3705 8.8457L25.1594 7.39179C25.6422 7.14863 25.834 6.92773 25.834 6.22089L25.834 5.00898C25.834 4.83847 25.881 4.80116 26.0658 4.80116L26.573 4.80116C26.748 4.80116 26.7933 4.83847 26.7933 5.00898L26.7933 6.31425C26.7933 7.37031 26.581 7.69589 25.6709 8.18515L22.7597 9.75429ZM22.6951 2.68242L29.8851 2.68242C30.2648 2.68242 30.5213 2.36035 30.5213 2.01875C30.5213 1.67539 30.2648 1.34356 29.8851 1.34356L22.6951 1.34356C22.3109 1.34356 22.0607 1.67539 22.0607 2.01875C22.0607 2.36035 22.3109 2.68242 22.6951 2.68242ZM7.82617 11.8578C8.21035 11.8578 8.46054 11.526 8.46054 11.1844C8.46054 10.841 8.21035 10.5092 7.82617 10.5092L0.636131 10.5092C0.258203 10.5092 0 10.841 0 11.1844C0 11.526 0.258203 11.8578 0.636131 11.8578ZM28.0594 11.8578L35.2494 11.8578C35.6291 11.8578 35.8855 11.526 35.8855 11.1844C35.8855 10.841 35.6291 10.5092 35.2494 10.5092L28.0594 10.5092C27.6752 10.5092 27.425 10.841 27.425 11.1844C27.425 11.526 27.6752 11.8578 28.0594 11.8578ZM25.4486 3.95937L27.2027 3.95937L27.2027 1.34082C27.2027 0.853713 26.8203 0.446488 26.3137 0.446488C25.8328 0.446488 25.4486 0.853713 25.4486 1.34082ZM10.4226 3.95937L10.4226 1.34082C10.4226 0.853713 10.0367 0.446488 9.53984 0.446488C9.04921 0.446488 8.66679 0.853713 8.66679 1.34082L8.66679 3.95937ZM30.7711 13.0449L32.5269 13.0449L32.5269 10.4246C32.5269 9.94726 32.1427 9.53203 31.6361 9.53203C31.1552 9.53203 30.7711 9.94726 30.7711 10.4246ZM5.09843 13.0449L5.09843 10.4246C5.09843 9.94726 4.71425 9.53203 4.21738 9.53203C3.72676 9.53203 3.34434 9.94726 3.34434 10.4246L3.34434 13.0449Z" fill="white" fill-opacity="0.85"/>
 </g>
</svg>
