<?xml version="1.0" encoding="UTF-8"?>
<!--Generator: Apple Native CoreSVG 341-->
<!DOCTYPE svg
PUBLIC "-//W3C//DTD SVG 1.1//EN"
       "http://www.w3.org/Graphics/SVG/1.1/DTD/svg11.dtd">
<svg version="1.1" xmlns="http://www.w3.org/2000/svg" xmlns:xlink="http://www.w3.org/1999/xlink" viewBox="0 0 22.0652 16.2082">
 <g>
  <rect height="16.2082" opacity="0" width="22.0652" x="0" y="0"/>
  <path d="M21.7039 3.18925L21.7039 13.0367C21.7039 15.1205 20.6162 16.2082 18.5084 16.2082L3.20351 16.2082C1.0957 16.2082 0 15.1205 0 13.0367L0 3.18925C0 1.10547 1.0957 0.0177735 3.20351 0.0177735L18.5084 0.0177735C20.6162 0.0177735 21.7039 1.10547 21.7039 3.18925ZM12.1186 11.1881C12.1186 11.8414 12.6564 12.3891 13.3213 12.3891C13.9746 12.3891 14.5205 11.8414 14.5205 11.1881C14.5205 10.5348 13.9746 9.98359 13.3213 9.98359C12.6564 9.98359 12.1186 10.5348 12.1186 11.1881ZM15.5572 11.1881C15.5572 11.8414 16.1031 12.3891 16.76 12.3891C17.4133 12.3891 17.9592 11.8414 17.9592 11.1881C17.9592 10.5348 17.4133 9.98359 16.76 9.98359C16.1031 9.98359 15.5572 10.5348 15.5572 11.1881ZM6.81816 4.32792C6.21601 5.26757 5.51074 6.40019 5.07382 7.34335C4.79706 7.92089 4.46933 8.65331 4.46933 9.43749C4.46933 11.0728 5.5996 12.1693 7.28203 12.1693C8.96445 12.1693 10.0965 11.0728 10.0965 9.43749C10.0965 8.65331 9.76699 7.91738 9.49023 7.3416C9.06132 6.40019 8.35605 5.26757 7.74589 4.32792C7.61464 4.12479 7.46835 4.01933 7.28203 4.01933C7.09746 4.01933 6.94941 4.12479 6.81816 4.32792ZM12.1186 8.09921C12.1186 8.75253 12.6564 9.30019 13.3213 9.30019C13.9746 9.30019 14.5205 8.75253 14.5205 8.09921C14.5205 7.44589 13.9746 6.89824 13.3213 6.89824C12.6564 6.89824 12.1186 7.44589 12.1186 8.09921ZM15.5572 8.09921C15.5572 8.75253 16.1031 9.30019 16.76 9.30019C17.4133 9.30019 17.9592 8.75253 17.9592 8.09921C17.9592 7.44589 17.4133 6.89824 16.76 6.89824C16.1031 6.89824 15.5572 7.44589 15.5572 8.09921ZM12.1186 5.01034C12.1186 5.66366 12.6564 6.21308 13.3213 6.21308C13.9746 6.21308 14.5205 5.66366 14.5205 5.01034C14.5205 4.35527 13.9746 3.80761 13.3213 3.80761C12.6564 3.80761 12.1186 4.35527 12.1186 5.01034ZM15.5572 5.01034C15.5572 5.66366 16.1031 6.21308 16.76 6.21308C17.4133 6.21308 17.9592 5.66366 17.9592 5.01034C17.9592 4.35527 17.4133 3.80761 16.76 3.80761C16.1031 3.80761 15.5572 4.35527 15.5572 5.01034Z" fill="white" fill-opacity="0.85"/>
 </g>
</svg>
