<?xml version="1.0" encoding="UTF-8"?>
<!--Generator: Apple Native CoreSVG 341-->
<!DOCTYPE svg
PUBLIC "-//W3C//DTD SVG 1.1//EN"
       "http://www.w3.org/Graphics/SVG/1.1/DTD/svg11.dtd">
<svg version="1.1" xmlns="http://www.w3.org/2000/svg" xmlns:xlink="http://www.w3.org/1999/xlink" viewBox="0 0 20.5381 20.1848">
 <g>
  <rect height="20.1848" opacity="0" width="20.5381" x="0" y="0"/>
  <path d="M10.0875 20.175C15.6576 20.175 20.1767 15.6559 20.1767 10.0875C20.1767 4.51914 15.6576 0 10.0875 0C4.51914 0 0 4.51914 0 10.0875C0 15.6559 4.51914 20.175 10.0875 20.175ZM10.0875 18.1879C5.60839 18.1879 1.9871 14.5666 1.9871 10.0875C1.9871 5.60839 5.60839 1.9871 10.0875 1.9871C14.5666 1.9871 18.1897 5.60839 18.1897 10.0875C18.1897 14.5666 14.5666 18.1879 10.0875 18.1879Z" fill="white" fill-opacity="0.85"/>
  <path d="M13.2238 4.80429L6.8871 4.80429C6.17343 4.80429 5.69413 5.30312 5.69413 6.04257L5.69413 7.36855L14.4168 7.36855L14.4168 6.04257C14.4168 5.30312 13.9375 4.80429 13.2238 4.80429ZM7.52304 6.76659C7.26386 6.76659 7.05351 6.54823 7.05351 6.28906C7.05351 6.02187 7.26386 5.81152 7.52304 5.81152C7.78222 5.81152 7.99257 6.02187 7.99257 6.28906C7.99257 6.54823 7.78222 6.76659 7.52304 6.76659ZM8.87421 6.76659C8.60702 6.76659 8.40468 6.54823 8.40468 6.28906C8.40468 6.02187 8.60702 5.81152 8.87421 5.81152C9.13339 5.81152 9.34374 6.02187 9.34374 6.28906C9.34374 6.54823 9.13339 6.76659 8.87421 6.76659ZM11.6633 6.58456C11.4885 6.58456 11.366 6.4621 11.366 6.28906C11.366 6.11777 11.4885 5.99531 11.6633 5.99531L12.8545 5.99531C13.0275 5.99531 13.15 6.11777 13.15 6.28906C13.15 6.4621 13.0275 6.58456 12.8545 6.58456ZM6.8871 15.3289L13.2238 15.3289C13.9375 15.3289 14.4168 14.8381 14.4168 14.0986L14.4168 8.08652L5.69413 8.08652L5.69413 14.0986C5.69413 14.8381 6.17343 15.3289 6.8871 15.3289ZM8.11171 13.9053C7.71113 13.9053 7.42694 13.6326 7.42694 13.2268L7.42694 9.8373C7.42694 9.43319 7.71113 9.15077 8.11171 9.15077L11.9992 9.15077C12.3998 9.15077 12.684 9.43319 12.684 9.8373L12.684 13.2268C12.684 13.6326 12.3998 13.9053 11.9992 13.9053ZM8.25409 13.2727L11.8568 13.2727C11.975 13.2727 12.0363 13.1998 12.0363 13.0914L12.0363 9.97265C12.0363 9.86425 11.975 9.78339 11.8568 9.78339L8.25409 9.78339C8.13593 9.78339 8.0746 9.86425 8.0746 9.97265L8.0746 13.0914C8.0746 13.1998 8.13593 13.2727 8.25409 13.2727Z" fill="white" fill-opacity="0.85"/>
 </g>
</svg>
