<?xml version="1.0" encoding="UTF-8"?>
<!--Generator: Apple Native CoreSVG 341-->
<!DOCTYPE svg
PUBLIC "-//W3C//DTD SVG 1.1//EN"
       "http://www.w3.org/Graphics/SVG/1.1/DTD/svg11.dtd">
<svg version="1.1" xmlns="http://www.w3.org/2000/svg" xmlns:xlink="http://www.w3.org/1999/xlink" viewBox="0 0 20.5381 20.1848">
 <g>
  <rect height="20.1848" opacity="0" width="20.5381" x="0" y="0"/>
  <path d="M20.1767 10.0973C20.1767 15.6656 15.6576 20.1848 10.0875 20.1848C4.52715 20.1848 0 15.6656 0 10.0973C0 4.53691 4.52715 0.00976562 10.0875 0.00976562C15.6576 0.00976562 20.1767 4.53691 20.1767 10.0973ZM5.52226 8.02363L5.52226 14.2635C5.52226 15.0295 6.02011 15.5514 6.76835 15.5514L13.3426 15.5514C14.0908 15.5514 14.5869 15.0295 14.5869 14.2635L14.5869 8.02363ZM12.7797 9.84081L12.7797 13.3605C12.7797 13.7797 12.492 14.0639 12.0701 14.0639L8.04081 14.0639C7.61894 14.0639 7.33124 13.7797 7.33124 13.3605L7.33124 9.84081C7.33124 9.42519 7.61894 9.12948 8.04081 9.12948L12.0701 9.12948C12.492 9.12948 12.7797 9.42519 12.7797 9.84081ZM8.18671 9.79843C8.06855 9.79843 8.00722 9.87304 8.00722 9.98143L8.00722 13.2217C8.00722 13.3283 8.06855 13.4029 8.18671 13.4029L11.9242 13.4029C12.0424 13.4029 12.1037 13.3283 12.1037 13.2217L12.1037 9.98143C12.1037 9.87304 12.0424 9.79843 11.9242 9.79843ZM6.76835 4.61738C6.02011 4.61738 5.52226 5.133 5.52226 5.89902L5.52226 7.27109L14.5869 7.27109L14.5869 5.89902C14.5869 5.133 14.0908 4.61738 13.3426 4.61738ZM7.91015 6.16152C7.91015 6.42421 7.69804 6.64609 7.42558 6.64609C7.15488 6.64609 6.933 6.42421 6.933 6.16152C6.933 5.88105 7.15488 5.65117 7.42558 5.65117C7.69804 5.65117 7.91015 5.88105 7.91015 6.16152ZM9.3207 6.16152C9.3207 6.42421 9.10058 6.64609 8.82812 6.64609C8.54941 6.64609 8.34355 6.42421 8.34355 6.16152C8.34355 5.88105 8.54941 5.65117 8.82812 5.65117C9.10058 5.65117 9.3207 5.88105 9.3207 6.16152ZM13.2687 6.16152C13.2687 6.33808 13.1445 6.4623 12.9617 6.4623L11.7244 6.4623C11.5478 6.4623 11.4156 6.33808 11.4156 6.16152C11.4156 5.96894 11.5478 5.84472 11.7244 5.84472L12.9617 5.84472C13.1445 5.84472 13.2687 5.96894 13.2687 6.16152Z" fill="white" fill-opacity="0.85"/>
 </g>
</svg>
