<?xml version="1.0" encoding="UTF-8"?>
<!--Generator: Apple Native CoreSVG 341-->
<!DOCTYPE svg
PUBLIC "-//W3C//DTD SVG 1.1//EN"
       "http://www.w3.org/Graphics/SVG/1.1/DTD/svg11.dtd">
<svg version="1.1" xmlns="http://www.w3.org/2000/svg" xmlns:xlink="http://www.w3.org/1999/xlink" viewBox="0 0 28.5632 20.3918">
 <g>
  <rect height="20.3918" opacity="0" width="28.5632" x="0" y="0"/>
  <path d="M7.38378 7.41561L9.24041 7.41561L9.24041 4.35214C9.24041 2.80038 10.4381 1.85839 12.3703 1.85839L15.8316 1.85839C17.7736 1.85839 18.9695 2.80038 18.9695 4.35214L18.9695 7.41561L20.8261 7.41561L20.8261 4.35214C20.8261 1.6707 18.8812 0 15.8316 0L12.3703 0C9.33045 0 7.38378 1.6707 7.38378 4.35214ZM3.43749 20.3722L24.7644 20.3722C26.8472 20.3722 28.2019 19.0371 28.2019 16.9836L28.2019 11.2178C28.2019 8.17049 26.0599 6.05605 22.9834 6.05605L5.21854 6.05605C2.14199 6.05605 0 8.17049 0 11.2178L0 16.9836C0 19.0371 1.35468 20.3722 3.43749 20.3722ZM5.883 20.3722L5.883 6.05605L7.38378 6.05605L7.38378 20.3722ZM9.24041 20.3722L9.24041 6.05605L10.7412 6.05605L10.7412 20.3722ZM10.7412 13.0576L10.7412 11.5568L17.4687 11.5568L17.4687 13.0576ZM17.4687 20.3722L17.4687 6.05605L18.9695 6.05605L18.9695 20.3722ZM20.8261 20.3722L20.8261 6.05605L22.3287 6.05605L22.3287 20.3722Z" fill="white" fill-opacity="0.85"/>
 </g>
</svg>
