<?xml version="1.0" encoding="UTF-8"?>
<!--Generator: Apple Native CoreSVG 341-->
<!DOCTYPE svg
PUBLIC "-//W3C//DTD SVG 1.1//EN"
       "http://www.w3.org/Graphics/SVG/1.1/DTD/svg11.dtd">
<svg version="1.1" xmlns="http://www.w3.org/2000/svg" xmlns:xlink="http://www.w3.org/1999/xlink" viewBox="0 0 26.2214 15.0008">
 <g>
  <rect height="15.0008" opacity="0" width="26.2214" x="0" y="0"/>
  <path d="M1.4957 12.7238C2.34648 12.7238 2.99941 12.0709 2.99941 11.2396L2.99941 3.75136C2.99941 2.90859 2.34648 2.24941 1.4957 2.24941C0.654685 2.24941 0 2.90859 0 3.75136L0 11.2396C0 12.0709 0.654685 12.7238 1.4957 12.7238ZM6.40155 14.991C7.80584 14.991 8.77381 14.0322 8.77381 12.6787L8.77381 2.32206C8.77381 0.960543 7.80584 0 6.40155 0C5.0035 0 4.0373 0.960543 4.0373 2.32206L4.0373 12.6787C4.0373 14.0322 5.0035 14.991 6.40155 14.991ZM9.88553 9.5244L16.0484 9.5244L16.0484 5.4666L9.88553 5.4666ZM19.5306 14.991C20.9384 14.991 21.9046 14.0322 21.9046 12.6787L21.9046 2.32206C21.9046 0.960543 20.9384 0 19.5306 0C18.1343 0 17.1681 0.960543 17.1681 2.32206L17.1681 12.6787C17.1681 14.0322 18.1343 14.991 19.5306 14.991ZM24.3546 12.7238C25.1974 12.7238 25.8601 12.0709 25.8601 11.2396L25.8601 3.75136C25.8601 2.90859 25.1974 2.24941 24.3546 2.24941C23.5136 2.24941 22.8607 2.90859 22.8607 3.75136L22.8607 11.2396C22.8607 12.0709 23.5136 12.7238 24.3546 12.7238Z" fill="white" fill-opacity="0.85"/>
 </g>
</svg>
