<?xml version="1.0" encoding="UTF-8"?>
<!--Generator: Apple Native CoreSVG 341-->
<!DOCTYPE svg
PUBLIC "-//W3C//DTD SVG 1.1//EN"
       "http://www.w3.org/Graphics/SVG/1.1/DTD/svg11.dtd">
<svg version="1.1" xmlns="http://www.w3.org/2000/svg" xmlns:xlink="http://www.w3.org/1999/xlink" viewBox="0 0 26.0158 15.0554">
 <g>
  <rect height="15.0554" opacity="0" width="26.0158" x="0" y="0"/>
  <path d="M1.98183 12.7572L3.36893 12.7572L3.36893 11.1166L2.06894 11.1166C1.81483 11.1166 1.63886 10.9309 1.63886 10.6848L1.63886 4.34588C1.63886 4.09178 1.81483 3.89803 2.06894 3.89803L3.36893 3.89803L3.36893 2.26093L1.98183 2.26093C0.865818 2.26093 0 3.12499 0 4.24101L0 10.7851C0 11.8879 0.865818 12.7572 1.98183 12.7572ZM5.38143 15.0261L6.05897 15.0261C7.77244 15.0261 8.80584 13.9845 8.80584 12.2369L8.80584 2.80703C8.80584 1.05761 7.78045 0 6.07499 0L5.28358 0C3.67772 0 2.71015 1.05761 2.71015 2.80703L2.71015 12.2369C2.71015 13.9845 3.71151 15.0261 5.38143 15.0261ZM5.40272 13.2826C4.81268 13.2826 4.45193 12.8773 4.45193 12.1947L4.45193 2.84746C4.45193 2.15858 4.78065 1.74354 5.31287 1.74354L6.04745 1.74354C6.67753 1.74354 7.06229 2.15858 7.06229 2.84746L7.06229 12.1947C7.06229 12.8773 6.67753 13.2826 6.03143 13.2826ZM8.34628 6.78788L17.3082 6.78788L17.3082 5.04433L8.34628 5.04433ZM8.34628 9.97205L17.3082 9.97205L17.3082 8.22851L8.34628 8.22851ZM19.5937 15.0261L20.273 15.0261C21.9429 15.0261 22.9443 13.9845 22.9443 12.2369L22.9443 2.80703C22.9443 1.05761 21.975 0 20.3629 0L19.5777 0C17.866 0 16.8486 1.05761 16.8486 2.80703L16.8486 12.2369C16.8486 13.9845 17.882 15.0261 19.5937 15.0261ZM19.623 13.2826C18.9769 13.2826 18.5904 12.8773 18.5904 12.1947L18.5904 2.84746C18.5904 2.15858 18.9689 1.74354 19.607 1.74354L20.3416 1.74354C20.8738 1.74354 21.2025 2.15858 21.2025 2.84746L21.2025 12.1947C21.2025 12.8773 20.8418 13.2826 20.2517 13.2826ZM22.2855 12.7572L23.6726 12.7572C24.7886 12.7572 25.6545 11.8879 25.6545 10.7851L25.6545 4.24101C25.6545 3.12499 24.7886 2.26093 23.6726 2.26093L22.2855 2.26093L22.2855 3.89803L23.5838 3.89803C23.8299 3.89803 24.0156 4.09178 24.0156 4.34588L24.0156 10.6848C24.0156 10.9309 23.8299 11.1166 23.5838 11.1166L22.2855 11.1166Z" fill="white" fill-opacity="0.85"/>
 </g>
</svg>
