<?xml version="1.0" encoding="UTF-8"?>
<!--Generator: Apple Native CoreSVG 341-->
<!DOCTYPE svg
PUBLIC "-//W3C//DTD SVG 1.1//EN"
       "http://www.w3.org/Graphics/SVG/1.1/DTD/svg11.dtd">
<svg version="1.1" xmlns="http://www.w3.org/2000/svg" xmlns:xlink="http://www.w3.org/1999/xlink" viewBox="0 0 20.5381 20.1848">
 <g>
  <rect height="20.1848" opacity="0" width="20.5381" x="0" y="0"/>
  <path d="M10.0875 20.175C15.6576 20.175 20.1767 15.6559 20.1767 10.0875C20.1767 4.51914 15.6576 0 10.0875 0C4.51914 0 0 4.51914 0 10.0875C0 15.6559 4.51914 20.175 10.0875 20.175ZM10.0875 18.1879C5.60839 18.1879 1.9871 14.5666 1.9871 10.0875C1.9871 5.60839 5.60839 1.9871 10.0875 1.9871C14.5666 1.9871 18.1897 5.60839 18.1897 10.0875C18.1897 14.5666 14.5666 18.1879 10.0875 18.1879Z" fill="white" fill-opacity="0.85"/>
  <path d="M7.89843 14.4307L12.3488 14.4307C12.8061 14.4307 13.1164 14.1531 13.1164 13.6975C13.1164 13.2338 12.8061 12.9563 12.3488 12.9563L8.76151 12.9563L8.76151 10.6281L12.1406 10.6281C12.568 10.6281 12.866 10.3869 12.866 9.9621C12.866 9.52304 12.568 9.27207 12.1406 9.27207L8.76151 9.27207L8.76151 7.07186L12.3488 7.07186C12.8061 7.07186 13.1164 6.78631 13.1164 6.33065C13.1164 5.86698 12.8061 5.59745 12.3488 5.59745L7.89843 5.59745C7.26582 5.59745 6.93887 5.99823 6.93887 6.64862L6.93887 13.3795C6.93887 14.0299 7.2623 14.4307 7.89843 14.4307Z" fill="white" fill-opacity="0.85"/>
 </g>
</svg>
