<?xml version="1.0" encoding="UTF-8"?>
<!--Generator: Apple Native CoreSVG 341-->
<!DOCTYPE svg
PUBLIC "-//W3C//DTD SVG 1.1//EN"
       "http://www.w3.org/Graphics/SVG/1.1/DTD/svg11.dtd">
<svg version="1.1" xmlns="http://www.w3.org/2000/svg" xmlns:xlink="http://www.w3.org/1999/xlink" viewBox="0 0 18.5894 18.2316">
 <g>
  <rect height="18.2316" opacity="0" width="18.5894" x="0" y="0"/>
  <path d="M3.20351 18.2281L15.0246 18.2281C17.1404 18.2281 18.2281 17.1502 18.2281 15.0646L18.2281 3.17148C18.2281 1.08769 17.1404 0 15.0246 0L3.20351 0C1.0957 0 0 1.08769 0 3.17148L0 15.0646C0 17.1502 1.0957 18.2281 3.20351 18.2281ZM3.31444 16.3148C2.40643 16.3148 1.91327 15.8465 1.91327 14.8977L1.91327 3.34023C1.91327 2.39139 2.40643 1.91503 3.31444 1.91503L14.9137 1.91503C15.8137 1.91503 16.3148 2.39139 16.3148 3.34023L16.3148 14.8977C16.3148 15.8465 15.8137 16.3148 14.9137 16.3148Z" fill="white" fill-opacity="0.85"/>
  <path d="M6.93788 13.4541L11.3883 13.4541C11.8535 13.4541 12.1559 13.1766 12.1559 12.7209C12.1559 12.2572 11.8535 11.9797 11.3883 11.9797L7.80097 11.9797L7.80097 9.65155L11.1801 9.65155C11.6154 9.65155 11.9055 9.41034 11.9055 8.98554C11.9055 8.54648 11.6154 8.2955 11.1801 8.2955L7.80097 8.2955L7.80097 6.0953L11.3883 6.0953C11.8535 6.0953 12.1559 5.80975 12.1559 5.35409C12.1559 4.89042 11.8535 4.62089 11.3883 4.62089L6.93788 4.62089C6.30351 4.62089 5.98633 5.02167 5.98633 5.67206L5.98633 12.4029C5.98633 13.0533 6.30176 13.4541 6.93788 13.4541Z" fill="white" fill-opacity="0.85"/>
 </g>
</svg>
