<?xml version="1.0" encoding="UTF-8"?>
<!--Generator: Apple Native CoreSVG 341-->
<!DOCTYPE svg
PUBLIC "-//W3C//DTD SVG 1.1//EN"
       "http://www.w3.org/Graphics/SVG/1.1/DTD/svg11.dtd">
<svg version="1.1" xmlns="http://www.w3.org/2000/svg" xmlns:xlink="http://www.w3.org/1999/xlink" viewBox="0 0 34.1961 17.7465">
 <g>
  <rect height="17.7465" opacity="0" width="34.1961" x="0" y="0"/>
  <path d="M8.85858 17.7465C9.44745 17.7465 9.92284 17.2791 9.92284 16.6822C9.92284 16.0933 9.44745 15.6225 8.85858 15.6225C5.08827 15.6225 2.13202 12.6582 2.13202 8.87812C2.13202 5.09804 5.08827 2.14003 8.85858 2.14003C10.9117 2.14003 11.6373 4.1455 9.81327 5.28574L7.53027 6.70507C6.08906 7.60585 5.4998 8.74882 5.4998 9.81991C5.4998 11.4988 6.96132 12.9603 8.81952 12.9603C9.50995 12.9603 10.266 12.7545 11.0035 12.293L13.7312 10.5851C15.4299 9.51483 16.1789 7.9955 16.1789 6.4371C16.1789 2.65898 13.1578 0.00976562 8.85858 0.00976562C3.89453 0.00976562 0 3.91406 0 8.87812C0 13.8422 3.89453 17.7465 8.85858 17.7465ZM24.9761 17.7465C29.9402 17.7465 33.8347 13.8422 33.8347 8.87812C33.8347 3.91406 29.9402 0.00976562 24.9761 0.00976562C20.6769 0.00976562 17.6541 2.65898 17.6541 6.4371C17.6541 7.9955 18.4049 9.51483 20.1035 10.5851L22.8312 12.293C23.5687 12.7545 24.3248 12.9603 25.0152 12.9603C26.8734 12.9603 28.3332 11.4988 28.3332 9.81991C28.3332 8.74882 27.7537 7.60585 26.3027 6.70507L24.0215 5.28574C22.1974 4.1455 22.923 2.14003 24.9761 2.14003C28.7465 2.14003 31.7027 5.09804 31.7027 8.87812C31.7027 12.6582 28.7465 15.6225 24.9761 15.6225C24.3873 15.6225 23.9101 16.0933 23.9101 16.6822C23.9101 17.2791 24.3873 17.7465 24.9761 17.7465Z" fill="white" fill-opacity="0.85"/>
 </g>
</svg>
