<?xml version="1.0" encoding="UTF-8"?>
<!--Generator: Apple Native CoreSVG 341-->
<!DOCTYPE svg
PUBLIC "-//W3C//DTD SVG 1.1//EN"
       "http://www.w3.org/Graphics/SVG/1.1/DTD/svg11.dtd">
<svg version="1.1" xmlns="http://www.w3.org/2000/svg" xmlns:xlink="http://www.w3.org/1999/xlink" viewBox="0 0 14.2638 19.973">
 <g>
  <rect height="19.973" opacity="0" width="14.2638" x="0" y="0"/>
  <path d="M12.8701 6.14745C12.8701 7.61893 12.2275 8.92987 11.1597 9.86717C11.0219 9.98827 10.6996 10.2963 10.5551 10.4797C10.0656 11.0639 9.8701 11.6961 9.8701 12.5555L9.8701 17.7867C9.8701 18.5845 9.35721 19.0842 8.5408 19.0842L7.51991 19.0842C6.7035 19.0842 6.19862 18.5845 6.19862 17.7867L6.19862 12.5555C6.19862 11.6961 5.99334 11.0639 5.5119 10.4797C5.42954 10.3739 5.28421 10.2266 5.15145 10.0978C7.43321 9.85332 9.03787 7.78205 9.03787 5.05722C9.03787 3.55075 8.54467 2.24299 7.71319 1.33873C7.81668 1.32628 7.92266 1.32285 8.02948 1.32285C10.7685 1.32285 12.8701 3.51601 12.8701 6.14745Z" fill="white" fill-opacity="0.85"/>
  <path d="M4.69374 9.08377C6.61952 9.08377 7.99921 7.40663 7.99921 5.05722C7.99921 2.71581 6.61952 1.03867 4.69374 1.03867C2.56601 1.03867 1.03066 2.71581 1.03066 5.05722C1.03066 7.40663 2.56601 9.08377 4.69374 9.08377ZM3.16816 6.71835C2.64823 6.71835 2.233 5.98983 2.233 5.05722C2.233 4.13261 2.64823 3.4041 3.16816 3.4041C3.70585 3.4041 4.12108 4.13261 4.12108 5.05722C4.12108 5.98983 3.70585 6.71835 3.16816 6.71835Z" fill="white" fill-opacity="0.425"/>
 </g>
</svg>
