<?xml version="1.0" encoding="UTF-8"?>
<!--Generator: Apple Native CoreSVG 341-->
<!DOCTYPE svg
PUBLIC "-//W3C//DTD SVG 1.1//EN"
       "http://www.w3.org/Graphics/SVG/1.1/DTD/svg11.dtd">
<svg version="1.1" xmlns="http://www.w3.org/2000/svg" xmlns:xlink="http://www.w3.org/1999/xlink" viewBox="0 0 24.018 15.8883">
 <g>
  <rect height="15.8883" opacity="0" width="24.018" x="0" y="0"/>
  <path d="M4.82187 15.8883L18.8365 15.8883C21.883 15.8883 23.6566 14.2256 23.6566 11.3691L23.6566 6.08222C23.6566 1.97402 21.6906 0.00625014 17.5664 0.00625014L6.09199 0.00625014C1.97402 0.00625014 0 1.97402 0 6.08222L0 11.3691C0 14.2256 1.77714 15.8883 4.82187 15.8883ZM4.81835 13.975C2.80448 13.975 1.91327 13.1549 1.91327 11.3726L1.91327 6.06113C1.92128 3.20292 3.20468 1.91952 6.08066 1.91952L17.584 1.91952C20.4617 1.91952 21.7514 3.20292 21.7514 6.06113L21.7514 11.3726C21.7514 13.1549 20.8601 13.975 18.8383 13.975ZM0.961516 7.01191L22.6969 7.01191L22.6969 5.81621L0.961516 5.81621ZM9.93886 10.0088L13.7258 10.0088C14.2066 10.0088 14.5437 9.67519 14.5437 9.19433C14.5437 8.71972 14.2066 8.37988 13.7258 8.37988L9.93886 8.37988C9.47929 8.37988 9.11464 8.71972 9.11464 9.19433C9.11464 9.67519 9.47929 10.0088 9.93886 10.0088Z" fill="white" fill-opacity="0.85"/>
 </g>
</svg>
