<?xml version="1.0" encoding="UTF-8"?>
<!--Generator: Apple Native CoreSVG 341-->
<!DOCTYPE svg
PUBLIC "-//W3C//DTD SVG 1.1//EN"
       "http://www.w3.org/Graphics/SVG/1.1/DTD/svg11.dtd">
<svg version="1.1" xmlns="http://www.w3.org/2000/svg" xmlns:xlink="http://www.w3.org/1999/xlink" viewBox="0 0 16.4725 13.2176">
 <g>
  <rect height="13.2176" opacity="0" width="16.4725" x="0" y="0"/>
  <path d="M12.4686 3.27447C12.1601 3.21176 11.8408 3.17988 11.5145 3.17988C8.77578 3.17988 6.54668 5.40898 6.54668 8.13788C6.54668 9.07199 6.80601 9.94683 7.2612 10.6909C7.22282 10.6961 7.18314 10.6965 7.14336 10.6965C3.9711 10.6965 1.3793 8.29374 1.3793 5.35312C1.3793 2.40898 3.9711 0 7.14336 0C9.5345 0 11.5901 1.35497 12.4686 3.27447Z" fill="white" fill-opacity="0.85"/>
  <path d="M11.5145 12.1496C13.7205 12.1496 15.5244 10.3537 15.5244 8.13788C15.5244 5.93183 13.7205 4.13769 11.5145 4.13769C9.29863 4.13769 7.50273 5.93183 7.50273 8.13788C7.50273 10.3537 9.29863 12.1496 11.5145 12.1496ZM13.4695 9.8246C12.9564 9.8246 12.557 9.08515 12.557 8.13788C12.557 7.20839 12.9564 6.46093 13.4695 6.46093C13.9631 6.46093 14.3625 7.20839 14.3625 8.13788C14.3625 9.08515 13.9631 9.8246 13.4695 9.8246Z" fill="white" fill-opacity="0.425"/>
 </g>
</svg>
