<?xml version="1.0" encoding="UTF-8"?>
<!--Generator: Apple Native CoreSVG 341-->
<!DOCTYPE svg
PUBLIC "-//W3C//DTD SVG 1.1//EN"
       "http://www.w3.org/Graphics/SVG/1.1/DTD/svg11.dtd">
<svg version="1.1" xmlns="http://www.w3.org/2000/svg" xmlns:xlink="http://www.w3.org/1999/xlink" viewBox="0 0 27.5687 19.973">
 <g>
  <rect height="19.973" opacity="0" width="27.5687" x="0" y="0"/>
  <path d="M12.8701 6.14745C12.8701 7.61893 12.2355 8.92987 11.1597 9.86717C11.0299 9.98827 10.6978 10.2963 10.5551 10.4797C10.0736 11.0639 9.86834 11.6961 9.86834 12.5555L9.86834 17.7867C9.86834 18.5845 9.36346 19.0842 8.53905 19.0842L7.52791 19.0842C6.71151 19.0842 6.19862 18.5845 6.19862 17.7867L6.19862 12.5555C6.19862 11.6961 6.00135 11.0639 5.5119 10.4797C5.42959 10.3739 5.28704 10.2268 5.15472 10.0981C7.43651 9.8559 9.03612 7.78375 9.03612 5.05722C9.03612 3.55087 8.54516 2.2432 7.71613 1.33895C7.82124 1.32637 7.92892 1.32285 8.03748 1.32285C10.7748 1.32285 12.8701 3.51601 12.8701 6.14745ZM19.4956 1.33881C18.6644 2.24306 18.1713 3.55079 18.1713 5.05722C18.1713 7.78298 19.777 9.85473 22.0586 10.0979C21.927 10.2267 21.7824 10.3739 21.6955 10.4797C21.214 11.0639 21.0168 11.6961 21.0168 12.5555L21.0168 17.7867C21.0168 18.5845 20.5039 19.0842 19.6875 19.0842L18.6683 19.0842C17.8519 19.0842 17.339 18.5845 17.339 17.7867L17.339 12.5555C17.339 11.6961 17.1418 11.0639 16.6603 10.4797C16.5095 10.2963 16.1855 9.98827 16.0476 9.86717C14.9799 8.92987 14.3453 7.61893 14.3453 6.14745C14.3453 3.51601 16.4406 1.32285 19.1779 1.32285C19.2852 1.32285 19.3917 1.32631 19.4956 1.33881Z" fill="white" fill-opacity="0.85"/>
  <path d="M4.70175 9.08377C6.61952 9.08377 8.00546 7.40663 8.00546 5.05722C8.00546 2.71581 6.61952 1.03867 4.70175 1.03867C2.57226 1.03867 1.03867 2.71581 1.03867 5.05722C1.03867 7.40663 2.57226 9.08377 4.70175 9.08377ZM3.17616 6.71835C2.64823 6.71835 2.233 5.98983 2.233 5.05722C2.233 4.13261 2.64823 3.4041 3.17616 3.4041C3.70585 3.4041 4.11933 4.13261 4.11933 5.05722C4.11933 5.98983 3.70585 6.71835 3.17616 6.71835ZM22.5136 9.08377C24.6431 9.08377 26.1767 7.40663 26.1767 5.05722C26.1767 2.71581 24.6431 1.03867 22.5136 1.03867C20.5959 1.03867 19.2099 2.71581 19.2099 5.05722C19.2099 7.40663 20.5959 9.08377 22.5136 9.08377ZM24.0392 6.71835C23.5015 6.71835 23.0881 5.98983 23.0881 5.05722C23.0881 4.13261 23.5015 3.4041 24.0392 3.4041C24.5591 3.4041 24.9744 4.13261 24.9744 5.05722C24.9744 5.98983 24.5591 6.71835 24.0392 6.71835Z" fill="white" fill-opacity="0.425"/>
 </g>
</svg>
