<?xml version="1.0" encoding="UTF-8"?>
<!--Generator: Apple Native CoreSVG 341-->
<!DOCTYPE svg
PUBLIC "-//W3C//DTD SVG 1.1//EN"
       "http://www.w3.org/Graphics/SVG/1.1/DTD/svg11.dtd">
<svg version="1.1" xmlns="http://www.w3.org/2000/svg" xmlns:xlink="http://www.w3.org/1999/xlink" viewBox="0 0 13.5377 19.973">
 <g>
  <rect height="19.973" opacity="0" width="13.5377" x="0" y="0"/>
  <path d="M5.82508 1.33875C4.99475 2.24301 4.50155 3.55076 4.50155 5.05722C4.50155 7.78418 6.10873 9.85656 8.3868 10.0981C8.2541 10.2268 8.10908 10.374 8.02577 10.4797C7.54432 11.0639 7.34081 11.6961 7.34081 12.5555L7.34081 17.7867C7.34081 18.5845 6.83593 19.0842 6.01952 19.0842L4.99862 19.0842C4.18222 19.0842 3.66933 18.5845 3.66933 17.7867L3.66933 12.5555C3.66933 11.6961 3.47206 11.0639 2.98437 10.4797C2.83984 10.2963 2.51581 9.98827 2.37968 9.86717C1.31191 8.92987 0.667574 7.61893 0.667574 6.14745C0.667574 3.51601 2.77089 1.32285 5.50819 1.32285C5.61521 1.32285 5.7214 1.32629 5.82508 1.33875Z" fill="white" fill-opacity="0.85"/>
  <path d="M8.83768 9.08377C10.9734 9.08377 12.507 7.40663 12.507 5.05722C12.507 2.71581 10.9734 1.03867 8.83768 1.03867C6.91991 1.03867 5.54022 2.71581 5.54022 5.05722C5.54022 7.40663 6.91991 9.08377 8.83768 9.08377ZM10.3713 6.71835C9.83358 6.71835 9.41834 5.98983 9.41834 5.05722C9.41834 4.13261 9.83358 3.4041 10.3713 3.4041C10.8912 3.4041 11.3047 4.13261 11.3047 5.05722C11.3047 5.98983 10.8912 6.71835 10.3713 6.71835Z" fill="white" fill-opacity="0.425"/>
 </g>
</svg>
