<?xml version="1.0" encoding="UTF-8"?>
<!--Generator: Apple Native CoreSVG 341-->
<!DOCTYPE svg
PUBLIC "-//W3C//DTD SVG 1.1//EN"
       "http://www.w3.org/Graphics/SVG/1.1/DTD/svg11.dtd">
<svg version="1.1" xmlns="http://www.w3.org/2000/svg" xmlns:xlink="http://www.w3.org/1999/xlink" viewBox="0 0 32.0211 13.2176">
 <g>
  <rect height="13.2176" opacity="0" width="32.0211" x="0" y="0"/>
  <path d="M15.0914 5.35312C15.0914 8.29374 12.4996 10.6965 9.32734 10.6965C9.28769 10.6965 9.24813 10.6961 9.2099 10.691C9.66489 9.94684 9.92402 9.072 9.92402 8.13788C9.92402 5.40898 7.69668 3.17988 4.95625 3.17988C4.63242 3.17988 4.31561 3.21131 4.00943 3.27344C4.88583 1.35447 6.93664 0 9.32734 0C12.4996 0 15.0914 2.40898 15.0914 5.35312ZM27.6473 3.27316C27.3415 3.21118 27.0251 3.17988 26.7017 3.17988C23.9631 3.17988 21.734 5.40898 21.734 8.13788C21.734 9.07199 21.9933 9.94682 22.4485 10.6909C22.4101 10.6961 22.3704 10.6965 22.3307 10.6965C19.1504 10.6965 16.5666 8.29374 16.5666 5.35312C16.5666 2.40898 19.1504 0 22.3307 0C24.7152 0 26.769 1.35434 27.6473 3.27316Z" fill="white" fill-opacity="0.85"/>
  <path d="M4.95625 12.1496C7.17383 12.1496 8.96797 10.3537 8.96797 8.13788C8.96797 5.93183 7.17383 4.13769 4.95625 4.13769C2.75195 4.13769 0.956054 5.93183 0.956054 8.13788C0.956054 10.3537 2.75195 12.1496 4.95625 12.1496ZM3.01094 9.8246C2.51562 9.8246 2.10996 9.08515 2.10996 8.13788C2.10996 7.20839 2.51562 6.46093 3.01094 6.46093C3.51601 6.46093 3.91543 7.20839 3.91543 8.13788C3.91543 9.08515 3.51601 9.8246 3.01094 9.8246ZM26.7017 12.1496C28.9078 12.1496 30.7019 10.3537 30.7019 8.13788C30.7019 5.93183 28.9078 4.13769 26.7017 4.13769C24.4859 4.13769 22.682 5.93183 22.682 8.13788C22.682 10.3537 24.4859 12.1496 26.7017 12.1496ZM28.6488 9.8246C28.1437 9.8246 27.7363 9.08515 27.7363 8.13788C27.7363 7.20839 28.1437 6.46093 28.6488 6.46093C29.1424 6.46093 29.5418 7.20839 29.5418 8.13788C29.5418 9.08515 29.1424 9.8246 28.6488 9.8246Z" fill="white" fill-opacity="0.425"/>
 </g>
</svg>
