<?xml version="1.0" encoding="UTF-8"?>
<!--Generator: Apple Native CoreSVG 341-->
<!DOCTYPE svg
PUBLIC "-//W3C//DTD SVG 1.1//EN"
       "http://www.w3.org/Graphics/SVG/1.1/DTD/svg11.dtd">
<svg version="1.1" xmlns="http://www.w3.org/2000/svg" xmlns:xlink="http://www.w3.org/1999/xlink" viewBox="0 0 15.4203 19.589">
 <g>
  <rect height="19.589" opacity="0" width="15.4203" x="0" y="0"/>
  <path d="M14.0265 5.96347C14.0265 7.45897 13.3181 8.7121 12.3082 9.67518C12.0885 9.88612 11.8881 10.0803 11.7035 10.2877C11.174 10.8461 11.0168 11.44 11.0168 12.3635L11.0168 17.5947C11.0168 18.4086 10.5279 18.8922 9.69725 18.8922L8.67635 18.8922C7.84393 18.8922 7.34706 18.4086 7.34706 17.5947L7.34706 12.3635C7.34706 11.5931 7.24443 11.052 6.89639 10.5699C9.00209 10.1873 10.1582 8.21869 10.1582 5.32323C10.1582 3.51498 9.70777 2.06837 8.85676 1.14365C8.93775 1.13308 9.02069 1.13086 9.10409 1.13086C12.0246 1.13086 14.0265 3.09452 14.0265 5.96347Z" fill="white" fill-opacity="0.85"/>
  <path d="M1.03066 5.32323C1.03066 8.25155 3.9455 9.60604 6.10487 9.60604C8.05018 9.60604 9.12752 8.07342 9.12752 5.32323C9.12752 2.57128 8.05018 1.03066 6.10487 1.03066C3.9455 1.03066 1.03066 2.39316 1.03066 5.32323ZM3.2162 7.05819C2.69452 7.05819 2.28105 6.28436 2.28105 5.32323C2.28105 4.35409 2.69452 3.58827 3.2162 3.58827C3.74765 3.58827 4.16913 4.35409 4.16913 5.32323C4.16913 6.28436 3.74765 7.05819 3.2162 7.05819Z" fill="white" fill-opacity="0.425"/>
 </g>
</svg>
