<?xml version="1.0" encoding="UTF-8"?>
<!--Generator: Apple Native CoreSVG 341-->
<!DOCTYPE svg
PUBLIC "-//W3C//DTD SVG 1.1//EN"
       "http://www.w3.org/Graphics/SVG/1.1/DTD/svg11.dtd">
<svg version="1.1" xmlns="http://www.w3.org/2000/svg" xmlns:xlink="http://www.w3.org/1999/xlink" viewBox="0 0 19.0848 18.3816">
 <g>
  <rect height="18.3816" opacity="0" width="19.0848" x="0" y="0"/>
  <path d="M1.49316 10.8914L17.216 10.8914C18.0781 10.8914 18.5975 10.3916 18.5975 9.63243C18.5975 9.26622 18.4176 8.86818 18.0984 8.54708L10.7658 0.743549C10.2967 0.280272 9.88945 0.0115234 9.35371 0.0115234C8.83398 0.0115234 8.41074 0.296288 7.94961 0.743549L0.608984 8.54708C0.289845 8.86818 0.101956 9.26622 0.109964 9.63243C0.117972 10.3916 0.629296 10.8914 1.49316 10.8914ZM1.66738 18.3816L17.0561 18.3816C18.0996 18.3816 18.7234 17.7453 18.7234 16.7053L18.7234 14.667C18.7234 13.627 18.0996 12.9906 17.0561 12.9906L1.66738 12.9906C0.623827 12.9906 0 13.627 0 14.667L0 16.7053C0 17.7453 0.623827 18.3816 1.66738 18.3816Z" fill="white" fill-opacity="0.85"/>
 </g>
</svg>
