<?xml version="1.0" encoding="UTF-8"?>
<!--Generator: Apple Native CoreSVG 341-->
<!DOCTYPE svg
PUBLIC "-//W3C//DTD SVG 1.1//EN"
       "http://www.w3.org/Graphics/SVG/1.1/DTD/svg11.dtd">
<svg version="1.1" xmlns="http://www.w3.org/2000/svg" xmlns:xlink="http://www.w3.org/1999/xlink" viewBox="0 0 19.3633 18.6336">
 <g>
  <rect height="18.6336" opacity="0" width="19.3633" x="0" y="0"/>
  <path d="M1.73457 11.1664L17.2869 11.1664C18.268 11.1664 18.8387 10.6107 18.8547 9.74864C18.8627 9.33009 18.642 8.88595 18.29 8.52404L11.0967 0.885738C10.5859 0.379102 10.1086 0.0632823 9.50898 0.0632823C8.90137 0.0632823 8.4498 0.363086 7.91329 0.885738L0.727929 8.52404C0.375978 8.88595 0.163285 9.33009 0.163285 9.74864C0.163285 10.6107 0.749999 11.1664 1.73457 11.1664ZM3.06327 9.3965C2.89881 9.3965 2.81971 9.31739 2.81971 9.19474C2.81971 9.13165 2.84549 9.07208 2.89256 9.02677L9.22011 2.38671C9.31347 2.29335 9.38457 2.22401 9.50898 2.22401C9.63164 2.22401 9.71074 2.29335 9.79609 2.38671L16.1209 9.02677C16.176 9.08009 16.2018 9.13165 16.2018 9.19474C16.2018 9.31739 16.1147 9.3965 15.9582 9.3965ZM2.15586 18.6336L16.8461 18.6336C18.2096 18.6336 19.0019 17.8988 19.0019 16.5523L19.0019 15.0813C19.0019 13.7559 18.2096 13 16.8461 13L2.15586 13C0.794139 13 0 13.7479 0 15.0813L0 16.5523C0 17.9068 0.794139 18.6336 2.15586 18.6336ZM2.53065 16.8975C2.1537 16.8975 1.9537 16.6734 1.9537 16.2965L1.9537 15.3371C1.9537 14.9601 2.1537 14.7379 2.53065 14.7379L16.4713 14.7379C16.8563 14.7379 17.0482 14.9601 17.0482 15.3371L17.0482 16.2965C17.0482 16.6734 16.8563 16.8975 16.4713 16.8975Z" fill="white" fill-opacity="0.85"/>
 </g>
</svg>
