<?xml version="1.0" encoding="UTF-8"?>
<!--Generator: Apple Native CoreSVG 341-->
<!DOCTYPE svg
PUBLIC "-//W3C//DTD SVG 1.1//EN"
       "http://www.w3.org/Graphics/SVG/1.1/DTD/svg11.dtd">
<svg version="1.1" xmlns="http://www.w3.org/2000/svg" xmlns:xlink="http://www.w3.org/1999/xlink" viewBox="0 0 31.0229 26.2949">
 <g>
  <rect height="26.2949" opacity="0" width="31.0229" x="0" y="0"/>
  <path d="M5.65601 6.56483L3.31444 6.56483C2.40643 6.56483 1.91327 7.0412 1.91327 7.98378L1.91327 18.2889C1.91327 19.2395 2.40643 19.7158 3.31444 19.7158L18.8238 19.7158L20.7395 21.6291L3.20351 21.6291C1.0957 21.6291 0 20.5414 0 18.4576L0 7.82304C0 5.73125 1.0957 4.65156 3.20351 4.65156L3.7403 4.65156ZM30.6615 7.82304L30.6615 18.4576C30.6615 20.5414 29.5658 21.6291 27.458 21.6291L26.8533 21.6291L24.9391 19.7158L27.3391 19.7158C28.2391 19.7158 28.7483 19.2395 28.7483 18.2889L28.7483 7.98378C28.7483 7.0412 28.2391 6.56483 27.3391 6.56483L11.7822 6.56483L9.86803 4.65156L27.458 4.65156C29.5658 4.65156 30.6615 5.73926 30.6615 7.82304Z" fill="white" fill-opacity="0.85"/>
  <path d="M25.1104 10.2313C25.2824 10.5268 25.4102 10.8754 25.4102 11.2471C25.4102 11.6609 25.1398 11.9527 24.6457 11.9527C24.2574 11.9527 24.043 11.7603 23.9072 11.3463C23.6176 10.5342 23.109 10.1156 22.352 10.1156C20.9762 10.1156 20.5906 11.6416 20.5906 13.1346C20.5906 14.5172 20.9281 16.1713 22.352 16.1713C23.125 16.1713 23.693 15.7119 23.9188 14.9584C24.018 14.5731 24.2617 14.3547 24.6369 14.3547C25.1318 14.3547 25.4482 14.6314 25.4482 15.1057C25.4482 15.3947 25.3498 15.675 25.2098 15.9402C24.7752 16.7796 23.8535 17.3973 22.7129 17.4907L18.8826 13.662C18.8704 13.493 18.865 13.3194 18.865 13.1426C18.865 10.6402 19.9356 8.77227 22.3342 8.77227C23.4848 8.77227 24.5965 9.30508 25.1104 10.2313ZM15.8641 16.7599C15.7863 17.183 15.4748 17.4178 15.0434 17.4178C14.5432 17.4178 14.2037 17.108 14.2037 16.5408L14.2037 15.1016ZM9.53186 10.4357L7.38222 10.4357L7.38222 12.4465L9.88868 12.4465C10.3018 12.4465 10.5953 12.6814 10.5953 13.1283C10.5953 13.5672 10.3018 13.7791 9.88868 13.7791L7.38222 13.7791L7.38222 15.9641L10.0922 15.9641C10.5193 15.9641 10.8244 16.2186 10.8244 16.6564C10.8244 17.1139 10.5141 17.3861 10.0922 17.3861L6.56133 17.3861C6.05938 17.3861 5.75 17.032 5.75 16.5008L5.75 9.89902C5.75 9.35977 6.05137 9.00566 6.56133 9.00566L8.09996 9.00566ZM18.2135 9.76738C18.2135 10.2391 17.8951 10.5176 17.3799 10.5176L15.884 10.5176L15.884 10.6648L14.2241 9.00566L17.3799 9.00566C17.8898 9.00566 18.2135 9.28594 18.2135 9.76738Z" fill="white" fill-opacity="0.85"/>
  <path d="M25.3496 24.2777C25.6416 24.5715 26.1475 24.5813 26.4492 24.2777C26.7412 23.968 26.751 23.4816 26.4492 23.1799L4.87031 1.61074C4.5668 1.30722 4.0627 1.30722 3.75918 1.61074C3.46719 1.90273 3.46719 2.4166 3.75918 2.71035Z" fill="white" fill-opacity="0.85"/>
 </g>
</svg>
