<?xml version="1.0" encoding="UTF-8"?>
<!--Generator: Apple Native CoreSVG 341-->
<!DOCTYPE svg
PUBLIC "-//W3C//DTD SVG 1.1//EN"
       "http://www.w3.org/Graphics/SVG/1.1/DTD/svg11.dtd">
<svg version="1.1" xmlns="http://www.w3.org/2000/svg" xmlns:xlink="http://www.w3.org/1999/xlink" viewBox="0 0 25.5779 14.7035">
 <g>
  <rect height="14.7035" opacity="0" width="25.5779" x="0" y="0"/>
  <path d="M21.474 14.6795C23.5417 14.6795 24.6927 13.1062 25.1011 11.2904C25.1615 11.0545 25.2165 10.7482 25.2165 10.5096C25.2165 10.0242 24.9367 9.54317 24.2361 9.54317C23.7156 9.54317 23.3636 9.84707 23.2847 10.3533C23.0998 11.5228 22.707 12.79 21.4361 12.79C19.6753 12.79 19.2996 9.50799 19.2996 7.32285C19.2996 4.72481 19.7197 1.88768 21.4201 1.88768C22.5763 1.88768 23.0431 3.09999 23.2582 4.27461C23.3814 4.84765 23.6994 5.18436 24.2724 5.18436C24.8046 5.18436 25.1902 4.82655 25.1902 4.20019C25.1902 3.94316 25.1476 3.67363 25.09 3.44492C24.681 1.56055 23.4572 0 21.413 0C18.1007 0 17.1302 3.96504 17.1302 7.32285C17.1302 10.7078 18.1033 14.6795 21.474 14.6795Z" fill="white" fill-opacity="0.85"/>
  <path d="M12.2863 14.5381C13.0299 14.5381 13.3771 14.0291 13.3771 13.3416L13.3771 1.26815L11.1857 1.26815L11.1857 13.3416C11.1857 14.0383 11.5492 14.5381 12.2863 14.5381ZM9.11384 2.26521L15.4312 2.26521C16.1386 2.26521 16.5334 1.87401 16.5334 1.25272C16.5334 0.581245 16.0912 0.232225 15.4312 0.232225L9.11384 0.232225C8.47146 0.232225 8.01346 0.563668 8.01346 1.25272C8.01346 1.92147 8.44861 2.26521 9.11384 2.26521Z" fill="white" fill-opacity="0.85"/>
  <path d="M1.05409 14.4242L5.5535 14.4242C6.18162 14.4242 6.60525 14.084 6.60525 13.4586C6.60525 12.8594 6.22557 12.4947 5.5535 12.4947L2.09217 12.4947L2.09217 8.05428L5.40663 8.05428C6.00213 8.05428 6.4117 7.73436 6.4117 7.13984C6.4117 6.57773 6.0408 6.21914 5.40663 6.21914L2.09217 6.21914L2.09217 2.17147L5.5535 2.17147C6.22557 2.17147 6.60525 1.79706 6.60525 1.20585C6.60525 0.572457 6.18162 0.232225 5.5535 0.232225L1.05409 0.232225C0.370309 0.232225 0 0.701948 0 1.36171L0 13.2947C0 13.9449 0.36074 14.4242 1.05409 14.4242Z" fill="white" fill-opacity="0.85"/>
 </g>
</svg>
