<?xml version="1.0" encoding="UTF-8"?>
<!--Generator: Apple Native CoreSVG 341-->
<!DOCTYPE svg
PUBLIC "-//W3C//DTD SVG 1.1//EN"
       "http://www.w3.org/Graphics/SVG/1.1/DTD/svg11.dtd">
<svg version="1.1" xmlns="http://www.w3.org/2000/svg" xmlns:xlink="http://www.w3.org/1999/xlink" viewBox="0 0 22.1746 14.1176">
 <g>
  <rect height="14.1176" opacity="0" width="22.1746" x="0" y="0"/>
  <path d="M0 11.2689C0 13.1164 1.02969 14.114 2.87441 14.114L18.9308 14.114C20.7836 14.114 21.8133 13.1164 21.8133 11.2689L21.8133 2.8291C21.8133 0.989648 20.7836 0 18.9308 0L2.87441 0C1.02969 0 0 0.989648 0 2.8291ZM1.93436 11.1238L1.93436 2.97597C1.93436 2.20585 2.36874 1.77499 3.1371 1.77499L18.6762 1.77499C19.4445 1.77499 19.8789 2.20585 19.8789 2.97597L19.8789 11.1238C19.8789 11.8834 19.4445 12.3248 18.6762 12.3248L3.1371 12.3248C2.36874 12.3248 1.93436 11.8834 1.93436 11.1238Z" fill="white" fill-opacity="0.85"/>
  <path d="M15.5015 8.51288C16.3012 8.51288 16.9685 7.85526 16.9685 7.04589C16.9685 6.23652 16.3012 5.5789 15.5015 5.5789C14.6922 5.5789 14.0328 6.23652 14.0328 7.04589C14.0328 7.85526 14.6922 8.51288 15.5015 8.51288Z" fill="white" fill-opacity="0.85"/>
  <path d="M10.9164 8.51288C11.7258 8.51288 12.3834 7.85526 12.3834 7.04589C12.3834 6.23652 11.7258 5.5789 10.9164 5.5789C10.107 5.5789 9.4494 6.23652 9.4494 7.04589C9.4494 7.85526 10.107 8.51288 10.9164 8.51288Z" fill="white" fill-opacity="0.85"/>
  <path d="M6.341 8.51288C7.14237 8.51288 7.79999 7.85526 7.79999 7.04589C7.79999 6.23652 7.13436 5.5789 6.341 5.5789C5.53163 5.5789 4.87401 6.23652 4.87401 7.04589C4.87401 7.85526 5.53163 8.51288 6.341 8.51288Z" fill="white" fill-opacity="0.85"/>
 </g>
</svg>
