<?xml version="1.0" encoding="UTF-8"?>
<!--Generator: Apple Native CoreSVG 341-->
<!DOCTYPE svg
PUBLIC "-//W3C//DTD SVG 1.1//EN"
       "http://www.w3.org/Graphics/SVG/1.1/DTD/svg11.dtd">
<svg version="1.1" xmlns="http://www.w3.org/2000/svg" xmlns:xlink="http://www.w3.org/1999/xlink" viewBox="0 0 25.9324 20.4668">
 <g>
  <rect height="20.4668" opacity="0" width="25.9324" x="0" y="0"/>
  <path d="M0 10.2285C0 10.9057 0.390818 11.3816 1.12792 11.5189C2.37226 11.7379 2.85429 12.3514 2.85429 13.8849L2.85429 16.3777C2.85429 19.1904 4.15487 20.4668 6.95155 20.4668C7.15174 20.4668 7.35291 20.4357 7.50349 20.3932C7.95739 20.2451 8.17966 19.9254 8.17966 19.5205C8.17966 19.0605 7.97497 18.8125 7.55759 18.7035C7.45115 18.6787 7.34119 18.6574 7.21345 18.6459C5.65017 18.5252 5.0861 17.8467 5.0861 16.1191L5.0861 13.1019C5.0861 11.4252 4.13259 10.4598 2.52478 10.2922C2.46033 10.2869 2.45682 10.2021 2.52478 10.1951C4.13259 10.0293 5.0861 9.06387 5.0861 7.38711L5.0861 4.36718C5.0861 2.63163 5.65017 1.96913 7.21345 1.84842C7.37498 1.83514 7.51873 1.8121 7.62693 1.77303C7.9945 1.65428 8.17966 1.39022 8.17966 0.964055C8.17966 0.550191 7.95817 0.245506 7.50662 0.100195C7.32322 0.042578 7.11951 0.0177735 6.86795 0.0177735C4.14686 0.0177735 2.85429 1.31191 2.85429 4.10859L2.85429 6.6041C2.85429 8.12344 2.36523 8.74493 1.12792 8.96211C0.390818 9.10293 0 9.56113 0 10.2285ZM25.5711 10.2285C25.5711 9.56113 25.1722 9.10293 24.4351 8.96211C23.2041 8.74493 22.707 8.12344 22.707 6.6041L22.707 4.10859C22.707 1.31191 21.4162 0.0177735 18.6933 0.0177735C18.4435 0.0177735 18.2478 0.042578 18.0644 0.100195C17.6111 0.245506 17.3834 0.550191 17.3834 0.964055C17.3834 1.39022 17.5765 1.65428 17.9441 1.77303C18.0523 1.8121 18.1881 1.83514 18.3496 1.84842C19.9111 1.96913 20.4849 2.63163 20.4849 4.36718L20.4849 7.38711C20.4849 9.06387 21.4305 10.0293 23.0383 10.1951C23.1062 10.2021 23.1027 10.2869 23.0383 10.2922C21.4305 10.4598 20.4849 11.4252 20.4849 13.1019L20.4849 16.1191C20.4849 17.8467 19.9111 18.5252 18.3496 18.6459C18.2219 18.6574 18.1199 18.6787 18.0135 18.7035C17.5961 18.8125 17.3834 19.0605 17.3834 19.5205C17.3834 19.9254 17.6137 20.2451 18.0676 20.3932C18.2181 20.4357 18.4113 20.4668 18.6115 20.4668C21.4064 20.4668 22.707 19.1904 22.707 16.3777L22.707 13.8849C22.707 12.3514 23.1988 11.7379 24.4351 11.5189C25.1722 11.3816 25.5711 10.9057 25.5711 10.2285Z" fill="white" fill-opacity="0.85"/>
  <path d="M17.4 11.6857C18.2094 11.6857 18.867 11.0281 18.867 10.2268C18.867 9.41738 18.2094 8.758 17.4 8.758C16.5906 8.758 15.933 9.41738 15.933 10.2268C15.933 11.0281 16.5906 11.6857 17.4 11.6857Z" fill="white" fill-opacity="0.85"/>
  <path d="M12.8148 11.6857C13.6242 11.6857 14.2836 11.0281 14.2836 10.2268C14.2836 9.41738 13.6242 8.758 12.8148 8.758C12.0135 8.758 11.3558 9.41738 11.3558 10.2268C11.3558 11.0281 12.0135 11.6857 12.8148 11.6857Z" fill="white" fill-opacity="0.85"/>
  <path d="M8.23943 11.6857C9.04881 11.6857 9.70642 11.0281 9.70642 10.2268C9.70642 9.41738 9.0408 8.758 8.23943 8.758C7.43006 8.758 6.77244 9.41738 6.77244 10.2268C6.77244 11.0281 7.43006 11.6857 8.23943 11.6857Z" fill="white" fill-opacity="0.85"/>
 </g>
</svg>
