<?xml version="1.0" encoding="UTF-8"?>
<!--Generator: Apple Native CoreSVG 341-->
<!DOCTYPE svg
PUBLIC "-//W3C//DTD SVG 1.1//EN"
       "http://www.w3.org/Graphics/SVG/1.1/DTD/svg11.dtd">
<svg version="1.1" xmlns="http://www.w3.org/2000/svg" xmlns:xlink="http://www.w3.org/1999/xlink" viewBox="0 0 28.7963 18.2191">
 <g>
  <rect height="18.2191" opacity="0" width="28.7963" x="0" y="0"/>
  <path d="M10.9088 18.2076L20.4451 18.2076C21.8027 18.2076 22.6375 17.4119 22.6375 16.0641L22.6375 14.3711C22.6375 14.317 22.6703 14.2939 22.7146 14.2939L23.7678 14.2939C23.8201 14.2939 23.8449 14.317 23.8449 14.3711L23.8449 15.3506C23.8449 16.5525 24.6441 17.2984 25.9234 17.2984L26.3644 17.2984C27.6357 17.2984 28.4349 16.5605 28.4349 15.3506L28.4349 8.35956C28.4349 7.14608 27.641 6.41171 26.3644 6.41171L25.9234 6.41171C24.6389 6.41171 23.8449 7.15409 23.8449 8.35956L23.8449 9.19218C23.8449 9.23651 23.8201 9.26933 23.7678 9.26933L22.7146 9.26933C22.6703 9.26933 22.6375 9.23651 22.6375 9.19218L22.6375 7.59003C22.6375 6.29296 21.824 5.50253 20.4932 5.50253L19.7867 5.50253L18.176 3.74882C17.7775 3.31132 17.3553 3.12773 16.8416 3.12773L9.22557 3.12773C8.70565 3.12773 8.28163 3.32734 7.88319 3.74882L6.27245 5.50253L5.26854 5.50253C3.95898 5.50253 3.13222 6.29823 3.13222 7.59003L3.13222 13.7258C3.13222 15.0238 3.95097 15.8213 5.26854 15.8213L7.95741 15.8213L9.57616 17.5865C9.97636 18.0195 10.3648 18.2076 10.9088 18.2076ZM0.900776 14.6381C1.40527 14.6381 1.81132 14.216 1.81132 13.7258L1.81132 11.5338L4.01971 11.5338L4.01971 9.7998L1.81132 9.7998L1.81132 7.59979C1.81132 7.10331 1.39726 6.69726 0.900776 6.69726C0.406052 6.69726 0 7.11132 0 7.59979L0 13.7258C0 14.224 0.41406 14.6381 0.900776 14.6381ZM12.9537 4.33377L14.6939 4.33377L14.6939 1.81132L17.7287 1.81132C18.2269 1.81132 18.6295 1.39101 18.6295 0.902534C18.6295 0.406052 18.2269 0 17.7287 0L9.90292 0C9.40292 0 9.00214 0.41406 9.00214 0.910542C9.00214 1.40878 9.41444 1.81132 9.90292 1.81132L12.9537 1.81132Z" fill="white" fill-opacity="0.85"/>
 </g>
</svg>
