<?xml version="1.0" encoding="UTF-8"?>
<!--Generator: Apple Native CoreSVG 341-->
<!DOCTYPE svg
PUBLIC "-//W3C//DTD SVG 1.1//EN"
       "http://www.w3.org/Graphics/SVG/1.1/DTD/svg11.dtd">
<svg version="1.1" xmlns="http://www.w3.org/2000/svg" xmlns:xlink="http://www.w3.org/1999/xlink" viewBox="0 0 19.5029 20.7918">
 <g>
  <rect height="20.7918" opacity="0" width="19.5029" x="0" y="0"/>
  <path d="M16.6824 3.13105L16.6824 13.3389L11.7535 13.3389C11.195 12.7744 10.4176 12.4256 9.55449 12.4256C7.84765 12.4256 6.47363 13.7996 6.47363 15.5029C6.47363 17.2098 7.84765 18.582 9.55449 18.582C10.4217 18.582 11.2025 18.2303 11.7612 17.6607L16.6819 17.6607C16.6773 19.6948 15.6073 20.7598 13.5273 20.7598L5.6125 20.7598C3.5293 20.7598 2.44942 19.6976 2.44942 17.6465L2.44942 3.13105C2.44942 1.06386 3.5293 0 5.6125 0L13.5273 0C15.6123 0 16.6824 1.07187 16.6824 3.13105ZM5.23964 9.73066C5.23964 10.4125 5.78027 10.9594 6.46034 10.9594C7.13417 10.9594 7.68281 10.4125 7.68281 9.73066C7.68281 9.05859 7.13417 8.51172 6.46034 8.51172C5.78027 8.51172 5.23964 9.05859 5.23964 9.73066ZM8.34355 9.73066C8.34355 10.4125 8.88066 10.9594 9.55449 10.9594C10.2461 10.9594 10.7832 10.4125 10.7832 9.73066C10.7832 9.05859 10.2461 8.51172 9.55449 8.51172C8.88066 8.51172 8.34355 9.05859 8.34355 9.73066ZM11.4439 9.73066C11.4439 10.4125 11.9846 10.9594 12.6664 10.9594C13.3465 10.9594 13.8791 10.4125 13.8791 9.73066C13.8791 9.05859 13.3465 8.51172 12.6664 8.51172C11.9846 8.51172 11.4439 9.05859 11.4439 9.73066ZM5.23964 6.76152C5.23964 7.43535 5.78027 7.98222 6.46034 7.98222C7.13417 7.98222 7.68281 7.43535 7.68281 6.76152C7.68281 6.07793 7.13417 5.52929 6.46034 5.52929C5.78027 5.52929 5.23964 6.07793 5.23964 6.76152ZM8.34355 6.76152C8.34355 7.43535 8.88066 7.98222 9.55449 7.98222C10.2461 7.98222 10.7832 7.43535 10.7832 6.76152C10.7832 6.07793 10.2461 5.52929 9.55449 5.52929C8.88066 5.52929 8.34355 6.07793 8.34355 6.76152ZM11.4439 6.76152C11.4439 7.43535 11.9846 7.98222 12.6664 7.98222C13.3465 7.98222 13.8791 7.43535 13.8791 6.76152C13.8791 6.07793 13.3465 5.52929 12.6664 5.52929C11.9846 5.52929 11.4439 6.07793 11.4439 6.76152ZM5.23964 3.80214C5.23964 4.46445 5.78027 5.01132 6.46034 5.01132C7.13417 5.01132 7.68281 4.46445 7.68281 3.80214C7.68281 3.12031 7.13417 2.57343 6.46034 2.57343C5.78027 2.57343 5.23964 3.12031 5.23964 3.80214ZM8.34355 3.80214C8.34355 4.46445 8.88066 5.01132 9.55449 5.01132C10.2461 5.01132 10.7832 4.46445 10.7832 3.80214C10.7832 3.12031 10.2461 2.57343 9.55449 2.57343C8.88066 2.57343 8.34355 3.12031 8.34355 3.80214ZM11.4439 3.80214C11.4439 4.46445 11.9846 5.01132 12.6664 5.01132C13.3465 5.01132 13.8791 4.46445 13.8791 3.80214C13.8791 3.12031 13.3465 2.57343 12.6664 2.57343C11.9846 2.57343 11.4439 3.12031 11.4439 3.80214Z" fill="white" fill-opacity="0.85"/>
  <path d="M9.55449 16.7127L17.3389 16.7127C18.0055 16.7127 18.5469 16.1668 18.5469 15.5047C18.5469 14.8346 18.0055 14.2949 17.3389 14.2949L9.55449 14.2949C8.89238 14.2949 8.34472 14.8346 8.34472 15.5047C8.34472 16.1668 8.89238 16.7127 9.55449 16.7127Z" fill="white" fill-opacity="0.85"/>
 </g>
</svg>
