<?xml version="1.0" encoding="UTF-8"?>
<!--Generator: Apple Native CoreSVG 341-->
<!DOCTYPE svg
PUBLIC "-//W3C//DTD SVG 1.1//EN"
       "http://www.w3.org/Graphics/SVG/1.1/DTD/svg11.dtd">
<svg version="1.1" xmlns="http://www.w3.org/2000/svg" xmlns:xlink="http://www.w3.org/1999/xlink" viewBox="0 0 26.357 25.2742">
 <g>
  <rect height="25.2742" opacity="0" width="26.357" x="0" y="0"/>
  <path d="M19.5992 2.90839L6.40443 2.90839C6.43656 2.06671 6.95593 1.57832 7.83612 1.57832L18.1676 1.57832C19.04 1.57832 19.5666 2.06671 19.5992 2.90839Z" fill="white" fill-opacity="0.85"/>
  <path d="M21.5719 5.73263C21.5017 5.72539 21.4274 5.72421 21.3523 5.72421L4.43245 5.72421C4.56889 4.79819 5.22113 4.27343 6.26522 4.27343L19.7305 4.27343C20.7777 4.27343 21.437 4.80131 21.5719 5.73263Z" fill="white" fill-opacity="0.85"/>
  <path d="M4.64511 23.6763L21.5818 23.6763C23.3625 23.6763 24.4076 22.641 24.4076 20.6514L24.4076 10.3471C24.4076 8.35741 23.3545 7.31405 21.3523 7.31405L4.41562 7.31405C2.64121 7.31405 1.58984 8.35741 1.58984 10.3471L1.58984 20.6514C1.58984 22.641 2.64922 23.6763 4.64511 23.6763ZM4.65527 21.9447C3.79257 21.9447 3.30389 21.4801 3.30389 20.5871L3.30389 10.4051C3.30389 9.51658 3.79257 9.04568 4.65527 9.04568L21.3422 9.04568C22.2031 9.04568 22.6918 9.51658 22.6918 10.4148L22.6918 20.5951C22.6918 21.4801 22.2031 21.9447 21.3422 21.9447ZM12.9978 18.0519C13.6357 18.0519 14.2189 17.8105 14.793 17.3004L23.5053 9.44393L22.3828 8.32772L13.8338 16.0342C13.5682 16.274 13.291 16.4019 12.9978 16.4019C12.7047 16.4019 12.4293 16.274 12.1619 16.0342L3.61288 8.32772L2.49218 9.44393L11.2045 17.3004C11.7705 17.8105 12.36 18.0519 12.9978 18.0519ZM3.75917 22.3373L10.3644 15.7383L9.2412 14.6291L2.64296 21.2131ZM22.2463 22.3453L23.3625 21.2228L16.7642 14.6291L15.6312 15.7383Z" fill="white" fill-opacity="0.85"/>
 </g>
</svg>
