<?xml version="1.0" encoding="UTF-8"?>
<!--Generator: Apple Native CoreSVG 341-->
<!DOCTYPE svg
PUBLIC "-//W3C//DTD SVG 1.1//EN"
       "http://www.w3.org/Graphics/SVG/1.1/DTD/svg11.dtd">
<svg version="1.1" xmlns="http://www.w3.org/2000/svg" xmlns:xlink="http://www.w3.org/1999/xlink" viewBox="0 0 20.5381 20.1848">
 <g>
  <rect height="20.1848" opacity="0" width="20.5381" x="0" y="0"/>
  <path d="M10.0875 20.175C15.6576 20.175 20.1767 15.6559 20.1767 10.0875C20.1767 4.51914 15.6576 0 10.0875 0C4.51914 0 0 4.51914 0 10.0875C0 15.6559 4.51914 20.175 10.0875 20.175ZM10.0875 18.1879C5.60839 18.1879 1.9871 14.5666 1.9871 10.0875C1.9871 5.60839 5.60839 1.9871 10.0875 1.9871C14.5666 1.9871 18.1897 5.60839 18.1897 10.0875C18.1897 14.5666 14.5666 18.1879 10.0875 18.1879Z" fill="white" fill-opacity="0.85"/>
  <path d="M10.0795 10.5418C10.2269 10.5418 10.3611 10.4867 10.5023 10.3535L15.1744 6.22948C14.9115 6.07577 14.6291 6.01269 14.2596 6.01269L5.90917 6.01269C5.52186 6.01269 5.24921 6.07577 4.99432 6.22948L9.65839 10.3535C9.79785 10.4867 9.94179 10.5418 10.0795 10.5418ZM4.50663 13.3467L7.94335 9.89746L4.49413 6.84706C4.44179 6.95878 4.38847 7.20741 4.38847 7.50761L4.38847 12.6709C4.38847 12.9498 4.43378 13.1629 4.50663 13.3467ZM5.78554 14.1658L14.3734 14.1658C14.7064 14.1658 14.9684 14.085 15.1574 13.973L11.6105 10.4324L10.9797 10.9984C10.693 11.2496 10.391 11.3633 10.0795 11.3633C9.76972 11.3633 9.46777 11.2496 9.1873 10.9984L8.54843 10.4324L5.00155 13.973C5.19061 14.085 5.45253 14.1658 5.78554 14.1658ZM15.6604 13.3387C15.727 13.1629 15.7625 12.9498 15.7625 12.6709L15.7625 7.50761C15.7625 7.20741 15.7172 6.96679 15.6648 6.84706L12.2076 9.89746Z" fill="white" fill-opacity="0.85"/>
 </g>
</svg>
