<?xml version="1.0" encoding="UTF-8"?>
<!--Generator: Apple Native CoreSVG 341-->
<!DOCTYPE svg
PUBLIC "-//W3C//DTD SVG 1.1//EN"
       "http://www.w3.org/Graphics/SVG/1.1/DTD/svg11.dtd">
<svg version="1.1" xmlns="http://www.w3.org/2000/svg" xmlns:xlink="http://www.w3.org/1999/xlink" viewBox="0 0 37.0678 22.934">
 <g>
  <rect height="22.934" opacity="0" width="37.0678" x="0" y="0"/>
  <path d="M22.2326 12.8307L22.2326 16.2767C22.2326 17.7447 22.6006 19.0163 23.2491 20.0392L9.35676 20.0392C8.64563 20.0392 8.07844 19.8723 7.68099 19.6236L15.139 12.1656L16.4751 13.356C17.0784 13.8892 17.6972 14.1467 18.3581 14.1467C19.0093 14.1467 19.6281 13.8892 20.2314 13.356L21.5675 12.1656ZM13.8968 11.0805L6.65365 18.3201C6.50091 17.9367 6.39876 17.4805 6.39876 16.8678L6.39876 6.07597C6.39876 5.41269 6.51869 4.90761 6.63666 4.65683ZM29.0462 3.37891L27.4522 4.78853C27.2409 4.71528 27.001 4.675 26.7702 4.675C25.5685 4.675 24.5868 5.62676 24.5517 6.81094L24.5499 7.00742C23.2978 6.93613 22.2326 7.92832 22.2326 9.20449L22.2326 9.40422L19.2605 12.0324C18.9497 12.3059 18.6566 12.4275 18.3581 12.4275C18.0499 12.4275 17.7585 12.3059 17.454 12.0324L7.67005 3.37891C8.20188 3.05195 8.80208 2.90449 9.60403 2.90449L27.1042 2.90449C27.9124 2.90449 28.5126 3.05195 29.0462 3.37891Z" fill="white" fill-opacity="0.85"/>
  <path d="M28.8075 21.5469C31.0822 21.5469 32.5302 20.6273 33.5331 18.7883C34.2208 17.6488 34.7245 16.1178 35.1413 14.734C35.3595 14.0359 35.6638 13.1641 35.6866 12.7808C35.7112 12.3355 35.4218 12.0244 34.9825 11.9998C34.4759 11.9682 34.1638 12.2727 33.8368 12.9424L32.8177 15.149C32.7093 15.3693 32.6062 15.4467 32.496 15.4467C32.3636 15.4467 32.2614 15.3676 32.2614 15.1215L32.2614 7.33476C32.2614 6.86015 31.8878 6.48301 31.415 6.48301C30.9439 6.48301 30.5667 6.86191 30.5667 7.33476L30.5667 12.9908C30.382 12.918 30.1714 12.8629 29.9591 12.8238L29.9591 6.28964C29.9591 5.81855 29.5775 5.4414 29.1046 5.4414C28.6398 5.4414 28.2644 5.81855 28.2644 6.28964L28.2644 12.7475C28.0458 12.7572 27.8193 12.783 27.6167 12.8266L27.6167 6.90234C27.6167 6.43125 27.2413 6.0541 26.7702 6.0541C26.2974 6.0541 25.922 6.43125 25.922 6.90234L25.922 13.3264C25.6937 13.433 25.4991 13.5574 25.2984 13.6818L25.2984 9.20449C25.2984 8.7334 24.9327 8.35449 24.4599 8.35449C23.987 8.35449 23.6117 8.7334 23.6117 9.20449L23.6117 16.2767C23.6117 19.5799 25.8259 21.5469 28.8075 21.5469Z" fill="white" fill-opacity="0.85"/>
 </g>
</svg>
