<?xml version="1.0" encoding="UTF-8"?>
<!--Generator: Apple Native CoreSVG 341-->
<!DOCTYPE svg
PUBLIC "-//W3C//DTD SVG 1.1//EN"
       "http://www.w3.org/Graphics/SVG/1.1/DTD/svg11.dtd">
<svg version="1.1" xmlns="http://www.w3.org/2000/svg" xmlns:xlink="http://www.w3.org/1999/xlink" viewBox="0 0 24.2623 22.8094">
 <g>
  <rect height="22.8094" opacity="0" width="24.2623" x="0" y="0"/>
  <path d="M0.169335 20.9154L7.64921 14.1836L2.45252 8.99316C2.19139 8.73203 2.20916 8.35624 2.53514 8.14218L10.9777 2.35799C11.6869 1.87245 12.2123 1.87245 12.9232 2.35799L21.3658 8.14218C21.69 8.35624 21.698 8.74531 21.4379 9.00371L16.25 14.1836L23.7281 20.9225C23.8433 20.5445 23.901 20.1223 23.901 19.6459L23.901 9.84199C23.901 8.3373 23.5408 7.5211 22.4605 6.77774L14.0807 1.00176C12.5182-0.0773442 11.3828-0.0773442 9.82031 1.00176L1.44042 6.77774C0.368159 7.5211 0 8.3373 0 9.84199L0 19.6459C0 20.1187 0.0656247 20.5393 0.169335 20.9154ZM3.20351 22.8094L20.7037 22.8094C21.7637 22.8094 22.4664 22.5422 22.973 22.1047L13.2768 13.376C12.8295 12.9713 12.4094 12.7973 11.9496 12.7973C11.4934 12.7973 11.0715 12.9695 10.6242 13.376L0.928904 22.0932C1.4373 22.5404 2.14003 22.8094 3.20351 22.8094Z" fill="white" fill-opacity="0.85"/>
 </g>
</svg>
