<?xml version="1.0" encoding="UTF-8"?>
<!--Generator: Apple Native CoreSVG 341-->
<!DOCTYPE svg
PUBLIC "-//W3C//DTD SVG 1.1//EN"
       "http://www.w3.org/Graphics/SVG/1.1/DTD/svg11.dtd">
<svg version="1.1" xmlns="http://www.w3.org/2000/svg" xmlns:xlink="http://www.w3.org/1999/xlink" viewBox="0 0 21.2585 25.4015">
 <g>
  <rect height="25.4015" opacity="0" width="21.2585" x="0" y="0"/>
  <path d="M10.4268 8.08592C10.6862 8.08592 10.91 7.99354 11.1622 7.7574L19.1977 0.657799C18.7663 0.385923 18.278 0.266001 17.6092 0.266001L3.24264 0.266001C2.58189 0.266001 2.09361 0.385923 1.65416 0.657799L9.69771 7.7574C9.94361 7.99354 10.1737 8.08592 10.4268 8.08592ZM0.812368 12.9176L6.76979 6.97791L0.803383 1.71307C0.704946 1.9035 0.604555 2.33045 0.604555 2.87205L0.604555 11.7316C0.604555 12.2342 0.703188 12.6203 0.812368 12.9176ZM3.03892 14.3377L17.8147 14.3377C18.4122 14.3377 18.8719 14.1884 19.1815 13.9869L13.0723 7.87771L11.9627 8.85935C11.4784 9.30115 10.9795 9.5115 10.4268 9.5115C9.88033 9.5115 9.3815 9.30115 8.89713 8.85935L7.78756 7.88572L1.67838 13.9949C1.9897 14.1884 2.44947 14.3377 3.03892 14.3377ZM20.0475 12.9176C20.1567 12.6203 20.2473 12.2342 20.2473 11.7316L20.2473 2.87205C20.2473 2.33045 20.1469 1.9035 20.0583 1.71307L14.0901 6.97791Z" fill="white" fill-opacity="0.85"/>
  <path d="M6.58815 16.6226C6.1485 16.6226 5.87565 16.8865 5.74401 17.3634C5.42467 18.5586 4.42038 19.4759 2.48229 19.631C2.00358 19.6752 1.75065 20.0918 1.79205 20.4713C1.83795 20.8392 2.15064 21.1718 2.77037 21.1181C5.61881 20.8775 7.39049 18.9955 7.39049 17.4195C7.39049 16.9603 7.05358 16.6226 6.58815 16.6226ZM4.06119 21.9461L2.99401 18.5382C2.83717 17.955 2.35358 17.8765 1.96373 18.3591L0.17174 20.7185C-0.143494 21.1045-0.0114641 21.5455 0.458848 21.717L3.25884 22.623C3.84966 22.8273 4.21451 22.5213 4.06119 21.9461ZM10.4526 16.6146C10.0225 16.6146 9.71744 16.9267 9.71744 17.3826L9.71744 22.7646C9.71744 23.1699 10.0473 23.4918 10.4526 23.4918C10.8579 23.4918 11.1797 23.1699 11.1797 22.7646L11.1797 17.3826C11.1797 16.9267 10.8827 16.6146 10.4526 16.6146ZM12.3282 21.6006L8.561 21.6006C7.96295 21.6006 7.78209 22.0822 8.12897 22.5879L9.8981 25.0884C10.1944 25.5072 10.7028 25.5072 10.9991 25.0804L12.7762 22.5879C13.1151 22.0822 12.9342 21.6006 12.3282 21.6006ZM14.317 16.6226C13.8516 16.6226 13.5067 16.9603 13.5067 17.4195C13.5067 18.9955 15.2784 20.8775 18.1268 21.1181C18.7545 21.1718 19.0592 20.8392 19.1051 20.4713C19.1465 20.0918 18.9016 19.6752 18.4149 19.631C16.4848 19.4759 15.4725 18.5586 15.1532 17.3634C15.0215 16.8865 14.7567 16.6226 14.317 16.6226ZM16.836 21.9461C16.6827 22.5213 17.0458 22.8273 17.6383 22.623L20.4383 21.717C20.9086 21.5455 21.0407 21.1045 20.7254 20.7185L18.9334 18.3591C18.5436 17.8765 18.06 17.955 17.9032 18.5382Z" fill="white" fill-opacity="0.85"/>
 </g>
</svg>
