<?xml version="1.0" encoding="UTF-8"?>
<!--Generator: Apple Native CoreSVG 341-->
<!DOCTYPE svg
PUBLIC "-//W3C//DTD SVG 1.1//EN"
       "http://www.w3.org/Graphics/SVG/1.1/DTD/svg11.dtd">
<svg version="1.1" xmlns="http://www.w3.org/2000/svg" xmlns:xlink="http://www.w3.org/1999/xlink" viewBox="0 0 24.2703 17.1445">
 <g>
  <rect height="17.1445" opacity="0" width="24.2703" x="0" y="0"/>
  <path d="M3.20351 17.1445L20.951 17.1445C22.8133 17.1445 23.909 16.0568 23.909 13.973L23.909 3.18124C23.909 1.09746 22.8053 0.00976562 20.7037 0.00976562L2.958 0.00976562C1.0957 0.00976562 0 1.09746 0 3.18124L0 13.973C0 16.0568 1.10371 17.1445 3.20351 17.1445ZM3.19941 15.3498C2.30116 15.3498 1.79471 14.8514 1.79471 13.9193L1.79471 3.21894C1.79471 2.29491 2.30116 1.80448 3.19941 1.80448L20.6998 1.80448C21.598 1.80448 22.1143 2.29491 22.1143 3.22695L22.1143 13.9273C22.1143 14.8514 21.598 15.3498 20.6998 15.3498ZM11.9496 11.2439C12.6185 11.2439 13.2293 11.0025 13.8246 10.4613L22.9525 2.24433L21.7857 1.06777L12.8309 9.14277C12.5457 9.39863 12.2543 9.52207 11.9496 9.52207C11.6467 9.52207 11.3553 9.39863 11.0701 9.14277L2.11522 1.06777L0.946674 2.24433L10.0764 10.4613C10.6699 11.0025 11.2824 11.2439 11.9496 11.2439ZM2.27753 15.7434L9.18827 8.8246L8.01093 7.66308L1.10898 14.565ZM21.6395 15.7514L22.808 14.573L15.898 7.66308L14.7127 8.8246Z" fill="white" fill-opacity="0.85"/>
 </g>
</svg>
