<?xml version="1.0" encoding="UTF-8"?>
<!--Generator: Apple Native CoreSVG 341-->
<!DOCTYPE svg
PUBLIC "-//W3C//DTD SVG 1.1//EN"
       "http://www.w3.org/Graphics/SVG/1.1/DTD/svg11.dtd">
<svg version="1.1" xmlns="http://www.w3.org/2000/svg" xmlns:xlink="http://www.w3.org/1999/xlink" viewBox="0 0 24.2703 22.8094">
 <g>
  <rect height="22.8094" opacity="0" width="24.2703" x="0" y="0"/>
  <path d="M3.20351 22.8094L20.951 22.8094C22.8133 22.8094 23.909 21.7234 23.909 19.6459L23.909 9.84199C23.909 8.3373 23.5408 7.51309 22.4605 6.77774L14.0566 1.00176C12.4941-0.0693363 11.3828-0.0693363 9.82031 1.00176L1.44042 6.77774C0.368159 7.5211 0 8.3373 0 9.84199L0 19.6459C0 21.7234 1.10371 22.8094 3.20351 22.8094ZM3.19941 21.0147C2.30116 21.0147 1.79471 20.5242 1.79471 19.5939L1.79471 9.62929C1.79471 8.91308 1.98534 8.5121 2.49999 8.16601L10.9777 2.35799C11.6851 1.8742 12.1918 1.8742 12.8912 2.35799L21.409 8.16601C21.9236 8.50409 22.1143 8.91308 22.1143 9.62929L22.1143 19.602C22.1143 20.5242 21.598 21.0147 20.6998 21.0147ZM11.9496 11.9861C11.2824 11.9861 10.6699 12.2275 10.0764 12.7687L0.946674 20.9857L2.11522 22.1543L11.0701 14.0873C11.3553 13.8314 11.6467 13.708 11.9496 13.708C12.2543 13.708 12.5457 13.8314 12.8309 14.0873L21.7857 22.1543L22.9525 20.9857L13.8246 12.7687C13.2293 12.2275 12.6185 11.9861 11.9496 11.9861ZM2.18944 7.5748L1.02089 8.75312L7.92285 15.6551L9.10018 14.4936ZM21.7275 7.56679L14.8008 14.4936L15.9861 15.6551L22.8961 8.74511Z" fill="white" fill-opacity="0.85"/>
 </g>
</svg>
