<?xml version="1.0" encoding="UTF-8"?>
<!--Generator: Apple Native CoreSVG 341-->
<!DOCTYPE svg
PUBLIC "-//W3C//DTD SVG 1.1//EN"
       "http://www.w3.org/Graphics/SVG/1.1/DTD/svg11.dtd">
<svg version="1.1" xmlns="http://www.w3.org/2000/svg" xmlns:xlink="http://www.w3.org/1999/xlink" viewBox="0 0 18.5894 18.2316">
 <g>
  <rect height="18.2316" opacity="0" width="18.5894" x="0" y="0"/>
  <path d="M3.20351 18.2281L15.0246 18.2281C17.1404 18.2281 18.2281 17.1502 18.2281 15.0646L18.2281 3.17148C18.2281 1.08769 17.1404 0 15.0246 0L3.20351 0C1.0957 0 0 1.08769 0 3.17148L0 15.0646C0 17.1502 1.0957 18.2281 3.20351 18.2281ZM3.31444 16.3148C2.40643 16.3148 1.91327 15.8465 1.91327 14.8977L1.91327 3.34023C1.91327 2.39139 2.40643 1.91503 3.31444 1.91503L14.9137 1.91503C15.8137 1.91503 16.3148 2.39139 16.3148 3.34023L16.3148 14.8977C16.3148 15.8465 15.8137 16.3148 14.9137 16.3148Z" fill="white" fill-opacity="0.85"/>
  <path d="M5.58319 11.7662L12.6432 11.7662C13.2098 11.7662 13.6 11.4799 13.6 10.9424C13.6 10.3969 13.2275 10.1025 12.6467 10.1025L5.58319 10.1025C5.00058 10.1025 4.62812 10.3951 4.62812 10.9424C4.62812 11.4799 5.01835 11.7662 5.58319 11.7662ZM5.58319 8.15214L12.6432 8.15214C13.2098 8.15214 13.6 7.86406 13.6 7.32031C13.6 6.7748 13.2275 6.48047 12.6467 6.48047L5.58319 6.48047C5.00058 6.48047 4.62812 6.77304 4.62812 7.32031C4.62812 7.86406 5.01835 8.15214 5.58319 8.15214Z" fill="white" fill-opacity="0.85"/>
 </g>
</svg>
