<?xml version="1.0" encoding="UTF-8"?>
<!--Generator: Apple Native CoreSVG 341-->
<!DOCTYPE svg
PUBLIC "-//W3C//DTD SVG 1.1//EN"
       "http://www.w3.org/Graphics/SVG/1.1/DTD/svg11.dtd">
<svg version="1.1" xmlns="http://www.w3.org/2000/svg" xmlns:xlink="http://www.w3.org/1999/xlink" viewBox="0 0 14.2996 8.58982">
 <g>
  <rect height="8.58982" opacity="0" width="14.2996" x="0" y="0"/>
  <path d="M1.08007 2.20174L12.8582 2.20174C13.4377 2.20174 13.9383 1.70292 13.9383 1.10663C13.9383 0.510347 13.4377 0.0177735 12.8582 0.0177735L1.08007 0.0177735C0.511128 0.0177735 0 0.510347 0 1.10663C0 1.70292 0.511128 2.20174 1.08007 2.20174ZM1.08007 8.58982L12.8582 8.58982C13.4377 8.58982 13.9383 8.099 13.9383 7.50272C13.9383 6.90643 13.4377 6.40585 12.8582 6.40585L1.08007 6.40585C0.511128 6.40585 0 6.90643 0 7.50272C0 8.099 0.511128 8.58982 1.08007 8.58982Z" fill="white" fill-opacity="0.85"/>
 </g>
</svg>
