<?xml version="1.0" encoding="UTF-8"?>
<!--Generator: Apple Native CoreSVG 341-->
<!DOCTYPE svg
PUBLIC "-//W3C//DTD SVG 1.1//EN"
       "http://www.w3.org/Graphics/SVG/1.1/DTD/svg11.dtd">
<svg version="1.1" xmlns="http://www.w3.org/2000/svg" xmlns:xlink="http://www.w3.org/1999/xlink" viewBox="0 0 20.4485 20.2468">
 <g>
  <rect height="20.2468" opacity="0" width="20.4485" x="0" y="0"/>
  <path d="M1.17945 14.9605L5.131 18.9023C6.66889 20.4322 8.42299 20.4873 9.87474 19.0355L19.3802 9.52028C20.3337 8.57653 20.3204 7.25544 19.3492 6.28416L13.7994 0.740609C12.8281-0.230677 11.5132-0.250208 10.5632 0.703304L1.05601 10.207C-0.395745 11.6668-0.346917 13.4226 1.17945 14.9605ZM2.56518 13.6345C1.87299 12.9344 1.83393 12.139 2.48002 11.4832L11.7611 2.20563C11.9974 1.96755 12.3244 1.96755 12.5544 2.19587L17.8957 7.53708C18.1222 7.7654 18.1142 8.08435 17.8859 8.31443L8.59858 17.6C7.95248 18.2576 7.15541 18.2168 6.45697 17.5183ZM2.85131 9.81463L10.2671 17.2402L11.4335 16.0721L4.03373 8.67401Z" fill="white" fill-opacity="0.85"/>
 </g>
</svg>
