<?xml version="1.0" encoding="UTF-8"?>
<!--Generator: Apple Native CoreSVG 341-->
<!DOCTYPE svg
PUBLIC "-//W3C//DTD SVG 1.1//EN"
       "http://www.w3.org/Graphics/SVG/1.1/DTD/svg11.dtd">
<svg version="1.1" xmlns="http://www.w3.org/2000/svg" xmlns:xlink="http://www.w3.org/1999/xlink" viewBox="0 0 20.5381 20.1848">
 <g>
  <rect height="20.1848" opacity="0" width="20.5381" x="0" y="0"/>
  <path d="M10.0875 20.175C15.6576 20.175 20.1767 15.6559 20.1767 10.0875C20.1767 4.51914 15.6576 0 10.0875 0C9.53887 0 9.09395 0.443161 9.09395 0.993548C9.09395 1.54218 9.53887 1.9951 10.0875 1.9951C14.5586 1.9951 18.1799 5.6164 18.1799 10.0875C18.1799 14.5586 14.5586 18.1799 10.0875 18.1799C5.61815 18.1799 1.9951 14.5586 1.9951 10.0875C1.9951 9.53887 1.55019 9.08594 0.993548 9.08594C0.444919 9.08594 0 9.53887 0 10.0875C0 15.6559 4.51914 20.175 10.0875 20.175Z" fill="white" fill-opacity="0.85"/>
  <path d="M9.97089 10.2475C10.3549 9.90879 10.4781 9.28359 9.97187 8.77032L4.8078 3.61152L3.09549 2.12988C2.75604 1.84707 2.26405 1.81875 1.95116 2.12988C1.63652 2.45253 1.6666 2.93475 1.94941 3.26795L3.41425 5.00878L8.57735 10.1764C9.05176 10.64 9.61367 10.5639 9.97089 10.2475ZM1.2705 6.9496C1.76269 6.9496 2.1998 6.56035 2.16874 6.05136L2.05058 3.23065L3.02791 2.22128L5.87617 2.36523C6.3746 2.39628 6.76913 1.95742 6.77714 1.46699C6.77714 0.959766 6.37812 0.566995 5.88242 0.558987L1.50898 0.555471C0.766015 0.555471 0.368751 0.95 0.370509 1.69746L0.370509 6.05937C0.378517 6.56035 0.783789 6.9496 1.2705 6.9496Z" fill="white" fill-opacity="0.85"/>
 </g>
</svg>
