<?xml version="1.0" encoding="UTF-8"?>
<!--Generator: Apple Native CoreSVG 341-->
<!DOCTYPE svg
PUBLIC "-//W3C//DTD SVG 1.1//EN"
       "http://www.w3.org/Graphics/SVG/1.1/DTD/svg11.dtd">
<svg version="1.1" xmlns="http://www.w3.org/2000/svg" xmlns:xlink="http://www.w3.org/1999/xlink" viewBox="0 0 24.226 20.1848">
 <g>
  <rect height="20.1848" opacity="0" width="24.226" x="0" y="0"/>
  <path d="M0.721518 8.12363C-0.00973073 8.12363-0.190785 8.66894 0.204136 9.22109L2.47249 12.3723C2.78948 12.8092 3.27757 12.8012 3.58831 12.3723L5.8469 9.21308C6.24007 8.66894 6.051 8.12363 5.33929 8.12363ZM22.0239 10.0875C22.0239 4.51914 17.503 0 11.9364 0C6.368 0 1.85687 4.50937 1.84886 10.099C1.85687 10.6476 2.29378 11.0846 2.83441 11.0846C3.38303 11.0846 3.83596 10.6396 3.83596 10.091C3.83596 5.60839 7.45725 1.9871 11.9364 1.9871C16.4155 1.9871 20.0368 5.60839 20.0368 10.0875C20.0368 14.5666 16.4155 18.1879 11.9364 18.1879C9.3096 18.1879 7.0131 16.9437 5.54279 15.0176C5.1469 14.5609 4.58421 14.4129 4.10726 14.7519C3.66214 15.0734 3.55902 15.725 3.99475 16.2355C5.84631 18.6584 8.71858 20.175 11.9364 20.175C17.503 20.175 22.0239 15.6559 22.0239 10.0875Z" fill="white" fill-opacity="0.85"/>
  <path d="M7.93323 13.7631L10.7559 13.7631C11.076 13.7631 11.2907 13.5768 11.2907 13.2486C11.2907 12.9275 11.0743 12.7439 10.7559 12.7439L8.54338 12.7439L8.54338 10.5141L10.6625 10.5141C10.9561 10.5141 11.1477 10.3232 11.1477 10.0297C11.1477 9.73261 10.9508 9.55957 10.6625 9.55957L8.54338 9.55957L8.54338 7.43729L10.7559 7.43729C11.076 7.43729 11.2907 7.25546 11.2907 6.93085C11.2907 6.60448 11.076 6.43417 10.7559 6.43417L7.93323 6.43417C7.5555 6.43417 7.34534 6.66737 7.34534 7.05136L7.34534 13.1361C7.34534 13.5201 7.54749 13.7631 7.93323 13.7631ZM12.9241 13.7631L16.3869 13.7631C16.692 13.7631 16.8721 13.5537 16.8721 13.2486C16.8721 12.9436 16.692 12.7439 16.3869 12.7439L13.6912 12.7439L13.6912 12.6951L16.6139 7.51991C16.6955 7.37342 16.7772 7.21815 16.7772 7.00975C16.7772 6.68085 16.5653 6.43417 16.1625 6.43417L12.8674 6.43417C12.5491 6.43417 12.3309 6.61425 12.3309 6.93085C12.3309 7.24921 12.5491 7.43729 12.8674 7.43729L15.4274 7.43729L15.4274 7.48612L12.4674 12.6889C12.376 12.8424 12.3219 13.01 12.3219 13.1883C12.3219 13.5697 12.5987 13.7631 12.9241 13.7631Z" fill="white" fill-opacity="0.85"/>
 </g>
</svg>
