<?xml version="1.0" encoding="UTF-8"?>
<!--Generator: Apple Native CoreSVG 341-->
<!DOCTYPE svg
PUBLIC "-//W3C//DTD SVG 1.1//EN"
       "http://www.w3.org/Graphics/SVG/1.1/DTD/svg11.dtd">
<svg version="1.1" xmlns="http://www.w3.org/2000/svg" xmlns:xlink="http://www.w3.org/1999/xlink" viewBox="0 0 24.2049 19.7961">
 <g>
  <rect height="19.7961" opacity="0" width="24.2049" x="0" y="0"/>
  <path d="M23.8435 11.8701C23.8435 5.64747 19.073 0.538875 12.9941 0.00293831C12.6553-0.029874 12.3998 0.215828 12.3998 0.554694L12.3998 3.8043C12.3998 4.08907 12.6012 4.30645 12.8842 4.33301C16.6191 4.80957 19.517 8.00293 19.517 11.8701C19.517 13.6332 18.9115 15.2613 17.8488 16.61C17.6945 16.8023 17.7025 17.0471 17.8719 17.2244L20.2322 19.5785C20.4646 19.8144 20.823 19.8109 21.0359 19.559C22.7926 17.4783 23.8435 14.7949 23.8435 11.8701Z" fill="white" fill-opacity="0.85"/>
  <path d="M0 11.8701C0 14.8029 1.05098 17.4863 2.80586 19.5652C3.01875 19.8172 3.36914 19.8109 3.61132 19.5768L5.96992 17.2227C6.13925 17.0453 6.14726 16.8006 5.99296 16.6082C4.92578 15.2613 4.32656 13.6332 4.32656 11.8701C4.32656 8.00293 7.22617 4.80957 10.9594 4.33301C11.2441 4.30645 11.4437 4.08907 11.4437 3.8043L11.4437 0.554694C11.4437 0.215828 11.1883-0.029874 10.8494 0.00293831C4.77226 0.538875 0 5.64747 0 11.8701Z" fill="white" fill-opacity="0.85"/>
  <path d="M13.0916 16.2148C13.3879 16.2148 13.7393 16.1981 14.0232 16.1254C14.3285 16.0332 14.5664 15.8656 14.5664 15.5428C14.5664 15.1828 14.3076 15.0258 13.9477 15.0258C13.6764 15.0258 13.5732 15.0578 13.2539 15.0578C11.1709 15.0578 9.95389 13.9543 9.95389 11.9158C9.95389 9.91465 11.1139 8.77109 13.2369 8.77109C13.5242 8.77109 13.7795 8.80312 13.9529 8.80312C14.3111 8.80312 14.5664 8.63457 14.5664 8.27637C14.5664 7.96953 14.3783 7.78594 14.0232 7.6875C13.7748 7.62461 13.4545 7.60156 13.1004 7.60156C10.6281 7.60156 8.58163 8.97871 8.58163 11.9096C8.58163 14.6691 10.4027 16.2148 13.0916 16.2148ZM7.36171 11.0746C7.36171 11.2434 7.50116 11.3811 7.66991 11.3811L13.0369 11.3811C13.2057 11.3811 13.3434 11.2434 13.3434 11.0746C13.3434 10.8996 13.2057 10.7602 13.0369 10.7602L7.66991 10.7602C7.50116 10.7602 7.36171 10.8996 7.36171 11.0746ZM7.36171 12.7506C7.36171 12.9193 7.50116 13.0588 7.66991 13.0588L13.0369 13.0588C13.2057 13.0588 13.3434 12.9193 13.3434 12.7506C13.3434 12.5836 13.2057 12.4441 13.0369 12.4441L7.66991 12.4441C7.50116 12.4441 7.36171 12.5836 7.36171 12.7506Z" fill="white" fill-opacity="0.85"/>
 </g>
</svg>
