<?xml version="1.0" encoding="UTF-8"?>
<!--Generator: Apple Native CoreSVG 341-->
<!DOCTYPE svg
PUBLIC "-//W3C//DTD SVG 1.1//EN"
       "http://www.w3.org/Graphics/SVG/1.1/DTD/svg11.dtd">
<svg version="1.1" xmlns="http://www.w3.org/2000/svg" xmlns:xlink="http://www.w3.org/1999/xlink" viewBox="0 0 22.301 21.9477">
 <g>
  <rect height="21.9477" opacity="0" width="22.301" x="0" y="0"/>
  <path d="M10.9689 21.9379C16.9984 21.9379 21.9396 16.9984 21.9396 10.9689C21.9396 4.93945 16.9984 0 10.9689 0C4.93945 0 0 4.93945 0 10.9689C0 16.9984 4.93945 21.9379 10.9689 21.9379ZM10.9689 18.2242C6.96133 18.2242 3.71367 14.9766 3.71367 10.9689C3.71367 6.95332 6.96133 3.71367 10.9689 3.71367C14.9846 3.71367 18.226 6.95332 18.226 10.9689C18.226 14.9766 14.9846 18.2242 10.9689 18.2242Z" fill="white" fill-opacity="0.85"/>
  <path d="M12.1428 15.2307C12.4391 15.2307 12.7984 15.2059 13.0824 15.1314C13.3877 15.0393 13.6176 14.8797 13.6176 14.5586C13.6176 14.1986 13.3668 14.0416 13.0068 14.0416C12.7355 14.0416 12.6342 14.0736 12.3051 14.0736C10.2301 14.0736 9.01308 12.9701 9.01308 10.9316C9.01308 8.92245 10.173 7.77714 12.2898 7.77714C12.5852 7.77714 12.8404 7.81093 13.0139 7.81093C13.3721 7.81093 13.6176 7.64237 13.6176 7.28417C13.6176 6.98535 13.4375 6.80175 13.0824 6.70332C12.834 6.64043 12.5057 6.60937 12.1516 6.60937C9.6873 6.60937 7.64258 7.98652 7.64258 10.9254C7.64258 13.685 9.46191 15.2307 12.1428 15.2307ZM6.42265 10.0824C6.42265 10.2494 6.56035 10.3889 6.7291 10.3889L12.0978 10.3889C12.2648 10.3889 12.4043 10.2494 12.4043 10.0824C12.4043 9.91543 12.2648 9.77597 12.0978 9.77597L6.7291 9.77597C6.56035 9.77597 6.42265 9.91543 6.42265 10.0824ZM6.42265 11.7664C6.42265 11.9352 6.56035 12.0729 6.7291 12.0729L12.0978 12.0729C12.2648 12.0729 12.4043 11.9352 12.4043 11.7664C12.4043 11.5914 12.2648 11.452 12.0978 11.452L6.7291 11.452C6.56035 11.452 6.42265 11.5914 6.42265 11.7664Z" fill="white" fill-opacity="0.85"/>
 </g>
</svg>
