<?xml version="1.0" encoding="UTF-8"?>
<!--Generator: Apple Native CoreSVG 341-->
<!DOCTYPE svg
PUBLIC "-//W3C//DTD SVG 1.1//EN"
       "http://www.w3.org/Graphics/SVG/1.1/DTD/svg11.dtd">
<svg version="1.1" xmlns="http://www.w3.org/2000/svg" xmlns:xlink="http://www.w3.org/1999/xlink" viewBox="0 0 22.7515 21.4965">
 <g>
  <rect height="21.4965" opacity="0" width="22.7515" x="0" y="0"/>
  <path d="M1.44999 18.9656L20.9947 18.9656L20.9947 18.2322C20.9947 17.8064 20.7437 17.551 20.3117 17.551L19.7447 17.551L19.7447 6.98046L20.5865 6.98046C21.1851 6.98046 21.5363 6.53886 21.5363 6.09277C21.5363 5.7664 21.351 5.47734 20.9545 5.24941L12.481 0.359374C12.0764 0.125976 11.6398 0 11.2183 0C10.7969 0 10.3523 0.125976 9.96366 0.359374L1.49023 5.24941C1.08574 5.47734 0.908396 5.7664 0.908396 6.09277C0.908396 6.53886 1.25957 6.98046 1.85995 6.98046L2.69999 6.98046L2.69999 17.551L2.14101 17.551C1.70898 17.551 1.44999 17.8064 1.44999 18.2322ZM4.32401 17.551L4.32401 5.67245L10.8779 1.99999C10.9846 1.93866 11.1072 1.90487 11.2183 1.90487C11.333 1.90487 11.4521 1.93866 11.5668 1.99999L18.1207 5.67245L18.1207 17.551ZM0.881441 21.4867L21.499 21.4867C21.9797 21.4867 22.3902 21.0849 22.3902 20.5972C22.3902 20.1148 21.9797 19.7158 21.499 19.7158L0.881441 19.7158C0.399022 19.7158 0 20.1148 0 20.5972C0 21.0832 0.399022 21.4867 0.881441 21.4867Z" fill="white" fill-opacity="0.85"/>
  <path d="M12.4019 14.8375C12.6982 14.8375 13.0496 14.8207 13.3336 14.748C13.6469 14.6558 13.875 14.4883 13.875 14.1654C13.875 13.8055 13.626 13.6484 13.266 13.6484C12.993 13.6484 12.8916 13.6805 12.5642 13.6805C10.4875 13.6805 9.27225 12.5769 9.27225 10.5385C9.27225 8.53729 10.4305 7.39373 12.5472 7.39373C12.8426 7.39373 13.0978 7.42576 13.2713 7.42576C13.6295 7.42576 13.875 7.25721 13.875 6.89901C13.875 6.59217 13.6949 6.40858 13.3336 6.31014C13.0834 6.24725 12.7631 6.2242 12.409 6.2242C9.94471 6.2242 7.89999 7.60135 7.89999 10.5322C7.89999 13.2918 9.71932 14.8375 12.4019 14.8375ZM6.67205 9.69725C6.67205 9.866 6.81151 10.0037 6.98651 10.0037L12.3553 10.0037C12.5223 10.0037 12.6617 9.866 12.6617 9.69725C12.6617 9.52225 12.5223 9.3828 12.3553 9.3828L6.98651 9.3828C6.81151 9.3828 6.67205 9.52225 6.67205 9.69725ZM6.67205 11.3732C6.67205 11.542 6.81151 11.6814 6.98651 11.6814L12.3553 11.6814C12.5223 11.6814 12.6617 11.542 12.6617 11.3732C12.6617 11.2062 12.5223 11.0668 12.3553 11.0668L6.98651 11.0668C6.81151 11.0668 6.67205 11.2062 6.67205 11.3732Z" fill="white" fill-opacity="0.85"/>
 </g>
</svg>
