<?xml version="1.0" encoding="UTF-8"?>
<!--Generator: Apple Native CoreSVG 341-->
<!DOCTYPE svg
PUBLIC "-//W3C//DTD SVG 1.1//EN"
       "http://www.w3.org/Graphics/SVG/1.1/DTD/svg11.dtd">
<svg version="1.1" xmlns="http://www.w3.org/2000/svg" xmlns:xlink="http://www.w3.org/1999/xlink" viewBox="0 0 18.5894 18.2316">
 <g>
  <rect height="18.2316" opacity="0" width="18.5894" x="0" y="0"/>
  <path d="M18.2281 3.17148L18.2281 15.0646C18.2281 17.1502 17.1404 18.2281 15.0246 18.2281L3.20351 18.2281C1.0957 18.2281 0 17.1502 0 15.0646L0 3.17148C0 1.08769 1.0957 0 3.20351 0L15.0246 0C17.1404 0 18.2281 1.08769 18.2281 3.17148ZM5.83359 7.87187L4.76288 7.87187C4.59589 7.87187 4.44667 8.01308 4.44667 8.19159C4.44667 8.37011 4.59589 8.50781 4.76288 8.50781L5.73671 8.50781C5.71718 8.68632 5.70918 8.87109 5.70918 9.06738C5.70918 9.25117 5.71718 9.44296 5.73671 9.61699L4.76288 9.61699C4.59589 9.61699 4.44667 9.7582 4.44667 9.94121C4.44667 10.1117 4.59589 10.2609 4.76288 10.2609L5.83886 10.2609C6.29355 12.3826 8.01406 13.5428 10.3928 13.5428C10.7041 13.5428 11.0785 13.5162 11.374 13.44C11.6908 13.3461 11.9322 13.1768 11.9322 12.8406C11.9322 12.4639 11.6682 12.2936 11.2914 12.2936C11.0121 12.2936 10.9107 12.3354 10.5656 12.3354C8.86444 12.3354 7.71698 11.6076 7.31112 10.2609L10.3514 10.2609C10.5184 10.2609 10.6676 10.1117 10.6676 9.94121C10.6676 9.7582 10.5184 9.61699 10.3514 9.61699L7.18417 9.61699C7.16288 9.44296 7.15311 9.25917 7.15311 9.07363C7.15311 8.87734 7.16288 8.68632 7.18241 8.50781L10.3514 8.50781C10.5184 8.50781 10.6676 8.37011 10.6676 8.19159C10.6676 8.01308 10.5184 7.87187 10.3514 7.87187L7.3121 7.87187C7.70819 6.54218 8.82089 5.80917 10.5504 5.80917C10.8537 5.80917 11.117 5.8412 11.2984 5.8412C11.6734 5.8412 11.9322 5.66112 11.9322 5.28612C11.9322 4.97402 11.7406 4.77714 11.374 4.67695C11.1123 4.61406 10.7707 4.58925 10.4016 4.58925C8.19687 4.58925 6.31406 5.64472 5.83359 7.87187Z" fill="white" fill-opacity="0.85"/>
 </g>
</svg>
