<?xml version="1.0" encoding="UTF-8"?>
<!--Generator: Apple Native CoreSVG 341-->
<!DOCTYPE svg
PUBLIC "-//W3C//DTD SVG 1.1//EN"
       "http://www.w3.org/Graphics/SVG/1.1/DTD/svg11.dtd">
<svg version="1.1" xmlns="http://www.w3.org/2000/svg" xmlns:xlink="http://www.w3.org/1999/xlink" viewBox="0 0 24.2049 19.8808">
 <g>
  <rect height="19.8808" opacity="0" width="24.2049" x="0" y="0"/>
  <path d="M23.8435 11.9178C23.8435 9.01855 22.8031 6.3457 21.0623 4.27031C20.8547 4.02011 20.498 4.02011 20.2621 4.2623L17.9578 6.56484C17.7547 6.76796 17.7467 7.05097 17.9232 7.27363C18.9185 8.56269 19.517 10.1768 19.517 11.9178C19.517 13.6826 18.9115 15.3107 17.8488 16.6611C17.6945 16.8535 17.7025 17.0982 17.8719 17.2756L20.2242 19.6279C20.4646 19.8683 20.8133 19.8683 21.0359 19.6066C22.7908 17.5277 23.8435 14.8443 23.8435 11.9178Z" fill="white" fill-opacity="0.85"/>
  <path d="M11.9178 4.32656C13.6783 4.32656 15.2941 4.933 16.5912 5.93183C16.8041 6.09863 17.0791 6.0791 17.2787 5.87773L19.5812 3.57343C19.8252 3.33125 19.8154 2.9791 19.5582 2.76797C17.4926 1.04043 14.8232 0 11.9178 0C9.02031 0 6.35097 1.04043 4.28711 2.76797C4.02988 2.9791 4.01836 3.33125 4.2623 3.57343L6.56484 5.87773C6.76445 6.0791 7.05097 6.09863 7.28163 5.92207C8.56894 4.933 10.1768 4.32656 11.9178 4.32656Z" fill="white" fill-opacity="0.85"/>
  <path d="M0 11.9178C0 14.8461 1.05625 17.5348 2.81465 19.6137C3.02402 19.8719 3.3789 19.8683 3.61308 19.6279L5.96367 17.2756C6.133 17.0982 6.15077 16.8535 5.99472 16.6611C4.93378 15.3107 4.32656 13.6826 4.32656 11.9178C4.32656 10.1768 4.91699 8.56269 5.92031 7.27363C6.08886 7.05097 6.08886 6.76796 5.88574 6.56484L3.58144 4.2623C3.33926 4.02011 2.98711 4.02187 2.77422 4.2791C1.03867 6.35097 0 9.02031 0 11.9178Z" fill="white" fill-opacity="0.85"/>
  <path d="M13.0916 16.2572C13.3879 16.2572 13.7393 16.2404 14.0232 16.1678C14.3285 16.0756 14.5664 15.908 14.5664 15.5852C14.5664 15.2252 14.3076 15.0682 13.9477 15.0682C13.6764 15.0682 13.5732 15.1002 13.2539 15.1002C11.1709 15.1002 9.95389 13.9967 9.95389 11.9582C9.95389 9.95702 11.1139 8.81346 13.2369 8.81346C13.5242 8.81346 13.7795 8.8455 13.9529 8.8455C14.3111 8.8455 14.5664 8.67694 14.5664 8.31874C14.5664 8.01191 14.3783 7.82831 14.0232 7.72988C13.7748 7.66699 13.4545 7.64394 13.1004 7.64394C10.6281 7.64394 8.58163 9.02109 8.58163 11.9519C8.58163 14.7115 10.4027 16.2572 13.0916 16.2572ZM7.36171 11.117C7.36171 11.2857 7.50116 11.4234 7.66991 11.4234L13.0369 11.4234C13.2057 11.4234 13.3434 11.2857 13.3434 11.117C13.3434 10.942 13.2057 10.8025 13.0369 10.8025L7.66991 10.8025C7.50116 10.8025 7.36171 10.942 7.36171 11.117ZM7.36171 12.793C7.36171 12.9617 7.50116 13.1012 7.66991 13.1012L13.0369 13.1012C13.2057 13.1012 13.3434 12.9617 13.3434 12.793C13.3434 12.626 13.2057 12.4865 13.0369 12.4865L7.66991 12.4865C7.50116 12.4865 7.36171 12.626 7.36171 12.793Z" fill="white" fill-opacity="0.85"/>
 </g>
</svg>
