<?xml version="1.0" encoding="UTF-8"?>
<!--Generator: Apple Native CoreSVG 341-->
<!DOCTYPE svg
PUBLIC "-//W3C//DTD SVG 1.1//EN"
       "http://www.w3.org/Graphics/SVG/1.1/DTD/svg11.dtd">
<svg version="1.1" xmlns="http://www.w3.org/2000/svg" xmlns:xlink="http://www.w3.org/1999/xlink" viewBox="0 0 24.5748 17.9785">
 <g>
  <rect height="17.9785" opacity="0" width="24.5748" x="0" y="0"/>
  <path d="M1.23026 17.9607L8.93222 17.9607C9.59765 17.9607 10.0564 17.5564 10.0564 16.894C10.0564 16.2358 9.59667 15.8209 8.93222 15.8209L2.49431 15.8209L2.49431 9.83007L8.62285 9.83007C9.28222 9.83007 9.67733 9.39824 9.67733 8.80469C9.67733 8.21836 9.29218 7.78106 8.62285 7.78106L2.49431 7.78106L2.49431 2.15233L8.93222 2.15233C9.57284 2.15233 10.0564 1.74354 10.0564 1.07128C10.0564 0.419334 9.60644 0 8.93222 0L1.23026 0C0.475777 0 0 0.481051 0 1.29764L0 16.6693C0 17.5301 0.523432 17.9607 1.23026 17.9607ZM13.7053 17.9607L23.1474 17.9607C23.8058 17.9607 24.2135 17.5078 24.2135 16.894C24.2135 16.2401 23.7898 15.8192 23.1474 15.8192L15.3648 15.8192L15.3648 15.725L23.583 2.32635C23.8019 1.96639 23.9385 1.67128 23.9385 1.23515C23.9385 0.511521 23.4406 0 22.6449 0L13.6572 0C12.998 0 12.5117 0.386521 12.5117 1.07128C12.5117 1.75057 12.9908 2.15584 13.6572 2.15584L21.0619 2.15584L21.0619 2.24198L12.7869 15.669C12.5609 16.0119 12.4305 16.3231 12.4305 16.7512C12.4305 17.5621 13.0242 17.9607 13.7053 17.9607Z" fill="white" fill-opacity="0.85"/>
 </g>
</svg>
