<?xml version="1.0" encoding="UTF-8"?>
<!--Generator: Apple Native CoreSVG 341-->
<!DOCTYPE svg
PUBLIC "-//W3C//DTD SVG 1.1//EN"
       "http://www.w3.org/Graphics/SVG/1.1/DTD/svg11.dtd">
<svg version="1.1" xmlns="http://www.w3.org/2000/svg" xmlns:xlink="http://www.w3.org/1999/xlink" viewBox="0 0 22.7515 21.4965">
 <g>
  <rect height="21.4965" opacity="0" width="22.7515" x="0" y="0"/>
  <path d="M12.481 0.359374L20.9545 5.24941C21.351 5.47734 21.5363 5.7664 21.5363 6.09277C21.5363 6.53886 21.1851 6.98046 20.5865 6.98046L19.7447 6.98046L19.7447 18.2742L20.3117 18.2742C20.7437 18.2742 20.9947 18.5297 20.9947 18.9572L20.9947 19.7158L21.499 19.7158C21.9797 19.7158 22.3902 20.1148 22.3902 20.5972C22.3902 21.0849 21.9797 21.4867 21.499 21.4867L0.881441 21.4867C0.399022 21.4867 0 21.0832 0 20.5972C0 20.1148 0.399022 19.7158 0.881441 19.7158L1.44999 19.7158L1.44999 18.9572C1.44999 18.5297 1.70898 18.2742 2.14101 18.2742L2.69999 18.2742L2.69999 6.98046L1.85995 6.98046C1.25957 6.98046 0.908396 6.53886 0.908396 6.09277C0.908396 5.7664 1.08574 5.47734 1.49023 5.24941L9.96366 0.359374C10.3523 0.125976 10.7969 0 11.2183 0C11.6398 0 12.0764 0.125976 12.481 0.359374ZM7.21405 7.91248C6.82128 7.91248 6.61561 8.15271 6.61561 8.54549L6.61561 14.6144C6.61561 15.0152 6.81327 15.2537 7.21405 15.2537L10.0283 15.2537C10.3697 15.2537 10.5719 15.0719 10.5719 14.7385C10.5719 14.4201 10.368 14.2232 10.0283 14.2232L7.83026 14.2232L7.83026 12.0051L9.94296 12.0051C10.232 12.0051 10.4351 11.8187 10.4351 11.5199C10.4351 11.2176 10.2267 11.041 9.94296 11.041L7.83026 11.041L7.83026 8.93494L10.0283 8.93494C10.3697 8.93494 10.5719 8.74158 10.5719 8.41971C10.5719 8.08631 10.3697 7.91248 10.0283 7.91248ZM12.1617 7.91248C11.8461 7.91248 11.6146 8.09783 11.6146 8.41971C11.6146 8.73533 11.8461 8.93494 12.1617 8.93494L14.7107 8.93494L14.7107 8.98377L11.7547 14.1699C11.6695 14.3252 11.6074 14.4963 11.6074 14.6764C11.6074 15.0586 11.8894 15.2537 12.2201 15.2537L15.6959 15.2537C15.9982 15.2537 16.1836 15.0506 16.1836 14.7385C16.1836 14.4361 15.9982 14.2232 15.6959 14.2232L12.9951 14.2232L12.9951 14.1744L15.9139 9.0113C16.0035 8.8613 16.0789 8.70427 16.0789 8.50037C16.0789 8.16268 15.8617 7.91248 15.468 7.91248Z" fill="white" fill-opacity="0.85"/>
 </g>
</svg>
