<?xml version="1.0" encoding="UTF-8"?>
<!--Generator: Apple Native CoreSVG 341-->
<!DOCTYPE svg
PUBLIC "-//W3C//DTD SVG 1.1//EN"
       "http://www.w3.org/Graphics/SVG/1.1/DTD/svg11.dtd">
<svg version="1.1" xmlns="http://www.w3.org/2000/svg" xmlns:xlink="http://www.w3.org/1999/xlink" viewBox="0 0 22.301 21.9477">
 <g>
  <rect height="21.9477" opacity="0" width="22.301" x="0" y="0"/>
  <path d="M10.9689 21.9379C16.9984 21.9379 21.9396 16.9984 21.9396 10.9689C21.9396 4.93945 16.9984 0 10.9689 0C4.93945 0 0 4.93945 0 10.9689C0 16.9984 4.93945 21.9379 10.9689 21.9379ZM10.9689 18.2242C6.96133 18.2242 3.71367 14.9766 3.71367 10.9689C3.71367 6.95332 6.96133 3.71367 10.9689 3.71367C14.9846 3.71367 18.226 6.95332 18.226 10.9689C18.226 14.9766 14.9846 18.2242 10.9689 18.2242Z" fill="white" fill-opacity="0.85"/>
  <path d="M7.03398 14.5781L9.80703 14.5781C10.1236 14.5781 10.3268 14.4016 10.3268 14.0787C10.3268 13.7691 10.1219 13.5873 9.80703 13.5873L7.63085 13.5873L7.63085 11.384L9.71367 11.384C9.9957 11.384 10.1855 11.2012 10.1855 10.9111C10.1855 10.6273 9.99218 10.4463 9.71367 10.4463L7.63085 10.4463L7.63085 8.36483L9.80703 8.36483C10.1236 8.36483 10.3268 8.17675 10.3268 7.86542C10.3268 7.54257 10.1236 7.37402 9.80703 7.37402L7.03398 7.37402C6.66328 7.37402 6.45488 7.60546 6.45488 7.97616L6.45488 13.968C6.45488 14.3467 6.65527 14.5781 7.03398 14.5781ZM11.9301 14.5781L15.3461 14.5781C15.6397 14.5781 15.818 14.3785 15.818 14.0787C15.818 13.7852 15.6397 13.5873 15.3461 13.5873L12.6885 13.5873L12.6885 13.5385L15.5615 8.43944C15.6512 8.29472 15.7248 8.14921 15.7248 7.94257C15.7248 7.61718 15.5147 7.37402 15.1234 7.37402L11.8832 7.37402C11.5701 7.37402 11.3537 7.55234 11.3537 7.86542C11.3537 8.1705 11.5701 8.36483 11.8832 8.36483L14.4068 8.36483L14.4068 8.41366L11.4885 13.5322C11.4051 13.684 11.3447 13.8418 11.3447 14.0246C11.3447 14.3865 11.618 14.5781 11.9301 14.5781Z" fill="white" fill-opacity="0.85"/>
 </g>
</svg>
