<?xml version="1.0" encoding="UTF-8"?>
<!--Generator: Apple Native CoreSVG 341-->
<!DOCTYPE svg
PUBLIC "-//W3C//DTD SVG 1.1//EN"
       "http://www.w3.org/Graphics/SVG/1.1/DTD/svg11.dtd">
<svg version="1.1" xmlns="http://www.w3.org/2000/svg" xmlns:xlink="http://www.w3.org/1999/xlink" viewBox="0 0 24.2049 19.7961">
 <g>
  <rect height="19.7961" opacity="0" width="24.2049" x="0" y="0"/>
  <path d="M23.8435 11.8701C23.8435 5.64747 19.073 0.538875 12.9941 0.00293831C12.6553-0.029874 12.3998 0.215828 12.3998 0.554694L12.3998 3.8043C12.3998 4.08907 12.6012 4.30645 12.8842 4.33301C16.6191 4.80957 19.517 8.00293 19.517 11.8701C19.517 13.6332 18.9115 15.2613 17.8488 16.61C17.6945 16.8023 17.7025 17.0471 17.8719 17.2244L20.2322 19.5785C20.4646 19.8144 20.823 19.8109 21.0359 19.559C22.7926 17.4783 23.8435 14.7949 23.8435 11.8701Z" fill="white" fill-opacity="0.85"/>
  <path d="M0 11.8701C0 14.8029 1.05098 17.4863 2.80586 19.5652C3.01875 19.8172 3.36914 19.8109 3.61132 19.5768L5.96992 17.2227C6.13925 17.0453 6.14726 16.8006 5.99296 16.6082C4.92578 15.2613 4.32656 13.6332 4.32656 11.8701C4.32656 8.00293 7.22617 4.80957 10.9594 4.33301C11.2441 4.30645 11.4437 4.08907 11.4437 3.8043L11.4437 0.554694C11.4437 0.215828 11.1883-0.029874 10.8494 0.00293831C4.77226 0.538875 0 5.64747 0 11.8701Z" fill="white" fill-opacity="0.85"/>
  <path d="M7.97479 15.5703L10.7478 15.5703C11.0627 15.5703 11.2676 15.3858 11.2676 15.0709C11.2676 14.7533 11.0609 14.5715 10.7478 14.5715L8.57167 14.5715L8.57167 12.3762L10.6545 12.3762C10.9445 12.3762 11.1344 12.1854 11.1344 11.9051C11.1344 11.6115 10.9393 11.4385 10.6545 11.4385L8.57167 11.4385L8.57167 9.34902L10.7478 9.34902C11.0627 9.34902 11.2676 9.16894 11.2676 8.84961C11.2676 8.53476 11.0627 8.36621 10.7478 8.36621L7.97479 8.36621C7.60233 8.36621 7.39569 8.59765 7.39569 8.96836L7.39569 14.9522C7.39569 15.3309 7.59433 15.5703 7.97479 15.5703ZM12.8709 15.5703L16.2869 15.5703C16.5885 15.5703 16.765 15.3645 16.765 15.0709C16.765 14.7693 16.5885 14.5715 16.2869 14.5715L13.6293 14.5715L13.6293 14.5227L16.5023 9.42539C16.592 9.2789 16.6639 9.13339 16.6639 8.92675C16.6639 8.60312 16.4555 8.36621 16.0643 8.36621L12.8223 8.36621C12.5092 8.36621 12.2928 8.54453 12.2928 8.84961C12.2928 9.16269 12.5092 9.34902 12.8223 9.34902L15.3477 9.34902L15.3477 9.39785L12.4293 14.5164C12.3459 14.6682 12.2855 14.834 12.2855 15.0106C12.2855 15.3805 12.5588 15.5703 12.8709 15.5703Z" fill="white" fill-opacity="0.85"/>
 </g>
</svg>
