<?xml version="1.0" encoding="UTF-8"?>
<!--Generator: Apple Native CoreSVG 341-->
<!DOCTYPE svg
PUBLIC "-//W3C//DTD SVG 1.1//EN"
       "http://www.w3.org/Graphics/SVG/1.1/DTD/svg11.dtd">
<svg version="1.1" xmlns="http://www.w3.org/2000/svg" xmlns:xlink="http://www.w3.org/1999/xlink" viewBox="0 0 20.5381 20.1848">
 <g>
  <rect height="20.1848" opacity="0" width="20.5381" x="0" y="0"/>
  <path d="M10.0875 20.175C15.6576 20.175 20.1767 15.6559 20.1767 10.0875C20.1767 4.51914 15.6576 0 10.0875 0C4.51914 0 0 4.51914 0 10.0875C0 15.6559 4.51914 20.175 10.0875 20.175ZM10.0875 18.1879C5.60839 18.1879 1.9871 14.5666 1.9871 10.0875C1.9871 5.60839 5.60839 1.9871 10.0875 1.9871C14.5666 1.9871 18.1897 5.60839 18.1897 10.0875C18.1897 14.5666 14.5666 18.1879 10.0875 18.1879Z" fill="white" fill-opacity="0.85"/>
  <path d="M11.2533 14.3492C11.5496 14.3492 11.909 14.3244 12.185 14.25C12.4982 14.1578 12.7281 13.9982 12.7281 13.6771C12.7281 13.3172 12.4773 13.1602 12.1174 13.1602C11.8461 13.1602 11.7447 13.1922 11.4156 13.1922C9.34062 13.1922 8.12362 12.0887 8.12362 10.0502C8.12362 8.04101 9.28358 6.89569 11.4004 6.89569C11.6957 6.89569 11.9492 6.92948 12.1244 6.92948C12.4826 6.92948 12.7281 6.76093 12.7281 6.40272C12.7281 6.1039 12.548 5.9203 12.185 5.82187C11.9445 5.75898 11.6162 5.72792 11.2621 5.72792C8.79785 5.72792 6.75312 7.10507 6.75312 10.0439C6.75312 12.8035 8.57246 14.3492 11.2533 14.3492ZM5.52519 9.20097C5.52519 9.36796 5.66288 9.50742 5.83964 9.50742L11.2084 9.50742C11.3754 9.50742 11.5148 9.36796 11.5148 9.20097C11.5148 9.03398 11.3754 8.89452 11.2084 8.89452L5.83964 8.89452C5.66288 8.89452 5.52519 9.03398 5.52519 9.20097ZM5.52519 10.885C5.52519 11.0537 5.66288 11.1914 5.83964 11.1914L11.2084 11.1914C11.3754 11.1914 11.5148 11.0537 11.5148 10.885C11.5148 10.71 11.3754 10.5705 11.2084 10.5705L5.83964 10.5705C5.66288 10.5705 5.52519 10.71 5.52519 10.885Z" fill="white" fill-opacity="0.85"/>
 </g>
</svg>
