<?xml version="1.0" encoding="UTF-8"?>
<!--Generator: Apple Native CoreSVG 341-->
<!DOCTYPE svg
PUBLIC "-//W3C//DTD SVG 1.1//EN"
       "http://www.w3.org/Graphics/SVG/1.1/DTD/svg11.dtd">
<svg version="1.1" xmlns="http://www.w3.org/2000/svg" xmlns:xlink="http://www.w3.org/1999/xlink" viewBox="0 0 24.2049 19.8808">
 <g>
  <rect height="19.8808" opacity="0" width="24.2049" x="0" y="0"/>
  <path d="M23.8435 11.9178C23.8435 9.01855 22.8031 6.3457 21.0623 4.27031C20.8547 4.02011 20.498 4.02011 20.2621 4.2623L17.9578 6.56484C17.7547 6.76796 17.7467 7.05097 17.9232 7.27363C18.9185 8.56269 19.517 10.1768 19.517 11.9178C19.517 13.6826 18.9115 15.3107 17.8488 16.6611C17.6945 16.8535 17.7025 17.0982 17.8719 17.2756L20.2242 19.6279C20.4646 19.8683 20.8133 19.8683 21.0359 19.6066C22.7908 17.5277 23.8435 14.8443 23.8435 11.9178Z" fill="white" fill-opacity="0.85"/>
  <path d="M11.9178 4.32656C13.6783 4.32656 15.2941 4.933 16.5912 5.93183C16.8041 6.09863 17.0791 6.0791 17.2787 5.87773L19.5812 3.57343C19.8252 3.33125 19.8154 2.9791 19.5582 2.76797C17.4926 1.04043 14.8232 0 11.9178 0C9.02031 0 6.35097 1.04043 4.28711 2.76797C4.02988 2.9791 4.01836 3.33125 4.2623 3.57343L6.56484 5.87773C6.76445 6.0791 7.05097 6.09863 7.28163 5.92207C8.56894 4.933 10.1768 4.32656 11.9178 4.32656Z" fill="white" fill-opacity="0.85"/>
  <path d="M0 11.9178C0 14.8461 1.05625 17.5348 2.81465 19.6137C3.02402 19.8719 3.3789 19.8683 3.61308 19.6279L5.96367 17.2756C6.133 17.0982 6.15077 16.8535 5.99472 16.6611C4.93378 15.3107 4.32656 13.6826 4.32656 11.9178C4.32656 10.1768 4.91699 8.56269 5.92031 7.27363C6.08886 7.05097 6.08886 6.76796 5.88574 6.56484L3.58144 4.2623C3.33926 4.02011 2.98711 4.02187 2.77422 4.2791C1.03867 6.35097 0 9.02031 0 11.9178Z" fill="white" fill-opacity="0.85"/>
  <path d="M7.97479 15.6127L10.7478 15.6127C11.0627 15.6127 11.2676 15.4281 11.2676 15.1133C11.2676 14.7957 11.0609 14.6139 10.7478 14.6139L8.57167 14.6139L8.57167 12.4185L10.6545 12.4185C10.9445 12.4185 11.1344 12.2277 11.1344 11.9475C11.1344 11.6539 10.9393 11.4809 10.6545 11.4809L8.57167 11.4809L8.57167 9.39139L10.7478 9.39139C11.0627 9.39139 11.2676 9.21132 11.2676 8.89198C11.2676 8.57714 11.0627 8.40858 10.7478 8.40858L7.97479 8.40858C7.60233 8.40858 7.39569 8.64003 7.39569 9.01073L7.39569 14.9945C7.39569 15.3732 7.59433 15.6127 7.97479 15.6127ZM12.8709 15.6127L16.2869 15.6127C16.5885 15.6127 16.765 15.4068 16.765 15.1133C16.765 14.8117 16.5885 14.6139 16.2869 14.6139L13.6293 14.6139L13.6293 14.565L16.5023 9.46776C16.592 9.32128 16.6639 9.17577 16.6639 8.96913C16.6639 8.6455 16.4555 8.40858 16.0643 8.40858L12.8223 8.40858C12.5092 8.40858 12.2928 8.5869 12.2928 8.89198C12.2928 9.20507 12.5092 9.39139 12.8223 9.39139L15.3477 9.39139L15.3477 9.44022L12.4293 14.5588C12.3459 14.7106 12.2855 14.8764 12.2855 15.0529C12.2855 15.4229 12.5588 15.6127 12.8709 15.6127Z" fill="white" fill-opacity="0.85"/>
 </g>
</svg>
