<?xml version="1.0" encoding="UTF-8"?>
<!--Generator: Apple Native CoreSVG 341-->
<!DOCTYPE svg
PUBLIC "-//W3C//DTD SVG 1.1//EN"
       "http://www.w3.org/Graphics/SVG/1.1/DTD/svg11.dtd">
<svg version="1.1" xmlns="http://www.w3.org/2000/svg" xmlns:xlink="http://www.w3.org/1999/xlink" viewBox="0 0 18.5894 18.2316">
 <g>
  <rect height="18.2316" opacity="0" width="18.5894" x="0" y="0"/>
  <path d="M3.20351 18.2281L15.0246 18.2281C17.1404 18.2281 18.2281 17.1502 18.2281 15.0646L18.2281 3.17148C18.2281 1.08769 17.1404 0 15.0246 0L3.20351 0C1.0957 0 0 1.08769 0 3.17148L0 15.0646C0 17.1502 1.0957 18.2281 3.20351 18.2281ZM3.31444 16.3148C2.40643 16.3148 1.91327 15.8465 1.91327 14.8977L1.91327 3.34023C1.91327 2.39139 2.40643 1.91503 3.31444 1.91503L14.9137 1.91503C15.8137 1.91503 16.3148 2.39139 16.3148 3.34023L16.3148 14.8977C16.3148 15.8465 15.8137 16.3148 14.9137 16.3148Z" fill="white" fill-opacity="0.85"/>
  <path d="M10.2928 13.3727C10.5891 13.3727 10.9484 13.3478 11.2324 13.2734C11.5377 13.1812 11.7676 13.0217 11.7676 12.7006C11.7676 12.3406 11.5168 12.1836 11.1568 12.1836C10.8855 12.1836 10.7824 12.2156 10.4551 12.2156C8.38007 12.2156 7.16307 11.1121 7.16307 9.07363C7.16307 7.06444 8.32304 5.91913 10.4381 5.91913C10.7334 5.91913 10.9887 5.95292 11.1621 5.95292C11.5221 5.95292 11.7676 5.78436 11.7676 5.42616C11.7676 5.12733 11.5875 4.94374 11.2324 4.8453C10.984 4.78241 10.6557 4.75136 10.3016 4.75136C7.8373 4.75136 5.79082 6.12851 5.79082 9.06738C5.79082 11.8269 7.61191 13.3727 10.2928 13.3727ZM4.57089 8.22441C4.57089 8.3914 4.71034 8.53085 4.87909 8.53085L10.2461 8.53085C10.4148 8.53085 10.5543 8.3914 10.5543 8.22441C10.5543 8.05741 10.4148 7.91796 10.2461 7.91796L4.87909 7.91796C4.71034 7.91796 4.57089 8.05741 4.57089 8.22441ZM4.57089 9.90839C4.57089 10.0771 4.71034 10.2148 4.87909 10.2148L10.2461 10.2148C10.4148 10.2148 10.5543 10.0771 10.5543 9.90839C10.5543 9.73339 10.4148 9.59394 10.2461 9.59394L4.87909 9.59394C4.71034 9.59394 4.57089 9.73339 4.57089 9.90839Z" fill="white" fill-opacity="0.85"/>
 </g>
</svg>
