<?xml version="1.0" encoding="UTF-8"?>
<!--Generator: Apple Native CoreSVG 341-->
<!DOCTYPE svg
PUBLIC "-//W3C//DTD SVG 1.1//EN"
       "http://www.w3.org/Graphics/SVG/1.1/DTD/svg11.dtd">
<svg version="1.1" xmlns="http://www.w3.org/2000/svg" xmlns:xlink="http://www.w3.org/1999/xlink" viewBox="0 0 28.8402 22.0367">
 <g>
  <rect height="22.0367" opacity="0" width="28.8402" x="0" y="0"/>
  <path d="M1.58613 21.285L3.40175 21.285L3.40175 2.67577C3.40175 2.12655 3.68163 1.82538 4.23183 1.82538L12.4166 1.82538C12.9588 1.82538 13.2467 2.11855 13.2467 2.67577L13.2547 21.285L15.0801 21.285L15.0801 2.58242C15.0801 0.919334 14.1607 0 12.5074 0L4.14902 0C2.48144 0 1.58613 0.919334 1.58613 2.58242ZM5.00956 8.96894L11.6451 8.96894C12.0141 8.96894 12.2846 8.70722 12.2846 8.34882L12.2846 3.41561C12.2846 3.05546 12.0096 2.7955 11.6451 2.7955L5.00956 2.7955C4.63885 2.7955 4.37186 3.05546 4.37186 3.41561L4.37186 8.34882C4.37186 8.70722 4.64061 8.96894 5.00956 8.96894ZM0 21.1182C0 21.6226 0.398045 22.0367 0.892769 22.0367L15.7574 22.0367C16.2521 22.0367 16.6582 21.6226 16.6582 21.1182C16.6582 20.6314 16.2521 20.2254 15.7574 20.2254L0.892769 20.2254C0.406052 20.2254 0 20.6234 0 21.1182ZM20.2775 10.0102L20.2775 16.1176C20.2775 17.3936 19.7287 18.1199 18.7625 18.1199C17.8781 18.1199 17.3275 17.5453 17.3275 16.6094C17.3275 15.165 17.5619 13.2977 17.5619 11.5426C17.5619 9.80723 16.708 8.48731 14.5832 7.79668L14.0748 8.94297C15.6752 9.41621 16.3064 10.3707 16.3064 11.5426C16.3064 13.1051 16.0703 14.9742 16.0703 16.6094C16.0703 18.3066 17.115 19.3852 18.7625 19.3852C20.5299 19.3852 21.5348 18.1947 21.5348 16.1176L21.5348 10.0102C21.5348 9.18222 22.1275 8.93554 22.5738 8.57011C23.2023 8.08828 23.5396 7.42695 23.5396 6.65644L23.5396 5.40488C23.5396 5.19101 23.4021 5.04374 23.2123 5.04374L22.5978 5.04374L22.5978 3.31659C22.5978 3.04413 22.368 2.81601 22.0875 2.81601C21.8168 2.81601 21.5789 3.04413 21.5789 3.31659L21.5869 5.04374L20.317 5.04374L20.317 3.31659C20.317 3.04413 20.0933 2.81601 19.8209 2.81601C19.5342 2.81601 19.3123 3.04413 19.3123 3.31659L19.3123 5.04374L18.608 5.04374C18.4004 5.04374 18.2709 5.19101 18.2709 5.40488L18.2709 6.65644C18.2709 7.42695 18.6162 8.08828 19.2287 8.57011C19.683 8.93554 20.2775 9.18222 20.2775 10.0102Z" fill="white" fill-opacity="0.85"/>
  <path d="M27.0545 17.5891C27.8508 17.5891 28.4789 16.9875 28.4789 16.2408C28.4789 15.4879 27.8588 14.8943 27.0545 14.8943C26.2547 14.8943 25.6293 15.4879 25.6293 16.2408C25.6293 16.9875 26.2627 17.5891 27.0545 17.5891ZM27.0545 13.1424C27.6367 13.1424 28.033 12.7646 28.0578 12.1594L28.2646 5.6285C28.2894 4.90507 27.8045 4.42011 27.0492 4.42011C26.3019 4.42011 25.8152 4.90507 25.8418 5.6285L26.0521 12.1664C26.0769 12.7646 26.4687 13.1424 27.0545 13.1424Z" fill="white" fill-opacity="0.85"/>
 </g>
</svg>
