<?xml version="1.0" encoding="UTF-8"?>
<!--Generator: Apple Native CoreSVG 341-->
<!DOCTYPE svg
PUBLIC "-//W3C//DTD SVG 1.1//EN"
       "http://www.w3.org/Graphics/SVG/1.1/DTD/svg11.dtd">
<svg version="1.1" xmlns="http://www.w3.org/2000/svg" xmlns:xlink="http://www.w3.org/1999/xlink" viewBox="0 0 26.6453 26.9852">
 <g>
  <rect height="26.9852" opacity="0" width="26.6453" x="0" y="0"/>
  <path d="M6.51292 10.9668L6.50787 22.6996L16.3604 22.6996L16.3604 20.8007L18.1857 22.6236L18.1857 22.6996L18.2619 22.6996L19.6318 24.0677C19.4744 24.333 19.1886 24.511 18.8631 24.511L4.00644 24.511C3.51172 24.511 3.10567 24.0969 3.10567 23.5924C3.10567 23.0977 3.51973 22.6996 4.00644 22.6996L4.6918 22.6996L4.6918 9.14814ZM25.7053 5.79084L25.7053 7.51799L26.3197 7.51799C26.5176 7.51799 26.6453 7.66526 26.6453 7.87912L26.6453 9.13069C26.6453 9.9012 26.3098 10.5625 25.6875 11.0444C25.2412 11.4098 24.6484 11.6565 24.6484 12.4844L24.6484 18.5918C24.6484 20.2402 24.0106 21.3301 22.866 21.7071L21.7472 20.5888C21.7889 20.5927 21.8322 20.5942 21.8762 20.5942C22.8361 20.5942 23.393 19.8678 23.393 18.5918L23.393 12.4844C23.393 11.6565 22.7904 11.4098 22.3424 11.0444C21.7219 10.5625 21.3766 9.9012 21.3766 9.13069L21.3766 7.87912C21.3766 7.66526 21.5141 7.51799 21.7137 7.51799L22.426 7.51799L22.426 5.79084C22.426 5.51838 22.6478 5.29026 22.9283 5.29026C23.2088 5.29026 23.4226 5.51838 23.4226 5.79084L23.4226 7.51799L24.6926 7.51799L24.6926 5.79084C24.6926 5.51838 24.9322 5.29026 25.1932 5.29026C25.4816 5.29026 25.7053 5.51838 25.7053 5.79084ZM18.1857 5.05667L18.1857 10.4533C19.9486 11.1789 20.6693 12.4226 20.6693 14.0168C20.6693 15.7719 20.4332 17.6393 20.4332 19.0836C20.4332 19.1532 20.4363 19.2208 20.4434 19.2856L19.205 18.0478C19.2643 16.6922 19.4121 15.2578 19.4121 14.0168C19.4121 13.1296 19.0549 12.367 18.1857 11.844L18.1857 17.029L16.3604 15.2045L16.3604 5.15002C16.3604 4.59279 16.0645 4.29963 15.5223 4.29963L7.3455 4.29963C6.7873 4.29963 6.51542 4.6008 6.51542 5.15002L6.51533 5.36395L4.92775 3.77709C5.29229 2.92827 6.0828 2.47425 7.25469 2.47425L15.6131 2.47425C17.2744 2.47425 18.1857 3.39358 18.1857 5.05667ZM15.3902 5.88986L15.3902 10.8231C15.3902 11.1815 15.1215 11.4432 14.7525 11.4432L12.5974 11.4432L7.47753 6.32571L7.47753 5.88986C7.47753 5.5297 7.74452 5.26974 8.11698 5.26974L14.7525 5.26974C15.1232 5.26974 15.3902 5.5297 15.3902 5.88986Z" fill="white" fill-opacity="0.85"/>
  <path d="M22.8189 25.5639C23.1305 25.8656 23.6248 25.8674 23.9185 25.5639C24.2185 25.2541 24.2301 24.7598 23.9185 24.4563L2.558 3.11351C2.25624 2.80999 1.76015 2.80999 1.44863 3.11351C1.15664 3.4055 1.15664 3.91936 1.44863 4.21311Z" fill="white" fill-opacity="0.85"/>
 </g>
</svg>
