<?xml version="1.0" encoding="UTF-8"?>
<!--Generator: Apple Native CoreSVG 341-->
<!DOCTYPE svg
PUBLIC "-//W3C//DTD SVG 1.1//EN"
       "http://www.w3.org/Graphics/SVG/1.1/DTD/svg11.dtd">
<svg version="1.1" xmlns="http://www.w3.org/2000/svg" xmlns:xlink="http://www.w3.org/1999/xlink" viewBox="0 0 28.4302 22.0367">
 <g>
  <rect height="22.0367" opacity="0" width="28.4302" x="0" y="0"/>
  <path d="M14.6621 21.2769L14.6621 2.58242C14.6621 0.919334 13.7428 0 12.0877 0L4.14277 0C2.47343 0 1.57812 0.919334 1.57812 2.58242L1.57812 21.2769ZM4.50448 8.92675C3.82245 8.92675 3.39804 8.54316 3.39804 7.91523L3.39804 2.84921C3.39804 2.21152 3.82069 1.82167 4.50448 1.82167L11.726 1.82167C12.4115 1.82167 12.8422 2.21152 12.8422 2.84921L12.8422 7.91523C12.8422 8.54316 12.408 8.92675 11.726 8.92675ZM0 21.1102C0 21.6146 0.398045 22.0287 0.892769 22.0287L15.3314 22.0287C15.8262 22.0287 16.2402 21.6146 16.2402 21.1102C16.2402 20.6234 15.8262 20.2174 15.3314 20.2174L0.892769 20.2174C0.406052 20.2174 0 20.6154 0 21.1102ZM19.8596 10.0102L19.8596 16.1176C19.8596 17.3936 19.3107 18.1199 18.3428 18.1199C17.4601 18.1199 16.9096 17.5453 16.9096 16.6094C16.9096 15.165 17.1439 13.2977 17.1439 11.5426C17.1439 9.80723 16.29 8.48731 14.1635 7.79668L13.6568 8.94297C15.2572 9.41621 15.8867 10.3707 15.8867 11.5426C15.8867 13.1051 15.6523 14.9742 15.6523 16.6094C15.6523 18.3066 16.6891 19.3852 18.3428 19.3852C20.1119 19.3852 21.1168 18.1947 21.1168 16.1176L21.1168 10.0102C21.1168 9.18222 21.7096 8.93554 22.1558 8.57011C22.7844 8.08828 23.1217 7.42695 23.1217 6.65644L23.1217 5.40488C23.1217 5.19101 22.9842 5.04374 22.7943 5.04374L22.1799 5.04374L22.1799 3.31659C22.1799 3.04413 21.95 2.81601 21.6695 2.81601C21.3988 2.81601 21.1592 3.04413 21.1592 3.31659L21.1672 5.04374L19.899 5.04374L19.899 3.31659C19.899 3.04413 19.6754 2.81601 19.4029 2.81601C19.1144 2.81601 18.8943 3.04413 18.8943 3.31659L18.8943 5.04374L18.182 5.04374C17.9807 5.04374 17.8449 5.19101 17.8449 5.40488L17.8449 6.65644C17.8449 7.42695 18.1902 8.08828 18.8107 8.57011C19.265 8.93554 19.8596 9.18222 19.8596 10.0102Z" fill="white" fill-opacity="0.85"/>
  <path d="M26.6445 17.5891C27.4408 17.5891 28.0689 16.9875 28.0689 16.2408C28.0689 15.4879 27.4488 14.8943 26.6445 14.8943C25.8447 14.8943 25.2193 15.4879 25.2193 16.2408C25.2193 16.9875 25.8527 17.5891 26.6445 17.5891ZM26.6445 13.1424C27.2267 13.1424 27.623 12.7646 27.6478 12.1594L27.8547 5.6285C27.8795 4.90507 27.3945 4.42011 26.6392 4.42011C25.892 4.42011 25.4053 4.90507 25.4318 5.6285L25.6422 12.1664C25.667 12.7646 26.0588 13.1424 26.6445 13.1424Z" fill="white" fill-opacity="0.85"/>
 </g>
</svg>
