<?xml version="1.0" encoding="UTF-8"?>
<!--Generator: Apple Native CoreSVG 341-->
<!DOCTYPE svg
PUBLIC "-//W3C//DTD SVG 1.1//EN"
       "http://www.w3.org/Graphics/SVG/1.1/DTD/svg11.dtd">
<svg version="1.1" xmlns="http://www.w3.org/2000/svg" xmlns:xlink="http://www.w3.org/1999/xlink" viewBox="0 0 25.4807 22.1551">
 <g>
  <rect height="22.1551" opacity="0" width="25.4807" x="0" y="0"/>
  <path d="M12.5588 22.1338C19.6096 22.1338 25.1193 16.6355 25.1193 9.98691C25.1193 6.47089 23.5926 3.31875 21.4133 1.25664C20.4797 0.386913 19.492 0 18.1021 0L7.01367 0C5.62382 0 4.63789 0.386913 3.7043 1.25664C1.525 3.31875 0 6.47089 0 9.98691C0 16.6355 5.50801 22.1338 12.5588 22.1338ZM12.5588 20.1387C6.34276 20.1387 1.9951 15.791 1.9951 9.98691C1.9951 6.93613 3.15663 4.5162 5.08612 2.70487C5.61815 2.2119 6.18417 1.99686 7.01367 1.99686L18.1021 1.99686C18.9254 1.99686 19.4977 2.2119 20.0297 2.70487C21.9627 4.5162 23.1242 6.93613 23.1242 9.98691C23.1242 15.791 18.773 20.1387 12.5588 20.1387Z" fill="white" fill-opacity="0.85"/>
  <path d="M9.37851 7.18183C10.3896 7.18183 11.2187 6.34472 11.2187 5.33984C11.2187 4.31894 10.3896 3.49159 9.37851 3.49159C8.35585 3.49159 7.52851 4.31894 7.52851 5.33984C7.52851 6.34472 8.35585 7.18183 9.37851 7.18183ZM15.7373 7.18183C16.768 7.18183 17.5855 6.34472 17.5855 5.33984C17.5855 4.31894 16.768 3.49159 15.7373 3.49159C14.7244 3.49159 13.8953 4.31894 13.8953 5.33984C13.8953 6.34472 14.7244 7.18183 15.7373 7.18183ZM6.18398 12.5348C7.58749 12.5348 8.73183 11.3887 8.73183 9.98691C8.73183 8.57363 7.58749 7.4373 6.18398 7.4373C4.79023 7.4373 3.63437 8.57363 3.63437 9.98691C3.63437 11.3887 4.79023 12.5348 6.18398 12.5348ZM12.5588 12.5348C13.9623 12.5348 15.1066 11.3887 15.1066 9.98691C15.1066 8.57363 13.9623 7.4373 12.5588 7.4373C11.157 7.4373 10.0092 8.57363 10.0092 9.98691C10.0092 11.3887 11.157 12.5348 12.5588 12.5348ZM18.9336 12.5348C20.3353 12.5348 21.4814 11.3887 21.4814 9.98691C21.4814 8.57363 20.3353 7.4373 18.9336 7.4373C17.5301 7.4373 16.384 8.57363 16.384 9.98691C16.384 11.3887 17.5301 12.5348 18.9336 12.5348ZM9.38027 17.94C10.782 17.94 11.9281 16.8002 11.9281 15.3904C11.9281 13.9869 10.782 12.8426 9.38027 12.8426C7.96874 12.8426 6.83066 13.9869 6.83066 15.3904C6.83066 16.8002 7.96874 17.94 9.38027 17.94ZM15.7373 17.94C17.1488 17.94 18.2852 16.8002 18.2852 15.3904C18.2852 13.9869 17.1488 12.8426 15.7373 12.8426C14.3355 12.8426 13.1957 13.9869 13.1957 15.3904C13.1957 16.8002 14.3355 17.94 15.7373 17.94Z" fill="white" fill-opacity="0.85"/>
 </g>
</svg>
