<?xml version="1.0" encoding="UTF-8"?>
<!--Generator: Apple Native CoreSVG 341-->
<!DOCTYPE svg
PUBLIC "-//W3C//DTD SVG 1.1//EN"
       "http://www.w3.org/Graphics/SVG/1.1/DTD/svg11.dtd">
<svg version="1.1" xmlns="http://www.w3.org/2000/svg" xmlns:xlink="http://www.w3.org/1999/xlink" viewBox="0 0 17.3127 25.4234">
 <g>
  <rect height="25.4234" opacity="0" width="17.3127" x="0" y="0"/>
  <path d="M16.9514 20.3041C16.9514 23.1478 14.7281 25.4056 11.8533 25.4056L5.09003 25.4056C2.22324 25.4056 0 23.1478 0 20.3041C0 17.4603 2.22324 15.2025 5.09003 15.2025L11.8533 15.2025C14.7281 15.2025 16.9514 17.4603 16.9514 20.3041ZM2.28906 20.3041C2.28906 21.7771 3.47968 22.9598 4.94648 22.9598C6.41953 22.9598 7.61816 21.7771 7.61816 20.3041C7.61816 18.8293 6.41953 17.6404 4.94648 17.6404C3.47968 17.6404 2.28906 18.8293 2.28906 20.3041ZM9.3332 20.3041C9.3332 21.7771 10.5238 22.9598 11.9969 22.9598C13.4717 22.9598 14.6623 21.7771 14.6623 20.3041C14.6623 18.8293 13.4717 17.6404 11.9969 17.6404C10.5238 17.6404 9.3332 18.8293 9.3332 20.3041ZM15.8105 7.32734C15.8105 11.3269 12.4891 14.6564 8.48945 14.6564C4.48984 14.6564 1.16211 11.3269 1.16211 7.32734C1.16211 3.33125 4.47207 0 8.47167 0C12.4758 0 15.8105 3.32773 15.8105 7.32734ZM6.81953 10.834C6.81953 11.7617 7.55546 12.4959 8.47343 12.4959C9.40117 12.4959 10.1353 11.7617 10.1353 10.834C10.1353 9.91777 9.40117 9.18008 8.47343 9.18008C7.55546 9.18008 6.81953 9.91777 6.81953 10.834ZM3.87675 8.96386C3.87675 9.61191 4.39159 10.1365 5.03788 10.1365C5.68593 10.1365 6.21054 9.61191 6.21054 8.96386C6.21054 8.31582 5.68593 7.79472 5.03788 7.79472C4.39159 7.79472 3.87675 8.31582 3.87675 8.96386ZM10.7443 8.96386C10.7443 9.61191 11.2689 10.1365 11.917 10.1365C12.5633 10.1365 13.0781 9.61191 13.0781 8.96386C13.0781 8.31582 12.5633 7.79472 11.917 7.79472C11.2689 7.79472 10.7443 8.31582 10.7443 8.96386ZM4.29062 5.17128C4.29062 6.08749 5.02656 6.82519 5.95253 6.82519C6.8705 6.82519 7.60644 6.08749 7.60644 5.17128C7.60644 4.24355 6.8705 3.50937 5.95253 3.50937C5.02656 3.50937 4.29062 4.24355 4.29062 5.17128ZM9.34843 5.17128C9.34843 6.08749 10.0844 6.82519 11.0023 6.82519C11.9283 6.82519 12.666 6.08749 12.666 5.17128C12.666 4.24355 11.9283 3.50937 11.0023 3.50937C10.0844 3.50937 9.34843 4.24355 9.34843 5.17128Z" fill="white" fill-opacity="0.85"/>
 </g>
</svg>
