<?xml version="1.0" encoding="UTF-8"?>
<!--Generator: Apple Native CoreSVG 341-->
<!DOCTYPE svg
PUBLIC "-//W3C//DTD SVG 1.1//EN"
       "http://www.w3.org/Graphics/SVG/1.1/DTD/svg11.dtd">
<svg version="1.1" xmlns="http://www.w3.org/2000/svg" xmlns:xlink="http://www.w3.org/1999/xlink" viewBox="0 0 20.5381 20.1848">
 <g>
  <rect height="20.1848" opacity="0" width="20.5381" x="0" y="0"/>
  <path d="M20.1767 10.0875C20.1767 15.6478 15.6576 20.175 10.0875 20.175C4.52715 20.175 0 15.6478 0 10.0875C0 4.51914 4.52715 0 10.0875 0C15.6576 0 20.1767 4.51914 20.1767 10.0875ZM10.8896 13.6961L10.0795 14.5125L9.27109 13.6961C9.06445 13.4975 8.75312 13.4877 8.54648 13.6961C8.33984 13.909 8.34785 14.2203 8.54648 14.4269L9.3584 15.2371L8.54648 16.0393C8.34785 16.2459 8.33984 16.567 8.54648 16.7719C8.75136 16.9785 9.06445 16.9705 9.27109 16.7719L10.0795 15.9519L10.8896 16.7719C11.0963 16.9705 11.4094 16.9785 11.6143 16.7719C11.8226 16.567 11.8129 16.2459 11.6143 16.0393L10.8023 15.2371L11.6143 14.4269C11.8129 14.2203 11.8226 13.909 11.6143 13.6961C11.4076 13.4877 11.0963 13.4975 10.8896 13.6961ZM3.22656 10.0875C3.22656 11.7414 4.56796 13.0748 6.22187 13.0748C7.86777 13.0748 9.21093 11.7414 9.21093 10.0875C9.21093 8.43359 7.86777 7.10019 6.22187 7.10019C4.56796 7.10019 3.22656 8.43359 3.22656 10.0875ZM10.9658 10.0875C10.9658 11.7414 12.309 13.0748 13.9629 13.0748C15.6088 13.0748 16.9502 11.7414 16.9502 10.0875C16.9502 8.43359 15.6088 7.10019 13.9629 7.10019C12.309 7.10019 10.9658 8.43359 10.9658 10.0875ZM10.8896 3.39511L10.0795 4.21503L9.27109 3.39511C9.05644 3.18847 8.74785 3.18847 8.54648 3.39511C8.34961 3.59999 8.34961 3.92284 8.54648 4.12773L9.3584 4.92812L8.54648 5.74003C8.34961 5.94316 8.34961 6.26601 8.54648 6.47089C8.75136 6.66776 9.0662 6.66776 9.27109 6.47089L10.0795 5.65272L10.8896 6.47089C11.0945 6.66776 11.4076 6.66952 11.6143 6.47265C11.8226 6.26601 11.8209 5.95468 11.6143 5.74003L10.8023 4.92812L11.6143 4.12773C11.8209 3.91308 11.8226 3.59999 11.6143 3.39511C11.4094 3.18847 11.1043 3.18847 10.8896 3.39511Z" fill="white" fill-opacity="0.85"/>
 </g>
</svg>
