<?xml version="1.0" encoding="UTF-8"?>
<!--Generator: Apple Native CoreSVG 341-->
<!DOCTYPE svg
PUBLIC "-//W3C//DTD SVG 1.1//EN"
       "http://www.w3.org/Graphics/SVG/1.1/DTD/svg11.dtd">
<svg version="1.1" xmlns="http://www.w3.org/2000/svg" xmlns:xlink="http://www.w3.org/1999/xlink" viewBox="0 0 20.5381 20.1848">
 <g>
  <rect height="20.1848" opacity="0" width="20.5381" x="0" y="0"/>
  <path d="M10.0875 20.175C15.6576 20.175 20.1767 15.6559 20.1767 10.0875C20.1767 4.51914 15.6576 0 10.0875 0C4.51914 0 0 4.51914 0 10.0875C0 15.6559 4.51914 20.175 10.0875 20.175ZM10.0875 18.1879C5.60839 18.1879 1.9871 14.5666 1.9871 10.0875C1.9871 5.60839 5.60839 1.9871 10.0875 1.9871C14.5666 1.9871 18.1897 5.60839 18.1897 10.0875C18.1897 14.5666 14.5666 18.1879 10.0875 18.1879Z" fill="white" fill-opacity="0.85"/>
  <path d="M6.36718 12.9641C7.95195 12.9641 9.24374 11.6785 9.24374 10.0875C9.24374 8.49472 7.95195 7.21093 6.36718 7.21093C4.77441 7.21093 3.48261 8.49472 3.48261 10.0875C3.48261 11.6785 4.77441 12.9641 6.36718 12.9641ZM13.8176 12.9641C15.4006 12.9641 16.6924 11.6785 16.6924 10.0875C16.6924 8.49472 15.4006 7.21093 13.8176 7.21093C12.2248 7.21093 10.933 8.49472 10.933 10.0875C10.933 11.6785 12.2248 12.9641 13.8176 12.9641ZM8.60761 6.60116C8.79921 6.79452 9.10077 6.79452 9.30038 6.60116L10.0795 5.81581L10.8666 6.60116C11.0582 6.79452 11.358 6.79628 11.5514 6.60468C11.7562 6.40956 11.7545 6.11152 11.5514 5.90839L10.774 5.12128L11.5514 4.34218C11.7545 4.14081 11.7562 3.84101 11.5514 3.64941C11.3598 3.44628 11.0697 3.44628 10.8666 3.64941L10.0795 4.43652L9.30038 3.64941C9.09101 3.44628 8.79746 3.44628 8.60761 3.64941C8.41601 3.84101 8.41601 4.15058 8.60761 4.34218L9.38672 5.12128L8.60761 5.90839C8.41601 6.09999 8.41601 6.40956 8.60761 6.60116ZM8.60761 16.5176C8.79921 16.7189 9.09902 16.7109 9.30038 16.5176L10.0795 15.7305L10.8666 16.5176C11.0617 16.7109 11.3598 16.7189 11.5514 16.5176C11.7562 16.3242 11.7465 16.0182 11.5514 15.823L10.774 15.0457L11.5514 14.2586C11.7465 14.0635 11.7562 13.7654 11.5514 13.5641C11.358 13.3592 11.0617 13.3707 10.8666 13.5641L10.0795 14.3512L9.30038 13.5641C9.09902 13.3707 8.80273 13.3592 8.60761 13.5641C8.40449 13.7654 8.4125 14.0635 8.60761 14.2586L9.38672 15.0457L8.60761 15.823C8.4125 16.0182 8.40449 16.3242 8.60761 16.5176Z" fill="white" fill-opacity="0.85"/>
 </g>
</svg>
