<?xml version="1.0" encoding="UTF-8"?>
<!--Generator: Apple Native CoreSVG 341-->
<!DOCTYPE svg
PUBLIC "-//W3C//DTD SVG 1.1//EN"
       "http://www.w3.org/Graphics/SVG/1.1/DTD/svg11.dtd">
<svg version="1.1" xmlns="http://www.w3.org/2000/svg" xmlns:xlink="http://www.w3.org/1999/xlink" viewBox="0 0 21.0764 18.2879">
 <g>
  <rect height="18.2879" opacity="0" width="21.0764" x="0" y="0"/>
  <path d="M10.3535 18.2701C16.1525 18.2701 20.715 13.7156 20.715 8.24863C20.715 5.36113 19.4457 2.75058 17.6553 1.0498C16.8797 0.326562 16.0305 0 14.8865 0L5.8205 0C4.68457 0 3.83535 0.326562 3.06152 1.0498C1.26133 2.75058 0 5.36113 0 8.24863C0 13.7156 4.5625 18.2701 10.3535 18.2701ZM10.3535 16.2732C5.40077 16.2732 1.9951 12.8693 1.9951 8.24863C1.9951 5.83437 2.90096 3.94452 4.42909 2.5078C4.87167 2.08299 5.11757 1.9951 5.82402 1.9951L14.8848 1.9951C15.5894 1.9951 15.8389 2.08475 16.2779 2.5078C17.8061 3.94452 18.7199 5.83437 18.7199 8.24863C18.7199 12.8693 15.308 16.2732 10.3535 16.2732Z" fill="white" fill-opacity="0.85"/>
  <path d="M7.82909 6.03827C8.68671 6.03827 9.38632 5.33866 9.38632 4.48105C9.38632 3.61542 8.68671 2.91581 7.82909 2.91581C6.96347 2.91581 6.26386 3.61542 6.26386 4.48105C6.26386 5.33866 6.96347 6.03827 7.82909 6.03827ZM12.8859 6.03827C13.7516 6.03827 14.4529 5.33866 14.4529 4.48105C14.4529 3.61542 13.7516 2.91581 12.8859 2.91581C12.0203 2.91581 11.3207 3.61542 11.3207 4.48105C11.3207 5.33866 12.0203 6.03827 12.8859 6.03827ZM5.29667 10.4283C6.49882 10.4283 7.46835 9.45078 7.46835 8.24863C7.46835 7.04648 6.49882 6.06894 5.29667 6.06894C4.08476 6.06894 3.11522 7.04648 3.11522 8.24863C3.11522 9.45078 4.08476 10.4283 5.29667 10.4283ZM10.3535 10.4283C11.5637 10.4283 12.5332 9.45078 12.5332 8.24863C12.5332 7.04648 11.5637 6.06894 10.3535 6.06894C9.15136 6.06894 8.18183 7.04648 8.18183 8.24863C8.18183 9.45078 9.15136 10.4283 10.3535 10.4283ZM15.4201 10.4283C16.6223 10.4283 17.5998 9.45078 17.5998 8.24863C17.5998 7.04648 16.6223 6.06894 15.4201 6.06894C14.218 6.06894 13.2387 7.04648 13.2387 8.24863C13.2387 9.45078 14.218 10.4283 15.4201 10.4283ZM7.82109 14.8725C9.03124 14.8725 10.0008 13.8949 10.0008 12.6928C10.0008 11.4889 9.03124 10.5113 7.82109 10.5113C6.61894 10.5113 5.64941 11.4889 5.64941 12.6928C5.64941 13.8949 6.61894 14.8725 7.82109 14.8725ZM12.8859 14.8725C14.0978 14.8725 15.0674 13.8949 15.0674 12.6928C15.0674 11.4889 14.0978 10.5113 12.8859 10.5113C11.6838 10.5113 10.7062 11.4889 10.7062 12.6928C10.7062 13.8949 11.6838 14.8725 12.8859 14.8725Z" fill="white" fill-opacity="0.85"/>
 </g>
</svg>
