<?xml version="1.0" encoding="UTF-8"?>
<!--Generator: Apple Native CoreSVG 341-->
<!DOCTYPE svg
PUBLIC "-//W3C//DTD SVG 1.1//EN"
       "http://www.w3.org/Graphics/SVG/1.1/DTD/svg11.dtd">
<svg version="1.1" xmlns="http://www.w3.org/2000/svg" xmlns:xlink="http://www.w3.org/1999/xlink" viewBox="0 0 17.3127 25.3879">
 <g>
  <rect height="25.3879" opacity="0" width="17.3127" x="0" y="0"/>
  <path d="M16.9514 20.2863C16.9514 23.1301 14.7281 25.3879 11.8533 25.3879L5.09003 25.3879C2.22324 25.3879 0 23.1301 0 20.2863C0 17.4426 2.22324 15.1848 5.09003 15.1848L11.8533 15.1848C14.7281 15.1848 16.9514 17.4426 16.9514 20.2863ZM2.28906 20.2863C2.28906 21.7594 3.47968 22.942 4.94648 22.942C6.41953 22.942 7.61816 21.7594 7.61816 20.2863C7.61816 18.8115 6.41953 17.6226 4.94648 17.6226C3.47968 17.6226 2.28906 18.8115 2.28906 20.2863ZM9.3332 20.2863C9.3332 21.7594 10.5238 22.942 11.9969 22.942C13.4717 22.942 14.6623 21.7594 14.6623 20.2863C14.6623 18.8115 13.4717 17.6226 11.9969 17.6226C10.5238 17.6226 9.3332 18.8115 9.3332 20.2863ZM13.8285 1.95976C15.1519 3.20781 16.076 5.13925 16.076 7.23671C16.076 11.2559 12.7252 14.5986 8.47968 14.5986C4.22441 14.5986 0.883399 11.2559 0.883399 7.23671C0.883399 5.13925 1.79941 3.20781 3.13086 1.95976C3.69883 1.41934 4.35097 1.1709 5.19492 1.1709L11.7564 1.1709C12.6084 1.1709 13.2605 1.41934 13.8285 1.95976ZM4.87617 10.6195C4.87617 11.5455 5.62187 12.2832 6.53808 12.2832C7.45781 12.2832 8.19199 11.5455 8.19199 10.6195C8.19199 9.70155 7.45781 8.96562 6.53808 8.96562C5.62187 8.96562 4.87617 9.70155 4.87617 10.6195ZM8.75937 10.6195C8.75937 11.5455 9.49355 12.2832 10.4213 12.2832C11.3375 12.2832 12.0752 11.5455 12.0752 10.6195C12.0752 9.70155 11.3375 8.96562 10.4213 8.96562C9.49355 8.96562 8.75937 9.70155 8.75937 10.6195ZM2.95566 7.21269C2.95566 8.13691 3.6996 8.88261 4.61757 8.88261C5.53554 8.88261 6.27949 8.13691 6.27949 7.21269C6.27949 6.30097 5.53554 5.55878 4.61757 5.55878C3.6996 5.55878 2.95566 6.30097 2.95566 7.21269ZM6.81777 7.21269C6.81777 8.13691 7.55195 8.88261 8.47968 8.88261C9.39941 8.88261 10.1336 8.13691 10.1336 7.21269C10.1336 6.30097 9.39941 5.55878 8.47968 5.55878C7.55195 5.55878 6.81777 6.30097 6.81777 7.21269ZM10.6799 7.21269C10.6799 8.13691 11.4158 8.88261 12.3338 8.88261C13.2598 8.88261 13.9957 8.13691 13.9957 7.21269C13.9957 6.30097 13.2598 5.55878 12.3338 5.55878C11.4158 5.55878 10.6799 6.30097 10.6799 7.21269ZM5.38828 4.31699C5.38828 4.96503 5.91113 5.48164 6.55917 5.48164C7.20546 5.48164 7.72831 4.96503 7.72831 4.31699C7.72831 3.6707 7.20546 3.14785 6.55917 3.14785C5.91113 3.14785 5.38828 3.6707 5.38828 4.31699ZM9.23105 4.31699C9.23105 4.96503 9.7539 5.48164 10.4002 5.48164C11.0402 5.48164 11.5631 4.96503 11.5631 4.31699C11.5631 3.6707 11.0402 3.14785 10.4002 3.14785C9.7539 3.14785 9.23105 3.6707 9.23105 4.31699Z" fill="white" fill-opacity="0.85"/>
 </g>
</svg>
