<?xml version="1.0" encoding="UTF-8"?>
<!--Generator: Apple Native CoreSVG 341-->
<!DOCTYPE svg
PUBLIC "-//W3C//DTD SVG 1.1//EN"
       "http://www.w3.org/Graphics/SVG/1.1/DTD/svg11.dtd">
<svg version="1.1" xmlns="http://www.w3.org/2000/svg" xmlns:xlink="http://www.w3.org/1999/xlink" viewBox="0 0 14.0271 19.973">
 <g>
  <rect height="19.973" opacity="0" width="14.0271" x="0" y="0"/>
  <path d="M11.8812 5.46953L11.8812 7.79314C13.0546 7.9503 13.6658 8.7296 13.6658 10.1443L13.6658 17.0609C13.6658 18.6619 12.8883 19.4572 11.4053 19.4572L2.26054 19.4572C0.775781 19.4572 0 18.6619 0 17.0609L0 10.1443C0 8.72873 0.61055 7.94934 1.78632 7.79289L1.78632 5.46953C1.78632 1.86621 4.16933 0 6.8289 0C9.49647 0 11.8812 1.86621 11.8812 5.46953ZM5.91894 16.2029C5.91894 16.6969 6.33144 17.0846 6.82265 17.0846C7.33612 17.0846 7.74862 16.6969 7.74862 16.2029C7.74862 15.7 7.33085 15.3203 6.82265 15.3203C6.32519 15.3203 5.91894 15.7045 5.91894 16.2029ZM6.03886 10.7918L6.13476 13.9336C6.14629 14.3584 6.40859 14.6199 6.82714 14.6199C7.24394 14.6199 7.50448 14.3584 7.51601 13.9336L7.61718 10.7998C7.63046 10.3609 7.28026 10.0346 6.82714 10.0346C6.35722 10.0346 6.02558 10.3564 6.03886 10.7918ZM3.61502 5.28808L3.61502 7.76133L10.0605 7.76133L10.0605 5.28808C10.0605 3.00292 8.57246 1.74882 6.8289 1.74882C5.08183 1.74882 3.61502 3.00292 3.61502 5.28808Z" fill="white" fill-opacity="0.85"/>
 </g>
</svg>
