<?xml version="1.0" encoding="UTF-8"?>
<!--Generator: Apple Native CoreSVG 341-->
<!DOCTYPE svg
PUBLIC "-//W3C//DTD SVG 1.1//EN"
       "http://www.w3.org/Graphics/SVG/1.1/DTD/svg11.dtd">
<svg version="1.1" xmlns="http://www.w3.org/2000/svg" xmlns:xlink="http://www.w3.org/1999/xlink" viewBox="0 0 20.5381 20.1848">
 <g>
  <rect height="20.1848" opacity="0" width="20.5381" x="0" y="0"/>
  <path d="M10.0875 20.175C15.6576 20.175 20.1767 15.6559 20.1767 10.0875C20.1767 4.51914 15.6576 0 10.0875 0C4.51914 0 0 4.51914 0 10.0875C0 15.6559 4.51914 20.175 10.0875 20.175ZM10.0875 18.1879C5.60839 18.1879 1.9871 14.5666 1.9871 10.0875C1.9871 5.60839 5.60839 1.9871 10.0875 1.9871C14.5666 1.9871 18.1897 5.60839 18.1897 10.0875C18.1897 14.5666 14.5666 18.1879 10.0875 18.1879Z" fill="white" fill-opacity="0.85"/>
  <path d="M10.0812 11.7135C10.6018 11.7135 10.9121 11.4182 10.9271 10.8541L11.0789 6.10389C11.0975 5.53729 10.6646 5.12753 10.0715 5.12753C9.47031 5.12753 9.05352 5.52929 9.07207 6.09589L9.20781 10.8576C9.22461 11.4102 9.53496 11.7135 10.0812 11.7135ZM10.0812 14.9488C10.6994 14.9488 11.2158 14.4943 11.2158 13.8787C11.2158 13.2648 10.7074 12.8068 10.0812 12.8068C9.44707 12.8068 8.93691 13.2711 8.93691 13.8787C8.93691 14.4863 9.45683 14.9488 10.0812 14.9488Z" fill="white" fill-opacity="0.85"/>
 </g>
</svg>
