<?xml version="1.0" encoding="UTF-8"?>
<!--Generator: Apple Native CoreSVG 341-->
<!DOCTYPE svg
PUBLIC "-//W3C//DTD SVG 1.1//EN"
       "http://www.w3.org/Graphics/SVG/1.1/DTD/svg11.dtd">
<svg version="1.1" xmlns="http://www.w3.org/2000/svg" xmlns:xlink="http://www.w3.org/1999/xlink" viewBox="0 0 22.2363 21.8605">
 <g>
  <rect height="21.8605" opacity="0" width="22.2363" x="0" y="0"/>
  <path d="M21.875 5.83047L21.875 13.4041C21.875 16.3023 20.2281 17.983 17.2898 17.983L10.8412 17.983L7.26835 21.2162C6.78124 21.6652 6.46991 21.8605 6.0662 21.8605C5.47792 21.8605 5.1373 21.4426 5.1373 20.8002L5.1373 17.983L4.52363 17.983C1.6873 17.983 0 16.3103 0 13.4041L0 5.83047C0 2.92422 1.64687 1.24356 4.58515 1.24356L17.2898 1.24356C20.2281 1.24356 21.875 2.93223 21.875 5.83047ZM9.7498 13.5477C9.7498 14.1916 10.2945 14.6629 10.949 14.6629C11.5955 14.6629 12.1349 14.1996 12.1349 13.5477C12.1349 12.9072 11.6035 12.4342 10.949 12.4342C10.2865 12.4342 9.7498 12.9135 9.7498 13.5477ZM9.89472 5.48026L10.0322 10.4008C10.049 10.9799 10.3762 11.2965 10.949 11.2965C11.4961 11.2965 11.8197 10.9879 11.8383 10.3955L11.9918 5.48827C12.0103 4.89335 11.5607 4.45878 10.9393 4.45878C10.308 4.45878 9.87617 4.88534 9.89472 5.48026Z" fill="white" fill-opacity="0.85"/>
 </g>
</svg>
