<?xml version="1.0" encoding="UTF-8"?>
<!--Generator: Apple Native CoreSVG 341-->
<!DOCTYPE svg
PUBLIC "-//W3C//DTD SVG 1.1//EN"
       "http://www.w3.org/Graphics/SVG/1.1/DTD/svg11.dtd">
<svg version="1.1" xmlns="http://www.w3.org/2000/svg" xmlns:xlink="http://www.w3.org/1999/xlink" viewBox="0 0 20.8006 19.6566">
 <g>
  <rect height="19.6566" opacity="0" width="20.8006" x="0" y="0"/>
  <path d="M15.8238 1.17383L19.5461 5.36933C20.2265 6.14628 20.4392 6.61503 20.4392 7.64784L20.4392 12.007C20.4392 13.0318 20.2582 13.5332 19.5883 14.2855L15.8238 18.481C15.1459 19.2236 14.4703 19.6469 13.2072 19.6469L7.23202 19.6469C5.96894 19.6469 5.28535 19.2236 4.61719 18.481L0.852733 14.2855C0.173047 13.5332 0 13.0318 0 12.007L0 7.64784C0 6.61503 0.173047 6.12167 0.852733 5.36933L4.61719 1.17383C5.28535 0.431249 5.96894 0 7.23202 0L13.2072 0C14.4703 0 15.1512 0.425976 15.8238 1.17383ZM9.02793 13.7609C9.02793 14.3986 9.57265 14.8762 10.2271 14.8762C10.8816 14.8762 11.4211 14.4066 11.4211 13.7609C11.4211 13.1205 10.8896 12.6412 10.2271 12.6412C9.56464 12.6412 9.02793 13.1268 9.02793 13.7609ZM9.17285 5.68729L9.31035 10.6141C9.3289 11.1932 9.65429 11.5115 10.2271 11.5115C10.7822 11.5115 11.1058 11.2029 11.1244 10.6105L11.2699 5.6953C11.2885 5.09862 10.8389 4.67382 10.2174 4.67382C9.58613 4.67382 9.15429 5.09061 9.17285 5.68729Z" fill="white" fill-opacity="0.85"/>
 </g>
</svg>
