<?xml version="1.0" encoding="UTF-8"?>
<!--Generator: Apple Native CoreSVG 341-->
<!DOCTYPE svg
PUBLIC "-//W3C//DTD SVG 1.1//EN"
       "http://www.w3.org/Graphics/SVG/1.1/DTD/svg11.dtd">
<svg version="1.1" xmlns="http://www.w3.org/2000/svg" xmlns:xlink="http://www.w3.org/1999/xlink" viewBox="0 0 18.5894 18.2316">
 <g>
  <rect height="18.2316" opacity="0" width="18.5894" x="0" y="0"/>
  <path d="M3.20351 18.2281L15.0246 18.2281C17.1404 18.2281 18.2281 17.1502 18.2281 15.0646L18.2281 3.17148C18.2281 1.08769 17.1404 0 15.0246 0L3.20351 0C1.0957 0 0 1.08769 0 3.17148L0 15.0646C0 17.1502 1.0957 18.2281 3.20351 18.2281ZM3.31444 16.3148C2.40643 16.3148 1.91327 15.8465 1.91327 14.8977L1.91327 3.34023C1.91327 2.39139 2.40643 1.91503 3.31444 1.91503L14.9137 1.91503C15.8137 1.91503 16.3148 2.39139 16.3148 3.34023L16.3148 14.8977C16.3148 15.8465 15.8137 16.3148 14.9137 16.3148Z" fill="white" fill-opacity="0.85"/>
  <path d="M9.1207 10.7369C9.64921 10.7369 9.9498 10.4416 9.96659 9.87754L10.1183 5.12733C10.1369 4.56073 9.70409 4.15097 9.11093 4.15097C8.50976 4.15097 8.09297 4.55272 8.11152 5.11932L8.24726 9.88106C8.26406 10.4336 8.57441 10.7369 9.1207 10.7369ZM9.1207 13.9723C9.73886 13.9723 10.2553 13.5178 10.2553 12.9021C10.2553 12.2883 9.74687 11.8303 9.1207 11.8303C8.48652 11.8303 7.97637 12.2945 7.97637 12.9021C7.97637 13.5098 8.49453 13.9723 9.1207 13.9723Z" fill="white" fill-opacity="0.85"/>
 </g>
</svg>
