<?xml version="1.0" encoding="UTF-8"?>
<!--Generator: Apple Native CoreSVG 341-->
<!DOCTYPE svg
PUBLIC "-//W3C//DTD SVG 1.1//EN"
       "http://www.w3.org/Graphics/SVG/1.1/DTD/svg11.dtd">
<svg version="1.1" xmlns="http://www.w3.org/2000/svg" xmlns:xlink="http://www.w3.org/1999/xlink" viewBox="0 0 20.8006 19.6566">
 <g>
  <rect height="19.6566" opacity="0" width="20.8006" x="0" y="0"/>
  <path d="M7.23202 19.6469L13.2072 19.6469C14.4703 19.6469 15.1459 19.2236 15.8238 18.481L19.5883 14.2855C20.2582 13.5332 20.4392 13.0318 20.4392 12.007L20.4392 7.64784C20.4392 6.61503 20.2265 6.14628 19.5461 5.36933L15.8238 1.17383C15.1512 0.425976 14.4703 0 13.2072 0L7.23202 0C5.96894 0 5.28535 0.431249 4.61719 1.17383L0.852733 5.36933C0.173047 6.12167 0 6.61503 0 7.64784L0 12.007C0 13.0318 0.173047 13.5332 0.852733 14.2855L4.61719 18.481C5.28535 19.2236 5.96894 19.6469 7.23202 19.6469ZM7.70664 17.7609C6.77577 17.7609 6.47324 17.5443 5.96425 16.983L2.57772 13.2486C2.19862 12.8172 2.10721 12.5519 2.10721 11.8355L2.10721 7.81757C2.10721 7.10116 2.19862 6.83593 2.57772 6.40624L5.96425 2.67186C6.47324 2.10253 6.77577 1.89393 7.70664 1.89393L12.7344 1.89393C13.6635 1.89393 13.958 2.10253 14.475 2.67186L17.8535 6.40624C18.2424 6.83593 18.332 7.10116 18.332 7.81757L18.332 11.8355C18.332 12.5519 18.2424 12.8172 17.8535 13.2486L14.475 16.983C13.958 17.5443 13.6635 17.7609 12.7344 17.7609Z" fill="white" fill-opacity="0.85"/>
  <path d="M10.2191 11.4494C10.7476 11.4494 11.0562 11.1541 11.073 10.59L11.2168 5.83983C11.2353 5.27323 10.8025 4.86347 10.2094 4.86347C9.60644 4.86347 9.1914 5.26522 9.20996 5.83182L9.35195 10.5936C9.36875 11.1461 9.68085 11.4494 10.2191 11.4494ZM10.2191 14.6848C10.8453 14.6848 11.3599 14.2303 11.3599 13.6146C11.3599 13.0008 10.8533 12.5428 10.2191 12.5428C9.59296 12.5428 9.08105 13.007 9.08105 13.6146C9.08105 14.2223 9.60097 14.6848 10.2191 14.6848Z" fill="white" fill-opacity="0.85"/>
 </g>
</svg>
