<?xml version="1.0" encoding="UTF-8"?>
<!--Generator: Apple Native CoreSVG 341-->
<!DOCTYPE svg
PUBLIC "-//W3C//DTD SVG 1.1//EN"
       "http://www.w3.org/Graphics/SVG/1.1/DTD/svg11.dtd">
<svg version="1.1" xmlns="http://www.w3.org/2000/svg" xmlns:xlink="http://www.w3.org/1999/xlink" viewBox="0 0 11.0265 18.7504">
 <g>
  <rect height="18.7504" opacity="0" width="11.0265" x="0" y="0"/>
  <path d="M9.06932 13.2359C9.74333 13.2359 10.1582 12.8098 10.175 12.1207L10.2927 1.47498C10.2945 1.43104 10.2963 1.38358 10.2963 1.34843C10.2963 0.617769 9.7697 0.145507 9.06307 0.145507C8.36444 0.145507 7.8246 0.617769 7.8246 1.34843C7.8246 1.38358 7.82636 1.43104 7.82987 1.47498L7.9619 12.1207C7.9787 12.8098 8.39979 13.2359 9.06932 13.2359ZM9.06131 18.7504C9.9533 18.7504 10.6652 18.0463 10.6652 17.1773C10.6652 16.3039 9.9533 15.6078 9.06131 15.6078C8.18006 15.6078 7.4619 16.3039 7.4619 17.1773C7.4619 18.0463 8.18006 18.7504 9.06131 18.7504Z" fill="white" fill-opacity="0.85"/>
  <path d="M1.60741 13.2359C2.28143 13.2359 2.69803 12.8098 2.71307 12.1207L2.83084 1.47498C2.8326 1.43104 2.83436 1.38358 2.83436 1.34843C2.83436 0.617769 2.3078 0.145507 1.60116 0.145507C0.89453 0.145507 0.362697 0.617769 0.362697 1.34843C0.362697 1.38358 0.366213 1.43104 0.36797 1.47498L0.501758 12.1207C0.516797 12.8098 0.931638 13.2359 1.60741 13.2359ZM1.59941 18.7504C2.48339 18.7504 3.1953 18.0463 3.1953 17.1773C3.1953 16.3039 2.48339 15.6078 1.59941 15.6078C0.71816 15.6078 0 16.3039 0 17.1773C0 18.0463 0.71816 18.7504 1.59941 18.7504Z" fill="white" fill-opacity="0.85"/>
 </g>
</svg>
