<?xml version="1.0" encoding="UTF-8"?>
<!--Generator: Apple Native CoreSVG 341-->
<!DOCTYPE svg
PUBLIC "-//W3C//DTD SVG 1.1//EN"
       "http://www.w3.org/Graphics/SVG/1.1/DTD/svg11.dtd">
<svg version="1.1" xmlns="http://www.w3.org/2000/svg" xmlns:xlink="http://www.w3.org/1999/xlink" viewBox="0 0 22.2363 21.7609">
 <g>
  <rect height="21.7609" opacity="0" width="22.2363" x="0" y="0"/>
  <path d="M6.2871 21.7609C6.83065 21.7609 7.23475 21.4947 7.91131 20.9006L11.2541 17.9412L17.2898 17.9412C20.2281 17.9412 21.875 16.2525 21.875 13.3543L21.875 5.78066C21.875 2.88242 20.2281 1.19375 17.2898 1.19375L4.58515 1.19375C1.64687 1.19375 0 2.87441 0 5.78066L0 13.3543C0 16.2605 1.6873 17.9412 4.52363 17.9412L5.04863 17.9412L5.04863 20.3484C5.04863 21.2111 5.50156 21.7609 6.2871 21.7609ZM6.76131 19.61L6.76131 16.8219C6.76131 16.2488 6.51581 16.0279 5.96737 16.0279L4.63964 16.0279C2.79354 16.0279 1.91327 15.0889 1.91327 13.2936L1.91327 5.83339C1.91327 4.03808 2.79354 3.10702 4.63964 3.10702L17.2353 3.10702C19.0734 3.10702 19.9617 4.03808 19.9617 5.83339L19.9617 13.2936C19.9617 15.0889 19.0734 16.0279 17.2353 16.0279L11.1515 16.0279C10.5572 16.0279 10.275 16.1236 9.86171 16.5414Z" fill="white" fill-opacity="0.85"/>
  <path d="M10.941 11.1943C11.4695 11.1943 11.7781 10.899 11.7949 10.335L11.9387 5.58475C11.9572 5.02616 11.5244 4.60839 10.9312 4.60839C10.3283 4.60839 9.91328 5.01815 9.93183 5.57675L10.0658 10.3385C10.0826 10.891 10.3947 11.1943 10.941 11.1943ZM10.941 14.4297C11.5672 14.4297 12.0818 13.9814 12.0818 13.3578C12.0818 12.7439 11.5752 12.2939 10.941 12.2939C10.3068 12.2939 9.79492 12.7502 9.79492 13.3578C9.79492 13.9734 10.3148 14.4297 10.941 14.4297Z" fill="white" fill-opacity="0.85"/>
 </g>
</svg>
