<?xml version="1.0" encoding="UTF-8"?>
<!--Generator: Apple Native CoreSVG 341-->
<!DOCTYPE svg
PUBLIC "-//W3C//DTD SVG 1.1//EN"
       "http://www.w3.org/Graphics/SVG/1.1/DTD/svg11.dtd">
<svg version="1.1" xmlns="http://www.w3.org/2000/svg" xmlns:xlink="http://www.w3.org/1999/xlink" viewBox="0 0 16.584 19.8398">
 <g>
  <rect height="19.8398" opacity="0" width="16.584" x="0" y="0"/>
  <path d="M9.11698 0.462304C10.1637 0.816016 13.7562 2.09317 14.8285 2.53379C15.7859 2.93535 16.2226 3.34375 16.2226 4.47968L16.2226 11.7463C16.2226 15.2504 14.381 16.7635 8.78574 19.6455C8.53808 19.7725 8.28339 19.8398 8.11132 19.8398C7.94101 19.8398 7.69257 19.7805 7.43691 19.6455C1.92519 16.6238 0 15.2504 0 11.7463L0 4.47968C0 3.34375 0.446484 2.92559 1.39589 2.53379C2.46816 2.10117 6.05898 0.8 7.11367 0.462304C7.42734 0.368359 7.78691 0.299219 8.11132 0.299219C8.43749 0.299219 8.79706 0.360351 9.11698 0.462304ZM6.92363 13.5842C6.92363 14.2201 7.46836 14.6977 8.12285 14.6977C8.77734 14.6977 9.31855 14.2281 9.31855 13.5842C9.31855 12.9438 8.78534 12.4627 8.12285 12.4627C7.46035 12.4627 6.92363 12.9482 6.92363 13.5842ZM7.06855 5.50878L7.20605 10.4356C7.22461 11.0164 7.55 11.333 8.12285 11.333C8.67792 11.333 8.99355 11.0244 9.0121 10.432L9.16561 5.51679C9.18417 4.92187 8.73456 4.49531 8.11308 4.49531C7.48183 4.49531 7.05 4.91211 7.06855 5.50878Z" fill="white" fill-opacity="0.85"/>
 </g>
</svg>
