<?xml version="1.0" encoding="UTF-8"?>
<!--Generator: Apple Native CoreSVG 341-->
<!DOCTYPE svg
PUBLIC "-//W3C//DTD SVG 1.1//EN"
       "http://www.w3.org/Graphics/SVG/1.1/DTD/svg11.dtd">
<svg version="1.1" xmlns="http://www.w3.org/2000/svg" xmlns:xlink="http://www.w3.org/1999/xlink" viewBox="0 0 26.2994 25.8844">
 <g>
  <rect height="25.8844" opacity="0" width="26.2994" x="0" y="0"/>
  <path d="M20.697 6.56855L22.1322 5.12714C22.5054 4.75214 22.5054 4.13671 22.1322 3.76523C21.7625 3.39199 21.1533 3.39199 20.7783 3.76523L19.3289 5.2084C18.9556 5.57187 18.9556 6.19882 19.3289 6.56855C19.7004 6.94179 20.3273 6.94179 20.697 6.56855ZM22.9379 13.8984L24.9672 13.8984C25.4982 13.8984 25.9381 13.4648 25.9381 12.9373C25.9381 12.408 25.4982 11.9682 24.9672 11.9682L22.9379 11.9682C22.4103 11.9682 21.9705 12.408 21.9705 12.9373C21.9705 13.4648 22.4103 13.8984 22.9379 13.8984ZM19.3289 20.6644L20.7783 22.1013C21.1533 22.4728 21.7625 22.4728 22.1322 22.1013C22.5054 21.7299 22.5054 21.1127 22.1322 20.7474L20.697 19.2963C20.3273 18.9248 19.7004 18.9248 19.3289 19.2963C18.9556 19.6678 18.9556 20.2947 19.3289 20.6644ZM13.9488 22.8842C13.9488 22.3549 13.5072 21.923 12.9797 21.923C12.4504 21.923 12.0185 22.3549 12.0185 22.8842L12.0185 24.9215C12.0185 25.4525 12.4504 25.8844 12.9797 25.8844C13.5072 25.8844 13.9488 25.4525 13.9488 24.9215ZM6.60116 20.6644C6.9744 20.2947 6.9744 19.6678 6.60116 19.2963C6.23144 18.9248 5.6125 18.9248 5.24101 19.2963L3.79785 20.7474C3.42461 21.1127 3.42461 21.7299 3.79785 22.1013C4.16757 22.4728 4.78476 22.4728 5.15975 22.1013ZM3.00019 13.8984C3.52773 13.8984 3.96933 13.4648 3.96933 12.9373C3.96933 12.408 3.52773 11.9682 3.00019 11.9682L0.962886 11.9682C0.431834 11.9682 0 12.408 0 12.9373C0 13.4648 0.431834 13.8984 0.962886 13.8984ZM5.24101 6.56855C5.6125 6.94179 6.23144 6.94179 6.60116 6.56855C6.9744 6.19882 6.9744 5.57187 6.60116 5.2084L5.15975 3.76523C4.78476 3.39199 4.16757 3.39199 3.79785 3.76523C3.42461 4.13671 3.42461 4.75214 3.79785 5.12714Z" fill="white" fill-opacity="0.85"/>
  <path d="M9.27616 7.29276L11.033 7.29276L11.033 4.21854C11.033 3.85507 11.232 3.65604 11.6053 3.65604L14.3541 3.65604C14.7256 3.65604 14.9264 3.85507 14.9264 4.21854L14.9264 7.29276L16.6832 7.29276L16.6832 3.99316C16.6832 2.69589 15.8865 1.89922 14.5875 1.89922L11.3719 1.89922C10.0728 1.89922 9.27616 2.69589 9.27616 3.99316ZM12.9584 20.333C16.9953 20.333 20.3558 16.9724 20.3558 12.9373C20.3558 8.89862 17.0033 5.53984 12.9699 5.53984C8.92323 5.53984 5.56269 8.90214 5.56269 12.9373C5.56269 16.9724 8.92323 20.333 12.9584 20.333ZM12.9797 18.5041C9.94627 18.5041 7.41287 15.9689 7.41287 12.9373C7.41287 9.9119 9.94452 7.37049 12.9699 7.37049C16.0033 7.37049 18.5465 9.90213 18.5465 12.9373C18.5465 15.9689 16.0113 18.5041 12.9797 18.5041Z" fill="white" fill-opacity="0.85"/>
  <path d="M12.9894 13.8703C13.4986 13.8703 13.7851 13.5793 13.8117 13.0328L13.9502 9.71072C13.9732 9.13319 13.55 8.73573 12.9797 8.73573C12.3996 8.73573 11.9924 9.12518 12.0172 9.70272L12.1459 13.0346C12.1725 13.5713 12.4607 13.8703 12.9894 13.8703ZM12.9814 16.9891C13.6006 16.9891 14.0906 16.5416 14.0906 15.9471C14.0906 15.3508 13.6051 14.9033 12.9814 14.9033C12.349 14.9033 11.8687 15.3605 11.8687 15.9471C11.8687 16.5336 12.357 16.9891 12.9814 16.9891Z" fill="white" fill-opacity="0.85"/>
 </g>
</svg>
