<?xml version="1.0" encoding="UTF-8"?>
<!--Generator: Apple Native CoreSVG 341-->
<!DOCTYPE svg
PUBLIC "-//W3C//DTD SVG 1.1//EN"
       "http://www.w3.org/Graphics/SVG/1.1/DTD/svg11.dtd">
<svg version="1.1" xmlns="http://www.w3.org/2000/svg" xmlns:xlink="http://www.w3.org/1999/xlink" viewBox="0 0 23.1871 16.7793">
 <g>
  <rect height="16.7793" opacity="0" width="23.1871" x="0" y="0"/>
  <path d="M4.01132 16.7793L18.8144 16.7793C21.1928 16.7793 22.8258 15.156 22.8258 12.7973C22.8258 10.4402 21.1928 8.81074 18.8144 8.81074L4.01132 8.81074C1.63301 8.81074 0 10.4402 0 12.7973C0 15.156 1.63301 16.7793 4.01132 16.7793ZM4.01132 7.3832L18.8144 7.3832C19.7904 7.3832 20.6812 7.60058 21.4461 7.9998L19.0488 2.35625C18.4064 0.841209 17.1025 0.0115234 15.3516 0.0115234L7.47773 0.0115234C5.72675 0.0115234 4.42285 0.841209 3.78047 2.35625L1.37871 7.99453C2.14805 7.60058 3.03711 7.3832 4.01132 7.3832ZM17.4353 12.8168C17.4353 12.1342 18.0266 11.5412 18.7207 11.5412C19.4016 11.5412 19.9865 12.1342 19.9865 12.8168C19.9865 13.5189 19.4051 14.0728 18.7207 14.0826C18.0248 14.0844 17.4353 13.5269 17.4353 12.8168Z" fill="white" fill-opacity="0.85"/>
 </g>
</svg>
