<?xml version="1.0" encoding="UTF-8"?>
<!--Generator: Apple Native CoreSVG 341-->
<!DOCTYPE svg
PUBLIC "-//W3C//DTD SVG 1.1//EN"
       "http://www.w3.org/Graphics/SVG/1.1/DTD/svg11.dtd">
<svg version="1.1" xmlns="http://www.w3.org/2000/svg" xmlns:xlink="http://www.w3.org/1999/xlink" viewBox="0 0 20.5381 20.1848">
 <g>
  <rect height="20.1848" opacity="0" width="20.5381" x="0" y="0"/>
  <path d="M20.1767 10.0973C20.1767 15.6656 15.6576 20.1848 10.0875 20.1848C4.52715 20.1848 0 15.6656 0 10.0973C0 4.53691 4.52715 0.00976562 10.0875 0.00976562C15.6576 0.00976562 20.1767 4.53691 20.1767 10.0973ZM5.2498 5.26308C5.05644 5.45819 5.06269 5.78632 5.2498 5.98143L14.2148 14.935C14.4002 15.1283 14.7363 15.1283 14.9332 14.935C15.1266 14.7301 15.1283 14.4215 14.9332 14.2166L5.97968 5.26308C5.7828 5.05819 5.45468 5.05995 5.2498 5.26308ZM3.53359 10.1053C3.53359 11.0766 6.23378 14.2264 10.0875 14.2264C10.83 14.2264 11.5273 14.112 12.1688 13.919L10.8975 12.6489C10.6421 12.7315 10.3699 12.776 10.0875 12.776C8.60468 12.776 7.40878 11.5543 7.40878 10.107C7.40724 9.82044 7.45075 9.54515 7.53356 9.28789L5.68344 7.43943C4.32825 8.39724 3.53359 9.57258 3.53359 10.1053ZM8.03015 6.2866L9.29822 7.55467C9.54767 7.47867 9.8128 7.43808 10.0875 7.43808C11.5676 7.43808 12.768 8.6207 12.768 10.107C12.768 10.3819 12.7247 10.6487 12.6439 10.9003L14.5062 12.7627C15.8518 11.8048 16.6352 10.6332 16.6352 10.1053C16.6352 9.12773 13.9758 5.98593 10.0875 5.98593C9.35547 5.98593 8.66626 6.0979 8.03015 6.2866Z" fill="white" fill-opacity="0.85"/>
 </g>
</svg>
