<?xml version="1.0" encoding="UTF-8"?>
<!--Generator: Apple Native CoreSVG 341-->
<!DOCTYPE svg
PUBLIC "-//W3C//DTD SVG 1.1//EN"
       "http://www.w3.org/Graphics/SVG/1.1/DTD/svg11.dtd">
<svg version="1.1" xmlns="http://www.w3.org/2000/svg" xmlns:xlink="http://www.w3.org/1999/xlink" viewBox="0 0 18.5894 18.2316">
 <g>
  <rect height="18.2316" opacity="0" width="18.5894" x="0" y="0"/>
  <path d="M3.20351 18.2281L15.0246 18.2281C17.1404 18.2281 18.2281 17.1502 18.2281 15.0646L18.2281 3.17148C18.2281 1.08769 17.1404 0 15.0246 0L3.20351 0C1.0957 0 0 1.08769 0 3.17148L0 15.0646C0 17.1502 1.0957 18.2281 3.20351 18.2281ZM3.31444 16.3148C2.40643 16.3148 1.91327 15.8465 1.91327 14.8977L1.91327 3.34023C1.91327 2.39139 2.40643 1.91503 3.31444 1.91503L14.9137 1.91503C15.8137 1.91503 16.3148 2.39139 16.3148 3.34023L16.3148 14.8977C16.3148 15.8465 15.8137 16.3148 14.9137 16.3148Z" fill="white" fill-opacity="0.85"/>
  <path d="M9.11894 13.1592C12.9361 13.1592 15.5383 10.0709 15.5383 9.11894C15.5383 8.15722 12.9281 5.07069 9.11894 5.07069C5.31855 5.07069 2.69159 8.15722 2.69159 9.11894C2.69159 10.0709 5.34257 13.1592 9.11894 13.1592ZM9.11894 11.7387C7.66249 11.7387 6.48944 10.5398 6.48944 9.1207C6.48144 7.65097 7.66249 6.49296 9.11894 6.49296C10.5727 6.49296 11.7502 7.65097 11.7502 9.1207C11.7502 10.5398 10.5727 11.7387 9.11894 11.7387ZM9.13496 10.2637C9.74589 10.2637 10.2734 9.72988 10.2734 9.1207C10.2734 8.50175 9.74589 7.9662 9.13496 7.9662C8.49824 7.9662 7.96796 8.50175 7.96796 9.1207C7.96796 9.72988 8.49824 10.2637 9.13496 10.2637Z" fill="white" fill-opacity="0.85"/>
 </g>
</svg>
