<?xml version="1.0" encoding="UTF-8"?>
<!--Generator: Apple Native CoreSVG 341-->
<!DOCTYPE svg
PUBLIC "-//W3C//DTD SVG 1.1//EN"
       "http://www.w3.org/Graphics/SVG/1.1/DTD/svg11.dtd">
<svg version="1.1" xmlns="http://www.w3.org/2000/svg" xmlns:xlink="http://www.w3.org/1999/xlink" viewBox="0 0 26.9238 16.7414">
 <g>
  <rect height="16.7414" opacity="0" width="26.9238" x="0" y="0"/>
  <path d="M13.2826 16.7281C21.2033 16.7281 26.5625 10.3385 26.5625 8.36406C26.5625 6.3834 21.1953 0 13.2826 0C5.47012 0 0 6.3834 0 8.36406C0 10.3385 5.47012 16.7281 13.2826 16.7281ZM13.2844 13.7281C10.3213 13.7281 7.92206 11.3209 7.92206 8.36582C7.92206 5.40097 10.3213 3.00351 13.2844 3.00351C16.2412 3.00351 18.6484 5.40097 18.6484 8.36582C18.6484 11.3209 16.2412 13.7281 13.2844 13.7281ZM13.2844 10.3756C14.3984 10.3756 15.2959 9.47988 15.2959 8.36582C15.2959 7.25176 14.3984 6.3543 13.2844 6.3543C12.1721 6.3543 11.2746 7.25176 11.2746 8.36582C11.2746 9.47988 12.1721 10.3756 13.2844 10.3756Z" fill="white" fill-opacity="0.85"/>
 </g>
</svg>
