<?xml version="1.0" encoding="UTF-8"?>
<!--Generator: Apple Native CoreSVG 341-->
<!DOCTYPE svg
PUBLIC "-//W3C//DTD SVG 1.1//EN"
       "http://www.w3.org/Graphics/SVG/1.1/DTD/svg11.dtd">
<svg version="1.1" xmlns="http://www.w3.org/2000/svg" xmlns:xlink="http://www.w3.org/1999/xlink" viewBox="0 0 32.281 12.6262">
 <g>
  <rect height="12.6262" opacity="0" width="32.281" x="0" y="0"/>
  <path d="M8.29315 12.6181C11.7738 12.6181 14.5933 9.79862 14.5933 6.30819C14.5933 2.82754 11.7738 0 8.29315 0C4.80273 0 1.97343 2.82754 1.97343 6.30819C1.97343 9.79862 4.80273 12.6181 8.29315 12.6181ZM8.29315 10.6197C5.90428 10.6197 3.97361 8.69531 3.97361 6.30819C3.97361 3.93085 5.90428 1.99842 8.29315 1.99842C10.6625 1.99842 12.5949 3.93886 12.5949 6.30819C12.5949 8.6873 10.6625 10.6197 8.29315 10.6197ZM23.6425 12.6181C27.125 12.6181 29.9462 9.79862 29.9462 6.30819C29.9462 2.82754 27.125 0 23.6425 0C20.1556 0 17.3263 2.82754 17.3263 6.30819C17.3263 9.79862 20.1556 12.6181 23.6425 12.6181ZM23.6425 10.6197C21.2652 10.6197 19.3265 8.6873 19.3265 6.30819C19.3265 3.93886 21.2652 1.99842 23.6425 1.99842C26.0234 1.99842 27.9461 3.93085 27.9461 6.30819C27.9461 8.69531 26.0234 10.6197 23.6425 10.6197ZM2.65488 4.94004L0.758788 4.94004C0.260937 4.94004 0 5.19297 0 5.69883L0 6.35409C0 6.8617 0.26621 7.12792 0.758788 7.12792L2.65488 7.12792ZM29.2648 7.12792L31.1689 7.12792C31.6615 7.12792 31.9197 6.8617 31.9197 6.35409L31.9197 5.69883C31.9197 5.19297 31.6668 4.94004 31.1689 4.94004L29.2648 4.94004ZM14.0551 6.82147C14.5679 6.48534 15.2972 6.32733 15.9638 6.32733C16.6224 6.32733 17.3535 6.48534 17.8726 6.82147L17.8726 4.79023C17.2984 4.50371 16.5424 4.39375 15.9638 4.39375C15.3773 4.39375 14.623 4.50371 14.0551 4.79023Z" fill="white" fill-opacity="0.85"/>
 </g>
</svg>
