<?xml version="1.0" encoding="UTF-8"?>
<!--Generator: Apple Native CoreSVG 341-->
<!DOCTYPE svg
PUBLIC "-//W3C//DTD SVG 1.1//EN"
       "http://www.w3.org/Graphics/SVG/1.1/DTD/svg11.dtd">
<svg version="1.1" xmlns="http://www.w3.org/2000/svg" xmlns:xlink="http://www.w3.org/1999/xlink" viewBox="0 0 20.5381 20.1848">
 <g>
  <rect height="20.1848" opacity="0" width="20.5381" x="0" y="0"/>
  <path d="M10.0875 20.175C15.6576 20.175 20.1767 15.6559 20.1767 10.0875C20.1767 4.51914 15.6576 0 10.0875 0C4.51914 0 0 4.51914 0 10.0875C0 15.6559 4.51914 20.175 10.0875 20.175ZM10.0875 18.1879C5.60839 18.1879 1.9871 14.5666 1.9871 10.0875C1.9871 5.60839 5.60839 1.9871 10.0875 1.9871C14.5666 1.9871 18.1897 5.60839 18.1897 10.0875C18.1897 14.5666 14.5666 18.1879 10.0875 18.1879Z" fill="white" fill-opacity="0.85"/>
  <path d="M7.98378 14.5584C8.58124 14.5584 8.91268 14.1586 8.91268 13.5195L8.91268 10.7769L12.2148 10.7769C12.6502 10.7769 12.9482 10.5385 12.9482 10.1021C12.9482 9.65781 12.6502 9.40156 12.2148 9.40156L8.90741 9.40156L8.90741 7.07186L12.5289 7.07186C12.9941 7.07186 13.3045 6.78631 13.3045 6.33065C13.3045 5.86698 12.9941 5.59745 12.5289 5.59745L8.01269 5.59745C7.38632 5.59745 7.06113 5.99823 7.06113 6.64862L7.06113 13.5195C7.06113 14.1443 7.38281 14.5584 7.98378 14.5584Z" fill="white" fill-opacity="0.85"/>
 </g>
</svg>
