<?xml version="1.0" encoding="UTF-8"?>
<!--Generator: Apple Native CoreSVG 341-->
<!DOCTYPE svg
PUBLIC "-//W3C//DTD SVG 1.1//EN"
       "http://www.w3.org/Graphics/SVG/1.1/DTD/svg11.dtd">
<svg version="1.1" xmlns="http://www.w3.org/2000/svg" xmlns:xlink="http://www.w3.org/1999/xlink" viewBox="0 0 20.5381 20.1848">
 <g>
  <rect height="20.1848" opacity="0" width="20.5381" x="0" y="0"/>
  <path d="M20.1767 10.0973C20.1767 15.6656 15.6576 20.1848 10.0875 20.1848C4.52715 20.1848 0 15.6656 0 10.0973C0 4.53691 4.52715 0.00976562 10.0875 0.00976562C15.6576 0.00976562 20.1767 4.53691 20.1767 10.0973ZM7.94179 5.4291C7.28535 5.4291 6.93984 5.86269 6.93984 6.5369L6.93984 13.6561C6.93984 14.3207 7.27832 14.7516 7.90937 14.7516C8.53866 14.7516 8.8869 14.335 8.8869 13.6561L8.8869 10.8301L12.3088 10.8301C12.7609 10.8301 13.0723 10.5766 13.0723 10.1154C13.0723 9.65253 12.7609 9.39277 12.3088 9.39277L8.87987 9.39277L8.87987 6.97694L12.6291 6.97694C13.1146 6.97694 13.4418 6.67811 13.4418 6.2119C13.4418 5.72167 13.1146 5.4291 12.6291 5.4291Z" fill="white" fill-opacity="0.85"/>
 </g>
</svg>
