<?xml version="1.0" encoding="UTF-8"?>
<!--Generator: Apple Native CoreSVG 341-->
<!DOCTYPE svg
PUBLIC "-//W3C//DTD SVG 1.1//EN"
       "http://www.w3.org/Graphics/SVG/1.1/DTD/svg11.dtd">
<svg version="1.1" xmlns="http://www.w3.org/2000/svg" xmlns:xlink="http://www.w3.org/1999/xlink" viewBox="0 0 20.5381 20.1848">
 <g>
  <rect height="20.1848" opacity="0" width="20.5381" x="0" y="0"/>
  <path d="M20.1767 10.0875C20.1767 15.6478 15.6576 20.175 10.0875 20.175C4.52715 20.175 0 15.6478 0 10.0875C0 4.51914 4.52715 0 10.0875 0C15.6576 0 20.1767 4.51914 20.1767 10.0875ZM9.69609 7.15663L9.45527 8.85156L7.30624 8.85156C6.8416 8.85156 6.48945 9.18769 6.48945 9.67011C6.48945 10.1285 6.8416 10.4611 7.31425 10.4611L9.22383 10.4611L8.89336 12.7775C8.77422 13.6994 8.41777 14.0869 7.71913 14.0869C7.14706 14.0869 6.95976 14.0123 6.62694 14.0123C6.17031 14.0123 5.85996 14.3236 5.85996 14.776C5.85996 15.3818 6.48984 15.7125 7.633 15.7125C9.24511 15.7125 10.265 14.7645 10.5047 13.0076L10.8627 10.4611L13.3705 10.4611C13.8627 10.4611 14.2068 10.1285 14.2068 9.67011C14.2068 9.18769 13.8547 8.85156 13.3607 8.85156L11.1039 8.85156L11.2986 7.43515C11.4266 6.46834 11.7918 6.07557 12.5088 6.07557C13.0775 6.07557 13.2887 6.14041 13.5975 6.14041C14.033 6.14041 14.3275 5.83006 14.3275 5.40331C14.3275 4.79042 13.6852 4.458 12.5598 4.46151C10.9477 4.458 9.92773 5.41581 9.69609 7.15663Z" fill="white" fill-opacity="0.85"/>
 </g>
</svg>
