<?xml version="1.0" encoding="UTF-8"?>
<!--Generator: Apple Native CoreSVG 341-->
<!DOCTYPE svg
PUBLIC "-//W3C//DTD SVG 1.1//EN"
       "http://www.w3.org/Graphics/SVG/1.1/DTD/svg11.dtd">
<svg version="1.1" xmlns="http://www.w3.org/2000/svg" xmlns:xlink="http://www.w3.org/1999/xlink" viewBox="0 0 19.6131 18.5976">
 <g>
  <rect height="18.5976" opacity="0" width="19.6131" x="0" y="0"/>
  <path d="M10.2471 11.9983L9.97245 13.9642C9.61132 16.6045 8.07968 17.9355 5.76796 17.9355C4.4875 17.9355 3.28594 17.6787 3.28594 16.7974C3.28594 16.2365 3.66426 15.8937 4.18964 15.8937C4.60957 15.8937 4.94902 16.0172 5.88515 16.0172C7.13262 16.0172 7.82403 15.3435 8.05938 13.631L8.52434 10.2774ZM7.96276 9.71637L5.26464 9.71637C4.6957 9.71637 4.26328 9.31325 4.26328 8.76208C4.26328 8.2029 4.68594 7.79978 5.24687 7.79978L6.0442 7.79978ZM15.7599 8.76208C15.7599 9.31325 15.3373 9.71637 14.7764 9.71637L13.5692 9.71637L11.6524 7.79978L14.7586 7.79978C15.3275 7.79978 15.7599 8.21091 15.7599 8.76208ZM15.9641 2.05661C15.9641 2.61754 15.5875 2.96031 15.0603 2.96031C14.6582 2.96031 14.3027 2.83687 13.3648 2.83687C12.1191 2.83687 11.4295 3.51676 11.1924 5.23102L10.9339 7.08134L9.20686 5.35451L9.27129 4.88981C9.64043 2.24958 11.1703 0.918529 13.4838 0.918529C14.7625 0.918529 15.9641 1.18337 15.9641 2.05661Z" fill="white" fill-opacity="0.85"/>
  <path d="M17.0828 17.1322C17.3766 17.4259 17.8887 17.4357 18.1824 17.1322C18.4824 16.8224 18.4859 16.3361 18.1824 16.0343L3.57773 1.43142C3.27422 1.12791 2.77988 1.12791 2.46836 1.43142C2.17461 1.72341 2.17461 2.23728 2.46836 2.53103Z" fill="white" fill-opacity="0.85"/>
 </g>
</svg>
