<?xml version="1.0" encoding="UTF-8"?>
<!--Generator: Apple Native CoreSVG 341-->
<!DOCTYPE svg
PUBLIC "-//W3C//DTD SVG 1.1//EN"
       "http://www.w3.org/Graphics/SVG/1.1/DTD/svg11.dtd">
<svg version="1.1" xmlns="http://www.w3.org/2000/svg" xmlns:xlink="http://www.w3.org/1999/xlink" viewBox="0 0 20.5381 20.1848">
 <g>
  <rect height="20.1848" opacity="0" width="20.5381" x="0" y="0"/>
  <path d="M10.0875 20.175C15.6576 20.175 20.1767 15.6559 20.1767 10.0875C20.1767 4.51914 15.6576 0 10.0875 0C4.51914 0 0 4.51914 0 10.0875C0 15.6559 4.51914 20.175 10.0875 20.175ZM10.0875 18.1879C5.60839 18.1879 1.9871 14.5666 1.9871 10.0875C1.9871 5.60839 5.60839 1.9871 10.0875 1.9871C14.5666 1.9871 18.1897 5.60839 18.1897 10.0875C18.1897 14.5666 14.5666 18.1879 10.0875 18.1879Z" fill="white" fill-opacity="0.85"/>
  <path d="M6.0123 14.6066C6.0123 15.1859 6.61562 15.4998 7.71718 15.4998C9.26816 15.4998 10.2402 14.5898 10.4781 12.9039L10.8228 10.4426L13.2455 10.4426C13.7111 10.4426 14.042 10.1232 14.042 9.68339C14.042 9.22754 13.7031 8.90468 13.2357 8.90468L11.0525 8.90468L11.2393 7.52557C11.3654 6.58807 11.7191 6.20682 12.4148 6.20682C12.9623 6.20682 13.1637 6.27166 13.4574 6.27166C13.8797 6.27166 14.1609 5.97635 14.1609 5.57088C14.1609 4.98807 13.5434 4.67069 12.4596 4.67245C10.9086 4.67069 9.93652 5.58866 9.70488 7.26034L9.47558 8.90468L7.4037 8.90468C6.95409 8.90468 6.61699 9.22754 6.61699 9.68339C6.61699 10.1232 6.95409 10.4426 7.41171 10.4426L9.25742 10.4426L8.93847 12.6854C8.81933 13.5779 8.47265 13.9557 7.79355 13.9557C7.24452 13.9557 7.06698 13.8811 6.74569 13.8811C6.30761 13.8811 6.0123 14.1773 6.0123 14.6066Z" fill="white" fill-opacity="0.85"/>
 </g>
</svg>
