<?xml version="1.0" encoding="UTF-8"?>
<!--Generator: Apple Native CoreSVG 341-->
<!DOCTYPE svg
PUBLIC "-//W3C//DTD SVG 1.1//EN"
       "http://www.w3.org/Graphics/SVG/1.1/DTD/svg11.dtd">
<svg version="1.1" xmlns="http://www.w3.org/2000/svg" xmlns:xlink="http://www.w3.org/1999/xlink" viewBox="0 0 18.5894 18.2316">
 <g>
  <rect height="18.2316" opacity="0" width="18.5894" x="0" y="0"/>
  <path d="M18.2281 3.17148L18.2281 15.0646C18.2281 17.1502 17.1404 18.2281 15.0246 18.2281L3.20351 18.2281C1.0957 18.2281 0 17.1502 0 15.0646L0 3.17148C0 1.08769 1.0957 0 3.20351 0L15.0246 0C17.1404 0 18.2281 1.08769 18.2281 3.17148ZM6.99433 4.44277C6.33613 4.44277 5.99238 4.86835 5.99238 5.55057L5.99238 12.668C5.99238 13.3264 6.3291 13.7652 6.96015 13.7652C7.58944 13.7652 7.94569 13.3406 7.94569 12.668L7.94569 9.83573L11.3613 9.83573C11.8135 9.83573 12.1248 9.59023 12.1248 9.12909C12.1248 8.66621 11.8135 8.39843 11.3613 8.39843L7.94042 8.39843L7.94042 5.99061L11.6816 5.99061C12.1654 5.99061 12.4943 5.69178 12.4943 5.21581C12.4943 4.72734 12.1654 4.44277 11.6816 4.44277Z" fill="white" fill-opacity="0.85"/>
 </g>
</svg>
