<?xml version="1.0" encoding="UTF-8"?>
<!--Generator: Apple Native CoreSVG 341-->
<!DOCTYPE svg
PUBLIC "-//W3C//DTD SVG 1.1//EN"
       "http://www.w3.org/Graphics/SVG/1.1/DTD/svg11.dtd">
<svg version="1.1" xmlns="http://www.w3.org/2000/svg" xmlns:xlink="http://www.w3.org/1999/xlink" viewBox="0 0 30.8494 15.4316">
 <g>
  <rect height="15.4316" opacity="0" width="30.8494" x="0" y="0"/>
  <path d="M30.4881 6.62519C30.4881 9.83475 28.1361 12.0812 24.6179 12.1181L24.5809 12.1188C25.0096 11.5592 25.2823 10.9376 25.3848 10.2672C27.3788 10.0092 28.6838 8.56122 28.6838 6.62519C28.6838 5.60097 28.1322 4.96678 27.1541 4.96678L25.4326 4.96678L25.4326 4.76855C25.4326 4.18322 25.2964 3.64646 25.0268 3.1625L27.1541 3.1625C29.2504 3.1625 30.4881 4.48281 30.4881 6.62519ZM5.05898 4.76855L5.05898 4.96678L3.33398 4.96678C2.35409 4.96678 1.80429 5.60097 1.80429 6.62519C1.80429 8.5628 3.11142 10.0116 5.10684 10.2679C5.2095 10.938 5.48217 11.5594 5.91081 12.1187L5.87812 12.1181C2.35195 12.0812 0 9.83475 0 6.62519C0 4.48281 1.24394 3.1625 3.33398 3.1625L5.46483 3.1625C5.1952 3.64646 5.05898 4.18322 5.05898 4.76855ZM20.4568 9.33358C20.4568 9.79491 20.0754 10.1746 19.614 10.1746L10.8971 10.1746C10.434 10.1746 10.0525 9.79491 10.0525 9.33358C10.0525 8.86874 10.4322 8.48105 10.8971 8.48105L19.614 8.48105C20.0789 8.48105 20.4568 8.86874 20.4568 9.33358ZM20.4568 5.65663C20.4568 6.12147 20.0789 6.50917 19.614 6.50917L10.8971 6.50917C10.4322 6.50917 10.0525 6.12147 10.0525 5.65663C10.0525 5.20156 10.434 4.81562 10.8971 4.81562L19.614 4.81562C20.0754 4.81562 20.4568 5.20156 20.4568 5.65663Z" fill="white" fill-opacity="0.85"/>
  <path d="M15.2498 15.4076C21.2183 15.4076 25.4326 13.0726 25.4326 9.65136L25.4326 4.76855C25.4326 1.72988 21.7615 0 15.2498 0C8.73007 0 5.05898 1.72988 5.05898 4.76855L5.05898 9.65136C5.05898 13.0726 9.27324 15.4076 15.2498 15.4076ZM15.2498 13.5365C10.4422 13.5365 6.93983 11.8539 6.93983 9.65136L6.93983 4.76855C6.93983 2.92225 9.93045 1.87284 15.2498 1.87284C20.5611 1.87284 23.5598 2.92225 23.5598 4.76855L23.5598 9.65136C23.5598 11.8539 20.0494 13.5365 15.2498 13.5365Z" fill="white" fill-opacity="0.85"/>
 </g>
</svg>
