<?xml version="1.0" encoding="UTF-8"?>
<!--Generator: Apple Native CoreSVG 341-->
<!DOCTYPE svg
PUBLIC "-//W3C//DTD SVG 1.1//EN"
       "http://www.w3.org/Graphics/SVG/1.1/DTD/svg11.dtd">
<svg version="1.1" xmlns="http://www.w3.org/2000/svg" xmlns:xlink="http://www.w3.org/1999/xlink" viewBox="0 0 20.5381 20.1848">
 <g>
  <rect height="20.1848" opacity="0" width="20.5381" x="0" y="0"/>
  <path d="M1.9951 10.0875C1.9951 9.24101 2.12303 8.42382 2.35936 7.6662L0.522071 6.89687C0.191797 7.90449 0 8.97246 0 10.0875C0 11.1945 0.191797 12.2687 0.530078 13.2781L2.35936 12.507C2.12303 11.7512 1.9951 10.934 1.9951 10.0875ZM6.32909 2.89256L5.57578 1.0793C3.64043 2.05664 2.04863 3.64844 1.07305 5.58379L2.90233 6.34511C3.65721 4.87147 4.86347 3.66346 6.32909 2.89256ZM10.0795 1.9871C10.926 1.9871 11.7432 2.11503 12.5168 2.35936L13.2701 0.530078C12.2625 0.191797 11.1865 0 10.0795 0C8.97421 0 7.89023 0.191797 6.88085 0.530078L7.65194 2.35936C8.41581 2.11503 9.233 1.9871 10.0795 1.9871ZM17.2744 6.3371L19.0957 5.58379C18.1103 3.64844 16.5185 2.05664 14.5832 1.07129L13.8299 2.89256C15.2955 3.65546 16.5115 4.86347 17.2744 6.3371ZM18.1897 10.0875C18.1897 10.934 18.06 11.7512 17.8236 12.515L19.6449 13.2861C19.985 12.2768 20.1767 11.1945 20.1767 10.0875C20.1767 8.97246 19.985 7.89648 19.6449 6.88886L17.8156 7.65819C18.06 8.42382 18.1897 9.24101 18.1897 10.0875ZM13.8299 17.2727L14.5832 19.1019C16.5266 18.1184 18.1184 16.5266 19.0877 14.5912L17.2824 13.8379C16.5195 15.3115 15.3035 16.5098 13.8299 17.2727ZM10.0875 18.1879C9.233 18.1879 8.41581 18.06 7.65194 17.8156L6.88886 19.6449C7.89824 19.9832 8.98222 20.175 10.0875 20.175C11.1945 20.175 12.2705 19.9832 13.2701 19.6529L12.5088 17.8236C11.7432 18.06 10.934 18.1879 10.0875 18.1879ZM2.90233 13.8379L1.08105 14.5912C2.06465 16.5266 3.64043 18.1184 5.57578 19.0939L6.32909 17.2647C4.86347 16.5018 3.65721 15.3035 2.90233 13.8379Z" fill="white" fill-opacity="0.85"/>
  <path d="M10.0795 14.8939C12.1293 14.8939 13.5 13.533 13.5 12.8832C13.5 12.6533 13.2701 12.5424 13.0545 12.6418C12.3346 13.0139 11.4973 13.4516 10.0795 13.4516C8.66347 13.4516 7.82089 13.0174 7.11425 12.6418C6.89062 12.5406 6.65898 12.6533 6.65898 12.8832C6.65898 13.533 8.02968 14.8939 10.0795 14.8939ZM7.20117 9.21582C7.81289 9.21582 8.35449 8.66445 8.35449 7.89199C8.35449 7.10976 7.82089 6.55839 7.20117 6.55839C6.59121 6.55839 6.06113 7.10976 6.06113 7.89199C6.06113 8.66445 6.59121 9.21582 7.20117 9.21582ZM12.9641 9.21582C13.574 9.21582 14.1174 8.66445 14.1174 7.89199C14.1174 7.10976 13.582 6.55839 12.9641 6.55839C12.3506 6.55839 11.8223 7.10976 11.8223 7.89199C11.8223 8.66445 12.3506 9.21582 12.9641 9.21582Z" fill="white" fill-opacity="0.85"/>
 </g>
</svg>
