<?xml version="1.0" encoding="UTF-8"?>
<!--Generator: Apple Native CoreSVG 341-->
<!DOCTYPE svg
PUBLIC "-//W3C//DTD SVG 1.1//EN"
       "http://www.w3.org/Graphics/SVG/1.1/DTD/svg11.dtd">
<svg version="1.1" xmlns="http://www.w3.org/2000/svg" xmlns:xlink="http://www.w3.org/1999/xlink" viewBox="0 0 16.4289 23.2047">
 <g>
  <rect height="23.2047" opacity="0" width="16.4289" x="0" y="0"/>
  <path d="M3.57167 23.2047L12.5039 23.2047C12.932 23.2047 13.1928 22.876 13.1928 22.4318C13.1928 21.6396 12.5338 21.0887 11.5691 21.0887L8.96366 21.0887L8.96366 16.0127C12.966 15.5508 16.0676 12.1629 16.0676 8.03554C16.0676 3.60332 12.474 0 8.03378 0C3.59355 0 0 3.60332 0 8.03554C0 12.1629 3.11133 15.5588 7.11191 16.0127L7.11191 21.0887L4.50019 21.0887C3.53554 21.0887 2.87656 21.6396 2.87656 22.4318C2.87656 22.876 3.13554 23.2047 3.57167 23.2047ZM8.04179 14.401C4.52616 14.401 1.68085 11.5494 1.68085 8.03202C1.68085 4.5244 4.52616 1.67108 8.04179 1.67108C11.5592 1.67108 14.4027 4.5244 14.4027 8.03202C14.4027 11.5494 11.5592 14.401 8.04179 14.401Z" fill="white" fill-opacity="0.85"/>
  <path d="M6.13124 8.03046L7.68124 6.10917L7.68124 4.26659C7.68124 3.39315 7.22772 2.90058 6.37206 2.90058C4.81308 2.90058 3.27343 4.28046 3.27343 5.62694C3.27343 6.82265 4.2953 7.42616 6.13124 8.03046ZM8.04511 6.12323L9.96815 7.67323L11.8187 7.67323C12.6842 7.67323 13.1767 7.21972 13.1767 6.36405C13.1767 4.80683 11.8049 3.27343 10.4504 3.27343C9.25468 3.27343 8.65917 4.28729 8.04511 6.12323ZM9.95409 8.03886L8.40409 9.96015L8.40409 11.8107C8.40409 12.6762 8.85761 13.1687 9.72128 13.1687C11.2705 13.1687 12.8119 11.7969 12.8119 10.4504C12.8119 9.25468 11.7883 8.65116 9.95409 8.03886ZM8.03847 9.94608L6.11718 8.40409L4.2746 8.40409C3.40116 8.40409 2.90858 8.8496 2.90858 9.71327C2.90858 11.2642 4.28046 12.8039 5.63495 12.8039C6.83065 12.8039 7.43417 11.782 8.03847 9.94608ZM10.2363 8.03554C10.2363 6.82909 9.24647 5.84901 8.04179 5.84901C6.8371 5.84901 5.84901 6.82909 5.84901 8.03554C5.84901 9.24022 6.8371 10.2283 8.04179 10.2283C9.24647 10.2283 10.2363 9.24022 10.2363 8.03554ZM8.04179 9.11601C7.4496 9.11601 6.96132 8.62772 6.96132 8.03554C6.96132 7.44159 7.4496 6.95331 8.04179 6.95331C8.63573 6.95331 9.12226 7.44159 9.12226 8.03554C9.12226 8.62772 8.63573 9.11601 8.04179 9.11601Z" fill="white" fill-opacity="0.85"/>
 </g>
</svg>
