<?xml version="1.0" encoding="UTF-8"?>
<!--Generator: Apple Native CoreSVG 341-->
<!DOCTYPE svg
PUBLIC "-//W3C//DTD SVG 1.1//EN"
       "http://www.w3.org/Graphics/SVG/1.1/DTD/svg11.dtd">
<svg version="1.1" xmlns="http://www.w3.org/2000/svg" xmlns:xlink="http://www.w3.org/1999/xlink" viewBox="0 0 20.6287 24.1996">
 <g>
  <rect height="24.1996" opacity="0" width="20.6287" x="0" y="0"/>
  <path d="M3.86894 17.5787L4.8332 19.9896C4.9832 20.3656 5.44335 20.4551 5.74042 20.0275L7.00155 18.2266C7.27206 17.8469 7.16112 17.4123 6.67323 17.298L4.50644 16.8478C3.98574 16.7283 3.71718 17.185 3.86894 17.5787ZM10.1297 24.1996C15.8734 24.1996 20.2674 22.9701 20.2674 20.8205C20.2674 19.3943 18.3316 18.3576 15.3502 17.8525C14.6635 17.7301 14.3051 18.0654 14.2297 18.4629C14.1686 18.8514 14.417 19.2922 14.9582 19.3756C17.2146 19.6996 18.6627 20.276 18.6627 20.8205C18.6627 21.6644 15.2346 22.5949 10.1297 22.5949C5.03281 22.5949 1.60468 21.6644 1.60468 20.8205C1.60468 20.276 3.04472 19.6996 5.30117 19.3756C5.85038 19.2922 6.09081 18.8514 6.03144 18.4629C5.96406 18.0654 5.59765 17.7301 4.91718 17.8525C1.9375 18.3576 0 19.3943 0 20.8205C0 22.9701 4.39394 24.1996 10.1297 24.1996ZM16.3984 17.5787C16.5502 17.185 16.2816 16.7283 15.7609 16.8478L13.5861 17.298C13.0982 17.4123 12.9953 17.8469 13.2578 18.2266L14.5189 20.0275C14.824 20.4551 15.2842 20.3656 15.4342 19.9896Z" fill="white" fill-opacity="0.85"/>
  <path d="M2.20078 10.5363C2.20078 12.9508 4.36308 15.4619 6.47031 15.4619C8.25664 15.4619 9.30586 13.9496 10.2648 11.3766C10.3725 11.3766 10.44 11.3685 10.5236 11.3525L10.5236 13.6258C10.5236 15.1045 11.2912 15.8916 12.7211 15.8916C15.1275 15.8916 17.6467 13.731 17.6467 11.6301C17.6467 9.92285 16.2492 8.79531 13.5613 7.83554C13.5613 7.73769 13.5533 7.66035 13.5293 7.57851L15.791 7.57851C17.2635 7.57851 18.0764 6.80293 18.0764 5.38105C18.0764 2.97461 15.898 0.455469 13.7971 0.455469C12.0463 0.455469 10.9926 2.0461 10.0123 4.5293C9.90644 4.5293 9.8371 4.53731 9.76328 4.55333L9.76328 2.29961C9.76328 0.819139 8.98769 0.0160158 7.54629 0.0160158C5.15137 0.0337893 2.63223 2.18633 2.63223 4.28554C2.63223 6.07187 4.14024 7.11582 6.68829 8.07832C6.68829 8.17793 6.6963 8.25351 6.71231 8.3291L4.47636 8.3291C2.99765 8.3291 2.20078 9.11445 2.20078 10.5363ZM10.1377 9.46328C9.30214 9.46328 8.6291 8.78222 8.6291 7.95293C8.6291 7.11738 9.30214 6.44257 10.1377 6.44257C10.967 6.44257 11.648 7.11738 11.648 7.95293C11.648 8.78222 10.967 9.46328 10.1377 9.46328Z" fill="white" fill-opacity="0.85"/>
 </g>
</svg>
