<?xml version="1.0" encoding="UTF-8"?>
<!--Generator: Apple Native CoreSVG 341-->
<!DOCTYPE svg
PUBLIC "-//W3C//DTD SVG 1.1//EN"
       "http://www.w3.org/Graphics/SVG/1.1/DTD/svg11.dtd">
<svg version="1.1" xmlns="http://www.w3.org/2000/svg" xmlns:xlink="http://www.w3.org/1999/xlink" viewBox="0 0 22.4152 19.1332">
 <g>
  <rect height="19.1332" opacity="0" width="22.4152" x="0" y="0"/>
  <path d="M11.0238 0C4.93359 0 0 4.93359 0 11.0238C0 13.9916 1.16934 16.71 3.1252 18.7107C3.53281 19.1324 4.19452 19.1291 4.62186 18.7275C5.0037 18.3439 4.92401 17.6883 4.47714 17.191C2.98221 15.5979 2.07088 13.4041 2.07088 11.0221C2.07088 6.02245 6.03221 2.0451 11.0238 2.0451C16.0234 2.0451 19.983 6.02245 19.983 11.0221C19.983 13.4041 19.0717 15.5979 17.5768 17.191C17.1299 17.6883 17.0502 18.3439 17.4338 18.7275C17.8576 19.1273 18.5211 19.1324 18.9287 18.7107C20.8846 16.71 22.0539 13.9916 22.0539 11.0238C22.0539 4.93359 17.1203 0 11.0238 0Z" fill="white" fill-opacity="0.85"/>
  <path d="M11.0398 13.2646C11.1615 13.2646 11.301 13.2531 11.4146 13.2353L11.4146 14.9281C11.4146 15.8398 11.8859 16.3369 12.7764 16.3369C14.3754 16.3369 15.9773 14.9125 15.9773 13.5215C15.9773 12.3496 15.0184 11.7256 13.2727 11.108C13.2744 11.0797 13.2744 11.0549 13.2744 11.0221C13.2744 10.8986 13.2664 10.7627 13.2486 10.6473L14.9361 10.6473C15.8496 10.6473 16.3449 10.1777 16.3449 9.28554C16.3449 7.68827 14.9205 6.08632 13.5295 6.08632C12.3576 6.08632 11.7336 7.0453 11.116 8.78925C11.0894 8.78574 11.0664 8.78574 11.0398 8.78574C10.9084 8.78574 10.7654 8.79726 10.6615 8.81503L10.6615 7.12577C10.6615 6.21405 10.184 5.71698 9.29179 5.71698C7.69628 5.71698 6.09257 7.1414 6.09257 8.53241C6.09257 9.70429 7.05155 10.3283 8.7955 10.9459C8.7955 10.9707 8.7955 10.9973 8.7955 11.0221C8.7955 11.1518 8.80527 11.2947 8.82304 11.3986L7.13202 11.3986C6.22382 11.3986 5.72499 11.8797 5.72499 12.7719C5.72499 14.3674 7.14941 15.9693 8.54042 15.9693C9.7123 15.9693 10.3346 15.0103 10.9539 13.2611C10.9805 13.2646 11.0053 13.2646 11.0398 13.2646ZM11.0398 12.1408C10.4219 12.1408 9.91933 11.64 9.91933 11.0221C9.91933 10.4121 10.4219 9.90956 11.0398 9.90956C11.6498 9.90956 12.1506 10.4121 12.1506 11.0221C12.1506 11.64 11.6498 12.1408 11.0398 12.1408Z" fill="white" fill-opacity="0.85"/>
 </g>
</svg>
