<?xml version="1.0" encoding="UTF-8"?>
<!--Generator: Apple Native CoreSVG 341-->
<!DOCTYPE svg
PUBLIC "-//W3C//DTD SVG 1.1//EN"
       "http://www.w3.org/Graphics/SVG/1.1/DTD/svg11.dtd">
<svg version="1.1" xmlns="http://www.w3.org/2000/svg" xmlns:xlink="http://www.w3.org/1999/xlink" viewBox="0 0 20.5381 20.1848">
 <g>
  <rect height="20.1848" opacity="0" width="20.5381" x="0" y="0"/>
  <path d="M20.1767 10.0875C20.1767 15.6478 15.6576 20.175 10.0875 20.175C4.52715 20.175 0 15.6478 0 10.0875C0 4.51914 4.52715 0 10.0875 0C15.6576 0 20.1767 4.51914 20.1767 10.0875ZM4.95331 7.49413C4.95331 8.72187 5.95039 9.35644 7.76347 10.0016C7.76347 10.0344 7.76347 10.0547 7.76347 10.0875C7.76347 10.2207 7.77324 10.3637 7.79453 10.4773L6.04413 10.4773C5.09785 10.4773 4.57421 10.9797 4.57421 11.9002C4.57421 13.5666 6.05625 15.2217 7.49413 15.2217C8.72011 15.2217 9.35292 14.2264 10.0096 12.4062C10.0361 12.408 10.0529 12.408 10.0875 12.408C10.2207 12.408 10.3682 12.3982 10.4756 12.3787L10.4756 14.1326C10.4756 15.0789 10.9762 15.6025 11.8984 15.6025C13.5648 15.6025 15.2199 14.1205 15.2199 12.6844C15.2199 11.4566 14.2246 10.8221 12.4062 10.1689C12.4115 10.1406 12.4115 10.1221 12.4115 10.0875C12.4115 9.95429 12.4035 9.81035 12.3902 9.70117L14.1309 9.70117C15.0887 9.70117 15.6088 9.20058 15.6088 8.28007C15.6088 6.61191 14.1268 4.95683 12.6826 4.95683C11.4566 4.95683 10.8221 5.95214 10.1752 7.76699C10.1406 7.75722 10.1221 7.75722 10.0875 7.75722C9.95605 7.75722 9.81308 7.775 9.69765 7.78652L9.69765 6.04589C9.69765 5.08808 9.19707 4.56796 8.27656 4.56796C6.61191 4.56796 4.95331 6.05 4.95331 7.49413ZM11.2461 10.0875C11.2461 10.7303 10.7303 11.2381 10.0875 11.2381C9.44472 11.2381 8.93691 10.7303 8.93691 10.0875C8.93691 9.44472 9.44472 8.9289 10.0875 8.9289C10.7303 8.9289 11.2461 9.44472 11.2461 10.0875Z" fill="white" fill-opacity="0.85"/>
 </g>
</svg>
