<?xml version="1.0" encoding="UTF-8"?>
<!--Generator: Apple Native CoreSVG 341-->
<!DOCTYPE svg
PUBLIC "-//W3C//DTD SVG 1.1//EN"
       "http://www.w3.org/Graphics/SVG/1.1/DTD/svg11.dtd">
<svg version="1.1" xmlns="http://www.w3.org/2000/svg" xmlns:xlink="http://www.w3.org/1999/xlink" viewBox="0 0 20.6287 24.1996">
 <g>
  <rect height="24.1996" opacity="0" width="20.6287" x="0" y="0"/>
  <path d="M3.86894 17.5787L4.8332 19.9896C4.9832 20.3656 5.44335 20.4551 5.74042 20.0275L7.00155 18.2266C7.27206 17.8469 7.16112 17.4123 6.67323 17.298L4.50644 16.8478C3.98574 16.7283 3.71718 17.185 3.86894 17.5787ZM10.1297 24.1996C15.8734 24.1996 20.2674 22.9701 20.2674 20.8205C20.2674 19.3943 18.3316 18.3576 15.3502 17.8525C14.6635 17.7301 14.3051 18.0654 14.2297 18.4629C14.1686 18.8514 14.417 19.2922 14.9582 19.3756C17.2146 19.6996 18.6627 20.276 18.6627 20.8205C18.6627 21.6644 15.2346 22.5949 10.1297 22.5949C5.03281 22.5949 1.60468 21.6644 1.60468 20.8205C1.60468 20.276 3.04472 19.6996 5.30117 19.3756C5.85038 19.2922 6.09081 18.8514 6.03144 18.4629C5.96406 18.0654 5.59765 17.7301 4.91718 17.8525C1.9375 18.3576 0 19.3943 0 20.8205C0 22.9701 4.39394 24.1996 10.1297 24.1996ZM16.3984 17.5787C16.5502 17.185 16.2816 16.7283 15.7609 16.8478L13.5861 17.298C13.0982 17.4123 12.9953 17.8469 13.2578 18.2266L14.5189 20.0275C14.824 20.4551 15.2842 20.3656 15.4342 19.9896Z" fill="white" fill-opacity="0.85"/>
  <path d="M9.76328 5.91679L9.76328 2.29961C9.76328 0.819139 8.98769 0.0160158 7.54629 0.0160158C5.15137 0.0160158 2.63223 2.18633 2.63223 4.28554C2.63223 6.33398 4.60605 7.408 7.71015 8.5416L8.37636 7.03711C5.6664 6.00566 4.23691 5.42402 4.23691 4.28554C4.23691 3.06718 5.98886 1.62246 7.54629 1.62246C8.075 1.62246 8.14707 1.68652 8.14707 2.29961L8.14707 6.39667ZM12.1836 7.57851L15.791 7.57851C17.2635 7.57851 18.0764 6.80293 18.0764 5.38105C18.0764 2.97461 15.898 0.455469 13.7971 0.455469C11.7602 0.455469 10.6746 2.42929 9.55879 5.53339L11.065 6.21113C12.0769 3.48964 12.6586 2.06015 13.7971 2.06015C15.027 2.06015 16.4619 3.80234 16.4619 5.38105C16.4619 5.90625 16.4139 5.9623 15.791 5.9623L11.6939 5.9623ZM10.5236 10.0068L10.5236 13.6258C10.5236 15.1045 11.2912 15.8916 12.7211 15.8916C15.1275 15.8916 17.6467 13.731 17.6467 11.6301C17.6467 9.5834 15.6711 8.50762 12.5687 7.38203L11.891 8.87851C14.601 9.91171 16.0402 10.4916 16.0402 11.6301C16.0402 12.8502 14.2803 14.2949 12.7211 14.2771C12.1879 14.2771 12.1398 14.2273 12.1398 13.6258L12.1398 9.52871ZM8.08378 8.3291L4.47636 8.3291C2.99765 8.3291 2.20078 9.11445 2.20078 10.5363C2.20078 12.9508 4.36308 15.4619 6.47031 15.4619C8.51874 15.4619 9.59277 13.4943 10.7184 10.384L9.21387 9.70625C8.18242 12.4357 7.60879 13.8457 6.47031 13.8457C5.23242 13.8457 3.81699 12.1133 3.81699 10.5363C3.81699 9.9996 3.87304 9.94355 4.47636 9.94355L8.57343 9.94355ZM10.1377 10.7738C11.6875 10.7738 12.9586 9.50273 12.9586 7.95293C12.9586 6.39512 11.6875 5.13203 10.1377 5.13203C8.57988 5.13203 7.31055 6.39512 7.31055 7.95293C7.31055 9.50273 8.57988 10.7738 10.1377 10.7738ZM10.1377 9.23965C9.42285 9.23965 8.84296 8.65976 8.84296 7.95293C8.84296 7.23808 9.42285 6.66621 10.1377 6.66621C10.8445 6.66621 11.4244 7.23808 11.4244 7.95293C11.4244 8.65976 10.8445 9.23965 10.1377 9.23965Z" fill="white" fill-opacity="0.85"/>
 </g>
</svg>
