<?xml version="1.0" encoding="UTF-8"?>
<!--Generator: Apple Native CoreSVG 341-->
<!DOCTYPE svg
PUBLIC "-//W3C//DTD SVG 1.1//EN"
       "http://www.w3.org/Graphics/SVG/1.1/DTD/svg11.dtd">
<svg version="1.1" xmlns="http://www.w3.org/2000/svg" xmlns:xlink="http://www.w3.org/1999/xlink" viewBox="0 0 16.4289 23.2047">
 <g>
  <rect height="23.2047" opacity="0" width="16.4289" x="0" y="0"/>
  <path d="M16.0676 8.03554C16.0676 12.1629 12.966 15.5508 8.96366 16.0127L8.96366 21.0887L11.5691 21.0887C12.5338 21.0887 13.1928 21.6396 13.1928 22.4318C13.1928 22.876 12.932 23.2047 12.5039 23.2047L3.57167 23.2047C3.13554 23.2047 2.87656 22.876 2.87656 22.4318C2.87656 21.6396 3.53554 21.0887 4.50019 21.0887L7.11191 21.0887L7.11191 16.0127C3.11133 15.5588 0 12.1629 0 8.03554C0 3.60332 3.59355 0 8.03378 0C12.474 0 16.0676 3.60332 16.0676 8.03554ZM3.07851 5.52773C3.07851 6.70292 4.0373 7.33124 5.76308 7.92831C5.75331 8.12089 5.76933 8.25683 5.78886 8.41562L4.11776 8.41562C3.21601 8.41562 2.70038 8.88417 2.70038 9.77792C2.70038 11.39 4.12988 12.9908 5.52773 12.9908C6.70292 12.9908 7.33124 12.032 7.92831 10.3142C8.12089 10.316 8.25683 10.308 8.40761 10.2787L8.40761 11.9578C8.40761 12.8533 8.88417 13.3689 9.77792 13.3689C11.39 13.3689 12.9908 11.9377 12.9908 10.5496C12.9908 9.3664 12.0303 8.74609 10.3062 8.14901C10.316 7.94843 10.308 7.81249 10.2787 7.66171L11.9578 7.66171C12.8516 7.66171 13.3689 7.18515 13.3689 6.29941C13.3689 4.67929 11.9377 3.08652 10.5416 3.08652C9.36464 3.08652 8.73632 4.0373 8.14726 5.76308C7.94843 5.75331 7.81073 5.76933 7.65995 5.79062L7.65995 4.11952C7.65995 3.21601 7.18515 2.70038 6.29941 2.70038C4.67753 2.70038 3.07851 4.13964 3.07851 5.52773ZM9.12226 8.03554C9.12226 8.62772 8.63573 9.11601 8.04179 9.11601C7.4496 9.11601 6.96132 8.62772 6.96132 8.03554C6.96132 7.44159 7.4496 6.95331 8.04179 6.95331C8.63573 6.95331 9.12226 7.44159 9.12226 8.03554Z" fill="white" fill-opacity="0.85"/>
 </g>
</svg>
