<?xml version="1.0" encoding="UTF-8"?>
<!--Generator: Apple Native CoreSVG 341-->
<!DOCTYPE svg
PUBLIC "-//W3C//DTD SVG 1.1//EN"
       "http://www.w3.org/Graphics/SVG/1.1/DTD/svg11.dtd">
<svg version="1.1" xmlns="http://www.w3.org/2000/svg" xmlns:xlink="http://www.w3.org/1999/xlink" viewBox="0 0 21.3752 24.718">
 <g>
  <rect height="24.718" opacity="0" width="21.3752" x="0" y="0"/>
  <path d="M10.5069 24.718C13.2591 24.718 13.6614 22.7215 15.1773 22.7215C16.7153 22.7215 16.9622 24.718 20.0847 24.718L20.1423 24.718C20.5847 24.718 20.9446 24.3562 20.9446 23.9139C20.9446 23.475 20.5847 23.1213 20.1423 23.1213L20.0847 23.1213C19.1083 23.1213 18.5267 22.7187 17.7626 22.1766C17.1243 21.7141 16.3017 21.1248 15.1773 21.1248C14.0173 21.1248 13.1884 21.7381 12.5501 22.2184C11.8692 22.7279 11.356 23.1213 10.5069 23.1213C9.65967 23.1213 9.14463 22.7279 8.46553 22.2184C7.82549 21.7381 6.99659 21.1248 5.83839 21.1248C4.71222 21.1248 3.89132 21.7141 3.25128 22.1766C2.48898 22.7187 1.91534 23.1213 0.929208 23.1213L0.873349 23.1213C0.430969 23.1213 0.0692518 23.475 0.0692518 23.9139C0.0692518 24.3562 0.430969 24.718 0.873349 24.718L0.929208 24.718C4.05167 24.718 4.29854 22.7215 5.83839 22.7215C7.35245 22.7215 7.7548 24.718 10.5069 24.718ZM0.441519 15.966L4.00441 22.2765L5.37589 21.4416L1.88995 15.3025C1.49815 14.6043 1.66768 14.2783 2.15909 14.057L9.3212 10.8111C9.78819 10.5998 10.0858 10.4523 10.5069 10.4523C10.9298 10.4523 11.2257 10.5998 11.7025 10.8111L18.8548 14.057C19.3462 14.2783 19.5157 14.6043 19.1239 15.3025L15.638 21.4416L17.0673 22.1947L20.5724 15.966C21.4376 14.4344 21.029 13.282 19.5282 12.6137L12.3442 9.3537C11.9411 9.17167 11.3456 8.84687 10.5069 8.84687C9.67803 8.84687 9.08077 9.17167 8.66964 9.3537L1.48566 12.6137C-0.00535772 13.282-0.413949 14.4344 0.441519 15.966ZM2.42628 12.5285L4.13389 11.8826L5.17881 4.57069C5.23213 4.2162 5.43038 4.01092 5.76612 4.01092L15.2638 4.01092C15.6173 4.01092 15.8218 4.18241 15.8689 4.48085L16.896 11.9244L18.6036 12.5285L17.4788 4.35429C17.3032 3.07988 16.5337 2.40546 15.2796 2.40546L5.75206 2.40546C4.52198 2.40546 3.76046 3.14394 3.56085 4.51796ZM6.56787 7.52167L9.46163 7.52167C9.788 7.52167 10.0062 7.3328 10.0062 7.06327L10.0062 5.57635C10.0062 5.30682 9.788 5.11796 9.46163 5.11796L6.56787 5.11796C6.3001 5.11796 6.121 5.30682 6.121 5.57635L6.121 7.06327C6.121 7.3328 6.3001 7.52167 6.56787 7.52167ZM11.4546 7.52167L14.3581 7.52167C14.6862 7.52167 14.9026 7.3328 14.9026 7.06327L14.9026 5.57635C14.9026 5.30682 14.6862 5.11796 14.3581 5.11796L11.4546 5.11796C11.1948 5.11796 11.0175 5.30682 11.0175 5.57635L11.0175 7.06327C11.0175 7.3328 11.1948 7.52167 11.4546 7.52167ZM6.15694 3.50078L7.76416 3.50078L7.76416 1.89999C7.76416 1.69394 7.88135 1.57499 8.0794 1.57499L12.9425 1.57499C13.1405 1.57499 13.2595 1.69394 13.2595 1.89999L13.2595 3.50078L14.8649 3.50078L14.8649 1.71093C14.8649 0.693163 14.2108 0.0310546 13.1931 0.0310546L7.83057 0.0310546C6.81104 0.0310546 6.15694 0.693163 6.15694 1.71093Z" fill="white" fill-opacity="0.85"/>
 </g>
</svg>
