<?xml version="1.0" encoding="UTF-8"?>
<!--Generator: Apple Native CoreSVG 341-->
<!DOCTYPE svg
PUBLIC "-//W3C//DTD SVG 1.1//EN"
       "http://www.w3.org/Graphics/SVG/1.1/DTD/svg11.dtd">
<svg version="1.1" xmlns="http://www.w3.org/2000/svg" xmlns:xlink="http://www.w3.org/1999/xlink" viewBox="0 0 20.9371 26.3187">
 <g>
  <rect height="26.3187" opacity="0" width="20.9371" x="0" y="0"/>
  <path d="M14.8533 2.91914L5.72069 2.91914C5.75331 2.07796 6.2799 1.59707 7.15234 1.59707L13.4234 1.59707C14.2959 1.59707 14.8208 2.07796 14.8533 2.91914Z" fill="white" fill-opacity="0.85"/>
  <path d="M16.8295 5.82369C16.4995 5.77004 16.1499 5.74296 15.7824 5.74296L4.79335 5.74296C4.42598 5.74296 4.07648 5.7699 3.74647 5.82334C3.8542 4.84215 4.52082 4.28418 5.59745 4.28418L14.9863 4.28418C16.0631 4.28418 16.7231 4.84228 16.8295 5.82369Z" fill="white" fill-opacity="0.85"/>
  <path d="M18.9859 10.5043L18.9859 21.5592C18.9859 23.643 17.8902 24.7306 15.7824 24.7306L4.79335 24.7306C2.68379 24.7306 1.58984 23.643 1.58984 21.5592L1.58984 10.5043C1.58984 8.41249 2.68379 7.3328 4.79335 7.3328L15.7824 7.3328C17.8902 7.3328 18.9859 8.4205 18.9859 10.5043ZM8.12128 19.1973L6.27167 21.0176C5.98847 21.2973 6.03827 21.6656 6.27167 21.8742C6.49179 22.049 6.80155 22.0678 7.09101 21.7978L8.85624 20.0424C9.01073 19.8879 9.04355 19.8551 9.12968 19.6127L9.89706 17.6971L9.6832 17.5906C9.32089 17.3748 8.98085 17.1697 8.78027 16.883ZM10.0631 12.7092L8.14159 12.8361C7.82909 12.8637 7.61073 13.0705 7.56991 13.3945L7.30976 15.3453C7.26093 15.6871 7.44023 15.9348 7.74999 15.9676C8.05624 15.9969 8.25683 15.806 8.31542 15.4625L8.54101 13.8836L9.30741 13.8267C9.46288 13.8152 9.62109 13.9254 9.56601 14.1244L9.11757 15.6881C8.84589 16.6301 9.45937 16.8937 9.93261 17.1539L11.9937 18.3154L10.6687 19.4619C10.3873 19.706 10.3785 20.0381 10.5693 20.2422C10.7521 20.4623 11.0859 20.4943 11.3789 20.2342L13.2711 18.6297C13.5383 18.4113 13.4877 17.9293 13.1797 17.7207L11.1293 16.3851L11.5369 14.9767C11.5902 14.7875 11.8115 14.7697 11.9119 14.9314L12.5264 15.806C12.6666 16.0164 12.9355 16.0928 13.1779 15.9933L14.8996 15.2244C15.2156 15.0779 15.3408 14.7992 15.2006 14.5142C15.0674 14.2275 14.7967 14.1459 14.4824 14.2844L13.1211 14.8953L12.1887 13.5908C11.6861 12.9107 11.0629 12.639 10.0631 12.7092ZM10.6119 11.1801C10.6119 11.8486 11.157 12.3972 11.8211 12.3972C12.4896 12.3972 13.0268 11.8486 13.0268 11.1801C13.0268 10.516 12.4896 9.97264 11.8211 9.97264C11.157 9.97264 10.6119 10.516 10.6119 11.1801Z" fill="white" fill-opacity="0.85"/>
 </g>
</svg>
