<?xml version="1.0" encoding="UTF-8"?>
<!--Generator: Apple Native CoreSVG 341-->
<!DOCTYPE svg
PUBLIC "-//W3C//DTD SVG 1.1//EN"
       "http://www.w3.org/Graphics/SVG/1.1/DTD/svg11.dtd">
<svg version="1.1" xmlns="http://www.w3.org/2000/svg" xmlns:xlink="http://www.w3.org/1999/xlink" viewBox="0 0 20.5381 20.1848">
 <g>
  <rect height="20.1848" opacity="0" width="20.5381" x="0" y="0"/>
  <path d="M20.1767 10.0875C20.1767 15.6478 15.6576 20.175 10.0875 20.175C4.52715 20.175 0 15.6478 0 10.0875C0 4.51914 4.52715 0 10.0875 0C15.6576 0 20.1767 4.51914 20.1767 10.0875ZM14.8949 14.2008L4.68905 14.8393C4.50722 14.857 4.37597 14.9883 4.37597 15.1781C4.37597 15.3404 4.50897 15.4895 4.68905 15.4895L15.0023 15.4895C15.3627 15.4895 15.6467 15.2055 15.6467 14.8389C15.6467 14.4146 15.3219 14.1795 14.8949 14.2008ZM7.53202 11.5805L5.83144 13.2713C5.57128 13.5377 5.61132 13.8635 5.82343 14.048C6.02401 14.2256 6.31874 14.2381 6.58339 13.9779L8.20663 12.3697C8.33534 12.233 8.36288 12.1922 8.45527 11.9826L9.10371 10.2646L8.93613 10.176C8.69023 10.0312 8.33671 9.8039 8.13164 9.44941ZM16.6941 7.6162L14.1695 8.7955C13.9654 8.89042 13.898 9.10605 13.985 9.29413C14.0586 9.4707 14.2875 9.55234 14.4818 9.46093L15.04 9.1996L14.2451 13.7508L14.8113 13.7117C14.8912 13.7117 14.9346 13.7117 14.9984 13.7135L15.8572 8.82519L17.0047 8.28964C17.1928 8.19472 17.2646 7.96757 17.191 7.78925C17.1059 7.60468 16.8707 7.52304 16.6941 7.6162ZM9.30878 5.62558L7.53632 5.74902C7.25488 5.77655 7.05956 5.9621 7.0205 6.25683L6.77988 8.0373C6.74081 8.36933 6.88905 8.58945 7.18378 8.62675C7.47499 8.64628 7.6498 8.4705 7.69687 8.15624L7.91093 6.71132L8.61699 6.66425C8.76093 6.65273 8.91113 6.75487 8.85605 6.94062L8.43867 8.37831C8.19804 9.23242 8.75917 9.47128 9.19609 9.71992L11.0877 10.7785L9.87187 11.8336C9.60195 12.077 9.59668 12.3734 9.76621 12.558C9.93925 12.7568 10.25 12.7809 10.5217 12.55L12.2648 11.0795C12.509 10.8682 12.4602 10.4332 12.1769 10.2379L10.3059 9.00527L10.6744 7.71132C10.7197 7.53183 10.9152 7.50605 11.0236 7.66952L11.576 8.46874C11.7047 8.67382 11.9506 8.73417 12.1752 8.64452L13.7656 7.93769C14.0506 7.80097 14.1562 7.54531 14.0311 7.2914C13.9121 7.02773 13.6564 6.9496 13.367 7.07656L12.1184 7.63339L11.2561 6.44159C10.7943 5.81562 10.2269 5.55898 9.30878 5.62558ZM9.81679 4.2287C9.81679 4.84491 10.3131 5.32343 10.9275 5.32343C11.5295 5.32343 12.0303 4.84491 12.0303 4.2287C12.0303 3.61073 11.5295 3.10995 10.9275 3.10995C10.3131 3.10995 9.81679 3.61073 9.81679 4.2287Z" fill="white" fill-opacity="0.85"/>
 </g>
</svg>
