<?xml version="1.0" encoding="UTF-8"?>
<!--Generator: Apple Native CoreSVG 341-->
<!DOCTYPE svg
PUBLIC "-//W3C//DTD SVG 1.1//EN"
       "http://www.w3.org/Graphics/SVG/1.1/DTD/svg11.dtd">
<svg version="1.1" xmlns="http://www.w3.org/2000/svg" xmlns:xlink="http://www.w3.org/1999/xlink" viewBox="0 0 19.5183 23.5871">
 <g>
  <rect height="23.5871" opacity="0" width="19.5183" x="0" y="0"/>
  <path d="M2.20644 4.3871C3.40371 4.3871 4.3871 3.40371 4.3871 2.18066C4.3871 0.977147 3.40371 0 2.20644 0C0.985155 0 0 0.977147 0 2.18066C0 3.40371 0.985155 4.3871 2.20644 4.3871ZM1.10097 12.4892L5.17382 12.4892L5.40918 12.7246C5.908 13.2252 6.58964 13.4764 7.24999 13.4764C7.79941 13.4764 8.33456 13.3068 8.80585 12.9562L13.7396 9.26698L18.6424 6.31542C19.1375 6.02441 19.3008 5.38906 19.0213 4.89746C18.7142 4.40234 18.0789 4.25058 17.5855 4.54785L8.26542 10.1271L5.69003 7.54374C5.6164 7.47812 5.62558 7.46757 5.7205 7.46757L8.10038 7.46757C8.67714 7.46757 9.14921 7.00351 9.14921 6.42851L9.14921 2.06464C9.14921 1.47988 8.67714 1.01758 8.10038 1.01758C7.52363 1.01758 7.06308 1.47988 7.06308 2.06464L7.06308 5.39921L2.08984 5.39921C0.980467 5.39921 0.0636709 6.30624 0.0636709 7.42538L0.0636709 11.4519C0.0636709 12.0092 0.519724 12.4892 1.10097 12.4892ZM2.04082 10.4748L2.04082 9.56894C2.04082 9.44276 2.18828 9.37616 2.28418 9.47206L3.2834 10.4748ZM7.39121 23.4859C7.92714 23.5853 8.52167 23.2375 8.63612 22.6625L9.633 17.6586C9.66054 17.5281 9.66054 17.4217 9.64276 17.2849L9.45898 13.7131C8.75878 14.2279 7.99199 14.4648 7.24999 14.4648C7.15331 14.4648 7.04863 14.4648 6.94218 14.4551L7.53711 17.451L6.57929 22.2508C6.4666 22.8178 6.83574 23.3715 7.39121 23.4859ZM8.60546 3.59726C9.4539 3.59726 10.1559 2.9166 10.1559 2.06464C10.1559 1.20468 9.4539 0.524021 8.60546 0.524021C7.76152 0.524021 7.06308 1.20468 7.06308 2.06464C7.06308 2.9166 7.76152 3.59726 8.60546 3.59726Z" fill="white" fill-opacity="0.85"/>
 </g>
</svg>
