<?xml version="1.0" encoding="UTF-8"?>
<!--Generator: Apple Native CoreSVG 341-->
<!DOCTYPE svg
PUBLIC "-//W3C//DTD SVG 1.1//EN"
       "http://www.w3.org/Graphics/SVG/1.1/DTD/svg11.dtd">
<svg version="1.1" xmlns="http://www.w3.org/2000/svg" xmlns:xlink="http://www.w3.org/1999/xlink" viewBox="0 0 20.5381 20.1848">
 <g>
  <rect height="20.1848" opacity="0" width="20.5381" x="0" y="0"/>
  <path d="M10.0875 20.175C15.6576 20.175 20.1767 15.6559 20.1767 10.0875C20.1767 4.51914 15.6576 0 10.0875 0C4.51914 0 0 4.51914 0 10.0875C0 15.6559 4.51914 20.175 10.0875 20.175ZM10.0875 18.1879C5.60839 18.1879 1.9871 14.5666 1.9871 10.0875C1.9871 5.60839 5.60839 1.9871 10.0875 1.9871C14.5666 1.9871 18.1897 5.60839 18.1897 10.0875C18.1897 14.5666 14.5666 18.1879 10.0875 18.1879Z" fill="white" fill-opacity="0.85"/>
  <path d="M10.0867 6.77577C10.8236 6.77577 11.4078 6.18359 11.4078 5.45468C11.4078 4.71777 10.8236 4.12558 10.0867 4.12558C9.35781 4.12558 8.75761 4.71777 8.75761 5.45468C8.75761 6.18359 9.35781 6.77577 10.0867 6.77577ZM10.0787 11.4805C10.2562 11.4805 10.3912 11.5861 10.448 11.7877L11.3492 15.2459C11.5428 16.0236 12.6135 15.7519 12.5043 15.0195C12.4572 14.7336 11.6812 11.809 11.5738 11.1467C11.4877 10.6602 11.5268 9.4332 11.5268 8.89765C11.5268 8.72988 11.6635 8.64199 11.8312 8.7121L13.3629 9.32831C13.7678 9.49081 14.0572 9.29277 14.1389 9.0166C14.232 8.75468 14.1166 8.42538 13.7242 8.26913L12.0781 7.58105C11.698 7.43808 11.3668 7.34218 10.9867 7.29511C10.716 7.43535 10.408 7.50722 10.0787 7.50722C9.74941 7.50722 9.44941 7.43535 9.1707 7.29511C8.79238 7.34218 8.45937 7.43808 8.08105 7.58105L6.4332 8.26913C6.04882 8.42538 5.92714 8.75468 6.02656 9.0166C6.1082 9.29277 6.39765 9.49081 6.80253 9.32831L8.32792 8.7121C8.49394 8.64199 8.64042 8.72988 8.64042 8.89765C8.64042 9.4332 8.66972 10.6602 8.59335 11.1467C8.47617 11.809 7.70019 14.7336 7.65312 15.0195C7.5457 15.7519 8.6164 16.0236 8.80996 15.2459L9.70937 11.7877C9.76621 11.5861 9.90117 11.4805 10.0787 11.4805Z" fill="white" fill-opacity="0.85"/>
 </g>
</svg>
