<?xml version="1.0" encoding="UTF-8"?>
<!--Generator: Apple Native CoreSVG 341-->
<!DOCTYPE svg
PUBLIC "-//W3C//DTD SVG 1.1//EN"
       "http://www.w3.org/Graphics/SVG/1.1/DTD/svg11.dtd">
<svg version="1.1" xmlns="http://www.w3.org/2000/svg" xmlns:xlink="http://www.w3.org/1999/xlink" viewBox="0 0 28.5638 20.1699">
 <g>
  <rect height="20.1699" opacity="0" width="28.5638" x="0" y="0"/>
  <path d="M17.4323 5.12538L17.4323 7.28964C17.4323 7.88085 17.8708 8.31757 18.4557 8.31757L20.1057 8.31757C20.7057 8.31757 21.1585 7.88085 21.1585 7.28964L21.1585 5.12538C21.1585 4.5289 20.7057 4.08417 20.1057 4.08417L18.4557 4.08417C17.8708 4.08417 17.4323 4.5289 17.4323 5.12538ZM22.1837 5.12538L22.1837 7.28964C22.1837 7.88085 22.6159 8.31757 23.2231 8.31757L24.8651 8.31757C25.4651 8.31757 25.9116 7.88085 25.9116 7.28964L25.9116 5.12538C25.9116 4.5289 25.4651 4.08417 24.8651 4.08417L23.2231 4.08417C22.6159 4.08417 22.1837 4.5289 22.1837 5.12538ZM14.9708 10.8361L14.9708 12.9969C14.9708 13.5898 15.4075 14.0203 16.004 14.0203L17.638 14.0203C18.2425 14.0203 18.6872 13.5898 18.6872 12.9969L18.6872 10.8361C18.6872 10.2396 18.2425 9.80116 17.638 9.80116L16.004 9.80116C15.4075 9.80116 14.9708 10.2396 14.9708 10.8361ZM19.7239 10.8361L19.7239 12.9969C19.7239 13.5898 20.1624 14.0203 20.7616 14.0203L22.4036 14.0203C23.0134 14.0203 23.4501 13.5898 23.4501 12.9969L23.4501 10.8361C23.4501 10.2396 23.0134 9.80116 22.4036 9.80116L20.7616 9.80116C20.1624 9.80116 19.7239 10.2396 19.7239 10.8361ZM24.4833 10.8361L24.4833 12.9969C24.4833 13.5898 24.9218 14.0203 25.5227 14.0203L27.1647 14.0203C27.7647 14.0203 28.2014 13.5898 28.2014 12.9969L28.2014 10.8361C28.2014 10.2396 27.7647 9.80116 27.1647 9.80116L25.5227 9.80116C24.9218 9.80116 24.4833 10.2396 24.4833 10.8361ZM17.4323 16.5451L17.4323 18.7058C17.4323 19.3006 17.8708 19.7355 18.4557 19.7355L20.1057 19.7355C20.7057 19.7355 21.1585 19.3006 21.1585 18.7058L21.1585 16.5451C21.1585 15.9469 20.7057 15.5101 20.1057 15.5101L18.4557 15.5101C17.8708 15.5101 17.4323 15.9469 17.4323 16.5451ZM22.1837 16.5451L22.1837 18.7058C22.1837 19.3006 22.6159 19.7355 23.2231 19.7355L24.8651 19.7355C25.4651 19.7355 25.9116 19.3006 25.9116 18.7058L25.9116 16.5451C25.9116 15.9469 25.4651 15.5101 24.8651 15.5101L23.2231 15.5101C22.6159 15.5101 22.1837 15.9469 22.1837 16.5451ZM19.3052 7.22558C18.7362 7.22558 18.2569 6.75781 18.2569 6.18535C18.2569 5.63593 18.7362 5.16816 19.3052 5.16816C19.8563 5.16816 20.3276 5.63593 20.3276 6.18535C20.3276 6.75781 19.8563 7.22558 19.3052 7.22558ZM24.0565 7.22558C23.4893 7.22558 23.0083 6.76581 23.0083 6.18535C23.0083 5.63593 23.4893 5.16816 24.0565 5.16816C24.6077 5.16816 25.0807 5.63593 25.0807 6.18535C25.0807 6.76581 24.6077 7.22558 24.0565 7.22558ZM16.8339 12.9346C16.2729 12.9346 15.7936 12.4748 15.7936 11.8943C15.7936 11.3449 16.2729 10.8851 16.8339 10.8851C17.393 10.8851 17.8643 11.3449 17.8643 11.8943C17.8643 12.4748 17.393 12.9346 16.8339 12.9346ZM21.595 12.9346C21.0278 12.9346 20.5485 12.4748 20.5485 11.8943C20.5485 11.3449 21.0278 10.8851 21.595 10.8851C22.1462 10.8851 22.6192 11.3449 22.6192 11.8943C22.6192 12.4748 22.1462 12.9346 21.595 12.9346ZM26.3481 12.9346C25.7889 12.9346 25.3079 12.4748 25.3079 11.8943C25.3079 11.3449 25.7889 10.8851 26.3481 10.8851C26.8993 10.8851 27.3786 11.3449 27.3786 11.8943C27.3786 12.4748 26.8993 12.9346 26.3481 12.9346ZM19.3052 18.6498C18.7362 18.6498 18.2569 18.1838 18.2569 17.6113C18.2569 17.0539 18.7362 16.5941 19.3052 16.5941C19.8563 16.5941 20.3276 17.0539 20.3276 17.6113C20.3276 18.1838 19.8563 18.6498 19.3052 18.6498ZM24.0565 18.6498C23.4893 18.6498 23.0083 18.1838 23.0083 17.6113C23.0083 17.0539 23.4893 16.5941 24.0565 16.5941C24.6077 16.5941 25.0807 17.0539 25.0807 17.6113C25.0807 18.1838 24.6077 18.6498 24.0565 18.6498ZM19.6104 2.8246L23.5628 2.8246C23.8698 2.8246 23.9266 2.4998 23.6968 2.33828L21.9249 1.13105C21.7014 0.983005 21.477 0.983005 21.2536 1.13105L19.4782 2.33828C19.2466 2.4998 19.3034 2.8246 19.6104 2.8246Z" fill="white" fill-opacity="0.85"/>
  <path d="M5.89541 4.45742C7.12646 4.45742 8.10361 3.43047 8.10361 2.24023C8.10361 1.00566 7.12646 0 5.89541 0C4.65634 0 3.6747 1.00566 3.6747 2.24023C3.6747 3.44648 4.65634 4.45742 5.89541 4.45742ZM1.62627 12.7146L7.94599 5.6955C7.34326 5.46816 6.65791 5.36523 5.89541 5.36523C3.03389 5.36523 1.34131 6.74804 1.34131 9.05839C1.34131 9.61405 1.3626 10.3578 1.44248 11.1193ZM10.1628 12.7146L10.3386 11.1193C10.4282 10.3578 10.4513 9.61405 10.4513 9.05839C10.4513 7.92753 10.0554 7.01503 9.29013 6.39374L4.3165 11.931C4.84755 11.8502 5.37412 11.8164 5.89541 11.8164C7.30576 11.8164 8.72939 12.0037 10.1628 12.7146ZM3.48095 20.1211C4.07548 20.0412 4.46767 19.6117 4.39404 18.8584L3.99814 15.2004L7.78115 15.2004L7.39502 18.8584C7.31162 19.6117 7.71357 20.0412 8.31162 20.1211C8.9372 20.1832 9.3995 19.7998 9.49091 19.074L10.004 14.2689C8.70282 13.5189 7.26494 13.2287 5.89541 13.2287C4.52588 13.2287 3.07471 13.5189 1.80107 14.2689L2.30166 19.074C2.39131 19.7998 2.8456 20.1832 3.48095 20.1211ZM9.29013 6.38573L11.1755 4.29179C11.5224 3.90585 11.4948 3.47734 11.1542 3.20234C10.8366 2.92285 10.4249 2.91133 10.07 3.31855L7.94599 5.6955C8.44638 5.87831 8.89794 6.11523 9.29013 6.38573ZM0.354788 13.4777C-0.0565377 13.7703-0.076069 14.2226 0.122563 14.5092C0.306156 14.8082 0.691116 14.9449 1.09834 14.6922C1.3335 14.5351 1.55264 14.3994 1.80107 14.2689L1.62627 12.7146C1.16572 12.9223 0.740724 13.1609 0.354788 13.4777ZM11.4378 13.4777C11.0421 13.1609 10.6251 12.9223 10.1628 12.7146L9.99775 14.2689C10.2284 14.3994 10.4591 14.5351 10.689 14.6922C11.0962 14.9449 11.4669 14.8162 11.6585 14.5252C11.8571 14.2306 11.8554 13.7783 11.4378 13.4777Z" fill="white" fill-opacity="0.85"/>
 </g>
</svg>
