<?xml version="1.0" encoding="UTF-8"?>
<!--Generator: Apple Native CoreSVG 341-->
<!DOCTYPE svg
PUBLIC "-//W3C//DTD SVG 1.1//EN"
       "http://www.w3.org/Graphics/SVG/1.1/DTD/svg11.dtd">
<svg version="1.1" xmlns="http://www.w3.org/2000/svg" xmlns:xlink="http://www.w3.org/1999/xlink" viewBox="0 0 20.5381 20.1848">
 <g>
  <rect height="20.1848" opacity="0" width="20.5381" x="0" y="0"/>
  <path d="M10.0875 20.175C15.6576 20.175 20.1767 15.6559 20.1767 10.0875C20.1767 4.51914 15.6576 0 10.0875 0C4.51914 0 0 4.51914 0 10.0875C0 15.6559 4.51914 20.175 10.0875 20.175ZM10.0875 18.1879C5.60839 18.1879 1.9871 14.5666 1.9871 10.0875C1.9871 5.60839 5.60839 1.9871 10.0875 1.9871C14.5666 1.9871 18.1897 5.60839 18.1897 10.0875C18.1897 14.5666 14.5666 18.1879 10.0875 18.1879Z" fill="white" fill-opacity="0.85"/>
  <path d="M9.66152 7.68456C10.3008 7.68456 10.8211 7.16425 10.8211 6.52499C10.8211 5.87948 10.3008 5.35741 9.66152 5.35741C9.01777 5.35741 8.49394 5.87948 8.49394 6.52499C8.49394 7.16425 9.01777 7.68456 9.66152 7.68456ZM14.3252 16.1434C14.6297 16.1434 14.8693 15.8895 14.8693 15.5912L14.8693 13.017C14.8693 12.8199 14.7682 12.6654 14.6314 12.5482L12.5703 10.8557L12.1644 8.64531C12.1174 8.41972 12.1547 8.20741 12.2586 7.98808L13.8684 4.76855C14.0051 4.49335 13.8977 4.16757 13.6207 4.02909C13.3535 3.89237 13.0197 4.00155 12.891 4.26874L11.3008 7.4412C11.1809 7.67655 11.0139 7.82577 10.7572 7.93769L7.75917 9.18808L6.55937 8.22363C6.47401 8.15605 6.39042 8.13827 6.30507 8.12675L6.30507 6.95214L5.65214 6.95214L5.65214 8.63105C5.65214 8.81484 5.71601 8.96484 5.85273 9.08027L7.33749 10.2631C7.51952 10.4078 7.73964 10.39 7.96425 10.2924L9.61152 9.61484C9.82128 9.52773 9.93945 9.63085 9.96523 9.78456L10.7725 14.2639L8.53007 15.1537C8.25488 15.2691 8.10839 15.5932 8.21406 15.8799C8.34277 16.1889 8.66328 16.2793 8.93574 16.1781L11.6016 15.1187C11.8439 15.0211 11.9584 14.7752 11.9451 14.5391L11.8004 12.4646C11.7826 12.2531 12.0119 12.1252 12.1834 12.2416L13.7748 13.3117L13.7748 15.5912C13.7748 15.8895 14.0189 16.1434 14.3252 16.1434ZM5.97948 4.14159C5.19198 4.14159 4.57499 4.7746 4.57499 5.57011C4.57499 6.29101 5.18397 7.083 5.97948 7.34315C6.78476 7.083 7.38847 6.29101 7.38847 5.57011C7.38847 4.7746 6.77675 4.14159 5.97948 4.14159ZM5.97948 4.79901C6.4121 4.79901 6.73905 5.12772 6.73905 5.58163C6.73905 6.01776 6.42636 6.48241 5.97948 6.6414C5.5371 6.48241 5.22792 6.01776 5.22792 5.58163C5.22792 5.12772 5.55311 4.79901 5.97948 4.79901Z" fill="white" fill-opacity="0.85"/>
 </g>
</svg>
