<?xml version="1.0" encoding="UTF-8"?>
<!--Generator: Apple Native CoreSVG 341-->
<!DOCTYPE svg
PUBLIC "-//W3C//DTD SVG 1.1//EN"
       "http://www.w3.org/Graphics/SVG/1.1/DTD/svg11.dtd">
<svg version="1.1" xmlns="http://www.w3.org/2000/svg" xmlns:xlink="http://www.w3.org/1999/xlink" viewBox="0 0 13.1068 24.9918">
 <g>
  <rect height="24.9918" opacity="0" width="13.1068" x="0" y="0"/>
  <path d="M1.48379 24.3219C2.07656 24.3219 2.52109 23.8711 2.52109 23.3139L2.52109 18.6027L5.22031 15.7312C5.28144 15.6666 5.38691 15.6719 5.44277 15.7428L8.04238 19.2205L10.29 23.6865C10.9369 24.99 12.7666 24.0521 12.1428 22.8125L7.52324 13.5539C7.10956 12.7301 6.90273 11.6213 6.80331 10.4894C6.77753 10.1457 6.975 9.99804 7.26816 10.1437L9.08183 11.0652L10.7641 14.4297C11.3879 15.6711 13.2699 14.8281 12.6035 13.5033L10.7678 9.84335C10.6648 9.63925 10.5096 9.48222 10.3055 9.37929L7.67968 8.0664C6.89765 7.6705 6.09082 7.51875 5.35312 7.3332C4.50625 7.12636 3.75781 6.86621 3.25527 6.14707L2.0666 4.41953L2.0666 1.01601C2.0666 0.460546 1.59277 0 1.02929 0C0.464061 0 0 0.460546 0 1.01601L0 4.74785C0 4.975 0.0558591 5.13203 0.18457 5.3246L2.27949 8.34453C2.46504 8.6162 2.57695 8.79023 2.61601 9.24042C2.6959 10.3332 2.93027 12.3572 3.37148 13.8299L0.662109 17.5947C0.524609 17.7988 0.474023 17.9967 0.474023 18.1928L0.474023 23.3139C0.474023 23.8711 0.916796 24.3219 1.48379 24.3219ZM6.0621 6.30312C7.26738 6.30312 8.24277 5.32773 8.24277 4.10644C8.24277 2.90117 7.26738 1.92402 6.0621 1.92402C4.84082 1.92402 3.86367 2.90117 3.86367 4.10644C3.86367 5.32773 4.84082 6.30312 6.0621 6.30312Z" fill="white" fill-opacity="0.85"/>
 </g>
</svg>
