<?xml version="1.0" encoding="UTF-8"?>
<!--Generator: Apple Native CoreSVG 341-->
<!DOCTYPE svg
PUBLIC "-//W3C//DTD SVG 1.1//EN"
       "http://www.w3.org/Graphics/SVG/1.1/DTD/svg11.dtd">
<svg version="1.1" xmlns="http://www.w3.org/2000/svg" xmlns:xlink="http://www.w3.org/1999/xlink" viewBox="0 0 20.5381 20.1848">
 <g>
  <rect height="20.1848" opacity="0" width="20.5381" x="0" y="0"/>
  <path d="M10.0875 20.175C15.6576 20.175 20.1767 15.6559 20.1767 10.0875C20.1767 4.51914 15.6576 0 10.0875 0C4.51914 0 0 4.51914 0 10.0875C0 15.6559 4.51914 20.175 10.0875 20.175ZM10.0875 18.1879C5.60839 18.1879 1.9871 14.5666 1.9871 10.0875C1.9871 5.60839 5.60839 1.9871 10.0875 1.9871C14.5666 1.9871 18.1897 5.60839 18.1897 10.0875C18.1897 14.5666 14.5666 18.1879 10.0875 18.1879Z" fill="white" fill-opacity="0.85"/>
  <path d="M8.4162 7.19882C9.05546 7.19882 9.57577 6.67499 9.57577 6.02323C9.57577 5.38573 9.05546 4.86366 8.4162 4.86366C7.76269 4.86366 7.24863 5.38573 7.24863 6.02323C7.24863 6.67499 7.76269 7.19882 8.4162 7.19882ZM5.61913 11.1957C5.37851 12.0756 5.93964 12.6367 6.62773 12.6367C6.84882 12.6367 7.07167 12.5799 7.29452 12.4627L10.1416 10.9459L13.2924 12.5195C13.6928 12.7246 14.0105 12.5666 14.1277 12.3109C14.2547 12.0668 14.1766 11.7215 13.8055 11.5262L10.5012 9.86738C10.2766 9.75371 10.0324 9.7457 9.7998 9.8496L7.70194 10.7582L8.1203 9.29257C8.19491 9.03144 8.42499 8.8582 8.69413 8.8582L13.0225 8.8582C13.3269 8.8582 13.5809 8.61054 13.5809 8.29628C13.5809 7.99003 13.3269 7.74238 13.0225 7.74238L8.30253 7.74238C7.23964 7.74238 6.3748 8.34882 6.12616 9.26249ZM5.46444 14.3717L14.7025 14.3717C14.9049 14.3717 15.0521 14.2244 15.0521 14.0221C15.0521 13.826 14.9049 13.6725 14.7025 13.6725L5.46444 13.6725C5.2621 13.6725 5.11483 13.826 5.11483 14.0221C5.11483 14.2244 5.2621 14.3717 5.46444 14.3717Z" fill="white" fill-opacity="0.85"/>
 </g>
</svg>
