<?xml version="1.0" encoding="UTF-8"?>
<!--Generator: Apple Native CoreSVG 341-->
<!DOCTYPE svg
PUBLIC "-//W3C//DTD SVG 1.1//EN"
       "http://www.w3.org/Graphics/SVG/1.1/DTD/svg11.dtd">
<svg version="1.1" xmlns="http://www.w3.org/2000/svg" xmlns:xlink="http://www.w3.org/1999/xlink" viewBox="0 0 20.5381 20.1848">
 <g>
  <rect height="20.1848" opacity="0" width="20.5381" x="0" y="0"/>
  <path d="M10.0875 20.175C15.6576 20.175 20.1767 15.6559 20.1767 10.0875C20.1767 4.51914 15.6576 0 10.0875 0C4.51914 0 0 4.51914 0 10.0875C0 15.6559 4.51914 20.175 10.0875 20.175ZM10.0875 18.1879C5.60839 18.1879 1.9871 14.5666 1.9871 10.0875C1.9871 5.60839 5.60839 1.9871 10.0875 1.9871C14.5666 1.9871 18.1897 5.60839 18.1897 10.0875C18.1897 14.5666 14.5666 18.1879 10.0875 18.1879Z" fill="white" fill-opacity="0.85"/>
  <path d="M9.87324 6.80898C10.5205 6.80898 11.0328 6.28691 11.0328 5.64941C11.0328 5.0119 10.5205 4.48983 9.87324 4.48983C9.23749 4.48983 8.71367 5.0119 8.71367 5.64941C8.71367 6.28691 9.23749 6.80898 9.87324 6.80898ZM13.951 7.35429L7.93437 7.35429L8.14609 7.5164C8.4123 7.42226 8.52323 7.16581 8.45487 6.93769C8.39628 6.68202 8.15663 6.48671 7.75448 6.5746L6.20487 6.92538C5.183 7.158 5.2078 8.4746 6.27675 8.4746L7.96132 8.4746C8.11503 8.4746 8.22792 8.58925 8.22792 8.74296L8.22792 10.9533L6.60546 12.558C6.3746 12.7773 6.22362 13.0082 6.13573 13.3562L5.55058 15.5779C5.44315 15.9881 5.67929 16.2357 5.96425 16.2846C6.23593 16.3254 6.54042 16.2064 6.63007 15.8646L7.18769 13.7842C7.25253 13.5844 7.28983 13.4973 7.43905 13.3738L8.71425 12.2869C8.9621 12.0746 9.39023 12.1199 9.55546 12.4166L10.3254 13.7602L11.51 15.9881C11.699 16.3432 12.0932 16.3725 12.3391 16.2145C12.5637 16.068 12.6631 15.7715 12.5051 15.459L11.309 13.2L10.6154 11.6096C10.5 11.3449 10.4351 11.0527 10.4351 10.7508L10.4351 8.74296C10.4351 8.58925 10.5498 8.4746 10.6937 8.4746L13.951 8.4746C14.2635 8.4746 14.5174 8.23046 14.5174 7.92421C14.5174 7.60995 14.2635 7.35429 13.951 7.35429ZM14.9445 7.92421C14.9445 8.93437 14.7482 9.93691 14.3049 11.1602C14.1559 11.632 14.8328 11.8221 14.9908 11.3943C15.4394 10.2539 15.6455 9.175 15.6455 7.92421C15.6455 6.70546 15.4394 5.62655 14.9908 4.45409C14.8328 4.03436 14.1478 4.20839 14.3049 4.69452C14.7482 5.91151 14.9445 6.92206 14.9445 7.92421Z" fill="white" fill-opacity="0.85"/>
 </g>
</svg>
