<?xml version="1.0" encoding="UTF-8"?>
<!--Generator: Apple Native CoreSVG 341-->
<!DOCTYPE svg
PUBLIC "-//W3C//DTD SVG 1.1//EN"
       "http://www.w3.org/Graphics/SVG/1.1/DTD/svg11.dtd">
<svg version="1.1" xmlns="http://www.w3.org/2000/svg" xmlns:xlink="http://www.w3.org/1999/xlink" viewBox="0 0 17.7507 24.4461">
 <g>
  <rect height="24.4461" opacity="0" width="17.7507" x="0" y="0"/>
  <path d="M8.58705 4.39511C9.79232 4.39511 10.7775 3.40371 10.7775 2.19844C10.7775 0.993163 9.79232 0 8.58705 0C7.38178 0 6.39037 0.993163 6.39037 2.19844C6.39037 3.40371 7.38178 4.39511 8.58705 4.39511ZM0.83295 12.0152C1.36186 12.1049 1.94037 11.8519 2.07435 11.2228L2.90619 7.50663L4.34916 7.50663C4.51889 7.50663 4.64154 7.64706 4.59623 7.81855L3.60463 11.6367C3.18393 13.2271 4.23295 14.7963 6.22904 14.2957L9.78842 13.4123L9.09857 16.8412C8.98412 17.4002 9.35502 17.9654 9.91224 18.0861C10.3923 18.1873 11.0249 17.8785 11.1554 17.2627L12.162 12.2197C12.3156 11.4637 11.6722 10.8851 11.0316 10.9473L7.87259 11.2562L8.79779 7.74726C8.83509 7.60605 8.98256 7.51718 9.12025 7.57226L12.7867 8.96249C13.4824 9.2287 14.1966 8.82675 14.1966 8.09648L14.1966 3.43613C14.1966 2.86113 13.7326 2.3873 13.138 2.3873C12.5648 2.3873 12.0892 2.86113 12.0892 3.43613L12.0892 6.45664L10.2609 5.74804C9.6431 5.5164 8.96674 5.40097 8.29213 5.40097L2.0517 5.40097C1.56186 5.40097 1.13862 5.74882 1.03393 6.22265L0.0272881 10.7623C-0.104938 11.3355 0.256194 11.9141 0.83295 12.0152ZM5.3806 24.1375C5.86596 24.2369 6.49955 23.9121 6.614 23.314L7.61537 18.2904C7.63841 18.1849 7.64017 18.0758 7.64017 17.9773L7.64017 14.9771L6.46595 15.2611C6.00189 15.3836 5.57064 15.4129 5.17221 15.3783L5.53627 18.0146L4.56068 22.8828C4.44799 23.4543 4.80561 24.0213 5.3806 24.1375ZM9.32103 22.0867L15.7931 22.0867C16.1363 22.0867 16.4156 21.8074 16.4156 21.4642C16.4156 21.1193 16.1363 20.8498 15.7931 20.8498L9.32103 20.8498C8.97787 20.8498 8.69857 21.1193 8.69857 21.4642C8.69857 21.8074 8.97787 22.0867 9.32103 22.0867ZM8.28353 24.4088L16.7689 24.4088C17.1138 24.4088 17.3913 24.1312 17.3913 23.7863C17.3913 23.4432 17.1138 23.1719 16.7689 23.1719L8.28353 23.1719C7.94037 23.1719 7.66908 23.4432 7.66908 23.7863C7.66908 24.1312 7.94037 24.4088 8.28353 24.4088Z" fill="white" fill-opacity="0.85"/>
 </g>
</svg>
