<?xml version="1.0" encoding="UTF-8"?>
<!--Generator: Apple Native CoreSVG 341-->
<!DOCTYPE svg
PUBLIC "-//W3C//DTD SVG 1.1//EN"
       "http://www.w3.org/Graphics/SVG/1.1/DTD/svg11.dtd">
<svg version="1.1" xmlns="http://www.w3.org/2000/svg" xmlns:xlink="http://www.w3.org/1999/xlink" viewBox="0 0 20.5381 20.1848">
 <g>
  <rect height="20.1848" opacity="0" width="20.5381" x="0" y="0"/>
  <path d="M10.0875 20.175C15.6576 20.175 20.1767 15.6559 20.1767 10.0875C20.1767 4.51914 15.6576 0 10.0875 0C4.51914 0 0 4.51914 0 10.0875C0 15.6559 4.51914 20.175 10.0875 20.175ZM10.0875 18.1879C5.60839 18.1879 1.9871 14.5666 1.9871 10.0875C1.9871 5.60839 5.60839 1.9871 10.0875 1.9871C14.5666 1.9871 18.1897 5.60839 18.1897 10.0875C18.1897 14.5666 14.5666 18.1879 10.0875 18.1879Z" fill="white" fill-opacity="0.85"/>
  <path d="M8.22031 9.88242C8.85781 9.88242 9.37988 9.36035 9.37988 8.70683C9.37988 8.06757 8.85781 7.54726 8.22031 7.54726C7.56503 7.54726 7.04472 8.06757 7.04472 8.70683C7.04472 9.36035 7.56503 9.88242 8.22031 9.88242ZM9.84804 8.883L10.5295 8.883L10.5295 8.3539L14.1295 4.73788C14.2652 4.60389 14.2732 4.38651 14.1295 4.26229C14.0053 4.11854 13.7861 4.11854 13.6441 4.26229L10.0016 7.89863C9.89238 8.01757 9.84804 8.15429 9.84804 8.33183ZM11.8898 10.283C12.1943 10.283 12.45 10.0486 12.45 9.73437L12.45 6.15605L11.3314 7.26659L11.3314 9.73437C11.3314 10.0486 11.5853 10.283 11.8898 10.283ZM8.77148 14.0328C9.04941 13.8703 9.3371 13.7256 9.62656 13.6021L9.62656 11.54C9.62656 11.4672 9.67988 11.4139 9.75097 11.4139L10.4082 11.4139C10.7047 11.4139 10.9586 11.16 10.9586 10.8635L10.9586 7.55859L9.84804 8.43144L9.84804 10.3113L7.98124 10.3113C7.50273 10.3113 7.1707 10.6451 7.1707 11.1281L7.1707 12.2152C7.75312 12.6459 8.30624 13.2408 8.77148 14.0328ZM3.69471 12.5291C5.27987 12.5291 7.01698 13.117 8.0205 15.7234C8.1412 16.043 8.50859 16.0873 8.71269 15.885C9.88671 14.7189 11.2144 14.3309 13.1521 14.8814C13.343 14.932 13.5018 14.8406 13.5816 14.6596C13.976 13.7537 14.7904 13.2928 15.7842 13.2928C15.9705 13.2928 16.1338 13.1312 16.1338 12.9414C16.1338 12.7488 15.9705 12.5918 15.7842 12.5918C14.66 12.5918 13.6086 13.1361 13.059 14.1316C11.1984 13.692 9.72695 14.0588 8.52988 15.1006C7.35331 12.4764 5.34999 11.8316 3.69471 11.8316C3.50839 11.8316 3.34686 11.9789 3.34686 12.1812C3.34686 12.3773 3.50839 12.5291 3.69471 12.5291Z" fill="white" fill-opacity="0.85"/>
 </g>
</svg>
