<?xml version="1.0" encoding="UTF-8"?>
<!--Generator: Apple Native CoreSVG 341-->
<!DOCTYPE svg
PUBLIC "-//W3C//DTD SVG 1.1//EN"
       "http://www.w3.org/Graphics/SVG/1.1/DTD/svg11.dtd">
<svg version="1.1" xmlns="http://www.w3.org/2000/svg" xmlns:xlink="http://www.w3.org/1999/xlink" viewBox="0 0 20.5381 20.1848">
 <g>
  <rect height="20.1848" opacity="0" width="20.5381" x="0" y="0"/>
  <path d="M20.1767 10.0875C20.1767 15.6478 15.6576 20.175 10.0875 20.175C4.52715 20.175 0 15.6478 0 10.0875C0 4.51914 4.52715 0 10.0875 0C15.6576 0 20.1767 4.51914 20.1767 10.0875ZM8.40722 6.1996C7.94999 6.1996 7.56113 6.32831 7.19355 6.69589L6.11913 7.78808C5.74277 8.16445 5.95312 8.78222 6.4662 8.78222L7.45741 8.78222L7.2371 9.40761C7.12792 9.7539 7.07109 10.1215 7.07109 10.4695L7.07109 13.3244L5.4162 15.2172C5.19784 15.4613 5.22089 15.8217 5.46679 16.048C5.70644 16.2406 6.07128 16.2273 6.29941 15.9814L8.06347 13.9537C8.17089 13.8348 8.23124 13.698 8.24277 13.548L8.49413 11.2041C8.5039 11.1269 8.59706 11.0896 8.65917 11.1615L10.1789 12.9193L10.1789 15.7154C10.1789 16.0332 10.4443 16.3021 10.7719 16.3021C11.0736 16.3021 11.3471 16.0332 11.3471 15.7154L11.3471 12.7205C11.3471 12.5607 11.2982 12.4613 11.2219 12.3557L9.56757 9.93769L10.3783 7.53124C10.4139 7.40507 10.4992 7.36152 10.6111 7.36152L14.1631 7.36152C14.2918 7.69804 14.6123 7.93691 14.9914 7.93691C15.4539 7.93691 15.8543 7.54628 15.8543 7.05624C15.8543 6.59374 15.4539 6.1996 14.9914 6.1996ZM8.97929 4.41757C8.97929 5.08788 9.52792 5.633 10.1947 5.633C10.8588 5.633 11.3959 5.08788 11.3959 4.41757C11.3959 3.75702 10.8588 3.21191 10.1947 3.21191C9.52792 3.21191 8.97929 3.75702 8.97929 4.41757Z" fill="white" fill-opacity="0.85"/>
 </g>
</svg>
