<?xml version="1.0" encoding="UTF-8"?>
<!--Generator: Apple Native CoreSVG 341-->
<!DOCTYPE svg
PUBLIC "-//W3C//DTD SVG 1.1//EN"
       "http://www.w3.org/Graphics/SVG/1.1/DTD/svg11.dtd">
<svg version="1.1" xmlns="http://www.w3.org/2000/svg" xmlns:xlink="http://www.w3.org/1999/xlink" viewBox="0 0 28.5638 20.1699">
 <g>
  <rect height="20.1699" opacity="0" width="28.5638" x="0" y="0"/>
  <path d="M14.9708 5.12538L14.9708 7.28964C14.9708 7.88085 15.4075 8.31757 16.004 8.31757L17.638 8.31757C18.2425 8.31757 18.6872 7.88085 18.6872 7.28964L18.6872 5.12538C18.6872 4.5289 18.2425 4.08417 17.638 4.08417L16.004 4.08417C15.4075 4.08417 14.9708 4.5289 14.9708 5.12538ZM19.7239 5.12538L19.7239 7.28964C19.7239 7.88085 20.1624 8.31757 20.7616 8.31757L22.4036 8.31757C23.0134 8.31757 23.4501 7.88085 23.4501 7.28964L23.4501 5.12538C23.4501 4.5289 23.0134 4.08417 22.4036 4.08417L20.7616 4.08417C20.1624 4.08417 19.7239 4.5289 19.7239 5.12538ZM24.4833 5.12538L24.4833 7.28964C24.4833 7.88085 24.9218 8.31757 25.5227 8.31757L27.1647 8.31757C27.7647 8.31757 28.2014 7.88085 28.2014 7.28964L28.2014 5.12538C28.2014 4.5289 27.7647 4.08417 27.1647 4.08417L25.5227 4.08417C24.9218 4.08417 24.4833 4.5289 24.4833 5.12538ZM14.9708 10.8361L14.9708 12.9969C14.9708 13.5898 15.4075 14.0203 16.004 14.0203L17.638 14.0203C18.2425 14.0203 18.6872 13.5898 18.6872 12.9969L18.6872 10.8361C18.6872 10.2396 18.2425 9.80116 17.638 9.80116L16.004 9.80116C15.4075 9.80116 14.9708 10.2396 14.9708 10.8361ZM19.7239 10.8361L19.7239 12.9969C19.7239 13.5898 20.1624 14.0203 20.7616 14.0203L22.4036 14.0203C23.0134 14.0203 23.4501 13.5898 23.4501 12.9969L23.4501 10.8361C23.4501 10.2396 23.0134 9.80116 22.4036 9.80116L20.7616 9.80116C20.1624 9.80116 19.7239 10.2396 19.7239 10.8361ZM24.4833 10.8361L24.4833 12.9969C24.4833 13.5898 24.9218 14.0203 25.5227 14.0203L27.1647 14.0203C27.7647 14.0203 28.2014 13.5898 28.2014 12.9969L28.2014 10.8361C28.2014 10.2396 27.7647 9.80116 27.1647 9.80116L25.5227 9.80116C24.9218 9.80116 24.4833 10.2396 24.4833 10.8361ZM14.9708 16.5451L14.9708 18.6996C14.9708 19.3006 15.4075 19.7355 16.004 19.7355L17.638 19.7355C18.2425 19.7355 18.6872 19.3006 18.6872 18.6996L18.6872 16.5451C18.6872 15.9469 18.2425 15.5101 17.638 15.5101L16.004 15.5101C15.4075 15.5101 14.9708 15.9469 14.9708 16.5451ZM19.7239 16.5451L19.7239 18.6996C19.7239 19.3006 20.1624 19.7355 20.7616 19.7355L22.4036 19.7355C23.0134 19.7355 23.4501 19.3006 23.4501 18.6996L23.4501 16.5451C23.4501 15.9469 23.0134 15.5101 22.4036 15.5101L20.7616 15.5101C20.1624 15.5101 19.7239 15.9469 19.7239 16.5451ZM24.4833 16.5451L24.4833 18.6996C24.4833 19.3006 24.9218 19.7355 25.5227 19.7355L27.1647 19.7355C27.7647 19.7355 28.2014 19.3006 28.2014 18.6996L28.2014 16.5451C28.2014 15.9469 27.7647 15.5101 27.1647 15.5101L25.5227 15.5101C24.9218 15.5101 24.4833 15.9469 24.4833 16.5451ZM16.8339 7.22558C16.2729 7.22558 15.7936 6.75781 15.7936 6.18535C15.7936 5.63593 16.2729 5.16816 16.8339 5.16816C17.393 5.16816 17.8643 5.63593 17.8643 6.18535C17.8643 6.75781 17.393 7.22558 16.8339 7.22558ZM21.595 7.22558C21.0278 7.22558 20.5485 6.76581 20.5485 6.18535C20.5485 5.63593 21.0278 5.16816 21.595 5.16816C22.1462 5.16816 22.6192 5.63593 22.6192 6.18535C22.6192 6.76581 22.1462 7.22558 21.595 7.22558ZM26.3481 7.22558C25.7889 7.22558 25.3079 6.76581 25.3079 6.18535C25.3079 5.63593 25.7889 5.16816 26.3481 5.16816C26.8993 5.16816 27.3786 5.63593 27.3786 6.18535C27.3786 6.76581 26.8993 7.22558 26.3481 7.22558ZM16.8339 12.9346C16.2729 12.9346 15.7936 12.4748 15.7936 11.8943C15.7936 11.3449 16.2729 10.8851 16.8339 10.8851C17.393 10.8851 17.8643 11.3449 17.8643 11.8943C17.8643 12.4748 17.393 12.9346 16.8339 12.9346ZM21.595 12.9346C21.0278 12.9346 20.5485 12.4748 20.5485 11.8943C20.5485 11.3449 21.0278 10.8851 21.595 10.8851C22.1462 10.8851 22.6192 11.3449 22.6192 11.8943C22.6192 12.4748 22.1462 12.9346 21.595 12.9346ZM26.3481 12.9346C25.7889 12.9346 25.3079 12.4748 25.3079 11.8943C25.3079 11.3449 25.7889 10.8851 26.3481 10.8851C26.8993 10.8851 27.3786 11.3449 27.3786 11.8943C27.3786 12.4748 26.8993 12.9346 26.3481 12.9346ZM16.8339 18.6498C16.2729 18.6498 15.7936 18.1838 15.7936 17.6113C15.7936 17.0539 16.2729 16.5941 16.8339 16.5941C17.393 16.5941 17.8643 17.0539 17.8643 17.6113C17.8643 18.1838 17.393 18.6498 16.8339 18.6498ZM21.595 18.6498C21.0278 18.6498 20.5485 18.1838 20.5485 17.6113C20.5485 17.0539 21.0278 16.5941 21.595 16.5941C22.1462 16.5941 22.6192 17.0539 22.6192 17.6113C22.6192 18.1838 22.1462 18.6498 21.595 18.6498ZM26.3481 18.6498C25.7889 18.6498 25.3079 18.1838 25.3079 17.6113C25.3079 17.0539 25.7889 16.5941 26.3481 16.5941C26.8993 16.5941 27.3786 17.0539 27.3786 17.6113C27.3786 18.1838 26.8993 18.6498 26.3481 18.6498ZM19.6104 2.8246L23.5628 2.8246C23.8698 2.8246 23.9266 2.4998 23.6968 2.33828L21.9249 1.13105C21.7014 0.983005 21.477 0.983005 21.2536 1.13105L19.4782 2.33828C19.2466 2.4998 19.3034 2.8246 19.6104 2.8246Z" fill="white" fill-opacity="0.85"/>
  <path d="M5.89541 4.45742C7.12646 4.45742 8.10361 3.43047 8.10361 2.24023C8.10361 1.00566 7.12646 0 5.89541 0C4.65634 0 3.6747 1.00566 3.6747 2.24023C3.6747 3.44648 4.65634 4.45742 5.89541 4.45742ZM1.62627 12.7146L7.94599 5.6955C7.34326 5.46816 6.65791 5.36523 5.89541 5.36523C3.03389 5.36523 1.34131 6.74804 1.34131 9.05839C1.34131 9.61405 1.3626 10.3578 1.44248 11.1193ZM10.1628 12.7146L10.3386 11.1193C10.4184 10.3578 10.4513 9.61405 10.4513 9.05839C10.4513 7.92753 10.0554 7.01503 9.29013 6.39374L4.3165 11.931C4.84755 11.8502 5.37412 11.8164 5.89541 11.8164C7.30576 11.8164 8.72939 12.0037 10.1628 12.7146ZM3.48095 20.1211C4.07548 20.0412 4.47744 19.6117 4.39404 18.8584L3.99814 15.2004L7.78115 15.2004L7.39502 18.8584C7.32138 19.6117 7.71357 20.0412 8.31162 20.1211C8.9372 20.1832 9.40927 19.7998 9.49091 19.074L10.004 14.2689C8.70282 13.5189 7.26494 13.2287 5.89541 13.2287C4.52588 13.2287 3.07471 13.5189 1.80107 14.2689L2.30166 19.074C2.3833 19.7998 2.8456 20.1832 3.48095 20.1211ZM9.29013 6.38573L11.1755 4.29179C11.5206 3.9041 11.4948 3.47734 11.1542 3.20234C10.8366 2.92285 10.4267 2.91308 10.07 3.31855L7.94599 5.6955C8.44638 5.87831 8.89794 6.11523 9.29013 6.38573ZM0.354788 13.4777C-0.0565377 13.7703-0.076069 14.2226 0.122563 14.5092C0.306156 14.8082 0.691116 14.9449 1.09834 14.6922C1.3335 14.5351 1.55264 14.3994 1.80107 14.2689L1.62627 12.7146C1.16572 12.9223 0.740724 13.1609 0.354788 13.4777ZM11.4378 13.4777C11.0421 13.1609 10.6251 12.9223 10.1628 12.7146L9.99775 14.2689C10.2284 14.3994 10.4591 14.5351 10.689 14.6922C11.0962 14.9449 11.4669 14.8162 11.6585 14.5252C11.8571 14.2306 11.8554 13.7783 11.4378 13.4777Z" fill="white" fill-opacity="0.85"/>
 </g>
</svg>
