<?xml version="1.0" encoding="UTF-8"?>
<!--Generator: Apple Native CoreSVG 341-->
<!DOCTYPE svg
PUBLIC "-//W3C//DTD SVG 1.1//EN"
       "http://www.w3.org/Graphics/SVG/1.1/DTD/svg11.dtd">
<svg version="1.1" xmlns="http://www.w3.org/2000/svg" xmlns:xlink="http://www.w3.org/1999/xlink" viewBox="0 0 26.9829 22.8074">
 <g>
  <rect height="22.8074" opacity="0" width="26.9829" x="0" y="0"/>
  <path d="M8.95661 21.3271L11.8365 21.3271C12.3377 21.3271 12.5929 20.9795 12.4617 20.4119L11.4443 15.973L14.3951 12.3334L23.1168 10.7408L23.8039 12.0369C24.1295 12.6455 25.1718 12.4406 25.0361 11.6945L24.5683 9.0289C24.4929 8.58984 24.2091 8.4125 23.7976 8.47988L17.8216 9.5371L14.1218 9.34804C13.0584 9.15097 11.305 8.3875 10.9144 7.4207C10.814 7.15331 10.9545 6.92402 11.1943 6.87695L16.7795 5.88632C17.4982 5.7621 17.7546 5.16406 17.6437 4.64316C17.539 4.13379 17.0865 3.69101 16.3908 3.82148L0.850557 6.66465C0.182394 6.78711-0.0722929 7.34433 0.0173555 7.86523C0.118527 8.38964 0.563057 8.84394 1.27028 8.71972L5.82399 7.8871C6.20329 7.8205 6.357 7.95742 6.40583 8.16699C6.94196 10.15 8.9029 11.5773 10.9144 12.3486L9.4611 14.8158C9.23923 15.1957 9.1318 15.5746 9.25251 16.0902L10.0746 19.6474L8.81911 20.0541C8.13239 20.2732 8.21677 21.3271 8.95661 21.3271ZM7.47126 4.3871C8.69255 4.3871 9.66969 3.41172 9.66969 2.19043C9.66969 0.977147 8.69255 0 7.47126 0C6.25798 0 5.28083 0.977147 5.28083 2.19043C5.28083 3.41172 6.25798 4.3871 7.47126 4.3871ZM8.3863 22.7976L12.2865 22.7976C12.4959 22.7976 12.6466 22.6291 12.6466 22.4295C12.6466 22.2041 12.4959 22.0453 12.2865 22.0453L8.3863 22.0453C8.17868 22.0453 8.01013 22.2041 8.01013 22.4295C8.01013 22.6291 8.17868 22.7976 8.3863 22.7976ZM26.614 12.1978L25.9376 8.34824C25.8968 8.14863 25.715 8.02089 25.5154 8.06171C25.2998 8.09453 25.164 8.2746 25.2048 8.48398L25.8794 12.3238C25.9203 12.5332 26.1021 12.6769 26.3275 12.6281C26.5173 12.6033 26.6548 12.4072 26.614 12.1978Z" fill="white" fill-opacity="0.85"/>
 </g>
</svg>
