<?xml version="1.0" encoding="UTF-8"?>
<!--Generator: Apple Native CoreSVG 341-->
<!DOCTYPE svg
PUBLIC "-//W3C//DTD SVG 1.1//EN"
       "http://www.w3.org/Graphics/SVG/1.1/DTD/svg11.dtd">
<svg version="1.1" xmlns="http://www.w3.org/2000/svg" xmlns:xlink="http://www.w3.org/1999/xlink" viewBox="0 0 20.5381 20.1848">
 <g>
  <rect height="20.1848" opacity="0" width="20.5381" x="0" y="0"/>
  <path d="M10.0875 20.175C15.6576 20.175 20.1767 15.6559 20.1767 10.0875C20.1767 4.51914 15.6576 0 10.0875 0C4.51914 0 0 4.51914 0 10.0875C0 15.6559 4.51914 20.175 10.0875 20.175ZM10.0875 18.1879C5.60839 18.1879 1.9871 14.5666 1.9871 10.0875C1.9871 5.60839 5.60839 1.9871 10.0875 1.9871C14.5666 1.9871 18.1897 5.60839 18.1897 10.0875C18.1897 14.5666 14.5666 18.1879 10.0875 18.1879Z" fill="white" fill-opacity="0.85"/>
  <path d="M5.04843 5.39374L5.39589 5.39374C5.38788 5.16757 5.44628 4.92538 5.58358 4.72831L5.04843 4.72831C4.87011 4.72831 4.72284 4.87557 4.72284 5.06014C4.72284 5.24647 4.87011 5.39374 5.04843 5.39374ZM7.73241 5.39374L12.6428 5.39374L12.9951 4.87811C13.0314 4.82225 13.0535 4.78065 13.0934 4.72831L7.28007 4.72831C7.32792 4.78866 7.35976 4.83026 7.39609 4.87811ZM14.9873 5.39374L15.2359 5.39374C15.4223 5.39374 15.5615 5.24647 15.5615 5.06014C15.5615 4.87557 15.4223 4.72831 15.2359 4.72831L14.7996 4.72831C14.9369 4.90936 15.0033 5.15155 14.9873 5.39374ZM10.2369 8.21933C10.8762 8.21933 11.4045 7.70702 11.4045 7.05976C11.4045 6.41425 10.8762 5.89218 10.2369 5.89218C9.5914 5.89218 9.06132 6.41425 9.06132 7.05976C9.06132 7.70702 9.5914 8.21933 10.2369 8.21933ZM7.52851 12.7693C8.17577 13.5418 9.21464 13.4281 9.74648 12.6459L14.4316 5.62616C14.6092 5.36874 14.5293 5.01542 14.2656 4.83964C14.018 4.6621 13.6566 4.74022 13.4791 5.00565L11.3471 8.21034C11.0939 8.58866 10.6801 8.77343 10.2369 8.77343C9.76621 8.77343 9.27773 8.55136 8.97578 8.10468L6.90409 5.00565C6.73456 4.74022 6.38124 4.6621 6.11581 4.83964C5.85214 5.01542 5.79179 5.36874 5.96757 5.62616L8.50898 9.43651C8.62089 9.60526 8.71074 9.69394 8.50898 10.0086L7.90136 10.9324L6.33476 9.57538C6.10038 9.37831 5.74706 9.35878 5.50116 9.61444L3.566 11.5531C3.34764 11.7875 3.34764 12.1328 3.566 12.3477C3.81815 12.5838 4.14569 12.5465 4.36054 12.3477L5.90331 10.8146ZM8.64648 16.6416C8.81601 16.3762 8.75742 16.0486 8.48046 15.8711L6.8078 14.7527L7.85702 13.6127C7.61288 13.5053 7.37499 13.3215 7.16367 13.0756L6.78632 12.6219L5.48241 14.5396C5.31464 14.7918 5.36523 15.1584 5.63866 15.3262L7.87148 16.7979C8.14492 16.9736 8.48046 16.8857 8.64648 16.6416Z" fill="white" fill-opacity="0.85"/>
 </g>
</svg>
