<?xml version="1.0" encoding="UTF-8"?>
<!--Generator: Apple Native CoreSVG 341-->
<!DOCTYPE svg
PUBLIC "-//W3C//DTD SVG 1.1//EN"
       "http://www.w3.org/Graphics/SVG/1.1/DTD/svg11.dtd">
<svg version="1.1" xmlns="http://www.w3.org/2000/svg" xmlns:xlink="http://www.w3.org/1999/xlink" viewBox="0 0 21.5806 18.2183">
 <g>
  <rect height="18.2183" opacity="0" width="21.5806" x="0" y="0"/>
  <path d="M10.6584 4.3871C11.8637 4.3871 12.8489 3.40195 12.8489 2.18066C12.8489 0.975389 11.8637 0 10.6584 0C9.43715 0 8.46177 0.975389 8.46177 2.18066C8.46177 3.40195 9.43715 4.3871 10.6584 4.3871ZM1.47446 13.5803L6.42954 13.9974C7.25395 14.0703 7.55375 14.1465 8.34965 14.3685L14.386 16.0658L19.8151 18.0515C20.3032 18.2246 20.9748 18.0515 21.1692 17.4224C21.3342 16.882 21.0893 16.284 20.5436 16.0879L15.1243 14.1137C15.0364 14.0844 14.8606 14.0178 14.7905 13.9867L10.6188 12.481C11.1789 11.4043 11.9256 9.69003 12.1209 7.83105C12.1405 7.63202 12.2543 7.54218 12.4356 7.54218L19.6809 7.54218C20.2639 7.54218 20.72 7.06835 20.72 6.49511C20.72 5.91035 20.2639 5.44628 19.6809 5.44628L11.7352 5.44628C10.4045 5.44628 10.2909 5.44003 8.84301 5.04414L1.33227 2.96074C0.767041 2.80547 0.201808 3.13554 0.0385268 3.68749C-0.116746 4.25273 0.211573 4.82948 0.767041 4.983L7.77798 6.91816C7.94321 6.96523 8.04106 7.08085 8.02153 7.27011C7.79692 9.01464 6.95434 10.7006 6.49809 11.4879L2.60669 11.4879L2.60669 7.49999C2.60669 6.92499 2.11157 6.45468 1.54985 6.45468C0.974854 6.45468 0.501027 6.92499 0.501027 7.49999L0.501027 12.5252C0.501027 13.1357 0.782276 13.5119 1.47446 13.5803Z" fill="white" fill-opacity="0.85"/>
 </g>
</svg>
