<?xml version="1.0" encoding="UTF-8"?>
<!--Generator: Apple Native CoreSVG 341-->
<!DOCTYPE svg
PUBLIC "-//W3C//DTD SVG 1.1//EN"
       "http://www.w3.org/Graphics/SVG/1.1/DTD/svg11.dtd">
<svg version="1.1" xmlns="http://www.w3.org/2000/svg" xmlns:xlink="http://www.w3.org/1999/xlink" viewBox="0 0 20.5381 20.1848">
 <g>
  <rect height="20.1848" opacity="0" width="20.5381" x="0" y="0"/>
  <path d="M20.1767 10.0875C20.1767 15.6478 15.6576 20.175 10.0875 20.175C4.52715 20.175 0 15.6478 0 10.0875C0 4.51914 4.52715 0 10.0875 0C15.6576 0 20.1767 4.51914 20.1767 10.0875ZM6.72343 3.92245L6.72343 5.98163C6.72343 6.11034 6.74648 6.20976 6.82285 6.31093L7.97714 7.97851C8.08906 8.12773 8.14414 8.22363 8.18144 8.47499C8.2205 9.07968 8.35195 10.1879 8.59082 11.0119L7.09277 13.1031C7.01288 13.2043 6.99335 13.3152 6.99335 13.4324L6.99335 16.2588C6.99335 16.5623 7.22324 16.8145 7.53925 16.8145C7.85878 16.8145 8.1162 16.5623 8.1162 16.2588L8.1162 13.6525L9.60293 12.0619C9.6455 12.0193 9.70761 12.0211 9.73066 12.0637L11.1693 13.9908L12.4107 16.4611C12.7711 17.1766 13.7732 16.6662 13.4359 15.9836L10.876 10.8557C10.6469 10.4037 10.5332 9.78476 10.4764 9.16406C10.4666 8.96503 10.5822 8.8912 10.7537 8.97031L11.7545 9.47734L12.6807 11.3412C13.018 12.0256 14.0512 11.5676 13.6828 10.8264L12.6687 8.81074C12.6119 8.70331 12.5303 8.61191 12.4193 8.55331L10.9613 7.82519C10.5387 7.6041 10.093 7.52597 9.67558 7.43007C9.21386 7.30663 8.79824 7.16367 8.51581 6.76581L7.85956 5.80409L7.85956 3.92245C7.85956 3.63046 7.60839 3.36679 7.29062 3.36679C6.9746 3.36679 6.72343 3.63046 6.72343 3.92245ZM8.85429 5.6373C8.85429 6.30761 9.39941 6.85273 10.0715 6.85273C10.7258 6.85273 11.2789 6.30761 11.2789 5.6373C11.2789 4.96698 10.7258 4.43163 10.0715 4.43163C9.39941 4.43163 8.85429 4.96698 8.85429 5.6373Z" fill="white" fill-opacity="0.85"/>
 </g>
</svg>
