<?xml version="1.0" encoding="UTF-8"?>
<!--Generator: Apple Native CoreSVG 341-->
<!DOCTYPE svg
PUBLIC "-//W3C//DTD SVG 1.1//EN"
       "http://www.w3.org/Graphics/SVG/1.1/DTD/svg11.dtd">
<svg version="1.1" xmlns="http://www.w3.org/2000/svg" xmlns:xlink="http://www.w3.org/1999/xlink" viewBox="0 0 24.4057 23.7125">
 <g>
  <rect height="23.7125" opacity="0" width="24.4057" x="0" y="0"/>
  <path d="M2.61538 1.44963L4.14487 1.44963C4.08706 1.02327 4.17534 0.580888 4.38764 0.212725L2.61538 0.212725C2.27222 0.212725 1.99292 0.492021 1.99292 0.835183C1.99292 1.17835 2.27222 1.44963 2.61538 1.44963ZM8.84721 1.44963L17.8247 1.44963L18.498 0.450027C18.5529 0.374833 18.613 0.288896 18.6767 0.212725L8.00327 0.212725C8.06518 0.288896 8.12709 0.374833 8.18198 0.458035ZM22.5333 1.44963L23.432 1.44963C23.7751 1.44963 24.0464 1.17835 24.0464 0.835183C24.0464 0.492021 23.7751 0.212725 23.432 0.212725L22.2923 0.212725C22.5046 0.582646 22.5911 1.01526 22.5333 1.44963ZM13.4052 6.7801C14.6185 6.7801 15.6037 5.80471 15.6037 4.59143C15.6037 3.37815 14.6185 2.39299 13.4052 2.39299C12.1919 2.39299 11.2148 3.37815 11.2148 4.59143C11.2148 5.80471 12.1919 6.7801 13.4052 6.7801ZM8.14155 15.6074C9.35483 17.0621 11.3119 16.8598 12.2953 15.3856L21.3923 1.76486C21.7242 1.26174 21.5867 0.601585 21.0968 0.275023C20.6132-0.0532964 19.9451 0.0726798 19.607 0.574046L15.4925 6.76213C15.0335 7.4635 14.2433 7.82932 13.4052 7.82932C12.5148 7.82932 11.6171 7.41467 11.041 6.55529L7.07299 0.574046C6.74291 0.0726798 6.08628-0.0532964 5.58315 0.275023C5.09331 0.601585 4.95581 1.26174 5.28413 1.76486L10.1513 9.059C10.3724 9.384 10.3804 9.81037 10.1513 10.1487L8.82573 12.1526L5.89956 9.61701C5.46831 9.2301 4.80542 9.20705 4.33335 9.67736L0.314794 13.7154C-0.104931 14.1449-0.104931 14.7953 0.314794 15.2151C0.777098 15.6543 1.41596 15.6037 1.80464 15.2151L5.09116 11.9498ZM10.6353 23.2336C10.9654 22.7385 10.8376 22.1094 10.338 21.7731L6.76381 19.3822L8.6767 17.2713C8.20639 17.0477 7.77339 16.7051 7.38022 16.2445L6.65952 15.3996L4.26772 18.9918C3.94116 19.4736 4.06362 20.1436 4.55698 20.4799L9.17475 23.5326C9.66987 23.869 10.3283 23.7137 10.6353 23.2336Z" fill="white" fill-opacity="0.85"/>
 </g>
</svg>
