<?xml version="1.0" encoding="UTF-8"?>
<!--Generator: Apple Native CoreSVG 341-->
<!DOCTYPE svg
PUBLIC "-//W3C//DTD SVG 1.1//EN"
       "http://www.w3.org/Graphics/SVG/1.1/DTD/svg11.dtd">
<svg version="1.1" xmlns="http://www.w3.org/2000/svg" xmlns:xlink="http://www.w3.org/1999/xlink" viewBox="0 0 20.5381 20.1848">
 <g>
  <rect height="20.1848" opacity="0" width="20.5381" x="0" y="0"/>
  <path d="M10.0875 20.175C15.6576 20.175 20.1767 15.6559 20.1767 10.0875C20.1767 4.51914 15.6576 0 10.0875 0C4.51914 0 0 4.51914 0 10.0875C0 15.6559 4.51914 20.175 10.0875 20.175ZM10.0875 18.1879C5.60839 18.1879 1.9871 14.5666 1.9871 10.0875C1.9871 5.60839 5.60839 1.9871 10.0875 1.9871C14.5666 1.9871 18.1897 5.60839 18.1897 10.0875C18.1897 14.5666 14.5666 18.1879 10.0875 18.1879Z" fill="white" fill-opacity="0.85"/>
  <path d="M10.1619 6.36601C10.7977 6.36601 11.3215 5.84394 11.3215 5.19843C11.3215 4.56718 10.7977 4.03886 10.1619 4.03886C9.51464 4.03886 8.98632 4.56718 8.98632 5.19843C8.98632 5.84394 9.51464 6.36601 10.1619 6.36601ZM6.60897 7.9498L8.31581 7.9498C8.38691 7.9498 8.43847 8.01913 8.43847 8.08847L8.26972 10.3006C8.21288 11.1023 8.69413 11.5934 9.36718 11.7381L11.5527 12.2025L12.0189 14.5426C12.0855 14.8684 12.4228 15.0326 12.6785 14.9838C12.975 14.9172 13.1801 14.6207 13.1135 14.3162L12.5789 11.6113C12.5381 11.3947 12.3525 11.2385 12.1475 11.1701L10.4654 10.6506L10.6084 8.61777C10.6244 8.47284 10.7533 8.42128 10.8644 8.50663L11.6654 9.17441C11.7631 9.2623 11.89 9.31113 12.0268 9.31113L14.4572 9.31113C14.7715 9.31113 15.0156 9.0537 15.0156 8.74921C15.0156 8.43495 14.7715 8.19081 14.4572 8.19081L12.2238 8.19081L11.0596 7.21484C10.7621 6.97421 10.4904 6.82948 10.066 6.82948L7.36796 6.82948L7.9621 4.85077C8.04823 4.54979 7.88222 4.24354 7.58749 4.1539C7.29101 4.066 6.97499 4.24003 6.8871 4.5285L6.07011 7.23163C5.96269 7.59472 6.14823 7.9498 6.60897 7.9498ZM8.88945 16.5742C9.15488 16.6443 9.49042 16.5352 9.58808 16.1934L10.3988 13.5143C10.4166 13.4361 10.4184 13.3598 10.4184 13.2736L10.4184 12.4447L9.26952 12.2023C9.20468 12.1926 9.19765 12.1908 9.17636 12.1793L9.30429 13.2719L8.51659 15.8836C8.4287 16.1703 8.60449 16.4846 8.88945 16.5742Z" fill="white" fill-opacity="0.85"/>
 </g>
</svg>
