<?xml version="1.0" encoding="UTF-8"?>
<!--Generator: Apple Native CoreSVG 341-->
<!DOCTYPE svg
PUBLIC "-//W3C//DTD SVG 1.1//EN"
       "http://www.w3.org/Graphics/SVG/1.1/DTD/svg11.dtd">
<svg version="1.1" xmlns="http://www.w3.org/2000/svg" xmlns:xlink="http://www.w3.org/1999/xlink" viewBox="0 0 18.0861 23.7859">
 <g>
  <rect height="23.7859" opacity="0" width="18.0861" x="0" y="0"/>
  <path d="M7.10963 4.3871C8.3149 4.3871 9.29029 3.40195 9.29029 2.18066C9.29029 0.975389 8.3149 0 7.10963 0C5.88834 0 4.90319 0.975389 4.90319 2.18066C4.90319 3.40195 5.88834 4.3871 7.10963 4.3871ZM11.6315 23.6422C12.226 23.6422 12.6866 23.1701 12.6866 22.5933L12.6866 16.9902C12.6866 16.74 12.5561 16.3904 12.226 16.173L8.64224 13.7877L8.64224 7.75077C8.64224 7.61503 8.74615 7.50487 8.88814 7.50487L16.6745 7.50487C17.261 7.50487 17.7233 7.03105 17.7233 6.45429C17.7233 5.88105 17.261 5.40722 16.6745 5.40722L5.54108 5.40722C4.57897 5.40722 4.05182 5.75332 3.56451 6.35956L0.936977 9.58808C0.285611 10.385 0.816274 11.5412 1.67252 11.5412L4.53131 11.5412L4.53131 12.89C4.53131 13.8246 5.05319 14.6988 5.89459 15.1488L10.5827 17.6744L10.5827 22.5933C10.5827 23.1701 11.0547 23.6422 11.6315 23.6422ZM3.58951 9.52499L4.611 8.25214L4.611 9.52499ZM0.249868 23.2828C0.648304 23.7336 1.3067 23.7566 1.74772 23.3742L5.70592 19.9096C5.9065 19.732 5.9899 19.6451 6.06353 19.4508L7.08561 16.9094L5.42252 16.0166C5.25924 15.9252 5.09772 15.8117 4.9442 15.6814L4.16198 18.4756L0.351039 21.8027C-0.0722019 22.1736-0.12103 22.8613 0.249868 23.2828Z" fill="white" fill-opacity="0.85"/>
 </g>
</svg>
