<?xml version="1.0" encoding="UTF-8"?>
<!--Generator: Apple Native CoreSVG 341-->
<!DOCTYPE svg
PUBLIC "-//W3C//DTD SVG 1.1//EN"
       "http://www.w3.org/Graphics/SVG/1.1/DTD/svg11.dtd">
<svg version="1.1" xmlns="http://www.w3.org/2000/svg" xmlns:xlink="http://www.w3.org/1999/xlink" viewBox="0 0 20.5381 20.1848">
 <g>
  <rect height="20.1848" opacity="0" width="20.5381" x="0" y="0"/>
  <path d="M10.0875 20.175C15.6576 20.175 20.1767 15.6559 20.1767 10.0875C20.1767 4.51914 15.6576 0 10.0875 0C4.51914 0 0 4.51914 0 10.0875C0 15.6559 4.51914 20.175 10.0875 20.175ZM10.0875 18.1879C5.60839 18.1879 1.9871 14.5666 1.9871 10.0875C1.9871 5.60839 5.60839 1.9871 10.0875 1.9871C14.5666 1.9871 18.1897 5.60839 18.1897 10.0875C18.1897 14.5666 14.5666 18.1879 10.0875 18.1879Z" fill="white" fill-opacity="0.85"/>
  <path d="M11.0441 7.35859C11.6816 7.35859 12.2037 6.84628 12.2037 6.19101C12.2037 5.55351 11.6816 5.03144 11.0441 5.03144C10.3889 5.03144 9.86855 5.55351 9.86855 6.19101C9.86855 6.84628 10.3889 7.35859 11.0441 7.35859ZM11.8488 11.001C12.1666 11.001 12.4205 10.7471 12.4205 10.4328C12.4205 10.123 12.1666 9.87089 11.8488 9.87089L9.94472 9.87089L9.94472 7.90995C9.94472 7.23964 9.37382 6.80995 8.75234 6.93691L5.50487 7.61269C4.31952 7.85331 3.99628 9.26777 4.85136 10.026L6.8541 11.7994L6.8541 14.5719C6.8541 14.8861 7.10976 15.1436 7.42402 15.1436C7.73027 15.1436 7.9957 14.8861 7.9957 14.5719L7.9957 11.5828C7.9957 11.3795 7.94687 11.2766 7.81992 11.1318L6.30194 9.58652C6.21933 9.50566 6.26288 9.37949 6.35702 9.36796L8.52226 8.96386C8.72226 8.92831 8.80312 8.9914 8.80312 9.17538L8.80312 10.4328C8.80312 10.7471 9.05253 11.001 9.36679 11.001ZM14.8166 13.1857L15.6523 13.1857C15.9506 13.1857 16.1609 12.9816 16.1609 12.6949L16.1609 7.91972C16.1609 7.63925 15.9506 7.4289 15.6684 7.4289L14.7908 7.4289C12.8744 7.4289 11.7174 7.93691 10.4725 9.38886L11.4184 9.38886C11.4512 9.38886 11.4902 9.38886 11.5035 9.38886C12.4281 8.49511 13.3643 8.16991 14.7908 8.16991L15.4217 8.16991L15.4217 12.451L14.8166 12.451C14.6354 12.451 14.5225 12.3736 14.4594 12.2262L13.9736 11.2644C13.8787 11.0781 13.6764 11.0408 13.5291 11.0852C13.34 11.157 13.1918 11.3594 13.3045 11.6008L13.7902 12.5625C13.9838 12.9416 14.3824 13.1857 14.8166 13.1857ZM8.46972 12.8801C9.04082 12.4937 9.46445 11.9945 9.8623 11.475L9.3748 11.475C9.23828 11.475 9.10429 11.4422 8.9748 11.3891C8.81562 11.5918 8.64492 11.7527 8.46972 11.9164ZM4.65175 13.6916L5.59277 13.6916C5.86738 13.6916 6.13749 13.6738 6.38007 13.6338L6.38007 12.8928C6.13574 12.9346 5.8789 12.9586 5.59277 12.9586L4.65175 12.9586C4.44941 12.9586 4.28613 13.1184 4.28613 13.326C4.28613 13.5186 4.45741 13.6916 4.65175 13.6916Z" fill="white" fill-opacity="0.85"/>
 </g>
</svg>
