<?xml version="1.0" encoding="UTF-8"?>
<!--Generator: Apple Native CoreSVG 341-->
<!DOCTYPE svg
PUBLIC "-//W3C//DTD SVG 1.1//EN"
       "http://www.w3.org/Graphics/SVG/1.1/DTD/svg11.dtd">
<svg version="1.1" xmlns="http://www.w3.org/2000/svg" xmlns:xlink="http://www.w3.org/1999/xlink" viewBox="0 0 12.2602 22.3019">
 <g>
  <rect height="22.3019" opacity="0" width="12.2602" x="0" y="0"/>
  <path d="M5.94945 4.3791C7.16273 4.3791 8.13987 3.40371 8.13987 2.19043C8.13987 0.977147 7.16273 0 5.94945 0C4.74417 0 3.76703 0.977147 3.76703 2.19043C3.76703 3.40371 4.74417 4.3791 5.94945 4.3791ZM4.63675 22.1267C5.19671 22.1267 5.63948 21.6857 5.63948 21.132L5.63948 16.925C5.63948 16.7527 5.77894 16.6035 5.94945 16.6035C6.1182 16.6035 6.26741 16.7527 6.26741 16.925L6.26741 21.132C6.26741 21.6857 6.71019 22.1267 7.26038 22.1267C7.81233 22.1267 8.26136 21.6875 8.26136 21.132L8.26136 16.925L9.53577 16.925C10.0887 16.925 10.3364 16.4537 10.1588 15.9105L8.14026 9.7082C7.99026 9.23867 8.62933 9.04609 8.78909 9.53867L10.1082 13.5641C10.5139 14.8139 12.242 14.3141 11.8381 13.0607L10.461 8.87284C9.69495 6.51464 8.62561 5.47929 6.27776 5.47929L5.62738 5.47929C3.28129 5.47929 2.20394 6.51464 1.43793 8.87284L0.060777 13.0607C-0.343129 14.3141 1.38324 14.8139 1.79066 13.5641L3.1098 9.53867C3.26956 9.04609 3.91663 9.23867 3.75863 9.7082L1.74007 15.9105C1.57054 16.4537 1.81019 16.925 2.36136 16.925L3.64378 16.925L3.64378 21.132C3.64378 21.6875 4.08656 22.1267 4.63675 22.1267Z" fill="white" fill-opacity="0.85"/>
 </g>
</svg>
