<?xml version="1.0" encoding="UTF-8"?>
<!--Generator: Apple Native CoreSVG 341-->
<!DOCTYPE svg
PUBLIC "-//W3C//DTD SVG 1.1//EN"
       "http://www.w3.org/Graphics/SVG/1.1/DTD/svg11.dtd">
<svg version="1.1" xmlns="http://www.w3.org/2000/svg" xmlns:xlink="http://www.w3.org/1999/xlink" viewBox="0 0 17.4842 21.6555">
 <g>
  <rect height="21.6555" opacity="0" width="17.4842" x="0" y="0"/>
  <path d="M6.66297 20.0453C7.05262 19.9361 7.2993 19.8137 7.4661 19.5049L9.6286 15.6183C9.66766 15.55 9.70399 15.5189 9.79012 15.5189L15.03 15.5189L15.03 20.4807C15.03 21.0752 15.5038 21.5277 16.0673 21.5277C16.6618 21.5277 17.1259 21.0752 17.1259 20.4807L17.1259 14.5891C17.1259 13.9066 16.7514 13.4932 16.0415 13.4328L11.6071 13.0307L11.6071 7.45292C11.6071 6.3373 10.8208 5.40722 9.44422 5.40722L8.9702 5.40722C8.16512 5.40722 7.54208 5.54746 6.74501 6.1457L3.42684 8.633C2.83583 9.06425 2.87313 9.93827 3.48095 10.3385L7.51747 13.0221L7.51747 13.2514L5.76239 18.118L0.768056 19.4939C0.212588 19.6474-0.115731 20.2144 0.0377839 20.7664C0.202823 21.3529 0.728993 21.6519 1.32001 21.4984ZM5.86434 9.41386L7.26083 8.36561C7.37801 8.28573 7.51747 8.34257 7.51747 8.48554L7.51747 10.5127ZM9.44422 4.3871C10.6415 4.3871 11.6266 3.40371 11.6266 2.18242C11.6266 0.985155 10.6415 0 9.44422 0C8.22294 0 7.23778 0.985155 7.23778 2.18242C7.23778 3.40371 8.22294 4.3871 9.44422 4.3871Z" fill="white" fill-opacity="0.85"/>
 </g>
</svg>
