<?xml version="1.0" encoding="UTF-8"?>
<!--Generator: Apple Native CoreSVG 341-->
<!DOCTYPE svg
PUBLIC "-//W3C//DTD SVG 1.1//EN"
       "http://www.w3.org/Graphics/SVG/1.1/DTD/svg11.dtd">
<svg version="1.1" xmlns="http://www.w3.org/2000/svg" xmlns:xlink="http://www.w3.org/1999/xlink" viewBox="0 0 20.5381 20.1848">
 <g>
  <rect height="20.1848" opacity="0" width="20.5381" x="0" y="0"/>
  <path d="M10.0875 20.175C15.6576 20.175 20.1767 15.6559 20.1767 10.0875C20.1767 4.51914 15.6576 0 10.0875 0C4.51914 0 0 4.51914 0 10.0875C0 15.6559 4.51914 20.175 10.0875 20.175ZM10.0875 18.1879C5.60839 18.1879 1.9871 14.5666 1.9871 10.0875C1.9871 5.60839 5.60839 1.9871 10.0875 1.9871C14.5666 1.9871 18.1897 5.60839 18.1897 10.0875C18.1897 14.5666 14.5666 18.1879 10.0875 18.1879Z" fill="white" fill-opacity="0.85"/>
  <path d="M7.40937 7.69784C8.05312 7.69784 8.57695 7.17402 8.57695 6.53827C8.57695 5.89276 8.05312 5.37069 7.40937 5.37069C6.77011 5.37069 6.2498 5.89276 6.2498 6.53827C6.2498 7.17402 6.77011 7.69784 7.40937 7.69784ZM5.35546 9.89746L5.66894 11.7836C5.77987 12.4982 6.75995 12.3518 6.64276 11.6469L6.38612 10.0279L7.44296 9.61406C7.59042 9.55898 7.73437 9.58202 7.79921 9.72597L8.7707 11.6654C9.07617 12.2586 9.3248 12.4326 9.56367 12.6129L12.7383 14.9475C13.3145 15.3594 13.9918 14.5275 13.3473 14.057L10.8795 12.2473C10.7728 12.1584 10.7728 12.0082 10.9053 11.9389L12.5766 10.9789L14.7709 12.025C15.4092 12.3295 15.9268 11.432 15.1748 11.0627L12.8287 9.94023C12.5428 9.81328 12.2711 9.85058 12.0234 9.98906L10.9187 10.6338C10.7846 10.7164 10.6877 10.6826 10.6344 10.576L9.74726 8.76445C9.6664 8.60722 9.68593 8.44374 9.85566 8.37265L10.6664 7.99257C10.9461 7.86738 11.0437 7.77773 11.1219 7.51581L11.6369 5.73358C11.8322 5.03046 10.8992 4.7828 10.7021 5.47792L10.2004 7.21581L5.71855 9.18456C5.41405 9.31953 5.29687 9.55566 5.35546 9.89746Z" fill="white" fill-opacity="0.85"/>
 </g>
</svg>
