<?xml version="1.0" encoding="UTF-8"?>
<!--Generator: Apple Native CoreSVG 341-->
<!DOCTYPE svg
PUBLIC "-//W3C//DTD SVG 1.1//EN"
       "http://www.w3.org/Graphics/SVG/1.1/DTD/svg11.dtd">
<svg version="1.1" xmlns="http://www.w3.org/2000/svg" xmlns:xlink="http://www.w3.org/1999/xlink" viewBox="0 0 20.5381 20.1848">
 <g>
  <rect height="20.1848" opacity="0" width="20.5381" x="0" y="0"/>
  <path d="M10.0875 20.175C15.6576 20.175 20.1767 15.6559 20.1767 10.0875C20.1767 4.51914 15.6576 0 10.0875 0C4.51914 0 0 4.51914 0 10.0875C0 15.6559 4.51914 20.175 10.0875 20.175ZM10.0875 18.1879C5.60839 18.1879 1.9871 14.5666 1.9871 10.0875C1.9871 5.60839 5.60839 1.9871 10.0875 1.9871C14.5666 1.9871 18.1897 5.60839 18.1897 10.0875C18.1897 14.5666 14.5666 18.1879 10.0875 18.1879Z" fill="white" fill-opacity="0.85"/>
  <path d="M11.9797 6.80995C12.6189 6.80995 13.1393 6.29589 13.1393 5.65038C13.1393 5.00487 12.6189 4.4828 11.9797 4.4828C11.3262 4.4828 10.8121 5.00487 10.8121 5.65038C10.8121 6.29589 11.3262 6.80995 11.9797 6.80995ZM7.83202 13.7449C8.0957 13.8932 8.46054 13.8133 8.62656 13.5594L9.90624 11.5018L11.2725 11.5666L10.4029 12.9486C10.2369 13.2158 10.315 13.5869 10.592 13.7449C10.8654 13.8932 11.1912 13.8248 11.3687 13.5559L12.7283 11.3793C12.9627 11.0064 12.7674 10.5387 12.2498 10.4738L9.95429 10.2269C9.74902 10.2012 9.66816 9.98788 9.77656 9.82441L10.7187 8.39726C10.7818 8.31464 10.8947 8.29511 10.9711 8.34218L14.4566 10.4309C14.7123 10.5889 15.0869 10.509 15.2334 10.2516C15.3914 9.9621 15.3053 9.6248 15.0381 9.45703L8.16034 5.32948C8.05566 5.26112 7.96777 5.25761 7.85781 5.25761L5.65897 5.25761C5.34296 5.25761 5.07929 5.50351 5.07929 5.808C5.07929 6.12226 5.34296 6.38768 5.65897 6.38768L7.70058 6.38768L8.65175 6.95253C8.75214 7.00761 8.77792 7.12226 8.72636 7.22089L7.52929 9.00585C6.88105 9.96933 7.40683 11.2596 8.60039 11.4201L7.64296 12.9486C7.48495 13.2158 7.55683 13.5771 7.83202 13.7449ZM6.43417 15.0771L13.7018 15.0771C14.2949 15.0771 14.7975 14.9582 15.1846 14.6217C15.3674 14.4602 15.3559 14.2543 15.2369 14.1203C15.1437 13.9766 14.9344 13.9242 14.732 14.068C14.4674 14.282 14.1822 14.3762 13.7018 14.3762L6.43417 14.3762C5.95194 14.3762 5.67655 14.274 5.4119 14.068C5.21933 13.942 5.033 13.9748 4.91054 14.0875C4.78808 14.2215 4.75702 14.4566 4.95937 14.6217C5.34647 14.9582 5.84901 15.0771 6.43417 15.0771Z" fill="white" fill-opacity="0.85"/>
 </g>
</svg>
