<?xml version="1.0" encoding="UTF-8"?>
<!--Generator: Apple Native CoreSVG 341-->
<!DOCTYPE svg
PUBLIC "-//W3C//DTD SVG 1.1//EN"
       "http://www.w3.org/Graphics/SVG/1.1/DTD/svg11.dtd">
<svg version="1.1" xmlns="http://www.w3.org/2000/svg" xmlns:xlink="http://www.w3.org/1999/xlink" viewBox="0 0 23.7985 20.1699">
 <g>
  <rect height="20.1699" opacity="0" width="23.7985" x="0" y="0"/>
  <path d="M14.9598 5.12538L14.9598 7.28964C14.9598 7.88085 15.4063 8.31757 15.9993 8.31757L17.6332 8.31757C18.2412 8.31757 18.686 7.88085 18.686 7.28964L18.686 5.12538C18.686 4.5289 18.2412 4.08417 17.6332 4.08417L15.9993 4.08417C15.4063 4.08417 14.9598 4.5289 14.9598 5.12538ZM19.7192 5.12538L19.7192 7.28964C19.7192 7.88085 20.1594 8.31757 20.7586 8.31757L22.3926 8.31757C23.0104 8.31757 23.4391 7.88085 23.4391 7.28964L23.4391 5.12538C23.4391 4.5289 23.0104 4.08417 22.3926 4.08417L20.7586 4.08417C20.1594 4.08417 19.7192 4.5289 19.7192 5.12538ZM14.9598 10.8441L14.9598 13.0049C14.9598 13.5978 15.4063 14.0266 16.0073 14.0266L17.6412 14.0266C18.2573 14.0266 18.686 13.5978 18.686 13.0049L18.686 10.8441C18.686 10.2459 18.2573 9.80116 17.6412 9.80116L16.0073 9.80116C15.4063 9.80116 14.9598 10.2459 14.9598 10.8441ZM19.7192 10.8441L19.7192 13.0049C19.7192 13.5978 20.1594 14.0266 20.7586 14.0266L22.3926 14.0266C23.0024 14.0266 23.4311 13.5978 23.4311 13.0049L23.4311 10.8441C23.4311 10.2459 23.0024 9.80116 22.3926 9.80116L20.7586 9.80116C20.1594 9.80116 19.7192 10.2459 19.7192 10.8441ZM14.9598 16.5451L14.9598 18.7058C14.9598 19.3006 15.4063 19.7355 15.9993 19.7355L17.6332 19.7355C18.2412 19.7355 18.686 19.3006 18.686 18.7058L18.686 16.5451C18.686 15.9469 18.2412 15.5101 17.6332 15.5101L15.9993 15.5101C15.4063 15.5101 14.9598 15.9469 14.9598 16.5451ZM19.7192 16.5451L19.7192 18.7058C19.7192 19.3006 20.1594 19.7355 20.7586 19.7355L22.3926 19.7355C23.0104 19.7355 23.4391 19.3006 23.4391 18.7058L23.4391 16.5451C23.4391 15.9469 23.0104 15.5101 22.3926 15.5101L20.7586 15.5101C20.1594 15.5101 19.7192 15.9469 19.7192 16.5451ZM17.1397 2.8246L21.1 2.8246C21.4053 2.8246 21.4541 2.4998 21.2242 2.33828L19.4604 1.13105C19.2369 0.983005 19.0125 0.983005 18.7811 1.13105L17.0137 2.33828C16.7838 2.4998 16.8407 2.8246 17.1397 2.8246Z" fill="white" fill-opacity="0.85"/>
  <path d="M5.89243 4.45742C7.12348 4.45742 8.10063 3.43047 8.10063 2.24023C8.10063 1.00566 7.12348 0 5.89243 0C4.65337 0 3.68149 1.00566 3.68149 2.24023C3.68149 3.44648 4.65337 4.45742 5.89243 4.45742ZM1.62329 12.7146L7.94301 5.6955C7.33227 5.46816 6.65317 5.36523 5.89243 5.36523C3.0229 5.36523 1.33833 6.74804 1.33833 9.05839C1.33833 9.61405 1.35161 10.3578 1.4395 11.1193ZM10.1518 12.7146L10.3356 11.1193C10.4172 10.3578 10.4483 9.61405 10.4483 9.05839C10.4483 7.92753 10.0524 7.01503 9.28715 6.39374L4.30551 11.931C4.84458 11.8502 5.36313 11.8164 5.89243 11.8164C7.30278 11.8164 8.7184 12.0037 10.1518 12.7146ZM3.46997 20.1211C4.07251 20.0412 4.46469 19.6117 4.39106 18.8584L3.99516 15.2004L7.77817 15.2004L7.39204 18.8584C7.30864 19.6117 7.70259 20.0412 8.30864 20.1211C8.93422 20.1832 9.39653 19.7998 9.47993 19.074L9.99301 14.2689C8.69985 13.5189 7.26196 13.2287 5.89243 13.2287C4.51489 13.2287 3.07173 13.5189 1.78833 14.2689L2.29868 19.074C2.38032 19.7998 2.84263 20.1832 3.46997 20.1211ZM9.28715 6.38573L11.1645 4.29179C11.5194 3.90585 11.4901 3.47734 11.1432 3.20234C10.8256 2.92285 10.4219 2.91133 10.067 3.31855L7.94301 5.6955C8.4354 5.87831 8.89496 6.11523 9.28715 6.38573ZM0.343803 13.4777C-0.0595144 13.7703-0.0710378 14.2226 0.119586 14.5092C0.303179 14.8082 0.680131 14.9449 1.09536 14.6922C1.32876 14.5351 1.54165 14.3994 1.78833 14.2689L1.62329 12.7146C1.16275 12.9223 0.737748 13.1609 0.343803 13.4777ZM11.4348 13.4777C11.0391 13.1609 10.6221 12.9223 10.1518 12.7146L9.98676 14.2689C10.2334 14.3994 10.4481 14.5351 10.686 14.6922C11.0852 14.9449 11.4621 14.8162 11.6555 14.5252C11.8541 14.2306 11.8524 13.7783 11.4348 13.4777Z" fill="white" fill-opacity="0.85"/>
 </g>
</svg>
