<?xml version="1.0" encoding="UTF-8"?>
<!--Generator: Apple Native CoreSVG 341-->
<!DOCTYPE svg
PUBLIC "-//W3C//DTD SVG 1.1//EN"
       "http://www.w3.org/Graphics/SVG/1.1/DTD/svg11.dtd">
<svg version="1.1" xmlns="http://www.w3.org/2000/svg" xmlns:xlink="http://www.w3.org/1999/xlink" viewBox="0 0 21.3941 18.4297">
 <g>
  <rect height="18.4297" opacity="0" width="21.3941" x="0" y="0"/>
  <path d="M0.341095 8.46015L3.64773 11.7748C4.11805 12.2451 4.88738 12.2566 5.34793 11.6851L7.38211 9.17948C7.51355 9.02499 7.71258 9.10936 7.71258 9.2994L7.71258 13.5482L4.02644 13.1363C2.69715 12.9828 2.26238 14.9377 3.54461 15.3592L7.74461 16.7529C7.55887 17.6432 8.33894 18.3959 9.22644 18.1039L10.5173 17.684L11.8081 18.1039C12.6938 18.3959 13.4739 17.6432 13.2882 16.7529L17.4979 15.3592C18.7784 14.9377 18.3374 12.9828 17.0081 13.1363L13.3219 13.5482L13.3219 9.2994C13.3219 9.10936 13.529 9.0285 13.6524 9.17948L15.6866 11.6851C16.1454 12.2566 16.9147 12.2451 17.385 11.7748L20.6917 8.46015C21.1425 8.00136 21.1522 7.29413 20.6917 6.84511C20.2542 6.40058 19.5274 6.40234 19.0766 6.84511L16.668 9.2582L14.2089 6.24413C13.7882 5.73203 13.1553 5.40898 12.48 5.40898L8.56257 5.40898C7.87742 5.40898 7.25262 5.73203 6.8239 6.24413L4.36472 9.2582L1.95789 6.84511C1.50535 6.40234 0.778594 6.40058 0.341095 6.84511C-0.117693 7.29413-0.109686 8.00136 0.341095 8.46015ZM10.5173 4.38886C11.7225 4.38886 12.6979 3.40371 12.6979 2.18242C12.6979 0.977147 11.7225 0 10.5173 0C9.29597 0 8.31082 0.977147 8.31082 2.18242C8.31082 3.40371 9.29597 4.38886 10.5173 4.38886Z" fill="white" fill-opacity="0.85"/>
 </g>
</svg>
