<?xml version="1.0" encoding="UTF-8"?>
<!--Generator: Apple Native CoreSVG 341-->
<!DOCTYPE svg
PUBLIC "-//W3C//DTD SVG 1.1//EN"
       "http://www.w3.org/Graphics/SVG/1.1/DTD/svg11.dtd">
<svg version="1.1" xmlns="http://www.w3.org/2000/svg" xmlns:xlink="http://www.w3.org/1999/xlink" viewBox="0 0 20.5381 20.1848">
 <g>
  <rect height="20.1848" opacity="0" width="20.5381" x="0" y="0"/>
  <path d="M20.1767 10.0875C20.1767 15.6478 15.6576 20.175 10.0875 20.175C4.52715 20.175 0 15.6478 0 10.0875C0 4.51914 4.52715 0 10.0875 0C15.6576 0 20.1767 4.51914 20.1767 10.0875ZM10.3805 13.6926C10.3086 13.9029 10.3557 14.1391 10.5172 14.3006L12.6447 16.4184C12.8631 16.6527 13.2297 16.6527 13.4578 16.4184C13.6859 16.1902 13.6779 15.8236 13.4578 15.5973L11.6578 13.7742L12.3 12.5271C12.1012 12.5369 11.8881 12.5289 11.6555 12.5014L10.8717 12.3824ZM6.99101 6.47011C6.67499 6.47011 6.4078 6.73905 6.4078 7.04706C6.4078 7.3746 6.66523 7.64179 6.99101 7.64179L11.1359 7.64179C11.2994 7.64179 11.4025 7.76093 11.4025 7.90038L11.4025 10.4117L5.67948 10.4117C5.35194 10.4117 5.09276 10.6789 5.09276 11.0064C5.09276 11.3322 5.35194 11.5932 5.67948 11.5932L8.8246 11.5932L11.7256 12.0043C12.8301 12.1588 13.6193 11.674 13.6193 10.6246L13.6193 8.68066C13.6193 8.5873 13.7144 8.54999 13.782 8.62109L14.2893 9.14609L14.2893 11.0064C14.2893 11.3322 14.568 11.5932 14.876 11.5932C15.2035 11.5932 15.4654 11.3322 15.4654 11.0064L15.4654 8.88867C15.4654 8.73691 15.4166 8.59042 15.2879 8.47773L13.9098 7.11113C13.5014 6.69648 12.9695 6.47011 12.3809 6.47011ZM3.6871 7.33847C3.37636 7.63495 3.308 8.44199 4.02538 9.17089C4.74276 9.88652 5.55155 9.81015 5.86405 9.50566C6.15253 9.19316 6.18983 8.45097 5.46444 7.73183C4.74354 7.00644 3.98534 7.0162 3.6871 7.33847ZM10.3982 4.68808C10.3982 5.3664 10.9416 5.90175 11.6057 5.90175C12.2742 5.90175 12.8113 5.3664 12.8113 4.68808C12.8113 4.02577 12.2742 3.48866 11.6057 3.48866C10.9416 3.48866 10.3982 4.02577 10.3982 4.68808Z" fill="white" fill-opacity="0.85"/>
 </g>
</svg>
