<?xml version="1.0" encoding="UTF-8"?>
<!--Generator: Apple Native CoreSVG 341-->
<!DOCTYPE svg
PUBLIC "-//W3C//DTD SVG 1.1//EN"
       "http://www.w3.org/Graphics/SVG/1.1/DTD/svg11.dtd">
<svg version="1.1" xmlns="http://www.w3.org/2000/svg" xmlns:xlink="http://www.w3.org/1999/xlink" viewBox="0 0 20.5381 20.1848">
 <g>
  <rect height="20.1848" opacity="0" width="20.5381" x="0" y="0"/>
  <path d="M20.1767 10.0875C20.1767 15.6478 15.6576 20.175 10.0875 20.175C4.52715 20.175 0 15.6478 0 10.0875C0 4.51914 4.52715 0 10.0875 0C15.6576 0 20.1767 4.51914 20.1767 10.0875ZM10.2338 6.04784L7.85878 6.16327C7.56757 6.18105 7.31464 6.36659 7.2871 6.72343L7.1539 8.80488C7.14413 8.93007 7.17968 9.03124 7.24452 9.10937L3.72675 12.5508C3.59628 12.6893 3.58827 12.9031 3.71698 13.0478C3.84745 13.1721 4.08886 13.1783 4.22558 13.0398L8.1082 9.25312C8.20761 9.16347 8.26972 8.99921 8.27949 8.79687L8.35937 7.23202L9.71386 7.17519L8.6916 9.02695C8.35331 9.63691 8.50956 10.3135 9.13105 10.673L11.1514 11.8266L11.1514 14.5424C11.1514 14.5895 11.1514 14.6383 11.1691 14.6676L6.86874 14.6676L9.07753 12.6098C9.22226 12.473 9.26132 12.4029 9.32167 12.26L9.60956 11.5758L8.86035 11.1328C8.70761 11.0369 8.58691 10.965 8.48925 10.8496L8.22363 11.8748L5.92987 13.9953C5.69276 14.2111 5.68398 14.474 5.79062 14.6676L4.54276 14.6676C4.34042 14.6676 4.17011 14.8228 4.17011 15.0225C4.17011 15.2105 4.31913 15.4049 4.54276 15.4049L14.6055 15.4049C15.1533 15.4049 15.5119 15.2549 15.9053 15.0844C16.1014 14.9752 16.1652 14.7756 16.1014 14.6088C16.0312 14.434 15.8219 14.2902 15.5912 14.4207C15.2875 14.5689 15.0459 14.6676 14.6055 14.6676L12.2627 14.6676C12.2707 14.6383 12.2787 14.5895 12.2787 14.5424L12.2787 11.4617C12.2787 11.2922 12.2299 11.1812 12.0346 11.0232L10.5994 9.8705L11.6963 7.95917L13.4742 9.32148C13.7414 9.51054 14.0664 9.48651 14.3008 9.23886L14.975 8.49003L14.5674 13.7662C14.5559 13.957 14.7076 14.1363 14.8852 14.1541C15.076 14.1656 15.257 14.0254 15.2668 13.8168L15.7641 7.43378C15.8014 6.96952 15.1621 6.57284 14.7369 7.06464L13.8338 8.1205L12.2637 6.84257C11.7344 6.41093 11.1324 6.00253 10.2338 6.04784ZM11.0668 4.82069C11.0668 5.483 11.6137 6.02987 12.276 6.02987C12.9348 6.02987 13.4736 5.483 13.4736 4.82069C13.4736 4.15663 12.9348 3.61327 12.276 3.61327C11.6137 3.61327 11.0668 4.15663 11.0668 4.82069Z" fill="white" fill-opacity="0.85"/>
 </g>
</svg>
