<?xml version="1.0" encoding="UTF-8"?>
<!--Generator: Apple Native CoreSVG 341-->
<!DOCTYPE svg
PUBLIC "-//W3C//DTD SVG 1.1//EN"
       "http://www.w3.org/Graphics/SVG/1.1/DTD/svg11.dtd">
<svg version="1.1" xmlns="http://www.w3.org/2000/svg" xmlns:xlink="http://www.w3.org/1999/xlink" viewBox="0 0 20.5381 20.1848">
 <g>
  <rect height="20.1848" opacity="0" width="20.5381" x="0" y="0"/>
  <path d="M20.1767 10.0875C20.1767 15.6478 15.6576 20.175 10.0875 20.175C4.52715 20.175 0 15.6478 0 10.0875C0 4.51914 4.52715 0 10.0875 0C15.6576 0 20.1767 4.51914 20.1767 10.0875ZM10.7394 5.16991L10.1986 7.02499L5.41855 9.12421C5.09452 9.26894 4.97558 9.52636 5.03241 9.88769L5.36718 11.9025C5.48788 12.6598 6.53007 12.5035 6.41288 11.7561L6.13495 10.0279L7.26191 9.58476C7.41913 9.52968 7.57284 9.55273 7.63593 9.70644L8.67753 11.7746C9.00429 12.4006 9.2707 12.5924 9.52285 12.7824L12.9061 15.275C13.523 15.71 14.2492 14.8258 13.5559 14.3242L10.9266 12.3937C10.8119 12.2986 10.8119 12.1369 10.9541 12.0676L12.7346 11.041L15.0789 12.1555C15.7562 12.4812 16.3146 11.5217 15.5104 11.1311L13.0062 9.93046C12.699 9.79375 12.4078 9.8373 12.1504 9.9873L10.9658 10.6728C10.8236 10.7555 10.725 10.7217 10.6619 10.6053L9.71621 8.6748C9.63535 8.50956 9.65488 8.33632 9.83437 8.26347L10.7037 7.85585C10.9949 7.71913 11.1023 7.62773 11.1885 7.34804L11.7346 5.44511C11.9432 4.69315 10.9463 4.43222 10.7394 5.16991ZM5.98534 6.29687C5.98534 6.9832 6.53671 7.53984 7.2248 7.53984C7.91113 7.53984 8.46425 6.9832 8.46425 6.29687C8.46425 5.6123 7.91113 5.05741 7.2248 5.05741C6.53671 5.05741 5.98534 5.6123 5.98534 6.29687Z" fill="white" fill-opacity="0.85"/>
 </g>
</svg>
