<?xml version="1.0" encoding="UTF-8"?>
<!--Generator: Apple Native CoreSVG 341-->
<!DOCTYPE svg
PUBLIC "-//W3C//DTD SVG 1.1//EN"
       "http://www.w3.org/Graphics/SVG/1.1/DTD/svg11.dtd">
<svg version="1.1" xmlns="http://www.w3.org/2000/svg" xmlns:xlink="http://www.w3.org/1999/xlink" viewBox="0 0 20.5381 20.1848">
 <g>
  <rect height="20.1848" opacity="0" width="20.5381" x="0" y="0"/>
  <path d="M10.0875 20.175C15.6576 20.175 20.1767 15.6559 20.1767 10.0875C20.1767 4.51914 15.6576 0 10.0875 0C4.51914 0 0 4.51914 0 10.0875C0 15.6559 4.51914 20.175 10.0875 20.175ZM10.0875 18.1879C5.60839 18.1879 1.9871 14.5666 1.9871 10.0875C1.9871 5.60839 5.60839 1.9871 10.0875 1.9871C14.5666 1.9871 18.1897 5.60839 18.1897 10.0875C18.1897 14.5666 14.5666 18.1879 10.0875 18.1879Z" fill="white" fill-opacity="0.85"/>
  <path d="M7.11972 6.94765C7.72792 6.94765 8.21894 6.45487 8.21894 5.84843C8.21894 5.24648 7.72792 4.7537 7.11972 4.7537C6.50976 4.7537 6.01698 5.24648 6.01698 5.84843C6.01698 6.45487 6.50976 6.94765 7.11972 6.94765ZM13.4619 6.73183C14.0719 6.73183 14.5646 6.2373 14.5646 5.62909C14.5646 5.02089 14.0719 4.52987 13.4619 4.52987C12.8635 4.52987 12.3609 5.02089 12.3609 5.62909C12.3609 6.2373 12.8635 6.73183 13.4619 6.73183ZM4.07577 8.32109L5.17167 8.40722C5.24276 8.40722 5.29433 8.46054 5.29433 8.5414L5.29433 10.5502C5.29433 10.9551 5.42128 11.36 5.66991 11.6752L6.95937 13.335L6.30488 15.5258C6.21523 15.8205 6.38476 16.1365 6.67773 16.2227C6.95292 16.3025 7.27069 16.1738 7.36835 15.8498L8.1037 13.4004C8.12148 13.3551 8.12949 13.3213 8.12949 13.276L10.1082 15.7822C10.3018 16.0246 10.6586 16.0672 10.885 15.8781C11.1389 15.6811 11.1877 15.3375 10.9826 15.0916L7.40741 10.5644L7.56816 8.96679C7.57616 8.86191 7.68105 8.81386 7.7664 8.85741L9.00878 9.47285C9.09492 9.51992 9.25117 9.56074 9.37812 9.56074L11.3393 9.56074C11.4725 9.56074 11.5967 9.51992 11.7006 9.43202L12.6002 8.64433C12.6775 8.57499 12.7904 8.61054 12.8242 8.71367L13.3305 10.109L11.1893 10.6871C10.9709 10.7555 10.8031 10.9428 10.7756 11.1789L10.5402 13.5984C10.5012 13.9633 10.8172 14.2092 11.0941 14.2092C11.3773 14.2092 11.6232 14.0006 11.6445 13.7059L11.8488 11.7178L13.3057 11.4975L12.6066 12.9035C12.5187 13.0695 12.4717 13.2471 12.548 13.4148L13.5391 15.8906C13.666 16.2049 13.9998 16.3141 14.2652 16.2049C14.552 16.0895 14.6904 15.7619 14.5795 15.485L13.7012 13.2861L14.9107 11.5535C15.2162 11.1193 15.3352 10.5617 15.2393 10.0352L15.0572 8.99081C15.0314 8.87167 15.1346 8.79433 15.2492 8.82812L15.8727 9.03593C16.3059 9.17441 16.6494 8.91523 16.6006 8.47402L16.383 6.28573C16.352 5.96522 16.0705 5.74687 15.7723 5.78593C15.4758 5.80546 15.2352 6.08417 15.2725 6.39667L15.4084 7.70702L13.9402 7.21406C13.3275 7.01073 12.6607 7.12265 12.1617 7.55859L11.1307 8.44042L9.44023 8.44042L7.84355 7.6412C7.60292 7.51777 7.35429 7.45741 7.08437 7.42988L4.86229 7.26113L5.27538 6.02811C5.37304 5.71913 5.22479 5.41561 4.93007 5.30995C4.6371 5.22206 4.31933 5.38007 4.22167 5.66503L3.58222 7.58515C3.45526 7.93847 3.71093 8.29179 4.07577 8.32109Z" fill="white" fill-opacity="0.85"/>
 </g>
</svg>
