<?xml version="1.0" encoding="UTF-8"?>
<!--Generator: Apple Native CoreSVG 341-->
<!DOCTYPE svg
PUBLIC "-//W3C//DTD SVG 1.1//EN"
       "http://www.w3.org/Graphics/SVG/1.1/DTD/svg11.dtd">
<svg version="1.1" xmlns="http://www.w3.org/2000/svg" xmlns:xlink="http://www.w3.org/1999/xlink" viewBox="0 0 19.6286 20.5433">
 <g>
  <rect height="20.5433" opacity="0" width="19.6286" x="0" y="0"/>
  <path d="M16.5499 5.52656C18.0639 5.52656 19.2665 4.26895 19.2665 2.80899C19.2665 1.28692 18.0639 0.0603586 16.5499 0.0603586C15.0295 0.0603586 13.8163 1.28692 13.8163 2.80899C13.8163 4.30098 15.0295 5.52656 16.5499 5.52656ZM0.383273 19.9213C0.914717 20.4767 1.82429 20.4359 2.48444 19.7545L6.77858 15.3166C6.92584 15.1613 7.04029 15.1258 7.26569 15.2154L10.5715 16.4609C12.7301 17.2838 14.8461 16.5254 15.8196 14.7613L17.9307 10.9234C18.7774 9.37832 18.5032 7.80547 17.0387 7.01562C15.6213 6.2373 14.1516 6.81777 13.2854 8.39316L10.4948 13.4836L8.12916 12.6182C6.9153 12.1719 5.90202 12.3174 4.93132 13.3289L0.474679 17.9461C-0.173953 18.6098-0.111843 19.4279 0.383273 19.9213Z" fill="white" fill-opacity="0.85"/>
  <path d="M0.313737 6.40195C0.313737 7.85156 1.61003 9.2916 2.86315 9.2916C3.99225 9.2916 4.58151 8.30078 5.18756 6.54199L5.46959 6.49843L5.46959 8.35176C5.46959 9.18965 5.90709 9.6289 6.72721 9.6289C8.17057 9.6289 9.60885 8.34238 9.60885 7.08301C9.60885 5.94414 8.61627 5.36641 6.84772 4.75859L6.81393 4.47656L8.66901 4.47656C9.50338 4.47656 9.9399 4.04082 9.9399 3.22871C9.9399 1.78086 8.65338 0.332812 7.38873 0.332812C6.25788 0.332812 5.6819 1.33789 5.06608 3.10469L4.79205 3.13223L4.79205 1.27715C4.79205 0.449023 4.35456 0 3.54069 0C2.08483 0 0.644791 1.29629 0.644791 2.54941C0.644791 3.68828 1.65163 4.2625 3.42018 4.87207L3.43971 5.15234L1.5944 5.15234C0.764517 5.15234 0.313737 5.59785 0.313737 6.40195ZM5.12506 5.79765C4.5862 5.79765 4.14499 5.35644 4.14499 4.80957C4.14499 4.2707 4.5862 3.82949 5.12506 3.82949C5.66393 3.82949 6.10338 4.2707 6.10338 4.80957C6.10338 5.35644 5.66393 5.79765 5.12506 5.79765Z" fill="white" fill-opacity="0.85"/>
 </g>
</svg>
