<?xml version="1.0" encoding="UTF-8"?>
<!--Generator: Apple Native CoreSVG 341-->
<!DOCTYPE svg
PUBLIC "-//W3C//DTD SVG 1.1//EN"
       "http://www.w3.org/Graphics/SVG/1.1/DTD/svg11.dtd">
<svg version="1.1" xmlns="http://www.w3.org/2000/svg" xmlns:xlink="http://www.w3.org/1999/xlink" viewBox="0 0 22.9103 21.8168">
 <g>
  <rect height="21.8168" opacity="0" width="22.9103" x="0" y="0"/>
  <path d="M12.5381 4.38886C13.7434 4.38886 14.7285 3.3957 14.7285 2.19043C14.7285 0.985155 13.7434 0 12.5381 0C11.3328 0 10.3414 0.985155 10.3414 2.19043C10.3414 3.3957 11.3328 4.38886 12.5381 4.38886ZM15.3016 21.5834C15.7566 21.4174 16.1105 20.9578 15.9322 20.3234L14.4418 15.1207C14.3619 14.866 14.2182 14.6584 13.9715 14.5164L10.89 12.7062L12.3584 8.34648C12.4588 8.03554 12.7717 8.00175 13.0035 8.23183L15.2059 10.4244C15.4082 10.617 15.6566 10.7314 15.9246 10.7314C16.2006 10.7314 16.457 10.6365 16.6611 10.4244L19.634 7.44355C20.0262 7.03534 20.0537 6.40624 19.634 5.99277C19.2355 5.59257 18.5869 5.58105 18.1752 5.99277L15.9246 8.24335L14.0486 6.29902C13.1601 5.38124 12.2096 5.19218 10.3783 5.19218L1.04961 5.19218C0.484374 5.19218 0.0123042 5.65449 0.0123042 6.23124C0.0123042 6.79648 0.484374 7.25878 1.04961 7.25878L7.97714 7.25878C8.2498 7.25878 8.48359 7.46679 8.35566 7.83632L7.19902 11.2992C6.78632 12.5435 7.37031 13.8775 8.57382 14.3994L12.573 16.1598L13.9508 20.8594C14.1549 21.5773 14.7922 21.7574 15.3016 21.5834ZM2.69121 21.2275C2.96093 21.6109 3.48007 21.8115 4.0498 21.5027L8.48027 19.0482C8.70917 18.924 8.87421 18.7146 8.96386 18.4519L9.78437 16.018L8.18164 15.316C7.98554 15.2246 7.79922 15.1279 7.61816 15.0055L7.09336 17.4457L3.05156 19.7076C2.38965 20.0883 2.37539 20.7848 2.69121 21.2275ZM16.4182 13.0728L22.549 13.0728L22.549 11.8377L16.4182 11.8377C16.075 11.8377 15.8055 12.1072 15.8055 12.4504C15.8055 12.7953 16.075 13.0728 16.4182 13.0728ZM1.35117 5.63632L2.45 5.63632L2.45 4.16093L1.35117 4.16093ZM1.90547 0.34707C0.844921 0.34707 0 1.19551 0 2.26406C0 3.23144 0.843163 4.38964 1.90547 4.62578C2.96601 4.38964 3.80292 3.23144 3.80292 2.26406C3.80292 1.19551 2.96425 0.34707 1.90547 0.34707Z" fill="white" fill-opacity="0.85"/>
 </g>
</svg>
