<?xml version="1.0" encoding="UTF-8"?>
<!--Generator: Apple Native CoreSVG 341-->
<!DOCTYPE svg
PUBLIC "-//W3C//DTD SVG 1.1//EN"
       "http://www.w3.org/Graphics/SVG/1.1/DTD/svg11.dtd">
<svg version="1.1" xmlns="http://www.w3.org/2000/svg" xmlns:xlink="http://www.w3.org/1999/xlink" viewBox="0 0 19.2049 24.8137">
 <g>
  <rect height="24.8137" opacity="0" width="19.2049" x="0" y="0"/>
  <path d="M13.3467 4.39765C14.56 4.39765 15.5434 3.4125 15.5434 2.19922C15.5434 0.985936 14.56 0.0105464 13.3467 0.0105464C12.1334 0.0105464 11.1563 0.985936 11.1563 2.19922C11.1563 3.4125 12.1334 4.39765 13.3467 4.39765ZM6.47716 12.3033L10.1461 15.9918L10.1461 21.6873L12.2518 21.6873L12.2518 15.6795C12.2518 15.3777 12.1781 15.092 11.9758 14.8275L9.51759 11.7017L11.6074 8.49686C11.7318 8.31112 11.9932 8.31112 12.0901 8.52089L12.7869 9.92616C12.9697 10.2775 13.3309 10.5092 13.7293 10.5092L17.7967 10.5092C18.3717 10.5092 18.8438 10.0389 18.8438 9.45233C18.8438 8.87558 18.3717 8.40351 17.7967 8.40351L14.3779 8.40351L13.3233 6.26659C12.8945 5.4039 12.0053 4.85097 11.0254 4.85097L5.61759 4.85097C5.26974 4.85097 4.92638 5.02929 4.7338 5.3248L2.709 8.37401C2.3922 8.84608 2.52443 9.50272 3.00802 9.82304C3.48185 10.1514 4.13849 10.0156 4.46857 9.52401L6.18107 6.95663L7.77521 6.95663C7.89513 6.95663 7.96798 7.06327 7.89513 7.18144L6.21447 9.70468C5.6713 10.5123 5.78224 11.6084 6.47716 12.3033ZM0.368962 13.7973L4.34669 17.2814C5.00158 17.8609 5.73009 17.5539 6.04689 17.056L7.52716 14.7713L5.80021 13.0461C5.77892 13.015 5.75588 12.992 5.72482 12.9592L4.78419 14.8555L1.74611 12.2045C1.31486 11.8353 0.646695 11.8646 0.264274 12.3074C-0.124397 12.7484-0.080061 13.4148 0.368962 13.7973ZM5.41876 22.4797L12.2932 22.4797C13.4 22.4797 14.3221 22.2463 15.0348 21.6312C15.3637 21.3564 15.3416 20.9992 15.168 20.766C14.9836 20.5141 14.5986 20.3951 14.2447 20.6656C13.7307 21.0723 13.2014 21.2428 12.2932 21.2428L5.41876 21.2428C4.50255 21.2428 3.98302 21.0723 3.45919 20.6656C3.13107 20.4111 2.77814 20.498 2.58576 20.7162C2.36232 20.9494 2.32599 21.3324 2.66916 21.6312C3.38185 22.2463 4.30392 22.4797 5.41876 22.4797ZM5.41876 24.8137C5.90587 24.8137 6.31407 24.4135 6.31407 23.9264C6.31407 23.441 5.90587 23.031 5.41876 23.031C4.93341 23.031 4.52521 23.441 4.52521 23.9264C4.52521 24.4135 4.93341 24.8137 5.41876 24.8137ZM12.2932 24.8137C12.7785 24.8137 13.1787 24.4135 13.1787 23.9264C13.1787 23.441 12.7785 23.031 12.2932 23.031C11.8061 23.031 11.3979 23.441 11.3979 23.9264C11.3979 24.4135 11.8061 24.8137 12.2932 24.8137Z" fill="white" fill-opacity="0.85"/>
 </g>
</svg>
