<?xml version="1.0" encoding="UTF-8"?>
<!--Generator: Apple Native CoreSVG 341-->
<!DOCTYPE svg
PUBLIC "-//W3C//DTD SVG 1.1//EN"
       "http://www.w3.org/Graphics/SVG/1.1/DTD/svg11.dtd">
<svg version="1.1" xmlns="http://www.w3.org/2000/svg" xmlns:xlink="http://www.w3.org/1999/xlink" viewBox="0 0 24.7021 23.5845">
 <g>
  <rect height="23.5845" opacity="0" width="24.7021" x="0" y="0"/>
  <path d="M5.18835 7.04714C3.67605 7.04714 2.46375 5.78953 2.46375 4.32957C2.46375 2.8075 3.67605 1.58094 5.18835 1.58094C6.70867 1.58094 7.92195 2.8075 7.92195 4.32957C7.92195 5.82156 6.70867 7.04714 5.18835 7.04714ZM21.3549 21.4419C20.8155 21.9973 19.9077 21.9565 19.2555 21.2751L14.9516 16.8372C14.8044 16.6819 14.6979 16.6463 14.4743 16.736L11.1667 17.9815C9.00983 18.8044 6.89207 18.046 5.91863 16.2819L3.8075 12.444C2.96082 10.8989 3.23679 9.32604 4.69324 8.5362C6.11863 7.75788 7.58659 8.33835 8.4448 9.91374L11.2452 15.0042L13.601 14.1387C14.8149 13.6924 15.8362 13.838 16.8069 14.8495L21.2635 19.4667C21.9042 20.1303 21.8438 20.9485 21.3549 21.4419Z" fill="white" fill-opacity="0.85"/>
  <path d="M23.3038 4.57724L20.1266 1.39033C19.6217 0.877438 18.8667 1.17822 18.8356 1.89873L18.6278 5.30224C18.6065 5.78232 18.9038 6.0956 19.3919 6.0663L22.8069 5.87626C23.4946 5.83896 23.838 5.12646 23.3038 4.57724ZM23.4083 0.222949L20.1063 3.51689C19.809 3.81767 19.8171 4.31455 20.0965 4.59755C20.3973 4.89482 20.8862 4.89482 21.187 4.59755L24.4809 1.30361C24.7782 0.994822 24.7702 0.505956 24.4907 0.222949C24.1899-0.0743163 23.709-0.0743163 23.4083 0.222949ZM23.3038 10.5821C23.838 10.0329 23.4946 9.3204 22.8069 9.2831L19.3919 9.09306C18.9038 9.06376 18.6065 9.37704 18.6278 9.84911L18.8356 13.2526C18.8667 13.9811 19.6217 14.2819 20.1266 13.769ZM23.4083 14.9364C23.709 15.2337 24.1899 15.2337 24.4907 14.9364C24.7702 14.6534 24.7782 14.1565 24.4809 13.8558L21.187 10.5618C20.8862 10.2565 20.3973 10.2565 20.0965 10.5618C19.8171 10.8448 19.809 11.3337 20.1063 11.6345Z" fill="white" fill-opacity="0.85"/>
 </g>
</svg>
