<?xml version="1.0" encoding="UTF-8"?>
<!--Generator: Apple Native CoreSVG 341-->
<!DOCTYPE svg
PUBLIC "-//W3C//DTD SVG 1.1//EN"
       "http://www.w3.org/Graphics/SVG/1.1/DTD/svg11.dtd">
<svg version="1.1" xmlns="http://www.w3.org/2000/svg" xmlns:xlink="http://www.w3.org/1999/xlink" viewBox="0 0 20.5381 20.1848">
 <g>
  <rect height="20.1848" opacity="0" width="20.5381" x="0" y="0"/>
  <path d="M10.0875 20.175C15.6576 20.175 20.1767 15.6559 20.1767 10.0875C20.1767 4.51914 15.6576 0 10.0875 0C4.51914 0 0 4.51914 0 10.0875C0 15.6559 4.51914 20.175 10.0875 20.175ZM10.0875 18.1879C5.60839 18.1879 1.9871 14.5666 1.9871 10.0875C1.9871 5.60839 5.60839 1.9871 10.0875 1.9871C14.5666 1.9871 18.1897 5.60839 18.1897 10.0875C18.1897 14.5666 14.5666 18.1879 10.0875 18.1879Z" fill="white" fill-opacity="0.85"/>
  <path d="M9.12089 8.35995C9.75664 8.35995 10.2805 7.84765 10.2805 7.19237C10.2805 6.55487 9.75664 6.04081 9.12089 6.04081C8.47363 6.04081 7.96132 6.55487 7.96132 7.19237C7.96132 7.84765 8.47363 8.35995 9.12089 8.35995ZM6.68163 16.3617L9.16132 16.3617C9.50312 16.3617 9.66288 16.1939 9.71171 15.901L10.1762 13.3824L12.2803 13.3824L11.8664 15.6941C11.8043 16.0883 12.0537 16.3324 12.3387 16.3617C12.6103 16.383 12.9086 16.2623 12.9672 15.901L13.492 12.9687C13.5701 12.5568 13.3305 12.2932 13.0197 12.2621L11.1316 12.0543L11.2924 10.2726C11.3004 10.19 11.3635 10.135 11.4443 10.135L12.9594 10.135C13.2639 10.135 13.5195 9.87128 13.5195 9.56503L13.5195 6.5955C13.5195 6.36112 13.3811 6.15429 13.1662 6.0744C12.9594 5.99276 12.7232 6.02558 12.5635 6.19335L9.58593 9.16288C9.31601 9.44081 9.15175 9.76757 9.11445 10.1742L8.64824 15.2432L6.68163 15.2432C6.36737 15.2432 6.13124 15.4873 6.13124 15.8016C6.13124 16.1078 6.36737 16.3617 6.68163 16.3617ZM12.408 7.91308L12.408 9.01366L11.3074 9.01366ZM11.2859 6.29374L12.5324 7.40702L12.8465 7.06015L11.608 5.94862ZM8.28515 4.08866L11.0611 6.59823C11.2404 6.75976 11.4738 6.73046 11.6416 6.56093L11.9223 6.27675C12.0918 6.09745 12.0643 5.84628 11.8867 5.69804L9.09746 3.17694C8.91992 3.02518 8.67675 3.03495 8.51699 3.216L8.2541 3.51796C8.10585 3.69725 8.10585 3.92714 8.28515 4.08866Z" fill="white" fill-opacity="0.85"/>
 </g>
</svg>
