<?xml version="1.0" encoding="UTF-8"?>
<!--Generator: Apple Native CoreSVG 341-->
<!DOCTYPE svg
PUBLIC "-//W3C//DTD SVG 1.1//EN"
       "http://www.w3.org/Graphics/SVG/1.1/DTD/svg11.dtd">
<svg version="1.1" xmlns="http://www.w3.org/2000/svg" xmlns:xlink="http://www.w3.org/1999/xlink" viewBox="0 0 18.9607 17.8465">
 <g>
  <rect height="17.8465" opacity="0" width="18.9607" x="0" y="0"/>
  <path d="M6.16074 4.39394C7.38202 4.39394 8.35917 3.40878 8.35917 2.1955C8.35917 0.982224 7.38202 0.00683486 6.16074 0.00683486C4.94746 0.00683486 3.97207 0.982224 3.97207 2.1955C3.97207 3.40878 4.94746 4.39394 6.16074 4.39394ZM0.899803 11.9107C0.459569 13.5678 1.5166 14.6265 2.81328 14.6265C3.22421 14.6265 3.65644 14.5271 4.07539 14.299L9.41855 11.4557L15.3316 14.4144C16.0744 14.7818 16.6822 14.4846 16.9156 14.0027C17.1428 13.5324 17.0025 12.882 16.2873 12.5262L10.0779 9.40683C9.66171 9.19472 9.20468 9.1787 8.7707 9.36777L4.84277 11.0707L5.62597 8.33222C5.76894 7.85897 6.19433 7.52147 6.69511 7.52147L14.8451 7.52147C15.4281 7.52147 15.9002 7.0494 15.9002 6.46464C15.9002 5.88788 15.4281 5.40605 14.8451 5.40605L5.95214 5.40605C3.96211 5.40605 2.33515 6.5537 1.87539 8.28007ZM0.622458 17.8465L17.9769 17.8465C18.3201 17.8465 18.5994 17.5769 18.5994 17.232C18.5994 16.8889 18.3201 16.6096 17.9769 16.6096L0.622458 16.6096C0.26953 16.6096 0 16.8889 0 17.232C0 17.5769 0.26953 17.8465 0.622458 17.8465Z" fill="white" fill-opacity="0.85"/>
 </g>
</svg>
