<?xml version="1.0" encoding="UTF-8"?>
<!--Generator: Apple Native CoreSVG 341-->
<!DOCTYPE svg
PUBLIC "-//W3C//DTD SVG 1.1//EN"
       "http://www.w3.org/Graphics/SVG/1.1/DTD/svg11.dtd">
<svg version="1.1" xmlns="http://www.w3.org/2000/svg" xmlns:xlink="http://www.w3.org/1999/xlink" viewBox="0 0 22.4653 22.8644">
 <g>
  <rect height="22.8644" opacity="0" width="22.4653" x="0" y="0"/>
  <path d="M10.7311 4.37109C11.9444 4.37109 12.9278 3.37793 12.9278 2.19043C12.9278 0.977147 11.9444 0 10.7311 0C9.52583 0 8.54868 0.977147 8.54868 2.19043C8.54868 3.37793 9.52583 4.37109 10.7311 4.37109ZM3.0227 20.4258C2.47075 20.9777 2.59497 21.6556 3.00317 22.0248C3.37231 22.3531 4.01118 22.4232 4.52231 21.9139L8.27114 18.1668C8.36157 18.0764 8.39438 18.04 8.46625 17.9078L10.318 14.4324C10.5782 13.9334 11.2762 13.9174 11.7166 14.2441L15.9014 17.416L15.9014 21.7375C15.9014 22.4314 16.3327 22.8644 16.968 22.8644C17.6034 22.8644 18.0364 22.4314 18.0364 21.7375L18.0364 16.9031C18.0364 16.5943 17.9121 16.3264 17.6362 16.0814L12.9135 12.0281L12.9135 7.64257C12.9135 7.40546 13.0778 7.21542 13.3567 7.16835L21.2004 5.97616C21.7754 5.88476 22.1739 5.33105 22.0842 4.75429C21.9991 4.17929 21.4569 3.77734 20.8801 3.8705L5.27407 6.23359L5.27407 3.0789L3.15864 3.0789L3.15864 7.4873C3.15864 8.1537 3.70259 8.61522 4.37876 8.51229L7.7477 8.00272C8.03813 7.95565 8.25044 8.14042 8.25044 8.43261L8.25044 12.4017L6.62856 16.8182ZM3.45649 4.27909C4.63696 4.27909 5.92856 3.7332 6.69809 2.86952C6.97836 2.56171 6.97836 2.16074 6.69809 1.84316C5.92856 0.97949 4.63696 0.435349 3.45649 0.435349C2.28403 0.435349 0.990673 0.97949 0.214892 1.8414C-0.0716306 2.16074-0.0716306 2.56171 0.214892 2.88105C0.990673 3.7332 2.28403 4.27909 3.45649 4.27909Z" fill="white" fill-opacity="0.85"/>
 </g>
</svg>
