<?xml version="1.0" encoding="UTF-8"?>
<!--Generator: Apple Native CoreSVG 341-->
<!DOCTYPE svg
PUBLIC "-//W3C//DTD SVG 1.1//EN"
       "http://www.w3.org/Graphics/SVG/1.1/DTD/svg11.dtd">
<svg version="1.1" xmlns="http://www.w3.org/2000/svg" xmlns:xlink="http://www.w3.org/1999/xlink" viewBox="0 0 21.0023 18.7605">
 <g>
  <rect height="18.7605" opacity="0" width="21.0023" x="0" y="0"/>
  <path d="M2.77324 18.741L17.8695 18.741C19.5736 18.741 20.641 17.5166 20.641 15.982C20.641 15.509 20.506 15.0164 20.2531 14.5709L12.6943 1.39238C12.1637 0.465038 11.2576 0 10.3223 0C9.38515 0 8.46582 0.468554 7.94668 1.39238L0.38789 14.5727C0.120703 15.0244 0 15.509 0 15.982C0 17.5166 1.06738 18.741 2.77324 18.741ZM2.93944 16.902C2.3244 16.902 1.95291 16.4256 1.95291 15.8861C1.95291 15.7217 1.9867 15.5084 2.08182 15.3244L9.47441 2.40526C9.65663 2.08084 9.99609 1.94217 10.3223 1.94217C10.6467 1.94217 10.9746 2.0826 11.1586 2.40702L18.5529 15.3377C18.6481 15.5199 18.6899 15.7234 18.6899 15.8861C18.6899 16.4256 18.3024 16.902 17.6953 16.902Z" fill="white" fill-opacity="0.85"/>
  <path d="M7.95566 15.4566L9.46093 13.6742C9.6039 13.5002 9.63144 13.4514 9.68027 13.2826L9.77988 12.9723L8.96035 11.9414L8.72675 13.043L7.24804 14.8076C6.75527 15.3785 7.54902 15.9432 7.95566 15.4566ZM11.5908 15.3234C11.9016 15.9512 12.8498 15.5641 12.5053 14.876L11.484 12.7996C11.4174 12.6469 11.2975 12.4879 11.2158 12.3432L10.5701 11.4248L10.5977 11.2986C10.7887 10.7836 10.841 10.4719 10.8801 9.9541L10.9822 8.51542C11.0391 7.80683 10.6084 7.29179 9.90332 7.29179C9.37851 7.29179 9.02597 7.56171 8.52597 8.03593L7.76757 8.78281C7.51269 9.03593 7.43456 9.23574 7.40703 9.56249L7.31913 10.7508C7.29785 11.0455 7.47538 11.2603 7.74706 11.2684C8.04003 11.2994 8.20781 11.1299 8.23535 10.8031L8.34726 9.51269L8.70351 9.20351C8.81992 9.08886 8.99765 9.1582 8.98164 9.28788L8.90703 10.3662C8.85996 10.9213 8.98964 11.1992 9.375 11.6707L10.3848 12.9353C10.4869 13.065 10.5047 13.1121 10.5437 13.1902ZM13.3482 9.24999L12.1945 9.24999L11.4803 8.46288L11.3924 9.68632L11.6592 9.95136C11.8234 10.1041 11.9682 10.1644 12.2639 10.1644L13.3482 10.1644C13.6492 10.1644 13.848 9.99492 13.848 9.70722C13.848 9.42577 13.6492 9.24999 13.3482 9.24999ZM10.484 6.83788C11.0656 6.83788 11.5434 6.36015 11.5434 5.78475C11.5434 5.19511 11.0656 4.72538 10.484 4.72538C9.89257 4.72538 9.41484 5.19511 9.41484 5.78475C9.41484 6.36015 9.89257 6.83788 10.484 6.83788Z" fill="white" fill-opacity="0.85"/>
 </g>
</svg>
