<?xml version="1.0" encoding="UTF-8"?>
<!--Generator: Apple Native CoreSVG 341-->
<!DOCTYPE svg
PUBLIC "-//W3C//DTD SVG 1.1//EN"
       "http://www.w3.org/Graphics/SVG/1.1/DTD/svg11.dtd">
<svg version="1.1" xmlns="http://www.w3.org/2000/svg" xmlns:xlink="http://www.w3.org/1999/xlink" viewBox="0 0 20.5381 20.1848">
 <g>
  <rect height="20.1848" opacity="0" width="20.5381" x="0" y="0"/>
  <path d="M20.1767 10.0875C20.1767 15.6478 15.6576 20.175 10.0875 20.175C4.52715 20.175 0 15.6478 0 10.0875C0 4.51914 4.52715 0 10.0875 0C15.6576 0 20.1767 4.51914 20.1767 10.0875ZM9.00331 7.99999C8.62421 7.99999 8.27441 8.17753 8.04003 8.45722L6.67421 10.1223L5.34569 8.79199C5.09804 8.53984 4.69237 8.53984 4.45624 8.79199C4.19882 9.0414 4.20683 9.42753 4.45624 9.67519L6.28808 11.515C6.54374 11.7725 6.96269 11.7742 7.22812 11.46L8.35253 10.0754C8.41913 9.99101 8.53378 10.0301 8.53378 10.1385L8.53378 12.5037L6.49218 12.2666C5.76249 12.1902 5.52284 13.2687 6.22675 13.4871L8.5498 14.2588C8.44667 14.7551 8.87636 15.1662 9.36464 15.018L10.0875 14.7809L10.7943 15.018C11.2906 15.1662 11.7105 14.7551 11.6074 14.2588L13.9385 13.4871C14.6424 13.2687 14.4125 12.1902 13.665 12.2666L11.6314 12.5037L11.6314 10.1385C11.6314 10.0301 11.7398 9.99277 11.8047 10.0754L12.9469 11.46C13.1963 11.7742 13.6232 11.7725 13.8789 11.515L15.7027 9.67519C15.9486 9.42753 15.9566 9.0414 15.7027 8.79199C15.4648 8.53984 15.0609 8.53984 14.8133 8.79199L13.4848 10.1223L12.1172 8.45722C11.8926 8.17753 11.541 7.99999 11.1619 7.99999ZM8.86406 6.20995C8.86406 6.89003 9.40742 7.42538 10.0875 7.42538C10.7498 7.42538 11.2949 6.89003 11.2949 6.20995C11.2949 5.54941 10.7498 5.00253 10.0875 5.00253C9.40742 5.00253 8.86406 5.54941 8.86406 6.20995Z" fill="white" fill-opacity="0.85"/>
 </g>
</svg>
