<?xml version="1.0" encoding="UTF-8"?>
<!--Generator: Apple Native CoreSVG 341-->
<!DOCTYPE svg
PUBLIC "-//W3C//DTD SVG 1.1//EN"
       "http://www.w3.org/Graphics/SVG/1.1/DTD/svg11.dtd">
<svg version="1.1" xmlns="http://www.w3.org/2000/svg" xmlns:xlink="http://www.w3.org/1999/xlink" viewBox="0 0 20.5381 20.1848">
 <g>
  <rect height="20.1848" opacity="0" width="20.5381" x="0" y="0"/>
  <path d="M20.1767 10.0875C20.1767 15.6478 15.6576 20.175 10.0875 20.175C4.52715 20.175 0 15.6478 0 10.0875C0 4.51914 4.52715 0 10.0875 0C15.6576 0 20.1767 4.51914 20.1767 10.0875ZM9.82226 7.2082L8.94765 8.07304C8.6582 8.34921 8.56855 8.59511 8.54101 8.95996L8.44511 10.2764C8.44335 10.3402 8.44335 10.3998 8.44335 10.4504L7.23925 12.1598L6.90507 11.9225C6.58202 11.7086 6.26523 11.7645 6.04511 12.068L4.5621 14.2055C4.33671 14.5268 4.39081 14.8383 4.71386 15.0557L5.87363 15.8629C6.18515 16.0945 6.50195 16.0307 6.73359 15.7209L8.2166 13.5994C8.43847 13.2799 8.37011 12.9711 8.05507 12.7332L7.8248 12.5705L8.9705 10.9461C9.28574 10.9363 9.45703 10.7518 9.49433 10.3984L9.62128 8.90839L10.0246 8.55038C10.1703 8.41445 10.3631 8.4998 10.3533 8.65429L10.2574 9.88789C10.2103 10.5219 10.3613 10.8344 10.7928 11.391L11.9631 12.8428C12.0768 12.9857 12.0883 13.0488 12.1371 13.1385L13.3367 15.5785C13.7033 16.3117 14.8014 15.8652 14.3957 15.0654L13.2334 12.684C13.1375 12.51 13.0238 12.3262 12.9146 12.1584L12.1607 11.1088L12.2221 10.9666C12.4201 10.3709 12.4937 10.0006 12.5408 9.41542L12.6465 7.75859C12.7051 6.94804 12.2328 6.34609 11.4115 6.34609C10.8016 6.34609 10.3879 6.66835 9.82226 7.2082ZM10.0496 12.9699L8.35097 14.9838C7.78906 15.6451 8.6998 16.302 9.17206 15.7543L10.8955 13.6978C11.0598 13.4865 11.0891 13.4342 11.1557 13.2406L11.2668 12.8867L10.3285 11.7008ZM13.1187 9.11835L13.4166 9.41269C13.6137 9.59648 13.7699 9.65859 14.1197 9.65859L15.3584 9.65859C15.7152 9.65859 15.9451 9.46601 15.9451 9.13046C15.9451 8.81269 15.7135 8.59785 15.3584 8.59785L14.0326 8.59785L13.2297 7.69101ZM10.8459 4.62714C10.8459 5.29745 11.4008 5.83632 12.0711 5.83632C12.7449 5.83632 13.298 5.29745 13.298 4.62714C13.298 3.93906 12.7449 3.40195 12.0711 3.40195C11.4008 3.40195 10.8459 3.93906 10.8459 4.62714Z" fill="white" fill-opacity="0.85"/>
 </g>
</svg>
