<?xml version="1.0" encoding="UTF-8"?>
<!--Generator: Apple Native CoreSVG 341-->
<!DOCTYPE svg
PUBLIC "-//W3C//DTD SVG 1.1//EN"
       "http://www.w3.org/Graphics/SVG/1.1/DTD/svg11.dtd">
<svg version="1.1" xmlns="http://www.w3.org/2000/svg" xmlns:xlink="http://www.w3.org/1999/xlink" viewBox="0 0 20.8359 22.0816">
 <g>
  <rect height="22.0816" opacity="0" width="20.8359" x="0" y="0"/>
  <path d="M13.9299 4.3871C15.1432 4.3871 16.1105 3.41172 16.1105 2.19043C16.1105 0.977147 15.1432 0 13.9299 0C12.7068 0 11.7234 0.977147 11.7234 2.19043C11.7234 3.41172 12.7068 4.3871 13.9299 4.3871ZM7.18808 22.0754C7.76308 22.0754 8.25292 21.6015 8.25292 21.015L8.25292 11.7818C10.5041 11.4064 12.4553 9.91073 13.3918 7.87616C13.4664 7.68339 13.6709 7.59628 14.0527 7.72948L19.0486 9.40897C19.7656 9.64589 20.259 9.24843 20.4142 8.74882C20.5775 8.23945 20.393 7.61035 19.7248 7.39472L4.76191 2.40058C4.04668 2.15742 3.54004 2.55937 3.38828 3.05898C3.22324 3.56835 3.41933 4.18769 4.08398 4.41308L9.46601 6.20976C9.69257 6.29237 9.80546 6.55019 9.658 6.79003C9.08984 7.68222 8.2623 8.21406 7.18808 8.21406L2.12695 8.21406L2.12695 3.12988C2.12695 2.50429 1.70195 2.0748 1.05859 2.0748C0.423241 2.0748 0 2.50429 0 3.12988L0 9.19101C0 9.88495 0.351366 10.215 0.883787 10.3064L5.37578 11.0521L6.12949 15.482L6.12949 21.015C6.12949 21.6015 6.60156 22.0754 7.18808 22.0754Z" fill="white" fill-opacity="0.85"/>
 </g>
</svg>
