<?xml version="1.0" encoding="UTF-8"?>
<!--Generator: Apple Native CoreSVG 341-->
<!DOCTYPE svg
PUBLIC "-//W3C//DTD SVG 1.1//EN"
       "http://www.w3.org/Graphics/SVG/1.1/DTD/svg11.dtd">
<svg version="1.1" xmlns="http://www.w3.org/2000/svg" xmlns:xlink="http://www.w3.org/1999/xlink" viewBox="0 0 22.9838 21.4537">
 <g>
  <rect height="21.4537" opacity="0" width="22.9838" x="0" y="0"/>
  <path d="M18.2275 5.98176C19.7318 5.98176 20.9441 4.72414 20.9441 3.26418C20.9441 1.74212 19.7318 0.515555 18.2275 0.515555C16.6991 0.515555 15.4939 1.74212 15.4939 3.26418C15.4939 4.75618 16.6991 5.98176 18.2275 5.98176ZM2.05286 20.3765C2.59232 20.9319 3.50188 20.8911 4.16028 20.2097L8.45618 15.7718C8.60344 15.6165 8.70989 15.581 8.94153 15.6706L12.2491 16.9161C14.398 17.739 16.5237 16.9806 17.4892 15.2165L19.6003 11.3786C20.447 9.83351 20.179 8.26066 18.7146 7.47082C17.2972 6.6925 15.8212 7.27297 14.963 8.84836L12.1706 13.9388L9.80676 13.0734C8.59289 12.6271 7.57161 12.7726 6.60091 13.7841L2.14427 18.4013C1.50365 19.0649 1.564 19.8831 2.05286 20.3765Z" fill="white" fill-opacity="0.85"/>
  <path d="M4.07298 4.12571L4.32259 4.66399L2.42805 6.68547L0.733524 7.51633C0.0405565 7.84992-0.142256 8.52863 0.104423 9.0548C0.351103 9.58898 0.973953 9.93312 1.77336 9.54719L3.18118 8.87258L6.21028 8.70656L6.50071 9.32824C6.66301 9.68215 7.0843 9.83644 7.43996 9.67238C7.79387 9.51184 7.94289 9.08879 7.78234 8.74465L5.35461 3.52883C5.19231 3.18294 4.77278 3.03216 4.41711 3.19446C4.06145 3.35501 3.90891 3.77981 4.07298 4.12571ZM7.5798 3.88586L10.4177 2.63606C10.8124 2.46399 10.8896 2.03919 10.4931 1.76419L8.10168 0.115749C7.75578-0.137961 7.33977 0.0438744 7.28391 0.481178L6.88977 3.35012C6.8259 3.81848 7.16555 4.0677 7.5798 3.88586ZM8.78293 6.47864C8.38996 6.65071 8.32961 7.08078 8.73059 7.36203L11.114 9.01047C11.4679 9.25441 11.8679 9.06105 11.93 8.63527L12.3321 5.76633C12.3943 5.27844 12.0448 5.05051 11.6323 5.23059Z" fill="white" fill-opacity="0.85"/>
 </g>
</svg>
