<?xml version="1.0" encoding="UTF-8"?>
<!--Generator: Apple Native CoreSVG 341-->
<!DOCTYPE svg
PUBLIC "-//W3C//DTD SVG 1.1//EN"
       "http://www.w3.org/Graphics/SVG/1.1/DTD/svg11.dtd">
<svg version="1.1" xmlns="http://www.w3.org/2000/svg" xmlns:xlink="http://www.w3.org/1999/xlink" viewBox="0 0 20.5381 20.1848">
 <g>
  <rect height="20.1848" opacity="0" width="20.5381" x="0" y="0"/>
  <path d="M10.0875 20.175C15.6576 20.175 20.1767 15.6559 20.1767 10.0875C20.1767 4.51914 15.6576 0 10.0875 0C4.51914 0 0 4.51914 0 10.0875C0 15.6559 4.51914 20.175 10.0875 20.175ZM10.0875 18.1879C5.60839 18.1879 1.9871 14.5666 1.9871 10.0875C1.9871 5.60839 5.60839 1.9871 10.0875 1.9871C14.5666 1.9871 18.1897 5.60839 18.1897 10.0875C18.1897 14.5666 14.5666 18.1879 10.0875 18.1879Z" fill="white" fill-opacity="0.85"/>
  <path d="M7.76718 15.6518L9.42597 13.6715C9.58222 13.4779 9.60976 13.4256 9.67011 13.2275L9.77773 12.9029L8.87929 11.7541L8.61015 12.9746L6.97441 14.9176C6.43554 15.5523 7.30995 16.1826 7.76718 15.6518ZM11.775 15.4875C12.1266 16.1906 13.175 15.7592 12.7941 14.9877L11.6699 12.702C11.5838 12.5377 11.4701 12.3494 11.3609 12.2012L10.6451 11.1799L10.6887 11.0439C10.885 10.4686 10.9631 10.1258 10.9941 9.5539L11.1078 7.96796C11.1584 7.18574 10.7092 6.61034 9.9207 6.61034C9.33378 6.61034 8.93867 6.91132 8.39609 7.43437L7.55429 8.26288C7.27636 8.53906 7.18046 8.76992 7.16093 9.12148L7.06327 10.4357C7.03398 10.7713 7.22304 11.0057 7.53554 11.0154C7.85156 11.0465 8.04062 10.8557 8.07792 10.4978L8.19159 9.06367L8.58515 8.72343C8.72109 8.59902 8.9121 8.66835 8.90234 8.82734L8.80996 10.0166C8.76113 10.616 8.91035 10.925 9.32851 11.4586L10.451 12.859C10.5549 12.9922 10.5762 13.0473 10.6215 13.1432ZM13.7205 8.77441L12.4426 8.77441L11.66 7.90741L11.5703 9.27187L11.8531 9.55468C12.0387 9.7332 12.1949 9.7873 12.5234 9.7873L13.7205 9.7873C14.0561 9.7873 14.2744 9.59648 14.2744 9.28398C14.2744 8.97148 14.0561 8.77441 13.7205 8.77441ZM10.5572 6.12011C11.2027 6.12011 11.7248 5.59003 11.7248 4.94452C11.7248 4.29901 11.2027 3.77694 10.5572 3.77694C9.90195 3.77694 9.37988 4.29901 9.37988 4.94452C9.37988 5.59003 9.90195 6.12011 10.5572 6.12011Z" fill="white" fill-opacity="0.85"/>
 </g>
</svg>
