<?xml version="1.0" encoding="UTF-8"?>
<!--Generator: Apple Native CoreSVG 341-->
<!DOCTYPE svg
PUBLIC "-//W3C//DTD SVG 1.1//EN"
       "http://www.w3.org/Graphics/SVG/1.1/DTD/svg11.dtd">
<svg version="1.1" xmlns="http://www.w3.org/2000/svg" xmlns:xlink="http://www.w3.org/1999/xlink" viewBox="0 0 16.9674 25.2211">
 <g>
  <rect height="25.2211" opacity="0" width="16.9674" x="0" y="0"/>
  <path d="M5.74824 8.06543C6.95175 8.06543 7.94492 7.08027 7.94492 5.85898C7.94492 4.65371 6.95175 3.67832 5.74824 3.67832C4.53496 3.67832 3.55781 4.65371 3.55781 5.85898C3.55781 7.08027 4.53496 8.06543 5.74824 8.06543ZM0 12.9021C0 13.706 0.834959 14.0867 1.48183 13.7601L4.90683 12.0361C5.06757 11.95 5.24082 12.0389 5.27988 12.2076L6.27597 16.1973L4.70996 20.107L1.01777 20.107C0.464061 20.107 0 20.5578 0 21.1168C0 21.6723 0.464061 22.123 1.01777 22.123L5.34082 22.123C5.80136 22.123 6.09238 21.9349 6.31601 21.5285L8.37675 17.7195L9.50722 20.7051L5.80175 23.1926C5.34121 23.5014 5.20547 24.1482 5.51601 24.5928C5.82304 25.0435 6.41132 25.1988 6.91445 24.8625L11.3271 21.9287C11.675 21.7051 11.8418 21.3617 11.6883 20.7512L9.08027 10.3377C9.02519 10.1369 9.08202 9.95741 9.30683 9.84101L16.0408 6.47402C16.5457 6.23535 16.7498 5.62128 16.4933 5.1164C16.2369 4.61152 15.6389 4.41719 15.134 4.66386L2.02929 11.218L2.02929 7.99589C2.02929 7.44218 1.583 6.98965 1.01777 6.98965C0.464061 6.98965 0 7.44218 0 7.99589ZM13.6514 3.9041C14.7314 3.9041 15.5994 3.03437 15.5994 1.95605C15.5994 0.885741 14.7314 0 13.6514 0C12.565 0 11.6971 0.885741 11.6971 1.95605C11.6971 3.03437 12.565 3.9041 13.6514 3.9041Z" fill="white" fill-opacity="0.85"/>
 </g>
</svg>
