<?xml version="1.0" encoding="UTF-8"?>
<!--Generator: Apple Native CoreSVG 341-->
<!DOCTYPE svg
PUBLIC "-//W3C//DTD SVG 1.1//EN"
       "http://www.w3.org/Graphics/SVG/1.1/DTD/svg11.dtd">
<svg version="1.1" xmlns="http://www.w3.org/2000/svg" xmlns:xlink="http://www.w3.org/1999/xlink" viewBox="0 0 16.0203 23.3031">
 <g>
  <rect height="23.3031" opacity="0" width="16.0203" x="0" y="0"/>
  <path d="M13.3508 4.38886C14.5561 4.38886 15.5412 3.40371 15.5412 2.18242C15.5412 0.977147 14.5561 0 13.3508 0C12.1295 0 11.1461 0.977147 11.1461 2.18242C11.1461 3.40371 12.1295 4.38886 13.3508 4.38886ZM8.37384 19.6814C8.96036 19.6814 9.45196 19.1978 9.45196 18.6228L9.45196 13.4512C9.45196 13.1965 9.35704 12.9693 9.20353 12.783L6.8715 9.92011C6.73907 9.75214 6.78263 9.57441 6.94083 9.4873L9.7754 8.01542C9.96115 7.91679 10.1451 7.98612 10.1807 8.2039L10.4266 9.94296C10.4807 10.3414 10.7078 10.6191 11.1303 10.8232L13.9336 12.2338C14.727 12.6305 15.3455 12.3074 15.5451 11.8096C15.7465 11.3375 15.5965 10.7146 14.9479 10.3828L12.4488 9.11152L12.0484 6.14999C11.8301 4.53378 10.0391 3.53886 8.33849 4.4291L4.6342 6.36601C2.9008 7.26953 2.66916 9.24609 3.95431 10.5375L7.33654 13.9002L7.33654 18.6228C7.33654 19.1978 7.80861 19.6814 8.37384 19.6814ZM0.467205 13.3719C0.860368 14.0783 1.59962 14.2939 2.3256 14.1324L4.45783 13.6601C4.77189 13.5963 4.97501 13.3603 4.97501 13.0267C4.97501 12.6994 4.74259 12.4652 4.43478 12.4111L0.794351 11.7808C0.146697 11.6664-0.190412 12.1969 0.112127 12.7318ZM2.13928 13.4045L4.80412 21.3279L6.02247 20.9041L3.39044 13.0267ZM8.3463 23.2578C10.5838 23.2578 12.3277 21.4846 12.3277 19.2861C12.3277 17.7658 11.4775 16.4541 10.2262 15.7805L10.2262 17.4791C10.6893 17.933 10.9569 18.5754 10.9569 19.2861C10.9569 20.7334 9.80333 21.8869 8.3463 21.8869C6.93283 21.8869 5.75177 20.7041 5.75177 19.2861C5.75177 18.5639 6.05841 17.8984 6.54455 17.4312L6.54455 15.7609C5.27189 16.4018 4.38264 17.7463 4.38264 19.2861C4.38264 21.4846 6.17716 23.2578 8.3463 23.2578ZM10.6569 21.0185L11.8947 21.4371L14.369 13.9285C14.4807 13.5969 14.3068 13.2139 13.9797 13.1137C13.617 13.0037 13.2863 13.1961 13.1701 13.5242ZM2.89885 22.3205C2.45451 22.6105 2.58928 23.2818 3.11427 23.2818L13.5863 23.2818C14.1033 23.2818 14.2346 22.5945 13.8098 22.3205L11.4656 20.7867L9.35665 22.2451L7.35372 22.2451L5.22697 20.7867Z" fill="white" fill-opacity="0.85"/>
 </g>
</svg>
