<?xml version="1.0" encoding="UTF-8"?>
<!--Generator: Apple Native CoreSVG 341-->
<!DOCTYPE svg
PUBLIC "-//W3C//DTD SVG 1.1//EN"
       "http://www.w3.org/Graphics/SVG/1.1/DTD/svg11.dtd">
<svg version="1.1" xmlns="http://www.w3.org/2000/svg" xmlns:xlink="http://www.w3.org/1999/xlink" viewBox="0 0 21.0023 18.7605">
 <g>
  <rect height="18.7605" opacity="0" width="21.0023" x="0" y="0"/>
  <path d="M12.6943 1.39238L20.2531 14.5709C20.506 15.0164 20.641 15.509 20.641 15.982C20.641 17.5166 19.5736 18.741 17.8695 18.741L2.77324 18.741C1.06738 18.741 0 17.5166 0 15.982C0 15.509 0.120703 15.0244 0.38789 14.5727L7.94668 1.39238C8.46582 0.468554 9.38515 0 10.3223 0C11.2576 0 12.1637 0.465038 12.6943 1.39238ZM8.45332 7.95351L7.66386 8.72519C7.39746 8.98984 7.31933 9.20117 7.29003 9.53945L7.20039 10.7738C7.1791 11.0801 7.36015 11.2984 7.64335 11.3064C7.94785 11.3455 8.12539 11.1662 8.15468 10.8279L8.26835 9.48964L8.63261 9.1707C8.76054 9.04628 8.93828 9.12363 8.92226 9.25507L8.84765 10.376C8.80058 10.9461 8.93027 11.2355 9.3289 11.7301L10.383 13.0426C10.4869 13.1723 10.5047 13.2273 10.5437 13.3072L11.6352 15.5193C11.9574 16.1736 12.9437 15.7732 12.5842 15.0523L11.5221 12.9033C11.4537 12.7391 11.332 12.5721 11.2406 12.4256L10.5719 11.4727L10.5994 11.3465C10.802 10.8084 10.8543 10.4834 10.8951 9.94257L11.0053 8.44804C11.0621 7.71464 10.6119 7.17655 9.88027 7.17655C9.33242 7.17655 8.96836 7.45976 8.45332 7.95351ZM8.65761 13.1502L7.12128 14.9822C6.61347 15.5762 7.43554 16.1656 7.86347 15.6561L9.42461 13.8045C9.57109 13.6305 9.59863 13.5781 9.64746 13.3996L9.75507 13.0812L8.90097 12.0141ZM11.4305 9.66855L11.7053 9.9416C11.8695 10.1041 12.0258 10.1662 12.333 10.1662L13.452 10.1662C13.7662 10.1662 13.9766 9.98339 13.9766 9.68593C13.9766 9.39296 13.7662 9.21367 13.452 9.21367L12.2637 9.21367L11.5184 8.39374ZM9.37851 5.61991C9.37851 6.21034 9.86953 6.70937 10.4875 6.70937C11.0904 6.70937 11.5832 6.21034 11.5832 5.61991C11.5832 5.00546 11.0904 4.5162 10.4875 4.5162C9.86953 4.5162 9.37851 5.00546 9.37851 5.61991Z" fill="white" fill-opacity="0.85"/>
 </g>
</svg>
