<?xml version="1.0" encoding="UTF-8"?>
<!--Generator: Apple Native CoreSVG 341-->
<!DOCTYPE svg
PUBLIC "-//W3C//DTD SVG 1.1//EN"
       "http://www.w3.org/Graphics/SVG/1.1/DTD/svg11.dtd">
<svg version="1.1" xmlns="http://www.w3.org/2000/svg" xmlns:xlink="http://www.w3.org/1999/xlink" viewBox="0 0 19.6286 20.4226">
 <g>
  <rect height="20.4226" opacity="0" width="19.6286" x="0" y="0"/>
  <path d="M16.5499 5.4662C18.0639 5.4662 19.2665 4.20859 19.2665 2.74863C19.2665 1.22656 18.0639 0 16.5499 0C15.0295 0 13.8163 1.22656 13.8163 2.74863C13.8163 4.24062 15.0295 5.4662 16.5499 5.4662ZM0.383273 19.8609C0.914717 20.4164 1.82429 20.3756 2.48444 19.6941L6.77858 15.2562C6.92584 15.101 7.04029 15.0654 7.26569 15.1551L10.5715 16.4006C12.7301 17.2234 14.8461 16.465 15.8196 14.701L17.9307 10.8631C18.7774 9.31796 18.5032 7.74511 17.0387 6.95526C15.6213 6.17694 14.1516 6.75741 13.2854 8.3328L10.4948 13.4232L8.12916 12.5578C6.9153 12.1115 5.90202 12.257 4.93132 13.2685L0.474679 17.8857C-0.173953 18.5494-0.111843 19.3676 0.383273 19.8609Z" fill="white" fill-opacity="0.85"/>
  <path d="M5.3698 8.87538C5.3698 9.68925 6.20144 10.0514 6.81296 9.49843L9.78776 6.85663C10.1952 6.49628 10.2032 6.00273 9.78776 5.63261L6.81296 2.98281C6.23249 2.46093 5.3698 2.75117 5.3698 3.61386ZM0.911005 5.33222C0.405343 5.33222 0.0106173 5.73496 0.0106173 6.23261C0.0106173 6.74003 0.405343 7.13476 0.911005 7.13476L7.33367 7.13476C7.83933 7.13476 8.24382 6.74003 8.24382 6.23261C8.24382 5.73496 7.83933 5.33222 7.33367 5.33222Z" fill="white" fill-opacity="0.85"/>
 </g>
</svg>
