<?xml version="1.0" encoding="UTF-8"?>
<!--Generator: Apple Native CoreSVG 341-->
<!DOCTYPE svg
PUBLIC "-//W3C//DTD SVG 1.1//EN"
       "http://www.w3.org/Graphics/SVG/1.1/DTD/svg11.dtd">
<svg version="1.1" xmlns="http://www.w3.org/2000/svg" xmlns:xlink="http://www.w3.org/1999/xlink" viewBox="0 0 19.6269 20.4226">
 <g>
  <rect height="20.4226" opacity="0" width="19.6269" x="0" y="0"/>
  <path d="M2.7166 5.4662C1.21055 5.4662 0 4.20859 0 2.74863C0 1.22656 1.21055 0 2.7166 0C4.24492 0 5.45019 1.22656 5.45019 2.74863C5.45019 4.24062 4.24492 5.4662 2.7166 5.4662ZM18.8912 19.8609C18.3517 20.4164 17.4422 20.3756 16.782 19.6941L12.4879 15.2562C12.3406 15.101 12.2342 15.0654 12.0088 15.1551L8.70116 16.4006C6.54433 17.2234 4.42031 16.465 3.45488 14.701L1.34375 10.8631C0.49707 9.31796 0.76328 7.74511 2.22773 6.95526C3.64511 6.17694 5.12285 6.75741 5.98105 8.3328L8.77167 13.4232L11.1373 12.5578C12.3512 12.1115 13.3724 12.257 14.3431 13.2685L18.7998 17.8857C19.4404 18.5494 19.3783 19.3676 18.8912 19.8609Z" fill="white" fill-opacity="0.85"/>
  <path d="M12.917 5.3957C12.0951 5.3957 11.7312 6.22558 12.2842 6.83886L14.926 9.81191C15.2863 10.2211 15.7816 10.2291 16.1598 9.81191L18.8015 6.83886C19.3234 6.25664 19.0332 5.3957 18.1687 5.3957ZM16.4521 0.936908C16.4521 0.429488 16.0557 0.0347626 15.558 0.0347626C15.0443 0.0347626 14.6496 0.429488 14.6496 0.936908L14.6496 7.35957C14.6496 7.86523 15.0443 8.26797 15.558 8.26797C16.0557 8.26797 16.4521 7.86523 16.4521 7.35957Z" fill="white" fill-opacity="0.85"/>
 </g>
</svg>
