<?xml version="1.0" encoding="UTF-8"?>
<!--Generator: Apple Native CoreSVG 341-->
<!DOCTYPE svg
PUBLIC "-//W3C//DTD SVG 1.1//EN"
       "http://www.w3.org/Graphics/SVG/1.1/DTD/svg11.dtd">
<svg version="1.1" xmlns="http://www.w3.org/2000/svg" xmlns:xlink="http://www.w3.org/1999/xlink" viewBox="0 0 20.5381 20.1848">
 <g>
  <rect height="20.1848" opacity="0" width="20.5381" x="0" y="0"/>
  <path d="M20.1767 10.0875C20.1767 15.6478 15.6576 20.175 10.0875 20.175C4.52715 20.175 0 15.6478 0 10.0875C0 4.51914 4.52715 0 10.0875 0C15.6576 0 20.1767 4.51914 20.1767 10.0875ZM6.18495 6.7373C5.87245 6.7373 5.60878 6.98417 5.59999 7.30116C4.92694 7.30995 4.37109 7.86933 4.37109 8.54765C4.37109 9.22949 4.93573 9.8039 5.61757 9.8039C6.30116 9.8039 6.86405 9.22949 6.86405 8.54765C6.86405 8.30781 6.80097 8.09198 6.68456 7.90546L9.94902 7.90546C10.1285 7.90546 10.2041 8.09218 10.0797 8.20683L8.98749 9.30878C8.48496 9.79706 8.55605 10.5393 8.89335 10.8064L11.6719 12.9154L10.8043 15.559C10.6756 15.9646 10.925 16.2434 11.2215 16.3117C11.4967 16.3738 11.7967 16.2629 11.9254 15.89L12.8844 12.9039C12.9705 12.6793 12.9137 12.4414 12.7654 12.2896L10.9148 10.4363L13.0398 8.29355C13.1225 8.21269 13.2531 8.21269 13.3482 8.29355L14.0738 9.02538L13.0721 10.0191C12.8342 10.257 12.8422 10.6236 13.0721 10.842C13.2807 11.0603 13.657 11.0816 13.8932 10.842L15.3041 9.44257C15.542 9.20292 15.5305 8.83984 15.3041 8.6037L13.9402 7.23183C13.6152 6.8998 13.2051 6.7373 12.7381 6.7373ZM8.45742 12.9574L5.85819 12.9574C5.5289 12.9574 5.26171 13.2246 5.26171 13.5441C5.26171 13.8699 5.5289 14.1273 5.85819 14.1273L8.92695 14.1273C9.23144 14.1273 9.43828 13.9676 9.5164 13.7119L9.95605 12.241L8.72832 11.2982ZM11.8703 4.96152C11.8703 5.63359 12.4074 6.17519 13.084 6.17519C13.7463 6.17519 14.2834 5.63359 14.2834 4.96152C14.2834 4.29921 13.7463 3.75234 13.084 3.75234C12.4074 3.75234 11.8703 4.29921 11.8703 4.96152Z" fill="white" fill-opacity="0.85"/>
 </g>
</svg>
