<?xml version="1.0" encoding="UTF-8"?>
<!--Generator: Apple Native CoreSVG 341-->
<!DOCTYPE svg
PUBLIC "-//W3C//DTD SVG 1.1//EN"
       "http://www.w3.org/Graphics/SVG/1.1/DTD/svg11.dtd">
<svg version="1.1" xmlns="http://www.w3.org/2000/svg" xmlns:xlink="http://www.w3.org/1999/xlink" viewBox="0 0 24.7021 23.365">
 <g>
  <rect height="23.365" opacity="0" width="24.7021" x="0" y="0"/>
  <path d="M5.18835 6.93739C3.67605 6.93739 2.46375 5.67977 2.46375 4.21981C2.46375 2.69774 3.67605 1.47118 5.18835 1.47118C6.70867 1.47118 7.92195 2.69774 7.92195 4.21981C7.92195 5.7118 6.70867 6.93739 5.18835 6.93739ZM21.3549 21.3321C20.8155 21.8876 19.9077 21.8467 19.2555 21.1653L14.9516 16.7274C14.8044 16.5721 14.6979 16.5366 14.4743 16.6262L11.1667 17.8717C9.00983 18.6946 6.89207 17.9362 5.91863 16.1721L3.8075 12.3343C2.96082 10.7891 3.23679 9.21629 4.69324 8.42645C6.11863 7.64813 7.58659 8.22859 8.4448 9.80398L11.2452 14.8944L13.601 14.029C14.8149 13.5827 15.8362 13.7282 16.8069 14.7397L21.2635 19.3569C21.9042 20.0206 21.8438 20.8387 21.3549 21.3321Z" fill="white" fill-opacity="0.85"/>
  <path d="M23.3038 1.48995C23.838 0.94874 23.4946 0.229991 22.8069 0.198937L19.3919 0.000889678C18.9038-0.0186416 18.6065 0.284874 18.6278 0.766709L18.8356 4.16847C18.8667 4.89698 19.6217 5.18975 20.1266 4.68487ZM23.4083 5.84424C23.709 6.14951 24.1899 6.14951 24.4907 5.84424C24.7702 5.56123 24.7782 5.07237 24.4809 4.77159L21.187 1.46964C20.8862 1.17237 20.3973 1.17237 20.0965 1.46964C19.8171 1.75264 19.809 2.24952 20.1063 2.5503ZM15.7235 5.05361C15.7235 4.33057 14.9782 4.01631 14.4475 4.49463L11.9059 6.76983C11.543 7.09815 11.5421 7.52139 11.9059 7.84795L14.4475 10.1169C14.9657 10.5925 15.7235 10.3087 15.7235 9.55791ZM19.5155 8.0706C19.952 8.0706 20.2919 7.73877 20.2919 7.31826C20.2919 6.88701 19.952 6.54717 19.5155 6.54717L14.2823 6.54717C13.8458 6.54717 13.5059 6.88701 13.5059 7.31826C13.5059 7.73877 13.8458 8.0706 14.2823 8.0706ZM23.3038 13.1145L20.1266 9.92763C19.6217 9.41298 18.8667 9.71376 18.8356 10.4423L18.6278 13.8458C18.6065 14.3259 18.9038 14.6311 19.3919 14.6036L22.8069 14.4136C23.4946 14.3745 23.838 13.662 23.3038 13.1145ZM24.4809 9.84091C24.7782 9.54013 24.7702 9.05127 24.4907 8.76025C24.1899 8.46299 23.709 8.46299 23.4083 8.76025L20.1303 12.0364C19.8331 12.339 19.8411 12.8278 20.1206 13.1188C20.4214 13.4143 20.9022 13.4143 21.211 13.1188Z" fill="white" fill-opacity="0.85"/>
 </g>
</svg>
