<?xml version="1.0" encoding="UTF-8"?>
<!--Generator: Apple Native CoreSVG 341-->
<!DOCTYPE svg
PUBLIC "-//W3C//DTD SVG 1.1//EN"
       "http://www.w3.org/Graphics/SVG/1.1/DTD/svg11.dtd">
<svg version="1.1" xmlns="http://www.w3.org/2000/svg" xmlns:xlink="http://www.w3.org/1999/xlink" viewBox="0 0 20.5381 20.1848">
 <g>
  <rect height="20.1848" opacity="0" width="20.5381" x="0" y="0"/>
  <path d="M20.1767 10.0875C20.1767 15.6478 15.6576 20.175 10.0875 20.175C4.52715 20.175 0 15.6478 0 10.0875C0 4.51914 4.52715 0 10.0875 0C15.6576 0 20.1767 4.51914 20.1767 10.0875ZM10.7312 11.0394L10.7312 16.6547C10.7312 16.8525 10.89 17.0193 11.0959 17.0193C11.3035 17.0193 11.4605 16.8525 11.4605 16.6547L11.4605 11.0394C11.4605 10.8238 11.3035 10.6588 11.0959 10.6588C10.89 10.6588 10.7312 10.8238 10.7312 11.0394ZM6.13007 5.71171L4.73241 7.09159C4.50253 7.33124 4.52206 7.66855 4.73241 7.90644C4.93925 8.12304 5.32362 8.14433 5.55351 7.90644L6.73632 6.71386L8.00722 6.88437C8.12187 6.89413 8.15566 7.00702 8.07656 7.08788L6.86972 8.28144C6.38495 8.77597 6.36894 9.52617 6.86972 10.042L7.90898 11.0928L5.69394 11.0928C5.36991 11.0928 5.12851 11.3422 5.12851 11.6617C5.12851 11.9697 5.36991 12.2369 5.69394 12.2369L9.30078 12.2369C9.7996 12.2369 10.0357 11.6617 9.7455 11.3031L8.64062 9.9416L11.8314 9.73378L14.8451 9.73378C15.1691 9.73378 15.4266 9.48437 15.4266 9.1666C15.4266 8.86035 15.1691 8.58964 14.8451 8.58964L9.30917 8.58964L10.5988 7.29198C10.6441 7.24667 10.7135 7.21288 10.7926 7.2289L14.7537 7.73144C15.0893 7.76425 15.399 7.52284 15.399 7.17226C15.399 6.89179 15.1807 6.64589 14.902 6.60859L6.59609 5.55995C6.41855 5.52441 6.24902 5.59101 6.13007 5.71171ZM9.79199 4.40487C9.79199 5.08319 10.3371 5.6203 11.0092 5.6203C11.668 5.6203 12.2148 5.08319 12.2148 4.40487C12.2148 3.74433 11.668 3.19921 11.0092 3.19921C10.3371 3.19921 9.79199 3.74433 9.79199 4.40487Z" fill="white" fill-opacity="0.85"/>
 </g>
</svg>
