<?xml version="1.0" encoding="UTF-8"?>
<!--Generator: Apple Native CoreSVG 341-->
<!DOCTYPE svg
PUBLIC "-//W3C//DTD SVG 1.1//EN"
       "http://www.w3.org/Graphics/SVG/1.1/DTD/svg11.dtd">
<svg version="1.1" xmlns="http://www.w3.org/2000/svg" xmlns:xlink="http://www.w3.org/1999/xlink" viewBox="0 0 20.5381 20.1848">
 <g>
  <rect height="20.1848" opacity="0" width="20.5381" x="0" y="0"/>
  <path d="M10.0875 20.175C15.6576 20.175 20.1767 15.6559 20.1767 10.0875C20.1767 4.51914 15.6576 0 10.0875 0C4.51914 0 0 4.51914 0 10.0875C0 15.6559 4.51914 20.175 10.0875 20.175ZM10.0875 18.1879C5.60839 18.1879 1.9871 14.5666 1.9871 10.0875C1.9871 5.60839 5.60839 1.9871 10.0875 1.9871C14.5666 1.9871 18.1897 5.60839 18.1897 10.0875C18.1897 14.5666 14.5666 18.1879 10.0875 18.1879Z" fill="white" fill-opacity="0.85"/>
  <path d="M11.3012 6.73339C11.9307 6.73339 12.4367 6.21933 12.4367 5.58183C12.4367 4.95058 11.9307 4.44628 11.3012 4.44628C10.6619 4.44628 10.1576 4.95058 10.1576 5.58183C10.1576 6.21933 10.6619 6.73339 11.3012 6.73339ZM8.67753 16.8891C8.958 16.8891 9.2039 16.6414 9.2039 16.3449L9.2039 13.8727L10.3738 12.1502C10.4199 12.0766 10.5389 12.0996 10.5504 12.199L10.7334 13.7199C10.7432 13.8141 10.7547 13.8646 10.7937 13.9605L11.7652 16.534C11.902 16.8695 12.21 16.9379 12.4576 16.85C12.7133 16.7523 12.9103 16.5012 12.7816 16.1576L11.8199 13.5975L11.8199 8.68241C11.8199 8.1328 11.5793 7.55038 11.0457 7.32753L10.7109 7.18456C10.1125 6.93241 9.54335 7.0203 9.03281 7.37812L7.81796 8.25195L6.51483 7.71366L9.21269 3.95194L10.0812 3.95194C10.3342 3.95194 10.5383 3.75409 10.5383 3.51093C10.5383 3.24647 10.3342 3.05839 10.0812 3.05839L9.22968 3.05839C9.13476 3.05839 9.02031 3.11073 8.9582 3.19413L5.63007 7.7912C5.43046 8.06445 5.48984 8.43632 5.80136 8.57655L7.66796 9.37753C7.75585 9.41659 7.81972 9.41659 7.93515 9.41659L9.17656 9.41659C9.36582 9.41659 9.42714 9.53574 9.42714 9.67519L9.42714 11.0951L8.18574 13.459C8.13691 13.5389 8.12539 13.6187 8.12539 13.7164L8.12539 16.3449C8.12539 16.6414 8.37128 16.8891 8.67753 16.8891Z" fill="white" fill-opacity="0.85"/>
 </g>
</svg>
