<?xml version="1.0" encoding="UTF-8"?>
<!--Generator: Apple Native CoreSVG 341-->
<!DOCTYPE svg
PUBLIC "-//W3C//DTD SVG 1.1//EN"
       "http://www.w3.org/Graphics/SVG/1.1/DTD/svg11.dtd">
<svg version="1.1" xmlns="http://www.w3.org/2000/svg" xmlns:xlink="http://www.w3.org/1999/xlink" viewBox="0 0 20.5381 20.1848">
 <g>
  <rect height="20.1848" opacity="0" width="20.5381" x="0" y="0"/>
  <path d="M10.0875 20.175C15.6576 20.175 20.1767 15.6559 20.1767 10.0875C20.1767 4.51914 15.6576 0 10.0875 0C4.51914 0 0 4.51914 0 10.0875C0 15.6559 4.51914 20.175 10.0875 20.175ZM10.0875 18.1879C5.60839 18.1879 1.9871 14.5666 1.9871 10.0875C1.9871 5.60839 5.60839 1.9871 10.0875 1.9871C14.5666 1.9871 18.1897 5.60839 18.1897 10.0875C18.1897 14.5666 14.5666 18.1879 10.0875 18.1879Z" fill="white" fill-opacity="0.85"/>
  <path d="M10.3113 6.38261C10.9471 6.38261 11.4709 5.8703 11.4709 5.21503C11.4709 4.57753 10.9471 4.05546 10.3113 4.05546C9.65605 4.05546 9.14199 4.57753 9.14199 5.21503C9.14199 5.8703 9.65605 6.38261 10.3113 6.38261ZM14.6168 8.03847C14.923 8.03847 15.1787 7.79257 15.1787 7.48632C15.1787 7.17382 14.923 6.92792 14.6168 6.92792L9.19863 6.92792C8.67831 6.92792 8.23085 7.1996 7.98222 7.68085L5.61288 12.4178L4.28866 11.1016C4.06229 10.8832 3.71698 10.885 3.5119 11.1016C3.2953 11.3199 3.28729 11.6555 3.5119 11.8801L5.39804 13.776C5.63241 14.0103 6.00526 13.9811 6.19608 13.7041L7.74745 11.4299C7.82831 11.3037 7.99101 11.2957 8.10917 11.3685L10.0193 12.8365L10.0193 15.4953C10.0193 15.7998 10.2635 16.0377 10.568 16.0377C10.8742 16.0377 11.1299 15.7998 11.1299 15.4953L11.1299 12.5533C11.1299 12.4068 11.0598 12.2701 10.9621 12.1689L9.10605 10.3111L10.1078 8.31562C10.2019 8.12909 10.3637 8.03847 10.56 8.03847ZM11.3672 10.4379L13.283 10.4379C13.5893 10.4379 13.8271 10.192 13.8271 9.88749C13.8271 9.583 13.5893 9.33535 13.283 9.33535L11.6033 9.33535L10.7805 8.51249L10.5898 8.51249C10.549 8.51249 10.542 8.51601 10.5207 8.55683L10.1016 9.3871L10.9846 10.2799C11.084 10.3793 11.2287 10.4379 11.3672 10.4379ZM14.2725 9.30644C14.2725 9.84003 14.8824 10.2644 15.6318 10.2644C16.375 10.2644 16.9832 9.84003 16.9832 9.30644C16.9832 8.7871 16.375 8.36269 15.6318 8.36269C14.8824 8.36269 14.2725 8.7871 14.2725 9.30644Z" fill="white" fill-opacity="0.85"/>
 </g>
</svg>
