<?xml version="1.0" encoding="UTF-8"?>
<!--Generator: Apple Native CoreSVG 341-->
<!DOCTYPE svg
PUBLIC "-//W3C//DTD SVG 1.1//EN"
       "http://www.w3.org/Graphics/SVG/1.1/DTD/svg11.dtd">
<svg version="1.1" xmlns="http://www.w3.org/2000/svg" xmlns:xlink="http://www.w3.org/1999/xlink" viewBox="0 0 21.923 24.6648">
 <g>
  <rect height="24.6648" opacity="0" width="21.923" x="0" y="0"/>
  <path d="M16.282 4.48945C17.4793 4.48945 18.4724 3.50429 18.4724 2.29902C18.4724 1.09375 17.4793 0.102345 16.282 0.102345C15.0767 0.102345 14.0853 1.09375 14.0853 2.29902C14.0853 3.50429 15.0767 4.48945 16.282 4.48945ZM12.4367 18.4051C13.0312 18.4051 13.4873 17.933 13.4873 17.3562L13.4873 12.5982C13.4873 12.3142 13.3906 12.0365 13.198 11.8582L10.6101 9.28359L12.9113 6.97089C13.0455 6.83671 13.2615 6.83495 13.3975 6.97089L15.0228 8.60956C15.2092 8.80566 15.4887 8.90859 15.7549 8.90859L20.5129 8.90859C21.0976 8.90859 21.5617 8.44628 21.5617 7.85175C21.5617 7.27499 21.0976 6.80468 20.5129 6.80468L16.1879 6.80468L12.6637 3.26269C12.2137 2.80293 11.5516 2.54023 10.9072 2.54023L7.18691 2.54023C6.13984 2.54023 5.82929 3.69199 6.48593 4.34687L8.11601 5.96718L6.81171 7.24042C5.95703 8.08535 5.95879 9.5205 6.81171 10.3574L8.55703 12.0832L8.55703 17.5941C8.55703 18.1674 9.00956 18.6412 9.60409 18.6412C10.1809 18.6412 10.6547 18.1674 10.6547 17.5941L10.6547 12.3043L11.3896 13.0312L11.3896 17.3562C11.3896 17.933 11.8635 18.4051 12.4367 18.4051ZM0.622458 7.17011L10.2471 7.17011L10.2471 5.9332L0.622458 5.9332C0.279295 5.9332 0 6.2125 0 6.55566C0 6.89081 0.279295 7.17011 0.622458 7.17011ZM20.9232 18.025C21.2584 18.025 21.5457 17.7377 21.5457 17.4025L21.5457 7.87578L20.3088 7.87578L20.3088 17.4025C20.3088 17.7377 20.5863 18.025 20.9232 18.025ZM16.243 24.6648C16.5861 24.6648 16.8654 24.3873 16.8654 24.0424C16.8654 23.6992 16.5861 23.4297 16.243 23.4297C15.5832 23.4297 15.3924 23.3072 14.8435 22.7682L4.3289 12.2473C4.07617 12.0043 3.68339 12.0025 3.45019 12.2473C3.20723 12.4805 3.20898 12.875 3.45019 13.1162L14.1264 23.7941C14.7539 24.4217 15.4576 24.6648 16.243 24.6648ZM18.8004 24.134C19.1435 24.134 19.4148 23.8564 19.4148 23.5115C19.4148 23.1683 19.1435 22.8988 18.8004 22.8988C18.1406 22.8988 17.94 22.7764 17.3912 22.2373L6.87831 11.7244C6.62558 11.4734 6.24082 11.4717 5.99961 11.7164C5.76465 11.9576 5.7664 12.3424 5.99961 12.5853L16.6758 23.2633C17.3016 23.8908 18.007 24.134 18.8004 24.134Z" fill="white" fill-opacity="0.85"/>
 </g>
</svg>
