<?xml version="1.0" encoding="UTF-8"?>
<!--Generator: Apple Native CoreSVG 341-->
<!DOCTYPE svg
PUBLIC "-//W3C//DTD SVG 1.1//EN"
       "http://www.w3.org/Graphics/SVG/1.1/DTD/svg11.dtd">
<svg version="1.1" xmlns="http://www.w3.org/2000/svg" xmlns:xlink="http://www.w3.org/1999/xlink" viewBox="0 0 20.7236 23.1551">
 <g>
  <rect height="23.1551" opacity="0" width="20.7236" x="0" y="0"/>
  <path d="M0 21.6916C0 22.2322 0.444919 22.6771 0.977532 22.6771C1.5164 22.6771 1.96131 22.2322 1.96131 21.6916L1.96131 0.977532C1.96131 0.436911 1.5164 0 0.977532 0C0.444919 0 0 0.436911 0 0.977532Z" fill="white" fill-opacity="0.85"/>
  <path d="M8.11424 22.3178L11.2291 18.6099C11.5389 18.2461 11.5797 18.1449 11.7101 17.7703L11.9244 17.1168L10.2055 14.9568L9.69842 17.2859L6.63143 20.9281C5.61093 22.1314 7.26854 23.3187 8.11424 22.3178ZM15.6494 22.0045C16.3123 23.3463 18.2912 22.5201 17.5697 21.0736L15.457 16.7844C15.299 16.4586 15.0664 16.1168 14.8685 15.8258L13.5289 13.9277L13.6195 13.6683C13.9818 12.5891 14.1228 11.9375 14.193 10.8723L14.4015 7.87284C14.509 6.42089 13.6472 5.32558 12.1721 5.32558C11.0635 5.32558 10.3117 5.89003 9.30331 6.8789L7.71796 8.43945C7.19335 8.95077 7.01854 9.37675 6.96796 10.0637L6.77889 12.5154C6.72655 13.149 7.0912 13.6096 7.68046 13.6291C8.27499 13.6717 8.63963 13.3168 8.70623 12.6379L8.93436 9.9623L9.65995 9.30331C9.91756 9.07499 10.2648 9.22694 10.2435 9.50038L10.0695 11.7334C9.98163 12.8732 10.2515 13.4314 11.0574 14.4379L13.1523 17.0769C13.3637 17.3371 13.3867 17.4392 13.4764 17.606ZM19.2877 9.38847L16.9041 9.38847L15.398 7.71718L15.233 10.3217L15.7851 10.8641C16.1312 11.2094 16.433 11.3176 17.056 11.3176L19.2877 11.3176C19.9328 11.3176 20.3623 10.9449 20.3623 10.3441C20.3623 9.77089 19.923 9.38847 19.2877 9.38847ZM13.3656 4.41113C14.5869 4.41113 15.5703 3.42773 15.5703 2.20644C15.5703 0.985155 14.5869 0 13.3656 0C12.1443 0 11.1592 0.985155 11.1592 2.20644C11.1592 3.42773 12.1443 4.41113 13.3656 4.41113Z" fill="white" fill-opacity="0.85"/>
 </g>
</svg>
