<?xml version="1.0" encoding="UTF-8"?>
<!--Generator: Apple Native CoreSVG 341-->
<!DOCTYPE svg
PUBLIC "-//W3C//DTD SVG 1.1//EN"
       "http://www.w3.org/Graphics/SVG/1.1/DTD/svg11.dtd">
<svg version="1.1" xmlns="http://www.w3.org/2000/svg" xmlns:xlink="http://www.w3.org/1999/xlink" viewBox="0 0 14.4137 26.7703">
 <g>
  <rect height="26.7703" opacity="0" width="14.4137" x="0" y="0"/>
  <path d="M11.0844 7.0457C12.2897 7.0457 13.2651 6.0623 13.2651 4.83925C13.2651 3.64375 12.2897 2.65859 11.0844 2.65859C9.86311 2.65859 8.87795 3.64375 8.87795 4.83925C8.87795 6.0623 9.86311 7.0457 11.0844 7.0457ZM6.03772 26.6541C6.60296 26.6541 7.07502 26.1918 7.07502 25.6168L7.07502 20.7015L9.28811 17.4379C9.38831 17.2836 9.60296 17.3314 9.626 17.523L9.96526 20.4096C9.98479 20.5791 10.0158 20.674 10.094 20.8613L12.0371 25.9859C12.2821 26.631 12.8854 26.7668 13.3655 26.592C13.8455 26.4092 14.2182 25.9123 13.9733 25.2556L12.0594 20.1691L12.0594 10.7809C12.0594 9.71659 11.6094 8.60273 10.5737 8.17675L9.95139 7.91581C8.79397 7.43476 7.70139 7.58027 6.72327 8.27968L4.40354 9.95312L1.89475 8.89277L7.05432 1.74023L8.74573 1.74023C9.22737 1.74023 9.62385 1.34199 9.62385 0.871872C9.62385 0.378709 9.22737 0 8.74573 0L7.10706 0C6.91194 0 6.70979 0.0886714 6.59007 0.254491L0.227179 9.06035C-0.158561 9.59062-0.0540703 10.3217 0.548272 10.5771L4.12581 12.1129C4.28909 12.175 4.40706 12.183 4.63518 12.183L7.01331 12.183C7.36507 12.183 7.47796 12.4008 7.47796 12.6654L7.47796 15.3898L5.10159 19.8914C5.01019 20.0644 4.9889 20.2019 4.9889 20.3928L4.9889 25.6168C4.9889 26.1918 5.4512 26.6541 6.03772 26.6541Z" fill="white" fill-opacity="0.85"/>
 </g>
</svg>
