<?xml version="1.0" encoding="UTF-8"?>
<!--Generator: Apple Native CoreSVG 341-->
<!DOCTYPE svg
PUBLIC "-//W3C//DTD SVG 1.1//EN"
       "http://www.w3.org/Graphics/SVG/1.1/DTD/svg11.dtd">
<svg version="1.1" xmlns="http://www.w3.org/2000/svg" xmlns:xlink="http://www.w3.org/1999/xlink" viewBox="0 0 22.7902 29.4134">
 <g>
  <rect height="29.4134" opacity="0" width="22.7902" x="0" y="0"/>
  <path d="M4.30624 9.96159C2.79394 9.96159 1.58164 8.70397 1.58164 7.24401C1.58164 5.72194 2.79394 4.49538 4.30624 4.49538C5.82656 4.49538 7.03984 5.72194 7.03984 7.24401C7.03984 8.736 5.82656 9.96159 4.30624 9.96159ZM20.4728 24.3563C19.9334 24.9118 19.0256 24.8709 18.3734 24.1895L14.0695 19.7516C13.9223 19.5963 13.8158 19.5608 13.5922 19.6504L10.2846 20.8959C8.12772 21.7188 6.00996 20.9604 5.03652 19.1963L2.92539 15.3585C2.07871 13.8133 2.35469 12.2405 3.81113 11.4506C5.23652 10.6723 6.70448 11.2528 7.56269 12.8282L10.3631 17.9186L12.7189 17.0532C13.9328 16.6069 14.9541 16.7524 15.9248 17.7639L20.3814 22.3811C21.022 23.0448 20.9617 23.8629 20.4728 24.3563Z" fill="white" fill-opacity="0.85"/>
  <path d="M12.6365 0.892444C12.6365 0.02975 11.7756-0.262242 11.1933 0.259633L8.2203 2.90319C7.81112 3.28131 7.81112 3.77487 8.2203 4.13522L11.1933 6.77701C11.8066 7.32994 12.6365 6.96783 12.6365 6.1442ZM11.2953 4.42135L13.3166 4.42135C14.2142 4.42135 14.5545 4.59459 15.1369 5.3608L17.7693 8.7985C18.6365 9.93463 19.6412 10.3606 21.159 10.3606L21.8801 10.3606C22.3777 10.3606 22.7902 9.95611 22.7902 9.45846C22.7902 8.9608 22.3777 8.55006 21.8801 8.55006L21.159 8.55006C20.1033 8.55006 19.7142 8.38307 19.1904 7.68873L16.5873 4.24928C15.7103 3.09362 14.7349 2.61081 13.3166 2.61081L11.2953 2.61081C10.7976 2.61081 10.3869 3.01354 10.3869 3.51119C10.3869 4.00885 10.7976 4.42135 11.2953 4.42135Z" fill="white" fill-opacity="0.85"/>
 </g>
</svg>
