<?xml version="1.0" encoding="UTF-8"?>
<!--Generator: Apple Native CoreSVG 341-->
<!DOCTYPE svg
PUBLIC "-//W3C//DTD SVG 1.1//EN"
       "http://www.w3.org/Graphics/SVG/1.1/DTD/svg11.dtd">
<svg version="1.1" xmlns="http://www.w3.org/2000/svg" xmlns:xlink="http://www.w3.org/1999/xlink" viewBox="0 0 20.5381 20.1848">
 <g>
  <rect height="20.1848" opacity="0" width="20.5381" x="0" y="0"/>
  <path d="M20.1767 10.0875C20.1767 15.6478 15.6576 20.175 10.0875 20.175C4.52715 20.175 0 15.6478 0 10.0875C0 4.51914 4.52715 0 10.0875 0C15.6576 0 20.1767 4.51914 20.1767 10.0875ZM5.70507 3.85956C5.3953 3.85956 5.13964 4.11874 5.13964 4.43476C5.13964 4.76229 5.3953 5.02772 5.70507 5.02772L7.54511 5.02772C8.12851 5.44062 8.64179 5.86776 9.09199 6.32948C9.14531 6.39706 9.15507 6.47089 9.12578 6.53573L7.22909 9.76523C6.98769 10.1887 7.28593 10.6387 7.73417 10.6387L10.2803 10.6387L8.93398 13.1021L8.88515 13.198L7.38984 15.9463C7.24609 16.2285 7.33573 16.5934 7.6162 16.7354C7.88339 16.8818 8.23222 16.8232 8.40175 16.4957L9.92636 13.7262L11.5959 11.4217L12.6625 13.3568C13.0088 15.0324 13.0461 16.0092 13.0461 16.201C13.0461 16.5543 13.3115 16.81 13.6408 16.81C13.9666 16.81 14.2062 16.549 14.2062 16.2135C14.2062 15.7871 14.1689 14.435 13.7836 13.0311L13.7543 12.9316C13.1363 10.71 11.8541 6.50292 8.14784 4.03358C7.9703 3.9164 7.79452 3.85956 7.5912 3.85956ZM9.37343 8.77324L9.84414 9.4873L8.72851 9.4873L9.13261 8.78476C9.2037 8.67909 9.32011 8.69238 9.37343 8.77324ZM5.65722 6.8328C5.65722 7.50487 6.18632 8.04648 6.8664 8.04648C7.53671 8.04648 8.06757 7.50487 8.06757 6.8328C8.06757 6.1705 7.53671 5.62538 6.8664 5.62538C6.18632 5.62538 5.65722 6.1705 5.65722 6.8328Z" fill="white" fill-opacity="0.85"/>
 </g>
</svg>
