<?xml version="1.0" encoding="UTF-8"?>
<!--Generator: Apple Native CoreSVG 341-->
<!DOCTYPE svg
PUBLIC "-//W3C//DTD SVG 1.1//EN"
       "http://www.w3.org/Graphics/SVG/1.1/DTD/svg11.dtd">
<svg version="1.1" xmlns="http://www.w3.org/2000/svg" xmlns:xlink="http://www.w3.org/1999/xlink" viewBox="0 0 20.5381 20.1848">
 <g>
  <rect height="20.1848" opacity="0" width="20.5381" x="0" y="0"/>
  <path d="M20.1767 10.0875C20.1767 15.6478 15.6576 20.175 10.0875 20.175C4.52715 20.175 0 15.6478 0 10.0875C0 4.51914 4.52715 0 10.0875 0C15.6576 0 20.1767 4.51914 20.1767 10.0875ZM9.39472 11.9455C9.33613 11.9455 9.27675 11.9437 9.22167 11.942L9.55917 13.6525L9.0371 16.3049C8.9705 16.6209 9.17109 16.9271 9.47734 16.991C9.76757 17.0479 10.0934 16.8588 10.1555 16.533L10.7176 13.768C10.7291 13.7014 10.7291 13.6428 10.7211 13.5646L10.6189 11.5141C10.2514 11.8053 9.83593 11.9455 9.39472 11.9455ZM9.29902 5.14687L9.29902 6.99667L6.54706 6.99667C5.93534 6.99667 5.42577 7.49472 5.42577 8.10995L5.42577 10.3316C5.42577 10.6432 5.67519 10.9086 6.00097 10.9086L8.2582 10.9086L8.39238 11.048C8.65878 11.309 9.03691 11.4547 9.39472 11.4547C9.70546 11.4547 10.0002 11.365 10.2586 11.1732L12.9828 9.12382L15.7035 7.49355C15.9822 7.33378 16.0701 6.98671 15.9041 6.71601C15.7426 6.44081 15.3893 6.36093 15.1123 6.5207L9.97187 9.60195L8.56933 8.21366C8.53202 8.17636 8.55331 8.12929 8.59687 8.12929L9.87597 8.12929C10.1857 8.12929 10.4494 7.88613 10.4494 7.5621L10.4494 5.93788C10.7762 5.81718 11.0088 5.50644 11.0088 5.14687C11.0088 4.66659 10.6227 4.2955 10.1521 4.2955C9.68163 4.2955 9.29902 4.66659 9.29902 5.14687ZM6.64823 9.23925L7.20702 9.80605L6.5203 9.80605L6.5203 9.29706C6.5203 9.22773 6.60116 9.19218 6.64823 9.23925ZM5.39569 5.21464C5.39569 5.89472 5.93905 6.43007 6.61112 6.43007C7.27167 6.43007 7.81855 5.89472 7.81855 5.21464C7.81855 4.55234 7.27167 4.01347 6.61112 4.01347C5.93905 4.01347 5.39569 4.55234 5.39569 5.21464Z" fill="white" fill-opacity="0.85"/>
 </g>
</svg>
