<?xml version="1.0" encoding="UTF-8"?>
<!--Generator: Apple Native CoreSVG 341-->
<!DOCTYPE svg
PUBLIC "-//W3C//DTD SVG 1.1//EN"
       "http://www.w3.org/Graphics/SVG/1.1/DTD/svg11.dtd">
<svg version="1.1" xmlns="http://www.w3.org/2000/svg" xmlns:xlink="http://www.w3.org/1999/xlink" viewBox="0 0 20.5381 20.1848">
 <g>
  <rect height="20.1848" opacity="0" width="20.5381" x="0" y="0"/>
  <path d="M10.0875 20.175C15.6576 20.175 20.1767 15.6559 20.1767 10.0875C20.1767 4.51914 15.6576 0 10.0875 0C4.51914 0 0 4.51914 0 10.0875C0 15.6559 4.51914 20.175 10.0875 20.175ZM10.0875 18.1879C5.60839 18.1879 1.9871 14.5666 1.9871 10.0875C1.9871 5.60839 5.60839 1.9871 10.0875 1.9871C14.5666 1.9871 18.1897 5.60839 18.1897 10.0875C18.1897 14.5666 14.5666 18.1879 10.0875 18.1879Z" fill="white" fill-opacity="0.85"/>
  <path d="M13.383 7.40136C14.0223 7.40136 14.5426 6.87929 14.5426 6.24179C14.5426 5.58652 14.0223 5.07421 13.383 5.07421C12.7295 5.07421 12.2154 5.58652 12.2154 6.24179C12.2154 6.87929 12.7295 7.40136 13.383 7.40136ZM9.70957 14.4752C10.0353 14.4752 10.2893 14.2098 10.2893 13.8937L10.2893 11.4473C10.2893 11.2129 10.1738 11.0469 10.0371 10.9021L8.43222 9.29726L10.357 8.80429C10.4512 8.78476 10.5303 8.8496 10.5303 8.94824L10.5303 9.99003C10.5303 10.1285 10.5906 10.2768 10.7061 10.3939L12.3746 12.0705C12.601 12.2969 12.9721 12.2969 13.1967 12.0705C13.423 11.8459 13.423 11.4713 13.1967 11.2449L11.6879 9.74589L11.6879 8.73476L12.4963 9.66132C12.6055 9.79003 12.7697 9.85664 12.9295 9.85664L15.4426 9.85664C15.7666 9.85664 16.0223 9.61074 16.0223 9.28496C16.0223 8.95468 15.7666 8.70703 15.4426 8.70703L13.1932 8.70703L11.8664 7.1707C11.442 6.68945 10.7885 6.49765 10.174 6.65214L7.30839 7.37499C6.16835 7.65468 5.9748 9.07265 6.8707 9.80605L9.13339 11.6478L9.13339 13.8937C9.13339 14.2098 9.39531 14.4752 9.70957 14.4752ZM4.83359 14.3074C5.05819 14.5258 5.43105 14.5258 5.64765 14.3074L7.60038 12.3547C7.70956 12.2473 7.73886 12.1478 7.77792 11.9756L7.90234 11.2514L6.62656 10.2135L6.62656 11.7066L4.83359 13.4836C4.60722 13.7082 4.60722 14.0828 4.83359 14.3074Z" fill="white" fill-opacity="0.85"/>
 </g>
</svg>
