<?xml version="1.0" encoding="UTF-8"?>
<!--Generator: Apple Native CoreSVG 341-->
<!DOCTYPE svg
PUBLIC "-//W3C//DTD SVG 1.1//EN"
       "http://www.w3.org/Graphics/SVG/1.1/DTD/svg11.dtd">
<svg version="1.1" xmlns="http://www.w3.org/2000/svg" xmlns:xlink="http://www.w3.org/1999/xlink" viewBox="0 0 30.5061 22.9361">
 <g>
  <rect height="22.9361" opacity="0" width="30.5061" x="0" y="0"/>
  <path d="M25.1915 6.93446L25.1915 8.91845C25.1915 9.57137 24.7784 9.91063 24.2829 9.91063C23.7679 9.91063 23.3628 9.54735 23.3628 8.91845L23.3628 6.76102C23.3628 4.46785 21.8827 3.22176 20.1392 3.22176C18.3939 3.22176 16.919 4.46785 16.919 6.76102L16.919 9.28745C18.0383 9.47169 18.619 10.2522 18.619 11.6259L18.619 18.5425C18.619 20.1434 17.8433 20.9387 16.3585 20.9387L10.7731 20.9387C10.7831 20.7127 10.7589 20.4696 10.6954 20.2112L10.446 19.1882L16.0909 19.1882C16.4968 19.1882 16.7171 18.9403 16.7171 18.4794L16.7171 11.6925C16.7171 11.2298 16.4968 10.9934 16.0909 10.9934L11.0885 10.9934L9.14189 10.187C9.28022 9.89324 9.37269 9.57709 9.40659 9.24286L15.0966 9.24286L15.0966 6.93446C15.0966 3.33114 17.4716 1.47294 20.1392 1.47294C22.8067 1.47294 25.1915 3.33114 25.1915 6.93446Z" fill="white" fill-opacity="0.85"/>
  <path d="M6.41631 10.5667C7.32353 10.5667 8.03545 9.845 8.03545 8.94754C8.03545 8.04833 7.32353 7.3204 6.41631 7.3204C5.52685 7.3204 4.78916 8.04833 4.78916 8.94754C4.78916 9.845 5.52685 10.5667 6.41631 10.5667ZM6.4083 16.3581C6.62842 16.3581 6.80244 16.485 6.86279 16.7309L7.96357 20.9893C8.21572 21.9391 9.52412 21.6036 9.38564 20.7009C9.32705 20.3528 8.38076 16.7522 8.24228 15.9427C8.14287 15.3479 8.18369 13.8345 8.18369 13.1764C8.18369 12.9856 8.35498 12.8587 8.56533 12.9483L10.4358 13.7038C10.9419 13.9054 11.2952 13.6665 11.3999 13.3362C11.5144 13.0024 11.3696 12.596 10.8886 12.4069L8.86279 11.5681C8.40107 11.378 7.98642 11.2768 7.5247 11.212C7.19189 11.3788 6.81474 11.4782 6.4083 11.4782C6.00185 11.4782 5.63271 11.3788 5.2919 11.212C4.82842 11.2768 4.41553 11.378 3.95381 11.5681L1.92627 12.4069C1.45498 12.596 1.31025 13.0024 1.42471 13.3362C1.51963 13.6665 1.87295 13.9054 2.38076 13.7038L4.25928 12.9483C4.46162 12.8587 4.63115 12.9856 4.63115 13.1764C4.63115 13.8345 4.67998 15.3479 4.58232 15.9427C4.44385 16.7522 3.48779 20.3528 3.43096 20.7009C3.29248 21.6036 4.60713 21.9391 4.85303 20.9893L5.95381 16.7309C6.02217 16.485 6.18818 16.3581 6.4083 16.3581Z" fill="white" fill-opacity="0.85"/>
 </g>
</svg>
