<?xml version="1.0" encoding="UTF-8"?>
<!--Generator: Apple Native CoreSVG 341-->
<!DOCTYPE svg
PUBLIC "-//W3C//DTD SVG 1.1//EN"
       "http://www.w3.org/Graphics/SVG/1.1/DTD/svg11.dtd">
<svg version="1.1" xmlns="http://www.w3.org/2000/svg" xmlns:xlink="http://www.w3.org/1999/xlink" viewBox="0 0 20.5381 20.1848">
 <g>
  <rect height="20.1848" opacity="0" width="20.5381" x="0" y="0"/>
  <path d="M10.0875 20.175C15.6576 20.175 20.1767 15.6559 20.1767 10.0875C20.1767 4.51914 15.6576 0 10.0875 0C4.51914 0 0 4.51914 0 10.0875C0 15.6559 4.51914 20.175 10.0875 20.175ZM10.0875 18.1879C5.60839 18.1879 1.9871 14.5666 1.9871 10.0875C1.9871 5.60839 5.60839 1.9871 10.0875 1.9871C14.5666 1.9871 18.1897 5.60839 18.1897 10.0875C18.1897 14.5666 14.5666 18.1879 10.0875 18.1879Z" fill="white" fill-opacity="0.85"/>
  <path d="M6.7662 6.58163C7.4037 6.58163 7.92577 6.06132 7.92577 5.41405C7.92577 4.77655 7.4037 4.25448 6.7662 4.25448C6.11894 4.25448 5.59862 4.77655 5.59862 5.41405C5.59862 6.06132 6.11894 6.58163 6.7662 6.58163ZM6.17909 10.8935L8.35214 10.8935L8.47831 11.0232C8.73495 11.2771 9.09804 11.4184 9.44433 11.4184C9.74179 11.4184 10.0232 11.3305 10.2736 11.1467L12.9004 9.17968L15.5174 7.60702C15.7828 7.45077 15.8707 7.11523 15.7145 6.8578C15.5564 6.59237 15.2146 6.51601 14.9492 6.67226L9.99667 9.63652L8.64823 8.29609C8.61269 8.26679 8.63222 8.21972 8.67753 8.21972L9.91054 8.21972C10.207 8.21972 10.4609 7.98183 10.4609 7.66933L10.4609 5.34628C10.4609 5.03202 10.207 4.79413 9.91054 4.79413C9.59453 4.79413 9.35038 5.03202 9.35038 5.34628L9.35038 7.12519L6.70214 7.12519C6.11347 7.12519 5.62694 7.60995 5.62694 8.20214L5.62694 10.3432C5.62694 10.6396 5.86659 10.8935 6.17909 10.8935ZM6.67362 9.83085L6.67362 9.34316C6.67362 9.27382 6.75448 9.23652 6.80155 9.28359L7.33905 9.83085ZM9.52519 16.75C9.8039 16.7988 10.1182 16.6213 10.1768 16.307L10.7176 13.6492C10.7291 13.5826 10.7291 13.5223 10.7193 13.4477L10.6189 11.4742C10.2726 11.7539 9.8705 11.8924 9.44433 11.8924C9.39374 11.8924 9.33163 11.8924 9.28105 11.8906L9.60703 13.5338L9.10175 16.0904C9.03339 16.3949 9.23222 16.6896 9.52519 16.75ZM10.1769 6.15507C10.6244 6.15507 10.9955 5.79374 10.9955 5.34628C10.9955 4.88905 10.6244 4.52948 10.1769 4.52948C9.71972 4.52948 9.35038 4.88905 9.35038 5.34628C9.35038 5.79374 9.71972 6.15507 10.1769 6.15507Z" fill="white" fill-opacity="0.85"/>
 </g>
</svg>
