<?xml version="1.0" encoding="UTF-8"?>
<!--Generator: Apple Native CoreSVG 341-->
<!DOCTYPE svg
PUBLIC "-//W3C//DTD SVG 1.1//EN"
       "http://www.w3.org/Graphics/SVG/1.1/DTD/svg11.dtd">
<svg version="1.1" xmlns="http://www.w3.org/2000/svg" xmlns:xlink="http://www.w3.org/1999/xlink" viewBox="0 0 20.5381 20.1848">
 <g>
  <rect height="20.1848" opacity="0" width="20.5381" x="0" y="0"/>
  <path d="M20.1767 10.0875C20.1767 15.6478 15.6576 20.175 10.0875 20.175C4.52715 20.175 0 15.6478 0 10.0875C0 4.51914 4.52715 0 10.0875 0C15.6576 0 20.1767 4.51914 20.1767 10.0875ZM8.53574 13.0934L6.84062 15.117C6.28046 15.7766 7.18945 16.4316 7.65995 15.868L9.38164 13.8248C9.54765 13.6215 9.57519 13.5674 9.64355 13.3596L9.74492 13.0252L8.81816 11.8285ZM8.31191 7.34042L7.43554 8.20351C7.14785 8.49296 7.0582 8.73359 7.0289 9.09667L6.92949 10.4605C6.90019 10.8076 7.09453 11.0553 7.41855 11.065C7.74609 11.0961 7.94667 10.8955 7.98398 10.5209L8.10742 9.03085L8.51425 8.68085C8.65644 8.55292 8.85097 8.62577 8.83945 8.79277L8.74882 10.0281C8.69648 10.6506 8.84746 10.9728 9.28867 11.5197L10.4492 12.9777C10.5629 13.1127 10.5762 13.1758 10.6232 13.2734L11.8228 15.7117C12.1859 16.4396 13.2805 15.9869 12.8783 15.1889L11.7178 12.8092C11.6219 12.6449 11.5064 12.4469 11.3973 12.2951L10.6469 11.2295L10.6984 11.0936C10.9045 10.4934 10.9781 10.1373 11.0172 9.54414L11.1326 7.89882C11.1894 7.08202 10.7189 6.48183 9.89589 6.48183C9.28769 6.48183 8.87753 6.79433 8.31191 7.34042ZM11.6102 9.25234L11.901 9.54316C12.0963 9.7332 12.2543 9.78906 12.6023 9.78906L13.8393 9.78906C14.1961 9.78906 14.426 9.58671 14.426 9.26269C14.426 8.93691 14.1961 8.73632 13.8393 8.73632L12.5152 8.73632L11.7158 7.83827ZM9.33203 4.75663C9.33203 5.42519 9.88867 5.97831 10.567 5.97831C11.2293 5.97831 11.7824 5.42519 11.7824 4.75663C11.7824 4.08632 11.2293 3.5412 10.567 3.5412C9.88867 3.5412 9.33203 4.08632 9.33203 4.75663Z" fill="white" fill-opacity="0.85"/>
 </g>
</svg>
