<?xml version="1.0" encoding="UTF-8"?>
<!--Generator: Apple Native CoreSVG 341-->
<!DOCTYPE svg
PUBLIC "-//W3C//DTD SVG 1.1//EN"
       "http://www.w3.org/Graphics/SVG/1.1/DTD/svg11.dtd">
<svg version="1.1" xmlns="http://www.w3.org/2000/svg" xmlns:xlink="http://www.w3.org/1999/xlink" viewBox="0 0 20.5381 20.1848">
 <g>
  <rect height="20.1848" opacity="0" width="20.5381" x="0" y="0"/>
  <path d="M20.1767 10.0875C20.1767 15.6478 15.6576 20.175 10.0875 20.175C4.52715 20.175 0 15.6478 0 10.0875C0 4.51914 4.52715 0 10.0875 0C15.6576 0 20.1767 4.51914 20.1767 10.0875ZM5.33534 14.6832C5.1498 14.9469 5.2164 15.3268 5.49335 15.5043L7.80859 17.0336C8.09179 17.2111 8.45214 17.1215 8.61015 16.8676C8.79921 16.5889 8.73886 16.2498 8.45214 16.0687L6.70585 14.9078L7.80214 13.7269C7.54824 13.616 7.29081 13.4225 7.07597 13.165L6.68359 12.6963ZM13.6369 4.78495L11.4242 8.11015C11.1596 8.508 10.7324 8.69628 10.2697 8.69628C9.78222 8.69628 9.26621 8.47069 8.95273 8.00097L6.81464 4.78495C6.62734 4.50624 6.2705 4.42987 5.99179 4.60917C5.7166 4.79472 5.65449 5.16132 5.83202 5.43202L8.47089 9.38593C8.59082 9.56093 8.68867 9.65312 8.47089 9.97753L7.84824 10.9359L6.22402 9.52929C5.97812 9.32421 5.60976 9.30292 5.35585 9.57011L3.34804 11.5797C3.11015 11.8256 3.11015 12.1842 3.34804 12.4123C3.61347 12.6484 3.95253 12.6129 4.17089 12.4123L5.77128 10.8199L7.4621 12.8455C8.12617 13.6525 9.21113 13.5273 9.758 12.7203L14.6213 5.43202C14.8103 5.16132 14.7287 4.79472 14.4615 4.60917C14.1926 4.42987 13.826 4.50624 13.6369 4.78495ZM9.05429 6.91972C9.05429 7.59179 9.59941 8.12714 10.2697 8.12714C10.932 8.12714 11.4754 7.59179 11.4754 6.91972C11.4754 6.2494 10.932 5.70253 10.2697 5.70253C9.59941 5.70253 9.05429 6.2494 9.05429 6.91972ZM4.88808 4.49257C4.69648 4.49257 4.54745 4.6496 4.54745 4.83944C4.54745 5.03554 4.69648 5.18456 4.88808 5.18456L5.24355 5.18456C5.2373 4.95487 5.29745 4.6994 5.43827 4.49257ZM7.20039 4.49257C7.25175 4.55292 7.28183 4.59628 7.31367 4.65214L7.67128 5.18456L12.766 5.18456L13.1396 4.65214C13.1777 4.58827 13.2016 4.54491 13.2414 4.49257ZM15.015 4.49257C15.1541 4.68339 15.2258 4.9371 15.2098 5.18456L15.4682 5.18456C15.658 5.18456 15.8088 5.03554 15.8088 4.83944C15.8088 4.6496 15.65 4.49257 15.4682 4.49257Z" fill="white" fill-opacity="0.85"/>
 </g>
</svg>
