<?xml version="1.0" encoding="UTF-8"?>
<!--Generator: Apple Native CoreSVG 341-->
<!DOCTYPE svg
PUBLIC "-//W3C//DTD SVG 1.1//EN"
       "http://www.w3.org/Graphics/SVG/1.1/DTD/svg11.dtd">
<svg version="1.1" xmlns="http://www.w3.org/2000/svg" xmlns:xlink="http://www.w3.org/1999/xlink" viewBox="0 0 20.5381 20.1848">
 <g>
  <rect height="20.1848" opacity="0" width="20.5381" x="0" y="0"/>
  <path d="M10.0875 20.175C15.6576 20.175 20.1767 15.6559 20.1767 10.0875C20.1767 4.51914 15.6576 0 10.0875 0C4.51914 0 0 4.51914 0 10.0875C0 15.6559 4.51914 20.175 10.0875 20.175ZM10.0875 18.1879C5.60839 18.1879 1.9871 14.5666 1.9871 10.0875C1.9871 5.60839 5.60839 1.9871 10.0875 1.9871C14.5666 1.9871 18.1897 5.60839 18.1897 10.0875C18.1897 14.5666 14.5666 18.1879 10.0875 18.1879Z" fill="white" fill-opacity="0.85"/>
  <path d="M5.15468 9.3166C5.79394 9.3166 6.31425 8.79452 6.31425 8.14902C6.31425 7.51327 5.79394 6.98945 5.15468 6.98945C4.51894 6.98945 3.9871 7.51327 3.9871 8.14902C3.9871 8.79452 4.51894 9.3166 5.15468 9.3166ZM8.60624 12.5035L10.1025 12.5035C11.3723 12.5035 11.7221 11.7701 11.6164 10.9506L11.2754 8.21972L13.3488 8.21972C13.6551 8.21972 13.901 7.96405 13.901 7.6498C13.901 7.33554 13.6551 7.09765 13.3488 7.09765L10.5865 7.09765C10.266 7.09765 10.0281 7.32577 10.0281 7.69862L10.0281 10.4605L9.14257 10.4605C8.66034 10.4605 8.26777 10.3016 8.04218 9.933C7.99687 9.8539 7.99687 9.733 8.08925 9.63085L9.43906 8.02265C9.76308 7.64179 9.50117 7.09765 9.03515 7.09765L7.1453 7.09765C6.83905 7.09765 6.58339 7.33554 6.58339 7.6498C6.58339 7.96581 6.82929 8.21972 7.1453 8.21972L7.86425 8.21972L7.10116 9.12402C6.54882 9.79003 6.02929 10.2332 5.20253 10.6133L4.41893 10.9678L4.65975 10.1066C4.74764 9.81191 4.54081 9.50566 4.25585 9.42929C3.95136 9.36093 3.64686 9.54648 3.56874 9.83144L3.06874 11.7969C2.93026 12.3553 3.41405 12.6402 3.89432 12.4254L5.59667 11.675C5.75565 11.6021 5.84901 11.6182 5.97694 11.7123C6.5248 12.19 7.4039 12.5035 8.60624 12.5035ZM17.0258 10.1488L14.357 10.1488C14.318 10.1488 14.2611 10.1648 14.1963 10.1648L12.0203 10.3514L12.0904 10.8902C12.1295 11.1947 12.118 11.4824 12.0416 11.7541L14.4076 11.2771L17.0258 11.2771C17.34 11.2771 17.5957 11.0295 17.5957 10.7152C17.5957 10.401 17.34 10.1488 17.0258 10.1488Z" fill="white" fill-opacity="0.85"/>
 </g>
</svg>
