<?xml version="1.0" encoding="UTF-8"?>
<!--Generator: Apple Native CoreSVG 341-->
<!DOCTYPE svg
PUBLIC "-//W3C//DTD SVG 1.1//EN"
       "http://www.w3.org/Graphics/SVG/1.1/DTD/svg11.dtd">
<svg version="1.1" xmlns="http://www.w3.org/2000/svg" xmlns:xlink="http://www.w3.org/1999/xlink" viewBox="0 0 20.5381 20.1848">
 <g>
  <rect height="20.1848" opacity="0" width="20.5381" x="0" y="0"/>
  <path d="M20.1767 10.0875C20.1767 15.6478 15.6576 20.175 10.0875 20.175C4.52715 20.175 0 15.6478 0 10.0875C0 4.51914 4.52715 0 10.0875 0C15.6576 0 20.1767 4.51914 20.1767 10.0875ZM7.09765 5.87363C6.53222 5.87363 6.38222 6.47363 6.72128 6.81894L7.34394 7.45761L7.11015 7.54648C6.09706 7.96542 5.80859 9.27949 6.7621 9.97734L8.85781 11.5109L7.70429 13.8242C7.56581 14.1029 7.68476 14.4322 7.96347 14.5787C8.18007 14.6994 8.5662 14.6488 8.72773 14.3213L10.0898 11.5988C10.199 11.3805 10.1564 11.1213 9.9789 10.9518L8.35019 9.30527L9.13476 8.91699L11.74 11.524L11.74 11.658C11.74 11.974 11.9975 12.2154 12.3152 12.2154C12.3561 12.2154 12.3826 12.2154 12.4217 12.2057L14.5096 14.2918C14.6303 14.4045 14.6977 14.4223 14.8016 14.4223L16.2949 14.4223C16.4732 14.4223 16.632 14.2635 16.632 14.0834L16.632 13.8117C16.632 13.6236 16.4732 13.4631 16.2949 13.4631L14.6406 13.4631L12.8646 11.6889C12.8727 11.6516 12.8807 11.6303 12.8807 11.593L12.8807 9.16503C12.8807 9.00703 12.8416 8.87656 12.7129 8.75585L10.2408 6.30331C9.95761 6.02812 9.59003 5.87363 9.19941 5.87363ZM5.62909 11.3283L3.48729 11.3283C3.17128 11.3283 2.92186 11.5795 2.92186 11.8973C2.92186 12.2053 3.17128 12.4627 3.48729 12.4627L6.033 12.4627C6.25312 12.4627 6.43593 12.3225 6.53358 12.1352L7.15898 10.8889L6.45859 10.3838C6.28007 10.2603 6.13534 10.1156 6.0582 9.99843ZM10.6709 8.31777L11.74 9.3914L11.74 10.558L9.77167 8.59765L10.4078 8.2787C10.4984 8.22538 10.606 8.25117 10.6709 8.31777ZM10.7977 5.50077C10.7977 6.17109 11.3428 6.70644 12.0113 6.70644C12.6736 6.70644 13.2187 6.17109 13.2187 5.50077C13.2187 4.8207 12.6736 4.28534 12.0113 4.28534C11.3428 4.28534 10.7977 4.8207 10.7977 5.50077Z" fill="white" fill-opacity="0.85"/>
 </g>
</svg>
