<?xml version="1.0" encoding="UTF-8"?>
<!--Generator: Apple Native CoreSVG 341-->
<!DOCTYPE svg
PUBLIC "-//W3C//DTD SVG 1.1//EN"
       "http://www.w3.org/Graphics/SVG/1.1/DTD/svg11.dtd">
<svg version="1.1" xmlns="http://www.w3.org/2000/svg" xmlns:xlink="http://www.w3.org/1999/xlink" viewBox="0 0 20.5381 20.1848">
 <g>
  <rect height="20.1848" opacity="0" width="20.5381" x="0" y="0"/>
  <path d="M10.0875 20.175C15.6576 20.175 20.1767 15.6559 20.1767 10.0875C20.1767 4.51914 15.6576 0 10.0875 0C4.51914 0 0 4.51914 0 10.0875C0 15.6559 4.51914 20.175 10.0875 20.175ZM10.0875 18.1879C5.60839 18.1879 1.9871 14.5666 1.9871 10.0875C1.9871 5.60839 5.60839 1.9871 10.0875 1.9871C14.5666 1.9871 18.1897 5.60839 18.1897 10.0875C18.1897 14.5666 14.5666 18.1879 10.0875 18.1879Z" fill="white" fill-opacity="0.85"/>
  <path d="M12.9705 6.31698C13.6063 6.31698 14.1221 5.79667 14.1221 5.1494C14.1221 4.5119 13.6063 3.98983 12.9705 3.98983C12.317 3.98983 11.8029 4.5119 11.8029 5.1494C11.8029 5.79667 12.317 6.31698 12.9705 6.31698ZM8.93144 10.7799L11.6045 12.8082L10.7715 15.3578C10.6525 15.7422 10.8904 16.0076 11.1736 16.076C11.4373 16.1363 11.7258 16.0271 11.851 15.6738L12.7771 12.7984C12.8535 12.5836 12.8047 12.3492 12.6582 12.2072L10.8785 10.4213L12.9228 8.36093C13.0037 8.28007 13.1246 8.28007 13.2215 8.36093L13.9205 9.05995L12.9551 10.0191C12.7287 10.2473 12.7367 10.5988 12.9551 10.8154C13.1539 11.0223 13.5152 11.0418 13.7416 10.8154L15.1029 9.4621C15.3293 9.23574 15.3195 8.88417 15.1029 8.65956L13.7887 7.33554C13.4752 7.01679 13.0863 6.86405 12.6344 6.86405L6.32323 6.86405C6.01698 6.86405 5.76308 7.10819 5.76308 7.42421C5.76308 7.7287 6.01698 7.98437 6.32323 7.98437L9.94902 7.98437C10.1187 7.98437 10.1943 8.16308 10.0717 8.27597L9.02382 9.33359C8.54257 9.80683 8.60566 10.5242 8.93144 10.7799ZM8.77441 11.2486L8.51679 12.8502L6.00976 12.8502C5.69374 12.8502 5.43808 13.1059 5.43808 13.4121C5.43808 13.7264 5.69374 13.974 6.00976 13.974L8.96152 13.974C9.25449 13.974 9.45956 13.824 9.52968 13.5701L9.95605 12.1551ZM5.78065 9.81191C6.43769 9.81191 6.97929 9.2623 6.97929 8.60527C6.97929 7.94648 6.43769 7.40488 5.78065 7.40488C5.12362 7.40488 4.58202 7.94648 4.58202 8.60527C4.58202 9.2623 5.12362 9.81191 5.78065 9.81191Z" fill="white" fill-opacity="0.85"/>
 </g>
</svg>
