<?xml version="1.0" encoding="UTF-8"?>
<!--Generator: Apple Native CoreSVG 341-->
<!DOCTYPE svg
PUBLIC "-//W3C//DTD SVG 1.1//EN"
       "http://www.w3.org/Graphics/SVG/1.1/DTD/svg11.dtd">
<svg version="1.1" xmlns="http://www.w3.org/2000/svg" xmlns:xlink="http://www.w3.org/1999/xlink" viewBox="0 0 31.0383 20.1699">
 <g>
  <rect height="20.1699" opacity="0" width="31.0383" x="0" y="0"/>
  <path d="M14.9972 8.90937L14.9972 11.3562C14.9972 12.0592 15.5191 12.5748 16.2175 12.5748L18.1716 12.5748C18.8665 12.5748 19.3884 12.0592 19.3884 11.3562L19.3884 8.90937C19.3884 8.20292 18.8665 7.68105 18.1716 7.68105L16.2175 7.68105C15.5191 7.68105 14.9972 8.20292 14.9972 8.90937ZM20.6398 8.90937L20.6398 11.3562C20.6398 12.0592 21.1616 12.5748 21.8646 12.5748L23.8107 12.5748C24.5171 12.5748 25.0247 12.0592 25.0247 11.3562L25.0247 8.90937C25.0247 8.20292 24.5171 7.68105 23.8107 7.68105L21.8646 7.68105C21.1616 7.68105 20.6398 8.20292 20.6398 8.90937ZM26.2726 8.90937L26.2726 11.3562C26.2726 12.0592 26.7944 12.5748 27.4974 12.5748L29.4452 12.5748C30.1534 12.5748 30.6735 12.0592 30.6735 11.3562L30.6735 8.90937C30.6735 8.20292 30.1534 7.68105 29.4452 7.68105L27.4974 7.68105C26.7944 7.68105 26.2726 8.20292 26.2726 8.90937ZM17.2034 11.1795C16.6222 11.1795 16.1323 10.7172 16.1323 10.1146C16.1323 9.54491 16.6222 9.06484 17.2034 9.06484C17.7732 9.06484 18.255 9.54491 18.255 10.1146C18.255 10.7172 17.7732 11.1795 17.2034 11.1795ZM22.8362 11.1795C22.255 11.1795 21.7652 10.7172 21.7652 10.1146C21.7652 9.54491 22.255 9.06484 22.8362 9.06484C23.406 9.06484 23.8993 9.54491 23.8993 10.1146C23.8993 10.7172 23.406 11.1795 22.8362 11.1795ZM28.4788 11.1795C27.8958 11.1795 27.398 10.7172 27.398 10.1146C27.398 9.54491 27.8958 9.06484 28.4788 9.06484C29.0503 9.06484 29.5321 9.54491 29.5321 10.1146C29.5321 10.7172 29.0503 11.1795 28.4788 11.1795ZM20.8419 6.18828L24.7943 6.18828C25.1013 6.18828 25.1581 5.86171 24.9282 5.70996L23.1644 4.49296C22.9329 4.34492 22.7085 4.34492 22.4851 4.49296L20.7177 5.70996C20.4861 5.86171 20.5349 6.18828 20.8419 6.18828Z" fill="white" fill-opacity="0.85"/>
  <path d="M5.9058 4.45742C7.11732 4.45742 8.114 3.43047 8.114 2.24023C8.114 1.00566 7.11732 0 5.9058 0C4.65873 0 3.68686 1.00566 3.68686 2.24023C3.68686 3.44648 4.65873 4.45742 5.9058 4.45742ZM1.62865 12.7146L7.95463 5.6955C7.33763 5.46816 6.66654 5.36523 5.9058 5.36523C3.03627 5.36523 1.34369 6.74804 1.34369 9.05839C1.34369 9.61405 1.36498 10.3578 1.45287 11.1193ZM10.1634 12.7146L10.341 11.1193C10.4306 10.3578 10.4617 9.61405 10.4617 9.05839C10.4617 7.92753 10.0577 7.01503 9.30052 6.39374L4.32064 11.931C4.84994 11.8502 5.37474 11.8164 5.9058 11.8164C7.30814 11.8164 8.72201 12.0037 10.1634 12.7146ZM3.47357 20.1211C4.06986 20.0412 4.48783 19.6117 4.39818 18.8584L4.00052 15.2004L7.78353 15.2004L7.3974 18.8584C7.32377 19.6117 7.71595 20.0412 8.314 20.1211C8.93158 20.1832 9.40365 19.7998 9.48529 19.074L9.99837 14.2689C8.6972 13.5189 7.27533 13.2287 5.9058 13.2287C4.51674 13.2287 3.0851 13.5189 1.80346 14.2689L2.31205 19.074C2.38568 19.7998 2.85424 20.1832 3.47357 20.1211ZM9.30052 6.38573L11.1779 4.29179C11.515 3.9041 11.4937 3.47734 11.1566 3.20234C10.8408 2.92285 10.4353 2.91133 10.0706 3.31855L7.95463 5.6955C8.44076 5.87831 8.90033 6.11523 9.30052 6.38573ZM0.355415 13.4777C-0.0621604 13.7703-0.0736837 14.2226 0.124948 14.5092C0.300533 14.8082 0.693501 14.9449 1.09272 14.6922C1.33412 14.5351 1.55326 14.3994 1.80346 14.2689L1.62865 12.7146C1.16811 12.9223 0.74936 13.1609 0.355415 13.4777ZM11.4482 13.4777C11.0445 13.1609 10.6275 12.9223 10.1634 12.7146L9.99212 14.2689C10.2388 14.3994 10.4615 14.5351 10.6913 14.6922C11.0906 14.9449 11.4755 14.8162 11.6591 14.5252C11.8577 14.2306 11.856 13.7783 11.4482 13.4777Z" fill="white" fill-opacity="0.85"/>
 </g>
</svg>
