<?xml version="1.0" encoding="UTF-8"?>
<!--Generator: Apple Native CoreSVG 341-->
<!DOCTYPE svg
PUBLIC "-//W3C//DTD SVG 1.1//EN"
       "http://www.w3.org/Graphics/SVG/1.1/DTD/svg11.dtd">
<svg version="1.1" xmlns="http://www.w3.org/2000/svg" xmlns:xlink="http://www.w3.org/1999/xlink" viewBox="0 0 16.7668 24.1961">
 <g>
  <rect height="24.1961" opacity="0" width="16.7668" x="0" y="0"/>
  <path d="M7.97773 4.95976C9.183 4.95976 10.1682 3.98437 10.1682 2.75508C10.1682 1.55781 9.183 0.572656 7.97773 0.572656C6.75644 0.572656 5.77929 1.55781 5.77929 2.75508C5.77929 3.98437 6.75644 4.95976 7.97773 4.95976ZM1.02949 23.9414C1.47851 24.1748 2.13515 24.0851 2.44218 23.5297L4.933 19.0469L6.37226 15.814C6.40859 15.7281 6.52206 15.6971 6.59472 15.7627L10.4605 18.5648L10.4605 23.0168C10.4605 23.5998 10.9246 24.0621 11.5014 24.0621C12.0844 24.0621 12.5387 23.5998 12.5387 23.0168L12.5387 18.1008C12.5387 17.807 12.457 17.4965 12.2201 17.2791L8.11972 13.4051L8.48476 10.4359C8.49452 10.324 8.64726 10.3142 8.68632 10.4119L9.54531 12.4594C9.7121 12.8596 10.0812 13.0965 10.5027 13.0965L14.7361 13.0965C15.3111 13.0965 15.7734 12.6359 15.7734 12.0592C15.7734 11.4824 15.3111 11.0219 14.7361 11.0219L11.1824 11.0219L9.76913 7.69902C9.39101 6.82031 8.8248 6.32148 7.55371 5.97089L6.97851 5.81113C5.60527 5.425 4.65468 5.3664 3.53808 5.85195L2.07636 6.4789L2.07636 2.83964C2.07636 2.27617 1.60429 1.81211 1.0373 1.81211C0.462304 1.81211 0 2.27617 0 2.83964L0 8.18085C0 8.9244 0.77285 9.32284 1.44902 9.02558L4.21738 7.81718C4.34258 7.76835 4.45098 7.84472 4.43144 7.9744L3.01992 18.2137L0.616015 22.5297C0.348047 23.0168 0.521094 23.6814 1.02949 23.9414ZM13.9947 9.42656L15.2316 9.42656L15.2316 0.61445C15.2316 0.271288 14.9523 0 14.6092 0C14.266 0 13.9947 0.271288 13.9947 0.61445ZM13.251 10.0738L15.9656 10.0738C16.323 10.0738 16.4826 9.76874 16.3629 9.44062C16.1117 8.69238 15.4168 8.16523 14.6092 8.16523C13.7998 8.16523 13.1066 8.69238 12.8519 9.44414C12.734 9.77753 12.9023 10.0738 13.251 10.0738Z" fill="white" fill-opacity="0.85"/>
 </g>
</svg>
