<?xml version="1.0" encoding="UTF-8"?>
<!--Generator: Apple Native CoreSVG 341-->
<!DOCTYPE svg
PUBLIC "-//W3C//DTD SVG 1.1//EN"
       "http://www.w3.org/Graphics/SVG/1.1/DTD/svg11.dtd">
<svg version="1.1" xmlns="http://www.w3.org/2000/svg" xmlns:xlink="http://www.w3.org/1999/xlink" viewBox="0 0 20.5381 20.1848">
 <g>
  <rect height="20.1848" opacity="0" width="20.5381" x="0" y="0"/>
  <path d="M10.0875 20.175C15.6576 20.175 20.1767 15.6559 20.1767 10.0875C20.1767 4.51914 15.6576 0 10.0875 0C4.51914 0 0 4.51914 0 10.0875C0 15.6559 4.51914 20.175 10.0875 20.175ZM10.0875 18.1879C5.60839 18.1879 1.9871 14.5666 1.9871 10.0875C1.9871 5.60839 5.60839 1.9871 10.0875 1.9871C14.5666 1.9871 18.1897 5.60839 18.1897 10.0875C18.1897 14.5666 14.5666 18.1879 10.0875 18.1879Z" fill="white" fill-opacity="0.85"/>
  <path d="M9.9957 7.9957C10.6332 7.9957 11.1553 7.47363 11.1553 6.83613C11.1553 6.19062 10.6332 5.66679 9.9957 5.66679C9.34043 5.66679 8.82812 6.19062 8.82812 6.83613C8.82812 7.47363 9.34043 7.9957 9.9957 7.9957ZM4.56327 7.34609L8.19843 9.30449C8.31836 9.36132 8.38769 9.48222 8.35039 9.61992L7.97558 11.0037C9.02851 11.1416 9.33456 11.7842 10.1006 11.7842C10.2873 11.7842 10.4305 11.7344 10.5674 11.6748L11.0807 9.77168C11.1277 9.58515 11.1908 9.48652 11.3756 9.39238L15.1893 7.34609C15.492 7.18808 15.6012 6.81523 15.4512 6.51874C15.2754 6.22577 14.9158 6.09706 14.6096 6.26308L10.827 8.27382C10.1982 8.60859 9.62265 8.65214 8.8625 8.24628L5.13319 6.26308C4.83847 6.09882 4.46561 6.22577 4.30761 6.5205C4.15136 6.81523 4.25702 7.18632 4.56327 7.34609ZM10.0988 13.2285C11.5453 13.2285 11.8701 12.3662 12.7932 12.3662C13.7311 12.3662 14.0295 13.2285 15.4777 13.2285L15.8596 13.2285C16.0406 13.2285 16.1986 13.0723 16.1986 12.8895C16.1986 12.7102 16.0406 12.5504 15.8596 12.5504L15.4777 12.5504C14.5088 12.5504 14.173 11.6783 12.7932 11.6783C11.4396 11.6783 11.0758 12.5504 10.0988 12.5504C9.12988 12.5504 8.75976 11.6783 7.40624 11.6783C6.02284 11.6783 5.68886 12.5504 4.71991 12.5504L4.36034 12.5504C4.17303 12.5504 4.01503 12.7102 4.01503 12.8895C4.01503 13.0723 4.17303 13.2285 4.36034 13.2285L4.71991 13.2285C6.16639 13.2285 6.46483 12.3662 7.40624 12.3662C8.32577 12.3662 8.65234 13.2285 10.0988 13.2285ZM4.3578 14.4252C4.55585 14.4252 4.70233 14.2725 4.70233 14.0824C4.70233 13.8924 4.55585 13.7379 4.3578 13.7379C4.16776 13.7379 4.01503 13.8924 4.01503 14.0824C4.01503 14.2725 4.16776 14.4252 4.3578 14.4252ZM5.28847 14.4252C5.4785 14.4252 5.62499 14.2725 5.62499 14.0824C5.62499 13.8924 5.4785 13.7379 5.28847 13.7379C5.09042 13.7379 4.94569 13.8924 4.94569 14.0824C4.94569 14.2725 5.09042 14.4252 5.28847 14.4252ZM6.21913 14.1215C6.40917 14.1215 6.55565 13.9687 6.55565 13.777C6.55565 13.5869 6.40917 13.4342 6.21913 13.4342C6.02108 13.4342 5.87636 13.5869 5.87636 13.777C5.87636 13.9687 6.02108 14.1215 6.21913 14.1215ZM7.21015 13.8658C7.40019 13.8658 7.55292 13.7211 7.55292 13.5311C7.55292 13.333 7.40019 13.1883 7.21015 13.1883C7.02011 13.1883 6.86562 13.333 6.86562 13.5311C6.86562 13.7211 7.02011 13.8658 7.21015 13.8658ZM8.19765 14.1215C8.38769 14.1215 8.54042 13.9687 8.54042 13.777C8.54042 13.5869 8.38769 13.4342 8.19765 13.4342C8.00761 13.4342 7.85487 13.5869 7.85487 13.777C7.85487 13.9687 8.00761 14.1215 8.19765 14.1215ZM9.12031 14.5521C9.31835 14.5521 9.46308 14.3994 9.46308 14.2076C9.46308 14.0176 9.31835 13.8648 9.12031 13.8648C8.93027 13.8648 8.78378 14.0176 8.78378 14.2076C8.78378 14.3994 8.93027 14.5521 9.12031 14.5521ZM10.0988 14.7307C10.2889 14.7307 10.4416 14.5779 10.4416 14.3879C10.4416 14.1898 10.2889 14.0451 10.0988 14.0451C9.90878 14.0451 9.75605 14.1898 9.75605 14.3879C9.75605 14.5779 9.90878 14.7307 10.0988 14.7307ZM11.0853 14.5521C11.2754 14.5521 11.4281 14.3994 11.4281 14.2076C11.4281 14.0176 11.2754 13.8648 11.0853 13.8648C10.8953 13.8648 10.7408 14.0176 10.7408 14.2076C10.7408 14.3994 10.8953 14.5521 11.0853 14.5521ZM12.0062 14.1215C12.2043 14.1215 12.3508 13.9687 12.3508 13.777C12.3508 13.5869 12.2043 13.4342 12.0062 13.4342C11.8162 13.4342 11.6715 13.5869 11.6715 13.777C11.6715 13.9687 11.8162 14.1215 12.0062 14.1215ZM13.0115 13.8658C13.2016 13.8658 13.3463 13.7211 13.3463 13.5311C13.3463 13.333 13.2016 13.1883 13.0115 13.1883C12.8135 13.1883 12.667 13.333 12.667 13.5311C12.667 13.7211 12.8135 13.8658 13.0115 13.8658ZM14.0008 14.1215C14.1908 14.1215 14.3436 13.9687 14.3436 13.777C14.3436 13.5869 14.1908 13.4342 14.0008 13.4342C13.8027 13.4342 13.658 13.5869 13.658 13.777C13.658 13.9687 13.8027 14.1215 14.0008 14.1215ZM14.9234 14.4252C15.1135 14.4252 15.2662 14.2725 15.2662 14.0824C15.2662 13.8924 15.1135 13.7379 14.9234 13.7379C14.7334 13.7379 14.5807 13.8924 14.5807 14.0824C14.5807 14.2725 14.7334 14.4252 14.9234 14.4252ZM15.8559 14.4252C16.0459 14.4252 16.1986 14.2725 16.1986 14.0824C16.1986 13.8924 16.0459 13.7379 15.8559 13.7379C15.6658 13.7379 15.5131 13.8924 15.5131 14.0824C15.5131 14.2725 15.6658 14.4252 15.8559 14.4252Z" fill="white" fill-opacity="0.85"/>
 </g>
</svg>
