<?xml version="1.0" encoding="UTF-8"?>
<!--Generator: Apple Native CoreSVG 341-->
<!DOCTYPE svg
PUBLIC "-//W3C//DTD SVG 1.1//EN"
       "http://www.w3.org/Graphics/SVG/1.1/DTD/svg11.dtd">
<svg version="1.1" xmlns="http://www.w3.org/2000/svg" xmlns:xlink="http://www.w3.org/1999/xlink" viewBox="0 0 20.5381 20.1848">
 <g>
  <rect height="20.1848" opacity="0" width="20.5381" x="0" y="0"/>
  <path d="M10.0875 20.175C15.6576 20.175 20.1767 15.6559 20.1767 10.0875C20.1767 4.51914 15.6576 0 10.0875 0C4.51914 0 0 4.51914 0 10.0875C0 15.6559 4.51914 20.175 10.0875 20.175ZM10.0875 18.1879C5.60839 18.1879 1.9871 14.5666 1.9871 10.0875C1.9871 5.60839 5.60839 1.9871 10.0875 1.9871C14.5666 1.9871 18.1897 5.60839 18.1897 10.0875C18.1897 14.5666 14.5666 18.1879 10.0875 18.1879Z" fill="white" fill-opacity="0.85"/>
  <path d="M13.4211 8.80019C14.0586 8.80019 14.5887 8.27812 14.5887 7.64062C14.5887 6.98886 14.0586 6.47304 13.4211 6.47304C12.7756 6.47304 12.2535 6.98886 12.2535 7.64062C12.2535 8.27812 12.7756 8.80019 13.4211 8.80019ZM9.74316 12.9852L11.8475 12.9852L13.9965 10.7978C14.0924 10.6957 14.2656 10.7019 14.3615 10.7978L15.224 11.6666L14.3314 12.5609C13.8361 13.0545 14.5773 13.7922 15.0691 13.3084L16.3381 12.0314C16.5529 11.8068 16.5449 11.5006 16.3381 11.284L14.8533 9.80898C14.5559 9.51152 14.1785 9.3455 13.7736 9.3455L9.88164 9.3455L9.88164 10.409L11.1508 10.409C11.2449 10.409 11.285 10.4951 11.2236 10.5564L9.74316 12.0369ZM4.75077 12.9852L10.1309 12.9852L10.1309 3.47851C10.1309 3.04706 9.49081 2.86503 9.22089 3.35604L4.34237 12.2314C4.13554 12.6141 4.36015 12.9852 4.75077 12.9852ZM5.19745 12.2859C5.15311 12.2859 5.1496 12.2594 5.17089 12.2266L9.36425 4.57069C9.38379 4.51385 9.42988 4.53162 9.42988 4.5742L9.42988 12.2859ZM4.66327 15.1807L4.69257 15.1807C6.15058 15.1807 6.44726 14.3246 7.38515 14.3246C8.32304 14.3246 8.63124 15.1807 10.0795 15.1807C11.5277 15.1807 11.8279 14.3246 12.7641 14.3246C13.71 14.3246 14.0102 15.1807 15.4584 15.1807L15.4859 15.1807C15.6688 15.1807 15.8285 15.0209 15.8285 14.8363C15.8285 14.6535 15.6688 14.4955 15.4859 14.4955L15.4584 14.4955C14.4832 14.4955 14.1475 13.6395 12.7641 13.6395C11.3904 13.6395 11.0449 14.4955 10.0795 14.4955C9.09628 14.4955 8.76679 13.6395 7.38515 13.6395C6.00351 13.6395 5.66776 14.4955 4.69257 14.4955L4.66327 14.4955C4.4787 14.4955 4.32069 14.6535 4.32069 14.8363C4.32069 15.0209 4.4787 15.1807 4.66327 15.1807Z" fill="white" fill-opacity="0.85"/>
 </g>
</svg>
