<?xml version="1.0" encoding="UTF-8"?>
<!--Generator: Apple Native CoreSVG 341-->
<!DOCTYPE svg
PUBLIC "-//W3C//DTD SVG 1.1//EN"
       "http://www.w3.org/Graphics/SVG/1.1/DTD/svg11.dtd">
<svg version="1.1" xmlns="http://www.w3.org/2000/svg" xmlns:xlink="http://www.w3.org/1999/xlink" viewBox="0 0 19.7254 23.5523">
 <g>
  <rect height="23.5523" opacity="0" width="19.7254" x="0" y="0"/>
  <path d="M9.5621 7.50449C10.7754 7.50449 11.7588 6.52109 11.7588 5.30781C11.7588 4.09453 10.7754 3.11738 9.5621 3.11738C8.34882 3.11738 7.37168 4.09453 7.37168 5.30781C7.37168 6.52109 8.34882 7.50449 9.5621 7.50449ZM18.3267 23.5523C18.9 23.5523 19.3641 23.0803 19.3641 22.5133L19.3641 17.5094C19.3641 17.1385 19.168 16.8625 18.9053 16.6406L15.0357 13.4502L14.2705 9.30097C14.2004 8.88105 14.251 8.48144 14.4543 8.07304L17.7201 1.54941C17.9783 1.03476 17.7627 0.407422 17.248 0.149219C16.7334-0.105468 16.106 0.0986332 15.8514 0.603515L12.6424 7.03925C12.4195 7.4832 12.1025 7.77441 11.6275 7.96797L5.99316 10.3062L3.73378 8.49433C3.5871 8.3832 3.41992 8.33789 3.27323 8.33086L3.27323 5.52227L2.03633 5.52227L2.03633 9.27597C2.03633 9.61679 2.14629 9.91757 2.41074 10.1297L5.19453 12.3418C5.54511 12.6142 5.94433 12.5982 6.38632 12.4172L9.47988 11.1221C9.86914 10.9523 10.0769 11.1701 10.1223 11.4473L11.6465 19.8531L7.43496 21.5381C6.90879 21.7439 6.64258 22.35 6.84668 22.8939C7.08984 23.4824 7.6791 23.6721 8.20429 23.4609L13.2082 21.4654C13.6607 21.2826 13.8976 20.8363 13.8666 20.3695L13.5799 16.4814C13.5541 16.0834 13.9824 15.8516 14.2969 16.0639L17.2859 18.0666L17.2859 22.5133C17.2859 23.0803 17.742 23.5523 18.3267 23.5523ZM2.65878 0.258402C1.16875 0.258402 0 1.43867 0 2.93848C0 4.29629 1.1625 5.78554 2.65878 6.28261C4.15683 5.78554 5.3078 4.29629 5.3078 2.93848C5.3078 1.43867 4.14081 0.258402 2.65878 0.258402ZM2.65878 1.49531C3.45625 1.49531 4.0709 2.12773 4.0709 2.96777C4.0709 3.78828 3.47851 4.65957 2.65878 4.94903C1.8373 4.65957 1.23691 3.78828 1.23691 2.96777C1.23691 2.12773 1.8498 1.49531 2.65878 1.49531Z" fill="white" fill-opacity="0.85"/>
 </g>
</svg>
