<?xml version="1.0" encoding="UTF-8"?>
<!--Generator: Apple Native CoreSVG 341-->
<!DOCTYPE svg
PUBLIC "-//W3C//DTD SVG 1.1//EN"
       "http://www.w3.org/Graphics/SVG/1.1/DTD/svg11.dtd">
<svg version="1.1" xmlns="http://www.w3.org/2000/svg" xmlns:xlink="http://www.w3.org/1999/xlink" viewBox="0 0 20.5381 20.1848">
 <g>
  <rect height="20.1848" opacity="0" width="20.5381" x="0" y="0"/>
  <path d="M20.1767 10.0875C20.1767 15.6478 15.6576 20.175 10.0875 20.175C4.52715 20.175 0 15.6478 0 10.0875C0 4.51914 4.52715 0 10.0875 0C15.6576 0 20.1767 4.51914 20.1767 10.0875ZM12.6826 13.4029L11.6352 13.4029C11.44 13.4029 11.2687 13.5502 11.2687 13.7676L11.2687 14.6869L9.59999 14.6869C9.40039 14.6869 9.23535 14.8617 9.23535 15.0596L9.23535 15.9771L7.57284 15.9771C7.37499 15.9771 7.19394 16.1422 7.19394 16.34C7.19394 16.5539 7.37675 16.7109 7.57284 16.7109L9.59999 16.7109C9.80585 16.7109 9.96288 16.5477 9.96288 16.34L9.96288 15.4322L11.6352 15.4322C11.8393 15.4322 12.0078 15.2557 12.0078 15.0596L12.0078 14.1402L13.0455 14.1402C13.2336 14.1402 13.3986 13.9734 13.4102 13.7773L13.602 8.82245C13.5053 8.84374 13.4406 8.85526 12.8727 8.79491ZM7.48886 12.7299L6.08945 14.8246C5.84531 15.201 5.98554 15.5383 6.2332 15.6865C6.46933 15.8152 6.80839 15.7682 7.02499 15.4504L8.50078 13.2367C8.56738 13.1488 8.59042 13.0477 8.61972 12.9029L8.85156 11.4836L7.98867 11.283C7.78535 11.2359 7.6416 11.1721 7.59101 11.1348ZM7.39296 7.00077L7.08574 9.31835C6.99609 10.01 7.41953 10.6394 8.09785 10.8055L10.1475 11.2672L9.55957 13.2111C9.44062 13.6266 9.70156 13.907 10.0016 13.9576C10.259 14.0029 10.5519 13.8742 10.6434 13.5387L11.3795 11.0728C11.4789 10.7115 11.3404 10.4195 11.0146 10.3006L9.11074 9.61679L9.39492 7.66484C9.40292 7.56347 9.49179 7.53417 9.5789 7.57948L10.5309 8.0164C10.6561 8.06523 10.7652 8.08652 10.9277 8.10429L13.343 8.35644C13.6607 8.38573 13.9395 8.15585 13.9607 7.83984C13.99 7.54159 13.7619 7.26464 13.4539 7.22382L10.9934 6.9912L9.1455 6.13964C8.33671 5.7703 7.49238 6.18847 7.39296 7.00077ZM14.5205 6.4789C14.2789 6.59081 14.0373 6.71523 13.8277 6.82538C14.0859 6.93808 14.2713 7.12968 14.377 7.3914C14.5332 7.30878 14.6816 7.21366 14.8363 7.14433C15.0289 7.04491 15.0963 6.83202 15.0174 6.65995C14.926 6.45937 14.7006 6.39198 14.5205 6.4789ZM7.97636 4.39394C7.97636 5.06425 8.51523 5.60937 9.18554 5.60937C9.84785 5.60937 10.3912 5.06425 10.3912 4.39394C10.3912 3.73163 9.84785 3.19628 9.18554 3.19628C8.51523 3.19628 7.97636 3.73163 7.97636 4.39394Z" fill="white" fill-opacity="0.85"/>
 </g>
</svg>
