<?xml version="1.0" encoding="UTF-8"?>
<!--Generator: Apple Native CoreSVG 341-->
<!DOCTYPE svg
PUBLIC "-//W3C//DTD SVG 1.1//EN"
       "http://www.w3.org/Graphics/SVG/1.1/DTD/svg11.dtd">
<svg version="1.1" xmlns="http://www.w3.org/2000/svg" xmlns:xlink="http://www.w3.org/1999/xlink" viewBox="0 0 20.5381 20.1848">
 <g>
  <rect height="20.1848" opacity="0" width="20.5381" x="0" y="0"/>
  <path d="M20.1767 10.0875C20.1767 15.6478 15.6576 20.175 10.0875 20.175C4.52715 20.175 0 15.6478 0 10.0875C0 4.51914 4.52715 0 10.0875 0C15.6576 0 20.1767 4.51914 20.1767 10.0875ZM9.1623 6.80917C8.61894 6.80917 8.15644 7.09238 7.89628 7.58866L5.43652 12.51L4.06444 11.1379C3.82655 10.916 3.46796 10.9178 3.25136 11.1379C3.03124 11.3695 3.02323 11.7166 3.25136 11.951L5.21816 13.9195C5.45429 14.1672 5.84218 14.1379 6.04276 13.8477L7.65351 11.4812C7.73437 11.3533 7.90859 11.3453 8.02675 11.4182L10.0158 12.9455L10.0158 15.7062C10.0158 16.0258 10.2697 16.2734 10.5795 16.2734C10.899 16.2734 11.1644 16.0258 11.1644 15.7062L11.1644 12.649C11.1644 12.5008 11.0961 12.3525 10.9949 12.2514L9.06972 10.3244L10.1078 8.24823C10.2037 8.05995 10.3734 7.95956 10.5715 7.95956L14.7879 7.95956C15.1057 7.95956 15.3729 7.70214 15.3729 7.38437C15.3729 7.05859 15.1057 6.80917 14.7879 6.80917ZM10.6049 8.45663C10.5623 8.45663 10.5553 8.46015 10.534 8.50097L10.0998 9.36757L11.0156 10.2914C11.1186 10.3943 11.273 10.4529 11.4133 10.4529L13.4 10.4529C13.7178 10.4529 13.9654 10.1955 13.9654 9.87949C13.9654 9.55996 13.7178 9.31054 13.4 9.31054L11.6609 9.31054L10.8088 8.45663ZM14.4293 9.27538C14.4293 9.83378 15.0623 10.2715 15.8463 10.2715C16.6125 10.2715 17.2455 9.83378 17.2455 9.27538C17.2455 8.74101 16.6125 8.2953 15.8463 8.2953C15.0623 8.2953 14.4293 8.74101 14.4293 9.27538ZM9.1039 5.02714C9.1039 5.70546 9.63925 6.24081 10.3193 6.24081C10.9816 6.24081 11.5107 5.70546 11.5107 5.02714C11.5107 4.36484 10.9816 3.82773 10.3193 3.82773C9.63925 3.82773 9.1039 4.36484 9.1039 5.02714Z" fill="white" fill-opacity="0.85"/>
 </g>
</svg>
