<?xml version="1.0" encoding="UTF-8"?>
<!--Generator: Apple Native CoreSVG 341-->
<!DOCTYPE svg
PUBLIC "-//W3C//DTD SVG 1.1//EN"
       "http://www.w3.org/Graphics/SVG/1.1/DTD/svg11.dtd">
<svg version="1.1" xmlns="http://www.w3.org/2000/svg" xmlns:xlink="http://www.w3.org/1999/xlink" viewBox="0 0 20.5381 20.1848">
 <g>
  <rect height="20.1848" opacity="0" width="20.5381" x="0" y="0"/>
  <path d="M20.1767 10.0875C20.1767 15.6478 15.6576 20.175 10.0875 20.175C4.52715 20.175 0 15.6478 0 10.0875C0 4.51914 4.52715 0 10.0875 0C15.6576 0 20.1767 4.51914 20.1767 10.0875ZM13.0098 4.04277L11.3584 7.33749C11.235 7.58085 11.06 7.73183 10.7953 7.85527L7.68827 9.15351L6.44062 8.15273C6.34901 8.07714 6.26718 8.06113 6.17831 8.04784L6.17831 7.09843C6.83983 6.72909 7.29804 6.03651 7.29804 5.39726C7.29804 4.57343 6.66151 3.90761 5.83769 3.90761C5.01562 3.90761 4.37382 4.57343 4.37382 5.39726C4.37382 6.04452 4.84355 6.73534 5.49706 7.09667L5.49706 8.57343C5.49706 8.7705 5.56269 8.9205 5.70116 9.03769L7.24179 10.2666C7.4371 10.4211 7.65898 10.4033 7.89335 10.2977L9.61152 9.59706C9.82128 9.5082 9.94921 9.61308 9.97675 9.7748L10.815 14.427L8.48398 15.3514C8.1955 15.4703 8.04726 15.8076 8.15468 16.1059C8.29316 16.4264 8.62695 16.5203 8.90292 16.4156L11.6725 15.3119C11.9281 15.2107 12.0426 14.9568 12.0293 14.7074L11.8828 12.5586C11.865 12.3391 12.1041 12.1996 12.2773 12.3258L13.9264 13.4322L13.9264 15.8057C13.9264 16.1172 14.1838 16.3809 14.5016 16.3809C14.8193 16.3809 15.0705 16.1172 15.0705 15.8057L15.0705 13.126C15.0705 12.9271 14.9676 12.7611 14.8211 12.6422L12.6793 10.8822L12.2602 8.58769C12.2131 8.35058 12.2486 8.13652 12.3543 7.90917L14.0269 4.56562C14.1734 4.27714 14.0625 3.93984 13.7758 3.79159C13.4953 3.65312 13.1482 3.7623 13.0098 4.04277ZM8.44433 6.3832C8.44433 7.04726 8.98945 7.59238 9.65976 7.59238C10.3238 7.59238 10.8672 7.04726 10.8672 6.3832C10.8672 5.71464 10.3238 5.16777 9.65976 5.16777C8.98945 5.16777 8.44433 5.71464 8.44433 6.3832ZM6.62031 5.40702C6.62031 5.86444 6.29784 6.34062 5.83769 6.51113C5.37577 6.34062 5.05507 5.86444 5.05507 5.40702C5.05507 4.94159 5.39179 4.60136 5.83769 4.60136C6.28359 4.60136 6.62031 4.94159 6.62031 5.40702Z" fill="white" fill-opacity="0.85"/>
 </g>
</svg>
