<?xml version="1.0" encoding="UTF-8"?>
<!--Generator: Apple Native CoreSVG 341-->
<!DOCTYPE svg
PUBLIC "-//W3C//DTD SVG 1.1//EN"
       "http://www.w3.org/Graphics/SVG/1.1/DTD/svg11.dtd">
<svg version="1.1" xmlns="http://www.w3.org/2000/svg" xmlns:xlink="http://www.w3.org/1999/xlink" viewBox="0 0 20.5381 20.1848">
 <g>
  <rect height="20.1848" opacity="0" width="20.5381" x="0" y="0"/>
  <path d="M20.1767 10.0875C20.1767 15.6478 15.6576 20.175 10.0875 20.175C4.52715 20.175 0 15.6478 0 10.0875C0 4.51914 4.52715 0 10.0875 0C15.6576 0 20.1767 4.51914 20.1767 10.0875ZM14.2012 12.3812C13.9936 12.3812 13.84 12.5596 13.84 12.7459L13.84 13.7514L12.4482 13.7514C12.2389 13.7514 12.0836 13.9199 12.0836 14.1178L12.0836 15.1135L10.6953 15.1135C10.5055 15.1135 10.3307 15.2705 10.3307 15.4764L10.3307 16.4693L8.94062 16.4693C8.74277 16.4693 8.57773 16.6406 8.57773 16.8207C8.57773 17.0266 8.74277 17.2031 8.94062 17.2031L10.6953 17.2031C10.9074 17.2031 11.0697 17.0301 11.0697 16.8207L11.0697 15.841L12.4482 15.841C12.6381 15.841 12.8049 15.6777 12.8049 15.4764L12.8049 14.4789L14.2012 14.4789C14.4168 14.4789 14.5676 14.3059 14.5676 14.1178L14.5676 13.1186L15.9016 13.1186C16.1057 13.1186 16.2742 12.9437 16.2742 12.7459C16.2742 12.5578 16.1137 12.3812 15.9016 12.3812ZM8.10585 13.1625L6.54745 15.5041C6.36816 15.7633 6.43827 16.1184 6.70722 16.2896C6.91406 16.4201 7.28066 16.4201 7.48925 16.1219L9.10175 13.7049C9.18163 13.5992 9.2207 13.5078 9.23847 13.3613L9.46406 11.7973L8.58437 11.5887C8.45742 11.5594 8.33046 11.5123 8.21953 11.4715ZM7.93437 5.97734L6.16738 7.09081C6.00136 7.19023 5.90019 7.36952 5.90019 7.56659L5.90019 9.76249C5.90019 10.0785 6.16562 10.3394 6.46562 10.3394C6.78339 10.3394 7.03456 10.0785 7.03456 9.76249L7.03456 7.88437L7.77285 7.42148C7.82792 7.38241 7.90878 7.42148 7.90078 7.51034L7.64589 9.49609C7.54824 10.2863 7.81191 10.8252 8.71308 11.0303L10.9775 11.5711L10.3586 13.6127C10.2769 13.8994 10.3896 14.2172 10.7465 14.3103C10.9666 14.3752 11.3332 14.2988 11.4424 13.9305L12.2371 11.3119C12.325 11.0074 12.1963 10.7074 11.882 10.6062L9.74902 9.86738L10.0102 8.09101C10.0182 7.98612 10.1488 7.96835 10.1861 8.05898L10.6463 8.91972C10.7475 9.12656 10.9348 9.22773 11.1389 9.22773L13.3348 9.22773C13.649 9.22773 13.91 8.97831 13.91 8.66855C13.91 8.36054 13.6508 8.10488 13.3348 8.10488L11.4939 8.10488L10.7889 6.68671C10.55 6.233 10.1416 5.91073 9.61777 5.81308L9.31054 5.74648C8.75742 5.63905 8.29042 5.75624 7.93437 5.97734ZM8.82597 4.12421C8.82597 4.79276 9.38085 5.32987 10.0432 5.32987C10.7072 5.32987 11.2506 4.79276 11.2506 4.12421C11.2506 3.46191 10.7072 2.90878 10.0432 2.90878C9.38085 2.90878 8.82597 3.46191 8.82597 4.12421Z" fill="white" fill-opacity="0.85"/>
 </g>
</svg>
