<?xml version="1.0" encoding="UTF-8"?>
<!--Generator: Apple Native CoreSVG 341-->
<!DOCTYPE svg
PUBLIC "-//W3C//DTD SVG 1.1//EN"
       "http://www.w3.org/Graphics/SVG/1.1/DTD/svg11.dtd">
<svg version="1.1" xmlns="http://www.w3.org/2000/svg" xmlns:xlink="http://www.w3.org/1999/xlink" viewBox="0 0 20.5381 20.1848">
 <g>
  <rect height="20.1848" opacity="0" width="20.5381" x="0" y="0"/>
  <path d="M20.1767 10.0875C20.1767 15.6478 15.6576 20.175 10.0875 20.175C4.52715 20.175 0 15.6478 0 10.0875C0 4.51914 4.52715 0 10.0875 0C15.6576 0 20.1767 4.51914 20.1767 10.0875ZM9.74452 14.5545C9.74452 14.748 9.89902 14.9025 10.1006 14.9025C10.3004 14.9025 10.4549 14.748 10.4549 14.5545C10.4549 14.3467 10.3004 14.1922 10.1006 14.1922C9.89902 14.1922 9.74452 14.3467 9.74452 14.5545ZM8.73593 14.3644C8.73593 14.566 8.88417 14.7205 9.08398 14.7205C9.29179 14.7205 9.44003 14.566 9.44003 14.3644C9.44003 14.1646 9.29179 14.0102 9.08398 14.0102C8.88417 14.0102 8.73593 14.1646 8.73593 14.3644ZM10.7674 14.3644C10.7674 14.566 10.9219 14.7205 11.1217 14.7205C11.3232 14.7205 11.4777 14.566 11.4777 14.3644C11.4777 14.1646 11.3232 14.0102 11.1217 14.0102C10.9219 14.0102 10.7674 14.1646 10.7674 14.3644ZM3.77929 14.2375C3.77929 14.4293 3.94354 14.5936 4.13534 14.5936C4.34315 14.5936 4.4994 14.4293 4.4994 14.2375C4.4994 14.0377 4.34315 13.8734 4.13534 13.8734C3.94354 13.8734 3.77929 14.0377 3.77929 14.2375ZM4.74804 14.2375C4.74804 14.4293 4.90253 14.5936 5.10233 14.5936C5.3039 14.5936 5.45839 14.4293 5.45839 14.2375C5.45839 14.0377 5.3039 13.8734 5.10233 13.8734C4.90253 13.8734 4.74804 14.0377 4.74804 14.2375ZM14.749 14.2375C14.749 14.4293 14.9098 14.5936 15.1131 14.5936C15.3049 14.5936 15.4656 14.4293 15.4656 14.2375C15.4656 14.0377 15.3049 13.8734 15.1131 13.8734C14.9098 13.8734 14.749 14.0377 14.749 14.2375ZM15.716 14.2375C15.716 14.4293 15.8803 14.5936 16.0801 14.5936C16.2719 14.5936 16.4361 14.4293 16.4361 14.2375C16.4361 14.0377 16.2719 13.8734 16.0801 13.8734C15.8803 13.8734 15.716 14.0377 15.716 14.2375ZM5.71327 13.9205C5.71327 14.1141 5.86776 14.2766 6.06933 14.2766C6.26913 14.2766 6.42362 14.1141 6.42362 13.9205C6.42362 13.7207 6.26913 13.5582 6.06933 13.5582C5.86776 13.5582 5.71327 13.7207 5.71327 13.9205ZM7.7707 13.9205C7.7707 14.1141 7.92519 14.2766 8.12675 14.2766C8.32656 14.2766 8.48281 14.1141 8.48281 13.9205C8.48281 13.7207 8.32656 13.5582 8.12675 13.5582C7.92519 13.5582 7.7707 13.7207 7.7707 13.9205ZM11.7326 13.9205C11.7326 14.1141 11.8791 14.2766 12.0789 14.2766C12.2885 14.2766 12.435 14.1141 12.435 13.9205C12.435 13.7207 12.2885 13.5582 12.0789 13.5582C11.8791 13.5582 11.7326 13.7207 11.7326 13.9205ZM13.79 13.9205C13.79 14.1141 13.9445 14.2766 14.1541 14.2766C14.3459 14.2766 14.5084 14.1141 14.5084 13.9205C14.5084 13.7207 14.3459 13.5582 14.1541 13.5582C13.9445 13.5582 13.79 13.7207 13.79 13.9205ZM6.7371 13.6613C6.7371 13.8549 6.90136 14.0094 7.10116 14.0094C7.29648 14.0094 7.45722 13.8549 7.45722 13.6613C7.45722 13.4535 7.29648 13.307 7.10116 13.307C6.90136 13.307 6.7371 13.4535 6.7371 13.6613ZM12.7644 13.6613C12.7644 13.8549 12.9207 14.0094 13.1205 14.0094C13.3203 14.0094 13.4766 13.8549 13.4766 13.6613C13.4766 13.4535 13.3203 13.307 13.1205 13.307C12.9207 13.307 12.7644 13.4535 12.7644 13.6613ZM10.1006 12.6426C9.09706 12.6426 8.71015 11.7359 7.30253 11.7359C5.87128 11.7359 5.52401 12.6426 4.5205 12.6426L4.13964 12.6426C3.94706 12.6426 3.77929 12.8041 3.77929 12.9949C3.77929 13.1795 3.94706 13.3473 4.13964 13.3473L4.5205 13.3473C6.01659 13.3473 6.32655 12.4504 7.30253 12.4504C8.25488 12.4504 8.59472 13.3473 10.1006 13.3473C11.6047 13.3473 11.9428 12.4504 12.8986 12.4504C13.8711 12.4504 14.1828 13.3473 15.6789 13.3473L16.082 13.3473C16.2666 13.3473 16.4361 13.1795 16.4361 12.9949C16.4361 12.8041 16.2666 12.6426 16.082 12.6426L15.6789 12.6426C14.6754 12.6426 14.3264 11.7359 12.8986 11.7359C11.4893 11.7359 11.1121 12.6426 10.1006 12.6426ZM14.7772 6.10976L10.8545 8.19941C10.1947 8.54746 9.6041 8.59101 8.81289 8.17187L4.94355 6.10976C4.6373 5.93398 4.25116 6.0707 4.08339 6.38046C3.92362 6.68671 4.03105 7.07109 4.34882 7.23261L8.1205 9.26992C8.24218 9.32675 8.32129 9.45742 8.27597 9.59511L7.88789 11.033C8.98867 11.1727 9.30976 11.8418 10.1023 11.8418C10.2953 11.8418 10.442 11.7902 10.5869 11.7324L11.1135 9.75839C11.1605 9.56035 11.2316 9.46171 11.4199 9.35957L15.3816 7.23261C15.6959 7.0746 15.8068 6.68671 15.6551 6.37695C15.4695 6.0707 15.0949 5.93222 14.7772 6.10976ZM8.775 6.7041C8.775 7.36816 9.31035 7.91152 9.99043 7.91152C10.6527 7.91152 11.1978 7.36816 11.1978 6.7041C11.1978 6.03378 10.6527 5.48867 9.99043 5.48867C9.31035 5.48867 8.775 6.03378 8.775 6.7041Z" fill="white" fill-opacity="0.85"/>
 </g>
</svg>
