<?xml version="1.0" encoding="UTF-8"?>
<!--Generator: Apple Native CoreSVG 341-->
<!DOCTYPE svg
PUBLIC "-//W3C//DTD SVG 1.1//EN"
       "http://www.w3.org/Graphics/SVG/1.1/DTD/svg11.dtd">
<svg version="1.1" xmlns="http://www.w3.org/2000/svg" xmlns:xlink="http://www.w3.org/1999/xlink" viewBox="0 0 32.0189 20.5086">
 <g>
  <rect height="20.5086" opacity="0" width="32.0189" x="0" y="0"/>
  <path d="M26.274 5.56191C27.7863 5.56191 28.9986 4.30606 28.9986 2.8461C28.9986 1.32403 27.7863 0.0957096 26.274 0.0957096C24.7537 0.0957096 23.5404 1.32403 23.5404 2.8461C23.5404 4.33809 24.7537 5.56191 26.274 5.56191ZM10.1074 19.9584C10.6469 20.5138 11.5547 20.473 12.2068 19.7898L16.5107 15.3519C16.658 15.1967 16.7644 15.1629 16.9881 15.2525L20.2957 16.498C22.4525 17.3209 24.5703 16.5607 25.5437 14.7967L27.6549 10.9588C28.5015 9.41367 28.2256 7.84257 26.7691 7.05097C25.3437 6.27265 23.8758 6.85312 23.0176 8.43027L20.2172 13.5189L17.8613 12.6535C16.6394 12.209 15.6262 12.3527 14.6555 13.3642L10.1988 17.9832C9.5582 18.6469 9.61855 19.4633 10.1074 19.9584Z" fill="white" fill-opacity="0.85"/>
  <path d="M0.180847 3.4705L2.82128 6.83281C2.95428 7.0084 3.15917 7.03242 3.34452 6.93476C3.97577 6.60976 4.86464 6.38164 5.56522 6.38164C6.27557 6.38164 7.1662 6.60976 7.77792 6.93476C7.98104 7.03242 8.18417 7.00664 8.30741 6.83281L10.9576 3.4705C11.2406 3.10586 11.1883 2.72891 10.8494 2.45918C9.76014 1.61856 7.70585 0.992578 5.56522 0.992578C3.4326 0.992578 1.38182 1.61856 0.298815 2.45918C-0.0560668 2.72891-0.0941524 3.10762 0.180847 3.4705ZM2.9453 8.80644C2.64257 8.40781 2.51561 8.04023 2.51561 7.63984C2.51561 6.72363 3.25428 6.50156 3.25428 5.96269C3.25428 5.41758 2.51561 5.2 2.51561 4.25625C2.51561 3.86914 2.64257 3.50156 2.9453 3.10918C3.28885 2.69726 3.9076 3.14023 3.57206 3.57343C3.36073 3.87265 3.30565 4.03691 3.30565 4.25625C3.30565 4.91504 4.0328 5.09531 4.0328 5.96269C4.0328 6.82207 3.30565 7.00859 3.30565 7.63984C3.30565 7.88672 3.36073 8.03672 3.57206 8.34219C3.8996 8.76914 3.28885 9.22187 2.9453 8.80644ZM5.24374 8.80644C4.95702 8.40781 4.82381 8.04023 4.82381 7.63984C4.82381 6.72363 5.56073 6.50156 5.56073 5.96269C5.56073 5.41758 4.82381 5.2 4.82381 4.25625C4.82381 3.86914 4.94901 3.50156 5.24374 3.10918C5.58729 2.69726 6.21581 3.14023 5.89003 3.57343C5.66717 3.87265 5.61034 4.03691 5.61034 4.25625C5.61034 4.91504 6.34549 5.09531 6.34549 5.96269C6.34549 6.82207 5.61034 7.00859 5.61034 7.63984C5.61034 7.88672 5.66717 8.03672 5.88202 8.34219C6.2078 8.76914 5.58729 9.22187 5.24374 8.80644ZM7.56796 8.80644C7.26698 8.40781 7.13202 8.04023 7.13202 7.63984C7.13202 6.72363 7.8787 6.50156 7.8787 5.96269C7.8787 5.41758 7.13202 5.2 7.13202 4.25625C7.13202 3.86914 7.25897 3.50156 7.57596 3.10918C7.91327 2.69726 8.52401 3.14023 8.19823 3.57343C7.98338 3.87265 7.91854 4.03691 7.91854 4.25625C7.91854 4.91504 8.65546 5.09531 8.65546 5.96269C8.65546 6.82207 7.91854 7.00859 7.91854 7.63984C7.91854 7.88672 7.98338 8.03672 8.19022 8.34219C8.52401 8.76914 7.90526 9.22187 7.56796 8.80644ZM16.159 0C15.7174 0 15.3547 0.354686 15.3547 0.810543L15.3547 4.58652L13.7955 4.58652C13.0297 4.58652 12.7494 5.35058 13.2285 5.88203L15.6168 8.56777C15.9433 8.93691 16.3808 8.93691 16.7189 8.56777L19.1054 5.88203C19.5953 5.3416 19.281 4.58652 18.5402 4.58652L16.9695 4.58652L16.9695 0.810543C16.9695 0.354686 16.6148 0 16.159 0Z" fill="white" fill-opacity="0.85"/>
 </g>
</svg>
