<?xml version="1.0" encoding="UTF-8"?>
<!--Generator: Apple Native CoreSVG 341-->
<!DOCTYPE svg
PUBLIC "-//W3C//DTD SVG 1.1//EN"
       "http://www.w3.org/Graphics/SVG/1.1/DTD/svg11.dtd">
<svg version="1.1" xmlns="http://www.w3.org/2000/svg" xmlns:xlink="http://www.w3.org/1999/xlink" viewBox="0 0 23.6998 17.0457">
 <g>
  <rect height="17.0457" opacity="0" width="23.6998" x="0" y="0"/>
  <path d="M11.4791 4.39511C12.6924 4.39511 13.6758 3.41172 13.6758 2.19844C13.6758 0.985155 12.6924 0 11.4791 0C10.2658 0 9.28867 0.985155 9.28867 2.19844C9.28867 3.41172 10.2658 4.39511 11.4791 4.39511ZM0.866998 2.95488L8.12032 6.84472C8.34766 6.9664 8.47207 7.18769 8.39746 7.44081L7.70235 9.97538C9.61016 10.285 10.2816 11.4896 11.7127 11.4896C12.0381 11.4896 12.3119 11.406 12.5812 11.2789L13.5391 7.73534C13.635 7.37753 13.7291 7.19628 14.0932 7.01249L21.6935 2.95488C22.2553 2.65136 22.4709 1.94238 22.1816 1.3789C21.8551 0.817186 21.1709 0.590038 20.5977 0.897068L13.0576 4.89609C11.8787 5.52285 10.7742 5.59922 9.36445 4.84726L1.96114 0.897068C1.38965 0.590038 0.682428 0.817186 0.386921 1.38066C0.0798899 1.94238 0.301765 2.6496 0.866998 2.95488ZM0.60488 14.1891L1.62812 14.1891C4.29706 14.1891 4.88222 12.5672 6.66953 12.5672C8.39707 12.5672 9.04199 14.1891 11.7127 14.1891C14.3932 14.1891 15.0301 12.5672 16.7639 12.5672C18.5512 12.5672 19.1283 14.1891 21.807 14.1891L22.8285 14.1891C23.1646 14.1891 23.4351 13.9266 23.4351 13.5904C23.4351 13.2543 23.1646 12.9838 22.8285 12.9838L21.807 12.9838C19.9514 12.9838 19.3254 11.3637 16.7639 11.3637C14.2559 11.3637 13.5684 12.9838 11.7127 12.9838C9.85878 12.9838 9.17753 11.3637 6.66953 11.3637C4.10801 11.3637 3.48203 12.9838 1.62812 12.9838L0.60488 12.9838C0.262499 12.9838 0 13.2543 0 13.5904C0 13.9266 0.262499 14.1891 0.60488 14.1891ZM0.832421 17.0217C1.16875 17.0217 1.43672 16.7537 1.43672 16.4156C1.43672 16.0873 1.16875 15.8193 0.832421 15.8193C0.502343 15.8193 0.234375 16.0873 0.234375 16.4156C0.234375 16.7537 0.502343 17.0217 0.832421 17.0217ZM2.69472 16.6861C3.02304 16.6861 3.29101 16.4181 3.29101 16.0881C3.29101 15.7517 3.02304 15.4838 2.69472 15.4838C2.35664 15.4838 2.08867 15.7517 2.08867 16.0881C2.08867 16.4181 2.35664 16.6861 2.69472 16.6861ZM4.42129 15.8668C4.75937 15.8668 5.02734 15.6068 5.02734 15.2705C5.02734 14.9324 4.75937 14.6724 4.42129 14.6724C4.09297 14.6724 3.825 14.9324 3.825 15.2705C3.825 15.6068 4.09297 15.8668 4.42129 15.8668ZM6.28457 15.409C6.62089 15.409 6.88886 15.141 6.88886 14.8047C6.88886 14.4746 6.62089 14.2066 6.28457 14.2066C5.95449 14.2066 5.68652 14.4746 5.68652 14.8047C5.68652 15.141 5.95449 15.409 6.28457 15.409ZM8.14433 15.8668C8.48066 15.8668 8.74062 15.6068 8.74062 15.2705C8.74062 14.9324 8.48066 14.6724 8.14433 14.6724C7.80625 14.6724 7.54629 14.9324 7.54629 15.2705C7.54629 15.6068 7.80625 15.8668 8.14433 15.8668ZM9.88867 16.6861C10.225 16.6861 10.493 16.4181 10.493 16.0881C10.493 15.7517 10.225 15.4838 9.88867 15.4838C9.55859 15.4838 9.29062 15.7517 9.29062 16.0881C9.29062 16.4181 9.55859 16.6861 9.88867 16.6861ZM11.7287 17.0217C12.0588 17.0217 12.3268 16.7537 12.3268 16.4156C12.3268 16.0873 12.0588 15.8193 11.7287 15.8193C11.3924 15.8193 11.1244 16.0873 11.1244 16.4156C11.1244 16.7537 11.3924 17.0217 11.7287 17.0217ZM13.5625 16.6861C13.9006 16.6861 14.1605 16.4181 14.1605 16.0881C14.1605 15.7517 13.9006 15.4838 13.5625 15.4838C13.2244 15.4838 12.9662 15.7517 12.9662 16.0881C12.9662 16.4181 13.2244 16.6861 13.5625 16.6861ZM15.3068 15.8668C15.6432 15.8668 15.9111 15.6068 15.9111 15.2705C15.9111 14.9324 15.6432 14.6724 15.3068 14.6724C14.9768 14.6724 14.7088 14.9324 14.7088 15.2705C14.7088 15.6068 14.9768 15.8668 15.3068 15.8668ZM17.1666 15.409C17.5047 15.409 17.7646 15.141 17.7646 14.8047C17.7646 14.4746 17.5047 14.2066 17.1666 14.2066C16.8285 14.2066 16.5703 14.4746 16.5703 14.8047C16.5703 15.141 16.8285 15.409 17.1666 15.409ZM19.0299 15.8668C19.3662 15.8668 19.6262 15.6068 19.6262 15.2705C19.6262 14.9324 19.3662 14.6724 19.0299 14.6724C18.6918 14.6724 18.4318 14.9324 18.4318 15.2705C18.4318 15.6068 18.6918 15.8668 19.0299 15.8668ZM20.7644 16.6861C21.1025 16.6861 21.3625 16.4181 21.3625 16.0881C21.3625 15.7517 21.1025 15.4838 20.7644 15.4838C20.4281 15.4838 20.1682 15.7517 20.1682 16.0881C20.1682 16.4181 20.4281 16.6861 20.7644 16.6861ZM22.6107 17.0217C22.9488 17.0217 23.215 16.7537 23.215 16.4156C23.215 16.0873 22.9488 15.8193 22.6107 15.8193C22.2807 15.8193 22.0127 16.0873 22.0127 16.4156C22.0127 16.7537 22.2807 17.0217 22.6107 17.0217Z" fill="white" fill-opacity="0.85"/>
 </g>
</svg>
