<?xml version="1.0" encoding="UTF-8"?>
<!--Generator: Apple Native CoreSVG 341-->
<!DOCTYPE svg
PUBLIC "-//W3C//DTD SVG 1.1//EN"
       "http://www.w3.org/Graphics/SVG/1.1/DTD/svg11.dtd">
<svg version="1.1" xmlns="http://www.w3.org/2000/svg" xmlns:xlink="http://www.w3.org/1999/xlink" viewBox="0 0 31.4971 27.8784">
 <g>
  <rect height="27.8784" opacity="0" width="31.4971" x="0" y="0"/>
  <path d="M5.12265 9.2468C3.61035 9.2468 2.39805 7.99095 2.39805 6.53099C2.39805 5.00892 3.61035 3.7806 5.12265 3.7806C6.64296 3.7806 7.85624 5.00892 7.85624 6.53099C7.85624 8.02298 6.64296 9.2468 5.12265 9.2468ZM21.2892 23.6433C20.7498 24.1987 19.842 24.1579 19.1898 23.4747L14.8859 19.0368C14.7387 18.8816 14.6322 18.8478 14.4086 18.9374L11.101 20.1829C8.94413 21.0058 6.82636 20.2456 5.85293 18.4816L3.74179 14.6437C2.89512 13.0986 3.17109 11.5275 4.62754 10.7359C6.05292 9.95754 7.52089 10.538 8.37909 12.1152L11.1795 17.2038L13.5353 16.3384C14.7492 15.8939 15.7705 16.0376 16.7412 17.0491L21.1978 21.6681C21.8385 22.3317 21.7781 23.1482 21.2892 23.6433Z" fill="white" fill-opacity="0.85"/>
  <path d="M20.541 7.15539L23.1734 10.5177C23.3144 10.6933 23.5131 10.7173 23.7047 10.6197C24.3359 10.2947 25.2168 10.0665 25.9174 10.0665C26.6277 10.0665 27.5246 10.2999 28.1398 10.6197C28.3314 10.7226 28.5443 10.6915 28.6676 10.5177L31.3195 7.15539C31.5928 6.79075 31.5484 6.4138 31.2015 6.14407C30.1123 5.30344 28.066 4.67747 25.9174 4.67747C23.7928 4.67747 21.734 5.30344 20.651 6.14407C20.3041 6.4138 20.258 6.7925 20.541 7.15539ZM23.3055 12.4913C23.0027 12.0927 22.8758 11.7251 22.8758 11.3247C22.8758 10.4085 23.6162 10.1864 23.6162 9.64758C23.6162 9.10247 22.8758 8.88489 22.8758 7.94114C22.8758 7.55403 23.0027 7.18645 23.3055 6.79407C23.649 6.38215 24.2678 6.82512 23.9322 7.25832C23.7129 7.55754 23.6578 7.7218 23.6578 7.94114C23.6578 8.59993 24.393 8.7802 24.393 9.64758C24.393 10.507 23.6578 10.6935 23.6578 11.3247C23.6578 11.5716 23.7129 11.7216 23.9322 12.0271C24.2598 12.454 23.641 12.9068 23.3055 12.4913ZM25.6039 12.4913C25.3092 12.1007 25.184 11.7251 25.184 11.3247C25.184 10.4085 25.9129 10.1864 25.9129 9.64758C25.9129 9.10247 25.184 8.88489 25.184 7.94114C25.184 7.55403 25.3092 7.18645 25.6039 6.79407C25.9474 6.38215 26.576 6.82512 26.2422 7.25832C26.0193 7.55754 25.9625 7.7218 25.9625 7.94114C25.9625 8.59993 26.6976 8.7802 26.6976 9.64758C26.6976 10.507 25.9625 10.6935 25.9625 11.3247C25.9625 11.5716 26.0193 11.7216 26.2422 12.0271C26.568 12.454 25.9394 12.9068 25.6039 12.4913ZM27.9299 12.4913C27.6191 12.1007 27.4922 11.7251 27.4922 11.3247C27.4922 10.4085 28.2308 10.1864 28.2308 9.64758C28.2308 9.10247 27.4922 8.88489 27.4922 7.94114C27.4922 7.55403 27.6174 7.18469 27.9299 6.79407C28.2637 6.38039 28.8842 6.82512 28.5504 7.25832C28.3435 7.55754 28.2787 7.7218 28.2787 7.94114C28.2787 8.59993 29.0076 8.7802 29.0076 9.64758C29.0076 10.507 28.2787 10.6935 28.2787 11.3247C28.2787 11.5716 28.3435 11.7216 28.5504 12.0271C28.8762 12.454 28.2672 12.9068 27.9299 12.4913ZM17.876 6.19426C17.876 6.56516 18.1687 6.84993 18.5299 6.85793C18.9008 6.85793 19.1855 6.56516 19.1855 6.19426L19.1855 1.80364C19.1855 1.43274 18.9008 1.14797 18.5299 1.14797C18.1687 1.14797 17.876 1.44075 17.876 1.80364ZM20.5158 3.60305C21.176 3.60305 21.4209 2.93137 21.0109 2.49036L19.0002 0.244263C18.7127-0.0805414 18.3338-0.0822992 18.04 0.244263L16.0684 2.49036C15.6353 2.97395 15.8953 3.60305 16.5439 3.60305ZM16.1394 8.54953C16.5023 8.54953 16.8031 8.26477 16.8031 7.87785C16.8031 7.52473 16.5103 7.22395 16.1394 7.22395L11.7568 7.22395C11.3939 7.22395 11.0932 7.52473 11.0932 7.87785C11.0932 8.26477 11.3939 8.54953 11.7568 8.54953ZM13.5562 5.89993C13.5562 5.25129 12.8871 4.99934 12.4275 5.41809L10.1975 7.42004C9.8789 7.69953 9.86464 8.07668 10.1975 8.36594L12.4275 10.3589C12.8926 10.7866 13.5562 10.5159 13.5562 9.8718ZM19.1935 9.58977C19.1935 9.21086 18.9088 8.91809 18.5379 8.91809C18.1848 8.9261 17.876 9.21887 17.876 9.58977L17.876 14.0044C17.876 14.3753 18.1848 14.6601 18.5379 14.6761C18.9088 14.6761 19.1935 14.3833 19.1935 14.0044ZM16.5439 12.173C15.9033 12.173 15.6514 12.8021 16.0684 13.2777L18.048 15.5398C18.3338 15.8663 18.7047 15.8405 18.9922 15.5318L21.0189 13.2937C21.4289 12.8447 21.192 12.173 20.5158 12.173Z" fill="white" fill-opacity="0.85"/>
 </g>
</svg>
