<?xml version="1.0" encoding="UTF-8"?>
<!--Generator: Apple Native CoreSVG 341-->
<!DOCTYPE svg
PUBLIC "-//W3C//DTD SVG 1.1//EN"
       "http://www.w3.org/Graphics/SVG/1.1/DTD/svg11.dtd">
<svg version="1.1" xmlns="http://www.w3.org/2000/svg" xmlns:xlink="http://www.w3.org/1999/xlink" viewBox="0 0 20.5381 20.1848">
 <g>
  <rect height="20.1848" opacity="0" width="20.5381" x="0" y="0"/>
  <path d="M10.0875 20.175C15.6576 20.175 20.1767 15.6559 20.1767 10.0875C20.1767 4.51914 15.6576 0 10.0875 0C4.51914 0 0 4.51914 0 10.0875C0 15.6559 4.51914 20.175 10.0875 20.175ZM10.0875 18.1879C5.60839 18.1879 1.9871 14.5666 1.9871 10.0875C1.9871 5.60839 5.60839 1.9871 10.0875 1.9871C14.5666 1.9871 18.1897 5.60839 18.1897 10.0875C18.1897 14.5666 14.5666 18.1879 10.0875 18.1879Z" fill="white" fill-opacity="0.85"/>
  <path d="M10.9711 5.7869C11.6086 5.7869 12.1307 5.27108 12.1307 4.61757C12.1307 3.98183 11.6086 3.458 10.9711 3.458C10.3238 3.458 9.80351 3.98183 9.80351 4.61757C9.80351 5.27108 10.3238 5.7869 10.9711 5.7869ZM5.85702 12.1527L9.32382 12.1527C9.80761 12.1527 10.0322 11.6023 9.75351 11.257L8.68495 9.9496L11.7605 9.74355L14.6652 9.74355C14.9777 9.74355 15.2254 9.50742 15.2254 9.20117C15.2254 8.90644 14.9777 8.65077 14.6652 8.65077L9.3287 8.65077L10.5723 7.39745C10.6176 7.35214 10.6869 7.31659 10.758 7.33261L14.5756 7.82187C14.8996 7.85468 15.1961 7.61503 15.1961 7.27773C15.1961 7.01054 14.9875 6.77616 14.7141 6.7371L6.7246 5.72655C6.54882 5.69901 6.39081 5.75761 6.27187 5.87655L4.93007 7.20859C4.7037 7.43495 4.72499 7.76073 4.93007 7.9871C5.12714 8.19218 5.49823 8.21347 5.71659 7.9871L6.85331 6.84237L8.07812 7.00136C8.19277 7.01112 8.22656 7.1205 8.14745 7.20312L6.98847 8.35234C6.51523 8.82382 6.49921 9.54745 6.98847 10.042L7.98515 11.0582L5.85702 11.0582C5.54452 11.0582 5.30663 11.2961 5.30663 11.6023C5.30663 11.8971 5.54452 12.1527 5.85702 12.1527ZM10.7064 16.4092C10.7064 16.6035 10.8537 16.7588 11.056 16.7588C11.2504 16.7588 11.4057 16.6035 11.4057 16.4092L11.4057 10.9978C11.4057 10.7955 11.2504 10.6402 11.056 10.6402C10.8537 10.6402 10.7064 10.7955 10.7064 10.9978Z" fill="white" fill-opacity="0.85"/>
 </g>
</svg>
