<?xml version="1.0" encoding="UTF-8"?>
<!--Generator: Apple Native CoreSVG 341-->
<!DOCTYPE svg
PUBLIC "-//W3C//DTD SVG 1.1//EN"
       "http://www.w3.org/Graphics/SVG/1.1/DTD/svg11.dtd">
<svg version="1.1" xmlns="http://www.w3.org/2000/svg" xmlns:xlink="http://www.w3.org/1999/xlink" viewBox="0 0 20.5381 20.1848">
 <g>
  <rect height="20.1848" opacity="0" width="20.5381" x="0" y="0"/>
  <path d="M10.0875 20.175C15.6576 20.175 20.1767 15.6559 20.1767 10.0875C20.1767 4.51914 15.6576 0 10.0875 0C4.51914 0 0 4.51914 0 10.0875C0 15.6559 4.51914 20.175 10.0875 20.175ZM10.0875 18.1879C5.60839 18.1879 1.9871 14.5666 1.9871 10.0875C1.9871 5.60839 5.60839 1.9871 10.0875 1.9871C14.5666 1.9871 18.1897 5.60839 18.1897 10.0875C18.1897 14.5666 14.5666 18.1879 10.0875 18.1879Z" fill="white" fill-opacity="0.85"/>
  <path d="M9.99238 6.1539C10.6396 6.1539 11.1519 5.63359 11.1519 4.98632C11.1519 4.35058 10.6396 3.82675 9.99238 3.82675C9.34687 3.82675 8.8248 4.35058 8.8248 4.98632C8.8248 5.63359 9.34687 6.1539 9.99238 6.1539ZM6.30116 16.2592C6.52753 16.3844 6.87909 16.3355 7.03886 16.0488L8.37089 13.6512L9.13027 11.9316C9.16132 11.8838 9.20566 11.866 9.25976 11.8988L11.3186 13.3945L11.3186 15.7656C11.3186 16.0701 11.5627 16.3258 11.8707 16.3258C12.1734 16.3258 12.4211 16.0701 12.4211 15.7656L12.4211 13.1549C12.4211 13.0004 12.3723 12.8326 12.2533 12.7154L10.0687 10.6463L10.2615 9.05155C10.2695 8.99648 10.3557 8.99648 10.3734 9.04355L10.8328 10.1453C10.9207 10.3539 11.1178 10.4906 11.3344 10.4906L13.5846 10.4906C13.8971 10.4906 14.1412 10.243 14.1412 9.93847C14.1412 9.62421 13.8971 9.38808 13.5846 9.38808L11.701 9.38808L10.9426 7.61816C10.741 7.14667 10.4418 6.87675 9.76874 6.69472L9.46328 6.60859C8.73066 6.40077 8.22988 6.37773 7.62519 6.62988L6.85058 6.97011L6.85058 5.02597C6.85058 4.73124 6.59491 4.47558 6.29843 4.47558C5.99569 4.47558 5.74804 4.73124 5.74804 5.02597L5.74804 7.87382C5.74804 8.2662 6.16171 8.46679 6.51503 8.31855L7.99824 7.67109C8.05507 7.64179 8.12265 7.68085 8.11288 7.75195L7.358 13.2082L6.0748 15.518C5.93632 15.7656 6.02421 16.1189 6.30116 16.2592ZM13.1746 8.57773L13.8756 8.57773L13.8756 3.96639C13.8756 3.77831 13.7141 3.61503 13.526 3.61503C13.3396 3.61503 13.1746 3.77831 13.1746 3.96639ZM12.8031 8.88281L14.2453 8.88281C14.4396 8.88281 14.5168 8.72753 14.4564 8.55273C14.3215 8.14785 13.9521 7.87441 13.526 7.87441C13.09 7.87441 12.7305 8.14785 12.5937 8.55273C12.5334 8.72929 12.6123 8.88281 12.8031 8.88281Z" fill="white" fill-opacity="0.85"/>
 </g>
</svg>
