<?xml version="1.0" encoding="UTF-8"?>
<!--Generator: Apple Native CoreSVG 341-->
<!DOCTYPE svg
PUBLIC "-//W3C//DTD SVG 1.1//EN"
       "http://www.w3.org/Graphics/SVG/1.1/DTD/svg11.dtd">
<svg version="1.1" xmlns="http://www.w3.org/2000/svg" xmlns:xlink="http://www.w3.org/1999/xlink" viewBox="0 0 23.9332 22.9361">
 <g>
  <rect height="22.9361" opacity="0" width="23.9332" x="0" y="0"/>
  <path d="M16.8392 6.95106L16.8392 9.27496C18.0122 9.43348 18.622 10.2183 18.622 11.6259L18.622 18.5425C18.622 20.1434 17.8462 20.9387 16.3632 20.9387L10.7694 20.9387C10.7795 20.7127 10.7554 20.4696 10.6921 20.2112L10.4423 19.1882L16.0876 19.1882C16.4917 19.1882 16.7218 18.9403 16.7218 18.4794L16.7218 11.6925C16.7218 11.2298 16.4917 10.9934 16.0876 10.9934L11.0835 10.9934L9.13683 10.187C9.27516 9.89324 9.36763 9.57709 9.40153 9.24286L15.0167 9.24286L15.0167 6.77762C15.0167 4.48445 13.5304 3.23836 11.7868 3.23836C10.0398 3.23836 8.57296 4.48445 8.57296 6.77762L8.57296 6.85123C8.11745 6.37572 7.50555 6.05159 6.81488 5.96299C7.2045 3.0068 9.37479 1.48954 11.7868 1.48954C14.4544 1.48954 16.8392 3.34774 16.8392 6.95106Z" fill="white" fill-opacity="0.85"/>
  <path d="M6.413 10.5667C7.32648 10.5667 8.03839 9.845 8.03839 8.94754C8.03839 8.04833 7.32648 7.3204 6.413 7.3204C5.52179 7.3204 4.78586 8.04833 4.78586 8.94754C4.78586 9.845 5.52179 10.5667 6.413 10.5667ZM6.41125 16.3581C6.62511 16.3581 6.79738 16.485 6.8675 16.7309L7.96652 20.9893C8.21242 21.9391 9.51906 21.6036 9.38859 20.7009C9.32375 20.3528 8.3757 16.7522 8.23722 15.9427C8.13957 15.3479 8.18839 13.8345 8.18839 13.1764C8.18839 12.9856 8.35793 12.8587 8.56027 12.9483L10.4325 13.7038C10.9386 13.9054 11.2919 13.6665 11.3966 13.3362C11.5093 13.0024 11.3646 12.596 10.8853 12.4069L8.86574 11.5681C8.39601 11.378 7.99113 11.2768 7.52765 11.212C7.18683 11.3788 6.81945 11.4782 6.41125 11.4782C5.99679 11.4782 5.62941 11.3788 5.28859 11.212C4.82512 11.2768 4.41047 11.378 3.95051 11.5681L1.93097 12.4069C1.45168 12.596 1.30519 13.0024 1.41965 13.3362C1.52433 13.6665 1.87765 13.9054 2.38371 13.7038L4.25597 12.9483C4.45832 12.8587 4.62785 12.9856 4.62785 13.1764C4.62785 13.8345 4.67668 15.3479 4.57902 15.9427C4.43879 16.7522 3.4925 20.3528 3.42765 20.7009C3.29543 21.6036 4.60383 21.9391 4.84797 20.9893L5.94875 16.7309C6.01886 16.485 6.19113 16.3581 6.41125 16.3581Z" fill="white" fill-opacity="0.85"/>
 </g>
</svg>
