<?xml version="1.0" encoding="UTF-8"?>
<!--Generator: Apple Native CoreSVG 341-->
<!DOCTYPE svg
PUBLIC "-//W3C//DTD SVG 1.1//EN"
       "http://www.w3.org/Graphics/SVG/1.1/DTD/svg11.dtd">
<svg version="1.1" xmlns="http://www.w3.org/2000/svg" xmlns:xlink="http://www.w3.org/1999/xlink" viewBox="0 0 20.5381 20.1848">
 <g>
  <rect height="20.1848" opacity="0" width="20.5381" x="0" y="0"/>
  <path d="M10.0875 20.175C15.6576 20.175 20.1767 15.6559 20.1767 10.0875C20.1767 4.51914 15.6576 0 10.0875 0C4.51914 0 0 4.51914 0 10.0875C0 15.6559 4.51914 20.175 10.0875 20.175ZM10.0875 18.1879C5.60839 18.1879 1.9871 14.5666 1.9871 10.0875C1.9871 5.60839 5.60839 1.9871 10.0875 1.9871C14.5666 1.9871 18.1897 5.60839 18.1897 10.0875C18.1897 14.5666 14.5666 18.1879 10.0875 18.1879Z" fill="white" fill-opacity="0.85"/>
  <path d="M10.0795 6.058C10.717 6.058 11.2471 5.53769 11.2471 4.89843C11.2471 4.26093 10.717 3.73085 10.0795 3.73085C9.44199 3.73085 8.92792 4.26093 8.92792 4.89843C8.92792 5.53769 9.44199 6.058 10.0795 6.058ZM7.02753 8.75488C6.3998 9.62148 6.96093 10.8121 8.19687 10.6283L10.1002 10.3379L9.37011 12.5316C9.11445 13.2791 10.1762 13.6031 10.4123 12.885L11.4078 9.88339C11.5365 9.50078 11.2924 9.13593 10.8592 9.13593L8.99218 9.13593L9.97011 7.83202C10.0607 7.70234 10.1185 7.68632 10.2482 7.68632L14.183 7.68632C14.4697 7.68632 14.7236 7.45019 14.7236 7.1457C14.7236 6.84921 14.4857 6.59355 14.183 6.59355L9.18261 6.59355C8.80527 6.59355 8.4412 6.79687 8.21034 7.11562ZM7.48066 15.708C7.48066 15.9697 7.65273 16.1498 7.93046 16.1498L11.8627 16.1498C12.1262 16.1498 12.3125 15.9697 12.3125 15.708L12.3125 14.1668C12.3125 13.9051 12.1262 13.733 11.8627 13.733L7.93046 13.733C7.65273 13.733 7.48066 13.9051 7.48066 14.1668Z" fill="white" fill-opacity="0.85"/>
 </g>
</svg>
