<?xml version="1.0" encoding="UTF-8"?>
<!--Generator: Apple Native CoreSVG 341-->
<!DOCTYPE svg
PUBLIC "-//W3C//DTD SVG 1.1//EN"
       "http://www.w3.org/Graphics/SVG/1.1/DTD/svg11.dtd">
<svg version="1.1" xmlns="http://www.w3.org/2000/svg" xmlns:xlink="http://www.w3.org/1999/xlink" viewBox="0 0 20.5381 20.1848">
 <g>
  <rect height="20.1848" opacity="0" width="20.5381" x="0" y="0"/>
  <path d="M10.0875 20.175C15.6576 20.175 20.1767 15.6559 20.1767 10.0875C20.1767 4.51914 15.6576 0 10.0875 0C4.51914 0 0 4.51914 0 10.0875C0 15.6559 4.51914 20.175 10.0875 20.175ZM10.0875 18.1879C5.60839 18.1879 1.9871 14.5666 1.9871 10.0875C1.9871 5.60839 5.60839 1.9871 10.0875 1.9871C14.5666 1.9871 18.1897 5.60839 18.1897 10.0875C18.1897 14.5666 14.5666 18.1879 10.0875 18.1879Z" fill="white" fill-opacity="0.85"/>
  <path d="M9.02695 8.46952C9.66445 8.46952 10.1945 7.94745 10.1945 7.30195C10.1945 6.66445 9.66445 6.14237 9.02695 6.14237C8.37968 6.14237 7.85136 6.66445 7.85136 7.30195C7.85136 7.94745 8.37968 8.46952 9.02695 8.46952ZM6.20683 15.3967L9.3664 16.1941C9.81913 16.3113 10.1334 15.9678 10.0668 15.5461L9.78085 13.5496L12.2578 13.5496L14.2035 15.5229C14.4201 15.7395 14.7654 15.7395 14.982 15.5229C15.2084 15.308 15.1986 14.9609 14.982 14.7461L12.9156 12.6699C12.7709 12.5172 12.7088 12.4844 12.4664 12.4471L10.2125 12.226L9.64413 10.5084C9.60859 10.392 9.69218 10.2861 9.80683 10.3199L13.9459 11.1484C14.2309 11.1973 14.5371 11.0428 14.5957 10.7135C14.6445 10.4205 14.459 10.1258 14.1705 10.0672L8.44902 8.92343C7.9455 8.82753 7.67636 8.75468 7.45077 8.5371L6.36112 7.44921L6.36112 5.01952C6.36112 4.70702 6.11522 4.46737 5.81073 4.46737C5.49647 4.46737 5.25858 4.70702 5.25858 5.01952L5.25858 7.5912C5.25858 7.81054 5.28788 7.93925 5.44413 8.10702L6.67401 9.3289C6.9289 9.58202 6.96269 9.67089 7.04882 9.92753L8.69706 14.8945L6.47226 14.3314C6.18378 14.2533 5.88105 14.4406 5.81269 14.7354C5.74257 15.0283 5.91835 15.3186 6.20683 15.3967ZM7.37597 5.18397C7.73905 5.18397 8.05155 4.883 8.05155 4.50839C8.05155 4.12929 7.73905 3.83456 7.37597 3.83456C6.99335 3.83456 6.70038 4.12929 6.70038 4.50839C6.70038 4.883 6.99335 5.18397 7.37597 5.18397Z" fill="white" fill-opacity="0.85"/>
 </g>
</svg>
