<?xml version="1.0" encoding="UTF-8"?>
<!--Generator: Apple Native CoreSVG 341-->
<!DOCTYPE svg
PUBLIC "-//W3C//DTD SVG 1.1//EN"
       "http://www.w3.org/Graphics/SVG/1.1/DTD/svg11.dtd">
<svg version="1.1" xmlns="http://www.w3.org/2000/svg" xmlns:xlink="http://www.w3.org/1999/xlink" viewBox="0 0 26.8693 23.732">
 <g>
  <rect height="23.732" opacity="0" width="26.8693" x="0" y="0"/>
  <path d="M22.2856 5.84238C23.3606 5.84238 24.2323 4.96445 24.2323 3.88769C24.2323 2.80644 23.3606 1.94453 22.2856 1.94453C21.2026 1.94453 20.3327 2.80644 20.3327 3.88769C20.3327 4.96445 21.2026 5.84238 22.2856 5.84238ZM21.1147 21.6789C21.6073 21.6789 21.9987 21.2875 21.9987 20.7949L21.9987 14.5182C21.9987 14.3689 22.1284 14.2375 22.2856 14.2375C22.4348 14.2375 22.5645 14.3689 22.5645 14.5182L22.5645 20.7949C22.5645 21.2875 22.9577 21.6789 23.4547 21.6789C23.9508 21.6789 24.3405 21.2893 24.3405 20.7949L24.3405 10.491C24.3405 10.3338 24.4604 10.2219 24.6096 10.2219C24.7606 10.2219 24.8823 10.3338 24.8823 10.491L24.8823 13.8851C24.8823 14.3449 25.2444 14.7088 25.7042 14.7088C26.1479 14.7088 26.51 14.3449 26.51 13.8851L26.51 10.0924C26.51 8.13222 25.0481 6.82636 22.9327 6.82636L21.6288 6.82636C19.5151 6.82636 18.0549 8.13222 18.0549 10.0924L18.0549 13.8851C18.0549 14.3449 18.4153 14.7088 18.8671 14.7088C19.3108 14.7088 19.6747 14.3449 19.6747 13.8851L19.6747 10.491C19.6747 10.3338 19.7946 10.2219 19.9438 10.2219C20.101 10.2219 20.221 10.3338 20.221 10.491L20.221 20.7949C20.221 21.2893 20.6221 21.6789 21.1147 21.6789Z" fill="white" fill-opacity="0.85"/>
  <path d="M14.0233 23.7223C14.5348 23.7223 14.9346 23.3385 14.9346 22.8269L14.9346 0.895307C14.9346 0.382029 14.5348 0 14.0233 0C13.51 0 13.1102 0.382029 13.1102 0.895307L13.1102 22.8269C13.1102 23.3385 13.51 23.7223 14.0233 23.7223Z" fill="white" fill-opacity="0.85"/>
  <path d="M5.28562 5.84238C6.37039 5.84238 7.2323 4.96445 7.2323 3.88769C7.2323 2.80644 6.37039 1.94453 5.28562 1.94453C4.21062 1.94453 3.3407 2.80644 3.3407 3.88769C3.3407 4.96445 4.21062 5.84238 5.28562 5.84238ZM4.12273 21.6789C4.61531 21.6789 4.99871 21.2875 4.99871 20.7949L4.99871 17.0223C4.99871 16.8633 5.1364 16.7434 5.28562 16.7434C5.43484 16.7434 5.56277 16.8633 5.56277 17.0223L5.56277 20.7949C5.56277 21.2875 5.95593 21.6789 6.44675 21.6789C6.93933 21.6789 7.3405 21.2893 7.3405 20.7949L7.3405 17.0223L8.47566 17.0223C8.96297 17.0223 9.17957 16.6068 9.02156 16.131L7.24597 10.5801C7.10925 10.1602 7.67117 9.99062 7.8159 10.4238L8.93269 13.8334C9.29226 14.9271 10.8823 14.4992 10.5147 13.3859L9.48582 10.24C8.77644 8.08105 8.09285 6.81835 5.64714 6.81835L4.91434 6.81835C2.46863 6.81835 1.79304 8.08105 1.08367 10.24L0.0547619 13.3859C-0.312816 14.4992 1.27722 14.9271 1.63679 13.8334L2.75535 10.4238C2.90007 9.99062 3.45398 10.1602 3.32527 10.5801L1.53992 16.131C1.39168 16.6068 1.60027 17.0223 2.09382 17.0223L3.22898 17.0223L3.22898 20.7949C3.22898 21.2893 3.62215 21.6789 4.12273 21.6789Z" fill="white" fill-opacity="0.85"/>
 </g>
</svg>
