<?xml version="1.0" encoding="UTF-8"?>
<!--Generator: Apple Native CoreSVG 341-->
<!DOCTYPE svg
PUBLIC "-//W3C//DTD SVG 1.1//EN"
       "http://www.w3.org/Graphics/SVG/1.1/DTD/svg11.dtd">
<svg version="1.1" xmlns="http://www.w3.org/2000/svg" xmlns:xlink="http://www.w3.org/1999/xlink" viewBox="0 0 20.5381 20.1848">
 <g>
  <rect height="20.1848" opacity="0" width="20.5381" x="0" y="0"/>
  <path d="M20.1767 10.0875C20.1767 15.6478 15.6576 20.175 10.0875 20.175C4.52715 20.175 0 15.6478 0 10.0875C0 4.51914 4.52715 0 10.0875 0C15.6576 0 20.1767 4.51914 20.1767 10.0875ZM6.71152 6.22382L6.71152 8.18085C6.71152 8.49687 6.96093 8.75605 7.2787 8.75605L9.57421 8.75605C9.6746 8.75605 9.73945 8.83866 9.71816 8.93906L9.27148 10.6414C9.18886 10.9141 9.02011 11.1166 8.74921 11.2125L6.3455 12.0605L3.76737 12.0605C3.4496 12.0605 3.19218 12.318 3.19218 12.6295C3.19218 12.9633 3.4496 13.2127 3.76737 13.2127L6.36679 13.2127C6.53105 13.2127 6.60292 13.1789 6.73437 13.1576L9.70234 12.44C9.76171 12.4268 9.81406 12.4693 9.80429 12.5367L9.62304 14.1074L8.4912 13.298C8.22753 13.1125 7.87694 13.1809 7.68964 13.4383C7.50058 13.6975 7.54941 14.0623 7.8121 14.2496L9.60878 15.5107C10.0207 15.8117 10.5418 15.6998 10.643 15.2711L12.1445 9.24706C12.1703 9.17695 12.2254 9.1414 12.3035 9.15292L16.8006 10.0508C17.2355 10.1404 17.4867 9.81288 17.4867 9.4871C17.4867 9.23945 17.3367 8.98203 17.0207 8.92167L12.5824 8.01679C11.1439 7.72909 10.2418 7.6039 9.2082 7.6039L7.87167 7.6039L7.87167 6.22382C7.87167 5.89804 7.60624 5.64687 7.2787 5.64687C6.96093 5.64687 6.71152 5.89804 6.71152 6.22382ZM10.3592 6.05722C10.3592 6.72753 10.9043 7.28066 11.5826 7.28066C12.2432 7.28066 12.7883 6.72753 12.7883 6.05722C12.7883 5.39491 12.2432 4.85155 11.5826 4.85155C10.9043 4.85155 10.3592 5.39491 10.3592 6.05722ZM7.63202 4.85253C7.63202 5.33456 8.02441 5.70566 8.49843 5.70566C8.97694 5.70566 9.35155 5.33456 9.35155 4.85253C9.35155 4.38027 8.97694 3.99589 8.49843 3.99589C8.02441 3.99589 7.63202 4.38027 7.63202 4.85253Z" fill="white" fill-opacity="0.85"/>
 </g>
</svg>
