<?xml version="1.0" encoding="UTF-8"?>
<!--Generator: Apple Native CoreSVG 341-->
<!DOCTYPE svg
PUBLIC "-//W3C//DTD SVG 1.1//EN"
       "http://www.w3.org/Graphics/SVG/1.1/DTD/svg11.dtd">
<svg version="1.1" xmlns="http://www.w3.org/2000/svg" xmlns:xlink="http://www.w3.org/1999/xlink" viewBox="0 0 20.5381 20.1848">
 <g>
  <rect height="20.1848" opacity="0" width="20.5381" x="0" y="0"/>
  <path d="M10.0875 20.175C15.6576 20.175 20.1767 15.6559 20.1767 10.0875C20.1767 4.51914 15.6576 0 10.0875 0C4.51914 0 0 4.51914 0 10.0875C0 15.6559 4.51914 20.175 10.0875 20.175ZM10.0875 18.1879C5.60839 18.1879 1.9871 14.5666 1.9871 10.0875C1.9871 5.60839 5.60839 1.9871 10.0875 1.9871C14.5666 1.9871 18.1897 5.60839 18.1897 10.0875C18.1897 14.5666 14.5666 18.1879 10.0875 18.1879Z" fill="white" fill-opacity="0.85"/>
  <path d="M8.95409 7.6455C9.59159 7.6455 10.1217 7.12519 10.1217 6.46991C10.1217 5.83241 9.59159 5.31034 8.95409 5.31034C8.30859 5.31034 7.79452 5.83241 7.79452 6.46991C7.79452 7.12519 8.30859 7.6455 8.95409 7.6455ZM5.89687 10.2197C5.89687 10.6449 6.33534 10.85 6.67714 10.6742L8.51015 9.75683C8.59452 9.71152 8.68339 9.76308 8.71093 9.8457L9.23046 11.9807L8.39745 14.0588L6.43925 14.0588C6.14452 14.0588 5.89687 14.3047 5.89687 14.5914C5.89687 14.8861 6.14452 15.1303 6.43925 15.1303L8.74277 15.1303C8.98066 15.1303 9.13866 15.0309 9.25585 14.816L10.359 12.7785L10.9603 14.3766L8.99062 15.6998C8.73671 15.8658 8.67636 16.2031 8.83437 16.4473C9.00038 16.6816 9.3164 16.7615 9.57382 16.5857L11.9262 15.0166C12.1117 14.8977 12.2014 14.7264 12.1135 14.4041L10.7228 8.85663C10.6971 8.74023 10.7148 8.64159 10.8393 8.58027L13.9377 7.04394C14.2031 6.91522 14.3123 6.5912 14.1756 6.32577C14.0389 6.05233 13.7211 5.95917 13.4539 6.08788L6.97362 9.32578L6.97362 7.61073C6.97362 7.31777 6.73397 7.07987 6.43925 7.07987C6.14452 7.07987 5.89687 7.31777 5.89687 7.61073ZM12.6635 5.67636C13.2361 5.67636 13.6934 5.21913 13.6934 4.63847C13.6934 4.06757 13.2361 3.60233 12.6635 3.60233C12.0846 3.60233 11.6273 4.06757 11.6273 4.63847C11.6273 5.21913 12.0846 5.67636 12.6635 5.67636Z" fill="white" fill-opacity="0.85"/>
 </g>
</svg>
