<?xml version="1.0" encoding="UTF-8"?>
<!--Generator: Apple Native CoreSVG 341-->
<!DOCTYPE svg
PUBLIC "-//W3C//DTD SVG 1.1//EN"
       "http://www.w3.org/Graphics/SVG/1.1/DTD/svg11.dtd">
<svg version="1.1" xmlns="http://www.w3.org/2000/svg" xmlns:xlink="http://www.w3.org/1999/xlink" viewBox="0 0 20.5381 20.1848">
 <g>
  <rect height="20.1848" opacity="0" width="20.5381" x="0" y="0"/>
  <path d="M20.1767 10.0875C20.1767 15.6478 15.6576 20.175 10.0875 20.175C4.52715 20.175 0 15.6478 0 10.0875C0 4.51914 4.52715 0 10.0875 0C15.6576 0 20.1767 4.51914 20.1767 10.0875ZM13.6215 3.9164C13.3037 3.9164 13.0605 4.17558 13.0605 4.49511L13.0605 6.18495C13.0605 6.40331 13.1777 6.59589 13.3703 6.68554L13.866 6.93339L13.866 7.51327C13.8287 7.53456 13.7994 7.55585 13.7781 7.57714L12.5045 8.85078L11.184 7.53027C10.9123 7.26034 10.4959 7.08632 10.0777 7.08632L6.49218 7.08632C6.22675 7.08632 6.03417 7.24433 5.94452 7.49824L5.08319 10.0697C4.94472 10.4754 5.1746 10.7639 5.46308 10.8242C5.73827 10.9023 6.04628 10.7914 6.16523 10.4266L6.89784 8.24648L8.05605 8.24648C8.16796 8.24648 8.2373 8.33886 8.20175 8.44277L7.48066 10.6078C7.23027 11.335 7.45136 12.0186 8.25839 12.3764L10.5822 13.3967L11.3424 16.0127C11.448 16.3793 11.7693 16.477 12.0445 16.4086C12.3232 16.3305 12.5646 16.0811 12.4537 15.6932L11.6119 12.8037C11.5631 12.6439 11.4814 12.5268 11.3021 12.4371L9.50742 11.6477L10.4541 8.76054C10.4914 8.65663 10.6291 8.60507 10.7215 8.70546L12.0873 10.0891C12.3057 10.3189 12.698 10.3207 12.9199 10.0891L14.6381 8.36464C14.8965 8.10448 14.8484 7.73515 14.5936 7.50702L14.5936 6.93339L15.0715 6.68554C15.2623 6.59237 15.3732 6.40331 15.3732 6.18495L15.3732 4.49511C15.3732 4.17733 15.1478 3.9164 14.8283 3.9164ZM7.39452 14.1766L5.4078 15.2787C5.0412 15.4855 5.05273 15.8344 5.20097 16.09C5.35722 16.3199 5.64394 16.4859 5.983 16.2889L8.21738 15.05C8.36913 14.9639 8.42948 14.8574 8.48632 14.6834L8.958 13.2613L8.0498 12.8574C7.89531 12.7891 7.7666 12.7207 7.65566 12.6506ZM8.87031 5.31855C8.87031 5.98261 9.39941 6.52773 10.0777 6.52773C10.7463 6.52773 11.2834 5.98261 11.2834 5.31855C11.2834 4.64999 10.7463 4.10136 10.0777 4.10136C9.39941 4.10136 8.87031 4.64999 8.87031 5.31855Z" fill="white" fill-opacity="0.85"/>
 </g>
</svg>
