<?xml version="1.0" encoding="UTF-8"?>
<!--Generator: Apple Native CoreSVG 341-->
<!DOCTYPE svg
PUBLIC "-//W3C//DTD SVG 1.1//EN"
       "http://www.w3.org/Graphics/SVG/1.1/DTD/svg11.dtd">
<svg version="1.1" xmlns="http://www.w3.org/2000/svg" xmlns:xlink="http://www.w3.org/1999/xlink" viewBox="0 0 24.0621 24.116">
 <g>
  <rect height="24.116" opacity="0" width="24.0621" x="0" y="0"/>
  <path d="M11.8553 4.3871C13.0605 4.3871 14.0537 3.41172 14.0537 2.18242C14.0537 0.977147 13.0605 0 11.8553 0C10.642 0 9.66484 0.977147 9.66484 2.18242C9.66484 3.41172 10.642 4.3871 11.8553 4.3871ZM9.65156 11.6953L14.0785 11.6953L14.0785 9.54589C14.0785 9.38866 14.3141 9.32108 14.4047 9.50858L17.1187 15.0246C17.3734 15.5375 17.9928 15.7549 18.5074 15.4869C18.999 15.2402 19.2146 14.6129 18.9582 14.1L15.3355 6.76503C14.8953 5.88105 14.0717 5.36093 13.0394 5.36093L10.6791 5.36093C9.64687 5.36093 8.82499 5.88105 8.383 6.76503L4.76035 14.1C4.5039 14.6129 4.72129 15.2402 5.21289 15.4869C5.72578 15.7549 6.3371 15.5375 6.59179 15.0246L9.32538 9.50858C9.41425 9.32108 9.65156 9.37264 9.65156 9.53788ZM7.85097 24.0176C8.34433 24.117 8.90956 23.8623 9.06308 23.1648L9.98808 18.9287L11.8553 15.5875L13.7305 18.9287L14.6555 23.1648C14.8107 23.8916 15.4195 24.1365 15.9209 24.0078C16.4098 23.8808 16.8055 23.4168 16.6537 22.7158L15.7154 18.3422C15.7057 18.2543 15.6924 18.1904 15.6551 18.1008L14.5344 14.9207L9.1957 14.9207L8.05722 18.1008C8.02617 18.1904 8.01289 18.2543 7.99511 18.3422L7.05683 22.7158C6.90156 23.4461 7.34609 23.9146 7.85097 24.0176ZM2.1039 16.6807L2.65625 16.6807C3.0873 16.6807 3.38437 16.3738 3.38437 15.941L3.38437 10.6635C3.38437 10.2289 3.0873 9.93359 2.65625 9.93359L2.1039 9.93359C1.66933 9.93359 1.37402 10.2289 1.37402 10.6635L1.37402 15.941C1.37402 16.3738 1.66933 16.6807 2.1039 16.6807ZM21.0445 16.6807L21.6066 16.6807C22.0377 16.6807 22.3267 16.3738 22.3267 15.941L22.3267 10.6635C22.3267 10.2289 22.0377 9.93359 21.6066 9.93359L21.0445 9.93359C20.6135 9.93359 20.3164 10.2289 20.3164 10.6635L20.3164 15.941C20.3164 16.3738 20.6135 16.6807 21.0445 16.6807ZM0.622458 13.9207L23.0863 13.9207C23.433 13.9207 23.7008 13.6512 23.7008 13.308C23.7008 12.9631 23.433 12.6855 23.0863 12.6855L0.622458 12.6855C0.267772 12.6855 0 12.9631 0 13.308C0 13.6512 0.267772 13.9207 0.622458 13.9207Z" fill="white" fill-opacity="0.85"/>
 </g>
</svg>
