<?xml version="1.0" encoding="UTF-8"?>
<!--Generator: Apple Native CoreSVG 341-->
<!DOCTYPE svg
PUBLIC "-//W3C//DTD SVG 1.1//EN"
       "http://www.w3.org/Graphics/SVG/1.1/DTD/svg11.dtd">
<svg version="1.1" xmlns="http://www.w3.org/2000/svg" xmlns:xlink="http://www.w3.org/1999/xlink" viewBox="0 0 19.6269 20.5433">
 <g>
  <rect height="20.5433" opacity="0" width="19.6269" x="0" y="0"/>
  <path d="M2.7166 5.52656C1.21055 5.52656 0 4.26895 0 2.80899C0 1.28692 1.21055 0.0603586 2.7166 0.0603586C4.24492 0.0603586 5.45019 1.28692 5.45019 2.80899C5.45019 4.30098 4.24492 5.52656 2.7166 5.52656ZM18.8912 19.9213C18.3517 20.4767 17.4422 20.4359 16.782 19.7545L12.4879 15.3166C12.3406 15.1613 12.2342 15.1258 12.0088 15.2154L8.70116 16.4609C6.54433 17.2838 4.42031 16.5254 3.45488 14.7613L1.34375 10.9234C0.49707 9.37832 0.76328 7.80547 2.22773 7.01562C3.64511 6.2373 5.12285 6.81777 5.98105 8.39316L8.77167 13.4836L11.1373 12.6182C12.3512 12.1719 13.3724 12.3174 14.3431 13.3289L18.7998 17.9461C19.4404 18.6098 19.3783 19.4279 18.8912 19.9213Z" fill="white" fill-opacity="0.85"/>
  <path d="M9.32655 6.40195C9.32655 7.85156 10.6228 9.2916 11.8777 9.2916C13.0068 9.2916 13.5943 8.30078 14.2021 6.54199L14.4824 6.49843L14.4824 8.35176C14.4824 9.18965 14.9279 9.6289 15.7418 9.6289C17.1834 9.6289 18.6234 8.34238 18.6234 7.08301C18.6234 5.94414 17.6308 5.36641 15.8623 4.75859L15.8267 4.47656L17.6818 4.47656C18.518 4.47656 18.9527 4.04082 18.9527 3.22871C18.9527 1.78086 17.6742 0.332812 16.4113 0.332812C15.2707 0.332812 14.6965 1.33789 14.0806 3.10469L13.8049 3.13223L13.8049 1.27715C13.8049 0.449023 13.3674 0 12.5553 0C11.1074 0 9.65936 1.29629 9.65936 2.54941C9.65936 3.68828 10.6662 4.2625 12.4348 4.87207L12.4525 5.15234L10.6072 5.15234C9.77909 5.15234 9.32655 5.59785 9.32655 6.40195ZM14.1379 5.79765C13.599 5.79765 13.1578 5.35644 13.1578 4.80957C13.1578 4.2707 13.599 3.82949 14.1379 3.82949C14.6767 3.82949 15.118 4.2707 15.118 4.80957C15.118 5.35644 14.6767 5.79765 14.1379 5.79765Z" fill="white" fill-opacity="0.85"/>
 </g>
</svg>
