<?xml version="1.0" encoding="UTF-8"?>
<!--Generator: Apple Native CoreSVG 341-->
<!DOCTYPE svg
PUBLIC "-//W3C//DTD SVG 1.1//EN"
       "http://www.w3.org/Graphics/SVG/1.1/DTD/svg11.dtd">
<svg version="1.1" xmlns="http://www.w3.org/2000/svg" xmlns:xlink="http://www.w3.org/1999/xlink" viewBox="0 0 31.2914 20.5959">
 <g>
  <rect height="20.5959" opacity="0" width="31.2914" x="0" y="0"/>
  <path d="M5.01982 5.60558C3.50752 5.60558 2.29522 4.34972 2.29522 2.88976C2.29522 1.36769 3.50752 0.139372 5.01982 0.139372C6.54013 0.139372 7.75341 1.36769 7.75341 2.88976C7.75341 4.38175 6.54013 5.60558 5.01982 5.60558ZM21.1864 20.002C20.647 20.5575 19.7391 20.5167 19.087 19.8335L14.7831 15.3956C14.6358 15.2403 14.5294 15.2065 14.3058 15.2962L10.9981 16.5417C8.8413 17.3645 6.72353 16.6044 5.7501 14.8403L3.63896 11.0024C2.79229 9.45733 3.06826 7.88624 4.52471 7.09464C5.95009 6.31632 7.41806 6.89679 8.27626 8.47393L11.0767 13.5626L13.4325 12.6972C14.6464 12.2526 15.6677 12.3964 16.6384 13.4079L21.095 18.0269C21.7356 18.6905 21.6753 19.5069 21.1864 20.002Z" fill="white" fill-opacity="0.85"/>
  <path d="M20.3362 3.51417L22.9669 6.87647C23.1079 7.05206 23.3065 7.07608 23.4981 6.97843C24.1294 6.65343 25.012 6.4253 25.7126 6.4253C26.4229 6.4253 27.3216 6.65343 27.9333 6.97843C28.1284 7.07608 28.3378 7.0503 28.4628 6.87647L31.113 3.51417C31.388 3.14952 31.3419 2.77257 30.9968 2.50284C29.9075 1.66222 27.8612 1.03624 25.7126 1.03624C23.588 1.03624 21.5274 1.66222 20.4462 2.50284C20.0976 2.77257 20.0532 3.15128 20.3362 3.51417ZM23.0989 8.85011C22.7979 8.45147 22.671 8.0839 22.671 7.6835C22.671 6.76729 23.4097 6.54522 23.4097 6.00636C23.4097 5.46124 22.671 5.24366 22.671 4.29991C22.671 3.9128 22.7979 3.54522 23.0989 3.15284C23.4425 2.74093 24.063 3.18389 23.7274 3.6171C23.5063 3.91632 23.4513 4.08057 23.4513 4.29991C23.4513 4.9587 24.1864 5.13897 24.1864 6.00636C24.1864 6.86573 23.4513 7.05225 23.4513 7.6835C23.4513 7.93038 23.5063 8.08038 23.7274 8.38585C24.055 8.8128 23.4345 9.26554 23.0989 8.85011ZM25.3991 8.85011C25.1026 8.45147 24.9792 8.0839 24.9792 7.6835C24.9792 6.76729 25.7081 6.54522 25.7081 6.00636C25.7081 5.46124 24.9792 5.24366 24.9792 4.29991C24.9792 3.9128 25.1026 3.54522 25.3991 3.15284C25.7427 2.74093 26.3712 3.18389 26.0374 3.6171C25.8145 3.91632 25.7577 4.08057 25.7577 4.29991C25.7577 4.9587 26.4929 5.13897 26.4929 6.00636C26.4929 6.86573 25.7577 7.05225 25.7577 7.6835C25.7577 7.93038 25.8145 8.08038 26.0374 8.38585C26.3632 8.8128 25.7347 9.26554 25.3991 8.85011ZM27.7233 8.85011C27.4126 8.45147 27.2856 8.0839 27.2856 7.6835C27.2856 6.76729 28.0261 6.54522 28.0261 6.00636C28.0261 5.46124 27.2856 5.24366 27.2856 4.29991C27.2856 3.9128 27.4126 3.54522 27.7233 3.15284C28.0606 2.74093 28.6776 3.18389 28.3456 3.6171C28.1388 3.91632 28.0739 4.08057 28.0739 4.29991C28.0739 4.9587 28.8028 5.13897 28.8028 6.00636C28.8028 6.86573 28.0739 7.05225 28.0739 7.6835C28.0739 7.93038 28.1388 8.08038 28.3456 8.38585C28.6696 8.8128 28.0606 9.26554 27.7233 8.85011ZM12.7536 4.25245L17.4983 4.25245C18.2642 4.25245 18.5444 3.49639 18.0653 2.96671L15.677 0.279211C15.3425-0.0979371 14.913-0.0881714 14.5749 0.279211L12.1884 2.96671C11.6985 3.50538 12.0128 4.25245 12.7536 4.25245ZM15.9392 8.03643L15.9392 2.39346C15.9392 1.93584 15.5765 1.57491 15.1349 1.57491C14.679 1.57491 14.3243 1.93584 14.3243 2.39346L14.3243 8.03643C14.3243 8.49229 14.679 8.84698 15.1349 8.84698C15.5765 8.84698 15.9392 8.49229 15.9392 8.03643Z" fill="white" fill-opacity="0.85"/>
 </g>
</svg>
