<?xml version="1.0" encoding="UTF-8"?>
<!--Generator: Apple Native CoreSVG 341-->
<!DOCTYPE svg
PUBLIC "-//W3C//DTD SVG 1.1//EN"
       "http://www.w3.org/Graphics/SVG/1.1/DTD/svg11.dtd">
<svg version="1.1" xmlns="http://www.w3.org/2000/svg" xmlns:xlink="http://www.w3.org/1999/xlink" viewBox="0 0 20.5381 20.1848">
 <g>
  <rect height="20.1848" opacity="0" width="20.5381" x="0" y="0"/>
  <path d="M10.0875 20.175C15.6576 20.175 20.1767 15.6559 20.1767 10.0875C20.1767 4.51914 15.6576 0 10.0875 0C4.51914 0 0 4.51914 0 10.0875C0 15.6559 4.51914 20.175 10.0875 20.175ZM10.0875 18.1879C5.60839 18.1879 1.9871 14.5666 1.9871 10.0875C1.9871 5.60839 5.60839 1.9871 10.0875 1.9871C14.5666 1.9871 18.1897 5.60839 18.1897 10.0875C18.1897 14.5666 14.5666 18.1879 10.0875 18.1879Z" fill="white" fill-opacity="0.85"/>
  <path d="M12.4975 6.21562C13.1332 6.21562 13.657 5.70331 13.657 5.04804C13.657 4.41854 13.1332 3.88847 12.4975 3.88847C11.8502 3.88847 11.3281 4.41854 11.3281 5.04804C11.3281 5.70331 11.8502 6.21562 12.4975 6.21562ZM9.8371 14.3594C10.1514 14.3594 10.415 14.1117 10.415 13.8055L10.415 11.0553C10.415 10.9168 10.3662 10.7916 10.2863 10.7019L9.04394 9.17187C8.96659 9.08476 8.99863 8.97988 9.08574 8.93808L10.5848 8.15214C10.6959 8.09882 10.7928 8.13437 10.8088 8.25351L10.942 9.18242C10.9633 9.39726 11.0902 9.54374 11.3131 9.64491L12.8094 10.3953C13.2195 10.6102 13.5498 10.4441 13.6607 10.1805C13.7682 9.92656 13.6855 9.59902 13.3482 9.42148L12.0135 8.73945L11.7977 7.15956C11.6822 6.30097 10.734 5.78515 9.83007 6.24862L7.8498 7.2787C6.94062 7.75995 6.80741 8.81386 7.49198 9.49667L9.29472 11.2914L9.29472 13.8055C9.29472 14.1117 9.55039 14.3594 9.8371 14.3594ZM5.63593 10.9943C5.84901 11.3797 6.22987 11.4871 6.61874 11.4027L7.75898 11.1461C7.9205 11.1248 8.02343 10.9908 8.02343 10.8133C8.02343 10.65 7.91073 10.5195 7.7412 10.492L5.79999 10.1572C5.45917 10.0889 5.28788 10.3711 5.44589 10.6516ZM6.50546 10.999L7.93163 15.2705L8.61581 15.0416L7.20116 10.7914ZM9.82734 16.2766C11.0162 16.2766 11.9449 15.3283 11.9449 14.1607C11.9449 13.3475 11.4894 12.6576 10.8289 12.2918L10.8289 13.1779C11.0787 13.4303 11.2219 13.7697 11.2219 14.1607C11.2219 14.9361 10.6125 15.5535 9.82734 15.5535C9.07773 15.5535 8.44882 14.9264 8.44882 14.1607C8.44882 13.768 8.61327 13.4107 8.88261 13.1646L8.88261 12.2838C8.19628 12.6203 7.71953 13.3395 7.71953 14.1607C7.71953 15.3283 8.67753 16.2766 9.82734 16.2766ZM11.0371 15.102L11.7328 15.3291L13.0623 11.3043C13.1244 11.118 13.0232 10.9041 12.8467 10.842C12.6328 10.7816 12.458 10.8943 12.3959 11.0754ZM6.92988 15.7779C6.70273 15.9314 6.76835 16.2846 7.04784 16.2846L12.6184 16.2846C12.8961 16.2846 12.96 15.9234 12.7426 15.7779L11.4924 14.9602L10.3727 15.7371L9.30156 15.7371L8.18007 14.9602Z" fill="white" fill-opacity="0.85"/>
 </g>
</svg>
