<?xml version="1.0" encoding="UTF-8"?>
<!--Generator: Apple Native CoreSVG 341-->
<!DOCTYPE svg
PUBLIC "-//W3C//DTD SVG 1.1//EN"
       "http://www.w3.org/Graphics/SVG/1.1/DTD/svg11.dtd">
<svg version="1.1" xmlns="http://www.w3.org/2000/svg" xmlns:xlink="http://www.w3.org/1999/xlink" viewBox="0 0 10.8766 22.1133">
 <g>
  <rect height="22.1133" opacity="0" width="10.8766" x="0" y="0"/>
  <path d="M0.00101317 0.974801L0.18656 4.44648C0.217615 5.08027 0.467029 5.46269 0.922301 5.7955L3.06957 7.36581C3.33324 7.55136 3.45863 7.68632 3.45863 8.11015L3.45863 21.0599C3.45863 21.6137 3.90589 22.0529 4.4596 22.0529C5.01156 22.0529 5.45257 21.6119 5.45257 21.0599L5.45257 14.0885C5.45257 13.9197 5.60179 13.7705 5.7723 13.7705C5.94105 13.7705 6.08226 13.9197 6.08226 14.0885L6.08226 21.0599C6.08226 21.6119 6.53128 22.0529 7.08323 22.0529C7.63694 22.0529 8.0762 21.6137 8.0762 21.0599L8.0762 9.57284C8.0762 9.40409 8.21741 9.27089 8.38616 9.27089C8.55667 9.27089 8.68987 9.40409 8.68987 9.57284L8.68987 13.3783C8.68987 13.8894 9.09983 14.2914 9.60296 14.2914C10.1061 14.2914 10.5143 13.8894 10.5143 13.3783L10.5143 9.12812C10.5143 6.92421 8.87425 5.45703 6.5098 5.45703L4.43285 5.45703C3.84691 5.45703 3.49085 5.34335 3.02035 5.00957L2.00648 4.28691L1.81742 0.883395C1.79613 0.380271 1.36488-0.0279313 0.861754 0.0128889C0.350622 0.0537091-0.0220336 0.471677 0.00101317 0.974801ZM5.7723 4.3791C6.98558 4.3791 7.96097 3.40371 7.96097 2.19043C7.96097 0.977147 6.98558 0 5.7723 0C4.55902 0 3.58187 0.977147 3.58187 2.19043C3.58187 3.40371 4.55902 4.3791 5.7723 4.3791Z" fill="white" fill-opacity="0.85"/>
 </g>
</svg>
