<?xml version="1.0" encoding="UTF-8"?>
<!--Generator: Apple Native CoreSVG 341-->
<!DOCTYPE svg
PUBLIC "-//W3C//DTD SVG 1.1//EN"
       "http://www.w3.org/Graphics/SVG/1.1/DTD/svg11.dtd">
<svg version="1.1" xmlns="http://www.w3.org/2000/svg" xmlns:xlink="http://www.w3.org/1999/xlink" viewBox="0 0 23.7965 13.3863">
 <g>
  <rect height="13.3863" opacity="0" width="23.7965" x="0" y="0"/>
  <path d="M17.0219 5.15253C18.2351 5.15253 19.2123 4.16914 19.2123 2.95586C19.2123 1.74258 18.2351 0.76543 17.0219 0.76543C15.8086 0.76543 14.8252 1.74258 14.8252 2.95586C14.8252 4.16914 15.8086 5.15253 17.0219 5.15253ZM8.40058 6.56035C9.60781 7.02031 10.275 7.85605 11.7127 7.85605C13.3937 7.85605 13.9523 6.73183 15.6086 6.36933L9.97851 0.520898C9.53124 0.0523436 8.84882-0.00976562 8.30488 0.386913L4.42656 3.13164C3.74238 3.61972 3.80625 4.35 4.20468 4.78925C4.54101 5.15839 5.13554 5.3039 5.71054 4.90371L8.82753 2.70292L10.559 4.48496C10.7578 4.69003 10.8023 4.98222 10.5084 5.18027ZM0.606638 10.5537L1.62812 10.5537C4.29706 10.5537 4.88222 8.94159 6.67128 8.94159C8.39707 8.94159 9.04199 10.5537 11.7127 10.5537C14.3932 10.5537 15.0301 8.94159 16.7639 8.94159C18.5512 8.94159 19.1301 10.5537 21.807 10.5537L22.8285 10.5537C23.1646 10.5537 23.4351 10.293 23.4351 9.95683C23.4351 9.6207 23.1646 9.35019 22.8285 9.35019L21.807 9.35019C19.9514 9.35019 19.3254 7.73808 16.7639 7.73808C14.2559 7.73808 13.5684 9.35019 11.7127 9.35019C9.85878 9.35019 9.17929 7.73808 6.67128 7.73808C4.10976 7.73808 3.48203 9.35019 1.62812 9.35019L0.606638 9.35019C0.262499 9.35019 0 9.6207 0 9.95683C0 10.293 0.262499 10.5537 0.606638 10.5537ZM0.832421 13.3863C1.16875 13.3863 1.43672 13.1201 1.43672 12.782C1.43672 12.4519 1.16875 12.184 0.832421 12.184C0.502343 12.184 0.234375 12.4519 0.234375 12.782C0.234375 13.1201 0.502343 13.3863 0.832421 13.3863ZM2.69472 13.0525C3.02304 13.0525 3.29101 12.7926 3.29101 12.4545C3.29101 12.1181 3.02304 11.8582 2.69472 11.8582C2.35664 11.8582 2.08867 12.1181 2.08867 12.4545C2.08867 12.7926 2.35664 13.0525 2.69472 13.0525ZM4.42129 12.2412C4.75937 12.2412 5.02734 11.9732 5.02734 11.6369C5.02734 11.3068 4.75937 11.0389 4.42129 11.0389C4.09297 11.0389 3.825 11.3068 3.825 11.6369C3.825 11.9732 4.09297 12.2412 4.42129 12.2412ZM6.28457 11.7754C6.62089 11.7754 6.88886 11.5074 6.88886 11.1711C6.88886 10.841 6.62089 10.573 6.28457 10.573C5.95449 10.573 5.68652 10.841 5.68652 11.1711C5.68652 11.5074 5.95449 11.7754 6.28457 11.7754ZM8.14433 12.2412C8.48242 12.2412 8.74238 11.9732 8.74238 11.6369C8.74238 11.3068 8.48242 11.0389 8.14433 11.0389C7.80625 11.0389 7.54804 11.3068 7.54804 11.6369C7.54804 11.9732 7.80625 12.2412 8.14433 12.2412ZM9.88867 13.0525C10.225 13.0525 10.493 12.7926 10.493 12.4545C10.493 12.1181 10.225 11.8582 9.88867 11.8582C9.55859 11.8582 9.29062 12.1181 9.29062 12.4545C9.29062 12.7926 9.55859 13.0525 9.88867 13.0525ZM11.7305 13.3863C12.0588 13.3863 12.3268 13.1201 12.3268 12.782C12.3268 12.4519 12.0588 12.184 11.7305 12.184C11.3924 12.184 11.1244 12.4519 11.1244 12.782C11.1244 13.1201 11.3924 13.3863 11.7305 13.3863ZM13.5625 13.0525C13.9006 13.0525 14.1605 12.7926 14.1605 12.4545C14.1605 12.1181 13.9006 11.8582 13.5625 11.8582C13.2262 11.8582 12.9662 12.1181 12.9662 12.4545C12.9662 12.7926 13.2262 13.0525 13.5625 13.0525ZM15.3068 12.2412C15.6449 12.2412 15.9111 11.9732 15.9111 11.6369C15.9111 11.3068 15.6449 11.0389 15.3068 11.0389C14.9768 11.0389 14.7088 11.3068 14.7088 11.6369C14.7088 11.9732 14.9768 12.2412 15.3068 12.2412ZM17.1666 11.7754C17.5047 11.7754 17.7646 11.5074 17.7646 11.1711C17.7646 10.841 17.5047 10.573 17.1666 10.573C16.8303 10.573 16.5703 10.841 16.5703 11.1711C16.5703 11.5074 16.8303 11.7754 17.1666 11.7754ZM19.0299 12.2412C19.3662 12.2412 19.6262 11.9732 19.6262 11.6369C19.6262 11.3068 19.3662 11.0389 19.0299 11.0389C18.6918 11.0389 18.4318 11.3068 18.4318 11.6369C18.4318 11.9732 18.6918 12.2412 19.0299 12.2412ZM20.7644 13.0525C21.1025 13.0525 21.3625 12.7926 21.3625 12.4545C21.3625 12.1181 21.1025 11.8582 20.7644 11.8582C20.4281 11.8582 20.1682 12.1181 20.1682 12.4545C20.1682 12.7926 20.4281 13.0525 20.7644 13.0525ZM22.6107 13.3863C22.9488 13.3863 23.2168 13.1201 23.2168 12.782C23.2168 12.4519 22.9488 12.184 22.6107 12.184C22.2824 12.184 22.0144 12.4519 22.0144 12.782C22.0144 13.1201 22.2824 13.3863 22.6107 13.3863Z" fill="white" fill-opacity="0.85"/>
 </g>
</svg>
