<?xml version="1.0" encoding="UTF-8"?>
<!--Generator: Apple Native CoreSVG 341-->
<!DOCTYPE svg
PUBLIC "-//W3C//DTD SVG 1.1//EN"
       "http://www.w3.org/Graphics/SVG/1.1/DTD/svg11.dtd">
<svg version="1.1" xmlns="http://www.w3.org/2000/svg" xmlns:xlink="http://www.w3.org/1999/xlink" viewBox="0 0 20.5381 20.1848">
 <g>
  <rect height="20.1848" opacity="0" width="20.5381" x="0" y="0"/>
  <path d="M20.1767 10.0875C20.1767 15.6478 15.6576 20.175 10.0875 20.175C4.52715 20.175 0 15.6478 0 10.0875C0 4.51914 4.52715 0 10.0875 0C15.6576 0 20.1767 4.51914 20.1767 10.0875ZM9.2332 2.78632C9.12851 2.78632 9.02031 2.83691 8.94843 2.92382L5.49179 7.70702C5.28691 7.99179 5.34804 8.3787 5.6746 8.52069L7.61035 9.35624C7.69374 9.3953 7.76386 9.3953 7.88906 9.3953L9.17831 9.3953C9.37734 9.3953 9.43867 9.5162 9.43867 9.66542L9.43867 11.1412L8.14941 13.599C8.10058 13.6807 8.08906 13.7623 8.08906 13.868L8.08906 16.5939C8.08906 16.902 8.33046 17.1611 8.65624 17.1611C8.94824 17.1611 9.20917 16.902 9.20917 16.5939L9.20917 14.0277L10.4217 12.2396C10.4678 12.166 10.5982 12.1873 10.6098 12.2902L10.7945 13.8715C10.8061 13.9674 10.8158 14.0197 10.8629 14.1174L11.8689 16.7945C12.0074 17.1416 12.3305 17.21 12.5879 17.1238C12.8551 17.0227 13.0557 16.76 12.9252 16.4049L11.9209 13.7393L11.9209 8.63632C11.9209 8.06366 11.6768 7.45468 11.1201 7.22206L10.7721 7.07734C10.1523 6.81366 9.55664 6.90331 9.03281 7.27265L7.7621 8.18281L6.41288 7.62148L9.2162 3.71972L10.1193 3.71972C10.3855 3.71972 10.5994 3.51034 10.5994 3.2539C10.5994 2.98593 10.3855 2.78632 10.1193 2.78632ZM10.1877 5.40546C10.1877 6.07577 10.7248 6.60487 11.3889 6.60487C12.0414 6.60487 12.5723 6.07577 12.5723 5.40546C12.5723 4.74941 12.0414 4.23007 11.3889 4.23007C10.7248 4.23007 10.1877 4.74941 10.1877 5.40546Z" fill="white" fill-opacity="0.85"/>
 </g>
</svg>
