<?xml version="1.0" encoding="UTF-8"?>
<!--Generator: Apple Native CoreSVG 341-->
<!DOCTYPE svg
PUBLIC "-//W3C//DTD SVG 1.1//EN"
       "http://www.w3.org/Graphics/SVG/1.1/DTD/svg11.dtd">
<svg version="1.1" xmlns="http://www.w3.org/2000/svg" xmlns:xlink="http://www.w3.org/1999/xlink" viewBox="0 0 20.5381 20.1848">
 <g>
  <rect height="20.1848" opacity="0" width="20.5381" x="0" y="0"/>
  <path d="M20.1767 10.0875C20.1767 15.6478 15.6576 20.175 10.0875 20.175C4.52715 20.175 0 15.6478 0 10.0875C0 4.51914 4.52715 0 10.0875 0C15.6576 0 20.1767 4.51914 20.1767 10.0875ZM6.61112 15.8186C6.41327 15.8186 6.25624 15.9854 6.25624 16.1832C6.25624 16.373 6.41327 16.5496 6.61112 16.5496L8.84355 16.5496C9.05117 16.5496 9.23222 16.373 9.23222 16.1832C9.23222 15.9773 9.05117 15.8186 8.84355 15.8186ZM13.1891 8.23222L12.7602 8.2828L12.7602 14.7367L10.8535 15.3717C10.5953 15.4551 10.5412 15.692 10.6051 15.8686C10.6689 16.0193 10.8455 16.1578 11.0726 16.0682L13.2117 15.3578C13.398 15.2957 13.4894 15.168 13.4894 14.9443L13.4894 8.15702C13.3812 8.20038 13.3176 8.2207 13.1891 8.23222ZM7.8998 12.4016L6.56074 14.3906C6.30507 14.7537 6.4871 15.1213 6.77656 15.2473C7.00468 15.3715 7.30195 15.3377 7.50253 15.0359L8.95077 12.8773C8.99159 12.8055 9.03242 12.7061 9.04843 12.5791L9.10351 11.6791L7.81718 10.9236ZM7.38124 7.09335L7.20898 8.9998C7.16015 9.58398 7.47089 10.1531 7.97519 10.4461L10.2049 11.7381L11.0822 13.9287C11.234 14.3246 11.6299 14.4125 11.9068 14.282C12.1447 14.1551 12.2947 13.8861 12.1465 13.5018L11.1777 11.1025C11.1564 11.0209 11.0926 10.9543 10.9691 10.8664L9.22245 9.56816L9.35566 7.67109C9.37167 7.56542 9.44355 7.5246 9.55546 7.56015L10.6541 7.94472C10.7793 7.97577 10.908 7.98554 11.0367 7.97577L13.1545 7.73691C13.9365 7.64726 13.7918 6.50663 13.0275 6.60429L10.9701 6.83339L8.88339 6.13632C8.11191 5.88241 7.43984 6.32187 7.38124 7.09335ZM7.84472 4.38359C7.84472 5.04765 8.38984 5.583 9.05038 5.583C9.72246 5.583 10.2658 5.04765 10.2658 4.38359C10.2658 3.71503 9.72246 3.16991 9.05038 3.16991C8.38984 3.16991 7.84472 3.71503 7.84472 4.38359Z" fill="white" fill-opacity="0.85"/>
 </g>
</svg>
