<?xml version="1.0" encoding="UTF-8"?>
<!--Generator: Apple Native CoreSVG 341-->
<!DOCTYPE svg
PUBLIC "-//W3C//DTD SVG 1.1//EN"
       "http://www.w3.org/Graphics/SVG/1.1/DTD/svg11.dtd">
<svg version="1.1" xmlns="http://www.w3.org/2000/svg" xmlns:xlink="http://www.w3.org/1999/xlink" viewBox="0 0 19.8377 25.8449">
 <g>
  <rect height="25.8449" opacity="0" width="19.8377" x="0" y="0"/>
  <path d="M17.2957 9.61991C18.4992 9.61991 19.4764 8.63476 19.4764 7.41347C19.4764 6.2082 18.4992 5.23281 17.2957 5.23281C16.0726 5.23281 15.0892 6.2082 15.0892 7.41347C15.0892 8.63476 16.0726 9.61991 17.2957 9.61991ZM8.38671 17.4238L12.0221 20.0773L9.9039 24.3021C9.6457 24.807 9.85156 25.4521 10.376 25.7183C10.8551 25.949 11.4904 25.801 11.7646 25.2463L14.2617 20.2521C14.4748 19.8197 14.4178 19.3398 14.0461 18.9814L12.2353 17.2826L15.3389 17.2826C15.9432 17.2826 16.3877 16.8123 16.3877 16.2373L16.3877 12.2205C16.3877 10.5475 15.0359 9.17616 13.3451 9.17616L9.69882 9.17616L10.3248 6.97948C10.4783 6.43378 10.1793 5.85703 9.61757 5.6955C9.0621 5.53046 8.48886 5.85703 8.33359 6.40449L7.33496 9.91796C7.14062 10.6119 7.5541 11.2525 8.29062 11.2525L11.7092 11.2525C11.7535 11.2525 11.7828 11.3164 11.7402 11.3474L8.7666 12.8529C6.97285 13.7547 6.74922 16.2221 8.38671 17.4238ZM12.2994 15.2584L14.1859 14.3613C14.2738 14.324 14.3795 14.3791 14.3795 14.4785L14.3795 15.2584ZM6.88691 17.2691L6.06191 19.6988L1.0666 19.6988C0.472069 19.6988 0 20.1726 0 20.7459C0 21.3404 0.472069 21.8142 1.0666 21.8142L6.81171 21.8142C7.2039 21.8142 7.59257 21.5853 7.76738 21.2099L8.87031 18.9988L7.80019 18.2277C7.42832 17.9473 7.11855 17.6197 6.88691 17.2691ZM8.8998 4.5412L9.75683 4.5412C10.3586 3.81777 11.0588 2.57793 11.0588 1.74375C11.0588 0.718749 10.3453 0 9.33808 0C8.30957 0 7.58633 0.718749 7.58633 1.74375C7.58633 2.66582 8.28652 3.89941 8.8998 4.5412ZM8.69785 14.9058L9.95077 14.9058L9.95077 4.08144L8.69785 4.08144Z" fill="white" fill-opacity="0.85"/>
 </g>
</svg>
