<?xml version="1.0" encoding="UTF-8"?>
<!--Generator: Apple Native CoreSVG 341-->
<!DOCTYPE svg
PUBLIC "-//W3C//DTD SVG 1.1//EN"
       "http://www.w3.org/Graphics/SVG/1.1/DTD/svg11.dtd">
<svg version="1.1" xmlns="http://www.w3.org/2000/svg" xmlns:xlink="http://www.w3.org/1999/xlink" viewBox="0 0 14.5181 23.1551">
 <g>
  <rect height="23.1551" opacity="0" width="14.5181" x="0" y="0"/>
  <path d="M7.09666 4.41113C8.31795 4.41113 9.30134 3.42773 9.30134 2.20644C9.30134 0.985155 8.31795 0 7.09666 0C5.87537 0 4.89021 0.985155 4.89021 2.20644C4.89021 3.42773 5.87537 4.41113 7.09666 4.41113ZM2.35604 12.2258L3.84568 12.2258C4.67107 12.2258 5.29939 11.61 5.29939 10.8219L5.29939 5.40136C5.29939 4.61777 4.67107 3.9957 3.84568 3.9957L2.83006 3.9957C1.64705 3.9957 0.950375 4.69863 0.950375 5.89491L0.950375 10.8219C0.950375 11.6508 1.53338 12.2258 2.35604 12.2258ZM1.82596 22.3338L4.65623 18.9711C4.95994 18.6043 5.07439 18.4127 5.2822 17.9678L7.03631 14.1924C7.58963 13.0014 7.71716 12.2121 7.80506 10.9541L7.91873 9.40897L9.41326 10.8641C9.76658 11.2084 10.0611 11.3176 10.6842 11.3176L13.0816 11.3176C13.7267 11.3176 14.1562 10.9449 14.1562 10.3441C14.1562 9.77089 13.717 9.38847 13.0816 9.38847L10.542 9.38847L7.53689 6.11972C7.07713 5.61913 6.48064 5.31757 5.75213 5.31757C5.11658 5.31757 4.59998 5.50664 4.09314 5.84042L3.62557 11.8152C3.54744 12.7209 3.68865 13.2553 4.13709 13.9309L3.24471 17.4674L0.325375 20.9201C-0.711147 22.1555 0.986506 23.3347 1.82596 22.3338ZM11.1177 21.0639L9.08513 16.956C8.91912 16.6223 8.70252 16.2725 8.49666 15.9734L7.77185 14.9662L6.72205 17.2228C6.9115 17.4799 7.0031 17.623 7.08045 17.7857L9.17166 22.0125C9.83455 23.3623 11.8295 22.5201 11.1177 21.0639ZM13.0605 6.54003C12.7351 6.54003 12.4842 6.79101 12.4842 7.1164L12.4842 8.39199L13.0816 8.39199C13.2332 8.39199 13.415 8.41328 13.6351 8.45937L13.6351 7.1164C13.6351 6.79101 13.3859 6.54003 13.0605 6.54003ZM13.0525 22.7047C13.3779 22.7047 13.6351 22.4474 13.6351 22.1221L13.6351 12.2484C13.439 12.2928 13.2492 12.3141 13.0816 12.3141L12.4842 12.3141L12.4842 22.1221C12.4842 22.4474 12.7271 22.7047 13.0525 22.7047Z" fill="white" fill-opacity="0.85"/>
 </g>
</svg>
