<?xml version="1.0" encoding="UTF-8"?>
<!--Generator: Apple Native CoreSVG 341-->
<!DOCTYPE svg
PUBLIC "-//W3C//DTD SVG 1.1//EN"
       "http://www.w3.org/Graphics/SVG/1.1/DTD/svg11.dtd">
<svg version="1.1" xmlns="http://www.w3.org/2000/svg" xmlns:xlink="http://www.w3.org/1999/xlink" viewBox="0 0 23.4738 29.4134">
 <g>
  <rect height="29.4134" opacity="0" width="23.4738" x="0" y="0"/>
  <path d="M18.4724 9.96159C19.9767 9.96159 21.189 8.70397 21.189 7.24401C21.189 5.72194 19.9767 4.49538 18.4724 4.49538C16.9441 4.49538 15.7389 5.72194 15.7389 7.24401C15.7389 8.736 16.9441 9.96159 18.4724 9.96159ZM2.29785 24.3563C2.8373 24.9118 3.74687 24.8709 4.40527 24.1895L8.70116 19.7516C8.84843 19.5963 8.95487 19.5608 9.18651 19.6504L12.4941 20.8959C14.643 21.7188 16.7687 20.9604 17.7342 19.1963L19.8453 15.3585C20.692 13.8133 20.424 12.2405 18.9595 11.4506C17.5422 10.6723 16.0662 11.2528 15.208 12.8282L12.4156 17.9186L10.0517 17.0532C8.83788 16.6069 7.81659 16.7524 6.84589 17.7639L2.38926 22.3811C1.74863 23.0448 1.80898 23.8629 2.29785 24.3563Z" fill="white" fill-opacity="0.85"/>
  <path d="M10.1519 0.892444L10.1519 6.1442C10.1519 6.96783 10.9756 7.32994 11.5871 6.77701L14.5601 4.13522C14.9773 3.77487 14.9773 3.28131 14.5601 2.90319L11.5871 0.259633C11.0066-0.262242 10.1519 0.02975 10.1519 0.892444ZM11.4932 4.42135C11.9908 4.42135 12.3953 4.00885 12.3953 3.51119C12.3953 3.01354 11.9908 2.61081 11.4932 2.61081L9.47187 2.61081C8.05351 2.61081 7.07011 3.09362 6.20117 4.24928L3.59804 7.68873C3.07597 8.38307 2.68691 8.55006 1.62324 8.55006L0.900388 8.55006C0.402733 8.55006 0 8.9608 0 9.45846C0 9.95611 0.402733 10.3606 0.900388 10.3606L1.62324 10.3606C3.14726 10.3606 4.1537 9.93463 5.01913 8.7985L7.65155 5.3608C8.23398 4.59459 8.5662 4.42135 9.47187 4.42135Z" fill="white" fill-opacity="0.85"/>
 </g>
</svg>
