<?xml version="1.0" encoding="UTF-8"?>
<!--Generator: Apple Native CoreSVG 341-->
<!DOCTYPE svg
PUBLIC "-//W3C//DTD SVG 1.1//EN"
       "http://www.w3.org/Graphics/SVG/1.1/DTD/svg11.dtd">
<svg version="1.1" xmlns="http://www.w3.org/2000/svg" xmlns:xlink="http://www.w3.org/1999/xlink" viewBox="0 0 19.6281 20.5875">
 <g>
  <rect height="20.5875" opacity="0" width="19.6281" x="0" y="0"/>
  <path d="M16.5416 5.65859C18.0556 5.65859 19.2662 4.40273 19.2662 2.94101C19.2662 1.4207 18.0556 0.184374 16.5416 0.184374C15.0213 0.184374 13.808 1.4207 13.808 2.94101C13.808 4.42675 15.0213 5.65859 16.5416 5.65859ZM14.8142 16.0394C15.2509 15.6924 15.6839 15.1232 16.0746 14.4023L17.9224 11.0474C18.7806 9.49432 18.5002 7.91893 17.0384 7.13964C15.613 6.35155 14.1513 6.94979 13.2851 8.51893L11.4033 11.9178ZM0.37498 20.0373C0.914432 20.6008 1.824 20.5519 2.4824 19.8785L6.77829 15.4406C6.93357 15.2853 7.032 15.2498 7.25739 15.3394L10.7847 16.6668C11.5843 16.9703 12.447 16.9293 13.0851 16.8051L10.4961 13.6082L8.12888 12.7422C6.91501 12.2959 5.90173 12.4414 4.92302 13.4529L0.466386 18.0701C-0.166229 18.7338-0.113886 19.5519 0.37498 20.0373ZM16.957 20.1404C17.389 19.798 17.4254 19.2763 17.0146 18.7804L14.8142 16.0394C14.2898 16.4068 13.7078 16.6668 13.0851 16.8051L15.6298 19.9338C16.0281 20.4207 16.524 20.4927 16.957 20.1404Z" fill="white" fill-opacity="0.85"/>
  <path d="M5.1488 10.2619C8.00739 10.2619 10.2367 7.90741 10.2367 5.16601C10.2367 2.30215 8.00563 0 5.1488 0C2.29998 0 0.000567155 2.30215 0.000567155 5.16601C0.000567155 7.90741 2.29998 10.2619 5.1488 10.2619Z" fill="white" fill-opacity="0.85"/>
 </g>
</svg>
