<?xml version="1.0" encoding="UTF-8"?>
<!--Generator: Apple Native CoreSVG 341-->
<!DOCTYPE svg
PUBLIC "-//W3C//DTD SVG 1.1//EN"
       "http://www.w3.org/Graphics/SVG/1.1/DTD/svg11.dtd">
<svg version="1.1" xmlns="http://www.w3.org/2000/svg" xmlns:xlink="http://www.w3.org/1999/xlink" viewBox="0 0 20.5381 20.1848">
 <g>
  <rect height="20.1848" opacity="0" width="20.5381" x="0" y="0"/>
  <path d="M10.0875 20.175C15.6576 20.175 20.1767 15.6559 20.1767 10.0875C20.1767 4.51914 15.6576 0 10.0875 0C4.51914 0 0 4.51914 0 10.0875C0 15.6559 4.51914 20.175 10.0875 20.175ZM10.0875 18.1879C5.60839 18.1879 1.9871 14.5666 1.9871 10.0875C1.9871 5.60839 5.60839 1.9871 10.0875 1.9871C14.5666 1.9871 18.1897 5.60839 18.1897 10.0875C18.1897 14.5666 14.5666 18.1879 10.0875 18.1879Z" fill="white" fill-opacity="0.85"/>
  <path d="M10.3574 8.37383C10.9967 8.37383 11.525 7.86152 11.525 7.21425C11.525 6.56875 10.9967 6.04668 10.3574 6.04668C9.71992 6.04668 9.18984 6.56875 9.18984 7.21425C9.18984 7.86152 9.71992 8.37383 10.3574 8.37383ZM7.84101 10.9143C9.00527 11.052 9.21796 11.7445 10.0715 11.7445C10.106 11.7445 10.1406 11.741 10.1672 11.7295L10.6805 10.2873C10.7338 10.1371 10.8377 10.0705 10.9959 10.0705L15.6695 10.0705C15.9936 10.0705 16.259 9.80683 16.259 9.48105C16.259 9.1748 15.9936 8.90937 15.6695 8.90937L6.88515 8.90937L6.1578 6.53378C6.0664 6.22929 5.74413 6.04375 5.44765 6.1414C5.14491 6.24082 4.96913 6.56484 5.05702 6.85156L5.88554 9.59199C5.96191 9.8459 6.15898 10.0705 6.44394 10.0705L7.95097 10.0705C8.0496 10.0705 8.11542 10.1496 8.08163 10.2527ZM7.23515 6.40566C7.70038 6.40566 8.07148 6.01855 8.07148 5.56132C8.07148 5.10058 7.70038 4.72324 7.23515 4.72324C6.77792 4.72324 6.39706 5.10058 6.39706 5.56132C6.39706 6.01855 6.77792 6.40566 7.23515 6.40566ZM10.0715 13.2365C11.518 13.2365 11.8428 12.3742 12.7578 12.3742C13.7037 12.3742 14.0021 13.2365 15.4504 13.2365L15.8242 13.2365C16.0133 13.2365 16.1633 13.0803 16.1633 12.8975C16.1633 12.7182 16.0133 12.5584 15.8242 12.5584L15.4504 12.5584C14.4734 12.5584 14.1457 11.6863 12.7578 11.6863C11.4123 11.6863 11.0404 12.5584 10.0715 12.5584C9.09452 12.5584 8.73242 11.6863 7.3789 11.6863C5.98749 11.6863 5.66151 12.5584 4.69257 12.5584L4.32499 12.5584C4.14569 12.5584 3.98768 12.7182 3.98768 12.8975C3.98768 13.0803 4.14569 13.2365 4.32499 13.2365L4.69257 13.2365C6.13905 13.2365 6.43749 12.3742 7.3789 12.3742C8.29843 12.3742 8.62499 13.2365 10.0715 13.2365ZM4.33046 14.4332C4.5205 14.4332 4.67499 14.2805 4.67499 14.0904C4.67499 13.9004 4.5205 13.7477 4.33046 13.7477C4.14042 13.7477 3.98768 13.9004 3.98768 14.0904C3.98768 14.2805 4.14042 14.4332 4.33046 14.4332ZM5.25311 14.4332C5.44315 14.4332 5.59765 14.2805 5.59765 14.0904C5.59765 13.9004 5.44315 13.7477 5.25311 13.7477C5.06308 13.7477 4.91034 13.9004 4.91034 14.0904C4.91034 14.2805 5.06308 14.4332 5.25311 14.4332ZM6.18378 14.1295C6.38183 14.1295 6.52831 13.9768 6.52831 13.7867C6.52831 13.5967 6.38183 13.4422 6.18378 13.4422C5.99374 13.4422 5.84101 13.5967 5.84101 13.7867C5.84101 13.9768 5.99374 14.1295 6.18378 14.1295ZM7.1828 13.8738C7.37284 13.8738 7.51757 13.7291 7.51757 13.5391C7.51757 13.341 7.37284 13.1963 7.1828 13.1963C6.98476 13.1963 6.83827 13.341 6.83827 13.5391C6.83827 13.7291 6.98476 13.8738 7.1828 13.8738ZM8.17031 14.1295C8.36034 14.1295 8.51308 13.9768 8.51308 13.7867C8.51308 13.5967 8.36034 13.4422 8.17031 13.4422C7.97226 13.4422 7.82753 13.5967 7.82753 13.7867C7.82753 13.9768 7.97226 14.1295 8.17031 14.1295ZM9.09296 14.5602C9.283 14.5602 9.43574 14.4074 9.43574 14.2174C9.43574 14.0273 9.283 13.8728 9.09296 13.8728C8.90292 13.8728 8.74843 14.0273 8.74843 14.2174C8.74843 14.4074 8.90292 14.5602 9.09296 14.5602ZM10.0715 14.7404C10.2615 14.7404 10.4143 14.5859 10.4143 14.3959C10.4143 14.1978 10.2615 14.0531 10.0715 14.0531C9.87343 14.0531 9.72871 14.1978 9.72871 14.3959C9.72871 14.5859 9.87343 14.7404 10.0715 14.7404ZM11.058 14.5602C11.248 14.5602 11.3928 14.4074 11.3928 14.2174C11.3928 14.0273 11.248 13.8728 11.058 13.8728C10.86 13.8728 10.7135 14.0273 10.7135 14.2174C10.7135 14.4074 10.86 14.5602 11.058 14.5602ZM11.9789 14.1295C12.1689 14.1295 12.3234 13.9768 12.3234 13.7867C12.3234 13.5967 12.1689 13.4422 11.9789 13.4422C11.7889 13.4422 11.6361 13.5967 11.6361 13.7867C11.6361 13.9768 11.7889 14.1295 11.9789 14.1295ZM12.9762 13.8738C13.1742 13.8738 13.3189 13.7291 13.3189 13.5391C13.3189 13.341 13.1742 13.1963 12.9762 13.1963C12.7861 13.1963 12.6316 13.341 12.6316 13.5391C12.6316 13.7291 12.7861 13.8738 12.9762 13.8738ZM13.9654 14.1295C14.1635 14.1295 14.3082 13.9768 14.3082 13.7867C14.3082 13.5967 14.1635 13.4422 13.9654 13.4422C13.7754 13.4422 13.6307 13.5967 13.6307 13.7867C13.6307 13.9768 13.7754 14.1295 13.9654 14.1295ZM14.8961 14.4332C15.0861 14.4332 15.2309 14.2805 15.2309 14.0904C15.2309 13.9004 15.0861 13.7477 14.8961 13.7477C14.698 13.7477 14.5533 13.9004 14.5533 14.0904C14.5533 14.2805 14.698 14.4332 14.8961 14.4332ZM15.8285 14.4332C16.0186 14.4332 16.1633 14.2805 16.1633 14.0904C16.1633 13.9004 16.0186 13.7477 15.8285 13.7477C15.6305 13.7477 15.4857 13.9004 15.4857 14.0904C15.4857 14.2805 15.6305 14.4332 15.8285 14.4332Z" fill="white" fill-opacity="0.85"/>
 </g>
</svg>
