<?xml version="1.0" encoding="UTF-8"?>
<!--Generator: Apple Native CoreSVG 341-->
<!DOCTYPE svg
PUBLIC "-//W3C//DTD SVG 1.1//EN"
       "http://www.w3.org/Graphics/SVG/1.1/DTD/svg11.dtd">
<svg version="1.1" xmlns="http://www.w3.org/2000/svg" xmlns:xlink="http://www.w3.org/1999/xlink" viewBox="0 0 20.5381 20.1848">
 <g>
  <rect height="20.1848" opacity="0" width="20.5381" x="0" y="0"/>
  <path d="M20.1767 10.0875C20.1767 15.6478 15.6576 20.175 10.0875 20.175C4.52715 20.175 0 15.6478 0 10.0875C0 4.51914 4.52715 0 10.0875 0C15.6576 0 20.1767 4.51914 20.1767 10.0875ZM8.63945 13.3603L7.61386 15.9266C7.43456 16.3926 7.77363 16.7219 8.12245 16.7219C8.34882 16.7219 8.55116 16.6047 8.67636 16.326L9.72148 13.6977C9.73124 13.6506 9.74452 13.6018 9.75253 13.5627L10.0723 11.4943L9.72343 11.5219C9.38164 11.5432 9.11367 11.5103 8.77265 11.3834ZM12.9957 5.97265L12.041 7.4957L11.3012 6.76386C10.5838 6.03847 9.77402 5.88925 8.67656 6.01093L6.73905 6.23202C6.47187 6.25155 6.26503 6.47968 6.23398 6.71933L5.95429 8.86015C5.86464 9.58007 6.98573 9.75937 7.08515 9.00488L7.29648 7.29804L8.29648 7.18437C8.43066 7.17284 8.51249 7.25644 8.49472 7.41015L8.22831 9.50038C8.10312 10.509 8.69355 11.0852 9.68437 11.0168L11.6621 10.8853L11.0662 13.0451C10.8691 13.8059 11.9689 14.0766 12.1678 13.3416L12.9447 10.4096C13.0602 10.0314 12.7965 9.71191 12.3615 9.71191L10.3199 9.71191L10.5766 7.94374C10.6041 7.77753 10.7242 7.77753 10.8291 7.87792L11.7428 8.79784C11.9807 9.04374 12.4271 9.02421 12.6162 8.70644L13.949 6.56913C14.376 5.89452 13.3756 5.35312 12.9957 5.97265ZM9.27167 4.35858C9.27167 5.03691 9.80253 5.57226 10.4889 5.57226C11.1529 5.57226 11.6883 5.03691 11.6883 4.35858C11.6883 3.69452 11.1529 3.15917 10.4889 3.15917C9.80253 3.15917 9.27167 3.69452 9.27167 4.35858Z" fill="white" fill-opacity="0.85"/>
 </g>
</svg>
