<?xml version="1.0" encoding="UTF-8"?>
<!--Generator: Apple Native CoreSVG 341-->
<!DOCTYPE svg
PUBLIC "-//W3C//DTD SVG 1.1//EN"
       "http://www.w3.org/Graphics/SVG/1.1/DTD/svg11.dtd">
<svg version="1.1" xmlns="http://www.w3.org/2000/svg" xmlns:xlink="http://www.w3.org/1999/xlink" viewBox="0 0 19.5521 18.828">
 <g>
  <rect height="18.828" opacity="0" width="19.5521" x="0" y="0"/>
  <path d="M3.89101 4.94312C5.10429 4.94312 6.07968 3.96598 6.07968 2.7527C6.07968 1.54742 5.10429 0.564028 3.89101 0.564028C2.67773 0.564028 1.70058 1.54742 1.70058 2.7527C1.70058 3.96598 2.67773 4.94312 3.89101 4.94312ZM0.0279237 9.08863L0.603119 12.6252C0.836517 13.974 2.68222 13.6962 2.46659 12.3607L1.96854 9.33433L3.94921 8.56109C4.23964 8.44918 4.49276 8.49351 4.61444 8.76441L6.45644 12.4093C7.01562 13.5144 7.47362 13.8535 7.92987 14.181L13.8889 18.5582C14.9715 19.355 16.2697 17.7808 15.0566 16.8828L10.4203 13.4847C10.2115 13.3328 10.231 13.0529 10.4558 12.9267L13.5957 11.1193L17.7129 13.0882C18.9357 13.6615 19.9074 11.9498 18.4805 11.2673L14.0723 9.16891C13.5264 8.91148 13.0107 8.98609 12.5582 9.25406L10.4828 10.4658C10.2269 10.6132 10.0457 10.5457 9.95506 10.3529L8.28534 6.95133C8.13612 6.65113 8.1787 6.36246 8.49764 6.20875L10.0191 5.51637C10.5348 5.27496 10.7256 5.0984 10.8676 4.60582L11.8351 1.25484C12.206-0.0531606 10.442-0.534996 10.0648 0.771252L9.12831 4.03805L0.72011 7.73531C0.134369 7.99-0.0830137 8.43902 0.0279237 9.08863Z" fill="white" fill-opacity="0.85"/>
 </g>
</svg>
