<?xml version="1.0" encoding="UTF-8"?>
<!--Generator: Apple Native CoreSVG 341-->
<!DOCTYPE svg
PUBLIC "-//W3C//DTD SVG 1.1//EN"
       "http://www.w3.org/Graphics/SVG/1.1/DTD/svg11.dtd">
<svg version="1.1" xmlns="http://www.w3.org/2000/svg" xmlns:xlink="http://www.w3.org/1999/xlink" viewBox="0 0 24.8269 23.1551">
 <g>
  <rect height="23.1551" opacity="0" width="24.8269" x="0" y="0"/>
  <path d="M4.43026 4.13105L10.1002 4.13105C10.4613 4.13105 10.7523 3.82851 10.7523 3.45585C10.7523 3.0832 10.4613 2.77265 10.1002 2.77265L4.43026 2.77265C4.05936 2.77265 3.77636 3.0832 3.77636 3.45585C3.77636 3.82851 4.05936 4.13105 4.43026 4.13105ZM0.640624 9.07284L7.58846 9.07284C7.9576 9.07284 8.23885 8.7703 8.23885 8.39765C8.23885 8.02499 7.9576 7.71445 7.58846 7.71445L0.640624 7.71445C0.281249 7.71445 0 8.033 0 8.39765C0 8.7623 0.281249 9.07284 0.640624 9.07284ZM3.78378 14.0146L7.60995 14.0146C7.97108 14.0146 8.25233 13.7121 8.25233 13.3394C8.25233 12.9668 7.97108 12.6562 7.60995 12.6562L3.78378 12.6562C3.41464 12.6562 3.13163 12.9668 3.13163 13.3394C3.13163 13.7121 3.41464 14.0146 3.78378 14.0146ZM1.04492 18.9066L6.34647 18.9066C6.7076 18.9066 6.99061 18.6041 6.99061 18.2314C6.99061 17.8588 6.7076 17.5482 6.34647 17.5482L1.04492 17.5482C0.683786 17.5482 0.400779 17.8588 0.400779 18.2314C0.400779 18.6041 0.683786 18.9066 1.04492 18.9066Z" fill="white" fill-opacity="0.85"/>
  <path d="M12.2176 22.3178L15.3324 18.6099C15.6422 18.2461 15.683 18.1449 15.8054 17.7703L16.0277 17.1168L14.307 14.9568L13.8017 17.2859L10.725 20.9281C9.70624 22.1314 11.3719 23.3187 12.2176 22.3178ZM19.7527 22.0045C20.4058 23.3463 22.3865 22.5201 21.673 21.0736L19.5586 16.7844C19.4023 16.4586 19.1697 16.1168 18.9701 15.8258L17.6322 13.9277L17.7211 13.6683C18.0851 12.5891 18.2181 11.9375 18.2945 10.8723L18.5031 7.87284C18.6043 6.42089 17.7408 5.32558 16.2754 5.32558C15.165 5.32558 14.4133 5.89003 13.4049 6.8789L11.8195 8.43945C11.2949 8.95077 11.1219 9.37675 11.0713 10.0637L10.8805 12.5154C10.8299 13.149 11.1928 13.6096 11.7838 13.6291C12.3783 13.6717 12.7412 13.3168 12.8015 12.6379L13.0359 9.9623L13.7633 9.30331C14.0191 9.07499 14.3664 9.22694 14.3389 9.50038L14.1728 11.7334C14.0849 12.8732 14.3469 13.4314 15.159 14.4379L17.2539 17.0769C17.459 17.3371 17.49 17.4392 17.5797 17.606ZM23.391 9.38847L21.0074 9.38847L19.5013 7.71718L19.3345 10.3217L19.8787 10.8641C20.2345 11.2094 20.5345 11.3176 21.1576 11.3176L23.391 11.3176C24.0361 11.3176 24.4656 10.9449 24.4656 10.3441C24.4656 9.77089 24.0263 9.38847 23.391 9.38847ZM17.4672 4.41113C18.6885 4.41113 19.6736 3.42773 19.6736 2.20644C19.6736 0.985155 18.6885 0 17.4672 0C16.2459 0 15.2625 0.985155 15.2625 2.20644C15.2625 3.42773 16.2459 4.41113 17.4672 4.41113Z" fill="white" fill-opacity="0.85"/>
 </g>
</svg>
