<?xml version="1.0" encoding="UTF-8"?>
<!--Generator: Apple Native CoreSVG 341-->
<!DOCTYPE svg
PUBLIC "-//W3C//DTD SVG 1.1//EN"
       "http://www.w3.org/Graphics/SVG/1.1/DTD/svg11.dtd">
<svg version="1.1" xmlns="http://www.w3.org/2000/svg" xmlns:xlink="http://www.w3.org/1999/xlink" viewBox="0 0 20.5381 20.1848">
 <g>
  <rect height="20.1848" opacity="0" width="20.5381" x="0" y="0"/>
  <path d="M20.1767 10.0875C20.1767 15.6478 15.6576 20.175 10.0875 20.175C4.52715 20.175 0 15.6478 0 10.0875C0 4.51914 4.52715 0 10.0875 0C15.6576 0 20.1767 4.51914 20.1767 10.0875ZM8.61386 11.5531L7.9832 13.3305C7.96191 13.4006 7.95214 13.4299 7.94238 13.4805L7.43183 15.9037C7.34218 16.3031 7.58359 16.5686 7.8623 16.6174C8.133 16.676 8.43925 16.5375 8.52714 16.1434L9.04218 13.808L10.0795 11.9434L11.1168 13.808L11.6256 16.1434C11.7135 16.5455 12.0357 16.676 12.3225 16.6094C12.5932 16.5445 12.8105 16.2951 12.7271 15.9037L12.2103 13.4805C12.1988 13.4299 12.1891 13.3908 12.1775 13.3305L11.5469 11.5531ZM9.42597 6.30331C8.86308 6.30331 8.40585 6.58476 8.16347 7.07929L6.55976 10.3285L5.38905 10.3285L5.38905 9.23242C5.38905 8.99374 5.23026 8.83496 4.9996 8.83496L4.6789 8.83496C4.44648 8.83496 4.28769 8.99374 4.28769 9.23242L4.28769 10.3285L3.85761 10.3285C3.658 10.3285 3.49472 10.4775 3.49472 10.6932C3.49472 10.9008 3.658 11.056 3.85761 11.056L4.28769 11.056L4.28769 12.1619C4.28769 12.3926 4.44648 12.5611 4.6789 12.5611L4.9996 12.5611C5.23026 12.5611 5.38905 12.3926 5.38905 12.1619L5.38905 11.056L6.19238 11.056L6.14882 11.1707C6.03417 11.4504 6.14863 11.7754 6.40077 11.9006C6.68398 12.0506 7.02831 11.9219 7.16503 11.6432L7.45195 11.056L12.699 11.056L12.9877 11.6432C13.1244 11.9219 13.4732 12.0506 13.7502 11.9006C14.0121 11.7754 14.1248 11.4504 14.0004 11.1707L13.9568 11.056L14.7619 11.056L14.7619 12.1619C14.7619 12.3926 14.9189 12.5611 15.1496 12.5611L15.4703 12.5611C15.7027 12.5611 15.8615 12.3926 15.8615 12.1619L15.8615 11.056L16.2916 11.056C16.493 11.056 16.6562 10.9008 16.6562 10.6932C16.6562 10.4775 16.493 10.3285 16.2916 10.3285L15.8615 10.3285L15.8615 9.23242C15.8615 8.99374 15.7027 8.83496 15.4703 8.83496L15.1496 8.83496C14.9189 8.83496 14.7619 8.99374 14.7619 9.23242L14.7619 10.3285L13.6055 10.3285L12.0035 7.07929C11.7514 6.58476 11.3057 6.30331 10.733 6.30331ZM8.86054 8.60155L8.86054 9.83144L11.2984 9.83144L11.2984 8.60155C11.2984 8.52069 11.4211 8.4789 11.4824 8.59179L12.3379 10.3285L7.81484 10.3285L8.67831 8.59179C8.73788 8.4789 8.86054 8.51269 8.86054 8.60155ZM8.86581 4.55331C8.86581 5.23163 9.40742 5.77675 10.0795 5.77675C10.7418 5.77675 11.2869 5.23163 11.2869 4.55331C11.2869 3.88925 10.7418 3.35214 10.0795 3.35214C9.40742 3.35214 8.86581 3.88925 8.86581 4.55331Z" fill="white" fill-opacity="0.85"/>
 </g>
</svg>
