<?xml version="1.0" encoding="UTF-8"?>
<!--Generator: Apple Native CoreSVG 341-->
<!DOCTYPE svg
PUBLIC "-//W3C//DTD SVG 1.1//EN"
       "http://www.w3.org/Graphics/SVG/1.1/DTD/svg11.dtd">
<svg version="1.1" xmlns="http://www.w3.org/2000/svg" xmlns:xlink="http://www.w3.org/1999/xlink" viewBox="0 0 20.5381 20.1848">
 <g>
  <rect height="20.1848" opacity="0" width="20.5381" x="0" y="0"/>
  <path d="M20.1767 10.0875C20.1767 15.6478 15.6576 20.175 10.0875 20.175C4.52715 20.175 0 15.6478 0 10.0875C0 4.51914 4.52715 0 10.0875 0C15.6576 0 20.1767 4.51914 20.1767 10.0875ZM14.8463 10.2752C14.7203 10.4234 14.699 10.6283 14.9262 10.8387C15.316 11.1912 15.5771 11.7072 15.5771 12.2853C15.5771 13.3687 14.7051 14.2338 13.6172 14.2338C12.5275 14.2338 11.6545 13.3687 11.6545 12.2853C11.6545 12.0207 11.7078 11.7561 11.8135 11.5012C11.9297 11.2385 11.8117 11.0486 11.6254 10.9848C11.4586 10.9084 11.2527 10.9572 11.1658 11.1924C11.0051 11.5324 10.9252 11.9 10.9252 12.2853C10.9252 13.7787 12.1273 14.9711 13.6172 14.9711C15.107 14.9711 16.3109 13.7787 16.3109 12.2853C16.3109 11.4801 15.9434 10.7564 15.3822 10.2539C15.1959 10.0871 14.9687 10.1555 14.8463 10.2752ZM3.59101 12.2613C3.59101 13.7529 4.78515 14.9471 6.26699 14.9471C7.75683 14.9471 8.9705 13.7529 8.9705 12.2613C8.9705 10.7697 7.75683 9.56582 6.26699 9.56582C4.78515 9.56582 3.59101 10.7697 3.59101 12.2613ZM8.24296 12.2613C8.24296 13.351 7.35664 14.2098 6.26699 14.2098C5.1871 14.2098 4.31855 13.351 4.31855 12.2613C4.31855 11.1717 5.1871 10.2934 6.26699 10.2934C7.35664 10.2934 8.24296 11.1717 8.24296 12.2613ZM8.36288 5.60761C7.79999 5.60761 7.3037 5.94589 7.08085 6.45371C6.86425 6.9873 6.9832 7.57949 7.38359 7.97988L9.38066 9.99648L9.38066 12.4908C9.38066 12.8006 9.63808 13.0598 9.9541 13.0598C10.2541 13.0598 10.5133 12.8006 10.5133 12.4908L10.5133 9.74882C10.5133 9.61035 10.4609 9.47988 10.3535 9.37246L8.93359 7.78828C8.84823 7.6914 8.90956 7.55449 9.02695 7.55449L10.7799 7.55449C10.9691 7.55449 11.035 7.6914 11.035 7.84062L11.035 9.20097C11.035 9.50097 11.2861 9.76816 11.5959 9.76816L13.7998 9.76816C14.1078 9.76816 14.3572 9.50097 14.3572 9.20097C14.3572 8.88672 14.1078 8.62578 13.7998 8.62578L12.1711 8.62578L12.1711 6.71738C12.1711 6.09589 11.665 5.60761 11.056 5.60761ZM12.6891 5.89433C12.6891 6.55839 13.2262 7.10175 13.9045 7.10175C14.5766 7.10175 15.1021 6.55839 15.1021 5.89433C15.1021 5.21777 14.5766 4.67714 13.9045 4.67714C13.2262 4.67714 12.6891 5.21777 12.6891 5.89433Z" fill="white" fill-opacity="0.85"/>
 </g>
</svg>
