<?xml version="1.0" encoding="UTF-8"?>
<!--Generator: Apple Native CoreSVG 341-->
<!DOCTYPE svg
PUBLIC "-//W3C//DTD SVG 1.1//EN"
       "http://www.w3.org/Graphics/SVG/1.1/DTD/svg11.dtd">
<svg version="1.1" xmlns="http://www.w3.org/2000/svg" xmlns:xlink="http://www.w3.org/1999/xlink" viewBox="0 0 20.5381 20.1848">
 <g>
  <rect height="20.1848" opacity="0" width="20.5381" x="0" y="0"/>
  <path d="M10.0875 20.175C15.6576 20.175 20.1767 15.6559 20.1767 10.0875C20.1767 4.51914 15.6576 0 10.0875 0C4.51914 0 0 4.51914 0 10.0875C0 15.6559 4.51914 20.175 10.0875 20.175ZM10.0875 18.1879C5.60839 18.1879 1.9871 14.5666 1.9871 10.0875C1.9871 5.60839 5.60839 1.9871 10.0875 1.9871C14.5666 1.9871 18.1897 5.60839 18.1897 10.0875C18.1897 14.5666 14.5666 18.1879 10.0875 18.1879Z" fill="white" fill-opacity="0.85"/>
  <path d="M10.5728 6.55585C11.2103 6.55585 11.7324 6.03554 11.7324 5.38827C11.7324 4.75253 11.2103 4.22069 10.5728 4.22069C9.93359 4.22069 9.40527 4.75253 9.40527 5.38827C9.40527 6.03554 9.93359 6.55585 10.5728 6.55585ZM8.83906 13.4164C9.05566 13.633 9.40097 13.633 9.61757 13.4164L11.7861 11.2478C12.0924 10.9416 11.8971 10.3797 11.4248 10.3309L8.99609 10.0644C8.81913 10.0404 8.78984 9.93378 8.86718 9.82441L9.733 8.51191C9.81562 8.39374 9.96054 8.36796 10.0805 8.44257L11.6141 9.45937C11.7002 9.5162 11.8014 9.56503 11.9088 9.56503L14.0818 9.56503C14.3686 9.56503 14.6242 9.30937 14.6242 9.01288C14.6242 8.70214 14.3686 8.44648 14.0818 8.44648L12.0748 8.44648L7.39667 5.33397C7.30878 5.26737 7.1996 5.23456 7.09042 5.23456L4.91737 5.23456C4.62265 5.23456 4.37499 5.49198 4.37499 5.78847C4.37499 6.09296 4.62265 6.34862 4.91737 6.34862L6.92441 6.34862L7.78671 6.91522C7.90488 6.98983 7.93691 7.13651 7.85605 7.26269L6.60038 9.12753C6.01972 10.0057 6.52402 11.1865 7.6623 11.2434L10.1039 11.373L8.83906 12.6396C8.62246 12.8545 8.62246 13.2078 8.83906 13.4164ZM6.82597 11.5025L6.82597 13.3207L5.45038 14.9414C5.24706 15.1678 5.27284 15.5309 5.51073 15.7297C5.78417 15.9463 6.12948 15.8664 6.29726 15.6676L7.8078 13.8924C7.89921 13.785 7.92851 13.6562 7.94804 13.5488L8.23671 11.7529L7.633 11.7174C7.33827 11.7076 7.06659 11.6277 6.82597 11.5025ZM14.0625 7.52987C14.0625 7.90624 14.6662 8.21523 15.4139 8.21523C16.157 8.21523 16.767 7.90624 16.767 7.52987C16.767 7.15351 16.157 6.84628 15.4139 6.84628C14.6662 6.84628 14.0625 7.15351 14.0625 7.52987Z" fill="white" fill-opacity="0.85"/>
 </g>
</svg>
