<?xml version="1.0" encoding="UTF-8"?>
<!--Generator: Apple Native CoreSVG 341-->
<!DOCTYPE svg
PUBLIC "-//W3C//DTD SVG 1.1//EN"
       "http://www.w3.org/Graphics/SVG/1.1/DTD/svg11.dtd">
<svg version="1.1" xmlns="http://www.w3.org/2000/svg" xmlns:xlink="http://www.w3.org/1999/xlink" viewBox="0 0 31.0383 20.1699">
 <g>
  <rect height="20.1699" opacity="0" width="31.0383" x="0" y="0"/>
  <path d="M14.9972 6.39765L14.9972 8.83651C14.9972 9.53769 15.5191 10.0613 16.2175 10.0613L18.1716 10.0613C18.8665 10.0613 19.3884 9.53769 19.3884 8.83651L19.3884 6.39765C19.3884 5.69121 18.8665 5.16757 18.1716 5.16757L16.2175 5.16757C15.5191 5.16757 14.9972 5.69121 14.9972 6.39765ZM20.6398 6.39765L20.6398 8.83651C20.6398 9.53769 21.1616 10.0613 21.8646 10.0613L23.8107 10.0613C24.5171 10.0613 25.0247 9.53769 25.0247 8.83651L25.0247 6.39765C25.0247 5.69121 24.5171 5.16757 23.8107 5.16757L21.8646 5.16757C21.1616 5.16757 20.6398 5.69121 20.6398 6.39765ZM26.2726 6.39765L26.2726 8.83651C26.2726 9.53769 26.7944 10.0613 27.4974 10.0613L29.4452 10.0613C30.1534 10.0613 30.6735 9.53769 30.6735 8.83651L30.6735 6.39765C30.6735 5.69121 30.1534 5.16757 29.4452 5.16757L27.4974 5.16757C26.7944 5.16757 26.2726 5.69121 26.2726 6.39765ZM14.9972 13.5168L14.9972 15.9619C14.9972 16.6648 15.5191 17.1885 16.2175 17.1885L18.1716 17.1885C18.8665 17.1885 19.3884 16.6648 19.3884 15.9619L19.3884 13.5168C19.3884 12.8103 18.8665 12.293 18.1716 12.293L16.2175 12.293C15.5191 12.293 14.9972 12.8103 14.9972 13.5168ZM20.6398 13.5168L20.6398 15.9619C20.6398 16.6648 21.1616 17.1885 21.8646 17.1885L23.8107 17.1885C24.5171 17.1885 25.0247 16.6648 25.0247 15.9619L25.0247 13.5168C25.0247 12.8103 24.5171 12.293 23.8107 12.293L21.8646 12.293C21.1616 12.293 20.6398 12.8103 20.6398 13.5168ZM26.2726 13.5168L26.2726 15.9619C26.2726 16.6648 26.7944 17.1885 27.4974 17.1885L29.4452 17.1885C30.1534 17.1885 30.6735 16.6648 30.6735 15.9619L30.6735 13.5168C30.6735 12.8103 30.1534 12.293 29.4452 12.293L27.4974 12.293C26.7944 12.293 26.2726 12.8103 26.2726 13.5168ZM17.1794 8.67401C16.5964 8.67401 16.1066 8.19569 16.1066 7.60292C16.1066 7.02968 16.5964 6.56113 17.1794 6.56113C17.7491 6.56113 18.231 7.02968 18.231 7.60292C18.231 8.19569 17.7491 8.67401 17.1794 8.67401ZM22.8122 8.67401C22.231 8.67401 21.7394 8.19569 21.7394 7.60292C21.7394 7.02968 22.231 6.56113 22.8122 6.56113C23.3819 6.56113 23.8735 7.02968 23.8735 7.60292C23.8735 8.19569 23.3819 8.67401 22.8122 8.67401ZM28.453 8.67401C27.8718 8.67401 27.3739 8.19569 27.3739 7.60292C27.3739 7.02968 27.8718 6.56113 28.453 6.56113C29.0165 6.56113 29.5081 7.02968 29.5081 7.60292C29.5081 8.19569 29.0165 8.67401 28.453 8.67401ZM17.1794 15.7931C16.5964 15.7931 16.1066 15.3166 16.1066 14.7221C16.1066 14.1506 16.5964 13.6723 17.1794 13.6723C17.7491 13.6723 18.231 14.1506 18.231 14.7221C18.231 15.3166 17.7491 15.7931 17.1794 15.7931ZM22.8122 15.7931C22.231 15.7931 21.7394 15.3166 21.7394 14.7221C21.7394 14.1506 22.231 13.6723 22.8122 13.6723C23.3819 13.6723 23.8735 14.1506 23.8735 14.7221C23.8735 15.3166 23.3819 15.7931 22.8122 15.7931ZM28.453 15.7931C27.8718 15.7931 27.3739 15.3166 27.3739 14.7221C27.3739 14.1506 27.8718 13.6723 28.453 13.6723C29.0165 13.6723 29.5081 14.1506 29.5081 14.7221C29.5081 15.3166 29.0165 15.7931 28.453 15.7931ZM20.8437 3.6748L24.796 3.6748C25.103 3.6748 25.1599 3.35 24.93 3.18847L23.1661 1.97949C22.9347 1.8332 22.7103 1.8332 22.4868 1.97949L20.7194 3.18847C20.4878 3.35 20.5384 3.6748 20.8437 3.6748Z" fill="white" fill-opacity="0.85"/>
  <path d="M5.9058 4.45742C7.11732 4.45742 8.114 3.43047 8.114 2.24023C8.114 1.00566 7.11732 0 5.9058 0C4.65873 0 3.68686 1.00566 3.68686 2.24023C3.68686 3.44648 4.65873 4.45742 5.9058 4.45742ZM1.62865 12.7146L7.95463 5.6955C7.33763 5.46816 6.66654 5.36523 5.9058 5.36523C3.03627 5.36523 1.34369 6.74804 1.34369 9.05839C1.34369 9.61405 1.36498 10.3578 1.45287 11.1193ZM10.1634 12.7146L10.341 11.1193C10.4306 10.3578 10.4617 9.61405 10.4617 9.05839C10.4617 7.92753 10.0577 7.01503 9.30052 6.39374L4.32064 11.931C4.84994 11.8502 5.37474 11.8164 5.9058 11.8164C7.30814 11.8164 8.72201 12.0037 10.1634 12.7146ZM3.47357 20.1211C4.06986 20.0412 4.48783 19.6117 4.39818 18.8584L4.00052 15.2004L7.78353 15.2004L7.3974 18.8584C7.32377 19.6117 7.71595 20.0412 8.314 20.1211C8.93158 20.1832 9.40365 19.7998 9.48529 19.074L9.99837 14.2689C8.6972 13.5189 7.27533 13.2287 5.9058 13.2287C4.51674 13.2287 3.0851 13.5189 1.80346 14.2689L2.31205 19.074C2.38568 19.7998 2.85424 20.1832 3.47357 20.1211ZM9.30052 6.38573L11.1779 4.29179C11.515 3.9041 11.4937 3.47734 11.1566 3.20234C10.8408 2.92285 10.4353 2.91133 10.0706 3.31855L7.95463 5.6955C8.44076 5.87831 8.90033 6.11523 9.30052 6.38573ZM0.355415 13.4777C-0.0621604 13.7703-0.0736837 14.2226 0.124948 14.5092C0.300533 14.8082 0.693501 14.9449 1.09272 14.6922C1.33412 14.5351 1.55326 14.3994 1.80346 14.2689L1.62865 12.7146C1.16811 12.9223 0.74936 13.1609 0.355415 13.4777ZM11.4482 13.4777C11.0445 13.1609 10.6275 12.9223 10.1634 12.7146L9.99212 14.2689C10.2388 14.3994 10.4615 14.5351 10.6913 14.6922C11.0906 14.9449 11.4755 14.8162 11.6591 14.5252C11.8577 14.2306 11.856 13.7783 11.4482 13.4777Z" fill="white" fill-opacity="0.85"/>
 </g>
</svg>
