<?xml version="1.0" encoding="UTF-8"?>
<!--Generator: Apple Native CoreSVG 341-->
<!DOCTYPE svg
PUBLIC "-//W3C//DTD SVG 1.1//EN"
       "http://www.w3.org/Graphics/SVG/1.1/DTD/svg11.dtd">
<svg version="1.1" xmlns="http://www.w3.org/2000/svg" xmlns:xlink="http://www.w3.org/1999/xlink" viewBox="0 0 20.5381 20.1848">
 <g>
  <rect height="20.1848" opacity="0" width="20.5381" x="0" y="0"/>
  <path d="M10.0875 20.175C15.6576 20.175 20.1767 15.6559 20.1767 10.0875C20.1767 4.51914 15.6576 0 10.0875 0C4.51914 0 0 4.51914 0 10.0875C0 15.6559 4.51914 20.175 10.0875 20.175ZM10.0875 18.1879C5.60839 18.1879 1.9871 14.5666 1.9871 10.0875C1.9871 5.60839 5.60839 1.9871 10.0875 1.9871C14.5666 1.9871 18.1897 5.60839 18.1897 10.0875C18.1897 14.5666 14.5666 18.1879 10.0875 18.1879Z" fill="white" fill-opacity="0.85"/>
  <path d="M12.5951 6.9287C13.2486 6.9287 13.7547 6.40663 13.7547 5.76112C13.7547 5.10585 13.2486 4.59979 12.5951 4.59979C11.9496 4.59979 11.4275 5.10585 11.4275 5.76112C11.4275 6.40663 11.9496 6.9287 12.5951 6.9287ZM9.01562 16.3289C9.32187 16.3289 9.58378 16.0812 9.58378 15.775L9.58378 10.8508C10.7746 10.6555 11.8109 9.86249 12.3162 8.77734C12.3615 8.67694 12.4629 8.62538 12.6672 8.69198L15.3313 9.5871C15.7059 9.71406 15.9695 9.49745 16.0574 9.24003C16.1373 8.97636 16.0396 8.63281 15.6863 8.52363L7.72441 5.8578C7.33554 5.73886 7.07636 5.94745 6.99823 6.21112C6.91034 6.47655 7.008 6.8121 7.36308 6.92929L10.2287 7.89101C10.3531 7.93632 10.4047 8.07323 10.3238 8.19765C10.0299 8.67988 9.58222 8.96054 9.01562 8.96054L6.3203 8.96054L6.3203 6.2537C6.3203 5.92167 6.09218 5.6953 5.74862 5.6953C5.41659 5.6953 5.19022 5.92167 5.19022 6.2537L5.19022 9.47538C5.19022 9.84472 5.37753 10.0223 5.66073 10.0631L8.05761 10.4609L8.4537 12.8268L8.4537 15.775C8.4537 16.0812 8.70136 16.3289 9.01562 16.3289Z" fill="white" fill-opacity="0.85"/>
 </g>
</svg>
