<?xml version="1.0" encoding="UTF-8"?>
<!--Generator: Apple Native CoreSVG 341-->
<!DOCTYPE svg
PUBLIC "-//W3C//DTD SVG 1.1//EN"
       "http://www.w3.org/Graphics/SVG/1.1/DTD/svg11.dtd">
<svg version="1.1" xmlns="http://www.w3.org/2000/svg" xmlns:xlink="http://www.w3.org/1999/xlink" viewBox="0 0 20.5381 20.1848">
 <g>
  <rect height="20.1848" opacity="0" width="20.5381" x="0" y="0"/>
  <path d="M10.0875 20.175C15.6576 20.175 20.1767 15.6559 20.1767 10.0875C20.1767 4.51914 15.6576 0 10.0875 0C4.51914 0 0 4.51914 0 10.0875C0 15.6559 4.51914 20.175 10.0875 20.175ZM10.0875 18.1879C5.60839 18.1879 1.9871 14.5666 1.9871 10.0875C1.9871 5.60839 5.60839 1.9871 10.0875 1.9871C14.5666 1.9871 18.1897 5.60839 18.1897 10.0875C18.1897 14.5666 14.5666 18.1879 10.0875 18.1879Z" fill="white" fill-opacity="0.85"/>
  <path d="M10.4826 6.03945C11.1219 6.03945 11.6422 5.51737 11.6422 4.87011C11.6422 4.23437 11.1219 3.7203 10.4826 3.7203C9.83886 3.7203 9.32304 4.23437 9.32304 4.87011C9.32304 5.51737 9.83886 6.03945 10.4826 6.03945ZM5.6244 15.707C5.84101 15.9121 6.17655 15.9432 6.42069 15.707L8.7162 13.4133C8.86445 13.2748 8.89374 13.1541 8.87421 12.9508L8.74628 11.5107C8.73652 11.4193 8.83593 11.3723 8.89804 11.4344L10.4978 12.8201L11.3602 15.4709C11.4613 15.7949 11.7853 15.9236 12.0605 15.8357C12.3748 15.7461 12.523 15.4318 12.4334 15.1354L11.5383 12.3266C11.5107 12.2502 11.4619 12.1525 11.3998 12.1002L9.63788 10.3498L10.7648 8.07988C10.8164 7.99452 10.9098 7.97499 10.9791 8.04784L12.2605 9.3373C12.3209 9.39589 12.4105 9.44648 12.4887 9.47402L15.0471 10.2377C15.2654 10.2963 15.6285 10.2084 15.7475 9.84531C15.8354 9.55683 15.6658 9.24257 15.3648 9.15468L12.9494 8.44335L11.5721 7.04648C11.2453 6.72773 10.8795 6.583 10.4471 6.583L6.79823 6.583C6.57187 6.583 6.37831 6.7037 6.29667 6.89726L5.26034 8.93613C5.12362 9.20957 5.22128 9.54687 5.51776 9.68359C5.80097 9.8123 6.12675 9.71464 6.26347 9.43769L7.13378 7.71484L8.19511 7.71484C8.308 7.71484 8.37382 7.8162 8.32402 7.92109L7.5248 9.508C7.23886 10.0816 7.16425 10.7432 7.32499 11.3576L7.70331 12.8336L5.6164 14.901C5.3998 15.1176 5.4078 15.4807 5.6244 15.707ZM15.2148 13.3508C15.9109 13.3508 16.4721 12.7816 16.4721 12.0758C16.4721 11.3877 15.9109 10.8186 15.2148 10.8186C14.5107 10.8186 13.9416 11.3877 13.9416 12.0758C13.9416 12.7816 14.5107 13.3508 15.2148 13.3508Z" fill="white" fill-opacity="0.85"/>
 </g>
</svg>
