<?xml version="1.0" encoding="UTF-8"?>
<!--Generator: Apple Native CoreSVG 341-->
<!DOCTYPE svg
PUBLIC "-//W3C//DTD SVG 1.1//EN"
       "http://www.w3.org/Graphics/SVG/1.1/DTD/svg11.dtd">
<svg version="1.1" xmlns="http://www.w3.org/2000/svg" xmlns:xlink="http://www.w3.org/1999/xlink" viewBox="0 0 20.5381 20.1848">
 <g>
  <rect height="20.1848" opacity="0" width="20.5381" x="0" y="0"/>
  <path d="M20.1767 10.0875C20.1767 15.6478 15.6576 20.175 10.0875 20.175C4.52715 20.175 0 15.6478 0 10.0875C0 4.51914 4.52715 0 10.0875 0C15.6576 0 20.1767 4.51914 20.1767 10.0875ZM13.6008 8.15136C13.1098 8.15136 12.641 8.30136 12.2557 8.59882L10.6795 9.78164L8.36093 9.31191C7.87089 9.20449 7.47148 9.43261 7.47148 9.96347L7.47148 11.2512L3.9662 12.1328C3.59335 12.2305 3.44335 12.5207 3.49218 12.7861C3.533 13.0746 3.80995 13.3516 4.22714 13.2441L7.47148 12.4344L7.47148 13.1654C7.47148 13.4832 7.73066 13.7246 8.04042 13.7246C8.35644 13.7246 8.62362 13.4832 8.62362 13.1654L8.62362 12.2223L10.9467 11.8812C11.3728 11.8066 11.7893 11.6309 12.1551 11.3529L14.1549 9.84863C14.2295 9.79804 14.3299 9.80781 14.3707 9.8957L14.9516 11.0822L14.9516 13.1654C14.9516 13.5027 15.1992 13.7246 15.5365 13.7246C15.8738 13.7246 16.1037 13.5027 16.1037 13.1654L16.1037 10.95C16.1037 10.8523 16.0922 10.7627 16.0531 10.6828L15.0941 8.77636C14.8988 8.38574 14.518 8.15136 14.0883 8.15136ZM11.1422 12.0246C10.6619 12.0246 10.2891 12.4072 10.2891 12.8777C10.2891 13.35 10.6619 13.7246 11.1422 13.7246L13.4561 13.7246C13.9186 13.7246 14.3012 13.35 14.3012 12.8777C14.3012 12.4072 13.9186 12.0246 13.4561 12.0246ZM13.8068 12.8777C13.8068 13.0678 13.6461 13.2365 13.448 13.2365C13.25 13.2365 13.0893 13.0678 13.0893 12.8777C13.0893 12.6797 13.25 12.5207 13.448 12.5207C13.6461 12.5207 13.8068 12.6797 13.8068 12.8777ZM9.35644 10.8035L8.62362 10.99L8.62362 10.5902ZM12.6615 6.37304C12.6615 7.04511 13.1986 7.59023 13.8787 7.59023C14.541 7.59023 15.0844 7.04511 15.0844 6.37304C15.0844 5.70624 14.541 5.17539 13.8787 5.17539C13.1986 5.17539 12.6615 5.70624 12.6615 6.37304Z" fill="white" fill-opacity="0.85"/>
 </g>
</svg>
