<?xml version="1.0" encoding="UTF-8"?>
<!--Generator: Apple Native CoreSVG 341-->
<!DOCTYPE svg
PUBLIC "-//W3C//DTD SVG 1.1//EN"
       "http://www.w3.org/Graphics/SVG/1.1/DTD/svg11.dtd">
<svg version="1.1" xmlns="http://www.w3.org/2000/svg" xmlns:xlink="http://www.w3.org/1999/xlink" viewBox="0 0 25.0207 20.5113">
 <g>
  <rect height="20.5113" opacity="0" width="25.0207" x="0" y="0"/>
  <path d="M1.55742 7.82011L6.33925 7.82011C6.70566 7.82011 6.99042 7.51132 6.99042 7.13691C6.99042 6.76074 6.70566 6.45996 6.33925 6.45996L1.55742 6.45996C1.19101 6.45996 0.906249 6.76074 0.906249 7.13691C0.906249 7.51132 1.19101 7.82011 1.55742 7.82011ZM0.65117 11.5412L6.33925 11.5412C6.70566 11.5412 6.99042 11.2404 6.99042 10.866C6.99042 10.4898 6.70566 10.1811 6.33925 10.1811L0.65117 10.1811C0.284765 10.1811 0 10.4978 0 10.866C0 11.2324 0.284765 11.5412 0.65117 11.5412ZM3.56875 15.2703L6.33925 15.2703C6.70566 15.2703 6.99042 14.9615 6.99042 14.5853C6.99042 14.2109 6.70566 13.9102 6.33925 13.9102L3.56875 13.9102C3.20234 13.9102 2.90957 14.2109 2.90957 14.5853C2.90957 14.9615 3.20234 15.2703 3.56875 15.2703Z" fill="white" fill-opacity="0.85"/>
  <path d="M22.2027 4.33945C23.4072 4.33945 24.3756 3.37109 24.3756 2.17461C24.3756 0.968359 23.4072 0 22.2027 0C20.9965 0 20.0299 0.968359 20.0299 2.17461C20.0299 3.37109 20.9965 4.33945 22.2027 4.33945ZM16.2453 20.5025C20.3695 20.5025 23.4996 17.3767 23.4996 13.3088C23.4996 11.4447 22.7433 10.3201 21.0799 9.75644L19.5193 9.21757C19.2644 9.13945 19.2031 8.95996 19.3638 8.72285L20.3785 7.2457C21.1738 6.0998 20.8853 5.15097 19.6746 4.29707L15.9187 1.67305C15.5193 1.40234 15.0135 1.38906 14.6123 1.65351L11.1379 3.99082C9.83495 4.87304 11.0402 6.47499 12.2197 5.67089L15.1555 3.68769L17.1742 5.09921C17.5142 5.33984 17.5498 5.59922 17.3269 5.90996L15.6998 8.27656C14.8113 9.56269 15.532 10.9457 16.9158 11.3148L21.0957 12.3926C21.589 12.5141 21.8465 12.8844 21.8465 13.41C21.8465 16.4324 19.4234 18.8414 16.2533 18.8414C13.0348 18.8414 10.6055 16.3955 10.6055 13.2227C10.6055 12.1213 10.9156 11.1346 11.4451 10.3096C12.0904 9.27617 10.6689 8.41836 9.98203 9.55155C9.33886 10.5877 8.95234 11.8318 8.95234 13.2227C8.95234 17.3416 12.0807 20.5025 16.2453 20.5025ZM23.5465 20.5025C24.173 20.5025 24.6594 20.0082 24.6594 19.3816C24.6594 18.7613 24.173 18.267 23.5465 18.267C22.9279 18.267 22.4336 18.7613 22.4336 19.3816C22.4336 20.0082 22.9279 20.5025 23.5465 20.5025Z" fill="white" fill-opacity="0.85"/>
 </g>
</svg>
