<?xml version="1.0" encoding="UTF-8"?>
<!--Generator: Apple Native CoreSVG 341-->
<!DOCTYPE svg
PUBLIC "-//W3C//DTD SVG 1.1//EN"
       "http://www.w3.org/Graphics/SVG/1.1/DTD/svg11.dtd">
<svg version="1.1" xmlns="http://www.w3.org/2000/svg" xmlns:xlink="http://www.w3.org/1999/xlink" viewBox="0 0 20.5381 20.1848">
 <g>
  <rect height="20.1848" opacity="0" width="20.5381" x="0" y="0"/>
  <path d="M10.0875 20.175C15.6576 20.175 20.1767 15.6559 20.1767 10.0875C20.1767 4.51914 15.6576 0 10.0875 0C4.51914 0 0 4.51914 0 10.0875C0 15.6559 4.51914 20.175 10.0875 20.175ZM10.0875 18.1879C5.60839 18.1879 1.9871 14.5666 1.9871 10.0875C1.9871 5.60839 5.60839 1.9871 10.0875 1.9871C14.5666 1.9871 18.1897 5.60839 18.1897 10.0875C18.1897 14.5666 14.5666 18.1879 10.0875 18.1879Z" fill="white" fill-opacity="0.85"/>
  <path d="M11.6703 6.9873C12.3096 6.9873 12.8316 6.46347 12.8316 5.82772C12.8316 5.18847 12.3096 4.66815 11.6703 4.66815C11.0346 4.66815 10.5027 5.18847 10.5027 5.82772C10.5027 6.46347 11.0346 6.9873 11.6703 6.9873ZM9.76328 13.4805C9.61855 14.2102 10.7193 14.3859 10.8578 13.6482L11.4004 10.6965C11.4492 10.4115 11.2637 10.107 10.9379 10.0582L9.19433 9.80683L10.2789 8.73476C10.3793 8.64413 10.51 8.63612 10.6184 8.73476L13.327 11.4451C13.532 11.6617 13.8871 11.675 14.1055 11.4451C14.3203 11.2187 14.3221 10.8947 14.1037 10.6684L10.3961 6.95097C10.152 6.70058 9.80566 6.55585 9.43984 6.55585L7.08925 6.55585C6.94101 6.55585 6.79277 6.61269 6.69511 6.72011L5.08691 8.33183C4.87031 8.55019 4.87831 8.89999 5.08691 9.11659C5.30351 9.32519 5.65507 9.32519 5.87167 9.11659L7.32363 7.6664L8.23945 7.6664C8.3248 7.6664 8.36035 7.74999 8.30879 7.7998L6.86562 9.23495C6.15175 9.94257 6.5291 11.159 7.66113 11.159L10.1807 11.159ZM6.71562 11.3676L6.57792 13.0082L4.78144 13.0082C4.46718 13.0082 4.21152 13.2541 4.21152 13.5506C4.21152 13.8551 4.46718 14.1107 4.78144 14.1107L7.08925 14.1107C7.37246 14.1107 7.58281 13.8941 7.63964 13.6207L8.00468 11.633L7.66113 11.633C7.28203 11.633 6.958 11.5256 6.71562 11.3676ZM14.0504 14.1107L15.6586 14.1107C16.0314 14.1107 16.3377 13.8062 16.3377 13.4334C16.3377 13.0605 16.0314 12.7561 15.6586 12.7561L14.0504 12.7561C13.6695 12.7561 13.373 13.0605 13.373 13.4334C13.373 13.8062 13.6695 14.1107 14.0504 14.1107ZM15.1322 13.0916L15.6619 13.0916L15.6619 12.559C15.6619 12.1072 15.3174 11.7627 14.8754 11.7627L14.308 11.7627C14.1625 11.7627 14.048 11.8852 14.048 12.0324C14.048 12.1859 14.1625 12.3004 14.308 12.3004L14.8754 12.3004C15.0176 12.3004 15.1322 12.4053 15.1322 12.559Z" fill="white" fill-opacity="0.85"/>
 </g>
</svg>
