<?xml version="1.0" encoding="UTF-8"?>
<!--Generator: Apple Native CoreSVG 341-->
<!DOCTYPE svg
PUBLIC "-//W3C//DTD SVG 1.1//EN"
       "http://www.w3.org/Graphics/SVG/1.1/DTD/svg11.dtd">
<svg version="1.1" xmlns="http://www.w3.org/2000/svg" xmlns:xlink="http://www.w3.org/1999/xlink" viewBox="0 0 20.5381 20.1848">
 <g>
  <rect height="20.1848" opacity="0" width="20.5381" x="0" y="0"/>
  <path d="M20.1767 10.0875C20.1767 15.6478 15.6576 20.175 10.0875 20.175C4.52715 20.175 0 15.6478 0 10.0875C0 4.51914 4.52715 0 10.0875 0C15.6576 0 20.1767 4.51914 20.1767 10.0875ZM9.16406 6.33163C8.64824 6.33163 8.3455 6.51894 8.08183 6.84745L6.62382 8.63222C6.26249 9.07519 6.54921 9.70898 7.02675 9.70898L8.60664 9.70898L8.60664 10.4648C8.60664 10.9807 8.8916 11.4672 9.35683 11.7113L11.9551 13.1037L11.9551 15.8254C11.9551 16.1512 12.2205 16.4104 12.5365 16.4104C12.8561 16.4104 13.1232 16.1512 13.1232 15.8254L13.1232 12.7371C13.1232 12.5969 13.0371 12.3936 12.8561 12.2809L10.882 10.9613L10.882 7.61698C10.882 7.5371 10.9371 7.47753 11.017 7.47753L15.3273 7.47753C15.6469 7.47753 15.8963 7.21659 15.8963 6.89882C15.8963 6.59882 15.6469 6.33163 15.3273 6.33163ZM8.40859 13.5603L6.30409 15.3904C6.06445 15.5973 6.03691 15.9736 6.24198 16.2133C6.4621 16.4512 6.8287 16.4787 7.06835 16.2541L9.25449 14.3424C9.36816 14.2465 9.41074 14.1959 9.45156 14.0867L10.0404 12.6381L9.12519 12.14C8.98046 12.0602 8.88105 11.9998 8.85 11.9705ZM8.65624 8.60292L8.0912 8.60292L8.65624 7.89394ZM8.81972 4.54159C8.81972 5.21015 9.35859 5.76679 10.0369 5.76679C10.6992 5.76679 11.2426 5.21015 11.2426 4.54159C11.2426 3.88554 10.6992 3.33417 10.0369 3.33417C9.35859 3.33417 8.81972 3.88554 8.81972 4.54159Z" fill="white" fill-opacity="0.85"/>
 </g>
</svg>
