<?xml version="1.0" encoding="UTF-8"?>
<!--Generator: Apple Native CoreSVG 341-->
<!DOCTYPE svg
PUBLIC "-//W3C//DTD SVG 1.1//EN"
       "http://www.w3.org/Graphics/SVG/1.1/DTD/svg11.dtd">
<svg version="1.1" xmlns="http://www.w3.org/2000/svg" xmlns:xlink="http://www.w3.org/1999/xlink" viewBox="0 0 17.2191 23.6683">
 <g>
  <rect height="23.6683" opacity="0" width="17.2191" x="0" y="0"/>
  <path d="M7.72848 4.3871C8.92398 4.3871 9.91715 3.40195 9.91715 2.19844C9.91715 0.993163 8.92398 0 7.72848 0C6.5232 0 5.53004 0.993163 5.53004 2.19844C5.53004 3.40195 6.5232 4.3871 7.72848 4.3871ZM1.06637 7.383L4.25778 7.383C4.39196 7.383 4.50309 7.48964 4.48707 7.62206L4.18258 11.7748C4.07164 13.2881 4.9609 14.2289 6.23902 14.4898L10.3369 15.3527L11.2193 19.7488C11.3418 20.3744 11.9824 20.6699 12.4545 20.5803C13.0294 20.4676 13.4021 19.9023 13.2877 19.3256L12.2775 14.2453C12.1959 13.8318 11.848 13.5443 11.4611 13.4139L8.30328 12.4275L8.57672 8.61015C8.60426 8.35058 8.8443 8.25722 9.04254 8.41991L10.556 9.67597C10.7486 9.82948 10.9757 9.92089 11.2322 9.92089L15.8109 9.92089C16.3974 9.92089 16.8597 9.44706 16.8597 8.86405C16.8597 8.27753 16.3974 7.81523 15.8109 7.81523L11.6111 7.81523L9.42281 5.99003C8.86715 5.53027 8.35328 5.26933 7.54918 5.26933L2.4941 5.26933L3.61012 1.54941C3.77516 0.985932 3.4566 0.391402 2.90289 0.226364C2.33766 0.0630826 1.73512 0.381637 1.57008 0.945112L0.0583645 6.01913C-0.145737 6.71308 0.184341 7.383 1.06637 7.383ZM5.34606 23.5611C5.84918 23.7146 6.47652 23.4892 6.6691 22.8619L8.18082 17.8172C8.22164 17.6752 8.23316 17.5217 8.23316 17.3619L8.23316 15.9238L6.04117 15.4588C5.98883 15.449 5.94449 15.4473 5.90016 15.434L6.10797 17.3584L4.63883 22.2558C4.47379 22.8015 4.79235 23.3943 5.34606 23.5611Z" fill="white" fill-opacity="0.85"/>
 </g>
</svg>
