<?xml version="1.0" encoding="UTF-8"?>
<!--Generator: Apple Native CoreSVG 341-->
<!DOCTYPE svg
PUBLIC "-//W3C//DTD SVG 1.1//EN"
       "http://www.w3.org/Graphics/SVG/1.1/DTD/svg11.dtd">
<svg version="1.1" xmlns="http://www.w3.org/2000/svg" xmlns:xlink="http://www.w3.org/1999/xlink" viewBox="0 0 20.5381 20.1848">
 <g>
  <rect height="20.1848" opacity="0" width="20.5381" x="0" y="0"/>
  <path d="M20.1767 10.0875C20.1767 15.6478 15.6576 20.175 10.0875 20.175C4.52715 20.175 0 15.6478 0 10.0875C0 4.51914 4.52715 0 10.0875 0C15.6576 0 20.1767 4.51914 20.1767 10.0875ZM7.63925 6.43105L6.03026 6.79511C4.9703 7.03749 5.00312 8.40546 6.1119 8.40546L7.86386 8.40546C8.01757 8.40546 8.12421 8.52812 8.12421 8.68359L8.12421 10.9764L6.44237 12.6484C6.20175 12.8695 6.05702 13.1137 5.96913 13.4732L5.35741 15.7791C5.24023 16.2123 5.48964 16.4697 5.78788 16.5203C6.06308 16.5611 6.3871 16.4324 6.47675 16.0773L7.05917 13.9242C7.11601 13.7129 7.15331 13.624 7.3203 13.4926L8.64335 12.3658C8.89296 12.1437 9.33261 12.1926 9.50937 12.499L10.3103 13.9002L11.5445 16.2123C11.7434 16.5789 12.1508 16.6082 12.41 16.4404C12.6443 16.2922 12.7455 15.9842 12.5697 15.6584L11.3338 13.3152L10.6154 11.6654C10.4902 11.3875 10.4334 11.0855 10.4334 10.7721L10.4334 8.68359C10.4334 8.52812 10.548 8.40546 10.7035 8.40546L14.0795 8.40546C14.4053 8.40546 14.6627 8.14804 14.6627 7.83027C14.6627 7.50273 14.4053 7.24355 14.0795 7.24355L8.29062 7.24355C8.38573 7.1121 8.41952 6.95488 8.37421 6.80741C8.30409 6.54198 8.05468 6.3414 7.63925 6.43105ZM14.4502 4.4871C14.9113 5.74667 15.1031 6.7953 15.1031 7.83027C15.1031 8.87949 14.9113 9.92011 14.4502 11.1895C14.2896 11.6764 14.9932 11.8779 15.1689 11.4352C15.6309 10.2486 15.8467 9.13339 15.8467 7.83027C15.8467 6.56718 15.6309 5.45018 15.1689 4.23163C15.0012 3.79862 14.2896 3.9744 14.4502 4.4871ZM8.64101 5.46952C8.64101 6.13183 9.17812 6.67695 9.84042 6.67695C10.5187 6.67695 11.0541 6.13183 11.0541 5.46952C11.0541 4.80546 10.5187 4.27187 9.84042 4.27187C9.17812 4.27187 8.64101 4.80546 8.64101 5.46952Z" fill="white" fill-opacity="0.85"/>
 </g>
</svg>
