<?xml version="1.0" encoding="UTF-8"?>
<!--Generator: Apple Native CoreSVG 341-->
<!DOCTYPE svg
PUBLIC "-//W3C//DTD SVG 1.1//EN"
       "http://www.w3.org/Graphics/SVG/1.1/DTD/svg11.dtd">
<svg version="1.1" xmlns="http://www.w3.org/2000/svg" xmlns:xlink="http://www.w3.org/1999/xlink" viewBox="0 0 20.5381 20.1848">
 <g>
  <rect height="20.1848" opacity="0" width="20.5381" x="0" y="0"/>
  <path d="M10.0875 20.175C15.6576 20.175 20.1767 15.6559 20.1767 10.0875C20.1767 4.51914 15.6576 0 10.0875 0C4.51914 0 0 4.51914 0 10.0875C0 15.6559 4.51914 20.175 10.0875 20.175ZM10.0875 18.1879C5.60839 18.1879 1.9871 14.5666 1.9871 10.0875C1.9871 5.60839 5.60839 1.9871 10.0875 1.9871C14.5666 1.9871 18.1897 5.60839 18.1897 10.0875C18.1897 14.5666 14.5666 18.1879 10.0875 18.1879Z" fill="white" fill-opacity="0.85"/>
  <path d="M9.22363 5.77421C9.86289 5.77421 10.3912 5.24237 10.3912 4.60663C10.3912 3.96737 9.86289 3.44706 9.22363 3.44706C8.58613 3.44706 8.06406 3.96737 8.06406 4.60663C8.06406 5.24237 8.58613 5.77421 9.22363 5.77421ZM8.19003 10.7709L10.1625 11.2176L9.59589 13.0906C9.4707 13.4883 9.73613 13.7555 10.0148 13.8043C10.2687 13.8496 10.5422 13.7307 10.6398 13.4084L11.3432 11.0285C11.4426 10.6867 11.3059 10.3982 10.9916 10.2908L9.15859 9.63007L9.43124 7.74726C9.44726 7.6539 9.5246 7.62812 9.61347 7.66991L10.5291 8.0873C10.6543 8.13612 10.7537 8.15566 10.9064 8.17343L13.2375 8.4123C13.542 8.44335 13.8092 8.22499 13.8305 7.9205C13.858 7.63554 13.6432 7.3621 13.3387 7.33105L10.9783 7.10019L9.19335 6.28319C8.41913 5.92714 7.60761 6.33026 7.50195 7.10624L7.21425 9.34316C7.12636 10.01 7.53476 10.6164 8.19003 10.7709ZM6.38827 15.4738C6.61288 15.5928 6.93866 15.5555 7.15351 15.2492L8.57167 13.118C8.62851 13.0301 8.65956 12.9307 8.68085 12.7957L8.91093 11.4225L8.08261 11.2352C7.88105 11.1881 7.74706 11.1242 7.69824 11.0869L7.6041 12.6262L6.25429 14.6402C6.01191 15.0016 6.15038 15.3273 6.38827 15.4738ZM14.8428 6.78222C14.7514 6.5914 14.5473 6.52577 14.3627 6.60917C14.1389 6.71933 13.907 6.83573 13.7072 6.94589C13.9477 7.05683 14.118 7.23691 14.2334 7.4871C14.3781 7.40273 14.5248 7.31737 14.6715 7.24804C14.8543 7.15038 14.9182 6.94901 14.8428 6.78222ZM7.67831 16.4619L9.63105 16.4619C9.81913 16.4619 9.98417 16.3004 9.98417 16.1043L9.98417 15.2293L11.5953 15.2293C11.7896 15.2293 11.9449 15.0545 11.9449 14.8682L11.9449 13.9834L12.9498 13.9834C13.1281 13.9834 13.2896 13.8201 13.2994 13.6338L13.4895 8.85702C13.3883 8.88007 13.3334 8.88983 12.7902 8.83749L12.602 13.2744L11.5953 13.2744C11.3975 13.2744 11.2359 13.4199 11.2359 13.624L11.2359 14.5105L9.63105 14.5105C9.44472 14.5105 9.28144 14.6818 9.28144 14.8682L9.28144 15.7529L7.67831 15.7529C7.49198 15.7529 7.3207 15.918 7.3207 16.1043C7.3207 16.3066 7.49374 16.4619 7.67831 16.4619Z" fill="white" fill-opacity="0.85"/>
 </g>
</svg>
