<?xml version="1.0" encoding="UTF-8"?>
<!--Generator: Apple Native CoreSVG 341-->
<!DOCTYPE svg
PUBLIC "-//W3C//DTD SVG 1.1//EN"
       "http://www.w3.org/Graphics/SVG/1.1/DTD/svg11.dtd">
<svg version="1.1" xmlns="http://www.w3.org/2000/svg" xmlns:xlink="http://www.w3.org/1999/xlink" viewBox="0 0 24.2902 22.4653">
 <g>
  <rect height="22.4653" opacity="0" width="24.2902" x="0" y="0"/>
  <path d="M9.10312 10.8786C10.3084 10.8786 11.2918 9.90141 11.2918 8.68012C11.2918 7.47485 10.3084 6.49145 9.10312 6.49145C7.88183 6.49145 6.90469 7.47485 6.90469 8.68012C6.90469 9.90141 7.88183 10.8786 9.10312 10.8786ZM10.1908 18.5104C10.6914 18.2104 11.2098 17.9495 11.7512 17.7426L11.7512 14.0106C11.7512 13.8844 11.8516 13.7858 11.9777 13.7858L13.2109 13.7858C13.7877 13.7858 14.2598 13.3137 14.2598 12.7387L14.2598 6.52915L12.1639 8.16586L12.1639 11.6979L8.66152 11.6979C7.74921 11.6979 7.11914 12.3297 7.11914 13.2305L7.11914 15.0852C8.23828 15.9063 9.29531 17.0149 10.1908 18.5104ZM15.8357 11.6493C16.4107 11.6493 16.8863 11.1967 16.8863 10.612L16.8863 3.91079L14.7807 6.00493L14.7807 10.612C14.7807 11.1967 15.2642 11.6493 15.8357 11.6493ZM12.1639 8.99477L13.4203 8.99477L13.4203 8.00453L20.3553 1.07309C20.6 0.826607 20.6 0.435594 20.3553 0.190868C20.1088-0.0636227 19.7098-0.0636227 19.4633 0.190868L12.4699 7.17798C12.2543 7.38911 12.1639 7.64458 12.1639 7.98618ZM0.622458 15.8217C3.59453 15.8217 6.87851 16.943 8.78007 21.8469C8.98671 22.4075 9.63144 22.5157 10.0119 22.1369C12.21 19.9309 14.7287 19.21 18.3826 20.2407C18.7223 20.3293 18.9971 20.183 19.1328 19.8567C19.8865 18.1219 21.4297 17.2536 23.3064 17.2536C23.6514 17.2536 23.9289 16.9823 23.9289 16.6391C23.9289 16.2942 23.6514 16.0166 23.3064 16.0166C21.2098 16.0166 19.2445 17.0393 18.2168 18.9168C14.7029 18.0618 11.9332 18.7676 9.67128 20.768C7.4789 15.8045 3.7205 14.5848 0.622458 14.5848C0.26953 14.5848 0 14.8623 0 15.2073C0 15.5522 0.26953 15.8217 0.622458 15.8217Z" fill="white" fill-opacity="0.85"/>
 </g>
</svg>
