<?xml version="1.0" encoding="UTF-8"?>
<!--Generator: Apple Native CoreSVG 341-->
<!DOCTYPE svg
PUBLIC "-//W3C//DTD SVG 1.1//EN"
       "http://www.w3.org/Graphics/SVG/1.1/DTD/svg11.dtd">
<svg version="1.1" xmlns="http://www.w3.org/2000/svg" xmlns:xlink="http://www.w3.org/1999/xlink" viewBox="0 0 19.0961 25.8273">
 <g>
  <rect height="25.8273" opacity="0" width="19.0961" x="0" y="0"/>
  <path d="M7.50234 4.3871C8.6996 4.3871 9.69101 3.39394 9.69101 2.19668C9.69101 0.993163 8.6996 0 7.50234 0C6.29707 0 5.3039 0.993163 5.3039 2.19668C5.3039 3.39394 6.29707 4.3871 7.50234 4.3871ZM8.76562 20.6322C9.16581 20.7351 9.84199 20.5932 10.0381 19.9365L11.4699 15.1848C11.6234 14.6558 11.3883 14.1049 10.8248 13.9105L6.9746 12.5789L7.44433 9.37772C7.46386 9.19999 7.69316 9.15468 7.77753 9.32792L8.57148 10.8705C8.76582 11.2476 9.10742 11.4357 9.49785 11.4357L13.4658 11.4357C14.0275 11.4357 14.5031 10.993 14.5031 10.4082C14.5031 9.85097 14.0293 9.38066 13.4658 9.38066L10.135 9.38066L8.85214 6.84433C8.4332 6.00644 7.68144 5.41269 6.74238 5.23339L6.18847 5.12421C5.16152 4.92539 4.32988 5.14726 3.69082 5.54492L0.483593 7.54042C0.196093 7.733 0 8.06308 0 8.43046L0 12.3922C0 12.9574 0.472069 13.4375 1.0373 13.4375C1.60429 13.4375 2.07636 12.9574 2.07636 12.3922L2.07636 8.98944L3.38027 8.17851C3.50195 8.11015 3.64141 8.18476 3.61562 8.32948L3.16816 11.9244C2.98887 13.341 3.46191 14.3199 5.09414 14.7016L9.16992 15.6586L8.06464 19.358C7.90937 19.8887 8.11699 20.4494 8.76562 20.6322ZM1.4707 24.2008C1.83984 24.4457 2.508 24.4474 2.88867 23.892L5.81093 19.5396C5.95117 19.3293 6.02304 19.1625 6.0621 18.9113L6.46699 16.0762L4.86699 15.7008C4.62207 15.6467 4.40469 15.5668 4.20058 15.4932L3.99726 18.5449L1.17969 22.7615C0.861133 23.2336 0.975586 23.8822 1.4707 24.2008ZM5.53847 25.8078L8.69706 25.8078C9.04022 25.8078 9.32928 25.5187 9.32928 25.1738L9.32928 23.34L11.8637 23.34C12.1988 23.34 12.4764 23.0687 12.4764 22.7176L12.4764 20.8722L15.0303 20.8722C15.3734 20.8722 15.6447 20.6027 15.6447 20.2578L15.6447 18.4142L18.1025 18.4142C18.4457 18.4142 18.7348 18.1349 18.7348 17.7918C18.7348 17.4584 18.4457 17.1693 18.1025 17.1693L15.0303 17.1693C14.6836 17.1693 14.4176 17.4601 14.4176 17.7918L14.4176 19.6371L11.8637 19.6371C11.509 19.6371 11.251 19.9262 11.251 20.2578L11.251 22.1031L8.69706 22.1031C8.36191 22.1031 8.09238 22.3744 8.09238 22.7176L8.09238 24.5709L5.53847 24.5709C5.18378 24.5709 4.92402 24.8404 4.92402 25.1738C4.92402 25.517 5.18202 25.8078 5.53847 25.8078Z" fill="white" fill-opacity="0.85"/>
 </g>
</svg>
