<?xml version="1.0" encoding="UTF-8"?>
<!--Generator: Apple Native CoreSVG 341-->
<!DOCTYPE svg
PUBLIC "-//W3C//DTD SVG 1.1//EN"
       "http://www.w3.org/Graphics/SVG/1.1/DTD/svg11.dtd">
<svg version="1.1" xmlns="http://www.w3.org/2000/svg" xmlns:xlink="http://www.w3.org/1999/xlink" viewBox="0 0 20.5381 20.1848">
 <g>
  <rect height="20.1848" opacity="0" width="20.5381" x="0" y="0"/>
  <path d="M10.0875 20.175C15.6576 20.175 20.1767 15.6559 20.1767 10.0875C20.1767 4.51914 15.6576 0 10.0875 0C4.51914 0 0 4.51914 0 10.0875C0 15.6559 4.51914 20.175 10.0875 20.175ZM10.0875 18.1879C5.60839 18.1879 1.9871 14.5666 1.9871 10.0875C1.9871 5.60839 5.60839 1.9871 10.0875 1.9871C14.5666 1.9871 18.1897 5.60839 18.1897 10.0875C18.1897 14.5666 14.5666 18.1879 10.0875 18.1879Z" fill="white" fill-opacity="0.85"/>
  <path d="M10.0812 6.65976C10.725 6.65976 11.2488 6.13593 11.2488 5.49667C11.2488 4.85292 10.725 4.32909 10.0812 4.32909C9.43574 4.32909 8.92167 4.85292 8.92167 5.49667C8.92167 6.13593 9.43574 6.65976 10.0812 6.65976ZM14.4732 7.63749C14.2469 7.41913 13.9113 7.41288 13.685 7.63749L12.4221 8.90038L11.1477 7.62597C10.8893 7.36757 10.4844 7.20331 10.0812 7.20331L6.63222 7.20331C6.38007 7.20331 6.18925 7.3498 6.10136 7.5957L5.2746 10.0715C5.14589 10.4639 5.36425 10.7391 5.6412 10.8012C5.90487 10.8758 6.20761 10.7684 6.31854 10.415L7.02636 8.31562L8.13847 8.31562C8.24238 8.31562 8.31171 8.40624 8.27617 8.51015L7.58788 10.5963C7.34902 11.2871 7.55859 11.9477 8.33105 12.2922L10.5707 13.2779L11.298 15.7982C11.3975 16.1436 11.7135 16.2412 11.9771 16.1729C12.2426 16.1045 12.4707 15.8586 12.3713 15.492L11.5641 12.708C11.5152 12.5518 11.4353 12.4346 11.2658 12.3547L9.53222 11.59L10.4443 8.8164C10.4799 8.71249 10.6176 8.66093 10.7002 8.76132L12.0199 10.0891C12.2365 10.3057 12.5978 10.3092 12.8162 10.0891L14.4732 8.43202C14.6996 8.20566 14.6898 7.8621 14.4732 7.63749ZM7.75312 12.5549L7.50175 14.025L5.58593 15.0926C5.23085 15.2879 5.24237 15.6234 5.38886 15.8676C5.53358 16.0939 5.80878 16.2502 6.13632 16.0629L8.29003 14.8719C8.44003 14.784 8.50663 14.6811 8.55546 14.5168L9.00585 13.1408L8.13222 12.7582C7.97949 12.6916 7.8623 12.6232 7.75312 12.5549ZM14.8934 6.81405C15.0762 6.72265 15.1836 6.54511 15.1836 6.33651L15.1836 4.70604C15.1836 4.40155 14.9635 4.15214 14.6537 4.15214L13.493 4.15214C13.1867 4.15214 12.9568 4.39979 12.9568 4.70604L12.9568 6.33651C12.9568 6.54511 13.0723 6.7244 13.2551 6.81405L14.0791 7.22694ZM13.7295 8.05312L14.4287 8.05312L14.4287 6.6039L13.7295 6.6039Z" fill="white" fill-opacity="0.85"/>
 </g>
</svg>
