<?xml version="1.0" encoding="UTF-8"?>
<!--Generator: Apple Native CoreSVG 341-->
<!DOCTYPE svg
PUBLIC "-//W3C//DTD SVG 1.1//EN"
       "http://www.w3.org/Graphics/SVG/1.1/DTD/svg11.dtd">
<svg version="1.1" xmlns="http://www.w3.org/2000/svg" xmlns:xlink="http://www.w3.org/1999/xlink" viewBox="0 0 20.5381 20.1848">
 <g>
  <rect height="20.1848" opacity="0" width="20.5381" x="0" y="0"/>
  <path d="M10.0875 20.175C15.6576 20.175 20.1767 15.6559 20.1767 10.0875C20.1767 4.51914 15.6576 0 10.0875 0C4.51914 0 0 4.51914 0 10.0875C0 15.6559 4.51914 20.175 10.0875 20.175ZM10.0875 18.1879C5.60839 18.1879 1.9871 14.5666 1.9871 10.0875C1.9871 5.60839 5.60839 1.9871 10.0875 1.9871C14.5666 1.9871 18.1897 5.60839 18.1897 10.0875C18.1897 14.5666 14.5666 18.1879 10.0875 18.1879Z" fill="white" fill-opacity="0.85"/>
  <path d="M10.0795 7.61718C10.717 7.61718 11.2391 7.0871 11.2391 6.44159C11.2391 5.81034 10.717 5.28202 10.0795 5.28202C9.43222 5.28202 8.91191 5.81034 8.91191 6.44159C8.91191 7.0871 9.43222 7.61718 10.0795 7.61718ZM5.18476 12.5027L7.82929 12.7301C8.26913 12.7674 8.42226 12.8019 8.84609 12.9201L12.0643 13.833L14.5926 14.7619C14.8482 14.8516 15.2113 14.7619 15.3107 14.4344C15.3986 14.1414 15.2637 13.8191 14.985 13.718L12.4549 12.8006C12.4078 12.7891 12.3137 12.742 12.2764 12.7322L10.0553 11.9223C10.351 11.3486 10.7453 10.441 10.8492 9.44902C10.859 9.34238 10.9248 9.28456 11.0297 9.28456L14.8783 9.28456C15.1908 9.28456 15.4287 9.03867 15.4287 8.73417C15.4287 8.42792 15.1908 8.18027 14.8783 8.18027L10.6514 8.18027C9.94453 8.18027 9.88144 8.17402 9.11152 7.96445L5.10565 6.858C4.81718 6.77812 4.51268 6.94765 4.42479 7.25038C4.3369 7.5371 4.51444 7.84159 4.81718 7.92948L8.54238 8.95781C8.633 8.98534 8.68906 9.04492 8.67929 9.1498C8.55937 10.0814 8.1082 10.9855 7.86132 11.4002L5.78397 11.4002L5.78397 9.26699C5.78397 8.96874 5.52655 8.71484 5.23358 8.71484C4.91933 8.71484 4.67167 8.96874 4.67167 9.26699L4.67167 11.9506C4.67167 12.2648 4.82167 12.4797 5.18476 12.5027Z" fill="white" fill-opacity="0.85"/>
 </g>
</svg>
