<?xml version="1.0" encoding="UTF-8"?>
<!--Generator: Apple Native CoreSVG 341-->
<!DOCTYPE svg
PUBLIC "-//W3C//DTD SVG 1.1//EN"
       "http://www.w3.org/Graphics/SVG/1.1/DTD/svg11.dtd">
<svg version="1.1" xmlns="http://www.w3.org/2000/svg" xmlns:xlink="http://www.w3.org/1999/xlink" viewBox="0 0 20.5381 20.1848">
 <g>
  <rect height="20.1848" opacity="0" width="20.5381" x="0" y="0"/>
  <path d="M10.0875 20.175C15.6576 20.175 20.1767 15.6559 20.1767 10.0875C20.1767 4.51914 15.6576 0 10.0875 0C4.51914 0 0 4.51914 0 10.0875C0 15.6559 4.51914 20.175 10.0875 20.175ZM10.0875 18.1879C5.60839 18.1879 1.9871 14.5666 1.9871 10.0875C1.9871 5.60839 5.60839 1.9871 10.0875 1.9871C14.5666 1.9871 18.1897 5.60839 18.1897 10.0875C18.1897 14.5666 14.5666 18.1879 10.0875 18.1879Z" fill="white" fill-opacity="0.85"/>
  <path d="M4.66893 9.68495L6.42987 11.4557C6.68378 11.7078 7.08769 11.7096 7.33183 11.4086L8.41367 10.0719C8.48827 9.98749 8.59316 10.0266 8.59316 10.135L8.59316 12.4115L6.62421 12.1859C5.92734 12.1078 5.6912 13.1465 6.36855 13.3551L8.61093 14.102C8.50605 14.5752 8.93222 14.9766 9.38945 14.8283L10.0875 14.6027L10.7775 14.8283C11.2428 14.9766 11.6512 14.5752 11.5561 14.102L13.7967 13.3551C14.474 13.1465 14.2477 12.1078 13.533 12.1859L11.5721 12.4115L11.5721 10.135C11.5721 10.0266 11.6805 9.98925 11.7516 10.0719L12.8432 11.4086C13.0811 11.7096 13.493 11.7078 13.7389 11.4557L15.4998 9.68495C15.7342 9.45058 15.7422 9.07597 15.4998 8.83984C15.2654 8.59745 14.8828 8.59745 14.6387 8.83984L13.3562 10.1223L12.0445 8.51659C11.8234 8.24843 11.4932 8.07265 11.1336 8.07265L9.0414 8.07265C8.68183 8.07265 8.35331 8.24843 8.12245 8.51659L6.80448 10.1223L5.52206 8.83984C5.28593 8.59745 4.89354 8.59745 4.66893 8.83984C4.42304 9.07597 4.43104 9.45058 4.66893 9.68495ZM10.0875 7.51933C10.725 7.51933 11.2471 7.00702 11.2471 6.35175C11.2471 5.71425 10.725 5.19218 10.0875 5.19218C9.43222 5.19218 8.91992 5.71425 8.91992 6.35175C8.91992 7.00702 9.43222 7.51933 10.0875 7.51933Z" fill="white" fill-opacity="0.85"/>
 </g>
</svg>
