<?xml version="1.0" encoding="UTF-8"?>
<!--Generator: Apple Native CoreSVG 341-->
<!DOCTYPE svg
PUBLIC "-//W3C//DTD SVG 1.1//EN"
       "http://www.w3.org/Graphics/SVG/1.1/DTD/svg11.dtd">
<svg version="1.1" xmlns="http://www.w3.org/2000/svg" xmlns:xlink="http://www.w3.org/1999/xlink" viewBox="0 0 23.7965 18.7305">
 <g>
  <rect height="18.7305" opacity="0" width="23.7965" x="0" y="0"/>
  <path d="M12.2568 6.86972C13.4701 6.86972 14.4535 5.89258 14.4535 4.6793C14.4535 3.46602 13.4701 2.48262 12.2568 2.48262C11.0435 2.48262 10.0664 3.46602 10.0664 4.6793C10.0664 5.89258 11.0435 6.86972 12.2568 6.86972ZM7.5082 11.6326C9.70898 11.8937 10.1057 13.1932 11.7127 13.1932C11.7853 13.1932 11.8402 13.1861 11.9111 13.1676L12.8769 10.468C12.9773 10.1783 13.1531 10.0594 13.4588 10.0594L22.2336 10.0594C22.8299 10.0594 23.333 9.55976 23.333 8.95371C23.333 8.36894 22.8299 7.86582 22.2336 7.86582L5.73203 7.86582L4.36933 3.41289C4.19277 2.82187 3.59023 2.4918 3.025 2.6666C2.45176 2.84941 2.1332 3.46699 2.29824 4.01269L3.8375 9.15331C3.98926 9.64941 4.37441 10.0594 4.91211 10.0594L7.72089 10.0594C7.90839 10.0594 8.02929 10.2078 7.96445 10.3971ZM6.39277 3.17089C7.26249 3.17089 7.97421 2.46269 7.97421 1.58945C7.97421 0.717968 7.26249 0 6.39277 0C5.52129 0 4.81133 0.717968 4.81133 1.58945C4.81133 2.46269 5.52129 3.17089 6.39277 3.17089ZM0.606638 15.8908L1.62812 15.8908C4.29706 15.8908 4.88222 14.2787 6.67128 14.2787C8.39707 14.2787 9.04199 15.8908 11.7127 15.8908C14.3932 15.8908 15.0301 14.2787 16.7639 14.2787C18.5512 14.2787 19.1301 15.8908 21.807 15.8908L22.8285 15.8908C23.1646 15.8908 23.4351 15.6283 23.4351 15.2939C23.4351 14.9578 23.1646 14.6873 22.8285 14.6873L21.807 14.6873C19.9514 14.6873 19.3254 13.0752 16.7639 13.0752C14.2559 13.0752 13.5684 14.6873 11.7127 14.6873C9.85878 14.6873 9.17929 13.0752 6.67128 13.0752C4.10976 13.0752 3.48203 14.6873 1.62812 14.6873L0.606638 14.6873C0.262499 14.6873 0 14.9578 0 15.2939C0 15.6283 0.262499 15.8908 0.606638 15.8908ZM0.832421 18.7234C1.16875 18.7234 1.43672 18.4555 1.43672 18.1191C1.43672 17.789 1.16875 17.5211 0.832421 17.5211C0.502343 17.5211 0.234375 17.789 0.234375 18.1191C0.234375 18.4555 0.502343 18.7234 0.832421 18.7234ZM2.69472 18.3896C3.02304 18.3896 3.29101 18.1217 3.29101 17.7916C3.29101 17.4535 3.02304 17.1873 2.69472 17.1873C2.35664 17.1873 2.08867 17.4535 2.08867 17.7916C2.08867 18.1217 2.35664 18.3896 2.69472 18.3896ZM4.42129 17.5703C4.75937 17.5703 5.02734 17.3103 5.02734 16.9722C5.02734 16.6359 4.75937 16.376 4.42129 16.376C4.09297 16.376 3.825 16.6359 3.825 16.9722C3.825 17.3103 4.09297 17.5703 4.42129 17.5703ZM6.28457 17.1125C6.62089 17.1125 6.88886 16.8445 6.88886 16.5064C6.88886 16.1781 6.62089 15.9101 6.28457 15.9101C5.95449 15.9101 5.68652 16.1781 5.68652 16.5064C5.68652 16.8445 5.95449 17.1125 6.28457 17.1125ZM8.14433 17.5703C8.48242 17.5703 8.74238 17.3103 8.74238 16.9722C8.74238 16.6359 8.48242 16.376 8.14433 16.376C7.80625 16.376 7.54804 16.6359 7.54804 16.9722C7.54804 17.3103 7.80625 17.5703 8.14433 17.5703ZM9.88867 18.3896C10.225 18.3896 10.493 18.1217 10.493 17.7916C10.493 17.4535 10.225 17.1873 9.88867 17.1873C9.55859 17.1873 9.29062 17.4535 9.29062 17.7916C9.29062 18.1217 9.55859 18.3896 9.88867 18.3896ZM11.7305 18.7234C12.0588 18.7234 12.3268 18.4555 12.3268 18.1191C12.3268 17.789 12.0588 17.5211 11.7305 17.5211C11.3924 17.5211 11.1244 17.789 11.1244 18.1191C11.1244 18.4555 11.3924 18.7234 11.7305 18.7234ZM13.5625 18.3896C13.9006 18.3896 14.1605 18.1217 14.1605 17.7916C14.1605 17.4535 13.9006 17.1873 13.5625 17.1873C13.2262 17.1873 12.9662 17.4535 12.9662 17.7916C12.9662 18.1217 13.2262 18.3896 13.5625 18.3896ZM15.3068 17.5703C15.6449 17.5703 15.9111 17.3103 15.9111 16.9722C15.9111 16.6359 15.6449 16.376 15.3068 16.376C14.9768 16.376 14.7088 16.6359 14.7088 16.9722C14.7088 17.3103 14.9768 17.5703 15.3068 17.5703ZM17.1666 17.1125C17.5047 17.1125 17.7646 16.8445 17.7646 16.5064C17.7646 16.1781 17.5047 15.9101 17.1666 15.9101C16.8303 15.9101 16.5703 16.1781 16.5703 16.5064C16.5703 16.8445 16.8303 17.1125 17.1666 17.1125ZM19.0299 17.5703C19.3662 17.5703 19.6262 17.3103 19.6262 16.9722C19.6262 16.6359 19.3662 16.376 19.0299 16.376C18.6918 16.376 18.4318 16.6359 18.4318 16.9722C18.4318 17.3103 18.6918 17.5703 19.0299 17.5703ZM20.7644 18.3896C21.1025 18.3896 21.3625 18.1217 21.3625 17.7916C21.3625 17.4535 21.1025 17.1873 20.7644 17.1873C20.4281 17.1873 20.1682 17.4535 20.1682 17.7916C20.1682 18.1217 20.4281 18.3896 20.7644 18.3896ZM22.6107 18.7234C22.9488 18.7234 23.2168 18.4555 23.2168 18.1191C23.2168 17.789 22.9488 17.5211 22.6107 17.5211C22.2824 17.5211 22.0144 17.789 22.0144 18.1191C22.0144 18.4555 22.2824 18.7234 22.6107 18.7234Z" fill="white" fill-opacity="0.85"/>
 </g>
</svg>
