<?xml version="1.0" encoding="UTF-8"?>
<!--Generator: Apple Native CoreSVG 341-->
<!DOCTYPE svg
PUBLIC "-//W3C//DTD SVG 1.1//EN"
       "http://www.w3.org/Graphics/SVG/1.1/DTD/svg11.dtd">
<svg version="1.1" xmlns="http://www.w3.org/2000/svg" xmlns:xlink="http://www.w3.org/1999/xlink" viewBox="0 0 20.5381 20.1848">
 <g>
  <rect height="20.1848" opacity="0" width="20.5381" x="0" y="0"/>
  <path d="M20.1767 10.0875C20.1767 15.6478 15.6576 20.175 10.0875 20.175C4.52715 20.175 0 15.6478 0 10.0875C0 4.51914 4.52715 0 10.0875 0C15.6576 0 20.1767 4.51914 20.1767 10.0875ZM5.29081 10.6781L5.48261 11.0324C5.70194 11.424 6.06952 11.5475 6.45312 11.4656L6.52421 11.4496L7.83242 15.3396L6.82441 15.9986C6.5955 16.1539 6.66913 16.5221 6.95214 16.5221L12.7434 16.5221C13.0264 16.5221 13.0902 16.1459 12.8693 15.9986L11.8746 15.3592L13.2023 11.3557C13.2644 11.1578 13.165 10.9404 12.9734 10.8685C12.7596 10.8082 12.5635 10.9227 12.5014 11.1152L11.7791 13.2812C11.5775 12.8992 11.2596 12.5785 10.8768 12.3742L10.8768 13.3019C11.1443 13.5641 11.2893 13.9133 11.2893 14.3141C11.2893 15.0742 10.6889 15.7627 9.84687 15.7627C9.06445 15.7627 8.40448 15.1125 8.40448 14.3141C8.40448 13.9115 8.5787 13.5445 8.85605 13.2869L8.85605 12.3662C8.46699 12.5607 8.13749 12.8734 7.93066 13.267L7.26776 11.2863L7.68984 11.1877C7.87089 11.1566 7.97382 11.0307 7.97382 10.8434C7.97382 10.6766 7.85136 10.5363 7.68007 10.5053L5.66796 10.1607C5.30409 10.0906 5.12929 10.3861 5.29081 10.6781ZM9.84785 6.09706L7.78867 7.17148C6.84316 7.66777 6.70019 8.76601 7.41933 9.47538L9.29121 11.3393L9.29121 13.9473C9.29121 14.2686 9.54863 14.526 9.85664 14.526C10.1824 14.526 10.4514 14.2686 10.4514 13.9473L10.4514 11.0916C10.4514 10.9531 10.3928 10.8244 10.3191 10.7232L9.02089 9.1373C8.94355 9.05019 8.97734 8.93554 9.06445 8.89198L10.6309 8.07499C10.742 8.01366 10.8309 8.05546 10.8549 8.18437L10.9978 9.14784C11.0369 9.37421 11.1576 9.5162 11.3822 9.62363L12.9379 10.4103C13.3693 10.635 13.7129 10.4592 13.8336 10.1822C13.933 9.91503 13.8504 9.57597 13.5016 9.39667L12.1172 8.68183L11.8898 7.04433C11.7646 6.14941 10.7801 5.6123 9.84785 6.09706ZM11.399 4.84862C11.399 5.53671 11.9344 6.06405 12.6144 6.06405C13.275 6.06405 13.8121 5.53671 13.8121 4.84862C13.8121 4.19608 13.275 3.65097 12.6144 3.65097C11.9344 3.65097 11.399 4.19608 11.399 4.84862Z" fill="white" fill-opacity="0.85"/>
 </g>
</svg>
