<?xml version="1.0" encoding="UTF-8"?>
<!--Generator: Apple Native CoreSVG 341-->
<!DOCTYPE svg
PUBLIC "-//W3C//DTD SVG 1.1//EN"
       "http://www.w3.org/Graphics/SVG/1.1/DTD/svg11.dtd">
<svg version="1.1" xmlns="http://www.w3.org/2000/svg" xmlns:xlink="http://www.w3.org/1999/xlink" viewBox="0 0 20.5381 20.1848">
 <g>
  <rect height="20.1848" opacity="0" width="20.5381" x="0" y="0"/>
  <path d="M20.1767 10.0875C20.1767 15.6478 15.6576 20.175 10.0875 20.175C4.52715 20.175 0 15.6478 0 10.0875C0 4.51914 4.52715 0 10.0875 0C15.6576 0 20.1767 4.51914 20.1767 10.0875ZM4.2121 7.14316C4.12421 7.44316 4.30351 7.75917 4.61776 7.84882L8.48476 8.91523C8.58339 8.94101 8.63945 9.00859 8.62968 9.11523C8.50976 10.0814 8.02753 11.0201 7.7789 11.448L5.62265 11.448L5.62265 9.23417C5.62265 8.92265 5.3537 8.66523 5.05546 8.66523C4.72792 8.66523 4.4705 8.92265 4.4705 9.23417L4.4705 12.0232C4.4705 12.3508 4.62226 12.5754 4.99687 12.5984L7.74687 12.8373C8.20624 12.8684 8.36464 12.9109 8.80175 13.0309L12.1449 13.9783L14.7689 14.9418C15.0361 15.0395 15.4125 14.9418 15.5217 14.6027C15.6096 14.2965 15.4746 13.9592 15.1826 13.8598L12.5523 12.9061C12.5018 12.8963 12.4094 12.8475 12.3703 12.8297L10.0588 11.9932C10.3643 11.3982 10.7799 10.4543 10.8855 9.42597C10.8953 9.31933 10.9611 9.25351 11.0758 9.25351L15.0662 9.25351C15.392 9.25351 15.6432 9.00234 15.6432 8.68632C15.6432 8.36855 15.392 8.10937 15.0662 8.10937L10.6762 8.10937C9.94453 8.10937 9.88144 8.10312 9.0787 7.88203L4.91776 6.73925C4.61776 6.6496 4.30175 6.8289 4.2121 7.14316ZM8.87382 6.2998C8.87382 6.97011 9.40917 7.52324 10.0893 7.52324C10.7516 7.52324 11.2887 6.97011 11.2887 6.2998C11.2887 5.6455 10.7516 5.09413 10.0893 5.09413C9.40917 5.09413 8.87382 5.6455 8.87382 6.2998Z" fill="white" fill-opacity="0.85"/>
 </g>
</svg>
