<?xml version="1.0" encoding="UTF-8"?>
<!--Generator: Apple Native CoreSVG 341-->
<!DOCTYPE svg
PUBLIC "-//W3C//DTD SVG 1.1//EN"
       "http://www.w3.org/Graphics/SVG/1.1/DTD/svg11.dtd">
<svg version="1.1" xmlns="http://www.w3.org/2000/svg" xmlns:xlink="http://www.w3.org/1999/xlink" viewBox="0 0 20.5381 20.1848">
 <g>
  <rect height="20.1848" opacity="0" width="20.5381" x="0" y="0"/>
  <path d="M20.1767 10.0875C20.1767 15.6478 15.6576 20.175 10.0875 20.175C4.52715 20.175 0 15.6478 0 10.0875C0 4.51914 4.52715 0 10.0875 0C15.6576 0 20.1767 4.51914 20.1767 10.0875ZM12.4285 14.4271C12.4285 14.8381 12.7578 15.1754 13.1812 15.1754C13.5922 15.1754 13.9295 14.8381 13.9295 14.4271C13.9295 14.0135 13.5922 13.6629 13.1812 13.6629C12.7578 13.6629 12.4285 14.0135 12.4285 14.4271ZM7.12109 7.85468C6.18808 8.35097 5.99101 9.51093 6.88047 10.2158L8.85781 11.7494L7.67675 13.9213C7.5205 14.184 7.64121 14.5133 7.91191 14.6615C8.1125 14.7787 8.47636 14.7316 8.64238 14.4281L10.0383 11.8391C10.1537 11.6367 10.1084 11.3855 9.94863 11.2143L8.40273 9.54316L8.83808 9.30058L7.4 7.95038C7.34765 7.8998 7.29707 7.84746 7.24824 7.79511ZM9.0332 6.21855L7.86855 6.65175C7.52773 6.77421 7.35644 7.22246 7.71328 7.56152L10.667 10.3262C10.8197 10.4709 11.0391 10.5117 11.2344 10.4424L12.084 11.2352L12.084 11.4006C12.084 11.7086 12.3254 11.958 12.6254 11.958C12.6867 11.958 12.7463 11.934 12.7996 11.91L14.9387 13.9061C15.1783 14.1227 15.4605 14.2318 15.7713 14.2318C16.3287 14.2158 16.7166 13.8227 16.7006 13.2848C16.7006 13.016 16.51 12.7611 16.2463 12.7709C16.051 12.7709 15.9215 12.9076 15.9215 13.109L15.9215 13.2732C15.9215 13.4615 15.7092 13.5709 15.5057 13.3834L13.1766 11.3242L13.1766 9.0246C13.1766 8.86308 13.1012 8.7246 12.9432 8.58437L10.6889 6.46972C10.2529 6.05781 9.60117 6.00019 9.0332 6.21855ZM5.81328 11.525L3.74003 11.525C3.44804 11.525 3.20488 11.7664 3.20488 12.0824C3.20488 12.3699 3.44804 12.6238 3.74003 12.6238L6.19492 12.6238C6.41328 12.6238 6.59785 12.4853 6.68574 12.3238L7.27636 11.1391L6.57422 10.5957C6.42949 10.4785 6.29726 10.3596 6.21562 10.2469ZM11.1047 8.3623L12.084 9.27402L12.084 10.3541L11.5848 9.92949C11.591 9.78925 11.5324 9.63476 11.4152 9.52734L10.3852 8.5621L10.8398 8.32675C10.9305 8.28144 11.0318 8.2912 11.1047 8.3623ZM11.1078 5.58535C11.1078 6.2539 11.6609 6.79101 12.3312 6.79101C12.9918 6.79101 13.5369 6.2539 13.5369 5.58535C13.5369 4.91328 12.9918 4.36992 12.3312 4.36992C11.6609 4.36992 11.1078 4.91328 11.1078 5.58535Z" fill="white" fill-opacity="0.85"/>
 </g>
</svg>
