<?xml version="1.0" encoding="UTF-8"?>
<!--Generator: Apple Native CoreSVG 341-->
<!DOCTYPE svg
PUBLIC "-//W3C//DTD SVG 1.1//EN"
       "http://www.w3.org/Graphics/SVG/1.1/DTD/svg11.dtd">
<svg version="1.1" xmlns="http://www.w3.org/2000/svg" xmlns:xlink="http://www.w3.org/1999/xlink" viewBox="0 0 20.5381 20.1848">
 <g>
  <rect height="20.1848" opacity="0" width="20.5381" x="0" y="0"/>
  <path d="M10.0875 20.175C15.6576 20.175 20.1767 15.6559 20.1767 10.0875C20.1767 4.51914 15.6576 0 10.0875 0C4.51914 0 0 4.51914 0 10.0875C0 15.6559 4.51914 20.175 10.0875 20.175ZM10.0875 18.1879C5.60839 18.1879 1.9871 14.5666 1.9871 10.0875C1.9871 5.60839 5.60839 1.9871 10.0875 1.9871C14.5666 1.9871 18.1897 5.60839 18.1897 10.0875C18.1897 14.5666 14.5666 18.1879 10.0875 18.1879Z" fill="white" fill-opacity="0.85"/>
  <path d="M10.0146 6.18495C10.6699 6.18495 11.192 5.66288 11.192 5.00937C11.192 4.36386 10.6699 3.84179 10.0146 3.84179C9.36913 3.84179 8.83906 4.36386 8.83906 5.00937C8.83906 5.66288 9.36913 6.18495 10.0146 6.18495ZM6.4248 14.9744C5.87968 15.6252 6.77011 16.2537 7.21757 15.7246L8.71718 13.932C8.88417 13.7473 8.93476 13.6363 9.06269 13.3982L9.99335 11.3842C10.2883 10.7525 10.3557 10.3391 10.4027 9.66054L10.4596 8.84511L11.2635 9.61777C11.4535 9.80331 11.6053 9.86015 11.9338 9.86015L13.208 9.86015C13.5516 9.86015 13.7762 9.66308 13.7762 9.34081C13.7762 9.03632 13.548 8.83749 13.208 8.83749L11.8529 8.83749L10.2553 7.08886C10.0066 6.8207 9.69765 6.66542 9.30527 6.66542C9.22089 6.66542 9.14277 6.67343 9.0664 6.6912C9.05585 6.28359 8.7291 5.96562 8.29218 5.96562L7.74687 5.96562C7.12363 5.96562 6.75429 6.3412 6.75429 6.9662L6.75429 9.60644C6.75429 10.0379 7.06679 10.3504 7.49023 10.3504L8.16699 10.3504C8.16874 10.7049 8.26113 10.9482 8.4539 11.2529L7.9787 13.1391ZM9.8166 12.9973C9.93046 13.1369 9.97402 13.2125 10.0238 13.3041L11.1293 15.5506C11.4871 16.2715 12.5436 15.8143 12.1609 15.0525L11.0803 12.8629C10.9941 12.6844 10.8805 12.4961 10.7633 12.3381L10.383 11.8023ZM12.8949 15.6174C12.8949 15.7877 13.0271 15.9234 13.1975 15.9234C13.3678 15.9234 13.5 15.7877 13.5 15.6174L13.5 10.3342C13.3943 10.3635 13.2914 10.375 13.208 10.375L12.8949 10.375ZM12.8949 8.31464L13.208 8.31464C13.2834 8.31464 13.3783 8.32441 13.5 8.35546L13.5 7.6123C13.5 7.44198 13.3678 7.31777 13.1975 7.31777C13.0191 7.31777 12.8949 7.44198 12.8949 7.6123Z" fill="white" fill-opacity="0.85"/>
 </g>
</svg>
