<?xml version="1.0" encoding="UTF-8"?>
<!--Generator: Apple Native CoreSVG 341-->
<!DOCTYPE svg
PUBLIC "-//W3C//DTD SVG 1.1//EN"
       "http://www.w3.org/Graphics/SVG/1.1/DTD/svg11.dtd">
<svg version="1.1" xmlns="http://www.w3.org/2000/svg" xmlns:xlink="http://www.w3.org/1999/xlink" viewBox="0 0 15.4953 22.0191">
 <g>
  <rect height="22.0191" opacity="0" width="15.4953" x="0" y="0"/>
  <path d="M7.61989 4.8916C8.98239 4.8916 10.0617 3.80429 10.0617 2.4498C10.0617 1.09531 8.97439 0 7.61989 0C6.27341 0 5.1781 1.09531 5.1781 2.4498C5.1781 3.80429 6.2654 4.8916 7.61989 4.8916ZM7.56208 13.6062C7.90466 13.6062 8.14255 13.7953 8.24021 14.1699L9.89919 20.5617C10.2773 22.0076 12.2549 21.5168 12.0427 20.1357C11.9664 19.6164 10.5338 14.209 10.3234 12.985C10.1654 12.0769 10.2355 9.79765 10.2355 8.83163C10.2355 8.51835 10.4947 8.36835 10.808 8.49081L13.6201 9.61991C14.3675 9.92441 14.9215 9.55859 15.0785 9.04726C15.239 8.56796 15.0339 7.95566 14.3177 7.6539L11.2572 6.39882C10.5718 6.11738 9.95212 5.9496 9.27204 5.86972C8.76091 6.12968 8.1779 6.26894 7.56208 6.26894C6.95603 6.26894 6.37302 6.12968 5.86013 5.86972C5.1738 5.9496 4.56033 6.11738 3.87673 6.39882L0.816188 7.6539C0.0999776 7.95566-0.113108 8.56796 0.053688 9.04726C0.212477 9.55859 0.756617 9.92441 1.50584 9.61991L4.32595 8.49081C4.63923 8.36835 4.8904 8.51835 4.8904 8.83163C4.8904 9.79765 4.96052 12.0769 4.81052 12.985C4.60017 14.209 3.15955 19.6164 3.08142 20.1357C2.87107 21.5168 4.85661 22.0076 5.22673 20.5617L6.88396 14.1699C6.98337 13.7953 7.22927 13.6062 7.56208 13.6062Z" fill="white" fill-opacity="0.85"/>
 </g>
</svg>
