<?xml version="1.0" encoding="UTF-8"?>
<!--Generator: Apple Native CoreSVG 341-->
<!DOCTYPE svg
PUBLIC "-//W3C//DTD SVG 1.1//EN"
       "http://www.w3.org/Graphics/SVG/1.1/DTD/svg11.dtd">
<svg version="1.1" xmlns="http://www.w3.org/2000/svg" xmlns:xlink="http://www.w3.org/1999/xlink" viewBox="0 0 25.365 20.1699">
 <g>
  <rect height="20.1699" opacity="0" width="25.365" x="0" y="0"/>
  <path d="M17.7928 6.39238L17.7928 8.833C17.7928 9.53769 18.313 10.0613 19.0194 10.0613L20.9655 10.0613C21.6604 10.0613 22.1858 9.53769 22.1858 8.833L22.1858 6.39238C22.1858 5.69121 21.6604 5.16757 20.9655 5.16757L19.0194 5.16757C18.313 5.16757 17.7928 5.69121 17.7928 6.39238ZM14.9618 13.5168L14.9618 15.9619C14.9618 16.6648 15.4819 17.1885 16.1901 17.1885L18.138 17.1885C18.8391 17.1885 19.3628 16.6648 19.3628 15.9619L19.3628 13.5168C19.3628 12.8103 18.8391 12.293 18.138 12.293L16.1901 12.293C15.4819 12.293 14.9618 12.8103 14.9618 13.5168ZM20.6106 13.5168L20.6106 15.9619C20.6106 16.6648 21.128 17.1885 21.8292 17.1885L23.777 17.1885C24.4835 17.1885 25.0036 16.6648 25.0036 15.9619L25.0036 13.5168C25.0036 12.8103 24.4835 12.293 23.777 12.293L21.8292 12.293C21.128 12.293 20.6106 12.8103 20.6106 13.5168ZM18.0047 3.6748L21.9571 3.6748C22.2641 3.6748 22.321 3.35 22.0911 3.18847L20.3192 1.97949C20.0958 1.8332 19.8713 1.8332 19.6479 1.97949L17.8725 3.18847C17.6409 3.35 17.6995 3.6748 18.0047 3.6748Z" fill="white" fill-opacity="0.85"/>
  <path d="M5.89617 4.45742C7.12371 4.45742 8.11062 3.43047 8.11062 2.24023C8.11062 1.00566 7.12371 0 5.89617 0C4.65535 0 3.68172 1.00566 3.68172 2.24023C3.68172 3.44648 4.65535 4.45742 5.89617 4.45742ZM1.62528 12.7146L7.945 5.6955C7.33426 5.46816 6.65691 5.36523 5.89617 5.36523C3.02489 5.36523 1.33856 6.74804 1.33856 9.05839C1.33856 9.61405 1.35536 10.3578 1.44325 11.1193ZM10.1618 12.7146L10.3393 11.1193C10.429 10.3578 10.4583 9.61405 10.4583 9.05839C10.4583 7.92753 10.0561 7.01503 9.29089 6.39374L4.3075 11.931C4.84656 11.8502 5.37312 11.8164 5.89617 11.8164C7.30652 11.8164 8.72039 12.0037 10.1618 12.7146ZM3.47195 20.1211C4.06824 20.0412 4.47469 19.6117 4.39305 18.8584L3.99891 15.2004L7.78992 15.2004L7.39402 18.8584C7.31238 19.6117 7.70633 20.0412 8.32039 20.1211C8.93797 20.1832 9.40828 19.7998 9.48191 19.074L9.99324 14.2689C8.70359 13.5189 7.27371 13.2287 5.89617 13.2287C4.51512 13.2287 3.07547 13.5189 1.79832 14.2689L2.30692 19.074C2.38055 19.7998 2.85262 20.1832 3.47195 20.1211ZM9.29089 6.38573L11.1727 4.29179C11.5196 3.9041 11.4921 3.47734 11.1532 3.20234C10.8294 2.92285 10.4337 2.91133 10.069 3.31855L7.945 5.6955C8.43738 5.87831 8.89695 6.11523 9.29089 6.38573ZM0.344031 13.4777C-0.0592868 13.7703-0.0690524 14.2226 0.115321 14.5092C0.306922 14.8082 0.691882 14.9449 1.09911 14.6922C1.33075 14.5351 1.55165 14.3994 1.79832 14.2689L1.62528 12.7146C1.16297 12.9223 0.747741 13.1609 0.344031 13.4777ZM11.4368 13.4777C11.0393 13.1609 10.6223 12.9223 10.1618 12.7146L9.98875 14.2689C10.2354 14.3994 10.4598 14.5351 10.6817 14.6922C11.0889 14.9449 11.4641 14.8162 11.6575 14.5252C11.8561 14.2306 11.8544 13.7783 11.4368 13.4777Z" fill="white" fill-opacity="0.85"/>
 </g>
</svg>
