<?xml version="1.0" encoding="UTF-8"?>
<!--Generator: Apple Native CoreSVG 341-->
<!DOCTYPE svg
PUBLIC "-//W3C//DTD SVG 1.1//EN"
       "http://www.w3.org/Graphics/SVG/1.1/DTD/svg11.dtd">
<svg version="1.1" xmlns="http://www.w3.org/2000/svg" xmlns:xlink="http://www.w3.org/1999/xlink" viewBox="0 0 20.5381 20.1848">
 <g>
  <rect height="20.1848" opacity="0" width="20.5381" x="0" y="0"/>
  <path d="M10.0875 20.175C15.6576 20.175 20.1767 15.6559 20.1767 10.0875C20.1767 4.51914 15.6576 0 10.0875 0C4.51914 0 0 4.51914 0 10.0875C0 15.6559 4.51914 20.175 10.0875 20.175ZM10.0875 18.1879C5.60839 18.1879 1.9871 14.5666 1.9871 10.0875C1.9871 5.60839 5.60839 1.9871 10.0875 1.9871C14.5666 1.9871 18.1897 5.60839 18.1897 10.0875C18.1897 14.5666 14.5666 18.1879 10.0875 18.1879Z" fill="white" fill-opacity="0.85"/>
  <path d="M14.092 7.17851C14.7074 7.17851 15.1932 6.68476 15.1932 6.07558C15.1932 5.46015 14.7074 4.97265 14.092 4.97265C13.4828 4.97265 12.9811 5.46015 12.9811 6.07558C12.9811 6.68476 13.4828 7.17851 14.092 7.17851ZM11.1715 15.099C13.2119 15.099 14.7625 13.56 14.7625 11.5344C14.7625 10.6055 14.3824 10.0416 13.5637 9.75918L12.7955 9.48828C12.6836 9.45722 12.6561 9.40039 12.7404 9.31425L13.2244 8.58691C13.632 7.99902 13.4811 7.51327 12.8754 7.07812L11.0353 5.79843C10.8098 5.65546 10.5594 5.6537 10.348 5.78866L8.63495 6.93515C7.96718 7.39159 8.58788 8.24765 9.2246 7.82675L10.634 6.8623L11.6019 7.53456C11.7529 7.63847 11.7707 7.74413 11.6766 7.88359L10.8791 9.03183C10.4164 9.69609 10.785 10.4182 11.4963 10.5975L13.5607 11.133C13.7711 11.1773 13.8865 11.3443 13.8865 11.5734C13.8865 13.0604 12.7105 14.2311 11.1715 14.2311C9.61308 14.2311 8.4371 13.0463 8.4371 11.4992C8.4371 10.9617 8.57929 10.4873 8.83964 10.0902C9.17714 9.54785 8.44238 9.09335 8.07206 9.67812C7.75839 10.1826 7.55488 10.7982 7.55488 11.4992C7.55488 13.5477 9.11347 15.099 11.1715 15.099ZM14.7518 15.099C15.0785 15.099 15.3449 14.8469 15.3449 14.5236C15.3449 14.1986 15.0785 13.9225 14.7518 13.9225C14.4187 13.9225 14.1621 14.1986 14.1621 14.5236C14.1621 14.8469 14.4187 15.099 14.7518 15.099ZM4.07655 8.92773L6.37362 8.92773C6.58847 8.92773 6.75624 8.7537 6.75624 8.5371C6.75624 8.32226 6.58847 8.14648 6.37362 8.14648L4.07655 8.14648C3.85194 8.14648 3.70722 8.33202 3.70722 8.5371C3.70722 8.74394 3.85194 8.92773 4.07655 8.92773ZM3.62636 10.756L6.37362 10.756C6.58847 10.756 6.75624 10.598 6.75624 10.3734C6.75624 10.1586 6.58847 9.98281 6.37362 9.98281L3.62636 9.98281C3.42128 9.98281 3.2535 10.1781 3.2535 10.3734C3.2535 10.598 3.42128 10.756 3.62636 10.756ZM5.05058 12.5941L6.37362 12.5941C6.58847 12.5941 6.75624 12.4361 6.75624 12.2018C6.75624 11.9869 6.58847 11.8209 6.37362 11.8209L5.05058 11.8209C4.83397 11.8209 4.68925 11.9869 4.68925 12.2018C4.68925 12.4361 4.83397 12.5941 5.05058 12.5941Z" fill="white" fill-opacity="0.85"/>
 </g>
</svg>
