<?xml version="1.0" encoding="UTF-8"?>
<!--Generator: Apple Native CoreSVG 341-->
<!DOCTYPE svg
PUBLIC "-//W3C//DTD SVG 1.1//EN"
       "http://www.w3.org/Graphics/SVG/1.1/DTD/svg11.dtd">
<svg version="1.1" xmlns="http://www.w3.org/2000/svg" xmlns:xlink="http://www.w3.org/1999/xlink" viewBox="0 0 23.4906 18.2316">
 <g>
  <rect height="18.2316" opacity="0" width="23.4906" x="0" y="0"/>
  <path d="M23.1293 3.17499L23.1293 15.0682C23.1293 17.1519 22.0416 18.2316 19.9258 18.2316L3.20351 18.2316C1.0957 18.2316 0 17.1519 0 15.0682L0 3.17499C0 1.08945 1.0957 0.00351548 3.20351 0.00351548L19.9258 0.00351548C22.0416 0.00351548 23.1293 1.08945 23.1293 3.17499ZM3.31444 1.91678C2.40643 1.91678 1.91327 2.39315 1.91327 3.34198L1.91327 14.8994C1.91327 15.8482 2.40643 16.3184 3.31444 16.3184L19.8148 16.3184C20.7149 16.3184 21.216 15.8482 21.216 14.8994L21.216 3.34198C21.216 2.39315 20.7149 1.91678 19.8148 1.91678ZM13.8951 13.634C13.8951 13.9766 13.6324 14.2375 13.2721 14.2375L5.30565 14.2375C4.94178 14.2375 4.68085 13.9766 4.68085 13.634C4.68085 13.2816 4.94178 13.0012 5.30565 13.0012L13.2721 13.0012C13.6324 13.0012 13.8951 13.2816 13.8951 13.634ZM13.8951 4.5994C13.8951 4.95175 13.6324 5.22421 13.2721 5.22421L5.30565 5.22421C4.94178 5.22421 4.68085 4.95175 4.68085 4.5994C4.68085 4.25858 4.94178 3.98788 5.30565 3.98788L13.2721 3.98788C13.6324 3.98788 13.8951 4.25858 13.8951 4.5994Z" fill="white" fill-opacity="0.85"/>
  <path d="M20.0162 8.14999L20.0162 10.0736C20.0162 10.8955 19.5289 11.4086 18.7025 11.4086L4.43651 11.4086C3.6119 11.4086 3.12284 10.8955 3.12284 10.0736L3.12284 8.14999C3.12284 7.32812 3.6119 6.81503 4.43651 6.81503L18.7025 6.81503C19.5289 6.81503 20.0162 7.32812 20.0162 8.14999ZM5.31366 8.50117C4.95155 8.50117 4.68085 8.77011 4.68085 9.11269C4.68085 9.46503 4.95155 9.73749 5.31366 9.73749L9.98124 9.73749C10.3416 9.73749 10.6025 9.46503 10.6025 9.11269C10.6025 8.77011 10.3416 8.50117 9.98124 8.50117Z" fill="white" fill-opacity="0.85"/>
 </g>
</svg>
