<?xml version="1.0" encoding="UTF-8"?>
<!--Generator: Apple Native CoreSVG 341-->
<!DOCTYPE svg
PUBLIC "-//W3C//DTD SVG 1.1//EN"
       "http://www.w3.org/Graphics/SVG/1.1/DTD/svg11.dtd">
<svg version="1.1" xmlns="http://www.w3.org/2000/svg" xmlns:xlink="http://www.w3.org/1999/xlink" viewBox="0 0 20.5381 20.1848">
 <g>
  <rect height="20.1848" opacity="0" width="20.5381" x="0" y="0"/>
  <path d="M20.1767 10.0875C20.1767 15.6478 15.6576 20.175 10.0875 20.175C4.52715 20.175 0 15.6478 0 10.0875C0 4.51914 4.52715 0 10.0875 0C15.6576 0 20.1767 4.51914 20.1767 10.0875ZM5.41191 5.64745C4.79941 5.64745 4.40351 6.02558 4.40351 6.62656L4.40351 13.5725C4.40351 14.1654 4.79941 14.5516 5.41191 14.5516L14.7889 14.5516C15.3934 14.5516 15.7973 14.1654 15.7973 13.5725L15.7973 6.62656C15.7973 6.02558 15.3934 5.64745 14.7889 5.64745ZM6.52636 12.7492L6.52636 13.4117C6.52636 13.5857 6.41718 13.7109 6.24492 13.7109L5.5123 13.7109C5.30898 13.7109 5.20156 13.5857 5.20156 13.3957L5.20156 12.7492C5.20156 12.5734 5.30898 12.4562 5.50429 12.4562L6.24492 12.4562C6.41718 12.4562 6.52636 12.5734 6.52636 12.7492ZM14.9975 12.7492L14.9975 13.3957C14.9975 13.5857 14.8918 13.7109 14.692 13.7109L13.9514 13.7109C13.7836 13.7109 13.6744 13.5857 13.6744 13.4117L13.6744 12.7492C13.6744 12.5734 13.7836 12.4562 13.9514 12.4562L14.7 12.4562C14.8918 12.4562 14.9975 12.5734 14.9975 12.7492ZM12.749 10.8004L12.749 13.4295C12.749 13.5857 12.6434 13.7109 12.4773 13.7109L7.73496 13.7109C7.5414 13.7109 7.44375 13.5857 7.44375 13.4295L7.44375 10.8004C7.44375 10.6424 7.5414 10.4994 7.73496 10.4994L12.4773 10.4994C12.6434 10.4994 12.749 10.6424 12.749 10.8004ZM6.52636 10.7418L6.52636 11.3928C6.52636 11.5428 6.41718 11.676 6.24492 11.676L5.50429 11.676C5.30898 11.676 5.20156 11.5428 5.20156 11.3928L5.20156 10.7418C5.20156 10.5482 5.30898 10.4408 5.50429 10.4408L6.24492 10.4408C6.41718 10.4408 6.52636 10.5482 6.52636 10.7418ZM14.9975 10.7418L14.9975 11.3928C14.9975 11.5428 14.8918 11.676 14.7 11.676L13.9514 11.676C13.7836 11.676 13.6744 11.5428 13.6744 11.3928L13.6744 10.7418C13.6744 10.5482 13.7836 10.4408 13.9514 10.4408L14.7 10.4408C14.8918 10.4408 14.9975 10.5482 14.9975 10.7418ZM6.52636 8.74413L6.52636 9.40839C6.52636 9.55839 6.41718 9.68808 6.24492 9.68808L5.50429 9.68808C5.30898 9.68808 5.20156 9.55839 5.20156 9.40839L5.20156 8.74413C5.20156 8.55859 5.30898 8.44667 5.50429 8.44667L6.24492 8.44667C6.41718 8.44667 6.52636 8.55859 6.52636 8.74413ZM14.9975 8.74413L14.9975 9.40839C14.9975 9.55839 14.8918 9.68808 14.7 9.68808L13.9514 9.68808C13.7836 9.68808 13.6744 9.55839 13.6744 9.40839L13.6744 8.74413C13.6744 8.55859 13.7836 8.44667 13.9514 8.44667L14.7 8.44667C14.8918 8.44667 14.9975 8.55859 14.9975 8.74413ZM12.749 6.77929L12.749 9.40039C12.749 9.54863 12.6434 9.68007 12.4773 9.68007L7.73496 9.68007C7.5414 9.68007 7.44375 9.54863 7.44375 9.40039L7.44375 6.77929C7.44375 6.60527 7.5414 6.47656 7.73496 6.47656L12.4773 6.47656C12.6434 6.47656 12.749 6.60527 12.749 6.77929ZM6.52636 6.77929L6.52636 7.43378C6.52636 7.58027 6.41718 7.71523 6.24492 7.71523L5.50429 7.71523C5.30898 7.71523 5.20156 7.58027 5.20156 7.43378L5.20156 6.77929C5.20156 6.60527 5.30898 6.47656 5.50429 6.47656L6.24492 6.47656C6.41718 6.47656 6.52636 6.60527 6.52636 6.77929ZM14.9975 6.77929L14.9975 7.43378C14.9975 7.58027 14.8918 7.71523 14.7 7.71523L13.9514 7.71523C13.7836 7.71523 13.6744 7.58027 13.6744 7.43378L13.6744 6.77929C13.6744 6.60527 13.7836 6.47656 13.9514 6.47656L14.7 6.47656C14.8918 6.47656 14.9975 6.60527 14.9975 6.77929Z" fill="white" fill-opacity="0.85"/>
 </g>
</svg>
