<?xml version="1.0" encoding="UTF-8"?>
<!--Generator: Apple Native CoreSVG 341-->
<!DOCTYPE svg
PUBLIC "-//W3C//DTD SVG 1.1//EN"
       "http://www.w3.org/Graphics/SVG/1.1/DTD/svg11.dtd">
<svg version="1.1" xmlns="http://www.w3.org/2000/svg" xmlns:xlink="http://www.w3.org/1999/xlink" viewBox="0 0 24.1775 25.2707">
 <g>
  <rect height="25.2707" opacity="0" width="24.1775" x="0" y="0"/>
  <path d="M18.0952 2.88261L5.72099 2.88261C5.75663 2.04585 6.28265 1.56055 7.15234 1.56055L16.6639 1.56055C17.5336 1.56055 18.0596 2.04585 18.0952 2.88261Z" fill="white" fill-opacity="0.85"/>
  <path d="M20.07 5.78717C19.7399 5.73352 19.3903 5.70644 19.0228 5.70644L4.79335 5.70644C4.42595 5.70644 4.07642 5.73351 3.74638 5.78715C3.85387 4.80443 4.52056 4.24765 5.59745 4.24765L18.2268 4.24765C19.3037 4.24765 19.9637 4.80444 20.07 5.78717Z" fill="white" fill-opacity="0.85"/>
  <path d="M3.48359 23.6568L20.3406 23.6568C21.516 23.6568 22.2682 22.9047 22.2682 21.7551L22.2682 9.20955C22.2682 8.05643 21.516 7.29628 20.3406 7.29628L3.48359 7.29628C2.30019 7.29628 1.54805 8.05643 1.54805 9.20955L1.54805 21.7551C1.54805 22.9047 2.30019 23.6568 3.48359 23.6568ZM3.46484 10.659C3.21347 10.659 3.04745 10.4867 3.04745 10.2656L3.04745 9.35838C3.04745 9.09549 3.22148 8.91522 3.48886 8.91522L4.51679 8.91522C4.75742 8.91522 4.91191 9.08748 4.91191 9.33436L4.91191 10.2656C4.91191 10.4867 4.75742 10.659 4.51679 10.659ZM3.46484 13.5328C3.21347 13.5328 3.04745 13.3508 3.04745 13.1439L3.04745 12.2127C3.04745 11.9836 3.21347 11.8015 3.46484 11.8015L4.51679 11.8015C4.75742 11.8015 4.91191 11.9836 4.91191 12.2127L4.91191 13.1439C4.91191 13.3508 4.75742 13.5328 4.51679 13.5328ZM3.46484 16.3551C3.21347 16.3551 3.04745 16.165 3.04745 15.9359L3.04745 15.0447C3.04745 14.7836 3.21347 14.6113 3.46484 14.6113L4.51679 14.6113C4.75742 14.6113 4.91191 14.7836 4.91191 15.0447L4.91191 15.9359C4.91191 16.165 4.75742 16.3551 4.51679 16.3551ZM3.46484 19.1596C3.21347 19.1596 3.04745 18.9775 3.04745 18.7662L3.04745 17.8492C3.04745 17.6023 3.21347 17.4398 3.46484 17.4398L4.51679 17.4398C4.75742 17.4398 4.91191 17.6023 4.91191 17.8492L4.91191 18.7662C4.91191 18.9775 4.75742 19.1596 4.51679 19.1596ZM3.48886 22.0379C3.22148 22.0379 3.04745 21.8594 3.04745 21.6027L3.04745 20.7035C3.04745 20.4584 3.21347 20.2959 3.46484 20.2959L4.51679 20.2959C4.75742 20.2959 4.91191 20.4584 4.91191 20.7035L4.91191 21.6348C4.91191 21.8674 4.75742 22.0379 4.51679 22.0379ZM19.2881 10.659C19.051 10.659 18.8867 10.4867 18.8867 10.2656L18.8867 9.33436C18.8867 9.08748 19.051 8.91522 19.2881 8.91522L20.308 8.91522C20.5789 8.91522 20.7512 9.09549 20.7512 9.35838L20.7512 10.2656C20.7512 10.4867 20.5869 10.659 20.332 10.659ZM19.2881 13.5328C19.051 13.5328 18.8867 13.3508 18.8867 13.1439L18.8867 12.2127C18.8867 11.9836 19.051 11.8015 19.2881 11.8015L20.332 11.8015C20.5869 11.8015 20.7512 11.9836 20.7512 12.2127L20.7512 13.1439C20.7512 13.3508 20.5869 13.5328 20.332 13.5328ZM19.2881 16.3551C19.051 16.3551 18.8867 16.165 18.8867 15.9359L18.8867 15.0447C18.8867 14.7836 19.051 14.6113 19.2881 14.6113L20.332 14.6113C20.5869 14.6113 20.7512 14.7836 20.7512 15.0447L20.7512 15.9359C20.7512 16.165 20.5869 16.3551 20.332 16.3551ZM19.2881 19.1596C19.051 19.1596 18.8867 18.9775 18.8867 18.7662L18.8867 17.8492C18.8867 17.6023 19.051 17.4398 19.2881 17.4398L20.332 17.4398C20.5869 17.4398 20.7512 17.6023 20.7512 17.8492L20.7512 18.7662C20.7512 18.9775 20.5869 19.1596 20.332 19.1596ZM19.2881 22.0379C19.051 22.0379 18.8867 21.8674 18.8867 21.6348L18.8867 20.7035C18.8867 20.4584 19.051 20.2959 19.2881 20.2959L20.332 20.2959C20.5869 20.2959 20.7512 20.4584 20.7512 20.7035L20.7512 21.6027C20.7512 21.8594 20.5789 22.0379 20.308 22.0379ZM5.97577 15.4765C5.97577 15.0633 6.30566 14.7334 6.71894 14.7334L17.1133 14.7334C17.5266 14.7334 17.8484 15.0633 17.8484 15.4765C17.8484 15.8818 17.5266 16.2197 17.1133 16.2197L6.71894 16.2197C6.30566 16.2197 5.97577 15.8818 5.97577 15.4765Z" fill="white" fill-opacity="0.85"/>
 </g>
</svg>
