<?xml version="1.0" encoding="UTF-8"?>
<!--Generator: Apple Native CoreSVG 341-->
<!DOCTYPE svg
PUBLIC "-//W3C//DTD SVG 1.1//EN"
       "http://www.w3.org/Graphics/SVG/1.1/DTD/svg11.dtd">
<svg version="1.1" xmlns="http://www.w3.org/2000/svg" xmlns:xlink="http://www.w3.org/1999/xlink" viewBox="0 0 20.5381 20.1848">
 <g>
  <rect height="20.1848" opacity="0" width="20.5381" x="0" y="0"/>
  <path d="M10.0875 20.175C15.6576 20.175 20.1767 15.6559 20.1767 10.0875C20.1767 4.51914 15.6576 0 10.0875 0C4.51914 0 0 4.51914 0 10.0875C0 15.6559 4.51914 20.175 10.0875 20.175ZM10.0875 18.1879C5.60839 18.1879 1.9871 14.5666 1.9871 10.0875C1.9871 5.60839 5.60839 1.9871 10.0875 1.9871C14.5666 1.9871 18.1897 5.60839 18.1897 10.0875C18.1897 14.5666 14.5666 18.1879 10.0875 18.1879Z" fill="white" fill-opacity="0.85"/>
  <path d="M5.57401 14.3832L14.6107 14.3832C15.1904 14.3832 15.5748 14.0103 15.5748 13.4422L15.5748 6.75683C15.5748 6.18066 15.1904 5.81406 14.6107 5.81406L5.57401 5.81406C4.98632 5.81406 4.60995 6.18066 4.60995 6.75683L4.60995 13.4422C4.60995 14.0103 4.98632 14.3832 5.57401 14.3832ZM5.67265 13.5789C5.48085 13.5789 5.37519 13.4537 5.37519 13.2752L5.37519 12.6518C5.37519 12.4777 5.48085 12.3686 5.66464 12.3686L6.38222 12.3686C6.54472 12.3686 6.65038 12.4777 6.65038 12.6518L6.65038 13.2912C6.65038 13.4537 6.54472 13.5789 6.38222 13.5789ZM5.66464 11.6166C5.48085 11.6166 5.37519 11.4932 5.37519 11.3449L5.37519 10.717C5.37519 10.535 5.48085 10.4293 5.66464 10.4293L6.38222 10.4293C6.54472 10.4293 6.65038 10.535 6.65038 10.717L6.65038 11.3449C6.65038 11.4932 6.54472 11.6166 6.38222 11.6166ZM5.66464 9.70312C5.48085 9.70312 5.37519 9.57968 5.37519 9.4332L5.37519 8.79374C5.37519 8.61796 5.48085 8.50605 5.66464 8.50605L6.38222 8.50605C6.54472 8.50605 6.65038 8.61796 6.65038 8.79374L6.65038 9.4332C6.65038 9.57968 6.54472 9.70312 6.38222 9.70312ZM5.66464 7.80117C5.48085 7.80117 5.37519 7.67597 5.37519 7.53124L5.37519 6.8998C5.37519 6.7373 5.48085 6.61034 5.66464 6.61034L6.38222 6.61034C6.54472 6.61034 6.65038 6.7373 6.65038 6.8998L6.65038 7.53124C6.65038 7.67597 6.54472 7.80117 6.38222 7.80117ZM13.7963 13.5789C13.64 13.5789 13.5326 13.4537 13.5326 13.2912L13.5326 12.6518C13.5326 12.4777 13.64 12.3686 13.7963 12.3686L14.5219 12.3686C14.7039 12.3686 14.8096 12.4777 14.8096 12.6518L14.8096 13.2752C14.8096 13.4537 14.7039 13.5789 14.5139 13.5789ZM13.7963 11.6166C13.64 11.6166 13.5326 11.4932 13.5326 11.3449L13.5326 10.717C13.5326 10.535 13.64 10.4293 13.7963 10.4293L14.5219 10.4293C14.7039 10.4293 14.8096 10.535 14.8096 10.717L14.8096 11.3449C14.8096 11.4932 14.7039 11.6166 14.5219 11.6166ZM13.7963 9.70312C13.64 9.70312 13.5326 9.57968 13.5326 9.4332L13.5326 8.79374C13.5326 8.61796 13.64 8.50605 13.7963 8.50605L14.5219 8.50605C14.7039 8.50605 14.8096 8.61796 14.8096 8.79374L14.8096 9.4332C14.8096 9.57968 14.7039 9.70312 14.5219 9.70312ZM13.7963 7.80117C13.64 7.80117 13.5326 7.67597 13.5326 7.53124L13.5326 6.8998C13.5326 6.7373 13.64 6.61034 13.7963 6.61034L14.5219 6.61034C14.7039 6.61034 14.8096 6.7373 14.8096 6.8998L14.8096 7.53124C14.8096 7.67597 14.7039 7.80117 14.5219 7.80117ZM7.81464 9.69511C7.63085 9.69511 7.5332 9.56992 7.5332 9.42519L7.5332 6.8998C7.5332 6.7373 7.63085 6.61034 7.81464 6.61034L12.3816 6.61034C12.5361 6.61034 12.6436 6.7373 12.6436 6.8998L12.6436 9.42519C12.6436 9.56992 12.5361 9.69511 12.3816 9.69511ZM7.81464 13.5789C7.63085 13.5789 7.5332 13.4537 7.5332 13.309L7.5332 10.7756C7.5332 10.6211 7.63085 10.4861 7.81464 10.4861L12.3816 10.4861C12.5361 10.4861 12.6436 10.6211 12.6436 10.7756L12.6436 13.309C12.6436 13.4537 12.5361 13.5789 12.3816 13.5789Z" fill="white" fill-opacity="0.85"/>
 </g>
</svg>
