<?xml version="1.0" encoding="UTF-8"?>
<!--Generator: Apple Native CoreSVG 341-->
<!DOCTYPE svg
PUBLIC "-//W3C//DTD SVG 1.1//EN"
       "http://www.w3.org/Graphics/SVG/1.1/DTD/svg11.dtd">
<svg version="1.1" xmlns="http://www.w3.org/2000/svg" xmlns:xlink="http://www.w3.org/1999/xlink" viewBox="0 0 23.5293 20.4312">
 <g>
  <rect height="20.4312" opacity="0" width="23.5293" x="0" y="0"/>
  <path d="M1.12832 5.77127L22.0396 5.77127C22.7076 5.77127 23.1679 5.31092 23.1679 4.63495L23.1679 1.11855C23.1679 0.456834 22.7076 0 22.0396 0L1.12832 0C0.458592 0 0 0.456834 0 1.11855L0 4.63495C0 5.31092 0.458592 5.77127 1.12832 5.77127ZM2.10214 3.91952C1.95741 3.91952 1.85175 3.81386 1.85175 3.66113L1.85175 2.1119C1.85175 1.95741 1.95741 1.85175 2.10214 1.85175L21.0658 1.85175C21.2105 1.85175 21.3162 1.95741 21.3162 2.1119L21.3162 3.66113C21.3162 3.81386 21.2105 3.91952 21.0658 3.91952ZM2.32695 19.4439L4.1787 19.4439L4.1787 4.8369L2.32695 4.8369ZM18.991 19.4439L20.8427 19.4439L20.8427 4.8369L18.991 4.8369ZM5.81073 19.4439L7.18006 19.4439L7.18006 9.07654C7.18006 8.77634 7.36209 8.59431 7.65604 8.59431L15.5137 8.59431C15.8058 8.59431 15.9879 8.77634 15.9879 9.07654L15.9879 19.4439L17.3572 19.4439L17.3572 8.60369C17.3572 7.75584 16.8263 7.23475 15.9883 7.23475L7.18143 7.23475C6.34159 7.23475 5.81073 7.75584 5.81073 8.60369ZM0.966205 20.4054L22.2035 20.4054C22.7281 20.4054 23.1632 19.9685 23.1632 19.4439C23.1632 18.9193 22.7281 18.4922 22.2035 18.4922L0.966205 18.4922C0.441599 18.4922 0.0046885 18.9193 0.0046885 19.4439C0.0046885 19.9685 0.441599 20.4054 0.966205 20.4054ZM11.44 17.7209C13.3365 17.7209 14.5742 16.4521 14.5742 14.5494C14.5742 11.3699 11.8697 10.0478 10.0096 10.0478C9.51775 10.0478 9.30916 10.331 9.56483 10.6763C10.0017 11.2269 10.4021 11.8344 10.3799 12.6982C10.1685 12.3049 9.79647 12.0349 9.48397 12.0349C9.33748 12.0349 9.25584 12.1228 9.25584 12.2631C9.25584 12.3492 9.25584 12.5295 9.25584 12.6644C9.25584 13.5488 8.66717 14.0158 8.66717 15.2926C8.66717 16.7611 9.77967 17.7209 11.44 17.7209ZM11.5394 16.7256C10.8806 16.7256 10.4332 16.3304 10.4332 15.7187C10.4332 15.099 10.8806 14.8744 10.9553 14.4287C11.1426 14.5556 11.2642 14.7359 11.3539 14.9818C11.5555 14.6941 11.6859 14.2013 11.567 13.5453C12.1389 13.7513 12.7984 14.4883 12.7984 15.3982C12.7984 16.1058 12.3918 16.7256 11.5394 16.7256Z" fill="white" fill-opacity="0.85"/>
 </g>
</svg>
