<?xml version="1.0" encoding="UTF-8"?>
<!--Generator: Apple Native CoreSVG 341-->
<!DOCTYPE svg
PUBLIC "-//W3C//DTD SVG 1.1//EN"
       "http://www.w3.org/Graphics/SVG/1.1/DTD/svg11.dtd">
<svg version="1.1" xmlns="http://www.w3.org/2000/svg" xmlns:xlink="http://www.w3.org/1999/xlink" viewBox="0 0 20.5381 20.1848">
 <g>
  <rect height="20.1848" opacity="0" width="20.5381" x="0" y="0"/>
  <path d="M10.0875 20.175C15.6576 20.175 20.1767 15.6559 20.1767 10.0875C20.1767 4.51914 15.6576 0 10.0875 0C4.51914 0 0 4.51914 0 10.0875C0 15.6559 4.51914 20.175 10.0875 20.175ZM10.0875 18.1879C5.60839 18.1879 1.9871 14.5666 1.9871 10.0875C1.9871 5.60839 5.60839 1.9871 10.0875 1.9871C14.5666 1.9871 18.1897 5.60839 18.1897 10.0875C18.1897 14.5666 14.5666 18.1879 10.0875 18.1879Z" fill="white" fill-opacity="0.85"/>
  <path d="M4.32148 12.5568C4.33476 12.7662 4.46776 12.8699 4.68065 12.8699C5.73026 12.8504 6.60663 12.3682 7.37382 11.4801C8.17577 12.2635 9.09414 12.7422 10.0631 12.965L9.91211 14.1916C9.87129 14.5367 10.0664 14.7371 10.4656 14.6795C11.5648 14.501 12.775 13.7197 13.4223 12.783C15.0072 12.293 16.4732 11.2914 16.4732 10.0795C16.4732 8.90585 15.1096 7.93632 13.5789 7.41601C13.0178 5.56816 10.5803 4.72187 8.85136 5.67909C8.64999 5.78378 8.62519 5.95937 8.78398 6.17675C9.16953 6.68398 9.30097 6.98066 9.38535 7.39199C8.64999 7.66464 7.97949 8.07851 7.37382 8.68867C6.60663 7.79882 5.73026 7.30058 4.68065 7.29706C4.46776 7.29531 4.33476 7.39902 4.32148 7.59413C4.22558 8.5123 4.6412 9.48554 5.28867 10.0795C4.6412 10.6654 4.23534 11.6484 4.32148 12.5568ZM14.1197 10.3982C13.8338 10.3982 13.6012 10.1736 13.6012 9.88593C13.6012 9.59648 13.8338 9.37363 14.1197 9.37363C14.4012 9.37363 14.6303 9.59648 14.6303 9.88593C14.6303 10.1736 14.4012 10.3982 14.1197 10.3982Z" fill="white" fill-opacity="0.85"/>
 </g>
</svg>
