<?xml version="1.0" encoding="UTF-8"?>
<!--Generator: Apple Native CoreSVG 341-->
<!DOCTYPE svg
PUBLIC "-//W3C//DTD SVG 1.1//EN"
       "http://www.w3.org/Graphics/SVG/1.1/DTD/svg11.dtd">
<svg version="1.1" xmlns="http://www.w3.org/2000/svg" xmlns:xlink="http://www.w3.org/1999/xlink" viewBox="0 0 28.7095 22.5421">
 <g>
  <rect height="22.5421" opacity="0" width="28.7095" x="0" y="0"/>
  <path d="M11.7248 6.08983L13.3585 5.77323C13.1953 4.70916 12.9554 3.83944 12.2468 2.74569C12.1642 2.61776 12.182 2.49159 12.2992 2.45428C15.3747 1.46717 19.3005 2.99842 20.0826 6.20955L21.7724 5.98104C20.7829 1.31933 14.7292-0.898247 10.5455 1.41464C9.99741 1.70995 9.87691 2.30663 10.3248 2.89549C11.3339 4.22772 11.5207 4.86014 11.7248 6.08983ZM16.505 18.9515C21.138 18.9515 28.3488 15.9029 28.3488 11.7152C28.3488 7.53553 21.138 4.48866 16.505 4.48866C13.2775 4.48866 9.9685 5.60448 7.27202 8.17714C5.51812 6.22851 3.46695 5.13573 1.08726 5.09491C0.530429 5.08515 0.0782829 5.45038 0.028674 6.02049C-0.176404 8.0869 0.738049 10.3246 2.14781 11.7152C0.738049 13.1138-0.176404 15.3578 0.028674 17.4179C0.0782829 17.9881 0.530429 18.3533 1.08726 18.3418C3.46695 18.3027 5.51812 17.2117 7.27202 15.2693C9.9685 17.8357 13.2775 18.9515 16.505 18.9515ZM16.505 17.1086C13.3386 17.1086 10.331 15.998 7.85171 13.2303C7.47319 12.8039 6.93433 12.8154 6.55757 13.2746C5.12476 15.0474 3.78374 16.0519 2.14956 16.3748C1.99409 16.4058 1.87144 16.2832 1.89897 16.1197C2.07554 14.6912 2.95288 13.3131 4.06714 12.4244C4.66108 11.9191 4.64448 11.4947 4.05913 11.0043C2.98101 10.1385 2.10542 8.80701 1.89897 7.31873C1.86792 7.16326 1.99409 7.03084 2.14956 7.06189C3.80835 7.39353 5.15816 8.43142 6.55757 10.1638C6.93257 10.631 7.47319 10.6408 7.8437 10.2179C10.331 7.44217 13.3386 6.32986 16.505 6.32986C20.7144 6.32986 26.5386 9.06306 26.5386 11.7152C26.5386 14.3771 20.7144 17.1086 16.505 17.1086ZM22.7031 12.332C23.287 12.332 23.7716 11.8474 23.7716 11.2697C23.7716 10.6937 23.287 10.2092 22.7031 10.2092C22.1253 10.2092 21.6408 10.6937 21.6408 11.2697C21.6408 11.8474 22.1253 12.332 22.7031 12.332ZM13.2689 17.5957L12.8376 21.1256C12.7259 22.0443 13.3289 22.6888 14.4001 22.5132C17.0345 22.1033 20.0529 20.0808 21.4796 17.8078L19.1585 18.0871C17.9246 19.1392 16.6298 20.1025 15.0785 20.556C14.8892 20.6031 14.763 20.5623 14.7888 20.317L15.0329 17.8519Z" fill="white" fill-opacity="0.85"/>
 </g>
</svg>
