<?xml version="1.0" encoding="UTF-8"?>
<!--Generator: Apple Native CoreSVG 341-->
<!DOCTYPE svg
PUBLIC "-//W3C//DTD SVG 1.1//EN"
       "http://www.w3.org/Graphics/SVG/1.1/DTD/svg11.dtd">
<svg version="1.1" xmlns="http://www.w3.org/2000/svg" xmlns:xlink="http://www.w3.org/1999/xlink" viewBox="0 0 20.5381 20.1848">
 <g>
  <rect height="20.1848" opacity="0" width="20.5381" x="0" y="0"/>
  <path d="M20.1767 10.0973C20.1767 15.6656 15.6576 20.1848 10.0875 20.1848C4.52715 20.1848 0 15.6656 0 10.0973C0 4.53691 4.52715 0.00976562 10.0875 0.00976562C15.6576 0.00976562 20.1767 4.53691 20.1767 10.0973ZM6.4287 5.59511C5.99746 5.79297 5.77207 6.1248 5.77207 6.58613L5.77207 14.9578C5.77207 15.2469 6.0248 15.4881 6.31034 15.4881C6.61718 15.4881 6.82108 15.2566 6.82108 14.9578L6.82108 12.0664C7.02167 11.9918 7.3912 11.8887 7.95468 11.8887C9.71015 11.8887 10.8359 12.7605 12.5707 12.7605C13.3352 12.7605 13.6564 12.6824 14.0514 12.5111C14.4941 12.3008 14.7 11.9814 14.7 11.4943L14.7 6.58535C14.7 6.24218 14.5103 6.00801 14.0703 6.00801C13.7668 6.00801 13.3326 6.22285 12.5236 6.22285C10.8516 6.22285 9.71601 5.3332 7.90761 5.3332C7.12714 5.3332 6.80585 5.41582 6.4287 5.59511ZM10.2455 6.76972L10.2455 8.20331C10.8309 8.38183 11.4291 8.54257 12.052 8.59316L12.052 7.16483C12.2133 7.18612 12.3889 7.1914 12.5662 7.1914C13.0471 7.1914 13.4461 7.13358 13.766 7.04647L13.766 8.48456C13.5182 8.54765 13.0853 8.62148 12.5662 8.62148C12.4055 8.62148 12.2281 8.61347 12.052 8.59316L12.052 10.193C12.2316 10.2115 12.4203 10.2195 12.5978 10.2195C13.0769 10.2195 13.4549 10.168 13.766 10.0809L13.766 11.4514C13.6756 11.6096 13.3006 11.807 12.624 11.807C12.4129 11.807 12.223 11.7902 12.052 11.7494L12.052 10.193C11.4027 10.1193 10.8504 9.99062 10.2455 9.78984L10.2455 11.3188C9.68339 11.15 9.09726 10.991 8.44355 10.9289L8.44355 9.36718C8.26777 9.3459 8.10468 9.33086 7.84472 9.33086C7.16991 9.33086 6.79491 9.51406 6.70272 9.66875L6.70272 8.07597C6.79491 7.92753 7.16991 7.72656 7.84472 7.72656C8.00195 7.72656 8.24843 7.73632 8.44355 7.77714L8.44355 6.3328C9.07773 6.40468 9.65234 6.58495 10.2455 6.76972ZM8.44355 9.36718C9.10253 9.44257 9.60253 9.60332 10.2455 9.78984L10.2455 8.20331C9.6416 8.02128 9.10253 7.84628 8.44355 7.77714Z" fill="white" fill-opacity="0.85"/>
 </g>
</svg>
