<?xml version="1.0" encoding="UTF-8"?>
<!--Generator: Apple Native CoreSVG 341-->
<!DOCTYPE svg
PUBLIC "-//W3C//DTD SVG 1.1//EN"
       "http://www.w3.org/Graphics/SVG/1.1/DTD/svg11.dtd">
<svg version="1.1" xmlns="http://www.w3.org/2000/svg" xmlns:xlink="http://www.w3.org/1999/xlink" viewBox="0 0 18.207 19.3562">
 <g>
  <rect height="19.3562" opacity="0" width="18.207" x="0" y="0"/>
  <path d="M1.53163 19.3562C2.02792 19.3562 2.43378 18.9619 2.43378 18.4621L2.43378 13.1168C2.69549 13.0164 3.52909 12.7176 4.79238 12.7176C8.3459 12.7176 10.7187 14.4939 14.1615 14.4939C15.6656 14.4939 16.341 14.3068 17.0955 13.9625C17.7922 13.6439 18.207 13.0834 18.207 12.1744L18.207 2.43105C18.207 1.79824 17.7156 1.40586 17.0596 1.40586C16.5125 1.40586 15.6352 1.78262 14.0557 1.78262C10.6551 1.78262 8.24805 0.00625014 4.68652 0.00625014C3.20351 0.00625014 2.53945 0.186328 1.75332 0.54121C1.06016 0.856248 0.633008 1.3623 0.633008 2.24922L0.633008 18.4621C0.633008 18.9521 1.04511 19.3562 1.53163 19.3562ZM2.47245 8.46758L2.47245 5.32754C2.64432 5.04042 3.37753 4.65448 4.71464 4.65448C5.0166 4.65448 5.50781 4.67929 5.88827 4.73066L5.88827 1.89276C7.14863 2.03651 8.28261 2.40331 9.44589 2.74608L9.44589 5.58222C10.6076 5.94452 11.7721 6.25175 12.9955 6.3707L12.9955 3.5328C13.3307 3.57089 13.6693 3.58768 14.0223 3.58768C14.976 3.58768 15.7758 3.48182 16.3756 3.31561L16.3756 6.14999C15.9102 6.27968 15.0623 6.42558 14.0223 6.42558C13.7248 6.42558 13.3701 6.40956 12.9955 6.3707L12.9955 9.50898C13.3807 9.55586 13.7367 9.56387 14.0855 9.56387C15.0375 9.56387 15.7916 9.45449 16.3756 9.29004L16.3756 12.0105C16.2107 12.2977 15.4688 12.6766 14.1281 12.6766C13.7449 12.6766 13.368 12.65 12.9955 12.5986L12.9955 9.50898C11.7193 9.35547 10.6467 9.11133 9.44589 8.72051L9.44589 11.7275C8.33945 11.3963 7.19921 11.0748 5.88827 10.9523L5.88827 7.8707C5.52069 7.82637 5.21406 7.79453 4.71464 7.79453C3.37753 7.79453 2.64432 8.18047 2.47245 8.46758ZM5.88827 7.8707C7.19199 8.02597 8.18925 8.35371 9.44589 8.72051L9.44589 5.58222C8.26386 5.23319 7.19999 4.88144 5.88827 4.73066Z" fill="white" fill-opacity="0.85"/>
 </g>
</svg>
