<?xml version="1.0" encoding="UTF-8"?>
<!--Generator: Apple Native CoreSVG 341-->
<!DOCTYPE svg
PUBLIC "-//W3C//DTD SVG 1.1//EN"
       "http://www.w3.org/Graphics/SVG/1.1/DTD/svg11.dtd">
<svg version="1.1" xmlns="http://www.w3.org/2000/svg" xmlns:xlink="http://www.w3.org/1999/xlink" viewBox="0 0 18.207 19.3562">
 <g>
  <rect height="19.3562" opacity="0" width="18.207" x="0" y="0"/>
  <path d="M1.53163 19.3562C2.02792 19.3562 2.43378 18.9619 2.43378 18.4621L2.43378 13.1168C2.69549 13.0164 3.52909 12.7176 4.79238 12.7176C8.3459 12.7176 10.7187 14.4939 14.1615 14.4939C15.6656 14.4939 16.341 14.3068 17.0955 13.9625C17.7922 13.6439 18.207 13.0834 18.207 12.1744L18.207 2.43105C18.207 1.79824 17.7156 1.40586 17.0596 1.40586C16.5125 1.40586 15.6352 1.78262 14.0557 1.78262C10.6551 1.78262 8.24805 0.00625014 4.68652 0.00625014C3.20351 0.00625014 2.53945 0.186328 1.75332 0.54121C1.06016 0.856248 0.633008 1.3623 0.633008 2.24922L0.633008 18.4621C0.633008 18.9521 1.04511 19.3562 1.53163 19.3562ZM14.1281 12.6766C10.9518 12.6766 8.51523 10.9072 4.8205 10.9072C3.85702 10.9072 2.98417 11.0166 2.47245 11.2166L2.47245 2.48964C2.64432 2.20253 3.37753 1.81659 4.71464 1.81659C8.05723 1.81659 10.4857 3.58768 14.0223 3.58768C14.976 3.58768 15.7758 3.48182 16.3756 3.31561L16.3756 12.0105C16.2107 12.2977 15.4688 12.6766 14.1281 12.6766Z" fill="white" fill-opacity="0.85"/>
 </g>
</svg>
