<?xml version="1.0" encoding="UTF-8"?>
<!--Generator: Apple Native CoreSVG 341-->
<!DOCTYPE svg
PUBLIC "-//W3C//DTD SVG 1.1//EN"
       "http://www.w3.org/Graphics/SVG/1.1/DTD/svg11.dtd">
<svg version="1.1" xmlns="http://www.w3.org/2000/svg" xmlns:xlink="http://www.w3.org/1999/xlink" viewBox="0 0 18.6648 25.0313">
 <g>
  <rect height="25.0313" opacity="0" width="18.6648" x="0" y="0"/>
  <path d="M15.341 25.0313C16.5851 25.0313 17.607 24.4016 18.0668 23.5127C18.2148 23.2527 18.3035 22.984 18.3035 22.6922C18.3035 22.225 17.9924 21.9553 17.5045 21.9553C17.1363 21.9553 16.8961 22.1719 16.8004 22.5467C16.5809 23.2789 16.0307 23.7205 15.2904 23.7205C13.9039 23.7205 13.5842 22.1117 13.5842 20.7725C13.5842 19.3371 13.9519 17.8502 15.2904 17.8502C16.0164 17.8502 16.509 18.259 16.7853 19.0418C16.9228 19.4471 17.132 19.6359 17.5133 19.6359C18.0004 19.6359 18.2637 19.3512 18.2637 18.9443C18.2637 18.5779 18.1412 18.2363 17.9709 17.9523C17.4703 17.0492 16.3949 16.5377 15.2709 16.5377C12.9387 16.5377 11.8885 18.3525 11.8885 20.7805C11.8885 23.2236 12.9371 25.0313 15.341 25.0313ZM7.87362 17.4494C7.87362 16.8953 7.53671 16.5689 7.04882 16.5689C6.55116 16.5689 6.22499 16.8883 6.22499 17.4494L6.22499 24.0566C6.22499 24.6178 6.55917 24.9371 7.04882 24.9371L10.3736 24.9371C10.8676 24.9371 11.1646 24.6621 11.1646 24.1975C11.1646 23.7328 10.8641 23.4641 10.3736 23.4641L7.87362 23.4641Z" fill="white" fill-opacity="0.85"/>
  <path d="M0.898626 19.4195C1.39491 19.4195 1.79276 19.027 1.79276 18.5272L1.79276 13.1818C2.06424 13.0814 2.89608 12.7826 4.15136 12.7826C7.71289 12.7826 10.0857 14.559 13.5205 14.559C15.0326 14.559 15.708 14.3701 16.4625 14.0275C17.1592 13.709 17.574 13.1467 17.574 12.2475L17.574 2.49609C17.574 1.86328 17.0826 1.46914 16.4266 1.46914C15.8715 1.46914 14.9941 1.84766 13.4227 1.84766C10.0221 1.84766 7.60703 0.0712937 4.05351 0.0712937C2.56249 0.0712937 1.90644 0.249614 1.12031 0.606253C0.427149 0.921292 0 1.42559 0 2.31426L0 18.5272C0 19.0154 0.412107 19.4195 0.898626 19.4195ZM1.83143 8.53087L1.83143 5.39258C2.0033 5.10547 2.74452 4.71953 4.08164 4.71953C4.38359 4.71953 4.86679 4.74433 5.25526 4.7957L5.25526 1.9578C6.50937 2.09979 7.6496 2.46835 8.80488 2.81112L8.80488 5.64726C9.9666 6.00957 11.1391 6.31504 12.3625 6.43398L12.3625 3.59609C12.6896 3.63593 13.0363 3.65273 13.3893 3.65273C14.343 3.65273 15.1428 3.54511 15.7426 3.3789L15.7426 6.21503C15.2772 6.34296 14.4213 6.48886 13.3893 6.48886C13.0918 6.48886 12.7371 6.47285 12.3625 6.43398L12.3625 9.58204C12.7477 9.6209 13.0957 9.62891 13.4525 9.62891C14.4045 9.62891 15.1586 9.51778 15.7426 9.35332L15.7426 12.0738C15.5777 12.3609 14.8357 12.7416 13.4871 12.7416C13.1039 12.7416 12.735 12.7151 12.3625 12.6637L12.3625 9.58204C11.0863 9.42051 10.0137 9.17461 8.80488 8.78555L8.80488 11.7908C7.70644 11.4613 6.5582 11.1381 5.25526 11.0236L5.25526 7.93399C4.87968 7.89942 4.58105 7.85782 4.08164 7.85782C2.74452 7.85782 2.0033 8.24376 1.83143 8.53087ZM5.25526 7.93399C6.55898 8.09727 7.55624 8.41875 8.80488 8.78555L8.80488 5.64726C7.62285 5.29824 6.56699 4.94648 5.25526 4.7957Z" fill="white" fill-opacity="0.85"/>
 </g>
</svg>
