<?xml version="1.0" encoding="UTF-8"?>
<!--Generator: Apple Native CoreSVG 341-->
<!DOCTYPE svg
PUBLIC "-//W3C//DTD SVG 1.1//EN"
       "http://www.w3.org/Graphics/SVG/1.1/DTD/svg11.dtd">
<svg version="1.1" xmlns="http://www.w3.org/2000/svg" xmlns:xlink="http://www.w3.org/1999/xlink" viewBox="0 0 21.6357 25.4323">
 <g>
  <rect height="25.4323" opacity="0" width="21.6357" x="0" y="0"/>
  <path d="M15.3764 17.5162C12.1964 17.3612 9.88514 15.7556 6.50672 15.7556C5.24343 15.7556 4.40984 16.0544 4.14812 16.1548L4.14812 21.5001C4.14812 21.9999 3.74226 22.3943 3.24598 22.3943C2.75946 22.3943 2.34735 21.9902 2.34735 21.5001L2.34735 5.28725C2.34735 5.03166 2.38282 4.8077 2.45098 4.61173ZM15.77 4.82065C17.3495 4.82065 18.2268 4.44389 18.7739 4.44389C19.43 4.44389 19.9214 4.83627 19.9214 5.46908L19.9214 15.2124C19.9214 15.6169 19.8392 15.9524 19.6862 16.2279L6.49936 3.04729C10.0077 3.07753 12.4014 4.82065 15.77 4.82065Z" fill="white" fill-opacity="0.85"/>
  <path d="M19.1071 19.5529C19.4204 19.8581 19.9182 19.8529 20.2067 19.5529C20.512 19.2396 20.5165 18.7533 20.2067 18.4533L3.18055 1.4271C2.87528 1.12358 2.37118 1.1271 2.06942 1.4271C1.77743 1.72085 1.78094 2.23471 2.06942 2.5267Z" fill="white" fill-opacity="0.85"/>
 </g>
</svg>
