<?xml version="1.0" encoding="UTF-8"?>
<!--Generator: Apple Native CoreSVG 341-->
<!DOCTYPE svg
PUBLIC "-//W3C//DTD SVG 1.1//EN"
       "http://www.w3.org/Graphics/SVG/1.1/DTD/svg11.dtd">
<svg version="1.1" xmlns="http://www.w3.org/2000/svg" xmlns:xlink="http://www.w3.org/1999/xlink" viewBox="0 0 20.5381 20.1848">
 <g>
  <rect height="20.1848" opacity="0" width="20.5381" x="0" y="0"/>
  <path d="M20.1767 10.0973C20.1767 15.6656 15.6576 20.1848 10.0875 20.1848C4.52715 20.1848 0 15.6656 0 10.0973C0 4.53691 4.52715 0.00976562 10.0875 0.00976562C15.6576 0.00976562 20.1767 4.53691 20.1767 10.0973ZM7.02832 5.07538C7.02832 5.22616 7.09394 5.38671 7.20839 5.52069C7.82558 6.26933 8.43867 7.11874 8.4748 8.10508C8.48007 8.23652 8.46757 8.35195 8.43906 8.4789C8.12226 7.84961 7.59628 7.48867 7.13613 7.48867C6.88515 7.48867 6.7246 7.66523 6.7246 7.93925C6.7246 8.09531 6.76191 8.39394 6.76191 8.66543C6.76191 9.88789 5.8332 10.535 5.8332 12.4961C5.8332 14.7369 7.53242 16.2213 10.1098 16.2213C12.9951 16.2213 14.9119 14.2689 14.9119 11.3551C14.9119 6.50722 10.7719 4.48203 7.91816 4.48203C7.37871 4.48203 7.02832 4.68867 7.02832 5.07538ZM10.3539 9.85469C11.5262 10.385 12.1299 11.5404 12.1299 12.6004C12.1299 13.6783 11.4996 14.5879 10.25 14.5879C9.24921 14.5879 8.57167 13.9805 8.57167 13.0889C8.57167 12.1537 9.23867 11.8383 9.33281 11.21C9.33281 11.1328 9.38945 11.101 9.44257 11.1621C9.68242 11.3637 9.82363 11.6381 9.96933 11.9639C10.25 11.5521 10.3488 10.7686 10.2574 9.95215C10.2424 9.85996 10.2893 9.82988 10.3539 9.85469Z" fill="white" fill-opacity="0.85"/>
 </g>
</svg>
