<?xml version="1.0" encoding="UTF-8"?>
<!--Generator: Apple Native CoreSVG 341-->
<!DOCTYPE svg
PUBLIC "-//W3C//DTD SVG 1.1//EN"
       "http://www.w3.org/Graphics/SVG/1.1/DTD/svg11.dtd">
<svg version="1.1" xmlns="http://www.w3.org/2000/svg" xmlns:xlink="http://www.w3.org/1999/xlink" viewBox="0 0 19.4445 20.9515">
 <g>
  <rect height="20.9515" opacity="0" width="19.4445" x="0" y="0"/>
  <path d="M14.3482 0.930073C14.3482 1.44784 13.9502 1.87792 13.4004 1.87792L13.3928 1.87792L13.3928 9.01328L18.4064 16.382C18.8619 17.0549 19.0832 17.6943 19.0832 18.1959C19.0832 19.7199 18.0316 20.925 16.3398 20.925L2.74336 20.925C1.0498 20.925 0 19.7199 0 18.1959C0 17.6943 0.189258 17.0949 0.60293 16.4896L5.69043 9.01328L5.69043 1.87792L5.6748 1.87792C5.12324 1.87792 4.73496 1.44784 4.73496 0.930073C4.73496 0.410545 5.12148 0 5.6748 0L13.4004 0C13.9537 0 14.3482 0.410545 14.3482 0.930073ZM7.49198 8.75468L7.49198 9.96054L9.26679 9.96054C9.60839 9.96054 9.86659 9.70058 9.86659 9.35097C9.86659 9.0289 9.60038 8.75468 9.26679 8.75468ZM7.49198 6.01718L7.49198 7.22304L9.26679 7.22304C9.60839 7.22304 9.86659 6.95507 9.86659 6.60546C9.86659 6.28339 9.59237 6.01718 9.25878 6.01718ZM7.49198 3.27167L7.49198 4.47753L9.25878 4.47753C9.60038 4.47753 9.85858 4.21757 9.85858 3.86796C9.85858 3.54589 9.58436 3.27167 9.25077 3.27167Z" fill="white" fill-opacity="0.85"/>
 </g>
</svg>
