<?xml version="1.0" encoding="UTF-8"?>
<!--Generator: Apple Native CoreSVG 341-->
<!DOCTYPE svg
PUBLIC "-//W3C//DTD SVG 1.1//EN"
       "http://www.w3.org/Graphics/SVG/1.1/DTD/svg11.dtd">
<svg version="1.1" xmlns="http://www.w3.org/2000/svg" xmlns:xlink="http://www.w3.org/1999/xlink" viewBox="0 0 20.5381 20.1848">
 <g>
  <rect height="20.1848" opacity="0" width="20.5381" x="0" y="0"/>
  <path d="M10.0875 20.175C15.6576 20.175 20.1767 15.6559 20.1767 10.0875C20.1767 4.51914 15.6576 0 10.0875 0C4.51914 0 0 4.51914 0 10.0875C0 15.6559 4.51914 20.175 10.0875 20.175ZM10.0875 18.1879C5.60839 18.1879 1.9871 14.5666 1.9871 10.0875C1.9871 5.60839 5.60839 1.9871 10.0875 1.9871C14.5666 1.9871 18.1897 5.60839 18.1897 10.0875C18.1897 14.5666 14.5666 18.1879 10.0875 18.1879Z" fill="white" fill-opacity="0.85"/>
  <path d="M7.49941 5.12128L12.6791 5.12128L12.6791 4.95507C12.6791 4.25292 12.3285 3.89433 11.6334 3.89433L8.5371 3.89433C7.84824 3.89433 7.49941 4.25292 7.49941 4.95507ZM9.59199 16.2771L10.5785 16.2771C11.2514 16.2771 11.618 15.9123 11.618 15.2199L11.618 9.17656C11.618 8.59843 11.7396 8.21386 11.9475 7.89238L12.2432 7.43066C12.5033 7.02929 12.6791 6.66972 12.6791 6.20273L12.6791 5.74862L7.49941 5.74862L7.49941 6.20273C7.49941 6.66972 7.67519 7.02929 7.93535 7.43066L8.23105 7.89238C8.43886 8.21386 8.56855 8.59843 8.56855 9.17656L8.56855 15.2199C8.56855 15.9123 8.92714 16.2771 9.59199 16.2771ZM9.15351 9.65351C9.15351 9.12968 9.56367 8.71953 10.091 8.71953C10.6148 8.71953 11.025 9.12968 11.025 9.65351L11.025 11.2656C11.025 11.7832 10.6148 12.1996 10.091 12.1996C9.56367 12.1996 9.15351 11.7832 9.15351 11.2656ZM10.091 11.8631C10.4471 11.8631 10.6867 11.5977 10.6867 11.2656C10.6867 10.9318 10.431 10.6602 10.091 10.6602C9.75546 10.6602 9.49179 10.9318 9.49179 11.2656C9.49179 11.5977 9.74746 11.8631 10.091 11.8631Z" fill="white" fill-opacity="0.85"/>
 </g>
</svg>
