<?xml version="1.0" encoding="UTF-8"?>
<!--Generator: Apple Native CoreSVG 341-->
<!DOCTYPE svg
PUBLIC "-//W3C//DTD SVG 1.1//EN"
       "http://www.w3.org/Graphics/SVG/1.1/DTD/svg11.dtd">
<svg version="1.1" xmlns="http://www.w3.org/2000/svg" xmlns:xlink="http://www.w3.org/1999/xlink" viewBox="0 0 20.5381 20.1848">
 <g>
  <rect height="20.1848" opacity="0" width="20.5381" x="0" y="0"/>
  <path d="M20.1767 10.0973C20.1767 15.6656 15.6576 20.1848 10.0875 20.1848C4.52715 20.1848 0 15.6656 0 10.0973C0 4.53691 4.52715 0.00976562 10.0875 0.00976562C15.6576 0.00976562 20.1767 4.53691 20.1767 10.0973ZM7.38261 5.56718L7.38261 6.03456C7.38261 6.53437 7.56191 6.90273 7.83359 7.31913L8.14433 7.80742C8.36191 8.13867 8.49511 8.53828 8.49511 9.14296L8.49511 15.4643C8.49511 16.1885 8.86875 16.5701 9.56718 16.5701L10.6033 16.5701C11.3098 16.5701 11.6914 16.1885 11.6914 15.4643L11.6914 9.14296C11.6914 8.53828 11.8148 8.13867 12.0342 7.80742L12.3449 7.31913C12.6166 6.90273 12.7959 6.53437 12.7959 6.03456L12.7959 5.56718ZM11.0684 9.64648L11.0684 11.3338C11.0684 11.8842 10.6414 12.3111 10.091 12.3111C9.5371 12.3111 9.11015 11.8842 9.11015 11.3338L9.11015 9.64648C9.11015 9.1166 9.5371 8.66738 10.091 8.66738C10.6414 8.66738 11.0684 9.1166 11.0684 9.64648ZM9.46347 9.64648C9.46347 10.0033 9.74042 10.2785 10.091 10.2785C10.4461 10.2785 10.715 10.0033 10.715 9.64648C10.715 9.29941 10.4621 9.01894 10.091 9.01894C9.73242 9.01894 9.46347 9.29941 9.46347 9.64648ZM8.46718 3.62265C7.74824 3.62265 7.38261 3.99628 7.38261 4.73027L7.38261 4.90624L12.7959 4.90624L12.7959 4.73027C12.7959 3.99628 12.4303 3.62265 11.7033 3.62265Z" fill="white" fill-opacity="0.85"/>
 </g>
</svg>
