<?xml version="1.0" encoding="UTF-8"?>
<!--Generator: Apple Native CoreSVG 341-->
<!DOCTYPE svg
PUBLIC "-//W3C//DTD SVG 1.1//EN"
       "http://www.w3.org/Graphics/SVG/1.1/DTD/svg11.dtd">
<svg version="1.1" xmlns="http://www.w3.org/2000/svg" xmlns:xlink="http://www.w3.org/1999/xlink" viewBox="0 0 19.4445 20.9515">
 <g>
  <rect height="20.9515" opacity="0" width="19.4445" x="0" y="0"/>
  <path d="M2.74336 20.925L16.3398 20.925C18.0316 20.925 19.0832 19.7199 19.0832 18.1959C19.0832 17.6943 18.8601 17.0549 18.4293 16.4172L13.0635 8.41719L11.6447 9.48144L17.0256 17.4762C17.182 17.7135 17.1918 17.9338 17.1918 18.1C17.1918 18.6535 16.7982 19.1475 16.1736 19.1475L2.90956 19.1475C2.27518 19.1475 1.89139 18.6535 1.89139 18.1C1.89139 17.9338 1.90116 17.7135 2.05761 17.4762L7.43046 9.48144L6.01973 8.41719L0.58008 16.5168C0.191016 17.0869 0 17.6943 0 18.1959C0 19.7199 1.0498 20.925 2.74336 20.925ZM5.62891 9.48144L7.43046 9.48144L7.43046 0.920504L5.62891 0.920504ZM13.4543 9.48144L13.4543 0.920504L11.6447 0.920504L11.6447 9.48144ZM5.6748 1.87792L13.4004 1.87792C13.9502 1.87792 14.3482 1.44784 14.3482 0.930073C14.3482 0.410545 13.9537 0 13.4004 0L5.6748 0C5.12148 0 4.73496 0.410545 4.73496 0.930073C4.73496 1.44784 5.12324 1.87792 5.6748 1.87792ZM6.53281 4.47753L9.19726 4.47753C9.53886 4.47753 9.79706 4.21757 9.79706 3.86796C9.79706 3.54589 9.52284 3.27167 9.18925 3.27167L6.53281 3.27167ZM6.54257 7.22304L9.20527 7.22304C9.54687 7.22304 9.80507 6.95507 9.80507 6.60546C9.80507 6.28339 9.53085 6.01718 9.19726 6.01718L6.54257 6.01718ZM6.54257 9.96054L9.20527 9.96054C9.54687 9.96054 9.80507 9.70058 9.80507 9.35097C9.80507 9.0289 9.53886 8.75468 9.20527 8.75468L6.54257 8.75468Z" fill="white" fill-opacity="0.85"/>
 </g>
</svg>
