<?xml version="1.0" encoding="UTF-8"?>
<!--Generator: Apple Native CoreSVG 341-->
<!DOCTYPE svg
PUBLIC "-//W3C//DTD SVG 1.1//EN"
       "http://www.w3.org/Graphics/SVG/1.1/DTD/svg11.dtd">
<svg version="1.1" xmlns="http://www.w3.org/2000/svg" xmlns:xlink="http://www.w3.org/1999/xlink" viewBox="0 0 22.7515 21.4965">
 <g>
  <rect height="21.4965" opacity="0" width="22.7515" x="0" y="0"/>
  <path d="M1.44999 18.9656L20.9947 18.9656L20.9947 18.2322C20.9947 17.8064 20.7437 17.551 20.3117 17.551L19.7447 17.551L19.7447 6.98046L20.5865 6.98046C21.1851 6.98046 21.5363 6.53886 21.5363 6.09277C21.5363 5.7664 21.351 5.47734 20.9545 5.24941L12.481 0.359374C12.0764 0.125976 11.6398 0 11.2183 0C10.7969 0 10.3523 0.125976 9.96366 0.359374L1.49023 5.24941C1.08574 5.47734 0.908396 5.7664 0.908396 6.09277C0.908396 6.53886 1.25957 6.98046 1.85995 6.98046L2.69999 6.98046L2.69999 17.551L2.14101 17.551C1.70898 17.551 1.44999 17.8064 1.44999 18.2322ZM4.32401 17.551L4.32401 5.67245L10.8779 1.99999C10.9846 1.93866 11.1072 1.90487 11.2183 1.90487C11.333 1.90487 11.4521 1.93866 11.5668 1.99999L18.1207 5.67245L18.1207 17.551ZM0.881441 21.4867L21.499 21.4867C21.9797 21.4867 22.3902 21.0849 22.3902 20.5972C22.3902 20.1148 21.9797 19.7158 21.499 19.7158L0.881441 19.7158C0.399022 19.7158 0 20.1148 0 20.5972C0 21.0832 0.399022 21.4867 0.881441 21.4867Z" fill="white" fill-opacity="0.85"/>
  <path d="M8.88065 14.9236C10.4631 14.9236 11.2527 14.1502 11.4994 12.6033L11.8041 10.8133L13.8211 10.8133C14.081 10.8133 14.2674 10.6482 14.2674 10.4096C14.2674 10.1611 14.081 9.98807 13.8211 9.98807L11.9381 9.98807L12.1629 8.65877C12.3121 7.77947 12.7597 7.34783 13.6426 7.34783C14.0215 7.34783 14.2734 7.40662 14.4928 7.38201C14.7646 7.36092 14.9006 7.20741 14.9006 6.9535C14.9006 6.70057 14.7185 6.52225 14.4806 6.42206C14.2082 6.29256 13.7973 6.25096 13.4992 6.25096C11.9586 6.25096 11.0934 7.00663 10.8467 8.53924L10.5971 9.98807L8.71405 9.98807C8.45409 9.98807 8.27577 10.1611 8.27577 10.4096C8.27577 10.6482 8.45409 10.8133 8.71405 10.8133L10.4631 10.8133L10.1912 12.4402C10.042 13.3435 9.64862 13.817 8.72753 13.817C8.34921 13.817 8.21444 13.7707 7.89276 13.7777C7.63104 13.7918 7.46952 13.9701 7.46952 14.2193C7.46952 14.4767 7.62225 14.6355 7.86464 14.7517C8.15487 14.89 8.54628 14.9236 8.88065 14.9236Z" fill="white" fill-opacity="0.85"/>
 </g>
</svg>
