<?xml version="1.0" encoding="UTF-8"?>
<!--Generator: Apple Native CoreSVG 341-->
<!DOCTYPE svg
PUBLIC "-//W3C//DTD SVG 1.1//EN"
       "http://www.w3.org/Graphics/SVG/1.1/DTD/svg11.dtd">
<svg version="1.1" xmlns="http://www.w3.org/2000/svg" xmlns:xlink="http://www.w3.org/1999/xlink" viewBox="0 0 24.2049 19.7961">
 <g>
  <rect height="19.7961" opacity="0" width="24.2049" x="0" y="0"/>
  <path d="M23.8435 11.8701C23.8435 5.64747 19.073 0.538875 12.9941 0.00293831C12.6553-0.029874 12.3998 0.215828 12.3998 0.554694L12.3998 3.8043C12.3998 4.08907 12.6012 4.30645 12.8842 4.33301C16.6191 4.80957 19.517 8.00293 19.517 11.8701C19.517 13.6332 18.9115 15.2613 17.8488 16.61C17.6945 16.8023 17.7025 17.0471 17.8719 17.2244L20.2322 19.5785C20.4646 19.8144 20.823 19.8109 21.0359 19.559C22.7926 17.4783 23.8435 14.7949 23.8435 11.8701Z" fill="white" fill-opacity="0.85"/>
  <path d="M0 11.8701C0 14.8029 1.05098 17.4863 2.80586 19.5652C3.01875 19.8172 3.36914 19.8109 3.61132 19.5768L5.96992 17.2227C6.13925 17.0453 6.14726 16.8006 5.99296 16.6082C4.92578 15.2613 4.32656 13.6332 4.32656 11.8701C4.32656 8.00293 7.22617 4.80957 10.9594 4.33301C11.2441 4.30645 11.4437 4.08907 11.4437 3.8043L11.4437 0.554694C11.4437 0.215828 11.1883-0.029874 10.8494 0.00293831C4.77226 0.538875 0 5.64747 0 11.8701Z" fill="white" fill-opacity="0.85"/>
  <path d="M9.5623 16.301C11.1465 16.301 11.9344 15.5275 12.1908 13.9807L12.4857 12.1906L14.5107 12.1906C14.7627 12.1906 14.949 12.0256 14.949 11.7869C14.949 11.5385 14.7627 11.3654 14.5107 11.3654L12.6215 11.3654L12.8445 10.0361C12.9937 9.15683 13.4432 8.72519 14.3322 8.72519C14.7031 8.72519 14.9631 8.78398 15.1762 8.75937C15.448 8.73828 15.5902 8.58477 15.5902 8.33086C15.5902 8.07793 15.4002 7.89961 15.1721 7.79942C14.8898 7.66992 14.4789 7.62832 14.1889 7.62832C12.6482 7.62832 11.783 8.38399 11.5283 9.9166L11.2885 11.3654L9.40546 11.3654C9.1455 11.3654 8.95917 11.5385 8.95917 11.7869C8.95917 12.0256 9.1455 12.1906 9.40546 12.1906L11.1527 12.1906L10.8728 13.8176C10.7254 14.7209 10.3303 15.1961 9.41093 15.1961C9.03085 15.1961 8.89609 15.1481 8.57617 15.1551C8.31445 15.1692 8.15292 15.3475 8.15292 15.5967C8.15292 15.8541 8.30566 16.0129 8.55429 16.1291C8.83652 16.2674 9.22968 16.301 9.5623 16.301Z" fill="white" fill-opacity="0.85"/>
 </g>
</svg>
