<?xml version="1.0" encoding="UTF-8"?>
<!--Generator: Apple Native CoreSVG 341-->
<!DOCTYPE svg
PUBLIC "-//W3C//DTD SVG 1.1//EN"
       "http://www.w3.org/Graphics/SVG/1.1/DTD/svg11.dtd">
<svg version="1.1" xmlns="http://www.w3.org/2000/svg" xmlns:xlink="http://www.w3.org/1999/xlink" viewBox="0 0 22.7515 21.4965">
 <g>
  <rect height="21.4965" opacity="0" width="22.7515" x="0" y="0"/>
  <path d="M12.481 0.359374L20.9545 5.24941C21.351 5.47734 21.5363 5.7664 21.5363 6.09277C21.5363 6.53886 21.1851 6.98046 20.5865 6.98046L19.7447 6.98046L19.7447 18.2742L20.3117 18.2742C20.7437 18.2742 20.9947 18.5297 20.9947 18.9572L20.9947 19.7158L21.499 19.7158C21.9797 19.7158 22.3902 20.1148 22.3902 20.5972C22.3902 21.0849 21.9797 21.4867 21.499 21.4867L0.881441 21.4867C0.399022 21.4867 0 21.0832 0 20.5972C0 20.1148 0.399022 19.7158 0.881441 19.7158L1.44999 19.7158L1.44999 18.9572C1.44999 18.5297 1.70898 18.2742 2.14101 18.2742L2.69999 18.2742L2.69999 6.98046L1.85995 6.98046C1.25957 6.98046 0.908396 6.53886 0.908396 6.09277C0.908396 5.7664 1.08574 5.47734 1.49023 5.24941L9.96366 0.359374C10.3523 0.125976 10.7969 0 11.2183 0C11.6398 0 12.0764 0.125976 12.481 0.359374ZM10.8246 9.45877L10.567 10.9635L8.61307 10.9635C8.34159 10.9635 8.16151 11.148 8.16151 11.392C8.16151 11.6519 8.34159 11.8285 8.61307 11.8285L10.4295 11.8285L10.1478 13.5096C9.98886 14.4439 9.58046 14.9422 8.62831 14.9422C8.23495 14.9422 8.09667 14.8959 7.75721 14.9012C7.48397 14.9187 7.32069 15.0908 7.32069 15.3533C7.32069 15.6303 7.47518 15.7926 7.72733 15.9105C8.02909 16.0523 8.43554 16.0859 8.78319 16.0859C10.44 16.0859 11.2597 15.2877 11.5197 13.6762L11.8359 11.8285L13.9238 11.8285C14.1953 11.8285 14.3949 11.6519 14.3949 11.392C14.3949 11.148 14.1953 10.9635 13.9238 10.9635L11.9734 10.9635L12.2062 9.58533C12.3652 8.68123 12.8262 8.22654 13.7418 8.22654C14.1357 8.22654 14.3992 8.27732 14.6576 8.2492C14.9152 8.21033 15.0494 8.08084 15.0494 7.80564C15.0494 7.54119 14.8576 7.35936 14.618 7.2494C14.3305 7.1244 13.9062 7.07303 13.5949 7.07303C11.9879 7.07303 11.0846 7.86151 10.8246 9.45877Z" fill="white" fill-opacity="0.85"/>
 </g>
</svg>
