<?xml version="1.0" encoding="UTF-8"?>
<!--Generator: Apple Native CoreSVG 341-->
<!DOCTYPE svg
PUBLIC "-//W3C//DTD SVG 1.1//EN"
       "http://www.w3.org/Graphics/SVG/1.1/DTD/svg11.dtd">
<svg version="1.1" xmlns="http://www.w3.org/2000/svg" xmlns:xlink="http://www.w3.org/1999/xlink" viewBox="0 0 24.2049 19.8808">
 <g>
  <rect height="19.8808" opacity="0" width="24.2049" x="0" y="0"/>
  <path d="M23.8435 11.9178C23.8435 9.01855 22.8031 6.3457 21.0623 4.27031C20.8547 4.02011 20.498 4.02011 20.2621 4.2623L17.9578 6.56484C17.7547 6.76796 17.7467 7.05097 17.9232 7.27363C18.9185 8.56269 19.517 10.1768 19.517 11.9178C19.517 13.6826 18.9115 15.3107 17.8488 16.6611C17.6945 16.8535 17.7025 17.0982 17.8719 17.2756L20.2242 19.6279C20.4646 19.8683 20.8133 19.8683 21.0359 19.6066C22.7908 17.5277 23.8435 14.8443 23.8435 11.9178Z" fill="white" fill-opacity="0.85"/>
  <path d="M11.9178 4.32656C13.6783 4.32656 15.2941 4.933 16.5912 5.93183C16.8041 6.09863 17.0791 6.0791 17.2787 5.87773L19.5812 3.57343C19.8252 3.33125 19.8154 2.9791 19.5582 2.76797C17.4926 1.04043 14.8232 0 11.9178 0C9.02031 0 6.35097 1.04043 4.28711 2.76797C4.02988 2.9791 4.01836 3.33125 4.2623 3.57343L6.56484 5.87773C6.76445 6.0791 7.05097 6.09863 7.28163 5.92207C8.56894 4.933 10.1768 4.32656 11.9178 4.32656Z" fill="white" fill-opacity="0.85"/>
  <path d="M0 11.9178C0 14.8461 1.05625 17.5348 2.81465 19.6137C3.02402 19.8719 3.3789 19.8683 3.61308 19.6279L5.96367 17.2756C6.133 17.0982 6.15077 16.8535 5.99472 16.6611C4.93378 15.3107 4.32656 13.6826 4.32656 11.9178C4.32656 10.1768 4.91699 8.56269 5.92031 7.27363C6.08886 7.05097 6.08886 6.76796 5.88574 6.56484L3.58144 4.2623C3.33926 4.02011 2.98711 4.02187 2.77422 4.2791C1.03867 6.35097 0 9.02031 0 11.9178Z" fill="white" fill-opacity="0.85"/>
  <path d="M9.5623 16.3434C11.1465 16.3434 11.9344 15.5699 12.1908 14.023L12.4857 12.233L14.5107 12.233C14.7627 12.233 14.949 12.068 14.949 11.8293C14.949 11.5809 14.7627 11.4078 14.5107 11.4078L12.6215 11.4078L12.8445 10.0785C12.9937 9.19921 13.4432 8.76757 14.3322 8.76757C14.7031 8.76757 14.9631 8.82636 15.1762 8.80175C15.448 8.78066 15.5902 8.62714 15.5902 8.37323C15.5902 8.1203 15.4002 7.94198 15.1721 7.84179C14.8898 7.7123 14.4789 7.6707 14.1889 7.6707C12.6482 7.6707 11.783 8.42636 11.5283 9.95898L11.2885 11.4078L9.40546 11.4078C9.1455 11.4078 8.95917 11.5809 8.95917 11.8293C8.95917 12.068 9.1455 12.233 9.40546 12.233L11.1527 12.233L10.8728 13.86C10.7254 14.7633 10.3303 15.2385 9.41093 15.2385C9.03085 15.2385 8.89609 15.1904 8.57617 15.1975C8.31445 15.2115 8.15292 15.3898 8.15292 15.6391C8.15292 15.8965 8.30566 16.0553 8.55429 16.1715C8.83652 16.3098 9.22968 16.3434 9.5623 16.3434Z" fill="white" fill-opacity="0.85"/>
 </g>
</svg>
