<?xml version="1.0" encoding="UTF-8"?>
<!--Generator: Apple Native CoreSVG 341-->
<!DOCTYPE svg
PUBLIC "-//W3C//DTD SVG 1.1//EN"
       "http://www.w3.org/Graphics/SVG/1.1/DTD/svg11.dtd">
<svg version="1.1" xmlns="http://www.w3.org/2000/svg" xmlns:xlink="http://www.w3.org/1999/xlink" viewBox="0 0 21.7019 23.5988">
 <g>
  <rect height="23.5988" opacity="0" width="21.7019" x="0" y="0"/>
  <path d="M2.45175 8.35349L18.8889 8.35349C20.4135 8.35349 21.3406 7.43611 21.3406 5.93904L21.3406 2.65583C21.3406 1.16052 20.4135 0.243143 18.8889 0.243143L2.45175 0.243143C0.927146 0.243143 0 1.16052 0 2.65583L0 5.93904C0 7.43611 0.927146 8.35349 2.45175 8.35349ZM2.61464 6.55194C2.10721 6.55194 1.79979 6.23826 1.79979 5.71932L1.79979 2.8693C1.79979 2.35837 2.10721 2.04469 2.61464 2.04469L18.7225 2.04469C19.2334 2.04469 19.5391 2.35837 19.5391 2.8693L19.5391 5.71932C19.5391 6.23826 19.2334 6.55194 18.7225 6.55194ZM9.8248 10.7621L11.5318 10.7621L11.5318 7.3949L9.8248 7.3949ZM2.45175 17.8103L18.8889 17.8103C20.4135 17.8103 21.3406 16.8947 21.3406 15.3976L21.3406 12.1144C21.3406 10.6191 20.4135 9.70173 18.8889 9.70173L2.45175 9.70173C0.927146 9.70173 0 10.6191 0 12.1144L0 15.3976C0 16.8947 0.927146 17.8103 2.45175 17.8103ZM2.61464 16.0105C2.10721 16.0105 1.79979 15.6969 1.79979 15.1859L1.79979 12.3359C1.79979 11.817 2.10721 11.5033 2.61464 11.5033L18.7225 11.5033C19.2334 11.5033 19.5391 11.817 19.5391 12.3359L19.5391 15.1859C19.5391 15.6969 19.2334 16.0105 18.7225 16.0105ZM9.8168 19.9867C9.8168 20.4644 10.2006 20.8402 10.6783 20.8402C11.148 20.8402 11.5318 20.4644 11.5318 19.9867L11.5318 16.5625L9.8168 16.5625ZM10.1228 23.3166C10.4316 23.6937 10.9463 23.6919 11.2551 23.3166L13.6127 20.4316C14.0846 19.8506 13.8121 19.1123 13.0537 19.1123L8.31972 19.1123C7.53652 19.1123 7.2543 19.839 7.7457 20.4316Z" fill="white" fill-opacity="0.85"/>
 </g>
</svg>
