<?xml version="1.0" encoding="UTF-8"?>
<!--Generator: Apple Native CoreSVG 341-->
<!DOCTYPE svg
PUBLIC "-//W3C//DTD SVG 1.1//EN"
       "http://www.w3.org/Graphics/SVG/1.1/DTD/svg11.dtd">
<svg version="1.1" xmlns="http://www.w3.org/2000/svg" xmlns:xlink="http://www.w3.org/1999/xlink" viewBox="0 0 22.6629 22.056">
 <g>
  <rect height="22.056" opacity="0" width="22.6629" x="0" y="0"/>
  <path d="M13.0832 0.081912C13.3767 0.136013 13.5611 0.330153 13.6135 0.62898L13.7617 1.73621C14.2441 1.8739 14.7008 2.04715 15.1414 2.24793L15.9725 1.49226C16.2057 1.29363 16.4734 1.25379 16.7262 1.40984C16.9789 1.55261 17.0861 1.80261 17.0285 2.10144L16.7896 3.19714C17.1797 3.48406 17.5555 3.803 17.9037 4.15574L18.9621 3.72058C19.2414 3.61062 19.5029 3.66297 19.6865 3.89441C19.8736 4.1241 19.8984 4.38913 19.7406 4.65339L19.1279 5.61413C19.4096 6.01745 19.6476 6.42878 19.86 6.86765L20.9947 6.83386C21.3033 6.82586 21.5303 6.97488 21.6172 7.2489C21.7254 7.52468 21.658 7.78171 21.415 7.97683L20.5049 8.67917C20.623 9.14558 20.7039 9.61999 20.7527 10.1059L21.8564 10.454C22.142 10.5524 22.3015 10.7696 22.3015 11.0632C22.3015 11.3585 22.142 11.5757 21.8564 11.6661L20.743 12.0221C20.6959 12.5081 20.6133 12.9745 20.4951 13.4329L21.415 14.1548C21.6562 14.3419 21.7289 14.6016 21.6287 14.8757C21.5303 15.1497 21.3033 15.2995 21.0045 15.2897L19.8182 15.2426C19.6058 15.6798 19.3758 16.0848 19.1101 16.4704L19.7389 17.4782C19.8949 17.7425 19.8771 18.004 19.6883 18.2337C19.5029 18.4616 19.2396 18.5147 18.9621 18.403L17.8521 17.9528C17.5199 18.2815 17.1557 18.5844 16.7701 18.8518L17.0232 20.0284C17.0791 20.3192 16.9807 20.5772 16.7262 20.72C16.4734 20.8628 16.2004 20.8397 15.9707 20.6411L15.0898 19.8286C14.667 20.0178 14.2264 20.1751 13.7777 20.3065L13.61 21.4911C13.5576 21.7979 13.3785 21.9938 13.0832 22.0462C12.7959 22.0923 12.5557 21.969 12.4111 21.7128L11.8473 20.6419C11.6172 20.6596 11.3809 20.6676 11.1508 20.6676C10.9207 20.6676 10.6924 20.6596 10.4543 20.6419L9.88515 21.7012C9.74062 21.9655 9.49765 22.094 9.21835 22.0462C8.9248 21.9921 8.73867 21.7979 8.68808 21.4911L8.52383 20.3065C8.07519 20.1751 7.63632 20.0214 7.21347 19.8286L6.32909 20.6358C6.09589 20.8344 5.82812 20.8725 5.57715 20.7182C5.32265 20.5674 5.21719 20.3255 5.27305 20.0266L5.52969 18.8518C5.1459 18.5844 4.78164 18.2815 4.44941 17.9528L3.33945 18.3995C3.06015 18.5174 2.80039 18.4633 2.61504 18.2337C2.42793 18.004 2.40312 17.7372 2.56094 17.4747L3.18965 16.4704C2.92754 16.0848 2.69746 15.6833 2.48515 15.2524L1.29882 15.2844C0.999998 15.3022 0.771288 15.1514 0.684375 14.8774C0.576172 14.5936 0.643554 14.3464 0.886522 14.1495L1.80644 13.4329C1.68828 12.9745 1.60566 12.5081 1.55859 12.0221L0.445115 11.6661C0.159569 11.5757 0 11.3585 0 11.0632C0 10.7696 0.159569 10.5524 0.445115 10.454L1.54883 10.1059C1.59765 9.61999 1.67851 9.14558 1.79668 8.67917L0.886522 7.97331C0.645312 7.7862 0.574414 7.52468 0.674609 7.25066C0.771288 6.97839 0.999998 6.82058 1.29707 6.83836L2.4416 6.86941C2.6539 6.42878 2.89199 6.01745 3.17363 5.61413L2.56269 4.64987C2.40664 4.38562 2.42617 4.1241 2.61328 3.89441C2.80039 3.66648 3.06191 3.60359 3.33945 3.71707L4.38808 4.15574C4.73808 3.81101 5.12187 3.48406 5.51367 3.19714L5.27832 2.09968C5.22246 1.80085 5.3209 1.55086 5.57715 1.40808C5.82812 1.2573 6.10292 1.2866 6.33085 1.48699L7.16015 2.24793C7.60078 2.04715 8.05742 1.8739 8.53984 1.73621L8.6916 0.62898C8.74394 0.330153 8.92304 0.126248 9.21835 0.081912C9.49765 0.0358185 9.74765 0.151052 9.89042 0.415309L10.4187 1.40886C10.6648 1.38933 10.9047 1.38132 11.1508 1.38132C11.3969 1.38132 11.6367 1.38933 11.8828 1.40886L12.4084 0.417067C12.5609 0.154568 12.7959 0.0340608 13.0832 0.081912ZM3.36171 11.0231C3.36171 11.9272 3.51602 12.7955 3.80763 13.5993C3.60205 13.4618 3.41619 13.2986 3.25409 13.1126C4.10468 16.5915 7.35644 19.2643 11.1588 19.2643C15.0008 19.2643 18.2658 16.5614 19.0756 13.088C18.9061 13.2866 18.7098 13.4598 18.492 13.6045C18.7849 12.7993 18.9398 11.9292 18.9398 11.0231C18.9398 6.7237 15.4502 3.23405 11.1508 3.23405C6.85136 3.23405 3.36171 6.7237 3.36171 11.0231Z" fill="white" fill-opacity="0.85"/>
  <path d="M11.1588 19.2643C15.0008 19.2643 18.2658 16.5614 19.0756 13.088C18.5002 13.7622 17.6166 14.1432 16.6521 14.1432C15.7285 14.1432 14.8777 13.7897 14.2943 13.1661C14.0293 12.9018 13.7914 12.8938 13.5264 13.1661C12.975 13.7657 12.1082 14.1432 11.1508 14.1432C10.1934 14.1432 9.32655 13.7657 8.77519 13.1661C8.51015 12.8938 8.27402 12.9018 8.00722 13.1661C7.42382 13.7897 6.58105 14.1432 5.65741 14.1432C4.69901 14.1432 3.82772 13.771 3.25409 13.1126C4.10468 16.5915 7.35644 19.2643 11.1588 19.2643Z" fill="white" fill-opacity="0.85"/>
 </g>
</svg>
