<?xml version="1.0" encoding="UTF-8"?>
<!--Generator: Apple Native CoreSVG 341-->
<!DOCTYPE svg
PUBLIC "-//W3C//DTD SVG 1.1//EN"
       "http://www.w3.org/Graphics/SVG/1.1/DTD/svg11.dtd">
<svg version="1.1" xmlns="http://www.w3.org/2000/svg" xmlns:xlink="http://www.w3.org/1999/xlink" viewBox="0 0 23.4906 16.9976">
 <g>
  <rect height="16.9976" opacity="0" width="23.4906" x="0" y="0"/>
  <path d="M2.91151 16.1791L20.2418 16.1791C21.4383 16.1791 22.2432 15.3359 22.2432 14.0959L22.2432 10.732C21.3174 10.716 20.519 10.3518 19.9924 9.77695C19.7424 9.50995 19.5018 9.51796 19.25 9.77695C18.6852 10.3918 17.8432 10.732 16.9398 10.732C16.0383 10.732 15.198 10.3918 14.6297 9.77695C14.3814 9.51796 14.1408 9.50995 13.8908 9.77695C13.3482 10.3678 12.5018 10.732 11.5646 10.732C10.6275 10.732 9.78105 10.3678 9.23847 9.77695C8.98847 9.50995 8.75585 9.51796 8.49785 9.77695C7.93125 10.3918 7.09277 10.732 6.18945 10.732C5.28437 10.732 4.45214 10.3918 3.87928 9.77695C3.62753 9.51796 3.3869 9.50995 3.1369 9.77695C2.61034 10.3518 1.81991 10.716 0.886119 10.732L0.886119 14.0959C0.886119 15.3359 1.691 16.1791 2.91151 16.1791ZM3.20351 16.9976L19.9258 16.9976C22.0416 16.9976 23.1293 15.91 23.1293 13.8262L23.1293 5.73476C23.1293 3.65722 22.0416 2.57129 19.9258 2.57129L18.8998 2.57129L18.8998 1.34003C18.8998 0.509959 18.4191 0.00976562 17.5828 0.00976562L15.7879 0.00976562C14.9613 0.00976562 14.4807 0.509959 14.4807 1.34003L14.4807 2.57129L8.65663 2.57129L8.65663 1.34003C8.65663 0.509959 8.17597 0.00976562 7.33965 0.00976562L5.54648 0.00976562C4.71015 0.00976562 4.22949 0.509959 4.22949 1.34003L4.22949 2.57129L3.20351 2.57129C1.0957 2.57129 0 3.64921 0 5.73476L0 13.8262C0 15.918 1.0957 16.9976 3.20351 16.9976ZM1.91327 13.6654L1.91327 5.90175C1.91327 4.95292 2.40643 4.48455 3.31444 4.48455L19.8148 4.48455C20.7149 4.48455 21.216 4.95292 21.216 5.90175L21.216 13.6654C21.216 14.608 20.7149 15.0844 19.8148 15.0844L3.31444 15.0844C2.40643 15.0844 1.91327 14.608 1.91327 13.6654Z" fill="white" fill-opacity="0.85"/>
 </g>
</svg>
