<?xml version="1.0" encoding="UTF-8"?>
<!--Generator: Apple Native CoreSVG 341-->
<!DOCTYPE svg
PUBLIC "-//W3C//DTD SVG 1.1//EN"
       "http://www.w3.org/Graphics/SVG/1.1/DTD/svg11.dtd">
<svg version="1.1" xmlns="http://www.w3.org/2000/svg" xmlns:xlink="http://www.w3.org/1999/xlink" viewBox="0 0 22.7412 18.3812">
 <g>
  <rect height="18.3812" opacity="0" width="22.7412" x="0" y="0"/>
  <path d="M3.20351 18.1875L19.4219 18.1875C21.2842 18.1875 22.3799 17.0998 22.3799 15.016L22.3799 4.97265C22.3799 2.88886 21.2762 1.80117 19.1764 1.80117L10.0896 1.80117C9.39217 1.80117 8.96893 1.63965 8.43495 1.19688L7.8744 0.743749C7.1912 0.181054 6.68612 0 5.66308 0L2.89921 0C1.07949 0 0 1.06269 0 3.11171L0 15.016C0 17.1078 1.0957 18.1875 3.20351 18.1875ZM3.31444 16.2742C2.40643 16.2742 1.91327 15.8059 1.91327 14.8553L1.91327 3.27694C1.91327 2.38046 2.40174 1.90526 3.27948 1.90526L5.1625 1.90526C5.84394 1.90526 6.2539 2.07303 6.79941 2.51756L7.3582 2.9787C8.03691 3.52713 8.558 3.7162 9.58104 3.7162L19.0574 3.7162C19.9574 3.7162 20.4666 4.19257 20.4666 5.1414L20.4666 14.8633C20.4666 15.8059 19.9574 16.2742 19.0574 16.2742ZM3.1119 6.78377L19.26 6.78377L19.26 6.08612C19.26 5.46991 18.958 5.18299 18.3266 5.18299L4.0453 5.18299C3.41385 5.18299 3.1119 5.46991 3.1119 6.08612Z" fill="white" fill-opacity="0.85"/>
 </g>
</svg>
