<?xml version="1.0" encoding="UTF-8"?>
<!--Generator: Apple Native CoreSVG 341-->
<!DOCTYPE svg
PUBLIC "-//W3C//DTD SVG 1.1//EN"
       "http://www.w3.org/Graphics/SVG/1.1/DTD/svg11.dtd">
<svg version="1.1" xmlns="http://www.w3.org/2000/svg" xmlns:xlink="http://www.w3.org/1999/xlink" viewBox="0 0 14.1766 24.4996">
 <g>
  <rect height="24.4996" opacity="0" width="14.1766" x="0" y="0"/>
  <path d="M3.48325 23.049C4.34399 23.049 4.87465 22.5619 4.86489 21.733L4.66606 10.6678C4.6643 10.275 4.802 10.0387 5.12407 9.8914C6.45531 9.29511 7.04184 8.66777 6.96469 6.86211L6.68598 0.880076C6.66293 0.418749 6.39496 0.153515 5.96821 0.153515C5.55746 0.153515 5.30727 0.43203 5.31079 0.901365L5.3809 6.70683C5.38442 7.06094 5.16957 7.27929 4.84555 7.27929C4.51 7.27929 4.28266 7.07246 4.2809 6.73437L4.17973 0.716795C4.16996 0.270507 3.90825 0 3.48325 0C3.05825 0 2.80454 0.270507 2.79477 0.716795L2.69536 6.73437C2.6936 7.06894 2.4645 7.27929 2.12895 7.27929C1.80493 7.27929 1.58208 7.06094 1.58384 6.70683L1.65747 0.901365C1.65923 0.43203 1.4188 0.153515 1.00005 0.153515C0.573291 0.153515 0.303565 0.420507 0.280519 0.880076L0.00805805 6.86211C-0.0770979 8.66777 0.511182 9.29511 1.84419 9.8914C2.16626 10.0387 2.3022 10.275 2.30044 10.6678L2.10962 21.733C2.09634 22.5637 2.62602 23.049 3.48325 23.049ZM11.2448 14.4086L11.0538 21.693C11.0262 22.5637 11.5702 23.049 12.4194 23.049C13.2899 23.049 13.817 22.5957 13.817 21.7828L13.817 0.760546C13.817 0.257226 13.477 0 13.0955 0C12.7157 0 12.4627 0.200586 12.1414 0.666601C10.5481 2.89648 9.45492 7.1996 9.45492 11.0971L9.45492 11.6178C9.45492 12.318 9.69379 12.809 10.2366 13.1682L10.7547 13.5201C11.1151 13.7678 11.2625 14.0289 11.2448 14.4086Z" fill="white" fill-opacity="0.85"/>
 </g>
</svg>
