<?xml version="1.0" encoding="UTF-8"?>
<!--Generator: Apple Native CoreSVG 341-->
<!DOCTYPE svg
PUBLIC "-//W3C//DTD SVG 1.1//EN"
       "http://www.w3.org/Graphics/SVG/1.1/DTD/svg11.dtd">
<svg version="1.1" xmlns="http://www.w3.org/2000/svg" xmlns:xlink="http://www.w3.org/1999/xlink" viewBox="0 0 20.5381 20.1848">
 <g>
  <rect height="20.1848" opacity="0" width="20.5381" x="0" y="0"/>
  <path d="M10.0875 20.175C15.6576 20.175 20.1767 15.6559 20.1767 10.0875C20.1767 4.51914 15.6576 0 10.0875 0C4.51914 0 0 4.51914 0 10.0875C0 15.6559 4.51914 20.175 10.0875 20.175ZM10.0875 18.1879C5.60839 18.1879 1.9871 14.5666 1.9871 10.0875C1.9871 5.60839 5.60839 1.9871 10.0875 1.9871C14.5666 1.9871 18.1897 5.60839 18.1897 10.0875C18.1897 14.5666 14.5666 18.1879 10.0875 18.1879Z" fill="white" fill-opacity="0.85"/>
  <path d="M8.06816 16.3152C8.5289 16.3152 8.82011 16.0578 8.81034 15.6139L8.70644 9.62109C8.70644 9.41874 8.77577 9.28808 8.9498 9.20644C9.66542 8.89394 9.99394 8.55839 9.9371 7.58183L9.78437 4.34354C9.7746 4.09413 9.63437 3.94589 9.408 3.94589C9.18788 3.94589 9.05292 4.10565 9.05292 4.35507L9.09999 7.51171C9.09999 7.6955 8.97206 7.8207 8.80156 7.8207C8.61327 7.8207 8.48359 7.6955 8.48359 7.52148L8.44452 4.26366C8.44452 4.01952 8.29003 3.87577 8.06816 3.87577C7.84355 3.87577 7.69531 4.01952 7.69531 4.26366L7.64023 7.52148C7.64023 7.6955 7.51679 7.8207 7.33827 7.8207C7.16601 7.8207 7.03984 7.6955 7.03984 7.51171L7.08866 4.35507C7.08866 4.10565 6.95194 3.94589 6.73183 3.94589C6.5037 3.94589 6.35546 4.09764 6.3457 4.34354L6.20273 7.58183C6.16191 8.55839 6.47441 8.89394 7.19452 9.20644C7.36405 9.28808 7.43515 9.41874 7.43515 9.62109L7.32948 15.6139C7.31972 16.0596 7.61269 16.3152 8.06816 16.3152ZM11.8102 11.7684L11.6955 15.5898C11.676 16.0596 11.9787 16.3152 12.4279 16.3152C12.9029 16.3152 13.1826 16.0738 13.1826 15.6397L13.1826 4.28241C13.1826 4.00975 12.9898 3.87577 12.7973 3.87577C12.5859 3.87577 12.451 3.9912 12.2805 4.23807C11.4164 5.43788 10.8287 7.75605 10.8287 9.86015L10.8287 10.2225C10.8287 10.6078 10.9646 10.8644 11.2539 11.0633L11.5375 11.258C11.7311 11.3912 11.8137 11.5342 11.8102 11.7684Z" fill="white" fill-opacity="0.85"/>
 </g>
</svg>
