<?xml version="1.0" encoding="UTF-8"?>
<!--Generator: Apple Native CoreSVG 341-->
<!DOCTYPE svg
PUBLIC "-//W3C//DTD SVG 1.1//EN"
       "http://www.w3.org/Graphics/SVG/1.1/DTD/svg11.dtd">
<svg version="1.1" xmlns="http://www.w3.org/2000/svg" xmlns:xlink="http://www.w3.org/1999/xlink" viewBox="0 0 20.5381 20.1848">
 <g>
  <rect height="20.1848" opacity="0" width="20.5381" x="0" y="0"/>
  <path d="M20.1767 10.0875C20.1767 15.6478 15.6576 20.175 10.0875 20.175C4.52715 20.175 0 15.6478 0 10.0875C0 4.51914 4.52715 0 10.0875 0C15.6576 0 20.1767 4.51914 20.1767 10.0875ZM7.5623 4.04296L7.50722 7.42402C7.50722 7.5998 7.38202 7.733 7.18398 7.733C7.00995 7.733 6.88378 7.5998 6.88378 7.41249L6.93261 4.13261C6.93261 3.87167 6.79413 3.71015 6.55273 3.71015C6.3246 3.71015 6.17284 3.86366 6.16308 4.12284L6.01034 7.48437C5.95976 8.49902 6.28554 8.84609 7.03847 9.17187C7.21952 9.25527 7.29863 9.39394 7.29863 9.5998L7.18495 15.8266C7.17343 16.2918 7.47968 16.551 7.94843 16.551C8.43046 16.551 8.7332 16.29 8.71542 15.8266L8.61952 9.5998C8.61952 9.39394 8.68886 9.25527 8.8664 9.17187C9.61484 8.84609 9.94863 8.49902 9.89804 7.48437L9.73554 4.12284C9.71601 3.86015 9.58378 3.71015 9.34765 3.71015C9.11425 3.71015 8.97753 3.87167 8.97753 4.13261L9.0246 7.41249C9.0246 7.5998 8.89492 7.733 8.70839 7.733C8.51835 7.733 8.38515 7.5998 8.38515 7.42402L8.34609 4.04296C8.34609 3.78554 8.18007 3.64003 7.94843 3.64003C7.72031 3.64003 7.5623 3.78554 7.5623 4.04296ZM12.4543 4.01386C11.5557 5.25976 10.9432 7.66562 10.9432 9.85039L10.9432 10.2242C10.9432 10.6211 11.0906 10.891 11.3896 11.0996L11.6768 11.3041C11.8801 11.4391 11.9707 11.5918 11.9609 11.8295L11.8445 15.8025C11.8348 16.2918 12.149 16.551 12.6098 16.551C13.0998 16.551 13.3928 16.3061 13.3928 15.8506L13.3928 4.05995C13.3928 3.77577 13.1965 3.64003 12.9861 3.64003C12.781 3.64003 12.6283 3.75546 12.4543 4.01386Z" fill="white" fill-opacity="0.85"/>
 </g>
</svg>
