<?xml version="1.0" encoding="UTF-8"?>
<!--Generator: Apple Native CoreSVG 341-->
<!DOCTYPE svg
PUBLIC "-//W3C//DTD SVG 1.1//EN"
       "http://www.w3.org/Graphics/SVG/1.1/DTD/svg11.dtd">
<svg version="1.1" xmlns="http://www.w3.org/2000/svg" xmlns:xlink="http://www.w3.org/1999/xlink" viewBox="0 0 33.9136 17.1988">
 <g>
  <rect height="17.1988" opacity="0" width="33.9136" x="0" y="0"/>
  <path d="M4.7986 17.1988C7.56715 17.1988 9.53922 15.4305 9.62476 12.6947C9.85054 12.8166 10.1226 12.8726 10.4445 12.8726L23.1078 12.8726C23.4314 12.8726 23.7035 12.8166 23.9293 12.6947C24.013 15.4305 25.9851 17.1988 28.7537 17.1988C31.9726 17.1988 33.9214 15.1928 33.5017 11.7932L32.6326 4.82246C32.2945 2.07598 30.698 0.637504 27.9168 0.637504L5.63552 0.637504C2.85427 0.637504 1.25779 2.07598 0.919703 4.82246L0.0585705 11.7932C-0.369163 15.1928 1.57966 17.1988 4.7986 17.1988ZM10.6744 11.1098C10.0113 11.1098 9.63179 10.7223 9.63179 10.0076L9.63179 3.49453C9.63179 2.78964 10.0113 2.40038 10.6744 2.40038L22.8796 2.40038C23.5507 2.40038 23.9205 2.78964 23.9205 3.49453L23.9205 10.0076C23.9205 10.7223 23.5507 11.1098 22.8796 11.1098ZM4.85016 14.1021C4.48649 14.1021 4.21677 13.8226 4.21677 13.4447L4.21677 12.4961L3.2193 12.4961C2.84938 12.4961 2.57165 12.2156 2.57165 11.8475C2.57165 11.481 2.84938 11.2086 3.2193 11.2086L4.21677 11.2086L4.21677 10.2617C4.21677 9.8998 4.48649 9.6123 4.85016 9.6123C5.21208 9.6123 5.48805 9.8998 5.48805 10.2617L5.48805 11.2086L6.41715 11.2086C6.81188 11.2086 7.11715 11.481 7.11715 11.8475C7.11715 12.2156 6.81188 12.4961 6.41715 12.4961L5.48805 12.4961L5.48805 13.4447C5.48805 13.8226 5.21208 14.1021 4.85016 14.1021ZM29.7986 11.9363C29.1578 11.9363 28.6634 11.4312 28.6634 10.7984C28.6634 10.1541 29.1578 9.6455 29.7986 9.6455C30.4474 9.6455 30.9675 10.1541 30.9675 10.7984C30.9675 11.4295 30.4474 11.9363 29.7986 11.9363ZM27.7455 14.0029C27.1082 14.0029 26.5925 13.4926 26.5925 12.8598C26.5925 12.2127 27.1082 11.7121 27.7455 11.7121C28.38 11.7121 28.8886 12.2127 28.8886 12.8598C28.8886 13.4926 28.38 14.0029 27.7455 14.0029Z" fill="white" fill-opacity="0.85"/>
 </g>
</svg>
