<?xml version="1.0" encoding="UTF-8"?>
<!--Generator: Apple Native CoreSVG 341-->
<!DOCTYPE svg
PUBLIC "-//W3C//DTD SVG 1.1//EN"
       "http://www.w3.org/Graphics/SVG/1.1/DTD/svg11.dtd">
<svg version="1.1" xmlns="http://www.w3.org/2000/svg" xmlns:xlink="http://www.w3.org/1999/xlink" viewBox="0 0 16.2384 15.4765">
 <g>
  <rect height="15.4765" opacity="0" width="16.2384" x="0" y="0"/>
  <path d="M0 13.9424C0 14.9623 0.604684 15.4668 1.32909 15.4668C1.63944 15.4668 1.96757 15.3701 2.28593 15.1928L12.6769 9.13709C13.4508 8.68983 13.7955 8.30956 13.7955 7.73339C13.7955 7.15546 13.4508 6.77695 12.6769 6.32968L2.28593 0.274022C1.96757 0.0886714 1.63944 0 1.32909 0C0.604684 0 0 0.494724 0 1.5164ZM1.91327 12.8773L1.91327 2.58943C1.91327 2.46697 1.9869 2.38533 2.0996 2.38533C2.1369 2.38533 2.17772 2.3951 2.21053 2.4244L11.0311 7.57636C11.1047 7.61718 11.1357 7.67128 11.1357 7.73339C11.1357 7.78573 11.1047 7.8496 11.0311 7.89042L2.21053 13.0424C2.17772 13.0637 2.1369 13.0814 2.0996 13.0814C1.9869 13.0814 1.91327 12.9918 1.91327 12.8773ZM14.8035 15.4668C15.4129 15.4668 15.8771 15.0123 15.8771 14.4215L15.8771 1.0453C15.8771 0.454488 15.4129 0 14.8035 0C14.1959 0 13.7379 0.454488 13.7379 1.0453L13.7379 14.4215C13.7379 15.0123 14.1959 15.4668 14.8035 15.4668Z" fill="white" fill-opacity="0.85"/>
 </g>
</svg>
