<?xml version="1.0" encoding="UTF-8"?>
<!--Generator: Apple Native CoreSVG 341-->
<!DOCTYPE svg
PUBLIC "-//W3C//DTD SVG 1.1//EN"
       "http://www.w3.org/Graphics/SVG/1.1/DTD/svg11.dtd">
<svg version="1.1" xmlns="http://www.w3.org/2000/svg" xmlns:xlink="http://www.w3.org/1999/xlink" viewBox="0 0 24.5672 15.4765">
 <g>
  <rect height="15.4765" opacity="0" width="24.5672" x="0" y="0"/>
  <path d="M4.17597 15.417L6.45956 15.417C7.38397 15.417 7.85331 14.9379 7.85331 14.0135L7.85331 1.44355C7.85331 0.495897 7.38397 0.0417972 6.45956 0.0417972L4.17597 0.0417972C3.25156 0.0417972 2.77246 0.51914 2.77246 1.44355L2.77246 14.0135C2.77246 14.9379 3.24453 15.417 4.17597 15.417ZM10.7797 13.9424C10.7797 14.9623 11.3861 15.4668 12.1088 15.4668C12.4191 15.4668 12.7472 15.3701 13.0656 15.1928L23.4584 9.13709C24.2322 8.68983 24.5672 8.30956 24.5672 7.73339C24.5672 7.15546 24.2322 6.77695 23.4584 6.32968L13.0656 0.274022C12.7472 0.0886714 12.4191 0 12.1088 0C11.3861 0 10.7797 0.494724 10.7797 1.5164Z" fill="white" fill-opacity="0.85"/>
 </g>
</svg>
