<?xml version="1.0" encoding="UTF-8"?>
<!--Generator: Apple Native CoreSVG 341-->
<!DOCTYPE svg
PUBLIC "-//W3C//DTD SVG 1.1//EN"
       "http://www.w3.org/Graphics/SVG/1.1/DTD/svg11.dtd">
<svg version="1.1" xmlns="http://www.w3.org/2000/svg" xmlns:xlink="http://www.w3.org/1999/xlink" viewBox="0 0 29.2785 15.4765">
 <g>
  <rect height="15.4765" opacity="0" width="29.2785" x="0" y="0"/>
  <path d="M1.74512 13.9424C1.74512 14.9623 2.35957 15.4668 3.07597 15.4668C3.39257 15.4668 3.71444 15.3701 4.03104 15.1928L14.4318 9.13709C15.1976 8.68983 15.5406 8.30956 15.5406 7.73339C15.5406 7.15546 15.1976 6.77695 14.4318 6.32968L4.03104 0.274022C3.71444 0.0886714 3.39257 0 3.07597 0C2.35957 0 1.74512 0.494724 1.74512 1.5164ZM3.65838 12.8773L3.65838 2.58943C3.65838 2.46697 3.74002 2.38533 3.84471 2.38533C3.88377 2.38533 3.92459 2.3951 3.96366 2.4244L12.7762 7.57636C12.8498 7.61718 12.8809 7.67128 12.8809 7.73339C12.8809 7.78573 12.8498 7.8496 12.7762 7.89042L3.96366 13.0424C3.92459 13.0637 3.88377 13.0814 3.84471 13.0814C3.74002 13.0814 3.65838 12.9918 3.65838 12.8773ZM15.483 13.9424C15.483 14.9623 16.0894 15.4668 16.8138 15.4668C17.1224 15.4668 17.4523 15.3701 17.7689 15.1928L28.1617 9.13709C28.9355 8.68983 29.2785 8.30956 29.2785 7.73339C29.2785 7.15546 28.9355 6.77695 28.1617 6.32968L17.7689 0.274022C17.4523 0.0886714 17.1224 0 16.8138 0C16.0894 0 15.483 0.494724 15.483 1.5164ZM17.3963 12.8773L17.3963 2.58943C17.3963 2.46697 17.4699 2.38533 17.5746 2.38533C17.6216 2.38533 17.6545 2.3951 17.6953 2.4244L26.5158 7.57636C26.5877 7.61718 26.6187 7.67128 26.6187 7.73339C26.6187 7.78573 26.5877 7.8496 26.5158 7.89042L17.6953 13.0424C17.6545 13.0637 17.6216 13.0814 17.5746 13.0814C17.4699 13.0814 17.3963 12.9918 17.3963 12.8773Z" fill="white" fill-opacity="0.85"/>
 </g>
</svg>
