<?xml version="1.0" encoding="UTF-8"?>
<!--Generator: Apple Native CoreSVG 341-->
<!DOCTYPE svg
PUBLIC "-//W3C//DTD SVG 1.1//EN"
       "http://www.w3.org/Graphics/SVG/1.1/DTD/svg11.dtd">
<svg version="1.1" xmlns="http://www.w3.org/2000/svg" xmlns:xlink="http://www.w3.org/1999/xlink" viewBox="0 0 32.9187 15.4765">
 <g>
  <rect height="15.4765" opacity="0" width="32.9187" x="0" y="0"/>
  <path d="M0 13.9424C0 14.9623 0.604684 15.4668 1.32909 15.4668C1.63944 15.4668 1.96757 15.3701 2.28593 15.1928L12.6769 9.13709C13.4508 8.68983 13.7955 8.30956 13.7955 7.73339C13.7955 7.15546 13.4508 6.77695 12.6769 6.32968L2.28593 0.274022C1.96757 0.0886714 1.63944 0 1.32909 0C0.604684 0 0 0.494724 0 1.5164ZM13.7467 13.9424C13.7467 14.9623 14.3513 15.4668 15.0677 15.4668C15.3843 15.4668 15.7142 15.3701 16.0308 15.1928L26.4236 9.13709C27.1894 8.68983 27.5341 8.30956 27.5341 7.73339C27.5341 7.15546 27.1894 6.77695 26.4236 6.32968L16.0308 0.274022C15.7142 0.0886714 15.3843 0 15.0677 0C14.3513 0 13.7467 0.494724 13.7467 1.5164ZM28.8783 15.417L31.1619 15.417C32.0863 15.417 32.5574 14.9379 32.5574 14.0135L32.5574 1.44355C32.5574 0.495897 32.0863 0.0417972 31.1619 0.0417972L28.8783 0.0417972C27.9556 0.0417972 27.4765 0.51914 27.4765 1.44355L27.4765 14.0135C27.4765 14.9379 27.9486 15.417 28.8783 15.417Z" fill="white" fill-opacity="0.85"/>
 </g>
</svg>
