<?xml version="1.0" encoding="UTF-8"?>
<!--Generator: Apple Native CoreSVG 341-->
<!DOCTYPE svg
PUBLIC "-//W3C//DTD SVG 1.1//EN"
       "http://www.w3.org/Graphics/SVG/1.1/DTD/svg11.dtd">
<svg version="1.1" xmlns="http://www.w3.org/2000/svg" xmlns:xlink="http://www.w3.org/1999/xlink" viewBox="0 0 24.226 20.1848">
 <g>
  <rect height="20.1848" opacity="0" width="24.226" x="0" y="0"/>
  <path d="M0.721518 8.12363C-0.00973073 8.12363-0.190785 8.66894 0.204136 9.22109L2.47249 12.3723C2.78948 12.8092 3.27757 12.8012 3.58831 12.3723L5.8469 9.21308C6.24007 8.66894 6.051 8.12363 5.33929 8.12363ZM22.0239 10.0875C22.0239 4.51914 17.503 0 11.9364 0C6.368 0 1.85687 4.50937 1.84886 10.099C1.85687 10.6476 2.29378 11.0846 2.83441 11.0846C3.38303 11.0846 3.83596 10.6396 3.83596 10.091C3.83596 5.60839 7.45725 1.9871 11.9364 1.9871C16.4155 1.9871 20.0368 5.60839 20.0368 10.0875C20.0368 14.5666 16.4155 18.1879 11.9364 18.1879C9.3096 18.1879 7.0131 16.9437 5.54279 15.0176C5.1469 14.5609 4.58421 14.4129 4.10726 14.7519C3.66214 15.0734 3.55902 15.725 3.99475 16.2355C5.84631 18.6584 8.71858 20.175 11.9364 20.175C17.503 20.175 22.0239 15.6559 22.0239 10.0875Z" fill="white" fill-opacity="0.85"/>
  <path d="M10.3412 14.5891C10.7453 14.5891 11.0299 14.3027 11.0299 13.8854L11.0299 13.0102L13.1004 13.0102C13.2772 13.0102 13.4104 12.8769 13.4104 12.7019C13.4104 12.5252 13.2772 12.392 13.1004 12.392L11.0299 12.392L11.0299 10.698L14.0813 10.698C14.4385 10.698 14.6832 10.4666 14.6832 10.1279C14.6832 9.79726 14.4385 9.56582 14.0813 9.56582L11.0299 9.56582L11.0299 6.98163L14.395 6.98163C14.769 6.98163 15.019 6.74042 15.019 6.40272C15.019 6.05077 14.769 5.80956 14.395 5.80956L10.3412 5.80956C9.90609 5.80956 9.64632 6.07812 9.64632 6.52128L9.64632 12.392L8.7141 12.392C8.53109 12.392 8.39788 12.5252 8.39788 12.7019C8.39788 12.8769 8.53109 13.0102 8.7141 13.0102L9.64632 13.0102L9.64632 13.8854C9.64632 14.3027 9.92288 14.5891 10.3412 14.5891Z" fill="white" fill-opacity="0.85"/>
 </g>
</svg>
