<?xml version="1.0" encoding="UTF-8"?>
<!--Generator: Apple Native CoreSVG 341-->
<!DOCTYPE svg
PUBLIC "-//W3C//DTD SVG 1.1//EN"
       "http://www.w3.org/Graphics/SVG/1.1/DTD/svg11.dtd">
<svg version="1.1" xmlns="http://www.w3.org/2000/svg" xmlns:xlink="http://www.w3.org/1999/xlink" viewBox="0 0 20.5381 20.1848">
 <g>
  <rect height="20.1848" opacity="0" width="20.5381" x="0" y="0"/>
  <path d="M10.0875 20.175C15.6576 20.175 20.1767 15.6559 20.1767 10.0875C20.1767 4.51914 15.6576 0 10.0875 0C4.51914 0 0 4.51914 0 10.0875C0 15.6559 4.51914 20.175 10.0875 20.175ZM10.0875 18.1879C5.60839 18.1879 1.9871 14.5666 1.9871 10.0875C1.9871 5.60839 5.60839 1.9871 10.0875 1.9871C14.5666 1.9871 18.1897 5.60839 18.1897 10.0875C18.1897 14.5666 14.5666 18.1879 10.0875 18.1879Z" fill="white" fill-opacity="0.85"/>
  <path d="M8.48437 14.5891C8.88847 14.5891 9.17303 14.3027 9.17303 13.8854L9.17303 13.0102L11.2435 13.0102C11.4203 13.0102 11.5517 12.8769 11.5517 12.7019C11.5517 12.5252 11.4203 12.392 11.2435 12.392L9.17303 12.392L9.17303 10.698L12.2244 10.698C12.5816 10.698 12.8264 10.4666 12.8264 10.1279C12.8264 9.79726 12.5816 9.56582 12.2244 9.56582L9.17303 9.56582L9.17303 6.98163L12.5381 6.98163C12.9121 6.98163 13.1603 6.74042 13.1603 6.40272C13.1603 6.05077 12.9121 5.80956 12.5381 5.80956L8.48437 5.80956C8.04921 5.80956 7.78945 6.07812 7.78945 6.52128L7.78945 12.392L6.85722 12.392C6.67421 12.392 6.54101 12.5252 6.54101 12.7019C6.54101 12.8769 6.67421 13.0102 6.85722 13.0102L7.78945 13.0102L7.78945 13.8854C7.78945 14.3027 8.06601 14.5891 8.48437 14.5891Z" fill="white" fill-opacity="0.85"/>
 </g>
</svg>
