<?xml version="1.0" encoding="UTF-8"?>
<!--Generator: Apple Native CoreSVG 341-->
<!DOCTYPE svg
PUBLIC "-//W3C//DTD SVG 1.1//EN"
       "http://www.w3.org/Graphics/SVG/1.1/DTD/svg11.dtd">
<svg version="1.1" xmlns="http://www.w3.org/2000/svg" xmlns:xlink="http://www.w3.org/1999/xlink" viewBox="0 0 31.0828 20.1992">
 <g>
  <rect height="20.1992" opacity="0" width="31.0828" x="0" y="0"/>
  <path d="M0 11.3021C0 16.64 5.01132 20.1992 12.5605 20.1992C20.123 20.1992 25.1326 16.6418 25.1326 11.3021C25.1326 8.99335 19.9482 7.18085 12.5605 7.18085C5.18437 7.18085 0 8.99335 0 11.3021ZM1.82538 11.3021C1.82538 10.2808 7.15174 8.9033 12.5605 8.9033C17.9711 8.9033 23.3055 10.2808 23.3055 11.3021C23.3055 12.2861 18.2529 13.6576 12.5605 13.6576C6.8699 13.6576 1.82538 12.2861 1.82538 11.3021ZM23.0633 10.3678L29.5824 6.22557C32.3146 4.4953 29.6933 0.33457 26.3066 2.80585L18.5646 8.46834ZM6.75488 14.0105L17.5133 14.0426C17.574 11.9164 15.8566 10.4723 13.815 10.4723C12.549 10.4723 11.4199 11.0264 10.7357 11.9C10.4098 11.7969 10.1078 11.7516 9.74276 11.7516C8.22382 11.7516 6.95254 12.7387 6.75488 14.0105Z" fill="white" fill-opacity="0.85"/>
 </g>
</svg>
