<?xml version="1.0" encoding="UTF-8"?>
<!--Generator: Apple Native CoreSVG 341-->
<!DOCTYPE svg
PUBLIC "-//W3C//DTD SVG 1.1//EN"
       "http://www.w3.org/Graphics/SVG/1.1/DTD/svg11.dtd">
<svg version="1.1" xmlns="http://www.w3.org/2000/svg" xmlns:xlink="http://www.w3.org/1999/xlink" viewBox="0 0 31.2676 20.1992">
 <g>
  <rect height="20.1992" opacity="0" width="31.2676" x="0" y="0"/>
  <path d="M0 11.3021C0 16.64 5.01132 20.1992 12.5605 20.1992C20.123 20.1992 25.1326 16.6418 25.1326 11.3021C25.1326 8.99335 19.9482 7.18085 12.5605 7.18085C5.18437 7.18085 0 8.99335 0 11.3021ZM1.82538 11.3021C1.82538 10.2808 7.15174 8.9033 12.5605 8.9033C17.9711 8.9033 23.3055 10.2808 23.3055 11.3021C23.3055 12.2861 18.2529 13.574 12.5605 13.574C6.8699 13.574 1.82538 12.2861 1.82538 11.3021ZM2.30213 13.534C4.32088 14.622 8.38006 15.4011 12.5605 15.4011C16.7613 15.4011 20.8328 14.6185 22.8973 13.4953C21.9742 16.4338 17.8994 18.3721 12.5605 18.3721C7.30525 18.3721 3.27791 16.4742 2.30213 13.534ZM23.0898 10.6424L29.6519 6.49178C32.666 4.59139 29.7638 0.0044924 26.098 2.6707L18.0738 8.52147L20.0424 9.0242L27.4074 3.94725C28.6715 3.0699 29.4978 4.43417 28.5041 5.05898L21.4808 9.54393ZM6.75488 14.0105L17.5133 14.0426C17.574 11.9164 15.8566 10.4723 13.815 10.4723C12.549 10.4723 11.4199 11.0264 10.7357 11.9C10.4098 11.7969 10.1078 11.7516 9.74276 11.7516C8.22382 11.7516 6.95254 12.7387 6.75488 14.0105Z" fill="white" fill-opacity="0.85"/>
 </g>
</svg>
