<?xml version="1.0" encoding="UTF-8"?>
<!--Generator: Apple Native CoreSVG 341-->
<!DOCTYPE svg
PUBLIC "-//W3C//DTD SVG 1.1//EN"
       "http://www.w3.org/Graphics/SVG/1.1/DTD/svg11.dtd">
<svg version="1.1" xmlns="http://www.w3.org/2000/svg" xmlns:xlink="http://www.w3.org/1999/xlink" viewBox="0 0 27.4843 22.0367">
 <g>
  <rect height="22.0367" opacity="0" width="27.4843" x="0" y="0"/>
  <path d="M25.7066 17.5891C26.4949 17.5891 27.123 16.9875 27.123 16.2408C27.123 15.4879 26.5029 14.8943 25.7066 14.8943C24.8988 14.8943 24.2752 15.4879 24.2752 16.2408C24.2752 16.9875 24.9068 17.5891 25.7066 17.5891ZM25.7066 13.1424C26.2888 13.1424 26.6771 12.7646 26.7019 12.1594L26.9088 5.6285C26.9336 4.90507 26.4486 4.42011 25.7031 4.42011C24.9461 4.42011 24.4594 4.90507 24.4859 5.6285L24.6963 12.1664C24.7211 12.7646 25.1209 13.1424 25.7066 13.1424Z" fill="white" fill-opacity="0.85"/>
  <path d="M1.58613 21.285L3.40175 21.285L3.40175 2.67577C3.40175 2.12655 3.68163 1.82538 4.23183 1.82538L12.4166 1.82538C12.9588 1.82538 13.2467 2.11855 13.2467 2.67577L13.2547 21.285L15.0801 21.285L15.0801 2.58242C15.0801 0.919334 14.1607 0 12.5074 0L4.14902 0C2.48144 0 1.58613 0.919334 1.58613 2.58242ZM5.00956 8.96894L11.6451 8.96894C12.0141 8.96894 12.2846 8.70722 12.2846 8.34882L12.2846 3.41561C12.2846 3.05546 12.0096 2.7955 11.6451 2.7955L5.00956 2.7955C4.63885 2.7955 4.37186 3.05546 4.37186 3.41561L4.37186 8.34882C4.37186 8.70722 4.64061 8.96894 5.00956 8.96894ZM0 21.1182C0 21.6226 0.398045 22.0367 0.892769 22.0367L15.7574 22.0367C16.2521 22.0367 16.6582 21.6226 16.6582 21.1182C16.6582 20.6314 16.2521 20.2254 15.7574 20.2254L0.892769 20.2254C0.406052 20.2254 0 20.6234 0 21.1182ZM18.7785 19.3852C20.5822 19.3852 21.6039 18.1762 21.6039 16.0404C21.6039 13.5822 21.1359 10.7389 20.2056 6.32363L20.0058 5.34746C19.7902 4.3543 19.4885 3.54141 18.9017 2.8082L17.8088 1.44355C17.2808 0.779884 16.2543 1.54824 16.823 2.25898L18.2045 3.98398C18.2889 4.0959 18.2986 4.2416 18.2125 4.3748L17.3992 5.88594C17.1738 6.31367 17.2226 6.60469 17.582 7.00312L19.4336 8.97539C20.0295 11.7102 20.3467 14.1342 20.3467 16.0404C20.3467 17.3855 19.7863 18.1199 18.7785 18.1199C17.8941 18.1199 17.3275 17.5533 17.3275 16.6094C17.3275 15.165 17.5619 13.2977 17.5619 11.5426C17.5619 9.80723 16.708 8.48731 14.5832 7.79668L14.0748 8.94297C15.6752 9.41621 16.3064 10.3707 16.3064 11.5426C16.3064 13.1051 16.0703 14.9742 16.0703 16.6094C16.0703 18.3146 17.131 19.3852 18.7785 19.3852Z" fill="white" fill-opacity="0.85"/>
 </g>
</svg>
