<?xml version="1.0" encoding="UTF-8"?>
<!--Generator: Apple Native CoreSVG 341-->
<!DOCTYPE svg
PUBLIC "-//W3C//DTD SVG 1.1//EN"
       "http://www.w3.org/Graphics/SVG/1.1/DTD/svg11.dtd">
<svg version="1.1" xmlns="http://www.w3.org/2000/svg" xmlns:xlink="http://www.w3.org/1999/xlink" viewBox="0 0 25.0881 26.9965">
 <g>
  <rect height="26.9965" opacity="0" width="25.0881" x="0" y="0"/>
  <path d="M9.12793 26.9965L15.5773 26.9965C16.0625 26.9965 16.4625 26.5947 16.4625 26.1096L16.4625 23L15.9586 23.7201L17.1352 23.3238C18.8937 22.7291 19.6881 21.9906 20.1301 19.4963L21.1752 13.585L23.8959 13.585C24.349 13.585 24.7268 13.201 24.7268 12.7559C24.7268 12.3027 24.349 11.9187 23.8959 11.9187L19.7404 11.9187L19.0756 15.74L19.574 15.2285C18.7783 15.2125 18.068 14.9443 17.5414 14.3855C17.3092 14.1363 17.0926 14.1363 16.8586 14.3855C16.3738 14.9043 15.6012 15.2365 14.7619 15.2365C13.9084 15.2365 13.134 14.9043 12.6652 14.3855C12.425 14.1363 12.2084 14.1363 11.9824 14.3855C11.4559 14.9283 10.6992 15.2365 9.89375 15.2365C9.07226 15.2365 8.32187 14.9283 7.81308 14.3855C7.58711 14.1363 7.3625 14.1363 7.12051 14.3855C6.65976 14.8883 5.91914 15.2125 5.13125 15.2285L5.57187 15.6262L4.94765 12.0594L0.829098 12.0594C0.377733 12.0594 0 12.4451 0 12.8982C0 13.3416 0.377733 13.7273 0.829098 13.7273L3.51465 13.7273L4.5334 19.4963C4.98867 21.9924 5.77773 22.7291 7.52832 23.3238L8.98457 23.816L8.24102 22.9068L8.24102 26.1096C8.24102 26.5947 8.64277 26.9965 9.12793 26.9965ZM9.84785 25.5348L9.84785 23.7863L14.8574 23.7863L14.8574 25.5348ZM0.829098 9.86659L4.90859 9.86659L5.20683 8.5912C5.59394 7.00663 6.2123 6.10664 8.47558 5.09589L9.25741 4.75058L9.12441 3.00899L7.80136 3.57969C5.20195 4.70176 4.22305 5.97578 3.72422 7.67168L3.5625 8.19863L0.829098 8.19863C0.377733 8.19863 0 8.58437 0 9.0375C0 9.48886 0.377733 9.86659 0.829098 9.86659ZM8.225 4.81581L16.4465 4.81581L16.4465 0.955659C16.4465 0.447654 16.0191 0.0203121 15.5129 0.0203121L9.15234 0.0203121C8.64434 0.0203121 8.225 0.447654 8.225 0.955659ZM9.83183 3.3123L9.83183 1.48378L14.8414 1.48378L14.8414 3.3123ZM19.8164 9.86659L23.8959 9.86659C24.349 9.86659 24.7268 9.48886 24.7268 9.0375C24.7268 8.58437 24.349 8.19863 23.8959 8.19863L21.1643 8.19863L21.0025 7.67168C20.5037 5.97578 19.523 4.70176 16.9254 3.57969L15.6006 3.00899L15.4676 4.75058L16.2512 5.09589C18.5127 6.10664 19.1311 7.00663 19.5182 8.5912Z" fill="white" fill-opacity="0.85"/>
 </g>
</svg>
