<?xml version="1.0" encoding="UTF-8"?>
<!--Generator: Apple Native CoreSVG 341-->
<!DOCTYPE svg
PUBLIC "-//W3C//DTD SVG 1.1//EN"
       "http://www.w3.org/Graphics/SVG/1.1/DTD/svg11.dtd">
<svg version="1.1" xmlns="http://www.w3.org/2000/svg" xmlns:xlink="http://www.w3.org/1999/xlink" viewBox="0 0 18.059 26.2953">
 <g>
  <rect height="26.2953" opacity="0" width="18.059" x="0" y="0"/>
  <path d="M0.835348 26.2953C1.31425 26.2953 1.69023 25.9193 1.69023 25.4564L1.69023 17.932C1.69023 17.4629 1.31425 17.0807 0.835348 17.0807C0.366209 17.0807 0 17.4629 0 17.932L0 25.4564C0 25.9193 0.366209 26.2953 0.835348 26.2953ZM3.97402 20.7371C4.49667 20.7371 4.91015 20.3174 4.91015 19.801C4.91015 19.2783 4.49667 18.8568 3.97402 18.8568C3.45761 18.8568 3.03789 19.2783 3.03789 19.801C3.03789 20.3174 3.45761 20.7371 3.97402 20.7371ZM7.20195 20.7371C7.72636 20.7371 8.13808 20.3174 8.13808 19.801C8.13808 19.2783 7.72636 18.8568 7.20195 18.8568C6.67753 18.8568 6.25781 19.2783 6.25781 19.801C6.25781 20.3174 6.67753 20.7371 7.20195 20.7371ZM10.4316 20.7371C10.9463 20.7371 11.3598 20.3174 11.3598 19.801C11.3598 19.2783 10.9463 18.8568 10.4316 18.8568C9.90546 18.8568 9.4875 19.2783 9.4875 19.801C9.4875 20.3174 9.90546 20.7371 10.4316 20.7371ZM13.6516 20.7371C14.1662 20.7371 14.5877 20.3174 14.5877 19.801C14.5877 19.2783 14.1662 18.8568 13.6516 18.8568C13.1289 18.8568 12.7074 19.2783 12.7074 19.801C12.7074 20.3174 13.1289 20.7371 13.6516 20.7371ZM3.97402 24.5717C4.49667 24.5717 4.91015 24.1502 4.91015 23.6275C4.91015 23.0951 4.49667 22.6834 3.97402 22.6834C3.45761 22.6834 3.03789 23.1031 3.03789 23.6275C3.03789 24.1502 3.45761 24.5717 3.97402 24.5717ZM7.20195 24.5717C7.72636 24.5717 8.13808 24.1502 8.13808 23.6275C8.13808 23.0951 7.72636 22.6834 7.20195 22.6834C6.67753 22.6834 6.25781 23.1031 6.25781 23.6275C6.25781 24.1502 6.67753 24.5717 7.20195 24.5717ZM10.4316 24.5717C10.9463 24.5717 11.3598 24.1502 11.3598 23.6275C11.3598 23.0951 10.9463 22.6834 10.4316 22.6834C9.90546 22.6834 9.4875 23.1031 9.4875 23.6275C9.4875 24.1502 9.90546 24.5717 10.4316 24.5717ZM13.6516 24.5717C14.1662 24.5717 14.5877 24.1502 14.5877 23.6275C14.5877 23.0951 14.1662 22.6834 13.6516 22.6834C13.1289 22.6834 12.7074 23.1031 12.7074 23.6275C12.7074 24.1502 13.1289 24.5717 13.6516 24.5717ZM16.7805 26.2369C17.2496 26.2369 17.6256 25.8627 17.6256 25.4016L17.6256 17.9332C17.6256 17.4623 17.2496 17.0801 16.7805 17.0801C16.3176 17.0801 15.9353 17.4623 15.9353 17.9332L15.9353 25.4016C15.9353 25.8627 16.3176 26.2369 16.7805 26.2369Z" fill="white" fill-opacity="0.85"/>
  <path d="M12.8375 15.2295L12.8375 1.98867C12.8375 0.807227 12.1949 0.166408 11.0215 0.166408L5.3996 0.166408C4.21816 0.166408 3.59335 0.815235 3.59335 1.98867L3.59335 15.2295ZM5.65234 6.49063C5.15937 6.49063 4.87167 6.21621 4.87167 5.76406L4.87167 2.17305C4.87167 1.72715 5.15937 1.44648 5.65234 1.44648L10.767 1.44648C11.2635 1.44648 11.5574 1.72715 11.5574 2.17305L11.5574 5.76406C11.5574 6.21621 11.2617 6.49063 10.767 6.49063ZM2.40898 15.1156C2.40898 15.5068 2.72656 15.8084 3.09374 15.8084L13.3211 15.8084C13.7043 15.8084 14.0139 15.5068 14.0139 15.1156C14.0139 14.7404 13.7043 14.4326 13.3211 14.4326L3.09374 14.4326C2.72656 14.4326 2.40898 14.7324 2.40898 15.1156ZM15.4533 13.9672C16.7797 13.9672 17.5219 13.0705 17.5219 11.5266C17.5219 9.79161 17.1863 7.76993 16.5363 4.62735L16.3906 3.93711C16.2441 3.23848 16.016 2.63399 15.6023 2.11465L14.8226 1.15293C14.3967 0.608011 13.5678 1.24082 14.0293 1.80078L14.9928 3.02266C15.0398 3.07774 15.0416 3.1586 14.998 3.23946L14.4262 4.30235C14.2504 4.63614 14.2904 4.87129 14.5549 5.17305L15.8635 6.55176C16.2738 8.46993 16.4986 10.1848 16.4986 11.5266C16.4986 12.459 16.1336 12.9359 15.4533 12.9359C14.8529 12.9359 14.4994 12.5824 14.4994 11.9305C14.4994 10.9219 14.6717 9.59239 14.6717 8.34669C14.6717 7.0629 14.0254 6.0961 12.4506 5.60157L12.0459 6.54317C13.2018 6.86641 13.6404 7.50489 13.6404 8.34669C13.6404 9.43614 13.4762 10.7674 13.4762 11.9305C13.4762 13.1699 14.2557 13.9672 15.4533 13.9672Z" fill="white" fill-opacity="0.85"/>
 </g>
</svg>
