<?xml version="1.0" encoding="UTF-8"?>
<!--Generator: Apple Native CoreSVG 341-->
<!DOCTYPE svg
PUBLIC "-//W3C//DTD SVG 1.1//EN"
       "http://www.w3.org/Graphics/SVG/1.1/DTD/svg11.dtd">
<svg version="1.1" xmlns="http://www.w3.org/2000/svg" xmlns:xlink="http://www.w3.org/1999/xlink" viewBox="0 0 20.5381 20.1848">
 <g>
  <rect height="20.1848" opacity="0" width="20.5381" x="0" y="0"/>
  <path d="M10.0875 20.175C15.6576 20.175 20.1767 15.6559 20.1767 10.0875C20.1767 4.51914 15.6576 0 10.0875 0C4.51914 0 0 4.51914 0 10.0875C0 15.6559 4.51914 20.175 10.0875 20.175ZM10.0875 18.1879C5.60839 18.1879 1.9871 14.5666 1.9871 10.0875C1.9871 5.60839 5.60839 1.9871 10.0875 1.9871C14.5666 1.9871 18.1897 5.60839 18.1897 10.0875C18.1897 14.5666 14.5666 18.1879 10.0875 18.1879Z" fill="white" fill-opacity="0.85"/>
  <path d="M7.61698 8.94218C7.27323 8.94218 7.07343 8.7539 7.07343 8.44296L7.07343 5.95644C7.07343 5.64374 7.27323 5.4412 7.61698 5.4412L11.1594 5.4412C11.4969 5.4412 11.7109 5.64374 11.7109 5.95644L11.7109 8.44296C11.7109 8.7539 11.4951 8.94218 11.1594 8.94218ZM5.40312 14.9049C5.40312 15.1586 5.608 15.3635 5.8537 15.3635L12.9182 15.3635C13.1639 15.3635 13.375 15.1586 13.375 14.9049C13.375 14.6654 13.1639 14.4623 12.9182 14.4623L12.591 14.4623L12.591 9.17578C13.0014 9.42265 13.1781 9.78945 13.1781 10.2273C13.1781 10.9928 13.0627 11.9111 13.0627 12.7076C13.0627 13.5529 13.583 14.0732 14.4025 14.0732C15.2904 14.0732 15.793 13.4766 15.793 12.4279C15.793 11.2238 15.5576 9.82441 15.1057 7.67089L15.0035 7.1707C14.9103 6.70019 14.7496 6.29628 14.4682 5.94472L13.9353 5.27597C13.6619 4.9289 13.132 5.32655 13.4303 5.68339L14.1043 6.52167C14.1416 6.57675 14.1514 6.63984 14.1043 6.70644L13.7144 7.45156C13.5973 7.66015 13.6186 7.81816 13.8041 8.00546L14.707 8.96874C14.9957 10.3125 15.1557 11.483 15.1557 12.4279C15.1557 13.0904 14.883 13.4377 14.4025 13.4377C13.9691 13.4377 13.7 13.1668 13.7 12.7076C13.7 11.999 13.8074 11.0887 13.8074 10.2273C13.8074 9.43261 13.4514 8.80664 12.591 8.46835L12.591 5.82343C12.591 5.01562 12.1428 4.56913 11.3269 4.56913L7.4414 4.56913C6.63359 4.56913 6.20312 5.01562 6.20312 5.82343L6.20312 14.4623L5.8537 14.4623C5.608 14.4623 5.40312 14.6574 5.40312 14.9049Z" fill="white" fill-opacity="0.85"/>
 </g>
</svg>
