<?xml version="1.0" encoding="UTF-8"?>
<!--Generator: Apple Native CoreSVG 341-->
<!DOCTYPE svg
PUBLIC "-//W3C//DTD SVG 1.1//EN"
       "http://www.w3.org/Graphics/SVG/1.1/DTD/svg11.dtd">
<svg version="1.1" xmlns="http://www.w3.org/2000/svg" xmlns:xlink="http://www.w3.org/1999/xlink" viewBox="0 0 22.4375 14.6191">
 <g>
  <rect height="14.6191" opacity="0" width="22.4375" x="0" y="0"/>
  <path d="M11.5439 14.6191C11.9551 14.6191 12.181 14.4871 12.4972 14.0318L16.1715 8.99862L16.2371 8.99862L19.8933 14.0521C20.1945 14.4756 20.4586 14.6191 20.9015 14.6191C21.5193 14.6191 21.9695 14.184 21.9695 13.591C21.9695 13.3182 21.8853 13.0504 21.7037 12.8201L17.6386 7.33047L21.8068 1.75799C21.984 1.51972 22.0761 1.27948 22.0761 1.03046C22.0761 0.45195 21.6162 0.0087887 21.0324 0.0087887C20.5937 0.0087887 20.3342 0.166404 20.0391 0.604096L16.3851 5.73907L16.3248 5.73907L12.6886 0.604096C12.3785 0.149608 12.149 0.0087887 11.675 0.0087887C11.0308 0.0087887 10.5603 0.446481 10.5603 1.05077C10.5603 1.31132 10.6543 1.57362 10.8191 1.80585L14.8285 7.2789L10.7191 12.9147C10.5533 13.1381 10.4699 13.3766 10.4699 13.6221C10.4699 14.1875 10.9431 14.6191 11.5439 14.6191Z" fill="white" fill-opacity="0.85"/>
  <path d="M1.11015 14.5836C1.79862 14.5836 2.24608 14.1617 2.24608 13.4697L2.24608 8.4496L7.71132 8.4496C8.29432 8.4496 8.6951 8.10292 8.6951 7.52949C8.6951 6.94629 8.29432 6.59434 7.71132 6.59434L2.24608 6.59434L2.24608 2.13983L8.25917 2.13983C8.86874 2.13983 9.27831 1.78612 9.27831 1.18613C9.27831 0.584372 8.86874 0.220898 8.25917 0.220898L1.10038 0.220898C0.429684 0.220898 0 0.644528 0 1.32675L0 13.4697C0 14.1617 0.429684 14.5836 1.11015 14.5836Z" fill="white" fill-opacity="0.85"/>
 </g>
</svg>
