<?xml version="1.0" encoding="UTF-8"?>
<!--Generator: Apple Native CoreSVG 341-->
<!DOCTYPE svg
PUBLIC "-//W3C//DTD SVG 1.1//EN"
       "http://www.w3.org/Graphics/SVG/1.1/DTD/svg11.dtd">
<svg version="1.1" xmlns="http://www.w3.org/2000/svg" xmlns:xlink="http://www.w3.org/1999/xlink" viewBox="0 0 20.5381 20.1848">
 <g>
  <rect height="20.1848" opacity="0" width="20.5381" x="0" y="0"/>
  <path d="M10.0875 20.175C15.6576 20.175 20.1767 15.6559 20.1767 10.0875C20.1767 4.51914 15.6576 0 10.0875 0C4.51914 0 0 4.51914 0 10.0875C0 15.6559 4.51914 20.175 10.0875 20.175ZM10.0875 18.1879C5.60839 18.1879 1.9871 14.5666 1.9871 10.0875C1.9871 5.60839 5.60839 1.9871 10.0875 1.9871C14.5666 1.9871 18.1897 5.60839 18.1897 10.0875C18.1897 14.5666 14.5666 18.1879 10.0875 18.1879Z" fill="white" fill-opacity="0.85"/>
  <path d="M10.101 14.6482C12.5066 14.6482 13.9596 13.2219 13.9596 11.2102L13.9596 10.5992C13.9596 10.0051 13.6225 9.66445 13.0443 9.66445L10.6391 9.66445C10.2295 9.66445 9.99003 9.91992 9.99003 10.2924C9.99003 10.6346 10.2312 10.9141 10.6391 10.9141L12.1643 10.9141L12.1643 11.4521C12.1643 12.4937 11.4641 13.1904 10.1398 13.1904C8.70116 13.1904 7.75116 11.9264 7.75116 10.0172C7.75116 8.13104 8.6914 6.85702 10.1158 6.85702C11.1104 6.85702 11.8252 7.33339 12.1939 8.17714C12.3695 8.50566 12.5842 8.67401 12.9703 8.67401C13.4525 8.67401 13.7549 8.39023 13.7549 7.93261C13.7549 7.75429 13.7301 7.608 13.6564 7.44296C13.1992 6.24413 11.8811 5.37812 10.0769 5.37812C7.53007 5.37812 5.88613 7.1955 5.88613 10.0172C5.88613 12.8486 7.53007 14.6482 10.101 14.6482Z" fill="white" fill-opacity="0.85"/>
 </g>
</svg>
