<?xml version="1.0" encoding="UTF-8"?>
<!--Generator: Apple Native CoreSVG 341-->
<!DOCTYPE svg
PUBLIC "-//W3C//DTD SVG 1.1//EN"
       "http://www.w3.org/Graphics/SVG/1.1/DTD/svg11.dtd">
<svg version="1.1" xmlns="http://www.w3.org/2000/svg" xmlns:xlink="http://www.w3.org/1999/xlink" viewBox="0 0 20.5381 20.1848">
 <g>
  <rect height="20.1848" opacity="0" width="20.5381" x="0" y="0"/>
  <path d="M20.1767 10.0875C20.1767 15.6478 15.6576 20.175 10.0875 20.175C4.52715 20.175 0 15.6478 0 10.0875C0 4.51914 4.52715 0 10.0875 0C15.6576 0 20.1767 4.51914 20.1767 10.0875ZM5.69648 10.0172C5.69648 12.9799 7.42109 14.8717 10.117 14.8717C12.6459 14.8717 14.1635 13.3744 14.1635 11.2723L14.1635 10.6338C14.1635 10.0033 13.8096 9.64765 13.1951 9.64765L10.6834 9.64765C10.2473 9.64765 9.99628 9.9164 9.99628 10.3057C9.99628 10.6726 10.249 10.9619 10.6834 10.9619L12.2762 10.9619L12.2762 11.5258C12.2762 12.6082 11.5467 13.3422 10.1594 13.3422C8.65233 13.3422 7.65526 12.008 7.65526 10.0172C7.65526 8.04139 8.64257 6.71678 10.1336 6.71678C11.1752 6.71678 11.9158 7.21092 12.3041 8.09198C12.4912 8.43202 12.7111 8.61991 13.1256 8.61991C13.6344 8.61991 13.9518 8.31484 13.9518 7.83242C13.9518 7.64082 13.9109 7.49277 13.8435 7.31621C13.3535 6.06152 11.984 5.15644 10.085 5.15644C7.42109 5.15644 5.69648 7.06249 5.69648 10.0172Z" fill="white" fill-opacity="0.85"/>
 </g>
</svg>
