<?xml version="1.0" encoding="UTF-8"?>
<!--Generator: Apple Native CoreSVG 341-->
<!DOCTYPE svg
PUBLIC "-//W3C//DTD SVG 1.1//EN"
       "http://www.w3.org/Graphics/SVG/1.1/DTD/svg11.dtd">
<svg version="1.1" xmlns="http://www.w3.org/2000/svg" xmlns:xlink="http://www.w3.org/1999/xlink" viewBox="0 0 18.5894 18.2316">
 <g>
  <rect height="18.2316" opacity="0" width="18.5894" x="0" y="0"/>
  <path d="M3.20351 18.2281L15.0246 18.2281C17.1404 18.2281 18.2281 17.1502 18.2281 15.0646L18.2281 3.17148C18.2281 1.08769 17.1404 0 15.0246 0L3.20351 0C1.0957 0 0 1.08769 0 3.17148L0 15.0646C0 17.1502 1.0957 18.2281 3.20351 18.2281ZM3.31444 16.3148C2.40643 16.3148 1.91327 15.8465 1.91327 14.8977L1.91327 3.34023C1.91327 2.39139 2.40643 1.91503 3.31444 1.91503L14.9137 1.91503C15.8137 1.91503 16.3148 2.39139 16.3148 3.34023L16.3148 14.8977C16.3148 15.8465 15.8137 16.3148 14.9137 16.3148Z" fill="white" fill-opacity="0.85"/>
  <path d="M9.14043 13.6717C11.5461 13.6717 12.999 12.2453 12.999 10.2336L12.999 9.62265C12.999 9.02851 12.6619 8.68789 12.0838 8.68789L9.68652 8.68789C9.26894 8.68789 9.02949 8.94336 9.02949 9.31581C9.02949 9.658 9.2707 9.93749 9.68652 9.93749L11.2037 9.93749L11.2037 10.4756C11.2037 11.5172 10.5115 12.2139 9.17929 12.2139C7.74061 12.2139 6.79061 10.9498 6.79061 9.04062C6.79061 7.15448 7.73085 5.88045 9.15527 5.88045C10.1498 5.88045 10.8629 6.35682 11.2334 7.20058C11.417 7.52909 11.6236 7.69745 12.0178 7.69745C12.492 7.69745 12.7943 7.41366 12.7943 6.95605C12.7943 6.77773 12.7695 6.63144 12.6959 6.4664C12.2369 5.26757 10.9205 4.40156 9.1164 4.40156C6.56953 4.40156 4.92558 6.21894 4.92558 9.04062C4.92558 11.8721 6.56953 13.6717 9.14043 13.6717Z" fill="white" fill-opacity="0.85"/>
 </g>
</svg>
