<?xml version="1.0" encoding="UTF-8"?>
<!--Generator: Apple Native CoreSVG 341-->
<!DOCTYPE svg
PUBLIC "-//W3C//DTD SVG 1.1//EN"
       "http://www.w3.org/Graphics/SVG/1.1/DTD/svg11.dtd">
<svg version="1.1" xmlns="http://www.w3.org/2000/svg" xmlns:xlink="http://www.w3.org/1999/xlink" viewBox="0 0 18.5894 18.2316">
 <g>
  <rect height="18.2316" opacity="0" width="18.5894" x="0" y="0"/>
  <path d="M18.2281 3.17148L18.2281 15.0646C18.2281 17.1502 17.1404 18.2281 15.0246 18.2281L3.20351 18.2281C1.0957 18.2281 0 17.1502 0 15.0646L0 3.17148C0 1.08769 1.0957 0 3.20351 0L15.0246 0C17.1404 0 18.2281 1.08769 18.2281 3.17148ZM4.74726 9.04062C4.74726 12.0033 6.47363 13.8951 9.16953 13.8951C11.6967 13.8951 13.2142 12.3978 13.2142 10.2957L13.2142 9.65722C13.2142 9.02675 12.8621 8.67109 12.2477 8.67109L9.73593 8.67109C9.2998 8.67109 9.04707 8.93984 9.04707 9.3291C9.04707 9.69609 9.30156 9.98534 9.73593 9.98534L11.327 9.98534L11.327 10.5492C11.327 11.6316 10.5992 12.3656 9.21015 12.3656C7.70487 12.3656 6.7078 11.0314 6.7078 9.04062C6.7078 7.06483 7.69335 5.74022 9.18613 5.74022C10.226 5.74022 10.9684 6.23436 11.3566 7.11542C11.542 7.45546 11.7619 7.64335 12.1781 7.64335C12.6852 7.64335 13.0025 7.33827 13.0025 6.85585C13.0025 6.66425 12.9697 6.51621 12.8943 6.33964C12.406 5.08496 11.0365 4.17988 9.13749 4.17988C6.47363 4.17988 4.74726 6.08593 4.74726 9.04062Z" fill="white" fill-opacity="0.85"/>
 </g>
</svg>
