<?xml version="1.0" encoding="UTF-8"?>
<!--Generator: Apple Native CoreSVG 341-->
<!DOCTYPE svg
PUBLIC "-//W3C//DTD SVG 1.1//EN"
       "http://www.w3.org/Graphics/SVG/1.1/DTD/svg11.dtd">
<svg version="1.1" xmlns="http://www.w3.org/2000/svg" xmlns:xlink="http://www.w3.org/1999/xlink" viewBox="0 0 28.9449 18.0144">
 <g>
  <rect height="18.0144" opacity="0" width="28.9449" x="0" y="0"/>
  <path d="M6.01054 7.10194C6.01054 6.54667 6.36171 6.20078 6.93652 6.20078L8.64472 6.20078L8.64472 4.55019C8.64472 3.97812 8.98164 3.62343 9.54218 3.62343C10.0965 3.62343 10.4396 3.97812 10.4396 4.55019L10.4396 6.20078L12.0359 6.20078C12.6551 6.20078 13.0338 6.54667 13.0338 7.10194C13.0338 7.67323 12.6551 8.02714 12.0359 8.02714L10.4396 8.02714L10.4396 9.67948C10.4396 10.2498 10.0965 10.6125 9.54218 10.6125C8.98164 10.6125 8.64472 10.2498 8.64472 9.67948L8.64472 8.02714L6.93652 8.02714C6.36171 8.02714 6.01054 7.67323 6.01054 7.10194ZM20.6391 7.03241C19.8066 7.03241 19.1135 6.36054 19.1135 5.52011C19.1135 4.66992 19.8066 3.99453 20.6391 3.99453C21.4892 3.99453 22.1629 4.66992 22.1629 5.52011C22.1629 6.36054 21.4892 7.03241 20.6391 7.03241ZM17.6256 10.0777C16.7949 10.0777 16.1035 9.40409 16.1035 8.56366C16.1035 7.72148 16.7949 7.04159 17.6256 7.04159C18.4678 7.04159 19.1512 7.72148 19.1512 8.56366C19.1512 9.40409 18.4678 10.0777 17.6256 10.0777ZM3.81386 18.0144C5.25722 18.0144 6.2455 17.4752 7.11503 16.456L8.85096 14.4299C9.10136 14.143 9.35917 14.0053 9.66093 14.0053L18.9227 14.0053C19.2244 14.0053 19.4822 14.143 19.7326 14.4299L21.4703 16.456C22.3398 17.4734 23.3264 18.0144 24.7697 18.0144C27.0324 18.0144 28.5836 16.523 28.5836 14.1517C28.5836 13.1295 28.3625 11.9695 27.9746 10.6852C27.3736 8.67089 26.3269 5.93925 25.3326 3.83691C24.4857 2.06679 24.0244 1.20098 21.8838 0.716406C20.0074 0.287696 17.4305 0.00800788 14.2967 0.00800788C11.1611 0.00800788 8.57617 0.287696 6.6998 0.716406C4.55918 1.20098 4.09785 2.06679 3.25273 3.83691C2.2584 5.93925 1.20996 8.67089 0.610742 10.6852C0.222852 11.9695 0 13.1295 0 14.1517C0 16.523 1.55117 18.0144 3.81386 18.0144Z" fill="white" fill-opacity="0.85"/>
 </g>
</svg>
