<?xml version="1.0" encoding="UTF-8"?>
<!--Generator: Apple Native CoreSVG 341-->
<!DOCTYPE svg
PUBLIC "-//W3C//DTD SVG 1.1//EN"
       "http://www.w3.org/Graphics/SVG/1.1/DTD/svg11.dtd">
<svg version="1.1" xmlns="http://www.w3.org/2000/svg" xmlns:xlink="http://www.w3.org/1999/xlink" viewBox="0 0 22.449 19.1492">
 <g>
  <rect height="19.1492" opacity="0" width="22.449" x="0" y="0"/>
  <path d="M0 11.0478C0 13.8875 1.09453 16.4892 2.89746 18.4555C3.4082 19.0336 4.28886 19.0875 4.89784 18.4803L6.54686 16.8295C6.90604 16.4801 6.90604 15.9107 6.54686 15.5613C6.19921 15.2022 5.62187 15.2102 5.2787 15.5613L4.12655 16.7055C2.85799 15.1682 2.10467 13.2035 2.10467 11.0461C2.10467 6.0785 6.07225 2.09491 11.0398 2.09491C16.0172 2.09491 19.983 6.0785 19.983 11.0461C19.983 13.2035 19.2297 15.1682 17.9611 16.7055L16.809 15.5613C16.4658 15.2022 15.8902 15.2022 15.5408 15.5613C15.1816 15.9107 15.1816 16.4801 15.5408 16.8295L17.1898 18.4803C17.7971 19.0875 18.6777 19.0336 19.1902 18.4555C20.9932 16.4892 22.0877 13.8875 22.0877 11.0478C22.0877 5.00742 17.0865 0 11.0398 0C5.00117 0 0 5.00742 0 11.0478ZM3.78612 10.1406L1.3574 10.1406L1.3574 11.9516L3.78612 11.9516C4.28006 11.9516 4.68358 11.5365 4.68358 11.0461C4.68358 10.5521 4.28006 10.1406 3.78612 10.1406ZM10.1424 3.7912C10.1424 4.28514 10.5477 4.69666 11.0398 4.69666C11.5418 4.69666 11.9533 4.28514 11.9533 3.7912L11.9533 1.37049L10.1424 1.37049ZM15.5648 5.26093C15.2154 5.60233 15.2074 6.18593 15.5648 6.5371C15.916 6.89452 16.4996 6.88651 16.841 6.5371L18.5555 4.82264L17.2775 3.54647ZM18.3336 10.1406C17.8414 10.1406 17.4281 10.5521 17.4281 11.0461C17.4281 11.5365 17.8414 11.9516 18.3336 11.9516L20.7543 11.9516L20.7543 10.1406Z" fill="white" fill-opacity="0.85"/>
  <path d="M9.79628 12.4941C10.5285 13.2201 11.5906 13.2201 12.3166 12.4941C13.0426 11.7717 13.0426 10.6998 12.3166 9.97382C12.1896 9.84062 11.9082 9.6373 11.6744 9.48496L6.72596 6.09139C6.4369 5.88827 6.14334 5.94159 5.95194 6.12323C5.76581 6.32088 5.71874 6.59842 5.92362 6.9035L9.30566 11.8537C9.46249 12.0857 9.66933 12.3627 9.79628 12.4941Z" fill="white" fill-opacity="0.85"/>
 </g>
</svg>
