<?xml version="1.0" encoding="UTF-8"?>
<!--Generator: Apple Native CoreSVG 341-->
<!DOCTYPE svg
PUBLIC "-//W3C//DTD SVG 1.1//EN"
       "http://www.w3.org/Graphics/SVG/1.1/DTD/svg11.dtd">
<svg version="1.1" xmlns="http://www.w3.org/2000/svg" xmlns:xlink="http://www.w3.org/1999/xlink" viewBox="0 0 20.5381 20.1848">
 <g>
  <rect height="20.1848" opacity="0" width="20.5381" x="0" y="0"/>
  <path d="M10.0875 20.175C15.6576 20.175 20.1767 15.6559 20.1767 10.0875C20.1767 4.51914 15.6576 0 10.0875 0C4.51914 0 0 4.51914 0 10.0875C0 15.6559 4.51914 20.175 10.0875 20.175ZM10.0875 18.1879C5.60839 18.1879 1.9871 14.5666 1.9871 10.0875C1.9871 5.60839 5.60839 1.9871 10.0875 1.9871C14.5666 1.9871 18.1897 5.60839 18.1897 10.0875C18.1897 14.5666 14.5666 18.1879 10.0875 18.1879Z" fill="white" fill-opacity="0.85"/>
  <path d="M6.21483 14.8373C6.71776 14.8373 7.13378 14.4213 7.13378 13.9184C7.13378 13.4154 6.71776 12.9994 6.21483 12.9994C5.71191 12.9994 5.29589 13.4154 5.29589 13.9184C5.29589 14.4213 5.71191 14.8373 6.21483 14.8373ZM4.59257 11.0064C5.0955 11.0064 5.51151 10.5904 5.51151 10.0875C5.51151 9.58457 5.0955 9.16855 4.59257 9.16855C4.08964 9.16855 3.67363 9.58457 3.67363 10.0875C3.67363 10.5904 4.08964 11.0064 4.59257 11.0064ZM6.21483 7.17557C6.71776 7.17557 7.13378 6.75956 7.13378 6.25663C7.13378 5.7457 6.71776 5.33769 6.21483 5.33769C5.71191 5.33769 5.29589 5.7457 5.29589 6.25663C5.29589 6.75956 5.71191 7.17557 6.21483 7.17557ZM10.0795 5.50643C10.5824 5.50643 10.9984 5.09042 10.9984 4.58749C10.9984 4.08456 10.5824 3.66855 10.0795 3.66855C9.57656 3.66855 9.16054 4.08456 9.16054 4.58749C9.16054 5.09042 9.57656 5.50643 10.0795 5.50643ZM15.5504 11.0064C16.0533 11.0064 16.4693 10.5904 16.4693 10.0875C16.4693 9.58457 16.0533 9.16855 15.5504 9.16855C15.0475 9.16855 14.6314 9.58457 14.6314 10.0875C14.6314 10.5904 15.0475 11.0064 15.5504 11.0064ZM13.9281 14.8373C14.4328 14.8373 14.8471 14.4213 14.8471 13.9184C14.8471 13.4154 14.4328 12.9994 13.9281 12.9994C13.4252 12.9994 13.0109 13.4154 13.0109 13.9184C13.0109 14.4213 13.4252 14.8373 13.9281 14.8373ZM8.52304 11.6213C9.1789 12.2771 10.1478 12.2771 10.81 11.6213C10.9271 11.5059 11.1127 11.2422 11.258 11.035L14.3389 6.53241C14.5207 6.26639 14.4754 6.01014 14.3088 5.83554C14.1342 5.66894 13.8699 5.62362 13.6039 5.79745L9.10136 8.88808C8.89238 9.02363 8.63847 9.21093 8.52304 9.32461C7.85742 9.99023 7.85742 10.9592 8.52304 11.6213Z" fill="white" fill-opacity="0.85"/>
 </g>
</svg>
