<?xml version="1.0" encoding="UTF-8"?>
<!--Generator: Apple Native CoreSVG 341-->
<!DOCTYPE svg
PUBLIC "-//W3C//DTD SVG 1.1//EN"
       "http://www.w3.org/Graphics/SVG/1.1/DTD/svg11.dtd">
<svg version="1.1" xmlns="http://www.w3.org/2000/svg" xmlns:xlink="http://www.w3.org/1999/xlink" viewBox="0 0 20.5381 20.1848">
 <g>
  <rect height="20.1848" opacity="0" width="20.5381" x="0" y="0"/>
  <path d="M10.0875 20.175C15.6576 20.175 20.1767 15.6559 20.1767 10.0875C20.1767 4.51914 15.6576 0 10.0875 0C4.51914 0 0 4.51914 0 10.0875C0 15.6559 4.51914 20.175 10.0875 20.175ZM10.0875 18.1879C5.60839 18.1879 1.9871 14.5666 1.9871 10.0875C1.9871 5.60839 5.60839 1.9871 10.0875 1.9871C14.5666 1.9871 18.1897 5.60839 18.1897 10.0875C18.1897 14.5666 14.5666 18.1879 10.0875 18.1879Z" fill="white" fill-opacity="0.85"/>
  <path d="M6.23085 14.8373C6.73378 14.8373 7.14979 14.4213 7.14979 13.9184C7.14979 13.4154 6.73378 12.9994 6.23085 12.9994C5.72792 12.9994 5.31191 13.4154 5.31191 13.9184C5.31191 14.4213 5.72792 14.8373 6.23085 14.8373ZM4.60858 11.0064C5.11327 11.0064 5.52753 10.5904 5.52753 10.0875C5.52753 9.58457 5.11327 9.16855 4.60858 9.16855C4.10566 9.16855 3.6914 9.58457 3.6914 10.0875C3.6914 10.5904 4.10566 11.0064 4.60858 11.0064ZM6.23085 7.17557C6.73378 7.17557 7.14979 6.75956 7.14979 6.25663C7.14979 5.7457 6.73378 5.33769 6.23085 5.33769C5.72792 5.33769 5.31191 5.7457 5.31191 6.25663C5.31191 6.75956 5.72792 7.17557 6.23085 7.17557ZM13.9459 7.17557C14.4488 7.17557 14.8631 6.75956 14.8631 6.25663C14.8631 5.7457 14.4488 5.33769 13.9459 5.33769C13.4412 5.33769 13.027 5.7457 13.027 6.25663C13.027 6.75956 13.4412 7.17557 13.9459 7.17557ZM15.5664 11.0064C16.0711 11.0064 16.4853 10.5904 16.4853 10.0875C16.4853 9.58457 16.0711 9.16855 15.5664 9.16855C15.0635 9.16855 14.6492 9.58457 14.6492 10.0875C14.6492 10.5904 15.0635 11.0064 15.5664 11.0064ZM13.9459 14.8373C14.4488 14.8373 14.8631 14.4213 14.8631 13.9184C14.8631 13.4154 14.4488 12.9994 13.9459 12.9994C13.4412 12.9994 13.027 13.4154 13.027 13.9184C13.027 14.4213 13.4412 14.8373 13.9459 14.8373ZM10.0875 12.4814C11.0238 12.4814 11.7053 11.792 11.7053 10.8637C11.7053 10.6932 11.6564 10.3789 11.6113 10.1353L10.6088 4.76913C10.5476 4.46053 10.333 4.30096 10.0875 4.30096C9.84199 4.30096 9.62734 4.46053 9.56797 4.76913L8.56543 10.1353C8.52031 10.3789 8.47148 10.6932 8.47148 10.8637C8.47148 11.792 9.15918 12.4814 10.0875 12.4814Z" fill="white" fill-opacity="0.85"/>
 </g>
</svg>
