<?xml version="1.0" encoding="UTF-8"?>
<!--Generator: Apple Native CoreSVG 341-->
<!DOCTYPE svg
PUBLIC "-//W3C//DTD SVG 1.1//EN"
       "http://www.w3.org/Graphics/SVG/1.1/DTD/svg11.dtd">
<svg version="1.1" xmlns="http://www.w3.org/2000/svg" xmlns:xlink="http://www.w3.org/1999/xlink" viewBox="0 0 21.5709 21.2015">
 <g>
  <rect height="21.2015" opacity="0" width="21.5709" x="0" y="0"/>
  <path d="M9.61406 21.1918L11.5955 21.1918C12.4019 21.1918 13.0406 20.6906 13.2189 19.9187L13.616 18.191L13.8758 18.1012L15.3832 19.025C16.0637 19.442 16.8594 19.3418 17.4334 18.7678L18.8058 17.4068C19.3869 16.8275 19.4765 16.0221 19.0596 15.3531L18.1197 13.8572L18.2158 13.6152L19.94 13.2066C20.7039 13.0283 21.2096 12.3816 21.2096 11.5832L21.2096 9.65663C21.2096 8.85996 20.7119 8.22129 19.94 8.0332L18.2318 7.6166L18.1277 7.35859L19.0676 5.86269C19.4846 5.19374 19.4029 4.39629 18.8139 3.80898L17.4414 2.44004C16.8754 1.87402 16.0797 1.7623 15.3992 2.18281L13.8918 3.10664L13.616 3.00078L13.2189 1.27304C13.0406 0.499412 12.4019 0 11.5955 0L9.61406 0C8.80761 0 8.16894 0.502928 7.99062 1.27304L7.58554 3.00078L7.30976 3.10664L5.81034 2.18281C5.12988 1.76582 4.32617 1.87402 3.76015 2.44004L2.3957 3.80898C1.80664 4.39629 1.71699 5.19374 2.14199 5.86269L3.07383 7.35859L2.97773 7.6166L1.26953 8.0332C0.494139 8.22304 0 8.85996 0 9.65663L0 11.5832C0 12.3816 0.505663 13.0283 1.26953 13.2066L2.99375 13.6152L3.08184 13.8572L2.15 15.3531C1.725 16.0221 1.82266 16.8275 2.40371 17.4068L3.76816 18.7678C4.34218 19.3418 5.14589 19.442 5.82636 19.025L7.32578 18.1012L7.58554 18.191L7.99062 19.9187C8.16894 20.6906 8.80761 21.1918 9.61406 21.1918ZM9.85644 19.4223C9.69218 19.4223 9.6078 19.3521 9.58026 19.2012L9.00136 16.7951C8.3828 16.6557 7.78925 16.4055 7.3166 16.1031L5.20175 17.4012C5.08632 17.4873 4.95488 17.4793 4.84921 17.3559L3.80761 16.316C3.70018 16.2086 3.69569 16.0932 3.7703 15.9635L5.07362 13.8646C4.80507 13.3982 4.54413 12.8117 4.39491 12.1932L1.98886 11.624C1.83788 11.5965 1.76776 11.5121 1.76776 11.3478L1.76776 9.88397C1.76776 9.71171 1.82987 9.6371 1.98886 9.6078L4.3869 9.03065C4.53964 8.38183 4.82733 7.77402 5.05761 7.35117L3.76229 5.25234C3.67968 5.11464 3.68241 4.99921 3.78983 4.88378L4.8412 3.85995C4.95488 3.74628 5.0623 3.73827 5.20175 3.81464L7.29882 5.08866C7.74159 4.8244 8.38651 4.55917 9.00761 4.39491L9.58026 1.99062C9.6078 1.83964 9.69218 1.76952 9.85644 1.76952L11.3531 1.76952C11.5174 1.76952 11.6 1.83964 11.6213 1.99062L12.21 4.41093C12.8436 4.56542 13.4113 4.82187 13.8947 5.09667L15.9945 3.81815C16.1437 3.74179 16.2414 3.74804 16.3648 3.86347L17.4064 4.8873C17.5219 5.00273 17.5184 5.11816 17.4357 5.25585L16.1439 7.35117C16.3805 7.77226 16.6619 8.38183 16.8129 9.02714L19.2207 9.6078C19.3717 9.6371 19.4418 9.71171 19.4418 9.88397L19.4418 11.3478C19.4418 11.5121 19.3619 11.5965 19.2207 11.624L16.8049 12.1967C16.6557 12.81 16.4027 13.4035 16.1279 13.8646L17.426 15.96C17.5023 16.0896 17.5059 16.2051 17.3904 16.3125L16.3568 17.3523C16.2414 17.4758 16.118 17.482 15.9945 17.3977L13.8885 16.1031C13.407 16.4055 12.8478 16.6486 12.21 16.7951L11.6213 19.2012C11.6 19.3521 11.5174 19.4223 11.3531 19.4223ZM10.6021 14.299C12.6521 14.299 14.3053 12.6459 14.3053 10.5959C14.3053 8.54589 12.6521 6.89277 10.6021 6.89277C8.5539 6.89277 6.89902 8.54589 6.89902 10.5959C6.89902 12.6459 8.5539 14.299 10.6021 14.299ZM10.6021 12.6236C9.48163 12.6236 8.5744 11.7182 8.5744 10.5959C8.5744 9.47362 9.48163 8.56815 10.6021 8.56815C11.7244 8.56815 12.6299 9.47362 12.6299 10.5959C12.6299 11.7182 11.7244 12.6236 10.6021 12.6236Z" fill="white" fill-opacity="0.85"/>
 </g>
</svg>
