<?xml version="1.0" encoding="UTF-8"?>
<!--Generator: Apple Native CoreSVG 341-->
<!DOCTYPE svg
PUBLIC "-//W3C//DTD SVG 1.1//EN"
       "http://www.w3.org/Graphics/SVG/1.1/DTD/svg11.dtd">
<svg version="1.1" xmlns="http://www.w3.org/2000/svg" xmlns:xlink="http://www.w3.org/1999/xlink" viewBox="0 0 22.3363 21.6801">
 <g>
  <rect height="21.6801" opacity="0" width="22.3363" x="0" y="0"/>
  <path d="M10.9826 20.3346C11.2127 20.3346 11.4365 20.3266 11.6586 20.3071L12.1869 21.2989C12.3297 21.5809 12.5877 21.6961 12.891 21.6563C13.2041 21.6057 13.3894 21.392 13.4275 21.0852L13.5918 19.9717C14.0377 19.85 14.4543 19.6928 14.8629 19.5098L15.6904 20.2592C15.9184 20.4756 16.2092 20.4906 16.4779 20.3479C16.7502 20.1953 16.8566 19.9293 16.7928 19.6225L16.5574 18.5268C16.9269 18.2657 17.2689 17.969 17.5949 17.6625L18.6258 18.0869C18.9193 18.1987 19.1986 18.1295 19.4 17.8918C19.6049 17.6559 19.6226 17.3766 19.4523 17.1043L18.8592 16.1578C19.1088 15.7785 19.3308 15.3895 19.5369 14.9907L20.6441 15.0297C20.959 15.0395 21.2019 14.8817 21.3084 14.5836C21.4166 14.3016 21.3377 14.0241 21.0867 13.8369L20.1961 13.1506C20.3142 12.7162 20.3889 12.2703 20.4377 11.8084L21.4961 11.4684C21.7976 11.3717 21.975 11.1465 21.975 10.8352C21.975 10.5239 21.7976 10.2907 21.4961 10.2002L20.4377 9.86195C20.3889 9.39827 20.3142 8.95413 20.1961 8.51976L21.0787 7.83694C21.3394 7.64984 21.4068 7.36878 21.3066 7.07699C21.2019 6.77718 20.959 6.63617 20.6424 6.64418L19.5334 6.66996C19.3308 6.27113 19.1088 5.87406 18.8592 5.50277L19.4461 4.56956C19.6199 4.2973 19.5951 4.00648 19.4062 3.77054C19.1986 3.53109 18.9211 3.47699 18.6338 3.58695L17.5932 4.00609C17.2689 3.68363 16.9189 3.39672 16.5574 3.13558L16.7963 2.04789C16.8619 1.7348 16.7484 1.47504 16.4859 1.32426C16.2092 1.16019 15.9254 1.20805 15.6922 1.41469L14.8549 2.15258C14.4543 1.96957 14.0279 1.82035 13.5855 1.6889L13.431 0.583435C13.3965 0.2766 13.1943 0.0744526 12.899 0.0123434C12.5877-0.0435157 12.3367 0.0930069 12.1904 0.365271L11.6586 1.35355C11.4365 1.34379 11.2127 1.33578 10.9826 1.33578C10.7605 1.33578 10.5385 1.34379 10.3084 1.35355L9.78632 0.371522C9.63554 0.0894914 9.37753-0.0337501 9.08398 0.0123434C8.77089 0.064687 8.58378 0.2766 8.53945 0.583435L8.37343 1.6889C7.9373 1.82035 7.51093 1.97758 7.10409 2.16058L6.28456 1.41117C6.05488 1.19301 5.76406 1.17172 5.48906 1.3225C5.21679 1.47328 5.11836 1.73929 5.18222 2.04613L5.40781 3.14359C5.04004 3.40472 4.69629 3.69164 4.37031 4.00609L3.34121 3.58344C3.0539 3.46371 2.76836 3.54086 2.56523 3.77855C2.36035 4.00648 2.35058 4.29378 2.52265 4.56605L3.11582 5.51078C2.8582 5.88207 2.63613 6.28089 2.43808 6.67972L1.33086 6.64066C1.00801 6.62289 0.771288 6.78871 0.666601 7.07874C0.548633 7.36878 0.637304 7.64456 0.886522 7.83343L1.76914 8.51976C1.65898 8.95413 1.57812 9.39827 1.5373 9.86195L0.470896 10.2002C0.167577 10.2907 0 10.5239 0 10.8352C0 11.1465 0.167577 11.3717 0.470896 11.4684L1.5373 11.8084C1.57812 12.2703 1.65898 12.7162 1.76914 13.1506L0.886522 13.8317C0.635546 14.0205 0.568164 14.3016 0.660351 14.5934C0.771288 14.8914 1.00801 15.0324 1.32461 15.0244L2.43984 14.9924C2.63613 15.3975 2.8582 15.7883 3.11582 16.1658L2.5209 17.1008C2.34707 17.3731 2.37988 17.6639 2.56699 17.8918C2.77636 18.1393 3.05214 18.1934 3.34121 18.0817L4.37207 17.6545C4.69629 17.977 5.04804 18.2657 5.40781 18.5348L5.17695 19.6207C5.11133 19.9276 5.22656 20.1936 5.48906 20.3461C5.76406 20.5084 6.0496 20.4703 6.2748 20.2557L7.1121 19.5098C7.51894 19.7008 7.94531 19.85 8.37968 19.9717L8.53593 21.0772C8.57851 21.392 8.78066 21.5959 9.07597 21.6563C9.38554 21.7139 9.63026 21.5774 9.7828 21.2971L10.3084 20.3071C10.5385 20.3266 10.7605 20.3346 10.9826 20.3346ZM10.9826 18.4481C6.78104 18.4481 3.36971 15.0368 3.36971 10.8352C3.36971 6.62386 6.78104 3.22229 10.9826 3.22229C15.1939 3.22229 18.5955 6.62386 18.5955 10.8352C18.5955 15.0368 15.1939 18.4481 10.9826 18.4481ZM9.11816 9.27074L10.4674 8.4223L7.2953 2.97425L5.87968 3.72718ZM13.2974 11.617L19.6246 11.617L19.6246 10.0268L13.2992 10.0268ZM10.4746 13.2686L9.14219 12.3998L5.77851 17.8998L7.17909 18.6856ZM10.9906 13.5573C12.498 13.5573 13.7144 12.3408 13.7144 10.8352C13.7144 9.32777 12.498 8.11137 10.9906 8.11137C9.48496 8.11137 8.26855 9.32777 8.26855 10.8352C8.26855 12.3408 9.48496 13.5573 10.9906 13.5573ZM10.9906 11.9395C10.3799 11.9395 9.88632 11.4459 9.88632 10.8352C9.88632 10.2227 10.3799 9.72913 10.9906 9.72913C11.6031 9.72913 12.0967 10.2227 12.0967 10.8352C12.0967 11.4459 11.6031 11.9395 10.9906 11.9395Z" fill="white" fill-opacity="0.85"/>
 </g>
</svg>
