<?xml version="1.0" encoding="UTF-8"?>
<!--Generator: Apple Native CoreSVG 341-->
<!DOCTYPE svg
PUBLIC "-//W3C//DTD SVG 1.1//EN"
       "http://www.w3.org/Graphics/SVG/1.1/DTD/svg11.dtd">
<svg version="1.1" xmlns="http://www.w3.org/2000/svg" xmlns:xlink="http://www.w3.org/1999/xlink" viewBox="0 0 24.3311 20.1848">
 <g>
  <rect height="20.1848" opacity="0" width="24.3311" x="0" y="0"/>
  <path d="M23.2486 8.33984L18.6309 8.33984C17.9094 8.33984 17.7301 8.87715 18.1152 9.42129L20.3818 12.5805C20.6926 13.0174 21.1807 13.0254 21.4977 12.5805L23.766 9.42929C24.1609 8.87715 23.9719 8.33984 23.2486 8.33984ZM11.9858 1.9871C16.4649 1.9871 20.0862 5.60839 20.0862 10.091C20.0862 10.6316 20.5311 11.0766 21.0877 11.0766C21.6283 11.0766 22.0652 10.6396 22.0732 10.099C22.0652 4.50937 17.5541 0 11.9858 0C9.19317 0 6.65645 1.15879 4.86016 3.02931C4.3543 3.50392 4.4629 4.17852 4.86036 4.51856C5.20274 4.83027 5.71406 4.90957 6.24726 4.43144C7.6916 2.91776 9.72891 1.9871 11.9858 1.9871ZM0.721107 11.8351L5.34063 11.8351C6.06036 11.8351 6.23965 11.2898 5.85626 10.7537L3.5879 7.58652C3.27716 7.15761 2.79083 7.1496 2.47384 7.58652L0.203725 10.7457C-0.191197 11.2898-0.00838452 11.8351 0.721107 11.8351ZM11.9858 18.1879C7.50665 18.1879 3.8836 14.5666 3.8836 10.084C3.8836 9.5416 3.43243 9.09043 2.88204 9.09043C2.34142 9.09043 1.90451 9.53359 1.8965 10.0742C1.90451 15.6639 6.41564 20.175 11.9858 20.175C14.7783 20.175 17.3151 19.0162 19.1096 17.1457C19.6154 16.6613 19.5069 15.9965 19.1094 15.6484C18.767 15.3447 18.2557 15.2637 17.7225 15.7355C16.2782 17.2475 14.2408 18.1879 11.9858 18.1879Z" fill="white" fill-opacity="0.85"/>
  <path d="M11.5471 15.0863L12.4166 15.0863C12.6863 15.0863 12.8877 14.9275 12.9481 14.6596L13.1879 13.6477C13.3568 13.5863 13.5178 13.5268 13.6565 13.4512L14.5485 13.9984C14.7756 14.1422 15.0346 14.1209 15.2192 13.9328L15.8178 13.3262C16.0121 13.1381 16.0414 12.8648 15.8897 12.6377L15.3522 11.7617C15.4197 11.6105 15.4873 11.4576 15.5309 11.3047L16.5526 11.0666C16.8188 11.0045 16.9793 10.8031 16.9793 10.5236L16.9793 9.67538C16.9793 9.40566 16.8188 9.21054 16.5526 9.15019L15.5406 8.90585C15.4891 8.7289 15.4135 8.57421 15.3602 8.4373L15.8994 7.55155C16.0449 7.32265 16.0299 7.05917 15.8338 6.86484L15.2174 6.26444C15.0311 6.08964 14.7809 6.04081 14.56 6.18105L13.6565 6.73183C13.5178 6.6705 13.3666 6.60292 13.1897 6.54335L12.9481 5.51991C12.8859 5.25194 12.6863 5.09315 12.4166 5.09315L11.5471 5.09315C11.2711 5.09315 11.0777 5.25194 11.0156 5.52167L10.7695 6.53358C10.6068 6.59316 10.4442 6.65448 10.2912 6.73007L9.40372 6.18105C9.17481 6.04081 8.93262 6.07987 8.73829 6.26444L8.12188 6.86484C7.92755 7.05917 7.91251 7.32265 8.05626 7.55155L8.59552 8.4373C8.5422 8.57421 8.47637 8.7289 8.41505 8.90585L7.40313 9.15019C7.13692 9.21054 6.97813 9.40566 6.97813 9.67538L6.97813 10.5236C6.97813 10.8031 7.13692 11.0045 7.40313 11.0666L8.42481 11.3047C8.47813 11.4576 8.53595 11.6105 8.60352 11.7617L8.07579 12.6377C7.91602 12.8648 7.95157 13.1381 8.13966 13.3262L8.73653 13.9328C8.93087 14.1209 9.18809 14.1422 9.41524 13.9984L10.2992 13.4512C10.4459 13.5268 10.6068 13.5863 10.7695 13.6477L11.0156 14.6596C11.0777 14.9275 11.2711 15.0863 11.5471 15.0863ZM11.9787 11.7334C11.0656 11.7334 10.3213 10.9971 10.3213 10.0777C10.3213 9.1664 11.0656 8.4203 11.9787 8.4203C12.8901 8.4203 13.6344 9.1664 13.6344 10.0777C13.6344 10.9971 12.8901 11.7334 11.9787 11.7334Z" fill="white" fill-opacity="0.85"/>
 </g>
</svg>
