<?xml version="1.0" encoding="UTF-8"?>
<!--Generator: Apple Native CoreSVG 341-->
<!DOCTYPE svg
PUBLIC "-//W3C//DTD SVG 1.1//EN"
       "http://www.w3.org/Graphics/SVG/1.1/DTD/svg11.dtd">
<svg version="1.1" xmlns="http://www.w3.org/2000/svg" xmlns:xlink="http://www.w3.org/1999/xlink" viewBox="0 0 20.5381 20.1848">
 <g>
  <rect height="20.1848" opacity="0" width="20.5381" x="0" y="0"/>
  <path d="M20.1767 10.0973C20.1767 15.6656 15.6576 20.1848 10.0875 20.1848C4.52715 20.1848 0 15.6656 0 10.0973C0 4.53691 4.52715 0.00976562 10.0875 0.00976562C15.6576 0.00976562 20.1767 4.53691 20.1767 10.0973ZM10.7092 4.0289L10.4357 4.55995C10.3238 4.55194 10.2057 4.55194 10.0875 4.55194C9.96933 4.55194 9.85742 4.55194 9.73925 4.55995L9.47285 4.0289C9.36992 3.84159 9.18613 3.75995 8.98554 3.78925C8.77695 3.83007 8.62246 3.97206 8.59316 4.1869L8.52929 4.7748C8.30097 4.83964 8.0789 4.92401 7.87011 5.0164L7.4412 4.60878C7.28144 4.46054 7.06659 4.44726 6.8953 4.54843C6.70624 4.66386 6.6121 4.84843 6.65917 5.05351L6.80038 5.63339C6.61562 5.77109 6.42636 5.91855 6.26913 6.07577L5.71503 5.84843C5.5162 5.7703 5.31913 5.81737 5.1789 5.97714C5.05019 6.13515 5.03417 6.36327 5.14159 6.52929L5.46308 7.02831C5.33515 7.21933 5.22499 7.41562 5.11308 7.63242L4.52519 7.59863C4.31659 7.59062 4.13554 7.7123 4.07519 7.90312C3.99706 8.1082 4.05917 8.30878 4.21894 8.43749L4.6994 8.80156C4.64784 9.02988 4.61054 9.24394 4.583 9.48027L4.00936 9.6623C3.80604 9.72089 3.68358 9.88867 3.68358 10.0973C3.68358 10.3139 3.80604 10.4754 4.00936 10.5357L4.583 10.724C4.61054 10.9523 4.64784 11.1727 4.6994 11.401L4.21542 11.765C4.04589 11.9035 3.99081 12.0863 4.06093 12.2834C4.1453 12.476 4.31659 12.6057 4.51991 12.5977L5.11308 12.5621C5.22499 12.7646 5.33515 12.9752 5.47109 13.168L5.13808 13.6652C5.01288 13.8605 5.04218 14.0531 5.16288 14.2094C5.31913 14.3709 5.50819 14.434 5.71151 14.3478L6.25937 14.1107C6.42284 14.268 6.60761 14.4314 6.79863 14.5594L6.65741 15.1525C6.61034 15.3691 6.69823 15.5387 6.87753 15.6479C7.05859 15.741 7.28144 15.7357 7.43593 15.5973L7.87011 15.1799C8.0789 15.2705 8.2912 15.3629 8.51953 15.4277L8.5914 16.0174C8.62246 16.234 8.76894 16.3662 8.96152 16.415C9.17011 16.4381 9.36367 16.3529 9.46757 16.1691L9.73749 15.6346C9.84941 15.6426 9.96757 15.6506 10.0875 15.6506C10.2057 15.6506 10.3158 15.6426 10.434 15.6346L10.7039 16.1674C10.8148 16.3547 10.9844 16.4461 11.201 16.415C11.4016 16.3742 11.5543 16.2242 11.5836 16.0094L11.6537 15.4277C11.882 15.3629 12.0926 15.2705 12.3129 15.1816L12.7436 15.5955C12.9033 15.7375 13.1039 15.7553 13.2832 15.6479C13.4723 15.5387 13.5629 15.3479 13.5158 15.1445L13.3746 14.5611C13.5691 14.4332 13.7504 14.2795 13.9076 14.1223L14.4697 14.3478C14.6668 14.434 14.8576 14.3852 14.9979 14.2174C15.1266 14.0691 15.1506 13.833 15.0352 13.6687L14.7119 13.1697C14.8381 12.9787 14.9482 12.7842 15.0619 12.5719L15.6516 12.5994C15.8602 12.6074 16.0314 12.4902 16.1096 12.2932C16.1779 12.0943 16.1176 11.8955 15.9578 11.7588L15.4836 11.4027C15.5289 11.1744 15.5742 10.9523 15.5937 10.724L16.1736 10.5357C16.3787 10.4754 16.4932 10.3139 16.4932 10.0973C16.4932 9.88867 16.3707 9.72089 16.1736 9.6623L15.5937 9.48027C15.5742 9.24394 15.5289 9.02187 15.4836 8.80156L15.9641 8.4455C16.1256 8.29726 16.1682 8.11972 16.1113 7.92089C16.0412 7.71406 15.8664 7.59863 15.6533 7.59062L15.0619 7.63867C14.9518 7.42636 14.8416 7.22734 14.7199 7.02831L15.0414 6.53905C15.1443 6.34374 15.1328 6.15292 15.0076 5.98515C14.8674 5.82538 14.6668 5.77382 14.4635 5.84042L13.9156 6.08378C13.7504 5.92655 13.5771 5.77909 13.3861 5.63515L13.5256 5.06327C13.5549 4.84667 13.4865 4.66562 13.2992 4.55644C13.1199 4.44726 12.9033 4.46405 12.7453 4.60878L12.3209 5.0164C12.1006 4.93202 11.8838 4.83163 11.6572 4.7748L11.5934 4.18866C11.5463 3.9703 11.4176 3.83183 11.209 3.78925C11.0004 3.75819 10.8148 3.84511 10.7092 4.0289ZM10.0875 14.466C9.45585 14.466 8.858 14.3301 8.31347 14.0777L9.76601 11.6941C9.87167 11.7199 9.98359 11.7279 10.0875 11.7279C10.8004 11.7279 11.4156 11.2644 11.6393 10.6252L14.4137 10.6252C14.1635 12.7818 12.316 14.466 10.0875 14.466ZM8.85019 9.04609C8.60781 9.32929 8.45683 9.69863 8.45683 10.0973C8.45683 10.4941 8.5998 10.8697 8.84492 11.1529L7.39413 13.5258C6.37167 12.7256 5.7285 11.49 5.7285 10.0973C5.7285 8.68671 6.39921 7.42987 7.4332 6.63768ZM10.6682 10.0973C10.6682 10.4178 10.408 10.6779 10.0875 10.6779C9.76874 10.6779 9.50683 10.4178 9.50683 10.0973C9.50683 9.77675 9.76874 9.5166 10.0875 9.5166C10.408 9.5166 10.6682 9.77675 10.6682 10.0973ZM14.4119 9.55957L11.6232 9.55957C11.4059 8.92832 10.7986 8.4666 10.0875 8.4666C9.97558 8.4666 9.86542 8.48261 9.77128 8.50214L8.3578 6.0955C8.88905 5.86444 9.47538 5.73827 10.0875 5.73827C12.316 5.73827 14.1475 7.40292 14.4119 9.55957Z" fill="white" fill-opacity="0.85"/>
 </g>
</svg>
