<?xml version="1.0" encoding="UTF-8"?>
<!--Generator: Apple Native CoreSVG 341-->
<!DOCTYPE svg
PUBLIC "-//W3C//DTD SVG 1.1//EN"
       "http://www.w3.org/Graphics/SVG/1.1/DTD/svg11.dtd">
<svg version="1.1" xmlns="http://www.w3.org/2000/svg" xmlns:xlink="http://www.w3.org/1999/xlink" viewBox="0 0 20.5381 20.1848">
 <g>
  <rect height="20.1848" opacity="0" width="20.5381" x="0" y="0"/>
  <path d="M20.1767 10.0973C20.1767 15.6656 15.6576 20.1848 10.0875 20.1848C4.52715 20.1848 0 15.6656 0 10.0973C0 4.53691 4.52715 0.00976562 10.0875 0.00976562C15.6576 0.00976562 20.1767 4.53691 20.1767 10.0973ZM5.93925 10.7297L5.93925 13.7916C5.93925 14.6367 6.43906 15.092 7.28144 15.092L9.62812 15.092L9.62812 10.7297ZM10.5486 10.7297L10.5486 15.092L12.8953 15.092C13.7377 15.092 14.2375 14.6367 14.2375 13.7916L14.2375 10.7297ZM10.0875 5.71796C9.83613 4.98867 9.22832 4.57343 8.49882 4.57343C7.52324 4.57343 6.7457 5.27558 6.7457 6.2662C6.7457 6.69413 6.91172 7.07949 7.19941 7.3582L6.20253 7.3582C5.61367 7.3582 5.25625 7.63378 5.25625 8.22968L5.25625 9.33867C5.25625 9.89433 5.56777 10.1328 6.12167 10.1328L9.62812 10.1328L9.62812 7.3582L8.88027 7.3582C8.11738 7.3582 7.67148 6.89804 7.67148 6.3457C7.67148 5.82519 8.04999 5.49491 8.58281 5.49491C9.16015 5.49491 9.62812 5.96191 9.62812 6.66542L9.62812 7.3582L10.5486 7.3582L10.5486 6.66542C10.5486 5.96191 11.0148 5.49491 11.6002 5.49491C12.133 5.49491 12.5053 5.82519 12.5053 6.3457C12.5053 6.89804 12.0594 7.3582 11.2965 7.3582L10.5486 7.3582L10.5486 10.1328L14.0631 10.1328C14.617 10.1328 14.9205 9.89433 14.9205 9.33867L14.9205 8.22968C14.9205 7.63378 14.5871 7.3582 13.9822 7.3582L12.9773 7.3582C13.273 7.07949 13.4293 6.69413 13.4293 6.2662C13.4293 5.27558 12.6535 4.57343 11.6842 4.57343C10.9564 4.57343 10.3406 4.98867 10.0875 5.71796Z" fill="white" fill-opacity="0.85"/>
 </g>
</svg>
