<?xml version="1.0" encoding="UTF-8"?>
<!--Generator: Apple Native CoreSVG 341-->
<!DOCTYPE svg
PUBLIC "-//W3C//DTD SVG 1.1//EN"
       "http://www.w3.org/Graphics/SVG/1.1/DTD/svg11.dtd">
<svg version="1.1" xmlns="http://www.w3.org/2000/svg" xmlns:xlink="http://www.w3.org/1999/xlink" viewBox="0 0 23.467 16.9074">
 <g>
  <rect height="16.9074" opacity="0" width="23.467" x="0" y="0"/>
  <path d="M0 8.21914L7.24746 8.21914C6.04258 7.63145 5.2205 6.58437 5.2205 5.33203C5.2205 3.84121 6.33828 2.7164 7.83242 2.7164C9.09531 2.7164 10.2012 3.47773 10.8574 4.725L10.8574 0.00976562L12.258 0.00976562L12.258 4.725C12.9205 3.47773 14.0281 2.7164 15.283 2.7164C16.7852 2.7164 17.8949 3.84121 17.8949 5.33203C17.8949 6.58437 17.0809 7.63145 15.868 8.21914L23.1057 8.21914L23.1057 9.50605L13.3018 9.50429C13.8816 10.6742 15.7244 12.3717 17.0844 12.5445C17.6752 12.6285 18.0008 12.9764 18.0008 13.5221C18.0008 14.025 17.6016 14.5109 16.9356 14.417C15.3691 14.1756 13.01 12.4139 12.3326 10.3517L12.258 10.3517L12.258 16.9074L10.8574 16.9074L10.8574 10.3517L10.7891 10.3517C10.1135 12.4139 7.75429 14.1756 6.18612 14.417C5.52187 14.5109 5.12265 14.025 5.12265 13.5221C5.12265 12.9764 5.44823 12.6365 6.03105 12.5445C7.39902 12.3557 9.23379 10.6742 9.82168 9.50429L0 9.50605ZM10.3893 8.08926L10.6736 8.08926L10.6736 7.81211C10.6736 5.96171 9.41308 4.32831 7.96327 4.32831C7.26327 4.32831 6.81112 4.77519 6.81112 5.50722C6.81112 6.74902 8.45898 8.08926 10.3893 8.08926ZM12.7262 8.08926C14.6627 8.08926 16.3043 6.74902 16.3043 5.50722C16.3043 4.77519 15.8602 4.32831 15.1521 4.32831C13.7006 4.32831 12.4418 5.96171 12.4418 7.81211L12.4418 8.08926ZM3.20351 16.9057L19.9021 16.9057C22.0197 16.9057 23.1057 15.826 23.1057 13.7422L23.1057 3.17949C23.1057 1.0957 22.0197 0.00800788 19.9021 0.00800788L3.20351 0.00800788C1.0957 0.00800788 0 1.0957 0 3.17949L0 13.7422C0 15.826 1.0957 16.9057 3.20351 16.9057Z" fill="white" fill-opacity="0.85"/>
 </g>
</svg>
