<?xml version="1.0" encoding="UTF-8"?>
<!--Generator: Apple Native CoreSVG 341-->
<!DOCTYPE svg
PUBLIC "-//W3C//DTD SVG 1.1//EN"
       "http://www.w3.org/Graphics/SVG/1.1/DTD/svg11.dtd">
<svg version="1.1" xmlns="http://www.w3.org/2000/svg" xmlns:xlink="http://www.w3.org/1999/xlink" viewBox="0 0 20.5381 20.1848">
 <g>
  <rect height="20.1848" opacity="0" width="20.5381" x="0" y="0"/>
  <path d="M11.0113 16.1228C11.8785 16.1228 12.3891 15.3205 12.3891 13.4986C12.3891 12.0006 14.0592 10.6793 14.6676 10.6793C15.5236 10.6793 15.6908 13.4805 18.5883 13.5748C18.9779 12.3953 19.2408 11.2295 19.2213 10.0928C19.1299 4.71093 14.6562 0.831633 10.1084 0.891984C8.35038 0.913273 6.65976 1.48769 5.12733 2.61171C5.67421 3.36835 5.77284 3.46484 5.77284 3.75956C5.77284 4.16132 5.0662 4.27675 4.94901 4.91327C4.87089 5.29511 4.60976 5.5537 4.29179 5.5537C3.92597 5.5537 3.42519 5.13769 3.27812 4.19374C1.76874 5.6455 1.01327 7.72148 1.01327 10.0732C1.01327 11.7209 1.45526 13.3412 2.47538 14.9092C4.06366 14.634 4.59354 14.0353 4.59354 12.7812C4.59354 11.61 5.53026 11.5885 5.53026 10.6215C5.53026 10.1822 5.08046 9.85214 4.28749 9.1791L3.64823 8.64199C3.53808 8.55136 3.49101 8.42968 3.49101 8.30351C3.49101 8.06015 3.6748 7.8248 3.94218 7.8248C4.12069 7.8248 4.22909 7.93495 4.71737 8.35312C5.4037 8.93378 5.72773 9.21874 6.12538 9.21874C6.54608 9.21874 6.71484 8.95058 6.97773 8.95058C7.19003 8.95058 7.3162 9.07324 7.41034 9.32636L7.73886 10.2213C8.12851 11.3441 8.99609 11.1502 9.20117 12.3318C9.6832 15.2172 10.1059 16.1228 11.0113 16.1228ZM10.0875 20.175C15.6576 20.175 20.1767 15.6559 20.1767 10.0875C20.1767 4.51914 15.6576 0 10.0875 0C4.51914 0 0 4.51914 0 10.0875C0 15.6559 4.51914 20.175 10.0875 20.175ZM10.0875 18.6113C5.38339 18.6113 1.56542 14.7916 1.56542 10.0875C1.56542 5.38339 5.38339 1.56366 10.0875 1.56366C14.7934 1.56366 18.6113 5.38339 18.6113 10.0875C18.6113 14.7916 14.7934 18.6113 10.0875 18.6113Z" fill="white" fill-opacity="0.85"/>
 </g>
</svg>
