<?xml version="1.0" encoding="UTF-8"?>
<!--Generator: Apple Native CoreSVG 341-->
<!DOCTYPE svg
PUBLIC "-//W3C//DTD SVG 1.1//EN"
       "http://www.w3.org/Graphics/SVG/1.1/DTD/svg11.dtd">
<svg version="1.1" xmlns="http://www.w3.org/2000/svg" xmlns:xlink="http://www.w3.org/1999/xlink" viewBox="0 0 20.5381 20.1848">
 <g>
  <rect height="20.1848" opacity="0" width="20.5381" x="0" y="0"/>
  <path d="M2.41738 14.3713C3.87968 13.2791 3.84316 11.4164 4.38574 11.4164C4.6832 11.4164 4.9789 11.6766 5.50097 12.3451C6.39413 13.4949 6.98808 14.0728 7.59355 14.0728C8.16171 14.0728 8.85331 13.2463 8.85331 12.5787C8.85331 12.2768 8.27792 11.8728 8.27792 11.6402C8.27792 11.5088 8.41288 11.4404 8.59765 11.4404C9.94296 11.4404 11.168 10.3127 11.168 9.3912C11.168 8.74218 10.1035 8.14199 10.1035 7.72382C10.1035 7.54628 10.2535 7.42909 10.431 7.42909C10.5482 7.42909 10.6832 7.47617 10.8467 7.59609C11.9111 8.44472 12.4057 7.98945 12.5086 7.46816C12.5494 7.25058 12.6693 7.01445 13.2172 6.74452C14.3828 6.12402 15.1908 5.29648 15.1908 4.64394C15.1908 3.92206 13.8785 3.29179 13.8785 3.01562C13.8785 2.86288 14.1068 2.73671 14.732 2.54667C13.7455 1.64628 12.1809 0.960147 10.0549 0.960147C4.59706 1.18378 1.03241 5.05175 1.00136 10.1033C0.991594 11.6853 1.48964 13.2383 2.41738 14.3713ZM14.3867 18.234C16.2902 17.0168 17.6859 15.5482 18.5721 13.8488C18.4113 12.6094 17.8139 11.885 16.9758 11.885C16.7529 11.885 16.4715 11.924 16.2193 12.0119C15.8898 12.1158 15.825 12.098 15.5568 11.7926C15.168 11.3469 14.8279 11.1924 14.2943 11.1924C13.2857 11.1924 12.7016 11.7197 12.2639 13.0223C12.1422 13.4139 11.9699 13.5488 11.2969 13.809L10.8937 13.9537C10.1338 14.2449 9.93847 14.79 10.1986 15.9354C10.4312 16.9422 10.9178 17.4598 11.6094 17.4598C12.2309 17.4598 12.6064 17.2352 13.0291 17.2352C13.6453 17.2174 13.9508 17.6223 14.3867 18.234ZM12.4023 9.53222C13.0318 9.53222 13.3133 8.97109 14.0191 8.758C14.4861 8.62128 14.7365 8.14804 14.7365 7.73964C14.7365 7.41113 14.5723 7.12968 14.2145 7.12968C13.8353 7.12968 13.4873 7.42089 13.2547 7.91542C13.1295 8.19511 12.9146 8.33183 12.4023 8.47656C11.9957 8.60175 11.851 8.74824 11.851 9.05722C11.851 9.38749 12.1111 9.53222 12.4023 9.53222ZM9.59316 13.9666C10.1463 13.9666 10.6879 13.3273 10.6879 12.7564C10.6879 12.0488 10.3949 11.7203 10.0584 11.7203C9.69082 11.7203 9.4582 12.1562 9.4582 12.8133C9.4582 13.1924 9.12793 13.2039 9.12793 13.5812C9.12793 13.8139 9.31171 13.9666 9.59316 13.9666ZM7.85781 15.7607C8.28222 15.7607 8.5459 15.5396 8.5459 15.1881C8.5459 14.9182 8.34082 14.7424 8.04961 14.7424C6.88027 14.7424 6.83144 14.0853 6.26855 14.0853C5.95957 14.0853 5.74472 14.2691 5.74472 14.5391C5.74472 14.7521 5.95957 14.9182 6.24902 14.9182C6.86875 14.9182 6.57754 15.7607 7.85781 15.7607ZM10.0875 20.175C15.6576 20.175 20.1767 15.6559 20.1767 10.0875C20.1767 4.51914 15.6576 0 10.0875 0C4.51914 0 0 4.51914 0 10.0875C0 15.6559 4.51914 20.175 10.0875 20.175ZM10.0875 18.6113C5.38339 18.6113 1.56542 14.7916 1.56542 10.0875C1.56542 5.38339 5.38339 1.56366 10.0875 1.56366C14.7934 1.56366 18.6113 5.38339 18.6113 10.0875C18.6113 14.7916 14.7934 18.6113 10.0875 18.6113Z" fill="white" fill-opacity="0.85"/>
 </g>
</svg>
