<?xml version="1.0" encoding="UTF-8"?>
<!--Generator: Apple Native CoreSVG 341-->
<!DOCTYPE svg
PUBLIC "-//W3C//DTD SVG 1.1//EN"
       "http://www.w3.org/Graphics/SVG/1.1/DTD/svg11.dtd">
<svg version="1.1" xmlns="http://www.w3.org/2000/svg" xmlns:xlink="http://www.w3.org/1999/xlink" viewBox="0 0 20.5381 20.1848">
 <g>
  <rect height="20.1848" opacity="0" width="20.5381" x="0" y="0"/>
  <path d="M2.43163 15.1016C3.89491 14.8619 4.7664 14.3309 4.7664 12.7988C4.7664 11.7758 5.70136 11.7064 5.70136 10.6039C5.70136 10.1086 5.2203 9.70917 4.41581 9.05117L3.77655 8.53535C3.71073 8.48554 3.66542 8.40019 3.66542 8.32109C3.66542 8.15312 3.8121 8.00644 3.96854 8.00644C4.09296 8.00644 4.21464 8.12987 4.6373 8.49218C5.32187 9.07284 5.68671 9.39687 6.14296 9.39687C6.5871 9.39687 6.75995 9.1287 6.99003 9.1287C7.12245 9.1287 7.2078 9.20253 7.28066 9.40507L7.66777 10.4775C8.08144 11.6725 8.82382 11.5527 8.95702 12.3689C9.36718 15.1734 9.85898 16.2816 11.0131 16.2816C12.1504 16.2816 12.5391 15.2631 12.5391 13.5127C12.5391 12.2135 14.1027 10.8521 14.657 10.8521C15.3287 10.8521 15.6488 13.7287 18.6764 13.7564L18.6764 12.7191C15.8555 12.7012 16.5381 9.81484 14.657 9.81484C13.533 9.81484 11.5018 11.7432 11.5018 13.5127C11.5018 14.8082 11.3898 15.2443 11.0131 15.2443C10.5422 15.2443 10.2838 14.301 9.97304 12.2074C9.74843 10.7603 9.01523 11.092 8.67401 10.1945L8.12538 8.79452C7.9123 8.22714 7.52519 7.99999 7.09296 7.99999C6.66659 7.99999 6.27714 8.32148 6.11991 8.32148C5.99198 8.32148 5.5328 7.91113 5.27792 7.68554C4.8455 7.30195 4.43007 6.96913 3.97206 6.96913C3.25741 6.96913 2.62812 7.66425 2.62812 8.30331C2.62812 9.26308 4.66405 10.141 4.66405 10.7131C4.66405 11.4289 3.72909 11.3049 3.72909 12.7748C3.72909 13.9088 3.11718 13.9143 2.22753 14.0838ZM2.78749 4.45097C2.89413 5.39355 3.51366 6.13378 4.29042 6.13378C4.90643 6.13378 5.42928 5.72812 5.57928 5.11738C5.64413 4.8705 5.70721 4.77363 5.89022 4.66347C6.31718 4.42734 6.51425 4.15663 6.51425 3.69238C6.51425 3.21034 6.16796 2.71679 5.56718 2.09199L4.82714 2.80273C5.27538 3.28827 5.47519 3.42148 5.47519 3.65156C5.47519 3.94843 4.87401 3.9164 4.73554 4.6248C4.67245 4.94199 4.46542 5.09472 4.28241 5.09472C4.09237 5.09472 3.77421 4.84453 3.72518 4.27734ZM10.0875 20.175C15.6576 20.175 20.1767 15.6559 20.1767 10.0875C20.1767 4.51914 15.6576 0 10.0875 0C4.51914 0 0 4.51914 0 10.0875C0 15.6559 4.51914 20.175 10.0875 20.175ZM10.0875 18.6113C5.38339 18.6113 1.56542 14.7916 1.56542 10.0875C1.56542 5.38339 5.38339 1.56366 10.0875 1.56366C14.7934 1.56366 18.6113 5.38339 18.6113 10.0875C18.6113 14.7916 14.7934 18.6113 10.0875 18.6113Z" fill="white" fill-opacity="0.85"/>
 </g>
</svg>
