<?xml version="1.0" encoding="UTF-8"?>
<!--Generator: Apple Native CoreSVG 341-->
<!DOCTYPE svg
PUBLIC "-//W3C//DTD SVG 1.1//EN"
       "http://www.w3.org/Graphics/SVG/1.1/DTD/svg11.dtd">
<svg version="1.1" xmlns="http://www.w3.org/2000/svg" xmlns:xlink="http://www.w3.org/1999/xlink" viewBox="0 0 20.5381 20.1848">
 <g>
  <rect height="20.1848" opacity="0" width="20.5381" x="0" y="0"/>
  <path d="M10.4643 17.417C12.2541 17.417 13.775 14.6514 14.1719 13.9996C14.6682 13.1971 14.4355 12.398 14.4355 11.9105C14.4355 11.5766 15.4584 10.8379 15.4584 9.99355C15.4584 9.16933 13.4687 8.48574 13.4687 7.99042C13.4687 7.69902 13.6996 7.42206 13.9359 7.42206C14.3603 7.42206 15.4291 8.8164 16.0125 8.8164C16.3978 8.8164 16.4043 8.44472 16.6191 8.44472C17.0979 8.44472 17.2059 11.2299 18.8269 12.0012C19.2873 11.5516 19.6133 10.9228 19.6133 10.0893C19.6133 4.92929 15.3373 0.555468 10.0795 0.563475C7.23886 0.571483 6.09785 1.6584 6.09785 2.73691C6.09785 4.05839 5.06699 4.36015 5.06699 5.158C5.06699 5.63749 5.40351 5.94921 5.92382 5.94921C7.00215 5.94921 7.09609 4.75741 7.65292 4.75741C8.058 4.76542 8.425 5.3871 9.13613 5.3871C9.43554 5.3871 9.60058 5.20487 9.6289 4.91191C9.65195 4.78144 9.71757 4.71933 9.83652 4.71933C10.458 4.71933 11.1127 5.42245 11.1127 5.82226C11.1127 6.21484 10.9547 6.51152 10.7061 6.51152C10.3035 6.51152 9.22382 6.0291 8.25429 6.0291C6.07031 6.0291 4.26347 7.55371 4.26347 9.39335C4.26347 10.9994 5.21249 11.9369 6.86386 11.9369C7.84335 11.9369 8.56445 12.6012 8.56445 13.5025C8.56445 14.9285 8.4082 17.417 10.4643 17.417ZM12.9691 4.32714C12.6307 4.32714 12.4965 4.5039 12.1717 4.5039C11.8584 4.5039 11.6232 4.27851 11.6232 3.96523C11.6232 3.48944 12.0937 3.2205 12.8945 3.2205C13.5781 3.2205 14.0957 3.57733 14.0957 4.04335C14.0957 4.31132 13.9191 4.52519 13.692 4.52519C13.3352 4.52519 13.1584 4.32714 12.9691 4.32714ZM10.0875 20.175C15.6576 20.175 20.1767 15.6559 20.1767 10.0875C20.1767 4.51914 15.6576 0 10.0875 0C4.51914 0 0 4.51914 0 10.0875C0 15.6559 4.51914 20.175 10.0875 20.175ZM10.0875 18.6113C5.38339 18.6113 1.56542 14.7916 1.56542 10.0875C1.56542 5.38339 5.38339 1.56366 10.0875 1.56366C14.7934 1.56366 18.6113 5.38339 18.6113 10.0875C18.6113 14.7916 14.7934 18.6113 10.0875 18.6113Z" fill="white" fill-opacity="0.85"/>
 </g>
</svg>
