<?xml version="1.0" encoding="UTF-8"?>
<!--Generator: Apple Native CoreSVG 341-->
<!DOCTYPE svg
PUBLIC "-//W3C//DTD SVG 1.1//EN"
       "http://www.w3.org/Graphics/SVG/1.1/DTD/svg11.dtd">
<svg version="1.1" xmlns="http://www.w3.org/2000/svg" xmlns:xlink="http://www.w3.org/1999/xlink" viewBox="0 0 19.7133 22.4289">
 <g>
  <rect height="22.4289" opacity="0" width="19.7133" x="0" y="0"/>
  <path d="M4.99335 4.69354L6.27011 3.41855L3.13788 0.296092C2.78945-0.0585938 2.20957-0.0603515 1.86465 0.296092C1.51621 0.64277 1.51797 1.21464 1.86465 1.56933ZM17.7582 16.0541L16.4992 14.7641C14.9465 16.368 12.79 17.3293 10.3533 17.3293C5.5582 17.3293 1.80253 13.5754 1.80253 8.77851C1.80253 6.35156 2.76386 4.19863 4.34823 2.65214L3.03867 1.41973C1.15547 3.28105 0 5.8789 0 8.77851C0 14.5543 4.58105 19.1318 10.3533 19.1318C13.2742 19.1318 15.8853 17.9586 17.7582 16.0541ZM15.6139 12.7721L14.283 13.9832L17.8189 17.5174C18.1674 17.8623 18.7375 17.864 19.0842 17.5174C19.4406 17.1707 19.4406 16.5908 19.0842 16.2424ZM9.44804 18.6039L9.44804 21.3861L11.2506 21.3861L11.2506 18.6039ZM6.79296 22.4289L13.9314 22.4289C14.4244 22.4289 14.8287 22.0246 14.8287 21.5316C14.8287 21.0387 14.4244 20.6281 13.9314 20.6281L6.79296 20.6281C6.30176 20.6281 5.88769 21.0387 5.88769 21.5316C5.88769 22.0246 6.30176 22.4289 6.79296 22.4289ZM10.3533 16.0072C14.34 16.0072 17.5758 12.7715 17.5758 8.77851C17.5758 4.79355 14.34 1.55605 10.3533 1.55605C6.36035 1.55605 3.1246 4.79355 3.1246 8.77851C3.1246 12.7715 6.36035 16.0072 10.3533 16.0072Z" fill="white" fill-opacity="0.85"/>
 </g>
</svg>
