<?xml version="1.0" encoding="UTF-8"?>
<!--Generator: Apple Native CoreSVG 341-->
<!DOCTYPE svg
PUBLIC "-//W3C//DTD SVG 1.1//EN"
       "http://www.w3.org/Graphics/SVG/1.1/DTD/svg11.dtd">
<svg version="1.1" xmlns="http://www.w3.org/2000/svg" xmlns:xlink="http://www.w3.org/1999/xlink" viewBox="0 0 20.5381 20.1848">
 <g>
  <rect height="20.1848" opacity="0" width="20.5381" x="0" y="0"/>
  <path d="M2.41132 14.417L3.52265 12.299C3.79433 11.7867 4.07675 11.4705 4.36992 11.4705C4.65507 11.4705 4.96328 11.7654 5.42851 12.3691C6.34628 13.5541 6.95273 14.1269 7.57597 14.1269C8.19374 14.1269 8.90917 13.2605 8.90917 12.643C8.90917 12.2396 8.36015 11.8463 8.33906 11.6385C8.33378 11.5496 8.41288 11.4945 8.55781 11.4945C9.95898 11.4945 11.2238 10.3385 11.2238 9.37363C11.2238 8.47617 10.2623 7.80058 10.2623 7.52949C10.2623 7.47441 10.3059 7.43085 10.3592 7.43085C10.4435 7.43085 10.5467 7.52148 10.7625 7.69199C11.8721 8.58398 12.4172 8.06406 12.5219 7.52773C12.5644 7.30761 12.6852 7.10507 13.1906 6.8457C14.2449 6.29199 15.2432 5.38105 15.2432 4.62812C15.2432 3.633 13.9309 3.22011 13.9309 2.99628C13.9309 2.85683 14.2443 2.7289 14.842 2.57421L14.5838 1.56093C13.5355 1.82812 12.7658 2.33671 12.7658 2.93593C12.7658 3.71894 14.2023 4.18573 14.2023 4.62812C14.2023 5.06328 13.3898 5.54472 12.7852 5.87675C11.7314 6.48124 11.8113 6.77753 11.6852 7.04335C11.4516 7.44765 10.9959 6.56933 10.1818 6.56933C9.67773 6.56933 9.29785 6.89765 9.29785 7.39121C9.29785 8.14843 10.1795 8.85683 10.1795 9.37363C10.1795 9.98632 9.46035 10.5531 8.25527 10.5531C7.56816 10.5531 7.19003 10.8629 7.19003 11.4008C7.19003 11.9254 7.82402 12.4154 7.82402 12.6641C7.82402 12.832 7.69863 12.993 7.59726 12.993C7.40097 12.993 6.94648 12.6061 6.25722 11.7268C5.61015 10.8844 5.02597 10.4262 4.43027 10.4262C3.61327 10.4262 3.07538 11.0791 2.74628 11.6832L1.79277 13.4269ZM14.3559 18.3894L15.1926 17.7488C14.7566 17.1699 14.2018 16.2887 13.0115 16.2887C12.2811 16.2887 12.1557 16.5195 11.6797 16.5195C11.4131 16.5195 11.2691 16.2885 11.1439 15.7654C11.025 15.2967 10.9885 14.9848 11.2648 14.8736C11.6076 14.7457 12.7893 14.6019 13.1914 13.3502C13.4658 12.5234 13.7172 12.2072 14.1613 12.2072C14.9572 12.2072 14.8908 13.0871 15.8492 13.0871C16.2957 13.0871 16.5266 12.8998 16.8268 12.8998C17.2354 12.8998 17.5125 13.325 17.5836 14.331L18.6297 13.9281C18.4689 12.625 17.8432 11.859 16.9582 11.859C16.723 11.859 16.4336 11.898 16.177 11.9859C15.8881 12.0811 15.8287 12.0633 15.5959 11.7914C15.192 11.3324 14.8352 11.1629 14.275 11.1629C13.2816 11.1629 12.6434 11.6572 12.1781 13.0494C12.0662 13.4144 11.9125 13.5309 11.2527 13.7812L10.8461 13.9277C10.0641 14.226 9.83945 14.8012 10.1111 15.9926C10.3553 17.0393 10.8701 17.5736 11.5936 17.5736C12.2283 17.5736 12.6039 17.3508 13.0115 17.3508C13.6109 17.333 13.8916 17.7326 14.3559 18.3894ZM12.4234 9.51113C13.0529 9.51113 13.3344 8.94999 14.0402 8.73867C14.5055 8.60195 14.7576 8.12695 14.7576 7.71855C14.7576 7.39003 14.5934 7.10859 14.2338 7.10859C13.8564 7.10859 13.5066 7.40156 13.274 7.89433C13.1506 8.17402 12.9357 8.31074 12.4234 8.45546C12.0168 8.58066 11.8721 8.72714 11.8721 9.03613C11.8721 9.3664 12.1305 9.51113 12.4234 9.51113ZM9.59316 13.9666C10.1463 13.9666 10.6879 13.3273 10.6879 12.7564C10.6879 12.0488 10.3949 11.7203 10.0584 11.7203C9.69082 11.7203 9.4582 12.1562 9.4582 12.8133C9.4582 13.1924 9.12793 13.2039 9.12793 13.5812C9.12793 13.8139 9.31171 13.9666 9.59316 13.9666ZM7.91933 15.7607C8.34374 15.7607 8.60742 15.5396 8.60742 15.1881C8.60742 14.9182 8.40234 14.7424 8.11113 14.7424C6.94179 14.7424 6.89296 14.0853 6.33007 14.0853C6.02109 14.0853 5.80624 14.2691 5.80624 14.5391C5.80624 14.7521 6.02109 14.9182 6.31054 14.9182C6.93202 14.9182 6.63906 15.7607 7.91933 15.7607ZM10.0875 20.175C15.6576 20.175 20.1767 15.6559 20.1767 10.0875C20.1767 4.51914 15.6576 0 10.0875 0C4.51914 0 0 4.51914 0 10.0875C0 15.6559 4.51914 20.175 10.0875 20.175ZM10.0875 18.6113C5.38339 18.6113 1.56542 14.7916 1.56542 10.0875C1.56542 5.38339 5.38339 1.56366 10.0875 1.56366C14.7934 1.56366 18.6113 5.38339 18.6113 10.0875C18.6113 14.7916 14.7934 18.6113 10.0875 18.6113Z" fill="white" fill-opacity="0.85"/>
 </g>
</svg>
