<?xml version="1.0" encoding="UTF-8"?>
<!--Generator: Apple Native CoreSVG 341-->
<!DOCTYPE svg
PUBLIC "-//W3C//DTD SVG 1.1//EN"
       "http://www.w3.org/Graphics/SVG/1.1/DTD/svg11.dtd">
<svg version="1.1" xmlns="http://www.w3.org/2000/svg" xmlns:xlink="http://www.w3.org/1999/xlink" viewBox="0 0 20.5381 20.1848">
 <g>
  <rect height="20.1848" opacity="0" width="20.5381" x="0" y="0"/>
  <path d="M10.0875 20.175C15.6576 20.175 20.1767 15.6559 20.1767 10.0875C20.1767 4.51914 15.6576 0 10.0875 0C4.51914 0 0 4.51914 0 10.0875C0 15.6559 4.51914 20.175 10.0875 20.175ZM10.0875 18.1879C5.60839 18.1879 1.9871 14.5666 1.9871 10.0875C1.9871 5.60839 5.60839 1.9871 10.0875 1.9871C14.5666 1.9871 18.1897 5.60839 18.1897 10.0875C18.1897 14.5666 14.5666 18.1879 10.0875 18.1879Z" fill="white" fill-opacity="0.85"/>
  <path d="M15.6834 7.74453L11.3002 5.75097C10.8412 5.54414 10.4568 5.43847 10.0795 5.44648C9.70214 5.43847 9.32578 5.54414 8.85878 5.75097L4.48534 7.74453C4.17831 7.88828 4.01776 8.14472 4.01776 8.3957C4.01776 8.65644 4.17831 8.89863 4.48534 9.04062L6.2205 9.82519L9.09785 8.49257C9.08183 8.45703 9.07382 8.43125 9.07382 8.3957C9.07382 8.06035 9.58691 7.8332 10.0955 7.8332C10.6059 7.8332 11.1109 8.06035 11.1109 8.3957C11.1109 8.74257 10.6059 8.97597 10.0955 8.97597C9.93574 8.97597 9.78222 8.95644 9.64199 8.91386L6.95078 10.1703L8.85878 11.0422C9.32578 11.265 9.70214 11.3547 10.0795 11.3432C10.4568 11.3547 10.8412 11.265 11.3002 11.0422L15.6834 9.04062C15.9887 8.89687 16.143 8.65644 16.143 8.3957C16.143 8.14472 15.9887 7.88828 15.6834 7.74453ZM10.0795 14.242C12.716 14.242 14.4787 13.1045 14.4787 11.7313L14.4787 10.3219L11.5727 11.6555C11.0338 11.8996 10.5385 12.0266 10.0795 12.0088C9.6205 12.0266 9.12871 11.9014 8.58808 11.6555L6.92675 10.8963L6.92675 13.5016C7.69999 13.9605 8.78574 14.242 10.0795 14.242ZM5.68027 10.3219L5.68027 11.7313C5.68027 12.1131 5.8873 12.5652 6.23652 12.9561L6.23652 10.5725ZM6.23652 14.3744L6.92675 14.3744L6.92675 13.5016C6.658 13.3445 6.43535 13.1609 6.23652 12.9561ZM5.88437 14.4279L5.88437 15.3668C5.88437 15.7377 6.12129 15.9826 6.49668 15.9826L6.66484 15.9826C7.04023 15.9826 7.28866 15.7377 7.28866 15.3668L7.28866 14.4279C7.28866 14.0508 7.04023 13.8121 6.66484 13.8121L6.49668 13.8121C6.12129 13.8121 5.88437 14.0508 5.88437 14.4279Z" fill="white" fill-opacity="0.85"/>
 </g>
</svg>
