<?xml version="1.0" encoding="UTF-8"?>
<!--Generator: Apple Native CoreSVG 341-->
<!DOCTYPE svg
PUBLIC "-//W3C//DTD SVG 1.1//EN"
       "http://www.w3.org/Graphics/SVG/1.1/DTD/svg11.dtd">
<svg version="1.1" xmlns="http://www.w3.org/2000/svg" xmlns:xlink="http://www.w3.org/1999/xlink" viewBox="0 0 18.6764 18.3168">
 <g>
  <rect height="18.3168" opacity="0" width="18.6764" x="0" y="0"/>
  <path d="M10.0725 17.3881C10.0725 17.891 9.65644 18.307 9.15351 18.307C8.65058 18.307 8.23457 17.891 8.23457 17.3881C8.23457 16.8852 8.65058 16.4691 9.15351 16.4691C9.65644 16.4691 10.0725 16.8852 10.0725 17.3881ZM10.0725 14.6459C10.0725 15.1488 9.65644 15.5648 9.15351 15.5648C8.65058 15.5648 8.23457 15.1488 8.23457 14.6459C8.23457 14.143 8.65058 13.7269 9.15351 13.7269C9.65644 13.7269 10.0725 14.143 10.0725 14.6459ZM10.0725 11.8957C10.0725 12.3986 9.65644 12.8146 9.15351 12.8146C8.87443 12.8146 8.62211 12.6865 8.45312 12.4863C8.72381 12.0207 8.98834 11.5193 9.2512 10.9822C9.70923 11.0317 10.0725 11.4258 10.0725 11.8957ZM18.315 9.15351C18.315 9.65644 17.899 10.0725 17.3961 10.0725C16.8932 10.0725 16.4771 9.65644 16.4771 9.15351C16.4771 8.65058 16.8932 8.23457 17.3961 8.23457C17.899 8.23457 18.315 8.65058 18.315 9.15351ZM1.83788 9.15351C1.83788 9.65644 1.42187 10.0725 0.918942 10.0725C0.416014 10.0725 0 9.65644 0 9.15351C0 8.65058 0.416014 8.23457 0.918942 8.23457C1.42187 8.23457 1.83788 8.65058 1.83788 9.15351ZM4.58007 9.15351C4.58007 9.65644 4.17206 10.0725 3.66113 10.0725C3.1582 10.0725 2.74219 9.65644 2.74219 9.15351C2.74219 8.65058 3.1582 8.23457 3.66113 8.23457C4.17206 8.23457 4.58007 8.65058 4.58007 9.15351ZM7.33027 9.15351C7.33027 9.65644 6.91425 10.0725 6.41132 10.0725C5.9084 10.0725 5.49238 9.65644 5.49238 9.15351C5.49238 8.65058 5.9084 8.23457 6.41132 8.23457C6.91425 8.23457 7.33027 8.65058 7.33027 9.15351ZM12.8226 9.15351C12.8226 9.65644 12.4066 10.0725 11.9037 10.0725C11.4008 10.0725 10.9848 9.65644 10.9848 9.15351C10.9848 8.65058 11.4008 8.23457 11.9037 8.23457C12.4066 8.23457 12.8226 8.65058 12.8226 9.15351ZM15.5648 9.15351C15.5648 9.65644 15.1488 10.0725 14.6459 10.0725C14.143 10.0725 13.7269 9.65644 13.7269 9.15351C13.7269 8.65058 14.143 8.23457 14.6459 8.23457C15.1488 8.23457 15.5648 8.65058 15.5648 9.15351ZM9.82556 9.77522C9.86863 9.68629 9.91192 9.591 9.95526 9.49492C9.99268 9.41194 10.03 9.32958 10.0668 9.25209C10.0452 9.45238 9.95741 9.63445 9.82556 9.77522ZM8.36601 8.77031L8.24273 9.0386C8.26606 8.84987 8.3486 8.67819 8.47124 8.54302ZM9.85087 5.80941C9.5807 6.27609 9.31653 6.77849 9.05389 7.31657C8.59676 7.26718 8.23457 6.88006 8.23457 6.40332C8.23457 5.90039 8.65058 5.48437 9.15351 5.48437C9.43099 5.48437 9.68202 5.61101 9.85087 5.80941ZM10.0725 3.66113C10.0725 4.16406 9.65644 4.58007 9.15351 4.58007C8.65058 4.58007 8.23457 4.16406 8.23457 3.66113C8.23457 3.1582 8.65058 2.74219 9.15351 2.74219C9.65644 2.74219 10.0725 3.1582 10.0725 3.66113ZM10.0725 0.918942C10.0725 1.42187 9.65644 1.83788 9.15351 1.83788C8.65058 1.83788 8.23457 1.42187 8.23457 0.918942C8.23457 0.416014 8.65058 0 9.15351 0C9.65644 0 10.0725 0.416014 10.0725 0.918942Z" fill="white" fill-opacity="0.85"/>
  <path d="M0.875972 16.3738C0.408591 16.451 0.0742173 16.9086 0.157616 17.3742C0.234764 17.8416 0.692379 18.1777 1.15976 18.1023C5.53007 17.3744 7.67382 14.5531 9.95526 9.49492C11.9103 5.15859 13.6275 2.52089 17.4391 1.8914C17.9047 1.81425 18.2408 1.35663 18.1654 0.891011C18.0785 0.42363 17.6226 0.0874984 17.1553 0.162889C12.7912 0.88281 10.6492 3.71211 8.36601 8.77031C6.41093 13.1066 4.6875 15.7443 0.875972 16.3738Z" fill="white" fill-opacity="0.85"/>
 </g>
</svg>
