<?xml version="1.0" encoding="UTF-8"?>
<!--Generator: Apple Native CoreSVG 341-->
<!DOCTYPE svg
PUBLIC "-//W3C//DTD SVG 1.1//EN"
       "http://www.w3.org/Graphics/SVG/1.1/DTD/svg11.dtd">
<svg version="1.1" xmlns="http://www.w3.org/2000/svg" xmlns:xlink="http://www.w3.org/1999/xlink" viewBox="0 0 20.9975 18.5745">
 <g>
  <rect height="18.5745" opacity="0" width="20.9975" x="0" y="0"/>
  <path d="M1.96701 17.2591C1.96701 17.7701 1.55099 18.1781 1.04806 18.1781C0.545136 18.1781 0.129122 17.7701 0.129122 17.2591C0.129122 16.7562 0.545136 16.3402 1.04806 16.3402C1.55099 16.3402 1.96701 16.7562 1.96701 17.2591ZM20.507 17.2591C20.507 17.7701 20.091 18.1781 19.5881 18.1781C19.0772 18.1781 18.6612 17.7701 18.6612 17.2591C18.6612 16.7562 19.0772 16.3402 19.5881 16.3402C20.091 16.3402 20.507 16.7562 20.507 17.2591ZM4.31805 15.6412C4.3418 15.7206 4.35411 15.8046 4.35411 15.8912C4.35411 16.3941 3.9381 16.8101 3.43517 16.8101C2.93224 16.8101 2.51623 16.3941 2.51623 15.8912C2.51623 15.4652 2.81462 15.1016 3.2119 15.0013ZM18.1199 15.8912C18.1199 16.3941 17.7057 16.8101 17.201 16.8101C16.6981 16.8101 16.2838 16.3941 16.2838 15.8912C16.2838 15.8049 16.296 15.7212 16.3195 15.642L17.4273 15.002C17.824 15.1031 18.1199 15.4661 18.1199 15.8912ZM11.2361 3.78998C11.2361 4.21013 10.947 4.56962 10.5583 4.67559C10.3948 4.66092 10.2333 4.66083 10.0738 4.67426C9.68661 4.56648 9.40002 4.20829 9.40002 3.78998C9.40002 3.28705 9.81428 2.87104 10.319 2.87104C10.8219 2.87104 11.2361 3.28705 11.2361 3.78998ZM11.2361 1.0478C11.2361 1.55072 10.8219 1.96674 10.319 1.96674C9.81428 1.96674 9.40002 1.55072 9.40002 1.0478C9.40002 0.544868 9.81428 0.128854 10.319 0.128854C10.8219 0.128854 11.2361 0.544868 11.2361 1.0478Z" fill="white" fill-opacity="0.85"/>
  <path d="M9.15568 16.8458C9.96232 17.3081 10.6801 17.2949 11.477 16.8458L18.5067 12.7859C19.5358 12.1871 19.4709 11.0136 18.5067 10.4539L11.477 6.39389C10.6801 5.94311 9.96232 5.93159 9.15568 6.39389L2.13576 10.4539C1.14221 11.0349 1.1049 12.1755 2.14377 12.7859ZM9.8631 15.5373L3.54728 11.8826C3.26368 11.7279 3.26368 11.5038 3.54728 11.3474L9.8631 7.70248C10.1768 7.51498 10.4541 7.51498 10.7695 7.70248L17.0969 11.3474C17.3725 11.4941 17.3805 11.7359 17.0969 11.8826L10.7695 15.5373C10.4541 15.7248 10.1768 15.7248 9.8631 15.5373ZM6.88205 14.3929L15.1471 9.37768L13.9996 8.38198L5.62736 13.4486ZM14.0256 14.4078L15.4188 13.5408L6.8842 8.62514L5.72151 9.63666Z" fill="white" fill-opacity="0.85"/>
 </g>
</svg>
