<?xml version="1.0" encoding="UTF-8"?>
<!--Generator: Apple Native CoreSVG 341-->
<!DOCTYPE svg
PUBLIC "-//W3C//DTD SVG 1.1//EN"
       "http://www.w3.org/Graphics/SVG/1.1/DTD/svg11.dtd">
<svg version="1.1" xmlns="http://www.w3.org/2000/svg" xmlns:xlink="http://www.w3.org/1999/xlink" viewBox="0 0 18.5894 18.2316">
 <g>
  <rect height="18.2316" opacity="0" width="18.5894" x="0" y="0"/>
  <path d="M3.20351 18.2281L15.0246 18.2281C17.1404 18.2281 18.2281 17.1502 18.2281 15.0646L18.2281 3.17148C18.2281 1.08769 17.1404 0 15.0246 0L3.20351 0C1.0957 0 0 1.08769 0 3.17148L0 15.0646C0 17.1502 1.0957 18.2281 3.20351 18.2281ZM3.31444 16.3148C2.40643 16.3148 1.91327 15.8465 1.91327 14.8977L1.91327 3.34023C1.91327 2.39139 2.40643 1.91503 3.31444 1.91503L14.9137 1.91503C15.8137 1.91503 16.3148 2.39139 16.3148 3.34023L16.3148 14.8977C16.3148 15.8465 15.8137 16.3148 14.9137 16.3148Z" fill="white" fill-opacity="0.85"/>
  <path d="M12.7709 13.0764C12.7709 12.6463 12.4135 12.2959 11.9586 12.2959L6.43359 12.2959C5.97871 12.2959 5.63105 12.6463 5.63105 13.0764C5.63105 13.4887 5.97871 13.8613 6.43359 13.8613L11.9586 13.8613C12.4135 13.8613 12.7709 13.4887 12.7709 13.0764ZM6.76659 10.8975C6.87831 10.8975 7.00429 10.8664 7.22362 10.7705L12.0146 8.61308C12.4939 8.40722 12.6793 8.10273 12.6793 7.66875C12.6793 7.26152 12.4877 6.93222 12.0146 6.71035L7.22362 4.56094C7.00429 4.46504 6.87831 4.44199 6.76659 4.44199C6.28144 4.44199 5.96738 4.83554 5.96738 5.22324C5.96738 5.52929 6.14746 5.81406 6.45878 5.96132L10.2957 7.65195L10.2957 7.68125L6.45878 9.37813C6.14746 9.50938 5.96738 9.79414 5.96738 10.11C5.96738 10.4959 6.28144 10.8975 6.76659 10.8975Z" fill="white" fill-opacity="0.85"/>
 </g>
</svg>
