<?xml version="1.0" encoding="UTF-8"?>
<!--Generator: Apple Native CoreSVG 341-->
<!DOCTYPE svg
PUBLIC "-//W3C//DTD SVG 1.1//EN"
       "http://www.w3.org/Graphics/SVG/1.1/DTD/svg11.dtd">
<svg version="1.1" xmlns="http://www.w3.org/2000/svg" xmlns:xlink="http://www.w3.org/1999/xlink" viewBox="0 0 20.5381 20.1848">
 <g>
  <rect height="20.1848" opacity="0" width="20.5381" x="0" y="0"/>
  <path d="M10.0875 20.175C15.6576 20.175 20.1767 15.6559 20.1767 10.0875C20.1767 4.51914 15.6576 0 10.0875 0C4.51914 0 0 4.51914 0 10.0875C0 15.6559 4.51914 20.175 10.0875 20.175ZM10.0875 18.1879C5.60839 18.1879 1.9871 14.5666 1.9871 10.0875C1.9871 5.60839 5.60839 1.9871 10.0875 1.9871C14.5666 1.9871 18.1897 5.60839 18.1897 10.0875C18.1897 14.5666 14.5666 18.1879 10.0875 18.1879Z" fill="white" fill-opacity="0.85"/>
  <path d="M13.7314 14.0529C13.7314 13.6229 13.374 13.2725 12.9209 13.2725L7.39413 13.2725C6.94101 13.2725 6.5916 13.6229 6.5916 14.0529C6.5916 14.4652 6.94101 14.8379 7.39413 14.8379L12.9209 14.8379C13.374 14.8379 13.7314 14.4652 13.7314 14.0529ZM7.71913 11.874C7.83886 11.874 7.96484 11.843 8.18417 11.7471L12.9752 9.58964C13.4545 9.38379 13.6416 9.07929 13.6416 8.64531C13.6416 8.23808 13.4482 7.90879 12.9752 7.68691L8.18417 5.5375C7.96484 5.4416 7.83886 5.41855 7.71913 5.41855C7.24199 5.41855 6.92792 5.8121 6.92792 6.1998C6.92792 6.50585 7.108 6.79062 7.41933 6.93788L11.2563 8.62851L11.2563 8.65781L7.41933 10.3547C7.108 10.4859 6.92792 10.7707 6.92792 11.0865C6.92792 11.4725 7.24199 11.874 7.71913 11.874Z" fill="white" fill-opacity="0.85"/>
 </g>
</svg>
