<?xml version="1.0" encoding="UTF-8"?>
<!--Generator: Apple Native CoreSVG 341-->
<!DOCTYPE svg
PUBLIC "-//W3C//DTD SVG 1.1//EN"
       "http://www.w3.org/Graphics/SVG/1.1/DTD/svg11.dtd">
<svg version="1.1" xmlns="http://www.w3.org/2000/svg" xmlns:xlink="http://www.w3.org/1999/xlink" viewBox="0 0 20.5381 20.1848">
 <g>
  <rect height="20.1848" opacity="0" width="20.5381" x="0" y="0"/>
  <path d="M10.0875 20.175C15.6576 20.175 20.1767 15.6559 20.1767 10.0875C20.1767 4.51914 15.6576 0 10.0875 0C4.51914 0 0 4.51914 0 10.0875C0 15.6559 4.51914 20.175 10.0875 20.175ZM10.0875 18.1879C5.60839 18.1879 1.9871 14.5666 1.9871 10.0875C1.9871 5.60839 5.60839 1.9871 10.0875 1.9871C14.5666 1.9871 18.1897 5.60839 18.1897 10.0875C18.1897 14.5666 14.5666 18.1879 10.0875 18.1879Z" fill="white" fill-opacity="0.85"/>
  <path d="M7.61523 14.0394C7.82284 14.0394 7.98065 13.9969 8.13847 13.9197L13.8006 11.0101C14.2371 10.7883 14.4375 10.523 14.4375 10.098C14.4375 9.69003 14.2246 9.3955 13.8006 9.17011L8.13847 6.17245C7.97265 6.0873 7.82284 6.04472 7.59921 6.04472C7.09199 6.04472 6.71503 6.41542 6.71503 6.91639C6.71503 7.33045 6.91718 7.5912 7.3914 7.80584L11.925 10.0324L11.925 10.1016L7.3914 12.2783C6.90742 12.493 6.71503 12.7377 6.71503 13.1598C6.71503 13.6687 7.09999 14.0394 7.61523 14.0394Z" fill="white" fill-opacity="0.85"/>
 </g>
</svg>
