<?xml version="1.0" encoding="UTF-8"?>
<!--Generator: Apple Native CoreSVG 341-->
<!DOCTYPE svg
PUBLIC "-//W3C//DTD SVG 1.1//EN"
       "http://www.w3.org/Graphics/SVG/1.1/DTD/svg11.dtd">
<svg version="1.1" xmlns="http://www.w3.org/2000/svg" xmlns:xlink="http://www.w3.org/1999/xlink" viewBox="0 0 20.5381 20.1848">
 <g>
  <rect height="20.1848" opacity="0" width="20.5381" x="0" y="0"/>
  <path d="M20.1767 10.0875C20.1767 15.6478 15.6576 20.175 10.0875 20.175C4.52715 20.175 0 15.6478 0 10.0875C0 4.51914 4.52715 0 10.0875 0C15.6576 0 20.1767 4.51914 20.1767 10.0875ZM6.58047 6.79667C6.58047 7.23378 6.79414 7.5078 7.28866 7.72772L11.9856 10.0324L11.9856 10.1016L7.28866 12.3564C6.78437 12.5764 6.58047 12.8344 6.58047 13.2795C6.58047 13.8105 6.98222 14.2043 7.52226 14.2043C7.74316 14.2043 7.90273 14.1537 8.07382 14.073L13.9566 11.0517C14.41 10.8246 14.6219 10.5478 14.6219 10.098C14.6219 9.67324 14.3975 9.36718 13.9566 9.12851L8.07382 6.01913C7.89472 5.93222 7.74316 5.87988 7.50624 5.87988C6.97421 5.87988 6.58047 6.27362 6.58047 6.79667Z" fill="white" fill-opacity="0.85"/>
 </g>
</svg>
