<?xml version="1.0" encoding="UTF-8"?>
<!--Generator: Apple Native CoreSVG 341-->
<!DOCTYPE svg
PUBLIC "-//W3C//DTD SVG 1.1//EN"
       "http://www.w3.org/Graphics/SVG/1.1/DTD/svg11.dtd">
<svg version="1.1" xmlns="http://www.w3.org/2000/svg" xmlns:xlink="http://www.w3.org/1999/xlink" viewBox="0 0 18.5894 18.2316">
 <g>
  <rect height="18.2316" opacity="0" width="18.5894" x="0" y="0"/>
  <path d="M18.2281 3.17148L18.2281 15.0646C18.2281 17.1502 17.1404 18.2281 15.0246 18.2281L3.20351 18.2281C1.0957 18.2281 0 17.1502 0 15.0646L0 3.17148C0 1.08769 1.0957 0 3.20351 0L15.0246 0C17.1404 0 18.2281 1.08769 18.2281 3.17148ZM6.34921 12.4111C5.86777 12.4111 5.50683 12.7748 5.50683 13.2332C5.50683 13.6605 5.86777 14.0482 6.34921 14.0482L12.0887 14.0482C12.5701 14.0482 12.9408 13.6605 12.9408 13.2332C12.9408 12.7748 12.5701 12.4111 12.0887 12.4111ZM5.85468 5.06464C5.85468 5.38398 6.04628 5.68202 6.37265 5.84081L10.3426 7.58906L10.3426 7.6166L6.37265 9.3791C6.04628 9.51211 5.85468 9.81016 5.85468 10.1393C5.85468 10.5402 6.19179 10.9701 6.6955 10.9701C6.81698 10.9701 6.94472 10.9373 7.17382 10.8316L12.15 8.59628C12.6523 8.3789 12.843 8.06113 12.843 7.60586C12.843 7.18183 12.6461 6.83926 12.15 6.60586L7.17382 4.37227C6.94472 4.27461 6.81698 4.25156 6.6955 4.25156C6.19179 4.25156 5.85468 4.66191 5.85468 5.06464Z" fill="white" fill-opacity="0.85"/>
 </g>
</svg>
