<?xml version="1.0" encoding="UTF-8"?>
<!--Generator: Apple Native CoreSVG 341-->
<!DOCTYPE svg
PUBLIC "-//W3C//DTD SVG 1.1//EN"
       "http://www.w3.org/Graphics/SVG/1.1/DTD/svg11.dtd">
<svg version="1.1" xmlns="http://www.w3.org/2000/svg" xmlns:xlink="http://www.w3.org/1999/xlink" viewBox="0 0 16.975 22.4269">
 <g>
  <rect height="22.4269" opacity="0" width="16.975" x="0" y="0"/>
  <path d="M2.08027 20.3939L13.2014 22.3603C15.3078 22.7312 16.6137 21.5336 16.6137 19.2443L16.6137 7.20993C16.6137 5.10173 15.5689 4.28943 13.4406 3.91326L2.66034 2.01697C1.0705 1.73397 0 2.63416 0 4.207L0 17.9926C0 19.334 0.711325 20.1535 2.08027 20.3939ZM2.64569 18.4967C2.17049 18.414 1.9537 18.1326 1.9537 17.659L1.9537 4.66579C1.9537 4.1693 2.28592 3.91442 2.83221 3.99704L13.301 5.84391C14.1853 6.00036 14.6582 6.37712 14.6582 7.1904L14.6582 19.0492C14.6582 20.0324 14.084 20.5275 13.1488 20.3551ZM13.891 5.47575L15.7428 5.47575L15.7428 3.0324C15.7428 0.843533 14.2586-0.219158 11.7982 0.215606L1.60546 2.01072L2.23534 3.64509L12.4041 1.93981C13.3209 1.78435 13.891 2.16286 13.891 2.95271ZM3.20155 8.52672C3.20155 9.40504 4.57401 9.40504 4.57401 8.57731L4.57401 7.3109C4.57401 7.07184 4.71619 6.9652 4.98905 7.01051L6.1955 7.22906C7.09061 7.3861 7.2742 6.04294 6.47928 5.89743L4.41229 5.53161C3.65956 5.4029 3.20155 5.73922 3.20155 6.46266ZM12.0379 10.0236C12.0379 10.9054 13.4121 10.9853 13.4121 10.0236L13.4121 8.42966C13.4121 7.50739 12.9709 7.03962 11.8764 6.8443L10.852 6.66677C9.89824 6.49821 9.6711 7.83161 10.616 7.9984L11.4178 8.14489C11.95 8.23375 12.0379 8.54137 12.0379 8.8361ZM4.57401 14.4521C4.57401 13.5703 3.20155 13.4904 3.20155 14.4521L3.20155 16.0443C3.20155 16.9683 3.641 17.4344 4.73729 17.6314L5.75995 17.809C6.71541 17.9758 6.9408 16.6361 5.99588 16.4756L5.19413 16.3308C4.66365 16.242 4.57401 15.9344 4.57401 15.6396ZM13.4121 15.949C13.4121 15.0707 12.0379 15.0707 12.0379 15.8984L12.0379 17.1648C12.0379 17.4039 11.8957 17.5088 11.6246 17.4652L10.4164 17.2467C9.52305 17.0896 9.3377 18.4328 10.1344 18.5765L12.1996 18.9424C12.9523 19.0711 13.4121 18.7365 13.4121 18.0131Z" fill="white" fill-opacity="0.85"/>
 </g>
</svg>
