<?xml version="1.0" encoding="UTF-8"?>
<!--Generator: Apple Native CoreSVG 341-->
<!DOCTYPE svg
PUBLIC "-//W3C//DTD SVG 1.1//EN"
       "http://www.w3.org/Graphics/SVG/1.1/DTD/svg11.dtd">
<svg version="1.1" xmlns="http://www.w3.org/2000/svg" xmlns:xlink="http://www.w3.org/1999/xlink" viewBox="0 0 19.8017 19.0355">
 <g>
  <rect height="19.0355" opacity="0" width="19.8017" x="0" y="0"/>
  <path d="M5.99101 18.9558C6.52284 18.9558 6.91151 18.589 6.91151 18.0051L6.91151 0.958782C6.91151 0.374802 6.52284 0 5.99101 0C5.43789 0 5.05899 0.374802 5.05899 0.958782L5.05899 18.0051C5.05899 18.589 5.43789 18.9558 5.99101 18.9558ZM13.4111 18.9558C13.9429 18.9558 14.3299 18.589 14.3299 18.0051L14.3299 0.958782C14.3299 0.374802 13.9429 0 13.4111 0C12.858 0 12.4791 0.374802 12.4791 0.958782L12.4791 18.0051C12.4791 18.589 12.858 18.9558 13.4111 18.9558ZM0.958782 14.0094L18.4816 14.0094C19.0736 14.0094 19.4404 13.6224 19.4404 13.0808C19.4404 12.5357 19.0736 12.1568 18.4816 12.1568L0.958782 12.1568C0.366794 12.1568 0 12.5357 0 13.0808C0 13.6224 0.366794 14.0094 0.958782 14.0094ZM0.958782 6.86795L18.4816 6.86795C19.0736 6.86795 19.4404 6.48104 19.4404 5.94921C19.4404 5.4041 19.0736 5.01719 18.4816 5.01719L0.958782 5.01719C0.366794 5.01719 0 5.4041 0 5.94921C0 6.48104 0.366794 6.86795 0.958782 6.86795Z" fill="white" fill-opacity="0.85"/>
 </g>
</svg>
