<?xml version="1.0" encoding="UTF-8"?>
<!--Generator: Apple Native CoreSVG 341-->
<!DOCTYPE svg
PUBLIC "-//W3C//DTD SVG 1.1//EN"
       "http://www.w3.org/Graphics/SVG/1.1/DTD/svg11.dtd">
<svg version="1.1" xmlns="http://www.w3.org/2000/svg" xmlns:xlink="http://www.w3.org/1999/xlink" viewBox="0 0 20.5381 20.1848">
 <g>
  <rect height="20.1848" opacity="0" width="20.5381" x="0" y="0"/>
  <path d="M20.1767 10.0875C20.1767 15.6478 15.6576 20.175 10.0875 20.175C4.52715 20.175 0 15.6478 0 10.0875C0 4.51914 4.52715 0 10.0875 0C15.6576 0 20.1767 4.51914 20.1767 10.0875ZM11.3125 5.13671L11.3125 7.33672L8.86249 7.33672L8.86249 5.13671C8.86249 4.6248 8.56445 4.32675 8.10937 4.32675C7.62675 4.32675 7.32695 4.6248 7.32695 5.13671L7.32695 7.33672L5.1287 7.33672C4.62656 7.33672 4.31523 7.62675 4.31523 8.11113C4.31523 8.57421 4.62656 8.87226 5.1287 8.87226L7.32695 8.87226L7.32695 11.3027L5.1287 11.3027C4.62656 11.3027 4.31523 11.6008 4.31523 12.0559C4.31523 12.5385 4.62656 12.8383 5.1287 12.8383L7.32695 12.8383L7.32695 15.0365C7.32695 15.5484 7.62675 15.8482 8.10937 15.8482C8.56445 15.8482 8.86249 15.5484 8.86249 15.0365L8.86249 12.8383L11.3125 12.8383L11.3125 15.0365C11.3125 15.5484 11.6025 15.8482 12.0754 15.8482C12.55 15.8482 12.848 15.5467 12.848 15.0365L12.848 12.8383L15.048 12.8383C15.5502 12.8383 15.8615 12.5385 15.8615 12.0559C15.8615 11.6008 15.5502 11.3027 15.048 11.3027L12.848 11.3027L12.848 8.87226L15.048 8.87226C15.5502 8.87226 15.8615 8.57421 15.8615 8.11113C15.8615 7.62675 15.5502 7.33672 15.048 7.33672L12.848 7.33672L12.848 5.13671C12.848 4.62831 12.55 4.32675 12.0754 4.32675C11.6025 4.32675 11.3125 4.6248 11.3125 5.13671ZM11.3125 11.3027L8.86249 11.3027L8.86249 8.87226L11.3125 8.87226Z" fill="white" fill-opacity="0.85"/>
 </g>
</svg>
