<?xml version="1.0" encoding="UTF-8"?>
<!--Generator: Apple Native CoreSVG 341-->
<!DOCTYPE svg
PUBLIC "-//W3C//DTD SVG 1.1//EN"
       "http://www.w3.org/Graphics/SVG/1.1/DTD/svg11.dtd">
<svg version="1.1" xmlns="http://www.w3.org/2000/svg" xmlns:xlink="http://www.w3.org/1999/xlink" viewBox="0 0 18.5894 18.2316">
 <g>
  <rect height="18.2316" opacity="0" width="18.5894" x="0" y="0"/>
  <path d="M18.2281 3.17148L18.2281 15.0646C18.2281 17.1502 17.1404 18.2281 15.0246 18.2281L3.20351 18.2281C1.0957 18.2281 0 17.1502 0 15.0646L0 3.17148C0 1.08769 1.0957 0 3.20351 0L15.0246 0C17.1404 0 18.2281 1.08769 18.2281 3.17148ZM8.83437 3.81738L8.83437 4.5955C6.483 4.76874 5.21992 6.62461 5.21992 9.06386C5.21992 11.5725 6.52402 13.3652 8.83437 13.542L8.83437 14.3309C8.83437 14.5191 8.97734 14.6586 9.17812 14.6586C9.35663 14.6586 9.49785 14.5191 9.49785 14.3309L9.49785 13.5535C11.5891 13.4451 12.8297 12.1127 12.8297 9.92949L12.8297 9.55859C12.8297 9.10566 12.5601 8.80879 12.133 8.80879L9.49785 8.80879L9.49785 5.79413C10.3525 5.89452 11.068 6.40194 11.3324 7.16796C11.4857 7.47948 11.6461 7.6373 12.015 7.6373C12.382 7.6373 12.624 7.39355 12.624 7.0248C12.624 6.88203 12.6055 6.70371 12.5238 6.52441C12.0385 5.3248 10.7594 4.68437 9.49785 4.5955L9.49785 3.81738C9.49785 3.62109 9.35663 3.48163 9.17812 3.48163C8.97734 3.48163 8.83437 3.62109 8.83437 3.81738ZM11.4453 10.2221C11.4383 11.4164 10.7205 12.2482 9.49785 12.3354L9.49785 9.89784L11.4488 9.89784ZM8.83437 12.3203C7.38456 12.0939 6.69393 10.6844 6.69393 9.04882C6.69393 7.49687 7.32772 6.01346 8.83437 5.81542Z" fill="white" fill-opacity="0.85"/>
 </g>
</svg>
