<?xml version="1.0" encoding="UTF-8"?>
<!--Generator: Apple Native CoreSVG 341-->
<!DOCTYPE svg
PUBLIC "-//W3C//DTD SVG 1.1//EN"
       "http://www.w3.org/Graphics/SVG/1.1/DTD/svg11.dtd">
<svg version="1.1" xmlns="http://www.w3.org/2000/svg" xmlns:xlink="http://www.w3.org/1999/xlink" viewBox="0 0 15.0023 21.8516">
 <g>
  <rect height="21.8516" opacity="0" width="15.0023" x="0" y="0"/>
  <path d="M7.71699 19.6283C12.2082 19.6283 14.641 16.8965 14.641 12.5908L14.641 11.7965C14.641 10.9502 14.1348 10.4881 13.4121 10.4881L8.03242 10.4881L8.03242 12.4279L12.219 12.4279L12.2137 13.1164C12.2084 15.6658 10.5811 17.4979 7.74433 17.4979C4.2285 17.4979 2.56658 14.4567 2.56658 10.8605C2.56658 7.29823 4.2412 4.30565 7.69238 4.30565C9.64981 4.30565 11.4281 5.40526 12.0039 7.18593C12.2545 7.76875 12.5635 8.05703 13.2002 8.05703C13.8471 8.05703 14.2892 7.61406 14.2892 6.96719C14.2892 6.66114 14.2184 6.33126 14.1031 6.03399C13.1109 3.48535 10.3889 2.16895 7.69062 2.16895C2.74531 2.16895 0 5.80372 0 10.8729C0 15.9512 2.68965 19.6283 7.71699 19.6283ZM7.60625 21.8508C7.97128 21.8508 8.22968 21.5844 8.22968 21.2176L8.22968 0.625196C8.22968 0.258399 7.97128 0 7.60625 0C7.24121 0 6.9748 0.258399 6.9748 0.625196L6.9748 21.2176C6.9748 21.5844 7.24121 21.8508 7.60625 21.8508Z" fill="white" fill-opacity="0.85"/>
 </g>
</svg>
