<?xml version="1.0" encoding="UTF-8"?>
<!--Generator: Apple Native CoreSVG 341-->
<!DOCTYPE svg
PUBLIC "-//W3C//DTD SVG 1.1//EN"
       "http://www.w3.org/Graphics/SVG/1.1/DTD/svg11.dtd">
<svg version="1.1" xmlns="http://www.w3.org/2000/svg" xmlns:xlink="http://www.w3.org/1999/xlink" viewBox="0 0 24.226 20.1848">
 <g>
  <rect height="20.1848" opacity="0" width="24.226" x="0" y="0"/>
  <path d="M0.721518 8.12363C-0.00973073 8.12363-0.190785 8.66894 0.204136 9.22109L2.47249 12.3723C2.78948 12.8092 3.27757 12.8012 3.58831 12.3723L5.8469 9.21308C6.24007 8.66894 6.051 8.12363 5.33929 8.12363ZM22.0239 10.0875C22.0239 4.51914 17.503 0 11.9364 0C6.368 0 1.85687 4.50937 1.84886 10.099C1.85687 10.6476 2.29378 11.0846 2.83441 11.0846C3.38303 11.0846 3.83596 10.6396 3.83596 10.091C3.83596 5.60839 7.45725 1.9871 11.9364 1.9871C16.4155 1.9871 20.0368 5.60839 20.0368 10.0875C20.0368 14.5666 16.4155 18.1879 11.9364 18.1879C9.3096 18.1879 7.0131 16.9437 5.54279 15.0176C5.1469 14.5609 4.58421 14.4129 4.10726 14.7519C3.66214 15.0734 3.55902 15.725 3.99475 16.2355C5.84631 18.6584 8.71858 20.175 11.9364 20.175C17.503 20.175 22.0239 15.6559 22.0239 10.0875Z" fill="white" fill-opacity="0.85"/>
  <path d="M12.016 14.36C14.191 14.36 15.4772 13.0576 15.4772 10.8715L15.4772 10.5166C15.4772 10.0822 15.2227 9.80039 14.8141 9.80039L12.192 9.80039L12.192 10.8363L14.16 10.8363L14.1582 11.149C14.1512 12.3896 13.3694 13.2082 12.0328 13.2082C10.3567 13.2082 9.57541 11.7436 9.57541 10.0254C9.57541 8.40937 10.2785 6.8744 11.9975 6.8744C12.9321 6.8744 13.7631 7.38983 14.0534 8.21542C14.1871 8.51366 14.3502 8.6662 14.6961 8.6662C15.0481 8.6662 15.2848 8.42948 15.2848 8.07753C15.2848 7.94453 15.268 7.77148 15.1864 7.60195C14.685 6.35605 13.292 5.73066 11.9957 5.73066C9.50198 5.73066 8.16683 7.58046 8.16683 10.0404C8.16683 12.583 9.56429 14.36 12.016 14.36ZM11.9602 15.4242C12.1432 15.4242 12.2746 15.2928 12.2746 15.108L12.2746 4.99511C12.2746 4.80058 12.1432 4.67089 11.9602 4.67089C11.7754 4.67089 11.6422 4.80058 11.6422 4.99511L11.6422 15.108C11.6422 15.2928 11.7754 15.4242 11.9602 15.4242Z" fill="white" fill-opacity="0.85"/>
 </g>
</svg>
