<?xml version="1.0" encoding="UTF-8"?>
<!--Generator: Apple Native CoreSVG 341-->
<!DOCTYPE svg
PUBLIC "-//W3C//DTD SVG 1.1//EN"
       "http://www.w3.org/Graphics/SVG/1.1/DTD/svg11.dtd">
<svg version="1.1" xmlns="http://www.w3.org/2000/svg" xmlns:xlink="http://www.w3.org/1999/xlink" viewBox="0 0 27.4031 22.416">
 <g>
  <rect height="22.416" opacity="0" width="27.4031" x="0" y="0"/>
  <path d="M23.1098 1.06171L23.2562 3.4914C23.274 3.67675 23.2004 3.79648 22.991 3.93398C22.7672 4.08495 22.7174 4.18984 22.7174 4.58593L22.7174 10.4508C24.3773 10.6619 25.357 11.5369 25.357 12.8939C25.357 13.7326 25.0685 14.3168 25.0685 14.9685C25.0685 15.857 26.3859 16.3182 26.3859 18.349C26.3859 20.4062 24.649 21.7002 21.934 21.7002C20.3234 21.7002 19.0576 21.2448 18.2985 20.442C18.8199 19.7098 19.1102 18.8015 19.1102 17.7676C19.1102 16.7572 18.8894 16.033 18.6357 15.5116C18.7364 15.3371 18.7994 15.163 18.7994 14.9685C18.7994 14.3168 18.5127 13.7326 18.5127 12.8939C18.5127 11.5369 19.4906 10.6619 21.1426 10.4508L21.1426 4.58593C21.1426 4.18984 21.1008 4.08495 20.8787 3.93398C20.6676 3.79648 20.5939 3.67675 20.6117 3.4914L20.76 1.06171C20.7715 0.841794 20.9275 0.691013 21.1279 0.691013L22.74 0.691013C22.9404 0.691013 23.0965 0.841794 23.1098 1.06171ZM20.6555 17.6195C20.4018 17.6195 20.1781 17.8432 20.1781 18.1031C20.1781 18.3631 20.3937 18.5742 20.6555 18.5742L23.1947 18.5742C23.4564 18.5742 23.6721 18.3631 23.6721 18.1031C23.6721 17.8351 23.4564 17.6195 23.1947 17.6195ZM20.8139 14.6836C20.8139 15.2951 21.3064 15.7939 21.9357 15.7939C22.5535 15.7939 23.0461 15.2951 23.0461 14.6836C23.0461 14.0676 22.5535 13.567 21.9357 13.567C21.3145 13.567 20.8139 14.0676 20.8139 14.6836Z" fill="white" fill-opacity="0.85"/>
  <path d="M14.4082 0.848044L15.2453 1.58398C15.4006 1.71972 15.4777 1.90156 15.4662 2.09492L15.2691 4.11874C15.2416 4.39921 15.1742 4.51816 14.9524 4.60761C14.7871 4.67148 14.7756 4.70878 14.7756 4.96835L14.7676 11.0295C14.7676 11.3432 14.8057 11.7406 15.0375 11.7406C15.1883 11.7406 15.3383 11.5426 15.5416 11.2902C15.7858 10.9633 16.1268 10.6248 16.7154 10.6248C17.4102 10.6248 17.9078 11.1527 17.9078 11.8875C17.9078 12.8887 17.2315 13.4881 17.2315 14.2779C17.2315 14.9611 18.4477 15.7795 18.4477 17.7676C18.4477 20.1666 16.6717 21.7553 13.9895 21.7553C13.1763 21.7553 12.4462 21.6092 11.8254 21.3368C12.0433 20.8131 12.0243 20.1743 11.7785 19.6144L10.0436 15.7074C10.3754 15.0731 10.7457 14.6549 10.7457 14.2779C10.7457 13.4881 10.0711 12.8887 10.0711 11.8875C10.0711 11.1527 10.567 10.6248 11.2635 10.6248C11.8522 10.6248 12.1932 10.9633 12.4436 11.2902C12.6406 11.5426 12.7889 11.7406 12.9397 11.7406C13.1715 11.7406 13.2096 11.3432 13.2096 11.0295L13.2016 4.96835C13.2016 4.70878 13.1901 4.67148 13.0248 4.60761C12.8047 4.51816 12.7373 4.39921 12.708 4.11874L12.5127 2.09492C12.4994 1.90156 12.5783 1.71972 12.7336 1.58398L13.5707 0.848044C13.7029 0.735349 13.8565 0.691013 13.9895 0.691013C14.1305 0.691013 14.2742 0.735349 14.4082 0.848044ZM12.3471 14.7969L11.56 17.04C11.4881 17.2662 11.6096 17.5297 11.8358 17.6033C12.0717 17.6867 12.3359 17.5652 12.4158 17.3293L13.1977 15.0924C13.2776 14.8599 13.1498 14.593 12.9219 14.5228C12.6842 14.4359 12.4287 14.5592 12.3471 14.7969ZM15.0703 14.5193C14.8406 14.5859 14.6979 14.8494 14.7795 15.0924L15.5649 17.3293C15.643 17.5582 15.8984 17.6832 16.1361 17.6051C16.3623 17.5402 16.5006 17.2715 16.427 17.04L15.6381 14.7969C15.5617 14.568 15.308 14.443 15.0703 14.5193Z" fill="white" fill-opacity="0.85"/>
  <path d="M0.8094 19.8787C0.44026 20.7199 0.732252 21.733 1.86858 21.733C2.27404 21.733 2.61916 21.5582 3.11154 21.1492L5.75744 18.9428C5.85607 18.8619 5.92717 18.8299 5.98576 18.8299C6.05236 18.8299 6.11721 18.8619 6.21584 18.9428L8.86174 21.1492C9.36213 21.5582 9.69748 21.733 10.111 21.733C11.241 21.733 11.541 20.7199 11.1639 19.8787L6.77717 9.98046L6.77717 5.40175C6.77717 3.1664 7.15002 1.49746 7.15002 1.17441C7.15002 0.878122 6.96291 0.691013 6.6844 0.691013C6.49104 0.691013 6.33225 0.801951 6.08908 1.06816L3.91858 3.55468C3.72522 3.78261 3.77756 4.06191 4.03381 4.1914C4.8967 4.56249 5.19436 4.70195 5.19436 5.40175L5.19436 9.97597ZM7.31721 15.8898C7.03596 15.8898 6.80354 15.6512 6.80354 15.3894C6.80354 15.1019 7.04221 14.8553 7.31721 14.8553C7.60295 14.8553 7.83362 15.0922 7.83362 15.3894C7.83362 15.6592 7.60295 15.8898 7.31721 15.8898ZM7.71076 16.8029C7.42951 16.8029 7.18283 16.566 7.18283 16.2865C7.18283 16.0088 7.42951 15.7603 7.71076 15.7603C7.9885 15.7603 8.23518 16.0008 8.23518 16.2865C8.23518 16.566 7.9885 16.8029 7.71076 16.8029ZM8.09357 17.7017C7.81408 17.7017 7.59143 17.4711 7.59143 17.1916C7.59143 16.9103 7.82209 16.6637 8.09357 16.6637C8.38732 16.6637 8.61974 16.9086 8.61974 17.1916C8.61974 17.4631 8.37306 17.7017 8.09357 17.7017Z" fill="white" fill-opacity="0.85"/>
 </g>
</svg>
