<?xml version="1.0" encoding="UTF-8"?>
<!--Generator: Apple Native CoreSVG 341-->
<!DOCTYPE svg
PUBLIC "-//W3C//DTD SVG 1.1//EN"
       "http://www.w3.org/Graphics/SVG/1.1/DTD/svg11.dtd">
<svg version="1.1" xmlns="http://www.w3.org/2000/svg" xmlns:xlink="http://www.w3.org/1999/xlink" viewBox="0 0 27.3515 22.4043">
 <g>
  <rect height="22.4043" opacity="0" width="27.3515" x="0" y="0"/>
  <path d="M23.0883 1.05585L23.2366 3.48554C23.2543 3.68691 23.1647 3.80488 22.9553 3.95214C22.7315 4.09511 22.6977 4.20175 22.6977 4.58007L22.6977 10.4209C24.3594 10.632 25.3373 11.515 25.3373 12.8881C25.3373 13.7267 25.0489 14.3189 25.0489 14.9627C25.0489 15.8351 26.3663 16.2963 26.3663 18.3431C26.3663 20.4164 24.6213 21.7263 21.8823 21.7263C20.2846 21.7263 19.026 21.2813 18.2577 20.4968C18.5199 20.1451 18.7262 19.7491 18.8674 19.3134C19.3241 20.0799 20.3804 20.5174 21.8823 20.5174C23.9348 20.5174 25.1555 19.6988 25.1555 18.3431C25.1555 16.7726 23.8266 16.1539 23.8266 14.9414C23.8266 14.2508 24.1231 13.5264 24.1231 12.8881C24.1231 11.8846 23.2368 11.5465 21.8823 11.5465C20.526 11.5465 19.6397 11.8846 19.6397 12.8881C19.6397 13.5264 19.9362 14.2508 19.9362 14.9414C19.9362 15.6915 19.4275 16.2144 19.0399 16.8764C18.947 16.2915 18.7669 15.8252 18.5763 15.4518C18.6615 15.2945 18.7139 15.1368 18.7139 14.9627C18.7139 14.3189 18.4272 13.7267 18.4272 12.8881C18.4272 12.8772 18.4273 12.8663 18.4286 12.8561C18.4981 12.6255 18.5504 12.3652 18.5649 12.0663C18.8832 11.1632 19.7629 10.5862 21.0588 10.4209L21.0588 4.58007C21.0588 4.20976 21.0233 4.10312 20.8075 3.95214C20.5981 3.80488 20.5084 3.68515 20.5262 3.48554L20.6745 1.05585C20.686 0.819917 20.8581 0.651363 21.0665 0.651363L22.6883 0.651363C22.9047 0.651363 23.0768 0.819917 23.0883 1.05585ZM23.5477 18.0973C23.5477 18.3457 23.3436 18.5435 23.0934 18.5435L20.6498 18.5435C20.4014 18.5435 20.1973 18.3457 20.1973 18.0973C20.1973 17.8523 20.4094 17.6385 20.6498 17.6385L23.0934 17.6385C23.3436 17.6385 23.5477 17.8443 23.5477 18.0973ZM22.9493 14.6777C22.9493 15.2627 22.4735 15.7482 21.8823 15.7482C21.2813 15.7482 20.8038 15.2644 20.8038 14.6777C20.8038 14.083 21.2893 13.5992 21.8823 13.5992C22.4735 13.5992 22.9493 14.0865 22.9493 14.6777Z" fill="white" fill-opacity="0.85"/>
  <path d="M14.442 0.816401L15.2792 1.5541C15.4424 1.69785 15.5196 1.88769 15.5081 2.0873L15.311 4.11112C15.2754 4.41737 15.2018 4.55136 14.9719 4.63378C14.821 4.68788 14.8174 4.71093 14.8174 4.96249L14.8094 11.0014C14.8094 11.4129 14.8635 11.7045 15.0473 11.7045C15.1821 11.7045 15.3463 11.5225 15.5274 11.2701C15.7538 10.9191 16.1188 10.5904 16.7235 10.5904C17.436 10.5904 17.9497 11.1326 17.9497 11.8834C17.9497 12.8926 17.2733 13.492 17.2733 14.2738C17.2733 14.941 18.4895 15.7674 18.4895 17.7635C18.4895 20.1803 16.7038 21.7832 13.9975 21.7832C13.177 21.7832 12.437 21.634 11.8065 21.3555C11.9853 20.9656 12.0258 20.5018 11.917 20.0404C12.4513 20.3758 13.1559 20.5547 13.9975 20.5547C16.035 20.5547 17.2708 19.5062 17.2708 17.7635C17.2708 15.9683 16.0678 15.3719 16.0678 14.2818C16.0678 13.2619 16.7329 12.6584 16.7329 11.9158C16.7329 11.8367 16.6715 11.7754 16.6085 11.7754C16.2147 11.7754 15.9592 12.8849 15.0127 12.8849C14.5575 12.8849 14.2069 12.6398 14.0331 12.1531L13.9637 12.1531C13.7997 12.6336 13.4553 12.8867 12.9983 12.8867C12.0358 12.8867 11.7803 11.7754 11.3866 11.7754C11.3235 11.7754 11.2622 11.8367 11.2622 11.9158C11.2622 12.6584 11.929 13.2619 11.929 14.2818C11.929 15.2748 10.9308 15.8582 10.7558 17.3141L10.0287 15.6778C10.3581 15.051 10.7217 14.6386 10.7217 14.2738C10.7217 13.492 10.0471 12.8926 10.0471 11.8834C10.0471 11.1326 10.5608 10.5904 11.2715 10.5904C11.8762 10.5904 12.243 10.9191 12.4774 11.2701C12.6487 11.5225 12.8147 11.7062 12.9557 11.7062C13.128 11.7062 13.1954 11.3889 13.1954 11.0031L13.1776 4.96249C13.1776 4.71718 13.1563 4.67187 13.0311 4.63378C12.803 4.55136 12.7116 4.40937 12.6903 4.11112L12.495 2.0873C12.4737 1.8957 12.5686 1.68984 12.7159 1.5541L13.561 0.816401C13.6772 0.713472 13.8307 0.651363 13.9975 0.651363C14.1723 0.651363 14.3161 0.713472 14.442 0.816401ZM13.1338 14.6164C13.3565 14.69 13.4682 14.9402 13.3963 15.1629L12.642 17.3156C12.5622 17.5383 12.3147 17.6615 12.0903 17.5799C11.8711 17.5027 11.7577 17.2543 11.8295 17.0414L12.5856 14.8806C12.6655 14.6562 12.9077 14.533 13.1338 14.6164ZM15.4157 14.8806L16.1717 17.0414C16.2436 17.2596 16.1221 17.515 15.896 17.5816C15.6733 17.6562 15.4329 17.5348 15.3547 17.3156L14.6004 15.1629C14.5286 14.9332 14.6518 14.6795 14.8745 14.6146C15.0989 14.5383 15.3358 14.6598 15.4157 14.8806Z" fill="white" fill-opacity="0.85"/>
  <path d="M0.777411 19.8568C0.400263 20.714 0.708271 21.7592 1.87038 21.7592C2.26784 21.7592 2.6112 21.6021 3.13737 21.1674L5.78327 18.9627C5.88014 18.8801 5.94498 18.8543 5.98581 18.8543C6.03639 18.8543 6.09323 18.8801 6.19186 18.9627L8.83776 21.1674C9.37194 21.6021 9.70729 21.7592 10.1128 21.7592C11.2669 21.7592 11.5829 20.714 11.1977 19.8568L6.81725 9.97636L6.81725 5.39589C6.81725 3.16054 7.19186 1.49159 7.19186 1.16855C7.19186 0.856245 6.99674 0.651363 6.69245 0.651363C6.49284 0.651363 6.32428 0.764058 6.07487 1.03828L3.9026 3.5248C3.69323 3.76699 3.74557 4.08359 4.02585 4.21581C4.88073 4.60819 5.17038 4.72011 5.17038 5.39589L5.17038 9.95585ZM1.90905 20.2474L5.93776 11.0517L6.03385 11.0517L10.0723 20.2474C10.171 20.4687 9.99323 20.5851 9.8235 20.4412L6.8192 17.9297C6.50143 17.6687 6.23522 17.54 5.98581 17.54C5.74791 17.54 5.4817 17.6687 5.15592 17.9297L2.14987 20.4412C1.98991 20.5851 1.81217 20.4687 1.90905 20.2474ZM6.9321 15.6738C7.19831 15.6738 7.4237 15.4564 7.4237 15.1902C7.4237 14.9142 7.20632 14.6826 6.9321 14.6826C6.66413 14.6826 6.43698 14.9223 6.43698 15.1902C6.43698 15.4484 6.66589 15.6738 6.9321 15.6738ZM7.46901 16.9377C7.73522 16.9377 7.97038 16.7123 7.97038 16.4443C7.97038 16.1701 7.73522 15.943 7.46901 15.943C7.20104 15.943 6.96589 16.1781 6.96589 16.4443C6.96589 16.7123 7.20104 16.9377 7.46901 16.9377ZM7.99694 18.1918C8.27116 18.1918 8.50456 17.9566 8.50456 17.6967C8.50456 17.4287 8.27741 17.1953 7.99694 17.1953C7.74499 17.1953 7.51784 17.4305 7.51784 17.6967C7.51784 17.9646 7.72897 18.1918 7.99694 18.1918Z" fill="white" fill-opacity="0.85"/>
 </g>
</svg>
