<?xml version="1.0" encoding="UTF-8"?>
<!--Generator: Apple Native CoreSVG 341-->
<!DOCTYPE svg
PUBLIC "-//W3C//DTD SVG 1.1//EN"
       "http://www.w3.org/Graphics/SVG/1.1/DTD/svg11.dtd">
<svg version="1.1" xmlns="http://www.w3.org/2000/svg" xmlns:xlink="http://www.w3.org/1999/xlink" viewBox="0 0 20.5381 20.1848">
 <g>
  <rect height="20.1848" opacity="0" width="20.5381" x="0" y="0"/>
  <path d="M4.07812 16.1164C5.7578 17.7926 9.30644 16.5156 12.907 12.9168C16.5139 9.30644 17.7926 5.7578 16.1129 4.08163C14.4029 2.37616 10.8783 3.65488 7.25996 7.26972C3.65312 10.8863 2.36816 14.4029 4.07812 16.1164ZM5.22245 14.9605C4.22225 13.9586 5.50897 11.3307 8.4078 8.42382C11.3369 5.49471 13.9666 4.22401 14.9605 5.22421C15.9607 6.2164 14.6758 8.83808 11.7547 11.7707C8.84785 14.6758 6.2164 15.9625 5.22245 14.9605ZM16.0986 16.1146C17.8006 14.4029 16.5219 10.8881 12.907 7.26347C9.30644 3.65488 5.77382 2.37616 4.0621 4.07987C2.38417 5.7578 3.66913 9.30644 7.27148 12.9088C10.8783 16.5156 14.4189 17.7846 16.0986 16.1146ZM14.9508 14.9605C13.9604 15.9625 11.3307 14.6758 8.4078 11.7547C5.49296 8.83984 4.22225 6.2164 5.21444 5.22421C6.20839 4.22401 8.83984 5.49471 11.7547 8.41757C14.6678 11.3324 15.9607 13.9604 14.9508 14.9605ZM17.1818 4.1123L19.7037 1.59043C19.9975 1.29043 19.9975 0.784569 19.7037 0.49082C19.3922 0.181054 18.8978 0.189062 18.5943 0.49082L16.0254 3.05351ZM3.16601 15.9094L0.49082 18.5943C0.179297 18.8961 0.189062 19.3904 0.49082 19.6922C0.782812 19.9957 1.2789 20.0019 1.59043 19.7019L4.41191 16.8822ZM10.0875 20.175C15.6576 20.175 20.1767 15.6559 20.1767 10.0875C20.1767 4.51914 15.6576 0 10.0875 0C4.51914 0 0 4.51914 0 10.0875C0 15.6559 4.51914 20.175 10.0875 20.175ZM10.0875 18.1879C5.60839 18.1879 1.9871 14.5666 1.9871 10.0875C1.9871 5.60839 5.60839 1.9871 10.0875 1.9871C14.5666 1.9871 18.1897 5.60839 18.1897 10.0875C18.1897 14.5666 14.5666 18.1879 10.0875 18.1879Z" fill="white" fill-opacity="0.85"/>
 </g>
</svg>
