<?xml version="1.0" encoding="UTF-8"?>
<!--Generator: Apple Native CoreSVG 341-->
<!DOCTYPE svg
PUBLIC "-//W3C//DTD SVG 1.1//EN"
       "http://www.w3.org/Graphics/SVG/1.1/DTD/svg11.dtd">
<svg version="1.1" xmlns="http://www.w3.org/2000/svg" xmlns:xlink="http://www.w3.org/1999/xlink" viewBox="0 0 20.5381 20.1848">
 <g>
  <rect height="20.1848" opacity="0" width="20.5381" x="0" y="0"/>
  <path d="M10.0875 20.175C15.6576 20.175 20.1767 15.6559 20.1767 10.0875C20.1767 4.51914 15.6576 0 10.0875 0C4.51914 0 0 4.51914 0 10.0875C0 15.6559 4.51914 20.175 10.0875 20.175ZM10.0875 18.1879C5.60839 18.1879 1.9871 14.5666 1.9871 10.0875C1.9871 5.60839 5.60839 1.9871 10.0875 1.9871C14.5666 1.9871 18.1897 5.60839 18.1897 10.0875C18.1897 14.5666 14.5666 18.1879 10.0875 18.1879Z" fill="white" fill-opacity="0.85"/>
  <path d="M7.07968 14.5584C7.68592 14.5584 8.03065 14.1693 8.03065 13.5117L8.03065 10.6318L12.1123 10.6318L12.1123 13.5117C12.1123 14.1631 12.465 14.5584 13.049 14.5584C13.6553 14.5584 14 14.1693 14 13.5117L14 6.51463C14 5.85702 13.6553 5.46796 13.049 5.46796C12.465 5.46796 12.1123 5.86327 12.1123 6.51463L12.1123 9.1791L8.03065 9.1791L8.03065 6.51463C8.03065 5.85702 7.68592 5.46796 7.07968 5.46796C6.4957 5.46796 6.15097 5.86327 6.15097 6.51463L6.15097 13.5117C6.15097 14.1631 6.4957 14.5584 7.07968 14.5584Z" fill="white" fill-opacity="0.85"/>
 </g>
</svg>
