<?xml version="1.0" encoding="UTF-8"?>
<!--Generator: Apple Native CoreSVG 341-->
<!DOCTYPE svg
PUBLIC "-//W3C//DTD SVG 1.1//EN"
       "http://www.w3.org/Graphics/SVG/1.1/DTD/svg11.dtd">
<svg version="1.1" xmlns="http://www.w3.org/2000/svg" xmlns:xlink="http://www.w3.org/1999/xlink" viewBox="0 0 21.5105 20.9601">
 <g>
  <rect height="20.9601" opacity="0" width="21.5105" x="0" y="0"/>
  <path d="M21.1492 7.83202L21.1492 17.7887C21.1492 19.8724 20.0633 20.9601 17.9537 20.9601L8.06464 20.9601C5.95507 20.9601 4.85937 19.8724 4.85937 17.7887L4.85937 16.3174L6.77264 16.3174L6.77264 17.6199C6.77264 18.5687 7.28182 19.0469 8.17557 19.0469L17.8348 19.0469C18.7428 19.0469 19.2359 18.5687 19.2359 17.6199L19.2359 8.00077C19.2359 7.05194 18.7428 6.57557 17.8348 6.57557L16.2898 6.57557L16.2898 4.66054L17.9537 4.66054C20.0633 4.66054 21.1492 5.74023 21.1492 7.83202Z" fill="white" fill-opacity="0.85"/>
  <path d="M13.0943 0.0195312L3.20351 0.0195312C1.0957 0.0195312 0 1.10547 0 3.19101L0 13.1459C0 15.2297 1.0957 16.3174 3.20351 16.3174L13.0943 16.3174C15.2021 16.3174 16.2898 15.2297 16.2898 13.1459L16.2898 3.19101C16.2898 1.10547 15.2021 0.0195312 13.0943 0.0195312ZM12.9754 1.9328C13.8834 1.9328 14.3766 2.40917 14.3766 3.358L14.3766 12.9771C14.3766 13.9277 13.8834 14.4041 12.9754 14.4041L3.31444 14.4041C2.42245 14.4041 1.91327 13.9277 1.91327 12.9771L1.91327 3.358C1.91327 2.40917 2.42245 1.9328 3.31444 1.9328Z" fill="white" fill-opacity="0.85"/>
  <path d="M5.158 12.6402C5.75624 12.6402 6.10096 12.2592 6.10096 11.5918L6.10096 8.71366L10.1826 8.71366L10.1826 11.5918C10.1826 12.2529 10.5354 12.6402 11.1193 12.6402C11.7256 12.6402 12.0703 12.2592 12.0703 11.5918L12.0703 4.59647C12.0703 3.93886 11.7256 3.5578 11.1193 3.5578C10.5354 3.5578 10.1826 3.94511 10.1826 4.59647L10.1826 7.26718L6.10096 7.26718L6.10096 4.59647C6.10096 3.93886 5.75624 3.5578 5.158 3.5578C4.56601 3.5578 4.22128 3.94511 4.22128 4.59647L4.22128 11.5918C4.22128 12.2529 4.56601 12.6402 5.158 12.6402Z" fill="white" fill-opacity="0.85"/>
 </g>
</svg>
