<?xml version="1.0" encoding="UTF-8"?>
<!--Generator: Apple Native CoreSVG 341-->
<!DOCTYPE svg
PUBLIC "-//W3C//DTD SVG 1.1//EN"
       "http://www.w3.org/Graphics/SVG/1.1/DTD/svg11.dtd">
<svg version="1.1" xmlns="http://www.w3.org/2000/svg" xmlns:xlink="http://www.w3.org/1999/xlink" viewBox="0 0 18.5894 18.2316">
 <g>
  <rect height="18.2316" opacity="0" width="18.5894" x="0" y="0"/>
  <path d="M18.2281 3.17148L18.2281 15.0646C18.2281 17.1502 17.1404 18.2281 15.0246 18.2281L3.20351 18.2281C1.0957 18.2281 0 17.1502 0 15.0646L0 3.17148C0 1.08769 1.0957 0 3.20351 0L15.0246 0C17.1404 0 18.2281 1.08769 18.2281 3.17148ZM11.2395 5.41483L11.2395 8.16094L7.02284 8.16094L7.02284 5.41483C7.02284 4.71737 6.65956 4.30976 6.02148 4.30976C5.40742 4.30976 5.0459 4.72362 5.0459 5.41483L5.0459 12.6584C5.0459 13.3514 5.40742 13.7652 6.02148 13.7652C6.65956 13.7652 7.02284 13.3576 7.02284 12.6584L7.02284 9.69061L11.2395 9.69061L11.2395 12.6584C11.2395 13.3514 11.6107 13.7652 12.2248 13.7652C12.8629 13.7652 13.2244 13.3576 13.2244 12.6584L13.2244 5.41483C13.2244 4.71737 12.8629 4.30976 12.2248 4.30976C11.6107 4.30976 11.2395 4.72362 11.2395 5.41483Z" fill="white" fill-opacity="0.85"/>
 </g>
</svg>
