<?xml version="1.0" encoding="UTF-8"?>
<!--Generator: Apple Native CoreSVG 341-->
<!DOCTYPE svg
PUBLIC "-//W3C//DTD SVG 1.1//EN"
       "http://www.w3.org/Graphics/SVG/1.1/DTD/svg11.dtd">
<svg version="1.1" xmlns="http://www.w3.org/2000/svg" xmlns:xlink="http://www.w3.org/1999/xlink" viewBox="0 0 29.0209 25.2258">
 <g>
  <rect height="25.2258" opacity="0" width="29.0209" x="0" y="0"/>
  <path d="M11.1758 19.1791C11.1758 22.0121 13.0123 24.3537 15.3474 24.3537L17.9793 24.3537C19.0685 24.9078 20.3586 25.2258 21.7723 25.2258L22.898 25.2258C23.9383 25.2258 24.8295 25.1734 25.4119 25.0172C26.5984 24.7412 27.3695 23.8601 27.3695 22.8051C27.3695 22.6256 27.3455 22.4381 27.3002 22.2924C27.8515 21.8406 28.1473 21.2086 28.1473 20.5242C28.1473 20.2205 28.0922 19.891 27.9935 19.6344C28.3478 19.2394 28.5476 18.6685 28.5476 18.0711C28.5476 17.6982 28.4793 17.3084 28.3203 17.0039C28.5396 16.648 28.6596 16.1873 28.6596 15.7C28.6596 14.3937 27.6664 13.3891 26.3637 13.3891L23.3701 13.3891C23.2367 13.3891 23.1646 13.3348 23.1699 13.2184C23.2068 12.4047 24.5019 10.4074 24.5019 8.75859C24.5019 7.5332 23.6369 6.64062 22.4523 6.64062C21.5996 6.64062 21.0123 7.10293 20.4496 8.16523C19.458 10.0818 18.2625 11.7473 16.4697 13.9557L15.0367 13.9557C12.8596 13.9557 11.1758 16.2777 11.1758 19.1791ZM16.2676 19.1109C16.2676 17.4139 16.6344 16.3482 17.7238 14.893C18.934 13.2664 20.6262 11.315 21.8301 8.88143C22.0871 8.38338 22.24 8.266 22.4828 8.266C22.7514 8.266 22.9381 8.46698 22.9381 8.8289C22.9381 10.017 21.5822 12.0039 21.5822 13.3221C21.5822 14.3195 22.3873 14.9512 23.451 14.9512L26.332 14.9512C26.7721 14.9512 27.0975 15.2846 27.0975 15.7193C27.0975 16.051 27.0041 16.2412 26.7285 16.5186C26.508 16.7363 26.4894 17.0574 26.6709 17.2869C26.9064 17.6221 26.99 17.8105 26.99 18.0746C26.99 18.4027 26.8549 18.6473 26.534 18.9033C26.2461 19.1018 26.1334 19.4373 26.2982 19.7723C26.4787 20.1172 26.5623 20.2771 26.5623 20.5154C26.5623 20.8816 26.3383 21.1492 25.8324 21.4283C25.5623 21.5807 25.4826 21.8637 25.5951 22.1355C25.7605 22.558 25.7863 22.6273 25.7863 22.7963C25.7863 23.1074 25.5641 23.3652 25.0291 23.4994C24.5531 23.6211 23.8064 23.6797 22.8322 23.6779L21.8559 23.6762C18.4885 23.6709 16.2676 21.773 16.2676 19.1109ZM12.7301 19.1791C12.7301 17.157 13.7678 15.5494 14.9348 15.509C15.1207 15.509 15.2906 15.509 15.4846 15.509C14.9355 16.6137 14.7037 17.7396 14.7037 19.1107C14.7037 20.5564 15.1816 21.8279 16.0752 22.8355C15.8109 22.832 15.5414 22.832 15.2736 22.832C13.9088 22.7881 12.7301 21.1717 12.7301 19.1791Z" fill="white" fill-opacity="0.85"/>
  <path d="M16.9293 6.06894C16.9293 3.51191 15.3271 1.39121 13.2021 1.39121L11.84 1.39121C13.3459 2.52812 14.0105 4.23418 13.9973 6.17011C13.9875 8.24961 13.2287 9.76679 12.4471 10.792L13.5049 10.792C15.4416 10.792 16.9293 8.7291 16.9293 6.06894ZM12.7049 6.14882C12.7101 2.98457 10.2162 0.582422 6.25703 0.580664L5.09765 0.578907C4.0207 0.577149 3.19257 0.655274 2.71426 0.782227C1.9957 0.950781 1.3627 1.40664 1.3627 2.22148C1.3627 2.52871 1.44531 2.77109 1.53945 2.95039C1.60254 3.05078 1.58301 3.13262 1.49766 3.16992C0.962501 3.4164 0.538867 3.91347 0.538867 4.57929C0.538867 4.9709 0.642774 5.30019 0.824805 5.54336C0.916407 5.65625 0.898634 5.75312 0.765234 5.83672C0.385352 6.0709 0.117188 6.55996 0.117188 7.12714C0.117188 7.53007 0.240625 7.94023 0.463477 8.15761C0.571095 8.2705 0.563087 8.34336 0.437695 8.44922C0.16875 8.68613 0 9.07656 0 9.56132C0 10.4158 0.668163 11.116 1.55117 11.116L4.5455 11.116C5.27109 11.116 5.73476 11.4775 5.73476 12.0674C5.73476 13.1816 4.30996 15.2723 4.30996 16.7928C4.30996 17.6119 4.84238 18.1078 5.54687 18.1078C6.17441 18.1078 6.49374 17.6887 6.84062 17.0144C8.10742 14.5678 9.77734 12.5685 11.0574 10.8668C12.1793 9.40234 12.6978 8.12949 12.7049 6.14882Z" fill="white" fill-opacity="0.85"/>
 </g>
</svg>
