<?xml version="1.0" encoding="UTF-8"?>
<!--Generator: Apple Native CoreSVG 341-->
<!DOCTYPE svg
PUBLIC "-//W3C//DTD SVG 1.1//EN"
       "http://www.w3.org/Graphics/SVG/1.1/DTD/svg11.dtd">
<svg version="1.1" xmlns="http://www.w3.org/2000/svg" xmlns:xlink="http://www.w3.org/1999/xlink" viewBox="0 0 29.0627 25.2098">
 <g>
  <rect height="25.2098" opacity="0" width="29.0627" x="0" y="0"/>
  <path d="M11.2176 19.1631C11.2176 21.9881 13.0523 24.3377 15.3892 24.3377L18.0211 24.3377C19.1103 24.8918 20.3986 25.2098 21.8123 25.2098L22.9398 25.2098C23.9801 25.2098 24.8695 25.1476 25.4519 25.0012C26.6402 24.7172 27.4113 23.8441 27.4113 22.781C27.4113 22.6016 27.3873 22.4221 27.342 22.2746C27.8853 21.8326 28.189 21.1846 28.189 20.5002C28.189 20.2045 28.134 19.875 28.0336 19.6184C28.3896 19.2234 28.5894 18.6445 28.5894 18.0551C28.5894 17.6822 28.5193 17.2924 28.3603 16.9879C28.5814 16.632 28.7014 16.1713 28.7014 15.684C28.7014 14.3777 27.7082 13.373 26.4055 13.373L23.4119 13.373C23.2785 13.373 23.2064 13.3187 23.2099 13.2023C23.2469 12.3887 24.5437 10.3914 24.5437 8.7328C24.5437 7.50917 23.6787 6.62461 22.4924 6.62461C21.6396 6.62461 21.0523 7.0789 20.4914 8.14745C19.498 10.0658 18.3043 11.7312 16.5115 13.9396L15.0785 13.9396C12.8996 13.9396 11.2176 16.2617 11.2176 19.1631ZM16.3094 19.0869C16.3094 17.3978 16.6762 16.3322 17.7639 14.8769C18.9758 13.2486 20.6662 11.291 21.8701 8.86542C22.1271 8.36737 22.2801 8.24998 22.5228 8.24998C22.7914 8.24998 22.9781 8.45096 22.9781 8.80487C22.9781 10.001 21.6223 11.9879 21.6223 13.306C21.6223 14.2955 22.4291 14.9351 23.491 14.9351L26.3721 14.9351C26.8121 14.9351 27.1393 15.2605 27.1393 15.7033C27.1393 16.0269 27.0441 16.2172 26.7685 16.5025C26.548 16.7123 26.5295 17.0414 26.7109 17.2709C26.9465 17.5963 27.0301 17.7865 27.0301 18.0568C27.0301 18.3769 26.8967 18.6295 26.5758 18.8873C26.2861 19.0857 26.1752 19.4213 26.34 19.7562C26.5205 20.0914 26.6041 20.2611 26.6041 20.4914C26.6041 20.8656 26.3783 21.1332 25.8725 21.4123C25.6023 21.5566 25.5227 21.8476 25.6352 22.1195C25.8006 22.542 25.8281 22.6033 25.8281 22.7723C25.8281 23.0994 25.6059 23.3492 25.0691 23.4834C24.5932 23.6051 23.8482 23.6557 22.874 23.6539L21.8959 23.6504C18.5303 23.6469 16.3094 21.757 16.3094 19.0869ZM12.7719 19.1631C12.7719 17.141 13.8096 15.5316 14.9748 15.493C15.1625 15.493 15.3307 15.493 15.5264 15.493C14.9756 16.5896 14.7357 17.7236 14.7357 19.0947C14.7357 20.5307 15.2234 21.8102 16.1152 22.8115C15.851 22.808 15.5832 22.808 15.3154 22.808C13.9506 22.7641 12.7719 21.1557 12.7719 19.1631Z" fill="white" fill-opacity="0.85"/>
  <path d="M17.4838 6.05293C17.4838 3.22793 15.649 0.870314 13.3121 0.870314L10.6803 0.870314C9.59101 0.316212 8.30273 0.00625014 6.88906 0.00625014L5.76152 0.00625014C4.72129 0.00625014 3.83183 0.0505859 3.24941 0.206836C2.06113 0.49082 1.29004 1.36386 1.29004 2.41894C1.29004 2.60644 1.30606 2.78593 1.35938 2.93965C0.816016 3.3834 0.512305 4.02343 0.512305 4.70781C0.512305 5.01152 0.567383 5.34101 0.667774 5.59765C0.311719 5.99257 0.103906 6.56347 0.103906 7.15293C0.103906 7.52578 0.182031 7.92363 0.341016 8.22011C0.119922 8.58398 0 9.04472 0 9.53203C0 10.8303 0.993163 11.843 2.2959 11.843L5.28945 11.843C5.42285 11.843 5.49492 11.8973 5.49141 12.0137C5.4545 12.8273 4.15762 14.8246 4.15762 16.4832C4.15762 17.6908 5.02265 18.5914 6.20898 18.5914C7.06171 18.5914 7.64902 18.1371 8.20995 17.0686C9.20331 15.1502 10.3971 13.4848 12.1818 11.2764L13.6229 11.2764C15.8018 11.2764 17.4838 8.94628 17.4838 6.05293ZM12.392 6.1291C12.392 7.81816 12.0252 8.88379 10.9375 10.3391C9.72559 11.9656 8.03516 13.917 6.82949 16.3506C6.57422 16.8486 6.41953 16.966 6.17851 16.966C5.90995 16.966 5.72323 16.765 5.72323 16.4111C5.72323 15.207 7.07909 13.2281 7.07909 11.91C7.07909 10.9125 6.27226 10.2809 5.21035 10.2809L2.32929 10.2809C1.88925 10.2809 1.5621 9.95547 1.5621 9.51269C1.5621 9.18105 1.65722 8.98281 1.9248 8.70546C2.15331 8.4957 2.17187 8.17461 1.99042 7.94512C1.75487 7.61973 1.66327 7.42949 1.66327 7.14941C1.66327 6.83906 1.80468 6.58476 2.12558 6.3287C2.41347 6.13027 2.52616 5.78672 2.36132 5.45977C2.18085 5.11484 2.09726 4.95488 2.09726 4.7166C2.09726 4.35038 2.32304 4.0828 2.8289 3.8037C3.09902 3.65937 3.1787 3.36836 3.0662 3.08848C2.90077 2.67402 2.87323 2.61269 2.87323 2.42773C2.87323 2.12636 3.0955 1.85878 3.63222 1.73261C4.1082 1.60292 4.85312 1.55234 5.82734 1.5621L6.80546 1.56386C10.1711 1.56913 12.392 3.45898 12.392 6.1291ZM15.9295 6.05293C15.9295 8.075 14.8918 9.68438 13.7248 9.72305C13.5389 9.72305 13.3627 9.72305 13.175 9.72305C13.724 8.62637 13.9576 7.48437 13.9576 6.12129C13.9576 4.68535 13.4779 3.39609 12.5861 2.39648C12.8504 2.39999 13.1182 2.39999 13.3859 2.39999C14.7508 2.44394 15.9295 4.06035 15.9295 6.05293Z" fill="white" fill-opacity="0.85"/>
 </g>
</svg>
