<?xml version="1.0" encoding="UTF-8"?>
<!--Generator: Apple Native CoreSVG 341-->
<!DOCTYPE svg
PUBLIC "-//W3C//DTD SVG 1.1//EN"
       "http://www.w3.org/Graphics/SVG/1.1/DTD/svg11.dtd">
<svg version="1.1" xmlns="http://www.w3.org/2000/svg" xmlns:xlink="http://www.w3.org/1999/xlink" viewBox="0 0 16.3039 20.4808">
 <g>
  <rect height="20.4808" opacity="0" width="16.3039" x="0" y="0"/>
  <path d="M6.85312 0.123438C2.483 0.123438 0 2.86406 0 7.52187L0 9.4619C0 11.2246 0.846679 12.3416 1.85273 12.3416C2.09921 12.3416 2.233 12.2096 2.233 11.9693L2.233 11.1322C2.233 10.7592 2.4205 10.5709 2.64082 10.5709C2.88066 10.5709 3.06015 10.7574 3.06015 11.1322L3.06015 11.6826C3.06015 12.7342 3.74609 13.4404 4.66796 13.4404C5.10351 13.4404 5.30741 13.256 5.30741 12.8791L5.30741 11.7305C5.30741 11.3556 5.48515 11.1691 5.70546 11.1691C5.94706 11.1691 6.13456 11.3539 6.13456 11.7305L6.13456 12.7912C6.13456 13.9592 6.8082 14.5472 7.7246 14.5472C8.1326 14.5472 8.36405 14.3469 8.36405 13.9877L8.36405 11.7305C8.36405 11.3574 8.54354 11.1691 8.7621 11.1691C9.00194 11.1691 9.18944 11.3556 9.18944 11.7305L9.18944 19.2006C9.18944 19.9637 9.68983 20.4808 10.3525 20.4808C11.0525 20.4808 11.5369 19.9654 11.5369 19.2006L11.5369 8.34569C11.5369 8.09784 11.6933 7.9619 11.8488 7.9619C12.0008 7.9619 12.1269 8.05076 12.2301 8.29608L13.6533 11.6654C13.8787 12.1898 14.2273 12.4707 14.7371 12.4707C15.4637 12.4707 15.9426 11.9783 15.9426 11.3496C15.9426 11.1144 15.8955 10.9113 15.8316 10.7445L14.1838 5.87304C12.7939 1.81758 10.1248 0.123438 6.85312 0.123438Z" fill="white" fill-opacity="0.85"/>
 </g>
</svg>
