<?xml version="1.0" encoding="UTF-8"?>
<!--Generator: Apple Native CoreSVG 341-->
<!DOCTYPE svg
PUBLIC "-//W3C//DTD SVG 1.1//EN"
       "http://www.w3.org/Graphics/SVG/1.1/DTD/svg11.dtd">
<svg version="1.1" xmlns="http://www.w3.org/2000/svg" xmlns:xlink="http://www.w3.org/1999/xlink" viewBox="0 0 21.0469 21.2637">
 <g>
  <rect height="21.2637" opacity="0" width="21.0469" x="0" y="0"/>
  <path d="M4.06623 7.58651L5.91446 7.58651L5.91446 6.06171C5.91446 3.64667 7.80704 1.85175 10.3428 1.85175C12.8785 1.85175 14.7694 3.64667 14.7694 6.06171L14.7694 7.58651L16.6193 7.58651L16.6193 6.06171C16.6193 2.57344 13.958 0 10.3428 0C6.73557 0 4.06623 2.57344 4.06623 6.06171ZM3.41818 21.2539L17.2656 21.2539C19.6941 21.2539 20.9465 19.7301 20.6402 17.1453L19.7934 9.83788C19.5848 8.05116 18.4193 7.00371 16.6762 7.00371L4.00939 7.00371C2.26623 7.00371 1.11057 8.05116 0.901977 9.83788L0.0453363 17.1453C-0.260914 19.7301 0.997675 21.2539 3.41818 21.2539ZM3.41642 19.4021C2.28615 19.4021 1.72208 18.6668 1.87404 17.3642L2.72892 10.0568C2.81954 9.28456 3.27619 8.85194 4.00763 8.85194L16.6744 8.85194C17.4139 8.85194 17.8688 9.28456 17.9594 10.0568L18.808 17.3642C18.9617 18.6668 18.3942 19.4021 17.2639 19.4021ZM9.43205 15.4982L11.2535 15.4982C12.0037 15.4982 12.4154 15.1025 12.4154 14.3541L12.4154 13.7248C15.0502 13.266 17.4336 11.8826 18.6063 9.26639L17.0186 8.3748C15.901 11.0326 13.3158 12.0953 10.3428 12.0953C7.36798 12.0953 4.78282 11.0326 3.66701 8.3748L2.08557 9.26639C3.25197 11.8826 5.63361 13.266 8.27014 13.7248L8.27014 14.3541C8.27014 15.1025 8.6801 15.4982 9.43205 15.4982Z" fill="white" fill-opacity="0.85"/>
 </g>
</svg>
