<?xml version="1.0" encoding="UTF-8"?>
<!--Generator: Apple Native CoreSVG 341-->
<!DOCTYPE svg
PUBLIC "-//W3C//DTD SVG 1.1//EN"
       "http://www.w3.org/Graphics/SVG/1.1/DTD/svg11.dtd">
<svg version="1.1" xmlns="http://www.w3.org/2000/svg" xmlns:xlink="http://www.w3.org/1999/xlink" viewBox="0 0 20.9131 22.3199">
 <g>
  <rect height="22.3199" opacity="0" width="20.9131" x="0" y="0"/>
  <path d="M0 14.7486C0 18.0717 2.14316 20.8228 4.87421 20.8228L7.99823 20.8228C9.2701 21.4754 10.7881 21.8474 12.4607 21.8474L13.7869 21.8474C15.015 21.8474 16.064 21.7738 16.7502 21.6008C18.1414 21.2609 19.0267 20.2666 19.0267 19.0316C19.0267 18.8051 18.9912 18.6043 18.9361 18.4035C19.5859 17.8871 19.949 17.1478 19.949 16.3385C19.949 15.9611 19.8744 15.5873 19.7429 15.2863C20.1824 14.8142 20.4248 14.1494 20.4248 13.45C20.4248 13.0017 20.3191 12.5365 20.1353 12.1842C20.399 11.7787 20.5517 11.2258 20.5517 10.6383C20.5517 9.13183 19.392 7.96054 17.889 7.96054L14.3615 7.96054C14.1713 7.96054 14.0469 7.87167 14.0539 7.69843C14.1031 6.72324 15.6414 4.37558 15.6414 2.44921C15.6414 1.02539 14.639 0 13.2721 0C12.2723 0 11.5857 0.520701 10.9353 1.76113C9.76113 4.02695 8.32539 6.03827 6.21308 8.63183L4.51737 8.63183C1.95761 8.63183 0 11.3555 0 14.7486ZM5.90233 14.6734C5.90233 12.657 6.35428 11.3723 7.63084 9.65272C9.06268 7.73534 11.0519 5.43104 12.4855 2.57811C12.7879 1.96717 12.9941 1.8285 13.2973 1.8285C13.6537 1.8285 13.892 2.08358 13.892 2.54413C13.892 3.95331 12.2887 6.29491 12.2887 7.83554C12.2887 8.98182 13.2045 9.70994 14.4435 9.70994L17.8486 9.70994C18.3926 9.70994 18.8023 10.118 18.8023 10.6646C18.8023 11.0611 18.6717 11.3144 18.3508 11.6486C18.1012 11.8875 18.0693 12.2392 18.2879 12.4863C18.5572 12.881 18.6719 13.1264 18.6719 13.4535C18.6719 13.8385 18.4879 14.1736 18.1056 14.459C17.7887 14.6955 17.6752 15.0662 17.8523 15.4453C18.0666 15.8338 18.1697 16.0248 18.1697 16.3262C18.1697 16.7767 17.8791 17.1242 17.2746 17.4389C16.9736 17.615 16.8949 17.9314 17.018 18.2244C17.2189 18.726 17.2465 18.8086 17.2447 19.0228C17.2447 19.4246 16.9461 19.7508 16.3117 19.9107C15.7568 20.0457 14.8594 20.1078 13.7 20.106L12.5541 20.1043C8.56229 20.0973 5.90233 17.8473 5.90233 14.6734ZM1.72479 14.7486C1.72479 12.3451 2.96132 10.4252 4.37675 10.3672C4.62128 10.3654 4.86757 10.3637 5.11211 10.3601C4.44511 11.6652 4.15117 13.0271 4.15117 14.6705C4.15117 16.401 4.75156 17.9297 5.84121 19.1269C5.48984 19.1269 5.13593 19.1252 4.77753 19.1234C3.13065 19.0637 1.72479 17.1154 1.72479 14.7486Z" fill="white" fill-opacity="0.85"/>
 </g>
</svg>
