<?xml version="1.0" encoding="UTF-8"?>
<!--Generator: Apple Native CoreSVG 341-->
<!DOCTYPE svg
PUBLIC "-//W3C//DTD SVG 1.1//EN"
       "http://www.w3.org/Graphics/SVG/1.1/DTD/svg11.dtd">
<svg version="1.1" xmlns="http://www.w3.org/2000/svg" xmlns:xlink="http://www.w3.org/1999/xlink" viewBox="0 0 17.3638 18.6096">
 <g>
  <rect height="18.6096" opacity="0" width="17.3638" x="0" y="0"/>
  <path d="M12.4483 18.1102C16.5557 16.6192 17.9569 13.1944 16.362 8.80908L15.6963 6.98974C15.0946 5.33623 13.9126 4.5751 12.9704 4.91221C12.7354 5.00088 12.6592 5.17725 12.7399 5.39619L13.0266 6.18623C13.1483 6.53799 13.0434 6.77158 12.8409 6.8542C12.6108 6.92881 12.3745 6.82314 12.2448 6.46787L12.0575 5.95478C11.6999 4.95733 10.8143 4.53682 9.94654 4.84736C9.54205 4.99639 9.41705 5.24463 9.54479 5.59404L9.93268 6.67256C10.0641 7.02783 9.95123 7.25791 9.74869 7.34053C9.51685 7.42314 9.28228 7.31299 9.15885 6.95596L8.79224 5.96182C8.39107 4.86572 7.55514 4.54033 6.69283 4.85615C6.31413 4.99541 6.17135 5.26143 6.29108 5.59931L7.05885 7.71806C7.18854 8.07158 7.08366 8.30517 6.87311 8.38603C6.6528 8.46865 6.41647 8.35498 6.28678 7.9997L3.72838 0.982324C3.46842 0.26006 2.82077-0.0415017 2.20065 0.181154C1.54147 0.421583 1.25847 1.06475 1.51843 1.78701L5.23913 11.9876C5.32175 12.2257 5.21862 12.3972 5.07292 12.4522C4.93073 12.5056 4.78678 12.4603 4.6028 12.2683L2.11237 9.58701C1.72194 9.17353 1.29714 9.03193 0.813936 9.21103C0.136204 9.45498-0.141334 10.0804 0.0688212 10.6745C0.150462 10.8901 0.261399 11.064 0.37761 11.2077L3.59635 15.214C6.28209 18.5567 9.37272 19.2274 12.4483 18.1102Z" fill="white" fill-opacity="0.85"/>
 </g>
</svg>
