<?xml version="1.0" encoding="UTF-8"?>
<!--Generator: Apple Native CoreSVG 341-->
<!DOCTYPE svg
PUBLIC "-//W3C//DTD SVG 1.1//EN"
       "http://www.w3.org/Graphics/SVG/1.1/DTD/svg11.dtd">
<svg version="1.1" xmlns="http://www.w3.org/2000/svg" xmlns:xlink="http://www.w3.org/1999/xlink" viewBox="0 0 18.0751 19.5965">
 <g>
  <rect height="19.5965" opacity="0" width="18.0751" x="0" y="0"/>
  <path d="M12.9396 19.0754C17.0345 17.5865 18.7148 13.9404 17.0988 9.47483L16.2995 7.28304C15.507 5.10765 13.9728 4.19632 12.1945 4.80082C11.7021 4.20336 10.9533 4.00707 10.1519 4.30082C9.88627 4.39144 9.65443 4.52738 9.43412 4.6891C8.8974 4.0348 8.11186 3.80746 7.29526 4.1057C7.11381 4.17152 6.94037 4.27113 6.77494 4.385L5.77162 1.61585C5.30853 0.357061 4.17572-0.178679 2.9933 0.248858C1.78882 0.689677 1.25659 1.82952 1.70366 3.0883L4.36128 10.3737C4.37456 10.426 4.3648 10.4668 4.31773 10.4846C4.28042 10.5024 4.25464 10.4846 4.22359 10.4491L3.26381 9.41448C2.68335 8.84944 1.99546 8.69299 1.32358 8.9344C0.323196 9.29358-0.270554 10.2399 0.122414 11.3301C0.230616 11.6414 0.444483 12.0106 0.676904 12.2883L3.98882 16.282C6.5396 19.3539 9.5726 20.3045 12.9396 19.0754ZM12.4257 17.5026C9.82748 18.4506 7.44271 17.9194 5.20267 15.2633L1.87416 11.3278C1.77729 11.2229 1.71596 11.1278 1.66439 10.9891C1.56127 10.7037 1.68041 10.3908 2.0226 10.2682C2.28666 10.1651 2.51245 10.2664 2.72671 10.4967L5.0476 12.8342C5.44076 13.2283 5.80971 13.2692 6.15482 13.1432C6.58764 12.9826 6.78959 12.5428 6.61674 12.0446L3.12709 2.46252C2.99818 2.12209 3.15287 1.78967 3.4933 1.66076C3.83373 1.54611 4.15366 1.69455 4.27455 2.051L6.72768 8.79065C6.87045 9.15862 7.28276 9.33147 7.64447 9.19045C8.00443 9.0637 8.20306 8.66741 8.0683 8.29944L7.19095 5.90901C7.31713 5.79788 7.4851 5.68674 7.66283 5.63342C8.05756 5.48674 8.40326 5.6592 8.55795 6.08147L9.35151 8.24553C9.49252 8.62776 9.89955 8.78283 10.2497 8.65784C10.6079 8.52483 10.8128 8.14983 10.6718 7.77561L10.0679 6.08909C10.1861 5.97971 10.3638 5.86858 10.5238 5.80549C10.9265 5.66057 11.2802 5.83303 11.4349 6.26155L11.9578 7.7094C12.0925 8.08713 12.5146 8.24573 12.8763 8.11096C13.2202 7.98596 13.4269 7.59592 13.2921 7.21819L12.9552 6.28655C13.6954 6.01819 14.3755 6.60061 14.8546 7.89749L15.5638 9.85393C16.8912 13.5137 15.6855 16.3156 12.4257 17.5026Z" fill="white" fill-opacity="0.85"/>
 </g>
</svg>
