<?xml version="1.0" encoding="UTF-8"?>
<!--Generator: Apple Native CoreSVG 341-->
<!DOCTYPE svg
PUBLIC "-//W3C//DTD SVG 1.1//EN"
       "http://www.w3.org/Graphics/SVG/1.1/DTD/svg11.dtd">
<svg version="1.1" xmlns="http://www.w3.org/2000/svg" xmlns:xlink="http://www.w3.org/1999/xlink" viewBox="0 0 17.6982 22.7672">
 <g>
  <rect height="22.7672" opacity="0" width="17.6982" x="0" y="0"/>
  <path d="M8.29843 21.8978C11.8914 21.8978 14.4205 19.9685 15.7703 16.1693L17.5101 11.2861C17.6361 10.9295 17.6982 10.5844 17.6982 10.2668C17.6982 9.15956 16.8695 8.35605 15.7767 8.35605C15.0836 8.35605 14.4447 8.75468 14.1092 9.51386L13.5799 10.8162C13.5603 10.8535 13.5346 10.8793 13.4972 10.8793C13.4502 10.8793 13.4324 10.8438 13.4324 10.7984L13.4324 3.26874C13.4324 2.03828 12.6351 1.24355 11.4342 1.24355C11.0619 1.24355 10.7217 1.3707 10.4535 1.59121C10.2685 0.599415 9.57831 0 8.57987 0C7.60448 0 6.89648 0.617188 6.69375 1.57344C6.45664 1.36094 6.12792 1.24355 5.80097 1.24355C4.68515 1.24355 3.92871 2.02148 3.92871 3.17577L3.92871 4.09629C3.68262 3.86504 3.32265 3.73789 2.95293 3.73789C1.83711 3.73789 1.05313 4.55742 1.05313 5.7453L1.05313 14.2816C1.05313 18.9943 3.95312 21.8978 8.29843 21.8978ZM8.24433 20.2584C4.74687 20.2584 2.61113 18.023 2.61113 14.1131L2.61113 5.92421C2.61113 5.54999 2.85019 5.29491 3.2164 5.29491C3.57461 5.29491 3.83594 5.54999 3.83594 5.92421L3.83594 10.9514C3.83594 11.3654 4.17461 11.6605 4.54863 11.6605C4.94042 11.6605 5.28534 11.3654 5.28534 10.9514L5.28534 3.41483C5.28534 3.04061 5.52265 2.77753 5.88085 2.77753C6.24707 2.77753 6.50214 3.04061 6.50214 3.41483L6.50214 10.4428C6.50214 10.8586 6.84081 11.1519 7.22284 11.1519C7.61464 11.1519 7.94979 10.8586 7.94979 10.4428L7.94979 2.17753C7.94979 1.80331 8.20487 1.53397 8.57108 1.53397C8.92128 1.53397 9.17636 1.80331 9.17636 2.17753L9.17636 10.332C9.17636 10.7301 9.49726 11.0412 9.89706 11.0412C10.2871 11.0412 10.624 10.7301 10.624 10.332L10.624 3.41483C10.624 3.04061 10.8756 2.77753 11.2338 2.77753C11.592 2.77753 11.8488 3.04061 11.8488 3.41483L11.8488 13.1367C11.8488 13.6971 12.2006 14.0119 12.6635 14.0101C13.0519 14.0066 13.3976 13.8275 13.631 13.3146L15.0373 10.1676C15.207 9.78455 15.5385 9.65916 15.8433 9.77205C16.1803 9.89647 16.2922 10.2209 16.1357 10.6467L14.3187 15.6562C13.115 18.9758 11.0674 20.2584 8.24433 20.2584Z" fill="white" fill-opacity="0.85"/>
 </g>
</svg>
