<?xml version="1.0" encoding="UTF-8"?>
<!--Generator: Apple Native CoreSVG 341-->
<!DOCTYPE svg
PUBLIC "-//W3C//DTD SVG 1.1//EN"
       "http://www.w3.org/Graphics/SVG/1.1/DTD/svg11.dtd">
<svg version="1.1" xmlns="http://www.w3.org/2000/svg" xmlns:xlink="http://www.w3.org/1999/xlink" viewBox="0 0 15.8732 23.016">
 <g>
  <rect height="23.016" opacity="0" width="15.8732" x="0" y="0"/>
  <path d="M5.8444 2.63594C6.57331 2.63594 7.1655 2.04824 7.1655 1.32109C7.1655 0.600196 6.57331 0 5.8444 0C5.11726 0 4.53308 0.600196 4.53308 1.32109C4.53308 2.04824 5.11726 2.63594 5.8444 2.63594ZM1.43093 6.61074C2.15984 6.61074 2.76003 6.02656 2.76003 5.29765C2.76003 4.57851 2.15984 3.97656 1.43093 3.97656C0.703782 3.97656 0.116087 4.57851 0.116087 5.29765C0.116087 6.02656 0.703782 6.61074 1.43093 6.61074ZM10.3102 6.60371C11.0391 6.60371 11.6313 6.01777 11.6313 5.29062C11.6313 4.56972 11.0391 3.96953 10.3102 3.96953C9.58932 3.96953 8.99714 4.56972 8.99714 5.29062C8.99714 6.01777 9.58932 6.60371 10.3102 6.60371ZM14.2446 6.60371C14.9717 6.60371 15.5657 6.01777 15.5657 5.29062C15.5657 4.56972 14.9717 3.96953 14.2446 3.96953C13.5157 3.96953 12.9235 4.56972 12.9235 5.29062C12.9235 6.01777 13.5157 6.60371 14.2446 6.60371ZM14.2446 2.63594C14.9717 2.63594 15.5657 2.04824 15.5657 1.32109C15.5657 0.600196 14.9717 0 14.2446 0C13.5157 0 12.9235 0.600196 12.9235 1.32109C12.9235 2.04824 13.5157 2.63594 14.2446 2.63594Z" fill="white" fill-opacity="0.85"/>
  <path d="M8.44909 22.9867C12.3723 22.9867 14.9262 20.4232 14.9262 16.1506L14.9262 14.0605C14.9262 11.9941 13.919 10.7232 12.2274 10.6781C11.9719 10.0203 11.3837 9.61817 10.6301 9.61817C10.3921 9.61817 10.1602 9.65371 9.9319 9.72305C9.66315 9.01465 9.07018 8.58672 8.2739 8.58672C8.12448 8.58672 7.96882 8.61075 7.80338 8.65254L7.81139 6.0664C7.81139 4.84824 6.99596 4.01777 5.8444 4.01777C4.66628 4.01777 3.85183 4.84824 3.85183 6.0664L3.85183 12.8768C3.85183 12.9274 3.79148 12.9451 3.76218 12.8918L3.3237 11.8492C2.98581 11.1891 2.44773 10.8117 1.7864 10.8117C0.813357 10.8037-0.00578207 11.4414 0.00222581 12.5105C-0.01379 12.8228 0.0580849 13.1885 0.17078 13.5035L1.73406 17.8758C2.95457 21.2631 5.22019 22.9867 8.44909 22.9867ZM8.49343 21.4133C6.04773 21.4133 4.23093 20.2586 3.16022 17.3609L1.55905 13.023C1.51374 12.9084 1.50397 12.8293 1.50397 12.6924C1.50397 12.4408 1.66843 12.2391 1.96081 12.2391C2.1991 12.2391 2.32175 12.3777 2.43289 12.632L3.68249 15.3078C3.89636 15.7766 4.21042 15.9318 4.55827 15.9318C4.99831 15.9318 5.34147 15.592 5.34147 15.1043L5.34323 5.97773C5.34323 5.67284 5.53698 5.46933 5.83386 5.46933C6.13249 5.46933 6.328 5.67284 6.328 5.97773L6.328 12.4027C6.328 12.7877 6.64109 13.075 7.01628 13.075C7.39323 13.075 7.70456 12.7877 7.70456 12.4027L7.70456 10.1658C7.83073 10.108 7.97292 10.076 8.11511 10.076C8.47605 10.076 8.69109 10.3035 8.69109 10.6902L8.69109 12.7568C8.69109 13.1463 9.01491 13.4221 9.3821 13.4221C9.73952 13.4221 10.0633 13.1463 10.0633 12.7568L10.0633 11.1875C10.1895 11.1377 10.3397 11.1057 10.4739 11.1057C10.8348 11.1057 11.0499 11.3332 11.0499 11.7199L11.0499 13.0889C11.0499 13.4916 11.3772 13.7629 11.7382 13.7629C12.0991 13.7629 12.4264 13.4916 12.4264 13.0889L12.4264 12.2603C13.0698 12.3004 13.428 12.9557 13.428 14.1379L13.428 15.9953C13.428 19.468 11.5741 21.4133 8.49343 21.4133Z" fill="white" fill-opacity="0.85"/>
 </g>
</svg>
