<?xml version="1.0" encoding="UTF-8"?>
<!--Generator: Apple Native CoreSVG 341-->
<!DOCTYPE svg
PUBLIC "-//W3C//DTD SVG 1.1//EN"
       "http://www.w3.org/Graphics/SVG/1.1/DTD/svg11.dtd">
<svg version="1.1" xmlns="http://www.w3.org/2000/svg" xmlns:xlink="http://www.w3.org/1999/xlink" viewBox="0 0 22.9801 18.2643">
 <g>
  <rect height="18.2643" opacity="0" width="22.9801" x="0" y="0"/>
  <path d="M2.50961 0.309696C1.37094 1.61165 0.514295 3.1845 0.037537 4.81165C-0.250547 5.79484 1.20335 6.30812 1.54378 5.18039C1.95843 3.78469 2.69983 2.46535 3.69222 1.33274C4.42815 0.498366 3.2596-0.523698 2.50961 0.309696ZM2.50961 14.5769C3.25609 15.4165 4.42991 14.4032 3.69222 13.5521C2.69983 12.431 1.95843 11.1116 1.54378 9.71594C1.20511 8.5802-0.250547 9.08645 0.037537 10.0864C0.514295 11.7136 1.37094 13.2829 2.50961 14.5769Z" fill="white" fill-opacity="0.85"/>
  <path d="M14.7164 18.0183C18.3869 18.0183 22.6176 15.6872 22.6176 10.521C22.6176 8.01751 21.3199 2.64895 19.5932 2.64895C19.2572 2.64895 19.0461 2.84934 19.1391 3.0886L19.3715 3.73743C19.5633 4.29798 18.8455 4.53684 18.6262 4.00383L18.2252 3.07454C17.6406 1.73177 16.401 1.59349 15.6918 1.93762C15.4949 2.04485 15.4516 2.22297 15.5375 2.37356C15.8686 2.96028 16.1358 3.52571 16.3959 4.09485C16.6696 4.7052 15.8442 5.09173 15.511 4.45286C15.2811 3.99758 14.974 3.43235 14.6653 3.05872C13.5612 1.63841 11.6875 1.20208 9.65588 1.74954L6.58284 2.57747C4.56702 3.12942 5.43303 5.54094 7.26897 5.1636L10.2639 4.56262C11.1535 4.38235 11.9074 4.60344 12.3231 5.14602C12.9906 6.03118 13.7024 7.42922 13.7024 8.42356C13.7024 9.79621 12.8766 11.4421 11.1196 11.4421C10.2592 11.4421 9.24885 11.0611 8.21858 10.0591L6.29319 8.18684C5.06155 6.98528 2.94847 8.53665 4.35061 10.188L7.59866 14.0314C9.95256 16.8155 12.3322 18.0183 14.7164 18.0183Z" fill="white" fill-opacity="0.85"/>
 </g>
</svg>
