<?xml version="1.0" encoding="UTF-8"?>
<!--Generator: Apple Native CoreSVG 341-->
<!DOCTYPE svg
PUBLIC "-//W3C//DTD SVG 1.1//EN"
       "http://www.w3.org/Graphics/SVG/1.1/DTD/svg11.dtd">
<svg version="1.1" xmlns="http://www.w3.org/2000/svg" xmlns:xlink="http://www.w3.org/1999/xlink" viewBox="0 0 20.5381 20.1848">
 <g>
  <rect height="20.1848" opacity="0" width="20.5381" x="0" y="0"/>
  <path d="M10.0875 20.175C15.6576 20.175 20.1767 15.6559 20.1767 10.0875C20.1767 4.51914 15.6576 0 10.0875 0C4.51914 0 0 4.51914 0 10.0875C0 15.6559 4.51914 20.175 10.0875 20.175ZM10.0875 18.1879C5.60839 18.1879 1.9871 14.5666 1.9871 10.0875C1.9871 5.60839 5.60839 1.9871 10.0875 1.9871C14.5666 1.9871 18.1897 5.60839 18.1897 10.0875C18.1897 14.5666 14.5666 18.1879 10.0875 18.1879Z" fill="white" fill-opacity="0.85"/>
  <path d="M4.60956 11.5947C4.60956 13.1592 5.55077 14.4344 6.83652 14.4344L7.73906 14.4344C6.81445 13.7463 6.40429 12.7242 6.42558 11.5477C6.44159 10.2775 6.90195 9.37792 7.35995 8.76484L6.65624 8.76484C5.48241 8.76484 4.60956 10.0098 4.60956 11.5947ZM7.1287 11.5592C7.09941 13.4629 8.63456 14.8943 11.034 14.9041L11.7355 14.9139C12.383 14.9219 12.8838 14.8748 13.1687 14.8064C13.601 14.6893 13.9971 14.4391 13.9971 13.9383C13.9971 13.7633 13.942 13.5963 13.8869 13.4951C13.8496 13.4338 13.8514 13.384 13.9109 13.3564C14.2252 13.2287 14.4891 12.9117 14.4891 12.5156C14.4891 12.2803 14.4225 12.0742 14.3078 11.934C14.2562 11.8646 14.266 11.7891 14.3398 11.7473C14.585 11.5955 14.7377 11.3158 14.7377 10.9713C14.7377 10.7369 14.6711 10.4723 14.5316 10.3418C14.4641 10.2777 14.4721 10.2404 14.5574 10.1728C14.7119 10.0264 14.8025 9.78046 14.8025 9.50781C14.8025 8.97695 14.4084 8.55878 13.8855 8.55878L12.0863 8.55878C11.6297 8.55878 11.3463 8.34023 11.3463 7.97324C11.3463 7.29472 12.2006 6.03456 12.2006 5.11913C12.2006 4.63261 11.8783 4.3371 11.4576 4.3371C11.0838 4.3371 10.893 4.58222 10.6889 4.9914C9.9207 6.47089 8.90292 7.67597 8.133 8.72031C7.4662 9.59668 7.14648 10.3594 7.1287 11.5592Z" fill="white" fill-opacity="0.85"/>
 </g>
</svg>
