<?xml version="1.0" encoding="UTF-8"?>
<!--Generator: Apple Native CoreSVG 341-->
<!DOCTYPE svg
PUBLIC "-//W3C//DTD SVG 1.1//EN"
       "http://www.w3.org/Graphics/SVG/1.1/DTD/svg11.dtd">
<svg version="1.1" xmlns="http://www.w3.org/2000/svg" xmlns:xlink="http://www.w3.org/1999/xlink" viewBox="0 0 20.5381 20.1848">
 <g>
  <rect height="20.1848" opacity="0" width="20.5381" x="0" y="0"/>
  <path d="M10.0875 20.175C15.6576 20.175 20.1767 15.6559 20.1767 10.0875C20.1767 4.51914 15.6576 0 10.0875 0C4.51914 0 0 4.51914 0 10.0875C0 15.6559 4.51914 20.175 10.0875 20.175ZM10.0875 18.1879C5.60839 18.1879 1.9871 14.5666 1.9871 10.0875C1.9871 5.60839 5.60839 1.9871 10.0875 1.9871C14.5666 1.9871 18.1897 5.60839 18.1897 10.0875C18.1897 14.5666 14.5666 18.1879 10.0875 18.1879Z" fill="white" fill-opacity="0.85"/>
  <path d="M6.24804 11.8117C6.24804 14.2307 7.85409 15.7172 10.0928 15.7172C11.7141 15.7172 12.8412 15.0801 13.6164 13.6119C14.1059 12.7721 14.459 11.6633 14.7754 10.6312C14.9289 10.1299 15.1428 9.50878 15.1568 9.23456C15.1709 8.91152 14.9488 8.67558 14.6248 8.65976C14.252 8.64394 14.0195 8.86152 13.7805 9.35019L13.0158 10.9867C12.9447 11.1467 12.8754 11.208 12.7945 11.208C12.6914 11.208 12.6283 11.1387 12.6283 10.977L12.6283 5.22655C12.6283 4.88573 12.3469 4.60429 12.006 4.60429C11.6475 4.60429 11.374 4.88749 11.374 5.22655L11.374 9.36269C11.2318 9.32714 11.0861 9.27382 10.9324 9.24628L10.9324 4.44843C10.9324 4.0996 10.659 3.81815 10.3021 3.81815C9.95331 3.81815 9.67988 4.0996 9.67988 4.44843L9.67988 9.18144C9.51992 9.20898 9.3662 9.21699 9.22402 9.24277L9.22402 4.91034C9.22402 4.55526 8.93105 4.28007 8.58222 4.28007C8.23515 4.28007 7.9537 4.55526 7.9537 4.91034L7.9537 9.62734C7.79023 9.69843 7.65605 9.78554 7.52011 9.86464L7.52011 6.61288C7.52011 6.2623 7.2289 5.97909 6.88984 5.97909C6.533 5.97909 6.24804 6.2623 6.24804 6.61288Z" fill="white" fill-opacity="0.85"/>
 </g>
</svg>
