<?xml version="1.0" encoding="UTF-8"?>
<!--Generator: Apple Native CoreSVG 341-->
<!DOCTYPE svg
PUBLIC "-//W3C//DTD SVG 1.1//EN"
       "http://www.w3.org/Graphics/SVG/1.1/DTD/svg11.dtd">
<svg version="1.1" xmlns="http://www.w3.org/2000/svg" xmlns:xlink="http://www.w3.org/1999/xlink" viewBox="0 0 21.3072 16.6941">
 <g>
  <rect height="16.6941" opacity="0" width="21.3072" x="0" y="0"/>
  <path d="M21.19 9.56522C21.19 6.16367 19.4318 3.38691 15.2109 1.93926L10.1375 0.227344C9.96093 0.155469 9.75957 0.108399 9.5164 0.108399C8.86191 0.108399 8.35352 0.611327 8.35352 1.36191C8.35352 1.88769 8.63437 2.25409 9.18281 2.48573L12.6918 3.9748C12.9531 4.07792 13.042 4.21386 13.042 4.36406C13.042 4.53554 12.898 4.69375 12.6422 4.69375L1.33008 4.69375C0.531444 4.69375 0 5.20214 0 5.92617C0 6.61288 0.533202 7.13905 1.33008 7.13905L9.10976 7.13905C9.50058 7.13905 9.69512 7.32655 9.69512 7.58241C9.69512 7.80898 9.49883 8.00449 9.10976 8.00449L6.76269 8.00449C6.3875 8.00449 6.1791 8.22792 6.1791 8.65995C6.1791 9.60038 6.79121 10.3158 8.00097 10.3158L9.10976 10.3158C9.5041 10.3158 9.69512 10.5033 9.69512 10.7609C9.69512 10.9892 9.50058 11.183 9.10976 11.183L7.91308 11.183C7.52637 11.183 7.33398 11.3967 7.33398 11.8402C7.33398 12.8021 8.06601 13.5041 9.16562 13.5041L9.73379 13.5041C10.1326 13.5041 10.3174 13.6996 10.3174 13.9474C10.3174 14.1758 10.1309 14.373 9.73379 14.373L8.86289 14.373C8.61465 14.373 8.47461 14.5211 8.47461 14.7693C8.47461 15.8074 9.63965 16.6941 11.4762 16.6941L13.4803 16.6941C18.3435 16.6941 21.19 14.115 21.19 9.56522Z" fill="white" fill-opacity="0.85"/>
 </g>
</svg>
