<?xml version="1.0" encoding="UTF-8"?>
<!--Generator: Apple Native CoreSVG 341-->
<!DOCTYPE svg
PUBLIC "-//W3C//DTD SVG 1.1//EN"
       "http://www.w3.org/Graphics/SVG/1.1/DTD/svg11.dtd">
<svg version="1.1" xmlns="http://www.w3.org/2000/svg" xmlns:xlink="http://www.w3.org/1999/xlink" viewBox="0 0 20.5381 20.1848">
 <g>
  <rect height="20.1848" opacity="0" width="20.5381" x="0" y="0"/>
  <path d="M20.1767 10.0973C20.1767 15.6656 15.6576 20.1848 10.0875 20.1848C4.52715 20.1848 0 15.6656 0 10.0973C0 4.53691 4.52715 0.00976562 10.0875 0.00976562C15.6576 0.00976562 20.1767 4.53691 20.1767 10.0973ZM11.109 11.1172L11.109 11.4176C11.109 11.8053 10.9004 12.0156 10.5092 12.0156L9.59824 12.0156C9.20878 12.0156 9.00019 11.8053 9.00019 11.4176L9.00019 11.1172C7.57109 10.8643 6.30117 10.0777 5.45781 8.54628C5.36367 8.71054 5.29707 8.9041 5.26953 9.13496L4.84335 12.8375C4.69511 14.1488 5.31523 14.9092 6.54218 14.9092L13.567 14.9092C14.7939 14.9092 15.4123 14.1488 15.2658 12.8375L14.8396 9.13496C14.8103 8.90234 14.7455 8.71054 14.6531 8.54628C13.8018 10.0777 12.5398 10.8643 11.109 11.1172ZM6.85957 7.23671L6.85957 7.71308L6.79023 7.71308C6.5289 7.71308 6.28808 7.7664 6.10234 7.86777C6.93964 9.58574 8.37226 10.2621 10.0537 10.2621C11.7369 10.2621 13.1678 9.58574 13.9988 7.86777C13.8211 7.7664 13.5883 7.71308 13.3172 7.71308L13.2496 7.71308L13.2496 7.23671C13.2496 5.45703 11.884 4.14648 10.0537 4.14648C8.22519 4.14648 6.85957 5.45703 6.85957 7.23671ZM12.29 7.23671L12.29 7.71132L7.81913 7.71132L7.81913 7.23671C7.81913 6.00585 8.77226 5.09804 10.0537 5.09804C11.3369 5.09804 12.29 6.00585 12.29 7.23671Z" fill="white" fill-opacity="0.85"/>
 </g>
</svg>
