<?xml version="1.0" encoding="UTF-8"?>
<!--Generator: Apple Native CoreSVG 341-->
<!DOCTYPE svg
PUBLIC "-//W3C//DTD SVG 1.1//EN"
       "http://www.w3.org/Graphics/SVG/1.1/DTD/svg11.dtd">
<svg version="1.1" xmlns="http://www.w3.org/2000/svg" xmlns:xlink="http://www.w3.org/1999/xlink" viewBox="0 0 15.8584 22.6558">
 <g>
  <rect height="22.6558" opacity="0" width="15.8584" x="0" y="0"/>
  <path d="M5.73008 2.63594C6.45722 2.63594 7.05117 2.05 7.05117 1.32734C7.05117 0.600196 6.45722 0 5.73008 0C4.99941 0 4.41523 0.600196 4.41523 1.32734C4.41523 2.05 4.99941 2.63594 5.73008 2.63594ZM1.31484 6.61074C2.04199 6.61074 2.64395 6.0248 2.64395 5.30566C2.64395 4.57676 2.04199 3.97832 1.31484 3.97832C0.585938 3.97832 0 4.57676 0 5.30566C0 6.0248 0.585938 6.61074 1.31484 6.61074ZM10.1924 6.60547C10.9213 6.60547 11.517 6.01777 11.517 5.29687C11.517 4.56972 10.9213 3.96953 10.1924 3.96953C9.47324 3.96953 8.8873 4.56972 8.8873 5.29687C8.8873 6.01777 9.47324 6.60547 10.1924 6.60547ZM14.1268 6.60547C14.8557 6.60547 15.4478 6.01777 15.4478 5.29687C15.4478 4.56972 14.8557 3.96953 14.1268 3.96953C13.3996 3.96953 12.8137 4.56972 12.8137 5.29687C12.8137 6.01777 13.3996 6.60547 14.1268 6.60547ZM14.1268 2.63594C14.8557 2.63594 15.4478 2.05 15.4478 1.32734C15.4478 0.600196 14.8557 0 14.1268 0C13.3996 0 12.8137 0.600196 12.8137 1.32734C12.8137 2.05 13.3996 2.63594 14.1268 2.63594Z" fill="white" fill-opacity="0.85"/>
  <path d="M8.85351 22.6346C12.8033 22.6346 15.0496 20.1582 15.0496 15.9518L15.0496 14.2166C15.0496 12.6117 14.2623 11.5842 13.3377 11.5842C13.0822 11.5842 12.9394 11.7367 12.9394 11.9664L12.9394 12.7219C12.9394 13.0381 12.7937 13.165 12.6267 13.165C12.4385 13.165 12.3088 13.0398 12.3088 12.7219L12.3088 12.2301C12.3088 11.2662 11.668 10.5971 10.8125 10.5971C10.391 10.5971 10.1879 10.7967 10.1879 11.1631L10.1879 12.1955C10.1879 12.4975 10.0502 12.6387 9.87519 12.6387C9.68691 12.6387 9.55898 12.4992 9.55898 12.1955L9.55898 11.2394C9.55898 10.1574 8.91093 9.60469 8.0707 9.60469C7.675 9.60469 7.44433 9.80605 7.44433 10.1707L7.44433 12.1955C7.44433 12.4957 7.3084 12.6387 7.1414 12.6387C6.94687 12.6387 6.81894 12.4975 6.81894 12.1955L6.81894 5.49902C6.81894 4.77929 6.33261 4.28769 5.72129 4.28769C5.05664 4.28769 4.6041 4.77754 4.6041 5.49902L4.6041 15.2342C4.6041 15.5584 4.23809 15.5984 4.13769 15.3523L2.81191 12.2205C2.60156 11.7342 2.25371 11.4719 1.78731 11.4719C1.11563 11.4719 0.670316 11.9439 0.670316 12.5338C0.670316 12.7477 0.701371 12.9437 0.759965 13.0955L2.24199 17.4525C3.49082 21.108 5.89922 22.6346 8.85351 22.6346Z" fill="white" fill-opacity="0.85"/>
 </g>
</svg>
