<?xml version="1.0" encoding="UTF-8"?>
<!--Generator: Apple Native CoreSVG 341-->
<!DOCTYPE svg
PUBLIC "-//W3C//DTD SVG 1.1//EN"
       "http://www.w3.org/Graphics/SVG/1.1/DTD/svg11.dtd">
<svg version="1.1" xmlns="http://www.w3.org/2000/svg" xmlns:xlink="http://www.w3.org/1999/xlink" viewBox="0 0 27.5164 25.4502">
 <g>
  <rect height="25.4502" opacity="0" width="27.5164" x="0" y="0"/>
  <path d="M0.8468 6.51046L3.5513 7.09132C3.93704 7.17647 4.16672 7.53116 4.09309 7.90713C4.02747 8.29111 3.64173 8.51807 3.27552 8.44893L0.561255 7.87959C0.196803 7.8042-0.0479221 7.45303 0.00793696 7.08682C0.0655538 6.6878 0.439771 6.42354 0.8468 6.51046ZM3.30441 2.17256L5.26907 4.12921C5.54485 4.40499 5.53332 4.83506 5.26907 5.11084C5.00481 5.38838 4.55344 5.38838 4.27767 5.11084L2.32278 3.15596C2.03723 2.87217 2.04524 2.4501 2.32278 2.17256C2.59856 1.89678 3.02063 1.88878 3.30441 2.17256ZM8.02805 0.555182L8.60715 3.25792C8.69406 3.61436 8.43508 3.99835 8.06086 4.07901C7.67336 4.16592 7.31516 3.90518 7.23001 3.53546L6.6509 0.844243C6.56399 0.462018 6.82473 0.0922932 7.20071 0.0151451C7.57043-0.0637607 7.94289 0.172957 8.02805 0.555182Z" fill="white" fill-opacity="0.85"/>
  <path d="M23.3409 6.67432C23.5716 6.89522 23.7712 7.17022 23.93 7.5251L26.1563 12.2032C27.8798 15.8507 27.4708 19.0046 24.9169 21.5442C23.4815 22.9825 21.8177 23.7472 20.111 23.8019C20.8337 23.4379 21.5254 22.926 22.1708 22.2772C22.6829 21.7664 23.1088 21.2307 23.4443 20.6701C23.538 20.5936 23.6292 20.5066 23.7196 20.4161C25.7138 18.422 26.254 16.071 24.7642 12.8679L22.5073 8.03779C22.3153 7.63779 22.0132 7.47861 21.6905 7.63154C21.3794 7.77021 21.2364 8.08662 21.3884 8.47763L21.7963 9.54722L21.1839 8.25811C21.0251 7.913 20.8255 7.63624 20.5948 7.40733C20.5007 7.31297 20.4012 7.2302 20.2973 7.15963C20.3771 6.98193 20.4885 6.82027 20.63 6.67881C21.4114 5.90538 22.5575 5.88917 23.3409 6.67432ZM15.3728 4.7419L17.969 7.33507C17.9368 7.36078 17.9061 7.38974 17.8759 7.41983C17.4747 7.82099 17.3167 8.3919 17.4256 9.02187L14.3571 5.95849C14.0941 5.69541 13.7341 5.68916 13.4825 5.94248C13.4106 6.01489 13.3591 6.09437 13.3284 6.17711L12.6267 5.47491C12.4991 5.34613 12.3657 5.23655 12.228 5.14841C12.3024 4.99279 12.4053 4.84911 12.5353 4.72393C13.3823 3.86886 14.5087 3.86807 15.3728 4.7419ZM9.33996 6.4005L9.27063 6.35669C9.3012 6.29466 9.33735 6.2342 9.37874 6.17547C9.35933 6.24964 9.34672 6.32499 9.33996 6.4005Z" fill="white" fill-opacity="0.85"/>
  <path d="M22.1708 22.2772C24.7167 19.7376 25.1337 16.5837 23.4103 12.9442L21.1839 8.25811C21.0251 7.913 20.8255 7.63624 20.5948 7.40733C19.8114 6.62218 18.6573 6.64015 17.8759 7.41983C17.3931 7.90265 17.2624 8.63136 17.5239 9.41261L18.0675 10.7087C18.0835 10.746 18.079 10.7878 18.0595 10.8091C18.0239 10.8446 17.9849 10.8349 17.9493 10.8011L12.6267 5.47491C11.7626 4.60285 10.6362 4.61163 9.78918 5.45694C9.52356 5.71456 9.37082 6.05577 9.33996 6.4005C8.50754 5.83273 7.59778 5.88819 6.88333 6.6044C6.19817 7.28604 6.13645 8.2251 6.67317 9.02999C6.35149 9.06534 6.04759 9.20831 5.80149 9.44464C5.01653 10.2296 5.02728 11.3116 5.85501 12.1313L6.49368 12.778C6.16126 12.7858 5.81458 12.9476 5.54348 13.2106C4.76653 14.0036 4.79407 15.1433 5.63333 15.9745L11.6648 22.0157C14.9991 25.3501 19.106 25.3581 22.1708 22.2772ZM20.9736 21.1571C18.5023 23.6284 15.4095 23.5644 12.6484 20.7917L6.86066 15.0103C6.58957 14.7392 6.58156 14.381 6.83664 14.1339C7.0882 13.8743 7.45617 13.8726 7.72727 14.1339L11.279 17.6874C11.5716 17.988 12.0112 17.9542 12.2798 17.6856C12.5644 17.4091 12.5964 16.9614 12.3038 16.6706L6.97766 11.3347C6.70656 11.0716 6.69054 10.7214 6.95363 10.4698C7.19719 10.2147 7.56516 10.2147 7.83625 10.4681L12.8038 15.4454C13.0964 15.738 13.5458 15.7024 13.8144 15.4419C14.0874 15.1573 14.1212 14.7097 13.8304 14.4189L7.99211 8.58233C7.72101 8.321 7.71652 7.94678 7.96808 7.6917C8.21516 7.43838 8.58137 7.44463 8.85071 7.71572L14.6179 13.4812C14.9025 13.7577 15.3501 13.7479 15.6187 13.4651C15.9032 13.1966 15.929 12.7329 15.6444 12.4564L10.7462 7.56612C10.4831 7.29502 10.4751 6.93858 10.7364 6.68526C10.988 6.42393 11.348 6.43018 11.603 6.70127L18.4888 13.5755C18.8816 13.9683 19.362 13.9437 19.6884 13.612C19.9509 13.3415 20.0759 12.9647 19.87 12.4421L18.6423 9.22041C18.4903 8.8294 18.6333 8.50322 18.9444 8.36455C19.2671 8.21338 19.5693 8.3708 19.7612 8.78057L22.0181 13.6026C23.5062 16.8138 22.9677 19.1567 20.9736 21.1571Z" fill="white" fill-opacity="0.85"/>
 </g>
</svg>
