<?xml version="1.0" encoding="UTF-8"?>
<!--Generator: Apple Native CoreSVG 341-->
<!DOCTYPE svg
PUBLIC "-//W3C//DTD SVG 1.1//EN"
       "http://www.w3.org/Graphics/SVG/1.1/DTD/svg11.dtd">
<svg version="1.1" xmlns="http://www.w3.org/2000/svg" xmlns:xlink="http://www.w3.org/1999/xlink" viewBox="0 0 28.0385 25.8144">
 <g>
  <rect height="25.8144" opacity="0" width="28.0385" x="0" y="0"/>
  <path d="M0.8468 6.69254L3.5513 7.2734C3.93704 7.35855 4.16672 7.71324 4.09309 8.08921C4.02747 8.4732 3.64173 8.70015 3.28353 8.63101L0.561255 8.06167C0.196803 7.98628-0.0479221 7.63511 0.00793696 7.2689C0.0655538 6.86988 0.439771 6.60562 0.8468 6.69254ZM3.30441 2.35465L5.26907 4.31129C5.54485 4.58707 5.53332 5.01715 5.26907 5.29293C5.00481 5.57046 4.56145 5.57046 4.28567 5.29293L2.32278 3.33804C2.03723 3.05425 2.04524 2.63218 2.32278 2.35465C2.59856 2.07887 3.02063 2.07086 3.30441 2.35465ZM8.02805 0.737264L8.60715 3.44C8.69406 3.79645 8.43508 4.18043 8.06086 4.26109C7.68137 4.34801 7.31516 4.08727 7.23001 3.71754L6.6509 1.02633C6.56399 0.644101 6.82473 0.274376 7.20071 0.197228C7.57844 0.118322 7.94289 0.35504 8.02805 0.737264Z" fill="white" fill-opacity="0.85"/>
  <path d="M23.6522 7.55797C23.9931 7.93648 24.5349 9.04331 24.9792 9.89292C25.8769 11.5744 26.8554 13.4857 27.2733 15.1992C28.0597 17.8687 27.5587 20.0958 25.4325 22.2203C24.2474 23.4053 22.8565 24.1296 21.4105 24.3281C21.8692 24.0089 22.3096 23.6399 22.7267 23.2228C25.2124 20.729 25.8206 17.9958 24.9329 14.8826C24.4811 12.9886 23.4372 10.9312 22.5235 9.23726C22.3221 8.84814 22.1127 8.4337 21.903 8.04325C21.962 7.83115 22.0804 7.64933 22.2657 7.48629C22.7038 7.09567 23.2671 7.12535 23.6522 7.55797ZM15.3497 5.657L16.9805 7.291C16.828 7.64445 16.7618 8.04997 16.7921 8.52692L17.0003 9.01716L13.7032 5.72002C13.721 5.69755 13.7408 5.67611 13.7616 5.65524C14.1989 5.21969 14.9044 5.21969 15.3497 5.657Z" fill="white" fill-opacity="0.85"/>
  <path d="M11.8997 22.1576C14.9976 25.2456 18.915 25.0081 21.7108 22.2203C23.8308 20.0958 24.338 17.8687 23.5517 15.1992C23.1355 13.4857 22.1552 11.5744 21.2575 9.89292C20.8132 9.04331 20.2714 7.93648 19.9306 7.55797C19.5454 7.12535 18.9821 7.09567 18.5441 7.48629C18.0466 7.92399 18.023 8.49703 18.3445 9.42614L19.4528 12.4627C19.563 12.7558 19.5452 12.93 19.4351 13.0402C19.3107 13.1646 19.1409 13.1841 18.9126 12.9558L11.6298 5.657C11.1747 5.21969 10.479 5.21969 10.0417 5.65524C9.59992 6.09879 9.59992 6.79977 10.0435 7.24332L15.336 12.5421C15.1025 12.6558 14.8528 12.8015 14.605 12.965L8.47336 6.84137C8.03605 6.39606 7.33059 6.39606 6.88703 6.84137C6.44973 7.28492 6.44973 7.98414 6.88703 8.42769L12.9405 14.475C12.7513 14.6953 12.5745 14.9316 12.4093 15.1599L6.85832 9.60894C6.41477 9.16539 5.7218 9.16363 5.27024 9.60719C4.84446 10.0507 4.84446 10.7517 5.272 11.1953L11.3032 17.2185C11.1833 17.5277 11.1052 17.8351 11.0351 18.1283L6.84387 13.9371C6.40833 13.4918 5.70911 13.4918 5.25755 13.9336C4.83001 14.3789 4.83001 15.0718 5.25755 15.5154Z" fill="white" fill-opacity="0.85"/>
 </g>
</svg>
