<?xml version="1.0" encoding="UTF-8"?>
<!--Generator: Apple Native CoreSVG 341-->
<!DOCTYPE svg
PUBLIC "-//W3C//DTD SVG 1.1//EN"
       "http://www.w3.org/Graphics/SVG/1.1/DTD/svg11.dtd">
<svg version="1.1" xmlns="http://www.w3.org/2000/svg" xmlns:xlink="http://www.w3.org/1999/xlink" viewBox="0 0 19.8365 19.7581">
 <g>
  <rect height="19.7581" opacity="0" width="19.8365" x="0" y="0"/>
  <path d="M17.1948 17.483C19.7407 14.9451 20.1639 11.7912 18.4262 8.15172L16.2079 3.46383C16.0491 3.12496 15.8415 2.83571 15.6188 2.61305C14.8354 1.83766 13.6813 1.85212 12.8999 2.62555C12.4171 3.10836 12.246 3.84235 12.5559 4.61832L13.0915 5.91267C13.1013 5.94997 13.1013 5.98552 13.0835 6.01306C13.0524 6.05036 13.0071 6.03083 12.9733 6.00505L7.65067 0.682387C6.78661-0.189681 5.66024-0.192415 4.81318 0.664417C4.54755 0.928285 4.38681 1.25348 4.35595 1.60446C3.53154 1.02868 2.62177 1.09391 1.90556 1.80836C1.22217 2.49176 1.16045 3.42906 1.68916 4.24547C1.36572 4.26129 1.06006 4.41402 0.825487 4.64859C0.0325208 5.44332 0.0512712 6.52359 0.862207 7.33628L1.51768 7.9855C1.17725 7.99156 0.838575 8.15503 0.575488 8.41812C-0.217478 9.21109-0.191696 10.3472 0.657325 11.1785L6.68076 17.2197C10.0231 20.554 14.1202 20.5638 17.1948 17.483ZM15.9958 16.3646C13.5263 18.8341 10.4352 18.7683 7.67235 15.9974L1.87489 10.208C1.61356 9.94663 1.59755 9.59292 1.85888 9.33335C2.1122 9.07827 2.48017 9.07827 2.74326 9.34136L6.30302 12.8914C6.5956 13.1919 7.03524 13.1599 7.3038 12.8914C7.58036 12.6148 7.6204 12.1689 7.31981 11.8763L1.99364 6.54039C1.73056 6.27906 1.71454 5.92534 1.96962 5.67378C2.22919 5.4187 2.59716 5.4187 2.85224 5.68179L7.82782 10.6494C8.1204 10.9419 8.5618 10.9162 8.83485 10.6396C9.11141 10.3648 9.1452 9.91538 8.85262 9.62281L3.00809 3.78004C2.74677 3.51871 2.73876 3.15074 2.99208 2.89566C3.23739 2.64409 3.60536 2.66011 3.86669 2.91968L9.64189 8.68863C9.92646 8.97144 10.3661 8.95366 10.6427 8.6771C10.9272 8.4023 10.9513 7.94664 10.6667 7.66207L5.76844 2.76383C5.50711 2.5025 5.49735 2.14429 5.75868 1.89097C6.012 1.62788 6.37372 1.6439 6.63505 1.89722L13.2216 8.49351C11.6227 10.5646 12.1106 12.64 13.2075 13.7369C13.5001 14.0312 13.9157 14.0507 14.195 13.7794C14.4893 13.4851 14.5009 13.0632 14.2296 12.7787C13.029 11.5834 13.5247 9.99741 14.6973 8.823C14.9749 8.54722 15.0901 8.17046 14.894 7.64781L13.6663 4.43238C13.5143 4.02535 13.6555 3.70894 13.9587 3.57827C14.2831 3.42534 14.5932 3.57827 14.7835 3.98628L17.0403 8.8146C18.5302 12.0177 17.9899 14.3607 15.9958 16.3646Z" fill="white" fill-opacity="0.85"/>
 </g>
</svg>
