<?xml version="1.0" encoding="UTF-8"?>
<!--Generator: Apple Native CoreSVG 341-->
<!DOCTYPE svg
PUBLIC "-//W3C//DTD SVG 1.1//EN"
       "http://www.w3.org/Graphics/SVG/1.1/DTD/svg11.dtd">
<svg version="1.1" xmlns="http://www.w3.org/2000/svg" xmlns:xlink="http://www.w3.org/1999/xlink" viewBox="0 0 21.5105 20.9601">
 <g>
  <rect height="20.9601" opacity="0" width="21.5105" x="0" y="0"/>
  <path d="M16.2898 3.19101L16.2898 4.66054L14.3766 4.66054L14.3766 3.358C14.3766 2.40917 13.8754 1.9328 12.9754 1.9328L3.31444 1.9328C2.40643 1.9328 1.91327 2.40917 1.91327 3.358L1.91327 12.9771C1.91327 13.9277 2.40643 14.4041 3.31444 14.4041L4.85937 14.4041L4.85937 16.3174L3.20351 16.3174C1.08769 16.3174 0 15.2297 0 13.1459L0 3.19101C0 1.10547 1.08769 0.0195312 3.20351 0.0195312L13.0943 0.0195312C15.1941 0.0195312 16.2898 1.10547 16.2898 3.19101Z" fill="white" fill-opacity="0.85"/>
  <path d="M8.06464 20.9601L17.9537 20.9601C20.0553 20.9601 21.1492 19.8724 21.1492 17.7887L21.1492 7.83202C21.1492 5.74823 20.0553 4.66054 17.9537 4.66054L8.06464 4.66054C5.94706 4.66054 4.85937 5.74023 4.85937 7.83202L4.85937 17.7887C4.85937 19.8724 5.94706 20.9601 8.06464 20.9601ZM8.17557 19.0469C7.27381 19.0469 6.77264 18.5687 6.77264 17.6199L6.77264 8.00077C6.77264 7.05194 7.27381 6.57557 8.17557 6.57557L17.8348 6.57557C18.7348 6.57557 19.2359 7.05194 19.2359 8.00077L19.2359 17.6199C19.2359 18.5687 18.7348 19.0469 17.8348 19.0469Z" fill="white" fill-opacity="0.85"/>
  <path d="M9.41209 14.3988C9.41209 16.5434 10.8326 17.8656 12.8307 17.8656C14.2609 17.8656 15.2504 17.2916 15.9377 15.9914C16.3713 15.2492 16.6836 14.2762 16.9662 13.3553C17.1002 12.916 17.2928 12.3588 17.3051 12.1219C17.3174 11.8316 17.1211 11.6205 16.8281 11.6047C16.5041 11.5889 16.293 11.7887 16.0797 12.2223L15.4109 13.6687C15.3478 13.8189 15.2865 13.8642 15.2074 13.8642C15.1203 13.8642 15.0652 13.8029 15.0652 13.659L15.0652 8.56756C15.0652 8.26756 14.8131 8.01541 14.5113 8.01541C14.1953 8.01541 13.9512 8.26932 13.9512 8.56756L13.9512 12.2357C13.833 12.1984 13.7068 12.1646 13.5629 12.1291L13.5629 7.88358C13.5629 7.57381 13.3187 7.32967 13.0107 7.32967C12.701 7.32967 12.4568 7.57381 12.4568 7.88358L12.4568 12.0803C12.3226 12.09 12.1805 12.1078 12.0463 12.1336L12.0463 8.29217C12.0463 7.9744 11.8004 7.73826 11.4746 7.73826C11.1764 7.73826 10.9224 7.9744 10.9224 8.29217L10.9224 12.4711C10.7705 12.5342 10.6541 12.6133 10.5439 12.6746L10.5439 9.79491C10.5439 9.48514 10.282 9.23124 9.98377 9.23124C9.67401 9.23124 9.41209 9.48514 9.41209 9.79491Z" fill="white" fill-opacity="0.85"/>
 </g>
</svg>
