<?xml version="1.0" encoding="UTF-8"?>
<!--Generator: Apple Native CoreSVG 341-->
<!DOCTYPE svg
PUBLIC "-//W3C//DTD SVG 1.1//EN"
       "http://www.w3.org/Graphics/SVG/1.1/DTD/svg11.dtd">
<svg version="1.1" xmlns="http://www.w3.org/2000/svg" xmlns:xlink="http://www.w3.org/1999/xlink" viewBox="0 0 20.5381 20.1848">
 <g>
  <rect height="20.1848" opacity="0" width="20.5381" x="0" y="0"/>
  <path d="M20.1767 10.0875C20.1767 15.6478 15.6576 20.175 10.0875 20.175C4.52715 20.175 0 15.6478 0 10.0875C0 4.51914 4.52715 0 10.0875 0C15.6576 0 20.1767 4.51914 20.1767 10.0875ZM9.64355 4.25077L9.64355 9.16991C9.48183 9.18769 9.32812 9.2037 9.17441 9.23124L9.17441 4.72421C9.17441 4.36562 8.87167 4.07714 8.50781 4.07714C8.14921 4.07714 7.85449 4.36562 7.85449 4.72421L7.85449 9.63535C7.68124 9.70644 7.54706 9.79531 7.40937 9.87441L7.40937 6.50214C7.40937 6.13652 7.10663 5.83554 6.75429 5.83554C6.37441 5.83554 6.07792 6.13652 6.07792 6.50214L6.07792 11.8959C6.07792 14.4008 7.74863 15.9467 10.0777 15.9467C11.7549 15.9467 12.9246 15.2883 13.7281 13.7758C14.2424 12.9014 14.6105 11.7555 14.9385 10.6844C15.1018 10.1582 15.3271 9.50253 15.3412 9.21503C15.3588 8.8787 15.1252 8.63124 14.7879 8.61367C14.3937 8.59609 14.1561 8.82519 13.9072 9.34316L13.1115 11.0391C13.0387 11.2088 12.9711 11.2621 12.8885 11.2621C12.7756 11.2621 12.7125 11.1928 12.7125 11.0293L12.7125 5.05995C12.7125 4.69784 12.4178 4.40312 12.0654 4.40312C11.6935 4.40312 11.4068 4.6996 11.4068 5.05995L11.4068 9.36093C11.2646 9.32363 11.1092 9.27206 10.9555 9.22675L10.9555 4.25077C10.9555 3.89491 10.6687 3.59218 10.2986 3.59218C9.92851 3.59218 9.64355 3.89491 9.64355 4.25077Z" fill="white" fill-opacity="0.85"/>
 </g>
</svg>
