<?xml version="1.0" encoding="UTF-8"?>
<!--Generator: Apple Native CoreSVG 341-->
<!DOCTYPE svg
PUBLIC "-//W3C//DTD SVG 1.1//EN"
       "http://www.w3.org/Graphics/SVG/1.1/DTD/svg11.dtd">
<svg version="1.1" xmlns="http://www.w3.org/2000/svg" xmlns:xlink="http://www.w3.org/1999/xlink" viewBox="0 0 22.5512 17.2931">
 <g>
  <rect height="17.2931" opacity="0" width="22.5512" x="0" y="0"/>
  <path d="M0 9.76803C0 14.3026 2.96465 17.2497 7.9037 17.2497L10.3228 17.2497C12.7283 17.2497 14.1713 16.0756 14.2101 14.1116C14.9754 13.8473 15.4316 13.1819 15.4316 12.3042C15.4316 12.0127 15.3801 11.7294 15.301 11.4655C16.1283 11.1684 16.6308 10.476 16.6308 9.57505C16.6308 9.37759 16.6068 9.17212 16.541 8.96665L19.6258 8.96665C21.0258 8.96665 21.9439 8.04751 21.9439 6.73365C21.9439 5.40397 21.0258 4.4778 19.6258 4.4778L11.5414 4.4778C11.489 4.4778 11.45 4.45827 11.45 4.40319C11.45 4.36588 11.4677 4.33209 11.5131 4.31881L12.8847 3.74244C13.6398 3.37076 14.0474 2.76451 14.0474 2.01979C14.0474 0.919987 13.3353 0.000653014 12.1314 0.000653014C11.7891-0.00735487 11.3613 0.0582698 10.9957 0.198504L5.90878 2.01745C1.99785 3.41452 0 6.03951 0 9.76803ZM1.70507 9.83013C1.70507 6.94849 3.06835 4.80396 6.46776 3.55572L11.5168 1.69185C11.6492 1.63853 11.7684 1.62076 11.923 1.62076C12.2439 1.62076 12.5115 1.85279 12.5115 2.22076C12.5115 2.52662 12.3328 2.70084 12.0269 2.83776L8.90195 4.27369C8.38886 4.51686 8.2123 4.869 8.2123 5.25143C8.2123 5.7233 8.58046 6.0858 9.11151 6.0858L19.7357 6.0858C20.126 6.0858 20.3971 6.34713 20.3971 6.72135C20.3971 7.10357 20.126 7.36041 19.7357 7.36041L12.2586 7.36041C11.8596 7.36041 11.5359 7.70006 11.5359 8.10709C11.5359 8.4981 11.8596 8.83775 12.2586 8.83775L14.9174 8.83775C14.9814 8.99146 15.0312 9.20923 15.0312 9.38697C15.0312 9.8315 14.7281 10.1239 14.256 10.1239L11.8619 10.1239C11.4406 10.1239 11.1383 10.46 11.1383 10.8475C11.1383 11.2368 11.4406 11.5729 11.8619 11.5729L13.7164 11.5729C13.7822 11.7346 13.824 11.9524 13.824 12.1284C13.824 12.5827 13.5271 12.8573 13.0648 12.8573L11.4615 12.8573C11.0447 12.8573 10.7371 13.2147 10.7371 13.6075C10.7371 13.9985 11.0447 14.3301 11.4615 14.3301L12.4945 14.3301C12.4945 15.1637 11.6818 15.6233 10.2338 15.6233L8.07675 15.6233C4.01444 15.6233 1.70507 13.4426 1.70507 9.83013Z" fill="white" fill-opacity="0.85"/>
 </g>
</svg>
