<?xml version="1.0" encoding="UTF-8"?>
<!--Generator: Apple Native CoreSVG 341-->
<!DOCTYPE svg
PUBLIC "-//W3C//DTD SVG 1.1//EN"
       "http://www.w3.org/Graphics/SVG/1.1/DTD/svg11.dtd">
<svg version="1.1" xmlns="http://www.w3.org/2000/svg" xmlns:xlink="http://www.w3.org/1999/xlink" viewBox="0 0 19.6695 25.8289">
 <g>
  <rect height="25.8289" opacity="0" width="19.6695" x="0" y="0"/>
  <path d="M5.21151 0C2.33691 0 0 2.33163 0 5.20448C0 6.37889 0.410156 7.53573 1.08047 8.40369C1.27461 8.65975 1.51562 8.75896 1.74511 8.75896C2.32382 8.75896 2.78319 8.10115 2.33085 7.52499C1.82636 6.89647 1.52187 6.07987 1.52187 5.20448C1.52187 3.16835 3.17362 1.52362 5.20975 1.52362C7.17382 1.52362 8.78065 3.06991 8.86502 5.03398C8.86854 5.08906 8.8703 5.14765 8.87205 5.22675C8.9117 5.69433 9.21444 5.93886 9.60428 5.93886C10.009 5.93886 10.3531 5.66074 10.3771 5.24863C10.3851 5.17148 10.3816 5.05019 10.3728 4.91973C10.2375 2.15938 7.96307 0 5.21151 0Z" fill="white" fill-opacity="0.85"/>
  <path d="M14.5349 22.1916C18.6299 20.7027 20.3119 17.0566 18.6959 12.591L17.8949 10.3992C17.1023 8.22382 15.5699 7.3125 13.7898 7.91699C13.2992 7.31953 12.5486 7.12324 11.749 7.41699C11.4834 7.50761 11.2498 7.64355 11.0295 7.80527C10.4945 7.15097 9.70897 6.92363 8.89061 7.22187C8.70917 7.28769 8.53573 7.3873 8.37205 7.50117L7.36873 4.73202C6.90389 3.47323 5.77284 2.93749 4.59042 3.36503C3.38593 3.80585 2.85371 4.94569 3.30077 6.20447L5.9584 13.4898C5.96992 13.5422 5.96015 13.583 5.91308 13.6008C5.87754 13.6186 5.85 13.6008 5.8207 13.5652L4.85917 12.5307C4.28046 11.9656 3.59081 11.8092 2.9207 12.0506C1.92656 12.4097 1.3248 13.356 1.72578 14.4463C1.82773 14.7576 2.0416 15.1267 2.27226 15.4045L5.58593 19.3982C8.13671 22.4701 11.168 23.4207 14.5349 22.1916ZM14.0228 20.6187C11.4246 21.5668 9.03983 21.0355 6.79979 18.3795L3.47127 14.4439C3.37264 14.339 3.31307 14.2439 3.26151 14.1053C3.15663 13.8199 3.27577 13.507 3.61971 13.3844C3.88378 13.2812 4.10956 13.3826 4.32206 13.6129L6.64471 15.9504C7.03788 16.3445 7.40506 16.3853 7.75819 16.2594C8.18299 16.0988 8.39471 15.659 8.21385 15.1607L4.7242 5.5787C4.59354 5.23826 4.74998 4.90584 5.09041 4.77693C5.43085 4.66229 5.74901 4.81072 5.87167 5.16717L8.3328 11.9068C8.46581 12.2748 8.87987 12.4476 9.23983 12.3066C9.59979 12.1799 9.79842 11.7836 9.66541 11.4156L8.78631 9.02518C8.91424 8.91405 9.08221 8.80291 9.25819 8.74959C9.65467 8.60291 9.99862 8.77537 10.1533 9.19764L10.9469 11.3617C11.0879 11.7439 11.4967 11.899 11.8469 11.774C12.2051 11.641 12.4099 11.266 12.2689 10.8918L11.6633 9.20526C11.7832 9.09588 11.9592 8.98475 12.1191 8.92166C12.5236 8.77674 12.8773 8.9492 13.032 9.37772L13.5549 10.8256C13.6879 11.2033 14.1099 11.3619 14.4717 11.2271C14.8156 11.1021 15.0222 10.7121 14.8892 10.3344L14.5523 9.40272C15.2908 9.13436 15.9726 9.71678 16.45 11.0137L17.1609 12.9701C18.4883 16.6299 17.2808 19.4318 14.0228 20.6187Z" fill="white" fill-opacity="0.85"/>
 </g>
</svg>
