<?xml version="1.0" encoding="UTF-8"?>
<!--Generator: Apple Native CoreSVG 341-->
<!DOCTYPE svg
PUBLIC "-//W3C//DTD SVG 1.1//EN"
       "http://www.w3.org/Graphics/SVG/1.1/DTD/svg11.dtd">
<svg version="1.1" xmlns="http://www.w3.org/2000/svg" xmlns:xlink="http://www.w3.org/1999/xlink" viewBox="0 0 24.2623 23.8859">
 <g>
  <rect height="23.8859" opacity="0" width="24.2623" x="0" y="0"/>
  <path d="M5.89315 10.8245L5.89315 14.6724C5.89315 18.5824 8.0289 20.8177 11.5264 20.8177C12.8479 20.8177 13.9995 20.5367 14.9719 19.8923L16.1228 21.0419C14.8798 21.9835 13.3607 22.4572 11.5805 22.4572C7.23515 22.4572 4.33516 19.5537 4.33516 14.841L4.33516 9.26833ZM13.7355 2.15057C14.0037 1.93006 14.3439 1.80291 14.7162 1.80291C15.9172 1.80291 16.7144 2.59763 16.7144 3.8281L16.7144 11.3578C16.7144 11.4031 16.7322 11.4387 16.7793 11.4387C16.8166 11.4387 16.8424 11.4129 16.8619 11.3756L17.3912 10.0732C17.7267 9.31404 18.3656 8.9154 19.0588 8.9154C20.1515 8.9154 20.9802 9.71891 20.9802 10.8261C20.9802 11.1437 20.9181 11.4888 20.7922 11.8455L19.0523 16.7287C18.9061 17.1403 18.746 17.53 18.5695 17.8934L17.4003 16.725C17.4704 16.5629 17.5368 16.3921 17.6008 16.2156L19.4178 11.206C19.5742 10.7802 19.4623 10.4558 19.1254 10.3314C18.8205 10.2185 18.489 10.3439 18.3193 10.7269L16.9131 13.874C16.6797 14.3869 16.334 14.566 15.9455 14.5695C15.4826 14.5713 15.1308 14.2564 15.1308 13.6961L15.1308 3.97419C15.1308 3.59997 14.874 3.33688 14.5158 3.33688C14.1576 3.33688 13.906 3.59997 13.906 3.97419L13.906 10.8914C13.906 11.2894 13.5691 11.6006 13.1791 11.6006C12.7793 11.6006 12.4584 11.2894 12.4584 10.8914L12.4584 2.73688C12.4584 2.36266 12.2033 2.09333 11.8531 2.09333C11.4869 2.09333 11.2318 2.36266 11.2318 2.73688L11.2318 10.5605L9.78417 9.1138L9.78417 3.97419C9.78417 3.59997 9.52909 3.33688 9.16288 3.33688C8.80468 3.33688 8.56737 3.59997 8.56737 3.97419L8.56737 7.89779L7.11639 6.44775C7.10124 6.10175 6.85746 5.86612 6.52365 5.85539L5.23231 4.56489C5.51555 4.3917 5.85613 4.29724 6.23495 4.29724C6.60468 4.29724 6.96465 4.42439 7.21074 4.65564L7.21074 3.73513C7.21074 2.58083 7.96718 1.80291 9.083 1.80291C9.40995 1.80291 9.73866 1.92029 9.97577 2.13279C10.1785 1.17654 10.8865 0.559354 11.8619 0.559354C12.8603 0.559354 13.5506 1.15877 13.7355 2.15057Z" fill="white" fill-opacity="0.85"/>
  <path d="M19.2388 22.4658C19.5406 22.7578 20.0465 22.7693 20.3385 22.4658C20.6385 22.1543 20.65 21.6697 20.3385 21.3662L2.52714 3.55837C2.22539 3.25486 1.72929 3.25486 1.41777 3.55837C1.12578 3.85837 1.12578 4.36423 1.41777 4.65798Z" fill="white" fill-opacity="0.85"/>
 </g>
</svg>
