<?xml version="1.0" encoding="UTF-8"?>
<!--Generator: Apple Native CoreSVG 341-->
<!DOCTYPE svg
PUBLIC "-//W3C//DTD SVG 1.1//EN"
       "http://www.w3.org/Graphics/SVG/1.1/DTD/svg11.dtd">
<svg version="1.1" xmlns="http://www.w3.org/2000/svg" xmlns:xlink="http://www.w3.org/1999/xlink" viewBox="0 0 16.9414 21.1761">
 <g>
  <rect height="21.1761" opacity="0" width="16.9414" x="0" y="0"/>
  <path d="M7.18807 0.0791019C2.82344 0.0826174 0 2.93164 0 7.68124L0 10.0123C0 12.3279 1.12422 13.7131 3.01621 13.7519C3.2707 14.4771 3.90409 14.9236 4.75604 14.9236C5.03144 14.9236 5.29882 14.8801 5.55644 14.7929C5.8455 15.5963 6.50409 16.0748 7.37304 16.0748C7.56249 16.0748 7.75995 16.049 7.95742 15.9929L7.95742 18.9478C7.95742 20.282 8.84276 21.1761 10.1006 21.1761C11.3805 21.1761 12.2728 20.282 12.2728 18.9478L12.2728 11.189C12.2728 11.1349 12.3021 11.0976 12.3492 11.0976C12.3865 11.0976 12.4123 11.1234 12.4238 11.1607L12.9762 12.4666C13.3346 13.1949 13.9221 13.5892 14.633 13.5892C15.6927 13.5892 16.5801 12.9012 16.5801 11.7373C16.5801 11.4127 16.5162 11.001 16.3902 10.6434L14.6451 5.76015C13.3041 2.00488 10.7689 0.0773442 7.18807 0.0791019ZM7.13397 1.73612C9.89999 1.73612 11.9564 3.04159 13.1549 6.30311L14.9449 11.1484C14.9902 11.2808 15.0178 11.392 15.0178 11.5387C15.0178 11.8418 14.7937 12.1031 14.44 12.1031C14.1519 12.1031 13.976 11.9244 13.8488 11.6346L12.4609 8.63944C12.2338 8.14237 11.8994 7.97382 11.533 7.97382C11.0771 7.97382 10.7244 8.32597 10.7244 8.84901L10.7226 19.048C10.7226 19.4142 10.4711 19.6773 10.1129 19.6773C9.75467 19.6773 9.50584 19.4142 9.50584 19.048L9.50584 11.8742C9.50584 11.4832 9.1742 11.1756 8.78319 11.1756C8.40018 11.1756 8.08456 11.4832 8.08456 11.8742L8.08456 14.4174C7.93085 14.4832 7.73085 14.5232 7.55311 14.5232C7.12284 14.5232 6.85624 14.2441 6.85624 13.7881L6.85624 11.4855C6.85624 11.0803 6.52811 10.7939 6.14862 10.7939C5.77538 10.7939 5.44726 11.0803 5.44726 11.4855L5.44726 13.268C5.2953 13.332 5.09355 13.3738 4.92382 13.3738C4.48729 13.3738 4.2287 13.0947 4.2287 12.6387L4.2287 11.1012C4.2287 10.7004 3.88905 10.4105 3.50253 10.4105C3.12929 10.4105 2.80566 10.7004 2.80566 11.1012L2.80566 12.0941C2.0121 12.0941 1.56854 11.3215 1.56854 9.92947L1.56854 7.84804C1.56854 3.95565 3.66737 1.73612 7.13397 1.73612Z" fill="white" fill-opacity="0.85"/>
 </g>
</svg>
