<?xml version="1.0" encoding="UTF-8"?>
<!--Generator: Apple Native CoreSVG 341-->
<!DOCTYPE svg
PUBLIC "-//W3C//DTD SVG 1.1//EN"
       "http://www.w3.org/Graphics/SVG/1.1/DTD/svg11.dtd">
<svg version="1.1" xmlns="http://www.w3.org/2000/svg" xmlns:xlink="http://www.w3.org/1999/xlink" viewBox="0 0 19.3195 19.0875">
 <g>
  <rect height="19.0875" opacity="0" width="19.3195" x="0" y="0"/>
  <path d="M16.7746 16.893C18.9008 14.7811 19.3937 12.5459 18.6074 9.88613C18.1974 8.15489 17.2092 6.25333 16.3213 4.57188C15.8769 3.72052 15.3351 2.61369 14.9926 2.22892C14.6074 1.79455 14.0361 1.76838 13.606 2.16526C13.1086 2.60471 13.0849 3.176 13.4064 4.10334L14.5086 7.11584C14.6428 7.47658 14.601 7.64905 14.401 7.89885C13.1279 9.37658 12.9674 11.1619 14.0896 12.3998C14.3015 12.65 14.2918 13.011 14.0558 13.2371C13.8359 13.4668 13.4349 13.4606 13.215 13.2166C12.099 11.9947 11.3852 9.64123 13.4892 7.13167L6.68378 0.334203C6.24647-0.111108 5.54101-0.111108 5.1037 0.332446C4.66015 0.767991 4.66015 1.47697 5.10546 1.92053L10.4043 7.22287C10.1564 7.33478 9.91659 7.47072 9.66698 7.6342L3.53534 1.51232C3.09003 1.07678 2.39433 1.07678 1.95527 1.51232C1.51171 1.95764 1.51171 2.6631 1.95527 3.10041L8.00429 9.14591C7.82303 9.36446 7.64452 9.60079 7.47128 9.82911L1.92206 4.2799C1.47851 3.84611 0.785542 3.84436 0.333981 4.2799C-0.109573 4.7217-0.107815 5.43244 0.335738 5.86798L6.36523 11.8957C6.25155 12.2049 6.16894 12.5141 6.09882 12.8072L1.90585 8.61603C1.4623 8.17248 0.772849 8.16896 0.329296 8.61252C-0.109765 9.04806-0.109765 9.74904 0.329296 10.1926L6.96347 16.8268C10.0596 19.9246 13.9689 19.6889 16.7746 16.893Z" fill="white" fill-opacity="0.85"/>
 </g>
</svg>
