<?xml version="1.0" encoding="UTF-8"?>
<!--Generator: Apple Native CoreSVG 341-->
<!DOCTYPE svg
PUBLIC "-//W3C//DTD SVG 1.1//EN"
       "http://www.w3.org/Graphics/SVG/1.1/DTD/svg11.dtd">
<svg version="1.1" xmlns="http://www.w3.org/2000/svg" xmlns:xlink="http://www.w3.org/1999/xlink" viewBox="0 0 29.1324 19.1828">
 <g>
  <rect height="19.1828" opacity="0" width="29.1324" x="0" y="0"/>
  <path d="M0 9.58828C0 12.7191 1.01992 15.6154 2.76308 17.9703C3.12031 18.4588 3.73808 18.4978 4.19901 18.1256C4.6244 17.7613 4.6662 17.1977 4.32323 16.7262C2.85643 14.724 1.9951 12.2459 1.9951 9.58828C1.9951 6.92089 2.85643 4.45078 4.32499 2.43261C4.66971 1.97539 4.63768 1.40547 4.19901 1.03946C3.73984 0.665435 3.12382 0.714263 2.76484 1.19473C1.01992 3.55137 0 6.45742 0 9.58828ZM28.7711 9.58828C28.7711 6.45742 27.7574 3.55137 26.0062 1.19473C25.6472 0.714263 25.0312 0.665435 24.572 1.03946C24.1334 1.40547 24.1094 1.97539 24.4443 2.43261C25.9226 4.45078 26.776 6.92089 26.776 9.58828C26.776 12.2459 25.9226 14.724 24.4461 16.7262C24.1129 17.1977 24.1449 17.7613 24.572 18.1256C25.033 18.4978 25.649 18.4588 26.008 17.9703C27.7574 15.6154 28.7711 12.7191 28.7711 9.58828Z" fill="white" fill-opacity="0.85"/>
  <path d="M14.3855 19.1713C19.6861 19.1713 23.9801 14.8773 23.9801 9.58652C23.9801 4.28769 19.6861 0 14.3855 0C9.09471 0 4.80077 4.28769 4.80077 9.58652C4.80077 14.8773 9.09471 19.1713 14.3855 19.1713ZM14.3855 17.1842C10.1955 17.1842 6.78786 13.7766 6.78786 9.58652C6.78786 5.38671 10.1955 1.97909 14.3855 1.97909C18.5853 1.97909 21.993 5.38671 21.993 9.58652C21.993 13.7766 18.5853 17.1842 14.3855 17.1842Z" fill="white" fill-opacity="0.85"/>
  <path d="M10.6961 11.4937C10.6961 13.8133 12.232 15.2332 14.3713 15.2332C15.9277 15.2332 17.0141 14.6219 17.7502 13.2008C18.2264 12.4018 18.5582 11.3391 18.8586 10.3488C19.0103 9.8705 19.2224 9.28046 19.2365 9.02402C19.2488 8.71425 19.0365 8.48808 18.7125 8.47226C18.3609 8.4582 18.1418 8.66601 17.9107 9.12891L17.1754 10.7033C17.1203 10.8553 17.043 10.9166 16.9621 10.9166C16.8607 10.9166 16.8056 10.8473 16.8056 10.6936L16.8056 5.1873C16.8056 4.858 16.534 4.58632 16.2029 4.58632C15.8656 4.58632 15.6019 4.85976 15.6019 5.1873L15.6019 9.14414C15.4678 9.10859 15.3256 9.05527 15.1781 9.02949L15.1781 4.43847C15.1781 4.10116 14.9162 3.83749 14.5806 3.83749C14.2416 3.83749 13.9779 4.10116 13.9779 4.43847L13.9779 8.97441C13.8277 9.00019 13.674 9.00019 13.5398 9.02773L13.5398 4.88085C13.5398 4.54706 13.2601 4.28163 12.9291 4.28163C12.5953 4.28163 12.3316 4.54706 12.3316 4.88085L12.3316 9.39902C12.1681 9.46211 12.042 9.54922 11.9078 9.62832L11.9078 6.51679C11.9078 6.17421 11.6361 5.90253 11.3068 5.90253C10.9713 5.90253 10.6961 6.17421 10.6961 6.51679Z" fill="white" fill-opacity="0.85"/>
 </g>
</svg>
