<?xml version="1.0" encoding="UTF-8"?>
<!--Generator: Apple Native CoreSVG 341-->
<!DOCTYPE svg
PUBLIC "-//W3C//DTD SVG 1.1//EN"
       "http://www.w3.org/Graphics/SVG/1.1/DTD/svg11.dtd">
<svg version="1.1" xmlns="http://www.w3.org/2000/svg" xmlns:xlink="http://www.w3.org/1999/xlink" viewBox="0 0 25.1375 21.8273">
 <g>
  <rect height="21.8273" opacity="0" width="25.1375" x="0" y="0"/>
  <path d="M0 17.8769C0 19.0195 0.794724 20.0152 2.18945 20.0152L22.5947 20.0152C23.9894 20.0152 24.7762 19.0195 24.7762 17.8769C24.7762 17.0359 24.3326 16.1725 23.433 15.6703L12.3912 9.47031L1.34316 15.6703C0.443553 16.1725 0 17.0359 0 17.8769ZM1.97049 17.7328C1.97049 17.5123 2.07987 17.3193 2.3662 17.1584L12.3912 11.5457L22.4162 17.1584C22.7043 17.3193 22.8137 17.5123 22.8137 17.7328C22.8137 17.9951 22.6447 18.2094 22.2793 18.2094L2.49686 18.2094C2.13944 18.2094 1.97049 17.9951 1.97049 17.7328ZM11.5047 10.4822L13.2715 10.4822L13.2715 9.36796C13.2715 8.52948 13.6801 8.16835 14.4488 7.54608C15.3541 6.80663 16.5541 5.83261 16.5541 3.93378C16.5541 1.57246 14.9035 0 12.433 0C9.97851 0 8.34395 1.68379 8.34395 4.20547C8.34395 4.77089 8.71367 5.14413 9.21093 5.14413C9.70019 5.14413 10.0541 4.77968 10.0699 4.32949C10.0875 2.77323 11.0342 1.73573 12.433 1.73573C13.8734 1.73573 14.8379 2.61054 14.8379 3.92675C14.8379 5.04023 14.2275 5.60293 13.567 6.13828C12.7049 6.83437 11.5047 7.51464 11.5047 9.31874Z" fill="white" fill-opacity="0.85"/>
 </g>
</svg>
