<?xml version="1.0" encoding="UTF-8"?>
<!--Generator: Apple Native CoreSVG 341-->
<!DOCTYPE svg
PUBLIC "-//W3C//DTD SVG 1.1//EN"
       "http://www.w3.org/Graphics/SVG/1.1/DTD/svg11.dtd">
<svg version="1.1" xmlns="http://www.w3.org/2000/svg" xmlns:xlink="http://www.w3.org/1999/xlink" viewBox="0 0 30.0885 22.6957">
 <g>
  <rect height="22.6957" opacity="0" width="30.0885" x="0" y="0"/>
  <path d="M15.5781 20.532C16.2617 20.532 16.9023 20.2045 18.1851 20.2045C19.4848 20.2045 19.8539 20.532 20.8215 20.532C22.2615 20.532 23.0531 19.9275 23.0531 18.8873C23.0531 17.1791 21.2687 15.9301 18.2984 15.9301C16.8109 15.9301 16.1664 16.1107 15.3144 16.3053L14.2264 13.866C13.156 11.5156 11.3525 10.0943 9.00331 10.0943L7.83515 10.0943C7.41386 10.0943 7.13886 9.90019 7.13886 9.49921C7.13886 8.84277 7.98808 8.68398 8.91542 8.68398C11.8435 8.68398 14.0865 10.251 15.4406 13.4625L16.1074 15.0371C16.7617 14.9039 17.4746 14.8373 18.199 14.8373C18.7769 14.8373 19.3183 14.8764 19.882 14.9738C20.4883 14.5695 21.1726 14.1439 22.0728 13.7353C23.1859 14.4775 24.4271 15.0369 25.9386 15.0369C28.4933 15.0369 29.7271 14.3789 29.7271 11.8002C29.7271 8.70644 27.5252 6.26641 24.3957 6.32012L21.8752 2.85664C20.45 0.90293 18.642 0 16.8791 0C15.4445 0 13.1918 0.813282 13.1918 1.96211C13.1918 2.72754 14.7914 3.83008 16.0209 4.60312L21.5879 8.08105C21.1502 8.48867 20.7789 8.72031 20.2484 8.72031C19.4631 8.72031 18.6228 8.21211 17.4816 7.56367C14.4246 5.74805 12.1812 4.13477 8.96308 4.13477C5.72695 4.13477 3.17539 5.96485 1.85 9.7084C0.794531 9.69433 0 10.3762 0 11.3785C0 12.5025 0.89668 13.2137 2.13769 13.2066C3.58633 15.3553 5.84649 16.1807 8.70859 16.1807C8.86386 16.1807 9.0209 16.1709 9.17793 16.1691L13.1682 19.4961C14.1545 20.3715 14.8113 20.532 15.5781 20.532ZM8.29609 21.3176C10.1439 21.3176 11.3016 20.9721 12.2479 20.331L9.2416 17.815C9.10488 17.8248 8.94062 17.8426 8.74258 17.8426C8.26484 17.8426 7.48594 17.6943 6.63887 17.6943C5.55215 17.6943 4.87832 18.275 4.87832 19.1469C4.87832 20.4502 6.21699 21.3176 8.29609 21.3176ZM25.5154 11.3824C25.0443 11.3824 24.6629 10.9832 24.6629 10.5184C24.6629 10.0437 25.0523 9.62676 25.5269 9.62676C26.0078 9.62676 26.3892 10.0064 26.3892 10.4775C26.3892 10.9557 25.998 11.3824 25.5154 11.3824Z" fill="white" fill-opacity="0.85"/>
 </g>
</svg>
