<?xml version="1.0" encoding="UTF-8"?>
<!--Generator: Apple Native CoreSVG 341-->
<!DOCTYPE svg
PUBLIC "-//W3C//DTD SVG 1.1//EN"
       "http://www.w3.org/Graphics/SVG/1.1/DTD/svg11.dtd">
<svg version="1.1" xmlns="http://www.w3.org/2000/svg" xmlns:xlink="http://www.w3.org/1999/xlink" viewBox="0 0 30.9183 23.2957">
 <g>
  <rect height="23.2957" opacity="0" width="30.9183" x="0" y="0"/>
  <path d="M20.9461 21.2598C22.9859 21.2598 23.7998 20.1912 23.7998 18.9836C23.7998 16.673 21.9324 15.6184 18.4068 15.6184C17.4213 15.6184 16.9719 15.6795 16.6176 15.7389L15.9152 13.9955C14.4881 10.4717 12.117 9.18515 9.62324 9.18515C9.23085 9.18515 8.7746 9.19316 8.35312 9.28457C7.82539 9.40254 7.61172 9.6582 7.61172 10.0068C7.61172 10.4465 7.93965 10.7416 8.40683 10.7336C8.8039 10.7176 9.11503 10.667 9.57246 10.667C11.7523 10.667 13.2947 11.8523 14.6615 14.9992L15.6412 17.3176C16.415 17.156 17.1674 17.0301 18.4055 17.0301C20.3316 17.0301 22.1014 17.5855 22.1014 18.8189C22.1014 19.2943 21.6881 19.6441 20.9461 19.6441C19.975 19.6441 19.265 19.4035 18.375 19.4035C17.2148 19.4035 16.3283 19.5725 15.8324 19.5725C15.385 19.5725 14.9459 19.5111 14.4988 19.1424L10.1195 15.2674C6.96289 15.4164 4.74452 14.6225 3.42695 12.7453C2.46073 12.8414 1.75917 12.4781 1.75917 11.7141C1.75917 10.9982 2.4328 10.5228 3.46132 10.5621C4.46718 7.32636 6.54843 5.82831 9.48184 5.82831C12.6355 5.82831 15.6936 8.31581 18.2461 9.69335C18.9715 10.0998 19.7547 10.2496 20.2746 10.2496C21.4709 10.2496 22.3785 9.51249 23.0119 8.05918L16.573 3.96562C15.9219 3.56152 15.093 2.91152 15.093 2.65488C15.093 2.0998 16.3141 1.70702 17.2353 1.70702C18.7484 1.70702 19.9795 2.583 21.1357 3.95605L24.2252 7.61562C26.9896 7.52382 29.0057 9.60507 29.0057 12.2529C29.0057 13.9041 28.2461 14.3998 26.2041 14.3998C24.9635 14.3998 23.5432 13.9033 22.2855 13.1336C20.3949 13.6287 18.4305 14.5904 16.9824 15.7869L18.2846 16.4244C19.6637 15.5957 21.117 14.9846 22.0352 14.6322C23.2826 15.4328 24.9211 15.8646 26.1553 15.8566C28.9344 15.8406 30.557 14.9289 30.557 12.2432C30.557 8.89472 28.0541 6.37363 24.9781 6.30039L22.8871 3.40195C21.2896 1.21895 19.5232 0 17.2141 0C15.4539 0 13.118 0.967578 13.118 2.45331C13.118 3.56679 14.2646 4.34043 15.5508 5.16132C16.9365 6.04062 19.1008 7.33085 20.7838 8.32851C20.5695 8.51796 20.398 8.60332 20.1785 8.60332C19.8424 8.60332 19.3488 8.42168 18.826 8.09961C14.9738 5.96796 12.5912 4.08047 9.50137 4.08047C5.92129 4.08047 3.33047 5.9334 2.09375 9.51113C0.831836 9.75976 0 10.5947 0 11.8435C0 13.3766 1.22168 14.2088 2.56757 14.2631C3.51992 15.8295 6.09726 17.1375 9.36055 16.8764L13.5209 20.4685C14.1154 20.9918 14.801 21.2387 15.7916 21.2387C16.6172 21.2387 17.3057 20.9881 18.4256 20.9881C19.4926 20.9881 20.0824 21.2598 20.9461 21.2598ZM8.73301 22.3408C10.8393 22.3408 12.8045 21.7414 14.2061 20.1562L12.9283 19.2129C12.1109 20.282 10.5738 20.8475 8.72286 20.8475C7.39082 20.8475 6.51016 20.3855 6.51016 19.6254C6.51016 19.2506 6.76231 18.9566 7.29708 18.9566C7.86778 18.9566 8.47774 19.1252 9.18496 19.1252C10.332 19.1252 11.1283 18.9807 11.8785 18.2549L10.7377 17.2059C10.2404 17.6406 9.81778 17.7365 9.34122 17.7365C8.58946 17.7285 7.98732 17.5234 7.24161 17.5234C5.83146 17.5234 4.86486 18.3584 4.86486 19.6086C4.86486 21.3418 6.40626 22.3408 8.73301 22.3408ZM25.5428 11.643C26.0416 11.643 26.4508 11.2355 26.4508 10.7447C26.4508 10.2539 26.0416 9.84472 25.5428 9.84472C25.0537 9.84472 24.6445 10.2539 24.6445 10.7447C24.6445 11.2355 25.0537 11.643 25.5428 11.643Z" fill="white" fill-opacity="0.85"/>
 </g>
</svg>
