<?xml version="1.0" encoding="UTF-8"?>
<!--Generator: Apple Native CoreSVG 341-->
<!DOCTYPE svg
PUBLIC "-//W3C//DTD SVG 1.1//EN"
       "http://www.w3.org/Graphics/SVG/1.1/DTD/svg11.dtd">
<svg version="1.1" xmlns="http://www.w3.org/2000/svg" xmlns:xlink="http://www.w3.org/1999/xlink" viewBox="0 0 20.5381 20.1848">
 <g>
  <rect height="20.1848" opacity="0" width="20.5381" x="0" y="0"/>
  <path d="M20.1767 10.0875C20.1767 15.6478 15.6576 20.175 10.0875 20.175C4.52715 20.175 0 15.6478 0 10.0875C0 4.51914 4.52715 0 10.0875 0C15.6576 0 20.1767 4.51914 20.1767 10.0875ZM5.39804 13.7644C5.39804 14.3816 6.02226 14.7865 7.00878 14.7865C7.88183 14.7865 8.42168 14.6213 8.87187 14.3141L7.45546 13.133C7.38437 13.133 7.31425 13.1508 7.21386 13.1508C6.99628 13.1508 6.6289 13.0807 6.22656 13.0807C5.70976 13.0807 5.39804 13.3471 5.39804 13.7644ZM9.30859 5.67167C9.30859 6.04023 10.0598 6.55878 10.6432 6.92187L13.2674 8.55292C13.0596 8.74745 12.8881 8.85663 12.6379 8.85663C12.2633 8.85663 11.8701 8.62421 11.3336 8.31503C9.89531 7.46913 8.83027 6.68671 7.32109 6.68671C5.79902 6.68671 4.59081 7.56152 3.96659 9.32812C3.46581 9.32734 3.09023 9.64433 3.09023 10.1168C3.09023 10.6416 3.52089 10.9746 4.09804 10.9809C4.78613 11.9898 5.86269 12.368 7.20136 12.368C7.27499 12.368 7.35488 12.36 7.41699 12.36L9.30468 13.9262C9.78066 14.3338 10.0635 14.4057 10.4266 14.4057C10.7516 14.4057 11.0533 14.2529 11.666 14.2529C12.2707 14.2529 12.442 14.4057 12.9037 14.4057C13.5812 14.4057 13.9478 14.142 13.9478 13.6457C13.9478 12.8305 13.1039 12.2617 11.7072 12.2617C11.0103 12.2617 10.6969 12.3379 10.293 12.4303L9.78964 11.285C9.29609 10.1609 8.44863 9.4955 7.33593 9.4955L6.78456 9.4955C6.58671 9.4955 6.46425 9.41835 6.46425 9.22402C6.46425 8.91523 6.86015 8.84335 7.28886 8.84335C8.66581 8.84335 9.71659 9.57949 10.3619 11.0871L10.6754 11.8314C10.9809 11.7728 11.3236 11.7436 11.6682 11.7436C11.9363 11.7436 12.1805 11.7631 12.4424 11.8012C12.7336 11.6137 13.0541 11.4102 13.4852 11.2174C14.0107 11.5717 14.5906 11.8324 15.3072 11.8324C16.5102 11.8324 17.0943 11.5184 17.0943 10.3019C17.0943 8.85019 16.0518 7.70527 14.5855 7.73886L13.3783 6.09062C12.7113 5.18769 11.8617 4.74101 11.0369 4.74101C10.3576 4.74101 9.30859 5.12108 9.30859 5.67167ZM15.5111 9.67421C15.5111 9.90136 15.3266 10.11 15.1127 10.11C14.8873 10.11 14.7125 9.91113 14.7125 9.71152C14.7125 9.47812 14.8953 9.28378 15.1207 9.28378C15.3363 9.28378 15.5111 9.46835 15.5111 9.67421Z" fill="white" fill-opacity="0.85"/>
 </g>
</svg>
