<?xml version="1.0" encoding="UTF-8"?>
<!--Generator: Apple Native CoreSVG 341-->
<!DOCTYPE svg
PUBLIC "-//W3C//DTD SVG 1.1//EN"
       "http://www.w3.org/Graphics/SVG/1.1/DTD/svg11.dtd">
<svg version="1.1" xmlns="http://www.w3.org/2000/svg" xmlns:xlink="http://www.w3.org/1999/xlink" viewBox="0 0 21.0023 18.7605">
 <g>
  <rect height="18.7605" opacity="0" width="21.0023" x="0" y="0"/>
  <path d="M4.56795 15.4268L16.0651 15.4268C16.4602 15.4268 16.6865 15.0522 16.485 14.6961L10.7404 4.64021C10.5371 4.28416 10.0959 4.28416 9.89257 4.64021L4.14803 14.6961C3.93846 15.0602 4.17283 15.4268 4.56795 15.4268ZM6.57908 13.9047C6.4742 13.9047 6.41287 13.8078 6.46795 13.7074L10.2076 7.16775C10.2609 7.06911 10.3836 7.06911 10.4352 7.16775L14.1703 13.7074C14.2254 13.8078 14.1641 13.9047 14.0574 13.9047Z" fill="white" fill-opacity="0.85"/>
  <path d="M2.77324 18.741L17.8695 18.741C19.5736 18.741 20.641 17.5166 20.641 15.982C20.641 15.509 20.506 15.0164 20.2531 14.5709L12.6943 1.39238C12.1637 0.465038 11.2576 0 10.3223 0C9.38515 0 8.46582 0.468554 7.94668 1.39238L0.38789 14.5727C0.120703 15.0244 0 15.509 0 15.982C0 17.5166 1.06738 18.741 2.77324 18.741ZM2.93944 16.902C2.3244 16.902 1.95291 16.4256 1.95291 15.8861C1.95291 15.7217 1.9867 15.5084 2.08182 15.3244L9.47441 2.40526C9.65663 2.08084 9.99609 1.94217 10.3223 1.94217C10.6467 1.94217 10.9746 2.0826 11.1586 2.40702L18.5529 15.3377C18.6481 15.5199 18.6899 15.7234 18.6899 15.8861C18.6899 16.4256 18.3024 16.902 17.6953 16.902Z" fill="white" fill-opacity="0.85"/>
 </g>
</svg>
