<?xml version="1.0" encoding="UTF-8"?>
<!--Generator: Apple Native CoreSVG 341-->
<!DOCTYPE svg
PUBLIC "-//W3C//DTD SVG 1.1//EN"
       "http://www.w3.org/Graphics/SVG/1.1/DTD/svg11.dtd">
<svg version="1.1" xmlns="http://www.w3.org/2000/svg" xmlns:xlink="http://www.w3.org/1999/xlink" viewBox="0 0 21.7621 23.432">
 <g>
  <rect height="23.432" opacity="0" width="21.7621" x="0" y="0"/>
  <path d="M10.6955 1.9037C15.5814 1.9037 18.8859 5.13827 18.8859 9.99589L18.8859 18.0642C19.1768 18.2416 19.4906 18.3303 19.8055 18.3303C20.7488 18.3303 21.3928 17.766 21.3928 16.8629L21.4008 12.8848C21.4008 12.2441 21.1291 11.725 20.7234 11.4838L20.7234 9.98437C20.7234 4.01894 16.6717 0 10.6955 0C4.72109 0 0.669336 4.01894 0.669336 9.98437L0.669336 11.4838C0.263672 11.725 0 12.2441 0 12.8848L0.00800788 16.8629C0.00800788 17.766 0.642185 18.3303 1.5873 18.3303C1.90214 18.3303 2.21425 18.2416 2.50507 18.0642L2.50507 9.99589C2.50507 5.13827 5.80956 1.9037 10.6955 1.9037ZM3.36308 19.1113C4.12186 19.1113 4.68085 18.5541 4.68085 17.8033L4.68085 11.9098C4.68085 11.159 4.12186 10.6018 3.36308 10.6018C2.60605 10.6018 2.05507 11.159 2.05507 11.9098L2.05507 17.8033C2.05507 18.5541 2.60605 19.1113 3.36308 19.1113ZM18.0297 19.1113C18.7867 19.1113 19.3359 18.5541 19.3359 17.8033L19.3359 11.9098C19.3359 11.159 18.7867 10.6018 18.0297 10.6018C17.2691 10.6018 16.7119 11.159 16.7119 11.9098L16.7119 17.8033C16.7119 18.5541 17.2691 19.1113 18.0297 19.1113ZM18.9685 17.5717L18.9685 19.0562C18.9685 19.8808 18.8018 20.0146 18.09 20.1328L12.5307 21.1154L12.7506 22.3099L18.3144 21.3291C19.4363 21.1285 20.1631 20.5765 20.1631 19.0349L20.1631 17.5469ZM10.2803 23.314L12.182 22.966C12.8084 22.8596 13.2156 22.274 13.1029 21.6494C12.9965 21.0426 12.4127 20.6238 11.7881 20.7303L9.89433 21.0783C9.26796 21.1848 8.86074 21.7703 8.97343 22.3931C9.07988 23.0017 9.66191 23.4205 10.2803 23.314Z" fill="white" fill-opacity="0.85"/>
 </g>
</svg>
