<?xml version="1.0" encoding="UTF-8"?>
<!--Generator: Apple Native CoreSVG 341-->
<!DOCTYPE svg
PUBLIC "-//W3C//DTD SVG 1.1//EN"
       "http://www.w3.org/Graphics/SVG/1.1/DTD/svg11.dtd">
<svg version="1.1" xmlns="http://www.w3.org/2000/svg" xmlns:xlink="http://www.w3.org/1999/xlink" viewBox="0 0 20.5711 20.9695">
 <g>
  <rect height="20.9695" opacity="0" width="20.5711" x="0" y="0"/>
  <path d="M0 10.8357C0 13.798 0.858398 17.0701 2.30449 19.609C2.5873 20.0957 3.13242 20.2375 3.64042 19.9564C4.12264 19.6932 4.26093 19.1463 3.97011 18.6187C2.67206 16.2535 1.94667 13.4434 1.94667 10.8357C1.94667 5.50194 5.208 1.94667 10.1049 1.94667C14.9955 1.94667 18.2631 5.50194 18.2631 10.8357C18.2631 13.4434 17.5297 16.2535 16.2316 18.6187C15.9408 19.1463 16.0791 19.6932 16.5613 19.9564C17.0693 20.2375 17.6224 20.0957 17.8973 19.609C19.3433 17.0701 20.2098 13.798 20.2098 10.8357C20.2098 4.32558 16.1781 0 10.1049 0C4.02363 0 0 4.32558 0 10.8357ZM3.29042 19.349C3.63905 20.509 4.64354 21.0353 5.81502 20.6885C6.97674 20.3363 7.51287 19.3176 7.15448 18.1559L5.75096 13.5185C5.40233 12.3666 4.3996 11.8305 3.22811 12.1773C2.0664 12.5357 1.53027 13.5482 1.88866 14.7197ZM16.9113 19.349L18.3131 14.7197C18.6715 13.5402 18.1434 12.5357 16.9736 12.1773C15.8021 11.8305 14.8074 12.3666 14.4508 13.5185L13.0473 18.1559C12.6889 19.3256 13.225 20.3363 14.3867 20.6885C15.5662 21.0353 16.5627 20.509 16.9113 19.349Z" fill="white" fill-opacity="0.85"/>
 </g>
</svg>
