<?xml version="1.0" encoding="UTF-8"?>
<!--Generator: Apple Native CoreSVG 341-->
<!DOCTYPE svg
PUBLIC "-//W3C//DTD SVG 1.1//EN"
       "http://www.w3.org/Graphics/SVG/1.1/DTD/svg11.dtd">
<svg version="1.1" xmlns="http://www.w3.org/2000/svg" xmlns:xlink="http://www.w3.org/1999/xlink" viewBox="0 0 19.2699 20.4633">
 <g>
  <rect height="20.4633" opacity="0" width="19.2699" x="0" y="0"/>
  <path d="M17.2162 20.4357C18.148 20.4357 18.9086 19.6769 18.9086 18.7434C18.9086 17.8035 18.148 17.043 17.2162 17.043C16.2746 17.043 15.5141 17.8035 15.5141 18.7434C15.5141 19.6769 16.2746 20.4357 17.2162 20.4357Z" fill="white" fill-opacity="0.85"/>
  <path d="M12.0484 20.4357C12.982 20.4357 13.7426 19.6769 13.7426 18.7434C13.7426 17.8035 12.982 17.043 12.0484 17.043C11.1086 17.043 10.348 17.8035 10.348 18.7434C10.348 19.6769 11.1086 20.4357 12.0484 20.4357Z" fill="white" fill-opacity="0.85"/>
  <path d="M6.8664 20.4357C7.79823 20.4357 8.55878 19.6769 8.55878 18.7434C8.55878 17.8035 7.79823 17.043 6.8664 17.043C5.92656 17.043 5.16601 17.8035 5.16601 18.7434C5.16601 19.6769 5.92656 20.4357 6.8664 20.4357Z" fill="white" fill-opacity="0.85"/>
  <path d="M1.70039 20.4357C2.63222 20.4357 3.39277 19.6769 3.39277 18.7434C3.39277 17.8035 2.63222 17.043 1.70039 17.043C0.760546 17.043 0 17.8035 0 18.7434C0 19.6769 0.760546 20.4357 1.70039 20.4357Z" fill="white" fill-opacity="0.85"/>
  <path d="M2.3746 7.59433C2.3746 9.67265 2.98007 11.9311 3.98945 13.6941C4.21464 14.0967 4.65605 14.2332 5.06386 13.9902C5.46991 13.773 5.5869 13.3299 5.34042 12.898C4.47557 11.282 3.97655 9.3791 3.97655 7.59433C3.97655 3.99609 6.15663 1.6037 9.45741 1.6037C12.7519 1.6037 14.9303 3.99609 14.9303 7.59433C14.9303 9.3791 14.433 11.282 13.5664 12.898C13.3217 13.3299 13.4467 13.773 13.843 13.9902C14.2588 14.2332 14.6939 14.0967 14.9191 13.6941C15.9285 11.9311 16.534 9.67265 16.534 7.59433C16.534 3.03769 13.7139 0 9.45741 0C5.19472 0 2.3746 3.03769 2.3746 7.59433ZM4.63436 13.4963C4.90136 14.3723 5.66092 14.7814 6.52792 14.5197C7.40565 14.2527 7.82459 13.4719 7.55135 12.6102L6.58631 9.4166C6.32108 8.53886 5.55175 8.12343 4.69452 8.3914C3.79901 8.66015 3.39159 9.44101 3.66132 10.3027ZM14.2805 13.4963L15.2455 10.3027C15.5152 9.44101 15.1096 8.66015 14.2221 8.3914C13.3568 8.12343 12.5857 8.53886 12.3223 9.4166L11.3572 12.6102C11.0742 13.4719 11.5029 14.2527 12.3789 14.5197C13.2459 14.7814 14.0072 14.3723 14.2805 13.4963Z" fill="white" fill-opacity="0.85"/>
 </g>
</svg>
