<?xml version="1.0" encoding="UTF-8"?>
<!--Generator: Apple Native CoreSVG 341-->
<!DOCTYPE svg
PUBLIC "-//W3C//DTD SVG 1.1//EN"
       "http://www.w3.org/Graphics/SVG/1.1/DTD/svg11.dtd">
<svg version="1.1" xmlns="http://www.w3.org/2000/svg" xmlns:xlink="http://www.w3.org/1999/xlink" viewBox="0 0 36.2554 17.7664">
 <g>
  <rect height="17.7664" opacity="0" width="36.2554" x="0" y="0"/>
  <path d="M3.86796 15.5527C4.1998 15.1695 4.09687 14.6771 3.72597 14.2574C2.45429 12.8463 1.74296 10.9516 1.74296 8.87831C1.74296 6.80682 2.45078 4.9121 3.72597 3.50096C4.09863 3.08123 4.20332 2.58885 3.86796 2.20565C3.52734 1.7994 2.92949 1.78456 2.49863 2.25272C0.910938 3.96659 0 6.34374 0 8.87831C0 11.4164 0.886329 13.7697 2.49863 15.5057C2.93301 15.9721 3.5291 15.9527 3.86796 15.5527ZM32.0261 15.5562C32.365 15.958 32.9611 15.9756 33.3955 15.5092C35.0095 13.7732 35.8941 11.4199 35.8941 8.88182C35.8941 6.34725 34.9832 3.97011 33.3955 2.258C32.9646 1.78808 32.3668 1.80292 32.0261 2.21092C31.6908 2.59413 31.7955 3.08475 32.1681 3.50448C33.4433 4.91737 34.1511 6.81034 34.1511 8.88182C34.1511 10.9551 33.4398 12.8498 32.1681 14.2627C31.7972 14.6824 31.6943 15.173 32.0261 15.5562Z" fill="white" fill-opacity="0.85"/>
  <path d="M6.71659 12.7537C7.03964 12.374 6.9162 11.9029 6.59316 11.4637C6.05292 10.7805 5.76796 9.84296 5.76796 8.87831C5.76796 7.91366 6.05292 6.96639 6.59316 6.28944C6.91444 5.85194 7.03964 5.3826 6.71659 5.00116C6.37323 4.59139 5.73105 4.58436 5.33476 5.06249C4.49746 6.0785 4.025 7.43046 4.025 8.87831C4.025 10.3262 4.49746 11.6781 5.33476 12.6906C5.73105 13.1705 6.37323 13.1555 6.71659 12.7537ZM29.1775 12.759C29.5209 13.1607 30.1631 13.174 30.5593 12.6959C31.3966 11.6816 31.8691 10.3297 31.8691 8.88182C31.8691 7.43397 31.3966 6.08202 30.5593 5.06776C30.1631 4.58788 29.5209 4.59667 29.1775 5.00643C28.8545 5.38612 28.9797 5.85545 29.3009 6.29471C29.8412 6.97167 30.1261 7.91717 30.1261 8.88182C30.1261 9.84647 29.8412 10.7857 29.3009 11.4689C28.9779 11.9064 28.8545 12.3775 29.1775 12.759Z" fill="white" fill-opacity="0.85"/>
  <path d="M17.9488 17.7556C22.8556 17.7556 26.8306 13.7887 26.8306 8.88182C26.8306 3.97499 22.8556 0 17.9488 0C13.042 0 9.06699 3.97499 9.06699 8.88182C9.06699 13.7887 13.042 17.7556 17.9488 17.7556ZM17.9488 15.8617C14.0887 15.8617 10.9609 12.742 10.9609 8.88182C10.9609 5.02167 14.0887 1.89569 17.9488 1.89569C21.8072 1.89569 24.9349 5.02167 24.9349 8.88182C24.9349 12.742 21.8072 15.8617 17.9488 15.8617Z" fill="white" fill-opacity="0.85"/>
  <path d="M13.4185 8.88788C13.4185 10.4742 13.8012 11.6711 14.4457 12.7826C14.609 13.0683 14.9471 13.1598 15.2523 12.9849C15.5381 12.843 15.6197 12.4951 15.4564 12.1836C14.9148 11.175 14.5961 10.2506 14.5961 8.88788C14.5961 6.66991 15.9324 5.20663 17.9586 5.20663C19.9847 5.20663 21.3326 6.67967 21.3326 8.88788C21.3326 10.2506 21.0121 11.1848 20.451 12.1836C20.2877 12.4853 20.3808 12.8349 20.6666 12.9849C20.9603 13.1598 21.3082 13.0683 21.4732 12.7826C22.1258 11.6303 22.5084 10.4432 22.5084 8.88788C22.5084 5.97772 20.6769 4.02284 17.9586 4.02284C15.2385 4.02284 13.4185 5.97596 13.4185 8.88788ZM14.9381 12.59C15.0943 13.1519 15.5896 13.4289 16.1418 13.2531C16.7054 13.0951 16.9806 12.6131 16.8129 12.0592L16.2127 9.99139C16.0467 9.42772 15.5629 9.15878 15.001 9.32655C14.4488 9.47479 14.1719 9.96835 14.3396 10.5205ZM20.9693 12.59L21.5678 10.5205C21.7373 9.95858 21.4683 9.47479 20.9064 9.32655C20.3543 9.15878 19.8705 9.42772 19.7045 9.99139L19.0963 12.0627C18.9383 12.6228 19.2055 13.0951 19.7674 13.2531C20.3293 13.4191 20.8131 13.1519 20.9693 12.59Z" fill="white" fill-opacity="0.85"/>
 </g>
</svg>
