<?xml version="1.0" encoding="UTF-8"?>
<!--Generator: Apple Native CoreSVG 341-->
<!DOCTYPE svg
PUBLIC "-//W3C//DTD SVG 1.1//EN"
       "http://www.w3.org/Graphics/SVG/1.1/DTD/svg11.dtd">
<svg version="1.1" xmlns="http://www.w3.org/2000/svg" xmlns:xlink="http://www.w3.org/1999/xlink" viewBox="0 0 23.2331 23.2663">
 <g>
  <rect height="23.2663" opacity="0" width="23.2331" x="0" y="0"/>
  <path d="M4.15959 7.60586C3.58374 8.85984 3.27281 10.3372 3.27281 11.9841C3.27281 12.6811 3.32475 13.3925 3.42946 14.1061C3.67526 13.7517 4.05759 13.479 4.55426 13.3257C5.73375 12.9789 6.72847 13.515 7.08511 14.6669L8.48863 19.3042C8.83902 20.466 8.31089 21.4847 7.14117 21.8369C6.21132 22.1122 5.39284 21.8374 4.91685 21.1305C4.42393 21.3759 3.90569 21.2277 3.63239 20.7574C2.19255 18.2185 1.32614 14.9464 1.32614 11.9841C1.32614 9.74307 1.80295 7.76089 2.68616 6.13348ZM17.8388 21.2753C17.3522 21.8738 16.5822 22.0925 15.7129 21.8369C14.5511 21.4847 14.0168 20.474 14.3734 19.3042L14.7204 18.1592ZM21.5359 11.9841C21.5359 14.0325 21.1224 16.2291 20.3808 18.2241L16.1252 13.9689C16.6059 13.3136 17.4021 13.0594 18.3015 13.3257C18.8018 13.4792 19.1862 13.7513 19.433 14.1055C19.5385 13.3921 19.591 12.6809 19.591 11.9841C19.591 6.65034 16.3216 3.09506 11.431 3.09506C9.5833 3.09506 7.96844 3.60124 6.67474 4.51935L5.25368 3.09842C6.89409 1.84086 8.99785 1.14839 11.431 1.14839C17.5043 1.14839 21.5359 5.47398 21.5359 11.9841Z" fill="white" fill-opacity="0.85"/>
  <path d="M20.0943 21.8421C20.4058 22.1421 20.9019 22.1439 21.1939 21.8421C21.4957 21.5306 21.5054 21.0443 21.1939 20.7425L2.53649 2.07085C2.23297 1.75933 1.73063 1.76734 1.42711 2.07085C1.13512 2.36285 1.12536 2.8687 1.42711 3.17046Z" fill="white" fill-opacity="0.85"/>
 </g>
</svg>
