<?xml version="1.0" encoding="UTF-8"?>
<!--Generator: Apple Native CoreSVG 341-->
<!DOCTYPE svg
PUBLIC "-//W3C//DTD SVG 1.1//EN"
       "http://www.w3.org/Graphics/SVG/1.1/DTD/svg11.dtd">
<svg version="1.1" xmlns="http://www.w3.org/2000/svg" xmlns:xlink="http://www.w3.org/1999/xlink" viewBox="0 0 20.5381 20.1848">
 <g>
  <rect height="20.1848" opacity="0" width="20.5381" x="0" y="0"/>
  <path d="M10.0875 20.175C15.6576 20.175 20.1767 15.6559 20.1767 10.0875C20.1767 4.51914 15.6576 0 10.0875 0C4.51914 0 0 4.51914 0 10.0875C0 15.6559 4.51914 20.175 10.0875 20.175ZM10.0875 18.1879C5.60839 18.1879 1.9871 14.5666 1.9871 10.0875C1.9871 5.60839 5.60839 1.9871 10.0875 1.9871C14.5666 1.9871 18.1897 5.60839 18.1897 10.0875C18.1897 14.5666 14.5666 18.1879 10.0875 18.1879Z" fill="white" fill-opacity="0.85"/>
  <path d="M4.88339 10.0891C4.88339 11.9092 5.31757 13.2883 6.05722 14.5643C6.25605 14.8936 6.63769 14.9947 6.98651 14.8021C7.3078 14.6344 7.40722 14.2332 7.22616 13.8764C6.59921 12.7211 6.2369 11.6598 6.2369 10.0891C6.2369 7.54394 7.76972 5.86464 10.0893 5.86464C12.4168 5.86464 13.9709 7.5537 13.9709 10.0891C13.9709 11.6518 13.6086 12.7326 12.9603 13.8764C12.7713 14.2217 12.8805 14.6264 13.2018 14.8021C13.5408 14.9947 13.934 14.8936 14.1311 14.5643C14.8805 13.2475 15.3244 11.8781 15.3244 10.0891C15.3244 6.75663 13.2156 4.51464 10.0893 4.51464C6.97089 4.51464 4.88339 6.74511 4.88339 10.0891ZM6.62069 14.3459C6.80273 14.9852 7.37714 15.3057 8.00663 15.1041C8.65566 14.9283 8.9664 14.3689 8.77284 13.7279L8.0873 11.365C7.8955 10.716 7.34237 10.4018 6.70136 10.5971C6.0621 10.7711 5.74159 11.334 5.93515 11.9635ZM13.5578 14.3459L14.2434 11.9635C14.4369 11.3242 14.1262 10.7711 13.4771 10.5971C12.8477 10.4018 12.2928 10.716 12.101 11.365L11.4057 13.7394C11.2219 14.3867 11.5246 14.9283 12.1736 15.1041C12.8129 15.2959 13.3758 14.9852 13.5578 14.3459Z" fill="white" fill-opacity="0.85"/>
 </g>
</svg>
