<?xml version="1.0" encoding="UTF-8"?>
<!--Generator: Apple Native CoreSVG 341-->
<!DOCTYPE svg
PUBLIC "-//W3C//DTD SVG 1.1//EN"
       "http://www.w3.org/Graphics/SVG/1.1/DTD/svg11.dtd">
<svg version="1.1" xmlns="http://www.w3.org/2000/svg" xmlns:xlink="http://www.w3.org/1999/xlink" viewBox="0 0 15.6621 21.5445">
 <g>
  <rect height="21.5445" opacity="0" width="15.6621" x="0" y="0"/>
  <path d="M0.382617 16.5205C0.382617 19.3521 2.11504 21.0928 4.86679 21.0928C6.92636 21.0928 8.44921 20.1578 9.41737 18.3957L10.2857 16.8234C12.2127 13.2834 15.6621 12.6043 15.6621 7.75449C15.6621 3.1041 12.6381 0 8.10957 0C3.49297 0 0.382617 3.12715 0.382617 7.80136ZM2.09452 16.4387L2.09452 7.80136C2.09452 4.14218 4.49999 1.7119 8.10957 1.7119C11.6168 1.7119 13.9502 4.13339 13.9502 7.75449C13.9502 11.7711 10.7852 12.4707 8.73359 16.0961L7.92441 17.5125C7.24159 18.7357 6.29941 19.3471 4.9457 19.3471C3.16718 19.3471 2.09452 18.2512 2.09452 16.4387Z" fill="white" fill-opacity="0.85"/>
  <path d="M3.56972 13.6717C3.56972 14.6785 4.33495 15.3594 5.47929 15.3594C6.97499 15.3514 7.98964 14.1348 7.98964 12.5643C7.98964 9.80448 5.141 9.33749 5.14276 7.33046C5.14276 5.83944 6.32948 4.75409 8.10156 4.75409C9.91875 4.75409 11.0955 5.93183 11.0955 7.73222C11.0955 8.16249 11.4486 8.52187 11.8789 8.52187C12.3057 8.52187 12.6668 8.16249 12.6668 7.73222C12.6668 5.01269 10.8414 3.18456 8.10156 3.18456C5.39081 3.18456 3.56972 4.92011 3.56972 7.33046C3.56972 9.46366 5.49609 10.1465 5.49609 11.0639C5.49609 12.0957 3.56972 11.8877 3.56972 13.6717Z" fill="white" fill-opacity="0.85"/>
 </g>
</svg>
