<?xml version="1.0" encoding="UTF-8"?>
<!--Generator: Apple Native CoreSVG 341-->
<!DOCTYPE svg
PUBLIC "-//W3C//DTD SVG 1.1//EN"
       "http://www.w3.org/Graphics/SVG/1.1/DTD/svg11.dtd">
<svg version="1.1" xmlns="http://www.w3.org/2000/svg" xmlns:xlink="http://www.w3.org/1999/xlink" viewBox="0 0 18.5894 18.2316">
 <g>
  <rect height="18.2316" opacity="0" width="18.5894" x="0" y="0"/>
  <path d="M18.2281 3.17148L18.2281 15.0646C18.2281 17.1502 17.1404 18.2281 15.0246 18.2281L3.20351 18.2281C1.0957 18.2281 0 17.1502 0 15.0646L0 3.17148C0 1.08769 1.0957 0 3.20351 0L15.0246 0C17.1404 0 18.2281 1.08769 18.2281 3.17148ZM3.83827 13.8322C3.46112 13.8322 3.19316 14.1117 3.19316 14.4693C3.19316 14.8172 3.46112 15.0932 3.83827 15.0932L11.0307 15.0932C11.398 15.0932 11.6642 14.8172 11.6642 14.4693C11.6642 14.1117 11.398 13.8322 11.0307 13.8322ZM3.83827 10.4854C3.46112 10.4854 3.19316 10.7596 3.19316 11.1092C3.19316 11.4686 3.46112 11.7445 3.83827 11.7445L13.5068 11.7445C13.8644 11.7445 14.1324 11.4686 14.1324 11.1092C14.1324 10.7596 13.8644 10.4854 13.5068 10.4854ZM5.72988 3.52402C5.4998 3.10117 5.10292 2.79316 4.57382 2.79316C3.79062 2.79316 3.19316 3.40937 3.19316 4.2705C3.19316 5.59101 4.64296 6.6955 5.4832 7.2789C5.57109 7.3375 5.6705 7.38808 5.73788 7.38808C5.81327 7.38808 5.9082 7.32773 5.99433 7.2789C6.84883 6.75683 8.2746 5.59101 8.2746 4.2705C8.2746 3.40937 7.68417 2.79316 6.87167 2.79316C6.3746 2.79316 5.96347 3.10117 5.72988 3.52402Z" fill="white" fill-opacity="0.85"/>
 </g>
</svg>
