<?xml version="1.0" encoding="UTF-8"?>
<!--Generator: Apple Native CoreSVG 341-->
<!DOCTYPE svg
PUBLIC "-//W3C//DTD SVG 1.1//EN"
       "http://www.w3.org/Graphics/SVG/1.1/DTD/svg11.dtd">
<svg version="1.1" xmlns="http://www.w3.org/2000/svg" xmlns:xlink="http://www.w3.org/1999/xlink" viewBox="0 0 18.5894 18.2316">
 <g>
  <rect height="18.2316" opacity="0" width="18.5894" x="0" y="0"/>
  <path d="M18.2281 3.17148L18.2281 15.0646C18.2281 17.1502 17.1404 18.2281 15.0246 18.2281L3.20351 18.2281C1.0957 18.2281 0 17.1502 0 15.0646L0 3.17148C0 1.08769 1.0957 0 3.20351 0L15.0246 0C17.1404 0 18.2281 1.08769 18.2281 3.17148ZM9.13828 6.18925C8.65156 5.31874 7.83202 4.69296 6.73398 4.69296C5.05839 4.69296 3.82089 5.96621 3.82089 7.76562C3.82089 10.5236 6.816 12.9316 8.60234 14.0592C8.77988 14.1648 9.01328 14.3033 9.15429 14.3033C9.30331 14.3033 9.50292 14.1728 9.6662 14.0592C11.4463 12.9111 14.4539 10.5236 14.4539 7.76562C14.4539 5.96621 13.2102 4.69296 11.5408 4.69296C10.4525 4.69296 9.62324 5.31874 9.13828 6.18925Z" fill="white" fill-opacity="0.85"/>
 </g>
</svg>
