<?xml version="1.0" encoding="UTF-8"?>
<!--Generator: Apple Native CoreSVG 341-->
<!DOCTYPE svg
PUBLIC "-//W3C//DTD SVG 1.1//EN"
       "http://www.w3.org/Graphics/SVG/1.1/DTD/svg11.dtd">
<svg version="1.1" xmlns="http://www.w3.org/2000/svg" xmlns:xlink="http://www.w3.org/1999/xlink" viewBox="0 0 18.5894 18.2316">
 <g>
  <rect height="18.2316" opacity="0" width="18.5894" x="0" y="0"/>
  <path d="M3.20351 18.2281L15.0246 18.2281C17.1404 18.2281 18.2281 17.1502 18.2281 15.0646L18.2281 3.17148C18.2281 1.08769 17.1404 0 15.0246 0L3.20351 0C1.0957 0 0 1.08769 0 3.17148L0 15.0646C0 17.1502 1.0957 18.2281 3.20351 18.2281ZM3.31444 16.3148C2.40643 16.3148 1.91327 15.8465 1.91327 14.8977L1.91327 3.34023C1.91327 2.39139 2.40643 1.91503 3.31444 1.91503L14.9137 1.91503C15.8137 1.91503 16.3148 2.39139 16.3148 3.34023L16.3148 14.8977C16.3148 15.8465 15.8137 16.3148 14.9137 16.3148Z" fill="white" fill-opacity="0.85"/>
  <path d="M5.12831 3.52675C4.35565 3.52675 3.76874 4.13417 3.76874 4.983C3.76874 6.27889 5.18866 7.36581 6.02538 7.9412C6.12128 8.00605 6.21894 8.05663 6.28456 8.05663C6.3582 8.05663 6.44159 7.99628 6.52773 7.9412C7.37871 7.42714 8.77636 6.27889 8.77636 4.983C8.77636 4.13417 8.19296 3.52675 7.40077 3.52675C6.90449 3.52675 6.49863 3.82948 6.27656 4.24706C6.04823 3.82948 5.65839 3.52675 5.12831 3.52675Z" fill="white" fill-opacity="0.85"/>
  <path d="M4.40155 11.0447L13.75 11.0447C14.1023 11.0447 14.3713 10.7723 14.3713 10.4199C14.3713 10.0773 14.1023 9.8084 13.75 9.8084L4.40155 9.8084C4.03768 9.8084 3.76874 10.0773 3.76874 10.4199C3.76874 10.7723 4.03768 11.0447 4.40155 11.0447Z" fill="white" fill-opacity="0.85"/>
  <path d="M4.40155 14.265L11.3117 14.265C11.6641 14.265 11.9348 13.9961 11.9348 13.6535C11.9348 13.3012 11.6641 13.0287 11.3117 13.0287L4.40155 13.0287C4.03768 13.0287 3.76874 13.3012 3.76874 13.6535C3.76874 13.9961 4.03768 14.265 4.40155 14.265Z" fill="white" fill-opacity="0.85"/>
 </g>
</svg>
