<?xml version="1.0" encoding="UTF-8"?>
<!--Generator: Apple Native CoreSVG 341-->
<!DOCTYPE svg
PUBLIC "-//W3C//DTD SVG 1.1//EN"
       "http://www.w3.org/Graphics/SVG/1.1/DTD/svg11.dtd">
<svg version="1.1" xmlns="http://www.w3.org/2000/svg" xmlns:xlink="http://www.w3.org/1999/xlink" viewBox="0 0 22.3594 21.5605">
 <g>
  <rect height="21.5605" opacity="0" width="22.3594" x="0" y="0"/>
  <path d="M7.08164 16.5205C7.08164 19.3441 8.80605 21.0928 11.5658 21.0928C13.6156 21.0928 15.1482 20.1578 16.1084 18.3957L16.975 16.8234C18.9037 13.2754 22.3594 12.6043 22.3594 7.74648C22.3594 3.1041 19.3371 0 14.7988 0C10.184 0 7.08164 3.12715 7.08164 7.80136ZM8.79354 16.4387L8.79354 7.80136C8.79354 4.14218 11.1973 1.7119 14.7988 1.7119C18.3078 1.7119 20.6475 4.13339 20.6475 7.74648C20.6475 11.7711 17.4762 12.4707 15.4326 16.0961L14.6154 17.5125C13.9309 18.7357 12.9984 19.3471 11.643 19.3471C9.8662 19.3471 8.79354 18.2512 8.79354 16.4387ZM10.2607 13.6717C10.2607 14.6785 11.034 15.3594 12.1703 15.3594C13.6642 15.3514 14.6807 14.1348 14.6807 12.5643C14.6807 9.80448 11.832 9.33749 11.8338 7.33046C11.8338 5.83944 13.0205 4.75409 14.7908 4.75409C16.6098 4.75409 17.7865 5.93183 17.7865 7.73222C17.7865 8.16249 18.1459 8.52187 18.5762 8.52187C19.0047 8.52187 19.3578 8.16249 19.3578 7.73222C19.3578 5.01269 17.5307 3.18456 14.7908 3.18456C12.0818 3.18456 10.2607 4.92011 10.2607 7.33046C10.2607 9.46366 12.1853 10.1465 12.1853 11.0639C12.1853 12.0957 10.2607 11.8877 10.2607 13.6717Z" fill="white" fill-opacity="0.85"/>
  <path d="M2.08926 4.71074C3.02109 4.71074 3.78964 3.95019 3.78964 3.01836C3.78964 2.07852 3.02109 1.31797 2.08926 1.31797C1.14941 1.31797 0.388867 2.07852 0.388867 3.01836C0.388867 3.95019 1.14941 4.71074 2.08926 4.71074Z" fill="white" fill-opacity="0.85"/>
  <path d="M2.08926 9.87675C3.02109 9.87675 3.78964 9.11621 3.78964 8.18437C3.78964 7.24453 3.02109 6.48398 2.08926 6.48398C1.14941 6.48398 0.388867 7.24453 0.388867 8.18437C0.388867 9.11621 1.14941 9.87675 2.08926 9.87675Z" fill="white" fill-opacity="0.85"/>
  <path d="M2.08926 15.0588C3.02109 15.0588 3.78964 14.2982 3.78964 13.3664C3.78964 12.4266 3.02109 11.666 2.08926 11.666C1.14941 11.666 0.388867 12.4266 0.388867 13.3664C0.388867 14.2982 1.14941 15.0588 2.08926 15.0588Z" fill="white" fill-opacity="0.85"/>
  <path d="M2.08926 20.2248C3.02109 20.2248 3.78964 19.4642 3.78964 18.5324C3.78964 17.5926 3.02109 16.832 2.08926 16.832C1.14941 16.832 0.388867 17.5926 0.388867 18.5324C0.388867 19.4642 1.14941 20.2248 2.08926 20.2248Z" fill="white" fill-opacity="0.85"/>
 </g>
</svg>
