<?xml version="1.0" encoding="UTF-8"?>
<!--Generator: Apple Native CoreSVG 341-->
<!DOCTYPE svg
PUBLIC "-//W3C//DTD SVG 1.1//EN"
       "http://www.w3.org/Graphics/SVG/1.1/DTD/svg11.dtd">
<svg version="1.1" xmlns="http://www.w3.org/2000/svg" xmlns:xlink="http://www.w3.org/1999/xlink" viewBox="0 0 20.5381 20.1848">
 <g>
  <rect height="20.1848" opacity="0" width="20.5381" x="0" y="0"/>
  <path d="M20.1767 10.0875C20.1767 15.6559 15.6576 20.175 10.0875 20.175C4.51914 20.175 0 15.6559 0 10.0875C0 4.51914 4.51914 0 10.0875 0C15.6576 0 20.1767 4.51914 20.1767 10.0875ZM1.9871 10.0875C1.9871 14.5666 5.60839 18.1879 10.0875 18.1879C14.5666 18.1879 18.1897 14.5666 18.1897 10.0875C18.1897 5.60839 14.5666 1.9871 10.0875 1.9871C5.60839 1.9871 1.9871 5.60839 1.9871 10.0875Z" fill="white" fill-opacity="0.85"/>
  <path d="M12.1041 13.7749C11.571 14.2107 11.0455 14.5797 10.5986 14.8691C10.4469 14.973 10.2428 15.1018 10.1053 15.1018C9.96601 15.1018 9.75214 14.965 9.57636 14.8691C7.84334 13.7771 4.97304 11.4613 4.97304 8.80156C4.97304 8.15331 5.1407 7.57548 5.43572 7.10661ZM15.2037 8.80156C15.2037 10.0075 14.6107 11.1381 13.7999 12.1161L7.53716 5.85918C7.61603 5.85081 7.69692 5.84765 7.7789 5.84765C8.82909 5.84765 9.62206 6.45038 10.0875 7.28632C10.5529 6.45038 11.3557 5.84765 12.3961 5.84765C14.0141 5.84765 15.2037 7.0748 15.2037 8.80156Z" fill="white" fill-opacity="0.85"/>
  <path d="M14.065 14.7355C14.2486 14.9174 14.568 14.9271 14.7516 14.7355C14.9449 14.5439 14.9449 14.2406 14.7516 14.0473L6.14549 5.43319C5.94413 5.23983 5.63905 5.23983 5.44745 5.43319C5.25409 5.62479 5.25409 5.93612 5.44745 6.11971Z" fill="white" fill-opacity="0.85"/>
 </g>
</svg>
