<?xml version="1.0" encoding="UTF-8"?>
<!--Generator: Apple Native CoreSVG 341-->
<!DOCTYPE svg
PUBLIC "-//W3C//DTD SVG 1.1//EN"
       "http://www.w3.org/Graphics/SVG/1.1/DTD/svg11.dtd">
<svg version="1.1" xmlns="http://www.w3.org/2000/svg" xmlns:xlink="http://www.w3.org/1999/xlink" viewBox="0 0 19.5369 20.0872">
 <g>
  <rect height="20.0872" opacity="0" width="19.5369" x="0" y="0"/>
  <path d="M17.2702 3.2776C17.2702 2.76764 16.8507 2.35436 16.3407 2.35436C15.8308 2.35436 15.4175 2.76764 15.4175 3.2776L15.4175 4.49576C15.4175 8.02642 17.2702 8.44947 17.2702 10.2288C17.2702 12.0055 14.9274 12.4831 14.9274 15.9077C14.9274 17.059 15.2505 17.9465 16.0681 18.9887C16.8433 19.9608 18.3776 18.9604 17.5616 17.8676C16.9862 17.0987 16.7899 16.5844 16.7899 15.7852C16.7899 13.512 19.1327 12.7684 19.1327 10.2288C19.1327 7.68736 17.2702 7.15162 17.2702 4.49576ZM14.2683 4.38131L18.3983 4.38131C19.0235 4.38131 19.3108 3.73756 18.9747 3.26217L16.9819 0.388539C16.6485-0.116147 16.0675-0.142709 15.7058 0.388539L13.6856 3.26217C13.3638 3.72252 13.6351 4.38131 14.2683 4.38131Z" fill="white" fill-opacity="0.85"/>
  <path d="M10.5046 3.30963C10.5046 2.79967 10.0851 2.38014 9.5751 2.38014C9.06514 2.38014 8.65362 2.79967 8.65362 3.30963L8.65362 4.52779C8.65362 8.05846 10.5064 8.4735 10.5064 10.2528C10.5064 12.0296 8.16358 12.5071 8.16358 15.9397C8.16358 17.0831 8.48663 17.9706 9.30245 19.0145C10.0794 19.9928 11.6138 18.9942 10.796 17.8997C10.2206 17.1227 10.0243 16.6085 10.0243 15.8172C10.0243 13.536 12.3671 12.7924 12.3671 10.2528C12.3671 7.71315 10.5046 7.18365 10.5046 4.52779ZM7.5044 4.40533L11.6345 4.40533C12.2579 4.40533 12.547 3.76959 12.2091 3.29596L10.2181 0.422328C9.88467-0.0841152 9.30186-0.110677 8.94014 0.422328L6.92003 3.29596C6.59991 3.75631 6.86944 4.40533 7.5044 4.40533Z" fill="white" fill-opacity="0.85"/>
  <path d="M3.72139 3.33365C3.72139 2.82369 3.30186 2.41217 2.7919 2.41217C2.28195 2.41217 1.87042 2.82369 1.87042 3.33365L1.87042 4.55357C1.87042 8.08424 3.7214 8.50553 3.7214 10.2848C3.7214 12.0616 1.38039 12.5391 1.38039 15.9655C1.38039 17.1169 1.70343 18.0026 2.51925 19.0465C3.2962 20.0168 4.82881 19.0182 4.0128 17.9317C3.43741 17.1547 3.24112 16.6405 3.24112 15.8413C3.24112 13.568 5.58389 12.8245 5.58389 10.2848C5.58389 7.74518 3.72139 7.20768 3.72139 4.55357ZM0.713196 4.43736L4.84151 4.43736C5.47471 4.43736 5.75577 3.79537 5.42589 3.31998L3.42686 0.45436C3.09347-0.0503259 2.51866-0.0768882 2.14894 0.45436L0.136831 3.31998C-0.183284 3.78033 0.0782377 4.43736 0.713196 4.43736Z" fill="white" fill-opacity="0.85"/>
 </g>
</svg>
