<?xml version="1.0" encoding="UTF-8"?>
<!--Generator: Apple Native CoreSVG 341-->
<!DOCTYPE svg
PUBLIC "-//W3C//DTD SVG 1.1//EN"
       "http://www.w3.org/Graphics/SVG/1.1/DTD/svg11.dtd">
<svg version="1.1" xmlns="http://www.w3.org/2000/svg" xmlns:xlink="http://www.w3.org/1999/xlink" viewBox="0 0 22.4152 19.1332">
 <g>
  <rect height="19.1332" opacity="0" width="22.4152" x="0" y="0"/>
  <path d="M11.0238 0C4.93359 0 0 4.93359 0 11.0238C0 13.9916 1.16934 16.71 3.1252 18.7107C3.53281 19.1324 4.19452 19.1291 4.62186 18.7275C5.0037 18.3439 4.92401 17.6883 4.47714 17.191C2.98221 15.5979 2.07088 13.4041 2.07088 11.0221C2.07088 6.02245 6.03221 2.0451 11.0238 2.0451C16.0234 2.0451 19.983 6.02245 19.983 11.0221C19.983 13.4041 19.0717 15.5979 17.5768 17.191C17.1299 17.6883 17.0502 18.3439 17.4338 18.7275C17.8576 19.1273 18.5211 19.1324 18.9287 18.7107C20.8846 16.71 22.0539 13.9916 22.0539 11.0238C22.0539 4.93359 17.1203 0 11.0238 0Z" fill="white" fill-opacity="0.85"/>
  <path d="M6.2082 7.63788C6.01034 7.91386 6.16113 8.30233 6.54882 8.30233L7.06249 8.30233L7.06249 8.29979C7.06249 10.0965 8.0039 10.3568 8.0039 11.2043C8.0039 12.058 6.83163 12.359 6.83163 14.0871C6.83163 14.6848 6.99941 15.1615 7.40703 15.6943C7.84706 16.2436 8.72909 15.6643 8.26679 15.068C7.96737 14.6646 7.87499 14.4301 7.87499 14.0303C7.87499 12.9047 9.07128 12.5168 9.07128 11.2043C9.07128 9.88554 8.12011 9.6332 8.12011 8.29979L8.12011 8.30233L8.64277 8.30233C9.01445 8.30233 9.183 7.91913 8.98339 7.63788L7.96835 6.18495C7.77851 5.89921 7.43515 5.88417 7.22226 6.18495ZM9.65742 7.61386C9.46308 7.8996 9.62636 8.29432 9.99628 8.29432L10.5109 8.29432L10.5109 8.27577C10.5109 10.0707 11.4443 10.3408 11.4443 11.1883C11.4443 12.034 10.2641 12.3332 10.2641 14.0711C10.2641 14.6768 10.4398 15.1535 10.8572 15.6766C11.284 16.2258 12.1615 15.6615 11.701 15.0422C11.4221 14.6469 11.335 14.4141 11.335 14.0143C11.335 12.8887 12.5117 12.5008 12.5117 11.1883C12.5117 9.87753 11.5685 9.61718 11.5685 8.27577L11.5685 8.29432L12.085 8.29432C12.4416 8.29432 12.6234 7.90311 12.4158 7.61386L11.415 6.17694C11.2189 5.88143 10.8756 5.86815 10.6644 6.17694ZM13.081 7.60409C12.8965 7.88358 13.0598 8.27831 13.4297 8.27831L13.9523 8.27831L13.9523 8.266C13.9523 10.0627 14.884 10.3248 14.884 11.1723C14.884 12.0162 13.6975 12.3252 13.6975 14.0551C13.6975 14.6607 13.8732 15.1277 14.2809 15.6686C14.7449 16.2275 15.6047 15.6357 15.1424 15.0342C14.8492 14.6389 14.7666 14.3963 14.7666 13.9982C14.7666 12.8727 15.9451 12.4848 15.9451 11.1723C15.9451 9.86152 15.01 9.60116 15.01 8.266L15.01 8.27831L15.5103 8.27831C15.883 8.27831 16.0568 7.8871 15.8555 7.60409L14.8422 6.16093C14.6523 5.86542 14.301 5.85214 14.0978 6.16093Z" fill="white" fill-opacity="0.85"/>
 </g>
</svg>
