<?xml version="1.0" encoding="UTF-8"?>
<!--Generator: Apple Native CoreSVG 341-->
<!DOCTYPE svg
PUBLIC "-//W3C//DTD SVG 1.1//EN"
       "http://www.w3.org/Graphics/SVG/1.1/DTD/svg11.dtd">
<svg version="1.1" xmlns="http://www.w3.org/2000/svg" xmlns:xlink="http://www.w3.org/1999/xlink" viewBox="0 0 26.1901 23.973">
 <g>
  <rect height="23.973" opacity="0" width="26.1901" x="0" y="0"/>
  <path d="M4.55885 23.9713L10.7928 23.9713C12.2899 23.9713 13.2241 23.0451 13.2241 21.5738L13.2241 2.39745C13.2241 0.926169 12.2899 0 10.7928 0L4.55885 0C3.06179 0 2.12761 0.926169 2.12761 2.39745L2.12761 21.5738C2.12761 23.0451 3.06179 23.9713 4.55885 23.9713ZM4.70592 22.0773C4.27721 22.0773 4.01978 21.8154 4.01978 21.3769L4.01978 2.59432C4.01978 2.15585 4.27721 1.89217 4.70592 1.89217L10.6458 1.89217C11.0745 1.89217 11.3319 2.15585 11.3319 2.59432L11.3319 21.3769C11.3319 21.8154 11.0745 22.0773 10.6458 22.0773ZM9.83619 8.06581C10.1272 8.06581 10.3579 7.82538 10.3579 7.53612L10.3579 3.73143C10.3579 3.44393 10.1272 3.20175 9.83619 3.20175C9.53717 3.20175 9.30475 3.44393 9.30475 3.73143L9.30475 7.53612C9.30475 7.82538 9.53717 8.06581 9.83619 8.06581ZM7.7735 8.06581C8.05475 8.06581 8.29166 7.82538 8.29166 7.53612L8.29166 3.73143C8.29166 3.44393 8.05475 3.20175 7.7735 3.20175C7.47448 3.20175 7.23405 3.44393 7.23405 3.73143L7.23405 7.53612C7.23405 7.82538 7.47448 8.06581 7.7735 8.06581ZM9.83619 14.383C10.1272 14.383 10.3579 14.1523 10.3579 13.8516L10.3579 10.0504C10.3579 9.75936 10.1272 9.5287 9.83619 9.5287C9.53717 9.5287 9.30475 9.75936 9.30475 10.0504L9.30475 13.8516C9.30475 14.1523 9.53717 14.383 9.83619 14.383ZM7.7735 14.383C8.05475 14.383 8.29166 14.1523 8.29166 13.8516L8.29166 10.0504C8.29166 9.75936 8.05475 9.5287 7.7735 9.5287C7.47448 9.5287 7.23405 9.75936 7.23405 10.0504L7.23405 13.8516C7.23405 14.1523 7.47448 14.383 7.7735 14.383ZM9.83619 20.7197C10.1272 20.7197 10.3579 20.4793 10.3579 20.198L10.3579 16.3951C10.3579 16.0961 10.1272 15.8654 9.83619 15.8654C9.53717 15.8654 9.30475 16.0961 9.30475 16.3951L9.30475 20.198C9.30475 20.4793 9.53717 20.7197 9.83619 20.7197ZM7.7735 20.7197C8.05475 20.7197 8.29166 20.4793 8.29166 20.198L8.29166 16.3951C8.29166 16.0961 8.05475 15.8654 7.7735 15.8654C7.47448 15.8654 7.23405 16.0961 7.23405 16.3951L7.23405 20.198C7.23405 20.4793 7.47448 20.7197 7.7735 20.7197Z" fill="white" fill-opacity="0.85"/>
  <path d="M17.2028 10.7939C19.9174 10.7939 21.2879 8.62206 23.5809 8.62206C24.1118 8.62206 24.5522 8.733 25.1088 9.04374C25.492 9.25839 25.859 9.12167 26.0487 8.85136C26.2826 8.51015 26.2332 8.02246 25.7649 7.75723C25.094 7.3623 24.361 7.16621 23.5809 7.16621C20.836 7.16621 19.4655 9.34609 17.2028 9.34609C16.6737 9.34609 16.2332 9.22715 15.6686 8.9084C15.2997 8.69824 14.9194 8.83223 14.7252 9.13007C14.5125 9.45976 14.5602 9.94745 15.0108 10.2029C15.6817 10.6139 16.4227 10.7939 17.2028 10.7939ZM17.2125 13.7986C19.9174 13.7986 21.2959 11.6303 23.5809 11.6303C24.1198 11.6303 24.5602 11.7377 25.1186 12.0519C25.492 12.2631 25.867 12.1281 26.0567 11.8578C26.2826 11.5201 26.2412 11.0289 25.7809 10.7619C25.102 10.3687 24.361 10.1744 23.5809 10.1744C20.844 10.1744 19.4735 12.3508 17.2125 12.3508C16.6737 12.3508 16.2332 12.2353 15.6766 11.9228C15.3077 11.7047 14.9194 11.8387 14.7252 12.1383C14.5125 12.468 14.5602 12.9521 15.0206 13.2111C15.6897 13.6203 16.4325 13.7986 17.2125 13.7986ZM17.2028 16.8068C19.9174 16.8068 21.2879 14.6367 23.5809 14.6367C24.1118 14.6367 24.5522 14.7459 25.1088 15.0681C25.492 15.2793 25.859 15.1363 26.0487 14.866C26.2826 14.5283 26.2332 14.0353 25.7649 13.7701C25.094 13.3752 24.361 13.1808 23.5809 13.1808C20.836 13.1808 19.4655 15.359 17.2028 15.359C16.6737 15.359 16.2332 15.2418 15.6686 14.9293C15.2997 14.7129 14.9194 14.8469 14.7252 15.1447C14.5125 15.4744 14.5602 15.9683 15.0108 16.2256C15.6817 16.6285 16.4227 16.8068 17.2028 16.8068Z" fill="white" fill-opacity="0.85"/>
 </g>
</svg>
