<?xml version="1.0" encoding="UTF-8"?>
<!--Generator: Apple Native CoreSVG 341-->
<!DOCTYPE svg
PUBLIC "-//W3C//DTD SVG 1.1//EN"
       "http://www.w3.org/Graphics/SVG/1.1/DTD/svg11.dtd">
<svg version="1.1" xmlns="http://www.w3.org/2000/svg" xmlns:xlink="http://www.w3.org/1999/xlink" viewBox="0 0 24.2414 23.8898">
 <g>
  <rect height="23.8898" opacity="0" width="24.2414" x="0" y="0"/>
  <path d="M20.3824 19.2801C20.699 19.5967 20.699 20.0871 20.3842 20.3939C20.0773 20.7088 19.5869 20.7088 19.2703 20.3922L17.9896 19.1115C18.3939 18.7759 18.7661 18.4036 19.1017 17.9994ZM13.8379 12.7355L17.764 16.6616C17.4354 17.0721 17.0624 17.4452 16.6522 17.774L12.7178 13.8396L12.7178 12.7355ZM11.1543 10.052L11.1543 11.1721L10.0502 11.1721L6.11641 7.23828C6.44511 6.82794 6.81817 6.45488 7.22851 6.12618ZM4.60976 3.50742L5.89047 4.78813C5.48619 5.12375 5.11398 5.49595 4.77836 5.90023L3.49766 4.61953C3.18106 4.30293 3.18106 3.8125 3.4959 3.50566C3.80273 3.19883 4.29316 3.19082 4.60976 3.50742Z" fill="white" fill-opacity="0.85"/>
  <path d="M2.6021 11.1721C2.57366 11.4272 2.56289 11.6872 2.56289 11.9498C2.56289 12.2151 2.57388 12.4778 2.6025 12.7355L0.787497 12.7355C0.349413 12.7355 0 12.3879 0 11.9498C0 11.5117 0.349413 11.1721 0.787497 11.1721ZM19.4354 11.9498C19.4354 12.2152 19.4215 12.4775 19.3936 12.7355L12.7178 12.7355L12.7178 12.2877L13.8334 11.1721L19.3948 11.1721C19.4218 11.4276 19.4354 11.6871 19.4354 11.9498ZM23.8801 11.9498C23.8801 12.3879 23.5307 12.7355 23.0908 12.7355L21.2776 12.7355C21.3062 12.4778 21.3172 12.2151 21.3172 11.9498C21.3172 11.6872 21.3064 11.4272 21.278 11.1721L23.0908 11.1721C23.5307 11.1721 23.8801 11.5117 23.8801 11.9498ZM11.1543 11.1721L11.1543 11.6234L10.0422 12.7355L4.4865 12.7355C4.45855 12.4775 4.44472 12.2152 4.44472 11.9498C4.44472 11.6871 4.45826 11.4276 4.48528 11.1721Z" fill="white" fill-opacity="0.85"/>
  <path d="M5.89231 19.1131L4.61152 20.3939C4.29668 20.7088 3.80449 20.7105 3.49766 20.3957C3.18106 20.0889 3.18106 19.5967 3.49766 19.2801L4.77836 17.9994C5.11452 18.4043 5.48737 18.777 5.89231 19.1131ZM11.1543 13.8512L7.22992 17.7755C6.81887 17.4464 6.44524 17.0727 6.11611 16.6616L11.1543 11.6234ZM17.7652 7.24029L12.7178 12.2877L12.7178 10.06L16.6516 6.12618C17.0626 6.45541 17.4361 6.82912 17.7652 7.24029ZM20.3859 3.50742C20.7008 3.81601 20.699 4.30644 20.3842 4.62128L19.1034 5.90208C18.7673 5.49713 18.3945 5.12428 17.9896 4.78813L19.2703 3.50742C19.5869 3.19082 20.0791 3.19883 20.3859 3.50742Z" fill="white" fill-opacity="0.85"/>
  <path d="M11.94 21.3269L12.7178 21.2877L12.7178 23.1023C12.7178 23.5404 12.3781 23.8898 11.94 23.8898C11.502 23.8898 11.1543 23.5404 11.1543 23.1023L11.1543 21.2873ZM12.7178 4.49504L12.7178 19.4063C12.4622 19.4333 12.2027 19.4469 11.94 19.4469C11.6746 19.4469 11.4124 19.433 11.1543 19.4051L11.1543 4.49627C11.4124 4.46832 11.6746 4.45448 11.94 4.45448C12.2027 4.45448 12.4622 4.46803 12.7178 4.49504ZM12.7178 0.79902L12.7178 2.61187C12.4627 2.58342 12.2026 2.57266 11.94 2.57266C11.6747 2.57266 11.412 2.58365 11.1543 2.61227L11.1543 0.79902C11.1543 0.360936 11.502 0.00976562 11.94 0.00976562C12.3781 0.00976562 12.7178 0.360936 12.7178 0.79902Z" fill="white" fill-opacity="0.85"/>
  <path d="M11.94 21.3269C17.123 21.3269 21.3172 17.1328 21.3172 11.9498C21.3172 6.7668 17.123 2.57266 11.94 2.57266C6.75703 2.57266 2.56289 6.7668 2.56289 11.9498C2.56289 17.1328 6.75703 21.3269 11.94 21.3269ZM11.94 19.4469C7.8039 19.4469 4.44472 16.0859 4.44472 11.9498C4.44472 7.81367 7.8039 4.45448 11.94 4.45448C16.0762 4.45448 19.4354 7.81367 19.4354 11.9498C19.4354 16.0859 16.0762 19.4469 11.94 19.4469Z" fill="white" fill-opacity="0.85"/>
 </g>
</svg>
