<?xml version="1.0" encoding="UTF-8"?>
<!--Generator: Apple Native CoreSVG 341-->
<!DOCTYPE svg
PUBLIC "-//W3C//DTD SVG 1.1//EN"
       "http://www.w3.org/Graphics/SVG/1.1/DTD/svg11.dtd">
<svg version="1.1" xmlns="http://www.w3.org/2000/svg" xmlns:xlink="http://www.w3.org/1999/xlink" viewBox="0 0 20.3037 22.3345">
 <g>
  <rect height="22.3345" opacity="0" width="20.3037" x="0" y="0"/>
  <path d="M18.7465 17.6088C19.4988 17.1803 19.9424 16.4112 19.9424 15.5391L19.9424 6.78559C19.9424 5.91352 19.4988 5.14438 18.7465 4.70786L11.1728 0.337353C10.409-0.112451 9.53339-0.112451 8.77754 0.337353L1.1959 4.70786C0.443553 5.14438 0 5.91352 0 6.78559L0 15.5391C0 16.4112 0.443553 17.1803 1.1959 17.6088L8.77754 21.9936C9.53339 22.4354 10.409 22.4354 11.1728 21.9936ZM9.97519 20.3313C9.7789 20.3313 9.59062 20.2745 9.42187 20.1723L2.44725 16.1403C2.09999 15.9342 1.89217 15.587 1.89217 15.1909L1.89217 7.13383C1.89217 6.73773 2.09999 6.39047 2.44725 6.18441L9.42187 2.15238C9.59062 2.04671 9.7789 1.99164 9.97519 1.99164Z" fill="white" fill-opacity="0.85"/>
 </g>
</svg>
