<?xml version="1.0" encoding="UTF-8"?>
<!--Generator: Apple Native CoreSVG 341-->
<!DOCTYPE svg
PUBLIC "-//W3C//DTD SVG 1.1//EN"
       "http://www.w3.org/Graphics/SVG/1.1/DTD/svg11.dtd">
<svg version="1.1" xmlns="http://www.w3.org/2000/svg" xmlns:xlink="http://www.w3.org/1999/xlink" viewBox="0 0 30.0529 13.4711">
 <g>
  <rect height="13.4711" opacity="0" width="30.0529" x="0" y="0"/>
  <path d="M3.15644 11.7443L26.5271 11.7443C28.6029 11.7443 29.6916 10.6637 29.6916 8.61991L29.6916 3.12441C29.6916 1.08242 28.6029 0 26.5271 0L3.15644 0C1.09668 0 0 1.08242 0 3.12441L0 8.61991C0 10.6637 1.09668 11.7443 3.15644 11.7443ZM5.66191 8.08808C4.42011 8.08808 3.42422 7.09394 3.42422 5.86015C3.42422 4.61835 4.42011 3.62421 5.66191 3.62421C6.88417 3.62421 7.87831 4.61835 7.87831 5.86015C7.87831 7.09394 6.88417 8.08808 5.66191 8.08808ZM10.7664 8.05566C10.2473 8.05566 9.90644 7.72284 9.90644 7.20546L9.90644 4.54687C9.90644 4.02948 10.2473 3.68866 10.7664 3.68866L18.9189 3.68866C19.4443 3.68866 19.7771 4.02948 19.7771 4.54687L19.7771 7.20546C19.7771 7.72284 19.4443 8.05566 18.9189 8.05566ZM24.0297 8.08808C22.8074 8.08808 21.815 7.09394 21.815 5.86015C21.815 4.61835 22.8074 3.62421 24.0297 3.62421C25.2635 3.62421 26.2594 4.61835 26.2594 5.86015C26.2594 7.09394 25.2635 8.08808 24.0297 8.08808ZM7.53339 10.9684L2.18203 10.9684L2.18203 12.5287C2.18203 13.0793 2.55879 13.4578 3.11113 13.4578L6.60429 13.4578C7.1664 13.4578 7.53339 13.0793 7.53339 12.5287ZM22.1582 10.9684L22.1582 12.5287C22.1582 13.0793 22.5269 13.4578 23.0873 13.4578L26.5724 13.4578C27.1328 13.4578 27.5095 13.0793 27.5095 12.5287L27.5095 10.9684Z" fill="white" fill-opacity="0.85"/>
 </g>
</svg>
