<?xml version="1.0" encoding="UTF-8"?>
<!--Generator: Apple Native CoreSVG 341-->
<!DOCTYPE svg
PUBLIC "-//W3C//DTD SVG 1.1//EN"
       "http://www.w3.org/Graphics/SVG/1.1/DTD/svg11.dtd">
<svg version="1.1" xmlns="http://www.w3.org/2000/svg" xmlns:xlink="http://www.w3.org/1999/xlink" viewBox="0 0 21.314 20.6043">
 <g>
  <rect height="20.6043" opacity="0" width="21.314" x="0" y="0"/>
  <path d="M2.72598 2.95976L2.72598 17.6383C2.72598 19.5842 3.73183 20.598 5.66171 20.598L15.291 20.598C17.2209 20.598 18.2267 19.5842 18.2267 17.6383L18.2267 2.95976C18.2267 1.01386 17.2209 0 15.291 0L5.66171 0C3.73183 0 2.72598 1.01386 2.72598 2.95976ZM10.4746 7.658C9.17167 7.658 8.13144 6.61952 8.13144 5.31308C8.13144 4.00038 9.17968 2.9664 10.4746 2.97441C11.7793 2.98593 12.8035 4.00839 12.8213 5.31308C12.8391 6.61952 11.7713 7.658 10.4746 7.658ZM10.4764 6.39082C11.0734 6.39082 11.5541 5.90214 11.5541 5.31308C11.5541 4.71425 11.0637 4.23358 10.4764 4.23358C9.87128 4.23358 9.39862 4.68847 9.39862 5.31308C9.39862 5.90214 9.87929 6.39082 10.4764 6.39082ZM0.844333 14.2381C0.386717 14.2381 0 13.8433 0 13.3707C0 12.8963 0.386717 12.5096 0.844333 12.5096L9.32265 12.5096L10.5699 12.5734L10.0334 12.0838L8.88105 11.0178C8.71425 10.8652 8.62382 10.6408 8.62382 10.4324C8.62382 9.97303 8.9537 9.63515 9.39882 9.63515C9.63651 9.63515 9.8121 9.72206 9.97264 9.87909L12.6902 12.6865C12.9127 12.9152 13.0004 13.1314 13.0004 13.3707C13.0004 13.6082 12.9127 13.8244 12.6902 14.0549L9.97264 16.8525C9.8121 17.0193 9.63651 17.1045 9.39882 17.1045C8.9537 17.1045 8.62382 16.7666 8.62382 16.3072C8.62382 16.0988 8.71601 15.8726 8.88105 15.7219L10.0334 14.6558L10.5699 14.1662L9.32265 14.2301Z" fill="white" fill-opacity="0.85"/>
 </g>
</svg>
