<?xml version="1.0" encoding="UTF-8"?>
<!--Generator: Apple Native CoreSVG 341-->
<!DOCTYPE svg
PUBLIC "-//W3C//DTD SVG 1.1//EN"
       "http://www.w3.org/Graphics/SVG/1.1/DTD/svg11.dtd">
<svg version="1.1" xmlns="http://www.w3.org/2000/svg" xmlns:xlink="http://www.w3.org/1999/xlink" viewBox="0 0 15.8523 20.6043">
 <g>
  <rect height="20.6043" opacity="0" width="15.8523" x="0" y="0"/>
  <path d="M0 2.95976L0 17.6383C0 19.5842 1.00586 20.598 2.93573 20.598L12.565 20.598C14.4949 20.598 15.491 19.5842 15.491 17.6383L15.491 2.95976C15.491 1.01386 14.4949 0 12.565 0L2.93573 0C1.00586 0 0 1.01386 0 2.95976ZM7.75038 17.6254C5.48202 17.6254 3.6496 15.8107 3.6496 13.5344C3.6496 11.243 5.48202 9.42382 7.75038 9.43358C10.0187 9.44335 11.8494 11.243 11.8494 13.5344C11.8494 15.8107 10.0187 17.6254 7.75038 17.6254ZM7.74862 7.658C6.44394 7.658 5.40546 6.61952 5.40546 5.31308C5.40546 4.00038 6.44394 2.9664 7.74862 2.97441C9.0453 2.98593 10.0838 4.00839 10.0953 5.31308C10.1131 6.61952 9.0453 7.658 7.74862 7.658ZM7.75038 15.1637C8.66542 15.1637 9.3832 14.4281 9.3832 13.5344C9.3832 12.5963 8.66542 11.882 7.75038 11.882C6.82557 11.882 6.11581 12.5963 6.11581 13.5344C6.11581 14.4281 6.85135 15.1637 7.75038 15.1637ZM7.75038 6.39082C8.34745 6.39082 8.82812 5.90214 8.82812 5.31308C8.82812 4.71425 8.33593 4.23358 7.75038 4.23358C7.1453 4.23358 6.67264 4.68847 6.67264 5.31308C6.67264 5.90214 7.1453 6.39082 7.75038 6.39082Z" fill="white" fill-opacity="0.85"/>
  <path d="M7.75038 17.6254C5.48202 17.6254 3.6496 15.8107 3.6496 13.5344C3.6496 11.243 5.48202 9.42382 7.75038 9.43358C10.0187 9.44335 11.8494 11.243 11.8494 13.5344C11.8494 15.8107 10.0187 17.6254 7.75038 17.6254ZM7.74862 7.658C6.44394 7.658 5.40546 6.61952 5.40546 5.31308C5.40546 4.00038 6.44394 2.9664 7.74862 2.97441C9.0453 2.98593 10.0838 4.00839 10.0953 5.31308C10.1131 6.61952 9.0453 7.658 7.74862 7.658ZM7.75038 15.1637C8.66542 15.1637 9.3832 14.4281 9.3832 13.5344C9.3832 12.5963 8.66542 11.882 7.75038 11.882C6.82557 11.882 6.11581 12.5963 6.11581 13.5344C6.11581 14.4281 6.85135 15.1637 7.75038 15.1637ZM7.75038 6.39082C8.34745 6.39082 8.82812 5.90214 8.82812 5.31308C8.82812 4.71425 8.33593 4.23358 7.75038 4.23358C7.1453 4.23358 6.67264 4.68847 6.67264 5.31308C6.67264 5.90214 7.1453 6.39082 7.75038 6.39082Z" fill="white" fill-opacity="0.2125"/>
 </g>
</svg>
