<?xml version="1.0" encoding="UTF-8"?>
<!--Generator: Apple Native CoreSVG 341-->
<!DOCTYPE svg
PUBLIC "-//W3C//DTD SVG 1.1//EN"
       "http://www.w3.org/Graphics/SVG/1.1/DTD/svg11.dtd">
<svg version="1.1" xmlns="http://www.w3.org/2000/svg" xmlns:xlink="http://www.w3.org/1999/xlink" viewBox="0 0 24.1156 20.6043">
 <g>
  <rect height="20.6043" opacity="0" width="24.1156" x="0" y="0"/>
  <path d="M19.6275 2.95976L19.6275 17.6383C19.6275 19.5842 18.6217 20.598 16.6918 20.598L7.06249 20.598C5.13261 20.598 4.12676 19.5842 4.12676 17.6383L4.12676 15.5041L6.04003 15.5041L6.04003 17.5273C6.04003 18.2814 6.43632 18.6848 7.20546 18.6848L16.5488 18.6848C17.318 18.6848 17.7143 18.2814 17.7143 17.5273L17.7143 3.07069C17.7143 2.30858 17.326 1.91327 16.5488 1.91327L7.20546 1.91327C6.42831 1.91327 6.04003 2.30858 6.04003 3.07069L6.04003 11.0176L4.12676 11.0176L4.12676 2.95976C4.12676 1.01386 5.13261 0 7.06249 0L16.6918 0C18.6217 0 19.6275 1.01386 19.6275 2.95976ZM14.1326 5.62753C14.1504 6.88085 13.1207 7.883 11.8754 7.883C10.6238 7.883 9.62167 6.88085 9.62167 5.62753C9.62167 4.3662 10.6318 3.3703 11.8754 3.37831C13.1287 3.38983 14.1211 4.37421 14.1326 5.62753ZM10.8322 5.62753C10.8322 6.1953 11.3014 6.67245 11.8771 6.67245C12.4529 6.67245 12.9221 6.1953 12.9221 5.62753C12.9221 5.04823 12.4432 4.58084 11.8771 4.58084C11.2933 4.58084 10.8322 5.02245 10.8322 5.62753Z" fill="white" fill-opacity="0.85"/>
  <path d="M10.8236 16.9955C11.0613 16.9955 11.2369 16.9103 11.3974 16.7516L14.115 13.9459C14.3375 13.7154 14.4252 13.5072 14.4252 13.2617C14.4252 13.0242 14.3375 12.8143 14.115 12.5775L11.3974 9.77812C11.2369 9.62109 11.0613 9.52617 10.8236 9.52617C10.3705 9.52617 10.0486 9.86405 10.0486 10.3234C10.0486 10.5318 10.1391 10.758 10.3059 10.9088L11.4502 11.9668L12.941 13.2617L11.4502 14.5629L10.3059 15.6129C10.1408 15.7637 10.0486 15.9898 10.0486 16.1982C10.0486 16.6576 10.3705 16.9955 10.8236 16.9955ZM1.40703 13.2617C1.40703 13.7344 1.7875 14.1291 2.24511 14.1291L10.6353 14.1291L12.7066 14.0457C13.1412 14.0307 13.4906 13.6945 13.4906 13.2617C13.4906 12.8271 13.1412 12.491 12.7066 12.476L10.6353 12.4006L2.24511 12.4006C1.7875 12.4006 1.40703 12.7873 1.40703 13.2617Z" fill="white" fill-opacity="0.85"/>
 </g>
</svg>
