<?xml version="1.0" encoding="UTF-8"?>
<!--Generator: Apple Native CoreSVG 341-->
<!DOCTYPE svg
PUBLIC "-//W3C//DTD SVG 1.1//EN"
       "http://www.w3.org/Graphics/SVG/1.1/DTD/svg11.dtd">
<svg version="1.1" xmlns="http://www.w3.org/2000/svg" xmlns:xlink="http://www.w3.org/1999/xlink" viewBox="0 0 25.2355 25.8504">
 <g>
  <rect height="25.8504" opacity="0" width="25.2355" x="0" y="0"/>
  <path d="M13.8691 3.4828L12.0154 3.4828C11.8313 3.23546 11.5235 3.10507 11.0934 3.10507L3.88027 3.10507C3.13573 3.10507 2.74999 3.50409 2.74999 4.22734L2.74999 15.0428C2.74999 15.7678 3.13573 16.1508 3.88027 16.1508L7.70449 16.1508L7.70449 17.8426L3.74589 17.8426C1.98652 17.8426 1.0582 16.9107 1.0582 15.1406L1.0582 4.12499C1.0582 2.3496 1.99453 1.41328 3.74589 1.41328L11.2277 1.41328C12.761 1.41328 13.6631 2.1244 13.8691 3.4828ZM7.70449 8.56415L7.70449 10.5847C7.63449 10.572 7.5619 10.5662 7.48769 10.5662C6.74237 10.5662 6.16054 11.1498 6.16054 11.8853C6.16054 12.6049 6.73437 13.1885 7.48769 13.1885C7.56203 13.1885 7.63463 13.1828 7.70449 13.1702L7.70449 15.1809C7.63365 15.1893 7.56097 15.1916 7.48769 15.1916C5.63339 15.1916 4.15565 13.7139 4.15565 11.8693C4.15565 10.0391 5.6414 8.55331 7.48769 8.55331C7.56094 8.55331 7.6336 8.55563 7.70449 8.56415ZM8.84528 4.60099C8.59735 4.84586 8.388 5.1296 8.22255 5.45164C8.06564 5.21252 7.79789 5.05389 7.48769 5.05389C6.99023 5.05389 6.60292 5.45897 6.60292 5.95019C6.60292 6.4414 6.99023 6.83046 7.48769 6.83046C7.59112 6.83046 7.68984 6.81352 7.78086 6.78139C7.7301 7.0826 7.70449 7.40212 7.70449 7.73826L7.70449 7.84696C7.63362 7.85584 7.56118 7.85995 7.48769 7.85995C6.43027 7.85995 5.57968 6.9996 5.57968 5.95019C5.57968 4.89276 6.43027 4.03241 7.48769 4.03241C8.02256 4.03241 8.50153 4.24996 8.84528 4.60099Z" fill="white" fill-opacity="0.85"/>
  <path d="M9.13203 7.73826L9.13203 21.6047C9.13203 23.4478 10.0848 24.4228 11.9182 24.4228L21.0139 24.4228C22.857 24.4228 23.816 23.4478 23.816 21.6047L23.816 7.73826C23.816 5.88885 22.857 4.9121 21.0139 4.9121L11.9182 4.9121C10.0767 4.9121 9.13203 5.88885 9.13203 7.73826ZM10.981 7.8324C10.981 7.12888 11.3338 6.76911 12.0541 6.76911L20.8814 6.76911C21.608 6.76911 21.959 7.12888 21.959 7.8324L21.959 21.5043C21.959 22.206 21.6 22.5641 20.8814 22.5641L12.0541 22.5641C11.3338 22.5641 10.981 22.206 10.981 21.5043ZM16.4642 12.4054C17.6662 12.4054 18.6365 11.4449 18.6365 10.2447C18.6365 9.05252 17.6742 8.10623 16.4642 8.10623C15.2738 8.10623 14.315 9.04451 14.315 10.2447C14.315 11.4529 15.2738 12.4054 16.4642 12.4054ZM16.4678 11.2133C15.9355 11.2133 15.5117 10.7849 15.5117 10.2447C15.5117 9.70271 15.9275 9.2824 16.4678 9.2824C16.9947 9.2824 17.4283 9.72224 17.4283 10.2447C17.4283 10.7849 17.0045 11.2133 16.4678 11.2133ZM16.4678 21.2307C18.5527 21.2307 20.2301 19.5613 20.2301 17.4683C20.2301 15.3763 18.5527 13.7123 16.4678 13.7123C14.3873 13.7123 12.7117 15.3844 12.7117 17.4683C12.7117 19.5533 14.3873 21.2307 16.4678 21.2307ZM16.4678 18.9299C15.6584 18.9299 15.001 18.2902 15.001 17.4683C15.001 16.6279 15.6504 15.9855 16.4678 15.9855C17.3012 15.9855 17.9391 16.6279 17.9391 17.4683C17.9391 18.2902 17.3012 18.9299 16.4678 18.9299Z" fill="white" fill-opacity="0.85"/>
 </g>
</svg>
