<?xml version="1.0" encoding="UTF-8"?>
<!--Generator: Apple Native CoreSVG 341-->
<!DOCTYPE svg
PUBLIC "-//W3C//DTD SVG 1.1//EN"
       "http://www.w3.org/Graphics/SVG/1.1/DTD/svg11.dtd">
<svg version="1.1" xmlns="http://www.w3.org/2000/svg" xmlns:xlink="http://www.w3.org/1999/xlink" viewBox="0 0 20.7926 21.1238">
 <g>
  <rect height="21.1238" opacity="0" width="20.7926" x="0" y="0"/>
  <path d="M0.848044 21.1238L19.5752 21.1238C20.0435 21.1238 20.4312 20.7336 20.4312 20.2607C20.4312 19.7906 20.0435 19.4057 19.5752 19.4057L0.848044 19.4057C0.379686 19.4057 0 19.7941 0 20.2607C0 20.7318 0.381444 21.1238 0.848044 21.1238Z" fill="white" fill-opacity="0.85"/>
  <path d="M5.14198 17.1369L8.37362 15.7885C8.62127 15.6891 8.75077 15.5959 8.90956 15.4451L18.3238 6.08066C19.2646 5.14609 19.2584 4.02715 18.3148 3.07558L16.206 0.952539C15.2527 0.00722706 14.1355-0.00527322 13.1947 0.927538L3.77421 10.2822C3.61366 10.4348 3.52226 10.5643 3.42108 10.8039L2.04862 14.0373C1.82421 14.5678 1.8871 15.0965 2.2828 15.4922L3.6871 16.9045C4.07304 17.2904 4.6035 17.3711 5.14198 17.1369ZM4.95331 15.4281C4.76854 15.4947 4.63436 15.501 4.47264 15.3312L3.85604 14.7146C3.69432 14.5529 3.69256 14.417 3.76541 14.242L4.95526 11.4732L14.276 2.21034C14.5381 1.95624 14.8332 1.94999 15.0775 2.19257L17.073 4.20585C17.3174 4.44843 17.3031 4.74355 17.049 4.99941L7.73007 14.2641ZM1.15937 17.6533L2.4289 17.6533C2.7287 17.6533 2.84413 17.5992 3.05721 17.4269L4.0367 16.6711L2.53554 15.1477L0.848041 16.909C0.542768 17.2303 0.69101 17.6533 1.15937 17.6533ZM3.87148 11.4195L7.98163 15.5519L9.02967 14.5039L4.91952 10.3732ZM12.0156 3.3332L16.1223 7.45585L17.1738 6.42734L13.0637 2.29668Z" fill="white" fill-opacity="0.85"/>
 </g>
</svg>
