<?xml version="1.0" encoding="UTF-8"?>
<!--Generator: Apple Native CoreSVG 341-->
<!DOCTYPE svg
PUBLIC "-//W3C//DTD SVG 1.1//EN"
       "http://www.w3.org/Graphics/SVG/1.1/DTD/svg11.dtd">
<svg version="1.1" xmlns="http://www.w3.org/2000/svg" xmlns:xlink="http://www.w3.org/1999/xlink" viewBox="0 0 20.9105 15.8289">
 <g>
  <rect height="15.8289" opacity="0" width="20.9105" x="0" y="0"/>
  <path d="M10.2648 9.41971C16.0121 9.41971 20.5492 7.33397 20.5492 4.64238C20.5492 2.03691 16.0121 0 10.2648 0C4.52382 0 0 2.03691 0 4.64238C0 7.33397 4.52382 9.41971 10.2648 9.41971ZM10.2648 15.8191C16.0494 15.8191 20.5492 13.2097 20.5492 9.97323L20.5492 7.67655C18.5639 9.64764 14.6213 10.8068 10.2648 10.8068C5.93066 10.8068 1.98984 9.65565 0 7.67655L0 9.97323C0 13.2097 4.48652 15.8191 10.2648 15.8191Z" fill="white" fill-opacity="0.85"/>
 </g>
</svg>
