<?xml version="1.0" encoding="UTF-8"?>
<!--Generator: Apple Native CoreSVG 341-->
<!DOCTYPE svg
PUBLIC "-//W3C//DTD SVG 1.1//EN"
       "http://www.w3.org/Graphics/SVG/1.1/DTD/svg11.dtd">
<svg version="1.1" xmlns="http://www.w3.org/2000/svg" xmlns:xlink="http://www.w3.org/1999/xlink" viewBox="0 0 20.5381 20.1848">
 <g>
  <rect height="20.1848" opacity="0" width="20.5381" x="0" y="0"/>
  <path d="M10.0875 20.175C15.6576 20.175 20.1767 15.6559 20.1767 10.0875C20.1767 4.51914 15.6576 0 10.0875 0C4.51914 0 0 4.51914 0 10.0875C0 15.6559 4.51914 20.175 10.0875 20.175ZM10.0875 18.1879C5.60839 18.1879 1.9871 14.5666 1.9871 10.0875C1.9871 5.60839 5.60839 1.9871 10.0875 1.9871C14.5666 1.9871 18.1897 5.60839 18.1897 10.0875C18.1897 14.5666 14.5666 18.1879 10.0875 18.1879Z" fill="white" fill-opacity="0.85"/>
  <path d="M10.0875 10.8535C12.9883 10.8535 15.2789 9.79609 15.2789 8.44316C15.2789 7.12929 12.9883 6.09941 10.0875 6.09941C7.18495 6.09941 4.89784 7.12929 4.89784 8.44316C4.89784 9.79609 7.18495 10.8535 10.0875 10.8535ZM10.0875 14.0676C13.0096 14.0676 15.2789 12.7482 15.2789 11.1201L15.2789 9.98593C14.2766 10.9803 12.2682 11.5557 10.0875 11.5557C7.91484 11.5557 5.90644 10.9803 4.89784 9.98593L4.89784 11.1201C4.89784 12.7482 7.15742 14.0676 10.0875 14.0676Z" fill="white" fill-opacity="0.85"/>
 </g>
</svg>
