<?xml version="1.0" encoding="UTF-8"?>
<!--Generator: Apple Native CoreSVG 341-->
<!DOCTYPE svg
PUBLIC "-//W3C//DTD SVG 1.1//EN"
       "http://www.w3.org/Graphics/SVG/1.1/DTD/svg11.dtd">
<svg version="1.1" xmlns="http://www.w3.org/2000/svg" xmlns:xlink="http://www.w3.org/1999/xlink" viewBox="0 0 20.9105 15.8289">
 <g>
  <rect height="15.8289" opacity="0" width="20.9105" x="0" y="0"/>
  <path d="M10.2648 15.8191C16.0494 15.8191 20.5492 13.2097 20.5492 9.97323L20.5492 4.7373L18.6975 6.1414L18.6975 9.97323C18.6975 12.1799 15.507 13.9656 10.2648 13.9656C5.0289 13.9656 1.84198 12.1799 1.84198 9.97323L1.84198 6.1414L0 4.7373L0 9.97323C0 13.2097 4.48652 15.8191 10.2648 15.8191ZM10.2648 9.46014C16.0121 9.46014 20.5492 7.3744 20.5492 4.66347C20.5492 2.03691 16.0121 0 10.2648 0C4.52382 0 0 2.03691 0 4.66347C0 7.3744 4.52382 9.46014 10.2648 9.46014ZM10.2648 7.60664C5.49042 7.60664 1.84198 6.29863 1.84198 4.66347C1.84198 3.0914 5.4869 1.85175 10.2648 1.85175C15.049 1.85175 18.6975 3.0914 18.6975 4.66347C18.6975 6.29863 15.0455 7.60664 10.2648 7.60664Z" fill="white" fill-opacity="0.85"/>
 </g>
</svg>
