<?xml version="1.0" encoding="UTF-8"?>
<!--Generator: Apple Native CoreSVG 341-->
<!DOCTYPE svg
PUBLIC "-//W3C//DTD SVG 1.1//EN"
       "http://www.w3.org/Graphics/SVG/1.1/DTD/svg11.dtd">
<svg version="1.1" xmlns="http://www.w3.org/2000/svg" xmlns:xlink="http://www.w3.org/1999/xlink" viewBox="0 0 29.1324 19.1828">
 <g>
  <rect height="19.1828" opacity="0" width="29.1324" x="0" y="0"/>
  <path d="M0 9.58828C0 12.7191 1.01992 15.6154 2.76308 17.9703C3.12031 18.4588 3.73808 18.4978 4.19901 18.1256C4.6244 17.7613 4.6662 17.1977 4.32323 16.7262C2.85643 14.724 1.9951 12.2459 1.9951 9.58828C1.9951 6.92089 2.85643 4.45078 4.32499 2.43261C4.66971 1.97539 4.63768 1.40547 4.19901 1.03946C3.73984 0.665435 3.12382 0.714263 2.76484 1.19473C1.01992 3.55137 0 6.45742 0 9.58828ZM28.7711 9.58828C28.7711 6.45742 27.7574 3.55137 26.0062 1.19473C25.6472 0.714263 25.0312 0.665435 24.572 1.03946C24.1334 1.40547 24.1094 1.97539 24.4443 2.43261C25.9226 4.45078 26.776 6.92089 26.776 9.58828C26.776 12.2459 25.9226 14.724 24.4461 16.7262C24.1129 17.1977 24.1449 17.7613 24.572 18.1256C25.033 18.4978 25.649 18.4588 26.008 17.9703C27.7574 15.6154 28.7711 12.7191 28.7711 9.58828Z" fill="white" fill-opacity="0.85"/>
  <path d="M14.3855 19.1713C19.6861 19.1713 23.9801 14.8773 23.9801 9.58652C23.9801 4.28769 19.6861 0 14.3855 0C9.09471 0 4.80077 4.28769 4.80077 9.58652C4.80077 14.8773 9.09471 19.1713 14.3855 19.1713ZM14.3855 17.1842C10.1955 17.1842 6.78786 13.7766 6.78786 9.58652C6.78786 5.38671 10.1955 1.97909 14.3855 1.97909C18.5853 1.97909 21.993 5.38671 21.993 9.58652C21.993 13.7766 18.5853 17.1842 14.3855 17.1842Z" fill="white" fill-opacity="0.85"/>
  <path d="M11.4068 14.0223C12.0043 14.0223 12.3455 13.6385 12.3455 12.9897L12.3455 10.1203L16.4113 10.1203L16.4113 12.9897C16.4113 13.6322 16.7588 14.0223 17.334 14.0223C17.9314 14.0223 18.2726 13.6385 18.2726 12.9897L18.2726 6.03475C18.2726 5.38593 17.9314 5.00214 17.334 5.00214C16.7588 5.00214 16.4113 5.39218 16.4113 6.03475L16.4113 8.68691L12.3455 8.68691L12.3455 6.03475C12.3455 5.38593 12.0043 5.00214 11.4068 5.00214C10.8299 5.00214 10.4922 5.39218 10.4922 6.03475L10.4922 12.9897C10.4922 13.6322 10.8299 14.0223 11.4068 14.0223Z" fill="white" fill-opacity="0.85"/>
 </g>
</svg>
