<?xml version="1.0" encoding="UTF-8"?>
<!--Generator: Apple Native CoreSVG 341-->
<!DOCTYPE svg
PUBLIC "-//W3C//DTD SVG 1.1//EN"
       "http://www.w3.org/Graphics/SVG/1.1/DTD/svg11.dtd">
<svg version="1.1" xmlns="http://www.w3.org/2000/svg" xmlns:xlink="http://www.w3.org/1999/xlink" viewBox="0 0 24.6631 18.4916">
 <g>
  <rect height="18.4916" opacity="0" width="24.6631" x="0" y="0"/>
  <path d="M0.953509 12.5161L10.0392 12.5161C11.089 12.5161 12.3642 12.8518 13.5025 13.2026C15.9295 13.9606 18.231 15.4403 20.4367 17.6641C21.9834 19.2567 24.3017 18.3966 24.3017 16.1655L24.3017 2.31628C24.3017 0.0834775 21.9834-0.774917 20.4367 0.817657C17.0266 4.26864 13.1107 5.96571 9.55761 5.96571L0.953509 5.96571L0.953509 7.83855L9.55761 7.83855C13.5146 7.83855 17.9318 6.0239 21.5619 2.33463C22.0461 1.8442 22.4307 1.95162 22.4307 2.52545L22.4307 15.9563C22.4307 16.5284 22.0461 16.6296 21.5619 16.1391C17.9318 12.4561 13.5146 10.6432 9.55761 10.6432L0.953509 10.6432ZM0.932416 13.7651C1.45448 13.7651 1.87284 13.3387 1.87284 12.8247L1.87284 5.63934C1.87284 5.12528 1.45448 4.70692 0.932416 4.70692C0.418357 4.70692 0 5.12528 0 5.63934L0 12.8247C0 13.3387 0.418357 13.7651 0.932416 13.7651ZM2.95136 13.9024C2.95136 15.5372 4.29413 16.8719 5.92889 16.8719L11.466 16.8719C13.1008 16.8719 14.4418 15.5372 14.4418 13.9024C14.4418 12.2677 13.1008 10.9266 11.466 10.9266L5.92889 10.9266C4.29413 10.9266 2.95136 12.2677 2.95136 13.9024ZM4.72049 13.9024C4.72049 13.2458 5.27049 12.6958 5.92889 12.6958L11.466 12.6958C12.1226 12.6958 12.6726 13.2458 12.6726 13.9024C12.6726 14.5591 12.1226 15.093 11.466 15.093L5.92889 15.093C5.27049 15.093 4.72049 14.5591 4.72049 13.9024Z" fill="white" fill-opacity="0.85"/>
 </g>
</svg>
