<?xml version="1.0" encoding="UTF-8"?>
<!--Generator: Apple Native CoreSVG 341-->
<!DOCTYPE svg
PUBLIC "-//W3C//DTD SVG 1.1//EN"
       "http://www.w3.org/Graphics/SVG/1.1/DTD/svg11.dtd">
<svg version="1.1" xmlns="http://www.w3.org/2000/svg" xmlns:xlink="http://www.w3.org/1999/xlink" viewBox="0 0 20.5381 20.1848">
 <g>
  <rect height="20.1848" opacity="0" width="20.5381" x="0" y="0"/>
  <path d="M10.0875 20.175C15.6576 20.175 20.1767 15.6559 20.1767 10.0875C20.1767 4.51914 15.6576 0 10.0875 0C4.51914 0 0 4.51914 0 10.0875C0 15.6559 4.51914 20.175 10.0875 20.175ZM10.0875 18.1879C5.60839 18.1879 1.9871 14.5666 1.9871 10.0875C1.9871 5.60839 5.60839 1.9871 10.0875 1.9871C14.5666 1.9871 18.1897 5.60839 18.1897 10.0875C18.1897 14.5666 14.5666 18.1879 10.0875 18.1879Z" fill="white" fill-opacity="0.85"/>
  <path d="M7.53612 15.701L12.6406 15.701C13.2885 15.701 13.6834 15.3221 13.6834 14.6502L13.6834 14.532C13.6834 13.0484 12.126 11.4918 11.3254 10.6912C10.908 10.2818 10.932 9.8416 11.3254 9.46601C12.126 8.67343 13.6834 7.11855 13.6834 5.62343L13.6834 5.52479C13.6834 4.84315 13.2885 4.46601 12.6406 4.46601L7.53612 4.46601C6.88827 4.46601 6.49335 4.84315 6.49335 5.52479L6.49335 5.62343C6.49335 7.11855 8.05078 8.67343 8.85136 9.46601C9.24297 9.8416 9.26875 10.2818 8.85136 10.6912C8.05078 11.4918 6.49335 13.0484 6.49335 14.532L6.49335 14.6502C6.49335 15.3221 6.88827 15.701 7.53612 15.701ZM8.03925 14.7803C7.76054 14.7803 7.69941 14.459 7.88398 14.2859L9.63222 12.4951C9.71816 12.4057 9.74921 12.3764 9.74921 12.2418L9.74921 9.66464C9.74921 9.37714 9.68535 9.22812 9.48125 9.03203C9.0832 8.63925 8.64804 8.21034 8.29003 7.82304C8.11073 7.64823 8.20488 7.43984 8.42304 7.43984L11.76 7.43984C11.9799 7.43984 12.066 7.64823 11.893 7.82304C11.5287 8.21034 11.0918 8.63925 10.6955 9.03203C10.4914 9.22812 10.4275 9.37714 10.4275 9.66464L10.4275 12.2418C10.4275 12.3764 10.4586 12.4057 10.5445 12.4951L12.2928 14.2859C12.4773 14.459 12.4162 14.7803 12.1375 14.7803Z" fill="white" fill-opacity="0.85"/>
 </g>
</svg>
