<?xml version="1.0" encoding="UTF-8"?>
<!--Generator: Apple Native CoreSVG 341-->
<!DOCTYPE svg
PUBLIC "-//W3C//DTD SVG 1.1//EN"
       "http://www.w3.org/Graphics/SVG/1.1/DTD/svg11.dtd">
<svg version="1.1" xmlns="http://www.w3.org/2000/svg" xmlns:xlink="http://www.w3.org/1999/xlink" viewBox="0 0 20.5381 20.1848">
 <g>
  <rect height="20.1848" opacity="0" width="20.5381" x="0" y="0"/>
  <path d="M20.1767 10.0875C20.1767 15.6478 15.6576 20.175 10.0875 20.175C4.52715 20.175 0 15.6478 0 10.0875C0 4.51914 4.52715 0 10.0875 0C15.6576 0 20.1767 4.51914 20.1767 10.0875ZM7.4246 4.21113C6.74667 4.21113 6.32519 4.60859 6.32519 5.32206L6.32519 5.4207C6.32519 6.98749 7.95253 8.60878 8.78769 9.43593C9.19433 9.83007 9.21836 10.2934 8.78769 10.7195C7.95253 11.5529 6.32519 13.1795 6.32519 14.7268L6.32519 14.8529C6.32519 15.5584 6.74667 15.9559 7.4246 15.9559L12.7521 15.9559C13.4301 15.9559 13.8516 15.5584 13.8516 14.8529L13.8516 14.7268C13.8516 13.1795 12.2242 11.5529 11.3891 10.7195C10.9566 10.2934 10.9824 9.83007 11.3891 9.43593C12.2242 8.60878 13.8516 6.98749 13.8516 5.4207L13.8516 5.32206C13.8516 4.60859 13.4301 4.21113 12.7521 4.21113ZM11.9727 7.7248C11.5969 8.12714 11.1352 8.57109 10.7256 8.97539C10.5064 9.18652 10.4408 9.34081 10.4408 9.6416L10.4408 12.3277C10.4408 12.4791 10.4736 12.5084 10.5613 12.6031L12.3875 14.4684C12.5836 14.6449 12.5207 14.9812 12.2287 14.9812L7.94804 14.9812C7.65605 14.9812 7.59316 14.6449 7.78925 14.4684L9.61367 12.6031C9.70136 12.5084 9.73417 12.4791 9.73417 12.3277L9.73417 9.6416C9.73417 9.34081 9.66855 9.18652 9.44941 8.97539C9.0416 8.57109 8.57988 8.12714 8.21034 7.7248C8.02753 7.53671 8.12343 7.31503 8.35663 7.31503L11.8281 7.31503C12.0613 7.31503 12.1492 7.53671 11.9727 7.7248Z" fill="white" fill-opacity="0.85"/>
 </g>
</svg>
