<?xml version="1.0" encoding="UTF-8"?>
<!--Generator: Apple Native CoreSVG 341-->
<!DOCTYPE svg
PUBLIC "-//W3C//DTD SVG 1.1//EN"
       "http://www.w3.org/Graphics/SVG/1.1/DTD/svg11.dtd">
<svg version="1.1" xmlns="http://www.w3.org/2000/svg" xmlns:xlink="http://www.w3.org/1999/xlink" viewBox="0 0 12.0228 18.2105">
 <g>
  <rect height="18.2105" opacity="0" width="12.0228" x="0" y="0"/>
  <path d="M11.6615 1.72558L11.6615 1.88457C11.6615 4.3121 9.13964 6.81464 7.85682 8.08144C7.19452 8.74375 7.23632 9.46777 7.85682 10.09C9.13964 11.3648 11.6615 13.8789 11.6615 16.2869L11.6615 16.4734C11.6615 17.5834 11.0103 18.1928 9.95371 18.1928L1.70781 18.1928C0.649412 18.1928 0 17.5834 0 16.4734L0 16.2869C0 13.8789 2.52988 11.3648 3.80293 10.09C4.475 9.42773 4.43321 8.70371 3.80293 8.08144C2.52988 6.81464 0 4.3121 0 1.88457L0 1.72558C0 0.617381 0.649412 0 1.70781 0L9.95371 0C11.0103 0 11.6615 0.617381 11.6615 1.72558ZM5.31015 12.9318L2.26933 15.8631C1.96679 16.1514 2.0873 16.6695 2.53183 16.6695L9.12969 16.6695C9.57422 16.6695 9.69472 16.1514 9.39219 15.8631L6.3496 12.9318C6.18955 12.7771 6.01372 12.6982 5.83588 12.6975C5.65805 12.6967 5.47822 12.774 5.31015 12.9318Z" fill="white" fill-opacity="0.85"/>
 </g>
</svg>
