<?xml version="1.0" encoding="UTF-8"?>
<!--Generator: Apple Native CoreSVG 341-->
<!DOCTYPE svg
PUBLIC "-//W3C//DTD SVG 1.1//EN"
       "http://www.w3.org/Graphics/SVG/1.1/DTD/svg11.dtd">
<svg version="1.1" xmlns="http://www.w3.org/2000/svg" xmlns:xlink="http://www.w3.org/1999/xlink" viewBox="0 0 24.2072 20.9398">
 <g>
  <rect height="20.9398" opacity="0" width="24.2072" x="0" y="0"/>
  <path d="M9.27479 19.0492L9.27479 13.4143C9.27479 12.958 9.58104 12.6633 10.0373 12.6633L13.8183 12.6633C14.2826 12.6633 14.5711 12.958 14.5711 13.4143L14.5711 19.0492ZM3.15761 18.6787C3.15761 20.0801 4.03945 20.9203 5.48495 20.9203L18.3637 20.9203C19.8092 20.9203 20.6812 20.0801 20.6812 18.6787L20.6812 11.2078L12.5238 4.36678C12.1439 4.04549 11.6922 4.05526 11.3203 4.36678L3.15761 11.2078ZM0.99804 10.7865C1.30136 10.7865 1.57167 10.6312 1.81015 10.4336L11.51 2.28924C11.642 2.18026 11.79 2.12088 11.9221 2.12088C12.0639 2.12088 12.2039 2.18026 12.3359 2.28924L22.0437 10.4336C22.2742 10.6312 22.5445 10.7865 22.8478 10.7865C23.4666 10.7865 23.8459 10.3564 23.8459 9.85234C23.8459 9.58027 23.7263 9.29316 23.4631 9.08222L13.2873 0.53906C12.8617 0.180858 12.391 0 11.9221 0C11.4549 0 10.9842 0.180858 10.5586 0.53906L0.38281 9.08222C0.127538 9.29316 0 9.58027 0 9.85234C0 10.3564 0.379294 10.7865 0.99804 10.7865ZM18.1213 5.12461L20.8801 7.44453L20.8801 2.86094C20.8801 2.42071 20.5996 2.14024 20.1611 2.14024L18.8437 2.14024C18.4133 2.14024 18.1213 2.42071 18.1213 2.86094Z" fill="white" fill-opacity="0.85"/>
 </g>
</svg>
