<?xml version="1.0" encoding="UTF-8"?>
<!--Generator: Apple Native CoreSVG 341-->
<!DOCTYPE svg
PUBLIC "-//W3C//DTD SVG 1.1//EN"
       "http://www.w3.org/Graphics/SVG/1.1/DTD/svg11.dtd">
<svg version="1.1" xmlns="http://www.w3.org/2000/svg" xmlns:xlink="http://www.w3.org/1999/xlink" viewBox="0 0 20.5381 20.1848">
 <g>
  <rect height="20.1848" opacity="0" width="20.5381" x="0" y="0"/>
  <path d="M10.0875 20.175C15.6576 20.175 20.1767 15.6559 20.1767 10.0875C20.1767 4.51914 15.6576 0 10.0875 0C4.51914 0 0 4.51914 0 10.0875C0 15.6559 4.51914 20.175 10.0875 20.175ZM10.0875 18.1879C5.60839 18.1879 1.9871 14.5666 1.9871 10.0875C1.9871 5.60839 5.60839 1.9871 10.0875 1.9871C14.5666 1.9871 18.1897 5.60839 18.1897 10.0875C18.1897 14.5666 14.5666 18.1879 10.0875 18.1879Z" fill="white" fill-opacity="0.85"/>
  <path d="M4.716 10.0535L8.50624 8.10878C8.5871 8.06347 8.67948 8.06347 8.75859 8.10878L12.5488 10.0535C13.0836 10.3275 13.3752 9.66523 12.9363 9.42851L9.11698 7.41015C8.76815 7.23711 8.48866 7.23711 8.14784 7.41816L4.32675 9.42851C3.88964 9.66523 4.17323 10.3275 4.716 10.0535ZM4.47265 14.3172L14.7363 14.3172C14.9209 14.3172 15.0744 14.1637 15.0744 13.9729C15.0744 13.7883 14.9209 13.6365 14.7363 13.6365L12.0668 13.6365C12.0846 13.5717 12.0846 13.5068 12.0846 13.4322L12.0846 10.4082C12.0154 10.3771 11.9418 10.3381 11.8664 10.3035L8.63417 8.63944L5.39393 10.3035C5.31503 10.3381 5.24589 10.3771 5.18026 10.4082L5.18026 13.4322C5.18026 13.5068 5.18026 13.5797 5.2078 13.6365L4.47265 13.6365C4.2996 13.6365 4.13632 13.7883 4.13632 13.9729C4.13632 14.1637 4.2996 14.3172 4.47265 14.3172ZM7.45839 13.5891L7.45839 11.1471C7.45839 10.9588 7.58358 10.8514 7.75585 10.8514L9.50448 10.8514C9.683 10.8514 9.80195 10.9588 9.80195 11.1471L9.80195 13.5891ZM12.7711 13.9227L13.4473 13.9227L13.4473 7.85058C13.481 7.84257 13.5309 7.84257 13.5744 7.84257C14.191 7.84257 14.5853 8.15429 15.2062 8.15429C15.4691 8.15429 15.5943 8.11698 15.7293 8.06015C15.8971 7.98202 15.9654 7.87109 15.9654 7.69355L15.9654 5.93944C15.9654 5.81698 15.8918 5.72733 15.732 5.72733C15.6166 5.72733 15.4736 5.81171 15.1805 5.81171C14.5951 5.81171 14.1875 5.49198 13.54 5.49198C13.2674 5.49198 13.1457 5.52753 13.0152 5.58612C12.851 5.64823 12.7711 5.77519 12.7711 5.95272Z" fill="white" fill-opacity="0.85"/>
 </g>
</svg>
