<?xml version="1.0" encoding="UTF-8"?>
<!--Generator: Apple Native CoreSVG 341-->
<!DOCTYPE svg
PUBLIC "-//W3C//DTD SVG 1.1//EN"
       "http://www.w3.org/Graphics/SVG/1.1/DTD/svg11.dtd">
<svg version="1.1" xmlns="http://www.w3.org/2000/svg" xmlns:xlink="http://www.w3.org/1999/xlink" viewBox="0 0 20.5381 20.1848">
 <g>
  <rect height="20.1848" opacity="0" width="20.5381" x="0" y="0"/>
  <path d="M10.0875 20.175C15.6576 20.175 20.1767 15.6559 20.1767 10.0875C20.1767 4.51914 15.6576 0 10.0875 0C4.51914 0 0 4.51914 0 10.0875C0 15.6559 4.51914 20.175 10.0875 20.175ZM10.0875 18.1879C5.60839 18.1879 1.9871 14.5666 1.9871 10.0875C1.9871 5.60839 5.60839 1.9871 10.0875 1.9871C14.5666 1.9871 18.1897 5.60839 18.1897 10.0875C18.1897 14.5666 14.5666 18.1879 10.0875 18.1879Z" fill="white" fill-opacity="0.85"/>
  <path d="M5.86776 10.3051L9.90468 7.10604C9.94902 7.06171 10.0271 7.04218 10.0715 7.04218C10.1256 7.04218 10.1957 7.06171 10.248 7.10604L14.285 10.3051C14.7125 10.651 15.1648 10.0877 14.7941 9.78711L10.6189 6.45507C10.4637 6.33886 10.2578 6.25898 10.0715 6.25898C9.88691 6.25898 9.69882 6.32909 9.53554 6.45507L5.35057 9.78711C4.97987 10.0842 5.43222 10.651 5.86776 10.3051ZM6.8246 12.9141L13.3201 12.9141C13.8527 12.9141 14.1723 12.6061 14.1723 12.0689L14.1723 10.8375C14.033 10.7859 13.9035 10.7043 13.742 10.5881L10.0715 7.67538L6.39647 10.5881C6.23944 10.7043 6.11972 10.7859 5.97245 10.8375L5.97245 12.0689C5.97245 12.6061 6.29198 12.9141 6.8246 12.9141ZM9.09023 12.1992L9.08222 10.6039C9.08222 10.4396 9.19413 10.3357 9.35839 10.3357L10.8023 10.3357C10.9586 10.3357 11.0625 10.4396 11.0625 10.6039L11.0625 12.1992ZM5.0078 9.35195L6.73065 7.9916L5.90448 7.98808C5.74647 7.98808 5.59647 8.02441 5.47577 8.11406L3.07069 9.78808C2.82694 9.97246 2.92889 10.3812 3.29159 10.3812L4.7494 10.3812C4.60311 10.0502 4.62714 9.64648 5.0078 9.35195ZM5.41561 12.0689L5.41561 10.9193L3.62967 10.9256L3.62967 12.0689C3.62967 12.6061 3.94745 12.9141 4.48983 12.9141L5.65878 12.9141C5.50351 12.6797 5.41561 12.4027 5.41561 12.0689ZM15.1369 9.35195C15.5238 9.64296 15.5496 10.0502 15.4033 10.3812L16.8629 10.3812C17.2256 10.3812 17.3258 9.98847 17.0678 9.78808L14.6689 8.11406C14.5482 8.02441 14.4143 7.98808 14.2402 7.98808L13.4141 7.9916ZM14.7326 12.0689C14.7326 12.4027 14.6492 12.6797 14.4859 12.9141L15.6549 12.9141C16.1973 12.9141 16.5168 12.6061 16.5168 12.0689L16.5168 10.9256L14.7326 10.9193Z" fill="white" fill-opacity="0.85"/>
 </g>
</svg>
