<?xml version="1.0" encoding="UTF-8"?>
<!--Generator: Apple Native CoreSVG 341-->
<!DOCTYPE svg
PUBLIC "-//W3C//DTD SVG 1.1//EN"
       "http://www.w3.org/Graphics/SVG/1.1/DTD/svg11.dtd">
<svg version="1.1" xmlns="http://www.w3.org/2000/svg" xmlns:xlink="http://www.w3.org/1999/xlink" viewBox="0 0 20.5381 20.1848">
 <g>
  <rect height="20.1848" opacity="0" width="20.5381" x="0" y="0"/>
  <path d="M10.0875 20.175C15.6576 20.175 20.1767 15.6559 20.1767 10.0875C20.1767 4.51914 15.6576 0 10.0875 0C4.51914 0 0 4.51914 0 10.0875C0 15.6559 4.51914 20.175 10.0875 20.175ZM10.0875 18.1879C5.60839 18.1879 1.9871 14.5666 1.9871 10.0875C1.9871 5.60839 5.60839 1.9871 10.0875 1.9871C14.5666 1.9871 18.1897 5.60839 18.1897 10.0875C18.1897 14.5666 14.5666 18.1879 10.0875 18.1879Z" fill="white" fill-opacity="0.85"/>
  <path d="M10.0447 5.65605C9.1955 5.65605 8.16152 5.88417 7.54707 6.7996C7.41562 7.00117 7.34824 7.18847 7.34824 7.43691C7.34824 7.75878 7.57246 7.96718 7.91035 7.96718C8.18886 7.96718 8.34667 7.85272 8.48573 7.62284C8.82929 7.01229 9.40956 6.76346 10.0467 6.76346C10.8498 6.76346 11.6309 7.12772 11.6309 7.91503C11.6309 8.30214 11.4117 8.76327 10.8568 8.92851L12.1185 9.13398C12.5941 8.88183 12.9453 8.40038 12.9453 7.81405C12.9453 6.34042 11.4994 5.65605 10.0447 5.65605ZM6.49258 9.15663C6.49258 9.33163 6.62578 9.46484 6.79453 9.46484L13.3748 9.46484C13.5578 9.46484 13.691 9.33163 13.691 9.15663C13.691 8.97187 13.5578 8.83866 13.3748 8.83866L6.79453 8.83866C6.62578 8.83866 6.49258 8.97187 6.49258 9.15663ZM6.49258 10.693C6.49258 10.8697 6.62578 11.0029 6.79453 11.0029L13.3748 11.0029C13.5578 11.0029 13.691 10.8697 13.691 10.693C13.691 10.51 13.5578 10.3768 13.3748 10.3768L6.79453 10.3768C6.62578 10.3768 6.49258 10.51 6.49258 10.693ZM10.0988 14.391C11.2484 14.391 12.3258 14.0002 12.8248 13.0781C12.9332 12.8978 13.0185 12.673 13.0185 12.4865C13.0185 12.1602 12.7668 11.9482 12.4307 11.9482C12.1504 11.9482 11.9898 12.0672 11.8393 12.3086C11.516 12.9842 10.8894 13.2738 10.1146 13.2738C9.24218 13.2738 8.4326 12.857 8.4326 12.0932C8.4326 11.4549 8.85038 10.9977 9.56776 10.8437L8.16465 10.6881C7.5334 10.9385 7.10039 11.5469 7.10039 12.201C7.10039 13.6728 8.65292 14.391 10.0988 14.391Z" fill="white" fill-opacity="0.85"/>
 </g>
</svg>
