<?xml version="1.0" encoding="UTF-8"?>
<!--Generator: Apple Native CoreSVG 341-->
<!DOCTYPE svg
PUBLIC "-//W3C//DTD SVG 1.1//EN"
       "http://www.w3.org/Graphics/SVG/1.1/DTD/svg11.dtd">
<svg version="1.1" xmlns="http://www.w3.org/2000/svg" xmlns:xlink="http://www.w3.org/1999/xlink" viewBox="0 0 24.2049 19.7961">
 <g>
  <rect height="19.7961" opacity="0" width="24.2049" x="0" y="0"/>
  <path d="M23.8435 11.8701C23.8435 5.64747 19.073 0.538875 12.9941 0.00293831C12.6553-0.029874 12.3998 0.215828 12.3998 0.554694L12.3998 3.8043C12.3998 4.08907 12.6012 4.30645 12.8842 4.33301C16.6191 4.80957 19.517 8.00293 19.517 11.8701C19.517 13.6332 18.9115 15.2613 17.8488 16.61C17.6945 16.8023 17.7025 17.0471 17.8719 17.2244L20.2322 19.5785C20.4646 19.8144 20.823 19.8109 21.0359 19.559C22.7926 17.4783 23.8435 14.7949 23.8435 11.8701Z" fill="white" fill-opacity="0.85"/>
  <path d="M0 11.8701C0 14.8029 1.05098 17.4863 2.80586 19.5652C3.01875 19.8172 3.36914 19.8109 3.61132 19.5768L5.96992 17.2227C6.13925 17.0453 6.14726 16.8006 5.99296 16.6082C4.92578 15.2613 4.32656 13.6332 4.32656 11.8701C4.32656 8.00293 7.22617 4.80957 10.9594 4.33301C11.2441 4.30645 11.4437 4.08907 11.4437 3.8043L11.4437 0.554694C11.4437 0.215828 11.1883-0.029874 10.8494 0.00293831C4.77226 0.538875 0 5.64747 0 11.8701Z" fill="white" fill-opacity="0.85"/>
  <path d="M11.875 7.52168C11.0338 7.52168 9.99003 7.74981 9.37734 8.66524C9.24414 8.8668 9.17675 9.0541 9.17675 9.30254C9.17675 9.62441 9.40273 9.84082 9.74863 9.84082C10.0191 9.84082 10.1769 9.71836 10.324 9.49648C10.6596 8.88593 11.2398 8.6291 11.885 8.6291C12.6801 8.6291 13.4611 9.00312 13.4611 9.78066C13.4611 10.1695 13.2402 10.6387 12.6854 10.7941L13.9471 10.9996C14.4324 10.7475 14.7836 10.2678 14.7836 9.68945C14.7836 8.21406 13.3297 7.52168 11.875 7.52168ZM8.32285 11.0223C8.32285 11.207 8.45605 11.3305 8.63105 11.3305L15.2131 11.3305C15.3881 11.3305 15.5213 11.207 15.5213 11.0223C15.5213 10.8375 15.3881 10.7061 15.2131 10.7061L8.63105 10.7061C8.45605 10.7061 8.32285 10.8375 8.32285 11.0223ZM8.32285 12.5604C8.32285 12.7354 8.45605 12.8686 8.63105 12.8686L15.2131 12.8686C15.3881 12.8686 15.5213 12.7354 15.5213 12.5604C15.5213 12.3756 15.3881 12.2424 15.2131 12.2424L8.63105 12.2424C8.45605 12.2424 8.32285 12.3756 8.32285 12.5604ZM11.9291 16.2584C13.0769 16.2584 14.156 15.8658 14.6631 14.9518C14.7635 14.7635 14.8488 14.5387 14.8488 14.3522C14.8488 14.0338 14.5971 13.8219 14.2609 13.8219C13.9807 13.8219 13.8184 13.9408 13.6775 14.1822C13.3463 14.8516 12.7197 15.1475 11.9449 15.1475C11.0725 15.1475 10.2629 14.7227 10.2629 13.9588C10.2629 13.3205 10.6807 12.8731 11.398 12.7094L9.99492 12.5537C9.36191 12.8041 8.93066 13.4205 8.93066 14.0666C8.93066 15.5385 10.4832 16.2584 11.9291 16.2584Z" fill="white" fill-opacity="0.85"/>
 </g>
</svg>
