<?xml version="1.0" encoding="UTF-8"?>
<!--Generator: Apple Native CoreSVG 341-->
<!DOCTYPE svg
PUBLIC "-//W3C//DTD SVG 1.1//EN"
       "http://www.w3.org/Graphics/SVG/1.1/DTD/svg11.dtd">
<svg version="1.1" xmlns="http://www.w3.org/2000/svg" xmlns:xlink="http://www.w3.org/1999/xlink" viewBox="0 0 18.5894 18.2316">
 <g>
  <rect height="18.2316" opacity="0" width="18.5894" x="0" y="0"/>
  <path d="M18.2281 3.17148L18.2281 15.0646C18.2281 17.1502 17.1404 18.2281 15.0246 18.2281L3.20351 18.2281C1.0957 18.2281 0 17.1502 0 15.0646L0 3.17148C0 1.08769 1.0957 0 3.20351 0L15.0246 0C17.1404 0 18.2281 1.08769 18.2281 3.17148ZM5.72226 9.41523C5.54375 9.41523 5.40078 9.54667 5.40078 9.74121C5.40078 9.92773 5.54375 10.0627 5.72226 10.0627L6.58437 10.0627C6.24668 10.3762 6.03515 10.8467 6.03515 11.3051C6.03515 12.8398 7.65058 13.5766 9.15761 13.5766C10.3568 13.5766 11.4758 13.1805 11.9978 12.2203C12.108 12.0383 12.1934 11.8037 12.1934 11.6074C12.1934 11.2643 11.9346 11.0426 11.5852 11.0426C11.2898 11.0426 11.1195 11.1713 10.9654 11.4225C10.6307 12.1193 9.98281 12.4188 9.17695 12.4188C8.27167 12.4188 7.4328 11.9824 7.4328 11.1955C7.4328 10.6969 7.68964 10.292 8.15741 10.0627L12.5744 10.0627C12.7592 10.0627 12.9021 9.92773 12.9021 9.74121C12.9021 9.54667 12.7592 9.41523 12.5744 9.41523ZM6.50488 5.69101C6.36191 5.9041 6.29277 6.09492 6.29277 6.35488C6.29277 6.69179 6.53203 6.91171 6.8832 6.91171C7.17675 6.91171 7.33808 6.7955 7.49667 6.55585C7.8455 5.92401 8.44706 5.66542 9.10546 5.66542C9.93339 5.66542 10.742 6.0412 10.742 6.8578C10.742 7.2039 10.5691 7.60097 10.1434 7.81777L5.72226 7.81777C5.54375 7.81777 5.40078 7.95273 5.40078 8.14726C5.40078 8.33027 5.54375 8.46523 5.72226 8.46523L12.5744 8.46523C12.7592 8.46523 12.9021 8.33027 12.9021 8.14726C12.9021 7.95273 12.7592 7.81777 12.5744 7.81777L11.699 7.81777C11.9646 7.53984 12.1299 7.16698 12.1299 6.75683C12.1299 5.22031 10.6148 4.50937 9.10527 4.50937C8.21796 4.50937 7.14062 4.74101 6.50488 5.69101Z" fill="white" fill-opacity="0.85"/>
 </g>
</svg>
