<?xml version="1.0" encoding="UTF-8"?>
<!--Generator: Apple Native CoreSVG 341-->
<!DOCTYPE svg
PUBLIC "-//W3C//DTD SVG 1.1//EN"
       "http://www.w3.org/Graphics/SVG/1.1/DTD/svg11.dtd">
<svg version="1.1" xmlns="http://www.w3.org/2000/svg" xmlns:xlink="http://www.w3.org/1999/xlink" viewBox="0 0 22.7515 21.4965">
 <g>
  <rect height="21.4965" opacity="0" width="22.7515" x="0" y="0"/>
  <path d="M1.44999 18.9656L20.9947 18.9656L20.9947 18.2322C20.9947 17.8064 20.7437 17.551 20.3117 17.551L19.7447 17.551L19.7447 6.98046L20.5865 6.98046C21.1851 6.98046 21.5363 6.53886 21.5363 6.09277C21.5363 5.7664 21.351 5.47734 20.9545 5.24941L12.481 0.359374C12.0764 0.125976 11.6398 0 11.2183 0C10.7969 0 10.3523 0.125976 9.96366 0.359374L1.49023 5.24941C1.08574 5.47734 0.908396 5.7664 0.908396 6.09277C0.908396 6.53886 1.25957 6.98046 1.85995 6.98046L2.69999 6.98046L2.69999 17.551L2.14101 17.551C1.70898 17.551 1.44999 17.8064 1.44999 18.2322ZM4.32401 17.551L4.32401 5.67245L10.8779 1.99999C10.9846 1.93866 11.1072 1.90487 11.2183 1.90487C11.333 1.90487 11.4521 1.93866 11.5668 1.99999L18.1207 5.67245L18.1207 17.551ZM0.881441 21.4867L21.499 21.4867C21.9797 21.4867 22.3902 21.0849 22.3902 20.5972C22.3902 20.1148 21.9797 19.7158 21.499 19.7158L0.881441 19.7158C0.399022 19.7158 0 20.1148 0 20.5972C0 21.0832 0.399022 21.4867 0.881441 21.4867Z" fill="white" fill-opacity="0.85"/>
  <path d="M11.1933 6.14432C10.3441 6.14432 9.30839 6.37245 8.69569 7.28788C8.56249 7.48944 8.49511 7.67674 8.49511 7.92518C8.49511 8.24705 8.72108 8.46346 9.05721 8.46346C9.33573 8.46346 9.49354 8.341 9.6326 8.11912C9.97615 7.50857 10.5564 7.25174 11.1953 7.25174C11.9984 7.25174 12.7795 7.62576 12.7795 8.4033C12.7795 8.79217 12.5586 9.26131 12.0037 9.41678L13.2654 9.62225C13.7428 9.3701 14.0939 8.89042 14.0939 8.31209C14.0939 6.8367 12.6463 6.14432 11.1933 6.14432ZM7.6412 9.64491C7.6412 9.82967 7.7744 9.95311 7.9414 9.95311L14.5217 9.95311C14.7064 9.95311 14.8396 9.82967 14.8396 9.64491C14.8396 9.46014 14.7064 9.3287 14.5217 9.3287L7.9414 9.3287C7.7744 9.3287 7.6412 9.46014 7.6412 9.64491ZM7.6412 11.183C7.6412 11.358 7.7744 11.4912 7.9414 11.4912L14.5217 11.4912C14.7064 11.4912 14.8396 11.358 14.8396 11.183C14.8396 10.9982 14.7064 10.865 14.5217 10.865L7.9414 10.865C7.7744 10.865 7.6412 10.9982 7.6412 11.183ZM11.2457 14.881C12.3873 14.881 13.4744 14.4885 13.9717 13.5744C14.0801 13.3861 14.1654 13.1613 14.1654 12.9748C14.1654 12.6564 13.9137 12.4445 13.5793 12.4445C13.299 12.4445 13.1367 12.5635 12.9879 12.8049C12.6566 13.4742 12.0363 13.7701 11.2553 13.7701C10.3908 13.7701 9.58123 13.3453 9.58123 12.5814C9.58123 11.9432 9.99901 11.4939 10.7146 11.332L9.31328 11.1764C8.68026 11.4267 8.24725 12.0432 8.24725 12.6892C8.24725 14.1611 9.79979 14.881 11.2457 14.881Z" fill="white" fill-opacity="0.85"/>
 </g>
</svg>
