<?xml version="1.0" encoding="UTF-8"?>
<!--Generator: Apple Native CoreSVG 341-->
<!DOCTYPE svg
PUBLIC "-//W3C//DTD SVG 1.1//EN"
       "http://www.w3.org/Graphics/SVG/1.1/DTD/svg11.dtd">
<svg version="1.1" xmlns="http://www.w3.org/2000/svg" xmlns:xlink="http://www.w3.org/1999/xlink" viewBox="0 0 22.7515 21.4965">
 <g>
  <rect height="21.4965" opacity="0" width="22.7515" x="0" y="0"/>
  <path d="M12.481 0.359374L20.9545 5.24941C21.351 5.47734 21.5363 5.7664 21.5363 6.09277C21.5363 6.53886 21.1851 6.98046 20.5865 6.98046L19.7447 6.98046L19.7447 18.2742L20.3117 18.2742C20.7437 18.2742 20.9947 18.5297 20.9947 18.9572L20.9947 19.7158L21.499 19.7158C21.9797 19.7158 22.3902 20.1148 22.3902 20.5972C22.3902 21.0849 21.9797 21.4867 21.499 21.4867L0.881441 21.4867C0.399022 21.4867 0 21.0832 0 20.5972C0 20.1148 0.399022 19.7158 0.881441 19.7158L1.44999 19.7158L1.44999 18.9572C1.44999 18.5297 1.70898 18.2742 2.14101 18.2742L2.69999 18.2742L2.69999 6.98046L1.85995 6.98046C1.25957 6.98046 0.908396 6.53886 0.908396 6.09277C0.908396 5.7664 1.08574 5.47734 1.49023 5.24941L9.96366 0.359374C10.3523 0.125976 10.7969 0 11.2183 0C11.6398 0 12.0764 0.125976 12.481 0.359374ZM7.81034 11.8722C7.63183 11.8722 7.48886 12.0055 7.48886 12.208C7.48886 12.3945 7.63183 12.5295 7.81034 12.5295L8.67245 12.5295C8.33476 12.8412 8.12323 13.3055 8.12323 13.7639C8.12323 15.3066 9.73866 16.0433 11.2457 16.0433C12.4369 16.0433 13.5639 15.6392 14.0842 14.6853C14.1961 14.4953 14.2814 14.2687 14.2814 14.0644C14.2814 13.731 14.0226 13.5076 13.6732 13.5076C13.3779 13.5076 13.2058 13.6363 13.0535 13.8892C12.709 14.5844 12.0691 14.8838 11.257 14.8838C10.3597 14.8838 9.52088 14.4492 9.52088 13.6605C9.52088 13.1637 9.77772 12.757 10.2455 12.5295L14.6527 12.5295C14.8472 12.5295 14.9822 12.3945 14.9822 12.208C14.9822 12.0055 14.8472 11.8722 14.6527 11.8722ZM8.59296 8.15779C8.44999 8.36111 8.38085 8.5617 8.38085 8.82166C8.38085 9.15682 8.62011 9.37849 8.97128 9.37849C9.26483 9.37849 9.42616 9.26228 9.57498 9.02264C9.93358 8.3908 10.5351 8.1322 11.1935 8.1322C12.0197 8.1322 12.8301 8.50798 12.8301 9.32459C12.8301 9.67068 12.6572 10.0678 12.2314 10.2846L7.81034 10.2846C7.63183 10.2846 7.48886 10.4115 7.48886 10.6123C7.48886 10.7971 7.63183 10.932 7.81034 10.932L14.6527 10.932C14.8472 10.932 14.9822 10.7971 14.9822 10.6123C14.9822 10.4115 14.8472 10.2846 14.6527 10.2846L13.7871 10.2846C14.0527 10.0066 14.2099 9.63377 14.2099 9.22186C14.2099 7.68533 12.7029 6.97615 11.1933 6.97615C10.3043 6.97615 9.2287 7.19979 8.59296 8.15779Z" fill="white" fill-opacity="0.85"/>
 </g>
</svg>
