<?xml version="1.0" encoding="UTF-8"?>
<!--Generator: Apple Native CoreSVG 341-->
<!DOCTYPE svg
PUBLIC "-//W3C//DTD SVG 1.1//EN"
       "http://www.w3.org/Graphics/SVG/1.1/DTD/svg11.dtd">
<svg version="1.1" xmlns="http://www.w3.org/2000/svg" xmlns:xlink="http://www.w3.org/1999/xlink" viewBox="0 0 16.267 22.7996">
 <g>
  <rect height="22.7996" opacity="0" width="16.267" x="0" y="0"/>
  <path d="M2.64726 2.50234C3.06328 2.50234 3.40214 2.16347 3.40214 1.74746C3.40214 1.3332 3.06328 0.992578 2.64726 0.992578C2.23301 0.992578 1.89414 1.3332 1.89414 1.74746C1.89414 2.16347 2.23301 2.50234 2.64726 2.50234ZM7.99101 1.51601C8.40703 1.51601 8.74589 1.17714 8.74589 0.762888C8.74589 0.338866 8.40703 0 7.99101 0C7.57676 0 7.23789 0.338866 7.23789 0.762888C7.23789 1.17714 7.57676 1.51601 7.99101 1.51601ZM13.3348 2.50234C13.7508 2.50234 14.0896 2.16347 14.0896 1.74746C14.0896 1.3332 13.7508 0.992578 13.3348 0.992578C12.9205 0.992578 12.5799 1.3332 12.5799 1.74746C12.5799 2.16347 12.9205 2.50234 13.3348 2.50234Z" fill="white" fill-opacity="0.85"/>
  <path d="M4.46171 4.85253C4.87597 4.85253 5.21484 4.51367 5.21484 4.09765C5.21484 3.68339 4.87597 3.34277 4.46171 3.34277C4.03769 3.34277 3.69883 3.68339 3.69883 4.09765C3.69883 4.51367 4.03769 4.85253 4.46171 4.85253ZM7.99101 4.48241C8.40703 4.48241 8.74589 4.14355 8.74589 3.72753C8.74589 3.31328 8.40703 2.97265 7.99101 2.97265C7.57676 2.97265 7.23789 3.31328 7.23789 3.72753C7.23789 4.14355 7.57676 4.48241 7.99101 4.48241ZM11.5301 4.85253C11.9461 4.85253 12.285 4.51367 12.285 4.09765C12.285 3.68339 11.9461 3.34277 11.5301 3.34277C11.1078 3.34277 10.7752 3.68339 10.7752 4.09765C10.7752 4.51367 11.1078 4.85253 11.5301 4.85253Z" fill="white" fill-opacity="0.85"/>
  <path d="M2.97558 10.1512L12.9301 10.1512C12.3234 9.2496 11.6416 8.30761 10.9225 7.34784C10.3793 6.63339 10.0129 6.20937 8.99609 6.20937L6.90957 6.20937C5.90078 6.20937 5.53437 6.63339 4.98145 7.34784C4.26406 8.30761 3.58223 9.2496 2.97558 10.1512ZM0.0876945 16.1957L5.78887 16.1957C6.11445 15.3186 6.94707 14.7051 7.96347 14.7051C8.96035 14.7051 9.79296 15.3186 10.1266 16.1957L15.818 16.1957C15.5881 14.9123 14.9432 13.4342 14.0053 11.8365L1.9084 11.8365C0.962501 13.4342 0.317577 14.9123 0.0876945 16.1957ZM7.96347 17.9574C8.49004 17.9574 8.8834 17.5658 8.8834 17.0295C8.8834 16.5029 8.49004 16.1096 7.96347 16.1096C7.41914 16.1096 7.03554 16.5029 7.03554 17.0295C7.03554 17.5658 7.41914 17.9574 7.96347 17.9574ZM5.84863 22.7871L10.057 22.7871C13.6885 22.7871 15.6607 20.9771 15.9057 17.8846L10.1168 17.8846C9.7832 18.7537 8.95058 19.3637 7.96347 19.3637C6.94707 19.3637 6.12246 18.7537 5.79687 17.8846L0 17.8846C0.243164 20.9771 2.21719 22.7871 5.84863 22.7871Z" fill="white" fill-opacity="0.85"/>
 </g>
</svg>
