<?xml version="1.0" encoding="UTF-8"?>
<!--Generator: Apple Native CoreSVG 341-->
<!DOCTYPE svg
PUBLIC "-//W3C//DTD SVG 1.1//EN"
       "http://www.w3.org/Graphics/SVG/1.1/DTD/svg11.dtd">
<svg version="1.1" xmlns="http://www.w3.org/2000/svg" xmlns:xlink="http://www.w3.org/1999/xlink" viewBox="0 0 13.1068 20.9152">
 <g>
  <rect height="20.9152" opacity="0" width="13.1068" x="0" y="0"/>
  <path d="M0 20.0666C0 20.5295 0.355663 20.9054 0.850387 20.9054C6.78007 20.9054 11.5035 16.7488 11.5035 10.4527C11.5035 7.63573 9.18085 5.31308 6.37187 5.31308C5.44081 5.31308 4.56757 5.60468 3.86327 6.09805C5.34706 3.32343 8.34823 1.67148 11.8951 1.67148C12.3881 1.67148 12.7455 1.29902 12.7455 0.829098C12.7455 0.366209 12.3881 0 11.8951 0C5.96542 0 1.25 4.14863 1.25 10.4527C1.25 13.2617 3.57265 15.5844 6.37187 15.5844C7.31269 15.5844 8.17617 15.2928 8.88223 14.8074C7.39844 17.5803 4.3875 19.234 0.850387 19.234C0.355663 19.234 0 19.5984 0 20.0666ZM4.93476 10.4527C4.93476 9.66444 5.58456 9.02265 6.36484 9.02265C7.15312 9.02265 7.79492 9.66444 7.79492 10.4527C7.79492 11.2232 7.15312 11.8828 6.36484 11.8828C5.58456 11.8828 4.93476 11.233 4.93476 10.4527Z" fill="white" fill-opacity="0.85"/>
 </g>
</svg>
