<?xml version="1.0" encoding="UTF-8"?>
<!--Generator: Apple Native CoreSVG 341-->
<!DOCTYPE svg
PUBLIC "-//W3C//DTD SVG 1.1//EN"
       "http://www.w3.org/Graphics/SVG/1.1/DTD/svg11.dtd">
<svg version="1.1" xmlns="http://www.w3.org/2000/svg" xmlns:xlink="http://www.w3.org/1999/xlink" viewBox="0 0 20.5381 20.1848">
 <g>
  <rect height="20.1848" opacity="0" width="20.5381" x="0" y="0"/>
  <path d="M20.1767 10.0973C20.1767 15.6656 15.6576 20.1848 10.0875 20.1848C4.52715 20.1848 0 15.6656 0 10.0973C0 4.53691 4.52715 0.00976562 10.0875 0.00976562C15.6576 0.00976562 20.1767 4.53691 20.1767 10.0973ZM6.87988 10.099C6.87988 11.8631 8.33945 13.3164 10.0875 13.3164C10.5248 13.3164 10.9363 13.2088 11.29 13.0078C10.3613 14.4516 8.71816 15.292 6.75761 15.292C6.3832 15.292 6.12949 15.5732 6.12949 15.9184C6.12949 16.2439 6.3832 16.5269 6.75761 16.5269C10.3955 16.5269 13.2969 13.9703 13.2969 10.099C13.2969 8.33496 11.8355 6.88339 10.0875 6.88339C9.65195 6.88339 9.24042 6.99101 8.88671 7.19824C9.81542 5.75448 11.4586 4.9078 13.4271 4.9078C13.7936 4.9078 14.0473 4.62655 14.0473 4.28944C14.0473 3.94784 13.7855 3.67284 13.4271 3.67284C9.78124 3.67284 6.87988 6.22948 6.87988 10.099ZM11.0695 10.099C11.0695 10.6291 10.6273 11.0793 10.0875 11.0793C9.55117 11.0793 9.10722 10.6389 9.10722 10.099C9.10722 9.56093 9.55117 9.11874 10.0875 9.11874C10.6273 9.11874 11.0695 9.56093 11.0695 10.099Z" fill="white" fill-opacity="0.85"/>
 </g>
</svg>
