<?xml version="1.0" encoding="UTF-8"?>
<!--Generator: Apple Native CoreSVG 341-->
<!DOCTYPE svg
PUBLIC "-//W3C//DTD SVG 1.1//EN"
       "http://www.w3.org/Graphics/SVG/1.1/DTD/svg11.dtd">
<svg version="1.1" xmlns="http://www.w3.org/2000/svg" xmlns:xlink="http://www.w3.org/1999/xlink" viewBox="0 0 20.5381 20.1848">
 <g>
  <rect height="20.1848" opacity="0" width="20.5381" x="0" y="0"/>
  <path d="M20.1767 10.0875C20.1767 15.6478 15.6576 20.175 10.0875 20.175C4.52715 20.175 0 15.6478 0 10.0875C0 4.51914 4.52715 0 10.0875 0C15.6576 0 20.1767 4.51914 20.1767 10.0875ZM9.25254 6.38046L9.25254 9.28164L6.11132 9.28164L6.11132 6.38046C6.11132 5.93964 5.76972 5.53847 5.26308 5.53847C4.83202 5.53847 4.4371 5.86581 4.4371 6.38046L4.4371 13.7047C4.4371 14.1437 4.7662 14.5564 5.26308 14.5564C5.73768 14.5564 6.11132 14.1775 6.11132 13.7047L6.11132 10.7094L9.25254 10.7094L9.25254 13.7047C9.25254 14.1775 9.63769 14.5564 10.1025 14.5564C10.5834 14.5564 10.9525 14.1775 10.9525 13.7047L10.9525 6.38046C10.9525 5.87382 10.5514 5.53847 10.1025 5.53847C9.67773 5.53847 9.25254 5.87382 9.25254 6.38046ZM12.0324 10.3188C11.9978 10.4092 11.9828 10.5156 11.9828 10.6078C11.9828 10.9316 12.2117 11.1605 12.54 11.1605C12.8027 11.1605 12.9748 11.0381 13.1133 10.7896C13.2207 10.4877 13.4508 10.2504 13.8178 10.2504C14.2033 10.2504 14.4414 10.4592 14.4414 10.7639C14.4414 11.0605 14.1748 11.3324 13.8756 11.6672L12.2521 13.384C12.0893 13.5682 12.0023 13.7119 12.0023 13.9025C12.0023 14.2389 12.2508 14.4545 12.5906 14.4545L15.3562 14.4545C15.6828 14.4545 15.918 14.2158 15.918 13.8937C15.918 13.5814 15.6828 13.3303 15.3562 13.3303L13.8133 13.34L14.8019 12.3398C15.2652 11.8543 15.6586 11.3447 15.6586 10.7133C15.6586 9.76973 14.9059 9.1457 13.7945 9.1457C12.9865 9.1457 12.24 9.63945 12.0324 10.3188Z" fill="white" fill-opacity="0.85"/>
 </g>
</svg>
