<?xml version="1.0" encoding="UTF-8"?>
<!--Generator: Apple Native CoreSVG 341-->
<!DOCTYPE svg
PUBLIC "-//W3C//DTD SVG 1.1//EN"
       "http://www.w3.org/Graphics/SVG/1.1/DTD/svg11.dtd">
<svg version="1.1" xmlns="http://www.w3.org/2000/svg" xmlns:xlink="http://www.w3.org/1999/xlink" viewBox="0 0 18.5894 18.2316">
 <g>
  <rect height="18.2316" opacity="0" width="18.5894" x="0" y="0"/>
  <path d="M3.20351 18.2281L15.0246 18.2281C17.1404 18.2281 18.2281 17.1502 18.2281 15.0646L18.2281 3.17148C18.2281 1.08769 17.1404 0 15.0246 0L3.20351 0C1.0957 0 0 1.08769 0 3.17148L0 15.0646C0 17.1502 1.0957 18.2281 3.20351 18.2281ZM3.31444 16.3148C2.40643 16.3148 1.91327 15.8465 1.91327 14.8977L1.91327 3.34023C1.91327 2.39139 2.40643 1.91503 3.31444 1.91503L14.9137 1.91503C15.8137 1.91503 16.3148 2.39139 16.3148 3.34023L16.3148 14.8977C16.3148 15.8465 15.8137 16.3148 14.9137 16.3148Z" fill="white" fill-opacity="0.85"/>
  <path d="M4.4789 13.4053C4.9287 13.4053 5.29081 13.0494 5.29081 12.5916L5.29081 9.70624L8.32734 9.70624L8.32734 12.5916C8.32734 13.0494 8.69121 13.4053 9.13926 13.4053C9.5873 13.4053 9.94941 13.0494 9.94941 12.5916L9.94941 5.53866C9.94941 5.05858 9.55527 4.73651 9.13926 4.73651C8.73125 4.73651 8.32734 5.05858 8.32734 5.53866L8.32734 8.3414L5.29081 8.3414L5.29081 5.53866C5.29081 5.11464 4.96073 4.73651 4.4789 4.73651C4.05663 4.73651 3.67499 5.05058 3.67499 5.53866L3.67499 12.5916C3.67499 13.0156 3.99081 13.4053 4.4789 13.4053ZM11.5299 13.3148L14.1883 13.3148C14.5016 13.3148 14.7252 13.0877 14.7252 12.7807C14.7252 12.4799 14.5016 12.2402 14.1883 12.2402L12.4701 12.25L12.4484 12.493L13.657 11.2746C14.1035 10.8121 14.4676 10.3176 14.4676 9.70918C14.4676 8.80195 13.7512 8.20449 12.6859 8.20449C11.9125 8.20449 11.1943 8.6832 10.9947 9.34121C10.9619 9.42012 10.9486 9.5248 10.9486 9.61523C10.9486 9.92402 11.166 10.1414 11.4811 10.1414C11.7322 10.1414 11.899 10.0207 12.0295 9.78554C12.1352 9.49511 12.3475 9.26582 12.7109 9.26582C13.085 9.26582 13.3053 9.4666 13.3053 9.75801C13.3053 10.0449 13.0564 10.315 12.7687 10.6365L11.1967 12.2895C11.0436 12.4666 10.9682 12.6006 10.9682 12.7859C10.9682 13.109 11.1953 13.3148 11.5299 13.3148Z" fill="white" fill-opacity="0.85"/>
 </g>
</svg>
