<?xml version="1.0" encoding="UTF-8"?>
<!--Generator: Apple Native CoreSVG 341-->
<!DOCTYPE svg
PUBLIC "-//W3C//DTD SVG 1.1//EN"
       "http://www.w3.org/Graphics/SVG/1.1/DTD/svg11.dtd">
<svg version="1.1" xmlns="http://www.w3.org/2000/svg" xmlns:xlink="http://www.w3.org/1999/xlink" viewBox="0 0 20.5381 20.1848">
 <g>
  <rect height="20.1848" opacity="0" width="20.5381" x="0" y="0"/>
  <path d="M10.0875 20.175C15.6576 20.175 20.1767 15.6559 20.1767 10.0875C20.1767 4.51914 15.6576 0 10.0875 0C4.51914 0 0 4.51914 0 10.0875C0 15.6559 4.51914 20.175 10.0875 20.175ZM10.0875 18.1879C5.60839 18.1879 1.9871 14.5666 1.9871 10.0875C1.9871 5.60839 5.60839 1.9871 10.0875 1.9871C14.5666 1.9871 18.1897 5.60839 18.1897 10.0875C18.1897 14.5666 14.5666 18.1879 10.0875 18.1879Z" fill="white" fill-opacity="0.85"/>
  <path d="M5.43944 14.3818C5.88925 14.3818 6.25135 14.026 6.25135 13.5682L6.25135 10.6828L9.27988 10.6828L9.27988 13.5682C9.27988 14.026 9.64375 14.3818 10.0998 14.3818C10.5496 14.3818 10.9037 14.026 10.9037 13.5682L10.9037 6.51522C10.9037 6.03515 10.5158 5.71308 10.0998 5.71308C9.68555 5.71308 9.27988 6.03515 9.27988 6.51522L9.27988 9.31796L6.25135 9.31796L6.25135 6.51522C6.25135 6.0912 5.92128 5.71308 5.43944 5.71308C5.01718 5.71308 4.63554 6.02714 4.63554 6.51522L4.63554 13.5682C4.63554 13.9922 4.95136 14.3818 5.43944 14.3818ZM12.4904 14.2914L15.1488 14.2914C15.4621 14.2914 15.6857 14.0643 15.6857 13.7572C15.6857 13.4564 15.4621 13.2168 15.1488 13.2168L13.4307 13.2266L13.409 13.4695L14.6176 12.2512C15.0641 11.7887 15.4281 11.2941 15.4281 10.6857C15.4281 9.77851 14.7117 9.18105 13.6465 9.18105C12.873 9.18105 12.1549 9.65976 11.957 10.3178C11.9242 10.3967 11.9012 10.5014 11.9012 10.5918C11.9012 10.9006 12.1266 11.118 12.4416 11.118C12.6928 11.118 12.8516 10.9973 12.99 10.7621C13.0957 10.4717 13.308 10.2424 13.6715 10.2424C14.0455 10.2424 14.2658 10.4432 14.2658 10.7346C14.2658 11.0215 14.017 11.2916 13.7293 11.6131L12.1572 13.266C12.0059 13.4432 11.9287 13.5771 11.9287 13.7625C11.9287 14.0855 12.1559 14.2914 12.4904 14.2914Z" fill="white" fill-opacity="0.85"/>
 </g>
</svg>
