<?xml version="1.0" encoding="UTF-8"?>
<!--Generator: Apple Native CoreSVG 341-->
<!DOCTYPE svg
PUBLIC "-//W3C//DTD SVG 1.1//EN"
       "http://www.w3.org/Graphics/SVG/1.1/DTD/svg11.dtd">
<svg version="1.1" xmlns="http://www.w3.org/2000/svg" xmlns:xlink="http://www.w3.org/1999/xlink" viewBox="0 0 18.5894 18.2316">
 <g>
  <rect height="18.2316" opacity="0" width="18.5894" x="0" y="0"/>
  <path d="M18.2281 3.17148L18.2281 15.0646C18.2281 17.1502 17.1404 18.2281 15.0246 18.2281L3.20351 18.2281C1.0957 18.2281 0 17.1502 0 15.0646L0 3.17148C0 1.08769 1.0957 0 3.20351 0L15.0246 0C17.1404 0 18.2281 1.08769 18.2281 3.17148ZM8.30508 5.4039L8.30508 8.30507L5.17186 8.30507L5.17186 5.4039C5.17186 4.96308 4.8285 4.56191 4.31561 4.56191C3.8828 4.56191 3.48788 4.88925 3.48788 5.4039L3.48788 12.7281C3.48788 13.1672 3.81698 13.5799 4.31561 13.5799C4.79647 13.5799 5.17186 13.201 5.17186 12.7281L5.17186 9.73281L8.30508 9.73281L8.30508 12.7281C8.30508 13.201 8.68848 13.5799 9.16133 13.5799C9.63593 13.5799 10.0033 13.201 10.0033 12.7281L10.0033 5.4039C10.0033 4.89726 9.60214 4.56191 9.16133 4.56191C8.73027 4.56191 8.30508 4.89726 8.30508 5.4039ZM11.0832 9.34219C11.0486 9.43262 11.0336 9.53906 11.0336 9.63125C11.0336 9.95508 11.2643 10.184 11.5908 10.184C11.8553 10.184 12.0273 10.0615 12.1641 9.81308C12.2732 9.51113 12.5016 9.27382 12.8686 9.27382C13.2559 9.27382 13.4939 9.48261 13.4939 9.7873C13.4939 10.084 13.2256 10.3559 12.9264 10.6906L11.3047 12.4074C11.14 12.5916 11.0549 12.7354 11.0549 12.926C11.0549 13.2623 11.3016 13.4779 11.6414 13.4779L14.4088 13.4779C14.7336 13.4779 14.9687 13.2393 14.9687 12.9172C14.9687 12.6049 14.7336 12.3537 14.4088 12.3537L12.8641 12.3635L13.8545 11.3633C14.3258 10.8777 14.7094 10.3682 14.7094 9.73672C14.7094 8.79316 13.9584 8.16914 12.8471 8.16914C12.0373 8.16914 11.2926 8.66289 11.0832 9.34219Z" fill="white" fill-opacity="0.85"/>
 </g>
</svg>
