<?xml version="1.0" encoding="UTF-8"?>
<!--Generator: Apple Native CoreSVG 341-->
<!DOCTYPE svg
PUBLIC "-//W3C//DTD SVG 1.1//EN"
       "http://www.w3.org/Graphics/SVG/1.1/DTD/svg11.dtd">
<svg version="1.1" xmlns="http://www.w3.org/2000/svg" xmlns:xlink="http://www.w3.org/1999/xlink" viewBox="0 0 20.5381 20.1848">
 <g>
  <rect height="20.1848" opacity="0" width="20.5381" x="0" y="0"/>
  <path d="M20.1767 10.0875C20.1767 15.6478 15.6576 20.175 10.0875 20.175C4.52715 20.175 0 15.6478 0 10.0875C0 4.51914 4.52715 0 10.0875 0C15.6576 0 20.1767 4.51914 20.1767 10.0875ZM9.08008 6.41698L9.08008 13.6094C9.08008 14.2889 9.4291 14.7418 10.0795 14.7418C10.7299 14.7418 11.0967 14.3111 11.0967 13.6094L11.0967 6.41698C11.0967 5.71523 10.7299 5.28632 10.0795 5.28632C9.4291 5.28632 9.08008 5.73925 9.08008 6.41698Z" fill="white" fill-opacity="0.85"/>
 </g>
</svg>
