<?xml version="1.0" encoding="UTF-8"?>
<!--Generator: Apple Native CoreSVG 341-->
<!DOCTYPE svg
PUBLIC "-//W3C//DTD SVG 1.1//EN"
       "http://www.w3.org/Graphics/SVG/1.1/DTD/svg11.dtd">
<svg version="1.1" xmlns="http://www.w3.org/2000/svg" xmlns:xlink="http://www.w3.org/1999/xlink" viewBox="0 0 23.6391 17.2016">
 <g>
  <rect height="17.2016" opacity="0" width="23.6391" x="0" y="0"/>
  <path d="M9.87524 17.1838L17.1643 17.1838C17.6758 17.1838 18.0916 16.7699 18.0916 16.2619C18.0916 15.7469 17.6776 15.332 17.1643 15.332L9.87524 15.332C9.35395 15.332 8.95591 15.7521 8.95591 16.2619C8.95591 16.7664 9.35747 17.1838 9.87524 17.1838Z" fill="white" fill-opacity="0.85"/>
  <path d="M9.87524 12.0764L22.3584 12.0764C22.87 12.0764 23.2778 11.6625 23.2778 11.1545C23.2778 10.6314 22.8717 10.2246 22.3584 10.2246L9.87524 10.2246C9.35395 10.2246 8.95591 10.635 8.95591 11.1545C8.95591 11.6572 9.35747 12.0764 9.87524 12.0764Z" fill="white" fill-opacity="0.85"/>
  <path d="M9.87524 6.96718L22.3584 6.96718C22.87 6.96718 23.2778 6.5453 23.2778 6.0373C23.2778 5.52402 22.8717 5.11543 22.3584 5.11543L9.87524 5.11543C9.35395 5.11543 8.95591 5.52754 8.95591 6.0373C8.95591 6.54179 9.35747 6.96718 9.87524 6.96718Z" fill="white" fill-opacity="0.85"/>
  <path d="M9.87524 1.85175L22.3584 1.85175C22.87 1.85175 23.2778 1.43788 23.2778 0.929877C23.2778 0.414841 22.8717 0 22.3584 0L9.87524 0C9.35395 0 8.95591 0.420114 8.95591 0.929877C8.95591 1.43437 9.35747 1.85175 9.87524 1.85175Z" fill="white" fill-opacity="0.85"/>
  <path d="M1.60357 11.7088L4.98716 9.45038C5.59321 9.03867 5.57192 8.16992 4.98716 7.76347L1.60357 5.4625C0.819978 4.93184-0.00795025 5.22734 5.7631e-05 6.16621L5.7631e-05 11.0148C-0.00795025 11.9244 0.851033 12.2004 1.60357 11.7088Z" fill="white" fill-opacity="0.85"/>
 </g>
</svg>
