<?xml version="1.0" encoding="UTF-8"?>
<!--Generator: Apple Native CoreSVG 341-->
<!DOCTYPE svg
PUBLIC "-//W3C//DTD SVG 1.1//EN"
       "http://www.w3.org/Graphics/SVG/1.1/DTD/svg11.dtd">
<svg version="1.1" xmlns="http://www.w3.org/2000/svg" xmlns:xlink="http://www.w3.org/1999/xlink" viewBox="0 0 22.7515 21.4965">
 <g>
  <rect height="21.4965" opacity="0" width="22.7515" x="0" y="0"/>
  <path d="M12.481 0.359374L20.9545 5.24941C21.351 5.47734 21.5363 5.7664 21.5363 6.09277C21.5363 6.53886 21.1851 6.98046 20.5865 6.98046L19.7447 6.98046L19.7447 18.2742L20.3117 18.2742C20.7437 18.2742 20.9947 18.5297 20.9947 18.9572L20.9947 19.7158L21.499 19.7158C21.9797 19.7158 22.3902 20.1148 22.3902 20.5972C22.3902 21.0849 21.9797 21.4867 21.499 21.4867L0.881441 21.4867C0.399022 21.4867 0 21.0832 0 20.5972C0 20.1148 0.399022 19.7158 0.881441 19.7158L1.44999 19.7158L1.44999 18.9572C1.44999 18.5297 1.70898 18.2742 2.14101 18.2742L2.69999 18.2742L2.69999 6.98046L1.85995 6.98046C1.25957 6.98046 0.908396 6.53886 0.908396 6.09277C0.908396 5.7664 1.08574 5.47734 1.49023 5.24941L9.96366 0.359374C10.3523 0.125976 10.7969 0 11.2183 0C11.6398 0 12.0764 0.125976 12.481 0.359374ZM8.3951 7.04276C8.08925 7.04276 7.90585 7.2449 7.90585 7.55174L7.90585 7.61131C7.90585 7.92615 8.08925 8.13006 8.3951 8.13006L9.97597 8.13006C10.9334 8.13006 11.7131 8.50408 11.8578 9.44646L8.27147 9.44646C8.0912 9.44646 7.9455 9.58768 7.9455 9.7742C7.9455 9.9492 8.0912 10.0939 8.27147 10.0939L11.8596 10.0939C11.7246 11.0639 10.9662 11.4023 9.97772 11.4023L8.62421 11.4023C8.21346 11.4023 7.92987 11.6482 7.92987 12.0383L7.92987 12.0781C7.92987 12.3992 8.07518 12.5898 8.33417 12.8213L11.5986 15.9078C11.784 16.0869 11.9471 16.2332 12.2406 16.2332C12.5846 16.2332 12.8812 15.9416 12.8812 15.6031C12.8812 15.3902 12.766 15.2166 12.6055 15.0641L9.86756 12.4969L10.3377 12.4916C11.9365 12.4599 13.0894 11.5613 13.2849 10.0939L14.1383 10.0939C14.3265 10.0939 14.466 9.95447 14.466 9.7742C14.466 9.58768 14.3265 9.44646 14.1383 9.44646L13.301 9.44646C13.2459 8.75701 12.9619 8.11717 12.4092 7.68846L14.1383 7.68846C14.3265 7.68846 14.466 7.541 14.466 7.37049C14.466 7.17596 14.3265 7.04276 14.1383 7.04276Z" fill="white" fill-opacity="0.85"/>
 </g>
</svg>
