<?xml version="1.0" encoding="UTF-8"?>
<!--Generator: Apple Native CoreSVG 341-->
<!DOCTYPE svg
PUBLIC "-//W3C//DTD SVG 1.1//EN"
       "http://www.w3.org/Graphics/SVG/1.1/DTD/svg11.dtd">
<svg version="1.1" xmlns="http://www.w3.org/2000/svg" xmlns:xlink="http://www.w3.org/1999/xlink" viewBox="0 0 24.2049 19.8808">
 <g>
  <rect height="19.8808" opacity="0" width="24.2049" x="0" y="0"/>
  <path d="M23.8435 11.9178C23.8435 9.01855 22.8031 6.3457 21.0623 4.27031C20.8547 4.02011 20.498 4.02011 20.2621 4.2623L17.9578 6.56484C17.7547 6.76796 17.7467 7.05097 17.9232 7.27363C18.9185 8.56269 19.517 10.1768 19.517 11.9178C19.517 13.6826 18.9115 15.3107 17.8488 16.6611C17.6945 16.8535 17.7025 17.0982 17.8719 17.2756L20.2242 19.6279C20.4646 19.8683 20.8133 19.8683 21.0359 19.6066C22.7908 17.5277 23.8435 14.8443 23.8435 11.9178Z" fill="white" fill-opacity="0.85"/>
  <path d="M11.9178 4.32656C13.6783 4.32656 15.2941 4.933 16.5912 5.93183C16.8041 6.09863 17.0791 6.0791 17.2787 5.87773L19.5812 3.57343C19.8252 3.33125 19.8154 2.9791 19.5582 2.76797C17.4926 1.04043 14.8232 0 11.9178 0C9.02031 0 6.35097 1.04043 4.28711 2.76797C4.02988 2.9791 4.01836 3.33125 4.2623 3.57343L6.56484 5.87773C6.76445 6.0791 7.05097 6.09863 7.28163 5.92207C8.56894 4.933 10.1768 4.32656 11.9178 4.32656Z" fill="white" fill-opacity="0.85"/>
  <path d="M0 11.9178C0 14.8461 1.05625 17.5348 2.81465 19.6137C3.02402 19.8719 3.3789 19.8683 3.61308 19.6279L5.96367 17.2756C6.133 17.0982 6.15077 16.8535 5.99472 16.6611C4.93378 15.3107 4.32656 13.6826 4.32656 11.9178C4.32656 10.1768 4.91699 8.56269 5.92031 7.27363C6.08886 7.05097 6.08886 6.76796 5.88574 6.56484L3.58144 4.2623C3.33926 4.02011 2.98711 4.02187 2.77422 4.2791C1.03867 6.35097 0 9.02031 0 11.9178Z" fill="white" fill-opacity="0.85"/>
  <path d="M11.0531 12.881C12.5828 12.8529 13.7012 11.9826 13.8887 10.5711L14.7101 10.5711C14.8887 10.5711 15.0264 10.4316 15.0264 10.2629C15.0264 10.0941 14.8887 9.95644 14.7101 9.95644L13.9064 9.95644C13.8514 9.28378 13.5789 8.67226 13.043 8.26484L14.7101 8.26484C14.8887 8.26484 15.0264 8.12714 15.0264 7.95663C15.0264 7.77363 14.8887 7.64218 14.7101 7.64218L9.18749 7.64218C8.90468 7.64218 8.71679 7.8328 8.71679 8.13261L8.71679 8.19218C8.71679 8.49374 8.90468 8.68436 9.18749 8.68436L10.7205 8.68436C11.6434 8.68436 12.3902 9.04687 12.5332 9.95644L9.0789 9.95644C8.90214 9.95644 8.76269 10.0941 8.76269 10.2629C8.76269 10.4299 8.90214 10.5711 9.0789 10.5711L12.5287 10.5711C12.3937 11.5162 11.6584 11.8432 10.7125 11.8432L9.41484 11.8432C9.01738 11.8432 8.74257 12.0775 8.74257 12.4428L8.74257 12.4906C8.74257 12.7887 8.89238 12.9758 9.12831 13.1939L12.2748 16.1705C12.4566 16.3443 12.618 16.4791 12.8885 16.4791C13.2236 16.4791 13.4955 16.2043 13.4955 15.8746C13.4955 15.6715 13.3935 15.5111 13.2428 15.3621L10.5963 12.8846Z" fill="white" fill-opacity="0.85"/>
 </g>
</svg>
