<?xml version="1.0" encoding="UTF-8"?>
<!--Generator: Apple Native CoreSVG 341-->
<!DOCTYPE svg
PUBLIC "-//W3C//DTD SVG 1.1//EN"
       "http://www.w3.org/Graphics/SVG/1.1/DTD/svg11.dtd">
<svg version="1.1" xmlns="http://www.w3.org/2000/svg" xmlns:xlink="http://www.w3.org/1999/xlink" viewBox="0 0 20.5381 20.1848">
 <g>
  <rect height="20.1848" opacity="0" width="20.5381" x="0" y="0"/>
  <path d="M10.0875 20.175C15.6576 20.175 20.1767 15.6559 20.1767 10.0875C20.1767 4.51914 15.6576 0 10.0875 0C4.51914 0 0 4.51914 0 10.0875C0 15.6559 4.51914 20.175 10.0875 20.175ZM10.0875 18.1879C5.60839 18.1879 1.9871 14.5666 1.9871 10.0875C1.9871 5.60839 5.60839 1.9871 10.0875 1.9871C14.5666 1.9871 18.1897 5.60839 18.1897 10.0875C18.1897 14.5666 14.5666 18.1879 10.0875 18.1879Z" fill="white" fill-opacity="0.85"/>
  <path d="M3.55116 10.0857C3.55116 11.9482 4.73007 13.1893 6.48691 13.1893C7.41113 13.1893 8.19413 12.8021 9.04023 11.9934L10.091 10.9879L11.148 11.9934C12.0102 12.8182 12.7869 13.1893 13.6934 13.1893C15.4582 13.1893 16.6371 11.9482 16.6371 10.0857C16.6371 8.22148 15.4582 6.97246 13.6934 6.97246C12.7771 6.97246 12.0021 7.34355 11.148 8.16836L10.091 9.18183L9.04023 8.16836C8.20214 7.36757 7.41913 6.97246 6.48691 6.97246C4.73007 6.97246 3.55116 8.22148 3.55116 10.0857ZM4.86757 10.0857C4.86757 8.99238 5.50097 8.28261 6.48691 8.28261C7.01542 8.28261 7.48613 8.52597 8.12031 9.12284L9.15429 10.0857L8.12031 11.0486C7.50214 11.6295 7.02343 11.8791 6.48691 11.8791C5.50097 11.8791 4.86757 11.1791 4.86757 10.0857ZM11.034 10.0857L12.06 9.12284C12.6941 8.52597 13.1728 8.28261 13.6934 8.28261C14.6793 8.28261 15.3225 8.99238 15.3225 10.0857C15.3225 11.1791 14.6793 11.8791 13.6934 11.8791C13.1568 11.8791 12.6781 11.6295 12.06 11.0486Z" fill="white" fill-opacity="0.85"/>
 </g>
</svg>
