<?xml version="1.0" encoding="UTF-8"?>
<!--Generator: Apple Native CoreSVG 341-->
<!DOCTYPE svg
PUBLIC "-//W3C//DTD SVG 1.1//EN"
       "http://www.w3.org/Graphics/SVG/1.1/DTD/svg11.dtd">
<svg version="1.1" xmlns="http://www.w3.org/2000/svg" xmlns:xlink="http://www.w3.org/1999/xlink" viewBox="0 0 20.5381 20.1848">
 <g>
  <rect height="20.1848" opacity="0" width="20.5381" x="0" y="0"/>
  <path d="M20.1767 10.0875C20.1767 15.6478 15.6576 20.175 10.0875 20.175C4.52715 20.175 0 15.6478 0 10.0875C0 4.51914 4.52715 0 10.0875 0C15.6576 0 20.1767 4.51914 20.1767 10.0875ZM11.1924 8.09394L10.099 9.14375L9.01366 8.09394C8.13925 7.25859 7.31992 6.84843 6.35136 6.84843C4.53164 6.84843 3.30312 8.15058 3.30312 10.0875C3.30312 12.0164 4.53164 13.3168 6.35136 13.3168C7.31191 13.3168 8.13124 12.9146 9.01366 12.0713L10.099 11.0312L11.1924 12.0713C12.0908 12.9307 12.9004 13.3168 13.8449 13.3168C15.6727 13.3168 16.9029 12.0164 16.9029 10.0875C16.9029 8.15058 15.6727 6.84843 13.8449 6.84843C12.8924 6.84843 12.0811 7.23457 11.1924 8.09394ZM8.04414 9.09003L9.11894 10.0875L8.04414 11.085C7.40468 11.6906 6.91093 11.95 6.35136 11.95C5.33085 11.95 4.67616 11.2252 4.67616 10.0875C4.67616 8.94804 5.33085 8.21698 6.35136 8.21698C6.90292 8.21698 7.38867 8.46835 8.04414 9.09003ZM15.5281 10.0875C15.5281 11.2252 14.8654 11.95 13.8449 11.95C13.2853 11.95 12.7934 11.6906 12.1521 11.085L11.0853 10.0875L12.1521 9.09003C12.8094 8.46835 13.3014 8.21698 13.8449 8.21698C14.8654 8.21698 15.5281 8.94804 15.5281 10.0875Z" fill="white" fill-opacity="0.85"/>
 </g>
</svg>
