<?xml version="1.0" encoding="UTF-8"?>
<!--Generator: Apple Native CoreSVG 341-->
<!DOCTYPE svg
PUBLIC "-//W3C//DTD SVG 1.1//EN"
       "http://www.w3.org/Graphics/SVG/1.1/DTD/svg11.dtd">
<svg version="1.1" xmlns="http://www.w3.org/2000/svg" xmlns:xlink="http://www.w3.org/1999/xlink" viewBox="0 0 26.6148 12.1812">
 <g>
  <rect height="12.1812" opacity="0" width="26.6148" x="0" y="0"/>
  <path d="M0 6.08573C0 9.7703 2.3416 12.1715 5.78339 12.1715C7.61776 12.1715 9.15994 11.3967 10.8117 9.79822L13.1316 7.56716L15.4418 9.79822C17.1015 11.3967 18.6437 12.1715 20.4701 12.1715C23.9119 12.1715 26.2535 9.7703 26.2535 6.08573C26.2535 2.40117 23.9119 0 20.4701 0C18.6437 0 17.1015 0.773046 15.4418 2.37324L13.1316 4.6043L10.8117 2.37324C9.15994 0.773046 7.61776 0 5.78339 0C2.3416 0 0 2.40117 0 6.08573ZM2.17537 6.08573C2.17537 3.70467 3.64159 2.17537 5.78339 2.17537C6.98768 2.17537 8.0621 2.76151 9.28847 3.91502L11.5978 6.08573L9.28046 8.25468C8.05409 9.40195 6.98768 9.99609 5.78339 9.99609C3.64159 9.99609 2.17537 8.46679 2.17537 6.08573ZM14.6556 6.08573L16.965 3.91502C18.1914 2.76151 19.2658 2.17537 20.4701 2.17537C22.6199 2.17537 24.0781 3.70467 24.0781 6.08573C24.0781 8.46679 22.6199 9.99609 20.4701 9.99609C19.2658 9.99609 18.1994 9.40195 16.973 8.25468Z" fill="white" fill-opacity="0.85"/>
 </g>
</svg>
