<?xml version="1.0" encoding="UTF-8"?>
<!--Generator: Apple Native CoreSVG 341-->
<!DOCTYPE svg
PUBLIC "-//W3C//DTD SVG 1.1//EN"
       "http://www.w3.org/Graphics/SVG/1.1/DTD/svg11.dtd">
<svg version="1.1" xmlns="http://www.w3.org/2000/svg" xmlns:xlink="http://www.w3.org/1999/xlink" viewBox="0 0 18.5894 18.2316">
 <g>
  <rect height="18.2316" opacity="0" width="18.5894" x="0" y="0"/>
  <path d="M18.2281 3.17148L18.2281 15.0646C18.2281 17.1502 17.1404 18.2281 15.0246 18.2281L3.20351 18.2281C1.0957 18.2281 0 17.1502 0 15.0646L0 3.17148C0 1.08769 1.0957 0 3.20351 0L15.0246 0C17.1404 0 18.2281 1.08769 18.2281 3.17148ZM7.52539 7.33769C7.06953 7.33769 6.71211 7.69159 6.71211 8.12616C6.71211 8.59354 7.06953 8.9244 7.52539 8.9244L8.55215 8.9244L8.55215 13.1486L7.34882 13.1486C6.88672 13.1486 6.53105 13.5025 6.53105 13.9354C6.53105 14.4045 6.88672 14.7353 7.34882 14.7353L11.4617 14.7353C11.9238 14.7353 12.2812 14.4045 12.2812 13.9354C12.2812 13.5025 11.9238 13.1486 11.4617 13.1486L10.3375 13.1486L10.3375 8.35761C10.3375 7.7457 10.0342 7.33769 9.45507 7.33769ZM7.68457 4.37226C7.68457 5.14784 8.30917 5.77245 9.07851 5.77245C9.84784 5.77245 10.4609 5.14784 10.4609 4.37226C10.4609 3.58613 9.84784 2.96855 9.07851 2.96855C8.30917 2.96855 7.68457 3.58613 7.68457 4.37226Z" fill="white" fill-opacity="0.85"/>
 </g>
</svg>
