<?xml version="1.0" encoding="UTF-8"?>
<!--Generator: Apple Native CoreSVG 341-->
<!DOCTYPE svg
PUBLIC "-//W3C//DTD SVG 1.1//EN"
       "http://www.w3.org/Graphics/SVG/1.1/DTD/svg11.dtd">
<svg version="1.1" xmlns="http://www.w3.org/2000/svg" xmlns:xlink="http://www.w3.org/1999/xlink" viewBox="0 0 17.107 21.2402">
 <g>
  <rect height="21.2402" opacity="0" width="17.107" x="0" y="0"/>
  <path d="M4.63866 13.7572C4.26327 13.7572 3.97929 13.4635 3.97929 13.0996C3.97929 12.7357 4.26327 12.4615 4.63866 12.4615L12.123 12.4615C12.4949 12.4615 12.7691 12.7357 12.7691 13.0996C12.7691 13.4635 12.4949 13.7572 12.123 13.7572ZM4.63866 16.7432C4.26327 16.7432 3.97929 16.4689 3.97929 16.1148C3.97929 15.7475 4.26327 15.4555 4.63866 15.4555L8.25038 15.4555C8.63026 15.4555 8.89647 15.7475 8.89647 16.1148C8.89647 16.4689 8.63026 16.7432 8.25038 16.7432ZM8.38886 10.5531C6.44784 10.5531 4.85136 8.95488 4.85136 7.00585C4.85136 5.06835 6.44784 3.47187 8.38886 3.47187C10.3316 3.47187 11.9201 5.06835 11.9201 7.00585C11.9201 8.9371 10.3059 10.5531 8.38886 10.5531ZM7.50546 9.15058L9.32304 9.15058C9.52617 9.15058 9.65742 8.99882 9.65742 8.7957C9.65742 8.59609 9.52617 8.44882 9.32304 8.44882L8.8164 8.44882L8.8164 6.77636C8.8164 6.55742 8.6789 6.39687 8.46523 6.39687L7.50976 6.39687C7.31191 6.39687 7.17538 6.54589 7.17538 6.74999C7.17538 6.97089 7.31191 7.08886 7.50976 7.08886L8.10781 7.08886L8.10781 8.44882L7.50546 8.44882C7.30234 8.44882 7.16484 8.58808 7.16484 8.7957C7.16484 9.00683 7.30234 9.15058 7.50546 9.15058ZM8.37109 5.77148C8.71015 5.77148 8.97636 5.51503 8.97636 5.19199C8.97636 4.84941 8.71015 4.5832 8.37109 4.5832C8.03398 4.5832 7.76777 4.84941 7.76777 5.19199C7.76777 5.51503 8.03398 5.77148 8.37109 5.77148ZM0 17.9406C0 20.0484 1.07968 21.1361 3.17148 21.1361L13.5742 21.1361C15.6678 21.1361 16.7457 20.0484 16.7457 17.9406L16.7457 3.20351C16.7457 1.10371 15.6678 0 13.5742 0L3.17148 0C1.07968 0 0 1.10371 0 3.20351Z" fill="white" fill-opacity="0.85"/>
 </g>
</svg>
