<?xml version="1.0" encoding="UTF-8"?>
<!--Generator: Apple Native CoreSVG 341-->
<!DOCTYPE svg
PUBLIC "-//W3C//DTD SVG 1.1//EN"
       "http://www.w3.org/Graphics/SVG/1.1/DTD/svg11.dtd">
<svg version="1.1" xmlns="http://www.w3.org/2000/svg" xmlns:xlink="http://www.w3.org/1999/xlink" viewBox="0 0 21.0023 18.7605">
 <g>
  <rect height="18.7605" opacity="0" width="21.0023" x="0" y="0"/>
  <path d="M12.6943 1.39238L20.2531 14.5709C20.506 15.0164 20.641 15.509 20.641 15.982C20.641 17.5166 19.5736 18.741 17.8695 18.741L2.77324 18.741C1.06738 18.741 0 17.5166 0 15.982C0 15.509 0.120703 15.0244 0.38789 14.5727L7.94668 1.39238C8.46582 0.468554 9.38515 0 10.3223 0C11.2576 0 12.1637 0.465038 12.6943 1.39238ZM8.87539 8.76503C8.46211 8.76503 8.13926 9.08612 8.13926 9.47636C8.13926 9.8994 8.46211 10.1894 8.87539 10.1894L9.79824 10.1894L9.79824 13.9996L8.71035 13.9996C8.29883 13.9996 7.97598 14.3127 7.97598 14.7029C7.97598 15.1277 8.29883 15.424 8.71035 15.424L12.4193 15.424C12.8291 15.424 13.1519 15.1277 13.1519 14.7029C13.1519 14.3127 12.8291 13.9996 12.4193 13.9996L11.4018 13.9996L11.4018 9.68475C11.4018 9.1287 11.1295 8.76503 10.6143 8.76503ZM9.0168 6.09882C9.0168 6.79276 9.57929 7.35526 10.267 7.35526C10.9644 7.35526 11.5154 6.79276 11.5154 6.09882C11.5154 5.38632 10.9644 4.83085 10.267 4.83085C9.57929 4.83085 9.0168 5.38632 9.0168 6.09882Z" fill="white" fill-opacity="0.85"/>
 </g>
</svg>
