<?xml version="1.0" encoding="UTF-8"?>
<!--Generator: Apple Native CoreSVG 341-->
<!DOCTYPE svg
PUBLIC "-//W3C//DTD SVG 1.1//EN"
       "http://www.w3.org/Graphics/SVG/1.1/DTD/svg11.dtd">
<svg version="1.1" xmlns="http://www.w3.org/2000/svg" xmlns:xlink="http://www.w3.org/1999/xlink" viewBox="0 0 28.9666 15.3848">
 <g>
  <rect height="15.3848" opacity="0" width="28.9666" x="0" y="0"/>
  <path d="M14.3035 13.6687C16.1922 13.6687 18.4189 14.2723 20.0731 15.115C20.5715 15.375 21.1258 15.2826 21.4609 14.8508L28.1377 6.35409C28.8482 5.4457 28.7303 4.46562 27.8334 3.75859C25.0631 1.61504 19.7928 0 14.3035 0C8.8125 0 3.54219 1.61504 0.763872 3.75859C-0.133 4.46562-0.250968 5.4457 0.467584 6.35409L7.1461 14.8508C7.48125 15.2826 8.02754 15.375 8.52598 15.115C10.1783 14.2723 12.4148 13.6687 14.3035 13.6687ZM14.3035 11.817C12.5217 11.817 10.4506 12.2857 8.51289 13.085C8.28633 13.1738 8.17715 13.1543 7.99941 12.9312L2.31308 5.69628C2.14511 5.47675 2.17441 5.2582 2.41171 5.09999C5.69551 3.03358 9.94063 1.85175 14.3035 1.85175C18.6647 1.85175 22.9098 3.03358 26.1953 5.09999C26.4344 5.2582 26.4602 5.47324 26.2842 5.69628L20.6076 12.9295C20.4281 13.1543 20.3207 13.1756 20.0924 13.085C18.1547 12.2857 16.0756 11.817 14.3035 11.817Z" fill="white" fill-opacity="0.85"/>
  <path d="M12.9316 10.7428L15.685 10.7428C16.0398 10.7428 16.3326 10.4668 16.3326 10.0969C16.3326 9.75 16.0479 9.475 15.685 9.475L15.0307 9.475L15.0307 6.36073C15.0307 5.91366 14.7885 5.58632 14.3432 5.58632L13.0541 5.58632C12.6957 5.58632 12.4029 5.85507 12.4029 6.20819C12.4029 6.58788 12.6957 6.85585 13.0541 6.85585L13.6254 6.85585L13.6254 9.475L12.9316 9.475C12.5768 9.475 12.284 9.74199 12.284 10.0969C12.284 10.4748 12.5768 10.7428 12.9316 10.7428ZM14.09 4.75272C14.666 4.75272 15.123 4.27616 15.123 3.71347C15.123 3.13749 14.658 2.67069 14.09 2.67069C13.5193 2.67069 13.0428 3.13749 13.0428 3.71347C13.0428 4.27616 13.5193 4.75272 14.09 4.75272Z" fill="white" fill-opacity="0.85"/>
 </g>
</svg>
