<?xml version="1.0" encoding="UTF-8"?>
<!--Generator: Apple Native CoreSVG 341-->
<!DOCTYPE svg
PUBLIC "-//W3C//DTD SVG 1.1//EN"
       "http://www.w3.org/Graphics/SVG/1.1/DTD/svg11.dtd">
<svg version="1.1" xmlns="http://www.w3.org/2000/svg" xmlns:xlink="http://www.w3.org/1999/xlink" viewBox="0 0 18.5894 18.2316">
 <g>
  <rect height="18.2316" opacity="0" width="18.5894" x="0" y="0"/>
  <path d="M3.20351 18.2281L15.0246 18.2281C17.1404 18.2281 18.2281 17.1502 18.2281 15.0646L18.2281 3.17148C18.2281 1.08769 17.1404 0 15.0246 0L3.20351 0C1.0957 0 0 1.08769 0 3.17148L0 15.0646C0 17.1502 1.0957 18.2281 3.20351 18.2281ZM3.31444 16.3148C2.40643 16.3148 1.91327 15.8465 1.91327 14.8977L1.91327 3.34023C1.91327 2.39139 2.40643 1.91503 3.31444 1.91503L14.9137 1.91503C15.8137 1.91503 16.3148 2.39139 16.3148 3.34023L16.3148 14.8977C16.3148 15.8465 15.8137 16.3148 14.9137 16.3148Z" fill="white" fill-opacity="0.85"/>
  <path d="M7.41972 14.4848L11.3504 14.4848C11.7824 14.4848 12.1195 14.1707 12.1195 13.7334C12.1195 13.3209 11.7824 12.9936 11.3504 12.9936L10.2607 12.9936L10.2607 8.37968C10.2607 7.80312 9.97421 7.42167 9.43046 7.42167L7.59101 7.42167C7.15722 7.42167 6.81836 7.75077 6.81836 8.16327C6.81836 8.60057 7.15722 8.91464 7.59101 8.91464L8.57793 8.91464L8.57793 12.9936L7.41972 12.9936C6.98769 12.9936 6.64883 13.3209 6.64883 13.7334C6.64883 14.1707 6.98769 14.4848 7.41972 14.4848ZM9.06542 5.91132C9.80292 5.91132 10.3842 5.3203 10.3842 4.58808C10.3842 3.84706 9.80292 3.25956 9.06542 3.25956C8.34121 3.25956 7.74843 3.84706 7.74843 4.58808C7.74843 5.3203 8.34121 5.91132 9.06542 5.91132Z" fill="white" fill-opacity="0.85"/>
 </g>
</svg>
