<?xml version="1.0" encoding="UTF-8"?>
<!--Generator: Apple Native CoreSVG 341-->
<!DOCTYPE svg
PUBLIC "-//W3C//DTD SVG 1.1//EN"
       "http://www.w3.org/Graphics/SVG/1.1/DTD/svg11.dtd">
<svg version="1.1" xmlns="http://www.w3.org/2000/svg" xmlns:xlink="http://www.w3.org/1999/xlink" viewBox="0 0 17.107 21.1441">
 <g>
  <rect height="21.1441" opacity="0" width="17.107" x="0" y="0"/>
  <path d="M4.77694 13.5709L11.983 13.5709C12.3434 13.5709 12.6061 13.2904 12.6061 12.9398C12.6061 12.5973 12.3434 12.3346 11.983 12.3346L4.77694 12.3346C4.41483 12.3346 4.14413 12.5973 4.14413 12.9398C4.14413 13.2904 4.41483 13.5709 4.77694 13.5709ZM4.77694 16.4496L8.25487 16.4496C8.61522 16.4496 8.87616 16.1869 8.87616 15.8461C8.87616 15.4938 8.61522 15.2133 8.25487 15.2133L4.77694 15.2133C4.41483 15.2133 4.14413 15.4938 4.14413 15.8461C4.14413 16.1869 4.41483 16.4496 4.77694 16.4496ZM8.38886 10.498C10.235 10.498 11.7881 8.94316 11.7881 7.08281C11.7881 5.2162 10.259 3.67909 8.38886 3.67909C6.51874 3.67909 4.98163 5.2162 4.98163 7.08281C4.98163 8.95917 6.51874 10.498 8.38886 10.498ZM7.54003 9.14159C7.34218 9.14159 7.21269 9.00937 7.21269 8.79999C7.21269 8.60566 7.34218 8.46816 7.54003 8.46816L8.12285 8.46816L8.12285 7.1623L7.54433 7.1623C7.34824 7.1623 7.22499 7.04609 7.22499 6.83671C7.22499 6.63437 7.34824 6.49687 7.54433 6.49687L8.46523 6.49687C8.66562 6.49687 8.7996 6.64765 8.7996 6.86132L8.7996 8.46816L9.28847 8.46816C9.47831 8.46816 9.60781 8.61367 9.60781 8.79999C9.60781 9.00136 9.47831 9.14159 9.28847 9.14159ZM8.37109 5.89452C8.04902 5.89452 7.79433 5.64159 7.79433 5.33007C7.79433 5.01054 8.04902 4.74784 8.37109 4.74784C8.69863 4.74784 8.95156 5.01054 8.95156 5.33007C8.95156 5.64159 8.69863 5.89452 8.37109 5.89452ZM0 17.9406C0 20.0502 1.07968 21.1379 3.17148 21.1379L13.5742 21.1379C15.6678 21.1379 16.7457 20.0502 16.7457 17.9406L16.7457 3.20527C16.7457 1.10371 15.6678 0 13.5742 0L3.17148 0C1.07968 0 0 1.10371 0 3.20527ZM1.91327 17.8217L1.91327 3.32421C1.91327 2.41444 2.38163 1.91327 3.33222 1.91327L13.4152 1.91327C14.3641 1.91327 14.8324 2.41444 14.8324 3.32421L14.8324 17.8217C14.8324 18.7314 14.3641 19.2246 13.4152 19.2246L3.33222 19.2246C2.38163 19.2246 1.91327 18.7314 1.91327 17.8217Z" fill="white" fill-opacity="0.85"/>
 </g>
</svg>
