<?xml version="1.0" encoding="UTF-8"?>
<!--Generator: Apple Native CoreSVG 341-->
<!DOCTYPE svg
PUBLIC "-//W3C//DTD SVG 1.1//EN"
       "http://www.w3.org/Graphics/SVG/1.1/DTD/svg11.dtd">
<svg version="1.1" xmlns="http://www.w3.org/2000/svg" xmlns:xlink="http://www.w3.org/1999/xlink" viewBox="0 0 21.0023 18.7605">
 <g>
  <rect height="18.7605" opacity="0" width="21.0023" x="0" y="0"/>
  <path d="M2.77324 18.741L17.8695 18.741C19.5736 18.741 20.641 17.5166 20.641 15.982C20.641 15.509 20.506 15.0164 20.2531 14.5709L12.6943 1.39238C12.1637 0.465038 11.2576 0 10.3223 0C9.38515 0 8.46582 0.468554 7.94668 1.39238L0.38789 14.5727C0.120703 15.0244 0 15.509 0 15.982C0 17.5166 1.06738 18.741 2.77324 18.741ZM2.93944 16.902C2.3244 16.902 1.95291 16.4256 1.95291 15.8861C1.95291 15.7217 1.9867 15.5084 2.08182 15.3244L9.47441 2.40526C9.65663 2.08084 9.99609 1.94217 10.3223 1.94217C10.6467 1.94217 10.9746 2.0826 11.1586 2.40702L18.5529 15.3377C18.6481 15.5199 18.6899 15.7234 18.6899 15.8861C18.6899 16.4256 18.3024 16.902 17.6953 16.902Z" fill="white" fill-opacity="0.85"/>
  <path d="M8.79707 15.2L12.3326 15.2C12.7221 15.2 13.0281 14.9187 13.0281 14.524C13.0281 14.1541 12.7221 13.8578 12.3326 13.8578L11.3496 13.8578L11.3496 9.70682C11.3496 9.18437 11.0941 8.84374 10.6027 8.84374L8.94882 8.84374C8.55761 8.84374 8.25156 9.14179 8.25156 9.51171C8.25156 9.90643 8.55761 10.1797 8.94882 10.1797L9.83535 10.1797L9.83535 13.8578L8.79707 13.8578C8.40761 13.8578 8.10156 14.1541 8.10156 14.524C8.10156 14.9187 8.40761 15.2 8.79707 15.2ZM10.2768 7.48085C10.9406 7.48085 11.4615 6.95018 11.4615 6.29608C11.4615 5.62694 10.9406 5.0998 10.2768 5.0998C9.62265 5.0998 9.09023 5.62694 9.09023 6.29608C9.09023 6.95018 9.62265 7.48085 10.2768 7.48085Z" fill="white" fill-opacity="0.85"/>
 </g>
</svg>
