<?xml version="1.0" encoding="UTF-8"?>
<!--Generator: Apple Native CoreSVG 341-->
<!DOCTYPE svg
PUBLIC "-//W3C//DTD SVG 1.1//EN"
       "http://www.w3.org/Graphics/SVG/1.1/DTD/svg11.dtd">
<svg version="1.1" xmlns="http://www.w3.org/2000/svg" xmlns:xlink="http://www.w3.org/1999/xlink" viewBox="0 0 34.0246 25.3674">
 <g>
  <rect height="25.3674" opacity="0" width="34.0246" x="0" y="0"/>
  <path d="M7.39279 6.02631C7.24937 6.25045 7.17538 6.54528 7.17538 6.90985L7.17538 18.4673C7.17538 19.4161 7.67655 19.8862 8.58632 19.8862L19.5092 19.8862C19.4282 20.1972 19.3885 20.507 19.3885 20.8102C19.3885 21.1724 19.4624 21.5053 19.5993 21.7995L8.46738 21.7995C6.36582 21.7995 5.26211 20.7198 5.26211 18.636L5.26211 6.74287C5.26211 5.80922 5.48331 5.07591 5.91789 4.55234ZM28.3994 6.74287L28.3994 8.09735C27.8775 7.85279 27.3048 7.7206 26.7154 7.7206C26.6382 7.7206 26.5614 7.72284 26.4861 7.73281L26.4861 6.90985C26.4861 5.96102 25.977 5.48465 25.077 5.48465L12.4527 5.48465L10.5391 3.57139L25.1959 3.57139C27.3055 3.57139 28.3994 4.65732 28.3994 6.74287Z" fill="white" fill-opacity="0.85"/>
  <path d="M19.8394 18.4649L9.37616 18.4649C8.88026 18.4649 8.60467 18.1778 8.60467 17.6757L8.60467 7.70145C8.60467 7.55106 8.62939 7.41996 8.67784 7.31054ZM25.0586 7.70145L25.0586 8.08199C23.5677 8.75468 22.4915 10.3085 22.4975 12.1579C22.4975 13.5301 23.0744 14.7456 23.9758 15.5616C23.6153 15.6796 23.2724 15.8198 22.9497 15.9799L13.8804 6.91219L24.2871 6.91219C24.7813 6.91219 25.0586 7.1993 25.0586 7.70145Z" fill="white" fill-opacity="0.85"/>
  <path d="M23.176 21.7995L22.0303 21.7995C21.2494 21.7995 20.7756 21.4331 20.7756 20.8102C20.7756 20.4486 20.8666 20.0601 21.045 19.6698ZM32.6455 20.8102C32.6455 21.4331 32.1637 21.7995 31.3908 21.7995L28.7703 21.7995L23.9979 17.0279C24.7804 16.7038 25.6945 16.5097 26.7154 16.5097C30.3518 16.5097 32.6455 18.9974 32.6455 20.8102ZM29.5445 12.1419C29.5445 13.905 28.2395 15.2667 26.7154 15.2667C25.1816 15.2667 23.8766 13.905 23.8766 12.1579C23.8766 10.4347 25.1834 9.10771 26.7154 9.10771C28.2359 9.10771 29.5445 10.4186 29.5445 12.1419Z" fill="white" fill-opacity="0.85"/>
  <path d="M27.016 23.9339C27.3178 24.2339 27.8139 24.2454 28.1156 23.9339C28.4076 23.6304 28.4174 23.1378 28.1156 22.8343L7.24609 1.98427C6.94257 1.68076 6.44648 1.67275 6.13672 1.98427C5.84297 2.27626 5.84297 2.78212 6.13672 3.08212Z" fill="white" fill-opacity="0.85"/>
 </g>
</svg>
