<?xml version="1.0" encoding="UTF-8"?>
<!--Generator: Apple Native CoreSVG 341-->
<!DOCTYPE svg
PUBLIC "-//W3C//DTD SVG 1.1//EN"
       "http://www.w3.org/Graphics/SVG/1.1/DTD/svg11.dtd">
<svg version="1.1" xmlns="http://www.w3.org/2000/svg" xmlns:xlink="http://www.w3.org/1999/xlink" viewBox="0 0 17.107 21.1441">
 <g>
  <rect height="21.1441" opacity="0" width="17.107" x="0" y="0"/>
  <path d="M0 17.9406C0 20.0502 1.07968 21.1379 3.17148 21.1379L13.5742 21.1379C15.6678 21.1379 16.7457 20.0502 16.7457 17.9406L16.7457 3.20527C16.7457 1.10371 15.6678 0 13.5742 0L3.17148 0C1.07968 0 0 1.10371 0 3.20527ZM1.91327 17.8217L1.91327 3.32421C1.91327 2.41444 2.38163 1.91327 3.33222 1.91327L13.4152 1.91327C14.3641 1.91327 14.8324 2.41444 14.8324 3.32421L14.8324 17.8217C14.8324 18.7314 14.3641 19.2246 13.4152 19.2246L3.33222 19.2246C2.38163 19.2246 1.91327 18.7314 1.91327 17.8217Z" fill="white" fill-opacity="0.85"/>
  <path d="M4.1203 17.8033L5.90741 17.8033C6.46737 17.8033 6.69491 17.582 6.69491 17.0301L6.69491 4.11581C6.69491 3.56385 6.46737 3.34256 5.90741 3.34256L4.1203 3.34256C3.56834 3.34256 3.3408 3.56385 3.3408 4.11581L3.3408 17.0301C3.3408 17.582 3.56834 17.8033 4.1203 17.8033Z" fill="white" fill-opacity="0.85"/>
 </g>
</svg>
