<?xml version="1.0" encoding="UTF-8"?>
<!--Generator: Apple Native CoreSVG 341-->
<!DOCTYPE svg
PUBLIC "-//W3C//DTD SVG 1.1//EN"
       "http://www.w3.org/Graphics/SVG/1.1/DTD/svg11.dtd">
<svg version="1.1" xmlns="http://www.w3.org/2000/svg" xmlns:xlink="http://www.w3.org/1999/xlink" viewBox="0 0 25.1146 20.0754">
 <g>
  <rect height="20.0754" opacity="0" width="25.1146" x="0" y="0"/>
  <path d="M2.69257 16.6478L22.0607 16.6478C23.741 16.6478 24.7533 15.6275 24.7533 13.9553L24.7533 2.69257C24.7533 1.02031 23.741 0 22.0607 0L2.69257 0C1.02031 0 0 1.02031 0 2.69257L0 13.9553C0 15.6275 1.02031 16.6478 2.69257 16.6478ZM2.80272 14.7803C2.21307 14.7803 1.86757 14.4435 1.86757 13.8531L1.86757 2.79647C1.86757 2.20429 2.21307 1.86932 2.80272 1.86932L21.9506 1.86932C22.5402 1.86932 22.8857 2.20429 22.8857 2.79647L22.8857 13.8531C22.8857 14.4435 22.5402 14.7803 21.9506 14.7803ZM7.38105 20.0638L17.3723 20.0638C17.8582 20.0638 18.2582 19.6631 18.2582 19.1797C18.2582 18.6963 17.8582 18.2955 17.3723 18.2955L7.38105 18.2955C6.89512 18.2955 6.49512 18.6963 6.49512 19.1797C6.49512 19.6631 6.89512 20.0638 7.38105 20.0638Z" fill="white" fill-opacity="0.85"/>
  <path d="M3.8162 13.3607L20.9549 13.3607C21.3449 13.3607 21.5066 13.1795 21.5066 12.7814L21.5066 3.87616C21.5066 3.47811 21.3449 3.30487 20.9549 3.30487L3.8162 3.30487C3.42792 3.30487 3.25643 3.47811 3.25643 3.87616L3.25643 12.7814C3.25643 13.1795 3.42792 13.3607 3.8162 13.3607Z" fill="white" fill-opacity="0.85"/>
 </g>
</svg>
