<?xml version="1.0" encoding="UTF-8"?>
<!--Generator: Apple Native CoreSVG 341-->
<!DOCTYPE svg
PUBLIC "-//W3C//DTD SVG 1.1//EN"
       "http://www.w3.org/Graphics/SVG/1.1/DTD/svg11.dtd">
<svg version="1.1" xmlns="http://www.w3.org/2000/svg" xmlns:xlink="http://www.w3.org/1999/xlink" viewBox="0 0 18.6607 23.6664">
 <g>
  <rect height="23.6664" opacity="0" width="18.6607" x="0" y="0"/>
  <path d="M9.15859 23.6549C14.567 23.6549 18.2994 18.7674 18.2994 11.8283C18.2994 4.8875 14.567 0 9.15859 0C3.75019 0 0 4.89551 0 11.8283C0 18.7594 3.75019 23.6549 9.15859 23.6549ZM9.15859 21.7416C4.87831 21.7416 1.91327 17.64 1.91327 11.8283C1.91327 6.00858 4.87831 1.91327 9.15859 1.91327C13.4309 1.91327 16.3861 6.00858 16.3861 11.8283C16.3861 17.648 13.4309 21.7416 9.15859 21.7416Z" fill="white" fill-opacity="0.85"/>
  <path d="M9.15859 20.2402C12.5406 20.2402 14.8848 16.86 14.8848 11.8283C14.8848 6.78866 12.5406 3.41639 9.15859 3.41639C5.77479 3.41639 3.42264 6.79667 3.42264 11.8283C3.42264 16.852 5.77479 20.2402 9.15859 20.2402Z" fill="white" fill-opacity="0.85"/>
 </g>
</svg>
