<?xml version="1.0" encoding="UTF-8"?>
<!--Generator: Apple Native CoreSVG 341-->
<!DOCTYPE svg
PUBLIC "-//W3C//DTD SVG 1.1//EN"
       "http://www.w3.org/Graphics/SVG/1.1/DTD/svg11.dtd">
<svg version="1.1" xmlns="http://www.w3.org/2000/svg" xmlns:xlink="http://www.w3.org/1999/xlink" viewBox="0 0 20.5381 20.1848">
 <g>
  <rect height="20.1848" opacity="0" width="20.5381" x="0" y="0"/>
  <path d="M20.1767 10.0973C20.1767 15.6656 15.6576 20.1848 10.0875 20.1848C4.52715 20.1848 0 15.6656 0 10.0973C0 4.53691 4.52715 0.00976562 10.0875 0.00976562C15.6576 0.00976562 20.1767 4.53691 20.1767 10.0973ZM5.55956 5.70761C4.53866 5.70761 3.98749 6.24277 3.98749 7.27167L3.98749 12.9228C3.98749 13.9518 4.53866 14.4949 5.55956 14.4949L10.5156 14.4949C10.4553 14.3432 10.4322 14.1816 10.4322 14.0103C10.4322 13.8598 10.4543 13.6896 10.5117 13.5373L5.61776 13.5373C5.18592 13.5373 4.94061 13.3098 4.94061 12.8584L4.94061 7.34413C4.94061 6.88475 5.18592 6.65721 5.61776 6.65721L13.5107 6.65721C13.915 6.65721 14.1816 6.883 14.1816 7.33534L14.1816 7.72675C14.4578 7.74374 14.8148 7.82031 15.1152 8.0205L15.1152 7.27167C15.1152 6.24277 14.5658 5.70761 13.5609 5.70761ZM11.175 14.0103C11.175 14.2996 11.4129 14.4949 11.767 14.4949L16.2391 14.4949C16.6234 14.4949 16.8408 14.2996 16.8408 14.0103C16.8408 13.1668 15.7443 11.9617 14.0119 11.9617C12.2795 11.9617 11.175 13.1668 11.175 14.0103ZM6.00624 7.36014C5.78846 7.36014 5.64002 7.49706 5.64002 7.71835L5.64002 12.4824C5.64002 12.6975 5.78846 12.8424 6.01425 12.8424L10.8404 12.8424C11.1727 12.2539 11.7654 11.7588 12.5529 11.4744C12.1656 11.0838 11.9098 10.5269 11.9098 9.89726C11.9098 8.84901 12.5754 8.06034 13.4453 7.82187L13.4453 7.67772C13.432 7.48202 13.2809 7.36014 13.0656 7.36014ZM12.6525 9.89726C12.6525 10.7213 13.2812 11.3703 14.0119 11.3703C14.7488 11.3703 15.3615 10.7213 15.3615 9.88925C15.3615 9.04921 14.7471 8.43222 14.0119 8.43222C13.283 8.43222 12.6525 9.05722 12.6525 9.89726Z" fill="white" fill-opacity="0.85"/>
 </g>
</svg>
