<?xml version="1.0" encoding="UTF-8"?>
<!--Generator: Apple Native CoreSVG 341-->
<!DOCTYPE svg
PUBLIC "-//W3C//DTD SVG 1.1//EN"
       "http://www.w3.org/Graphics/SVG/1.1/DTD/svg11.dtd">
<svg version="1.1" xmlns="http://www.w3.org/2000/svg" xmlns:xlink="http://www.w3.org/1999/xlink" viewBox="0 0 25.3339 22.468">
 <g>
  <rect height="22.468" opacity="0" width="25.3339" x="0" y="0"/>
  <path d="M20.8775 2.80234L20.8775 19.6523C20.8775 21.343 19.732 22.4467 17.9756 22.4467L6.99705 22.4467C5.24862 22.4467 4.09511 21.343 4.09511 19.6523L4.09511 13.9719L6.00838 13.9719L6.00838 19.3377C6.00838 20.098 6.46072 20.5334 7.26365 20.5334L17.717 20.5334C18.5199 20.5334 18.9642 20.098 18.9642 19.3377L18.9642 3.11874C18.9642 2.35663 18.5199 1.91327 17.717 1.91327L7.26365 1.91327C6.46072 1.91327 6.00838 2.35663 6.00838 3.11874L6.00838 8.47656L4.09511 8.47656L4.09511 2.80234C4.09511 1.11172 5.24862 0 6.99705 0L17.9756 0C19.732 0 20.8775 1.11172 20.8775 2.80234Z" fill="white" fill-opacity="0.85"/>
  <path d="M8.0699 7.87011C8.0699 8.08905 8.16209 8.32499 8.33592 8.48104L9.8242 9.87246L11.4513 11.2211L9.8242 12.5617L8.33592 13.9611C8.16209 14.1154 8.0699 14.3433 8.0699 14.5623C8.0699 15.0031 8.39627 15.3719 8.8449 15.3719C9.08787 15.3719 9.2617 15.2752 9.42576 15.1111L12.5189 11.9053C12.7476 11.673 12.822 11.4551 12.822 11.2211C12.822 10.9791 12.7476 10.7674 12.5189 10.5369L9.42576 7.32128C9.2617 7.15722 9.08787 7.07031 8.8449 7.07031C8.39627 7.07031 8.0699 7.42128 8.0699 7.87011ZM0.307605 11.2211C0.307605 11.7166 0.71893 12.1191 1.19764 12.1191L8.99803 12.1191L11.799 11.9615C12.2078 11.9349 12.5412 11.6299 12.5412 11.2211C12.5412 10.8105 12.2078 10.5055 11.799 10.4789L8.99803 10.3133L1.19764 10.3133C0.71893 10.3133 0.307605 10.7256 0.307605 11.2211Z" fill="white" fill-opacity="0.85"/>
 </g>
</svg>
