<?xml version="1.0" encoding="UTF-8"?>
<!--Generator: Apple Native CoreSVG 341-->
<!DOCTYPE svg
PUBLIC "-//W3C//DTD SVG 1.1//EN"
       "http://www.w3.org/Graphics/SVG/1.1/DTD/svg11.dtd">
<svg version="1.1" xmlns="http://www.w3.org/2000/svg" xmlns:xlink="http://www.w3.org/1999/xlink" viewBox="0 0 20.5209 26.8726">
 <g>
  <rect height="26.8726" opacity="0" width="20.5209" x="0" y="0"/>
  <path d="M2.84491 22.4951C2.84491 23.1916 3.26952 23.6029 3.99628 23.6029L6.31132 23.6029L6.31132 25.4758L3.60292 25.4758C2.05254 25.4758 1.01777 24.4881 1.01777 22.9998L1.01777 21.5736L2.84491 21.5736ZM12.8185 22.9998C12.8185 24.4881 11.7838 25.4758 10.2351 25.4758L7.52674 25.4758L7.52674 23.6029L9.84178 23.6029C10.5668 23.6029 10.9914 23.1916 10.9914 22.4951L10.9914 21.8584L12.8185 21.8584ZM2.84491 20.3599L1.01777 20.3599L1.01777 16.5365L2.84491 16.5365ZM2.84491 15.3211L1.01777 15.3211L1.01777 11.5074L2.84491 11.5074ZM5.96191 8.26443L3.99628 8.26443C3.26952 8.26443 2.84491 8.66775 2.84491 9.36424L2.84491 10.2857L1.01777 10.2857L1.01777 8.85956C1.01777 7.37128 2.05254 6.39159 3.60292 6.39159L5.96191 6.39159Z" fill="white" fill-opacity="0.85"/>
  <path d="M9.9244 20.4713L16.5988 20.4713C18.1246 20.4713 19.1338 19.4836 19.1338 17.9953L19.1338 3.86484C19.1338 2.37304 18.1246 1.38711 16.5988 1.38711L9.9244 1.38711C8.37577 1.38711 7.341 2.37304 7.341 3.86132L7.341 17.9971C7.341 19.4836 8.37577 20.4713 9.9244 20.4713ZM11.0914 18.6371L17.3101 13.4217L17.3101 15.6752L13.7773 18.6371ZM15.1992 18.6371L17.3101 16.8609L17.3101 17.524C17.3101 18.2205 16.8758 18.6371 16.165 18.6371ZM9.79138 18.5455C9.3865 18.3908 9.16814 18.0391 9.16814 17.5258L9.16814 16.8131L17.3101 9.96815L17.3101 12.2314ZM9.16814 15.6211L9.16814 13.3676L17.3101 6.52616L17.3101 8.78593ZM9.16814 12.1756L9.16814 9.93183L16.8922 3.43651C17.1646 3.6205 17.3101 3.91444 17.3101 4.31933L17.3101 5.34042ZM9.16814 5.29433L9.16814 4.31757C9.16814 3.62909 9.59275 3.21776 10.3195 3.21776L11.6373 3.21776ZM9.16814 8.72382L9.16814 6.47831L13.0609 3.21776L15.7291 3.21776Z" fill="white" fill-opacity="0.85"/>
 </g>
</svg>
