<?xml version="1.0" encoding="UTF-8"?>
<!--Generator: Apple Native CoreSVG 341-->
<!DOCTYPE svg
PUBLIC "-//W3C//DTD SVG 1.1//EN"
       "http://www.w3.org/Graphics/SVG/1.1/DTD/svg11.dtd">
<svg version="1.1" xmlns="http://www.w3.org/2000/svg" xmlns:xlink="http://www.w3.org/1999/xlink" viewBox="0 0 13.6115 21.3859">
 <g>
  <rect height="21.3859" opacity="0" width="13.6115" x="0" y="0"/>
  <path d="M11.3369 13.1365L3.89009 19.3916L3.13729 19.3916C2.92369 19.3916 2.73536 19.3602 2.57547 19.2982L11.3369 11.9435ZM11.3369 16.8845L8.35272 19.3916L6.91891 19.3916L11.3369 15.6836ZM11.3369 9.40367L1.91327 17.3207L1.91327 16.1122L11.3369 8.20438ZM11.3369 5.6671L1.91327 13.5825L1.91327 12.3739L11.3369 4.4661ZM10.9726 2.23286L1.91327 9.83594L1.91327 8.63798L9.84262 1.96776L10.1226 1.96776C10.481 1.96776 10.7686 2.05927 10.9726 2.23286ZM1.91327 6.09939L1.91327 4.89104L5.40128 1.96776L6.83591 1.96776Z" fill="white" fill-opacity="0.85"/>
  <path d="M0 18.6674C0 20.2804 1.12597 21.3593 2.80917 21.3593L10.4832 21.3593C12.1418 21.3593 13.2502 20.2804 13.2502 18.6656L13.2502 2.69374C13.2502 1.07715 12.1418 0 10.4832 0L2.80917 0C1.12597 0 0 1.07715 0 2.69199ZM1.91327 18.2271L1.91327 3.13221C1.91327 2.38788 2.35643 1.96776 3.13729 1.96776L10.1226 1.96776C10.8937 1.96776 11.3369 2.39139 11.3369 3.13397L11.3369 18.2254C11.3369 18.968 10.8937 19.3916 10.1226 19.3916L3.13729 19.3916C2.35643 19.3916 1.91327 18.9715 1.91327 18.2271Z" fill="white" fill-opacity="0.85"/>
 </g>
</svg>
