<?xml version="1.0" encoding="UTF-8"?>
<!--Generator: Apple Native CoreSVG 341-->
<!DOCTYPE svg
PUBLIC "-//W3C//DTD SVG 1.1//EN"
       "http://www.w3.org/Graphics/SVG/1.1/DTD/svg11.dtd">
<svg version="1.1" xmlns="http://www.w3.org/2000/svg" xmlns:xlink="http://www.w3.org/1999/xlink" viewBox="0 0 20.5381 20.1848">
 <g>
  <rect height="20.1848" opacity="0" width="20.5381" x="0" y="0"/>
  <path d="M20.1767 10.0875C20.1767 15.6478 15.6576 20.175 10.0875 20.175C4.52715 20.175 0 15.6478 0 10.0875C0 4.51914 4.52715 0 10.0875 0C15.6576 0 20.1767 4.51914 20.1767 10.0875ZM10.8801 6.42303L10.8801 11.6445C10.8801 12.5889 10.4258 13.1293 9.67304 13.1293C9.00195 13.1293 8.5539 12.7969 8.33612 12.2094C8.15858 11.7705 7.88827 11.5711 7.45331 11.5711C6.925 11.5729 6.56777 11.9346 6.56777 12.4531C6.56777 12.6395 6.59883 12.8018 6.65918 12.9668C7.01426 14.0557 8.15449 14.7639 9.63183 14.7639C11.6695 14.7639 12.8105 13.6652 12.8105 11.6816L12.8105 6.42303C12.8105 5.75917 12.4578 5.34609 11.8373 5.34609C11.223 5.34609 10.8801 5.77343 10.8801 6.42303Z" fill="white" fill-opacity="0.85"/>
 </g>
</svg>
