<?xml version="1.0" encoding="UTF-8"?>
<!--Generator: Apple Native CoreSVG 341-->
<!DOCTYPE svg
PUBLIC "-//W3C//DTD SVG 1.1//EN"
       "http://www.w3.org/Graphics/SVG/1.1/DTD/svg11.dtd">
<svg version="1.1" xmlns="http://www.w3.org/2000/svg" xmlns:xlink="http://www.w3.org/1999/xlink" viewBox="0 0 21.5105 20.9601">
 <g>
  <rect height="20.9601" opacity="0" width="21.5105" x="0" y="0"/>
  <path d="M21.1492 7.83202L21.1492 17.7887C21.1492 19.8724 20.0633 20.9601 17.9537 20.9601L8.06464 20.9601C5.95507 20.9601 4.85937 19.8724 4.85937 17.7887L4.85937 16.3174L6.77264 16.3174L6.77264 17.6199C6.77264 18.5687 7.28182 19.0469 8.17557 19.0469L17.8348 19.0469C18.7428 19.0469 19.2359 18.5687 19.2359 17.6199L19.2359 8.00077C19.2359 7.05194 18.7428 6.57557 17.8348 6.57557L16.2898 6.57557L16.2898 4.66054L17.9537 4.66054C20.0633 4.66054 21.1492 5.74023 21.1492 7.83202Z" fill="white" fill-opacity="0.85"/>
  <path d="M13.0943 0.0195312L3.20351 0.0195312C1.0957 0.0195312 0 1.10547 0 3.19101L0 13.1459C0 15.2297 1.0957 16.3174 3.20351 16.3174L13.0943 16.3174C15.2021 16.3174 16.2898 15.2297 16.2898 13.1459L16.2898 3.19101C16.2898 1.10547 15.2021 0.0195312 13.0943 0.0195312ZM12.9754 1.9328C13.8834 1.9328 14.3766 2.40917 14.3766 3.358L14.3766 12.9771C14.3766 13.9277 13.8834 14.4041 12.9754 14.4041L3.31444 14.4041C2.42245 14.4041 1.91327 13.9277 1.91327 12.9771L1.91327 3.358C1.91327 2.40917 2.42245 1.9328 3.31444 1.9328Z" fill="white" fill-opacity="0.85"/>
  <path d="M7.70214 12.7221C9.69979 12.7221 10.799 11.6475 10.799 9.72969L10.799 4.60272C10.799 3.95487 10.4623 3.5578 9.8498 3.5578C9.25156 3.5578 8.91836 3.96913 8.91836 4.60272L8.91836 9.69258C8.91836 10.6049 8.48007 11.1275 7.74335 11.1275C7.09003 11.1275 6.65624 10.8049 6.43846 10.2334C6.26893 9.80254 6.00663 9.60938 5.58144 9.60938C5.06914 9.61289 4.71992 9.9666 4.71992 10.4691C4.71992 10.6457 4.75097 10.808 4.80332 10.965C5.15039 12.0299 6.2666 12.7221 7.70214 12.7221Z" fill="white" fill-opacity="0.85"/>
 </g>
</svg>
