<?xml version="1.0" encoding="UTF-8"?>
<!--Generator: Apple Native CoreSVG 341-->
<!DOCTYPE svg
PUBLIC "-//W3C//DTD SVG 1.1//EN"
       "http://www.w3.org/Graphics/SVG/1.1/DTD/svg11.dtd">
<svg version="1.1" xmlns="http://www.w3.org/2000/svg" xmlns:xlink="http://www.w3.org/1999/xlink" viewBox="0 0 18.5894 18.2316">
 <g>
  <rect height="18.2316" opacity="0" width="18.5894" x="0" y="0"/>
  <path d="M18.2281 3.17148L18.2281 15.0646C18.2281 17.1502 17.1404 18.2281 15.0246 18.2281L3.20351 18.2281C1.0957 18.2281 0 17.1502 0 15.0646L0 3.17148C0 1.08769 1.0957 0 3.20351 0L15.0246 0C17.1404 0 18.2281 1.08769 18.2281 3.17148ZM9.93262 5.44647L9.93262 10.668C9.93262 11.6123 9.47832 12.1527 8.72382 12.1527C8.05448 12.1527 7.61268 11.8203 7.38866 11.2328C7.20936 10.7939 6.93905 10.5945 6.5041 10.5945C5.97578 10.5963 5.62031 10.958 5.62031 11.4766C5.62031 11.6629 5.65137 11.8252 5.70996 11.9902C6.0668 13.0791 7.20703 13.7873 8.68261 13.7873C10.7221 13.7873 11.8613 12.6887 11.8613 10.7051L11.8613 5.44647C11.8613 4.78261 11.5183 4.36952 10.8881 4.36952C10.2738 4.36952 9.93262 4.79686 9.93262 5.44647Z" fill="white" fill-opacity="0.85"/>
 </g>
</svg>
