<?xml version="1.0" encoding="UTF-8"?>
<!--Generator: Apple Native CoreSVG 341-->
<!DOCTYPE svg
PUBLIC "-//W3C//DTD SVG 1.1//EN"
       "http://www.w3.org/Graphics/SVG/1.1/DTD/svg11.dtd">
<svg version="1.1" xmlns="http://www.w3.org/2000/svg" xmlns:xlink="http://www.w3.org/1999/xlink" viewBox="0 0 20.5381 20.1848">
 <g>
  <rect height="20.1848" opacity="0" width="20.5381" x="0" y="0"/>
  <path d="M10.0875 20.175C15.6576 20.175 20.1767 15.6559 20.1767 10.0875C20.1767 4.51914 15.6576 0 10.0875 0C4.51914 0 0 4.51914 0 10.0875C0 15.6559 4.51914 20.175 10.0875 20.175ZM10.0875 18.1879C5.60839 18.1879 1.9871 14.5666 1.9871 10.0875C1.9871 5.60839 5.60839 1.9871 10.0875 1.9871C14.5666 1.9871 18.1897 5.60839 18.1897 10.0875C18.1897 14.5666 14.5666 18.1879 10.0875 18.1879Z" fill="white" fill-opacity="0.85"/>
  <path d="M8.67128 6.8914C8.82402 7.07519 8.98828 7.06093 9.15605 6.90019L9.71289 6.35214C9.83984 6.21893 9.85488 6.03964 9.70839 5.9039L8.80097 4.95663C8.64921 4.80839 8.51699 4.78261 8.34921 4.90956L7.77714 5.41151C7.64042 5.5287 7.63163 5.66796 7.74785 5.80722ZM11.5295 6.8914L12.4414 5.80722C12.5656 5.66796 12.5506 5.5287 12.4219 5.41151L11.84 4.90956C11.6803 4.78261 11.548 4.80839 11.398 4.95663L10.4826 5.9039C10.3424 6.03964 10.3609 6.21893 10.4764 6.35214L11.0412 6.90019C11.201 7.05292 11.375 7.07519 11.5295 6.8914ZM7.65644 14.5898L9.73515 14.5898L9.73515 7.12499L9.2996 7.56854C9.01308 7.85233 8.62343 7.83202 8.34921 7.51171L6.99882 5.88007L6.61992 6.03007C6.10507 6.21562 5.8832 6.4996 5.74472 7.01268L4.03847 13.1424C3.89823 13.6385 4.07929 14.0139 4.55663 14.1443L5.60761 14.4346C6.04023 14.5527 6.3662 14.4994 6.48144 14.1082L6.64238 13.4846L6.65116 13.916C6.73261 14.34 7.0496 14.5898 7.65644 14.5898ZM8.01503 12.2645C7.88281 12.3754 7.68222 12.3443 7.58105 12.1943C7.48339 12.0506 7.50917 11.8615 7.65292 11.7604L8.52168 11.1154C8.66191 11.0143 8.8705 11.0516 8.97168 11.1918C9.07285 11.3373 9.04355 11.5264 8.8998 11.6338ZM10.4461 14.5898L12.5328 14.5898C13.1334 14.5898 13.4486 14.34 13.5301 13.916L13.5389 13.4766L13.6998 14.1082C13.815 14.4994 14.1428 14.5527 14.5736 14.4346L15.6264 14.1443C16.11 14.0139 16.2848 13.6385 16.1428 13.1424L14.4383 7.01268C14.298 6.4996 14.0762 6.21562 13.5613 6.03007L13.1922 5.88007L11.832 7.51171C11.5658 7.83202 11.1682 7.85233 10.8914 7.56854L10.4461 7.12499ZM12.1822 12.2645L11.3055 11.6338C11.1715 11.5264 11.1342 11.3373 11.2336 11.1918C11.3445 11.0516 11.5451 11.0143 11.6756 11.1154L12.5523 11.7604C12.6961 11.8615 12.7254 12.0506 12.6242 12.1943C12.5248 12.3443 12.3322 12.3754 12.1822 12.2645Z" fill="white" fill-opacity="0.85"/>
 </g>
</svg>
