<?xml version="1.0" encoding="UTF-8"?>
<!--Generator: Apple Native CoreSVG 341-->
<!DOCTYPE svg
PUBLIC "-//W3C//DTD SVG 1.1//EN"
       "http://www.w3.org/Graphics/SVG/1.1/DTD/svg11.dtd">
<svg version="1.1" xmlns="http://www.w3.org/2000/svg" xmlns:xlink="http://www.w3.org/1999/xlink" viewBox="0 0 20.5381 20.1848">
 <g>
  <rect height="20.1848" opacity="0" width="20.5381" x="0" y="0"/>
  <path d="M20.1767 10.0875C20.1767 15.6478 15.6576 20.175 10.0875 20.175C4.52715 20.175 0 15.6478 0 10.0875C0 4.51914 4.52715 0 10.0875 0C15.6576 0 20.1767 4.51914 20.1767 10.0875ZM6.48437 5.89804C5.95273 6.0871 5.71933 6.3746 5.5791 6.91249L3.80546 13.2691C3.66171 13.7883 3.84628 14.177 4.34667 14.3189L5.44101 14.6127C5.88339 14.7389 6.23066 14.6855 6.34941 14.2748L6.51035 13.6529L6.51738 14.0844C6.60409 14.5182 6.93261 14.7777 7.56074 14.7777L9.72187 14.7777L9.72187 7.02831L9.26679 7.4914C8.96874 7.78847 8.56406 7.7664 8.27832 7.43456L6.87656 5.73827ZM11.9047 7.43456C11.6269 7.7664 11.2143 7.78847 10.9242 7.4914L10.4611 7.02831L10.4611 14.7777L12.6223 14.7777C13.2504 14.7777 13.5789 14.5182 13.6639 14.0844L13.6727 13.6449L13.8336 14.2748C13.9523 14.6855 14.2978 14.7389 14.742 14.6127L15.8363 14.3189C16.3447 14.177 16.5195 13.7883 16.3775 13.2691L14.6039 6.91249C14.4637 6.3746 14.2303 6.0871 13.6986 5.89804L13.3144 5.73827ZM8.92382 11.2459C9.033 11.4047 9.00546 11.5973 8.85195 11.7127L7.94238 12.3584C7.79863 12.4773 7.59453 12.4463 7.48359 12.2865C7.38593 12.141 7.41171 11.9404 7.55722 11.8393L8.45879 11.1713C8.60078 11.0586 8.82089 11.1057 8.92382 11.2459ZM11.7402 11.1713L12.6498 11.8393C12.7953 11.9404 12.8246 12.141 12.7234 12.2865C12.6205 12.4463 12.4084 12.4773 12.2566 12.3584L11.3551 11.7127C11.2096 11.5973 11.174 11.4047 11.2832 11.2459C11.3941 11.1057 11.608 11.0586 11.7402 11.1713ZM8.27832 4.72343L7.69121 5.24491C7.54472 5.36562 7.53593 5.51464 7.66191 5.65566L8.61191 6.77968C8.77441 6.97323 8.94218 6.95898 9.11972 6.78671L9.6996 6.22538C9.82656 6.08417 9.84511 5.90312 9.69687 5.75409L8.75312 4.77851C8.5916 4.61874 8.45585 4.59472 8.27832 4.72343ZM11.4494 4.77851L10.4959 5.75409C10.3521 5.90312 10.3742 6.08417 10.4914 6.22538L11.0793 6.78671C11.2488 6.95097 11.4246 6.97323 11.5889 6.77968L12.5273 5.65566C12.6631 5.51464 12.6463 5.36562 12.5078 5.24491L11.9127 4.72343C11.7432 4.59472 11.6074 4.61874 11.4494 4.77851Z" fill="white" fill-opacity="0.85"/>
 </g>
</svg>
