<?xml version="1.0" encoding="UTF-8"?>
<!--Generator: Apple Native CoreSVG 341-->
<!DOCTYPE svg
PUBLIC "-//W3C//DTD SVG 1.1//EN"
       "http://www.w3.org/Graphics/SVG/1.1/DTD/svg11.dtd">
<svg version="1.1" xmlns="http://www.w3.org/2000/svg" xmlns:xlink="http://www.w3.org/1999/xlink" viewBox="0 0 27.5034 21.5189">
 <g>
  <rect height="21.5189" opacity="0" width="27.5034" x="0" y="0"/>
  <path d="M8.16156 20.9594L12.7762 20.9594L12.7762 5.15495L11.8172 6.11921C11.1629 6.76628 10.2971 6.71862 9.68773 5.99675L6.67758 2.35965L5.82348 2.67898C4.67446 3.10047 4.19107 3.72937 3.87075 4.89265L0.10298 18.4702C-0.203074 19.5915 0.170362 20.443 1.25942 20.7366L3.63012 21.3825C4.69105 21.669 5.54593 21.4745 5.78011 20.4399L6.75316 16.2063L5.96293 12.3653L5.66254 18.1016C5.55708 19.8878 6.21567 20.9594 8.16156 20.9594ZM8.85062 16.2335C8.50902 16.4819 8.05922 16.4003 7.81078 16.0569C7.5766 15.7233 7.64398 15.2673 7.98734 15.0171L9.93207 13.5954C10.2657 13.3612 10.735 13.4268 10.9737 13.7604C11.2239 14.0958 11.1485 14.5536 10.8069 14.802ZM14.3623 20.9594L18.9885 20.9594C20.9264 20.9594 21.585 19.8878 21.4795 18.1016L21.1809 12.1331L20.3569 16.0462L21.37 20.4399C21.6041 21.4745 22.459 21.669 23.5119 21.3825L25.8826 20.7366C26.9717 20.443 27.3531 19.5915 27.0391 18.4702L23.2713 4.89265C22.951 3.72937 22.4676 3.10047 21.3186 2.67898L20.4725 2.36766L17.4623 5.99675C16.861 6.71862 15.9871 6.76628 15.3346 6.11921L14.3658 5.14694ZM18.3412 16.2335L16.385 14.802C16.0434 14.5553 15.976 14.0958 16.2164 13.7604C16.4569 13.4268 16.9262 13.363 17.2598 13.5954L19.2045 15.0171C19.5461 15.2637 19.6215 15.7233 19.3811 16.0569C19.1326 16.4003 18.6828 16.4802 18.3412 16.2335ZM10.3883 4.57039C10.7487 4.9991 11.108 4.94832 11.4737 4.59148L12.7112 3.37234C12.9951 3.09363 13.0242 2.70418 12.728 2.39109L10.6875 0.278205C10.3602-0.0544112 10.0391-0.0962083 9.70551 0.193049L8.42054 1.28719C8.12777 1.52762 8.10316 1.86375 8.36019 2.16687ZM16.7778 4.57039L18.8076 2.16687C19.0629 1.86375 19.0383 1.52762 18.7455 1.28719L17.4606 0.193049C17.127-0.0962083 16.8059-0.0544112 16.4785 0.278205L14.4399 2.39109C14.1338 2.70418 14.1709 3.09363 14.4469 3.37234L15.6924 4.59148C16.05 4.94832 16.4174 4.9991 16.7778 4.57039Z" fill="white" fill-opacity="0.85"/>
 </g>
</svg>
