<?xml version="1.0" encoding="UTF-8"?>
<!--Generator: Apple Native CoreSVG 341-->
<!DOCTYPE svg
PUBLIC "-//W3C//DTD SVG 1.1//EN"
       "http://www.w3.org/Graphics/SVG/1.1/DTD/svg11.dtd">
<svg version="1.1" xmlns="http://www.w3.org/2000/svg" xmlns:xlink="http://www.w3.org/1999/xlink" viewBox="0 0 36.2554 17.7664">
 <g>
  <rect height="17.7664" opacity="0" width="36.2554" x="0" y="0"/>
  <path d="M33.3955 2.258C34.9832 3.97011 35.8941 6.34725 35.8941 8.88182C35.8941 11.4199 35.0095 13.7732 33.3955 15.5092C32.9611 15.9756 32.365 15.958 32.0261 15.5562C31.6943 15.173 31.7972 14.6824 32.1681 14.2627C33.4398 12.8498 34.1511 10.9551 34.1511 8.88182C34.1511 6.81034 33.4433 4.91737 32.1681 3.50448C31.7955 3.08475 31.6908 2.59413 32.0261 2.21092C32.3668 1.80292 32.9646 1.78808 33.3955 2.258ZM3.86796 2.20565C4.20332 2.58885 4.09863 3.08123 3.72597 3.50096C2.45078 4.9121 1.74296 6.80682 1.74296 8.87831C1.74296 10.9516 2.45429 12.8463 3.72597 14.2574C4.09687 14.6771 4.1998 15.1695 3.86796 15.5527C3.5291 15.9527 2.93301 15.9721 2.49863 15.5057C0.886329 13.7697 0 11.4164 0 8.87831C0 6.34374 0.910938 3.96659 2.49863 2.25272C2.92949 1.78456 3.52734 1.7994 3.86796 2.20565Z" fill="white" fill-opacity="0.85"/>
  <path d="M30.5593 5.06776C31.3966 6.08202 31.8691 7.43397 31.8691 8.88182C31.8691 10.3297 31.3966 11.6816 30.5593 12.6959C30.1631 13.174 29.5209 13.1607 29.1775 12.759C28.8545 12.3775 28.9779 11.9064 29.3009 11.4689C29.8412 10.7857 30.1261 9.84647 30.1261 8.88182C30.1261 7.91717 29.8412 6.97167 29.3009 6.29471C28.9797 5.85545 28.8545 5.38612 29.1775 5.00643C29.5209 4.59667 30.1631 4.58788 30.5593 5.06776ZM6.71659 5.00116C7.03964 5.3826 6.91444 5.85194 6.59316 6.28944C6.05292 6.96639 5.76796 7.91366 5.76796 8.87831C5.76796 9.84296 6.05292 10.7805 6.59316 11.4637C6.9162 11.9029 7.03964 12.374 6.71659 12.7537C6.37323 13.1555 5.73105 13.1705 5.33476 12.6906C4.49746 11.6781 4.025 10.3262 4.025 8.87831C4.025 7.43046 4.49746 6.0785 5.33476 5.06249C5.73105 4.58436 6.37323 4.59139 6.71659 5.00116Z" fill="white" fill-opacity="0.85"/>
  <path d="M26.8306 8.88182C26.8306 13.7887 22.8556 17.7556 17.9488 17.7556C13.042 17.7556 9.06699 13.7887 9.06699 8.88182C9.06699 3.97499 13.042 0 17.9488 0C22.8556 0 26.8306 3.97499 26.8306 8.88182ZM14.8471 5.27382C14.3865 5.44335 14.1869 5.68729 14.0644 6.14784L12.5389 11.6172C12.4129 12.067 12.5717 12.3961 13.009 12.5185L13.9531 12.7767C14.3297 12.8869 14.6334 12.8336 14.7406 12.4887L14.8695 11.9629L14.8765 12.3223C14.9615 12.6982 15.2385 12.916 15.775 12.916L17.641 12.916L17.641 6.25213L17.2535 6.65565C16.991 6.91717 16.6396 6.88709 16.3974 6.60682L15.1859 5.13983ZM19.5287 6.60682C19.2785 6.88709 18.9271 6.90916 18.6726 6.65565L18.2771 6.25213L18.2771 12.916L20.1431 12.916C20.6797 12.916 20.9566 12.6982 21.0398 12.3223L21.0486 11.9549L21.1758 12.4887C21.2847 12.8336 21.5885 12.8869 21.9633 12.7767L22.9092 12.5185C23.3465 12.3961 23.5035 12.067 23.3793 11.6172L21.8537 6.14784C21.7295 5.68729 21.5316 5.44335 21.0711 5.27382L20.7402 5.13983ZM16.9478 9.86952C17.049 10.0088 17.0215 10.1738 16.8857 10.2812L16.1033 10.8336C15.9773 10.9348 15.807 10.9037 15.7058 10.7715C15.626 10.6437 15.6437 10.4689 15.7795 10.3838L16.5459 9.81093C16.6683 9.71425 16.8547 9.75331 16.9478 9.86952ZM19.3883 9.81093L20.1627 10.3838C20.2824 10.4689 20.3099 10.6437 20.2283 10.7715C20.1351 10.9037 19.9568 10.9348 19.8228 10.8336L19.0484 10.2812C18.9207 10.1738 18.8931 10.0088 18.9943 9.86952C19.0795 9.75331 19.2658 9.71425 19.3883 9.81093ZM16.3974 4.2619L15.8877 4.71581C15.7652 4.81073 15.7582 4.94999 15.8664 5.06522L16.6777 6.0328C16.8242 6.20057 16.9644 6.18631 17.1162 6.04159L17.6187 5.55585C17.7297 5.43866 17.7402 5.28338 17.616 5.15389L16.8012 4.30897C16.6654 4.17499 16.5412 4.15897 16.3974 4.2619ZM19.125 4.30897L18.3021 5.15389C18.1859 5.28338 18.1982 5.43866 18.3056 5.55585L18.8082 6.04159C18.9519 6.17831 19.1019 6.20057 19.2502 6.0328L20.058 5.06522C20.176 4.94999 20.1592 4.81073 20.0385 4.71581L19.5287 4.2619C19.3849 4.15897 19.259 4.17499 19.125 4.30897Z" fill="white" fill-opacity="0.85"/>
 </g>
</svg>
