<?xml version="1.0" encoding="UTF-8"?>
<!--Generator: Apple Native CoreSVG 341-->
<!DOCTYPE svg
PUBLIC "-//W3C//DTD SVG 1.1//EN"
       "http://www.w3.org/Graphics/SVG/1.1/DTD/svg11.dtd">
<svg version="1.1" xmlns="http://www.w3.org/2000/svg" xmlns:xlink="http://www.w3.org/1999/xlink" viewBox="0 0 20.5381 20.1848">
 <g>
  <rect height="20.1848" opacity="0" width="20.5381" x="0" y="0"/>
  <path d="M20.1767 10.0875C20.1767 15.6478 15.6576 20.175 10.0875 20.175C4.52715 20.175 0 15.6478 0 10.0875C0 4.51914 4.52715 0 10.0875 0C15.6576 0 20.1767 4.51914 20.1767 10.0875ZM12.1074 5.72811L8.46952 9.55312L8.4039 9.55312L8.4039 6.40116C8.4039 5.71952 8.05292 5.31796 7.43242 5.31796C6.8377 5.31796 6.48047 5.71776 6.48047 6.40116L6.48047 13.627C6.48047 14.3086 6.8377 14.7084 7.43242 14.7084C8.04765 14.7084 8.4039 14.3156 8.4039 13.648L8.4039 11.8756L9.53945 10.6764L12.2125 14.2307C12.4598 14.5621 12.7045 14.7084 13.0457 14.7084C13.5873 14.7084 13.9746 14.3299 13.9746 13.8166C13.9746 13.5711 13.8832 13.3492 13.7103 13.1117L10.9496 9.46972L13.4838 6.81346C13.701 6.57596 13.7764 6.39237 13.7764 6.12557C13.7764 5.67968 13.3873 5.31796 12.8918 5.31796C12.5879 5.31796 12.3787 5.44023 12.1074 5.72811Z" fill="white" fill-opacity="0.85"/>
 </g>
</svg>
