<?xml version="1.0" encoding="UTF-8"?>
<!--Generator: Apple Native CoreSVG 341-->
<!DOCTYPE svg
PUBLIC "-//W3C//DTD SVG 1.1//EN"
       "http://www.w3.org/Graphics/SVG/1.1/DTD/svg11.dtd">
<svg version="1.1" xmlns="http://www.w3.org/2000/svg" xmlns:xlink="http://www.w3.org/1999/xlink" viewBox="0 0 18.5894 18.2316">
 <g>
  <rect height="18.2316" opacity="0" width="18.5894" x="0" y="0"/>
  <path d="M3.20351 18.2281L15.0246 18.2281C17.1404 18.2281 18.2281 17.1502 18.2281 15.0646L18.2281 3.17148C18.2281 1.08769 17.1404 0 15.0246 0L3.20351 0C1.0957 0 0 1.08769 0 3.17148L0 15.0646C0 17.1502 1.0957 18.2281 3.20351 18.2281ZM3.31444 16.3148C2.40643 16.3148 1.91327 15.8465 1.91327 14.8977L1.91327 3.34023C1.91327 2.39139 2.40643 1.91503 3.31444 1.91503L14.9137 1.91503C15.8137 1.91503 16.3148 2.39139 16.3148 3.34023L16.3148 14.8977C16.3148 15.8465 15.8137 16.3148 14.9137 16.3148Z" fill="white" fill-opacity="0.85"/>
  <path d="M6.56484 13.5519C7.14823 13.5519 7.48769 13.1742 7.48769 12.5447L7.48769 10.8158L8.58417 9.66092L11.1738 13.1008C11.4078 13.4189 11.6393 13.5519 11.9637 13.5519C12.4769 13.5519 12.8475 13.1885 12.8475 12.7035C12.8475 12.4713 12.7676 12.2529 12.6027 12.027L9.92889 8.51269L12.3877 5.94334C12.5836 5.72088 12.6572 5.54081 12.6572 5.28905C12.6572 4.8662 12.2867 4.52304 11.8178 4.52304C11.5227 4.52304 11.3268 4.63026 11.0688 4.91464L7.55331 8.60488L7.48769 8.60488L7.48769 5.54608C7.48769 4.9078 7.15527 4.52304 6.56484 4.52304C5.99668 4.52304 5.65801 4.90604 5.65801 5.54608L5.65801 12.5272C5.65801 13.1689 5.99668 13.5519 6.56484 13.5519Z" fill="white" fill-opacity="0.85"/>
 </g>
</svg>
