<?xml version="1.0" encoding="UTF-8"?>
<!--Generator: Apple Native CoreSVG 341-->
<!DOCTYPE svg
PUBLIC "-//W3C//DTD SVG 1.1//EN"
       "http://www.w3.org/Graphics/SVG/1.1/DTD/svg11.dtd">
<svg version="1.1" xmlns="http://www.w3.org/2000/svg" xmlns:xlink="http://www.w3.org/1999/xlink" viewBox="0 0 28.8677 16.8961">
 <g>
  <rect height="16.8961" opacity="0" width="28.8677" x="0" y="0"/>
  <path d="M7.87498 14.5836L24.3922 14.5836C24.7476 14.5836 25.042 14.2795 25.042 13.916C25.042 13.5605 24.7476 13.2662 24.3922 13.2662L7.87498 13.2662C7.50975 13.2662 7.20741 13.5605 7.20741 13.916C7.20741 14.2795 7.50975 14.5836 7.87498 14.5836ZM9.30428 15.9377L9.30428 11.9031C9.30428 11.1888 8.63436 10.9324 8.06112 11.3654L5.37011 13.3791C4.99823 13.655 4.99472 14.1742 5.37011 14.4502L8.06112 16.4799C8.60682 16.8933 9.30428 16.6707 9.30428 15.9377ZM22.9549 15.9377C22.9549 16.6529 23.6443 16.9093 24.2078 16.4799L26.8988 14.4502C27.2724 14.1742 27.2627 13.647 26.8988 13.3791L24.2078 11.3654C23.6426 10.9324 22.9549 11.1888 22.9549 11.9031Z" fill="white" fill-opacity="0.85"/>
  <path d="M13.6238 7.86834L18.0025 7.86834C20.3685 7.86834 21.0857 7.07889 22.0476 5.43945L22.5308 4.5746C23.2767 2.88885 23.9117 2.016 25.0402 2.016C26.1283 2.016 26.8621 3.16757 26.8621 4.28456C26.8621 5.33418 26.2603 5.75527 25.2629 5.75527C23.8373 5.75527 22.4961 4.97949 21.8383 4.01523L21.1222 5.79979C21.7525 6.94002 23.3072 7.86834 25.1185 7.86834C27.1904 7.86834 28.5064 6.55507 28.5064 4.25449C28.5064 2.10801 27.165 1.77636e-15 25.2359 1.77636e-15C23.7799 1.77636e-15 22.7914 0.904099 21.9261 2.55097L21.3765 3.59902C20.6676 4.95547 20.0722 5.64668 18.242 5.64668L13.8633 5.64668C11.6117 5.64668 11.1367 4.85254 10.6408 3.25449C10.1025 1.59395 9.12733 1.77636e-15 7.35936 1.77636e-15C5.10956 1.77636e-15 3.6998 2.40546 3.31952 4.81483L4.75701 5.09257C5.17518 3.19803 6.15663 2.016 7.23358 2.016C8.33046 2.016 8.9494 3.07948 9.0953 4.00702C9.28124 5.2541 8.48827 5.78906 7.49452 5.78906C6.16698 5.78906 4.93436 5.08203 4.34765 4.15664L3.37792 5.74588C3.98964 6.87869 5.45721 7.86834 7.26522 7.86834C9.12908 7.86834 10.4385 6.8037 10.3246 4.85604L9.72459 5.1576C10.0486 6.70155 11.0517 7.86834 13.6238 7.86834ZM0.884172 14.9613C1.38554 14.9613 1.74432 14.5928 1.74432 14.0771L1.74432 7.62557C1.74432 6.59236 2.0953 6.42107 2.96757 6.30018L4.72811 6.06131L4.25174 4.11504L2.86386 4.3459C0.900192 4.64941 0 5.30566 0 7.62557L0.00800788 14.0851C0.00800788 14.6008 0.374802 14.9613 0.884172 14.9613Z" fill="white" fill-opacity="0.85"/>
 </g>
</svg>
