<?xml version="1.0" encoding="UTF-8"?>
<!--Generator: Apple Native CoreSVG 341-->
<!DOCTYPE svg
PUBLIC "-//W3C//DTD SVG 1.1//EN"
       "http://www.w3.org/Graphics/SVG/1.1/DTD/svg11.dtd">
<svg version="1.1" xmlns="http://www.w3.org/2000/svg" xmlns:xlink="http://www.w3.org/1999/xlink" viewBox="0 0 23.1518 24.4157">
 <g>
  <rect height="24.4157" opacity="0" width="23.1518" x="0" y="0"/>
  <path d="M13.6358 17.9804L13.1675 18.4491L14.948 20.2135C15.2101 20.4854 15.2198 20.8776 14.9497 21.1557L11.8663 24.2391C11.6085 24.4969 11.2009 24.4498 10.9919 24.2434L9.30656 22.594C9.08938 22.3838 8.99719 22.1403 8.99719 21.861L8.99719 13.3469ZM17.7698 6.45805C17.7698 8.9056 16.3887 10.9882 13.8798 12.2683L5.53324 3.92546C6.50596 1.6624 8.75292 0.0932165 11.3952 0.0932165C14.9331 0.0932165 17.7698 2.9397 17.7698 6.45805ZM9.76261 4.23247C9.76261 5.13267 10.4888 5.86509 11.3952 5.86509C12.3017 5.86509 13.0359 5.13267 13.0359 4.23247C13.0359 3.32603 12.3017 2.60161 11.3952 2.60161C10.4808 2.60161 9.76261 3.32427 9.76261 4.23247Z" fill="white" fill-opacity="0.85"/>
  <path d="M1.53195 4.01157L19.3966 21.8567C19.7019 22.1602 20.206 22.1549 20.4962 21.8567C20.7935 21.5434 20.798 21.0623 20.4962 20.7606L2.64309 2.91724C2.33781 2.61197 1.84172 2.61197 1.53195 2.91197C1.23996 3.20572 1.24172 3.72134 1.53195 4.01157Z" fill="white" fill-opacity="0.85"/>
 </g>
</svg>
