<?xml version="1.0" encoding="UTF-8"?>
<!--Generator: Apple Native CoreSVG 341-->
<!DOCTYPE svg
PUBLIC "-//W3C//DTD SVG 1.1//EN"
       "http://www.w3.org/Graphics/SVG/1.1/DTD/svg11.dtd">
<svg version="1.1" xmlns="http://www.w3.org/2000/svg" xmlns:xlink="http://www.w3.org/1999/xlink" viewBox="0 0 22.09 25.2055">
 <g>
  <rect height="25.2055" opacity="0" width="22.09" x="0" y="0"/>
  <path d="M18.4559 13.5816C18.8365 13.8856 19.3508 13.8391 19.6873 13.3967C20.99 11.7008 21.7287 9.3252 21.7287 6.88497C21.7287 4.45001 20.9734 2.04083 19.6873 0.376764C19.3543-0.0593661 18.8383-0.110344 18.4559 0.190044C18.0805 0.483402 18.0535 0.975783 18.3701 1.39551C19.4416 2.85469 20.0516 4.83125 20.0516 6.88497C20.0516 8.9502 19.4203 10.917 18.3701 12.3779C18.065 12.7977 18.0822 13.29 18.4559 13.5816Z" fill="white" fill-opacity="0.85"/>
  <path d="M14.8644 10.9899C15.2141 11.276 15.7504 11.2172 16.0808 10.7951C16.8301 9.83067 17.2687 8.38086 17.2687 6.88497C17.2687 5.38907 16.8301 3.94727 16.0808 2.98282C15.7504 2.55274 15.2141 2.50372 14.8644 2.79785C14.4756 3.11348 14.4371 3.61484 14.7504 4.03633C15.2808 4.76133 15.5916 5.82422 15.5916 6.88497C15.5916 7.94747 15.2728 9.0006 14.7504 9.73185C14.4433 10.1613 14.4756 10.6662 14.8644 10.9899Z" fill="white" fill-opacity="0.85"/>
  <path d="M6.38261 0.488097C2.82695 0.488097 0 3.31681 0 6.85294C0 9.47442 1.5502 11.802 3.98281 12.7772L3.98281 22.2559C3.98281 22.5352 4.075 22.7787 4.28594 22.9889L5.97129 24.6383C6.18828 24.8447 6.59589 24.8918 6.8537 24.634L9.9371 21.5506C10.2072 21.2725 10.1957 20.8803 9.93358 20.6084L8.14686 18.844L10.6447 16.3523C10.8971 16.0902 10.8988 15.6963 10.6287 15.4182L8.20233 12.9758C11.1303 11.7359 12.7572 9.50938 12.7572 6.85294C12.7572 3.33458 9.91073 0.488097 6.38261 0.488097ZM6.38261 6.25997C5.47617 6.25997 4.74999 5.52755 4.74999 4.62735C4.74999 3.71915 5.4664 2.99649 6.38261 2.99649C7.28105 2.99649 8.01523 3.72091 8.01523 4.62735C8.01523 5.52755 7.28105 6.25997 6.38261 6.25997Z" fill="white" fill-opacity="0.85"/>
 </g>
</svg>
