<?xml version="1.0" encoding="UTF-8"?>
<!--Generator: Apple Native CoreSVG 341-->
<!DOCTYPE svg
PUBLIC "-//W3C//DTD SVG 1.1//EN"
       "http://www.w3.org/Graphics/SVG/1.1/DTD/svg11.dtd">
<svg version="1.1" xmlns="http://www.w3.org/2000/svg" xmlns:xlink="http://www.w3.org/1999/xlink" viewBox="0 0 32.1153 25.2055">
 <g>
  <rect height="25.2055" opacity="0" width="32.1153" x="0" y="0"/>
  <path d="M24.7079 0.376764C25.994 2.04083 26.7413 4.45001 26.7413 6.88497C26.7413 9.3252 26.0106 11.7008 24.7079 13.3967C24.3634 13.8391 23.8491 13.8856 23.4685 13.5816C23.0966 13.29 23.0776 12.7977 23.3827 12.3779C24.4329 10.917 25.0642 8.9502 25.0642 6.88497C25.0642 4.83125 24.4542 2.85469 23.3827 1.39551C23.0679 0.975783 23.0948 0.483402 23.4685 0.190044C23.8509-0.110344 24.3669-0.0593661 24.7079 0.376764Z" fill="white" fill-opacity="0.85"/>
  <path d="M21.0935 2.98282C21.8507 3.94727 22.2894 5.38907 22.2894 6.88497C22.2894 8.38086 21.8507 9.83067 21.0935 10.7951C20.7648 11.2172 20.2267 11.276 19.8771 10.9899C19.4882 10.6662 19.456 10.1613 19.771 9.73185C20.2872 9.0006 20.6122 7.94747 20.6122 6.88497C20.6122 5.82422 20.2952 4.76133 19.771 4.03633C19.4497 3.61484 19.4882 3.11348 19.8771 2.79785C20.2267 2.50372 20.7648 2.55274 21.0935 2.98282Z" fill="white" fill-opacity="0.85"/>
  <path d="M13.6358 18.3753L13.1675 18.844L14.948 20.6084C15.2101 20.8803 15.2198 21.2725 14.9497 21.5506L11.8663 24.634C11.6085 24.8918 11.2009 24.8447 10.9919 24.6383L9.30656 22.9889C9.08938 22.7787 8.99719 22.5352 8.99719 22.2559L8.99719 13.7418ZM17.7698 6.85294C17.7698 9.30048 16.3887 11.3831 13.8798 12.6632L5.53324 4.32034C6.50596 2.05728 8.75292 0.488097 11.3952 0.488097C14.9331 0.488097 17.7698 3.33458 17.7698 6.85294ZM9.76261 4.62735C9.76261 5.52755 10.4888 6.25997 11.3952 6.25997C12.3017 6.25997 13.0359 5.52755 13.0359 4.62735C13.0359 3.72091 12.3017 2.99649 11.3952 2.99649C10.4808 2.99649 9.76261 3.71915 9.76261 4.62735Z" fill="white" fill-opacity="0.85"/>
  <path d="M1.53195 4.40646L19.3966 22.2516C19.7019 22.5551 20.206 22.5498 20.4962 22.2516C20.7935 21.9383 20.798 21.4572 20.4962 21.1555L2.64309 3.31212C2.33781 3.00685 1.84172 3.00685 1.53195 3.30685C1.23996 3.6006 1.24172 4.11622 1.53195 4.40646Z" fill="white" fill-opacity="0.85"/>
 </g>
</svg>
