<?xml version="1.0" encoding="UTF-8"?>
<!--Generator: Apple Native CoreSVG 341-->
<!DOCTYPE svg
PUBLIC "-//W3C//DTD SVG 1.1//EN"
       "http://www.w3.org/Graphics/SVG/1.1/DTD/svg11.dtd">
<svg version="1.1" xmlns="http://www.w3.org/2000/svg" xmlns:xlink="http://www.w3.org/1999/xlink" viewBox="0 0 24.8897 13.266">
 <g>
  <rect height="13.266" opacity="0" width="24.8897" x="0" y="0"/>
  <path d="M0.309965 5.88574C-0.0767527 6.33008-0.125581 6.95097 0.300199 7.36874L3.30977 10.3863C3.73555 10.8121 4.38926 10.7943 4.80078 10.3766L6.23789 8.9412L8.37637 11.0699C8.78613 11.4859 9.4416 11.4797 9.85937 11.0619L11.8268 9.11229C13.1307 11.7609 15.335 13.2482 17.9176 13.2482C21.5818 13.2482 24.5279 10.2959 24.5279 6.62812C24.5279 2.94883 21.5916 0 17.9176 0C15.2943 0 12.9428 1.50039 11.8777 3.87695L2.70195 3.87695C2.35684 3.87695 1.95586 3.98516 1.69766 4.29394ZM2.02597 6.62812L3.08886 5.57148L13.1432 5.57148C13.6389 3.33359 15.5887 1.73827 17.9176 1.73827C20.6063 1.73827 22.7781 3.91992 22.7781 6.62812C22.7781 9.32832 20.6143 11.4984 17.9176 11.4984C15.6145 11.4984 13.6371 9.89336 13.0916 7.45801L10.9809 7.45801L9.10723 9.32637L7.12851 7.32637L5.37481 7.32637L4.06992 8.64453ZM18.1772 6.62812C18.1772 7.50351 18.89 8.21464 19.7637 8.21464C20.6408 8.21464 21.3422 7.50351 21.3422 6.62812C21.3422 5.74296 20.6426 5.04961 19.7637 5.04961C18.89 5.04961 18.1772 5.75097 18.1772 6.62812Z" fill="white" fill-opacity="0.85"/>
 </g>
</svg>
