<?xml version="1.0" encoding="UTF-8"?>
<!--Generator: Apple Native CoreSVG 341-->
<!DOCTYPE svg
PUBLIC "-//W3C//DTD SVG 1.1//EN"
       "http://www.w3.org/Graphics/SVG/1.1/DTD/svg11.dtd">
<svg version="1.1" xmlns="http://www.w3.org/2000/svg" xmlns:xlink="http://www.w3.org/1999/xlink" viewBox="0 0 35.7275 16.2203">
 <g>
  <rect height="16.2203" opacity="0" width="35.7275" x="0" y="0"/>
  <path d="M10.9125 13.1014C10.9125 14.7806 9.583 16.1084 7.89745 16.1084C6.21992 16.1084 4.89042 14.7806 4.89042 13.1014C4.89042 11.4238 6.21992 10.0961 7.89745 10.0961C9.583 10.0961 10.9125 11.4238 10.9125 13.1014ZM30.4775 13.1014C30.4775 14.7806 29.148 16.1084 27.4625 16.1084C25.7849 16.1084 24.4555 14.7806 24.4555 13.1014C24.4555 11.4238 25.7849 10.0961 27.4625 10.0961C29.148 10.0961 30.4775 11.4238 30.4775 13.1014ZM30.9789 3.69179L32.5193 4.21289C34.4328 4.85175 35.3662 6.02324 35.3662 7.9082L35.3662 10.6361C35.3662 12.9773 34.3221 14.0738 32.1113 14.0738L31.5619 14.0738C31.6355 13.7553 31.6799 13.4332 31.6799 13.1014C31.6799 10.7557 29.8144 8.90175 27.4625 8.90175C25.1168 8.90175 23.2531 10.7557 23.2531 13.1014C23.2531 13.4332 23.2939 13.7553 23.3613 14.0738L11.9906 14.0738C12.0642 13.7553 12.1068 13.4332 12.1068 13.1014C12.1068 10.7557 10.2494 8.90175 7.89745 8.90175C5.54374 8.90175 3.68808 10.7557 3.68808 13.1014C3.68808 13.4332 3.7289 13.7553 3.79629 14.0738L3.25488 14.0738C1.06015 14.0738 0 12.9969 0 10.6982L0 9.44999C0 7.05214 1.69414 5.29863 4.49062 4.95781L8.82558 4.43047L12.7912 1.93945C15.2295 0.405664 16.9391 0 20.992 0L22.5062 0C26.2246 0 29.0115 2.00859 30.9789 3.69179ZM17.8373 5.75332L13.3674 5.75332C13.2441 5.75332 13.1351 5.79765 13.0224 5.89609L12.2535 6.68261C12.1596 6.79433 12.148 6.96445 12.2588 7.09296L13.7062 8.53866C13.8303 8.67245 14.0056 8.66542 14.1394 8.53691L14.9836 7.69003L16.159 8.87968C16.2652 9.0037 16.4521 8.99745 16.5859 8.85566L17.75 7.70936C18.3199 9.09862 19.3793 9.86425 20.6252 9.86425C22.2801 9.86425 23.6144 8.52812 23.6144 6.87949C23.6144 5.21308 22.2801 3.8787 20.6252 3.8787C19.3848 3.8787 18.2953 4.60956 17.8373 5.75332ZM22.1596 6.86972C22.1596 7.3705 21.7387 7.77538 21.2459 7.77538C20.7308 7.77538 20.3357 7.3705 20.3357 6.86972C20.3357 6.36445 20.7308 5.95956 21.2459 5.95956C21.7387 5.95956 22.1596 6.35644 22.1596 6.86972Z" fill="white" fill-opacity="0.85"/>
 </g>
</svg>
