<?xml version="1.0" encoding="UTF-8"?>
<!--Generator: Apple Native CoreSVG 341-->
<!DOCTYPE svg
PUBLIC "-//W3C//DTD SVG 1.1//EN"
       "http://www.w3.org/Graphics/SVG/1.1/DTD/svg11.dtd">
<svg version="1.1" xmlns="http://www.w3.org/2000/svg" xmlns:xlink="http://www.w3.org/1999/xlink" viewBox="0 0 38.1449 16.2613">
 <g>
  <rect height="16.2613" opacity="0" width="38.1449" x="0" y="0"/>
  <path d="M10.3564 13.2943C10.3564 14.818 9.14081 16.0301 7.61268 16.0301C6.09706 16.0301 4.87343 14.8099 4.87343 13.2943C4.87343 11.7724 6.09706 10.5506 7.61268 10.5506C9.1328 10.5506 10.3564 11.7724 10.3564 13.2943ZM31.0877 13.2943C31.0877 14.8099 29.8658 16.0301 28.3439 16.0301C26.8221 16.0301 25.5984 14.8099 25.5984 13.2943C25.5984 11.7805 26.8301 10.5506 28.3439 10.5506C29.8658 10.5506 31.0877 11.7724 31.0877 13.2943ZM26.9744 3.08769L27.1789 4.83907L35.0219 4.83907C36.7363 4.83907 37.7836 5.87695 37.7836 7.58828L37.7836 11.558C37.7836 13.2535 36.7802 14.2773 35.1308 14.2773L32.156 14.2773C32.2394 13.957 32.282 13.6377 32.282 13.2943C32.282 11.1123 30.5242 9.35624 28.3439 9.35624C26.1717 9.35624 24.4041 11.1221 24.4041 13.2943C24.4041 13.6377 24.4467 13.957 24.5318 14.2773L11.431 14.2773C11.5082 13.965 11.5508 13.6377 11.5508 13.2943C11.5508 11.1123 9.7912 9.35624 7.61268 9.35624C5.43867 9.35624 3.67109 11.1123 3.67109 13.2943C3.67109 13.6377 3.72343 13.957 3.79882 14.2773L2.66249 14.2773C1.01308 14.2773 0 13.2746 0 11.558L0 9.18417C0 6.73105 1.45742 5.35605 4.55878 4.90508L8.17147 4.36953L12.134 1.88887C14.3705 0.479493 16.2865 0 19.6103 0L23.5416 0C25.5762 0 26.7375 1.04863 26.9744 3.08769ZM17.8355 6.14199L13.3656 6.14199C13.2424 6.14199 13.1351 6.18632 13.0224 6.28476L12.2517 7.07128C12.1578 7.183 12.148 7.35312 12.2588 7.48339L13.7062 8.92909C13.8285 9.06112 14.0056 9.05585 14.1377 8.92558L14.9738 8.0787L16.159 9.27011C16.2652 9.39237 16.4504 9.37812 16.5842 9.24433L17.7482 8.09803C18.3181 9.47929 19.3695 10.2529 20.6234 10.2529C22.2703 10.2529 23.6064 8.91855 23.6064 7.26015C23.6064 5.60175 22.2783 4.26737 20.6234 4.26737C19.3848 4.26737 18.2935 4.99824 17.8355 6.14199ZM22.1578 7.25214C22.1578 7.75917 21.7369 8.16406 21.2441 8.16406C20.7308 8.16406 20.334 7.75917 20.334 7.25214C20.334 6.75312 20.7308 6.34823 21.2441 6.34823C21.7369 6.34823 22.1578 6.74511 22.1578 7.25214Z" fill="white" fill-opacity="0.85"/>
 </g>
</svg>
