<?xml version="1.0" encoding="UTF-8"?>
<!--Generator: Apple Native CoreSVG 341-->
<!DOCTYPE svg
PUBLIC "-//W3C//DTD SVG 1.1//EN"
       "http://www.w3.org/Graphics/SVG/1.1/DTD/svg11.dtd">
<svg version="1.1" xmlns="http://www.w3.org/2000/svg" xmlns:xlink="http://www.w3.org/1999/xlink" viewBox="0 0 36.9023 16.6972">
 <g>
  <rect height="16.6972" opacity="0" width="36.9023" x="0" y="0"/>
  <path d="M11.1865 13.6902C11.1865 15.3695 9.85702 16.6972 8.17148 16.6972C6.49394 16.6972 5.16445 15.3695 5.16445 13.6902C5.16445 12.0127 6.49394 10.6849 8.17148 10.6849C9.85702 10.6849 11.1865 12.0127 11.1865 13.6902ZM31.4967 13.6902C31.4967 15.3695 30.1672 16.6972 28.4834 16.6972C26.7961 16.6972 25.4666 15.3695 25.4666 13.6902C25.4666 12.0127 26.7961 10.6849 28.4834 10.6849C30.1672 10.6849 31.4967 12.0127 31.4967 13.6902ZM19.0387 1.9914C17.4392 2.86464 16.1672 3.71836 14.9086 4.6375L24.4769 4.03867C26.1178 3.93125 27.3398 4.04765 28.7875 4.31308L33.3638 5.15742C35.6457 5.57461 36.541 6.60312 36.541 9.00546L36.541 10.8207C36.541 12.8502 35.5871 13.9426 33.618 14.1467L32.6707 14.2453C32.6875 14.1 32.691 14.0107 32.691 13.8539C32.691 11.518 30.8273 9.49062 28.4834 9.49062C26.1377 9.49062 24.2723 11.3543 24.2723 13.6902C24.2723 14.0096 24.3086 14.3236 24.384 14.5719L12.2949 14.5719C12.3543 14.3414 12.3808 14.0015 12.3808 13.6902C12.3808 11.3543 10.5154 9.49062 8.17148 9.49062C5.82754 9.49062 3.96211 11.3543 3.96211 13.6902C3.96211 14.076 4.02148 14.6281 4.11894 14.9617L2.26425 14.7414C0.699998 14.5648 0 13.7859 0 12.2297L0 10.8359C0 8.18398 1.65332 6.65586 4.90976 6.04609L11.5707 4.79785C13.4559 3.21719 15.6723 1.75899 18.0527 0.47305C19.2222-0.158197 20.1133 1.38887 19.0387 1.9914ZM18.1898 8.17851L13.9139 8.17851C13.7906 8.17851 13.6914 8.21484 13.5787 8.31327L12.8498 9.06777C12.7478 9.17148 12.7461 9.34159 12.8551 9.4621L14.2385 10.85C14.3527 10.9758 14.5281 10.9687 14.6539 10.8482L15.458 10.0351L16.5853 11.175C16.6916 11.2892 16.8607 11.2848 16.9945 11.159L18.1105 10.0607C18.6564 11.3779 19.666 12.1195 20.8639 12.1195C22.4449 12.1195 23.7232 10.8412 23.7232 9.25487C23.7232 7.6623 22.4449 6.38573 20.8639 6.38573C19.6812 6.38573 18.6318 7.08456 18.1898 8.17851ZM22.3244 9.24687C22.3244 9.73163 21.9275 10.1107 21.4605 10.1107C20.9615 10.1107 20.5807 9.73163 20.5807 9.24687C20.5807 8.76562 20.9615 8.37675 21.4605 8.37675C21.9275 8.37675 22.3244 8.75761 22.3244 9.24687Z" fill="white" fill-opacity="0.85"/>
 </g>
</svg>
