<?xml version="1.0" encoding="UTF-8"?>
<!--Generator: Apple Native CoreSVG 341-->
<!DOCTYPE svg
PUBLIC "-//W3C//DTD SVG 1.1//EN"
       "http://www.w3.org/Graphics/SVG/1.1/DTD/svg11.dtd">
<svg version="1.1" xmlns="http://www.w3.org/2000/svg" xmlns:xlink="http://www.w3.org/1999/xlink" viewBox="0 0 13.5724 21.1441">
 <g>
  <rect height="21.1441" opacity="0" width="13.5724" x="0" y="0"/>
  <path d="M13.2111 3.12343L13.2111 18.0225C13.2111 19.7148 12.1652 21.1379 9.79412 21.1379L3.41699 21.1379C1.0459 21.1379 0 19.7148 0 18.0225L0 3.12343C0 1.43105 1.0459 0 3.41699 0L9.79412 0C12.1652 0 13.2111 1.43105 13.2111 3.12343ZM3.66229 9.62128C3.66229 10.8199 4.35937 11.8853 5.46933 12.3371L5.46933 16.6016C5.46933 16.7426 5.51542 16.8596 5.62362 16.966L6.37812 17.7154C6.49159 17.8191 6.70175 17.8369 6.84276 17.7119L8.24393 16.3205C8.39647 16.1725 8.38046 15.9678 8.24042 15.8117L7.47186 15.0609L8.55917 13.9576C8.6912 13.8256 8.6912 13.6111 8.55917 13.4746L7.50897 12.4164C8.80565 11.8447 9.53573 10.8254 9.53573 9.62128C9.53573 8.00468 8.22538 6.69433 6.60702 6.69433C4.96464 6.69433 3.66229 7.99667 3.66229 9.62128ZM7.3787 8.65917C7.3787 9.08632 7.02792 9.44687 6.59901 9.44687C6.15233 9.44687 5.79979 9.08632 5.79979 8.65917C5.79979 8.21874 6.14433 7.86972 6.59901 7.86972C7.02792 7.86972 7.3787 8.22226 7.3787 8.65917ZM3.48651 2.64315C3.10116 2.64315 2.77167 2.9664 2.77167 3.35976L2.77167 3.67421C2.77167 3.8373 2.90819 3.98358 3.07128 3.98358L10.1398 3.98358C10.3029 3.98358 10.4412 3.8373 10.4412 3.67421L10.4412 3.35976C10.4412 2.9664 10.1099 2.64315 9.72636 2.64315Z" fill="white" fill-opacity="0.85"/>
 </g>
</svg>
