<?xml version="1.0" encoding="UTF-8"?>
<!--Generator: Apple Native CoreSVG 341-->
<!DOCTYPE svg
PUBLIC "-//W3C//DTD SVG 1.1//EN"
       "http://www.w3.org/Graphics/SVG/1.1/DTD/svg11.dtd">
<svg version="1.1" xmlns="http://www.w3.org/2000/svg" xmlns:xlink="http://www.w3.org/1999/xlink" viewBox="0 0 20.5381 20.1848">
 <g>
  <rect height="20.1848" opacity="0" width="20.5381" x="0" y="0"/>
  <path d="M10.0875 20.175C15.6576 20.175 20.1767 15.6559 20.1767 10.0875C20.1767 4.51914 15.6576 0 10.0875 0C4.51914 0 0 4.51914 0 10.0875C0 15.6559 4.51914 20.175 10.0875 20.175ZM10.0875 18.1879C5.60839 18.1879 1.9871 14.5666 1.9871 10.0875C1.9871 5.60839 5.60839 1.9871 10.0875 1.9871C14.5666 1.9871 18.1897 5.60839 18.1897 10.0875C18.1897 14.5666 14.5666 18.1879 10.0875 18.1879Z" fill="white" fill-opacity="0.85"/>
  <path d="M10.0875 4.26522C8.32617 4.26522 6.90039 5.68124 6.90039 7.45058C6.90039 8.76112 7.67031 9.92245 8.90195 10.4098L8.90195 15.1664C8.90195 15.2994 8.94004 15.4217 9.04023 15.5281L9.88711 16.3459C9.98984 16.4514 10.1955 16.4771 10.316 16.3406L11.8691 14.8035C11.9949 14.676 11.9851 14.4758 11.8691 14.3482L10.9637 13.4508L12.2217 12.199C12.3475 12.0795 12.3492 11.8811 12.2137 11.7437L10.9945 10.5086C12.4574 9.89609 13.2746 8.7746 13.2746 7.45058C13.2746 5.69101 11.8666 4.26522 10.0875 4.26522ZM10.0875 7.32226C9.59023 7.32226 9.19511 6.91913 9.19511 6.42187C9.19511 5.92284 9.59023 5.52948 10.0875 5.52948C10.5865 5.52948 10.9879 5.92284 10.9879 6.42187C10.9879 6.91913 10.5865 7.32226 10.0875 7.32226Z" fill="white" fill-opacity="0.85"/>
 </g>
</svg>
