<?xml version="1.0" encoding="UTF-8"?>
<!--Generator: Apple Native CoreSVG 341-->
<!DOCTYPE svg
PUBLIC "-//W3C//DTD SVG 1.1//EN"
       "http://www.w3.org/Graphics/SVG/1.1/DTD/svg11.dtd">
<svg version="1.1" xmlns="http://www.w3.org/2000/svg" xmlns:xlink="http://www.w3.org/1999/xlink" viewBox="0 0 18.2311 27.2258">
 <g>
  <rect height="27.2258" opacity="0" width="18.2311" x="0" y="0"/>
  <path d="M15.434 26.8365C15.6791 26.933 16.0371 26.8756 16.1904 26.5619L17.8039 23.0561C17.9537 22.7522 17.8217 22.4582 17.5355 22.3129L15.5078 21.3621L16.8289 18.5379C16.9662 18.2402 16.8457 17.9223 16.5223 17.769L13.7748 16.4609C15.8312 14.551 16.5207 12.2084 15.7117 9.98652C15.3281 8.9414 14.6799 8.08457 13.8514 7.46133C13.4119 8.82754 12.4922 9.95761 11.2777 10.6758C11.2539 11.2014 10.9121 11.6826 10.3848 11.8797C9.64004 12.1514 8.8207 11.759 8.55351 11.0098C8.28183 10.2828 8.65293 9.46523 9.4039 9.18828C9.82754 9.03906 10.293 9.09687 10.6375 9.33418C11.567 8.75176 12.2666 7.80625 12.5055 6.68145C11.258 6.18945 9.8498 6.13613 8.49668 6.62891C5.53945 7.70312 4.06308 10.9062 5.12129 13.8359C5.91777 16.0238 7.91309 17.4994 10.2262 17.5541L13.1115 25.4863C13.1984 25.7205 13.3402 25.8977 13.5814 26.0006ZM1.71991 26.5867L5.21777 24.9492C5.51992 24.8137 5.63769 24.4904 5.49238 24.2043L4.5496 22.1703L7.37832 20.86C7.6582 20.7111 7.78398 20.3984 7.63867 20.075L6.77147 18.1752C6.7662 18.0846 6.76268 17.9975 6.75741 17.8988C5.41621 17.1709 4.34277 15.9 3.77402 14.3365C2.63672 11.2033 3.83399 7.75312 6.76211 6.05957C4.28692 6.05488 2.24922 7.49394 1.42168 9.73047C0.625195 11.9104 1.21856 14.3246 2.95293 15.8596L0.0578114 23.7901C-0.0210944 24.026-0.0246099 24.2652 0.0808582 24.4852L0.983007 26.3166C1.09531 26.5547 1.41425 26.7418 1.71991 26.5867ZM3.03515 7.78203L4.37597 7.14043C4.225 6.70176 4.15039 6.22578 4.15039 5.73379C4.15039 3.37285 6.00253 1.49316 8.35547 1.49316C10.7146 1.49316 12.6076 3.37285 12.6076 5.73379C12.6076 6.05176 12.5881 6.39727 12.5055 6.68145C12.9881 6.86602 13.4379 7.13574 13.8514 7.46133C14.0111 6.93672 14.1168 6.31699 14.1168 5.73379C14.1168 2.59043 11.5166 0 8.36347 0C5.22637 0 2.64922 2.58867 2.64922 5.73379C2.64922 6.45527 2.78672 7.15546 3.03515 7.78203Z" fill="white" fill-opacity="0.85"/>
 </g>
</svg>
