<?xml version="1.0" encoding="UTF-8"?>
<!--Generator: Apple Native CoreSVG 341-->
<!DOCTYPE svg
PUBLIC "-//W3C//DTD SVG 1.1//EN"
       "http://www.w3.org/Graphics/SVG/1.1/DTD/svg11.dtd">
<svg version="1.1" xmlns="http://www.w3.org/2000/svg" xmlns:xlink="http://www.w3.org/1999/xlink" viewBox="0 0 23.6285 24.6527">
 <g>
  <rect height="24.6527" opacity="0" width="23.6285" x="0" y="0"/>
  <path d="M10.5778 15.0443L10.5778 21.4453L11.6327 22.5002L13.6491 20.4562L12.331 19.1594L12.331 17.3977L12.6344 17.0987L15.6218 20.0828C15.78 20.4597 15.71 20.8991 15.3927 21.2164L12.3751 24.234C11.9573 24.6517 11.3364 24.6029 10.8921 24.2242L9.29855 22.8365C8.98977 22.5703 8.88156 22.1693 8.88156 21.8242L8.88156 13.3499ZM18.2528 6.60859C18.2528 9.18089 16.7865 11.3644 14.1716 12.6784L12.8359 11.3434C15.0629 10.6898 16.5048 8.7991 16.5048 6.60859C16.5048 3.91992 14.3329 1.74804 11.6327 1.74804C9.34219 1.74804 7.42957 3.30168 6.89973 5.40985L5.52101 4.03175C6.52165 1.65329 8.87241 0 11.6327 0C15.3023 0 18.2528 2.95234 18.2528 6.60859ZM13.221 4.76249C13.221 5.63613 12.5099 6.34902 11.6327 6.34902C10.7573 6.34902 10.0542 5.63613 10.0542 4.76249C10.0542 3.8916 10.7493 3.19199 11.6327 3.19199C12.5099 3.19199 13.221 3.89335 13.221 4.76249Z" fill="white" fill-opacity="0.85"/>
  <path d="M1.53195 4.13008L19.3966 21.9752C19.7019 22.2787 20.206 22.2734 20.4962 21.9752C20.7935 21.6619 20.798 21.1809 20.4962 20.8791L2.64309 3.03574C2.33781 2.73047 1.84172 2.73047 1.53195 3.03047C1.23996 3.32422 1.24172 3.83984 1.53195 4.13008Z" fill="white" fill-opacity="0.85"/>
 </g>
</svg>
