<?xml version="1.0" encoding="UTF-8"?>
<!--Generator: Apple Native CoreSVG 341-->
<!DOCTYPE svg
PUBLIC "-//W3C//DTD SVG 1.1//EN"
       "http://www.w3.org/Graphics/SVG/1.1/DTD/svg11.dtd">
<svg version="1.1" xmlns="http://www.w3.org/2000/svg" xmlns:xlink="http://www.w3.org/1999/xlink" viewBox="0 0 24.6976 12.775">
 <g>
  <rect height="12.775" opacity="0" width="24.6976" x="0" y="0"/>
  <path d="M24.3216 6.38261C24.3216 2.83496 21.4929 0 17.9585 0C15.3273 0 13.0078 1.5502 12.0343 3.98281L2.55561 3.98281C2.27456 3.98281 2.03101 4.075 1.81284 4.29394L0.165188 5.97929C-0.0332483 6.18828-0.0803186 6.59589 0.177492 6.8537L3.25913 9.9371C3.53901 10.2072 3.92944 10.1957 4.20131 9.93358L5.96577 8.15487L8.45913 10.6447C8.71948 10.9051 9.11342 10.9068 9.39155 10.6287L11.8339 8.20233C13.0738 11.1303 15.3021 12.7572 17.9585 12.7572C21.4751 12.7572 24.3216 9.9205 24.3216 6.38261ZM18.5498 6.38261C18.5498 5.47617 19.2839 4.74999 20.1824 4.74999C21.0906 4.74999 21.8132 5.46816 21.8132 6.38261C21.8132 7.28906 21.0888 8.02324 20.1824 8.02324C19.2839 8.02324 18.5498 7.28906 18.5498 6.38261Z" fill="white" fill-opacity="0.85"/>
 </g>
</svg>
