<?xml version="1.0" encoding="UTF-8"?>
<!--Generator: Apple Native CoreSVG 341-->
<!DOCTYPE svg
PUBLIC "-//W3C//DTD SVG 1.1//EN"
       "http://www.w3.org/Graphics/SVG/1.1/DTD/svg11.dtd">
<svg version="1.1" xmlns="http://www.w3.org/2000/svg" xmlns:xlink="http://www.w3.org/1999/xlink" viewBox="0 0 36.2554 17.7664">
 <g>
  <rect height="17.7664" opacity="0" width="36.2554" x="0" y="0"/>
  <path d="M33.3955 2.258C34.9832 3.97011 35.8941 6.34725 35.8941 8.88182C35.8941 11.4199 35.0095 13.7732 33.3955 15.5092C32.9611 15.9756 32.365 15.958 32.0261 15.5562C31.6943 15.173 31.7972 14.6824 32.1681 14.2627C33.4398 12.8498 34.1511 10.9551 34.1511 8.88182C34.1511 6.81034 33.4433 4.91737 32.1681 3.50448C31.7955 3.08475 31.6908 2.59413 32.0261 2.21092C32.3668 1.80292 32.9646 1.78808 33.3955 2.258ZM3.86796 2.20565C4.20332 2.58885 4.09863 3.08123 3.72597 3.50096C2.45078 4.9121 1.74296 6.80682 1.74296 8.87831C1.74296 10.9516 2.45429 12.8463 3.72597 14.2574C4.09687 14.6771 4.1998 15.1695 3.86796 15.5527C3.5291 15.9527 2.93301 15.9721 2.49863 15.5057C0.886329 13.7697 0 11.4164 0 8.87831C0 6.34374 0.910938 3.96659 2.49863 2.25272C2.92949 1.78456 3.52734 1.7994 3.86796 2.20565Z" fill="white" fill-opacity="0.85"/>
  <path d="M30.5593 5.06776C31.3966 6.08202 31.8691 7.43397 31.8691 8.88182C31.8691 10.3297 31.3966 11.6816 30.5593 12.6959C30.1631 13.174 29.5209 13.1607 29.1775 12.759C28.8545 12.3775 28.9779 11.9064 29.3009 11.4689C29.8412 10.7857 30.1261 9.84647 30.1261 8.88182C30.1261 7.91717 29.8412 6.97167 29.3009 6.29471C28.9797 5.85545 28.8545 5.38612 29.1775 5.00643C29.5209 4.59667 30.1631 4.58788 30.5593 5.06776ZM6.71659 5.00116C7.03964 5.3826 6.91444 5.85194 6.59316 6.28944C6.05292 6.96639 5.76796 7.91366 5.76796 8.87831C5.76796 9.84296 6.05292 10.7805 6.59316 11.4637C6.9162 11.9029 7.03964 12.374 6.71659 12.7537C6.37323 13.1555 5.73105 13.1705 5.33476 12.6906C4.49746 11.6781 4.025 10.3262 4.025 8.87831C4.025 7.43046 4.49746 6.0785 5.33476 5.06249C5.73105 4.58436 6.37323 4.59139 6.71659 5.00116Z" fill="white" fill-opacity="0.85"/>
  <path d="M26.8306 8.88182C26.8306 13.7887 22.8556 17.7556 17.9488 17.7556C13.042 17.7556 9.06699 13.7887 9.06699 8.88182C9.06699 3.97499 13.042 0 17.9488 0C22.8556 0 26.8306 3.97499 26.8306 8.88182ZM14.8037 6.2576C14.8037 7.56541 15.5513 8.70799 16.7625 9.1908L16.7625 13.8814C16.7625 14.0162 16.8103 14.126 16.9105 14.2387L17.7467 15.0439C17.8494 15.1592 18.0488 15.1769 18.1693 15.0387L19.7054 13.5283C19.833 13.4008 19.8232 13.1971 19.7054 13.0695L18.8142 12.1943L20.0517 10.9533C20.1775 10.8355 20.1793 10.6336 20.0437 10.5025L18.8451 9.28163C20.2892 8.67186 21.0939 7.58065 21.0939 6.2576C21.0939 4.53104 19.7029 3.11424 17.9488 3.11424C16.193 3.11424 14.8037 4.52303 14.8037 6.2576ZM18.8269 5.24764C18.8269 5.74042 18.4433 6.13553 17.9488 6.13553C17.4463 6.13553 17.0609 5.74042 17.0609 5.24764C17.0609 4.75487 17.4463 4.35975 17.9488 4.35975C18.4433 4.35975 18.8269 4.75487 18.8269 5.24764Z" fill="white" fill-opacity="0.85"/>
 </g>
</svg>
