<?xml version="1.0" encoding="UTF-8"?>
<!--Generator: Apple Native CoreSVG 341-->
<!DOCTYPE svg
PUBLIC "-//W3C//DTD SVG 1.1//EN"
       "http://www.w3.org/Graphics/SVG/1.1/DTD/svg11.dtd">
<svg version="1.1" xmlns="http://www.w3.org/2000/svg" xmlns:xlink="http://www.w3.org/1999/xlink" viewBox="0 0 25.2332 15.8051">
 <g>
  <rect height="15.8051" opacity="0" width="25.2332" x="0" y="0"/>
  <path d="M3.20351 15.79L21.6666 15.79C23.7682 15.79 24.8719 14.7041 24.8719 12.6185L24.8719 3.16347C24.8719 1.08769 23.7682 0 21.6666 0L3.20351 0C1.08769 0 0 1.07968 0 3.16347L0 12.6185C0 14.7041 1.08769 15.79 3.20351 15.79ZM3.9244 5.59784C3.63339 5.59784 3.45859 5.41503 3.45859 5.12577L3.45859 4.18573C3.45859 3.89296 3.63339 3.71191 3.9244 3.71191L4.86269 3.71191C5.15995 3.71191 5.34276 3.89296 5.34276 4.18573L5.34276 5.12577C5.34276 5.41503 5.15995 5.59784 4.86269 5.59784ZM7.1332 5.59784C6.83593 5.59784 6.66113 5.41503 6.66113 5.12577L6.66113 4.18573C6.66113 3.89296 6.83593 3.71191 7.1332 3.71191L8.07148 3.71191C8.36425 3.71191 8.5453 3.89296 8.5453 4.18573L8.5453 5.12577C8.5453 5.41503 8.36425 5.59784 8.07148 5.59784ZM10.3455 5.59784C10.0545 5.59784 9.87167 5.41503 9.87167 5.12577L9.87167 4.18573C9.87167 3.89296 10.0545 3.71191 10.3455 3.71191L11.2758 3.71191C11.573 3.71191 11.7559 3.89296 11.7559 4.18573L11.7559 5.12577C11.7559 5.41503 11.573 5.59784 11.2758 5.59784ZM13.5543 5.59784C13.265 5.59784 13.0822 5.41503 13.0822 5.12577L13.0822 4.18573C13.0822 3.89296 13.265 3.71191 13.5543 3.71191L14.4926 3.71191C14.7818 3.71191 14.9664 3.89296 14.9664 4.18573L14.9664 5.12577C14.9664 5.41503 14.7818 5.59784 14.4926 5.59784ZM16.7859 5.59784C16.4764 5.59784 16.2848 5.41503 16.2848 5.12577L16.2848 4.18573C16.2848 3.89296 16.4764 3.71191 16.7859 3.71191L17.7049 3.71191C17.9941 3.71191 18.1672 3.89296 18.1672 4.18573L18.1672 5.12577C18.1672 5.41503 17.9941 5.59784 17.7049 5.59784ZM19.9754 5.59784C19.6781 5.59784 19.4953 5.41503 19.4953 5.12577L19.4953 4.18573C19.4953 3.89296 19.6781 3.71191 19.9754 3.71191L20.9057 3.71191C21.2029 3.71191 21.3795 3.89296 21.3795 4.18573L21.3795 5.12577C21.3795 5.41503 21.2029 5.59784 20.9057 5.59784ZM3.9244 8.83124C3.63339 8.83124 3.45859 8.64843 3.45859 8.35741L3.45859 7.41738C3.45859 7.12812 3.63339 6.94355 3.9244 6.94355L4.86269 6.94355C5.15995 6.94355 5.34276 7.12812 5.34276 7.41738L5.34276 8.35741C5.34276 8.64843 5.15995 8.83124 4.86269 8.83124ZM7.1332 8.83124C6.83593 8.83124 6.66113 8.64843 6.66113 8.35741L6.66113 7.41738C6.66113 7.12812 6.83593 6.94355 7.1332 6.94355L8.07148 6.94355C8.36425 6.94355 8.5453 7.12812 8.5453 7.41738L8.5453 8.35741C8.5453 8.64843 8.36425 8.83124 8.07148 8.83124ZM10.3455 8.83124C10.0545 8.83124 9.87167 8.64843 9.87167 8.35741L9.87167 7.41738C9.87167 7.12812 10.0545 6.94355 10.3455 6.94355L11.2758 6.94355C11.573 6.94355 11.7559 7.12812 11.7559 7.41738L11.7559 8.35741C11.7559 8.64843 11.573 8.83124 11.2758 8.83124ZM13.5543 8.83124C13.265 8.83124 13.0822 8.64843 13.0822 8.35741L13.0822 7.41738C13.0822 7.12812 13.265 6.94355 13.5543 6.94355L14.4926 6.94355C14.7818 6.94355 14.9664 7.12812 14.9664 7.41738L14.9664 8.35741C14.9664 8.64843 14.7818 8.83124 14.4926 8.83124ZM16.7859 8.83124C16.4764 8.83124 16.2848 8.64843 16.2848 8.35741L16.2848 7.41738C16.2848 7.12812 16.4764 6.94355 16.7859 6.94355L17.7049 6.94355C17.9941 6.94355 18.1672 7.12812 18.1672 7.41738L18.1672 8.35741C18.1672 8.64843 17.9941 8.83124 17.7049 8.83124ZM19.9754 8.83124C19.6781 8.83124 19.4953 8.64843 19.4953 8.35741L19.4953 7.41738C19.4953 7.12812 19.6781 6.94355 19.9754 6.94355L20.9057 6.94355C21.2029 6.94355 21.3795 7.12812 21.3795 7.41738L21.3795 8.35741C21.3795 8.64843 21.2029 8.83124 20.9057 8.83124ZM3.9244 12.0629C3.63339 12.0629 3.45859 11.8818 3.45859 11.5891L3.45859 10.649C3.45859 10.3598 3.63339 10.1769 3.9244 10.1769L4.86269 10.1769C5.15995 10.1769 5.34276 10.3598 5.34276 10.649L5.34276 11.5891C5.34276 11.8818 5.15995 12.0629 4.86269 12.0629ZM7.22304 12.0629C6.86796 12.0629 6.66113 11.8578 6.66113 11.4992L6.66113 10.7309C6.66113 10.3838 6.86796 10.1769 7.22304 10.1769L17.6133 10.1769C17.9621 10.1769 18.1672 10.3838 18.1672 10.7309L18.1672 11.4992C18.1672 11.8578 17.9621 12.0629 17.6133 12.0629ZM19.9754 12.0629C19.6781 12.0629 19.4953 11.8818 19.4953 11.5891L19.4953 10.649C19.4953 10.3598 19.6781 10.1769 19.9754 10.1769L20.9057 10.1769C21.2029 10.1769 21.3795 10.3598 21.3795 10.649L21.3795 11.5891C21.3795 11.8818 21.2029 12.0629 20.9057 12.0629Z" fill="white" fill-opacity="0.85"/>
 </g>
</svg>
