<?xml version="1.0" encoding="UTF-8"?>
<!--Generator: Apple Native CoreSVG 341-->
<!DOCTYPE svg
PUBLIC "-//W3C//DTD SVG 1.1//EN"
       "http://www.w3.org/Graphics/SVG/1.1/DTD/svg11.dtd">
<svg version="1.1" xmlns="http://www.w3.org/2000/svg" xmlns:xlink="http://www.w3.org/1999/xlink" viewBox="0 0 25.2332 15.8051">
 <g>
  <rect height="15.8051" opacity="0" width="25.2332" x="0" y="0"/>
  <path d="M3.20351 15.79L21.6666 15.79C23.7682 15.79 24.8719 14.7041 24.8719 12.6185L24.8719 3.16347C24.8719 1.08769 23.7682 0 21.6666 0L3.20351 0C1.08769 0 0 1.07968 0 3.16347L0 12.6185C0 14.7041 1.08769 15.79 3.20351 15.79ZM3.31444 13.8768C2.40643 13.8768 1.91327 13.4004 1.91327 12.4516L1.91327 3.33222C1.91327 2.38163 2.40643 1.91327 3.31444 1.91327L21.5477 1.91327C22.4494 1.91327 22.9586 2.38163 22.9586 3.33222L22.9586 12.4516C22.9586 13.4004 22.4494 13.8768 21.5477 13.8768ZM4.24608 5.68202L5.14628 5.68202C5.43378 5.68202 5.60507 5.51073 5.60507 5.23124L5.60507 4.32929C5.60507 4.04355 5.43378 3.8705 5.14628 3.8705L4.24608 3.8705C3.96835 3.8705 3.79706 4.04355 3.79706 4.32929L3.79706 5.23124C3.79706 5.51073 3.96835 5.68202 4.24608 5.68202ZM7.33612 5.68202L8.23808 5.68202C8.51581 5.68202 8.6871 5.51073 8.6871 5.23124L8.6871 4.32929C8.6871 4.04355 8.51581 3.8705 8.23808 3.8705L7.33612 3.8705C7.05038 3.8705 6.87909 4.04355 6.87909 4.32929L6.87909 5.23124C6.87909 5.51073 7.05038 5.68202 7.33612 5.68202ZM10.4262 5.68202L11.3201 5.68202C11.6059 5.68202 11.7771 5.51073 11.7771 5.23124L11.7771 4.32929C11.7771 4.04355 11.6059 3.8705 11.3201 3.8705L10.4262 3.8705C10.1404 3.8705 9.96913 4.04355 9.96913 4.32929L9.96913 5.23124C9.96913 5.51073 10.1404 5.68202 10.4262 5.68202ZM13.51 5.68202L14.4102 5.68202C14.6959 5.68202 14.8689 5.51073 14.8689 5.23124L14.8689 4.32929C14.8689 4.04355 14.6959 3.8705 14.4102 3.8705L13.51 3.8705C13.2322 3.8705 13.0592 4.04355 13.0592 4.32929L13.0592 5.23124C13.0592 5.51073 13.2322 5.68202 13.51 5.68202ZM16.6211 5.68202L17.5002 5.68202C17.7797 5.68202 17.951 5.51073 17.951 5.23124L17.951 4.32929C17.951 4.04355 17.7797 3.8705 17.5002 3.8705L16.6211 3.8705C16.323 3.8705 16.143 4.04355 16.143 4.32929L16.143 5.23124C16.143 5.51073 16.323 5.68202 16.6211 5.68202ZM19.69 5.68202L20.584 5.68202C20.8697 5.68202 21.041 5.51073 21.041 5.23124L21.041 4.32929C21.041 4.04355 20.8697 3.8705 20.584 3.8705L19.69 3.8705C19.4043 3.8705 19.233 4.04355 19.233 4.32929L19.233 5.23124C19.233 5.51073 19.4043 5.68202 19.69 5.68202ZM4.24608 8.79316L5.14628 8.79316C5.43378 8.79316 5.60507 8.62011 5.60507 8.33437L5.60507 7.44042C5.60507 7.15468 5.43378 6.98163 5.14628 6.98163L4.24608 6.98163C3.96835 6.98163 3.79706 7.15468 3.79706 7.44042L3.79706 8.33437C3.79706 8.62011 3.96835 8.79316 4.24608 8.79316ZM7.33612 8.79316L8.23808 8.79316C8.51581 8.79316 8.6871 8.62011 8.6871 8.33437L8.6871 7.44042C8.6871 7.15468 8.51581 6.98163 8.23808 6.98163L7.33612 6.98163C7.05038 6.98163 6.87909 7.15468 6.87909 7.44042L6.87909 8.33437C6.87909 8.62011 7.05038 8.79316 7.33612 8.79316ZM10.4262 8.79316L11.3201 8.79316C11.6059 8.79316 11.7771 8.62011 11.7771 8.33437L11.7771 7.44042C11.7771 7.15468 11.6059 6.98163 11.3201 6.98163L10.4262 6.98163C10.1404 6.98163 9.96913 7.15468 9.96913 7.44042L9.96913 8.33437C9.96913 8.62011 10.1404 8.79316 10.4262 8.79316ZM13.51 8.79316L14.4102 8.79316C14.6959 8.79316 14.8689 8.62011 14.8689 8.33437L14.8689 7.44042C14.8689 7.15468 14.6959 6.98163 14.4102 6.98163L13.51 6.98163C13.2322 6.98163 13.0592 7.15468 13.0592 7.44042L13.0592 8.33437C13.0592 8.62011 13.2322 8.79316 13.51 8.79316ZM16.6211 8.79316L17.5002 8.79316C17.7797 8.79316 17.951 8.62011 17.951 8.33437L17.951 7.44042C17.951 7.15468 17.7797 6.98163 17.5002 6.98163L16.6211 6.98163C16.323 6.98163 16.143 7.15468 16.143 7.44042L16.143 8.33437C16.143 8.62011 16.323 8.79316 16.6211 8.79316ZM19.69 8.79316L20.584 8.79316C20.8697 8.79316 21.041 8.62011 21.041 8.33437L21.041 7.44042C21.041 7.15468 20.8697 6.98163 20.584 6.98163L19.69 6.98163C19.4043 6.98163 19.233 7.15468 19.233 7.44042L19.233 8.33437C19.233 8.62011 19.4043 8.79316 19.69 8.79316ZM4.24608 11.9043L5.14628 11.9043C5.43378 11.9043 5.60507 11.7312 5.60507 11.4455L5.60507 10.5435C5.60507 10.2658 5.43378 10.0928 5.14628 10.0928L4.24608 10.0928C3.96835 10.0928 3.79706 10.2658 3.79706 10.5435L3.79706 11.4455C3.79706 11.7312 3.96835 11.9043 4.24608 11.9043ZM7.41796 11.9043L17.4184 11.9043C17.7539 11.9043 17.951 11.7072 17.951 11.3637L17.951 10.6254C17.951 10.2898 17.7539 10.0928 17.4184 10.0928L7.41796 10.0928C7.07441 10.0928 6.87909 10.2898 6.87909 10.6254L6.87909 11.3637C6.87909 11.7072 7.07441 11.9043 7.41796 11.9043ZM19.69 11.9043L20.584 11.9043C20.8697 11.9043 21.041 11.7312 21.041 11.4455L21.041 10.5435C21.041 10.2658 20.8697 10.0928 20.584 10.0928L19.69 10.0928C19.4043 10.0928 19.233 10.2658 19.233 10.5435L19.233 11.4455C19.233 11.7312 19.4043 11.9043 19.69 11.9043Z" fill="white" fill-opacity="0.85"/>
 </g>
</svg>
