<?xml version="1.0" encoding="UTF-8"?>
<!--Generator: Apple Native CoreSVG 341-->
<!DOCTYPE svg
PUBLIC "-//W3C//DTD SVG 1.1//EN"
       "http://www.w3.org/Graphics/SVG/1.1/DTD/svg11.dtd">
<svg version="1.1" xmlns="http://www.w3.org/2000/svg" xmlns:xlink="http://www.w3.org/1999/xlink" viewBox="0 0 14.6828 17.9965">
 <g>
  <rect height="17.9965" opacity="0" width="14.6828" x="0" y="0"/>
  <path d="M12.6662 17.9832C13.3601 17.9832 13.8336 17.4953 13.8336 16.8918C13.8336 16.566 13.7326 16.2906 13.5129 16.0037L7.81598 8.84414L13.5049 1.83866C13.6767 1.61815 13.7992 1.31405 13.7992 1.04374C13.7992 0.429099 13.2988 0 12.6697 0C12.2287 0 11.9043 0.256053 11.6447 0.611127L5.17869 8.84766L11.5955 17.3254C11.8826 17.7379 12.1855 17.9832 12.6662 17.9832ZM3.25448 17.9832C4.00193 17.9832 4.49021 17.4754 4.49021 16.7111L4.49021 1.26757C4.49021 0.503317 3.99393 0 3.25448 0C2.52382 0 2.02305 0.499801 2.02305 1.26405L2.02305 16.7111C2.02305 17.4754 2.52382 17.9832 3.25448 17.9832ZM0 8.82735C0 9.18438 0.266407 9.44903 0.623438 9.44903L13.69 9.44903C14.047 9.44903 14.3215 9.18438 14.3215 8.82735C14.3215 8.46856 14.047 8.20567 13.69 8.20567L0.623438 8.20567C0.266407 8.20567 0 8.46856 0 8.82735Z" fill="white" fill-opacity="0.85"/>
 </g>
</svg>
