<?xml version="1.0" encoding="UTF-8"?>
<!--Generator: Apple Native CoreSVG 341-->
<!DOCTYPE svg
PUBLIC "-//W3C//DTD SVG 1.1//EN"
       "http://www.w3.org/Graphics/SVG/1.1/DTD/svg11.dtd">
<svg version="1.1" xmlns="http://www.w3.org/2000/svg" xmlns:xlink="http://www.w3.org/1999/xlink" viewBox="0 0 24.2049 19.8808">
 <g>
  <rect height="19.8808" opacity="0" width="24.2049" x="0" y="0"/>
  <path d="M23.8435 11.9178C23.8435 9.01855 22.8031 6.3457 21.0623 4.27031C20.8547 4.02011 20.498 4.02011 20.2621 4.2623L17.9578 6.56484C17.7547 6.76796 17.7467 7.05097 17.9232 7.27363C18.9185 8.56269 19.517 10.1768 19.517 11.9178C19.517 13.6826 18.9115 15.3107 17.8488 16.6611C17.6945 16.8535 17.7025 17.0982 17.8719 17.2756L20.2242 19.6279C20.4646 19.8683 20.8133 19.8683 21.0359 19.6066C22.7908 17.5277 23.8435 14.8443 23.8435 11.9178Z" fill="white" fill-opacity="0.85"/>
  <path d="M11.9178 4.32656C13.6783 4.32656 15.2941 4.933 16.5912 5.93183C16.8041 6.09863 17.0791 6.0791 17.2787 5.87773L19.5812 3.57343C19.8252 3.33125 19.8154 2.9791 19.5582 2.76797C17.4926 1.04043 14.8232 0 11.9178 0C9.02031 0 6.35097 1.04043 4.28711 2.76797C4.02988 2.9791 4.01836 3.33125 4.2623 3.57343L6.56484 5.87773C6.76445 6.0791 7.05097 6.09863 7.28163 5.92207C8.56894 4.933 10.1768 4.32656 11.9178 4.32656Z" fill="white" fill-opacity="0.85"/>
  <path d="M0 11.9178C0 14.8461 1.05625 17.5348 2.81465 19.6137C3.02402 19.8719 3.3789 19.8683 3.61308 19.6279L5.96367 17.2756C6.133 17.0982 6.15077 16.8535 5.99472 16.6611C4.93378 15.3107 4.32656 13.6826 4.32656 11.9178C4.32656 10.1768 4.91699 8.56269 5.92031 7.27363C6.08886 7.05097 6.08886 6.76796 5.88574 6.56484L3.58144 4.2623C3.33926 4.02011 2.98711 4.02187 2.77422 4.2791C1.03867 6.35097 0 9.02031 0 11.9178Z" fill="white" fill-opacity="0.85"/>
  <path d="M9.75819 16.435C10.173 16.435 10.4283 16.1602 10.4283 15.7436L10.4265 12.2029L10.9707 12.2029L13.802 16.0682C13.9518 16.3029 14.1246 16.435 14.4019 16.435C14.8627 16.435 15.0383 16.0822 15.0383 15.8438C15.0383 15.6506 14.9779 15.5088 14.8574 15.3484L12.4088 12.2029L14.9705 12.2029C15.149 12.2029 15.2885 12.0652 15.2885 11.8867C15.2885 11.7082 15.149 11.5785 14.9705 11.5785L12.4301 11.5785L14.8654 8.54198C14.9639 8.40097 15.018 8.25468 15.018 8.11464C15.018 7.76894 14.7221 7.53925 14.4037 7.53925C14.1707 7.53925 13.9746 7.68827 13.8408 7.8787L10.9892 11.5785L10.4265 11.5785L10.4265 8.22265C10.4265 7.79804 10.1713 7.53925 9.75468 7.53925C9.33984 7.53925 9.07656 7.79804 9.07656 8.22265L9.07656 11.5785L8.39043 11.5785C8.21191 11.5785 8.08046 11.7002 8.08046 11.8947C8.08046 12.0732 8.21191 12.2029 8.39043 12.2029L9.07656 12.2029L9.07832 15.7436C9.07832 16.1602 9.3416 16.435 9.75819 16.435Z" fill="white" fill-opacity="0.85"/>
 </g>
</svg>
