<?xml version="1.0" encoding="UTF-8"?>
<!--Generator: Apple Native CoreSVG 341-->
<!DOCTYPE svg
PUBLIC "-//W3C//DTD SVG 1.1//EN"
       "http://www.w3.org/Graphics/SVG/1.1/DTD/svg11.dtd">
<svg version="1.1" xmlns="http://www.w3.org/2000/svg" xmlns:xlink="http://www.w3.org/1999/xlink" viewBox="0 0 20.5381 20.1848">
 <g>
  <rect height="20.1848" opacity="0" width="20.5381" x="0" y="0"/>
  <path d="M20.1767 10.0875C20.1767 15.6478 15.6576 20.175 10.0875 20.175C4.52715 20.175 0 15.6478 0 10.0875C0 4.51914 4.52715 0 10.0875 0C15.6576 0 20.1767 4.51914 20.1767 10.0875ZM12.0895 5.80136L9.13769 9.64746L8.55546 9.64746L8.55546 6.1621C8.55546 5.72519 8.27714 5.44511 7.85175 5.44511C7.40859 5.44511 7.13828 5.72519 7.13828 6.1621L7.13828 9.64746L6.42734 9.64746C6.23105 9.64746 6.09961 9.77714 6.09961 9.97519C6.09961 10.1617 6.23105 10.3029 6.42734 10.3029L7.13828 10.3029L7.1418 13.9721C7.1418 14.417 7.41211 14.6971 7.85351 14.6971C8.2789 14.6971 8.55722 14.417 8.55722 13.9721L8.55546 10.3029L9.11913 10.3029L12.0488 14.3215C12.2102 14.5553 12.3865 14.6971 12.6789 14.6971C13.16 14.6971 13.3488 14.3355 13.3488 14.074C13.3488 13.8773 13.2867 13.732 13.1547 13.5584L10.6111 10.3029L13.2748 10.3029C13.4631 10.3029 13.6105 10.1537 13.6105 9.96543C13.6105 9.77714 13.4631 9.64746 13.2748 9.64746L10.6342 9.64746L13.1547 6.49471C13.2629 6.35819 13.3285 6.20663 13.3285 6.05683C13.3285 5.69433 13.0141 5.44511 12.6807 5.44511C12.4246 5.44511 12.2348 5.6039 12.0895 5.80136Z" fill="white" fill-opacity="0.85"/>
 </g>
</svg>
