<?xml version="1.0" encoding="UTF-8"?>
<!--Generator: Apple Native CoreSVG 341-->
<!DOCTYPE svg
PUBLIC "-//W3C//DTD SVG 1.1//EN"
       "http://www.w3.org/Graphics/SVG/1.1/DTD/svg11.dtd">
<svg version="1.1" xmlns="http://www.w3.org/2000/svg" xmlns:xlink="http://www.w3.org/1999/xlink" viewBox="0 0 20.5381 20.1848">
 <g>
  <rect height="20.1848" opacity="0" width="20.5381" x="0" y="0"/>
  <path d="M10.0875 20.175C15.6576 20.175 20.1767 15.6559 20.1767 10.0875C20.1767 4.51914 15.6576 0 10.0875 0C4.51914 0 0 4.51914 0 10.0875C0 15.6559 4.51914 20.175 10.0875 20.175ZM10.0875 18.1879C5.60839 18.1879 1.9871 14.5666 1.9871 10.0875C1.9871 5.60839 5.60839 1.9871 10.0875 1.9871C14.5666 1.9871 18.1897 5.60839 18.1897 10.0875C18.1897 14.5666 14.5666 18.1879 10.0875 18.1879Z" fill="white" fill-opacity="0.85"/>
  <path d="M4.6373 13.1736C5.01796 13.1736 5.23632 12.9402 5.23632 12.5596L5.23632 11.3269L5.60956 10.641L6.69023 12.7771C6.80195 13.0121 7.00878 13.1576 7.2873 13.1576C7.54726 13.1576 7.80995 12.958 7.80995 12.6154C7.80995 12.4646 7.7498 12.2707 7.68417 12.1475L6.48612 9.84042L7.54452 8.01268C7.6412 7.84686 7.67753 7.73339 7.67753 7.54804C7.67753 7.27929 7.48242 7.01737 7.15839 7.01737C6.84081 7.01737 6.72285 7.17694 6.59687 7.41014L5.29042 9.81621L5.22831 9.81621L5.22831 7.62518C5.22831 7.23651 5.02597 7.00937 4.6373 7.00937C4.26464 7.00937 4.0623 7.24452 4.0623 7.62518L4.0623 12.5596C4.0623 12.99 4.33046 13.1736 4.6373 13.1736ZM8.88495 13.1576C9.25937 13.1576 9.47773 12.918 9.47773 12.5436L9.47773 11.1545L10.0758 11.1545C11.2133 11.1545 11.7717 10.1873 11.7717 9.13163C11.7717 8.01464 11.2008 7.10526 10.1529 7.10526L8.88495 7.10526C8.51406 7.10526 8.29843 7.33866 8.29843 7.72108L8.29843 12.5436C8.29843 12.918 8.51855 13.1576 8.88495 13.1576ZM9.47773 10.2342L9.47773 8.0371L9.84062 8.0371C10.4199 8.0371 10.6119 8.54081 10.6119 9.13163C10.6119 9.72246 10.4137 10.2342 9.83085 10.2342ZM12.924 13.1736C13.3047 13.1736 13.5008 12.9322 13.5008 12.5355L13.5008 10.532L14.8721 10.532L14.8721 12.5355C14.8721 12.934 15.0744 13.1736 15.4568 13.1736C15.857 13.1736 16.0514 12.934 16.0514 12.5355L16.0514 7.63319C16.0514 7.23651 15.8535 7.00937 15.4568 7.00937C15.0842 7.00937 14.8721 7.23651 14.8721 7.63319L14.8721 9.55761L13.5008 9.55761L13.5008 7.63319C13.5008 7.23651 13.2967 7.00937 12.924 7.00937C12.5273 7.00937 12.3312 7.23651 12.3312 7.63319L12.3312 12.5355C12.3312 12.934 12.5256 13.1736 12.924 13.1736Z" fill="white" fill-opacity="0.85"/>
 </g>
</svg>
