<?xml version="1.0" encoding="UTF-8"?>
<!--Generator: Apple Native CoreSVG 341-->
<!DOCTYPE svg
PUBLIC "-//W3C//DTD SVG 1.1//EN"
       "http://www.w3.org/Graphics/SVG/1.1/DTD/svg11.dtd">
<svg version="1.1" xmlns="http://www.w3.org/2000/svg" xmlns:xlink="http://www.w3.org/1999/xlink" viewBox="0 0 23.1879 29.6724">
 <g>
  <rect height="29.6724" opacity="0" width="23.1879" x="0" y="0"/>
  <path d="M22.8265 14.8313C22.8265 19.7612 19.6917 23.9641 15.3085 25.5476C15.467 24.9307 15.3533 24.3068 15.0289 23.819C18.592 22.3946 21.1014 18.9136 21.1014 14.8313C21.1014 9.46745 16.7691 5.13171 11.4133 5.13171C6.04941 5.13171 1.72519 9.46745 1.72519 14.8313C1.72519 18.9098 4.22522 22.3882 7.78429 23.8153C7.45677 24.3028 7.34002 24.9266 7.49353 25.5394C3.11824 23.9485 0 19.7474 0 14.8313C0 8.52995 5.11015 3.40827 11.4133 3.40827C17.7049 3.40827 22.8265 8.52995 22.8265 14.8313Z" fill="white" fill-opacity="0.85"/>
  <path d="M9.58945 24.3059C8.8705 24.3059 8.65136 25.0151 9.04804 25.5503L10.8754 27.9688C11.1541 28.3372 11.6627 28.3434 11.9476 27.9688L13.7527 25.5583C14.1769 25.0036 13.924 24.3059 13.2176 24.3059Z" fill="white" fill-opacity="0.85"/>
  <path d="M11.4133 6.96706C7.07499 6.96706 3.55878 10.493 3.55878 14.8313C3.55878 19.1758 7.07499 22.684 11.4133 22.684C15.7498 22.684 19.266 19.1758 19.266 14.8313C19.266 10.493 15.7498 6.96706 11.4133 6.96706ZM11.4133 8.76607C14.7656 8.76607 17.4687 11.4692 17.4687 14.8313C17.4687 18.1837 14.7656 20.8868 11.4133 20.8868C8.05292 20.8868 5.3578 18.1837 5.3578 14.8313C5.3578 11.4692 8.05292 8.76607 11.4133 8.76607ZM10.0119 18.5135L13.4119 18.5135C13.7775 18.5135 14.0793 18.2518 14.0793 17.8684C14.0793 17.4885 13.7775 17.2091 13.4119 17.2091L10.8123 17.2091L10.8123 11.8819C10.8123 11.3848 10.4947 11.0335 10.0137 11.0335C9.53886 11.0335 9.25507 11.3928 9.25507 11.8819L9.25507 17.6661C9.25507 18.1745 9.52128 18.5135 10.0119 18.5135Z" fill="white" fill-opacity="0.85"/>
 </g>
</svg>
