<?xml version="1.0" encoding="UTF-8"?>
<!--Generator: Apple Native CoreSVG 341-->
<!DOCTYPE svg
PUBLIC "-//W3C//DTD SVG 1.1//EN"
       "http://www.w3.org/Graphics/SVG/1.1/DTD/svg11.dtd">
<svg version="1.1" xmlns="http://www.w3.org/2000/svg" xmlns:xlink="http://www.w3.org/1999/xlink" viewBox="0 0 29.3282 22.8523">
 <g>
  <rect height="22.8523" opacity="0" width="29.3282" x="0" y="0"/>
  <path d="M25.2073 7.52041C24.5919 7.36176 23.9674 7.47592 23.478 7.79905C22.0509 4.23352 18.5657 1.72519 14.4843 1.72519C9.12843 1.72519 4.79269 6.05742 4.79269 11.4213C4.79269 16.7851 9.12043 21.1014 14.4843 21.1014C18.5615 21.1014 22.0436 18.6075 23.4739 15.0525C23.963 15.3772 24.5879 15.4906 25.2017 15.3348C23.6116 19.7092 19.4081 22.8265 14.4843 22.8265C8.18918 22.8265 3.06926 17.7209 3.06926 11.4213C3.06926 5.11992 8.18918 0 14.4843 0C19.4138 0 23.6214 3.13334 25.2073 7.52041Z" fill="white" fill-opacity="0.85"/>
  <path d="M25.2112 9.07382C24.6583 8.65937 23.9669 8.91054 23.9669 9.60546L23.9669 13.2416C23.9669 13.9578 24.6646 14.1849 25.2032 13.7767L27.6218 11.9574C27.9884 11.6787 28.0062 11.1621 27.6218 10.8834Z" fill="white" fill-opacity="0.85"/>
  <path d="M14.4843 19.274C18.8288 19.274 22.337 15.7578 22.337 11.4213C22.337 7.07499 18.8288 3.55878 14.4843 3.55878C10.154 3.55878 6.62004 7.07499 6.62004 11.4213C6.62004 15.7578 10.154 19.274 14.4843 19.274ZM13.0333 15.2471C12.5179 15.2471 12.2402 14.8947 12.2402 14.3633L12.2402 8.36464C12.2402 7.85253 12.539 7.47987 13.0368 7.47987C13.5347 7.47987 13.8718 7.84452 13.8718 8.36464L13.8718 13.8894L16.5601 13.8894C16.939 13.8894 17.254 14.1805 17.254 14.5754C17.254 14.9738 16.939 15.2471 16.5601 15.2471Z" fill="white" fill-opacity="0.85"/>
 </g>
</svg>
