<?xml version="1.0" encoding="UTF-8"?>
<!--Generator: Apple Native CoreSVG 341-->
<!DOCTYPE svg
PUBLIC "-//W3C//DTD SVG 1.1//EN"
       "http://www.w3.org/Graphics/SVG/1.1/DTD/svg11.dtd">
<svg version="1.1" xmlns="http://www.w3.org/2000/svg" xmlns:xlink="http://www.w3.org/1999/xlink" viewBox="0 0 23.1879 29.6946">
 <g>
  <rect height="29.6946" opacity="0" width="23.1879" x="0" y="0"/>
  <path d="M22.8265 14.8424C22.8265 21.1438 17.7049 26.2574 11.4133 26.2574C5.11015 26.2574 0 21.1358 0 14.8424C0 9.9187 3.11995 5.71524 7.49713 4.12507C7.34048 4.7379 7.45479 5.36247 7.77982 5.85169C4.22316 7.28274 1.72519 10.7656 1.72519 14.8424C1.72519 20.2063 6.04941 24.5322 11.4133 24.5322C16.7691 24.5322 21.1014 20.2063 21.1014 14.8424C21.1014 10.7621 18.5945 7.27677 15.0341 5.84829C15.3573 5.35925 15.4701 4.73515 15.3097 4.11952C19.6923 5.70553 22.8265 9.91301 22.8265 14.8424Z" fill="white" fill-opacity="0.85"/>
  <path d="M9.58945 5.35802L13.2176 5.35802C13.924 5.35802 14.1769 4.66838 13.7527 4.11545L11.9476 1.70315C11.6627 1.32854 11.1541 1.32678 10.8754 1.70315L9.04804 4.12346C8.65136 4.65861 8.8705 5.35802 9.58945 5.35802Z" fill="white" fill-opacity="0.85"/>
  <path d="M11.4133 22.7067C15.7498 22.7067 19.266 19.1789 19.266 14.8424C19.266 10.4961 15.7498 6.98791 11.4133 6.98791C7.07499 6.98791 3.55878 10.4961 3.55878 14.8424C3.55878 19.1789 7.07499 22.7067 11.4133 22.7067ZM9.95429 18.6682C9.43886 18.6682 9.15937 18.3158 9.15937 17.7844L9.15937 11.7858C9.15937 11.2736 9.45819 10.901 9.95605 10.901C10.4539 10.901 10.7928 11.2656 10.7928 11.7858L10.7928 17.3106L13.4793 17.3106C13.8582 17.3106 14.175 17.6016 14.175 17.9965C14.175 18.3949 13.8582 18.6682 13.4793 18.6682Z" fill="white" fill-opacity="0.85"/>
 </g>
</svg>
