<?xml version="1.0" encoding="UTF-8"?>
<!--Generator: Apple Native CoreSVG 341-->
<!DOCTYPE svg
PUBLIC "-//W3C//DTD SVG 1.1//EN"
       "http://www.w3.org/Graphics/SVG/1.1/DTD/svg11.dtd">
<svg version="1.1" xmlns="http://www.w3.org/2000/svg" xmlns:xlink="http://www.w3.org/1999/xlink" viewBox="0 0 20.5381 20.1848">
 <g>
  <rect height="20.1848" opacity="0" width="20.5381" x="0" y="0"/>
  <path d="M20.1767 10.0875C20.1767 15.6478 15.6576 20.175 10.0875 20.175C4.52715 20.175 0 15.6478 0 10.0875C0 4.51914 4.52715 0 10.0875 0C15.6576 0 20.1767 4.51914 20.1767 10.0875ZM11.8002 6.52792L10.8098 7.3123C10.6146 7.44706 10.4859 7.64765 10.4859 7.90234C10.4859 8.23847 10.7059 8.44179 11.0006 8.44179C11.1523 8.44179 11.2553 8.40097 11.3652 8.31406L12.1738 7.66894L12.1738 13.2789C12.1738 13.7057 12.5074 14.0375 12.9244 14.0375C13.3352 14.0375 13.6785 13.7057 13.6785 13.2789L13.6785 6.96698C13.6785 6.43027 13.3432 6.12324 12.7984 6.12324C12.3867 6.12324 12.0512 6.34257 11.8002 6.52792ZM6.35996 6.88007L6.35996 13.1645C6.35996 13.6436 6.61992 13.9461 7.10078 13.9461L9.74472 13.9461C10.0863 13.9461 10.3658 13.6568 10.3658 13.325C10.3658 12.9754 10.0863 12.6959 9.74472 12.6959L7.85312 12.6959L7.85312 6.88007C7.85312 6.47109 7.51952 6.13925 7.1123 6.13925C6.70156 6.13925 6.35996 6.47109 6.35996 6.88007Z" fill="white" fill-opacity="0.85"/>
 </g>
</svg>
