<?xml version="1.0" encoding="UTF-8"?>
<!--Generator: Apple Native CoreSVG 341-->
<!DOCTYPE svg
PUBLIC "-//W3C//DTD SVG 1.1//EN"
       "http://www.w3.org/Graphics/SVG/1.1/DTD/svg11.dtd">
<svg version="1.1" xmlns="http://www.w3.org/2000/svg" xmlns:xlink="http://www.w3.org/1999/xlink" viewBox="0 0 18.0771 21.2957">
 <g>
  <rect height="21.2957" opacity="0" width="18.0771" x="0" y="0"/>
  <path d="M17.7158 3.11542L17.706 18.1945C17.706 20.1324 16.5383 21.2859 14.5844 21.2859L5.98105 21.2859C2.35097 21.2859 0 18.9314 0 15.3014L0 10.5221C0 9.14023 0.427734 8.01855 1.29472 7.22168L7.4666 1.54961C8.70468 0.410937 10.0297 0 11.598 0L14.6084 0C16.4805 0 17.7158 1.23535 17.7158 3.11542ZM4.2998 9.31874L4.2998 15.9379C4.2998 16.4463 4.57929 16.7523 5.07343 16.7523L7.8666 16.7523C8.22148 16.7523 8.5205 16.4613 8.5205 16.0984C8.5205 15.7453 8.22148 15.4543 7.8666 15.4543L5.87636 15.4543L5.87636 9.31874C5.87636 8.89022 5.51347 8.53534 5.08319 8.53534C4.65468 8.53534 4.2998 8.89022 4.2998 9.31874ZM9.28359 10.5508C9.28359 10.9465 9.5205 11.2277 9.93574 11.2277C10.2818 11.2277 10.5018 11.0644 10.6162 10.7043C10.7939 10.0867 11.0187 9.67811 11.558 9.67811C12.1318 9.67811 12.4252 10.1924 12.4252 10.8658C12.4252 11.6508 11.8844 12.4482 11.3412 13.1459L9.68457 15.2582C9.45058 15.548 9.27734 15.8037 9.27734 16.1197C9.27734 16.4816 9.52128 16.7408 10.0066 16.7408L13.4465 16.7408C13.843 16.7408 14.0561 16.4818 14.0561 16.1215C14.0561 15.7371 13.835 15.4924 13.4465 15.4924L11.1744 15.4924L11.1744 15.4045L12.5672 13.666C13.5291 12.4678 13.9051 11.7238 13.9051 10.793C13.9051 9.40917 12.958 8.44921 11.566 8.44921C10.2822 8.44921 9.28359 9.48554 9.28359 10.5508Z" fill="white" fill-opacity="0.85"/>
 </g>
</svg>
