<?xml version="1.0" encoding="UTF-8"?>
<!--Generator: Apple Native CoreSVG 341-->
<!DOCTYPE svg
PUBLIC "-//W3C//DTD SVG 1.1//EN"
       "http://www.w3.org/Graphics/SVG/1.1/DTD/svg11.dtd">
<svg version="1.1" xmlns="http://www.w3.org/2000/svg" xmlns:xlink="http://www.w3.org/1999/xlink" viewBox="0 0 23.1209 17.3433">
 <g>
  <rect height="17.3433" opacity="0" width="23.1209" x="0" y="0"/>
  <path d="M22.7596 8.05722L22.7596 14.2137C22.7596 16.2574 21.6719 17.3371 19.6121 17.3371L3.14745 17.3371C1.08769 17.3371 0 16.2654 0 14.2137L0 8.05722C0 2.58633 2.50996 0 8.22851 0L14.531 0C20.2496 0 22.7596 2.58633 22.7596 8.05722ZM6.72734 5.29511L6.72734 11.9062C6.72734 12.4164 6.99882 12.7287 7.50097 12.7287L10.2941 12.7287C10.649 12.7287 10.94 12.4314 10.94 12.0766C10.94 11.7217 10.649 11.4244 10.2941 11.4244L8.3039 11.4244L8.3039 5.29511C8.3039 4.86034 7.94101 4.50546 7.51074 4.50546C7.08046 4.50546 6.72734 4.86034 6.72734 5.29511ZM11.7111 6.5289C11.7111 6.91484 11.94 7.19784 12.3633 7.19784C12.7094 7.19784 12.9293 7.03456 13.0437 6.68242C13.2215 6.06483 13.4463 5.65624 13.9838 5.65624C14.5514 5.65624 14.8527 6.1705 14.8527 6.83593C14.8527 7.61913 14.3039 8.41835 13.7607 9.11601L12.1121 11.2346C11.8781 11.5182 11.6969 11.7738 11.6969 12.0881C11.6969 12.4598 11.9391 12.7189 12.4324 12.7189L15.874 12.7189C16.2625 12.7189 16.4836 12.4519 16.4836 12.0916C16.4836 11.7135 16.2545 11.4625 15.874 11.4625L13.6019 11.4625L13.6019 11.3746L14.985 9.63613C15.9566 8.43612 16.3246 7.70194 16.3246 6.76933C16.3246 5.37929 15.3855 4.41933 13.9936 4.41933C12.7098 4.41933 11.7111 5.4539 11.7111 6.5289Z" fill="white" fill-opacity="0.85"/>
 </g>
</svg>
