<?xml version="1.0" encoding="UTF-8"?>
<!--Generator: Apple Native CoreSVG 341-->
<!DOCTYPE svg
PUBLIC "-//W3C//DTD SVG 1.1//EN"
       "http://www.w3.org/Graphics/SVG/1.1/DTD/svg11.dtd">
<svg version="1.1" xmlns="http://www.w3.org/2000/svg" xmlns:xlink="http://www.w3.org/1999/xlink" viewBox="0 0 20.5381 20.1848">
 <g>
  <rect height="20.1848" opacity="0" width="20.5381" x="0" y="0"/>
  <path d="M20.1767 10.0875C20.1767 15.6478 15.6576 20.175 10.0875 20.175C4.52715 20.175 0 15.6478 0 10.0875C0 4.51914 4.52715 0 10.0875 0C15.6576 0 20.1767 4.51914 20.1767 10.0875ZM5.43105 6.7078L5.43105 13.327C5.43105 13.8371 5.70253 14.1414 6.20468 14.1414L8.99785 14.1414C9.35273 14.1414 9.64375 13.8521 9.64375 13.4893C9.64375 13.1344 9.35273 12.8451 8.99785 12.8451L7.00761 12.8451L7.00761 6.7078C7.00761 6.28105 6.64472 5.92617 6.21445 5.92617C5.78417 5.92617 5.43105 6.28105 5.43105 6.7078ZM10.4148 7.9416C10.4148 8.33554 10.6437 8.61855 11.067 8.61855C11.4131 8.61855 11.6312 8.45527 11.7475 8.09511C11.9252 7.47753 12.15 7.07694 12.6875 7.07694C13.2551 7.07694 13.5564 7.58319 13.5564 8.25663C13.5564 9.03984 13.0076 9.83906 12.4645 10.5367L10.8158 12.6473C10.5818 12.9389 10.4006 13.1945 10.4006 13.5088C10.4006 13.8805 10.6428 14.1316 11.1361 14.1316L14.5777 14.1316C14.9662 14.1316 15.1873 13.8727 15.1873 13.5123C15.1873 13.1262 14.9582 12.8832 14.5777 12.8832L12.3057 12.8832L12.3057 12.7953L13.6887 11.0568C14.6603 9.85683 15.0363 9.11464 15.0363 8.18202C15.0363 6.79999 14.0893 5.84003 12.6955 5.84003C11.4135 5.84003 10.4148 6.8746 10.4148 7.9416Z" fill="white" fill-opacity="0.85"/>
 </g>
</svg>
