<?xml version="1.0" encoding="UTF-8"?>
<!--Generator: Apple Native CoreSVG 341-->
<!DOCTYPE svg
PUBLIC "-//W3C//DTD SVG 1.1//EN"
       "http://www.w3.org/Graphics/SVG/1.1/DTD/svg11.dtd">
<svg version="1.1" xmlns="http://www.w3.org/2000/svg" xmlns:xlink="http://www.w3.org/1999/xlink" viewBox="0 0 20.5381 20.1848">
 <g>
  <rect height="20.1848" opacity="0" width="20.5381" x="0" y="0"/>
  <path d="M10.0875 20.175C15.6576 20.175 20.1767 15.6559 20.1767 10.0875C20.1767 4.51914 15.6576 0 10.0875 0C4.51914 0 0 4.51914 0 10.0875C0 15.6559 4.51914 20.175 10.0875 20.175ZM10.0875 18.1879C5.60839 18.1879 1.9871 14.5666 1.9871 10.0875C1.9871 5.60839 5.60839 1.9871 10.0875 1.9871C14.5666 1.9871 18.1897 5.60839 18.1897 10.0875C18.1897 14.5666 14.5666 18.1879 10.0875 18.1879Z" fill="white" fill-opacity="0.85"/>
  <path d="M6.34999 13.9863L9.04121 13.9863C9.38105 13.9863 9.65878 13.7086 9.65878 13.3607C9.65878 13.0209 9.38105 12.7414 9.04121 12.7414L7.11308 12.7414L7.11308 6.82655C7.11308 6.42109 6.77323 6.08124 6.35976 6.08124C5.95253 6.08124 5.61269 6.42109 5.61269 6.82655L5.61269 13.2082C5.61269 13.6936 5.87265 13.9863 6.34999 13.9863ZM11.0936 13.9766L14.4049 13.9766C14.7783 13.9766 14.9879 13.7291 14.9879 13.382C14.9879 13.0109 14.7686 12.7795 14.4049 12.7795L12.2117 12.7795L12.2117 12.7014L13.5504 11.009C14.4875 9.86308 14.8467 9.14569 14.8467 8.25292C14.8467 6.9205 13.9377 5.99687 12.5953 5.99687C11.3611 5.99687 10.4086 6.99687 10.4086 8.01425C10.4086 8.39491 10.626 8.6664 11.0262 8.6664C11.3572 8.6664 11.5719 8.51288 11.6766 8.16601C11.8463 7.56972 12.0711 7.18065 12.5873 7.18065C13.1398 7.18065 13.4332 7.67362 13.4332 8.31777C13.4332 9.07792 12.9057 9.84082 12.3793 10.5137L10.7848 12.5551C10.5658 12.8316 10.3943 13.0775 10.3943 13.3803C10.3943 13.7369 10.625 13.9766 11.0936 13.9766Z" fill="white" fill-opacity="0.85"/>
 </g>
</svg>
