<?xml version="1.0" encoding="UTF-8"?>
<!--Generator: Apple Native CoreSVG 341-->
<!DOCTYPE svg
PUBLIC "-//W3C//DTD SVG 1.1//EN"
       "http://www.w3.org/Graphics/SVG/1.1/DTD/svg11.dtd">
<svg version="1.1" xmlns="http://www.w3.org/2000/svg" xmlns:xlink="http://www.w3.org/1999/xlink" viewBox="0 0 25.9582 17.8977">
 <g>
  <rect height="17.8977" opacity="0" width="25.9582" x="0" y="0"/>
  <path d="M25.5969 10.0414L25.5969 3.83051C25.5969 1.95844 24.3713 0.72485 22.4912 0.72485L3.08964 0.732858C1.22734 0.732858 0 1.97446 0 3.85453L0 10.0414C0 12.6481 1.13672 14.2711 3.81445 15.0637L12.2557 17.5264C14.5705 18.2063 16.0889 17.9338 18.1543 16.8625L23.6215 14.0385C25.2182 13.2114 25.5969 12.1928 25.5969 10.0414ZM23.6836 10.0414C23.6836 11.4024 23.4189 12.0178 22.432 12.517L17.1299 15.2346C15.4871 16.0702 14.3467 16.2372 12.34 15.637L4.3789 13.2692C2.60272 12.7479 1.91327 11.7555 1.91327 10.0414L1.91327 3.97172C1.91327 3.16683 2.42147 2.64437 3.20858 2.64437L22.3803 2.6346C23.1674 2.6346 23.6836 3.15081 23.6836 3.94769Z" fill="white" fill-opacity="0.85"/>
  <path d="M8.72675 12.2705L11.41 12.2705C11.7498 12.2705 12.0373 11.983 12.0373 11.6432C12.0373 11.3034 11.7498 11.0176 11.41 11.0176L9.48182 11.0176L9.48182 5.11077C9.48182 4.70531 9.14198 4.36546 8.73651 4.36546C8.32128 4.36546 7.98144 4.70531 7.98144 5.11077L7.98144 11.4844C7.98144 11.9698 8.2494 12.2705 8.72675 12.2705ZM15.1939 12.4383C16.5975 12.4383 17.6656 11.5682 17.6656 10.1245C17.6656 8.96273 16.9701 8.35472 16.1533 8.26332L16.1533 8.22425C16.9742 8.0057 17.4348 7.25082 17.4348 6.4182C17.4348 5.08285 16.4367 4.31488 15.1496 4.31488C14.1578 4.31488 13.2736 4.86546 13.0037 5.73636C12.9469 5.91488 12.9256 6.09066 12.9256 6.25843C12.9256 6.57621 13.1387 6.86273 13.5529 6.86273C13.8982 6.86273 14.1172 6.72953 14.2184 6.38167C14.3588 5.85824 14.6432 5.49417 15.1549 5.49417C15.7519 5.49417 16.023 5.98441 16.023 6.58148C16.023 7.24691 15.6728 7.7557 14.9738 7.7557L14.7711 7.7557C14.4144 7.7557 14.2041 7.96781 14.2041 8.29437C14.2041 8.62894 14.4189 8.8348 14.7711 8.8348L14.9853 8.8348C15.7715 8.8348 16.1936 9.26117 16.1936 10.0713C16.1936 10.6959 15.8674 11.243 15.1904 11.243C14.5461 11.243 14.2564 10.8067 14.1312 10.3936C14.0328 10.0618 13.8057 9.88871 13.4756 9.88871C13.0719 9.88871 12.8057 10.1274 12.8057 10.5391C12.8057 10.7166 12.8332 10.8924 12.8838 11.0487C13.1635 11.9446 14.1393 12.4383 15.1939 12.4383Z" fill="white" fill-opacity="0.85"/>
 </g>
</svg>
