<?xml version="1.0" encoding="UTF-8"?>
<!--Generator: Apple Native CoreSVG 341-->
<!DOCTYPE svg
PUBLIC "-//W3C//DTD SVG 1.1//EN"
       "http://www.w3.org/Graphics/SVG/1.1/DTD/svg11.dtd">
<svg version="1.1" xmlns="http://www.w3.org/2000/svg" xmlns:xlink="http://www.w3.org/1999/xlink" viewBox="0 0 23.5768 17.8687">
 <g>
  <rect height="17.8687" opacity="0" width="23.5768" x="0" y="0"/>
  <path d="M7.73047 17.8545L15.485 17.8545C21.2053 17.8545 23.2154 15.776 23.2154 10.3949L23.2154 7.46757C23.2154 2.08652 21.2053 0 15.485 0L7.73047 0C2.01191 0 0 2.08652 0 7.46757L0 10.3949C0 15.776 2.01191 17.8545 7.73047 17.8545ZM7.73047 15.9412C3.33026 15.9412 1.91327 14.5367 1.91327 10.3949L1.91327 7.46757C1.91327 3.32753 3.33026 1.91327 7.73047 1.91327L15.485 1.91327C19.8852 1.91327 21.3022 3.32753 21.3022 7.46757L21.3022 10.3949C21.3022 14.5367 19.8852 15.9412 15.485 15.9412Z" fill="white" fill-opacity="0.85"/>
  <path d="M7.56562 12.8283L10.2568 12.8283C10.5967 12.8283 10.8842 12.5506 10.8842 12.2027C10.8842 11.8629 10.5967 11.5834 10.2568 11.5834L8.33046 11.5834L8.33046 5.66854C8.33046 5.26308 7.99062 4.92323 7.57714 4.92323C7.16816 4.92323 6.82831 5.26308 6.82831 5.66854L6.82831 12.0502C6.82831 12.5355 7.09804 12.8283 7.56562 12.8283ZM15.1596 12.9473C15.5535 12.9473 15.8641 12.7156 15.8641 12.2152L15.8641 11.3336L16.1646 11.3336C16.5771 11.3336 16.7477 11.0701 16.7477 10.7293C16.7477 10.3904 16.5729 10.1428 16.1664 10.1428L15.8641 10.1428L15.8641 6.0244C15.8641 5.31718 15.4018 4.91874 14.7266 4.91874C13.9418 4.91874 13.616 5.36874 13.3338 6.03221L11.7713 9.52597C11.6088 9.90859 11.5449 10.1889 11.5449 10.5021C11.5449 11.0078 11.8742 11.3336 12.3949 11.3336L14.4471 11.3336L14.4471 12.2152C14.4471 12.7521 14.8172 12.9473 15.1596 12.9473ZM14.4834 10.1773L12.8023 10.1773L12.8023 10.1072L14.4443 6.18436L14.4834 6.18436Z" fill="white" fill-opacity="0.85"/>
 </g>
</svg>
