<?xml version="1.0" encoding="UTF-8"?>
<!--Generator: Apple Native CoreSVG 341-->
<!DOCTYPE svg
PUBLIC "-//W3C//DTD SVG 1.1//EN"
       "http://www.w3.org/Graphics/SVG/1.1/DTD/svg11.dtd">
<svg version="1.1" xmlns="http://www.w3.org/2000/svg" xmlns:xlink="http://www.w3.org/1999/xlink" viewBox="0 0 20.5381 20.1848">
 <g>
  <rect height="20.1848" opacity="0" width="20.5381" x="0" y="0"/>
  <path d="M20.1767 10.0973C20.1767 15.6656 15.6576 20.1848 10.0875 20.1848C4.52715 20.1848 0 15.6656 0 10.0973C0 4.53691 4.52715 0.00976562 10.0875 0.00976562C15.6576 0.00976562 20.1767 4.53691 20.1767 10.0973ZM10.4584 15.7523C10.4584 16.0373 10.6625 16.1678 11.023 16.1332C11.9287 16.0072 12.7089 15.6373 13.3204 15.0696L12.2811 14.0312C11.8124 14.0118 11.4034 13.6199 11.3847 13.1356L10.4584 12.2101ZM5.02773 7.1957C4.86269 7.40781 4.91601 7.71386 5.14667 7.88866L6.0121 8.60956C5.69863 9.16464 5.49081 9.87792 5.39667 10.5734L4.44179 10.5832C4.14276 10.585 3.96269 10.7633 3.96269 11.0445C3.96269 11.3143 4.14276 11.5023 4.44179 11.5023L5.34257 11.5023C5.36562 12.3994 5.57968 13.2219 5.94296 13.9084L5.1746 14.5568C4.9457 14.7512 4.88886 15.0457 5.06366 15.2453C5.24023 15.4752 5.53573 15.4609 5.76464 15.2631L6.46464 14.675C7.13066 15.4637 8.04003 15.9797 9.15195 16.1332C9.5125 16.1678 9.70859 16.0373 9.70859 15.7523L9.70859 11.461L8.53728 10.2907C8.53944 10.3081 8.54003 10.3259 8.54003 10.3437C8.54003 10.7894 8.16542 11.1783 7.71796 11.1783C7.26425 11.1783 6.88515 10.7894 6.88515 10.3437C6.88515 9.89628 7.26425 9.51718 7.71796 9.51718C7.73401 9.51718 7.74996 9.51767 7.76556 9.51969L5.28548 7.04182C5.18993 7.05754 5.10101 7.10706 5.02773 7.1957ZM5.2498 5.26308C5.05644 5.45819 5.06269 5.78632 5.2498 5.98143L14.2148 14.935C14.4002 15.1283 14.7363 15.1283 14.9332 14.935C15.1266 14.7301 15.1283 14.4215 14.9332 14.2166L5.97968 5.26308C5.7828 5.05819 5.45468 5.05995 5.2498 5.26308ZM8.79218 13.0992C8.79218 13.6133 8.35175 14.0332 7.84746 14.0332C7.33339 14.0332 6.90546 13.6133 6.90546 13.0992C6.90546 12.5904 7.33339 12.1625 7.84746 12.1625C8.35351 12.1625 8.79218 12.5939 8.79218 13.0992ZM14.4348 7.18242L13.5273 7.933C13.2668 7.72655 13.0818 7.72831 12.9289 7.79765C12.1375 8.15413 11.1444 8.36759 10.1142 8.3706L11.7187 9.9752C11.8575 9.70619 12.1411 9.51718 12.457 9.51718C12.9125 9.51718 13.2898 9.89628 13.2898 10.3437C13.2898 10.6589 13.1012 10.9456 12.8293 11.0858L14.6297 12.8861C14.7511 12.4541 14.8199 11.9892 14.8324 11.5023L15.7252 11.5023C16.0322 11.5023 16.2123 11.3143 16.2123 11.0445C16.2123 10.7633 16.0322 10.585 15.7252 10.5832L14.7703 10.5734C14.6842 9.87792 14.4684 9.16464 14.1629 8.60956L15.0283 7.88866C15.251 7.71386 15.3123 7.40781 15.1393 7.1957C14.9529 6.97031 14.6734 6.99785 14.4348 7.18242ZM7.70859 4.28319L8.0746 4.3996C8.28339 4.46093 8.35449 4.58358 8.32871 4.74979L8.30566 4.88749C7.92445 5.10236 7.63453 5.3827 7.44872 5.70517L9.46142 7.71787C9.66578 7.73516 9.87574 7.74355 10.0875 7.74355C11.0064 7.74355 11.8988 7.5828 12.4885 7.30409C12.8594 7.11874 12.965 6.91269 12.965 6.61698C12.965 5.91562 12.5717 5.28612 11.8676 4.88573L11.8445 4.74979C11.8107 4.58358 11.8801 4.46093 12.0986 4.3996L12.4566 4.28319C13.0387 4.13319 12.7494 3.22909 12.1594 3.4412L11.7277 3.60292C11.2723 3.76718 10.9908 4.07616 10.9945 4.51386L10.9928 4.56444C10.7059 4.49511 10.4064 4.46132 10.0875 4.46132C9.76054 4.46132 9.45585 4.49511 9.17245 4.56444L9.1787 4.51386C9.18242 4.08593 8.90097 3.76718 8.43398 3.60292L8.01562 3.4412C7.42382 3.22558 7.13456 4.13319 7.70859 4.28319Z" fill="white" fill-opacity="0.85"/>
 </g>
</svg>
