<?xml version="1.0" encoding="UTF-8"?>
<!--Generator: Apple Native CoreSVG 341-->
<!DOCTYPE svg
PUBLIC "-//W3C//DTD SVG 1.1//EN"
       "http://www.w3.org/Graphics/SVG/1.1/DTD/svg11.dtd">
<svg version="1.1" xmlns="http://www.w3.org/2000/svg" xmlns:xlink="http://www.w3.org/1999/xlink" viewBox="0 0 20.5381 20.1848">
 <g>
  <rect height="20.1848" opacity="0" width="20.5381" x="0" y="0"/>
  <path d="M20.1767 10.0875C20.1767 15.6559 15.6576 20.175 10.0875 20.175C4.51914 20.175 0 15.6559 0 10.0875C0 4.51914 4.51914 0 10.0875 0C15.6576 0 20.1767 4.51914 20.1767 10.0875ZM1.9871 10.0875C1.9871 14.5666 5.60839 18.1879 10.0875 18.1879C14.5666 18.1879 18.1897 14.5666 18.1897 10.0875C18.1897 5.60839 14.5666 1.9871 10.0875 1.9871C5.60839 1.9871 1.9871 5.60839 1.9871 10.0875Z" fill="white" fill-opacity="0.85"/>
  <path d="M11.327 12.9979C11.3447 13.4666 11.7338 13.8438 12.1936 13.8645L13.1923 14.8632C12.6032 15.4023 11.8529 15.7617 10.9787 15.8779C10.6297 15.9187 10.4353 15.79 10.4353 15.5184L10.4353 12.1062ZM7.84058 9.51148C7.8265 9.50959 7.81211 9.50917 7.79765 9.50917C7.36523 9.50917 6.99941 9.87675 6.99941 10.3092C6.99941 10.7416 7.36523 11.1092 7.79765 11.1092C8.23183 11.1092 8.59941 10.7416 8.59941 10.3092C8.59941 10.2954 8.59902 10.2816 8.5972 10.2681L9.72363 11.3945L9.72363 15.5184C9.72363 15.79 9.52929 15.9187 9.18027 15.8779C8.11445 15.7359 7.22987 15.2314 6.59667 14.4853L5.91171 15.0521C5.69433 15.2385 5.41835 15.2447 5.2453 15.0326C5.07226 14.8285 5.12733 14.549 5.34472 14.3725L6.09003 13.7391C5.74003 13.0818 5.53573 12.2922 5.51444 11.4199L4.65448 11.4199C4.35897 11.4199 4.18065 11.2434 4.18065 10.9789C4.18065 10.7189 4.35897 10.5441 4.65448 10.5424L5.56503 10.5326C5.65116 9.86816 5.85722 9.17616 6.15741 8.63612L5.32206 7.94804C5.10292 7.77499 5.0496 7.48398 5.22089 7.27363C5.28918 7.19389 5.37143 7.14679 5.45993 7.13082ZM7.02773 12.9627C7.02773 13.4617 7.43261 13.8666 7.93163 13.8666C8.41288 13.8666 8.83378 13.4617 8.83378 12.9627C8.83378 12.4769 8.4164 12.0605 7.93163 12.0605C7.43261 12.0605 7.02773 12.4734 7.02773 12.9627ZM14.9381 7.27363C15.1094 7.48398 15.0561 7.76698 14.8387 7.94804L14.0096 8.63612C14.3035 9.17616 14.5096 9.86816 14.5957 10.5326L15.5143 10.5424C15.8 10.5441 15.9783 10.7189 15.9783 10.9789C15.9783 11.2434 15.8 11.4199 15.5143 11.4199L14.6463 11.4199C14.6337 11.8963 14.567 12.3481 14.4503 12.7659L12.7109 11.0281C12.9762 10.8977 13.1613 10.6202 13.1613 10.3092C13.1613 9.87675 12.8035 9.50917 12.3711 9.50917C12.0528 9.50917 11.7789 9.70218 11.65 9.96823L10.0938 8.41348C11.0921 8.41182 12.0554 8.19989 12.8217 7.85526C12.9746 7.78593 13.1453 7.79218 13.3961 7.99237L14.2717 7.27011C14.4988 7.07929 14.765 7.06152 14.9381 7.27363ZM8.08026 3.65917L8.4871 3.82089C8.9373 3.98163 9.20722 4.28886 9.20351 4.69374L9.20702 4.75409C9.4789 4.68475 9.77031 4.65097 10.0795 4.65097C10.3887 4.65097 10.6863 4.68475 10.96 4.75409L10.9537 4.69374C10.95 4.27909 11.2199 3.98163 11.6719 3.82089L12.0805 3.65917C12.6457 3.46659 12.9234 4.3246 12.3645 4.46483L12.0197 4.58573C11.8029 4.64706 11.7496 4.7537 11.7754 4.92616L11.7967 5.0621C12.476 5.43143 12.8561 6.03964 12.8561 6.72245C12.8561 7.00663 12.7539 7.21093 12.3963 7.38476C11.8297 7.65019 10.9719 7.81093 10.0795 7.81093C9.87139 7.81093 9.66509 7.80215 9.4643 7.78452L7.53249 5.8545C7.71057 5.53753 7.99162 5.26539 8.3623 5.06386L8.38183 4.92616C8.41738 4.7537 8.35605 4.64706 8.13925 4.58573L7.79277 4.46483C7.23554 4.3246 7.51327 3.46483 8.08026 3.65917Z" fill="white" fill-opacity="0.85"/>
  <path d="M14.065 14.7355C14.2486 14.9174 14.568 14.9271 14.7516 14.7355C14.9449 14.5439 14.9449 14.2406 14.7516 14.0473L6.14549 5.43319C5.94413 5.23983 5.63905 5.23983 5.44745 5.43319C5.25409 5.62479 5.25409 5.93612 5.44745 6.11971Z" fill="white" fill-opacity="0.85"/>
 </g>
</svg>
