<?xml version="1.0" encoding="UTF-8"?>
<!--Generator: Apple Native CoreSVG 341-->
<!DOCTYPE svg
PUBLIC "-//W3C//DTD SVG 1.1//EN"
       "http://www.w3.org/Graphics/SVG/1.1/DTD/svg11.dtd">
<svg version="1.1" xmlns="http://www.w3.org/2000/svg" xmlns:xlink="http://www.w3.org/1999/xlink" viewBox="0 0 22.8885 23.5515">
 <g>
  <rect height="23.5515" opacity="0" width="22.8885" x="0" y="0"/>
  <path d="M11.2596 23.5515C16.5107 23.5515 20.007 19.9691 20.007 14.575C20.007 11.6119 18.7029 8.58046 16.608 6.72011C16.5656 3.95176 14.4646 2.29277 11.2596 2.29277C8.05449 2.29277 5.96152 3.96152 5.91914 6.72812C3.82598 8.58847 2.52012 11.5799 2.52012 14.575C2.52012 19.9691 6.0164 23.5515 11.2596 23.5515ZM11.2596 9.19725C12.9723 9.19725 14.683 8.88104 15.8473 8.39882C17.0846 9.7201 18.2875 11.9105 18.2875 14.575C18.2875 18.9342 15.4758 21.8383 11.2596 21.8383C7.04335 21.8383 4.23163 18.9342 4.23163 14.575C4.23163 11.9185 5.42831 9.73612 6.67988 8.39882C7.84413 8.88104 9.55487 9.19725 11.2596 9.19725ZM10.5312 22.2996L11.9318 22.2996L11.9318 11.0736C11.9318 10.6851 11.6142 10.3773 11.2275 10.3773C10.8391 10.3773 10.5312 10.6851 10.5312 11.0736ZM8.12499 12.5836C8.83319 12.5836 9.40292 11.9978 9.40292 11.2976C9.40292 10.5975 8.83319 10.0197 8.12499 10.0197C7.42656 10.0197 6.85683 10.5975 6.85683 11.2976C6.85683 11.9978 7.42656 12.5836 8.12499 12.5836ZM6.95234 16.4736C7.7582 16.4736 8.42382 15.808 8.42382 14.9906C8.42382 14.1785 7.7582 13.5129 6.95234 13.5129C6.12695 13.5129 5.46132 14.175 5.46132 14.9906C5.46132 15.808 6.12695 16.4736 6.95234 16.4736ZM8.12499 19.8293C8.77558 19.8293 9.30097 19.3074 9.30097 18.6631C9.30097 18.0125 8.77558 17.4871 8.12499 17.4871C7.48066 17.4871 6.95527 18.0125 6.95527 18.6631C6.95527 19.3074 7.48066 19.8293 8.12499 19.8293ZM14.4039 12.5836C15.1023 12.5836 15.6721 11.9978 15.6721 11.2976C15.6721 10.5975 15.1023 10.0197 14.4039 10.0197C13.6939 10.0197 13.1242 10.5975 13.1242 11.2976C13.1242 11.9978 13.6939 12.5836 14.4039 12.5836ZM15.5748 16.4736C16.3922 16.4736 17.0658 15.808 17.0658 14.9906C17.0658 14.175 16.3922 13.5129 15.5748 13.5129C14.7689 13.5129 14.0953 14.1785 14.0953 14.9906C14.0953 15.808 14.7689 16.4736 15.5748 16.4736ZM14.4039 19.8293C15.0465 19.8293 15.5719 19.3074 15.5719 18.6631C15.5719 18.0125 15.0465 17.4871 14.4039 17.4871C13.7516 17.4871 13.2262 18.0125 13.2262 18.6631C13.2262 19.3074 13.7516 19.8293 14.4039 19.8293ZM6.92577 1.80741L7.56523 2.03222C7.96582 2.1664 8.10547 2.3664 8.03613 2.67754L7.90136 3.23613L9.53202 3.22636L9.60389 2.67734C9.71483 1.67383 9.24022 0.926757 8.22245 0.569141L7.46679 0.270703C6.38398-0.101756 5.86523 1.50585 6.92577 1.80741ZM15.6014 1.80741C16.6619 1.50585 16.1432-0.101756 15.0603 0.270703L14.3047 0.569141C13.2869 0.926757 12.8123 1.67383 12.925 2.67734L12.9951 3.22636L14.6258 3.23613L14.491 2.67754C14.4217 2.3664 14.5631 2.1664 14.9619 2.03222ZM5.2705 8.60507L3.23965 6.92324C2.82734 6.58535 2.30938 6.55332 1.97852 6.9498C1.65391 7.33476 1.75957 7.87304 2.16836 8.20116L4.22499 9.891ZM3.38593 13.1617L0.897457 13.1732C0.354686 13.1732 0 13.5146 0 14.0086C0 14.5105 0.354686 14.8502 0.905465 14.8502L3.38593 14.8387ZM4.11191 18.9818L2.22422 20.5678C1.82695 20.9029 1.71953 21.4279 2.04238 21.8262C2.375 22.2226 2.89199 22.1941 3.30527 21.8527L5.16894 20.273ZM17.2486 8.60507L18.3021 9.891L20.3588 8.20116C20.7596 7.87304 20.8732 7.33476 20.5486 6.9498C20.2178 6.55332 19.6998 6.58535 19.2875 6.92324ZM19.1412 13.1617L19.1412 14.8387L21.6217 14.8502C22.1644 14.8502 22.5271 14.5105 22.5271 14.0086C22.5271 13.5146 22.1644 13.1732 21.6297 13.1732ZM18.4072 18.9818L17.3502 20.265L19.2219 21.8527C19.6271 22.1941 20.1539 22.2226 20.4848 21.8262C20.8076 21.4279 20.7002 20.9029 20.2949 20.5678Z" fill="white" fill-opacity="0.85"/>
 </g>
</svg>
