<?xml version="1.0" encoding="UTF-8"?>
<!--Generator: Apple Native CoreSVG 341-->
<!DOCTYPE svg
PUBLIC "-//W3C//DTD SVG 1.1//EN"
       "http://www.w3.org/Graphics/SVG/1.1/DTD/svg11.dtd">
<svg version="1.1" xmlns="http://www.w3.org/2000/svg" xmlns:xlink="http://www.w3.org/1999/xlink" viewBox="0 0 15.6604 23.9414">
 <g>
  <rect height="23.9414" opacity="0" width="15.6604" x="0" y="0"/>
  <path d="M7.65044 11.7187C9.81723 11.7187 11.9629 11.582 13.726 11.3166C15.1414 11.1125 15.6553 10.0457 15.0448 8.64004L12.1461 2.10859C11.5161 0.677148 10.4715 0 8.88032 0L6.41079 0C4.82759 0 3.78482 0.677148 3.15298 2.10859L0.254347 8.64004C-0.356199 10.0457 0.151418 11.1125 1.5731 11.3166C3.32817 11.582 5.47563 11.7187 7.65044 11.7187ZM6.71587 13.2389L8.577 13.2389L8.577 11.1678L6.71587 11.1678ZM6.16059 23.9299L9.13052 23.9299C11.7414 23.9299 13.2381 22.6223 13.2381 20.3494C13.2381 18.9637 12.8032 16.8971 12.0442 14.8162C11.5924 13.5746 10.6188 12.8574 9.24829 12.8574L6.04458 12.8574C4.67231 12.8574 3.69868 13.5746 3.24692 14.8162C2.49946 16.8935 2.0565 18.9619 2.0565 20.3494C2.0565 22.6223 3.55317 23.9299 6.16059 23.9299Z" fill="white" fill-opacity="0.85"/>
 </g>
</svg>
