<?xml version="1.0" encoding="UTF-8"?>
<!--Generator: Apple Native CoreSVG 341-->
<!DOCTYPE svg
PUBLIC "-//W3C//DTD SVG 1.1//EN"
       "http://www.w3.org/Graphics/SVG/1.1/DTD/svg11.dtd">
<svg version="1.1" xmlns="http://www.w3.org/2000/svg" xmlns:xlink="http://www.w3.org/1999/xlink" viewBox="0 0 15.7429 24.0223">
 <g>
  <rect height="24.0223" opacity="0" width="15.7429" x="0" y="0"/>
  <path d="M7.69076 11.7996C9.85053 11.7996 12.0015 11.6629 13.7734 11.3975C15.2152 11.1898 15.7466 10.0932 15.122 8.66464L12.2234 2.13144C11.5863 0.687694 10.5277 0 8.92065 0L6.45287 0C4.85385 0 3.7935 0.687694 3.15815 2.13144L0.259518 8.66464C-0.36509 10.0932 0.158346 11.1898 1.60815 11.3975C3.37201 11.6629 5.52123 11.7996 7.69076 11.7996ZM7.69076 10.1443C5.90287 10.1443 4.13354 10.0449 2.25521 9.8291C1.76986 9.77578 1.689 9.48691 1.89525 9.02285L4.65111 2.80702C5.00541 2.01405 5.5765 1.64726 6.45287 1.64726L8.92065 1.64726C9.79701 1.64726 10.3761 2.01405 10.7304 2.80702L13.4863 9.02285C13.6925 9.48691 13.6019 9.77578 13.1263 9.8291C11.248 10.0449 9.46889 10.1443 7.69076 10.1443ZM6.7562 13.2793L8.61908 13.2793L8.61908 11.2082L6.7562 11.2082ZM6.20092 24.0125L9.17084 24.0125C11.8046 24.0125 13.3189 22.6855 13.3189 20.3898C13.3189 18.9971 12.8822 16.9269 12.1249 14.8408C11.6661 13.5869 10.6785 12.8574 9.28861 12.8574L6.0849 12.8574C4.69506 12.8574 3.70737 13.5869 3.24858 14.8408C2.49936 16.9269 2.05639 18.9971 2.05639 20.3898C2.05639 22.6855 3.57065 24.0125 6.20092 24.0125ZM6.20092 22.3652C4.614 22.3652 3.69388 21.6377 3.69388 20.3898C3.69388 19.1699 4.10228 17.3135 4.78412 15.4029C4.98666 14.8326 5.40521 14.5029 6.0849 14.5029L9.28861 14.5029C9.96655 14.5029 10.3869 14.8326 10.5876 15.4029C11.2712 17.3135 11.6814 19.1699 11.6814 20.3898C11.6814 21.6377 10.7613 22.3652 9.17084 22.3652Z" fill="white" fill-opacity="0.85"/>
 </g>
</svg>
