<?xml version="1.0" encoding="UTF-8"?>
<!--Generator: Apple Native CoreSVG 341-->
<!DOCTYPE svg
PUBLIC "-//W3C//DTD SVG 1.1//EN"
       "http://www.w3.org/Graphics/SVG/1.1/DTD/svg11.dtd">
<svg version="1.1" xmlns="http://www.w3.org/2000/svg" xmlns:xlink="http://www.w3.org/1999/xlink" viewBox="0 0 15.8588 21.1441">
 <g>
  <rect height="21.1441" opacity="0" width="15.8588" x="0" y="0"/>
  <path d="M0 17.9406C0 20.0502 1.07968 21.1379 3.17148 21.1379L12.334 21.1379C14.4178 21.1379 15.4974 20.0502 15.4974 17.9406L15.4974 3.20527C15.4974 1.10371 14.4178 0 12.334 0L3.17148 0C1.07968 0 0 1.10371 0 3.20527ZM5.31288 3.46855C4.94101 3.46855 4.63124 3.16679 4.63124 2.79668C4.63124 2.4248 4.93925 2.12129 5.31288 2.12129L10.1846 2.12129C10.5644 2.12129 10.8662 2.4248 10.8662 2.79668C10.8662 3.16679 10.5627 3.46855 10.1846 3.46855Z" fill="white" fill-opacity="0.85"/>
 </g>
</svg>
