<?xml version="1.0" encoding="UTF-8"?>
<!--Generator: Apple Native CoreSVG 341-->
<!DOCTYPE svg
PUBLIC "-//W3C//DTD SVG 1.1//EN"
       "http://www.w3.org/Graphics/SVG/1.1/DTD/svg11.dtd">
<svg version="1.1" xmlns="http://www.w3.org/2000/svg" xmlns:xlink="http://www.w3.org/1999/xlink" viewBox="0 0 29.1125 23.6043">
 <g>
  <rect height="23.6043" opacity="0" width="29.1125" x="0" y="0"/>
  <path d="M25.4439 5.96775L25.4439 17.484L27.5123 17.484C28.1898 17.484 28.7511 18.0418 28.7511 18.7273C28.7511 19.4129 28.1898 19.9724 27.5123 19.9724L1.2371 19.9724C0.561326 19.9724 0 19.4129 0 18.7273C0 18.0418 0.561326 17.484 1.2371 17.484L3.30547 17.484L3.30547 5.96775C3.30547 4.45116 4.19413 3.64433 5.64667 3.64433L11.631 3.64433L11.631 5.55759L6.12987 5.55759C5.52244 5.55759 5.21873 5.85427 5.21873 6.46873L5.21873 17.484L23.5307 17.484L23.5307 6.46873C23.5307 5.85427 23.2269 5.55759 22.6213 5.55759L17.1183 5.55759L17.1183 3.64433L23.1045 3.64433C24.6131 3.64433 25.4439 4.45116 25.4439 5.96775Z" fill="white" fill-opacity="0.85"/>
  <path d="M11.0246 8.78514C10.5758 8.78514 10.2248 9.11327 10.2248 9.5619C10.2248 9.80311 10.3117 9.97694 10.4758 10.141L13.6914 13.2359C13.9219 13.4646 14.1416 13.539 14.3756 13.539C14.6096 13.539 14.8275 13.4646 15.0597 13.2359L18.2656 10.141C18.4297 9.97694 18.5263 9.80311 18.5263 9.5619C18.5263 9.11327 18.1656 8.78514 17.7168 8.78514C17.4978 8.78514 17.2699 8.87733 17.1156 9.05116L15.7162 10.5412L14.3756 12.1666L13.0269 10.5412L11.6355 9.05116C11.4795 8.87733 11.2435 8.78514 11.0246 8.78514ZM14.3756 0.307605C13.8801 0.307605 13.4758 0.720688 13.4758 1.19764L13.4758 9.71503L13.6334 12.516C13.66 12.9248 13.965 13.2564 14.3756 13.2564C14.7844 13.2564 15.0894 12.9248 15.116 12.516L15.2736 9.71503L15.2736 1.19764C15.2736 0.720688 14.8711 0.307605 14.3756 0.307605Z" fill="white" fill-opacity="0.85"/>
 </g>
</svg>
