<?xml version="1.0" encoding="UTF-8"?>
<!--Generator: Apple Native CoreSVG 341-->
<!DOCTYPE svg
PUBLIC "-//W3C//DTD SVG 1.1//EN"
       "http://www.w3.org/Graphics/SVG/1.1/DTD/svg11.dtd">
<svg version="1.1" xmlns="http://www.w3.org/2000/svg" xmlns:xlink="http://www.w3.org/1999/xlink" viewBox="0 0 18.5894 18.2316">
 <g>
  <rect height="18.2316" opacity="0" width="18.5894" x="0" y="0"/>
  <path d="M18.2281 3.17148L18.2281 15.0646C18.2281 17.1502 17.1404 18.2281 15.0246 18.2281L3.20351 18.2281C1.0957 18.2281 0 17.1502 0 15.0646L0 3.17148C0 1.08769 1.0957 0 3.20351 0L15.0246 0C17.1404 0 18.2281 1.08769 18.2281 3.17148ZM9.88671 3.82402L9.88671 4.70566C9.66738 4.67636 9.44179 4.66835 9.2162 4.66835C9.00214 4.66835 8.79784 4.67636 8.58378 4.7039L8.58378 3.82402C8.58378 3.63749 8.44882 3.50253 8.25429 3.50253C8.06952 3.50253 7.93456 3.63749 7.93456 3.82402L7.93456 4.83007C6.16093 5.2955 4.87421 6.725 4.87421 8.65664C4.87421 10.1924 5.60371 11.7262 7.04531 12.4543L7.04531 12.4906L5.43105 12.4906C5.0748 12.4906 4.83984 12.7025 4.83984 13.0385C4.83984 13.3797 5.0748 13.6059 5.43105 13.6059L12.2818 13.6059C12.6434 13.6059 12.8881 13.3744 12.8881 13.0314C12.8881 12.685 12.6434 12.4615 12.2818 12.4615L10.0154 12.4615C7.76268 12.4615 6.21913 10.8162 6.21913 8.88261C6.21913 7.4994 6.89706 6.51444 7.93456 6.09706L7.93456 8.57792C7.93456 8.77245 8.06952 8.90566 8.25429 8.90566C8.44882 8.90566 8.58378 8.77245 8.58378 8.57792L8.58378 5.90526C8.79784 5.87596 9.00566 5.84843 9.22148 5.84843C9.45683 5.84843 9.67265 5.87596 9.88671 5.91503L9.88671 8.57792C9.88671 8.77245 10.0297 8.90566 10.2082 8.90566C10.4107 8.90566 10.5422 8.77245 10.5422 8.57792L10.5422 6.1246C11.4744 6.51913 12.1213 7.34921 12.1797 8.36933C12.2123 8.74375 12.4367 9.01679 12.8162 9.01679C13.2045 9.01679 13.4615 8.75332 13.4615 8.35879C13.4535 6.72988 12.2019 5.34687 10.5422 4.85312L10.5422 3.82402C10.5422 3.63749 10.4107 3.50253 10.2082 3.50253C10.0297 3.50253 9.88671 3.63749 9.88671 3.82402Z" fill="white" fill-opacity="0.85"/>
 </g>
</svg>
