<?xml version="1.0" encoding="UTF-8"?>
<!--Generator: Apple Native CoreSVG 341-->
<!DOCTYPE svg
PUBLIC "-//W3C//DTD SVG 1.1//EN"
       "http://www.w3.org/Graphics/SVG/1.1/DTD/svg11.dtd">
<svg version="1.1" xmlns="http://www.w3.org/2000/svg" xmlns:xlink="http://www.w3.org/1999/xlink" viewBox="0 0 20.5381 20.1848">
 <g>
  <rect height="20.1848" opacity="0" width="20.5381" x="0" y="0"/>
  <path d="M10.0875 20.175C15.6576 20.175 20.1767 15.6559 20.1767 10.0875C20.1767 4.51914 15.6576 0 10.0875 0C4.51914 0 0 4.51914 0 10.0875C0 15.6559 4.51914 20.175 10.0875 20.175ZM10.0875 18.1879C5.60839 18.1879 1.9871 14.5666 1.9871 10.0875C1.9871 5.60839 5.60839 1.9871 10.0875 1.9871C14.5666 1.9871 18.1897 5.60839 18.1897 10.0875C18.1897 14.5666 14.5666 18.1879 10.0875 18.1879Z" fill="white" fill-opacity="0.85"/>
  <path d="M6.51054 14.3893L13.1008 14.3893C13.4455 14.3893 13.6769 14.1711 13.6769 13.8432C13.6769 13.5135 13.4455 13.2953 13.1008 13.2953L10.9123 13.2953C8.75448 13.2953 7.25878 11.7139 7.25878 9.84589C7.25878 8.01132 8.49296 6.92343 10.1592 6.92343C11.6937 6.92343 12.927 7.95624 13.0109 9.35918C13.0418 9.7123 13.2529 9.97207 13.6174 9.97207C13.9889 9.97207 14.2309 9.72187 14.2309 9.35215C14.2228 7.37656 12.3254 5.79023 10.1539 5.79023C7.84433 5.79023 5.98378 7.35585 5.98378 9.6332C5.98378 11.1131 6.68222 12.591 8.06973 13.2863L8.06973 13.3227L6.51054 13.3227C6.17109 13.3227 5.9414 13.5293 5.9414 13.852C5.9414 14.1746 6.17109 14.3893 6.51054 14.3893ZM9.22655 9.86894C9.41132 9.86894 9.54452 9.73574 9.54452 9.55273L9.54452 4.98046C9.54452 4.80546 9.41132 4.67226 9.22655 4.67226C9.05155 4.67226 8.91835 4.80546 8.91835 4.98046L8.91835 9.55273C8.91835 9.73574 9.05155 9.86894 9.22655 9.86894ZM11.1113 9.86894C11.2943 9.86894 11.4275 9.73574 11.4275 9.55273L11.4275 4.98046C11.4275 4.80546 11.2943 4.67226 11.1113 4.67226C10.9346 4.67226 10.8014 4.80546 10.8014 4.98046L10.8014 9.55273C10.8014 9.73574 10.9346 9.86894 11.1113 9.86894Z" fill="white" fill-opacity="0.85"/>
 </g>
</svg>
