<?xml version="1.0" encoding="UTF-8"?>
<!--Generator: Apple Native CoreSVG 341-->
<!DOCTYPE svg
PUBLIC "-//W3C//DTD SVG 1.1//EN"
       "http://www.w3.org/Graphics/SVG/1.1/DTD/svg11.dtd">
<svg version="1.1" xmlns="http://www.w3.org/2000/svg" xmlns:xlink="http://www.w3.org/1999/xlink" viewBox="0 0 22.7515 21.4965">
 <g>
  <rect height="21.4965" opacity="0" width="22.7515" x="0" y="0"/>
  <path d="M12.481 0.359374L20.9545 5.24941C21.351 5.47734 21.5363 5.7664 21.5363 6.09277C21.5363 6.53886 21.1851 6.98046 20.5865 6.98046L19.7447 6.98046L19.7447 18.2742L20.3117 18.2742C20.7437 18.2742 20.9947 18.5297 20.9947 18.9572L20.9947 19.7158L21.499 19.7158C21.9797 19.7158 22.3902 20.1148 22.3902 20.5972C22.3902 21.0849 21.9797 21.4867 21.499 21.4867L0.881441 21.4867C0.399022 21.4867 0 21.0832 0 20.5972C0 20.1148 0.399022 19.7158 0.881441 19.7158L1.44999 19.7158L1.44999 18.9572C1.44999 18.5297 1.70898 18.2742 2.14101 18.2742L2.69999 18.2742L2.69999 6.98046L1.85995 6.98046C1.25957 6.98046 0.908396 6.53886 0.908396 6.09277C0.908396 5.7664 1.08574 5.47734 1.49023 5.24941L9.96366 0.359374C10.3523 0.125976 10.7969 0 11.2183 0C11.6398 0 12.0764 0.125976 12.481 0.359374ZM11.9748 6.2908L11.9748 7.17069C11.7555 7.14315 11.5299 7.12713 11.3025 7.12713C11.0885 7.12713 10.8859 7.14315 10.6719 7.16893L10.6719 6.2908C10.6719 6.09627 10.5369 5.96932 10.3424 5.96932C10.1576 5.96932 10.0226 6.09627 10.0226 6.2908L10.0226 7.29686C8.24725 7.75428 6.96229 9.19178 6.96229 11.1154C6.96229 12.6512 7.69179 14.1849 9.12538 14.9193L9.12538 14.9574L7.51912 14.9574C7.16288 14.9574 6.91991 15.1693 6.91991 15.5053C6.91991 15.8447 7.16288 16.0726 7.51912 16.0726L14.3699 16.0726C14.7297 16.0726 14.9762 15.8412 14.9762 15.4965C14.9762 15.1517 14.7297 14.9283 14.3699 14.9283L12.0955 14.9283C9.85076 14.9283 8.30721 13.283 8.30721 11.3476C8.30721 9.96443 8.98514 8.97947 10.0226 8.56384L10.0226 11.0447C10.0226 11.2392 10.1576 11.3707 10.3424 11.3707C10.5369 11.3707 10.6719 11.2392 10.6719 11.0447L10.6719 8.36228C10.8859 8.33474 11.0937 8.31345 11.3096 8.31345C11.5351 8.31345 11.7607 8.33474 11.9748 8.38181L11.9748 11.0447C11.9748 11.2392 12.1178 11.3707 12.2945 11.3707C12.4891 11.3707 12.6303 11.2392 12.6303 11.0447L12.6303 8.58962C13.5625 8.98592 14.2094 9.816 14.2678 10.8344C14.3004 11.2088 14.523 11.4836 14.9043 11.4836C15.2908 11.4836 15.5496 11.2201 15.5496 10.8238C15.5416 9.19666 14.29 7.81366 12.6303 7.31815L12.6303 6.2908C12.6303 6.09627 12.4891 5.96932 12.2945 5.96932C12.1178 5.96932 11.9748 6.09627 11.9748 6.2908Z" fill="white" fill-opacity="0.85"/>
 </g>
</svg>
