<?xml version="1.0" encoding="UTF-8"?>
<!--Generator: Apple Native CoreSVG 341-->
<!DOCTYPE svg
PUBLIC "-//W3C//DTD SVG 1.1//EN"
       "http://www.w3.org/Graphics/SVG/1.1/DTD/svg11.dtd">
<svg version="1.1" xmlns="http://www.w3.org/2000/svg" xmlns:xlink="http://www.w3.org/1999/xlink" viewBox="0 0 18.5894 18.2316">
 <g>
  <rect height="18.2316" opacity="0" width="18.5894" x="0" y="0"/>
  <path d="M3.20351 18.2281L15.0246 18.2281C17.1404 18.2281 18.2281 17.1502 18.2281 15.0646L18.2281 3.17148C18.2281 1.08769 17.1404 0 15.0246 0L3.20351 0C1.0957 0 0 1.08769 0 3.17148L0 15.0646C0 17.1502 1.0957 18.2281 3.20351 18.2281ZM3.31444 16.3148C2.40643 16.3148 1.91327 15.8465 1.91327 14.8977L1.91327 3.34023C1.91327 2.39139 2.40643 1.91503 3.31444 1.91503L14.9137 1.91503C15.8137 1.91503 16.3148 2.39139 16.3148 3.34023L16.3148 14.8977C16.3148 15.8465 15.8137 16.3148 14.9137 16.3148Z" fill="white" fill-opacity="0.85"/>
  <path d="M5.54999 13.4127L12.1402 13.4127C12.485 13.4127 12.7164 13.1945 12.7164 12.8666C12.7164 12.5369 12.485 12.3188 12.1402 12.3188L9.95976 12.3188C7.79393 12.3188 6.29823 10.7373 6.29823 8.86933C6.29823 7.03475 7.54042 5.94686 9.19863 5.94686C10.7412 5.94686 11.9664 6.97968 12.0504 8.38261C12.0813 8.73574 12.2924 8.9955 12.6568 8.9955C13.0266 8.9955 13.2703 8.74531 13.2703 8.37558C13.2623 6.39999 11.3648 4.81367 9.19335 4.81367C6.88378 4.81367 5.02324 6.37929 5.02324 8.65664C5.02324 10.1365 5.71992 11.6145 7.11719 12.3098L7.11719 12.3461L5.54999 12.3461C5.21054 12.3461 4.98886 12.5527 4.98886 12.8754C4.98886 13.198 5.21054 13.4127 5.54999 13.4127ZM8.26601 8.89238C8.45077 8.89238 8.58398 8.75917 8.58398 8.57617L8.58398 4.0039C8.58398 3.8289 8.45077 3.6957 8.26601 3.6957C8.09101 3.6957 7.9578 3.8289 7.9578 4.0039L7.9578 8.57617C7.9578 8.75917 8.09101 8.89238 8.26601 8.89238ZM10.1508 8.89238C10.3418 8.89238 10.467 8.75917 10.467 8.57617L10.467 4.0039C10.467 3.8289 10.3418 3.6957 10.1508 3.6957C9.97402 3.6957 9.84082 3.8289 9.84082 4.0039L9.84082 8.57617C9.84082 8.75917 9.97402 8.89238 10.1508 8.89238Z" fill="white" fill-opacity="0.85"/>
 </g>
</svg>
