<?xml version="1.0" encoding="UTF-8"?>
<!--Generator: Apple Native CoreSVG 341-->
<!DOCTYPE svg
PUBLIC "-//W3C//DTD SVG 1.1//EN"
       "http://www.w3.org/Graphics/SVG/1.1/DTD/svg11.dtd">
<svg version="1.1" xmlns="http://www.w3.org/2000/svg" xmlns:xlink="http://www.w3.org/1999/xlink" viewBox="0 0 24.2049 19.7961">
 <g>
  <rect height="19.7961" opacity="0" width="24.2049" x="0" y="0"/>
  <path d="M23.8435 11.8701C23.8435 5.64747 19.073 0.538875 12.9941 0.00293831C12.6553-0.029874 12.3998 0.215828 12.3998 0.554694L12.3998 3.8043C12.3998 4.08907 12.6012 4.30645 12.8842 4.33301C16.6191 4.80957 19.517 8.00293 19.517 11.8701C19.517 13.6332 18.9115 15.2613 17.8488 16.61C17.6945 16.8023 17.7025 17.0471 17.8719 17.2244L20.2322 19.5785C20.4646 19.8144 20.823 19.8109 21.0359 19.559C22.7926 17.4783 23.8435 14.7949 23.8435 11.8701Z" fill="white" fill-opacity="0.85"/>
  <path d="M0 11.8701C0 14.8029 1.05098 17.4863 2.80586 19.5652C3.01875 19.8172 3.36914 19.8109 3.61132 19.5768L5.96992 17.2227C6.13925 17.0453 6.14726 16.8006 5.99296 16.6082C4.92578 15.2613 4.32656 13.6332 4.32656 11.8701C4.32656 8.00293 7.22617 4.80957 10.9594 4.33301C11.2441 4.30645 11.4437 4.08907 11.4437 3.8043L11.4437 0.554694C11.4437 0.215828 11.1883-0.029874 10.8494 0.00293831C4.77226 0.538875 0 5.64747 0 11.8701Z" fill="white" fill-opacity="0.85"/>
  <path d="M8.34081 16.2566L14.931 16.2566C15.2758 16.2566 15.5072 16.0367 15.5072 15.7088C15.5072 15.3791 15.2758 15.1609 14.931 15.1609L12.7506 15.1609C10.5848 15.1609 9.08905 13.5875 9.08905 11.7195C9.08905 9.87871 10.3312 8.78906 11.9894 8.78906C13.532 8.78906 14.7572 9.82363 14.8412 11.2248C14.8721 11.5779 15.0832 11.8457 15.4557 11.8457C15.8174 11.8457 16.0611 11.5875 16.0611 11.2178C16.0531 9.24219 14.1557 7.65762 11.9842 7.65762C9.6746 7.65762 7.82206 9.22325 7.82206 11.4988C7.82206 12.9805 8.51074 14.4584 9.90801 15.152L9.90801 15.1901L8.34081 15.1901C8.00136 15.1901 7.77968 15.3967 7.77968 15.7176C7.77968 16.0402 8.00136 16.2566 8.34081 16.2566ZM11.0568 11.7443C11.2496 11.7443 11.381 11.6111 11.381 11.4184L11.381 6.84785C11.381 6.6711 11.2496 6.53789 11.0568 6.53789C10.8818 6.53789 10.7486 6.6711 10.7486 6.84785L10.7486 11.4184C10.7486 11.6111 10.8818 11.7443 11.0568 11.7443ZM12.9496 11.7443C13.1326 11.7443 13.2658 11.6111 13.2658 11.4184L13.2658 6.84785C13.2658 6.6711 13.1326 6.53789 12.9496 6.53789C12.7648 6.53789 12.6316 6.6711 12.6316 6.84785L12.6316 11.4184C12.6316 11.6111 12.7648 11.7443 12.9496 11.7443Z" fill="white" fill-opacity="0.85"/>
 </g>
</svg>
