<?xml version="1.0" encoding="UTF-8"?>
<!--Generator: Apple Native CoreSVG 341-->
<!DOCTYPE svg
PUBLIC "-//W3C//DTD SVG 1.1//EN"
       "http://www.w3.org/Graphics/SVG/1.1/DTD/svg11.dtd">
<svg version="1.1" xmlns="http://www.w3.org/2000/svg" xmlns:xlink="http://www.w3.org/1999/xlink" viewBox="0 0 23.4469 19.4312">
 <g>
  <rect height="19.4312" opacity="0" width="23.4469" x="0" y="0"/>
  <path d="M1.44101 10.2293L21.6445 10.2293L21.6445 8.5578L1.44101 8.5578ZM5.52948 11.5267L7.9162 11.5267C8.66756 11.5267 9.09686 11.1037 9.09686 10.3603L9.09686 8.441C9.09686 7.6994 8.66756 7.26835 7.9162 7.26835L5.52948 7.26835C4.78612 7.26835 4.35858 7.6994 4.35858 8.441L4.35858 10.3603C4.35858 11.1037 4.78612 11.5267 5.52948 11.5267ZM15.1613 11.5267L17.548 11.5267C18.2994 11.5267 18.7287 11.1037 18.7287 10.3603L18.7287 8.441C18.7287 7.6994 18.2994 7.26835 17.548 7.26835L15.1613 7.26835C14.41 7.26835 13.9824 7.6994 13.9824 8.441L13.9824 10.3603C13.9824 11.1037 14.41 11.5267 15.1613 11.5267ZM3.15644 19.4215L19.9308 19.4215C22.0209 19.4215 23.0855 18.3728 23.0855 16.2988L23.0855 6.73886C23.0855 4.66483 22.0209 3.6162 19.9308 3.6162L3.15644 3.6162C1.07265 3.6162 0 4.66483 0 6.73886L0 16.2988C0 18.3728 1.07265 19.4215 3.15644 19.4215ZM3.2287 17.5777C2.37011 17.5777 1.91327 17.1369 1.91327 16.2383L1.91327 6.80116C1.91327 5.91053 2.37011 5.45994 3.2287 5.45994L19.8586 5.45994C20.7154 5.45994 21.1723 5.91053 21.1723 6.80116L21.1723 16.2383C21.1723 17.1369 20.7154 17.5777 19.8586 17.5777ZM6.42675 4.41308L8.1953 4.41308L8.1953 2.72675C8.1953 2.02499 8.60311 1.63319 9.32089 1.63319L13.7646 1.63319C14.4824 1.63319 14.8822 2.02675 14.8822 2.72675L14.8822 4.39707L16.6525 4.39707L16.6525 2.72695C16.6525 0.880468 15.6541 0 13.8162 0L9.25781 0C7.50175 0 6.42675 0.880468 6.42675 2.72695Z" fill="white" fill-opacity="0.85"/>
 </g>
</svg>
