<?xml version="1.0" encoding="UTF-8"?>
<!--Generator: Apple Native CoreSVG 341-->
<!DOCTYPE svg
PUBLIC "-//W3C//DTD SVG 1.1//EN"
       "http://www.w3.org/Graphics/SVG/1.1/DTD/svg11.dtd">
<svg version="1.1" xmlns="http://www.w3.org/2000/svg" xmlns:xlink="http://www.w3.org/1999/xlink" viewBox="0 0 20.5381 20.1848">
 <g>
  <rect height="20.1848" opacity="0" width="20.5381" x="0" y="0"/>
  <path d="M10.0875 20.175C15.6576 20.175 20.1767 15.6559 20.1767 10.0875C20.1767 4.51914 15.6576 0 10.0875 0C4.51914 0 0 4.51914 0 10.0875C0 15.6559 4.51914 20.175 10.0875 20.175ZM10.0875 18.1879C5.60839 18.1879 1.9871 14.5666 1.9871 10.0875C1.9871 5.60839 5.60839 1.9871 10.0875 1.9871C14.5666 1.9871 18.1897 5.60839 18.1897 10.0875C18.1897 14.5666 14.5666 18.1879 10.0875 18.1879Z" fill="white" fill-opacity="0.85"/>
  <path d="M8.29999 14.4307L12.6561 14.4307C13.1273 14.4307 13.4518 14.1408 13.4518 13.6641C13.4518 13.1828 13.1273 12.8912 12.6561 12.8912L9.26678 12.8912L9.26678 6.54022C9.26678 5.88007 8.92479 5.46796 8.29999 5.46796C7.68945 5.46796 7.34922 5.89433 7.34922 6.54022L7.34922 13.3664C7.34922 14.0123 7.68945 14.4307 8.29999 14.4307Z" fill="white" fill-opacity="0.85"/>
 </g>
</svg>
