<?xml version="1.0" encoding="UTF-8"?>
<!--Generator: Apple Native CoreSVG 341-->
<!DOCTYPE svg
PUBLIC "-//W3C//DTD SVG 1.1//EN"
       "http://www.w3.org/Graphics/SVG/1.1/DTD/svg11.dtd">
<svg version="1.1" xmlns="http://www.w3.org/2000/svg" xmlns:xlink="http://www.w3.org/1999/xlink" viewBox="0 0 18.5894 18.2316">
 <g>
  <rect height="18.2316" opacity="0" width="18.5894" x="0" y="0"/>
  <path d="M18.2281 3.17148L18.2281 15.0646C18.2281 17.1502 17.1404 18.2281 15.0246 18.2281L3.20351 18.2281C1.0957 18.2281 0 17.1502 0 15.0646L0 3.17148C0 1.08769 1.0957 0 3.20351 0L15.0246 0C17.1404 0 18.2281 1.08769 18.2281 3.17148ZM11.1881 4.9916L5.2332 8.13437C4.78535 8.3748 4.56367 8.68964 4.56367 9.12148C4.56367 9.58007 4.77285 9.8621 5.2332 10.0928L11.1881 13.1475C11.3707 13.2299 11.532 13.2805 11.7502 13.2805C12.3105 13.2805 12.7113 12.8797 12.7113 12.3363C12.7113 11.8824 12.5119 11.6174 11.9953 11.3939L7.2535 9.12499L7.2535 9.05585L11.9953 6.73709C12.5039 6.51366 12.7113 6.2326 12.7113 5.78671C12.7113 5.25136 12.3185 4.85058 11.7662 4.85058C11.532 4.85058 11.3787 4.90117 11.1881 4.9916Z" fill="white" fill-opacity="0.85"/>
 </g>
</svg>
