<?xml version="1.0" encoding="UTF-8"?>
<!--Generator: Apple Native CoreSVG 341-->
<!DOCTYPE svg
PUBLIC "-//W3C//DTD SVG 1.1//EN"
       "http://www.w3.org/Graphics/SVG/1.1/DTD/svg11.dtd">
<svg version="1.1" xmlns="http://www.w3.org/2000/svg" xmlns:xlink="http://www.w3.org/1999/xlink" viewBox="0 0 20.5381 20.1848">
 <g>
  <rect height="20.1848" opacity="0" width="20.5381" x="0" y="0"/>
  <path d="M20.1767 10.0875C20.1767 15.6478 15.6576 20.175 10.0875 20.175C4.52715 20.175 0 15.6478 0 10.0875C0 4.51914 4.52715 0 10.0875 0C15.6576 0 20.1767 4.51914 20.1767 10.0875ZM12.1373 5.96816L6.18066 9.11094C5.73281 9.35136 5.51113 9.66621 5.51113 10.098C5.51113 10.5566 5.72031 10.8387 6.18066 11.0693L12.1373 14.124C12.3182 14.2064 12.4732 14.257 12.6977 14.257C13.2598 14.257 13.6605 13.8562 13.6605 13.3129C13.6605 12.859 13.4594 12.5939 12.9428 12.3705L8.20096 10.1016L8.20096 10.0324L12.9428 7.71366C13.4514 7.49022 13.6605 7.20917 13.6605 6.76327C13.6605 6.22792 13.2678 5.82714 12.7137 5.82714C12.4732 5.82714 12.3279 5.87773 12.1373 5.96816Z" fill="white" fill-opacity="0.85"/>
 </g>
</svg>
