<?xml version="1.0" encoding="UTF-8"?>
<!--Generator: Apple Native CoreSVG 341-->
<!DOCTYPE svg
PUBLIC "-//W3C//DTD SVG 1.1//EN"
       "http://www.w3.org/Graphics/SVG/1.1/DTD/svg11.dtd">
<svg version="1.1" xmlns="http://www.w3.org/2000/svg" xmlns:xlink="http://www.w3.org/1999/xlink" viewBox="0 0 18.5894 18.2316">
 <g>
  <rect height="18.2316" opacity="0" width="18.5894" x="0" y="0"/>
  <path d="M3.20351 18.2281L15.0246 18.2281C17.1404 18.2281 18.2281 17.1502 18.2281 15.0646L18.2281 3.17148C18.2281 1.08769 17.1404 0 15.0246 0L3.20351 0C1.0957 0 0 1.08769 0 3.17148L0 15.0646C0 17.1502 1.0957 18.2281 3.20351 18.2281ZM3.31444 16.3148C2.40643 16.3148 1.91327 15.8465 1.91327 14.8977L1.91327 3.34023C1.91327 2.39139 2.40643 1.91503 3.31444 1.91503L14.9137 1.91503C15.8137 1.91503 16.3148 2.39139 16.3148 3.34023L16.3148 14.8977C16.3148 15.8465 15.8137 16.3148 14.9137 16.3148Z" fill="white" fill-opacity="0.85"/>
  <path d="M11.6103 13.1121C12.1424 13.1121 12.5281 12.7361 12.5281 12.2131C12.5281 11.784 12.3385 11.534 11.8439 11.3141L7.26893 9.12499L7.26893 9.05585L11.8439 6.81698C12.3305 6.59706 12.5281 6.33104 12.5281 5.90995C12.5281 5.39491 12.1504 5.01894 11.6264 5.01894C11.4055 5.01894 11.2539 5.06152 11.0748 5.15019L5.34765 8.17773C4.9166 8.40664 4.70644 8.70468 4.70644 9.12148C4.70644 9.55527 4.9041 9.82402 5.34765 10.0512L11.0748 12.9906C11.2459 13.0695 11.4055 13.1121 11.6103 13.1121Z" fill="white" fill-opacity="0.85"/>
 </g>
</svg>
