<?xml version="1.0" encoding="UTF-8"?>
<!--Generator: Apple Native CoreSVG 341-->
<!DOCTYPE svg
PUBLIC "-//W3C//DTD SVG 1.1//EN"
       "http://www.w3.org/Graphics/SVG/1.1/DTD/svg11.dtd">
<svg version="1.1" xmlns="http://www.w3.org/2000/svg" xmlns:xlink="http://www.w3.org/1999/xlink" viewBox="0 0 25.4443 16.3726">
 <g>
  <rect height="16.3726" opacity="0" width="25.4443" x="0" y="0"/>
  <path d="M25.083 3.18124L25.083 13.2012C25.083 15.285 23.9953 16.3726 21.8777 16.3726L3.20351 16.3726C1.0957 16.3726 0 15.285 0 13.2012L0 3.18124C0 1.08945 1.0957 0.00976562 3.20351 0.00976562L21.8777 0.00976562C23.9953 0.00976562 25.083 1.09746 25.083 3.18124ZM18.7064 6.50859C18.7064 6.82714 18.9353 7.06581 19.2557 7.06581C19.5512 7.06581 19.757 6.91581 19.8555 6.61054C19.9744 6.18417 20.1273 5.94062 20.4197 5.94062C20.7494 5.94062 20.9467 6.24804 20.9467 6.73046C20.9467 7.17812 20.7557 7.59843 20.2812 7.59843L20.1125 7.59843C19.8064 7.59843 19.5996 7.81757 19.5996 8.10859C19.5996 8.40761 19.8064 8.63476 20.1125 8.63476L20.2812 8.63476C20.8516 8.63476 21.0568 8.9289 21.0568 9.54355C21.0568 10.0828 20.8721 10.424 20.4553 10.424C20.1318 10.424 19.9096 10.2187 19.7791 9.74257C19.7072 9.54726 19.5519 9.29883 19.2103 9.29883C18.8066 9.29883 18.6203 9.61289 18.6203 9.87734C18.6203 10.5103 19.1707 11.5305 20.4553 11.5305C21.5721 11.5305 22.307 10.6914 22.307 9.57461C22.307 8.88906 22.0309 8.2666 21.4988 8.04472C21.8896 7.76152 22.1525 7.19941 22.1525 6.63105C22.1525 5.7414 21.5959 4.85195 20.4197 4.85195C19.4564 4.85195 18.7064 5.56855 18.7064 6.50859ZM3.82988 5.63554L2.69316 10.5375C2.67187 10.6254 2.64257 10.7727 2.64257 10.8801C2.64257 11.2297 2.84843 11.4994 3.26015 11.4994C3.61503 11.4994 3.84218 11.2625 3.89276 10.9359L4.09804 9.94882L5.36484 9.94882L5.56035 10.9457C5.62245 11.2953 5.84335 11.4994 6.20097 11.4994C6.5621 11.4994 6.79901 11.2332 6.79901 10.8801C6.79901 10.7842 6.78749 10.6236 6.76796 10.5455L5.62147 5.62577C5.53007 5.16874 5.21952 4.883 4.70038 4.883C4.25487 4.883 3.94081 5.13945 3.82988 5.63554ZM7.99394 4.98066C7.59374 4.98066 7.35976 5.25234 7.35976 5.63534L7.35976 10.8535C7.35976 11.2502 7.60448 11.4994 7.98339 11.4994C8.3623 11.4994 8.61327 11.2502 8.61327 10.8535L8.61327 9.36542L9.19042 9.36542C10.3461 9.36542 11.0324 8.40761 11.0324 7.17441C11.0324 6.05859 10.4545 4.98066 9.27909 4.98066ZM12.4953 5.25663L11.7928 5.85976C11.6162 6.01328 11.5018 6.18632 11.5018 6.3664C11.5018 6.65566 11.7209 6.86503 12.0039 6.86503C12.1184 6.86503 12.2506 6.81796 12.3357 6.75409L12.7394 6.41444L12.7394 10.802C12.7394 11.1889 12.9959 11.4816 13.3721 11.4816C13.7527 11.4816 14.0172 11.1889 14.0172 10.802L14.0172 5.58847C14.0172 5.19003 13.7217 4.89101 13.31 4.89101C13.026 4.89101 12.7953 5.01523 12.4953 5.25663ZM14.7102 6.58144C14.7102 6.90175 14.9258 7.16347 15.2674 7.16347C15.5894 7.16347 15.7723 6.98163 15.8574 6.608C15.9435 6.20292 16.0777 5.92909 16.3844 5.92909C16.7416 5.92909 16.882 6.28007 16.882 6.7332C16.882 7.29003 16.5828 7.87167 16.1176 8.53671L14.9631 10.242C14.7607 10.5277 14.7199 10.683 14.7199 10.8428C14.7199 11.1959 14.9799 11.4115 15.3082 11.4115L17.6621 11.4115C17.9451 11.4115 18.1918 11.1568 18.1918 10.8543C18.1918 10.5437 17.9451 10.3051 17.6621 10.3051L16.2549 10.3051L17.1521 9.01406C17.6502 8.32324 18.1074 7.56933 18.1074 6.71718C18.1074 5.61093 17.4771 4.83242 16.3941 4.83242C15.3855 4.83242 14.7102 5.85351 14.7102 6.58144ZM5.22363 8.9541L4.23124 8.9541L4.72167 6.55019ZM9.79804 7.17441C9.79804 7.81132 9.59355 8.37089 8.99042 8.37089L8.61327 8.37089L8.61327 5.98319L8.99042 5.98319C9.60253 5.98319 9.79804 6.55429 9.79804 7.17441Z" fill="white" fill-opacity="0.85"/>
 </g>
</svg>
