<?xml version="1.0" encoding="UTF-8"?>
<!--Generator: Apple Native CoreSVG 341-->
<!DOCTYPE svg
PUBLIC "-//W3C//DTD SVG 1.1//EN"
       "http://www.w3.org/Graphics/SVG/1.1/DTD/svg11.dtd">
<svg version="1.1" xmlns="http://www.w3.org/2000/svg" xmlns:xlink="http://www.w3.org/1999/xlink" viewBox="0 0 25.4443 16.3726">
 <g>
  <rect height="16.3726" opacity="0" width="25.4443" x="0" y="0"/>
  <path d="M3.20351 16.3726L21.8777 16.3726C23.9953 16.3726 25.083 15.285 25.083 13.2012L25.083 3.18124C25.083 1.09746 23.9953 0.00976562 21.8777 0.00976562L3.20351 0.00976562C1.0957 0.00976562 0 1.08945 0 3.18124L0 13.2012C0 15.285 1.0957 16.3726 3.20351 16.3726ZM3.31444 14.4594C2.40643 14.4594 1.91327 13.983 1.91327 13.0324L1.91327 3.34198C1.91327 2.39315 2.40643 1.92303 3.31444 1.92303L21.7668 1.92303C22.6588 1.92303 23.168 2.39315 23.168 3.34198L23.168 13.0324C23.168 13.983 22.6588 14.4594 21.7668 14.4594Z" fill="white" fill-opacity="0.85"/>
  <path d="M3.54589 11.3982C3.88925 11.3982 4.10663 11.1711 4.15721 10.8525L4.36073 9.88671L5.59023 9.88671L5.78398 10.8641C5.84609 11.2039 6.05722 11.3982 6.40507 11.3982C6.74491 11.3982 6.98183 11.1418 6.98183 10.8002C6.98183 10.7123 6.96855 10.5535 6.95077 10.4771L5.83534 5.69765C5.74218 5.26191 5.44315 4.98593 4.94355 4.98593C4.51933 4.98593 4.21503 5.23085 4.10585 5.70741L2.99843 10.4691C2.9789 10.557 2.9496 10.7025 2.9496 10.8002C2.9496 11.1383 3.1537 11.3982 3.54589 11.3982ZM4.48417 8.93281L4.96483 6.58925L5.45702 8.93281ZM8.12362 11.3982C8.49276 11.3982 8.73222 11.1588 8.73222 10.7736L8.73222 9.3246L9.29335 9.3246C10.4162 9.3246 11.0812 8.39785 11.0812 7.20546C11.0812 6.1207 10.5166 5.07382 9.38202 5.07382L8.13417 5.07382C7.7455 5.07382 7.5248 5.33749 7.5248 5.70722L7.5248 10.7736C7.5248 11.1588 7.75624 11.3982 8.12362 11.3982ZM8.73222 8.36289L8.73222 6.04355L9.10136 6.04355C9.6957 6.04355 9.88945 6.60312 9.88945 7.20546C9.88945 7.82285 9.68495 8.36289 9.10136 8.36289ZM13.341 11.3787C13.7101 11.3787 13.9666 11.0975 13.9666 10.7301L13.9666 5.66034C13.9666 5.28144 13.6809 4.99394 13.2887 4.99394C13.0144 4.99394 12.7873 5.10839 12.4971 5.34003L11.8141 5.93163C11.6473 6.07363 11.5346 6.24843 11.5346 6.41874C11.5346 6.69648 11.7519 6.90234 12.0234 6.90234C12.1281 6.90234 12.2621 6.85702 12.3437 6.79316L12.7394 6.46503L12.7394 10.7301C12.7394 11.0975 12.9861 11.3787 13.341 11.3787ZM15.2168 11.3103L17.5006 11.3103C17.7703 11.3103 18.009 11.0637 18.009 10.7744C18.009 10.4754 17.7703 10.2465 17.5006 10.2465L16.1324 10.2465L17.0004 8.98476C17.4852 8.31347 17.9246 7.5871 17.9246 6.758C17.9246 5.69081 17.3139 4.93359 16.2717 4.93359C15.2924 4.93359 14.64 5.92363 14.64 6.63378C14.64 6.94081 14.8459 7.19101 15.176 7.19101C15.4865 7.19101 15.6613 7.01093 15.7447 6.65683C15.8309 6.26327 15.957 5.98944 16.2602 5.98944C16.6111 5.98944 16.748 6.33241 16.748 6.77402C16.748 7.31308 16.4523 7.88144 16.0066 8.52519L14.8832 10.1816C14.6889 10.4594 14.6498 10.6129 14.6498 10.7629C14.6498 11.1027 14.9 11.3103 15.2168 11.3103ZM20.2006 11.4275C21.2863 11.4275 22 10.6115 22 9.53378C22 8.86777 21.7256 8.2666 21.2113 8.04472C21.5924 7.77128 21.8473 7.22871 21.8473 6.67988C21.8473 5.81152 21.3102 4.95488 20.165 4.95488C19.2328 4.95488 18.5121 5.65019 18.5121 6.55917C18.5121 6.86796 18.7312 7.09511 19.0435 7.09511C19.3275 7.09511 19.5236 6.95488 19.6203 6.66113C19.7312 6.24277 19.8824 6.00273 20.165 6.00273C20.4965 6.00273 20.6822 6.29862 20.6822 6.77128C20.6822 7.20917 20.501 7.61972 20.0381 7.61972L19.8676 7.61972C19.5748 7.61972 19.376 7.82734 19.376 8.10859C19.376 8.39609 19.5748 8.61347 19.8676 8.61347L20.0381 8.61347C20.5889 8.61347 20.7924 8.90761 20.7924 9.50273C20.7924 10.0242 20.6094 10.3619 20.2006 10.3619C19.8887 10.3619 19.6727 10.1584 19.5457 9.69375C19.4738 9.50644 19.3266 9.26953 18.9965 9.26953C18.6025 9.26953 18.4277 9.57207 18.4277 9.825C18.4277 10.4385 18.9586 11.4275 20.2006 11.4275Z" fill="white" fill-opacity="0.85"/>
 </g>
</svg>
