<?xml version="1.0" encoding="UTF-8"?>
<!--Generator: Apple Native CoreSVG 341-->
<!DOCTYPE svg
PUBLIC "-//W3C//DTD SVG 1.1//EN"
       "http://www.w3.org/Graphics/SVG/1.1/DTD/svg11.dtd">
<svg version="1.1" xmlns="http://www.w3.org/2000/svg" xmlns:xlink="http://www.w3.org/1999/xlink" viewBox="0 0 20.5381 20.1848">
 <g>
  <rect height="20.1848" opacity="0" width="20.5381" x="0" y="0"/>
  <path d="M10.0893 15.233C12.9227 15.233 15.2383 12.9209 15.2383 10.0875C15.2383 7.25234 12.9227 4.93847 10.0875 4.93847C7.25409 4.93847 4.94198 7.25234 4.94198 10.0875C4.94198 12.9209 7.25761 15.233 10.0893 15.233ZM10.0893 13.4719C8.21855 13.4719 6.70311 11.9564 6.70311 10.0875C6.70311 8.21503 8.21855 6.69784 10.0893 6.69784C11.9617 6.69784 13.4772 8.21503 13.4772 10.0875C13.4772 11.9564 11.9635 13.4719 10.0893 13.4719ZM2.41503 15.6813L4.55682 17.823L8.3828 13.9988L6.24101 11.8553ZM2.31913 4.4787L6.24101 8.40058L8.3828 6.25878L4.46268 2.3369ZM17.8771 4.49472L15.7354 2.35292L11.8295 6.25878L13.9713 8.40058ZM17.7893 15.6652L13.9793 11.8553L11.8295 14.0068L15.6395 17.815ZM10.0875 20.175C15.6576 20.175 20.1767 15.6559 20.1767 10.0875C20.1767 4.51914 15.6576 0 10.0875 0C4.51914 0 0 4.51914 0 10.0875C0 15.6559 4.51914 20.175 10.0875 20.175ZM10.0875 18.1879C5.60839 18.1879 1.9871 14.5666 1.9871 10.0875C1.9871 5.60839 5.60839 1.9871 10.0875 1.9871C14.5666 1.9871 18.1897 5.60839 18.1897 10.0875C18.1897 14.5666 14.5666 18.1879 10.0875 18.1879Z" fill="white" fill-opacity="0.85"/>
 </g>
</svg>
