<?xml version="1.0" encoding="UTF-8"?>
<!--Generator: Apple Native CoreSVG 341-->
<!DOCTYPE svg
PUBLIC "-//W3C//DTD SVG 1.1//EN"
       "http://www.w3.org/Graphics/SVG/1.1/DTD/svg11.dtd">
<svg version="1.1" xmlns="http://www.w3.org/2000/svg" xmlns:xlink="http://www.w3.org/1999/xlink" viewBox="0 0 32.3971 23.366">
 <g>
  <rect height="23.366" opacity="0" width="32.3971" x="0" y="0"/>
  <path d="M16.0299 23.366C20.315 23.366 23.5861 21.3307 23.5861 18.64C23.5861 15.9396 20.315 13.9123 16.0299 13.9123C11.7332 13.9123 8.45234 15.9316 8.45234 18.64C8.45234 21.3387 11.7332 23.366 16.0299 23.366ZM16.0219 21.5086C13.2348 21.5086 11.184 20.3279 11.184 18.7529C11.184 17.1779 13.2348 16.007 16.0219 16.007C18.8107 16.007 20.874 17.1779 20.874 18.7529C20.874 20.3182 18.8107 21.5086 16.0219 21.5086ZM12.143 18.7529C12.143 19.7414 13.8648 20.5479 16.0139 20.5479C18.1727 20.5479 19.9186 19.7414 19.9186 18.7529C19.9186 18.3887 19.6795 18.0697 19.2965 17.7943C18.6529 18.6193 17.4072 19.1512 16.0139 19.1512C14.6223 19.1512 13.3685 18.6309 12.6975 17.8139C12.358 18.0732 12.143 18.4002 12.143 18.7529Z" fill="white" fill-opacity="0.85"/>
  <path d="M24.4795 13.5857C28.7451 13.5857 32.0357 11.5566 32.0357 8.86601C32.0357 6.16738 28.7451 4.13027 24.4795 4.13027C20.1748 4.13027 16.902 6.15937 16.902 8.86601C16.902 11.5646 20.1748 13.5857 24.4795 13.5857ZM24.4635 11.7266C21.6844 11.7266 19.6238 10.5539 19.6238 8.98691C19.6238 7.40391 21.6844 6.23652 24.4635 6.23652C27.2523 6.23652 29.3076 7.40391 29.3076 8.98691C29.3076 10.5459 27.2523 11.7266 24.4635 11.7266ZM20.5846 8.98691C20.5846 9.96289 22.3127 10.7756 24.4555 10.7756C26.6143 10.7756 28.3602 9.96289 28.3602 8.98691C28.3602 8.6084 28.1291 8.28945 27.7381 8.0123C27.0945 8.8373 25.8568 9.38691 24.4555 9.38691C23.0639 9.38691 21.8182 8.85234 21.1391 8.03359C20.7961 8.29922 20.5846 8.61992 20.5846 8.98691Z" fill="white" fill-opacity="0.85"/>
  <path d="M7.57754 13.576C11.8627 13.576 15.1338 11.5486 15.1338 8.85801C15.1338 6.15937 11.8627 4.12227 7.57754 4.12227C3.28437 4.12227 0 6.14961 0 8.85801C0 11.5566 3.28437 13.576 7.57754 13.576ZM7.56953 11.7186C4.79043 11.7186 2.73164 10.5459 2.73164 8.97891C2.73164 7.3959 4.79043 6.22676 7.56953 6.22676C10.3602 6.22676 12.4217 7.3959 12.4217 8.97891C12.4217 10.5379 10.3602 11.7186 7.56953 11.7186ZM3.69238 8.97891C3.69238 9.95488 5.4205 10.7676 7.56152 10.7676C9.72031 10.7676 11.4662 9.95488 11.4662 8.97891C11.4662 8.60215 11.2387 8.28144 10.8441 8.0123C10.2006 8.82929 8.95488 9.3789 7.56152 9.3789C6.16992 9.3789 4.92421 8.84082 4.25488 8.02558C3.90566 8.29121 3.69238 8.61015 3.69238 8.97891Z" fill="white" fill-opacity="0.85"/>
 </g>
</svg>
