<?xml version="1.0" encoding="UTF-8"?>
<!--Generator: Apple Native CoreSVG 341-->
<!DOCTYPE svg
PUBLIC "-//W3C//DTD SVG 1.1//EN"
       "http://www.w3.org/Graphics/SVG/1.1/DTD/svg11.dtd">
<svg version="1.1" xmlns="http://www.w3.org/2000/svg" xmlns:xlink="http://www.w3.org/1999/xlink" viewBox="0 0 20.7834 21.7715">
 <g>
  <rect height="21.7715" opacity="0" width="20.7834" x="0" y="0"/>
  <path d="M5.46679 20.6365C4.13808 20.6365 3.05136 19.9396 3.02304 18.9277L7.90976 18.9277C7.88496 19.9396 6.78574 20.6365 5.46679 20.6365ZM8.60429 17.5445C8.60429 17.8764 8.33281 18.1353 7.9957 18.1353L2.92812 18.1353C2.59101 18.1353 2.33555 17.8666 2.33555 17.5445C2.33555 17.2127 2.59101 16.9457 2.92812 16.9457L7.9957 16.9457C8.33281 16.9457 8.60429 17.2047 8.60429 17.5445ZM8.98823 2.50852C8.67266 2.93889 8.41917 3.41325 8.24297 3.92368C7.53772 3.32442 6.57259 2.97343 5.50683 2.97343C3.34179 2.97343 1.57909 4.43261 1.57909 6.46699C1.57909 8.60762 2.99199 9.05742 3.69453 14.584L7.3209 14.584C7.68167 11.771 8.22278 10.2733 8.6666 9.20058C8.94407 9.89417 9.26731 10.6183 9.57089 11.5099C9.22867 12.5072 8.91731 13.7455 8.75722 15.4703C8.7244 15.8777 8.47656 16.1516 8.03086 16.1516L2.99082 16.1516C2.54512 16.1516 2.28926 15.8777 2.26446 15.4703C1.78477 10.3885 0 9.53008 0 6.46699C0 3.60645 2.43281 1.3961 5.50683 1.3961C6.83775 1.3961 8.04611 1.80828 8.98823 2.50852Z" fill="white" fill-opacity="0.85"/>
  <path d="M14.1613 0C10.6877 0 7.9201 2.52207 7.9201 5.78222C7.9201 9.27168 9.98651 10.2543 10.5373 16.1838C10.5719 16.6311 10.8383 16.9074 11.298 16.9074L17.0326 16.9074C17.4906 16.9074 17.757 16.6311 17.7951 16.1838C18.3459 10.2543 20.4221 9.27168 20.4221 5.78574C20.4221 2.52383 17.6447 0 14.1613 0ZM14.1613 1.6746C16.6453 1.67636 18.7492 3.38886 18.7492 5.78222C18.7492 8.27031 17.076 8.87656 16.2633 15.2363L12.0674 15.2363C11.2582 8.87656 9.59295 8.27031 9.59295 5.78222C9.59295 3.38886 11.6871 1.6746 14.1613 1.6746ZM11.2398 19.0332L17.0988 19.0332C17.4447 19.0332 17.7232 18.7654 17.7232 18.4203C17.7232 18.0717 17.4447 17.8057 17.0988 17.8057L11.2398 17.8057C10.8859 17.8057 10.6252 18.0717 10.6252 18.4203C10.6252 18.7654 10.8859 19.0332 11.2398 19.0332ZM14.1693 21.7599C15.6383 21.7599 16.8351 21.0267 16.9115 19.9314L11.4201 19.9314C11.4822 21.0267 12.6924 21.7599 14.1693 21.7599Z" fill="white" fill-opacity="0.85"/>
 </g>
</svg>
