<?xml version="1.0" encoding="UTF-8"?>
<!--Generator: Apple Native CoreSVG 341-->
<!DOCTYPE svg
PUBLIC "-//W3C//DTD SVG 1.1//EN"
       "http://www.w3.org/Graphics/SVG/1.1/DTD/svg11.dtd">
<svg version="1.1" xmlns="http://www.w3.org/2000/svg" xmlns:xlink="http://www.w3.org/1999/xlink" viewBox="0 0 21.5973 24.4304">
 <g>
  <rect height="24.4304" opacity="0" width="21.5973" x="0" y="0"/>
  <path d="M10.6211 23.5472C9.06777 23.5472 7.79375 22.7962 7.7166 21.6609L13.507 21.6609C13.4139 22.7962 12.1584 23.5472 10.6211 23.5472ZM14.3816 20.0177C14.3816 20.3628 14.1049 20.6466 13.751 20.6466L7.4832 20.6466C7.13105 20.6466 6.86055 20.3628 6.86055 20.0177C6.86055 19.6771 7.13105 19.3951 7.4832 19.3951L13.751 19.3951C14.1049 19.3951 14.3816 19.6771 14.3816 20.0177ZM6.29364 9.10452C6.89703 10.5582 7.79921 12.4271 8.325 16.6777L12.9092 16.6777C12.9458 16.3814 12.9843 16.0968 13.0265 15.8374L14.5077 17.3185C14.4926 17.4158 14.4817 17.5268 14.4713 17.6394C14.4269 18.0964 14.1525 18.3826 13.6715 18.3826L7.56269 18.3826C7.08164 18.3826 6.80723 18.0964 6.7629 17.6394C6.18888 11.4391 4.08631 10.2776 3.97983 6.79072ZM17.2668 6.506C17.2668 8.9592 16.304 10.2495 15.4814 12.6876L14.0801 11.2854C14.8291 9.10026 15.5602 8.19996 15.5602 6.50425C15.5602 3.92377 13.2967 2.08451 10.6211 2.08276C9.01273 2.08276 7.54995 2.74888 6.64372 3.84464L5.43413 2.63433C6.64696 1.245 8.51365 0.376125 10.6211 0.376125C14.3174 0.376125 17.2668 3.05073 17.2668 6.506Z" fill="white" fill-opacity="0.85"/>
  <path d="M17.8338 18.9392C18.1453 19.2587 18.6334 19.249 18.9334 18.9392C19.2316 18.6357 19.2351 18.1494 18.9334 17.8396L2.52481 1.42925C2.21953 1.11597 1.71543 1.1355 1.41543 1.42925C1.12168 1.72124 1.13321 2.24487 1.41543 2.52886Z" fill="white" fill-opacity="0.85"/>
 </g>
</svg>
