<?xml version="1.0" encoding="UTF-8"?>
<!--Generator: Apple Native CoreSVG 341-->
<!DOCTYPE svg
PUBLIC "-//W3C//DTD SVG 1.1//EN"
       "http://www.w3.org/Graphics/SVG/1.1/DTD/svg11.dtd">
<svg version="1.1" xmlns="http://www.w3.org/2000/svg" xmlns:xlink="http://www.w3.org/1999/xlink" viewBox="0 0 21.4925 32.0812">
 <g>
  <rect height="32.0812" opacity="0" width="21.4925" x="0" y="0"/>
  <path d="M1.09648 11.6861C1.70507 11.6861 2.19296 11.2 2.19296 10.5896C2.19296 9.98905 1.70507 9.50116 1.09648 9.50116C0.486131 9.50116 0 9.98905 0 10.5896C0 11.2 0.486131 11.6861 1.09648 11.6861ZM3.50663 4.64081C4.11523 4.64081 4.60311 4.15292 4.60311 3.54433C4.60311 2.94198 4.11523 2.45585 3.50663 2.45585C2.90429 2.45585 2.41015 2.94198 2.41015 3.54433C2.41015 4.15292 2.90429 4.64081 3.50663 4.64081ZM10.5687 2.19296C11.1711 2.19296 11.6572 1.70683 11.6572 1.09648C11.6572 0.487889 11.1711 0 10.5687 0C9.96014 0 9.47225 0.487889 9.47225 1.09648C9.47225 1.70683 9.96014 2.19296 10.5687 2.19296ZM17.6246 4.64081C18.2332 4.64081 18.7211 4.15292 18.7211 3.54433C18.7211 2.94198 18.2332 2.45585 17.6246 2.45585C17.0142 2.45585 16.5281 2.94198 16.5281 3.54433C16.5281 4.15292 17.0142 4.64081 17.6246 4.64081ZM20.0427 11.6861C20.6433 11.6861 21.1312 11.2 21.1312 10.5896C21.1312 9.98905 20.6433 9.50116 20.0427 9.50116C19.4324 9.50116 18.9463 9.98905 18.9463 10.5896C18.9463 11.2 19.4324 11.6861 20.0427 11.6861Z" fill="white" fill-opacity="0.85"/>
  <path d="M10.5687 4.20155C7.08709 4.20155 4.31952 6.72362 4.31952 9.98378C4.31952 13.4732 6.38593 14.4558 6.93671 20.3853C6.97929 20.8326 7.23768 21.109 7.70545 21.109L13.432 21.109C13.89 21.109 14.1564 20.8326 14.1963 20.3853C14.7453 14.4558 16.8215 13.4732 16.8215 9.98729C16.8215 6.72538 14.0441 4.20155 10.5687 4.20155ZM10.5687 5.87615C13.0447 5.87791 15.1486 7.58241 15.1486 9.98378C15.1486 12.4639 13.4754 13.0781 12.6724 19.4379L8.46678 19.4379C7.6576 13.0781 5.99236 12.4639 5.99236 9.98378C5.99236 7.58241 8.0865 5.87615 10.5687 5.87615ZM7.641 23.2347L13.4982 23.2347C13.8521 23.2347 14.1226 22.967 14.1226 22.6219C14.1226 22.2732 13.8521 22.0072 13.4982 22.0072L7.641 22.0072C7.2871 22.0072 7.0246 22.2732 7.0246 22.6219C7.0246 22.967 7.2871 23.2347 7.641 23.2347ZM10.5687 25.9615C12.0377 25.9615 13.2426 25.2283 13.3109 24.133L7.81952 24.133C7.88163 25.2283 9.09354 25.9615 10.5687 25.9615Z" fill="white" fill-opacity="0.85"/>
 </g>
</svg>
