<?xml version="1.0" encoding="UTF-8"?>
<!--Generator: Apple Native CoreSVG 341-->
<!DOCTYPE svg
PUBLIC "-//W3C//DTD SVG 1.1//EN"
       "http://www.w3.org/Graphics/SVG/1.1/DTD/svg11.dtd">
<svg version="1.1" xmlns="http://www.w3.org/2000/svg" xmlns:xlink="http://www.w3.org/1999/xlink" viewBox="0 0 18.5894 18.2316">
 <g>
  <rect height="18.2316" opacity="0" width="18.5894" x="0" y="0"/>
  <path d="M3.20351 18.2281L15.0246 18.2281C17.1404 18.2281 18.2281 17.1502 18.2281 15.0646L18.2281 3.17148C18.2281 1.08769 17.1404 0 15.0246 0L3.20351 0C1.0957 0 0 1.08769 0 3.17148L0 15.0646C0 17.1502 1.0957 18.2281 3.20351 18.2281ZM3.31444 16.3148C2.40643 16.3148 1.91327 15.8465 1.91327 14.8977L1.91327 3.34023C1.91327 2.39139 2.40643 1.91503 3.31444 1.91503L14.9137 1.91503C15.8137 1.91503 16.3148 2.39139 16.3148 3.34023L16.3148 14.8977C16.3148 15.8465 15.8137 16.3148 14.9137 16.3148Z" fill="white" fill-opacity="0.85"/>
  <path d="M6.58359 14.1875L11.6445 14.1875C12.0934 14.1875 12.4154 13.8619 12.4154 13.4166L12.4154 4.83456C12.4154 4.37148 12.0934 4.05566 11.6445 4.05566L6.58359 4.05566C6.13476 4.05566 5.81269 4.37148 5.81269 4.83456L5.81269 13.4166C5.81269 13.8619 6.13476 14.1875 6.58359 14.1875ZM7.28769 8.20468C7.08808 8.20468 6.94609 8.05117 6.94609 7.84179L6.94609 5.54218C6.94609 5.3248 7.08808 5.18906 7.28769 5.18906L10.9404 5.18906C11.148 5.18906 11.282 5.3248 11.282 5.54218L11.282 7.84179C11.282 8.05117 11.148 8.20468 10.9404 8.20468Z" fill="white" fill-opacity="0.85"/>
 </g>
</svg>
