<?xml version="1.0" encoding="UTF-8"?>
<!--Generator: Apple Native CoreSVG 341-->
<!DOCTYPE svg
PUBLIC "-//W3C//DTD SVG 1.1//EN"
       "http://www.w3.org/Graphics/SVG/1.1/DTD/svg11.dtd">
<svg version="1.1" xmlns="http://www.w3.org/2000/svg" xmlns:xlink="http://www.w3.org/1999/xlink" viewBox="0 0 24.5568 18.5598">
 <g>
  <rect height="18.5598" opacity="0" width="24.5568" x="0" y="0"/>
  <path d="M3.20351 18.55L20.992 18.55C23.1078 18.55 24.1955 17.4623 24.1955 15.3785L24.1955 3.17148C24.1955 1.08593 23.1078 0 20.992 0L3.20351 0C1.0957 0 0 1.07793 0 3.17148L0 15.3785C0 17.4703 1.0957 18.55 3.20351 18.55ZM3.31444 16.6367C2.40643 16.6367 1.91327 16.1604 1.91327 15.2178L1.91327 3.33046C1.91327 2.38163 2.40643 1.91327 3.31444 1.91327L20.8811 1.91327C21.7811 1.91327 22.2822 2.38163 22.2822 3.33046L22.2822 15.2178C22.2822 16.1604 21.7811 16.6367 20.8811 16.6367Z" fill="white" fill-opacity="0.85"/>
  <path d="M4.10428 15.2092L20.0912 15.2092C20.5854 15.2092 20.8627 14.9221 20.8627 14.4262L20.8627 4.12206C20.8627 3.61991 20.5854 3.33279 20.0912 3.33279L4.10428 3.33279C3.61014 3.33279 3.3408 3.61991 3.3408 4.12206L3.3408 14.4262C3.3408 14.9221 3.61014 15.2092 4.10428 15.2092Z" fill="white" fill-opacity="0.85"/>
 </g>
</svg>
