<?xml version="1.0" encoding="UTF-8"?>
<!--Generator: Apple Native CoreSVG 341-->
<!DOCTYPE svg
PUBLIC "-//W3C//DTD SVG 1.1//EN"
       "http://www.w3.org/Graphics/SVG/1.1/DTD/svg11.dtd">
<svg version="1.1" xmlns="http://www.w3.org/2000/svg" xmlns:xlink="http://www.w3.org/1999/xlink" viewBox="0 0 25.2726 22.6694">
 <g>
  <rect height="22.6694" opacity="0" width="25.2726" x="0" y="0"/>
  <path d="M1.645 12.8681C2.23777 13.8921 3.16745 14.1324 4.17722 13.5539L17.0739 6.10737C18.0934 5.52085 18.3508 4.58589 17.7581 3.56363L16.4317 1.28023C15.8389 0.248202 14.9208-0.00257752 13.9075 0.595468L0.987769 8.05171C-0.0335174 8.63199-0.274143 9.55269 0.31863 10.5847ZM13.4184 4.54195C13.1948 4.15503 13.3253 3.66246 13.7104 3.44058C14.1036 3.21695 14.5962 3.34917 14.8198 3.74058C15.0417 4.12398 14.913 4.61831 14.518 4.8437C14.1329 5.06734 13.6403 4.93335 13.4184 4.54195ZM10.8743 6.00933C10.6524 5.62417 10.7829 5.1316 11.1663 4.90796C11.5594 4.68609 12.0538 4.81656 12.2774 5.20347C12.501 5.58687 12.3688 6.08921 11.9739 6.31284C11.5905 6.53472 11.0979 6.39624 10.8743 6.00933ZM8.33015 7.48023C8.10651 7.09507 8.24851 6.60074 8.6319 6.3691C9.0153 6.14722 9.50964 6.2857 9.73503 6.67085C9.95866 7.05601 9.82468 7.55034 9.43952 7.77222C9.05436 7.99585 8.56003 7.86538 8.33015 7.48023ZM5.79402 8.9396C5.57214 8.55445 5.70437 8.06812 6.09753 7.84624C6.48093 7.6146 6.98151 7.74507 7.20515 8.13198C7.42878 8.52691 7.2903 9.00972 6.90339 9.23335C6.51198 9.45523 6.01765 9.33276 5.79402 8.9396ZM3.25163 10.4105C3.02976 10.0253 3.16023 9.53101 3.55339 9.30562C3.93855 9.08374 4.43288 9.21597 4.65476 9.60112C4.8864 9.99429 4.74792 10.4789 4.36101 10.7025C3.96609 10.9244 3.47527 10.8019 3.25163 10.4105ZM15.411 1.09859L16.044 2.18726L17.7911 1.18199C18.1049 1.00289 18.1989 0.627888 18.018 0.322031C17.8487 0.0179307 17.4639-0.0937875 17.1581 0.0870708ZM16.7743 3.44878L17.4073 4.5437L19.1463 3.53843C19.4842 3.34956 19.5702 3.00835 19.3733 2.67047C19.1942 2.3566 18.8272 2.26266 18.5133 2.44351ZM8.47956 21.3492C9.06432 22.3652 10.0065 22.6222 11.0278 22.0419L23.9315 14.5937C24.9448 14.0054 25.1774 13.0607 24.6006 12.0447L23.2743 9.75952C22.6815 8.72749 21.7616 8.48902 20.7501 9.08355L7.83737 16.538C6.82585 17.1165 6.56843 18.0337 7.1612 19.064ZM20.2645 13.0283C20.0409 12.6414 20.1633 12.1568 20.5583 11.9349C20.9532 11.7033 21.436 11.8355 21.6596 12.2189C21.8815 12.6103 21.759 13.0966 21.3659 13.322C20.9727 13.5537 20.4864 13.4197 20.2645 13.0283ZM17.7239 14.4956C17.4905 14.1105 17.629 13.6259 18.0239 13.404C18.4073 13.1724 18.9016 13.3029 19.1253 13.6898C19.3471 14.0812 19.2149 14.5675 18.8297 14.7912C18.4383 15.021 17.9458 14.8906 17.7239 14.4956ZM15.1842 15.9648C14.9606 15.5814 15.0946 15.0871 15.4797 14.8634C15.8649 14.6335 16.3672 14.772 16.5891 15.1554C16.8128 15.5423 16.6725 16.0367 16.2874 16.2585C15.904 16.4902 15.4096 16.3517 15.1842 15.9648ZM12.6419 17.4259C12.4182 17.0408 12.5602 16.5464 12.9454 16.3246C13.3305 16.1009 13.8213 16.2332 14.045 16.6263C14.2669 17.0132 14.1364 17.4978 13.753 17.7277C13.3678 17.9513 12.8655 17.8191 12.6419 17.4259ZM10.0995 18.8968C9.8776 18.5117 10.0143 18.0173 10.4012 17.7857C10.7864 17.5621 11.279 17.7023 11.5026 18.0874C11.7245 18.4726 11.594 18.9732 11.2088 19.1968C10.8237 19.4187 10.3231 19.2802 10.0995 18.8968ZM9.50826 21.5468L8.87526 20.4404L7.12018 21.4537C6.80632 21.6328 6.72038 22.0015 6.90124 22.3136C7.09636 22.6515 7.43932 22.7535 7.76119 22.5583ZM8.15299 19.1886L7.51998 18.0937L5.77292 19.099C5.46081 19.2763 5.36687 19.6611 5.54597 19.9669C5.72507 20.271 6.09206 20.3712 6.39791 20.1939ZM5.15007 14.0931L10.1526 14.0931L19.5139 8.68218L14.5131 8.68218Z" fill="white" fill-opacity="0.85"/>
 </g>
</svg>
