<?xml version="1.0" encoding="UTF-8"?>
<!--Generator: Apple Native CoreSVG 341-->
<!DOCTYPE svg
PUBLIC "-//W3C//DTD SVG 1.1//EN"
       "http://www.w3.org/Graphics/SVG/1.1/DTD/svg11.dtd">
<svg version="1.1" xmlns="http://www.w3.org/2000/svg" xmlns:xlink="http://www.w3.org/1999/xlink" viewBox="0 0 20.3166 21.0488">
 <g>
  <rect height="21.0488" opacity="0" width="20.3166" x="0" y="0"/>
  <path d="M9.97362 21.0373C15.9789 21.0373 19.9553 18.9668 19.9553 15.7471L19.9553 5.66659C19.9553 2.22402 15.9674 0 9.97362 0C3.98789 0 0 2.22402 0 5.66659L0 15.7471C0 18.9668 3.97636 21.0373 9.97362 21.0373ZM9.97362 19.2066C5.14198 19.2066 1.8289 17.7416 1.8289 15.7471L1.8289 5.66659C1.8289 3.43065 5.11366 1.83241 9.97362 1.83241C14.8398 1.83241 18.1264 3.43065 18.1264 5.66659L18.1264 15.7471C18.1264 17.7416 14.8035 19.2066 9.97362 19.2066ZM9.97362 12.2892C14.8035 12.2892 18.1264 13.7543 18.1264 15.7471L19.9553 15.7471C19.9553 12.5291 15.9789 10.4568 9.97362 10.4568C3.97636 10.4568 0 12.5291 0 15.7471L1.8289 15.7471C1.8289 13.7543 5.14198 12.2892 9.97362 12.2892ZM9.97362 16.2598C12.1588 16.2598 13.9434 15.1115 14.0687 13.69C12.9191 13.4068 11.5183 13.2373 9.97362 13.2373C8.4369 13.2373 7.02812 13.4068 5.88651 13.69C6.01014 15.1115 7.78847 16.2598 9.97362 16.2598Z" fill="white" fill-opacity="0.85"/>
 </g>
</svg>
