<?xml version="1.0" encoding="UTF-8"?>
<!--Generator: Apple Native CoreSVG 341-->
<!DOCTYPE svg
PUBLIC "-//W3C//DTD SVG 1.1//EN"
       "http://www.w3.org/Graphics/SVG/1.1/DTD/svg11.dtd">
<svg version="1.1" xmlns="http://www.w3.org/2000/svg" xmlns:xlink="http://www.w3.org/1999/xlink" viewBox="0 0 25.8533 14.0582">
 <g>
  <rect height="14.0582" opacity="0" width="25.8533" x="0" y="0"/>
  <path d="M1.00175 13.6455L4.18476 13.6455C4.7371 13.6455 5.20077 13.1818 5.20077 12.6392C5.20077 12.1047 4.72733 11.6392 4.18476 11.6392L1.00175 11.6392C0.465427 11.6392 0 12.1029 0 12.6392C0 13.1738 0.465427 13.6455 1.00175 13.6455ZM7.26756 7.29413C7.65233 6.90936 7.64432 6.26933 7.25956 5.88456L5.02987 3.61933C4.64159 3.24082 3.98906 3.24082 3.60879 3.61933C3.22402 4.00234 3.22578 4.64237 3.6123 5.03514L5.85175 7.30038C6.23027 7.6869 6.8828 7.6869 7.26756 7.29413ZM12.7517 5.18475C13.2898 5.18475 13.75 4.73085 13.75 4.19452L13.75 1.01152C13.75 0.463669 13.2881 0 12.7517 0C12.2092 0 11.7455 0.467185 11.7455 1.01152L11.7455 4.19452C11.7455 4.73085 12.2074 5.18475 12.7517 5.18475ZM18.2324 7.29413C18.6109 7.6869 19.2617 7.6869 19.6402 7.29237L21.8894 5.03514C22.2742 4.64237 22.2759 4.00234 21.8912 3.61933C21.5047 3.23281 20.8504 3.24082 20.4718 3.62734L18.2324 5.88456C17.8396 6.26933 17.8396 6.90936 18.2324 7.29413ZM21.3072 13.6455L24.5 13.6455C25.0363 13.6455 25.492 13.1738 25.492 12.6392C25.492 12.1029 25.0363 11.6392 24.5 11.6392L21.3072 11.6392C20.7646 11.6392 20.2992 12.1047 20.2992 12.6392C20.2992 13.1818 20.7549 13.6455 21.3072 13.6455Z" fill="white" fill-opacity="0.85"/>
  <path d="M8.99061 13.7291L16.5094 13.7291C17.1021 13.7291 17.5974 13.2338 17.5974 12.6553C17.5974 12.0687 17.1101 11.5734 16.5094 11.5734L8.99061 11.5734C8.38983 11.5734 7.89452 12.0687 7.89452 12.6553C7.89452 13.2338 8.39784 13.7291 8.99061 13.7291Z" fill="white" fill-opacity="0.85"/>
 </g>
</svg>
