<?xml version="1.0" encoding="UTF-8"?>
<!--Generator: Apple Native CoreSVG 341-->
<!DOCTYPE svg
PUBLIC "-//W3C//DTD SVG 1.1//EN"
       "http://www.w3.org/Graphics/SVG/1.1/DTD/svg11.dtd">
<svg version="1.1" xmlns="http://www.w3.org/2000/svg" xmlns:xlink="http://www.w3.org/1999/xlink" viewBox="0 0 16.8455 26.2387">
 <g>
  <rect height="26.2387" opacity="0" width="16.8455" x="0" y="0"/>
  <path d="M2.90703 22.9803L13.5754 22.9803C15.3074 22.9803 16.4531 21.7644 16.4531 19.9428L16.4531 13.6844C16.4531 11.365 16.1859 8.98475 15.7892 7.33593C15.3635 5.44199 14.0969 4.0916 12.2035 3.89375C11.7322 3.85293 10.1258 3.71621 8.2412 3.71621C6.27617 3.71621 4.75019 3.85293 4.28066 3.89375C2.3873 4.0916 1.12872 5.44199 0.694928 7.33593C0.298249 8.99803 0.0390697 11.3349 0.0390697 13.6428L0.0390697 19.9428C0.0390697 21.7644 1.17676 22.9803 2.90703 22.9803ZM8.2412 16.4086C6.03984 16.3988 4.09765 16.3047 3.09608 16.1795C2.50683 16.1076 2.25507 15.7252 2.25507 15.1697L2.25507 13.4146C2.25507 11.5748 2.44413 10.1353 2.57831 9.53045C2.67245 9.08866 2.958 8.76483 3.41405 8.71425C4.43339 8.5953 5.80116 8.51718 8.2412 8.50741C10.6777 8.50116 12.049 8.5953 13.0719 8.71425C13.5262 8.76483 13.8197 9.08866 13.9059 9.53045C14.0418 10.1353 14.2291 11.5748 14.2291 13.4146L14.2291 15.1697C14.2291 15.7332 13.9773 16.1174 13.3881 16.1795C11.9676 16.3287 10.0299 16.4148 8.2412 16.4086ZM3.90312 20.6162C3.14687 20.6162 2.60722 20.057 2.60722 19.2928C2.60722 18.5365 3.14863 17.9791 3.90312 17.9791C4.66738 17.9791 5.22656 18.5365 5.22656 19.2928C5.22656 20.057 4.65136 20.6162 3.90312 20.6162ZM12.5633 20.6242C11.799 20.6242 11.2318 20.0472 11.2318 19.2928C11.2318 18.5445 11.8008 17.9711 12.5633 17.9711C13.3098 17.9711 13.8689 18.5445 13.8689 19.2928C13.8689 20.0472 13.3017 20.6242 12.5633 20.6242ZM5.86991 6.93319C5.48066 6.93319 5.20937 6.66991 5.20937 6.28066C5.20937 5.88163 5.48066 5.6246 5.86991 5.6246L10.6205 5.6246C11 5.6246 11.2748 5.88163 11.2748 6.28066C11.2748 6.6664 11 6.93319 10.6205 6.93319ZM0 2.05507C0 2.5082 0.321093 2.79804 0.757223 2.79804C0.994721 2.79804 1.22343 2.67577 1.41757 2.44609C1.92753 1.81249 2.47402 1.57616 3.50391 1.57616L12.9883 1.57616C14.0101 1.57616 14.5549 1.81249 15.0648 2.44609C15.2607 2.67577 15.4975 2.79804 15.7349 2.79804C16.1631 2.79804 16.4842 2.5082 16.4842 2.05507C16.4842 1.73047 16.2756 1.39609 15.9846 1.11484C15.1377 0.291992 14.156 0.0150388 12.9461 0.0150388L3.54609 0.0150388C2.33613 0.0150388 1.34648 0.291992 0.507616 1.11484C0.208594 1.39609 0 1.73047 0 2.05507ZM7.6039 4.31093L5.1371 1.28496L3.08789 1.28496L5.56621 4.31093ZM8.88027 4.31093L10.918 4.31093L13.3963 1.28496L11.3471 1.28496ZM3.12441 22.5439L1.41563 25.2863C1.14063 25.7201 1.37676 26.2387 1.90781 26.2387L2.51621 26.2387C2.81679 26.2387 2.99589 26.1367 3.16171 25.8724L5.2287 22.5439ZM11.267 22.5439L13.3322 25.8724C13.498 26.1367 13.6789 26.2387 13.9875 26.2387L14.5537 26.2387C15.0767 26.2387 15.3293 25.7121 15.0447 25.2564L13.3695 22.5439Z" fill="white" fill-opacity="0.85"/>
 </g>
</svg>
