<?xml version="1.0" encoding="UTF-8"?>
<!--Generator: Apple Native CoreSVG 341-->
<!DOCTYPE svg
PUBLIC "-//W3C//DTD SVG 1.1//EN"
       "http://www.w3.org/Graphics/SVG/1.1/DTD/svg11.dtd">
<svg version="1.1" xmlns="http://www.w3.org/2000/svg" xmlns:xlink="http://www.w3.org/1999/xlink" viewBox="0 0 18.3818 26.2387">
 <g>
  <rect height="26.2387" opacity="0" width="18.3818" x="0" y="0"/>
  <path d="M3.67206 23.2515L14.3404 23.2515C16.5474 23.2515 18.0205 21.7066 18.0205 19.4019L18.0205 14.4387C18.0205 12.0215 17.7533 9.44374 17.3068 7.59921C16.7832 5.31035 15.2213 3.81406 13.0984 3.59043C12.5871 3.5416 10.873 3.40488 9.00624 3.40488C6.90781 3.40488 5.43163 3.5416 4.92206 3.59043C2.79922 3.81406 1.2373 5.31035 0.713671 7.59921C0.267187 9.45702 0 11.9238 0 14.3215L0 19.4019C0 21.7066 1.47304 23.2515 3.67206 23.2515ZM3.91972 21.7174C2.33886 21.7174 1.53417 20.8183 1.53417 19.4019L1.53417 14.3215C1.53417 12.0293 1.77831 9.70077 2.20175 7.94843C2.59335 6.28612 3.62616 5.27557 5.07363 5.1246C5.55741 5.07577 6.95741 4.93905 9.00624 4.93905C10.8154 4.93905 12.4648 5.07577 12.9469 5.1246C14.3943 5.27557 15.4271 6.28612 15.8187 7.94843C16.2387 9.69725 16.4863 12.1234 16.4863 14.4387L16.4863 19.4019C16.4863 20.8183 15.6816 21.7174 14.0928 21.7174ZM9.00624 16.3484C11.4215 16.3387 13.2385 16.2365 14.2633 16.1148C14.8615 16.0447 15.1205 15.6515 15.1205 15.0871L15.1205 13.7C15.1205 11.8137 14.9207 10.3473 14.7865 9.73163C14.6924 9.28084 14.4059 8.95428 13.9426 8.90194C12.8965 8.7785 11.6699 8.70213 9.00624 8.69237C6.34706 8.70213 5.1205 8.7785 4.07967 8.90194C3.61464 8.95428 3.32811 9.28084 3.23397 9.73163C3.10155 10.3473 2.89999 11.8137 2.89999 13.7L2.89999 15.0871C2.89999 15.6515 3.15096 16.0447 3.75721 16.1148C4.7785 16.2365 6.5955 16.3387 9.00624 16.3484ZM4.59276 20.299C5.35624 20.299 5.93241 19.7326 5.93241 18.9531C5.93241 18.1834 5.37226 17.6152 4.59276 17.6152C3.82479 17.6152 3.25663 18.1834 3.25663 18.9531C3.25663 19.7326 3.82304 20.299 4.59276 20.299ZM13.4082 20.3088C14.1619 20.3088 14.7541 19.7246 14.7541 18.9531C14.7541 18.1914 14.1699 17.6072 13.4082 17.6072C12.6402 17.6072 12.056 18.1914 12.056 18.9531C12.056 19.7246 12.6385 20.3088 13.4082 20.3088ZM6.58925 7.59178L11.4295 7.59178C11.826 7.59178 12.0937 7.32401 12.0937 6.92577C12.0937 6.52753 11.826 6.26776 11.4295 6.26776L6.58925 6.26776C6.19276 6.26776 5.92675 6.52753 5.92675 6.92577C5.92675 7.32577 6.19276 7.59178 6.58925 7.59178ZM0.765038 2.05507C0.765038 2.5082 1.09414 2.79804 1.52226 2.79804C1.758 2.79804 1.98847 2.67577 2.19062 2.44609C2.69257 1.81249 3.24531 1.57616 4.26719 1.57616L13.7533 1.57616C14.7752 1.57616 15.3199 1.81249 15.8299 2.44609C16.024 2.67577 16.2607 2.79804 16.4982 2.79804C16.9264 2.79804 17.2555 2.5082 17.2555 2.05507C17.2555 1.73047 17.0389 1.39609 16.7496 1.11484C15.901 0.291992 14.9211 0.0150388 13.7094 0.0150388L4.31113 0.0150388C3.09941 0.0150388 2.11152 0.291992 1.2709 1.11484C0.973632 1.39609 0.765038 1.73047 0.765038 2.05507ZM7.98202 3.82792L5.91015 1.28496L3.85293 1.28496L5.93632 3.82792ZM10.0385 3.82792L12.0842 3.82792L14.1676 1.28496L12.1103 1.28496ZM3.88945 22.5439L2.17891 25.2863C1.90567 25.7201 2.14004 26.2387 2.67285 26.2387L3.27949 26.2387C3.58808 26.2387 3.76093 26.1367 3.92675 25.8724L5.99198 22.5439ZM12.0383 22.5439L14.1053 25.8724C14.2711 26.1367 14.4422 26.2387 14.7508 26.2387L15.317 26.2387C15.8498 26.2387 16.1023 25.7121 15.8097 25.2564L14.1346 22.5439Z" fill="white" fill-opacity="0.85"/>
 </g>
</svg>
