<?xml version="1.0" encoding="UTF-8"?>
<!--Generator: Apple Native CoreSVG 341-->
<!DOCTYPE svg
PUBLIC "-//W3C//DTD SVG 1.1//EN"
       "http://www.w3.org/Graphics/SVG/1.1/DTD/svg11.dtd">
<svg version="1.1" xmlns="http://www.w3.org/2000/svg" xmlns:xlink="http://www.w3.org/1999/xlink" viewBox="0 0 13.651 23.6781">
 <g>
  <rect height="23.6781" opacity="0" width="13.651" x="0" y="0"/>
  <path d="M0 6.12812C0 9.84121 2.20215 10.892 2.79375 17.2633C2.83809 17.7203 3.1125 18.0064 3.58554 18.0064L9.70234 18.0064C10.1834 18.0064 10.4578 17.7203 10.5021 17.2633C11.092 10.892 13.2896 9.84297 13.2896 6.12988C13.2896 2.67461 10.3402 0 6.64394 0C2.94765 0 0 2.67285 0 6.12812ZM1.70663 6.12812C1.70663 3.54765 3.96835 1.70663 6.64394 1.70663C9.31777 1.70839 11.583 3.54765 11.583 6.12812C11.583 8.79551 9.78203 9.49473 8.94004 16.3016L4.35585 16.3016C3.50585 9.49473 1.70663 8.79551 1.70663 6.12812ZM3.51406 20.2705L9.78007 20.2705C10.134 20.2705 10.4045 19.9867 10.4045 19.6416C10.4045 19.301 10.134 19.0189 9.78007 19.0189L3.51406 19.0189C3.16015 19.0189 2.88164 19.301 2.88164 19.6416C2.88164 19.9867 3.16015 20.2705 3.51406 20.2705ZM6.64394 23.1711C8.18925 23.1711 9.43496 22.4201 9.53789 21.2847L3.74746 21.2847C3.82461 22.4201 5.08886 23.1711 6.64394 23.1711Z" fill="white" fill-opacity="0.85"/>
 </g>
</svg>
