<?xml version="1.0" encoding="UTF-8"?>
<!--Generator: Apple Native CoreSVG 341-->
<!DOCTYPE svg
PUBLIC "-//W3C//DTD SVG 1.1//EN"
       "http://www.w3.org/Graphics/SVG/1.1/DTD/svg11.dtd">
<svg version="1.1" xmlns="http://www.w3.org/2000/svg" xmlns:xlink="http://www.w3.org/1999/xlink" viewBox="0 0 16.6176 22.6711">
 <g>
  <rect height="22.6711" opacity="0" width="16.6176" x="0" y="0"/>
  <path d="M0 4.12421C0 7.61757 5.23613 10.3342 5.23613 15.9578L5.23613 16.9066C5.23613 17.3135 5.46562 17.543 5.88046 17.543L10.3775 17.543C10.7906 17.543 11.0201 17.3135 11.0201 16.9066L11.0201 15.9578C11.0201 10.3084 16.2562 7.69569 16.2562 4.12421C16.2562 1.52304 13.273 0.0738251 8.133 0.0738251C2.98496 0.0738251 0 1.52304 0 4.12421ZM1.70663 4.12421C1.70663 2.81952 3.96112 1.78046 8.133 1.78046C12.2951 1.78046 14.5514 2.81952 14.5514 4.12421C14.5514 6.37538 9.32324 10.0756 9.32324 15.476L9.32324 16.733L10.4221 15.9348L5.83418 15.9348L6.93476 16.733L6.93476 15.4777C6.93476 10.0836 1.70663 6.35937 1.70663 4.12421ZM1.1373 6.18182L15.1287 6.18182L15.1287 4.69863L1.1373 4.69863ZM5.74823 19.807L10.5178 19.807C10.8619 19.807 11.1404 19.5312 11.1404 19.1861C11.1404 18.8375 10.8619 18.5635 10.5178 18.5635L5.74823 18.5635C5.39433 18.5635 5.11581 18.8375 5.11581 19.1861C5.11581 19.5312 5.39433 19.807 5.74823 19.807ZM8.133 22.6711C9.47773 22.6711 10.4451 21.9486 10.6326 20.8213L5.62363 20.8213C5.79511 21.9486 6.76249 22.6711 8.133 22.6711Z" fill="white" fill-opacity="0.85"/>
 </g>
</svg>
