<?xml version="1.0" encoding="UTF-8"?>
<!--Generator: Apple Native CoreSVG 341-->
<!DOCTYPE svg
PUBLIC "-//W3C//DTD SVG 1.1//EN"
       "http://www.w3.org/Graphics/SVG/1.1/DTD/svg11.dtd">
<svg version="1.1" xmlns="http://www.w3.org/2000/svg" xmlns:xlink="http://www.w3.org/1999/xlink" viewBox="0 0 24.2412 22.9074">
 <g>
  <rect height="22.9074" opacity="0" width="24.2412" x="0" y="0"/>
  <path d="M2.85449 12.9156C3.38378 12.9156 3.84569 12.475 3.84569 11.9519C3.84569 11.4111 3.38378 10.9705 2.85449 10.9705L0.965424 10.9705C0.44238 10.9705 0 11.4209 0 11.9519C0 12.4652 0.44238 12.9156 0.965424 12.9156ZM4.80898 6.19471C5.18398 6.56971 5.80546 6.58124 6.18046 6.19471C6.56522 5.81171 6.55545 5.19999 6.18046 4.825L4.84979 3.48632C4.4828 3.10332 3.85331 3.10332 3.47031 3.48632C3.09531 3.86933 3.09531 4.4748 3.47031 4.8578ZM10.9625 2.8705C10.9625 3.3998 11.4031 3.8537 11.9359 3.8537C12.4767 3.8537 12.9174 3.3998 12.9174 2.8705L12.9174 0.98144C12.9174 0.450388 12.4652 0 11.9359 0C11.4049 0 10.9625 0.450388 10.9625 0.98144ZM17.6834 4.825C17.3084 5.19999 17.2986 5.81171 17.6834 6.19471C18.0744 6.58124 18.6781 6.56971 19.0531 6.19471L20.3998 4.8578C20.7748 4.4748 20.7748 3.86933 20.3998 3.48632C20.0088 3.10332 19.4051 3.10332 19.0301 3.48632ZM22.8984 12.9156C23.4295 12.9156 23.8799 12.4652 23.8799 11.9519C23.8799 11.4209 23.4295 10.9705 22.8984 10.9705L21.0093 10.9705C20.4863 10.9705 20.0342 11.4111 20.0342 11.9519C20.0342 12.475 20.4863 12.9156 21.0093 12.9156Z" fill="white" fill-opacity="0.85"/>
  <path d="M19.5976 20.3465C20.1056 20.3465 20.5267 19.9351 20.5267 19.4351C20.5267 18.9271 20.1056 18.506 19.5976 18.506L18.3992 18.506L18.3992 12.0174C18.3992 8.37206 15.5812 5.54784 11.9359 5.54784C8.29862 5.54784 5.48065 8.37206 5.48065 12.0174L5.48065 18.506L4.26444 18.506C3.76445 18.506 3.36113 18.9271 3.36113 19.4351C3.36113 19.9351 3.76445 20.3465 4.26444 20.3465ZM12.8793 12.1873L12.8793 18.506L11.0068 18.506L11.0068 12.1873C11.0068 11.6713 11.4199 11.2439 11.9359 11.2439C12.4519 11.2439 12.8793 11.6713 12.8793 12.1873Z" fill="white" fill-opacity="0.85"/>
 </g>
</svg>
