<?xml version="1.0" encoding="UTF-8"?>
<!--Generator: Apple Native CoreSVG 341-->
<!DOCTYPE svg
PUBLIC "-//W3C//DTD SVG 1.1//EN"
       "http://www.w3.org/Graphics/SVG/1.1/DTD/svg11.dtd">
<svg version="1.1" xmlns="http://www.w3.org/2000/svg" xmlns:xlink="http://www.w3.org/1999/xlink" viewBox="0 0 19.9875 20.7179">
 <g>
  <rect height="20.7179" opacity="0" width="19.9875" x="0" y="0"/>
  <path d="M9.80995 9.82657C14.3127 9.82657 17.799 10.9422 19.6262 12.8779L19.6262 5.50116C19.6262 2.18047 15.7459 0 9.80995 0C3.88203 0 0 2.18047 0 5.50116L0 12.8779C1.82715 10.9422 5.30546 9.82657 9.80995 9.82657ZM9.80995 20.7082C15.4879 20.7082 19.5941 18.8574 19.5941 15.9926C19.5941 13.126 15.4879 11.2752 9.80995 11.2752C4.14004 11.2752 0.0320315 13.126 0.0320315 15.9926C0.0320315 18.8574 4.14004 20.7082 9.80995 20.7082ZM9.80995 15.666C7.57011 15.666 5.74003 14.5414 5.54101 13.0881C6.75683 12.8043 8.20761 12.6402 9.80995 12.6402C11.4185 12.6402 12.8613 12.8043 14.0851 13.0881C13.8861 14.5414 12.048 15.666 9.80995 15.666Z" fill="white" fill-opacity="0.85"/>
 </g>
</svg>
