<?xml version="1.0" encoding="UTF-8"?>
<!--Generator: Apple Native CoreSVG 341-->
<!DOCTYPE svg
PUBLIC "-//W3C//DTD SVG 1.1//EN"
       "http://www.w3.org/Graphics/SVG/1.1/DTD/svg11.dtd">
<svg version="1.1" xmlns="http://www.w3.org/2000/svg" xmlns:xlink="http://www.w3.org/1999/xlink" viewBox="0 0 28.3949 17.1363">
 <g>
  <rect height="17.1363" opacity="0" width="28.3949" x="0" y="0"/>
  <path d="M14.0004 17.1185C22.3234 17.1185 28.0336 13.276 28.0336 8.56327C28.0336 3.85058 22.3234 0 14.0004 0C5.70039 0 0 3.85058 0 8.56327C0 13.276 5.70039 17.1185 14.0004 17.1185ZM14.0004 13.9506C8.78222 13.9506 4.89569 11.7615 4.89569 8.80761C4.89569 5.87499 8.78222 3.68769 14.0004 3.68769C19.2478 3.68769 23.1459 5.87499 23.1459 8.80761C23.1459 11.7535 19.2398 13.9506 14.0004 13.9506ZM13.9976 9.40156C16.9982 9.40156 19.574 8.08202 20.5922 6.21405C19.1777 5.24198 16.8996 4.63749 14.0004 4.63749C11.1002 4.63749 8.81132 5.24999 7.39511 6.24784C8.43105 8.10605 10.9988 9.40156 13.9976 9.40156Z" fill="white" fill-opacity="0.85"/>
 </g>
</svg>
