<?xml version="1.0" encoding="UTF-8"?>
<!--Generator: Apple Native CoreSVG 341-->
<!DOCTYPE svg
PUBLIC "-//W3C//DTD SVG 1.1//EN"
       "http://www.w3.org/Graphics/SVG/1.1/DTD/svg11.dtd">
<svg version="1.1" xmlns="http://www.w3.org/2000/svg" xmlns:xlink="http://www.w3.org/1999/xlink" viewBox="0 0 24.2138 13.3527">
 <g>
  <rect height="13.3527" opacity="0" width="24.2138" x="0" y="0"/>
  <path d="M1.35371 13.316C2.10507 13.316 2.70741 12.7119 2.70741 11.9605C2.70741 11.2109 2.10507 10.6068 1.35371 10.6068C0.6041 10.6068 0 11.2109 0 11.9605C0 12.7119 0.6041 13.316 1.35371 13.316ZM4.09784 6.06425C4.84921 6.06425 5.45155 5.46015 5.45155 4.71054C5.45155 3.95918 4.84921 3.35684 4.09784 3.35684C3.35624 3.35684 2.75214 3.95918 2.75214 4.71054C2.75214 5.46015 3.35624 6.06425 4.09784 6.06425ZM11.9271 2.70741C12.6767 2.70741 13.2808 2.10507 13.2808 1.35371C13.2808 0.6041 12.6767 0 11.9271 0C11.1758 0 10.5734 0.6041 10.5734 1.35371C10.5734 2.10507 11.1758 2.70741 11.9271 2.70741ZM19.7547 6.06425C20.506 6.06425 21.1084 5.46015 21.1084 4.71054C21.1084 3.95918 20.506 3.35684 19.7547 3.35684C19.0051 3.35684 18.401 3.95918 18.401 4.71054C18.401 5.46015 19.0051 6.06425 19.7547 6.06425ZM22.4988 13.316C23.2502 13.316 23.8525 12.7119 23.8525 11.9605C23.8525 11.2109 23.2502 10.6068 22.4988 10.6068C21.7492 10.6068 21.1451 11.2109 21.1451 11.9605C21.1451 12.7119 21.7492 13.316 22.4988 13.316Z" fill="white" fill-opacity="0.85"/>
  <path d="M7.97167 13.1187L15.8844 13.1187C16.4771 13.1187 16.9724 12.6234 16.9724 12.0369C16.9724 11.4441 16.4771 10.9631 15.8844 10.9631L7.97167 10.9631C7.37089 10.9631 6.88359 11.4521 6.88359 12.0369C6.88359 12.6234 7.38066 13.1187 7.97167 13.1187Z" fill="white" fill-opacity="0.85"/>
 </g>
</svg>
