<?xml version="1.0" encoding="UTF-8"?>
<!--Generator: Apple Native CoreSVG 341-->
<!DOCTYPE svg
PUBLIC "-//W3C//DTD SVG 1.1//EN"
       "http://www.w3.org/Graphics/SVG/1.1/DTD/svg11.dtd">
<svg version="1.1" xmlns="http://www.w3.org/2000/svg" xmlns:xlink="http://www.w3.org/1999/xlink" viewBox="0 0 20.5381 20.1848">
 <g>
  <rect height="20.1848" opacity="0" width="20.5381" x="0" y="0"/>
  <path d="M10.0875 20.175C15.6576 20.175 20.1767 15.6559 20.1767 10.0875C20.1767 4.51914 15.6576 0 10.0875 0C4.51914 0 0 4.51914 0 10.0875C0 15.6559 4.51914 20.175 10.0875 20.175ZM10.0875 18.1879C5.60839 18.1879 1.9871 14.5666 1.9871 10.0875C1.9871 5.60839 5.60839 1.9871 10.0875 1.9871C14.5666 1.9871 18.1897 5.60839 18.1897 10.0875C18.1897 14.5666 14.5666 18.1879 10.0875 18.1879Z" fill="white" fill-opacity="0.85"/>
  <path d="M4.97714 9.58281L15.2156 9.58281C15.6998 9.58281 16.0439 9.26972 16.0439 8.81211C16.0439 8.35449 15.6998 8.04941 15.2156 8.04941L4.97714 8.04941C4.48495 8.04941 4.14882 8.35449 4.14882 8.81211C4.14882 9.26972 4.48495 9.58281 4.97714 9.58281ZM6.32929 12.8469L13.8635 12.8469C14.3441 12.8469 14.682 12.5338 14.682 12.0779C14.682 11.6203 14.3441 11.3135 13.8635 11.3135L6.32929 11.3135C5.84062 11.3135 5.50273 11.6203 5.50273 12.0779C5.50273 12.5338 5.84062 12.8469 6.32929 12.8469Z" fill="white" fill-opacity="0.85"/>
 </g>
</svg>
