<?xml version="1.0" encoding="UTF-8"?>
<!--Generator: Apple Native CoreSVG 341-->
<!DOCTYPE svg
PUBLIC "-//W3C//DTD SVG 1.1//EN"
       "http://www.w3.org/Graphics/SVG/1.1/DTD/svg11.dtd">
<svg version="1.1" xmlns="http://www.w3.org/2000/svg" xmlns:xlink="http://www.w3.org/1999/xlink" viewBox="0 0 20.3721 11.9562">
 <g>
  <rect height="11.9562" opacity="0" width="20.3721" x="0" y="0"/>
  <path d="M4.91758 11.9385L15.135 11.9385C15.6482 11.9385 16.056 11.5246 16.056 11.0166C16.056 10.5033 15.65 10.0867 15.135 10.0867L4.91758 10.0867C4.4043 10.0867 4.00449 10.5068 4.00449 11.0166C4.00449 11.5211 4.40605 11.9385 4.91758 11.9385Z" fill="white" fill-opacity="0.85"/>
  <path d="M2.93847 6.89511L17.1221 6.89511C17.6336 6.89511 18.0334 6.48124 18.0334 5.97324C18.0334 5.4582 17.6353 5.04336 17.1221 5.04336L2.93847 5.04336C2.42695 5.04336 2.01914 5.46347 2.01914 5.97324C2.01914 6.47773 2.42871 6.89511 2.93847 6.89511Z" fill="white" fill-opacity="0.85"/>
  <path d="M0.911323 1.85175L19.0994 1.85175C19.6127 1.85175 20.0107 1.43788 20.0107 0.929877C20.0107 0.414841 19.6144 0 19.0994 0L0.911323 0C0.399802 0 0 0.418357 0 0.929877C0 1.43261 0.40156 1.85175 0.911323 1.85175Z" fill="white" fill-opacity="0.85"/>
 </g>
</svg>
