<?xml version="1.0" encoding="UTF-8"?>
<!--Generator: Apple Native CoreSVG 341-->
<!DOCTYPE svg
PUBLIC "-//W3C//DTD SVG 1.1//EN"
       "http://www.w3.org/Graphics/SVG/1.1/DTD/svg11.dtd">
<svg version="1.1" xmlns="http://www.w3.org/2000/svg" xmlns:xlink="http://www.w3.org/1999/xlink" viewBox="0 0 20.5381 20.1848">
 <g>
  <rect height="20.1848" opacity="0" width="20.5381" x="0" y="0"/>
  <path d="M10.0875 20.175C15.6576 20.175 20.1767 15.6559 20.1767 10.0875C20.1767 4.51914 15.6576 0 10.0875 0C4.51914 0 0 4.51914 0 10.0875C0 15.6559 4.51914 20.175 10.0875 20.175ZM10.0875 18.1879C5.60839 18.1879 1.9871 14.5666 1.9871 10.0875C1.9871 5.60839 5.60839 1.9871 10.0875 1.9871C14.5666 1.9871 18.1897 5.60839 18.1897 10.0875C18.1897 14.5666 14.5666 18.1879 10.0875 18.1879Z" fill="white" fill-opacity="0.85"/>
  <path d="M4.97714 8.2287L15.2156 8.2287C15.6998 8.2287 16.0439 7.92363 16.0439 7.458C16.0439 7.00039 15.6998 6.69531 15.2156 6.69531L4.97714 6.69531C4.48495 6.69531 4.14882 7.00039 4.14882 7.458C4.14882 7.92363 4.48495 8.2287 4.97714 8.2287ZM6.32929 11.4523L13.8635 11.4523C14.3441 11.4523 14.682 11.1473 14.682 10.6816C14.682 10.2258 14.3441 9.91894 13.8635 9.91894L6.32929 9.91894C5.84062 9.91894 5.50273 10.2258 5.50273 10.6816C5.50273 11.1473 5.84062 11.4523 6.32929 11.4523ZM7.73124 14.684L12.4535 14.684C12.9342 14.684 13.2801 14.3709 13.2801 13.9133C13.2801 13.4574 12.9342 13.1506 12.4535 13.1506L7.73124 13.1506C7.25058 13.1506 6.91269 13.4574 6.91269 13.9133C6.91269 14.3709 7.25058 14.684 7.73124 14.684Z" fill="white" fill-opacity="0.85"/>
 </g>
</svg>
