<?xml version="1.0" encoding="UTF-8"?>
<!--Generator: Apple Native CoreSVG 341-->
<!DOCTYPE svg
PUBLIC "-//W3C//DTD SVG 1.1//EN"
       "http://www.w3.org/Graphics/SVG/1.1/DTD/svg11.dtd">
<svg version="1.1" xmlns="http://www.w3.org/2000/svg" xmlns:xlink="http://www.w3.org/1999/xlink" viewBox="0 0 20.3721 10.6023">
 <g>
  <rect height="10.6023" opacity="0" width="20.3721" x="0" y="0"/>
  <path d="M0.871283 10.6023L19.1332 10.6023C19.6207 10.6023 20.0107 10.1965 20.0107 9.70447C20.0107 9.21522 19.6225 8.8244 19.1332 8.8244L0.871283 8.8244C0.383787 8.8244 0 9.21874 0 9.70447C0 10.1912 0.385544 10.6023 0.871283 10.6023Z" fill="white" fill-opacity="0.85"/>
  <path d="M0.871283 6.19237L19.1332 6.19237C19.6207 6.19237 20.0107 5.79627 20.0107 5.31229C20.0107 4.81503 19.6225 4.41445 19.1332 4.41445L0.871283 4.41445C0.383787 4.41445 0 4.81855 0 5.31229C0 5.791 0.385544 6.19237 0.871283 6.19237Z" fill="white" fill-opacity="0.85"/>
  <path d="M0.871283 1.79393L19.1332 1.79393C19.6207 1.79393 20.0107 1.39784 20.0107 0.913861C20.0107 0.424607 19.6225 0.0257814 19.1332 0.0257814L0.871283 0.0257814C0.383787 0.0257814 0 0.428122 0 0.913861C0 1.39257 0.385544 1.79393 0.871283 1.79393Z" fill="white" fill-opacity="0.85"/>
 </g>
</svg>
