<?xml version="1.0" encoding="UTF-8"?>
<!--Generator: Apple Native CoreSVG 341-->
<!DOCTYPE svg
PUBLIC "-//W3C//DTD SVG 1.1//EN"
       "http://www.w3.org/Graphics/SVG/1.1/DTD/svg11.dtd">
<svg version="1.1" xmlns="http://www.w3.org/2000/svg" xmlns:xlink="http://www.w3.org/1999/xlink" viewBox="0 0 18.0771 21.2957">
 <g>
  <rect height="21.2957" opacity="0" width="18.0771" x="0" y="0"/>
  <path d="M11.7268 21.2859C15.3551 21.2859 17.7158 18.9314 17.7158 15.3014L17.7158 10.5221C17.7158 9.14023 17.2801 8.01855 16.4113 7.22168L10.2474 1.54961C9.00136 0.410937 7.67812 0 6.11777 0L3.08964 0C1.21758 0 0 1.23535 0 3.11542L0 18.1945C0 20.1324 1.16953 21.2859 3.11542 21.2859ZM11.6975 19.3709L3.24237 19.3709C2.29784 19.3709 1.91327 19.0281 1.91327 18.0756L1.91327 3.22636C1.91327 2.43749 2.42147 1.91327 3.21659 1.91327L6.08046 1.91327C7.26503 1.91327 8.09218 2.18866 8.9332 2.95331L15.0855 8.60761C15.5945 9.06776 15.8043 9.59667 15.8043 10.5416L15.8043 15.2756C15.8043 17.9379 14.3535 19.3709 11.6975 19.3709Z" fill="white" fill-opacity="0.85"/>
  <path d="M4.95682 11.4252L12.5709 11.4252C12.9646 11.4252 13.2449 11.176 13.2449 10.7893C13.2449 10.4203 12.9646 10.1693 12.5709 10.1693L4.95682 10.1693C4.55682 10.1693 4.28456 10.4203 4.28456 10.7893C4.28456 11.176 4.55682 11.4252 4.95682 11.4252ZM4.95682 14.1475L12.5709 14.1475C12.9646 14.1475 13.2449 13.8982 13.2449 13.5213C13.2449 13.1346 12.9646 12.8836 12.5709 12.8836L4.95682 12.8836C4.55682 12.8836 4.28456 13.1346 4.28456 13.5213C4.28456 13.8982 4.55682 14.1475 4.95682 14.1475ZM4.95682 16.8697L12.5709 16.8697C12.9646 16.8697 13.2449 16.6205 13.2449 16.2418C13.2449 15.8648 12.9646 15.6139 12.5709 15.6139L4.95682 15.6139C4.55682 15.6139 4.28456 15.8648 4.28456 16.2418C4.28456 16.6205 4.55682 16.8697 4.95682 16.8697Z" fill="white" fill-opacity="0.85"/>
 </g>
</svg>
