<?xml version="1.0" encoding="UTF-8"?>
<!--Generator: Apple Native CoreSVG 341-->
<!DOCTYPE svg
PUBLIC "-//W3C//DTD SVG 1.1//EN"
       "http://www.w3.org/Graphics/SVG/1.1/DTD/svg11.dtd">
<svg version="1.1" xmlns="http://www.w3.org/2000/svg" xmlns:xlink="http://www.w3.org/1999/xlink" viewBox="0 0 25.0662 18.8687">
 <g>
  <rect height="18.8687" opacity="0" width="25.0662" x="0" y="0"/>
  <path d="M0 17.9062C0 18.4309 0.428903 18.866 0.953509 18.866L23.7514 18.866C24.276 18.866 24.7049 18.4309 24.7049 17.9062C24.7049 17.3816 24.276 16.9527 23.7514 16.9527L0.953509 16.9527C0.428903 16.9527 0 17.3816 0 17.9062ZM0 0.961516C0 1.48612 0.428903 1.91327 0.953509 1.91327L23.7514 1.91327C24.276 1.91327 24.7049 1.48612 24.7049 0.961516C24.7049 0.436911 24.276 0 23.7514 0L0.953509 0C0.428903 0 0 0.436911 0 0.961516Z" fill="white" fill-opacity="0.85"/>
  <path d="M9.91816 13.7861L12.3613 12.0019L14.7947 13.7861C15.29 14.1492 15.8768 13.8225 15.6531 13.1586L14.702 10.3033L17.1852 8.51191C17.6984 8.14609 17.4992 7.50624 16.8754 7.50624L13.7998 7.50976L12.8939 4.66874C12.7014 4.07675 12.0195 4.07675 11.835 4.66874L10.9131 7.50976L7.82948 7.50624C7.20917 7.50624 6.9994 8.14784 7.5162 8.51191L10.0189 10.3051L9.058 13.1586C8.83613 13.8137 9.42109 14.151 9.91816 13.7861Z" fill="white" fill-opacity="0.85"/>
 </g>
</svg>
