<?xml version="1.0" encoding="UTF-8"?>
<!--Generator: Apple Native CoreSVG 341-->
<!DOCTYPE svg
PUBLIC "-//W3C//DTD SVG 1.1//EN"
       "http://www.w3.org/Graphics/SVG/1.1/DTD/svg11.dtd">
<svg version="1.1" xmlns="http://www.w3.org/2000/svg" xmlns:xlink="http://www.w3.org/1999/xlink" viewBox="0 0 16.2582 16.1904">
 <g>
  <rect height="16.1904" opacity="0" width="16.2582" x="0" y="0"/>
  <path d="M7.96719 3.05439L12.8268 7.93348C13.299 8.39774 13.95 8.13016 14.1281 7.46376L15.8705 1.0038C16.0273 0.386231 15.4851-0.136421 14.8871 0.0319369L8.43692 1.76631C7.77051 1.94443 7.49493 2.58388 7.96719 3.05439ZM1.62948 15.6093L13.5357 3.72255C13.915 3.35302 13.907 2.73798 13.5357 2.36846C13.1662 1.99893 12.5609 1.99893 12.1914 2.3667L0.277146 14.2517C-0.0923821 14.623-0.0923821 15.238 0.277146 15.6058C0.646675 15.977 1.26171 15.977 1.62948 15.6093Z" fill="white" fill-opacity="0.85"/>
 </g>
</svg>
