<?xml version="1.0" encoding="UTF-8"?>
<!--Generator: Apple Native CoreSVG 341-->
<!DOCTYPE svg
PUBLIC "-//W3C//DTD SVG 1.1//EN"
       "http://www.w3.org/Graphics/SVG/1.1/DTD/svg11.dtd">
<svg version="1.1" xmlns="http://www.w3.org/2000/svg" xmlns:xlink="http://www.w3.org/1999/xlink" viewBox="0 0 18.5558 21.2054">
 <g>
  <rect height="21.2054" opacity="0" width="18.5558" x="0" y="0"/>
  <path d="M3.92715 20.0449C3.92715 20.8152 4.30761 21.1957 5.06816 21.1957L13.1183 21.1957C13.8869 21.1957 14.2674 20.8152 14.2674 20.0449C14.2674 19.2728 13.8869 18.8924 13.1183 18.8924L5.06816 18.8924C4.30761 18.8924 3.92715 19.2728 3.92715 20.0449Z" fill="white" fill-opacity="0.85"/>
  <path d="M6.42246 15.3125C6.42246 16.081 6.79492 16.4633 7.56347 16.4633L10.631 16.4633C11.3916 16.4633 11.772 16.081 11.772 15.3125C11.772 14.5582 11.3916 14.1777 10.631 14.1777L7.56347 14.1777C6.79492 14.1777 6.42246 14.5582 6.42246 15.3125Z" fill="white" fill-opacity="0.85"/>
  <path d="M0 10.5978C0 11.3664 0.380467 11.7406 1.15253 11.7406L17.042 11.7406C17.814 11.7406 18.1945 11.3664 18.1945 10.5978C18.1945 9.82753 17.814 9.44706 17.042 9.44706L1.15253 9.44706C0.380467 9.44706 0 9.82753 0 10.5978Z" fill="white" fill-opacity="0.85"/>
  <path d="M6.42246 5.87518C6.42246 6.63573 6.79492 7.01619 7.56347 7.01619L10.631 7.01619C11.3916 7.01619 11.772 6.63573 11.772 5.87518C11.772 5.11288 11.3916 4.73242 10.631 4.73242L7.56347 4.73242C6.79492 4.73242 6.42246 5.11288 6.42246 5.87518Z" fill="white" fill-opacity="0.85"/>
  <path d="M3.92715 1.15077C3.92715 1.91307 4.30761 2.29354 5.06816 2.29354L13.1183 2.29354C13.8869 2.29354 14.2674 1.91307 14.2674 1.15077C14.2674 0.380467 13.8869 0 13.1183 0L5.06816 0C4.30761 0 3.92715 0.380467 3.92715 1.15077Z" fill="white" fill-opacity="0.85"/>
 </g>
</svg>
