<?xml version="1.0" encoding="UTF-8"?>
<!--Generator: Apple Native CoreSVG 341-->
<!DOCTYPE svg
PUBLIC "-//W3C//DTD SVG 1.1//EN"
       "http://www.w3.org/Graphics/SVG/1.1/DTD/svg11.dtd">
<svg version="1.1" xmlns="http://www.w3.org/2000/svg" xmlns:xlink="http://www.w3.org/1999/xlink" viewBox="0 0 20.5381 20.1848">
 <g>
  <rect height="20.1848" opacity="0" width="20.5381" x="0" y="0"/>
  <path d="M20.1767 10.0875C20.1767 15.6478 15.6576 20.175 10.0875 20.175C4.52715 20.175 0 15.6478 0 10.0875C0 4.51914 4.52715 0 10.0875 0C15.6576 0 20.1767 4.51914 20.1767 10.0875ZM7.65156 13.2428C7.14433 13.2428 6.79141 13.5629 6.79141 14.0391C6.79141 14.5197 7.14433 14.8478 7.65156 14.8478L12.5492 14.8478C13.0564 14.8478 13.4174 14.5197 13.4174 14.0391C13.4174 13.5629 13.0564 13.2428 12.5492 13.2428ZM6.1955 9.87734C5.68027 9.87734 5.32734 10.201 5.32734 10.6816C5.32734 11.1738 5.68027 11.4922 6.1955 11.4922L14.0133 11.4922C14.5205 11.4922 14.8734 11.1738 14.8734 10.6816C14.8734 10.201 14.5205 9.87734 14.0133 9.87734ZM4.78925 6.52969C4.28026 6.52969 3.92109 6.8498 3.92109 7.33398C3.92109 7.8164 4.28026 8.13652 4.78925 8.13652L15.4195 8.13652C15.9205 8.13652 16.2877 7.8164 16.2877 7.33398C16.2877 6.8498 15.9205 6.52969 15.4195 6.52969Z" fill="white" fill-opacity="0.85"/>
 </g>
</svg>
