<?xml version="1.0" encoding="UTF-8"?>
<!--Generator: Apple Native CoreSVG 341-->
<!DOCTYPE svg
PUBLIC "-//W3C//DTD SVG 1.1//EN"
       "http://www.w3.org/Graphics/SVG/1.1/DTD/svg11.dtd">
<svg version="1.1" xmlns="http://www.w3.org/2000/svg" xmlns:xlink="http://www.w3.org/1999/xlink" viewBox="0 0 23.6074 18.039">
 <g>
  <rect height="18.039" opacity="0" width="23.6074" x="0" y="0"/>
  <path d="M22.0662 14.1119C22.8515 14.1119 23.2461 13.7191 23.2461 12.9418L23.2461 5.09726C23.2461 4.31992 22.8515 3.92715 22.0662 3.92715C21.2871 3.92715 20.8943 4.31992 20.8943 5.09726L20.8943 12.9418C20.8943 13.7191 21.2871 14.1119 22.0662 14.1119Z" fill="white" fill-opacity="0.85"/>
  <path d="M16.8437 11.6246C17.6211 11.6246 18.0138 11.2318 18.0138 10.4465L18.0138 7.59257C18.0138 6.80722 17.6211 6.41445 16.8437 6.41445C16.0664 6.41445 15.6736 6.80722 15.6736 7.59257L15.6736 10.4465C15.6736 11.2318 16.0664 11.6246 16.8437 11.6246Z" fill="white" fill-opacity="0.85"/>
  <path d="M11.623 18.039C12.4004 18.039 12.8011 17.6463 12.8011 16.8654L12.8011 1.17363C12.8011 0.392771 12.4004 0 11.623 0C10.8457 0 10.4432 0.392771 10.4432 1.17363L10.4432 16.8654C10.4432 17.6463 10.8457 18.039 11.623 18.039Z" fill="white" fill-opacity="0.85"/>
  <path d="M6.40233 11.6246C7.17967 11.6246 7.57244 11.2318 7.57244 10.4465L7.57244 7.59257C7.57244 6.80722 7.17967 6.41445 6.40233 6.41445C5.62324 6.41445 5.23046 6.80722 5.23046 7.59257L5.23046 10.4465C5.23046 11.2318 5.62324 11.6246 6.40233 11.6246Z" fill="white" fill-opacity="0.85"/>
  <path d="M1.17812 14.1119C1.95897 14.1119 2.35174 13.7191 2.35174 12.9418L2.35174 5.09726C2.35174 4.31992 1.95897 3.92715 1.17812 3.92715C0.392771 3.92715 0 4.31992 0 5.09726L0 12.9418C0 13.7191 0.392771 14.1119 1.17812 14.1119Z" fill="white" fill-opacity="0.85"/>
 </g>
</svg>
