<?xml version="1.0" encoding="UTF-8"?>
<!--Generator: Apple Native CoreSVG 341-->
<!DOCTYPE svg
PUBLIC "-//W3C//DTD SVG 1.1//EN"
       "http://www.w3.org/Graphics/SVG/1.1/DTD/svg11.dtd">
<svg version="1.1" xmlns="http://www.w3.org/2000/svg" xmlns:xlink="http://www.w3.org/1999/xlink" viewBox="0 0 20.5381 20.1848">
 <g>
  <rect height="20.1848" opacity="0" width="20.5381" x="0" y="0"/>
  <path d="M10.0875 20.175C15.6576 20.175 20.1767 15.6559 20.1767 10.0875C20.1767 4.51914 15.6576 0 10.0875 0C4.51914 0 0 4.51914 0 10.0875C0 15.6559 4.51914 20.175 10.0875 20.175ZM10.0875 18.1879C5.60839 18.1879 1.9871 14.5666 1.9871 10.0875C1.9871 5.60839 5.60839 1.9871 10.0875 1.9871C14.5666 1.9871 18.1897 5.60839 18.1897 10.0875C18.1897 14.5666 14.5666 18.1879 10.0875 18.1879Z" fill="white" fill-opacity="0.85"/>
  <path d="M5.37714 14.6326C6.60487 15.8523 8.13534 15.7459 9.55839 14.3219L10.9353 12.9582C12.3859 11.5244 12.4978 9.97011 11.2523 8.7414C10.9344 8.41718 10.5623 8.17929 10.2977 8.11113C10.0102 8.32226 9.66933 8.7082 9.52363 9.03945C9.92539 9.11484 10.2707 9.28515 10.4928 9.50097C11.2404 10.2566 11.125 11.2494 10.1465 12.2182L8.82363 13.5393C7.87714 14.4822 6.89237 14.5932 6.13847 13.857C5.39081 13.1111 5.48222 12.1131 6.45272 11.1701L7.36015 10.2662C7.19511 9.90917 7.17128 9.283 7.32402 8.7957L5.67187 10.4318C4.25058 11.8594 4.13515 13.3986 5.37714 14.6326ZM14.4445 5.52187C13.2186 4.30214 11.6863 4.40859 10.2633 5.83261L8.88632 7.18828C7.43574 8.63007 7.32382 10.1764 8.56933 11.4051C8.8873 11.7373 9.25937 11.9672 9.52402 12.0434C9.81152 11.8242 10.1523 11.4365 10.298 11.115C9.89628 11.0396 9.55097 10.8693 9.3289 10.6455C8.58124 9.89785 8.69667 8.89707 9.67519 7.93632L10.998 6.61523C11.9463 5.67226 12.9293 5.56132 13.685 6.29745C14.4309 7.04335 14.3395 8.0414 13.3689 8.98437L12.4615 9.88027C12.6266 10.2453 12.6504 10.8635 12.4977 11.3588L14.1498 9.71464C15.5711 8.29511 15.6865 6.75585 14.4445 5.52187Z" fill="white" fill-opacity="0.85"/>
 </g>
</svg>
