<?xml version="1.0" encoding="UTF-8"?>
<!--Generator: Apple Native CoreSVG 341-->
<!DOCTYPE svg
PUBLIC "-//W3C//DTD SVG 1.1//EN"
       "http://www.w3.org/Graphics/SVG/1.1/DTD/svg11.dtd">
<svg version="1.1" xmlns="http://www.w3.org/2000/svg" xmlns:xlink="http://www.w3.org/1999/xlink" viewBox="0 0 22.7515 21.4965">
 <g>
  <rect height="21.4965" opacity="0" width="22.7515" x="0" y="0"/>
  <path d="M1.44999 18.9656L20.9947 18.9656L20.9947 18.2322C20.9947 17.8064 20.7437 17.551 20.3117 17.551L19.7447 17.551L19.7447 6.98046L20.5865 6.98046C21.1851 6.98046 21.5363 6.53886 21.5363 6.09277C21.5363 5.7664 21.351 5.47734 20.9545 5.24941L12.481 0.359374C12.0764 0.125976 11.6398 0 11.2183 0C10.7969 0 10.3523 0.125976 9.96366 0.359374L1.49023 5.24941C1.08574 5.47734 0.908396 5.7664 0.908396 6.09277C0.908396 6.53886 1.25957 6.98046 1.85995 6.98046L2.69999 6.98046L2.69999 17.551L2.14101 17.551C1.70898 17.551 1.44999 17.8064 1.44999 18.2322ZM4.32401 17.551L4.32401 5.67245L10.8779 1.99999C10.9846 1.93866 11.1072 1.90487 11.2183 1.90487C11.333 1.90487 11.4521 1.93866 11.5668 1.99999L18.1207 5.67245L18.1207 17.551ZM0.881441 21.4867L21.499 21.4867C21.9797 21.4867 22.3902 21.0849 22.3902 20.5972C22.3902 20.1148 21.9797 19.7158 21.499 19.7158L0.881441 19.7158C0.399022 19.7158 0 20.1148 0 20.5972C0 21.0832 0.399022 21.4867 0.881441 21.4867Z" fill="white" fill-opacity="0.85"/>
  <path d="M8.31834 14.7709L13.991 14.7709C14.3305 14.7709 14.5654 14.5359 14.5654 14.2115C14.5654 13.8853 14.3305 13.6521 13.991 13.6521L9.70916 13.6521L9.70916 13.6016C10.332 13.3441 10.6732 12.7115 10.7531 11.9918C10.7629 11.9029 10.7726 11.8185 10.7726 11.7234L13.1057 11.7234C13.3082 11.7234 13.4637 11.576 13.4637 11.3734C13.4637 11.1824 13.3082 11.0349 13.1057 11.0349L10.7201 11.0349C10.6588 10.6363 10.5371 10.2988 10.4492 9.93026L13.1057 9.93026C13.3082 9.93026 13.4637 9.78456 13.4637 9.59003C13.4637 9.38924 13.3082 9.24178 13.1057 9.24178L10.3355 9.24178C10.316 9.14764 10.316 9.03573 10.316 8.93182C10.316 7.83475 11.2121 7.29881 12.3144 7.29881C12.6644 7.29881 13.0916 7.36189 13.3404 7.41346C13.4814 7.45076 13.6279 7.47479 13.7379 7.47479C14.0803 7.47479 14.2291 7.26541 14.2291 7.0119C14.2291 6.70428 14.0349 6.52694 13.7557 6.42049C13.2611 6.21444 12.6584 6.18163 12.141 6.18163C10.3084 6.18163 8.95175 7.1285 8.95175 8.87753C8.95175 9.00604 8.95702 9.12303 8.97206 9.24178L8.0498 9.24178C7.85702 9.24178 7.70155 9.38924 7.70155 9.59003C7.70155 9.78456 7.85702 9.93026 8.0498 9.93026L9.07948 9.93026C9.17538 10.3166 9.29354 10.6611 9.37089 11.0349L8.0498 11.0349C7.85702 11.0349 7.70155 11.1824 7.70155 11.3734C7.70155 11.576 7.85702 11.7234 8.0498 11.7234L9.44472 11.7234C9.44472 11.8168 9.43495 11.9555 9.41542 12.0701C9.29726 12.8361 8.79061 13.3424 8.22381 13.565C7.93456 13.6828 7.73768 13.8619 7.73768 14.1973C7.73768 14.5617 8.00194 14.7709 8.31834 14.7709Z" fill="white" fill-opacity="0.85"/>
 </g>
</svg>
