<?xml version="1.0" encoding="UTF-8"?>
<!--Generator: Apple Native CoreSVG 341-->
<!DOCTYPE svg
PUBLIC "-//W3C//DTD SVG 1.1//EN"
       "http://www.w3.org/Graphics/SVG/1.1/DTD/svg11.dtd">
<svg version="1.1" xmlns="http://www.w3.org/2000/svg" xmlns:xlink="http://www.w3.org/1999/xlink" viewBox="0 0 18.5894 18.2316">
 <g>
  <rect height="18.2316" opacity="0" width="18.5894" x="0" y="0"/>
  <path d="M3.20351 18.2281L15.0246 18.2281C17.1404 18.2281 18.2281 17.1502 18.2281 15.0646L18.2281 3.17148C18.2281 1.08769 17.1404 0 15.0246 0L3.20351 0C1.0957 0 0 1.08769 0 3.17148L0 15.0646C0 17.1502 1.0957 18.2281 3.20351 18.2281ZM3.31444 16.3148C2.40643 16.3148 1.91327 15.8465 1.91327 14.8977L1.91327 3.34023C1.91327 2.39139 2.40643 1.91503 3.31444 1.91503L14.9137 1.91503C15.8137 1.91503 16.3148 2.39139 16.3148 3.34023L16.3148 14.8977C16.3148 15.8465 15.8137 16.3148 14.9137 16.3148Z" fill="white" fill-opacity="0.85"/>
  <path d="M6.20917 13.3043L11.8818 13.3043C12.223 13.3043 12.466 13.0711 12.466 12.7467C12.466 12.4205 12.223 12.1873 11.8818 12.1873L7.59999 12.1873L7.59999 12.1367C8.2246 11.8793 8.56405 11.2387 8.64394 10.527C8.65546 10.4381 8.66523 10.3457 8.66523 10.2586L10.9965 10.2586C11.199 10.2586 11.3545 10.1031 11.3545 9.90859C11.3545 9.70781 11.199 9.5621 10.9965 9.5621L8.61269 9.5621C8.55937 9.16347 8.42792 8.82421 8.34003 8.46542L10.9965 8.46542C11.199 8.46542 11.3545 8.31796 11.3545 8.11542C11.3545 7.92441 11.199 7.77695 10.9965 7.77695L8.22636 7.77695C8.20858 7.68281 8.20858 7.57089 8.20858 7.45898C8.20858 6.36991 9.10468 5.83397 10.2053 5.83397C10.5553 5.83397 10.9824 5.89706 11.2312 5.94862C11.3803 5.98417 11.5187 6.00018 11.6305 6.00018C11.9809 6.00018 12.1217 5.80057 12.1217 5.53905C12.1217 5.23144 11.9275 5.0621 11.6465 4.94765C11.1519 4.7496 10.5492 4.71679 10.0336 4.71679C8.19921 4.71679 6.84258 5.66367 6.84258 7.41269C6.84258 7.53945 6.84785 7.6582 6.86289 7.77695L5.95039 7.77695C5.74785 7.77695 5.59238 7.92441 5.59238 8.11542C5.59238 8.31796 5.74785 8.46542 5.95039 8.46542L6.98008 8.46542C7.06621 8.85175 7.18613 9.19628 7.27148 9.5621L5.95039 9.5621C5.74785 9.5621 5.59238 9.70781 5.59238 9.90859C5.59238 10.1031 5.74785 10.2586 5.95039 10.2586L7.33555 10.2586C7.34355 10.352 7.32578 10.4906 7.30801 10.6053C7.18808 11.3633 6.6832 11.8775 6.11464 12.0904C5.82714 12.218 5.63027 12.3953 5.63027 12.7244C5.63027 13.0969 5.89453 13.3043 6.20917 13.3043Z" fill="white" fill-opacity="0.85"/>
 </g>
</svg>
