<?xml version="1.0" encoding="UTF-8"?>
<!--Generator: Apple Native CoreSVG 341-->
<!DOCTYPE svg
PUBLIC "-//W3C//DTD SVG 1.1//EN"
       "http://www.w3.org/Graphics/SVG/1.1/DTD/svg11.dtd">
<svg version="1.1" xmlns="http://www.w3.org/2000/svg" xmlns:xlink="http://www.w3.org/1999/xlink" viewBox="0 0 24.226 20.1848">
 <g>
  <rect height="20.1848" opacity="0" width="24.226" x="0" y="0"/>
  <path d="M0.721518 8.12363C-0.00973073 8.12363-0.190785 8.66894 0.204136 9.22109L2.47249 12.3723C2.78948 12.8092 3.27757 12.8012 3.58831 12.3723L5.8469 9.21308C6.24007 8.66894 6.051 8.12363 5.33929 8.12363ZM22.0239 10.0875C22.0239 4.51914 17.503 0 11.9364 0C6.368 0 1.85687 4.50937 1.84886 10.099C1.85687 10.6476 2.29378 11.0846 2.83441 11.0846C3.38303 11.0846 3.83596 10.6396 3.83596 10.091C3.83596 5.60839 7.45725 1.9871 11.9364 1.9871C16.4155 1.9871 20.0368 5.60839 20.0368 10.0875C20.0368 14.5666 16.4155 18.1879 11.9364 18.1879C9.3096 18.1879 7.0131 16.9437 5.54279 15.0176C5.1469 14.5609 4.58421 14.4129 4.10726 14.7519C3.66214 15.0734 3.55902 15.725 3.99475 16.2355C5.84631 18.6584 8.71858 20.175 11.9364 20.175C17.503 20.175 22.0239 15.6559 22.0239 10.0875Z" fill="white" fill-opacity="0.85"/>
  <path d="M9.02659 14.2809L14.701 14.2809C15.0405 14.2809 15.2754 14.0477 15.2754 13.7232C15.2754 13.3971 15.0405 13.1639 14.701 13.1639L10.4192 13.1639L10.4192 13.1133C11.042 12.8559 11.3815 12.2152 11.4631 11.5035C11.4729 11.4146 11.4826 11.3223 11.4826 11.2352L13.8157 11.2352C14.0182 11.2352 14.1737 11.0797 14.1737 10.8852C14.1737 10.6844 14.0182 10.5387 13.8157 10.5387L11.4301 10.5387C11.3688 10.14 11.2471 9.80078 11.1592 9.44199L13.8157 9.44199C14.0182 9.44199 14.1737 9.29453 14.1737 9.09199C14.1737 8.90097 14.0182 8.75351 13.8157 8.75351L11.0438 8.75351C11.026 8.65937 11.026 8.54745 11.026 8.43554C11.026 7.34647 11.9221 6.81053 13.0227 6.81053C13.3744 6.81053 13.7998 6.87362 14.0504 6.92518C14.1994 6.96073 14.3379 6.97675 14.4479 6.97675C14.7903 6.97675 14.9391 6.77714 14.9391 6.51561C14.9391 6.208 14.745 6.03866 14.4639 5.92421C13.9694 5.72616 13.3684 5.69335 12.851 5.69335C11.0166 5.69335 9.66 6.64023 9.66 8.38925C9.66 8.51601 9.66703 8.63476 9.68031 8.75351L8.7598 8.75351C8.56527 8.75351 8.4098 8.90097 8.4098 9.09199C8.4098 9.29453 8.56527 9.44199 8.7598 9.44199L9.78949 9.44199C9.88539 9.82832 10.0036 10.1728 10.0889 10.5387L8.7598 10.5387C8.56527 10.5387 8.4098 10.6844 8.4098 10.8852C8.4098 11.0797 8.56527 11.2352 8.7598 11.2352L10.1547 11.2352C10.1547 11.3285 10.1432 11.4672 10.1254 11.5818C10.0073 12.3398 9.50062 12.8541 8.93206 13.067C8.64456 13.1945 8.44769 13.3719 8.44769 13.701C8.44769 14.0734 8.71195 14.2809 9.02659 14.2809Z" fill="white" fill-opacity="0.85"/>
 </g>
</svg>
