<?xml version="1.0" encoding="UTF-8"?>
<!--Generator: Apple Native CoreSVG 341-->
<!DOCTYPE svg
PUBLIC "-//W3C//DTD SVG 1.1//EN"
       "http://www.w3.org/Graphics/SVG/1.1/DTD/svg11.dtd">
<svg version="1.1" xmlns="http://www.w3.org/2000/svg" xmlns:xlink="http://www.w3.org/1999/xlink" viewBox="0 0 18.5894 18.2316">
 <g>
  <rect height="18.2316" opacity="0" width="18.5894" x="0" y="0"/>
  <path d="M18.2281 3.17148L18.2281 15.0646C18.2281 17.1502 17.1404 18.2281 15.0246 18.2281L3.20351 18.2281C1.0957 18.2281 0 17.1502 0 15.0646L0 3.17148C0 1.08769 1.0957 0 3.20351 0L15.0246 0C17.1404 0 18.2281 1.08769 18.2281 3.17148ZM6.77246 7.34804C6.77246 7.48007 6.77949 7.60058 6.79453 7.72909L5.84394 7.72909C5.63164 7.72909 5.47617 7.87831 5.47617 8.08085C5.47617 8.29316 5.63164 8.44062 5.84394 8.44062L6.91172 8.44062C7.00937 8.85 7.12754 9.20605 7.2164 9.58339L5.84394 9.58339C5.63164 9.58339 5.47617 9.73086 5.47617 9.9414C5.47617 10.1457 5.63164 10.3029 5.84394 10.3029L7.28848 10.3029C7.29648 10.4061 7.27871 10.5447 7.24941 10.6691C7.13125 11.4484 6.60683 11.984 6.02499 12.2022C5.72421 12.3412 5.51582 12.5238 5.51582 12.8627C5.51582 13.26 5.7916 13.4744 6.12304 13.4744L12.0182 13.4744C12.3762 13.4744 12.6244 13.2279 12.6244 12.877C12.6244 12.5455 12.3762 12.3053 12.0182 12.3053L7.57401 12.3053L7.57401 12.2547C8.21991 11.9857 8.57089 11.3238 8.66054 10.5828C8.6703 10.4904 8.68183 10.3998 8.68183 10.3029L11.0955 10.3029C11.3078 10.3029 11.4748 10.1457 11.4748 9.9414C11.4748 9.73086 11.3078 9.58339 11.0955 9.58339L8.63729 9.58339C8.56796 9.17148 8.43475 8.81269 8.34511 8.44062L11.0955 8.44062C11.3078 8.44062 11.4748 8.29316 11.4748 8.08085C11.4748 7.87831 11.3078 7.72909 11.0955 7.72909L8.22167 7.72909C8.2039 7.62695 8.2039 7.51327 8.2039 7.40136C8.2039 6.26972 9.13456 5.71249 10.2795 5.71249C10.6393 5.71249 11.0814 5.78358 11.34 5.8369C11.5006 5.87421 11.6408 5.89022 11.7525 5.89022C12.126 5.89022 12.2703 5.67733 12.2703 5.40077C12.2703 5.07988 12.0646 4.90527 11.7783 4.78906C11.2607 4.58124 10.6332 4.54667 10.0928 4.54667C8.18749 4.54667 6.77246 5.52812 6.77246 7.34804Z" fill="white" fill-opacity="0.85"/>
 </g>
</svg>
