<?xml version="1.0" encoding="UTF-8"?>
<!--Generator: Apple Native CoreSVG 341-->
<!DOCTYPE svg
PUBLIC "-//W3C//DTD SVG 1.1//EN"
       "http://www.w3.org/Graphics/SVG/1.1/DTD/svg11.dtd">
<svg version="1.1" xmlns="http://www.w3.org/2000/svg" xmlns:xlink="http://www.w3.org/1999/xlink" viewBox="0 0 20.5381 20.1848">
 <g>
  <rect height="20.1848" opacity="0" width="20.5381" x="0" y="0"/>
  <path d="M10.0875 20.175C15.6576 20.175 20.1767 15.6559 20.1767 10.0875C20.1767 4.51914 15.6576 0 10.0875 0C4.51914 0 0 4.51914 0 10.0875C0 15.6559 4.51914 20.175 10.0875 20.175ZM10.0875 18.1879C5.60839 18.1879 1.9871 14.5666 1.9871 10.0875C1.9871 5.60839 5.60839 1.9871 10.0875 1.9871C14.5666 1.9871 18.1897 5.60839 18.1897 10.0875C18.1897 14.5666 14.5666 18.1879 10.0875 18.1879Z" fill="white" fill-opacity="0.85"/>
  <path d="M7.16972 14.2809L12.8424 14.2809C13.1836 14.2809 13.4185 14.0477 13.4185 13.7232C13.4185 13.3971 13.1836 13.1639 12.8424 13.1639L8.56053 13.1639L8.56053 13.1133C9.18515 12.8559 9.5246 12.2152 9.60448 11.5035C9.61601 11.4146 9.62577 11.3223 9.62577 11.2352L11.9588 11.2352C12.1596 11.2352 12.315 11.0797 12.315 10.8852C12.315 10.6844 12.1596 10.5387 11.9588 10.5387L9.57323 10.5387C9.5119 10.14 9.38847 9.80078 9.30233 9.44199L11.9588 9.44199C12.1596 9.44199 12.315 9.29453 12.315 9.09199C12.315 8.90097 12.1596 8.75351 11.9588 8.75351L9.1869 8.75351C9.16913 8.65937 9.16913 8.54745 9.16913 8.43554C9.16913 7.34647 10.0652 6.81053 11.1658 6.81053C11.5176 6.81053 11.943 6.87362 12.1936 6.92518C12.3426 6.96073 12.481 6.97675 12.591 6.97675C12.9334 6.97675 13.0822 6.77714 13.0822 6.51561C13.0822 6.208 12.8881 6.03866 12.607 5.92421C12.1125 5.72616 11.5098 5.69335 10.9941 5.69335C9.15976 5.69335 7.80312 6.64023 7.80312 8.38925C7.80312 8.51601 7.81015 8.63476 7.82344 8.75351L6.90293 8.75351C6.7084 8.75351 6.55293 8.90097 6.55293 9.09199C6.55293 9.29453 6.7084 9.44199 6.90293 9.44199L7.94062 9.44199C8.02851 9.82832 8.14668 10.1728 8.23203 10.5387L6.90293 10.5387C6.7084 10.5387 6.55293 10.6844 6.55293 10.8852C6.55293 11.0797 6.7084 11.2352 6.90293 11.2352L8.29785 11.2352C8.29785 11.3285 8.28633 11.4672 8.26855 11.5818C8.14863 12.3398 7.64375 12.8541 7.07519 13.067C6.78769 13.1945 6.59082 13.3719 6.59082 13.701C6.59082 14.0734 6.85507 14.2809 7.16972 14.2809Z" fill="white" fill-opacity="0.85"/>
 </g>
</svg>
