<?xml version="1.0" encoding="UTF-8"?>
<!--Generator: Apple Native CoreSVG 341-->
<!DOCTYPE svg
PUBLIC "-//W3C//DTD SVG 1.1//EN"
       "http://www.w3.org/Graphics/SVG/1.1/DTD/svg11.dtd">
<svg version="1.1" xmlns="http://www.w3.org/2000/svg" xmlns:xlink="http://www.w3.org/1999/xlink" viewBox="0 0 24.2049 19.7961">
 <g>
  <rect height="19.7961" opacity="0" width="24.2049" x="0" y="0"/>
  <path d="M23.8435 11.8701C23.8435 5.64747 19.073 0.538875 12.9941 0.00293831C12.6553-0.029874 12.3998 0.215828 12.3998 0.554694L12.3998 3.8043C12.3998 4.08907 12.6012 4.30645 12.8842 4.33301C16.6191 4.80957 19.517 8.00293 19.517 11.8701C19.517 13.6332 18.9115 15.2613 17.8488 16.61C17.6945 16.8023 17.7025 17.0471 17.8719 17.2244L20.2322 19.5785C20.4646 19.8144 20.823 19.8109 21.0359 19.559C22.7926 17.4783 23.8435 14.7949 23.8435 11.8701Z" fill="white" fill-opacity="0.85"/>
  <path d="M0 11.8701C0 14.8029 1.05098 17.4863 2.80586 19.5652C3.01875 19.8172 3.36914 19.8109 3.61132 19.5768L5.96992 17.2227C6.13925 17.0453 6.14726 16.8006 5.99296 16.6082C4.92578 15.2613 4.32656 13.6332 4.32656 11.8701C4.32656 8.00293 7.22617 4.80957 10.9594 4.33301C11.2441 4.30645 11.4437 4.08907 11.4437 3.8043L11.4437 0.554694C11.4437 0.215828 11.1883-0.029874 10.8494 0.00293831C4.77226 0.538875 0 5.64747 0 11.8701Z" fill="white" fill-opacity="0.85"/>
  <path d="M8.99999 16.1482L14.6807 16.1482C15.0219 16.1482 15.2568 15.9133 15.2568 15.5889C15.2568 15.2627 15.0219 15.0295 14.6807 15.0295L10.3908 15.0295L10.3908 14.9789C11.0154 14.7215 11.3629 14.0889 11.4428 13.3691C11.4543 13.2803 11.456 13.1959 11.456 13.1008L13.7953 13.1008C13.9898 13.1008 14.1453 12.9533 14.1453 12.7508C14.1453 12.5598 13.9898 12.4123 13.7953 12.4123L11.4115 12.4123C11.3502 12.0137 11.2187 11.6762 11.1308 11.3076L13.7953 11.3076C13.9898 11.3076 14.1453 11.1619 14.1453 10.9674C14.1453 10.7666 13.9898 10.6191 13.7953 10.6191L11.0172 10.6191C10.9994 10.525 10.9994 10.4131 10.9994 10.3109C10.9994 9.21211 11.8955 8.67617 12.9961 8.67617C13.3461 8.67617 13.7732 8.73925 14.0301 8.79082C14.1711 8.82812 14.3096 8.85215 14.4213 8.85215C14.7699 8.85215 14.9125 8.64277 14.9125 8.38926C14.9125 8.08164 14.7184 7.9043 14.4373 7.79785C13.9428 7.5918 13.34 7.56699 12.8324 7.56699C10.99 7.56699 9.6334 8.50586 9.6334 10.2549C9.6334 10.3834 9.63867 10.5004 9.65371 10.6191L8.74121 10.6191C8.53867 10.6191 8.3832 10.7666 8.3832 10.9674C8.3832 11.1619 8.53867 11.3076 8.74121 11.3076L9.77089 11.3076C9.85703 11.6939 9.98496 12.0385 10.0623 12.4123L8.74121 12.4123C8.53867 12.4123 8.3832 12.5598 8.3832 12.7508C8.3832 12.9533 8.53867 13.1008 8.74121 13.1008L10.1264 13.1008C10.1344 13.1941 10.1166 13.3328 10.0988 13.4475C9.9789 14.2135 9.47402 14.7197 8.90546 14.9424C8.61796 15.0602 8.42109 15.2393 8.42109 15.5746C8.42109 15.9391 8.68535 16.1482 8.99999 16.1482Z" fill="white" fill-opacity="0.85"/>
 </g>
</svg>
