<?xml version="1.0" encoding="UTF-8"?>
<!--Generator: Apple Native CoreSVG 341-->
<!DOCTYPE svg
PUBLIC "-//W3C//DTD SVG 1.1//EN"
       "http://www.w3.org/Graphics/SVG/1.1/DTD/svg11.dtd">
<svg version="1.1" xmlns="http://www.w3.org/2000/svg" xmlns:xlink="http://www.w3.org/1999/xlink" viewBox="0 0 23.4906 18.2316">
 <g>
  <rect height="18.2316" opacity="0" width="23.4906" x="0" y="0"/>
  <path d="M3.20351 18.2316L19.9258 18.2316C22.0416 18.2316 23.1293 17.1519 23.1293 15.0682L23.1293 3.17499C23.1293 1.08945 22.0416 0.00351548 19.9258 0.00351548L3.20351 0.00351548C1.0957 0.00351548 0 1.08945 0 3.17499L0 15.0682C0 17.1519 1.0957 18.2316 3.20351 18.2316ZM3.31444 16.3184C2.40643 16.3184 1.91327 15.8482 1.91327 14.8994L1.91327 3.34198C1.91327 2.39315 2.40643 1.91678 3.31444 1.91678L19.8148 1.91678C20.7149 1.91678 21.216 2.39315 21.216 3.34198L21.216 14.8994C21.216 15.8482 20.7149 16.3184 19.8148 16.3184Z" fill="white" fill-opacity="0.85"/>
  <path d="M5.13417 5.78261L6.25077 5.78261C6.6662 5.78261 7.01327 5.4373 7.01327 5.02011C7.01327 4.60292 6.6582 4.25761 6.25077 4.25761L5.13417 4.25761C4.71073 4.25761 4.37968 4.60292 4.37968 5.02011C4.37968 5.4373 4.71874 5.78261 5.13417 5.78261Z" fill="white" fill-opacity="0.85"/>
  <path d="M8.93945 5.66171L18.1045 5.66171C18.4604 5.66171 18.7363 5.37597 18.7363 5.02011C18.7363 4.66601 18.4604 4.39003 18.1045 4.39003L8.93945 4.39003C8.58535 4.39003 8.30761 4.66425 8.30761 5.02011C8.30761 5.37597 8.58183 5.66171 8.93945 5.66171Z" fill="white" fill-opacity="0.85"/>
  <path d="M5.13417 8.98359L6.25077 8.98359C6.6582 8.98359 7.01327 8.64628 7.01327 8.2291C7.01327 7.81191 6.6662 7.4746 6.25077 7.4746L5.13417 7.4746C4.71073 7.4746 4.37968 7.81191 4.37968 8.2291C4.37968 8.64628 4.71073 8.98359 5.13417 8.98359Z" fill="white" fill-opacity="0.85"/>
  <path d="M8.93945 8.86894L18.1045 8.86894C18.4604 8.86894 18.7363 8.59472 18.7363 8.2291C18.7363 7.87324 18.4604 7.58925 18.1045 7.58925L8.93945 7.58925C8.59335 7.58925 8.30761 7.86523 8.30761 8.2291C8.30761 8.5832 8.58183 8.86894 8.93945 8.86894Z" fill="white" fill-opacity="0.85"/>
 </g>
</svg>
