<?xml version="1.0" encoding="UTF-8"?>
<!--Generator: Apple Native CoreSVG 341-->
<!DOCTYPE svg
PUBLIC "-//W3C//DTD SVG 1.1//EN"
       "http://www.w3.org/Graphics/SVG/1.1/DTD/svg11.dtd">
<svg version="1.1" xmlns="http://www.w3.org/2000/svg" xmlns:xlink="http://www.w3.org/1999/xlink" viewBox="0 0 17.107 21.1441">
 <g>
  <rect height="21.1441" opacity="0" width="17.107" x="0" y="0"/>
  <path d="M0 17.9406C0 20.0502 1.07968 21.1379 3.17148 21.1379L13.5742 21.1379C15.6678 21.1379 16.7457 20.0502 16.7457 17.9406L16.7457 3.20527C16.7457 1.10371 15.6678 0 13.5742 0L3.17148 0C1.07968 0 0 1.10371 0 3.20527ZM1.91327 17.8217L1.91327 3.32421C1.91327 2.41444 2.38163 1.91327 3.33222 1.91327L13.4152 1.91327C14.3641 1.91327 14.8324 2.41444 14.8324 3.32421L14.8324 17.8217C14.8324 18.7314 14.3641 19.2246 13.4152 19.2246L3.33222 19.2246C2.38163 19.2246 1.91327 18.7314 1.91327 17.8217Z" fill="white" fill-opacity="0.85"/>
  <path d="M4.21972 5.57831C4.72753 5.57831 5.12968 5.17265 5.12968 4.66659C5.12968 4.16679 4.72753 3.75663 4.21972 3.75663C3.72792 3.75663 3.308 4.1748 3.308 4.66659C3.308 5.16464 3.72792 5.57831 4.21972 5.57831Z" fill="white" fill-opacity="0.85"/>
  <path d="M6.90331 5.30819L12.8059 5.30819C13.152 5.30819 13.4377 5.02069 13.4377 4.66659C13.4377 4.3205 13.1537 4.033 12.8059 4.033L6.90331 4.033C6.55546 4.033 6.27148 4.3205 6.27148 4.66659C6.27148 5.02069 6.55722 5.30819 6.90331 5.30819Z" fill="white" fill-opacity="0.85"/>
  <path d="M4.21972 8.48925C4.72753 8.48925 5.12968 8.08085 5.12968 7.58105C5.12968 7.07499 4.72929 6.68085 4.21972 6.68085C3.71815 6.68085 3.308 7.083 3.308 7.58105C3.308 8.08085 3.71815 8.48925 4.21972 8.48925Z" fill="white" fill-opacity="0.85"/>
  <path d="M6.90331 8.21288L12.8059 8.21288C13.1617 8.21288 13.4377 7.93515 13.4377 7.58105C13.4377 7.22519 13.1617 6.95097 12.8059 6.95097L6.90331 6.95097C6.54745 6.95097 6.27148 7.22519 6.27148 7.58105C6.27148 7.93515 6.54745 8.21288 6.90331 8.21288Z" fill="white" fill-opacity="0.85"/>
  <path d="M4.21972 11.5422C4.72753 11.5422 5.12968 11.132 5.12968 10.6322C5.12968 10.1244 4.72753 9.72402 4.21972 9.72402C3.72792 9.72402 3.308 10.1342 3.308 10.6322C3.308 11.1223 3.72792 11.5422 4.21972 11.5422Z" fill="white" fill-opacity="0.85"/>
  <path d="M6.90331 11.2641L12.8059 11.2641C13.152 11.2641 13.4377 10.9783 13.4377 10.6322C13.4377 10.2861 13.1617 10.0004 12.8059 10.0004L6.90331 10.0004C6.54745 10.0004 6.27148 10.2861 6.27148 10.6322C6.27148 10.9783 6.55722 11.2641 6.90331 11.2641Z" fill="white" fill-opacity="0.85"/>
 </g>
</svg>
