<?xml version="1.0" encoding="UTF-8"?>
<!--Generator: Apple Native CoreSVG 341-->
<!DOCTYPE svg
PUBLIC "-//W3C//DTD SVG 1.1//EN"
       "http://www.w3.org/Graphics/SVG/1.1/DTD/svg11.dtd">
<svg version="1.1" xmlns="http://www.w3.org/2000/svg" xmlns:xlink="http://www.w3.org/1999/xlink" viewBox="0 0 24.6455 17.2016">
 <g>
  <rect height="17.2016" opacity="0" width="24.6455" x="0" y="0"/>
  <path d="M0.911323 17.1838L7.01034 17.1838C7.52987 17.1838 7.93768 16.7699 7.93768 16.2619C7.93768 15.7469 7.53163 15.332 7.01034 15.332L0.911323 15.332C0.399802 15.332 0 15.7521 0 16.2619C0 16.7664 0.40156 17.1838 0.911323 17.1838Z" fill="white" fill-opacity="0.85"/>
  <path d="M0.911323 12.0764L7.01034 12.0764C7.52987 12.0764 7.93768 11.6625 7.93768 11.1545C7.93768 10.6314 7.53163 10.2246 7.01034 10.2246L0.911323 10.2246C0.399802 10.2246 0 10.635 0 11.1545C0 11.6572 0.40156 12.0764 0.911323 12.0764Z" fill="white" fill-opacity="0.85"/>
  <path d="M0.911323 6.96718L7.01034 6.96718C7.52987 6.96718 7.93768 6.5453 7.93768 6.0373C7.93768 5.52402 7.53163 5.11543 7.01034 5.11543L0.911323 5.11543C0.399802 5.11543 0 5.52754 0 6.0373C0 6.54179 0.40156 6.96718 0.911323 6.96718Z" fill="white" fill-opacity="0.85"/>
  <path d="M0.911323 1.85175L19.2092 1.85175C19.7207 1.85175 20.1365 1.43788 20.1365 0.929877C20.1365 0.414841 19.7224 0 19.2092 0L0.911323 0C0.399802 0 0 0.420114 0 0.929877C0 1.43437 0.40156 1.85175 0.911323 1.85175Z" fill="white" fill-opacity="0.85"/>
  <path d="M11.2353 16.9984L22.833 16.9984C23.7156 16.9984 24.2842 16.4361 24.2842 15.5633L24.2842 6.59219C24.2842 5.73359 23.7156 5.16504 22.833 5.16504L11.2353 5.16504C10.351 5.16504 9.78241 5.73359 9.78241 6.59219L9.78241 15.5633C9.78241 16.4361 10.351 16.9984 11.2353 16.9984ZM11.2607 8.10742C11.0742 8.10742 10.9472 7.97597 10.9472 7.79394L10.9472 6.70742C10.9472 6.51738 11.0742 6.38418 11.2607 6.38418L12.198 6.38418C12.3943 6.38418 12.5213 6.51738 12.5213 6.70742L12.5213 7.79394C12.5213 7.97597 12.3943 8.10742 12.198 8.10742ZM11.2607 10.6588C11.0742 10.6588 10.9472 10.5256 10.9472 10.3613L10.9472 9.26679C10.9472 9.07851 11.0742 8.94355 11.2607 8.94355L12.198 8.94355C12.3943 8.94355 12.5213 9.07851 12.5213 9.26679L12.5213 10.3613C12.5213 10.5256 12.3943 10.6588 12.198 10.6588ZM11.2607 13.2066C11.0742 13.2066 10.9472 13.0814 10.9472 12.9092L10.9472 11.8146C10.9472 11.6246 11.0742 11.4932 11.2607 11.4932L12.198 11.4932C12.3943 11.4932 12.5213 11.6246 12.5213 11.8146L12.5213 12.9092C12.5213 13.0814 12.3943 13.2066 12.198 13.2066ZM11.2607 15.766C11.0742 15.766 10.9472 15.6426 10.9472 15.4605L10.9472 14.366C10.9472 14.176 11.0742 14.0428 11.2607 14.0428L12.198 14.0428C12.3943 14.0428 12.5213 14.176 12.5213 14.366L12.5213 15.4605C12.5213 15.6426 12.3943 15.766 12.198 15.766ZM21.8685 8.10742C21.6722 8.10742 21.547 7.97597 21.547 7.79394L21.547 6.70742C21.547 6.51738 21.6722 6.38418 21.8685 6.38418L22.8058 6.38418C22.9941 6.38418 23.1193 6.51738 23.1193 6.70742L23.1193 7.79394C23.1193 7.97597 22.9941 8.10742 22.8058 8.10742ZM21.8685 10.6588C21.6722 10.6588 21.547 10.5256 21.547 10.3613L21.547 9.26679C21.547 9.07851 21.6722 8.94355 21.8685 8.94355L22.8058 8.94355C22.9941 8.94355 23.1193 9.07851 23.1193 9.26679L23.1193 10.3613C23.1193 10.5256 22.9941 10.6588 22.8058 10.6588ZM21.8685 13.2066C21.6722 13.2066 21.547 13.0814 21.547 12.9092L21.547 11.8146C21.547 11.6246 21.6722 11.4932 21.8685 11.4932L22.8058 11.4932C22.9941 11.4932 23.1193 11.6246 23.1193 11.8146L23.1193 12.9092C23.1193 13.0814 22.9941 13.2066 22.8058 13.2066ZM21.8685 15.766C21.6722 15.766 21.547 15.6426 21.547 15.4605L21.547 14.366C21.547 14.176 21.6722 14.0428 21.8685 14.0428L22.8058 14.0428C22.9941 14.0428 23.1193 14.176 23.1193 14.366L23.1193 15.4605C23.1193 15.6426 22.9941 15.766 22.8058 15.766ZM13.9367 15.4387C13.7388 15.4387 13.6076 15.3057 13.6076 15.1016L13.6076 12.209C13.6076 11.9951 13.7388 11.8639 13.9367 11.8639L20.1334 11.8639C20.3312 11.8639 20.4625 11.9951 20.4625 12.209L20.4625 15.1016C20.4625 15.3057 20.3312 15.4387 20.1334 15.4387ZM13.9367 10.3059C13.7388 10.3059 13.6076 10.1729 13.6076 9.96699L13.6076 7.05215C13.6076 6.84629 13.7388 6.71328 13.9367 6.71328L20.1334 6.71328C20.3312 6.71328 20.4625 6.84629 20.4625 7.05215L20.4625 9.96699C20.4625 10.1729 20.3312 10.3059 20.1334 10.3059Z" fill="white" fill-opacity="0.85"/>
 </g>
</svg>
