<?xml version="1.0" encoding="UTF-8"?>
<!--Generator: Apple Native CoreSVG 341-->
<!DOCTYPE svg
PUBLIC "-//W3C//DTD SVG 1.1//EN"
       "http://www.w3.org/Graphics/SVG/1.1/DTD/svg11.dtd">
<svg version="1.1" xmlns="http://www.w3.org/2000/svg" xmlns:xlink="http://www.w3.org/1999/xlink" viewBox="0 0 17.107 21.1441">
 <g>
  <rect height="21.1441" opacity="0" width="17.107" x="0" y="0"/>
  <path d="M16.7457 3.20527L16.7457 17.9406C16.7457 20.0502 15.6678 21.1379 13.5742 21.1379L3.17148 21.1379C1.07968 21.1379 0 20.0502 0 17.9406L0 3.20527C0 1.10371 1.07968 0 3.17148 0L13.5742 0C15.6678 0 16.7457 1.10371 16.7457 3.20527ZM3.07616 10.7492C3.07616 11.2525 3.50937 11.6973 4.02421 11.6973C4.54706 11.6973 4.97226 11.2641 4.97226 10.7492C4.97226 10.2184 4.54706 9.80293 4.02421 9.80293C3.50937 9.80293 3.07616 10.2281 3.07616 10.7492ZM6.89062 10.0811C6.51523 10.0811 6.22421 10.3801 6.22421 10.7492C6.22421 11.1086 6.52499 11.4076 6.89062 11.4076L13.0111 11.4076C13.3705 11.4076 13.6695 11.1086 13.6695 10.7492C13.6695 10.3801 13.3803 10.0811 13.0111 10.0811ZM3.07616 7.58105C3.07616 8.09589 3.4996 8.52558 4.02421 8.52558C4.54706 8.52558 4.97226 8.09589 4.97226 7.58105C4.97226 7.05019 4.54882 6.64277 4.02421 6.64277C3.4996 6.64277 3.07616 7.0582 3.07616 7.58105ZM6.89062 6.91464C6.51523 6.91464 6.22421 7.20214 6.22421 7.58105C6.22421 7.94667 6.51523 8.23945 6.89062 8.23945L13.0111 8.23945C13.3803 8.23945 13.6695 7.94667 13.6695 7.58105C13.6695 7.20214 13.3803 6.91464 13.0111 6.91464ZM3.07616 4.5496C3.07616 5.07069 3.50937 5.49765 4.02421 5.49765C4.54706 5.49765 4.97226 5.0787 4.97226 4.5496C4.97226 4.03476 4.54706 3.60155 4.02421 3.60155C3.50937 3.60155 3.07616 4.04277 3.07616 4.5496ZM6.89062 3.88945C6.52323 3.88945 6.22421 4.19023 6.22421 4.5496C6.22421 4.92675 6.52499 5.22577 6.89062 5.22577L13.0111 5.22577C13.3705 5.22577 13.6695 4.92675 13.6695 4.5496C13.6695 4.19023 13.3723 3.88945 13.0111 3.88945Z" fill="white" fill-opacity="0.85"/>
 </g>
</svg>
