<?xml version="1.0" encoding="UTF-8"?>
<!--Generator: Apple Native CoreSVG 341-->
<!DOCTYPE svg
PUBLIC "-//W3C//DTD SVG 1.1//EN"
       "http://www.w3.org/Graphics/SVG/1.1/DTD/svg11.dtd">
<svg version="1.1" xmlns="http://www.w3.org/2000/svg" xmlns:xlink="http://www.w3.org/1999/xlink" viewBox="0 0 17.0754 27.3137">
 <g>
  <rect height="27.3137" opacity="0" width="17.0754" x="0" y="0"/>
  <path d="M16.7141 7.01875L16.7141 21.7936C16.7141 23.9006 15.6133 25.0111 13.5373 25.0111L3.17499 25.0111C1.09902 25.0111 0 23.9006 0 21.7936L0 7.01875C0 4.91172 1.09902 3.80117 3.17499 3.80117L3.28753 3.80117C3.26563 3.9285 3.25527 4.06198 3.25527 4.2L3.25527 5.22539C3.25527 5.38093 3.26867 5.53083 3.29466 5.67401L3.25839 5.67401C2.34647 5.67401 1.87284 6.17167 1.87284 7.03828L1.87284 21.774C1.87284 22.6486 2.34647 23.1383 3.25839 23.1383L13.4557 23.1383C14.3658 23.1383 14.8412 22.6486 14.8412 21.774L14.8412 7.03828C14.8412 6.17167 14.3658 5.67401 13.4557 5.67401L13.4177 5.67401C13.4436 5.53083 13.457 5.38093 13.457 5.22539L13.457 4.2C13.457 4.06198 13.4467 3.92849 13.4248 3.80117L13.5373 3.80117C15.6133 3.80117 16.7141 4.91172 16.7141 7.01875Z" fill="white" fill-opacity="0.85"/>
  <path d="M5.34648 6.22734L11.3658 6.22734C11.9533 6.22734 12.3074 5.85195 12.3074 5.22539L12.3074 4.2C12.3074 3.57168 11.9533 3.19804 11.3658 3.19804L10.5377 3.19804C10.4641 2.06289 9.52148 1.14336 8.35703 1.14336C7.19257 1.14336 6.25 2.06289 6.17636 3.19804L5.34648 3.19804C4.76074 3.19804 4.40664 3.57168 4.40664 4.2L4.40664 5.22539C4.40664 5.85195 4.76074 6.22734 5.34648 6.22734ZM8.35703 4.13984C7.88124 4.13984 7.49511 3.74394 7.49511 3.27968C7.49511 2.79765 7.88124 2.41152 8.35703 2.41152C8.83281 2.41152 9.21718 2.79765 9.21718 3.27968C9.21718 3.74394 8.83281 4.13984 8.35703 4.13984Z" fill="white" fill-opacity="0.85"/>
  <path d="M4.21034 11.7381L12.5055 11.7381C12.8814 11.7381 13.198 11.4277 13.198 11.0518C13.198 10.674 12.8814 10.3574 12.5055 10.3574L4.21034 10.3574C3.83436 10.3574 3.51601 10.674 3.51601 11.0518C3.51601 11.4277 3.83436 11.7381 4.21034 11.7381ZM4.21034 15.1943L12.5055 15.1943C12.8912 15.1943 13.198 14.8875 13.198 14.5018C13.198 14.124 12.8895 13.8252 12.5055 13.8252L4.21034 13.8252C3.82636 13.8252 3.51601 14.124 3.51601 14.5018C3.51601 14.8875 3.82284 15.1943 4.21034 15.1943ZM4.21034 18.8379L8.45839 18.8379C8.83436 18.8379 9.14471 18.5293 9.14471 18.1516C9.14471 17.7756 8.84413 17.4687 8.45839 17.4687L4.21034 17.4687C3.82636 17.4687 3.51601 17.7756 3.51601 18.1516C3.51601 18.5293 3.83436 18.8379 4.21034 18.8379Z" fill="white" fill-opacity="0.85"/>
 </g>
</svg>
