<?xml version="1.0" encoding="UTF-8"?>
<!--Generator: Apple Native CoreSVG 341-->
<!DOCTYPE svg
PUBLIC "-//W3C//DTD SVG 1.1//EN"
       "http://www.w3.org/Graphics/SVG/1.1/DTD/svg11.dtd">
<svg version="1.1" xmlns="http://www.w3.org/2000/svg" xmlns:xlink="http://www.w3.org/1999/xlink" viewBox="0 0 17.0754 27.3137">
 <g>
  <rect height="27.3137" opacity="0" width="17.0754" x="0" y="0"/>
  <path d="M3.25527 4.2L3.25527 5.22539C3.25527 6.48222 4.13046 7.3707 5.34648 7.3707L11.3658 7.3707C12.5836 7.3707 13.457 6.48222 13.457 5.22539L13.457 4.2C13.457 4.05913 13.4463 3.923 13.4238 3.79317L13.5373 3.79317C15.6133 3.79317 16.7141 4.90371 16.7141 7.01074L16.7141 21.7936C16.7141 23.9006 15.6133 25.0111 13.5373 25.0111L3.17499 25.0111C1.09902 25.0111 0 23.9006 0 21.7936L0 7.01074C0 4.90371 1.09902 3.79317 3.17499 3.79317L3.2886 3.79317C3.26606 3.923 3.25527 4.05913 3.25527 4.2ZM3.26718 18.7615C3.26718 19.2654 3.68417 19.6824 4.18808 19.6824C4.69374 19.6824 5.10897 19.2752 5.10897 18.7615C5.10897 18.2559 4.69374 17.8406 4.18808 17.8406C3.68417 17.8406 3.26718 18.2656 3.26718 18.7615ZM6.95897 18.0557C6.5537 18.0557 6.23534 18.3723 6.23534 18.7615C6.23534 19.1508 6.56171 19.4807 6.95897 19.4807L12.7357 19.4807C13.125 19.4807 13.4469 19.1508 13.4469 18.7615C13.4469 18.3723 13.133 18.0557 12.7357 18.0557ZM3.26718 14.985C3.26718 15.4924 3.67441 15.9058 4.18808 15.9058C4.69374 15.9058 5.10897 15.4924 5.10897 14.985C5.10897 14.473 4.69022 14.0773 4.18808 14.0773C3.67616 14.0773 3.26718 14.4828 3.26718 14.985ZM6.95897 14.2791C6.5537 14.2791 6.23534 14.5877 6.23534 14.985C6.23534 15.384 6.55194 15.7041 6.95897 15.7041L12.7357 15.7041C13.1348 15.7041 13.4469 15.384 13.4469 14.985C13.4469 14.5877 13.133 14.2791 12.7357 14.2791ZM3.26718 11.4152C3.26718 11.9094 3.68417 12.3344 4.18808 12.3344C4.69374 12.3344 5.10897 11.9191 5.10897 11.4152C5.10897 10.9016 4.69374 10.4943 4.18808 10.4943C3.68417 10.4943 3.26718 10.9113 3.26718 11.4152ZM6.95897 10.6881C6.56171 10.6881 6.23534 11.026 6.23534 11.4152C6.23534 11.8027 6.56171 12.1228 6.95897 12.1228L12.7357 12.1228C13.125 12.1228 13.4469 11.8027 13.4469 11.4152C13.4469 11.026 13.125 10.6881 12.7357 10.6881Z" fill="white" fill-opacity="0.85"/>
  <path d="M10.5377 3.19804L11.3658 3.19804C11.9533 3.19804 12.3074 3.57168 12.3074 4.2L12.3074 5.22539C12.3074 5.85195 11.9533 6.22734 11.3658 6.22734L5.34648 6.22734C4.76074 6.22734 4.40664 5.85195 4.40664 5.22539L4.40664 4.2C4.40664 3.57168 4.76074 3.19804 5.34648 3.19804L6.17636 3.19804C6.25 2.06289 7.19257 1.14336 8.35703 1.14336C9.52148 1.14336 10.4641 2.06289 10.5377 3.19804ZM7.49511 3.27968C7.49511 3.74394 7.88124 4.13984 8.35703 4.13984C8.83281 4.13984 9.21718 3.74394 9.21718 3.27968C9.21718 2.79765 8.83281 2.41152 8.35703 2.41152C7.88124 2.41152 7.49511 2.79765 7.49511 3.27968Z" fill="white" fill-opacity="0.85"/>
 </g>
</svg>
