<?xml version="1.0" encoding="UTF-8"?>
<!--Generator: Apple Native CoreSVG 341-->
<!DOCTYPE svg
PUBLIC "-//W3C//DTD SVG 1.1//EN"
       "http://www.w3.org/Graphics/SVG/1.1/DTD/svg11.dtd">
<svg version="1.1" xmlns="http://www.w3.org/2000/svg" xmlns:xlink="http://www.w3.org/1999/xlink" viewBox="0 0 20.4978 17.023">
 <g>
  <rect height="17.023" opacity="0" width="20.4978" x="0" y="0"/>
  <path d="M6.6201 15.4361L19.2092 15.4361C19.7207 15.4361 20.1365 15.0223 20.1365 14.5143C20.1365 13.9912 19.7224 13.5844 19.2092 13.5844L6.6201 13.5844C6.10057 13.5844 5.70077 13.9965 5.70077 14.5143C5.70077 15.017 6.10233 15.4361 6.6201 15.4361Z" fill="white" fill-opacity="0.85"/>
  <path d="M1.75996 16.7135C2.96777 16.7135 3.6707 16.1853 3.6707 15.3439C3.6707 14.7945 3.28906 14.4199 2.60293 14.3596L2.60293 14.3285C3.09121 14.2389 3.49589 13.898 3.49589 13.3211C3.49589 12.5525 2.7416 12.1389 1.75195 12.1389C0.974413 12.1389 0.112695 12.4967 0.112695 13.1693C0.112695 13.4551 0.316796 13.6592 0.640624 13.6592C0.860741 13.6592 0.96367 13.5713 1.10566 13.4266C1.33906 13.1859 1.5166 13.1113 1.75195 13.1113C2.04414 13.1113 2.26699 13.249 2.26699 13.535C2.26699 13.7996 2.0414 13.9363 1.65332 13.9363L1.53711 13.9363C1.2584 13.9363 1.07734 14.0818 1.07734 14.3791C1.07734 14.6586 1.24863 14.8201 1.53711 14.8201L1.66933 14.8201C2.09121 14.8201 2.31855 14.9631 2.32031 15.2553C2.32207 15.5101 2.08144 15.6967 1.75996 15.6967C1.4164 15.6967 1.16875 15.4943 0.983201 15.3211C0.864256 15.2189 0.761327 15.1373 0.568749 15.1373C0.236914 15.1373 0 15.3334 0 15.6555C0 16.3398 0.935546 16.7135 1.75996 16.7135Z" fill="white" fill-opacity="0.85"/>
  <path d="M6.6201 9.44452L19.2092 9.44452C19.7207 9.44452 20.1365 9.02265 20.1365 8.51464C20.1365 7.99961 19.7224 7.59278 19.2092 7.59278L6.6201 7.59278C6.10057 7.59278 5.70077 8.00488 5.70077 8.51464C5.70077 9.01913 6.10233 9.44452 6.6201 9.44452Z" fill="white" fill-opacity="0.85"/>
  <path d="M0.584764 10.5521L3.14375 10.5521C3.42851 10.5521 3.64765 10.3596 3.64765 10.0633C3.64765 9.75624 3.43652 9.56015 3.14375 9.56015L1.76836 9.56015L1.76836 9.5291L2.56211 8.89511C3.22793 8.35351 3.51093 8.04101 3.51093 7.44375C3.51093 6.63964 2.83203 6.10351 1.74043 6.10351C0.778319 6.10351 0.0886714 6.59355 0.0886714 7.2291C0.0886714 7.55566 0.302538 7.73222 0.652147 7.73222C0.88203 7.73222 1.03554 7.66035 1.18808 7.43574C1.33359 7.21191 1.50058 7.09374 1.76172 7.09374C2.03437 7.09374 2.23418 7.2705 2.23418 7.53867C2.23418 7.76777 2.11348 7.96406 1.6039 8.36796L0.312304 9.42792C0.108203 9.59121 0.0248045 9.77578 0.0248045 10.0064C0.0248045 10.325 0.246679 10.5521 0.584764 10.5521Z" fill="white" fill-opacity="0.85"/>
  <path d="M6.6201 3.44492L19.2092 3.44492C19.7207 3.44492 20.1365 3.03105 20.1365 2.52305C20.1365 2.00176 19.7224 1.59317 19.2092 1.59317L6.6201 1.59317C6.10057 1.59317 5.70077 2.00528 5.70077 2.52305C5.70077 3.02754 6.10233 3.44492 6.6201 3.44492Z" fill="white" fill-opacity="0.85"/>
  <path d="M2.18515 4.58261C2.57734 4.58261 2.85507 4.35898 2.85507 3.88613L2.85507 0.708983C2.85507 0.275976 2.54453 0 2.09199 0C1.73613 0 1.50898 0.120703 1.24727 0.295507L0.553906 0.770507C0.348047 0.910742 0.242383 1.04297 0.242383 1.26035C0.242383 1.53183 0.444726 1.71816 0.68164 1.71465C0.810351 1.71289 0.87246 1.69511 1.04551 1.57793L1.48066 1.28398L1.50371 1.28398L1.50371 3.88613C1.50371 4.35898 1.77344 4.58261 2.18515 4.58261Z" fill="white" fill-opacity="0.85"/>
 </g>
</svg>
