<?xml version="1.0" encoding="UTF-8"?>
<!--Generator: Apple Native CoreSVG 341-->
<!DOCTYPE svg
PUBLIC "-//W3C//DTD SVG 1.1//EN"
       "http://www.w3.org/Graphics/SVG/1.1/DTD/svg11.dtd">
<svg version="1.1" xmlns="http://www.w3.org/2000/svg" xmlns:xlink="http://www.w3.org/1999/xlink" viewBox="0 0 23.5768 17.8687">
 <g>
  <rect height="17.8687" opacity="0" width="23.5768" x="0" y="0"/>
  <path d="M23.2154 7.46757L23.2154 10.3949C23.2154 15.776 21.2053 17.8545 15.485 17.8545L7.73047 17.8545C2.01191 17.8545 0 15.776 0 10.3949L0 7.46757C0 2.08652 2.01191 0 7.73047 0L15.485 0C21.2053 0 23.2154 2.08652 23.2154 7.46757ZM15.4373 5.65819L14.1809 10.8748L14.1391 10.8748L12.8728 5.65819C12.7281 5.04784 12.368 4.76991 11.7779 4.76991C11.0992 4.76991 10.6715 5.1746 10.6715 5.86308L10.6715 12.3748C10.6715 12.8309 10.9387 13.1184 11.3725 13.1184C11.8045 13.1184 12.0672 12.8309 12.0672 12.3748L12.0672 7.17362L12.1258 7.17362L13.3928 12.2611C13.4939 12.6781 13.7434 12.9684 14.1684 12.9684C14.6023 12.9684 14.8312 12.6932 14.9422 12.2514L16.2074 7.17362L16.2545 7.17362L16.2545 12.3748C16.2545 12.8309 16.5074 13.1184 16.9492 13.1184C17.407 13.1184 17.6537 12.8309 17.6537 12.3748L17.6537 5.86308C17.6537 5.16034 17.2305 4.76991 16.5437 4.76991C15.9307 4.76991 15.574 5.05839 15.4373 5.65819ZM5.44453 5.5498L5.44453 12.1672C5.44453 12.6773 5.72402 12.9834 6.22617 12.9834L9.01133 12.9834C9.36445 12.9834 9.66523 12.6906 9.66523 12.3232C9.66523 11.9684 9.36445 11.6756 9.01133 11.6756L7.01933 11.6756L7.01933 5.5498C7.01933 5.11952 6.65644 4.76816 6.23593 4.76816C5.80742 4.76816 5.44453 5.11952 5.44453 5.5498Z" fill="white" fill-opacity="0.85"/>
 </g>
</svg>
