<?xml version="1.0" encoding="UTF-8"?>
<!--Generator: Apple Native CoreSVG 341-->
<!DOCTYPE svg
PUBLIC "-//W3C//DTD SVG 1.1//EN"
       "http://www.w3.org/Graphics/SVG/1.1/DTD/svg11.dtd">
<svg version="1.1" xmlns="http://www.w3.org/2000/svg" xmlns:xlink="http://www.w3.org/1999/xlink" viewBox="0 0 14.0685 25.4168">
 <g>
  <rect height="25.4168" opacity="0" width="14.0685" x="0" y="0"/>
  <path d="M1.33359 24.2775C1.84179 24.2775 2.37304 23.9822 2.81014 23.5594L6.59609 19.9381C6.69823 19.8324 6.7746 19.7853 6.85448 19.7853C6.93437 19.7853 7.00898 19.8324 7.11113 19.9381L10.8988 23.5594C11.3342 23.9822 11.8592 24.2775 12.3754 24.2775C13.1326 24.2775 13.7072 23.6201 13.7072 22.8568C13.7072 22.424 13.5492 21.9486 13.3178 21.3525L8.42889 8.92772C8.04061 7.96385 7.54471 7.49003 6.85448 7.49003C6.16426 7.49003 5.67012 7.95507 5.28008 8.92772L0.389452 21.3525C0.158008 21.9486 0 22.424 0 22.8568C0 23.6201 0.566599 24.2775 1.33359 24.2775ZM2.26443 21.5826C2.23162 21.5453 2.22537 21.501 2.2449 21.4361L6.70976 10.0961C6.73905 10.0144 6.78437 9.9531 6.85448 9.9531C6.93085 9.9531 6.96015 10.0224 6.99921 10.0961L11.4623 21.4361C11.4818 21.501 11.4818 21.5516 11.4445 21.5826C11.4215 21.5977 11.3789 21.6147 11.3221 21.5596L7.65487 18.2353C7.35058 17.9488 7.11796 17.7936 6.85448 17.7936C6.58925 17.7936 6.35663 17.9488 6.05234 18.2353L2.38689 21.5596C2.35408 21.5906 2.29549 21.6199 2.26443 21.5826ZM6.85448 6.06601C7.39706 6.06601 7.75878 5.68828 7.75878 5.10391L7.75878 0.952339C7.75878 0.369725 7.39706 0 6.85448 0C6.31015 0 5.94043 0.369725 5.94043 0.952339L5.94043 5.10391C5.94043 5.68828 6.31015 6.06601 6.85448 6.06601Z" fill="white" fill-opacity="0.85"/>
 </g>
</svg>
