<?xml version="1.0" encoding="UTF-8"?>
<!--Generator: Apple Native CoreSVG 341-->
<!DOCTYPE svg
PUBLIC "-//W3C//DTD SVG 1.1//EN"
       "http://www.w3.org/Graphics/SVG/1.1/DTD/svg11.dtd">
<svg version="1.1" xmlns="http://www.w3.org/2000/svg" xmlns:xlink="http://www.w3.org/1999/xlink" viewBox="0 0 18.573 18.2195">
 <g>
  <rect height="18.2195" opacity="0" width="18.573" x="0" y="0"/>
  <path d="M5.34238 18.2107L12.8631 18.2107C14.5801 18.2107 15.9232 17.7092 16.8109 16.818C17.7262 15.9143 18.2117 14.5693 18.2117 12.8621L18.2117 5.35039C18.2117 3.64141 17.7262 2.29824 16.8109 1.39277C15.9152 0.495312 14.5801 0 12.8631 0L5.34238 0C3.6334 0 2.28047 0.50332 1.39277 1.39277C0.485547 2.29824 0 3.64141 0 5.35039L0 12.8621C0 14.5693 0.477539 15.9143 1.39277 16.818C2.28848 17.7172 3.6334 18.2107 5.34238 18.2107ZM5.39863 16.2975C4.2457 16.2975 3.36347 15.9943 2.79393 15.4248C2.20839 14.849 1.91327 13.9766 1.91327 12.8041L1.91327 5.40664C1.91327 4.23593 2.20839 3.36347 2.79393 2.78593C3.3537 2.22616 4.2457 1.91327 5.39863 1.91327L12.8051 1.91327C13.9678 1.91327 14.842 2.21815 15.4178 2.78593C16.0033 3.36347 16.2984 4.23593 16.2984 5.40664L16.2984 12.8041C16.2984 13.9766 16.0033 14.849 15.4178 15.4248C14.85 15.9863 13.9678 16.2975 12.8051 16.2975Z" fill="white" fill-opacity="0.85"/>
  <path d="M4.23261 9.70175L8.13281 9.70976C8.32363 9.70976 8.4541 9.83222 8.4541 10.0311L8.4541 13.8912C8.4541 14.7797 9.43359 14.9396 9.78026 14.2074L13.9193 5.33378C14.2885 4.53788 13.5859 3.8371 12.7838 4.21249L3.9244 8.38359C3.18417 8.73203 3.36015 9.70175 4.23261 9.70175Z" fill="white" fill-opacity="0.85"/>
 </g>
</svg>
