<?xml version="1.0" encoding="UTF-8"?>
<!--Generator: Apple Native CoreSVG 341-->
<!DOCTYPE svg
PUBLIC "-//W3C//DTD SVG 1.1//EN"
       "http://www.w3.org/Graphics/SVG/1.1/DTD/svg11.dtd">
<svg version="1.1" xmlns="http://www.w3.org/2000/svg" xmlns:xlink="http://www.w3.org/1999/xlink" viewBox="0 0 16.2457 21.2863">
 <g>
  <rect height="21.2863" opacity="0" width="16.2457" x="0" y="0"/>
  <path d="M1.22617 20.7097C1.77148 20.7097 2.16229 20.4672 2.74451 19.893L7.80331 14.8742C7.8539 14.8236 7.89472 14.7846 7.9453 14.7846C7.98964 14.7846 8.03847 14.8236 8.08905 14.8742L13.1398 19.893C13.7301 20.4672 14.1129 20.7097 14.6582 20.7097C15.3943 20.7097 15.8844 20.1474 15.8844 19.3744C15.8844 18.9594 15.7326 18.4777 15.5562 17.9982L9.46326 1.43105C9.11737 0.483785 8.6162 0 7.9453 0C7.26816 0 6.775 0.482028 6.4291 1.43105L0.328124 17.9982C0.159765 18.4777 0 18.9594 0 19.3744C0 20.1474 0.490035 20.7097 1.22617 20.7097Z" fill="white" fill-opacity="0.85"/>
 </g>
</svg>
