<?xml version="1.0" encoding="UTF-8"?>
<!--Generator: Apple Native CoreSVG 341-->
<!DOCTYPE svg
PUBLIC "-//W3C//DTD SVG 1.1//EN"
       "http://www.w3.org/Graphics/SVG/1.1/DTD/svg11.dtd">
<svg version="1.1" xmlns="http://www.w3.org/2000/svg" xmlns:xlink="http://www.w3.org/1999/xlink" viewBox="0 0 20.5381 20.1848">
 <g>
  <rect height="20.1848" opacity="0" width="20.5381" x="0" y="0"/>
  <path d="M20.1767 10.0973C20.1767 15.6656 15.6576 20.1848 10.0875 20.1848C4.52715 20.1848 0 15.6656 0 10.0973C0 4.53691 4.52715 0.00976562 10.0875 0.00976562C15.6576 0.00976562 20.1767 4.53691 20.1767 10.0973ZM9.28125 4.71737L5.51581 14.2998C5.20468 15.0754 6.03983 15.6488 6.70175 14.9949L9.83007 11.8666C9.98808 11.7006 10.1887 11.7006 10.3449 11.8666L13.475 14.9949C14.1271 15.6488 14.9623 15.0754 14.6512 14.2998L10.8857 4.70136C10.5859 3.94569 9.58281 3.96347 9.28125 4.71737Z" fill="white" fill-opacity="0.85"/>
 </g>
</svg>
