<?xml version="1.0" encoding="UTF-8"?>
<!--Generator: Apple Native CoreSVG 341-->
<!DOCTYPE svg
PUBLIC "-//W3C//DTD SVG 1.1//EN"
       "http://www.w3.org/Graphics/SVG/1.1/DTD/svg11.dtd">
<svg version="1.1" xmlns="http://www.w3.org/2000/svg" xmlns:xlink="http://www.w3.org/1999/xlink" viewBox="0 0 18.5894 18.2316">
 <g>
  <rect height="18.2316" opacity="0" width="18.5894" x="0" y="0"/>
  <path d="M18.2281 3.17148L18.2281 15.0646C18.2281 17.1502 17.1404 18.2281 15.0246 18.2281L3.20351 18.2281C1.0957 18.2281 0 17.1502 0 15.0646L0 3.17148C0 1.08769 1.0957 0 3.20351 0L15.0246 0C17.1404 0 18.2281 1.08769 18.2281 3.17148ZM12.8289 4.22499L3.63886 8.56191C2.87304 8.91562 3.04628 9.93671 3.95683 9.93671L8.01132 9.93671C8.2039 9.93671 8.33789 10.0787 8.33789 10.2793L8.34589 14.276C8.34589 15.2123 9.36874 15.3775 9.72069 14.6055L14.0176 5.40565C14.4018 4.57167 13.6709 3.83456 12.8289 4.22499Z" fill="white" fill-opacity="0.85"/>
 </g>
</svg>
