<?xml version="1.0" encoding="UTF-8"?>
<!--Generator: Apple Native CoreSVG 341-->
<!DOCTYPE svg
PUBLIC "-//W3C//DTD SVG 1.1//EN"
       "http://www.w3.org/Graphics/SVG/1.1/DTD/svg11.dtd">
<svg version="1.1" xmlns="http://www.w3.org/2000/svg" xmlns:xlink="http://www.w3.org/1999/xlink" viewBox="0 0 20.5381 20.1848">
 <g>
  <rect height="20.1848" opacity="0" width="20.5381" x="0" y="0"/>
  <path d="M20.1767 10.0875C20.1767 15.6559 15.6576 20.175 10.0875 20.175C4.51914 20.175 0 15.6559 0 10.0875C0 4.51914 4.51914 0 10.0875 0C15.6576 0 20.1767 4.51914 20.1767 10.0875ZM1.9871 10.0875C1.9871 14.5666 5.60839 18.1879 10.0875 18.1879C14.5666 18.1879 18.1897 14.5666 18.1897 10.0875C18.1897 5.60839 14.5666 1.9871 10.0875 1.9871C5.60839 1.9871 1.9871 5.60839 1.9871 10.0875Z" fill="white" fill-opacity="0.85"/>
  <path d="M11.4888 13.1597L10.4451 15.3977C10.1082 16.1281 9.12695 15.9682 9.12695 15.0814L9.12695 11.2213C9.12695 11.0225 8.99648 10.9 8.80566 10.9L4.90546 10.892C4.02499 10.892 3.85702 9.92051 4.59901 9.57383L6.84454 8.51544ZM14.5842 6.52225L12.5553 10.8727L9.12164 7.44217L13.4486 5.40273C14.2508 5.02734 14.9613 5.72636 14.5842 6.52225Z" fill="white" fill-opacity="0.85"/>
  <path d="M14.065 14.7355C14.2486 14.9174 14.568 14.9271 14.7516 14.7355C14.9449 14.5439 14.9449 14.2406 14.7516 14.0473L6.14549 5.43319C5.94413 5.23983 5.63905 5.23983 5.44745 5.43319C5.25409 5.62479 5.25409 5.93612 5.44745 6.11971Z" fill="white" fill-opacity="0.85"/>
 </g>
</svg>
