<?xml version="1.0" encoding="UTF-8"?>
<!--Generator: Apple Native CoreSVG 341-->
<!DOCTYPE svg
PUBLIC "-//W3C//DTD SVG 1.1//EN"
       "http://www.w3.org/Graphics/SVG/1.1/DTD/svg11.dtd">
<svg version="1.1" xmlns="http://www.w3.org/2000/svg" xmlns:xlink="http://www.w3.org/1999/xlink" viewBox="0 0 20.5381 20.1848">
 <g>
  <rect height="20.1848" opacity="0" width="20.5381" x="0" y="0"/>
  <path d="M20.1767 10.0875C20.1767 15.6478 15.6576 20.175 10.0875 20.175C4.52715 20.175 0 15.6478 0 10.0875C0 4.51914 4.52715 0 10.0875 0C15.6576 0 20.1767 4.51914 20.1767 10.0875ZM4.41464 9.53047C3.64081 9.89219 3.82382 10.9053 4.73436 10.9053L8.78085 10.9133C8.98144 10.9133 9.11367 11.0473 9.11367 11.2478L9.11367 15.2525C9.11367 16.1809 10.1463 16.3461 10.4982 15.582L11.5618 13.3028L6.70603 8.45133ZM5.2498 5.24355C5.05644 5.44843 5.06269 5.77655 5.2498 5.9619L14.2148 14.9234C14.4002 15.1105 14.7363 15.1186 14.9332 14.9234C15.1266 14.7203 15.1283 14.402 14.9332 14.2068L5.97968 5.24355C5.7828 5.04843 5.45468 5.05019 5.2498 5.24355ZM13.6064 5.20156L9.08607 7.33044L12.6754 10.9166L14.7951 6.37421C15.1775 5.54023 14.4467 4.81113 13.6064 5.20156Z" fill="white" fill-opacity="0.85"/>
 </g>
</svg>
