<?xml version="1.0" encoding="UTF-8"?>
<!--Generator: Apple Native CoreSVG 341-->
<!DOCTYPE svg
PUBLIC "-//W3C//DTD SVG 1.1//EN"
       "http://www.w3.org/Graphics/SVG/1.1/DTD/svg11.dtd">
<svg version="1.1" xmlns="http://www.w3.org/2000/svg" xmlns:xlink="http://www.w3.org/1999/xlink" viewBox="0 0 20.7583 19.0235">
 <g>
  <rect height="19.0235" opacity="0" width="20.7583" x="0" y="0"/>
  <path d="M0.965758 7.54518C-0.578765 8.25455-0.17779 10.3618 1.50873 10.3698L8.56634 10.3938C8.66595 10.3938 8.69174 10.4213 8.69174 10.5209L8.70775 17.5305C8.71576 19.2633 10.8488 19.5842 11.5839 17.9819L18.7779 2.43794C19.5439 0.762363 18.2511-0.438802 16.5835 0.335217ZM3.37862 8.52467C3.33428 8.52467 3.32276 8.48561 3.37686 8.46256L16.5734 2.43227C16.6435 2.40297 16.6798 2.42075 16.6453 2.5059L10.5829 15.6927C10.5697 15.7352 10.5306 15.7237 10.5306 15.6811L10.5741 9.41314C10.5759 8.81119 10.2521 8.48561 9.64212 8.48736Z" fill="white" fill-opacity="0.85"/>
 </g>
</svg>
