<?xml version="1.0" encoding="UTF-8"?>
<!--Generator: Apple Native CoreSVG 341-->
<!DOCTYPE svg
PUBLIC "-//W3C//DTD SVG 1.1//EN"
       "http://www.w3.org/Graphics/SVG/1.1/DTD/svg11.dtd">
<svg version="1.1" xmlns="http://www.w3.org/2000/svg" xmlns:xlink="http://www.w3.org/1999/xlink" viewBox="0 0 17.107 21.1441">
 <g>
  <rect height="21.1441" opacity="0" width="17.107" x="0" y="0"/>
  <path d="M7.62929 7.38066C7.62929 8.60429 8.22324 9.19823 9.44511 9.19823L16.7457 9.19823L16.7457 17.9406C16.7457 20.0422 15.6678 21.1379 13.5742 21.1379L3.17148 21.1379C1.07968 21.1379 0 20.0502 0 17.9406L0 3.20527C0 1.10371 1.08769 0 3.17148 0L7.62929 0ZM6.13886 13.0574L6.13886 13.982C5.67968 14.0219 5.44608 14.3211 5.44608 14.885L5.44608 18.0635C5.44608 18.684 5.7373 18.9832 6.31073 18.9832L10.4598 18.9832C11.0439 18.9832 11.3191 18.684 11.3191 18.0635L11.3191 14.885C11.3191 14.3211 11.0855 14.0201 10.6281 13.9803L10.6281 13.0574C10.6281 11.5568 9.71093 10.5508 8.38261 10.5508C7.05429 10.5508 6.13886 11.5568 6.13886 13.0574ZM9.66035 12.9783L9.66035 13.967L7.10136 13.967L7.10136 12.9783C7.10136 12.0748 7.61054 11.4795 8.38085 11.4795C9.14941 11.4795 9.66035 12.0748 9.66035 12.9783ZM10.4248 0.980467L15.7564 6.39395C16.2639 6.91113 16.5875 7.3334 16.639 7.7707L9.61855 7.7707C9.2414 7.7707 9.05683 7.58613 9.05683 7.21699L9.05683 0.100391C9.50214 0.161719 9.93417 0.483593 10.4248 0.980467Z" fill="white" fill-opacity="0.85"/>
 </g>
</svg>
