<?xml version="1.0" encoding="UTF-8"?>
<!--Generator: Apple Native CoreSVG 341-->
<!DOCTYPE svg
PUBLIC "-//W3C//DTD SVG 1.1//EN"
       "http://www.w3.org/Graphics/SVG/1.1/DTD/svg11.dtd">
<svg version="1.1" xmlns="http://www.w3.org/2000/svg" xmlns:xlink="http://www.w3.org/1999/xlink" viewBox="0 0 27.1668 23.1086">
 <g>
  <rect height="23.1086" opacity="0" width="27.1668" x="0" y="0"/>
  <path d="M20.8043 4.58925L20.8043 4.64101L9.20643 4.64101C6.30546 4.64101 4.58164 6.35683 4.58164 9.23202L4.58164 17.0383L4.27148 17.0383C2.16191 17.0383 1.06621 15.9586 1.06621 13.8668L1.06621 4.58925C1.06621 2.50546 2.16191 1.41777 4.27148 1.41777L17.599 1.41777C19.7086 1.41777 20.8043 2.50546 20.8043 4.58925Z" fill="white" fill-opacity="0.85"/>
  <path d="M25.7392 9.23202L25.7392 18.5078C25.7392 20.5933 24.6435 21.6793 22.5357 21.6793L9.20643 21.6793C7.09686 21.6793 6.00292 20.6013 6.00292 18.5078L6.00292 9.23202C6.00292 7.14823 7.09686 6.06054 9.20643 6.06054L22.5357 6.06054C24.6435 6.06054 25.7392 7.14823 25.7392 9.23202ZM13.0873 11.6281L13.0873 12.764C12.5224 12.8224 12.24 13.1793 12.24 13.8799L12.24 17.8293C12.24 18.6023 12.5826 18.9592 13.2953 18.9592L18.4504 18.9592C19.1693 18.9592 19.5119 18.6023 19.5119 17.8293L19.5119 13.8799C19.5119 13.1793 19.2277 12.8224 18.6566 12.7658L18.6566 11.6281C18.6566 9.76033 17.531 8.50155 15.8711 8.50155C14.2209 8.50155 13.0873 9.76033 13.0873 11.6281ZM17.4613 11.5215L17.4613 12.7437L14.2808 12.7437L14.2808 11.5215C14.2808 10.4031 14.917 9.65779 15.8693 9.65779C16.8314 9.65779 17.4613 10.3996 17.4613 11.5215Z" fill="white" fill-opacity="0.85"/>
 </g>
</svg>
