<?xml version="1.0" encoding="UTF-8"?>
<!--Generator: Apple Native CoreSVG 341-->
<!DOCTYPE svg
PUBLIC "-//W3C//DTD SVG 1.1//EN"
       "http://www.w3.org/Graphics/SVG/1.1/DTD/svg11.dtd">
<svg version="1.1" xmlns="http://www.w3.org/2000/svg" xmlns:xlink="http://www.w3.org/1999/xlink" viewBox="0 0 20.0898 18.8629">
 <g>
  <rect height="18.8629" opacity="0" width="20.0898" x="0" y="0"/>
  <path d="M19.7285 6.68046C19.7285 10.8529 16.2281 14.9728 10.7758 18.4885C10.4766 18.6734 10.1133 18.8629 9.86425 18.8629C9.61347 18.8629 9.25195 18.6734 8.96074 18.4885C3.50039 14.9728 0 10.8529 0 6.68046C0 3.08808 2.48027 0.595703 5.59238 0.595703C7.52831 0.595703 9.00214 1.67422 9.86425 3.27051C10.7424 1.66621 12.1984 0.595703 14.1361 0.595703C17.2482 0.595703 19.7285 3.08808 19.7285 6.68046ZM7.78085 8.11308L7.78085 8.96659C7.35722 9.00995 7.1414 9.26913 7.1414 9.7957L7.1414 12.7631C7.1414 13.3453 7.40234 13.6045 7.93398 13.6045L11.806 13.6045C12.3359 13.6045 12.5969 13.3453 12.5969 12.7631L12.5969 9.7957C12.5969 9.26913 12.381 9.00995 11.9592 8.96835L11.9592 8.11308C11.9592 6.70605 11.1105 5.77128 9.86601 5.77128C8.62949 5.77128 7.78085 6.70605 7.78085 8.11308ZM11.0627 8.03222L11.0627 8.9498L8.67733 8.9498L8.67733 8.03222C8.67733 7.191 9.14999 6.63846 9.86425 6.63846C10.5883 6.63846 11.0627 7.18925 11.0627 8.03222Z" fill="white" fill-opacity="0.85"/>
 </g>
</svg>
