<?xml version="1.0" encoding="UTF-8"?>
<!--Generator: Apple Native CoreSVG 341-->
<!DOCTYPE svg
PUBLIC "-//W3C//DTD SVG 1.1//EN"
       "http://www.w3.org/Graphics/SVG/1.1/DTD/svg11.dtd">
<svg version="1.1" xmlns="http://www.w3.org/2000/svg" xmlns:xlink="http://www.w3.org/1999/xlink" viewBox="0 0 25.0344 20.273">
 <g>
  <rect height="20.273" opacity="0" width="25.0344" x="0" y="0"/>
  <path d="M1.91327 12.2883C1.91327 13.2371 2.40643 13.7072 3.31444 13.7072L4.93496 13.7072L4.93496 15.6205L3.20351 15.6205C1.08769 15.6205 0 14.5408 0 12.449L0 11.1492L1.91327 11.1492ZM1.91327 9.87948L0 9.87948L0 5.74101L1.91327 5.74101ZM19.7283 3.17148L19.7283 4.64277L17.815 4.64277L17.815 3.34023C17.815 2.39139 17.3139 1.91327 16.4059 1.91327L15.2828 1.91327L15.2828 0L16.5248 0C18.6344 0 19.7283 1.08769 19.7283 3.17148ZM4.43749 1.91327L3.31444 1.91327C2.40643 1.91327 1.91327 2.39139 1.91327 3.34023L1.91327 4.46953L0 4.46953L0 3.17148C0 1.08769 1.08769 0 3.20351 0L4.43749 0ZM14.0033 1.91327L10.4959 1.91327L10.4959 0L14.0033 0ZM9.22441 1.91327L5.71074 1.91327L5.71074 0L9.22441 0Z" fill="white" fill-opacity="0.85"/>
  <path d="M8.14022 20.2615L21.4678 20.2615C23.5693 20.2615 24.673 19.1756 24.673 17.09L24.673 7.81425C24.673 5.73046 23.5693 4.64277 21.4678 4.64277L8.14022 4.64277C6.02265 4.64277 4.93496 5.73046 4.93496 7.81425L4.93496 17.09C4.93496 19.1836 6.02265 20.2615 8.14022 20.2615ZM8.25116 18.3482C7.34139 18.3482 6.84822 17.8799 6.84822 16.931L6.84822 7.98299C6.84822 7.03241 7.34139 6.55604 8.25116 6.55604L21.3488 6.55604C22.2506 6.55604 22.7598 7.03241 22.7598 7.98299L22.7598 16.931C22.7598 17.8799 22.2506 18.3482 21.3488 18.3482Z" fill="white" fill-opacity="0.85"/>
  <path d="M12.756 17.0176L16.867 17.0176C17.6182 17.0176 18.0115 16.6242 18.0115 15.8109L18.0115 12.6305C18.0115 11.8269 17.6182 11.4256 16.867 11.4256L12.756 11.4256C12.0014 11.4256 11.608 11.8269 11.608 12.6305L11.608 15.8109C11.608 16.6242 12.0014 17.0176 12.756 17.0176ZM12.4043 12.0982L13.4512 12.0982L13.4512 10.3664C13.4512 9.49315 13.9832 8.93182 14.8146 8.93182C15.6346 8.93182 16.1781 9.49315 16.1781 10.3664L16.1781 12.0982L17.2232 12.0982L17.2232 10.4883C17.2232 8.91034 16.2787 7.89198 14.8146 7.89198C13.3586 7.89198 12.4043 8.91034 12.4043 10.4883Z" fill="white" fill-opacity="0.85"/>
 </g>
</svg>
