<?xml version="1.0" encoding="UTF-8"?>
<!--Generator: Apple Native CoreSVG 341-->
<!DOCTYPE svg
PUBLIC "-//W3C//DTD SVG 1.1//EN"
       "http://www.w3.org/Graphics/SVG/1.1/DTD/svg11.dtd">
<svg version="1.1" xmlns="http://www.w3.org/2000/svg" xmlns:xlink="http://www.w3.org/1999/xlink" viewBox="0 0 20.5996 19.9902">
 <g>
  <rect height="19.9902" opacity="0" width="20.5996" x="0" y="0"/>
  <path d="M2.26054 19.4658L11.4053 19.4658C12.8883 19.4658 13.6658 18.6705 13.6658 17.0695L13.6658 10.1529C13.6658 8.56523 12.8883 7.76992 11.4053 7.76992L2.26054 7.76992C0.775781 7.76992 0 8.56523 0 10.1529L0 17.0695C0 18.6705 0.775781 19.4658 2.26054 19.4658ZM10.1434 8.57383L11.9641 8.57383L11.9641 5.28808C11.9641 2.99491 13.4389 1.74882 15.1859 1.74882C16.9295 1.74882 18.4096 2.99491 18.4096 5.28808L18.4096 7.44551C18.4096 8.07441 18.8147 8.43769 19.3279 8.43769C19.8252 8.43769 20.2383 8.09843 20.2383 7.44551L20.2383 5.46152C20.2383 1.8582 17.8455 0 15.1859 0C12.5184 0 10.1434 1.8582 10.1434 5.46152Z" fill="white" fill-opacity="0.85"/>
 </g>
</svg>
