<?xml version="1.0" encoding="UTF-8"?>
<!--Generator: Apple Native CoreSVG 341-->
<!DOCTYPE svg
PUBLIC "-//W3C//DTD SVG 1.1//EN"
       "http://www.w3.org/Graphics/SVG/1.1/DTD/svg11.dtd">
<svg version="1.1" xmlns="http://www.w3.org/2000/svg" xmlns:xlink="http://www.w3.org/1999/xlink" viewBox="0 0 20.5381 20.1848">
 <g>
  <rect height="20.1848" opacity="0" width="20.5381" x="0" y="0"/>
  <path d="M20.1767 10.0973C20.1767 15.6656 15.6576 20.1848 10.0875 20.1848C4.52715 20.1848 0 15.6656 0 10.0973C0 4.53691 4.52715 0.00976562 10.0875 0.00976562C15.6576 0.00976562 20.1767 4.53691 20.1767 10.0973ZM7.30371 7.85234L7.30371 8.99628C6.73886 9.05292 6.45644 9.40175 6.45644 10.1023L6.45644 14.0598C6.45644 14.8328 6.79902 15.1834 7.51171 15.1834L12.6668 15.1834C13.3777 15.1834 13.7203 14.8328 13.7203 14.0598L13.7203 10.1023C13.7203 9.40175 13.4361 9.05292 12.8748 8.99804L12.8748 7.85234C12.8748 5.98281 11.7492 4.73202 10.0875 4.73202C8.42929 4.73202 7.30371 5.98281 7.30371 7.85234ZM11.6795 7.7457L11.6795 8.97597L8.49726 8.97597L8.49726 7.7457C8.49726 6.63358 9.13339 5.88827 10.0857 5.88827C11.0398 5.88827 11.6795 6.63183 11.6795 7.7457Z" fill="white" fill-opacity="0.85"/>
 </g>
</svg>
