<?xml version="1.0" encoding="UTF-8"?>
<!--Generator: Apple Native CoreSVG 341-->
<!DOCTYPE svg
PUBLIC "-//W3C//DTD SVG 1.1//EN"
       "http://www.w3.org/Graphics/SVG/1.1/DTD/svg11.dtd">
<svg version="1.1" xmlns="http://www.w3.org/2000/svg" xmlns:xlink="http://www.w3.org/1999/xlink" viewBox="0 0 23.4906 18.2476">
 <g>
  <rect height="18.2476" opacity="0" width="23.4906" x="0" y="0"/>
  <path d="M0 5.20469L1.91327 5.20469L1.91327 3.34999C1.91327 2.40116 2.40643 1.9328 3.31444 1.9328L5.15312 1.9328L5.15312 0.0195312L3.20351 0.0195312C1.0957 0.0195312 0 1.09746 0 3.19101ZM0 11.6332L1.91327 11.6332L1.91327 6.63222L0 6.63222ZM3.20351 18.2476L5.15312 18.2476L5.15312 16.3344L3.31444 16.3344C2.40643 16.3344 1.91327 15.8643 1.91327 14.9154L1.91327 13.0607L0 13.0607L0 15.0762C0 17.168 1.0957 18.2476 3.20351 18.2476ZM6.58066 18.2476L10.8549 18.2476L10.8549 16.3344L6.58066 16.3344ZM12.2744 18.2476L16.5486 18.2476L16.5486 16.3344L12.2744 16.3344ZM19.9258 18.2476C22.0336 18.2476 23.1293 17.168 23.1293 15.0762L23.1293 13.0607L21.216 13.0607L21.216 14.9154C21.216 15.8643 20.7229 16.3344 19.8148 16.3344L17.9762 16.3344L17.9762 18.2476ZM23.1293 5.20469L23.1293 3.19101C23.1293 1.09746 22.0336 0.0195312 19.9258 0.0195312L17.9762 0.0195312L17.9762 1.9328L19.8148 1.9328C20.7229 1.9328 21.216 2.40116 21.216 3.34999L21.216 5.20469ZM23.1293 11.6332L23.1293 6.63222L21.216 6.63222L21.216 11.6332ZM6.58066 1.9328L10.8549 1.9328L10.8549 0.0195312L6.58066 0.0195312ZM12.2744 1.9328L16.5486 1.9328L16.5486 0.0195312L12.2744 0.0195312Z" fill="white" fill-opacity="0.85"/>
  <path d="M8.06738 12.9086C8.06738 13.6516 8.39668 13.9986 9.09082 13.9986L14.058 13.9986C14.7424 13.9986 15.0734 13.6516 15.0734 12.9086L15.0734 9.10097C15.0734 8.43495 14.799 8.09765 14.251 8.04453L14.251 6.93339C14.251 5.13827 13.1715 3.93359 11.5744 3.93359C9.97734 3.93359 8.89785 5.13827 8.89785 6.93339L8.89785 8.04101C8.34004 8.09765 8.06738 8.43495 8.06738 9.10097ZM10.0383 8.02246L10.0383 6.83476C10.0383 5.75722 10.6434 5.04296 11.5744 5.04296C12.4975 5.04296 13.1105 5.75546 13.1105 6.83476L13.1105 8.02246Z" fill="white" fill-opacity="0.85"/>
 </g>
</svg>
