<?xml version="1.0" encoding="UTF-8"?>
<!--Generator: Apple Native CoreSVG 341-->
<!DOCTYPE svg
PUBLIC "-//W3C//DTD SVG 1.1//EN"
       "http://www.w3.org/Graphics/SVG/1.1/DTD/svg11.dtd">
<svg version="1.1" xmlns="http://www.w3.org/2000/svg" xmlns:xlink="http://www.w3.org/1999/xlink" viewBox="0 0 16.584 19.8398">
 <g>
  <rect height="19.8398" opacity="0" width="16.584" x="0" y="0"/>
  <path d="M9.11698 0.462304C10.1637 0.816016 13.7562 2.09317 14.8285 2.53379C15.7859 2.93535 16.2226 3.34375 16.2226 4.47968L16.2226 11.7463C16.2226 15.2504 14.381 16.7635 8.78574 19.6455C8.53808 19.7725 8.28339 19.8398 8.11132 19.8398C7.94101 19.8398 7.69257 19.7805 7.43691 19.6455C1.92519 16.6238 0 15.2504 0 11.7463L0 4.47968C0 3.34375 0.446484 2.92559 1.39589 2.53379C2.46816 2.10117 6.05898 0.8 7.11367 0.462304C7.42734 0.368359 7.78691 0.299219 8.11132 0.299219C8.43749 0.299219 8.79706 0.360351 9.11698 0.462304ZM5.3373 7.4L5.3373 8.53594C4.77246 8.59258 4.48828 8.94941 4.48828 9.65L4.48828 13.5994C4.48828 14.3725 4.83085 14.7311 5.54355 14.7311L10.7004 14.7311C11.4096 14.7311 11.7521 14.3725 11.7521 13.5994L11.7521 9.65C11.7521 8.94941 11.4697 8.59258 10.9066 8.53769L10.9066 7.4C10.9066 5.53047 9.78105 4.27168 8.12109 4.27168C6.46289 4.27168 5.3373 5.53047 5.3373 7.4ZM9.71133 7.29336L9.71133 8.51387L6.53085 8.51387L6.53085 7.29336C6.53085 6.17324 7.16698 5.43593 8.11933 5.43593C9.07344 5.43593 9.71133 6.17148 9.71133 7.29336Z" fill="white" fill-opacity="0.85"/>
 </g>
</svg>
