<?xml version="1.0" encoding="UTF-8"?>
<!--Generator: Apple Native CoreSVG 341-->
<!DOCTYPE svg
PUBLIC "-//W3C//DTD SVG 1.1//EN"
       "http://www.w3.org/Graphics/SVG/1.1/DTD/svg11.dtd">
<svg version="1.1" xmlns="http://www.w3.org/2000/svg" xmlns:xlink="http://www.w3.org/1999/xlink" viewBox="0 0 21.2429 22.9821">
 <g>
  <rect height="22.9821" opacity="0" width="21.2429" x="0" y="0"/>
  <path d="M6.40031 11.0164L4.9015 11.0164C4.49564 11.0164 4.25579 11.2527 4.25579 11.7154L4.25579 18.5024C4.25579 18.9633 4.49564 19.2111 4.9015 19.2111L13.4933 19.2111C13.8302 19.2111 14.0462 19.0389 14.1081 18.7139L15.5932 20.197C15.2196 20.7076 14.6072 20.9617 13.7689 20.9617L4.6144 20.9617C3.1394 20.9617 2.36362 20.1664 2.36362 18.5654L2.36362 11.6488C2.36362 10.2376 2.97651 9.45245 4.14994 9.29693L4.14994 8.76906ZM14.2449 6.97404L14.2449 9.29794C15.4179 9.45645 16.0277 10.2412 16.0277 11.6488L16.0277 15.0405L14.1275 13.1414L14.1275 11.7154C14.1275 11.2527 13.8974 11.0164 13.4933 11.0164L12.0013 11.0164L10.2497 9.26584L12.4224 9.26584L12.4224 6.8006C12.4224 4.50743 10.9361 3.26133 9.19252 3.26133C7.88863 3.26133 6.74085 3.95542 6.24318 5.26156L4.89547 3.91461C5.79718 2.32235 7.43033 1.51252 9.19252 1.51252C11.8601 1.51252 14.2449 3.37072 14.2449 6.97404Z" fill="white" fill-opacity="0.85"/>
  <path d="M18.6542 21.5514C18.9577 21.8531 19.4538 21.8549 19.7538 21.5514C20.0458 21.2496 20.0573 20.7553 19.7538 20.4535L2.53647 3.24592C2.23296 2.94241 1.73061 2.94241 1.4271 3.24592C1.13511 3.54768 1.13511 4.05354 1.4271 4.34553Z" fill="white" fill-opacity="0.85"/>
 </g>
</svg>
