<?xml version="1.0" encoding="UTF-8"?>
<!--Generator: Apple Native CoreSVG 341-->
<!DOCTYPE svg
PUBLIC "-//W3C//DTD SVG 1.1//EN"
       "http://www.w3.org/Graphics/SVG/1.1/DTD/svg11.dtd">
<svg version="1.1" xmlns="http://www.w3.org/2000/svg" xmlns:xlink="http://www.w3.org/1999/xlink" viewBox="0 0 24.0644 20.7551">
 <g>
  <rect height="20.7551" opacity="0" width="24.0644" x="0" y="0"/>
  <path d="M2.43417 17.225L21.2609 17.225C22.7867 17.225 23.7031 16.3086 23.7031 14.7828L23.7031 3.01757C23.7031 1.49356 22.7867 0.58516 21.2609 0.58516L2.43417 0.58516C0.916404 0.58516 0 1.49356 0 3.01757L0 14.7828C0 16.3086 0.916404 17.225 2.43417 17.225ZM2.54784 15.3521C2.13397 15.3521 1.87284 15.091 1.87284 14.6771L1.87284 3.133C1.87284 2.70937 2.13397 2.45624 2.54784 2.45624L21.1553 2.45624C21.5691 2.45624 21.8303 2.70937 21.8303 3.133L21.8303 14.6771C21.8303 15.091 21.5691 15.3521 21.1553 15.3521ZM8.66718 19.4578L15.0359 19.4578L15.0359 17.026L8.66718 17.026ZM8.61914 20.7551L15.084 20.7551C15.5699 20.7551 15.9637 20.3525 15.9637 19.8691C15.9637 19.3857 15.5699 18.985 15.084 18.985L8.61914 18.985C8.1332 18.985 7.73144 19.3857 7.73144 19.8691C7.73144 20.3525 8.1332 20.7551 8.61914 20.7551Z" fill="white" fill-opacity="0.85"/>
  <path d="M10.1756 12.2465L13.531 12.2465C14.0787 12.2465 14.3637 11.9518 14.3637 11.3695L14.3637 8.76054C14.3637 8.28847 14.1676 8.00976 13.7994 7.91113L13.7994 7.29258C13.7994 6.01738 13.0182 5.14277 11.8533 5.14277C10.6965 5.14277 9.90722 6.01738 9.90722 7.29258L9.90722 7.91914C9.54706 8.00976 9.35097 8.28847 9.35097 8.76054L9.35097 11.3695C9.35097 11.9518 9.62792 12.2465 10.1756 12.2465ZM10.9004 7.88711L10.9004 7.2205C10.9004 6.54628 11.2787 6.10664 11.8533 6.10664C12.4279 6.10664 12.808 6.54628 12.808 7.2205L12.808 7.88711Z" fill="white" fill-opacity="0.85"/>
 </g>
</svg>
