<?xml version="1.0" encoding="UTF-8"?>
<!--Generator: Apple Native CoreSVG 341-->
<!DOCTYPE svg
PUBLIC "-//W3C//DTD SVG 1.1//EN"
       "http://www.w3.org/Graphics/SVG/1.1/DTD/svg11.dtd">
<svg version="1.1" xmlns="http://www.w3.org/2000/svg" xmlns:xlink="http://www.w3.org/1999/xlink" viewBox="0 0 25.0344 20.273">
 <g>
  <rect height="20.273" opacity="0" width="25.0344" x="0" y="0"/>
  <path d="M19.7363 3.17148L19.7363 4.64277L17.8231 4.64277L17.8231 3.34023C17.8231 2.39139 17.3139 1.91327 16.4139 1.91327L3.31444 1.91327C2.40643 1.91327 1.91327 2.39139 1.91327 3.34023L1.91327 12.2883C1.91327 13.2371 2.40643 13.7072 3.31444 13.7072L4.93496 13.7072L4.93496 15.6205L3.20351 15.6205C1.08769 15.6205 0 14.5408 0 12.449L0 3.17148C0 1.08769 1.08769 0 3.20351 0L16.5328 0C18.6344 0 19.7363 1.08769 19.7363 3.17148Z" fill="white" fill-opacity="0.85"/>
  <path d="M8.14022 20.2615L21.4678 20.2615C23.5693 20.2615 24.673 19.1756 24.673 17.09L24.673 7.81425C24.673 5.73046 23.5693 4.64277 21.4678 4.64277L8.14022 4.64277C6.02265 4.64277 4.93496 5.73046 4.93496 7.81425L4.93496 17.09C4.93496 19.1836 6.02265 20.2615 8.14022 20.2615ZM8.25116 18.3482C7.34139 18.3482 6.84822 17.8799 6.84822 16.931L6.84822 7.98299C6.84822 7.03241 7.34139 6.55604 8.25116 6.55604L21.3488 6.55604C22.2506 6.55604 22.7598 7.03241 22.7598 7.98299L22.7598 16.931C22.7598 17.8799 22.2506 18.3482 21.3488 18.3482Z" fill="white" fill-opacity="0.85"/>
  <path d="M11.3058 16.2467C11.3058 16.9896 11.6369 17.3367 12.323 17.3367L17.2902 17.3367C17.9809 17.3367 18.3119 16.9896 18.3119 16.2467L18.3119 12.439C18.3119 11.7713 18.0392 11.4277 17.4832 11.3728L17.4832 10.2715C17.4832 8.47459 16.4019 7.27166 14.8049 7.27166C13.2158 7.27166 12.1301 8.47459 12.1301 10.2715L12.1301 11.3711C11.5803 11.4277 11.3058 11.7713 11.3058 12.439ZM13.2705 11.3525L13.2705 10.1728C13.2705 9.08729 13.8836 8.38103 14.8049 8.38103C15.7359 8.38103 16.3428 9.08553 16.3428 10.1728L16.3428 11.3525Z" fill="white" fill-opacity="0.85"/>
 </g>
</svg>
