<?xml version="1.0" encoding="UTF-8"?>
<!--Generator: Apple Native CoreSVG 341-->
<!DOCTYPE svg
PUBLIC "-//W3C//DTD SVG 1.1//EN"
       "http://www.w3.org/Graphics/SVG/1.1/DTD/svg11.dtd">
<svg version="1.1" xmlns="http://www.w3.org/2000/svg" xmlns:xlink="http://www.w3.org/1999/xlink" viewBox="0 0 23.5105 20.1848">
 <g>
  <rect height="20.1848" opacity="0" width="23.5105" x="0" y="0"/>
  <path d="M22.7854 8.12363L18.1757 8.12363C17.4559 8.12363 17.2669 8.66894 17.66 9.21308L19.9266 12.3723C20.2374 12.8012 20.7255 12.8092 21.0344 12.3723L23.3028 9.22109C23.7057 8.66894 23.5167 8.12363 22.7854 8.12363ZM1.49109 10.0875C1.49109 15.6559 6.01199 20.175 11.5786 20.175C14.7884 20.175 17.6686 18.6584 19.5202 16.2355C19.9559 15.725 19.8528 15.0734 19.3997 14.7519C18.9227 14.4129 18.36 14.5609 17.9722 15.0176C16.4938 16.9437 14.2054 18.1879 11.5786 18.1879C7.09948 18.1879 3.47819 14.5666 3.47819 10.0875C3.47819 5.60839 7.09948 1.9871 11.5786 1.9871C16.0577 1.9871 19.679 5.60839 19.679 10.091C19.679 10.6396 20.1319 11.0846 20.6725 11.0846C21.2132 11.0846 21.6581 10.6476 21.6661 10.099C21.6581 4.50937 17.1469 0 11.5786 0C6.01199 0 1.49109 4.51914 1.49109 10.0875Z" fill="white" fill-opacity="0.85"/>
  <path d="M9.07566 14.9689L14.0428 14.9689C14.7272 14.9689 15.0583 14.6219 15.0583 13.8789L15.0583 10.0846C15.0583 9.3416 14.7272 9.00253 14.0428 9.00253L10.0231 8.99453L10.0231 7.80507C10.0231 6.72753 10.638 6.01503 11.5786 6.01503C12.4823 6.01503 13.0954 6.60351 13.0954 7.48964L13.0954 7.69062C13.0954 8.04531 13.3552 8.25292 13.6807 8.25292C13.9903 8.25292 14.2358 8.04179 14.2358 7.68359L14.2358 7.47734C14.2358 5.94452 13.1643 4.90566 11.5786 4.90566C9.96218 4.90566 8.88269 6.10859 8.88269 7.9037L8.88269 9.01308C8.33288 9.06796 8.06023 9.40527 8.06023 10.0713L8.06023 13.8789C8.06023 14.6219 8.39128 14.9689 9.07566 14.9689Z" fill="white" fill-opacity="0.85"/>
 </g>
</svg>
