<?xml version="1.0" encoding="UTF-8"?>
<!--Generator: Apple Native CoreSVG 341-->
<!DOCTYPE svg
PUBLIC "-//W3C//DTD SVG 1.1//EN"
       "http://www.w3.org/Graphics/SVG/1.1/DTD/svg11.dtd">
<svg version="1.1" xmlns="http://www.w3.org/2000/svg" xmlns:xlink="http://www.w3.org/1999/xlink" viewBox="0 0 24.1775 25.2707">
 <g>
  <rect height="25.2707" opacity="0" width="24.1775" x="0" y="0"/>
  <path d="M18.0952 2.88261L5.72099 2.88261C5.75663 2.04585 6.28265 1.56055 7.15234 1.56055L16.6639 1.56055C17.5336 1.56055 18.0596 2.04585 18.0952 2.88261Z" fill="white" fill-opacity="0.85"/>
  <path d="M20.07 5.78717C19.7399 5.73352 19.3903 5.70644 19.0228 5.70644L4.79335 5.70644C4.42595 5.70644 4.07642 5.73351 3.74638 5.78715C3.85387 4.80443 4.52056 4.24765 5.59745 4.24765L18.2268 4.24765C19.3037 4.24765 19.9637 4.80444 20.07 5.78717Z" fill="white" fill-opacity="0.85"/>
  <path d="M22.2264 10.4678L22.2264 20.5111C22.2264 22.5949 21.1307 23.6826 19.0228 23.6826L4.79335 23.6826C2.68379 23.6826 1.58984 22.5949 1.58984 20.5111L1.58984 10.4678C1.58984 8.38221 2.68379 7.29628 4.79335 7.29628L19.0228 7.29628C21.1307 7.29628 22.2264 8.38221 22.2264 10.4678ZM9.12832 13.2476L9.12832 14.3836C8.56347 14.4402 8.27929 14.7988 8.27929 15.4976L8.27929 19.4471C8.27929 20.2219 8.62187 20.5787 9.33456 20.5787L14.4914 20.5787C15.2006 20.5787 15.5449 20.2219 15.5449 19.4471L15.5449 15.4976C15.5449 14.7988 15.2607 14.4402 14.6977 14.3853L14.6977 13.2476C14.6977 11.3781 13.5721 10.1193 11.9121 10.1193C10.2539 10.1193 9.12832 11.3781 9.12832 13.2476ZM13.5023 13.141L13.5023 14.3633L10.3219 14.3633L10.3219 13.141C10.3219 12.0209 10.958 11.2773 11.9103 11.2773C12.8645 11.2773 13.5023 12.0191 13.5023 13.141Z" fill="white" fill-opacity="0.85"/>
 </g>
</svg>
