<?xml version="1.0" encoding="UTF-8"?>
<!--Generator: Apple Native CoreSVG 341-->
<!DOCTYPE svg
PUBLIC "-//W3C//DTD SVG 1.1//EN"
       "http://www.w3.org/Graphics/SVG/1.1/DTD/svg11.dtd">
<svg version="1.1" xmlns="http://www.w3.org/2000/svg" xmlns:xlink="http://www.w3.org/1999/xlink" viewBox="0 0 28.5406 30.9949">
 <g>
  <rect height="30.9949" opacity="0" width="28.5406" x="0" y="0"/>
  <path d="M22.4576 8.13065L22.4576 14.7435L20.5443 17.0194L20.5443 8.24959C20.5443 7.33982 20.076 6.83865 19.1271 6.83865L9.05213 6.83865C8.10154 6.83865 7.62517 7.33982 7.62517 8.24959L7.62517 22.7471C7.62517 23.6568 8.10154 24.15 9.05213 24.15L14.5499 24.15L12.9414 26.0633L8.88339 26.0633C6.7996 26.0633 5.71191 24.9756 5.71191 22.866L5.71191 8.13065C5.71191 6.02909 6.7996 4.92538 8.88339 4.92538L19.2879 4.92538C21.3797 4.92538 22.4576 6.02909 22.4576 8.13065ZM18.1568 19.8595L17.3116 20.8648L10.5217 20.8648C10.1515 20.8648 9.88885 20.5924 9.88885 20.2498C9.88885 19.8992 10.1515 19.6285 10.5217 19.6285L17.6674 19.6285C17.8693 19.6285 18.0444 19.7174 18.1568 19.8595ZM18.2904 16.9021C18.2904 17.2527 18.0197 17.5252 17.6674 17.5252L10.5217 17.5252C10.1515 17.5252 9.88885 17.2527 9.88885 16.9021C9.88885 16.5516 10.1515 16.2889 10.5217 16.2889L17.6674 16.2889C18.0197 16.2889 18.2904 16.5516 18.2904 16.9021ZM18.2904 13.5705C18.2904 13.9228 18.0197 14.1953 17.6674 14.1953L10.5217 14.1953C10.1515 14.1953 9.88885 13.9228 9.88885 13.5705C9.88885 13.2279 10.1515 12.959 10.5217 12.959L17.6674 12.959C18.0197 12.959 18.2904 13.2279 18.2904 13.5705ZM18.2904 10.2308C18.2904 10.5832 18.0197 10.8556 17.6674 10.8556L10.5217 10.8556C10.1515 10.8556 9.88885 10.5832 9.88885 10.2308C9.88885 9.89002 10.1515 9.61932 10.5217 9.61932L17.6674 9.61932C18.0197 9.61932 18.2904 9.89002 18.2904 10.2308Z" fill="white" fill-opacity="0.85"/>
  <path d="M15.8797 28.7103L25.4832 17.2765L23.5137 15.6228L13.9182 27.0566L13.1955 29.341C13.1148 29.6246 13.4295 29.8969 13.6892 29.7719ZM26.3074 16.3228L27.2302 15.2252C27.6953 14.6768 27.6722 14.1178 27.1709 13.6945L26.7674 13.3549C26.2722 12.9316 25.7097 13.0346 25.2527 13.5635L24.3201 14.6594Z" fill="white" fill-opacity="0.85"/>
 </g>
</svg>
