<?xml version="1.0" encoding="UTF-8"?>
<!--Generator: Apple Native CoreSVG 341-->
<!DOCTYPE svg
PUBLIC "-//W3C//DTD SVG 1.1//EN"
       "http://www.w3.org/Graphics/SVG/1.1/DTD/svg11.dtd">
<svg version="1.1" xmlns="http://www.w3.org/2000/svg" xmlns:xlink="http://www.w3.org/1999/xlink" viewBox="0 0 28.5406 30.9949">
 <g>
  <rect height="30.9949" opacity="0" width="28.5406" x="0" y="0"/>
  <path d="M22.4576 8.13065L22.4576 14.7435L18.137 19.883C18.0411 19.8267 17.9281 19.7951 17.8057 19.7951L10.3834 19.7951C9.99822 19.7951 9.72401 20.0773 9.72401 20.4394C9.72401 20.8068 9.99822 21.0908 10.3834 21.0908L17.1216 21.0908L12.9414 26.0633L8.88339 26.0633C6.7996 26.0633 5.71191 24.9756 5.71191 22.866L5.71191 8.13065C5.71191 6.02909 6.7996 4.92538 8.88339 4.92538L19.2879 4.92538C21.3797 4.92538 22.4576 6.02909 22.4576 8.13065ZM10.3834 16.3252C9.99822 16.3252 9.72401 16.5994 9.72401 16.9633C9.72401 17.3351 9.99822 17.6209 10.3834 17.6209L17.8057 17.6209C18.1713 17.6209 18.4535 17.3351 18.4535 16.9633C18.4535 16.5994 18.1713 16.3252 17.8057 16.3252ZM10.3834 12.865C9.99822 12.865 9.72401 13.1473 9.72401 13.5094C9.72401 13.875 9.99822 14.1607 10.3834 14.1607L17.8057 14.1607C18.1713 14.1607 18.4535 13.875 18.4535 13.5094C18.4535 13.1473 18.1713 12.865 17.8057 12.865ZM10.3834 9.39334C9.99822 9.39334 9.72401 9.67557 9.72401 10.0412C9.72401 10.4051 9.99822 10.689 10.3834 10.689L17.8057 10.689C18.1713 10.689 18.4535 10.4051 18.4535 10.0412C18.4535 9.67557 18.1713 9.39334 17.8057 9.39334Z" fill="white" fill-opacity="0.85"/>
  <path d="M15.8797 28.7103L25.4832 17.2765L23.5137 15.6228L13.9182 27.0566L13.1955 29.341C13.1148 29.6246 13.4295 29.8969 13.6892 29.7719ZM26.3074 16.3228L27.2302 15.2252C27.6953 14.6768 27.6722 14.1178 27.1709 13.6945L26.7674 13.3549C26.2722 12.9316 25.7097 13.0346 25.2527 13.5635L24.3201 14.6594Z" fill="white" fill-opacity="0.85"/>
 </g>
</svg>
