<?xml version="1.0" encoding="UTF-8"?>
<!--Generator: Apple Native CoreSVG 341-->
<!DOCTYPE svg
PUBLIC "-//W3C//DTD SVG 1.1//EN"
       "http://www.w3.org/Graphics/SVG/1.1/DTD/svg11.dtd">
<svg version="1.1" xmlns="http://www.w3.org/2000/svg" xmlns:xlink="http://www.w3.org/1999/xlink" viewBox="0 0 17.6497 19.5558">
 <g>
  <rect height="19.5558" opacity="0" width="17.6497" x="0" y="0"/>
  <path d="M8.64905 19.5558C14.0231 19.5558 18.0836 17.4912 17.1666 13.8873L15.5697 7.55L15.4301 3.95898C15.3403 1.6291 12.7949 0.00976562 8.64905 0.00976562C4.5014 0.00976562 1.94808 1.6291 1.85823 3.95898L1.71858 7.55L0.129718 13.8873C-0.78727 17.4912 3.27328 19.5558 8.64905 19.5558ZM8.64905 17.6506C4.7637 17.6506 1.4467 16.293 1.99084 14.1512L3.12482 9.61386C4.35822 10.4701 6.23049 10.9846 8.64905 10.9846C11.0578 10.9846 12.9381 10.4701 14.1715 9.61386L15.3055 14.1512C15.8416 16.293 12.5246 17.6506 8.64905 17.6506ZM8.64905 5.0623C6.20529 5.0623 4.37092 4.27988 4.37092 3.31894C4.37092 2.34999 6.20529 1.56757 8.64905 1.56757C11.083 1.56757 12.9254 2.34999 12.9254 3.31894C12.9254 4.27988 11.083 5.0623 8.64905 5.0623Z" fill="white" fill-opacity="0.85"/>
 </g>
</svg>
