<?xml version="1.0" encoding="UTF-8"?>
<!--Generator: Apple Native CoreSVG 341-->
<!DOCTYPE svg
PUBLIC "-//W3C//DTD SVG 1.1//EN"
       "http://www.w3.org/Graphics/SVG/1.1/DTD/svg11.dtd">
<svg version="1.1" xmlns="http://www.w3.org/2000/svg" xmlns:xlink="http://www.w3.org/1999/xlink" viewBox="0 0 25.9582 17.8977">
 <g>
  <rect height="17.8977" opacity="0" width="25.9582" x="0" y="0"/>
  <path d="M25.5969 3.83051L25.5969 10.0414C25.5969 12.1928 25.2182 13.2114 23.6215 14.0385L18.1543 16.8625C16.0889 17.9338 14.5705 18.2063 12.2557 17.5264L3.81445 15.0637C1.13672 14.2711 0 12.6481 0 10.0414L0 3.85453C0 1.97446 1.22734 0.732858 3.08964 0.732858L22.4912 0.72485C24.3713 0.72485 25.5969 1.95844 25.5969 3.83051ZM9.87597 6.64847C9.87597 7.8639 10.5971 8.51547 11.5773 8.91312L12.0994 9.12347C12.7131 9.37113 13.1988 9.66605 13.1988 10.3526C13.1988 10.9221 12.8469 11.3352 12.2533 11.3352C11.6713 11.3352 11.3291 10.9364 11.235 10.4555C11.125 10.0936 10.8598 9.94184 10.5182 9.94184C10.1242 9.94184 9.85898 10.2311 9.85898 10.6153C9.85898 10.8069 9.87929 10.8953 9.9414 11.0684C10.2369 12.0551 11.1506 12.5649 12.2453 12.5649C13.757 12.5649 14.6928 11.6977 14.6928 10.2168C14.6928 8.96781 14.0562 8.38715 12.9621 7.94769L12.4223 7.74535C11.8131 7.49945 11.3699 7.185 11.3699 6.52875C11.3699 5.98675 11.6873 5.59945 12.2133 5.59945C12.765 5.59945 13.0521 5.99925 13.1676 6.47543C13.2705 6.82679 13.5154 6.96429 13.8631 6.96429C14.2809 6.95902 14.509 6.69203 14.509 6.32816C14.509 6.24125 14.4957 6.13402 14.4549 5.94926C14.1461 4.9098 13.2699 4.36801 12.215 4.36801C10.8736 4.36801 9.87597 5.22035 9.87597 6.64847ZM5.00175 5.20726L5.00175 11.5952C5.00175 12.0875 5.27499 12.3953 5.74511 12.3953L8.43867 12.3953C8.78378 12.3953 9.0748 12.1026 9.0748 11.7592C9.0748 11.4043 8.78378 11.1213 8.43867 11.1213L6.5205 11.1213L6.5205 5.20726C6.5205 4.785 6.17362 4.44164 5.76288 4.44164C5.34687 4.44164 5.00175 4.785 5.00175 5.20726ZM16.6111 4.56234C16.1162 4.56234 15.8598 4.91371 15.8598 5.36878L15.8598 11.5952C15.8598 12.0743 16.1242 12.3953 16.6111 12.3953L18.6787 12.3953C20.0434 12.3953 20.807 11.4678 20.807 10.1715C20.807 9.2225 20.2301 8.36312 19.3199 8.27426L19.3199 8.22719C20.0691 8.10199 20.5902 7.29398 20.5902 6.51996C20.5902 5.28324 19.7662 4.56234 18.6131 4.56234ZM19.2758 10.042C19.2758 10.7811 18.9283 11.2561 18.199 11.2561L17.3687 11.2561L17.3687 8.85726L18.1555 8.85726C18.8269 8.85726 19.2758 9.24867 19.2758 10.042ZM19.1166 6.75765C19.1166 7.4389 18.7434 7.86254 18.0639 7.86254L17.3687 7.86254L17.3687 5.70785L18.1625 5.70785C18.8643 5.70785 19.1166 6.15375 19.1166 6.75765Z" fill="white" fill-opacity="0.85"/>
 </g>
</svg>
