<?xml version="1.0" encoding="UTF-8"?>
<!--Generator: Apple Native CoreSVG 341-->
<!DOCTYPE svg
PUBLIC "-//W3C//DTD SVG 1.1//EN"
       "http://www.w3.org/Graphics/SVG/1.1/DTD/svg11.dtd">
<svg version="1.1" xmlns="http://www.w3.org/2000/svg" xmlns:xlink="http://www.w3.org/1999/xlink" viewBox="0 0 25.9582 17.8977">
 <g>
  <rect height="17.8977" opacity="0" width="25.9582" x="0" y="0"/>
  <path d="M25.5969 10.0414L25.5969 3.83051C25.5969 1.95844 24.3713 0.72485 22.4912 0.72485L3.08964 0.732858C1.22734 0.732858 0 1.97446 0 3.85453L0 10.0414C0 12.6481 1.13672 14.2711 3.81445 15.0637L12.2557 17.5264C14.5705 18.2063 16.0889 17.9338 18.1543 16.8625L23.6215 14.0385C25.2182 13.2114 25.5969 12.1928 25.5969 10.0414ZM23.6836 10.0414C23.6836 11.4024 23.4189 12.0178 22.432 12.517L17.1299 15.2346C15.4871 16.0702 14.3467 16.2372 12.34 15.637L4.3789 13.2692C2.60272 12.7479 1.91327 11.7555 1.91327 10.0414L1.91327 3.97172C1.91327 3.16683 2.42147 2.64437 3.20858 2.64437L22.3803 2.6346C23.1674 2.6346 23.6836 3.15081 23.6836 3.94769Z" fill="white" fill-opacity="0.85"/>
  <path d="M6.07792 12.045L8.6537 12.045C8.98026 12.045 9.24823 11.7707 9.24823 11.4424C9.24823 11.1221 8.98026 10.8461 8.6537 10.8461L6.80018 10.8461L6.80018 5.17718C6.80018 4.79124 6.47186 4.46468 6.08768 4.46468C5.69198 4.46468 5.36542 4.79124 5.36542 5.17718L5.36542 11.2916C5.36542 11.7557 5.62186 12.045 6.07792 12.045ZM12.2754 12.211C13.7234 12.211 14.606 11.3809 14.606 9.97797C14.606 8.78109 13.9996 8.22523 12.9551 7.81234L12.4418 7.61527C11.8529 7.38265 11.4346 7.07972 11.4346 6.45003C11.4346 5.92308 11.7404 5.55081 12.2434 5.55081C12.7801 5.55081 13.0574 5.9471 13.1613 6.40023C13.2625 6.7348 13.4906 6.85902 13.8215 6.85902C14.2109 6.8555 14.4338 6.61156 14.4338 6.25648C14.4338 6.17308 14.4285 6.07738 14.3814 5.90414C14.0894 4.9098 13.2549 4.3848 12.2451 4.3848C10.9621 4.3848 10.0211 5.20531 10.0211 6.568C10.0211 7.72679 10.7121 8.34828 11.641 8.72113L12.1463 8.92796C12.7334 9.16058 13.1943 9.44398 13.1943 10.1039C13.1943 10.6567 12.8521 11.0467 12.2834 11.0467C11.7244 11.0467 11.3937 10.6629 11.2933 10.2114C11.2029 9.85824 10.9527 9.71 10.6279 9.71C10.2525 9.71 10.0023 9.98422 10.0023 10.3596C10.0023 10.5362 10.0209 10.6211 10.075 10.7889C10.3617 11.7278 11.2338 12.211 12.2754 12.211ZM16.4439 12.045L18.4115 12.045C19.7098 12.045 20.4434 11.1625 20.4434 9.93265C20.4434 9.02875 19.8867 8.20297 19.0244 8.12386L19.0244 8.07679C19.7338 7.95336 20.2283 7.18519 20.2283 6.44476C20.2283 5.25667 19.4459 4.58187 18.3477 4.58187L16.4439 4.58187C15.9711 4.58187 15.7217 4.90218 15.7217 5.33519L15.7217 11.2916C15.7217 11.7504 15.9791 12.045 16.4439 12.045ZM17.1484 7.72894L17.1484 5.66722L17.9271 5.66722C18.5943 5.66722 18.8432 6.09007 18.8432 6.66742C18.8432 7.31859 18.4814 7.72894 17.8303 7.72894ZM17.1484 10.9676L17.1484 8.67679L17.9219 8.67679C18.565 8.67679 18.9926 9.04964 18.9926 9.81644C18.9926 10.5192 18.6584 10.9676 17.9477 10.9676Z" fill="white" fill-opacity="0.85"/>
 </g>
</svg>
