<?xml version="1.0" encoding="UTF-8"?>
<!--Generator: Apple Native CoreSVG 341-->
<!DOCTYPE svg
PUBLIC "-//W3C//DTD SVG 1.1//EN"
       "http://www.w3.org/Graphics/SVG/1.1/DTD/svg11.dtd">
<svg version="1.1" xmlns="http://www.w3.org/2000/svg" xmlns:xlink="http://www.w3.org/1999/xlink" viewBox="0 0 23.1209 17.3433">
 <g>
  <rect height="17.3433" opacity="0" width="23.1209" x="0" y="0"/>
  <path d="M8.22851 0C2.50996 0 0 2.58633 0 8.05722L0 14.2137C0 16.2654 1.08769 17.3371 3.14745 17.3371L19.6121 17.3371C21.6719 17.3371 22.7596 16.2574 22.7596 14.2137L22.7596 8.05722C22.7596 2.58633 20.2496 0 14.531 0ZM8.26191 1.91503L14.4896 1.91503C18.9295 1.91503 20.8463 3.82558 20.8463 7.97968L20.8463 14.0529C20.8463 14.9557 20.3541 15.4238 19.4852 15.4238L3.2744 15.4238C2.38768 15.4238 1.91327 14.9557 1.91327 14.0529L1.91327 7.97968C1.91327 3.82558 3.82831 1.91503 8.26191 1.91503Z" fill="white" fill-opacity="0.85"/>
  <path d="M7.97226 12.5736L10.6635 12.5736C11.0033 12.5736 11.2811 12.2879 11.2811 11.948C11.2811 11.6082 11.0033 11.3207 10.6635 11.3207L8.73534 11.3207L8.73534 5.41386C8.73534 5.00038 8.3955 4.66054 7.98202 4.66054C7.5748 4.66054 7.23496 5.00038 7.23496 5.41386L7.23496 11.7875C7.23496 12.2728 7.49492 12.5736 7.97226 12.5736ZM13.5797 12.6908C13.9932 12.6908 14.325 12.351 14.325 11.926L14.325 6.02265L15.4127 6.02265C15.7508 6.02265 16.0205 5.75116 16.0205 5.3953C16.0205 5.05898 15.7508 4.78749 15.4127 4.78749L11.7129 4.78749C11.3553 4.78749 11.0873 5.05898 11.0873 5.3953C11.0873 5.75116 11.3553 6.02265 11.7129 6.02265L12.8246 6.02265L12.8246 11.926C12.8246 12.351 13.1564 12.6908 13.5797 12.6908Z" fill="white" fill-opacity="0.85"/>
 </g>
</svg>
