<?xml version="1.0" encoding="UTF-8"?>
<!--Generator: Apple Native CoreSVG 341-->
<!DOCTYPE svg
PUBLIC "-//W3C//DTD SVG 1.1//EN"
       "http://www.w3.org/Graphics/SVG/1.1/DTD/svg11.dtd">
<svg version="1.1" xmlns="http://www.w3.org/2000/svg" xmlns:xlink="http://www.w3.org/1999/xlink" viewBox="0 0 20.5381 20.1848">
 <g>
  <rect height="20.1848" opacity="0" width="20.5381" x="0" y="0"/>
  <path d="M20.1767 10.0875C20.1767 15.6478 15.6576 20.175 10.0875 20.175C4.52715 20.175 0 15.6478 0 10.0875C0 4.51914 4.52715 0 10.0875 0C15.6576 0 20.1767 4.51914 20.1767 10.0875ZM10.4006 6.24843C10.051 6.24843 9.78124 6.52167 9.78124 6.85976C9.78124 7.20937 10.051 7.48085 10.4006 7.48085L11.4918 7.48085L11.4918 13.2949C11.4918 13.7217 11.8334 14.0535 12.2504 14.0535C12.6594 14.0535 12.9912 13.7217 12.9912 13.2949L12.9912 7.48085L14.0584 7.48085C14.3902 7.48085 14.6617 7.20937 14.6617 6.85976C14.6617 6.52167 14.3902 6.24843 14.0584 6.24843ZM5.97714 6.88007L5.97714 13.1645C5.97714 13.6436 6.2371 13.9461 6.70995 13.9461L9.36191 13.9461C9.69375 13.9461 9.983 13.6568 9.983 13.317C9.983 12.9754 9.69375 12.6959 9.36191 12.6959L7.46054 12.6959L7.46054 6.88007C7.46054 6.47109 7.1287 6.13925 6.71972 6.13925C6.31074 6.13925 5.97714 6.47109 5.97714 6.88007Z" fill="white" fill-opacity="0.85"/>
 </g>
</svg>
