<?xml version="1.0" encoding="UTF-8"?>
<!--Generator: Apple Native CoreSVG 341-->
<!DOCTYPE svg
PUBLIC "-//W3C//DTD SVG 1.1//EN"
       "http://www.w3.org/Graphics/SVG/1.1/DTD/svg11.dtd">
<svg version="1.1" xmlns="http://www.w3.org/2000/svg" xmlns:xlink="http://www.w3.org/1999/xlink" viewBox="0 0 20.5381 20.1848">
 <g>
  <rect height="20.1848" opacity="0" width="20.5381" x="0" y="0"/>
  <path d="M20.1767 10.0875C20.1767 15.6478 15.6576 20.175 10.0875 20.175C4.52715 20.175 0 15.6478 0 10.0875C0 4.51914 4.52715 0 10.0875 0C15.6576 0 20.1767 4.51914 20.1767 10.0875ZM12.5174 6.09003L10.1185 12.2733L10.0662 12.2733L7.65135 6.09003C7.45448 5.55663 7.08299 5.28632 6.50683 5.28632C5.85078 5.28632 5.40566 5.71991 5.40566 6.36268L5.40566 13.8736C5.40566 14.4475 5.71699 14.7898 6.22421 14.7898C6.73944 14.7898 7.04628 14.4572 7.04628 13.8736L7.04628 8.40077L7.14569 8.40077L9.24472 13.8094C9.40449 14.2076 9.6582 14.3947 10.0742 14.3947C10.484 14.3947 10.7519 14.2146 10.9072 13.8111L13.0293 8.40077L13.1225 8.40077L13.1225 13.8736C13.1225 14.4475 13.4275 14.7898 13.9268 14.7898C14.4545 14.7898 14.7631 14.4572 14.7631 13.8736L14.7631 6.36268C14.7631 5.71991 14.318 5.28632 13.6699 5.28632C13.092 5.28632 12.7188 5.55839 12.5174 6.09003Z" fill="white" fill-opacity="0.85"/>
 </g>
</svg>
