<?xml version="1.0" encoding="UTF-8"?>
<!--Generator: Apple Native CoreSVG 341-->
<!DOCTYPE svg
PUBLIC "-//W3C//DTD SVG 1.1//EN"
       "http://www.w3.org/Graphics/SVG/1.1/DTD/svg11.dtd">
<svg version="1.1" xmlns="http://www.w3.org/2000/svg" xmlns:xlink="http://www.w3.org/1999/xlink" viewBox="0 0 20.5381 20.1848">
 <g>
  <rect height="20.1848" opacity="0" width="20.5381" x="0" y="0"/>
  <path d="M10.0875 20.175C15.6576 20.175 20.1767 15.6559 20.1767 10.0875C20.1767 4.51914 15.6576 0 10.0875 0C4.51914 0 0 4.51914 0 10.0875C0 15.6559 4.51914 20.175 10.0875 20.175ZM10.0875 18.1879C5.60839 18.1879 1.9871 14.5666 1.9871 10.0875C1.9871 5.60839 5.60839 1.9871 10.0875 1.9871C14.5666 1.9871 18.1897 5.60839 18.1897 10.0875C18.1897 14.5666 14.5666 18.1879 10.0875 18.1879Z" fill="white" fill-opacity="0.85"/>
  <path d="M6.35976 14.6082C6.85643 14.6082 7.14823 14.2889 7.14823 13.7318L7.14823 8.43983L7.23788 8.43983L9.27656 13.6729C9.4248 14.0561 9.66699 14.2396 10.0662 14.2396C10.4609 14.2396 10.7156 14.0613 10.8594 13.6746L12.9211 8.43983L13.0027 8.43983L13.0027 13.7318C13.0027 14.2809 13.2945 14.6082 13.7752 14.6082C14.2781 14.6082 14.5717 14.2889 14.5717 13.7318L14.5717 6.49745C14.5717 5.88651 14.1434 5.46796 13.5254 5.46796C12.9775 5.46796 12.6211 5.72675 12.4277 6.23807L10.1105 12.2119L10.0582 12.2119L7.72323 6.23807C7.53788 5.72499 7.18143 5.46796 6.63358 5.46796C6.00761 5.46796 5.58105 5.88651 5.58105 6.49745L5.58105 13.7318C5.58105 14.2809 5.8791 14.6082 6.35976 14.6082Z" fill="white" fill-opacity="0.85"/>
 </g>
</svg>
