<?xml version="1.0" encoding="UTF-8"?>
<!--Generator: Apple Native CoreSVG 341-->
<!DOCTYPE svg
PUBLIC "-//W3C//DTD SVG 1.1//EN"
       "http://www.w3.org/Graphics/SVG/1.1/DTD/svg11.dtd">
<svg version="1.1" xmlns="http://www.w3.org/2000/svg" xmlns:xlink="http://www.w3.org/1999/xlink" viewBox="0 0 18.5894 18.2316">
 <g>
  <rect height="18.2316" opacity="0" width="18.5894" x="0" y="0"/>
  <path d="M3.20351 18.2281L15.0246 18.2281C17.1404 18.2281 18.2281 17.1502 18.2281 15.0646L18.2281 3.17148C18.2281 1.08769 17.1404 0 15.0246 0L3.20351 0C1.0957 0 0 1.08769 0 3.17148L0 15.0646C0 17.1502 1.0957 18.2281 3.20351 18.2281ZM3.31444 16.3148C2.40643 16.3148 1.91327 15.8465 1.91327 14.8977L1.91327 3.34023C1.91327 2.39139 2.40643 1.91503 3.31444 1.91503L14.9137 1.91503C15.8137 1.91503 16.3148 2.39139 16.3148 3.34023L16.3148 14.8977C16.3148 15.8465 15.8137 16.3148 14.9137 16.3148Z" fill="white" fill-opacity="0.85"/>
  <path d="M5.39921 13.6316C5.89589 13.6316 6.19569 13.3123 6.19569 12.7553L6.19569 7.46327L6.27733 7.46327L8.31425 12.6963C8.46425 13.0795 8.71445 13.2631 9.10566 13.2631C9.50038 13.2631 9.75507 13.0848 9.89882 12.698L11.9605 7.46327L12.0422 7.46327L12.0422 12.7553C12.0422 13.3043 12.3322 13.6316 12.8146 13.6316C13.3176 13.6316 13.6111 13.3123 13.6111 12.7553L13.6111 5.52089C13.6111 4.90995 13.1828 4.4914 12.5648 4.4914C12.0152 4.4914 11.6606 4.75019 11.4672 5.26151L9.14999 11.2354L9.09765 11.2354L6.76268 5.26151C6.57557 4.74843 6.22088 4.4914 5.67304 4.4914C5.04706 4.4914 4.62675 4.90995 4.62675 5.52089L4.62675 12.7553C4.62675 13.3043 4.91855 13.6316 5.39921 13.6316Z" fill="white" fill-opacity="0.85"/>
 </g>
</svg>
