<?xml version="1.0" encoding="UTF-8"?>
<!--Generator: Apple Native CoreSVG 341-->
<!DOCTYPE svg
PUBLIC "-//W3C//DTD SVG 1.1//EN"
       "http://www.w3.org/Graphics/SVG/1.1/DTD/svg11.dtd">
<svg version="1.1" xmlns="http://www.w3.org/2000/svg" xmlns:xlink="http://www.w3.org/1999/xlink" viewBox="0 0 18.5894 18.2316">
 <g>
  <rect height="18.2316" opacity="0" width="18.5894" x="0" y="0"/>
  <path d="M18.2281 3.17148L18.2281 15.0646C18.2281 17.1502 17.1404 18.2281 15.0246 18.2281L3.20351 18.2281C1.0957 18.2281 0 17.1502 0 15.0646L0 3.17148C0 1.08769 1.0957 0 3.20351 0L15.0246 0C17.1404 0 18.2281 1.08769 18.2281 3.17148ZM11.5682 5.11347L9.17109 11.2967L9.11699 11.2967L6.70389 5.11347C6.50702 4.58007 6.13378 4.30976 5.55936 4.30976C4.90156 4.30976 4.46621 4.74335 4.46621 5.38612L4.46621 12.8971C4.46621 13.4709 4.76777 13.8133 5.27675 13.8133C5.79022 13.8133 6.10507 13.4807 6.10507 12.8971L6.10507 7.4242L6.19823 7.4242L8.29726 12.8328C8.45703 13.2311 8.71875 13.4182 9.12499 13.4182C9.53476 13.4182 9.80273 13.2381 9.958 12.8346L12.0818 7.4242L12.1732 7.4242L12.1732 12.8971C12.1732 13.4709 12.4783 13.8133 12.9793 13.8133C13.507 13.8133 13.8139 13.4807 13.8139 12.8971L13.8139 5.38612C13.8139 4.74335 13.3705 4.30976 12.7207 4.30976C12.1428 4.30976 11.7713 4.58183 11.5682 5.11347Z" fill="white" fill-opacity="0.85"/>
 </g>
</svg>
