<?xml version="1.0" encoding="UTF-8"?>
<!--Generator: Apple Native CoreSVG 341-->
<!DOCTYPE svg
PUBLIC "-//W3C//DTD SVG 1.1//EN"
       "http://www.w3.org/Graphics/SVG/1.1/DTD/svg11.dtd">
<svg version="1.1" xmlns="http://www.w3.org/2000/svg" xmlns:xlink="http://www.w3.org/1999/xlink" viewBox="0 0 23.5768 17.8687">
 <g>
  <rect height="17.8687" opacity="0" width="23.5768" x="0" y="0"/>
  <path d="M7.73047 17.8545L15.485 17.8545C21.2053 17.8545 23.2154 15.776 23.2154 10.3949L23.2154 7.46757C23.2154 2.08652 21.2053 0 15.485 0L7.73047 0C2.01191 0 0 2.08652 0 7.46757L0 10.3949C0 15.776 2.01191 17.8545 7.73047 17.8545ZM7.73047 15.9412C3.33026 15.9412 1.91327 14.5367 1.91327 10.3949L1.91327 7.46757C1.91327 3.32753 3.33026 1.91327 7.73047 1.91327L15.485 1.91327C19.8852 1.91327 21.3022 3.32753 21.3022 7.46757L21.3022 10.3949C21.3022 14.5367 19.8852 15.9412 15.485 15.9412Z" fill="white" fill-opacity="0.85"/>
  <path d="M5.86894 12.9633C6.27792 12.9633 6.5371 12.6873 6.5371 12.2445L6.5371 7.22596L6.59394 7.22596L7.82011 12.1424C7.90976 12.5363 8.14765 12.8133 8.56562 12.8133C8.97656 12.8133 9.19394 12.5496 9.29511 12.1326L10.5178 7.22596L10.5746 7.22596L10.5746 12.2445C10.5746 12.6873 10.8143 12.9633 11.233 12.9633C11.6758 12.9633 11.9029 12.6873 11.9029 12.2445L11.9029 5.9703C11.9029 5.30214 11.501 4.92675 10.8506 4.92675C10.2543 4.92675 9.9207 5.20194 9.78574 5.77694L8.57011 10.8145L8.53808 10.8145L7.30643 5.77694C7.16972 5.19316 6.81483 4.92675 6.25937 4.92675C5.59921 4.92675 5.20253 5.3164 5.20253 5.9703L5.20253 12.2445C5.20253 12.6873 5.45195 12.9633 5.86894 12.9633ZM16.7113 12.9473C17.1053 12.9473 17.4158 12.7156 17.4158 12.2152L17.4158 11.3336L17.7164 11.3336C18.1289 11.3336 18.2994 11.0701 18.2994 10.7293C18.2994 10.3904 18.1246 10.1428 17.7182 10.1428L17.4158 10.1428L17.4158 6.0244C17.4158 5.31718 16.9535 4.91874 16.2783 4.91874C15.4936 4.91874 15.1678 5.36874 14.8856 6.03221L13.323 9.52597C13.1605 9.90859 13.0967 10.1889 13.0967 10.5021C13.0967 11.0078 13.4277 11.3336 13.9467 11.3336L16.0006 11.3336L16.0006 12.2152C16.0006 12.7521 16.377 12.9473 16.7113 12.9473ZM16.0352 10.1773L14.3541 10.1773L14.3541 10.1072L15.9961 6.18436L16.0352 6.18436Z" fill="white" fill-opacity="0.85"/>
 </g>
</svg>
