<?xml version="1.0" encoding="UTF-8"?>
<!--Generator: Apple Native CoreSVG 341-->
<!DOCTYPE svg
PUBLIC "-//W3C//DTD SVG 1.1//EN"
       "http://www.w3.org/Graphics/SVG/1.1/DTD/svg11.dtd">
<svg version="1.1" xmlns="http://www.w3.org/2000/svg" xmlns:xlink="http://www.w3.org/1999/xlink" viewBox="0 0 29.0683 23.0215">
 <g>
  <rect height="23.0215" opacity="0" width="29.0683" x="0" y="0"/>
  <path d="M4.69724 16.8468L4.69724 17.2943C4.69724 18.2432 5.19841 18.7133 6.10818 18.7133L12.8837 18.7133L14.7917 20.6266L5.98924 20.6266C3.88768 20.6266 2.78397 19.5469 2.78397 17.4631L2.78397 15.6317C3.35324 16.1274 3.99701 16.5388 4.69724 16.8468ZM25.9213 5.56992L25.9213 17.4631C25.9213 19.5469 24.8273 20.6266 22.7178 20.6266L21.164 20.6266C21.1881 20.4863 21.1988 20.3411 21.1988 20.193C21.1988 19.6528 21.0485 19.1406 20.7863 18.7133L22.5988 18.7133C23.4988 18.7133 24.008 18.2432 24.008 17.2943L24.008 5.73691C24.008 4.78808 23.4988 4.31171 22.5988 4.31171L13.8727 4.31171C13.1634 3.50478 12.2879 2.84983 11.2987 2.39844L22.7178 2.39844C24.8273 2.39844 25.9213 3.48437 25.9213 5.56992Z" fill="white" fill-opacity="0.85"/>
  <path d="M22.0238 9.49882C22.0238 10.7959 20.9709 11.8426 19.6916 11.8426C18.3928 11.8426 17.3478 10.7959 17.3478 9.49882C17.3478 8.19999 18.3928 7.15507 19.6916 7.15507C20.9709 7.15507 22.0238 8.19999 22.0238 9.49882Z" fill="white" fill-opacity="0.85"/>
  <path d="M7.94941 17.5492C12.3342 17.5492 15.8988 13.9846 15.8988 9.5998C15.8988 5.20527 12.3342 1.65039 7.94941 1.65039C3.56289 1.65039 0 5.20527 0 9.5998C0 13.9846 3.56289 17.5492 7.94941 17.5492ZM7.94941 15.4768C4.70585 15.4768 2.07069 12.8434 2.07069 9.5998C2.07069 6.34647 4.70585 3.72108 7.94941 3.72108C11.193 3.72108 13.8264 6.34647 13.8264 9.5998C13.8264 12.8434 11.193 15.4768 7.94941 15.4768ZM13.6828 13.4314L11.5885 15.4566L17.3516 21.226C17.6404 21.5148 18.0045 21.6424 18.3863 21.6424C19.2191 21.6424 19.8197 21.0143 19.8197 20.193C19.8197 19.8049 19.6717 19.4444 19.4113 19.176Z" fill="white" fill-opacity="0.85"/>
  <path d="M4.97616 9.02226L10.9146 9.02226C11.3193 9.02226 11.6246 8.69667 11.6246 8.30878C11.6246 7.90859 11.3229 7.59179 10.9146 7.59179L4.97616 7.59179C4.56971 7.59179 4.27245 7.91035 4.27245 8.30878C4.27245 8.69843 4.57147 9.02226 4.97616 9.02226ZM4.97616 11.598L9.28847 11.598C9.6834 11.598 10.0047 11.2857 10.0047 10.8926C10.0047 10.4861 9.68515 10.1676 9.28847 10.1676L4.97616 10.1676C4.56971 10.1676 4.27245 10.4896 4.27245 10.8926C4.27245 11.2857 4.57147 11.598 4.97616 11.598Z" fill="white" fill-opacity="0.85"/>
 </g>
</svg>
