<?xml version="1.0" encoding="UTF-8"?>
<!--Generator: Apple Native CoreSVG 341-->
<!DOCTYPE svg
PUBLIC "-//W3C//DTD SVG 1.1//EN"
       "http://www.w3.org/Graphics/SVG/1.1/DTD/svg11.dtd">
<svg version="1.1" xmlns="http://www.w3.org/2000/svg" xmlns:xlink="http://www.w3.org/1999/xlink" viewBox="0 0 24.1775 25.2707">
 <g>
  <rect height="25.2707" opacity="0" width="24.1775" x="0" y="0"/>
  <path d="M18.0952 2.88261L5.72099 2.88261C5.75663 2.04585 6.28265 1.56055 7.15234 1.56055L16.6639 1.56055C17.5336 1.56055 18.0596 2.04585 18.0952 2.88261Z" fill="white" fill-opacity="0.85"/>
  <path d="M20.07 5.78717C19.7399 5.73352 19.3903 5.70644 19.0228 5.70644L4.79335 5.70644C4.42595 5.70644 4.07642 5.73351 3.74638 5.78715C3.85387 4.80443 4.52056 4.24765 5.59745 4.24765L18.2268 4.24765C19.3037 4.24765 19.9637 4.80444 20.07 5.78717Z" fill="white" fill-opacity="0.85"/>
  <path d="M4.79335 23.6826L19.0228 23.6826C21.1307 23.6826 22.2264 22.5949 22.2264 20.5111L22.2264 10.4678C22.2264 8.38221 21.1307 7.29628 19.0228 7.29628L4.79335 7.29628C2.68379 7.29628 1.58984 8.38221 1.58984 10.4678L1.58984 20.5111C1.58984 22.5949 2.68379 23.6826 4.79335 23.6826ZM4.91229 21.7693C4.00428 21.7693 3.50311 21.293 3.50311 20.3424L3.50311 10.6347C3.50311 9.68592 4.00428 9.20955 4.91229 9.20955L18.9119 9.20955C19.8039 9.20955 20.3131 9.68592 20.3131 10.6347L20.3131 20.3424C20.3131 21.293 19.8039 21.7693 18.9119 21.7693ZM5.97518 12.8844L11.8318 12.8844C12.2205 12.8844 12.5338 12.5588 12.5338 12.1789C12.5338 11.7867 12.224 11.4699 11.8318 11.4699L5.97518 11.4699C5.56874 11.4699 5.28124 11.7902 5.28124 12.1789C5.28124 12.5605 5.5705 12.8844 5.97518 12.8844ZM5.97518 15.4201L10.1434 15.4201C10.5303 15.4201 10.8355 15.106 10.8355 14.7209C10.8355 14.3242 10.532 14.0137 10.1434 14.0137L5.97518 14.0137C5.56874 14.0137 5.28124 14.326 5.28124 14.7209C5.28124 15.106 5.5705 15.4201 5.97518 15.4201ZM16.2928 15.6416C17.5641 15.6416 18.593 14.6127 18.593 13.3299C18.593 12.0488 17.5641 11.0199 16.2928 11.0199C15.01 11.0199 13.973 12.0488 13.973 13.3299C13.973 14.6127 15.01 15.6416 16.2928 15.6416Z" fill="white" fill-opacity="0.85"/>
 </g>
</svg>
