<?xml version="1.0" encoding="UTF-8"?>
<!--Generator: Apple Native CoreSVG 341-->
<!DOCTYPE svg
PUBLIC "-//W3C//DTD SVG 1.1//EN"
       "http://www.w3.org/Graphics/SVG/1.1/DTD/svg11.dtd">
<svg version="1.1" xmlns="http://www.w3.org/2000/svg" xmlns:xlink="http://www.w3.org/1999/xlink" viewBox="0 0 23.4906 18.2316">
 <g>
  <rect height="18.2316" opacity="0" width="23.4906" x="0" y="0"/>
  <path d="M3.20351 18.2316L19.9258 18.2316C22.0416 18.2316 23.1293 17.1519 23.1293 15.0682L23.1293 3.17499C23.1293 1.08945 22.0416 0.00351548 19.9258 0.00351548L3.20351 0.00351548C1.0957 0.00351548 0 1.08945 0 3.17499L0 15.0682C0 17.1519 1.0957 18.2316 3.20351 18.2316ZM3.31444 16.3184C2.40643 16.3184 1.91327 15.8482 1.91327 14.8994L1.91327 3.34198C1.91327 2.39315 2.40643 1.91678 3.31444 1.91678L19.8148 1.91678C20.7149 1.91678 21.216 2.39315 21.216 3.34198L21.216 14.8994C21.216 15.8482 20.7149 16.3184 19.8148 16.3184Z" fill="white" fill-opacity="0.85"/>
  <path d="M4.95682 6.25721L10.8953 6.25721C11.2938 6.25721 11.607 5.92362 11.607 5.53397C11.607 5.13554 11.2955 4.82675 10.8953 4.82675L4.95682 4.82675C4.55214 4.82675 4.25487 5.13729 4.25487 5.53397C4.25487 5.92538 4.55389 6.25721 4.95682 6.25721Z" fill="white" fill-opacity="0.85"/>
  <path d="M4.95682 8.833L9.2709 8.833C9.66582 8.833 9.9791 8.51093 9.9791 8.11776C9.9791 7.72108 9.66758 7.40253 9.2709 7.40253L4.95682 7.40253C4.55214 7.40253 4.25487 7.72284 4.25487 8.11776C4.25487 8.51093 4.55389 8.833 4.95682 8.833Z" fill="white" fill-opacity="0.85"/>
  <path d="M16.5404 9.05448C17.8295 9.05448 18.8744 8.00956 18.8744 6.71073C18.8744 5.41366 17.8295 4.36698 16.5404 4.36698C15.2514 4.36698 14.1984 5.41366 14.1984 6.71073C14.1984 8.00956 15.2514 9.05448 16.5404 9.05448Z" fill="white" fill-opacity="0.85"/>
 </g>
</svg>
