<?xml version="1.0" encoding="UTF-8"?>
<!--Generator: Apple Native CoreSVG 341-->
<!DOCTYPE svg
PUBLIC "-//W3C//DTD SVG 1.1//EN"
       "http://www.w3.org/Graphics/SVG/1.1/DTD/svg11.dtd">
<svg version="1.1" xmlns="http://www.w3.org/2000/svg" xmlns:xlink="http://www.w3.org/1999/xlink" viewBox="0 0 23.4906 18.2316">
 <g>
  <rect height="18.2316" opacity="0" width="23.4906" x="0" y="0"/>
  <path d="M23.1293 3.17499L23.1293 15.0682C23.1293 17.1519 22.0416 18.2316 19.9258 18.2316L3.20351 18.2316C1.0957 18.2316 0 17.1519 0 15.0682L0 3.17499C0 1.08945 1.0957 0.00351548 3.20351 0.00351548L19.9258 0.00351548C22.0416 0.00351548 23.1293 1.08945 23.1293 3.17499ZM14.2969 6.71073C14.2969 8.02011 15.3568 9.07382 16.6582 9.07382C17.9561 9.07382 19.0098 8.02011 19.0098 6.71073C19.0098 5.40311 17.9561 4.3494 16.6582 4.3494C15.3568 4.3494 14.2969 5.40311 14.2969 6.71073ZM4.82675 7.40604C4.41855 7.40604 4.11952 7.73163 4.11952 8.13007C4.11952 8.5285 4.42031 8.85057 4.82675 8.85057L9.16368 8.85057C9.56211 8.85057 9.88067 8.5285 9.88067 8.13007C9.88067 7.72987 9.56387 7.40604 9.16368 7.40604ZM4.82675 4.81093C4.41855 4.81093 4.11952 5.12499 4.11952 5.52694C4.11952 5.92186 4.42031 6.25721 4.82675 6.25721L10.8004 6.25721C11.2006 6.25721 11.5174 5.9201 11.5174 5.52694C11.5174 5.12323 11.2023 4.81093 10.8004 4.81093Z" fill="white" fill-opacity="0.85"/>
 </g>
</svg>
