<?xml version="1.0" encoding="UTF-8"?>
<!--Generator: Apple Native CoreSVG 341-->
<!DOCTYPE svg
PUBLIC "-//W3C//DTD SVG 1.1//EN"
       "http://www.w3.org/Graphics/SVG/1.1/DTD/svg11.dtd">
<svg version="1.1" xmlns="http://www.w3.org/2000/svg" xmlns:xlink="http://www.w3.org/1999/xlink" viewBox="0 0 18.5894 18.2316">
 <g>
  <rect height="18.2316" opacity="0" width="18.5894" x="0" y="0"/>
  <path d="M18.2281 3.17148L18.2281 15.0646C18.2281 17.1502 17.1404 18.2281 15.0246 18.2281L3.20351 18.2281C1.0957 18.2281 0 17.1502 0 15.0646L0 3.17148C0 1.08769 1.0957 0 3.20351 0L15.0246 0C17.1404 0 18.2281 1.08769 18.2281 3.17148ZM13.6357 5.81034L12.133 11.3094L12.0592 11.3094L10.5324 5.80233C10.4127 5.32089 10.0721 5.06073 9.61796 5.06073C9.04863 5.06073 8.70175 5.39608 8.70175 5.95741L8.70175 12.5555C8.70175 12.9199 8.92089 13.1576 9.27909 13.1576C9.63378 13.1576 9.86093 12.9199 9.86093 12.5555L9.86093 7.10174L9.9248 7.10174L11.4141 12.4299C11.4992 12.7555 11.7033 13.0129 12.0885 13.0129C12.4621 13.0129 12.6644 12.783 12.7656 12.4139L14.2469 7.10174L14.3072 7.10174L14.3072 12.5555C14.3072 12.9199 14.5361 13.1576 14.8926 13.1576C15.2508 13.1576 15.4682 12.9199 15.4682 12.5555L15.4682 5.95741C15.4682 5.39081 15.124 5.06073 14.56 5.06073C14.0891 5.06073 13.7555 5.32968 13.6357 5.81034ZM3.46816 5.17792C3.07363 5.17792 2.8164 5.43065 2.8164 5.84296L2.8164 12.4783C2.8164 12.8906 3.06386 13.1496 3.47616 13.1496C3.88046 13.1496 4.12264 12.8906 4.12264 12.4783L4.12264 9.98222L5.20898 9.98222L6.33398 12.6373C6.46875 12.9662 6.67363 13.1496 6.9998 13.1496C7.39023 13.1496 7.62948 12.8896 7.62597 12.5547C7.62597 12.3889 7.58437 12.2648 7.4912 12.051L6.45761 9.71874C7.20526 9.34804 7.67109 8.61093 7.67109 7.5662C7.67109 6.04745 6.74531 5.17792 5.20234 5.17792ZM6.35605 7.59101C6.35605 8.41484 5.94453 8.9957 5.08886 8.9957L4.12264 8.9957L4.12264 6.21483L5.0746 6.21483C5.90019 6.21483 6.35605 6.7621 6.35605 7.59101Z" fill="white" fill-opacity="0.85"/>
 </g>
</svg>
