<?xml version="1.0" encoding="UTF-8"?>
<!--Generator: Apple Native CoreSVG 341-->
<!DOCTYPE svg
PUBLIC "-//W3C//DTD SVG 1.1//EN"
       "http://www.w3.org/Graphics/SVG/1.1/DTD/svg11.dtd">
<svg version="1.1" xmlns="http://www.w3.org/2000/svg" xmlns:xlink="http://www.w3.org/1999/xlink" viewBox="0 0 22.7515 21.4965">
 <g>
  <rect height="21.4965" opacity="0" width="22.7515" x="0" y="0"/>
  <path d="M12.481 0.359374L20.9545 5.24941C21.351 5.47734 21.5363 5.7664 21.5363 6.09277C21.5363 6.53886 21.1851 6.98046 20.5865 6.98046L19.7447 6.98046L19.7447 18.2742L20.3117 18.2742C20.7437 18.2742 20.9947 18.5297 20.9947 18.9572L20.9947 19.7158L21.499 19.7158C21.9797 19.7158 22.3902 20.1148 22.3902 20.5972C22.3902 21.0849 21.9797 21.4867 21.499 21.4867L0.881441 21.4867C0.399022 21.4867 0 21.0832 0 20.5972C0 20.1148 0.399022 19.7158 0.881441 19.7158L1.44999 19.7158L1.44999 18.9572C1.44999 18.5297 1.70898 18.2742 2.14101 18.2742L2.69999 18.2742L2.69999 6.98046L1.85995 6.98046C1.25957 6.98046 0.908396 6.53886 0.908396 6.09277C0.908396 5.7664 1.08574 5.47734 1.49023 5.24941L9.96366 0.359374C10.3523 0.125976 10.7969 0 11.2183 0C11.6398 0 12.0764 0.125976 12.481 0.359374ZM15.4982 8.43611L14.0728 13.665L14.0008 13.665L12.5531 8.43611C12.4351 7.97771 12.114 7.72732 11.683 7.72732C11.1447 7.72732 10.8094 8.04314 10.8094 8.58142L10.8094 14.8473C10.8094 15.1904 11.017 15.4246 11.3637 15.4246C11.6988 15.4246 11.9144 15.1904 11.9144 14.8473L11.9144 9.66189L11.9685 9.66189L13.3867 14.7279C13.4701 15.0322 13.6644 15.2879 14.0283 15.2879C14.3824 15.2879 14.575 15.0615 14.6664 14.7119L16.0846 9.66189L16.1369 9.66189L16.1369 14.8473C16.1369 15.1904 16.356 15.4246 16.6912 15.4246C17.0281 15.4246 17.242 15.1904 17.242 14.8473L17.242 8.58142C17.242 8.03787 16.9111 7.72732 16.3781 7.72732C15.9285 7.72732 15.6144 7.98474 15.4982 8.43611ZM5.83592 7.83474C5.46268 7.83474 5.21698 8.07771 5.21698 8.46697L5.21698 14.7781C5.21698 15.1594 5.45467 15.4166 5.84393 15.4166C6.23319 15.4166 6.4576 15.1594 6.4576 14.7781L6.4576 12.4064L7.50038 12.4064L8.5623 14.9273C8.6953 15.2349 8.88241 15.4166 9.19354 15.4166C9.56444 15.4166 9.79217 15.1664 9.78866 14.8447C9.78866 14.6887 9.74881 14.5762 9.66366 14.3721L8.68338 12.1527C9.38572 11.8051 9.83377 11.0972 9.83377 10.1076C9.83377 8.66697 8.95682 7.83474 7.49022 7.83474ZM8.58437 10.1306C8.58437 10.9189 8.19061 11.4642 7.37225 11.4642L6.4576 11.4642L6.4576 8.82732L7.366 8.82732C8.15429 8.82732 8.58437 9.33904 8.58437 10.1306Z" fill="white" fill-opacity="0.85"/>
 </g>
</svg>
