<?xml version="1.0" encoding="UTF-8"?>
<!--Generator: Apple Native CoreSVG 341-->
<!DOCTYPE svg
PUBLIC "-//W3C//DTD SVG 1.1//EN"
       "http://www.w3.org/Graphics/SVG/1.1/DTD/svg11.dtd">
<svg version="1.1" xmlns="http://www.w3.org/2000/svg" xmlns:xlink="http://www.w3.org/1999/xlink" viewBox="0 0 30.7023 18.4719">
 <g>
  <rect height="18.4719" opacity="0" width="30.7023" x="0" y="0"/>
  <path d="M1.25956 18.4301C2.04686 18.4301 2.50408 17.927 2.50408 17.1404L2.50408 11.0656L5.4121 11.0656C5.51249 11.0656 5.61913 11.0576 5.71953 11.0576L8.75313 17.5108C9.02852 18.1314 9.35391 18.4381 10.0443 18.4381C10.7705 18.4381 11.2738 17.95 11.265 17.2654C11.265 16.9733 11.1242 16.6367 10.9931 16.3764L8.17595 10.5658C10.2428 9.75918 11.3168 7.88867 11.3168 5.62519C11.3168 2.20352 9.05115 0.246679 5.60624 0.246679L1.2453 0.246679C0.459762 0.246679 0 0.742769 0 1.54608L0 17.1404C0 17.9803 0.517575 18.4301 1.25956 18.4301ZM2.50408 9.06934L2.50408 2.33553L5.33319 2.33553C7.40254 2.33553 8.7711 3.52186 8.7711 5.68906C8.7711 7.83301 7.53594 9.06934 5.38573 9.06934ZM15.5756 18.4541C16.3064 18.4541 16.714 17.9996 16.714 17.2688L16.714 4.15759L16.8373 4.15759L21.0135 17.0004C21.2361 17.7195 21.6902 18.1436 22.4023 18.1436C23.1101 18.1436 23.558 17.7025 23.7681 16.9861L27.9586 4.15759L28.064 4.15759L28.064 17.2688C28.064 18.0316 28.5019 18.4541 29.1927 18.4541C29.9334 18.4541 30.341 18.0111 30.341 17.2688L30.341 1.71698C30.341 0.649605 29.6666 0 28.5992 0C27.6336 0 27.0594 0.503709 26.7926 1.433L22.4949 14.8766L22.333 14.8766L17.9705 1.42499C17.6841 0.48242 17.1455 0 16.1754 0C15.076 0 14.4451 0.721676 14.4451 1.70897L14.4451 17.2688C14.4451 17.9836 14.8527 18.4541 15.5756 18.4541Z" fill="white" fill-opacity="0.85"/>
 </g>
</svg>
