<?xml version="1.0" encoding="UTF-8"?>
<!--Generator: Apple Native CoreSVG 341-->
<!DOCTYPE svg
PUBLIC "-//W3C//DTD SVG 1.1//EN"
       "http://www.w3.org/Graphics/SVG/1.1/DTD/svg11.dtd">
<svg version="1.1" xmlns="http://www.w3.org/2000/svg" xmlns:xlink="http://www.w3.org/1999/xlink" viewBox="0 0 22.7515 21.4965">
 <g>
  <rect height="21.4965" opacity="0" width="22.7515" x="0" y="0"/>
  <path d="M1.44999 18.9656L20.9947 18.9656L20.9947 18.2322C20.9947 17.8064 20.7437 17.551 20.3117 17.551L19.7447 17.551L19.7447 6.98046L20.5865 6.98046C21.1851 6.98046 21.5363 6.53886 21.5363 6.09277C21.5363 5.7664 21.351 5.47734 20.9545 5.24941L12.481 0.359374C12.0764 0.125976 11.6398 0 11.2183 0C10.7969 0 10.3523 0.125976 9.96366 0.359374L1.49023 5.24941C1.08574 5.47734 0.908396 5.7664 0.908396 6.09277C0.908396 6.53886 1.25957 6.98046 1.85995 6.98046L2.69999 6.98046L2.69999 17.551L2.14101 17.551C1.70898 17.551 1.44999 17.8064 1.44999 18.2322ZM4.32401 17.551L4.32401 5.67245L10.8779 1.99999C10.9846 1.93866 11.1072 1.90487 11.2183 1.90487C11.333 1.90487 11.4521 1.93866 11.5668 1.99999L18.1207 5.67245L18.1207 17.551ZM0.881441 21.4867L21.499 21.4867C21.9797 21.4867 22.3902 21.0849 22.3902 20.5972C22.3902 20.1148 21.9797 19.7158 21.499 19.7158L0.881441 19.7158C0.399022 19.7158 0 20.1148 0 20.5972C0 21.0832 0.399022 21.4867 0.881441 21.4867Z" fill="white" fill-opacity="0.85"/>
  <path d="M6.04686 14.2764C6.42107 14.2764 6.63396 14.0387 6.63396 13.6662L6.63396 11.3664L7.63768 11.3664L8.67655 13.8137C8.79003 14.1143 8.98163 14.2764 9.27323 14.2764C9.62108 14.2764 9.85155 14.0475 9.84627 13.7328C9.84627 13.5865 9.80643 13.4793 9.71502 13.2832L8.77381 11.134C9.45311 10.7933 9.88163 10.1246 9.88163 9.16952C9.88163 7.78026 9.03299 6.97283 7.62752 6.97283L6.03885 6.97283C5.68241 6.97283 5.44999 7.21053 5.44999 7.58299L5.44999 13.6662C5.44999 14.0387 5.6744 14.2764 6.04686 14.2764ZM6.63396 10.4721L6.63396 7.92381L7.52108 7.92381C8.27206 7.92381 8.69862 8.42225 8.69862 9.1908C8.69862 9.94178 8.30839 10.4721 7.52733 10.4721ZM11.3601 14.2844C11.682 14.2844 11.8861 14.0697 11.8861 13.7318L11.8861 8.72654L11.9385 8.72654L13.306 13.6223C13.3877 13.9133 13.5785 14.1557 13.9291 14.1557C14.2637 14.1557 14.4447 13.9408 14.5441 13.6045L15.91 8.72654L15.9605 8.72654L15.9605 13.7318C15.9605 14.0697 16.1682 14.2844 16.4883 14.2844C16.8101 14.2844 17.0142 14.0697 17.0142 13.7318L17.0142 7.68768C17.0142 7.17244 16.6967 6.87518 16.1902 6.87518C15.7574 6.87518 15.4646 7.12108 15.3502 7.54588L13.9691 12.6045L13.8953 12.6045L12.4965 7.54588C12.3803 7.11405 12.0742 6.87518 11.6662 6.87518C11.1482 6.87518 10.8342 7.17772 10.8342 7.68768L10.8342 13.7318C10.8342 14.0697 11.032 14.2844 11.3601 14.2844Z" fill="white" fill-opacity="0.85"/>
 </g>
</svg>
