<?xml version="1.0" encoding="UTF-8"?>
<!--Generator: Apple Native CoreSVG 341-->
<!DOCTYPE svg
PUBLIC "-//W3C//DTD SVG 1.1//EN"
       "http://www.w3.org/Graphics/SVG/1.1/DTD/svg11.dtd">
<svg version="1.1" xmlns="http://www.w3.org/2000/svg" xmlns:xlink="http://www.w3.org/1999/xlink" viewBox="0 0 20.5381 20.1848">
 <g>
  <rect height="20.1848" opacity="0" width="20.5381" x="0" y="0"/>
  <path d="M10.0875 20.175C15.6576 20.175 20.1767 15.6559 20.1767 10.0875C20.1767 4.51914 15.6576 0 10.0875 0C4.51914 0 0 4.51914 0 10.0875C0 15.6559 4.51914 20.175 10.0875 20.175ZM10.0875 18.1879C5.60839 18.1879 1.9871 14.5666 1.9871 10.0875C1.9871 5.60839 5.60839 1.9871 10.0875 1.9871C14.5666 1.9871 18.1897 5.60839 18.1897 10.0875C18.1897 14.5666 14.5666 18.1879 10.0875 18.1879Z" fill="white" fill-opacity="0.85"/>
  <path d="M4.67225 13.95C5.05448 13.95 5.27362 13.7043 5.27362 13.3141L5.27362 10.9119L6.32714 10.9119L7.41582 13.4713C7.53554 13.7799 7.73691 13.95 8.04277 13.95C8.40839 13.95 8.63886 13.7051 8.63359 13.3904C8.63359 13.2361 8.59374 13.1191 8.50234 12.9168L7.50507 10.6617C8.21464 10.3131 8.67694 9.6123 8.67694 8.60741C8.67694 7.1621 7.78827 6.32264 6.31698 6.32264L4.65448 6.32264C4.28202 6.32264 4.04784 6.56659 4.04784 6.94881L4.04784 13.3141C4.04784 13.7043 4.27401 13.95 4.67225 13.95ZM5.27362 9.97578L5.27362 7.30565L6.20253 7.30565C6.99355 7.30565 7.43789 7.82811 7.43789 8.63046C7.43789 9.42148 7.02988 9.97578 6.20878 9.97578ZM10.2133 13.958C10.5512 13.958 10.7633 13.7354 10.7633 13.3895L10.7633 8.14041L10.8236 8.14041L12.2473 13.2719C12.3369 13.5789 12.5295 13.8213 12.8961 13.8213C13.2467 13.8213 13.4357 13.6064 13.5432 13.2541L14.9668 8.14041L15.0254 8.14041L15.0254 13.3895C15.0254 13.7354 15.2393 13.958 15.5771 13.958C15.915 13.958 16.1191 13.7354 16.1191 13.3895L16.1191 7.05975C16.1191 6.5285 15.7936 6.21522 15.2613 6.21522C14.8125 6.21522 14.5055 6.47089 14.3893 6.91971L12.9424 12.2123L12.8703 12.2123L11.3994 6.91171C11.2814 6.4621 10.9594 6.21522 10.5353 6.21522C9.99335 6.21522 9.66953 6.53553 9.66953 7.05975L9.66953 13.3895C9.66953 13.7354 9.87539 13.958 10.2133 13.958Z" fill="white" fill-opacity="0.85"/>
 </g>
</svg>
