<?xml version="1.0" encoding="UTF-8"?>
<!--Generator: Apple Native CoreSVG 341-->
<!DOCTYPE svg
PUBLIC "-//W3C//DTD SVG 1.1//EN"
       "http://www.w3.org/Graphics/SVG/1.1/DTD/svg11.dtd">
<svg version="1.1" xmlns="http://www.w3.org/2000/svg" xmlns:xlink="http://www.w3.org/1999/xlink" viewBox="0 0 24.2049 19.8808">
 <g>
  <rect height="19.8808" opacity="0" width="24.2049" x="0" y="0"/>
  <path d="M23.8435 11.9178C23.8435 9.01855 22.8031 6.3457 21.0623 4.27031C20.8547 4.02011 20.498 4.02011 20.2621 4.2623L17.9578 6.56484C17.7547 6.76796 17.7467 7.05097 17.9232 7.27363C18.9185 8.56269 19.517 10.1768 19.517 11.9178C19.517 13.6826 18.9115 15.3107 17.8488 16.6611C17.6945 16.8535 17.7025 17.0982 17.8719 17.2756L20.2242 19.6279C20.4646 19.8683 20.8133 19.8683 21.0359 19.6066C22.7908 17.5277 23.8435 14.8443 23.8435 11.9178Z" fill="white" fill-opacity="0.85"/>
  <path d="M11.9178 4.32656C13.6783 4.32656 15.2941 4.933 16.5912 5.93183C16.8041 6.09863 17.0791 6.0791 17.2787 5.87773L19.5812 3.57343C19.8252 3.33125 19.8154 2.9791 19.5582 2.76797C17.4926 1.04043 14.8232 0 11.9178 0C9.02031 0 6.35097 1.04043 4.28711 2.76797C4.02988 2.9791 4.01836 3.33125 4.2623 3.57343L6.56484 5.87773C6.76445 6.0791 7.05097 6.09863 7.28163 5.92207C8.56894 4.933 10.1768 4.32656 11.9178 4.32656Z" fill="white" fill-opacity="0.85"/>
  <path d="M0 11.9178C0 14.8461 1.05625 17.5348 2.81465 19.6137C3.02402 19.8719 3.3789 19.8683 3.61308 19.6279L5.96367 17.2756C6.133 17.0982 6.15077 16.8535 5.99472 16.6611C4.93378 15.3107 4.32656 13.6826 4.32656 11.9178C4.32656 10.1768 4.91699 8.56269 5.92031 7.27363C6.08886 7.05097 6.08886 6.76796 5.88574 6.56484L3.58144 4.2623C3.33926 4.02011 2.98711 4.02187 2.77422 4.2791C1.03867 6.35097 0 9.02031 0 11.9178Z" fill="white" fill-opacity="0.85"/>
  <path d="M7.00643 15.5061C7.35761 15.5061 7.55897 15.2719 7.55897 14.9287L7.55897 12.7533L8.51288 12.7533L9.49043 15.0664C9.60214 15.3475 9.78398 15.5061 10.0605 15.5061C10.3969 15.5061 10.6078 15.2789 10.6043 14.9873C10.6043 14.8508 10.5644 14.7436 10.4828 14.5607L9.58514 12.5244C10.2254 12.2033 10.6379 11.5719 10.6379 10.6621C10.6379 9.34472 9.83808 8.59062 8.50097 8.59062L6.99667 8.59062C6.65351 8.59062 6.44062 8.80878 6.44062 9.15995L6.44062 14.9287C6.44062 15.2719 6.65351 15.5061 7.00643 15.5061ZM7.55897 11.8936L7.55897 9.48925L8.39452 9.48925C9.10996 9.48925 9.5125 9.95214 9.5125 10.6851C9.5125 11.4006 9.14628 11.8936 8.40077 11.8936ZM12.04 15.5061C12.3486 15.5061 12.535 15.3029 12.535 14.9863L12.535 10.2414L12.5855 10.2414L13.882 14.883C13.9619 15.1625 14.1367 15.3871 14.466 15.3871C14.7891 15.3871 14.9603 15.19 15.05 14.867L16.3447 10.2414L16.3953 10.2414L16.3953 14.9863C16.3953 15.3029 16.5914 15.5061 16.9 15.5061C17.2006 15.5061 17.3949 15.3029 17.3949 14.9863L17.3949 9.26288C17.3949 8.77069 17.0969 8.49296 16.6135 8.49296C16.202 8.49296 15.9225 8.72108 15.816 9.13085L14.506 13.9211L14.4402 13.9211L13.1142 9.12284C13.006 8.71405 12.7195 8.49296 12.3248 8.49296C11.8396 8.49296 11.5353 8.78397 11.5353 9.26288L11.5353 14.9863C11.5353 15.3029 11.7314 15.5061 12.04 15.5061Z" fill="white" fill-opacity="0.85"/>
 </g>
</svg>
