<?xml version="1.0" encoding="UTF-8"?>
<!--Generator: Apple Native CoreSVG 341-->
<!DOCTYPE svg
PUBLIC "-//W3C//DTD SVG 1.1//EN"
       "http://www.w3.org/Graphics/SVG/1.1/DTD/svg11.dtd">
<svg version="1.1" xmlns="http://www.w3.org/2000/svg" xmlns:xlink="http://www.w3.org/1999/xlink" viewBox="0 0 18.5894 18.2316">
 <g>
  <rect height="18.2316" opacity="0" width="18.5894" x="0" y="0"/>
  <path d="M18.2281 3.17148L18.2281 15.0646C18.2281 17.1502 17.1404 18.2281 15.0246 18.2281L3.20351 18.2281C1.0957 18.2281 0 17.1502 0 15.0646L0 3.17148C0 1.08769 1.0957 0 3.20351 0L15.0246 0C17.1404 0 18.2281 1.08769 18.2281 3.17148ZM8.69628 4.45214L8.69628 5.55234C6.55898 5.76718 5.50937 7.51699 5.50937 9.85683L5.50937 12.8139C5.50937 13.2473 5.77617 13.5301 6.21132 13.5301C6.63866 13.5301 6.91952 13.2648 6.91952 12.8139L6.91952 9.89531C6.91952 8.34784 7.40019 7.05526 8.69628 6.82088L8.69628 13.0768C8.69628 13.3545 8.86757 13.5195 9.14003 13.5195C9.40449 13.5195 9.56777 13.3545 9.56777 13.0768L9.56777 6.81288C10.9199 7.02147 11.3908 8.33808 11.3908 9.89531L11.3908 12.8139C11.3908 13.2473 11.6594 13.5301 12.1008 13.5301C12.5254 13.5301 12.8027 13.256 12.8027 12.8139L12.8027 9.85683C12.8027 7.49296 11.7371 5.74316 9.56777 5.55234L9.56777 4.45214C9.56777 4.18242 9.40449 4.0121 9.14003 4.0121C8.86757 4.0121 8.69628 4.18242 8.69628 4.45214Z" fill="white" fill-opacity="0.85"/>
 </g>
</svg>
