<?xml version="1.0" encoding="UTF-8"?>
<!--Generator: Apple Native CoreSVG 341-->
<!DOCTYPE svg
PUBLIC "-//W3C//DTD SVG 1.1//EN"
       "http://www.w3.org/Graphics/SVG/1.1/DTD/svg11.dtd">
<svg version="1.1" xmlns="http://www.w3.org/2000/svg" xmlns:xlink="http://www.w3.org/1999/xlink" viewBox="0 0 22.7515 21.4965">
 <g>
  <rect height="21.4965" opacity="0" width="22.7515" x="0" y="0"/>
  <path d="M12.481 0.359374L20.9545 5.24941C21.351 5.47734 21.5363 5.7664 21.5363 6.09277C21.5363 6.53886 21.1851 6.98046 20.5865 6.98046L19.7447 6.98046L19.7447 18.2742L20.3117 18.2742C20.7437 18.2742 20.9947 18.5297 20.9947 18.9572L20.9947 19.7158L21.499 19.7158C21.9797 19.7158 22.3902 20.1148 22.3902 20.5972C22.3902 21.0849 21.9797 21.4867 21.499 21.4867L0.881441 21.4867C0.399022 21.4867 0 21.0832 0 20.5972C0 20.1148 0.399022 19.7158 0.881441 19.7158L1.44999 19.7158L1.44999 18.9572C1.44999 18.5297 1.70898 18.2742 2.14101 18.2742L2.69999 18.2742L2.69999 6.98046L1.85995 6.98046C1.25957 6.98046 0.908396 6.53886 0.908396 6.09277C0.908396 5.7664 1.08574 5.47734 1.49023 5.24941L9.96366 0.359374C10.3523 0.125976 10.7969 0 11.2183 0C11.6398 0 12.0764 0.125976 12.481 0.359374ZM10.7844 6.91893L10.7844 8.01912C8.63905 8.22596 7.5957 9.98377 7.5957 12.3236L7.5957 15.2726C7.5957 15.714 7.85624 15.9888 8.2994 15.9888C8.72674 15.9888 9.0076 15.7299 9.0076 15.2726L9.0076 12.3541C9.0076 10.8129 9.48827 9.52204 10.7844 9.28767L10.7844 15.5338C10.7844 15.8133 10.9557 15.9783 11.2281 15.9783C11.4908 15.9783 11.6558 15.8133 11.6558 15.5338L11.6558 9.27966C13.008 9.48825 13.4789 10.8049 13.4789 12.3541L13.4789 15.2726C13.4789 15.714 13.7475 15.9888 14.1808 15.9888C14.6135 15.9888 14.8908 15.7228 14.8908 15.2726L14.8908 12.3236C14.8908 9.95975 13.8172 8.20818 11.6558 8.01912L11.6558 6.91893C11.6558 6.6492 11.4908 6.47889 11.2281 6.47889C10.9557 6.47889 10.7844 6.6492 10.7844 6.91893Z" fill="white" fill-opacity="0.85"/>
 </g>
</svg>
