<?xml version="1.0" encoding="UTF-8"?>
<!--Generator: Apple Native CoreSVG 341-->
<!DOCTYPE svg
PUBLIC "-//W3C//DTD SVG 1.1//EN"
       "http://www.w3.org/Graphics/SVG/1.1/DTD/svg11.dtd">
<svg version="1.1" xmlns="http://www.w3.org/2000/svg" xmlns:xlink="http://www.w3.org/1999/xlink" viewBox="0 0 22.301 21.9477">
 <g>
  <rect height="21.9477" opacity="0" width="22.301" x="0" y="0"/>
  <path d="M10.9689 21.9379C16.9984 21.9379 21.9396 16.9984 21.9396 10.9689C21.9396 4.93945 16.9984 0 10.9689 0C4.93945 0 0 4.93945 0 10.9689C0 16.9984 4.93945 21.9379 10.9689 21.9379ZM10.9689 18.2242C6.96133 18.2242 3.71367 14.9766 3.71367 10.9689C3.71367 6.95332 6.96133 3.71367 10.9689 3.71367C14.9846 3.71367 18.226 6.95332 18.226 10.9689C18.226 14.9766 14.9846 18.2242 10.9689 18.2242Z" fill="white" fill-opacity="0.85"/>
  <path d="M8.15097 15.2145C8.56328 15.2145 8.82734 14.9625 8.82734 14.5301L8.82734 11.7152C8.82734 10.0603 9.39589 8.71444 10.977 8.71444C12.5998 8.71444 13.1426 10.0684 13.1426 11.7152L13.1426 14.5301C13.1426 14.9467 13.3961 15.2145 13.8207 15.2145C14.2187 15.2145 14.4891 14.9537 14.4891 14.5301L14.4891 11.683C14.4891 9.26484 13.3293 7.51933 10.977 7.51933C8.62637 7.51933 7.48262 9.29062 7.48262 11.683L7.48262 14.5301C7.48262 14.9467 7.73613 15.2145 8.15097 15.2145ZM10.9689 15.2057C11.2219 15.2057 11.3834 15.0424 11.3834 14.7762L11.3834 6.48476C11.3834 6.22656 11.2219 6.06152 10.9689 6.06152C10.7098 6.06152 10.5482 6.22656 10.5482 6.48476L10.5482 14.7762C10.5482 15.0424 10.7098 15.2057 10.9689 15.2057Z" fill="white" fill-opacity="0.85"/>
 </g>
</svg>
