<?xml version="1.0" encoding="UTF-8"?>
<!--Generator: Apple Native CoreSVG 341-->
<!DOCTYPE svg
PUBLIC "-//W3C//DTD SVG 1.1//EN"
       "http://www.w3.org/Graphics/SVG/1.1/DTD/svg11.dtd">
<svg version="1.1" xmlns="http://www.w3.org/2000/svg" xmlns:xlink="http://www.w3.org/1999/xlink" viewBox="0 0 20.5381 20.1848">
 <g>
  <rect height="20.1848" opacity="0" width="20.5381" x="0" y="0"/>
  <path d="M20.1767 10.0875C20.1767 15.6478 15.6576 20.175 10.0875 20.175C4.52715 20.175 0 15.6478 0 10.0875C0 4.51914 4.52715 0 10.0875 0C15.6576 0 20.1767 4.51914 20.1767 10.0875ZM9.64375 5.4287L9.64375 6.5289C7.50644 6.74374 6.45684 8.49355 6.45684 10.8334L6.45684 13.7904C6.45684 14.2238 6.71738 14.5066 7.15878 14.5066C7.58788 14.5066 7.86874 14.2414 7.86874 13.7904L7.86874 10.8719C7.86874 9.3244 8.34941 8.03182 9.64375 7.79745L9.64375 14.0533C9.64375 14.331 9.81679 14.4961 10.0875 14.4961C10.3519 14.4961 10.5152 14.331 10.5152 14.0533L10.5152 7.78944C11.8691 7.99803 12.3383 9.31464 12.3383 10.8719L12.3383 13.7904C12.3383 14.2238 12.6068 14.5066 13.05 14.5066C13.4728 14.5066 13.7519 14.2326 13.7519 13.7904L13.7519 10.8334C13.7519 8.46952 12.6766 6.71972 10.5152 6.5289L10.5152 5.4287C10.5152 5.15898 10.3519 4.98867 10.0875 4.98867C9.81679 4.98867 9.64375 5.15898 9.64375 5.4287Z" fill="white" fill-opacity="0.85"/>
 </g>
</svg>
