<?xml version="1.0" encoding="UTF-8"?>
<!--Generator: Apple Native CoreSVG 341-->
<!DOCTYPE svg
PUBLIC "-//W3C//DTD SVG 1.1//EN"
       "http://www.w3.org/Graphics/SVG/1.1/DTD/svg11.dtd">
<svg version="1.1" xmlns="http://www.w3.org/2000/svg" xmlns:xlink="http://www.w3.org/1999/xlink" viewBox="0 0 24.2049 19.7961">
 <g>
  <rect height="19.7961" opacity="0" width="24.2049" x="0" y="0"/>
  <path d="M23.8435 11.8701C23.8435 5.64747 19.073 0.538875 12.9941 0.00293831C12.6553-0.029874 12.3998 0.215828 12.3998 0.554694L12.3998 3.8043C12.3998 4.08907 12.6012 4.30645 12.8842 4.33301C16.6191 4.80957 19.517 8.00293 19.517 11.8701C19.517 13.6332 18.9115 15.2613 17.8488 16.61C17.6945 16.8023 17.7025 17.0471 17.8719 17.2244L20.2322 19.5785C20.4646 19.8144 20.823 19.8109 21.0359 19.559C22.7926 17.4783 23.8435 14.7949 23.8435 11.8701Z" fill="white" fill-opacity="0.85"/>
  <path d="M0 11.8701C0 14.8029 1.05098 17.4863 2.80586 19.5652C3.01875 19.8172 3.36914 19.8109 3.61132 19.5768L5.96992 17.2227C6.13925 17.0453 6.14726 16.8006 5.99296 16.6082C4.92578 15.2613 4.32656 13.6332 4.32656 11.8701C4.32656 8.00293 7.22617 4.80957 10.9594 4.33301C11.2441 4.30645 11.4437 4.08907 11.4437 3.8043L11.4437 0.554694C11.4437 0.215828 11.1883-0.029874 10.8494 0.00293831C4.77226 0.538875 0 5.64747 0 11.8701Z" fill="white" fill-opacity="0.85"/>
  <path d="M9.09179 16.1986C9.50409 16.1986 9.76815 15.9547 9.76815 15.5143L9.76815 12.6994C9.76815 11.0525 10.3367 9.69863 11.9258 9.69863C13.5406 9.69863 14.0834 11.0605 14.0834 12.6994L14.0834 15.5143C14.0834 15.9389 14.3369 16.1986 14.7598 16.1986C15.1676 16.1986 15.4299 15.9459 15.4299 15.5143L15.4299 12.6672C15.4299 10.2588 14.2701 8.50352 11.9258 8.50352C9.56718 8.50352 8.42168 10.2748 8.42168 12.6672L8.42168 15.5143C8.42168 15.9389 8.68496 16.1986 9.09179 16.1986ZM11.9098 16.1898C12.1609 16.1898 12.3225 16.0266 12.3225 15.7604L12.3225 7.46895C12.3225 7.2125 12.1609 7.0457 11.9098 7.0457C11.6506 7.0457 11.4891 7.2125 11.4891 7.46895L11.4891 15.7604C11.4891 16.0266 11.6506 16.1898 11.9098 16.1898Z" fill="white" fill-opacity="0.85"/>
 </g>
</svg>
