<?xml version="1.0" encoding="UTF-8"?>
<!--Generator: Apple Native CoreSVG 341-->
<!DOCTYPE svg
PUBLIC "-//W3C//DTD SVG 1.1//EN"
       "http://www.w3.org/Graphics/SVG/1.1/DTD/svg11.dtd">
<svg version="1.1" xmlns="http://www.w3.org/2000/svg" xmlns:xlink="http://www.w3.org/1999/xlink" viewBox="0 0 20.5381 20.1848">
 <g>
  <rect height="20.1848" opacity="0" width="20.5381" x="0" y="0"/>
  <path d="M20.1767 10.0875C20.1767 15.6559 15.6576 20.175 10.0875 20.175C4.51914 20.175 0 15.6559 0 10.0875C0 4.51914 4.51914 0 10.0875 0C15.6576 0 20.1767 4.51914 20.1767 10.0875ZM1.9871 10.0875C1.9871 14.5666 5.60839 18.1879 10.0875 18.1879C14.5666 18.1879 18.1897 14.5666 18.1897 10.0875C18.1897 5.60839 14.5666 1.9871 10.0875 1.9871C5.60839 1.9871 1.9871 5.60839 1.9871 10.0875Z" fill="white" fill-opacity="0.85"/>
  <path d="M10.8191 12.49L10.8191 13.5164C10.8191 14.8545 10.5445 16.108 10.0795 16.108C9.6207 16.108 9.33008 14.8367 9.33008 13.5164L9.33008 11.001ZM12.3869 6.57577C12.3869 7.58944 11.7344 8.45038 10.8191 8.74842L10.8191 9.13809L7.81532 6.13707C8.02084 5.07409 8.96249 4.27145 10.0795 4.26835C11.3539 4.26659 12.3869 5.2996 12.3869 6.57577ZM8.7791 5.96796C8.7791 6.36464 9.12167 6.70722 9.50859 6.70722C9.91328 6.70722 10.2478 6.36464 10.2478 5.96796C10.2478 5.57128 9.91328 5.2287 9.50859 5.2287C9.12167 5.2287 8.77109 5.57128 8.7791 5.96796Z" fill="white" fill-opacity="0.85"/>
  <path d="M14.065 14.7355C14.2486 14.9174 14.568 14.9271 14.7516 14.7355C14.9449 14.5439 14.9449 14.2406 14.7516 14.0473L6.14549 5.43319C5.94413 5.23983 5.63905 5.23983 5.44745 5.43319C5.25409 5.62479 5.25409 5.93612 5.44745 6.11971Z" fill="white" fill-opacity="0.85"/>
 </g>
</svg>
