<?xml version="1.0" encoding="UTF-8"?>
<!--Generator: Apple Native CoreSVG 341-->
<!DOCTYPE svg
PUBLIC "-//W3C//DTD SVG 1.1//EN"
       "http://www.w3.org/Graphics/SVG/1.1/DTD/svg11.dtd">
<svg version="1.1" xmlns="http://www.w3.org/2000/svg" xmlns:xlink="http://www.w3.org/1999/xlink" viewBox="0 0 20.5381 20.1848">
 <g>
  <rect height="20.1848" opacity="0" width="20.5381" x="0" y="0"/>
  <path d="M20.1767 10.0973C20.1767 15.6656 15.6576 20.1848 10.0875 20.1848C4.52715 20.1848 0 15.6656 0 10.0973C0 4.53691 4.52715 0.00976562 10.0875 0.00976562C15.6576 0.00976562 20.1767 4.53691 20.1767 10.0973ZM7.68086 6.45077C7.68086 7.51229 8.36621 8.39803 9.3 8.71112L9.3 13.6492C9.3 15.0201 9.6039 16.357 10.0875 16.357C10.5756 16.357 10.867 15.0477 10.867 13.6492L10.867 8.71463C11.8105 8.40956 12.4959 7.5203 12.4959 6.45077C12.4959 5.12148 11.415 4.05038 10.0875 4.05214C8.76797 4.0539 7.68086 5.12675 7.68086 6.45077ZM10.2594 5.82441C10.2594 6.23437 9.91328 6.59198 9.49179 6.59198C9.09335 6.59198 8.73574 6.23437 8.73574 5.82441C8.72773 5.40468 9.09335 5.04882 9.49179 5.04882C9.91328 5.04882 10.2594 5.40468 10.2594 5.82441Z" fill="white" fill-opacity="0.85"/>
 </g>
</svg>
