<?xml version="1.0" encoding="UTF-8"?>
<!--Generator: Apple Native CoreSVG 341-->
<!DOCTYPE svg
PUBLIC "-//W3C//DTD SVG 1.1//EN"
       "http://www.w3.org/Graphics/SVG/1.1/DTD/svg11.dtd">
<svg version="1.1" xmlns="http://www.w3.org/2000/svg" xmlns:xlink="http://www.w3.org/1999/xlink" viewBox="0 0 19.4146 22.7953">
 <g>
  <rect height="22.7953" opacity="0" width="19.4146" x="0" y="0"/>
  <path d="M4.14073 13.3902L5.38779 12.0689L1.93935 5.33241L3.37803 3.13826L7.40245 11.04L9.23427 10.5795L4.58017 1.96073L14.4732 1.96073L9.8208 10.5795L11.6509 11.04L15.677 3.13826L17.1237 5.33241L13.6655 12.0689L14.9126 13.3902L18.9104 5.93983C19.1224 5.56659 19.1091 5.13046 18.8724 4.78203L16.1731 0.671286C15.9382 0.344139 15.6448 0.19082 15.2095 0.19082L3.85186 0.19082C3.41026 0.19082 3.11514 0.344139 2.88995 0.671286L0.180966 4.78203C-0.0459859 5.13046-0.0610247 5.56659 0.144638 5.93983ZM5.78018 6.408L13.2847 6.408L13.2847 4.68027L5.78018 4.68027ZM9.53154 22.7953C13.1599 22.7953 16.0985 19.8566 16.0985 16.2283C16.0985 12.592 13.1599 9.65508 9.53154 9.65508C5.89522 9.65508 2.95655 12.592 2.95655 16.2283C2.95655 19.8566 5.89522 22.7953 9.53154 22.7953ZM9.53154 21.0254C6.87724 21.0254 4.72646 18.8826 4.72646 16.2283C4.72646 13.5758 6.86924 11.425 9.53154 11.425C12.1761 11.425 14.3286 13.5678 14.3286 16.2283C14.3286 18.8746 12.1841 21.0254 9.53154 21.0254ZM7.85322 19.3037L9.53955 18.0738L11.2063 19.3037C11.5933 19.5814 11.9872 19.2957 11.8417 18.8574L11.1694 16.8691L12.8718 15.6508C13.2134 15.4121 13.1114 14.917 12.6366 14.9187L10.5507 14.9383L9.91221 12.9402C9.77646 12.5055 9.28486 12.5055 9.14912 12.9402L8.50889 14.9383L6.42646 14.9187C5.95791 14.917 5.83818 15.4041 6.1958 15.6588L7.89014 16.8709L7.22588 18.8574C7.07861 19.2922 7.47432 19.5797 7.85322 19.3037Z" fill="white" fill-opacity="0.85"/>
 </g>
</svg>
