<?xml version="1.0" encoding="UTF-8"?>
<!--Generator: Apple Native CoreSVG 341-->
<!DOCTYPE svg
PUBLIC "-//W3C//DTD SVG 1.1//EN"
       "http://www.w3.org/Graphics/SVG/1.1/DTD/svg11.dtd">
<svg version="1.1" xmlns="http://www.w3.org/2000/svg" xmlns:xlink="http://www.w3.org/1999/xlink" viewBox="0 0 14.8695 24.9437">
 <g>
  <rect height="24.9437" opacity="0" width="14.8695" x="0" y="0"/>
  <path d="M9.09237 13.0174L9.01932 12.7896C8.43729 10.9779 6.07538 10.9779 5.49335 12.7931L5.40605 13.0656L5.40605 0.953678L9.09237 0.953678ZM14.5082 2.72848L14.5082 8.71285C14.5082 9.56812 14.251 10.0826 13.59 10.5359L10.8664 12.4177L10.8664 0.953678L12.7351 0.953678C13.7525 0.953678 14.5082 1.70309 14.5082 2.72848ZM3.63379 12.4115L0.918161 10.5359C0.266991 10.0861 0 9.57964 0 8.71285L0 2.72848C0 1.70309 0.747653 0.953678 1.77128 0.953678L3.63379 0.953678Z" fill="white" fill-opacity="0.85"/>
  <path d="M4.49491 23.5507L7.25722 21.5201L10.0213 23.5507C10.6088 23.9927 11.2459 23.5505 11.0135 22.8373L9.92128 19.5777L12.7094 17.5843C13.2357 17.1982 13.1023 16.396 12.3357 16.4076L8.90839 16.4386L7.858 13.1578C7.64062 12.4746 6.87206 12.4746 6.65468 13.1578L5.6078 16.4386L2.18046 16.4076C1.42089 16.396 1.26894 17.1902 1.80507 17.5843L4.59491 19.5812L3.50097 22.8373C3.2703 23.5418 3.90741 23.9945 4.49491 23.5507Z" fill="white" fill-opacity="0.85"/>
 </g>
</svg>
