<?xml version="1.0" encoding="UTF-8"?>
<!--Generator: Apple Native CoreSVG 341-->
<!DOCTYPE svg
PUBLIC "-//W3C//DTD SVG 1.1//EN"
       "http://www.w3.org/Graphics/SVG/1.1/DTD/svg11.dtd">
<svg version="1.1" xmlns="http://www.w3.org/2000/svg" xmlns:xlink="http://www.w3.org/1999/xlink" viewBox="0 0 22.5804 20.9812">
 <g>
  <rect height="20.9812" opacity="0" width="22.5804" x="0" y="0"/>
  <path d="M0 10.4035C0 13.0402 1.47929 14.4912 4.23593 14.4912L7.59648 14.4912C11.0018 14.8924 14.5379 16.0267 17.6975 17.9537L17.6975 15.9219C14.6441 14.0736 11.1969 13.0467 7.54843 12.6605L4.23593 12.6605C2.50507 12.6605 1.83065 12.0217 1.83065 10.4035L1.83065 8.99257C1.83065 7.3664 2.50507 6.73554 4.23593 6.73554L7.45527 6.73554C11.165 6.36093 14.6957 5.29843 17.6975 3.4662L17.6975 1.43711C14.7316 3.33145 10.7672 4.56582 7.65859 4.90312L4.23593 4.90312C1.47929 4.90312 0 6.34336 0 8.99257ZM9.34745 14.1568L7.60117 14.1568L8.43555 18.3715C8.50137 18.7477 8.3084 18.9922 8.04336 19.0838C7.75878 19.1852 7.38886 19.0936 7.19765 18.6934L4.98007 13.9695L3.1043 13.9695L5.42168 19.1084C6.25762 20.9746 7.73749 21.1031 8.76034 20.7644C9.76483 20.4301 10.3824 19.4834 10.1232 18.1529ZM6.14277 5.66816L6.14277 13.7279L7.98319 13.7279L7.98319 5.66816ZM17.0353 16.7381C17.0353 18.2607 18.1103 19.3277 19.6232 19.3277C21.1556 19.3277 22.2191 18.2607 22.2191 16.7381L22.2191 2.58613C22.2191 1.06523 21.1521 0 19.6232 0C18.1103 0 17.0353 1.06347 17.0353 2.58613ZM18.8758 16.7381L18.8758 2.58613C18.8758 2.1328 19.1681 1.83065 19.6232 1.83065C20.0783 1.83065 20.3867 2.1328 20.3867 2.58613L20.3867 16.7381C20.3867 17.1932 20.0783 17.4936 19.6232 17.4936C19.1681 17.4936 18.8758 17.1932 18.8758 16.7381Z" fill="white" fill-opacity="0.85"/>
 </g>
</svg>
