<?xml version="1.0" encoding="UTF-8"?>
<!--Generator: Apple Native CoreSVG 341-->
<!DOCTYPE svg
PUBLIC "-//W3C//DTD SVG 1.1//EN"
       "http://www.w3.org/Graphics/SVG/1.1/DTD/svg11.dtd">
<svg version="1.1" xmlns="http://www.w3.org/2000/svg" xmlns:xlink="http://www.w3.org/1999/xlink" viewBox="0 0 22.5804 21.166">
 <g>
  <rect height="21.166" opacity="0" width="22.5804" x="0" y="0"/>
  <path d="M4.18496 14.4359L6.17031 14.4359L6.17031 4.94883L4.18496 4.94883C1.46797 4.94883 0 6.37773 0 8.99706L0 10.3894C0 13.0008 1.46797 14.4359 4.18496 14.4359ZM7.57676 14.4457C10.3826 14.7625 13.8519 15.6064 16.6447 16.9828C16.6412 16.8693 16.6394 16.7461 16.6394 16.6326L16.6394 2.76211C16.6394 2.63613 16.6412 2.52793 16.643 2.40371C13.8736 3.77227 10.1455 4.67012 7.57676 4.94883ZM20.1197 19.3111C21.3533 19.3111 22.2191 18.4373 22.2191 17.2162L22.2191 2.10293C22.2191 0.873826 21.3533 0 20.1197 0C18.8986 0 18.0266 0.873826 18.0266 2.10293L18.0266 17.2162C18.0266 18.4373 18.8986 19.3111 20.1197 19.3111ZM8.15956 21.158C9.41972 21.158 10.3594 20.224 10.0135 18.6885L9.45956 16.1687C8.58378 15.9978 7.35723 15.8889 4.85313 15.831C4.68262 15.831 4.40977 15.815 4.12715 15.8133L5.83457 19.4201C6.35449 20.5144 6.9705 21.158 8.15956 21.158Z" fill="white" fill-opacity="0.85"/>
 </g>
</svg>
