<?xml version="1.0" encoding="UTF-8"?>
<!--Generator: Apple Native CoreSVG 341-->
<!DOCTYPE svg
PUBLIC "-//W3C//DTD SVG 1.1//EN"
       "http://www.w3.org/Graphics/SVG/1.1/DTD/svg11.dtd">
<svg version="1.1" xmlns="http://www.w3.org/2000/svg" xmlns:xlink="http://www.w3.org/1999/xlink" viewBox="0 0 21.3277 17.2234">
 <g>
  <rect height="17.2234" opacity="0" width="21.3277" x="0" y="0"/>
  <path d="M3.20351 15.3076L17.7629 15.3076C19.8787 15.3076 20.9664 14.2217 20.9664 12.1361L20.9664 5.10507C20.9664 3.02129 19.8787 1.93359 17.7629 1.93359L3.20351 1.93359C1.0957 1.93359 0 3.01328 0 5.10507L0 12.1361C0 14.2297 1.0957 15.3076 3.20351 15.3076ZM3.29532 2.53594L4.9959 2.53594L4.9959 0.860544C4.9959 0.361913 4.64023 0.014258 4.1416 0.014258C3.64473 0.014258 3.29532 0.361913 3.29532 0.860544ZM6.46543 2.53594L8.16426 2.53594L8.16426 0.860544C8.16426 0.361913 7.80859 0.014258 7.30996 0.014258C6.81309 0.014258 6.46543 0.361913 6.46543 0.860544ZM9.63379 2.53594L11.3326 2.53594L11.3326 0.860544C11.3326 0.361913 10.977 0.014258 10.4783 0.014258C9.98145 0.014258 9.63379 0.361913 9.63379 0.860544ZM12.8021 2.53594L14.501 2.53594L14.501 0.860544C14.501 0.361913 14.1533 0.014258 13.6564 0.014258C13.1578 0.014258 12.8021 0.361913 12.8021 0.860544ZM15.9705 2.53594L17.6711 2.53594L17.6711 0.860544C17.6711 0.361913 17.3217 0.014258 16.8248 0.014258C16.3262 0.014258 15.9705 0.361913 15.9705 0.860544ZM3.29532 14.7178L3.29532 16.3691C3.29532 16.8678 3.64473 17.2234 4.1416 17.2234C4.64023 17.2234 4.9959 16.8678 4.9959 16.3691L4.9959 14.7178ZM6.46543 14.7178L6.46543 16.3691C6.46543 16.8678 6.81309 17.2234 7.30996 17.2234C7.80859 17.2234 8.16426 16.8678 8.16426 16.3691L8.16426 14.7178ZM9.63379 14.7178L9.63379 16.3691C9.63379 16.8678 9.98145 17.2234 10.4783 17.2234C10.977 17.2234 11.3326 16.8678 11.3326 16.3691L11.3326 14.7178ZM12.8021 14.7178L12.8021 16.3691C12.8021 16.8678 13.1578 17.2234 13.6564 17.2234C14.1533 17.2234 14.501 16.8678 14.501 16.3691L14.501 14.7178ZM15.9705 14.7178L15.9705 16.3691C15.9705 16.8678 16.3262 17.2234 16.8248 17.2234C17.3217 17.2234 17.6711 16.8678 17.6711 16.3691L17.6711 14.7178Z" fill="white" fill-opacity="0.85"/>
 </g>
</svg>
