<?xml version="1.0" encoding="UTF-8"?>
<!--Generator: Apple Native CoreSVG 341-->
<!DOCTYPE svg
PUBLIC "-//W3C//DTD SVG 1.1//EN"
       "http://www.w3.org/Graphics/SVG/1.1/DTD/svg11.dtd">
<svg version="1.1" xmlns="http://www.w3.org/2000/svg" xmlns:xlink="http://www.w3.org/1999/xlink" viewBox="0 0 21.6142 18.7605">
 <g>
  <rect height="18.7605" opacity="0" width="21.6142" x="0" y="0"/>
  <path d="M13.0003 1.39238L20.5591 14.5709C20.82 15.0164 20.9469 15.509 20.9469 15.982C20.9469 17.5166 19.8796 18.741 18.1835 18.741L3.07917 18.741C1.37332 18.741 0.305935 17.5166 0.305935 15.982C0.305935 15.509 0.434646 15.0244 0.693825 14.5727L3.68998 9.34825L5.03627 10.6959L4.07345 12.3785L3.15808 12.3785L2.13366 14.0662L3.10825 14.0653L2.38776 15.3244C2.29264 15.5084 2.25885 15.7217 2.25885 15.8861C2.25885 16.4256 2.6401 16.902 3.24538 16.902L18.0013 16.902C18.6163 16.902 19.0056 16.4256 19.0056 15.8861C19.0056 15.7234 18.954 15.5199 18.8589 15.3377L18.1232 14.0512L19.1475 14.0502L18.088 12.3785L17.1667 12.3785L11.4645 2.40702C11.2823 2.0826 10.9544 1.94217 10.6282 1.94217C10.302 1.94217 9.96433 2.08084 9.78034 2.40526L7.34114 6.66797L5.9982 5.32341L8.25262 1.39238C8.77976 0.468554 9.6991 0 10.6282 0C11.5635 0 12.4776 0.465038 13.0003 1.39238Z" fill="white" fill-opacity="0.85"/>
  <path d="M11.4464 5.25643L11.4464 10.7782L9.81628 9.14612L9.81628 5.25643C9.81628 4.7453 10.1268 4.41698 10.6282 4.41698C11.1393 4.41698 11.4464 4.7453 11.4464 5.25643Z" fill="white" fill-opacity="0.85"/>
  <path d="M19.1475 14.0502L2.13366 14.0662L3.15808 12.3785L8.68032 12.3785L10.0335 13.7316L11.2407 12.5182L11.1012 12.3785L18.088 12.3785Z" fill="white" fill-opacity="0.85"/>
  <path d="M10.0335 13.7316L11.2407 12.5182L2.86569 4.13711C2.50905 3.7832 2.03542 3.77168 1.66199 4.13184C1.27879 4.50879 1.30183 4.99843 1.66199 5.36035Z" fill="white" fill-opacity="0.85"/>
 </g>
</svg>
