<?xml version="1.0" encoding="UTF-8"?>
<!--Generator: Apple Native CoreSVG 341-->
<!DOCTYPE svg
PUBLIC "-//W3C//DTD SVG 1.1//EN"
       "http://www.w3.org/Graphics/SVG/1.1/DTD/svg11.dtd">
<svg version="1.1" xmlns="http://www.w3.org/2000/svg" xmlns:xlink="http://www.w3.org/1999/xlink" viewBox="0 0 20.5381 20.1848">
 <g>
  <rect height="20.1848" opacity="0" width="20.5381" x="0" y="0"/>
  <path d="M10.0875 20.175C15.6576 20.175 20.1767 15.6559 20.1767 10.0875C20.1767 4.51914 15.6576 0 10.0875 0C4.51914 0 0 4.51914 0 10.0875C0 15.6559 4.51914 20.175 10.0875 20.175ZM10.0875 18.1879C5.60839 18.1879 1.9871 14.5666 1.9871 10.0875C1.9871 5.60839 5.60839 1.9871 10.0875 1.9871C14.5666 1.9871 18.1897 5.60839 18.1897 10.0875C18.1897 14.5666 14.5666 18.1879 10.0875 18.1879Z" fill="white" fill-opacity="0.85"/>
  <path d="M10.0875 13.3195C11.8691 13.3195 13.3195 11.8691 13.3195 10.0875C13.3195 8.30585 11.8691 6.85546 10.0875 6.85546C8.30761 6.85546 6.85546 8.30585 6.85546 10.0875C6.85546 11.8691 8.30761 13.3195 10.0875 13.3195ZM10.0955 5.97206C10.5117 5.97206 10.8205 5.66327 10.8205 5.24081C10.8205 4.82636 10.5117 4.51757 10.0955 4.51757C9.68105 4.51757 9.37226 4.82636 9.37226 5.24081C9.37226 5.66327 9.68105 5.97206 10.0955 5.97206ZM12.518 6.61405C12.9342 6.61405 13.243 6.30526 13.243 5.88905C13.243 5.4746 12.9342 5.16581 12.518 5.16581C12.1035 5.16581 11.7947 5.4746 11.7947 5.88905C11.7947 6.30526 12.1035 6.61405 12.518 6.61405ZM14.2939 8.38827C14.7084 8.38827 15.0172 8.07948 15.0172 7.66503C15.0172 7.25058 14.7084 6.94179 14.2939 6.94179C13.8795 6.94179 13.5707 7.25058 13.5707 7.66503C13.5707 8.07948 13.8795 8.38827 14.2939 8.38827ZM14.9404 10.809C15.3566 10.809 15.6654 10.5002 15.6654 10.0857C15.6654 9.66953 15.3566 9.36074 14.9404 9.36074C14.526 9.36074 14.2172 9.66953 14.2172 10.0857C14.2172 10.5002 14.526 10.809 14.9404 10.809ZM14.2939 13.2297C14.7084 13.2297 15.0172 12.9209 15.0172 12.5047C15.0172 12.0902 14.7084 11.7814 14.2939 11.7814C13.8795 11.7814 13.5707 12.0902 13.5707 12.5047C13.5707 12.9209 13.8795 13.2297 14.2939 13.2297ZM12.518 15.0039C12.9342 15.0039 13.243 14.6951 13.243 14.2727C13.243 13.8582 12.9342 13.5494 12.518 13.5494C12.1035 13.5494 11.7947 13.8582 11.7947 14.2727C11.7947 14.6951 12.1035 15.0039 12.518 15.0039ZM10.0955 15.6459C10.5117 15.6459 10.8205 15.3371 10.8205 14.9209C10.8205 14.5064 10.5117 14.1977 10.0955 14.1977C9.68105 14.1977 9.37226 14.5064 9.37226 14.9209C9.37226 15.3371 9.68105 15.6459 10.0955 15.6459ZM7.6748 15.0039C8.08925 15.0039 8.39804 14.6951 8.39804 14.2727C8.39804 13.8582 8.08925 13.5494 7.6748 13.5494C7.25859 13.5494 6.9498 13.8582 6.9498 14.2727C6.9498 14.6951 7.25859 15.0039 7.6748 15.0039ZM5.89882 13.2297C6.31327 13.2297 6.62206 12.9209 6.62206 12.5047C6.62206 12.0902 6.31327 11.7814 5.89882 11.7814C5.48437 11.7814 5.17558 12.0902 5.17558 12.5047C5.17558 12.9209 5.48437 13.2297 5.89882 13.2297ZM5.25233 10.809C5.67479 10.809 5.97557 10.5002 5.97557 10.0857C5.97557 9.66953 5.67479 9.36074 5.25233 9.36074C4.83612 9.36074 4.52734 9.66953 4.52734 10.0857C4.52734 10.5002 4.83612 10.809 5.25233 10.809ZM5.89882 8.38827C6.31327 8.38827 6.62206 8.07948 6.62206 7.66503C6.62206 7.25058 6.31327 6.94179 5.89882 6.94179C5.48437 6.94179 5.17558 7.25058 5.17558 7.66503C5.17558 8.07948 5.48437 8.38827 5.89882 8.38827ZM7.6748 6.61405C8.08925 6.61405 8.39804 6.30526 8.39804 5.88905C8.39804 5.4746 8.08925 5.16581 7.6748 5.16581C7.25859 5.16581 6.9498 5.4746 6.9498 5.88905C6.9498 6.30526 7.25859 6.61405 7.6748 6.61405Z" fill="white" fill-opacity="0.85"/>
 </g>
</svg>
