<?xml version="1.0" encoding="UTF-8"?>
<!--Generator: Apple Native CoreSVG 341-->
<!DOCTYPE svg
PUBLIC "-//W3C//DTD SVG 1.1//EN"
       "http://www.w3.org/Graphics/SVG/1.1/DTD/svg11.dtd">
<svg version="1.1" xmlns="http://www.w3.org/2000/svg" xmlns:xlink="http://www.w3.org/1999/xlink" viewBox="0 0 19.6988 22.7484">
 <g>
  <rect height="22.7484" opacity="0" width="19.6988" x="0" y="0"/>
  <path d="M4.09503 8.57187L4.09503 10.4412C4.09503 13.7695 6.3421 15.9572 9.66788 15.9572C10.6993 15.9572 11.6277 15.747 12.4172 15.3569L13.7232 16.6603C12.815 17.1914 11.7481 17.5264 10.5665 17.6354L10.5665 19.6523L14.1509 19.6523C14.656 19.6523 15.0696 20.0617 15.0696 20.5685C15.0696 21.0701 14.656 21.475 14.1509 21.475L5.18663 21.475C4.68156 21.475 4.26613 21.0701 4.26613 20.5685C4.26613 20.0617 4.68156 19.6523 5.18663 19.6523L8.77902 19.6523L8.77902 17.6366C4.90858 17.2745 2.25657 14.5164 2.25657 10.5068L2.25657 8.57187C2.25657 8.06679 2.66145 7.67422 3.17004 7.67422C3.67687 7.67422 4.09503 8.06679 4.09503 8.57187ZM7.86026 10.809C8.04958 11.6012 8.57272 12.1405 9.31951 12.2654L10.9261 13.8688C10.5408 14.0022 10.1182 14.0713 9.66788 14.0713C7.47862 14.0713 5.9339 12.4242 5.9339 10.0779L5.9339 8.8865ZM17.089 8.57187L17.089 10.5068C17.089 11.7109 16.8492 12.8021 16.4013 13.7442L14.9756 12.3203C15.157 11.7492 15.2505 11.1188 15.2505 10.4412L15.2505 8.57187C15.2505 8.06679 15.6589 7.67422 16.1675 7.67422C16.6761 7.67422 17.089 8.06679 17.089 8.57187ZM13.4036 3.99159L13.4036 10.0779C13.4036 10.2948 13.3905 10.5056 13.3607 10.7074L11.5564 8.90539L11.5564 3.96171C11.5564 2.65526 10.8194 1.77323 9.66788 1.77323C8.51631 1.77323 7.78115 2.65878 7.78115 3.96171L7.78115 5.1349L5.98026 3.33626C6.23715 1.34167 7.68929 0 9.66788 0C11.8669 0 13.4036 1.64258 13.4036 3.99159Z" fill="white" fill-opacity="0.85"/>
  <path d="M17.1796 18.4158C17.4831 18.7176 17.9774 18.7193 18.2792 18.4158C18.5712 18.106 18.5827 17.6197 18.2792 17.3162L2.67609 1.72462C2.37433 1.42911 1.87023 1.4211 1.56671 1.72462C1.27472 2.02638 1.27472 2.53223 1.56671 2.82423Z" fill="white" fill-opacity="0.85"/>
 </g>
</svg>
