<?xml version="1.0" encoding="UTF-8"?>
<!--Generator: Apple Native CoreSVG 341-->
<!DOCTYPE svg
PUBLIC "-//W3C//DTD SVG 1.1//EN"
       "http://www.w3.org/Graphics/SVG/1.1/DTD/svg11.dtd">
<svg version="1.1" xmlns="http://www.w3.org/2000/svg" xmlns:xlink="http://www.w3.org/1999/xlink" viewBox="0 0 20.5381 20.1848">
 <g>
  <rect height="20.1848" opacity="0" width="20.5381" x="0" y="0"/>
  <path d="M20.1767 10.0875C20.1767 15.6559 15.6576 20.175 10.0875 20.175C4.51914 20.175 0 15.6559 0 10.0875C0 4.51914 4.51914 0 10.0875 0C15.6576 0 20.1767 4.51914 20.1767 10.0875ZM1.9871 10.0875C1.9871 14.5666 5.60839 18.1879 10.0875 18.1879C14.5666 18.1879 18.1897 14.5666 18.1897 10.0875C18.1897 5.60839 14.5666 1.9871 10.0875 1.9871C5.60839 1.9871 1.9871 5.60839 1.9871 10.0875Z" fill="white" fill-opacity="0.85"/>
  <path d="M7.37148 9.04237L7.37148 10.1848C7.37148 11.7301 8.51034 12.8391 10.0795 12.8391C10.4155 12.8391 10.7319 12.7884 11.0201 12.691L11.8562 13.5271C11.4906 13.699 11.0844 13.8138 10.6482 13.8664L10.6482 14.7684L12.5258 14.7684C12.8353 14.7684 13.0926 15.0336 13.0926 15.3414C13.0926 15.6395 12.8273 15.9109 12.5258 15.9109L7.6412 15.9109C7.33339 15.9109 7.0664 15.6475 7.0664 15.3414C7.0664 15.0336 7.33339 14.7684 7.6412 14.7684L9.52675 14.7684L9.52675 13.8664C7.58515 13.641 6.23965 12.1795 6.23965 10.1883L6.23965 8.9707C6.23965 8.68534 6.47268 8.44651 6.75377 8.42466ZM10.2108 11.8817C10.1691 11.8864 10.1263 11.8879 10.083 11.8879C9.12949 11.8879 8.41797 11.151 8.41797 10.1338L8.41797 10.0889ZM13.9273 8.9707L13.9273 10.1883C13.9273 10.8094 13.7964 11.3782 13.5575 11.8739L12.6809 10.9982C12.7559 10.7451 12.7955 10.4725 12.7955 10.1848L12.7955 8.9707C12.7955 8.67089 13.0545 8.42246 13.3623 8.42246C13.6639 8.42246 13.9273 8.67089 13.9273 8.9707ZM11.7428 6.07265L11.7428 10.0609L8.41797 6.73916L8.41797 6.07089C8.41797 5.06347 9.12949 4.33281 10.083 4.33281C11.0348 4.33281 11.7428 5.06523 11.7428 6.07265Z" fill="white" fill-opacity="0.85"/>
  <path d="M14.065 14.7355C14.2486 14.9174 14.568 14.9271 14.7516 14.7355C14.9449 14.5439 14.9449 14.2406 14.7516 14.0473L6.14549 5.43319C5.94413 5.23983 5.63905 5.23983 5.44745 5.43319C5.25409 5.62479 5.25409 5.93612 5.44745 6.11971Z" fill="white" fill-opacity="0.85"/>
 </g>
</svg>
