<?xml version="1.0" encoding="UTF-8"?>
<!--Generator: Apple Native CoreSVG 341-->
<!DOCTYPE svg
PUBLIC "-//W3C//DTD SVG 1.1//EN"
       "http://www.w3.org/Graphics/SVG/1.1/DTD/svg11.dtd">
<svg version="1.1" xmlns="http://www.w3.org/2000/svg" xmlns:xlink="http://www.w3.org/1999/xlink" viewBox="0 0 15.1955 22.7484">
 <g>
  <rect height="22.7484" opacity="0" width="15.1955" x="0" y="0"/>
  <path d="M7.42108 17.6812C11.7595 17.6812 14.8341 14.8172 14.8341 10.5068L14.8341 8.57187C14.8341 8.06679 14.4275 7.67422 13.9189 7.67422C13.4121 7.67422 12.9939 8.06679 12.9939 8.57187L12.9939 10.4412C12.9939 13.7695 10.7486 15.9572 7.42108 15.9572C4.08553 15.9572 1.84022 13.7695 1.84022 10.4412L1.84022 8.57187C1.84022 8.06679 1.43007 7.67422 0.913469 7.67422C0.404879 7.67422 0 8.06679 0 8.57187L0 10.5068C0 14.8172 3.07284 17.6812 7.42108 17.6812ZM3.68534 10.0779C3.68534 12.4242 5.22206 14.0713 7.42108 14.0713C9.61033 14.0713 11.1488 12.4242 11.1488 10.0779L11.1488 3.99159C11.1488 1.64258 9.61033 0 7.42108 0C5.22206 0 3.68534 1.64258 3.68534 3.99159ZM5.53259 10.1096L5.53259 3.96171C5.53259 2.65878 6.26951 1.77323 7.42108 1.77323C8.57264 1.77323 9.2998 2.65526 9.2998 3.96171L9.2998 10.1096C9.2998 11.4143 8.57264 12.2963 7.42108 12.2963C6.26951 12.2963 5.53259 11.4143 5.53259 10.1096ZM2.93807 21.475L11.8943 21.475C12.4011 21.475 12.8228 21.0701 12.8228 20.5685C12.8228 20.0617 12.4011 19.6523 11.8943 19.6523L2.93807 19.6523C2.433 19.6523 2.01132 20.0617 2.01132 20.5685C2.01132 21.0701 2.433 21.475 2.93807 21.475ZM7.42283 21.0596C7.91736 21.0596 8.30994 20.6484 8.30994 20.1521L8.30994 17.2015C8.30994 16.7053 7.91736 16.2941 7.42283 16.2941C6.92831 16.2941 6.52421 16.7053 6.52421 17.2015L6.52421 20.1521C6.52421 20.6484 6.92831 21.0596 7.42283 21.0596Z" fill="white" fill-opacity="0.85"/>
 </g>
</svg>
