<?xml version="1.0" encoding="UTF-8"?>
<!--Generator: Apple Native CoreSVG 341-->
<!DOCTYPE svg
PUBLIC "-//W3C//DTD SVG 1.1//EN"
       "http://www.w3.org/Graphics/SVG/1.1/DTD/svg11.dtd">
<svg version="1.1" xmlns="http://www.w3.org/2000/svg" xmlns:xlink="http://www.w3.org/1999/xlink" viewBox="0 0 20.5381 20.1848">
 <g>
  <rect height="20.1848" opacity="0" width="20.5381" x="0" y="0"/>
  <path d="M20.1767 10.0875C20.1767 15.6478 15.6576 20.175 10.0875 20.175C4.52715 20.175 0 15.6478 0 10.0875C0 4.51914 4.52715 0 10.0875 0C15.6576 0 20.1767 4.51914 20.1767 10.0875ZM12.9125 8.92109L12.9125 10.1795C12.9125 11.7859 11.7195 12.9393 10.0875 12.9393C8.45898 12.9393 7.27226 11.7859 7.27226 10.1795L7.27226 8.92109C7.27226 8.608 7.00175 8.34629 6.6789 8.34629C6.3623 8.34629 6.09531 8.608 6.09531 8.92109L6.09531 10.1865C6.09531 12.2619 7.49394 13.773 9.5082 14.01L9.5082 14.943L7.55527 14.943C7.23242 14.943 6.9539 15.2215 6.9539 15.5426C6.9539 15.8619 7.23242 16.1307 7.55527 16.1307L12.6295 16.1307C12.9443 16.1307 13.2228 15.8539 13.2228 15.5426C13.2228 15.2215 12.9523 14.943 12.6295 14.943L10.6828 14.943L10.6828 14.01C12.6908 13.765 14.0894 12.2619 14.0894 10.1865L14.0894 8.92109C14.0894 8.608 13.8127 8.34629 13.4978 8.34629C13.175 8.34629 12.9125 8.608 12.9125 8.92109ZM8.36133 5.91054L8.36133 10.125C8.36133 11.1838 9.09941 11.9535 10.091 11.9535C11.0809 11.9535 11.8154 11.1838 11.8154 10.125L11.8154 5.91406C11.8154 4.86679 11.0809 4.10957 10.091 4.10957C9.09941 4.10957 8.36133 4.86504 8.36133 5.91054Z" fill="white" fill-opacity="0.85"/>
 </g>
</svg>
