<?xml version="1.0" encoding="UTF-8"?>
<!--Generator: Apple Native CoreSVG 341-->
<!DOCTYPE svg
PUBLIC "-//W3C//DTD SVG 1.1//EN"
       "http://www.w3.org/Graphics/SVG/1.1/DTD/svg11.dtd">
<svg version="1.1" xmlns="http://www.w3.org/2000/svg" xmlns:xlink="http://www.w3.org/1999/xlink" viewBox="0 0 20.8889 20.5418">
 <g>
  <rect height="20.5418" opacity="0" width="20.8889" x="0" y="0"/>
  <path d="M10.2518 16.2824C13.5783 16.2824 16.2762 13.5846 16.2762 10.258C16.2762 6.93945 13.5783 4.24159 10.2518 4.24159C6.9332 4.24159 4.23534 6.93945 4.23534 10.258C4.23534 13.5846 6.9332 16.2824 10.2518 16.2824ZM10.2678 2.19296C10.8701 2.19296 11.3562 1.70507 11.3562 1.09648C11.3562 0.486131 10.8701 0 10.2678 0C9.65918 0 9.17129 0.486131 9.17129 1.09648C9.17129 1.70507 9.65918 2.19296 10.2678 2.19296ZM14.8463 3.42617C15.4486 3.42617 15.9348 2.93828 15.9348 2.32968C15.9348 1.71933 15.4486 1.2332 14.8463 1.2332C14.2377 1.2332 13.7498 1.71933 13.7498 2.32968C13.7498 2.93828 14.2377 3.42617 14.8463 3.42617ZM18.2076 6.77949C18.8082 6.77949 19.2943 6.29336 19.2943 5.68301C19.2943 5.07266 18.8082 4.58652 18.2076 4.58652C17.5973 4.58652 17.1111 5.07266 17.1111 5.68301C17.1111 6.29336 17.5973 6.77949 18.2076 6.77949ZM19.4391 11.3625C20.0414 11.3625 20.5275 10.8746 20.5275 10.266C20.5275 9.65566 20.0414 9.16953 19.4391 9.16953C18.8305 9.16953 18.3426 9.65566 18.3426 10.266C18.3426 10.8746 18.8305 11.3625 19.4391 11.3625ZM18.2076 15.9455C18.8082 15.9455 19.2943 15.4576 19.2943 14.849C19.2943 14.2387 18.8082 13.7525 18.2076 13.7525C17.5973 13.7525 17.1111 14.2387 17.1111 14.849C17.1111 15.4576 17.5973 15.9455 18.2076 15.9455ZM14.8463 19.2988C15.4486 19.2988 15.9348 18.8127 15.9348 18.2023C15.9348 17.5938 15.4486 17.1059 14.8463 17.1059C14.2377 17.1059 13.7498 17.5938 13.7498 18.2023C13.7498 18.8127 14.2377 19.2988 14.8463 19.2988ZM10.2678 20.532C10.8701 20.532 11.3562 20.0361 11.3562 19.4355C11.3562 18.8252 10.8701 18.3391 10.2678 18.3391C9.65918 18.3391 9.17129 18.8252 9.17129 19.4355C9.17129 20.0361 9.65918 20.532 10.2678 20.532ZM5.68926 19.2988C6.2916 19.2988 6.78574 18.8127 6.78574 18.2023C6.78574 17.5938 6.2916 17.1059 5.68926 17.1059C5.08066 17.1059 4.59277 17.5938 4.59277 18.2023C4.59277 18.8127 5.08066 19.2988 5.68926 19.2988ZM2.32968 15.9455C2.93027 15.9455 3.42617 15.4576 3.42617 14.849C3.42617 14.2387 2.93027 13.7525 2.32968 13.7525C1.71933 13.7525 1.2332 14.2387 1.2332 14.849C1.2332 15.4576 1.71933 15.9455 2.32968 15.9455ZM1.09648 11.3625C1.70507 11.3625 2.19296 10.8746 2.19296 10.266C2.19296 9.65566 1.70507 9.16953 1.09648 9.16953C0.486131 9.16953 0 9.65566 0 10.266C0 10.8746 0.486131 11.3625 1.09648 11.3625ZM2.32968 6.77949C2.93027 6.77949 3.42617 6.29336 3.42617 5.68301C3.42617 5.07266 2.93027 4.58652 2.32968 4.58652C1.71933 4.58652 1.2332 5.07266 1.2332 5.68301C1.2332 6.29336 1.71933 6.77949 2.32968 6.77949ZM5.68926 3.42617C6.2916 3.42617 6.78574 2.93828 6.78574 2.32968C6.78574 1.71933 6.2916 1.2332 5.68926 1.2332C5.08066 1.2332 4.59277 1.71933 4.59277 2.32968C4.59277 2.93828 5.08066 3.42617 5.68926 3.42617Z" fill="white" fill-opacity="0.85"/>
 </g>
</svg>
