<?xml version="1.0" encoding="UTF-8"?>
<!--Generator: Apple Native CoreSVG 341-->
<!DOCTYPE svg
PUBLIC "-//W3C//DTD SVG 1.1//EN"
       "http://www.w3.org/Graphics/SVG/1.1/DTD/svg11.dtd">
<svg version="1.1" xmlns="http://www.w3.org/2000/svg" xmlns:xlink="http://www.w3.org/1999/xlink" viewBox="0 0 18.5894 18.2316">
 <g>
  <rect height="18.2316" opacity="0" width="18.5894" x="0" y="0"/>
  <path d="M18.2281 3.17148L18.2281 15.0646C18.2281 17.1502 17.1404 18.2281 15.0246 18.2281L3.20351 18.2281C1.0957 18.2281 0 17.1502 0 15.0646L0 3.17148C0 1.08769 1.0957 0 3.20351 0L15.0246 0C17.1404 0 18.2281 1.08769 18.2281 3.17148ZM11.965 7.94453L11.965 9.20293C11.965 10.8094 10.7801 11.9627 9.14003 11.9627C7.50976 11.9627 6.32304 10.8094 6.32304 9.20293L6.32304 7.94453C6.32304 7.63144 6.06054 7.36972 5.73769 7.36972C5.42285 7.36972 5.14609 7.63144 5.14609 7.94453L5.14609 9.20996C5.14609 11.2853 6.54472 12.7965 8.56074 13.0334L8.56074 13.9664L6.60781 13.9664C6.2832 13.9664 6.00468 14.2449 6.00468 14.566C6.00468 14.8853 6.2832 15.1541 6.60781 15.1541L11.6803 15.1541C11.9951 15.1541 12.2816 14.8773 12.2816 14.566C12.2816 14.2449 12.0031 13.9664 11.6803 13.9664L9.73534 13.9664L9.73534 13.0334C11.7514 12.7885 13.142 11.2853 13.142 9.20996L13.142 7.94453C13.142 7.63144 12.8652 7.36972 12.5504 7.36972C12.2258 7.36972 11.965 7.63144 11.965 7.94453ZM7.41211 4.93398L7.41211 9.14844C7.41211 10.2072 8.15195 10.977 9.14179 10.977C10.1316 10.977 10.868 10.2072 10.868 9.14844L10.868 4.93749C10.868 3.89023 10.1316 3.133 9.14179 3.133C8.15195 3.133 7.41211 3.88847 7.41211 4.93398Z" fill="white" fill-opacity="0.85"/>
 </g>
</svg>
