<?xml version="1.0" encoding="UTF-8"?>
<!--Generator: Apple Native CoreSVG 341-->
<!DOCTYPE svg
PUBLIC "-//W3C//DTD SVG 1.1//EN"
       "http://www.w3.org/Graphics/SVG/1.1/DTD/svg11.dtd">
<svg version="1.1" xmlns="http://www.w3.org/2000/svg" xmlns:xlink="http://www.w3.org/1999/xlink" viewBox="0 0 18.5894 18.2316">
 <g>
  <rect height="18.2316" opacity="0" width="18.5894" x="0" y="0"/>
  <path d="M18.2281 3.17148L18.2281 15.0646C18.2281 17.1502 17.1404 18.2281 15.0246 18.2281L3.20351 18.2281C1.0957 18.2281 0 17.1502 0 15.0646L0 3.17148C0 1.08769 1.0957 0 3.20351 0L15.0246 0C17.1404 0 18.2281 1.08769 18.2281 3.17148ZM10.8338 3.56913L9.45526 6.7207C9.23241 6.08085 8.7539 5.71699 8.0162 5.71699C7.23769 5.71699 6.72284 6.24667 6.56034 6.95253L6.51425 6.95253L6.51425 6.3412C6.51425 5.96972 6.28202 5.72675 5.93085 5.72675C5.57617 5.72675 5.34746 5.97499 5.34746 6.3412L5.34746 11.8428C5.34746 12.1912 5.57343 12.4625 5.95214 12.4625C6.34589 12.4625 6.56484 12.1947 6.56484 11.8428L6.56484 8.27382C6.56484 7.5578 6.8998 6.85604 7.62206 6.85604C8.29277 6.85604 8.57871 7.36054 8.57871 8.03632L8.57871 8.65213L6.05331 14.398C6.01776 14.4594 6.008 14.518 6.008 14.5811C6.008 14.7666 6.15097 14.8732 6.32421 14.8732C6.48769 14.8732 6.55956 14.8004 6.64042 14.6369L8.57871 10.2189L8.57871 11.8428C8.57871 12.1975 8.8164 12.4625 9.15956 12.4625C9.51073 12.4625 9.75019 12.1975 9.75019 11.8428L9.75019 8.21601C9.75019 7.53104 10.0693 6.85604 10.7977 6.85604C11.5144 6.85604 11.7553 7.40136 11.7553 8.11015L11.7553 11.8428C11.7553 12.1992 12.0035 12.4625 12.36 12.4625C12.7244 12.4625 12.9726 12.1992 12.9726 11.8428L12.9726 7.7912C12.9726 6.66386 12.417 5.71699 11.1998 5.71699C10.9557 5.71699 10.731 5.76582 10.5322 5.8457L11.4226 3.808C11.4519 3.75117 11.468 3.68632 11.468 3.63124C11.468 3.43945 11.3312 3.33105 11.1517 3.33105C10.9892 3.33105 10.8986 3.43144 10.8338 3.56913Z" fill="white" fill-opacity="0.85"/>
 </g>
</svg>
