<?xml version="1.0" encoding="UTF-8"?>
<!--Generator: Apple Native CoreSVG 341-->
<!DOCTYPE svg
PUBLIC "-//W3C//DTD SVG 1.1//EN"
       "http://www.w3.org/Graphics/SVG/1.1/DTD/svg11.dtd">
<svg version="1.1" xmlns="http://www.w3.org/2000/svg" xmlns:xlink="http://www.w3.org/1999/xlink" viewBox="0 0 24.226 20.1848">
 <g>
  <rect height="20.1848" opacity="0" width="24.226" x="0" y="0"/>
  <path d="M0.721518 8.12363C-0.00973073 8.12363-0.190785 8.66894 0.204136 9.22109L2.47249 12.3723C2.78948 12.8092 3.27757 12.8012 3.58831 12.3723L5.8469 9.21308C6.24007 8.66894 6.051 8.12363 5.33929 8.12363ZM22.0239 10.0875C22.0239 4.51914 17.503 0 11.9364 0C6.368 0 1.85687 4.50937 1.84886 10.099C1.85687 10.6476 2.29378 11.0846 2.83441 11.0846C3.38303 11.0846 3.83596 10.6396 3.83596 10.091C3.83596 5.60839 7.45725 1.9871 11.9364 1.9871C16.4155 1.9871 20.0368 5.60839 20.0368 10.0875C20.0368 14.5666 16.4155 18.1879 11.9364 18.1879C9.3096 18.1879 7.0131 16.9437 5.54279 15.0176C5.1469 14.5609 4.58421 14.4129 4.10726 14.7519C3.66214 15.0734 3.55902 15.725 3.99475 16.2355C5.84631 18.6584 8.71858 20.175 11.9364 20.175C17.503 20.175 22.0239 15.6559 22.0239 10.0875Z" fill="white" fill-opacity="0.85"/>
  <path d="M8.87249 13.3098C9.24944 13.3098 9.45511 13.049 9.45511 12.7121L9.45511 9.27792C9.45511 8.58495 9.7723 7.90624 10.4813 7.90624C11.1289 7.90624 11.4034 8.40546 11.4034 9.05019L11.4034 12.7121C11.4034 13.05 11.6278 13.3098 11.9496 13.3098C12.2938 13.3098 12.5182 13.05 12.5182 12.7121L12.5182 9.22187C12.5182 8.55995 12.8293 7.90624 13.5328 7.90624C14.2186 7.90624 14.4594 8.43827 14.4594 9.12401L14.4594 12.7121C14.4594 13.0518 14.6944 13.3098 15.034 13.3098C15.3834 13.3098 15.6184 13.0518 15.6184 12.7121L15.6184 8.81386C15.6184 7.73261 15.0875 6.82558 13.9164 6.82558C13.1084 6.82558 12.4985 7.31562 12.3317 8.01093L12.2944 8.01093C12.1213 7.24999 11.6338 6.82558 10.8533 6.82558C10.0951 6.82558 9.61311 7.33046 9.45237 8.01152L9.40628 8.01152L9.40628 7.42148C9.40628 7.06503 9.18733 6.83359 8.8512 6.83359C8.5098 6.83359 8.29789 7.07031 8.29789 7.42148L8.29789 12.7121C8.29789 13.0437 8.50882 13.3098 8.87249 13.3098ZM9.226 15.6354C9.37972 15.6354 9.4596 15.5625 9.53069 15.4008L14.1295 4.98749C14.1588 4.93066 14.1668 4.86933 14.1668 4.81425C14.1668 4.63222 14.0399 4.52382 13.8684 4.52382C13.7094 4.52382 13.6268 4.62421 13.5637 4.75839L8.96487 15.1717C8.93909 15.233 8.92757 15.2898 8.92757 15.3529C8.92757 15.527 9.05452 15.6354 9.226 15.6354Z" fill="white" fill-opacity="0.85"/>
 </g>
</svg>
