<?xml version="1.0" encoding="UTF-8"?>
<!--Generator: Apple Native CoreSVG 341-->
<!DOCTYPE svg
PUBLIC "-//W3C//DTD SVG 1.1//EN"
       "http://www.w3.org/Graphics/SVG/1.1/DTD/svg11.dtd">
<svg version="1.1" xmlns="http://www.w3.org/2000/svg" xmlns:xlink="http://www.w3.org/1999/xlink" viewBox="0 0 24.2049 19.7961">
 <g>
  <rect height="19.7961" opacity="0" width="24.2049" x="0" y="0"/>
  <path d="M23.8435 11.8701C23.8435 5.64747 19.073 0.538875 12.9941 0.00293831C12.6553-0.029874 12.3998 0.215828 12.3998 0.554694L12.3998 3.8043C12.3998 4.08907 12.6012 4.30645 12.8842 4.33301C16.6191 4.80957 19.517 8.00293 19.517 11.8701C19.517 13.6332 18.9115 15.2613 17.8488 16.61C17.6945 16.8023 17.7025 17.0471 17.8719 17.2244L20.2322 19.5785C20.4646 19.8144 20.823 19.8109 21.0359 19.559C22.7926 17.4783 23.8435 14.7949 23.8435 11.8701Z" fill="white" fill-opacity="0.85"/>
  <path d="M0 11.8701C0 14.8029 1.05098 17.4863 2.80586 19.5652C3.01875 19.8172 3.36914 19.8109 3.61132 19.5768L5.96992 17.2227C6.13925 17.0453 6.14726 16.8006 5.99296 16.6082C4.92578 15.2613 4.32656 13.6332 4.32656 11.8701C4.32656 8.00293 7.22617 4.80957 10.9594 4.33301C11.2441 4.30645 11.4437 4.08907 11.4437 3.8043L11.4437 0.554694C11.4437 0.215828 11.1883-0.029874 10.8494 0.00293831C4.77226 0.538875 0 5.64747 0 11.8701Z" fill="white" fill-opacity="0.85"/>
  <path d="M8.8539 15.1772C9.22109 15.1772 9.42851 14.9227 9.42851 14.5875L9.42851 11.1533C9.42851 10.4604 9.75194 9.77988 10.4627 9.77988C11.1023 9.77988 11.375 10.2728 11.375 10.9238L11.375 14.5875C11.375 14.9236 11.6012 15.1772 11.931 15.1772C12.2654 15.1772 12.4916 14.9236 12.4916 14.5875L12.4916 11.0875C12.4916 10.4336 12.8027 9.77988 13.5062 9.77988C14.2 9.77988 14.4328 10.3057 14.4328 10.9977L14.4328 14.5875C14.4328 14.9272 14.6678 15.1772 15.0154 15.1772C15.3568 15.1772 15.59 14.9272 15.59 14.5875L15.59 10.6875C15.59 9.59824 15.0592 8.69121 13.8898 8.69121C13.0818 8.69121 12.4781 9.18926 12.3051 9.87832L12.274 9.87832C12.0947 9.11563 11.6152 8.69121 10.8267 8.69121C10.0766 8.69121 9.58476 9.2041 9.42401 9.87715L9.37968 9.87715L9.37968 9.28711C9.37968 8.93067 9.16073 8.70723 8.8246 8.70723C8.4832 8.70723 8.26953 8.9377 8.26953 9.28711L8.26953 14.5875C8.26953 14.9191 8.48046 15.1772 8.8539 15.1772ZM9.1994 17.501C9.36112 17.501 9.433 17.4281 9.50409 17.2664L14.1029 6.86113C14.1322 6.79629 14.1482 6.73496 14.1482 6.67988C14.1482 6.50586 14.0133 6.38945 13.8498 6.38945C13.6891 6.38945 13.6002 6.49785 13.5371 6.63203L8.94628 17.0373C8.91073 17.0986 8.90097 17.1555 8.90097 17.2186C8.90097 17.3926 9.03593 17.501 9.1994 17.501Z" fill="white" fill-opacity="0.85"/>
 </g>
</svg>
