<?xml version="1.0" encoding="UTF-8"?>
<!--Generator: Apple Native CoreSVG 341-->
<!DOCTYPE svg
PUBLIC "-//W3C//DTD SVG 1.1//EN"
       "http://www.w3.org/Graphics/SVG/1.1/DTD/svg11.dtd">
<svg version="1.1" xmlns="http://www.w3.org/2000/svg" xmlns:xlink="http://www.w3.org/1999/xlink" viewBox="0 0 22.7515 21.4965">
 <g>
  <rect height="21.4965" opacity="0" width="22.7515" x="0" y="0"/>
  <path d="M1.44999 18.9656L20.9947 18.9656L20.9947 18.2322C20.9947 17.8064 20.7437 17.551 20.3117 17.551L19.7447 17.551L19.7447 6.98046L20.5865 6.98046C21.1851 6.98046 21.5363 6.53886 21.5363 6.09277C21.5363 5.7664 21.351 5.47734 20.9545 5.24941L12.481 0.359374C12.0764 0.125976 11.6398 0 11.2183 0C10.7969 0 10.3523 0.125976 9.96366 0.359374L1.49023 5.24941C1.08574 5.47734 0.908396 5.7664 0.908396 6.09277C0.908396 6.53886 1.25957 6.98046 1.85995 6.98046L2.69999 6.98046L2.69999 17.551L2.14101 17.551C1.70898 17.551 1.44999 17.8064 1.44999 18.2322ZM4.32401 17.551L4.32401 5.67245L10.8779 1.99999C10.9846 1.93866 11.1072 1.90487 11.2183 1.90487C11.333 1.90487 11.4521 1.93866 11.5668 1.99999L18.1207 5.67245L18.1207 17.551ZM0.881441 21.4867L21.499 21.4867C21.9797 21.4867 22.3902 21.0849 22.3902 20.5972C22.3902 20.1148 21.9797 19.7158 21.499 19.7158L0.881441 19.7158C0.399022 19.7158 0 20.1148 0 20.5972C0 21.0832 0.399022 21.4867 0.881441 21.4867Z" fill="white" fill-opacity="0.85"/>
  <path d="M8.16249 13.798C8.53143 13.798 8.74686 13.5453 8.74686 13.2101L8.74686 9.77596C8.74686 9.08123 9.06229 8.40252 9.77128 8.40252C10.4207 8.40252 10.6933 8.89549 10.6933 9.54647L10.6933 13.2101C10.6933 13.5463 10.9178 13.798 11.2396 13.798C11.5838 13.798 11.8082 13.5463 11.8082 13.2101L11.8082 9.71014C11.8082 9.05623 12.1211 8.40252 12.8246 8.40252C13.5086 8.40252 13.7494 8.9283 13.7494 9.6203L13.7494 13.2101C13.7494 13.5498 13.9844 13.798 14.324 13.798C14.6752 13.798 14.9084 13.5498 14.9084 13.2101L14.9084 9.31014C14.9084 8.22088 14.3775 7.31385 13.2064 7.31385C12.4002 7.31385 11.7885 7.8119 11.6234 8.50096L11.5844 8.50096C11.4131 7.73827 10.9238 7.31385 10.1451 7.31385C9.38514 7.31385 8.90311 7.82674 8.73436 8.49979L8.69803 8.49979L8.69803 7.90975C8.69803 7.55331 8.47909 7.32987 8.14296 7.32987C7.79979 7.32987 7.58788 7.56034 7.58788 7.90975L7.58788 13.2101C7.58788 13.5418 7.79882 13.798 8.16249 13.798ZM8.51776 16.1236C8.66971 16.1236 8.74959 16.0508 8.82245 15.8891L13.4213 5.48377C13.4488 5.41893 13.4568 5.3576 13.4568 5.30252C13.4568 5.1285 13.3299 5.01209 13.1584 5.01209C12.9994 5.01209 12.9168 5.12049 12.8537 5.25467L8.25487 15.66C8.22908 15.7213 8.21932 15.7781 8.21932 15.8412C8.21932 16.0152 8.34627 16.1236 8.51776 16.1236Z" fill="white" fill-opacity="0.85"/>
 </g>
</svg>
