<?xml version="1.0" encoding="UTF-8"?>
<!--Generator: Apple Native CoreSVG 341-->
<!DOCTYPE svg
PUBLIC "-//W3C//DTD SVG 1.1//EN"
       "http://www.w3.org/Graphics/SVG/1.1/DTD/svg11.dtd">
<svg version="1.1" xmlns="http://www.w3.org/2000/svg" xmlns:xlink="http://www.w3.org/1999/xlink" viewBox="0 0 20.5381 20.1848">
 <g>
  <rect height="20.1848" opacity="0" width="20.5381" x="0" y="0"/>
  <path d="M20.1767 10.0875C20.1767 15.6478 15.6576 20.175 10.0875 20.175C4.52715 20.175 0 15.6478 0 10.0875C0 4.51914 4.52715 0 10.0875 0C15.6576 0 20.1767 4.51914 20.1767 10.0875ZM11.783 4.5457L10.3965 7.69726C10.1816 7.05742 9.69511 6.69355 8.96366 6.69355C8.1789 6.69355 7.67206 7.22324 7.5078 7.9291L7.46347 7.9291L7.46347 7.31777C7.46347 6.94628 7.22949 6.70332 6.88007 6.70332C6.52363 6.70332 6.29668 6.95156 6.29668 7.31777L6.29668 12.8193C6.29668 13.1678 6.52265 13.4391 6.90136 13.4391C7.29335 13.4391 7.5123 13.1713 7.5123 12.8193L7.5123 9.25038C7.5123 8.53436 7.84101 7.83261 8.57128 7.83261C9.24199 7.83261 9.52793 8.3371 9.52793 9.01288L9.52793 9.62869L7.00077 15.3746C6.96698 15.4359 6.95546 15.4945 6.95546 15.5576C6.95546 15.7432 7.09042 15.8498 7.27343 15.8498C7.4289 15.8498 7.50878 15.777 7.58788 15.6135L9.52793 11.1955L9.52793 12.8193C9.52793 13.174 9.76386 13.4391 10.1008 13.4391C10.4582 13.4391 10.6976 13.174 10.6976 12.8193L10.6976 9.19257C10.6976 8.50761 11.0185 7.83261 11.7469 7.83261C12.4539 7.83261 12.7045 8.37792 12.7045 9.08671L12.7045 12.8193C12.7045 13.1758 12.9527 13.4391 13.3092 13.4391C13.6736 13.4391 13.9201 13.1758 13.9201 12.8193L13.9201 8.76777C13.9201 7.64042 13.3644 6.69355 12.1473 6.69355C11.9031 6.69355 11.6785 6.74238 11.4814 6.82226L12.3719 4.78456C12.3994 4.72773 12.4074 4.66288 12.4074 4.60781C12.4074 4.41601 12.2787 4.30761 12.0992 4.30761C11.9385 4.30761 11.8478 4.408 11.783 4.5457Z" fill="white" fill-opacity="0.85"/>
 </g>
</svg>
