<?xml version="1.0" encoding="UTF-8"?>
<!--Generator: Apple Native CoreSVG 341-->
<!DOCTYPE svg
PUBLIC "-//W3C//DTD SVG 1.1//EN"
       "http://www.w3.org/Graphics/SVG/1.1/DTD/svg11.dtd">
<svg version="1.1" xmlns="http://www.w3.org/2000/svg" xmlns:xlink="http://www.w3.org/1999/xlink" viewBox="0 0 23.4906 24.8109">
 <g>
  <rect height="24.8109" opacity="0" width="23.4906" x="0" y="0"/>
  <path d="M7.46171 5.46718L7.46171 6.50195L9.12849 6.50195L9.17647 8.41522L3.31444 8.41522C2.42245 8.41522 1.91327 8.89159 1.91327 9.84042L1.91327 17.5721C1.91327 18.5227 2.40643 18.991 3.31444 18.991L19.8051 18.991C20.7068 18.991 21.208 18.5227 21.208 17.5721L21.208 9.84745C21.208 8.90916 20.6963 8.41522 19.8051 8.41522L14.0062 8.41522L14.053 6.50195L15.6516 6.50195L15.6516 5.46718C15.6516 4.71425 16.0799 4.28242 16.8266 4.28242L18.5545 4.28242C19.2994 4.28242 19.7277 4.71425 19.7277 5.46718L19.7277 6.50195L19.9881 6.50195C22.0361 6.50195 23.1293 7.57031 23.1293 9.58202L23.1293 17.7328C23.1293 19.8166 22.0336 20.9043 19.9258 20.9043L3.20351 20.9043C1.0957 20.9043 0 19.8246 0 17.7328L0 9.67343C0 7.60546 1.09043 6.50195 3.14199 6.50195L3.37754 6.50195L3.37754 5.46718C3.37754 4.71425 3.80586 4.28242 4.55077 4.28242L6.27871 4.28242C7.0334 4.28242 7.46171 4.71425 7.46171 5.46718ZM17.6887 12.1803L17.6887 13.2039L18.7141 13.2039C19.0514 13.2039 19.3318 13.4809 19.3318 13.8137C19.3318 14.1492 19.0514 14.4199 18.7141 14.4199L17.6887 14.4199L17.6887 15.4435C17.6887 15.7889 17.4232 16.0498 17.0842 16.0498C16.7434 16.0498 16.4824 15.7889 16.4824 15.4435L16.4824 14.4199L15.4508 14.4199C15.1135 14.4199 14.833 14.1492 14.833 13.8137C14.833 13.4809 15.1055 13.2039 15.4508 13.2039L16.4824 13.2039L16.4824 12.1803C16.4824 11.8332 16.7434 11.5723 17.0824 11.5723C17.4232 11.5723 17.6887 11.8332 17.6887 12.1803ZM7.73378 13.8039C7.73378 14.1412 7.45683 14.4199 7.12753 14.4199L4.23671 14.4199C3.8994 14.4199 3.63671 14.1412 3.63671 13.8039C3.63671 13.4728 3.8994 13.2039 4.23671 13.2039L7.12753 13.2039C7.45683 13.2039 7.73378 13.4728 7.73378 13.8039Z" fill="white" fill-opacity="0.85"/>
  <path d="M11.5807 16.376C12.3457 16.376 12.975 15.7635 12.975 15.0473C12.975 14.3018 12.3555 13.7266 11.5807 13.7266C10.8139 13.7266 10.1926 14.3018 10.1926 15.0473C10.1926 15.7635 10.8236 16.376 11.5807 16.376ZM11.5842 12.135C12.1465 12.135 12.5394 11.748 12.5572 11.1725L12.7615 2.65605C12.781 1.95605 12.3152 1.48671 11.5807 1.48671C10.8541 1.48671 10.3883 1.95605 10.4096 2.65605L10.6174 11.176C10.6387 11.748 11.0281 12.135 11.5842 12.135Z" fill="white" fill-opacity="0.85"/>
 </g>
</svg>
