<?xml version="1.0" encoding="UTF-8"?>
<!--Generator: Apple Native CoreSVG 341-->
<!DOCTYPE svg
PUBLIC "-//W3C//DTD SVG 1.1//EN"
       "http://www.w3.org/Graphics/SVG/1.1/DTD/svg11.dtd">
<svg version="1.1" xmlns="http://www.w3.org/2000/svg" xmlns:xlink="http://www.w3.org/1999/xlink" viewBox="0 0 20.7681 18.5867">
 <g>
  <rect height="18.5867" opacity="0" width="20.7681" x="0" y="0"/>
  <path d="M19.5082 17.3726C20.0139 17.3726 20.4068 16.9797 20.4068 16.4883L20.4068 7.46504C20.4068 6.97188 20.0139 6.56915 19.5082 6.56915C18.999 6.56915 18.6123 6.97188 18.6123 7.46504L18.6123 16.4883C18.6123 16.9797 18.999 17.3726 19.5082 17.3726Z" fill="white" fill-opacity="0.85"/>
  <path d="M14.8676 17.3726C15.3652 17.3726 15.7502 16.9717 15.7502 16.4803L15.7502 11.8369C15.7502 11.3357 15.3652 10.925 14.8676 10.925C14.3584 10.925 13.9557 11.3357 13.9557 11.8369L13.9557 16.4803C13.9557 16.9717 14.3584 17.3726 14.8676 17.3726Z" fill="white" fill-opacity="0.85"/>
  <path d="M10.2012 17.3726C10.7068 17.3726 11.0998 16.9797 11.0998 16.4883L11.0998 7.46504C11.0998 6.97188 10.7068 6.56915 10.2012 6.56915C9.69374 6.56915 9.30703 6.97188 9.30703 7.46504L9.30703 16.4883C9.30703 16.9797 9.69374 17.3726 10.2012 17.3726Z" fill="white" fill-opacity="0.85"/>
  <path d="M5.56054 17.3726C6.0582 17.3726 6.44316 16.9717 6.44316 16.4803L6.44316 11.8369C6.44316 11.3357 6.0582 10.925 5.56054 10.925C5.05312 10.925 4.64863 11.3357 4.64863 11.8369L4.64863 16.4803C4.64863 16.9717 5.05312 17.3726 5.56054 17.3726Z" fill="white" fill-opacity="0.85"/>
  <path d="M0.895895 17.3726C1.40156 17.3726 1.79453 16.9797 1.79453 16.4883L1.79453 7.46504C1.79453 6.97188 1.40156 6.56915 0.895895 6.56915C0.386717 6.56915 0 6.97188 0 7.46504L0 16.4883C0 16.9797 0.386717 17.3726 0.895895 17.3726Z" fill="white" fill-opacity="0.85"/>
  <path d="M14.8676 5.94238C15.2926 5.94238 15.6262 5.59902 15.6262 5.17402L15.6262 3.73418L17.066 3.73418C17.491 3.73418 17.8344 3.39883 17.8344 2.97207C17.8344 2.54707 17.491 2.20371 17.066 2.20371L15.6262 2.20371L15.6262 0.762107C15.6262 0.337108 15.2908 0 14.8641 0C14.4391 0 14.0957 0.337108 14.0957 0.762107L14.0957 2.20371L12.6541 2.20371C12.2291 2.20371 11.892 2.54707 11.892 2.97207C11.892 3.39883 12.2291 3.73418 12.6541 3.73418L14.0957 3.73418L14.0957 5.17402C14.0957 5.59902 14.4391 5.94238 14.8676 5.94238Z" fill="white" fill-opacity="0.85"/>
  <path d="M3.383 3.73418L7.37519 3.73418C7.80195 3.73418 8.1453 3.39883 8.1453 2.97207C8.1453 2.54707 7.80195 2.20371 7.37519 2.20371L3.383 2.20371C2.95624 2.20371 2.61288 2.54707 2.61288 2.97207C2.61288 3.39883 2.95624 3.73418 3.383 3.73418Z" fill="white" fill-opacity="0.85"/>
 </g>
</svg>
