<?xml version="1.0" encoding="UTF-8"?>
<!--Generator: Apple Native CoreSVG 341-->
<!DOCTYPE svg
PUBLIC "-//W3C//DTD SVG 1.1//EN"
       "http://www.w3.org/Graphics/SVG/1.1/DTD/svg11.dtd">
<svg version="1.1" xmlns="http://www.w3.org/2000/svg" xmlns:xlink="http://www.w3.org/1999/xlink" viewBox="0 0 23.4906 16.9976">
 <g>
  <rect height="16.9976" opacity="0" width="23.4906" x="0" y="0"/>
  <path d="M8.65663 1.34003L8.65663 2.57129L14.4807 2.57129L14.4807 1.34003C14.4807 0.509959 14.9613 0.00976562 15.7879 0.00976562L17.5828 0.00976562C18.4191 0.00976562 18.8998 0.509959 18.8998 1.34003L18.8998 2.57129L19.9258 2.57129C22.0416 2.57129 23.1293 3.65722 23.1293 5.73476L23.1293 13.8262C23.1293 15.91 22.0416 16.9976 19.9258 16.9976L3.20351 16.9976C1.0957 16.9976 0 15.918 0 13.8262L0 5.73476C0 3.64921 1.0957 2.57129 3.20351 2.57129L4.22949 2.57129L4.22949 1.34003C4.22949 0.509959 4.71015 0.00976562 5.54648 0.00976562L7.33965 0.00976562C8.17597 0.00976562 8.65663 0.509959 8.65663 1.34003ZM15.3535 7.54472L15.3535 8.96738L13.9326 8.96738C13.4828 8.96738 13.1324 9.31601 13.1324 9.77382C13.1324 10.2236 13.4828 10.574 13.9326 10.574L15.3535 10.574L15.3535 11.9932C15.3535 12.443 15.7199 12.7934 16.1652 12.7934C16.6133 12.7934 16.9619 12.443 16.9619 11.9932L16.9619 10.574L18.3811 10.574C18.8309 10.574 19.1893 10.2236 19.1893 9.77382C19.1893 9.31601 18.8309 8.96738 18.3811 8.96738L16.9619 8.96738L16.9619 7.54472C16.9619 7.09491 16.6115 6.73652 16.1635 6.73652C15.7199 6.73652 15.3535 7.09491 15.3535 7.54472ZM4.93808 8.96738C4.49003 8.96738 4.13164 9.31601 4.13164 9.77382C4.13164 10.2236 4.49003 10.574 4.93808 10.574L8.95352 10.574C9.40332 10.574 9.75371 10.2236 9.75371 9.77382C9.75371 9.31601 9.40332 8.96738 8.95352 8.96738Z" fill="white" fill-opacity="0.85"/>
 </g>
</svg>
