<?xml version="1.0" encoding="UTF-8"?>
<!--Generator: Apple Native CoreSVG 341-->
<!DOCTYPE svg
PUBLIC "-//W3C//DTD SVG 1.1//EN"
       "http://www.w3.org/Graphics/SVG/1.1/DTD/svg11.dtd">
<svg version="1.1" xmlns="http://www.w3.org/2000/svg" xmlns:xlink="http://www.w3.org/1999/xlink" viewBox="0 0 23.4906 16.9976">
 <g>
  <rect height="16.9976" opacity="0" width="23.4906" x="0" y="0"/>
  <path d="M2.91151 16.2117L20.2418 16.2117C21.4383 16.2117 22.2432 15.3846 22.2432 14.1525L22.2432 13.7998C21.3174 13.7838 20.519 13.4178 19.9924 12.843C19.7424 12.576 19.5018 12.5857 19.25 12.843C18.6852 13.4578 17.8432 13.7998 16.9398 13.7998C16.0383 13.7998 15.198 13.4578 14.6297 12.843C14.3814 12.5857 14.1408 12.576 13.8908 12.843C13.3482 13.4338 12.5018 13.7998 11.5646 13.7998C10.6275 13.7998 9.78105 13.4338 9.23847 12.843C8.98847 12.576 8.75585 12.5857 8.49785 12.843C7.93125 13.4578 7.09277 13.7998 6.18945 13.7998C5.28437 13.7998 4.45214 13.4578 3.87928 12.843C3.62753 12.5857 3.3869 12.576 3.1369 12.843C2.61034 13.4178 1.81991 13.7838 0.886119 13.7998L0.886119 14.1525C0.886119 15.3846 1.691 16.2117 2.91151 16.2117ZM3.20351 16.9976L19.9258 16.9976C22.0416 16.9976 23.1293 15.91 23.1293 13.8262L23.1293 5.73476C23.1293 3.65722 22.0416 2.57129 19.9258 2.57129L18.8998 2.57129L18.8998 1.34003C18.8998 0.509959 18.4191 0.00976562 17.5828 0.00976562L15.7879 0.00976562C14.9613 0.00976562 14.4807 0.509959 14.4807 1.34003L14.4807 2.57129L8.65663 2.57129L8.65663 1.34003C8.65663 0.509959 8.17597 0.00976562 7.33965 0.00976562L5.54648 0.00976562C4.71015 0.00976562 4.22949 0.509959 4.22949 1.34003L4.22949 2.57129L3.20351 2.57129C1.0957 2.57129 0 3.64921 0 5.73476L0 13.8262C0 15.918 1.0957 16.9976 3.20351 16.9976ZM1.91327 13.6654L1.91327 5.90175C1.91327 4.95292 2.40643 4.48455 3.31444 4.48455L19.8148 4.48455C20.7149 4.48455 21.216 4.95292 21.216 5.90175L21.216 13.6654C21.216 14.608 20.7149 15.0844 19.8148 15.0844L3.31444 15.0844C2.40643 15.0844 1.91327 14.608 1.91327 13.6654Z" fill="white" fill-opacity="0.85"/>
  <path d="M5.18886 10.0721L9.06602 10.0721C9.49277 10.0721 9.82812 9.7287 9.82812 9.30194C9.82812 8.87695 9.49277 8.5416 9.06602 8.5416L5.18886 8.5416C4.7621 8.5416 4.41874 8.87695 4.41874 9.30194C4.41874 9.7287 4.7621 10.0721 5.18886 10.0721ZM15.9951 12.2107C16.4201 12.2107 16.7537 11.8754 16.7537 11.4504L16.7537 10.0721L18.132 10.0721C18.557 10.0721 18.9021 9.7287 18.9021 9.30194C18.9021 8.87695 18.557 8.5416 18.132 8.5416L16.7537 8.5416L16.7537 7.16151C16.7537 6.73651 16.4184 6.3914 15.9934 6.3914C15.5666 6.3914 15.2232 6.73651 15.2232 7.16151L15.2232 8.5416L13.8432 8.5416C13.4182 8.5416 13.0828 8.87695 13.0828 9.30194C13.0828 9.7287 13.4182 10.0721 13.8432 10.0721L15.2232 10.0721L15.2232 11.4504C15.2232 11.8754 15.5666 12.2107 15.9951 12.2107Z" fill="white" fill-opacity="0.85"/>
 </g>
</svg>
