<?xml version="1.0" encoding="UTF-8"?>
<!--Generator: Apple Native CoreSVG 341-->
<!DOCTYPE svg
PUBLIC "-//W3C//DTD SVG 1.1//EN"
       "http://www.w3.org/Graphics/SVG/1.1/DTD/svg11.dtd">
<svg version="1.1" xmlns="http://www.w3.org/2000/svg" xmlns:xlink="http://www.w3.org/1999/xlink" viewBox="0 0 28.8166 30.9844">
 <g>
  <rect height="30.9844" opacity="0" width="28.8166" x="0" y="0"/>
  <path d="M28.4553 15.5266L28.4553 24.9621C28.4553 25.8762 27.8758 26.4146 26.9012 26.4146L7.7205 26.4146C6.77426 26.4146 6.21221 25.9028 6.20963 25.0326L26.5547 25.0326C26.8797 25.0326 27.0652 24.8631 27.0652 24.5283L27.0652 14.1473C27.9365 14.1859 28.4553 14.6885 28.4553 15.5266Z" fill="white" fill-opacity="0.85"/>
  <path d="M25.8111 12.0672L25.8111 22.3084C25.8111 23.2348 25.2228 23.7785 24.2412 23.7785L4.53046 23.7785C3.56328 23.7785 2.99199 23.2588 2.99199 22.3725L2.99199 22.2705L23.7828 22.2705C24.1096 22.2705 24.2951 22.101 24.2951 21.7662L24.2951 10.6666C25.2425 10.6688 25.8111 11.1909 25.8111 12.0672Z" fill="white" fill-opacity="0.85"/>
  <path d="M8.26757 5.61093L8.26757 6.65195L9.03528 6.65195L9.08103 8.56522L3.31444 8.56522C2.42245 8.56522 1.91327 9.04159 1.91327 9.98417L1.91327 17.4725C1.91327 18.415 2.40643 18.8914 3.31444 18.8914L19.5588 18.8914C20.6147 18.8914 20.916 18.5768 20.916 17.5199L20.916 9.98944C20.916 9.06092 20.3963 8.56522 19.5051 8.56522L13.9081 8.56522L13.9531 6.65195L14.5785 6.65195L14.5785 5.61093C14.5785 4.86426 15.0086 4.42442 15.7553 4.42442L17.667 4.42442C18.4119 4.42442 18.8482 4.86426 18.8482 5.61093L18.8482 6.65195L19.6961 6.65195C21.7361 6.65195 22.8373 7.72031 22.8373 9.73379L22.8373 17.6332C22.8373 20.0834 22.1211 20.8047 19.632 20.8047L3.20351 20.8047C1.0957 20.8047 0 19.725 0 17.6332L0 9.82343C0 7.73964 1.0957 6.65195 3.20351 6.65195L3.99785 6.65195L3.99785 5.61093C3.99785 4.86426 4.42792 4.42442 5.17109 4.42442L7.08457 4.42442C7.83925 4.42442 8.26757 4.86426 8.26757 5.61093ZM17.6307 12.0824L17.6307 13.1043L18.6561 13.1043C18.9934 13.1043 19.2738 13.375 19.2738 13.706C19.2738 14.0416 18.9934 14.3203 18.6561 14.3203L17.6307 14.3203L17.6307 15.3439C17.6307 15.691 17.3652 15.9502 17.0279 15.9502C16.6854 15.9502 16.4262 15.691 16.4262 15.3439L16.4262 14.3203L15.3928 14.3203C15.0555 14.3203 14.775 14.0416 14.775 13.706C14.775 13.375 15.0475 13.1043 15.3928 13.1043L16.4262 13.1043L16.4262 12.0824C16.4262 11.7336 16.6854 11.4664 17.0262 11.4664C17.3652 11.4664 17.6307 11.7336 17.6307 12.0824ZM7.73378 13.7043C7.73378 14.0416 7.45683 14.3203 7.12753 14.3203L4.23671 14.3203C3.8994 14.3203 3.63671 14.0416 3.63671 13.7043C3.63671 13.375 3.8994 13.1043 4.23671 13.1043L7.12753 13.1043C7.45683 13.1043 7.73378 13.375 7.73378 13.7043Z" fill="white" fill-opacity="0.85"/>
  <path d="M11.492 12.0354C12.0525 12.0354 12.4473 11.6484 12.465 11.0729L12.6693 2.55644C12.6889 1.85644 12.223 1.38711 11.4885 1.38711C10.7602 1.38711 10.2961 1.85644 10.3156 2.55644L10.5252 11.0764C10.5465 11.6484 10.9342 12.0354 11.492 12.0354ZM11.492 16.2781C12.257 16.2781 12.8881 15.6639 12.8881 14.9477C12.8881 14.2039 12.2668 13.6207 11.492 13.6207C10.7252 13.6207 10.1057 14.2039 10.1057 14.9477C10.1057 15.6639 10.735 16.2781 11.492 16.2781Z" fill="white" fill-opacity="0.85"/>
 </g>
</svg>
