<?xml version="1.0" encoding="UTF-8"?>
<!--Generator: Apple Native CoreSVG 341-->
<!DOCTYPE svg
PUBLIC "-//W3C//DTD SVG 1.1//EN"
       "http://www.w3.org/Graphics/SVG/1.1/DTD/svg11.dtd">
<svg version="1.1" xmlns="http://www.w3.org/2000/svg" xmlns:xlink="http://www.w3.org/1999/xlink" viewBox="0 0 23.4906 22.394">
 <g>
  <rect height="22.394" opacity="0" width="23.4906" x="0" y="0"/>
  <path d="M4.53793 7.18275L3.31444 7.18275C2.40643 7.18275 1.91327 7.65111 1.91327 8.59994L1.91327 16.3636C1.91327 17.3062 2.40643 17.7826 3.31444 17.7826L15.151 17.7826L17.0667 19.6958L3.20351 19.6958C1.0957 19.6958 0 18.6162 0 16.5244L0 8.43295C0 6.53854 0.904073 5.47552 2.65254 5.29971ZM8.65663 4.03823L8.65663 5.26948L14.4807 5.26948L14.4807 4.03823C14.4807 3.20816 14.9613 2.70796 15.7879 2.70796L17.5828 2.70796C18.4191 2.70796 18.8998 3.20816 18.8998 4.03823L18.8998 5.26948L19.9258 5.26948C22.0416 5.26948 23.1293 6.35542 23.1293 8.43295L23.1293 16.5244C23.1293 17.7202 22.7711 18.588 22.0641 19.1086C22.0392 19.0768 22.011 19.0469 21.9816 19.0175L20.5831 17.6197C20.9955 17.409 21.216 16.9889 21.216 16.3636L21.216 8.59994C21.216 7.65111 20.7149 7.18275 19.8148 7.18275L10.1406 7.18275L5.66342 2.70796L7.33965 2.70796C8.17597 2.70796 8.65663 3.20816 8.65663 4.03823ZM16.6729 10.3236L16.6729 11.7019L18.0494 11.7019C18.4744 11.7019 18.8195 12.039 18.8195 12.472C18.8195 12.8988 18.4744 13.2341 18.0494 13.2341L16.6729 13.2341L16.6729 13.7116L14.6621 11.7019L15.1406 11.7019L15.1406 10.3236C15.1406 9.89682 15.484 9.55346 15.9107 9.55346C16.3357 9.55346 16.6729 9.89682 16.6729 10.3236ZM9.86693 12.5051C9.85092 12.9161 9.52202 13.2341 9.10644 13.2341L5.26972 13.2341C4.84472 13.2341 4.50136 12.8988 4.50136 12.472C4.50136 12.039 4.84472 11.7019 5.26972 11.7019L9.06274 11.7019Z" fill="white" fill-opacity="0.85"/>
  <path d="M20.0373 20.9699C20.3408 21.2699 20.8369 21.2716 21.1369 20.9699C21.4307 20.6583 21.4404 20.172 21.1369 19.8703L2.70683 1.44995C2.40332 1.14644 1.90898 1.13843 1.59746 1.44995C1.30371 1.74194 1.30371 2.2478 1.59746 2.54956Z" fill="white" fill-opacity="0.85"/>
 </g>
</svg>
