<?xml version="1.0" encoding="UTF-8"?>
<!--Generator: Apple Native CoreSVG 341-->
<!DOCTYPE svg
PUBLIC "-//W3C//DTD SVG 1.1//EN"
       "http://www.w3.org/Graphics/SVG/1.1/DTD/svg11.dtd">
<svg version="1.1" xmlns="http://www.w3.org/2000/svg" xmlns:xlink="http://www.w3.org/1999/xlink" viewBox="0 0 17.107 21.1441">
 <g>
  <rect height="21.1441" opacity="0" width="17.107" x="0" y="0"/>
  <path d="M16.7457 3.20527L16.7457 17.9406C16.7457 20.0502 15.6678 21.1379 13.5742 21.1379L3.17148 21.1379C1.07968 21.1379 0 20.0502 0 17.9406L0 3.20527C0 1.10371 1.07968 0 3.17148 0L13.5742 0C15.6678 0 16.7457 1.10371 16.7457 3.20527ZM4.53749 9.63164C3.91112 9.63164 3.49159 9.99863 3.49159 10.5982C3.49159 11.1881 3.92714 11.5391 4.53749 11.5391L12.2277 11.5391C12.8381 11.5391 13.2656 11.1881 13.2656 10.5982C13.2656 9.99863 12.8621 9.63164 12.2277 9.63164Z" fill="white" fill-opacity="0.85"/>
 </g>
</svg>
