<?xml version="1.0" encoding="UTF-8"?>
<!--Generator: Apple Native CoreSVG 341-->
<!DOCTYPE svg
PUBLIC "-//W3C//DTD SVG 1.1//EN"
       "http://www.w3.org/Graphics/SVG/1.1/DTD/svg11.dtd">
<svg version="1.1" xmlns="http://www.w3.org/2000/svg" xmlns:xlink="http://www.w3.org/1999/xlink" viewBox="0 0 23.4906 16.9976">
 <g>
  <rect height="16.9976" opacity="0" width="23.4906" x="0" y="0"/>
  <path d="M3.20351 16.9976L19.9258 16.9976C22.0416 16.9976 23.1293 15.91 23.1293 13.8262L23.1293 5.73476C23.1293 3.65722 22.0416 2.57129 19.9258 2.57129L18.8998 2.57129L18.8998 1.34003C18.8998 0.509959 18.4191 0.00976562 17.5828 0.00976562L15.7879 0.00976562C14.9613 0.00976562 14.4807 0.509959 14.4807 1.34003L14.4807 2.57129L8.65663 2.57129L8.65663 1.34003C8.65663 0.509959 8.17597 0.00976562 7.33965 0.00976562L5.54648 0.00976562C4.71015 0.00976562 4.22949 0.509959 4.22949 1.34003L4.22949 2.57129L3.20351 2.57129C1.0957 2.57129 0 3.64921 0 5.73476L0 13.8262C0 15.918 1.0957 16.9976 3.20351 16.9976ZM1.91327 13.6654L1.91327 5.90175C1.91327 4.95292 2.40643 4.48455 3.31444 4.48455L19.8148 4.48455C20.7149 4.48455 21.216 4.95292 21.216 5.90175L21.216 13.6654C21.216 14.608 20.7149 15.0844 19.8148 15.0844L3.31444 15.0844C2.40643 15.0844 1.91327 14.608 1.91327 13.6654Z" fill="white" fill-opacity="0.85"/>
  <path d="M5.26972 10.5359L9.10644 10.5359C9.5332 10.5359 9.86855 10.2006 9.86855 9.77382C9.86855 9.34081 9.5332 9.00371 9.10644 9.00371L5.26972 9.00371C4.84472 9.00371 4.50136 9.34081 4.50136 9.77382C4.50136 10.2006 4.84472 10.5359 5.26972 10.5359ZM15.9125 12.6746C16.3393 12.6746 16.6729 12.3393 16.6729 11.9125L16.6729 10.5359L18.0494 10.5359C18.4744 10.5359 18.8195 10.2006 18.8195 9.77382C18.8195 9.34081 18.4744 9.00371 18.0494 9.00371L16.6729 9.00371L16.6729 7.62538C16.6729 7.19862 16.3357 6.85527 15.9107 6.85527C15.484 6.85527 15.1406 7.19862 15.1406 7.62538L15.1406 9.00371L13.7623 9.00371C13.3355 9.00371 13.0002 9.34081 13.0002 9.77382C13.0002 10.2006 13.3355 10.5359 13.7623 10.5359L15.1406 10.5359L15.1406 11.9125C15.1406 12.3393 15.484 12.6746 15.9125 12.6746Z" fill="white" fill-opacity="0.85"/>
 </g>
</svg>
