<?xml version="1.0" encoding="UTF-8"?>
<!--Generator: Apple Native CoreSVG 341-->
<!DOCTYPE svg
PUBLIC "-//W3C//DTD SVG 1.1//EN"
       "http://www.w3.org/Graphics/SVG/1.1/DTD/svg11.dtd">
<svg version="1.1" xmlns="http://www.w3.org/2000/svg" xmlns:xlink="http://www.w3.org/1999/xlink" viewBox="0 0 28.0748 15.5523">
 <g>
  <rect height="15.5523" opacity="0" width="28.0748" x="0" y="0"/>
  <path d="M23.1779 4.03202L22.892 6.78437C22.8138 7.53027 23.1967 7.86777 23.9457 7.86777L26.3502 7.86777C27.1435 7.86777 27.7135 8.4457 27.7135 9.22929L27.7135 13.8719C27.7135 15.0873 26.8238 15.5265 25.656 15.2305C24.4752 14.9295 23.231 14.7971 21.7183 14.7971L6.77187 14.7971C2.49902 14.7971 0 12.5246 0 8.3412C0 3.89082 2.58613 1.05996 7.08749 0.514843C10.3894 0.130469 16.1248 0.00800788 19.1975 0C21.982 0 23.4379 1.5332 23.1779 4.03202ZM7.26816 2.40975C3.82694 2.80233 1.88514 4.96776 1.88514 8.3412C1.88514 11.3137 3.69921 12.9189 6.74784 12.9189L17.973 12.9189C19.7066 12.9189 20.3518 12.3725 20.5285 10.8004L21.307 3.81933C21.4562 2.49491 20.8324 1.88514 19.1975 1.88514C16.1398 1.88514 10.5117 2.04315 7.26816 2.40975Z" fill="white" fill-opacity="0.85"/>
 </g>
</svg>
