<?xml version="1.0" encoding="UTF-8"?>
<!--Generator: Apple Native CoreSVG 341-->
<!DOCTYPE svg
PUBLIC "-//W3C//DTD SVG 1.1//EN"
       "http://www.w3.org/Graphics/SVG/1.1/DTD/svg11.dtd">
<svg version="1.1" xmlns="http://www.w3.org/2000/svg" xmlns:xlink="http://www.w3.org/1999/xlink" viewBox="0 0 28.0748 21.0834">
 <g>
  <rect height="21.0834" opacity="0" width="28.0748" x="0" y="0"/>
  <path d="M23.1779 6.79758L22.892 9.54993C22.8138 10.2958 23.1967 10.6333 23.9457 10.6333L26.3502 10.6333C27.1435 10.6333 27.7135 11.2113 27.7135 11.9948L27.7135 16.6374C27.7135 17.8528 26.8238 18.2921 25.656 17.996C24.4752 17.695 23.231 17.5626 21.7183 17.5626L16.9044 17.5626C17.1767 16.9765 17.5826 16.4189 17.8065 15.6845L17.973 15.6845C19.7066 15.6845 20.3518 15.138 20.5285 13.5659L21.307 6.58489C21.4562 5.26047 20.8324 4.6507 19.1975 4.6507C16.1398 4.6507 10.5117 4.80871 7.26816 5.17531C3.82694 5.56789 1.88514 7.73332 1.88514 11.1068C1.88514 14.0792 3.69921 15.6845 6.74784 15.6845L7.23025 15.6845C6.97263 16.3149 6.55404 16.843 6.30213 17.5466C2.31448 17.3889 0 15.1327 0 11.1068C0 6.65638 2.58613 3.82552 7.08749 3.2804C10.3894 2.89603 16.1248 2.77357 19.1975 2.76556C21.982 2.76556 23.4379 4.29876 23.1779 6.79758ZM15.672 17.5626L12.2096 17.5626C12.4832 16.9765 12.8909 16.4189 13.1159 15.6845L16.5997 15.6845C16.3418 16.3195 15.9214 16.8508 15.672 17.5626ZM10.9907 17.5626L7.52319 17.5626C7.7984 16.9765 8.20849 16.4189 8.4348 15.6845L11.913 15.6845C11.6565 16.3195 11.2386 16.8508 10.9907 17.5626Z" fill="white" fill-opacity="0.85"/>
  <path d="M7.7828 20.1525C7.3869 19.6198 7.23593 19.2993 7.23593 18.7009C7.23593 17.2734 8.60663 16.4839 8.60663 14.5675C8.60663 12.8349 7.32479 12.415 7.32479 10.3829L7.32479 10.0075C7.32479 9.69348 7.06483 9.44153 6.75253 9.44153C6.4287 9.44153 6.17675 9.69348 6.17675 10.0075L6.17675 10.3829C6.17675 12.98 7.45858 13.2554 7.45858 14.5675C7.45858 16.2196 6.08964 16.8511 6.08964 18.7843C6.08964 19.5726 6.33202 20.1691 6.8539 20.8312C7.33651 21.4495 8.28768 20.8179 7.7828 20.1525ZM4.96308 9.85129C4.77323 10.1325 4.9453 10.5282 5.3162 10.5282L8.16932 10.5282C8.54823 10.5282 8.72831 10.1423 8.52245 9.85129L7.14472 7.80149C7.03378 7.64348 6.91581 7.5761 6.74101 7.5761C6.57772 7.5761 6.45175 7.65149 6.34081 7.80149ZM12.4709 20.1525C12.067 19.6198 11.924 19.2993 11.924 18.7009C11.924 17.2734 13.2867 16.4839 13.2867 14.5675C13.2867 12.8349 12.0129 12.415 12.0129 10.3829L12.0129 10.0075C12.0129 9.69348 11.7529 9.44153 11.4406 9.44153C11.1168 9.44153 10.8648 9.69348 10.8648 10.0075L10.8648 10.3829C10.8648 12.98 12.1387 13.2554 12.1387 14.5675C12.1387 16.2196 10.7857 16.8511 10.7857 18.7843C10.7857 19.5726 11.0281 20.1691 11.55 20.8312C12.0326 21.4495 12.9678 20.8179 12.4709 20.1525ZM9.64315 9.85129C9.45331 10.1325 9.63339 10.5282 10.0141 10.5282L12.8494 10.5282C13.2363 10.5282 13.4164 10.1325 13.2185 9.85129L11.8328 7.80149C11.7219 7.65149 11.6039 7.5761 11.4308 7.5761C11.2658 7.5761 11.1398 7.65149 11.0289 7.80149ZM17.167 20.1525C16.7631 19.6198 16.6201 19.2993 16.6201 18.7009C16.6201 17.2734 17.9765 16.4839 17.9765 14.5675C17.9765 12.8349 16.693 12.415 16.693 10.3829L16.693 10.0075C16.693 9.69348 16.433 9.44153 16.1207 9.44153C15.7969 9.44153 15.5449 9.69348 15.5449 10.0075L15.5449 10.3829C15.5449 12.98 16.8267 13.2554 16.8267 14.5675C16.8267 16.2196 15.4658 16.8511 15.4658 18.7843C15.4658 19.5726 15.7082 20.1691 16.2301 20.8312C16.7127 21.4495 17.6576 20.8179 17.167 20.1525ZM14.3392 9.85129C14.1494 10.1325 14.3215 10.5282 14.6941 10.5282L17.5455 10.5282C17.9342 10.5282 18.1045 10.1325 17.9066 9.85129L16.5209 7.80149C16.418 7.65149 16.284 7.5761 16.1189 7.5761C15.9459 7.5761 15.8359 7.64348 15.725 7.80149Z" fill="white" fill-opacity="0.85"/>
 </g>
</svg>
