<?xml version="1.0" encoding="UTF-8"?>
<!--Generator: Apple Native CoreSVG 341-->
<!DOCTYPE svg
PUBLIC "-//W3C//DTD SVG 1.1//EN"
       "http://www.w3.org/Graphics/SVG/1.1/DTD/svg11.dtd">
<svg version="1.1" xmlns="http://www.w3.org/2000/svg" xmlns:xlink="http://www.w3.org/1999/xlink" viewBox="0 0 28.0748 21.0834">
 <g>
  <rect height="21.0834" opacity="0" width="28.0748" x="0" y="0"/>
  <path d="M20.6242 3.2804C25.1193 3.82552 27.7135 6.65638 27.7135 11.1068C27.7135 15.0632 25.4145 17.3422 21.5221 17.5424C21.8155 16.9223 22.2549 16.3315 22.4665 15.5282C24.5879 15.0607 25.8283 13.5288 25.8283 11.1068C25.8283 7.73332 23.8848 5.56789 20.4453 5.17531C17.2 4.80871 11.5736 4.6507 8.51601 4.6507C6.87304 4.6507 6.25721 5.26047 6.39842 6.58489L7.18319 13.5659C7.36171 15.138 8.00682 15.6845 9.73241 15.6845L11.8455 15.6845C11.586 16.3195 11.1631 16.8508 10.9123 17.5626L5.99511 17.5626C4.48241 17.5626 3.23651 17.695 2.0494 17.996C0.87988 18.2921 0 17.8528 0 16.6374L0 11.9948C0 11.2113 0.569918 10.6333 1.36327 10.6333L3.75976 10.6333C4.51504 10.6333 4.89785 10.2958 4.81348 9.54993L4.52754 6.79758C4.27383 4.29876 5.73144 2.76556 8.51601 2.76556C11.5789 2.77357 17.316 2.89603 20.6242 3.2804ZM15.606 17.5626L12.1384 17.5626C12.4136 16.9765 12.8237 16.4189 13.05 15.6845L16.5282 15.6845C16.2718 16.3195 15.8539 16.8508 15.606 17.5626ZM20.2873 17.5626L16.8248 17.5626C17.0984 16.9765 17.5061 16.4189 17.7311 15.6845L20.9656 15.6845C21.0521 15.6845 21.1377 15.6832 21.2188 15.6758C20.9609 16.3146 20.5378 16.8475 20.2873 17.5626Z" fill="white" fill-opacity="0.85"/>
  <path d="M12.398 20.1525C12.0021 19.6198 11.8512 19.2993 11.8512 18.7009C11.8512 17.2734 13.2219 16.4839 13.2219 14.5675C13.2219 12.8349 11.94 12.415 11.94 10.3829L11.94 10.0075C11.94 9.69348 11.6801 9.44153 11.366 9.44153C11.0439 9.44153 10.792 9.69348 10.792 10.0075L10.792 10.3829C10.792 12.98 12.0738 13.2554 12.0738 14.5675C12.0738 16.2196 10.7049 16.8511 10.7049 18.7843C10.7049 19.5726 10.9473 20.1691 11.4691 20.8312C11.9517 21.4495 12.9029 20.8179 12.398 20.1525ZM9.57831 9.85129C9.38847 10.1325 9.55878 10.5282 9.93144 10.5282L12.7828 10.5282C13.1555 10.5282 13.3355 10.1423 13.1377 9.85129L11.7582 7.80149C11.649 7.64348 11.5293 7.5761 11.3562 7.5761C11.193 7.5761 11.067 7.65149 10.956 7.80149ZM17.0861 20.1525C16.6822 19.6198 16.5392 19.2993 16.5392 18.7009C16.5392 17.2734 17.9019 16.4839 17.9019 14.5675C17.9019 12.8349 16.6281 12.415 16.6281 10.3829L16.6281 10.0075C16.6281 9.69348 16.3682 9.44153 16.0558 9.44153C15.732 9.44153 15.4801 9.69348 15.4801 10.0075L15.4801 10.3829C15.4801 12.98 16.7539 13.2554 16.7539 14.5675C16.7539 16.2196 15.401 16.8511 15.401 18.7843C15.401 19.5726 15.6434 20.1691 16.1652 20.8312C16.6478 21.4495 17.583 20.8179 17.0861 20.1525ZM14.2584 9.85129C14.0685 10.1325 14.2486 10.5282 14.6275 10.5282L17.4629 10.5282C17.8435 10.5282 18.0236 10.1325 17.8338 9.85129L16.448 7.80149C16.3371 7.65149 16.2111 7.5761 16.0443 7.5761C15.881 7.5761 15.7551 7.65149 15.6441 7.80149ZM21.7742 20.1525C21.3783 19.6198 21.2273 19.2993 21.2273 18.7009C21.2273 17.2734 22.59 16.4839 22.59 14.5675C22.59 12.8349 21.3082 12.415 21.3082 10.3829L21.3082 10.0075C21.3082 9.69348 21.0482 9.44153 20.7359 9.44153C20.4121 9.44153 20.1601 9.69348 20.1601 10.0075L20.1601 10.3829C20.1601 12.98 21.442 13.2554 21.442 14.5675C21.442 16.2196 20.081 16.8511 20.081 18.7843C20.081 19.5726 20.3234 20.1691 20.8453 20.8312C21.3279 21.4495 22.2711 20.8179 21.7742 20.1525ZM18.9545 9.85129C18.7646 10.1325 18.9367 10.5282 19.3076 10.5282L22.1607 10.5282C22.5396 10.5282 22.7197 10.1325 22.5219 9.85129L21.1361 7.80149C21.0252 7.65149 20.8992 7.5761 20.7324 7.5761C20.5611 7.5761 20.4432 7.64348 20.3322 7.80149Z" fill="white" fill-opacity="0.85"/>
 </g>
</svg>
