<?xml version="1.0" encoding="UTF-8"?>
<!--Generator: Apple Native CoreSVG 341-->
<!DOCTYPE svg
PUBLIC "-//W3C//DTD SVG 1.1//EN"
       "http://www.w3.org/Graphics/SVG/1.1/DTD/svg11.dtd">
<svg version="1.1" xmlns="http://www.w3.org/2000/svg" xmlns:xlink="http://www.w3.org/1999/xlink" viewBox="0 0 22.8797 22.6949">
 <g>
  <rect height="22.6949" opacity="0" width="22.8797" x="0" y="0"/>
  <path d="M19.0672 11.5279C19.2721 11.5279 19.4148 11.3869 19.4379 11.1723C19.7566 8.58417 19.873 8.50878 22.5107 8.08964C22.7404 8.05683 22.8797 7.93183 22.8797 7.72695C22.8797 7.52382 22.7404 7.39082 22.5533 7.35625C19.8873 6.83789 19.7566 6.8582 19.4379 4.27363C19.4148 4.05898 19.2721 3.91797 19.0672 3.91797C18.8703 3.91797 18.7275 4.05898 18.6965 4.26386C18.3662 6.89804 18.2756 6.98066 15.5828 7.35625C15.3975 7.37929 15.2564 7.52382 15.2564 7.72695C15.2564 7.92206 15.3957 8.05507 15.581 8.08964C18.2809 8.61601 18.3582 8.60546 18.6965 11.1918C18.7275 11.3869 18.8738 11.5279 19.0672 11.5279ZM14.3799 4.79355C14.5094 4.79355 14.5803 4.71465 14.6016 4.59316C14.8902 2.97285 14.8822 2.94082 16.5674 2.62558C16.6941 2.60254 16.7793 2.52539 16.7793 2.3959C16.7793 2.26816 16.6941 2.18926 16.5726 2.16797C14.8787 1.82617 14.925 1.7959 14.6016 0.202147C14.5803 0.0789058 14.5094 0 14.3799 0C14.2504 0 14.1715 0.0789058 14.1502 0.20039C13.8312 1.80996 13.8793 1.84551 12.1889 2.16797C12.0611 2.1875 11.9805 2.26816 11.9805 2.3959C11.9805 2.52539 12.0594 2.60254 12.1871 2.62558C13.8793 2.96738 13.8598 2.98164 14.1502 4.59492C14.1715 4.71465 14.2504 4.79355 14.3799 4.79355Z" fill="white" fill-opacity="0.85"/>
  <path d="M11.5977 20.9547C15.209 20.9547 18.1967 18.781 19.517 15.9144C19.8642 15.166 19.3756 14.7158 18.726 14.9539C18.0652 15.2029 17.0279 15.406 16.0969 15.406C11.2586 15.406 8.49843 12.6459 8.49843 7.7996C8.49843 6.88007 8.71757 5.80448 9.03066 5.04941C9.34159 4.30937 8.81796 3.84356 8.08711 4.16601C5.07618 5.47929 2.83946 8.5578 2.83946 12.1965C2.83946 17.0375 6.7584 20.9547 11.5977 20.9547Z" fill="white" fill-opacity="0.85"/>
 </g>
</svg>
