<?xml version="1.0" encoding="UTF-8"?>
<!--Generator: Apple Native CoreSVG 341-->
<!DOCTYPE svg
PUBLIC "-//W3C//DTD SVG 1.1//EN"
       "http://www.w3.org/Graphics/SVG/1.1/DTD/svg11.dtd">
<svg version="1.1" xmlns="http://www.w3.org/2000/svg" xmlns:xlink="http://www.w3.org/1999/xlink" viewBox="0 0 25.4459 23.5039">
 <g>
  <rect height="23.5039" opacity="0" width="25.4459" x="0" y="0"/>
  <path d="M9.86014 2.39004C9.58241 3.05214 9.39159 3.98515 9.39159 4.79043C9.39159 9.0377 11.8035 11.4611 16.0588 11.4611C16.8676 11.4611 17.7721 11.2766 18.3363 11.0629C18.8904 10.8734 19.3156 11.2502 19.0045 11.8793C18.8146 12.2965 18.584 12.6968 18.3136 13.0723L5.8916 13.0723C4.99331 11.8259 4.46835 10.2945 4.46835 8.64062C4.46835 5.46777 6.42695 2.77715 9.04648 1.63301C9.67128 1.3627 10.1224 1.75254 9.86014 2.39004Z" fill="white" fill-opacity="0.85"/>
  <path d="M3.4789 18.7676C3.77265 18.7676 4.00605 18.5342 4.00605 18.2484C4.00605 17.9547 3.77265 17.7213 3.4789 17.7213C3.19316 17.7213 2.95976 17.9547 2.95976 18.2484C2.95976 18.5342 3.19316 18.7676 3.4789 18.7676ZM7.608 18.7676C7.8955 18.7676 8.1289 18.5342 8.1289 18.2484C8.1289 17.9547 7.8955 17.7213 7.608 17.7213C7.31425 17.7213 7.08886 17.9547 7.08886 18.2484C7.08886 18.5342 7.31425 18.7676 7.608 18.7676ZM11.7309 18.7676C12.0246 18.7676 12.258 18.5342 12.258 18.2484C12.258 17.9547 12.0246 17.7213 11.7309 17.7213C11.4451 17.7213 11.2117 17.9547 11.2117 18.2484C11.2117 18.5342 11.4451 18.7676 11.7309 18.7676ZM15.86 18.7676C16.1475 18.7676 16.3809 18.5342 16.3809 18.2484C16.3809 17.9547 16.1475 17.7213 15.86 17.7213C15.5662 17.7213 15.3328 17.9547 15.3328 18.2484C15.3328 18.5342 15.5662 18.7676 15.86 18.7676ZM19.9828 18.7676C20.2766 18.7676 20.51 18.5342 20.51 18.2484C20.51 17.9547 20.2766 17.7213 19.9828 17.7213C19.6971 17.7213 19.4637 17.9547 19.4637 18.2484C19.4637 18.5342 19.6971 18.7676 19.9828 18.7676ZM2.23691 21.1326C2.52441 21.1326 2.75605 20.9072 2.75605 20.6135C2.75605 20.318 2.52441 20.0943 2.23691 20.0943C1.94316 20.0943 1.70976 20.318 1.70976 20.6135C1.70976 20.9072 1.94316 21.1326 2.23691 21.1326ZM6.35976 21.1326C6.65351 21.1326 6.8789 20.9072 6.8789 20.6135C6.8789 20.318 6.65351 20.0943 6.35976 20.0943C6.06601 20.0943 5.84062 20.318 5.84062 20.6135C5.84062 20.9072 6.06601 21.1326 6.35976 21.1326ZM10.4889 21.1326C10.7764 21.1326 11.008 20.9072 11.008 20.6135C11.008 20.318 10.7764 20.0943 10.4889 20.0943C10.1951 20.0943 9.96171 20.318 9.96171 20.6135C9.96171 20.9072 10.1951 21.1326 10.4889 21.1326ZM14.6117 21.1326C14.9055 21.1326 15.1309 20.9072 15.1309 20.6135C15.1309 20.318 14.9055 20.0943 14.6117 20.0943C14.318 20.0943 14.0926 20.318 14.0926 20.6135C14.0926 20.9072 14.318 21.1326 14.6117 21.1326ZM18.7408 21.1326C19.0283 21.1326 19.26 20.9072 19.26 20.6135C19.26 20.318 19.0283 20.0943 18.7408 20.0943C18.4471 20.0943 18.2137 20.318 18.2137 20.6135C18.2137 20.9072 18.4471 21.1326 18.7408 21.1326ZM22.8637 21.1326C23.1574 21.1326 23.3828 20.9072 23.3828 20.6135C23.3828 20.318 23.1574 20.0943 22.8637 20.0943C22.5682 20.0943 22.3445 20.318 22.3445 20.6135C22.3445 20.9072 22.5682 21.1326 22.8637 21.1326ZM5.11777 23.5039C5.40526 23.5039 5.6369 23.2723 5.6369 22.9848C5.6369 22.691 5.40526 22.4576 5.11777 22.4576C4.82402 22.4576 4.59062 22.691 4.59062 22.9848C4.59062 23.2723 4.82402 23.5039 5.11777 23.5039ZM9.24062 23.5039C9.53437 23.5039 9.75976 23.2723 9.75976 22.9848C9.75976 22.691 9.53437 22.4576 9.24062 22.4576C8.94511 22.4576 8.72148 22.691 8.72148 22.9848C8.72148 23.2723 8.94511 23.5039 9.24062 23.5039ZM13.3617 23.5039C13.6555 23.5039 13.8889 23.2723 13.8889 22.9848C13.8889 22.691 13.6555 22.4576 13.3617 22.4576C13.076 22.4576 12.8426 22.691 12.8426 22.9848C12.8426 23.2723 13.076 23.5039 13.3617 23.5039ZM17.4926 23.5039C17.7863 23.5039 18.0117 23.2723 18.0117 22.9848C18.0117 22.691 17.7863 22.4576 17.4926 22.4576C17.1971 22.4576 16.9734 22.691 16.9734 22.9848C16.9734 23.2723 17.1971 23.5039 17.4926 23.5039ZM21.6137 23.5039C21.9074 23.5039 22.1408 23.2723 22.1408 22.9848C22.1408 22.691 21.9074 22.4576 21.6137 22.4576C21.3279 22.4576 21.0945 22.691 21.0945 22.9848C21.0945 23.2723 21.3279 23.5039 21.6137 23.5039ZM2.66425 15.6053L22.3945 15.6053C22.7662 15.6053 23.0607 15.324 23.0607 14.9496C23.0607 14.5752 22.7662 14.2939 22.3945 14.2939L2.66425 14.2939C2.2828 14.2939 1.99628 14.5752 1.99628 14.9496C1.99628 15.324 2.2828 15.6053 2.66425 15.6053Z" fill="white" fill-opacity="0.85"/>
 </g>
</svg>
