<?xml version="1.0" encoding="UTF-8"?>
<!--Generator: Apple Native CoreSVG 341-->
<!DOCTYPE svg
PUBLIC "-//W3C//DTD SVG 1.1//EN"
       "http://www.w3.org/Graphics/SVG/1.1/DTD/svg11.dtd">
<svg version="1.1" xmlns="http://www.w3.org/2000/svg" xmlns:xlink="http://www.w3.org/1999/xlink" viewBox="0 0 27.4148 22.7227">
 <g>
  <rect height="22.7227" opacity="0" width="27.4148" x="0" y="0"/>
  <path d="M11.5957 1.9914C11.318 2.65351 11.1254 3.58652 11.1254 4.3998C11.1254 8.63906 13.5391 11.0625 17.7943 11.0625C18.6111 11.0625 19.5076 10.8859 20.0719 10.6723C20.634 10.4748 21.0512 10.8596 20.7463 11.4887C20.3315 12.3949 19.7257 13.2206 18.9697 13.9033L15.7551 13.9033C16.5305 13.6353 17.2196 13.2058 17.7879 12.6768C17.7063 12.6768 17.5811 12.683 17.4193 12.683C12.6514 12.6127 9.58672 9.54629 9.52344 4.58085C9.51992 4.41464 9.51016 4.30448 9.54219 4.18632C8.58144 5.18905 7.85605 6.59804 7.85605 8.25879C7.85605 10.871 9.54355 13.0966 11.886 13.9033L8.72315 13.9033C7.17308 12.5139 6.20215 10.4961 6.20215 8.25C6.20215 5.07715 8.16074 2.38652 10.782 1.24238C11.4068 0.972074 11.858 1.36191 11.5957 1.9914Z" fill="white" fill-opacity="0.85"/>
  <path d="M2.92519 18.9727L22.6555 18.9727C23.0352 18.9727 23.3217 18.6834 23.3217 18.309C23.3217 17.9346 23.0352 17.6533 22.6555 17.6533L2.92519 17.6533C2.55176 17.6533 2.25722 17.9346 2.25722 18.309C2.25722 18.6834 2.55176 18.9727 2.92519 18.9727ZM4.3998 22.7227L24.1283 22.7227C24.5018 22.7227 24.7963 22.4432 24.7963 22.067C24.7963 21.6846 24.5018 21.4051 24.1283 21.4051L4.3998 21.4051C4.02636 21.4051 3.73183 21.6846 3.73183 22.067C3.73183 22.4432 4.02636 22.7227 4.3998 22.7227ZM4.3998 15.2146L24.1283 15.2146C24.5018 15.2146 24.7963 14.9334 24.7963 14.559C24.7963 14.1846 24.5018 13.9033 24.1283 13.9033L4.3998 13.9033C4.02636 13.9033 3.73183 14.1846 3.73183 14.559C3.73183 14.9334 4.02636 15.2146 4.3998 15.2146Z" fill="white" fill-opacity="0.85"/>
 </g>
</svg>
