<?xml version="1.0" encoding="UTF-8"?>
<!--Generator: Apple Native CoreSVG 341-->
<!DOCTYPE svg
PUBLIC "-//W3C//DTD SVG 1.1//EN"
       "http://www.w3.org/Graphics/SVG/1.1/DTD/svg11.dtd">
<svg version="1.1" xmlns="http://www.w3.org/2000/svg" xmlns:xlink="http://www.w3.org/1999/xlink" viewBox="0 0 20.5381 20.1848">
 <g>
  <rect height="20.1848" opacity="0" width="20.5381" x="0" y="0"/>
  <path d="M10.0875 20.175C15.6576 20.175 20.1767 15.6478 20.1767 10.0875C20.1767 4.51914 15.6576 0 10.0875 0C4.52715 0 0 4.51914 0 10.0875C0 15.6478 4.52715 20.175 10.0875 20.175Z" fill="white" fill-opacity="0.2125"/>
  <path d="M18.1897 10.0893C18.1977 14.5836 14.6064 18.1897 10.1121 18.1897C9.85859 18.1897 9.60507 18.1736 9.34979 18.1416C11.9225 16.4418 13.3783 13.6082 13.3783 10.0893C13.3783 6.56229 11.9144 3.72069 9.32753 2.0369C9.59257 2.00487 9.84609 1.98885 10.1111 1.98885C14.6002 1.98885 18.1799 5.59667 18.1897 10.0893ZM10.0875 20.175C15.6576 20.175 20.1767 15.6478 20.1767 10.0875C20.1767 4.51914 15.6576 0 10.0875 0C4.52715 0 0 4.51914 0 10.0875C0 15.6478 4.52715 20.175 10.0875 20.175Z" fill="white" fill-opacity="0.85"/>
 </g>
</svg>
