<?xml version="1.0" encoding="UTF-8"?>
<!--Generator: Apple Native CoreSVG 341-->
<!DOCTYPE svg
PUBLIC "-//W3C//DTD SVG 1.1//EN"
       "http://www.w3.org/Graphics/SVG/1.1/DTD/svg11.dtd">
<svg version="1.1" xmlns="http://www.w3.org/2000/svg" xmlns:xlink="http://www.w3.org/1999/xlink" viewBox="0 0 19.9006 24.1879">
 <g>
  <rect height="24.1879" opacity="0" width="19.9006" x="0" y="0"/>
  <path d="M14.6785 4.24355L12.5056 4.24355L12.5056 4.19297L14.8021 1.22304C15.0195 0.940816 15.1011 0.775777 15.1011 0.566599C15.1011 0.217186 14.8404 0 14.4715 0L11.2972 0C10.9435 0 10.7041 0.224413 10.7041 0.565818C10.7041 0.911715 10.9488 1.12988 11.2972 1.12988L13.3572 1.12988L13.3572 1.17871L11.0437 4.13711C10.8281 4.41132 10.7545 4.57714 10.7545 4.80331C10.7545 5.1287 10.9974 5.36015 11.3646 5.36015L14.6785 5.36015C15.0287 5.36015 15.2734 5.15175 15.2734 4.79785C15.2734 4.4582 15.034 4.24355 14.6785 4.24355ZM19.3384 8.04706L17.8638 8.04706L17.8638 8.00624L19.4533 5.9705C19.6547 5.72108 19.7363 5.55702 19.7363 5.34159C19.7363 5.02148 19.4871 4.81582 19.1474 4.81582L16.7636 4.81582C16.441 4.81582 16.2113 5.02519 16.2113 5.33202C16.2113 5.66913 16.4427 5.87226 16.7636 5.87226L18.1049 5.87226L18.1049 5.91308L16.5437 7.91875C16.3406 8.16718 16.2599 8.34628 16.2599 8.56796C16.2599 8.87206 16.4914 9.09198 16.831 9.09198L19.3384 9.09198C19.6771 9.09198 19.9006 8.89862 19.9006 8.56952C19.9006 8.24843 19.6789 8.04706 19.3384 8.04706ZM14.9492 11.4141L13.6896 11.4141L13.6896 11.3732L15.0508 9.6244C15.2371 9.38026 15.3152 9.22772 15.3152 9.03534C15.3152 8.73378 15.0828 8.54316 14.7599 8.54316L12.6269 8.54316C12.3228 8.54316 12.1099 8.733 12.1099 9.03632C12.1099 9.35214 12.3263 9.53573 12.6269 9.53573L13.7566 9.53573L13.7566 9.58456L12.4238 11.3113C12.2287 11.5518 12.1568 11.7105 12.1551 11.9225C12.1515 12.2062 12.3697 12.4129 12.6845 12.4129L14.9492 12.4129C15.2613 12.4129 15.4697 12.2115 15.4697 11.9135C15.4697 11.6101 15.2648 11.4141 14.9492 11.4141Z" fill="white" fill-opacity="0.85"/>
  <path d="M9.0744 22.8027C12.6857 22.8027 15.6734 20.6291 16.9937 17.7625C17.349 17.0141 16.8523 16.5639 16.2027 16.8019C15.55 17.051 14.5127 17.2541 13.5816 17.2541C8.74334 17.2541 5.98319 14.4939 5.98319 9.64765C5.98319 8.72812 6.20233 7.65253 6.51541 6.8957C6.82635 6.16543 6.30096 5.69161 5.57186 6.01407C2.56093 7.32559 0.324216 10.4059 0.324216 14.0445C0.324216 18.8855 4.24316 22.8027 9.0744 22.8027Z" fill="white" fill-opacity="0.85"/>
 </g>
</svg>
