<?xml version="1.0" encoding="UTF-8"?>
<!--Generator: Apple Native CoreSVG 341-->
<!DOCTYPE svg
PUBLIC "-//W3C//DTD SVG 1.1//EN"
       "http://www.w3.org/Graphics/SVG/1.1/DTD/svg11.dtd">
<svg version="1.1" xmlns="http://www.w3.org/2000/svg" xmlns:xlink="http://www.w3.org/1999/xlink" viewBox="0 0 28.1568 23.7789">
 <g>
  <rect height="23.7789" opacity="0" width="28.1568" x="0" y="0"/>
  <path d="M11.2478 7.19999C10.9391 7.93046 10.7287 8.96113 10.7287 9.84902C10.7287 14.5564 13.416 17.2357 18.1057 17.2357C19.0148 17.2357 20.0072 17.0414 20.6381 16.8064C21.2543 16.594 21.7078 17.0115 21.3816 17.7143C21.1567 18.2014 20.8816 18.6681 20.5594 19.1049L6.92384 19.1049C5.89302 17.7128 5.28867 15.9883 5.28867 14.1221C5.28867 10.61 7.45332 7.62715 10.3588 6.36933C11.0359 6.06797 11.5314 6.50039 11.2478 7.19999Z" fill="white" fill-opacity="0.85"/>
  <path d="M2.35624 22.1721L25.4473 22.1721C25.9766 22.1721 26.4164 21.7502 26.4164 21.2502C26.4164 20.7432 25.9783 20.3283 25.4473 20.3283L2.35624 20.3283C1.81894 20.3283 1.38711 20.7484 1.38711 21.2502C1.38711 21.7449 1.8207 22.1721 2.35624 22.1721Z" fill="white" fill-opacity="0.85"/>
  <path d="M19.1238 9.76308L17.7961 8.01504L16.5902 6.77656C16.4244 6.60645 16.2195 6.49043 15.9785 6.49043C15.5422 6.49043 15.2318 6.8043 15.2318 7.22383C15.2318 7.46406 15.3318 7.65547 15.5242 7.83632L18.5324 10.6535C18.7551 10.8584 18.9244 10.9355 19.1318 10.9355C19.349 10.9355 19.5086 10.8584 19.733 10.6535L22.7412 7.83632C22.9336 7.65547 23.0336 7.46406 23.0336 7.22383C23.0336 6.8043 22.7232 6.49043 22.2869 6.49043C22.0539 6.49043 21.841 6.60645 21.6832 6.77656L20.5512 7.93321ZM19.8353 9.36484L19.9967 7.25977L19.9967 2.52324C19.9967 2.01133 19.5957 1.58906 19.1238 1.58906C18.6537 1.58906 18.2607 2.01133 18.2607 2.52324L18.2625 7.25977L18.4141 9.36484C18.4469 9.75254 18.7379 10.0684 19.1238 10.0684C19.5195 10.0684 19.8025 9.75254 19.8353 9.36484Z" fill="white" fill-opacity="0.85"/>
 </g>
</svg>
