<?xml version="1.0" encoding="UTF-8"?>
<!--Generator: Apple Native CoreSVG 341-->
<!DOCTYPE svg
PUBLIC "-//W3C//DTD SVG 1.1//EN"
       "http://www.w3.org/Graphics/SVG/1.1/DTD/svg11.dtd">
<svg version="1.1" xmlns="http://www.w3.org/2000/svg" xmlns:xlink="http://www.w3.org/1999/xlink" viewBox="0 0 28.1568 26.0941">
 <g>
  <rect height="26.0941" opacity="0" width="28.1568" x="0" y="0"/>
  <path d="M11.2478 8.35761C10.9391 9.08807 10.7287 10.1187 10.7287 11.0066C10.7287 15.7141 13.416 18.3934 18.1057 18.3934C19.0148 18.3934 20.0072 18.199 20.6381 17.9641C21.2543 17.7516 21.7078 18.1691 21.3816 18.8719C20.931 19.8475 20.2794 20.7413 19.4673 21.4859L16.5465 21.4859C17.3553 21.1048 18.0645 20.5666 18.636 19.9226C18.4164 19.9644 18.1676 19.993 17.8965 19.9912C12.5012 19.9174 9.20566 16.6139 9.13535 11.2088C9.13359 10.8914 9.16387 10.5838 9.22793 10.2779C7.87675 11.4308 6.89432 13.2097 6.89432 15.2955C6.89432 18.0395 8.526 20.4103 10.8732 21.4859L8.01623 21.4859C6.3367 19.949 5.28867 17.7373 5.28867 15.2797C5.28867 11.7676 7.45332 8.78476 10.3588 7.52695C11.0359 7.22558 11.5314 7.658 11.2478 8.35761Z" fill="white" fill-opacity="0.85"/>
  <path d="M2.35624 23.3297L25.4473 23.3297C25.9766 23.3297 26.4164 22.9078 26.4164 22.4078C26.4164 21.9008 25.9783 21.4859 25.4473 21.4859L2.35624 21.4859C1.81894 21.4859 1.38711 21.9061 1.38711 22.4078C1.38711 22.9025 1.8207 23.3297 2.35624 23.3297Z" fill="white" fill-opacity="0.85"/>
  <path d="M19.1238 10.9207L17.7961 9.17266L16.5902 7.93418C16.4244 7.76406 16.2195 7.64805 15.9785 7.64805C15.5422 7.64805 15.2318 7.96191 15.2318 8.38144C15.2318 8.62167 15.3318 8.81308 15.5242 8.99394L18.5324 11.8111C18.7551 12.016 18.9244 12.0932 19.1318 12.0932C19.349 12.0932 19.5086 12.016 19.733 11.8111L22.7412 8.99394C22.9336 8.81308 23.0336 8.62167 23.0336 8.38144C23.0336 7.96191 22.7232 7.64805 22.2869 7.64805C22.0539 7.64805 21.841 7.76406 21.6832 7.93418L20.5512 9.09082ZM19.8353 10.5225L19.9967 8.41738L19.9967 3.68085C19.9967 3.16894 19.5957 2.74668 19.1238 2.74668C18.6537 2.74668 18.2607 3.16894 18.2607 3.68085L18.2625 8.41738L18.4141 10.5225C18.4469 10.9101 18.7379 11.226 19.1238 11.226C19.5195 11.226 19.8025 10.9101 19.8353 10.5225Z" fill="white" fill-opacity="0.85"/>
 </g>
</svg>
