<?xml version="1.0" encoding="UTF-8"?>
<!--Generator: Apple Native CoreSVG 341-->
<!DOCTYPE svg
PUBLIC "-//W3C//DTD SVG 1.1//EN"
       "http://www.w3.org/Graphics/SVG/1.1/DTD/svg11.dtd">
<svg version="1.1" xmlns="http://www.w3.org/2000/svg" xmlns:xlink="http://www.w3.org/1999/xlink" viewBox="0 0 20.5381 20.1848">
 <g>
  <rect height="20.1848" opacity="0" width="20.5381" x="0" y="0"/>
  <path d="M10.0875 20.175C15.6576 20.175 20.1767 15.6559 20.1767 10.0875C20.1767 4.51914 15.6576 0 10.0875 0C4.51914 0 0 4.51914 0 10.0875C0 15.6559 4.51914 20.175 10.0875 20.175ZM10.0875 18.1879C5.60839 18.1879 1.9871 14.5666 1.9871 10.0875C1.9871 5.60839 5.60839 1.9871 10.0875 1.9871C14.5666 1.9871 18.1897 5.60839 18.1897 10.0875C18.1897 14.5666 14.5666 18.1879 10.0875 18.1879Z" fill="white" fill-opacity="0.85"/>
  <path d="M9.96308 15.6064C12.0936 15.6064 13.9371 14.3045 14.601 12.6381C14.7846 12.2424 14.5363 11.8965 14.1025 12.0648C13.741 12.2033 13.1131 12.3312 12.5012 12.3312C9.84472 12.3312 8.13944 10.6658 8.13944 8.00839C8.13944 7.42597 8.28866 6.6621 8.44843 6.24198C8.63807 5.8287 8.33495 5.55273 7.89648 5.73202C6.03007 6.4539 4.7869 8.44667 4.7869 10.5424C4.7869 13.4869 7.0203 15.6064 9.96308 15.6064ZM12.8205 9.48671C12.943 9.48671 13.0264 9.3873 13.0477 9.26484C13.2537 7.60038 13.3373 7.52831 15.0373 7.27167C15.1811 7.25038 15.2707 7.17675 15.2707 7.03652C15.2707 6.91406 15.1811 6.82441 15.0586 6.80937C13.3436 6.47988 13.284 6.45761 13.0477 4.81171C13.0264 4.68749 12.943 4.59433 12.8205 4.59433C12.698 4.59433 12.6129 4.68749 12.5934 4.80995C12.3553 6.48593 12.3135 6.56952 10.5842 6.80937C10.4519 6.82265 10.3703 6.91406 10.3703 7.03652C10.3703 7.16874 10.4519 7.25038 10.5824 7.27167C12.3135 7.60292 12.3775 7.62519 12.5934 9.26484C12.6129 9.3873 12.698 9.48671 12.8205 9.48671Z" fill="white" fill-opacity="0.85"/>
 </g>
</svg>
