<?xml version="1.0" encoding="UTF-8"?>
<!--Generator: Apple Native CoreSVG 341-->
<!DOCTYPE svg
PUBLIC "-//W3C//DTD SVG 1.1//EN"
       "http://www.w3.org/Graphics/SVG/1.1/DTD/svg11.dtd">
<svg version="1.1" xmlns="http://www.w3.org/2000/svg" xmlns:xlink="http://www.w3.org/1999/xlink" viewBox="0 0 20.5381 20.1848">
 <g>
  <rect height="20.1848" opacity="0" width="20.5381" x="0" y="0"/>
  <path d="M10.0875 20.175C15.6576 20.175 20.1767 15.6478 20.1767 10.0875C20.1767 4.51914 15.6576 0 10.0875 0C4.52715 0 0 4.51914 0 10.0875C0 15.6478 4.52715 20.175 10.0875 20.175Z" fill="white" fill-opacity="0.2125"/>
  <path d="M13.4219 10.0893C13.4219 13.6346 11.9318 16.5227 9.38846 18.1398C5.19569 17.776 1.97909 14.3422 1.9871 10.0893C1.9951 5.84882 5.18319 2.42655 9.34842 2.03866C11.9141 3.67987 13.4219 6.58397 13.4219 10.0893ZM10.0875 20.175C15.6576 20.175 20.1767 15.6478 20.1767 10.0875C20.1767 4.51914 15.6576 0 10.0875 0C4.52715 0 0 4.51914 0 10.0875C0 15.6478 4.52715 20.175 10.0875 20.175Z" fill="white" fill-opacity="0.85"/>
 </g>
</svg>
