<?xml version="1.0" encoding="UTF-8"?>
<!--Generator: Apple Native CoreSVG 341-->
<!DOCTYPE svg
PUBLIC "-//W3C//DTD SVG 1.1//EN"
       "http://www.w3.org/Graphics/SVG/1.1/DTD/svg11.dtd">
<svg version="1.1" xmlns="http://www.w3.org/2000/svg" xmlns:xlink="http://www.w3.org/1999/xlink" viewBox="0 0 20.5381 20.1848">
 <g>
  <rect height="20.1848" opacity="0" width="20.5381" x="0" y="0"/>
  <path d="M20.1767 10.0973C20.1767 15.6656 15.6576 20.1848 10.0875 20.1848C4.52715 20.1848 0 15.6656 0 10.0973C0 4.53691 4.52715 0.00976562 10.0875 0.00976562C15.6576 0.00976562 20.1767 4.53691 20.1767 10.0973ZM7.9705 5.16015C6.05253 5.99745 4.61659 7.96073 4.61659 10.2855C4.61659 13.349 7.11444 15.8549 10.2037 15.8549C12.4894 15.8549 14.3771 14.4793 15.2232 12.6486C15.4414 12.2072 15.1285 11.9305 14.7445 12.0678C14.3434 12.2283 13.6686 12.357 13.0807 12.357C9.97011 12.357 8.19452 10.5769 8.19452 7.46464C8.19452 6.87675 8.34276 6.18944 8.53183 5.71444C8.71444 5.25409 8.41737 4.97929 7.9705 5.16015Z" fill="white" fill-opacity="0.85"/>
 </g>
</svg>
