<?xml version="1.0" encoding="UTF-8"?>
<!--Generator: Apple Native CoreSVG 341-->
<!DOCTYPE svg
PUBLIC "-//W3C//DTD SVG 1.1//EN"
       "http://www.w3.org/Graphics/SVG/1.1/DTD/svg11.dtd">
<svg version="1.1" xmlns="http://www.w3.org/2000/svg" xmlns:xlink="http://www.w3.org/1999/xlink" viewBox="0 0 20.0434 19.8238">
 <g>
  <rect height="19.8238" opacity="0" width="20.0434" x="0" y="0"/>
  <path d="M10.266 19.8238C14.5062 19.8238 17.9992 17.2748 19.557 13.9189C19.9523 13.0807 19.3916 12.5566 18.6424 12.8268C17.8758 13.1096 16.6668 13.3527 15.5738 13.3527C9.8709 13.3527 6.61347 10.0953 6.61347 4.38437C6.61347 3.29491 6.8664 2.04765 7.23554 1.14491C7.57851 0.315035 6.98906-0.222852 6.16211 0.139646C2.62813 1.68066 0 5.28222 0 9.55605C0 15.2279 4.60391 19.8238 10.266 19.8238ZM10.266 18.0201C5.60195 18.0201 1.80194 14.2299 1.80194 9.55605C1.80194 6.85057 3.16953 4.54802 4.97872 3.13474C4.87462 3.63005 4.81856 4.09705 4.82032 4.61815C4.90469 11.1074 8.84473 15.0527 15.3207 15.1441C15.7715 15.1459 16.2018 15.0916 16.568 15.0293C15.1352 16.7967 12.8842 18.0201 10.266 18.0201Z" fill="white" fill-opacity="0.85"/>
 </g>
</svg>
