<?xml version="1.0" encoding="UTF-8"?>
<!--Generator: Apple Native CoreSVG 341-->
<!DOCTYPE svg
PUBLIC "-//W3C//DTD SVG 1.1//EN"
       "http://www.w3.org/Graphics/SVG/1.1/DTD/svg11.dtd">
<svg version="1.1" xmlns="http://www.w3.org/2000/svg" xmlns:xlink="http://www.w3.org/1999/xlink" viewBox="0 0 28.9279 20.1957">
 <g>
  <rect height="20.1957" opacity="0" width="28.9279" x="0" y="0"/>
  <path d="M6.8034 20.1834C9.64343 20.1834 11.9421 17.899 11.9741 15.0652L10.2268 15.0555C10.1948 16.9305 8.66512 18.4281 6.79187 18.4281C4.89285 18.4281 3.37469 16.9322 3.34266 15.0555L1.5954 15.0652C1.62743 17.907 3.93231 20.1834 6.8034 20.1834ZM1.09169 16.0472L18.7795 16.0472L18.7795 14.2807L12.9434 14.2807L12.9434 9.04316C12.9434 8.22246 12.577 7.84101 11.8007 7.84101L6.32957 7.84101C1.81337 7.84101-0.494829 11.4514 0.0891546 15.3012C0.162787 15.7572 0.44931 16.0472 1.09169 16.0472ZM6.2614 7.0373L12.1188 7.0373C12.5915 7.0373 12.9692 6.65156 12.9692 6.17891C12.9692 5.71426 12.5835 5.32852 12.1188 5.32852L6.2614 5.32852C5.795 5.32852 5.40301 5.71426 5.40301 6.17891C5.40301 6.65156 5.78699 7.0373 6.2614 7.0373ZM17.3831 15.2469L19.1399 15.2469L19.7003 12.8775L20.7835 11.5885L22.1592 10.4873L21.4678 7.16425L21.4438 5.40742L18.5241 5.40742C17.7557 5.40742 17.3831 5.80136 17.3831 6.61406ZM24.6184 7.1369C24.9981 7.17772 25.1764 6.87342 25.1028 6.50526L24.5137 3.68242C24.4401 3.31425 24.1633 3.13594 23.8182 3.32402C23.5415 3.47304 23.2913 3.70371 23.1112 3.97871C22.4795 4.90488 22.7528 6.21073 23.6807 6.80956C23.9442 6.98963 24.2795 7.11385 24.6184 7.1369ZM23.3883 20.1834C26.2524 20.1834 28.567 17.859 28.567 15.0012C28.567 12.1256 26.2524 9.79315 23.3883 9.79315C20.5012 9.79315 18.1803 12.1256 18.1803 15.0012C18.1803 17.867 20.5012 20.1834 23.3883 20.1834ZM23.3768 18.4281C21.4618 18.4281 19.9276 16.9002 19.9276 14.9914C19.9276 13.0861 21.4653 11.5502 23.3768 11.5502C25.2741 11.5502 26.8198 13.0844 26.8198 14.9914C26.8198 16.8904 25.2741 18.4281 23.3768 18.4281ZM23.3626 16.3629C24.1237 16.3629 24.7358 15.7525 24.7358 14.9914C24.7358 14.2125 24.1352 13.6101 23.3626 13.6101C22.5917 13.6101 22.0231 14.201 22.0133 14.9896C22.0036 15.7525 22.5819 16.3629 23.3626 16.3629ZM22.6239 15.0496L24.1817 14.5279L21.1149 0.719333C21.0032 0.202147 20.5721 0 19.96 0L17.6942 0C17.2216 0 16.8456 0.38574 16.8456 0.858395C16.8456 1.33281 17.2216 1.70878 17.6942 1.70878L19.6135 1.70878C19.6987 1.70878 19.7413 1.73183 19.7528 1.78769Z" fill="white" fill-opacity="0.85"/>
 </g>
</svg>
