<?xml version="1.0" encoding="UTF-8"?>
<!--Generator: Apple Native CoreSVG 341-->
<!DOCTYPE svg
PUBLIC "-//W3C//DTD SVG 1.1//EN"
       "http://www.w3.org/Graphics/SVG/1.1/DTD/svg11.dtd">
<svg version="1.1" xmlns="http://www.w3.org/2000/svg" xmlns:xlink="http://www.w3.org/1999/xlink" viewBox="0 0 35.1923 17.8621">
 <g>
  <rect height="17.8621" opacity="0" width="35.1923" x="0" y="0"/>
  <path d="M11.6359 5.55859L14.538 9.1914L12.5278 11.8306C11.0403 11.8223 10.4491 10.6869 9.68901 10.6869C8.92416 10.6869 8.34096 11.8314 6.84096 11.8314C6.30075 11.8314 5.88174 11.5965 5.53293 11.3028L2.26184 15.3887C2.04895 15.6574 2.17747 15.9998 2.53762 15.9998L9.91115 15.9998C9.89457 16.9765 10.5606 17.8621 11.9023 17.8621L1.93588 17.8621C0.0179144 17.8621-0.540088 15.9439 0.555808 14.5643L7.74214 5.55859C8.32026 4.83965 9.01089 4.47344 9.68901 4.47344C10.3751 4.47344 11.0658 4.83965 11.6359 5.55859ZM9.2019 6.71991L6.27112 10.3807C6.46447 10.5397 6.65116 10.6447 6.84096 10.6447C7.63959 10.6447 8.33822 9.50194 9.68901 9.50194C11.046 9.50194 11.7464 10.6447 12.5451 10.6447C12.735 10.6447 12.9214 10.5396 13.1147 10.3805L10.1841 6.71991C10.0341 6.54335 9.86205 6.44569 9.68901 6.44569C9.52397 6.44569 9.34389 6.54335 9.2019 6.71991Z" fill="white" fill-opacity="0.85"/>
  <path d="M11.9023 17.8621L32.8427 17.8621C34.831 17.8621 35.3327 15.9109 34.3396 14.6092L24.3208 1.47089C23.2126 0.0177735 21.5386 0.00527322 20.4144 1.47616L10.4054 14.6172C9.41049 15.9207 9.91576 17.8621 11.9023 17.8621ZM12.4425 16.0016C12.0618 16.0016 11.9413 15.6672 12.1462 15.3904L21.8689 2.63299C22.1466 2.27186 22.6064 2.27811 22.8601 2.62147L32.5908 15.3842C32.8054 15.6609 32.6751 16.0016 32.291 16.0016ZM19.1402 9.47674C20.8316 9.47674 21.507 8.1701 22.3685 8.1701C23.238 8.1701 23.9134 9.47674 25.6048 9.47674C26.738 9.47674 27.4107 8.61522 27.9796 8.07752L27.1486 7.03475C26.5736 7.56679 26.106 8.14745 25.6048 8.14745C24.6997 8.14745 23.9169 6.84081 22.3685 6.84081C20.8492 6.84081 20.047 8.14745 19.1402 8.14745C18.6292 8.14745 18.1494 7.55526 17.5628 7.02147L16.7617 8.06678C17.3386 8.62127 18.0113 9.47674 19.1402 9.47674Z" fill="white" fill-opacity="0.85"/>
 </g>
</svg>
