<?xml version="1.0" encoding="UTF-8"?>
<!--Generator: Apple Native CoreSVG 341-->
<!DOCTYPE svg
PUBLIC "-//W3C//DTD SVG 1.1//EN"
       "http://www.w3.org/Graphics/SVG/1.1/DTD/svg11.dtd">
<svg version="1.1" xmlns="http://www.w3.org/2000/svg" xmlns:xlink="http://www.w3.org/1999/xlink" viewBox="0 0 18.9875 23.3695">
 <g>
  <rect height="23.3695" opacity="0" width="18.9875" x="0" y="0"/>
  <path d="M0.075779 7.15742C0.075779 7.79668 0.526167 8.39609 1.39081 8.39609L17.2398 8.39609C18.1125 8.39609 18.5531 7.79668 18.5531 7.15742C18.5531 6.71778 18.3572 6.25333 17.9078 5.9297L10.7328 0.52324C10.2558 0.173827 9.79315 0 9.31445 0C8.83574 0 8.3748 0.173827 7.89785 0.52324L0.722845 5.9297C0.279684 6.25333 0.075779 6.71778 0.075779 7.15742ZM0 11.6781C0 12.2633 0.430661 12.7 1.0371 12.7L17.5971 12.7C18.2053 12.7 18.6342 12.2668 18.6342 11.6781C18.6342 11.0807 18.207 10.6465 17.5971 10.6465L1.0371 10.6465C0.428903 10.6465 0 11.0859 0 11.6781ZM0.0517553 16.1988C0.0517553 16.6385 0.247653 17.1029 0.698822 17.4248L7.87383 22.8312C8.35078 23.1806 8.81171 23.3545 9.29042 23.3545C9.76913 23.3545 10.2318 23.1806 10.7088 22.8312L17.8838 17.4248C18.3332 17.1029 18.5291 16.6385 18.5291 16.1988C18.5291 15.5498 18.0885 14.9504 17.2158 14.9504L1.36679 14.9504C0.502144 14.9504 0.0517553 15.5498 0.0517553 16.1988Z" fill="white" fill-opacity="0.85"/>
 </g>
</svg>
