<?xml version="1.0" encoding="UTF-8"?>
<!--Generator: Apple Native CoreSVG 341-->
<!DOCTYPE svg
PUBLIC "-//W3C//DTD SVG 1.1//EN"
       "http://www.w3.org/Graphics/SVG/1.1/DTD/svg11.dtd">
<svg version="1.1" xmlns="http://www.w3.org/2000/svg" xmlns:xlink="http://www.w3.org/1999/xlink" viewBox="0 0 25.6323 12.6422">
 <g>
  <rect height="12.6422" opacity="0" width="25.6323" x="0" y="0"/>
  <path d="M0.597713 5.52714C4.36939 10.2098 7.87681 12.6422 12.6346 12.6422C17.3844 12.6422 20.8928 10.2062 24.6635 5.52714C25.7625 4.16366 25.2702 2.8541 23.927 2.69453C20.6055 2.29746 19.6276 0.021289 16.6631 0.021289C14.3323 0.021289 12.9503 1.81816 12.6346 1.81816C12.311 1.81816 10.929 0.021289 8.5981 0.021289C5.63365 0.021289 4.66373 2.29922 1.33423 2.69453C-0.000917489 2.85059-0.491541 4.16191 0.597713 5.52714ZM2.89908 5.18554C2.34303 4.84765 2.6774 4.19609 3.21021 4.43906C4.56607 5.07226 5.95494 5.00918 7.74654 4.81211C8.22505 4.75 8.70884 4.67988 9.19263 4.67988C10.7051 4.67988 11.527 5.21152 12.0588 5.53379C12.4034 5.73535 12.5047 5.76914 12.6364 5.76914C12.768 5.76914 12.8694 5.73535 13.2139 5.53203C13.7493 5.22129 14.5579 4.67988 16.0721 4.67988C16.5559 4.67988 17.0397 4.75 17.528 4.81211C19.3292 5.06504 20.7208 5.06699 22.0626 4.43906C22.5954 4.19609 22.9297 4.84765 22.3657 5.18554C20.0958 6.56777 17.5133 6.11933 16.4821 6.11132C14.2243 6.11132 13.9766 7.30351 12.6364 7.30351C11.2979 7.30351 11.0503 6.11132 8.78267 6.11132C7.75943 6.11933 5.16724 6.58906 2.89908 5.18554Z" fill="white" fill-opacity="0.85"/>
 </g>
</svg>
