<?xml version="1.0" encoding="UTF-8"?>
<!--Generator: Apple Native CoreSVG 341-->
<!DOCTYPE svg
PUBLIC "-//W3C//DTD SVG 1.1//EN"
       "http://www.w3.org/Graphics/SVG/1.1/DTD/svg11.dtd">
<svg version="1.1" xmlns="http://www.w3.org/2000/svg" xmlns:xlink="http://www.w3.org/1999/xlink" viewBox="0 0 31.6527 14.8395">
 <g>
  <rect height="14.8395" opacity="0" width="31.6527" x="0" y="0"/>
  <path d="M0.995306 14.8279C1.64315 14.8279 1.9871 14.4033 1.9871 13.7715L1.9871 3.34666L1.98514 3.34666L4.18339 13.4193C4.32265 14.0916 4.72538 14.5893 5.42518 14.5893C6.11171 14.5893 6.50995 14.0941 6.65721 13.3953L8.85195 3.34666L8.84023 3.34666L8.84023 13.7715C8.84023 14.3856 9.16815 14.8279 9.83202 14.8279C10.4781 14.8279 10.8353 14.4273 10.8353 13.7715L10.8353 1.5912C10.8353 0.657224 10.2201 0 9.20878 0C8.32851 0 7.78789 0.434765 7.60254 1.34335L5.41991 11.5858L5.44393 11.5858L3.21775 1.34335C3.0244 0.445311 2.51034 0 1.60878 0C0.562302 0 0 0.700387 0 1.5912L0 13.7715C0 14.3695 0.323435 14.8279 0.995306 14.8279ZM14.4174 14.7879C15.1144 14.7879 15.5179 14.3637 15.5179 13.6412L15.5179 9.63222L17.1431 9.63222C19.6744 9.63222 21.0205 7.46073 21.0205 4.91367C21.0205 2.39844 19.7228 0.196093 17.2634 0.196093L14.4049 0.196093C13.7031 0.196093 13.3185 0.660543 13.3185 1.35429L13.3185 13.6412C13.3185 14.3414 13.6873 14.7879 14.4174 14.7879ZM15.5179 7.81309L15.5179 2.04354L16.7222 2.04354C18.2564 2.04354 18.8396 3.33144 18.8396 4.91543C18.8396 6.50293 18.2742 7.81309 16.7187 7.81309ZM24.1308 14.8279C24.8664 14.8279 25.2199 14.3189 25.2199 13.6315L25.2199 8.21484L29.0857 8.21484L29.0857 13.6315C29.0857 14.3369 29.4562 14.8279 30.1925 14.8279C30.9261 14.8279 31.2914 14.3352 31.2914 13.6315L31.2914 1.19823C31.2914 0.472458 30.9121 0 30.1925 0C29.4738 0 29.0857 0.465427 29.0857 1.19823L29.0857 6.3295L25.2199 6.3295L25.2199 1.19823C25.2199 0.458788 24.8207 0 24.1308 0C23.4033 0 23.0222 0.472458 23.0222 1.19823L23.0222 13.6315C23.0222 14.3281 23.384 14.8279 24.1308 14.8279Z" fill="white" fill-opacity="0.85"/>
 </g>
</svg>
