<?xml version="1.0" encoding="UTF-8"?>
<!--Generator: Apple Native CoreSVG 341-->
<!DOCTYPE svg
PUBLIC "-//W3C//DTD SVG 1.1//EN"
       "http://www.w3.org/Graphics/SVG/1.1/DTD/svg11.dtd">
<svg version="1.1" xmlns="http://www.w3.org/2000/svg" xmlns:xlink="http://www.w3.org/1999/xlink" viewBox="0 0 18.5894 18.2316">
 <g>
  <rect height="18.2316" opacity="0" width="18.5894" x="0" y="0"/>
  <path d="M3.20351 18.2281L15.0246 18.2281C17.1404 18.2281 18.2281 17.1502 18.2281 15.0646L18.2281 3.17148C18.2281 1.08769 17.1404 0 15.0246 0L3.20351 0C1.0957 0 0 1.08769 0 3.17148L0 15.0646C0 17.1502 1.0957 18.2281 3.20351 18.2281ZM3.31444 16.3148C2.40643 16.3148 1.91327 15.8465 1.91327 14.8977L1.91327 3.34023C1.91327 2.39139 2.40643 1.91503 3.31444 1.91503L14.9137 1.91503C15.8137 1.91503 16.3148 2.39139 16.3148 3.34023L16.3148 14.8977C16.3148 15.8465 15.8137 16.3148 14.9137 16.3148Z" fill="white" fill-opacity="0.85"/>
  <path d="M6.55038 12.9449L12.9547 6.53085C13.1303 6.36678 13.2189 6.15487 13.2189 5.91893C13.2189 5.42948 12.8367 5.04726 12.341 5.04726C12.091 5.04726 11.8906 5.13242 11.723 5.30976L5.29296 11.7061C5.12714 11.8799 5.02871 12.082 5.02871 12.326C5.02871 12.8234 5.4207 13.2154 5.90663 13.2154C6.17265 13.2154 6.3828 13.1125 6.55038 12.9449ZM11.707 12.9449C11.8746 13.1125 12.083 13.2154 12.341 13.2154C12.8367 13.2154 13.2189 12.8234 13.2189 12.326C13.2189 12.082 13.1303 11.8799 12.9547 11.7061L6.53436 5.30976C6.36678 5.13242 6.15663 5.04726 5.90663 5.04726C5.4207 5.04726 5.02871 5.42948 5.02871 5.91893C5.02871 6.15487 5.12714 6.36678 5.29296 6.53085Z" fill="white" fill-opacity="0.85"/>
 </g>
</svg>
