<?xml version="1.0" encoding="UTF-8"?>
<!--Generator: Apple Native CoreSVG 341-->
<!DOCTYPE svg
PUBLIC "-//W3C//DTD SVG 1.1//EN"
       "http://www.w3.org/Graphics/SVG/1.1/DTD/svg11.dtd">
<svg version="1.1" xmlns="http://www.w3.org/2000/svg" xmlns:xlink="http://www.w3.org/1999/xlink" viewBox="0 0 20.5381 20.1848">
 <g>
  <rect height="20.1848" opacity="0" width="20.5381" x="0" y="0"/>
  <path d="M20.1767 10.0875C20.1767 15.6478 15.6576 20.175 10.0875 20.175C4.52715 20.175 0 15.6478 0 10.0875C0 4.51914 4.52715 0 10.0875 0C15.6576 0 20.1767 4.51914 20.1767 10.0875ZM10.2269 7.59706L5.49531 12.675C5.25292 12.9352 5.23788 13.2609 5.43593 13.5166L4.8498 14.2768C4.73359 14.4303 4.73886 14.6246 4.88261 14.7506L5.0371 14.8953C5.18085 15.0178 5.34413 15.0373 5.49765 14.9246L6.27734 14.3385C6.52323 14.5285 6.84726 14.5055 7.0914 14.2791L9.53085 12.0279L9.53085 14.6451C9.53085 14.9859 9.78378 15.2451 10.1344 15.2451C10.4637 15.2451 10.7246 14.9824 10.7246 14.6451L10.7246 10.9043L12.1773 9.56699C12.8103 9.63183 13.4363 9.3664 13.9727 8.81503L10.9674 5.80175C10.408 6.35937 10.1506 6.96757 10.2269 7.59706ZM10.8697 8.91445C10.9568 9.00156 11.0555 9.08417 11.1496 9.16054L6.60937 13.4902L6.30019 13.1863L10.6281 8.60878C10.6885 8.71894 10.7613 8.80605 10.8697 8.91445ZM11.4629 5.30624L14.4664 8.31327C15.4252 7.3748 15.4625 6.13906 14.5418 5.23437C13.6256 4.31991 12.4014 4.36073 11.4629 5.30624Z" fill="white" fill-opacity="0.85"/>
 </g>
</svg>
