<?xml version="1.0" encoding="UTF-8"?>
<!--Generator: Apple Native CoreSVG 341-->
<!DOCTYPE svg
PUBLIC "-//W3C//DTD SVG 1.1//EN"
       "http://www.w3.org/Graphics/SVG/1.1/DTD/svg11.dtd">
<svg version="1.1" xmlns="http://www.w3.org/2000/svg" xmlns:xlink="http://www.w3.org/1999/xlink" viewBox="0 0 24.2072 20.9398">
 <g>
  <rect height="20.9398" opacity="0" width="24.2072" x="0" y="0"/>
  <path d="M0.99804 10.7865C1.30136 10.7865 1.57167 10.6312 1.81015 10.4336L11.51 2.28924C11.642 2.18026 11.79 2.12088 11.9221 2.12088C12.0639 2.12088 12.2039 2.18026 12.3359 2.28924L22.0437 10.4336C22.2742 10.6312 22.5445 10.7865 22.8478 10.7865C23.4666 10.7865 23.8459 10.3564 23.8459 9.85234C23.8459 9.58027 23.7263 9.29316 23.4631 9.08222L13.2873 0.53906C12.8617 0.180858 12.391 0 11.9221 0C11.4549 0 10.9842 0.180858 10.5586 0.53906L0.38281 9.08222C0.127538 9.29316 0 9.58027 0 9.85234C0 10.3564 0.379294 10.7865 0.99804 10.7865ZM18.1213 5.12461L20.8801 7.44453L20.8801 2.86094C20.8801 2.42071 20.5996 2.14024 20.1611 2.14024L18.8437 2.14024C18.4133 2.14024 18.1213 2.42071 18.1213 2.86094ZM5.3205 20.9203L18.5334 20.9203C20.0115 20.9203 20.8801 20.0678 20.8801 18.6303L20.8801 7.75722L18.9668 6.45547L18.9668 18.0533C18.9668 18.6705 18.6303 19.007 18.0291 19.007L5.82479 19.007C5.21561 19.007 4.87908 18.6705 4.87908 18.0533L4.87908 6.46348L2.96582 7.75722L2.96582 18.6303C2.96582 20.0758 3.83437 20.9203 5.3205 20.9203Z" fill="white" fill-opacity="0.85"/>
  <path d="M14.7648 10.51C15.2609 10.3973 15.3994 10.274 15.3994 9.69433L15.3994 7.76601C15.3994 7.3623 15.2461 7.19277 14.7135 7.32948L11.8432 8.04062C11.3408 8.15956 11.2361 8.27304 11.2361 8.86425L11.2361 13.1811C11.2361 13.6064 11.2023 13.6803 10.7139 13.81L9.8242 14.0426C8.89237 14.2857 8.16151 14.8359 8.16151 15.7939C8.16151 16.6478 8.80233 17.2586 9.8037 17.2586C11.2187 17.2586 12.1863 16.2457 12.1863 14.8094L12.1863 11.541C12.1863 11.1955 12.2574 11.1101 12.4662 11.0631Z" fill="white" fill-opacity="0.85"/>
 </g>
</svg>
