<?xml version="1.0" encoding="UTF-8"?>
<!--Generator: Apple Native CoreSVG 341-->
<!DOCTYPE svg
PUBLIC "-//W3C//DTD SVG 1.1//EN"
       "http://www.w3.org/Graphics/SVG/1.1/DTD/svg11.dtd">
<svg version="1.1" xmlns="http://www.w3.org/2000/svg" xmlns:xlink="http://www.w3.org/1999/xlink" viewBox="0 0 20.9371 26.3187">
 <g>
  <rect height="26.3187" opacity="0" width="20.9371" x="0" y="0"/>
  <path d="M14.8529 2.91914L5.72109 2.91914C5.75771 2.0845 6.28355 1.60762 7.15234 1.60762L13.4234 1.60762C14.2922 1.60762 14.8164 2.0845 14.8529 2.91914Z" fill="white" fill-opacity="0.85"/>
  <path d="M16.8295 5.82369C16.4995 5.77004 16.1499 5.74296 15.7824 5.74296L4.79335 5.74296C4.42598 5.74296 4.07648 5.7699 3.74647 5.82334C3.8542 4.84215 4.52082 4.28418 5.59745 4.28418L14.9863 4.28418C16.0631 4.28418 16.7231 4.84228 16.8295 5.82369Z" fill="white" fill-opacity="0.85"/>
  <path d="M4.79335 24.7306L15.7824 24.7306C17.8902 24.7306 18.9859 23.643 18.9859 21.5592L18.9859 10.5043C18.9859 8.4205 17.8902 7.3328 15.7824 7.3328L4.79335 7.3328C2.68379 7.3328 1.58984 8.41249 1.58984 10.5043L1.58984 21.5592C1.58984 23.643 2.68379 24.7306 4.79335 24.7306ZM4.91229 22.8156C4.00428 22.8156 3.50311 22.3393 3.50311 21.3904L3.50311 10.665C3.50311 9.72244 4.00428 9.24607 4.91229 9.24607L15.6715 9.24607C16.5635 9.24607 17.0727 9.72244 17.0727 10.665L17.0727 21.3904C17.0727 22.3393 16.5635 22.8156 15.6715 22.8156Z" fill="white" fill-opacity="0.85"/>
  <path d="M13.4467 14.2099C13.9641 14.0937 14.1238 13.9545 14.1238 13.3517L14.1238 11.3142C14.1238 10.8892 13.9492 10.6967 13.3935 10.8467L10.3537 11.5986C9.82382 11.7291 9.71562 11.8488 9.71562 12.4728L9.71562 17.0498C9.71562 17.4947 9.68007 17.5685 9.17206 17.708L8.21757 17.9601C7.23164 18.2068 6.46171 18.7943 6.46171 19.8012C6.46171 20.7074 7.15136 21.3555 8.20507 21.3555C9.70175 21.3555 10.7217 20.276 10.7217 18.766L10.7217 15.3014C10.7217 14.9346 10.799 14.8492 11.0193 14.8021Z" fill="white" fill-opacity="0.85"/>
 </g>
</svg>
