<?xml version="1.0" encoding="UTF-8"?>
<!--Generator: Apple Native CoreSVG 341-->
<!DOCTYPE svg
PUBLIC "-//W3C//DTD SVG 1.1//EN"
       "http://www.w3.org/Graphics/SVG/1.1/DTD/svg11.dtd">
<svg version="1.1" xmlns="http://www.w3.org/2000/svg" xmlns:xlink="http://www.w3.org/1999/xlink" viewBox="0 0 21.3638 24.8275">
 <g>
  <rect height="24.8275" opacity="0" width="21.3638" x="0" y="0"/>
  <path d="M19.6041 6.07489L19.6041 20.5436C19.6041 22.6638 18.5375 23.7321 16.4484 23.7321L9.60802 23.7321C11.2464 23.4875 12.9264 23.1389 14.709 22.6364C16.7723 22.0349 17.7174 20.6774 17.7174 18.3194L17.7174 4.0454C17.7174 3.68293 17.6877 3.34171 17.6292 3.0243C18.9395 3.37817 19.6041 4.40135 19.6041 6.07489Z" fill="white" fill-opacity="0.85"/>
  <path d="M16.3172 4.0454L16.3172 18.3194C16.3172 20.0513 15.7836 20.8698 14.3195 21.2903C10.7683 22.2841 7.67987 22.6554 4.39687 22.8347C2.49707 22.9509 1.39843 21.9929 1.39843 20.2268L1.39843 5.66474C1.39843 3.86201 2.43808 2.95127 4.08867 2.84306C7.51289 2.63447 10.524 2.13037 13.225 1.51162C15.1773 1.05107 16.3172 2.01064 16.3172 4.0454ZM11.9824 6.39052L7.23144 8.07646C6.85878 8.20868 6.64316 8.46415 6.64316 8.804L6.6707 14.38C6.6707 14.5747 6.59511 14.6911 6.42714 14.7444L5.66698 15.0011C4.65233 15.3624 4.12069 15.981 4.12069 16.8056C4.12069 17.6159 4.75351 18.1067 5.63847 17.9843C6.4412 17.8628 7.57089 17.0626 7.57089 15.6267L7.57089 11.0067C7.57089 10.8147 7.59042 10.7784 7.76991 10.7251L11.7242 9.30966C11.926 9.24657 11.9926 9.27235 11.9926 9.42958L12.0121 12.4995C12.0121 12.6915 11.9205 12.8214 11.74 12.8827L11.0066 13.1606C9.95917 13.5325 9.43281 14.1227 9.43281 14.9278C9.43281 15.7382 10.0816 16.229 10.9684 16.0905C11.7791 15.969 12.8732 15.2159 12.8732 13.7702L12.8732 6.86161C12.8732 6.31943 12.5912 6.15888 11.9824 6.39052Z" fill="white" fill-opacity="0.85"/>
 </g>
</svg>
