<?xml version="1.0" encoding="UTF-8"?>
<!--Generator: Apple Native CoreSVG 341-->
<!DOCTYPE svg
PUBLIC "-//W3C//DTD SVG 1.1//EN"
       "http://www.w3.org/Graphics/SVG/1.1/DTD/svg11.dtd">
<svg version="1.1" xmlns="http://www.w3.org/2000/svg" xmlns:xlink="http://www.w3.org/1999/xlink" viewBox="0 0 20.9371 26.3187">
 <g>
  <rect height="26.3187" opacity="0" width="20.9371" x="0" y="0"/>
  <path d="M14.8533 2.91914L5.72069 2.91914C5.75331 2.07796 6.2799 1.59707 7.15234 1.59707L13.4234 1.59707C14.2959 1.59707 14.8208 2.07796 14.8533 2.91914Z" fill="white" fill-opacity="0.85"/>
  <path d="M16.8295 5.82369C16.4995 5.77004 16.1499 5.74296 15.7824 5.74296L4.79335 5.74296C4.42598 5.74296 4.07648 5.7699 3.74647 5.82334C3.8542 4.84215 4.52082 4.28418 5.59745 4.28418L14.9863 4.28418C16.0631 4.28418 16.7231 4.84228 16.8295 5.82369Z" fill="white" fill-opacity="0.85"/>
  <path d="M18.9859 10.5043L18.9859 21.5592C18.9859 23.643 17.8902 24.7306 15.7824 24.7306L4.79335 24.7306C2.68379 24.7306 1.58984 23.643 1.58984 21.5592L1.58984 10.5043C1.58984 8.41249 2.68379 7.3328 4.79335 7.3328L15.7824 7.3328C17.8902 7.3328 18.9859 8.4205 18.9859 10.5043ZM13.2223 11.141L10.0601 11.9275C9.51171 12.0598 9.39374 12.183 9.39374 12.8301L9.39374 17.5754C9.39374 18.0496 9.3582 18.1234 8.82714 18.2744L7.83632 18.5301C6.8123 18.7883 6.00781 19.4023 6.00781 20.4455C6.00781 21.3898 6.73027 22.0627 7.82558 22.0627C9.38339 22.0627 10.4432 20.9434 10.4432 19.3723L10.4432 15.7808C10.4432 15.4025 10.5285 15.3057 10.7506 15.2506L13.2754 14.6433C13.8158 14.5236 13.9871 14.3746 13.9871 13.7488L13.9871 11.6334C13.9871 11.1836 13.801 10.9892 13.2223 11.141Z" fill="white" fill-opacity="0.85"/>
 </g>
</svg>
