<?xml version="1.0" encoding="UTF-8"?>
<!--Generator: Apple Native CoreSVG 341-->
<!DOCTYPE svg
PUBLIC "-//W3C//DTD SVG 1.1//EN"
       "http://www.w3.org/Graphics/SVG/1.1/DTD/svg11.dtd">
<svg version="1.1" xmlns="http://www.w3.org/2000/svg" xmlns:xlink="http://www.w3.org/1999/xlink" viewBox="0 0 28.3902 11.4418">
 <g>
  <rect height="11.4418" opacity="0" width="28.3902" x="0" y="0"/>
  <path d="M7.67539 11.4418C10.2812 11.4418 12.5221 10.6035 14.0144 9.09393C15.5051 10.6035 17.7476 11.4418 20.3535 11.4418C24.6736 11.4418 28.0289 8.80917 28.0289 5.41152C28.0289 3.93867 27.4035 3.05684 26.3105 3.05684C25.8519 3.05684 25.4572 3.25195 25.1006 3.64668C24.7027 4.08535 24.1252 4.37148 23.4492 4.37148C21.0894 4.37148 20.3684 1.00762 16.4373 1.00762C15.4844 1.00762 14.6449 1.29844 14.0144 1.81367C13.384 1.29844 12.5445 1.00762 11.5898 1.00762C7.65878 1.00762 6.93945 4.37148 4.57968 4.37148C3.9037 4.37148 3.32441 4.08535 2.92831 3.64668C2.56991 3.25195 2.17519 3.05684 1.71835 3.05684C0.625389 3.05684 0 3.93867 0 5.41152C0 8.80917 3.35527 11.4418 7.67539 11.4418ZM7.67539 9.60938C4.46893 9.60938 1.95721 7.8289 1.8289 5.55995C1.82011 5.31815 2.03437 5.28456 2.1871 5.38319C2.76776 5.88886 3.65956 6.16171 4.57968 6.16171C6.33437 6.16171 7.50585 5.21347 8.47089 4.38515C9.46698 3.54355 10.2717 2.83827 11.5951 2.83827C12.4824 2.83827 13.1506 3.23436 13.5252 3.85019C13.8193 4.23358 14.2096 4.24159 14.4957 3.85019C14.8685 3.23436 15.5465 2.83827 16.4338 2.83827C17.7572 2.83827 18.5619 3.54355 19.558 4.38515C20.523 5.21347 21.6945 6.16171 23.4492 6.16171C24.3693 6.16171 25.2611 5.88085 25.8658 5.35116C26.0283 5.24452 26.207 5.2701 26.2 5.55995C26.0717 7.8289 23.5582 9.60938 20.3535 9.60938C17.4953 9.60938 15.3889 8.4666 14.565 6.70488C14.2998 6.21699 13.7291 6.20898 13.4639 6.70488C12.648 8.4666 10.5416 9.60938 7.67539 9.60938Z" fill="white" fill-opacity="0.85"/>
 </g>
</svg>
