<?xml version="1.0" encoding="UTF-8"?>
<!--Generator: Apple Native CoreSVG 341-->
<!DOCTYPE svg
PUBLIC "-//W3C//DTD SVG 1.1//EN"
       "http://www.w3.org/Graphics/SVG/1.1/DTD/svg11.dtd">
<svg version="1.1" xmlns="http://www.w3.org/2000/svg" xmlns:xlink="http://www.w3.org/1999/xlink" viewBox="0 0 20.5381 20.1848">
 <g>
  <rect height="20.1848" opacity="0" width="20.5381" x="0" y="0"/>
  <path d="M10.0875 20.175C15.6576 20.175 20.1767 15.6559 20.1767 10.0875C20.1767 4.51914 15.6576 0 10.0875 0C4.51914 0 0 4.51914 0 10.0875C0 15.6559 4.51914 20.175 10.0875 20.175ZM10.0875 18.1879C5.60839 18.1879 1.9871 14.5666 1.9871 10.0875C1.9871 5.60839 5.60839 1.9871 10.0875 1.9871C14.5666 1.9871 18.1897 5.60839 18.1897 10.0875C18.1897 14.5666 14.5666 18.1879 10.0875 18.1879Z" fill="white" fill-opacity="0.85"/>
  <path d="M7.19355 14.5584C7.73261 14.5584 8.04647 14.226 8.04647 13.6506L8.04647 8.5031L8.11034 8.5031L12.0693 14.0352C12.3682 14.4387 12.5846 14.5584 12.9508 14.5584C13.4732 14.5584 13.7943 14.2338 13.7943 13.6723L13.7943 6.37577C13.7943 5.80839 13.4805 5.46796 12.9414 5.46796C12.4121 5.46796 12.1063 5.82265 12.1063 6.37577L12.1063 11.585L12.0326 11.585L8.09921 6.00526C7.79608 5.5957 7.57069 5.46796 7.20273 5.46796C6.67675 5.46796 6.3664 5.82714 6.3664 6.37616L6.3664 13.6506C6.3664 14.2117 6.6705 14.5584 7.19355 14.5584Z" fill="white" fill-opacity="0.85"/>
 </g>
</svg>
