<?xml version="1.0" encoding="UTF-8"?>
<!--Generator: Apple Native CoreSVG 341-->
<!DOCTYPE svg
PUBLIC "-//W3C//DTD SVG 1.1//EN"
       "http://www.w3.org/Graphics/SVG/1.1/DTD/svg11.dtd">
<svg version="1.1" xmlns="http://www.w3.org/2000/svg" xmlns:xlink="http://www.w3.org/1999/xlink" viewBox="0 0 18.5894 18.2316">
 <g>
  <rect height="18.2316" opacity="0" width="18.5894" x="0" y="0"/>
  <path d="M18.2281 3.17148L18.2281 15.0646C18.2281 17.1502 17.1404 18.2281 15.0246 18.2281L3.20351 18.2281C1.0957 18.2281 0 17.1502 0 15.0646L0 3.17148C0 1.08769 1.0957 0 3.20351 0L15.0246 0C17.1404 0 18.2281 1.08769 18.2281 3.17148ZM11.2404 5.26093L11.2404 10.6397L11.1633 10.6397L7.08612 4.87362C6.77421 4.4455 6.5373 4.30976 6.15253 4.30976C5.6 4.30976 5.27461 4.68222 5.27461 5.26132L5.27461 12.8123C5.27461 13.4018 5.59375 13.7652 6.14511 13.7652C6.70448 13.7652 7.03163 13.416 7.03163 12.8123L7.03163 7.49177L7.10702 7.49177L11.2035 13.2137C11.5094 13.634 11.7391 13.7652 12.1203 13.7652C12.6693 13.7652 13.0055 13.4256 13.0055 12.8375L13.0055 5.26093C13.0055 4.66523 12.6783 4.30976 12.1109 4.30976C11.5676 4.30976 11.2404 4.67948 11.2404 5.26093Z" fill="white" fill-opacity="0.85"/>
 </g>
</svg>
