<?xml version="1.0" encoding="UTF-8"?>
<!--Generator: Apple Native CoreSVG 341-->
<!DOCTYPE svg
PUBLIC "-//W3C//DTD SVG 1.1//EN"
       "http://www.w3.org/Graphics/SVG/1.1/DTD/svg11.dtd">
<svg version="1.1" xmlns="http://www.w3.org/2000/svg" xmlns:xlink="http://www.w3.org/1999/xlink" viewBox="0 0 22.7515 21.4965">
 <g>
  <rect height="21.4965" opacity="0" width="22.7515" x="0" y="0"/>
  <path d="M1.44999 18.9656L20.9947 18.9656L20.9947 18.2322C20.9947 17.8064 20.7437 17.551 20.3117 17.551L19.7447 17.551L19.7447 6.98046L20.5865 6.98046C21.1851 6.98046 21.5363 6.53886 21.5363 6.09277C21.5363 5.7664 21.351 5.47734 20.9545 5.24941L12.481 0.359374C12.0764 0.125976 11.6398 0 11.2183 0C10.7969 0 10.3523 0.125976 9.96366 0.359374L1.49023 5.24941C1.08574 5.47734 0.908396 5.7664 0.908396 6.09277C0.908396 6.53886 1.25957 6.98046 1.85995 6.98046L2.69999 6.98046L2.69999 17.551L2.14101 17.551C1.70898 17.551 1.44999 17.8064 1.44999 18.2322ZM4.32401 17.551L4.32401 5.67245L10.8779 1.99999C10.9846 1.93866 11.1072 1.90487 11.2183 1.90487C11.333 1.90487 11.4521 1.93866 11.5668 1.99999L18.1207 5.67245L18.1207 17.551ZM0.881441 21.4867L21.499 21.4867C21.9797 21.4867 22.3902 21.0849 22.3902 20.5972C22.3902 20.1148 21.9797 19.7158 21.499 19.7158L0.881441 19.7158C0.399022 19.7158 0 20.1148 0 20.5972C0 21.0832 0.399022 21.4867 0.881441 21.4867Z" fill="white" fill-opacity="0.85"/>
  <path d="M8.75877 15.0232C9.13905 15.0232 9.39276 14.7625 9.39276 14.3725L9.39276 8.34724L9.44783 8.34724L12.3477 14.3787C12.5357 14.7767 12.8346 15.0232 13.2885 15.0232C13.8615 15.0232 14.1564 14.6346 14.1564 14.1853L14.1564 6.76854C14.1564 6.36424 13.9187 6.11952 13.5224 6.11952C13.1307 6.11952 12.893 6.36073 12.893 6.76854L12.893 12.8133L12.8379 12.8133L9.93182 6.77029C9.7535 6.37127 9.44842 6.11952 8.991 6.11952C8.49354 6.11952 8.12304 6.44862 8.12304 6.95565L8.12304 14.3725C8.12304 14.7625 8.37675 15.0232 8.75877 15.0232ZM7.28593 10.5732C7.28593 10.75 7.42714 10.8912 7.6039 10.8912L14.7012 10.8912C14.8779 10.8912 15.0191 10.75 15.0191 10.5732C15.0191 10.3982 14.8779 10.257 14.7012 10.257L7.6039 10.257C7.42714 10.257 7.28593 10.3982 7.28593 10.5732Z" fill="white" fill-opacity="0.85"/>
 </g>
</svg>
