<?xml version="1.0" encoding="UTF-8"?>
<!--Generator: Apple Native CoreSVG 341-->
<!DOCTYPE svg
PUBLIC "-//W3C//DTD SVG 1.1//EN"
       "http://www.w3.org/Graphics/SVG/1.1/DTD/svg11.dtd">
<svg version="1.1" xmlns="http://www.w3.org/2000/svg" xmlns:xlink="http://www.w3.org/1999/xlink" viewBox="0 0 18.5894 18.2316">
 <g>
  <rect height="18.2316" opacity="0" width="18.5894" x="0" y="0"/>
  <path d="M3.20351 18.2281L15.0246 18.2281C17.1404 18.2281 18.2281 17.1502 18.2281 15.0646L18.2281 3.17148C18.2281 1.08769 17.1404 0 15.0246 0L3.20351 0C1.0957 0 0 1.08769 0 3.17148L0 15.0646C0 17.1502 1.0957 18.2281 3.20351 18.2281ZM3.31444 16.3148C2.40643 16.3148 1.91327 15.8465 1.91327 14.8977L1.91327 3.34023C1.91327 2.39139 2.40643 1.91503 3.31444 1.91503L14.9137 1.91503C15.8137 1.91503 16.3148 2.39139 16.3148 3.34023L16.3148 14.8977C16.3148 15.8465 15.8137 16.3148 14.9137 16.3148Z" fill="white" fill-opacity="0.85"/>
  <path d="M6.65136 13.5584C7.03964 13.5584 7.28534 13.2977 7.28534 12.8996L7.28534 6.88065L7.34042 6.88065L10.2465 12.9059C10.4266 13.3119 10.7254 13.5584 11.1793 13.5584C11.7621 13.5584 12.049 13.1697 12.049 12.7205L12.049 5.29569C12.049 4.89765 11.8113 4.64667 11.4133 4.64667C11.0232 4.64667 10.7855 4.89589 10.7855 5.29569L10.7855 11.3387L10.7305 11.3387L7.82264 5.30546C7.64608 4.89843 7.341 4.64667 6.88183 4.64667C6.38437 4.64667 6.01386 4.97577 6.01386 5.48104L6.01386 12.8996C6.01386 13.2977 6.26757 13.5584 6.65136 13.5584ZM5.17851 9.10839C5.17851 9.28339 5.31972 9.42461 5.49472 9.42461L12.5937 9.42461C12.7767 9.42461 12.918 9.28339 12.918 9.10839C12.918 8.93164 12.7767 8.79042 12.5937 8.79042L5.49472 8.79042C5.31972 8.79042 5.17851 8.93164 5.17851 9.10839Z" fill="white" fill-opacity="0.85"/>
 </g>
</svg>
