<?xml version="1.0" encoding="UTF-8"?>
<!--Generator: Apple Native CoreSVG 341-->
<!DOCTYPE svg
PUBLIC "-//W3C//DTD SVG 1.1//EN"
       "http://www.w3.org/Graphics/SVG/1.1/DTD/svg11.dtd">
<svg version="1.1" xmlns="http://www.w3.org/2000/svg" xmlns:xlink="http://www.w3.org/1999/xlink" viewBox="0 0 18.5894 18.2316">
 <g>
  <rect height="18.2316" opacity="0" width="18.5894" x="0" y="0"/>
  <path d="M18.2281 3.17148L18.2281 15.0646C18.2281 17.1502 17.1404 18.2281 15.0246 18.2281L3.20351 18.2281C1.0957 18.2281 0 17.1502 0 15.0646L0 3.17148C0 1.08769 1.0957 0 3.20351 0L15.0246 0C17.1404 0 18.2281 1.08769 18.2281 3.17148ZM10.8687 5.14765L10.8687 8.7789L9.53085 8.7789L7.80643 5.15741C7.6246 4.73984 7.30624 4.46855 6.8205 4.46855C6.28847 4.46855 5.90742 4.81269 5.90742 5.34452L5.90742 8.7789L5.37148 8.7789C5.18847 8.7789 5.0375 8.92187 5.0375 9.10839C5.0375 9.29492 5.18847 9.43613 5.37148 9.43613L5.90742 9.43613L5.90742 13.0459C5.90742 13.4643 6.17617 13.7365 6.57499 13.7365C6.98183 13.7365 7.24081 13.4643 7.24081 13.0459L7.24081 9.43613L8.5832 9.43613L10.3049 13.0521C10.4947 13.4705 10.8006 13.7365 11.2811 13.7365C11.8904 13.7365 12.1941 13.3248 12.1941 12.8588L12.1941 9.43613L12.7574 9.43613C12.9502 9.43613 13.1012 9.29492 13.1012 9.10839C13.1012 8.92187 12.9502 8.7789 12.7574 8.7789L12.1941 8.7789L12.1941 5.14765C12.1941 4.73281 11.9414 4.46855 11.5283 4.46855C11.1215 4.46855 10.8687 4.72929 10.8687 5.14765ZM10.8687 11.415L10.8137 11.415L9.84003 9.43613L10.8687 9.43613ZM8.26601 8.7789L7.24081 8.7789L7.24081 6.81405L7.29413 6.81405Z" fill="white" fill-opacity="0.85"/>
 </g>
</svg>
