<?xml version="1.0" encoding="UTF-8"?>
<!--Generator: Apple Native CoreSVG 341-->
<!DOCTYPE svg
PUBLIC "-//W3C//DTD SVG 1.1//EN"
       "http://www.w3.org/Graphics/SVG/1.1/DTD/svg11.dtd">
<svg version="1.1" xmlns="http://www.w3.org/2000/svg" xmlns:xlink="http://www.w3.org/1999/xlink" viewBox="0 0 20.5381 20.1848">
 <g>
  <rect height="20.1848" opacity="0" width="20.5381" x="0" y="0"/>
  <path d="M10.0875 20.175C15.6576 20.175 20.1767 15.6559 20.1767 10.0875C20.1767 4.51914 15.6576 0 10.0875 0C4.51914 0 0 4.51914 0 10.0875C0 15.6559 4.51914 20.175 10.0875 20.175ZM10.0875 18.1879C5.60839 18.1879 1.9871 14.5666 1.9871 10.0875C1.9871 5.60839 5.60839 1.9871 10.0875 1.9871C14.5666 1.9871 18.1897 5.60839 18.1897 10.0875C18.1897 14.5666 14.5666 18.1879 10.0875 18.1879Z" fill="white" fill-opacity="0.85"/>
  <path d="M7.61191 14.535C7.99218 14.535 8.24589 14.2742 8.24589 13.8762L8.24589 7.85721L8.30097 7.85721L11.199 13.8824C11.3871 14.2885 11.6859 14.535 12.1416 14.535C12.7227 14.535 13.0096 14.1463 13.0096 13.6971L13.0096 6.27226C13.0096 5.87421 12.7719 5.62324 12.3738 5.62324C11.9838 5.62324 11.7461 5.87245 11.7461 6.27226L11.7461 12.3152L11.691 12.3152L8.78319 6.28202C8.60663 5.87499 8.30155 5.62324 7.84237 5.62324C7.34492 5.62324 6.97441 5.95234 6.97441 6.45761L6.97441 13.8762C6.97441 14.2742 7.22812 14.535 7.61191 14.535ZM6.13906 10.085C6.13906 10.26 6.28027 10.4012 6.45703 10.4012L13.5543 10.4012C13.7293 10.4012 13.8705 10.26 13.8705 10.085C13.8705 9.9082 13.7293 9.76699 13.5543 9.76699L6.45703 9.76699C6.28027 9.76699 6.13906 9.9082 6.13906 10.085Z" fill="white" fill-opacity="0.85"/>
 </g>
</svg>
