<?xml version="1.0" encoding="UTF-8"?>
<!--Generator: Apple Native CoreSVG 341-->
<!DOCTYPE svg
PUBLIC "-//W3C//DTD SVG 1.1//EN"
       "http://www.w3.org/Graphics/SVG/1.1/DTD/svg11.dtd">
<svg version="1.1" xmlns="http://www.w3.org/2000/svg" xmlns:xlink="http://www.w3.org/1999/xlink" viewBox="0 0 20.5381 20.1848">
 <g>
  <rect height="20.1848" opacity="0" width="20.5381" x="0" y="0"/>
  <path d="M10.0875 20.175C15.6576 20.175 20.1767 15.6559 20.1767 10.0875C20.1767 4.51914 15.6576 0 10.0875 0C4.51914 0 0 4.51914 0 10.0875C0 15.6559 4.51914 20.175 10.0875 20.175ZM10.0875 18.1879C5.60839 18.1879 1.9871 14.5666 1.9871 10.0875C1.9871 5.60839 5.60839 1.9871 10.0875 1.9871C14.5666 1.9871 18.1897 5.60839 18.1897 10.0875C18.1897 14.5666 14.5666 18.1879 10.0875 18.1879Z" fill="white" fill-opacity="0.85"/>
  <path d="M5.01034 9.6832L5.01034 13.6406C5.01034 14.0168 5.27733 14.2113 5.58554 14.2113C5.89374 14.2033 6.1705 14.0088 6.1705 13.6406L6.1705 8.71914L5.97929 8.71914C5.42089 8.71914 5.01034 9.06953 5.01034 9.6832ZM6.58417 14.9295L13.6777 14.9295C14.6463 14.9295 15.1389 14.4449 15.1389 13.4924L15.1389 6.69413C15.1389 5.73358 14.6463 5.25702 13.6777 5.25702L8.49745 5.25702C7.5289 5.25702 7.03456 5.73358 7.03456 6.69413L7.03456 14.0357C7.03456 14.4941 6.92089 14.7535 6.58417 14.9295ZM8.94472 8.03905C8.75565 8.03905 8.61718 7.90683 8.61718 7.71952C8.61718 7.54823 8.74765 7.41776 8.94472 7.41776L13.2402 7.41776C13.4195 7.41776 13.55 7.54823 13.55 7.71952C13.55 7.90683 13.4178 8.03905 13.2402 8.03905ZM8.94472 9.59159C8.75565 9.59159 8.61718 9.46113 8.61718 9.28183C8.61718 9.10077 8.74765 8.97031 8.94472 8.97031L13.2402 8.97031C13.4178 8.97031 13.55 9.10077 13.55 9.28183C13.55 9.46113 13.4195 9.59159 13.2402 9.59159ZM11.675 11.1682C11.4859 11.1682 11.3537 11.0377 11.3537 10.8682C11.3537 10.6853 11.4859 10.5389 11.675 10.5389L13.2402 10.5389C13.4178 10.5389 13.5482 10.6853 13.5482 10.8682C13.5482 11.0377 13.4178 11.1682 13.2402 11.1682ZM11.675 12.7199C11.4859 12.7199 11.3537 12.5895 11.3537 12.4084C11.3537 12.2291 11.4859 12.0969 11.675 12.0969L13.2402 12.0969C13.4178 12.0969 13.5482 12.2291 13.5482 12.4084C13.5482 12.5895 13.4178 12.7199 13.2402 12.7199ZM9.14901 12.7199C8.81073 12.7199 8.61542 12.5229 8.61542 12.1881L8.61542 11.0787C8.61542 10.7519 8.81073 10.5389 9.14901 10.5389L10.231 10.5389C10.5693 10.5389 10.7727 10.7519 10.7727 11.0787L10.7727 12.1881C10.7727 12.5229 10.5693 12.7199 10.231 12.7199Z" fill="white" fill-opacity="0.85"/>
 </g>
</svg>
