<?xml version="1.0" encoding="UTF-8"?>
<!--Generator: Apple Native CoreSVG 341-->
<!DOCTYPE svg
PUBLIC "-//W3C//DTD SVG 1.1//EN"
       "http://www.w3.org/Graphics/SVG/1.1/DTD/svg11.dtd">
<svg version="1.1" xmlns="http://www.w3.org/2000/svg" xmlns:xlink="http://www.w3.org/1999/xlink" viewBox="0 0 22.4801 21.1441">
 <g>
  <rect height="21.1441" opacity="0" width="22.4801" x="0" y="0"/>
  <path d="M22.1187 3.17148L22.1187 17.9744C22.1187 20.0582 21.0328 21.1379 18.9152 21.1379L3.45722 21.1379C4.18378 20.7496 4.42792 20.183 4.42792 19.1838L4.42792 3.17148C4.42792 1.08769 5.52363 0 7.63319 0L18.9152 0C21.0328 0 22.1187 1.08769 22.1187 3.17148ZM2.52539 18.3107C2.52539 19.1115 1.93398 19.5484 1.26445 19.5564C0.593161 19.5564 0 19.1115 0 18.3107L0 9.67792C0 8.30313 0.89765 7.54317 2.12948 7.54317L2.52539 7.54317ZM9.06815 11.5408C8.33495 11.5408 7.89471 11.9811 7.89471 12.7125L7.89471 15.1234C7.89471 15.8486 8.33495 16.2906 9.06815 16.2906L11.4129 16.2906C12.1381 16.2906 12.5801 15.8486 12.5801 15.1234L12.5801 12.7125C12.5801 11.9811 12.1381 11.5408 11.4129 11.5408ZM14.5059 14.951C14.1279 14.951 13.8494 15.2455 13.8494 15.6137C13.8494 15.9738 14.1262 16.2506 14.5059 16.2506L17.9955 16.2506C18.3654 16.2506 18.6404 15.9738 18.6404 15.6137C18.6404 15.2455 18.3654 14.951 17.9955 14.951ZM14.5059 11.5408C14.1262 11.5408 13.8494 11.8256 13.8494 12.2035C13.8494 12.5619 14.1279 12.8387 14.5059 12.8387L17.9955 12.8387C18.3654 12.8387 18.6404 12.5619 18.6404 12.2035C18.6404 11.8256 18.3654 11.5408 17.9955 11.5408ZM8.56717 8.15683C8.191 8.15683 7.90448 8.44335 7.90448 8.81152C7.90448 9.17167 8.18924 9.45644 8.56717 9.45644L17.9955 9.45644C18.3672 9.45644 18.6519 9.17167 18.6519 8.81152C18.6519 8.44335 18.3654 8.15683 17.9955 8.15683ZM8.56717 4.78261C8.18924 4.78261 7.90448 5.05937 7.90448 5.41952C7.90448 5.78769 8.191 6.08222 8.56717 6.08222L17.9955 6.08222C18.3654 6.08222 18.6519 5.78769 18.6519 5.41952C18.6519 5.05937 18.3672 4.78261 17.9955 4.78261Z" fill="white" fill-opacity="0.85"/>
 </g>
</svg>
