<?xml version="1.0" encoding="UTF-8"?>
<!--Generator: Apple Native CoreSVG 341-->
<!DOCTYPE svg
PUBLIC "-//W3C//DTD SVG 1.1//EN"
       "http://www.w3.org/Graphics/SVG/1.1/DTD/svg11.dtd">
<svg version="1.1" xmlns="http://www.w3.org/2000/svg" xmlns:xlink="http://www.w3.org/1999/xlink" viewBox="0 0 22.7515 21.4965">
 <g>
  <rect height="21.4965" opacity="0" width="22.7515" x="0" y="0"/>
  <path d="M1.44999 18.9656L20.9947 18.9656L20.9947 18.2322C20.9947 17.8064 20.7437 17.551 20.3117 17.551L19.7447 17.551L19.7447 6.98046L20.5865 6.98046C21.1851 6.98046 21.5363 6.53886 21.5363 6.09277C21.5363 5.7664 21.351 5.47734 20.9545 5.24941L12.481 0.359374C12.0764 0.125976 11.6398 0 11.2183 0C10.7969 0 10.3523 0.125976 9.96366 0.359374L1.49023 5.24941C1.08574 5.47734 0.908396 5.7664 0.908396 6.09277C0.908396 6.53886 1.25957 6.98046 1.85995 6.98046L2.69999 6.98046L2.69999 17.551L2.14101 17.551C1.70898 17.551 1.44999 17.8064 1.44999 18.2322ZM4.32401 17.551L4.32401 5.67245L10.8779 1.99999C10.9846 1.93866 11.1072 1.90487 11.2183 1.90487C11.333 1.90487 11.4521 1.93866 11.5668 1.99999L18.1207 5.67245L18.1207 17.551ZM0.881441 21.4867L21.499 21.4867C21.9797 21.4867 22.3902 21.0849 22.3902 20.5972C22.3902 20.1148 21.9797 19.7158 21.499 19.7158L0.881441 19.7158C0.399022 19.7158 0 20.1148 0 20.5972C0 21.0832 0.399022 21.4867 0.881441 21.4867Z" fill="white" fill-opacity="0.85"/>
  <path d="M8.01151 14.4461C8.36268 14.4461 8.60741 14.1951 8.60741 13.8164L8.60741 12.3418L9.14315 11.8256L10.7387 14.1094C10.8699 14.3123 11.0455 14.4461 11.2945 14.4461C11.6094 14.4461 11.8691 14.2182 11.8691 13.9148C11.8691 13.743 11.8053 13.6205 11.7068 13.4742L10.0138 11.1017L11.5922 9.45311C11.7402 9.28905 11.8156 9.18807 11.8156 9.00799C11.8156 8.71717 11.5859 8.48124 11.2791 8.48124C11.0982 8.48124 10.9146 8.58768 10.8012 8.7162L8.63494 11.0947L8.60741 11.0947L8.60741 6.89686C8.60741 6.5199 8.36268 6.25916 8.01151 6.25916C7.65409 6.25916 7.40136 6.51014 7.40136 6.88885L7.40136 13.8164C7.40136 14.1951 7.65409 14.4461 8.01151 14.4461ZM13.5113 14.4461C13.7994 14.4461 14.0887 14.2609 14.0887 13.8164L14.0887 10.9795C14.0887 10.315 14.3224 9.63943 15.1025 9.63592C15.3101 9.63592 15.5265 9.60135 15.6801 9.49588C15.814 9.41698 15.8957 9.28045 15.8957 9.08709C15.8957 8.70292 15.6275 8.48124 15.2469 8.48124C14.6324 8.48124 14.2308 9.0246 14.0967 9.63553L14.0346 9.63553L14.0346 9.09139C14.0346 8.7367 13.8039 8.48124 13.49 8.48124C13.1664 8.48124 12.934 8.7367 12.934 9.09139L12.934 13.8164C12.934 14.1951 13.1476 14.4461 13.5113 14.4461Z" fill="white" fill-opacity="0.85"/>
 </g>
</svg>
