<?xml version="1.0" encoding="UTF-8"?>
<!--Generator: Apple Native CoreSVG 341-->
<!DOCTYPE svg
PUBLIC "-//W3C//DTD SVG 1.1//EN"
       "http://www.w3.org/Graphics/SVG/1.1/DTD/svg11.dtd">
<svg version="1.1" xmlns="http://www.w3.org/2000/svg" xmlns:xlink="http://www.w3.org/1999/xlink" viewBox="0 0 22.7515 21.4965">
 <g>
  <rect height="21.4965" opacity="0" width="22.7515" x="0" y="0"/>
  <path d="M12.481 0.359374L20.9545 5.24941C21.351 5.47734 21.5363 5.7664 21.5363 6.09277C21.5363 6.53886 21.1851 6.98046 20.5865 6.98046L19.7447 6.98046L19.7447 18.2742L20.3117 18.2742C20.7437 18.2742 20.9947 18.5297 20.9947 18.9572L20.9947 19.7158L21.499 19.7158C21.9797 19.7158 22.3902 20.1148 22.3902 20.5972C22.3902 21.0849 21.9797 21.4867 21.499 21.4867L0.881441 21.4867C0.399022 21.4867 0 21.0832 0 20.5972C0 20.1148 0.399022 19.7158 0.881441 19.7158L1.44999 19.7158L1.44999 18.9572C1.44999 18.5297 1.70898 18.2742 2.14101 18.2742L2.69999 18.2742L2.69999 6.98046L1.85995 6.98046C1.25957 6.98046 0.908396 6.53886 0.908396 6.09277C0.908396 5.7664 1.08574 5.47734 1.49023 5.24941L9.96366 0.359374C10.3523 0.125976 10.7969 0 11.2183 0C11.6398 0 12.0764 0.125976 12.481 0.359374ZM7.22772 7.75779L7.22772 14.9433C7.22772 15.3353 7.49198 15.6014 7.8662 15.6014C8.23241 15.6014 8.49041 15.3353 8.49041 14.9433L8.49041 13.4199L9.04745 12.8824L10.6918 15.2398C10.8346 15.4623 11.0137 15.6014 11.276 15.6014C11.6076 15.6014 11.8789 15.3682 11.8789 15.0516C11.8789 14.8646 11.815 14.7324 11.7068 14.5844L9.95975 12.1187L11.5922 10.4195C11.742 10.2599 11.8289 10.1474 11.8289 9.95584C11.8289 9.65799 11.5859 9.40252 11.2658 9.40252C11.0682 9.40252 10.8846 9.51072 10.7578 9.65252L8.51795 12.1064L8.49041 12.1064L8.49041 7.7658C8.49041 7.36404 8.23241 7.09803 7.8662 7.09803C7.49198 7.09803 7.22772 7.35603 7.22772 7.75779ZM14.2012 10.6127L14.1373 10.6127L14.1373 10.041C14.1373 9.67928 13.8933 9.40252 13.5662 9.40252C13.2258 9.40252 12.9801 9.67928 12.9801 10.041L12.9801 14.9433C12.9801 15.3353 13.2105 15.6014 13.5857 15.6014C13.8889 15.6014 14.1931 15.4012 14.1931 14.9433L14.1931 12C14.1931 11.3205 14.4349 10.6191 15.2381 10.6121C15.4572 10.6121 15.6869 10.5855 15.8422 10.4703C15.9894 10.3879 16.0711 10.2336 16.0711 10.0367C16.0711 9.63572 15.7914 9.40252 15.3939 9.40252C14.7582 9.40252 14.3353 9.96717 14.2012 10.6127Z" fill="white" fill-opacity="0.85"/>
 </g>
</svg>
