<?xml version="1.0" encoding="UTF-8"?>
<!--Generator: Apple Native CoreSVG 341-->
<!DOCTYPE svg
PUBLIC "-//W3C//DTD SVG 1.1//EN"
       "http://www.w3.org/Graphics/SVG/1.1/DTD/svg11.dtd">
<svg version="1.1" xmlns="http://www.w3.org/2000/svg" xmlns:xlink="http://www.w3.org/1999/xlink" viewBox="0 0 24.2049 19.8808">
 <g>
  <rect height="19.8808" opacity="0" width="24.2049" x="0" y="0"/>
  <path d="M23.8435 11.9178C23.8435 9.01855 22.8031 6.3457 21.0623 4.27031C20.8547 4.02011 20.498 4.02011 20.2621 4.2623L17.9578 6.56484C17.7547 6.76796 17.7467 7.05097 17.9232 7.27363C18.9185 8.56269 19.517 10.1768 19.517 11.9178C19.517 13.6826 18.9115 15.3107 17.8488 16.6611C17.6945 16.8535 17.7025 17.0982 17.8719 17.2756L20.2242 19.6279C20.4646 19.8683 20.8133 19.8683 21.0359 19.6066C22.7908 17.5277 23.8435 14.8443 23.8435 11.9178Z" fill="white" fill-opacity="0.85"/>
  <path d="M11.9178 4.32656C13.6783 4.32656 15.2941 4.933 16.5912 5.93183C16.8041 6.09863 17.0791 6.0791 17.2787 5.87773L19.5812 3.57343C19.8252 3.33125 19.8154 2.9791 19.5582 2.76797C17.4926 1.04043 14.8232 0 11.9178 0C9.02031 0 6.35097 1.04043 4.28711 2.76797C4.02988 2.9791 4.01836 3.33125 4.2623 3.57343L6.56484 5.87773C6.76445 6.0791 7.05097 6.09863 7.28163 5.92207C8.56894 4.933 10.1768 4.32656 11.9178 4.32656Z" fill="white" fill-opacity="0.85"/>
  <path d="M0 11.9178C0 14.8461 1.05625 17.5348 2.81465 19.6137C3.02402 19.8719 3.3789 19.8683 3.61308 19.6279L5.96367 17.2756C6.133 17.0982 6.15077 16.8535 5.99472 16.6611C4.93378 15.3107 4.32656 13.6826 4.32656 11.9178C4.32656 10.1768 4.91699 8.56269 5.92031 7.27363C6.08886 7.05097 6.08886 6.76796 5.88574 6.56484L3.58144 4.2623C3.33926 4.02011 2.98711 4.02187 2.77422 4.2791C1.03867 6.35097 0 9.02031 0 11.9178Z" fill="white" fill-opacity="0.85"/>
  <path d="M8.69316 15.8658C9.04608 15.8658 9.28905 15.6148 9.28905 15.2361L9.28905 13.7615L9.8248 13.2471L11.4203 15.5291C11.5516 15.732 11.7289 15.8658 11.9842 15.8658C12.299 15.8658 12.5588 15.6379 12.5588 15.3346C12.5588 15.1627 12.4967 15.0402 12.3902 14.894L10.7035 12.5215L12.2836 10.8728C12.4299 10.7105 12.499 10.6078 12.499 10.4277C12.499 10.1369 12.2693 9.90097 11.9625 9.90097C11.7879 9.90097 11.598 10.0074 11.4828 10.1359L9.32636 12.5145L9.28905 12.5145L9.28905 8.31659C9.28905 7.93964 9.04608 7.6789 8.69316 7.6789C8.34374 7.6789 8.083 7.92987 8.083 8.30858L8.083 15.2361C8.083 15.6148 8.34374 15.8658 8.69316 15.8658ZM14.201 15.8658C14.481 15.8658 14.7703 15.6807 14.7703 15.2361L14.7703 12.401C14.7703 11.7348 15.0041 11.0592 15.7859 11.0557C15.9998 11.0557 16.2082 11.0211 16.3617 10.9156C16.4975 10.8367 16.5791 10.7002 16.5791 10.5068C16.5791 10.1226 16.3092 9.90097 15.9285 9.90097C15.3141 9.90097 14.9125 10.4443 14.7783 11.0553L14.7162 11.0553L14.7162 10.5111C14.7162 10.1564 14.4855 9.90097 14.1734 9.90097C13.8498 9.90097 13.6156 10.1564 13.6156 10.5111L13.6156 15.2361C13.6156 15.6148 13.831 15.8658 14.201 15.8658Z" fill="white" fill-opacity="0.85"/>
 </g>
</svg>
