<?xml version="1.0" encoding="UTF-8"?>
<!--Generator: Apple Native CoreSVG 341-->
<!DOCTYPE svg
PUBLIC "-//W3C//DTD SVG 1.1//EN"
       "http://www.w3.org/Graphics/SVG/1.1/DTD/svg11.dtd">
<svg version="1.1" xmlns="http://www.w3.org/2000/svg" xmlns:xlink="http://www.w3.org/1999/xlink" viewBox="0 0 18.573 18.2195">
 <g>
  <rect height="18.2195" opacity="0" width="18.573" x="0" y="0"/>
  <path d="M16.8109 1.39277C17.7262 2.29824 18.2117 3.64141 18.2117 5.35039L18.2117 12.8621C18.2117 14.5693 17.7262 15.9143 16.8109 16.818C15.9232 17.7092 14.5801 18.2107 12.8631 18.2107L5.34238 18.2107C3.6334 18.2107 2.28848 17.7172 1.39277 16.818C0.477539 15.9143 0 14.5693 0 12.8621L0 5.35039C0 3.64141 0.485547 2.29824 1.39277 1.39277C2.28047 0.50332 3.6334 0 5.34238 0L12.8631 0C14.5801 0 15.9152 0.495312 16.8109 1.39277ZM3.7414 9.10312C3.7414 12.057 6.13593 14.4596 9.0916 14.4596C12.0535 14.4596 14.448 12.057 14.448 9.10312C14.448 6.14746 12.0535 3.74492 9.0916 3.74492C6.13593 3.74492 3.7414 6.14746 3.7414 9.10312ZM11.025 12.2145C10.473 12.5826 9.81523 12.7916 9.09961 12.7916C7.06171 12.7916 5.41913 11.1393 5.41913 9.10312C5.41913 8.38573 5.62811 7.72792 5.98827 7.17772ZM12.7961 9.10312C12.7961 9.81699 12.5791 10.4811 12.2127 11.0277L7.17323 5.98827C7.72167 5.62362 8.39374 5.41463 9.09961 5.41463C11.1438 5.41463 12.7961 7.06522 12.7961 9.10312Z" fill="white" fill-opacity="0.85"/>
 </g>
</svg>
