<?xml version="1.0" encoding="UTF-8"?>
<!--Generator: Apple Native CoreSVG 341-->
<!DOCTYPE svg
PUBLIC "-//W3C//DTD SVG 1.1//EN"
       "http://www.w3.org/Graphics/SVG/1.1/DTD/svg11.dtd">
<svg version="1.1" xmlns="http://www.w3.org/2000/svg" xmlns:xlink="http://www.w3.org/1999/xlink" viewBox="0 0 14.2996 14.9492">
 <g>
  <rect height="14.9492" opacity="0" width="14.2996" x="0" y="0"/>
  <path d="M1.99277 14.743C2.52792 15.0861 3.18377 14.942 3.52967 14.3988L12.2586 1.67111C12.592 1.16271 12.4691 0.531662 11.934 0.198265C11.3908-0.144897 10.8043-0.0523216 10.4051 0.552167L1.7375 13.2043C1.37832 13.7625 1.42734 14.3953 1.99277 14.743ZM1.08007 5.38144L12.8582 5.38144C13.4377 5.38144 13.9383 4.88262 13.9383 4.28634C13.9383 3.69005 13.4377 3.19748 12.8582 3.19748L1.08007 3.19748C0.511128 3.19748 0 3.69005 0 4.28634C0 4.88262 0.511128 5.38144 1.08007 5.38144ZM1.08007 11.7695L12.8582 11.7695C13.4377 11.7695 13.9383 11.2787 13.9383 10.6824C13.9383 10.0861 13.4377 9.58556 12.8582 9.58556L1.08007 9.58556C0.511128 9.58556 0 10.0861 0 10.6824C0 11.2787 0.511128 11.7695 1.08007 11.7695Z" fill="white" fill-opacity="0.85"/>
 </g>
</svg>
