<?xml version="1.0" encoding="UTF-8"?>
<!--Generator: Apple Native CoreSVG 341-->
<!DOCTYPE svg
PUBLIC "-//W3C//DTD SVG 1.1//EN"
       "http://www.w3.org/Graphics/SVG/1.1/DTD/svg11.dtd">
<svg version="1.1" xmlns="http://www.w3.org/2000/svg" xmlns:xlink="http://www.w3.org/1999/xlink" viewBox="0 0 20.5381 20.1848">
 <g>
  <rect height="20.1848" opacity="0" width="20.5381" x="0" y="0"/>
  <path d="M10.0875 20.175C15.6576 20.175 20.1767 15.6559 20.1767 10.0875C20.1767 4.51914 15.6576 0 10.0875 0C4.51914 0 0 4.51914 0 10.0875C0 15.6559 4.51914 20.175 10.0875 20.175ZM10.0875 18.1879C5.60839 18.1879 1.9871 14.5666 1.9871 10.0875C1.9871 5.60839 5.60839 1.9871 10.0875 1.9871C14.5666 1.9871 18.1897 5.60839 18.1897 10.0875C18.1897 14.5666 14.5666 18.1879 10.0875 18.1879Z" fill="white" fill-opacity="0.85"/>
  <path d="M6.50858 12.7832L13.6424 12.7832C14.2195 12.7832 14.6185 12.4898 14.6185 11.9435C14.6185 11.3893 14.2373 11.0879 13.6441 11.0879L6.50858 11.0879C5.91191 11.0879 5.53066 11.3857 5.53066 11.9435C5.53066 12.4898 5.92968 12.7832 6.50858 12.7832ZM6.50858 9.11991L13.6424 9.11991C14.2195 9.11991 14.6185 8.82656 14.6185 8.27226C14.6185 7.71621 14.2373 7.41484 13.6441 7.41484L6.50858 7.41484C5.91191 7.41484 5.53066 7.71445 5.53066 8.27226C5.53066 8.82656 5.92968 9.11991 6.50858 9.11991ZM6.91347 14.6816C7.33749 14.9781 7.79608 14.8238 8.08905 14.3935L13.4002 6.67324C13.7012 6.22969 13.674 5.77637 13.242 5.4834C12.8117 5.18692 12.3709 5.31719 12.0699 5.76523L6.74452 13.4838C6.43827 13.9353 6.48319 14.3904 6.91347 14.6816Z" fill="white" fill-opacity="0.85"/>
 </g>
</svg>
