<?xml version="1.0" encoding="UTF-8"?>
<!--Generator: Apple Native CoreSVG 341-->
<!DOCTYPE svg
PUBLIC "-//W3C//DTD SVG 1.1//EN"
       "http://www.w3.org/Graphics/SVG/1.1/DTD/svg11.dtd">
<svg version="1.1" xmlns="http://www.w3.org/2000/svg" xmlns:xlink="http://www.w3.org/1999/xlink" viewBox="0 0 20.5381 20.1848">
 <g>
  <rect height="20.1848" opacity="0" width="20.5381" x="0" y="0"/>
  <path d="M20.1767 10.0875C20.1767 15.6478 15.6576 20.175 10.0875 20.175C4.52715 20.175 0 15.6478 0 10.0875C0 4.51914 4.52715 0 10.0875 0C15.6576 0 20.1767 4.51914 20.1767 10.0875ZM11.8094 5.73515L11.4174 7.59707L9.72968 7.59707L10.0701 5.92245C10.1668 5.4578 9.83691 5.05605 9.36699 5.05605C8.89883 5.05605 8.60977 5.28749 8.52109 5.73515L8.13711 7.59707L7.21074 7.59707C6.74707 7.59707 6.42168 7.92871 6.42168 8.38437C6.42168 8.77714 6.69394 9.06093 7.07968 9.06093L7.83906 9.06093L7.46308 10.8945L6.5207 10.8945C6.05527 10.8945 5.72988 11.2262 5.72988 11.6721C5.72988 12.0728 6.0039 12.3486 6.38163 12.3486L7.15801 12.3486L6.78828 14.1377C6.69609 14.6174 7.02519 15.0041 7.50039 15.0041C7.96405 15.0041 8.24159 14.7727 8.32577 14.333L8.74882 12.3566L10.4295 12.3566L10.0633 14.1395C9.9666 14.6191 10.2859 15.0041 10.7611 15.0041C11.2328 15.0041 11.5316 14.7691 11.6221 14.326L12.0291 12.3486L12.9527 12.3486C13.4164 12.3486 13.7435 12.0135 13.7435 11.5693C13.7435 11.1748 13.4713 10.8945 13.09 10.8945L12.3377 10.8945L12.7199 9.06093L13.6445 9.06093C14.1117 9.06093 14.4371 8.72753 14.4371 8.27538C14.4371 7.8791 14.1631 7.59707 13.7836 7.59707L13.0117 7.59707L13.3646 5.92245C13.4471 5.4498 13.1154 5.05605 12.641 5.05605C12.1871 5.05605 11.8963 5.28749 11.8094 5.73515ZM10.815 11.0557L8.92284 11.0557L9.3582 8.93241L11.2646 8.93241Z" fill="white" fill-opacity="0.85"/>
 </g>
</svg>
