<?xml version="1.0" encoding="UTF-8"?>
<!--Generator: Apple Native CoreSVG 341-->
<!DOCTYPE svg
PUBLIC "-//W3C//DTD SVG 1.1//EN"
       "http://www.w3.org/Graphics/SVG/1.1/DTD/svg11.dtd">
<svg version="1.1" xmlns="http://www.w3.org/2000/svg" xmlns:xlink="http://www.w3.org/1999/xlink" viewBox="0 0 23.4906 18.2316">
 <g>
  <rect height="18.2316" opacity="0" width="23.4906" x="0" y="0"/>
  <path d="M23.1293 3.17499L23.1293 15.0682C23.1293 17.1519 22.0416 18.2316 19.9258 18.2316L3.20351 18.2316C1.0957 18.2316 0 17.1519 0 15.0682L0 3.17499C0 1.08945 1.0957 0.00351548 3.20351 0.00351548L19.9258 0.00351548C22.0416 0.00351548 23.1293 1.08945 23.1293 3.17499ZM14.5432 6.64706C14.5131 6.78456 14.498 6.88027 14.498 7.03378C14.498 7.39218 14.765 7.65741 15.1562 7.65741C15.4898 7.65741 15.6975 7.51269 15.8215 7.19843C16.0133 6.59139 16.5402 6.2369 17.252 6.2369C18.0313 6.2369 18.5324 6.62968 18.5324 7.26327C18.5324 7.90937 17.9787 8.37871 17.2146 8.37871L16.716 8.37871C16.3719 8.37871 16.1182 8.61113 16.1182 8.96777C16.1182 9.31288 16.3719 9.56308 16.716 9.56308L17.2609 9.56308C18.1654 9.56308 18.7592 10.0227 18.7592 10.7398C18.7592 11.4428 18.1486 11.9191 17.2262 11.9191C16.4566 11.9191 15.9217 11.5699 15.6996 10.9637C15.5428 10.6521 15.3484 10.5074 15.0228 10.5074C14.6121 10.5074 14.3576 10.7842 14.3576 11.1674C14.3576 11.2996 14.3727 11.3758 14.401 11.5053C14.6439 12.4902 15.802 13.1627 17.2014 13.1627C19.0203 13.1627 20.241 12.2312 20.241 10.8098C20.241 9.79394 19.4889 9.01679 18.4641 8.91894L18.4641 8.90117C19.3033 8.78554 19.9666 8.01112 19.9666 7.09745C19.9666 5.8705 18.8568 4.9994 17.2662 4.9994C15.8984 4.9994 14.8137 5.64609 14.5432 6.64706ZM4.6209 5.38007L3.10898 6.41054C2.89609 6.54804 2.81015 6.71386 2.81015 6.93026C2.81015 7.23358 3.0541 7.48202 3.34042 7.48202C3.47714 7.48202 3.58183 7.46249 3.78789 7.32304L4.84433 6.63085L4.92168 6.63085L4.92168 12.3332C4.92168 12.8371 5.20722 13.1512 5.67461 13.1512C6.15449 13.1512 6.43827 12.8451 6.43827 12.3332L6.43827 5.84667C6.43827 5.31522 6.13417 5.01366 5.61718 5.01366C5.24199 5.01366 5.02637 5.1121 4.6209 5.38007ZM7.90839 6.74081C7.87109 6.87753 7.8498 6.97597 7.8498 7.10644C7.8498 7.47987 8.10078 7.7371 8.49199 7.7371C8.84238 7.7371 9.033 7.54179 9.18749 7.26679C9.38827 6.75956 9.82011 6.26171 10.5844 6.26171C11.3379 6.26171 11.8453 6.70429 11.8453 7.35839C11.8453 7.9289 11.3725 8.42558 10.877 8.94257L8.15488 11.765C7.97675 11.9424 7.86953 12.1418 7.86953 12.375C7.86953 12.7715 8.14629 13.0225 8.57207 13.0207L12.973 13.0207C13.3562 13.0225 13.6232 12.7492 13.6232 12.3811C13.6232 12.0076 13.3562 11.7539 12.973 11.7539L9.99745 11.7539L9.99745 11.7166L11.9492 9.68339C12.7305 8.87695 13.2678 8.17558 13.2678 7.25624C13.2678 5.90409 12.1865 5.01444 10.5451 5.01444C9.30664 5.01444 8.1916 5.73573 7.90839 6.74081Z" fill="white" fill-opacity="0.85"/>
 </g>
</svg>
