<?xml version="1.0" encoding="UTF-8"?>
<!--Generator: Apple Native CoreSVG 341-->
<!DOCTYPE svg
PUBLIC "-//W3C//DTD SVG 1.1//EN"
       "http://www.w3.org/Graphics/SVG/1.1/DTD/svg11.dtd">
<svg version="1.1" xmlns="http://www.w3.org/2000/svg" xmlns:xlink="http://www.w3.org/1999/xlink" viewBox="0 0 18.5894 18.2316">
 <g>
  <rect height="18.2316" opacity="0" width="18.5894" x="0" y="0"/>
  <path d="M3.20351 18.2281L15.0246 18.2281C17.1404 18.2281 18.2281 17.1502 18.2281 15.0646L18.2281 3.17148C18.2281 1.08769 17.1404 0 15.0246 0L3.20351 0C1.0957 0 0 1.08769 0 3.17148L0 15.0646C0 17.1502 1.0957 18.2281 3.20351 18.2281ZM3.31444 16.3148C2.40643 16.3148 1.91327 15.8465 1.91327 14.8977L1.91327 3.34023C1.91327 2.39139 2.40643 1.91503 3.31444 1.91503L14.9137 1.91503C15.8137 1.91503 16.3148 2.39139 16.3148 3.34023L16.3148 14.8977C16.3148 15.8465 15.8137 16.3148 14.9137 16.3148Z" fill="white" fill-opacity="0.85"/>
  <path d="M6.6373 13.8361C7.07441 13.8361 7.33866 13.618 7.42909 13.1951L7.8246 11.2889L9.45469 11.2889L9.09824 13.0131C9.00508 13.4662 9.30937 13.8361 9.76601 13.8361C10.2129 13.8361 10.4967 13.6127 10.5853 13.1898L10.9826 11.2809L11.877 11.2809C12.3158 11.2809 12.6262 10.9625 12.6262 10.5352C12.6262 10.1574 12.3654 9.88867 12.001 9.88867L11.2779 9.88867L11.6486 8.11542L12.5439 8.11542C12.9846 8.11542 13.2967 7.79706 13.2967 7.36972C13.2967 6.99199 13.0359 6.72148 12.6715 6.72148L11.9271 6.72148L12.2623 5.09569C12.351 4.6496 12.0246 4.27089 11.575 4.27089C11.1414 4.27089 10.8639 4.48905 10.7787 4.91815L10.4045 6.72148L8.76737 6.72148L9.09804 5.09569C9.19296 4.65761 8.87812 4.27089 8.425 4.27089C7.9834 4.27089 7.70937 4.48905 7.62246 4.91815L7.25625 6.72148L6.34941 6.72148C5.91855 6.72148 5.60019 7.03808 5.60019 7.46718C5.60019 7.84316 5.85918 8.11542 6.22988 8.11542L6.96348 8.11542L6.5955 9.88867L5.68417 9.88867C5.24355 9.88867 4.93144 10.207 4.93144 10.6344C4.93144 11.0103 5.19218 11.2809 5.55663 11.2809L6.31347 11.2809L5.95527 13.0113C5.86484 13.4645 6.18066 13.8361 6.6373 13.8361ZM7.99687 10.0463L8.41269 7.99667L10.2518 7.99667L9.83144 10.0463Z" fill="white" fill-opacity="0.85"/>
 </g>
</svg>
