<?xml version="1.0" encoding="UTF-8"?>
<!--Generator: Apple Native CoreSVG 341-->
<!DOCTYPE svg
PUBLIC "-//W3C//DTD SVG 1.1//EN"
       "http://www.w3.org/Graphics/SVG/1.1/DTD/svg11.dtd">
<svg version="1.1" xmlns="http://www.w3.org/2000/svg" xmlns:xlink="http://www.w3.org/1999/xlink" viewBox="0 0 19.5826 14.4805">
 <g>
  <rect height="14.4805" opacity="0" width="19.5826" x="0" y="0"/>
  <path d="M15.6857 7.02206C17.7808 7.02206 19.2213 5.62499 19.2213 3.58378C19.2213 1.54883 17.7808 0.14375 15.6857 0.14375C13.6422 0.14375 12.2435 1.55058 12.2435 3.58378C12.2435 5.62499 13.6519 7.02206 15.6857 7.02206ZM15.6857 5.50176C14.6998 5.50176 14.0281 4.72344 14.0281 3.58027C14.0281 2.43535 14.698 1.66679 15.6857 1.66679C16.7365 1.66679 17.4287 2.43359 17.4287 3.58027C17.4287 4.72695 16.725 5.50176 15.6857 5.50176ZM1.03749 14.4805C1.69667 14.4805 2.08123 14.0764 2.08123 13.4084L2.08123 3.99782L2.04744 3.99782L8.6832 13.7102C9.08652 14.2775 9.40996 14.4805 9.90292 14.4805C10.5924 14.4805 10.9877 14.0568 10.9877 13.3125L10.9877 1.27362C10.9877 0.599411 10.6031 0.183789 9.94394 0.183789C9.30078 0.183789 8.90645 0.597653 8.90645 1.27362L8.90645 10.6533L8.93672 10.6533L2.31151 0.950581C1.89764 0.364648 1.61308 0.183789 1.08827 0.183789C0.421872 0.183789 0 0.643747 0 1.34999L0 13.4084C0 14.0728 0.402341 14.4805 1.03749 14.4805ZM13.3588 9.67967L18.114 9.67967C18.676 9.67967 19.0707 9.34452 19.0707 8.77811C19.0707 8.20995 18.676 7.85878 18.114 7.85878L13.3588 7.85878C12.7969 7.85878 12.4181 8.20995 12.4181 8.77811C12.4181 9.34452 12.7969 9.67967 13.3588 9.67967Z" fill="white" fill-opacity="0.85"/>
 </g>
</svg>
