<?xml version="1.0" encoding="UTF-8"?>
<!--Generator: Apple Native CoreSVG 341-->
<!DOCTYPE svg
PUBLIC "-//W3C//DTD SVG 1.1//EN"
       "http://www.w3.org/Graphics/SVG/1.1/DTD/svg11.dtd">
<svg version="1.1" xmlns="http://www.w3.org/2000/svg" xmlns:xlink="http://www.w3.org/1999/xlink" viewBox="0 0 20.5381 20.1848">
 <g>
  <rect height="20.1848" opacity="0" width="20.5381" x="0" y="0"/>
  <path d="M10.0875 20.175C15.6576 20.175 20.1767 15.6559 20.1767 10.0875C20.1767 4.51914 15.6576 0 10.0875 0C4.51914 0 0 4.51914 0 10.0875C0 15.6559 4.51914 20.175 10.0875 20.175ZM10.0875 18.1879C5.60839 18.1879 1.9871 14.5666 1.9871 10.0875C1.9871 5.60839 5.60839 1.9871 10.0875 1.9871C14.5666 1.9871 18.1897 5.60839 18.1897 10.0875C18.1897 14.5666 14.5666 18.1879 10.0875 18.1879Z" fill="white" fill-opacity="0.85"/>
  <path d="M7.58984 14.8127C8.03495 14.8127 8.29921 14.5945 8.38163 14.1717L8.78515 12.2654L10.4152 12.2654L10.0588 13.9896C9.96562 14.4428 10.2699 14.8127 10.7266 14.8127C11.1734 14.8127 11.4572 14.5893 11.5459 14.1664L11.9432 12.2574L12.8375 12.2574C13.2764 12.2574 13.5867 11.9391 13.5867 11.5117C13.5867 11.134 13.3277 10.8652 12.9633 10.8652L12.2385 10.8652L12.6092 9.09198L13.5045 9.09198C13.9451 9.09198 14.2572 8.77362 14.2572 8.34628C14.2572 7.96855 13.9965 7.69804 13.632 7.69804L12.8877 7.69804L13.2228 6.07225C13.3035 5.62616 12.9852 5.24745 12.5355 5.24745C12.102 5.24745 11.8244 5.46562 11.7393 5.89472L11.3668 7.69804L9.72792 7.69804L10.0603 6.07225C10.1535 5.63417 9.83867 5.24745 9.38554 5.24745C8.94394 5.24745 8.66992 5.46562 8.58301 5.89472L8.20879 7.69804L7.30995 7.69804C6.87109 7.69804 6.56074 8.01464 6.56074 8.44374C6.56074 8.81972 6.82148 9.09198 7.19042 9.09198L7.92402 9.09198L7.55605 10.8652L6.64472 10.8652C6.2041 10.8652 5.89375 11.1836 5.89375 11.6109C5.89375 11.9869 6.15273 12.2574 6.51718 12.2574L7.26601 12.2574L6.91582 13.9879C6.82539 14.441 7.14121 14.8127 7.58984 14.8127ZM8.95741 11.0228L9.37324 8.97323L11.2123 8.97323L10.784 11.0228Z" fill="white" fill-opacity="0.85"/>
 </g>
</svg>
