<?xml version="1.0" encoding="UTF-8"?>
<!--Generator: Apple Native CoreSVG 341-->
<!DOCTYPE svg
PUBLIC "-//W3C//DTD SVG 1.1//EN"
       "http://www.w3.org/Graphics/SVG/1.1/DTD/svg11.dtd">
<svg version="1.1" xmlns="http://www.w3.org/2000/svg" xmlns:xlink="http://www.w3.org/1999/xlink" viewBox="0 0 18.5894 18.2316">
 <g>
  <rect height="18.2316" opacity="0" width="18.5894" x="0" y="0"/>
  <path d="M18.2281 3.17148L18.2281 15.0646C18.2281 17.1502 17.1404 18.2281 15.0246 18.2281L3.20351 18.2281C1.0957 18.2281 0 17.1502 0 15.0646L0 3.17148C0 1.08769 1.0957 0 3.20351 0L15.0246 0C17.1404 0 18.2281 1.08769 18.2281 3.17148ZM10.8602 4.75858L10.4682 6.62051L8.78046 6.62051L9.12089 4.94589C9.21757 4.48124 8.88769 4.07949 8.41953 4.07949C7.94961 4.07949 7.66055 4.31093 7.57363 4.75858L7.1959 6.62051L6.26327 6.62051C5.80585 6.62051 5.47246 6.95214 5.47246 7.40781C5.47246 7.80058 5.74472 8.08437 6.13222 8.08437L6.8916 8.08437L6.51386 9.91797L5.57323 9.91797C5.10605 9.91797 4.78066 10.2496 4.78066 10.6955C4.78066 11.0963 5.05468 11.3721 5.43417 11.3721L6.2168 11.3721L5.84082 13.1611C5.74863 13.6408 6.07773 14.0275 6.56093 14.0275C7.01483 14.0275 7.29413 13.7961 7.38632 13.3564L7.7996 11.3801L9.48203 11.3801L9.11406 13.1629C9.01914 13.6426 9.33847 14.0275 9.81367 14.0275C10.2836 14.0275 10.5824 13.7926 10.6728 13.3494L11.0816 11.3721L12.0035 11.3721C12.4689 11.3721 12.7943 11.0369 12.7943 10.5928C12.7943 10.1982 12.5221 9.91797 12.1408 9.91797L11.3902 9.91797L11.7707 8.08437L12.6953 8.08437C13.1625 8.08437 13.4879 7.75097 13.4879 7.29882C13.4879 6.90254 13.2139 6.62051 12.8361 6.62051L12.0642 6.62051L12.4172 4.94589C12.5059 4.47323 12.1662 4.07949 11.6918 4.07949C11.2396 4.07949 10.9488 4.31093 10.8602 4.75858ZM9.87558 10.0791L7.97362 10.0791L8.41073 7.95585L10.3154 7.95585Z" fill="white" fill-opacity="0.85"/>
 </g>
</svg>
