<?xml version="1.0" encoding="UTF-8"?>
<!--Generator: Apple Native CoreSVG 341-->
<!DOCTYPE svg
PUBLIC "-//W3C//DTD SVG 1.1//EN"
       "http://www.w3.org/Graphics/SVG/1.1/DTD/svg11.dtd">
<svg version="1.1" xmlns="http://www.w3.org/2000/svg" xmlns:xlink="http://www.w3.org/1999/xlink" viewBox="0 0 20.8006 19.6566">
 <g>
  <rect height="19.6566" opacity="0" width="20.8006" x="0" y="0"/>
  <path d="M7.23202 19.6469L13.2072 19.6469C14.4703 19.6469 15.1459 19.2236 15.8238 18.481L19.5883 14.2855C20.2582 13.5332 20.4392 13.0318 20.4392 12.007L20.4392 7.64784C20.4392 6.61503 20.2265 6.14628 19.5461 5.36933L15.8238 1.17383C15.1512 0.425976 14.4703 0 13.2072 0L7.23202 0C5.96894 0 5.28535 0.431249 4.61719 1.17383L0.852733 5.36933C0.173047 6.12167 0 6.61503 0 7.64784L0 12.007C0 13.0318 0.173047 13.5332 0.852733 14.2855L4.61719 18.481C5.28535 19.2236 5.96894 19.6469 7.23202 19.6469Z" fill="white" fill-opacity="0.85"/>
 </g>
</svg>
