<?xml version="1.0" encoding="UTF-8"?>
<!--Generator: Apple Native CoreSVG 341-->
<!DOCTYPE svg
PUBLIC "-//W3C//DTD SVG 1.1//EN"
       "http://www.w3.org/Graphics/SVG/1.1/DTD/svg11.dtd">
<svg version="1.1" xmlns="http://www.w3.org/2000/svg" xmlns:xlink="http://www.w3.org/1999/xlink" viewBox="0 0 20.3906 19.2449">
 <g>
  <rect height="19.2449" opacity="0" width="20.3906" x="0" y="0"/>
  <path d="M7.02792 19.2351L13.0014 19.2351C14.2662 19.2351 14.9435 18.8137 15.618 18.0711L19.1783 14.0797C19.8545 13.3193 20.0293 12.826 20.0293 11.8012L20.0293 7.44198C20.0293 6.40917 19.8545 5.92382 19.1783 5.16347L15.618 1.17207C14.9435 0.429491 14.2662 0 13.0014 0L7.02792 0C5.76308 0 5.07949 0.429491 4.41133 1.17207L0.852733 5.16347C0.176562 5.92382 0 6.40917 0 7.44198L0 11.8012C0 12.826 0.176562 13.3193 0.852733 14.0797L4.41133 18.0711C5.07949 18.8137 5.76308 19.2351 7.02792 19.2351ZM17.9221 9.61757L17.9221 11.6297C17.9221 12.3461 17.8324 12.6113 17.4436 13.0428L14.2709 16.573C13.7539 17.1326 13.4594 17.351 12.5285 17.351L7.50078 17.351C6.56992 17.351 6.26914 17.1326 5.76015 16.573L2.57772 13.0428C2.19862 12.6113 2.10721 12.3461 2.10721 11.6297L2.10721 9.61757Z" fill="white" fill-opacity="0.85"/>
 </g>
</svg>
