<?xml version="1.0" encoding="UTF-8"?>
<!--Generator: Apple Native CoreSVG 341-->
<!DOCTYPE svg
PUBLIC "-//W3C//DTD SVG 1.1//EN"
       "http://www.w3.org/Graphics/SVG/1.1/DTD/svg11.dtd">
<svg version="1.1" xmlns="http://www.w3.org/2000/svg" xmlns:xlink="http://www.w3.org/1999/xlink" viewBox="0 0 34.967 25.0324">
 <g>
  <rect height="25.0324" opacity="0" width="34.967" x="0" y="0"/>
  <path d="M32.4555 16.601L33.8744 19.2355C34.2385 19.9051 34.6043 20.6074 34.6043 21.3551C34.6043 22.6506 33.5299 23.6726 32.2344 23.6726C30.9326 23.6726 29.8644 22.6506 29.8644 21.3551C29.8644 20.6074 30.2303 19.9051 30.5863 19.2355L32.0213 16.609C32.0719 16.5033 32.1287 16.4527 32.2344 16.4527C32.3258 16.4527 32.4066 16.5033 32.4555 16.601ZM3.25234 10.0422L7.5662 11.6818C7.81112 11.641 8.07382 11.6135 8.36581 11.6135L9.91918 11.6135C9.52992 12.2761 9.28418 13.0653 9.28418 13.9463C9.28418 16.5494 11.3752 18.6467 13.9668 18.6467C16.5664 18.6467 18.6654 16.5494 18.6654 13.9463C18.6654 13.8127 18.6596 13.6813 18.6467 13.5532L29.9016 10.5527C30.5687 10.3762 30.9064 10.4756 31.2629 10.7895L32.7586 12.0996C33.7238 12.9559 32.4785 14.2045 31.5213 13.3793L30.2193 12.2639L26.5867 13.2328L20.032 21.6279C19.3273 22.5252 18.3246 22.9121 16.7963 22.9121L8.36581 22.9121C7.08027 22.9121 6.24257 22.5283 5.62226 21.5982L0.589646 13.9062C-0.971093 11.5557 0.791012 9.1 3.25234 10.0422ZM1.78827 12.7158L5.25215 18.0039L5.25215 14.6961C5.25215 13.9127 5.41836 13.2857 5.73027 12.817L2.61855 11.609C1.86112 11.3316 1.35448 12.0277 1.78827 12.7158Z" fill="white" fill-opacity="0.85"/>
  <path d="M13.9668 17.2807C15.8164 17.2807 17.3057 15.7994 17.3057 13.9463C17.3057 12.6559 16.5496 11.6475 15.6076 11.092C15.2834 10.91 15.1209 10.6205 15.1209 10.1478L15.1209 2.50761C15.1209 1.88047 14.6002 1.35976 13.9748 1.35976C13.3414 1.35976 12.8269 1.88047 12.8269 2.50761L12.8269 10.1478C12.8269 10.6045 12.6582 10.8842 12.3162 11.0742C11.3822 11.6297 10.6422 12.6559 10.6422 13.9463C10.6422 15.7994 12.1234 17.2807 13.9668 17.2807ZM17.7103 3.62656L19.8558 3.62656C20.2152 3.62656 20.4601 3.35585 20.4601 3.03378C20.4601 2.71171 20.2152 2.43124 19.8558 2.43124L17.7103 2.43124C17.351 2.43124 17.1078 2.71171 17.1078 3.03378C17.1078 3.35585 17.351 3.62656 17.7103 3.62656ZM17.7103 6.21523L19.8558 6.21523C20.2152 6.21523 20.4601 5.94277 20.4601 5.6207C20.4601 5.29863 20.2152 5.02792 19.8558 5.02792L17.7103 5.02792C17.351 5.02792 17.1078 5.29863 17.1078 5.6207C17.1078 5.94277 17.351 6.21523 17.7103 6.21523ZM17.7103 8.80214L19.8558 8.80214C20.2152 8.80214 20.4601 8.52968 20.4601 8.20761C20.4601 7.8873 20.2152 7.61484 19.8558 7.61484L17.7103 7.61484C17.351 7.61484 17.1078 7.8873 17.1078 8.20761C17.1078 8.52968 17.351 8.80214 17.7103 8.80214Z" fill="white" fill-opacity="0.85"/>
 </g>
</svg>
