<?xml version="1.0" encoding="UTF-8"?>
<!--Generator: Apple Native CoreSVG 341-->
<!DOCTYPE svg
PUBLIC "-//W3C//DTD SVG 1.1//EN"
       "http://www.w3.org/Graphics/SVG/1.1/DTD/svg11.dtd">
<svg version="1.1" xmlns="http://www.w3.org/2000/svg" xmlns:xlink="http://www.w3.org/1999/xlink" viewBox="0 0 23.1871 16.7793">
 <g>
  <rect height="16.7793" opacity="0" width="23.1871" x="0" y="0"/>
  <path d="M3.76542 12.7973C3.76542 12.3785 4.10077 12.0316 4.52929 12.0316L18.2982 12.0316C18.7268 12.0316 19.0621 12.3785 19.0621 12.7973C19.0621 13.2178 18.7268 13.5709 18.2982 13.5709L4.52929 13.5709C4.10077 13.5709 3.76542 13.2178 3.76542 12.7973ZM4.01132 16.7793L18.8144 16.7793C21.1928 16.7793 22.8258 15.156 22.8258 12.7973C22.8258 10.4402 21.1928 8.81074 18.8144 8.81074L4.01132 8.81074C1.63301 8.81074 0 10.4402 0 12.7973C0 15.156 1.63301 16.7793 4.01132 16.7793ZM4.01132 7.3832L18.8144 7.3832C19.7904 7.3832 20.6812 7.60058 21.4461 7.9998L19.0488 2.35625C18.4064 0.841209 17.1025 0.0115234 15.3516 0.0115234L7.47773 0.0115234C5.72675 0.0115234 4.42285 0.841209 3.78047 2.35625L1.37871 7.99453C2.14805 7.60058 3.03711 7.3832 4.01132 7.3832Z" fill="white" fill-opacity="0.85"/>
 </g>
</svg>
