<?xml version="1.0" encoding="UTF-8"?>
<!--Generator: Apple Native CoreSVG 341-->
<!DOCTYPE svg
PUBLIC "-//W3C//DTD SVG 1.1//EN"
       "http://www.w3.org/Graphics/SVG/1.1/DTD/svg11.dtd">
<svg version="1.1" xmlns="http://www.w3.org/2000/svg" xmlns:xlink="http://www.w3.org/1999/xlink" viewBox="0 0 20.4908 17.9145">
 <g>
  <rect height="17.9145" opacity="0" width="20.4908" x="0" y="0"/>
  <path d="M5.74628 0L1.10077 0C0.479489 0 0 0.461715 0 1.05995C0 1.65995 0.477731 2.12616 1.10077 2.12616L5.25879 2.12616C5.57871 2.12616 5.81328 2.26835 5.9457 2.55897L12.3162 16.6061C12.7268 17.5072 13.3611 17.9145 14.3352 17.9145L19.0305 17.9145C19.642 17.9145 20.1295 17.4447 20.1295 16.8545C20.1295 16.2625 19.6437 15.7883 19.0305 15.7883L14.8449 15.7883C14.4912 15.7883 14.2664 15.6541 14.126 15.3635L7.78124 1.32617C7.40351 0.490624 6.65292 0 5.74628 0ZM19.0305 0L12.8685 0C12.2473 0 11.7695 0.453708 11.7695 1.05195C11.7695 1.65194 12.2455 2.11014 12.8685 2.11014L19.0305 2.11014C19.6518 2.11014 20.1215 1.65194 20.1215 1.05195C20.1215 0.450192 19.6518 0 19.0305 0Z" fill="white" fill-opacity="0.85"/>
 </g>
</svg>
