<?xml version="1.0" encoding="UTF-8"?>
<!--Generator: Apple Native CoreSVG 341-->
<!DOCTYPE svg
PUBLIC "-//W3C//DTD SVG 1.1//EN"
       "http://www.w3.org/Graphics/SVG/1.1/DTD/svg11.dtd">
<svg version="1.1" xmlns="http://www.w3.org/2000/svg" xmlns:xlink="http://www.w3.org/1999/xlink" viewBox="0 0 18.5894 18.2316">
 <g>
  <rect height="18.2316" opacity="0" width="18.5894" x="0" y="0"/>
  <path d="M18.2281 3.17148L18.2281 15.0646C18.2281 17.1502 17.1404 18.2281 15.0246 18.2281L3.20351 18.2281C1.0957 18.2281 0 17.1502 0 15.0646L0 3.17148C0 1.08769 1.0957 0 3.20351 0L15.0246 0C17.1404 0 18.2281 1.08769 18.2281 3.17148ZM6.98535 4.44277C6.31914 4.44277 5.97715 4.86835 5.97715 5.55057L5.97715 12.668C5.97715 13.3264 6.32363 13.7652 6.94668 13.7652C7.58046 13.7652 7.93222 13.3406 7.93222 12.668L7.93222 10.8047L9.74492 10.8047C11.7783 10.8047 13.1115 9.54608 13.1115 7.62909C13.1115 5.71562 11.7693 4.44277 9.76171 4.44277ZM11.2234 7.63085C11.2234 8.70312 10.5746 9.35273 9.48613 9.35273L7.93222 9.35273L7.93222 5.90272L9.48613 5.90272C10.5684 5.90272 11.2234 6.55057 11.2234 7.63085Z" fill="white" fill-opacity="0.85"/>
 </g>
</svg>
