<?xml version="1.0" encoding="UTF-8"?>
<!--Generator: Apple Native CoreSVG 341-->
<!DOCTYPE svg
PUBLIC "-//W3C//DTD SVG 1.1//EN"
       "http://www.w3.org/Graphics/SVG/1.1/DTD/svg11.dtd">
<svg version="1.1" xmlns="http://www.w3.org/2000/svg" xmlns:xlink="http://www.w3.org/1999/xlink" viewBox="0 0 23.5768 17.8687">
 <g>
  <rect height="17.8687" opacity="0" width="23.5768" x="0" y="0"/>
  <path d="M7.73047 17.8545L15.485 17.8545C21.2053 17.8545 23.2154 15.776 23.2154 10.3949L23.2154 7.46757C23.2154 2.08652 21.2053 0 15.485 0L7.73047 0C2.01191 0 0 2.08652 0 7.46757L0 10.3949C0 15.776 2.01191 17.8545 7.73047 17.8545ZM7.73047 15.9412C3.33026 15.9412 1.91327 14.5367 1.91327 10.3949L1.91327 7.46757C1.91327 3.32753 3.33026 1.91327 7.73047 1.91327L15.485 1.91327C19.8852 1.91327 21.3022 3.32753 21.3022 7.46757L21.3022 10.3949C21.3022 14.5367 19.8852 15.9412 15.485 15.9412Z" fill="white" fill-opacity="0.85"/>
  <path d="M7.21523 12.9215C7.7121 12.9215 7.96405 12.6242 7.96405 12.1451L7.96405 10.298L8.9166 10.298C10.4072 10.298 11.249 9.1582 11.249 7.67362C11.249 6.19628 10.425 5.02792 9.01328 5.02792L7.21074 5.02792C6.76367 5.02792 6.46191 5.31894 6.46191 5.82206L6.46191 12.1451C6.46191 12.6445 6.74394 12.9215 7.21523 12.9215ZM7.96405 9.1205L7.96405 6.233L8.62558 6.233C9.40195 6.233 9.75039 6.8119 9.75039 7.67362C9.75039 8.49531 9.43574 9.1205 8.61582 9.1205ZM12.8623 12.8186L16.1736 12.8186C16.5471 12.8186 16.7566 12.5711 16.7566 12.224C16.7566 11.8529 16.5391 11.6215 16.1736 11.6215L13.9805 11.6215L13.9805 11.5434L15.3271 9.85097C16.2563 8.70507 16.6172 7.98769 16.6172 7.09491C16.6172 5.76249 15.7064 4.83886 14.3658 4.83886C13.1299 4.83886 12.1773 5.83886 12.1773 6.85624C12.1773 7.23691 12.4027 7.50839 12.7949 7.50839C13.126 7.50839 13.3424 7.35487 13.4471 7.008C13.615 6.41171 13.8398 6.02265 14.3561 6.02265C14.9166 6.02265 15.202 6.51561 15.202 7.15976C15.202 7.91991 14.6824 8.68281 14.1561 9.35566L12.5535 11.3971C12.3346 11.6736 12.1711 11.9195 12.1711 12.2223C12.1711 12.5789 12.3937 12.8186 12.8623 12.8186Z" fill="white" fill-opacity="0.85"/>
 </g>
</svg>
