<?xml version="1.0" encoding="UTF-8"?>
<!--Generator: Apple Native CoreSVG 341-->
<!DOCTYPE svg
PUBLIC "-//W3C//DTD SVG 1.1//EN"
       "http://www.w3.org/Graphics/SVG/1.1/DTD/svg11.dtd">
<svg version="1.1" xmlns="http://www.w3.org/2000/svg" xmlns:xlink="http://www.w3.org/1999/xlink" viewBox="0 0 23.5768 17.8687">
 <g>
  <rect height="17.8687" opacity="0" width="23.5768" x="0" y="0"/>
  <path d="M7.73047 17.8545L15.485 17.8545C21.2053 17.8545 23.2154 15.776 23.2154 10.3949L23.2154 7.46757C23.2154 2.08652 21.2053 0 15.485 0L7.73047 0C2.01191 0 0 2.08652 0 7.46757L0 10.3949C0 15.776 2.01191 17.8545 7.73047 17.8545ZM7.73047 15.9412C3.33026 15.9412 1.91327 14.5367 1.91327 10.3949L1.91327 7.46757C1.91327 3.32753 3.33026 1.91327 7.73047 1.91327L15.485 1.91327C19.8852 1.91327 21.3022 3.32753 21.3022 7.46757L21.3022 10.3949C21.3022 14.5367 19.8852 15.9412 15.485 15.9412Z" fill="white" fill-opacity="0.85"/>
  <path d="M7.14316 12.9215C7.63827 12.9215 7.89823 12.6242 7.89823 12.1451L7.89823 10.298L8.85253 10.298C10.3352 10.298 11.185 9.1582 11.185 7.67362C11.185 6.19628 10.3609 5.02792 8.94121 5.02792L7.13691 5.02792C6.6916 5.02792 6.38984 5.31894 6.38984 5.82206L6.38984 12.1451C6.38984 12.6445 6.67011 12.9215 7.14316 12.9215ZM7.89823 9.1205L7.89823 6.233L8.55351 6.233C9.32988 6.233 9.68633 6.8119 9.68633 7.67362C9.68633 8.49531 9.36367 9.1205 8.54375 9.1205ZM14.5334 12.9961C15.9369 12.9961 16.9971 12.126 16.9971 10.6822C16.9971 9.5205 16.3113 8.91249 15.4928 8.82109L15.4928 8.79003C16.3154 8.57148 16.7662 7.80859 16.7662 6.97597C16.7662 5.64062 15.7779 4.87265 14.4908 4.87265C13.491 4.87265 12.6131 5.42323 12.3352 6.29413C12.2863 6.47265 12.2668 6.64843 12.2668 6.8162C12.2668 7.14198 12.4781 7.4205 12.8924 7.4205C13.2297 7.4205 13.4584 7.2953 13.5578 6.93944C13.6982 6.416 13.9844 6.05995 14.4943 6.05995C15.0914 6.05995 15.3625 6.54218 15.3625 7.13925C15.3625 7.80468 15.0123 8.31347 14.315 8.31347L14.1123 8.31347C13.7539 8.31347 13.5453 8.52734 13.5453 8.86015C13.5453 9.19648 13.7602 9.39257 14.1123 9.39257L14.3248 9.39257C15.1127 9.39257 15.533 9.82695 15.533 10.6291C15.533 11.2555 15.2086 11.8088 14.5316 11.8088C13.8855 11.8088 13.5977 11.3725 13.4725 10.9514C13.374 10.6213 13.1469 10.4465 12.815 10.4465C12.4113 10.4465 12.1451 10.6949 12.1451 11.0969C12.1451 11.2762 12.1744 11.4502 12.2232 11.6064C12.4949 12.5023 13.4805 12.9961 14.5334 12.9961Z" fill="white" fill-opacity="0.85"/>
 </g>
</svg>
