<?xml version="1.0" encoding="UTF-8"?>
<!--Generator: Apple Native CoreSVG 341-->
<!DOCTYPE svg
PUBLIC "-//W3C//DTD SVG 1.1//EN"
       "http://www.w3.org/Graphics/SVG/1.1/DTD/svg11.dtd">
<svg version="1.1" xmlns="http://www.w3.org/2000/svg" xmlns:xlink="http://www.w3.org/1999/xlink" viewBox="0 0 15.5459 26.3213">
 <g>
  <rect height="26.3213" opacity="0" width="15.5459" x="0" y="0"/>
  <path d="M15.1846 15.2607C15.1846 11.1497 13.5654 5.44895 9.5201 1.20832C8.64139 0.290552 7.29179-0.377415 5.72031 0.238404L4.77128 0.609498C2.91406 1.33625 2.36758 2.63332 3.1289 4.39113C4.6666 7.86515 5.04394 10.412 5.04394 12.5405C5.04394 13.3607 4.62988 13.8503 3.77421 13.8503L1.37187 13.8503C0.593161 13.8503 0 14.4542 0 15.2843L0 17.6017C0 18.3536 0.521286 18.923 1.20683 18.923L3.01972 18.923C3.58144 18.923 3.90058 19.2083 3.90058 19.69C3.90058 20.1128 3.66875 20.5962 3.66875 21.3027C3.66875 22.8788 4.53925 24.0431 6.32324 24.9058L8.27363 25.8468C10.0086 26.689 11.7176 26.2071 12.707 24.5939C14.4433 21.7452 15.1846 18.8861 15.1846 15.2607ZM13.3117 15.2607C13.3117 18.6468 12.6955 21.006 11.1143 23.6171C10.6309 24.3866 9.81874 24.6017 8.94882 24.1698L7.19725 23.2794C5.80136 22.5788 5.44842 22.0925 5.44842 21.0152C5.44842 19.756 6.93807 16.4269 6.93807 11.9839C6.93807 10.3665 6.58924 7.51262 4.88104 3.69406C4.59315 3.06847 4.75487 2.60812 5.37694 2.37531L6.29276 2.02355C7.19042 1.68937 7.58652 1.89562 8.11875 2.42961C11.9471 6.43996 13.3117 11.546 13.3117 15.2607Z" fill="white" fill-opacity="0.85"/>
 </g>
</svg>
