<?xml version="1.0" encoding="UTF-8"?>
<!--Generator: Apple Native CoreSVG 341-->
<!DOCTYPE svg
PUBLIC "-//W3C//DTD SVG 1.1//EN"
       "http://www.w3.org/Graphics/SVG/1.1/DTD/svg11.dtd">
<svg version="1.1" xmlns="http://www.w3.org/2000/svg" xmlns:xlink="http://www.w3.org/1999/xlink" viewBox="0 0 22.5851 24.7566">
 <g>
  <rect height="24.7566" opacity="0" width="22.5851" x="0" y="0"/>
  <path d="M1.1358 17.6683L6.46783 23.0199C7.97466 24.5285 9.57817 24.54 11.0592 23.0527L19.3555 14.7547C20.8188 13.2914 20.809 11.6559 19.3245 10.173L13.9844 4.83125C12.4758 3.32442 10.8803 3.30489 9.38502 4.80195L1.10474 13.0805C-0.38705 14.574-0.359511 16.1598 1.1358 17.6683ZM2.58227 16.3373C1.94946 15.7205 1.95121 15.0318 2.60356 14.3795L10.6805 6.30077C11.3329 5.64842 12.0135 5.65467 12.6383 6.28124L17.8727 11.5058C18.4913 12.1262 18.5028 12.8228 17.8602 13.4637L9.77174 21.5441C9.1354 22.1885 8.43872 22.1822 7.81391 21.5574ZM11.9475 14.5363C13.1622 14.5363 14.1577 13.5408 14.1577 12.2986C14.1577 11.084 13.1622 10.0885 11.9475 10.0885C10.7036 10.0885 9.71783 11.084 9.71783 12.2986C9.71783 13.5408 10.7036 14.5363 11.9475 14.5363ZM11.9493 13.2898C11.3959 13.2898 10.9563 12.8502 10.9563 12.2969C10.9563 11.7666 11.3959 11.3269 11.9493 11.3269C12.4795 11.3269 12.9192 11.7666 12.9192 12.2969C12.9192 12.8502 12.4795 13.2898 11.9493 13.2898ZM11.2499 10.9078L12.6354 10.9078L12.6354 3.45664C12.6354 1.4084 11.2678 0 9.29595 0C7.32584 0 5.96627 1.4084 5.96627 3.45664L5.96627 9.47381L7.34204 8.09628L7.34204 3.48476C7.34204 2.24609 8.13521 1.41484 9.29595 1.41484C10.4585 1.41484 11.2499 2.24609 11.2499 3.48476ZM15.6913 7.74023L19.4743 11.7646L19.4743 13.2305L18.2545 14.6029L18.2545 22.8418C18.2545 23.8367 19.4807 24.0234 19.9452 23.2531L21.6586 20.4342C22.1102 19.6951 22.2256 19.3402 22.2256 18.1971L22.2256 12.491C22.2256 11.4506 21.9934 10.4309 21.1635 9.60273L18.627 7.06621C17.9723 6.41152 17.0313 6.42852 16.4833 6.96328Z" fill="white" fill-opacity="0.85"/>
 </g>
</svg>
