<?xml version="1.0" encoding="UTF-8"?>
<!--Generator: Apple Native CoreSVG 341-->
<!DOCTYPE svg
PUBLIC "-//W3C//DTD SVG 1.1//EN"
       "http://www.w3.org/Graphics/SVG/1.1/DTD/svg11.dtd">
<svg version="1.1" xmlns="http://www.w3.org/2000/svg" xmlns:xlink="http://www.w3.org/1999/xlink" viewBox="0 0 24.5441 20.3183">
 <g>
  <rect height="20.3183" opacity="0" width="24.5441" x="0" y="0"/>
  <path d="M12.9443 20.1441C17.256 20.1441 20.1338 18.6064 20.1338 16.3297C20.1338 14.3391 18.5072 13.9234 18.5072 12.7713C18.5072 11.1877 24.1828 10.9191 24.1828 6.79472C24.1828 2.70332 19.9574 0 13.6705 0C5.50039 0 0 4.1373 0 10.2342C0 16.1609 5.22168 20.1441 12.9443 20.1441ZM12.9443 18.0963C6.38045 18.0963 2.04608 14.9461 2.04608 10.2342C2.04608 5.3117 6.65741 2.04608 13.6705 2.04608C18.7746 2.04608 22.1367 3.96796 22.1367 6.79472C22.1367 10.1062 16.4308 9.74569 16.4308 12.6967C16.4308 14.3894 18.0719 14.8588 18.0719 16.0586C18.0719 17.2848 16.0467 18.0963 12.9443 18.0963ZM12.1084 15.8566C13.6473 15.8566 14.8662 14.6394 14.8662 13.0943C14.8662 11.5898 13.6244 10.3463 12.1084 10.3463C10.5959 10.3463 9.35585 11.5898 9.35585 13.0943C9.35585 14.6166 10.5959 15.8566 12.1084 15.8566ZM12.1084 14.5814C11.2902 14.5814 10.6293 13.9205 10.6293 13.0908C10.6293 12.175 11.3293 11.641 12.0871 11.6295C12.8662 11.6197 13.591 12.1457 13.591 13.0908C13.591 13.9205 12.9381 14.5814 12.1084 14.5814Z" fill="white" fill-opacity="0.85"/>
  <path d="M5.31834 11.5475C6.21151 11.5475 6.93065 10.8088 6.93065 9.91561C6.93065 9.02245 6.21151 8.30331 5.31834 8.30331C4.43494 8.30331 3.70428 9.02245 3.70428 9.91561C3.70428 10.8088 4.43494 11.5475 5.31834 11.5475Z" fill="white" fill-opacity="0.85"/>
  <path d="M8.83006 8.45761C9.94706 8.45761 10.8562 7.56171 10.8562 6.42518C10.8562 5.31444 9.93905 4.42831 8.83006 4.42831C7.70331 4.42831 6.79588 5.31444 6.79588 6.42518C6.79588 7.56171 7.70331 8.45761 8.83006 8.45761Z" fill="white" fill-opacity="0.85"/>
  <path d="M13.7109 6.90546C14.6201 6.90546 15.3392 6.17831 15.3392 5.26913C15.3392 4.3662 14.6201 3.64081 13.7109 3.64081C12.8178 3.64081 12.0728 4.3662 12.0728 5.26913C12.0728 6.17831 12.8178 6.90546 13.7109 6.90546Z" fill="white" fill-opacity="0.85"/>
  <path d="M18.1053 7.52167C18.8359 7.52167 19.4201 6.93124 19.4201 6.19256C19.4201 5.4619 18.8359 4.86971 18.1053 4.86971C17.3684 4.86971 16.7682 5.4619 16.7682 6.19256C16.7682 6.93124 17.3684 7.52167 18.1053 7.52167Z" fill="white" fill-opacity="0.85"/>
 </g>
</svg>
