<?xml version="1.0" encoding="UTF-8"?>
<!--Generator: Apple Native CoreSVG 341-->
<!DOCTYPE svg
PUBLIC "-//W3C//DTD SVG 1.1//EN"
       "http://www.w3.org/Graphics/SVG/1.1/DTD/svg11.dtd">
<svg version="1.1" xmlns="http://www.w3.org/2000/svg" xmlns:xlink="http://www.w3.org/1999/xlink" viewBox="0 0 25.6049 17.2367">
 <g>
  <rect height="17.2367" opacity="0" width="25.6049" x="0" y="0"/>
  <path d="M1.77773 17.2367C3.6828 17.2367 6.34531 14.974 12.6209 14.974C18.8902 14.974 21.5687 17.2287 23.4658 17.2287C24.6191 17.2287 25.2435 16.5094 25.2435 15.3076L25.2435 1.94863C25.2435 0.759957 24.6314 0.0529283 23.501 0.0529283C21.6338 0.0529283 18.8902 2.28046 12.6209 2.28046C6.36132 2.28046 3.60195 0.0177735 1.77773 0.0177735C0.624412 0.0177735 0 0.737107 0 1.94062L0 15.3156C0 16.5174 0.624412 17.2367 1.77773 17.2367ZM2.18495 15.2043C2.00741 15.2043 1.91327 15.1066 1.91327 14.9053L1.91327 2.35096C1.91327 2.14783 2.00741 2.05018 2.18495 2.05018C3.07167 2.05018 6.30097 4.05838 12.6209 4.05838C18.9426 4.05838 22.3726 2.04217 23.0666 2.04217C23.2361 2.04217 23.3303 2.13983 23.3303 2.35096L23.3303 14.9053C23.3303 15.1066 23.2361 15.2043 23.0666 15.2043C22.201 15.2043 18.9426 13.1961 12.6209 13.1961C6.28496 13.1961 2.87889 15.2043 2.18495 15.2043Z" fill="white" fill-opacity="0.85"/>
 </g>
</svg>
