<?xml version="1.0" encoding="UTF-8"?>
<!--Generator: Apple Native CoreSVG 341-->
<!DOCTYPE svg
PUBLIC "-//W3C//DTD SVG 1.1//EN"
       "http://www.w3.org/Graphics/SVG/1.1/DTD/svg11.dtd">
<svg version="1.1" xmlns="http://www.w3.org/2000/svg" xmlns:xlink="http://www.w3.org/1999/xlink" viewBox="0 0 20.5381 20.1848">
 <g>
  <rect height="20.1848" opacity="0" width="20.5381" x="0" y="0"/>
  <path d="M20.1767 10.0875C20.1767 15.6478 15.6576 20.175 10.0875 20.175C4.52715 20.175 0 15.6478 0 10.0875C0 4.51914 4.52715 0 10.0875 0C15.6576 0 20.1767 4.51914 20.1767 10.0875ZM13.8002 4.84843L4.19452 8.52949C3.71874 8.69902 3.36444 9.00078 3.36444 9.43027C3.36444 9.94687 3.74706 10.1437 4.29745 10.3115L7.18789 11.1873C7.57207 11.3133 7.78847 11.3053 8.06425 11.0658L14.2148 5.34003C14.2965 5.26991 14.3799 5.28769 14.442 5.34003C14.5121 5.39413 14.5121 5.4873 14.442 5.56718L8.74824 11.7383C8.50781 11.992 8.483 12.2135 8.58945 12.6146L9.45898 15.4348C9.63476 16.0092 9.81738 16.4176 10.3437 16.4176C10.7732 16.4176 11.0732 16.0775 11.2766 15.5475L14.9318 5.98183C15.026 5.73222 15.0713 5.52089 15.0713 5.33085C15.0713 4.94491 14.8371 4.70898 14.4494 4.70898C14.2576 4.70898 14.048 4.75429 13.8002 4.84843Z" fill="white" fill-opacity="0.85"/>
 </g>
</svg>
