<?xml version="1.0" encoding="UTF-8"?>
<!--Generator: Apple Native CoreSVG 341-->
<!DOCTYPE svg
PUBLIC "-//W3C//DTD SVG 1.1//EN"
       "http://www.w3.org/Graphics/SVG/1.1/DTD/svg11.dtd">
<svg version="1.1" xmlns="http://www.w3.org/2000/svg" xmlns:xlink="http://www.w3.org/1999/xlink" viewBox="0 0 22.0389 21.8027">
 <g>
  <rect height="21.8027" opacity="0" width="22.0389" x="0" y="0"/>
  <path d="M12.332 21.8027C13.0826 21.8027 13.607 21.1902 13.9684 20.251L20.4105 3.41191C20.581 2.97675 20.6734 2.58515 20.6734 2.25839C20.6734 1.56387 20.2389 1.13105 19.5443 1.13105C19.2158 1.13105 18.8242 1.22344 18.3908 1.39219L1.47969 7.86816C0.636523 8.18945 0 8.71211 0 9.4707C0 10.4025 0.69414 10.7527 1.65449 11.0394L8.69824 13.1062L10.7455 20.0726C11.0402 21.0748 11.3922 21.8027 12.332 21.8027ZM9.25371 11.3354L3.12009 9.45937C2.97966 9.41757 2.93434 9.37675 2.93434 9.31015C2.93434 9.24531 2.97165 9.19648 3.10056 9.14492L14.8412 4.66697C15.677 4.34763 16.4852 3.94646 17.3555 3.54939C16.6565 4.11892 15.8012 4.80017 15.2096 5.38825ZM12.5023 18.8844C12.4277 18.8844 12.3887 18.8213 12.3451 18.6826L10.4674 12.5508L16.4162 6.59489C16.9858 6.02009 17.7069 5.13298 18.2631 4.42321C17.8643 5.30954 17.4551 6.11774 17.1358 6.96149L12.6578 18.7004C12.608 18.8293 12.5672 18.8844 12.5023 18.8844Z" fill="white" fill-opacity="0.85"/>
 </g>
</svg>
