<?xml version="1.0" encoding="UTF-8"?>
<!--Generator: Apple Native CoreSVG 341-->
<!DOCTYPE svg
PUBLIC "-//W3C//DTD SVG 1.1//EN"
       "http://www.w3.org/Graphics/SVG/1.1/DTD/svg11.dtd">
<svg version="1.1" xmlns="http://www.w3.org/2000/svg" xmlns:xlink="http://www.w3.org/1999/xlink" viewBox="0 0 16.8734 19.1117">
 <g>
  <rect height="19.1117" opacity="0" width="16.8734" x="0" y="0"/>
  <path d="M0 5.40975C0 8.40897 2.14765 10.3963 5.40468 10.3963L6.7336 10.3963L6.7336 17.99C6.7336 18.6793 7.14746 19.1117 7.82714 19.1117C8.50058 19.1117 8.93221 18.6793 8.93221 17.99L8.93221 2.64392L10.9336 2.64392L10.9336 17.99C10.9336 18.6793 11.3474 19.1117 12.0209 19.1117C12.7006 19.1117 13.1322 18.6793 13.1322 17.99L13.1322 2.64392L14.6385 2.64392C15.3375 2.64392 15.7699 2.20428 15.7699 1.53084C15.7699 0.859168 15.3375 0.445304 14.6385 0.445304L5.30136 0.445304C2.10703 0.445304 0 2.41757 0 5.40975Z" fill="white" fill-opacity="0.85"/>
 </g>
</svg>
