<?xml version="1.0" encoding="UTF-8"?>
<!--Generator: Apple Native CoreSVG 341-->
<!DOCTYPE svg
PUBLIC "-//W3C//DTD SVG 1.1//EN"
       "http://www.w3.org/Graphics/SVG/1.1/DTD/svg11.dtd">
<svg version="1.1" xmlns="http://www.w3.org/2000/svg" xmlns:xlink="http://www.w3.org/1999/xlink" viewBox="0 0 15.79 21.7992">
 <g>
  <rect height="21.7992" opacity="0" width="15.79" x="0" y="0"/>
  <path d="M4.40038 21.7992C4.85916 21.7992 5.22322 21.49 5.22322 21.0984C5.22322 20.8617 5.15486 20.6586 4.98455 20.3688C3.36189 17.5369 2.4783 14.1516 2.4783 10.8912C2.4783 7.65722 3.31619 4.34569 4.96697 1.44882C5.1285 1.16679 5.2074 0.955851 5.2074 0.719134C5.2074 0.327535 4.84159 0.0103503 4.3828 0.0103503C3.89941 0.0103503 3.52773 0.28398 3.09922 0.895107C1.03828 3.79023 0 7.34043 0 10.8947C0 14.449 1.04531 18.0133 3.11504 20.9145C3.54355 21.5336 3.91699 21.7992 4.40038 21.7992ZM11.0283 21.7992C11.5117 21.7992 11.8771 21.5336 12.3136 20.9145C14.3834 18.0133 15.4287 14.449 15.4287 10.8947C15.4287 7.34043 14.3886 3.79023 12.3295 0.895107C11.8929 0.28398 11.5275 0.0103503 11.0441 0.0103503C10.5853 0.0103503 10.2213 0.327535 10.2213 0.719134C10.2213 0.955851 10.2984 1.16679 10.4599 1.44882C12.1125 4.34569 12.9504 7.65722 12.9504 10.8912C12.9504 14.1516 12.065 17.5369 10.4441 20.3688C10.2738 20.6586 10.2037 20.8617 10.2037 21.0984C10.2037 21.49 10.5695 21.7992 11.0283 21.7992Z" fill="white" fill-opacity="0.85"/>
 </g>
</svg>
