<?xml version="1.0" encoding="UTF-8"?>
<!--Generator: Apple Native CoreSVG 341-->
<!DOCTYPE svg
PUBLIC "-//W3C//DTD SVG 1.1//EN"
       "http://www.w3.org/Graphics/SVG/1.1/DTD/svg11.dtd">
<svg version="1.1" xmlns="http://www.w3.org/2000/svg" xmlns:xlink="http://www.w3.org/1999/xlink" viewBox="0 0 31.5462 20.5099">
 <g>
  <rect height="20.5099" opacity="0" width="31.5462" x="0" y="0"/>
  <path d="M21.9681 18.696L30.3257 18.696L28.1128 8.0782C27.9478 7.24852 27.4757 6.82997 26.665 6.82997L25.6164 6.82997C24.7994 6.82997 24.322 7.24852 24.1472 8.0782ZM21.9027 19.7288L30.3689 19.7288C30.8195 19.7288 31.1849 19.3616 31.1849 18.911C31.1849 18.4587 30.8195 18.1012 30.3689 18.1012L21.9027 18.1012C21.4521 18.1012 21.0947 18.4587 21.0947 18.911C21.0947 19.3616 21.4521 19.7288 21.9027 19.7288Z" fill="white" fill-opacity="0.85"/>
  <path d="M17.9927 13.6505C18.3414 14.0522 18.9295 14.0716 19.3718 13.6034C20.9841 11.8772 21.8705 9.51589 21.8705 6.97781C21.8705 4.44324 20.9595 2.06609 19.3718 0.352222C18.933-0.11594 18.3431-0.102855 17.9927 0.305151C17.6591 0.688353 17.7638 1.17898 18.1365 1.60046C19.4197 3.0116 20.1275 4.90632 20.1275 6.97781C20.1275 9.05105 19.4162 10.944 18.1365 12.3569C17.7656 12.7766 17.6609 13.269 17.9927 13.6505Z" fill="white" fill-opacity="0.85"/>
  <path d="M15.1459 10.8532C15.4875 11.255 16.1314 11.27 16.5339 10.7901C17.373 9.77761 17.8455 8.42566 17.8455 6.97781C17.8455 5.52996 17.373 4.178 16.5339 3.16199C16.1314 2.68211 15.4875 2.69089 15.1459 3.10066C14.8228 3.4821 14.956 3.95144 15.2693 4.38894C15.8078 5.06589 16.1025 6.01316 16.1025 6.97781C16.1025 7.94246 15.8078 8.87996 15.2693 9.56316C14.9543 10.0024 14.8228 10.4735 15.1459 10.8532Z" fill="white" fill-opacity="0.85"/>
  <path d="M1.49999 19.7288C2.43103 19.7288 3.0115 19.1235 3.0115 18.1704L3.0115 13.1098L6.81483 13.1098C10.5459 13.1098 13.1289 10.6071 13.1289 6.97781C13.1289 3.32196 10.5855 0.845006 6.89139 0.845006L1.49999 0.845006C0.580465 0.845006 0 1.44051 0 2.40339L0 18.1704C0 19.1315 0.580465 19.7288 1.49999 19.7288ZM3.0115 10.5141L3.0115 3.4405L6.25057 3.4405C8.66718 3.4405 10.0668 4.71413 10.0668 6.97957C10.0668 9.2325 8.66718 10.5141 6.2453 10.5141Z" fill="white" fill-opacity="0.85"/>
 </g>
</svg>
