<?xml version="1.0" encoding="UTF-8"?>
<!--Generator: Apple Native CoreSVG 341-->
<!DOCTYPE svg
PUBLIC "-//W3C//DTD SVG 1.1//EN"
       "http://www.w3.org/Graphics/SVG/1.1/DTD/svg11.dtd">
<svg version="1.1" xmlns="http://www.w3.org/2000/svg" xmlns:xlink="http://www.w3.org/1999/xlink" viewBox="0 0 31.4031 20.5099">
 <g>
  <rect height="20.5099" opacity="0" width="31.4031" x="0" y="0"/>
  <path d="M3.86796 13.6505C4.1998 13.269 4.09687 12.7766 3.72597 12.3569C2.45429 10.944 1.74296 9.05105 1.74296 6.97781C1.74296 4.90632 2.45078 3.0116 3.72597 1.60046C4.09863 1.17898 4.20332 0.688353 3.86796 0.305151C3.52734-0.102855 2.92949-0.11594 2.49863 0.352222C0.910938 2.06609 0 4.44324 0 6.97781C0 9.51589 0.886329 11.8772 2.49863 13.6034C2.93301 14.0716 3.5291 14.0522 3.86796 13.6505ZM27.1738 13.6505C27.5127 14.0522 28.1087 14.0716 28.5431 13.6034C30.1652 11.8772 31.0418 9.51589 31.0418 6.97781C31.0418 4.44324 30.1406 2.06609 28.5431 0.352222C28.114-0.11594 27.5162-0.102855 27.1738 0.305151C26.8402 0.688353 26.9431 1.17898 27.3175 1.60046C28.591 3.0116 29.2988 4.90632 29.2988 6.97781C29.2988 9.05105 28.5875 10.944 27.3175 12.3569C26.9466 12.7766 26.842 13.269 27.1738 13.6505Z" fill="white" fill-opacity="0.85"/>
  <path d="M6.71659 10.8532C7.03964 10.4735 6.9162 10.0024 6.59316 9.56316C6.05292 8.87996 5.76796 7.94246 5.76796 6.97781C5.76796 6.01316 6.05292 5.06589 6.59316 4.38894C6.91444 3.95144 7.03964 3.4821 6.71659 3.10066C6.37323 2.69089 5.73105 2.68211 5.33476 3.16199C4.49746 4.178 4.025 5.52996 4.025 6.97781C4.025 8.42566 4.49746 9.77761 5.33476 10.7901C5.73105 11.27 6.37323 11.255 6.71659 10.8532ZM24.3269 10.8532C24.6685 11.255 25.3107 11.27 25.707 10.7901C26.5461 9.77761 27.0168 8.42566 27.0168 6.97781C27.0168 5.52996 26.5461 4.178 25.707 3.16199C25.3107 2.68211 24.6685 2.69089 24.3269 3.10066C24.0021 3.4821 24.1273 3.95144 24.4486 4.38894C24.9888 5.06589 25.2738 6.01316 25.2738 6.97781C25.2738 7.94246 24.9888 8.87996 24.4486 9.56316C24.1256 10.0024 24.0021 10.4735 24.3269 10.8532Z" fill="white" fill-opacity="0.85"/>
  <path d="M10.681 19.7288C11.6023 19.7288 12.1828 19.1235 12.1828 18.1704L12.1828 13.1098L15.9861 13.1098C19.7252 13.1098 22.3002 10.6071 22.3002 6.97781C22.3002 3.32196 19.7648 0.845006 16.0627 0.845006L10.681 0.845006C9.75976 0.845006 9.17929 1.44051 9.17929 2.40339L9.17929 18.1704C9.17929 19.1315 9.75976 19.7288 10.681 19.7288ZM12.1828 10.5141L12.1828 3.4405L15.4236 3.4405C17.8465 3.4405 19.2381 4.71413 19.2381 6.97957C19.2381 9.2325 17.8385 10.5141 15.4166 10.5141Z" fill="white" fill-opacity="0.85"/>
 </g>
</svg>
