<?xml version="1.0" encoding="UTF-8"?>
<!--Generator: Apple Native CoreSVG 341-->
<!DOCTYPE svg
PUBLIC "-//W3C//DTD SVG 1.1//EN"
       "http://www.w3.org/Graphics/SVG/1.1/DTD/svg11.dtd">
<svg version="1.1" xmlns="http://www.w3.org/2000/svg" xmlns:xlink="http://www.w3.org/1999/xlink" viewBox="0 0 20.5381 20.1848">
 <g>
  <rect height="20.1848" opacity="0" width="20.5381" x="0" y="0"/>
  <path d="M10.0875 20.175C15.6576 20.175 20.1767 15.6559 20.1767 10.0875C20.1767 4.51914 15.6576 0 10.0875 0C4.51914 0 0 4.51914 0 10.0875C0 15.6559 4.51914 20.175 10.0875 20.175ZM10.0875 18.1879C5.60839 18.1879 1.9871 14.5666 1.9871 10.0875C1.9871 5.60839 5.60839 1.9871 10.0875 1.9871C14.5666 1.9871 18.1897 5.60839 18.1897 10.0875C18.1897 14.5666 14.5666 18.1879 10.0875 18.1879Z" fill="white" fill-opacity="0.85"/>
  <path d="M7.96406 14.5584C8.57128 14.5584 8.90272 14.1586 8.90272 13.5195L8.90272 11.7078L10.6631 11.7078C12.6025 11.7078 13.8941 10.4988 13.8941 8.65976C13.8941 6.8207 12.5998 5.59745 10.6799 5.59745L7.99296 5.59745C7.36836 5.59745 7.04317 5.99823 7.04317 6.64862L7.04317 13.5195C7.04317 14.1443 7.37285 14.5584 7.96406 14.5584ZM8.90272 10.3195L8.90272 6.98573L10.4113 6.98573C11.459 6.98573 12.0945 7.61229 12.0945 8.66151C12.0945 9.68945 11.4652 10.3195 10.4113 10.3195Z" fill="white" fill-opacity="0.85"/>
 </g>
</svg>
