<?xml version="1.0" encoding="UTF-8"?>
<!--Generator: Apple Native CoreSVG 341-->
<!DOCTYPE svg
PUBLIC "-//W3C//DTD SVG 1.1//EN"
       "http://www.w3.org/Graphics/SVG/1.1/DTD/svg11.dtd">
<svg version="1.1" xmlns="http://www.w3.org/2000/svg" xmlns:xlink="http://www.w3.org/1999/xlink" viewBox="0 0 33.2798 14.5155">
 <g>
  <rect height="14.5155" opacity="0" width="33.2798" x="0" y="0"/>
  <path d="M3.4039 3.08432C3.82675 3.33432 4.34257 3.20932 4.59784 2.76167C4.85135 2.35132 4.7078 1.81949 4.28319 1.5775L1.75917 0.123789C1.3373-0.131483 0.830271 0.0200789 0.586522 0.467732C0.333008 0.874566 0.463281 1.38687 0.899411 1.63062ZM3.7619 6.37183L0.858002 6.37183C0.358982 6.37183 0 6.74409 0 7.24311C0 7.74037 0.358982 8.11264 0.858002 8.11264L3.7619 8.11264C4.25917 8.11264 4.63495 7.74037 4.63495 7.24311C4.63495 6.74409 4.25917 6.37183 3.7619 6.37183ZM3.4039 11.4019L0.899411 12.8538C0.461523 13.1074 0.333008 13.6099 0.586522 14.0283C0.830271 14.4661 1.3373 14.6177 1.75917 14.3722L4.28319 12.9185C4.7078 12.6685 4.85135 12.1447 4.59784 11.7263C4.34257 11.2849 3.82675 11.1599 3.4039 11.4019ZM29.5146 3.08432L32.0271 1.63062C32.4552 1.38687 32.5855 0.874566 32.34 0.467732C32.0882 0.0200789 31.5892-0.131483 31.1593 0.123789L28.6353 1.5775C28.2187 1.81949 28.0751 2.35132 28.3286 2.76167C28.5759 3.20932 29.0917 3.33432 29.5146 3.08432ZM29.1646 6.37183C28.6673 6.37183 28.2835 6.74409 28.2835 7.24311C28.2835 7.74037 28.6673 8.11264 29.1646 8.11264L32.0605 8.11264C32.5595 8.11264 32.9185 7.74037 32.9185 7.24311C32.9185 6.74409 32.5595 6.37183 32.0605 6.37183ZM29.5146 11.4019C29.0917 11.1599 28.5759 11.2849 28.3286 11.7263C28.0751 12.1447 28.2187 12.6685 28.6353 12.9185L31.1593 14.3722C31.5892 14.6177 32.0882 14.4661 32.34 14.0283C32.5855 13.6099 32.457 13.1074 32.0271 12.8538Z" fill="white" fill-opacity="0.85"/>
  <path d="M15.7355 7.25288C15.7355 4.2523 12.5599 1.46461 9.36384 1.46461L9.10954 1.46461C7.55818 1.46461 6.81522 2.05093 6.40721 3.56636C6.15877 4.5896 6.02127 5.73882 6.02127 7.25288C6.02127 8.75717 6.15877 9.90815 6.40721 10.9474C6.81522 12.4531 7.55818 13.0331 9.10954 13.0331L9.36384 13.0331C12.5599 13.0331 15.7355 10.2535 15.7355 7.25288ZM13.9541 7.25288C13.9541 9.42163 11.8388 11.2517 9.36384 11.2517L9.10954 11.2517C8.55271 11.2517 8.28044 11.0486 8.10544 10.4597C7.91013 9.56635 7.7947 8.56889 7.7947 7.25288C7.7947 5.92709 7.91013 4.9394 8.10544 4.05405C8.27868 3.45717 8.54919 3.24428 9.10954 3.24428L9.36384 3.24428C11.8388 3.24428 13.9541 5.08413 13.9541 7.25288ZM17.183 7.25288C17.183 10.2535 20.3585 13.0331 23.5626 13.0331L23.8089 13.0331C25.3683 13.0331 26.1113 12.4531 26.5193 10.9474C26.7597 9.90815 26.8972 8.75717 26.8972 7.25288C26.8972 5.73882 26.7597 4.5896 26.5193 3.56636C26.1113 2.05093 25.3683 1.46461 23.8089 1.46461L23.5626 1.46461C20.3585 1.46461 17.183 4.2523 17.183 7.25288ZM18.9644 7.25288C18.9644 5.08413 21.0876 3.24428 23.5626 3.24428L23.8089 3.24428C24.3773 3.24428 24.6398 3.45717 24.813 4.05405C25.0164 4.9394 25.1238 5.92709 25.1238 7.25288C25.1238 8.56889 25.0164 9.56635 24.813 10.4597C24.638 11.0486 24.3738 11.2517 23.8089 11.2517L23.5626 11.2517C21.0876 11.2517 18.9644 9.42163 18.9644 7.25288Z" fill="white" fill-opacity="0.85"/>
 </g>
</svg>
