<?xml version="1.0" encoding="UTF-8"?>
<!--Generator: Apple Native CoreSVG 341-->
<!DOCTYPE svg
PUBLIC "-//W3C//DTD SVG 1.1//EN"
       "http://www.w3.org/Graphics/SVG/1.1/DTD/svg11.dtd">
<svg version="1.1" xmlns="http://www.w3.org/2000/svg" xmlns:xlink="http://www.w3.org/1999/xlink" viewBox="0 0 31.4031 25.3465">
 <g>
  <rect height="25.3465" opacity="0" width="31.4031" x="0" y="0"/>
  <path d="M3.19725 3.37677L3.77752 3.95707C3.76136 3.97786 3.74398 3.99839 3.72597 4.01875C2.45078 5.42988 1.74296 7.32461 1.74296 9.3961C1.74296 11.4693 2.45429 13.3623 3.72597 14.7752C4.09687 15.1949 4.1998 15.6873 3.86796 16.0688C3.5291 16.4705 2.93301 16.4898 2.49863 16.0217C0.886329 14.2955 0 11.9342 0 9.3961C0 6.86153 0.910938 4.48438 2.49863 2.77051C2.56826 2.69486 2.64224 2.63178 2.71907 2.58223C2.80945 2.87463 2.96937 3.14836 3.19725 3.37677ZM28.5431 2.77051C30.1406 4.48438 31.0418 6.86153 31.0418 9.3961C31.0418 11.9342 30.1652 14.2955 28.5431 16.0217C28.1087 16.4898 27.5127 16.4705 27.1738 16.0688C26.842 15.6873 26.9466 15.1949 27.3175 14.7752C28.5875 13.3623 29.2988 11.4693 29.2988 9.3961C29.2988 7.32461 28.591 5.42988 27.3175 4.01875C26.9431 3.59727 26.8402 3.10664 27.1738 2.72344C27.5162 2.31543 28.114 2.30235 28.5431 2.77051Z" fill="white" fill-opacity="0.85"/>
  <path d="M6.60735 6.78703C6.60296 6.79381 6.59808 6.80052 6.59316 6.80723C6.05292 7.48418 5.76796 8.43145 5.76796 9.3961C5.76796 10.3607 6.05292 11.2982 6.59316 11.9815C6.9162 12.4207 7.03964 12.8918 6.71659 13.2715C6.37323 13.6732 5.73105 13.6883 5.33476 13.2084C4.49746 12.1959 4.025 10.8439 4.025 9.3961C4.025 7.94825 4.49746 6.59629 5.33476 5.58028C5.34488 5.56803 5.35516 5.55609 5.36624 5.54585ZM25.707 5.58028C26.5461 6.59629 27.0168 7.94825 27.0168 9.3961C27.0168 10.8439 26.5461 12.1959 25.707 13.2084C25.3107 13.6883 24.6685 13.6732 24.3269 13.2715C24.0021 12.8918 24.1256 12.4207 24.4486 11.9815C24.9888 11.2982 25.2738 10.3607 25.2738 9.3961C25.2738 8.43145 24.9888 7.48418 24.4486 6.80723C24.1273 6.36973 24.0021 5.90039 24.3269 5.51895C24.6685 5.10918 25.3107 5.10039 25.707 5.58028Z" fill="white" fill-opacity="0.85"/>
  <path d="M12.1828 12.3627L12.1828 12.9324L12.7525 12.9324L15.348 15.5281L12.1828 15.5281L12.1828 20.5887C12.1828 21.5418 11.6023 22.1471 10.681 22.1471C9.75976 22.1471 9.17929 21.5498 9.17929 20.5887L9.17929 9.35909ZM22.3002 9.3961C22.3002 11.5704 21.3759 13.3404 19.8259 14.4046L17.7749 12.3531C18.7232 11.7734 19.2381 10.7642 19.2381 9.39785C19.2381 7.13242 17.8465 5.85879 15.4236 5.85879L12.1828 5.85879L12.1828 6.75977L9.38254 3.95891C9.62586 3.51573 10.0812 3.2633 10.681 3.2633L16.0627 3.2633C19.7648 3.2633 22.3002 5.74024 22.3002 9.3961Z" fill="white" fill-opacity="0.85"/>
  <path d="M24.3447 22.8215C24.6482 23.1313 25.1506 23.133 25.4443 22.8215C25.7443 22.518 25.7478 22.0334 25.4443 21.7219L5.15135 1.43243C4.84959 1.12892 4.3535 1.12091 4.04198 1.43243C3.74999 1.72443 3.74999 2.23029 4.04198 2.53204Z" fill="white" fill-opacity="0.85"/>
 </g>
</svg>
