<?xml version="1.0" encoding="UTF-8"?>
<!--Generator: Apple Native CoreSVG 341-->
<!DOCTYPE svg
PUBLIC "-//W3C//DTD SVG 1.1//EN"
       "http://www.w3.org/Graphics/SVG/1.1/DTD/svg11.dtd">
<svg version="1.1" xmlns="http://www.w3.org/2000/svg" xmlns:xlink="http://www.w3.org/1999/xlink" viewBox="0 0 23.4906 18.2316">
 <g>
  <rect height="18.2316" opacity="0" width="23.4906" x="0" y="0"/>
  <path d="M23.1293 3.17499L23.1293 15.0682C23.1293 17.1519 22.0416 18.2316 19.9258 18.2316L3.20351 18.2316C1.0957 18.2316 0 17.1519 0 15.0682L0 3.17499C0 1.08945 1.0957 0.00351548 3.20351 0.00351548L19.9258 0.00351548C22.0416 0.00351548 23.1293 1.08945 23.1293 3.17499ZM8.67988 5.12187C8.15449 5.12187 7.90528 5.41465 7.90528 5.8289L7.90528 12.3982C7.90528 12.8223 8.15449 13.1133 8.67988 13.1133L9.73301 13.1133C10.2504 13.1133 10.4978 12.8223 10.4978 12.3982L10.4978 5.8289C10.4978 5.41465 10.2504 5.12187 9.73301 5.12187ZM13.4221 5.12187C12.9047 5.12187 12.6492 5.41465 12.6492 5.8289L12.6492 12.3982C12.6492 12.8223 12.9047 13.1133 13.4221 13.1133L14.485 13.1133C14.9926 13.1133 15.2435 12.8223 15.2435 12.3982L15.2435 5.8289C15.2435 5.41465 14.9926 5.12187 14.485 5.12187Z" fill="white" fill-opacity="0.85"/>
 </g>
</svg>
