<?xml version="1.0" encoding="UTF-8"?>
<!--Generator: Apple Native CoreSVG 341-->
<!DOCTYPE svg
PUBLIC "-//W3C//DTD SVG 1.1//EN"
       "http://www.w3.org/Graphics/SVG/1.1/DTD/svg11.dtd">
<svg version="1.1" xmlns="http://www.w3.org/2000/svg" xmlns:xlink="http://www.w3.org/1999/xlink" viewBox="0 0 20.5381 20.1848">
 <g>
  <rect height="20.1848" opacity="0" width="20.5381" x="0" y="0"/>
  <path d="M20.1767 10.0875C20.1767 15.6478 15.6576 20.175 10.0875 20.175C4.52715 20.175 0 15.6478 0 10.0875C0 4.51914 4.52715 0 10.0875 0C15.6576 0 20.1767 4.51914 20.1767 10.0875ZM7.19472 6.08867C6.67734 6.08867 6.42812 6.38144 6.42812 6.7957L6.42812 13.365C6.42812 13.7873 6.67734 14.0801 7.19472 14.0801L8.24785 14.0801C8.77324 14.0801 9.0207 13.7873 9.0207 13.365L9.0207 6.7957C9.0207 6.38144 8.77324 6.08867 8.24785 6.08867ZM11.9449 6.08867C11.4195 6.08867 11.1721 6.38144 11.1721 6.7957L11.1721 13.365C11.1721 13.7873 11.4195 14.0801 11.9449 14.0801L12.998 14.0801C13.5074 14.0801 13.7566 13.7873 13.7566 13.365L13.7566 6.7957C13.7566 6.38144 13.5074 6.08867 12.998 6.08867Z" fill="white" fill-opacity="0.85"/>
 </g>
</svg>
