<?xml version="1.0" encoding="UTF-8"?>
<!--Generator: Apple Native CoreSVG 341-->
<!DOCTYPE svg
PUBLIC "-//W3C//DTD SVG 1.1//EN"
       "http://www.w3.org/Graphics/SVG/1.1/DTD/svg11.dtd">
<svg version="1.1" xmlns="http://www.w3.org/2000/svg" xmlns:xlink="http://www.w3.org/1999/xlink" viewBox="0 0 17.4039 21.2957">
 <g>
  <rect height="21.2957" opacity="0" width="17.4039" x="0" y="0"/>
  <path d="M17.0426 3.11542L17.031 18.1945C17.031 20.1324 15.8633 21.2859 13.9094 21.2859L5.87519 21.2859C3.92129 21.2859 2.75176 20.1324 2.75176 18.1945L2.75176 13.1992L2.08926 12.3306C0.632812 10.4437 0 8.72909 0 6.05663L0 4.37968C0 1.67578 1.65801 0 4.37167 0L13.9351 0C15.8152 0 17.0426 1.24336 17.0426 3.11542ZM6.86073 15.885C6.45624 15.885 6.13241 16.2043 6.13241 16.6008C6.13241 17.007 6.45624 17.3309 6.86073 17.3309L13.0213 17.3309C13.4178 17.3309 13.7389 17.007 13.7389 16.6008C13.7389 16.2043 13.4178 15.885 13.0213 15.885ZM6.86073 12.1746C6.45624 12.1746 6.13241 12.502 6.13241 12.9064C6.13241 13.3047 6.45624 13.6223 6.86073 13.6223L13.0213 13.6223C13.4178 13.6223 13.7389 13.3047 13.7389 12.9064C13.7389 12.502 13.4178 12.1746 13.0213 12.1746ZM5.28436 8.49453C4.88788 8.49453 4.56229 8.81211 4.56229 9.21035C4.56229 9.61835 4.88788 9.94218 5.28436 9.94218L13.0213 9.94218C13.4178 9.94218 13.7389 9.61835 13.7389 9.21035C13.7389 8.81211 13.4178 8.49453 13.0213 8.49453ZM4.35682 4.78418C3.96034 4.78418 3.64276 5.11152 3.64276 5.51777C3.64276 5.91249 3.96034 6.23007 4.35682 6.23007L13.0213 6.23007C13.4178 6.23007 13.7389 5.91249 13.7389 5.51777C13.7389 5.11152 13.4178 4.78418 13.0213 4.78418Z" fill="white" fill-opacity="0.85"/>
 </g>
</svg>
