<?xml version="1.0" encoding="UTF-8"?>
<!--Generator: Apple Native CoreSVG 341-->
<!DOCTYPE svg
PUBLIC "-//W3C//DTD SVG 1.1//EN"
       "http://www.w3.org/Graphics/SVG/1.1/DTD/svg11.dtd">
<svg version="1.1" xmlns="http://www.w3.org/2000/svg" xmlns:xlink="http://www.w3.org/1999/xlink" viewBox="0 0 20.3078 17.7164">
 <g>
  <rect height="17.7164" opacity="0" width="20.3078" x="0" y="0"/>
  <path d="M19.6793 5.28124C20.0246 8.20175 20.0246 10.3641 19.7672 12.5371C19.3572 16.0664 18.1101 17.7164 14.7851 17.7164L3.22929 17.7164C1.19453 17.7164 0 16.5396 0 14.5129L0 5.35917C0 3.11855 1.26543 1.75742 3.62617 1.49473L13.1945 0.40996C17.1986-0.021289 19.2631 1.52129 19.6793 5.28124ZM4.64315 12.2279C4.23866 12.2279 3.92284 12.5473 3.92284 12.9455C3.92284 13.358 4.23866 13.6773 4.64315 13.6773L15.1842 13.6773C15.5922 13.6773 15.9098 13.358 15.9098 12.9455C15.9098 12.5473 15.5922 12.2279 15.1842 12.2279ZM4.64315 8.84238C4.23866 8.84238 3.92284 9.16972 3.92284 9.56796C3.92284 9.96444 4.23866 10.282 4.64315 10.282L15.1842 10.282C15.5922 10.282 15.9098 9.96444 15.9098 9.56796C15.9098 9.16972 15.5922 8.84238 15.1842 8.84238ZM4.64315 5.44531C4.23866 5.44531 3.92284 5.77265 3.92284 6.18066C3.92284 6.57538 4.23866 6.89472 4.64315 6.89472L15.1842 6.89472C15.5922 6.89472 15.9098 6.57538 15.9098 6.18066C15.9098 5.77265 15.5922 5.44531 15.1842 5.44531Z" fill="white" fill-opacity="0.85"/>
 </g>
</svg>
