<?xml version="1.0" encoding="UTF-8"?>
<!--Generator: Apple Native CoreSVG 341-->
<!DOCTYPE svg
PUBLIC "-//W3C//DTD SVG 1.1//EN"
       "http://www.w3.org/Graphics/SVG/1.1/DTD/svg11.dtd">
<svg version="1.1" xmlns="http://www.w3.org/2000/svg" xmlns:xlink="http://www.w3.org/1999/xlink" viewBox="0 0 17.4039 21.2957">
 <g>
  <rect height="21.2957" opacity="0" width="17.4039" x="0" y="0"/>
  <path d="M5.87519 21.2859L13.9094 21.2859C15.8633 21.2859 17.031 20.1324 17.031 18.1945L17.0426 3.11542C17.0426 1.24336 15.8152 0 13.9351 0L4.37167 0C1.65801 0 0 1.67578 0 4.37968L0 6.05663C0 8.72909 0.632812 10.4437 2.08926 12.3306L2.75176 13.1992L2.75176 18.1945C2.75176 20.1324 3.92129 21.2859 5.87519 21.2859ZM5.97011 19.3709C5.18124 19.3709 4.66502 18.8725 4.66502 18.0934L4.66502 12.5523L3.6037 11.1547C2.43358 9.62323 1.91327 8.24588 1.91327 6.00428L1.91327 4.48261C1.91327 2.90096 2.88319 1.91327 4.4746 1.91327L13.842 1.91327C14.6211 1.91327 15.1293 2.42147 15.1293 3.20858L15.1178 18.0934C15.1178 18.8725 14.6033 19.3709 13.8144 19.3709Z" fill="white" fill-opacity="0.85"/>
  <path d="M4.52167 6.48553L12.8564 6.48553C13.2396 6.48553 13.5457 6.18124 13.5457 5.80155C13.5457 5.41835 13.2396 5.10429 12.8564 5.10429L4.52167 5.10429C4.13846 5.10429 3.83593 5.41835 3.83593 5.80155C3.83593 6.18124 4.13846 6.48553 4.52167 6.48553ZM5.41112 10.0154L12.8564 10.0154C13.2396 10.0154 13.5457 9.70487 13.5457 9.32167C13.5457 8.93847 13.2396 8.63417 12.8564 8.63417L5.41112 8.63417C5.02967 8.63417 4.71737 8.93847 4.71737 9.32167C4.71737 9.70487 5.02967 10.0154 5.41112 10.0154ZM6.92459 13.523L12.8564 13.523C13.2396 13.523 13.5457 13.217 13.5457 12.8373C13.5457 12.4541 13.2396 12.1418 12.8564 12.1418L6.92459 12.1418C6.54315 12.1418 6.2326 12.4541 6.2326 12.8373C6.2326 13.217 6.54315 13.523 6.92459 13.523ZM6.92459 17.0529L12.8564 17.0529C13.2396 17.0529 13.5457 16.7406 13.5457 16.3574C13.5457 15.9777 13.2396 15.6717 12.8564 15.6717L6.92459 15.6717C6.54315 15.6717 6.2326 15.9777 6.2326 16.3574C6.2326 16.7406 6.54315 17.0529 6.92459 17.0529Z" fill="white" fill-opacity="0.85"/>
 </g>
</svg>
