<?xml version="1.0" encoding="UTF-8"?>
<!--Generator: Apple Native CoreSVG 341-->
<!DOCTYPE svg
PUBLIC "-//W3C//DTD SVG 1.1//EN"
       "http://www.w3.org/Graphics/SVG/1.1/DTD/svg11.dtd">
<svg version="1.1" xmlns="http://www.w3.org/2000/svg" xmlns:xlink="http://www.w3.org/1999/xlink" viewBox="0 0 24.4062 20.968">
 <g>
  <rect height="20.968" opacity="0" width="24.4062" x="0" y="0"/>
  <path d="M1.91327 0.953509L1.91327 20.0082C1.91327 20.5328 1.48436 20.9617 0.961516 20.9617C0.428903 20.9617 0 20.5328 0 20.0082L0 0.953509C0 0.428903 0.428903 0 0.961516 0C1.48436 0 1.91327 0.428903 1.91327 0.953509ZM24.0449 0.953509L24.0449 20.0082C24.0449 20.5328 23.616 20.9617 23.0914 20.9617C22.5605 20.9617 22.1316 20.5328 22.1316 20.0082L22.1316 18.1109L20.9803 18.1109L20.9803 16.7508L22.1316 16.7508L22.1316 13.4865L20.9803 13.4865L20.9803 12.1281L22.1316 12.1281L22.1316 8.86386L20.9803 8.86386L20.9803 7.50371L22.1316 7.50371L22.1316 4.23144L20.9803 4.23144L20.9803 2.87304L22.1316 2.87304L22.1316 0.953509C22.1316 0.428903 22.5605 0 23.0914 0C23.616 0 24.0449 0.428903 24.0449 0.953509Z" fill="white" fill-opacity="0.85"/>
  <path d="M10.7508 6.54101L20.2271 5.42949C20.6945 5.37539 20.9803 5.12793 20.9803 4.68086L20.9803 2.34433C20.9803 1.85937 20.6875 1.50508 20.2096 1.61679L10.615 3.73867C10.1787 3.83711 9.97656 4.11035 9.97656 4.45527L9.97656 5.8748C9.97656 6.35996 10.2373 6.60664 10.7508 6.54101ZM10.601 10.0893L20.2271 10.0893C20.6857 10.0893 20.9803 9.79472 20.9803 9.3459L20.9803 7.01113C20.9803 6.54375 20.6937 6.21894 20.2271 6.27129L10.601 7.39785C10.2143 7.44043 9.97656 7.72871 9.97656 8.12519L9.97656 9.39472C9.97656 9.82226 10.2303 10.0893 10.601 10.0893ZM10.601 13.6021L20.2271 14.7269C20.6937 14.7793 20.9803 14.4545 20.9803 13.9889L20.9803 11.6523C20.9803 11.2035 20.6857 10.909 20.2271 10.909L10.601 10.909C10.2303 10.909 9.97656 11.176 9.97656 11.6035L9.97656 12.873C9.97656 13.2695 10.2143 13.5498 10.601 13.6021ZM10.615 17.2596L20.2096 19.3832C20.6875 19.4851 20.9803 19.1389 20.9803 18.6539L20.9803 16.3111C20.9803 15.8703 20.6945 15.6228 20.2271 15.5705L10.7508 14.4572C10.2373 14.3916 9.97656 14.6383 9.97656 15.1234L9.97656 16.543C9.97656 16.8879 10.1787 17.1611 10.615 17.2596Z" fill="white" fill-opacity="0.85"/>
 </g>
</svg>
