<?xml version="1.0" encoding="UTF-8"?>
<!--Generator: Apple Native CoreSVG 341-->
<!DOCTYPE svg
PUBLIC "-//W3C//DTD SVG 1.1//EN"
       "http://www.w3.org/Graphics/SVG/1.1/DTD/svg11.dtd">
<svg version="1.1" xmlns="http://www.w3.org/2000/svg" xmlns:xlink="http://www.w3.org/1999/xlink" viewBox="0 0 17.6555 17.5351">
 <g>
  <rect height="17.5351" opacity="0" width="17.6555" x="0" y="0"/>
  <path d="M8.72104 10.6165L3.38799 15.9435L1.02667 16.8478C0.748348 16.9595 0.447959 16.6474 0.556943 16.355L1.51378 14.0613L6.84003 8.73721ZM14.3684 4.97555L11.5241 7.81667L9.64219 5.93621L12.4862 3.09333ZM16.0516 1.04666L16.4249 1.42966C16.9138 1.91228 16.8845 2.49333 16.352 3.01774L15.2972 4.05661L13.4052 2.17439L14.4698 1.12927C14.9862 0.614628 15.5725 0.57205 16.0516 1.04666Z" fill="white" fill-opacity="0.85"/>
  <path d="M15.1331 15.3261C15.4349 15.6261 15.9407 15.6296 16.2327 15.3261C16.5282 15.0164 16.5362 14.53 16.2327 14.2265L3.43526 1.43083C3.13351 1.12908 2.61964 1.12107 2.32589 1.43083C2.0339 1.72458 2.0339 2.23845 2.32589 2.53044Z" fill="white" fill-opacity="0.85"/>
 </g>
</svg>
