<?xml version="1.0" encoding="UTF-8"?>
<!--Generator: Apple Native CoreSVG 341-->
<!DOCTYPE svg
PUBLIC "-//W3C//DTD SVG 1.1//EN"
       "http://www.w3.org/Graphics/SVG/1.1/DTD/svg11.dtd">
<svg version="1.1" xmlns="http://www.w3.org/2000/svg" xmlns:xlink="http://www.w3.org/1999/xlink" viewBox="0 0 25.0342 25.0269">
 <g>
  <rect height="25.0269" opacity="0" width="25.0342" x="0" y="0"/>
  <path d="M7.23068 3.05664L7.23068 3.96191C7.23068 4.16386 7.25451 4.36054 7.30666 4.53065L7.11017 4.53065C6.28185 4.53065 5.84825 5.06835 5.84825 5.89492L5.84825 20.6307C5.84825 21.5053 6.33165 21.9949 7.24181 21.9949L17.4311 21.9949C18.3412 21.9949 18.8166 21.5053 18.8166 20.6307L18.8166 14.3033L20.6895 12.4301L20.6895 20.6502C20.6895 22.7572 19.5887 23.8678 17.5127 23.8678L7.15217 23.8678C5.0842 23.8678 3.97541 22.7572 3.97541 20.6502L3.97541 5.87539C3.97541 3.81016 5.05041 2.65782 7.06056 2.65782L7.28263 2.65782C7.2465 2.77988 7.23068 2.91875 7.23068 3.05664ZM20.6789 5.55752L18.8166 7.41897L18.8166 5.89492C18.8166 5.06835 18.391 4.53065 17.5627 4.53065L17.3582 4.53065C17.4104 4.36054 17.4342 4.16386 17.4342 3.96191L17.4342 3.05664C17.4342 2.91875 17.4201 2.77988 17.3822 2.65782L17.6043 2.65782C19.516 2.65782 20.5742 3.69174 20.6789 5.55752ZM14.5131 2.05469L15.3412 2.05469C15.9367 2.05469 16.2908 2.42832 16.2908 3.05664L16.2908 4.08203C16.2908 4.70859 15.9367 5.08398 15.3412 5.08398L9.33166 5.08398C8.73615 5.08398 8.38205 4.70859 8.38205 4.08203L8.38205 3.05664C8.38205 2.42832 8.73615 2.05469 9.33166 2.05469L10.1518 2.05469C10.2254 0.91953 11.168 0 12.3324 0C13.4969 0 14.4395 0.91953 14.5131 2.05469ZM11.4705 2.13633C11.4705 2.60058 11.8567 2.99648 12.3324 2.99648C12.8162 2.99648 13.1944 2.60058 13.1944 2.13633C13.1944 1.65429 12.8162 1.26816 12.3324 1.26816C11.8567 1.26816 11.4705 1.65429 11.4705 2.13633Z" fill="white" fill-opacity="0.85"/>
  <path d="M10.1074 17.0082C10.1074 17.3859 9.79084 17.6945 9.41486 17.6945L8.18575 17.6945C7.80978 17.6945 7.49318 17.3859 7.49318 17.0082C7.49318 16.6322 7.80177 16.3254 8.18575 16.3254L9.41486 16.3254C9.79884 16.3254 10.1074 16.6322 10.1074 17.0082ZM12.1816 14.051L8.18575 14.051C7.80001 14.051 7.49318 13.7441 7.49318 13.3584C7.49318 12.9807 7.80177 12.6818 8.18575 12.6818L13.5513 12.6818ZM16.8879 9.34682L15.6394 10.5947L8.18575 10.5947C7.80978 10.5947 7.49318 10.2844 7.49318 9.90839C7.49318 9.53066 7.80978 9.21406 8.18575 9.21406L16.4889 9.21406C16.6373 9.21406 16.7754 9.26337 16.8879 9.34682Z" fill="white" fill-opacity="0.85"/>
  <path d="M22.6465 8.52538L23.349 7.81484C23.7393 7.4246 23.7463 6.88632 23.3694 6.51465L23.1069 6.2539C22.7697 5.92031 22.2217 5.97168 21.8528 6.33261L21.1537 7.02812ZM11.7977 18.2047L13.8426 17.3213L21.9063 9.27363L20.3992 7.78261L12.3516 15.8303L11.4299 17.8174C11.3279 18.0424 11.5787 18.2951 11.7977 18.2047Z" fill="white" fill-opacity="0.85"/>
 </g>
</svg>
