<?xml version="1.0" encoding="UTF-8"?>
<!--Generator: Apple Native CoreSVG 341-->
<!DOCTYPE svg
PUBLIC "-//W3C//DTD SVG 1.1//EN"
       "http://www.w3.org/Graphics/SVG/1.1/DTD/svg11.dtd">
<svg version="1.1" xmlns="http://www.w3.org/2000/svg" xmlns:xlink="http://www.w3.org/1999/xlink" viewBox="0 0 21.824 21.1348">
 <g>
  <rect height="21.1348" opacity="0" width="21.824" x="0" y="0"/>
  <path d="M0.197089 10.0404L3.07092 18.9059C3.53849 20.3691 4.57209 21.1348 6.12677 21.1348L15.344 21.1348C16.9004 21.1348 17.9322 20.3691 18.4016 18.9059L21.2594 10.0725C21.743 8.56562 21.358 7.34218 20.1299 6.44062L12.6582 0.949608C11.375 0.0044924 10.0957 0.0044924 8.81252 0.949608L1.34084 6.44062C0.112714 7.34218-0.280254 8.55761 0.197089 10.0404ZM1.99786 9.5039C1.76954 8.8162 1.92227 8.37929 2.51661 7.93065L9.89767 2.48788C10.501 2.04627 10.968 2.04627 11.5633 2.48788L18.9461 7.93065C19.5485 8.37929 19.6949 8.82421 19.4666 9.52792L16.6352 18.2814C16.4086 18.9691 16.0242 19.2426 15.3 19.2426L6.17247 19.2426C5.44649 19.2426 5.06212 18.9691 4.83555 18.2814Z" fill="white" fill-opacity="0.85"/>
 </g>
</svg>
