<?xml version="1.0" encoding="UTF-8"?>
<!--Generator: Apple Native CoreSVG 341-->
<!DOCTYPE svg
PUBLIC "-//W3C//DTD SVG 1.1//EN"
       "http://www.w3.org/Graphics/SVG/1.1/DTD/svg11.dtd">
<svg version="1.1" xmlns="http://www.w3.org/2000/svg" xmlns:xlink="http://www.w3.org/1999/xlink" viewBox="0 0 19.2209 18.6884">
 <g>
  <rect height="18.6884" opacity="0" width="19.2209" x="0" y="0"/>
  <path d="M3.58632 9.31683C5.80546 9.31683 7.16463 7.5514 7.16463 4.71664C7.16463 1.87485 5.79393 0.154537 3.58632 0.154537C1.37246 0.154537 0 1.88286 0 4.7184C0 7.56293 1.36093 9.31683 3.58632 9.31683ZM3.58632 7.72641C2.51854 7.72641 1.90096 6.6436 1.90096 4.7184C1.90096 2.82074 2.52655 1.73519 3.58632 1.73519C4.64609 1.73519 5.26367 2.81273 5.26367 4.7184C5.26367 6.6436 4.6541 7.72641 3.58632 7.72641ZM15.2812 18.5321C17.5004 18.5321 18.8595 16.7684 18.8595 13.9416C18.8595 11.0918 17.4888 9.36978 15.2812 9.36978C13.0691 9.36978 11.6949 11.0999 11.6949 13.9434C11.6949 16.7799 13.0558 18.5321 15.2812 18.5321ZM15.2812 16.9514C14.2134 16.9514 13.5959 15.8606 13.5959 13.9434C13.5959 12.0377 14.2214 10.9602 15.2812 10.9602C16.341 10.9602 16.9586 12.0297 16.9586 13.9434C16.9586 15.8606 16.349 16.9514 15.2812 16.9514ZM3.23299 18.5307C3.66111 18.7762 4.26931 18.7188 4.61169 18.2186L15.8648 1.51234C16.24 0.967811 16.0385 0.380119 15.598 0.121332C15.1842-0.1064 14.6318-0.0321831 14.2601 0.503557L3.00701 17.1592C2.62205 17.7135 2.79256 18.2702 3.23299 18.5307Z" fill="white" fill-opacity="0.85"/>
 </g>
</svg>
