<?xml version="1.0" encoding="UTF-8"?>
<!--Generator: Apple Native CoreSVG 341-->
<!DOCTYPE svg
PUBLIC "-//W3C//DTD SVG 1.1//EN"
       "http://www.w3.org/Graphics/SVG/1.1/DTD/svg11.dtd">
<svg version="1.1" xmlns="http://www.w3.org/2000/svg" xmlns:xlink="http://www.w3.org/1999/xlink" viewBox="0 0 20.5381 20.1848">
 <g>
  <rect height="20.1848" opacity="0" width="20.5381" x="0" y="0"/>
  <path d="M20.1767 10.0973C20.1767 15.6656 15.6576 20.1848 10.0875 20.1848C4.52715 20.1848 0 15.6656 0 10.0973C0 4.53691 4.52715 0.00976562 10.0875 0.00976562C15.6576 0.00976562 20.1767 4.53691 20.1767 10.0973ZM9.82382 8.34492C8.16992 8.34492 6.98476 9.53457 6.98476 11.192C6.98476 12.8557 8.17167 14.0506 9.82382 14.0506L13.9719 14.0506C15.6258 14.0506 16.8109 12.8557 16.8109 11.192C16.8109 9.53457 15.6293 8.34492 13.9719 8.34492L13.6715 8.34492C13.7221 8.63964 13.7779 8.97773 13.7221 9.48613L13.9053 9.48613C14.9238 9.48613 15.6094 10.1779 15.6094 11.192C15.6094 12.2061 14.9158 12.9094 13.9053 12.9094L9.8789 12.9094C8.87011 12.9094 8.17656 12.2061 8.17656 11.192C8.17656 10.1779 8.86835 9.48613 9.8789 9.48613L11.3344 9.48613C11.4736 9.19413 11.4293 8.62011 11.109 8.34492ZM6.1871 6.22558C4.5332 6.22558 3.34003 7.42851 3.34003 9.08593C3.34003 10.7496 4.52343 11.933 6.1871 11.933L6.48925 11.933C6.42187 11.6447 6.39257 11.1396 6.43691 10.79L6.24745 10.79C5.23515 10.79 4.54159 10.108 4.54159 9.08593C4.54159 8.07187 5.24316 7.36855 6.24745 7.36855L10.2801 7.36855C11.2906 7.36855 11.9824 8.07187 11.9824 9.08593C11.9824 10.108 11.2924 10.79 10.2801 10.79L8.80683 10.79C8.68535 11.098 8.72519 11.6383 9.04999 11.933L10.3271 11.933C11.9891 11.933 13.1742 10.7496 13.1742 9.08593C13.1742 7.42851 11.9873 6.22558 10.3271 6.22558Z" fill="white" fill-opacity="0.85"/>
 </g>
</svg>
