<?xml version="1.0" encoding="UTF-8"?>
<!--Generator: Apple Native CoreSVG 341-->
<!DOCTYPE svg
PUBLIC "-//W3C//DTD SVG 1.1//EN"
       "http://www.w3.org/Graphics/SVG/1.1/DTD/svg11.dtd">
<svg version="1.1" xmlns="http://www.w3.org/2000/svg" xmlns:xlink="http://www.w3.org/1999/xlink" viewBox="0 0 24.6541 24.9277">
 <g>
  <rect height="24.9277" opacity="0" width="24.6541" x="0" y="0"/>
  <path d="M17.3441 4.06308L17.6178 5.61718L9.66756 5.61718C6.98495 5.61718 5.34979 7.2203 5.34979 9.90916L5.34979 19.8673C4.06225 19.7907 3.26539 18.9871 2.99629 17.4766L1.13632 6.91601C0.80527 5.05761 1.61621 3.92382 3.48437 3.59101L13.9951 1.74082C15.8793 1.41777 17.0113 2.20468 17.3441 4.06308Z" fill="white" fill-opacity="0.85"/>
  <path d="M9.66756 23.5002L20.3363 23.5002C22.2418 23.5002 23.2328 22.5172 23.2328 20.6357L23.2328 9.90916C23.2328 8.02772 22.2418 7.04472 20.3363 7.04472L9.66756 7.04472C7.76834 7.04472 6.76932 8.01971 6.76932 9.90916L6.76932 20.6357C6.76932 22.5252 7.76834 23.5002 9.66756 23.5002ZM9.26345 21.7303C9.97067 19.7459 12.2551 18.2488 15.0051 18.2488C17.7551 18.2488 20.0314 19.7459 20.7404 21.7303ZM14.9971 16.8191C13.3191 16.8191 12.0068 15.4049 12.0068 13.543C12.0068 11.7849 13.3262 10.3281 14.9971 10.3281C16.6777 10.3281 17.9971 11.7849 17.9971 13.543C17.9971 15.4049 16.6847 16.8191 14.9971 16.8191Z" fill="white" fill-opacity="0.85"/>
 </g>
</svg>
