<?xml version="1.0" encoding="UTF-8"?>
<!--Generator: Apple Native CoreSVG 341-->
<!DOCTYPE svg
PUBLIC "-//W3C//DTD SVG 1.1//EN"
       "http://www.w3.org/Graphics/SVG/1.1/DTD/svg11.dtd">
<svg version="1.1" xmlns="http://www.w3.org/2000/svg" xmlns:xlink="http://www.w3.org/1999/xlink" viewBox="0 0 20.5381 20.1848">
 <g>
  <rect height="20.1848" opacity="0" width="20.5381" x="0" y="0"/>
  <path d="M10.0875 20.175C15.6576 20.175 20.1767 15.6559 20.1767 10.0875C20.1767 4.51914 15.6576 0 10.0875 0C4.51914 0 0 4.51914 0 10.0875C0 15.6559 4.51914 20.175 10.0875 20.175ZM10.0875 18.1879C5.60839 18.1879 1.9871 14.5666 1.9871 10.0875C1.9871 5.60839 5.60839 1.9871 10.0875 1.9871C14.5666 1.9871 18.1897 5.60839 18.1897 10.0875C18.1897 14.5666 14.5666 18.1879 10.0875 18.1879Z" fill="white" fill-opacity="0.85"/>
  <path d="M5.75546 14.9736L14.4035 14.9736C14.8293 14.9736 15.0359 14.6783 15.0359 14.2986C15.0359 13.2367 13.4703 10.5143 10.0795 10.5143C6.68867 10.5143 5.12304 13.2367 5.12304 14.2986C5.12304 14.6783 5.32968 14.9736 5.75546 14.9736ZM10.0795 9.75136C11.4504 9.75937 12.5611 8.58554 12.5611 7.04062C12.5611 5.59335 11.4504 4.39648 10.0795 4.39648C8.71035 4.39648 7.5996 5.59335 7.5996 7.04062C7.5996 8.58554 8.71035 9.74336 10.0795 9.75136Z" fill="white" fill-opacity="0.85"/>
 </g>
</svg>
