<?xml version="1.0" encoding="UTF-8"?>
<!--Generator: Apple Native CoreSVG 341-->
<!DOCTYPE svg
PUBLIC "-//W3C//DTD SVG 1.1//EN"
       "http://www.w3.org/Graphics/SVG/1.1/DTD/svg11.dtd">
<svg version="1.1" xmlns="http://www.w3.org/2000/svg" xmlns:xlink="http://www.w3.org/1999/xlink" viewBox="0 0 24.2781 17.6668">
 <g>
  <rect height="17.6668" opacity="0" width="24.2781" x="0" y="0"/>
  <path d="M1.75429 17.6535L14.748 17.6535C15.8457 17.6535 16.5006 17.1336 16.5006 16.2703C16.5006 13.7578 13.3146 10.3023 8.24629 10.3023C3.18769 10.3023 0 13.7578 0 16.2703C0 17.1336 0.656639 17.6535 1.75429 17.6535ZM8.2543 8.56836C10.3828 8.56836 12.1939 6.67578 12.1939 4.2291C12.1939 1.8293 10.3775 0 8.2543 0C6.13105 0 4.31641 1.86133 4.31641 4.24687C4.31641 6.67578 6.11953 8.56836 8.2543 8.56836Z" fill="white" fill-opacity="0.85"/>
  <path d="M18.4443 9.19023C18.8027 9.19023 19.0998 9.0164 19.3074 8.70234L23.6754 1.87147C23.8066 1.66835 23.9168 1.43319 23.9168 1.21308C23.9168 0.732415 23.484 0.407026 23.0309 0.407026C22.7383 0.407026 22.4731 0.56933 22.2744 0.899211L18.4105 7.08575L16.5939 4.77929C16.3623 4.47031 16.1254 4.3666 15.8389 4.3666C15.36 4.3666 14.9805 4.74882 14.9805 5.23574C14.9805 5.46367 15.0701 5.68378 15.2332 5.8957L17.5422 8.70937C17.8102 9.03418 18.0887 9.19023 18.4443 9.19023Z" fill="white" fill-opacity="0.85"/>
 </g>
</svg>
