<?xml version="1.0" encoding="UTF-8"?>
<!--Generator: Apple Native CoreSVG 341-->
<!DOCTYPE svg
PUBLIC "-//W3C//DTD SVG 1.1//EN"
       "http://www.w3.org/Graphics/SVG/1.1/DTD/svg11.dtd">
<svg version="1.1" xmlns="http://www.w3.org/2000/svg" xmlns:xlink="http://www.w3.org/1999/xlink" viewBox="0 0 19.7092 19.3629">
 <g>
  <rect height="19.3629" opacity="0" width="19.7092" x="0" y="0"/>
  <path d="M0 5.56328C0 6.07733 0.418357 6.49569 0.932416 6.49569C1.45448 6.49569 1.87284 6.07733 1.87284 5.56328L1.87284 3.72109C1.87284 2.57753 2.54647 1.89237 3.70156 1.89237L5.58281 1.89237C6.10038 1.89237 6.52323 1.46952 6.52323 0.951947C6.52323 0.43613 6.10038 0.021289 5.58281 0.021289L3.70156 0.021289C1.41269 0.021289 0 1.44199 0 3.72109ZM19.3478 5.56328L19.3478 3.72109C19.3478 1.44199 17.9369 0.021289 15.6463 0.021289L13.757 0.021289C13.2412 0.021289 12.8246 0.43613 12.8246 0.951947C12.8246 1.46952 13.2412 1.89237 13.757 1.89237L15.6463 1.89237C16.8014 1.89237 17.4768 2.57753 17.4768 3.72109L17.4768 5.56328C17.4768 6.07733 17.8934 6.49569 18.4074 6.49569C18.9215 6.49569 19.3478 6.07733 19.3478 5.56328ZM0 13.8209L0 15.6613C0 17.9404 1.41269 19.3629 3.70156 19.3629L5.58281 19.3629C6.10038 19.3629 6.52323 18.9463 6.52323 18.4305C6.52323 17.9146 6.10038 17.49 5.58281 17.49L3.70156 17.49C2.54647 17.49 1.87284 16.8066 1.87284 15.6613L1.87284 13.8209C1.87284 13.3068 1.45448 12.8805 0.932416 12.8805C0.418357 12.8805 0 13.3068 0 13.8209ZM19.3478 13.8209C19.3478 13.3068 18.9215 12.8805 18.4074 12.8805C17.8934 12.8805 17.4768 13.3068 17.4768 13.8209L17.4768 15.6613C17.4768 16.8066 16.8014 17.49 15.6463 17.49L13.757 17.49C13.2412 17.49 12.8246 17.9146 12.8246 18.4305C12.8246 18.9463 13.2412 19.3629 13.757 19.3629L15.6463 19.3629C17.9369 19.3629 19.3478 17.9404 19.3478 15.6613Z" fill="white" fill-opacity="0.85"/>
  <path d="M4.91737 15.3678L14.4357 15.3678C14.8943 15.3678 15.132 15.0494 15.132 14.6271C15.132 13.4676 13.4057 10.4689 9.67656 10.4689C5.94745 10.4689 4.22109 13.4676 4.22109 14.6271C4.22109 15.0494 4.45702 15.3678 4.91737 15.3678ZM9.67656 9.62968C11.1887 9.63769 12.3988 8.34843 12.3988 6.64726C12.3988 5.05527 11.1887 3.73495 9.67656 3.73495C8.16269 3.73495 6.95253 5.05527 6.95253 6.64726C6.95253 8.34843 8.16269 9.61367 9.67656 9.62968Z" fill="white" fill-opacity="0.85"/>
 </g>
</svg>
