<?xml version="1.0" encoding="UTF-8"?>
<!--Generator: Apple Native CoreSVG 341-->
<!DOCTYPE svg
PUBLIC "-//W3C//DTD SVG 1.1//EN"
       "http://www.w3.org/Graphics/SVG/1.1/DTD/svg11.dtd">
<svg version="1.1" xmlns="http://www.w3.org/2000/svg" xmlns:xlink="http://www.w3.org/1999/xlink" viewBox="0 0 24.1775 25.2707">
 <g>
  <rect height="25.2707" opacity="0" width="24.1775" x="0" y="0"/>
  <path d="M18.0952 2.88261L5.72099 2.88261C5.75663 2.04585 6.28265 1.56055 7.15234 1.56055L16.6639 1.56055C17.5336 1.56055 18.0596 2.04585 18.0952 2.88261Z" fill="white" fill-opacity="0.85"/>
  <path d="M20.07 5.78717C19.7399 5.73352 19.3903 5.70644 19.0228 5.70644L4.79335 5.70644C4.42595 5.70644 4.07642 5.73351 3.74638 5.78715C3.85387 4.80443 4.52056 4.24765 5.59745 4.24765L18.2268 4.24765C19.3037 4.24765 19.9637 4.80444 20.07 5.78717Z" fill="white" fill-opacity="0.85"/>
  <path d="M5.97909 22.5945L17.8389 22.5945C17.2879 20.2133 14.8688 18.5103 11.9121 18.5103C8.94745 18.5103 6.52655 20.2133 5.97909 22.5945ZM11.9121 17.1015C13.6033 17.1015 14.9254 15.682 14.9254 13.8086C14.9254 12.0373 13.5963 10.5724 11.9121 10.5724C10.2217 10.5724 8.89882 12.0373 8.89882 13.8086C8.89882 15.682 10.2146 17.1015 11.9121 17.1015ZM4.79335 23.6826L19.0228 23.6826C21.1307 23.6826 22.2264 22.5949 22.2264 20.5111L22.2264 10.4678C22.2264 8.38221 21.1307 7.29628 19.0228 7.29628L4.79335 7.29628C2.68379 7.29628 1.58984 8.38221 1.58984 10.4678L1.58984 20.5111C1.58984 22.5949 2.68379 23.6826 4.79335 23.6826ZM4.91229 21.7693C4.00428 21.7693 3.50311 21.293 3.50311 20.3424L3.50311 10.6347C3.50311 9.68592 4.00428 9.20955 4.91229 9.20955L18.9119 9.20955C19.8039 9.20955 20.3131 9.68592 20.3131 10.6347L20.3131 20.3424C20.3131 21.293 19.8039 21.7693 18.9119 21.7693Z" fill="white" fill-opacity="0.85"/>
 </g>
</svg>
