<?xml version="1.0" encoding="UTF-8"?>
<!--Generator: Apple Native CoreSVG 341-->
<!DOCTYPE svg
PUBLIC "-//W3C//DTD SVG 1.1//EN"
       "http://www.w3.org/Graphics/SVG/1.1/DTD/svg11.dtd">
<svg version="1.1" xmlns="http://www.w3.org/2000/svg" xmlns:xlink="http://www.w3.org/1999/xlink" viewBox="0 0 18.5894 18.2316">
 <g>
  <rect height="18.2316" opacity="0" width="18.5894" x="0" y="0"/>
  <path d="M3.20351 18.2281L15.0246 18.2281C17.1404 18.2281 18.2281 17.1502 18.2281 15.0646L18.2281 3.17148C18.2281 1.08769 17.1404 0 15.0246 0L3.20351 0C1.0957 0 0 1.08769 0 3.17148L0 15.0646C0 17.1502 1.0957 18.2281 3.20351 18.2281ZM3.31444 16.3148C2.40643 16.3148 1.91327 15.8465 1.91327 14.8977L1.91327 3.34023C1.91327 2.39139 2.40643 1.91503 3.31444 1.91503L14.9137 1.91503C15.8137 1.91503 16.3148 2.39139 16.3148 3.34023L16.3148 14.8977C16.3148 15.8465 15.8137 16.3148 14.9137 16.3148ZM2.57596 16.9395L15.6717 16.9395C15.0586 14.3131 12.3891 12.4299 9.12695 12.4299C5.85858 12.4299 3.18729 14.3131 2.57596 16.9395ZM9.11894 10.8553C10.9877 10.873 12.45 9.27948 12.45 7.20897C12.45 5.2619 10.9807 3.63554 9.11894 3.63554C7.25722 3.63554 5.78164 5.2619 5.78964 7.20897C5.79765 9.27948 7.25019 10.8392 9.11894 10.8553Z" fill="white" fill-opacity="0.85"/>
 </g>
</svg>
