<?xml version="1.0" encoding="UTF-8"?>
<!--Generator: Apple Native CoreSVG 341-->
<!DOCTYPE svg
PUBLIC "-//W3C//DTD SVG 1.1//EN"
       "http://www.w3.org/Graphics/SVG/1.1/DTD/svg11.dtd">
<svg version="1.1" xmlns="http://www.w3.org/2000/svg" xmlns:xlink="http://www.w3.org/1999/xlink" viewBox="0 0 17.107 21.1441">
 <g>
  <rect height="21.1441" opacity="0" width="17.107" x="0" y="0"/>
  <path d="M0 20.3066C0 20.8105 0.335351 21.1379 0.839255 21.1379L15.9064 21.1379C16.4103 21.1379 16.7457 20.8105 16.7457 20.3066L16.7457 0.839255C16.7457 0.335351 16.4103 0 15.9064 0L0.839255 0C0.335351 0 0 0.335351 0 0.839255ZM1.87284 18.9871L1.87284 2.15878C1.87284 1.95448 1.95448 1.87284 2.15077 1.87284L14.5949 1.87284C14.793 1.87284 14.8746 1.95448 14.8746 2.15878L14.8746 18.9871C14.8746 19.1914 14.793 19.265 14.5949 19.265L2.15077 19.265C1.95448 19.265 1.87284 19.1914 1.87284 18.9871Z" fill="white" fill-opacity="0.85"/>
  <path d="M2.87479 17.7424C2.87479 18.0773 3.06054 18.2693 3.39023 18.2693L13.3555 18.2693C13.6869 18.2693 13.8709 18.0773 13.8709 17.7424L13.8709 3.40351C13.8709 3.06855 13.6869 2.87655 13.3555 2.87655L3.39023 2.87655C3.06054 2.87655 2.87479 3.06855 2.87479 3.40351ZM3.90858 17.0268L3.90858 4.12089C3.90858 3.98495 3.97518 3.9121 4.10936 3.9121L12.6363 3.9121C12.7723 3.9121 12.8371 3.98495 12.8371 4.12089L12.8371 17.0268C12.8371 17.1609 12.7723 17.2338 12.6363 17.2338L4.10936 17.2338C3.97518 17.2338 3.90858 17.1609 3.90858 17.0268ZM3.90467 17.7084L12.825 17.7084C13.2588 17.7084 13.4654 17.4229 13.4654 17.0254C13.4654 15.9412 11.8598 13.1307 8.36484 13.1307C4.87792 13.1307 3.26425 15.9412 3.26425 17.0254C3.26425 17.4229 3.47089 17.7084 3.90467 17.7084ZM8.36484 12.334C9.78378 12.3438 10.9168 11.1459 10.9168 9.55117C10.9168 8.05586 9.78378 6.81894 8.36484 6.81894C6.95566 6.81894 5.81288 8.05586 5.81288 9.55117C5.81288 11.1459 6.95566 12.326 8.36484 12.334Z" fill="white" fill-opacity="0.85"/>
 </g>
</svg>
