<?xml version="1.0" encoding="UTF-8"?>
<!--Generator: Apple Native CoreSVG 341-->
<!DOCTYPE svg
PUBLIC "-//W3C//DTD SVG 1.1//EN"
       "http://www.w3.org/Graphics/SVG/1.1/DTD/svg11.dtd">
<svg version="1.1" xmlns="http://www.w3.org/2000/svg" xmlns:xlink="http://www.w3.org/1999/xlink" viewBox="0 0 27.5006 18.2504">
 <g>
  <rect height="18.2504" opacity="0" width="27.5006" x="0" y="0"/>
  <path d="M2.49277 18.2389L14.6768 18.2389C16.3576 18.2389 17.1695 17.7102 17.1695 16.5639C17.1695 13.8928 13.8264 10.3023 8.58789 10.3023C3.34316 10.3023 0 13.8928 0 16.5639C0 17.7102 0.811912 18.2389 2.49277 18.2389ZM2.1744 16.5516C1.94511 16.5516 1.85175 16.4814 1.85175 16.2992C1.85175 14.7951 4.27069 11.9914 8.58789 11.9914C12.8971 11.9914 15.3178 14.7951 15.3178 16.2992C15.3178 16.4814 15.2324 16.5516 15.0014 16.5516ZM8.58789 9.15546C10.949 9.15546 12.8611 7.0791 12.8611 4.52441C12.8611 2.00156 10.95 0 8.58789 0C6.24355 0 4.31641 2.03359 4.31641 4.54043C4.31641 7.08711 6.22851 9.15546 8.58789 9.15546ZM8.58789 7.46817C7.23769 7.46817 6.08554 6.20391 6.08554 4.53867C6.08554 2.91679 7.22695 1.6873 8.58789 1.6873C9.96035 1.6873 11.092 2.89277 11.092 4.52441C11.092 6.18789 9.94961 7.46817 8.58789 7.46817Z" fill="white" fill-opacity="0.85"/>
  <path d="M22.0502 8.29492C22.4086 8.29492 22.7377 8.11308 22.9471 7.79101L26.8898 1.61308C27.0211 1.42597 27.1393 1.1748 27.1393 0.944916C27.1393 0.416207 26.6744 0.074802 26.1973 0.074802C25.8789 0.074802 25.5977 0.245114 25.3893 0.591011L22.0164 6.00899L20.4791 4.08594C20.2394 3.77695 19.9768 3.65898 19.6822 3.65898C19.1775 3.65898 18.774 4.08125 18.774 4.58417C18.774 4.8121 18.8637 5.058 19.0268 5.26015L21.124 7.80429C21.384 8.13085 21.6785 8.29492 22.0502 8.29492ZM20.1775 17.9773C20.4275 17.9773 20.6519 17.8842 20.8293 17.6988L26.3672 12.1609C26.549 11.9711 26.6394 11.7672 26.6394 11.5312C26.6394 11.0258 26.2394 10.6436 25.7357 10.6436C25.4955 10.6436 25.2934 10.7207 25.1098 10.9043L19.5541 16.452C19.3803 16.6178 19.2818 16.8359 19.2818 17.0719C19.2818 17.5693 19.6818 17.9773 20.1775 17.9773ZM25.7437 17.9773C26.2394 17.9773 26.6394 17.5693 26.6394 17.0719C26.6394 16.8359 26.541 16.6178 26.3752 16.452L20.8115 10.9043C20.6279 10.7207 20.4275 10.6436 20.1855 10.6436C19.6818 10.6436 19.2818 11.0258 19.2818 11.5312C19.2818 11.7672 19.3723 11.9711 19.5621 12.1609L25.0938 17.6988C25.2693 17.8842 25.4955 17.9773 25.7437 17.9773Z" fill="white" fill-opacity="0.85"/>
 </g>
</svg>
