<?xml version="1.0" encoding="UTF-8"?>
<!--Generator: Apple Native CoreSVG 341-->
<!DOCTYPE svg
PUBLIC "-//W3C//DTD SVG 1.1//EN"
       "http://www.w3.org/Graphics/SVG/1.1/DTD/svg11.dtd">
<svg version="1.1" xmlns="http://www.w3.org/2000/svg" xmlns:xlink="http://www.w3.org/1999/xlink" viewBox="0 0 28.6887 22.6118">
 <g>
  <rect height="22.6118" opacity="0" width="28.6887" x="0" y="0"/>
  <path d="M10.8753 10.8241C10.1928 11.5222 9.7955 12.5022 9.7955 13.6524C9.7955 15.9942 11.4562 17.6407 13.7803 17.6407L17.6968 17.6407L19.5253 19.4678L13.6711 19.4678C10.2734 19.4678 7.86543 17.0821 7.86543 13.6524C7.86543 11.9356 8.47166 10.4795 9.50548 9.45536ZM28.3273 13.6524C28.3273 16.31 26.8767 18.3408 24.6428 19.1145C24.5526 18.9451 24.4353 18.7861 24.291 18.6432L23.2176 17.5694C25.1144 17.2338 26.399 15.712 26.399 13.6524C26.399 11.3088 24.74 9.67211 22.4062 9.67211L21.84 9.67211C21.9285 9.10102 21.885 8.44321 21.8053 7.84498L22.5217 7.84498C25.9113 7.84498 28.3273 10.2307 28.3273 13.6524ZM5.16849 5.12155C3.2432 5.43231 1.93007 6.96408 1.93007 9.03931C1.93007 11.3909 3.57929 13.0276 5.91308 13.0276L6.4873 13.0276C6.39082 13.5969 6.43613 14.2467 6.51406 14.8547L5.80566 14.8547C2.41601 14.8547 0 12.469 0 9.03931C0 6.40372 1.43343 4.38275 3.64445 3.59863ZM14.8981 14.844C14.82 14.8533 14.7384 14.8547 14.6562 14.8547L11.5908 14.8547C11.1826 14.3756 11.1408 13.4295 11.4094 13.0276L13.0803 13.0276ZM20.4619 9.03931C20.4619 10.7395 19.8682 12.1831 18.8552 13.2055L17.4851 11.8349C18.147 11.1397 18.5318 10.1725 18.5318 9.03931C18.5318 6.70552 16.8729 5.05903 14.5488 5.05903L10.7115 5.05903L8.88502 3.23189L14.6562 3.23189C18.0459 3.23189 20.4619 5.61763 20.4619 9.03931ZM16.918 9.67211L15.323 9.67211L13.5039 7.85236C13.5578 7.84564 13.6143 7.84498 13.6711 7.84498L16.7303 7.84498C17.1254 8.32408 17.1672 9.25083 16.918 9.67211Z" fill="white" fill-opacity="0.85"/>
  <path d="M22.3467 20.584C22.652 20.8858 23.148 20.8823 23.4383 20.584C23.7436 20.2788 23.748 19.7897 23.4383 19.4879L5.38476 1.43618C5.07949 1.13091 4.57539 1.1229 4.27363 1.43266C3.98164 1.72466 3.98339 2.23227 4.27363 2.53051Z" fill="white" fill-opacity="0.85"/>
 </g>
</svg>
