<?xml version="1.0" encoding="UTF-8"?>
<!--Generator: Apple Native CoreSVG 341-->
<!DOCTYPE svg
PUBLIC "-//W3C//DTD SVG 1.1//EN"
       "http://www.w3.org/Graphics/SVG/1.1/DTD/svg11.dtd">
<svg version="1.1" xmlns="http://www.w3.org/2000/svg" xmlns:xlink="http://www.w3.org/1999/xlink" viewBox="0 0 20.5381 20.1848">
 <g>
  <rect height="20.1848" opacity="0" width="20.5381" x="0" y="0"/>
  <path d="M20.1767 10.0875C20.1767 15.6478 15.6576 20.175 10.0875 20.175C4.52715 20.175 0 15.6478 0 10.0875C0 4.51914 4.52715 0 10.0875 0C15.6576 0 20.1767 4.51914 20.1767 10.0875ZM4.10273 16.0297C5.57402 17.618 7.89765 18.5184 10.0795 18.5184C12.2693 18.5184 14.585 17.618 16.066 16.0297C14.9418 14.3271 12.6924 13.3789 10.0795 13.3789C7.44706 13.3789 5.21542 14.3467 4.10273 16.0297ZM6.68418 7.96855C6.68418 10.0787 8.17285 11.6764 10.0795 11.6924C11.9959 11.7084 13.4766 10.0787 13.4766 7.96855C13.4766 5.98008 11.9809 4.31133 10.0795 4.31133C8.18789 4.31133 6.67441 5.98008 6.68418 7.96855Z" fill="white" fill-opacity="0.85"/>
 </g>
</svg>
