<?xml version="1.0" encoding="UTF-8"?>
<!--Generator: Apple Native CoreSVG 341-->
<!DOCTYPE svg
PUBLIC "-//W3C//DTD SVG 1.1//EN"
       "http://www.w3.org/Graphics/SVG/1.1/DTD/svg11.dtd">
<svg version="1.1" xmlns="http://www.w3.org/2000/svg" xmlns:xlink="http://www.w3.org/1999/xlink" viewBox="0 0 20.5381 20.1848">
 <g>
  <rect height="20.1848" opacity="0" width="20.5381" x="0" y="0"/>
  <path d="M20.1767 10.0875C20.1767 15.6478 15.6576 20.175 10.0875 20.175C4.52715 20.175 0 15.6478 0 10.0875C0 4.51914 4.52715 0 10.0875 0C15.6576 0 20.1767 4.51914 20.1767 10.0875ZM7.01698 12.4775C6.36288 12.4775 6.06327 12.8252 6.06327 13.4277L6.06327 14.5945L5.96816 14.5945C5.68261 14.5945 5.46269 14.8242 5.46269 15.108C5.46269 15.39 5.68261 15.6197 5.96816 15.6197L14.1988 15.6197C14.4826 15.6197 14.7043 15.39 14.7043 15.108C14.7043 14.8242 14.4826 14.5945 14.1988 14.5945L14.102 14.5945L14.102 13.4277C14.102 12.8252 13.8041 12.4775 13.1482 12.4775ZM11.5426 14.0549C11.5426 14.2553 11.3785 14.4176 11.1621 14.4176L8.9996 14.4176C8.78671 14.4176 8.63691 14.2553 8.63691 14.0549C8.63691 13.8482 8.78671 13.6939 8.9996 13.6939L11.1621 13.6939C11.3785 13.6939 11.5426 13.8482 11.5426 14.0549ZM6.33749 11.1623C6.33749 11.4896 6.5539 11.7133 6.92733 11.7133L13.2334 11.7133C13.6068 11.7133 13.8197 11.4896 13.8197 11.1623C13.8197 10.2551 12.5289 8.40566 10.0795 8.40566C7.63007 8.40566 6.33749 10.2551 6.33749 11.1623ZM8.24667 5.73378C8.24843 6.87402 9.06367 7.73711 10.0795 7.73711C11.1033 7.74511 11.9105 6.87402 11.9105 5.73378C11.9105 4.66015 11.098 3.77128 10.0795 3.77128C9.06718 3.77128 8.24667 4.66015 8.24667 5.73378Z" fill="white" fill-opacity="0.85"/>
 </g>
</svg>
