<?xml version="1.0" encoding="UTF-8"?>
<!--Generator: Apple Native CoreSVG 341-->
<!DOCTYPE svg
PUBLIC "-//W3C//DTD SVG 1.1//EN"
       "http://www.w3.org/Graphics/SVG/1.1/DTD/svg11.dtd">
<svg version="1.1" xmlns="http://www.w3.org/2000/svg" xmlns:xlink="http://www.w3.org/1999/xlink" viewBox="0 0 23.4906 18.2316">
 <g>
  <rect height="18.2316" opacity="0" width="23.4906" x="0" y="0"/>
  <path d="M3.20351 18.2316L19.9258 18.2316C22.0416 18.2316 23.1293 17.1519 23.1293 15.0682L23.1293 3.17499C23.1293 1.08945 22.0416 0.00351548 19.9258 0.00351548L3.20351 0.00351548C1.0957 0.00351548 0 1.08945 0 3.17499L0 15.0682C0 17.1519 1.0957 18.2316 3.20351 18.2316ZM3.31444 16.3184C2.40643 16.3184 1.91327 15.8482 1.91327 14.8994L1.91327 3.34198C1.91327 2.39315 2.40643 1.91678 3.31444 1.91678L19.8148 1.91678C20.7149 1.91678 21.216 2.39315 21.216 3.34198L21.216 14.8994C21.216 15.8482 20.7149 16.3184 19.8148 16.3184Z" fill="white" fill-opacity="0.85"/>
  <path d="M4.60214 13.0957L9.81972 13.0957C10.7441 13.0957 11.1811 12.649 11.1811 11.7619L11.1811 6.48749C11.1811 5.60038 10.7441 5.1537 9.81972 5.1537L4.60214 5.1537C3.6955 5.1537 3.24081 5.59237 3.24081 6.48749L3.24081 11.7619C3.24081 12.649 3.6955 13.0957 4.60214 13.0957ZM4.38592 12.1443C4.68944 11.3094 5.75253 10.5611 7.21581 10.5611C8.67734 10.5611 9.74043 11.3094 10.0439 12.1443ZM7.21581 9.8748C6.3828 9.8748 5.73007 9.17324 5.73007 8.2541C5.73007 7.37753 6.3828 6.67773 7.21581 6.67773C8.03906 6.67773 8.69179 7.37753 8.69179 8.2541C8.69179 9.17324 8.03906 9.8748 7.21581 9.8748ZM16.2066 12.9971C16.8291 12.9971 17.4055 12.9385 17.774 12.7875C18.043 12.6766 18.1975 12.507 18.1975 12.2531C18.1975 12.0037 18.0182 11.8066 17.7625 11.8066C17.6684 11.8066 17.584 11.8342 17.4658 11.852C17.1781 11.891 16.9055 12.0082 16.3158 12.0082C14.4916 12.0082 13.3742 10.9201 13.3742 9.14199C13.3742 7.38788 14.5111 6.19237 16.1756 6.19237C17.832 6.19237 18.9432 7.23691 18.9432 8.78769C18.9432 9.7 18.666 10.2791 18.2307 10.2791C17.9693 10.2791 17.8609 10.1662 17.8609 9.89882L17.8609 7.57714C17.8609 7.28066 17.6506 7.05253 17.3639 7.05253C17.1525 7.05253 16.959 7.20175 16.8951 7.39179L16.8951 7.45585C16.659 7.20175 16.3473 7.05253 15.9137 7.05253C14.9066 7.05253 14.198 7.92812 14.198 9.13671C14.198 10.3826 14.9049 11.2307 15.943 11.2307C16.3924 11.2307 16.7867 11.0379 17.0629 10.6879C17.276 11.0379 17.6703 11.2307 18.1393 11.2307C19.2119 11.2307 19.9205 10.2379 19.9205 8.7291C19.9205 6.66171 18.3859 5.23104 16.1756 5.23104C13.8871 5.23104 12.325 6.81269 12.325 9.13046C12.325 11.4562 13.8791 12.9971 16.2066 12.9971ZM16.093 10.2303C15.599 10.2303 15.2996 9.81894 15.2996 9.11718C15.2996 8.42343 15.607 8.02363 16.1027 8.02363C16.6065 8.02363 16.9174 8.4287 16.9174 9.0914C16.9174 9.79941 16.6065 10.2303 16.093 10.2303Z" fill="white" fill-opacity="0.85"/>
 </g>
</svg>
