<?xml version="1.0" encoding="UTF-8"?>
<!--Generator: Apple Native CoreSVG 341-->
<!DOCTYPE svg
PUBLIC "-//W3C//DTD SVG 1.1//EN"
       "http://www.w3.org/Graphics/SVG/1.1/DTD/svg11.dtd">
<svg version="1.1" xmlns="http://www.w3.org/2000/svg" xmlns:xlink="http://www.w3.org/1999/xlink" viewBox="0 0 22.2363 21.8605">
 <g>
  <rect height="21.8605" opacity="0" width="22.2363" x="0" y="0"/>
  <path d="M21.875 5.83047L21.875 13.4041C21.875 16.3023 20.2281 17.983 17.2898 17.983L10.8412 17.983L7.26835 21.2162C6.78124 21.6652 6.46991 21.8605 6.0662 21.8605C5.47792 21.8605 5.1373 21.4426 5.1373 20.8002L5.1373 17.983L4.52363 17.983C1.6873 17.983 0 16.3103 0 13.4041L0 5.83047C0 2.92422 1.64687 1.24356 4.58515 1.24356L17.2898 1.24356C20.2281 1.24356 21.875 2.93223 21.875 5.83047ZM5.84804 14.0469C5.84804 14.4336 6.05019 14.7262 6.48476 14.7262L15.1539 14.7262C15.5885 14.7262 15.7986 14.4336 15.7986 14.0469C15.7986 12.9887 14.2332 10.2506 10.8242 10.2506C7.41347 10.2506 5.84804 12.9887 5.84804 14.0469ZM8.32871 6.75879C8.32871 8.31504 9.44551 9.47089 10.8242 9.4789C12.1932 9.48691 13.31 8.31504 13.31 6.75879C13.31 5.30996 12.1932 4.09902 10.8242 4.09902C9.44551 4.09902 8.32871 5.30996 8.32871 6.75879Z" fill="white" fill-opacity="0.85"/>
 </g>
</svg>
