<?xml version="1.0" encoding="UTF-8"?>
<!--Generator: Apple Native CoreSVG 341-->
<!DOCTYPE svg
PUBLIC "-//W3C//DTD SVG 1.1//EN"
       "http://www.w3.org/Graphics/SVG/1.1/DTD/svg11.dtd">
<svg version="1.1" xmlns="http://www.w3.org/2000/svg" xmlns:xlink="http://www.w3.org/1999/xlink" viewBox="0 0 24.165 17.6668">
 <g>
  <rect height="17.6668" opacity="0" width="24.165" x="0" y="0"/>
  <path d="M1.75429 17.6535L14.748 17.6535C15.8457 17.6535 16.5006 17.1336 16.5006 16.2703C16.5006 13.7578 13.3146 10.3023 8.24629 10.3023C3.18769 10.3023 0 13.7578 0 16.2703C0 17.1336 0.656639 17.6535 1.75429 17.6535ZM8.2543 8.56836C10.3828 8.56836 12.1939 6.67578 12.1939 4.2291C12.1939 1.8293 10.3775 0 8.2543 0C6.13105 0 4.31641 1.86133 4.31641 4.24687C4.31641 6.67578 6.11953 8.56836 8.2543 8.56836Z" fill="white" fill-opacity="0.85"/>
  <path d="M16.4834 8.38848C16.7414 8.38848 16.9596 8.29355 17.1271 8.11797L23.5412 1.69589C23.723 1.51405 23.8037 1.31991 23.8037 1.08398C23.8037 0.594527 23.4215 0.204294 22.9258 0.204294C22.6838 0.204294 22.4914 0.28945 22.3078 0.4748L15.8697 6.88712C15.7039 7.05293 15.6055 7.26485 15.6055 7.49903C15.6055 7.98848 15.9975 8.38848 16.4834 8.38848ZM22.9258 8.38848C23.4215 8.38848 23.8037 7.98848 23.8037 7.49903C23.8037 7.26485 23.715 7.05293 23.5412 6.88712L17.1111 0.4748C16.9258 0.28945 16.7254 0.204294 16.4834 0.204294C15.9975 0.204294 15.6055 0.594527 15.6055 1.08398C15.6055 1.31991 15.6959 1.51405 15.8697 1.69589L22.2918 8.11797C22.4594 8.29355 22.6758 8.38848 22.9258 8.38848Z" fill="white" fill-opacity="0.85"/>
 </g>
</svg>
