<?xml version="1.0" encoding="UTF-8"?>
<!--Generator: Apple Native CoreSVG 341-->
<!DOCTYPE svg
PUBLIC "-//W3C//DTD SVG 1.1//EN"
       "http://www.w3.org/Graphics/SVG/1.1/DTD/svg11.dtd">
<svg version="1.1" xmlns="http://www.w3.org/2000/svg" xmlns:xlink="http://www.w3.org/1999/xlink" viewBox="0 0 23.4906 18.2316">
 <g>
  <rect height="18.2316" opacity="0" width="23.4906" x="0" y="0"/>
  <path d="M23.1293 3.17499L23.1293 15.0682C23.1293 17.1519 22.0416 18.2316 19.9258 18.2316L3.20351 18.2316C1.0957 18.2316 0 17.1519 0 15.0682L0 3.17499C0 1.08945 1.0957 0.00351548 3.20351 0.00351548L19.9258 0.00351548C22.0416 0.00351548 23.1293 1.08945 23.1293 3.17499ZM5.21737 16.41L17.9315 16.41C17.1408 14.0736 14.6131 12.4211 11.5744 12.4211C8.52597 12.4211 5.99823 14.0736 5.21737 16.41ZM8.2539 7.19667C8.26191 9.26191 9.71094 10.8066 11.5744 10.8226C13.4361 10.8404 14.8932 9.26191 14.8932 7.19667C14.8932 5.25487 13.4291 3.63378 11.5744 3.63378C9.71797 3.63378 8.2459 5.25487 8.2539 7.19667Z" fill="white" fill-opacity="0.85"/>
 </g>
</svg>
