<?xml version="1.0" encoding="UTF-8"?>
<!--Generator: Apple Native CoreSVG 341-->
<!DOCTYPE svg
PUBLIC "-//W3C//DTD SVG 1.1//EN"
       "http://www.w3.org/Graphics/SVG/1.1/DTD/svg11.dtd">
<svg version="1.1" xmlns="http://www.w3.org/2000/svg" xmlns:xlink="http://www.w3.org/1999/xlink" viewBox="0 0 20.5381 20.1848">
 <g>
  <rect height="20.1848" opacity="0" width="20.5381" x="0" y="0"/>
  <path d="M10.0875 20.175C15.6576 20.175 20.1767 15.6559 20.1767 10.0875C20.1767 4.51914 15.6576 0 10.0875 0C4.51914 0 0 4.51914 0 10.0875C0 15.6559 4.51914 20.175 10.0875 20.175ZM10.0875 18.1879C5.60839 18.1879 1.9871 14.5666 1.9871 10.0875C1.9871 5.60839 5.60839 1.9871 10.0875 1.9871C14.5666 1.9871 18.1897 5.60839 18.1897 10.0875C18.1897 14.5666 14.5666 18.1879 10.0875 18.1879ZM16.5984 16.5318L16.5639 16.3699C15.95 14.9361 13.4967 13.4553 10.0875 13.4553C6.68807 13.4553 4.23299 14.9361 3.61288 16.3619L3.57831 16.5318C5.41522 18.2227 8.22363 19.1539 10.0875 19.1539C11.9611 19.1539 14.7455 18.2307 16.5984 16.5318ZM10.0875 11.8461C11.9828 11.8621 13.4512 10.25 13.4512 8.15566C13.4512 6.18476 11.9713 4.54159 10.0875 4.54159C8.20546 4.54159 6.71582 6.18476 6.72558 8.15566C6.73359 10.25 8.20195 11.8301 10.0875 11.8461Z" fill="white" fill-opacity="0.85"/>
 </g>
</svg>
