<?xml version="1.0" encoding="UTF-8"?>
<!--Generator: Apple Native CoreSVG 341-->
<!DOCTYPE svg
PUBLIC "-//W3C//DTD SVG 1.1//EN"
       "http://www.w3.org/Graphics/SVG/1.1/DTD/svg11.dtd">
<svg version="1.1" xmlns="http://www.w3.org/2000/svg" xmlns:xlink="http://www.w3.org/1999/xlink" viewBox="0 0 20.5381 23.885">
 <g>
  <rect height="23.885" opacity="0" width="20.5381" x="0" y="0"/>
  <path d="M12.0514 0.722792L12.0514 2.04777C16.6917 2.96578 20.1767 7.04333 20.1767 11.9376C20.1767 17.5042 15.6576 22.0251 10.0875 22.0251C4.51914 22.0251 0 17.5042 0 11.9376C0 8.71986 1.51661 5.84759 3.93946 3.99427C4.45001 3.56029 5.10156 3.66341 5.42305 4.10677C5.7621 4.58548 5.61406 5.14817 5.15742 5.54407C3.23124 7.01262 1.9871 9.31087 1.9871 11.9376C1.9871 16.4167 5.60839 20.038 10.0875 20.038C14.5666 20.038 18.1897 16.4167 18.1897 11.9376C18.1897 8.13801 15.5825 4.95569 12.0514 4.08676L12.0514 5.34056C12.0514 6.06029 11.5078 6.24134 10.9637 5.85618L7.80273 3.58783C7.37382 3.27709 7.36582 2.79076 7.80273 2.47377L10.9557 0.203652C11.5078-0.191269 12.0514-0.00845663 12.0514 0.722792Z" fill="white" fill-opacity="0.85"/>
  <path d="M9.15844 12.7883C8.38627 13.4633 7.95136 14.3208 7.95136 15.0929C7.95136 15.303 7.99231 15.536 8.10927 15.7488L4.6537 15.7488C4.06679 15.7488 3.80956 15.4898 3.80956 15.0425C3.80956 13.49 5.48671 12.2591 7.22031 12.2591C7.91149 12.2591 8.59156 12.454 9.15844 12.7883ZM8.84433 9.75052C8.84433 10.7611 8.10019 11.5478 7.22031 11.5478C6.34042 11.5478 5.58827 10.7611 5.58827 9.75853C5.58827 8.78079 6.35019 8.00306 7.22031 8.00306C8.10019 8.00306 8.84433 8.76478 8.84433 9.75052Z" fill="white" fill-opacity="0.85"/>
  <path d="M9.68593 15.7488L15.4664 15.7488C16.2289 15.7488 16.4908 15.5199 16.4908 15.0929C16.4908 13.9056 14.9822 12.2671 12.5811 12.2671C10.1719 12.2671 8.65527 13.9056 8.65527 15.0929C8.65527 15.5199 8.92343 15.7488 9.68593 15.7488ZM12.5811 11.4536C13.5941 11.4536 14.4422 10.5417 14.4422 9.37845C14.4422 8.23997 13.5861 7.38236 12.5811 7.38236C11.5697 7.38236 10.7119 8.264 10.7119 9.38646C10.7119 10.5417 11.5662 11.4536 12.5811 11.4536Z" fill="white" fill-opacity="0.85"/>
 </g>
</svg>
