<?xml version="1.0" encoding="UTF-8"?>
<!--Generator: Apple Native CoreSVG 341-->
<!DOCTYPE svg
PUBLIC "-//W3C//DTD SVG 1.1//EN"
       "http://www.w3.org/Graphics/SVG/1.1/DTD/svg11.dtd">
<svg version="1.1" xmlns="http://www.w3.org/2000/svg" xmlns:xlink="http://www.w3.org/1999/xlink" viewBox="0 0 18.5894 18.2316">
 <g>
  <rect height="18.2316" opacity="0" width="18.5894" x="0" y="0"/>
  <path d="M18.2281 3.17148L18.2281 15.0646C18.2281 17.1502 17.1404 18.2281 15.0246 18.2281L3.20351 18.2281C1.0957 18.2281 0 17.1502 0 15.0646L0 3.17148C0 1.08769 1.0957 0 3.20351 0L15.0246 0C17.1404 0 18.2281 1.08769 18.2281 3.17148ZM2.7619 16.418L15.484 16.418C14.6934 14.0816 12.1674 12.4211 9.12695 12.4211C6.08026 12.4211 3.55252 14.0816 2.7619 16.418ZM5.80019 7.19667C5.8082 9.26191 7.25722 10.8146 9.11894 10.8307C10.9807 10.8484 12.4394 9.26191 12.4394 7.19667C12.4394 5.25487 10.9754 3.63378 9.11894 3.63378C7.26249 3.63378 5.79042 5.25487 5.80019 7.19667Z" fill="white" fill-opacity="0.85"/>
 </g>
</svg>
