<?xml version="1.0" encoding="UTF-8"?>
<!--Generator: Apple Native CoreSVG 341-->
<!DOCTYPE svg
PUBLIC "-//W3C//DTD SVG 1.1//EN"
       "http://www.w3.org/Graphics/SVG/1.1/DTD/svg11.dtd">
<svg version="1.1" xmlns="http://www.w3.org/2000/svg" xmlns:xlink="http://www.w3.org/1999/xlink" viewBox="0 0 23.4906 18.2316">
 <g>
  <rect height="18.2316" opacity="0" width="23.4906" x="0" y="0"/>
  <path d="M3.20351 18.2316L19.9258 18.2316C22.0416 18.2316 23.1293 17.1519 23.1293 15.0682L23.1293 3.17499C23.1293 1.08945 22.0416 0.00351548 19.9258 0.00351548L3.20351 0.00351548C1.0957 0.00351548 0 1.08945 0 3.17499L0 15.0682C0 17.1519 1.0957 18.2316 3.20351 18.2316ZM3.31444 16.3184C2.40643 16.3184 1.91327 15.8482 1.91327 14.8994L1.91327 3.34198C1.91327 2.39315 2.40643 1.91678 3.31444 1.91678L19.8148 1.91678C20.7149 1.91678 21.216 2.39315 21.216 3.34198L21.216 14.8994C21.216 15.8482 20.7149 16.3184 19.8148 16.3184Z" fill="white" fill-opacity="0.85"/>
  <path d="M13.8992 5.97714L18.9676 5.97714C19.3199 5.97714 19.5906 5.70468 19.5906 5.35234C19.5906 5.01152 19.3199 4.74081 18.9676 4.74081L13.8992 4.74081C13.5353 4.74081 13.2664 5.01152 13.2664 5.35234C13.2664 5.70468 13.5353 5.97714 13.8992 5.97714ZM13.8992 9.7455L18.9676 9.7455C19.3199 9.7455 19.5906 9.46503 19.5906 9.11269C19.5906 8.77011 19.3199 8.50918 18.9676 8.50918L13.8992 8.50918C13.5353 8.50918 13.2664 8.77011 13.2664 9.11269C13.2664 9.46503 13.5353 9.7455 13.8992 9.7455ZM13.8992 13.5006L18.9676 13.5006C19.3199 13.5006 19.5906 13.2396 19.5906 12.8971C19.5906 12.5447 19.3199 12.2643 18.9676 12.2643L13.8992 12.2643C13.5353 12.2643 13.2664 12.5447 13.2664 12.8971C13.2664 13.2396 13.5353 13.5006 13.8992 13.5006ZM3.95546 13.5006L11.3258 13.5006C11.6779 13.5006 11.8518 13.2594 11.8518 12.94C11.8518 12.0361 10.5187 9.72382 7.63749 9.72382C4.75448 9.72382 3.42948 12.0361 3.42948 12.94C3.42948 13.2594 3.60331 13.5006 3.95546 13.5006ZM7.63749 9.0666C8.80781 9.0746 9.74452 8.08456 9.74452 6.76601C9.74452 5.53359 8.80781 4.51249 7.63749 4.51249C6.47167 4.51249 5.5287 5.53359 5.5287 6.76601C5.5287 8.08456 6.47167 9.0666 7.63749 9.0666Z" fill="white" fill-opacity="0.85"/>
 </g>
</svg>
