<?xml version="1.0" encoding="UTF-8"?>
<!--Generator: Apple Native CoreSVG 341-->
<!DOCTYPE svg
PUBLIC "-//W3C//DTD SVG 1.1//EN"
       "http://www.w3.org/Graphics/SVG/1.1/DTD/svg11.dtd">
<svg version="1.1" xmlns="http://www.w3.org/2000/svg" xmlns:xlink="http://www.w3.org/1999/xlink" viewBox="0 0 20.9371 26.3187">
 <g>
  <rect height="26.3187" opacity="0" width="20.9371" x="0" y="0"/>
  <path d="M14.8529 2.91914L5.72109 2.91914C5.75771 2.0845 6.28355 1.60762 7.15234 1.60762L13.4234 1.60762C14.2922 1.60762 14.8164 2.0845 14.8529 2.91914Z" fill="white" fill-opacity="0.85"/>
  <path d="M16.8295 5.82369C16.4995 5.77004 16.1499 5.74296 15.7824 5.74296L4.79335 5.74296C4.42598 5.74296 4.07648 5.7699 3.74647 5.82334C3.8542 4.84215 4.52082 4.28418 5.59745 4.28418L14.9863 4.28418C16.0631 4.28418 16.7231 4.84228 16.8295 5.82369Z" fill="white" fill-opacity="0.85"/>
  <path d="M9.13661 19.0152C8.20799 19.8798 7.67714 21.0035 7.67714 22.1184C7.67714 22.3687 7.70839 22.6024 7.76792 22.8156L4.91229 22.8156C4.00428 22.8156 3.50311 22.3393 3.50311 21.3904L3.50311 20.6502C4.07309 19.5004 5.41196 18.5762 7.16542 18.5762C7.9059 18.5762 8.57154 18.7399 9.13661 19.0152ZM9.04941 15.5197C9.04941 16.6935 8.19433 17.5947 7.17343 17.5947C6.15781 17.5947 5.2912 16.6935 5.2912 15.5277C5.2912 14.3912 6.15956 13.507 7.17343 13.507C8.18456 13.507 9.04941 14.3734 9.04941 15.5197Z" fill="white" fill-opacity="0.85"/>
  <path d="M17.0727 20.1557L17.0727 21.3904C17.0727 22.3393 16.5635 22.8156 15.6715 22.8156L9.02325 22.8156C8.90089 22.6473 8.83105 22.4092 8.83105 22.1184C8.83105 20.4301 10.6281 18.5957 13.3477 18.5957C15.0083 18.5957 16.3163 19.2668 17.0727 20.1557ZM15.5068 15.0935C15.5068 16.4254 14.5248 17.4668 13.3557 17.4668C12.19 17.4668 11.1937 16.4254 11.1937 15.1096C11.1937 13.799 12.1918 12.7816 13.3557 12.7816C14.515 12.7816 15.5068 13.775 15.5068 15.0935Z" fill="white" fill-opacity="0.85"/>
  <path d="M4.79335 24.7306L15.7824 24.7306C17.8902 24.7306 18.9859 23.643 18.9859 21.5592L18.9859 10.5043C18.9859 8.4205 17.8902 7.3328 15.7824 7.3328L4.79335 7.3328C2.68379 7.3328 1.58984 8.41249 1.58984 10.5043L1.58984 21.5592C1.58984 23.643 2.68379 24.7306 4.79335 24.7306ZM4.91229 22.8156C4.00428 22.8156 3.50311 22.3393 3.50311 21.3904L3.50311 10.665C3.50311 9.72244 4.00428 9.24607 4.91229 9.24607L15.6715 9.24607C16.5635 9.24607 17.0727 9.72244 17.0727 10.665L17.0727 21.3904C17.0727 22.3393 16.5635 22.8156 15.6715 22.8156Z" fill="white" fill-opacity="0.85"/>
 </g>
</svg>
