<?xml version="1.0" encoding="UTF-8"?>
<!--Generator: Apple Native CoreSVG 341-->
<!DOCTYPE svg
PUBLIC "-//W3C//DTD SVG 1.1//EN"
       "http://www.w3.org/Graphics/SVG/1.1/DTD/svg11.dtd">
<svg version="1.1" xmlns="http://www.w3.org/2000/svg" xmlns:xlink="http://www.w3.org/1999/xlink" viewBox="0 0 22.5271 22.0726">
 <g>
  <rect height="22.0726" opacity="0" width="22.5271" x="0" y="0"/>
  <path d="M16.2695 2.64355L16.7959 5.61718L14.9972 5.61718L14.5509 3.09062C14.4275 2.3578 13.8463 1.96405 13.1267 2.08397L2.83101 3.9078C2.11499 4.03573 1.71245 4.59569 1.84038 5.34003L3.66421 15.602C3.78589 16.3428 4.3609 16.7365 5.07867 16.6086L5.71871 16.4957L5.71871 18.2954L5.27867 18.373C3.4025 18.7041 2.27047 17.9092 1.93766 16.057L0.0696928 5.49648C-0.253354 3.63007 0.549574 2.49629 2.41774 2.16348L12.9205 0.313281C14.8046-0.00976562 15.9447 0.777146 16.2695 2.64355Z" fill="white" fill-opacity="0.85"/>
  <path d="M8.60893 22.0726L19.2679 22.0726C21.1832 22.0726 22.1662 21.0896 22.1662 19.2082L22.1662 8.48964C22.1662 6.60019 21.1832 5.61718 19.2679 5.61718L8.60893 5.61718C6.70972 5.61718 5.71871 6.60019 5.71871 8.48964L5.71871 19.2082C5.71871 21.0976 6.70972 22.0726 8.60893 22.0726ZM8.70932 20.2992C7.98178 20.2992 7.49213 19.8103 7.49213 19.066L7.49213 8.63182C7.49213 7.88924 7.98178 7.39861 8.70932 7.39861L19.1675 7.39861C19.8951 7.39861 20.3927 7.88924 20.3927 8.63182L20.3927 19.066C20.3927 19.8103 19.8951 20.2992 19.1675 20.2992ZM13.9384 15.4127C15.6279 15.4127 16.9535 13.9931 16.9535 12.126C16.9535 10.3547 15.6244 8.89608 13.9384 8.89608C12.2605 8.89608 10.9314 10.3547 10.9314 12.126C10.9314 13.9931 12.2552 15.4127 13.9384 15.4127ZM8.02416 20.908L19.8607 20.908C19.3115 18.5348 16.8968 16.8265 13.9384 16.8265C10.988 16.8265 8.57338 18.5348 8.02416 20.908Z" fill="white" fill-opacity="0.85"/>
 </g>
</svg>
