<?xml version="1.0" encoding="UTF-8"?>
<!--Generator: Apple Native CoreSVG 341-->
<!DOCTYPE svg
PUBLIC "-//W3C//DTD SVG 1.1//EN"
       "http://www.w3.org/Graphics/SVG/1.1/DTD/svg11.dtd">
<svg version="1.1" xmlns="http://www.w3.org/2000/svg" xmlns:xlink="http://www.w3.org/1999/xlink" viewBox="0 0 20.5381 20.1848">
 <g>
  <rect height="20.1848" opacity="0" width="20.5381" x="0" y="0"/>
  <path d="M20.1767 10.0875C20.1767 15.6559 15.6576 20.175 10.0875 20.175C4.51914 20.175 0 15.6559 0 10.0875C0 4.51914 4.51914 0 10.0875 0C15.6576 0 20.1767 4.51914 20.1767 10.0875ZM1.9871 10.0875C1.9871 14.5666 5.60839 18.1879 10.0875 18.1879C14.5666 18.1879 18.1897 14.5666 18.1897 10.0875C18.1897 5.60839 14.5666 1.9871 10.0875 1.9871C5.60839 1.9871 1.9871 5.60839 1.9871 10.0875Z" fill="white" fill-opacity="0.85"/>
  <path d="M9.15043 10.9381C8.37826 11.6132 7.94335 12.4707 7.94335 13.2428C7.94335 13.4529 7.9843 13.6859 8.10126 13.8986L4.64569 13.8986C4.05878 13.8986 3.80155 13.6396 3.80155 13.1924C3.80155 11.6398 5.4787 10.409 7.2123 10.409C7.90348 10.409 8.58355 10.6039 9.15043 10.9381ZM8.83632 7.90038C8.83632 8.91093 8.09218 9.69765 7.2123 9.69765C6.33241 9.69765 5.58026 8.91093 5.58026 7.90839C5.58026 6.93066 6.34218 6.15292 7.2123 6.15292C8.09218 6.15292 8.83632 6.91464 8.83632 7.90038Z" fill="white" fill-opacity="0.85"/>
  <path d="M9.67792 13.8986L15.4584 13.8986C16.2209 13.8986 16.4811 13.6697 16.4811 13.2428C16.4811 12.0555 14.9742 10.417 12.573 10.417C10.1621 10.417 8.6455 12.0555 8.6455 13.2428C8.6455 13.6697 8.91542 13.8986 9.67792 13.8986ZM12.573 9.60351C13.5861 9.60351 14.4342 8.6916 14.4342 7.52831C14.4342 6.38983 13.5781 5.53222 12.573 5.53222C11.5617 5.53222 10.7039 6.41386 10.7039 7.53632C10.7039 8.6916 11.5582 9.60351 12.573 9.60351Z" fill="white" fill-opacity="0.85"/>
 </g>
</svg>
