<?xml version="1.0" encoding="UTF-8"?>
<!--Generator: Apple Native CoreSVG 341-->
<!DOCTYPE svg
PUBLIC "-//W3C//DTD SVG 1.1//EN"
       "http://www.w3.org/Graphics/SVG/1.1/DTD/svg11.dtd">
<svg version="1.1" xmlns="http://www.w3.org/2000/svg" xmlns:xlink="http://www.w3.org/1999/xlink" viewBox="0 0 34.6519 23.6339">
 <g>
  <rect height="23.6339" opacity="0" width="34.6519" x="0" y="0"/>
  <path d="M32.6431 0.42535C33.924 2.20718 34.6519 4.62691 34.6519 7.09878C34.6519 9.57065 33.916 11.9744 32.6431 13.7722C32.3408 14.2136 31.8002 14.3208 31.3615 14.0415C30.9 13.7517 30.8424 13.1802 31.1738 12.6726C32.1976 11.1404 32.8131 9.16128 32.8131 7.09878C32.8131 5.03628 32.2137 3.0394 31.1738 1.52319C30.8344 1.01734 30.9 0.445858 31.3615 0.156016C31.8002-0.123279 32.3408-0.0240613 32.6431 0.42535Z" fill="white" fill-opacity="0.85"/>
  <path d="M28.7123 3.00582C29.4976 4.0732 29.9644 5.55542 29.9644 7.09878C29.9644 8.64214 29.4976 10.1324 28.7123 11.1802C28.4135 11.6085 27.8701 11.6997 27.459 11.4312C26.991 11.1111 26.9043 10.5527 27.2773 9.99839C27.8094 9.22144 28.1238 8.18765 28.1238 7.09878C28.1238 6.00991 27.8174 4.96635 27.2773 4.19917C26.8963 3.65288 26.991 3.07847 27.459 2.76637C27.8701 2.4898 28.4135 2.58902 28.7123 3.00582Z" fill="white" fill-opacity="0.85"/>
  <path d="M12.9822 14.4026C11.3543 15.8171 10.4338 17.6217 10.4338 19.2539C10.4338 19.7471 10.5343 20.224 10.7715 20.6388L3.43222 20.6388C2.12617 20.6388 1.63086 20.0925 1.63086 19.1248C1.63086 16.4787 4.45156 13.2584 8.81543 13.2584C10.4408 13.2584 11.852 13.7047 12.9822 14.4026ZM12.2518 7.99566C12.2518 10.1183 10.6732 11.7748 8.82344 11.7748C6.96738 11.7748 5.38887 10.1183 5.38887 8.01167C5.38887 5.93062 6.97891 4.31343 8.82344 4.31343C10.6617 4.31343 12.2518 5.89683 12.2518 7.99566Z" fill="white" fill-opacity="0.85"/>
  <path d="M20.1076 11.5519C22.2441 11.5519 24.0473 9.65933 24.0473 7.21265C24.0473 4.81284 22.2309 2.98355 20.1076 2.98355C17.9844 2.98355 16.1697 4.84487 16.1697 7.23042C16.1697 9.65933 17.9729 11.5519 20.1076 11.5519ZM13.951 20.6371L26.258 20.6371C27.7648 20.6371 28.3539 20.1572 28.3539 19.2539C28.3539 16.7414 25.168 13.2859 20.0996 13.2859C15.041 13.2859 11.8533 16.7414 11.8533 19.2539C11.8533 20.1572 12.4441 20.6371 13.951 20.6371Z" fill="white" fill-opacity="0.85"/>
 </g>
</svg>
