<?xml version="1.0" encoding="UTF-8"?>
<!--Generator: Apple Native CoreSVG 341-->
<!DOCTYPE svg
PUBLIC "-//W3C//DTD SVG 1.1//EN"
       "http://www.w3.org/Graphics/SVG/1.1/DTD/svg11.dtd">
<svg version="1.1" xmlns="http://www.w3.org/2000/svg" xmlns:xlink="http://www.w3.org/1999/xlink" viewBox="0 0 20.5381 20.1848">
 <g>
  <rect height="20.1848" opacity="0" width="20.5381" x="0" y="0"/>
  <path d="M20.1767 10.0973C20.1767 15.6656 15.6576 20.1848 10.0875 20.1848C4.52715 20.1848 0 15.6656 0 10.0973C0 4.53691 4.52715 0.00976562 10.0875 0.00976562C15.6576 0.00976562 20.1767 4.53691 20.1767 10.0973ZM3.54901 13.3174C3.54901 13.7895 3.81776 14.06 4.42948 14.06L8.0147 14.06C7.89408 13.8378 7.85214 13.5952 7.85214 13.3775C7.85214 12.5729 8.30493 11.683 9.10848 10.9836C8.51875 10.6335 7.80988 10.4285 7.08827 10.4285C5.29706 10.4285 3.54901 11.7152 3.54901 13.3174ZM8.58261 13.3775C8.58261 13.8195 8.8623 14.06 9.65312 14.06L15.6543 14.06C16.4531 14.06 16.715 13.8195 16.715 13.3775C16.715 12.1344 15.1568 10.4445 12.6635 10.4445C10.1586 10.4445 8.58261 12.1344 8.58261 13.3775ZM5.39863 7.83398C5.39863 8.88085 6.18183 9.69589 7.08827 9.69589C8.00449 9.69589 8.7832 8.88085 8.7832 7.82597C8.7832 6.80566 8.00449 6.01738 7.08827 6.01738C6.19335 6.01738 5.39863 6.82167 5.39863 7.83398ZM10.7217 7.45038C10.7217 8.6455 11.6025 9.59199 12.6635 9.59199C13.7129 9.59199 14.5973 8.6455 14.5973 7.44238C14.5973 6.26405 13.7049 5.36386 12.6635 5.36386C11.6061 5.36386 10.7217 6.28808 10.7217 7.45038Z" fill="white" fill-opacity="0.85"/>
 </g>
</svg>
