<?xml version="1.0" encoding="UTF-8"?>
<!--Generator: Apple Native CoreSVG 341-->
<!DOCTYPE svg
PUBLIC "-//W3C//DTD SVG 1.1//EN"
       "http://www.w3.org/Graphics/SVG/1.1/DTD/svg11.dtd">
<svg version="1.1" xmlns="http://www.w3.org/2000/svg" xmlns:xlink="http://www.w3.org/1999/xlink" viewBox="0 0 22.7515 21.4965">
 <g>
  <rect height="21.4965" opacity="0" width="22.7515" x="0" y="0"/>
  <path d="M12.481 0.359374L20.9545 5.24941C21.351 5.47734 21.5363 5.7664 21.5363 6.09277C21.5363 6.53886 21.1851 6.98046 20.5865 6.98046L19.7447 6.98046L19.7447 18.2742L20.3117 18.2742C20.7437 18.2742 20.9947 18.5297 20.9947 18.9572L20.9947 19.7158L21.499 19.7158C21.9797 19.7158 22.3902 20.1148 22.3902 20.5972C22.3902 21.0849 21.9797 21.4867 21.499 21.4867L0.881441 21.4867C0.399022 21.4867 0 21.0832 0 20.5972C0 20.1148 0.399022 19.7158 0.881441 19.7158L1.44999 19.7158L1.44999 18.9572C1.44999 18.5297 1.70898 18.2742 2.14101 18.2742L2.69999 18.2742L2.69999 6.98046L1.85995 6.98046C1.25957 6.98046 0.908396 6.53886 0.908396 6.09277C0.908396 5.7664 1.08574 5.47734 1.49023 5.24941L9.96366 0.359374C10.3523 0.125976 10.7969 0 11.2183 0C11.6398 0 12.0764 0.125976 12.481 0.359374ZM13.0973 7.60486L11.6562 16.2467C11.6465 16.3141 11.6305 16.4287 11.6305 16.5514C11.6305 16.875 11.8283 17.1002 12.1687 17.1002C12.5014 17.1002 12.6902 16.898 12.7426 16.5291L14.1916 7.89529C14.2094 7.8199 14.2254 7.71326 14.2254 7.5906C14.2254 7.26697 14.0213 7.03377 13.6791 7.03377C13.3385 7.03377 13.1656 7.23591 13.0973 7.60486ZM6.44296 9.27635C6.44296 10.4592 7.12421 11.126 8.25976 11.5291L8.83066 11.7404C9.54199 11.9971 10.0307 12.3357 10.0307 13.059C10.0307 13.6988 9.60507 14.1967 8.83534 14.1967C8.15897 14.1967 7.71639 13.8277 7.54588 13.1584C7.44667 12.8523 7.25155 12.7166 6.94022 12.7166C6.60682 12.7166 6.3744 12.964 6.3744 13.3029C6.3744 13.4359 6.41073 13.6097 6.46386 13.733C6.80643 14.7279 7.66659 15.2619 8.81581 15.2619C10.4771 15.2619 11.3058 14.2795 11.3058 12.9375C11.3058 11.5982 10.5285 11.0887 9.46659 10.6908L8.86757 10.4627C8.19413 10.2103 7.71815 9.90115 7.71815 9.18416C7.71815 8.57712 8.09491 8.11228 8.77753 8.11228C9.40038 8.11228 9.80663 8.46677 9.97988 9.11482C10.0693 9.42361 10.2734 9.53982 10.5767 9.53982C10.9225 9.53982 11.1203 9.30662 11.1203 8.99256C11.1203 8.89158 11.1017 8.7701 11.0689 8.67068C10.7949 7.63533 9.90722 7.03279 8.78378 7.03279C7.30272 7.03279 6.44296 8.00545 6.44296 9.27635ZM14.8303 14.4199C14.8303 14.8484 15.1576 15.1758 15.5764 15.1758C16.0191 15.1758 16.3562 14.8484 16.3562 14.4199C16.3562 13.9932 16.0191 13.6596 15.5764 13.6596C15.1576 13.6596 14.8303 13.9932 14.8303 14.4199Z" fill="white" fill-opacity="0.85"/>
 </g>
</svg>
