<?xml version="1.0" encoding="UTF-8"?>
<!--Generator: Apple Native CoreSVG 341-->
<!DOCTYPE svg
PUBLIC "-//W3C//DTD SVG 1.1//EN"
       "http://www.w3.org/Graphics/SVG/1.1/DTD/svg11.dtd">
<svg version="1.1" xmlns="http://www.w3.org/2000/svg" xmlns:xlink="http://www.w3.org/1999/xlink" viewBox="0 0 20.5381 20.1848">
 <g>
  <rect height="20.1848" opacity="0" width="20.5381" x="0" y="0"/>
  <path d="M20.1767 10.0875C20.1767 15.6478 15.6576 20.175 10.0875 20.175C4.52715 20.175 0 15.6478 0 10.0875C0 4.51914 4.52715 0 10.0875 0C15.6576 0 20.1767 4.51914 20.1767 10.0875ZM11.9584 6.12264L10.5174 14.7582C10.5059 14.8336 10.4898 14.9385 10.4898 15.0611C10.4898 15.3848 10.6894 15.618 11.0281 15.618C11.3625 15.618 11.5514 15.4158 11.6037 15.0389L13.051 6.40507C13.0705 6.32968 13.0865 6.22303 13.0865 6.10038C13.0865 5.77675 12.8824 5.54354 12.5402 5.54354C12.1979 5.54354 12.0268 5.7537 11.9584 6.12264ZM5.3041 7.78612C5.3041 8.9787 5.98535 9.63573 7.1209 10.0406L7.69004 10.2502C8.40137 10.5068 8.8918 10.8455 8.8918 11.5687C8.8918 12.2086 8.46445 12.7082 7.69472 12.7082C7.01835 12.7082 6.57753 12.3455 6.40702 11.6699C6.30781 11.3621 6.11269 11.2281 5.80937 11.2281C5.46797 11.2281 5.23379 11.4756 5.23379 11.8127C5.23379 11.9537 5.27988 12.1275 5.325 12.2445C5.66757 13.2377 6.52773 13.7717 7.67695 13.7717C9.33828 13.7717 10.167 12.7893 10.167 11.4473C10.167 10.108 9.38964 9.59843 8.32773 9.20058L7.72871 8.97421C7.05351 8.72187 6.57929 8.41894 6.57929 7.70194C6.57929 7.0869 6.95605 6.62206 7.63867 6.62206C8.26152 6.62206 8.66777 6.98456 8.84102 7.63261C8.92871 7.93339 9.13457 8.05761 9.43613 8.05761C9.78359 8.05761 9.98144 7.8164 9.98144 7.50409C9.98144 7.40136 9.96289 7.27988 9.93008 7.18046C9.65605 6.14511 8.7666 5.55233 7.65293 5.55233C6.16386 5.55233 5.3041 6.51523 5.3041 7.78612ZM13.6896 12.9314C13.6896 13.3582 14.017 13.6855 14.4375 13.6855C14.8803 13.6855 15.2156 13.3582 15.2156 12.9314C15.2156 12.5109 14.8803 12.1773 14.4375 12.1773C14.017 12.1773 13.6896 12.5109 13.6896 12.9314Z" fill="white" fill-opacity="0.85"/>
 </g>
</svg>
