<?xml version="1.0" encoding="UTF-8"?>
<!--Generator: Apple Native CoreSVG 341-->
<!DOCTYPE svg
PUBLIC "-//W3C//DTD SVG 1.1//EN"
       "http://www.w3.org/Graphics/SVG/1.1/DTD/svg11.dtd">
<svg version="1.1" xmlns="http://www.w3.org/2000/svg" xmlns:xlink="http://www.w3.org/1999/xlink" viewBox="0 0 18.5894 18.2316">
 <g>
  <rect height="18.2316" opacity="0" width="18.5894" x="0" y="0"/>
  <path d="M3.20351 18.2281L15.0246 18.2281C17.1404 18.2281 18.2281 17.1502 18.2281 15.0646L18.2281 3.17148C18.2281 1.08769 17.1404 0 15.0246 0L3.20351 0C1.0957 0 0 1.08769 0 3.17148L0 15.0646C0 17.1502 1.0957 18.2281 3.20351 18.2281ZM3.31444 16.3148C2.40643 16.3148 1.91327 15.8465 1.91327 14.8977L1.91327 3.34023C1.91327 2.39139 2.40643 1.91503 3.31444 1.91503L14.9137 1.91503C15.8137 1.91503 16.3148 2.39139 16.3148 3.34023L16.3148 14.8977C16.3148 15.8465 15.8137 16.3148 14.9137 16.3148Z" fill="white" fill-opacity="0.85"/>
  <path d="M6.81738 12.6781C8.40957 12.6781 9.21797 11.7285 9.21797 10.4379C9.21797 9.15449 8.46367 8.6582 7.43808 8.27363L6.86562 8.05703C6.21347 7.81445 5.74902 7.5248 5.74902 6.82733C5.74902 6.23358 6.11601 5.7785 6.7791 5.7785C7.38066 5.7785 7.77715 6.13124 7.94063 6.758C8.02656 7.04726 8.2209 7.16972 8.50918 7.16972C8.83808 7.16972 9.03418 6.94003 9.03418 6.64101C9.03418 6.54179 9.01738 6.42382 8.98457 6.33241C8.72383 5.33515 7.86445 4.76014 6.79336 4.76014C5.36015 4.76014 4.53222 5.69198 4.53222 6.90976C4.53222 8.05624 5.19844 8.69023 6.28789 9.08183L6.83398 9.28163C7.52227 9.52675 7.99317 9.85742 7.99317 10.5576C7.99317 11.1762 7.57734 11.6563 6.84316 11.6563C6.18007 11.6563 5.74726 11.3051 5.58827 10.6553C5.49706 10.3625 5.30722 10.2303 5.01894 10.2303C4.69257 10.2303 4.46992 10.4662 4.46992 10.7883C4.46992 10.9275 4.508 11.0898 4.5496 11.2033C4.8789 12.1654 5.71249 12.6781 6.81738 12.6781ZM10.0393 14.4553C10.3666 14.4553 10.5342 14.2647 10.5945 13.9125L11.9912 5.57655C12.001 5.50292 12.017 5.40428 12.017 5.28163C12.017 4.97303 11.8227 4.75311 11.4973 4.75311C11.1779 4.75311 11.0023 4.95175 10.95 5.30389L9.55332 13.6336C9.53554 13.7072 9.51953 13.8041 9.51953 13.9268C9.51953 14.2371 9.71386 14.4553 10.0393 14.4553ZM13.3166 12.592C13.7381 12.592 14.0584 12.2797 14.0584 11.8742C14.0584 11.4723 13.7381 11.1502 13.3166 11.1502C12.9111 11.1502 12.5988 11.4723 12.5988 11.8742C12.5988 12.2797 12.9111 12.592 13.3166 12.592Z" fill="white" fill-opacity="0.85"/>
 </g>
</svg>
