<?xml version="1.0" encoding="UTF-8"?>
<!--Generator: Apple Native CoreSVG 341-->
<!DOCTYPE svg
PUBLIC "-//W3C//DTD SVG 1.1//EN"
       "http://www.w3.org/Graphics/SVG/1.1/DTD/svg11.dtd">
<svg version="1.1" xmlns="http://www.w3.org/2000/svg" xmlns:xlink="http://www.w3.org/1999/xlink" viewBox="0 0 24.2049 19.7961">
 <g>
  <rect height="19.7961" opacity="0" width="24.2049" x="0" y="0"/>
  <path d="M23.8435 11.8701C23.8435 5.64747 19.073 0.538875 12.9941 0.00293831C12.6553-0.029874 12.3998 0.215828 12.3998 0.554694L12.3998 3.8043C12.3998 4.08907 12.6012 4.30645 12.8842 4.33301C16.6191 4.80957 19.517 8.00293 19.517 11.8701C19.517 13.6332 18.9115 15.2613 17.8488 16.61C17.6945 16.8023 17.7025 17.0471 17.8719 17.2244L20.2322 19.5785C20.4646 19.8144 20.823 19.8109 21.0359 19.559C22.7926 17.4783 23.8435 14.7949 23.8435 11.8701Z" fill="white" fill-opacity="0.85"/>
  <path d="M0 11.8701C0 14.8029 1.05098 17.4863 2.80586 19.5652C3.01875 19.8172 3.36914 19.8109 3.61132 19.5768L5.96992 17.2227C6.13925 17.0453 6.14726 16.8006 5.99296 16.6082C4.92578 15.2613 4.32656 13.6332 4.32656 11.8701C4.32656 8.00293 7.22617 4.80957 10.9594 4.33301C11.2441 4.30645 11.4437 4.08907 11.4437 3.8043L11.4437 0.554694C11.4437 0.215828 11.1883-0.029874 10.8494 0.00293831C4.77226 0.538875 0 5.64747 0 11.8701Z" fill="white" fill-opacity="0.85"/>
  <path d="M9.6082 15.5283C11.2004 15.5283 12.0088 14.5787 12.0088 13.2818C12.0088 12.0047 11.2545 11.5022 10.2289 11.1238L9.65468 10.9072C9.01054 10.6647 8.54784 10.367 8.54784 9.67129C8.54784 9.07578 8.90683 8.63046 9.57792 8.63046C10.1715 8.63046 10.568 8.97343 10.7314 9.60195C10.8174 9.88945 11.0117 10.0119 11.3 10.0119C11.6289 10.0119 11.825 9.79199 11.825 9.48496C11.825 9.38399 11.8064 9.27402 11.7834 9.17637C11.5146 8.17734 10.6553 7.60234 9.58242 7.60234C8.15898 7.60234 7.32304 8.54219 7.32304 9.75996C7.32304 10.9002 7.98925 11.5404 9.07871 11.932L9.63281 12.1238C10.3211 12.3689 10.784 12.7076 10.784 13.3998C10.784 14.0201 10.3664 14.5002 9.63398 14.5002C8.97089 14.5002 8.54608 14.1473 8.37909 13.4975C8.28788 13.2065 8.09804 13.0725 7.80976 13.0725C7.48163 13.0725 7.26874 13.3164 7.26874 13.6402C7.26874 13.7697 7.29882 13.932 7.34042 14.0553C7.66972 15.0076 8.50331 15.5283 9.6082 15.5283ZM12.8301 17.2975C13.1574 17.2975 13.325 17.1086 13.3853 16.7565L14.782 8.41875C14.7918 8.35312 14.8078 8.24648 14.8078 8.13183C14.8078 7.82324 14.6135 7.60508 14.2881 7.60508C13.9687 7.60508 13.7932 7.79394 13.7408 8.14609L12.3441 16.4838C12.3344 16.5494 12.3103 16.6561 12.3103 16.7707C12.3103 17.0793 12.5047 17.2975 12.8301 17.2975ZM16.1074 15.4422C16.5289 15.4422 16.8492 15.1299 16.8492 14.7164C16.8492 14.3145 16.5289 13.9924 16.1074 13.9924C15.7019 13.9924 15.3896 14.3145 15.3896 14.7164C15.3896 15.1299 15.7019 15.4422 16.1074 15.4422Z" fill="white" fill-opacity="0.85"/>
 </g>
</svg>
