<?xml version="1.0" encoding="UTF-8"?>
<!--Generator: Apple Native CoreSVG 341-->
<!DOCTYPE svg
PUBLIC "-//W3C//DTD SVG 1.1//EN"
       "http://www.w3.org/Graphics/SVG/1.1/DTD/svg11.dtd">
<svg version="1.1" xmlns="http://www.w3.org/2000/svg" xmlns:xlink="http://www.w3.org/1999/xlink" viewBox="0 0 18.5894 18.2316">
 <g>
  <rect height="18.2316" opacity="0" width="18.5894" x="0" y="0"/>
  <path d="M3.20351 18.2281L15.0246 18.2281C17.1404 18.2281 18.2281 17.1502 18.2281 15.0646L18.2281 3.17148C18.2281 1.08769 17.1404 0 15.0246 0L3.20351 0C1.0957 0 0 1.08769 0 3.17148L0 15.0646C0 17.1502 1.0957 18.2281 3.20351 18.2281ZM3.31444 16.3148C2.40643 16.3148 1.91327 15.8465 1.91327 14.8977L1.91327 3.34023C1.91327 2.39139 2.40643 1.91503 3.31444 1.91503L14.9137 1.91503C15.8137 1.91503 16.3148 2.39139 16.3148 3.34023L16.3148 14.8977C16.3148 15.8465 15.8137 16.3148 14.9137 16.3148Z" fill="white" fill-opacity="0.85"/>
  <path d="M7.18867 13.5459C7.60175 13.5459 7.86503 13.2906 7.86503 12.8643L7.86503 10.5519L9.54843 10.5519C11.2898 10.5519 12.4707 9.36093 12.4707 7.6371C12.4707 5.89882 11.2826 4.75937 9.59433 4.75937L7.21074 4.75937C6.77207 4.75937 6.50879 5.02265 6.50879 5.46132L6.50879 12.8643C6.50879 13.2906 6.77207 13.5459 7.18867 13.5459ZM7.86503 9.48866L7.86503 5.83143L9.2416 5.83143C10.3529 5.83143 11.0949 6.43788 11.0949 7.63886C11.0949 8.83261 10.3947 9.48866 9.23007 9.48866ZM5.58867 7.59081C5.58867 7.77558 5.72812 7.90702 5.90664 7.90702L12.9392 7.90702C13.124 7.90702 13.2635 7.76757 13.2635 7.59081C13.2635 7.42206 13.124 7.28436 12.9392 7.28436L5.90664 7.28436C5.72812 7.28436 5.58867 7.42206 5.58867 7.59081Z" fill="white" fill-opacity="0.85"/>
 </g>
</svg>
