<?xml version="1.0" encoding="UTF-8"?>
<!--Generator: Apple Native CoreSVG 341-->
<!DOCTYPE svg
PUBLIC "-//W3C//DTD SVG 1.1//EN"
       "http://www.w3.org/Graphics/SVG/1.1/DTD/svg11.dtd">
<svg version="1.1" xmlns="http://www.w3.org/2000/svg" xmlns:xlink="http://www.w3.org/1999/xlink" viewBox="0 0 15.6777 17.8066">
 <g>
  <rect height="17.8066" opacity="0" width="15.6777" x="0" y="0"/>
  <path d="M3.12304 17.7791C3.84667 17.7791 4.34998 17.2643 4.34998 16.5291L4.34998 11.5328L7.84726 11.5328C11.3937 11.5328 13.715 9.09335 13.715 5.73241C13.715 2.3662 11.3566 0 7.92303 0L3.15292 0C2.38164 0 1.88282 0.513082 1.88282 1.29413L1.88282 16.5291C1.88282 17.2643 2.38965 17.7791 3.12304 17.7791ZM4.34998 9.54375L4.34998 2.0076L7.30136 2.0076C9.72305 2.0076 11.1928 3.3705 11.1981 5.73593C11.1981 8.17676 9.71133 9.54375 7.29433 9.54375ZM0 5.64784C0 6.00488 0.266407 6.26152 0.631446 6.26152L14.6832 6.26152C15.042 6.26152 15.3164 5.99687 15.3164 5.64784C15.3164 5.29706 15.042 5.02616 14.6832 5.02616L0.631446 5.02616C0.266407 5.02616 0 5.29706 0 5.64784Z" fill="white" fill-opacity="0.85"/>
 </g>
</svg>
