<?xml version="1.0" encoding="UTF-8"?>
<!--Generator: Apple Native CoreSVG 341-->
<!DOCTYPE svg
PUBLIC "-//W3C//DTD SVG 1.1//EN"
       "http://www.w3.org/Graphics/SVG/1.1/DTD/svg11.dtd">
<svg version="1.1" xmlns="http://www.w3.org/2000/svg" xmlns:xlink="http://www.w3.org/1999/xlink" viewBox="0 0 22.301 21.9477">
 <g>
  <rect height="21.9477" opacity="0" width="22.301" x="0" y="0"/>
  <path d="M10.9689 21.9379C16.9984 21.9379 21.9396 16.9984 21.9396 10.9689C21.9396 4.93945 16.9984 0 10.9689 0C4.93945 0 0 4.93945 0 10.9689C0 16.9984 4.93945 21.9379 10.9689 21.9379ZM10.9689 18.2242C6.96133 18.2242 3.71367 14.9766 3.71367 10.9689C3.71367 6.95332 6.96133 3.71367 10.9689 3.71367C14.9846 3.71367 18.226 6.95332 18.226 10.9689C18.226 14.9766 14.9846 18.2242 10.9689 18.2242Z" fill="white" fill-opacity="0.85"/>
  <path d="M9.03867 15.4039C9.45175 15.4039 9.71679 15.1486 9.71679 14.7223L9.71679 12.41L11.3984 12.41C13.1398 12.41 14.3225 11.2189 14.3225 9.49511C14.3225 7.75683 13.1344 6.61738 11.4443 6.61738L9.06074 6.61738C8.62207 6.61738 8.35879 6.88066 8.35879 7.31933L8.35879 14.7223C8.35879 15.1486 8.62207 15.4039 9.03867 15.4039ZM9.71679 11.3467L9.71679 7.68944L11.0916 7.68944C12.2047 7.68944 12.9467 8.29589 12.9467 9.49687C12.9467 10.6906 12.2447 11.3467 11.0801 11.3467ZM7.44043 9.44882C7.44043 9.63359 7.57812 9.76503 7.75664 9.76503L14.7893 9.76503C14.9758 9.76503 15.1135 9.62558 15.1135 9.44882C15.1135 9.28007 14.9758 9.14238 14.7893 9.14238L7.75664 9.14238C7.57812 9.14238 7.44043 9.28007 7.44043 9.44882Z" fill="white" fill-opacity="0.85"/>
 </g>
</svg>
