<?xml version="1.0" encoding="UTF-8"?>
<!--Generator: Apple Native CoreSVG 341-->
<!DOCTYPE svg
PUBLIC "-//W3C//DTD SVG 1.1//EN"
       "http://www.w3.org/Graphics/SVG/1.1/DTD/svg11.dtd">
<svg version="1.1" xmlns="http://www.w3.org/2000/svg" xmlns:xlink="http://www.w3.org/1999/xlink" viewBox="0 0 20.5381 20.1848">
 <g>
  <rect height="20.1848" opacity="0" width="20.5381" x="0" y="0"/>
  <path d="M10.0875 20.175C15.6576 20.175 20.1767 15.6559 20.1767 10.0875C20.1767 4.51914 15.6576 0 10.0875 0C4.51914 0 0 4.51914 0 10.0875C0 15.6559 4.51914 20.175 10.0875 20.175ZM10.0875 18.1879C5.60839 18.1879 1.9871 14.5666 1.9871 10.0875C1.9871 5.60839 5.60839 1.9871 10.0875 1.9871C14.5666 1.9871 18.1897 5.60839 18.1897 10.0875C18.1897 14.5666 14.5666 18.1879 10.0875 18.1879Z" fill="white" fill-opacity="0.85"/>
  <path d="M8.16425 14.5144C8.5871 14.5144 8.85038 14.2574 8.85038 13.8328L8.85038 11.726L10.5258 11.726C12.3312 11.726 13.456 10.4113 13.456 8.70351C13.456 7.06484 12.3898 5.72792 10.5699 5.72792L8.18808 5.72792C7.76269 5.72792 7.49414 5.99823 7.49414 6.42987L7.49414 13.8328C7.49414 14.2574 7.75742 14.5144 8.16425 14.5144ZM8.85038 10.6609L8.85038 6.79999L10.235 6.79999C11.3881 6.79999 12.0883 7.49628 12.0883 8.70526C12.0883 9.90703 11.4041 10.6609 10.2314 10.6609ZM6.5457 7.97694C6.5457 8.16347 6.68515 8.29315 6.86191 8.29315L13.9141 8.29315C14.0908 8.29315 14.2303 8.15546 14.2303 7.97694C14.2303 7.80995 14.0908 7.6705 13.9141 7.6705L6.86191 7.6705C6.68515 7.6705 6.5457 7.80995 6.5457 7.97694ZM6.5457 9.46991C6.5457 9.64667 6.68515 9.77812 6.86191 9.77812L13.9141 9.77812C14.0908 9.77812 14.2303 9.63866 14.2303 9.46991C14.2303 9.29941 14.0908 9.15995 13.9141 9.15995L6.86191 9.15995C6.68515 9.15995 6.5457 9.29941 6.5457 9.46991Z" fill="white" fill-opacity="0.85"/>
 </g>
</svg>
