<?xml version="1.0" encoding="UTF-8"?>
<!--Generator: Apple Native CoreSVG 341-->
<!DOCTYPE svg
PUBLIC "-//W3C//DTD SVG 1.1//EN"
       "http://www.w3.org/Graphics/SVG/1.1/DTD/svg11.dtd">
<svg version="1.1" xmlns="http://www.w3.org/2000/svg" xmlns:xlink="http://www.w3.org/1999/xlink" viewBox="0 0 24.226 20.1848">
 <g>
  <rect height="20.1848" opacity="0" width="24.226" x="0" y="0"/>
  <path d="M0.721518 8.12363C-0.00973073 8.12363-0.190785 8.66894 0.204136 9.22109L2.47249 12.3723C2.78948 12.8092 3.27757 12.8012 3.58831 12.3723L5.8469 9.21308C6.24007 8.66894 6.051 8.12363 5.33929 8.12363ZM22.0239 10.0875C22.0239 4.51914 17.503 0 11.9364 0C6.368 0 1.85687 4.50937 1.84886 10.099C1.85687 10.6476 2.29378 11.0846 2.83441 11.0846C3.38303 11.0846 3.83596 10.6396 3.83596 10.091C3.83596 5.60839 7.45725 1.9871 11.9364 1.9871C16.4155 1.9871 20.0368 5.60839 20.0368 10.0875C20.0368 14.5666 16.4155 18.1879 11.9364 18.1879C9.3096 18.1879 7.0131 16.9437 5.54279 15.0176C5.1469 14.5609 4.58421 14.4129 4.10726 14.7519C3.66214 15.0734 3.55902 15.725 3.99475 16.2355C5.84631 18.6584 8.71858 20.175 11.9364 20.175C17.503 20.175 22.0239 15.6559 22.0239 10.0875Z" fill="white" fill-opacity="0.85"/>
  <path d="M10.0211 14.5144C10.444 14.5144 10.7073 14.2574 10.7073 13.8328L10.7073 11.726L12.3826 11.726C14.1881 11.726 15.3129 10.4113 15.3129 8.70351C15.3129 7.06484 14.2485 5.72792 12.4285 5.72792L10.045 5.72792C9.62132 5.72792 9.35101 5.99823 9.35101 6.42987L9.35101 13.8328C9.35101 14.2574 9.61429 14.5144 10.0211 14.5144ZM10.7073 10.6609L10.7073 6.79999L12.0918 6.79999C13.245 6.79999 13.9452 7.49628 13.9452 8.70526C13.9452 9.90703 13.261 10.6609 12.0883 10.6609ZM8.40257 7.97694C8.40257 8.16347 8.54203 8.29315 8.72054 8.29315L15.7709 8.29315C15.9477 8.29315 16.0871 8.15546 16.0871 7.97694C16.0871 7.80995 15.9477 7.6705 15.7709 7.6705L8.72054 7.6705C8.54203 7.6705 8.40257 7.80995 8.40257 7.97694ZM8.40257 9.46991C8.40257 9.64667 8.54203 9.77812 8.72054 9.77812L15.7709 9.77812C15.9477 9.77812 16.0871 9.63866 16.0871 9.46991C16.0871 9.29941 15.9477 9.15995 15.7709 9.15995L8.72054 9.15995C8.54203 9.15995 8.40257 9.29941 8.40257 9.46991Z" fill="white" fill-opacity="0.85"/>
 </g>
</svg>
