<?xml version="1.0" encoding="UTF-8"?>
<!--Generator: Apple Native CoreSVG 341-->
<!DOCTYPE svg
PUBLIC "-//W3C//DTD SVG 1.1//EN"
       "http://www.w3.org/Graphics/SVG/1.1/DTD/svg11.dtd">
<svg version="1.1" xmlns="http://www.w3.org/2000/svg" xmlns:xlink="http://www.w3.org/1999/xlink" viewBox="0 0 24.2049 19.7961">
 <g>
  <rect height="19.7961" opacity="0" width="24.2049" x="0" y="0"/>
  <path d="M23.8435 11.8701C23.8435 5.64747 19.073 0.538875 12.9941 0.00293831C12.6553-0.029874 12.3998 0.215828 12.3998 0.554694L12.3998 3.8043C12.3998 4.08907 12.6012 4.30645 12.8842 4.33301C16.6191 4.80957 19.517 8.00293 19.517 11.8701C19.517 13.6332 18.9115 15.2613 17.8488 16.61C17.6945 16.8023 17.7025 17.0471 17.8719 17.2244L20.2322 19.5785C20.4646 19.8144 20.823 19.8109 21.0359 19.559C22.7926 17.4783 23.8435 14.7949 23.8435 11.8701Z" fill="white" fill-opacity="0.85"/>
  <path d="M0 11.8701C0 14.8029 1.05098 17.4863 2.80586 19.5652C3.01875 19.8172 3.36914 19.8109 3.61132 19.5768L5.96992 17.2227C6.13925 17.0453 6.14726 16.8006 5.99296 16.6082C4.92578 15.2613 4.32656 13.6332 4.32656 11.8701C4.32656 8.00293 7.22617 4.80957 10.9594 4.33301C11.2441 4.30645 11.4437 4.08907 11.4437 3.8043L11.4437 0.554694C11.4437 0.215828 11.1883-0.029874 10.8494 0.00293831C4.77226 0.538875 0 5.64747 0 11.8701Z" fill="white" fill-opacity="0.85"/>
  <path d="M10.0025 16.3881C10.4156 16.3881 10.6887 16.1248 10.6887 15.7065L10.6887 13.5916L12.356 13.5916C14.1615 13.5916 15.2863 12.285 15.2863 10.5771C15.2863 8.93848 14.2201 7.59356 12.4082 7.59356L10.0166 7.59356C9.59296 7.59356 9.33066 7.87187 9.33066 8.30351L9.33066 15.7065C9.33066 16.1248 9.58769 16.3881 10.0025 16.3881ZM10.6887 12.5266L10.6887 8.67363L12.0652 8.67363C13.2166 8.67363 13.9186 9.36191 13.9186 10.5807C13.9186 11.7744 13.2344 12.5266 12.06 12.5266ZM8.37597 9.85059C8.37597 10.0291 8.51543 10.1605 8.70019 10.1605L15.7426 10.1605C15.9291 10.1605 16.0685 10.0211 16.0685 9.85059C16.0685 9.68359 15.9291 9.54414 15.7426 9.54414L8.70019 9.54414C8.51543 9.54414 8.37597 9.68359 8.37597 9.85059ZM8.37597 11.3355C8.37597 11.5221 8.51543 11.6518 8.70019 11.6518L15.7426 11.6518C15.9291 11.6518 16.0685 11.5141 16.0685 11.3355C16.0685 11.165 15.9291 11.0273 15.7426 11.0273L8.70019 11.0273C8.51543 11.0273 8.37597 11.165 8.37597 11.3355Z" fill="white" fill-opacity="0.85"/>
 </g>
</svg>
