<?xml version="1.0" encoding="UTF-8"?>
<!--Generator: Apple Native CoreSVG 341-->
<!DOCTYPE svg
PUBLIC "-//W3C//DTD SVG 1.1//EN"
       "http://www.w3.org/Graphics/SVG/1.1/DTD/svg11.dtd">
<svg version="1.1" xmlns="http://www.w3.org/2000/svg" xmlns:xlink="http://www.w3.org/1999/xlink" viewBox="0 0 15.6314 17.8066">
 <g>
  <rect height="17.8066" opacity="0" width="15.6314" x="0" y="0"/>
  <path d="M3.12362 17.7791C3.85955 17.7791 4.35232 17.2748 4.35232 16.5291L4.35232 11.9437L7.8496 11.9437C11.3808 11.9437 13.7191 9.39589 13.7191 5.93613C13.7191 2.50644 11.4014 0 7.92538 0L3.15351 0C2.3875 0 1.88516 0.495505 1.88516 1.29413L1.88516 16.5291C1.88516 17.2748 2.37969 17.7791 3.12362 17.7791ZM4.35232 9.94668L4.35232 2.0076L7.30995 2.0076C9.79922 2.0076 11.2272 3.52616 11.2307 5.9414C11.2307 8.40625 9.79375 9.94668 7.30292 9.94668ZM0 4.46445C0 4.82323 0.266407 5.07812 0.623438 5.07812L14.6449 5.07812C15.0037 5.07812 15.2701 4.81523 15.2701 4.46445C15.2701 4.11542 15.0037 3.85077 14.6449 3.85077L0.623438 3.85077C0.266407 3.85077 0 4.11542 0 4.46445ZM0 7.48125C0 7.84004 0.266407 8.09668 0.623438 8.09668L14.6449 8.09668C15.0037 8.09668 15.2701 7.83203 15.2701 7.48125C15.2701 7.13222 15.0037 6.86757 14.6449 6.86757L0.623438 6.86757C0.266407 6.86757 0 7.13222 0 7.48125Z" fill="white" fill-opacity="0.85"/>
 </g>
</svg>
