<?xml version="1.0" encoding="UTF-8"?>
<!--Generator: Apple Native CoreSVG 341-->
<!DOCTYPE svg
PUBLIC "-//W3C//DTD SVG 1.1//EN"
       "http://www.w3.org/Graphics/SVG/1.1/DTD/svg11.dtd">
<svg version="1.1" xmlns="http://www.w3.org/2000/svg" xmlns:xlink="http://www.w3.org/1999/xlink" viewBox="0 0 23.4469 19.3191">
 <g>
  <rect height="19.3191" opacity="0" width="23.4469" x="0" y="0"/>
  <path d="M3.15644 19.3094L19.9308 19.3094C22.0129 19.3094 23.0855 18.2607 23.0855 16.1867L23.0855 9.50917C23.0855 5.65956 20.8558 3.50409 16.9496 3.50409L16.6525 3.50409L16.6525 2.84961C16.6525 0.963474 15.5377 0 13.618 0L9.46756 0C7.62167 0 6.42675 0.963474 6.42675 2.84961L6.42675 3.50409L6.13769 3.50409C2.23144 3.50409 0 5.65956 0 9.50917L0 16.1867C0 18.2607 1.07265 19.3094 3.15644 19.3094ZM3.2287 17.4656C2.37011 17.4656 1.91327 17.0248 1.91327 16.1262L1.91327 9.57147C1.91327 6.83865 3.47655 5.34783 6.23398 5.34783L16.8515 5.34783C19.609 5.34783 21.1723 6.83865 21.1723 9.57147L21.1723 16.1262C21.1723 17.0248 20.7154 17.4656 19.8586 17.4656ZM8.1953 3.50409L8.1953 2.84941C8.1953 2.08769 8.67557 1.63319 9.44354 1.63319L13.634 1.63319C14.4117 1.63319 14.8822 2.08769 14.8822 2.84941L14.8822 3.50409Z" fill="white" fill-opacity="0.85"/>
  <path d="M6.91815 10.9933C6.91815 11.8652 7.38241 12.539 7.98788 12.539C8.58534 12.539 9.0576 11.8652 9.0576 10.9933C9.0576 10.125 8.58534 9.44139 7.98788 9.44139C7.38241 9.44139 6.91815 10.125 6.91815 10.9933ZM9.0412 8.46541C9.0412 9.32752 9.51347 10.0094 10.1189 10.0094C10.7182 10.0094 11.1887 9.32752 11.1887 8.46541C11.1887 7.59354 10.7182 6.91971 10.1189 6.91971C9.51171 6.91971 9.0412 7.59354 9.0412 8.46541ZM11.8969 8.46541C11.8969 9.32752 12.3594 10.0094 12.9666 10.0094C13.5641 10.0094 14.0443 9.32752 14.0443 8.46541C14.0443 7.59354 13.5658 6.91971 12.9666 6.91971C12.3594 6.91971 11.8969 7.59354 11.8969 8.46541ZM14.0199 10.9933C14.0199 11.8652 14.4904 12.539 15.0976 12.539C15.6951 12.539 16.1674 11.8652 16.1674 10.9933C16.1674 10.125 15.6951 9.44139 15.0976 9.44139C14.4904 9.44139 14.0199 10.125 14.0199 10.9933ZM8.25253 14.3605C8.25253 15.2572 8.84823 15.9 9.73964 15.9C10.1721 15.9 10.4846 15.7846 10.7865 15.6726C11.0316 15.5883 11.2572 15.5217 11.5379 15.5217C11.8203 15.5217 12.0539 15.5883 12.291 15.6726C12.593 15.7846 12.9037 15.9 13.3379 15.9C14.2293 15.9 14.8232 15.2572 14.8232 14.3605C14.8232 13.6156 14.3793 13.2187 13.9486 12.868C13.7115 12.6779 13.4859 12.4976 13.3252 12.2543C13.1955 12.0758 13.0916 11.8599 12.9922 11.6549C12.6867 10.9871 12.4363 10.3558 11.5379 10.3558C10.6412 10.3558 10.3908 10.9871 10.0853 11.6549C9.98593 11.8519 9.88202 12.0678 9.76034 12.2543C9.59159 12.4976 9.36425 12.6779 9.13514 12.868C8.70624 13.2187 8.25253 13.6156 8.25253 14.3605Z" fill="white" fill-opacity="0.85"/>
 </g>
</svg>
