<?xml version="1.0" encoding="UTF-8"?>
<!--Generator: Apple Native CoreSVG 341-->
<!DOCTYPE svg
PUBLIC "-//W3C//DTD SVG 1.1//EN"
       "http://www.w3.org/Graphics/SVG/1.1/DTD/svg11.dtd">
<svg version="1.1" xmlns="http://www.w3.org/2000/svg" xmlns:xlink="http://www.w3.org/1999/xlink" viewBox="0 0 23.949 9.79491">
 <g>
  <rect height="9.79491" opacity="0" width="23.949" x="0" y="0"/>
  <path d="M11.7898 0C7.03378 0 3.5623 1.17148 1.61406 3.10195C0.599219 4.13456 0 5.40898 0 6.88807C0 8.26932 0.541206 9.62498 2.17714 9.71307C2.43027 9.76913 2.72343 9.78163 3.04863 9.7203L6.11679 9.1621C6.98612 9.00311 7.41815 8.5744 7.73065 7.63983L8.21991 6.0994C8.33612 5.72694 8.53026 5.54608 8.92342 5.46171C9.36229 5.36229 10.2021 5.28319 11.7898 5.28319C13.3873 5.28319 14.2174 5.36229 14.6643 5.46171C15.0574 5.54608 15.2516 5.72694 15.3615 6.0994L15.857 7.63983C16.1615 8.5744 16.6016 9.00311 17.4709 9.1621L20.5408 9.7203C20.858 9.78163 21.1592 9.76913 21.4105 9.71307C23.0465 9.62498 23.5877 8.26932 23.5877 6.88807C23.5877 5.40898 22.9902 4.13456 21.9736 3.10195C20.0254 1.17148 16.5459 0 11.7898 0ZM11.7898 1.65214C15.8941 1.65214 19.2336 2.57206 20.8877 4.27597C21.533 4.94706 21.9334 5.833 21.9334 6.68515C21.9334 7.42206 21.6832 8.06151 21.0992 8.12558C21.0113 8.17362 20.8826 8.19589 20.7617 8.17011L18.0812 7.63202C17.7459 7.56991 17.5258 7.38359 17.4096 7.00214L16.8988 5.45585C16.5935 4.53574 16.1943 4.15078 15.3736 3.99824C14.6517 3.85976 13.5146 3.74785 11.7898 3.74785C10.073 3.74785 8.93593 3.85976 8.2078 3.99824C7.38534 4.15078 6.99413 4.53574 6.68886 5.45585L6.17812 7.00214C6.0539 7.38359 5.84179 7.56991 5.49843 7.63202L2.82773 8.17011C2.69706 8.19589 2.57636 8.17362 2.48046 8.12558C1.90449 8.06151 1.65429 7.42206 1.65429 6.68515C1.65429 5.833 2.05468 4.94706 2.70175 4.27597C4.34609 2.57206 7.68555 1.65214 11.7898 1.65214Z" fill="white" fill-opacity="0.85"/>
 </g>
</svg>
