<?xml version="1.0" encoding="UTF-8"?>
<!--Generator: Apple Native CoreSVG 341-->
<!DOCTYPE svg
PUBLIC "-//W3C//DTD SVG 1.1//EN"
       "http://www.w3.org/Graphics/SVG/1.1/DTD/svg11.dtd">
<svg version="1.1" xmlns="http://www.w3.org/2000/svg" xmlns:xlink="http://www.w3.org/1999/xlink" viewBox="0 0 19.5947 22.8472">
 <g>
  <rect height="22.8472" opacity="0" width="19.5947" x="0" y="0"/>
  <path d="M0 11.4187C0 15.8019 1.17148 19.2752 3.10195 21.2234C4.13456 22.2383 5.40898 22.8375 6.88807 22.8375C8.26932 22.8375 9.62498 22.2963 9.70506 20.6603C9.76913 20.4072 9.78163 20.114 9.71854 19.7888L9.15409 16.7207C8.9951 15.8496 8.56639 15.4113 7.63182 15.1068L6.0994 14.6176C5.72694 14.5014 5.54608 14.3072 5.4537 13.9123C5.36229 13.4672 5.28319 12.6353 5.28319 11.4187C5.28319 10.2021 5.36229 9.36229 5.4537 8.91542C5.54608 8.53026 5.72694 8.33612 6.0994 8.21991L7.63182 7.73065C8.56639 7.41815 8.9951 6.97811 9.15409 6.11679L9.71854 3.04062C9.78163 2.72343 9.76913 2.42226 9.70506 2.16913C9.62498 0.541206 8.26932 0 6.88807 0C5.40898 0 4.13456 0.591211 3.10195 1.61406C1.17148 3.55429 0 7.03378 0 11.4187ZM1.65214 11.4187C1.65214 7.68555 2.57206 4.34609 4.27597 2.70175C4.94706 2.05468 5.833 1.65429 6.68515 1.65429C7.41405 1.65429 8.06151 1.90449 8.12558 2.48046C8.17362 2.57636 8.19589 2.69706 8.16835 2.82773L7.63202 5.49843C7.56991 5.84179 7.38359 6.0539 7.00214 6.17812L5.45585 6.68085C4.53574 6.98613 4.15078 7.38534 3.99023 8.2078C3.85175 8.93769 3.74785 10.073 3.74785 11.4187C3.74785 12.7627 3.85175 13.8998 3.99023 14.6297C4.15078 15.4441 4.53574 15.8416 5.45585 16.1469L7.00214 16.6576C7.38359 16.7836 7.56991 16.9957 7.63202 17.3293L8.16835 20.0098C8.19589 20.1387 8.17362 20.2611 8.12558 20.3553C8.06151 20.933 7.41405 21.1814 6.68515 21.1814C5.833 21.1814 4.94706 20.7828 4.27597 20.1357C2.57206 18.4834 1.65214 15.1439 1.65214 11.4187Z" fill="white" fill-opacity="0.85"/>
  <path d="M14.1644 16.2236C14.3994 16.2236 14.598 16.1367 14.7523 15.9842L18.6623 12.084C18.8723 11.874 18.9812 11.6392 18.9812 11.4187C18.9812 11.1965 18.8723 10.9555 18.6623 10.7437L14.7523 6.85331C14.598 6.69902 14.3994 6.61386 14.1644 6.61386C13.715 6.61386 13.3844 6.93476 13.3844 7.39042C13.3844 7.62987 13.4703 7.83905 13.6228 7.99159L14.6131 8.99335L17.4045 11.4187L14.6131 13.8441L13.6228 14.8379C13.4703 14.9904 13.3844 15.2076 13.3844 15.4391C13.3844 15.9027 13.715 16.2236 14.1644 16.2236ZM8.74823 11.4187C8.74823 11.8539 9.07792 12.2351 9.57538 12.2351L14.7601 12.2351L16.9275 12.1295C17.3183 12.1082 17.6463 11.8096 17.6463 11.4187C17.6463 11.0279 17.3183 10.7195 16.9275 10.7L14.7601 10.5926L9.57538 10.5926C9.07792 10.5926 8.74823 10.9818 8.74823 11.4187Z" fill="white" fill-opacity="0.85"/>
 </g>
</svg>
