<?xml version="1.0" encoding="UTF-8"?>
<!--Generator: Apple Native CoreSVG 341-->
<!DOCTYPE svg
PUBLIC "-//W3C//DTD SVG 1.1//EN"
       "http://www.w3.org/Graphics/SVG/1.1/DTD/svg11.dtd">
<svg version="1.1" xmlns="http://www.w3.org/2000/svg" xmlns:xlink="http://www.w3.org/1999/xlink" viewBox="0 0 22.2363 21.8605">
 <g>
  <rect height="21.8605" opacity="0" width="22.2363" x="0" y="0"/>
  <path d="M21.875 5.83047L21.875 13.4041C21.875 16.3023 20.2281 17.983 17.2898 17.983L10.8412 17.983L7.26835 21.2162C6.78124 21.6652 6.46991 21.8605 6.0662 21.8605C5.47792 21.8605 5.1373 21.4426 5.1373 20.8002L5.1373 17.983L4.52363 17.983C1.6873 17.983 0 16.3103 0 13.4041L0 5.83047C0 2.92422 1.64687 1.24356 4.58515 1.24356L17.2898 1.24356C20.2281 1.24356 21.875 2.93223 21.875 5.83047ZM6.4455 5.00625C5.983 5.44394 5.74062 6.07246 5.74062 6.76933C5.74062 8.35488 6.96308 10.2857 8.59921 11.9219C10.2336 13.558 12.2035 14.8115 13.7828 14.8115C14.5285 14.8115 15.165 14.5168 15.5867 14.0463C16.0146 13.5855 16.1521 13.2465 16.1521 12.9375C16.1521 12.7076 16.0057 12.4945 15.6283 12.2309L14.2754 11.2508C13.9336 11.0049 13.7853 10.9676 13.5768 10.9676C13.4107 10.9676 13.2643 10.9951 12.9713 11.1611L12.0826 11.6494C11.9867 11.7 11.9264 11.7258 11.8545 11.7258C11.7488 11.7258 11.6822 11.6902 11.5713 11.6459C11.1451 11.4523 10.5557 10.9836 10.0185 10.4562C9.50546 9.93515 9.08906 9.39179 8.87245 8.97461C8.84941 8.90449 8.80234 8.81836 8.80234 8.72246C8.80234 8.66211 8.84765 8.59023 8.89023 8.52011L9.40605 7.62519C9.55878 7.37929 9.5996 7.25058 9.5996 7.05527C9.5996 6.83242 9.53476 6.60605 9.30663 6.30332L8.37363 4.99746C8.11171 4.62812 7.89433 4.40703 7.59785 4.40703C7.22851 4.40703 6.77753 4.69023 6.4455 5.00625Z" fill="white" fill-opacity="0.85"/>
 </g>
</svg>
