<?xml version="1.0" encoding="UTF-8"?>
<!--Generator: Apple Native CoreSVG 341-->
<!DOCTYPE svg
PUBLIC "-//W3C//DTD SVG 1.1//EN"
       "http://www.w3.org/Graphics/SVG/1.1/DTD/svg11.dtd">
<svg version="1.1" xmlns="http://www.w3.org/2000/svg" xmlns:xlink="http://www.w3.org/1999/xlink" viewBox="0 0 20.5381 20.1848">
 <g>
  <rect height="20.1848" opacity="0" width="20.5381" x="0" y="0"/>
  <path d="M20.1767 10.0973C20.1767 15.6656 15.6576 20.1848 10.0875 20.1848C4.52715 20.1848 0 15.6656 0 10.0973C0 4.53691 4.52715 0.00976562 10.0875 0.00976562C15.6576 0.00976562 20.1767 4.53691 20.1767 10.0973ZM4.94062 6.14902C4.47812 6.58047 4.23574 7.20898 4.23574 7.91035C4.23574 9.49941 5.4582 11.4205 7.09433 13.0664C8.7287 14.7008 10.6986 15.9543 12.2779 15.9543C13.0219 15.9543 13.6601 15.6613 14.0818 15.1891C14.508 14.7221 14.6473 14.383 14.6473 14.0723C14.6473 13.8441 14.5008 13.6275 14.1234 13.3736L12.7687 12.3936C12.4287 12.1494 12.2787 12.1103 12.0719 12.1103C11.9059 12.1103 11.7674 12.1316 11.4664 12.3039L10.576 12.8002C10.4801 12.8508 10.4295 12.8623 10.3496 12.8623C10.2439 12.8623 10.1773 12.8393 10.0664 12.7984C9.64023 12.5889 9.04902 12.1184 8.51366 11.6008C8.00058 11.0717 7.58417 10.5346 7.36757 10.1094C7.34452 10.049 7.29745 9.96289 7.29745 9.875C7.29745 9.79687 7.34277 9.73476 7.38534 9.65664L7.89941 8.76621C8.0539 8.51582 8.09472 8.38711 8.09472 8.19004C8.09472 7.97695 8.02812 7.74082 7.80175 7.44609L6.86874 6.14023C6.60507 5.76289 6.39745 5.54355 6.09296 5.54355C5.72363 5.54355 5.27265 5.83476 4.94062 6.14902ZM10.7049 4.79511C10.3676 4.79511 10.19 4.98867 10.19 5.27617L10.19 8.98613C10.19 9.29296 10.3641 9.48827 10.7049 9.48827L11.2994 9.48827C11.643 9.48827 11.8107 9.29296 11.8107 8.98613L11.8107 5.27617C11.8107 4.99042 11.643 4.79511 11.2994 4.79511ZM13.3443 4.79511C12.9928 4.79511 12.825 4.98867 12.825 5.27617L12.825 8.98613C12.825 9.29296 12.9893 9.48827 13.3443 9.48827L13.9309 9.48827C14.2682 9.48827 14.4439 9.29296 14.4439 8.98613L14.4439 5.27617C14.4439 4.99042 14.2682 4.79511 13.9309 4.79511Z" fill="white" fill-opacity="0.85"/>
 </g>
</svg>
