<?xml version="1.0" encoding="UTF-8"?>
<!--Generator: Apple Native CoreSVG 341-->
<!DOCTYPE svg
PUBLIC "-//W3C//DTD SVG 1.1//EN"
       "http://www.w3.org/Graphics/SVG/1.1/DTD/svg11.dtd">
<svg version="1.1" xmlns="http://www.w3.org/2000/svg" xmlns:xlink="http://www.w3.org/1999/xlink" viewBox="0 0 18.7644 22.7347">
 <g>
  <rect height="22.7347" opacity="0" width="18.7644" x="0" y="0"/>
  <path d="M0 11.3625C0 14.959 0.729295 19.2816 2.89726 21.4015C3.73867 22.2349 4.79843 22.725 6.08222 22.725C7.07558 22.725 8.38769 22.4101 8.46777 21.2994C8.53183 21.0267 8.50253 20.7603 8.44745 20.4264L7.96542 17.5156C7.79941 16.5019 7.42128 16.0244 6.44492 15.7555L4.70156 15.2717C4.35976 15.1758 4.22226 15.0605 4.07304 14.6564C3.78808 13.8506 3.62832 12.5703 3.62656 11.3625C3.62832 10.1529 3.78808 8.87441 4.07304 8.06855C4.22226 7.66269 4.35976 7.54921 4.70156 7.45331L6.44492 6.96953C7.42128 6.69082 7.79941 6.22128 7.96542 5.20937L8.44745 2.29863C8.50253 1.96289 8.53183 1.69648 8.46777 1.42558C8.38769 0.306835 7.07558 0 6.08222 0C4.79843 0 3.73867 0.490039 2.89726 1.31543C0.729295 3.4416 0 7.76601 0 11.3625Z" fill="white" fill-opacity="0.85"/>
  <path d="M13.3342 16.1674C13.5691 16.1674 13.7678 16.0805 13.9221 15.9279L17.832 12.0277C18.042 11.8178 18.151 11.583 18.151 11.3625C18.151 11.1402 18.042 10.8992 17.832 10.6875L13.9221 6.79706C13.7678 6.64277 13.5691 6.55761 13.3342 6.55761C12.8848 6.55761 12.5541 6.87851 12.5541 7.33417C12.5541 7.57362 12.64 7.7828 12.7926 7.93534L13.781 8.9371L16.5742 11.3625L13.781 13.7879L12.7926 14.7816C12.64 14.9342 12.5541 15.1514 12.5541 15.3828C12.5541 15.8465 12.8848 16.1674 13.3342 16.1674ZM7.91796 11.3625C7.91796 11.7976 8.24765 12.1789 8.7451 12.1789L13.9299 12.1789L16.0973 12.0732C16.4881 12.0519 16.816 11.7533 16.816 11.3625C16.816 10.9717 16.4881 10.6633 16.0973 10.6437L13.9299 10.5363L8.7451 10.5363C8.24765 10.5363 7.91796 10.9256 7.91796 11.3625Z" fill="white" fill-opacity="0.85"/>
 </g>
</svg>
