<?xml version="1.0" encoding="UTF-8"?>
<!--Generator: Apple Native CoreSVG 341-->
<!DOCTYPE svg
PUBLIC "-//W3C//DTD SVG 1.1//EN"
       "http://www.w3.org/Graphics/SVG/1.1/DTD/svg11.dtd">
<svg version="1.1" xmlns="http://www.w3.org/2000/svg" xmlns:xlink="http://www.w3.org/1999/xlink" viewBox="0 0 19.7889 21.3609">
 <g>
  <rect height="21.3609" opacity="0" width="19.7889" x="0" y="0"/>
  <path d="M14.4363 20.3642C16.1426 20.3642 17.2973 19.8754 18.3346 18.7385C18.4109 18.6541 18.4793 18.5795 18.5459 18.4933C19.1178 17.8558 19.4115 17.1894 19.4115 16.5752C19.4115 15.8457 19.0234 15.1586 18.1508 14.5594L15.6486 12.8393C14.8387 12.2893 14.1529 12.2617 13.2137 12.7215L11.743 13.4496C11.4264 13.6074 11.1549 13.6373 10.8172 13.4053C10.3699 13.1019 9.34745 12.2715 8.64394 11.56C7.966 10.874 7.2662 10.031 6.92636 9.46737C6.77479 9.21815 6.79257 8.98866 6.97968 8.68105L7.83046 7.30937C8.23417 6.64238 8.31972 5.82636 7.82694 5.13203L5.80996 2.24258C5.22031 1.40156 4.52636 1.00117 3.80136 0.993163C3.18183 0.985155 2.533 1.26133 1.88574 1.83145C1.81113 1.89629 1.725 1.97266 1.6539 2.04199C0.499412 3.08886 0 4.23125 0 6.03671C0 8.87538 1.65899 12.2898 4.88867 15.4922C8.11035 18.6883 11.4939 20.3642 14.4363 20.3642ZM14.432 18.7516C11.9435 18.7916 8.80819 17.0146 6.11367 14.3439C3.40938 11.6572 1.58671 8.43378 1.62675 5.97773C1.64453 4.88593 2.01913 3.97675 2.76601 3.32577C2.83164 3.26992 2.89902 3.21581 2.96464 3.16171C3.24179 2.92714 3.54472 2.80097 3.80761 2.80097C4.09707 2.80097 4.34648 2.91191 4.54179 3.20663L6.26445 5.78007C6.44629 6.04706 6.43476 6.29179 6.22441 6.64765L5.28046 8.20839C4.86835 8.88945 4.91386 9.45546 5.35507 10.0607C5.91172 10.832 6.74297 11.8773 7.54941 12.6723C8.41815 13.5322 9.61796 14.5359 10.2557 14.973C10.8725 15.3992 11.4473 15.4916 12.3193 15.0574L13.8695 14.3096C14.2723 14.1207 14.5916 14.1291 14.934 14.3455L17.1787 15.8435C17.4707 16.0326 17.5844 16.2883 17.5844 16.5742C17.5844 16.8371 17.46 17.1418 17.2236 17.4207C17.1615 17.4863 17.1154 17.5537 17.0516 17.6193C16.4086 18.3662 15.4914 18.7355 14.432 18.7516Z" fill="white" fill-opacity="0.85"/>
  <path d="M12.1146 8.2039L13.1846 8.2039C13.7222 8.2039 13.9724 7.91815 13.9724 7.43964L13.9724 0.727341C13.9724 0.292773 13.7222 0 13.1846 0L12.1146 0C11.5849 0 11.3312 0.287499 11.3312 0.727341L11.3312 7.43964C11.3312 7.91815 11.5797 8.2039 12.1146 8.2039ZM16.8939 8.2039L17.9638 8.2039C18.4855 8.2039 18.7392 7.91815 18.7392 7.43964L18.7392 0.727341C18.7392 0.292773 18.4855 0 17.9638 0L16.8939 0C16.3642 0 16.1043 0.287499 16.1043 0.727341L16.1043 7.43964C16.1043 7.91815 16.3607 8.2039 16.8939 8.2039Z" fill="white" fill-opacity="0.85"/>
 </g>
</svg>
