<?xml version="1.0" encoding="UTF-8"?>
<!--Generator: Apple Native CoreSVG 341-->
<!DOCTYPE svg
PUBLIC "-//W3C//DTD SVG 1.1//EN"
       "http://www.w3.org/Graphics/SVG/1.1/DTD/svg11.dtd">
<svg version="1.1" xmlns="http://www.w3.org/2000/svg" xmlns:xlink="http://www.w3.org/1999/xlink" viewBox="0 0 19.7889 19.3749">
 <g>
  <rect height="19.3749" opacity="0" width="19.7889" x="0" y="0"/>
  <path d="M14.4363 19.3713C16.1426 19.3713 17.299 18.8824 18.3363 17.7455C18.4109 17.6611 18.4793 17.5865 18.5476 17.5004C19.1178 16.8629 19.4115 16.1964 19.4115 15.5822C19.4115 14.8527 19.0234 14.1656 18.1508 13.5664L15.6486 11.8463C14.8387 11.2963 14.1529 11.2687 13.2154 11.7285L11.743 12.4566C11.4264 12.6144 11.1549 12.6443 10.8172 12.4123C10.3699 12.109 9.34745 11.2785 8.64394 10.567C7.966 9.88102 7.26796 9.03805 6.92636 8.47438C6.77479 8.22516 6.79433 7.99567 6.97968 7.68805L7.83046 6.31638C8.23417 5.64939 8.32147 4.83337 7.8287 4.13903L5.80996 1.24958C5.22206 0.408568 4.52636 0.0081771 3.80312 0.000169213C3.18183-0.00783867 2.53476 0.268333 1.88574 0.838451C1.81113 0.903295 1.725 0.979662 1.65566 1.049C0.50117 2.09587 0 3.23825 0 5.04372C0 7.88239 1.65899 11.2968 4.88867 14.4992C8.11035 17.6953 11.4957 19.3713 14.4363 19.3713ZM14.432 17.7586C11.9435 17.7986 8.80995 16.0216 6.11367 13.3509C3.40938 10.6642 1.58671 7.44079 1.62851 4.98473C1.64453 3.89294 2.02089 2.98376 2.76601 2.33278C2.83164 2.27692 2.90078 2.22282 2.9664 2.16872C3.24179 1.93415 3.54648 1.80798 3.80937 1.80798C4.09882 1.80798 4.34648 1.91891 4.54355 2.21364L6.26445 4.78708C6.44629 5.05407 6.43476 5.2988 6.22441 5.65466L5.28222 7.2154C4.86835 7.89645 4.91386 8.46247 5.35507 9.06774C5.91172 9.83903 6.74297 10.8843 7.54941 11.6793C8.41991 12.5392 9.61796 13.5429 10.2557 13.98C10.8742 14.4062 11.4473 14.4986 12.3193 14.0644L13.8695 13.3166C14.274 13.1277 14.5916 13.1361 14.934 13.3525L17.1805 14.8506C17.4707 15.0396 17.5861 15.2953 17.5861 15.5812C17.5861 15.8441 17.4617 16.1488 17.2236 16.4277C17.1615 16.4933 17.1154 16.5607 17.0516 16.6263C16.4086 17.3732 15.4914 17.7425 14.432 17.7586Z" fill="white" fill-opacity="0.85"/>
  <path d="M17.9813 1.61539L17.6809 5.32985L17.6729 6.73747C17.6809 7.17809 18.023 7.51324 18.4707 7.53102C18.9184 7.54703 19.3006 7.19586 19.3006 6.74098L19.3006 1.22457C19.2926 0.595473 18.9631 0.257976 18.334 0.257976L12.7822 0.257976C12.3273 0.257976 11.9762 0.633951 12.002 1.09762C12.018 1.54527 12.3451 1.87945 12.7857 1.87144L14.2314 1.87945ZM18.3625 2.23668C18.623 1.94683 18.6328 1.49742 18.3625 1.21735C18.0842 0.939028 17.6285 0.950551 17.3352 1.21735L15.3178 3.06969L11.3646 7.03884C11.1873 7.21794 11.0889 7.42712 11.0889 7.6656C11.0969 8.10798 11.4551 8.45465 11.9338 8.44665C12.1607 8.45465 12.3584 8.37223 12.526 8.20641L16.4853 4.25054Z" fill="white" fill-opacity="0.85"/>
 </g>
</svg>
