<?xml version="1.0" encoding="UTF-8"?>
<!--Generator: Apple Native CoreSVG 341-->
<!DOCTYPE svg
PUBLIC "-//W3C//DTD SVG 1.1//EN"
       "http://www.w3.org/Graphics/SVG/1.1/DTD/svg11.dtd">
<svg version="1.1" xmlns="http://www.w3.org/2000/svg" xmlns:xlink="http://www.w3.org/1999/xlink" viewBox="0 0 18.8914 18.5418">
 <g>
  <rect height="18.5418" opacity="0" width="18.8914" x="0" y="0"/>
  <path d="M5.08437 13.3793C8.00292 16.3058 11.4967 18.5303 14.3096 18.5303C15.6312 18.5303 16.7834 18.0039 17.5379 17.1615C18.2613 16.3484 18.5301 15.7316 18.5301 15.1955C18.5301 14.7748 18.2709 14.3904 17.6176 13.9324L15.1943 12.1935C14.5898 11.7666 14.3191 11.6885 13.9623 11.6885C13.6543 11.6885 13.3969 11.7471 12.8785 12.0275L11.3002 12.8939C11.1094 13.0031 11.0277 13.0226 10.8892 13.0226C10.7002 13.0226 10.575 12.9738 10.3842 12.8922C9.62792 12.5451 8.56894 11.7143 7.62538 10.7725C6.68359 9.8289 5.95742 8.87636 5.57402 8.11933C5.52343 8.01992 5.46484 7.86542 5.46484 7.7039C5.46484 7.57519 5.52968 7.46074 5.60957 7.32226L6.53457 5.73066C6.79023 5.2957 6.86386 5.05605 6.86386 4.71699C6.86386 4.33261 6.73515 3.91543 6.36503 3.38906L4.69629 1.06523C4.2205 0.398633 3.84258 0 3.30644 0C2.64336 0 1.83828 0.508593 1.26133 1.06426C0.436718 1.85957 0 2.97265 0 4.22246C0 7.05136 2.17558 10.4785 5.08437 13.3793Z" fill="white" fill-opacity="0.85"/>
  <path d="M17.4283 1.64511L17.1279 5.35956L17.1199 6.76718C17.1279 7.2078 17.4701 7.54472 17.9178 7.56073C18.3654 7.57675 18.7476 7.22734 18.7476 6.77246L18.7476 1.25429C18.7396 0.625189 18.4182 0.287692 17.7811 0.287692L12.2373 0.287692C11.7824 0.287692 11.4232 0.663667 11.449 1.12734C11.465 1.57499 11.8002 1.90917 12.2408 1.90116L13.6785 1.90917ZM17.8096 2.26815C18.0781 1.97655 18.0879 1.5289 17.8096 1.24706C17.5312 0.968744 17.0756 0.982025 16.7822 1.24706L14.7648 3.09941L10.8117 7.07032C10.6344 7.24766 10.5359 7.45684 10.5359 7.69707C10.5439 8.13945 10.9021 8.48437 11.3808 8.47636C11.606 8.48437 11.8055 8.40371 11.973 8.23789L15.9404 4.28026Z" fill="white" fill-opacity="0.85"/>
 </g>
</svg>
