<?xml version="1.0" encoding="UTF-8"?>
<!--Generator: Apple Native CoreSVG 341-->
<!DOCTYPE svg
PUBLIC "-//W3C//DTD SVG 1.1//EN"
       "http://www.w3.org/Graphics/SVG/1.1/DTD/svg11.dtd">
<svg version="1.1" xmlns="http://www.w3.org/2000/svg" xmlns:xlink="http://www.w3.org/1999/xlink" viewBox="0 0 20.5381 20.1848">
 <g>
  <rect height="20.1848" opacity="0" width="20.5381" x="0" y="0"/>
  <path d="M20.1767 10.0875C20.1767 15.6478 15.6576 20.175 10.0875 20.175C4.52715 20.175 0 15.6478 0 10.0875C0 4.51914 4.52715 0 10.0875 0C15.6576 0 20.1767 4.51914 20.1767 10.0875ZM4.68397 5.42499C4.40878 5.42499 4.22597 5.62655 4.22597 5.90702L4.22597 14.2795C4.22597 14.568 4.40878 14.7615 4.68397 14.7615L15.4928 14.7615C15.768 14.7615 15.9588 14.568 15.9588 14.2795L15.9588 5.90702C15.9588 5.62655 15.768 5.42499 15.4928 5.42499ZM15.0453 6.45214L15.0453 13.7361C15.0453 13.824 15.032 13.8373 14.9397 13.8373L5.2371 13.8373C5.15272 13.8373 5.12967 13.824 5.12967 13.7361L5.12967 6.45214C5.12967 6.37225 5.15272 6.35722 5.2371 6.35722L14.9397 6.35722C15.032 6.35722 15.0453 6.37225 15.0453 6.45214ZM6.0412 6.93358C5.8412 6.93358 5.71053 7.06073 5.71053 7.25273L5.71053 12.9338C5.71053 13.1355 5.8412 13.2609 6.0412 13.2609L14.1338 13.2609C14.3436 13.2609 14.4662 13.1355 14.4662 12.9338L14.4662 7.25273C14.4662 7.06073 14.3436 6.93358 14.1338 6.93358ZM13.8242 7.61464L13.8242 11.7787L11.8949 9.97285C11.7297 9.82538 11.5174 9.74277 11.3131 9.74277C11.0865 9.74277 10.8902 9.80761 10.717 9.95683L9.09257 11.4268L8.44687 10.8441C8.28788 10.7012 8.09335 10.6221 7.90683 10.6221C7.7203 10.6221 7.56034 10.7047 7.40136 10.8361L6.35253 11.7883L6.35253 7.61464C6.35253 7.56581 6.36405 7.56229 6.38534 7.56229L13.7914 7.56229C13.827 7.56229 13.8242 7.56581 13.8242 7.61464ZM7.58749 9.20273C7.58749 9.7205 8.00936 10.1424 8.53515 10.1424C9.05565 10.1424 9.48105 9.7205 9.48105 9.20273C9.48105 8.68222 9.05565 8.25858 8.53515 8.25858C8.00936 8.25858 7.58749 8.68222 7.58749 9.20273Z" fill="white" fill-opacity="0.85"/>
 </g>
</svg>
