<?xml version="1.0" encoding="UTF-8"?>
<!--Generator: Apple Native CoreSVG 341-->
<!DOCTYPE svg
PUBLIC "-//W3C//DTD SVG 1.1//EN"
       "http://www.w3.org/Graphics/SVG/1.1/DTD/svg11.dtd">
<svg version="1.1" xmlns="http://www.w3.org/2000/svg" xmlns:xlink="http://www.w3.org/1999/xlink" viewBox="0 0 23.4906 18.2316">
 <g>
  <rect height="18.2316" opacity="0" width="23.4906" x="0" y="0"/>
  <path d="M3.42694 17.4109L19.2598 17.4109C21.2189 17.4109 22.1955 16.4 22.1129 14.5092L16.3279 9.08105C15.8982 8.68242 15.3824 8.48086 14.8603 8.48086C14.325 8.48086 13.8447 8.66464 13.399 9.06328L8.98847 13.0051L7.1871 11.3795C6.77695 11.0102 6.32597 10.8246 5.86874 10.8246C5.41699 10.8246 5.01289 11.0004 4.61074 11.3697L0.925189 14.6728C0.973236 16.4721 1.81015 17.4109 3.42694 17.4109ZM3.20351 18.2316L19.9258 18.2316C22.0416 18.2316 23.1293 17.1519 23.1293 15.0682L23.1293 3.17499C23.1293 1.08945 22.0416 0.00351548 19.9258 0.00351548L3.20351 0.00351548C1.0957 0.00351548 0 1.08945 0 3.17499L0 15.0682C0 17.1519 1.0957 18.2316 3.20351 18.2316ZM3.31444 16.3184C2.40643 16.3184 1.91327 15.8482 1.91327 14.8994L1.91327 3.34198C1.91327 2.39315 2.40643 1.91678 3.31444 1.91678L19.8148 1.91678C20.7149 1.91678 21.216 2.39315 21.216 3.34198L21.216 14.8994C21.216 15.8482 20.7149 16.3184 19.8148 16.3184Z" fill="white" fill-opacity="0.85"/>
  <path d="M7.56542 9.29472C8.84452 9.29472 9.89901 8.24023 9.89901 6.9496C9.89901 5.6705 8.84452 4.60624 7.56542 4.60624C6.27479 4.60624 5.2203 5.6705 5.2203 6.9496C5.2203 8.24023 6.27479 9.29472 7.56542 9.29472Z" fill="white" fill-opacity="0.85"/>
 </g>
</svg>
