<?xml version="1.0" encoding="UTF-8"?>
<!--Generator: Apple Native CoreSVG 341-->
<!DOCTYPE svg
PUBLIC "-//W3C//DTD SVG 1.1//EN"
       "http://www.w3.org/Graphics/SVG/1.1/DTD/svg11.dtd">
<svg version="1.1" xmlns="http://www.w3.org/2000/svg" xmlns:xlink="http://www.w3.org/1999/xlink" viewBox="0 0 27.7863 23.1086">
 <g>
  <rect height="23.1086" opacity="0" width="27.7863" x="0" y="0"/>
  <path d="M20.5859 3.35448L20.8129 4.64101L9.82596 4.64101C6.92499 4.64101 5.20117 6.35683 5.20117 9.23202L5.20117 18.5078C5.20117 18.5199 5.2012 18.5319 5.20251 18.5431C3.86553 18.4036 3.04354 17.5171 2.76796 15.9182L1.14609 6.78085C0.790231 4.72812 1.67831 3.47187 3.75683 3.1L16.881 0.7873C18.9596 0.423434 20.2221 1.30175 20.5859 3.35448Z" fill="white" fill-opacity="0.85"/>
  <path d="M13.4144 14.0646C12.2824 14.0646 11.3519 13.1279 11.3519 11.9959C11.3519 10.8719 12.2824 9.92713 13.4144 9.92713C14.5447 9.92713 15.4734 10.8719 15.4734 11.9959C15.4734 13.1279 14.5447 14.0646 13.4144 14.0646ZM9.61756 19.9394C8.82342 19.9394 8.33025 19.4533 8.33025 18.6521L8.33025 18.1617L10.7062 16.0185C11.0615 15.7006 11.4388 15.5496 11.8127 15.5496C12.2283 15.5496 12.6297 15.7086 12.9769 16.0283L14.5301 17.4287L18.3849 13.9982C18.7891 13.6492 19.2037 13.4965 19.6807 13.4965C20.1469 13.4965 20.582 13.6652 20.9603 14.0062L24.659 17.4492L24.659 18.6601C24.659 19.4613 24.1578 19.9394 23.3877 19.9394ZM9.82596 21.6793L23.1553 21.6793C25.2631 21.6793 26.3588 20.5933 26.3588 18.5078L26.3588 9.23202C26.3588 7.14823 25.2631 6.06054 23.1553 6.06054L9.82596 6.06054C7.71639 6.06054 6.62245 7.14823 6.62245 9.23202L6.62245 18.5078C6.62245 20.6013 7.71639 21.6793 9.82596 21.6793Z" fill="white" fill-opacity="0.85"/>
 </g>
</svg>
