<?xml version="1.0" encoding="UTF-8"?>
<!--Generator: Apple Native CoreSVG 341-->
<!DOCTYPE svg
PUBLIC "-//W3C//DTD SVG 1.1//EN"
       "http://www.w3.org/Graphics/SVG/1.1/DTD/svg11.dtd">
<svg version="1.1" xmlns="http://www.w3.org/2000/svg" xmlns:xlink="http://www.w3.org/1999/xlink" viewBox="0 0 25.6453 21.6943">
 <g>
  <rect height="21.6943" opacity="0" width="25.6453" x="0" y="0"/>
  <path d="M19.5097 2.64734L19.9876 5.35339L18.0472 5.35339L17.6566 3.13952C17.4913 2.20846 16.9111 1.83873 16.0288 1.98444L3.13096 4.25573C2.23096 4.4192 1.82666 4.96667 1.99014 5.90925L3.54659 14.7206C3.71006 15.6516 4.28409 16.0294 5.17433 15.8757L5.55421 15.8088L5.55421 17.7522L5.39659 17.7799C3.31007 18.1438 2.04757 17.2655 1.69172 15.211L0.0796068 6.0737C-0.28426 4.02097 0.602066 2.76472 2.68058 2.39285L15.8128 0.0801534C17.8833-0.283713 19.1538 0.594605 19.5097 2.64734Z" fill="white" fill-opacity="0.85"/>
  <path d="M12.7411 13.088C13.8714 13.088 14.7921 12.1512 14.7921 11.0174C14.7921 9.90318 13.8714 8.96647 12.7411 8.96647C11.6073 8.96647 10.6946 9.90318 10.6946 11.0174C10.6946 12.1512 11.6073 13.088 12.7411 13.088ZM8.99092 20.2507L21.7655 20.2507C23.4569 20.2507 24.3273 19.4018 24.3273 17.6893L24.3273 17.1399L19.8023 12.8801C19.4337 12.5409 18.9825 12.3704 18.5146 12.3704C18.0536 12.3704 17.631 12.5231 17.2366 12.8721L13.388 16.2803L11.8606 14.896C11.4956 14.5665 11.112 14.4155 10.7044 14.4155C10.3306 14.4155 9.96123 14.5665 9.60596 14.8764L6.4292 17.6639C6.4292 19.4036 7.29697 20.2507 8.99092 20.2507ZM8.75147 20.9721L22.087 20.9721C24.1886 20.9721 25.2843 19.8862 25.2843 17.8006L25.2843 8.52487C25.2843 6.44108 24.1886 5.35339 22.087 5.35339L8.75147 5.35339C6.6419 5.35339 5.55421 6.44108 5.55421 8.52487L5.55421 17.8006C5.55421 19.8942 6.6419 20.9721 8.75147 20.9721ZM8.87041 19.0589C7.96064 19.0589 7.46748 18.5905 7.46748 17.6417L7.46748 8.69362C7.46748 7.74303 7.96064 7.26666 8.87041 7.26666L21.9681 7.26666C22.8681 7.26666 23.3693 7.74303 23.3693 8.69362L23.3693 17.6417C23.3693 18.5905 22.8681 19.0589 21.9681 19.0589Z" fill="white" fill-opacity="0.85"/>
 </g>
</svg>
