<?xml version="1.0" encoding="UTF-8"?>
<!--Generator: Apple Native CoreSVG 341-->
<!DOCTYPE svg
PUBLIC "-//W3C//DTD SVG 1.1//EN"
       "http://www.w3.org/Graphics/SVG/1.1/DTD/svg11.dtd">
<svg version="1.1" xmlns="http://www.w3.org/2000/svg" xmlns:xlink="http://www.w3.org/1999/xlink" viewBox="0 0 27.1668 23.1086">
 <g>
  <rect height="23.1086" opacity="0" width="27.1668" x="0" y="0"/>
  <path d="M20.8043 4.58925L20.8043 4.64101L9.20643 4.64101C6.30546 4.64101 4.58164 6.35683 4.58164 9.23202L4.58164 17.0383L4.27148 17.0383C2.16191 17.0383 1.06621 15.9586 1.06621 13.8668L1.06621 4.58925C1.06621 2.50546 2.16191 1.41777 4.27148 1.41777L17.599 1.41777C19.7086 1.41777 20.8043 2.50546 20.8043 4.58925Z" fill="white" fill-opacity="0.85"/>
  <path d="M12.7949 14.0646C11.6611 14.0646 10.7324 13.1279 10.7324 11.9959C10.7324 10.8719 11.6611 9.92713 12.7949 9.92713C13.9252 9.92713 14.8539 10.8719 14.8539 11.9959C14.8539 13.1279 13.9252 14.0646 12.7949 14.0646ZM8.99803 19.9394C8.20388 19.9394 7.71072 19.4533 7.71072 18.6521L7.71072 18.1617L10.0867 16.0185C10.442 15.7006 10.8193 15.5496 11.1931 15.5496C11.6088 15.5496 12.0084 15.7086 12.3574 16.0283L13.9105 17.4287L17.7654 13.9982C18.1695 13.6492 18.5842 13.4965 19.0611 13.4965C19.5273 13.4965 19.9625 13.6652 20.3408 14.0062L24.0394 17.4492L24.0394 18.6601C24.0394 19.4613 23.5383 19.9394 22.7682 19.9394ZM9.20643 21.6793L22.5357 21.6793C24.6435 21.6793 25.7392 20.5933 25.7392 18.5078L25.7392 9.23202C25.7392 7.14823 24.6435 6.06054 22.5357 6.06054L9.20643 6.06054C7.09686 6.06054 6.00292 7.14823 6.00292 9.23202L6.00292 18.5078C6.00292 20.6013 7.09686 21.6793 9.20643 21.6793Z" fill="white" fill-opacity="0.85"/>
 </g>
</svg>
