<?xml version="1.0" encoding="UTF-8"?>
<!--Generator: Apple Native CoreSVG 341-->
<!DOCTYPE svg
PUBLIC "-//W3C//DTD SVG 1.1//EN"
       "http://www.w3.org/Graphics/SVG/1.1/DTD/svg11.dtd">
<svg version="1.1" xmlns="http://www.w3.org/2000/svg" xmlns:xlink="http://www.w3.org/1999/xlink" viewBox="0 0 18.5894 18.2316">
 <g>
  <rect height="18.2316" opacity="0" width="18.5894" x="0" y="0"/>
  <path d="M3.20351 18.2281L15.0246 18.2281C17.1404 18.2281 18.2281 17.1502 18.2281 15.0646L18.2281 3.17148C18.2281 1.08769 17.1404 0 15.0246 0L3.20351 0C1.0957 0 0 1.08769 0 3.17148L0 15.0646C0 17.1502 1.0957 18.2281 3.20351 18.2281ZM3.31444 16.3148C2.40643 16.3148 1.91327 15.8465 1.91327 14.8977L1.91327 3.34023C1.91327 2.39139 2.40643 1.91503 3.31444 1.91503L14.9137 1.91503C15.8137 1.91503 16.3148 2.39139 16.3148 3.34023L16.3148 14.8977C16.3148 15.8465 15.8137 16.3148 14.9137 16.3148Z" fill="white" fill-opacity="0.85"/>
  <path d="M6.73378 13.7408C7.21522 13.7408 7.56014 13.4473 7.56014 12.943L7.56014 6.28963L10.6031 6.28963L10.6031 11.5861C10.6031 12.9471 11.2262 13.6814 12.5521 13.6814C13.3894 13.6814 13.8809 13.3879 13.8809 12.8504C13.8809 12.4352 13.6236 12.209 13.1709 12.209C13.0775 12.209 12.9664 12.217 12.8873 12.217C12.4717 12.217 12.2541 11.9861 12.2541 11.4479L12.2541 6.28963L13.4471 6.28963C13.8603 6.28963 14.1777 5.98983 14.1777 5.54393C14.1777 5.08026 13.8684 4.79023 13.4471 4.79023L4.77109 4.79023C4.33828 4.79023 4.0289 5.08026 4.0289 5.54393C4.0289 5.98983 4.34628 6.28963 4.77109 6.28963L5.90742 6.28963L5.90742 12.943C5.90742 13.4473 6.24433 13.7408 6.73378 13.7408Z" fill="white" fill-opacity="0.85"/>
 </g>
</svg>
