<?xml version="1.0" encoding="UTF-8"?>
<!--Generator: Apple Native CoreSVG 341-->
<!DOCTYPE svg
PUBLIC "-//W3C//DTD SVG 1.1//EN"
       "http://www.w3.org/Graphics/SVG/1.1/DTD/svg11.dtd">
<svg version="1.1" xmlns="http://www.w3.org/2000/svg" xmlns:xlink="http://www.w3.org/1999/xlink" viewBox="0 0 20.5381 20.1848">
 <g>
  <rect height="20.1848" opacity="0" width="20.5381" x="0" y="0"/>
  <path d="M20.1767 10.0973C20.1767 15.6656 15.6576 20.1848 10.0875 20.1848C4.52715 20.1848 0 15.6656 0 10.0973C0 4.53691 4.52715 0.00976562 10.0875 0.00976562C15.6576 0.00976562 20.1767 4.53691 20.1767 10.0973ZM5.90605 10.4869C4.71366 11.6828 4.69413 13.2275 5.83319 14.3568C6.97499 15.4844 8.52148 15.4684 9.71288 14.2787L11.6865 12.2935L7.88496 8.49999ZM10.4523 5.92108L8.47871 7.89999L12.2803 11.7096L14.2689 9.72089C15.4693 8.52851 15.4854 6.97851 14.324 5.86249C13.1707 4.72343 11.634 4.71191 10.4523 5.92108Z" fill="white" fill-opacity="0.85"/>
 </g>
</svg>
