<?xml version="1.0" encoding="UTF-8"?>
<!--Generator: Apple Native CoreSVG 341-->
<!DOCTYPE svg
PUBLIC "-//W3C//DTD SVG 1.1//EN"
       "http://www.w3.org/Graphics/SVG/1.1/DTD/svg11.dtd">
<svg version="1.1" xmlns="http://www.w3.org/2000/svg" xmlns:xlink="http://www.w3.org/1999/xlink" viewBox="0 0 23.8678 20.6058">
 <g>
  <rect height="20.6058" opacity="0" width="23.8678" x="0" y="0"/>
  <path d="M23.5068 14.4461C23.1017 11.9498 20.9226 10.0312 18.2995 10.0312C15.6765 10.0312 13.5072 11.9498 13.1021 14.4461ZM23.5068 16.1812L13.1021 16.1812C13.5152 18.6855 15.6765 20.6058 18.2995 20.6058C20.9421 20.6058 23.1034 18.6873 23.5068 16.1812Z" fill="white" fill-opacity="0.85"/>
  <path d="M10.3626 12.1174L4.35892 6.11366L1.43665 9.04218C-0.445767 10.9166-0.471548 13.3791 1.31947 15.1586C3.122 16.9478 5.56419 16.9158 7.4341 15.0476Z" fill="white" fill-opacity="0.85"/>
  <path d="M11.6429 10.8291L14.5634 7.91034C16.4458 6.03593 16.4681 3.57519 14.6788 1.79394C12.8798 0.00292718 10.4341 0.0447243 8.56595 1.91289L5.6472 4.8334Z" fill="white" fill-opacity="0.85"/>
 </g>
</svg>
