<?xml version="1.0" encoding="UTF-8"?>
<!--Generator: Apple Native CoreSVG 341-->
<!DOCTYPE svg
PUBLIC "-//W3C//DTD SVG 1.1//EN"
       "http://www.w3.org/Graphics/SVG/1.1/DTD/svg11.dtd">
<svg version="1.1" xmlns="http://www.w3.org/2000/svg" xmlns:xlink="http://www.w3.org/1999/xlink" viewBox="0 0 20.5381 20.1848">
 <g>
  <rect height="20.1848" opacity="0" width="20.5381" x="0" y="0"/>
  <path d="M10.0875 20.175C15.6576 20.175 20.1767 15.6559 20.1767 10.0875C20.1767 4.51914 15.6576 0 10.0875 0C4.51914 0 0 4.51914 0 10.0875C0 15.6559 4.51914 20.175 10.0875 20.175ZM10.0875 18.1879C5.60839 18.1879 1.9871 14.5666 1.9871 10.0875C1.9871 5.60839 5.60839 1.9871 10.0875 1.9871C14.5666 1.9871 18.1897 5.60839 18.1897 10.0875C18.1897 14.5666 14.5666 18.1879 10.0875 18.1879Z" fill="white" fill-opacity="0.85"/>
  <path d="M9.93222 10.1312L11.4494 8.63007C12.3924 7.70312 12.4021 6.46816 11.4947 5.59003C10.5908 4.68437 9.37539 4.70038 8.44492 5.63886L6.94726 7.13828ZM9.36328 10.7082L6.37031 7.71347L4.85937 9.23418C3.93066 10.1807 3.90663 11.3978 4.79628 12.2937C5.69843 13.1816 6.91562 13.1559 7.84609 12.2254ZM15.6814 11.9533C15.4986 10.6934 14.4012 9.71484 13.0666 9.71484C11.748 9.71484 10.6488 10.6934 10.4598 11.9533ZM15.6814 12.7584L10.4598 12.7584C10.6488 14.0103 11.748 14.9889 13.0666 14.9889C14.4092 14.9889 15.4986 14.0103 15.6814 12.7584Z" fill="white" fill-opacity="0.85"/>
 </g>
</svg>
