<?xml version="1.0" encoding="UTF-8"?>
<!--Generator: Apple Native CoreSVG 341-->
<!DOCTYPE svg
PUBLIC "-//W3C//DTD SVG 1.1//EN"
       "http://www.w3.org/Graphics/SVG/1.1/DTD/svg11.dtd">
<svg version="1.1" xmlns="http://www.w3.org/2000/svg" xmlns:xlink="http://www.w3.org/1999/xlink" viewBox="0 0 24.1333 21.3074">
 <g>
  <rect height="21.3074" opacity="0" width="24.1333" x="0" y="0"/>
  <path d="M18.2521 21.3074C21.3113 21.3074 23.7732 18.842 23.7732 15.7908C23.7732 12.7707 21.2997 10.2955 18.2521 10.2955C15.2222 10.2955 12.747 12.7707 12.747 15.7908C12.747 18.8304 15.2204 21.3074 18.2521 21.3074ZM18.2521 19.3924C16.2697 19.3924 14.6603 17.7767 14.6603 15.7908C14.6603 13.8181 16.2777 12.2105 18.2521 12.2105C20.2425 12.2105 21.8599 13.8181 21.8599 15.7908C21.8599 17.7928 20.254 19.3924 18.2521 19.3924ZM13.7482 16.7445L22.7622 16.7445L22.7622 14.8469L13.7482 14.8469Z" fill="white" fill-opacity="0.85"/>
  <path d="M1.43823 15.6474C3.37378 17.5652 5.91615 17.575 7.82768 15.6652L15.1111 8.38006C17.0173 6.47382 17.0173 3.89511 15.0933 1.98886C13.1658 0.0728518 10.6136 0.071094 8.70386 1.98086L1.42847 9.25801C-0.47778 11.1643-0.47778 13.743 1.43823 15.6474ZM2.81791 14.2678C1.72611 13.1742 1.76341 11.6691 2.90404 10.5285L9.97436 3.45819C11.1185 2.30604 12.6236 2.26873 13.7136 3.3703C14.8134 4.47186 14.7761 5.96718 13.6257 7.11758L6.56519 14.1799C5.41303 15.332 3.91596 15.3693 2.81791 14.2678ZM5.10757 7.03163L10.0621 11.9781L11.4417 10.5967L6.48725 5.6502Z" fill="white" fill-opacity="0.85"/>
 </g>
</svg>
