<?xml version="1.0" encoding="UTF-8"?>
<!--Generator: Apple Native CoreSVG 341-->
<!DOCTYPE svg
PUBLIC "-//W3C//DTD SVG 1.1//EN"
       "http://www.w3.org/Graphics/SVG/1.1/DTD/svg11.dtd">
<svg version="1.1" xmlns="http://www.w3.org/2000/svg" xmlns:xlink="http://www.w3.org/1999/xlink" viewBox="0 0 22.8885 23.689">
 <g>
  <rect height="23.689" opacity="0" width="22.8885" x="0" y="0"/>
  <path d="M7.73 11.4025C6.29443 12.1386 5.41118 13.2723 5.26965 14.3215C5.23586 14.5518 5.32922 14.6664 5.51945 14.6664L10.9975 14.6664L12.6496 16.3168L12.2232 16.3168L12.2232 20.9301C12.2232 22.3082 11.5341 23.689 11.2636 23.689C10.9931 23.689 10.304 22.3082 10.304 20.9301L10.304 16.3168L5.07258 16.3168C4.14621 16.3168 3.54739 15.7312 3.54739 14.8467C3.54739 13.0989 4.70942 11.3673 6.5768 10.2506ZM17.7396 1.63535C17.7396 1.94141 17.6118 2.29629 17.3474 2.63887C16.8431 3.29238 15.6888 4.20508 14.4275 5.0332L14.747 9.65393C17.2993 10.6725 18.97 12.7479 18.97 14.8467C18.97 15.4917 18.6526 15.9777 18.1204 16.1923L16.5937 14.6664L16.9997 14.6664C17.198 14.6664 17.2913 14.5518 17.2575 14.3215C17.0542 12.8143 15.3144 11.1329 12.6251 10.7L10.9271 9.00288C11.0363 8.99101 11.1496 8.98906 11.2636 8.98906C11.8586 8.98906 12.4336 9.04216 12.9808 9.14527L12.6937 4.25254C12.6822 4.08945 12.714 4.01602 12.8282 3.95313C14.164 3.26797 15.1851 2.47773 15.337 2.26484C15.4169 2.15019 15.3493 2.06679 15.2454 2.06679L7.27374 2.06679C7.17784 2.06679 7.10226 2.15019 7.18214 2.26484C7.33409 2.47773 8.3632 3.26797 9.69093 3.95313C9.8132 4.01602 9.84504 4.08945 9.83351 4.25254L9.62649 7.70304L8.01824 6.09566L8.09172 5.0332C6.8384 4.20508 5.6761 3.29238 5.17981 2.63887C4.91536 2.29629 4.78762 1.94141 4.78762 1.63535C4.78762 0.990432 5.27727 0.517582 6.01281 0.517582L16.5144 0.517582C17.2419 0.517582 17.7396 0.990432 17.7396 1.63535Z" fill="white" fill-opacity="0.85"/>
  <path d="M1.42512 3.408L19.2818 21.2451C19.595 21.5486 20.0911 21.5433 20.3814 21.2451C20.6866 20.9398 20.6911 20.4508 20.3814 20.149L2.53625 2.31367C2.23098 2.0084 1.72688 2.00039 1.42512 2.3084C1.13313 2.60215 1.13489 3.10976 1.42512 3.408Z" fill="white" fill-opacity="0.85"/>
 </g>
</svg>
