<?xml version="1.0" encoding="UTF-8"?>
<!--Generator: Apple Native CoreSVG 341-->
<!DOCTYPE svg
PUBLIC "-//W3C//DTD SVG 1.1//EN"
       "http://www.w3.org/Graphics/SVG/1.1/DTD/svg11.dtd">
<svg version="1.1" xmlns="http://www.w3.org/2000/svg" xmlns:xlink="http://www.w3.org/1999/xlink" viewBox="0 0 18.5894 18.2316">
 <g>
  <rect height="18.2316" opacity="0" width="18.5894" x="0" y="0"/>
  <path d="M18.2281 3.17148L18.2281 15.0646C18.2281 17.1502 17.1404 18.2281 15.0246 18.2281L3.20351 18.2281C1.0957 18.2281 0 17.1502 0 15.0646L0 3.17148C0 1.08769 1.0957 0 3.20351 0L15.0246 0C17.1404 0 18.2281 1.08769 18.2281 3.17148ZM6.46659 3.63847C6.09648 3.63847 5.83827 3.87363 5.83827 4.20195C5.83827 4.37148 5.9164 4.5623 6.06288 4.74609C6.32753 5.07558 6.90566 5.53554 7.63183 5.94921L7.47734 8.28261C6.05839 8.79218 5.16386 9.90761 5.16386 10.9721C5.16386 11.4353 5.46914 11.7211 5.93066 11.7211L8.46855 11.7211L8.46855 13.5004C8.46855 14.4975 8.94667 15.4865 9.14804 15.4865C9.34765 15.4865 9.82753 14.4975 9.82753 13.5004L9.82753 11.7211L12.3654 11.7211C12.835 11.7211 13.1322 11.4353 13.1322 10.9721C13.1322 9.90761 12.2377 8.79218 10.8268 8.28261L10.6643 5.94921C11.3984 5.52753 11.9881 5.07109 12.2492 4.73808C12.3779 4.55253 12.4578 4.37148 12.4578 4.20195C12.4578 3.87363 12.1996 3.63847 11.8295 3.63847Z" fill="white" fill-opacity="0.85"/>
 </g>
</svg>
