<?xml version="1.0" encoding="UTF-8"?>
<!--Generator: Apple Native CoreSVG 341-->
<!DOCTYPE svg
PUBLIC "-//W3C//DTD SVG 1.1//EN"
       "http://www.w3.org/Graphics/SVG/1.1/DTD/svg11.dtd">
<svg version="1.1" xmlns="http://www.w3.org/2000/svg" xmlns:xlink="http://www.w3.org/1999/xlink" viewBox="0 0 18.5894 18.2316">
 <g>
  <rect height="18.2316" opacity="0" width="18.5894" x="0" y="0"/>
  <path d="M3.20351 18.2281L15.0246 18.2281C17.1404 18.2281 18.2281 17.1502 18.2281 15.0646L18.2281 3.17148C18.2281 1.08769 17.1404 0 15.0246 0L3.20351 0C1.0957 0 0 1.08769 0 3.17148L0 15.0646C0 17.1502 1.0957 18.2281 3.20351 18.2281ZM3.31444 16.3148C2.40643 16.3148 1.91327 15.8465 1.91327 14.8977L1.91327 3.34023C1.91327 2.39139 2.40643 1.91503 3.31444 1.91503L14.9137 1.91503C15.8137 1.91503 16.3148 2.39139 16.3148 3.34023L16.3148 14.8977C16.3148 15.8465 15.8137 16.3148 14.9137 16.3148Z" fill="white" fill-opacity="0.85"/>
  <path d="M5.2916 10.9225C5.2916 11.3627 5.58359 11.6369 6.03183 11.6369L8.47578 11.6369L8.47578 13.3551C8.47578 14.3211 8.93886 15.2703 9.12695 15.2703C9.31503 15.2703 9.77812 14.3211 9.77812 13.3551L9.77812 11.6369L12.2238 11.6369C12.6801 11.6369 12.9641 11.3627 12.9641 10.9225C12.9641 9.89785 12.0978 8.82499 10.7445 8.33046L10.5838 6.07948C11.2914 5.68085 11.858 5.23593 12.1094 4.9162C12.2363 4.74042 12.3064 4.56288 12.3064 4.40312C12.3064 4.08808 12.0615 3.86445 11.7047 3.86445L6.55097 3.86445C6.19238 3.86445 5.94745 4.08808 5.94745 4.40312C5.94745 4.56288 6.01757 4.75019 6.1623 4.92421C6.41718 5.24218 6.97226 5.68886 7.67187 6.07948L7.51738 8.33046C6.15605 8.82499 5.2916 9.89785 5.2916 10.9225Z" fill="white" fill-opacity="0.85"/>
 </g>
</svg>
