<?xml version="1.0" encoding="UTF-8"?>
<!--Generator: Apple Native CoreSVG 341-->
<!DOCTYPE svg
PUBLIC "-//W3C//DTD SVG 1.1//EN"
       "http://www.w3.org/Graphics/SVG/1.1/DTD/svg11.dtd">
<svg version="1.1" xmlns="http://www.w3.org/2000/svg" xmlns:xlink="http://www.w3.org/1999/xlink" viewBox="0 0 26.093 20.9601">
 <g>
  <rect height="20.9601" opacity="0" width="26.093" x="0" y="0"/>
  <path d="M20.7086 3.19101L20.7086 8.12383L18.7936 8.12383L18.7936 3.358C18.7936 2.40917 18.2924 1.9328 17.3924 1.9328L3.31444 1.9328C2.40643 1.9328 1.91327 2.40917 1.91327 3.358L1.91327 12.9771C1.91327 13.9277 2.42245 14.4041 3.31444 14.4041L9.50274 14.4041L9.50274 16.3174L3.20351 16.3174C1.08769 16.3174 0 15.2297 0 13.1459L0 3.19101C0 1.10547 1.08769 0.0195312 3.20351 0.0195312L17.5113 0.0195312C19.6209 0.0195312 20.7086 1.10547 20.7086 3.19101Z" fill="white" fill-opacity="0.85"/>
  <path d="M12.708 20.9601L22.5344 20.9601C24.6359 20.9601 25.7316 19.8724 25.7316 17.7887L25.7316 11.2953C25.7316 9.21152 24.6359 8.12383 22.5344 8.12383L12.708 8.12383C10.5984 8.12383 9.50274 9.20351 9.50274 11.2953L9.50274 17.7887C9.50274 19.8724 10.5984 20.9601 12.708 20.9601ZM12.8189 19.0469C11.9092 19.0469 11.416 18.5687 11.416 17.6199L11.416 11.456C11.416 10.5072 11.9092 10.0371 12.8189 10.0371L22.4154 10.0371C23.3172 10.0371 23.8184 10.5072 23.8184 11.456L23.8184 17.6199C23.8184 18.5687 23.3172 19.0469 22.4154 19.0469Z" fill="white" fill-opacity="0.85"/>
 </g>
</svg>
