<?xml version="1.0" encoding="UTF-8"?>
<!--Generator: Apple Native CoreSVG 341-->
<!DOCTYPE svg
PUBLIC "-//W3C//DTD SVG 1.1//EN"
       "http://www.w3.org/Graphics/SVG/1.1/DTD/svg11.dtd">
<svg version="1.1" xmlns="http://www.w3.org/2000/svg" xmlns:xlink="http://www.w3.org/1999/xlink" viewBox="0 0 13.6115 21.3859">
 <g>
  <rect height="21.3859" opacity="0" width="13.6115" x="0" y="0"/>
  <path d="M0 18.6674C0 20.2804 1.12597 21.3593 2.80917 21.3593L10.4832 21.3593C12.1418 21.3593 13.2502 20.2804 13.2502 18.6656L13.2502 2.69374C13.2502 1.07715 12.1418 0 10.4832 0L2.80917 0C1.12597 0 0 1.07715 0 2.69199ZM1.91327 18.2271L1.91327 3.13221C1.91327 2.38788 2.35643 1.96776 3.13729 1.96776L10.1226 1.96776C10.8937 1.96776 11.3369 2.39139 11.3369 3.13397L11.3369 18.2254C11.3369 18.968 10.8937 19.3916 10.1226 19.3916L3.13729 19.3916C2.35643 19.3916 1.91327 18.9715 1.91327 18.2271Z" fill="white" fill-opacity="0.85"/>
  <path d="M7.18143 8.43454C7.1699 8.13044 6.92518 7.8822 6.62909 7.8822C6.32323 7.8822 6.08827 8.13044 6.07675 8.43454L6.0164 10.0521L6.0164 12.7217C6.0164 13.0613 6.2744 13.3123 6.62909 13.3123C6.98377 13.3123 7.23377 13.0613 7.23377 12.7217L7.23377 10.0521ZM4.42479 10.4416C4.59862 10.4496 4.73866 10.3724 4.85662 10.2554L5.59667 9.50232L6.62909 8.15329L7.66151 9.50232L8.39354 10.2554C8.50975 10.3724 8.65155 10.4496 8.82538 10.4416C9.15975 10.4416 9.39744 10.2172 9.39744 9.8783C9.39744 9.724 9.35135 9.57673 9.24139 9.46326L7.09627 7.28494C6.96502 7.15017 6.79217 7.07303 6.62909 7.07303C6.45624 7.07303 6.2869 7.14842 6.15389 7.28494L4.00878 9.46326C3.89882 9.57673 3.86073 9.724 3.86073 9.8783C3.86073 10.2172 4.09842 10.4416 4.42479 10.4416Z" fill="white" fill-opacity="0.85"/>
  <path d="M4.04999 6.24061L9.20643 6.24061C9.72401 6.24061 10.0738 5.89705 10.0738 5.35193L10.0738 4.11776C10.0738 3.58065 9.72401 3.22908 9.20643 3.22908L4.04999 3.22908C3.52616 3.22908 3.1826 3.58065 3.1826 4.11776L3.1826 5.35193C3.1826 5.89705 3.52616 6.24061 4.04999 6.24061Z" fill="white" fill-opacity="0.85"/>
 </g>
</svg>
