<?xml version="1.0" encoding="UTF-8"?>
<!--Generator: Apple Native CoreSVG 341-->
<!DOCTYPE svg
PUBLIC "-//W3C//DTD SVG 1.1//EN"
       "http://www.w3.org/Graphics/SVG/1.1/DTD/svg11.dtd">
<svg version="1.1" xmlns="http://www.w3.org/2000/svg" xmlns:xlink="http://www.w3.org/1999/xlink" viewBox="0 0 21.7269 13.2875">
 <g>
  <rect height="13.2875" opacity="0" width="21.7269" x="0" y="0"/>
  <path d="M2.69199 13.2662L18.6656 13.2662C20.2804 13.2662 21.3656 12.1498 21.3656 10.4912L21.3656 2.80917C21.3656 1.12597 20.2885 0 18.6754 0L2.69824 0C1.08515 0 0 1.12597 0 2.80917L0 10.4912C0 12.1498 1.07715 13.2662 2.69199 13.2662ZM3.13397 11.3529C2.39139 11.3529 1.966 10.9017 1.966 10.1306L1.966 3.13729C1.966 2.36268 2.38612 1.91327 3.13221 1.91327L18.2334 1.91327C18.9795 1.91327 19.3996 2.36268 19.3996 3.13729L19.3996 10.1306C19.3996 10.9017 18.9742 11.3529 18.2236 11.3529Z" fill="white" fill-opacity="0.85"/>
  <path d="M4.74549 8.51268L9.02323 8.51268C9.54706 8.51268 9.89061 8.16913 9.89061 7.62577L9.89061 5.6244C9.89061 5.08729 9.54706 4.73573 9.02323 4.73573L4.74549 4.73573C4.22791 4.73573 3.87811 5.08729 3.87811 5.6244L3.87811 7.62577C3.87811 8.16913 4.22791 8.51268 4.74549 8.51268ZM12.3424 8.51268L16.6201 8.51268C17.1377 8.51268 17.4892 8.16913 17.4892 7.62577L17.4892 5.6244C17.4892 5.08729 17.1377 4.73573 16.6201 4.73573L12.3424 4.73573C11.8265 4.73573 11.475 5.08729 11.475 5.6244L11.475 7.62577C11.475 8.16913 11.8265 8.51268 12.3424 8.51268Z" fill="white" fill-opacity="0.85"/>
 </g>
</svg>
