<?xml version="1.0" encoding="UTF-8"?>
<!--Generator: Apple Native CoreSVG 341-->
<!DOCTYPE svg
PUBLIC "-//W3C//DTD SVG 1.1//EN"
       "http://www.w3.org/Graphics/SVG/1.1/DTD/svg11.dtd">
<svg version="1.1" xmlns="http://www.w3.org/2000/svg" xmlns:xlink="http://www.w3.org/1999/xlink" viewBox="0 0 17.142 22.468">
 <g>
  <rect height="22.468" opacity="0" width="17.142" x="0" y="0"/>
  <path d="M0 19.6523C0 21.343 1.14375 22.4467 2.90019 22.4467L13.8805 22.4467C15.6369 22.4467 16.7806 21.343 16.7806 19.6523L16.7806 2.80234C16.7806 1.11172 15.6369 0 13.8805 0L2.90019 0C1.14375 0 0 1.11172 0 2.80234ZM1.91327 19.3377L1.91327 3.11874C1.91327 2.35663 2.35761 1.91327 3.15878 1.91327L13.6219 1.91327C14.415 1.91327 14.8674 2.35663 14.8674 3.11874L14.8674 19.3377C14.8674 20.098 14.415 20.5334 13.6219 20.5334L3.15878 20.5334C2.35761 20.5334 1.91327 20.098 1.91327 19.3377Z" fill="white" fill-opacity="0.85"/>
  <path d="M4.73924 9.28065L12.0529 9.28065C12.5687 9.28065 12.9203 8.9371 12.9203 8.39198L12.9203 6.26503C12.9203 5.71991 12.5687 5.37636 12.0529 5.37636L4.73924 5.37636C4.22167 5.37636 3.87186 5.71991 3.87186 6.26503L3.87186 8.39198C3.87186 8.9371 4.22167 9.28065 4.73924 9.28065ZM4.73924 17.0508L12.0529 17.0508C12.5687 17.0508 12.9203 16.6992 12.9203 16.1621L12.9203 14.0271C12.9203 13.49 12.5687 13.1385 12.0529 13.1385L4.73924 13.1385C4.22167 13.1385 3.87186 13.49 3.87186 14.0271L3.87186 16.1621C3.87186 16.6992 4.22167 17.0508 4.73924 17.0508Z" fill="white" fill-opacity="0.85"/>
 </g>
</svg>
