<?xml version="1.0" encoding="UTF-8"?>
<!--Generator: Apple Native CoreSVG 341-->
<!DOCTYPE svg
PUBLIC "-//W3C//DTD SVG 1.1//EN"
       "http://www.w3.org/Graphics/SVG/1.1/DTD/svg11.dtd">
<svg version="1.1" xmlns="http://www.w3.org/2000/svg" xmlns:xlink="http://www.w3.org/1999/xlink" viewBox="0 0 25.1146 20.0754">
 <g>
  <rect height="20.0754" opacity="0" width="25.1146" x="0" y="0"/>
  <path d="M2.69257 16.6478L22.0607 16.6478C23.741 16.6478 24.7533 15.6275 24.7533 13.9553L24.7533 2.69257C24.7533 1.02031 23.741 0 22.0607 0L2.69257 0C1.02031 0 0 1.02031 0 2.69257L0 13.9553C0 15.6275 1.02031 16.6478 2.69257 16.6478ZM2.80272 14.7803C2.21307 14.7803 1.86757 14.4435 1.86757 13.8531L1.86757 2.79647C1.86757 2.20429 2.21307 1.86932 2.80272 1.86932L21.9506 1.86932C22.5402 1.86932 22.8857 2.20429 22.8857 2.79647L22.8857 13.8531C22.8857 14.4435 22.5402 14.7803 21.9506 14.7803ZM7.38105 20.0638L17.3723 20.0638C17.8582 20.0638 18.2582 19.6631 18.2582 19.1797C18.2582 18.6963 17.8582 18.2955 17.3723 18.2955L7.38105 18.2955C6.89512 18.2955 6.49512 18.6963 6.49512 19.1797C6.49512 19.6631 6.89512 20.0638 7.38105 20.0638Z" fill="white" fill-opacity="0.85"/>
  <path d="M9.15898 12.3463C9.15898 12.8824 9.73671 13.0908 10.176 12.8361L16.9287 8.87362C17.3582 8.62069 17.3467 8.03241 16.9207 7.78749L10.176 3.82773C9.73671 3.57304 9.15898 3.78319 9.15898 4.32284Z" fill="white" fill-opacity="0.85"/>
 </g>
</svg>
