<?xml version="1.0" encoding="UTF-8"?>
<!--Generator: Apple Native CoreSVG 341-->
<!DOCTYPE svg
PUBLIC "-//W3C//DTD SVG 1.1//EN"
       "http://www.w3.org/Graphics/SVG/1.1/DTD/svg11.dtd">
<svg version="1.1" xmlns="http://www.w3.org/2000/svg" xmlns:xlink="http://www.w3.org/1999/xlink" viewBox="0 0 24.2072 20.9398">
 <g>
  <rect height="20.9398" opacity="0" width="24.2072" x="0" y="0"/>
  <path d="M12.5238 4.36678L20.6812 11.2078L20.6812 18.6787C20.6812 20.0801 19.8092 20.9203 18.3637 20.9203L5.48495 20.9203C4.03945 20.9203 3.15761 20.0801 3.15761 18.6787L3.15761 11.2078L11.3203 4.36678C11.6922 4.05526 12.1439 4.04549 12.5238 4.36678ZM9.33261 10.2545L9.33261 17.3045C9.33261 17.774 9.83847 17.9674 10.2226 17.7322L16.1539 14.2582C16.5283 14.0346 16.5185 13.5164 16.1459 13.3088L10.2226 9.82772C9.83847 9.59256 9.33261 9.78319 9.33261 10.2545ZM13.2873 0.53906L18.1213 4.59748L18.1213 2.86094C18.1213 2.42071 18.4133 2.14024 18.8437 2.14024L20.1611 2.14024C20.5996 2.14024 20.8801 2.42071 20.8801 2.86094L20.8801 6.91364L23.4631 9.08222C23.7263 9.29316 23.8459 9.58027 23.8459 9.85234C23.8459 10.3564 23.4666 10.7865 22.8478 10.7865C22.5445 10.7865 22.2742 10.6312 22.0437 10.4336L12.3359 2.28924C12.2039 2.18026 12.0639 2.12088 11.9221 2.12088C11.79 2.12088 11.642 2.18026 11.51 2.28924L1.81015 10.4336C1.57167 10.6312 1.30136 10.7865 0.99804 10.7865C0.379294 10.7865 0 10.3564 0 9.85234C0 9.58027 0.127538 9.29316 0.38281 9.08222L10.5586 0.53906C10.9842 0.180858 11.4549 0 11.9221 0C12.391 0 12.8617 0.180858 13.2873 0.53906Z" fill="white" fill-opacity="0.85"/>
 </g>
</svg>
