<?xml version="1.0" encoding="UTF-8"?>
<!--Generator: Apple Native CoreSVG 341-->
<!DOCTYPE svg
PUBLIC "-//W3C//DTD SVG 1.1//EN"
       "http://www.w3.org/Graphics/SVG/1.1/DTD/svg11.dtd">
<svg version="1.1" xmlns="http://www.w3.org/2000/svg" xmlns:xlink="http://www.w3.org/1999/xlink" viewBox="0 0 20.5381 20.1848">
 <g>
  <rect height="20.1848" opacity="0" width="20.5381" x="0" y="0"/>
  <path d="M10.0875 20.175C15.6576 20.175 20.1767 15.6559 20.1767 10.0875C20.1767 4.51914 15.6576 0 10.0875 0C4.51914 0 0 4.51914 0 10.0875C0 15.6559 4.51914 20.175 10.0875 20.175ZM10.0875 18.1879C5.60839 18.1879 1.9871 14.5666 1.9871 10.0875C1.9871 5.60839 5.60839 1.9871 10.0875 1.9871C14.5666 1.9871 18.1897 5.60839 18.1897 10.0875C18.1897 14.5666 14.5666 18.1879 10.0875 18.1879Z" fill="white" fill-opacity="0.85"/>
  <path d="M4.92382 13.6258L9.57715 10.5963C9.9457 10.3396 9.94219 9.85214 9.57715 9.61503L4.92382 6.566C4.53397 6.31386 4.01268 6.53573 4.01268 6.97265L4.01268 13.2289C4.01268 13.6721 4.50643 13.8939 4.92382 13.6258ZM11.248 13.6301L12.1678 13.6301C12.6295 13.6301 12.8434 13.3762 12.8434 13.0078L12.8434 7.16893C12.8434 6.79257 12.6295 6.54667 12.1678 6.54667L11.248 6.54667C10.7943 6.54667 10.5662 6.79257 10.5662 7.16893L10.5662 13.0078C10.5662 13.3762 10.7943 13.6301 11.248 13.6301ZM14.5928 13.6301L15.516 13.6301C15.96 13.6301 16.1801 13.3762 16.1801 13.0096L16.1801 7.16718C16.1801 6.79257 15.96 6.54667 15.516 6.54667L14.5928 6.54667C14.1391 6.54667 13.9109 6.79257 13.9109 7.16718L13.9109 13.0096C13.9109 13.3762 14.1391 13.6301 14.5928 13.6301Z" fill="white" fill-opacity="0.85"/>
 </g>
</svg>
