<?xml version="1.0" encoding="UTF-8"?>
<!--Generator: Apple Native CoreSVG 341-->
<!DOCTYPE svg
PUBLIC "-//W3C//DTD SVG 1.1//EN"
       "http://www.w3.org/Graphics/SVG/1.1/DTD/svg11.dtd">
<svg version="1.1" xmlns="http://www.w3.org/2000/svg" xmlns:xlink="http://www.w3.org/1999/xlink" viewBox="0 0 20.9371 26.3187">
 <g>
  <rect height="26.3187" opacity="0" width="20.9371" x="0" y="0"/>
  <path d="M14.8533 2.91914L5.72069 2.91914C5.75331 2.07796 6.2799 1.59707 7.15234 1.59707L13.4234 1.59707C14.2959 1.59707 14.8208 2.07796 14.8533 2.91914Z" fill="white" fill-opacity="0.85"/>
  <path d="M16.8295 5.82369C16.4995 5.77004 16.1499 5.74296 15.7824 5.74296L4.79335 5.74296C4.42598 5.74296 4.07648 5.7699 3.74647 5.82334C3.8542 4.84215 4.52082 4.28418 5.59745 4.28418L14.9863 4.28418C16.0631 4.28418 16.7231 4.84228 16.8295 5.82369Z" fill="white" fill-opacity="0.85"/>
  <path d="M18.9859 10.5043L18.9859 21.5592C18.9859 23.643 17.8902 24.7306 15.7824 24.7306L4.79335 24.7306C2.68379 24.7306 1.58984 23.643 1.58984 21.5592L1.58984 10.5043C1.58984 8.41249 2.68379 7.3328 4.79335 7.3328L15.7824 7.3328C17.8902 7.3328 18.9859 8.4205 18.9859 10.5043ZM7.33867 12.6398L7.33867 19.5082C7.33867 20.109 7.97245 20.381 8.52206 20.0504L14.1543 16.7312C14.6666 16.4281 14.6551 15.7262 14.1543 15.4346L8.52206 12.0994C8.00097 11.7892 7.33867 12.0471 7.33867 12.6398Z" fill="white" fill-opacity="0.85"/>
 </g>
</svg>
