<?xml version="1.0" encoding="UTF-8"?>
<!--Generator: Apple Native CoreSVG 341-->
<!DOCTYPE svg
PUBLIC "-//W3C//DTD SVG 1.1//EN"
       "http://www.w3.org/Graphics/SVG/1.1/DTD/svg11.dtd">
<svg version="1.1" xmlns="http://www.w3.org/2000/svg" xmlns:xlink="http://www.w3.org/1999/xlink" viewBox="0 0 20.5381 20.1848">
 <g>
  <rect height="20.1848" opacity="0" width="20.5381" x="0" y="0"/>
  <path d="M20.1767 10.0875C20.1767 15.6478 15.6576 20.175 10.0875 20.175C4.52715 20.175 0 15.6478 0 10.0875C0 4.51914 4.52715 0 10.0875 0C15.6576 0 20.1767 4.51914 20.1767 10.0875ZM9.12891 6.34648L9.12891 9.1209L6.35624 9.1209C5.79394 9.1209 5.39668 9.52168 5.39668 10.0875C5.39668 10.6453 5.79394 11.0301 6.35624 11.0301L9.12891 11.0301L9.12891 13.8125C9.12891 14.365 9.52343 14.7703 10.0795 14.7703C10.6453 14.7703 11.0461 14.373 11.0461 13.8125L11.0461 11.0301L13.8285 11.0301C14.3828 11.0301 14.7881 10.6453 14.7881 10.0875C14.7881 9.52168 14.3828 9.1209 13.8285 9.1209L11.0461 9.1209L11.0461 6.34648C11.0461 5.78593 10.6453 5.3789 10.0795 5.3789C9.52343 5.3789 9.12891 5.78593 9.12891 6.34648Z" fill="white" fill-opacity="0.85"/>
 </g>
</svg>
