<?xml version="1.0" encoding="UTF-8"?>
<!--Generator: Apple Native CoreSVG 341-->
<!DOCTYPE svg
PUBLIC "-//W3C//DTD SVG 1.1//EN"
       "http://www.w3.org/Graphics/SVG/1.1/DTD/svg11.dtd">
<svg version="1.1" xmlns="http://www.w3.org/2000/svg" xmlns:xlink="http://www.w3.org/1999/xlink" viewBox="0 0 20.5381 20.1848">
 <g>
  <rect height="20.1848" opacity="0" width="20.5381" x="0" y="0"/>
  <path d="M10.0875 20.175C15.6576 20.175 20.1767 15.6559 20.1767 10.0875C20.1767 4.51914 15.6576 0 10.0875 0C4.51914 0 0 4.51914 0 10.0875C0 15.6559 4.51914 20.175 10.0875 20.175ZM10.0875 18.1879C5.60839 18.1879 1.9871 14.5666 1.9871 10.0875C1.9871 5.60839 5.60839 1.9871 10.0875 1.9871C14.5666 1.9871 18.1897 5.60839 18.1897 10.0875C18.1897 14.5666 14.5666 18.1879 10.0875 18.1879Z" fill="white" fill-opacity="0.85"/>
  <path d="M7.42284 14.756L12.7602 14.756C13.1973 14.756 13.5467 14.3914 13.5467 13.9969C13.5467 13.5828 13.1973 13.2404 12.7602 13.2404L7.42284 13.2404C6.97597 13.2404 6.63633 13.5828 6.63633 13.9969C6.63633 14.3914 6.97597 14.756 7.42284 14.756ZM7.3955 8.98124L12.7857 8.98124C13.2096 8.98124 13.5467 8.6539 13.5467 8.23007C13.5467 7.80625 13.2096 7.4709 12.7857 7.4709L7.3955 7.4709C6.96367 7.4709 6.63633 7.80625 6.63633 8.23007C6.63633 8.6539 6.96367 8.98124 7.3955 8.98124ZM10.0955 11.6601C10.5211 11.6601 10.8564 11.323 10.8564 10.9107L10.8564 5.54316C10.8564 5.11933 10.5211 4.79023 10.0955 4.79023C9.67168 4.79023 9.34433 5.11933 9.34433 5.54316L9.34433 10.909C9.34433 11.323 9.67168 11.6601 10.0955 11.6601Z" fill="white" fill-opacity="0.85"/>
 </g>
</svg>
