<?xml version="1.0" encoding="UTF-8"?>
<!--Generator: Apple Native CoreSVG 341-->
<!DOCTYPE svg
PUBLIC "-//W3C//DTD SVG 1.1//EN"
       "http://www.w3.org/Graphics/SVG/1.1/DTD/svg11.dtd">
<svg version="1.1" xmlns="http://www.w3.org/2000/svg" xmlns:xlink="http://www.w3.org/1999/xlink" viewBox="0 0 20.5381 23.885">
 <g>
  <rect height="23.885" opacity="0" width="20.5381" x="0" y="0"/>
  <path d="M12.0514 0.722792C12.0514-0.00845663 11.5078-0.191269 10.9557 0.203652L7.80273 2.47377C7.36582 2.79076 7.37382 3.27709 7.80273 3.58783L10.9637 5.85618C11.5078 6.24134 12.0514 6.06029 12.0514 5.34056ZM10.0875 22.0251C15.6576 22.0251 20.1767 17.5042 20.1767 11.9376C20.1767 6.36928 15.6656 1.85815 10.076 1.85014C9.52734 1.85815 9.09043 2.30131 9.09043 2.83568C9.09043 3.38431 9.53535 3.83724 10.084 3.83724C14.5666 3.83724 18.1897 7.45853 18.1897 11.9376C18.1897 16.4167 14.5666 20.038 10.0875 20.038C5.60839 20.038 1.9871 16.4167 1.9871 11.9376C1.9871 9.31087 3.23124 7.01262 5.15742 5.54407C5.61406 5.14817 5.7621 4.58548 5.42305 4.10677C5.10156 3.66341 4.45001 3.56029 3.93946 3.99427C1.51661 5.84759 0 8.71986 0 11.9376C0 17.5042 4.51914 22.0251 10.0875 22.0251Z" fill="white" fill-opacity="0.85"/>
  <path d="M11.0045 15.5226L11.0045 8.33665C11.0045 7.79291 10.6187 7.41244 10.0795 7.41244C9.55 7.41244 9.17226 7.79291 9.17226 8.33665L9.17226 15.5226C9.17226 16.0566 9.55 16.4388 10.0795 16.4388C10.6187 16.4388 11.0045 16.0646 11.0045 15.5226ZM6.49452 12.8368L13.6902 12.8368C14.2242 12.8368 14.6047 12.4671 14.6047 11.9376C14.6047 11.3984 14.2242 11.0144 13.6902 11.0144L6.49452 11.0144C5.95253 11.0144 5.58007 11.3984 5.58007 11.9376C5.58007 12.4671 5.95253 12.8368 6.49452 12.8368Z" fill="white" fill-opacity="0.85"/>
 </g>
</svg>
