<?xml version="1.0" encoding="UTF-8"?>
<!--Generator: Apple Native CoreSVG 341-->
<!DOCTYPE svg
PUBLIC "-//W3C//DTD SVG 1.1//EN"
       "http://www.w3.org/Graphics/SVG/1.1/DTD/svg11.dtd">
<svg version="1.1" xmlns="http://www.w3.org/2000/svg" xmlns:xlink="http://www.w3.org/1999/xlink" viewBox="0 0 19.0348 18.4719">
 <g>
  <rect height="18.4719" opacity="0" width="19.0348" x="0" y="0"/>
  <path d="M0 4.91992C0 5.35703 0.350193 5.70722 0.797066 5.70722L2.6793 5.70722L2.6793 7.5957C2.6793 8.04258 3.0375 8.38652 3.46835 8.38476C3.91347 8.38476 4.26366 8.03457 4.26366 7.5957L4.26366 5.70722L6.15214 5.70722C6.59101 5.70722 6.94921 5.35703 6.94921 4.91992C6.94921 4.48106 6.59101 4.12286 6.15214 4.12286L4.26366 4.12286L4.26366 2.23262C4.26366 1.79375 3.90546 1.43555 3.46835 1.43555C3.02949 1.43555 2.6793 1.79375 2.6793 2.23262L2.6793 4.12286L0.797066 4.12286C0.350193 4.12286 0 4.48106 0 4.91992ZM10.1301 9.62441L15.6764 1.41425C15.8254 1.2041 15.89 1.01523 15.89 0.795308C15.89 0.343162 15.5043 0 15.0424 0C14.6373 0 14.4236 0.133788 14.1238 0.574607L8.59219 8.80352L3.00625 17.0398C2.86699 17.2447 2.78633 17.4203 2.78633 17.6721C2.78633 18.1535 3.19765 18.4684 3.68007 18.4684C4.04804 18.4684 4.26347 18.3176 4.5455 17.9105ZM11.7242 14.2117C11.7242 14.6506 12.0744 15.0088 12.5133 15.0088L17.8781 15.0088C18.3152 15.0088 18.6734 14.6506 18.6734 14.2117C18.6734 13.7746 18.3152 13.4227 17.8781 13.4227L12.5133 13.4227C12.0744 13.4227 11.7242 13.7746 11.7242 14.2117Z" fill="white" fill-opacity="0.85"/>
 </g>
</svg>
