<?xml version="1.0" encoding="UTF-8"?>
<!--Generator: Apple Native CoreSVG 341-->
<!DOCTYPE svg
PUBLIC "-//W3C//DTD SVG 1.1//EN"
       "http://www.w3.org/Graphics/SVG/1.1/DTD/svg11.dtd">
<svg version="1.1" xmlns="http://www.w3.org/2000/svg" xmlns:xlink="http://www.w3.org/1999/xlink" viewBox="0 0 25.7119 18.9105">
 <g>
  <rect height="18.9105" opacity="0" width="25.7119" x="0" y="0"/>
  <path d="M0 9.45039C0 15.1539 3.92461 18.899 9.83691 18.899L15.5057 18.899C21.418 18.899 25.3506 15.1539 25.3506 9.45039C25.3506 3.74687 21.418 0 15.5057 0L9.83691 0C3.92461 0 0 3.74687 0 9.45039ZM1.91327 9.45039C1.91327 4.93378 5.108 1.91503 9.83691 1.91503L15.5057 1.91503C20.2426 1.91503 23.4373 4.93378 23.4373 9.45039C23.4373 13.967 20.2426 16.9857 15.5057 16.9857L9.83691 16.9857C5.108 16.9857 1.91327 13.967 1.91327 9.45039Z" fill="white" fill-opacity="0.85"/>
  <path d="M13.5914 13.0354L13.5914 5.84941C13.5914 5.30566 13.2057 4.92519 12.6664 4.92519C12.1369 4.92519 11.7592 5.30566 11.7592 5.84941L11.7592 13.0354C11.7592 13.5693 12.1369 13.9516 12.6664 13.9516C13.2057 13.9516 13.5914 13.5773 13.5914 13.0354ZM9.08144 10.3496L16.2771 10.3496C16.8111 10.3496 17.1836 9.97988 17.1836 9.45039C17.1836 8.91113 16.8111 8.52715 16.2771 8.52715L9.08144 8.52715C8.53945 8.52715 8.15898 8.91113 8.15898 9.45039C8.15898 9.97988 8.53945 10.3496 9.08144 10.3496Z" fill="white" fill-opacity="0.85"/>
 </g>
</svg>
