<?xml version="1.0" encoding="UTF-8"?>
<!--Generator: Apple Native CoreSVG 341-->
<!DOCTYPE svg
PUBLIC "-//W3C//DTD SVG 1.1//EN"
       "http://www.w3.org/Graphics/SVG/1.1/DTD/svg11.dtd">
<svg version="1.1" xmlns="http://www.w3.org/2000/svg" xmlns:xlink="http://www.w3.org/1999/xlink" viewBox="0 0 17.107 21.1441">
 <g>
  <rect height="21.1441" opacity="0" width="17.107" x="0" y="0"/>
  <path d="M16.7457 3.20527L16.7457 17.9406C16.7457 20.0502 15.6678 21.1379 13.5742 21.1379L3.17148 21.1379C1.07968 21.1379 0 20.0502 0 17.9406L0 3.20527C0 1.10371 1.07968 0 3.17148 0L13.5742 0C15.6678 0 16.7457 1.10371 16.7457 3.20527ZM7.42402 6.82792L7.42402 9.60234L4.6496 9.60234C4.08906 9.60234 3.68203 10.0031 3.68203 10.5689C3.68203 11.1268 4.08906 11.5195 4.6496 11.5195L7.42402 11.5195L7.42402 14.302C7.42402 14.8545 7.81679 15.2598 8.36659 15.2598C8.93866 15.2598 9.33319 14.8545 9.33319 14.302L9.33319 11.5195L12.1156 11.5195C12.6682 11.5195 13.0734 11.1268 13.0734 10.5689C13.0734 10.0031 12.6762 9.60234 12.1156 9.60234L9.33319 9.60234L9.33319 6.82792C9.33319 6.26738 8.93866 5.87011 8.36659 5.87011C7.81679 5.87011 7.42402 6.26738 7.42402 6.82792Z" fill="white" fill-opacity="0.85"/>
 </g>
</svg>
