<?xml version="1.0" encoding="UTF-8"?>
<!--Generator: Apple Native CoreSVG 341-->
<!DOCTYPE svg
PUBLIC "-//W3C//DTD SVG 1.1//EN"
       "http://www.w3.org/Graphics/SVG/1.1/DTD/svg11.dtd">
<svg version="1.1" xmlns="http://www.w3.org/2000/svg" xmlns:xlink="http://www.w3.org/1999/xlink" viewBox="0 0 27.1668 23.1086">
 <g>
  <rect height="23.1086" opacity="0" width="27.1668" x="0" y="0"/>
  <path d="M20.8043 4.58925L20.8043 4.64101L9.20643 4.64101C6.30546 4.64101 4.58164 6.35683 4.58164 9.23202L4.58164 17.0383L4.27148 17.0383C2.16191 17.0383 1.06621 15.9586 1.06621 13.8668L1.06621 4.58925C1.06621 2.50546 2.16191 1.41777 4.27148 1.41777L17.599 1.41777C19.7086 1.41777 20.8043 2.50546 20.8043 4.58925Z" fill="white" fill-opacity="0.85"/>
  <path d="M25.7392 9.23202L25.7392 18.5078C25.7392 20.5933 24.6435 21.6793 22.5357 21.6793L9.20643 21.6793C7.09686 21.6793 6.00292 20.6013 6.00292 18.5078L6.00292 9.23202C6.00292 7.14823 7.09686 6.06054 9.20643 6.06054L22.5357 6.06054C24.6435 6.06054 25.7392 7.14823 25.7392 9.23202ZM14.9205 10.1338L14.9205 12.9082L12.1461 12.9082C11.5775 12.9082 11.1803 13.301 11.1803 13.8748C11.1803 14.4228 11.5855 14.8174 12.1461 14.8174L14.9205 14.8174L14.9205 17.5998C14.9205 18.1523 15.3053 18.5576 15.8631 18.5576C16.4289 18.5576 16.8297 18.1523 16.8297 17.5998L16.8297 14.8174L19.6121 14.8174C20.1646 14.8174 20.5699 14.4228 20.5699 13.8748C20.5699 13.301 20.1646 12.9082 19.6121 12.9082L16.8297 12.9082L16.8297 10.1338C16.8297 9.56346 16.4289 9.1662 15.8631 9.1662C15.3053 9.1662 14.9205 9.57147 14.9205 10.1338Z" fill="white" fill-opacity="0.85"/>
 </g>
</svg>
