<?xml version="1.0" encoding="UTF-8"?>
<!--Generator: Apple Native CoreSVG 341-->
<!DOCTYPE svg
PUBLIC "-//W3C//DTD SVG 1.1//EN"
       "http://www.w3.org/Graphics/SVG/1.1/DTD/svg11.dtd">
<svg version="1.1" xmlns="http://www.w3.org/2000/svg" xmlns:xlink="http://www.w3.org/1999/xlink" viewBox="0 0 20.5381 20.1848">
 <g>
  <rect height="20.1848" opacity="0" width="20.5381" x="0" y="0"/>
  <path d="M10.0875 20.175C15.6576 20.175 20.1767 15.6559 20.1767 10.0875C20.1767 4.51914 15.6576 0 10.0875 0C4.51914 0 0 4.51914 0 10.0875C0 15.6559 4.51914 20.175 10.0875 20.175ZM10.0875 18.1879C5.60839 18.1879 1.9871 14.5666 1.9871 10.0875C1.9871 5.60839 5.60839 1.9871 10.0875 1.9871C14.5666 1.9871 18.1897 5.60839 18.1897 10.0875C18.1897 14.5666 14.5666 18.1879 10.0875 18.1879Z" fill="white" fill-opacity="0.85"/>
  <path d="M10.9947 13.6725L10.9947 6.48651C10.9947 5.94277 10.6107 5.5623 10.0715 5.5623C9.54199 5.5623 9.16426 5.94277 9.16426 6.48651L9.16426 13.6725C9.16426 14.2064 9.54199 14.5887 10.0715 14.5887C10.6107 14.5887 10.9947 14.2145 10.9947 13.6725ZM6.48651 10.9867L13.6822 10.9867C14.2162 10.9867 14.5967 10.617 14.5967 10.0875C14.5967 9.54824 14.2162 9.16426 13.6822 9.16426L6.48651 9.16426C5.94452 9.16426 5.57031 9.54824 5.57031 10.0875C5.57031 10.617 5.94452 10.9867 6.48651 10.9867Z" fill="white" fill-opacity="0.85"/>
 </g>
</svg>
