<?xml version="1.0" encoding="UTF-8"?>
<!--Generator: Apple Native CoreSVG 341-->
<!DOCTYPE svg
PUBLIC "-//W3C//DTD SVG 1.1//EN"
       "http://www.w3.org/Graphics/SVG/1.1/DTD/svg11.dtd">
<svg version="1.1" xmlns="http://www.w3.org/2000/svg" xmlns:xlink="http://www.w3.org/1999/xlink" viewBox="0 0 18.5894 18.2476">
 <g>
  <rect height="18.2476" opacity="0" width="18.5894" x="0" y="0"/>
  <path d="M0 5.20469L1.91327 5.20469L1.91327 3.34999C1.91327 2.40116 2.40643 1.9328 3.31444 1.9328L5.15312 1.9328L5.15312 0.0195312L3.20351 0.0195312C1.0957 0.0195312 0 1.09746 0 3.19101ZM6.58066 1.9328L11.6475 1.9328L11.6475 0.0195312L6.58066 0.0195312ZM16.3148 5.20469L18.2281 5.20469L18.2281 3.19101C18.2281 1.10547 17.1324 0.0195312 15.0246 0.0195312L13.075 0.0195312L13.075 1.9328L14.9137 1.9328C15.8137 1.9328 16.3148 2.40116 16.3148 3.34999ZM16.3148 11.6332L18.2281 11.6332L18.2281 6.63222L16.3148 6.63222ZM13.075 18.2476L15.0246 18.2476C17.1324 18.2476 18.2281 17.16 18.2281 15.0762L18.2281 13.0607L16.3148 13.0607L16.3148 14.9154C16.3148 15.8643 15.8137 16.3344 14.9137 16.3344L13.075 16.3344ZM6.58066 18.2476L11.6475 18.2476L11.6475 16.3344L6.58066 16.3344ZM3.20351 18.2476L5.15312 18.2476L5.15312 16.3344L3.31444 16.3344C2.40643 16.3344 1.91327 15.8643 1.91327 14.9154L1.91327 13.0607L0 13.0607L0 15.0762C0 17.168 1.0957 18.2476 3.20351 18.2476ZM0 11.6332L1.91327 11.6332L1.91327 6.63222L0 6.63222Z" fill="white" fill-opacity="0.85"/>
  <path d="M10.0342 12.7039L10.0342 5.51796C10.0342 4.97421 9.65019 4.59374 9.11093 4.59374C8.57968 4.59374 8.20371 4.97421 8.20371 5.51796L8.20371 12.7039C8.20371 13.2379 8.57968 13.6201 9.11093 13.6201C9.65019 13.6201 10.0342 13.2459 10.0342 12.7039ZM5.52597 10.0182L12.7199 10.0182C13.2557 10.0182 13.6361 9.64843 13.6361 9.11894C13.6361 8.57968 13.2557 8.1957 12.7199 8.1957L5.52597 8.1957C4.98398 8.1957 4.60976 8.57968 4.60976 9.11894C4.60976 9.64843 4.98398 10.0182 5.52597 10.0182Z" fill="white" fill-opacity="0.85"/>
 </g>
</svg>
