<?xml version="1.0" encoding="UTF-8"?>
<!--Generator: Apple Native CoreSVG 341-->
<!DOCTYPE svg
PUBLIC "-//W3C//DTD SVG 1.1//EN"
       "http://www.w3.org/Graphics/SVG/1.1/DTD/svg11.dtd">
<svg version="1.1" xmlns="http://www.w3.org/2000/svg" xmlns:xlink="http://www.w3.org/1999/xlink" viewBox="0 0 18.5894 18.2316">
 <g>
  <rect height="18.2316" opacity="0" width="18.5894" x="0" y="0"/>
  <path d="M18.2281 3.17148L18.2281 15.0646C18.2281 17.1502 17.1404 18.2281 15.0246 18.2281L3.20351 18.2281C1.0957 18.2281 0 17.1502 0 15.0646L0 3.17148C0 1.08769 1.0957 0 3.20351 0L15.0246 0C17.1404 0 18.2281 1.08769 18.2281 3.17148ZM3.09335 3.81698C2.8998 4.00878 2.8998 4.35331 3.09335 4.52909L13.649 15.067C13.8568 15.2605 14.1756 15.2605 14.3691 15.067C14.5689 14.8637 14.5707 14.5387 14.3691 14.3434L3.82323 3.81698C3.62343 3.62519 3.30292 3.62519 3.09335 3.81698ZM5.76444 13.8555C5.76444 14.6781 6.67753 15.002 7.3662 14.3133L9.60839 12.0693L5.76444 8.22011ZM5.76444 4.34178L5.76444 4.71874L12.9521 11.8887L13.3578 11.8887C14.2406 11.8887 14.5848 10.9844 14.0293 10.4174L7.35565 3.75526C6.72909 3.11366 5.76444 3.44276 5.76444 4.34178Z" fill="white" fill-opacity="0.85"/>
 </g>
</svg>
