<?xml version="1.0" encoding="UTF-8"?>
<!--Generator: Apple Native CoreSVG 341-->
<!DOCTYPE svg
PUBLIC "-//W3C//DTD SVG 1.1//EN"
       "http://www.w3.org/Graphics/SVG/1.1/DTD/svg11.dtd">
<svg version="1.1" xmlns="http://www.w3.org/2000/svg" xmlns:xlink="http://www.w3.org/1999/xlink" viewBox="0 0 28.9026 27.6152">
 <g>
  <rect height="27.6152" opacity="0" width="28.9026" x="0" y="0"/>
  <path d="M5.60442 16.3047C5.60442 17.2553 6.09759 17.7316 7.0056 17.7316L8.55053 17.7316L8.55053 19.6449L6.89467 19.6449C4.77885 19.6449 3.69116 18.5572 3.69116 16.4734L3.69116 15.1314L5.60442 15.1314ZM5.60442 13.7119L3.69116 13.7119L3.69116 9.27832L5.60442 9.27832ZM19.981 6.51855L19.981 7.98808L18.0677 7.98808L18.0677 6.68554C18.0677 5.73671 17.5665 5.26034 16.6665 5.26034L15.3751 5.26034L15.3751 3.34707L16.7855 3.34707C18.8933 3.34707 19.981 4.43301 19.981 6.51855ZM8.30502 5.26034L7.0056 5.26034C6.09759 5.26034 5.60442 5.73671 5.60442 6.68554L5.60442 7.85879L3.69116 7.85879L3.69116 6.51855C3.69116 4.43301 4.77885 3.34707 6.89467 3.34707L8.30502 3.34707ZM14.0329 5.26034L9.64447 5.26034L9.64447 3.34707L14.0329 3.34707Z" fill="white" fill-opacity="0.85"/>
  <path d="M24.8404 11.1596L24.8404 18.1247L22.9271 16.2134L22.9271 11.3283C22.9271 10.3795 22.4259 9.90311 21.5259 9.90311L11.8667 9.90311C10.965 9.90311 10.4638 10.3795 10.4638 11.3283L10.4638 20.9475C10.4638 21.8963 10.965 22.3744 11.8667 22.3744L18.6599 22.3744L18.6599 24.2877L11.7558 24.2877C9.63822 24.2877 8.55053 23.2 8.55053 21.1162L8.55053 11.1596C8.55053 9.06777 9.63822 7.98808 11.7558 7.98808L21.6449 7.98808C23.7464 7.98808 24.8404 9.07578 24.8404 11.1596Z" fill="white" fill-opacity="0.85"/>
  <path d="M23.5742 23.806L26.6499 23.806C27.5203 23.806 27.8822 23.0121 27.357 22.4851L21.3953 16.5119C20.8275 15.9441 19.9572 16.2572 19.9572 17.0814L19.9572 25.5521C19.9572 26.2902 20.7839 26.5998 21.3943 25.9877Z" fill="white" fill-opacity="0.85"/>
 </g>
</svg>
