<?xml version="1.0" encoding="UTF-8"?>
<!--Generator: Apple Native CoreSVG 341-->
<!DOCTYPE svg
PUBLIC "-//W3C//DTD SVG 1.1//EN"
       "http://www.w3.org/Graphics/SVG/1.1/DTD/svg11.dtd">
<svg version="1.1" xmlns="http://www.w3.org/2000/svg" xmlns:xlink="http://www.w3.org/1999/xlink" viewBox="0 0 17.968 21.6508">
 <g>
  <rect height="21.6508" opacity="0" width="17.968" x="0" y="0"/>
  <path d="M13.963 15.0373C13.9568 15.0373 13.9508 15.0379 13.9449 15.0389C13.8437 15.0492 13.7438 15.0644 13.6458 15.0845C13.63 15.0865 13.6145 15.0896 13.5996 15.0939C13.5142 15.1119 13.4302 15.1336 13.3477 15.1586L13.3477 14.7762C13.3477 13.6377 12.5519 12.8375 10.9916 12.4066L6.06015 11.0674C3.63926 10.4228 2.36934 8.98885 2.36934 6.90038L2.36934 6.52629C2.45295 6.55178 2.538 6.57391 2.62448 6.59218C2.63894 6.59636 2.65383 6.59942 2.66909 6.60136C2.76724 6.62163 2.86719 6.63692 2.9686 6.64728C2.97458 6.64827 2.98068 6.64889 2.98693 6.64897C3.09475 6.66015 3.20426 6.66561 3.31503 6.66561C3.42613 6.66561 3.53594 6.66013 3.64406 6.64894C3.64985 6.64888 3.65551 6.6483 3.66105 6.64739C3.76154 6.63708 3.8606 6.62197 3.95788 6.60192C3.97499 6.5998 3.99167 6.59637 4.00788 6.59175C4.08959 6.57426 4.17005 6.55338 4.24921 6.52946L4.24921 6.90038C4.24921 8.03886 5.06093 8.85683 6.61151 9.27792L11.5447 10.6189C13.9656 11.2617 15.2258 12.6957 15.2258 14.7762L15.2258 15.1564L15.2258 15.1564C15.1464 15.1325 15.0657 15.1116 14.9838 15.0942C14.9677 15.0896 14.9511 15.0862 14.9341 15.0841C14.8368 15.0641 14.7378 15.0491 14.6373 15.0388C14.6318 15.0379 14.6261 15.0373 14.6203 15.0373C14.5123 15.0261 14.4026 15.0207 14.2916 15.0207C14.1807 15.0207 14.071 15.0261 13.963 15.0373Z" fill="white" fill-opacity="0.85"/>
  <path d="M3.31503 6.66561C5.14823 6.66561 6.63182 5.17401 6.63182 3.34081C6.63182 1.51738 5.14823 0.0257814 3.31503 0.0257814C1.48359 0.0257814 0 1.51738 0 3.34081C0 5.17401 1.48359 6.66561 3.31503 6.66561ZM3.31503 4.87226C2.46405 4.87226 1.79159 4.19804 1.79159 3.34081C1.79159 2.48007 2.4623 1.81737 3.31503 1.81737C4.17578 1.81737 4.83847 2.47831 4.83847 3.34081C4.83847 4.1998 4.18203 4.87226 3.31503 4.87226ZM14.2916 15.0207C12.4584 15.0207 10.9668 16.5043 10.9668 18.3455C10.9668 20.1672 12.4584 21.6508 14.2916 21.6508C16.123 21.6508 17.6066 20.1672 17.6066 18.3455C17.6066 16.5043 16.123 15.0207 14.2916 15.0207Z" fill="white" fill-opacity="0.85"/>
 </g>
</svg>
