<?xml version="1.0" encoding="UTF-8"?>
<!--Generator: Apple Native CoreSVG 341-->
<!DOCTYPE svg
PUBLIC "-//W3C//DTD SVG 1.1//EN"
       "http://www.w3.org/Graphics/SVG/1.1/DTD/svg11.dtd">
<svg version="1.1" xmlns="http://www.w3.org/2000/svg" xmlns:xlink="http://www.w3.org/1999/xlink" viewBox="0 0 21.3026 20.7323">
 <g>
  <rect height="20.7323" opacity="0" width="21.3026" x="0" y="0"/>
  <path d="M14.9786 18.5263C15.0589 19.2301 14.661 19.9194 13.9701 20.1925C13.1303 20.5437 12.1797 20.1367 11.8356 19.3181L9.18334 12.7521L6.71994 15.498C6.2049 16.0787 5.32991 15.7578 5.34143 14.9714L5.41768 8.99239ZM6.80509 0.569497L16.6014 10.5472C17.1422 11.0961 16.7787 11.9222 16.0172 11.8744L13.7931 11.7459L5.48825 3.45857L5.51877 1.065C5.53205 0.349576 6.30334 0.0597343 6.80509 0.569497Z" fill="white" fill-opacity="0.85"/>
  <path d="M1.41878 3.30173L17.4627 19.3003C17.7662 19.6119 18.2703 19.6119 18.5623 19.3003C18.8561 18.9968 18.8658 18.5123 18.5623 18.2007L2.52991 2.20212C2.22639 1.90036 1.7303 1.90036 1.41878 2.20212C1.12678 2.50388 1.12678 3.00974 1.41878 3.30173Z" fill="white" fill-opacity="0.85"/>
 </g>
</svg>
