<?xml version="1.0" encoding="UTF-8"?>
<!--Generator: Apple Native CoreSVG 341-->
<!DOCTYPE svg
PUBLIC "-//W3C//DTD SVG 1.1//EN"
       "http://www.w3.org/Graphics/SVG/1.1/DTD/svg11.dtd">
<svg version="1.1" xmlns="http://www.w3.org/2000/svg" xmlns:xlink="http://www.w3.org/1999/xlink" viewBox="0 0 18.2689 22.2636">
 <g>
  <rect height="22.2636" opacity="0" width="18.2689" x="0" y="0"/>
  <path d="M6.64159 18.9388C6.64159 20.772 5.158 22.2636 3.3248 22.2636C1.49336 22.2636 0.00976562 20.772 0.00976562 18.9388C0.00976562 17.1154 1.49336 15.6238 3.3248 15.6238C5.158 15.6238 6.64159 17.1154 6.64159 18.9388ZM1.80311 18.9388C1.80311 19.7961 2.47558 20.4703 3.3248 20.4703C4.19355 20.4703 4.85 19.7978 4.85 18.9388C4.85 18.0763 4.1873 17.4172 3.3248 17.4172C2.47382 17.4172 1.80311 18.0781 1.80311 18.9388Z" fill="white" fill-opacity="0.85"/>
  <path d="M11.2695 3.31503C11.2695 3.65283 11.3202 3.97902 11.4149 4.28612L5.38905 4.28612C3.21464 4.28612 1.91327 5.26503 1.91327 6.83964C1.91327 8.44355 3.31932 9.5121 6.28163 9.81835L11.9008 10.4078C15.8515 10.8062 17.9076 12.6289 17.9076 15.424C17.9076 18.1605 15.8064 19.889 12.5994 19.889L12.1521 19.889L12.1521 21.2262C12.1521 21.9459 11.5863 22.239 11.0644 21.8236L8.11698 19.4752C7.69608 19.1467 7.68807 18.6924 8.11698 18.3594L11.0564 16.0154C11.5863 15.5902 12.1521 15.8851 12.1521 16.6164L12.1521 17.9758L12.5994 17.9758C14.6912 17.9758 15.9943 16.9986 15.9943 15.424C15.9943 13.8201 14.5803 12.7515 11.6242 12.4453L5.98905 11.8558C2.04629 11.4574 0 9.63475 0 6.83964C0 4.10312 2.09941 2.37285 5.38905 2.37285L11.4086 2.37285C11.3176 2.6713 11.2695 2.98782 11.2695 3.31503Z" fill="white" fill-opacity="0.85"/>
  <path d="M14.5846 6.63983C16.424 6.63983 17.9076 5.14823 17.9076 3.31503C17.9076 1.4916 16.424 0 14.5846 0C12.7611 0 11.2695 1.4916 11.2695 3.31503C11.2695 5.14823 12.7611 6.63983 14.5846 6.63983Z" fill="white" fill-opacity="0.85"/>
 </g>
</svg>
