<?xml version="1.0" encoding="UTF-8"?>
<!--Generator: Apple Native CoreSVG 341-->
<!DOCTYPE svg
PUBLIC "-//W3C//DTD SVG 1.1//EN"
       "http://www.w3.org/Graphics/SVG/1.1/DTD/svg11.dtd">
<svg version="1.1" xmlns="http://www.w3.org/2000/svg" xmlns:xlink="http://www.w3.org/1999/xlink" viewBox="0 0 22.7515 21.4965">
 <g>
  <rect height="21.4965" opacity="0" width="22.7515" x="0" y="0"/>
  <path d="M1.44999 18.9656L20.9947 18.9656L20.9947 18.2322C20.9947 17.8064 20.7437 17.551 20.3117 17.551L19.7447 17.551L19.7447 6.98046L20.5865 6.98046C21.1851 6.98046 21.5363 6.53886 21.5363 6.09277C21.5363 5.7664 21.351 5.47734 20.9545 5.24941L12.481 0.359374C12.0764 0.125976 11.6398 0 11.2183 0C10.7969 0 10.3523 0.125976 9.96366 0.359374L1.49023 5.24941C1.08574 5.47734 0.908396 5.7664 0.908396 6.09277C0.908396 6.53886 1.25957 6.98046 1.85995 6.98046L2.69999 6.98046L2.69999 17.551L2.14101 17.551C1.70898 17.551 1.44999 17.8064 1.44999 18.2322ZM4.32401 17.551L4.32401 5.67245L10.8779 1.99999C10.9846 1.93866 11.1072 1.90487 11.2183 1.90487C11.333 1.90487 11.4521 1.93866 11.5668 1.99999L18.1207 5.67245L18.1207 17.551ZM0.881441 21.4867L21.499 21.4867C21.9797 21.4867 22.3902 21.0849 22.3902 20.5972C22.3902 20.1148 21.9797 19.7158 21.499 19.7158L0.881441 19.7158C0.399022 19.7158 0 20.1148 0 20.5972C0 21.0832 0.399022 21.4867 0.881441 21.4867Z" fill="white" fill-opacity="0.85"/>
  <path d="M7.99569 14.4943L11.0818 14.4943C11.3789 14.4943 11.5883 14.3027 11.5883 14.0172C11.5883 13.7414 11.3789 13.548 11.0818 13.548L9.06014 13.548L9.06014 13.4371L11.3363 9.77323C11.456 9.58163 11.5324 9.44666 11.5324 9.23377C11.5324 8.92342 11.356 8.66698 10.9381 8.66698L7.95917 8.66698C7.67811 8.66698 7.46522 8.8701 7.46522 9.14588C7.46522 9.42518 7.67811 9.62479 7.95917 9.62479L10.0721 9.62479L10.0721 9.73748L7.64179 13.5016C7.53182 13.6736 7.46522 13.8068 7.46522 13.9789C7.46522 14.2797 7.68085 14.4943 7.99569 14.4943ZM13.5422 14.607C13.9217 14.607 14.1549 14.3605 14.1549 13.9598L14.1549 6.95135C14.1549 6.5408 13.9217 6.29608 13.5422 6.29608C13.1564 6.29608 12.9215 6.5408 12.9215 6.94334L12.9215 13.9598C12.9215 14.3605 13.1564 14.607 13.5422 14.607ZM12.6305 11.2449L14.9015 10.048C15.1119 9.9371 15.19 9.77909 15.19 9.62108C15.19 9.33261 14.8855 9.05741 14.5367 9.24296L12.2265 10.4646C12.0375 10.5703 11.9381 10.7398 11.9381 10.8898C11.9381 11.1863 12.2426 11.4437 12.6305 11.2449Z" fill="white" fill-opacity="0.85"/>
 </g>
</svg>
