<?xml version="1.0" encoding="UTF-8"?>
<!--Generator: Apple Native CoreSVG 341-->
<!DOCTYPE svg
PUBLIC "-//W3C//DTD SVG 1.1//EN"
       "http://www.w3.org/Graphics/SVG/1.1/DTD/svg11.dtd">
<svg version="1.1" xmlns="http://www.w3.org/2000/svg" xmlns:xlink="http://www.w3.org/1999/xlink" viewBox="0 0 20.5381 20.1848">
 <g>
  <rect height="20.1848" opacity="0" width="20.5381" x="0" y="0"/>
  <path d="M20.1767 10.0875C20.1767 15.6478 15.6576 20.175 10.0875 20.175C4.52715 20.175 0 15.6478 0 10.0875C0 4.51914 4.52715 0 10.0875 0C15.6576 0 20.1767 4.51914 20.1767 10.0875ZM11.8402 6.32479L11.8402 9.59433L11.1258 9.96933C10.9252 10.0803 10.824 10.2498 10.824 10.4193C10.824 10.7221 11.133 10.9875 11.5254 10.793L11.8402 10.623L11.8402 13.592C11.8402 14.0176 12.0885 14.2756 12.4945 14.2756C12.8873 14.2756 13.1373 14.0176 13.1373 13.592L13.1373 9.94922L13.9098 9.54297C14.1236 9.43203 14.2115 9.2625 14.2115 9.10273C14.2115 8.80976 13.8998 8.52304 13.5517 8.68476L13.1373 8.91426L13.1373 6.3328C13.1373 5.89921 12.8873 5.6412 12.4945 5.6412C12.0885 5.6412 11.8402 5.89921 11.8402 6.32479ZM6.68652 8.10781C6.38867 8.10781 6.16426 8.31093 6.16426 8.60175C6.16426 8.90234 6.38867 9.09921 6.68652 9.09921L8.87305 9.09921L8.87305 9.22167L6.35234 13.1285C6.24062 13.3041 6.16426 13.4373 6.16426 13.6129C6.16426 13.935 6.3914 14.1611 6.72128 14.1611L9.92968 14.1611C10.24 14.1611 10.4644 13.9482 10.4644 13.6494C10.4644 13.3764 10.24 13.1652 9.92968 13.1652L7.83612 13.1652L7.83612 13.0508L10.1992 9.26718C10.3207 9.05429 10.3971 8.91581 10.3971 8.69941C10.3971 8.37226 10.2154 8.10781 9.78242 8.10781Z" fill="white" fill-opacity="0.85"/>
 </g>
</svg>
