<?xml version="1.0" encoding="UTF-8"?>
<!--Generator: Apple Native CoreSVG 341-->
<!DOCTYPE svg
PUBLIC "-//W3C//DTD SVG 1.1//EN"
       "http://www.w3.org/Graphics/SVG/1.1/DTD/svg11.dtd">
<svg version="1.1" xmlns="http://www.w3.org/2000/svg" xmlns:xlink="http://www.w3.org/1999/xlink" viewBox="0 0 24.226 20.1848">
 <g>
  <rect height="20.1848" opacity="0" width="24.226" x="0" y="0"/>
  <path d="M0.721518 8.12363C-0.00973073 8.12363-0.190785 8.66894 0.204136 9.22109L2.47249 12.3723C2.78948 12.8092 3.27757 12.8012 3.58831 12.3723L5.8469 9.21308C6.24007 8.66894 6.051 8.12363 5.33929 8.12363ZM22.0239 10.0875C22.0239 4.51914 17.503 0 11.9364 0C6.368 0 1.85687 4.50937 1.84886 10.099C1.85687 10.6476 2.29378 11.0846 2.83441 11.0846C3.38303 11.0846 3.83596 10.6396 3.83596 10.091C3.83596 5.60839 7.45725 1.9871 11.9364 1.9871C16.4155 1.9871 20.0368 5.60839 20.0368 10.0875C20.0368 14.5666 16.4155 18.1879 11.9364 18.1879C9.3096 18.1879 7.0131 16.9437 5.54279 15.0176C5.1469 14.5609 4.58421 14.4129 4.10726 14.7519C3.66214 15.0734 3.55902 15.725 3.99475 16.2355C5.84631 18.6584 8.71858 20.175 11.9364 20.175C17.503 20.175 22.0239 15.6559 22.0239 10.0875Z" fill="white" fill-opacity="0.85"/>
  <path d="M8.75843 13.948L11.7953 13.948C12.0854 13.948 12.2912 13.752 12.2912 13.4814C12.2912 13.2127 12.0854 13.0166 11.7953 13.0166L9.79299 13.0166L9.79299 12.9057L12.0446 9.29198C12.1608 9.09589 12.2354 8.96444 12.2354 8.76308C12.2354 8.46152 12.0643 8.21034 11.6551 8.21034L8.7219 8.21034C8.44788 8.21034 8.24026 8.40019 8.24026 8.66894C8.24026 8.94921 8.44788 9.13729 8.7219 9.13729L10.8137 9.13729L10.8137 9.24647L8.41331 12.9764C8.30511 13.1449 8.24026 13.2666 8.24026 13.4352C8.24026 13.7369 8.45062 13.948 8.75843 13.948ZM14.2118 14.0572C14.5807 14.0572 14.8086 13.8098 14.8086 13.4195L14.8086 6.51229C14.8086 6.11405 14.5807 5.86659 14.2118 5.86659C13.8348 5.86659 13.6051 6.11405 13.6051 6.50428L13.6051 13.4195C13.6051 13.8098 13.8348 14.0572 14.2118 14.0572ZM13.3141 10.7514L15.5483 9.57207C15.7551 9.46289 15.8332 9.30839 15.8332 9.1539C15.8332 8.8707 15.5323 8.59902 15.1905 8.77304L12.9172 9.9834C12.7317 10.0793 12.634 10.2471 12.634 10.4016C12.634 10.6928 12.9332 10.9449 13.3141 10.7514Z" fill="white" fill-opacity="0.85"/>
 </g>
</svg>
