<?xml version="1.0" encoding="UTF-8"?>
<!--Generator: Apple Native CoreSVG 341-->
<!DOCTYPE svg
PUBLIC "-//W3C//DTD SVG 1.1//EN"
       "http://www.w3.org/Graphics/SVG/1.1/DTD/svg11.dtd">
<svg version="1.1" xmlns="http://www.w3.org/2000/svg" xmlns:xlink="http://www.w3.org/1999/xlink" viewBox="0 0 22.7515 21.4965">
 <g>
  <rect height="21.4965" opacity="0" width="22.7515" x="0" y="0"/>
  <path d="M12.481 0.359374L20.9545 5.24941C21.351 5.47734 21.5363 5.7664 21.5363 6.09277C21.5363 6.53886 21.1851 6.98046 20.5865 6.98046L19.7447 6.98046L19.7447 18.2742L20.3117 18.2742C20.7437 18.2742 20.9947 18.5297 20.9947 18.9572L20.9947 19.7158L21.499 19.7158C21.9797 19.7158 22.3902 20.1148 22.3902 20.5972C22.3902 21.0849 21.9797 21.4867 21.499 21.4867L0.881441 21.4867C0.399022 21.4867 0 21.0832 0 20.5972C0 20.1148 0.399022 19.7158 0.881441 19.7158L1.44999 19.7158L1.44999 18.9572C1.44999 18.5297 1.70898 18.2742 2.14101 18.2742L2.69999 18.2742L2.69999 6.98046L1.85995 6.98046C1.25957 6.98046 0.908396 6.53886 0.908396 6.09277C0.908396 5.7664 1.08574 5.47734 1.49023 5.24941L9.96366 0.359374C10.3523 0.125976 10.7969 0 11.2183 0C11.6398 0 12.0764 0.125976 12.481 0.359374ZM12.9808 7.81502L12.9808 11.0765L12.2646 11.4596C12.064 11.5687 11.9646 11.7383 11.9646 11.9096C11.9646 12.2043 12.2719 12.4777 12.666 12.2752L12.9808 12.1133L12.9808 15.0822C12.9808 15.5078 13.2273 15.7658 13.6334 15.7658C14.0262 15.7658 14.2762 15.5078 14.2762 15.0822L14.2762 11.4394L15.0486 11.0314C15.2642 10.9125 15.3521 10.751 15.3521 10.5912C15.3521 10.292 15.0387 10.0133 14.6906 10.175L14.2762 10.3965L14.2762 7.82302C14.2762 7.38143 14.0262 7.13143 13.6334 7.13143C13.2273 7.13143 12.9808 7.38143 12.9808 7.81502ZM7.82538 9.59627C7.52929 9.59627 7.30312 9.80115 7.30312 10.092C7.30312 10.3926 7.52929 10.5894 7.82538 10.5894L10.0119 10.5894L10.0119 10.7119L7.4912 14.6107C7.37948 14.7863 7.30312 14.9275 7.30312 15.1031C7.30312 15.4234 7.53026 15.6433 7.86014 15.6433L11.0685 15.6433C11.3807 15.6433 11.6033 15.4385 11.6033 15.1396C11.6033 14.8568 11.3807 14.6555 11.0685 14.6555L8.97674 14.6555L8.97674 14.5392L11.3398 10.7574C11.4596 10.5445 11.5359 10.4043 11.5359 10.1816C11.5359 9.86248 11.356 9.59627 10.9213 9.59627Z" fill="white" fill-opacity="0.85"/>
 </g>
</svg>
