<?xml version="1.0" encoding="UTF-8"?>
<!--Generator: Apple Native CoreSVG 341-->
<!DOCTYPE svg
PUBLIC "-//W3C//DTD SVG 1.1//EN"
       "http://www.w3.org/Graphics/SVG/1.1/DTD/svg11.dtd">
<svg version="1.1" xmlns="http://www.w3.org/2000/svg" xmlns:xlink="http://www.w3.org/1999/xlink" viewBox="0 0 20.5381 20.1848">
 <g>
  <rect height="20.1848" opacity="0" width="20.5381" x="0" y="0"/>
  <path d="M20.1767 10.0973C20.1767 15.6656 15.6576 20.1848 10.0875 20.1848C4.52715 20.1848 0 15.6656 0 10.0973C0 4.53691 4.52715 0.00976562 10.0875 0.00976562C15.6576 0.00976562 20.1767 4.53691 20.1767 10.0973ZM6.01835 9.58086L6.98261 14.6428C7.11933 15.3449 7.46015 15.7656 8.18007 15.7656L8.73476 15.7656L8.13281 9.15527C8.08574 8.53535 7.60078 8.20859 7.08046 8.20859C6.45175 8.20859 5.85312 8.68281 6.01835 9.58086ZM8.87636 9.29609L9.46152 15.7656L10.6717 15.7656L11.2603 9.29609C11.3269 8.42402 10.6129 8.0707 10.0635 8.0707C9.51582 8.0707 8.808 8.42402 8.87636 9.29609ZM12.0004 9.15527L11.4002 15.7656L11.9531 15.7656C12.6713 15.7656 13.0139 15.3449 13.1506 14.6428L14.1148 9.58086C14.2818 8.68281 13.6814 8.20859 13.0527 8.20859C12.5324 8.20859 12.0475 8.53535 12.0004 9.15527ZM8.02148 5.11933C7.65644 5.09257 7.358 5.42831 7.34745 5.75605C6.59726 5.74355 5.98378 6.34101 5.98378 7.10273C5.98378 7.31347 6.02558 7.49667 6.13144 7.6914C6.40664 7.54316 6.73867 7.44902 7.08046 7.44902C7.62109 7.44902 8.13691 7.68164 8.46894 8.08027C8.8373 7.59179 9.44999 7.31738 10.0635 7.31738C10.6867 7.31738 11.2994 7.59179 11.6545 8.08027C11.9883 7.68164 12.5103 7.44902 13.0527 7.44902C13.39 7.44902 13.7158 7.53691 13.991 7.69667C14.1244 7.48691 14.2 7.23359 14.2 6.98554C14.2 6.13593 13.6584 5.53046 12.8789 5.51191C12.6686 5.0289 12.2824 4.71894 11.7541 4.71894C11.4141 4.71894 11.1113 4.83886 10.8689 5.05019C10.7605 5.0164 10.6086 5.00663 10.4762 5.03241C10.2641 4.56093 9.79706 4.27148 9.27324 4.27148C8.58417 4.27148 8.12089 4.6746 8.02148 5.11933Z" fill="white" fill-opacity="0.85"/>
 </g>
</svg>
