<?xml version="1.0" encoding="UTF-8"?>
<!--Generator: Apple Native CoreSVG 341-->
<!DOCTYPE svg
PUBLIC "-//W3C//DTD SVG 1.1//EN"
       "http://www.w3.org/Graphics/SVG/1.1/DTD/svg11.dtd">
<svg version="1.1" xmlns="http://www.w3.org/2000/svg" xmlns:xlink="http://www.w3.org/1999/xlink" viewBox="0 0 18.6928 24.8926">
 <g>
  <rect height="24.8926" opacity="0" width="18.6928" x="0" y="0"/>
  <path d="M9.95273 1.55801C10.2148 1.50644 10.5223 1.52598 10.7523 1.58906C11.2352 1.15762 11.8627 0.923242 12.5391 0.923242C13.6088 0.923242 14.3818 1.54746 14.8201 2.51758C16.4045 2.5707 17.491 3.78222 17.491 5.50234C17.491 6.22541 17.239 6.89376 16.8176 7.41772C17.4347 8.06972 17.7466 9.00162 17.5322 10.1207L16.2894 16.6974C15.8869 16.3448 15.359 16.1183 14.7674 16.0541L15.9342 10.0145C16.1758 8.77792 15.3086 8.0248 14.274 8.0248C13.4488 8.0248 12.7728 8.58339 12.6822 9.6041L11.9868 17.323C11.821 17.6133 11.7183 17.9459 11.6918 18.3105C11.0789 18.4593 10.5503 18.8142 10.1819 19.2936L11.0691 9.52968C11.1793 8.32871 10.4129 7.52675 9.16484 7.52675C7.91855 7.52675 7.15214 8.32871 7.26229 9.52968L8.36503 21.6656L9.72714 21.6656C9.92955 22.3748 10.4153 22.9586 11.0565 23.2947L5.31542 23.2947C3.86621 23.2947 3.12871 22.458 2.85625 21.0061L0.799216 10.1207C0.593836 9.04879 0.871397 8.14861 1.44076 7.50449C1.06366 7.02493 0.838671 6.41605 0.838671 5.75976C0.838671 4.22871 2.08222 2.97363 3.60625 3.00488C3.62734 2.35137 4.24004 1.69062 4.96113 1.73262C5.15976 0.842578 6.11367 0 7.50566 0C8.5664 0 9.51171 0.607226 9.95273 1.55801ZM2.39726 10.0145L4.50312 20.9148C4.5955 21.4115 4.88339 21.6656 5.3871 21.6656L6.73594 21.6656L5.64121 9.6041C5.55859 8.58339 4.88261 8.0248 4.05742 8.0248C3.02284 8.0248 2.15565 8.77792 2.39726 10.0145ZM6.27343 3.35078C5.28964 2.88534 4.26347 3.63808 4.40371 4.59726C3.3332 4.24238 2.38105 4.88222 2.38105 5.7457C2.38105 6.09859 2.51455 6.40988 2.7387 6.62727C3.14449 6.4737 3.59196 6.39395 4.05742 6.39395C4.92226 6.39395 5.68847 6.73145 6.24238 7.33281C6.81738 6.45899 7.87031 5.8959 9.16484 5.8959C10.4611 5.8959 11.5141 6.45899 12.0891 7.33281C12.643 6.73145 13.4092 6.39395 14.274 6.39395C14.6967 6.39395 15.1046 6.45973 15.4793 6.58802C15.7664 6.33808 15.9539 5.98295 15.9539 5.60527C15.9539 4.50937 15.1041 3.95371 13.9019 4.14199C13.9752 3.16542 13.4723 2.4746 12.6127 2.4746C11.9975 2.4746 11.4525 2.81816 11.2215 3.46034C10.6984 2.96757 9.53027 2.87617 8.89726 3.31718C9.05703 2.21308 8.32128 1.55839 7.50566 1.55839C6.65468 1.55839 5.96542 2.23632 6.27343 3.35078Z" fill="white" fill-opacity="0.85"/>
  <path d="M14.3996 24.8748C15.3644 24.8748 16.2547 24.3359 16.701 23.5051C17.8824 23.207 18.6928 22.1465 18.6928 20.9269C18.6928 19.8422 18.0437 18.9023 17.0916 18.4275C17.0498 16.9861 15.8676 16.0311 14.3996 16.0311C12.9547 16.0311 11.791 16.9471 11.6918 18.3105C10.4971 18.6006 9.62265 19.6736 9.62265 20.9189C9.62265 22.3293 10.6896 23.4617 12.0627 23.5982C12.5471 24.3607 13.4373 24.8748 14.3996 24.8748ZM14.3996 23.5201C13.6547 23.5201 12.941 23.0566 12.981 22.1672C11.992 22.485 10.9658 21.9709 10.9658 20.9189C10.9658 19.8369 11.8127 19.243 13.0527 19.4621C12.7297 18.5592 13.1976 17.384 14.3996 17.384C15.559 17.384 16.1006 18.5033 15.781 19.5199C16.7086 19.4135 17.307 20.0346 17.307 20.9635C17.307 21.784 16.7351 22.3189 15.7312 22.2293C15.7738 22.9848 15.0867 23.5201 14.3996 23.5201Z" fill="white" fill-opacity="0.85"/>
 </g>
</svg>
