<?xml version="1.0" encoding="UTF-8"?>
<!--Generator: Apple Native CoreSVG 341-->
<!DOCTYPE svg
PUBLIC "-//W3C//DTD SVG 1.1//EN"
       "http://www.w3.org/Graphics/SVG/1.1/DTD/svg11.dtd">
<svg version="1.1" xmlns="http://www.w3.org/2000/svg" xmlns:xlink="http://www.w3.org/1999/xlink" viewBox="0 0 18.5894 18.2316">
 <g>
  <rect height="18.2316" opacity="0" width="18.5894" x="0" y="0"/>
  <path d="M18.2281 3.17148L18.2281 15.0646C18.2281 17.1502 17.1404 18.2281 15.0246 18.2281L3.20351 18.2281C1.0957 18.2281 0 17.1502 0 15.0646L0 3.17148C0 1.08769 1.0957 0 3.20351 0L15.0246 0C17.1404 0 18.2281 1.08769 18.2281 3.17148ZM3.73457 9.11269C3.73457 12.0934 6.13027 14.4971 9.11718 14.4971C12.0978 14.4971 14.4935 12.0934 14.4935 9.11269C14.4935 6.13203 12.0978 3.72832 9.11718 3.72832C6.13027 3.72832 3.73457 6.13203 3.73457 9.11269ZM10.2978 11.7578C10.2978 12.4023 9.76523 12.943 9.11718 12.943C8.4664 12.943 7.93554 12.4023 7.93554 11.7578C7.93554 11.1133 8.4664 10.5744 9.11718 10.5744C9.76523 10.5744 10.2978 11.1115 10.2978 11.7578ZM7.82597 9.05117C7.82597 9.69746 7.29511 10.2363 6.64081 10.2363C5.99628 10.2363 5.45566 9.69746 5.45566 9.05117C5.45566 8.40664 5.99628 7.86777 6.64081 7.86777C7.29511 7.86777 7.82597 8.40664 7.82597 9.05117ZM12.7391 9.05117C12.7391 9.69746 12.202 10.2363 11.5557 10.2363C10.9076 10.2363 10.3705 9.69922 10.3705 9.05117C10.3705 8.40664 10.9111 7.86777 11.5557 7.86777C12.2002 7.86777 12.7391 8.40664 12.7391 9.05117Z" fill="white" fill-opacity="0.85"/>
 </g>
</svg>
