<?xml version="1.0" encoding="UTF-8"?>
<!--Generator: Apple Native CoreSVG 341-->
<!DOCTYPE svg
PUBLIC "-//W3C//DTD SVG 1.1//EN"
       "http://www.w3.org/Graphics/SVG/1.1/DTD/svg11.dtd">
<svg version="1.1" xmlns="http://www.w3.org/2000/svg" xmlns:xlink="http://www.w3.org/1999/xlink" viewBox="0 0 21.8357 17.239">
 <g>
  <rect height="17.239" opacity="0" width="21.8357" x="0" y="0"/>
  <path d="M5.36386 17.2195L16.1025 17.2195C16.8611 17.2195 17.5779 16.9508 18.1013 16.4416C20.2211 14.4223 21.4744 11.4914 21.4744 8.61464C21.4744 5.73788 20.2211 2.80703 18.1013 0.787693C17.5779 0.278515 16.8611 0 16.1025 0L5.36386 0C4.58124 0 3.83066 0.302538 3.29121 0.851756C1.2373 2.86308 0 5.76992 0 8.61464C0 11.4914 1.25332 14.4223 3.37304 16.4416C3.89648 16.9508 4.60527 17.2195 5.36386 17.2195ZM5.41308 15.3885C5.07929 15.3885 4.84042 15.3006 4.63983 15.1035C2.91972 13.481 1.87108 11.0404 1.87108 8.65468C1.87108 6.27069 2.92772 3.80429 4.65585 2.18983C4.85819 2.00077 5.0873 1.91464 5.41308 1.91464L16.0533 1.91464C16.3871 1.91464 16.634 2.00878 16.8363 2.20761C18.5484 3.83007 19.6051 6.27069 19.6051 8.65468C19.6051 11.0404 18.5484 13.481 16.8363 15.1035C16.634 15.3006 16.3871 15.3885 16.0533 15.3885Z" fill="white" fill-opacity="0.85"/>
  <path d="M6.62753 12.5529C7.14823 12.5529 7.57225 12.1547 7.57225 11.6277L7.57225 5.69315C7.57225 5.1662 7.14823 4.74218 6.62753 4.74218C6.10058 4.74218 5.70058 5.1662 5.70058 5.69315L5.70058 11.6277C5.70058 12.1547 6.09706 12.5529 6.62753 12.5529ZM14.8389 12.5529C15.3658 12.5529 15.7738 12.1449 15.7738 11.6162L15.7738 5.69667C15.7738 5.1662 15.3658 4.74218 14.8389 4.74218C14.3101 4.74218 13.9039 5.16796 13.9039 5.69667L13.9039 11.6162C13.9039 12.1369 14.3101 12.5529 14.8389 12.5529Z" fill="white" fill-opacity="0.85"/>
 </g>
</svg>
