<?xml version="1.0" encoding="UTF-8"?>
<!--Generator: Apple Native CoreSVG 341-->
<!DOCTYPE svg
PUBLIC "-//W3C//DTD SVG 1.1//EN"
       "http://www.w3.org/Graphics/SVG/1.1/DTD/svg11.dtd">
<svg version="1.1" xmlns="http://www.w3.org/2000/svg" xmlns:xlink="http://www.w3.org/1999/xlink" viewBox="0 0 18.5894 18.2316">
 <g>
  <rect height="18.2316" opacity="0" width="18.5894" x="0" y="0"/>
  <path d="M3.20351 18.2281L15.0246 18.2281C17.1404 18.2281 18.2281 17.1502 18.2281 15.0646L18.2281 3.17148C18.2281 1.08769 17.1404 0 15.0246 0L3.20351 0C1.0957 0 0 1.08769 0 3.17148L0 15.0646C0 17.1502 1.0957 18.2281 3.20351 18.2281ZM3.31444 16.3148C2.40643 16.3148 1.91327 15.8465 1.91327 14.8977L1.91327 3.34023C1.91327 2.39139 2.40643 1.91503 3.31444 1.91503L14.9137 1.91503C15.8137 1.91503 16.3148 2.39139 16.3148 3.34023L16.3148 14.8977C16.3148 15.8465 15.8137 16.3148 14.9137 16.3148Z" fill="white" fill-opacity="0.85"/>
  <path d="M5.45526 13.6154L12.7729 13.6154C13.3477 13.6154 13.7664 13.1984 13.7664 12.6219L13.7664 5.59999C13.7664 5.02343 13.3477 4.60644 12.7729 4.60644L5.45526 4.60644C4.88046 4.60644 4.46171 5.02343 4.46171 5.59999L4.46171 12.6219C4.46171 13.1984 4.88046 13.6154 5.45526 13.6154ZM9.12695 8.49433C8.58007 8.49433 8.13613 8.05839 8.13613 7.51503C8.13613 6.97167 8.58007 6.54374 9.12695 6.54374C9.65878 6.54374 10.1045 6.97343 10.1045 7.51503C10.1045 8.05839 9.65878 8.49433 9.12695 8.49433ZM7.0621 11.6764C6.52499 11.6764 6.07929 11.2484 6.07929 10.7051C6.07929 10.1537 6.52499 9.71777 7.0621 9.71777C7.6037 9.71777 8.04941 10.1555 8.04941 10.7051C8.04941 11.2484 7.6037 11.6764 7.0621 11.6764ZM11.1838 11.6764C10.6404 11.6764 10.1965 11.2484 10.1965 10.7051C10.1965 10.1555 10.6404 9.71777 11.1838 9.71777C11.7271 9.71777 12.1666 10.1555 12.1666 10.7051C12.1666 11.2484 11.7271 11.6764 11.1838 11.6764Z" fill="white" fill-opacity="0.85"/>
 </g>
</svg>
