<?xml version="1.0" encoding="UTF-8"?>
<!--Generator: Apple Native CoreSVG 341-->
<!DOCTYPE svg
PUBLIC "-//W3C//DTD SVG 1.1//EN"
       "http://www.w3.org/Graphics/SVG/1.1/DTD/svg11.dtd">
<svg version="1.1" xmlns="http://www.w3.org/2000/svg" xmlns:xlink="http://www.w3.org/1999/xlink" viewBox="0 0 24.8012 15.5074">
 <g>
  <rect height="15.5074" opacity="0" width="24.8012" x="0" y="0"/>
  <path d="M0 8.96426C0 10.3539 0.770311 11.1127 2.15996 11.1127L6.19336 11.1127C7.27012 11.1127 7.80997 11.5996 8.56368 12.5994C9.94024 14.4299 12.0475 15.4176 14.2637 15.4176L16.9342 15.4176C18.1752 15.4176 18.7309 14.716 18.7309 13.4687L18.7309 12.393L23.0111 12.393C23.8045 12.393 24.4398 11.7576 24.4398 10.9838C24.4398 10.1859 23.8045 9.55059 23.0111 9.55059L18.7309 9.55059L18.7309 5.87226L23.0111 5.87226C23.8045 5.87226 24.4398 5.23066 24.4398 4.45683C24.4398 3.67324 23.8045 3.03164 23.0111 3.03164L18.7309 3.03164L18.7309 1.93282C18.7309 0.685548 18.1752 0 16.9342 0L14.2637 0C12.0475 0 9.94024 0.96992 8.56368 2.81816C7.80997 3.82598 7.27012 4.30488 6.19336 4.30488L2.15996 4.30488C0.780077 4.30488 0 5.03789 0 6.45156ZM1.83065 8.83418L1.83065 6.58339C1.83065 6.32479 2.02968 6.13554 2.28827 6.13554L6.19336 6.13554C7.86953 6.13554 8.91992 5.38886 10.0336 3.91737C11.1096 2.45585 12.4588 1.83241 14.2637 1.83241L16.4524 1.83241C16.7109 1.83241 16.9002 2.01366 16.9002 2.25624L16.9002 13.1453C16.9002 13.3959 16.7109 13.5852 16.4524 13.5852L14.2637 13.5852C12.4668 13.5852 11.1096 12.9537 10.0336 11.5002C8.92793 10.0287 7.87754 9.28204 6.19336 9.28204L2.28827 9.28204C2.02968 9.28204 1.83065 9.09278 1.83065 8.83418Z" fill="white" fill-opacity="0.85"/>
 </g>
</svg>
