<?xml version="1.0" encoding="UTF-8"?>
<!--Generator: Apple Native CoreSVG 341-->
<!DOCTYPE svg
PUBLIC "-//W3C//DTD SVG 1.1//EN"
       "http://www.w3.org/Graphics/SVG/1.1/DTD/svg11.dtd">
<svg version="1.1" xmlns="http://www.w3.org/2000/svg" xmlns:xlink="http://www.w3.org/1999/xlink" viewBox="0 0 18.5894 18.2316">
 <g>
  <rect height="18.2316" opacity="0" width="18.5894" x="0" y="0"/>
  <path d="M3.20351 18.2281L15.0246 18.2281C17.1404 18.2281 18.2281 17.1502 18.2281 15.0646L18.2281 3.17148C18.2281 1.08769 17.1404 0 15.0246 0L3.20351 0C1.0957 0 0 1.08769 0 3.17148L0 15.0646C0 17.1502 1.0957 18.2281 3.20351 18.2281ZM3.31444 16.3148C2.40643 16.3148 1.91327 15.8465 1.91327 14.8977L1.91327 3.34023C1.91327 2.39139 2.40643 1.91503 3.31444 1.91503L14.9137 1.91503C15.8137 1.91503 16.3148 2.39139 16.3148 3.34023L16.3148 14.8977C16.3148 15.8465 15.8137 16.3148 14.9137 16.3148Z" fill="white" fill-opacity="0.85"/>
  <path d="M6.09335 5.77382C5.43163 5.77382 5.13808 6.00819 4.82948 6.4037L3.26932 8.4455C2.95702 8.83769 2.95702 9.35488 3.26932 9.75859L4.83124 11.8182C5.14159 12.2137 5.50546 12.44 6.09335 12.44L12.1348 12.44C12.7227 12.44 13.0865 12.2137 13.3969 11.8182L14.9588 9.75859C15.2711 9.35488 15.2711 8.83769 14.9588 8.4455L13.3986 6.4037C13.09 6.00819 12.7965 5.77382 12.1348 5.77382ZM5.78007 8.19277C6.28085 8.19277 6.69999 8.61191 6.69999 9.11269C6.69999 9.61171 6.28085 10.0228 5.78007 10.0228C5.29081 10.0228 4.87167 9.61171 4.87167 9.11269C4.87167 8.61191 5.29081 8.19277 5.78007 8.19277ZM9.11718 9.31875C9.61796 9.31875 10.0291 9.73789 10.0291 10.2289C10.0291 10.7279 9.61796 11.1471 9.11718 11.1471C8.61015 11.1471 8.19902 10.7279 8.19902 10.2289C8.19902 9.73789 8.61015 9.31875 9.11718 9.31875ZM12.448 8.19277C12.9373 8.19277 13.3564 8.61191 13.3564 9.11269C13.3564 9.61171 12.9373 10.0228 12.448 10.0228C11.9473 10.0228 11.5361 9.61171 11.5361 9.11269C11.5361 8.61191 11.9473 8.19277 12.448 8.19277Z" fill="white" fill-opacity="0.85"/>
 </g>
</svg>
