<?xml version="1.0" encoding="UTF-8"?>
<!--Generator: Apple Native CoreSVG 341-->
<!DOCTYPE svg
PUBLIC "-//W3C//DTD SVG 1.1//EN"
       "http://www.w3.org/Graphics/SVG/1.1/DTD/svg11.dtd">
<svg version="1.1" xmlns="http://www.w3.org/2000/svg" xmlns:xlink="http://www.w3.org/1999/xlink" viewBox="0 0 22.89 21.0828">
 <g>
  <rect height="21.0828" opacity="0" width="22.89" x="0" y="0"/>
  <path d="M11.2635 21.0633C16.0283 21.0633 20.4195 17.9406 20.4195 14.5127L20.4195 13.6904L21.183 13.6904C21.9849 13.6904 22.5287 13.1467 22.5287 12.351L22.5287 8.72207C22.5287 7.91836 21.9849 7.37461 21.183 7.37461L20.4195 7.37461L20.4195 6.55859C20.4195 3.13242 16.0283 0 11.2635 0C6.50039 0 2.10918 3.13242 2.10918 6.55859L2.10918 7.37461L1.3457 7.37461C0.543748 7.37461 0 7.91836 0 8.72207L0 12.351C0 13.1467 0.543748 13.6904 1.3457 13.6904L2.10918 13.6904L2.10918 14.5127C2.10918 17.9406 6.50039 21.0633 11.2635 21.0633ZM11.2635 19.252C7.45937 19.252 3.91874 16.8402 3.91874 14.4301L3.91874 6.6412C3.91874 4.2328 7.45937 1.81308 11.2635 1.81308C15.0693 1.81308 18.6082 4.2328 18.6082 6.6412L18.6082 14.4301C18.6082 16.8402 15.0693 19.252 11.2635 19.252Z" fill="white" fill-opacity="0.85"/>
  <path d="M6.83241 12.4068C7.87011 12.4068 8.70272 11.5662 8.70272 10.5365C8.70272 9.50683 7.87011 8.66621 6.83241 8.66621C5.80272 8.66621 4.97011 9.50683 4.97011 10.5365C4.97011 11.5662 5.80272 12.4068 6.83241 12.4068ZM15.6883 12.4068C16.726 12.4068 17.5586 11.5662 17.5586 10.5365C17.5586 9.50683 16.726 8.66621 15.6883 8.66621C14.6586 8.66621 13.826 9.50683 13.826 10.5365C13.826 11.5662 14.6586 12.4068 15.6883 12.4068Z" fill="white" fill-opacity="0.85"/>
 </g>
</svg>
