<?xml version="1.0" encoding="UTF-8"?>
<!--Generator: Apple Native CoreSVG 341-->
<!DOCTYPE svg
PUBLIC "-//W3C//DTD SVG 1.1//EN"
       "http://www.w3.org/Graphics/SVG/1.1/DTD/svg11.dtd">
<svg version="1.1" xmlns="http://www.w3.org/2000/svg" xmlns:xlink="http://www.w3.org/1999/xlink" viewBox="0 0 19.2258 18.2476">
 <g>
  <rect height="18.2476" opacity="0" width="19.2258" x="0" y="0"/>
  <path d="M18.8644 3.19101L18.8644 15.0762C18.8644 17.16 17.7687 18.2476 15.6609 18.2476L3.20351 18.2476C1.0957 18.2476 0 17.168 0 15.0762L0 3.19101C0 1.09746 1.0957 0.0195312 3.20351 0.0195312L15.6609 0.0195312C17.7687 0.0195312 18.8644 1.10547 18.8644 3.19101ZM9.0291 9.9793C8.65136 9.9793 8.38183 10.2488 8.38183 10.6346L8.38183 13.5336C8.38183 13.9246 8.6416 14.1844 9.0291 14.1844L9.83085 14.1844C10.2201 14.1844 10.4816 13.9326 10.4816 13.5336L10.4816 10.6346C10.4816 10.2488 10.2166 9.9793 9.83085 9.9793ZM6.54843 5.008L4.25898 7.28945C3.9832 7.56875 3.98144 7.93496 4.25097 8.21601L4.82812 8.78164C5.09765 9.06269 5.46562 9.06093 5.74491 8.78164L8.03613 6.50195C8.31191 6.21992 8.31015 5.85468 8.03437 5.57539L7.46523 5.00175C7.18945 4.73222 6.83046 4.72871 6.54843 5.008ZM11.3992 5.00175L10.8301 5.57539C10.5543 5.85468 10.5525 6.21992 10.8283 6.50195L13.1195 8.78164C13.3988 9.06093 13.7588 9.06269 14.0363 8.78164L14.6135 8.208C14.883 7.93496 14.8812 7.57676 14.5975 7.28945L12.316 5.008C12.042 4.72871 11.675 4.73222 11.3992 5.00175Z" fill="white" fill-opacity="0.85"/>
 </g>
</svg>
