<?xml version="1.0" encoding="UTF-8"?>
<!--Generator: Apple Native CoreSVG 341-->
<!DOCTYPE svg
PUBLIC "-//W3C//DTD SVG 1.1//EN"
       "http://www.w3.org/Graphics/SVG/1.1/DTD/svg11.dtd">
<svg version="1.1" xmlns="http://www.w3.org/2000/svg" xmlns:xlink="http://www.w3.org/1999/xlink" viewBox="0 0 26.7359 13.9734">
 <g>
  <rect height="13.9734" opacity="0" width="26.7359" x="0" y="0"/>
  <path d="M7.34394 0C5.94453 0 5.11582 0.599803 4.1043 1.64511L0.80117 5.11465C-0.271483 6.21758-0.25996 7.65468 0.793163 8.77089L4.09277 12.299C5.0164 13.2742 6.03418 13.9521 7.34394 13.9521L19.0289 13.9521C20.3387 13.9521 21.3502 13.2742 22.2818 12.299L25.5734 8.77089C26.6266 7.65292 26.6461 6.21758 25.5734 5.11465L22.2685 1.64511C21.249 0.599803 20.4283 0 19.0289 0ZM7.34394 1.87284L19.0289 1.87284C19.8539 1.87284 20.1686 2.13847 20.7945 2.7787L24.0959 6.22421C24.5818 6.72441 24.5801 7.17538 24.1022 7.67109L20.7928 11.1637C20.2484 11.724 19.7607 12.0793 19.0289 12.0793L7.34394 12.0793C6.60409 12.0793 6.12616 11.724 5.58183 11.1637L2.27245 7.67109C1.78475 7.17538 1.783 6.72441 2.27694 6.22421L5.58007 2.7787C6.20605 2.13847 6.51269 1.87284 7.34394 1.87284Z" fill="white" fill-opacity="0.85"/>
  <path d="M6.87245 5.29218C5.93944 5.29218 5.17421 6.06542 5.17421 6.99843C5.17421 7.93144 5.93944 8.70468 6.87245 8.70468C7.81347 8.70468 8.5787 7.93144 8.5787 6.99843C8.5787 6.06542 7.81347 5.29218 6.87245 5.29218ZM13.1953 6.925C12.2543 6.925 11.4891 7.69824 11.4891 8.63125C11.4891 9.56425 12.2543 10.3375 13.1953 10.3375C14.1283 10.3375 14.8936 9.56425 14.8936 8.63125C14.8936 7.69824 14.1283 6.925 13.1953 6.925ZM19.5102 5.29218C18.5772 5.29218 17.8022 6.06542 17.8022 6.99843C17.8022 7.93144 18.5772 8.70468 19.5102 8.70468C20.4414 8.70468 21.2164 7.93144 21.2164 6.99843C21.2164 6.06542 20.4414 5.29218 19.5102 5.29218Z" fill="white" fill-opacity="0.85"/>
 </g>
</svg>
