<?xml version="1.0" encoding="UTF-8"?>
<!--Generator: Apple Native CoreSVG 341-->
<!DOCTYPE svg
PUBLIC "-//W3C//DTD SVG 1.1//EN"
       "http://www.w3.org/Graphics/SVG/1.1/DTD/svg11.dtd">
<svg version="1.1" xmlns="http://www.w3.org/2000/svg" xmlns:xlink="http://www.w3.org/1999/xlink" viewBox="0 0 19.2258 18.2476">
 <g>
  <rect height="18.2476" opacity="0" width="19.2258" x="0" y="0"/>
  <path d="M18.8644 3.19101L18.8644 15.0762C18.8644 17.16 17.7687 18.2476 15.6609 18.2476L3.20351 18.2476C1.0957 18.2476 0 17.168 0 15.0762L0 3.19101C0 1.09746 1.0957 0.0195312 3.20351 0.0195312L15.6609 0.0195312C17.7687 0.0195312 18.8644 1.10547 18.8644 3.19101ZM4.47206 12.5303C4.47206 13.3947 5.17499 14.0977 6.03945 14.0977C6.89765 14.0977 7.59081 13.3947 7.59081 12.5303C7.59081 11.6738 6.89765 10.9789 6.03945 10.9789C5.17499 10.9789 4.47206 11.6738 4.47206 12.5303ZM11.2736 12.5303C11.2736 13.3947 11.9668 14.0977 12.833 14.0977C13.6814 14.0977 14.3924 13.3947 14.3924 12.5303C14.3924 11.6738 13.6814 10.9789 12.833 10.9789C11.9668 10.9789 11.2736 11.6738 11.2736 12.5303ZM7.50625 6.07948C7.50625 7.15077 8.36718 8.00722 9.43222 8.00722C10.4973 8.00722 11.3582 7.15077 11.3582 6.07948C11.3582 5.0162 10.4973 4.15351 9.43222 4.15351C8.36718 4.15351 7.50625 5.0162 7.50625 6.07948Z" fill="white" fill-opacity="0.85"/>
 </g>
</svg>
