<?xml version="1.0" encoding="UTF-8"?>
<!--Generator: Apple Native CoreSVG 341-->
<!DOCTYPE svg
PUBLIC "-//W3C//DTD SVG 1.1//EN"
       "http://www.w3.org/Graphics/SVG/1.1/DTD/svg11.dtd">
<svg version="1.1" xmlns="http://www.w3.org/2000/svg" xmlns:xlink="http://www.w3.org/1999/xlink" viewBox="0 0 19.2258 18.2476">
 <g>
  <rect height="18.2476" opacity="0" width="19.2258" x="0" y="0"/>
  <path d="M3.20351 18.2476L15.6609 18.2476C17.7687 18.2476 18.8644 17.16 18.8644 15.0762L18.8644 3.19101C18.8644 1.10547 17.7687 0.0195312 15.6609 0.0195312L3.20351 0.0195312C1.0957 0.0195312 0 1.09746 0 3.19101L0 15.0762C0 17.168 1.0957 18.2476 3.20351 18.2476ZM3.31444 16.3344C2.40643 16.3344 1.91327 15.8643 1.91327 14.9154L1.91327 3.34999C1.91327 2.40116 2.40643 1.9328 3.31444 1.9328L15.542 1.9328C16.442 1.9328 16.9512 2.40116 16.9512 3.34999L16.9512 14.9154C16.9512 15.8643 16.442 16.3344 15.542 16.3344Z" fill="white" fill-opacity="0.85"/>
  <path d="M6.17675 13.7129C6.99335 13.7129 7.65995 13.0383 7.65995 12.2137C7.65995 11.3953 6.99335 10.7225 6.17675 10.7225C5.34413 10.7225 4.67753 11.3953 4.67753 12.2137C4.67753 13.0383 5.34413 13.7129 6.17675 13.7129ZM12.6957 13.7129C13.5123 13.7129 14.1869 13.0383 14.1869 12.2137C14.1869 11.3953 13.5123 10.7225 12.6957 10.7225C11.8711 10.7225 11.2045 11.3953 11.2045 12.2137C11.2045 13.0383 11.8711 13.7129 12.6957 13.7129ZM9.43222 7.50741C10.2488 7.50741 10.9234 6.84081 10.9234 6.00819C10.9234 5.18984 10.2488 4.52499 9.43222 4.52499C8.60761 4.52499 7.933 5.18984 7.933 6.00819C7.933 6.84081 8.60761 7.50741 9.43222 7.50741Z" fill="white" fill-opacity="0.85"/>
 </g>
</svg>
