<?xml version="1.0" encoding="UTF-8"?>
<!--Generator: Apple Native CoreSVG 341-->
<!DOCTYPE svg
PUBLIC "-//W3C//DTD SVG 1.1//EN"
       "http://www.w3.org/Graphics/SVG/1.1/DTD/svg11.dtd">
<svg version="1.1" xmlns="http://www.w3.org/2000/svg" xmlns:xlink="http://www.w3.org/1999/xlink" viewBox="0 0 18.5894 18.2316">
 <g>
  <rect height="18.2316" opacity="0" width="18.5894" x="0" y="0"/>
  <path d="M3.20351 18.2281L15.0246 18.2281C17.1404 18.2281 18.2281 17.1502 18.2281 15.0646L18.2281 3.17148C18.2281 1.08769 17.1404 0 15.0246 0L3.20351 0C1.0957 0 0 1.08769 0 3.17148L0 15.0646C0 17.1502 1.0957 18.2281 3.20351 18.2281ZM3.31444 16.3148C2.40643 16.3148 1.91327 15.8465 1.91327 14.8977L1.91327 3.34023C1.91327 2.39139 2.40643 1.91503 3.31444 1.91503L14.9137 1.91503C15.8137 1.91503 16.3148 2.39139 16.3148 3.34023L16.3148 14.8977C16.3148 15.8465 15.8137 16.3148 14.9137 16.3148Z" fill="white" fill-opacity="0.85"/>
  <path d="M3.63495 9.9998C3.63495 10.385 3.90116 10.6432 4.28456 10.6432L4.66503 10.6432L4.66503 11.0521C4.66503 12.7107 6.80409 14.2291 9.11718 14.2291C11.424 14.2291 13.5631 12.7107 13.5631 11.0521L13.5631 10.6432L13.9436 10.6432C14.327 10.6432 14.5932 10.385 14.5932 9.9998L14.5932 8.23359C14.5932 7.84843 14.327 7.59023 13.9436 7.59023L13.5631 7.59023L13.5631 7.17323C13.5631 5.52441 11.424 4.00429 9.11718 4.00429C6.80409 4.00429 4.66503 5.52441 4.66503 7.17323L4.66503 7.59023L4.28456 7.59023C3.90116 7.59023 3.63495 7.84843 3.63495 8.23359ZM6.7207 10.2219C6.11503 10.2219 5.61327 9.73164 5.61327 9.11269C5.61327 8.50175 6.11503 8.01152 6.7207 8.01152C7.33788 8.01152 7.82988 8.50351 7.82988 9.11269C7.82988 9.72988 7.33788 10.2219 6.7207 10.2219ZM11.5074 10.2219C10.8982 10.2219 10.3982 9.72988 10.3982 9.11269C10.3982 8.50351 10.8982 8.01152 11.5074 8.01152C12.1131 8.01152 12.6166 8.50175 12.6166 9.11269C12.6166 9.73164 12.1131 10.2219 11.5074 10.2219Z" fill="white" fill-opacity="0.85"/>
 </g>
</svg>
