<?xml version="1.0" encoding="UTF-8"?>
<!--Generator: Apple Native CoreSVG 341-->
<!DOCTYPE svg
PUBLIC "-//W3C//DTD SVG 1.1//EN"
       "http://www.w3.org/Graphics/SVG/1.1/DTD/svg11.dtd">
<svg version="1.1" xmlns="http://www.w3.org/2000/svg" xmlns:xlink="http://www.w3.org/1999/xlink" viewBox="0 0 19.2258 18.2476">
 <g>
  <rect height="18.2476" opacity="0" width="19.2258" x="0" y="0"/>
  <path d="M18.8644 3.19101L18.8644 15.0762C18.8644 17.16 17.7687 18.2476 15.6609 18.2476L3.20351 18.2476C1.0957 18.2476 0 17.168 0 15.0762L0 3.19101C0 1.09746 1.0957 0.0195312 3.20351 0.0195312L15.6609 0.0195312C17.7687 0.0195312 18.8644 1.10547 18.8644 3.19101ZM4.68085 11.833C4.28534 11.833 4.03007 12.1025 4.03007 12.4803L4.03007 13.2918C4.03007 13.6793 4.28359 13.9328 4.68085 13.9328L7.26464 13.9328C7.65214 13.9328 7.91366 13.6793 7.91366 13.2918L7.91366 12.4803C7.91366 12.0945 7.65038 11.833 7.26464 11.833ZM11.5998 11.833C11.2141 11.833 10.9428 12.0945 10.9428 12.4803L10.9428 13.2918C10.9428 13.6793 11.2123 13.9328 11.5998 13.9328L14.1773 13.9328C14.5809 13.9328 14.8361 13.6775 14.8361 13.2918L14.8361 12.4803C14.8361 12.1025 14.5711 11.833 14.1773 11.833ZM9.02734 3.8166C8.64961 3.8166 8.37832 4.07988 8.37832 4.46738L8.37832 7.33828C8.37832 7.72753 8.64785 7.99531 9.02734 7.99531L9.8291 7.99531C10.2166 7.99531 10.4764 7.72753 10.4764 7.33828L10.4764 4.46738C10.4764 4.07988 10.2148 3.8166 9.8291 3.8166Z" fill="white" fill-opacity="0.85"/>
 </g>
</svg>
