<?xml version="1.0" encoding="UTF-8"?>
<!--Generator: Apple Native CoreSVG 341-->
<!DOCTYPE svg
PUBLIC "-//W3C//DTD SVG 1.1//EN"
       "http://www.w3.org/Graphics/SVG/1.1/DTD/svg11.dtd">
<svg version="1.1" xmlns="http://www.w3.org/2000/svg" xmlns:xlink="http://www.w3.org/1999/xlink" viewBox="0 0 26.7359 13.9734">
 <g>
  <rect height="13.9734" opacity="0" width="26.7359" x="0" y="0"/>
  <path d="M22.2685 1.64511L25.5734 5.11465C26.6461 6.21758 26.6266 7.65292 25.5734 8.77089L22.2818 12.299C21.3502 13.2742 20.3387 13.9521 19.0289 13.9521L7.34394 13.9521C6.03418 13.9521 5.0164 13.2742 4.09277 12.299L0.793163 8.77089C-0.25996 7.65468-0.271483 6.21758 0.80117 5.11465L4.1043 1.64511C5.11582 0.599803 5.94453 0 7.34394 0L19.0289 0C20.4283 0 21.249 0.599803 22.2685 1.64511ZM11.4191 8.66406C11.4191 9.63691 12.2127 10.4402 13.1953 10.4402C14.1682 10.4402 14.9635 9.63691 14.9635 8.66406C14.9635 7.69121 14.1682 6.87988 13.1953 6.87988C12.2127 6.87988 11.4191 7.69121 11.4191 8.66406ZM4.84472 6.96562C4.84472 7.93671 5.63827 8.7498 6.61288 8.7498C7.59198 8.7498 8.39706 7.93671 8.39706 6.96562C8.39706 5.99101 7.59198 5.18945 6.61288 5.18945C5.63827 5.18945 4.84472 5.99101 4.84472 6.96562ZM17.9856 6.96562C17.9856 7.93671 18.7986 8.7498 19.7697 8.7498C20.7443 8.7498 21.5459 7.93671 21.5459 6.96562C21.5459 5.99101 20.7443 5.18945 19.7697 5.18945C18.7986 5.18945 17.9856 5.99101 17.9856 6.96562Z" fill="white" fill-opacity="0.85"/>
 </g>
</svg>
