<?xml version="1.0" encoding="UTF-8"?>
<!--Generator: Apple Native CoreSVG 341-->
<!DOCTYPE svg
PUBLIC "-//W3C//DTD SVG 1.1//EN"
       "http://www.w3.org/Graphics/SVG/1.1/DTD/svg11.dtd">
<svg version="1.1" xmlns="http://www.w3.org/2000/svg" xmlns:xlink="http://www.w3.org/1999/xlink" viewBox="0 0 26.1179 15.473">
 <g>
  <rect height="15.473" opacity="0" width="26.1179" x="0" y="0"/>
  <path d="M7.0447 0C5.64353 0 4.70037 0.501366 3.8033 1.63535L0.70603 5.66875C-0.240647 6.88789-0.227366 8.51152 0.698022 9.72441L3.79177 13.7986C4.61697 14.8785 5.73493 15.4518 7.0447 15.4518L18.7119 15.4518C20.0217 15.4518 21.1396 14.8785 21.9648 13.7986L25.0586 9.72441C25.9857 8.50976 25.9972 6.88613 25.0506 5.66875L21.9533 1.63535C21.0562 0.501366 20.1131 0 18.7119 0ZM7.0447 1.87284L18.7119 1.87284C19.5449 1.87284 19.9297 2.06835 20.4775 2.7787L23.5748 6.80859C24.0119 7.35761 24.0039 8.03379 23.5793 8.58457L20.4758 12.6633C19.998 13.284 19.4535 13.5807 18.7119 13.5807L7.0447 13.5807C6.3111 13.5807 5.76657 13.284 5.28083 12.6633L2.17731 8.58457C1.7527 8.03379 1.7527 7.35761 2.1818 6.80859L5.27907 2.7787C5.83493 2.06835 6.2197 1.87284 7.0447 1.87284Z" fill="white" fill-opacity="0.85"/>
  <path d="M6.58629 6.01738C5.64528 6.01738 4.88004 6.79062 4.88004 7.72363C4.88004 8.65664 5.64528 9.42988 6.58629 9.42988C7.5193 9.42988 8.28454 8.65664 8.28454 7.72363C8.28454 6.79062 7.5193 6.01738 6.58629 6.01738ZM12.8783 8.28535C11.9453 8.28535 11.172 9.05058 11.172 9.98359C11.172 10.9246 11.9453 11.6898 12.8783 11.6898C13.8113 11.6898 14.5845 10.9246 14.5845 9.98359C14.5845 9.05058 13.8113 8.28535 12.8783 8.28535ZM19.1703 6.01738C18.2373 6.01738 17.4721 6.79062 17.4721 7.72363C17.4721 8.65664 18.2373 9.42988 19.1703 9.42988C20.1113 9.42988 20.8765 8.65664 20.8765 7.72363C20.8765 6.79062 20.1113 6.01738 19.1703 6.01738Z" fill="white" fill-opacity="0.85"/>
 </g>
</svg>
