<?xml version="1.0" encoding="UTF-8"?>
<!--Generator: Apple Native CoreSVG 341-->
<!DOCTYPE svg
PUBLIC "-//W3C//DTD SVG 1.1//EN"
       "http://www.w3.org/Graphics/SVG/1.1/DTD/svg11.dtd">
<svg version="1.1" xmlns="http://www.w3.org/2000/svg" xmlns:xlink="http://www.w3.org/1999/xlink" viewBox="0 0 18.5894 18.2316">
 <g>
  <rect height="18.2316" opacity="0" width="18.5894" x="0" y="0"/>
  <path d="M18.2281 3.17148L18.2281 15.0646C18.2281 17.1502 17.1404 18.2281 15.0246 18.2281L3.20351 18.2281C1.0957 18.2281 0 17.1502 0 15.0646L0 3.17148C0 1.08769 1.0957 0 3.20351 0L15.0246 0C17.1404 0 18.2281 1.08769 18.2281 3.17148ZM3.73457 9.11093C3.73457 12.0898 6.13027 14.4935 9.11718 14.4935C12.0978 14.4935 14.4935 12.0898 14.4935 9.11093C14.4935 6.13027 12.0978 3.72656 9.11718 3.72656C6.13027 3.72656 3.73457 6.13027 3.73457 9.11093ZM10.1707 11.6814L10.1707 12.1342C10.1707 12.7324 9.70742 13.1859 9.10917 13.1859C8.50918 13.1859 8.05742 12.7324 8.05742 12.1342L8.05742 11.6814C8.05742 11.4773 8.15234 11.3762 8.36445 11.3762L9.86367 11.3762C10.0758 11.3762 10.1707 11.4773 10.1707 11.6814ZM7.81542 9.11093C7.81542 9.7871 7.25996 10.3488 6.57578 10.3488C5.89609 10.3488 5.33613 9.7871 5.33613 9.11093C5.33613 8.43476 5.89609 7.87304 6.57578 7.87304C7.25996 7.87304 7.81542 8.43476 7.81542 9.11093ZM12.8885 9.11093C12.8885 9.7871 12.3285 10.3488 11.6506 10.3488C10.9744 10.3488 10.4092 9.7871 10.4092 9.11093C10.4092 8.43476 10.9744 7.87304 11.6506 7.87304C12.3285 7.87304 12.8885 8.43476 12.8885 9.11093Z" fill="white" fill-opacity="0.85"/>
 </g>
</svg>
