<?xml version="1.0" encoding="UTF-8"?>
<!--Generator: Apple Native CoreSVG 341-->
<!DOCTYPE svg
PUBLIC "-//W3C//DTD SVG 1.1//EN"
       "http://www.w3.org/Graphics/SVG/1.1/DTD/svg11.dtd">
<svg version="1.1" xmlns="http://www.w3.org/2000/svg" xmlns:xlink="http://www.w3.org/1999/xlink" viewBox="0 0 19.2258 18.2476">
 <g>
  <rect height="18.2476" opacity="0" width="19.2258" x="0" y="0"/>
  <path d="M18.8644 3.19101L18.8644 15.0762C18.8644 17.16 17.7687 18.2476 15.6609 18.2476L3.20351 18.2476C1.0957 18.2476 0 17.168 0 15.0762L0 3.19101C0 1.09746 1.0957 0.0195312 3.20351 0.0195312L15.6609 0.0195312C17.7687 0.0195312 18.8644 1.10547 18.8644 3.19101ZM4.47206 12.3412C4.47206 13.2057 5.17499 13.9068 6.03945 13.9068C6.89765 13.9068 7.59081 13.2057 7.59081 12.3412C7.59081 11.491 6.89765 10.7818 6.03945 10.7818C5.17499 10.7818 4.47206 11.491 4.47206 12.3412ZM11.2736 12.3412C11.2736 13.2057 11.9668 13.9068 12.833 13.9068C13.6814 13.9068 14.3924 13.2057 14.3924 12.3412C14.3924 11.491 13.6814 10.7818 12.833 10.7818C11.9668 10.7818 11.2736 11.491 11.2736 12.3412ZM7.86484 5.88066C7.86484 6.74687 8.56777 7.44804 9.43222 7.44804C10.2887 7.44804 10.9916 6.74687 10.9916 5.88066C10.9916 5.02421 10.2887 4.32929 9.43222 4.32929C8.56777 4.32929 7.86484 5.02421 7.86484 5.88066Z" fill="white" fill-opacity="0.85"/>
 </g>
</svg>
