<?xml version="1.0" encoding="UTF-8"?>
<!--Generator: Apple Native CoreSVG 341-->
<!DOCTYPE svg
PUBLIC "-//W3C//DTD SVG 1.1//EN"
       "http://www.w3.org/Graphics/SVG/1.1/DTD/svg11.dtd">
<svg version="1.1" xmlns="http://www.w3.org/2000/svg" xmlns:xlink="http://www.w3.org/1999/xlink" viewBox="0 0 11.8709 21.6769">
 <g>
  <rect height="21.6769" opacity="0" width="11.8709" x="0" y="0"/>
  <path d="M3.15546 21.6707L8.35232 21.6707C10.4138 21.6707 11.5095 20.583 11.5095 18.5473L11.5095 3.13144C11.5095 1.0957 10.4138 0 8.35232 0L3.15546 0C1.10371 0 0 1.0957 0 3.13144L0 18.5473C0 20.583 1.10371 21.6707 3.15546 21.6707ZM3.2744 19.7574C2.41444 19.7574 1.91327 19.2793 1.91327 18.3865L1.91327 3.29218C1.91327 2.39139 2.41444 1.91503 3.2744 1.91503L8.23338 1.91503C9.0951 1.91503 9.59628 2.39139 9.59628 3.29218L9.59628 18.3865C9.59628 19.2793 9.0951 19.7574 8.23338 19.7574Z" fill="white" fill-opacity="0.85"/>
  <path d="M5.76366 7.11034C6.58026 7.11034 7.25487 6.44374 7.25487 5.61112C7.25487 4.79276 6.58026 4.12792 5.76366 4.12792C4.93729 4.12792 4.26268 4.79276 4.26268 5.61112C4.26268 6.44374 4.93729 7.11034 5.76366 7.11034ZM5.76366 12.3266C6.58026 12.3266 7.25487 11.6617 7.25487 10.8353C7.25487 10.0187 6.58026 9.34413 5.76366 9.34413C4.93729 9.34413 4.26268 10.0187 4.26268 10.8353C4.26268 11.6617 4.93729 12.3266 5.76366 12.3266ZM5.76366 17.5508C6.58026 17.5508 7.25487 16.8779 7.25487 16.0516C7.25487 15.235 6.58026 14.5684 5.76366 14.5684C4.93729 14.5684 4.26268 15.235 4.26268 16.0516C4.26268 16.8779 4.93729 17.5508 5.76366 17.5508Z" fill="white" fill-opacity="0.85"/>
 </g>
</svg>
