<?xml version="1.0" encoding="UTF-8"?>
<!--Generator: Apple Native CoreSVG 341-->
<!DOCTYPE svg
PUBLIC "-//W3C//DTD SVG 1.1//EN"
       "http://www.w3.org/Graphics/SVG/1.1/DTD/svg11.dtd">
<svg version="1.1" xmlns="http://www.w3.org/2000/svg" xmlns:xlink="http://www.w3.org/1999/xlink" viewBox="0 0 20.5381 20.1848">
 <g>
  <rect height="20.1848" opacity="0" width="20.5381" x="0" y="0"/>
  <path d="M10.0875 20.175C15.6576 20.175 20.1767 15.6559 20.1767 10.0875C20.1767 4.51914 15.6576 0 10.0875 0C4.51914 0 0 4.51914 0 10.0875C0 15.6559 4.51914 20.175 10.0875 20.175ZM10.0875 18.1879C5.60839 18.1879 1.9871 14.5666 1.9871 10.0875C1.9871 5.60839 5.60839 1.9871 10.0875 1.9871C14.5666 1.9871 18.1897 5.60839 18.1897 10.0875C18.1897 14.5666 14.5666 18.1879 10.0875 18.1879Z" fill="white" fill-opacity="0.85"/>
  <path d="M10.0875 15.1342C12.8576 15.1342 15.1537 12.8381 15.1537 10.0777C15.1537 8.71816 14.5603 7.36034 13.5646 6.42792C12.8381 5.72382 11.8279 6.7371 12.559 7.46249C13.276 8.14198 13.682 9.0703 13.69 10.0777C13.69 12.0824 12.0922 13.6785 10.0875 13.6785C8.0828 13.6785 6.49471 12.0824 6.49471 10.0777C6.49471 9.0703 6.89101 8.14198 7.61777 7.45448C8.34882 6.72734 7.33867 5.71406 6.62011 6.42792C5.6164 7.35234 5.02304 8.70214 5.02304 10.0777C5.02304 12.8381 7.31913 15.1342 10.0875 15.1342ZM10.0875 10.3516C10.5158 10.3516 10.8209 10.0367 10.8209 9.59511L10.8209 5.49101C10.8209 5.05116 10.5158 4.74257 10.0875 4.74257C9.66093 4.74257 9.36387 5.05116 9.36387 5.49101L9.36387 9.59511C9.36387 10.0367 9.66093 10.3516 10.0875 10.3516Z" fill="white" fill-opacity="0.85"/>
 </g>
</svg>
