<?xml version="1.0" encoding="UTF-8"?>
<!--Generator: Apple Native CoreSVG 341-->
<!DOCTYPE svg
PUBLIC "-//W3C//DTD SVG 1.1//EN"
       "http://www.w3.org/Graphics/SVG/1.1/DTD/svg11.dtd">
<svg version="1.1" xmlns="http://www.w3.org/2000/svg" xmlns:xlink="http://www.w3.org/1999/xlink" viewBox="0 0 19.2258 18.2476">
 <g>
  <rect height="18.2476" opacity="0" width="19.2258" x="0" y="0"/>
  <path d="M3.20351 18.2476L15.6609 18.2476C17.7687 18.2476 18.8644 17.16 18.8644 15.0762L18.8644 3.19101C18.8644 1.10547 17.7687 0.0195312 15.6609 0.0195312L3.20351 0.0195312C1.0957 0.0195312 0 1.09746 0 3.19101L0 15.0762C0 17.168 1.0957 18.2476 3.20351 18.2476ZM3.31444 16.3344C2.40643 16.3344 1.91327 15.8643 1.91327 14.9154L1.91327 3.34999C1.91327 2.40116 2.40643 1.9328 3.31444 1.9328L15.542 1.9328C16.442 1.9328 16.9512 2.40116 16.9512 3.34999L16.9512 14.9154C16.9512 15.8643 16.442 16.3344 15.542 16.3344Z" fill="white" fill-opacity="0.85"/>
  <path d="M9.43222 8.04804C10.4539 8.04804 11.2768 7.22343 11.2768 6.20175C11.2768 5.18183 10.4539 4.35898 9.43222 4.35898C8.41054 4.35898 7.58769 5.18183 7.58769 6.20175C7.58769 7.22343 8.41054 8.04804 9.43222 8.04804ZM6.17675 13.8922C6.99335 13.8922 7.65995 13.2256 7.65995 12.393C7.65995 11.5764 6.99335 10.9098 6.17675 10.9098C5.34413 10.9098 4.67753 11.5764 4.67753 12.393C4.67753 13.2256 5.34413 13.8922 6.17675 13.8922ZM12.6957 13.8922C13.5123 13.8922 14.1869 13.2256 14.1869 12.393C14.1869 11.5764 13.5123 10.9098 12.6957 10.9098C11.8711 10.9098 11.2045 11.5764 11.2045 12.393C11.2045 13.2256 11.8711 13.8922 12.6957 13.8922Z" fill="white" fill-opacity="0.85"/>
 </g>
</svg>
