<?xml version="1.0" encoding="UTF-8"?>
<!--Generator: Apple Native CoreSVG 341-->
<!DOCTYPE svg
PUBLIC "-//W3C//DTD SVG 1.1//EN"
       "http://www.w3.org/Graphics/SVG/1.1/DTD/svg11.dtd">
<svg version="1.1" xmlns="http://www.w3.org/2000/svg" xmlns:xlink="http://www.w3.org/1999/xlink" viewBox="0 0 24.8269 17.1203">
 <g>
  <rect height="17.1203" opacity="0" width="24.8269" x="0" y="0"/>
  <path d="M17.292 11.2027L19.6062 11.2027C20.1435 11.2027 20.5078 10.842 20.5078 10.3127L20.5078 0.885541C20.5078 0.364255 20.1435 0 19.6062 0L17.292 0C15.691 0 14.2064 0.676951 13.1492 2.00039C12.7355 2.50273 12.6211 2.57734 12.0539 2.57734L9.8662 2.57734C8.8373 2.57734 8.13632 3.23378 8.13632 4.20937L8.13632 6.99511C8.13632 7.9662 8.8373 8.62714 9.8662 8.62714L12.0539 8.62714C12.6211 8.62714 12.7355 8.70526 13.1492 9.18807C14.2162 10.5248 15.699 11.2027 17.292 11.2027ZM17.292 9.55409C16.1281 9.55409 15.2299 9.13339 14.4387 8.17265C13.751 7.3121 13.1115 6.97324 12.0539 6.97324L10.175 6.97324C9.94042 6.97324 9.78319 6.82402 9.78319 6.59746L9.78319 4.55546C9.78319 4.35468 9.90838 4.22948 10.1269 4.22948L12.0539 4.22948C13.1115 4.22948 13.751 3.89862 14.4387 3.02382C15.2299 2.06132 16.1201 1.64863 17.292 1.64863L18.5217 1.64863C18.7322 1.64863 18.8556 1.76581 18.8556 1.96034L18.8556 9.22812C18.8556 9.43066 18.7322 9.55409 18.5217 9.55409ZM20.0074 4.52616L23.4429 4.52616C24.0133 4.52616 24.4656 4.08007 24.4656 3.50351C24.4656 2.93671 24.0133 2.48086 23.4429 2.48086L20.0074 2.48086ZM20.0074 8.75174L23.4429 8.75174C24.0133 8.75174 24.4656 8.28788 24.4656 7.72558C24.4656 7.14902 24.0133 6.69492 23.4429 6.69492L20.0074 6.69492ZM0 17.1105L8.25273 17.1105C10.631 17.1105 12.1637 15.6207 12.1637 13.5662C12.1637 11.5002 10.631 9.99609 8.25273 9.99609L3.79296 9.99609C2.53886 9.99609 1.80429 9.27382 1.80429 8.23202C1.80429 7.19999 2.55488 6.4955 3.79296 6.4955L8.96014 6.4955L8.96014 4.68945L3.91093 4.68945C1.52461 4.68945 0 6.17753 0 8.23202C0 10.298 1.52461 11.8021 3.91093 11.8021L8.3707 11.8021C9.6248 11.8021 10.3594 12.5244 10.3594 13.5662C10.3594 14.6 9.60878 15.3027 8.3707 15.3027L0 15.3027Z" fill="white" fill-opacity="0.85"/>
 </g>
</svg>
