<?xml version="1.0" encoding="UTF-8"?>
<!--Generator: Apple Native CoreSVG 341-->
<!DOCTYPE svg
PUBLIC "-//W3C//DTD SVG 1.1//EN"
       "http://www.w3.org/Graphics/SVG/1.1/DTD/svg11.dtd">
<svg version="1.1" xmlns="http://www.w3.org/2000/svg" xmlns:xlink="http://www.w3.org/1999/xlink" viewBox="0 0 18.5894 18.2316">
 <g>
  <rect height="18.2316" opacity="0" width="18.5894" x="0" y="0"/>
  <path d="M18.2281 3.17148L18.2281 15.0646C18.2281 17.1502 17.1404 18.2281 15.0246 18.2281L3.20351 18.2281C1.0957 18.2281 0 17.1502 0 15.0646L0 3.17148C0 1.08769 1.0957 0 3.20351 0L15.0246 0C17.1404 0 18.2281 1.08769 18.2281 3.17148ZM5.30292 4.31152C4.67519 4.31152 4.22558 4.76113 4.22558 5.38886L4.22558 12.849C4.22558 13.4768 4.67519 13.9264 5.30292 13.9264L12.9732 13.9264C13.601 13.9264 14.0506 13.4768 14.0506 12.849L14.0506 5.38886C14.0506 4.76113 13.601 4.31152 12.9732 4.31152ZM9.81738 10.2144L9.81738 11.9963C9.81738 12.243 9.6373 12.4053 9.38886 12.4053L8.88105 12.4053C8.63886 12.4053 8.46054 12.235 8.46054 11.9963L8.46054 10.2144C8.46054 9.9625 8.63711 9.78769 8.88105 9.78769L9.38886 9.78769C9.63105 9.78769 9.81738 9.9625 9.81738 10.2144ZM7.77949 6.57949L8.13457 6.93457C8.32714 7.11738 8.31738 7.36132 8.13457 7.53964L6.71835 8.94433C6.53554 9.13515 6.30488 9.13515 6.13632 8.94433L5.76972 8.58925C5.58965 8.40468 5.58965 8.17851 5.76972 7.99844L7.19394 6.5875C7.37402 6.40117 7.60293 6.39941 7.77949 6.57949ZM11.0822 6.57949L12.5064 7.99844C12.6865 8.17851 12.683 8.40644 12.5064 8.58925L12.1416 8.94433C11.973 9.13515 11.7326 9.1289 11.5561 8.94433L10.1336 7.53964C9.94902 7.35957 9.94902 7.11738 10.1318 6.93457L10.4949 6.57148C10.6732 6.3914 10.9101 6.40117 11.0822 6.57949Z" fill="white" fill-opacity="0.85"/>
 </g>
</svg>
