<?xml version="1.0" encoding="UTF-8"?>
<!--Generator: Apple Native CoreSVG 341-->
<!DOCTYPE svg
PUBLIC "-//W3C//DTD SVG 1.1//EN"
       "http://www.w3.org/Graphics/SVG/1.1/DTD/svg11.dtd">
<svg version="1.1" xmlns="http://www.w3.org/2000/svg" xmlns:xlink="http://www.w3.org/1999/xlink" viewBox="0 0 18.5894 18.2316">
 <g>
  <rect height="18.2316" opacity="0" width="18.5894" x="0" y="0"/>
  <path d="M18.2281 3.17148L18.2281 15.0646C18.2281 17.1502 17.1404 18.2281 15.0246 18.2281L3.20351 18.2281C1.0957 18.2281 0 17.1502 0 15.0646L0 3.17148C0 1.08769 1.0957 0 3.20351 0L15.0246 0C17.1404 0 18.2281 1.08769 18.2281 3.17148ZM5.23085 4.30351C4.60312 4.30351 4.15351 4.75312 4.15351 5.38085L4.15351 12.841C4.15351 13.4687 4.60312 13.9184 5.23085 13.9184L12.9973 13.9184C13.625 13.9184 14.0746 13.4687 14.0746 12.841L14.0746 5.38085C14.0746 4.75312 13.625 4.30351 12.9973 4.30351ZM7.98222 10.8031C7.98222 11.3853 7.51093 11.8504 6.93046 11.8504C6.35449 11.8504 5.8832 11.3853 5.8832 10.8031C5.8832 10.2209 6.35449 9.75136 6.93046 9.75136C7.51093 9.75136 7.98222 10.2227 7.98222 10.8031ZM12.3644 10.8031C12.3644 11.3853 11.8977 11.8504 11.3154 11.8504C10.7332 11.8504 10.2619 11.3853 10.2619 10.8031C10.2619 10.2227 10.7332 9.75136 11.3154 9.75136C11.8977 9.75136 12.3644 10.2227 12.3644 10.8031ZM10.1707 7.41523C10.1707 7.99746 9.69765 8.46249 9.12695 8.46249C8.54121 8.46249 8.06992 7.99746 8.06992 7.41523C8.06992 6.833 8.54121 6.37148 9.12695 6.37148C9.69765 6.37148 10.1707 6.83652 10.1707 7.41523Z" fill="white" fill-opacity="0.85"/>
 </g>
</svg>
