<?xml version="1.0" encoding="UTF-8"?>
<!--Generator: Apple Native CoreSVG 341-->
<!DOCTYPE svg
PUBLIC "-//W3C//DTD SVG 1.1//EN"
       "http://www.w3.org/Graphics/SVG/1.1/DTD/svg11.dtd">
<svg version="1.1" xmlns="http://www.w3.org/2000/svg" xmlns:xlink="http://www.w3.org/1999/xlink" viewBox="0 0 18.5894 18.2316">
 <g>
  <rect height="18.2316" opacity="0" width="18.5894" x="0" y="0"/>
  <path d="M3.20351 18.2281L15.0246 18.2281C17.1404 18.2281 18.2281 17.1502 18.2281 15.0646L18.2281 3.17148C18.2281 1.08769 17.1404 0 15.0246 0L3.20351 0C1.0957 0 0 1.08769 0 3.17148L0 15.0646C0 17.1502 1.0957 18.2281 3.20351 18.2281ZM3.31444 16.3148C2.40643 16.3148 1.91327 15.8465 1.91327 14.8977L1.91327 3.34023C1.91327 2.39139 2.40643 1.91503 3.31444 1.91503L14.9137 1.91503C15.8137 1.91503 16.3148 2.39139 16.3148 3.34023L16.3148 14.8977C16.3148 15.8465 15.8137 16.3148 14.9137 16.3148Z" fill="white" fill-opacity="0.85"/>
  <path d="M5.52558 13.6287L12.7506 13.6287C13.3271 13.6287 13.7459 13.21 13.7459 12.6334L13.7459 5.608C13.7459 5.03144 13.3271 4.61269 12.7506 4.61269L5.52558 4.61269C4.94901 4.61269 4.53027 5.03144 4.53027 5.608L4.53027 12.6334C4.53027 13.21 4.94901 13.6287 5.52558 13.6287ZM8.91738 8.42011C8.67421 8.42011 8.49941 8.2666 8.49941 8.01542L8.49941 6.47363C8.49941 6.23222 8.67597 6.05742 8.91738 6.05742L9.34277 6.05742C9.58417 6.05742 9.77675 6.23222 9.77675 6.47363L9.77675 8.01542C9.77675 8.2666 9.58593 8.42011 9.34277 8.42011ZM6.40136 12.0891C6.14843 12.0891 5.98515 11.916 5.98515 11.6693L5.98515 11.2342C5.98515 10.9945 6.14843 10.8135 6.40136 10.8135L7.84746 10.8135C8.08886 10.8135 8.25214 10.9928 8.25214 11.2342L8.25214 11.6693C8.25214 11.916 8.09062 12.0891 7.84746 12.0891ZM10.4455 12.0891C10.1943 12.0891 10.0328 11.916 10.0328 11.6693L10.0328 11.2342C10.0328 10.9928 10.1961 10.8135 10.4455 10.8135L11.8836 10.8135C12.1348 10.8135 12.3016 10.9945 12.3016 11.2342L12.3016 11.6693C12.3016 11.9143 12.133 12.0891 11.8836 12.0891Z" fill="white" fill-opacity="0.85"/>
 </g>
</svg>
