<?xml version="1.0" encoding="UTF-8"?>
<!--Generator: Apple Native CoreSVG 341-->
<!DOCTYPE svg
PUBLIC "-//W3C//DTD SVG 1.1//EN"
       "http://www.w3.org/Graphics/SVG/1.1/DTD/svg11.dtd">
<svg version="1.1" xmlns="http://www.w3.org/2000/svg" xmlns:xlink="http://www.w3.org/1999/xlink" viewBox="0 0 18.5894 18.2316">
 <g>
  <rect height="18.2316" opacity="0" width="18.5894" x="0" y="0"/>
  <path d="M18.2281 3.17148L18.2281 15.0646C18.2281 17.1502 17.1404 18.2281 15.0246 18.2281L3.20351 18.2281C1.0957 18.2281 0 17.1502 0 15.0646L0 3.17148C0 1.08769 1.0957 0 3.20351 0L15.0246 0C17.1404 0 18.2281 1.08769 18.2281 3.17148ZM5.23085 4.30351C4.60312 4.30351 4.15351 4.75312 4.15351 5.38085L4.15351 12.841C4.15351 13.4687 4.60312 13.9184 5.23085 13.9184L12.9973 13.9184C13.625 13.9184 14.0746 13.4687 14.0746 12.841L14.0746 5.38085C14.0746 4.75312 13.625 4.30351 12.9973 4.30351ZM7.98222 11.2092C7.98222 11.7914 7.51093 12.2564 6.93046 12.2564C6.35449 12.2564 5.8832 11.7914 5.8832 11.2092C5.8832 10.627 6.35449 10.1574 6.93046 10.1574C7.51093 10.1574 7.98222 10.6305 7.98222 11.2092ZM12.3644 11.2092C12.3644 11.7914 11.8977 12.2564 11.3154 12.2564C10.7332 12.2564 10.2619 11.7914 10.2619 11.2092C10.2619 10.6305 10.7332 10.1574 11.3154 10.1574C11.8977 10.1574 12.3644 10.6305 12.3644 11.2092ZM10.373 7.20351C10.373 7.89491 9.81035 8.45937 9.12695 8.45937C8.43378 8.45937 7.87285 7.89491 7.87285 7.20351C7.87285 6.51035 8.43378 5.94941 9.12695 5.94941C9.81035 5.94941 10.373 6.51035 10.373 7.20351Z" fill="white" fill-opacity="0.85"/>
 </g>
</svg>
