<?xml version="1.0" encoding="UTF-8"?>
<!--Generator: Apple Native CoreSVG 341-->
<!DOCTYPE svg
PUBLIC "-//W3C//DTD SVG 1.1//EN"
       "http://www.w3.org/Graphics/SVG/1.1/DTD/svg11.dtd">
<svg version="1.1" xmlns="http://www.w3.org/2000/svg" xmlns:xlink="http://www.w3.org/1999/xlink" viewBox="0 0 39.447 13.1828">
 <g>
  <rect height="13.1828" opacity="0" width="39.447" x="0" y="0"/>
  <path d="M2.89726 11.784L27.7894 11.784C29.4908 11.784 30.6867 10.5818 30.6867 8.88846L30.6867 2.90351C30.6867 1.21191 29.4908 0 27.7894 0L2.89726 0C1.1959 0 0 1.20391 0 2.90351L0 8.88846C0 10.5898 1.1959 11.784 2.89726 11.784ZM2.97285 10.0703C2.21406 10.0703 1.7119 9.56894 1.7119 8.81288L1.7119 2.98085C1.7119 2.21503 2.21406 1.71366 2.97285 1.71366L27.7138 1.71366C28.4646 1.71366 28.973 2.21503 28.973 2.98085L28.973 8.81288C28.973 9.56894 28.4646 10.0703 27.7138 10.0703ZM29.9781 9.47206L31.7838 9.47206C32.5121 9.47206 33.0593 8.9328 33.0593 8.20448L33.0593 3.57948C33.0593 2.85117 32.5121 2.31191 31.7838 2.31191L29.9781 2.31191L29.9781 3.79511L31.1861 3.79511C31.4127 3.79511 31.5779 3.95233 31.5779 4.17714L31.5779 7.59882C31.5779 7.83339 31.4127 7.98886 31.1861 7.98886L29.9781 7.98886ZM32.6019 6.82479L39.0857 6.82479L39.0857 5.07499L32.6019 5.07499Z" fill="white" fill-opacity="0.85"/>
  <path d="M4.07343 8.19491L4.72694 8.19491C5.02851 8.19491 5.24315 7.98026 5.24315 7.66894L5.24315 4.10527C5.24315 3.77792 5.02851 3.57128 4.72694 3.57128L4.07343 3.57128C3.75409 3.57128 3.54745 3.77792 3.54745 4.10527L3.54745 7.66894C3.54745 7.98026 3.75409 8.19491 4.07343 8.19491ZM9.98475 8.9455C11.673 8.9455 13.04 7.58827 13.04 5.89374C13.04 4.21699 11.673 2.83847 9.98475 2.83847C8.30175 2.83847 6.933 4.21699 6.933 5.89374C6.933 7.58827 8.30175 8.9455 9.98475 8.9455ZM8.87597 7.47402C8.64159 7.47402 8.44276 7.27695 8.44276 7.05234L8.44276 4.74491C8.44276 4.51679 8.64159 4.31171 8.87597 4.31171C9.10409 4.31171 9.28964 4.50702 9.28964 4.74491L9.28964 7.05234C9.28964 7.28671 9.10409 7.47402 8.87597 7.47402ZM11.0971 7.47402C10.8627 7.47402 10.6639 7.28671 10.6639 7.05234L10.6639 4.74491C10.6639 4.50702 10.8512 4.31171 11.0971 4.31171C11.3314 4.31171 11.509 4.50702 11.509 4.74491L11.509 7.05234C11.509 7.28671 11.3314 7.47402 11.0971 7.47402ZM17.2449 8.9455C18.9297 8.9455 20.3064 7.58827 20.3064 5.89374C20.3064 4.21699 18.9297 2.83847 17.2449 2.83847C15.5601 2.83847 14.1994 4.21699 14.1994 5.89374C14.1994 7.58827 15.5601 8.9455 17.2449 8.9455ZM16.1246 7.47402C15.8982 7.47402 15.7029 7.28671 15.7029 7.05234L15.7029 4.74491C15.7029 4.51679 15.8982 4.31171 16.1246 4.31171C16.3705 4.31171 16.556 4.50702 16.556 4.74491L16.556 7.05234C16.556 7.28671 16.3705 7.47402 16.1246 7.47402ZM18.3537 7.47402C18.1193 7.47402 17.9223 7.28671 17.9223 7.05234L17.9223 4.74491C17.9223 4.50702 18.1193 4.31171 18.3537 4.31171C18.5898 4.31171 18.7771 4.50702 18.7771 4.74491L18.7771 7.05234C18.7771 7.28671 18.5801 7.47402 18.3537 7.47402ZM24.5016 8.9455C26.1881 8.9455 27.5551 7.58827 27.5551 5.89374C27.5551 4.21699 26.1881 2.83847 24.5016 2.83847C22.8168 2.83847 21.4578 4.21699 21.4578 5.89374C21.4578 7.58827 22.8168 8.9455 24.5016 8.9455ZM23.391 7.47402C23.1566 7.47402 22.9613 7.28671 22.9613 7.05234L22.9613 4.74491C22.9613 4.51679 23.1566 4.31171 23.391 4.31171C23.6289 4.31171 23.8144 4.50702 23.8144 4.74491L23.8144 7.05234C23.8144 7.28671 23.6191 7.47402 23.391 7.47402ZM25.6121 7.47402C25.3777 7.47402 25.1789 7.28671 25.1789 7.05234L25.1789 4.74491C25.1789 4.50702 25.368 4.31171 25.6121 4.31171C25.8465 4.31171 26.024 4.50702 26.024 4.74491L26.024 7.05234C26.024 7.28671 25.8465 7.47402 25.6121 7.47402Z" fill="white" fill-opacity="0.85"/>
 </g>
</svg>
