<?xml version="1.0" encoding="UTF-8"?>
<!--Generator: Apple Native CoreSVG 341-->
<!DOCTYPE svg
PUBLIC "-//W3C//DTD SVG 1.1//EN"
       "http://www.w3.org/Graphics/SVG/1.1/DTD/svg11.dtd">
<svg version="1.1" xmlns="http://www.w3.org/2000/svg" xmlns:xlink="http://www.w3.org/1999/xlink" viewBox="0 0 19.2258 18.2476">
 <g>
  <rect height="18.2476" opacity="0" width="19.2258" x="0" y="0"/>
  <path d="M18.8644 3.19101L18.8644 15.0762C18.8644 17.16 17.7687 18.2476 15.6609 18.2476L3.20351 18.2476C1.0957 18.2476 0 17.168 0 15.0762L0 3.19101C0 1.09746 1.0957 0.0195312 3.20351 0.0195312L15.6609 0.0195312C17.7687 0.0195312 18.8644 1.10547 18.8644 3.19101ZM4.47206 11.7816C4.47206 12.6461 5.17499 13.349 6.03945 13.349C6.89765 13.349 7.59081 12.6461 7.59081 11.7816C7.59081 10.9234 6.89765 10.224 6.03945 10.224C5.17499 10.224 4.47206 10.9234 4.47206 11.7816ZM11.2736 11.7816C11.2736 12.6461 11.9668 13.349 12.833 13.349C13.6814 13.349 14.3924 12.6461 14.3924 11.7816C14.3924 10.9234 13.6814 10.224 12.833 10.224C11.9668 10.224 11.2736 10.9234 11.2736 11.7816ZM7.86484 6.45449C7.86484 7.3207 8.56777 8.02187 9.43222 8.02187C10.2887 8.02187 10.9916 7.3207 10.9916 6.45449C10.9916 5.59804 10.2887 4.89687 9.43222 4.89687C8.56777 4.89687 7.86484 5.59804 7.86484 6.45449Z" fill="white" fill-opacity="0.85"/>
 </g>
</svg>
