<?xml version="1.0" encoding="UTF-8"?>
<!--Generator: Apple Native CoreSVG 341-->
<!DOCTYPE svg
PUBLIC "-//W3C//DTD SVG 1.1//EN"
       "http://www.w3.org/Graphics/SVG/1.1/DTD/svg11.dtd">
<svg version="1.1" xmlns="http://www.w3.org/2000/svg" xmlns:xlink="http://www.w3.org/1999/xlink" viewBox="0 0 21.8357 17.239">
 <g>
  <rect height="17.239" opacity="0" width="21.8357" x="0" y="0"/>
  <path d="M18.1013 0.787693C20.2211 2.80703 21.4744 5.73788 21.4744 8.61464C21.4744 11.4914 20.2211 14.4223 18.1013 16.4416C17.5779 16.9508 16.8611 17.2195 16.1025 17.2195L5.36386 17.2195C4.60527 17.2195 3.89648 16.9508 3.37304 16.4416C1.25332 14.4223 0 11.4914 0 8.61464C0 5.76992 1.2373 2.86308 3.29121 0.851756C3.83066 0.302538 4.58124 0 5.36386 0L16.1025 0C16.8611 0 17.5779 0.278515 18.1013 0.787693ZM5.47754 5.56913L5.47754 11.7518C5.47754 12.3088 5.89257 12.7221 6.45136 12.7221C7.00038 12.7221 7.4412 12.3088 7.4412 11.7518L7.4412 5.56913C7.4412 5.02187 7.00038 4.57128 6.45136 4.57128C5.89433 4.57128 5.47754 5.02187 5.47754 5.56913ZM14.035 5.58065L14.035 11.7322C14.035 12.2812 14.458 12.7221 15.015 12.7221C15.5721 12.7221 15.9986 12.2892 15.9986 11.7322L15.9986 5.58065C15.9986 5.02187 15.5721 4.57128 15.015 4.57128C14.458 4.57128 14.035 5.02362 14.035 5.58065Z" fill="white" fill-opacity="0.85"/>
 </g>
</svg>
