<?xml version="1.0" encoding="UTF-8"?>
<!--Generator: Apple Native CoreSVG 341-->
<!DOCTYPE svg
PUBLIC "-//W3C//DTD SVG 1.1//EN"
       "http://www.w3.org/Graphics/SVG/1.1/DTD/svg11.dtd">
<svg version="1.1" xmlns="http://www.w3.org/2000/svg" xmlns:xlink="http://www.w3.org/1999/xlink" viewBox="0 0 26.1179 15.473">
 <g>
  <rect height="15.473" opacity="0" width="26.1179" x="0" y="0"/>
  <path d="M21.9533 1.63535L25.0506 5.66875C25.9972 6.88613 25.9857 8.50976 25.0586 9.72441L21.9648 13.7986C21.1396 14.8785 20.0217 15.4518 18.7119 15.4518L7.0447 15.4518C5.73493 15.4518 4.61697 14.8785 3.79177 13.7986L0.698022 9.72441C-0.227366 8.51152-0.240647 6.88789 0.70603 5.66875L3.8033 1.63535C4.70037 0.501366 5.64353 0 7.0447 0L18.7119 0C20.1131 0 21.0562 0.501366 21.9533 1.63535ZM11.1021 10.0332C11.1021 11.0158 11.9037 11.8094 12.8783 11.8094C13.8529 11.8094 14.6545 11.0158 14.6545 10.0332C14.6545 9.05859 13.8529 8.25703 12.8783 8.25703C11.9037 8.25703 11.1021 9.05859 11.1021 10.0332ZM4.55231 7.67402C4.55231 8.64863 5.34587 9.4582 6.32848 9.4582C7.29958 9.4582 8.10465 8.64863 8.10465 7.67402C8.10465 6.69941 7.29958 5.89785 6.32848 5.89785C5.34587 5.89785 4.55231 6.69941 4.55231 7.67402ZM17.6519 7.67402C17.6519 8.64863 18.457 9.4582 19.4281 9.4582C20.4107 9.4582 21.2043 8.64863 21.2043 7.67402C21.2043 6.69941 20.4107 5.89785 19.4281 5.89785C18.457 5.89785 17.6519 6.69941 17.6519 7.67402Z" fill="white" fill-opacity="0.85"/>
 </g>
</svg>
