<?xml version="1.0" encoding="UTF-8"?>
<!--Generator: Apple Native CoreSVG 341-->
<!DOCTYPE svg
PUBLIC "-//W3C//DTD SVG 1.1//EN"
       "http://www.w3.org/Graphics/SVG/1.1/DTD/svg11.dtd">
<svg version="1.1" xmlns="http://www.w3.org/2000/svg" xmlns:xlink="http://www.w3.org/1999/xlink" viewBox="0 0 20.5381 20.1848">
 <g>
  <rect height="20.1848" opacity="0" width="20.5381" x="0" y="0"/>
  <path d="M20.1767 10.0875C20.1767 15.6478 15.6576 20.175 10.0875 20.175C4.52715 20.175 0 15.6478 0 10.0875C0 4.51914 4.52715 0 10.0875 0C15.6576 0 20.1767 4.51914 20.1767 10.0875ZM8.88105 13.6592C8.56503 13.6592 8.39472 13.8242 8.39472 14.142L8.39472 14.8744C8.39472 15.8242 9.12793 16.5672 10.0875 16.5672C11.0373 16.5672 11.782 15.8162 11.782 14.8744L11.782 14.142C11.782 13.8242 11.6135 13.6592 11.2939 13.6592ZM4.06152 9.9998C4.06152 11.0711 4.92597 11.9516 6.00703 11.9516C7.08632 11.9516 7.95878 11.0711 7.95878 9.9998C7.95878 8.91875 7.08632 8.04629 6.00703 8.04629C4.92597 8.04629 4.06152 8.91875 4.06152 9.9998ZM12.2145 9.9998C12.2145 11.0711 13.0869 11.9516 14.168 11.9516C15.249 11.9516 16.1117 11.0711 16.1117 9.9998C16.1117 8.91875 15.249 8.04629 14.168 8.04629C13.0869 8.04629 12.2145 8.91875 12.2145 9.9998Z" fill="white" fill-opacity="0.85"/>
 </g>
</svg>
