<?xml version="1.0" encoding="UTF-8"?>
<!--Generator: Apple Native CoreSVG 341-->
<!DOCTYPE svg
PUBLIC "-//W3C//DTD SVG 1.1//EN"
       "http://www.w3.org/Graphics/SVG/1.1/DTD/svg11.dtd">
<svg version="1.1" xmlns="http://www.w3.org/2000/svg" xmlns:xlink="http://www.w3.org/1999/xlink" viewBox="0 0 20.5381 21.3562">
 <g>
  <rect height="21.3562" opacity="0" width="20.5381" x="0" y="0"/>
  <path d="M10.0875 20.7625C15.6576 20.7625 20.1767 16.2416 20.1767 10.675C20.1767 7.6453 18.8766 5.11249 17.041 3.39648C16.0357 2.41914 14.6324 3.76699 15.6605 4.79452C17.224 6.27049 18.1897 8.35058 18.1897 10.675C18.1897 15.1541 14.5666 18.7754 10.0875 18.7754C5.60839 18.7754 1.9871 15.1541 1.9871 10.675C1.9871 8.3328 2.96073 6.26249 4.5162 4.78651C5.55233 3.75097 4.15703 2.44492 3.142 3.40448C1.29043 5.08847 0 7.71913 0 10.675C0 16.2416 4.51914 20.7625 10.0875 20.7625ZM10.0875 10.7004C10.6846 10.7004 11.0877 10.2725 11.0877 9.64707L11.0877 1.05155C11.0877 0.419918 10.6846 0 10.0875 0C9.49219 0 9.09707 0.419918 9.09707 1.05155L9.09707 9.64707C9.09707 10.2725 9.49219 10.7004 10.0875 10.7004Z" fill="white" fill-opacity="0.85"/>
 </g>
</svg>
