<?xml version="1.0" encoding="UTF-8"?>
<!--Generator: Apple Native CoreSVG 341-->
<!DOCTYPE svg
PUBLIC "-//W3C//DTD SVG 1.1//EN"
       "http://www.w3.org/Graphics/SVG/1.1/DTD/svg11.dtd">
<svg version="1.1" xmlns="http://www.w3.org/2000/svg" xmlns:xlink="http://www.w3.org/1999/xlink" viewBox="0 0 22.89 21.0828">
 <g>
  <rect height="21.0828" opacity="0" width="22.89" x="0" y="0"/>
  <path d="M20.4195 6.55859L20.4195 7.37461L21.183 7.37461C21.9849 7.37461 22.5287 7.91836 22.5287 8.72207L22.5287 12.351C22.5287 13.1467 21.9849 13.6904 21.183 13.6904L20.4195 13.6904L20.4195 14.5127C20.4195 17.9406 16.0283 21.0633 11.2635 21.0633C6.50039 21.0633 2.10918 17.9406 2.10918 14.5127L2.10918 13.6904L1.3457 13.6904C0.543748 13.6904 0 13.1467 0 12.351L0 8.72207C0 7.91836 0.543748 7.37461 1.3457 7.37461L2.10918 7.37461L2.10918 6.55859C2.10918 3.13242 6.50039 0 11.2635 0C16.0283 0 20.4195 3.13242 20.4195 6.55859ZM4.65605 10.5365C4.65605 11.6078 5.52851 12.4883 6.5998 12.4883C7.6871 12.4883 8.55331 11.6078 8.55331 10.5365C8.55331 9.46347 7.6871 8.583 6.5998 8.583C5.52851 8.583 4.65605 9.46347 4.65605 10.5365ZM13.9754 10.5365C13.9754 11.6078 14.8416 12.4883 15.9191 12.4883C17.0002 12.4883 17.8726 11.6078 17.8726 10.5365C17.8726 9.46347 17.0002 8.583 15.9191 8.583C14.8416 8.583 13.9754 9.46347 13.9754 10.5365Z" fill="white" fill-opacity="0.85"/>
 </g>
</svg>
