<?xml version="1.0" encoding="UTF-8"?>
<!--Generator: Apple Native CoreSVG 341-->
<!DOCTYPE svg
PUBLIC "-//W3C//DTD SVG 1.1//EN"
       "http://www.w3.org/Graphics/SVG/1.1/DTD/svg11.dtd">
<svg version="1.1" xmlns="http://www.w3.org/2000/svg" xmlns:xlink="http://www.w3.org/1999/xlink" viewBox="0 0 22.6785 21.5894">
 <g>
  <rect height="21.5894" opacity="0" width="22.6785" x="0" y="0"/>
  <path d="M18.3603 3.03223L18.3603 3.55684L16.5777 3.55684L16.5777 2.89668C16.5777 2.15723 16.2027 1.79199 15.4668 1.79199L6.85038 1.79199C6.12245 1.79199 5.73944 2.15723 5.73944 2.89668L5.73944 3.55684L3.95683 3.55684L3.95683 3.03223C3.95683 1.04883 5.0246 0.146492 6.85233 0.146492L15.4648 0.146492C17.3744 0.146492 18.3603 1.04883 18.3603 3.03223Z" fill="white" fill-opacity="0.85"/>
  <path d="M22.3172 6.58164L22.3172 15.5676C22.3172 17.5598 21.2445 18.5924 19.2603 18.5924L18.2463 18.5924L18.2463 16.8629L19.2623 16.8629C20.0637 16.8629 20.4865 16.4418 20.4865 15.6387L20.4865 6.5123C20.4865 5.70917 20.0637 5.28456 19.2623 5.28456L3.06288 5.28456C2.25351 5.28456 1.83866 5.70917 1.83866 6.5123L1.83866 15.6387C1.83866 16.4418 2.25351 16.8629 3.06288 16.8629L4.07089 16.8629L4.07089 18.5924L3.06484 18.5924C1.07265 18.5924 0 17.5598 0 15.5676L0 6.58164C0 4.59746 1.15449 3.55684 3.06484 3.55684L19.2603 3.55684C21.2445 3.55684 22.3172 4.59746 22.3172 6.58164ZM18.298 7.57265C18.298 8.27109 17.7221 8.83905 17.0396 8.83905C16.3412 8.83905 15.7732 8.27109 15.7732 7.57265C15.7732 6.89023 16.3412 6.31425 17.0396 6.31425C17.7221 6.31425 18.298 6.89023 18.298 7.57265Z" fill="white" fill-opacity="0.85"/>
  <path d="M6.13827 21.5894L16.1789 21.5894C17.5633 21.5894 18.2463 20.9545 18.2463 19.5203L18.2463 11.8223C18.2463 10.3898 17.5633 9.75488 16.1789 9.75488L6.13827 9.75488C4.8037 9.75488 4.07089 10.3898 4.07089 11.8223L4.07089 19.5203C4.07089 20.9545 4.7539 21.5894 6.13827 21.5894ZM6.54921 19.9039C6.0826 19.9039 5.84003 19.6711 5.84003 19.1947L5.84003 12.1416C5.84003 11.6652 6.0826 11.4422 6.54921 11.4422L15.776 11.4422C16.2506 11.4422 16.4772 11.6652 16.4772 12.1416L16.4772 19.1947C16.4772 19.6711 16.2506 19.9039 15.776 19.9039ZM7.933 14.675L14.4055 14.675C14.7869 14.675 15.0689 14.385 15.0689 14.0017C15.0689 13.6381 14.7869 13.3578 14.4055 13.3578L7.933 13.3578C7.54804 13.3578 7.25976 13.6381 7.25976 14.0017C7.25976 14.385 7.54979 14.675 7.933 14.675ZM7.933 17.9988L14.4055 17.9988C14.7869 17.9988 15.0689 17.7105 15.0689 17.3451C15.0689 16.9699 14.7869 16.6799 14.4055 16.6799L7.933 16.6799C7.54979 16.6799 7.25976 16.9699 7.25976 17.3451C7.25976 17.7105 7.54804 17.9988 7.933 17.9988Z" fill="white" fill-opacity="0.85"/>
 </g>
</svg>
