<?xml version="1.0" encoding="UTF-8"?>
<!--Generator: Apple Native CoreSVG 341-->
<!DOCTYPE svg
PUBLIC "-//W3C//DTD SVG 1.1//EN"
       "http://www.w3.org/Graphics/SVG/1.1/DTD/svg11.dtd">
<svg version="1.1" xmlns="http://www.w3.org/2000/svg" xmlns:xlink="http://www.w3.org/1999/xlink" viewBox="0 0 25.2678 24.5094">
 <g>
  <rect height="24.5094" opacity="0" width="25.2678" x="0" y="0"/>
  <path d="M19.6478 3.94335L19.6478 4.03046L5.33593 4.03046L5.33593 3.94335C5.33593 2.34512 6.53535 1.60645 8.18964 1.60645L16.8021 1.60645C18.524 1.60645 19.6478 2.34512 19.6478 3.94335Z" fill="white" fill-opacity="0.85"/>
  <path d="M23.5193 8.43007L23.5193 16.2861C23.5193 18.2713 22.4502 19.2986 20.4748 19.2986L20.1738 19.2986L20.1738 14.0703C20.1738 12.732 19.1719 11.7318 17.8336 11.7318L7.06405 11.7318C5.73378 11.7318 4.72558 12.732 4.72558 14.0703L4.72558 19.2986L4.43163 19.2986C2.45625 19.2986 1.38711 18.2713 1.38711 16.2861L1.38711 8.43007C1.38711 6.44491 2.53808 5.40956 4.43163 5.40956L20.4748 5.40956C22.4502 5.40956 23.5193 6.44491 23.5193 8.43007ZM17.1168 8.83182C17.1168 9.54627 17.7008 10.124 18.417 10.124C19.1154 10.124 19.7074 9.53827 19.7074 8.83182C19.7074 8.12538 19.1154 7.53339 18.417 7.53339C17.7008 7.53339 17.1168 8.12538 17.1168 8.83182Z" fill="white" fill-opacity="0.85"/>
  <path d="M6.11269 21.8013C6.11269 22.5994 6.64355 23.1303 7.43358 23.1303L17.4658 23.1303C18.2639 23.1303 18.7947 22.5994 18.7947 21.8013L18.7947 14.0703C18.7947 13.4943 18.4113 13.1189 17.8336 13.1189L7.06405 13.1189C6.49433 13.1189 6.11269 13.4943 6.11269 14.0703ZM9.51015 21.6838C9.02284 21.6838 8.61542 21.2941 8.61542 20.789C8.61542 20.292 9.02284 19.9023 9.51015 19.9023C10.0072 19.9023 10.4129 20.292 10.4129 20.789C10.4129 21.2941 10.0072 21.6838 9.51015 21.6838ZM9.51015 19.0113C9.02284 19.0113 8.61542 18.6217 8.61542 18.1246C8.61542 17.6195 9.02284 17.2299 9.51015 17.2299C10.0072 17.2299 10.4129 17.6195 10.4129 18.1246C10.4129 18.6217 10.0072 19.0113 9.51015 19.0113ZM9.51015 16.3469C9.02284 16.3469 8.61542 15.9572 8.61542 15.4521C8.61542 14.9568 9.02284 14.5654 9.51015 14.5654C10.0072 14.5654 10.4129 14.9568 10.4129 15.4521C10.4129 15.9572 10.0072 16.3469 9.51015 16.3469ZM15.3973 21.6838C14.91 21.6838 14.5025 21.2941 14.5025 20.789C14.5025 20.292 14.91 19.9023 15.3973 19.9023C15.8943 19.9023 16.3 20.292 16.3 20.789C16.3 21.2941 15.8943 21.6838 15.3973 21.6838ZM15.3973 19.0113C14.91 19.0113 14.5025 18.6269 14.5025 18.1246C14.5025 17.6195 14.91 17.2299 15.3973 17.2299C15.8943 17.2299 16.3 17.6195 16.3 18.1246C16.3 18.6217 15.8943 19.0113 15.3973 19.0113ZM15.3973 16.3469C14.91 16.3469 14.5025 15.9572 14.5025 15.4521C14.5025 14.9568 14.91 14.5654 15.3973 14.5654C15.8943 14.5654 16.3 14.9568 16.3 15.4521C16.3 15.9572 15.8943 16.3469 15.3973 16.3469Z" fill="white" fill-opacity="0.85"/>
 </g>
</svg>
