<?xml version="1.0" encoding="UTF-8"?>
<!--Generator: Apple Native CoreSVG 341-->
<!DOCTYPE svg
PUBLIC "-//W3C//DTD SVG 1.1//EN"
       "http://www.w3.org/Graphics/SVG/1.1/DTD/svg11.dtd">
<svg version="1.1" xmlns="http://www.w3.org/2000/svg" xmlns:xlink="http://www.w3.org/1999/xlink" viewBox="0 0 22.0689 21.7972">
 <g>
  <rect height="21.7972" opacity="0" width="22.0689" x="0" y="0"/>
  <path d="M7.76835 7.77011C8.1496 7.38085 8.14159 6.75312 7.76835 6.37988L4.56229 3.18007C4.1873 2.80683 3.56132 2.80683 3.18007 3.18007C2.80683 3.55331 2.80683 4.1873 3.18007 4.56229L6.37988 7.77011C6.75312 8.14159 7.37909 8.1496 7.76835 7.77011Z" fill="white" fill-opacity="0.85"/>
  <path d="M6.48925 10.8547C6.48925 10.3156 6.03437 9.87851 5.50332 9.87851L0.976167 9.87851C0.446873 9.87851 0 10.3156 0 10.8547C0 11.3857 0.446873 11.8326 0.976167 11.8326L5.50332 11.8326C6.03437 11.8326 6.48925 11.4017 6.48925 10.8547Z" fill="white" fill-opacity="0.85"/>
  <path d="M7.76835 13.941C7.37909 13.5598 6.75312 13.5678 6.37988 13.941L3.18007 17.1471C2.80683 17.5221 2.80683 18.148 3.18007 18.5293C3.56132 18.9025 4.1873 18.9105 4.56229 18.5293L7.76835 15.3295C8.14159 14.9562 8.1496 14.3285 7.76835 13.941Z" fill="white" fill-opacity="0.85"/>
  <path d="M10.8547 15.2281C10.3236 15.2281 9.87675 15.675 9.87675 16.2043L9.87675 20.7314C9.87675 21.2625 10.3156 21.7094 10.8547 21.7094C11.384 21.7094 11.8308 21.2625 11.8308 20.7314L11.8308 16.2043C11.8308 15.675 11.392 15.2281 10.8547 15.2281Z" fill="white" fill-opacity="0.85"/>
  <path d="M13.9392 13.941C13.558 14.3285 13.566 14.9562 13.9392 15.3295L17.1453 18.5293C17.5203 18.9105 18.156 18.9025 18.5293 18.5293C18.9088 18.148 18.9008 17.5221 18.5293 17.1471L15.3277 13.941C14.9562 13.5678 14.3285 13.5598 13.9392 13.941Z" fill="white" fill-opacity="0.85"/>
  <path d="M15.2183 10.8547C15.2183 11.4017 15.6732 11.8326 16.2123 11.8326L20.7314 11.8326C21.2625 11.8326 21.7076 11.3857 21.7076 10.8547C21.7076 10.3156 21.2625 9.87851 20.7314 9.87851L16.2123 9.87851C15.6732 9.87851 15.2183 10.3156 15.2183 10.8547Z" fill="white" fill-opacity="0.85"/>
  <path d="M13.9392 7.77011C14.3285 8.1496 14.9562 8.14159 15.3277 7.77011L18.5293 4.56229C18.9088 4.1873 18.9008 3.55331 18.5293 3.18007C18.148 2.80683 17.5203 2.80683 17.1453 3.18007L13.9392 6.37988C13.566 6.75312 13.558 7.38085 13.9392 7.77011Z" fill="white" fill-opacity="0.85"/>
  <path d="M10.8547 6.48124C11.392 6.48124 11.8308 6.03437 11.8308 5.50507L11.8308 0.977924C11.8308 0.446873 11.384 0 10.8547 0C10.3156 0 9.87675 0.446873 9.87675 0.977924L9.87675 5.50507C9.87675 6.03437 10.3236 6.48124 10.8547 6.48124Z" fill="white" fill-opacity="0.85"/>
 </g>
</svg>
