<?xml version="1.0" encoding="UTF-8"?>
<!--Generator: Apple Native CoreSVG 341-->
<!DOCTYPE svg
PUBLIC "-//W3C//DTD SVG 1.1//EN"
       "http://www.w3.org/Graphics/SVG/1.1/DTD/svg11.dtd">
<svg version="1.1" xmlns="http://www.w3.org/2000/svg" xmlns:xlink="http://www.w3.org/1999/xlink" viewBox="0 0 17.5932 18.309">
 <g>
  <rect height="18.309" opacity="0" width="17.5932" x="0" y="0"/>
  <path d="M1.12069 12.1783C1.45721 12.1783 1.73182 12.0597 1.94002 11.8347L9.20859 4.29371L8.02499 4.29371L15.2918 11.8347C15.5018 12.0535 15.7764 12.1783 16.1111 12.1783C16.7535 12.1783 17.2318 11.6797 17.2318 11.0453C17.2318 10.7474 17.1342 10.4984 16.9084 10.2541L9.47284 2.53455C9.23729 2.2867 8.95468 2.15643 8.61992 2.15643C8.28691 2.15643 8.0043 2.27869 7.76074 2.53455L0.323435 10.2541C0.0896484 10.4984 0 10.7474 0 11.0453C0 11.6797 0.488082 12.1783 1.12069 12.1783ZM1.37636 2.18397L15.843 2.18397C16.4844 2.18397 16.9291 1.71444 16.9291 1.08886C16.9291 0.461519 16.4844 0 15.843 0L1.37636 0C0.742965 0 0.304492 0.465035 0.304492 1.08886C0.304492 1.71444 0.742965 2.18397 1.37636 2.18397Z" fill="white" fill-opacity="0.85"/>
 </g>
</svg>
