<?xml version="1.0" encoding="UTF-8"?>
<!--Generator: Apple Native CoreSVG 341-->
<!DOCTYPE svg
PUBLIC "-//W3C//DTD SVG 1.1//EN"
       "http://www.w3.org/Graphics/SVG/1.1/DTD/svg11.dtd">
<svg version="1.1" xmlns="http://www.w3.org/2000/svg" xmlns:xlink="http://www.w3.org/1999/xlink" viewBox="0 0 20.5381 20.1848">
 <g>
  <rect height="20.1848" opacity="0" width="20.5381" x="0" y="0"/>
  <path d="M20.1767 10.0875C20.1767 15.6478 15.6576 20.175 10.0875 20.175C4.52715 20.175 0 15.6478 0 10.0875C0 4.51914 4.52715 0 10.0875 0C15.6576 0 20.1767 4.51914 20.1767 10.0875ZM7.73887 8.06269L7.73887 12.1592L7.80176 13.6172L7.18672 12.9107L6.74316 12.4521C6.57207 12.266 6.40527 12.1969 6.18808 12.1969C5.82891 12.1969 5.53457 12.4852 5.53457 12.8629C5.53457 13.0428 5.61797 13.2291 5.7748 13.3904L7.69883 15.2861C7.93672 15.508 8.19472 15.6322 8.4457 15.6322C8.70468 15.6322 8.96894 15.516 9.20058 15.2861L11.1326 13.3824C11.2894 13.2131 11.3631 13.0428 11.3631 12.8629C11.3631 12.4852 11.0607 12.1969 10.7033 12.1969C10.4701 12.1969 10.3246 12.2713 10.1518 12.4361L9.71269 12.9027L9.08964 13.6172L9.15253 12.1512L9.15253 8.20702C9.15253 6.6748 9.88945 5.85429 11.1932 5.85429C12.3762 5.85429 13.1746 6.66523 13.1746 7.87324C13.1666 9.04316 12.4018 9.84355 11.3092 9.84355C11.0207 9.84355 10.8717 9.78398 10.6949 9.78398C10.3305 9.78398 10.0758 10.0465 10.0758 10.3773C10.0758 10.598 10.1635 10.7691 10.3193 10.9021C10.5269 11.0922 10.8883 11.1978 11.2807 11.1978C13.2461 11.1978 14.5457 9.86445 14.5457 7.87324C14.5457 5.85976 13.185 4.44941 11.1932 4.44941C9.07031 4.44941 7.73887 5.84746 7.73887 8.06269Z" fill="white" fill-opacity="0.85"/>
 </g>
</svg>
