<?xml version="1.0" encoding="UTF-8"?>
<!--Generator: Apple Native CoreSVG 341-->
<!DOCTYPE svg
PUBLIC "-//W3C//DTD SVG 1.1//EN"
       "http://www.w3.org/Graphics/SVG/1.1/DTD/svg11.dtd">
<svg version="1.1" xmlns="http://www.w3.org/2000/svg" xmlns:xlink="http://www.w3.org/1999/xlink" viewBox="0 0 20.5381 20.1848">
 <g>
  <rect height="20.1848" opacity="0" width="20.5381" x="0" y="0"/>
  <path d="M10.0875 20.175C15.6576 20.175 20.1767 15.6559 20.1767 10.0875C20.1767 4.51914 15.6576 0 10.0875 0C4.51914 0 0 4.51914 0 10.0875C0 15.6559 4.51914 20.175 10.0875 20.175ZM10.0875 18.1879C5.60839 18.1879 1.9871 14.5666 1.9871 10.0875C1.9871 5.60839 5.60839 1.9871 10.0875 1.9871C14.5666 1.9871 18.1897 5.60839 18.1897 10.0875C18.1897 14.5666 14.5666 18.1879 10.0875 18.1879Z" fill="white" fill-opacity="0.85"/>
  <path d="M5.70723 12.7557C5.70723 12.932 5.78887 13.1051 5.93242 13.2549L7.78555 15.0894C8.01191 15.298 8.26465 15.4125 8.5041 15.4125C8.74804 15.4125 8.99902 15.3061 9.21914 15.0894L11.0803 13.2469C11.2318 13.0891 11.3055 12.932 11.3055 12.7557C11.3055 12.393 11.0182 12.118 10.674 12.118C10.4541 12.118 10.3104 12.1906 10.1508 12.352L9.71972 12.8008L9.11796 13.4922L9.1791 12.0705L9.1791 8.27265C9.1791 6.80155 9.8832 6.00585 11.1391 6.00585C12.2875 6.00585 13.0629 6.79374 13.0531 7.95742C13.0451 9.08476 12.3113 9.86211 11.2533 9.86211C10.9764 9.86211 10.8291 9.80254 10.6639 9.80254C10.3145 9.80254 10.0713 10.05 10.0713 10.3676C10.0713 10.575 10.1572 10.7426 10.2998 10.8658C10.5039 11.0541 10.8537 11.15 11.2248 11.15C13.1141 11.15 14.3641 9.87421 14.3641 7.95742C14.3641 6.01659 13.0547 4.66913 11.1391 4.66913C9.10566 4.66913 7.82383 6.00605 7.82383 8.13984L7.82383 12.0785L7.88496 13.4922L7.29121 12.8088L6.85742 12.36C6.6996 12.1871 6.53457 12.118 6.3289 12.118C5.98828 12.118 5.70723 12.393 5.70723 12.7557Z" fill="white" fill-opacity="0.85"/>
 </g>
</svg>
