<?xml version="1.0" encoding="UTF-8"?>
<!--Generator: Apple Native CoreSVG 341-->
<!DOCTYPE svg
PUBLIC "-//W3C//DTD SVG 1.1//EN"
       "http://www.w3.org/Graphics/SVG/1.1/DTD/svg11.dtd">
<svg version="1.1" xmlns="http://www.w3.org/2000/svg" xmlns:xlink="http://www.w3.org/1999/xlink" viewBox="0 0 24.535 19.1726">
 <g>
  <rect height="19.1726" opacity="0" width="24.535" x="0" y="0"/>
  <path d="M0.380859 16.0922C0.380859 18.0592 1.4748 19.1353 3.47285 19.1353L15.5187 19.1353C17.507 19.1353 18.601 18.0592 18.601 16.0922L18.601 12.8224C18.601 12.6644 18.7101 12.5898 18.8975 12.7115C19.4723 13.1053 20.1465 13.3738 20.9211 13.3738C22.8125 13.3738 24.535 11.8719 24.535 9.5957C24.535 7.32754 22.8125 5.82383 20.9211 5.82383C20.1465 5.82383 19.4723 6.09414 18.8975 6.48789C18.7101 6.60782 18.601 6.53496 18.601 6.3752L18.601 3.0414C18.601 1.07441 17.507 0 15.5187 0L3.47285 0C1.4748 0 0.380859 1.07441 0.380859 3.0414L0.380859 7.34375C0.380859 8.22734 0.968943 8.78241 1.7166 8.78241C2.14042 8.78241 2.52656 8.6121 2.90741 8.27812C3.37011 7.88007 3.87382 7.61815 4.44121 7.61815C5.49824 7.61815 6.36719 8.39726 6.36719 9.57968C6.36719 10.7621 5.49824 11.5395 4.44121 11.5395C3.87382 11.5395 3.37011 11.2713 2.90741 10.8715C2.52656 10.5455 2.14042 10.377 1.7166 10.377C0.968943 10.377 0.380859 10.9303 0.380859 11.8059ZM2.21327 16.0105L2.21327 12.9221C2.21327 12.5088 2.42831 12.6494 2.61562 12.7613C3.17441 13.1053 3.79882 13.3516 4.53339 13.3516C6.41503 13.3516 8.14726 11.8559 8.14726 9.57968C8.14726 7.30351 6.41503 5.80781 4.53339 5.80781C3.79882 5.80781 3.17441 6.05235 2.61562 6.39805C2.42831 6.50996 2.21327 6.64883 2.21327 6.23555L2.21327 3.12304C2.21327 2.29726 2.69413 1.83065 3.50039 1.83065L15.4894 1.83065C16.2975 1.83065 16.7703 2.29726 16.7703 3.12304L16.7703 7.34375C16.7703 8.22734 17.3566 8.80644 18.106 8.80644C18.5299 8.80644 18.916 8.63612 19.2969 8.30214C19.7596 7.90233 20.2633 7.63417 20.8289 7.63417C21.8859 7.63417 22.7549 8.41327 22.7549 9.5957C22.7549 10.7861 21.8859 11.5635 20.8289 11.5635C20.2633 11.5635 19.7596 11.2953 19.2969 10.8955C18.916 10.5615 18.5299 10.393 18.106 10.393C17.3566 10.393 16.7703 10.9703 16.7703 11.8539L16.7703 16.0105C16.7703 16.8443 16.2975 17.3029 15.4894 17.3029L3.50039 17.3029C2.69413 17.3029 2.21327 16.8443 2.21327 16.0105Z" fill="white" fill-opacity="0.85"/>
 </g>
</svg>
