<?xml version="1.0" encoding="UTF-8"?>
<!--Generator: Apple Native CoreSVG 341-->
<!DOCTYPE svg
PUBLIC "-//W3C//DTD SVG 1.1//EN"
       "http://www.w3.org/Graphics/SVG/1.1/DTD/svg11.dtd">
<svg version="1.1" xmlns="http://www.w3.org/2000/svg" xmlns:xlink="http://www.w3.org/1999/xlink" viewBox="0 0 29.1031 19.1051">
 <g>
  <rect height="19.1051" opacity="0" width="29.1031" x="0" y="0"/>
  <path d="M0 9.53789C0 11.5705 1.43613 12.6871 3.0498 12.6871C3.72265 12.6871 4.22949 12.498 4.82343 12.1305C5.39589 11.7834 5.80332 11.9885 5.80332 12.481L5.80332 16.0117C5.80332 18.0287 6.87519 19.0713 8.91171 19.0713L11.4277 19.0713C11.9123 19.0713 12.1156 18.6701 11.7766 18.0976C11.4027 17.5055 11.2119 16.9969 11.2119 16.3258C11.2119 14.7103 12.3365 13.276 14.3709 13.276C16.4053 13.276 17.5219 14.7103 17.5219 16.3258C17.5219 16.9969 17.331 17.5055 16.9652 18.0976C16.6262 18.6701 16.8215 19.0713 17.3141 19.0713L19.8301 19.0713C21.8666 19.0713 22.9385 18.0287 22.9385 16.0117L22.9385 12.481C22.9385 11.9885 23.3459 11.7834 23.9103 12.1305C24.5123 12.498 25.0191 12.6871 25.684 12.6871C27.3056 12.6871 28.7418 11.5705 28.7418 9.53789C28.7418 7.4955 27.3056 6.3789 25.684 6.3789C25.0191 6.3789 24.5123 6.56797 23.9103 6.93554C23.3459 7.28261 22.9385 7.07754 22.9385 6.58496L22.9385 3.05781C22.9385 1.05058 21.8666 0 19.8301 0L17.3141 0C16.8215 0 16.6262 0.407422 16.9652 0.979882C17.331 1.57207 17.5219 2.08066 17.5219 2.75176C17.5219 4.36718 16.4053 5.80332 14.3709 5.80332C12.3365 5.80332 11.2119 4.36718 11.2119 2.75176C11.2119 2.08066 11.4027 1.57207 11.7766 0.979882C12.1156 0.407422 11.9123 0 11.4277 0L8.91171 0C6.87519 0 5.80332 1.05058 5.80332 3.05781L5.80332 6.58496C5.80332 7.07754 5.39589 7.28261 4.82343 6.93554C4.22949 6.56797 3.72265 6.3789 3.0498 6.3789C1.43613 6.3789 0 7.4955 0 9.53789Z" fill="white" fill-opacity="0.85"/>
 </g>
</svg>
