<?xml version="1.0" encoding="UTF-8"?>
<!--Generator: Apple Native CoreSVG 341-->
<!DOCTYPE svg
PUBLIC "-//W3C//DTD SVG 1.1//EN"
       "http://www.w3.org/Graphics/SVG/1.1/DTD/svg11.dtd">
<svg version="1.1" xmlns="http://www.w3.org/2000/svg" xmlns:xlink="http://www.w3.org/1999/xlink" viewBox="0 0 20.8881 23.062">
 <g>
  <rect height="23.062" opacity="0" width="20.8881" x="0" y="0"/>
  <path d="M0.276987 16.9495C-0.230237 17.8204-0.0431289 18.7599 0.857259 19.1564L9.45882 22.8935C9.97112 23.1195 10.5397 23.1195 11.076 22.8855L19.6695 19.1564C20.5699 18.7599 20.757 17.8204 20.2481 16.9495L11.344 1.55716C11.0512 1.05228 10.6506 0.909896 10.2625 0.909896C9.86819 0.909896 9.46761 1.05228 9.17484 1.55716ZM2.10686 17.2917L10.0928 3.62883C10.1364 3.55774 10.1914 3.52219 10.2625 3.52219C10.3336 3.52219 10.3887 3.54973 10.426 3.62883L18.4199 17.2917C18.5506 17.5273 18.4803 17.7263 18.2653 17.8249L10.5649 21.348C10.3319 21.4556 10.1949 21.4556 9.97795 21.364L2.25178 17.8249C2.04651 17.7263 1.97619 17.5273 2.10686 17.2917ZM9.39554 22.1896L11.1233 22.1896L11.1233 2.38197L9.39554 2.38197Z" fill="white" fill-opacity="0.85"/>
 </g>
</svg>
