<?xml version="1.0" encoding="UTF-8"?>
<!--Generator: Apple Native CoreSVG 341-->
<!DOCTYPE svg
PUBLIC "-//W3C//DTD SVG 1.1//EN"
       "http://www.w3.org/Graphics/SVG/1.1/DTD/svg11.dtd">
<svg version="1.1" xmlns="http://www.w3.org/2000/svg" xmlns:xlink="http://www.w3.org/1999/xlink" viewBox="0 0 18.5894 18.2316">
 <g>
  <rect height="18.2316" opacity="0" width="18.5894" x="0" y="0"/>
  <path d="M3.20351 18.2281L15.0246 18.2281C17.1404 18.2281 18.2281 17.1502 18.2281 15.0646L18.2281 3.17148C18.2281 1.08769 17.1404 0 15.0246 0L3.20351 0C1.0957 0 0 1.08769 0 3.17148L0 15.0646C0 17.1502 1.0957 18.2281 3.20351 18.2281ZM3.31444 16.3148C2.40643 16.3148 1.91327 15.8465 1.91327 14.8977L1.91327 3.34023C1.91327 2.39139 2.40643 1.91503 3.31444 1.91503L14.9137 1.91503C15.8137 1.91503 16.3148 2.39139 16.3148 3.34023L16.3148 14.8977C16.3148 15.8465 15.8137 16.3148 14.9137 16.3148Z" fill="white" fill-opacity="0.85"/>
  <path d="M9.11894 13.6717C9.64316 13.6717 10.1398 13.5863 10.5707 13.4236L11.1594 14.2221C11.3678 14.5367 11.5797 14.6457 11.8748 14.6457C12.2781 14.6457 12.5662 14.3709 12.5662 13.9764C12.5662 13.7813 12.5023 13.6395 12.3115 13.383L11.8205 12.7248C12.7912 11.923 13.3738 10.6301 13.3738 9.04062C13.3738 6.27265 11.6172 4.40156 9.11894 4.40156C6.61894 4.40156 4.8623 6.27265 4.8623 9.04062C4.8623 11.8023 6.61894 13.6717 9.11894 13.6717ZM9.11894 12.2022C7.6746 12.2022 6.71307 10.9818 6.71307 9.04062C6.71307 7.09139 7.6746 5.87283 9.11894 5.87283C10.5695 5.87283 11.5311 7.09139 11.5311 9.04062C11.5311 10.0328 11.258 10.8498 10.7795 11.3742L10.3072 10.7436C10.1686 10.5684 10.0344 10.507 9.82382 10.507C9.48925 10.507 9.21679 10.7564 9.21679 11.083C9.21679 11.249 9.27363 11.3822 9.39179 11.552L9.79297 12.1025C9.59023 12.1701 9.36972 12.2022 9.11894 12.2022Z" fill="white" fill-opacity="0.85"/>
 </g>
</svg>
