<?xml version="1.0" encoding="UTF-8"?>
<!--Generator: Apple Native CoreSVG 341-->
<!DOCTYPE svg
PUBLIC "-//W3C//DTD SVG 1.1//EN"
       "http://www.w3.org/Graphics/SVG/1.1/DTD/svg11.dtd">
<svg version="1.1" xmlns="http://www.w3.org/2000/svg" xmlns:xlink="http://www.w3.org/1999/xlink" viewBox="0 0 18.5894 18.2316">
 <g>
  <rect height="18.2316" opacity="0" width="18.5894" x="0" y="0"/>
  <path d="M18.2281 3.17148L18.2281 15.0646C18.2281 17.1502 17.1404 18.2281 15.0246 18.2281L3.20351 18.2281C1.0957 18.2281 0 17.1502 0 15.0646L0 3.17148C0 1.08769 1.0957 0 3.20351 0L15.0246 0C17.1404 0 18.2281 1.08769 18.2281 3.17148ZM4.708 9.03261C4.708 11.9068 6.54082 13.8551 9.13828 13.8551C9.68378 13.8551 10.1937 13.7617 10.6441 13.5973L11.2523 14.4152C11.4723 14.7467 11.6877 14.8654 11.9996 14.8654C12.4277 14.8654 12.7246 14.5756 12.7246 14.1643C12.7246 13.9576 12.659 13.8123 12.4664 13.5426L11.9558 12.8603C12.9629 12.032 13.5685 10.6894 13.5685 9.03261C13.5685 6.15039 11.7375 4.21191 9.13828 4.21191C6.54082 4.21191 4.708 6.15039 4.708 9.03261ZM11.632 9.03261C11.632 10.0621 11.351 10.8986 10.8627 11.4408L10.3744 10.7959C10.234 10.6189 10.0918 10.5496 9.86972 10.5496C9.52187 10.5496 9.23789 10.8088 9.23789 11.1521C9.23789 11.3279 9.29472 11.4709 9.42265 11.6406L9.83183 12.209C9.62109 12.2766 9.39082 12.3086 9.13828 12.3086C7.64686 12.3086 6.65428 11.0475 6.65428 9.03261C6.65428 7.01776 7.64686 5.75662 9.13828 5.75662C10.6395 5.75662 11.632 7.01776 11.632 9.03261Z" fill="white" fill-opacity="0.85"/>
 </g>
</svg>
