<?xml version="1.0" encoding="UTF-8"?>
<!--Generator: Apple Native CoreSVG 341-->
<!DOCTYPE svg
PUBLIC "-//W3C//DTD SVG 1.1//EN"
       "http://www.w3.org/Graphics/SVG/1.1/DTD/svg11.dtd">
<svg version="1.1" xmlns="http://www.w3.org/2000/svg" xmlns:xlink="http://www.w3.org/1999/xlink" viewBox="0 0 18.5894 18.2476">
 <g>
  <rect height="18.2476" opacity="0" width="18.5894" x="0" y="0"/>
  <path d="M0 5.20469L1.91327 5.20469L1.91327 3.34999C1.91327 2.40116 2.40643 1.9328 3.31444 1.9328L5.15312 1.9328L5.15312 0.0195312L3.20351 0.0195312C1.0957 0.0195312 0 1.09746 0 3.19101ZM6.58066 1.9328L11.6475 1.9328L11.6475 0.0195312L6.58066 0.0195312ZM16.3148 5.20469L18.2281 5.20469L18.2281 3.19101C18.2281 1.10547 17.1324 0.0195312 15.0246 0.0195312L13.075 0.0195312L13.075 1.9328L14.9137 1.9328C15.8137 1.9328 16.3148 2.40116 16.3148 3.34999ZM16.3148 11.6332L18.2281 11.6332L18.2281 6.63222L16.3148 6.63222ZM13.075 18.2476L15.0246 18.2476C17.1324 18.2476 18.2281 17.16 18.2281 15.0762L18.2281 13.0607L16.3148 13.0607L16.3148 14.9154C16.3148 15.8643 15.8137 16.3344 14.9137 16.3344L13.075 16.3344ZM6.58066 18.2476L11.6475 18.2476L11.6475 16.3344L6.58066 16.3344ZM3.20351 18.2476L5.15312 18.2476L5.15312 16.3344L3.31444 16.3344C2.40643 16.3344 1.91327 15.8643 1.91327 14.9154L1.91327 13.0607L0 13.0607L0 15.0762C0 17.168 1.0957 18.2476 3.20351 18.2476ZM0 11.6332L1.91327 11.6332L1.91327 6.63222L0 6.63222Z" fill="white" fill-opacity="0.85"/>
  <path d="M8.90605 11.0684C9.44628 11.0684 9.78671 10.7523 9.81132 10.3574C9.81308 10.3201 9.81483 10.2713 9.81659 10.242C9.84472 9.73554 10.1916 9.39453 10.8215 8.97871C11.7863 8.35019 12.4092 7.79082 12.4092 6.65234C12.4092 5.02949 10.9445 4.09785 9.2123 4.09785C7.54589 4.09785 6.4125 4.86699 6.10566 5.78125C6.04805 5.94629 6.01523 6.11132 6.01523 6.28789C6.01523 6.75898 6.37988 7.0496 6.77421 7.0496C7.1371 7.0496 7.37382 6.89687 7.56542 6.64316L7.71835 6.43866C8.0496 5.90917 8.51796 5.62108 9.09922 5.62108C9.89297 5.62108 10.4199 6.09022 10.4199 6.75156C10.4199 7.37343 10.0115 7.6746 9.18653 8.24921C8.48867 8.73398 7.98067 9.23574 7.98067 10.1225C7.98067 10.1562 7.98067 10.1963 7.98067 10.2301C7.98067 10.7818 8.31309 11.0684 8.90605 11.0684ZM8.89179 14.0576C9.51796 14.0576 10.0326 13.6014 10.0326 12.9857C10.0326 12.3719 9.52597 11.9139 8.89179 11.9139C8.25761 11.9139 7.7457 12.3781 7.7457 12.9857C7.7457 13.5934 8.26562 14.0576 8.89179 14.0576Z" fill="white" fill-opacity="0.85"/>
 </g>
</svg>
