<?xml version="1.0" encoding="UTF-8"?>
<!--Generator: Apple Native CoreSVG 341-->
<!DOCTYPE svg
PUBLIC "-//W3C//DTD SVG 1.1//EN"
       "http://www.w3.org/Graphics/SVG/1.1/DTD/svg11.dtd">
<svg version="1.1" xmlns="http://www.w3.org/2000/svg" xmlns:xlink="http://www.w3.org/1999/xlink" viewBox="0 0 22.2363 21.8605">
 <g>
  <rect height="21.8605" opacity="0" width="22.2363" x="0" y="0"/>
  <path d="M21.875 5.83047L21.875 13.4041C21.875 16.3023 20.2281 17.983 17.2898 17.983L10.8412 17.983L7.26835 21.2162C6.78124 21.6652 6.46991 21.8605 6.0662 21.8605C5.47792 21.8605 5.1373 21.4426 5.1373 20.8002L5.1373 17.983L4.52363 17.983C1.6873 17.983 0 16.3103 0 13.4041L0 5.83047C0 2.92422 1.64687 1.24356 4.58515 1.24356L17.2898 1.24356C20.2281 1.24356 21.875 2.93223 21.875 5.83047ZM9.50586 13.632C9.50586 14.276 10.0523 14.7473 10.6988 14.7473C11.3533 14.7473 11.8945 14.284 11.8945 13.632C11.8945 12.9916 11.3613 12.5168 10.6988 12.5168C10.0443 12.5168 9.50586 12.9979 9.50586 13.632ZM7.79492 6.13691C7.7373 6.30371 7.69472 6.47851 7.69472 6.66836C7.69472 7.15449 8.08418 7.46191 8.50507 7.46191C8.87499 7.46191 9.12499 7.29941 9.32636 7.03867L9.48105 6.82616C9.83183 6.27714 10.3117 5.98729 10.9125 5.98729C11.7338 5.98729 12.282 6.46796 12.282 7.14882C12.282 7.79199 11.8586 8.10468 10.9945 8.7041C10.2799 9.21015 9.74883 9.72519 9.74883 10.651C9.74883 10.6848 9.74883 10.7266 9.74883 10.7604C9.74883 11.3387 10.09 11.6385 10.7211 11.6385C11.2781 11.6385 11.6353 11.3109 11.6617 10.893C11.6635 10.8539 11.6652 10.8051 11.667 10.7758C11.6986 10.248 12.0605 9.89551 12.7197 9.4664C13.7226 8.81308 14.3766 8.23242 14.3766 7.04609C14.3766 5.3541 12.849 4.39687 11.0406 4.39687C9.29355 4.39687 8.11855 5.18281 7.79492 6.13691Z" fill="white" fill-opacity="0.85"/>
 </g>
</svg>
