<?xml version="1.0" encoding="UTF-8"?>
<!--Generator: Apple Native CoreSVG 341-->
<!DOCTYPE svg
PUBLIC "-//W3C//DTD SVG 1.1//EN"
       "http://www.w3.org/Graphics/SVG/1.1/DTD/svg11.dtd">
<svg version="1.1" xmlns="http://www.w3.org/2000/svg" xmlns:xlink="http://www.w3.org/1999/xlink" viewBox="0 0 22.8129 22.46">
 <g>
  <rect height="22.46" opacity="0" width="22.8129" x="0" y="0"/>
  <path d="M13.4913 1.12864L21.3214 8.95872C22.8142 10.4532 22.8239 11.989 21.3454 13.4675L13.4753 21.3456C11.9905 22.8224 10.461 22.8144 8.96651 21.3198L1.13018 13.4835C-0.364349 11.989-0.380365 10.4613 1.1044 8.97473L8.98428 1.10461C10.469-0.380149 11.9985-0.364134 13.4913 1.12864ZM9.78526 15.247C9.78526 15.8847 10.3317 16.3622 10.9782 16.3622C11.6327 16.3622 12.1739 15.8927 12.1739 15.247C12.1739 14.6066 11.6407 14.1238 10.9782 14.1238C10.3237 14.1238 9.78526 14.6128 9.78526 15.247ZM8.08233 7.75188C8.0167 7.92043 7.97413 8.09348 7.97413 8.28332C7.97413 8.77121 8.36358 9.07863 8.78447 9.07863C9.15439 9.07863 9.4124 8.91437 9.61377 8.65539L9.76846 8.44289C10.1192 7.89211 10.5911 7.60226 11.1937 7.60226C12.0132 7.60226 12.5614 8.08468 12.5614 8.76379C12.5614 9.40695 12.138 9.72141 11.2739 10.3191C10.5593 10.8251 10.0282 11.3419 10.0282 12.2677C10.0282 12.3015 10.0282 12.3415 10.0282 12.3753C10.0282 12.9536 10.3694 13.2552 11.0005 13.2552C11.5575 13.2552 11.9147 12.9277 11.9411 12.5097C11.9429 12.4689 11.9446 12.42 11.9481 12.3925C11.978 11.863 12.3399 11.5105 12.9991 11.0831C14.002 10.4298 14.656 9.84738 14.656 8.66281C14.656 6.96906 13.1284 6.0136 11.32 6.0136C9.57295 6.0136 8.39795 6.79954 8.08233 7.75188Z" fill="white" fill-opacity="0.85"/>
 </g>
</svg>
