<?xml version="1.0" encoding="UTF-8"?>
<!--Generator: Apple Native CoreSVG 341-->
<!DOCTYPE svg
PUBLIC "-//W3C//DTD SVG 1.1//EN"
       "http://www.w3.org/Graphics/SVG/1.1/DTD/svg11.dtd">
<svg version="1.1" xmlns="http://www.w3.org/2000/svg" xmlns:xlink="http://www.w3.org/1999/xlink" viewBox="0 0 20.5381 20.1848">
 <g>
  <rect height="20.1848" opacity="0" width="20.5381" x="0" y="0"/>
  <path d="M1.9951 10.0875C1.9951 9.24101 2.12303 8.42382 2.35936 7.6662L0.522071 6.89687C0.191797 7.90449 0 8.97246 0 10.0875C0 11.1945 0.191797 12.2687 0.530078 13.2781L2.35936 12.507C2.12303 11.7512 1.9951 10.934 1.9951 10.0875ZM6.32909 2.89256L5.57578 1.0793C3.64043 2.05664 2.04863 3.64844 1.07305 5.58379L2.90233 6.34511C3.65721 4.87147 4.86347 3.66346 6.32909 2.89256ZM10.0795 1.9871C10.926 1.9871 11.7432 2.11503 12.5168 2.35936L13.2701 0.530078C12.2625 0.191797 11.1865 0 10.0795 0C8.97421 0 7.89023 0.191797 6.88085 0.530078L7.65194 2.35936C8.41581 2.11503 9.233 1.9871 10.0795 1.9871ZM17.2744 6.3371L19.0957 5.58379C18.1103 3.64844 16.5185 2.05664 14.5832 1.07129L13.8299 2.89256C15.2955 3.65546 16.5115 4.86347 17.2744 6.3371ZM18.1897 10.0875C18.1897 10.934 18.06 11.7512 17.8236 12.515L19.6449 13.2861C19.985 12.2768 20.1767 11.1945 20.1767 10.0875C20.1767 8.97246 19.985 7.89648 19.6449 6.88886L17.8156 7.65819C18.06 8.42382 18.1897 9.24101 18.1897 10.0875ZM13.8299 17.2727L14.5832 19.1019C16.5266 18.1184 18.1184 16.5266 19.0877 14.5912L17.2824 13.8379C16.5195 15.3115 15.3035 16.5098 13.8299 17.2727ZM10.0875 18.1879C9.233 18.1879 8.41581 18.06 7.65194 17.8156L6.88886 19.6449C7.89824 19.9832 8.98222 20.175 10.0875 20.175C11.1945 20.175 12.2705 19.9832 13.2701 19.6529L12.5088 17.8236C11.7432 18.06 10.934 18.1879 10.0875 18.1879ZM2.90233 13.8379L1.08105 14.5912C2.06465 16.5266 3.64043 18.1184 5.57578 19.0939L6.32909 17.2647C4.86347 16.5018 3.65721 15.3035 2.90233 13.8379Z" fill="white" fill-opacity="0.85"/>
  <path d="M9.8666 12.0369C10.3988 12.0369 10.7473 11.7289 10.7719 11.326C10.7736 11.2887 10.7754 11.2479 10.7789 11.2105C10.8053 10.7041 11.1441 10.3711 11.782 9.95527C12.7486 9.32675 13.3697 8.75937 13.3697 7.6289C13.3697 5.99804 11.9068 5.07441 10.1728 5.07441C8.49843 5.07441 7.36504 5.83554 7.06621 6.7498C7.00859 6.92285 6.97578 7.08789 6.97578 7.26445C6.97578 7.72753 7.34043 8.02616 7.73476 8.02616C8.08964 8.02616 8.33437 7.87343 8.52597 7.61171L8.6789 7.41523C9.01015 6.87772 9.47226 6.59764 10.0615 6.59764C10.8535 6.59764 11.3805 7.05878 11.3805 7.72812C11.3805 8.34999 10.9721 8.65117 10.1471 9.21777C9.45098 9.70254 8.94121 10.2043 8.94121 11.091C8.94121 11.1248 8.94121 11.1648 8.94121 11.1986C8.94121 11.7584 9.27539 12.0369 9.8666 12.0369ZM9.85234 15.0342C10.4785 15.0342 10.9932 14.5779 10.9932 13.9623C10.9932 13.3404 10.4865 12.8904 9.85234 12.8904C9.21816 12.8904 8.70625 13.3467 8.70625 13.9623C8.70625 14.5699 9.22617 15.0342 9.85234 15.0342Z" fill="white" fill-opacity="0.85"/>
 </g>
</svg>
