<?xml version="1.0" encoding="UTF-8"?>
<!--Generator: Apple Native CoreSVG 341-->
<!DOCTYPE svg
PUBLIC "-//W3C//DTD SVG 1.1//EN"
       "http://www.w3.org/Graphics/SVG/1.1/DTD/svg11.dtd">
<svg version="1.1" xmlns="http://www.w3.org/2000/svg" xmlns:xlink="http://www.w3.org/1999/xlink" viewBox="0 0 11.3668 18.7504">
 <g>
  <rect height="18.7504" opacity="0" width="11.3668" x="0" y="0"/>
  <path d="M4.99922 13.3137C5.73906 13.3137 6.12187 12.852 6.17109 12.183C6.17284 12.0879 6.17636 11.9777 6.17987 11.8844C6.23456 10.6902 6.68124 10.183 8.26483 9.12988C9.98143 8.0041 11.0055 6.70605 11.0055 4.83359C11.0055 1.86875 8.59101 0.136327 5.45176 0.136327C3.12168 0.136327 1.14942 1.18652 0.312309 3.00801C0.0966849 3.47051 5.57902e-06 3.93027 5.57902e-06 4.32949C-0.00175216 5.00214 0.411916 5.46835 1.13242 5.46835C1.70956 5.46835 2.12772 5.14726 2.31815 4.61074C2.79686 2.94159 3.91132 2.29998 5.35176 2.29998C7.09083 2.29998 8.44962 3.29335 8.44962 4.84316C8.44962 6.17812 7.65606 6.90312 6.32169 7.80488C4.83771 8.80957 3.77794 9.90117 3.77794 11.5461C3.77794 11.7195 3.77794 11.8947 3.77794 12.0699C3.77794 12.8057 4.21817 13.3137 4.99922 13.3137ZM5.01152 18.7504C5.90527 18.7504 6.61894 18.0463 6.61894 17.1773C6.61894 16.3039 5.90527 15.6078 5.01152 15.6078C4.13203 15.6078 3.41387 16.3039 3.41387 17.1773C3.41387 18.0463 4.13203 18.7504 5.01152 18.7504Z" fill="white" fill-opacity="0.85"/>
 </g>
</svg>
