<?xml version="1.0" encoding="UTF-8"?>
<!--Generator: Apple Native CoreSVG 341-->
<!DOCTYPE svg
PUBLIC "-//W3C//DTD SVG 1.1//EN"
       "http://www.w3.org/Graphics/SVG/1.1/DTD/svg11.dtd">
<svg version="1.1" xmlns="http://www.w3.org/2000/svg" xmlns:xlink="http://www.w3.org/1999/xlink" viewBox="0 0 22.7412 18.3812">
 <g>
  <rect height="18.3812" opacity="0" width="22.7412" x="0" y="0"/>
  <path d="M7.8744 0.743749L8.43495 1.19688C8.96893 1.63965 9.39217 1.80117 10.0896 1.80117L19.1764 1.80117C21.2762 1.80117 22.3799 2.88886 22.3799 4.97265L22.3799 15.016C22.3799 17.0998 21.2842 18.1875 19.4219 18.1875L3.20351 18.1875C1.0957 18.1875 0 17.1078 0 15.016L0 3.11171C0 1.06269 1.07949 0 2.89921 0L5.66308 0C6.68612 0 7.1912 0.181054 7.8744 0.743749ZM9.86602 13.666C9.86602 14.2559 10.3762 14.7006 10.9748 14.7006C11.5832 14.7006 12.0801 14.2639 12.0801 13.666C12.0801 13.0717 11.5912 12.6297 10.9748 12.6297C10.3682 12.6297 9.86602 13.0779 9.86602 13.666ZM8.29531 6.72812C8.23945 6.88515 8.19687 7.04667 8.19687 7.22499C8.19687 7.67831 8.56152 7.95917 8.94609 7.95917C9.2832 7.95917 9.51816 7.80644 9.708 7.56874L9.85292 7.37226C10.1744 6.85253 10.6187 6.59022 11.1742 6.59022C11.9342 6.59022 12.4434 7.03358 12.4434 7.66913C12.4434 8.26347 12.0527 8.55038 11.2473 9.10722C10.585 9.57421 10.093 10.0502 10.093 10.9094C10.093 10.9432 10.093 10.9752 10.093 11.0107C10.093 11.551 10.4174 11.8197 10.9908 11.8197C11.5098 11.8197 11.8404 11.5232 11.865 11.1301C11.8668 11.0973 11.8685 11.0582 11.8703 11.0209C11.8984 10.5305 12.2293 10.2072 12.8396 9.81542C13.7689 9.21445 14.3758 8.66659 14.3758 7.57792C14.3758 6.01015 12.9627 5.12206 11.2873 5.12206C9.67422 5.12206 8.58613 5.84941 8.29531 6.72812Z" fill="white" fill-opacity="0.85"/>
 </g>
</svg>
