<?xml version="1.0" encoding="UTF-8"?>
<!--Generator: Apple Native CoreSVG 341-->
<!DOCTYPE svg
PUBLIC "-//W3C//DTD SVG 1.1//EN"
       "http://www.w3.org/Graphics/SVG/1.1/DTD/svg11.dtd">
<svg version="1.1" xmlns="http://www.w3.org/2000/svg" xmlns:xlink="http://www.w3.org/1999/xlink" viewBox="0 0 18.573 18.2195">
 <g>
  <rect height="18.2195" opacity="0" width="18.573" x="0" y="0"/>
  <path d="M16.8109 1.39277C17.7262 2.29824 18.2117 3.64141 18.2117 5.35039L18.2117 12.8621C18.2117 14.5693 17.7262 15.9143 16.8109 16.818C15.9232 17.7092 14.5801 18.2107 12.8631 18.2107L5.34238 18.2107C3.6334 18.2107 2.28848 17.7172 1.39277 16.818C0.477539 15.9143 0 14.5693 0 12.8621L0 5.35039C0 3.64141 0.485547 2.29824 1.39277 1.39277C2.28047 0.50332 3.6334 0 5.34238 0L12.8631 0C14.5801 0 15.9152 0.495312 16.8109 1.39277ZM7.6502 13.125C7.6502 13.7609 8.20469 14.2402 8.85117 14.2402C9.50566 14.2402 10.0469 13.7689 10.0469 13.125C10.0469 12.4846 9.51367 12.0018 8.85117 12.0018C8.19668 12.0018 7.6502 12.4908 7.6502 13.125ZM5.94727 5.62988C5.88965 5.79668 5.84707 5.97148 5.84707 6.16132C5.84707 6.64921 6.23652 6.95663 6.65742 6.95663C7.02734 6.95663 7.27558 6.79238 7.4787 6.53339L7.63339 6.31913C7.98417 5.77011 8.46406 5.48026 9.06484 5.48026C9.87813 5.48026 10.4344 5.96093 10.4344 6.64179C10.4344 7.28496 10.0029 7.59941 9.14688 8.19707C8.42422 8.70312 7.90118 9.21992 7.90118 10.1439C7.90118 10.1795 7.90118 10.2195 7.90118 10.2533C7.90118 10.8316 8.24238 11.1314 8.87343 11.1314C9.43046 11.1314 9.78769 10.8039 9.81405 10.3877C9.81581 10.3469 9.81757 10.298 9.81933 10.2687C9.85097 9.74101 10.2129 9.38847 10.8641 8.95937C11.867 8.30781 12.5209 7.72539 12.5209 6.54082C12.5209 4.84707 11.0014 3.8916 9.19297 3.8916C7.4459 3.8916 6.2709 4.67578 5.94727 5.62988Z" fill="white" fill-opacity="0.85"/>
 </g>
</svg>
