<?xml version="1.0" encoding="UTF-8"?>
<!--Generator: Apple Native CoreSVG 341-->
<!DOCTYPE svg
PUBLIC "-//W3C//DTD SVG 1.1//EN"
       "http://www.w3.org/Graphics/SVG/1.1/DTD/svg11.dtd">
<svg version="1.1" xmlns="http://www.w3.org/2000/svg" xmlns:xlink="http://www.w3.org/1999/xlink" viewBox="0 0 24.9982 18.5344">
 <g>
  <rect height="18.5344" opacity="0" width="24.9982" x="0" y="0"/>
  <path d="M9.86083 18.4846C10.3759 18.4846 10.7827 18.0723 10.7827 17.5572L10.7827 0.919331C10.7827 0.40781 10.3706 0 9.86083 0C9.3581 0 8.93095 0.409568 8.93095 0.919331L8.93095 17.5572C8.93095 18.0687 9.35283 18.4846 9.86083 18.4846Z" fill="white" fill-opacity="0.85"/>
  <path d="M14.7761 18.4846C15.2911 18.4846 15.6979 18.0723 15.6979 17.5572L15.6979 0.919331C15.6979 0.40781 15.2858 0 14.7761 0C14.2716 0 13.8462 0.409568 13.8462 0.919331L13.8462 17.5572C13.8462 18.0687 14.2681 18.4846 14.7761 18.4846Z" fill="white" fill-opacity="0.85"/>
  <path d="M3.82412 12.3752C4.57841 12.8668 5.43739 12.5908 5.42939 11.6812L5.42939 6.83262C5.43739 5.89375 4.60947 5.59825 3.82412 6.12891L0.450294 8.42988C-0.13447 8.83633-0.165525 9.70507 0.450294 10.1168ZM20.8048 12.3752L24.1866 10.1168C24.7944 9.70507 24.7714 8.82832 24.1866 8.42988L20.8048 6.12891C20.0194 5.59825 19.2075 5.89375 19.2075 6.83262L19.2075 11.6812C19.2075 12.5908 20.0585 12.8748 20.8048 12.3752Z" fill="white" fill-opacity="0.85"/>
 </g>
</svg>
