<?xml version="1.0" encoding="UTF-8"?>
<!--Generator: Apple Native CoreSVG 341-->
<!DOCTYPE svg
PUBLIC "-//W3C//DTD SVG 1.1//EN"
       "http://www.w3.org/Graphics/SVG/1.1/DTD/svg11.dtd">
<svg version="1.1" xmlns="http://www.w3.org/2000/svg" xmlns:xlink="http://www.w3.org/1999/xlink" viewBox="0 0 22.4795 13.8226">
 <g>
  <rect height="13.8226" opacity="0" width="22.4795" x="0" y="0"/>
  <path d="M10.0486 8.99882C10.0486 6.32207 8.12831 4.24824 5.61796 4.24824C4.41366 4.24824 3.32069 4.70371 2.52245 5.60039L2.20077 5.60039C2.73378 3.81269 4.44023 2.24687 6.6703 1.63144C6.98183 1.5373 7.21171 1.44414 7.35722 1.30761C7.51698 1.17187 7.60487 0.992771 7.60487 0.754099C7.60487 0.312304 7.25722 0.00097692 6.75781 0.00097692C6.383 0.00097692 6.10644 0.0683594 5.61973 0.226171C4.30019 0.663866 3.09101 1.42656 2.14297 2.42344C0.789454 3.82929 0 5.70293 0 7.87617C0 11.6402 2.37168 13.8226 5.22284 13.8226C7.98046 13.8226 10.0486 11.7508 10.0486 8.99882ZM22.1181 8.99882C22.1181 6.32207 20.1881 4.24824 17.6875 4.24824C16.4814 4.24824 15.3787 4.70371 14.592 5.60039L14.2668 5.60039C14.8033 3.81269 16.508 2.24687 18.7318 1.63144C19.0416 1.5373 19.2812 1.44414 19.425 1.30761C19.5847 1.17187 19.6664 0.992771 19.6664 0.754099C19.6664 0.312304 19.325 0.00097692 18.8273 0.00097692C18.4428 0.00097692 18.176 0.0683594 17.6812 0.226171C16.3697 0.663866 15.1525 1.42656 14.2027 2.42344C12.859 3.82929 12.0695 5.70293 12.0695 7.87617C12.0695 11.6402 14.4412 13.8226 17.2906 13.8226C20.05 13.8226 22.1181 11.7508 22.1181 8.99882Z" fill="white" fill-opacity="0.85"/>
 </g>
</svg>
