<?xml version="1.0" encoding="UTF-8"?>
<!--Generator: Apple Native CoreSVG 341-->
<!DOCTYPE svg
PUBLIC "-//W3C//DTD SVG 1.1//EN"
       "http://www.w3.org/Graphics/SVG/1.1/DTD/svg11.dtd">
<svg version="1.1" xmlns="http://www.w3.org/2000/svg" xmlns:xlink="http://www.w3.org/1999/xlink" viewBox="0 0 23.1209 17.3433">
 <g>
  <rect height="17.3433" opacity="0" width="23.1209" x="0" y="0"/>
  <path d="M22.7596 3.11542L22.7596 9.27988C22.7596 14.7508 20.2496 17.3371 14.531 17.3371L8.22851 17.3371C2.50996 17.3371 0 14.7508 0 9.27988L0 3.11542C0 1.07168 1.08769 0 3.14745 0L19.6121 0C21.6719 0 22.7596 1.07168 22.7596 3.11542ZM9.20175 4.40058C8.65156 4.40058 8.32792 4.78945 8.32792 5.38104L8.32792 11.8547C8.32792 12.4322 8.64199 12.8076 9.20175 12.8076C9.79608 12.8076 10.1236 12.4244 10.1236 11.8547L10.1236 9.84296L11.424 9.84296L12.8072 12.2418C13.0441 12.6453 13.3104 12.8076 13.7076 12.8076C14.1982 12.8076 14.5506 12.4838 14.5506 12.0182C14.5506 11.792 14.4699 11.5791 14.335 11.3928L13.1834 9.55644C14.1355 9.15703 14.7584 8.21054 14.7584 7.14745C14.7584 5.44511 13.5219 4.40058 11.6574 4.40058ZM12.9734 7.18827C12.9734 8.05351 12.4154 8.49843 11.4603 8.49843L10.1236 8.49843L10.1236 5.80702L11.4844 5.80702C12.3861 5.80702 12.9734 6.31854 12.9734 7.18827Z" fill="white" fill-opacity="0.85"/>
 </g>
</svg>
