<?xml version="1.0" encoding="UTF-8"?>
<!--Generator: Apple Native CoreSVG 341-->
<!DOCTYPE svg
PUBLIC "-//W3C//DTD SVG 1.1//EN"
       "http://www.w3.org/Graphics/SVG/1.1/DTD/svg11.dtd">
<svg version="1.1" xmlns="http://www.w3.org/2000/svg" xmlns:xlink="http://www.w3.org/1999/xlink" viewBox="0 0 20.5381 20.1848">
 <g>
  <rect height="20.1848" opacity="0" width="20.5381" x="0" y="0"/>
  <path d="M10.0875 20.175C15.6576 20.175 20.1767 15.6559 20.1767 10.0875C20.1767 4.51914 15.6576 0 10.0875 0C4.51914 0 0 4.51914 0 10.0875C0 15.6559 4.51914 20.175 10.0875 20.175ZM10.0875 18.1879C5.60839 18.1879 1.9871 14.5666 1.9871 10.0875C1.9871 5.60839 5.60839 1.9871 10.0875 1.9871C14.5666 1.9871 18.1897 5.60839 18.1897 10.0875C18.1897 14.5666 14.5666 18.1879 10.0875 18.1879Z" fill="white" fill-opacity="0.85"/>
  <path d="M7.55839 14.5584C8.13476 14.5584 8.46542 14.1824 8.46542 13.5609L8.46542 11.335L10.0727 11.335L11.6602 13.9424C11.9438 14.4006 12.177 14.5584 12.5697 14.5584C13.0564 14.5584 13.3986 14.241 13.3986 13.7889C13.3986 13.5512 13.333 13.3756 13.1902 13.1627L11.815 11.0453C12.948 10.6785 13.6691 9.6707 13.6691 8.46679C13.6691 6.68964 12.4059 5.59745 10.3602 5.59745L7.61894 5.59745C6.99433 5.59745 6.66914 5.99823 6.66914 6.64862L6.66914 13.5609C6.66914 14.1682 6.98652 14.5584 7.55839 14.5584ZM8.46542 10.0184L8.46542 6.95409L10.1412 6.95409C11.1641 6.95409 11.8449 7.5246 11.8449 8.50937C11.8449 9.47011 11.173 10.0184 10.1092 10.0184Z" fill="white" fill-opacity="0.85"/>
 </g>
</svg>
