<?xml version="1.0" encoding="UTF-8"?>
<!--Generator: Apple Native CoreSVG 341-->
<!DOCTYPE svg
PUBLIC "-//W3C//DTD SVG 1.1//EN"
       "http://www.w3.org/Graphics/SVG/1.1/DTD/svg11.dtd">
<svg version="1.1" xmlns="http://www.w3.org/2000/svg" xmlns:xlink="http://www.w3.org/1999/xlink" viewBox="0 0 23.1879 29.6946">
 <g>
  <rect height="29.6946" opacity="0" width="23.1879" x="0" y="0"/>
  <path d="M22.8265 14.8424C22.8265 21.1438 17.7049 26.2574 11.4133 26.2574C5.11015 26.2574 0 21.1358 0 14.8424C0 9.9187 3.11995 5.71524 7.49713 4.12507C7.34048 4.7379 7.45479 5.36247 7.77982 5.85169C4.22316 7.28274 1.72519 10.7656 1.72519 14.8424C1.72519 20.2063 6.04941 24.5322 11.4133 24.5322C16.7691 24.5322 21.1014 20.2063 21.1014 14.8424C21.1014 10.7621 18.5945 7.27677 15.0341 5.84829C15.3573 5.35925 15.4701 4.73515 15.3097 4.11952C19.6923 5.70553 22.8265 9.91301 22.8265 14.8424Z" fill="white" fill-opacity="0.85"/>
  <path d="M9.58945 5.35802L13.2176 5.35802C13.924 5.35802 14.1769 4.66838 13.7527 4.11545L11.9476 1.70315C11.6627 1.32854 11.1541 1.32678 10.8754 1.70315L9.04804 4.12346C8.65136 4.65861 8.8705 5.35802 9.58945 5.35802Z" fill="white" fill-opacity="0.85"/>
  <path d="M11.4133 22.7067C15.7498 22.7067 19.266 19.1789 19.266 14.8424C19.266 10.4961 15.7498 6.98791 11.4133 6.98791C7.07499 6.98791 3.55878 10.4961 3.55878 14.8424C3.55878 19.1789 7.07499 22.7067 11.4133 22.7067ZM11.4133 20.9076C8.05292 20.9076 5.3578 18.1965 5.3578 14.8424C5.3578 11.482 8.05292 8.78692 11.4133 8.78692C14.7656 8.78692 17.4687 11.482 17.4687 14.8424C17.4687 18.1965 14.7656 20.9076 11.4133 20.9076ZM9.48593 18.5246C9.9996 18.5246 10.2926 18.1893 10.2926 17.6852L10.2926 15.8873L11.457 15.8873L12.7018 18.0137C12.9139 18.3774 13.1393 18.5246 13.4932 18.5246C13.9279 18.5246 14.2377 18.2354 14.2377 17.8309C14.2377 17.6295 14.1588 17.4477 14.0531 17.2701L13.017 15.6274C13.8697 15.274 14.4162 14.4322 14.4162 13.4899C14.4162 11.9781 13.3287 11.0428 11.6754 11.0428L9.47792 11.0428C8.99159 11.0428 8.7078 11.3891 8.7078 11.9098L8.7078 17.6852C8.7078 18.1936 8.98554 18.5246 9.48593 18.5246ZM10.2926 14.6926L10.2926 12.2897L11.5156 12.2897C12.3295 12.2897 12.8404 12.7391 12.8404 13.5209C12.8404 14.2885 12.349 14.6926 11.4916 14.6926Z" fill="white" fill-opacity="0.85"/>
 </g>
</svg>
