<?xml version="1.0" encoding="UTF-8"?>
<!--Generator: Apple Native CoreSVG 341-->
<!DOCTYPE svg
PUBLIC "-//W3C//DTD SVG 1.1//EN"
       "http://www.w3.org/Graphics/SVG/1.1/DTD/svg11.dtd">
<svg version="1.1" xmlns="http://www.w3.org/2000/svg" xmlns:xlink="http://www.w3.org/1999/xlink" viewBox="0 0 23.1879 29.6724">
 <g>
  <rect height="29.6724" opacity="0" width="23.1879" x="0" y="0"/>
  <path d="M22.8265 14.8313C22.8265 19.7612 19.6917 23.9641 15.3085 25.5476C15.467 24.9307 15.3533 24.3068 15.0289 23.819C18.592 22.3946 21.1014 18.9136 21.1014 14.8313C21.1014 9.46745 16.7691 5.13171 11.4133 5.13171C6.04941 5.13171 1.72519 9.46745 1.72519 14.8313C1.72519 18.9098 4.22522 22.3882 7.78429 23.8153C7.45677 24.3028 7.34002 24.9266 7.49353 25.5394C3.11824 23.9485 0 19.7474 0 14.8313C0 8.52995 5.11015 3.40827 11.4133 3.40827C17.7049 3.40827 22.8265 8.52995 22.8265 14.8313Z" fill="white" fill-opacity="0.85"/>
  <path d="M9.58945 24.3059C8.8705 24.3059 8.65136 25.0151 9.04804 25.5503L10.8754 27.9688C11.1541 28.3372 11.6627 28.3434 11.9476 27.9688L13.7527 25.5583C14.1769 25.0036 13.924 24.3059 13.2176 24.3059Z" fill="white" fill-opacity="0.85"/>
  <path d="M11.4133 6.96706C7.07499 6.96706 3.55878 10.493 3.55878 14.8313C3.55878 19.1758 7.07499 22.684 11.4133 22.684C15.7498 22.684 19.266 19.1758 19.266 14.8313C19.266 10.493 15.7498 6.96706 11.4133 6.96706ZM11.4133 8.76607C14.7656 8.76607 17.4687 11.4692 17.4687 14.8313C17.4687 18.1837 14.7656 20.8868 11.4133 20.8868C8.05292 20.8868 5.3578 18.1837 5.3578 14.8313C5.3578 11.4692 8.05292 8.76607 11.4133 8.76607ZM9.48593 18.5135C9.9996 18.5135 10.2926 18.1782 10.2926 17.6741L10.2926 15.8762L11.457 15.8762L12.7018 18.0026C12.9139 18.3663 13.1393 18.5135 13.4932 18.5135C13.9279 18.5135 14.2377 18.2243 14.2377 17.8198C14.2377 17.6184 14.1588 17.4366 14.0531 17.2591L13.017 15.6163C13.8697 15.263 14.4162 14.4212 14.4162 13.4788C14.4162 11.9671 13.3287 11.0317 11.6754 11.0317L9.47792 11.0317C8.99159 11.0317 8.7078 11.378 8.7078 11.8987L8.7078 17.6741C8.7078 18.1825 8.98554 18.5135 9.48593 18.5135ZM10.2926 14.6815L10.2926 12.2786L11.5156 12.2786C12.3295 12.2786 12.8404 12.728 12.8404 13.5098C12.8404 14.2774 12.349 14.6815 11.4916 14.6815Z" fill="white" fill-opacity="0.85"/>
 </g>
</svg>
