<?xml version="1.0" encoding="UTF-8"?>
<!--Generator: Apple Native CoreSVG 341-->
<!DOCTYPE svg
PUBLIC "-//W3C//DTD SVG 1.1//EN"
       "http://www.w3.org/Graphics/SVG/1.1/DTD/svg11.dtd">
<svg version="1.1" xmlns="http://www.w3.org/2000/svg" xmlns:xlink="http://www.w3.org/1999/xlink" viewBox="0 0 23.7338 19.6949">
 <g>
  <rect height="19.6949" opacity="0" width="23.7338" x="0" y="0"/>
  <path d="M11.6902 16.5138C13.1508 16.5138 14.5001 16.3711 15.7164 16.0999L15.7164 16.5203C15.7164 18.5148 14.1959 19.6949 11.6902 19.6949C9.1748 19.6949 7.65605 18.5148 7.65605 16.5203L7.65605 16.099C8.87434 16.3708 10.2264 16.5138 11.6902 16.5138Z" fill="white" fill-opacity="0.85"/>
  <path d="M21.9529 8.62499C21.9529 12.2045 18.101 15.0943 11.6902 15.0943C5.27148 15.0943 1.42754 12.2045 1.42754 8.62499C1.42754 5.05175 5.27148 2.16543 11.6724 2.16543C18.101 2.16543 21.9529 5.05175 21.9529 8.62499ZM10.108 5.37265C9.6121 5.37265 9.32323 5.68906 9.32323 6.233L9.32323 10.9625C9.32323 11.4605 9.59804 11.7664 10.0482 11.7664C10.5012 11.7664 10.7875 11.4588 10.7875 10.9625L10.7875 9.53866L11.725 9.53866L12.8057 11.2933C13.0244 11.6574 13.2168 11.7842 13.5234 11.7842C13.908 11.7842 14.2138 11.5174 14.2138 11.1353C14.2138 10.9465 14.158 10.7984 14.0525 10.6389L13.1566 9.27909C13.9224 8.98788 14.3875 8.28944 14.3875 7.45976C14.3875 6.16972 13.4664 5.37265 11.9984 5.37265ZM12.8908 7.48456C12.8908 8.07089 12.5035 8.4164 11.8203 8.4164L10.7875 8.4164L10.7875 6.5287L11.8363 6.5287C12.499 6.5287 12.8908 6.89823 12.8908 7.48456Z" fill="white" fill-opacity="0.85"/>
 </g>
</svg>
