<?xml version="1.0" encoding="UTF-8"?>
<!--Generator: Apple Native CoreSVG 341-->
<!DOCTYPE svg
PUBLIC "-//W3C//DTD SVG 1.1//EN"
       "http://www.w3.org/Graphics/SVG/1.1/DTD/svg11.dtd">
<svg version="1.1" xmlns="http://www.w3.org/2000/svg" xmlns:xlink="http://www.w3.org/1999/xlink" viewBox="0 0 29.3282 22.8523">
 <g>
  <rect height="22.8523" opacity="0" width="29.3282" x="0" y="0"/>
  <path d="M25.2073 7.52041C24.5919 7.36176 23.9674 7.47592 23.478 7.79905C22.0509 4.23352 18.5657 1.72519 14.4843 1.72519C9.12843 1.72519 4.79269 6.05742 4.79269 11.4213C4.79269 16.7851 9.12043 21.1014 14.4843 21.1014C18.5615 21.1014 22.0436 18.6075 23.4739 15.0525C23.963 15.3772 24.5879 15.4906 25.2017 15.3348C23.6116 19.7092 19.4081 22.8265 14.4843 22.8265C8.18918 22.8265 3.06926 17.7209 3.06926 11.4213C3.06926 5.11992 8.18918 0 14.4843 0C19.4138 0 23.6214 3.13334 25.2073 7.52041Z" fill="white" fill-opacity="0.85"/>
  <path d="M25.2112 9.07382C24.6583 8.65937 23.9669 8.91054 23.9669 9.60546L23.9669 13.2416C23.9669 13.9578 24.6646 14.1849 25.2032 13.7767L27.6218 11.9574C27.9884 11.6787 28.0062 11.1621 27.6218 10.8834Z" fill="white" fill-opacity="0.85"/>
  <path d="M14.4843 19.274C18.8288 19.274 22.337 15.7578 22.337 11.4213C22.337 7.07499 18.8288 3.55878 14.4843 3.55878C10.154 3.55878 6.62004 7.07499 6.62004 11.4213C6.62004 15.7578 10.154 19.274 14.4843 19.274ZM14.4843 17.4768C11.1302 17.4768 8.41729 14.7736 8.41729 11.4213C8.41729 8.06093 11.1302 5.3578 14.4843 5.3578C17.8446 5.3578 20.5398 8.06093 20.5398 11.4213C20.5398 14.7736 17.8446 17.4768 14.4843 17.4768ZM12.565 15.1035C13.0786 15.1035 13.3716 14.7682 13.3716 14.2641L13.3716 12.4662L14.5361 12.4662L15.7808 14.5926C15.9946 14.9562 16.22 15.1035 16.5739 15.1035C17.0069 15.1035 17.3167 14.8143 17.3167 14.4098C17.3167 14.2084 17.2396 14.0266 17.1321 13.849L16.096 12.2062C16.9487 11.8529 17.4952 11.0111 17.4952 10.0687C17.4952 8.55702 16.4077 7.62167 14.7562 7.62167L12.5569 7.62167C12.0724 7.62167 11.7868 7.96796 11.7868 8.48866L11.7868 14.2641C11.7868 14.7725 12.0663 15.1035 12.565 15.1035ZM13.3716 11.2715L13.3716 8.86854L14.5946 8.86854C15.4085 8.86854 15.9212 9.31796 15.9212 10.0998C15.9212 10.8674 15.4298 11.2715 14.5706 11.2715Z" fill="white" fill-opacity="0.85"/>
 </g>
</svg>
