<?xml version="1.0" encoding="UTF-8"?>
<!--Generator: Apple Native CoreSVG 341-->
<!DOCTYPE svg
PUBLIC "-//W3C//DTD SVG 1.1//EN"
       "http://www.w3.org/Graphics/SVG/1.1/DTD/svg11.dtd">
<svg version="1.1" xmlns="http://www.w3.org/2000/svg" xmlns:xlink="http://www.w3.org/1999/xlink" viewBox="0 0 20.5381 20.1848">
 <g>
  <rect height="20.1848" opacity="0" width="20.5381" x="0" y="0"/>
  <path d="M10.0875 20.175C15.6576 20.175 20.1767 15.6559 20.1767 10.0875C20.1767 4.51914 15.6576 0 10.0875 0C4.51914 0 0 4.51914 0 10.0875C0 15.6559 4.51914 20.175 10.0875 20.175ZM10.0875 18.1879C5.60839 18.1879 1.9871 14.5666 1.9871 10.0875C1.9871 5.60839 5.60839 1.9871 10.0875 1.9871C14.5666 1.9871 18.1897 5.60839 18.1897 10.0875C18.1897 14.5666 14.5666 18.1879 10.0875 18.1879Z" fill="white" fill-opacity="0.85"/>
  <path d="M6.34394 14.1133C6.81503 14.1133 7.09726 13.8125 7.09726 13.3254L7.09726 11.0549L7.91953 11.0549L8.8543 13.4852C8.99179 13.8896 9.23047 14.1133 9.63867 14.1133C9.99609 14.1133 10.3547 13.8908 10.3494 13.3742C10.3477 13.251 10.2943 13.0697 10.2019 12.8539L9.33749 10.7443C10.0881 10.3324 10.399 9.4916 10.399 8.64257C10.399 7.04726 9.47031 6.2082 7.94687 6.2082L6.33593 6.2082C5.84706 6.2082 5.58085 6.50722 5.58085 6.99784L5.58085 13.3254C5.58085 13.8062 5.85507 14.1133 6.34394 14.1133ZM7.09726 9.96777L7.09726 7.39374L7.80488 7.39374C8.5041 7.39374 8.86582 7.95038 8.86582 8.67363C8.86582 9.39414 8.54765 9.96777 7.80312 9.96777ZM13.6934 14.0857C14.1086 14.0857 14.4484 13.7459 14.4484 13.3307L14.4484 6.91347C14.4484 6.38027 14.1166 6.07323 13.5771 6.07323C13.1494 6.07323 12.8156 6.29257 12.5682 6.48417L11.5537 7.26679C11.3603 7.41757 11.2254 7.61015 11.2254 7.87109C11.2254 8.20546 11.4516 8.41503 11.7445 8.41503C11.9043 8.41503 12.0072 8.3662 12.1154 8.28905L12.9383 7.62968L12.9383 13.3307C12.9383 13.7459 13.2781 14.0857 13.6934 14.0857Z" fill="white" fill-opacity="0.85"/>
 </g>
</svg>
