<?xml version="1.0" encoding="UTF-8"?>
<!--Generator: Apple Native CoreSVG 341-->
<!DOCTYPE svg
PUBLIC "-//W3C//DTD SVG 1.1//EN"
       "http://www.w3.org/Graphics/SVG/1.1/DTD/svg11.dtd">
<svg version="1.1" xmlns="http://www.w3.org/2000/svg" xmlns:xlink="http://www.w3.org/1999/xlink" viewBox="0 0 23.1209 17.3433">
 <g>
  <rect height="17.3433" opacity="0" width="23.1209" x="0" y="0"/>
  <path d="M8.22851 0C2.50996 0 0 2.58633 0 8.05722L0 14.2137C0 16.2654 1.08769 17.3371 3.14745 17.3371L19.6121 17.3371C21.6719 17.3371 22.7596 16.2574 22.7596 14.2137L22.7596 8.05722C22.7596 2.58633 20.2496 0 14.531 0ZM8.26191 1.91503L14.4896 1.91503C18.9295 1.91503 20.8463 3.82558 20.8463 7.97968L20.8463 14.0529C20.8463 14.9557 20.3541 15.4238 19.4852 15.4238L3.2744 15.4238C2.38768 15.4238 1.91327 14.9557 1.91327 14.0529L1.91327 7.97968C1.91327 3.82558 3.82831 1.91503 8.26191 1.91503Z" fill="white" fill-opacity="0.85"/>
  <path d="M7.12441 12.7006C7.59374 12.7006 7.87597 12.3918 7.87597 11.9047L7.87597 9.63417L8.69023 9.63417L9.63301 12.0645C9.77676 12.4689 10.0092 12.7006 10.4174 12.7006C10.7748 12.7006 11.1334 12.4701 11.1299 11.9615C11.1281 11.8303 11.0668 11.649 10.9824 11.4332L10.1162 9.32363C10.8605 8.91171 11.1795 8.0789 11.1795 7.22187C11.1795 5.62655 10.241 4.78749 8.71757 4.78749L7.11464 4.78749C6.62578 4.78749 6.35956 5.08651 6.35956 5.57714L6.35956 11.9047C6.35956 12.3855 6.62578 12.7006 7.12441 12.7006ZM7.87597 8.54706L7.87597 5.97304L8.58535 5.97304C9.28457 5.97304 9.64629 6.52968 9.64629 7.25292C9.64629 7.98144 9.32636 8.54706 8.58359 8.54706ZM12.8631 12.5639L16.1744 12.5639C16.5559 12.5639 16.7574 12.3084 16.7574 11.9613C16.7574 11.5982 16.5478 11.3588 16.1744 11.3588L13.9812 11.3588L13.9812 11.2807L15.3279 9.58827C16.257 8.44237 16.618 7.733 16.618 6.84023C16.618 5.4998 15.7072 4.57616 14.3666 4.57616C13.1307 4.57616 12.1781 5.57616 12.1781 6.60156C12.1781 6.97421 12.4035 7.24569 12.7957 7.24569C13.1285 7.24569 13.3432 7.09218 13.4559 6.75331C13.6176 6.15702 13.8406 5.75995 14.3586 5.75995C14.9174 5.75995 15.2027 6.26093 15.2027 6.89706C15.2027 7.65722 14.6832 8.42011 14.1568 9.09296L12.5543 11.1424C12.3353 11.4109 12.1719 11.6568 12.1719 11.9596C12.1719 12.3162 12.4025 12.5639 12.8631 12.5639Z" fill="white" fill-opacity="0.85"/>
 </g>
</svg>
