<?xml version="1.0" encoding="UTF-8"?>
<!--Generator: Apple Native CoreSVG 341-->
<!DOCTYPE svg
PUBLIC "-//W3C//DTD SVG 1.1//EN"
       "http://www.w3.org/Graphics/SVG/1.1/DTD/svg11.dtd">
<svg version="1.1" xmlns="http://www.w3.org/2000/svg" xmlns:xlink="http://www.w3.org/1999/xlink" viewBox="0 0 18.0771 21.2957">
 <g>
  <rect height="21.2957" opacity="0" width="18.0771" x="0" y="0"/>
  <path d="M11.7268 21.2859C15.3551 21.2859 17.7158 18.9314 17.7158 15.3014L17.7158 10.5221C17.7158 9.14023 17.2801 8.01855 16.4113 7.22168L10.2474 1.54961C9.00136 0.410937 7.67812 0 6.11777 0L3.08964 0C1.21758 0 0 1.23535 0 3.11542L0 18.1945C0 20.1324 1.16953 21.2859 3.11542 21.2859ZM11.6975 19.3709L3.24237 19.3709C2.29784 19.3709 1.91327 19.0281 1.91327 18.0756L1.91327 3.22636C1.91327 2.43749 2.42147 1.91327 3.21659 1.91327L6.08046 1.91327C7.26503 1.91327 8.09218 2.18866 8.9332 2.95331L15.0855 8.60761C15.5945 9.06776 15.8043 9.59667 15.8043 10.5416L15.8043 15.2756C15.8043 17.9379 14.3535 19.3709 11.6975 19.3709Z" fill="white" fill-opacity="0.85"/>
  <path d="M4.66835 16.4609C5.10565 16.4609 5.36386 16.1682 5.36386 15.7148L5.36386 13.6062L6.12831 13.6062L6.99902 15.8648C7.13476 16.2453 7.35117 16.4609 7.73359 16.4609C8.07499 16.4609 8.3998 16.2385 8.39628 15.7637C8.39452 15.6484 8.34921 15.4752 8.26483 15.2754L7.45643 13.3117C8.15897 12.9256 8.4539 12.1426 8.4539 11.3514C8.4539 9.8619 7.57323 9.08065 6.15741 9.08065L4.65233 9.08065C4.1955 9.08065 3.94706 9.3539 3.94706 9.81874L3.94706 15.7148C3.94706 16.1619 4.1955 16.4609 4.66835 16.4609ZM5.36386 12.5867L5.36386 10.1826L6.02343 10.1826C6.6746 10.1826 7.0123 10.7072 7.0123 11.3824C7.0123 12.0531 6.7164 12.5867 6.02167 12.5867ZM10.0271 16.3322L13.117 16.3322C13.4646 16.3322 13.6582 16.0928 13.6582 15.7715C13.6582 15.4244 13.4566 15.209 13.117 15.209L11.0697 15.209L11.0697 15.1309L12.3185 13.5621C13.1916 12.49 13.5267 11.8269 13.5267 10.984C13.5267 9.74316 12.6818 8.87558 11.423 8.87558C10.2689 8.87558 9.38222 9.81152 9.38222 10.7631C9.38222 11.1197 9.58984 11.3734 9.958 11.3734C10.273 11.3734 10.4717 11.2279 10.5764 10.9068C10.7301 10.3506 10.9371 9.98729 11.423 9.98729C11.9338 9.98729 12.2031 10.4545 12.2031 11.0426C12.2031 11.7529 11.7156 12.4678 11.2213 13.0908L9.73437 15.0023C9.53144 15.2531 9.37597 15.483 9.37597 15.7697C9.37597 16.1006 9.59062 16.3322 10.0271 16.3322Z" fill="white" fill-opacity="0.85"/>
 </g>
</svg>
