<?xml version="1.0" encoding="UTF-8"?>
<!--Generator: Apple Native CoreSVG 341-->
<!DOCTYPE svg
PUBLIC "-//W3C//DTD SVG 1.1//EN"
       "http://www.w3.org/Graphics/SVG/1.1/DTD/svg11.dtd">
<svg version="1.1" xmlns="http://www.w3.org/2000/svg" xmlns:xlink="http://www.w3.org/1999/xlink" viewBox="0 0 18.0771 21.2957">
 <g>
  <rect height="21.2957" opacity="0" width="18.0771" x="0" y="0"/>
  <path d="M10.2474 1.54961L16.4113 7.22168C17.2801 8.01855 17.7158 9.14023 17.7158 10.5221L17.7158 15.3014C17.7158 18.9314 15.3551 21.2859 11.7268 21.2859L3.11542 21.2859C1.16953 21.2859 0 20.1324 0 18.1945L0 3.11542C0 1.23535 1.21758 0 3.08964 0L6.11777 0C7.67812 0 9.00136 0.410937 10.2474 1.54961ZM4.17265 8.67382C3.66698 8.67382 3.38925 8.98436 3.38925 9.49003L3.38925 16.0533C3.38925 16.551 3.67499 16.881 4.18866 16.881C4.67655 16.881 4.9703 16.5572 4.9703 16.0533L4.9703 13.7039L5.81386 13.7039L6.78144 16.2228C6.93496 16.6459 7.18066 16.881 7.60214 16.881C7.97636 16.881 8.35448 16.6435 8.35097 16.1119C8.34921 15.9771 8.28788 15.7941 8.19374 15.5685L7.29823 13.3801C8.07987 12.9549 8.40233 12.0777 8.40233 11.2039C8.40233 9.53769 7.43554 8.67382 5.85097 8.67382ZM9.4373 10.5428C9.4373 10.9465 9.67421 11.2277 10.0814 11.2277C10.4258 11.2277 10.6519 11.0644 10.7744 10.7043C10.9396 10.0867 11.1725 9.67811 11.71 9.67811C12.282 9.67811 12.5869 10.1906 12.5869 10.8578C12.5869 11.6508 12.0363 12.4465 11.4852 13.1459L9.82851 15.2547C9.6123 15.5463 9.43105 15.7957 9.43105 16.1197C9.43105 16.4816 9.67323 16.7408 10.1506 16.7408L13.6002 16.7408C13.9949 16.7408 14.2 16.4801 14.2 16.1215C14.2 15.7291 13.9869 15.4906 13.6002 15.4906L11.3183 15.4906L11.3183 15.4045L12.7191 13.6562C13.6828 12.4678 14.0588 11.7221 14.0588 10.7894C14.0588 9.40741 13.11 8.44745 11.71 8.44745C10.4262 8.44745 9.4373 9.48554 9.4373 10.5428ZM6.79296 11.2367C6.79296 11.9785 6.46327 12.5752 5.69745 12.5752L4.9703 12.5752L4.9703 9.90897L5.69921 9.90897C6.42148 9.90897 6.79296 10.4824 6.79296 11.2367Z" fill="white" fill-opacity="0.85"/>
 </g>
</svg>
