<?xml version="1.0" encoding="UTF-8"?>
<!--Generator: Apple Native CoreSVG 341-->
<!DOCTYPE svg
PUBLIC "-//W3C//DTD SVG 1.1//EN"
       "http://www.w3.org/Graphics/SVG/1.1/DTD/svg11.dtd">
<svg version="1.1" xmlns="http://www.w3.org/2000/svg" xmlns:xlink="http://www.w3.org/1999/xlink" viewBox="0 0 20.5381 20.1848">
 <g>
  <rect height="20.1848" opacity="0" width="20.5381" x="0" y="0"/>
  <path d="M20.1767 10.0875C20.1767 15.6478 15.6576 20.175 10.0875 20.175C4.52715 20.175 0 15.6478 0 10.0875C0 4.51914 4.52715 0 10.0875 0C15.6576 0 20.1767 4.51914 20.1767 10.0875ZM5.86484 6.2662C5.38847 6.2662 5.12226 6.55898 5.12226 7.04159L5.12226 13.2736C5.12226 13.7562 5.38847 14.0668 5.87285 14.0668C6.3457 14.0668 6.62167 13.7625 6.62167 13.2736L6.62167 11.0441L7.42168 11.0441L8.34219 13.4414C8.4957 13.8414 8.72187 14.0668 9.12207 14.0668C9.48476 14.0668 9.83535 13.8408 9.83183 13.3305C9.82832 13.2072 9.76874 13.0322 9.68261 12.8164L8.83241 10.7398C9.57675 10.3342 9.88945 9.50585 9.88945 8.66933C9.88945 7.08476 8.96347 6.2662 7.45703 6.2662ZM10.8676 8.04726C10.8676 8.42343 11.0947 8.69316 11.4807 8.69316C11.8055 8.69316 12.0201 8.53964 12.1346 8.20078C12.2963 7.61073 12.5131 7.22792 13.0248 7.22792C13.5676 7.22792 13.8547 7.71288 13.8547 8.34453C13.8547 9.09042 13.3334 9.84882 12.8115 10.5092L11.2375 12.5238C11.0248 12.7941 10.8613 13.0338 10.8613 13.3383C10.8613 13.6869 11.0857 13.9363 11.5498 13.9363L14.8174 13.9363C15.1908 13.9363 15.3941 13.6773 15.3941 13.34C15.3941 12.9734 15.1828 12.7402 14.8174 12.7402L12.6555 12.7402L12.6555 12.6639L13.9816 10.9965C14.8982 9.87284 15.2547 9.1662 15.2547 8.27617C15.2547 6.96425 14.3547 6.05136 13.0248 6.05136C11.8076 6.05136 10.8676 7.04062 10.8676 8.04726ZM8.35547 8.70214C8.35547 9.40839 8.04355 9.96777 7.31328 9.96777L6.62167 9.96777L6.62167 7.44101L7.31503 7.44101C8 7.44101 8.35547 7.98515 8.35547 8.70214Z" fill="white" fill-opacity="0.85"/>
 </g>
</svg>
