<?xml version="1.0" encoding="UTF-8"?>
<!--Generator: Apple Native CoreSVG 341-->
<!DOCTYPE svg
PUBLIC "-//W3C//DTD SVG 1.1//EN"
       "http://www.w3.org/Graphics/SVG/1.1/DTD/svg11.dtd">
<svg version="1.1" xmlns="http://www.w3.org/2000/svg" xmlns:xlink="http://www.w3.org/1999/xlink" viewBox="0 0 23.5768 17.8687">
 <g>
  <rect height="17.8687" opacity="0" width="23.5768" x="0" y="0"/>
  <path d="M7.73047 17.8545L15.485 17.8545C21.2053 17.8545 23.2154 15.776 23.2154 10.3949L23.2154 7.46757C23.2154 2.08652 21.2053 0 15.485 0L7.73047 0C2.01191 0 0 2.08652 0 7.46757L0 10.3949C0 15.776 2.01191 17.8545 7.73047 17.8545ZM7.73047 15.9412C3.33026 15.9412 1.91327 14.5367 1.91327 10.3949L1.91327 7.46757C1.91327 3.32753 3.33026 1.91327 7.73047 1.91327L15.485 1.91327C19.8852 1.91327 21.3022 3.32753 21.3022 7.46757L21.3022 10.3949C21.3022 14.5367 19.8852 15.9412 15.485 15.9412Z" fill="white" fill-opacity="0.85"/>
  <path d="M7.0205 12.9553C7.49159 12.9553 7.76581 12.6545 7.76581 12.1674L7.76581 9.89687L8.58808 9.89687L9.53086 12.3271C9.67461 12.7316 9.90703 12.9553 10.3152 12.9553C10.6727 12.9553 11.0232 12.7328 11.0197 12.2162C11.0162 12.093 10.9646 11.9117 10.8723 11.6959L10.0141 9.58632C10.7566 9.17441 11.0773 8.33359 11.0773 7.48456C11.0773 5.88925 10.1389 5.05019 8.61542 5.05019L7.01249 5.05019C6.52363 5.05019 6.24941 5.34921 6.24941 5.83983L6.24941 12.1674C6.24941 12.6482 6.52363 12.9553 7.0205 12.9553ZM7.76581 8.80976L7.76581 6.23573L8.4832 6.23573C9.18066 6.23573 9.54414 6.79237 9.54414 7.51562C9.54414 8.23613 9.22422 8.80976 8.47968 8.80976ZM15.6424 12.9473C16.0266 12.9473 16.3469 12.7156 16.3469 12.2152L16.3469 11.3336L16.6395 11.3336C17.0502 11.3336 17.2225 11.0701 17.2225 10.7293C17.2225 10.3904 17.0459 10.1428 16.6412 10.1428L16.3469 10.1428L16.3469 6.0244C16.3469 5.31718 15.8846 4.91874 15.1996 4.91874C14.4246 4.91874 14.0988 5.36874 13.8166 6.03221L12.2443 9.52597C12.0818 9.90859 12.0277 10.1889 12.0277 10.5021C12.0277 11.0078 12.357 11.3336 12.876 11.3336L14.9219 11.3336L14.9219 12.2152C14.9219 12.7521 15.2982 12.9473 15.6424 12.9473ZM14.9564 10.1773L13.2834 10.1773L13.2834 10.1072L14.9254 6.18436L14.9564 6.18436Z" fill="white" fill-opacity="0.85"/>
 </g>
</svg>
