<?xml version="1.0" encoding="UTF-8"?>
<!--Generator: Apple Native CoreSVG 341-->
<!DOCTYPE svg
PUBLIC "-//W3C//DTD SVG 1.1//EN"
       "http://www.w3.org/Graphics/SVG/1.1/DTD/svg11.dtd">
<svg version="1.1" xmlns="http://www.w3.org/2000/svg" xmlns:xlink="http://www.w3.org/1999/xlink" viewBox="0 0 23.4906 26.8605">
 <g>
  <rect height="26.8605" opacity="0" width="23.4906" x="0" y="0"/>
  <path d="M18.0416 11.2617C17.1689 11.2715 16.449 10.5568 16.449 9.68867C16.449 8.82226 17.1689 8.08633 18.0416 8.09609C18.9178 8.10761 19.6244 8.82402 19.6244 9.68867C19.6244 10.5551 18.9195 11.2439 18.0416 11.2617ZM18.0416 15.7865C17.1689 15.7865 16.449 15.0666 16.449 14.1922C16.449 13.3213 17.1689 12.6094 18.0416 12.6094C18.9178 12.6094 19.6244 13.3178 19.6244 14.1922C19.6244 15.0701 18.916 15.7865 18.0416 15.7865ZM9.20664 9.32168C8.78594 9.32168 8.44512 8.97285 8.44512 8.54238C8.44512 8.12343 8.78594 7.78261 9.20664 7.78261C9.61758 7.78261 9.95039 8.12343 9.95039 8.54238C9.95039 8.97285 9.61933 9.32168 9.20664 9.32168ZM11.6326 10.0143C11.2252 10.0143 10.9004 9.66367 10.9004 9.25273C10.9004 8.82226 11.2234 8.48144 11.6326 8.48144C12.0729 8.48144 12.3977 8.82226 12.3977 9.25273C12.3977 9.66367 12.0711 10.0143 11.6326 10.0143ZM13.4752 11.7777C13.0643 11.7777 12.7332 11.4467 12.7332 11.034C12.7332 10.5937 13.0643 10.2449 13.4752 10.2449C13.8896 10.2449 14.2385 10.5937 14.2385 11.034C14.2385 11.4467 13.8896 11.7777 13.4752 11.7777ZM14.0994 14.1371C13.6787 14.1371 13.3459 13.798 13.3459 13.3854C13.3459 12.9646 13.6787 12.6336 14.0994 12.6336C14.5104 12.6336 14.8432 12.9646 14.8432 13.3854C14.8432 13.798 14.5104 14.1371 14.0994 14.1371ZM13.4752 16.5178C13.0643 16.5178 12.7332 16.1672 12.7332 15.7367C12.7332 15.316 13.0643 14.985 13.4752 14.985C13.8896 14.985 14.2385 15.316 14.2385 15.7367C14.2385 16.1654 13.8879 16.5178 13.4752 16.5178ZM11.6326 18.3293C11.2234 18.3293 10.9004 17.9805 10.9004 17.558C10.9004 17.1471 11.2252 16.7947 11.6326 16.7947C12.0711 16.7947 12.3977 17.1471 12.3977 17.558C12.3977 17.9805 12.0729 18.3293 11.6326 18.3293ZM9.20664 19.0682C8.78594 19.0682 8.44512 18.7273 8.44512 18.3084C8.44512 17.8779 8.78594 17.5273 9.20664 17.5273C9.61933 17.5273 9.95039 17.8779 9.95039 18.3084C9.95039 18.7273 9.61758 19.0682 9.20664 19.0682ZM6.76113 18.3293C6.33066 18.3293 6.00761 17.9805 6.00761 17.558C6.00761 17.1471 6.33242 16.7947 6.76113 16.7947C7.17207 16.7947 7.49335 17.1471 7.49335 17.558C7.49335 17.9805 7.17382 18.3293 6.76113 18.3293ZM4.92831 16.5178C4.50937 16.5178 4.15703 16.1654 4.15703 15.7367C4.15703 15.316 4.50937 14.985 4.92831 14.985C5.33749 14.985 5.66054 15.316 5.66054 15.7367C5.66054 16.1672 5.33749 16.5178 4.92831 16.5178ZM4.30409 14.1371C3.89316 14.1371 3.5541 13.798 3.5541 13.3854C3.5541 12.9646 3.89316 12.6336 4.30409 12.6336C4.71679 12.6336 5.05761 12.9646 5.05761 13.3854C5.05761 13.798 4.71679 14.1371 4.30409 14.1371ZM4.92831 11.7777C4.50937 11.7777 4.15703 11.4467 4.15703 11.034C4.15703 10.5937 4.50937 10.2449 4.92831 10.2449C5.33749 10.2449 5.66054 10.5937 5.66054 11.034C5.66054 11.4467 5.33749 11.7777 4.92831 11.7777ZM6.76113 10.0143C6.33242 10.0143 6.00761 9.66367 6.00761 9.25273C6.00761 8.82226 6.33066 8.48144 6.76113 8.48144C7.17382 8.48144 7.49335 8.82226 7.49335 9.25273C7.49335 9.66367 7.17207 10.0143 6.76113 10.0143ZM9.20664 11.8258C8.78594 11.8258 8.44512 11.4867 8.44512 11.074C8.44512 10.6418 8.78594 10.293 9.20664 10.293C9.61933 10.293 9.95039 10.6418 9.95039 11.074C9.95039 11.4867 9.61933 11.8258 9.20664 11.8258ZM11.4738 12.8141C11.0629 12.8141 10.7123 12.46 10.7123 12.0588C10.7123 11.6416 11.0629 11.2955 11.4738 11.2955C11.8928 11.2955 12.2176 11.6381 12.2176 12.0588C12.2176 12.4635 11.8928 12.8141 11.4738 12.8141ZM11.4738 15.557C11.0611 15.557 10.7123 15.2225 10.7123 14.8018C10.7123 14.3748 11.0611 14.0305 11.4738 14.0305C11.8945 14.0305 12.2176 14.3748 12.2176 14.8018C12.2176 15.2225 11.8945 15.557 11.4738 15.557ZM9.20664 16.5578C8.78594 16.5578 8.44512 16.1975 8.44512 15.7768C8.44512 15.3641 8.78594 15.025 9.20664 15.025C9.61933 15.025 9.95039 15.3641 9.95039 15.7768C9.95039 16.1975 9.61758 16.5578 9.20664 16.5578ZM6.92167 15.557C6.50898 15.557 6.17617 15.2225 6.17617 14.8018C6.17617 14.3748 6.50898 14.0305 6.92167 14.0305C7.34062 14.0305 7.69296 14.3748 7.69296 14.8018C7.69296 15.2225 7.34062 15.557 6.92167 15.557ZM6.92167 12.8141C6.51074 12.8141 6.17617 12.4635 6.17617 12.0588C6.17617 11.6381 6.51074 11.2955 6.92167 11.2955C7.33886 11.2955 7.69296 11.6416 7.69296 12.0588C7.69296 12.46 7.33886 12.8141 6.92167 12.8141ZM9.20664 14.1771C8.78594 14.1771 8.44512 13.8381 8.44512 13.4254C8.44512 13.0127 8.78594 12.6736 9.20664 12.6736C9.61933 12.6736 9.95039 13.0127 9.95039 13.4254C9.95039 13.8381 9.61933 14.1771 9.20664 14.1771ZM18.7033 6.15664L19.2469 4.44707L5.68945 0.0439502C5.21953-0.110346 4.70703 0.155668 4.56426 0.622072C4.40821 1.08672 4.67246 1.59922 5.13887 1.75527ZM3.20351 22.5461L19.9258 22.5461C22.0416 22.5461 23.1293 21.4664 23.1293 19.3826L23.1293 7.48945C23.1293 5.40391 22.0416 4.31797 19.9258 4.31797L3.20351 4.31797C1.0957 4.31797 0 5.40391 0 7.48945L0 19.3826C0 21.4664 1.0957 22.5461 3.20351 22.5461Z" fill="white" fill-opacity="0.85"/>
 </g>
</svg>
