<?xml version="1.0" encoding="UTF-8"?>
<!--Generator: Apple Native CoreSVG 341-->
<!DOCTYPE svg
PUBLIC "-//W3C//DTD SVG 1.1//EN"
       "http://www.w3.org/Graphics/SVG/1.1/DTD/svg11.dtd">
<svg version="1.1" xmlns="http://www.w3.org/2000/svg" xmlns:xlink="http://www.w3.org/1999/xlink" viewBox="0 0 29.1998 15.1355">
 <g>
  <rect height="15.1355" opacity="0" width="29.1998" x="0" y="0"/>
  <path d="M14.4152 0C6.4375 0 0 6.44551 0 14.425C0 14.8162 0.311327 15.1258 0.696287 15.1258C1.08925 15.1258 1.39882 14.8162 1.39882 14.425C1.39882 7.23593 7.21816 1.39882 14.4152 1.39882C21.6123 1.39882 27.4414 7.23593 27.4414 14.425C27.4414 14.8162 27.7492 15.1258 28.1422 15.1258C28.5271 15.1258 28.8385 14.8162 28.8385 14.425C28.8385 6.44551 22.393 0 14.4152 0Z" fill="white" fill-opacity="0.85"/>
  <path d="M14.4152 2.15273C7.62617 2.15273 2.15098 7.63593 2.15098 14.425C2.15098 14.8162 2.4543 15.1258 2.83925 15.1258C3.23222 15.1258 3.55156 14.8162 3.55156 14.425C3.55156 8.42285 8.40683 3.55156 14.4152 3.55156C20.4254 3.55156 25.2949 8.42285 25.2949 14.425C25.2949 14.8162 25.5982 15.1258 25.993 15.1258C26.3762 15.1258 26.6955 14.8162 26.6955 14.425C26.6955 7.63593 21.2123 2.15273 14.4152 2.15273Z" fill="white" fill-opacity="0.85"/>
  <path d="M14.4152 4.29394C8.8166 4.29394 4.30547 8.82285 4.30547 14.425C4.30547 14.8162 4.60703 15.1258 4.99199 15.1258C5.38496 15.1258 5.70429 14.8162 5.70429 14.425C5.70429 9.61152 9.59374 5.69453 14.4152 5.69453C19.2447 5.69453 23.1439 9.61152 23.1439 14.425C23.1439 14.8162 23.4455 15.1258 23.8385 15.1258C24.2234 15.1258 24.5428 14.8162 24.5428 14.425C24.5428 8.82285 20.0139 4.29394 14.4152 4.29394Z" fill="white" fill-opacity="0.85"/>
  <path d="M14.4152 6.44844C9.99726 6.44844 6.44668 10.0035 6.44668 14.425C6.44668 14.8162 6.75801 15.1258 7.14296 15.1258C7.53593 15.1258 7.8455 14.8162 7.8455 14.425C7.8455 10.7922 10.7842 7.84726 14.4152 7.84726C18.0463 7.84726 20.993 10.7922 20.993 14.425C20.993 14.8162 21.2945 15.1258 21.6955 15.1258C22.0805 15.1258 22.3918 14.8162 22.3918 14.425C22.3918 10.0035 18.835 6.44844 14.4152 6.44844Z" fill="white" fill-opacity="0.85"/>
  <path d="M14.4152 8.59941C11.1922 8.59941 8.59941 11.2019 8.59941 14.425C8.59941 14.8162 8.90273 15.1258 9.2957 15.1258C9.68691 15.1258 9.99824 14.8162 9.99824 14.425C9.99824 11.9826 11.9648 9.99824 14.4152 9.99824C16.8656 9.99824 18.842 11.9826 18.842 14.425C18.842 14.8162 19.1533 15.1258 19.5445 15.1258C19.9295 15.1258 20.2408 14.8162 20.2408 14.425C20.2408 11.2019 17.6463 8.59941 14.4152 8.59941Z" fill="white" fill-opacity="0.85"/>
 </g>
</svg>
