<?xml version="1.0" encoding="UTF-8"?>
<!--Generator: Apple Native CoreSVG 341-->
<!DOCTYPE svg
PUBLIC "-//W3C//DTD SVG 1.1//EN"
       "http://www.w3.org/Graphics/SVG/1.1/DTD/svg11.dtd">
<svg version="1.1" xmlns="http://www.w3.org/2000/svg" xmlns:xlink="http://www.w3.org/1999/xlink" viewBox="0 0 22.1303 21.7867">
 <g>
  <rect height="21.7867" opacity="0" width="22.1303" x="0" y="0"/>
  <path d="M6.69667 6.69667C7.06991 6.32519 7.06991 5.68945 6.69667 5.3082L4.5703 3.19609C4.19706 2.81484 3.57109 2.81484 3.18808 3.19609C2.81484 3.57109 2.81484 4.19706 3.18808 4.57831L5.3082 6.69667C5.68144 7.07792 6.32519 7.07792 6.69667 6.69667Z" fill="white" fill-opacity="0.85"/>
  <path d="M4.95761 10.8885C4.95761 10.3574 4.51073 9.91054 3.97968 9.91054L0.976167 9.91054C0.446873 9.91054 0 10.3574 0 10.8885C0 11.4195 0.446873 11.8646 0.976167 11.8646L3.97968 11.8646C4.51073 11.8646 4.95761 11.4195 4.95761 10.8885Z" fill="white" fill-opacity="0.85"/>
  <path d="M6.69667 15.0705C6.32519 14.699 5.68144 14.699 5.3082 15.0705L3.18808 17.1986C2.81484 17.5719 2.81484 18.2058 3.18808 18.5808C3.57109 18.9541 4.19706 18.9541 4.5703 18.5808L6.69667 16.459C7.06991 16.0875 7.06991 15.4517 6.69667 15.0705Z" fill="white" fill-opacity="0.85"/>
  <path d="M10.8805 16.8113C10.3494 16.8113 9.90253 17.2582 9.90253 17.7892L9.90253 20.791C9.90253 21.322 10.3494 21.7689 10.8805 21.7689C11.4195 21.7689 11.8646 21.322 11.8646 20.791L11.8646 17.7892C11.8646 17.2582 11.4195 16.8113 10.8805 16.8113Z" fill="white" fill-opacity="0.85"/>
  <path d="M15.0705 15.0705C14.699 15.4517 14.699 16.0875 15.0705 16.459L17.1986 18.5808C17.5719 18.9541 18.1978 18.9541 18.5808 18.5808C18.9541 18.2058 18.9541 17.5719 18.5808 17.1986L16.459 15.0705C16.0875 14.699 15.4437 14.699 15.0705 15.0705Z" fill="white" fill-opacity="0.85"/>
  <path d="M16.8113 10.8885C16.8113 11.4195 17.2582 11.8646 17.7892 11.8646L20.783 11.8646C21.322 11.8646 21.7689 11.4195 21.7689 10.8885C21.7689 10.3574 21.322 9.91054 20.783 9.91054L17.7892 9.91054C17.2582 9.91054 16.8113 10.3574 16.8113 10.8885Z" fill="white" fill-opacity="0.85"/>
  <path d="M15.0705 6.69667C15.4437 7.07792 16.0875 7.07792 16.459 6.69667L18.5808 4.57831C18.9541 4.19706 18.9541 3.57109 18.5808 3.19609C18.1978 2.81484 17.5719 2.81484 17.1986 3.19609L15.0705 5.3082C14.699 5.68945 14.699 6.32519 15.0705 6.69667Z" fill="white" fill-opacity="0.85"/>
  <path d="M10.8805 4.96562C11.4195 4.96562 11.8646 4.51874 11.8646 3.97968L11.8646 0.984175C11.8646 0.446873 11.4195 0 10.8805 0C10.3494 0 9.90253 0.446873 9.90253 0.984175L9.90253 3.97968C9.90253 4.51874 10.3494 4.96562 10.8805 4.96562Z" fill="white" fill-opacity="0.85"/>
 </g>
</svg>
