<?xml version="1.0" encoding="UTF-8"?>
<!--Generator: Apple Native CoreSVG 341-->
<!DOCTYPE svg
PUBLIC "-//W3C//DTD SVG 1.1//EN"
       "http://www.w3.org/Graphics/SVG/1.1/DTD/svg11.dtd">
<svg version="1.1" xmlns="http://www.w3.org/2000/svg" xmlns:xlink="http://www.w3.org/1999/xlink" viewBox="0 0 17.107 21.9972">
 <g>
  <rect height="21.9972" opacity="0" width="17.107" x="0" y="0"/>
  <path d="M0 20.5779C0 21.8002 1.3162 22.4207 2.45897 21.673L3.53339 20.9789L4.76991 21.7962C5.02538 21.9613 5.25683 21.9746 5.52909 21.7962L6.7496 20.9691L7.98613 21.7962C8.2416 21.9693 8.47304 21.9746 8.7453 21.7962L9.98007 20.9691L11.2023 21.7962C11.4836 21.9791 11.6812 21.9826 11.9615 21.7962L13.2061 20.9771L14.2867 21.673C15.4295 22.4207 16.7457 21.8002 16.7457 20.5779L16.7457 3.59801C16.7457 1.51422 15.658 0.426532 13.5422 0.426532L3.20351 0.426532C1.08769 0.426532 0 1.51422 0 3.59801ZM4.24198 6.15406C3.86483 6.15406 3.59062 5.87008 3.59062 5.50621C3.59062 5.14059 3.86483 4.85836 4.24198 4.85836L9.0748 4.85836C9.4582 4.85836 9.73066 5.14059 9.73066 5.50621C9.73066 5.87008 9.4582 6.15406 9.0748 6.15406ZM11.6293 6.15406C11.2602 6.15406 10.9779 5.87008 10.9779 5.50621C10.9779 5.14059 11.2602 4.85836 11.6293 4.85836L12.4297 4.85836C12.8113 4.85836 13.0855 5.14059 13.0855 5.50621C13.0855 5.87008 12.8113 6.15406 12.4297 6.15406ZM4.24198 9.68981C3.86483 9.68981 3.59062 9.41383 3.59062 9.05621C3.59062 8.6861 3.86483 8.3941 4.24198 8.3941L9.0748 8.3941C9.4582 8.3941 9.73066 8.6861 9.73066 9.05621C9.73066 9.41383 9.4582 9.68981 9.0748 9.68981ZM11.6293 9.68981C11.2602 9.68981 10.9779 9.41383 10.9779 9.05621C10.9779 8.6861 11.2602 8.3941 11.6293 8.3941L12.4297 8.3941C12.8113 8.3941 13.0855 8.6861 13.0855 9.05621C13.0855 9.41383 12.8113 9.68981 12.4297 9.68981ZM4.24198 13.1677C3.86483 13.1677 3.59062 12.8935 3.59062 12.5314C3.59062 12.164 3.86483 11.872 4.24198 11.872L9.08281 11.872C9.46621 11.872 9.74668 12.164 9.74668 12.5314C9.74668 12.8935 9.46621 13.1677 9.08281 13.1677ZM11.6213 13.1677C11.2441 13.1677 10.9699 12.8935 10.9699 12.5314C10.9699 12.164 11.2441 11.872 11.6213 11.872L12.4297 11.872C12.8113 11.872 13.0855 12.164 13.0855 12.5314C13.0855 12.8935 12.8113 13.1677 12.4297 13.1677ZM4.24198 16.7115C3.86483 16.7115 3.59062 16.4293 3.59062 16.0734C3.59062 15.6998 3.86483 15.4158 4.24198 15.4158L9.08281 15.4158C9.46621 15.4158 9.74668 15.6998 9.74668 16.0734C9.74668 16.4293 9.46621 16.7115 9.08281 16.7115ZM11.6213 16.7115C11.2441 16.7115 10.9699 16.4293 10.9699 16.0734C10.9699 15.6998 11.2441 15.4158 11.6213 15.4158L12.4297 15.4158C12.8113 15.4158 13.0855 15.6998 13.0855 16.0734C13.0855 16.4293 12.8113 16.7115 12.4297 16.7115Z" fill="white" fill-opacity="0.85"/>
 </g>
</svg>
