<?xml version="1.0" encoding="UTF-8"?>
<!--Generator: Apple Native CoreSVG 341-->
<!DOCTYPE svg
PUBLIC "-//W3C//DTD SVG 1.1//EN"
       "http://www.w3.org/Graphics/SVG/1.1/DTD/svg11.dtd">
<svg version="1.1" xmlns="http://www.w3.org/2000/svg" xmlns:xlink="http://www.w3.org/1999/xlink" viewBox="0 0 20.5381 20.1848">
 <g>
  <rect height="20.1848" opacity="0" width="20.5381" x="0" y="0"/>
  <path d="M10.0875 20.175C15.6576 20.175 20.1767 15.6559 20.1767 10.0875C20.1767 4.51914 15.6576 0 10.0875 0C4.51914 0 0 4.51914 0 10.0875C0 15.6559 4.51914 20.175 10.0875 20.175ZM10.0875 18.1879C5.60839 18.1879 1.9871 14.5666 1.9871 10.0875C1.9871 5.60839 5.60839 1.9871 10.0875 1.9871C14.5666 1.9871 18.1897 5.60839 18.1897 10.0875C18.1897 14.5666 14.5666 18.1879 10.0875 18.1879Z" fill="white" fill-opacity="0.85"/>
  <path d="M3.83398 10.0875C3.83398 11.6633 5.10703 12.9461 6.68281 12.9461L13.4912 12.9461C15.0687 12.9461 16.34 11.6633 16.34 10.0875C16.34 8.50996 15.0687 7.2289 13.4912 7.2289C11.9154 7.2289 10.6326 8.50996 10.6326 10.0875C10.6326 10.7295 10.8484 11.3457 11.2525 11.8322L8.92148 11.8322C9.32558 11.3457 9.5414 10.7295 9.5414 10.0875C9.5414 8.50996 8.2666 7.2289 6.68281 7.2289C5.10703 7.2289 3.83398 8.50996 3.83398 10.0875ZM4.98827 10.0777C4.98827 9.14609 5.76093 8.3832 6.69257 8.3832C7.62421 8.3832 8.38711 9.14609 8.38711 10.0777C8.38711 11.0289 7.63574 11.7918 6.69257 11.7918C5.75117 11.7918 4.98827 11.0191 4.98827 10.0777ZM11.7869 10.0777C11.7869 9.14609 12.5498 8.3832 13.4814 8.3832C14.4131 8.3832 15.1857 9.14609 15.1857 10.0777C15.1857 11.0191 14.4228 11.7918 13.4814 11.7918C12.54 11.7918 11.7869 11.0289 11.7869 10.0777Z" fill="white" fill-opacity="0.85"/>
 </g>
</svg>
