<?xml version="1.0" encoding="UTF-8"?>
<!--Generator: Apple Native CoreSVG 341-->
<!DOCTYPE svg
PUBLIC "-//W3C//DTD SVG 1.1//EN"
       "http://www.w3.org/Graphics/SVG/1.1/DTD/svg11.dtd">
<svg version="1.1" xmlns="http://www.w3.org/2000/svg" xmlns:xlink="http://www.w3.org/1999/xlink" viewBox="0 0 20.5381 20.1848">
 <g>
  <rect height="20.1848" opacity="0" width="20.5381" x="0" y="0"/>
  <path d="M20.1767 10.0875C20.1767 15.6478 15.6576 20.175 10.0875 20.175C4.52715 20.175 0 15.6478 0 10.0875C0 4.51914 4.52715 0 10.0875 0C15.6576 0 20.1767 4.51914 20.1767 10.0875ZM10.6592 10.0875C10.6592 10.7578 10.8785 11.4023 11.2977 11.9074L8.87636 11.9074C9.2955 11.4023 9.51484 10.7578 9.51484 10.0875C9.51484 8.43652 8.18164 7.09531 6.52265 7.09531C4.87168 7.09531 3.54824 8.43652 3.54824 10.0875C3.54824 11.7367 4.87168 13.0797 6.52265 13.0797L13.6514 13.0797C15.3023 13.0797 16.6338 11.7367 16.6338 10.0875C16.6338 8.43652 15.3023 7.09531 13.6514 7.09531C12.0004 7.09531 10.6592 8.43652 10.6592 10.0875ZM8.29687 10.0777C8.29687 11.0705 7.51543 11.8617 6.53242 11.8617C5.54941 11.8617 4.7582 11.0607 4.7582 10.0777C4.7582 9.10449 5.56093 8.31327 6.53242 8.31327C7.50566 8.31327 8.29687 9.10449 8.29687 10.0777ZM15.4158 10.0777C15.4158 11.0607 14.6246 11.8617 13.6416 11.8617C12.6586 11.8617 11.8771 11.0705 11.8771 10.0777C11.8771 9.10449 12.6684 8.31327 13.6416 8.31327C14.6148 8.31327 15.4158 9.10449 15.4158 10.0777Z" fill="white" fill-opacity="0.85"/>
 </g>
</svg>
