<?xml version="1.0" encoding="UTF-8"?>
<!--Generator: Apple Native CoreSVG 341-->
<!DOCTYPE svg
PUBLIC "-//W3C//DTD SVG 1.1//EN"
       "http://www.w3.org/Graphics/SVG/1.1/DTD/svg11.dtd">
<svg version="1.1" xmlns="http://www.w3.org/2000/svg" xmlns:xlink="http://www.w3.org/1999/xlink" viewBox="0 0 27.843 18.3363">
 <g>
  <rect height="18.3363" opacity="0" width="27.843" x="0" y="0"/>
  <path d="M4.51503 18.3267L12.5307 18.3267C13.9799 18.3267 14.7115 17.5933 14.7115 16.1201L14.7115 12.9633C14.7115 11.482 13.9799 10.7504 12.5307 10.7504L4.51503 10.7504C3.06758 10.7504 2.33418 11.482 2.33418 12.9633L2.33418 16.1201C2.33418 17.5933 3.06758 18.3267 4.51503 18.3267Z" fill="white" fill-opacity="0.85"/>
  <path d="M18.6974 16.949L25.3008 16.949C26.7482 16.949 27.4816 16.2156 27.4816 14.7344L27.4816 3.73846C27.4816 2.25722 26.7482 1.52558 25.3008 1.52558L18.6974 1.52558C17.2482 1.52558 16.5166 2.25722 16.5166 3.73846L16.5166 14.7344C16.5166 16.2156 17.2482 16.949 18.6974 16.949Z" fill="white" fill-opacity="0.85"/>
  <path d="M2.17284 8.84569L11.4553 8.84569C12.8947 8.84569 13.6264 8.11229 13.6264 6.63281L13.6264 2.20487C13.6264 0.72363 12.8947 0 11.4553 0L2.17284 0C0.731637 0 0 0.72363 0 2.20487L0 6.63281C0 8.11229 0.731637 8.84569 2.17284 8.84569Z" fill="white" fill-opacity="0.85"/>
 </g>
</svg>
