<?xml version="1.0" encoding="UTF-8"?>
<!--Generator: Apple Native CoreSVG 341-->
<!DOCTYPE svg
PUBLIC "-//W3C//DTD SVG 1.1//EN"
       "http://www.w3.org/Graphics/SVG/1.1/DTD/svg11.dtd">
<svg version="1.1" xmlns="http://www.w3.org/2000/svg" xmlns:xlink="http://www.w3.org/1999/xlink" viewBox="0 0 23.934 23.6375">
 <g>
  <rect height="23.6375" opacity="0" width="23.934" x="0" y="0"/>
  <path d="M2.34485 5.1676C2.20443 5.39117 2.13185 5.68384 2.13185 6.04494L2.13185 17.6024C2.13185 18.5512 2.63302 19.0213 3.54103 19.0213L10.8508 19.0213L10.8508 13.6628L12.7219 15.5316L12.7219 19.0213L16.216 19.0213L18.1317 20.9346L3.42209 20.9346C1.32053 20.9346 0.216823 19.8549 0.216823 17.7711L0.216823 5.87795C0.216823 4.94748 0.436516 4.21599 0.867976 3.69259ZM23.3541 5.87795L23.3541 17.7711C23.3541 18.6889 23.1419 19.412 22.7236 19.9332L21.2415 18.4514C21.3727 18.2326 21.4409 17.9495 21.4409 17.6024L21.4409 6.04494C21.4409 5.09611 20.9317 4.61974 20.0317 4.61974L12.7219 4.61974L12.7219 9.93331L10.8508 8.06256L10.8508 4.61974L7.40737 4.61974L5.49376 2.70647L20.1506 2.70647C22.2602 2.70647 23.3541 3.7924 23.3541 5.87795Z" fill="white" fill-opacity="0.85"/>
  <path d="M21.1086 22.2069C21.4121 22.5086 21.9082 22.5184 22.2082 22.2069C22.502 21.9051 22.5117 21.4108 22.2082 21.1072L2.52815 1.4467C2.22639 1.14318 1.7303 1.13518 1.41878 1.4467C1.12678 1.73869 1.12678 2.24455 1.41878 2.54631Z" fill="white" fill-opacity="0.85"/>
 </g>
</svg>
