<?xml version="1.0" encoding="UTF-8"?>
<!--Generator: Apple Native CoreSVG 341-->
<!DOCTYPE svg
PUBLIC "-//W3C//DTD SVG 1.1//EN"
       "http://www.w3.org/Graphics/SVG/1.1/DTD/svg11.dtd">
<svg version="1.1" xmlns="http://www.w3.org/2000/svg" xmlns:xlink="http://www.w3.org/1999/xlink" viewBox="0 0 16.2703 21.8808">
 <g>
  <rect height="21.8808" opacity="0" width="16.2703" x="0" y="0"/>
  <path d="M0.99414 9.89179L2.72889 9.89179L2.72889 2.95018C2.72889 2.19784 3.16405 1.74393 3.9787 1.74393L11.924 1.74393C12.7351 1.74393 13.1783 2.20136 13.1783 2.95194L13.1783 3.60644L14.9131 3.60644L14.9131 2.69237C14.9131 1.07812 13.8394 0 12.1474 0L3.75527 0C2.05976 0 0.986132 1.07812 0.986132 2.69062ZM3.76152 21.5312L12.1537 21.5312C13.8492 21.5312 14.9211 20.4433 14.9211 18.8326L14.9211 11.6297L13.1863 11.6297L13.1863 18.5713C13.1863 19.3334 12.7449 19.7855 11.9303 19.7855L3.98495 19.7855C3.17206 19.7855 2.72889 19.3281 2.72889 18.5695L2.72889 17.915L0.99414 17.915L0.99414 18.8308C0.99414 20.4433 2.06777 21.5312 3.76152 21.5312Z" fill="white" fill-opacity="0.85"/>
  <path d="M15.0158 4.8287L10.9853 4.8287C10.5349 4.8287 10.2822 5.18339 10.2804 5.53183C10.2902 5.88827 10.5429 6.25272 11.0164 6.25096L12.4906 6.26073L14.4988 6.06229L14.6816 6.2451L14.4769 8.23729L14.4689 9.75507C14.4689 10.2348 14.8396 10.4795 15.1961 10.4875C15.5525 10.4795 15.909 10.241 15.909 9.78261L15.909 5.7121C15.909 5.15234 15.5896 4.8287 15.0158 4.8287ZM14.8914 6.81698C15.139 6.53221 15.1594 6.12577 14.8914 5.8578C14.6234 5.58807 14.2054 5.61014 13.9207 5.8578L12.4638 7.16171L10.9957 8.61034C10.8166 8.78593 10.7502 8.99335 10.7422 9.18124C10.7422 9.59979 11.1547 9.99901 11.5742 9.99901C11.7381 9.99901 11.9597 9.92284 12.1193 9.74999L13.5777 8.29334ZM0.893161 16.7008L4.92363 16.7008C5.37402 16.7008 5.62499 16.3461 5.62851 15.9896C5.61698 15.635 5.36601 15.2705 4.89257 15.2723L3.4166 15.2625L1.40038 15.4689L1.21757 15.2861L1.43202 13.2859L1.44003 11.7682C1.44003 11.2867 1.06933 11.0437 0.712887 11.0357C0.356444 11.0437 0 11.2805 0 11.7389L0 15.8111C0 16.3691 0.319335 16.7008 0.893161 16.7008ZM1.01757 14.7045C0.769916 14.9893 0.749604 15.3975 1.01757 15.6654C1.28554 15.9334 1.70351 15.9131 1.98827 15.6654L3.44511 14.3598L4.91328 12.9129C5.09062 12.7435 5.15878 12.5379 5.16679 12.3402C5.16679 11.9234 4.75253 11.5322 4.333 11.5322C4.16914 11.5322 3.94922 11.6004 3.78965 11.7715L2.33125 13.2379Z" fill="white" fill-opacity="0.85"/>
 </g>
</svg>
