<?xml version="1.0" encoding="UTF-8"?>
<!--Generator: Apple Native CoreSVG 341-->
<!DOCTYPE svg
PUBLIC "-//W3C//DTD SVG 1.1//EN"
       "http://www.w3.org/Graphics/SVG/1.1/DTD/svg11.dtd">
<svg version="1.1" xmlns="http://www.w3.org/2000/svg" xmlns:xlink="http://www.w3.org/1999/xlink" viewBox="0 0 24.6481 28.1151">
 <g>
  <rect height="28.1151" opacity="0" width="24.6481" x="0" y="0"/>
  <path d="M18.4933 4.30482L6.12081 4.30482C6.15644 3.46805 6.68247 2.98275 7.55216 2.98275L17.0637 2.98275C17.9334 2.98275 18.4578 3.46805 18.4933 4.30482Z" fill="white" fill-opacity="0.85"/>
  <path d="M20.4681 7.20958C20.1378 7.15581 19.7882 7.12864 19.4209 7.12864L6.45337 7.12864L5.1404 5.81645C5.38312 5.71953 5.66759 5.66986 5.98926 5.66986L18.6248 5.66986C19.7018 5.66986 20.3618 6.22672 20.4681 7.20958Z" fill="white" fill-opacity="0.85"/>
  <path d="M4.52375 10.8019C4.11699 11.0151 3.90117 11.4343 3.90117 12.057L3.90117 21.7646C3.90117 22.7152 4.40234 23.1915 5.31211 23.1915L16.9229 23.1915L18.8376 25.1048L5.19317 25.1048C3.0836 25.1048 1.9879 24.0171 1.9879 21.9333L1.9879 11.89C1.9879 10.7032 2.34273 9.84005 3.03845 9.31772ZM22.6262 11.89L22.6262 21.9333C22.6262 22.3818 22.575 22.7842 22.4707 23.1366L20.7129 21.3798L20.7129 12.057C20.7129 11.1081 20.2037 10.6318 19.302 10.6318L9.95853 10.6318L8.04414 8.71848L19.4209 8.71848C21.5225 8.71848 22.6262 9.80442 22.6262 11.89Z" fill="white" fill-opacity="0.85"/>
  <path d="M22.1258 26.6874C22.4293 26.9892 22.9254 26.9909 23.2254 26.6874C23.5192 26.3777 23.5289 25.8913 23.2254 25.5878L3.54533 5.91926C3.24181 5.61575 2.74747 5.61575 2.43595 5.91926C2.14396 6.21125 2.14396 6.72512 2.43595 7.01887Z" fill="white" fill-opacity="0.85"/>
 </g>
</svg>
