<?xml version="1.0" encoding="UTF-8"?>
<!--Generator: Apple Native CoreSVG 341-->
<!DOCTYPE svg
PUBLIC "-//W3C//DTD SVG 1.1//EN"
       "http://www.w3.org/Graphics/SVG/1.1/DTD/svg11.dtd">
<svg version="1.1" xmlns="http://www.w3.org/2000/svg" xmlns:xlink="http://www.w3.org/1999/xlink" viewBox="0 0 20.6228 24.6828">
 <g>
  <rect height="24.6828" opacity="0" width="20.6228" x="0" y="0"/>
  <path d="M15.6187 3.20351L15.6187 4.93496L13.7055 4.93496L13.7055 3.32245C13.7055 2.41444 13.2371 1.91327 12.2883 1.91327L3.33222 1.91327C2.38163 1.91327 1.91327 2.41444 1.91327 3.32245L1.91327 16.4219C1.91327 17.3139 2.38163 17.8231 3.33222 17.8231L4.64277 17.8231L4.64277 19.7363L3.17148 19.7363C1.08769 19.7363 0 18.6424 0 16.5328L0 3.20351C0 1.0957 1.07968 0 3.17148 0L12.4473 0C14.5408 0 15.6187 1.0957 15.6187 3.20351Z" fill="white" fill-opacity="0.85"/>
  <path d="M20.2615 8.14022C20.2615 6.03066 19.1818 4.93496 17.09 4.93496L7.81425 4.93496C5.7207 4.93496 4.64277 6.03066 4.64277 8.14022L4.64277 21.4678C4.64277 23.5773 5.7287 24.673 7.81425 24.673L17.09 24.673C19.1738 24.673 20.2615 23.5773 20.2615 21.4678ZM18.3482 8.25917L18.3482 21.3568C18.3482 22.2506 17.8799 22.7598 16.9293 22.7598L7.97323 22.7598C7.0244 22.7598 6.55604 22.2506 6.55604 21.3568L6.55604 8.25917C6.55604 7.3494 7.0244 6.84822 7.97323 6.84822L16.9293 6.84822C17.8799 6.84822 18.3482 7.3494 18.3482 8.25917Z" fill="white" fill-opacity="0.85"/>
 </g>
</svg>
