<?xml version="1.0" encoding="UTF-8"?>
<!--Generator: Apple Native CoreSVG 341-->
<!DOCTYPE svg
PUBLIC "-//W3C//DTD SVG 1.1//EN"
       "http://www.w3.org/Graphics/SVG/1.1/DTD/svg11.dtd">
<svg version="1.1" xmlns="http://www.w3.org/2000/svg" xmlns:xlink="http://www.w3.org/1999/xlink" viewBox="0 0 23.5047 21.1441">
 <g>
  <rect height="21.1441" opacity="0" width="23.5047" x="0" y="0"/>
  <path d="M4.1875 21.1379L12.56 21.1379C15.2502 21.1379 16.7457 19.6424 16.7457 16.9504L16.7457 4.1955C16.7457 1.50351 15.2502 0 12.56 0L4.1875 0C1.50351 0 0 1.50351 0 4.1955L0 16.9504C0 19.6424 1.50351 21.1379 4.1875 21.1379ZM18.3912 7.21621C18.3912 6.76738 18.7176 6.41641 19.1662 6.41641C19.4092 6.41641 19.583 6.50332 19.7471 6.66738L22.8402 9.88301C23.0707 10.1135 23.1433 10.3252 23.1433 10.5672C23.1433 10.8012 23.0707 11.0191 22.8402 11.2514L19.7471 14.4572C19.583 14.6213 19.4092 14.718 19.1662 14.718C18.7176 14.718 18.3912 14.3492 18.3912 13.9084C18.3912 13.6894 18.4834 13.4633 18.6572 13.3072L20.1455 11.9078L21.7726 10.5672L20.1455 9.21855L18.6572 7.82714C18.4834 7.67109 18.3912 7.43515 18.3912 7.21621ZM8.62948 10.5672C8.62948 10.0717 9.0328 9.65938 9.50975 9.65938L19.3131 9.65938L22.1203 9.825C22.5308 9.85156 22.8625 10.1566 22.8625 10.5672C22.8625 10.976 22.5308 11.281 22.1203 11.3076L19.3131 11.467L9.50975 11.467C9.0328 11.467 8.62948 11.0627 8.62948 10.5672Z" fill="white" fill-opacity="0.85"/>
 </g>
</svg>
