<?xml version="1.0" encoding="UTF-8"?>
<!--Generator: Apple Native CoreSVG 341-->
<!DOCTYPE svg
PUBLIC "-//W3C//DTD SVG 1.1//EN"
       "http://www.w3.org/Graphics/SVG/1.1/DTD/svg11.dtd">
<svg version="1.1" xmlns="http://www.w3.org/2000/svg" xmlns:xlink="http://www.w3.org/1999/xlink" viewBox="0 0 25.5265 19.4949">
 <g>
  <rect height="19.4949" opacity="0" width="25.5265" x="0" y="0"/>
  <path d="M19.4101 19.4593L23.3967 19.4593C24.5051 19.4593 25.1652 18.7974 25.1652 17.65L25.1652 15.5172C25.1652 14.3697 24.5051 13.7078 23.3967 13.7078L19.4101 13.7078C18.3017 13.7078 17.6416 14.3697 17.6416 15.5172L17.6416 17.65C17.6416 18.7974 18.3017 19.4593 19.4101 19.4593ZM19.6431 17.95C19.3162 17.95 19.1429 17.775 19.1429 17.4347L19.1429 15.7306C19.1429 15.3842 19.3162 15.2092 19.6431 15.2092L23.1539 15.2092C23.4826 15.2092 23.6558 15.3842 23.6558 15.7306L23.6558 17.4347C23.6558 17.775 23.4826 17.95 23.1539 17.95Z" fill="white" fill-opacity="0.85"/>
  <path d="M10.5836 19.4593L14.5719 19.4593C15.6785 19.4593 16.3306 18.7974 16.3306 17.65L16.3306 15.5172C16.3306 14.3697 15.6785 13.7078 14.5719 13.7078L10.5836 13.7078C9.46893 13.7078 8.81679 14.3697 8.81679 15.5172L8.81679 17.65C8.81679 18.7974 9.46893 19.4593 10.5836 19.4593ZM10.8103 17.95C10.4816 17.95 10.3164 17.775 10.3164 17.4347L10.3164 15.7306C10.3164 15.3842 10.4816 15.2092 10.8103 15.2092L14.3353 15.2092C14.6578 15.2092 14.831 15.3842 14.831 15.7306L14.831 17.4347C14.831 17.775 14.6578 17.95 14.3353 17.95Z" fill="white" fill-opacity="0.85"/>
  <path d="M1.76855 19.4593L5.75507 19.4593C6.86347 19.4593 7.52362 18.7974 7.52362 17.65L7.52362 15.5172C7.52362 14.3697 6.86347 13.7078 5.75507 13.7078L1.76855 13.7078C0.660155 13.7078 0 14.3697 0 15.5172L0 17.65C0 18.7974 0.660155 19.4593 1.76855 19.4593ZM2.00156 17.95C1.6746 17.95 1.50937 17.775 1.50937 17.4347L1.50937 15.7306C1.50937 15.3842 1.6746 15.2092 2.00156 15.2092L5.5123 15.2092C5.84101 15.2092 6.02226 15.3842 6.02226 15.7306L6.02226 17.4347C6.02226 17.775 5.84101 17.95 5.5123 17.95Z" fill="white" fill-opacity="0.85"/>
  <path d="M19.4101 12.6055L23.3967 12.6055C24.5051 12.6055 25.1652 11.9515 25.1652 10.8041L25.1652 8.66327C25.1652 7.51581 24.5051 6.8539 23.3967 6.8539L19.4101 6.8539C18.3017 6.8539 17.6416 7.51581 17.6416 8.66327L17.6416 10.8041C17.6416 11.9515 18.3017 12.6055 19.4101 12.6055ZM19.6431 11.1041C19.3162 11.1041 19.1429 10.9291 19.1429 10.5808L19.1429 8.86873C19.1429 8.53026 19.3162 8.35526 19.6431 8.35526L23.1539 8.35526C23.4826 8.35526 23.6558 8.53026 23.6558 8.86873L23.6558 10.5808C23.6558 10.9291 23.4826 11.1041 23.1539 11.1041Z" fill="white" fill-opacity="0.85"/>
  <path d="M10.5836 12.6055L14.5719 12.6055C15.6785 12.6055 16.3306 11.9515 16.3306 10.8041L16.3306 8.66327C16.3306 7.51581 15.6785 6.8539 14.5719 6.8539L10.5836 6.8539C9.46893 6.8539 8.81679 7.51581 8.81679 8.66327L8.81679 10.8041C8.81679 11.9515 9.46893 12.6055 10.5836 12.6055ZM10.8103 11.1041C10.4816 11.1041 10.3164 10.9291 10.3164 10.5808L10.3164 8.86873C10.3164 8.53026 10.4816 8.35526 10.8103 8.35526L14.3353 8.35526C14.6578 8.35526 14.831 8.53026 14.831 8.86873L14.831 10.5808C14.831 10.9291 14.6578 11.1041 14.3353 11.1041Z" fill="white" fill-opacity="0.85"/>
  <path d="M1.76855 12.6055L5.75507 12.6055C6.86347 12.6055 7.52362 11.9515 7.52362 10.8041L7.52362 8.66327C7.52362 7.51581 6.86347 6.8539 5.75507 6.8539L1.76855 6.8539C0.660155 6.8539 0 7.51581 0 8.66327L0 10.8041C0 11.9515 0.660155 12.6055 1.76855 12.6055ZM2.00156 11.1041C1.6746 11.1041 1.50937 10.9291 1.50937 10.5808L1.50937 8.86873C1.50937 8.53026 1.6746 8.35526 2.00156 8.35526L5.5123 8.35526C5.84101 8.35526 6.02226 8.53026 6.02226 8.86873L6.02226 10.5808C6.02226 10.9291 5.84101 11.1041 5.5123 11.1041Z" fill="white" fill-opacity="0.85"/>
  <path d="M19.4101 5.75155L23.3967 5.75155C24.5051 5.75155 25.1652 5.08964 25.1652 3.94394L25.1652 1.80937C25.1652 0.66367 24.5051 0 23.3967 0L19.4101 0C18.3017 0 17.6416 0.66367 17.6416 1.80937L17.6416 3.94394C17.6416 5.08964 18.3017 5.75155 19.4101 5.75155ZM19.6431 4.24394C19.3162 4.24394 19.1429 4.06718 19.1429 3.71894L19.1429 2.01484C19.1429 1.67636 19.3162 1.50136 19.6431 1.50136L23.1539 1.50136C23.4826 1.50136 23.6558 1.67636 23.6558 2.01484L23.6558 3.71894C23.6558 4.06718 23.4826 4.24394 23.1539 4.24394Z" fill="white" fill-opacity="0.85"/>
  <path d="M10.5836 5.75155L14.5719 5.75155C15.6785 5.75155 16.3306 5.08964 16.3306 3.94394L16.3306 1.80937C16.3306 0.66367 15.6785 0 14.5719 0L10.5836 0C9.46893 0 8.81679 0.66367 8.81679 1.80937L8.81679 3.94394C8.81679 5.08964 9.46893 5.75155 10.5836 5.75155ZM10.8103 4.24394C10.4816 4.24394 10.3164 4.06718 10.3164 3.71894L10.3164 2.01484C10.3164 1.67636 10.4816 1.50136 10.8103 1.50136L14.3353 1.50136C14.6578 1.50136 14.831 1.67636 14.831 2.01484L14.831 3.71894C14.831 4.06718 14.6578 4.24394 14.3353 4.24394Z" fill="white" fill-opacity="0.85"/>
  <path d="M1.76855 5.75155L5.75507 5.75155C6.86347 5.75155 7.52362 5.08964 7.52362 3.94394L7.52362 1.80937C7.52362 0.66367 6.86347 0 5.75507 0L1.76855 0C0.660155 0 0 0.66367 0 1.80937L0 3.94394C0 5.08964 0.660155 5.75155 1.76855 5.75155ZM2.00156 4.24394C1.6746 4.24394 1.50937 4.06718 1.50937 3.71894L1.50937 2.01484C1.50937 1.67636 1.6746 1.50136 2.00156 1.50136L5.5123 1.50136C5.84101 1.50136 6.02226 1.67636 6.02226 2.01484L6.02226 3.71894C6.02226 4.06718 5.84101 4.24394 5.5123 4.24394Z" fill="white" fill-opacity="0.85"/>
 </g>
</svg>
