<?xml version="1.0" encoding="UTF-8"?>
<!--Generator: Apple Native CoreSVG 341-->
<!DOCTYPE svg
PUBLIC "-//W3C//DTD SVG 1.1//EN"
       "http://www.w3.org/Graphics/SVG/1.1/DTD/svg11.dtd">
<svg version="1.1" xmlns="http://www.w3.org/2000/svg" xmlns:xlink="http://www.w3.org/1999/xlink" viewBox="0 0 22.0443 18.2476">
 <g>
  <rect height="18.2476" opacity="0" width="22.0443" x="0" y="0"/>
  <path d="M17.5783 18.2476L19.584 18.2476C20.9912 18.2476 21.683 17.5639 21.683 16.1148L21.683 12.0246C21.683 10.5853 20.9912 9.89355 19.584 9.89355L17.5783 9.89355C16.1631 9.89355 15.4713 10.5853 15.4713 12.0246L15.4713 16.1148C15.4713 17.5639 16.1631 18.2476 17.5783 18.2476Z" fill="white" fill-opacity="0.85"/>
  <path d="M9.83865 18.2476L11.8523 18.2476C13.2596 18.2476 13.9496 17.5639 13.9496 16.1148L13.9496 12.0246C13.9496 10.5853 13.2596 9.89355 11.8523 9.89355L9.83865 9.89355C8.43144 9.89355 7.73964 10.5853 7.73964 12.0246L7.73964 16.1148C7.73964 17.5639 8.43144 18.2476 9.83865 18.2476Z" fill="white" fill-opacity="0.85"/>
  <path d="M2.09901 18.2476L4.11094 18.2476C5.51816 18.2476 6.20995 17.5639 6.20995 16.1148L6.20995 12.0246C6.20995 10.5853 5.51816 9.89355 4.11094 9.89355L2.09901 9.89355C0.691794 9.89355 0 10.5853 0 12.0246L0 16.1148C0 17.5639 0.691794 18.2476 2.09901 18.2476Z" fill="white" fill-opacity="0.85"/>
  <path d="M17.5783 8.37187L19.584 8.37187C20.9912 8.37187 21.683 7.68007 21.683 6.23281L21.683 2.15058C21.683 0.70156 20.9912 0.0195312 19.584 0.0195312L17.5783 0.0195312C16.1631 0.0195312 15.4713 0.70156 15.4713 2.15058L15.4713 6.23281C15.4713 7.68007 16.1631 8.37187 17.5783 8.37187Z" fill="white" fill-opacity="0.85"/>
  <path d="M9.83865 8.37187L11.8523 8.37187C13.2596 8.37187 13.9496 7.68007 13.9496 6.23281L13.9496 2.15058C13.9496 0.70156 13.2596 0.0195312 11.8523 0.0195312L9.83865 0.0195312C8.43144 0.0195312 7.73964 0.70156 7.73964 2.15058L7.73964 6.23281C7.73964 7.68007 8.43144 8.37187 9.83865 8.37187Z" fill="white" fill-opacity="0.85"/>
  <path d="M2.09901 8.37187L4.11094 8.37187C5.51816 8.37187 6.20995 7.68007 6.20995 6.23281L6.20995 2.15058C6.20995 0.70156 5.51816 0.0195312 4.11094 0.0195312L2.09901 0.0195312C0.691794 0.0195312 0 0.70156 0 2.15058L0 6.23281C0 7.68007 0.691794 8.37187 2.09901 8.37187Z" fill="white" fill-opacity="0.85"/>
 </g>
</svg>
