<?xml version="1.0" encoding="UTF-8"?>
<!--Generator: Apple Native CoreSVG 341-->
<!DOCTYPE svg
PUBLIC "-//W3C//DTD SVG 1.1//EN"
       "http://www.w3.org/Graphics/SVG/1.1/DTD/svg11.dtd">
<svg version="1.1" xmlns="http://www.w3.org/2000/svg" xmlns:xlink="http://www.w3.org/1999/xlink" viewBox="0 0 21.6331 25.218">
 <g>
  <rect height="25.218" opacity="0" width="21.6331" x="0" y="0"/>
  <path d="M15.4592 2.68559L15.8994 5.18324L13.9651 5.18324L13.6044 3.12796C13.4329 2.22796 12.8854 1.82366 11.9508 1.98714L3.13952 3.54183C2.20846 3.70706 1.83072 4.27933 1.98444 5.17758L4.25573 18.0754C4.40396 18.8843 4.86791 19.2987 5.65104 19.2454L5.65104 21.1819C3.84762 21.3502 2.73841 20.4424 2.39285 18.5258L0.0801534 5.39359C-0.283713 3.30707 0.594605 2.05258 2.64734 1.68872L11.7864 0.0766069C13.8391-0.279252 15.0954 0.607074 15.4592 2.68559Z" fill="white" fill-opacity="0.85"/>
  <path d="M21.2715 8.38675C21.2715 6.27718 20.1919 5.18324 18.1001 5.18324L8.82252 5.18324C6.73873 5.18324 5.65104 6.27718 5.65104 8.38675L5.65104 21.716C5.65104 23.8239 6.73873 24.9196 8.82252 24.9196L18.1001 24.9196C20.1838 24.9196 21.2715 23.8239 21.2715 21.716ZM19.3583 8.50569L19.3583 21.6051C19.3583 22.4971 18.8881 23.0063 17.9393 23.0063L8.99127 23.0063C8.04244 23.0063 7.56431 22.4971 7.56431 21.6051L7.56431 8.50569C7.56431 7.59768 8.04244 7.09651 8.99127 7.09651L17.9393 7.09651C18.8881 7.09651 19.3583 7.59768 19.3583 8.50569Z" fill="white" fill-opacity="0.85"/>
 </g>
</svg>
