<?xml version="1.0" encoding="UTF-8"?>
<!--Generator: Apple Native CoreSVG 341-->
<!DOCTYPE svg
PUBLIC "-//W3C//DTD SVG 1.1//EN"
       "http://www.w3.org/Graphics/SVG/1.1/DTD/svg11.dtd">
<svg version="1.1" xmlns="http://www.w3.org/2000/svg" xmlns:xlink="http://www.w3.org/1999/xlink" viewBox="0 0 23.4906 18.2316">
 <g>
  <rect height="18.2316" opacity="0" width="23.4906" x="0" y="0"/>
  <path d="M5.7621 5.51073L9.64648 5.51073L9.64648 1.91678L5.7621 1.91678ZM13.4793 5.51073L17.3637 5.51073L17.3637 1.91678L13.4793 1.91678ZM1.91327 9.1207L5.7621 9.1207L5.7621 5.51073L1.91327 5.51073ZM9.64648 9.1207L13.4793 9.1207L13.4793 5.51073L9.64648 5.51073ZM17.3637 9.1207L21.224 9.1207L21.224 5.51073L17.3637 5.51073ZM5.7621 12.7146L9.64648 12.7146L9.64648 9.1207L5.7621 9.1207ZM13.4793 12.7146L17.3637 12.7146L17.3637 9.1207L13.4793 9.1207ZM1.91327 15.9248L2.33983 16.3184L5.7621 16.3184L5.7621 12.7146L1.91327 12.7146ZM9.64648 16.3184L13.4793 16.3184L13.4793 12.7146L9.64648 12.7146ZM17.3637 16.3184L20.7416 16.3184L21.224 15.8973L21.224 12.7146L17.3637 12.7146ZM3.20351 18.2316L19.9258 18.2316C22.0416 18.2316 23.1293 17.1519 23.1293 15.0682L23.1293 3.17499C23.1293 1.08945 22.0416 0.00351548 19.9258 0.00351548L3.20351 0.00351548C1.0957 0.00351548 0 1.08945 0 3.17499L0 15.0682C0 17.1519 1.0957 18.2316 3.20351 18.2316ZM3.31444 16.3184C2.40643 16.3184 1.91327 15.8482 1.91327 14.8994L1.91327 3.34198C1.91327 2.39315 2.40643 1.91678 3.31444 1.91678L19.8148 1.91678C20.7149 1.91678 21.216 2.39315 21.216 3.34198L21.216 14.8994C21.216 15.8482 20.7149 16.3184 19.8148 16.3184Z" fill="white" fill-opacity="0.85"/>
 </g>
</svg>
