<?xml version="1.0" encoding="UTF-8"?>
<!--Generator: Apple Native CoreSVG 341-->
<!DOCTYPE svg
PUBLIC "-//W3C//DTD SVG 1.1//EN"
       "http://www.w3.org/Graphics/SVG/1.1/DTD/svg11.dtd">
<svg version="1.1" xmlns="http://www.w3.org/2000/svg" xmlns:xlink="http://www.w3.org/1999/xlink" viewBox="0 0 33.0775 23.5413">
 <g>
  <rect height="23.5413" opacity="0" width="33.0775" x="0" y="0"/>
  <path d="M20.7236 8.54039L5.6241 8.54039C4.14031 8.54039 3.30066 9.3818 3.30066 10.8656L3.30066 16.7218C3.30066 18.2136 4.14031 19.055 5.6241 19.055L23.1405 19.055C24.6323 19.055 25.4622 18.2136 25.4622 16.7218L25.4622 11.4239L27.2606 9.62613C27.3393 9.98852 27.3772 10.3857 27.3772 10.8129L27.3772 16.7728C27.3772 19.4648 25.8817 20.9603 23.1897 20.9603L5.57489 20.9603C2.89091 20.9603 1.38739 19.4648 1.38739 16.7728L1.38739 10.8129C1.38739 8.12888 2.89091 6.62712 5.57489 6.62712L22.6364 6.62712Z" fill="white" fill-opacity="0.85"/>
  <path d="M21.0092 13.6783L29.6715 5.02222L28.0548 3.40543L19.4005 12.0615L18.5671 14.0445C18.4696 14.2978 18.7309 14.5576 18.9862 14.4636ZM30.3844 4.31108L31.1973 3.4939C31.6018 3.07886 31.6389 2.47046 31.2229 2.06519L30.9426 1.79918C30.5825 1.45953 29.9831 1.47789 29.5893 1.87789L28.7757 2.7023Z" fill="white" fill-opacity="0.85"/>
  <path d="M15.5657 15.2595C16.3671 15.2595 17.0184 14.6099 17.0184 13.8086C17.0184 13.0072 16.3671 12.3576 15.5657 12.3576C14.7643 12.3576 14.1147 13.0072 14.1147 13.8086C14.1147 14.6099 14.7643 15.2595 15.5657 15.2595Z" fill="white" fill-opacity="0.85"/>
  <path d="M11.2741 15.2595C12.0755 15.2595 12.7251 14.6099 12.7251 13.8086C12.7251 13.0072 12.0755 12.3576 11.2741 12.3576C10.4727 12.3576 9.82312 13.0072 9.82312 13.8086C9.82312 14.6099 10.4727 15.2595 11.2741 15.2595Z" fill="white" fill-opacity="0.85"/>
  <path d="M6.98249 15.2595C7.78386 15.2595 8.43347 14.6099 8.43347 13.8086C8.43347 13.0072 7.78386 12.3576 6.98249 12.3576C6.18113 12.3576 5.53152 13.0072 5.53152 13.8086C5.53152 14.6099 6.18113 15.2595 6.98249 15.2595Z" fill="white" fill-opacity="0.85"/>
 </g>
</svg>
