<?xml version="1.0" encoding="UTF-8"?>
<!--Generator: Apple Native CoreSVG 341-->
<!DOCTYPE svg
PUBLIC "-//W3C//DTD SVG 1.1//EN"
       "http://www.w3.org/Graphics/SVG/1.1/DTD/svg11.dtd">
<svg version="1.1" xmlns="http://www.w3.org/2000/svg" xmlns:xlink="http://www.w3.org/1999/xlink" viewBox="0 0 25.6521 19.3894">
 <g>
  <rect height="19.3894" opacity="0" width="25.6521" x="0" y="0"/>
  <path d="M9.29217 19.3894L16.0004 19.3894C18.0842 19.3894 19.1719 18.3035 19.1719 16.1859L19.1719 3.20527C19.1719 1.08769 18.0842 0.00175774 16.0004 0.00175774L9.29217 0.00175774C7.19862 0.00175774 6.12069 1.08769 6.12069 3.20527L6.12069 16.1859C6.12069 18.3035 7.20663 19.3894 9.29217 19.3894ZM9.45115 17.4762C8.50232 17.4762 8.03396 16.967 8.03396 16.075L8.03396 3.3162C8.03396 2.40819 8.50232 1.91503 9.45115 1.91503L15.8316 1.91503C16.7805 1.91503 17.2586 2.40819 17.2586 3.3162L17.2586 16.075C17.2586 16.967 16.7805 17.4762 15.8316 17.4762Z" fill="white" fill-opacity="0.85"/>
  <path d="M0 11.8904C0 12.4775 0.488474 12.7205 1.00117 12.4224L4.52773 10.2867C5.00312 9.98241 5.00136 9.40702 4.52773 9.11249L0.993159 6.96074C0.478708 6.65918 0 6.92167 0 7.49902ZM25.2908 11.8904L25.2908 7.49902C25.2908 6.92167 24.7961 6.65117 24.2914 6.96074L20.7631 9.11249C20.2814 9.39902 20.2717 9.99042 20.7631 10.2867L24.2914 12.4224C24.7943 12.7303 25.2908 12.4775 25.2908 11.8904Z" fill="white" fill-opacity="0.85"/>
 </g>
</svg>
