<?xml version="1.0" encoding="UTF-8"?>
<!--Generator: Apple Native CoreSVG 341-->
<!DOCTYPE svg
PUBLIC "-//W3C//DTD SVG 1.1//EN"
       "http://www.w3.org/Graphics/SVG/1.1/DTD/svg11.dtd">
<svg version="1.1" xmlns="http://www.w3.org/2000/svg" xmlns:xlink="http://www.w3.org/1999/xlink" viewBox="0 0 20.8871 29.2729">
 <g>
  <rect height="29.2729" opacity="0" width="20.8871" x="0" y="0"/>
  <path d="M15.9971 4.07765L15.9971 0.663007C15.9971-0.0131638 15.4551-0.180741 14.9439 0.199922L12.6375 1.91515C12.2646 2.19211 12.2566 2.53703 12.6375 2.82374L14.9439 4.51944C15.4533 4.90011 15.9971 4.73077 15.9971 4.07765ZM14.6289 1.79602C14.3017 1.79602 14.0305 2.06555 14.0305 2.39269C14.0305 2.71984 14.3017 2.99113 14.6289 2.99113L16.264 2.99113C18.0523 2.99113 19.2472 4.22413 19.2472 6.06378L19.2472 7.23585C19.2472 7.58605 19.5381 7.87687 19.8883 7.87687C20.2287 7.87687 20.5258 7.58605 20.5258 7.23585L20.5258 6.06378C20.5258 3.51398 18.792 1.79602 16.2615 1.79602ZM4.52694 25.1694L4.52694 28.5841C4.52694 29.2665 5.06893 29.4261 5.58182 29.0454L7.88651 27.3399C8.26112 27.063 8.26912 26.7083 7.88651 26.4296L5.58182 24.7259C5.07245 24.347 4.52694 24.5163 4.52694 25.1694ZM5.89687 27.4511C6.22401 27.4511 6.49354 27.1815 6.49354 26.8544C6.49354 26.5255 6.22401 26.264 5.89687 26.264L4.25371 26.264C2.47343 26.264 1.27675 25.0229 1.27675 23.1815L1.27675 22.0175C1.27675 21.6673 0.985932 21.3684 0.635739 21.3684C0.297069 21.3684 0 21.6673 0 22.0175L0 23.1895C0 25.7411 1.72578 27.4511 4.25624 27.4511Z" fill="white" fill-opacity="0.85"/>
  <path d="M6.29647 22.6517L14.2275 22.6517C15.5656 22.6517 16.4963 21.769 16.4963 20.4728L16.4963 8.78858C16.4963 7.49229 15.5656 6.60167 14.2275 6.60167L6.29647 6.60167C4.96015 6.60167 4.03574 7.49229 4.03574 8.78858L4.03574 20.4728C4.03574 21.769 4.96015 22.6517 6.29647 22.6517ZM6.49471 20.9011C6.06347 20.9011 5.78632 20.6427 5.78632 20.246L5.78632 9.01709C5.78632 8.6124 6.06347 8.346 6.49471 8.346L14.031 8.346C14.4765 8.346 14.7555 8.6124 14.7555 9.01709L14.7555 20.246C14.7555 20.6427 14.4765 20.9011 14.031 20.9011Z" fill="white" fill-opacity="0.85"/>
 </g>
</svg>
