<?xml version="1.0" encoding="UTF-8"?>
<!--Generator: Apple Native CoreSVG 341-->
<!DOCTYPE svg
PUBLIC "-//W3C//DTD SVG 1.1//EN"
       "http://www.w3.org/Graphics/SVG/1.1/DTD/svg11.dtd">
<svg version="1.1" xmlns="http://www.w3.org/2000/svg" xmlns:xlink="http://www.w3.org/1999/xlink" viewBox="0 0 27.0248 24.206">
 <g>
  <rect height="24.206" opacity="0" width="27.0248" x="0" y="0"/>
  <path d="M20.6216 3.70573L20.6216 8.09788C20.059 7.77962 19.4705 7.695 18.9353 7.7537L18.9353 3.86999C18.9353 2.87506 18.3978 2.33932 17.4206 2.33932L4.6663 2.33932C3.67938 2.33932 3.14364 2.87506 3.14364 3.86999L3.14364 13.5233C3.14364 14.5182 3.68739 15.062 4.6663 15.062L7.5245 15.062C7.54629 15.1965 7.58258 15.3314 7.63077 15.4657C7.75675 15.8073 7.94483 16.1311 8.16046 16.3991L8.43938 16.7448L4.54736 16.7448C2.50341 16.7448 1.45556 15.713 1.45556 13.6868L1.45556 3.70573C1.45556 1.6698 2.50341 0.64773 4.54736 0.64773L17.5395 0.64773C19.5817 0.64773 20.6216 1.6698 20.6216 3.70573Z" fill="white" fill-opacity="0.85"/>
  <path d="M21.1399 22.2958C25.1788 20.8311 26.5438 17.4661 24.977 13.1626L24.322 11.3669C23.7325 9.74147 22.5716 8.98991 21.647 9.32624C21.427 9.41315 21.3366 9.578 21.4235 9.78991L21.705 10.5739C21.8329 10.9159 21.72 11.162 21.521 11.2366C21.2927 11.3175 21.0581 11.2055 20.9302 10.8538L20.7464 10.3415C20.394 9.3696 19.5358 8.94987 18.6759 9.2614C18.2802 9.4069 18.1569 9.64987 18.2749 9.9985L18.6655 11.0514C18.7935 11.4032 18.6841 11.6333 18.4815 11.7044C18.2577 11.787 18.0204 11.6866 17.8987 11.3411L17.5454 10.3485C17.1415 9.27975 16.3214 8.97116 15.4767 9.27019C15.1067 9.40768 14.9657 9.66667 15.0757 9.99577L15.8392 12.0811C15.9688 12.4294 15.8542 12.6692 15.6552 12.7403C15.4366 12.8212 15.2038 12.711 15.0759 12.3592L12.5624 5.45085C12.3015 4.74264 11.6661 4.44811 11.0663 4.6655C10.4132 4.90065 10.1355 5.53151 10.3901 6.23971L14.0483 16.2874C14.1292 16.5237 14.0341 16.7032 13.8919 16.7485C13.7497 16.8018 13.6058 16.7565 13.4235 16.5645L10.97 13.93C10.5884 13.5155 10.1706 13.3809 9.70772 13.5565C9.0458 13.7952 8.76553 14.4065 8.97666 14.9866C9.04854 15.1987 9.16123 15.3673 9.27393 15.5092L12.4427 19.4389C15.0765 22.7352 18.1126 23.3936 21.1399 22.2958Z" fill="white" fill-opacity="0.85"/>
 </g>
</svg>
