<?xml version="1.0" encoding="UTF-8"?>
<!--Generator: Apple Native CoreSVG 341-->
<!DOCTYPE svg
PUBLIC "-//W3C//DTD SVG 1.1//EN"
       "http://www.w3.org/Graphics/SVG/1.1/DTD/svg11.dtd">
<svg version="1.1" xmlns="http://www.w3.org/2000/svg" xmlns:xlink="http://www.w3.org/1999/xlink" viewBox="0 0 23.4906 18.2476">
 <g>
  <rect height="18.2476" opacity="0" width="23.4906" x="0" y="0"/>
  <path d="M0 10.0691L0 8.19629L10.6322 8.19629L10.6322 0.0195312L12.5051 0.0195312L12.5051 8.19629L23.1293 8.19629L23.1293 10.0691L12.5051 10.0691L12.5051 18.2476L10.6322 18.2476L10.6322 10.0691ZM3.20351 18.2476L19.9258 18.2476C22.0416 18.2476 23.1293 17.16 23.1293 15.0762L23.1293 3.183C23.1293 1.09746 22.0416 0.0195312 19.9258 0.0195312L3.20351 0.0195312C1.0957 0.0195312 0 1.09746 0 3.183L0 15.0762C0 17.16 1.0957 18.2476 3.20351 18.2476Z" fill="white" fill-opacity="0.85"/>
 </g>
</svg>
