<?xml version="1.0" encoding="UTF-8"?>
<!--Generator: Apple Native CoreSVG 341-->
<!DOCTYPE svg
PUBLIC "-//W3C//DTD SVG 1.1//EN"
       "http://www.w3.org/Graphics/SVG/1.1/DTD/svg11.dtd">
<svg version="1.1" xmlns="http://www.w3.org/2000/svg" xmlns:xlink="http://www.w3.org/1999/xlink" viewBox="0 0 20.5381 20.1848">
 <g>
  <rect height="20.1848" opacity="0" width="20.5381" x="0" y="0"/>
  <path d="M20.1767 10.0875C20.1767 15.6478 15.6576 20.175 10.0875 20.175C4.52715 20.175 0 15.6478 0 10.0875C0 4.51914 4.52715 0 10.0875 0C15.6576 0 20.1767 4.51914 20.1767 10.0875ZM7.90175 7.3537C6.96874 7.3537 6.49394 7.83827 6.49394 8.74726L6.49394 13.3594C6.49394 14.2826 6.96874 14.7592 7.90175 14.7592L14.4439 14.7592C15.377 14.7592 15.8437 14.2826 15.8437 13.3594L15.8437 8.74726C15.8437 7.83827 15.377 7.3537 14.4439 7.3537ZM5.69023 5.26386C4.75546 5.26386 4.29042 5.73866 4.29042 6.64765L4.29042 11.2678C4.29042 12.2025 4.75546 12.6676 5.69023 12.6676L5.83183 12.6676L5.83183 8.74726C5.83183 7.46464 6.59687 6.69335 7.90175 6.69335L13.6402 6.69335L13.6402 6.64765C13.6402 5.73866 13.1654 5.26386 12.2404 5.26386Z" fill="white" fill-opacity="0.85"/>
 </g>
</svg>
