<?xml version="1.0" encoding="UTF-8"?>
<!--Generator: Apple Native CoreSVG 341-->
<!DOCTYPE svg
PUBLIC "-//W3C//DTD SVG 1.1//EN"
       "http://www.w3.org/Graphics/SVG/1.1/DTD/svg11.dtd">
<svg version="1.1" xmlns="http://www.w3.org/2000/svg" xmlns:xlink="http://www.w3.org/1999/xlink" viewBox="0 0 22.9865 19.4949">
 <g>
  <rect height="19.4949" opacity="0" width="22.9865" x="0" y="0"/>
  <path d="M1.76855 19.4593L20.8566 19.4593C21.965 19.4593 22.6252 18.7974 22.6252 17.65L22.6252 15.5172C22.6252 14.3697 21.965 13.7078 20.8566 13.7078L1.76855 13.7078C0.660155 13.7078 0 14.3697 0 15.5172L0 17.65C0 18.7974 0.660155 19.4593 1.76855 19.4593Z" fill="white" fill-opacity="0.85"/>
  <path d="M1.76855 12.6055L20.8566 12.6055C21.965 12.6055 22.6252 11.9515 22.6252 10.8041L22.6252 8.66327C22.6252 7.51581 21.965 6.8539 20.8566 6.8539L1.76855 6.8539C0.660155 6.8539 0 7.51581 0 8.66327L0 10.8041C0 11.9515 0.660155 12.6055 1.76855 12.6055Z" fill="white" fill-opacity="0.85"/>
  <path d="M1.76855 5.75155L20.8566 5.75155C21.965 5.75155 22.6252 5.08964 22.6252 3.94394L22.6252 1.80937C22.6252 0.66367 21.965 0 20.8566 0L1.76855 0C0.660155 0 0 0.66367 0 1.80937L0 3.94394C0 5.08964 0.660155 5.75155 1.76855 5.75155Z" fill="white" fill-opacity="0.85"/>
 </g>
</svg>
