<?xml version="1.0" encoding="UTF-8"?>
<!--Generator: Apple Native CoreSVG 341-->
<!DOCTYPE svg
PUBLIC "-//W3C//DTD SVG 1.1//EN"
       "http://www.w3.org/Graphics/SVG/1.1/DTD/svg11.dtd">
<svg version="1.1" xmlns="http://www.w3.org/2000/svg" xmlns:xlink="http://www.w3.org/1999/xlink" viewBox="0 0 12.359 18.2476">
 <g>
  <rect height="18.2476" opacity="0" width="12.359" x="0" y="0"/>
  <path d="M3.20351 18.2476L8.79238 18.2476C10.91 18.2476 11.9976 17.16 11.9976 15.0762L11.9976 3.19101C11.9976 1.10547 10.91 0.0195312 8.79238 0.0195312L3.20351 0.0195312C1.0957 0.0195312 0 1.09746 0 3.19101L0 15.0762C0 17.168 1.0957 18.2476 3.20351 18.2476ZM3.31444 16.3344C2.40643 16.3344 1.91327 15.8643 1.91327 14.9154L1.91327 3.34999C1.91327 2.40116 2.40643 1.9328 3.31444 1.9328L8.68144 1.9328C9.5752 1.9328 10.0844 2.40116 10.0844 3.34999L10.0844 14.9154C10.0844 15.8643 9.5752 16.3344 8.68144 16.3344Z" fill="white" fill-opacity="0.85"/>
 </g>
</svg>
