<?xml version="1.0" encoding="UTF-8"?>
<!--Generator: Apple Native CoreSVG 341-->
<!DOCTYPE svg
PUBLIC "-//W3C//DTD SVG 1.1//EN"
       "http://www.w3.org/Graphics/SVG/1.1/DTD/svg11.dtd">
<svg version="1.1" xmlns="http://www.w3.org/2000/svg" xmlns:xlink="http://www.w3.org/1999/xlink" viewBox="0 0 14.0762 18.2476">
 <g>
  <rect height="18.2476" opacity="0" width="14.0762" x="0" y="0"/>
  <path d="M3.20351 18.2476L10.5193 18.2476C12.6289 18.2476 13.7148 17.16 13.7148 15.0762L13.7148 3.19101C13.7148 1.10547 12.6289 0.0195312 10.5193 0.0195312L3.20351 0.0195312C1.0957 0.0195312 0 1.09746 0 3.19101L0 15.0762C0 17.168 1.0957 18.2476 3.20351 18.2476ZM3.31444 16.3344C2.40643 16.3344 1.91327 15.8643 1.91327 14.9154L1.91327 3.34999C1.91327 2.40116 2.40643 1.9328 3.31444 1.9328L10.4004 1.9328C11.3004 1.9328 11.8016 2.40116 11.8016 3.34999L11.8016 14.9154C11.8016 15.8643 11.3004 16.3344 10.4004 16.3344Z" fill="white" fill-opacity="0.85"/>
 </g>
</svg>
