<?xml version="1.0" encoding="UTF-8"?>
<!--Generator: Apple Native CoreSVG 341-->
<!DOCTYPE svg
PUBLIC "-//W3C//DTD SVG 1.1//EN"
       "http://www.w3.org/Graphics/SVG/1.1/DTD/svg11.dtd">
<svg version="1.1" xmlns="http://www.w3.org/2000/svg" xmlns:xlink="http://www.w3.org/1999/xlink" viewBox="0 0 22.3297 18.2476">
 <g>
  <rect height="18.2476" opacity="0" width="22.3297" x="0" y="0"/>
  <path d="M13.848 18.2476L19.8693 18.2476C21.2766 18.2476 21.9683 17.5639 21.9683 16.1148L21.9683 12.0246C21.9683 10.5853 21.2766 9.89355 19.8693 9.89355L13.848 9.89355C12.4408 9.89355 11.749 10.5853 11.749 12.0246L11.749 16.1148C11.749 17.5639 12.4408 18.2476 13.848 18.2476Z" fill="white" fill-opacity="0.85"/>
  <path d="M2.09901 18.2476L8.12032 18.2476C9.52753 18.2476 10.2193 17.5639 10.2193 16.1148L10.2193 12.0246C10.2193 10.5853 9.52753 9.89355 8.12032 9.89355L2.09901 9.89355C0.691794 9.89355 0 10.5853 0 12.0246L0 16.1148C0 17.5639 0.691794 18.2476 2.09901 18.2476Z" fill="white" fill-opacity="0.85"/>
  <path d="M13.848 8.37187L19.8693 8.37187C21.2766 8.37187 21.9683 7.68007 21.9683 6.23281L21.9683 2.15058C21.9683 0.70156 21.2766 0.0195312 19.8693 0.0195312L13.848 0.0195312C12.4408 0.0195312 11.749 0.70156 11.749 2.15058L11.749 6.23281C11.749 7.68007 12.4408 8.37187 13.848 8.37187Z" fill="white" fill-opacity="0.85"/>
  <path d="M2.09901 8.37187L8.12032 8.37187C9.52753 8.37187 10.2193 7.68007 10.2193 6.23281L10.2193 2.15058C10.2193 0.70156 9.52753 0.0195312 8.12032 0.0195312L2.09901 0.0195312C0.691794 0.0195312 0 0.70156 0 2.15058L0 6.23281C0 7.68007 0.691794 8.37187 2.09901 8.37187Z" fill="white" fill-opacity="0.85"/>
 </g>
</svg>
