<?xml version="1.0" encoding="UTF-8"?>
<!--Generator: Apple Native CoreSVG 341-->
<!DOCTYPE svg
PUBLIC "-//W3C//DTD SVG 1.1//EN"
       "http://www.w3.org/Graphics/SVG/1.1/DTD/svg11.dtd">
<svg version="1.1" xmlns="http://www.w3.org/2000/svg" xmlns:xlink="http://www.w3.org/1999/xlink" viewBox="0 0 26.0714 23.414">
 <g>
  <rect height="23.414" opacity="0" width="26.0714" x="0" y="0"/>
  <path d="M15.5137 4.50795L4.6097 4.50795C3.69993 4.50795 3.19876 4.98432 3.19876 5.93315L3.19876 17.4906C3.19876 18.4394 3.69993 18.9095 4.6097 18.9095L21.1003 18.9095C22.0003 18.9095 22.5095 18.4394 22.5095 17.4906L22.5095 12.5643L24.4228 10.6503L24.4228 17.6593C24.4228 19.7431 23.3288 20.8228 21.2193 20.8228L4.49076 20.8228C2.3892 20.8228 1.28549 19.7431 1.28549 17.6593L1.28549 5.76616C1.28549 3.68061 2.3892 2.59468 4.49076 2.59468L17.4216 2.59468Z" fill="white" fill-opacity="0.85"/>
  <path d="M13.7576 13.7937C15.2572 15.2916 17.5415 15.3359 19.113 13.7644L23.7919 9.08373C24.0333 8.83256 24.0253 8.42534 23.7804 8.19819C23.5275 7.96127 23.1691 7.96303 22.9162 8.21596L18.2763 12.8541C17.1831 13.9437 15.6609 13.9367 14.6529 12.9046C13.6324 11.8583 13.5978 10.3601 14.7007 9.26518L20.6265 3.35365C21.3247 2.65541 22.2884 2.61752 22.8994 3.20541C23.5005 3.79155 23.4476 4.75248 22.7494 5.46674L16.971 11.2691C16.7595 11.4904 16.4769 11.4824 16.2867 11.2708C16.0706 11.0611 16.0751 10.79 16.2964 10.5705L20.364 6.50287C20.6187 6.24819 20.6124 5.89506 20.3853 5.65463C20.1501 5.42397 19.798 5.42124 19.5433 5.68393L15.4499 9.77905C14.7628 10.4582 14.7681 11.5199 15.4011 12.1484C16.0705 12.8212 17.0771 12.8142 17.7705 12.1111L23.5914 6.30522C24.8085 5.08002 24.789 3.4767 23.6908 2.36869C22.6085 1.28471 20.9466 1.26342 19.7587 2.46284L13.7966 8.43022C12.2234 10.0035 12.2757 12.3101 13.7576 13.7937Z" fill="white" fill-opacity="0.85"/>
 </g>
</svg>
