<?xml version="1.0" encoding="UTF-8"?>
<!--Generator: Apple Native CoreSVG 341-->
<!DOCTYPE svg
PUBLIC "-//W3C//DTD SVG 1.1//EN"
       "http://www.w3.org/Graphics/SVG/1.1/DTD/svg11.dtd">
<svg version="1.1" xmlns="http://www.w3.org/2000/svg" xmlns:xlink="http://www.w3.org/1999/xlink" viewBox="0 0 22.1187 18.7398">
 <g>
  <rect height="18.7398" opacity="0" width="22.1187" x="0" y="0"/>
  <path d="M2.41835 18.7398L19.339 18.7398C20.9422 18.7398 21.7574 17.9504 21.7574 16.3375L21.7574 12.534C21.7574 10.9371 20.9422 10.1396 19.339 10.1396L2.41835 10.1396C0.813474 10.1396 0 10.9371 0 12.534L0 16.3375C0 17.9504 0.813474 18.7398 2.41835 18.7398ZM2.65682 16.9084C2.12108 16.9084 1.83143 16.6267 1.83143 16.067L1.83143 12.8125C1.83143 12.2447 2.12108 11.9711 2.65682 11.9711L19.0926 11.9711C19.6346 11.9711 19.926 12.2447 19.926 12.8125L19.926 16.067C19.926 16.6267 19.6346 16.9084 19.0926 16.9084Z" fill="white" fill-opacity="0.85"/>
  <path d="M2.41835 8.61795L19.339 8.61795C20.9422 8.61795 21.7574 7.82049 21.7574 6.20761L21.7574 2.4121C21.7574 0.808982 20.9422 0.0177735 19.339 0.0177735L2.41835 0.0177735C0.813474 0.0177735 0 0.808982 0 2.4121L0 6.20761C0 7.82049 0.813474 8.61795 2.41835 8.61795ZM2.65682 6.78652C2.12108 6.78652 1.83143 6.50488 1.83143 5.94511L1.83143 2.69061C1.83143 2.12284 2.12108 1.8492 2.65682 1.8492L19.0926 1.8492C19.6346 1.8492 19.926 2.12284 19.926 2.69061L19.926 5.94511C19.926 6.50488 19.6346 6.78652 19.0926 6.78652Z" fill="white" fill-opacity="0.85"/>
 </g>
</svg>
