<?xml version="1.0" encoding="UTF-8"?>
<!--Generator: Apple Native CoreSVG 341-->
<!DOCTYPE svg
PUBLIC "-//W3C//DTD SVG 1.1//EN"
       "http://www.w3.org/Graphics/SVG/1.1/DTD/svg11.dtd">
<svg version="1.1" xmlns="http://www.w3.org/2000/svg" xmlns:xlink="http://www.w3.org/1999/xlink" viewBox="0 0 25.8926 21.1441">
 <g>
  <rect height="21.1441" opacity="0" width="25.8926" x="0" y="0"/>
  <path d="M17.9396 4.1955L17.9396 7.82442L16.0264 7.82442L16.0264 4.23671C16.0264 2.75292 15.193 1.91327 13.7029 1.91327L5.43242 1.91327C3.94862 1.91327 3.10721 2.75292 3.10721 4.23671L3.10721 16.9012C3.10721 18.393 3.94862 19.2246 5.43242 19.2246L13.7029 19.2246C15.193 19.2246 16.0264 18.393 16.0264 16.9012L16.0264 13.31L17.9396 13.31L17.9396 16.9504C17.9396 19.6424 16.4459 21.1379 13.7539 21.1379L5.38945 21.1379C2.69746 21.1379 1.19394 19.6424 1.19394 16.9504L1.19394 4.1955C1.19394 1.50351 2.69746 0 5.38945 0L13.7539 0C16.4459 0 17.9396 1.50351 17.9396 4.1955Z" fill="white" fill-opacity="0.85"/>
  <path d="M9.82343 10.5672C9.82343 11.0627 10.2267 11.467 10.7037 11.467L20.515 11.467L23.3142 11.3076C23.7248 11.281 24.0564 10.976 24.0564 10.5672C24.0564 10.1566 23.7248 9.85156 23.3142 9.825L20.515 9.65938L10.7037 9.65938C10.2267 9.65938 9.82343 10.0717 9.82343 10.5672ZM19.5851 7.21621C19.5851 7.43515 19.6773 7.67109 19.8512 7.82714L21.3412 9.21855L22.9666 10.5672L21.3412 11.9078L19.8512 13.3072C19.6773 13.4633 19.5851 13.6894 19.5851 13.9084C19.5851 14.3492 19.9133 14.718 20.3699 14.718C20.6031 14.718 20.7769 14.6213 20.941 14.4572L24.0342 11.2514C24.2646 11.0191 24.3471 10.8012 24.3471 10.5672C24.3471 10.3252 24.2646 10.1135 24.0342 9.88301L20.941 6.66738C20.7769 6.50332 20.6031 6.41641 20.3699 6.41641C19.9133 6.41641 19.5851 6.76738 19.5851 7.21621Z" fill="white" fill-opacity="0.85"/>
 </g>
</svg>
