<?xml version="1.0" encoding="UTF-8"?>
<!--Generator: Apple Native CoreSVG 341-->
<!DOCTYPE svg
PUBLIC "-//W3C//DTD SVG 1.1//EN"
       "http://www.w3.org/Graphics/SVG/1.1/DTD/svg11.dtd">
<svg version="1.1" xmlns="http://www.w3.org/2000/svg" xmlns:xlink="http://www.w3.org/1999/xlink" viewBox="0 0 24.3207 28.1151">
 <g>
  <rect height="28.1151" opacity="0" width="24.3207" x="0" y="0"/>
  <path d="M18.1668 4.30482L5.79259 4.30482C5.82822 3.46805 6.35425 2.98275 7.22393 2.98275L16.7355 2.98275C17.6051 2.98275 18.1312 3.46805 18.1668 4.30482Z" fill="white" fill-opacity="0.85"/>
  <path d="M20.1416 7.20965C19.8114 7.15584 19.4618 7.12864 19.0944 7.12864L6.12672 7.12864L4.81342 5.816C5.05584 5.71937 5.33991 5.66986 5.66104 5.66986L18.2984 5.66986C19.3754 5.66986 20.0354 6.22675 20.1416 7.20965Z" fill="white" fill-opacity="0.85"/>
  <path d="M18.5109 25.1048L4.86495 25.1048C2.75538 25.1048 1.66144 24.0171 1.66144 21.9333L1.66144 11.89C1.66144 10.7033 2.01559 9.84032 2.71059 9.31795ZM22.298 11.89L22.298 21.9333C22.298 22.3818 22.2468 22.7841 22.1425 23.1365L7.71735 8.71848L19.0944 8.71848C21.1942 8.71848 22.298 9.80442 22.298 11.89Z" fill="white" fill-opacity="0.85"/>
  <path d="M21.7993 26.6874C22.1011 26.9892 22.5972 26.9909 22.8972 26.6874C23.1909 26.3777 23.2007 25.8913 22.8972 25.5878L3.21886 5.91926C2.91535 5.61575 2.41925 5.61575 2.10773 5.91926C1.81574 6.21125 1.81574 6.72512 2.10773 7.01887Z" fill="white" fill-opacity="0.85"/>
 </g>
</svg>
