<?xml version="1.0" encoding="UTF-8"?>
<!--Generator: Apple Native CoreSVG 341-->
<!DOCTYPE svg
PUBLIC "-//W3C//DTD SVG 1.1//EN"
       "http://www.w3.org/Graphics/SVG/1.1/DTD/svg11.dtd">
<svg version="1.1" xmlns="http://www.w3.org/2000/svg" xmlns:xlink="http://www.w3.org/1999/xlink" viewBox="0 0 20.5381 20.1848">
 <g>
  <rect height="20.1848" opacity="0" width="20.5381" x="0" y="0"/>
  <path d="M20.1767 10.0875C20.1767 15.6478 15.6576 20.175 10.0875 20.175C4.52715 20.175 0 15.6478 0 10.0875C0 4.51914 4.52715 0 10.0875 0C15.6576 0 20.1767 4.51914 20.1767 10.0875ZM5.2498 5.24355C5.05644 5.44843 5.06269 5.77655 5.2498 5.9619L14.2148 14.9234C14.4002 15.1105 14.7363 15.1186 14.9332 14.9234C15.1266 14.7203 15.1283 14.402 14.9332 14.2068L5.97968 5.24355C5.7828 5.04843 5.45468 5.05019 5.2498 5.24355ZM6.49394 8.74726L6.49394 13.3594C6.49394 14.2826 6.96874 14.7592 7.90175 14.7592L13.0195 14.7592L6.54258 8.28803C6.5101 8.42625 6.49394 8.57953 6.49394 8.74726ZM9.10936 7.3537L15.4498 13.6885C15.5655 13.8042 15.6542 13.9347 15.7148 14.0732C15.801 13.8772 15.8437 13.6387 15.8437 13.3594L15.8437 8.74726C15.8437 7.83827 15.377 7.3537 14.4439 7.3537ZM4.29042 6.64765L4.29042 11.2678C4.29042 12.2025 4.75546 12.6676 5.69023 12.6676L5.83183 12.6676L5.83183 8.74726C5.83183 8.37495 5.89629 8.04572 6.02159 7.76751L4.73319 6.48026C4.57885 6.3285 4.4734 6.14292 4.41837 5.94522C4.33277 6.13858 4.29042 6.37335 4.29042 6.64765ZM7.01764 5.26386L8.44842 6.69335L13.6402 6.69335L13.6402 6.64765C13.6402 5.73866 13.1654 5.26386 12.2404 5.26386Z" fill="white" fill-opacity="0.85"/>
 </g>
</svg>
