<?xml version="1.0" encoding="UTF-8"?>
<!--Generator: Apple Native CoreSVG 341-->
<!DOCTYPE svg
PUBLIC "-//W3C//DTD SVG 1.1//EN"
       "http://www.w3.org/Graphics/SVG/1.1/DTD/svg11.dtd">
<svg version="1.1" xmlns="http://www.w3.org/2000/svg" xmlns:xlink="http://www.w3.org/1999/xlink" viewBox="0 0 26.164 27.5183">
 <g>
  <rect height="27.5183" opacity="0" width="26.164" x="0" y="0"/>
  <path d="M5.98496 9.6545L5.98496 21.1541L5.94296 21.1541C3.85742 21.1541 2.77148 20.0601 2.77148 17.9506L2.77148 6.44206ZM18.3902 4.62128L18.3902 4.9332L10.5857 4.9332C9.41266 4.9332 8.4329 5.21821 7.68726 5.75588L3.89488 1.96241C4.40365 1.60018 5.08877 1.41777 5.94296 1.41777L15.2187 1.41777C17.3105 1.41777 18.3902 2.51347 18.3902 4.62128Z" fill="white" fill-opacity="0.85"/>
  <path d="M21.8914 25.5558C21.3836 25.9117 20.704 26.0908 19.8615 26.0908L10.5857 26.0908C8.50019 26.0908 7.41425 24.9951 7.41425 22.8855L7.41425 11.0833ZM23.033 9.55799L23.033 21.106L8.71401 6.78292C9.20114 6.49676 9.82668 6.35273 10.5857 6.35273L19.8615 6.35273C21.9533 6.35273 23.033 7.44843 23.033 9.55799Z" fill="white" fill-opacity="0.85"/>
  <path d="M23.2756 25.2459C23.5791 25.5476 24.0832 25.5494 24.3752 25.2459C24.6769 24.9344 24.6787 24.4498 24.3752 24.1463L2.53515 2.29199C2.23339 1.99824 1.72929 1.99023 1.42578 2.29199C1.12578 2.59374 1.12578 3.0996 1.42578 3.3916Z" fill="white" fill-opacity="0.85"/>
 </g>
</svg>
