<?xml version="1.0" encoding="UTF-8"?>
<!--Generator: Apple Native CoreSVG 341-->
<!DOCTYPE svg
PUBLIC "-//W3C//DTD SVG 1.1//EN"
       "http://www.w3.org/Graphics/SVG/1.1/DTD/svg11.dtd">
<svg version="1.1" xmlns="http://www.w3.org/2000/svg" xmlns:xlink="http://www.w3.org/1999/xlink" viewBox="0 0 25.8997 23.53">
 <g>
  <rect height="23.53" opacity="0" width="25.8997" x="0" y="0"/>
  <path d="M3.02708 17.5566C3.02708 18.5054 3.52825 18.9755 4.43802 18.9755L6.26693 18.9755L6.26693 20.8888L4.31908 20.8888C2.21752 20.8888 1.11381 19.8091 1.11381 17.7173L1.11381 15.7019L3.02708 15.7019ZM11.9687 20.8888L7.69623 20.8888L7.69623 18.9755L11.9687 18.9755ZM17.6705 20.8888L13.3962 20.8888L13.3962 18.9755L17.6705 18.9755ZM24.2511 17.7173C24.2511 19.8091 23.1474 20.8888 21.0476 20.8888L19.09 20.8888L19.09 18.9755L20.9287 18.9755C21.8367 18.9755 22.3378 18.5054 22.3378 17.5566L22.3378 15.7019L24.2511 15.7019ZM3.02708 14.2744L1.11381 14.2744L1.11381 9.27338L3.02708 9.27338ZM24.2511 14.2744L22.3378 14.2744L22.3378 12.5652L24.2511 10.6519ZM6.26693 4.57396L4.43802 4.57396C3.52825 4.57396 3.02708 5.04232 3.02708 5.99115L3.02708 7.84585L1.11381 7.84585L1.11381 5.83217C1.11381 3.73862 2.21752 2.66069 4.31908 2.66069L6.26693 2.66069ZM11.9687 4.57396L7.69623 4.57396L7.69623 2.66069L11.9687 2.66069ZM15.2762 4.57396L13.3962 4.57396L13.3962 2.66069L17.1841 2.66069Z" fill="white" fill-opacity="0.85"/>
  <path d="M13.5859 13.7937C15.0855 15.2916 17.3699 15.3359 18.9413 13.7644L23.6203 9.08549C23.8617 8.83256 23.8537 8.42534 23.6087 8.19819C23.3558 7.96127 22.9974 7.96303 22.7445 8.21772L18.1046 12.8541C17.0115 13.9437 15.4892 13.9367 14.4812 12.9046C13.4607 11.8583 13.4261 10.3601 14.529 9.26518L20.4548 3.35365C21.1531 2.65541 22.1167 2.61752 22.7277 3.20717C23.3289 3.7933 23.2759 4.75248 22.5777 5.46674L16.7994 11.2708C16.5878 11.4904 16.3052 11.4824 16.115 11.2726C15.899 11.0628 15.9035 10.7917 16.1247 10.5705L20.1923 6.50287C20.447 6.24994 20.4408 5.89506 20.2136 5.65639C19.9785 5.42397 19.6263 5.42299 19.3716 5.68393L15.2783 9.77905C14.5912 10.4599 14.5964 11.5199 15.2294 12.1484C15.8988 12.8212 16.9054 12.8142 17.5988 12.1111L23.4197 6.30698C24.6369 5.08002 24.6173 3.47846 23.5191 2.36869C22.4369 1.28471 20.7749 1.26342 19.5871 2.46284L13.6249 8.43022C12.0517 10.0035 12.104 12.3119 13.5859 13.7937Z" fill="white" fill-opacity="0.85"/>
 </g>
</svg>
