<?xml version="1.0" encoding="UTF-8"?>
<!--Generator: Apple Native CoreSVG 341-->
<!DOCTYPE svg
PUBLIC "-//W3C//DTD SVG 1.1//EN"
       "http://www.w3.org/Graphics/SVG/1.1/DTD/svg11.dtd">
<svg version="1.1" xmlns="http://www.w3.org/2000/svg" xmlns:xlink="http://www.w3.org/1999/xlink" viewBox="0 0 14.9705 22.5586">
 <g>
  <rect height="22.5586" opacity="0" width="14.9705" x="0" y="0"/>
  <path d="M2.41054 22.5426L12.1889 22.5426C13.6324 22.5426 14.6092 21.5445 14.6092 20.0574L14.6092 2.48515C14.6092 0.998044 13.6324 0 12.1889 0L2.41054 0C0.974997 0 0 0.998044 0 2.48515L0 20.0574C0 21.5445 0.974997 22.5426 2.41054 22.5426ZM2.5537 20.6908C2.13339 20.6908 1.8535 20.4127 1.8535 19.9826L1.8535 2.56796C1.8535 2.13788 2.13339 1.85175 2.5537 1.85175L12.0748 1.85175C12.4766 1.85175 12.7557 2.13085 12.7557 2.54687L12.7557 20.0037C12.7557 20.4197 12.4766 20.6908 12.0748 20.6908ZM3.71561 6.26815C4.04198 6.26815 4.26717 6.03495 4.26717 5.70858L4.26717 3.52577C4.26717 3.1994 4.04198 2.96796 3.71561 2.96796C3.38925 2.96796 3.15604 3.1994 3.15604 3.52577L3.15604 5.70858C3.15604 6.03495 3.38925 6.26815 3.71561 6.26815ZM1.39413 9.02498L13.2723 9.02498L13.2723 7.66483L1.39413 7.66483ZM3.71561 13.2002C4.04198 13.2002 4.26717 12.9767 4.26717 12.6486L4.26717 10.4596C4.26717 10.1314 4.04198 9.90624 3.71561 9.90624C3.38925 9.90624 3.15604 10.1314 3.15604 10.4596L3.15604 12.6486C3.15604 12.9767 3.38925 13.2002 3.71561 13.2002ZM1.39413 19.2844L13.2723 19.2844L13.2723 17.926L1.39413 17.926Z" fill="white" fill-opacity="0.85"/>
 </g>
</svg>
