<?xml version="1.0" encoding="UTF-8"?>
<!--Generator: Apple Native CoreSVG 341-->
<!DOCTYPE svg
PUBLIC "-//W3C//DTD SVG 1.1//EN"
       "http://www.w3.org/Graphics/SVG/1.1/DTD/svg11.dtd">
<svg version="1.1" xmlns="http://www.w3.org/2000/svg" xmlns:xlink="http://www.w3.org/1999/xlink" viewBox="0 0 20.5381 20.1848">
 <g>
  <rect height="20.1848" opacity="0" width="20.5381" x="0" y="0"/>
  <path d="M20.1767 10.0875C20.1767 15.6478 15.6576 20.175 10.0875 20.175C4.52715 20.175 0 15.6478 0 10.0875C0 4.51914 4.52715 0 10.0875 0C15.6576 0 20.1767 4.51914 20.1767 10.0875ZM14.3109 10.6875L14.3109 11.1988C14.3109 12.0959 13.6928 12.6928 12.7451 12.6928L9.0041 12.6928L9.0041 11.5035C9.0041 11.1894 8.80273 10.9961 8.4789 10.9961C8.33164 10.9961 8.19238 11.0387 8.07968 11.1318L5.8955 12.9492C5.62578 13.1621 5.63554 13.5135 5.90527 13.7344L8.07968 15.5402C8.19238 15.6299 8.32988 15.6777 8.4789 15.6777C8.81074 15.6777 9.0041 15.4826 9.0041 15.1686L9.0041 13.9766L12.6297 13.9766C14.4416 13.9766 15.6045 12.9246 15.6045 11.2867L15.6045 10.6875C15.6045 10.3326 15.3135 10.0496 14.9586 10.0496C14.602 10.0496 14.3109 10.3326 14.3109 10.6875ZM8.94023 5.6205L8.94023 6.79472L6.55234 6.79472C4.75019 6.79472 3.58906 7.83867 3.58906 9.48281L3.58906 10.0838C3.58906 10.4387 3.87031 10.7314 4.22519 10.7314C4.58183 10.7314 4.87109 10.4404 4.87109 10.0838L4.87109 9.57246C4.87109 8.68339 5.48925 8.07851 6.43867 8.07851L8.94023 8.07851L8.94023 9.28554C8.94023 9.5996 9.1416 9.79296 9.46718 9.79296C9.61269 9.79296 9.75195 9.74238 9.86289 9.65722L12.0426 7.83984C12.3203 7.61093 12.3203 7.2791 12.0426 7.0582L9.86289 5.24081C9.75546 5.14941 9.61445 5.10507 9.46718 5.10507C9.1416 5.10507 8.94023 5.30644 8.94023 5.6205ZM14.001 5.49199L13.2303 6.07089C13.075 6.19335 13.0174 6.32812 13.0174 6.50292C13.0174 6.75839 13.2258 6.96327 13.499 6.96327C13.6135 6.96327 13.7297 6.9287 13.8344 6.84706L14.2754 6.49287L14.2754 8.39863C14.2754 8.81562 14.5451 9.08534 14.9603 9.08534C15.3641 9.08534 15.6258 8.81562 15.6258 8.39863L15.6258 5.96484C15.6258 5.48124 15.3055 5.16894 14.8414 5.16894C14.5264 5.16894 14.3027 5.25058 14.001 5.49199Z" fill="white" fill-opacity="0.85"/>
 </g>
</svg>
