<?xml version="1.0" encoding="UTF-8"?>
<!--Generator: Apple Native CoreSVG 341-->
<!DOCTYPE svg
PUBLIC "-//W3C//DTD SVG 1.1//EN"
       "http://www.w3.org/Graphics/SVG/1.1/DTD/svg11.dtd">
<svg version="1.1" xmlns="http://www.w3.org/2000/svg" xmlns:xlink="http://www.w3.org/1999/xlink" viewBox="0 0 21.8722 18.855">
 <g>
  <rect height="18.855" opacity="0" width="21.8722" x="0" y="0"/>
  <path d="M10.1363 0.982809L10.1363 7.39296C10.1363 7.85916 10.4102 8.13475 10.8809 8.13475C11.0935 8.13475 11.2967 8.05584 11.459 7.92459L15.2892 4.73085C15.643 4.433 15.6572 3.95527 15.2892 3.6414L11.459 0.441407C11.2967 0.311915 11.0935 0.23926 10.8809 0.23926C10.4102 0.23926 10.1363 0.506836 10.1363 0.982809ZM0.997844 9.78924C1.55975 9.78924 2.00018 9.34705 2.00018 8.78339L2.00018 7.91366C2.00018 6.22967 3.15252 5.13846 4.94823 5.13846L11.5736 5.13846C12.116 5.13846 12.5627 4.70155 12.5627 4.15917C12.5627 3.62304 12.116 3.17812 11.5736 3.17812L5.10096 3.17812C1.958 3.17812 0 4.91191 0 7.71913L0 8.78339C0 9.34705 0.442184 9.78924 0.997844 9.78924ZM8.97049 17.665L8.97049 11.2549C8.97049 10.7807 8.69667 10.5113 8.22597 10.5113C8.00527 10.5113 7.81015 10.584 7.6496 10.7152L3.81758 13.9072C3.46387 14.2148 3.44961 14.6926 3.81758 14.9984L7.6496 18.1967C7.81015 18.3279 8.00527 18.4086 8.22597 18.4086C8.69667 18.4086 8.97049 18.1312 8.97049 17.665ZM20.473 8.85858C19.9094 8.85858 19.4769 9.30077 19.4769 9.86444L19.4769 10.7342C19.4769 12.4181 18.3183 13.4996 16.5209 13.4996L7.53319 13.4996C6.99081 13.4996 6.54413 13.9463 6.54413 14.4806C6.54413 15.023 6.99081 15.4697 7.53319 15.4697L16.3682 15.4697C19.5191 15.4697 21.4691 13.7261 21.4691 10.9287L21.4691 9.86444C21.4691 9.30077 21.0349 8.85858 20.473 8.85858Z" fill="white" fill-opacity="0.85"/>
  <path d="M20.5004 6.83534C21.1236 6.83534 21.5109 6.46991 21.5109 5.80175L21.5109 1.21933C21.5109 0.485935 21.0127 0 20.3051 0C19.7357 0 19.3705 0.185351 18.9279 0.522459L17.6211 1.50976C17.351 1.71797 17.2695 1.89082 17.2695 2.13359C17.2695 2.49687 17.5398 2.75839 17.9291 2.75839C18.1045 2.75839 18.2553 2.71054 18.3998 2.59081L19.3849 1.80819L19.4773 1.80819L19.4773 5.80175C19.4773 6.46991 19.8726 6.83534 20.5004 6.83534Z" fill="white" fill-opacity="0.85"/>
 </g>
</svg>
