<?xml version="1.0" encoding="UTF-8"?>
<!--Generator: Apple Native CoreSVG 341-->
<!DOCTYPE svg
PUBLIC "-//W3C//DTD SVG 1.1//EN"
       "http://www.w3.org/Graphics/SVG/1.1/DTD/svg11.dtd">
<svg version="1.1" xmlns="http://www.w3.org/2000/svg" xmlns:xlink="http://www.w3.org/1999/xlink" viewBox="0 0 20.5381 20.1848">
 <g>
  <rect height="20.1848" opacity="0" width="20.5381" x="0" y="0"/>
  <path d="M20.1767 10.0875C20.1767 15.6478 15.6576 20.175 10.0875 20.175C4.52715 20.175 0 15.6478 0 10.0875C0 4.51914 4.52715 0 10.0875 0C15.6576 0 20.1767 4.51914 20.1767 10.0875ZM14.9439 10.416L14.9439 10.9646C14.9439 11.8697 14.3098 12.4586 13.3701 12.4586L9.49238 12.4586L9.49238 11.2631C9.49238 10.8984 9.26972 10.6758 8.90507 10.6758C8.76132 10.6758 8.58828 10.7264 8.47382 10.8293L6.208 12.7053C5.90546 12.9537 5.90722 13.3512 6.208 13.5996L8.47382 15.4916C8.58828 15.6043 8.76132 15.6566 8.90507 15.6566C9.26972 15.6566 9.49238 15.4277 9.49238 15.0613L9.49238 13.8809L13.2592 13.8809C15.1447 13.8809 16.3777 12.7605 16.3777 11.0365L16.3777 10.416C16.3777 10.0238 16.0619 9.70976 15.6662 9.70976C15.2562 9.70976 14.9439 10.0238 14.9439 10.416ZM10.6484 5.13945L10.6484 6.32793L6.88164 6.32793C4.99609 6.32793 3.76308 7.45 3.76308 9.16601L3.76308 9.79277C3.76308 10.1787 4.08691 10.499 4.4746 10.499C4.88632 10.499 5.19687 10.1787 5.19687 9.79277L5.19687 9.23789C5.19687 8.33906 5.83105 7.75019 6.7707 7.75019L10.6484 7.75019L10.6484 8.93769C10.6484 9.31035 10.8791 9.533 11.2357 9.533C11.3812 9.533 11.5525 9.48241 11.675 9.37949L13.9328 7.49726C14.2389 7.24706 14.2336 6.85937 13.9328 6.60917L11.675 4.71718C11.5525 4.60449 11.3812 4.55214 11.2357 4.55214C10.8791 4.55214 10.6484 4.78105 10.6484 5.13945Z" fill="white" fill-opacity="0.85"/>
 </g>
</svg>
