<?xml version="1.0" encoding="UTF-8"?>
<!--Generator: Apple Native CoreSVG 341-->
<!DOCTYPE svg
PUBLIC "-//W3C//DTD SVG 1.1//EN"
       "http://www.w3.org/Graphics/SVG/1.1/DTD/svg11.dtd">
<svg version="1.1" xmlns="http://www.w3.org/2000/svg" xmlns:xlink="http://www.w3.org/1999/xlink" viewBox="0 0 17.7994 17.0871">
 <g>
  <rect height="17.0871" opacity="0" width="17.7994" x="0" y="0"/>
  <path d="M13.9101 17.0871C14.6933 17.0871 15.248 16.4777 15.248 15.5139L15.248 1.58476C15.248 0.620896 14.6933 0.0195312 13.9101 0.0195312C13.4887 0.0195312 13.1365 0.164258 12.6851 0.420507L1.18515 7.08613C0.336716 7.57246 0 7.94472 0 8.54843C0 9.15213 0.336716 9.5244 1.18515 10.0205L12.6851 16.6781C13.1365 16.9326 13.4887 17.0871 13.9101 17.0871ZM13.1949 14.7104C13.1576 14.7104 13.1221 14.6908 13.0812 14.6713L2.68123 8.65233C2.63592 8.63104 2.59236 8.5955 2.59236 8.54843C2.59236 8.50136 2.63592 8.47382 2.68123 8.44628L13.0812 2.43182C13.1221 2.40428 13.1576 2.38474 13.1949 2.38474C13.2518 2.38474 13.2873 2.42381 13.2873 2.49842L13.2873 14.5967C13.2873 14.6713 13.2518 14.7104 13.1949 14.7104Z" fill="white" fill-opacity="0.85"/>
 </g>
</svg>
