<?xml version="1.0" encoding="UTF-8"?>
<!--Generator: Apple Native CoreSVG 341-->
<!DOCTYPE svg
PUBLIC "-//W3C//DTD SVG 1.1//EN"
       "http://www.w3.org/Graphics/SVG/1.1/DTD/svg11.dtd">
<svg version="1.1" xmlns="http://www.w3.org/2000/svg" xmlns:xlink="http://www.w3.org/1999/xlink" viewBox="0 0 21.5258 19.1371">
 <g>
  <rect height="19.1371" opacity="0" width="21.5258" x="0" y="0"/>
  <path d="M1.10839 11.6986C1.10839 12.201 1.51952 12.581 2.02186 12.6058L5.48338 12.7646L17.6887 12.7646C20.1258 12.7646 21.1644 11.6652 21.1644 9.26483L21.1644 3.47577C21.1644 1.03867 20.1258 0 17.6887 0L12.2691 0C11.6266 0 11.1818 0.478512 11.1818 1.06601C11.1818 1.6535 11.6266 2.13202 12.2691 2.13202L17.643 2.13202C18.6307 2.13202 19.0455 2.55487 19.0455 3.54257L19.0455 9.1998C19.0455 10.2098 18.6307 10.6344 17.643 10.6344L5.48338 10.6344L2.02186 10.7852C1.51952 10.81 1.10839 11.19 1.10839 11.6986ZM0 11.6986C0 11.9857 0.118749 12.2816 0.340428 12.4935L5.9543 18.0176C6.16074 18.2258 6.45859 18.3445 6.71816 18.3445C7.35449 18.3445 7.77011 17.9121 7.77011 17.3076C7.77011 16.9887 7.64706 16.7592 7.46015 16.566L4.94197 14.1172L2.50526 12.0556L2.50526 11.3353L4.94197 9.28183L7.46015 6.83474C7.64706 6.64158 7.77011 6.40408 7.77011 6.08514C7.77011 5.48866 7.35449 5.04823 6.71816 5.04823C6.45859 5.04823 6.16074 5.17499 5.9543 5.38319L0.340428 10.9037C0.118749 11.1174 0 11.4053 0 11.6986Z" fill="white" fill-opacity="0.85"/>
 </g>
</svg>
