<?xml version="1.0" encoding="UTF-8"?>
<!--Generator: Apple Native CoreSVG 341-->
<!DOCTYPE svg
PUBLIC "-//W3C//DTD SVG 1.1//EN"
       "http://www.w3.org/Graphics/SVG/1.1/DTD/svg11.dtd">
<svg version="1.1" xmlns="http://www.w3.org/2000/svg" xmlns:xlink="http://www.w3.org/1999/xlink" viewBox="0 0 17.107 21.1441">
 <g>
  <rect height="21.1441" opacity="0" width="17.107" x="0" y="0"/>
  <path d="M3.69569 9.13593C3.36288 9.13593 3.14472 8.93281 3.14472 8.59745C3.14472 8.51503 3.16776 8.36777 3.21835 8.24003L4.57656 4.43417C4.7371 3.97479 4.99784 3.75487 5.43241 3.75487C5.89276 3.75487 6.16503 3.97831 6.32557 4.43417L7.68202 8.24003C7.72811 8.37578 7.74765 8.51503 7.74765 8.59745C7.74765 8.92929 7.54628 9.13593 7.19315 9.13593C6.90234 9.13593 6.73105 8.97538 6.63261 8.62324L6.32323 7.76893L4.55936 7.76893L4.27303 8.62324C4.18163 8.98339 3.99276 9.13593 3.69569 9.13593ZM4.791 6.89511L6.10136 6.89511L5.47323 4.91112L5.41464 4.91112ZM9.81464 5.48124C9.43398 5.48124 9.16601 5.20175 9.16601 4.84062C9.16601 4.48925 9.43398 4.21152 9.81464 4.21152L13.0432 4.21152C13.4078 4.21152 13.6838 4.48925 13.6838 4.84062C13.6838 5.20175 13.4078 5.48124 13.0432 5.48124ZM9.81464 8.82616C9.43398 8.82616 9.16601 8.54667 9.16601 8.18378C9.16601 7.83242 9.43398 7.55468 9.81464 7.55468L13.0432 7.55468C13.4078 7.55468 13.6838 7.83242 13.6838 8.18378C13.6838 8.54667 13.4078 8.82616 13.0432 8.82616ZM3.0414 17.1207L3.0414 12.4359C3.0414 11.5836 3.52792 11.1459 4.35273 11.1459L12.4098 11.1459C13.2621 11.1459 13.7078 11.5836 13.7078 12.4359L13.7078 17.0178L12.6055 17.0178L10.684 14.7998C10.51 14.5982 10.2648 14.5219 10.0207 14.5219C9.7996 14.5219 9.56699 14.6062 9.34765 14.7998L7.36327 16.5631L6.56777 15.8359C6.38398 15.6717 6.17265 15.5953 5.97909 15.5953C5.78554 15.5953 5.59023 15.6637 5.41171 15.8359L4.1455 17.1207ZM6.64765 14.8016C7.21679 14.8016 7.69179 14.3186 7.69179 13.7557C7.69179 13.1768 7.21679 12.7311 6.64765 12.7133C6.06874 12.692 5.59648 13.1768 5.59999 13.7557C5.60175 14.3186 6.06874 14.8016 6.64765 14.8016ZM0 17.9406C0 20.0502 1.07968 21.1379 3.17148 21.1379L13.5742 21.1379C15.6678 21.1379 16.7457 20.0502 16.7457 17.9406L16.7457 3.20527C16.7457 1.10371 15.6678 0 13.5742 0L3.17148 0C1.07968 0 0 1.10371 0 3.20527Z" fill="white" fill-opacity="0.85"/>
 </g>
</svg>
