<?xml version="1.0" encoding="UTF-8"?>
<!--Generator: Apple Native CoreSVG 341-->
<!DOCTYPE svg
PUBLIC "-//W3C//DTD SVG 1.1//EN"
       "http://www.w3.org/Graphics/SVG/1.1/DTD/svg11.dtd">
<svg version="1.1" xmlns="http://www.w3.org/2000/svg" xmlns:xlink="http://www.w3.org/1999/xlink" viewBox="0 0 20.5381 20.1848">
 <g>
  <rect height="20.1848" opacity="0" width="20.5381" x="0" y="0"/>
  <path d="M20.1767 10.0875C20.1767 15.6478 15.6576 20.175 10.0875 20.175C4.52715 20.175 0 15.6478 0 10.0875C0 4.51914 4.52715 0 10.0875 0C15.6576 0 20.1767 4.51914 20.1767 10.0875ZM7.52324 5.41933C6.87305 5.41933 6.53106 5.84491 6.53106 6.52713L6.53106 13.6895C6.53106 14.3268 6.86348 14.7418 7.45742 14.7418C8.06386 14.7418 8.4078 14.341 8.4078 13.6895L8.4078 11.3898L10.0719 11.3898L11.7152 14.0939C12.0139 14.5725 12.2523 14.7418 12.6699 14.7418C13.1787 14.7418 13.5342 14.4094 13.5342 13.9307C13.5342 13.6797 13.4685 13.5006 13.3223 13.2744L11.901 11.0852C13.0721 10.7051 13.8197 9.66093 13.8197 8.40742C13.8197 6.55585 12.5051 5.41933 10.3779 5.41933ZM11.9098 8.45351C11.9098 9.44355 11.2104 10.0131 10.1154 10.0131L8.4078 10.0131L8.4078 6.84588L10.1475 6.84588C11.2014 6.84588 11.9098 7.43768 11.9098 8.45351Z" fill="white" fill-opacity="0.85"/>
 </g>
</svg>
