<?xml version="1.0" encoding="UTF-8"?>
<!--Generator: Apple Native CoreSVG 341-->
<!DOCTYPE svg
PUBLIC "-//W3C//DTD SVG 1.1//EN"
       "http://www.w3.org/Graphics/SVG/1.1/DTD/svg11.dtd">
<svg version="1.1" xmlns="http://www.w3.org/2000/svg" xmlns:xlink="http://www.w3.org/1999/xlink" viewBox="0 0 23.5768 17.8687">
 <g>
  <rect height="17.8687" opacity="0" width="23.5768" x="0" y="0"/>
  <path d="M23.2154 7.46757L23.2154 10.3949C23.2154 15.776 21.2053 17.8545 15.485 17.8545L7.73047 17.8545C2.01191 17.8545 0 15.776 0 10.3949L0 7.46757C0 2.08652 2.01191 0 7.73047 0L15.485 0C21.2053 0 23.2154 2.08652 23.2154 7.46757ZM15.9336 5.65819L14.6736 10.8748L14.6416 10.8748L13.3611 5.65819C13.2387 5.04784 12.8607 4.76991 12.2822 4.76991C11.584 4.76991 11.1723 5.17284 11.1723 5.86308L11.1723 12.3748C11.1723 12.8309 11.435 13.1184 11.867 13.1184C12.3008 13.1184 12.5715 12.8309 12.5715 12.3748L12.5715 7.17362L12.6283 7.17362L13.8971 12.2611C13.9947 12.6781 14.2361 12.9684 14.6629 12.9684C15.1031 12.9684 15.3258 12.6932 15.435 12.2514L16.6939 7.17362L16.757 7.17362L16.757 12.3748C16.757 12.8309 17.0037 13.1184 17.4437 13.1184C17.9096 13.1184 18.142 12.8309 18.142 12.3748L18.142 5.86308C18.142 5.16034 17.7232 4.76991 17.0463 4.76991C16.4234 4.76991 16.0588 5.05839 15.9336 5.65819ZM5.66621 4.89511C5.16054 4.89511 4.88105 5.20741 4.88105 5.72284L4.88105 12.2861C4.88105 12.7918 5.16855 13.1103 5.67421 13.1103C6.17187 13.1103 6.46562 12.798 6.46562 12.2861L6.46562 9.93671L7.30918 9.93671L8.27324 12.4557C8.42852 12.8769 8.67422 13.1103 9.09746 13.1103C9.46992 13.1103 9.8498 12.8764 9.84453 12.343C9.84277 12.21 9.77343 12.0172 9.68906 11.7934L8.79804 9.61288C9.57343 9.18769 9.89589 8.31054 9.89589 7.4287C9.89589 5.7705 8.9291 4.89511 7.34453 4.89511ZM8.29453 7.458C8.29453 8.20956 7.96484 8.79999 7.19101 8.79999L6.46562 8.79999L6.46562 6.14179L7.19277 6.14179C7.91504 6.14179 8.29453 6.71347 8.29453 7.458Z" fill="white" fill-opacity="0.85"/>
 </g>
</svg>
