<?xml version="1.0" encoding="UTF-8"?>
<!--Generator: Apple Native CoreSVG 341-->
<!DOCTYPE svg
PUBLIC "-//W3C//DTD SVG 1.1//EN"
       "http://www.w3.org/Graphics/SVG/1.1/DTD/svg11.dtd">
<svg version="1.1" xmlns="http://www.w3.org/2000/svg" xmlns:xlink="http://www.w3.org/1999/xlink" viewBox="0 0 25.2459 14.8496">
 <g>
  <rect height="14.8496" opacity="0" width="25.2459" x="0" y="0"/>
  <path d="M1.9163 14.8496C2.67548 14.8496 2.89189 14.4348 2.9788 13.9592C3.85419 9.11347 5.85985 5.16523 10.1638 0.784954C10.4659 0.469527 10.2249 0.021289 9.85107 0.021289L9.37646 0.021289C9.10771 0.021289 8.88955 0.0789058 8.5081 0.381444C5.02803 3.1291 1.41318 7.46836 0.0309566 13.8459C-0.0887695 14.3629 0.131932 14.8496 0.812984 14.8496ZM24.1382 14.8496C24.7659 14.8496 25.0194 14.3852 24.819 13.8353C23.2102 9.53574 22.8845 5.48984 23.9765 0.716987C24.0766 0.263084 23.7948 0.021289 23.4288 0.021289L23.0233 0.021289C22.6501 0.021289 22.4099 0.162108 22.2999 0.501755C20.8085 5.07011 20.8901 9.70585 22.0247 14.1943C22.1116 14.5748 22.3811 14.8496 22.9337 14.8496ZM15.1727 2.74491C15.5597 2.74491 15.7901 2.65702 15.9843 2.3121C16.1698 1.98886 16.4415 1.52363 16.9386 0.763862C17.185 0.392379 16.9368 0.0441396 16.5643 0.0441396L16.2696 0.0441396C15.9452 0.0441396 15.7776 0.0964832 15.594 0.2916C15.2452 0.646678 14.8005 1.19707 14.3603 1.85566C14.0827 2.27148 14.2751 2.74491 14.762 2.74491ZM13.3792 7.53007C13.8431 7.53007 14.0515 7.29511 14.1544 6.91718C14.252 6.46972 14.4296 5.83769 14.6444 5.19316C14.8263 4.69023 14.538 4.41914 14.1054 4.41914L13.4815 4.41914C13.0735 4.41914 12.8927 4.55566 12.7276 4.88926C12.5208 5.36777 12.2519 6.0539 12.0042 6.75332C11.8659 7.1789 12.0448 7.53007 12.5593 7.53007ZM12.4061 14.8285C12.886 14.8285 13.1618 14.5873 13.1636 14.0693C13.1929 12.6076 13.2923 11.1404 13.4175 10.1639C13.5009 9.53593 13.2474 9.34004 12.7444 9.34004L12.1304 9.34004C11.7489 9.34004 11.4634 9.5041 11.3517 9.93867C11.0694 11.0314 10.9017 12.7359 10.8696 14.0578C10.8616 14.5625 11.1126 14.8285 11.5977 14.8285Z" fill="white" fill-opacity="0.85"/>
 </g>
</svg>
