<?xml version="1.0" encoding="UTF-8"?>
<!--Generator: Apple Native CoreSVG 341-->
<!DOCTYPE svg
PUBLIC "-//W3C//DTD SVG 1.1//EN"
       "http://www.w3.org/Graphics/SVG/1.1/DTD/svg11.dtd">
<svg version="1.1" xmlns="http://www.w3.org/2000/svg" xmlns:xlink="http://www.w3.org/1999/xlink" viewBox="0 0 29.2761 14.9726">
 <g>
  <rect height="14.9726" opacity="0" width="29.2761" x="0" y="0"/>
  <path d="M0.906422 14.9726L2.19529 14.9726C2.83747 14.9726 3.1656 14.6525 3.34567 14.1992C5.1486 9.72343 6.96755 5.23788 8.77849 0.762104C8.93981 0.373044 8.74138 0.021289 8.32927 0.021289L7.67693 0.021289C7.30349 0.021289 7.04646 0.203124 6.87537 0.540037C4.62146 4.93593 2.38357 9.33007 0.129668 13.734C-0.178924 14.3023 0.0568161 14.9726 0.906422 14.9726ZM26.7195 14.9726L28.0146 14.9726C28.858 14.9726 29.0919 14.3023 28.7851 13.734C26.5472 9.33007 24.2933 4.93418 22.0474 0.538279C21.8683 0.201367 21.6095 0.021289 21.2378 0.021289L20.5855 0.021289C20.1734 0.021289 19.983 0.373044 20.1363 0.762104C21.9472 5.23788 23.7662 9.72343 25.5691 14.1992C25.7492 14.6525 26.0773 14.9726 26.7195 14.9726ZM14.224 2.8789L14.6695 2.8789C15.1296 2.8789 15.4879 2.53046 15.4879 2.0623C15.4879 1.65566 15.4879 1.23925 15.4879 0.834371C15.4879 0.364451 15.1296 0.0160158 14.6695 0.0160158L14.224 0.0160158C13.7656 0.0160158 13.4074 0.364451 13.4074 0.834371C13.4074 1.23925 13.4074 1.65566 13.4074 2.0623C13.4074 2.53046 13.7656 2.8789 14.224 2.8789ZM14.224 8.51561L14.6695 8.51561C15.1296 8.51561 15.4879 8.17694 15.4879 7.70702C15.4879 7.02695 15.4879 6.33085 15.4879 5.65077C15.4879 5.18085 15.1296 4.84218 14.6695 4.84218L14.224 4.84218C13.7656 4.84218 13.4074 5.18085 13.4074 5.65077C13.4074 6.33085 13.4074 7.02695 13.4074 7.70702C13.4074 8.17694 13.7656 8.51561 14.224 8.51561ZM14.224 14.9726L14.6695 14.9726C15.1296 14.9726 15.4879 14.6242 15.4879 14.156C15.4879 13.2266 15.4879 12.2891 15.4879 11.3533C15.4879 10.8834 15.1296 10.543 14.6695 10.543L14.224 10.543C13.7656 10.543 13.4074 10.8834 13.4074 11.3533C13.4074 12.2891 13.4074 13.2266 13.4074 14.156C13.4074 14.6242 13.7656 14.9726 14.224 14.9726Z" fill="white" fill-opacity="0.85"/>
 </g>
</svg>
