<?xml version="1.0" encoding="UTF-8"?>
<!--Generator: Apple Native CoreSVG 341-->
<!DOCTYPE svg
PUBLIC "-//W3C//DTD SVG 1.1//EN"
       "http://www.w3.org/Graphics/SVG/1.1/DTD/svg11.dtd">
<svg version="1.1" xmlns="http://www.w3.org/2000/svg" xmlns:xlink="http://www.w3.org/1999/xlink" viewBox="0 0 22.8123 14.1503">
 <g>
  <rect height="14.1503" opacity="0" width="22.8123" x="0" y="0"/>
  <path d="M11.2264 8.27772C16.4264 8.27772 22.3045 6.36522 22.3045 4.0873C22.3045 1.83066 17.349 0 11.2264 0C5.10195 0 0.146484 1.83066 0.146484 4.0873C0.146484 6.36522 6.03261 8.27772 11.2264 8.27772ZM4.14159 13.3449C4.41737 13.4398 4.59296 13.3006 4.59296 13.023L4.59296 12.0988C4.59296 11.6334 4.95663 11.3912 5.39374 11.5144C7.24277 12.0351 9.52832 12.2303 11.2824 12.2303C13.0543 12.2303 15.3318 12.0351 17.1809 11.5144C17.618 11.3912 17.9816 11.6334 17.9816 12.0988L17.9816 12.9812C17.9816 13.2668 18.1572 13.398 18.433 13.3049C20.8812 12.4732 22.451 11.1695 22.451 9.53123L22.451 6.20858C20.8099 7.9951 16.3633 9.48436 11.2264 9.48436C6.16953 9.48436 1.64101 7.9951 0 6.20858L0 9.53123C0 11.2015 1.61953 12.5133 4.14159 13.3449ZM11.2264 4.21093C9.19745 4.21093 8.05527 3.66523 8.05527 2.87968C8.05527 2.10839 9.17343 1.54043 11.2264 1.54043C13.2838 1.54043 14.4055 2.11015 14.4055 2.87968C14.4055 3.66523 13.2598 4.21093 11.2264 4.21093ZM11.2264 3.36113C12.4693 3.36113 13.1191 3.14531 13.1191 2.87617C13.1191 2.61054 12.5014 2.36894 11.2264 2.36894C9.94784 2.36894 9.32206 2.61054 9.32206 2.87617C9.32206 3.14531 9.97987 3.36113 11.2264 3.36113ZM7.62187 6.3789C7.02207 6.3789 6.5252 6.14198 6.5252 5.84569C6.5252 5.55019 7.02207 5.30976 7.62187 5.30976C8.22519 5.30976 8.72382 5.55019 8.72382 5.84569C8.72382 6.14198 8.22519 6.3789 7.62187 6.3789ZM11.2264 6.77929C10.6328 6.77929 10.1359 6.54062 10.1359 6.24335C10.1359 5.94882 10.6328 5.69238 11.2264 5.69238C11.8262 5.69238 12.323 5.94882 12.323 6.24335C12.323 6.54062 11.8262 6.77929 11.2264 6.77929ZM14.8389 6.3789C14.2355 6.3789 13.7387 6.14198 13.7387 5.84569C13.7387 5.55019 14.2355 5.30976 14.8389 5.30976C15.4369 5.30976 15.9355 5.55019 15.9355 5.84569C15.9355 6.14198 15.4369 6.3789 14.8389 6.3789Z" fill="white" fill-opacity="0.85"/>
 </g>
</svg>
