<?xml version="1.0" encoding="UTF-8"?>
<!--Generator: Apple Native CoreSVG 341-->
<!DOCTYPE svg
PUBLIC "-//W3C//DTD SVG 1.1//EN"
       "http://www.w3.org/Graphics/SVG/1.1/DTD/svg11.dtd">
<svg version="1.1" xmlns="http://www.w3.org/2000/svg" xmlns:xlink="http://www.w3.org/1999/xlink" viewBox="0 0 22.8123 20.9226">
 <g>
  <rect height="20.9226" opacity="0" width="22.8123" x="0" y="0"/>
  <path d="M17.8045 20.9226C18.784 20.9226 19.5754 20.1295 19.5754 19.1437C19.5754 18.166 18.784 17.3728 17.8045 17.3728C16.8187 17.3728 16.0273 18.166 16.0273 19.1437C16.0273 20.1295 16.8187 20.9226 17.8045 20.9226Z" fill="white" fill-opacity="0.85"/>
  <path d="M11.2264 20.9226C12.2121 20.9226 13.0035 20.1295 13.0035 19.1437C13.0035 18.166 12.2121 17.3728 11.2264 17.3728C10.2469 17.3728 9.45546 18.166 9.45546 19.1437C9.45546 20.1295 10.2469 20.9226 11.2264 20.9226Z" fill="white" fill-opacity="0.85"/>
  <path d="M4.65448 20.9226C5.64999 20.9226 6.44139 20.1295 6.44139 19.1437C6.44139 18.166 5.64999 17.3728 4.65448 17.3728C3.67675 17.3728 2.88535 18.166 2.88535 19.1437C2.88535 20.1295 3.67675 20.9226 4.65448 20.9226Z" fill="white" fill-opacity="0.85"/>
  <path d="M11.2264 9.12323C16.4264 9.12323 22.3045 7.21073 22.3045 4.93281C22.3045 2.68418 17.349 0.853517 11.2264 0.853517C5.10195 0.853517 0.146484 2.68418 0.146484 4.93281C0.146484 7.21073 6.03261 9.12323 11.2264 9.12323ZM4.14159 14.1984C4.41737 14.2853 4.59296 14.1461 4.59296 13.8668L4.59296 12.9523C4.59296 12.4771 4.95663 12.2447 5.39374 12.368C7.24277 12.8869 9.52832 13.0758 11.2824 13.0758C13.0543 13.0758 15.3318 12.8869 17.1809 12.368C17.618 12.2447 17.9816 12.4771 17.9816 12.9523L17.9816 13.8267C17.9816 14.1123 18.1572 14.2435 18.433 14.1584C20.8812 13.3267 22.451 12.0133 22.451 10.375L22.451 7.05409C20.8099 8.84862 16.3633 10.3379 11.2264 10.3379C6.16953 10.3379 1.64101 8.84862 0 7.05409L0 10.375C0 12.0471 1.61953 13.3668 4.14159 14.1984ZM11.2264 5.05644C9.19745 5.05644 8.05527 4.51074 8.05527 3.72343C8.05527 2.9539 9.17343 2.39394 11.2264 2.39394C13.2838 2.39394 14.4055 2.95566 14.4055 3.72343C14.4055 4.51074 13.2598 5.05644 11.2264 5.05644ZM11.2264 4.21289C12.4693 4.21289 13.1191 3.99082 13.1191 3.72168C13.1191 3.45429 12.5014 3.22246 11.2264 3.22246C9.94784 3.22246 9.32206 3.45429 9.32206 3.72168C9.32206 3.99082 9.97987 4.21289 11.2264 4.21289ZM7.62187 7.23241C7.02207 7.23241 6.5252 6.9955 6.5252 6.6912C6.5252 6.4037 7.02207 6.16152 7.62187 6.16152C8.22519 6.16152 8.72382 6.4037 8.72382 6.6912C8.72382 6.9955 8.22519 7.23241 7.62187 7.23241ZM11.2264 7.6328C10.6328 7.6328 10.1359 7.38612 10.1359 7.09511C10.1359 6.79257 10.6328 6.54589 11.2264 6.54589C11.8262 6.54589 12.323 6.79257 12.323 7.09511C12.323 7.38612 11.8262 7.6328 11.2264 7.6328ZM14.8389 7.23241C14.2355 7.23241 13.7387 6.9955 13.7387 6.6912C13.7387 6.4037 14.2355 6.16152 14.8389 6.16152C15.4369 6.16152 15.9355 6.4037 15.9355 6.6912C15.9355 6.9955 15.4369 7.23241 14.8389 7.23241Z" fill="white" fill-opacity="0.85"/>
 </g>
</svg>
