<?xml version="1.0" encoding="UTF-8"?>
<!--Generator: Apple Native CoreSVG 341-->
<!DOCTYPE svg
PUBLIC "-//W3C//DTD SVG 1.1//EN"
       "http://www.w3.org/Graphics/SVG/1.1/DTD/svg11.dtd">
<svg version="1.1" xmlns="http://www.w3.org/2000/svg" xmlns:xlink="http://www.w3.org/1999/xlink" viewBox="0 0 22.2664 20.3148">
 <g>
  <rect height="20.3148" opacity="0" width="22.2664" x="0" y="0"/>
  <path d="M1.24062 5.45859C1.24062 5.83827 1.56269 6.17011 1.95039 6.17011C2.34785 6.17011 2.66992 5.83827 2.66992 5.45859C2.66992 5.06288 2.3496 4.73906 1.95039 4.73906C1.56093 4.73906 1.24062 5.06288 1.24062 5.45859ZM1.24062 7.71835C1.24062 8.09628 1.56269 8.42811 1.95039 8.42811C2.34785 8.42811 2.66992 8.09628 2.66992 7.71835C2.66992 7.32089 2.3496 7.00058 1.95039 7.00058C1.56093 7.00058 1.24062 7.32089 1.24062 7.71835ZM1.12519 12.3305C1.12519 12.7865 1.50234 13.1654 1.95039 13.1654C2.4082 13.1654 2.78535 12.7865 2.78535 12.3305L2.78535 10.0953C2.78535 9.63925 2.4082 9.25858 1.95039 9.25858C1.49433 9.25858 1.12519 9.63925 1.12519 10.0953Z" fill="white" fill-opacity="0.85"/>
  <path d="M0 1.95293C0 3.03281 0.874022 3.90683 1.95039 3.90683C3.02851 3.90683 3.90253 3.03281 3.90253 1.95293C3.90253 0.874802 3.02851 0.00253856 1.95039 0.00253856C0.874022 0.00253856 0 0.874802 0 1.95293ZM7.05702 20.3148L19.9529 20.3148C21.023 20.3148 21.9051 19.4408 21.9051 18.3644L21.9051 1.95293C21.9051 0.874802 21.023 0.00253856 19.9529 0.00253856L4.42694 0.00253856C4.88222 0.486912 5.10487 1.11679 5.10487 1.95293L5.10487 18.3644C5.10487 19.4408 5.97889 20.3148 7.05702 20.3148Z" fill="white" fill-opacity="0.85"/>
 </g>
</svg>
