<?xml version="1.0" encoding="UTF-8"?>
<!--Generator: Apple Native CoreSVG 341-->
<!DOCTYPE svg
PUBLIC "-//W3C//DTD SVG 1.1//EN"
       "http://www.w3.org/Graphics/SVG/1.1/DTD/svg11.dtd">
<svg version="1.1" xmlns="http://www.w3.org/2000/svg" xmlns:xlink="http://www.w3.org/1999/xlink" viewBox="0 0 16.3492 22.1742">
 <g>
  <rect height="22.1742" opacity="0" width="16.3492" x="0" y="0"/>
  <path d="M0 8.02948C0 10.4299 1.06308 12.589 2.74023 14.0553L2.74999 21.185C2.74999 21.8578 3.13359 22.1564 3.62011 22.1564C3.99881 22.1564 4.27733 21.9594 4.57088 21.6676L7.6621 18.5959C7.81679 18.4492 7.9287 18.3924 8.04061 18.3924C8.15604 18.3924 8.27245 18.4492 8.42089 18.5959L11.5156 21.6676C11.8154 21.9639 12.1019 22.1564 12.4664 22.1564C12.9654 22.1564 13.341 21.8578 13.341 21.185L13.341 13.9644C14.9582 12.5045 15.9799 10.3832 15.9879 8.02948C15.9959 3.59023 12.3994 0 7.99394 0C3.58047 0 0 3.59023 0 8.02948ZM1.93983 8.02948C1.93807 4.6285 4.59569 1.90604 8.00194 1.90604C11.4002 1.90604 14.0578 4.6285 14.0658 8.02948C14.0756 11.4092 11.4002 14.1414 8.00194 14.1334C4.59569 14.1254 1.93807 11.4092 1.93983 8.02948Z" fill="white" fill-opacity="0.85"/>
 </g>
</svg>
