<?xml version="1.0" encoding="UTF-8"?>
<!--Generator: Apple Native CoreSVG 341-->
<!DOCTYPE svg
PUBLIC "-//W3C//DTD SVG 1.1//EN"
       "http://www.w3.org/Graphics/SVG/1.1/DTD/svg11.dtd">
<svg version="1.1" xmlns="http://www.w3.org/2000/svg" xmlns:xlink="http://www.w3.org/1999/xlink" viewBox="0 0 20.5381 20.1848">
 <g>
  <rect height="20.1848" opacity="0" width="20.5381" x="0" y="0"/>
  <path d="M20.1767 10.0973C20.1767 15.6656 15.6576 20.1848 10.0875 20.1848C4.52715 20.1848 0 15.6656 0 10.0973C0 4.53691 4.52715 0.00976562 10.0875 0.00976562C15.6576 0.00976562 20.1767 4.53691 20.1767 10.0973ZM10.0875 12.3285C9.70468 12.3285 9.32988 12.3205 8.97284 12.301C9.13085 14.4805 9.55722 15.8615 10.0875 15.8615C12.8049 15.8615 15.0969 13.9394 15.7029 11.4021C14.5348 11.975 12.535 12.3285 10.0875 12.3285ZM8.77637 15.7127C8.3873 14.9162 8.08613 13.7082 7.94316 12.2336C6.47656 12.0906 5.27831 11.7975 4.47382 11.4021C4.97265 13.5252 6.65956 15.2156 8.77637 15.7127ZM8.89921 10.099C8.89921 10.5049 8.90722 10.8894 8.91874 11.2678C9.2873 11.2775 9.68339 11.2855 10.0875 11.2855C13.4953 11.2855 15.842 10.7775 15.85 10.099C15.85 6.94257 13.2359 4.33827 10.0795 4.33827C9.39745 4.34628 8.89921 6.69296 8.89921 10.099ZM4.32675 10.099C4.32675 10.6293 5.69628 11.0477 7.87578 11.2119C7.85801 10.8486 7.85 10.4818 7.85 10.099C7.85 7.65683 8.20176 5.66151 8.77461 4.48534C6.24882 5.0914 4.33476 7.3914 4.32675 10.099Z" fill="white" fill-opacity="0.85"/>
 </g>
</svg>
