<?xml version="1.0" encoding="UTF-8"?>
<!--Generator: Apple Native CoreSVG 341-->
<!DOCTYPE svg
PUBLIC "-//W3C//DTD SVG 1.1//EN"
       "http://www.w3.org/Graphics/SVG/1.1/DTD/svg11.dtd">
<svg version="1.1" xmlns="http://www.w3.org/2000/svg" xmlns:xlink="http://www.w3.org/1999/xlink" viewBox="0 0 20.5381 20.1848">
 <g>
  <rect height="20.1848" opacity="0" width="20.5381" x="0" y="0"/>
  <path d="M10.0875 20.175C15.6576 20.175 20.1767 15.6559 20.1767 10.0875C20.1767 4.51914 15.6576 0 10.0875 0C4.51914 0 0 4.51914 0 10.0875C0 15.6559 4.51914 20.175 10.0875 20.175ZM10.0875 18.1879C5.60839 18.1879 1.9871 14.5666 1.9871 10.0875C1.9871 5.60839 5.60839 1.9871 10.0875 1.9871C14.5666 1.9871 18.1897 5.60839 18.1897 10.0875C18.1897 14.5666 14.5666 18.1879 10.0875 18.1879Z" fill="white" fill-opacity="0.85"/>
  <path d="M7.96347 11.1676C7.9457 10.8141 7.93769 10.4525 7.93769 10.0893C7.93769 7.73749 8.27968 5.80507 8.83125 4.68651C6.39589 5.258 4.54745 7.47558 4.53944 10.0812C4.53944 10.5902 5.86464 10.9953 7.96347 11.1676ZM8.95507 11.2199C9.3121 11.2217 9.69492 11.2377 10.0875 11.2377C13.3668 11.2377 15.6275 10.7385 15.6355 10.0893C15.6355 7.05155 13.1172 4.5412 10.0795 4.5412C9.42226 4.54921 8.9373 6.81171 8.9373 10.0893C8.9373 10.4818 8.94531 10.8469 8.95507 11.2199ZM8.03261 12.1361C6.61034 12.0029 5.45468 11.7115 4.68475 11.3375C5.15878 13.3852 6.79159 15.018 8.83301 15.492C8.45547 14.7221 8.16406 13.5566 8.03261 12.1361ZM9.00917 12.2035C9.16366 14.3023 9.57851 15.6373 10.0875 15.6373C12.7029 15.6293 14.9125 13.7809 15.4902 11.3375C14.3734 11.8873 12.4428 12.2293 10.0875 12.2293C9.71796 12.2293 9.35468 12.2213 9.00917 12.2035Z" fill="white" fill-opacity="0.85"/>
 </g>
</svg>
