<?xml version="1.0" encoding="UTF-8"?>
<!--Generator: Apple Native CoreSVG 341-->
<!DOCTYPE svg
PUBLIC "-//W3C//DTD SVG 1.1//EN"
       "http://www.w3.org/Graphics/SVG/1.1/DTD/svg11.dtd">
<svg version="1.1" xmlns="http://www.w3.org/2000/svg" xmlns:xlink="http://www.w3.org/1999/xlink" viewBox="0 0 24.4002 25.3075">
 <g>
  <rect height="25.3075" opacity="0" width="24.4002" x="0" y="0"/>
  <path d="M7.19023 21.8926L16.8504 21.8926C18.6205 21.8926 19.5447 21.0084 19.5447 19.2063L19.5447 9.56215C19.5447 7.75825 18.6205 6.86782 16.8504 6.86782L7.19023 6.86782C5.42011 6.86782 4.4959 7.75825 4.4959 9.56215L4.4959 19.2063C4.4959 21.0084 5.42011 21.8926 7.19023 21.8926ZM7.30214 20.0198C6.66268 20.0198 6.36874 19.7586 6.36874 19.0944L6.36874 9.6643C6.36874 9.00004 6.66268 8.74066 7.30214 8.74066L16.7402 8.74066C17.3877 8.74066 17.6719 9.00004 17.6719 9.6643L17.6719 19.0944C17.6719 19.7586 17.3877 20.0198 16.7402 20.0198Z" fill="white" fill-opacity="0.85"/>
  <path d="M19.2705 4.52642L19.2705 0.740876C19.2705-0.0151778 18.6727-0.204044 18.1012 0.227205L15.5418 2.12701C15.1299 2.43501 15.1184 2.83052 15.5418 3.13853L18.1012 5.02856C18.6709 5.45005 19.2705 5.25942 19.2705 4.52642ZM18.1959 1.96431C17.8342 1.96431 17.5381 2.25865 17.5381 2.61236C17.5381 2.97583 17.8342 3.27817 18.1959 3.27817L19.5836 3.27817C21.6535 3.27817 22.9949 4.73774 22.9949 6.79673L22.9949 8.34067C22.9949 8.72543 23.3105 9.04106 23.6953 9.04106C24.0783 9.04106 24.4002 8.72543 24.4002 8.34067L24.4002 6.79673C24.4002 3.92466 22.4383 1.96431 19.581 1.96431Z" fill="white" fill-opacity="0.85"/>
 </g>
</svg>
