<?xml version="1.0" encoding="UTF-8"?>
<!--Generator: Apple Native CoreSVG 341-->
<!DOCTYPE svg
PUBLIC "-//W3C//DTD SVG 1.1//EN"
       "http://www.w3.org/Graphics/SVG/1.1/DTD/svg11.dtd">
<svg version="1.1" xmlns="http://www.w3.org/2000/svg" xmlns:xlink="http://www.w3.org/1999/xlink" viewBox="0 0 25.9582 17.8977">
 <g>
  <rect height="17.8977" opacity="0" width="25.9582" x="0" y="0"/>
  <path d="M22.5072 0.732858C24.3793 0.732858 25.5969 1.97446 25.5969 3.85453L25.5969 10.0414C25.5969 12.6481 24.4601 14.2711 21.7824 15.0637L13.3412 17.5264C11.0264 18.2063 9.51601 17.9338 7.45058 16.8625L1.97539 14.0385C0.378709 13.2114 0 12.1928 0 10.0414L0 3.83051C0 1.95844 1.23535 0.72485 3.10566 0.72485ZM10.6541 6.4848C10.6541 7.70023 11.3654 8.35179 12.3395 8.74945L12.8695 8.9598C13.4912 9.20746 13.9672 9.50238 13.9672 10.1889C13.9672 10.7584 13.6152 11.1715 13.0297 11.1715C12.4476 11.1715 12.1055 10.7709 11.9971 10.2918C11.9031 9.92992 11.6299 9.77816 11.2963 9.77816C10.9023 9.77816 10.6371 10.0674 10.6371 10.4516C10.6371 10.6432 10.6557 10.7317 10.7133 10.9047C11.015 11.8914 11.9207 12.4012 13.0137 12.4012C14.5352 12.4012 15.4629 11.534 15.4629 10.0514C15.4629 8.80414 14.8264 8.22172 13.7305 7.78402L13.1906 7.58168C12.5832 7.33402 12.148 7.02133 12.148 6.36507C12.148 5.82308 12.4557 5.43577 12.9816 5.43577C13.5414 5.43577 13.8223 5.83382 13.9377 6.31175C14.0389 6.66312 14.2838 6.80062 14.6314 6.80062C15.043 6.79535 15.2791 6.52836 15.2791 6.16449C15.2791 6.07758 15.2721 5.97035 15.233 5.78558C14.9242 4.74613 14.0383 4.20433 12.9834 4.20433C11.642 4.20433 10.6541 5.05668 10.6541 6.4848ZM5.49726 4.40668C4.9996 4.40668 4.72988 4.70121 4.72988 5.19886L4.72988 11.5407C4.72988 12.0303 4.9996 12.3524 5.50527 12.3524C5.97714 12.3524 6.26288 12.0366 6.26288 11.5407L6.26288 9.28109L7.08066 9.28109L8.01621 11.712C8.16172 12.1252 8.39941 12.3524 8.81289 12.3524C9.1791 12.3524 9.5332 12.1229 9.52792 11.6073C9.52617 11.4743 9.47285 11.2895 9.3787 11.0719L8.51523 8.96527C9.26484 8.55609 9.58105 7.70472 9.58105 6.84691C9.58105 5.24652 8.63827 4.40668 7.10976 4.40668ZM17.3857 4.39691C16.8828 4.39691 16.6264 4.75003 16.6264 5.20335L16.6264 11.4315C16.6264 11.9106 16.8908 12.2317 17.3857 12.2317L19.4453 12.2317C20.8019 12.2317 21.5816 11.3041 21.5816 10.0078C21.5816 9.05883 20.9967 8.19945 20.0945 8.11058L20.0945 8.06351C20.8437 7.93832 21.3471 7.12855 21.3471 6.35629C21.3471 5.11957 20.5346 4.39691 19.3894 4.39691ZM20.0521 9.87836C20.0521 10.6157 19.6967 11.0907 18.9576 11.0907L18.1371 11.0907L18.1371 8.69359L18.9301 8.69359C19.6016 8.69359 20.0521 9.085 20.0521 9.87836ZM8.02949 6.88597C8.02949 7.61176 7.70781 8.18617 6.97402 8.18617L6.26288 8.18617L6.26288 5.6098L6.97578 5.6098C7.67226 5.6098 8.02949 6.15921 8.02949 6.88597ZM19.893 6.59398C19.893 7.27347 19.518 7.69711 18.8385 7.69711L18.1371 7.69711L18.1371 5.54417L18.9389 5.54417C19.6246 5.54417 19.893 5.99007 19.893 6.59398Z" fill="white" fill-opacity="0.85"/>
 </g>
</svg>
