<?xml version="1.0" encoding="UTF-8"?>
<!--Generator: Apple Native CoreSVG 341-->
<!DOCTYPE svg
PUBLIC "-//W3C//DTD SVG 1.1//EN"
       "http://www.w3.org/Graphics/SVG/1.1/DTD/svg11.dtd">
<svg version="1.1" xmlns="http://www.w3.org/2000/svg" xmlns:xlink="http://www.w3.org/1999/xlink" viewBox="0 0 20.5381 20.1848">
 <g>
  <rect height="20.1848" opacity="0" width="20.5381" x="0" y="0"/>
  <path d="M10.0875 20.175C15.6576 20.175 20.1767 15.6559 20.1767 10.0875C20.1767 4.51914 15.6576 0 10.0875 0C4.51914 0 0 4.51914 0 10.0875C0 15.6559 4.51914 20.175 10.0875 20.175ZM10.0875 18.1879C5.60839 18.1879 1.9871 14.5666 1.9871 10.0875C1.9871 5.60839 5.60839 1.9871 10.0875 1.9871C14.5666 1.9871 18.1897 5.60839 18.1897 10.0875C18.1897 14.5666 14.5666 18.1879 10.0875 18.1879Z" fill="white" fill-opacity="0.85"/>
  <path d="M5.74355 14.1133C6.21464 14.1133 6.48886 13.8125 6.48886 13.3254L6.48886 11.0549L7.31113 11.0549L8.2459 13.4852C8.3959 13.8896 8.63007 14.1133 9.03828 14.1133C9.3957 14.1133 9.74628 13.8908 9.74101 13.3742C9.73925 13.251 9.68593 13.0697 9.59355 12.8539L8.72909 10.7443C9.47968 10.3324 9.79863 9.4916 9.79863 8.64257C9.79863 7.04726 8.86191 6.2082 7.33847 6.2082L5.73554 6.2082C5.23866 6.2082 4.97245 6.50722 4.97245 6.99784L4.97245 13.3254C4.97245 13.8062 5.24667 14.1133 5.74355 14.1133ZM6.48886 9.96777L6.48886 7.39374L7.20449 7.39374C7.8957 7.39374 8.26543 7.95038 8.26543 8.67363C8.26543 9.39414 7.9375 9.96777 7.20273 9.96777ZM13.0514 14.1035C13.4648 14.1035 13.8047 13.7717 13.8047 13.3467L13.8047 7.44335L14.8844 7.44335C15.2225 7.44335 15.5002 7.16386 15.5002 6.81601C15.5002 6.47968 15.2225 6.20019 14.8844 6.20019L11.1846 6.20019C10.8367 6.20019 10.559 6.47968 10.559 6.81601C10.559 7.16386 10.8367 7.44335 11.1846 7.44335L12.2963 7.44335L12.2963 13.3467C12.2963 13.7717 12.6361 14.1035 13.0514 14.1035Z" fill="white" fill-opacity="0.85"/>
 </g>
</svg>
