<?xml version="1.0" encoding="UTF-8"?>
<!--Generator: Apple Native CoreSVG 341-->
<!DOCTYPE svg
PUBLIC "-//W3C//DTD SVG 1.1//EN"
       "http://www.w3.org/Graphics/SVG/1.1/DTD/svg11.dtd">
<svg version="1.1" xmlns="http://www.w3.org/2000/svg" xmlns:xlink="http://www.w3.org/1999/xlink" viewBox="0 0 20.5381 20.1848">
 <g>
  <rect height="20.1848" opacity="0" width="20.5381" x="0" y="0"/>
  <path d="M20.1767 10.0875C20.1767 15.6478 15.6576 20.175 10.0875 20.175C4.52715 20.175 0 15.6478 0 10.0875C0 4.51914 4.52715 0 10.0875 0C15.6576 0 20.1767 4.51914 20.1767 10.0875ZM5.79003 6.25644C5.29765 6.25644 5.02968 6.54745 5.02968 7.04159L5.02968 13.2719C5.02968 13.7562 5.30566 14.065 5.79804 14.065C6.26288 14.065 6.53886 13.7607 6.53886 13.2719L6.53886 11.0441L7.3371 11.0441L8.26738 13.4414C8.41113 13.8396 8.6373 14.065 9.04726 14.065C9.40019 14.065 9.75078 13.8311 9.74726 13.3305C9.7455 13.2055 9.69218 13.0242 9.60781 12.8084L8.75585 10.7381C9.49218 10.3324 9.80663 9.5041 9.80663 8.66132C9.80663 7.083 8.87265 6.25644 7.3662 6.25644ZM11.1721 6.24843C10.8305 6.24843 10.5527 6.51991 10.5527 6.85976C10.5527 7.20136 10.8305 7.48085 11.1721 7.48085L12.2695 7.48085L12.2695 13.2949C12.2695 13.7199 12.6049 14.0535 13.0139 14.0535C13.4309 14.0535 13.7644 13.7199 13.7644 13.2949L13.7644 7.48085L14.8299 7.48085C15.1617 7.48085 15.4332 7.20136 15.4332 6.85976C15.4332 6.51991 15.1617 6.24843 14.8299 6.24843ZM8.28066 8.69238C8.28066 9.40664 7.95898 9.958 7.23847 9.958L6.53886 9.958L6.53886 7.43124L7.24023 7.43124C7.92519 7.43124 8.28066 7.98339 8.28066 8.69238Z" fill="white" fill-opacity="0.85"/>
 </g>
</svg>
