<?xml version="1.0" encoding="UTF-8"?>
<!--Generator: Apple Native CoreSVG 341-->
<!DOCTYPE svg
PUBLIC "-//W3C//DTD SVG 1.1//EN"
       "http://www.w3.org/Graphics/SVG/1.1/DTD/svg11.dtd">
<svg version="1.1" xmlns="http://www.w3.org/2000/svg" xmlns:xlink="http://www.w3.org/1999/xlink" viewBox="0 0 22.301 21.9477">
 <g>
  <rect height="21.9477" opacity="0" width="22.301" x="0" y="0"/>
  <path d="M10.9689 21.9379C16.9984 21.9379 21.9396 16.9984 21.9396 10.9689C21.9396 4.93945 16.9984 0 10.9689 0C4.93945 0 0 4.93945 0 10.9689C0 16.9984 4.93945 21.9379 10.9689 21.9379ZM10.9689 18.2242C6.96133 18.2242 3.71367 14.9766 3.71367 10.9689C3.71367 6.95332 6.96133 3.71367 10.9689 3.71367C14.9846 3.71367 18.226 6.95332 18.226 10.9689C18.226 14.9766 14.9846 18.2242 10.9689 18.2242Z" fill="white" fill-opacity="0.85"/>
  <path d="M9.29726 15.4172C9.72187 15.4172 9.97714 15.1504 9.97714 14.7223L9.97714 13.9023L12.2277 13.9023C12.408 13.9023 12.5314 13.7824 12.5314 13.5861C12.5314 13.3978 12.408 13.2842 12.2277 13.2842L9.97714 13.2842L9.97714 12.0305L11.6461 12.0305C13.4662 12.0305 14.5283 10.8326 14.5283 9.33515C14.5283 7.78183 13.4482 6.62207 11.7 6.62207L9.31406 6.62207C8.90469 6.62207 8.62539 6.9164 8.62539 7.34179L8.62539 11.3973L7.64414 11.3973C7.44434 11.3973 7.3209 11.5287 7.3209 11.717C7.3209 11.907 7.44434 12.0305 7.64414 12.0305L8.62539 12.0305L8.62539 13.2842L7.64414 13.2842C7.44609 13.2842 7.32266 13.3978 7.32266 13.5861C7.32266 13.7824 7.44609 13.9023 7.64414 13.9023L8.62539 13.9023L8.62539 14.7223C8.62539 15.1504 8.89043 15.4172 9.29726 15.4172ZM9.97714 10.9549L9.97714 7.74374L11.3199 7.74374C12.6064 7.74374 13.1508 8.44667 13.1508 9.34043C13.1508 10.3818 12.441 10.9549 11.3182 10.9549Z" fill="white" fill-opacity="0.85"/>
 </g>
</svg>
