<?xml version="1.0" encoding="UTF-8"?>
<!--Generator: Apple Native CoreSVG 341-->
<!DOCTYPE svg
PUBLIC "-//W3C//DTD SVG 1.1//EN"
       "http://www.w3.org/Graphics/SVG/1.1/DTD/svg11.dtd">
<svg version="1.1" xmlns="http://www.w3.org/2000/svg" xmlns:xlink="http://www.w3.org/1999/xlink" viewBox="0 0 20.5381 20.1848">
 <g>
  <rect height="20.1848" opacity="0" width="20.5381" x="0" y="0"/>
  <path d="M20.1767 10.0875C20.1767 15.6478 15.6576 20.175 10.0875 20.175C4.52715 20.175 0 15.6478 0 10.0875C0 4.51914 4.52715 0 10.0875 0C15.6576 0 20.1767 4.51914 20.1767 10.0875ZM8.37148 5.55898C7.93555 5.55898 7.65098 5.87011 7.65098 6.32382L7.65098 10.5326L6.62363 10.5326C6.42031 10.5326 6.28887 10.6658 6.28887 10.8639C6.28887 11.0654 6.42031 11.1889 6.62363 11.1889L7.65098 11.1889L7.65098 12.4922L6.62363 12.4922C6.42383 12.4922 6.29062 12.6139 6.29062 12.8039C6.29062 13.0117 6.42383 13.1414 6.62363 13.1414L7.65098 13.1414L7.65098 13.9791C7.65098 14.4338 7.91152 14.7076 8.35293 14.7076C8.79433 14.7076 9.06464 14.4338 9.06464 13.9791L9.06464 13.1414L11.3977 13.1414C11.5877 13.1414 11.7129 13.0117 11.7129 12.8039C11.7129 12.6139 11.5877 12.4922 11.3977 12.4922L9.06464 12.4922L9.06464 11.1889L10.793 11.1889C12.6777 11.1889 13.7975 9.94491 13.7975 8.38456C13.7975 6.77636 12.6695 5.55898 10.8406 5.55898ZM12.3465 8.38808C12.3465 9.47207 11.6154 10.0682 10.45 10.0682L9.06464 10.0682L9.06464 6.73905L10.4518 6.73905C11.7889 6.73905 12.3465 7.47304 12.3465 8.38808Z" fill="white" fill-opacity="0.85"/>
 </g>
</svg>
