<?xml version="1.0" encoding="UTF-8"?>
<!--Generator: Apple Native CoreSVG 341-->
<!DOCTYPE svg
PUBLIC "-//W3C//DTD SVG 1.1//EN"
       "http://www.w3.org/Graphics/SVG/1.1/DTD/svg11.dtd">
<svg version="1.1" xmlns="http://www.w3.org/2000/svg" xmlns:xlink="http://www.w3.org/1999/xlink" viewBox="0 0 24.2049 19.7961">
 <g>
  <rect height="19.7961" opacity="0" width="24.2049" x="0" y="0"/>
  <path d="M23.8435 11.8701C23.8435 5.64747 19.073 0.538875 12.9941 0.00293831C12.6553-0.029874 12.3998 0.215828 12.3998 0.554694L12.3998 3.8043C12.3998 4.08907 12.6012 4.30645 12.8842 4.33301C16.6191 4.80957 19.517 8.00293 19.517 11.8701C19.517 13.6332 18.9115 15.2613 17.8488 16.61C17.6945 16.8023 17.7025 17.0471 17.8719 17.2244L20.2322 19.5785C20.4646 19.8144 20.823 19.8109 21.0359 19.559C22.7926 17.4783 23.8435 14.7949 23.8435 11.8701Z" fill="white" fill-opacity="0.85"/>
  <path d="M0 11.8701C0 14.8029 1.05098 17.4863 2.80586 19.5652C3.01875 19.8172 3.36914 19.8109 3.61132 19.5768L5.96992 17.2227C6.13925 17.0453 6.14726 16.8006 5.99296 16.6082C4.92578 15.2613 4.32656 13.6332 4.32656 11.8701C4.32656 8.00293 7.22617 4.80957 10.9594 4.33301C11.2441 4.30645 11.4437 4.08907 11.4437 3.8043L11.4437 0.554694C11.4437 0.215828 11.1883-0.029874 10.8494 0.00293831C4.77226 0.538875 0 5.64747 0 11.8701Z" fill="white" fill-opacity="0.85"/>
  <path d="M10.2381 16.4094C10.6609 16.4094 10.918 16.1346 10.918 15.7145L10.918 14.8865L13.1685 14.8865C13.3568 14.8865 13.4705 14.7746 13.4705 14.5783C13.4705 14.39 13.3568 14.2684 13.1685 14.2684L10.918 14.2684L10.918 13.0227L12.5869 13.0227C14.407 13.0227 15.4691 11.8168 15.4691 10.3291C15.4691 8.77403 14.3891 7.61426 12.6391 7.61426L10.2549 7.61426C9.8455 7.61426 9.57422 7.90059 9.57422 8.32597L9.57422 12.3832L8.58496 12.3832C8.38515 12.3832 8.26972 12.5129 8.26972 12.7012C8.26972 12.8992 8.38515 13.0227 8.58496 13.0227L9.57422 13.0227L9.57422 14.2684L8.58496 14.2684C8.38691 14.2684 8.27148 14.39 8.27148 14.5783C8.27148 14.7746 8.38691 14.8865 8.58496 14.8865L9.57422 14.8865L9.57422 15.7145C9.57422 16.1346 9.82949 16.4094 10.2381 16.4094ZM10.918 11.9391L10.918 8.72793L12.2607 8.72793C13.5473 8.72793 14.0898 9.43262 14.0898 10.3326C14.0898 11.366 13.3818 11.9391 12.259 11.9391Z" fill="white" fill-opacity="0.85"/>
 </g>
</svg>
