<?xml version="1.0" encoding="UTF-8"?>
<!--Generator: Apple Native CoreSVG 341-->
<!DOCTYPE svg
PUBLIC "-//W3C//DTD SVG 1.1//EN"
       "http://www.w3.org/Graphics/SVG/1.1/DTD/svg11.dtd">
<svg version="1.1" xmlns="http://www.w3.org/2000/svg" xmlns:xlink="http://www.w3.org/1999/xlink" viewBox="0 0 18.5894 18.2316">
 <g>
  <rect height="18.2316" opacity="0" width="18.5894" x="0" y="0"/>
  <path d="M18.2281 3.17148L18.2281 15.0646C18.2281 17.1502 17.1404 18.2281 15.0246 18.2281L3.20351 18.2281C1.0957 18.2281 0 17.1502 0 15.0646L0 3.17148C0 1.08769 1.0957 0 3.20351 0L15.0246 0C17.1404 0 18.2281 1.08769 18.2281 3.17148ZM7.42226 4.58242C6.99433 4.58242 6.70176 4.89355 6.70176 5.34726L6.70176 9.55605L5.67441 9.55605C5.47285 9.55605 5.33965 9.68925 5.33965 9.8873C5.33965 10.0889 5.47285 10.2123 5.67441 10.2123L6.70176 10.2123L6.70176 11.5156L5.67441 11.5156C5.47461 11.5156 5.3414 11.6373 5.3414 11.8273C5.3414 12.0352 5.47461 12.1648 5.67441 12.1648L6.70176 12.1648L6.70176 13.0025C6.70176 13.4572 6.97207 13.731 7.40371 13.731C7.84687 13.731 8.11718 13.4572 8.11718 13.0025L8.11718 12.1648L10.4502 12.1648C10.6402 12.1648 10.7637 12.0352 10.7637 11.8273C10.7637 11.6373 10.6402 11.5156 10.4502 11.5156L8.11718 11.5156L8.11718 10.2123L9.8455 10.2123C11.7365 10.2123 12.85 8.96835 12.85 7.408C12.85 5.7998 11.7203 4.58242 9.89941 4.58242ZM11.3973 7.41152C11.3973 8.49551 10.668 9.0916 9.50078 9.0916L8.11718 9.0916L8.11718 5.76249L9.50253 5.76249C10.8396 5.76249 11.3973 6.49648 11.3973 7.41152Z" fill="white" fill-opacity="0.85"/>
 </g>
</svg>
