<?xml version="1.0" encoding="UTF-8"?>
<!--Generator: Apple Native CoreSVG 341-->
<!DOCTYPE svg
PUBLIC "-//W3C//DTD SVG 1.1//EN"
       "http://www.w3.org/Graphics/SVG/1.1/DTD/svg11.dtd">
<svg version="1.1" xmlns="http://www.w3.org/2000/svg" xmlns:xlink="http://www.w3.org/1999/xlink" viewBox="0 0 22.7515 21.4965">
 <g>
  <rect height="21.4965" opacity="0" width="22.7515" x="0" y="0"/>
  <path d="M1.44999 18.9656L20.9947 18.9656L20.9947 18.2322C20.9947 17.8064 20.7437 17.551 20.3117 17.551L19.7447 17.551L19.7447 6.98046L20.5865 6.98046C21.1851 6.98046 21.5363 6.53886 21.5363 6.09277C21.5363 5.7664 21.351 5.47734 20.9545 5.24941L12.481 0.359374C12.0764 0.125976 11.6398 0 11.2183 0C10.7969 0 10.3523 0.125976 9.96366 0.359374L1.49023 5.24941C1.08574 5.47734 0.908396 5.7664 0.908396 6.09277C0.908396 6.53886 1.25957 6.98046 1.85995 6.98046L2.69999 6.98046L2.69999 17.551L2.14101 17.551C1.70898 17.551 1.44999 17.8064 1.44999 18.2322ZM4.32401 17.551L4.32401 5.67245L10.8779 1.99999C10.9846 1.93866 11.1072 1.90487 11.2183 1.90487C11.333 1.90487 11.4521 1.93866 11.5668 1.99999L18.1207 5.67245L18.1207 17.551ZM0.881441 21.4867L21.499 21.4867C21.9797 21.4867 22.3902 21.0849 22.3902 20.5972C22.3902 20.1148 21.9797 19.7158 21.499 19.7158L0.881441 19.7158C0.399022 19.7158 0 20.1148 0 20.5972C0 21.0832 0.399022 21.4867 0.881441 21.4867Z" fill="white" fill-opacity="0.85"/>
  <path d="M9.55467 15.032C9.97928 15.032 10.2346 14.7572 10.2346 14.3371L10.2346 13.5092L12.4869 13.5092C12.6654 13.5092 12.7889 13.3973 12.7889 13.201C12.7889 13.0127 12.6654 12.891 12.4869 12.891L10.2346 12.891L10.2346 11.6453L11.9035 11.6453C13.7156 11.6453 14.7857 10.4394 14.7857 8.95174C14.7857 7.39667 13.7056 6.2369 11.9494 6.2369L9.57147 6.2369C9.15409 6.2369 8.88456 6.52323 8.88456 6.94861L8.88456 11.0058L7.90155 11.0058C7.70175 11.0058 7.58007 11.1355 7.58007 11.3238C7.58007 11.5219 7.70175 11.6453 7.90155 11.6453L8.88456 11.6453L8.88456 12.891L7.90155 12.891C7.70351 12.891 7.58183 13.0127 7.58183 13.201C7.58183 13.3973 7.70351 13.5092 7.90155 13.5092L8.88456 13.5092L8.88456 14.3371C8.88456 14.7572 9.13983 15.032 9.55467 15.032ZM10.2346 10.5617L10.2346 7.35057L11.5791 7.35057C12.8639 7.35057 13.4082 8.05526 13.4082 8.95526C13.4082 9.98866 12.7002 10.5617 11.5756 10.5617Z" fill="white" fill-opacity="0.85"/>
 </g>
</svg>
