<?xml version="1.0" encoding="UTF-8"?>
<!--Generator: Apple Native CoreSVG 341-->
<!DOCTYPE svg
PUBLIC "-//W3C//DTD SVG 1.1//EN"
       "http://www.w3.org/Graphics/SVG/1.1/DTD/svg11.dtd">
<svg version="1.1" xmlns="http://www.w3.org/2000/svg" xmlns:xlink="http://www.w3.org/1999/xlink" viewBox="0 0 20.4792 20.1196">
 <g>
  <rect height="20.1196" opacity="0" width="20.4792" x="0" y="0"/>
  <path d="M19.6657 2.31216C19.5698 1.98189 19.4606 1.70845 19.3372 1.4981L13.5426 7.27486L14.2368 7.97525C14.4336 8.18189 14.4336 8.49575 14.2368 8.68462C14.0381 8.89126 13.718 8.89126 13.5194 8.68462L11.4252 6.58873C11.2204 6.39185 11.2186 6.07174 11.4252 5.8651C11.6141 5.67623 11.9342 5.67623 12.1329 5.8651L12.835 6.57525L18.6198 0.78072C18.4014 0.657283 18.136 0.549861 17.7959 0.452205C13.6247-0.795061 8.18755 0.547126 4.36334 4.36334C0.547126 8.18755-0.795061 13.6247 0.452205 17.7959C0.557869 18.1342 0.657283 18.3917 0.790486 18.61L6.62232 12.7879L5.92017 12.0875C5.72154 11.8827 5.72955 11.5706 5.92017 11.3639C6.11881 11.1733 6.44693 11.1733 6.64556 11.3639L8.7397 13.4661C8.93833 13.6629 8.93833 13.9911 8.7397 14.1897C8.54907 14.3866 8.22896 14.3866 8.03033 14.1897L7.32994 13.4956L1.50787 19.3256C1.72622 19.4526 1.99165 19.5582 2.31216 19.6577C6.49146 20.9049 11.9223 19.5627 15.7465 15.7465C19.5627 11.9223 20.9049 6.49146 19.6657 2.31216ZM10.045 7.96099C9.8481 7.76236 9.8481 7.444 10.045 7.24713C10.2436 7.0565 10.5557 7.04049 10.7624 7.24713L12.8645 9.35552C13.0711 9.55415 13.0631 9.8645 12.8645 10.0631C12.6659 10.2618 12.3475 10.2618 12.1489 10.0631ZM8.66119 9.33052C8.47232 9.14341 8.47408 8.81978 8.66119 8.62115C8.85982 8.43228 9.18169 8.41627 9.38032 8.62115L11.4905 10.7295C11.6891 10.9264 11.6793 11.2403 11.4905 11.4389C11.2918 11.6358 10.9717 11.6358 10.7731 11.4389ZM7.29244 10.7073C7.09556 10.5104 7.10181 10.1903 7.29244 9.99166C7.48931 9.80279 7.81744 9.79478 8.01607 9.99166L10.1182 12.0956C10.3168 12.2942 10.3088 12.6223 10.1182 12.8174C9.92134 13.0081 9.60122 13.0161 9.40259 12.8174Z" fill="white" fill-opacity="0.85"/>
 </g>
</svg>
