<?xml version="1.0" encoding="UTF-8"?>
<!--Generator: Apple Native CoreSVG 341-->
<!DOCTYPE svg
PUBLIC "-//W3C//DTD SVG 1.1//EN"
       "http://www.w3.org/Graphics/SVG/1.1/DTD/svg11.dtd">
<svg version="1.1" xmlns="http://www.w3.org/2000/svg" xmlns:xlink="http://www.w3.org/1999/xlink" viewBox="0 0 24.7595 10.9543">
 <g>
  <rect height="10.9543" opacity="0" width="24.7595" x="0" y="0"/>
  <path d="M24.3982 2.74043C24.3982 0.964451 23.4312 0.0044924 21.6357 0.0044924L2.76074 0.0044924C0.963474 0.0044924 0 0.956443 0 2.74043L0 8.21308C0 9.98905 0.974997 10.9543 2.7705 10.9543L21.6392 10.9543C23.441 10.9543 24.3982 9.98905 24.3982 8.21308ZM3.17636 1.84784L3.17636 6.26504C3.17636 6.51074 3.00253 6.70058 2.75058 6.70058C2.50663 6.70058 2.31327 6.51875 2.31327 6.2748L2.31327 1.84784ZM5.0744 1.84784L5.0744 4.6289C5.0744 4.88261 4.90058 5.06444 4.64061 5.06444C4.40292 5.06444 4.21132 4.89062 4.21132 4.63866L4.21132 1.84784ZM6.97069 1.84784L6.97069 4.6289C6.97069 4.88261 6.78886 5.06444 6.5369 5.06444C6.30097 5.06444 6.10761 4.89062 6.10761 4.63866L6.10761 1.84784ZM8.85272 1.84784L8.85272 4.6289C8.85272 4.88261 8.6789 5.06444 8.42694 5.06444C8.18124 5.06444 7.98964 4.89062 7.98964 4.63866L7.98964 1.84784ZM10.749 1.84784L10.749 4.6289C10.749 4.88261 10.5752 5.06444 10.3152 5.06444C10.0775 5.06444 9.88593 4.89062 9.88593 4.63866L9.88593 1.84784ZM12.6391 1.84784L12.6391 6.26504C12.6391 6.51074 12.4635 6.70058 12.2053 6.70058C11.9676 6.70058 11.7742 6.51875 11.7742 6.2748L11.7742 1.84784ZM14.5353 1.84784L14.5353 4.6289C14.5353 4.88261 14.3535 5.06444 14.1016 5.06444C13.8639 5.06444 13.6723 4.89062 13.6723 4.63866L13.6723 1.84784ZM16.4254 1.84784L16.4254 4.6289C16.4254 4.88261 16.2498 5.06444 15.9996 5.06444C15.7539 5.06444 15.5605 4.89062 15.5605 4.63866L15.5605 1.84784ZM18.3137 1.84784L18.3137 4.6289C18.3137 4.88261 18.1398 5.06444 17.8799 5.06444C17.6422 5.06444 17.4506 4.89062 17.4506 4.63866L17.4506 1.84784ZM20.2099 1.84784L20.2099 4.6289C20.2099 4.88261 20.0281 5.06444 19.7779 5.06444C19.5402 5.06444 19.3469 4.89062 19.3469 4.63866L19.3469 1.84784ZM22.092 1.84784L22.092 6.26504C22.092 6.51074 21.9182 6.70058 21.6662 6.70058C21.4205 6.70058 21.2289 6.51875 21.2289 6.2748L21.2289 1.84784Z" fill="white" fill-opacity="0.85"/>
 </g>
</svg>
