<?xml version="1.0" encoding="UTF-8"?>
<!--Generator: Apple Native CoreSVG 341-->
<!DOCTYPE svg
PUBLIC "-//W3C//DTD SVG 1.1//EN"
       "http://www.w3.org/Graphics/SVG/1.1/DTD/svg11.dtd">
<svg version="1.1" xmlns="http://www.w3.org/2000/svg" xmlns:xlink="http://www.w3.org/1999/xlink" viewBox="0 0 24.2049 19.7961">
 <g>
  <rect height="19.7961" opacity="0" width="24.2049" x="0" y="0"/>
  <path d="M23.8435 11.8701C23.8435 5.64747 19.073 0.538875 12.9941 0.00293831C12.6553-0.029874 12.3998 0.215828 12.3998 0.554694L12.3998 3.8043C12.3998 4.08907 12.6012 4.30645 12.8842 4.33301C16.6191 4.80957 19.517 8.00293 19.517 11.8701C19.517 13.6332 18.9115 15.2613 17.8488 16.61C17.6945 16.8023 17.7025 17.0471 17.8719 17.2244L20.2322 19.5785C20.4646 19.8144 20.823 19.8109 21.0359 19.559C22.7926 17.4783 23.8435 14.7949 23.8435 11.8701Z" fill="white" fill-opacity="0.85"/>
  <path d="M0 11.8701C0 14.8029 1.05098 17.4863 2.80586 19.5652C3.01875 19.8172 3.36914 19.8109 3.61132 19.5768L5.96992 17.2227C6.13925 17.0453 6.14726 16.8006 5.99296 16.6082C4.92578 15.2613 4.32656 13.6332 4.32656 11.8701C4.32656 8.00293 7.22617 4.80957 10.9594 4.33301C11.2441 4.30645 11.4437 4.08907 11.4437 3.8043L11.4437 0.554694C11.4437 0.215828 11.1883-0.029874 10.8494 0.00293831C4.77226 0.538875 0 5.64747 0 11.8701Z" fill="white" fill-opacity="0.85"/>
  <path d="M8.15585 15.8348C8.55136 15.8348 8.77401 15.5793 8.77401 15.1838L8.77401 12.7773L9.83105 12.7773L10.9232 15.349C11.0518 15.6672 11.2406 15.8348 11.5404 15.8348C11.8828 15.8348 12.1586 15.6121 12.1586 15.2424C12.1586 15.0881 12.093 14.9596 12.0238 14.7893L11.023 12.5174C11.8279 12.1533 12.2037 11.316 12.2037 10.4553C12.2037 9.12031 11.4271 8.14492 9.82265 8.14492L8.14784 8.14492C7.77011 8.14492 7.53417 8.39238 7.53417 8.77988L7.53417 15.1838C7.53417 15.5793 7.76035 15.8348 8.15585 15.8348ZM8.77401 11.8244L8.77401 9.14824L9.70468 9.14824C10.5045 9.14824 10.9471 9.67148 10.9471 10.4783C10.9471 11.2729 10.5373 11.8244 9.71093 11.8244ZM15.0422 15.8445C16.1803 15.8445 17.1478 15.2141 17.1478 14.0502C17.1478 13.1285 16.5894 12.7289 15.681 12.4908L14.8848 12.2848C14.4787 12.1781 14.1455 11.9693 14.1455 11.5445C14.1455 11.0619 14.518 10.7615 15.0041 10.7615C15.5248 10.7615 15.8623 11.06 16.0639 11.4697C16.1533 11.6215 16.3174 11.7086 16.4799 11.7086C16.8037 11.7086 16.9437 11.5248 16.9437 11.2818C16.9437 11.2117 16.9225 11.1096 16.8932 11.0199C16.6793 10.3275 15.8992 9.8877 15.0299 9.8877C13.81 9.8877 12.9766 10.5414 12.9766 11.6102C12.9766 12.5043 13.5662 12.9828 14.4266 13.1986L15.2291 13.4064C15.6654 13.5211 15.9684 13.7291 15.9684 14.1752C15.9684 14.6568 15.6023 14.9645 15.0805 14.9645C14.5002 14.9645 14.1777 14.7654 13.8758 14.2535C13.734 14.0352 13.5459 13.9455 13.3658 13.9455C13.0926 13.9455 12.8894 14.1371 12.8894 14.4121C12.8894 14.4955 12.9223 14.5975 12.9586 14.6941C13.2266 15.4953 14.1658 15.8445 15.0422 15.8445Z" fill="white" fill-opacity="0.85"/>
 </g>
</svg>
