<?xml version="1.0" encoding="UTF-8"?>
<!--Generator: Apple Native CoreSVG 341-->
<!DOCTYPE svg
PUBLIC "-//W3C//DTD SVG 1.1//EN"
       "http://www.w3.org/Graphics/SVG/1.1/DTD/svg11.dtd">
<svg version="1.1" xmlns="http://www.w3.org/2000/svg" xmlns:xlink="http://www.w3.org/1999/xlink" viewBox="0 0 22.7515 21.4965">
 <g>
  <rect height="21.4965" opacity="0" width="22.7515" x="0" y="0"/>
  <path d="M1.44999 18.9656L20.9947 18.9656L20.9947 18.2322C20.9947 17.8064 20.7437 17.551 20.3117 17.551L19.7447 17.551L19.7447 6.98046L20.5865 6.98046C21.1851 6.98046 21.5363 6.53886 21.5363 6.09277C21.5363 5.7664 21.351 5.47734 20.9545 5.24941L12.481 0.359374C12.0764 0.125976 11.6398 0 11.2183 0C10.7969 0 10.3523 0.125976 9.96366 0.359374L1.49023 5.24941C1.08574 5.47734 0.908396 5.7664 0.908396 6.09277C0.908396 6.53886 1.25957 6.98046 1.85995 6.98046L2.69999 6.98046L2.69999 17.551L2.14101 17.551C1.70898 17.551 1.44999 17.8064 1.44999 18.2322ZM4.32401 17.551L4.32401 5.67245L10.8779 1.99999C10.9846 1.93866 11.1072 1.90487 11.2183 1.90487C11.333 1.90487 11.4521 1.93866 11.5668 1.99999L18.1207 5.67245L18.1207 17.551ZM0.881441 21.4867L21.499 21.4867C21.9797 21.4867 22.3902 21.0849 22.3902 20.5972C22.3902 20.1148 21.9797 19.7158 21.499 19.7158L0.881441 19.7158C0.399022 19.7158 0 20.1148 0 20.5972C0 21.0832 0.399022 21.4867 0.881441 21.4867Z" fill="white" fill-opacity="0.85"/>
  <path d="M7.4742 14.4574C7.86971 14.4574 8.09237 14.2019 8.09237 13.8064L8.09237 11.4L9.1494 11.4L10.2336 13.9717C10.3621 14.2898 10.551 14.4574 10.857 14.4574C11.2012 14.4574 11.4752 14.233 11.4752 13.865C11.4752 13.709 11.4096 13.5822 11.3342 13.4102L10.3396 11.14C11.1383 10.776 11.5123 9.93866 11.5123 9.07791C11.5123 7.74295 10.7375 6.76756 9.13925 6.76756L7.4662 6.76756C7.0787 6.76756 6.84276 7.01502 6.84276 7.40252L6.84276 13.8064C6.84276 14.2019 7.0787 14.4574 7.4742 14.4574ZM8.09237 10.4453L8.09237 7.77088L9.02303 7.77088C9.82108 7.77088 10.2637 8.29412 10.2637 9.10096C10.2637 9.89549 9.84589 10.4453 9.02928 10.4453ZM14.3588 14.4672C15.4986 14.4672 16.4644 13.8367 16.4644 12.6728C16.4644 11.7512 15.9078 11.3516 14.9914 11.1135L14.1951 10.9074C13.789 10.8008 13.4558 10.5902 13.4558 10.1672C13.4558 9.68455 13.8363 9.38416 14.3144 9.38416C14.8414 9.38416 15.1807 9.6826 15.3805 10.0924C15.4717 10.2441 15.634 10.3312 15.7982 10.3312C16.1221 10.3312 16.2603 10.1474 16.2603 9.90448C16.2603 9.83436 16.2408 9.73221 16.2115 9.64257C15.9976 8.95018 15.2158 8.51034 14.3465 8.51034C13.1203 8.51034 12.2949 9.16405 12.2949 10.2328C12.2949 11.1269 12.8766 11.6055 13.7351 11.8213L14.5377 12.0291C14.982 12.1437 15.2787 12.3517 15.2787 12.7978C15.2787 13.2795 14.9109 13.5871 14.3988 13.5871C13.8088 13.5871 13.4961 13.3881 13.1924 12.8762C13.0443 12.6578 12.8642 12.5682 12.6842 12.5682C12.4092 12.5682 12.206 12.7598 12.206 13.0348C12.206 13.1182 12.2308 13.2201 12.2689 13.3168C12.5432 14.118 13.4762 14.4672 14.3588 14.4672Z" fill="white" fill-opacity="0.85"/>
 </g>
</svg>
