<?xml version="1.0" encoding="UTF-8"?>
<!--Generator: Apple Native CoreSVG 341-->
<!DOCTYPE svg
PUBLIC "-//W3C//DTD SVG 1.1//EN"
       "http://www.w3.org/Graphics/SVG/1.1/DTD/svg11.dtd">
<svg version="1.1" xmlns="http://www.w3.org/2000/svg" xmlns:xlink="http://www.w3.org/1999/xlink" viewBox="0 0 18.5894 18.2316">
 <g>
  <rect height="18.2316" opacity="0" width="18.5894" x="0" y="0"/>
  <path d="M18.2281 3.17148L18.2281 15.0646C18.2281 17.1502 17.1404 18.2281 15.0246 18.2281L3.20351 18.2281C1.0957 18.2281 0 17.1502 0 15.0646L0 3.17148C0 1.08769 1.0957 0 3.20351 0L15.0246 0C17.1404 0 18.2281 1.08769 18.2281 3.17148ZM10.2299 8.74667C10.2299 9.67714 10.8408 10.1769 11.7375 10.406L12.5586 10.6156C13.0242 10.7303 13.3289 10.9561 13.3289 11.4119C13.3289 11.9148 12.9514 12.2305 12.4197 12.2305C11.8101 12.2305 11.4859 12.0234 11.1707 11.492C11.0254 11.2701 10.8275 11.1707 10.6342 11.1707C10.3477 11.1707 10.141 11.3756 10.141 11.6621C10.141 11.7393 10.1738 11.843 10.2057 11.9574C10.4932 12.7771 11.4687 13.1441 12.3797 13.1441C13.5611 13.1441 14.5748 12.4969 14.5748 11.2852C14.5748 10.3191 13.9916 9.90625 13.0406 9.6664L12.216 9.45058C11.7922 9.34394 11.4537 9.11562 11.4537 8.6873C11.4537 8.18691 11.8359 7.87499 12.3434 7.87499C12.8756 7.87499 13.2264 8.18671 13.4359 8.60624C13.5289 8.75976 13.7045 8.84863 13.8705 8.84863C14.2139 8.84863 14.3574 8.65331 14.3574 8.41132C14.3574 8.33496 14.3361 8.22929 14.3086 8.13964C14.0814 7.40468 13.2633 6.96132 12.3674 6.96132C11.0996 6.96132 10.2299 7.63984 10.2299 8.74667ZM5.21152 5.15292C4.81699 5.15292 4.56601 5.4119 4.56601 5.8162L4.56601 12.4533C4.56601 12.8736 4.80898 13.1326 5.21953 13.1326C5.63984 13.1326 5.87577 12.8736 5.87577 12.4533L5.87577 9.96347L6.96035 9.96347L8.0836 12.6283C8.22539 12.9615 8.41777 13.1326 8.73887 13.1326C9.09629 13.1326 9.38535 12.8984 9.38535 12.5217C9.38535 12.3541 9.30996 12.2158 9.23281 12.0322L8.20722 9.69999C9.03691 9.31464 9.42421 8.45077 9.42421 7.54921C9.42421 6.16113 8.61308 5.15292 6.95371 5.15292ZM8.11719 7.57226C8.11719 8.40585 7.68789 8.96894 6.84023 8.96894L5.87577 8.96894L5.87577 6.20585L6.83398 6.20585C7.65683 6.20585 8.11719 6.74237 8.11719 7.57226Z" fill="white" fill-opacity="0.85"/>
 </g>
</svg>
