<?xml version="1.0" encoding="UTF-8"?>
<!--Generator: Apple Native CoreSVG 341-->
<!DOCTYPE svg
PUBLIC "-//W3C//DTD SVG 1.1//EN"
       "http://www.w3.org/Graphics/SVG/1.1/DTD/svg11.dtd">
<svg version="1.1" xmlns="http://www.w3.org/2000/svg" xmlns:xlink="http://www.w3.org/1999/xlink" viewBox="0 0 18.5894 18.2316">
 <g>
  <rect height="18.2316" opacity="0" width="18.5894" x="0" y="0"/>
  <path d="M3.20351 18.2281L15.0246 18.2281C17.1404 18.2281 18.2281 17.1502 18.2281 15.0646L18.2281 3.17148C18.2281 1.08769 17.1404 0 15.0246 0L3.20351 0C1.0957 0 0 1.08769 0 3.17148L0 15.0646C0 17.1502 1.0957 18.2281 3.20351 18.2281ZM3.31444 16.3148C2.40643 16.3148 1.91327 15.8465 1.91327 14.8977L1.91327 3.34023C1.91327 2.39139 2.40643 1.91503 3.31444 1.91503L14.9137 1.91503C15.8137 1.91503 16.3148 2.39139 16.3148 3.34023L16.3148 14.8977C16.3148 15.8465 15.8137 16.3148 14.9137 16.3148Z" fill="white" fill-opacity="0.85"/>
  <path d="M5.36503 12.9846C5.76054 12.9846 5.98319 12.7354 5.98319 12.3416L5.98319 9.92714L7.04023 9.92714L8.12442 12.5068C8.26094 12.8232 8.4418 12.9846 8.74961 12.9846C9.09199 12.9846 9.36777 12.7602 9.36777 12.4002C9.36777 12.2441 9.30214 12.1094 9.225 11.9373L8.23222 9.67519C9.0291 9.31113 9.40488 8.47382 9.40488 7.60507C9.40488 6.27011 8.62832 5.30272 7.03183 5.30272L5.35702 5.30272C4.97929 5.30272 4.74336 5.55018 4.74336 5.93768L4.74336 12.3416C4.74336 12.7354 4.96953 12.9846 5.36503 12.9846ZM5.98319 8.98046L5.98319 6.30428L6.91386 6.30428C7.71367 6.30428 8.15625 6.82928 8.15625 7.62812C8.15625 8.43066 7.74648 8.98046 6.92011 8.98046ZM12.2514 12.9943C13.3912 12.9943 14.357 12.3719 14.357 11.208C14.357 10.2783 13.7986 9.88672 12.8822 9.64863L12.0939 9.44257C11.6816 9.33593 11.3547 9.11738 11.3547 8.70234C11.3547 8.21972 11.7271 7.91757 12.215 7.91757C12.734 7.91757 13.0715 8.21776 13.273 8.62753C13.3625 8.76952 13.5266 8.85839 13.6891 8.85839C14.0129 8.85839 14.1529 8.6746 14.1529 8.43789C14.1529 8.36953 14.1316 8.26562 14.1023 8.17597C13.8885 7.47734 13.1084 7.04374 12.2391 7.04374C11.0191 7.04374 10.1857 7.69921 10.1857 8.75995C10.1857 9.6541 10.7754 10.1406 11.6357 10.3564L12.4303 10.5562C12.8746 10.6709 13.1695 10.8852 13.1695 11.333C13.1695 11.8146 12.8035 12.1223 12.2896 12.1223C11.7014 12.1223 11.3869 11.9232 11.085 11.4113C10.9432 11.193 10.7551 11.1033 10.575 11.1033C10.3018 11.1033 10.0986 11.2949 10.0986 11.5699C10.0986 11.6453 10.1314 11.7473 10.1598 11.8519C10.4357 12.6451 11.375 12.9943 12.2514 12.9943Z" fill="white" fill-opacity="0.85"/>
 </g>
</svg>
