<?xml version="1.0" encoding="UTF-8"?>
<!--Generator: Apple Native CoreSVG 341-->
<!DOCTYPE svg
PUBLIC "-//W3C//DTD SVG 1.1//EN"
       "http://www.w3.org/Graphics/SVG/1.1/DTD/svg11.dtd">
<svg version="1.1" xmlns="http://www.w3.org/2000/svg" xmlns:xlink="http://www.w3.org/1999/xlink" viewBox="0 0 24.2049 19.8808">
 <g>
  <rect height="19.8808" opacity="0" width="24.2049" x="0" y="0"/>
  <path d="M23.8435 11.9178C23.8435 9.01855 22.8031 6.3457 21.0623 4.27031C20.8547 4.02011 20.498 4.02011 20.2621 4.2623L17.9578 6.56484C17.7547 6.76796 17.7467 7.05097 17.9232 7.27363C18.9185 8.56269 19.517 10.1768 19.517 11.9178C19.517 13.6826 18.9115 15.3107 17.8488 16.6611C17.6945 16.8535 17.7025 17.0982 17.8719 17.2756L20.2242 19.6279C20.4646 19.8683 20.8133 19.8683 21.0359 19.6066C22.7908 17.5277 23.8435 14.8443 23.8435 11.9178Z" fill="white" fill-opacity="0.85"/>
  <path d="M11.9178 4.32656C13.6783 4.32656 15.2941 4.933 16.5912 5.93183C16.8041 6.09863 17.0791 6.0791 17.2787 5.87773L19.5812 3.57343C19.8252 3.33125 19.8154 2.9791 19.5582 2.76797C17.4926 1.04043 14.8232 0 11.9178 0C9.02031 0 6.35097 1.04043 4.28711 2.76797C4.02988 2.9791 4.01836 3.33125 4.2623 3.57343L6.56484 5.87773C6.76445 6.0791 7.05097 6.09863 7.28163 5.92207C8.56894 4.933 10.1768 4.32656 11.9178 4.32656Z" fill="white" fill-opacity="0.85"/>
  <path d="M0 11.9178C0 14.8461 1.05625 17.5348 2.81465 19.6137C3.02402 19.8719 3.3789 19.8683 3.61308 19.6279L5.96367 17.2756C6.133 17.0982 6.15077 16.8535 5.99472 16.6611C4.93378 15.3107 4.32656 13.6826 4.32656 11.9178C4.32656 10.1768 4.91699 8.56269 5.92031 7.27363C6.08886 7.05097 6.08886 6.76796 5.88574 6.56484L3.58144 4.2623C3.33926 4.02011 2.98711 4.02187 2.77422 4.2791C1.03867 6.35097 0 9.02031 0 11.9178Z" fill="white" fill-opacity="0.85"/>
  <path d="M8.15585 15.8771C8.55136 15.8771 8.77401 15.6217 8.77401 15.2262L8.77401 12.8197L9.83105 12.8197L10.9232 15.3914C11.0518 15.7096 11.2406 15.8771 11.5404 15.8771C11.8828 15.8771 12.1586 15.6545 12.1586 15.2848C12.1586 15.1305 12.093 15.002 12.0238 14.8316L11.023 12.5598C11.8279 12.1957 12.2037 11.3584 12.2037 10.4976C12.2037 9.16269 11.4271 8.18729 9.82265 8.18729L8.14784 8.18729C7.77011 8.18729 7.53417 8.43475 7.53417 8.82225L7.53417 15.2262C7.53417 15.6217 7.76035 15.8771 8.15585 15.8771ZM8.77401 11.8668L8.77401 9.19061L9.70468 9.19061C10.5045 9.19061 10.9471 9.71386 10.9471 10.5207C10.9471 11.3152 10.5373 11.8668 9.71093 11.8668ZM15.0422 15.8869C16.1803 15.8869 17.1478 15.2564 17.1478 14.0926C17.1478 13.1709 16.5894 12.7713 15.681 12.5332L14.8848 12.3271C14.4787 12.2205 14.1455 12.0117 14.1455 11.5869C14.1455 11.1043 14.518 10.8039 15.0041 10.8039C15.5248 10.8039 15.8623 11.1023 16.0639 11.5121C16.1533 11.6639 16.3174 11.751 16.4799 11.751C16.8037 11.751 16.9437 11.5672 16.9437 11.3242C16.9437 11.2541 16.9225 11.1519 16.8932 11.0623C16.6793 10.3699 15.8992 9.93007 15.0299 9.93007C13.81 9.93007 12.9766 10.5838 12.9766 11.6525C12.9766 12.5467 13.5662 13.0252 14.4266 13.241L15.2291 13.4488C15.6654 13.5635 15.9684 13.7715 15.9684 14.2176C15.9684 14.6992 15.6023 15.0068 15.0805 15.0068C14.5002 15.0068 14.1777 14.8078 13.8758 14.2959C13.734 14.0775 13.5459 13.9879 13.3658 13.9879C13.0926 13.9879 12.8894 14.1795 12.8894 14.4545C12.8894 14.5379 12.9223 14.6398 12.9586 14.7365C13.2266 15.5377 14.1658 15.8869 15.0422 15.8869Z" fill="white" fill-opacity="0.85"/>
 </g>
</svg>
