<?xml version="1.0" encoding="UTF-8"?>
<!--Generator: Apple Native CoreSVG 341-->
<!DOCTYPE svg
PUBLIC "-//W3C//DTD SVG 1.1//EN"
       "http://www.w3.org/Graphics/SVG/1.1/DTD/svg11.dtd">
<svg version="1.1" xmlns="http://www.w3.org/2000/svg" xmlns:xlink="http://www.w3.org/1999/xlink" viewBox="0 0 22.2675 21.9204">
 <g>
  <rect height="21.9204" opacity="0" width="22.2675" x="0" y="0"/>
  <path d="M8.09789 4.29242C8.72582 4.01703 9.39105 3.84027 10.0936 3.75238C10.3162 3.72757 10.475 3.55902 10.475 3.33461L10.475 0.440662C10.475 0.171913 10.2702-0.0232035 10.0014 0.00785115C8.69437 0.118789 7.44593 0.471328 6.29964 1.00941C6.06019 1.12562 5.9848 1.40238 6.11605 1.62855L7.55414 4.1141C7.66234 4.3057 7.885 4.37933 8.09789 4.29242Z" fill="white" fill-opacity="0.85"/>
  <path d="M5.14691 6.60355C5.56078 6.05375 6.0475 5.56703 6.60707 5.15316C6.7889 5.0139 6.83324 4.78148 6.72504 4.58988L5.28695 2.10609C5.1557 1.8764 4.87543 1.81078 4.65102 1.96508C3.6059 2.70824 2.70199 3.61215 1.96683 4.66527C1.8143 4.89144 1.87015 5.16195 2.10785 5.30121L4.59965 6.72328C4.79125 6.83949 5.00765 6.7934 5.14691 6.60355Z" fill="white" fill-opacity="0.85"/>
  <path d="M3.74789 10.0883C3.83402 9.3973 4.01253 8.72406 4.28168 8.1139C4.37484 7.89925 4.30921 7.6766 4.10785 7.56039L1.61605 6.13031C1.38012 5.99105 1.11137 6.07445 1.00316 6.3139C0.465078 7.45843 0.120546 8.69262 0.00160101 10.0077C-0.0116801 10.2764 0.173671 10.4733 0.44242 10.4733L3.33812 10.4733C3.56254 10.4733 3.73285 10.3225 3.74789 10.0883Z" fill="white" fill-opacity="0.85"/>
  <path d="M4.27992 13.8127C4.02054 13.1946 3.84203 12.5231 3.75589 11.8205C3.73285 11.5881 3.56254 11.4373 3.33812 11.4373L0.44242 11.4373C0.173671 11.4373-0.019688 11.6325 0.00160101 11.903C0.112538 13.226 0.465078 14.4664 1.01117 15.6127C1.11937 15.8602 1.38012 15.9436 1.62406 15.8043L4.10785 14.3582C4.30921 14.242 4.37308 14.0194 4.27992 13.8127Z" fill="white" fill-opacity="0.85"/>
  <path d="M6.60707 16.7655C6.05726 16.3596 5.56078 15.8729 5.15492 15.3133C5.01566 15.1332 4.79125 15.0791 4.59164 15.1953L2.10785 16.6174C1.87015 16.7567 1.8143 17.0334 1.95883 17.2614C2.70199 18.3065 3.61391 19.2121 4.65902 19.9536C4.88519 20.1078 5.16371 20.0387 5.29496 19.8125L6.72504 17.3207C6.83324 17.1291 6.7889 16.9047 6.60707 16.7655Z" fill="white" fill-opacity="0.85"/>
  <path d="M10.0936 18.1662C9.39906 18.0784 8.72582 17.8998 8.10589 17.6405C7.90101 17.5393 7.67035 17.6129 7.56215 17.8045L6.12406 20.2883C5.99281 20.5243 6.06996 20.801 6.31566 20.9092C7.45394 21.4473 8.69437 21.7998 10.0014 21.9188C10.2702 21.9321 10.475 21.7467 10.475 21.478L10.475 18.584C10.475 18.3596 10.3162 18.1911 10.0936 18.1662Z" fill="white" fill-opacity="0.85"/>
  <path d="M13.8118 17.6325C13.1981 17.8998 12.5248 18.0784 11.8143 18.1662C11.5899 18.1911 11.4311 18.3596 11.4311 18.584L11.4311 21.478C11.4311 21.7467 11.636 21.9401 11.9047 21.9188C13.2118 21.8078 14.47 21.4473 15.6082 20.9092C15.8477 20.801 15.9231 20.5225 15.7918 20.2866L14.3537 17.8045C14.2455 17.6129 14.0229 17.5393 13.8118 17.6325Z" fill="white" fill-opacity="0.85"/>
  <path d="M16.769 15.3133C16.3551 15.8649 15.8621 16.3436 15.3106 16.7655C15.1287 16.9047 15.0746 17.1371 15.1846 17.3207L16.6227 19.8045C16.7522 20.0342 17.0325 20.1078 17.2569 19.9536C18.31 19.2104 19.2077 18.2985 19.9491 17.2596C20.1016 17.0334 20.028 16.7567 19.8018 16.6174L17.3162 15.1873C17.1327 15.0711 16.9082 15.1332 16.769 15.3133Z" fill="white" fill-opacity="0.85"/>
  <path d="M18.168 11.8205C18.0819 12.5231 17.9051 13.1946 17.628 13.8145C17.5411 14.0194 17.6067 14.234 17.8063 14.3502L20.2918 15.7803C20.526 15.9196 20.7983 15.8522 20.9145 15.595C21.441 14.4584 21.7936 13.218 21.9045 11.903C21.9178 11.6325 21.7307 11.4373 21.4637 11.4373L18.5778 11.4373C18.3534 11.4373 18.1848 11.5881 18.168 11.8205Z" fill="white" fill-opacity="0.85"/>
  <path d="M17.628 8.10414C17.8891 8.72406 18.0819 9.39554 18.16 10.0883C18.1848 10.3225 18.3534 10.4733 18.5778 10.4733L21.4637 10.4733C21.7307 10.4733 21.9258 10.2764 21.9045 10.0077C21.7953 8.70238 21.441 7.45394 20.9145 6.31566C20.7983 6.06644 20.518 5.99105 20.2918 6.13031L17.7983 7.5684C17.6067 7.68461 17.5411 7.89925 17.628 8.10414Z" fill="white" fill-opacity="0.85"/>
  <path d="M15.3106 5.15316C15.8586 5.56703 16.3471 6.04574 16.769 6.60355C16.9082 6.78539 17.1327 6.8475 17.3162 6.73129L19.8018 5.30121C20.036 5.16195 20.1016 4.89144 19.9588 4.66703C19.2157 3.61215 18.302 2.69672 17.2569 1.96508C17.0325 1.81078 16.7522 1.87816 16.6227 2.1141L15.1926 4.58988C15.0746 4.78949 15.1207 5.0139 15.3106 5.15316Z" fill="white" fill-opacity="0.85"/>
  <path d="M11.8125 3.75238C12.5248 3.83226 13.1821 4.01703 13.8118 4.29242C14.0229 4.37933 14.2455 4.3057 14.3537 4.1141L15.7918 1.62855C15.9231 1.40238 15.8397 1.12562 15.5922 1.00941C14.4557 0.471328 13.2215 0.118789 11.9047 0.00785115C11.636-0.0151956 11.4311 0.179921 11.4311 0.44867L11.4311 3.33461C11.4311 3.55902 11.5899 3.72757 11.8125 3.75238Z" fill="white" fill-opacity="0.85"/>
  <path d="M7.19515 14.8289C7.58265 14.8289 7.81331 14.5797 7.81331 14.186L7.81331 11.7715L8.86234 11.7715L9.95453 14.3512C10.083 14.6676 10.2719 14.8289 10.5797 14.8289C10.9239 14.8289 11.1899 14.6045 11.1899 14.2446C11.1899 14.0885 11.1323 13.9538 11.0569 13.7817L10.0623 11.5196C10.8592 11.1555 11.235 10.3182 11.235 9.44945C11.235 8.11449 10.4584 7.1471 8.86195 7.1471L7.18714 7.1471C6.8014 7.1471 6.56547 7.39456 6.56547 7.78206L6.56547 14.186C6.56547 14.5797 6.8014 14.8289 7.19515 14.8289ZM7.81331 10.8248L7.81331 8.14866L8.74574 8.14866C9.53578 8.14866 9.98637 8.67366 9.98637 9.47249C9.98637 10.275 9.56859 10.8248 8.75023 10.8248ZM14.0815 14.8387C15.2213 14.8387 16.1871 14.2163 16.1871 13.0524C16.1871 12.1227 15.6287 11.7311 14.7123 11.493L13.9161 11.287C13.5118 11.1803 13.1768 10.9618 13.1768 10.5467C13.1768 10.0641 13.5573 9.76195 14.0371 9.76195C14.5641 9.76195 14.9034 10.0621 15.1032 10.4719C15.1926 10.6139 15.3567 10.7028 15.5112 10.7028C15.843 10.7028 15.983 10.519 15.983 10.2823C15.983 10.2139 15.9618 10.11 15.9342 10.0203C15.7186 9.32172 14.9385 8.88812 14.0692 8.88812C12.8412 8.88812 12.0159 9.54359 12.0159 10.6043C12.0159 11.4985 12.5975 11.985 13.4579 12.2008L14.2604 12.4006C14.6967 12.5153 14.9997 12.7295 14.9997 13.1774C14.9997 13.659 14.6336 13.9666 14.1118 13.9666C13.5315 13.9666 13.209 13.7676 12.9071 13.2557C12.7653 13.0373 12.5852 12.9477 12.4051 12.9477C12.1319 12.9477 11.9287 13.1393 11.9287 13.4143C11.9287 13.4897 11.9536 13.5916 11.9899 13.6963C12.2659 14.4895 13.1971 14.8387 14.0815 14.8387Z" fill="white" fill-opacity="0.85"/>
 </g>
</svg>
