<?xml version="1.0" encoding="UTF-8"?>
<!--Generator: Apple Native CoreSVG 341-->
<!DOCTYPE svg
PUBLIC "-//W3C//DTD SVG 1.1//EN"
       "http://www.w3.org/Graphics/SVG/1.1/DTD/svg11.dtd">
<svg version="1.1" xmlns="http://www.w3.org/2000/svg" xmlns:xlink="http://www.w3.org/1999/xlink" viewBox="0 0 20.5381 20.1848">
 <g>
  <rect height="20.1848" opacity="0" width="20.5381" x="0" y="0"/>
  <path d="M10.0875 20.175C15.6576 20.175 20.1767 15.6559 20.1767 10.0875C20.1767 4.51914 15.6576 0 10.0875 0C4.51914 0 0 4.51914 0 10.0875C0 15.6559 4.51914 20.175 10.0875 20.175ZM10.0875 18.1879C5.60839 18.1879 1.9871 14.5666 1.9871 10.0875C1.9871 5.60839 5.60839 1.9871 10.0875 1.9871C14.5666 1.9871 18.1897 5.60839 18.1897 10.0875C18.1897 14.5666 14.5666 18.1879 10.0875 18.1879Z" fill="white" fill-opacity="0.85"/>
  <path d="M6.32558 13.9611C6.72109 13.9611 6.94374 13.7119 6.94374 13.3182L6.94374 10.9037L8.00078 10.9037L9.08496 13.4834C9.21523 13.7998 9.40234 13.9611 9.71015 13.9611C10.0543 13.9611 10.3283 13.7367 10.3283 13.3768C10.3283 13.2207 10.2627 13.0859 10.1873 12.9139L9.19277 10.6518C9.98964 10.2877 10.3654 9.45038 10.3654 8.58163C10.3654 7.24667 9.59062 6.27929 7.99238 6.27929L6.31757 6.27929C5.93183 6.27929 5.7039 6.52675 5.7039 6.91424L5.7039 13.3182C5.7039 13.7119 5.93183 13.9611 6.32558 13.9611ZM6.94374 9.95703L6.94374 7.28085L7.87617 7.28085C8.67422 7.28085 9.1168 7.80585 9.1168 8.60468C9.1168 9.40722 8.69902 9.95703 7.88242 9.95703ZM13.2119 13.9709C14.3518 13.9709 15.3176 13.3484 15.3176 12.1846C15.3176 11.2549 14.7592 10.8633 13.8428 10.6252L13.0545 10.4191C12.6422 10.3125 12.3072 10.0939 12.3072 9.6789C12.3072 9.19628 12.6877 8.89413 13.1756 8.89413C13.6945 8.89413 14.0338 9.19433 14.2336 9.60409C14.323 9.74609 14.4871 9.83495 14.6514 9.83495C14.9734 9.83495 15.1135 9.65117 15.1135 9.41445C15.1135 9.34609 15.0922 9.24218 15.0646 9.15253C14.849 8.4539 14.0689 8.02031 13.1996 8.02031C11.9814 8.02031 11.1463 8.67578 11.1463 9.73652C11.1463 10.6307 11.7279 11.1172 12.5963 11.333L13.3908 11.5328C13.8352 11.6475 14.1301 11.8617 14.1301 12.3096C14.1301 12.7912 13.7641 13.0988 13.2502 13.0988C12.6619 13.0988 12.3475 12.8998 12.0455 12.3879C11.9037 12.1695 11.7156 12.0799 11.5355 12.0799C11.2623 12.0799 11.0592 12.2715 11.0592 12.5465C11.0592 12.6219 11.092 12.7238 11.1203 12.8285C11.3963 13.6217 12.3275 13.9709 13.2119 13.9709Z" fill="white" fill-opacity="0.85"/>
 </g>
</svg>
