<?xml version="1.0" encoding="UTF-8"?>
<!--Generator: Apple Native CoreSVG 341-->
<!DOCTYPE svg
PUBLIC "-//W3C//DTD SVG 1.1//EN"
       "http://www.w3.org/Graphics/SVG/1.1/DTD/svg11.dtd">
<svg version="1.1" xmlns="http://www.w3.org/2000/svg" xmlns:xlink="http://www.w3.org/1999/xlink" viewBox="0 0 18.5894 18.2316">
 <g>
  <rect height="18.2316" opacity="0" width="18.5894" x="0" y="0"/>
  <path d="M18.2281 3.17148L18.2281 15.0646C18.2281 17.1502 17.1404 18.2281 15.0246 18.2281L3.20351 18.2281C1.0957 18.2281 0 17.1502 0 15.0646L0 3.17148C0 1.08769 1.0957 0 3.20351 0L15.0246 0C17.1404 0 18.2281 1.08769 18.2281 3.17148ZM5.51387 7.05566C5.51387 8.37265 6.37461 9.13925 7.98984 9.53729L9.35625 9.90624C10.5371 10.2084 10.9191 10.476 10.9191 11.1158C10.9191 11.9061 10.1521 12.3416 9.13828 12.3416C8.17323 12.3416 7.5076 11.9807 7.09979 11.252C6.87206 10.9019 6.63437 10.7367 6.26249 10.7367C5.76679 10.7367 5.42812 11.0568 5.42812 11.542C5.42812 11.7193 5.47597 11.9029 5.5664 12.0955C5.9541 13.0297 7.19589 13.8551 9.02304 13.8551C11.358 13.8551 12.8863 12.7297 12.8863 10.9457C12.8863 9.57539 11.9133 8.79981 10.1404 8.37324L8.84198 8.04883C7.86639 7.81601 7.48534 7.48535 7.48534 6.91933C7.48534 6.1744 8.10839 5.70057 9.07265 5.70057C9.98808 5.70057 10.5631 6.04823 10.9393 6.80019C11.1463 7.13749 11.3752 7.31073 11.7869 7.31073C12.2533 7.31073 12.5877 7.04472 12.5877 6.54609C12.5877 6.38925 12.5514 6.1959 12.4637 6.00605C12.0512 4.9705 10.8068 4.22792 9.13046 4.22792C6.98281 4.22792 5.51387 5.38984 5.51387 7.05566Z" fill="white" fill-opacity="0.85"/>
 </g>
</svg>
