<?xml version="1.0" encoding="UTF-8"?>
<!--Generator: Apple Native CoreSVG 341-->
<!DOCTYPE svg
PUBLIC "-//W3C//DTD SVG 1.1//EN"
       "http://www.w3.org/Graphics/SVG/1.1/DTD/svg11.dtd">
<svg version="1.1" xmlns="http://www.w3.org/2000/svg" xmlns:xlink="http://www.w3.org/1999/xlink" viewBox="0 0 20.5381 20.1848">
 <g>
  <rect height="20.1848" opacity="0" width="20.5381" x="0" y="0"/>
  <path d="M20.1767 10.0973C20.1767 15.6656 15.6576 20.1848 10.0875 20.1848C4.52715 20.1848 0 15.6656 0 10.0973C0 4.53691 4.52715 0.00976562 10.0875 0.00976562C15.6576 0.00976562 20.1767 4.53691 20.1767 10.0973ZM9.84179 4.59179L9.66328 6.53496L5.92812 11.7475C5.64062 12.1557 5.78789 12.5469 6.26347 12.5877C7.1789 12.6934 8.17617 12.7066 9.11738 12.6285L9.04277 13.465C8.07675 13.4863 7.10976 13.4881 6.19589 13.4881C5.76464 13.4881 5.5455 13.8031 5.69101 14.1891L6.05683 15.1871C6.22636 15.6353 6.51366 15.8252 7.0123 15.8252L12.0709 15.8252C12.5045 15.8252 12.7707 15.724 13.0873 15.4455C13.556 15.0344 14.2469 13.9965 14.2469 13.5873C14.2469 13.3273 14.065 13.109 13.6648 13.1578C12.5066 13.3115 11.2219 13.3914 9.92382 13.4402L9.99667 12.609C11.2326 12.7209 12.473 12.6658 13.2668 12.5424C13.9201 12.443 14.2477 12.1785 14.4678 11.5838C14.7164 10.9613 14.806 10.2795 14.806 9.53906C14.806 7.62128 13.9178 5.40996 11.3293 4.04687C11.0879 3.91816 10.866 3.86406 10.6539 3.86406C10.2359 3.86406 9.8746 4.13027 9.84179 4.59179ZM10.7619 4.87011C11.0924 5.8162 11.2656 6.9871 11.2656 8.05566C11.2656 9.51113 10.8375 10.8215 10.059 11.6568L10.6353 4.88866C10.6371 4.80097 10.7256 4.79393 10.7619 4.87011Z" fill="white" fill-opacity="0.85"/>
 </g>
</svg>
