<?xml version="1.0" encoding="UTF-8"?>
<!--Generator: Apple Native CoreSVG 341-->
<!DOCTYPE svg
PUBLIC "-//W3C//DTD SVG 1.1//EN"
       "http://www.w3.org/Graphics/SVG/1.1/DTD/svg11.dtd">
<svg version="1.1" xmlns="http://www.w3.org/2000/svg" xmlns:xlink="http://www.w3.org/1999/xlink" viewBox="0 0 22.1848 27.2652">
 <g>
  <rect height="27.2652" opacity="0" width="22.1848" x="0" y="0"/>
  <path d="M8.98906 21.6965L10.657 21.6965L12.3432 2.12537C12.3609 2.0117 12.5074 1.99041 12.5465 2.09783C13.3621 4.116 13.849 6.51073 13.849 8.87871C13.849 12.083 12.9691 15.2443 10.7922 17.3371L10.558 19.1469C13.4199 19.4451 16.2941 19.3527 18.1351 19.066C19.5996 18.8441 20.3176 18.2531 20.8021 16.9582C21.3197 15.5945 21.5461 14.0748 21.5461 12.4662C21.5461 8.23965 19.5719 3.39512 13.9027 0.40996C13.3916 0.133984 12.8752 0 12.4359 0C11.5336 0 10.8682 0.554491 10.7848 1.56074ZM2.76484 19.1557C5.04531 19.4016 7.50449 19.4078 9.78495 19.1566L11.0133 4.76993L2.02949 17.29C1.38535 18.1844 1.73574 19.0492 2.76484 19.1557ZM5.76738 22.5021C7.0119 22.5021 7.98612 23.0207 9.08866 23.8221C9.77128 24.3449 9.99609 24.4986 10.4377 24.4986C10.8793 24.4986 11.1023 24.3449 11.7867 23.8221C12.8795 23.0207 13.8555 22.5021 15.1062 22.5021C16.3576 22.5021 17.3 23.0082 18.3617 23.7723C18.5428 23.9125 18.7008 24.0217 18.8295 24.1016C19.618 23.1738 20.301 21.9518 20.301 21.2894C20.301 20.6939 19.8769 20.1955 18.9951 20.3117C13.8717 21.0344 8.00956 21.0344 2.63847 21.0344C1.69804 21.0344 1.19863 21.7582 1.51093 22.6152L2.04668 24.0928C2.18164 24.0146 2.32637 23.8992 2.50566 23.7723C3.58242 23.0047 4.53262 22.5021 5.76738 22.5021ZM10.4377 27.2474C13.1818 27.2474 13.5922 25.251 15.1062 25.251C16.6461 25.251 16.893 27.2474 20.0137 27.2474L21.0273 27.2474C21.4697 27.2474 21.8234 26.8955 21.8234 26.4531C21.8234 26.0125 21.4697 25.6525 21.0273 25.6525L20.0137 25.6525C19.0293 25.6525 18.4557 25.2562 17.6933 24.7078C17.0533 24.2436 16.2535 23.6561 15.1062 23.6561C13.948 23.6561 13.1191 24.2756 12.4791 24.7478C11.8 25.2672 11.2769 25.6525 10.4377 25.6525C9.58866 25.6525 9.07538 25.2672 8.39452 24.7478C7.75624 24.2756 6.92558 23.6561 5.76738 23.6561C4.64296 23.6561 3.82031 24.2436 3.18203 24.7078C2.41797 25.2562 1.83633 25.6525 0.859956 25.6525L0.802339 25.6525C0.351951 25.6525 0 26.0125 0 26.4531C0 26.8955 0.351951 27.2474 0.802339 27.2474L0.859956 27.2474C3.97265 27.2474 4.22929 25.251 5.76738 25.251C7.2832 25.251 7.68554 27.2474 10.4377 27.2474Z" fill="white" fill-opacity="0.85"/>
 </g>
</svg>
