<?xml version="1.0" encoding="UTF-8"?>
<!--Generator: Apple Native CoreSVG 341-->
<!DOCTYPE svg
PUBLIC "-//W3C//DTD SVG 1.1//EN"
       "http://www.w3.org/Graphics/SVG/1.1/DTD/svg11.dtd">
<svg version="1.1" xmlns="http://www.w3.org/2000/svg" xmlns:xlink="http://www.w3.org/1999/xlink" viewBox="0 0 20.0116 21.3258">
 <g>
  <rect height="21.3258" opacity="0" width="20.0116" x="0" y="0"/>
  <path d="M0.14908 17.7287C-0.386857 19.883 0.54107 21.1445 2.62876 21.1445L17.0215 21.1445C19.1075 21.1445 20.0354 19.883 19.5012 17.7287L17.3536 9.02557C16.9694 7.48456 15.8674 6.61406 14.2858 6.61406L5.3645 6.61406C3.78287 6.61406 2.67291 7.48456 2.29674 9.02557ZM2.01352 17.8562L4.09907 9.6287C4.28754 8.88377 4.72036 8.52732 5.44653 8.52732L14.2038 8.52732C14.9299 8.52732 15.361 8.88377 15.5512 9.6287L17.6368 17.8562C17.8723 18.7566 17.5204 19.2312 16.7374 19.2312L2.90317 19.2312C2.12993 19.2312 1.77621 18.7566 2.01352 17.8562ZM8.86451 8.05018L10.7778 8.05018L10.7778 4.92773L8.86451 4.92773ZM9.82427 5.87577C11.4241 5.87577 12.7702 4.54569 12.7702 2.94765C12.7702 1.33984 11.4223 0 9.82427 0C8.21822 0 6.88013 1.33984 6.88013 2.94765C6.88013 4.5537 8.22623 5.87577 9.82427 5.87577ZM9.82427 4.27402C9.10552 4.27402 8.48989 3.6664 8.48989 2.94765C8.48989 2.22714 9.09751 1.60351 9.82427 1.60351C10.5465 1.60351 11.1604 2.22714 11.1604 2.94765C11.1604 3.66992 10.5545 4.27402 9.82427 4.27402Z" fill="white" fill-opacity="0.85"/>
 </g>
</svg>
