<?xml version="1.0" encoding="UTF-8"?>
<!--Generator: Apple Native CoreSVG 341-->
<!DOCTYPE svg
PUBLIC "-//W3C//DTD SVG 1.1//EN"
       "http://www.w3.org/Graphics/SVG/1.1/DTD/svg11.dtd">
<svg version="1.1" xmlns="http://www.w3.org/2000/svg" xmlns:xlink="http://www.w3.org/1999/xlink" viewBox="0 0 20.5381 20.1812">
 <g>
  <rect height="20.1812" opacity="0" width="20.5381" x="0" y="0"/>
  <path d="M20.1767 10.0875C20.1767 15.6559 15.6576 20.175 10.0875 20.175C4.52715 20.175 0 15.6559 0 10.0875C0 4.52715 4.52715 0 10.0875 0C15.6576 0 20.1767 4.52715 20.1767 10.0875ZM14.151 7.37636L10.1607 8.8041C9.60058 9.01894 9.33867 9.30742 9.18691 9.83027L9.09726 10.1703C9.0334 10.4162 8.92324 10.5254 8.53808 10.7242L7.90312 11.0666C7.79042 11.1189 7.73183 11.1385 7.63417 11.1385C7.24355 11.1385 7.11386 10.7842 6.23495 10.7842C5.17226 10.7842 4.32265 11.6355 4.32265 12.6937C4.32265 13.7564 5.17226 14.6141 6.23495 14.6141C7.28691 14.6141 8.14452 13.7645 8.14452 12.6937C8.14452 12.3004 8.16933 12.1504 8.46308 11.9986L16.3117 7.84121C16.1297 7.11074 15.3521 6.93691 14.151 7.37636ZM7.27265 12.692C7.27265 13.2811 6.808 13.7475 6.23495 13.7475C5.65566 13.7475 5.19101 13.2811 5.19101 12.692C5.19101 12.1109 5.65566 11.6463 6.23495 11.6463C6.808 11.6463 7.27265 12.1109 7.27265 12.692ZM10.6159 11.5092L14.151 12.7756C15.3521 13.2133 16.1297 13.0412 16.3117 12.3187L12.6998 10.4063ZM10.6447 9.808C10.6447 10.0176 10.4725 10.1818 10.2727 10.1818C10.0711 10.1818 9.88906 10.0176 9.88906 9.808C9.88906 9.59843 10.0711 9.44394 10.2727 9.44394C10.4725 9.44394 10.6447 9.59843 10.6447 9.808ZM4.32265 7.4582C4.32265 8.52265 5.17226 9.36601 6.23495 9.36601C7.11386 9.36601 7.24355 9.01972 7.63417 9.01972C7.73183 9.01972 7.79042 9.033 7.90312 9.09335L8.53808 9.42597C8.59117 9.45362 8.63903 9.47949 8.68181 9.5041C8.81591 9.12753 9.01454 8.837 9.30986 8.61143L8.46308 8.16308C8.16933 8.00156 8.14452 7.85156 8.14452 7.4582C8.14452 6.38573 7.28691 5.53613 6.23495 5.53613C5.17226 5.53613 4.32265 6.39374 4.32265 7.4582ZM7.27265 7.46171C7.27265 8.04101 6.808 8.50742 6.23495 8.50742C5.65566 8.50742 5.19101 8.04101 5.19101 7.46171C5.19101 6.87265 5.65566 6.40448 6.23495 6.40448C6.808 6.40448 7.27265 6.87265 7.27265 7.46171Z" fill="white" fill-opacity="0.85"/>
 </g>
</svg>
