<?xml version="1.0" encoding="UTF-8"?>
<!--Generator: Apple Native CoreSVG 341-->
<!DOCTYPE svg
PUBLIC "-//W3C//DTD SVG 1.1//EN"
       "http://www.w3.org/Graphics/SVG/1.1/DTD/svg11.dtd">
<svg version="1.1" xmlns="http://www.w3.org/2000/svg" xmlns:xlink="http://www.w3.org/1999/xlink" viewBox="0 0 24.2414 23.8898">
 <g>
  <rect height="23.8898" opacity="0" width="24.2414" x="0" y="0"/>
  <path d="M11.1641 19.3903L11.1641 21.2653C6.62538 20.8969 3.00163 17.2732 2.62287 12.7355L4.49834 12.7355C4.86887 16.241 7.6567 19.0283 11.1641 19.3903ZM12.7275 21.2649L12.7275 19.3893C16.2382 19.0247 19.0245 16.2388 19.395 12.7355L21.2704 12.7355C20.8912 17.2707 17.2647 20.8928 12.7275 21.2649ZM21.2722 11.1721L19.4003 11.1721C19.044 7.65281 16.2505 4.85472 12.7275 4.48971L12.7275 2.61589C17.2767 2.98825 20.9103 6.62195 21.2722 11.1721ZM11.1641 4.48871C7.6444 4.85119 4.84932 7.65059 4.49302 11.1721L2.62104 11.1721C2.98253 6.61941 6.61342 2.98419 11.1641 2.61551Z" fill="white" fill-opacity="0.85"/>
  <path d="M11.9418 8.14863C12.3879 8.14863 12.7275 7.79922 12.7275 7.36113L12.7275 0.79902C12.7275 0.360936 12.3879 0.00976562 11.9418 0.00976562C11.5037 0.00976562 11.1641 0.360936 11.1641 0.79902L11.1641 7.36113C11.1641 7.79922 11.5037 8.14863 11.9418 8.14863ZM0.787497 12.7355L7.35137 12.7355C7.78945 12.7355 8.13886 12.3879 8.13886 11.9498C8.13886 11.5117 7.78945 11.1721 7.35137 11.1721L0.787497 11.1721C0.349413 11.1721 0 11.5117 0 11.9498C0 12.3879 0.349413 12.7355 0.787497 12.7355ZM11.9418 23.8898C12.3879 23.8898 12.7275 23.5404 12.7275 23.1023L12.7275 16.5402C12.7275 16.1004 12.3879 15.759 11.9418 15.759C11.5037 15.759 11.1641 16.1004 11.1641 16.5402L11.1641 23.1023C11.1641 23.5404 11.5037 23.8898 11.9418 23.8898ZM16.5287 12.7355L23.0908 12.7355C23.5307 12.7355 23.8801 12.3879 23.8801 11.9498C23.8801 11.5117 23.5307 11.1721 23.0908 11.1721L16.5287 11.1721C16.0906 11.1721 15.7412 11.5117 15.7412 11.9498C15.7412 12.3879 16.0906 12.7355 16.5287 12.7355Z" fill="white" fill-opacity="0.85"/>
 </g>
</svg>
