<?xml version="1.0" encoding="UTF-8"?>
<!--Generator: Apple Native CoreSVG 341-->
<!DOCTYPE svg
PUBLIC "-//W3C//DTD SVG 1.1//EN"
       "http://www.w3.org/Graphics/SVG/1.1/DTD/svg11.dtd">
<svg version="1.1" xmlns="http://www.w3.org/2000/svg" xmlns:xlink="http://www.w3.org/1999/xlink" viewBox="0 0 21.2651 20.1885">
 <g>
  <rect height="20.1885" opacity="0" width="21.2651" x="0" y="0"/>
  <path d="M0.528664 12.8144C1.13315 13.3978 2.28686 13.5335 3.1851 12.7239C3.51908 12.4263 4.15032 11.7507 5.14954 10.7515C10.0273 5.81067 13.0406 2.69425 13.5732 3.18488C14.006 3.57043 12.3443 5.92571 10.6755 8.23001C7.64508 12.4468 5.0902 15.521 7.01207 17.4429C8.51988 18.9507 10.7978 17.5755 14.4564 14.3659C16.4193 12.6374 17.7937 11.3552 18.1232 11.6927C18.3505 11.9103 17.8279 12.7597 17.1675 13.9044C16.2238 15.5238 14.9736 17.3534 16.1943 18.5724C17.0529 19.4212 18.6685 19.0558 20.5566 17.1927C20.9449 16.8027 21.0318 16.3454 20.7083 16.0238C20.4017 15.7269 19.9693 15.773 19.6441 16.0628C18.422 17.2415 17.5193 17.7441 17.365 17.58C17.1822 17.4034 17.6976 16.471 18.6041 14.8706C19.848 12.6618 20.6062 11.1749 19.4556 10.0572C17.9261 8.57201 16.1295 10.1408 13.008 12.8867C10.3708 15.2091 9.28824 15.8224 9.03843 15.5613C8.69155 15.1853 9.66595 13.8667 12.558 9.82609C15.6746 5.46848 17.5373 2.63352 15.7759 0.923761C13.4794-1.31764 10.3916 0.337242 2.74389 7.90405C1.64428 8.9939 0.947605 9.66303 0.598977 10.0681C-0.288322 11.0915-0.0846132 12.2222 0.528664 12.8144Z" fill="white" fill-opacity="0.85"/>
 </g>
</svg>
