<?xml version="1.0" encoding="UTF-8"?>
<!--Generator: Apple Native CoreSVG 341-->
<!DOCTYPE svg
PUBLIC "-//W3C//DTD SVG 1.1//EN"
       "http://www.w3.org/Graphics/SVG/1.1/DTD/svg11.dtd">
<svg version="1.1" xmlns="http://www.w3.org/2000/svg" xmlns:xlink="http://www.w3.org/1999/xlink" viewBox="0 0 21.5728 20.984">
 <g>
  <rect height="20.984" opacity="0" width="21.5728" x="0" y="0"/>
  <path d="M0 4.85664C0 5.51464 0.44863 5.95351 1.12617 5.95351L3.46309 5.95351L3.46309 17.7812C3.46309 19.9094 4.52344 20.9777 6.64804 20.9777L18.0053 20.9777C19.9328 20.9777 21.2115 19.6484 21.2115 17.6543L21.2115 14.8961C21.2115 14.2363 20.7629 13.7992 20.0853 13.7992L19.2871 13.7992L19.2871 3.20527C19.2871 1.0957 18.1994 0 16.1156 0L2.69218 0C1.0914 0 0 1.10019 0 2.80136ZM5.37636 17.7102L5.37636 2.91737C5.37636 2.55389 5.34432 2.21444 5.28026 1.91327L15.9469 1.91327C16.8975 1.91327 17.3738 2.40643 17.3738 3.3162L17.3738 13.7992L9.20136 13.7992C8.52383 13.7992 8.06719 14.2363 8.06719 14.8961L8.06719 17.7102C8.06719 18.5197 7.5082 19.0645 6.73066 19.0645C5.9371 19.0645 5.37636 18.4957 5.37636 17.7102ZM1.83065 4.12285L1.83065 2.80136C1.83065 2.18984 2.19609 1.83241 2.69218 1.83241C3.20429 1.83241 3.5457 2.18984 3.5457 2.80136L3.5457 4.12285ZM9.65233 19.0645C9.86307 18.6594 9.98045 18.1725 9.98045 17.5957L9.98045 15.7125L19.2982 15.7125L19.2982 17.5717C19.2982 18.4699 18.749 19.0645 17.9244 19.0645ZM8.09042 9.31171L11.5453 9.31171C11.9057 9.31171 12.1684 9.04902 12.1684 8.7082C12.1684 8.35585 11.9057 8.07538 11.5453 8.07538L8.09042 8.07538C7.72656 8.07538 7.45761 8.35585 7.45761 8.7082C7.45761 9.04902 7.72656 9.31171 8.09042 9.31171ZM8.09042 5.97206L14.6633 5.97206C15.0219 5.97206 15.2846 5.6996 15.2846 5.34726C15.2846 5.00644 15.0219 4.73573 14.6633 4.73573L8.09042 4.73573C7.72656 4.73573 7.45761 5.00644 7.45761 5.34726C7.45761 5.6996 7.72656 5.97206 8.09042 5.97206Z" fill="white" fill-opacity="0.85"/>
 </g>
</svg>
