<?xml version="1.0" encoding="UTF-8"?>
<!--Generator: Apple Native CoreSVG 341-->
<!DOCTYPE svg
PUBLIC "-//W3C//DTD SVG 1.1//EN"
       "http://www.w3.org/Graphics/SVG/1.1/DTD/svg11.dtd">
<svg version="1.1" xmlns="http://www.w3.org/2000/svg" xmlns:xlink="http://www.w3.org/1999/xlink" viewBox="0 0 21.491 20.984">
 <g>
  <rect height="20.984" opacity="0" width="21.491" x="0" y="0"/>
  <path d="M0 4.85664C0 5.51464 0.44863 5.95351 1.12617 5.95351L2.15606 5.95351L2.15606 2.59179C2.15606 1.97656 1.6666 1.53164 1.07891 1.53164C0.491212 1.52363 0 1.96855 0 2.59179ZM2.60488 0C3.33144 0.398048 3.57558 0.954885 3.57558 1.95411L3.57558 18.3516C3.57558 19.7004 4.3543 20.4527 5.47813 20.4527C6.5334 20.4527 7.27911 19.7139 7.27911 18.4174L7.27911 15.6184C7.27911 14.2076 7.96192 13.4607 9.38066 13.4607L19.0416 13.4607L19.0416 3.20527C19.0416 1.0957 17.9539 0 15.8701 0ZM7.45761 5.18379C7.45761 4.84121 7.72656 4.57226 8.09042 4.57226L14.7248 4.57226C15.0852 4.57226 15.3461 4.84121 15.3461 5.18379C15.3461 5.53613 15.0852 5.80859 14.7248 5.80859L8.09042 5.80859C7.72656 5.80859 7.45761 5.53613 7.45761 5.18379ZM7.45761 8.54297C7.45761 8.19062 7.72656 7.91016 8.09042 7.91016L11.6068 7.91016C11.9672 7.91016 12.2299 8.19062 12.2299 8.54297C12.2299 8.88555 11.9672 9.14648 11.6068 9.14648L8.09042 9.14648C7.72656 9.14648 7.45761 8.88555 7.45761 8.54297ZM7.73047 20.9777L17.9234 20.9777C19.851 20.9777 21.1297 19.8383 21.1297 17.8441L21.1297 15.9869C21.1297 15.3271 20.681 14.882 20.0035 14.882L9.83281 14.882C9.15527 14.882 8.69863 15.3271 8.69863 15.9869L8.69863 18.0187C8.69863 19.1892 8.51699 20.173 7.73047 20.9777Z" fill="white" fill-opacity="0.85"/>
 </g>
</svg>
