<?xml version="1.0" encoding="UTF-8"?>
<!--Generator: Apple Native CoreSVG 341-->
<!DOCTYPE svg
PUBLIC "-//W3C//DTD SVG 1.1//EN"
       "http://www.w3.org/Graphics/SVG/1.1/DTD/svg11.dtd">
<svg version="1.1" xmlns="http://www.w3.org/2000/svg" xmlns:xlink="http://www.w3.org/1999/xlink" viewBox="0 0 17.107 21.1476">
 <g>
  <rect height="21.1476" opacity="0" width="17.107" x="0" y="0"/>
  <path d="M3.17148 21.1476L13.5742 21.1476C15.6678 21.1476 16.7457 20.06 16.7457 17.9504L16.7457 3.21503C16.7457 1.11347 15.6598 0.00976562 13.5742 0.00976562L7.20897 0.00976562C6.19999 0.00976562 5.50976 0.275584 4.87656 0.922065L0.835152 4.95547C0.233787 5.56484 0 6.18573 0 7.22811L0 17.9504C0 20.0519 1.07968 21.1476 3.17148 21.1476ZM3.33222 19.2344C2.38163 19.2344 1.91327 18.7412 1.91327 17.8314L1.91327 7.29257C1.91327 6.66308 2.03827 6.30839 2.38182 5.96308L5.78964 2.52147C6.18515 2.10819 6.63886 1.92479 7.24647 1.92479L13.4152 1.92479C14.3641 1.92479 14.8324 2.43397 14.8324 3.33398L14.8324 17.8314C14.8324 18.7412 14.3641 19.2344 13.4232 19.2344ZM6.04629 4.36092L6.04629 7.35448C6.04629 7.72538 6.34707 8.01639 6.70996 8.01639C7.07109 8.01639 7.3541 7.72538 7.3541 7.35448L7.3541 4.36092C7.3541 3.98026 7.07461 3.69901 6.70996 3.69901C6.34707 3.69901 6.04629 3.99003 6.04629 4.36092ZM8.05 4.36092L8.05 7.35448C8.05 7.72538 8.35078 8.01639 8.72343 8.01639C9.0748 8.01639 9.36582 7.72538 9.36582 7.35448L9.36582 4.36092C9.36582 3.99003 9.08632 3.69901 8.72343 3.69901C8.34277 3.69901 8.05 3.99003 8.05 4.36092ZM10.075 4.36092L10.075 7.35448C10.075 7.72538 10.366 8.01639 10.7174 8.01639C11.0803 8.01639 11.3695 7.71737 11.3695 7.35448L11.3695 4.36092C11.3695 3.98026 11.09 3.69901 10.7174 3.69901C10.3545 3.69901 10.075 3.99003 10.075 4.36092ZM12.0867 4.36092L12.0867 7.34472C12.0867 7.72362 12.3777 8.01639 12.7309 8.01639C13.0937 8.01639 13.3848 7.72538 13.3848 7.34472L13.3848 4.36092C13.3848 3.98026 13.0955 3.69901 12.7309 3.69901C12.3697 3.69901 12.0867 3.99003 12.0867 4.36092Z" fill="white" fill-opacity="0.85"/>
 </g>
</svg>
