<?xml version="1.0" encoding="UTF-8"?>
<!--Generator: Apple Native CoreSVG 341-->
<!DOCTYPE svg
PUBLIC "-//W3C//DTD SVG 1.1//EN"
       "http://www.w3.org/Graphics/SVG/1.1/DTD/svg11.dtd">
<svg version="1.1" xmlns="http://www.w3.org/2000/svg" xmlns:xlink="http://www.w3.org/1999/xlink" viewBox="0 0 22.6936 22.3425">
 <g>
  <rect height="22.3425" opacity="0" width="22.6936" x="0" y="0"/>
  <path d="M5.25959 19.7087L7.35413 19.7087C7.53713 19.7087 7.67131 19.7621 7.81077 19.8998L9.29534 21.3763C10.5627 22.6535 11.758 22.6455 13.0254 21.3763L14.51 19.8998C14.6557 19.7621 14.7836 19.7087 14.9746 19.7087L17.0612 19.7087C18.8602 19.7087 19.7076 18.8675 19.7076 17.0623L19.7076 14.9757C19.7076 14.7847 19.7627 14.6568 19.8987 14.5111L21.3752 13.0265C22.6506 11.7591 22.6426 10.5656 21.3752 9.29644L19.8987 7.81187C19.7592 7.67417 19.7076 7.53999 19.7076 7.35523L19.7076 5.26069C19.7076 3.46968 18.8664 2.61597 17.0612 2.61597L14.9746 2.61597C14.7836 2.61597 14.6539 2.5689 14.51 2.4312L13.0254 0.954641C11.7545-0.322506 10.5627-0.314498 9.29534 0.956399L7.81077 2.4312C7.67307 2.5689 7.53713 2.61597 7.35413 2.61597L5.25959 2.61597C3.46057 2.61597 2.61311 3.45191 2.61311 5.26069L2.61311 7.35523C2.61311 7.53999 2.56604 7.67593 2.4301 7.81187L0.953541 9.29644C-0.321848 10.5656-0.31384 11.7591 0.953541 13.0265L2.4301 14.5111C2.56604 14.6568 2.61311 14.7847 2.61311 14.9757L2.61311 17.0623C2.61311 18.8613 3.46233 19.7087 5.25959 19.7087Z" fill="white" fill-opacity="0.85"/>
 </g>
</svg>
