<?xml version="1.0" encoding="UTF-8"?>
<!--Generator: Apple Native CoreSVG 341-->
<!DOCTYPE svg
PUBLIC "-//W3C//DTD SVG 1.1//EN"
       "http://www.w3.org/Graphics/SVG/1.1/DTD/svg11.dtd">
<svg version="1.1" xmlns="http://www.w3.org/2000/svg" xmlns:xlink="http://www.w3.org/1999/xlink" viewBox="0 0 24.5312 17.1613">
 <g>
  <rect height="17.1613" opacity="0" width="24.5312" x="0" y="0"/>
  <path d="M21.1049 11.3937C21.3984 11.7396 21.9181 11.7396 22.2605 11.3547C23.4971 9.96991 24.1699 8.17597 24.1699 6.21952C24.1699 4.26132 23.4971 2.45937 22.2605 1.0746C21.9262 0.697652 21.4144 0.697652 21.1209 1.02753C20.8211 1.36366 20.9035 1.78319 21.2158 2.1496C22.1853 3.25409 22.6879 4.6623 22.6879 6.21952C22.6879 7.76698 22.1853 9.1832 21.2158 10.2797C20.9035 10.6461 20.8211 11.0576 21.1049 11.3937Z" fill="white" fill-opacity="0.85"/>
  <path d="M18.8 9.27558C19.0918 9.61171 19.6461 9.62948 19.9672 9.20194C20.6027 8.36757 20.9808 7.33085 20.9808 6.21952C20.9808 5.1082 20.6027 4.06171 19.9672 3.23535C19.6461 2.80781 19.0998 2.81933 18.808 3.15371C18.4949 3.4871 18.6217 3.8871 18.8896 4.25624C19.2973 4.83788 19.4971 5.49589 19.4971 6.21952C19.4971 6.93339 19.2973 7.60116 18.8896 8.18105C18.6297 8.54218 18.4949 8.94394 18.8 9.27558Z" fill="white" fill-opacity="0.85"/>
  <path d="M3.20351 17.1516L13.7283 17.1516C15.8459 17.1516 16.9318 16.0639 16.9318 13.9801L16.9318 3.17148C16.9318 1.08769 15.8459 0 13.7283 0L3.20351 0C1.0957 0 0 1.07968 0 3.17148L0 13.9801C0 16.0639 1.0957 17.1516 3.20351 17.1516ZM3.27402 15.2787C2.36601 15.2787 1.87284 14.8023 1.87284 13.8518L1.87284 3.29003C1.87284 2.34921 2.36601 1.87284 3.27402 1.87284L13.6578 1.87284C14.5516 1.87284 15.0607 2.34921 15.0607 3.29003L15.0607 13.8518C15.0607 14.8023 14.5516 15.2787 13.6578 15.2787ZM7.81407 9.10585C8.17774 9.10585 8.45547 8.83437 8.45547 8.4707L8.45547 3.9746C8.45547 3.61093 8.17774 3.3412 7.81407 3.3412C7.44864 3.3412 7.17891 3.61093 7.17891 3.9746L7.17891 8.4707C7.17891 8.83437 7.44864 9.10585 7.81407 9.10585ZM10.3191 9.10585C10.6828 9.10585 10.9623 8.83437 10.9623 8.4707L10.9623 3.9746C10.9623 3.61093 10.6828 3.3412 10.3191 3.3412C9.95371 3.3412 9.68399 3.61093 9.68399 3.9746L9.68399 8.4707C9.68399 8.83437 9.95371 9.10585 10.3191 9.10585ZM12.8322 9.10585C13.1959 9.10585 13.4674 8.83437 13.4674 8.4707L13.4674 3.9746C13.4674 3.61093 13.1959 3.3412 12.8322 3.3412C12.4668 3.3412 12.1891 3.61093 12.1891 3.9746L12.1891 8.4707C12.1891 8.83437 12.4668 9.10585 12.8322 9.10585Z" fill="white" fill-opacity="0.85"/>
 </g>
</svg>
