<?xml version="1.0" encoding="UTF-8"?>
<!--Generator: Apple Native CoreSVG 341-->
<!DOCTYPE svg
PUBLIC "-//W3C//DTD SVG 1.1//EN"
       "http://www.w3.org/Graphics/SVG/1.1/DTD/svg11.dtd">
<svg version="1.1" xmlns="http://www.w3.org/2000/svg" xmlns:xlink="http://www.w3.org/1999/xlink" viewBox="0 0 27.8219 23.0328">
 <g>
  <rect height="23.0328" opacity="0" width="27.8219" x="0" y="0"/>
  <path d="M9.4916 12.1183L13.2732 12.1183C14.6268 12.1183 15.4875 11.5016 15.4875 10.1375L15.4875 6.50117L14.1086 6.41933L14.1086 9.9832C14.1086 10.4978 13.7914 10.7475 13.2732 10.7475L9.4916 10.7475C8.97343 10.7475 8.64823 10.4978 8.64823 9.9832L8.64823 6.61347L7.2791 6.6953L7.2791 10.1375C7.2791 11.5016 8.13808 12.1183 9.4916 12.1183ZM2.17636 22.992L4.1914 22.992C5.5205 22.992 6.39354 22.0303 6.39354 21.0152C6.39354 20.4762 6.1785 19.9211 5.67987 19.6238C7.4289 18.8834 8.54433 17.6588 8.93651 15.924C10.3562 16.7058 12.4283 16.831 14.5918 16.6195C14.5572 17.9461 14.3592 19.7767 14.3592 20.623C14.3592 22.1838 15.1771 23.0328 16.6988 23.0328L18.3758 23.0328C19.932 23.0328 20.7607 22.0285 20.7607 20.8307C20.7607 20.0178 20.4154 19.1471 19.2576 18.6484C19.333 17.673 19.7408 15.6639 20.025 14.8193C20.5045 13.4226 21.5101 12.2205 21.5101 10.165C21.5101 9.39256 21.6498 8.95897 21.7947 8.60623C22.4156 8.96522 22.9973 9.13846 23.6695 9.13846C25.534 9.13846 27.4605 7.21171 27.4605 5.12851C27.4605 4.06835 25.9623 3.3332 25.1324 2.7998C24.1287 2.10664 23.4973 1.21796 22.383 0.744919L22.0707 2.27128C22.8277 2.64413 23.348 3.37753 24.2144 3.94921C25.1359 4.57323 25.7939 4.66874 25.7939 5.34022C25.7939 6.31093 24.7029 7.4621 23.6695 7.4621C23.0916 7.4621 22.6361 7.28105 21.8336 6.72616C21.4537 6.46698 21.0605 6.51581 20.8289 6.87616C20.0797 7.97245 19.8418 8.8539 19.8418 10.165C19.8418 11.6006 19.0232 12.5002 18.416 14.3387C18.0902 15.3648 17.5627 17.8933 17.5627 19.0668C17.5627 19.3553 17.6621 19.6047 18.0242 19.7387C18.9564 20.0129 19.0844 20.44 19.0844 20.7392C19.0844 21.1291 18.8375 21.3139 18.3758 21.3139L16.7476 21.3139C16.2664 21.3139 16.0453 21.0652 16.0453 20.5512C16.0453 18.6709 16.3986 16.1283 16.3986 15.2183C16.3986 14.7631 15.9859 14.5217 15.5031 14.6832C12.7912 15.5957 10.024 14.9807 8.49784 13.76C8.05409 13.3978 7.54374 13.6703 7.54374 14.1514C7.54374 16.7135 6.33007 17.9537 3.58066 18.6639C2.99843 18.8236 2.99843 19.6996 3.58066 19.8008C4.33535 19.9162 4.71542 20.2678 4.71542 20.7392C4.71542 21.1096 4.42773 21.3139 4.00683 21.3139L2.3707 21.3139C1.94628 21.3139 1.6666 21.0049 1.6666 20.5512L1.6666 18.6947C1.6666 17.9648 1.95956 17.5342 3.31406 16.4566C4.32968 15.6478 4.6164 14.5267 4.6164 12.1902C4.6164 10.9828 4.76113 9.58476 5.28398 8.91171L3.86191 7.3121C3.41445 6.8078 4.083 6.27069 4.50917 6.76522L5.87441 8.34706C6.04843 8.21034 6.30409 8.13046 6.65116 8.10917L14.9201 7.41933C18.2781 6.23104 18.4127 4.65077 19.5861 3.43554L18.6269 2.06816C16.7041 3.83711 16.8234 4.88886 14.576 5.76601L7.12303 6.39121C6.81093 6.41425 6.54296 6.44882 6.30331 6.48691L5.608 5.66894C3.97499 3.77656 0.906253 6.09726 2.67168 8.19276L3.3832 9.04022C3.10254 9.92538 2.93828 10.9898 2.93828 12.1902C2.93828 14.25 2.79609 14.7396 2.2914 15.1457C0.681444 16.4148 0 17.3697 0 18.6947L0 20.7277C0 22.0515 0.912888 22.992 2.17636 22.992ZM20.2975 4.73905C21.9947 4.73905 22.8316 1.95429 22.8316 1.15039C22.8316 0.415037 22.4326 0.00800788 21.6609 0.00800788L18.942 0.00800788C18.1721 0.00800788 17.7615 0.415037 17.7615 1.15039C17.7615 1.95429 18.61 4.73905 20.2975 4.73905ZM20.2975 3.28535C19.8187 3.28535 19.4236 2.26835 19.3057 1.6621C19.2809 1.55214 19.3615 1.46171 19.4715 1.46171L21.1332 1.46171C21.2432 1.46171 21.3221 1.55214 21.2973 1.6621C21.181 2.26835 20.7779 3.28535 20.2975 3.28535ZM22.8953 5.33222C23.301 5.33222 23.6285 4.99491 23.6285 4.58124C23.6285 4.16405 23.301 3.84628 22.8953 3.84628C22.4781 3.84628 22.1506 4.16405 22.1506 4.58124C22.1506 4.99491 22.4781 5.33222 22.8953 5.33222Z" fill="white" fill-opacity="0.85"/>
 </g>
</svg>
