<?xml version="1.0" encoding="UTF-8"?>
<!--Generator: Apple Native CoreSVG 341-->
<!DOCTYPE svg
PUBLIC "-//W3C//DTD SVG 1.1//EN"
       "http://www.w3.org/Graphics/SVG/1.1/DTD/svg11.dtd">
<svg version="1.1" xmlns="http://www.w3.org/2000/svg" xmlns:xlink="http://www.w3.org/1999/xlink" viewBox="0 0 14.4603 16.3209">
 <g>
  <rect height="16.3209" opacity="0" width="14.4603" x="0" y="0"/>
  <path d="M0 15.471L2.84061 16.229C3.97244 16.5386 4.68181 16.0577 4.68181 14.912L4.68181 11.8245L8.40547 11.8245L8.40547 8.98388L1.23612 8.98388L1.23612 14.336C1.23612 15.1124 0.725384 15.5061 0 15.471ZM1.23612 7.05166L4.68181 7.05166L4.68181 3.31044C4.68181 2.39247 4.24607 1.9329 3.40545 1.70478L0.677729 0.977831C0.982413 1.1376 1.23612 1.44424 1.23612 1.9786ZM9.41543 15.471L12.256 16.229C13.3879 16.5386 14.099 16.0577 14.099 14.912L14.099 3.31044C14.099 2.39247 13.6535 1.9249 12.8129 1.69677L10.0932 0.977831C10.3978 1.1376 10.6515 1.44424 10.6515 1.9786L10.6515 14.336C10.6515 15.1124 10.1408 15.5061 9.41543 15.471Z" fill="white" fill-opacity="0.85"/>
 </g>
</svg>
