<?xml version="1.0" encoding="UTF-8"?>
<!--Generator: Apple Native CoreSVG 341-->
<!DOCTYPE svg
PUBLIC "-//W3C//DTD SVG 1.1//EN"
       "http://www.w3.org/Graphics/SVG/1.1/DTD/svg11.dtd">
<svg version="1.1" xmlns="http://www.w3.org/2000/svg" xmlns:xlink="http://www.w3.org/1999/xlink" viewBox="0 0 18.5894 18.2316">
 <g>
  <rect height="18.2316" opacity="0" width="18.5894" x="0" y="0"/>
  <path d="M18.2281 3.17148L18.2281 15.0646C18.2281 17.1502 17.1404 18.2281 15.0246 18.2281L3.20351 18.2281C1.0957 18.2281 0 17.1502 0 15.0646L0 3.17148C0 1.08769 1.0957 0 3.20351 0L15.0246 0C17.1404 0 18.2281 1.08769 18.2281 3.17148ZM5.72773 4.69062C5.12793 4.69062 4.79551 5.01171 4.79551 5.61503L4.79551 12.9979C4.79551 13.3914 5.01543 13.6184 5.39218 13.6184C5.74667 13.6184 5.96484 13.3861 5.96484 12.9979L5.96484 5.92948L8.15371 5.92948C9.28574 5.92948 9.81543 6.22167 9.81543 7.48984L9.81543 10.3449C9.81543 10.7146 10.0389 10.9594 10.3953 10.9594C10.742 10.9594 10.9654 10.7146 10.9654 10.3449L10.9654 7.23378C10.9654 5.50156 10.2084 4.69062 8.49452 4.69062ZM12.3055 5.24804L12.3055 10.7047C12.3055 11.9648 12.0416 12.2889 10.7877 12.2889L8.46913 12.2889L8.46913 7.89276C8.46913 7.51952 8.258 7.27753 7.90078 7.27753C7.53379 7.27753 7.31289 7.51952 7.31289 7.89276L7.31289 12.7119C7.31289 13.258 7.66933 13.5393 8.16581 13.5393L11.0752 13.5393C12.8461 13.5393 13.4908 12.599 13.4908 10.8379L13.4908 5.24804C13.4908 4.85351 13.2621 4.61152 12.9021 4.61152C12.5387 4.61152 12.3055 4.85351 12.3055 5.24804Z" fill="white" fill-opacity="0.85"/>
 </g>
</svg>
