<?xml version="1.0" encoding="UTF-8"?>
<!--Generator: Apple Native CoreSVG 341-->
<!DOCTYPE svg
PUBLIC "-//W3C//DTD SVG 1.1//EN"
       "http://www.w3.org/Graphics/SVG/1.1/DTD/svg11.dtd">
<svg version="1.1" xmlns="http://www.w3.org/2000/svg" xmlns:xlink="http://www.w3.org/1999/xlink" viewBox="0 0 24.2049 19.7961">
 <g>
  <rect height="19.7961" opacity="0" width="24.2049" x="0" y="0"/>
  <path d="M23.8435 11.8701C23.8435 5.64747 19.073 0.538875 12.9941 0.00293831C12.6553-0.029874 12.3998 0.215828 12.3998 0.554694L12.3998 3.8043C12.3998 4.08907 12.6012 4.30645 12.8842 4.33301C16.6191 4.80957 19.517 8.00293 19.517 11.8701C19.517 13.6332 18.9115 15.2613 17.8488 16.61C17.6945 16.8023 17.7025 17.0471 17.8719 17.2244L20.2322 19.5785C20.4646 19.8144 20.823 19.8109 21.0359 19.559C22.7926 17.4783 23.8435 14.7949 23.8435 11.8701Z" fill="white" fill-opacity="0.85"/>
  <path d="M0 11.8701C0 14.8029 1.05098 17.4863 2.80586 19.5652C3.01875 19.8172 3.36914 19.8109 3.61132 19.5768L5.96992 17.2227C6.13925 17.0453 6.14726 16.8006 5.99296 16.6082C4.92578 15.2613 4.32656 13.6332 4.32656 11.8701C4.32656 8.00293 7.22617 4.80957 10.9594 4.33301C11.2441 4.30645 11.4437 4.08907 11.4437 3.8043L11.4437 0.554694C11.4437 0.215828 11.1883-0.029874 10.8494 0.00293831C4.77226 0.538875 0 5.64747 0 11.8701Z" fill="white" fill-opacity="0.85"/>
  <path d="M8.30898 16.2904C8.64843 16.2904 8.85507 16.0652 8.85507 15.7018L8.85507 8.89316L10.9615 8.89316C12.0537 8.89316 12.5656 9.16582 12.5656 10.3879L12.5656 13.1445C12.5656 13.5055 12.7775 13.7289 13.1172 13.7289C13.4568 13.7289 13.667 13.5055 13.667 13.1445L13.667 10.1469C13.667 8.48907 12.9365 7.70293 11.2971 7.70293L8.63573 7.70293C8.058 7.70293 7.74238 8.01074 7.74238 8.58047L7.74238 15.7018C7.74238 16.0688 7.95703 16.2904 8.30898 16.2904ZM10.9719 16.2113L13.7785 16.2113C15.4687 16.2113 16.0851 15.3154 16.0851 13.619L16.0851 8.23027C16.0851 7.85879 15.8697 7.62383 15.5248 7.62383C15.1781 7.62383 14.9564 7.85879 14.9564 8.23027L14.9564 13.5008C14.9564 14.7086 14.7103 15.0193 13.4963 15.0193L11.2601 15.0193L11.2601 10.7775C11.2601 10.4193 11.0605 10.1906 10.7201 10.1906C10.3699 10.1906 10.1588 10.4193 10.1588 10.7775L10.1588 15.4256C10.1588 15.9451 10.5002 16.2113 10.9719 16.2113Z" fill="white" fill-opacity="0.85"/>
 </g>
</svg>
