<?xml version="1.0" encoding="UTF-8"?>
<!--Generator: Apple Native CoreSVG 341-->
<!DOCTYPE svg
PUBLIC "-//W3C//DTD SVG 1.1//EN"
       "http://www.w3.org/Graphics/SVG/1.1/DTD/svg11.dtd">
<svg version="1.1" xmlns="http://www.w3.org/2000/svg" xmlns:xlink="http://www.w3.org/1999/xlink" viewBox="0 0 24.226 20.1848">
 <g>
  <rect height="20.1848" opacity="0" width="24.226" x="0" y="0"/>
  <path d="M0.721518 8.12363C-0.00973073 8.12363-0.190785 8.66894 0.204136 9.22109L2.47249 12.3723C2.78948 12.8092 3.27757 12.8012 3.58831 12.3723L5.8469 9.21308C6.24007 8.66894 6.051 8.12363 5.33929 8.12363ZM22.0239 10.0875C22.0239 4.51914 17.503 0 11.9364 0C6.368 0 1.85687 4.50937 1.84886 10.099C1.85687 10.6476 2.29378 11.0846 2.83441 11.0846C3.38303 11.0846 3.83596 10.6396 3.83596 10.091C3.83596 5.60839 7.45725 1.9871 11.9364 1.9871C16.4155 1.9871 20.0368 5.60839 20.0368 10.0875C20.0368 14.5666 16.4155 18.1879 11.9364 18.1879C9.3096 18.1879 7.0131 16.9437 5.54279 15.0176C5.1469 14.5609 4.58421 14.4129 4.10726 14.7519C3.66214 15.0734 3.55902 15.725 3.99475 16.2355C5.84631 18.6584 8.71858 20.175 11.9364 20.175C17.503 20.175 22.0239 15.6559 22.0239 10.0875Z" fill="white" fill-opacity="0.85"/>
  <path d="M8.32933 14.4248C8.67503 14.4248 8.88167 14.1996 8.88167 13.8344L8.88167 7.01952L10.9881 7.01952C12.0803 7.01952 12.5922 7.30018 12.5922 8.52226L12.5922 11.2771C12.5922 11.6318 12.7961 11.8633 13.1438 11.8633C13.4754 11.8633 13.6856 11.6318 13.6856 11.2771L13.6856 8.28124C13.6856 6.61542 12.9649 5.8373 11.3157 5.8373L8.65433 5.8373C8.0846 5.8373 7.76097 6.14511 7.76097 6.71483L7.76097 13.8344C7.76097 14.2031 7.97738 14.4248 8.32933 14.4248ZM10.9985 14.3439L13.7971 14.3439C15.4953 14.3439 16.1117 13.4418 16.1117 11.7533L16.1117 6.36464C16.1117 5.99316 15.8981 5.7582 15.5514 5.7582C15.2047 5.7582 14.9848 5.99316 14.9848 6.36464L14.9848 11.6271C14.9848 12.8412 14.7289 13.1537 13.5229 13.1537L11.2867 13.1537L11.2867 8.91015C11.2867 8.55195 11.0889 8.32499 10.7467 8.32499C10.3965 8.32499 10.1854 8.55195 10.1854 8.91015L10.1854 13.5582C10.1854 14.0795 10.5188 14.3439 10.9985 14.3439Z" fill="white" fill-opacity="0.85"/>
 </g>
</svg>
