<?xml version="1.0" encoding="UTF-8"?>
<!--Generator: Apple Native CoreSVG 341-->
<!DOCTYPE svg
PUBLIC "-//W3C//DTD SVG 1.1//EN"
       "http://www.w3.org/Graphics/SVG/1.1/DTD/svg11.dtd">
<svg version="1.1" xmlns="http://www.w3.org/2000/svg" xmlns:xlink="http://www.w3.org/1999/xlink" viewBox="0 0 23.4033 22.1775">
 <g>
  <rect height="22.1775" opacity="0" width="23.4033" x="0" y="0"/>
  <path d="M15.9169 18.7268C14.9272 19.3667 13.6973 20.0413 12.1985 20.8143C11.9429 20.9413 11.6882 21.0087 11.5161 21.0087C11.3458 21.0087 11.0991 20.9493 10.8435 20.8143C5.33801 17.7927 3.4048 16.4192 3.4048 12.9151L3.4048 6.22509ZM12.5235 1.63113C13.5685 1.98485 17.1691 3.262 18.2413 3.70262C19.1907 4.10418 19.6372 4.51258 19.6372 5.64851L19.6372 12.9151C19.6372 14.1653 19.4016 15.162 18.8386 16.0559L6.01813 3.2366C7.52914 2.67296 9.7321 1.88334 10.5185 1.63113C10.8402 1.53719 11.1917 1.46805 11.5161 1.46805C11.8503 1.46805 12.2019 1.52918 12.5235 1.63113Z" fill="white" fill-opacity="0.85"/>
  <path d="M19.6462 20.7518C19.9497 21.0536 20.4458 21.0554 20.7458 20.7518C21.0476 20.4483 21.0493 19.9557 20.7458 19.6522L2.52648 1.45067C2.23097 1.14715 1.72687 1.14715 1.42511 1.45067C1.12335 1.74266 1.12335 2.24852 1.42511 2.55027Z" fill="white" fill-opacity="0.85"/>
 </g>
</svg>
