<?xml version="1.0" encoding="UTF-8"?>
<!--Generator: Apple Native CoreSVG 341-->
<!DOCTYPE svg
PUBLIC "-//W3C//DTD SVG 1.1//EN"
       "http://www.w3.org/Graphics/SVG/1.1/DTD/svg11.dtd">
<svg version="1.1" xmlns="http://www.w3.org/2000/svg" xmlns:xlink="http://www.w3.org/1999/xlink" viewBox="0 0 16.8555 20.3496">
 <g>
  <rect height="20.3496" opacity="0" width="16.8555" x="0" y="0"/>
  <path d="M0 12.1158C0 15.6785 1.95449 17.0732 7.56289 20.1473C7.81855 20.2822 8.075 20.3496 8.24706 20.3496C8.41913 20.3496 8.68359 20.2822 8.93124 20.1473C14.5476 17.0812 16.4941 15.6785 16.4941 12.1158L16.4941 4.733C16.4941 3.57578 16.0459 3.16739 15.0769 2.7543C13.9914 2.30215 10.3322 1.01524 9.26776 0.651758C8.94432 0.548048 8.57499 0.480666 8.24706 0.480666C7.91914 0.480666 7.54981 0.565822 7.23438 0.651758C6.16992 0.955666 2.50273 2.31016 1.41718 2.7543C0.45625 3.15938 0 3.57578 0 4.733ZM1.83397 11.751L1.83397 10.1699L8.24531 10.1699L8.24531 2.31835C8.38613 2.31835 8.53593 2.35468 8.75722 2.42909C10.0648 2.94296 12.8559 3.93593 14.3256 4.45351C14.5928 4.55468 14.6602 4.70019 14.6602 5.04452L14.6602 10.1699L8.24706 10.1699L8.24706 18.299C8.10663 18.299 7.96796 18.2475 7.68378 18.0752C3.21952 15.3531 1.83397 14.6209 1.83397 11.751Z" fill="white" fill-opacity="0.85"/>
 </g>
</svg>
