<?xml version="1.0" encoding="UTF-8"?>
<!--Generator: Apple Native CoreSVG 341-->
<!DOCTYPE svg
PUBLIC "-//W3C//DTD SVG 1.1//EN"
       "http://www.w3.org/Graphics/SVG/1.1/DTD/svg11.dtd">
<svg version="1.1" xmlns="http://www.w3.org/2000/svg" xmlns:xlink="http://www.w3.org/1999/xlink" viewBox="0 0 23.4934 22.1775">
 <g>
  <rect height="22.1775" opacity="0" width="23.4934" x="0" y="0"/>
  <path d="M11.7319 14.5454L11.7319 19.1792C11.8421 19.1552 11.9648 19.0938 12.1333 18.9892C13.1127 18.3973 13.9457 17.8986 14.6412 17.4523L16.0441 18.854C15.0338 19.5169 13.7791 20.2276 12.2542 21.0612C11.9985 21.1962 11.7341 21.2636 11.562 21.2636C11.3917 21.2636 11.1335 21.1962 10.8778 21.0612C5.27922 17.9872 3.31496 16.5925 3.31496 13.0298L3.31496 6.13532ZM12.5827 1.56571C13.6472 1.92918 17.3144 3.2161 18.3999 3.66825C19.3608 4.08133 19.8171 4.48973 19.8171 5.64695L19.8171 13.0298C19.8171 14.3052 19.5666 15.3038 18.9818 16.199L17.5582 14.7755C17.8549 14.1893 17.9814 13.5197 17.9814 12.6649L17.9814 5.95847C17.9814 5.61414 17.9077 5.46863 17.6388 5.36746C16.1691 4.84988 13.3878 3.85691 12.0722 3.34304C11.9185 3.29265 11.8327 3.26433 11.7319 3.25632L11.7319 8.94987L5.96943 3.1879C7.50731 2.606 9.75549 1.79273 10.5493 1.56571C10.8728 1.47977 11.2359 1.39461 11.562 1.39461C11.898 1.39461 12.2593 1.462 12.5827 1.56571Z" fill="white" fill-opacity="0.85"/>
  <path d="M19.648 20.7518C19.9497 21.0536 20.4458 21.0554 20.7458 20.7518C21.0476 20.4483 21.0493 19.9557 20.7458 19.6522L2.52648 1.45067C2.23097 1.14715 1.72863 1.14715 1.4171 1.45067C1.12335 1.74266 1.12335 2.24852 1.4171 2.55027Z" fill="white" fill-opacity="0.85"/>
 </g>
</svg>
