<?xml version="1.0" encoding="UTF-8"?>
<!--Generator: Apple Native CoreSVG 341-->
<!DOCTYPE svg
PUBLIC "-//W3C//DTD SVG 1.1//EN"
       "http://www.w3.org/Graphics/SVG/1.1/DTD/svg11.dtd">
<svg version="1.1" xmlns="http://www.w3.org/2000/svg" xmlns:xlink="http://www.w3.org/1999/xlink" viewBox="0 0 20.5381 20.1848">
 <g>
  <rect height="20.1848" opacity="0" width="20.5381" x="0" y="0"/>
  <path d="M20.1767 10.0875C20.1767 15.6478 15.6576 20.175 10.0875 20.175C4.52715 20.175 0 15.6478 0 10.0875C0 4.51914 4.52715 0 10.0875 0C15.6576 0 20.1767 4.51914 20.1767 10.0875ZM10.4664 10.3922L10.4664 15.7539C10.5178 15.7424 10.5611 15.7176 10.6027 15.6928L14.6334 13.4254C15.1197 13.1404 15.3924 12.8512 15.3924 12.1105L15.3924 7.9791C15.3924 7.85019 15.3844 7.73105 15.3506 7.62441ZM4.79687 7.9791L4.79687 12.1105C4.79687 12.8512 5.04374 13.1404 5.53808 13.4254L9.56074 15.6928C9.61211 15.7176 9.65546 15.7424 9.70507 15.7539L9.70507 10.3922L4.82089 7.62441C4.79687 7.73105 4.79687 7.85019 4.79687 7.9791ZM5.48027 6.75136C5.3498 6.81523 5.24511 6.88535 5.17148 6.96699L10.0857 9.72676L12.2896 8.48613L7.3541 5.69355ZM9.11914 4.70077L8.11171 5.2623L13.0801 8.04961L15.0035 6.96699C14.9281 6.88535 14.8172 6.81523 14.693 6.75136L11.0621 4.70077C10.7381 4.51874 10.4088 4.41933 10.0857 4.41933C9.77246 4.41933 9.4414 4.51874 9.11914 4.70077Z" fill="white" fill-opacity="0.85"/>
 </g>
</svg>
