<?xml version="1.0" encoding="UTF-8"?>
<!--Generator: Apple Native CoreSVG 341-->
<!DOCTYPE svg
PUBLIC "-//W3C//DTD SVG 1.1//EN"
       "http://www.w3.org/Graphics/SVG/1.1/DTD/svg11.dtd">
<svg version="1.1" xmlns="http://www.w3.org/2000/svg" xmlns:xlink="http://www.w3.org/1999/xlink" viewBox="0 0 20.3322 21.4254">
 <g>
  <rect height="21.4254" opacity="0" width="20.3322" x="0" y="0"/>
  <path d="M10.701 21.4254C10.7957 21.4041 10.8824 21.3643 10.9789 21.3111L18.541 17.0611C19.4896 16.5295 19.9709 15.9688 19.9709 14.5738L19.9709 6.78536C19.9709 6.5293 19.9531 6.32305 19.9051 6.1293L10.701 11.3285ZM9.26992 21.4254L9.26992 11.3285L0.0658208 6.1293C0.0160158 6.32305 0 6.5293 0 6.78536L0 14.5738C0 15.9688 0.489258 16.5295 1.42988 17.0611L9 21.3111C9.08672 21.3643 9.1752 21.4041 9.26992 21.4254ZM9.98945 10.06L14.1383 7.73536L4.8252 2.47852L1.30273 4.45977C1.07207 4.58399 0.882226 4.70997 0.715429 4.867ZM15.6275 6.90763L19.2555 4.867C19.0984 4.70997 18.9086 4.58399 18.6779 4.45977L11.8273 0.609576C11.2193 0.266021 10.5973 0.0822324 9.99121 0.0822324C9.37539 0.0822324 8.75332 0.266021 8.14531 0.609576L6.27187 1.66231Z" fill="white" fill-opacity="0.85"/>
 </g>
</svg>
