<?xml version="1.0" encoding="UTF-8"?>
<!--Generator: Apple Native CoreSVG 341-->
<!DOCTYPE svg
PUBLIC "-//W3C//DTD SVG 1.1//EN"
       "http://www.w3.org/Graphics/SVG/1.1/DTD/svg11.dtd">
<svg version="1.1" xmlns="http://www.w3.org/2000/svg" xmlns:xlink="http://www.w3.org/1999/xlink" viewBox="0 0 29.1469 21.4254">
 <g>
  <rect height="21.4254" opacity="0" width="29.1469" x="0" y="0"/>
  <path d="M0 11.9768C0 11.7428 0.0824213 11.5311 0.311131 11.2908L3.40605 8.08496C3.57011 7.9209 3.74394 7.82422 3.97714 7.82422C4.43378 7.82422 4.7539 8.17695 4.7539 8.62578C4.7539 8.84473 4.66972 9.08066 4.49589 9.23672L3.00585 10.6344L1.41211 11.9768L3.00585 13.3254L4.49589 14.715C4.66972 14.8711 4.7539 15.099 4.7539 15.318C4.7539 15.7668 4.43378 16.1275 3.97714 16.1275C3.74394 16.1275 3.57011 16.0389 3.40605 15.8748L0.311131 12.6609C0.0824213 12.4287 0 12.217 0 11.9768ZM12.7381 11.9768C12.7381 12.4723 12.3267 12.8828 11.8498 12.8828L3.73593 12.8828L1.64335 12.7986C1.19121 12.7836 0.82949 12.4289 0.82949 11.9768C0.82949 11.5309 1.19121 11.1779 1.64335 11.1611L3.73593 11.077L11.8498 11.077C12.3267 11.077 12.7381 11.4795 12.7381 11.9768ZM19.0096 21.4254C19.1043 21.4041 19.1928 21.3643 19.2875 21.3111L26.8496 17.0611C27.7982 16.5295 28.2795 15.9688 28.2795 14.5738L28.2795 6.78536C28.2795 6.5293 28.2635 6.32305 28.2137 6.1293L19.0096 11.3285ZM17.5785 21.4254L17.5785 11.3285L8.37441 6.1293C8.32636 6.32305 8.30859 6.5293 8.30859 6.78536L8.30859 14.5738C8.30859 15.9688 8.79785 16.5295 9.73847 17.0611L17.3086 21.3111C17.3971 21.3643 17.4838 21.4041 17.5785 21.4254ZM18.298 10.06L22.4486 7.73536L13.1338 2.47852L9.61308 4.45977C9.38066 4.58399 9.19082 4.70997 9.02578 4.867ZM23.9379 6.90763L27.5658 4.867C27.399 4.70997 27.2172 4.58399 26.9785 4.45977L20.1359 0.609576C19.5279 0.266021 18.9059 0.0822324 18.2998 0.0822324C17.684 0.0822324 17.0619 0.266021 16.4557 0.609576L14.5805 1.66231Z" fill="white" fill-opacity="0.85"/>
 </g>
</svg>
