<?xml version="1.0" encoding="UTF-8"?>
<!--Generator: Apple Native CoreSVG 341-->
<!DOCTYPE svg
PUBLIC "-//W3C//DTD SVG 1.1//EN"
       "http://www.w3.org/Graphics/SVG/1.1/DTD/svg11.dtd">
<svg version="1.1" xmlns="http://www.w3.org/2000/svg" xmlns:xlink="http://www.w3.org/1999/xlink" viewBox="0 0 20.5381 20.1848">
 <g>
  <rect height="20.1848" opacity="0" width="20.5381" x="0" y="0"/>
  <path d="M10.0875 20.175C15.6576 20.175 20.1767 15.6559 20.1767 10.0875C20.1767 4.51914 15.6576 0 10.0875 0C4.51914 0 0 4.51914 0 10.0875C0 15.6559 4.51914 20.175 10.0875 20.175ZM10.0875 18.1879C5.60839 18.1879 1.9871 14.5666 1.9871 10.0875C1.9871 5.60839 5.60839 1.9871 10.0875 1.9871C14.5666 1.9871 18.1897 5.60839 18.1897 10.0875C18.1897 14.5666 14.5666 18.1879 10.0875 18.1879Z" fill="white" fill-opacity="0.85"/>
  <path d="M14.5604 12.9072C15.0033 13.1744 15.3146 13.2242 15.6787 13.1088C15.7 13.0893 15.7098 13.0502 15.7293 13.0289L16.6684 11.3934C17.034 10.773 16.6801 10.1217 15.8518 10.1039C15.492 10.0959 15.1979 10.0488 14.8238 9.83828C14.4125 9.5957 14.1459 9.16562 14.0197 8.28242C13.9088 7.47031 13.3869 7.03789 12.5764 7.0371L12.2152 7.0371L12.3439 8.28281C12.3652 8.41953 12.2721 8.55175 12.1256 8.57656C11.9951 8.59609 11.8469 8.50468 11.8291 8.36269L11.6906 7.04511L11.1867 7.05312L11.3137 8.21874C11.3287 8.38125 11.2391 8.4957 11.0988 8.51874C10.931 8.54003 10.8103 8.44687 10.8006 8.30664L10.6701 7.05312L10.1564 7.05312L10.2789 8.16093C10.2922 8.30742 10.2008 8.42988 10.0623 8.45117C9.91405 8.48222 9.78534 8.38281 9.76581 8.23281L9.62558 7.04511C9.42577 7.0291 9.33241 6.97753 9.11034 6.85585C8.79589 6.68085 8.02674 6.0414 7.65643 5.82558C7.15038 5.54238 6.67538 5.55136 6.316 5.67734C5.91092 5.82206 5.8621 6.28652 6.22909 6.86855L6.97577 8.04394C7.31854 8.58652 7.65155 8.91328 8.52538 9.41855ZM13.4088 13.7842C13.9611 14.1029 14.6801 14.2174 15.3086 13.6049C14.8836 13.6467 14.6242 13.5561 14.2949 13.3555L8.25995 9.8748C7.34706 9.35 6.93768 8.95839 6.53807 8.32792L5.81796 7.18163C5.55585 6.7623 5.49374 6.49941 5.56756 6.20448C5.53026 6.26581 5.48671 6.31913 5.44491 6.38847C5.11639 6.95488 5.16522 7.62519 5.64296 8.42792C6.23885 9.41992 6.78319 9.958 7.91542 10.6143ZM4.84491 11.9801L5.2994 12.3041L4.24979 13.8066C4.11581 14.0205 4.16815 14.2912 4.35448 14.4172C4.55409 14.5512 4.83104 14.5139 4.96678 14.3143L6.02089 12.8135L6.48339 13.1455C6.79589 13.3684 7.17948 13.1455 7.13241 12.7486L6.97538 11.2389C6.9496 10.9787 6.71249 10.8197 6.45585 10.8846L4.9914 11.2432C4.61581 11.3248 4.51815 11.735 4.84491 11.9801Z" fill="white" fill-opacity="0.85"/>
 </g>
</svg>
