<?xml version="1.0" encoding="UTF-8"?>
<!--Generator: Apple Native CoreSVG 341-->
<!DOCTYPE svg
PUBLIC "-//W3C//DTD SVG 1.1//EN"
       "http://www.w3.org/Graphics/SVG/1.1/DTD/svg11.dtd">
<svg version="1.1" xmlns="http://www.w3.org/2000/svg" xmlns:xlink="http://www.w3.org/1999/xlink" viewBox="0 0 30.6758 14.4008">
 <g>
  <rect height="14.4008" opacity="0" width="30.6758" x="0" y="0"/>
  <path d="M2.73847 11.1256L19.9267 11.1256C22.4367 11.1256 23.5728 10.8185 25.0168 10.05L28.0634 8.43359C29.5718 7.62519 30.0174 6.49785 29.299 5.70605C28.6861 4.96738 27.6385 4.37363 26.2463 4.37363C25.1537 4.37363 22.7365 4.75976 21.8469 4.75976C21.2183 4.75976 20.9668 4.74551 20.4928 4.52012L18.7035 6.94726C18.4871 7.23104 18.1004 7.27811 17.8236 7.03241C17.5646 6.82577 17.5353 6.46659 17.7465 6.17382L19.3955 3.91523L18.2609 3.25332L16.4351 5.7996C16.2142 6.1039 15.8338 6.13046 15.5437 5.87675C15.2767 5.67988 15.2377 5.31542 15.4586 5.01289L17.1974 2.63066L16.0664 1.97051L14.1295 4.64667C13.9228 4.91894 13.5131 4.94023 13.2559 4.73359C12.9924 4.52519 12.9693 4.11894 13.1627 3.85996L14.9896 1.33809L14.5787 1.09883C12.6176 0.00351548 10.7898 0.140234 9.2955 2.09062C8.18476 3.50683 7.09745 4.08867 5.9412 4.08867C4.91112 4.08867 4.22714 3.91738 3.44764 3.54551C1.81366 2.79981 0 3.5791 0 5.53495L0 9.85195C0 9.93886 0 10.0258 0.00800788 10.1047C0.646093 10.8236 1.4121 11.1256 2.73847 11.1256ZM28.5388 9.59061L25.5785 11.1506C23.9197 12.0381 22.5512 12.3762 19.9267 12.3762L2.73847 12.3762C1.7539 12.3762 1.07285 12.2465 0.194336 11.6265C0.778123 13.7734 2.5123 14.4008 4.10351 14.4008L19.7478 14.4008C22.9758 14.4008 24.8537 13.9082 27.3541 12.5191C29.3615 11.3982 30.3144 9.98124 30.3144 8.35038C30.3144 8.16464 30.2984 7.98514 30.2789 7.81542C30.0758 8.52421 29.6117 9.016 28.5388 9.59061Z" fill="white" fill-opacity="0.85"/>
 </g>
</svg>
