<?xml version="1.0" encoding="UTF-8"?>
<!--Generator: Apple Native CoreSVG 341-->
<!DOCTYPE svg
PUBLIC "-//W3C//DTD SVG 1.1//EN"
       "http://www.w3.org/Graphics/SVG/1.1/DTD/svg11.dtd">
<svg version="1.1" xmlns="http://www.w3.org/2000/svg" xmlns:xlink="http://www.w3.org/1999/xlink" viewBox="0 0 20.5381 20.1848">
 <g>
  <rect height="20.1848" opacity="0" width="20.5381" x="0" y="0"/>
  <path d="M20.1767 10.0875C20.1767 15.6478 15.6576 20.175 10.0875 20.175C4.52715 20.175 0 15.6478 0 10.0875C0 4.51914 4.52715 0 10.0875 0C15.6576 0 20.1767 4.51914 20.1767 10.0875ZM6.32382 10.9156L4.79648 11.2893C4.40761 11.3709 4.30019 11.7943 4.64823 12.0492L5.11601 12.3883L4.03183 13.9484C3.87655 14.1738 3.93866 14.4578 4.13827 14.5838C4.34589 14.7328 4.63612 14.6857 4.77538 14.4826L5.86757 12.9225L6.34511 13.266C6.67714 13.5004 7.07226 13.266 7.02519 12.8576L6.86815 11.2814C6.8246 11.0098 6.59198 10.849 6.32382 10.9156ZM5.2703 6.2414C4.93026 6.83085 4.98085 7.52773 5.47811 8.36503C6.09882 9.39335 6.6662 9.95273 7.83651 10.6355L13.5391 13.9207C14.1162 14.2527 14.86 14.377 15.515 13.7396C15.075 13.7832 14.8023 13.6828 14.4535 13.4787L8.19433 9.86953C7.24511 9.32168 6.82421 8.91679 6.41132 8.25351L5.65663 7.06562C5.391 6.62851 5.32089 6.3541 5.40448 6.04941C5.36542 6.11874 5.31385 6.17206 5.2703 6.2414ZM6.17948 5.50546C5.76112 5.65195 5.71053 6.13593 6.09081 6.73925L6.85429 7.95449C7.21835 8.52363 7.56288 8.86191 8.47128 9.39023L14.7385 13.0092C15.1965 13.2861 15.5228 13.3377 15.8984 13.2205C15.9277 13.1992 15.9375 13.1602 15.957 13.1371L16.9307 11.4377C17.3033 10.7926 16.9406 10.1146 16.0697 10.0951C15.7047 10.0854 15.4008 10.0383 15.0135 9.81797C14.5844 9.57363 14.3062 9.12578 14.1801 8.208C14.0674 7.36757 13.5207 6.91211 12.6818 6.91132L12.3047 6.91132L12.4351 8.20839C12.4627 8.35488 12.3633 8.48711 12.2133 8.51191C12.073 8.5332 11.923 8.44003 11.9035 8.29004L11.7553 6.91933L11.2416 6.9291L11.3685 8.14257C11.3836 8.30859 11.2922 8.43281 11.1422 8.45585C10.9726 8.47539 10.8422 8.38398 10.8324 8.23222L10.7002 6.9291L10.1652 6.9291L10.2894 8.08476C10.3027 8.233 10.2033 8.36523 10.0711 8.38828C9.91132 8.41933 9.77284 8.31015 9.75507 8.16015L9.61933 6.91933C9.408 6.90332 9.30663 6.85351 9.0828 6.72832C8.75057 6.54355 7.96288 5.88105 7.56952 5.65546C7.05018 5.36874 6.55839 5.36621 6.17948 5.50546Z" fill="white" fill-opacity="0.85"/>
 </g>
</svg>
