<?xml version="1.0" encoding="UTF-8"?>
<!--Generator: Apple Native CoreSVG 341-->
<!DOCTYPE svg
PUBLIC "-//W3C//DTD SVG 1.1//EN"
       "http://www.w3.org/Graphics/SVG/1.1/DTD/svg11.dtd">
<svg version="1.1" xmlns="http://www.w3.org/2000/svg" xmlns:xlink="http://www.w3.org/1999/xlink" viewBox="0 0 35.5828 18.2047">
 <g>
  <rect height="18.2047" opacity="0" width="35.5828" x="0" y="0"/>
  <path d="M14.6121 1.11094L19.8974 4.20547C20.8058 4.72402 20.9713 4.75605 21.8469 4.75605C22.7365 4.75605 25.1537 4.36992 26.2463 4.36992C28.6117 4.36992 30.2552 5.9398 30.309 8.224C29.7526 8.27053 29.0957 8.34781 28.4821 8.41686C28.4798 8.2387 28.4673 8.066 28.4365 7.90878C28.3963 8.10436 28.3331 8.28008 28.237 8.44428C27.627 8.51169 27.0807 8.56542 26.7459 8.56542C26.5393 8.56542 26.372 8.56361 26.2256 8.55362L26.3662 8.48046C27.3349 7.96855 27.7099 7.45858 27.7099 7.08554C27.7099 6.42889 26.9562 6.17421 26.2347 6.17421C25.4087 6.17421 23.4418 6.4693 22.284 6.5423L19.5111 4.92031C18.4564 4.30715 17.4344 4.06824 16.4802 4.289L13.6935 2.67499C12.3193 1.88222 11.6871 1.94081 10.7203 3.18104C9.33553 4.97499 7.6162 5.88573 5.9412 5.88573C4.54491 5.88573 3.49394 5.54862 2.5246 5.10936C2.17909 4.93886 1.80429 5.08007 1.80429 5.52148L1.80429 9.84824C1.80429 9.91484 1.80429 9.98945 1.8123 10.056C2.10351 10.3107 2.59081 10.4137 3.48104 10.4137L4.90703 10.4137L4.90703 11.6076L3.48104 11.6076C2.84999 11.6076 2.40351 11.534 1.97929 11.3432C2.29003 12.3521 3.04101 12.591 4.09198 12.591L4.90703 12.591L4.90703 13.7683C4.90703 13.9872 4.91547 14.1961 4.93181 14.3953L4.10351 14.3953C2.15722 14.3953 0 13.4564 0 9.95897L0 5.53124C0 3.57363 1.81366 2.79434 3.44764 3.5418C4.22714 3.91191 4.91112 4.0832 5.9412 4.0832C7.09745 4.0832 8.18476 3.50136 9.2955 2.08515C10.8004 0.124218 12.6537-0.0275391 14.6121 1.11094Z" fill="white" fill-opacity="0.85"/>
  <path d="M19.5111 4.92031C17.5527 3.78183 15.7074 3.93359 14.1945 5.89452C13.0838 7.31073 11.9965 7.89257 10.8402 7.89257C9.81014 7.89257 9.13416 7.72128 8.34666 7.35117C6.72069 6.60371 4.90703 7.383 4.90703 9.34061L4.90703 13.7683C4.90703 17.2658 7.06424 18.2047 9.01053 18.2047L24.6469 18.2047C27.8828 18.2047 29.7527 17.7138 32.2531 16.3248C34.2685 15.2021 35.2215 13.7869 35.2215 12.156C35.2215 9.80643 33.5535 8.17929 31.147 8.17929C30.0607 8.17929 27.6435 8.56542 26.7459 8.56542C25.8783 8.56542 25.7049 8.53339 24.8045 8.01659ZM6.71932 13.8654C6.71131 13.7988 6.71131 13.7322 6.71131 13.6576L6.71131 9.33085C6.71131 8.88944 7.08612 8.74999 7.43163 8.92049C8.40096 9.35799 9.44393 9.6951 10.8402 9.6951C12.5232 9.6951 14.2426 8.78436 15.6273 6.99042C16.5941 5.75018 17.2263 5.69159 18.6006 6.48436L23.9107 9.56463C25.1179 10.2668 25.6576 10.368 26.7459 10.368C27.7623 10.368 30.191 9.98358 31.1338 9.98358C31.8633 9.98358 32.609 10.2383 32.609 10.8949C32.609 11.2777 32.234 11.7779 31.2732 12.2898L29.5252 13.1953C28.1326 13.9373 27.0656 14.223 24.6469 14.223L8.38006 14.223C7.49784 14.223 7.00252 14.1201 6.71932 13.8654ZM6.87831 15.1525C7.31053 15.3433 7.74901 15.417 8.38006 15.417L24.6469 15.417C27.1703 15.417 28.4857 15.0744 30.0718 14.241L31.7433 13.3885C32.7855 12.8381 33.197 12.392 33.3355 11.7182C33.3701 11.8947 33.3896 12.0908 33.3816 12.2922C33.3416 13.265 32.7343 14.008 31.3886 14.7572C29.1312 16.0097 27.6345 16.4004 24.6469 16.4004L8.99901 16.4004C7.94002 16.4004 7.19706 16.1615 6.87831 15.1525ZM19.4099 6.01444L17.6357 8.44198C17.4344 8.70272 17.4637 9.0912 17.7146 9.28983C17.9719 9.49647 18.3736 9.4787 18.5722 9.21268L20.351 6.77889ZM21.6469 7.14276L19.8851 9.55155C19.6705 9.83983 19.7113 10.1928 19.9623 10.3896C20.2603 10.6256 20.6133 10.6123 20.8297 10.3107L22.5844 7.90721ZM23.8722 8.28437L22.1346 10.6558C21.9217 10.9361 21.9527 11.2953 22.2019 11.4939C22.4805 11.7316 22.8431 11.7023 23.0595 11.415L24.8097 9.03729Z" fill="white" fill-opacity="0.85"/>
 </g>
</svg>
