<?xml version="1.0" encoding="UTF-8"?>
<!--Generator: Apple Native CoreSVG 341-->
<!DOCTYPE svg
PUBLIC "-//W3C//DTD SVG 1.1//EN"
       "http://www.w3.org/Graphics/SVG/1.1/DTD/svg11.dtd">
<svg version="1.1" xmlns="http://www.w3.org/2000/svg" xmlns:xlink="http://www.w3.org/1999/xlink" viewBox="0 0 30.6758 14.4148">
 <g>
  <rect height="14.4148" opacity="0" width="30.6758" x="0" y="0"/>
  <path d="M14.6121 1.12871C12.6537-0.00976562 10.8004 0.141992 9.2955 2.10293C8.18476 3.52089 7.09745 4.10097 5.9412 4.10097C4.91112 4.10097 4.22714 3.93144 3.44764 3.55957C1.81366 2.81211 0 3.5914 0 5.54901L0 9.97675C0 13.4742 2.15722 14.4148 4.10351 14.4148L19.7478 14.4148C22.9758 14.4148 24.8537 13.9222 27.3541 12.5332C29.3615 11.4123 30.3144 9.9953 30.3144 8.36444C30.3144 6.01484 28.6545 4.38769 26.2463 4.38769C25.1537 4.38769 22.7365 4.77383 21.8469 4.77383C20.9713 4.77383 20.8058 4.74355 19.8974 4.225ZM1.8123 10.0756C1.80429 10.0072 1.80429 9.94062 1.80429 9.86601L1.80429 5.53925C1.80429 5.09784 2.17909 4.95839 2.5246 5.1289C3.49394 5.5664 4.54491 5.9035 5.9412 5.9035C7.6162 5.9035 9.33553 4.99276 10.7203 3.19882C11.6871 1.95858 12.3193 1.89999 13.6935 2.69276L19.0117 5.77304C20.2109 6.47518 20.7586 6.57636 21.8469 6.57636C22.8633 6.57636 25.292 6.19198 26.2347 6.19198C26.9562 6.19198 27.7099 6.44667 27.7099 7.10331C27.7099 7.48612 27.3349 7.98632 26.3662 8.49824L24.6262 9.40371C23.2336 10.1457 22.1586 10.4314 19.7478 10.4314L3.48104 10.4314C2.59081 10.4314 2.10351 10.3285 1.8123 10.0756ZM1.97929 11.3609C2.40351 11.5535 2.84999 11.6271 3.48104 11.6271L19.7478 11.6271C22.2633 11.6271 23.5867 11.2828 25.1648 10.4512L26.8363 9.59862C27.8865 9.03847 28.298 8.60038 28.4365 7.92655C28.4711 8.10312 28.4826 8.29921 28.4826 8.50058C28.4426 9.47343 27.8353 10.2164 26.4816 10.9656C24.2322 12.2182 22.7355 12.6088 19.7478 12.6088L4.09198 12.6088C3.04101 12.6088 2.29003 12.3699 1.97929 11.3609ZM14.5029 2.22285L12.7287 4.65038C12.5353 4.91113 12.5566 5.2996 12.8156 5.49823C13.0648 5.70487 13.4666 5.6871 13.6652 5.42108L15.4439 2.9873ZM16.7478 3.35117L14.9861 5.75995C14.7697 6.04823 14.8025 6.40116 15.0633 6.59804C15.3533 6.83397 15.7142 6.81268 15.9307 6.51913L17.6773 4.11562ZM18.9652 4.49277L17.2355 6.86425C17.0226 7.14452 17.0457 7.5037 17.3029 7.70233C17.5734 7.94003 17.9441 7.91073 18.1605 7.62518L19.9027 5.2457Z" fill="white" fill-opacity="0.85"/>
 </g>
</svg>
