<?xml version="1.0" encoding="UTF-8"?>
<!--Generator: Apple Native CoreSVG 341-->
<!DOCTYPE svg
PUBLIC "-//W3C//DTD SVG 1.1//EN"
       "http://www.w3.org/Graphics/SVG/1.1/DTD/svg11.dtd">
<svg version="1.1" xmlns="http://www.w3.org/2000/svg" xmlns:xlink="http://www.w3.org/1999/xlink" viewBox="0 0 23.5656 21.7629">
 <g>
  <rect height="21.7629" opacity="0" width="23.5656" x="0" y="0"/>
  <path d="M22.4494 3.67909C22.8654 3.67909 23.2043 3.34023 23.2043 2.92421C23.2043 2.50996 22.8654 2.16933 22.4494 2.16933C22.0351 2.16933 21.6945 2.50996 21.6945 2.92421C21.6945 3.34023 22.0351 3.67909 22.4494 3.67909ZM21.3467 9.78104C21.7609 9.78104 22.0998 9.44218 22.0998 9.02616C22.0998 8.6119 21.7609 8.27128 21.3467 8.27128C20.9306 8.27128 20.5918 8.6119 20.5918 9.02616C20.5918 9.44218 20.9306 9.78104 21.3467 9.78104ZM18.2834 15.1709C18.6994 15.1709 19.0383 14.832 19.0383 14.4178C19.0383 14.0017 18.6994 13.6629 18.2834 13.6629C17.8611 13.6629 17.5285 14.0017 17.5285 14.4178C17.5285 14.832 17.8611 15.1709 18.2834 15.1709Z" fill="white" fill-opacity="0.85"/>
  <path d="M19.7213 4.06581C20.1373 4.06581 20.4762 3.72695 20.4762 3.31269C20.4762 2.89668 20.1373 2.55781 19.7213 2.55781C19.307 2.55781 18.9664 2.89668 18.9664 3.31269C18.9664 3.72695 19.307 4.06581 19.7213 4.06581ZM18.556 8.75936C18.9703 8.75936 19.3109 8.4205 19.3109 8.00448C19.3109 7.59023 18.9703 7.25136 18.556 7.25136C18.14 7.25136 17.8012 7.59023 17.8012 8.00448C17.8012 8.4205 18.14 8.75936 18.556 8.75936ZM16.431 13.1156C16.8471 13.1156 17.1859 12.7767 17.1859 12.3607C17.1859 11.9465 16.8471 11.6058 16.431 11.6058C16.0168 11.6058 15.6762 11.9465 15.6762 12.3607C15.6762 12.7767 16.0168 13.1156 16.431 13.1156Z" fill="white" fill-opacity="0.85"/>
  <path d="M16.9709 4.45077C17.3931 4.45077 17.7338 4.11015 17.7338 3.69589C17.7338 3.27988 17.3931 2.94101 16.9709 2.94101C16.5549 2.94101 16.216 3.27988 16.216 3.69589C16.216 4.11015 16.5549 4.45077 16.9709 4.45077ZM15.7547 7.75018C16.1787 7.75018 16.5096 7.41132 16.5096 6.9953C16.5096 6.58105 16.1787 6.24218 15.7547 6.24218C15.3404 6.24218 15.0016 6.58105 15.0016 6.9953C15.0016 7.41132 15.3404 7.75018 15.7547 7.75018ZM14.5867 11.0506C15.0027 11.0506 15.3416 10.7117 15.3416 10.2975C15.3416 9.88144 15.0027 9.54257 14.5867 9.54257C14.1724 9.54257 13.8336 9.88144 13.8336 10.2975C13.8336 10.7117 14.1724 11.0506 14.5867 11.0506Z" fill="white" fill-opacity="0.85"/>
  <path d="M9.92363 10.7459L13.6328 0.536913C11.7322 0.0654286 9.92656 0.442773 8.58085 1.60586L8.39531 1.54101C7.12285 1.10508 5.95312 1.76094 5.40469 3.258L1.08965 15.1299C0.749026 16.0711 1.13594 16.942 2.1166 17.3109C3.08085 17.6338 3.96425 17.2347 4.29686 16.3113L7.63885 7.12577L6.99003 7.48632C7.43906 8.89432 8.46191 10.0275 9.92363 10.7459ZM2.91151 16.9672L1.74472 16.5398L0 21.3338L1.16679 21.7629ZM14.2898 0.646482L10.5004 11.0775C10.3478 11.4846 10.558 11.9342 10.973 12.0885C11.3836 12.2428 11.8332 12.0228 11.9857 11.6256L15.7814 1.19277C15.926 0.779489 15.7176 0.328124 15.3088 0.173827C14.8937 0.0230467 14.4326 0.24121 14.2898 0.646482Z" fill="white" fill-opacity="0.85"/>
 </g>
</svg>
