<?xml version="1.0" encoding="UTF-8"?>
<!--Generator: Apple Native CoreSVG 341-->
<!DOCTYPE svg
PUBLIC "-//W3C//DTD SVG 1.1//EN"
       "http://www.w3.org/Graphics/SVG/1.1/DTD/svg11.dtd">
<svg version="1.1" xmlns="http://www.w3.org/2000/svg" xmlns:xlink="http://www.w3.org/1999/xlink" viewBox="0 0 23.4906 18.2316">
 <g>
  <rect height="18.2316" opacity="0" width="23.4906" x="0" y="0"/>
  <path d="M7.76132 16.6344L9.58103 16.6344L9.58103 1.59842L7.76132 1.59842ZM4.20898 18.2316L19.124 18.2316C21.6518 18.2316 23.1293 16.6963 23.1293 14.0209L23.1293 4.2205C23.1293 1.54512 21.6518 0.00351548 19.124 0.00351548L4.20898 0.00351548C1.54336 0.00351548 0 1.54512 0 4.2205L0 14.0209C0 16.6963 1.54336 18.2316 4.20898 18.2316ZM4.31191 16.3184C2.79628 16.3184 1.91327 15.4434 1.91327 13.926L1.91327 4.31542C1.91327 2.79979 2.79628 1.91678 4.31191 1.91678L18.8174 1.91678C20.333 1.91678 21.216 2.79979 21.216 4.31542L21.216 13.926C21.216 15.4434 20.333 16.3184 18.8174 16.3184ZM5.85116 5.50038C6.1951 5.50038 6.49217 5.20507 6.49217 4.87968C6.49217 4.54628 6.1951 4.25722 5.85116 4.25722L3.8412 4.25722C3.49725 4.25722 3.20819 4.54628 3.20819 4.87968C3.20819 5.20507 3.49725 5.50038 3.8412 5.50038ZM5.85116 8.1158C6.1951 8.1158 6.49217 7.82049 6.49217 7.4871C6.49217 7.1537 6.1951 6.8744 5.85116 6.8744L3.8412 6.8744C3.49725 6.8744 3.20819 7.1537 3.20819 7.4871C3.20819 7.82049 3.49725 8.1158 3.8412 8.1158ZM5.85116 10.725C6.1951 10.725 6.49217 10.4439 6.49217 10.1105C6.49217 9.77713 6.1951 9.48983 5.85116 9.48983L3.8412 9.48983C3.49725 9.48983 3.20819 9.77713 3.20819 10.1105C3.20819 10.4439 3.49725 10.725 3.8412 10.725Z" fill="white" fill-opacity="0.85"/>
 </g>
</svg>
