<?xml version="1.0" encoding="UTF-8"?>
<!--Generator: Apple Native CoreSVG 341-->
<!DOCTYPE svg
PUBLIC "-//W3C//DTD SVG 1.1//EN"
       "http://www.w3.org/Graphics/SVG/1.1/DTD/svg11.dtd">
<svg version="1.1" xmlns="http://www.w3.org/2000/svg" xmlns:xlink="http://www.w3.org/1999/xlink" viewBox="0 0 23.4906 18.2316">
 <g>
  <rect height="18.2316" opacity="0" width="23.4906" x="0" y="0"/>
  <path d="M13.5653 16.6344L15.3832 16.6344L15.3832 1.59842L13.5653 1.59842ZM4.20898 18.2316L19.124 18.2316C21.6518 18.2316 23.1293 16.6963 23.1293 14.0209L23.1293 4.2205C23.1293 1.54512 21.6518 0.00351548 19.124 0.00351548L4.20898 0.00351548C1.54336 0.00351548 0 1.54512 0 4.2205L0 14.0209C0 16.6963 1.54336 18.2316 4.20898 18.2316ZM4.31191 16.3184C2.79628 16.3184 1.91327 15.4434 1.91327 13.926L1.91327 4.31542C1.91327 2.79979 2.79628 1.91678 4.31191 1.91678L18.8174 1.91678C20.333 1.91678 21.216 2.79979 21.216 4.31542L21.216 13.926C21.216 15.4434 20.333 16.3184 18.8174 16.3184ZM19.1746 6.47675C19.4752 6.47675 19.6695 6.29394 19.6695 5.99687L19.6695 4.27089C19.6695 3.96405 19.4832 3.78124 19.1746 3.78124L17.4238 3.78124C17.133 3.78124 16.9387 3.96405 16.9387 4.27089L16.9387 5.99687C16.9387 6.29394 17.141 6.47675 17.4238 6.47675ZM19.1746 10.4676C19.4752 10.4676 19.6695 10.2705 19.6695 9.98769L19.6695 8.2457C19.6695 7.95488 19.4832 7.75781 19.1746 7.75781L17.4238 7.75781C17.133 7.75781 16.9387 7.95488 16.9387 8.2457L16.9387 9.98769C16.9387 10.2705 17.141 10.4676 17.4238 10.4676ZM19.1746 14.4459C19.4752 14.4459 19.6695 14.2613 19.6695 13.9625L19.6695 12.2365C19.6695 11.9412 19.4832 11.7486 19.1746 11.7486L17.4238 11.7486C17.133 11.7486 16.9387 11.9412 16.9387 12.2365L16.9387 13.9625C16.9387 14.2613 17.141 14.4459 17.4238 14.4459Z" fill="white" fill-opacity="0.85"/>
 </g>
</svg>
