<?xml version="1.0" encoding="UTF-8"?>
<!--Generator: Apple Native CoreSVG 341-->
<!DOCTYPE svg
PUBLIC "-//W3C//DTD SVG 1.1//EN"
       "http://www.w3.org/Graphics/SVG/1.1/DTD/svg11.dtd">
<svg version="1.1" xmlns="http://www.w3.org/2000/svg" xmlns:xlink="http://www.w3.org/1999/xlink" viewBox="0 0 20.5381 20.1848">
 <g>
  <rect height="20.1848" opacity="0" width="20.5381" x="0" y="0"/>
  <path d="M20.1767 10.0973C20.1767 15.6656 15.6576 20.1848 10.0875 20.1848C4.52715 20.1848 0 15.6656 0 10.0973C0 4.53691 4.52715 0.00976562 10.0875 0.00976562C15.6576 0.00976562 20.1767 4.53691 20.1767 10.0973ZM9.48418 4.7746L9.48418 5.63808L6.32401 5.63808C5.55624 5.63808 5.11874 6.06405 5.11874 6.83358L5.11874 10.2201C5.11874 10.9736 5.55624 11.4111 6.32401 11.4111L9.48418 11.4111L9.48418 14.8131L7.96699 14.8131C7.6414 14.8131 7.36542 15.0908 7.36542 15.4164C7.36542 15.7402 7.6414 16.0082 7.96699 16.0082L12.1973 16.0082C12.5176 16.0082 12.7988 15.7402 12.7988 15.4164C12.7988 15.0908 12.5193 14.8131 12.1973 14.8131L10.6863 14.8131L10.6863 11.4111L13.8367 11.4111C14.6045 11.4111 15.05 10.9736 15.05 10.2201L15.05 6.83358C15.05 6.06405 14.6045 5.63808 13.8367 5.63808L10.6863 5.63808L10.6863 4.7746C10.6863 4.45077 10.4068 4.18105 10.0795 4.18105C9.75742 4.18105 9.48418 4.45077 9.48418 4.7746ZM10.4133 7.3244L11.6877 9.13007C11.9158 9.45409 11.7986 9.73808 11.4168 9.73808L8.76796 9.73808C8.36034 9.73808 8.25292 9.45409 8.47929 9.13007L9.76347 7.3244C9.93925 7.07226 10.2375 7.0705 10.4133 7.3244Z" fill="white" fill-opacity="0.85"/>
 </g>
</svg>
