<?xml version="1.0" encoding="UTF-8"?>
<!--Generator: Apple Native CoreSVG 341-->
<!DOCTYPE svg
PUBLIC "-//W3C//DTD SVG 1.1//EN"
       "http://www.w3.org/Graphics/SVG/1.1/DTD/svg11.dtd">
<svg version="1.1" xmlns="http://www.w3.org/2000/svg" xmlns:xlink="http://www.w3.org/1999/xlink" viewBox="0 0 19.7814 22.3594">
 <g>
  <rect height="22.3594" opacity="0" width="19.7814" x="0" y="0"/>
  <path d="M8.80977 3.10293L10.6404 3.10293L10.6404 0.919331C10.6404 0.419334 10.2228 0 9.72109 0C9.22109 0 8.80977 0.417576 8.80977 0.919331ZM6.45234 9.12558L15.6451 9.12558C16.207 9.12558 16.6064 8.96757 16.9748 8.61074L18.8849 6.78496C19.6084 6.09082 19.6084 5.44101 18.8637 4.70605L16.9748 2.87226C16.6162 2.52344 16.2203 2.37519 15.6584 2.37519L6.4541 2.37519C5.55859 2.37519 5.00586 2.89238 5.00586 3.81191L5.00586 7.68886C5.00586 8.60039 5.55683 9.12558 6.45234 9.12558ZM6.85468 7.58496C6.68417 7.58496 6.5412 7.44551 6.5412 7.27676L6.5412 4.22402C6.5412 4.05527 6.68066 3.91405 6.84941 3.91405L15.5781 3.91405C15.7309 3.91405 15.8916 3.96464 15.9857 4.04902L17.4877 5.52167C17.6271 5.64335 17.6334 5.85117 17.4859 5.98886L15.9662 7.43574C15.8641 7.52812 15.7166 7.58496 15.5736 7.58496ZM3.76973 17.3697L12.966 17.3697C13.8695 17.3697 14.4125 16.8445 14.4125 15.933L14.4125 12.048C14.4125 11.1365 13.8695 10.6113 12.966 10.6113L3.76348 10.6113C3.20957 10.6113 2.81367 10.7676 2.44531 11.1182L0.559182 12.9502C-0.180271 13.6701-0.188279 14.3279 0.546682 15.0371L2.44531 16.8566C2.81992 17.2117 3.21582 17.3697 3.76973 17.3697ZM3.84472 15.8291C3.7 15.8291 3.55527 15.7723 3.45312 15.6799L1.92539 14.2393C1.78593 14.1016 1.7957 13.8857 1.9289 13.7641L3.43886 12.2932C3.53301 12.2088 3.69375 12.1502 3.83496 12.1502L12.5637 12.1502C12.7324 12.1502 12.8736 12.2914 12.8736 12.4601L12.8736 15.5209C12.8736 15.6896 12.7324 15.8291 12.5637 15.8291ZM8.80977 11.3945L10.6404 11.3945L10.6404 8.29434L8.80977 8.29434ZM8.80977 21.4892L10.6404 21.4892L10.6404 16.3892L8.80977 16.3892ZM6.26308 22.3096L13.1746 22.3096C13.6728 22.3096 14.0859 21.8982 14.0859 21.3965C14.0859 20.8982 13.6764 20.4771 13.1746 20.4771L6.26308 20.4771C5.76309 20.4771 5.35 20.8947 5.35 21.3965C5.35 21.8965 5.75957 22.3096 6.26308 22.3096Z" fill="white" fill-opacity="0.85"/>
 </g>
</svg>
