<?xml version="1.0" encoding="UTF-8"?>
<!--Generator: Apple Native CoreSVG 341-->
<!DOCTYPE svg
PUBLIC "-//W3C//DTD SVG 1.1//EN"
       "http://www.w3.org/Graphics/SVG/1.1/DTD/svg11.dtd">
<svg version="1.1" xmlns="http://www.w3.org/2000/svg" xmlns:xlink="http://www.w3.org/1999/xlink" viewBox="0 0 20.2889 20.8715">
 <g>
  <rect height="20.8715" opacity="0" width="20.2889" x="0" y="0"/>
  <path d="M2.33536 12.7201L15.0004 12.7103C15.8979 12.7103 16.3352 12.4484 16.8736 11.9295L19.4477 9.46561C20.5586 8.40175 20.5826 7.33984 19.4397 6.23418L16.8736 3.78632C16.3352 3.26113 15.8979 2.99746 15.0084 2.99746L2.33536 2.99746C0.935165 2.99746 0.136729 3.77636 0.136729 5.15702L0.136729 10.5508C0.136729 11.9332 0.935165 12.7201 2.33536 12.7201ZM2.49746 10.8525C2.22109 10.8525 2.0416 10.6668 2.0416 10.3842L2.0416 5.32362C2.0416 5.041 2.22109 4.86327 2.49746 4.86327L14.9209 4.86327C15.2631 4.86327 15.3998 4.94237 15.5695 5.09784L18.1082 7.50859C18.3358 7.71835 18.3358 7.98144 18.1082 8.19296L15.5721 10.6092C15.3865 10.777 15.2736 10.8525 14.9129 10.8525ZM8.30158 4.43886L10.1322 4.43886L10.1322 0.919331C10.1322 0.419334 9.71465 0 9.2129 0C8.7129 0 8.30158 0.417576 8.30158 0.919331ZM8.30158 11.9859L8.30158 20.5992L10.1322 20.5992L10.1322 11.9859ZM4.52248 19.9336C4.52248 20.4336 4.94005 20.8449 5.44181 20.8449L13.0018 20.8449C13.5018 20.8449 13.9211 20.4353 13.9211 19.9336C13.9211 19.4336 13.5035 19.0143 13.0018 19.0143L5.44181 19.0143C4.94181 19.0143 4.52248 19.4318 4.52248 19.9336Z" fill="white" fill-opacity="0.85"/>
 </g>
</svg>
