<?xml version="1.0" encoding="UTF-8"?>
<!--Generator: Apple Native CoreSVG 341-->
<!DOCTYPE svg
PUBLIC "-//W3C//DTD SVG 1.1//EN"
       "http://www.w3.org/Graphics/SVG/1.1/DTD/svg11.dtd">
<svg version="1.1" xmlns="http://www.w3.org/2000/svg" xmlns:xlink="http://www.w3.org/1999/xlink" viewBox="0 0 20.5381 20.1848">
 <g>
  <rect height="20.1848" opacity="0" width="20.5381" x="0" y="0"/>
  <path d="M20.1767 10.0973C20.1767 15.6656 15.6576 20.1848 10.0875 20.1848C4.52715 20.1848 0 15.6656 0 10.0973C0 4.53691 4.52715 0.00976562 10.0875 0.00976562C15.6576 0.00976562 20.1767 4.53691 20.1767 10.0973ZM9.4664 5.2705L9.4664 6.34081L6.57265 6.34081C5.86796 6.34081 5.46777 6.72148 5.46777 7.41366L5.46777 10.1541C5.46777 10.8428 5.86796 11.235 6.57265 11.235L9.4664 11.235L9.4664 14.327L8.15097 14.327C7.81738 14.327 7.54589 14.5967 7.54589 14.9338C7.54589 15.2594 7.81738 15.5291 8.15097 15.5291L11.984 15.5291C12.3158 15.5291 12.5891 15.2594 12.5891 14.9338C12.5891 14.5967 12.3158 14.327 11.984 14.327L10.6668 14.327L10.6668 11.235L13.0088 11.235C13.4562 11.235 13.6816 11.1 13.9451 10.8418L15.2523 9.59589C15.8088 9.05898 15.8248 8.51503 15.2443 7.97187L13.9451 6.73222C13.6816 6.46601 13.4562 6.34081 13.0088 6.34081L10.6668 6.34081L10.6668 5.2705C10.6668 4.92714 10.3971 4.65742 10.0715 4.65742C9.72812 4.65742 9.4664 4.92714 9.4664 5.2705Z" fill="white" fill-opacity="0.85"/>
 </g>
</svg>
