<?xml version="1.0" encoding="UTF-8"?>
<!--Generator: Apple Native CoreSVG 341-->
<!DOCTYPE svg
PUBLIC "-//W3C//DTD SVG 1.1//EN"
       "http://www.w3.org/Graphics/SVG/1.1/DTD/svg11.dtd">
<svg version="1.1" xmlns="http://www.w3.org/2000/svg" xmlns:xlink="http://www.w3.org/1999/xlink" viewBox="0 0 20.5381 20.1848">
 <g>
  <rect height="20.1848" opacity="0" width="20.5381" x="0" y="0"/>
  <path d="M10.0875 20.175C15.6576 20.175 20.1767 15.6559 20.1767 10.0875C20.1767 4.51914 15.6576 0 10.0875 0C4.51914 0 0 4.51914 0 10.0875C0 15.6559 4.51914 20.175 10.0875 20.175ZM10.0875 18.1879C5.60839 18.1879 1.9871 14.5666 1.9871 10.0875C1.9871 5.60839 5.60839 1.9871 10.0875 1.9871C14.5666 1.9871 18.1897 5.60839 18.1897 10.0875C18.1897 14.5666 14.5666 18.1879 10.0875 18.1879Z" fill="white" fill-opacity="0.85"/>
  <path d="M13.4666 11.1756C14.1367 11.1756 14.5219 10.7984 14.5219 10.1283L14.5219 7.49784C14.5219 6.83222 14.1367 6.46484 13.4666 6.46484L10.673 6.46484L10.673 5.42909C10.673 5.11054 10.4148 4.85234 10.0865 4.85234C9.77421 4.85234 9.52578 5.11054 9.52578 5.42909L9.52578 6.46484L7.26444 6.46484C6.83026 6.46484 6.6164 6.59003 6.35995 6.83495L5.10507 8.03652C4.5494 8.56464 4.56542 9.08202 5.0953 9.59589L6.35995 10.7957C6.6164 11.0424 6.83026 11.1756 7.26444 11.1756L9.52578 11.1756L9.52578 14.1656L8.24492 14.1656C7.92636 14.1656 7.66816 14.4158 7.66816 14.7361C7.66816 15.0564 7.92636 15.3129 8.24492 15.3129L11.9344 15.3129C12.2547 15.3129 12.5227 15.0564 12.5227 14.7361C12.5227 14.4158 12.2547 14.1656 11.9344 14.1656L10.673 14.1656L10.673 11.1756Z" fill="white" fill-opacity="0.85"/>
 </g>
</svg>
