<?xml version="1.0" encoding="UTF-8"?>
<!--Generator: Apple Native CoreSVG 341-->
<!DOCTYPE svg
PUBLIC "-//W3C//DTD SVG 1.1//EN"
       "http://www.w3.org/Graphics/SVG/1.1/DTD/svg11.dtd">
<svg version="1.1" xmlns="http://www.w3.org/2000/svg" xmlns:xlink="http://www.w3.org/1999/xlink" viewBox="0 0 17.107 21.1476">
 <g>
  <rect height="21.1476" opacity="0" width="17.107" x="0" y="0"/>
  <path d="M11.8691 0.922065L15.9123 4.95547C16.5137 5.56484 16.7457 6.18573 16.7457 7.22811L16.7457 17.9504C16.7457 20.0519 15.6678 21.1476 13.5742 21.1476L3.17148 21.1476C1.07968 21.1476 0 20.06 0 17.9504L0 3.21503C0 1.11347 1.08769 0.00976562 3.17148 0.00976562L9.53672 0.00976562C10.5457 0.00976562 11.2377 0.275584 11.8691 0.922065ZM3.63906 12.9365L3.63906 16.4779C3.63906 17.3441 4.15839 17.8635 5.01484 17.8635L6.3166 17.8635L6.3166 13.1023C6.3166 12.9941 6.25097 12.9365 6.14277 12.9365ZM5.01484 8.97637C4.15839 8.97637 3.63906 9.49395 3.63906 10.3699L3.63906 11.74L6.86562 11.74C7.27011 11.74 7.51132 11.9893 7.51132 12.3857L7.51132 17.8635L9.33359 17.8635L9.33359 8.97637ZM10.5283 8.97637L10.5283 17.8635L11.7424 17.8635C12.5988 17.8635 13.1244 17.3441 13.1244 16.4779L13.1244 10.3699C13.1244 9.49395 12.5988 8.97637 11.7424 8.97637Z" fill="white" fill-opacity="0.85"/>
 </g>
</svg>
