<?xml version="1.0" encoding="UTF-8"?>
<!--Generator: Apple Native CoreSVG 341-->
<!DOCTYPE svg
PUBLIC "-//W3C//DTD SVG 1.1//EN"
       "http://www.w3.org/Graphics/SVG/1.1/DTD/svg11.dtd">
<svg version="1.1" xmlns="http://www.w3.org/2000/svg" xmlns:xlink="http://www.w3.org/1999/xlink" viewBox="0 0 22.9582 24.2504">
 <g>
  <rect height="24.2504" opacity="0" width="22.9582" x="0" y="0"/>
  <path d="M11.674 2.16386L12.2075 2.69706L9.51444 2.69706C6.83026 2.69706 5.18906 4.35604 5.18906 7.05623L5.18906 9.27715L4.50898 9.27715C3.75097 9.27715 3.25038 9.7582 3.25038 10.5437L3.25038 11.7512L5.18906 11.7512L5.18906 12.8922L3.25038 12.8922L3.25038 15.7799C3.25038 16.5494 3.75097 17.0385 4.50898 17.0385L5.18906 17.0385L5.18906 19.8992C5.18906 19.948 5.18959 19.9966 5.19459 20.0422L3.96405 20.0422C2.06952 20.0422 1.06621 19.0228 1.06621 17.1123L1.06621 4.26933C1.06621 2.35253 2.07304 1.32968 3.96405 1.32968L9.53593 1.32968C10.4545 1.32968 11.0959 1.58398 11.674 2.16386Z" fill="white" fill-opacity="0.85"/>
  <path d="M6.61659 19.8992C6.61659 21.8097 7.61991 22.8308 9.51444 22.8308L18.631 22.8308C20.5256 22.8308 21.5306 21.8097 21.5306 19.8992L21.5306 10.5658C21.5306 9.62283 21.3119 9.04627 20.7558 8.49198L17.2164 4.95077C16.6365 4.37089 16.0049 4.11835 15.0863 4.11835L9.51444 4.11835C7.62167 4.11835 6.61659 5.13944 6.61659 7.05623ZM9.86561 18.5668L9.86561 15.6808L12.0256 15.6808C12.1355 15.6808 12.1949 15.7367 12.1949 15.8422L12.1949 19.8254L11.1162 19.8254C10.3564 19.8254 9.86561 19.3363 9.86561 18.5668ZM9.86561 14.5381L9.86561 13.3307C9.86561 12.5451 10.3564 12.0641 11.1162 12.0641L14.9775 12.0641L14.9775 19.8254L13.3377 19.8254L13.3377 15.156C13.3377 14.7748 13.1072 14.5381 12.7082 14.5381ZM16.1203 19.8254L16.1203 12.0641L16.9947 12.0641C17.7607 12.0641 18.2453 12.5451 18.2453 13.3307L18.2453 18.5668C18.2453 19.3363 17.7607 19.8254 16.9947 19.8254Z" fill="white" fill-opacity="0.85"/>
 </g>
</svg>
