<?xml version="1.0" encoding="UTF-8"?>
<!--Generator: Apple Native CoreSVG 341-->
<!DOCTYPE svg
PUBLIC "-//W3C//DTD SVG 1.1//EN"
       "http://www.w3.org/Graphics/SVG/1.1/DTD/svg11.dtd">
<svg version="1.1" xmlns="http://www.w3.org/2000/svg" xmlns:xlink="http://www.w3.org/1999/xlink" viewBox="0 0 17.107 21.1476">
 <g>
  <rect height="21.1476" opacity="0" width="17.107" x="0" y="0"/>
  <path d="M0 17.9504C0 20.06 1.07968 21.1476 3.17148 21.1476L13.5742 21.1476C15.6678 21.1476 16.7457 20.0519 16.7457 17.9504L16.7457 7.22811C16.7457 6.18573 16.5137 5.56484 15.9123 4.95547L11.8691 0.922065C11.2377 0.275584 10.5457 0.00976562 9.53672 0.00976562L3.17148 0.00976562C1.08769 0.00976562 0 1.11347 0 3.21503ZM1.91327 17.8314L1.91327 3.33398C1.91327 2.43397 2.38163 1.92479 3.33222 1.92479L9.50098 1.92479C10.1068 1.92479 10.5605 2.10819 10.956 2.52147L14.3656 5.96308C14.7074 6.30839 14.8324 6.66308 14.8324 7.29257L14.8324 17.8314C14.8324 18.7412 14.3641 19.2344 13.4152 19.2344L3.32421 19.2344C2.38163 19.2344 1.91327 18.7412 1.91327 17.8314Z" fill="white" fill-opacity="0.85"/>
  <path d="M3.77089 16.3268C3.77089 17.1543 4.28671 17.6719 5.10448 17.6719L6.3166 17.6719L6.3166 13.0408C6.3166 12.9309 6.25097 12.875 6.14277 12.875L3.77089 12.875ZM3.77089 11.6785L6.86562 11.6785C7.27011 11.6785 7.51132 11.9277 7.51132 12.3242L7.51132 17.6719L9.33359 17.6719L9.33359 9.04316L5.10448 9.04316C4.28671 9.04316 3.77089 9.56074 3.77089 10.3963ZM10.5283 17.6719L11.651 17.6719C12.4687 17.6719 12.9943 17.1543 12.9943 16.3268L12.9943 10.3963C12.9943 9.56074 12.4687 9.04316 11.651 9.04316L10.5283 9.04316Z" fill="white" fill-opacity="0.85"/>
 </g>
</svg>
