<?xml version="1.0" encoding="UTF-8"?>
<!--Generator: Apple Native CoreSVG 341-->
<!DOCTYPE svg
PUBLIC "-//W3C//DTD SVG 1.1//EN"
       "http://www.w3.org/Graphics/SVG/1.1/DTD/svg11.dtd">
<svg version="1.1" xmlns="http://www.w3.org/2000/svg" xmlns:xlink="http://www.w3.org/1999/xlink" viewBox="0 0 22.7515 21.4965">
 <g>
  <rect height="21.4965" opacity="0" width="22.7515" x="0" y="0"/>
  <path d="M1.44999 18.9656L20.9947 18.9656L20.9947 18.2322C20.9947 17.8064 20.7437 17.551 20.3117 17.551L19.7447 17.551L19.7447 6.98046L20.5865 6.98046C21.1851 6.98046 21.5363 6.53886 21.5363 6.09277C21.5363 5.7664 21.351 5.47734 20.9545 5.24941L12.481 0.359374C12.0764 0.125976 11.6398 0 11.2183 0C10.7969 0 10.3523 0.125976 9.96366 0.359374L1.49023 5.24941C1.08574 5.47734 0.908396 5.7664 0.908396 6.09277C0.908396 6.53886 1.25957 6.98046 1.85995 6.98046L2.69999 6.98046L2.69999 17.551L2.14101 17.551C1.70898 17.551 1.44999 17.8064 1.44999 18.2322ZM4.32401 17.551L4.32401 5.67245L10.8779 1.99999C10.9846 1.93866 11.1072 1.90487 11.2183 1.90487C11.333 1.90487 11.4521 1.93866 11.5668 1.99999L18.1207 5.67245L18.1207 17.551ZM0.881441 21.4867L21.499 21.4867C21.9797 21.4867 22.3902 21.0849 22.3902 20.5972C22.3902 20.1148 21.9797 19.7158 21.499 19.7158L0.881441 19.7158C0.399022 19.7158 0 20.1148 0 20.5972C0 21.0832 0.399022 21.4867 0.881441 21.4867Z" fill="white" fill-opacity="0.85"/>
  <path d="M8.5496 14.4537C10.1435 14.4537 10.9439 13.5041 10.9439 12.2055C10.9439 10.9301 10.1959 10.4258 9.17205 10.0474L8.58983 9.83085C7.94569 9.58827 7.48299 9.29237 7.48299 8.59491C7.48299 7.99939 7.84823 7.55408 8.51131 7.55408C9.11288 7.55408 9.50136 7.89705 9.66483 8.52557C9.75878 8.81307 9.95311 8.93553 10.2414 8.93553C10.5703 8.93553 10.7682 8.71561 10.7682 8.40858C10.7682 8.31561 10.7416 8.19764 10.7168 8.09999C10.448 7.10096 9.59667 6.52596 8.51756 6.52596C7.09237 6.52596 6.26444 7.4658 6.26444 8.68533C6.26444 9.82381 6.9244 10.464 8.0121 10.8556L8.56796 11.0492C9.25448 11.2926 9.72538 11.6312 9.72538 12.3234C9.72538 12.9437 9.30956 13.4238 8.56737 13.4238C7.91229 13.4238 7.47947 13.0726 7.31248 12.4228C7.22303 12.1301 7.03944 12.0041 6.74315 12.0041C6.42479 12.0041 6.20389 12.24 6.20389 12.5639C6.20389 12.6951 6.23221 12.8557 6.28358 12.9789C6.61288 13.9312 7.44471 14.4537 8.5496 14.4537ZM13.9719 14.1625C15.3223 14.1625 16.3101 13.4379 16.3101 12.1736C16.3101 11.0494 15.5998 10.5762 14.6418 10.1463L13.9131 9.82128C13.3373 9.54842 12.8779 9.23553 12.8779 8.67655C12.8779 8.066 13.3506 7.76912 13.9629 7.76912C14.642 7.76912 14.9422 8.1826 15.0691 8.76561C15.1338 9.0078 15.3041 9.17381 15.6254 9.17381C15.9658 9.17381 16.1646 8.96288 16.1646 8.66366C16.1646 8.5412 16.1496 8.45604 16.1248 8.35135C15.8611 7.26307 14.9769 6.82166 13.9629 6.82166C12.7492 6.82166 11.716 7.47518 11.716 8.76072C11.716 9.82889 12.35 10.3377 13.3453 10.7933L14.0871 11.1254C14.6611 11.3965 15.1402 11.664 15.1402 12.2889C15.1402 12.8834 14.6953 13.207 13.9834 13.207C13.2279 13.207 12.8849 12.8506 12.766 12.183C12.6978 11.9488 12.515 11.7668 12.2178 11.7668C11.8967 11.7668 11.6607 11.9629 11.6607 12.292C11.6607 12.3789 11.6758 12.4836 11.7006 12.5928C11.9713 13.7183 12.917 14.1625 13.9719 14.1625ZM13.9664 15.1475C14.1121 15.1475 14.2205 15.031 14.2205 14.8951L14.2205 6.09881C14.2205 5.96111 14.1121 5.84471 13.9664 5.84471C13.8287 5.84471 13.7123 5.96111 13.7123 6.09881L13.7123 14.8951C13.7123 15.031 13.8287 15.1475 13.9664 15.1475Z" fill="white" fill-opacity="0.85"/>
 </g>
</svg>
