<?xml version="1.0" encoding="UTF-8"?>
<!--Generator: Apple Native CoreSVG 341-->
<!DOCTYPE svg
PUBLIC "-//W3C//DTD SVG 1.1//EN"
       "http://www.w3.org/Graphics/SVG/1.1/DTD/svg11.dtd">
<svg version="1.1" xmlns="http://www.w3.org/2000/svg" xmlns:xlink="http://www.w3.org/1999/xlink" viewBox="0 0 18.5894 18.2316">
 <g>
  <rect height="18.2316" opacity="0" width="18.5894" x="0" y="0"/>
  <path d="M3.20351 18.2281L15.0246 18.2281C17.1404 18.2281 18.2281 17.1502 18.2281 15.0646L18.2281 3.17148C18.2281 1.08769 17.1404 0 15.0246 0L3.20351 0C1.0957 0 0 1.08769 0 3.17148L0 15.0646C0 17.1502 1.0957 18.2281 3.20351 18.2281ZM3.31444 16.3148C2.40643 16.3148 1.91327 15.8465 1.91327 14.8977L1.91327 3.34023C1.91327 2.39139 2.40643 1.91503 3.31444 1.91503L14.9137 1.91503C15.8137 1.91503 16.3148 2.39139 16.3148 3.34023L16.3148 14.8977C16.3148 15.8465 15.8137 16.3148 14.9137 16.3148Z" fill="white" fill-opacity="0.85"/>
  <path d="M6.44042 12.9791C8.03437 12.9791 8.83476 12.0375 8.83476 10.7406C8.83476 9.45546 8.08847 8.96093 7.06288 8.5746L6.48866 8.358C5.83651 8.11542 5.37382 7.82577 5.37382 7.13007C5.37382 6.53456 5.74081 6.08124 6.40214 6.08124C7.00547 6.08124 7.40019 6.43221 7.56367 7.05897C7.64961 7.34823 7.84394 7.47069 8.13398 7.47069C8.46289 7.47069 8.65898 7.24276 8.65898 6.94374C8.65898 6.84277 8.64042 6.7248 8.60761 6.63515C8.34062 5.63612 7.48925 5.06112 6.40839 5.06112C4.98495 5.06112 4.15527 5.99296 4.15527 7.21073C4.15527 8.35898 4.81523 8.9912 5.91093 9.3828L6.45879 9.58261C7.14531 9.82773 7.61621 10.1584 7.61621 10.8586C7.61621 11.4789 7.20039 11.959 6.45996 11.959C5.80312 11.959 5.37206 11.6061 5.21308 10.9562C5.11386 10.6652 4.93202 10.5312 4.63573 10.5312C4.31562 10.5312 4.09472 10.7672 4.09472 11.091C4.09472 11.2285 4.12304 11.3908 4.17441 11.506C4.5037 12.4664 5.3373 12.9791 6.44042 12.9791ZM11.8644 12.6977C13.2148 12.6977 14.2027 11.973 14.2027 10.7088C14.2027 9.57656 13.4924 9.11132 12.5326 8.67968L11.8057 8.34843C11.2281 8.08359 10.7705 7.76269 10.7705 7.21171C10.7705 6.59139 11.2432 6.29628 11.8537 6.29628C12.5346 6.29628 12.833 6.71776 12.96 7.29276C13.0264 7.54296 13.1949 7.70097 13.5162 7.70097C13.8566 7.70097 14.0555 7.49804 14.0555 7.19706C14.0555 7.06835 14.0404 6.9832 14.0156 6.88652C13.752 5.79022 12.8758 5.34882 11.8537 5.34882C10.64 5.34882 9.60683 6.01034 9.60683 7.28788C9.60683 8.3623 10.2506 8.87284 11.2361 9.32851L11.9779 9.66054C12.552 9.93163 13.0311 10.1992 13.0311 10.824C13.0311 11.4186 12.5879 11.7422 11.8742 11.7422C11.1205 11.7422 10.7758 11.3777 10.6568 10.7102C10.5904 10.484 10.4139 10.2939 10.1086 10.2939C9.7875 10.2939 9.55332 10.498 9.55332 10.8271C9.55332 10.9043 9.5666 11.017 9.59941 11.1199C9.86386 12.2535 10.8078 12.6977 11.8644 12.6977ZM11.8572 13.6746C12.0029 13.6746 12.1193 13.5582 12.1193 13.4223L12.1193 4.63397C12.1193 4.49628 12.0029 4.37987 11.8572 4.37987C11.7213 4.37987 11.6049 4.49628 11.6049 4.63397L11.6049 13.4223C11.6049 13.5582 11.7213 13.6746 11.8572 13.6746Z" fill="white" fill-opacity="0.85"/>
 </g>
</svg>
