<?xml version="1.0" encoding="UTF-8"?>
<!--Generator: Apple Native CoreSVG 341-->
<!DOCTYPE svg
PUBLIC "-//W3C//DTD SVG 1.1//EN"
       "http://www.w3.org/Graphics/SVG/1.1/DTD/svg11.dtd">
<svg version="1.1" xmlns="http://www.w3.org/2000/svg" xmlns:xlink="http://www.w3.org/1999/xlink" viewBox="0 0 24.2662 22.3582">
 <g>
  <rect height="22.3582" opacity="0" width="24.2662" x="0" y="0"/>
  <path d="M0 15.2105C0 16.5629 1.1041 17.667 2.45468 17.667C3.3746 17.667 4.18631 17.1398 4.59588 16.3785L19.1256 20.6289C19.4197 21.6279 20.3564 22.3582 21.4599 22.3582C22.8008 22.3582 23.9049 21.2621 23.9049 19.9097C23.9049 18.9207 23.3068 18.0656 22.4676 17.6889L22.0634 8.1158C22.9402 7.75955 23.5633 6.89549 23.5633 5.87967C23.5633 4.53085 22.4672 3.43476 21.1246 3.43476C20.2517 3.43476 19.4898 3.89082 19.05 4.56327L11.2404 2.36132C11.176 1.06367 10.1055 0.0257814 8.80702 0.0257814C7.45644 0.0257814 6.35234 1.12988 6.35234 2.4787C6.35234 3.15487 6.63379 3.76444 7.08301 4.21151L2.62031 12.8029C2.5164 12.7824 2.42226 12.7762 2.3246 12.7797C1.03554 12.8377 0 13.9074 0 15.2105ZM4.25115 13.5609L8.69901 4.90135C9.48006 4.97439 10.2248 4.61658 10.6541 4.02342L18.7451 6.31033C18.8592 7.18279 19.4937 7.92224 20.3254 8.19802L20.6619 17.5957C20.0226 17.8023 19.4953 18.2791 19.2398 18.8891L4.80486 14.6457C4.72869 14.2258 4.54236 13.8769 4.25115 13.5609Z" fill="white" fill-opacity="0.85"/>
 </g>
</svg>
