<?xml version="1.0" encoding="UTF-8"?>
<!--Generator: Apple Native CoreSVG 341-->
<!DOCTYPE svg
PUBLIC "-//W3C//DTD SVG 1.1//EN"
       "http://www.w3.org/Graphics/SVG/1.1/DTD/svg11.dtd">
<svg version="1.1" xmlns="http://www.w3.org/2000/svg" xmlns:xlink="http://www.w3.org/1999/xlink" viewBox="0 0 20.5381 20.1848">
 <g>
  <rect height="20.1848" opacity="0" width="20.5381" x="0" y="0"/>
  <path d="M20.1767 10.0973C20.1767 15.6656 15.6576 20.1848 10.0875 20.1848C4.52715 20.1848 0 15.6656 0 10.0973C0 4.53691 4.52715 0.00976562 10.0875 0.00976562C15.6576 0.00976562 20.1767 4.53691 20.1767 10.0973ZM4.00487 10.099C4.00487 13.4645 6.73183 16.1914 10.0955 16.1914C13.4609 16.1914 16.1879 13.4645 16.1879 10.099C16.1879 6.73534 13.4609 4.00839 10.0955 4.00839C6.73183 4.00839 4.00487 6.73534 4.00487 10.099ZM10.1053 14.5764C8.71112 14.5764 7.45741 13.932 6.64901 12.927L13.5678 12.927C12.7514 13.932 11.4994 14.5764 10.1053 14.5764ZM14.5826 10.099C14.5826 10.5846 14.5008 11.0523 14.3531 11.4801L5.85741 11.4801C5.70799 11.0523 5.62791 10.5846 5.62791 10.099C5.62791 7.62401 7.6285 5.62166 10.1053 5.62166C12.5803 5.62166 14.5826 7.62401 14.5826 10.099Z" fill="white" fill-opacity="0.85"/>
 </g>
</svg>
