<?xml version="1.0" encoding="UTF-8"?>
<!--Generator: Apple Native CoreSVG 341-->
<!DOCTYPE svg
PUBLIC "-//W3C//DTD SVG 1.1//EN"
       "http://www.w3.org/Graphics/SVG/1.1/DTD/svg11.dtd">
<svg version="1.1" xmlns="http://www.w3.org/2000/svg" xmlns:xlink="http://www.w3.org/1999/xlink" viewBox="0 0 19.5461 23.6844">
 <g>
  <rect height="23.6844" opacity="0" width="19.5461" x="0" y="0"/>
  <path d="M10.7381 20.4637C10.7381 20.7918 10.8015 21.106 10.9187 21.3935L0.911323 21.3935C0.40156 21.3935 0 20.9664 0 20.4637C0 19.9539 0.399802 19.5418 0.911323 19.5418L10.9155 19.5418C10.8002 19.827 10.7381 20.1383 10.7381 20.4637ZM19.1847 20.4637C19.1847 20.9717 18.7769 21.3935 18.2654 21.3935L15.626 21.3935C15.7429 21.106 15.8062 20.7918 15.8062 20.4637C15.8062 20.1383 15.7443 19.827 15.6294 19.5418L18.2654 19.5418C18.7787 19.5418 19.1847 19.9486 19.1847 20.4637Z" fill="white" fill-opacity="0.85"/>
  <path d="M13.2762 22.9937C14.6689 22.9937 15.8062 21.8547 15.8062 20.4637C15.8062 19.0709 14.6707 17.9336 13.2762 17.9336C11.8771 17.9336 10.7381 19.0709 10.7381 20.4637C10.7381 21.8547 11.8771 22.9937 13.2762 22.9937ZM13.2762 21.659C12.6053 21.659 12.0809 21.1265 12.0809 20.4637C12.0809 19.7875 12.6053 19.2666 13.2762 19.2666C13.9523 19.2666 14.4732 19.7875 14.4732 20.4637C14.4732 21.1265 13.9523 21.659 13.2762 21.659Z" fill="white" fill-opacity="0.85"/>
  <path d="M9.59237 12.1517C11.7299 12.1517 13.499 10.3666 13.499 8.23085C13.499 6.0791 11.7299 4.30195 9.59237 4.30195C7.44686 4.30195 5.67597 6.0791 5.67597 8.23085C5.67597 10.3666 7.44686 12.1517 9.59237 12.1517ZM9.59237 0C9.11444 0 8.70644 0.41328 8.70644 0.884176L8.70644 2.38515C8.70644 2.85957 9.11444 3.27011 9.59237 3.27011C10.0668 3.27011 10.4721 2.85957 10.4721 2.38515L10.4721 0.884176C10.4721 0.41328 10.0668 0 9.59237 0ZM15.4027 2.41074C15.0586 2.07285 14.4973 2.07461 14.1674 2.4125L13.0883 3.50488C12.7504 3.84277 12.7664 4.40507 13.0953 4.74199C13.4314 5.07187 13.9955 5.07284 14.3289 4.73671L15.4097 3.65312C15.7414 3.30722 15.7424 2.74687 15.4027 2.41074ZM17.7947 8.23085C17.7947 7.73418 17.4072 7.34316 16.923 7.34316L15.4256 7.34316C14.9512 7.34316 14.5557 7.75019 14.5557 8.23085C14.5557 8.70351 14.9512 9.10253 15.4256 9.10253L16.923 9.10253C17.4072 9.10253 17.7947 8.71952 17.7947 8.23085ZM15.4097 14.0377C15.7556 13.6775 15.7494 13.1385 15.4062 12.7988L14.3174 11.7215C13.9777 11.3773 13.4297 11.3916 13.0883 11.7232C12.7549 12.0726 12.7557 12.626 13.0953 12.9656L14.1726 14.0412C14.5105 14.3711 15.0621 14.3658 15.4097 14.0377ZM9.59237 16.4537C10.0668 16.4537 10.4721 16.0404 10.4721 15.5615L10.4721 14.0668C10.4721 13.5924 10.0668 13.1836 9.59237 13.1836C9.11444 13.1836 8.70644 13.5924 8.70644 14.0668L8.70644 15.5615C8.70644 16.0404 9.11444 16.4537 9.59237 16.4537ZM3.77675 14.0297C4.11015 14.3693 4.68397 14.3746 5.01561 14.0412L6.0912 12.9656C6.42636 12.6322 6.42011 12.0771 6.09823 11.7232C5.75683 11.3916 5.18925 11.3853 4.85136 11.7215L3.77851 12.7988C3.44687 13.1269 3.44335 13.681 3.77675 14.0297ZM1.39355 8.23085C1.39355 8.71952 1.77753 9.10253 2.25019 9.10253L3.75742 9.10253C4.23534 9.10253 4.63886 8.70351 4.63886 8.23085C4.63886 7.75019 4.23534 7.34316 3.75742 7.34316L2.25019 7.34316C1.77753 7.34316 1.39355 7.73418 1.39355 8.23085ZM3.78827 2.41074C3.46816 2.74687 3.44687 3.31171 3.77851 3.65312L4.84609 4.73671C5.18398 5.0746 5.74706 5.07363 6.0912 4.74199C6.41835 4.38906 6.42636 3.83301 6.09823 3.50488L5.01913 2.4125C4.69725 2.09238 4.12792 2.08086 3.78827 2.41074Z" fill="white" fill-opacity="0.85"/>
 </g>
</svg>
