<?xml version="1.0" encoding="UTF-8"?>
<!--Generator: Apple Native CoreSVG 341-->
<!DOCTYPE svg
PUBLIC "-//W3C//DTD SVG 1.1//EN"
       "http://www.w3.org/Graphics/SVG/1.1/DTD/svg11.dtd">
<svg version="1.1" xmlns="http://www.w3.org/2000/svg" xmlns:xlink="http://www.w3.org/1999/xlink" viewBox="0 0 25.2336 22.3031">
 <g>
  <rect height="22.3031" opacity="0" width="25.2336" x="0" y="0"/>
  <path d="M3.3539 19.773C3.3539 20.1012 3.4172 20.4154 3.53415 20.7029L0.911323 20.7029C0.40156 20.7029 0 20.2758 0 19.773C0 19.2633 0.399802 18.8512 0.911323 18.8512L3.53072 18.8512C3.41585 19.1363 3.3539 19.4477 3.3539 19.773ZM24.8722 19.773C24.8722 20.2758 24.4627 20.7029 23.9529 20.7029L8.23357 20.7029C8.35064 20.4154 8.41404 20.1012 8.41404 19.773C8.41404 19.4477 8.3519 19.1363 8.23678 18.8512L23.9529 18.8512C24.4644 18.8512 24.8722 19.2633 24.8722 19.773Z" fill="white" fill-opacity="0.85"/>
  <path d="M5.88397 22.3031C7.27498 22.3031 8.41404 21.164 8.41404 19.773C8.41404 18.3803 7.27498 17.243 5.88397 17.243C4.48945 17.243 3.3539 18.3803 3.3539 19.773C3.3539 21.164 4.4912 22.3031 5.88397 22.3031ZM5.88397 20.9683C5.2078 20.9683 4.68866 20.4359 4.68866 19.773C4.68866 19.0969 5.2078 18.576 5.88397 18.576C6.54686 18.576 7.07928 19.0969 7.07928 19.773C7.07928 20.4359 6.54686 20.9683 5.88397 20.9683Z" fill="white" fill-opacity="0.85"/>
  <path d="M22.4127 13.5515C23.9541 13.5515 24.8722 12.6512 24.8722 11.1213L24.8722 4.57637C24.8722 3.04824 23.9541 2.14786 22.4127 2.14786L15.8881 2.14786C14.3467 2.14786 13.4222 3.05625 13.4222 4.57637L13.4222 11.1213C13.4222 12.6432 14.3467 13.5515 15.8881 13.5515Z" fill="white" fill-opacity="0.85"/>
  <path d="M9.191 13.6803C10.7715 13.6803 11.7092 12.7523 11.7092 11.1976L11.7092 4.50625C11.7092 2.94707 10.7715 2.01915 9.191 2.01915L2.51816 2.01915C0.937693 2.01915 0 2.94707 0 4.50625L0 11.1976C0 12.7523 0.937693 13.6803 2.51816 13.6803ZM9.02558 11.7875L2.68534 11.7875C2.15038 11.7875 1.89276 11.5201 1.89276 10.9869L1.89276 4.71249C1.89276 4.17929 2.15038 3.9119 2.68534 3.9119L9.02558 3.9119C9.54902 3.9119 9.8164 4.17929 9.8164 4.71249L9.8164 10.9869C9.8164 11.5201 9.54902 11.7875 9.02558 11.7875Z" fill="white" fill-opacity="0.85"/>
 </g>
</svg>
