<?xml version="1.0" encoding="UTF-8"?>
<!--Generator: Apple Native CoreSVG 341-->
<!DOCTYPE svg
PUBLIC "-//W3C//DTD SVG 1.1//EN"
       "http://www.w3.org/Graphics/SVG/1.1/DTD/svg11.dtd">
<svg version="1.1" xmlns="http://www.w3.org/2000/svg" xmlns:xlink="http://www.w3.org/1999/xlink" viewBox="0 0 18.5894 18.2316">
 <g>
  <rect height="18.2316" opacity="0" width="18.5894" x="0" y="0"/>
  <path d="M18.2281 3.17148L18.2281 15.0646C18.2281 17.1502 17.1404 18.2281 15.0246 18.2281L3.20351 18.2281C1.0957 18.2281 0 17.1502 0 15.0646L0 3.17148C0 1.08769 1.0957 0 3.20351 0L15.0246 0C17.1404 0 18.2281 1.08769 18.2281 3.17148ZM3.31444 1.91503C2.40643 1.91503 1.91327 2.39139 1.91327 3.34023L1.91327 14.8977C1.91327 15.8465 2.40643 16.3148 3.31444 16.3148L14.9137 16.3148C15.8137 16.3148 16.3148 15.8465 16.3148 14.8977L16.3148 3.34023C16.3148 2.39139 15.8137 1.91503 14.9137 1.91503Z" fill="white" fill-opacity="0.85"/>
  <path d="M5.6693 10.959C5.58464 11.1781 5.53945 11.4164 5.53945 11.665C5.53945 11.9155 5.58504 12.1556 5.67039 12.3764L4.57675 12.3764C4.1705 12.3764 3.85741 12.057 3.85741 11.657C3.85741 11.2703 4.1705 10.959 4.57675 10.959ZM14.3805 11.657C14.3805 12.057 14.0594 12.3764 13.6531 12.3764L9.44721 12.3764C9.53242 12.1556 9.57792 11.9155 9.57792 11.665C9.57792 11.4164 9.53282 11.1781 9.44829 10.959L13.6531 10.959C14.0594 10.959 14.3805 11.2703 14.3805 11.657Z" fill="white" fill-opacity="0.85"/>
  <path d="M9.57792 11.665C9.57792 12.7851 8.66816 13.6967 7.55956 13.6967C6.45097 13.6967 5.53945 12.7851 5.53945 11.665C5.53945 10.5484 6.45097 9.64043 7.55956 9.64043C8.66816 9.64043 9.57792 10.5484 9.57792 11.665ZM6.65605 11.657C6.65605 12.1768 7.05585 12.5801 7.55956 12.5801C8.06953 12.5801 8.46308 12.1768 8.46308 11.657C8.46308 11.1488 8.06953 10.7553 7.55956 10.7553C7.05585 10.7553 6.65605 11.1488 6.65605 11.657Z" fill="white" fill-opacity="0.85"/>
  <path d="M8.65195 6.39941C8.65195 6.65301 8.69859 6.89583 8.78568 7.11874L4.57675 7.11874C4.1705 7.11874 3.85741 6.80741 3.85741 6.40742C3.85741 6.0207 4.1705 5.70136 4.57675 5.70136L8.78019 5.70136C8.69654 5.91841 8.65195 6.15399 8.65195 6.39941ZM14.3805 6.40742C14.3805 6.80741 14.0594 7.11874 13.6531 7.11874L12.5565 7.11874C12.6437 6.89583 12.6904 6.65301 12.6904 6.39941C12.6904 6.15399 12.6458 5.91841 12.562 5.70136L13.6531 5.70136C14.0594 5.70136 14.3805 6.0207 14.3805 6.40742Z" fill="white" fill-opacity="0.85"/>
  <path d="M10.6703 8.42929C11.7789 8.42929 12.6904 7.51952 12.6904 6.39941C12.6904 5.29082 11.7789 4.38281 10.6703 4.38281C9.56172 4.38281 8.65195 5.29082 8.65195 6.39941C8.65195 7.51952 9.56172 8.42929 10.6703 8.42929ZM10.6703 7.31445C10.1603 7.31445 9.76855 6.91113 9.76855 6.39941C9.76855 5.88144 10.1603 5.49765 10.6703 5.49765C11.174 5.49765 11.5756 5.88144 11.5756 6.39941C11.5756 6.91113 11.174 7.31445 10.6703 7.31445Z" fill="white" fill-opacity="0.85"/>
 </g>
</svg>
