<?xml version="1.0" encoding="UTF-8"?>
<!--Generator: Apple Native CoreSVG 341-->
<!DOCTYPE svg
PUBLIC "-//W3C//DTD SVG 1.1//EN"
       "http://www.w3.org/Graphics/SVG/1.1/DTD/svg11.dtd">
<svg version="1.1" xmlns="http://www.w3.org/2000/svg" xmlns:xlink="http://www.w3.org/1999/xlink" viewBox="0 0 24.3062 17.4918">
 <g>
  <rect height="17.4918" opacity="0" width="24.3062" x="0" y="0"/>
  <path d="M11.824 1.96523C12.1588 1.89414 12.5371 1.83281 12.9057 1.83281C14.7834 1.84066 16.3769 3.12299 16.8254 4.88489C16.5398 4.83038 16.2454 4.80234 15.9449 4.80234C15.6301 4.80234 15.3206 4.83248 15.02 4.89251C14.6158 4.08414 13.8272 3.57811 12.8547 3.57811C12.4695 3.57811 12.2273 3.63846 11.8252 3.78592C11.2793 3.99198 10.9889 3.90311 10.7564 3.46639C10.217 2.45956 9.17753 1.79374 7.94511 1.79374C6.25917 1.79374 4.916 3.14159 4.85448 4.92597C4.83339 5.58398 4.64608 5.82265 4.00311 5.90858C2.65253 6.11835 1.76288 7.19491 1.76288 8.46581C1.76288 9.9625 2.87499 10.9574 4.5164 10.9574L4.65523 10.9574C4.19774 11.4252 3.86512 12.0061 3.70283 12.6566C1.45866 12.3268 0 10.6161 0 8.46581C0 6.52011 1.30059 4.86308 3.16562 4.33261C3.45898 1.90664 5.51015 0.0308585 7.96796 0.0308585C9.50195 0.0308585 10.9115 0.746484 11.824 1.96523Z" fill="white" fill-opacity="0.85"/>
  <path d="M7.59101 17.4918L19.3965 17.4918C22.0937 17.4918 23.9129 15.6307 23.9129 13.2373C23.9129 11.2916 22.6123 9.63632 20.7473 9.10586C20.4539 6.67812 18.4027 4.80234 15.9449 4.80234C14.4109 4.80234 13.0014 5.51797 12.0889 6.73672C11.7541 6.66562 11.3758 6.60429 11.0072 6.60429C9.09159 6.60429 7.47187 7.94043 7.05859 9.76211C5.07207 10.0227 3.58066 11.6228 3.58066 13.6066C3.58066 15.8412 5.27656 17.4918 7.59101 17.4918ZM7.59101 15.7289C6.25057 15.7289 5.34354 14.8689 5.34354 13.6049C5.34354 12.3898 6.31893 11.4746 7.61698 11.4129C8.29003 11.374 8.54765 11.183 8.61757 10.6033C8.77245 9.26718 9.74862 8.3496 11.0582 8.3496C11.4433 8.3496 11.6855 8.4117 12.0877 8.55917C12.6336 8.75721 12.924 8.6746 13.1564 8.23963C13.6959 7.23104 14.7353 6.57499 15.9678 6.56698C17.6537 6.56698 18.9969 7.91308 19.0584 9.69921C19.0795 10.3572 19.2668 10.5861 19.9098 10.6801C21.2603 10.8916 22.15 11.9682 22.15 13.2373C22.15 14.734 21.0379 15.7289 19.3965 15.7289Z" fill="white" fill-opacity="0.85"/>
 </g>
</svg>
