<?xml version="1.0" encoding="UTF-8"?>
<!--Generator: Apple Native CoreSVG 341-->
<!DOCTYPE svg
PUBLIC "-//W3C//DTD SVG 1.1//EN"
       "http://www.w3.org/Graphics/SVG/1.1/DTD/svg11.dtd">
<svg version="1.1" xmlns="http://www.w3.org/2000/svg" xmlns:xlink="http://www.w3.org/1999/xlink" viewBox="0 0 20.5381 20.1848">
 <g>
  <rect height="20.1848" opacity="0" width="20.5381" x="0" y="0"/>
  <path d="M20.1767 10.0973C20.1767 15.6656 15.6576 20.1848 10.0875 20.1848C4.52715 20.1848 0 15.6656 0 10.0973C0 4.53691 4.52715 0.00976562 10.0875 0.00976562C15.6576 0.00976562 20.1767 4.53691 20.1767 10.0973ZM10.0779 8.7334C9.85136 8.66582 9.65507 8.64004 9.42851 8.64004C8.39316 8.64004 7.53202 9.37363 7.34492 10.3762C6.27499 10.4353 5.43847 11.3187 5.43847 12.3744C5.43847 13.5266 6.28788 14.4125 7.52714 14.4125L14.1281 14.4125C15.5121 14.4125 16.4637 13.4422 16.4637 12.1844C16.4637 11.126 15.7203 10.2311 14.7125 10.0049C14.608 8.69609 13.5178 7.63398 12.1717 7.63398C11.3041 7.63398 10.5369 8.0541 10.0779 8.7334ZM5.15819 7.31699C4.13436 7.54492 3.39901 8.43984 3.39901 9.5C3.39901 10.4043 3.90937 11.1814 4.83593 11.5547C5.11484 10.6617 5.85175 9.97207 6.76347 9.73262C7.1832 8.65195 8.21562 7.90156 9.42851 7.90156C9.54589 7.90156 9.6748 7.90957 9.79218 7.92558C10.391 7.2707 11.233 6.93125 12.1084 6.91855C11.9373 6.39472 11.3488 5.93359 10.4721 5.93359C10.2269 5.93359 10.0174 5.98691 9.79003 6.05976C9.31249 5.35917 8.5621 4.9496 7.70878 4.9496C6.36893 4.9496 5.25468 6.00195 5.15819 7.31699Z" fill="white" fill-opacity="0.85"/>
 </g>
</svg>
