<?xml version="1.0" encoding="UTF-8"?>
<!--Generator: Apple Native CoreSVG 341-->
<!DOCTYPE svg
PUBLIC "-//W3C//DTD SVG 1.1//EN"
       "http://www.w3.org/Graphics/SVG/1.1/DTD/svg11.dtd">
<svg version="1.1" xmlns="http://www.w3.org/2000/svg" xmlns:xlink="http://www.w3.org/1999/xlink" viewBox="0 0 22.4275 22.0635">
 <g>
  <rect height="22.0635" opacity="0" width="22.4275" x="0" y="0"/>
  <path d="M6.57187 17.1382C6.57187 17.5532 6.27734 17.8673 5.85331 17.8593C5.45683 17.8673 5.17031 17.5532 5.17832 17.1382L5.16768 15.3301L6.56445 14.523ZM19.4031 14.9354C19.8111 15.1731 19.9441 15.6128 19.7064 16.011C19.5845 16.2295 19.4081 16.3641 19.2087 16.4117L17.0963 14.2986L17.6921 13.9512ZM3.50566 11.8376L5.76962 13.1498L4.37036 13.955L2.80312 13.0413C2.45371 12.8427 2.32597 12.4399 2.52285 12.0878C2.72597 11.7214 3.15449 11.631 3.50566 11.8376ZM16.2925 13.1462L16.1101 13.2519C16.0979 13.2594 16.0858 13.2672 16.0739 13.2759L15.473 12.6748ZM19.2648 9.01064C19.6142 9.20928 19.7402 9.61377 19.5451 9.95791C19.3402 10.3243 18.9117 10.421 18.5623 10.2144L16.2987 8.9024L17.6947 8.09526ZM6.53469 9.33705L5.78207 8.90208L5.95781 8.80009C5.96596 8.79517 5.97408 8.79011 5.982 8.78428ZM4.95919 7.76132L4.38607 8.09526L2.66484 7.10048C2.24883 6.8708 2.13183 6.41689 2.37754 6.01689C2.49279 5.8182 2.65471 5.69105 2.83877 5.64058ZM16.8896 4.90576L16.9003 6.72552L15.5035 7.53415L15.4961 4.90576C15.4961 4.50049 15.7906 4.18467 16.2146 4.19443C16.6111 4.18467 16.8976 4.50049 16.8896 4.90576Z" fill="white" fill-opacity="0.85"/>
  <path d="M9.70342 12.5063L7.6371 13.9032L3.46113 16.3161C3.04335 16.552 2.59746 16.4368 2.36953 16.019C2.13183 15.6093 2.25683 15.1811 2.6666 14.9354L6.84257 12.5323L8.78136 11.5841ZM19.5469 12.0798C19.742 12.4319 19.616 12.8347 19.2666 13.0333L17.0963 14.2986L16.0739 13.2759C16.0858 13.2672 16.0979 13.2594 16.1101 13.2519L18.5641 11.8296C18.9152 11.6229 19.342 11.7134 19.5469 12.0798ZM19.6904 6.01689C19.9441 6.42666 19.8191 6.8708 19.4014 7.10849L15.2174 9.52763L13.2721 10.4731L12.352 9.55265L14.4389 8.15049L18.6068 5.7376C19.0166 5.50166 19.4545 5.60713 19.6904 6.01689ZM5.982 8.78428C5.97408 8.79011 5.96596 8.79517 5.95781 8.80009L3.5039 10.2241C3.15273 10.4308 2.72597 10.3323 2.52109 9.96591C2.32597 9.62177 2.45019 9.21728 2.80136 9.01865L4.95919 7.76132Z" fill="white" fill-opacity="0.85"/>
  <path d="M11.7608 14.5639L11.8205 15.4007L11.8205 16.6501L14.1002 17.9507C14.4514 18.1573 14.5836 18.5681 14.3644 18.9282C14.1631 19.2804 13.7506 19.361 13.4012 19.1624L11.8205 18.257L11.8205 20.2265C11.8205 20.7143 11.4996 21.037 11.026 21.029C10.5603 21.029 10.2394 20.7063 10.2394 20.2265L10.2394 18.2616L8.66679 19.1624C8.31738 19.361 7.90488 19.2804 7.70351 18.9282C7.48437 18.5681 7.6166 18.1573 7.96777 17.9507L10.2394 16.6547L10.2394 15.4087L10.396 13.1989ZM11.8205 1.81924L11.8205 3.79667L13.4012 2.89131C13.7506 2.68467 14.1631 2.77158 14.3644 3.12373C14.5836 3.48388 14.4514 3.89638 14.1002 4.10302L11.8205 5.40193L11.8205 6.65127L11.6627 8.86315L10.3001 7.50007L10.2394 6.64326L10.2394 5.39737L7.96777 4.10302C7.6166 3.89638 7.48437 3.48388 7.70351 3.12373C7.90488 2.77158 8.31738 2.68467 8.66679 2.89131L10.2394 3.79209L10.2394 1.81924C10.2394 1.3456 10.5603 1.02471 11.026 1.02471C11.4996 1.0167 11.8205 1.3376 11.8205 1.81924Z" fill="white" fill-opacity="0.85"/>
  <path d="M19.5408 20.6413C19.8426 20.9413 20.3467 20.935 20.6404 20.6315C20.9404 20.3298 20.9422 19.8354 20.6404 19.5337L2.53515 1.43018C2.23339 1.12842 1.72929 1.12041 1.42578 1.43018C1.12578 1.72393 1.12578 2.22978 1.42578 2.52978Z" fill="white" fill-opacity="0.85"/>
 </g>
</svg>
