<?xml version="1.0" encoding="UTF-8"?>
<!--Generator: Apple Native CoreSVG 341-->
<!DOCTYPE svg
PUBLIC "-//W3C//DTD SVG 1.1//EN"
       "http://www.w3.org/Graphics/SVG/1.1/DTD/svg11.dtd">
<svg version="1.1" xmlns="http://www.w3.org/2000/svg" xmlns:xlink="http://www.w3.org/1999/xlink" viewBox="0 0 24.6491 24.3301">
 <g>
  <rect height="24.3301" opacity="0" width="24.6491" x="0" y="0"/>
  <path d="M1.60005 22.6871C3.8106 24.8931 6.61352 24.8045 8.94652 22.4795C9.96996 21.4613 11.9912 18.506 15.2495 15.2506C18.5049 11.9906 21.4602 9.96932 22.4801 8.94589C24.8034 6.61464 24.8938 3.80996 22.6877 1.59942C20.4754-0.606635 17.6725-0.524213 15.3333 1.80703C14.3178 2.82695 12.2965 5.77422 9.03658 9.0377C5.7731 12.2959 2.82583 14.3172 1.80767 15.3326C-0.525334 17.6719-0.605997 20.4766 1.60005 22.6871ZM12.4219 10.5275C11.9534 10.075 11.9418 9.35351 12.4041 8.90273C12.8532 8.45195 13.5702 8.45019 14.0387 8.90273L15.3764 10.2502C15.837 10.7107 15.8352 11.4225 15.3844 11.8652C14.9176 12.3338 14.2139 12.3355 13.7596 11.8652ZM8.88208 14.0611C8.42954 13.6006 8.42153 12.8853 8.88208 12.4248C9.33286 11.974 10.0428 11.974 10.4954 12.4426L11.8446 13.7918C12.3051 14.2443 12.3131 14.9365 11.8446 15.4051C11.4018 15.8558 10.6786 15.8656 10.226 15.3971Z" fill="white" fill-opacity="0.85"/>
 </g>
</svg>
