<?xml version="1.0" encoding="UTF-8"?>
<!--Generator: Apple Native CoreSVG 341-->
<!DOCTYPE svg
PUBLIC "-//W3C//DTD SVG 1.1//EN"
       "http://www.w3.org/Graphics/SVG/1.1/DTD/svg11.dtd">
<svg version="1.1" xmlns="http://www.w3.org/2000/svg" xmlns:xlink="http://www.w3.org/1999/xlink" viewBox="0 0 29.2761 14.9726">
 <g>
  <rect height="14.9726" opacity="0" width="29.2761" x="0" y="0"/>
  <path d="M8.77849 0.762104L3.34567 14.1992C3.1656 14.6525 2.83747 14.9726 2.19529 14.9726L0.906422 14.9726C0.0568161 14.9726-0.178924 14.3023 0.129668 13.734L6.87537 0.540037C7.04646 0.203124 7.30349 0.021289 7.67693 0.021289L8.32927 0.021289C8.74138 0.021289 8.93981 0.373044 8.77849 0.762104ZM22.0474 0.538279L28.7851 13.7322C29.0919 14.3006 28.858 14.9709 28.0146 14.9709L26.7195 14.9709C26.0773 14.9709 25.7492 14.6508 25.5691 14.1975L20.1363 0.760346C19.983 0.371286 20.1734 0.0177735 20.5855 0.0177735L21.2378 0.0177735C21.6095 0.0177735 21.8683 0.201367 22.0474 0.538279Z" fill="white" fill-opacity="0.85"/>
  <path d="M17.0043 8.81328L17.5795 9.14444L18.8806 8.3914C19.1744 8.21835 19.4699 8.29999 19.6234 8.5707C19.7752 8.81913 19.6935 9.1289 19.3998 9.28241L18.6156 9.74097L19.5072 10.2543C19.807 10.4246 19.8984 10.7662 19.7396 11.0475C19.5728 11.3402 19.225 11.4351 18.9332 11.2551L18.045 10.7443L18.0404 11.6514C18.0484 11.9779 17.8283 12.2016 17.5328 12.19C17.2195 12.2016 17.0056 11.9779 16.9976 11.6336L17.0054 10.1466L16.4302 9.81581L14.9042 8.8002L14.867 8.2472L15.3615 8.0017ZM11.8904 4.35429L11.8826 5.84929L12.4658 6.18359L13.9868 7.20554L14.022 7.7545L13.5224 8.00187L11.8838 7.18612L11.3075 6.85209L10.0074 7.60624C9.71364 7.77753 9.41813 7.69765 9.26461 7.42694C9.11286 7.1705 9.1945 6.86874 9.48825 6.71347L10.2708 6.25121L9.38082 5.73534C9.08102 5.5748 8.98961 5.23319 9.15641 4.94042C9.3152 4.65917 9.66305 4.56425 9.95485 4.74433L10.843 5.25341L10.8476 4.34628C10.8396 4.01796 11.0597 3.79609 11.3552 3.80585C11.6765 3.79609 11.8824 4.01796 11.8904 4.35429Z" fill="white" fill-opacity="0.85"/>
  <path d="M14.0377 7.99882L13.9864 8.7991L12.4658 9.81581L11.8826 10.1501L11.8904 11.6434C11.8824 11.9859 11.6765 12.2096 11.3552 12.198C11.0597 12.2096 10.8396 11.9859 10.8476 11.6594L10.843 10.746L9.95485 11.2551C9.66305 11.4351 9.3152 11.3402 9.15641 11.0475C8.98961 10.7662 9.08102 10.4246 9.38082 10.2543L10.2655 9.74494L9.48825 9.29042C9.1945 9.13691 9.11286 8.82714 9.26461 8.5787C9.41813 8.308 9.71364 8.22636 10.0074 8.39941L11.3001 9.14929L11.8838 8.81328L14.022 7.7545ZM18.0404 4.34628L18.045 5.25503L18.9332 4.74433C19.225 4.56425 19.5728 4.65917 19.7316 4.94042C19.8984 5.23319 19.807 5.5748 19.5072 5.73534L18.6172 6.25121L19.3998 6.71347C19.6935 6.86874 19.7752 7.1705 19.6234 7.42694C19.4699 7.69765 19.1744 7.77753 18.8806 7.60624L17.5805 6.85209L17.0043 7.18612L14.867 8.2472L14.8504 7.99882L14.9038 7.20383L16.4302 6.18359L17.0055 5.85282L16.9976 4.35429C17.0056 4.01796 17.2195 3.79609 17.5328 3.80585C17.8283 3.79609 18.0484 4.01796 18.0404 4.34628Z" fill="white" fill-opacity="0.85"/>
  <path d="M14.4431 14.1076C14.7705 14.1076 15.0269 13.8592 15.0269 13.5105L15.0269 10.6285L14.8504 7.99882L15.0269 5.37089L15.0269 2.48085C15.0269 2.14023 14.7705 1.89179 14.4431 1.89179C14.1175 1.89179 13.8691 2.14023 13.8691 2.48085L13.8691 5.37089L14.0377 7.99882L13.8691 10.6285L13.8691 13.5105C13.8691 13.8592 14.1175 14.1076 14.4431 14.1076ZM16.5418 3.22773C16.39 2.96327 16.0882 2.88339 15.8025 3.05468L14.4431 3.83691L13.0855 3.05468C12.7998 2.88339 12.498 2.96327 12.3463 3.22773C12.1945 3.49843 12.2744 3.79394 12.5601 3.96523L13.8894 4.72265C14.3322 4.96308 14.5656 4.96308 14.9986 4.72265L16.3279 3.96523C16.6136 3.79394 16.6935 3.49843 16.5418 3.22773ZM12.3463 12.7699C12.498 13.0344 12.7998 13.1125 13.0855 12.9412L14.4431 12.1607L15.8025 12.9412C16.0882 13.1125 16.39 13.0344 16.5418 12.7699C16.6935 12.4992 16.6136 12.2019 16.3279 12.0324L14.9986 11.2732C14.5656 11.0248 14.3322 11.0328 13.8894 11.2732L12.5601 12.0324C12.2744 12.2019 12.1945 12.4992 12.3463 12.7699Z" fill="white" fill-opacity="0.85"/>
 </g>
</svg>
