<?xml version="1.0" encoding="UTF-8"?>
<!--Generator: Apple Native CoreSVG 341-->
<!DOCTYPE svg
PUBLIC "-//W3C//DTD SVG 1.1//EN"
       "http://www.w3.org/Graphics/SVG/1.1/DTD/svg11.dtd">
<svg version="1.1" xmlns="http://www.w3.org/2000/svg" xmlns:xlink="http://www.w3.org/1999/xlink" viewBox="0 0 20.5381 20.1848">
 <g>
  <rect height="20.1848" opacity="0" width="20.5381" x="0" y="0"/>
  <path d="M7.69472 18.2633C5.72616 17.6844 4.0373 16.3986 2.93808 14.7062L6.10527 14.6609L7.49707 12.8812L6.50136 9.81152L3.9166 8.76503L1.54765 10.101C1.55917 8.04706 2.27753 6.19394 3.47187 4.73241L4.35917 7.65547L6.84472 8.66386L9.47812 6.63886L9.47812 4.03359L7.10488 2.10976C8.03456 1.75722 9.04062 1.56542 10.0795 1.56542C11.1166 1.56542 12.1227 1.75546 13.0523 2.108L10.6906 4.03183L10.6906 6.63886L13.3223 8.66386L15.7998 7.65547L16.6871 4.73241C17.8832 6.19394 18.6016 8.04706 18.6113 10.101L16.2424 8.76503L13.6576 9.81152L12.6602 12.8865L14.0519 14.668L17.2139 14.715C16.1164 16.4021 14.4293 17.6861 12.4625 18.2633L13.1242 15.4121L11.8391 13.7746L8.31112 13.7746L7.04101 15.4033ZM10.0875 20.175C15.6576 20.175 20.1767 15.6559 20.1767 10.0875C20.1767 4.51914 15.6576 0 10.0875 0C4.51914 0 0 4.51914 0 10.0875C0 15.6559 4.51914 20.175 10.0875 20.175Z" fill="white" fill-opacity="0.85"/>
 </g>
</svg>
