<?xml version="1.0" encoding="UTF-8"?>
<!--Generator: Apple Native CoreSVG 341-->
<!DOCTYPE svg
PUBLIC "-//W3C//DTD SVG 1.1//EN"
       "http://www.w3.org/Graphics/SVG/1.1/DTD/svg11.dtd">
<svg version="1.1" xmlns="http://www.w3.org/2000/svg" xmlns:xlink="http://www.w3.org/1999/xlink" viewBox="0 0 20.5381 20.1848">
 <g>
  <rect height="20.1848" opacity="0" width="20.5381" x="0" y="0"/>
  <path d="M10.0875 6.17499L6.28945 9.09941L7.80585 13.7746L12.3709 13.7746L13.8873 9.09941ZM13.5996 1.67324L10.0777 0.513278L6.54785 1.67324L10.0777 4.51698ZM9.49414 0.841794L9.49414 7.41913L10.6906 7.41913L10.6906 0.841794ZM16.8986 4.02695L15.5754 8.3996L19.5549 10.6281L18.792 6.4207ZM19.2043 7.56855L18.7519 6.46875L12.6521 8.93281L13.1045 10.0424ZM12.2756 19.0756L15.6234 17.6226L17.8904 14.7283L13.2963 14.6582ZM16.0242 17.2012L11.9828 12.0041L11.024 12.735L15.0769 17.9205ZM7.88964 19.033L6.86894 14.6174L2.27656 14.6857L4.54355 17.5818ZM4.14101 17.1603L5.08828 17.8797L9.1412 12.6941L8.18242 11.9633ZM3.27812 4.02695L1.38476 6.4207L0.620115 10.6281L4.60136 8.3996ZM0.972459 7.56855L7.07226 10.0424L7.5246 8.93281L1.4248 6.46875ZM10.0875 20.175C15.6576 20.175 20.1767 15.6559 20.1767 10.0875C20.1767 4.51914 15.6576 0 10.0875 0C4.51914 0 0 4.51914 0 10.0875C0 15.6559 4.51914 20.175 10.0875 20.175ZM10.0875 18.6113C5.38339 18.6113 1.56542 14.7916 1.56542 10.0875C1.56542 5.38339 5.38339 1.56366 10.0875 1.56366C14.7934 1.56366 18.6113 5.38339 18.6113 10.0875C18.6113 14.7916 14.7934 18.6113 10.0875 18.6113Z" fill="white" fill-opacity="0.85"/>
 </g>
</svg>
