<?xml version="1.0" encoding="UTF-8"?>
<!--Generator: Apple Native CoreSVG 341-->
<!DOCTYPE svg
PUBLIC "-//W3C//DTD SVG 1.1//EN"
       "http://www.w3.org/Graphics/SVG/1.1/DTD/svg11.dtd">
<svg version="1.1" xmlns="http://www.w3.org/2000/svg" xmlns:xlink="http://www.w3.org/1999/xlink" viewBox="0 0 30.9092 17.4535">
 <g>
  <rect height="17.4535" opacity="0" width="30.9092" x="0" y="0"/>
  <path d="M3.01015 5.94609L4.84687 5.94609L4.84687 2.55917C4.84687 2.11484 5.14452 1.82695 5.56308 1.82695L13.6367 1.82695C14.0633 1.82695 14.3547 2.11484 14.3547 2.55917L14.3547 10.3957L16.1914 10.3957L16.1914 2.52656C16.1914 1.00898 15.2019 0 13.7394 0L5.47011 0C3.99785 0 3.01015 1.00898 3.01015 2.52656ZM27.7631 5.94609L27.7631 2.52656C27.7631 1.00898 26.7736 0 25.3014 0L16.8066 0C15.3424 0 14.3547 1.00898 14.3547 2.52656L14.3547 10.3957L16.1914 10.3957L16.1914 2.55917C16.1914 2.11484 16.481 1.82695 16.9094 1.82695L25.2066 1.82695C25.6305 1.82695 25.9246 2.11132 25.9246 2.55917L25.9246 5.94609ZM0 12.9865C0 14.456 0.971678 15.4312 2.41992 15.4312L28.1262 15.4312C29.5744 15.4312 30.5478 14.456 30.5478 12.9865L30.5478 7.01386C30.5478 5.55234 29.5744 4.56738 28.1262 4.56738L26.7803 4.56738C25.34 4.56738 24.3701 5.55234 24.3701 7.01386L24.3701 9.25566L6.18573 9.25566L6.18573 7.01386C6.18573 5.55234 5.20429 4.56738 3.76406 4.56738L2.41992 4.56738C0.971678 4.56738 0 5.55234 0 7.01386ZM1.84472 12.967L1.84472 7.03339C1.84472 6.64589 2.10429 6.39433 2.50156 6.39433L3.67265 6.39433C4.07969 6.39433 4.34101 6.64589 4.34101 7.03339L4.34101 11.0826L26.2068 11.0826L26.2068 7.03339C26.2068 6.64589 26.4726 6.39433 26.8734 6.39433L28.0445 6.39433C28.4418 6.39433 28.7094 6.64589 28.7094 7.03339L28.7094 12.967C28.7094 13.3545 28.4418 13.6043 28.0445 13.6043L2.50156 13.6043C2.10429 13.6043 1.84472 13.3545 1.84472 12.967ZM3.66894 17.4375L4.28496 17.4375C4.85449 17.4375 5.23144 17.0668 5.23144 16.499L5.23144 14.3285L2.7207 14.3285L2.7207 16.499C2.7207 17.0668 3.09941 17.4375 3.66894 17.4375ZM26.2682 17.4375L26.8842 17.4375C27.4537 17.4375 27.8324 17.0668 27.8324 16.499L27.8324 14.3285L25.3217 14.3285L25.3217 16.499C25.3217 17.0668 25.7066 17.4375 26.2682 17.4375Z" fill="white" fill-opacity="0.85"/>
 </g>
</svg>
