<?xml version="1.0" encoding="UTF-8"?>
<!--Generator: Apple Native CoreSVG 341-->
<!DOCTYPE svg
PUBLIC "-//W3C//DTD SVG 1.1//EN"
       "http://www.w3.org/Graphics/SVG/1.1/DTD/svg11.dtd">
<svg version="1.1" xmlns="http://www.w3.org/2000/svg" xmlns:xlink="http://www.w3.org/1999/xlink" viewBox="0 0 20.5381 20.1848">
 <g>
  <rect height="20.1848" opacity="0" width="20.5381" x="0" y="0"/>
  <path d="M20.1767 10.0875C20.1767 15.6478 15.6576 20.175 10.0875 20.175C4.52715 20.175 0 15.6478 0 10.0875C0 4.51914 4.52715 0 10.0875 0C15.6576 0 20.1767 4.51914 20.1767 10.0875ZM3.49374 8.64023C3.49374 9.55468 3.87812 10.083 4.84414 10.5846L5.20996 10.7799C5.80585 11.0836 6.00293 11.2611 6.00293 11.6209C6.00293 11.9771 5.82714 12.1432 5.4496 12.1432C5.06679 12.1432 4.86249 11.9318 4.80038 11.4824C4.77734 11.3484 4.69745 11.2748 4.57148 11.2748L3.66406 11.2748C3.50878 11.2748 3.40937 11.3795 3.41738 11.5232C3.42538 12.6686 4.11874 13.3619 5.43984 13.3619C6.68105 13.3619 7.42499 12.6037 7.42499 11.4744C7.42499 10.5404 7.05039 10.1115 6.03378 9.56289L5.6582 9.35605C5.09785 9.05859 4.92382 8.83124 4.92382 8.49374C4.92382 8.19531 5.12988 7.99277 5.43632 7.99277C5.74804 7.99277 5.92382 8.20234 6.00293 8.62871C6.03398 8.78124 6.0996 8.85136 6.23984 8.85136L7.08691 8.85136C7.24218 8.85136 7.33535 8.75644 7.33535 8.60292C7.32734 7.55702 6.71562 6.77402 5.43984 6.77402C4.21288 6.77402 3.49374 7.54199 3.49374 8.64023ZM7.79687 10.0875C7.79687 12.2574 8.58085 13.3619 10.0875 13.3619C11.5746 13.3619 12.3603 12.2592 12.3603 10.0875C12.3603 7.94062 11.5861 6.77402 10.0875 6.77402C8.57109 6.77402 7.79687 7.94062 7.79687 10.0875ZM12.8086 8.64023C12.8086 9.55468 13.1947 10.083 14.1572 10.5846L14.523 10.7799C15.1189 11.0916 15.3195 11.2611 15.3195 11.6209C15.3195 11.9771 15.1518 12.1432 14.7662 12.1432C14.3834 12.1432 14.1773 11.9318 14.1152 11.4824C14.0939 11.3484 14.0141 11.2748 13.8783 11.2748L12.9646 11.2748C12.8254 11.2748 12.726 11.3795 12.726 11.5232C12.742 12.6686 13.4353 13.3619 14.7564 13.3619C15.9977 13.3619 16.7398 12.6037 16.7398 11.4744C16.7398 10.5404 16.3732 10.1115 15.3504 9.56289L14.973 9.35605C14.4109 9.05859 14.2307 8.83124 14.2307 8.49374C14.2307 8.19531 14.4447 7.99277 14.7529 7.99277C15.0629 7.99277 15.2369 8.20234 15.3195 8.62871C15.3506 8.78124 15.4144 8.85136 15.5467 8.85136L16.4035 8.85136C16.557 8.85136 16.6502 8.75644 16.6502 8.60292C16.6422 7.55702 16.0322 6.77402 14.7564 6.77402C13.5295 6.77402 12.8086 7.54199 12.8086 8.64023ZM10.8734 10.0875C10.8734 11.5312 10.6203 12.0978 10.0875 12.0978C9.52714 12.0978 9.26601 11.5312 9.26601 10.0875C9.26601 8.64199 9.52714 8.05937 10.0875 8.05937C10.6203 8.05937 10.8734 8.64199 10.8734 10.0875Z" fill="white" fill-opacity="0.85"/>
 </g>
</svg>
