<?xml version="1.0" encoding="UTF-8"?>
<!--Generator: Apple Native CoreSVG 341-->
<!DOCTYPE svg
PUBLIC "-//W3C//DTD SVG 1.1//EN"
       "http://www.w3.org/Graphics/SVG/1.1/DTD/svg11.dtd">
<svg version="1.1" xmlns="http://www.w3.org/2000/svg" xmlns:xlink="http://www.w3.org/1999/xlink" viewBox="0 0 20.5381 20.1848">
 <g>
  <rect height="20.1848" opacity="0" width="20.5381" x="0" y="0"/>
  <path d="M10.0875 20.175C15.6576 20.175 20.1767 15.6559 20.1767 10.0875C20.1767 4.51914 15.6576 0 10.0875 0C4.51914 0 0 4.51914 0 10.0875C0 15.6559 4.51914 20.175 10.0875 20.175ZM10.0875 18.1879C5.60839 18.1879 1.9871 14.5666 1.9871 10.0875C1.9871 5.60839 5.60839 1.9871 10.0875 1.9871C14.5666 1.9871 18.1897 5.60839 18.1897 10.0875C18.1897 14.5666 14.5666 18.1879 10.0875 18.1879Z" fill="white" fill-opacity="0.85"/>
  <path d="M5.61171 13.2396C6.80683 13.2396 7.52245 12.508 7.52245 11.4266C7.52245 10.5271 7.15312 10.1195 6.18261 9.58417L5.81855 9.38261C5.27948 9.08691 5.10898 8.8791 5.10898 8.55312C5.10898 8.2662 5.31327 8.06366 5.6082 8.06366C5.90839 8.06366 6.07265 8.27148 6.15175 8.67656C6.18281 8.82909 6.24667 8.8957 6.37714 8.8957L7.19941 8.8957C7.34316 8.8957 7.43456 8.80429 7.43456 8.66054C7.42656 7.65097 6.83964 6.89452 5.61171 6.89452C4.43261 6.89452 3.73827 7.63769 3.73827 8.68984C3.73827 9.57773 4.11913 10.067 5.03906 10.5615L5.39159 10.7533C5.96445 11.0553 6.15175 11.2133 6.15175 11.5598C6.15175 11.908 5.98749 12.0723 5.62324 12.0723C5.25195 12.0723 5.05566 11.8627 4.9953 11.4346C4.97226 11.3006 4.89413 11.2287 4.76991 11.2287L3.89882 11.2287C3.75331 11.2287 3.65566 11.3316 3.66366 11.4754C3.67167 12.5728 4.34023 13.2396 5.61171 13.2396ZM10.0875 13.2396C11.5152 13.2396 12.2762 12.175 12.2762 10.0875C12.2762 8.02128 11.5268 6.89452 10.0875 6.89452C8.63046 6.89452 7.88105 8.02128 7.88105 10.0875C7.88105 12.1732 8.64023 13.2396 10.0875 13.2396ZM10.0875 12.0252C9.55019 12.0252 9.29081 11.4834 9.29081 10.0875C9.29081 8.6916 9.55019 8.13027 10.0875 8.13027C10.5973 8.13027 10.8486 8.6916 10.8486 10.0875C10.8486 11.4834 10.5973 12.0252 10.0875 12.0252ZM14.5846 13.2396C15.7779 13.2396 16.4953 12.508 16.4953 11.4266C16.4953 10.5271 16.1322 10.1195 15.1537 9.58417L14.7896 9.38261C14.2523 9.08691 14.0801 8.8791 14.0801 8.55312C14.0801 8.2662 14.2844 8.06366 14.5793 8.06366C14.8795 8.06366 15.0535 8.27148 15.1246 8.67656C15.1557 8.82909 15.2178 8.8957 15.35 8.8957L16.1723 8.8957C16.3143 8.8957 16.4074 8.80429 16.4074 8.66054C16.3994 7.65097 15.8107 6.89452 14.5846 6.89452C13.4037 6.89452 12.7094 7.63769 12.7094 8.68984C12.7094 9.57773 13.0902 10.067 14.0102 10.5615L14.3627 10.7533C14.9373 11.0633 15.1246 11.2133 15.1246 11.5598C15.1246 11.908 14.9666 12.0723 14.5943 12.0723C14.223 12.0723 14.0268 11.8627 13.9664 11.4346C13.9434 11.3006 13.8652 11.2287 13.741 11.2287L12.8619 11.2287C12.7244 11.2287 12.6268 11.3316 12.6268 11.4754C12.6428 12.5728 13.3131 13.2396 14.5846 13.2396Z" fill="white" fill-opacity="0.85"/>
 </g>
</svg>
