<?xml version="1.0" encoding="UTF-8"?>
<!--Generator: Apple Native CoreSVG 341-->
<!DOCTYPE svg
PUBLIC "-//W3C//DTD SVG 1.1//EN"
       "http://www.w3.org/Graphics/SVG/1.1/DTD/svg11.dtd">
<svg version="1.1" xmlns="http://www.w3.org/2000/svg" xmlns:xlink="http://www.w3.org/1999/xlink" viewBox="0 0 25.1146 20.0754">
 <g>
  <rect height="20.0754" opacity="0" width="25.1146" x="0" y="0"/>
  <path d="M18.2582 19.1717C18.2582 19.6551 17.8582 20.0558 17.3723 20.0558L7.38105 20.0558C6.89512 20.0558 6.49512 19.6551 6.49512 19.1717C6.49512 18.6883 6.89512 18.2875 7.38105 18.2875L17.3723 18.2875C17.8582 18.2875 18.2582 18.6883 18.2582 19.1717ZM24.7533 2.69257L24.7533 13.9473C24.7533 15.7432 23.8308 16.6398 22.0607 16.6398L2.69257 16.6398C0.930465 16.6398 0 15.7432 0 13.9473L0 2.69257C0 0.898434 0.930465 0 2.69257 0L22.0607 0C23.8308 0 24.7533 0.898434 24.7533 2.69257ZM8.49844 9.6873C8.22129 11.1394 8.32539 11.1955 6.70625 11.468C6.55098 11.4928 6.45606 11.6117 6.45606 11.7572C6.45606 11.917 6.55098 12.0217 6.7293 12.0545C8.32363 12.2941 8.22129 12.3537 8.49844 13.8191C8.54551 13.9824 8.63242 14.0933 8.7957 14.0933C8.93769 14.0933 9.05566 13.9904 9.09297 13.8467C9.35937 12.359 9.27754 12.3029 10.8967 12.0545C11.0404 12.0217 11.1416 11.8992 11.1416 11.7572C11.1416 11.6117 11.0387 11.491 10.8967 11.468C9.27929 11.2096 9.3541 11.1517 9.09297 9.6873C9.05566 9.52402 8.94922 9.41132 8.7957 9.41132C8.64043 9.41132 8.54551 9.51601 8.49844 9.6873ZM12.4887 3.37949C11.9566 6.38867 11.6508 6.90898 8.55351 7.3289C8.33789 7.35995 8.19687 7.52675 8.19687 7.72284C8.19687 7.93222 8.33789 8.08124 8.55351 8.11581C11.6394 8.46874 12.0326 9.06327 12.4887 12.0652C12.5215 12.2728 12.6705 12.4201 12.8906 12.4201C13.0885 12.4201 13.241 12.2728 13.2801 12.075C13.8174 9.07382 14.1154 8.53046 17.2197 8.11581C17.4326 8.09277 17.5799 7.93222 17.5799 7.72284C17.5799 7.52675 17.4326 7.35995 17.2197 7.3289C14.1463 6.91425 13.7389 6.35566 13.2801 3.3875C13.2437 3.17812 13.0885 3.03261 12.8906 3.03261C12.6848 3.03261 12.534 3.16836 12.4887 3.37949Z" fill="white" fill-opacity="0.85"/>
 </g>
</svg>
