<?xml version="1.0" encoding="UTF-8"?>
<!--Generator: Apple Native CoreSVG 341-->
<!DOCTYPE svg
PUBLIC "-//W3C//DTD SVG 1.1//EN"
       "http://www.w3.org/Graphics/SVG/1.1/DTD/svg11.dtd">
<svg version="1.1" xmlns="http://www.w3.org/2000/svg" xmlns:xlink="http://www.w3.org/1999/xlink" viewBox="0 0 24.1775 25.2707">
 <g>
  <rect height="25.2707" opacity="0" width="24.1775" x="0" y="0"/>
  <path d="M18.0952 2.88261L5.72099 2.88261C5.75663 2.04585 6.28265 1.56055 7.15234 1.56055L16.6639 1.56055C17.5336 1.56055 18.0596 2.04585 18.0952 2.88261Z" fill="white" fill-opacity="0.85"/>
  <path d="M20.07 5.78717C19.7399 5.73352 19.3903 5.70644 19.0228 5.70644L4.79335 5.70644C4.42595 5.70644 4.07642 5.73351 3.74638 5.78715C3.85387 4.80443 4.52056 4.24765 5.59745 4.24765L18.2268 4.24765C19.3037 4.24765 19.9637 4.80444 20.07 5.78717Z" fill="white" fill-opacity="0.85"/>
  <path d="M4.79335 23.6826L19.0228 23.6826C21.1307 23.6826 22.2264 22.5949 22.2264 20.5111L22.2264 10.4678C22.2264 8.38221 21.1307 7.29628 19.0228 7.29628L4.79335 7.29628C2.68379 7.29628 1.58984 8.38221 1.58984 10.4678L1.58984 20.5111C1.58984 22.5949 2.68379 23.6826 4.79335 23.6826ZM4.91229 21.7693C4.00428 21.7693 3.50311 21.293 3.50311 20.3424L3.50311 10.6347C3.50311 9.68592 4.00428 9.20955 4.91229 9.20955L18.9119 9.20955C19.8039 9.20955 20.3131 9.68592 20.3131 10.6347L20.3131 20.3424C20.3131 21.293 19.8039 21.7693 18.9119 21.7693Z" fill="white" fill-opacity="0.85"/>
  <path d="M12.3686 19.349C12.5611 19.349 12.6969 19.215 12.7359 19.026C13.2432 16.1918 13.5209 15.674 16.4564 15.2859C16.6588 15.2549 16.799 15.1111 16.799 14.9185C16.799 14.7277 16.6588 14.584 16.4564 14.5484C13.5482 14.1603 13.1691 13.6238 12.7359 10.8244C12.7031 10.6221 12.5611 10.4916 12.3686 10.4916C12.1875 10.4916 12.0357 10.614 11.9984 10.8164C11.4947 13.6568 11.2047 14.1551 8.27617 14.5484C8.07558 14.584 7.94335 14.7277 7.94335 14.9185C7.94335 15.1111 8.07558 15.2531 8.27617 15.2859C11.1969 15.615 11.568 16.183 11.9984 19.018C12.0295 19.215 12.1732 19.349 12.3686 19.349ZM8.52187 20.9215C8.65058 20.9215 8.76328 20.8301 8.79257 20.6978C9.05019 19.2914 8.9666 19.2353 10.4947 18.9957C10.635 18.9744 10.7246 18.8555 10.7246 18.7187C10.7246 18.5865 10.6332 18.4676 10.4947 18.448C8.97011 18.2047 9.04668 18.1469 8.79257 16.7734C8.76328 16.6234 8.66035 16.5142 8.52187 16.5142C8.37988 16.5142 8.28047 16.6154 8.24316 16.7734C7.97929 18.1363 8.07539 18.1924 6.54726 18.448C6.39902 18.4711 6.31562 18.5865 6.31562 18.7187C6.31562 18.8732 6.39902 18.9744 6.57031 18.9957C8.07363 19.2283 7.97929 19.2879 8.24316 20.6721C8.28047 20.8203 8.37187 20.9215 8.52187 20.9215Z" fill="white" fill-opacity="0.85"/>
 </g>
</svg>
