<?xml version="1.0" encoding="UTF-8"?>
<!--Generator: Apple Native CoreSVG 341-->
<!DOCTYPE svg
PUBLIC "-//W3C//DTD SVG 1.1//EN"
       "http://www.w3.org/Graphics/SVG/1.1/DTD/svg11.dtd">
<svg version="1.1" xmlns="http://www.w3.org/2000/svg" xmlns:xlink="http://www.w3.org/1999/xlink" viewBox="0 0 24.1775 25.2707">
 <g>
  <rect height="25.2707" opacity="0" width="24.1775" x="0" y="0"/>
  <path d="M18.0952 2.88261L5.72099 2.88261C5.75663 2.04585 6.28265 1.56055 7.15234 1.56055L16.6639 1.56055C17.5336 1.56055 18.0596 2.04585 18.0952 2.88261Z" fill="white" fill-opacity="0.85"/>
  <path d="M20.07 5.78717C19.7399 5.73352 19.3903 5.70644 19.0228 5.70644L4.79335 5.70644C4.42595 5.70644 4.07642 5.73351 3.74638 5.78715C3.85387 4.80443 4.52056 4.24765 5.59745 4.24765L18.2268 4.24765C19.3037 4.24765 19.9637 4.80444 20.07 5.78717Z" fill="white" fill-opacity="0.85"/>
  <path d="M22.2264 10.4678L22.2264 20.5111C22.2264 22.5949 21.1307 23.6826 19.0228 23.6826L4.79335 23.6826C2.68379 23.6826 1.58984 22.5949 1.58984 20.5111L1.58984 10.4678C1.58984 8.38221 2.68379 7.29628 4.79335 7.29628L19.0228 7.29628C21.1307 7.29628 22.2264 8.38221 22.2264 10.4678ZM8.10762 16.8308C7.83398 18.2531 7.93808 18.3092 6.35058 18.5746C6.19883 18.5994 6.10742 18.7166 6.10742 18.8568C6.10742 19.0148 6.19883 19.1178 6.37363 19.1488C7.93633 19.3832 7.83398 19.4428 8.10762 20.8863C8.15469 21.0381 8.24609 21.1473 8.39785 21.1473C8.53808 21.1473 8.65254 21.0461 8.68984 20.9139C8.95097 19.448 8.86914 19.392 10.4566 19.1488C10.5969 19.1178 10.6963 18.9971 10.6963 18.8568C10.6963 18.7166 10.5951 18.5976 10.4566 18.5746C8.8709 18.3215 8.94746 18.2637 8.68984 16.8308C8.65254 16.6791 8.54785 16.5601 8.39785 16.5601C8.25586 16.5601 8.15469 16.6711 8.10762 16.8308ZM12.0135 10.6443C11.4965 13.5937 11.1914 14.115 8.15566 14.5182C7.94531 14.5572 7.80781 14.7107 7.80781 14.9033C7.80781 15.1074 7.94531 15.2609 8.15566 15.2937C11.1836 15.6361 11.568 16.2271 12.0135 19.1613C12.0463 19.3717 12.1998 19.5074 12.4066 19.5074C12.601 19.5074 12.7482 19.3717 12.7873 19.1693C13.3158 16.2342 13.6051 15.6951 16.6514 15.2937C16.8572 15.2644 17.009 15.1074 17.009 14.9033C17.009 14.7107 16.8572 14.5572 16.6514 14.5182C13.6342 14.1185 13.2355 13.5625 12.7873 10.6523C12.7527 10.4482 12.601 10.3062 12.4066 10.3062C12.2141 10.3062 12.0588 10.4402 12.0135 10.6443Z" fill="white" fill-opacity="0.85"/>
 </g>
</svg>
