<?xml version="1.0" encoding="UTF-8"?>
<!--Generator: Apple Native CoreSVG 341-->
<!DOCTYPE svg
PUBLIC "-//W3C//DTD SVG 1.1//EN"
       "http://www.w3.org/Graphics/SVG/1.1/DTD/svg11.dtd">
<svg version="1.1" xmlns="http://www.w3.org/2000/svg" xmlns:xlink="http://www.w3.org/1999/xlink" viewBox="0 0 14.5812 17.4789">
 <g>
  <rect height="17.4789" opacity="0" width="14.5812" x="0" y="0"/>
  <path d="M2.16445 12.892L4.93281 12.892C5.01191 12.892 5.083 12.916 5.14785 12.9746L9.43613 16.8144C9.94531 17.2678 10.3348 17.4789 10.8492 17.4789C11.5684 17.4789 12.1074 16.9496 12.1074 16.2287L12.1074 1.30976C12.1074 0.588865 11.5684 0.00976562 10.8332 0.00976562C10.3275 0.00976562 9.98887 0.233398 9.43613 0.724022L5.14785 4.53008C5.08124 4.58692 5.01191 4.6127 4.93281 4.6127L2.16445 4.6127C0.732614 4.6127 0 5.36387 0 6.88007L0 10.6344C0 12.1488 0.732614 12.892 2.16445 12.892ZM2.32948 11.1727C1.99706 11.1727 1.84159 11.0154 1.84159 10.6928L1.84159 6.81991C1.84159 6.49101 1.99706 6.33378 2.32948 6.33378L5.38241 6.33378C5.64862 6.33378 5.8412 6.27968 6.06581 6.0746L9.97461 2.51502C10.0217 2.46795 10.0785 2.44217 10.1354 2.44217C10.2072 2.44217 10.2658 2.49276 10.2658 2.5824L10.2658 14.9C10.2658 14.9897 10.2072 15.0518 10.1354 15.0518C10.0865 15.0518 10.0297 15.0225 9.98262 14.9754L6.06581 11.4318C5.8412 11.233 5.64862 11.1727 5.38241 11.1727Z" fill="white" fill-opacity="0.85"/>
 </g>
</svg>
