<?xml version="1.0" encoding="UTF-8"?>
<!--Generator: Apple Native CoreSVG 341-->
<!DOCTYPE svg
PUBLIC "-//W3C//DTD SVG 1.1//EN"
       "http://www.w3.org/Graphics/SVG/1.1/DTD/svg11.dtd">
<svg version="1.1" xmlns="http://www.w3.org/2000/svg" xmlns:xlink="http://www.w3.org/1999/xlink" viewBox="0 0 24.3851 17.4789">
 <g>
  <rect height="17.4789" opacity="0" width="24.3851" x="0" y="0"/>
  <path d="M20.4299 12.3195L20.4299 5.13358C20.4299 4.58984 20.0459 4.20937 19.5066 4.20937C18.9754 4.20937 18.5994 4.58984 18.5994 5.13358L18.5994 12.3195C18.5994 12.8535 18.9754 13.2357 19.5066 13.2357C20.0459 13.2357 20.4299 12.8615 20.4299 12.3195ZM15.9217 9.63378L23.1156 9.63378C23.6514 9.63378 24.0238 9.26406 24.0238 8.73457C24.0238 8.19531 23.6514 7.81133 23.1156 7.81133L15.9217 7.81133C15.3797 7.81133 14.9975 8.19531 14.9975 8.73457C14.9975 9.26406 15.3797 9.63378 15.9217 9.63378Z" fill="white" fill-opacity="0.85"/>
  <path d="M2.15644 12.892L4.93105 12.892C5.01015 12.892 5.08124 12.916 5.14609 12.9746L9.43613 16.8144C9.94355 17.2678 10.3348 17.4789 10.8475 17.4789C11.5603 17.4789 12.1074 16.9496 12.1074 16.2287L12.1074 1.30976C12.1074 0.588865 11.5603 0.00976562 10.8314 0.00976562C10.3258 0.00976562 9.98086 0.233398 9.43613 0.724022L5.14609 4.53008C5.07949 4.58692 5.01015 4.6127 4.93105 4.6127L2.15644 4.6127C0.724607 4.6127 0 5.36387 0 6.88007L0 10.6344C0 12.1488 0.732614 12.892 2.15644 12.892ZM2.31972 11.1727C1.99706 11.1727 1.84159 11.0154 1.84159 10.6928L1.84159 6.81991C1.84159 6.49101 1.99706 6.33378 2.31972 6.33378L5.37441 6.33378C5.63886 6.33378 5.83944 6.27968 6.06405 6.0746L9.97461 2.51502C10.0199 2.46795 10.0688 2.44217 10.1354 2.44217C10.2055 2.44217 10.2658 2.49276 10.2658 2.5824L10.2658 14.9C10.2658 14.9897 10.2055 15.0518 10.1354 15.0518C10.0848 15.0518 10.0279 15.0225 9.97461 14.9754L6.06405 11.4318C5.83944 11.233 5.63886 11.1727 5.37441 11.1727Z" fill="white" fill-opacity="0.85"/>
 </g>
</svg>
