<?xml version="1.0" encoding="UTF-8"?>
<!--Generator: Apple Native CoreSVG 341-->
<!DOCTYPE svg
PUBLIC "-//W3C//DTD SVG 1.1//EN"
       "http://www.w3.org/Graphics/SVG/1.1/DTD/svg11.dtd">
<svg version="1.1" xmlns="http://www.w3.org/2000/svg" xmlns:xlink="http://www.w3.org/1999/xlink" viewBox="0 0 18.2801 17.4789">
 <g>
  <rect height="17.4789" opacity="0" width="18.2801" x="0" y="0"/>
  <path d="M15.4195 13.075C15.8226 13.3435 16.366 13.2523 16.6648 12.824C17.4502 11.7762 17.9187 10.2859 17.9187 8.74257C17.9187 7.19922 17.4502 5.71699 16.6648 4.65762C16.366 4.23282 15.8226 4.1336 15.4195 4.41016C14.9435 4.72227 14.8586 5.29668 15.2299 5.84296C15.7699 6.61015 16.0764 7.6537 16.0764 8.74257C16.0764 9.83144 15.7619 10.8652 15.2299 11.6422C14.8666 12.1965 14.9435 12.7549 15.4195 13.075Z" fill="white" fill-opacity="0.85"/>
  <path d="M2.15644 12.892L4.93105 12.892C5.01015 12.892 5.08124 12.916 5.14609 12.9746L9.43613 16.8144C9.93554 17.2678 10.3348 17.4789 10.8394 17.4789C11.5603 17.4789 12.0976 16.9496 12.0976 16.2287L12.0976 1.30976C12.0976 0.588865 11.5603 0.00976562 10.8234 0.00976562C10.3258 0.00976562 9.98086 0.233398 9.43613 0.724022L5.14609 4.53008C5.07949 4.58692 5.01015 4.6127 4.93105 4.6127L2.15644 4.6127C0.724607 4.6127 0 5.36387 0 6.88007L0 10.6344C0 12.1488 0.732614 12.892 2.15644 12.892ZM2.31972 11.1727C1.99706 11.1727 1.84159 11.0154 1.84159 10.6928L1.84159 6.81991C1.84159 6.49101 1.99706 6.33378 2.31972 6.33378L5.37441 6.33378C5.63886 6.33378 5.83944 6.27968 6.06405 6.0746L9.97461 2.51502C10.0199 2.46795 10.0688 2.44217 10.1354 2.44217C10.2055 2.44217 10.2658 2.49276 10.2658 2.5824L10.2658 14.9C10.2658 14.9897 10.2055 15.0518 10.1354 15.0518C10.0848 15.0518 10.0279 15.0225 9.97461 14.9754L6.06405 11.4318C5.83944 11.233 5.63886 11.1727 5.37441 11.1727Z" fill="white" fill-opacity="0.85"/>
 </g>
</svg>
