<?xml version="1.0" encoding="UTF-8"?>
<!--Generator: Apple Native CoreSVG 341-->
<!DOCTYPE svg
PUBLIC "-//W3C//DTD SVG 1.1//EN"
       "http://www.w3.org/Graphics/SVG/1.1/DTD/svg11.dtd">
<svg version="1.1" xmlns="http://www.w3.org/2000/svg" xmlns:xlink="http://www.w3.org/1999/xlink" viewBox="0 0 24.3996 17.4789">
 <g>
  <rect height="17.4789" opacity="0" width="24.3996" x="0" y="0"/>
  <path d="M23.4387 6.27774L21.1681 6.27774L21.1681 6.27187L23.5422 3.14238C23.7623 2.86016 23.8492 2.67656 23.8492 2.47871C23.8492 2.13184 23.5742 1.91192 23.2105 1.91192L19.8976 1.91192C19.5437 1.91192 19.298 2.1416 19.298 2.49199C19.298 2.85215 19.5437 3.08359 19.8976 3.08359L22.043 3.08359L22.043 3.06992L19.6344 6.19766C19.4107 6.4834 19.3371 6.65996 19.3371 6.89062C19.3371 7.21347 19.5943 7.45117 19.966 7.45117L23.4387 7.45117C23.7908 7.45117 24.0383 7.21972 24.0383 6.85957C24.0383 6.51719 23.7908 6.27774 23.4387 6.27774ZM17.6402 10.2859L16.0674 10.2859L16.0674 10.2996L17.734 8.11894C17.9398 7.85273 18.0295 7.67265 18.0295 7.47656C18.0295 7.14921 17.7678 6.94883 17.4139 6.94883L14.9183 6.94883C14.5875 6.94883 14.3596 7.16875 14.3596 7.48984C14.3596 7.84999 14.5857 8.06015 14.9183 8.06015L16.3164 8.06015L16.3164 8.04648L14.6596 10.2191C14.4652 10.4853 14.3836 10.6521 14.3836 10.8695C14.3836 11.1809 14.623 11.407 14.9601 11.407L17.6402 11.407C17.9764 11.407 18.2025 11.1986 18.2025 10.8465C18.2025 10.5156 17.9746 10.2859 17.6402 10.2859ZM22.0771 13.9887L20.7414 13.9887L20.7414 14.0023L22.1514 12.1156C22.3537 11.8396 22.4273 11.6889 22.4273 11.506C22.4273 11.1867 22.1834 10.9881 21.8605 10.9881L19.6474 10.9881C19.3246 10.9881 19.1082 11.1965 19.1082 11.5176C19.1082 11.8502 19.3228 12.0488 19.6474 12.0488L20.8039 12.0488L20.8039 12.0334L19.4037 13.9219C19.2174 14.1783 19.1295 14.3371 19.1295 14.5332C19.1295 14.8312 19.3734 15.0476 19.6945 15.0476L22.0771 15.0476C22.3787 15.0476 22.5969 14.8392 22.5969 14.5101C22.5969 14.1988 22.3769 13.9887 22.0771 13.9887Z" fill="white" fill-opacity="0.85"/>
  <path d="M10.6838 17.4789C11.4127 17.4789 11.942 16.9496 11.942 16.2287L11.942 1.30976C11.942 0.588865 11.4127 0.00976562 10.6678 0.00976562C10.1701 0.00976562 9.82343 0.221875 9.28847 0.724022L5.19414 4.54942C5.1373 4.60449 5.0582 4.63379 4.96933 4.63379L2.20449 4.63379C0.772654 4.63379 0 5.43125 0 6.93945L0 10.5652C0 12.0814 0.772654 12.8726 2.20449 12.8726L4.96757 12.8726C5.05644 12.8726 5.13554 12.8967 5.19238 12.9517L9.28847 16.8144C9.77011 17.2793 10.1791 17.4789 10.6838 17.4789Z" fill="white" fill-opacity="0.85"/>
 </g>
</svg>
