<?xml version="1.0" encoding="UTF-8"?>
<!--Generator: Apple Native CoreSVG 341-->
<!DOCTYPE svg
PUBLIC "-//W3C//DTD SVG 1.1//EN"
       "http://www.w3.org/Graphics/SVG/1.1/DTD/svg11.dtd">
<svg version="1.1" xmlns="http://www.w3.org/2000/svg" xmlns:xlink="http://www.w3.org/1999/xlink" viewBox="0 0 14.5812 17.4789">
 <g>
  <rect height="17.4789" opacity="0" width="14.5812" x="0" y="0"/>
  <path d="M10.6855 17.4789C11.4127 17.4789 11.9437 16.9496 11.9437 16.2287L11.9437 1.30976C11.9437 0.588865 11.4127 0.00976562 10.6678 0.00976562C10.1799 0.00976562 9.82343 0.213867 9.28847 0.724022L5.2039 4.54942C5.13906 4.60449 5.06796 4.63379 4.97734 4.63379L2.20449 4.63379C0.780662 4.63379 0 5.43125 0 6.93945L0 10.5652C0 12.0814 0.780662 12.8726 2.20449 12.8726L4.97558 12.8726C5.06445 12.8726 5.1373 12.8967 5.20214 12.9517L9.28847 16.8144C9.77812 17.2793 10.1871 17.4789 10.6855 17.4789Z" fill="white" fill-opacity="0.85"/>
 </g>
</svg>
