<?xml version="1.0" encoding="UTF-8"?>
<!--Generator: Apple Native CoreSVG 341-->
<!DOCTYPE svg
PUBLIC "-//W3C//DTD SVG 1.1//EN"
       "http://www.w3.org/Graphics/SVG/1.1/DTD/svg11.dtd">
<svg version="1.1" xmlns="http://www.w3.org/2000/svg" xmlns:xlink="http://www.w3.org/1999/xlink" viewBox="0 0 18.5894 18.2316">
 <g>
  <rect height="18.2316" opacity="0" width="18.5894" x="0" y="0"/>
  <path d="M18.2281 3.17148L18.2281 15.0646C18.2281 17.1502 17.1404 18.2281 15.0246 18.2281L3.20351 18.2281C1.0957 18.2281 0 17.1502 0 15.0646L0 3.17148C0 1.08769 1.0957 0 3.20351 0L15.0246 0C17.1404 0 18.2281 1.08769 18.2281 3.17148ZM10.2088 4.74316L7.98574 6.8455C7.95644 6.87304 7.8871 6.89082 7.84531 6.89082L6.34179 6.89082C5.56347 6.89082 5.14374 7.3123 5.14374 8.1332L5.14374 10.1162C5.14374 10.9371 5.56347 11.3603 6.34179 11.3603L7.84531 11.3603C7.8871 11.3603 7.95468 11.3764 7.98398 11.4021L10.2088 13.516C10.4732 13.777 10.6969 13.8736 10.9764 13.8736C11.3596 13.8736 11.6398 13.5979 11.6398 13.2066L11.6398 5.05878C11.6398 4.67734 11.3596 4.35976 10.9684 4.35976C10.6941 4.35976 10.5088 4.4707 10.2088 4.74316Z" fill="white" fill-opacity="0.85"/>
 </g>
</svg>
