<?xml version="1.0" encoding="UTF-8"?>
<!--Generator: Apple Native CoreSVG 341-->
<!DOCTYPE svg
PUBLIC "-//W3C//DTD SVG 1.1//EN"
       "http://www.w3.org/Graphics/SVG/1.1/DTD/svg11.dtd">
<svg version="1.1" xmlns="http://www.w3.org/2000/svg" xmlns:xlink="http://www.w3.org/1999/xlink" viewBox="0 0 20.5381 20.1848">
 <g>
  <rect height="20.1848" opacity="0" width="20.5381" x="0" y="0"/>
  <path d="M20.1767 10.0875C20.1767 15.6559 15.6576 20.175 10.0875 20.175C4.51914 20.175 0 15.6559 0 10.0875C0 4.51914 4.51914 0 10.0875 0C15.6576 0 20.1767 4.51914 20.1767 10.0875ZM1.9871 10.0875C1.9871 14.5666 5.60839 18.1879 10.0875 18.1879C14.5666 18.1879 18.1897 14.5666 18.1897 10.0875C18.1897 5.60839 14.5666 1.9871 10.0875 1.9871C5.60839 1.9871 1.9871 5.60839 1.9871 10.0875Z" fill="white" fill-opacity="0.85"/>
  <path d="M12.4514 14.1223C12.4081 14.4464 12.1488 14.6703 11.8139 14.6703C11.5477 14.6703 11.3355 14.5674 11.0844 14.326L8.93847 12.291C8.90917 12.2635 8.85136 12.2475 8.80781 12.2475L7.3539 12.2475C6.60214 12.2475 6.20546 11.8312 6.20546 11.0484L6.20546 9.14257C6.20546 8.72443 6.31864 8.41089 6.53975 8.21065ZM12.4588 6.17538L12.4588 10.7762L9.26876 7.58916L11.0844 5.88105C11.3631 5.62187 11.5449 5.51269 11.8059 5.51269C12.182 5.51269 12.4588 5.81522 12.4588 6.17538Z" fill="white" fill-opacity="0.85"/>
  <path d="M14.065 14.7355C14.2486 14.9174 14.568 14.9271 14.7516 14.7355C14.9449 14.5439 14.9449 14.2406 14.7516 14.0473L6.14549 5.43319C5.94413 5.23983 5.63905 5.23983 5.44745 5.43319C5.25409 5.62479 5.25409 5.93612 5.44745 6.11971Z" fill="white" fill-opacity="0.85"/>
 </g>
</svg>
