<?xml version="1.0" encoding="UTF-8"?>
<!--Generator: Apple Native CoreSVG 341-->
<!DOCTYPE svg
PUBLIC "-//W3C//DTD SVG 1.1//EN"
       "http://www.w3.org/Graphics/SVG/1.1/DTD/svg11.dtd">
<svg version="1.1" xmlns="http://www.w3.org/2000/svg" xmlns:xlink="http://www.w3.org/1999/xlink" viewBox="0 0 22.9756 17.4789">
 <g>
  <rect height="17.4789" opacity="0" width="22.9756" x="0" y="0"/>
  <path d="M19.322 15.6773C19.7607 15.9566 20.3013 15.8494 20.6054 15.4062C21.8765 13.6101 22.6142 11.2064 22.6142 8.73457C22.6142 6.26269 21.8845 3.84297 20.6054 2.06114C20.3013 1.61973 19.7607 1.51251 19.322 1.7918C18.8623 2.08164 18.7967 2.65312 19.1344 3.15898C20.1742 4.67519 20.7736 6.67206 20.7736 8.73457C20.7736 10.7971 20.1582 12.7762 19.1344 14.3084C18.8047 14.8142 18.8623 15.3875 19.322 15.6773Z" fill="white" fill-opacity="0.85"/>
  <path d="M15.4275 13.067C15.8306 13.3338 16.374 13.2443 16.6728 12.816C17.4599 11.7682 17.9267 10.2779 17.9267 8.73457C17.9267 7.19121 17.4599 5.70898 16.6728 4.64961C16.374 4.22481 15.8306 4.12559 15.4275 4.40215C14.9516 4.71426 14.8666 5.28867 15.2396 5.83495C15.7797 6.60214 16.0844 7.6457 16.0844 8.73457C16.0844 9.82343 15.7699 10.8572 15.2396 11.6342C14.8746 12.1867 14.9516 12.7469 15.4275 13.067Z" fill="white" fill-opacity="0.85"/>
  <path d="M2.15644 12.892L4.93105 12.892C5.01015 12.892 5.08124 12.916 5.14609 12.9746L9.43613 16.8144C9.94355 17.2678 10.3348 17.4789 10.8475 17.4789C11.5603 17.4789 12.1074 16.9496 12.1074 16.2287L12.1074 1.30976C12.1074 0.588865 11.5603 0.00976562 10.8314 0.00976562C10.3258 0.00976562 9.98086 0.233398 9.43613 0.724022L5.14609 4.53008C5.07949 4.58692 5.01015 4.6127 4.93105 4.6127L2.15644 4.6127C0.724607 4.6127 0 5.36387 0 6.88007L0 10.6344C0 12.1488 0.732614 12.892 2.15644 12.892ZM2.31972 11.1727C1.99706 11.1727 1.84159 11.0154 1.84159 10.6928L1.84159 6.81991C1.84159 6.49101 1.99706 6.33378 2.31972 6.33378L5.37441 6.33378C5.63886 6.33378 5.83944 6.27968 6.06405 6.0746L9.97461 2.51502C10.0199 2.46795 10.0688 2.44217 10.1354 2.44217C10.2055 2.44217 10.2658 2.49276 10.2658 2.5824L10.2658 14.9C10.2658 14.9897 10.2055 15.0518 10.1354 15.0518C10.0848 15.0518 10.0279 15.0225 9.97461 14.9754L6.06405 11.4318C5.83944 11.233 5.63886 11.1727 5.37441 11.1727Z" fill="white" fill-opacity="0.85"/>
 </g>
</svg>
