<?xml version="1.0" encoding="UTF-8"?>
<!--Generator: Apple Native CoreSVG 341-->
<!DOCTYPE svg
PUBLIC "-//W3C//DTD SVG 1.1//EN"
       "http://www.w3.org/Graphics/SVG/1.1/DTD/svg11.dtd">
<svg version="1.1" xmlns="http://www.w3.org/2000/svg" xmlns:xlink="http://www.w3.org/1999/xlink" viewBox="0 0 20.5381 20.1848">
 <g>
  <rect height="20.1848" opacity="0" width="20.5381" x="0" y="0"/>
  <path d="M10.0875 20.175C15.6576 20.175 20.1767 15.6559 20.1767 10.0875C20.1767 4.51914 15.6576 0 10.0875 0C4.51914 0 0 4.51914 0 10.0875C0 15.6559 4.51914 20.175 10.0875 20.175ZM10.0875 18.1879C5.60839 18.1879 1.9871 14.5666 1.9871 10.0875C1.9871 5.60839 5.60839 1.9871 10.0875 1.9871C14.5666 1.9871 18.1897 5.60839 18.1897 10.0875C18.1897 14.5666 14.5666 18.1879 10.0875 18.1879Z" fill="white" fill-opacity="0.85"/>
  <path d="M11.8959 12.2689C12.1283 12.442 12.4531 12.3684 12.6324 12.135C13.0275 11.6139 13.2557 10.86 13.2557 10.0795C13.2557 9.31503 13.0213 8.56113 12.6324 8.03203C12.4646 7.79238 12.1301 7.72851 11.8959 7.89628C11.6324 8.08359 11.5783 8.40917 11.7832 8.70526C12.023 9.03827 12.175 9.54999 12.175 10.0795C12.175 10.593 12.0213 11.1047 11.7752 11.4617C11.5801 11.7676 11.6244 12.0719 11.8959 12.2689Z" fill="white" fill-opacity="0.85"/>
  <path d="M13.6894 13.5404C13.9574 13.7019 14.26 13.6478 14.4295 13.3977C15.068 12.4717 15.432 11.3102 15.432 10.0812C15.432 8.8746 15.0857 7.71308 14.4295 6.77284C14.2519 6.51464 13.9414 6.45077 13.6894 6.61406C13.4287 6.79511 13.3896 7.12245 13.5777 7.40448C14.0822 8.12909 14.3594 9.08027 14.3594 10.0812C14.3594 11.076 14.0822 12.0574 13.5777 12.758C13.3816 13.04 13.4127 13.3754 13.6894 13.5404Z" fill="white" fill-opacity="0.85"/>
  <path d="M9.68086 14.3783C10.0242 14.3783 10.2814 14.1229 10.2814 13.776L10.2814 6.41503C10.2814 6.06815 10.0242 5.79042 9.67285 5.79042C9.42969 5.79042 9.26113 5.8996 9.00195 6.13573L6.95918 8.04902C6.93339 8.08007 6.88984 8.08808 6.84628 8.08808L5.48984 8.08808C4.80468 8.08808 4.42304 8.47148 4.42304 9.20195L4.42304 10.9811C4.42304 11.7035 4.80468 12.0887 5.48984 12.0887L6.84628 12.0887C6.88984 12.0887 6.93339 12.1047 6.95918 12.1322L9.00195 14.065C9.23535 14.2754 9.43594 14.3783 9.68086 14.3783Z" fill="white" fill-opacity="0.85"/>
 </g>
</svg>
