<?xml version="1.0" encoding="UTF-8"?>
<!--Generator: Apple Native CoreSVG 341-->
<!DOCTYPE svg
PUBLIC "-//W3C//DTD SVG 1.1//EN"
       "http://www.w3.org/Graphics/SVG/1.1/DTD/svg11.dtd">
<svg version="1.1" xmlns="http://www.w3.org/2000/svg" xmlns:xlink="http://www.w3.org/1999/xlink" viewBox="0 0 27.6533 19.4612">
 <g>
  <rect height="19.4612" opacity="0" width="27.6533" x="0" y="0"/>
  <path d="M23.2461 19.3109C23.6677 19.5937 24.2377 19.4697 24.54 19.0052C26.263 16.4361 27.2919 13.2363 27.2919 9.73101C27.2919 6.21949 26.239 3.03395 24.54 0.458562C24.2377-0.015654 23.6677-0.129911 23.2461 0.1529C22.7853 0.448992 22.7207 1.0152 23.0388 1.51754C24.5349 3.79078 25.4656 6.61207 25.4656 9.73101C25.4656 12.842 24.5349 15.681 23.0388 17.9462C22.7207 18.4486 22.7853 19.013 23.2461 19.3109Z" fill="white" fill-opacity="0.85"/>
  <path d="M19.322 16.6685C19.7607 16.9478 20.3013 16.8406 20.6054 16.3974C21.8765 14.6013 22.6142 12.1976 22.6142 9.72574C22.6142 7.25387 21.8845 4.83414 20.6054 3.05231C20.3013 2.61091 19.7607 2.50368 19.322 2.78298C18.8623 3.07282 18.7967 3.6443 19.1344 4.15015C20.1742 5.66636 20.7736 7.66324 20.7736 9.72574C20.7736 11.7882 20.1582 13.7673 19.1344 15.2996C18.8047 15.8054 18.8623 16.3787 19.322 16.6685Z" fill="white" fill-opacity="0.85"/>
  <path d="M15.4195 14.0582C15.8226 14.325 16.366 14.2355 16.6648 13.8072C17.4502 12.7593 17.9187 11.2691 17.9187 9.72574C17.9187 8.18238 17.4502 6.70016 16.6648 5.64079C16.366 5.21598 15.8226 5.11676 15.4195 5.39333C14.9435 5.70543 14.8586 6.27984 15.2299 6.82613C15.7699 7.59332 16.0764 8.63687 16.0764 9.72574C16.0764 10.8146 15.7619 11.8484 15.2299 12.6254C14.8666 13.1779 14.9435 13.738 15.4195 14.0582Z" fill="white" fill-opacity="0.85"/>
  <path d="M10.6838 18.4701C11.4127 18.4701 11.942 17.9408 11.942 17.2199L11.942 2.30093C11.942 1.58004 11.4127 1.00094 10.6678 1.00094C10.1701 1.00094 9.81543 1.20504 9.28847 1.7152L5.19414 5.54059C5.1373 5.59567 5.0582 5.62497 4.96933 5.62497L2.20449 5.62497C0.772654 5.62497 0 6.42242 0 7.93062L0 11.5564C0 13.0726 0.772654 13.8638 2.20449 13.8638L4.96757 13.8638C5.05644 13.8638 5.13554 13.8878 5.19238 13.9429L9.28847 17.8056C9.77011 18.2705 10.1791 18.4701 10.6838 18.4701Z" fill="white" fill-opacity="0.85"/>
 </g>
</svg>
