<?xml version="1.0" encoding="UTF-8"?>
<!--Generator: Apple Native CoreSVG 341-->
<!DOCTYPE svg
PUBLIC "-//W3C//DTD SVG 1.1//EN"
       "http://www.w3.org/Graphics/SVG/1.1/DTD/svg11.dtd">
<svg version="1.1" xmlns="http://www.w3.org/2000/svg" xmlns:xlink="http://www.w3.org/1999/xlink" viewBox="0 0 24.3851 17.4789">
 <g>
  <rect height="17.4789" opacity="0" width="24.3851" x="0" y="0"/>
  <path d="M20.4299 12.3195L20.4299 5.13358C20.4299 4.58984 20.0459 4.20937 19.5066 4.20937C18.9754 4.20937 18.5994 4.58984 18.5994 5.13358L18.5994 12.3195C18.5994 12.8535 18.9754 13.2357 19.5066 13.2357C20.0459 13.2357 20.4299 12.8615 20.4299 12.3195ZM15.9217 9.63378L23.1156 9.63378C23.6514 9.63378 24.0238 9.26406 24.0238 8.73457C24.0238 8.19531 23.6514 7.81133 23.1156 7.81133L15.9217 7.81133C15.3797 7.81133 14.9975 8.19531 14.9975 8.73457C14.9975 9.26406 15.3797 9.63378 15.9217 9.63378Z" fill="white" fill-opacity="0.85"/>
  <path d="M10.6838 17.4789C11.4127 17.4789 11.942 16.9496 11.942 16.2287L11.942 1.30976C11.942 0.588865 11.4127 0.00976562 10.6678 0.00976562C10.1701 0.00976562 9.81543 0.213867 9.28847 0.724022L5.19414 4.54942C5.1373 4.60449 5.0582 4.63379 4.96933 4.63379L2.20449 4.63379C0.772654 4.63379 0 5.43125 0 6.93945L0 10.5652C0 12.0814 0.772654 12.8726 2.20449 12.8726L4.96757 12.8726C5.05644 12.8726 5.13554 12.8967 5.19238 12.9517L9.28847 16.8144C9.77011 17.2793 10.1791 17.4789 10.6838 17.4789Z" fill="white" fill-opacity="0.85"/>
 </g>
</svg>
