<?xml version="1.0" encoding="UTF-8"?>
<!--Generator: Apple Native CoreSVG 341-->
<!DOCTYPE svg
PUBLIC "-//W3C//DTD SVG 1.1//EN"
       "http://www.w3.org/Graphics/SVG/1.1/DTD/svg11.dtd">
<svg version="1.1" xmlns="http://www.w3.org/2000/svg" xmlns:xlink="http://www.w3.org/1999/xlink" viewBox="0 0 24.3275 19.289">
 <g>
  <rect height="19.289" opacity="0" width="24.3275" x="0" y="0"/>
  <path d="M10.8107 1.07578L5.67949 0.513867C4.7416 0.410937 4.07442 1.01426 4.07442 1.90332C4.07442 2.80214 4.7416 3.40546 5.67949 3.29452L10.8107 2.74238ZM11.7627 3.80839C12.8213 3.80839 13.6758 2.96191 13.6758 1.90332C13.6758 0.85449 12.8213 0 11.7627 0C10.7139 0 9.85937 0.85449 9.85937 1.90332C9.85937 2.96191 10.7139 3.80839 11.7627 3.80839ZM12.7164 1.07578L12.7164 2.74238L17.8574 3.29452C18.7873 3.40546 19.4527 2.80214 19.4527 1.90332C19.4527 1.01426 18.7873 0.410937 17.8574 0.513867ZM10.8066 3.09042L10.8066 5.51464L12.7267 5.51464L12.7267 3.09042ZM13.2603 7.64823L14.7748 7.64823L14.7748 6.10253C14.7748 5.19316 14.1316 4.55175 13.2303 4.55175L10.2756 4.55175C9.36796 4.55175 8.7248 5.19316 8.7248 6.10253L8.7248 7.64823L10.2392 7.64823L10.2392 6.26659C10.2392 6.02303 10.4099 5.85858 10.6455 5.85858L12.8621 5.85858C13.0976 5.85858 13.2603 6.02303 13.2603 6.26659ZM11.7529 17.6299C13.6254 17.6299 14.6883 16.8123 15.7568 15.8299C16.1316 15.4763 16.5848 15.273 17.0084 15.273C17.7767 15.273 18.3816 15.8547 18.3816 16.9205L18.3816 18.2859C18.3816 18.8625 18.7904 19.2713 19.367 19.2713L22.9728 19.2713C23.5494 19.2713 23.9662 18.8625 23.9662 18.2859L23.9662 17.273C23.9662 11.4932 20.3908 9.51776 17.1682 9.51776L16.8133 9.51776C16.6424 9.51776 16.506 9.42304 16.4512 9.26991L15.9082 7.80721C15.6873 7.1871 15.3396 6.91307 14.7631 6.91307L8.73476 6.91307C8.15996 6.91307 7.82031 7.1871 7.5914 7.80721L7.05644 9.26991C6.99355 9.42304 6.85722 9.51776 6.69433 9.51776L0.642577 9.51776L0.642577 11.1334L6.93261 11.1334C7.91659 11.1334 8.25018 10.7138 8.50487 10.0252L9.04843 8.53045L14.4574 8.53045L15.0027 10.0252C15.2557 10.7138 15.6041 11.1334 16.5961 11.1334L17.1074 11.1334C19.9178 11.1334 22.3603 12.6894 22.3603 17.273L22.3603 17.6557L19.9973 17.6557L19.9973 16.9205C19.9973 14.2574 18.3779 13.6414 17.0945 13.6414C16.0828 13.6414 15.3521 14.032 14.6764 14.6644C13.9994 15.2635 13.2258 16.0142 11.7529 16.0142C10.3449 16.0142 9.48104 15.3967 8.76307 14.5865C8.15233 13.8586 7.69139 13.6156 6.61093 13.6156L0.642577 13.6156L0.642577 15.233L6.52753 15.233C7.03749 15.233 7.25663 15.3056 7.59335 15.6912C8.61054 16.8254 10.0369 17.6299 11.7529 17.6299ZM0.881441 17.4467C1.37187 17.4467 1.76913 17.0414 1.76913 16.5572L1.76913 8.42929C1.76913 7.94687 1.37187 7.54159 0.881441 7.54159C0.397264 7.54159 0 7.94687 0 8.42929L0 16.5572C0 17.0414 0.397264 17.4467 0.881441 17.4467Z" fill="white" fill-opacity="0.85"/>
 </g>
</svg>
