<?xml version="1.0" encoding="UTF-8"?>
<!--Generator: Apple Native CoreSVG 341-->
<!DOCTYPE svg
PUBLIC "-//W3C//DTD SVG 1.1//EN"
       "http://www.w3.org/Graphics/SVG/1.1/DTD/svg11.dtd">
<svg version="1.1" xmlns="http://www.w3.org/2000/svg" xmlns:xlink="http://www.w3.org/1999/xlink" viewBox="0 0 26.7533 18.2316">
 <g>
  <rect height="18.2316" opacity="0" width="26.7533" x="0" y="0"/>
  <path d="M3.84101 18.2281L22.551 18.2281C25.0234 18.2281 26.392 16.8596 26.392 14.3871L26.392 3.84101C26.392 1.36855 25.0234 0 22.551 0L3.84101 0C1.36855 0 0 1.36855 0 3.84101L0 14.3871C0 16.8596 1.36855 18.2281 3.84101 18.2281ZM3.92949 16.3148C2.61522 16.3148 1.91327 15.6146 1.91327 14.2986L1.91327 3.93124C1.91327 2.60722 2.61522 1.91327 3.92949 1.91327L22.4625 1.91327C23.7865 1.91327 24.4787 2.60722 24.4787 3.93124L24.4787 14.2986C24.4787 15.6146 23.7865 16.3148 22.4625 16.3148ZM1.06582 13.4109L3.46307 13.4109C5.10819 13.4109 6.00311 12.5178 6.00311 10.8789L6.00311 7.3412C6.00311 5.70234 5.10819 4.80742 3.46307 4.80742L1.06582 4.80742L1.06582 6.30917L3.46405 6.30917C4.13691 6.30917 4.50488 6.67714 4.50488 7.34824L4.50488 10.8701C4.50488 11.543 4.13691 11.9109 3.46405 11.9109L1.06582 11.9109ZM22.9307 13.4109L25.3279 13.4109L25.3279 11.9109L22.9279 11.9109C22.2568 11.9109 21.8951 11.543 21.8951 10.8701L21.8951 7.34824C21.8951 6.67714 22.2568 6.30917 22.9279 6.30917L25.3279 6.30917L25.3279 4.80742L22.9307 4.80742C21.2838 4.80742 20.3969 5.70234 20.3969 7.3412L20.3969 10.8789C20.3969 12.5178 21.2838 13.4109 22.9307 13.4109ZM12.4518 17.2109L13.95 17.2109L13.95 1.01893L12.4518 1.01893ZM13.1951 13.6967C15.7344 13.6967 17.7889 11.6502 17.7889 9.11093C17.7889 6.56992 15.7344 4.51542 13.1951 4.51542C10.6541 4.51542 8.60762 6.56992 8.60762 9.11093C8.60762 11.6502 10.6541 13.6967 13.1951 13.6967ZM13.1951 12.2908C11.4391 12.2908 10.0152 10.867 10.0152 9.11093C10.0152 7.35487 11.4391 5.92304 13.1951 5.92304C14.9512 5.92304 16.383 7.35487 16.383 9.11093C16.383 10.867 14.9512 12.2908 13.1951 12.2908ZM13.1951 10.6955C14.0775 10.6955 14.7779 9.98535 14.7779 9.11093C14.7779 8.23652 14.0775 7.52636 13.1951 7.52636C12.3189 7.52636 11.6105 8.23652 11.6105 9.11093C11.6105 9.98535 12.3189 10.6955 13.1951 10.6955Z" fill="white" fill-opacity="0.85"/>
 </g>
</svg>
