<?xml version="1.0" encoding="UTF-8"?>
<!--Generator: Apple Native CoreSVG 341-->
<!DOCTYPE svg
PUBLIC "-//W3C//DTD SVG 1.1//EN"
       "http://www.w3.org/Graphics/SVG/1.1/DTD/svg11.dtd">
<svg version="1.1" xmlns="http://www.w3.org/2000/svg" xmlns:xlink="http://www.w3.org/1999/xlink" viewBox="0 0 21.4021 16.2601">
 <g>
  <rect height="16.2601" opacity="0" width="21.4021" x="0" y="0"/>
  <path d="M8.22675 4.33222L12.8078 4.33222C13.5744 4.33222 14.1058 3.79101 14.1058 3.02441L14.1058 2.15918C14.1058 0.876952 13.2006 0.0044924 11.8482 0.0044924L9.18456 0.0044924C7.83398 0.0044924 6.92695 0.876952 6.92695 2.15918L6.92695 3.02441C6.92695 3.79101 7.45839 4.33222 8.22675 4.33222ZM8.88027 6.59862L12.1605 6.59862L12.1605 3.63125L8.88027 3.63125ZM8.27519 10.1195L12.7656 10.1195C13.5568 10.1195 14.1058 9.57929 14.1058 8.79062L14.1058 6.98964C14.1058 6.21074 13.5568 5.67051 12.7656 5.67051L8.27519 5.67051C7.48398 5.67051 6.92695 6.21074 6.92695 6.98964L6.92695 8.79062C6.92695 9.57929 7.48398 10.1195 8.27519 10.1195ZM8.88027 15.1926L12.1605 15.1926L12.1605 9.4246L8.88027 9.4246ZM0 15.3408C0 15.8506 0.411326 16.2601 0.911323 16.2601L20.1215 16.2601C20.6232 16.2601 21.0408 15.8488 21.0408 15.3408C21.0408 14.8391 20.6215 14.4295 20.1215 14.4295L0.911323 14.4295C0.409568 14.4295 0 14.8408 0 15.3408Z" fill="white" fill-opacity="0.85"/>
 </g>
</svg>
