<?xml version="1.0" encoding="UTF-8"?>
<!--Generator: Apple Native CoreSVG 341-->
<!DOCTYPE svg
PUBLIC "-//W3C//DTD SVG 1.1//EN"
       "http://www.w3.org/Graphics/SVG/1.1/DTD/svg11.dtd">
<svg version="1.1" xmlns="http://www.w3.org/2000/svg" xmlns:xlink="http://www.w3.org/1999/xlink" viewBox="0 0 23.861 23.6761">
 <g>
  <rect height="23.6761" opacity="0" width="23.861" x="0" y="0"/>
  <path d="M4.71492 6.65952L4.19338 6.96109C3.89846 7.13433 3.78908 7.25875 3.78908 7.64703L3.78908 15.9345C3.78908 16.0287 3.85119 16.0633 3.94533 16.0144L5.87757 14.8938L5.87757 17.0957L4.55607 17.8587C3.0553 18.7271 1.90374 18.14 1.90374 16.3482L1.90374 7.6025C1.90374 6.46032 2.24632 5.86657 3.23596 5.29372L3.30658 5.25288ZM13.4303 2.20797L13.4303 3.98445L11.545 5.07288L11.545 2.89097C11.545 2.79683 11.4766 2.748 11.3842 2.80308L8.26468 4.60691L6.85663 3.19971L10.9475 0.833756C12.0514 0.204267 13.4303 0.624382 13.4303 2.20797Z" fill="white" fill-opacity="0.85"/>
  <path d="M7.77661 9.7175C7.7659 9.77905 7.76115 9.85023 7.76115 9.93355L7.76115 18.2211C7.76115 18.3134 7.82502 18.348 7.90939 18.2992L10.0614 17.0519L10.0614 19.266L8.5299 20.1515C7.02912 21.0119 5.87757 20.4265 5.87757 18.641L5.87757 9.88902C5.87757 9.18852 6.00758 8.69417 6.33933 8.28196ZM17.4024 4.49449L17.4024 6.56326L15.5188 7.65263L15.5188 5.17573C15.5188 5.09136 15.4504 5.03452 15.3563 5.0896L11.1682 7.50864L9.76128 6.10261L14.9133 3.12829C16.0172 2.49079 17.4024 2.91891 17.4024 4.49449Z" fill="white" fill-opacity="0.85"/>
  <path d="M11.9467 13.8825L11.9467 20.6713C11.9467 20.7636 12.0088 20.8062 12.1029 20.7574L16.3557 18.2862L17.7568 19.6857L12.7137 22.6017C11.2129 23.4701 10.0614 22.8767 10.0614 21.0912L10.0614 12.3392C10.0614 12.2241 10.0649 12.1146 10.0733 12.0114ZM21.5879 6.94293L21.5879 15.9425C21.5879 16.627 21.4854 17.105 21.1724 17.5068L19.6961 16.0314C19.7007 15.9847 19.7026 15.9331 19.7026 15.8763L19.7026 7.62593C19.7026 7.54155 19.6342 7.49273 19.5498 7.53804L14.2567 10.5953L12.8542 9.19368L19.1051 5.57848C20.209 4.94723 21.5879 5.36911 21.5879 6.94293Z" fill="white" fill-opacity="0.85"/>
  <path d="M21.3354 21.5652C21.6451 21.8652 22.1412 21.8687 22.435 21.5652C22.735 21.2617 22.7447 20.7691 22.435 20.4656L3.38831 1.43043C3.08479 1.12692 2.59046 1.12692 2.27894 1.43043C1.98519 1.72242 1.98519 2.23629 2.27894 2.53004Z" fill="white" fill-opacity="0.85"/>
 </g>
</svg>
