<?xml version="1.0" encoding="UTF-8"?>
<!--Generator: Apple Native CoreSVG 341-->
<!DOCTYPE svg
PUBLIC "-//W3C//DTD SVG 1.1//EN"
       "http://www.w3.org/Graphics/SVG/1.1/DTD/svg11.dtd">
<svg version="1.1" xmlns="http://www.w3.org/2000/svg" xmlns:xlink="http://www.w3.org/1999/xlink" viewBox="0 0 23.5359 27.0623">
 <g>
  <rect height="27.0623" opacity="0" width="23.5359" x="0" y="0"/>
  <path d="M13.2663 3.57849L4.14921 8.84326C3.75156 9.06591 3.66016 9.21337 3.66016 9.68035L3.66016 20.1787C2.75525 20.4095 1.78282 20.0684 1.78282 18.5456L1.78282 9.39833C1.78282 8.18759 1.91759 7.95439 2.95977 7.36103L10.8168 2.82119C11.6869 2.31814 12.9657 2.2875 13.2663 3.57849Z" fill="white" fill-opacity="0.85"/>
  <path d="M17.2071 5.85373L8.08866 11.1192C7.69902 11.3419 7.60761 11.4893 7.60761 11.9563L7.60761 22.454C6.69971 22.6863 5.73028 22.3461 5.73028 20.8216L5.73028 11.6663C5.73028 10.4636 5.86505 10.2304 6.89922 9.629L14.7643 5.09716C15.6353 4.59353 16.91 4.56341 17.2071 5.85373Z" fill="white" fill-opacity="0.85"/>
  <path d="M9.84298 23.0343C9.84298 24.7645 11.1445 25.2639 12.4734 24.4948L20.085 20.1266C21.0853 19.5493 21.3918 19.0386 21.3918 17.8358L21.3918 8.85223C21.3918 7.16201 20.108 6.76045 18.7791 7.52158L11.1676 11.9138C10.1432 12.5071 9.84298 13.0276 9.84298 14.2063ZM11.7861 22.539L11.7861 14.2743C11.7861 13.9138 11.8936 13.7343 12.2 13.5593L19.3324 9.37703C19.4203 9.3282 19.4984 9.35574 19.4984 9.46941L19.4984 17.7421C19.4984 18.0608 19.391 18.2821 19.0846 18.4651L11.9441 22.6153C11.8562 22.6722 11.7861 22.6366 11.7861 22.539Z" fill="white" fill-opacity="0.85"/>
 </g>
</svg>
