<?xml version="1.0" encoding="UTF-8"?>
<!--Generator: Apple Native CoreSVG 341-->
<!DOCTYPE svg
PUBLIC "-//W3C//DTD SVG 1.1//EN"
       "http://www.w3.org/Graphics/SVG/1.1/DTD/svg11.dtd">
<svg version="1.1" xmlns="http://www.w3.org/2000/svg" xmlns:xlink="http://www.w3.org/1999/xlink" viewBox="0 0 18.5574 18.2156">
 <g>
  <rect height="18.2156" opacity="0" width="18.5574" x="0" y="0"/>
  <path d="M3.60957 13.7215C3.60957 14.2254 3.93691 14.5607 4.43906 14.5607L13.7686 14.5607C14.2725 14.5607 14.5998 14.2254 14.5998 13.7215L14.5998 4.47636C14.5998 3.97246 14.2725 3.64511 13.7686 3.64511L4.43906 3.64511C3.93691 3.64511 3.60957 3.97246 3.60957 4.47636ZM5.41913 12.4697L5.41913 5.73612C5.41913 5.53182 5.49276 5.45643 5.70057 5.45643L12.5088 5.45643C12.7148 5.45643 12.7885 5.53182 12.7885 5.73612L12.7885 12.4697C12.7885 12.666 12.7148 12.7494 12.5088 12.7494L5.70057 12.7494C5.49276 12.7494 5.41913 12.666 5.41913 12.4697Z" fill="white" fill-opacity="0.85"/>
  <path d="M0.896872 18.2156C1.39277 18.2156 1.79374 17.8049 1.79374 17.3187C1.79374 16.8228 1.39277 16.4219 0.896872 16.4219C0.400975 16.4219 0 16.8228 0 17.3187C0 17.8049 0.400975 18.2156 0.896872 18.2156ZM0.896872 15.4601C1.39277 15.4601 1.79374 15.0592 1.79374 14.5633C1.79374 14.0691 1.39277 13.6682 0.896872 13.6682C0.400975 13.6682 0 14.0691 0 14.5633C0 15.0592 0.400975 15.4601 0.896872 15.4601ZM0.896872 12.7357C1.39277 12.7357 1.79374 12.3348 1.79374 11.8389C1.79374 11.343 1.39277 10.942 0.896872 10.942C0.400975 10.942 0 11.343 0 11.8389C0 12.3348 0.400975 12.7357 0.896872 12.7357ZM0.896872 9.9998C1.39277 9.9998 1.79374 9.59882 1.79374 9.10292C1.79374 8.60703 1.39277 8.20605 0.896872 8.20605C0.400975 8.20605 0 8.60703 0 9.10292C0 9.59882 0.400975 9.9998 0.896872 9.9998ZM0.896872 7.25585C1.39277 7.25585 1.79374 6.85488 1.79374 6.36699C1.79374 5.87109 1.39277 5.47012 0.896872 5.47012C0.400975 5.47012 0 5.87109 0 6.36699C0 6.85488 0.400975 7.25585 0.896872 7.25585ZM0.896872 4.54745C1.39277 4.54745 1.79374 4.14648 1.79374 3.65234C1.79374 3.15644 1.39277 2.75547 0.896872 2.75547C0.400975 2.75547 0 3.15644 0 3.65234C0 4.14648 0.400975 4.54745 0.896872 4.54745ZM0.896872 1.81328C1.39277 1.81328 1.79374 1.41054 1.79374 0.916404C1.79374 0.420507 1.39277 0.0195312 0.896872 0.0195312C0.400975 0.0195312 0 0.420507 0 0.916404C0 1.41054 0.400975 1.81328 0.896872 1.81328ZM3.63281 1.81328C4.12871 1.81328 4.52968 1.41054 4.52968 0.916404C4.52968 0.420507 4.12871 0.0195312 3.63281 0.0195312C3.13691 0.0195312 2.73594 0.420507 2.73594 0.916404C2.73594 1.41054 3.13691 1.81328 3.63281 1.81328ZM6.35898 1.81328C6.85312 1.81328 7.25409 1.41054 7.25409 0.916404C7.25409 0.420507 6.85312 0.0195312 6.35898 0.0195312C5.86308 0.0195312 5.46211 0.420507 5.46211 0.916404C5.46211 1.41054 5.86308 1.81328 6.35898 1.81328ZM9.09316 1.81328C9.58906 1.81328 9.99003 1.41054 9.99003 0.916404C9.99003 0.420507 9.58906 0.0195312 9.09316 0.0195312C8.60703 0.0195312 8.19804 0.420507 8.19804 0.916404C8.19804 1.41054 8.60703 1.81328 9.09316 1.81328ZM11.8371 1.81328C12.325 1.81328 12.734 1.41054 12.734 0.916404C12.734 0.420507 12.325 0.0195312 11.8371 0.0195312C11.343 0.0195312 10.9402 0.420507 10.9402 0.916404C10.9402 1.41054 11.343 1.81328 11.8371 1.81328ZM14.5633 1.81328C15.0512 1.81328 15.4521 1.41054 15.4521 0.916404C15.4521 0.420507 15.0512 0.0195312 14.5633 0.0195312C14.0674 0.0195312 13.6664 0.420507 13.6664 0.916404C13.6664 1.41054 14.0674 1.81328 14.5633 1.81328ZM17.2992 1.81328C17.7951 1.81328 18.1961 1.41054 18.1961 0.916404C18.1961 0.420507 17.7951 0.0195312 17.2992 0.0195312C16.8033 0.0195312 16.4023 0.420507 16.4023 0.916404C16.4023 1.41054 16.8033 1.81328 17.2992 1.81328ZM17.2992 4.55898C17.7951 4.55898 18.1961 4.158 18.1961 3.66211C18.1961 3.16621 17.7951 2.76523 17.2992 2.76523C16.8033 2.76523 16.4023 3.16621 16.4023 3.66211C16.4023 4.158 16.8033 4.55898 17.2992 4.55898ZM17.2992 7.26562C17.7951 7.26562 18.1961 6.86464 18.1961 6.37675C18.1961 5.88086 17.7951 5.47988 17.2992 5.47988C16.8033 5.47988 16.4023 5.88086 16.4023 6.37675C16.4023 6.86464 16.8033 7.26562 17.2992 7.26562ZM17.2992 10.0096C17.7951 10.0096 18.1961 9.60859 18.1961 9.11269C18.1961 8.61679 17.7951 8.21582 17.2992 8.21582C16.8033 8.21582 16.4023 8.61679 16.4023 9.11269C16.4023 9.60859 16.8033 10.0096 17.2992 10.0096ZM17.2992 12.7455C17.7951 12.7455 18.1961 12.3445 18.1961 11.8486C18.1961 11.3527 17.7951 10.9518 17.2992 10.9518C16.8033 10.9518 16.4023 11.3527 16.4023 11.8486C16.4023 12.3445 16.8033 12.7455 17.2992 12.7455ZM17.2992 15.4717C17.7951 15.4717 18.1961 15.0689 18.1961 14.5748C18.1961 14.0789 17.7951 13.6779 17.2992 13.6779C16.8033 13.6779 16.4023 14.0789 16.4023 14.5748C16.4023 15.0689 16.8033 15.4717 17.2992 15.4717ZM17.2992 18.2156C17.7951 18.2156 18.1961 17.8049 18.1961 17.3187C18.1961 16.8228 17.7951 16.4219 17.2992 16.4219C16.8033 16.4219 16.4023 16.8228 16.4023 17.3187C16.4023 17.8049 16.8033 18.2156 17.2992 18.2156ZM14.5633 18.2156C15.0512 18.2156 15.4521 17.8049 15.4521 17.3187C15.4521 16.8228 15.0512 16.4219 14.5633 16.4219C14.0674 16.4219 13.6664 16.8228 13.6664 17.3187C13.6664 17.8049 14.0674 18.2156 14.5633 18.2156ZM11.8371 18.2156C12.325 18.2156 12.734 17.8049 12.734 17.3187C12.734 16.8228 12.325 16.4219 11.8371 16.4219C11.343 16.4219 10.9402 16.8228 10.9402 17.3187C10.9402 17.8049 11.343 18.2156 11.8371 18.2156ZM9.09316 18.2156C9.58906 18.2156 9.99003 17.8049 9.99003 17.3187C9.99003 16.8228 9.58906 16.4219 9.09316 16.4219C8.60703 16.4219 8.19804 16.8228 8.19804 17.3187C8.19804 17.8049 8.60703 18.2156 9.09316 18.2156ZM6.35898 18.2156C6.85312 18.2156 7.25409 17.8049 7.25409 17.3187C7.25409 16.8228 6.85312 16.4219 6.35898 16.4219C5.86308 16.4219 5.46211 16.8228 5.46211 17.3187C5.46211 17.8049 5.86308 18.2156 6.35898 18.2156ZM3.63281 18.2156C4.12871 18.2156 4.52968 17.8049 4.52968 17.3187C4.52968 16.8228 4.12871 16.4219 3.63281 16.4219C3.13691 16.4219 2.73594 16.8228 2.73594 17.3187C2.73594 17.8049 3.13691 18.2156 3.63281 18.2156Z" fill="white" fill-opacity="0.85"/>
 </g>
</svg>
