<?xml version="1.0" encoding="UTF-8"?>
<!--Generator: Apple Native CoreSVG 341-->
<!DOCTYPE svg
PUBLIC "-//W3C//DTD SVG 1.1//EN"
       "http://www.w3.org/Graphics/SVG/1.1/DTD/svg11.dtd">
<svg version="1.1" xmlns="http://www.w3.org/2000/svg" xmlns:xlink="http://www.w3.org/1999/xlink" viewBox="0 0 22.3174 29.6004">
 <g>
  <rect height="29.6004" opacity="0" width="22.3174" x="0" y="0"/>
  <path d="M21.956 15.5396L21.956 23.068C21.956 25.7519 20.4605 27.2555 17.7685 27.2555L8.50116 27.2555C5.80917 27.2555 4.31366 25.7519 4.31366 23.068L4.31366 22.924L6.22869 22.924L6.22869 23.017C6.22869 24.5008 7.06658 25.3422 8.55038 25.3422L17.7193 25.3422C19.2111 25.3422 20.0428 24.5008 20.0428 23.017L20.0428 15.5906C20.0428 14.1086 19.2111 13.2672 17.7193 13.2672L17.6486 13.2672L17.6486 11.3539L17.7685 11.3539C20.4605 11.3539 21.956 12.8476 21.956 15.5396Z" fill="white" fill-opacity="0.85"/>
  <path d="M17.6486 11.21L17.6486 18.7285C17.6486 21.4205 16.1451 22.924 13.4549 22.924L4.1875 22.924C1.49551 22.924 0 21.4205 0 18.7285L0 11.21C0 8.51797 1.49551 7.02246 4.1875 7.02246L6.07754 7.02246L6.07754 8.93573L4.23671 8.93573C2.75292 8.93573 1.91327 9.77714 1.91327 11.2609L1.91327 18.6775C1.91327 20.1693 2.75292 21.0107 4.23671 21.0107L13.4057 21.0107C14.8957 21.0107 15.7354 20.1693 15.7354 18.6775L15.7354 11.2609C15.7354 9.77714 14.8957 8.93573 13.4057 8.93573L11.5711 8.93573L11.5711 7.02246L13.4549 7.02246C16.1451 7.02246 17.6486 8.51797 17.6486 11.21Z" fill="white" fill-opacity="0.85"/>
  <path d="M8.82831 1.83496C8.33281 1.83496 7.92051 2.24629 7.92051 2.72499L7.92051 12.4861L8.07988 15.2934C8.10644 15.6959 8.41953 16.0355 8.82831 16.0355C9.23085 16.0355 9.54394 15.6959 9.5705 15.2934L9.72811 12.4861L9.72811 2.72499C9.72811 2.24629 9.32382 1.83496 8.82831 1.83496ZM5.46933 11.5643C5.02226 11.5643 4.66953 11.8826 4.66953 12.341C4.66953 12.5742 4.76621 12.756 4.92851 12.9201L8.14414 16.0053C8.37636 16.2437 8.58632 16.3164 8.82831 16.3164C9.0623 16.3164 9.27401 16.2437 9.50448 16.0053L12.7201 12.9201C12.8842 12.756 12.9791 12.5742 12.9791 12.341C12.9791 11.8826 12.6103 11.5643 12.1713 11.5643C11.9426 11.5643 11.7244 11.6564 11.5684 11.8303L10.1689 13.3203L8.82831 14.9377L7.47968 13.3203L6.08027 11.8303C5.92421 11.6564 5.69804 11.5643 5.46933 11.5643Z" fill="white" fill-opacity="0.85"/>
 </g>
</svg>
