<?xml version="1.0" encoding="UTF-8"?>
<!--Generator: Apple Native CoreSVG 341-->
<!DOCTYPE svg
PUBLIC "-//W3C//DTD SVG 1.1//EN"
       "http://www.w3.org/Graphics/SVG/1.1/DTD/svg11.dtd">
<svg version="1.1" xmlns="http://www.w3.org/2000/svg" xmlns:xlink="http://www.w3.org/1999/xlink" viewBox="0 0 18.5894 18.2316">
 <g>
  <rect height="18.2316" opacity="0" width="18.5894" x="0" y="0"/>
  <path d="M11.981 18.2316L16.1291 18.2316C17.5363 18.2316 18.2281 17.5478 18.2281 16.0988L18.2281 12.0166C18.2281 10.5693 17.5363 9.88554 16.1291 9.88554L11.981 9.88554C10.5658 9.88554 9.87578 10.5693 9.87578 12.0166L9.87578 16.0988C9.87578 17.5478 10.5658 18.2316 11.981 18.2316ZM11.9935 16.6262C11.6437 16.6262 11.4812 16.4539 11.4812 16.1121L11.4812 12.0131C11.4812 11.6633 11.6437 11.491 11.9935 11.491L16.1166 11.491C16.4602 11.491 16.6227 11.6633 16.6227 12.0131L16.6227 16.1121C16.6227 16.4539 16.4602 16.6262 16.1166 16.6262Z" fill="white" fill-opacity="0.85"/>
  <path d="M2.09901 18.2316L6.25508 18.2316C7.6623 18.2316 8.35234 17.5478 8.35234 16.0988L8.35234 12.0166C8.35234 10.5693 7.6623 9.88554 6.25508 9.88554L2.09901 9.88554C0.691794 9.88554 0 10.5693 0 12.0166L0 16.0988C0 17.5478 0.691794 18.2316 2.09901 18.2316ZM2.11151 16.6262C1.76796 16.6262 1.60546 16.4539 1.60546 16.1121L1.60546 12.0131C1.60546 11.6633 1.76796 11.491 2.11151 11.491L6.23457 11.491C6.57637 11.491 6.74688 11.6633 6.74688 12.0131L6.74688 16.1121C6.74688 16.4539 6.57637 16.6262 6.23457 16.6262Z" fill="white" fill-opacity="0.85"/>
  <path d="M11.981 8.35585L16.1291 8.35585C17.5363 8.35585 18.2281 7.67207 18.2281 6.22481L18.2281 2.13456C18.2281 0.693552 17.5363 0.00351548 16.1291 0.00351548L11.981 0.00351548C10.5658 0.00351548 9.87578 0.693552 9.87578 2.13456L9.87578 6.22481C9.87578 7.67207 10.5658 8.35585 11.981 8.35585ZM11.9935 6.75039C11.6437 6.75039 11.4812 6.57988 11.4812 6.22031L11.4812 2.12929C11.4812 1.77948 11.6437 1.60897 11.9935 1.60897L16.1166 1.60897C16.4602 1.60897 16.6227 1.77948 16.6227 2.12929L16.6227 6.22031C16.6227 6.57988 16.4602 6.75039 16.1166 6.75039Z" fill="white" fill-opacity="0.85"/>
  <path d="M2.09901 8.35585L6.25508 8.35585C7.6623 8.35585 8.35234 7.67207 8.35234 6.22481L8.35234 2.13456C8.35234 0.693552 7.6623 0.00351548 6.25508 0.00351548L2.09901 0.00351548C0.691794 0.00351548 0 0.693552 0 2.13456L0 6.22481C0 7.67207 0.691794 8.35585 2.09901 8.35585ZM2.11151 6.75039C1.76796 6.75039 1.60546 6.57988 1.60546 6.22031L1.60546 2.12929C1.60546 1.77948 1.76796 1.60897 2.11151 1.60897L6.23457 1.60897C6.57637 1.60897 6.74688 1.77948 6.74688 2.12929L6.74688 6.22031C6.74688 6.57988 6.57637 6.75039 6.23457 6.75039Z" fill="white" fill-opacity="0.85"/>
 </g>
</svg>
