<?xml version="1.0" encoding="UTF-8"?>
<!--Generator: Apple Native CoreSVG 341-->
<!DOCTYPE svg
PUBLIC "-//W3C//DTD SVG 1.1//EN"
       "http://www.w3.org/Graphics/SVG/1.1/DTD/svg11.dtd">
<svg version="1.1" xmlns="http://www.w3.org/2000/svg" xmlns:xlink="http://www.w3.org/1999/xlink" viewBox="0 0 18.5894 18.2316">
 <g>
  <rect height="18.2316" opacity="0" width="18.5894" x="0" y="0"/>
  <path d="M3.20351 18.2281L15.0246 18.2281C17.1404 18.2281 18.2281 17.1502 18.2281 15.0646L18.2281 3.17148C18.2281 1.08769 17.1404 0 15.0246 0L3.20351 0C1.0957 0 0 1.08769 0 3.17148L0 15.0646C0 17.1502 1.0957 18.2281 3.20351 18.2281ZM3.31444 16.3148C2.40643 16.3148 1.91327 15.8465 1.91327 14.8977L1.91327 3.34023C1.91327 2.39139 2.40643 1.91503 3.31444 1.91503L14.9137 1.91503C15.8137 1.91503 16.3148 2.39139 16.3148 3.34023L16.3148 14.8977C16.3148 15.8465 15.8137 16.3148 14.9137 16.3148Z" fill="white" fill-opacity="0.85"/>
  <path d="M3.35272 5.63475C3.35272 6.05995 3.62342 6.33065 4.04862 6.33065L5.62147 6.33065C6.05018 6.33065 6.32089 6.05995 6.32089 5.63475L6.32089 4.04862C6.32089 3.62518 6.05018 3.35448 5.62147 3.35448L4.04862 3.35448C3.62342 3.35448 3.35272 3.62518 3.35272 4.04862ZM7.64062 5.63475C7.64062 6.05995 7.91132 6.33065 8.33827 6.33065L9.91113 6.33065C10.3443 6.33065 10.6168 6.05995 10.6168 5.63475L10.6168 4.04862C10.6168 3.62342 10.3443 3.35448 9.91113 3.35448L8.33827 3.35448C7.91132 3.35448 7.64062 3.62342 7.64062 4.04862ZM11.917 5.63475C11.917 6.05995 12.1877 6.33065 12.6164 6.33065L14.1893 6.33065C14.6145 6.33065 14.8869 6.05995 14.8869 5.63475L14.8869 4.04862C14.8869 3.62518 14.6145 3.35448 14.1893 3.35448L12.6164 3.35448C12.1877 3.35448 11.917 3.62518 11.917 4.04862ZM3.35272 9.91289C3.35272 10.3381 3.62342 10.607 4.04862 10.607L5.62147 10.607C6.05018 10.607 6.32089 10.3381 6.32089 9.91289L6.32089 8.32675C6.32089 7.90156 6.05018 7.63261 5.62147 7.63261L4.04862 7.63261C3.62342 7.63261 3.35272 7.90156 3.35272 8.32675ZM7.64062 9.91289C7.64062 10.3381 7.90956 10.607 8.33827 10.607L9.91113 10.607C10.3478 10.607 10.6168 10.3381 10.6168 9.91289L10.6168 8.32675C10.6168 7.90156 10.3478 7.63261 9.91113 7.63261L8.33827 7.63261C7.90956 7.63261 7.64062 7.90156 7.64062 8.32675ZM11.917 9.91289C11.917 10.3381 12.1877 10.607 12.6164 10.607L14.1893 10.607C14.6145 10.607 14.8869 10.3381 14.8869 9.91289L14.8869 8.32675C14.8869 7.90156 14.6145 7.63261 14.1893 7.63261L12.6164 7.63261C12.1877 7.63261 11.917 7.90156 11.917 8.32675ZM3.35272 14.191C3.35272 14.6145 3.62342 14.8852 4.04862 14.8852L5.62147 14.8852C6.05018 14.8852 6.32089 14.6145 6.32089 14.191L6.32089 12.6049C6.32089 12.1797 6.05018 11.909 5.62147 11.909L4.04862 11.909C3.62342 11.909 3.35272 12.1797 3.35272 12.6049ZM7.64062 14.191C7.64062 14.6162 7.91132 14.8852 8.33827 14.8852L9.91113 14.8852C10.3443 14.8852 10.6168 14.6162 10.6168 14.191L10.6168 12.6049C10.6168 12.1797 10.3443 11.909 9.91113 11.909L8.33827 11.909C7.91132 11.909 7.64062 12.1797 7.64062 12.6049ZM11.917 14.191C11.917 14.6145 12.1877 14.8852 12.6164 14.8852L14.1893 14.8852C14.6145 14.8852 14.8869 14.6145 14.8869 14.191L14.8869 12.6049C14.8869 12.1797 14.6145 11.909 14.1893 11.909L12.6164 11.909C12.1877 11.909 11.917 12.1797 11.917 12.6049Z" fill="white" fill-opacity="0.85"/>
 </g>
</svg>
