<?xml version="1.0" encoding="UTF-8"?>
<!--Generator: Apple Native CoreSVG 341-->
<!DOCTYPE svg
PUBLIC "-//W3C//DTD SVG 1.1//EN"
       "http://www.w3.org/Graphics/SVG/1.1/DTD/svg11.dtd">
<svg version="1.1" xmlns="http://www.w3.org/2000/svg" xmlns:xlink="http://www.w3.org/1999/xlink" viewBox="0 0 21.4861 15.2047">
 <g>
  <rect height="15.2047" opacity="0" width="21.4861" x="0" y="0"/>
  <path d="M18.5918 15.2047L20.2049 15.2047C20.8685 15.2047 21.1248 14.9502 21.1248 14.2848L21.1248 12.6734C21.1248 12.008 20.8685 11.7535 20.2049 11.7535L18.5918 11.7535C17.9281 11.7535 17.6719 12.008 17.6719 12.6734L17.6719 14.2848C17.6719 14.9502 17.9281 15.2047 18.5918 15.2047Z" fill="white" fill-opacity="0.85"/>
  <path d="M12.7133 15.2047L14.3326 15.2047C14.99 15.2047 15.2445 14.9502 15.2445 14.2848L15.2445 12.6734C15.2445 12.008 14.99 11.7535 14.3326 11.7535L12.7133 11.7535C12.0559 11.7535 11.8014 12.008 11.8014 12.6734L11.8014 14.2848C11.8014 14.9502 12.0559 15.2047 12.7133 15.2047Z" fill="white" fill-opacity="0.85"/>
  <path d="M6.84101 15.2047L8.4621 15.2047C9.11777 15.2047 9.37402 14.9502 9.37402 14.2848L9.37402 12.6734C9.37402 12.008 9.11777 11.7535 8.4621 11.7535L6.84101 11.7535C6.17734 11.7535 5.92109 12.008 5.92109 12.6734L5.92109 14.2848C5.92109 14.9502 6.17734 15.2047 6.84101 15.2047Z" fill="white" fill-opacity="0.85"/>
  <path d="M0.960739 15.2047L2.58183 15.2047C3.2455 15.2047 3.50175 14.9502 3.50175 14.2848L3.50175 12.6734C3.50175 12.008 3.2455 11.7535 2.58183 11.7535L0.960739 11.7535C0.305077 11.7535 0.0488281 12.008 0.0488281 12.6734L0.0488281 14.2848C0.0488281 14.9502 0.305077 15.2047 0.960739 15.2047Z" fill="white" fill-opacity="0.85"/>
  <path d="M18.5918 9.32616L20.2049 9.32616C20.8685 9.32616 21.1248 9.06992 21.1248 8.41425L21.1248 6.79316C21.1248 6.1375 20.8685 5.88125 20.2049 5.88125L18.5918 5.88125C17.9281 5.88125 17.6719 6.1375 17.6719 6.79316L17.6719 8.41425C17.6719 9.06992 17.9281 9.32616 18.5918 9.32616Z" fill="white" fill-opacity="0.85"/>
  <path d="M12.7133 9.32616L14.3326 9.32616C14.99 9.32616 15.2445 9.06992 15.2445 8.41425L15.2445 6.79316C15.2445 6.1375 14.99 5.88125 14.3326 5.88125L12.7133 5.88125C12.0559 5.88125 11.8014 6.1375 11.8014 6.79316L11.8014 8.41425C11.8014 9.06992 12.0559 9.32616 12.7133 9.32616Z" fill="white" fill-opacity="0.85"/>
  <path d="M6.84101 9.32616L8.4621 9.32616C9.11777 9.32616 9.37402 9.06992 9.37402 8.41425L9.37402 6.79316C9.37402 6.1375 9.11777 5.88125 8.4621 5.88125L6.84101 5.88125C6.17734 5.88125 5.92109 6.1375 5.92109 6.79316L5.92109 8.41425C5.92109 9.06992 6.17734 9.32616 6.84101 9.32616Z" fill="white" fill-opacity="0.85"/>
  <path d="M0.960739 9.32616L2.58183 9.32616C3.2455 9.32616 3.50175 9.06992 3.50175 8.41425L3.50175 6.79316C3.50175 6.1375 3.2455 5.88125 2.58183 5.88125L0.960739 5.88125C0.305077 5.88125 0.0488281 6.1375 0.0488281 6.79316L0.0488281 8.41425C0.0488281 9.06992 0.305077 9.32616 0.960739 9.32616Z" fill="white" fill-opacity="0.85"/>
  <path d="M18.535 3.4539L20.156 3.4539C20.8197 3.4539 21.076 3.19765 21.076 2.54199L21.076 0.920896C21.076 0.257226 20.8197 0.00097692 20.156 0.00097692L18.535 0.00097692C17.8793 0.00097692 17.623 0.257226 17.623 0.920896L17.623 2.54199C17.623 3.19765 17.8793 3.4539 18.535 3.4539Z" fill="white" fill-opacity="0.85"/>
  <path d="M12.6627 3.4539L14.2838 3.4539C14.9412 3.4539 15.1957 3.19765 15.1957 2.54199L15.1957 0.920896C15.1957 0.257226 14.9412 0.00097692 14.2838 0.00097692L12.6627 0.00097692C12.007 0.00097692 11.7508 0.257226 11.7508 0.920896L11.7508 2.54199C11.7508 3.19765 12.007 3.4539 12.6627 3.4539Z" fill="white" fill-opacity="0.85"/>
  <path d="M6.79218 3.4539L8.41328 3.4539C9.06894 3.4539 9.32519 3.19765 9.32519 2.54199L9.32519 0.920896C9.32519 0.257226 9.06894 0.00097692 8.41328 0.00097692L6.79218 0.00097692C6.12675 0.00097692 5.87226 0.257226 5.87226 0.920896L5.87226 2.54199C5.87226 3.19765 6.12675 3.4539 6.79218 3.4539Z" fill="white" fill-opacity="0.85"/>
  <path d="M0.911911 3.4539L2.533 3.4539C3.19668 3.4539 3.45292 3.19765 3.45292 2.54199L3.45292 0.920896C3.45292 0.257226 3.19668 0.00097692 2.533 0.00097692L0.911911 0.00097692C0.256249 0.00097692 0 0.257226 0 0.920896L0 2.54199C0 3.19765 0.256249 3.4539 0.911911 3.4539Z" fill="white" fill-opacity="0.85"/>
 </g>
</svg>
