<?xml version="1.0" encoding="UTF-8"?>
<!--Generator: Apple Native CoreSVG 341-->
<!DOCTYPE svg
PUBLIC "-//W3C//DTD SVG 1.1//EN"
       "http://www.w3.org/Graphics/SVG/1.1/DTD/svg11.dtd">
<svg version="1.1" xmlns="http://www.w3.org/2000/svg" xmlns:xlink="http://www.w3.org/1999/xlink" viewBox="0 0 23.1535 17.6687">
 <g>
  <rect height="17.6687" opacity="0" width="23.1535" x="0" y="0"/>
  <path d="M3.15644 12.6043L19.6375 12.6043C21.7275 12.6043 22.7922 11.5477 22.7922 9.47989L22.7922 3.12441C22.7922 1.05039 21.7275 0 19.6375 0L3.15644 0C1.07265 0 0 1.05039 0 3.12441L0 9.47989C0 11.5477 1.07265 12.6043 3.15644 12.6043ZM3.2287 10.7525C2.37011 10.7525 1.91327 10.3117 1.91327 9.4211L1.91327 3.18496C1.91327 2.29433 2.37011 1.84374 3.2287 1.84374L19.5652 1.84374C20.4221 1.84374 20.8789 2.29433 20.8789 3.18496L20.8789 9.4211C20.8789 10.3117 20.4221 10.7525 19.5652 10.7525Z" fill="white" fill-opacity="0.85"/>
  <path d="M1.06269 17.5994L3.06523 17.5994C3.40644 17.5994 3.64687 17.3705 3.64687 17.0311L3.64687 15.0551C3.64687 14.6996 3.41445 14.4707 3.06523 14.4707L1.06269 14.4707C0.693944 14.4707 0.467773 14.6996 0.467773 15.0551L0.467773 17.0311C0.467773 17.3705 0.701952 17.5994 1.06269 17.5994ZM5.73144 17.5994L7.73574 17.5994C8.07519 17.5994 8.31914 17.3705 8.31914 17.0311L8.31914 15.0551C8.31914 14.6996 8.08496 14.4707 7.73574 14.4707L5.73144 14.4707C5.36797 14.4707 5.14004 14.6996 5.14004 15.0551L5.14004 17.0311C5.14004 17.3705 5.37597 17.5994 5.73144 17.5994ZM10.4037 17.5994L12.408 17.5994C12.7492 17.5994 12.9914 17.3705 12.9914 17.0311L12.9914 15.0551C12.9914 14.6996 12.7572 14.4707 12.408 14.4707L10.4037 14.4707C10.0402 14.4707 9.8123 14.6996 9.8123 15.0551L9.8123 17.0311C9.8123 17.3705 10.0482 17.5994 10.4037 17.5994ZM15.076 17.5994L17.0785 17.5994C17.4215 17.5994 17.6637 17.3705 17.6637 17.0311L17.6637 15.0551C17.6637 14.6996 17.4295 14.4707 17.0785 14.4707L15.076 14.4707C14.7125 14.4707 14.4846 14.6996 14.4846 15.0551L14.4846 17.0311C14.4846 17.3705 14.7205 17.5994 15.076 17.5994ZM19.75 17.5994L21.7561 17.5994C22.0955 17.5994 22.3359 17.3705 22.3359 17.0311L22.3359 15.0551C22.3359 14.6996 22.1035 14.4707 21.7561 14.4707L19.75 14.4707C19.383 14.4707 19.1568 14.6996 19.1568 15.0551L19.1568 17.0311C19.1568 17.3705 19.391 17.5994 19.75 17.5994Z" fill="white" fill-opacity="0.85"/>
 </g>
</svg>
