<?xml version="1.0" encoding="UTF-8"?>
<!--Generator: Apple Native CoreSVG 341-->
<!DOCTYPE svg
PUBLIC "-//W3C//DTD SVG 1.1//EN"
       "http://www.w3.org/Graphics/SVG/1.1/DTD/svg11.dtd">
<svg version="1.1" xmlns="http://www.w3.org/2000/svg" xmlns:xlink="http://www.w3.org/1999/xlink" viewBox="0 0 18.0099 27.1672">
 <g>
  <rect height="27.1672" opacity="0" width="18.0099" x="0" y="0"/>
  <path d="M17.6486 12.1631L17.6486 19.6896C17.6486 22.3816 16.1451 23.8771 13.4549 23.8771L4.1875 23.8771C1.49551 23.8771 0 22.3816 0 19.6896L0 12.1631C0 9.47909 1.49551 7.97558 4.1875 7.97558L6.07754 7.97558L6.07754 9.88885L4.23671 9.88885C2.75292 9.88885 1.91327 10.7303 1.91327 12.214L1.91327 19.6387C1.91327 21.1305 2.75292 21.9639 4.23671 21.9639L13.4057 21.9639C14.8957 21.9639 15.7354 21.1305 15.7354 19.6387L15.7354 12.214C15.7354 10.7303 14.8957 9.88885 13.4057 9.88885L11.5631 9.88885L11.5631 7.97558L13.4549 7.97558C16.1451 7.97558 17.6486 9.47909 17.6486 12.1631Z" fill="white" fill-opacity="0.85"/>
  <path d="M5.46933 6.2914C5.69003 6.2914 5.92421 6.19921 6.08027 6.02538L7.47968 4.53534L8.82031 2.91797L10.1689 4.53534L11.5603 6.02538C11.7164 6.19921 11.9426 6.2914 12.1633 6.2914C12.6103 6.2914 12.9711 5.97128 12.9711 5.51464C12.9711 5.27343 12.8842 5.09961 12.7201 4.93554L9.50448 1.84238C9.27401 1.61191 9.0623 1.53926 8.82031 1.53926C8.58632 1.53926 8.37636 1.61191 8.13613 1.84238L4.92851 4.93554C4.76621 5.09961 4.66953 5.27343 4.66953 5.51464C4.66953 5.97128 5.02226 6.2914 5.46933 6.2914ZM8.82031 16.0127C9.31581 16.0127 9.72811 15.6094 9.72811 15.1307L9.72811 5.36952L9.5705 2.5623C9.54394 2.15976 9.23085 1.82012 8.82031 1.82012C8.41953 1.82012 8.10644 2.15976 8.07988 2.5623L7.92051 5.36952L7.92051 15.1307C7.92051 15.6094 8.3248 16.0127 8.82031 16.0127Z" fill="white" fill-opacity="0.85"/>
 </g>
</svg>
