<?xml version="1.0" encoding="UTF-8"?>
<!--Generator: Apple Native CoreSVG 341-->
<!DOCTYPE svg
PUBLIC "-//W3C//DTD SVG 1.1//EN"
       "http://www.w3.org/Graphics/SVG/1.1/DTD/svg11.dtd">
<svg version="1.1" xmlns="http://www.w3.org/2000/svg" xmlns:xlink="http://www.w3.org/1999/xlink" viewBox="0 0 23.6367 23.7992">
 <g>
  <rect height="23.7992" opacity="0" width="23.6367" x="0" y="0"/>
  <path d="M17.2752 4.61054L17.2752 4.74316L9.20545 4.74316C6.31249 4.74316 4.58066 6.45096 4.58066 9.33416L4.58066 17.6543L4.26347 17.6543C2.1539 17.6543 1.0582 16.5666 1.0582 14.4828L1.0582 4.61054C1.0582 2.52499 2.1539 1.43906 4.26347 1.43906L14.0699 1.43906C16.1715 1.43906 17.2752 2.52499 17.2752 4.61054Z" fill="white" fill-opacity="0.85"/>
  <path d="M9.20545 22.3797L19.0119 22.3797C21.1135 22.3797 22.2172 21.292 22.2172 19.2082L22.2172 9.33416C22.2172 7.25038 21.1135 6.16268 19.0119 6.16268L9.20545 6.16268C7.09588 6.16268 6.00018 7.24237 6.00018 9.33416L6.00018 19.2082C6.00018 21.292 7.09588 22.3797 9.20545 22.3797Z" fill="white" fill-opacity="0.85"/>
 </g>
</svg>
