<?xml version="1.0" encoding="UTF-8"?>
<!--Generator: Apple Native CoreSVG 341-->
<!DOCTYPE svg
PUBLIC "-//W3C//DTD SVG 1.1//EN"
       "http://www.w3.org/Graphics/SVG/1.1/DTD/svg11.dtd">
<svg version="1.1" xmlns="http://www.w3.org/2000/svg" xmlns:xlink="http://www.w3.org/1999/xlink" viewBox="0 0 23.3381 23.2578">
 <g>
  <rect height="23.2578" opacity="0" width="23.3381" x="0" y="0"/>
  <path d="M9.47109 14.8443C10.251 15.2986 10.874 15.468 11.4844 15.468C12.1027 15.468 12.7258 15.2986 13.5057 14.8443L17.3641 12.6096L20.4045 14.3668C21.2342 14.8566 21.5896 15.2592 21.5896 15.8806C21.5896 16.5004 21.2342 16.9029 20.4045 17.3847L12.817 21.7929C12.298 22.0892 11.9059 22.2338 11.4844 22.2338C11.0709 22.2338 10.6689 22.0892 10.1598 21.7929L2.57226 17.3847C1.74257 16.9029 1.38711 16.5004 1.38711 15.8806C1.38711 15.2592 1.74257 14.8566 2.57226 14.3668L5.60644 12.6083Z" fill="white" fill-opacity="0.85"/>
  <path d="M11.4844 14.0889C11.9059 14.0889 12.298 13.9443 12.817 13.648L20.4045 9.24608C21.2342 8.75799 21.5896 8.3537 21.5896 7.73398C21.5896 7.11425 21.2342 6.71172 20.4045 6.22988L12.817 1.82168C12.298 1.52539 11.9059 1.3791 11.4844 1.3791C11.0709 1.3791 10.6689 1.52539 10.1598 1.82168L2.57226 6.22988C1.74257 6.71172 1.38711 7.11425 1.38711 7.73398C1.38711 8.3537 1.74257 8.75799 2.57226 9.24608L10.1598 13.648C10.6689 13.9443 11.0709 14.0889 11.4844 14.0889Z" fill="white" fill-opacity="0.85"/>
 </g>
</svg>
