<?xml version="1.0" encoding="UTF-8"?>
<!--Generator: Apple Native CoreSVG 341-->
<!DOCTYPE svg
PUBLIC "-//W3C//DTD SVG 1.1//EN"
       "http://www.w3.org/Graphics/SVG/1.1/DTD/svg11.dtd">
<svg version="1.1" xmlns="http://www.w3.org/2000/svg" xmlns:xlink="http://www.w3.org/1999/xlink" viewBox="0 0 25.1451 25.8441">
 <g>
  <rect height="25.8441" opacity="0" width="25.1451" x="0" y="0"/>
  <path d="M23.4047 13.7512L23.4047 21.2777C23.4047 23.9617 21.9011 25.4652 19.2172 25.4652L9.94178 25.4652C7.68781 25.4652 6.2662 24.4035 5.87391 22.4682L14.842 22.4682C18.2945 22.4682 20.4068 20.3478 20.4068 16.8936L20.4068 9.68085C22.3426 10.0713 23.4047 11.4887 23.4047 13.7512Z" fill="white" fill-opacity="0.85"/>
  <path d="M5.5666 21.0891L14.842 21.0891C17.526 21.0891 19.0277 19.5855 19.0277 16.8936L19.0277 9.375C19.0277 6.68301 17.526 5.1875 14.842 5.1875L5.5666 5.1875C2.88261 5.1875 1.3791 6.68301 1.3791 9.375L1.3791 16.8936C1.3791 19.5855 2.88261 21.0891 5.5666 21.0891ZM10.2074 0C10.7047 0 11.1072 0.411326 11.1072 0.890034L11.1072 10.6512L11.0363 12.1037L11.5498 11.4836L12.9475 9.99531C13.1035 9.82148 13.3314 9.7293 13.5504 9.7293C13.9912 9.7293 14.3599 10.0477 14.3599 10.5061C14.3599 10.7393 14.2633 10.9211 14.0992 11.0852L10.8916 14.1703C10.6611 14.4088 10.4414 14.4814 10.2074 14.4814C9.96718 14.4814 9.75546 14.4088 9.52324 14.1703L6.30937 11.0852C6.14531 10.9211 6.05664 10.7393 6.05664 10.5061C6.05664 10.0477 6.40937 9.7293 6.85019 9.7293C7.07714 9.7293 7.31308 9.82148 7.46737 9.99531L8.85878 11.4836L9.38027 12.1037L9.30136 10.6512L9.30136 0.890034C9.30136 0.411326 9.71191 0 10.2074 0Z" fill="white" fill-opacity="0.85"/>
 </g>
</svg>
