<?xml version="1.0" encoding="UTF-8"?>
<!--Generator: Apple Native CoreSVG 341-->
<!DOCTYPE svg
PUBLIC "-//W3C//DTD SVG 1.1//EN"
       "http://www.w3.org/Graphics/SVG/1.1/DTD/svg11.dtd">
<svg version="1.1" xmlns="http://www.w3.org/2000/svg" xmlns:xlink="http://www.w3.org/1999/xlink" viewBox="0 0 18.6764 18.3168">
 <g>
  <rect height="18.3168" opacity="0" width="18.6764" x="0" y="0"/>
  <path d="M0.918942 18.307C1.42187 18.307 1.83788 17.891 1.83788 17.3881C1.83788 16.8852 1.42187 16.4691 0.918942 16.4691C0.416014 16.4691 0 16.8852 0 17.3881C0 17.891 0.416014 18.307 0.918942 18.307ZM3.66113 18.307C4.17206 18.307 4.58007 17.891 4.58007 17.3881C4.58007 16.8852 4.17206 16.4691 3.66113 16.4691C3.1582 16.4691 2.74219 16.8852 2.74219 17.3881C2.74219 17.891 3.1582 18.307 3.66113 18.307ZM0.918942 15.5648C1.42187 15.5648 1.83788 15.1488 1.83788 14.6459C1.83788 14.143 1.42187 13.7269 0.918942 13.7269C0.416014 13.7269 0 14.143 0 14.6459C0 15.1488 0.416014 15.5648 0.918942 15.5648ZM6.41132 18.307C6.91425 18.307 7.33027 17.891 7.33027 17.3881C7.33027 16.8852 6.91425 16.4691 6.41132 16.4691C5.9084 16.4691 5.49238 16.8852 5.49238 17.3881C5.49238 17.891 5.9084 18.307 6.41132 18.307ZM0.918942 12.8146C1.42187 12.8146 1.83788 12.3986 1.83788 11.8957C1.83788 11.3928 1.42187 10.9768 0.918942 10.9768C0.416014 10.9768 0 11.3928 0 11.8957C0 12.3986 0.416014 12.8146 0.918942 12.8146ZM11.9037 18.307C12.4066 18.307 12.8226 17.891 12.8226 17.3881C12.8226 16.8852 12.4066 16.4691 11.9037 16.4691C11.4008 16.4691 10.9848 16.8852 10.9848 17.3881C10.9848 17.891 11.4008 18.307 11.9037 18.307ZM0.918942 7.32226C1.42187 7.32226 1.83788 6.91425 1.83788 6.40332C1.83788 5.90039 1.42187 5.48437 0.918942 5.48437C0.416014 5.48437 0 5.90039 0 6.40332C0 6.91425 0.416014 7.32226 0.918942 7.32226ZM14.6459 18.307C15.1488 18.307 15.5648 17.891 15.5648 17.3881C15.5648 16.8852 15.1488 16.4691 14.6459 16.4691C14.143 16.4691 13.7269 16.8852 13.7269 17.3881C13.7269 17.891 14.143 18.307 14.6459 18.307ZM0.918942 4.58007C1.42187 4.58007 1.83788 4.16406 1.83788 3.66113C1.83788 3.1582 1.42187 2.74219 0.918942 2.74219C0.416014 2.74219 0 3.1582 0 3.66113C0 4.16406 0.416014 4.58007 0.918942 4.58007ZM0.918942 1.83788C1.42187 1.83788 1.83788 1.42187 1.83788 0.918942C1.83788 0.416014 1.42187 0 0.918942 0C0.416014 0 0 0.416014 0 0.918942C0 1.42187 0.416014 1.83788 0.918942 1.83788ZM17.3961 18.307C17.899 18.307 18.315 17.891 18.315 17.3881C18.315 16.8852 17.899 16.4691 17.3961 16.4691C16.8932 16.4691 16.4771 16.8852 16.4771 17.3881C16.4771 17.891 16.8932 18.307 17.3961 18.307ZM3.66113 1.83788C4.17206 1.83788 4.58007 1.42187 4.58007 0.918942C4.58007 0.416014 4.17206 0 3.66113 0C3.1582 0 2.74219 0.416014 2.74219 0.918942C2.74219 1.42187 3.1582 1.83788 3.66113 1.83788ZM17.3961 15.5648C17.899 15.5648 18.315 15.1488 18.315 14.6459C18.315 14.143 17.899 13.7269 17.3961 13.7269C16.8932 13.7269 16.4771 14.143 16.4771 14.6459C16.4771 15.1488 16.8932 15.5648 17.3961 15.5648ZM6.41132 1.83788C6.91425 1.83788 7.33027 1.42187 7.33027 0.918942C7.33027 0.416014 6.91425 0 6.41132 0C5.9084 0 5.49238 0.416014 5.49238 0.918942C5.49238 1.42187 5.9084 1.83788 6.41132 1.83788ZM17.3961 12.8146C17.899 12.8146 18.315 12.3986 18.315 11.8957C18.315 11.3928 17.899 10.9768 17.3961 10.9768C16.8932 10.9768 16.4771 11.3928 16.4771 11.8957C16.4771 12.3986 16.8932 12.8146 17.3961 12.8146ZM11.9037 1.83788C12.4066 1.83788 12.8226 1.42187 12.8226 0.918942C12.8226 0.416014 12.4066 0 11.9037 0C11.4008 0 10.9848 0.416014 10.9848 0.918942C10.9848 1.42187 11.4008 1.83788 11.9037 1.83788ZM17.3961 7.32226C17.899 7.32226 18.315 6.91425 18.315 6.40332C18.315 5.90039 17.899 5.48437 17.3961 5.48437C16.8932 5.48437 16.4771 5.90039 16.4771 6.40332C16.4771 6.91425 16.8932 7.32226 17.3961 7.32226ZM14.6459 1.83788C15.1488 1.83788 15.5648 1.42187 15.5648 0.918942C15.5648 0.416014 15.1488 0 14.6459 0C14.143 0 13.7269 0.416014 13.7269 0.918942C13.7269 1.42187 14.143 1.83788 14.6459 1.83788ZM17.3961 4.58007C17.899 4.58007 18.315 4.16406 18.315 3.66113C18.315 3.1582 17.899 2.74219 17.3961 2.74219C16.8932 2.74219 16.4771 3.1582 16.4771 3.66113C16.4771 4.16406 16.8932 4.58007 17.3961 4.58007ZM17.3961 1.83788C17.899 1.83788 18.315 1.42187 18.315 0.918942C18.315 0.416014 17.899 0 17.3961 0C16.8932 0 16.4771 0.416014 16.4771 0.918942C16.4771 1.42187 16.8932 1.83788 17.3961 1.83788Z" fill="white" fill-opacity="0.85"/>
  <path d="M9.15351 18.307C9.62616 18.307 9.99081 17.9238 9.99081 17.4627L9.99081 0.836325C9.99081 0.383202 9.62616 0 9.15351 0C8.68086 0 8.32422 0.383202 8.32422 0.836325L8.32422 17.4627C8.32422 17.9238 8.68086 18.307 9.15351 18.307ZM0.844333 9.9828L17.4707 9.9828C17.9318 9.9828 18.315 9.62616 18.315 9.15351C18.315 8.68086 17.9318 8.31621 17.4707 8.31621L0.844333 8.31621C0.383202 8.31621 0 8.68086 0 9.15351C0 9.62616 0.383202 9.9828 0.844333 9.9828Z" fill="white" fill-opacity="0.85"/>
 </g>
</svg>
