<?xml version="1.0" encoding="UTF-8"?>
<!--Generator: Apple Native CoreSVG 341-->
<!DOCTYPE svg
PUBLIC "-//W3C//DTD SVG 1.1//EN"
       "http://www.w3.org/Graphics/SVG/1.1/DTD/svg11.dtd">
<svg version="1.1" xmlns="http://www.w3.org/2000/svg" xmlns:xlink="http://www.w3.org/1999/xlink" viewBox="0 0 20.5381 20.1848">
 <g>
  <rect height="20.1848" opacity="0" width="20.5381" x="0" y="0"/>
  <path d="M10.0875 20.175C15.6576 20.175 20.1767 15.6559 20.1767 10.0875C20.1767 4.51914 15.6576 0 10.0875 0C4.51914 0 0 4.51914 0 10.0875C0 15.6559 4.51914 20.175 10.0875 20.175ZM10.0875 18.1879C5.60839 18.1879 1.9871 14.5666 1.9871 10.0875C1.9871 5.60839 5.60839 1.9871 10.0875 1.9871C14.5666 1.9871 18.1897 5.60839 18.1897 10.0875C18.1897 14.5666 14.5666 18.1879 10.0875 18.1879Z" fill="white" fill-opacity="0.85"/>
  <path d="M11.3486 6.88202L11.3486 7.93515L12.0586 7.93515C12.5205 7.93515 12.8457 8.04628 13.0385 8.24355C13.2508 8.45585 13.3619 8.76952 13.3619 9.23495L13.3619 12.4369C13.3619 12.8978 13.2508 13.2 13.0402 13.4105C12.8457 13.6131 12.5205 13.726 12.0586 13.726L8.09413 13.726C7.64648 13.726 7.31503 13.6131 7.11874 13.4105C6.90995 13.1982 6.79706 12.8908 6.79706 12.4369L6.79706 9.23495C6.79706 8.7748 6.90819 8.46737 7.11874 8.25507C7.31327 8.04452 7.64648 7.93515 8.09413 7.93515L8.81035 7.93515L8.81035 6.88202L8.07304 6.88202C7.3289 6.88202 6.73749 7.11288 6.35214 7.48847C5.96679 7.87382 5.74745 8.46699 5.74745 9.21386L5.74745 12.4598C5.74745 13.2004 5.96679 13.7838 6.35214 14.1807C6.7455 14.5562 7.3289 14.7756 8.07304 14.7756L12.0797 14.7756C12.8478 14.7756 13.425 14.5562 13.8086 14.1807C14.2117 13.7838 14.4115 13.2004 14.4115 12.4598L14.4115 9.21386C14.4115 8.46699 14.2117 7.87382 13.8086 7.48847C13.425 7.10488 12.8478 6.88202 12.0797 6.88202ZM8.43222 6.27089C8.59101 6.27089 8.71171 6.2203 8.80663 6.12362L9.18984 5.72265L10.0795 4.75409L10.9629 5.72265L11.3541 6.12362C11.4393 6.2203 11.56 6.27089 11.7205 6.27089C12 6.27089 12.1961 6.08456 12.1961 5.81484C12.1961 5.68534 12.1518 5.56288 12.0391 5.46796L10.4424 3.93163C10.3199 3.80917 10.2019 3.76308 10.0795 3.76308C9.94902 3.76308 9.84082 3.80917 9.71035 3.93163L8.11992 5.45995C8.00722 5.57089 7.97089 5.68534 7.97089 5.81484C7.97089 6.08456 8.16699 6.27089 8.43222 6.27089ZM10.0795 10.9693C10.3607 10.9693 10.5959 10.7519 10.5959 10.4725L10.5959 5.73495L10.5287 4.75878C10.5137 4.51015 10.3316 4.32186 10.0795 4.32186C9.8291 4.32186 9.64706 4.51015 9.63203 4.75878L9.57285 5.73495L9.57285 10.4725C9.57285 10.7519 9.8 10.9693 10.0795 10.9693Z" fill="white" fill-opacity="0.85"/>
 </g>
</svg>
