<?xml version="1.0" encoding="UTF-8"?>
<!--Generator: Apple Native CoreSVG 341-->
<!DOCTYPE svg
PUBLIC "-//W3C//DTD SVG 1.1//EN"
       "http://www.w3.org/Graphics/SVG/1.1/DTD/svg11.dtd">
<svg version="1.1" xmlns="http://www.w3.org/2000/svg" xmlns:xlink="http://www.w3.org/1999/xlink" viewBox="0 0 23.861 23.6761">
 <g>
  <rect height="23.6761" opacity="0" width="23.861" x="0" y="0"/>
  <path d="M12.5522 0.833756L20.2637 5.29372C21.2533 5.86657 21.5879 6.46032 21.5879 7.6025L21.5879 16.3482C21.5879 16.888 21.4841 17.3185 21.2962 17.6306L19.6785 16.0139C19.6939 15.9966 19.7026 15.9697 19.7026 15.9345L19.7026 7.64703C19.7026 7.25875 19.6012 7.13433 19.3063 6.96109L12.1092 2.80308C12.0231 2.748 11.9467 2.79683 11.9467 2.89097L11.9467 5.07029L10.0614 3.98274L10.0614 2.20797C10.0614 0.624382 11.4483 0.204267 12.5522 0.833756Z" fill="white" fill-opacity="0.85"/>
  <path d="M15.5823 18.2992C15.6746 18.348 15.7385 18.3134 15.7385 18.2211L15.7385 17.6698L17.5219 19.451C17.2161 20.585 16.2127 20.8641 14.9698 20.1515L13.4303 19.2614L13.4303 17.0519ZM8.5801 3.12829L16.2979 7.58024C17.2813 8.1611 17.6221 8.75485 17.6221 9.88902L17.6221 13.9587L15.7385 12.0762L15.7385 9.93355C15.7385 9.54527 15.6274 9.42086 15.3342 9.24761L9.57733 5.91877L6.74152 3.08467C7.24211 2.74803 7.95455 2.76761 8.5801 3.12829Z" fill="white" fill-opacity="0.85"/>
  <path d="M7.84879 9.7896L3.95158 7.53804C3.86545 7.49273 3.78908 7.54155 3.78908 7.62593L3.78908 15.8763C3.78908 16.2336 3.86994 16.3828 4.17736 16.5623L11.3967 20.7574C11.4828 20.8062 11.545 20.7636 11.545 20.6713L11.545 13.4813L13.4303 15.3643L13.4303 21.0912C13.4303 22.8767 12.2867 23.4701 10.778 22.6017L3.22034 18.2271C2.18323 17.6363 1.90374 17.0691 1.90374 15.9425L1.90374 6.94293C1.90374 5.84962 2.57304 5.31222 3.35193 5.29817Z" fill="white" fill-opacity="0.85"/>
  <path d="M21.3354 21.5652C21.6451 21.8652 22.1412 21.8687 22.435 21.5652C22.735 21.2617 22.7447 20.7691 22.435 20.4656L3.38831 1.43043C3.08479 1.12692 2.59046 1.12692 2.27894 1.43043C1.98519 1.72242 1.98519 2.23629 2.27894 2.53004Z" fill="white" fill-opacity="0.85"/>
 </g>
</svg>
