<?xml version="1.0" encoding="UTF-8"?>
<!--Generator: Apple Native CoreSVG 341-->
<!DOCTYPE svg
PUBLIC "-//W3C//DTD SVG 1.1//EN"
       "http://www.w3.org/Graphics/SVG/1.1/DTD/svg11.dtd">
<svg version="1.1" xmlns="http://www.w3.org/2000/svg" xmlns:xlink="http://www.w3.org/1999/xlink" viewBox="0 0 20.5381 20.1848">
 <g>
  <rect height="20.1848" opacity="0" width="20.5381" x="0" y="0"/>
  <path d="M10.0875 20.175C15.6576 20.175 20.1767 15.6559 20.1767 10.0875C20.1767 4.51914 15.6576 0 10.0875 0C4.51914 0 0 4.51914 0 10.0875C0 15.6559 4.51914 20.175 10.0875 20.175ZM10.0875 18.1879C5.60839 18.1879 1.9871 14.5666 1.9871 10.0875C1.9871 5.60839 5.60839 1.9871 10.0875 1.9871C14.5666 1.9871 18.1897 5.60839 18.1897 10.0875C18.1897 14.5666 14.5666 18.1879 10.0875 18.1879Z" fill="white" fill-opacity="0.85"/>
  <path d="M7.28847 14.9201L12.2736 14.9201C13.425 14.9201 14.1369 14.1514 14.1369 12.9201L14.1369 8.2664L13.0607 9.35233L13.0607 12.8678C13.0607 13.4611 12.7561 13.8324 12.2559 13.8324L7.29823 13.8324C6.7164 13.8324 6.35487 13.4611 6.35487 12.8678L6.35487 8.08671C6.35487 7.49159 6.7164 7.1203 7.29823 7.1203L10.8873 7.1203L11.9768 6.03261L7.28847 6.03261C6.03769 6.03261 5.26718 6.80312 5.26718 8.04238L5.26718 12.9201C5.26718 14.1514 6.03769 14.9201 7.28847 14.9201ZM8.73163 11.7547L9.71621 11.3383L14.0896 6.97284L13.2242 6.1287L8.86406 10.4941L8.42285 11.4281C8.31992 11.6225 8.54531 11.8301 8.73163 11.7547ZM14.5316 6.53886L14.9506 6.07108C15.1521 5.84648 15.1557 5.54648 14.9586 5.34765L14.8316 5.23847C14.6391 5.02987 14.3098 5.05116 14.1029 5.24823L13.676 5.66718Z" fill="white" fill-opacity="0.85"/>
 </g>
</svg>
