<?xml version="1.0" encoding="UTF-8"?>
<!--Generator: Apple Native CoreSVG 341-->
<!DOCTYPE svg
PUBLIC "-//W3C//DTD SVG 1.1//EN"
       "http://www.w3.org/Graphics/SVG/1.1/DTD/svg11.dtd">
<svg version="1.1" xmlns="http://www.w3.org/2000/svg" xmlns:xlink="http://www.w3.org/1999/xlink" viewBox="0 0 22.3174 31.5066">
 <g>
  <rect height="31.5066" opacity="0" width="22.3174" x="0" y="0"/>
  <path d="M21.956 16.4928L21.956 24.0211C21.956 26.7051 20.4605 28.2086 17.7685 28.2086L8.50116 28.2086C5.80917 28.2086 4.31366 26.7051 4.31366 24.0211L4.31366 23.8851L6.22869 23.8851L6.22869 23.9701C6.22869 25.4539 7.06658 26.2953 8.55038 26.2953L17.7193 26.2953C19.2111 26.2953 20.0428 25.4539 20.0428 23.9701L20.0428 16.5437C20.0428 15.0617 19.2111 14.2203 17.7193 14.2203L17.6486 14.2203L17.6486 12.307L17.7685 12.307C20.4605 12.307 21.956 13.8008 21.956 16.4928Z" fill="white" fill-opacity="0.85"/>
  <path d="M17.6486 12.1711L17.6486 19.6914C17.6486 22.3816 16.1451 23.8851 13.4549 23.8851L4.1875 23.8851C1.49551 23.8851 0 22.3816 0 19.6914L0 12.1711C0 9.47909 1.49551 7.98359 4.1875 7.98359L6.07754 7.98359L6.07754 9.89685L4.23671 9.89685C2.75292 9.89685 1.91327 10.7303 1.91327 12.2221L1.91327 19.6467C1.91327 21.1305 2.75292 21.9719 4.23671 21.9719L13.4057 21.9719C14.8957 21.9719 15.7354 21.1305 15.7354 19.6467L15.7354 12.2221C15.7354 10.7303 14.8957 9.89685 13.4057 9.89685L11.5631 9.89685L11.5631 7.98359L13.4549 7.98359C16.1451 7.98359 17.6486 9.47909 17.6486 12.1711Z" fill="white" fill-opacity="0.85"/>
  <path d="M5.46933 6.29941C5.69003 6.29941 5.92421 6.20722 6.08027 6.03339L7.47968 4.54511L8.82031 2.91797L10.1689 4.54511L11.5603 6.03339C11.7164 6.20722 11.9426 6.29941 12.1633 6.29941C12.6103 6.29941 12.9711 5.97304 12.9711 5.5164C12.9711 5.28144 12.8842 5.10761 12.7201 4.94355L9.50448 1.85039C9.27401 1.61992 9.0623 1.53926 8.82031 1.53926C8.58632 1.53926 8.37636 1.61992 8.13613 1.85039L4.92851 4.94355C4.76621 5.10761 4.66953 5.28144 4.66953 5.5164C4.66953 5.97304 5.02226 6.29941 5.46933 6.29941ZM8.82031 16.0207C9.31581 16.0207 9.72811 15.6174 9.72811 15.1404L9.72811 5.36952L9.5705 2.57031C9.54394 2.15976 9.23085 1.82813 8.82031 1.82813C8.41953 1.82813 8.10644 2.15976 8.07988 2.57031L7.92051 5.36952L7.92051 15.1404C7.92051 15.6174 8.3248 16.0207 8.82031 16.0207Z" fill="white" fill-opacity="0.85"/>
 </g>
</svg>
