<?xml version="1.0" encoding="UTF-8"?>
<!--Generator: Apple Native CoreSVG 341-->
<!DOCTYPE svg
PUBLIC "-//W3C//DTD SVG 1.1//EN"
       "http://www.w3.org/Graphics/SVG/1.1/DTD/svg11.dtd">
<svg version="1.1" xmlns="http://www.w3.org/2000/svg" xmlns:xlink="http://www.w3.org/1999/xlink" viewBox="0 0 20.5719 21.2098">
 <g>
  <rect height="21.2098" opacity="0" width="20.5719" x="0" y="0"/>
  <path d="M19.0174 13.3428C19.8471 13.8326 20.2105 14.2352 20.2105 14.8566C20.2105 15.4764 19.8471 15.8789 19.0174 16.3607L11.4299 20.7689C10.9207 21.0652 10.5187 21.2098 10.1053 21.2098C9.68378 21.2098 9.2916 21.0652 8.78066 20.7689L1.18515 16.3607C0.355467 15.8789 0 15.4764 0 14.8566C0 14.2352 0.355467 13.8326 1.18515 13.3428L5.60389 10.7829L8.78066 12.624C9.2916 12.9203 9.68378 13.0648 10.1053 13.0648C10.5187 13.0648 10.9207 12.9203 11.4299 12.624L14.6033 10.7829Z" fill="white" fill-opacity="0.85"/>
  <path d="M10.1053 13.0648C10.5187 13.0648 10.9207 12.9203 11.4299 12.624L19.0174 8.22206C19.8471 7.73398 20.2105 7.32968 20.2105 6.70996C20.2105 6.09023 19.8471 5.6877 19.0174 5.20586L11.4299 0.797658C10.9207 0.50137 10.5187 0.355082 10.1053 0.355082C9.68378 0.355082 9.2916 0.50137 8.78066 0.797658L1.18515 5.20586C0.355467 5.6877 0 6.09023 0 6.70996C0 7.32968 0.355467 7.73398 1.18515 8.22206L8.78066 12.624C9.2916 12.9203 9.68378 13.0648 10.1053 13.0648ZM10.1053 11.0254C9.9791 11.0254 9.85644 10.9881 9.70097 10.8975L2.51366 6.80586C2.47459 6.78457 2.44881 6.75703 2.44881 6.70996C2.44881 6.66465 2.47459 6.64336 2.51366 6.61582L9.70097 2.52245C9.85644 2.44159 9.9791 2.39628 10.1053 2.39628C10.2314 2.39628 10.3541 2.44159 10.5016 2.52245L17.6889 6.61582C17.7359 6.64336 17.7617 6.66465 17.7617 6.70996C17.7617 6.75703 17.7359 6.78457 17.6889 6.80586L10.5016 10.8975C10.3541 10.9881 10.2314 11.0254 10.1053 11.0254Z" fill="white" fill-opacity="0.85"/>
 </g>
</svg>
