<?xml version="1.0" encoding="UTF-8"?>
<!--Generator: Apple Native CoreSVG 341-->
<!DOCTYPE svg
PUBLIC "-//W3C//DTD SVG 1.1//EN"
       "http://www.w3.org/Graphics/SVG/1.1/DTD/svg11.dtd">
<svg version="1.1" xmlns="http://www.w3.org/2000/svg" xmlns:xlink="http://www.w3.org/1999/xlink" viewBox="0 0 20.2201 19.4949">
 <g>
  <rect height="19.4949" opacity="0" width="20.2201" x="0" y="0"/>
  <path d="M15.8758 19.4593L18.0902 19.4593C19.1986 19.4593 19.8588 18.7974 19.8588 17.65L19.8588 15.5172C19.8588 14.3697 19.1986 13.7078 18.0902 13.7078L15.8758 13.7078C14.7674 13.7078 14.1072 14.3697 14.1072 15.5172L14.1072 17.65C14.1072 18.7974 14.7674 19.4593 15.8758 19.4593ZM16.1088 17.95C15.7818 17.95 15.6086 17.775 15.6086 17.4347L15.6086 15.7306C15.6086 15.3842 15.7818 15.2092 16.1088 15.2092L17.8554 15.2092C18.1761 15.2092 18.3494 15.3842 18.3494 15.7306L18.3494 17.4347C18.3494 17.775 18.1761 17.95 17.8554 17.95Z" fill="white" fill-opacity="0.85"/>
  <path d="M8.81327 19.4593L11.0357 19.4593C12.1441 19.4593 12.7963 18.7974 12.7963 17.65L12.7963 15.5172C12.7963 14.3697 12.1441 13.7078 11.0357 13.7078L8.81327 13.7078C7.70487 13.7078 7.05272 14.3697 7.05272 15.5172L7.05272 17.65C7.05272 18.7974 7.70487 19.4593 8.81327 19.4593ZM9.04627 17.95C8.71932 17.95 8.55408 17.775 8.55408 17.4347L8.55408 15.7306C8.55408 15.3842 8.71932 15.2092 9.04627 15.2092L10.801 15.2092C11.1217 15.2092 11.2949 15.3842 11.2949 15.7306L11.2949 17.4347C11.2949 17.775 11.1217 17.95 10.801 17.95Z" fill="white" fill-opacity="0.85"/>
  <path d="M1.76855 19.4593L3.983 19.4593C5.0914 19.4593 5.75155 18.7974 5.75155 17.65L5.75155 15.5172C5.75155 14.3697 5.0914 13.7078 3.983 13.7078L1.76855 13.7078C0.660155 13.7078 0 14.3697 0 15.5172L0 17.65C0 18.7974 0.660155 19.4593 1.76855 19.4593ZM2.00156 17.95C1.6746 17.95 1.50937 17.775 1.50937 17.4347L1.50937 15.7306C1.50937 15.3842 1.6746 15.2092 2.00156 15.2092L3.74824 15.2092C4.06894 15.2092 4.25019 15.3842 4.25019 15.7306L4.25019 17.4347C4.25019 17.775 4.06894 17.95 3.74824 17.95Z" fill="white" fill-opacity="0.85"/>
  <path d="M15.8758 12.6055L18.0902 12.6055C19.1986 12.6055 19.8588 11.9515 19.8588 10.8041L19.8588 8.66327C19.8588 7.51581 19.1986 6.8539 18.0902 6.8539L15.8758 6.8539C14.7674 6.8539 14.1072 7.51581 14.1072 8.66327L14.1072 10.8041C14.1072 11.9515 14.7674 12.6055 15.8758 12.6055ZM16.1088 11.1041C15.7818 11.1041 15.6086 10.9291 15.6086 10.5808L15.6086 8.86873C15.6086 8.53026 15.7818 8.35526 16.1088 8.35526L17.8554 8.35526C18.1761 8.35526 18.3494 8.53026 18.3494 8.86873L18.3494 10.5808C18.3494 10.9291 18.1761 11.1041 17.8554 11.1041Z" fill="white" fill-opacity="0.85"/>
  <path d="M8.81327 12.6055L11.0357 12.6055C12.1441 12.6055 12.7963 11.9515 12.7963 10.8041L12.7963 8.66327C12.7963 7.51581 12.1441 6.8539 11.0357 6.8539L8.81327 6.8539C7.70487 6.8539 7.05272 7.51581 7.05272 8.66327L7.05272 10.8041C7.05272 11.9515 7.70487 12.6055 8.81327 12.6055ZM9.04627 11.1041C8.71932 11.1041 8.55408 10.9291 8.55408 10.5808L8.55408 8.86873C8.55408 8.53026 8.71932 8.35526 9.04627 8.35526L10.801 8.35526C11.1217 8.35526 11.2949 8.53026 11.2949 8.86873L11.2949 10.5808C11.2949 10.9291 11.1217 11.1041 10.801 11.1041Z" fill="white" fill-opacity="0.85"/>
  <path d="M1.76855 12.6055L3.983 12.6055C5.0914 12.6055 5.75155 11.9515 5.75155 10.8041L5.75155 8.66327C5.75155 7.51581 5.0914 6.8539 3.983 6.8539L1.76855 6.8539C0.660155 6.8539 0 7.51581 0 8.66327L0 10.8041C0 11.9515 0.660155 12.6055 1.76855 12.6055ZM2.00156 11.1041C1.6746 11.1041 1.50937 10.9291 1.50937 10.5808L1.50937 8.86873C1.50937 8.53026 1.6746 8.35526 2.00156 8.35526L3.74824 8.35526C4.06894 8.35526 4.25019 8.53026 4.25019 8.86873L4.25019 10.5808C4.25019 10.9291 4.06894 11.1041 3.74824 11.1041Z" fill="white" fill-opacity="0.85"/>
  <path d="M15.8758 5.75155L18.0902 5.75155C19.1986 5.75155 19.8588 5.08964 19.8588 3.94394L19.8588 1.80937C19.8588 0.66367 19.1986 0 18.0902 0L15.8758 0C14.7674 0 14.1072 0.66367 14.1072 1.80937L14.1072 3.94394C14.1072 5.08964 14.7674 5.75155 15.8758 5.75155ZM16.1088 4.25195C15.7818 4.25195 15.6086 4.07695 15.6086 3.72871L15.6086 2.02285C15.6086 1.68437 15.7818 1.50937 16.1088 1.50937L17.8554 1.50937C18.1761 1.50937 18.3494 1.68437 18.3494 2.02285L18.3494 3.72871C18.3494 4.07695 18.1761 4.25195 17.8554 4.25195Z" fill="white" fill-opacity="0.85"/>
  <path d="M8.81327 5.75155L11.0277 5.75155C12.1361 5.75155 12.7963 5.08964 12.7963 3.94394L12.7963 1.80937C12.7963 0.66367 12.1361 0 11.0277 0L8.81327 0C7.70487 0 7.04472 0.66367 7.04472 1.80937L7.04472 3.94394C7.04472 5.08964 7.70487 5.75155 8.81327 5.75155Z" fill="white" fill-opacity="0.85"/>
  <path d="M1.76855 5.75155L3.983 5.75155C5.0914 5.75155 5.75155 5.08964 5.75155 3.94394L5.75155 1.80937C5.75155 0.66367 5.0914 0 3.983 0L1.76855 0C0.660155 0 0 0.66367 0 1.80937L0 3.94394C0 5.08964 0.660155 5.75155 1.76855 5.75155ZM2.00156 4.25195C1.6746 4.25195 1.50937 4.07695 1.50937 3.72871L1.50937 2.02285C1.50937 1.68437 1.6746 1.50937 2.00156 1.50937L3.74824 1.50937C4.06894 1.50937 4.25019 1.68437 4.25019 2.02285L4.25019 3.72871C4.25019 4.07695 4.06894 4.25195 3.74824 4.25195Z" fill="white" fill-opacity="0.85"/>
 </g>
</svg>
