<?xml version="1.0" encoding="UTF-8"?>
<!--Generator: Apple Native CoreSVG 341-->
<!DOCTYPE svg
PUBLIC "-//W3C//DTD SVG 1.1//EN"
       "http://www.w3.org/Graphics/SVG/1.1/DTD/svg11.dtd">
<svg version="1.1" xmlns="http://www.w3.org/2000/svg" xmlns:xlink="http://www.w3.org/1999/xlink" viewBox="0 0 23.9722 23.6053">
 <g>
  <rect height="23.6053" opacity="0" width="23.9722" x="0" y="0"/>
  <path d="M17.0859 3.39949L15.2135 5.27196L7.27029 5.27196C5.7865 5.27196 4.94685 6.11336 4.94685 7.59716L4.94685 16.664C4.94685 18.1558 5.7865 18.9892 7.27029 18.9892L16.3406 18.9892C17.8324 18.9892 18.6623 18.1558 18.6623 16.664L18.6623 8.79514L20.5428 6.9115C20.567 7.11532 20.5773 7.33066 20.5773 7.55419L20.5773 16.7149C20.5773 19.4069 19.0818 20.9024 16.3898 20.9024L7.22108 20.9024C4.53709 20.9024 3.03358 19.4069 3.03358 16.7149L3.03358 7.55419C3.03358 4.8622 4.53709 3.35869 7.22108 3.35869L16.3898 3.35869C16.6329 3.35869 16.8662 3.37094 17.0859 3.39949Z" fill="white" fill-opacity="0.85"/>
  <path d="M9.92712 14.381L11.914 13.5403L20.8312 4.63114L19.3404 3.1581L10.433 12.0655L9.55232 13.9964C9.45662 14.2169 9.70291 14.4714 9.92712 14.381ZM21.5767 3.89364L22.2588 3.19384C22.6347 2.80184 22.6435 2.2663 22.2711 1.90536L22.0148 1.64287C21.6822 1.31377 21.1334 1.36513 20.7689 1.72158L20.0859 2.39833Z" fill="white" fill-opacity="0.85"/>
 </g>
</svg>
