<?xml version="1.0" encoding="UTF-8"?>
<!--Generator: Apple Native CoreSVG 341-->
<!DOCTYPE svg
PUBLIC "-//W3C//DTD SVG 1.1//EN"
       "http://www.w3.org/Graphics/SVG/1.1/DTD/svg11.dtd">
<svg version="1.1" xmlns="http://www.w3.org/2000/svg" xmlns:xlink="http://www.w3.org/1999/xlink" viewBox="0 0 21.3695 21.0277">
 <g>
  <rect height="21.0277" opacity="0" width="21.3695" x="0" y="0"/>
  <path d="M16.1387 18.5881C16.1387 18.9296 16.2083 19.2547 16.3349 19.5496L4.67336 19.5496C4.79987 19.2547 4.86952 18.9296 4.86952 18.5881C4.86952 18.2808 4.81311 17.9868 4.70762 17.7172L16.3006 17.7172C16.1951 17.9868 16.1387 18.2808 16.1387 18.5881ZM2.43788 4.88905C2.74563 4.88905 3.03957 4.83221 3.30878 4.72603L3.30878 16.3132C3.03957 16.207 2.74563 16.1502 2.43788 16.1502C2.0963 16.1502 1.77198 16.2196 1.47812 16.3453L1.47812 4.69395C1.77198 4.81967 2.0963 4.88905 2.43788 4.88905ZM19.5301 16.344C19.2377 16.2192 18.9155 16.1502 18.5766 16.1502C18.2663 16.1502 17.9703 16.2074 17.6994 16.3142L17.6994 4.72498C17.9703 4.83181 18.2663 4.88905 18.5766 4.88905C18.9155 4.88905 19.2377 4.82009 19.5301 4.69521ZM16.1387 2.44941C16.1387 2.75977 16.1961 3.0565 16.3032 3.32831L4.70506 3.32831C4.81214 3.0565 4.86952 2.75977 4.86952 2.44941C4.86952 2.11167 4.80139 1.79 4.6779 1.49766L16.3304 1.49766C16.2068 1.79 16.1387 2.11167 16.1387 2.44941Z" fill="white" fill-opacity="0.85"/>
  <path d="M21.0082 18.5881C21.0082 19.9348 19.925 21.0277 18.5766 21.0277C17.2219 21.0277 16.1387 19.9348 16.1387 18.5881C16.1387 17.2414 17.2219 16.1502 18.5766 16.1502C19.925 16.1502 21.0082 17.2414 21.0082 18.5881ZM4.86952 18.5881C4.86952 19.9348 3.78632 21.0277 2.43788 21.0277C1.0832 21.0277 0 19.9348 0 18.5881C0 17.2414 1.0832 16.1502 2.43788 16.1502C3.78632 16.1502 4.86952 17.2414 4.86952 18.5881ZM4.86952 2.44941C4.86952 3.79784 3.78632 4.88905 2.43788 4.88905C1.0832 4.88905 0 3.79784 0 2.44941C0 1.10273 1.0832 0.0115234 2.43788 0.0115234C3.78632 0.0115234 4.86952 1.10273 4.86952 2.44941ZM21.0082 2.44941C21.0082 3.79784 19.925 4.88905 18.5766 4.88905C17.2219 4.88905 16.1387 3.79784 16.1387 2.44941C16.1387 1.10273 17.2219 0.0115234 18.5766 0.0115234C19.925 0.0115234 21.0082 1.10273 21.0082 2.44941Z" fill="white" fill-opacity="0.85"/>
  <path d="M13.5332 6.46191L13.5332 7.58866L12.1818 7.58866L12.1818 6.88593C12.1818 6.70018 12.0707 6.58905 11.8592 6.58905L6.83983 6.58905C6.64784 6.58905 6.54472 6.70018 6.54472 6.88593L6.54472 11.8086C6.54472 12.0023 6.64784 12.1072 6.83983 12.1072L7.5248 12.1072L7.5248 13.4568L6.41757 13.4568C5.64609 13.4568 5.19159 13.0023 5.19159 12.2309L5.19159 6.46191C5.19159 5.69042 5.64609 5.23769 6.41757 5.23769L12.2832 5.23769C13.0707 5.23769 13.5332 5.69042 13.5332 6.46191Z" fill="white" fill-opacity="0.85"/>
  <path d="M8.75077 15.8016L14.6404 15.8016C15.4119 15.8016 15.8664 15.3533 15.8664 14.5738L15.8664 8.80488C15.8664 8.03339 15.4039 7.58866 14.6164 7.58866L8.75077 7.58866C7.97929 7.58866 7.5248 8.03339 7.5248 8.80488L7.5248 14.5738C7.5248 15.3533 7.97929 15.8016 8.75077 15.8016ZM9.17304 14.4502C8.98104 14.4502 8.87792 14.3471 8.87792 14.1596L8.87792 9.2289C8.87792 9.04315 8.98104 8.94003 9.17304 8.94003L14.1924 8.94003C14.4039 8.94003 14.515 9.04315 14.515 9.2289L14.515 14.1596C14.515 14.3471 14.4119 14.4502 14.2164 14.4502Z" fill="white" fill-opacity="0.85"/>
 </g>
</svg>
