<?xml version="1.0" encoding="UTF-8"?>
<!--Generator: Apple Native CoreSVG 341-->
<!DOCTYPE svg
PUBLIC "-//W3C//DTD SVG 1.1//EN"
       "http://www.w3.org/Graphics/SVG/1.1/DTD/svg11.dtd">
<svg version="1.1" xmlns="http://www.w3.org/2000/svg" xmlns:xlink="http://www.w3.org/1999/xlink" viewBox="0 0 19.4705 19.1367">
 <g>
  <rect height="19.1367" opacity="0" width="19.4705" x="0" y="0"/>
  <path d="M0.932416 19.1172C1.45272 19.1172 1.87284 18.6891 1.87284 18.1768L1.87284 15.0351L5.13437 15.0351C5.7789 15.0351 6.2576 14.5564 6.2576 13.9137L6.2576 10.6504L9.52089 10.6504C10.1637 10.6504 10.6504 10.1717 10.6504 9.52714L10.6504 6.26561L13.9057 6.26561C14.5564 6.26561 15.0369 5.78515 15.0369 5.14238L15.0369 1.87108L18.1687 1.87108C18.6891 1.87108 19.1092 1.45097 19.1092 0.940424C19.1092 0.428122 18.6891 0 18.1687 0L14.2855 0C13.6428 0 13.1641 0.486716 13.1641 1.12949L13.1641 4.39277L9.90077 4.39277C9.25801 4.39277 8.7793 4.87148 8.7793 5.51601L8.7793 8.77754L5.508 8.77754C4.86523 8.77754 4.38477 9.25801 4.38477 9.90878L4.38477 13.1641L1.12324 13.1641C0.478708 13.1641 0 13.6508 0 14.2935L0 18.1768C0 18.6891 0.420114 19.1172 0.932416 19.1172Z" fill="white" fill-opacity="0.85"/>
 </g>
</svg>
