<?xml version="1.0" encoding="UTF-8"?>
<!--Generator: Apple Native CoreSVG 341-->
<!DOCTYPE svg
PUBLIC "-//W3C//DTD SVG 1.1//EN"
       "http://www.w3.org/Graphics/SVG/1.1/DTD/svg11.dtd">
<svg version="1.1" xmlns="http://www.w3.org/2000/svg" xmlns:xlink="http://www.w3.org/1999/xlink" viewBox="0 0 23.6367 23.7992">
 <g>
  <rect height="23.7992" opacity="0" width="23.6367" x="0" y="0"/>
  <path d="M17.2752 4.61054L17.2752 4.74316L9.20545 4.74316C6.31249 4.74316 4.58066 6.45096 4.58066 9.33416L4.58066 17.6543L4.26347 17.6543C2.1539 17.6543 1.0582 16.5666 1.0582 14.4828L1.0582 4.61054C1.0582 2.52499 2.1539 1.43906 4.26347 1.43906L14.0699 1.43906C16.1715 1.43906 17.2752 2.52499 17.2752 4.61054Z" fill="white" fill-opacity="0.85"/>
  <path d="M22.2172 9.33416L22.2172 19.2082C22.2172 21.292 21.1135 22.3797 19.0119 22.3797L9.20545 22.3797C7.09588 22.3797 6.00018 21.292 6.00018 19.2082L6.00018 9.33416C6.00018 7.24237 7.09588 6.16268 9.20545 6.16268L19.0119 6.16268C21.1135 6.16268 22.2172 7.25038 22.2172 9.33416ZM13.6135 9.8492L12.7441 12.5629L9.90701 12.5398C9.27693 12.5301 9.14451 13.1894 9.59549 13.5152L11.906 15.1695L10.9994 17.8699C10.8068 18.4529 11.334 18.8258 11.8248 18.4556L14.1096 16.7836L16.4023 18.4556C16.8931 18.824 17.4185 18.4599 17.2242 17.8699L16.3193 15.1678L18.6281 13.5152C19.0711 13.1992 18.9537 12.5301 18.3183 12.5398L15.4732 12.5629L14.6101 9.8492C14.4273 9.27947 13.7963 9.27947 13.6135 9.8492Z" fill="white" fill-opacity="0.85"/>
 </g>
</svg>
