<?xml version="1.0" encoding="UTF-8"?>
<!--Generator: Apple Native CoreSVG 341-->
<!DOCTYPE svg
PUBLIC "-//W3C//DTD SVG 1.1//EN"
       "http://www.w3.org/Graphics/SVG/1.1/DTD/svg11.dtd">
<svg version="1.1" xmlns="http://www.w3.org/2000/svg" xmlns:xlink="http://www.w3.org/1999/xlink" viewBox="0 0 22.2363 21.8605">
 <g>
  <rect height="21.8605" opacity="0" width="22.2363" x="0" y="0"/>
  <path d="M21.875 5.83047L21.875 13.4041C21.875 16.3023 20.2281 17.983 17.2898 17.983L10.8412 17.983L7.26835 21.2162C6.78124 21.6652 6.46991 21.8605 6.0662 21.8605C5.47792 21.8605 5.1373 21.4426 5.1373 20.8002L5.1373 17.983L4.52363 17.983C1.6873 17.983 0 16.3103 0 13.4041L0 5.83047C0 2.92422 1.64687 1.24356 4.58515 1.24356L17.2898 1.24356C20.2281 1.24356 21.875 2.93223 21.875 5.83047ZM10.4752 5.44746L9.67167 7.93691L6.9832 7.9334C6.43144 7.9334 6.2537 8.49843 6.70995 8.82246L8.89589 10.3789L8.05331 12.8773C7.8457 13.4639 8.36835 13.7611 8.81288 13.4346L10.9473 11.8711L13.0736 13.4346C13.5244 13.7594 14.0408 13.4709 13.8394 12.8773L13.0066 10.3771L15.1748 8.82246C15.6258 8.49492 15.4586 7.9334 14.9033 7.9334L12.2148 7.93691L11.4193 5.44746C11.249 4.91953 10.6535 4.91953 10.4752 5.44746Z" fill="white" fill-opacity="0.85"/>
 </g>
</svg>
