<?xml version="1.0" encoding="UTF-8"?>
<!--Generator: Apple Native CoreSVG 341-->
<!DOCTYPE svg
PUBLIC "-//W3C//DTD SVG 1.1//EN"
       "http://www.w3.org/Graphics/SVG/1.1/DTD/svg11.dtd">
<svg version="1.1" xmlns="http://www.w3.org/2000/svg" xmlns:xlink="http://www.w3.org/1999/xlink" viewBox="0 0 20.5381 20.1848">
 <g>
  <rect height="20.1848" opacity="0" width="20.5381" x="0" y="0"/>
  <path d="M20.1767 10.0973C20.1767 15.6656 15.6576 20.1848 10.0875 20.1848C4.52715 20.1848 0 15.6656 0 10.0973C0 4.53691 4.52715 0.00976562 10.0875 0.00976562C15.6576 0.00976562 20.1767 4.53691 20.1767 10.0973ZM10.0258 4.77714C9.30234 4.77714 9.06972 5.00175 9.06972 5.68261L9.06972 8.36953L6.77265 7.02207C6.14237 6.66523 5.83339 6.73535 5.51034 7.37011L5.43261 7.50175C5.10956 8.13202 5.18945 8.43476 5.77968 8.74628L8.19219 10.0502L5.77167 11.4457C5.1832 11.7893 5.10331 12.0822 5.45566 12.6947L5.51562 12.8139C5.86444 13.4326 6.17167 13.5107 6.75487 13.1654L9.06972 11.8162L9.06972 14.5119C9.06797 15.2008 9.30058 15.4254 10.0258 15.4254L10.1715 15.4254C10.8789 15.4254 11.1115 15.2008 11.1115 14.5102L11.1115 11.8162L13.4264 13.1654C14.0398 13.5268 14.3426 13.4441 14.6639 12.8139L14.7336 12.6947C15.0486 12.0725 14.9785 11.775 14.4096 11.4457L11.9891 10.0502L14.4016 8.74628C14.9918 8.42675 15.0734 8.1205 14.7486 7.50175L14.6709 7.37011C14.3541 6.7371 14.0451 6.64746 13.4086 7.02207L11.1115 8.36953L11.1115 5.68261C11.1115 5.00175 10.8789 4.77714 10.1715 4.77714Z" fill="white" fill-opacity="0.85"/>
 </g>
</svg>
