<?xml version="1.0" encoding="UTF-8"?>
<!--Generator: Apple Native CoreSVG 341-->
<!DOCTYPE svg
PUBLIC "-//W3C//DTD SVG 1.1//EN"
       "http://www.w3.org/Graphics/SVG/1.1/DTD/svg11.dtd">
<svg version="1.1" xmlns="http://www.w3.org/2000/svg" xmlns:xlink="http://www.w3.org/1999/xlink" viewBox="0 0 18.5894 18.2316">
 <g>
  <rect height="18.2316" opacity="0" width="18.5894" x="0" y="0"/>
  <path d="M3.20351 18.2281L15.0246 18.2281C17.1404 18.2281 18.2281 17.1502 18.2281 15.0646L18.2281 3.17148C18.2281 1.08769 17.1404 0 15.0246 0L3.20351 0C1.0957 0 0 1.08769 0 3.17148L0 15.0646C0 17.1502 1.0957 18.2281 3.20351 18.2281ZM3.31444 16.3148C2.40643 16.3148 1.91327 15.8465 1.91327 14.8977L1.91327 3.34023C1.91327 2.39139 2.40643 1.91503 3.31444 1.91503L14.9137 1.91503C15.8137 1.91503 16.3148 2.39139 16.3148 3.34023L16.3148 14.8977C16.3148 15.8465 15.8137 16.3148 14.9137 16.3148Z" fill="white" fill-opacity="0.85"/>
  <path d="M6.3953 14.0814L9.11894 12.0807L11.8426 14.0814C12.4275 14.5164 13.0426 14.0795 12.8154 13.382L11.7391 10.1682L14.4867 8.20292C15.0043 7.82206 14.8727 7.03749 14.1219 7.04726L10.742 7.07831L9.70742 3.84491C9.49531 3.17401 8.73906 3.17401 8.52695 3.84491L7.49413 7.07831L4.11601 7.04726C3.37851 7.03749 3.2203 7.81405 3.74765 8.20292L6.49882 10.1699L5.42695 13.382C5.19355 14.0707 5.81659 14.5182 6.3953 14.0814Z" fill="white" fill-opacity="0.85"/>
 </g>
</svg>
