<?xml version="1.0" encoding="UTF-8"?>
<!--Generator: Apple Native CoreSVG 341-->
<!DOCTYPE svg
PUBLIC "-//W3C//DTD SVG 1.1//EN"
       "http://www.w3.org/Graphics/SVG/1.1/DTD/svg11.dtd">
<svg version="1.1" xmlns="http://www.w3.org/2000/svg" xmlns:xlink="http://www.w3.org/1999/xlink" viewBox="0 0 16.8555 20.3496">
 <g>
  <rect height="20.3496" opacity="0" width="16.8555" x="0" y="0"/>
  <path d="M8.24706 20.3496C8.41913 20.3496 8.68359 20.2822 8.93124 20.1473C14.5476 17.0812 16.4941 15.6785 16.4941 12.1158L16.4941 4.733C16.4941 3.57578 16.0459 3.16739 15.0769 2.7543C13.9914 2.30215 10.3322 1.01524 9.26776 0.651758C8.94432 0.548048 8.57499 0.480666 8.24706 0.480666C7.91914 0.480666 7.54981 0.565822 7.23438 0.651758C6.16992 0.955666 2.50273 2.31016 1.41718 2.7543C0.45625 3.15938 0 3.57578 0 4.733L0 12.1158C0 15.6785 1.95449 17.0732 7.56289 20.1473C7.81855 20.2822 8.075 20.3496 8.24706 20.3496ZM8.24706 18.299C8.10663 18.299 7.96796 18.2475 7.68378 18.0752C3.21952 15.3531 1.83397 14.6209 1.83397 11.751L1.83397 5.04452C1.83397 4.70019 1.8996 4.56269 2.17655 4.45351C3.62226 3.87988 6.42929 2.94296 7.73691 2.42909C7.95644 2.34667 8.108 2.31835 8.24706 2.31835C8.38613 2.31835 8.53593 2.35468 8.75722 2.42909C10.0648 2.94296 12.8559 3.93593 14.3256 4.45351C14.5928 4.55468 14.6602 4.70019 14.6602 5.04452L14.6602 11.751C14.6602 14.6367 13.2254 15.4119 8.81035 18.0752C8.53418 18.2457 8.3875 18.299 8.24706 18.299Z" fill="white" fill-opacity="0.85"/>
  <path d="M3.7703 7.39824C3.4623 7.9957 3.53866 8.28515 4.10585 8.58691L6.42969 9.85273L4.09784 11.2039C3.53241 11.5262 3.45605 11.8076 3.79335 12.4033L3.8498 12.5092C4.18534 13.1049 4.48105 13.1795 5.0412 12.8395L7.27714 11.5461L7.27714 14.1496C7.27539 14.8039 7.49648 15.017 8.18886 15.017L8.32577 15.017C9.00839 15.017 9.22949 14.8039 9.22949 14.1461L9.22949 11.5461L11.4574 12.8395C12.0496 13.1973 12.3408 13.1146 12.6488 12.5092L12.7133 12.4033C13.0168 11.7961 12.9467 11.5119 12.4088 11.2039L10.0769 9.85273L12.3928 8.58691C12.96 8.28515 13.0398 7.99394 12.7283 7.39824L12.6523 7.27363C12.3506 6.66543 12.0514 6.57578 11.4414 6.94512L9.22949 8.24024L9.22949 5.64375C9.22949 4.9957 9.00839 4.78261 8.32577 4.78261L8.18886 4.78261C7.49824 4.78261 7.27714 4.9957 7.27714 5.64375L7.27714 8.24024L5.05722 6.94512C4.45351 6.59355 4.15429 6.67168 3.84628 7.27363Z" fill="white" fill-opacity="0.85"/>
 </g>
</svg>
