<?xml version="1.0" encoding="UTF-8"?>
<!--Generator: Apple Native CoreSVG 341-->
<!DOCTYPE svg
PUBLIC "-//W3C//DTD SVG 1.1//EN"
       "http://www.w3.org/Graphics/SVG/1.1/DTD/svg11.dtd">
<svg version="1.1" xmlns="http://www.w3.org/2000/svg" xmlns:xlink="http://www.w3.org/1999/xlink" viewBox="0 0 20.5381 20.1848">
 <g>
  <rect height="20.1848" opacity="0" width="20.5381" x="0" y="0"/>
  <path d="M10.0875 20.175C15.6576 20.175 20.1767 15.6559 20.1767 10.0875C20.1767 4.51914 15.6576 0 10.0875 0C4.51914 0 0 4.51914 0 10.0875C0 15.6559 4.51914 20.175 10.0875 20.175ZM10.0875 18.1879C5.60839 18.1879 1.9871 14.5666 1.9871 10.0875C1.9871 5.60839 5.60839 1.9871 10.0875 1.9871C14.5666 1.9871 18.1897 5.60839 18.1897 10.0875C18.1897 14.5666 14.5666 18.1879 10.0875 18.1879Z" fill="white" fill-opacity="0.85"/>
  <path d="M7.35585 15.058L10.0795 13.0572L12.8031 15.058C13.3881 15.493 14.0049 15.0561 13.7777 14.3586L12.6996 11.1447L15.4473 9.17948C15.9666 8.79862 15.8332 8.01406 15.0824 8.02382L11.7025 8.05488L10.668 4.82147C10.4559 4.15058 9.70136 4.15058 9.4875 4.82147L8.45468 8.05488L5.07655 8.02382C4.33905 8.01406 4.18085 8.79062 4.70819 9.17948L7.45937 11.1465L6.38749 14.3586C6.15409 15.0473 6.7789 15.4947 7.35585 15.058Z" fill="white" fill-opacity="0.85"/>
 </g>
</svg>
