<?xml version="1.0" encoding="UTF-8"?>
<!--Generator: Apple Native CoreSVG 341-->
<!DOCTYPE svg
PUBLIC "-//W3C//DTD SVG 1.1//EN"
       "http://www.w3.org/Graphics/SVG/1.1/DTD/svg11.dtd">
<svg version="1.1" xmlns="http://www.w3.org/2000/svg" xmlns:xlink="http://www.w3.org/1999/xlink" viewBox="0 0 29.5271 20.1812">
 <g>
  <rect height="20.1812" opacity="0" width="29.5271" x="0" y="0"/>
  <path d="M10.0875 20.175C15.6559 20.175 20.175 15.6559 20.175 10.0875C20.175 4.51914 15.6559 0 10.0875 0C4.51914 0 0 4.51914 0 10.0875C0 15.6559 4.51914 20.175 10.0875 20.175ZM3.36366 5.48613C4.79745 3.32284 7.26698 1.91854 10.0662 1.91854C12.8592 1.91854 15.3305 3.32284 16.774 5.47636C17.1576 6.0207 16.9791 6.61406 16.3432 6.61406L3.79276 6.61406C3.16659 6.61406 2.98007 6.0207 3.36366 5.48613ZM10.0697 12.6348C8.91601 12.6348 7.98437 11.7066 7.98437 10.5414C7.98437 9.39745 8.91601 8.46757 10.0697 8.46757C11.2234 8.46757 12.1533 9.39745 12.1533 10.5414C12.1533 11.7066 11.2234 12.6348 10.0697 12.6348ZM2.22284 12.2758C2.06737 11.6984 2.37929 11.4408 2.86952 11.5074C5.59394 11.842 7.69336 14.2299 7.61328 17.0271C7.61328 17.5059 7.25351 17.8115 6.76757 17.5699C4.50585 16.5471 2.86034 14.6219 2.22284 12.2758ZM17.9229 12.2758C17.2951 14.6219 15.6416 16.5471 13.3879 17.5699C12.8922 17.8115 12.5404 17.5059 12.5324 17.0271C12.4603 14.2379 14.5535 11.842 17.2859 11.5074C17.7762 11.4408 18.0801 11.6984 17.9229 12.2758Z" fill="white" fill-opacity="0.85"/>
  <path d="M28.5892 9.53262L23.6945 6.63144C23.2416 6.36289 22.667 6.59238 22.667 7.09394L22.667 13.0793C22.667 13.5906 23.2211 13.8264 23.6945 13.5435L28.5892 10.6584C29.0432 10.3934 29.0254 9.78613 28.5892 9.53262Z" fill="white" fill-opacity="0.85"/>
 </g>
</svg>
