<?xml version="1.0" encoding="UTF-8"?>
<!--Generator: Apple Native CoreSVG 341-->
<!DOCTYPE svg
PUBLIC "-//W3C//DTD SVG 1.1//EN"
       "http://www.w3.org/Graphics/SVG/1.1/DTD/svg11.dtd">
<svg version="1.1" xmlns="http://www.w3.org/2000/svg" xmlns:xlink="http://www.w3.org/1999/xlink" viewBox="0 0 20.5381 20.1848">
 <g>
  <rect height="20.1848" opacity="0" width="20.5381" x="0" y="0"/>
  <path d="M10.0875 20.175C15.6576 20.175 20.1767 15.6559 20.1767 10.0875C20.1767 4.51914 15.6576 0 10.0875 0C4.51914 0 0 4.51914 0 10.0875C0 15.6559 4.51914 20.175 10.0875 20.175ZM10.0875 18.1879C5.60839 18.1879 1.9871 14.5666 1.9871 10.0875C1.9871 5.60839 5.60839 1.9871 10.0875 1.9871C14.5666 1.9871 18.1897 5.60839 18.1897 10.0875C18.1897 14.5666 14.5666 18.1879 10.0875 18.1879Z" fill="white" fill-opacity="0.85"/>
  <path d="M10.0795 15.8664C13.2727 15.8664 15.8566 13.2744 15.8566 10.0893C15.8566 6.89609 13.2727 4.3121 10.0795 4.3121C6.89433 4.3121 4.30409 6.89609 4.30409 10.0893C4.30409 13.2744 6.89433 15.8664 10.0795 15.8664ZM6.43924 7.60253C7.22616 6.43612 8.55507 5.66581 10.0697 5.66581C11.5924 5.66581 12.923 6.43612 13.7037 7.60253C13.908 7.88944 13.8156 8.20663 13.4691 8.20663L6.68007 8.20663C6.33358 8.20663 6.23319 7.88944 6.43924 7.60253ZM10.0812 11.484C9.44433 11.484 8.9371 10.9768 8.9371 10.3318C8.9371 9.69667 9.44433 9.18769 10.0812 9.18769C10.7164 9.18769 11.2334 9.69667 11.2334 10.3318C11.2334 10.9768 10.7164 11.484 10.0812 11.484ZM5.82909 11.2678C5.73846 10.9506 5.91268 10.8084 6.1703 10.8457C7.66269 11.0215 8.7998 12.3193 8.75175 13.8375C8.75175 14.1014 8.54472 14.2613 8.28437 14.1352C7.05761 13.5836 6.16307 12.5416 5.82909 11.2678ZM14.3236 11.2678C13.9861 12.5416 13.0934 13.5836 11.8729 14.1352C11.6045 14.2613 11.3992 14.1014 11.3992 13.8375C11.3592 12.3273 12.4883 11.0215 13.9789 10.8457C14.2365 10.8084 14.4107 10.9506 14.3236 11.2678Z" fill="white" fill-opacity="0.85"/>
 </g>
</svg>
