<?xml version="1.0" encoding="UTF-8"?>
<!--Generator: Apple Native CoreSVG 341-->
<!DOCTYPE svg
PUBLIC "-//W3C//DTD SVG 1.1//EN"
       "http://www.w3.org/Graphics/SVG/1.1/DTD/svg11.dtd">
<svg version="1.1" xmlns="http://www.w3.org/2000/svg" xmlns:xlink="http://www.w3.org/1999/xlink" viewBox="0 0 29.266 14.9726">
 <g>
  <rect height="14.9726" opacity="0" width="29.266" x="0" y="0"/>
  <path d="M6.55343 2.82284L7.33566 2.82284C7.81202 2.82284 8.02218 2.64452 8.188 2.22597L8.76944 0.762104C8.93077 0.373044 8.74034 0.021289 8.32823 0.021289L7.66788 0.021289C7.30245 0.021289 7.05343 0.203124 6.87433 0.540037L6.08879 2.05781C5.89387 2.42988 6.10812 2.82284 6.55343 2.82284ZM3.85304 8.34569L5.04073 8.34569C5.49523 8.34569 5.78526 8.17186 5.95304 7.74667L6.8378 5.56366C6.99561 5.16914 6.76143 4.78086 6.30323 4.78086L5.24855 4.78086C4.9007 4.78086 4.60793 4.95918 4.4464 5.27421L3.32551 7.45917C3.09855 7.89706 3.3716 8.34569 3.85304 8.34569ZM0.897378 14.9726L2.19425 14.9726C2.83644 14.9726 3.16456 14.6525 3.33663 14.1992L4.52101 11.2881C4.71788 10.8057 4.41632 10.333 3.87374 10.333L2.69113 10.333C2.05832 10.333 1.72922 10.5674 1.49152 11.0232L0.120624 13.734C-0.170195 14.3023 0.0557798 14.9726 0.897378 14.9726ZM21.569 2.82109L22.3513 2.82109C22.7948 2.82109 23.0108 2.42812 22.8159 2.05605L22.0286 0.538279C21.8593 0.201367 21.6005 0.0177735 21.2368 0.0177735L20.5765 0.0177735C20.1644 0.0177735 19.9739 0.371286 20.1353 0.760346L20.7167 2.22421C20.8825 2.64277 21.0909 2.82109 21.569 2.82109ZM23.872 8.34393L25.0517 8.34393C25.5331 8.34393 25.8061 7.8953 25.5854 7.45741L24.4663 5.27246C24.2968 4.95742 24.004 4.7791 23.6544 4.7791L22.6015 4.7791C22.1433 4.7791 21.9091 5.16738 22.0669 5.56191L22.9517 7.74491C23.1274 8.17011 23.4077 8.34393 23.872 8.34393ZM26.7104 14.9709L28.0056 14.9709C28.8569 14.9709 29.0749 14.3006 28.7841 13.7322L27.4132 11.0215C27.1755 10.5639 26.8446 10.3312 26.2136 10.3312L25.039 10.3312C24.4884 10.3312 24.1868 10.8039 24.3837 11.2863L25.5681 14.1975C25.7481 14.6508 26.0683 14.9709 26.7104 14.9709Z" fill="white" fill-opacity="0.85"/>
  <path d="M14.4644 13.9965C17.7499 13.9965 20.47 11.2861 20.47 8.00058C20.47 4.70702 17.7419 1.99492 14.4564 1.99492C11.1788 1.99492 8.4587 4.70702 8.4587 8.00058C8.4587 11.2861 11.1788 13.9965 14.4644 13.9965ZM10.6552 5.40429C11.4757 4.16171 12.8585 3.37108 14.4546 3.37108C16.0472 3.37108 17.4317 4.16171 18.254 5.39452C18.4476 5.66269 18.3775 5.8953 18.0835 5.8953L10.8257 5.8953C10.5335 5.8953 10.4714 5.66269 10.6552 5.40429ZM14.4546 9.38964C13.8151 9.38964 13.3356 8.90566 13.3356 8.26718C13.3356 7.62948 13.8151 7.1455 14.4546 7.1455C15.0878 7.1455 15.5753 7.62948 15.5753 8.26718C15.5753 8.90566 15.0878 9.38964 14.4546 9.38964ZM10.0089 9.21894C9.92627 8.95429 10.0284 8.8664 10.261 8.8957C11.8073 9.07851 12.9753 10.4027 12.9272 11.9961C12.9272 12.2314 12.8003 12.3353 12.5667 12.2119C11.2815 11.6436 10.3597 10.5564 10.0089 9.21894ZM18.9181 9.21894C18.5575 10.5564 17.6294 11.6436 16.3425 12.2119C16.1106 12.3353 15.9917 12.2314 15.9837 11.9961C15.9437 10.4107 17.1019 9.07851 18.6419 8.8957C18.8808 8.85839 18.9829 8.95429 18.9181 9.21894Z" fill="white" fill-opacity="0.85"/>
 </g>
</svg>
