<?xml version="1.0" encoding="UTF-8"?>
<!--Generator: Apple Native CoreSVG 341-->
<!DOCTYPE svg
PUBLIC "-//W3C//DTD SVG 1.1//EN"
       "http://www.w3.org/Graphics/SVG/1.1/DTD/svg11.dtd">
<svg version="1.1" xmlns="http://www.w3.org/2000/svg" xmlns:xlink="http://www.w3.org/1999/xlink" viewBox="0 0 25.6373 24.8933">
 <g>
  <rect height="24.8933" opacity="0" width="25.6373" x="0" y="0"/>
  <path d="M22.4405 10.0786C21.9971 9.93418 21.5234 9.85701 21.0314 9.85701C18.4595 9.85701 16.4113 11.9265 16.4113 14.4593C16.4113 14.8414 16.4556 15.2125 16.5411 15.5674C15.6066 16.5693 15.0509 17.9223 15.0887 19.3832C15.0967 19.8619 15.4564 20.1676 15.9424 19.926C16.8658 19.5084 17.6864 18.9404 18.3748 18.2526C18.3791 18.2562 18.3838 18.2594 18.3885 18.2627L18.3885 20.7279C16.7603 21.8662 14.7784 22.531 12.642 22.531C7.07362 22.531 2.55448 18.0119 2.55448 12.4435C2.55448 6.87517 7.07362 2.35603 12.642 2.35603C17.396 2.35603 21.3844 5.64792 22.4405 10.0786ZM4.78709 14.6318C5.41482 16.9779 7.06834 18.9031 9.32205 19.926C9.816 20.1676 10.1678 19.8619 10.1758 19.3832C10.2478 16.5859 8.14842 14.198 5.424 13.8634C4.93377 13.7968 4.62361 14.0545 4.78709 14.6318ZM10.5469 12.8974C10.5469 14.0627 11.4705 14.9908 12.6322 14.9908C13.7859 14.9908 14.7176 14.0627 14.7176 12.8974C14.7176 11.7535 13.7859 10.8236 12.6322 10.8236C11.4705 10.8236 10.5469 11.7535 10.5469 12.8974ZM5.92615 7.84216C5.5363 8.37673 5.72908 8.97009 6.349 8.97009L18.9057 8.97009C19.5353 8.97009 19.7201 8.37673 19.3303 7.83239C17.8849 5.67888 15.4154 4.27458 12.6224 4.27458C9.82947 4.27458 7.35994 5.67888 5.92615 7.84216Z" fill="white" fill-opacity="0.85"/>
  <path d="M21.0314 11.2765C19.2429 11.2765 17.8308 12.7082 17.8308 14.4593C17.8308 15.7963 18.6068 16.9369 19.808 17.4365L19.808 22.1904C19.808 22.3269 19.8736 22.4447 19.9773 22.5529L20.8142 23.3802C20.9383 23.4955 21.1172 23.5088 21.2607 23.3732L22.8099 21.832C22.9445 21.6992 22.9357 21.5 22.8082 21.3689L21.9134 20.4672L23.1677 19.2334C23.297 19.1023 23.2988 18.9093 23.1517 18.749L21.9363 17.5416C23.3927 16.9088 24.2177 15.808 24.2177 14.4593C24.2177 12.7082 22.7959 11.2765 21.0314 11.2765ZM21.0234 12.5601C21.5375 12.5601 21.9574 12.9881 21.9574 13.5039C21.9574 14.0322 21.5375 14.4601 21.0234 14.4601C20.5031 14.4601 20.0752 14.0322 20.0752 13.5039C20.0752 12.9881 20.4951 12.5601 21.0234 12.5601Z" fill="white" fill-opacity="0.85"/>
 </g>
</svg>
