<?xml version="1.0" encoding="UTF-8"?>
<!--Generator: Apple Native CoreSVG 341-->
<!DOCTYPE svg
PUBLIC "-//W3C//DTD SVG 1.1//EN"
       "http://www.w3.org/Graphics/SVG/1.1/DTD/svg11.dtd">
<svg version="1.1" xmlns="http://www.w3.org/2000/svg" xmlns:xlink="http://www.w3.org/1999/xlink" viewBox="0 0 29.0762 20.1812">
 <g>
  <rect height="20.1812" opacity="0" width="29.0762" x="0" y="0"/>
  <path d="M18.9869 20.175C24.557 20.175 29.0762 15.6559 29.0762 10.0875C29.0762 4.51914 24.557 0 18.9869 0C13.4105 0 8.89941 4.51914 8.89941 10.0875C8.89941 15.6559 13.4105 20.175 18.9869 20.175ZM12.2631 5.48613C13.6969 3.32284 16.1664 1.91854 18.9674 1.91854C21.7603 1.91854 24.2299 3.32284 25.6752 5.47636C26.057 6.0207 25.8803 6.61406 25.2426 6.61406L12.6922 6.61406C12.066 6.61406 11.8812 6.0207 12.2631 5.48613ZM18.9691 12.6348C17.8154 12.6348 16.8838 11.7066 16.8838 10.5414C16.8838 9.39745 17.8154 8.46757 18.9691 8.46757C20.1228 8.46757 21.0527 9.39745 21.0527 10.5414C21.0527 11.7066 20.1228 12.6348 18.9691 12.6348ZM11.124 12.2758C10.9685 11.6984 11.2707 11.4408 11.7609 11.5074C14.4933 11.842 16.5928 14.2299 16.5127 17.0271C16.5127 17.5059 16.1529 17.8115 15.659 17.5699C13.4053 16.5471 11.7517 14.6219 11.124 12.2758ZM26.8223 12.2758C26.1945 14.6219 24.541 16.5471 22.2873 17.5699C21.7934 17.8115 21.4336 17.5059 21.4336 17.0271C21.3535 14.2379 23.4449 11.842 26.1871 11.5074C26.6756 11.4408 26.9812 11.6984 26.8223 12.2758Z" fill="white" fill-opacity="0.85"/>
  <path d="M0.477147 9.53262C0.0427741 9.78613 0.0232428 10.3934 0.477147 10.6584L5.37188 13.5435C5.84707 13.8264 6.40117 13.5906 6.40117 13.0793L6.40117 7.09394C6.40117 6.59238 5.82656 6.36289 5.37188 6.63144Z" fill="white" fill-opacity="0.85"/>
 </g>
</svg>
