<?xml version="1.0" encoding="UTF-8"?>
<!--Generator: Apple Native CoreSVG 341-->
<!DOCTYPE svg
PUBLIC "-//W3C//DTD SVG 1.1//EN"
       "http://www.w3.org/Graphics/SVG/1.1/DTD/svg11.dtd">
<svg version="1.1" xmlns="http://www.w3.org/2000/svg" xmlns:xlink="http://www.w3.org/1999/xlink" viewBox="0 0 20.5381 20.1848">
 <g>
  <rect height="20.1848" opacity="0" width="20.5381" x="0" y="0"/>
  <path d="M20.1767 10.0875C20.1767 15.6478 15.6576 20.175 10.0875 20.175C4.52715 20.175 0 15.6478 0 10.0875C0 4.51914 4.52715 0 10.0875 0C15.6576 0 20.1767 4.51914 20.1767 10.0875ZM4.08612 10.0893C4.08612 13.4047 6.77382 16.0906 10.0875 16.0906C13.4109 16.0906 16.0906 13.4047 16.0906 10.0893C16.0906 6.76757 13.4109 4.08788 10.0875 4.08788C6.77382 4.08788 4.08612 6.76757 4.08612 10.0893ZM6.03202 10.874C7.58026 11.0578 8.75995 12.4018 8.71191 13.9758C8.71191 14.2494 8.49511 14.4174 8.22499 14.2814C6.95565 13.7086 6.02655 12.632 5.68104 11.3121C5.58866 10.9852 5.76464 10.835 6.03202 10.874ZM14.4877 11.3121C14.1404 12.632 13.2131 13.7086 11.9482 14.2814C11.6701 14.4174 11.4533 14.2494 11.4533 13.9758C11.4133 12.4098 12.5867 11.0578 14.1332 10.874C14.4006 10.835 14.5748 10.9852 14.4877 11.3121ZM11.284 10.3416C11.284 11.0096 10.7475 11.5381 10.091 11.5381C9.43105 11.5381 8.90253 11.0096 8.90253 10.3416C8.90253 9.67538 9.43105 9.15488 10.091 9.15488C10.7475 9.15488 11.284 9.67538 11.284 10.3416ZM13.8447 7.50234C14.0508 7.79902 13.9602 8.13398 13.6004 8.13398L6.56483 8.13398C6.20682 8.13398 6.10643 7.79902 6.31249 7.50234C7.13397 6.2996 8.50898 5.49823 10.0777 5.49823C11.6562 5.49823 13.0313 6.2996 13.8447 7.50234Z" fill="white" fill-opacity="0.85"/>
 </g>
</svg>
