<?xml version="1.0" encoding="UTF-8"?>
<!--Generator: Apple Native CoreSVG 341-->
<!DOCTYPE svg
PUBLIC "-//W3C//DTD SVG 1.1//EN"
       "http://www.w3.org/Graphics/SVG/1.1/DTD/svg11.dtd">
<svg version="1.1" xmlns="http://www.w3.org/2000/svg" xmlns:xlink="http://www.w3.org/1999/xlink" viewBox="0 0 28.303 25.4408">
 <g>
  <rect height="25.4408" opacity="0" width="28.303" x="0" y="0"/>
  <path d="M13.974 22.8048C19.5441 22.8048 24.0632 18.2856 24.0632 12.7173C24.0632 7.14893 19.5441 2.62979 13.974 2.62979C8.4056 2.62979 3.88646 7.14893 3.88646 12.7173C3.88646 18.2856 8.4056 22.8048 13.974 22.8048ZM7.25012 8.11592C8.68391 5.95263 11.1534 4.54833 13.9544 4.54833C16.7474 4.54833 19.2187 5.95263 20.6622 8.10615C21.0441 8.65049 20.8673 9.24385 20.2296 9.24385L7.68098 9.24385C7.05481 9.24385 6.86829 8.65049 7.25012 8.11592ZM13.9562 15.2646C12.8025 15.2646 11.8726 14.3364 11.8726 13.1712C11.8726 12.0272 12.8025 11.0974 13.9562 11.0974C15.1099 11.0974 16.0415 12.0272 16.0415 13.1712C16.0415 14.3364 15.1099 15.2646 13.9562 15.2646ZM6.11106 14.9056C5.95559 14.3282 6.26575 14.0706 6.75774 14.1372C9.4804 14.4718 11.5798 16.8597 11.4997 19.6569C11.4997 20.1356 11.14 20.4413 10.654 20.1997C8.39231 19.1769 6.7468 17.2517 6.11106 14.9056ZM21.8093 14.9056C21.1816 17.2517 19.5281 19.1769 17.2744 20.1997C16.7804 20.4413 16.4286 20.1356 16.4206 19.6569C16.3486 16.8677 18.44 14.4718 21.1742 14.1372C21.6626 14.0706 21.9683 14.3282 21.8093 14.9056Z" fill="white" fill-opacity="0.85"/>
  <path d="M3.77611 6.70655L0.876308 5.06885C0.410685 4.8001-0.0326725 5.02979 0.00189756 5.63467L0.205999 8.61338C0.230803 9.11982 0.626309 9.33974 1.08041 9.10029L3.72904 7.74678C4.27982 7.45674 4.23998 6.97529 3.77611 6.70655ZM8.25033 0.46768C8.0392 0.0303772 7.53099-0.139935 7.06088 0.128814C4.42358 1.58623 2.26557 3.86221 0.973968 6.60244C0.479828 7.66435 2.05775 8.28252 2.50756 7.32002C3.6306 4.90713 5.50384 2.89014 7.8556 1.6083C8.28314 1.3626 8.45521 0.902249 8.25033 0.46768ZM24.1656 6.70655C23.7079 6.97529 23.6618 7.45674 24.2126 7.74678L26.8613 9.10029C27.3234 9.33974 27.7109 9.11982 27.7437 8.61338L27.938 5.63467C27.9823 5.02979 27.531 4.8001 27.0734 5.06885ZM19.6993 0.46768C19.4865 0.902249 19.6585 1.3626 20.0861 1.6083C22.4378 2.89014 24.3191 4.90713 25.4341 7.32002C25.8839 8.28252 27.4698 7.66435 26.9677 6.60244C25.6761 3.86221 23.5163 1.58623 20.8808 0.128814C20.4089-0.139935 19.9025 0.0303772 19.6993 0.46768Z" fill="white" fill-opacity="0.85"/>
 </g>
</svg>
