<?xml version="1.0" encoding="UTF-8"?>
<!--Generator: Apple Native CoreSVG 341-->
<!DOCTYPE svg
PUBLIC "-//W3C//DTD SVG 1.1//EN"
       "http://www.w3.org/Graphics/SVG/1.1/DTD/svg11.dtd">
<svg version="1.1" xmlns="http://www.w3.org/2000/svg" xmlns:xlink="http://www.w3.org/1999/xlink" viewBox="0 0 22.301 21.9477">
 <g>
  <rect height="21.9477" opacity="0" width="22.301" x="0" y="0"/>
  <path d="M10.9689 21.9379C16.9984 21.9379 21.9396 16.9984 21.9396 10.9689C21.9396 4.93945 16.9984 0 10.9689 0C4.93945 0 0 4.93945 0 10.9689C0 16.9984 4.93945 21.9379 10.9689 21.9379ZM10.9689 18.2242C6.96133 18.2242 3.71367 14.9766 3.71367 10.9689C3.71367 6.95332 6.96133 3.71367 10.9689 3.71367C14.9846 3.71367 18.226 6.95332 18.226 10.9689C18.226 14.9766 14.9846 18.2242 10.9689 18.2242Z" fill="white" fill-opacity="0.85"/>
  <path d="M7.9125 15.2537L13.5709 15.2537C13.9148 15.2537 14.1773 15.0303 14.1773 14.6943C14.1773 14.3559 13.9025 14.127 13.5709 14.127L9.32284 14.127L9.32284 14.0844C10.0504 13.7791 10.3818 12.9432 10.3818 12.1287C10.3818 11.8396 10.3658 11.5924 10.3098 11.3754L12.6998 11.3754C12.9615 11.3754 13.1559 11.1943 13.1559 10.9539C13.1559 10.7232 12.9615 10.5422 12.6998 10.5422L10.0949 10.5422C9.9705 10.0303 9.92968 9.74511 9.92968 9.4164C9.92968 8.35663 10.7476 7.77284 11.9184 7.77284C12.3191 7.77284 12.643 7.81815 12.8881 7.87948C13.0533 7.91503 13.2158 7.94882 13.3436 7.94882C13.6504 7.94882 13.8428 7.77773 13.8428 7.47792C13.8428 7.14746 13.5912 6.96836 13.2812 6.87519C12.7855 6.69297 12.3959 6.6539 11.7467 6.6539C9.90332 6.6539 8.55566 7.62305 8.55566 9.36836C8.55566 9.73769 8.61152 10.099 8.73945 10.5422L7.75351 10.5422C7.49004 10.5422 7.29746 10.7215 7.29746 10.9539C7.29746 11.1961 7.49004 11.3754 7.75351 11.3754L8.95254 11.3754C9.02012 11.6635 9.06817 11.924 9.06817 12.1783C9.06817 13.041 8.63535 13.7115 7.83203 14.0373C7.54804 14.1596 7.33535 14.3555 7.33535 14.6801C7.33535 15.024 7.5791 15.2537 7.9125 15.2537Z" fill="white" fill-opacity="0.85"/>
 </g>
</svg>
