<?xml version="1.0" encoding="UTF-8"?>
<!--Generator: Apple Native CoreSVG 341-->
<!DOCTYPE svg
PUBLIC "-//W3C//DTD SVG 1.1//EN"
       "http://www.w3.org/Graphics/SVG/1.1/DTD/svg11.dtd">
<svg version="1.1" xmlns="http://www.w3.org/2000/svg" xmlns:xlink="http://www.w3.org/1999/xlink" viewBox="0 0 20.5381 20.1848">
 <g>
  <rect height="20.1848" opacity="0" width="20.5381" x="0" y="0"/>
  <path d="M20.1767 10.0875C20.1767 15.6559 15.6576 20.175 10.0875 20.175C4.52715 20.175 0 15.6559 0 10.0875C0 4.52715 4.52715 0 10.0875 0C15.6576 0 20.1767 4.52715 20.1767 10.0875ZM7.58476 8.42402C7.58476 8.80664 7.64062 9.17949 7.77832 9.64394L6.7498 9.64394C6.47304 9.64394 6.27871 9.82675 6.27871 10.0805C6.27871 10.3342 6.47304 10.509 6.7498 10.509L7.99492 10.509C8.07051 10.8068 8.11855 11.0834 8.11855 11.3377C8.11855 12.2412 7.6582 12.9268 6.84335 13.2658C6.54433 13.3996 6.31836 13.6088 6.31836 13.9404C6.31836 14.3012 6.57714 14.5424 6.92382 14.5424L12.7967 14.5424C13.1574 14.5424 13.4332 14.3057 13.4332 13.9547C13.4332 13.5977 13.1451 13.3652 12.7967 13.3652L8.39432 13.3652L8.39432 13.3307C9.15468 12.9961 9.49765 12.1354 9.49765 11.2881C9.49765 10.9973 9.47362 10.7322 9.42382 10.509L11.8963 10.509C12.173 10.509 12.3771 10.3324 12.3771 10.0805C12.3771 9.83027 12.173 9.64394 11.8963 9.64394L9.18944 9.64394C9.05702 9.11425 9.02421 8.81933 9.02421 8.47734C9.02421 7.37499 9.87323 6.76991 11.09 6.76991C11.5006 6.76991 11.8394 6.833 12.0943 6.88632C12.2613 6.92186 12.4353 6.95741 12.5648 6.95741C12.8867 6.95741 13.0906 6.77304 13.0906 6.45995C13.0906 6.11718 12.824 5.92832 12.5053 5.83339C11.9883 5.64941 11.5853 5.60234 10.9051 5.60234C8.98906 5.60234 7.58476 6.61406 7.58476 8.42402Z" fill="white" fill-opacity="0.85"/>
 </g>
</svg>
