<?xml version="1.0" encoding="UTF-8"?>
<!--Generator: Apple Native CoreSVG 341-->
<!DOCTYPE svg
PUBLIC "-//W3C//DTD SVG 1.1//EN"
       "http://www.w3.org/Graphics/SVG/1.1/DTD/svg11.dtd">
<svg version="1.1" xmlns="http://www.w3.org/2000/svg" xmlns:xlink="http://www.w3.org/1999/xlink" viewBox="0 0 14.0346 17.3945">
 <g>
  <rect height="17.3945" opacity="0" width="14.0346" x="0" y="0"/>
  <path d="M1.23241 17.3701L12.6574 17.3701C13.2715 17.3701 13.7553 16.9873 13.7553 16.3522C13.7553 15.7 13.2562 15.3154 12.6574 15.3154L3.72263 15.3154L3.72263 15.241C5.23631 14.6713 5.99783 12.9393 5.99783 11.202C5.99783 10.55 5.90799 10.0137 5.78611 9.51738L10.7863 9.51738C11.275 9.51738 11.6449 9.19277 11.6449 8.71641C11.6449 8.2418 11.275 7.92696 10.7863 7.92696L5.37693 7.92696C5.19471 7.26387 5.01443 6.47324 5.01443 5.5207C5.01443 3.23886 6.79139 2.06307 9.16932 2.06307C9.94296 2.06307 10.7295 2.1662 11.3363 2.35292C11.6096 2.416 11.8639 2.45682 12.0986 2.45682C12.6457 2.45682 13.0185 2.15878 13.0185 1.58105C13.0185 1.06386 12.6971 0.772262 12.2312 0.540037C11.1963 0.078125 9.9869 0 8.87948 0C5.29433 0 2.51523 1.86211 2.51523 5.47188C2.51523 6.22246 2.65742 6.95079 2.91035 7.92696L0.860348 7.92696C0.371678 7.92696 0 8.2418 0 8.71641C0 9.21055 0.387694 9.51738 0.860348 9.51738L3.29375 9.51738C3.50723 10.2617 3.5793 10.7943 3.5793 11.3029C3.5793 13.0492 2.65156 14.5647 0.932804 15.1326C0.419134 15.3486 0.00722349 15.6986 0.00722349 16.3334C0.00722349 16.9811 0.498236 17.3701 1.23241 17.3701Z" fill="white" fill-opacity="0.85"/>
 </g>
</svg>
