<?xml version="1.0" encoding="UTF-8"?>
<!--Generator: Apple Native CoreSVG 341-->
<!DOCTYPE svg
PUBLIC "-//W3C//DTD SVG 1.1//EN"
       "http://www.w3.org/Graphics/SVG/1.1/DTD/svg11.dtd">
<svg version="1.1" xmlns="http://www.w3.org/2000/svg" xmlns:xlink="http://www.w3.org/1999/xlink" viewBox="0 0 24.2049 19.7961">
 <g>
  <rect height="19.7961" opacity="0" width="24.2049" x="0" y="0"/>
  <path d="M23.8435 11.8701C23.8435 5.64747 19.073 0.538875 12.9941 0.00293831C12.6553-0.029874 12.3998 0.215828 12.3998 0.554694L12.3998 3.8043C12.3998 4.08907 12.6012 4.30645 12.8842 4.33301C16.6191 4.80957 19.517 8.00293 19.517 11.8701C19.517 13.6332 18.9115 15.2613 17.8488 16.61C17.6945 16.8023 17.7025 17.0471 17.8719 17.2244L20.2322 19.5785C20.4646 19.8144 20.823 19.8109 21.0359 19.559C22.7926 17.4783 23.8435 14.7949 23.8435 11.8701Z" fill="white" fill-opacity="0.85"/>
  <path d="M0 11.8701C0 14.8029 1.05098 17.4863 2.80586 19.5652C3.01875 19.8172 3.36914 19.8109 3.61132 19.5768L5.96992 17.2227C6.13925 17.0453 6.14726 16.8006 5.99296 16.6082C4.92578 15.2613 4.32656 13.6332 4.32656 11.8701C4.32656 8.00293 7.22617 4.80957 10.9594 4.33301C11.2441 4.30645 11.4437 4.08907 11.4437 3.8043L11.4437 0.554694C11.4437 0.215828 11.1883-0.029874 10.8494 0.00293831C4.77226 0.538875 0 5.64747 0 11.8701Z" fill="white" fill-opacity="0.85"/>
  <path d="M8.85331 16.2459L14.5197 16.2459C14.8637 16.2459 15.1182 16.0145 15.1182 15.6785C15.1182 15.3418 14.8514 15.1111 14.5197 15.1111L10.2619 15.1111L10.2619 15.0766C10.9912 14.7651 11.3226 13.9274 11.3226 13.1129C11.3226 12.8336 11.3066 12.5846 11.2506 12.3693L13.6486 12.3693C13.9103 12.3693 14.1047 12.1865 14.1047 11.9479C14.1047 11.7074 13.9023 11.5264 13.6486 11.5264L11.0357 11.5264C10.9113 11.0145 10.8705 10.7293 10.8705 10.4006C10.8705 9.34082 11.6867 8.75703 12.8592 8.75703C13.2582 8.75703 13.5838 8.81211 13.8271 8.86367C13.9924 8.90722 14.1566 8.93301 14.2924 8.93301C14.5992 8.93301 14.7836 8.76191 14.7836 8.46211C14.7836 8.13965 14.54 7.96055 14.2301 7.85938C13.7264 7.68516 13.3367 7.63809 12.6875 7.63809C10.8424 7.63809 9.49648 8.61524 9.49648 10.3525C9.49648 10.7219 9.55058 11.0912 9.68027 11.5264L8.69433 11.5264C8.43085 11.5264 8.23828 11.7057 8.23828 11.9479C8.23828 12.1883 8.43085 12.3693 8.69433 12.3693L9.89336 12.3693C9.96718 12.6477 10.009 12.9162 10.009 13.1625C10.009 14.0332 9.57617 14.6975 8.77284 15.0215C8.48886 15.1455 8.27617 15.3477 8.27617 15.6643C8.27617 16.0082 8.51991 16.2459 8.85331 16.2459Z" fill="white" fill-opacity="0.85"/>
 </g>
</svg>
