<?xml version="1.0" encoding="UTF-8"?>
<!--Generator: Apple Native CoreSVG 341-->
<!DOCTYPE svg
PUBLIC "-//W3C//DTD SVG 1.1//EN"
       "http://www.w3.org/Graphics/SVG/1.1/DTD/svg11.dtd">
<svg version="1.1" xmlns="http://www.w3.org/2000/svg" xmlns:xlink="http://www.w3.org/1999/xlink" viewBox="0 0 22.7515 21.4965">
 <g>
  <rect height="21.4965" opacity="0" width="22.7515" x="0" y="0"/>
  <path d="M1.44999 18.9656L20.9947 18.9656L20.9947 18.2322C20.9947 17.8064 20.7437 17.551 20.3117 17.551L19.7447 17.551L19.7447 6.98046L20.5865 6.98046C21.1851 6.98046 21.5363 6.53886 21.5363 6.09277C21.5363 5.7664 21.351 5.47734 20.9545 5.24941L12.481 0.359374C12.0764 0.125976 11.6398 0 11.2183 0C10.7969 0 10.3523 0.125976 9.96366 0.359374L1.49023 5.24941C1.08574 5.47734 0.908396 5.7664 0.908396 6.09277C0.908396 6.53886 1.25957 6.98046 1.85995 6.98046L2.69999 6.98046L2.69999 17.551L2.14101 17.551C1.70898 17.551 1.44999 17.8064 1.44999 18.2322ZM4.32401 17.551L4.32401 5.67245L10.8779 1.99999C10.9846 1.93866 11.1072 1.90487 11.2183 1.90487C11.333 1.90487 11.4521 1.93866 11.5668 1.99999L18.1207 5.67245L18.1207 17.551ZM0.881441 21.4867L21.499 21.4867C21.9797 21.4867 22.3902 21.0849 22.3902 20.5972C22.3902 20.1148 21.9797 19.7158 21.499 19.7158L0.881441 19.7158C0.399022 19.7158 0 20.1148 0 20.5972C0 21.0832 0.399022 21.4867 0.881441 21.4867Z" fill="white" fill-opacity="0.85"/>
  <path d="M8.16991 14.8685L13.8301 14.8685C14.174 14.8685 14.4348 14.6371 14.4348 14.3012C14.4348 13.9644 14.1617 13.7338 13.8301 13.7338L9.58025 13.7338L9.58025 13.6992C10.3078 13.3877 10.641 12.55 10.641 11.7355C10.641 11.4562 10.617 11.2072 10.5672 10.992L12.959 10.992C13.2207 10.992 13.415 10.8092 13.415 10.5705C13.415 10.3301 13.2207 10.149 12.959 10.149L10.3443 10.149C10.2199 9.6371 10.1871 9.35194 10.1871 9.02323C10.1871 7.96346 11.0051 7.37967 12.1775 7.37967C12.5765 7.37967 12.9004 7.43475 13.1455 7.48631C13.3107 7.52186 13.475 7.55565 13.601 7.55565C13.9078 7.55565 14.1002 7.38455 14.1002 7.08475C14.1002 6.76229 13.8486 6.58319 13.5404 6.48202C13.043 6.3078 12.6551 6.26073 12.0041 6.26073C10.1607 6.26073 8.80507 7.23788 8.80507 8.97518C8.80507 9.34452 8.86893 9.70585 8.99686 10.149L8.01268 10.149C7.74745 10.149 7.55663 10.3283 7.55663 10.5705C7.55663 10.8109 7.74745 10.992 8.01268 10.992L9.20995 10.992C9.27753 11.2703 9.31757 11.5389 9.31757 11.7851C9.31757 12.6559 8.88651 13.3201 8.0912 13.6441C7.80545 13.7682 7.59276 13.9703 7.59276 14.2869C7.59276 14.6308 7.83651 14.8685 8.16991 14.8685Z" fill="white" fill-opacity="0.85"/>
 </g>
</svg>
