<?xml version="1.0" encoding="UTF-8"?>
<!--Generator: Apple Native CoreSVG 341-->
<!DOCTYPE svg
PUBLIC "-//W3C//DTD SVG 1.1//EN"
       "http://www.w3.org/Graphics/SVG/1.1/DTD/svg11.dtd">
<svg version="1.1" xmlns="http://www.w3.org/2000/svg" xmlns:xlink="http://www.w3.org/1999/xlink" viewBox="0 0 20.5381 20.1848">
 <g>
  <rect height="20.1848" opacity="0" width="20.5381" x="0" y="0"/>
  <path d="M20.1767 10.0973C20.1767 15.6656 15.6576 20.1848 10.0875 20.1848C4.52715 20.1848 0 15.6656 0 10.0973C0 4.53691 4.52715 0.00976562 10.0875 0.00976562C15.6576 0.00976562 20.1767 4.53691 20.1767 10.0973ZM7.67851 5.98573C7.67851 6.47831 8.07441 6.89374 8.583 6.89374C8.83964 6.89374 9.07851 6.77558 9.23652 6.59257L9.33163 6.59257C9.67285 6.59257 9.83808 6.7703 9.83808 7.16054C9.83808 8.7416 8.37831 10.9297 7.33027 10.9297C6.27597 10.9297 4.82597 8.74335 4.82597 7.16054C4.82597 6.76229 4.98319 6.59257 5.3244 6.59257L5.41151 6.59257C5.56952 6.77558 5.80839 6.89374 6.08105 6.89374C6.57187 6.89374 6.97753 6.47831 6.97753 5.98573C6.97753 5.48866 6.56835 5.07948 6.08105 5.07948C5.80839 5.07948 5.56151 5.20741 5.40351 5.40019L5.35819 5.40019C4.24511 5.40019 3.6371 6.02421 3.6371 7.16054C3.6371 9.16113 5.23886 11.5969 6.74023 12.0396C6.8414 14.3037 7.74257 15.5789 9.30507 15.5789C10.8301 15.5789 11.685 14.4787 12.0785 12.0447C12.3238 10.5781 12.6578 10.0195 13.2494 10.0195C13.8135 10.0195 14.1457 10.5517 14.2461 11.7451C13.6369 11.9883 13.2035 12.5867 13.2035 13.2855C13.2035 14.2248 13.9412 14.9723 14.877 14.9723C15.818 14.9723 16.5717 14.2186 16.5717 13.2855C16.5717 12.5557 16.0797 11.9217 15.4137 11.7043C15.2041 9.77109 14.525 8.84218 13.2582 8.84218C11.9764 8.84218 11.2779 9.72284 10.9109 11.7797C10.5937 13.6367 10.1994 14.39 9.28359 14.39C8.48066 14.39 7.9912 13.5656 7.91933 12.0396C9.42245 11.6014 11.0252 9.17714 11.0252 7.16054C11.0252 6.02421 10.4252 5.40019 9.29784 5.40019L9.25253 5.40019C9.09452 5.20741 8.84765 5.07948 8.583 5.07948C8.07968 5.07948 7.67851 5.48866 7.67851 5.98573ZM15.5078 13.2855C15.5078 13.6268 15.2199 13.9129 14.8787 13.9129C14.5393 13.9129 14.2691 13.6268 14.2691 13.2855C14.2691 12.9461 14.5393 12.668 14.8787 12.668C15.2279 12.668 15.5078 12.9461 15.5078 13.2855Z" fill="white" fill-opacity="0.85"/>
 </g>
</svg>
