<?xml version="1.0" encoding="UTF-8"?>
<!--Generator: Apple Native CoreSVG 341-->
<!DOCTYPE svg
PUBLIC "-//W3C//DTD SVG 1.1//EN"
       "http://www.w3.org/Graphics/SVG/1.1/DTD/svg11.dtd">
<svg version="1.1" xmlns="http://www.w3.org/2000/svg" xmlns:xlink="http://www.w3.org/1999/xlink" viewBox="0 0 27.3234 21.8137">
 <g>
  <rect height="21.8137" opacity="0" width="27.3234" x="0" y="0"/>
  <path d="M3.98906 1.97616C3.98906 2.33169 4.10753 2.66133 4.30831 2.92635L3.99921 2.92635C3.09823 2.92635 2.6328 3.46659 2.6328 4.44687C2.6328 7.53378 5.5662 12.6568 8.21054 12.6568C10.8531 12.6568 13.7945 7.53378 13.7945 4.44687C13.7945 3.46659 13.3291 2.92635 12.4201 2.92635L12.103 2.92635C12.3038 2.66133 12.4222 2.33169 12.4222 1.97616C12.4222 1.63291 12.3118 1.31378 12.1236 1.05351L12.3525 1.05351C14.5379 1.05351 15.6674 2.22558 15.6674 4.4664C15.6674 8.32729 12.3669 13.7288 9.14398 14.4426C9.26695 17.9803 10.383 19.9408 12.3223 19.9408C14.5726 19.9408 15.4049 17.932 16.0543 14.1873C16.7881 9.97069 18.1738 8.28105 20.6744 8.28105C23.2214 8.28105 24.5556 10.1878 24.9201 14.2187C24.6619 14.1465 24.3897 14.1095 24.1092 14.1082C23.7438 14.1066 23.3925 14.1664 23.0664 14.2809C22.8772 11.446 22.0901 10.1521 20.6551 10.1521C19.289 10.1521 18.4596 11.239 17.8873 14.6514C17.1074 19.4381 15.5064 21.8137 12.383 21.8137C9.23093 21.8137 7.42246 19.207 7.27158 14.4391C4.05235 13.7156 0.759961 8.32259 0.759961 4.4664C0.759961 2.22558 1.88945 1.05351 4.06679 1.05351L4.28768 1.05351C4.09949 1.31378 3.98906 1.63291 3.98906 1.97616Z" fill="white" fill-opacity="0.85"/>
  <path d="M5.5832 3.5703C6.45077 3.5703 7.16932 2.85175 7.16932 1.97616C7.16932 1.10058 6.45077 0.382029 5.5832 0.382029C4.70761 0.382029 3.98906 1.10058 3.98906 1.97616C3.98906 2.85175 4.70761 3.5703 5.5832 3.5703ZM10.8281 3.5703C11.7037 3.5703 12.4222 2.85175 12.4222 1.97616C12.4222 1.10058 11.7037 0.382029 10.8281 0.382029C9.96054 0.382029 9.24199 1.10058 9.24199 1.97616C9.24199 2.85175 9.96054 3.5703 10.8281 3.5703ZM24.1092 20.5465C25.8805 20.5465 27.3234 19.1098 27.3234 17.3225C27.3234 15.5512 25.8805 14.1162 24.1092 14.1082C22.3299 14.1002 20.8869 15.5512 20.8869 17.3225C20.8869 19.1098 22.3299 20.5465 24.1092 20.5465ZM24.1109 18.8812C23.2515 18.8812 22.5441 18.1801 22.5441 17.3207C22.5441 16.4533 23.2515 15.7637 24.1109 15.7637C24.9703 15.7637 25.6697 16.4533 25.6697 17.3207C25.6697 18.1801 24.9703 18.8812 24.1109 18.8812Z" fill="white" fill-opacity="0.85"/>
 </g>
</svg>
