<?xml version="1.0" encoding="UTF-8"?>
<!--Generator: Apple Native CoreSVG 341-->
<!DOCTYPE svg
PUBLIC "-//W3C//DTD SVG 1.1//EN"
       "http://www.w3.org/Graphics/SVG/1.1/DTD/svg11.dtd">
<svg version="1.1" xmlns="http://www.w3.org/2000/svg" xmlns:xlink="http://www.w3.org/1999/xlink" viewBox="0 0 16.5842 16.2371">
 <g>
  <rect height="16.2371" opacity="0" width="16.5842" x="0" y="0"/>
  <path d="M0 13.9391C0 15.3685 0.87656 16.2291 2.33867 16.2291L13.8842 16.2291C15.3543 16.2291 16.2228 15.3685 16.2228 13.9391L16.2228 2.29003C16.2228 0.860544 15.3543 0 13.8842 0L2.33867 0C0.87656 0 0 0.860544 0 2.29003ZM1.91327 13.3939L1.91327 2.8369C1.91327 2.25174 2.2578 1.89745 2.83495 1.89745L13.4178 1.89745C14.0029 1.89745 14.3395 2.25174 14.3395 2.8369L14.3395 13.3939C14.3395 13.9791 14.0029 14.3334 13.4178 14.3334L2.83495 14.3334C2.2578 14.3334 1.91327 13.9791 1.91327 13.3939Z" fill="white" fill-opacity="0.85"/>
 </g>
</svg>
