<?xml version="1.0" encoding="UTF-8"?>
<!--Generator: Apple Native CoreSVG 341-->
<!DOCTYPE svg
PUBLIC "-//W3C//DTD SVG 1.1//EN"
       "http://www.w3.org/Graphics/SVG/1.1/DTD/svg11.dtd">
<svg version="1.1" xmlns="http://www.w3.org/2000/svg" xmlns:xlink="http://www.w3.org/1999/xlink" viewBox="0 0 20.5381 20.1848">
 <g>
  <rect height="20.1848" opacity="0" width="20.5381" x="0" y="0"/>
  <path d="M20.1767 10.0875C20.1767 15.6478 15.6576 20.175 10.0875 20.175C4.52715 20.175 0 15.6478 0 10.0875C0 4.51914 4.52715 0 10.0875 0C15.6576 0 20.1767 4.51914 20.1767 10.0875ZM7.45058 6.40078C6.80273 6.40078 6.40078 6.77968 6.40078 7.41523L6.40078 12.7598C6.40078 13.3873 6.80273 13.7725 7.45058 13.7725L12.7227 13.7725C13.3803 13.7725 13.7742 13.3873 13.7742 12.7598L13.7742 7.41523C13.7742 6.77968 13.3803 6.40078 12.7227 6.40078Z" fill="white" fill-opacity="0.85"/>
 </g>
</svg>
