<?xml version="1.0" encoding="UTF-8"?>
<!--Generator: Apple Native CoreSVG 341-->
<!DOCTYPE svg
PUBLIC "-//W3C//DTD SVG 1.1//EN"
       "http://www.w3.org/Graphics/SVG/1.1/DTD/svg11.dtd">
<svg version="1.1" xmlns="http://www.w3.org/2000/svg" xmlns:xlink="http://www.w3.org/1999/xlink" viewBox="0 0 22.2613 21.8715">
 <g>
  <rect height="21.8715" opacity="0" width="22.2613" x="0" y="0"/>
  <path d="M3.63671 21.8537L18.3514 21.8537C19.8375 21.8537 20.698 21.0012 20.698 19.5619L20.698 11.7701C20.1033 12.0853 19.4002 12.2816 18.6562 12.2816C17.6869 12.2816 16.8099 11.9629 16.1053 11.439C15.3926 11.9629 14.5139 12.2816 13.5445 12.2816C12.5832 12.2816 11.6965 11.9629 10.9918 11.4453C10.2934 11.9629 9.40839 12.2816 8.4453 12.2816C7.47597 12.2816 6.59902 11.9629 5.88632 11.4373C5.17988 11.9629 4.30117 12.2816 3.33183 12.2816C2.58964 12.2816 1.89277 12.1094 1.28203 11.8181L1.28203 19.5619C1.28203 21.0012 2.15058 21.8537 3.63671 21.8537ZM4.78475 20.1039L4.78475 15.0664C4.78475 14.6119 5.091 14.3154 5.54725 14.3154L9.39921 14.3154C9.85546 14.3154 10.1519 14.6119 10.1519 15.0664L10.1519 20.1039ZM13.0605 17.9744C12.6043 17.9744 12.298 17.6779 12.298 17.2217L12.298 14.531C12.298 14.0748 12.6043 13.7783 13.0605 13.7783L17.0113 13.7783C17.4676 13.7783 17.764 14.0748 17.764 14.531L17.764 17.2217C17.764 17.6779 17.4676 17.9744 17.0113 17.9744ZM2.46269 2.33808L19.4293 2.33808L19.4293 2.14687C19.4293 0.822263 18.5937 0 17.2496 0L4.65214 0C3.30624 0 2.46269 0.822263 2.46269 2.14687ZM0.173827 7.17011L21.7181 7.17011C21.6773 7.10273 21.6428 7.02109 21.5984 6.9457L19.6748 3.39784L2.21894 3.39784L0.293553 6.9457C0.249218 7.02109 0.214648 7.10273 0.173827 7.17011ZM3.29179 11.2219C4.34101 11.2219 5.25703 10.7433 5.84628 9.97811C6.42402 10.7433 7.3498 11.2219 8.39726 11.2219C9.45448 11.2219 10.3723 10.7353 10.9517 9.97811C11.5312 10.7353 12.4473 11.2219 13.5045 11.2219C14.5617 11.2219 15.4777 10.7433 16.0652 9.97987C16.643 10.7433 17.5607 11.2219 18.6082 11.2219C20.44 11.2219 21.9 9.7744 21.9 8.38105L21.9 8.22811L0 8.22811L0 8.54472C0 9.93807 1.46972 11.2219 3.29179 11.2219Z" fill="white" fill-opacity="0.85"/>
 </g>
</svg>
