<?xml version="1.0" encoding="UTF-8"?>
<!--Generator: Apple Native CoreSVG 341-->
<!DOCTYPE svg
PUBLIC "-//W3C//DTD SVG 1.1//EN"
       "http://www.w3.org/Graphics/SVG/1.1/DTD/svg11.dtd">
<svg version="1.1" xmlns="http://www.w3.org/2000/svg" xmlns:xlink="http://www.w3.org/1999/xlink" viewBox="0 0 20.5381 20.1848">
 <g>
  <rect height="20.1848" opacity="0" width="20.5381" x="0" y="0"/>
  <path d="M20.1767 10.0875C20.1767 15.6478 15.6576 20.175 10.0875 20.175C4.52715 20.175 0 15.6478 0 10.0875C0 4.51914 4.52715 0 10.0875 0C15.6576 0 20.1767 4.51914 20.1767 10.0875ZM11.3883 10.7664C10.9008 10.7664 10.4391 10.5976 10.0795 10.325C9.71992 10.5976 9.25996 10.7664 8.77421 10.7664C8.26542 10.7664 7.81699 10.5976 7.46191 10.325C7.09433 10.5976 6.64589 10.7664 6.14511 10.7664C5.76679 10.7664 5.40624 10.6723 5.09276 10.5293L5.09276 14.523C5.09276 15.2527 5.54276 15.6867 6.29101 15.6867L13.868 15.6867C14.618 15.6867 15.06 15.2527 15.06 14.523L15.06 10.5053C14.7607 10.6562 14.3922 10.7664 14.0139 10.7664C13.5148 10.7664 13.0664 10.5976 12.7068 10.325C12.3393 10.5976 11.8855 10.7664 11.3883 10.7664ZM11.9728 12.1267L11.9728 14.6402L8.18261 14.6402L8.18261 12.1267C8.18261 11.8976 8.33534 11.7449 8.57773 11.7449L11.599 11.7449C11.8281 11.7449 11.9728 11.8976 11.9728 12.1267ZM4.44218 8.5205L4.44218 8.6957C4.44218 9.39315 5.19062 10.0455 6.12109 10.0455C6.66542 10.0455 7.13691 9.79862 7.43788 9.40077C7.72284 9.79862 8.19784 10.0455 8.75019 10.0455C9.29277 10.0455 9.75273 9.79862 10.0555 9.40077C10.36 9.79862 10.8119 10.0455 11.3643 10.0455C11.9166 10.0455 12.3801 9.79862 12.6748 9.40429C12.974 9.79862 13.4455 10.0455 13.9898 10.0455C14.9221 10.0455 15.6687 9.31132 15.6687 8.61386L15.6687 8.5205ZM7.15722 4.48026C6.65585 4.48026 6.22636 4.73319 5.98769 5.16269L4.52558 7.82538L15.5773 7.82538L14.117 5.16269C13.8766 4.73319 13.4471 4.48026 12.9555 4.48026Z" fill="white" fill-opacity="0.85"/>
 </g>
</svg>
