<?xml version="1.0" encoding="UTF-8"?>
<!--Generator: Apple Native CoreSVG 341-->
<!DOCTYPE svg
PUBLIC "-//W3C//DTD SVG 1.1//EN"
       "http://www.w3.org/Graphics/SVG/1.1/DTD/svg11.dtd">
<svg version="1.1" xmlns="http://www.w3.org/2000/svg" xmlns:xlink="http://www.w3.org/1999/xlink" viewBox="0 0 21.8086 21.4777">
 <g>
  <rect height="21.4777" opacity="0" width="21.8086" x="0" y="0"/>
  <path d="M11.242 6.65429L20.4105 6.65429C19.993 3.44746 17.2633 0.0435549 12.6142 0.0435549C11.8088 0.0435549 11.242 0.631639 11.242 1.46738ZM8.87831 14.3041L15.1017 14.3041C19.0881 14.3041 20.2266 11.8205 20.4258 9.46678L20.6599 9.46678C21.0971 9.46678 21.4472 9.10858 21.4472 8.66972C21.4472 8.23261 21.0971 7.88242 20.6599 7.88242L3.29882 7.88242C2.86172 7.88242 2.51152 8.23261 2.51152 8.66972C2.51152 9.10858 2.86172 9.46678 3.29882 9.46678L3.56835 9.46678L3.94082 10.9607C4.43808 13.0127 6.05937 14.3041 8.87831 14.3041ZM6.7252 8.54375L9.09784 8.54375L3.83144 3.2791C3.58573 3.03516 3.31347 2.9252 2.97636 2.9252L0.839644 2.9252C0.381248 2.9252 0 3.30645 0 3.76484C0 4.22324 0.381248 4.61249 0.839644 4.61249L2.7957 4.61249ZM6.73203 16.5678L7.92265 17.7623L11.7457 13.9393L10.4977 12.7986ZM16.031 17.8541L17.2519 16.6881L13.5119 12.9543L12.166 13.9891ZM8.0705 19.3732L15.8465 19.3732L15.8465 17.89L8.0705 17.89ZM5.96386 21.4777C7.54472 21.4777 8.7953 20.2271 8.7953 18.6365C8.7953 17.0557 7.54472 15.8051 5.96386 15.8051C4.37324 15.8051 3.13066 17.0557 3.13066 18.6365C3.13066 20.2271 4.37324 21.4777 5.96386 21.4777ZM5.96386 20.1035C5.15136 20.1035 4.50487 19.457 4.50487 18.6365C4.50487 17.8178 5.15136 17.1793 5.96386 17.1793C6.78261 17.1793 7.42109 17.8178 7.42109 18.6365C7.42109 19.457 6.78261 20.1035 5.96386 20.1035ZM17.8918 21.3141C19.3668 21.3141 20.5596 20.1213 20.5596 18.6365C20.5596 17.1615 19.3668 15.9687 17.8918 15.9687C16.407 15.9687 15.2143 17.1615 15.2143 18.6365C15.2143 20.1213 16.4168 21.3141 17.8918 21.3141ZM17.8918 20.1035C17.0793 20.1035 16.4248 19.457 16.4248 18.6365C16.4248 17.8178 17.0793 17.1793 17.8918 17.1793C18.7105 17.1793 19.349 17.8178 19.349 18.6365C19.349 19.457 18.7105 20.1035 17.8918 20.1035Z" fill="white" fill-opacity="0.85"/>
 </g>
</svg>
