<?xml version="1.0" encoding="UTF-8"?>
<!--Generator: Apple Native CoreSVG 341-->
<!DOCTYPE svg
PUBLIC "-//W3C//DTD SVG 1.1//EN"
       "http://www.w3.org/Graphics/SVG/1.1/DTD/svg11.dtd">
<svg version="1.1" xmlns="http://www.w3.org/2000/svg" xmlns:xlink="http://www.w3.org/1999/xlink" viewBox="0 0 16.268 26.8285">
 <g>
  <rect height="26.8285" opacity="0" width="16.268" x="0" y="0"/>
  <path d="M2.89316 24.9959L13.0135 24.9959C14.7152 24.9959 15.9066 23.7974 15.9066 22.0922L15.9066 8.31425C15.9066 6.60097 14.7152 5.41054 13.0135 5.41054L2.89316 5.41054C1.19316 5.41054 0 6.60097 0 8.31425L0 22.0922C0 23.7974 1.19316 24.9959 2.89316 24.9959ZM2.94785 23.2268C2.24999 23.2268 1.77089 22.7236 1.77089 22.0017L1.77089 8.39668C1.77089 7.6748 2.24999 7.18144 2.94785 7.18144L12.9588 7.18144C13.6566 7.18144 14.1357 7.6748 14.1357 8.39668L14.1357 22.0017C14.1357 22.7236 13.6566 23.2268 12.9588 23.2268ZM0.850191 20.8744L15.0822 20.8744L15.0822 19.1035L0.850191 19.1035ZM3.47929 6.49492L5.2496 6.49492L5.2496 2.39941C5.2496 1.92714 5.57557 1.63495 6.07987 1.63495L9.91035 1.63495C10.3666 1.63495 10.6605 1.9289 10.6605 2.39941L10.6605 6.47891L12.4291 6.47891L12.4291 2.32578C12.4291 0.880468 11.5303 0 10.0437 0L5.94296 0C4.40664 0 3.47929 0.880468 3.47929 2.32578ZM3.46308 26.4674L4.08612 26.4674C4.62226 26.4674 4.97636 26.1185 4.97636 25.5869L4.97636 23.9531L2.57284 23.9531L2.57284 25.5869C2.57284 26.1185 2.92695 26.4674 3.46308 26.4674ZM11.8223 26.4674L12.4435 26.4674C12.9717 26.4674 13.3338 26.1185 13.3338 25.5869L13.3338 23.9531L10.9303 23.9531L10.9303 25.5869C10.9303 26.1185 11.2844 26.4674 11.8223 26.4674Z" fill="white" fill-opacity="0.85"/>
 </g>
</svg>
