<?xml version="1.0" encoding="UTF-8"?>
<!--Generator: Apple Native CoreSVG 341-->
<!DOCTYPE svg
PUBLIC "-//W3C//DTD SVG 1.1//EN"
       "http://www.w3.org/Graphics/SVG/1.1/DTD/svg11.dtd">
<svg version="1.1" xmlns="http://www.w3.org/2000/svg" xmlns:xlink="http://www.w3.org/1999/xlink" viewBox="0 0 20.5381 20.1848">
 <g>
  <rect height="20.1848" opacity="0" width="20.5381" x="0" y="0"/>
  <path d="M10.0875 20.175C15.6576 20.175 20.1767 15.6559 20.1767 10.0875C20.1767 4.51914 15.6576 0 10.0875 0C4.51914 0 0 4.51914 0 10.0875C0 15.6559 4.51914 20.175 10.0875 20.175ZM10.0875 18.1879C5.60839 18.1879 1.9871 14.5666 1.9871 10.0875C1.9871 5.60839 5.60839 1.9871 10.0875 1.9871C14.5666 1.9871 18.1897 5.60839 18.1897 10.0875C18.1897 14.5666 14.5666 18.1879 10.0875 18.1879Z" fill="white" fill-opacity="0.85"/>
  <path d="M5.4664 12.5113L6.92109 12.5113L6.92109 10.96C6.92109 9.90449 7.59921 9.24414 8.65292 9.24414L8.99335 9.24414C9.16386 8.49921 9.76933 8.0998 10.5406 8.0998L11.917 8.0998C11.9961 8.0998 12.0877 8.0998 12.157 8.11582L12.1553 7.95136C12.1394 7.24609 11.6447 6.75136 10.9369 6.75136L10.7045 6.75136L10.7045 5.47597C10.7045 4.84843 10.3246 4.47733 9.67949 4.47733L7.97949 4.47733C7.3246 4.47733 6.92246 4.84843 6.92246 5.47597L6.92246 6.75136L6.68828 6.75136C5.9539 6.75136 5.4664 7.25839 5.4664 7.98652ZM7.71191 6.75136L7.71191 5.4996C7.71191 5.32557 7.83183 5.21991 8.03339 5.21991L9.62734 5.21991C9.81113 5.21991 9.9248 5.32557 9.9248 5.4996L9.9248 6.75136ZM6.68828 15.0232L7.20956 15.0268C7.02851 14.748 6.92109 14.4027 6.92109 14.0068L6.92109 13.3152L5.4664 13.3152L5.4664 13.7818C5.4664 14.518 5.9539 15.0232 6.68828 15.0232ZM8.65292 15.0152L8.81386 15.0152L8.81386 9.94628L8.65292 9.94628C7.97734 9.94628 7.62499 10.2986 7.62499 10.96L7.62499 14.0068C7.62499 14.6727 7.97734 15.0152 8.65292 15.0152ZM9.46698 15.0152L13.132 15.0152L13.132 9.94628L12.9781 9.94628L12.9781 9.69609C12.9781 9.09316 12.6443 8.80195 12.0531 8.80195L10.5406 8.80195C9.9832 8.80195 9.62265 9.09316 9.62265 9.69609L9.62265 9.94628L9.46698 9.94628ZM10.2588 9.95683L10.2588 9.70292C10.2588 9.5039 10.3689 9.40976 10.5715 9.40976L12.0355 9.40976C12.2363 9.40976 12.3385 9.5039 12.3385 9.70292L12.3385 9.95683ZM13.7816 15.0152L13.9488 15.0152C14.6182 15.0152 14.9705 14.6727 14.9705 14.0068L14.9705 10.96C14.9705 10.2986 14.6182 9.94628 13.9488 9.94628L13.7816 9.94628Z" fill="white" fill-opacity="0.85"/>
 </g>
</svg>
