<?xml version="1.0" encoding="UTF-8"?>
<!--Generator: Apple Native CoreSVG 341-->
<!DOCTYPE svg
PUBLIC "-//W3C//DTD SVG 1.1//EN"
       "http://www.w3.org/Graphics/SVG/1.1/DTD/svg11.dtd">
<svg version="1.1" xmlns="http://www.w3.org/2000/svg" xmlns:xlink="http://www.w3.org/1999/xlink" viewBox="0 0 23.9261 26.7867">
 <g>
  <rect height="26.7867" opacity="0" width="23.9261" x="0" y="0"/>
  <path d="M4.72342 23.833C4.72342 24.3708 4.84458 24.8614 5.06439 25.2815C4.94641 25.3377 4.8078 25.3676 4.65351 25.3676L4.10859 25.3676C3.5955 25.3676 3.2582 25.04 3.2582 24.5269L3.2582 23.9785L3.04648 23.9625C1.7998 23.725 0.937304 22.7674 0.937304 21.3775L0.937304 20.3613L4.72342 20.3613ZM12.2057 3.5916L12.2057 6.33086L12.6906 6.33086C14.2486 6.33086 15.3326 7.41035 15.3326 8.97187L15.3326 11.0303L7.6949 11.0303C5.95936 11.0303 4.72342 12.2822 4.72342 13.9857L4.72342 18.6299L0.937304 18.6299L0.937304 8.97187C0.937304 7.41035 2.0293 6.33086 3.58906 6.33086L4.07578 6.33086L4.07578 3.5916C4.07578 2.26777 4.92773 1.45293 6.32929 1.45293L10.0225 1.45293C11.3822 1.45293 12.2057 2.26777 12.2057 3.5916ZM6.46093 3.01816C6.01971 3.01816 5.75507 3.26679 5.75507 3.67421L5.75507 6.33086L10.5264 6.33086L10.5264 3.67421C10.5264 3.26855 10.2857 3.01816 9.89433 3.01816Z" fill="white" fill-opacity="0.85"/>
  <path d="M7.6949 25.4076L20.9467 25.4076C21.9199 25.4076 22.539 24.7902 22.539 23.833L22.539 13.9857C22.539 13.0428 21.9199 12.4094 20.9467 12.4094L7.6949 12.4094C6.72166 12.4094 6.10252 13.0428 6.10252 13.9857L6.10252 23.833C6.10252 24.7902 6.72166 25.4076 7.6949 25.4076ZM7.68416 15.0656C7.5199 15.0656 7.40896 14.9484 7.40896 14.8082L7.40896 14.1027C7.40896 13.9269 7.5199 13.8115 7.70018 13.8115L8.4953 13.8115C8.65506 13.8115 8.75623 13.9189 8.75623 14.0867L8.75623 14.8082C8.75623 14.9564 8.65506 15.0656 8.4953 15.0656ZM7.68416 17.3047C7.5199 17.3047 7.40896 17.1875 7.40896 17.0615L7.40896 16.3418C7.40896 16.1838 7.5199 16.0666 7.68416 16.0666L8.4953 16.0666C8.65506 16.0666 8.75623 16.1838 8.75623 16.3418L8.75623 17.0615C8.75623 17.1955 8.65506 17.3047 8.4953 17.3047ZM7.68416 19.5355C7.5199 19.5355 7.40896 19.4086 7.40896 19.2603L7.40896 18.5709C7.40896 18.3986 7.5199 18.2797 7.68416 18.2797L8.4953 18.2797C8.65506 18.2797 8.75623 18.3906 8.75623 18.5709L8.75623 19.2603C8.75623 19.4166 8.65506 19.5355 8.4953 19.5355ZM7.68416 21.7486C7.5199 21.7486 7.40896 21.6314 7.40896 21.4957L7.40896 20.7857C7.40896 20.6277 7.5199 20.5185 7.68416 20.5185L8.4953 20.5185C8.65506 20.5185 8.75623 20.6277 8.75623 20.7857L8.75623 21.4957C8.75623 21.6394 8.65506 21.7486 8.4953 21.7486ZM7.70018 24.0037C7.5199 24.0037 7.40896 23.8785 7.40896 23.7205L7.40896 23.023C7.40896 22.8588 7.5199 22.7576 7.68416 22.7576L8.4953 22.7576C8.65506 22.7576 8.75623 22.8588 8.75623 23.023L8.75623 23.7445C8.75623 23.8963 8.65506 24.0037 8.4953 24.0037ZM10.2324 18.2008C10.0568 18.2008 9.94783 18.1096 9.94783 17.9162L9.94783 14.0961C9.94783 13.9205 10.0648 13.8115 10.2324 13.8115L18.3871 13.8115C18.5627 13.8115 18.6699 13.9205 18.6699 14.0961L18.6699 17.9162C18.6699 18.1096 18.5707 18.2008 18.3871 18.2008ZM10.2324 24.0037C10.0648 24.0037 9.94783 23.8947 9.94783 23.7191L9.94783 19.915C9.94783 19.7314 10.0568 19.6287 10.2324 19.6287L18.3871 19.6287C18.5627 19.6287 18.6699 19.7314 18.6699 19.915L18.6699 23.7191C18.6699 23.8947 18.5627 24.0037 18.3871 24.0037ZM20.1305 15.0656C19.9805 15.0656 19.8695 14.9484 19.8695 14.8082L19.8695 14.0867C19.8695 13.9189 19.9805 13.8115 20.1305 13.8115L20.9256 13.8115C21.0996 13.8115 21.2105 13.9269 21.2105 14.1027L21.2105 14.8082C21.2105 14.9564 21.1076 15.0656 20.9416 15.0656ZM20.1305 17.3047C19.9805 17.3047 19.8695 17.1875 19.8695 17.0615L19.8695 16.3418C19.8695 16.1838 19.9805 16.0666 20.1305 16.0666L20.9416 16.0666C21.1076 16.0666 21.2105 16.1838 21.2105 16.3418L21.2105 17.0615C21.2105 17.1955 21.1076 17.3047 20.9416 17.3047ZM20.1305 19.5355C19.9805 19.5355 19.8695 19.4086 19.8695 19.2603L19.8695 18.5709C19.8695 18.3986 19.9805 18.2797 20.1305 18.2797L20.9416 18.2797C21.1076 18.2797 21.2105 18.3906 21.2105 18.5709L21.2105 19.2603C21.2105 19.4166 21.1076 19.5355 20.9416 19.5355ZM20.1305 21.7486C19.9805 21.7486 19.8695 21.6314 19.8695 21.4957L19.8695 20.7857C19.8695 20.6277 19.9805 20.5185 20.1305 20.5185L20.9416 20.5185C21.1076 20.5185 21.2105 20.6277 21.2105 20.7857L21.2105 21.4957C21.2105 21.6394 21.1076 21.7486 20.9416 21.7486ZM20.1305 24.0037C19.9805 24.0037 19.8695 23.8865 19.8695 23.7445L19.8695 23.023C19.8695 22.8588 19.9805 22.7576 20.1305 22.7576L20.9416 22.7576C21.1076 22.7576 21.2105 22.8588 21.2105 23.023L21.2105 23.7205C21.2105 23.8883 21.0996 24.0037 20.9256 24.0037Z" fill="white" fill-opacity="0.85"/>
 </g>
</svg>
