<?xml version="1.0" encoding="UTF-8"?>
<!--Generator: Apple Native CoreSVG 341-->
<!DOCTYPE svg
PUBLIC "-//W3C//DTD SVG 1.1//EN"
       "http://www.w3.org/Graphics/SVG/1.1/DTD/svg11.dtd">
<svg version="1.1" xmlns="http://www.w3.org/2000/svg" xmlns:xlink="http://www.w3.org/1999/xlink" viewBox="0 0 20.5381 20.1848">
 <g>
  <rect height="20.1848" opacity="0" width="20.5381" x="0" y="0"/>
  <path d="M10.0875 20.175C15.6576 20.175 20.1767 15.6559 20.1767 10.0875C20.1767 4.51914 15.6576 0 10.0875 0C4.51914 0 0 4.51914 0 10.0875C0 15.6559 4.51914 20.175 10.0875 20.175ZM10.0875 18.1879C5.60839 18.1879 1.9871 14.5666 1.9871 10.0875C1.9871 5.60839 5.60839 1.9871 10.0875 1.9871C14.5666 1.9871 18.1897 5.60839 18.1897 10.0875C18.1897 14.5666 14.5666 18.1879 10.0875 18.1879Z" fill="white" fill-opacity="0.85"/>
  <path d="M7.55859 7.09628L8.49472 7.09628L8.49472 6.36171C8.49472 6.02675 8.68046 5.85526 9.01542 5.85526L11.1516 5.85526C11.4785 5.85526 11.6643 6.02675 11.6643 6.36171L11.6643 7.08827L12.6021 7.08827L12.6021 6.24042C12.6021 5.35234 12.1129 4.92968 11.2393 4.92968L8.91972 4.92968C8.08613 4.92968 7.55859 5.35234 7.55859 6.24042ZM6.31718 14.1916L6.31718 6.68573L6.0869 6.68573C5.0996 6.68573 4.60077 7.17655 4.60077 8.15585L4.60077 12.7152C4.60077 13.6865 5.0996 14.1916 6.0869 14.1916ZM7.15605 14.1916L13.0127 14.1916L13.0127 6.68573L7.15605 6.68573ZM13.8418 14.1916L14.0738 14.1916C15.0691 14.1916 15.5582 13.6865 15.5582 12.7152L15.5582 8.15585C15.5582 7.17655 15.0691 6.68573 14.0738 6.68573L13.8418 6.68573Z" fill="white" fill-opacity="0.85"/>
 </g>
</svg>
