<?xml version="1.0" encoding="UTF-8"?>
<!--Generator: Apple Native CoreSVG 341-->
<!DOCTYPE svg
PUBLIC "-//W3C//DTD SVG 1.1//EN"
       "http://www.w3.org/Graphics/SVG/1.1/DTD/svg11.dtd">
<svg version="1.1" xmlns="http://www.w3.org/2000/svg" xmlns:xlink="http://www.w3.org/1999/xlink" viewBox="0 0 21.9613 24.0285">
 <g>
  <rect height="24.0285" opacity="0" width="21.9613" x="0" y="0"/>
  <path d="M11.2666 2.2125L11.2666 4.95176L11.7533 4.95176C13.3113 4.95176 14.3953 6.03125 14.3953 7.59277L14.3953 11.0303L12.7182 11.0303L12.7182 7.68144C12.7182 7.05292 12.3066 6.62714 11.7039 6.62714L2.6914 6.62714C2.09668 6.62714 1.67714 7.05292 1.67714 7.68144L1.67714 17.2748L5.16522 17.2748L5.16522 18.9502L1.67714 18.9502L1.67714 19.9195C1.67714 20.548 2.09668 20.9738 2.6914 20.9738L5.16522 20.9738L5.16522 22.4539C5.16522 22.5208 5.16824 22.5861 5.17492 22.6492L4.56659 22.6492L4.56659 23.1478C4.56659 23.6609 4.22577 23.9885 3.7162 23.9885L3.16327 23.9885C2.65019 23.9885 2.31288 23.6609 2.31288 23.1478L2.31288 22.6309C0.933064 22.4905 0 21.4546 0 19.9984L0 7.59277C0 6.03125 1.08398 4.95176 2.64199 4.95176L3.13847 4.95176L3.13847 2.2125C3.13847 0.888672 3.98242 0.0738287 5.39023 0.0738287L9.08339 0.0738287C10.4432 0.0738287 11.2666 0.888672 11.2666 2.2125ZM5.51386 1.63105C5.0744 1.63105 4.80975 1.87968 4.80975 2.2871L4.80975 4.95176L9.59531 4.95176L9.59531 2.2871C9.59531 1.88144 9.35644 1.63105 8.95703 1.63105Z" fill="white" fill-opacity="0.85"/>
  <path d="M6.7576 24.0285L20.0094 24.0285C20.9746 24.0285 21.6 23.4111 21.6 22.4539L21.6 12.6066C21.6 11.6637 20.9746 11.0303 20.0094 11.0303L6.7576 11.0303C5.7826 11.0303 5.16522 11.6637 5.16522 12.6066L5.16522 22.4539C5.16522 23.4111 5.7826 24.0285 6.7576 24.0285ZM6.74686 13.6865C6.58084 13.6865 6.47166 13.5693 6.47166 13.4291L6.47166 12.7236C6.47166 12.5478 6.58084 12.4324 6.76287 12.4324L7.55799 12.4324C7.71776 12.4324 7.81893 12.5398 7.81893 12.7076L7.81893 13.4291C7.81893 13.5773 7.71776 13.6865 7.55799 13.6865ZM6.74686 15.9256C6.58084 15.9256 6.47166 15.8084 6.47166 15.6824L6.47166 14.9627C6.47166 14.8047 6.57283 14.6875 6.74686 14.6875L7.55799 14.6875C7.71776 14.6875 7.81893 14.8047 7.81893 14.9627L7.81893 15.6824C7.81893 15.8164 7.71776 15.9256 7.55799 15.9256ZM6.74686 18.1564C6.58084 18.1564 6.47166 18.0295 6.47166 17.8812L6.47166 17.1918C6.47166 17.0195 6.57283 16.9006 6.74686 16.9006L7.55799 16.9006C7.71776 16.9006 7.81893 17.0115 7.81893 17.1918L7.81893 17.8812C7.81893 18.0375 7.71776 18.1564 7.55799 18.1564ZM6.74686 20.3695C6.58084 20.3695 6.47166 20.2523 6.47166 20.1166L6.47166 19.4066C6.47166 19.2486 6.57283 19.1394 6.74686 19.1394L7.55799 19.1394C7.71776 19.1394 7.81893 19.2486 7.81893 19.4066L7.81893 20.1166C7.81893 20.2603 7.71776 20.3695 7.55799 20.3695ZM6.76287 22.6246C6.58084 22.6246 6.47166 22.4994 6.47166 22.3414L6.47166 21.6439C6.47166 21.4797 6.58084 21.3785 6.74686 21.3785L7.55799 21.3785C7.71776 21.3785 7.81893 21.4797 7.81893 21.6439L7.81893 22.3654C7.81893 22.5172 7.71776 22.6246 7.55799 22.6246ZM9.2951 16.8217C9.11951 16.8217 9.01053 16.7305 9.01053 16.5371L9.01053 12.717C9.01053 12.5414 9.12752 12.4324 9.2951 12.4324L17.44 12.4324C17.6156 12.4324 17.7326 12.5414 17.7326 12.717L17.7326 16.5371C17.7326 16.7305 17.6254 16.8217 17.44 16.8217ZM9.2951 22.6246C9.12752 22.6246 9.01053 22.5156 9.01053 22.34L9.01053 18.5359C9.01053 18.3523 9.11951 18.2496 9.2951 18.2496L17.44 18.2496C17.6156 18.2496 17.7326 18.3523 17.7326 18.5359L17.7326 22.34C17.7326 22.5156 17.6156 22.6246 17.44 22.6246ZM19.1914 13.6865C19.0431 13.6865 18.9322 13.5693 18.9322 13.4291L18.9322 12.7076C18.9322 12.5398 19.0431 12.4324 19.1914 12.4324L19.9883 12.4324C20.1623 12.4324 20.2715 12.5478 20.2715 12.7236L20.2715 13.4291C20.2715 13.5773 20.1623 13.6865 20.0043 13.6865ZM19.1914 15.9256C19.0431 15.9256 18.9322 15.8084 18.9322 15.6824L18.9322 14.9627C18.9322 14.8047 19.0431 14.6875 19.1914 14.6875L20.0043 14.6875C20.1703 14.6875 20.2715 14.8047 20.2715 14.9627L20.2715 15.6824C20.2715 15.8164 20.1703 15.9256 20.0043 15.9256ZM19.1914 18.1564C19.0431 18.1564 18.9322 18.0295 18.9322 17.8812L18.9322 17.1918C18.9322 17.0195 19.0431 16.9006 19.1914 16.9006L20.0043 16.9006C20.1703 16.9006 20.2715 17.0115 20.2715 17.1918L20.2715 17.8812C20.2715 18.0375 20.1623 18.1564 20.0043 18.1564ZM19.1914 20.3695C19.0431 20.3695 18.9322 20.2523 18.9322 20.1166L18.9322 19.4066C18.9322 19.2486 19.0431 19.1394 19.1914 19.1394L20.0043 19.1394C20.1703 19.1394 20.2715 19.2486 20.2715 19.4066L20.2715 20.1166C20.2715 20.2603 20.1703 20.3695 20.0043 20.3695ZM19.1914 22.6246C19.0431 22.6246 18.9322 22.5074 18.9322 22.3654L18.9322 21.6439C18.9322 21.4797 19.0431 21.3785 19.1914 21.3785L20.0043 21.3785C20.1703 21.3785 20.2715 21.4797 20.2715 21.6439L20.2715 22.3414C20.2715 22.5092 20.1623 22.6246 19.9883 22.6246Z" fill="white" fill-opacity="0.85"/>
 </g>
</svg>
