<?xml version="1.0" encoding="UTF-8"?>
<!--Generator: Apple Native CoreSVG 341-->
<!DOCTYPE svg
PUBLIC "-//W3C//DTD SVG 1.1//EN"
       "http://www.w3.org/Graphics/SVG/1.1/DTD/svg11.dtd">
<svg version="1.1" xmlns="http://www.w3.org/2000/svg" xmlns:xlink="http://www.w3.org/1999/xlink" viewBox="0 0 20.5381 20.1848">
 <g>
  <rect height="20.1848" opacity="0" width="20.5381" x="0" y="0"/>
  <path d="M20.1767 10.0875C20.1767 15.6478 15.6576 20.175 10.0875 20.175C4.52715 20.175 0 15.6478 0 10.0875C0 4.51914 4.52715 0 10.0875 0C15.6576 0 20.1767 4.51914 20.1767 10.0875ZM4.68867 13.4105L4.68867 13.9135C4.68867 14.6984 5.22324 15.2508 6.01445 15.2508L6.69413 15.2508C6.56991 15.0191 6.50429 14.7449 6.50429 14.4396L6.50429 13.4105ZM8.09569 8.6832C7.59335 8.6832 7.2828 9.008 7.2828 9.48808L7.2828 14.4396C7.2828 14.9322 7.59335 15.2508 8.09569 15.2508L14.709 15.2508C15.2148 15.2508 15.5236 14.9322 15.5236 14.4396L15.5236 9.48808C15.5236 9.008 15.2148 8.6832 14.709 8.6832ZM8.5789 14.0328L8.5789 14.398C8.5789 14.4682 8.53808 14.5152 8.45819 14.5152L8.04765 14.5152C7.96327 14.5152 7.90468 14.4682 7.90468 14.39L7.90468 14.0328C7.90468 13.9564 7.96327 13.9094 8.03964 13.9094L8.45819 13.9094C8.53007 13.9094 8.5789 13.9564 8.5789 14.0328ZM14.8387 14.0328L14.8387 14.39C14.8387 14.4682 14.7943 14.5152 14.702 14.5152L14.2896 14.5152C14.2213 14.5152 14.1805 14.4682 14.1805 14.398L14.1805 14.0328C14.1805 13.9564 14.2293 13.9094 14.2896 13.9094L14.71 13.9094C14.7943 13.9094 14.8387 13.9564 14.8387 14.0328ZM13.5484 12.4758L13.5484 14.3822C13.5484 14.4709 13.4971 14.5152 13.4057 14.5152L9.40077 14.5152C9.30136 14.5152 9.258 14.4709 9.258 14.3822L9.258 12.4758C9.258 12.3809 9.30136 12.341 9.40077 12.341L13.4057 12.341C13.4971 12.341 13.5484 12.3809 13.5484 12.4758ZM8.5789 12.9041L8.5789 13.2756C8.5789 13.3377 8.53007 13.3865 8.45819 13.3865L8.03964 13.3865C7.96327 13.3865 7.90468 13.3297 7.90468 13.2756L7.90468 12.9041C7.90468 12.826 7.96327 12.7771 8.03964 12.7771L8.45819 12.7771C8.53808 12.7771 8.5789 12.826 8.5789 12.9041ZM14.8387 12.9041L14.8387 13.2756C14.8387 13.3377 14.7943 13.3865 14.71 13.3865L14.2896 13.3865C14.2293 13.3865 14.1805 13.3297 14.1805 13.2756L14.1805 12.9041C14.1805 12.826 14.2213 12.7771 14.2896 12.7771L14.71 12.7771C14.7943 12.7771 14.8387 12.826 14.8387 12.9041ZM7.40058 3.91659C6.6791 3.91659 6.26191 4.32851 6.26191 4.99511L6.26191 6.35839L6.01445 6.35839C5.22324 6.35839 4.68867 6.91425 4.68867 7.69121L4.68867 12.5463L6.50429 12.5463L6.50429 9.48808C6.50429 8.60058 7.14413 7.95273 8.04765 7.95273L11.8959 7.95273L11.8959 7.69121C11.8959 6.91425 11.3551 6.35839 10.5701 6.35839L10.3324 6.35839L10.3324 4.99511C10.3324 4.32851 9.91347 3.91659 9.22578 3.91659ZM8.5789 11.7844L8.5789 12.1478C8.5789 12.226 8.53007 12.2748 8.45819 12.2748L8.03964 12.2748C7.96327 12.2748 7.90468 12.218 7.90468 12.1478L7.90468 11.7844C7.90468 11.708 7.96327 11.6672 8.03964 11.6672L8.45819 11.6672C8.53007 11.6672 8.5789 11.708 8.5789 11.7844ZM14.8387 11.7844L14.8387 12.1478C14.8387 12.226 14.7943 12.2748 14.71 12.2748L14.2896 12.2748C14.2293 12.2748 14.1805 12.218 14.1805 12.1478L14.1805 11.7844C14.1805 11.708 14.2293 11.6672 14.2896 11.6672L14.71 11.6672C14.7943 11.6672 14.8387 11.708 14.8387 11.7844ZM13.5484 9.54374L13.5484 11.4662C13.5484 11.5611 13.4971 11.601 13.4057 11.601L9.40077 11.601C9.30136 11.601 9.258 11.5611 9.258 11.4662L9.258 9.54374C9.258 9.46308 9.30936 9.41699 9.40077 9.41699L13.4057 9.41699C13.4971 9.41699 13.5484 9.46308 13.5484 9.54374ZM8.5789 10.6744L8.5789 11.0441C8.5789 11.108 8.53007 11.1568 8.45819 11.1568L8.03964 11.1568C7.96327 11.1568 7.90468 11.108 7.90468 11.0441L7.90468 10.6744C7.90468 10.5963 7.96327 10.5439 8.03964 10.5439L8.45819 10.5439C8.53007 10.5439 8.5789 10.6043 8.5789 10.6744ZM14.8387 10.6744L14.8387 11.0441C14.8387 11.108 14.7943 11.1568 14.71 11.1568L14.2896 11.1568C14.2293 11.1568 14.1805 11.108 14.1805 11.0441L14.1805 10.6744C14.1805 10.6043 14.2293 10.5439 14.2896 10.5439L14.71 10.5439C14.7943 10.5439 14.8387 10.5963 14.8387 10.6744ZM8.5789 9.54042L8.5789 9.91718C8.5789 9.98554 8.53007 10.0406 8.45819 10.0406L8.03964 10.0406C7.96327 10.0406 7.90468 9.97578 7.90468 9.91718L7.90468 9.54843C7.90468 9.45781 7.96327 9.41699 8.04765 9.41699L8.45819 9.41699C8.53007 9.41699 8.5789 9.45781 8.5789 9.54042ZM14.8387 9.54843L14.8387 9.91718C14.8387 9.98554 14.7943 10.0406 14.71 10.0406L14.2896 10.0406C14.2293 10.0406 14.1805 9.97578 14.1805 9.91718L14.1805 9.54042C14.1805 9.45781 14.2293 9.41699 14.2896 9.41699L14.702 9.41699C14.7943 9.41699 14.8387 9.46581 14.8387 9.54843ZM9.4791 5.02226L9.4791 6.35839L7.11698 6.35839L7.11698 5.02226C7.11698 4.8287 7.23691 4.72304 7.458 4.72304L9.16386 4.72304C9.35742 4.72304 9.4791 4.8287 9.4791 5.02226Z" fill="white" fill-opacity="0.85"/>
 </g>
</svg>
