<?xml version="1.0" encoding="UTF-8"?>
<!--Generator: Apple Native CoreSVG 341-->
<!DOCTYPE svg
PUBLIC "-//W3C//DTD SVG 1.1//EN"
       "http://www.w3.org/Graphics/SVG/1.1/DTD/svg11.dtd">
<svg version="1.1" xmlns="http://www.w3.org/2000/svg" xmlns:xlink="http://www.w3.org/1999/xlink" viewBox="0 0 23.4469 19.4312">
 <g>
  <rect height="19.4312" opacity="0" width="23.4469" x="0" y="0"/>
  <path d="M4.35409 4.44081L4.35409 18.2849L6.16541 18.2849L6.16541 4.44081ZM16.9121 4.44081L16.9121 18.2849L18.7234 18.2849L18.7234 4.44081ZM3.15644 19.4215L19.9308 19.4215C22.0209 19.4215 23.0855 18.3728 23.0855 16.2988L23.0855 6.73886C23.0855 4.66483 22.0209 3.6162 19.9308 3.6162L3.15644 3.6162C1.07265 3.6162 0 4.66483 0 6.73886L0 16.2988C0 18.3728 1.07265 19.4215 3.15644 19.4215ZM3.2287 17.5777C2.37011 17.5777 1.91327 17.1369 1.91327 16.2383L1.91327 6.80116C1.91327 5.91053 2.37011 5.45994 3.2287 5.45994L19.8586 5.45994C20.7154 5.45994 21.1723 5.91053 21.1723 6.80116L21.1723 16.2383C21.1723 17.1369 20.7154 17.5777 19.8586 17.5777ZM6.42675 4.41308L8.1953 4.41308L8.1953 2.72675C8.1953 2.02499 8.60311 1.63319 9.32089 1.63319L13.7646 1.63319C14.4824 1.63319 14.8822 2.02675 14.8822 2.72675L14.8822 4.39707L16.6525 4.39707L16.6525 2.72695C16.6525 0.880468 15.6541 0 13.8162 0L9.25781 0C7.50175 0 6.42675 0.880468 6.42675 2.72695Z" fill="white" fill-opacity="0.85"/>
 </g>
</svg>
