<?xml version="1.0" encoding="UTF-8"?>
<!--Generator: Apple Native CoreSVG 341-->
<!DOCTYPE svg
PUBLIC "-//W3C//DTD SVG 1.1//EN"
       "http://www.w3.org/Graphics/SVG/1.1/DTD/svg11.dtd">
<svg version="1.1" xmlns="http://www.w3.org/2000/svg" xmlns:xlink="http://www.w3.org/1999/xlink" viewBox="0 0 20.5381 20.1848">
 <g>
  <rect height="20.1848" opacity="0" width="20.5381" x="0" y="0"/>
  <path d="M20.1767 10.0875C20.1767 15.6478 15.6576 20.175 10.0875 20.175C4.52715 20.175 0 15.6478 0 10.0875C0 4.51914 4.52715 0 10.0875 0C15.6576 0 20.1767 4.51914 20.1767 10.0875ZM5.28925 13.4455L5.28925 13.9404C5.28925 14.6996 5.7998 15.2297 6.55898 15.2297L7.10058 15.2314C6.90976 14.9412 6.80859 14.5826 6.80859 14.1734L6.80859 13.4455ZM8.60683 9.95429C7.91445 9.95429 7.54531 10.3217 7.54531 11.0096L7.54531 14.1734C7.54531 14.8641 7.91445 15.2199 8.60683 15.2199L8.76777 15.2199L8.76777 9.95429ZM10.5672 8.76386C9.98495 8.76386 9.61913 9.0666 9.61913 9.69082L9.61913 9.95429L9.44921 9.95429L9.44921 15.2199L13.2605 15.2199L13.2605 9.95429L13.1066 9.95429L13.1066 9.69082C13.1066 9.0666 12.7533 8.76386 12.1373 8.76386ZM13.9367 9.95429L13.9367 15.2199L14.1057 15.2199C14.7998 15.2199 15.1672 14.8641 15.1672 14.1734L15.1672 11.0096C15.1672 10.3217 14.7998 9.95429 14.1057 9.95429ZM7.90507 4.27265C7.22187 4.27265 6.81621 4.65878 6.81621 5.30937L6.81621 6.63085L6.55898 6.63085C5.7998 6.63085 5.28925 7.16269 5.28925 7.92363L5.28925 12.6133L6.80859 12.6133L6.80859 11.0096C6.80859 9.91249 7.50527 9.21933 8.60683 9.21933L8.96327 9.21933C9.1373 8.44785 9.75781 8.03339 10.5672 8.03339L12.0012 8.03339C12.0883 8.03339 12.1719 8.03339 12.2572 8.04941L12.2555 7.88671C12.2379 7.14863 11.7219 6.63085 10.9732 6.63085L10.7453 6.63085L10.7453 5.30937C10.7453 4.65878 10.3424 4.27265 9.6707 4.27265ZM12.4369 9.70117L12.4369 9.9666L10.2836 9.9666L10.2836 9.70117C10.2836 9.49863 10.3875 9.39648 10.6078 9.39648L12.118 9.39648C12.3187 9.39648 12.4369 9.49863 12.4369 9.70117ZM9.92578 5.33651L9.92578 6.63085L7.63573 6.63085L7.63573 5.33651C7.63573 5.15897 7.75917 5.05331 7.96249 5.05331L9.61679 5.05331C9.80234 5.05331 9.92578 5.15897 9.92578 5.33651Z" fill="white" fill-opacity="0.85"/>
 </g>
</svg>
