<?xml version="1.0" encoding="UTF-8"?>
<!--Generator: Apple Native CoreSVG 341-->
<!DOCTYPE svg
PUBLIC "-//W3C//DTD SVG 1.1//EN"
       "http://www.w3.org/Graphics/SVG/1.1/DTD/svg11.dtd">
<svg version="1.1" xmlns="http://www.w3.org/2000/svg" xmlns:xlink="http://www.w3.org/1999/xlink" viewBox="0 0 27.7625 23.7496">
 <g>
  <rect height="23.7496" opacity="0" width="27.7625" x="0" y="0"/>
  <path d="M23.4443 18.533C23.9795 18.533 24.4129 18.1181 24.4129 17.5715C24.4129 17.0248 23.9795 16.6197 23.4443 16.6197L6.04335 16.6197C5.2785 16.6197 4.88592 16.2174 4.88592 15.4445L4.88592 5.5793C4.88592 3.68203 3.96171 2.77383 2.04843 2.77383L0.951751 2.77383C0.436911 2.77383 0 3.21074 0 3.72734C0 4.25195 0.436911 4.6871 0.951751 4.6871L1.81523 4.6871C2.57832 4.6871 2.97265 5.08945 2.97265 5.8623L2.97265 15.7275C2.97265 17.6168 3.89687 18.533 5.81015 18.533ZM19.9978 23.7398C21.0246 23.7398 21.8863 22.8763 21.8863 21.8594C21.8863 20.8228 21.0246 19.9594 19.9978 19.9594C18.9808 19.9594 18.1174 20.8228 18.1174 21.8594C18.1174 22.8763 18.9808 23.7398 19.9978 23.7398ZM9.52909 23.7398C10.5558 23.7398 11.4096 22.8763 11.4096 21.8594C11.4096 20.8228 10.5558 19.9594 9.52909 19.9594C8.50233 19.9594 7.64862 20.8228 7.64862 21.8594C7.64862 22.8763 8.50233 23.7398 9.52909 23.7398Z" fill="white" fill-opacity="0.85"/>
  <path d="M24.4129 12.8531L24.4129 5.03593C24.4129 3.5957 23.6265 2.8414 22.1045 2.8414L8.84998 2.8414C7.32615 2.8414 6.53983 3.5957 6.53983 5.03593L6.53983 12.8531C6.53983 14.3014 7.32615 15.0477 8.84998 15.0477L22.1045 15.0477C23.6265 15.0477 24.4129 14.3014 24.4129 12.8531ZM21.508 15.0477L20.1537 15.0477L20.1537 2.8414L21.508 2.8414ZM10.799 15.0477L9.44647 15.0477L9.44647 2.8414L10.799 2.8414ZM19.4861 3.59648L19.4861 2.20723C19.4861 0.772461 18.6863 0 17.1941 0L13.7603 0C12.2326 0 11.4586 0.738672 11.4586 2.20723L11.4586 3.57871L12.9885 3.57871L12.9885 2.13867C12.9885 1.6666 13.256 1.4123 13.7627 1.4123L17.1918 1.4123C17.6984 1.4123 17.9562 1.6666 17.9562 2.13867L17.9562 3.59648Z" fill="white" fill-opacity="0.85"/>
 </g>
</svg>
