<?xml version="1.0" encoding="UTF-8"?>
<!--Generator: Apple Native CoreSVG 341-->
<!DOCTYPE svg
PUBLIC "-//W3C//DTD SVG 1.1//EN"
       "http://www.w3.org/Graphics/SVG/1.1/DTD/svg11.dtd">
<svg version="1.1" xmlns="http://www.w3.org/2000/svg" xmlns:xlink="http://www.w3.org/1999/xlink" viewBox="0 0 21.8551 23.9484">
 <g>
  <rect height="23.9484" opacity="0" width="21.8551" x="0" y="0"/>
  <path d="M11.2666 2.17246L11.2666 4.91172L11.7533 4.91172C13.3113 4.91172 14.3953 5.99121 14.3953 7.55273L14.3953 10.1371L12.7182 10.1371L12.7182 7.6414C12.7182 7.01288 12.3066 6.5871 11.7039 6.5871L2.6914 6.5871C2.09668 6.5871 1.67714 7.01288 1.67714 7.6414L1.67714 17.2348L5.09765 17.2348L5.09765 18.9102L1.67714 18.9102L1.67714 19.8795C1.67714 20.508 2.09668 20.9338 2.6914 20.9338L5.09765 20.9338L5.09765 21.6676C5.09765 22.0229 5.14165 22.3375 5.23026 22.6092L4.56659 22.6092L4.56659 23.1078C4.56659 23.6209 4.22577 23.9484 3.7162 23.9484L3.16327 23.9484C2.65019 23.9484 2.31288 23.6209 2.31288 23.1078L2.31288 22.5909C0.933064 22.4504 0 21.4146 0 19.9584L0 7.55273C0 5.99121 1.08398 4.91172 2.64199 4.91172L3.13847 4.91172L3.13847 2.17246C3.13847 0.848632 3.98242 0.0337893 5.39023 0.0337893L9.08339 0.0337893C10.4432 0.0337893 11.2666 0.848632 11.2666 2.17246ZM5.51386 1.59101C5.0744 1.59101 4.80975 1.83964 4.80975 2.24706L4.80975 4.91172L9.59531 4.91172L9.59531 2.24706C9.59531 1.8414 9.35644 1.59101 8.95703 1.59101Z" fill="white" fill-opacity="0.85"/>
  <path d="M7.39804 23.9484L19.1934 23.9484C20.7111 23.9484 21.4937 23.1756 21.4937 21.6676L21.4937 14.9474C21.4937 13.4475 20.7111 12.6666 19.1934 12.6666L16.9775 12.6666L16.9775 12.1408C16.9775 10.7887 16.2213 10.1371 14.8873 10.1371L11.6908 10.1371C10.4244 10.1371 9.62187 10.7887 9.62187 12.1408L9.62187 12.6666L7.39804 12.6666C5.89003 12.6666 5.09765 13.4475 5.09765 14.9474L5.09765 21.6676C5.09765 23.1756 5.89003 23.9484 7.39804 23.9484ZM11.0017 12.6859L11.0017 12.1348C11.0017 11.6666 11.2594 11.4187 11.7373 11.4187L14.8541 11.4187C15.332 11.4187 15.5976 11.6683 15.5976 12.1348L15.5976 12.6859ZM7.4412 22.3482C6.96307 22.3482 6.73827 22.1332 6.73827 21.6213L6.73827 14.9857C6.73827 14.4916 6.96307 14.2633 7.4412 14.2633L8.17694 14.2633L8.17694 22.3482ZM9.56424 22.3482L9.56424 14.2633L17.0352 14.2633L17.0352 22.3482ZM18.4144 22.3482L18.4144 14.2633L19.1502 14.2633C19.6283 14.2633 19.8611 14.4916 19.8611 14.9857L19.8611 21.6213C19.8611 22.1332 19.6283 22.3482 19.1502 22.3482Z" fill="white" fill-opacity="0.85"/>
 </g>
</svg>
