<?xml version="1.0" encoding="UTF-8"?>
<!--Generator: Apple Native CoreSVG 341-->
<!DOCTYPE svg
PUBLIC "-//W3C//DTD SVG 1.1//EN"
       "http://www.w3.org/Graphics/SVG/1.1/DTD/svg11.dtd">
<svg version="1.1" xmlns="http://www.w3.org/2000/svg" xmlns:xlink="http://www.w3.org/1999/xlink" viewBox="0 0 20.5381 20.1848">
 <g>
  <rect height="20.1848" opacity="0" width="20.5381" x="0" y="0"/>
  <path d="M10.0875 20.175C15.6576 20.175 20.1767 15.6559 20.1767 10.0875C20.1767 4.51914 15.6576 0 10.0875 0C4.51914 0 0 4.51914 0 10.0875C0 15.6559 4.51914 20.175 10.0875 20.175ZM10.0875 18.1879C5.60839 18.1879 1.9871 14.5666 1.9871 10.0875C1.9871 5.60839 5.60839 1.9871 10.0875 1.9871C14.5666 1.9871 18.1897 5.60839 18.1897 10.0875C18.1897 14.5666 14.5666 18.1879 10.0875 18.1879Z" fill="white" fill-opacity="0.85"/>
  <path d="M10.0795 4.01483C9.74238 4.01483 9.44336 4.31386 9.44336 4.65722L9.44336 5.75702C9.44336 6.10214 9.74238 6.39491 10.0795 6.39491C10.4264 6.39491 10.7254 6.10214 10.7254 5.75702L10.7254 4.65722C10.7254 4.31386 10.4264 4.01483 10.0795 4.01483ZM14.3771 5.78984C14.1207 5.55116 13.7055 5.55292 13.473 5.79335L12.6859 6.59023C12.4473 6.84843 12.4455 7.25038 12.6895 7.48632C12.9361 7.73476 13.3416 7.72948 13.5918 7.4828L14.3807 6.69569C14.6193 6.45526 14.6176 6.03827 14.3771 5.78984ZM16.1396 10.0875C16.1396 9.73437 15.8469 9.44336 15.5035 9.44336L14.4037 9.44336C14.0684 9.44336 13.7676 9.74414 13.7676 10.0875C13.7676 10.4309 14.0684 10.7236 14.4037 10.7236L15.5035 10.7236C15.8469 10.7236 16.1396 10.4389 16.1396 10.0875ZM14.3807 14.3719C14.6291 14.1172 14.6193 13.71 14.3789 13.4775L13.582 12.6904C13.3416 12.45 12.9344 12.45 12.6859 12.6922C12.4357 12.9389 12.4473 13.3416 12.6895 13.5883L13.4783 14.3754C13.717 14.6141 14.1242 14.6105 14.3807 14.3719ZM10.0795 16.1521C10.4264 16.1521 10.7254 15.8611 10.7254 15.5178L10.7254 14.418C10.7254 14.0729 10.4264 13.7783 10.0795 13.7783C9.74238 13.7783 9.44336 14.0729 9.44336 14.418L9.44336 15.5178C9.44336 15.8611 9.74238 16.1521 10.0795 16.1521ZM5.78808 14.3639C6.03827 14.6141 6.44374 14.6158 6.68417 14.3754L7.47304 13.5963C7.71523 13.3559 7.71698 12.9451 7.4748 12.6922C7.23437 12.45 6.81738 12.45 6.5787 12.6904L5.78984 13.4775C5.5414 13.7162 5.54765 14.1207 5.78808 14.3639ZM4.02909 10.0875C4.02909 10.4389 4.32011 10.7236 4.65722 10.7236L5.75527 10.7236C6.10214 10.7236 6.39491 10.4309 6.39491 10.0875C6.39491 9.74414 6.10214 9.44336 5.75527 9.44336L4.65722 9.44336C4.32011 9.44336 4.02909 9.73437 4.02909 10.0875ZM5.7996 5.78984C5.56093 6.03827 5.54941 6.45526 5.78984 6.69569L6.57695 7.4828C6.82363 7.72948 7.2246 7.73651 7.47304 7.48632C7.71523 7.24238 7.71523 6.83691 7.4748 6.59023L6.69569 5.79335C6.45702 5.56093 6.0498 5.55917 5.7996 5.78984Z" fill="white" fill-opacity="0.85"/>
  <path d="M10.0795 12.9779C11.6832 12.9779 12.9717 11.6894 12.9717 10.0875C12.9717 8.48378 11.6832 7.1953 10.0795 7.1953C8.47753 7.1953 7.18905 8.48378 7.18905 10.0875C7.18905 11.6894 8.47753 12.9779 10.0795 12.9779Z" fill="white" fill-opacity="0.85"/>
 </g>
</svg>
