<?xml version="1.0" encoding="UTF-8"?>
<!--Generator: Apple Native CoreSVG 341-->
<!DOCTYPE svg
PUBLIC "-//W3C//DTD SVG 1.1//EN"
       "http://www.w3.org/Graphics/SVG/1.1/DTD/svg11.dtd">
<svg version="1.1" xmlns="http://www.w3.org/2000/svg" xmlns:xlink="http://www.w3.org/1999/xlink" viewBox="0 0 26.6211 24.8211">
 <g>
  <rect height="24.8211" opacity="0" width="26.6211" x="0" y="0"/>
  <path d="M18.4805 11.8445C18.4805 12.9675 18.1276 14.0154 17.5264 14.8805L15.0873 14.8805C16.0806 14.237 16.7412 13.1171 16.7412 11.8445C16.7412 9.84629 15.1123 8.22617 13.1299 8.22617C11.1475 8.22617 9.51855 9.84629 9.51855 11.8445C9.51855 13.1171 10.1792 14.237 11.1725 14.8805L8.7334 14.8805C8.13214 14.0154 7.7793 12.9675 7.7793 11.8445C7.7793 8.89727 10.1994 6.47891 13.1299 6.47891C16.0603 6.47891 18.4805 8.89727 18.4805 11.8445ZM6.00019 11.5502C6.0082 12.0301 5.59746 12.4168 5.05801 12.4168L2.79453 12.415C2.26836 12.415 1.86035 12.0301 1.86035 11.5502C1.86035 11.0721 2.2666 10.6871 2.79453 10.6871L5.05801 10.6871C5.59746 10.6871 5.99219 11.0801 6.00019 11.5502ZM24.3994 11.5502C24.3994 12.0301 24.0029 12.4168 23.4652 12.4168L21.2018 12.415C20.6658 12.415 20.2676 12.0301 20.2596 11.5502C20.2516 11.0721 20.6641 10.6871 21.2018 10.6871L23.4652 10.6871C24.0029 10.6871 24.3994 11.0801 24.3994 11.5502ZM6.43144 3.92285L8.04199 5.52188C8.41465 5.9043 8.4164 6.46133 8.08555 6.8002C7.75293 7.14082 7.18789 7.12754 6.80723 6.74688L5.20469 5.14961C4.82226 4.76543 4.82226 4.2084 5.16113 3.87754C5.50175 3.54493 6.04902 3.53868 6.43144 3.92285ZM21.0986 3.87754C21.4295 4.21641 21.4375 4.76543 21.0551 5.14961L19.4525 6.74688C19.0719 7.12754 18.5068 7.13281 18.1742 6.8002C17.8336 6.46934 17.8451 5.9043 18.2178 5.52188L19.8203 3.92285C20.2107 3.53868 20.766 3.53692 21.0986 3.87754ZM13.9947 1.50918L13.9947 3.77442C13.9947 4.30235 13.6098 4.7166 13.1299 4.7166C12.65 4.7166 12.265 4.30235 12.265 3.77442L12.265 1.50918C12.265 0.971485 12.65 0.57676 13.1299 0.57676C13.6098 0.57676 13.9947 0.971485 13.9947 1.50918Z" fill="white" fill-opacity="0.85"/>
  <path d="M7.71972 21.159C7.92109 21.159 8.04883 20.9807 8.03203 20.7758L7.9541 19.8516L8.7168 20.3912C8.8791 20.5047 9.10449 20.4691 9.20742 20.3051C9.30586 20.141 9.24472 19.8979 9.04336 19.8145L8.20351 19.4236L9.05312 19.0213C9.24648 18.9299 9.29961 18.7062 9.21894 18.5422C9.12226 18.3736 8.87734 18.3408 8.71504 18.4543L7.95586 18.9967L8.04004 18.0697C8.06484 17.8568 7.92109 17.6883 7.71972 17.6883C7.50058 17.6883 7.37285 17.8568 7.38789 18.0697L7.4623 18.9967L6.69687 18.4525C6.53633 18.3408 6.31543 18.3656 6.21074 18.5422C6.11406 18.7062 6.16719 18.9219 6.37031 19.0213L7.22168 19.4219L6.36855 19.8162C6.16719 19.9094 6.10605 20.133 6.20449 20.3051C6.30117 20.4771 6.53633 20.5047 6.69687 20.3912L7.4623 19.8568L7.3959 20.7758C7.38086 20.9807 7.50058 21.159 7.71972 21.159ZM13.1299 21.159C13.3232 21.159 13.459 20.9807 13.4422 20.7758L13.3643 19.8516L14.127 20.3912C14.2893 20.5047 14.5146 20.4691 14.6176 20.3051C14.716 20.141 14.6549 19.8979 14.4437 19.8145L13.6137 19.4236L14.4553 19.0213C14.6566 18.9299 14.7098 18.7062 14.6291 18.5422C14.5324 18.3736 14.2875 18.3408 14.1252 18.4543L13.366 18.9967L13.4502 18.0697C13.475 17.8568 13.3232 17.6883 13.1299 17.6883C12.9107 17.6883 12.783 17.8568 12.798 18.0697L12.8725 18.9967L12.107 18.4525C11.9465 18.3408 11.7256 18.3656 11.6209 18.5422C11.5242 18.7062 11.5773 18.9219 11.7805 19.0213L12.6318 19.4219L11.7787 19.8162C11.5773 19.9094 11.5162 20.133 11.6146 20.3051C11.7113 20.4771 11.9465 20.5047 12.107 20.3912L12.8725 19.8568L12.8061 20.7758C12.791 20.9807 12.9107 21.159 13.1299 21.159ZM18.54 21.159C18.7334 21.159 18.8691 20.9807 18.8523 20.7758L18.7744 19.8516L19.5371 20.3912C19.6994 20.5047 19.9248 20.4691 20.0277 20.3051C20.1262 20.141 20.065 19.8979 19.8539 19.8145L19.0238 19.4236L19.8654 19.0213C20.0668 18.9299 20.1199 18.7062 20.0393 18.5422C19.9426 18.3736 19.6977 18.3408 19.5354 18.4543L18.7762 18.9967L18.8603 18.0697C18.8852 17.8568 18.7334 17.6883 18.54 17.6883C18.3209 17.6883 18.1914 17.8568 18.2082 18.0697L18.2826 18.9967L17.5172 18.4525C17.3566 18.3408 17.1357 18.3656 17.0311 18.5422C16.9344 18.7062 16.9875 18.9219 17.1906 19.0213L18.034 19.4219L17.1889 19.8162C16.9875 19.9094 16.9264 20.133 17.0248 20.3051C17.1215 20.4771 17.3566 20.5047 17.5172 20.3912L18.2826 19.8568L18.2162 20.7758C18.2012 20.9807 18.3209 21.159 18.54 21.159ZM5.60058 24.8211C5.80195 24.8211 5.92968 24.6428 5.91289 24.4396L5.83496 23.5154L6.59941 24.0533C6.75996 24.1686 6.98535 24.1312 7.08828 23.9672C7.19472 23.8049 7.12558 23.5697 6.92422 23.4766L6.08437 23.0857L6.93398 22.6834C7.12734 22.592 7.18847 22.3684 7.0998 22.2061C7.00312 22.0357 6.7582 22.0029 6.5959 22.1182L5.83672 22.6588L5.9209 21.7318C5.9457 21.5189 5.80195 21.3504 5.60058 21.3504C5.38144 21.3504 5.25371 21.5189 5.26875 21.7318L5.34316 22.6588L4.57773 22.1164C4.41719 22.0029 4.19629 22.0277 4.0916 22.2061C3.99492 22.3684 4.04805 22.584 4.25117 22.6834L5.10254 23.084L4.24941 23.4783C4.04805 23.5715 3.98691 23.7969 4.08535 23.9672C4.18203 24.1393 4.41719 24.1686 4.57773 24.0533L5.34316 23.5189L5.27676 24.4396C5.26172 24.6428 5.38144 24.8211 5.60058 24.8211ZM11.0107 24.8211C11.2121 24.8211 11.3398 24.6428 11.323 24.4396L11.2451 23.5154L12.0078 24.0533C12.1701 24.1686 12.3955 24.1312 12.4984 23.9672C12.5969 23.8049 12.5357 23.5697 12.3246 23.4766L11.4945 23.0857L12.3361 22.6834C12.5375 22.592 12.5906 22.3684 12.51 22.2061C12.4133 22.0357 12.1684 22.0029 12.0061 22.1182L11.2469 22.6588L11.3311 21.7318C11.3559 21.5189 11.2121 21.3504 11.0107 21.3504C10.7916 21.3504 10.6639 21.5189 10.6789 21.7318L10.7533 22.6588L9.98789 22.1164C9.82734 22.0029 9.60644 22.0277 9.50176 22.2061C9.40508 22.3684 9.4582 22.584 9.66133 22.6834L10.5127 23.084L9.65957 23.4783C9.4582 23.5715 9.39707 23.7969 9.49551 23.9672C9.59219 24.1393 9.82734 24.1686 9.98789 24.0533L10.7533 23.5189L10.6869 24.4396C10.6719 24.6428 10.7916 24.8211 11.0107 24.8211ZM16.4209 24.8211C16.6143 24.8211 16.75 24.6428 16.7332 24.4396L16.6553 23.5154L17.418 24.0533C17.5803 24.1686 17.8057 24.1312 17.9086 23.9672C18.007 23.8049 17.9459 23.5697 17.7348 23.4766L16.9047 23.0857L17.7463 22.6834C17.9477 22.592 18.0008 22.3684 17.9201 22.2061C17.8234 22.0357 17.5785 22.0029 17.4162 22.1182L16.657 22.6588L16.7412 21.7318C16.766 21.5189 16.6143 21.3504 16.4209 21.3504C16.2018 21.3504 16.0723 21.5189 16.0891 21.7318L16.1635 22.6588L15.398 22.1164C15.2375 22.0029 15.0166 22.0277 14.9119 22.2061C14.8152 22.3684 14.8684 22.584 15.0715 22.6834L15.9148 23.084L15.0697 23.4783C14.8684 23.5715 14.8072 23.7969 14.9057 23.9672C15.0023 24.1393 15.2375 24.1686 15.398 24.0533L16.1635 23.5189L16.0971 24.4396C16.082 24.6428 16.2018 24.8211 16.4209 24.8211ZM3.24472 16.1918L22.975 16.1918C23.3547 16.1918 23.6412 15.9105 23.6412 15.5361C23.6412 15.1617 23.3547 14.8805 22.975 14.8805L3.24472 14.8805C2.87129 14.8805 2.57676 15.1617 2.57676 15.5361C2.57676 15.9105 2.87129 16.1918 3.24472 16.1918Z" fill="white" fill-opacity="0.85"/>
 </g>
</svg>
