<?xml version="1.0" encoding="UTF-8"?>
<!--Generator: Apple Native CoreSVG 341-->
<!DOCTYPE svg
PUBLIC "-//W3C//DTD SVG 1.1//EN"
       "http://www.w3.org/Graphics/SVG/1.1/DTD/svg11.dtd">
<svg version="1.1" xmlns="http://www.w3.org/2000/svg" xmlns:xlink="http://www.w3.org/1999/xlink" viewBox="0 0 20.5381 20.1848">
 <g>
  <rect height="20.1848" opacity="0" width="20.5381" x="0" y="0"/>
  <path d="M10.0875 20.175C15.6576 20.175 20.1767 15.6559 20.1767 10.0875C20.1767 4.51914 15.6576 0 10.0875 0C4.51914 0 0 4.51914 0 10.0875C0 15.6559 4.51914 20.175 10.0875 20.175ZM10.0875 18.1879C5.60839 18.1879 1.9871 14.5666 1.9871 10.0875C1.9871 5.60839 5.60839 1.9871 10.0875 1.9871C14.5666 1.9871 18.1897 5.60839 18.1897 10.0875C18.1897 14.5666 14.5666 18.1879 10.0875 18.1879Z" fill="white" fill-opacity="0.85"/>
  <path d="M12.9264 9.44531C12.9264 7.88515 11.6379 6.60019 10.0795 6.60019C8.53085 6.60019 7.23437 7.88515 7.23437 9.44531C7.23437 9.72969 7.29042 10.0113 7.37753 10.2779L12.7814 10.2779C12.8686 10.0113 12.9264 9.72969 12.9264 9.44531ZM4.78397 9.83887L5.95058 9.83887C6.29941 9.83887 6.5621 9.59043 6.5621 9.26914C6.5621 8.9541 6.2914 8.70742 5.95058 8.70742L4.78397 8.70742C4.44667 8.70742 4.18046 8.96211 4.18046 9.26914C4.18046 9.58242 4.44667 9.83887 4.78397 9.83887ZM6.77128 6.93574C7.01269 7.17363 7.36679 7.19316 7.59218 6.96953C7.82382 6.73613 7.8078 6.38203 7.5664 6.14062L6.72675 5.30097C6.47733 5.04355 6.12948 5.07558 5.90585 5.28144C5.69198 5.51308 5.69023 5.85644 5.93964 6.10409ZM10.6492 5.0496L10.6492 3.88475C10.6492 3.53417 10.3848 3.27948 10.0795 3.27948C9.77246 3.27948 9.51777 3.53417 9.51777 3.88475L9.51777 5.0496C9.51777 5.38866 9.76445 5.67089 10.0795 5.67089C10.3928 5.67089 10.6492 5.38866 10.6492 5.0496ZM12.5766 6.96953C12.8002 7.18515 13.1543 7.18339 13.3975 6.93574L14.2211 6.10409C14.4705 5.85644 14.4768 5.51308 14.2611 5.28144C14.0393 5.05956 13.6736 5.05156 13.4322 5.30097L12.5943 6.14062C12.3449 6.39003 12.3449 6.73613 12.5766 6.96953ZM14.2102 9.83887L15.3848 9.83887C15.7238 9.83887 15.9803 9.58242 15.9803 9.26914C15.9803 8.96211 15.7238 8.70742 15.3848 8.70742L14.2102 8.70742C13.8728 8.70742 13.5986 8.9541 13.5986 9.26914C13.5986 9.59043 13.8728 9.83887 14.2102 9.83887ZM4.80057 12.1633L15.3682 12.1633C15.6928 12.1633 15.9803 11.899 15.9803 11.5717C15.9803 11.2443 15.7008 10.9881 15.3682 10.9881L4.80057 10.9881C4.4662 10.9881 4.18046 11.2461 4.18046 11.5717C4.18046 11.8973 4.47596 12.1633 4.80057 12.1633ZM6.91698 14.8787L7.58671 13.7383C7.70741 13.5199 7.63905 13.2332 7.41093 13.1125C7.19882 12.9838 6.92812 13.0619 6.79941 13.2803L6.13769 14.4287C6.00898 14.6408 6.07733 14.9258 6.30722 15.0465C6.51757 15.177 6.79628 15.0988 6.91698 14.8787ZM8.27909 16.3246L9.77128 13.7418C9.89824 13.5172 9.83163 13.2367 9.60527 13.116C9.3914 12.9873 9.11093 13.0592 8.99199 13.2838L7.49179 15.8746C7.36484 16.0912 7.43144 16.3717 7.66132 16.4924C7.87968 16.6211 8.15214 16.5412 8.27909 16.3246ZM11.2941 14.8787L11.9559 13.7383C12.0863 13.5199 12.0082 13.2332 11.7898 13.1125C11.568 12.9838 11.2973 13.0619 11.1686 13.2803L10.5068 14.4287C10.3781 14.6408 10.4562 14.9258 10.6764 15.0465C10.8947 15.177 11.1654 15.0988 11.2941 14.8787ZM12.6482 16.3246L14.1502 13.7418C14.2674 13.5172 14.2008 13.2367 13.9744 13.116C13.7605 12.9873 13.4881 13.0592 13.3629 13.2838L11.8609 15.8746C11.742 16.0912 11.8103 16.3717 12.0385 16.4924C12.2488 16.6211 12.5213 16.5412 12.6482 16.3246Z" fill="white" fill-opacity="0.85"/>
 </g>
</svg>
