<?xml version="1.0" encoding="UTF-8"?>
<!--Generator: Apple Native CoreSVG 341-->
<!DOCTYPE svg
PUBLIC "-//W3C//DTD SVG 1.1//EN"
       "http://www.w3.org/Graphics/SVG/1.1/DTD/svg11.dtd">
<svg version="1.1" xmlns="http://www.w3.org/2000/svg" xmlns:xlink="http://www.w3.org/1999/xlink" viewBox="0 0 25.4371 24.8211">
 <g>
  <rect height="24.8211" opacity="0" width="25.4371" x="0" y="0"/>
  <path d="M17.8467 11.8355C17.8467 12.4752 17.731 13.0906 17.5139 13.6588L7.56185 13.6588C7.34476 13.0906 7.22909 12.4752 7.22909 11.8355C7.22909 8.92657 9.63144 6.51797 12.5379 6.51797C15.4443 6.51797 17.8467 8.92657 17.8467 11.8355ZM5.4082 11.5502C5.4162 12.0301 5.00546 12.415 4.46601 12.415L2.20253 12.415C1.67636 12.415 1.26835 12.0301 1.26835 11.5502C1.26835 11.0721 1.6746 10.6871 2.20253 10.6871L4.46601 10.6871C5.00546 10.6871 5.40019 11.0801 5.4082 11.5502ZM23.8074 11.5502C23.8074 12.0301 23.4109 12.423 22.8732 12.415L20.6098 12.415C20.0818 12.415 19.6756 12.0301 19.6676 11.5502C19.6578 11.0721 20.0801 10.6871 20.6098 10.6871L22.8732 10.6871C23.4109 10.6871 23.8074 11.0801 23.8074 11.5502ZM5.84745 3.92285L7.44999 5.52188C7.82265 5.9043 7.8244 6.46133 7.50155 6.8002C7.16894 7.14082 6.59589 7.12754 6.21523 6.74688L4.61269 5.14961C4.23027 4.76543 4.23027 4.2084 4.57714 3.87754C4.90976 3.54493 5.46503 3.53868 5.84745 3.92285ZM20.5066 3.87754C20.8375 4.21641 20.8455 4.76543 20.4631 5.14961L18.8605 6.74688C18.4799 7.12754 17.9228 7.13281 17.5822 6.8002C17.2416 6.46934 17.2531 5.9043 17.6338 5.52188L19.2363 3.92285C19.6187 3.53868 20.174 3.53692 20.5066 3.87754ZM13.4027 1.50918L13.4027 3.77442C13.4027 4.30235 13.0178 4.7086 12.5379 4.7166C12.058 4.72461 11.673 4.30235 11.673 3.77442L11.673 1.50918C11.673 0.971485 12.058 0.57676 12.5379 0.57676C13.0178 0.57676 13.4027 0.971485 13.4027 1.50918Z" fill="white" fill-opacity="0.85"/>
  <path d="M7.12773 21.159C7.32909 21.159 7.46483 20.9807 7.44804 20.7758L7.3621 19.8516L8.1328 20.3912C8.2871 20.5047 8.51249 20.4691 8.61542 20.3051C8.72187 20.141 8.65273 19.8979 8.4496 19.8145L7.61151 19.4236L8.46112 19.0213C8.65448 18.9299 8.71562 18.7062 8.62694 18.5422C8.53026 18.3736 8.28534 18.3408 8.13105 18.4543L7.36386 18.9967L7.45605 18.0697C7.48085 17.8568 7.32909 17.6883 7.12773 17.6883C6.91659 17.6883 6.78085 17.8568 6.79589 18.0697L6.87831 18.9967L6.10487 18.4525C5.95234 18.3408 5.72343 18.3656 5.62675 18.5422C5.53007 18.7062 5.5832 18.9219 5.78632 19.0213L6.62968 19.4219L5.78456 19.8162C5.57519 19.9094 5.52206 20.133 5.61249 20.3051C5.70917 20.4771 5.95234 20.5047 6.10487 20.3912L6.87831 19.8568L6.8039 20.7758C6.78886 20.9807 6.91659 21.159 7.12773 21.159ZM12.5379 21.159C12.7392 21.159 12.867 20.9807 12.8502 20.7758L12.7723 19.8516L13.543 20.3912C13.6973 20.5047 13.9226 20.4691 14.0256 20.3051C14.132 20.141 14.0629 19.8979 13.8598 19.8145L13.0217 19.4236L13.8713 19.0213C14.0646 18.9299 14.1258 18.7062 14.0371 18.5422C13.9404 18.3736 13.6955 18.3408 13.5412 18.4543L12.774 18.9967L12.8582 18.0697C12.883 17.8568 12.7392 17.6883 12.5379 17.6883C12.3268 17.6883 12.1893 17.8568 12.206 18.0697L12.2885 18.9967L11.515 18.4525C11.3625 18.3408 11.1336 18.3656 11.0369 18.5422C10.9402 18.7062 10.9934 18.9219 11.1965 19.0213L12.0398 19.4219L11.1947 19.8162C10.9853 19.9094 10.9322 20.133 11.0226 20.3051C11.1193 20.4771 11.3625 20.5047 11.515 20.3912L12.2885 19.8568L12.2141 20.7758C12.199 20.9807 12.3268 21.159 12.5379 21.159ZM17.948 21.159C18.1494 21.159 18.2771 20.9807 18.2603 20.7758L18.1824 19.8516L18.9531 20.3912C19.1074 20.5047 19.3328 20.4691 19.4357 20.3051C19.5422 20.141 19.473 19.8979 19.2699 19.8145L18.4318 19.4236L19.2814 19.0213C19.4748 18.9299 19.5359 18.7062 19.4473 18.5422C19.3506 18.3736 19.1057 18.3408 18.9514 18.4543L18.1842 18.9967L18.2684 18.0697C18.2932 17.8568 18.1494 17.6883 17.948 17.6883C17.7369 17.6883 17.5994 17.8568 17.6162 18.0697L17.6986 18.9967L16.9252 18.4525C16.7726 18.3408 16.5437 18.3656 16.4471 18.5422C16.3504 18.7062 16.4035 18.9219 16.6066 19.0213L17.45 19.4219L16.6049 19.8162C16.3955 19.9094 16.3424 20.133 16.4328 20.3051C16.5295 20.4771 16.7726 20.5047 16.9252 20.3912L17.6986 19.8568L17.6242 20.7758C17.6092 20.9807 17.7369 21.159 17.948 21.159ZM5.00859 24.8211C5.20995 24.8211 5.34569 24.6428 5.3289 24.4396L5.24296 23.5154L6.01366 24.0533C6.16796 24.1686 6.39335 24.1312 6.49628 23.9672C6.60272 23.8049 6.53358 23.5697 6.33046 23.4766L5.49237 23.0857L6.34198 22.6834C6.53534 22.592 6.59647 22.3684 6.5078 22.2061C6.41112 22.0357 6.1662 22.0029 6.01191 22.1182L5.24472 22.6588L5.33691 21.7318C5.36171 21.5189 5.20995 21.3504 5.00859 21.3504C4.79745 21.3504 4.66171 21.5189 4.67675 21.7318L4.75917 22.6588L3.98573 22.1164C3.83319 22.0029 3.60429 22.0277 3.50761 22.2061C3.41093 22.3684 3.46406 22.584 3.66718 22.6834L4.51054 23.084L3.66542 23.4783C3.45605 23.5715 3.40292 23.7969 3.49335 23.9672C3.59003 24.1393 3.83319 24.1686 3.98573 24.0533L4.75917 23.5189L4.68476 24.4396C4.66972 24.6428 4.79745 24.8211 5.00859 24.8211ZM10.4187 24.8211C10.6201 24.8211 10.7478 24.6428 10.731 24.4396L10.6531 23.5154L11.4238 24.0533C11.5781 24.1686 11.8035 24.1312 11.9064 23.9672C12.0129 23.8049 11.9437 23.5697 11.7406 23.4766L10.9025 23.0857L11.7521 22.6834C11.9455 22.592 12.0066 22.3684 11.918 22.2061C11.8213 22.0357 11.5764 22.0029 11.4221 22.1182L10.6549 22.6588L10.7391 21.7318C10.7639 21.5189 10.6201 21.3504 10.4187 21.3504C10.2076 21.3504 10.0701 21.5189 10.0869 21.7318L10.1693 22.6588L9.39589 22.1164C9.24335 22.0029 9.01445 22.0277 8.91777 22.2061C8.82109 22.3684 8.87421 22.584 9.07734 22.6834L9.92069 23.084L9.07558 23.4783C8.8662 23.5715 8.81308 23.7969 8.90351 23.9672C9.00019 24.1393 9.24335 24.1686 9.39589 24.0533L10.1693 23.5189L10.0949 24.4396C10.0799 24.6428 10.2076 24.8211 10.4187 24.8211ZM15.8289 24.8211C16.0303 24.8211 16.158 24.6428 16.1412 24.4396L16.0633 23.5154L16.834 24.0533C16.9883 24.1686 17.2137 24.1312 17.3166 23.9672C17.423 23.8049 17.3539 23.5697 17.1508 23.4766L16.3127 23.0857L17.1623 22.6834C17.3557 22.592 17.4168 22.3684 17.3281 22.2061C17.2314 22.0357 16.9865 22.0029 16.8322 22.1182L16.065 22.6588L16.1492 21.7318C16.174 21.5189 16.0303 21.3504 15.8289 21.3504C15.6178 21.3504 15.4803 21.5189 15.4971 21.7318L15.5795 22.6588L14.806 22.1164C14.6535 22.0029 14.4246 22.0277 14.3279 22.2061C14.2312 22.3684 14.2844 22.584 14.4875 22.6834L15.3309 23.084L14.4857 23.4783C14.2764 23.5715 14.2232 23.7969 14.3137 23.9672C14.4103 24.1393 14.6535 24.1686 14.806 24.0533L15.5795 23.5189L15.5051 24.4396C15.49 24.6428 15.6178 24.8211 15.8289 24.8211ZM2.66425 16.1918L22.3945 16.1918C22.7662 16.1918 23.0625 15.9105 23.0625 15.5361C23.0625 15.1617 22.7662 14.8805 22.3945 14.8805L2.66425 14.8805C2.28456 14.8805 1.99628 15.1617 1.99628 15.5361C1.99628 15.9105 2.28456 16.1918 2.66425 16.1918Z" fill="white" fill-opacity="0.85"/>
 </g>
</svg>
