<?xml version="1.0" encoding="UTF-8"?>
<!--Generator: Apple Native CoreSVG 341-->
<!DOCTYPE svg
PUBLIC "-//W3C//DTD SVG 1.1//EN"
       "http://www.w3.org/Graphics/SVG/1.1/DTD/svg11.dtd">
<svg version="1.1" xmlns="http://www.w3.org/2000/svg" xmlns:xlink="http://www.w3.org/1999/xlink" viewBox="0 0 22.0785 21.7742">
 <g>
  <rect height="21.7742" opacity="0" width="22.0785" x="0" y="0"/>
  <path d="M10.8617 3.98515C11.391 3.98515 11.8316 3.54453 11.8316 3.00722L11.8316 0.977924C11.8316 0.44238 11.391 0 10.8617 0C10.3262 0 9.88554 0.44238 9.88554 0.977924L9.88554 3.00722C9.88554 3.54453 10.3262 3.98515 10.8617 3.98515ZM15.726 6.02401C16.1019 6.39374 16.7269 6.39823 17.1064 6.01874L18.5478 4.57382C18.9176 4.20585 18.9158 3.57285 18.5426 3.1916C18.1728 2.82363 17.5398 2.82715 17.1701 3.19687L15.7207 4.6498C15.351 5.01777 15.3527 5.65077 15.726 6.02401ZM17.74 10.8822C17.74 11.4098 18.1887 11.8504 18.7179 11.8504L20.7472 11.8504C21.2748 11.8504 21.7172 11.4098 21.7172 10.8822C21.7172 10.3529 21.2748 9.90429 20.7472 9.90429L18.7179 9.90429C18.1887 9.90429 17.74 10.3529 17.74 10.8822ZM15.7207 15.7474C15.351 16.1252 15.3527 16.7484 15.726 17.1199L17.1771 18.5791C17.5469 18.947 18.1799 18.9293 18.5531 18.564C18.9211 18.1881 18.9193 17.5631 18.5461 17.1916L17.0949 15.7422C16.7252 15.3724 16.1002 15.384 15.7207 15.7474ZM10.8617 17.7793C10.3262 17.7793 9.88554 18.2199 9.88554 18.7474L9.88554 20.7847C9.88554 21.314 10.3262 21.7564 10.8617 21.7564C11.391 21.7564 11.8316 21.314 11.8316 20.7847L11.8316 18.7474C11.8316 18.2199 11.391 17.7793 10.8617 17.7793ZM5.99648 15.7474C5.61523 15.384 4.98222 15.3724 4.6125 15.7422L3.16933 17.1836C2.79609 17.5551 2.79433 18.1801 3.15429 18.556C3.52753 18.9213 4.16855 18.939 4.53827 18.5711L5.98144 17.1199C6.35468 16.7484 6.35643 16.1252 5.99648 15.7474ZM3.97714 10.8822C3.97714 10.3529 3.52675 9.90429 2.99746 9.90429L0.968159 9.90429C0.440623 9.90429 0 10.3529 0 10.8822C0 11.4098 0.440623 11.8504 0.968159 11.8504L2.99746 11.8504C3.52675 11.8504 3.97714 11.4098 3.97714 10.8822ZM5.98144 6.02401C6.35468 5.65878 6.35643 5.00976 5.99648 4.6498L4.55331 3.19687C4.19159 2.83515 3.55058 2.82363 3.18086 3.1916C2.80937 3.57285 2.80586 4.20585 3.16757 4.56581L4.60898 6.01874C4.98047 6.39022 5.60546 6.39374 5.98144 6.02401Z" fill="white" fill-opacity="0.85"/>
  <path d="M10.8537 15.9812C13.6681 15.9812 15.9527 13.6967 15.9527 10.8822C15.9527 8.06776 13.6681 5.77519 10.8537 5.77519C8.03925 5.77519 5.75468 8.06776 5.75468 10.8822C5.75468 13.6967 8.03925 15.9812 10.8537 15.9812Z" fill="white" fill-opacity="0.85"/>
 </g>
</svg>
