<?xml version="1.0" encoding="UTF-8"?>
<!--Generator: Apple Native CoreSVG 341-->
<!DOCTYPE svg
PUBLIC "-//W3C//DTD SVG 1.1//EN"
       "http://www.w3.org/Graphics/SVG/1.1/DTD/svg11.dtd">
<svg version="1.1" xmlns="http://www.w3.org/2000/svg" xmlns:xlink="http://www.w3.org/1999/xlink" viewBox="0 0 20.5381 20.1848">
 <g>
  <rect height="20.1848" opacity="0" width="20.5381" x="0" y="0"/>
  <path d="M10.0875 20.175C15.6576 20.175 20.1767 15.6559 20.1767 10.0875C20.1767 4.51914 15.6576 0 10.0875 0C4.51914 0 0 4.51914 0 10.0875C0 15.6559 4.51914 20.175 10.0875 20.175ZM10.0875 18.1879C5.60839 18.1879 1.9871 14.5666 1.9871 10.0875C1.9871 5.60839 5.60839 1.9871 10.0875 1.9871C14.5666 1.9871 18.1897 5.60839 18.1897 10.0875C18.1897 14.5666 14.5666 18.1879 10.0875 18.1879Z" fill="white" fill-opacity="0.85"/>
  <path d="M6.5621 9.73223C6.5621 9.41719 6.2914 9.17051 5.95058 9.17051L4.78397 9.17051C4.44667 9.17051 4.18046 9.4252 4.18046 9.73223C4.18046 10.0375 4.44667 10.302 4.78397 10.302L5.95058 10.302C6.29941 10.302 6.5621 10.0535 6.5621 9.73223ZM7.59218 7.42461C7.82382 7.19922 7.8078 6.83711 7.5664 6.60371L6.72675 5.76406C6.47733 5.50664 6.12147 5.52265 5.90585 5.73652C5.68398 5.96015 5.69023 6.31152 5.93964 6.56894L6.77128 7.39882C7.01269 7.63047 7.36679 7.65625 7.59218 7.42461ZM10.0795 6.12597C10.3928 6.12597 10.6492 5.84374 10.6492 5.51445L10.6492 4.34784C10.6492 3.99726 10.3848 3.74257 10.0795 3.74257C9.77246 3.74257 9.51777 3.99726 9.51777 4.34784L9.51777 5.51445C9.51777 5.85175 9.76445 6.12597 10.0795 6.12597ZM12.5766 7.42461C12.8002 7.64824 13.1543 7.63847 13.3975 7.39882L14.2211 6.56894C14.4705 6.31152 14.4768 5.96816 14.2611 5.73652C14.0393 5.51464 13.6736 5.51464 13.4322 5.76406L12.5943 6.60371C12.3449 6.84687 12.3449 7.19922 12.5766 7.42461ZM13.5986 9.73223C13.5986 10.0455 13.8728 10.302 14.2102 10.302L15.3848 10.302C15.7238 10.302 15.9803 10.0455 15.9803 9.73223C15.9803 9.4252 15.7238 9.17051 15.3848 9.17051L14.2102 9.17051C13.8728 9.17051 13.5986 9.41719 13.5986 9.73223ZM7.37753 10.733L12.7814 10.733C12.8686 10.4744 12.9264 10.1848 12.9264 9.9084C12.9264 8.34824 11.6379 7.05527 10.0795 7.05527C8.53085 7.05527 7.23437 8.34824 7.23437 9.9084C7.23437 10.1848 7.29042 10.4744 7.37753 10.733ZM4.80057 12.6264L15.3682 12.6264C15.6928 12.6264 15.9803 12.3639 15.9803 12.0348C15.9803 11.6994 15.7008 11.4529 15.3682 11.4529L4.80057 11.4529C4.4662 11.4529 4.18046 11.7109 4.18046 12.0348C4.18046 12.3604 4.47596 12.6264 4.80057 12.6264ZM5.3787 14.384C5.65468 14.384 5.87206 14.1586 5.87206 13.8906C5.87206 13.6227 5.65468 13.3973 5.3787 13.3973C5.11073 13.3973 4.89511 13.6227 4.89511 13.8906C4.89511 14.1586 5.11073 14.384 5.3787 14.384ZM7.74062 14.384C8.00859 14.384 8.23398 14.1586 8.23398 13.8906C8.23398 13.6227 8.00859 13.3973 7.74062 13.3973C7.47265 13.3973 7.24726 13.6227 7.24726 13.8906C7.24726 14.1586 7.47265 14.384 7.74062 14.384ZM10.091 14.384C10.3652 14.384 10.5826 14.1586 10.5826 13.8906C10.5826 13.6227 10.3652 13.3973 10.091 13.3973C9.82304 13.3973 9.60566 13.6227 9.60566 13.8906C9.60566 14.1586 9.82304 14.384 10.091 14.384ZM12.4512 14.384C12.7191 14.384 12.9365 14.1586 12.9365 13.8906C12.9365 13.6227 12.7191 13.3973 12.4512 13.3973C12.1832 13.3973 11.9596 13.6227 11.9596 13.8906C11.9596 14.1586 12.1832 14.384 12.4512 14.384ZM14.8016 14.384C15.0695 14.384 15.2949 14.1586 15.2949 13.8906C15.2949 13.6227 15.0695 13.3973 14.8016 13.3973C14.5336 13.3973 14.3082 13.6227 14.3082 13.8906C14.3082 14.1586 14.5336 14.384 14.8016 14.384ZM6.55253 15.7102C6.82851 15.7102 7.04589 15.4928 7.04589 15.2248C7.04589 14.9568 6.82851 14.7332 6.55253 14.7332C6.28456 14.7332 6.06718 14.9568 6.06718 15.2248C6.06718 15.4928 6.28456 15.7102 6.55253 15.7102ZM8.91445 15.7102C9.18242 15.7102 9.40781 15.4928 9.40781 15.2248C9.40781 14.9568 9.18242 14.7332 8.91445 14.7332C8.64648 14.7332 8.42109 14.9568 8.42109 15.2248C8.42109 15.4928 8.64648 15.7102 8.91445 15.7102ZM11.2631 15.7102C11.5391 15.7102 11.7564 15.4928 11.7564 15.2248C11.7564 14.9568 11.5391 14.7332 11.2631 14.7332C10.9969 14.7332 10.7795 14.9568 10.7795 15.2248C10.7795 15.4928 10.9969 15.7102 11.2631 15.7102ZM13.6215 15.7102C13.8894 15.7102 14.1068 15.4928 14.1068 15.2248C14.1068 14.9568 13.8894 14.7332 13.6215 14.7332C13.3455 14.7332 13.1281 14.9568 13.1281 15.2248C13.1281 15.4928 13.3455 15.7102 13.6215 15.7102Z" fill="white" fill-opacity="0.85"/>
 </g>
</svg>
