<?xml version="1.0" encoding="UTF-8"?>
<!--Generator: Apple Native CoreSVG 341-->
<!DOCTYPE svg
PUBLIC "-//W3C//DTD SVG 1.1//EN"
       "http://www.w3.org/Graphics/SVG/1.1/DTD/svg11.dtd">
<svg version="1.1" xmlns="http://www.w3.org/2000/svg" xmlns:xlink="http://www.w3.org/1999/xlink" viewBox="0 0 20.5381 20.1848">
 <g>
  <rect height="20.1848" opacity="0" width="20.5381" x="0" y="0"/>
  <path d="M20.1767 10.0973C20.1767 15.6656 15.6576 20.1848 10.0875 20.1848C4.52715 20.1848 0 15.6656 0 10.0973C0 4.53691 4.52715 0.00976562 10.0875 0.00976562C15.6576 0.00976562 20.1767 4.53691 20.1767 10.0973ZM8.94589 13.4273L7.38632 16.1104C7.25761 16.3402 7.33573 16.6322 7.56913 16.7627C7.79726 16.8932 8.083 16.8115 8.21171 16.5932L9.75976 13.9004C9.88847 13.6723 9.82187 13.3883 9.58222 13.2498C9.3666 13.1273 9.0746 13.201 8.94589 13.4273ZM13.4879 13.4273L11.9301 16.1104C11.8094 16.3402 11.8777 16.6322 12.1191 16.7627C12.333 16.8932 12.6187 16.8115 12.7537 16.5932L14.3115 13.9004C14.4322 13.6723 14.3621 13.3883 14.126 13.2498C13.9006 13.1273 13.6166 13.201 13.4879 13.4273ZM6.67089 13.4238L5.98437 14.6103C5.84413 14.8385 5.92402 15.1287 6.15566 15.2689C6.37929 15.3914 6.66952 15.3133 6.79999 15.0834L7.49277 13.8951C7.61523 13.675 7.54687 13.3848 7.30722 13.2463C7.08183 13.1221 6.7996 13.2002 6.67089 13.4238ZM11.2129 13.4238L10.5281 14.6103C10.3879 14.8385 10.466 15.1287 10.6994 15.2689C10.9275 15.3914 11.2098 15.3133 11.342 15.0834L12.0285 13.8951C12.167 13.675 12.0871 13.3848 11.859 13.2463C11.6256 13.1221 11.3434 13.2002 11.2129 13.4238ZM4.60292 11.0289C4.25351 11.0289 3.95448 11.302 3.95448 11.6426C3.95448 11.9877 4.26503 12.2687 4.60292 12.2687L15.5641 12.2687C15.9072 12.2687 16.2062 11.9894 16.2062 11.6426C16.2062 11.3002 15.9152 11.0289 15.5641 11.0289ZM7.12714 9.43652C7.12714 9.72441 7.18495 10.0238 7.27206 10.2922L12.8887 10.2922C12.9758 10.0238 13.0318 9.72441 13.0318 9.43652C13.0318 7.80898 11.6973 6.47441 10.0795 6.47441C8.47148 6.47441 7.12714 7.80898 7.12714 9.43652ZM4.58456 8.65879C4.23222 8.65879 3.95448 8.93477 3.95448 9.25508C3.95448 9.57363 4.23222 9.8416 4.58456 9.8416L5.78398 9.8416C6.15585 9.8416 6.43808 9.58164 6.43808 9.25508C6.43808 8.92676 6.14784 8.65879 5.78398 8.65879ZM14.3768 8.65879C14.0164 8.65879 13.7289 8.92676 13.7289 9.25508C13.7289 9.58164 14.0164 9.8416 14.3768 9.8416L15.5824 9.8416C15.9365 9.8416 16.2062 9.57363 16.2062 9.25508C16.2062 8.92676 15.9365 8.65879 15.5824 8.65879ZM5.74277 5.10956C5.52363 5.35273 5.52187 5.71113 5.7828 5.97206L6.63749 6.825C6.89218 7.07441 7.26132 7.09394 7.49824 6.85878C7.73964 6.62988 7.72363 6.24472 7.4707 5.99355L6.59999 5.12734C6.34081 4.8664 5.97792 4.89042 5.74277 5.10956ZM13.559 5.12734L12.6883 5.99355C12.4291 6.25273 12.4291 6.62988 12.6705 6.85878C12.9074 7.08593 13.2766 7.08242 13.5295 6.825L14.3762 5.97206C14.6389 5.71113 14.6451 5.35273 14.426 5.10956C14.1908 4.87441 13.8039 4.87441 13.559 5.12734ZM9.49296 3.66679L9.49296 4.87597C9.49296 5.22656 9.75293 5.51406 10.0795 5.51406C10.406 5.51406 10.674 5.21855 10.674 4.87597L10.674 3.66679C10.674 3.30468 10.398 3.03671 10.0795 3.03671C9.76093 3.03671 9.49296 3.30468 9.49296 3.66679Z" fill="white" fill-opacity="0.85"/>
 </g>
</svg>
