<?xml version="1.0" encoding="UTF-8"?>
<!--Generator: Apple Native CoreSVG 341-->
<!DOCTYPE svg
PUBLIC "-//W3C//DTD SVG 1.1//EN"
       "http://www.w3.org/Graphics/SVG/1.1/DTD/svg11.dtd">
<svg version="1.1" xmlns="http://www.w3.org/2000/svg" xmlns:xlink="http://www.w3.org/1999/xlink" viewBox="0 0 20.5381 20.1848">
 <g>
  <rect height="20.1848" opacity="0" width="20.5381" x="0" y="0"/>
  <path d="M20.1767 10.0973C20.1767 15.6656 15.6576 20.1848 10.0875 20.1848C4.52715 20.1848 0 15.6656 0 10.0973C0 4.53691 4.52715 0.00976562 10.0875 0.00976562C15.6576 0.00976562 20.1767 4.53691 20.1767 10.0973ZM9.42304 14.5961L9.42304 15.7305C9.42304 16.0969 9.73535 16.4074 10.0875 16.4074C10.4476 16.4074 10.76 16.0969 10.76 15.7305L10.76 14.5961C10.76 14.2359 10.4476 13.9281 10.0875 13.9281C9.73535 13.9281 9.42304 14.2359 9.42304 14.5961ZM6.45117 12.7941L5.62949 13.6141C5.36952 13.866 5.37578 14.2936 5.62773 14.5482C5.8912 14.8019 6.31347 14.8135 6.56542 14.5615L7.38534 13.7416C7.64081 13.4959 7.64257 13.0621 7.38886 12.7959C7.13339 12.5422 6.69511 12.5422 6.45117 12.7941ZM12.7896 12.7959C12.5244 13.0559 12.5377 13.4914 12.7932 13.7416L13.6131 14.5615C13.865 14.81 14.2891 14.8002 14.557 14.5562C14.817 14.29 14.809 13.8598 14.5553 13.6141L13.7256 12.7941C13.4816 12.5422 13.0514 12.5422 12.7896 12.7959ZM7.08007 10.0973C7.08007 11.7603 8.42617 13.1064 10.0875 13.1064C11.7506 13.1064 13.0967 11.7603 13.0967 10.0973C13.0967 8.43593 11.7506 7.08984 10.0875 7.08984C8.42617 7.08984 7.08007 8.43593 7.08007 10.0973ZM14.5801 9.43457C14.2314 9.43457 13.9174 9.73886 13.9174 10.0973C13.9174 10.4557 14.2314 10.7697 14.5801 10.7697L15.7145 10.7697C16.0809 10.7697 16.3869 10.4637 16.3869 10.0973C16.3869 9.73086 16.0809 9.43457 15.7145 9.43457ZM4.4623 9.43457C4.1039 9.43457 3.7996 9.73086 3.7996 10.0973C3.7996 10.4637 4.1039 10.7697 4.4623 10.7697L5.59492 10.7697C5.95507 10.7697 6.26112 10.4557 6.26112 10.0973C6.26112 9.73886 5.95507 9.43457 5.59492 9.43457ZM5.63925 5.64101C5.3873 5.90097 5.37753 6.32675 5.62949 6.5787L6.44941 7.39863C6.70136 7.65859 7.12538 7.66386 7.38534 7.40214C7.64081 7.14667 7.64081 6.7164 7.38886 6.47246L6.57694 5.64452C6.32499 5.40058 5.90448 5.38906 5.63925 5.64101ZM13.6096 5.64452L12.7896 6.47246C12.5377 6.74394 12.5359 7.15468 12.7932 7.40214C13.0531 7.6621 13.4816 7.65859 13.7353 7.39863L14.557 6.5787C14.809 6.32675 14.8072 5.90097 14.5535 5.64101C14.282 5.38105 13.8535 5.39257 13.6096 5.64452ZM9.42304 4.46405L9.42304 5.59843C9.42304 5.95859 9.73535 6.2664 10.0875 6.2664C10.4476 6.2664 10.76 5.95859 10.76 5.59843L10.76 4.46405C10.76 4.09765 10.4476 3.79511 10.0875 3.79511C9.73535 3.79511 9.42304 4.09765 9.42304 4.46405Z" fill="white" fill-opacity="0.85"/>
 </g>
</svg>
