<?xml version="1.0" encoding="UTF-8"?>
<!--Generator: Apple Native CoreSVG 341-->
<!DOCTYPE svg
PUBLIC "-//W3C//DTD SVG 1.1//EN"
       "http://www.w3.org/Graphics/SVG/1.1/DTD/svg11.dtd">
<svg version="1.1" xmlns="http://www.w3.org/2000/svg" xmlns:xlink="http://www.w3.org/1999/xlink" viewBox="0 0 20.5381 20.1848">
 <g>
  <rect height="20.1848" opacity="0" width="20.5381" x="0" y="0"/>
  <path d="M20.1767 10.0973C20.1767 15.6656 15.6576 20.1848 10.0875 20.1848C4.52715 20.1848 0 15.6656 0 10.0973C0 4.53691 4.52715 0.00976562 10.0875 0.00976562C15.6576 0.00976562 20.1767 4.53691 20.1767 10.0973ZM5.17245 14.4453C4.95156 14.4453 4.78925 14.6094 4.78925 14.8303C4.78925 15.0477 4.95156 15.2117 5.17245 15.2117L15.6367 15.2117C15.8576 15.2117 16.0182 15.0477 16.0182 14.8303C16.0182 14.6094 15.8576 14.4453 15.6367 14.4453ZM4.53201 12.9988C4.31112 12.9988 4.1408 13.1691 4.1408 13.3803C4.1408 13.6012 4.31112 13.7715 4.53201 13.7715L14.9883 13.7715C15.2092 13.7715 15.3697 13.6012 15.3697 13.3803C15.3697 13.1691 15.2092 12.9988 14.9883 12.9988ZM5.17245 11.5586C4.95156 11.5586 4.78925 11.7227 4.78925 11.94C4.78925 12.1609 4.95156 12.325 5.17245 12.325L15.6367 12.325C15.8576 12.325 16.0182 12.1609 16.0182 11.94C16.0182 11.7227 15.8576 11.5586 15.6367 11.5586ZM7.12714 9.95645C7.12714 10.2523 7.18495 10.5438 7.27206 10.8041L12.8887 10.8041C12.9758 10.5438 13.0318 10.2523 13.0318 9.95645C13.0318 8.33867 11.6973 6.99609 10.0795 6.99609C8.47148 6.99609 7.12714 8.33867 7.12714 9.95645ZM4.58456 9.18848C4.23222 9.18848 3.95448 9.45645 3.95448 9.775C3.95448 10.0953 4.23222 10.3713 4.58456 10.3713L5.78398 10.3713C6.15585 10.3713 6.43808 10.1113 6.43808 9.775C6.43808 9.44043 6.14784 9.18848 5.78398 9.18848ZM14.3768 9.18848C14.0164 9.18848 13.7289 9.44043 13.7289 9.775C13.7289 10.1033 14.0164 10.3713 14.3768 10.3713L15.5824 10.3713C15.9365 10.3713 16.2062 10.1033 16.2062 9.775C16.2062 9.45645 15.9365 9.18848 15.5824 9.18848ZM5.74277 5.62949C5.51562 5.85664 5.52187 6.22304 5.7828 6.49199L6.63749 7.35293C6.89218 7.59609 7.26132 7.62363 7.49824 7.37871C7.73964 7.1418 7.72363 6.76816 7.4707 6.52148L6.59999 5.65703C6.34081 5.38808 5.96991 5.4041 5.74277 5.62949ZM13.559 5.65703L12.6883 6.52148C12.4291 6.77617 12.4291 7.1418 12.6705 7.37871C12.9074 7.61386 13.2766 7.6041 13.5295 7.35293L14.3762 6.49199C14.6389 6.22304 14.6451 5.86464 14.426 5.62949C14.1908 5.39609 13.8039 5.39609 13.559 5.65703ZM9.49296 4.18847L9.49296 5.38789C9.49296 5.74824 9.75293 6.03574 10.0795 6.03574C10.406 6.03574 10.674 5.74023 10.674 5.38789L10.674 4.18847C10.674 3.8246 10.398 3.55663 10.0795 3.55663C9.76093 3.55663 9.49296 3.8246 9.49296 4.18847Z" fill="white" fill-opacity="0.85"/>
 </g>
</svg>
