<?xml version="1.0" encoding="UTF-8"?>
<!--Generator: Apple Native CoreSVG 341-->
<!DOCTYPE svg
PUBLIC "-//W3C//DTD SVG 1.1//EN"
       "http://www.w3.org/Graphics/SVG/1.1/DTD/svg11.dtd">
<svg version="1.1" xmlns="http://www.w3.org/2000/svg" xmlns:xlink="http://www.w3.org/1999/xlink" viewBox="0 0 20.0162 19.6726">
 <g>
  <rect height="19.6726" opacity="0" width="20.0162" x="0" y="0"/>
  <path d="M9.83144 2.19296C10.432 2.19296 10.9279 1.70507 10.9279 1.09648C10.9279 0.486131 10.432 0 9.83144 0C9.22109 0 8.73496 0.486131 8.73496 1.09648C8.73496 1.70507 9.22109 2.19296 9.83144 2.19296ZM16.0125 4.74687C16.6131 4.74687 17.101 4.26074 17.101 3.65039C17.101 3.04179 16.6131 2.55391 16.0125 2.55391C15.4021 2.55391 14.916 3.04179 14.916 3.65039C14.916 4.26074 15.4021 4.74687 16.0125 4.74687ZM18.5664 10.9279C19.167 10.9279 19.6549 10.44 19.6549 9.83144C19.6549 9.22109 19.167 8.73496 18.5664 8.73496C17.956 8.73496 17.4699 9.22109 17.4699 9.83144C17.4699 10.44 17.956 10.9279 18.5664 10.9279ZM16.0125 17.109C16.6131 17.109 17.101 16.6211 17.101 16.0125C17.101 15.4021 16.6131 14.916 16.0125 14.916C15.4021 14.916 14.916 15.4021 14.916 16.0125C14.916 16.6211 15.4021 17.109 16.0125 17.109ZM9.83144 19.6629C10.432 19.6629 10.9279 19.175 10.9279 18.5664C10.9279 17.956 10.432 17.4699 9.83144 17.4699C9.22109 17.4699 8.73496 17.956 8.73496 18.5664C8.73496 19.175 9.22109 19.6629 9.83144 19.6629ZM3.65039 17.109C4.26074 17.109 4.74687 16.6211 4.74687 16.0125C4.74687 15.4021 4.26074 14.916 3.65039 14.916C3.04179 14.916 2.55391 15.4021 2.55391 16.0125C2.55391 16.6211 3.04179 17.109 3.65039 17.109ZM1.09648 10.9279C1.70507 10.9279 2.19296 10.44 2.19296 9.83144C2.19296 9.22109 1.70507 8.73496 1.09648 8.73496C0.486131 8.73496 0 9.22109 0 9.83144C0 10.44 0.486131 10.9279 1.09648 10.9279ZM3.65039 4.74687C4.26074 4.74687 4.74687 4.26074 4.74687 3.65039C4.74687 3.04179 4.26074 2.55391 3.65039 2.55391C3.04179 2.55391 2.55391 3.04179 2.55391 3.65039C2.55391 4.26074 3.04179 4.74687 3.65039 4.74687Z" fill="white" fill-opacity="0.85"/>
  <path d="M9.83144 14.9305C12.6459 14.9305 14.9305 12.6459 14.9305 9.83144C14.9305 7.01699 12.6459 4.72441 9.83144 4.72441C7.01699 4.72441 4.72441 7.01699 4.72441 9.83144C4.72441 12.6459 7.01699 14.9305 9.83144 14.9305ZM9.83144 13.1297C8.00331 13.1297 6.52518 11.6578 6.52518 9.83144C6.52518 8.00331 8.00331 6.52518 9.83144 6.52518C11.6596 6.52518 13.1297 8.00331 13.1297 9.83144C13.1297 11.6578 11.6596 13.1297 9.83144 13.1297Z" fill="white" fill-opacity="0.85"/>
 </g>
</svg>
