<?xml version="1.0" encoding="UTF-8"?>
<!--Generator: Apple Native CoreSVG 341-->
<!DOCTYPE svg
PUBLIC "-//W3C//DTD SVG 1.1//EN"
       "http://www.w3.org/Graphics/SVG/1.1/DTD/svg11.dtd">
<svg version="1.1" xmlns="http://www.w3.org/2000/svg" xmlns:xlink="http://www.w3.org/1999/xlink" viewBox="0 0 27.3988 23.527">
 <g>
  <rect height="23.527" opacity="0" width="27.3988" x="0" y="0"/>
  <path d="M18.8693 11.2695C18.8693 12.3925 18.5165 13.4404 17.9152 14.3055L15.4762 14.3055C16.4695 13.662 17.1301 12.5421 17.1301 11.2695C17.1301 9.27129 15.5012 7.65117 13.5187 7.65117C11.5363 7.65117 9.90741 9.27129 9.90741 11.2695C9.90741 12.5421 10.568 13.662 11.5613 14.3055L9.12443 14.3055C8.52217 13.4404 8.16816 12.3925 8.16816 11.2695C8.16816 8.32227 10.5963 5.90391 13.5187 5.90391C16.4492 5.90391 18.8693 8.32227 18.8693 11.2695ZM6.38906 10.9752C6.39883 11.4551 5.98633 11.8418 5.44688 11.8418L3.18339 11.84C2.65722 11.84 2.24922 11.4551 2.24922 10.9752C2.24922 10.4971 2.65547 10.1121 3.18339 10.1121L5.44688 10.1121C5.98633 10.1121 6.38105 10.5051 6.38906 10.9752ZM24.7883 10.9752C24.7883 11.4551 24.3936 11.8418 23.8541 11.8418L21.5906 11.84C21.0564 11.84 20.6564 11.4551 20.6484 10.9752C20.6404 10.4971 21.0529 10.1121 21.5906 10.1121L23.8541 10.1121C24.3936 10.1121 24.7883 10.5051 24.7883 10.9752ZM6.82831 3.34785L8.43086 4.94688C8.80351 5.32754 8.80703 5.88457 8.47441 6.2252C8.1498 6.56582 7.57676 6.55254 7.1961 6.17188L5.59355 4.57461C5.21113 4.19043 5.21113 3.6334 5.55976 3.30254C5.89062 2.96992 6.43789 2.96367 6.82831 3.34785ZM21.4875 3.30254C21.8184 3.64141 21.8264 4.19043 21.4439 4.57461L19.8414 6.17188C19.4607 6.55254 18.9037 6.55781 18.5631 6.2252C18.2242 5.89434 18.234 5.32754 18.6146 4.94688L20.2172 3.34785C20.5996 2.96367 21.1549 2.96192 21.4875 3.30254ZM14.3836 0.934177L14.3836 3.19942C14.3836 3.72735 13.9986 4.13359 13.5187 4.1416C13.0406 4.14961 12.6539 3.72735 12.6539 3.19942L12.6539 0.934177C12.6539 0.396483 13.0406 0 13.5187 0C13.9986 0 14.3836 0.396483 14.3836 0.934177Z" fill="white" fill-opacity="0.85"/>
  <path d="M2.91718 19.3748L22.6475 19.3748C23.0271 19.3748 23.3137 19.0855 23.3137 18.7111C23.3137 18.3367 23.0271 18.0555 22.6475 18.0555L2.91718 18.0555C2.54375 18.0555 2.24922 18.3367 2.24922 18.7111C2.24922 19.0855 2.54375 19.3748 2.91718 19.3748ZM4.39179 23.1248L24.1203 23.1248C24.4937 23.1248 24.7883 22.8453 24.7883 22.4691C24.7883 22.0867 24.4937 21.8072 24.1203 21.8072L4.39179 21.8072C4.01836 21.8072 3.72383 22.0867 3.72383 22.4691C3.72383 22.8453 4.01836 23.1248 4.39179 23.1248ZM4.39179 15.6168L24.1203 15.6168C24.4937 15.6168 24.7883 15.3355 24.7883 14.9611C24.7883 14.5867 24.4937 14.3055 24.1203 14.3055L4.39179 14.3055C4.01836 14.3055 3.72383 14.5867 3.72383 14.9611C3.72383 15.3355 4.01836 15.6168 4.39179 15.6168Z" fill="white" fill-opacity="0.85"/>
 </g>
</svg>
