<?xml version="1.0" encoding="UTF-8"?>
<!--Generator: Apple Native CoreSVG 341-->
<!DOCTYPE svg
PUBLIC "-//W3C//DTD SVG 1.1//EN"
       "http://www.w3.org/Graphics/SVG/1.1/DTD/svg11.dtd">
<svg version="1.1" xmlns="http://www.w3.org/2000/svg" xmlns:xlink="http://www.w3.org/1999/xlink" viewBox="0 0 20.5381 20.1848">
 <g>
  <rect height="20.1848" opacity="0" width="20.5381" x="0" y="0"/>
  <path d="M20.1767 10.0973C20.1767 15.6656 15.6576 20.1848 10.0875 20.1848C4.52715 20.1848 0 15.6656 0 10.0973C0 4.53691 4.52715 0.00976562 10.0875 0.00976562C15.6576 0.00976562 20.1767 4.53691 20.1767 10.0973ZM5.91835 15.4473C5.91835 15.7285 6.14726 15.9557 6.41874 15.9557C6.708 15.9557 6.93691 15.7285 6.93691 15.4473C6.93691 15.166 6.708 14.9291 6.41874 14.9291C6.14726 14.9291 5.91835 15.166 5.91835 15.4473ZM8.36621 15.4473C8.36621 15.7285 8.59511 15.9557 8.8746 15.9557C9.15585 15.9557 9.39277 15.7285 9.39277 15.4473C9.39277 15.166 9.15585 14.9291 8.8746 14.9291C8.59511 14.9291 8.36621 15.166 8.36621 15.4473ZM10.8105 15.4473C10.8105 15.7285 11.0394 15.9557 11.3189 15.9557C11.6082 15.9557 11.8291 15.7285 11.8291 15.4473C11.8291 15.166 11.6082 14.9291 11.3189 14.9291C11.0394 14.9291 10.8105 15.166 10.8105 15.4473ZM13.2531 15.4473C13.2531 15.7285 13.4838 15.9557 13.7713 15.9557C14.0428 15.9557 14.2717 15.7285 14.2717 15.4473C14.2717 15.166 14.0428 14.9291 13.7713 14.9291C13.4838 14.9291 13.2531 15.166 13.2531 15.4473ZM4.69667 14.06C4.69667 14.3332 4.92734 14.5701 5.20683 14.5701C5.49433 14.5701 5.71523 14.3332 5.71523 14.06C5.71523 13.7805 5.49433 13.5436 5.20683 13.5436C4.92734 13.5436 4.69667 13.7805 4.69667 14.06ZM7.14628 14.06C7.14628 14.3332 7.37519 14.5701 7.65468 14.5701C7.93417 14.5701 8.17109 14.3332 8.17109 14.06C8.17109 13.7805 7.93417 13.5436 7.65468 13.5436C7.37519 13.5436 7.14628 13.7805 7.14628 14.06ZM9.58886 14.06C9.58886 14.3332 9.81777 14.5701 10.099 14.5701C10.3865 14.5701 10.6154 14.3332 10.6154 14.06C10.6154 13.7805 10.3865 13.5436 10.099 13.5436C9.81777 13.5436 9.58886 13.7805 9.58886 14.06ZM12.0367 14.06C12.0367 14.3332 12.2736 14.5701 12.5549 14.5701C12.8344 14.5701 13.0553 14.3332 13.0553 14.06C13.0553 13.7805 12.8344 13.5436 12.5549 13.5436C12.2736 13.5436 12.0367 13.7805 12.0367 14.06ZM14.4811 14.06C14.4811 14.3332 14.718 14.5701 14.9894 14.5701C15.2707 14.5701 15.5076 14.3332 15.5076 14.06C15.5076 13.7805 15.2707 13.5436 14.9894 13.5436C14.718 13.5436 14.4811 13.7805 14.4811 14.06ZM4.61093 11.5178C4.26151 11.5178 3.96249 11.7793 3.96249 12.1279C3.96249 12.4668 4.27304 12.7478 4.61093 12.7478L15.5721 12.7478C15.9152 12.7478 16.2143 12.4703 16.2143 12.1279C16.2143 11.7775 15.9232 11.5178 15.5721 11.5178ZM7.13515 9.91738C7.13515 10.2115 7.19296 10.4949 7.28007 10.7713L12.8967 10.7713C12.9838 10.4949 13.0398 10.2115 13.0398 9.91738C13.0398 8.29785 11.7053 6.95351 10.0875 6.95351C8.47949 6.95351 7.13515 8.29785 7.13515 9.91738ZM4.59257 9.13965C4.24022 9.13965 3.96249 9.40762 3.96249 9.72617C3.96249 10.0527 4.24022 10.3207 4.59257 10.3207L5.79199 10.3207C6.16386 10.3207 6.44609 10.0607 6.44609 9.72617C6.44609 9.39961 6.15585 9.13965 5.79199 9.13965ZM14.3848 9.13965C14.0244 9.13965 13.7369 9.39961 13.7369 9.72617C13.7369 10.0607 14.0244 10.3207 14.3848 10.3207L15.5904 10.3207C15.9463 10.3207 16.2143 10.0527 16.2143 9.72617C16.2143 9.40762 15.9463 9.13965 15.5904 9.13965ZM5.75077 5.58867C5.52363 5.82558 5.52988 6.19199 5.79081 6.44941L6.64726 7.31211C6.90019 7.55351 7.26933 7.58105 7.50624 7.34765C7.74765 7.10097 7.73163 6.73359 7.4787 6.47891L6.608 5.6082C6.34882 5.3455 5.97792 5.36152 5.75077 5.58867ZM13.5687 5.6082L12.6963 6.47891C12.4371 6.7416 12.4371 7.10097 12.6785 7.34765C12.9154 7.56328 13.2846 7.56152 13.5375 7.31211L14.3842 6.44941C14.6469 6.19199 14.6531 5.83359 14.434 5.58867C14.1988 5.35351 13.8119 5.35351 13.5687 5.6082ZM9.50097 4.14589L9.50097 5.34707C9.50097 5.69765 9.76093 5.99316 10.0875 5.99316C10.4141 5.99316 10.682 5.69765 10.682 5.34707L10.682 4.14589C10.682 3.78378 10.406 3.51581 10.0875 3.51581C9.76894 3.51581 9.50097 3.78378 9.50097 4.14589Z" fill="white" fill-opacity="0.85"/>
 </g>
</svg>
