<?xml version="1.0" encoding="UTF-8"?>
<!--Generator: Apple Native CoreSVG 341-->
<!DOCTYPE svg
PUBLIC "-//W3C//DTD SVG 1.1//EN"
       "http://www.w3.org/Graphics/SVG/1.1/DTD/svg11.dtd">
<svg version="1.1" xmlns="http://www.w3.org/2000/svg" xmlns:xlink="http://www.w3.org/1999/xlink" viewBox="0 0 28.1568 23.7789">
 <g>
  <rect height="23.7789" opacity="0" width="28.1568" x="0" y="0"/>
  <path d="M19.2074 17.3068C19.2074 17.9371 19.095 18.5438 18.8837 19.1049L8.91175 19.1049C8.70045 18.5438 8.58808 17.9371 8.58808 17.3068C8.58808 14.3979 10.9922 11.9893 13.8969 11.9893C16.8033 11.9893 19.2074 14.3979 19.2074 17.3068ZM6.76894 16.9406C6.77695 17.4188 6.36445 17.8072 5.82676 17.8072L3.56152 17.8055C3.03535 17.8055 2.62734 17.4188 2.62734 16.9406C2.62734 16.4607 3.03359 16.0758 3.56152 16.0758L5.82676 16.0758C6.36445 16.0758 6.76094 16.4607 6.76894 16.9406ZM25.1664 16.9406C25.1664 17.4188 24.7717 17.8055 24.2322 17.8055L21.9687 17.8055C21.4346 17.8055 21.0346 17.4188 21.0266 16.9406C21.0186 16.4607 21.4328 16.0758 21.9687 16.0758L24.2322 16.0758C24.7717 16.0758 25.1664 16.4607 25.1664 16.9406ZM7.2082 9.39414L8.80898 10.9932C9.1834 11.3676 9.18515 11.9326 8.85254 12.2715C8.52168 12.6121 7.95488 12.5988 7.57422 12.2182L5.97168 10.6209C5.58926 10.2367 5.58926 9.67968 5.92988 9.34883C6.26875 9.01621 6.81601 9.00996 7.2082 9.39414ZM21.8656 9.34883C22.1982 9.68769 22.2062 10.2367 21.8221 10.6209L20.2195 12.2182C19.8389 12.5988 19.2818 12.6041 18.943 12.2715C18.6023 11.9406 18.6121 11.3676 18.9848 10.9932L20.5953 9.39414C20.9795 9.00996 21.533 9.0082 21.8656 9.34883Z" fill="white" fill-opacity="0.85"/>
  <path d="M2.35624 22.1721L25.4473 22.1721C25.9766 22.1721 26.4164 21.7502 26.4164 21.2502C26.4164 20.7432 25.9783 20.3283 25.4473 20.3283L2.35624 20.3283C1.81894 20.3283 1.38711 20.7484 1.38711 21.2502C1.38711 21.7449 1.8207 22.1721 2.35624 22.1721Z" fill="white" fill-opacity="0.85"/>
  <path d="M13.8969 2.76152L15.3242 4.58339L16.4563 5.74804C16.6141 5.91816 16.8189 6.03417 17.06 6.03417C17.4963 6.03417 17.8066 5.72031 17.8066 5.29902C17.8066 5.06054 17.7066 4.86914 17.5143 4.68828L14.506 1.87109C14.2816 1.66621 14.1141 1.58906 13.9049 1.58906C13.6975 1.58906 13.5281 1.66621 13.3055 1.87109L10.2973 4.68828C10.1049 4.86914 10.0049 5.06054 10.0049 5.29902C10.0049 5.72031 10.3152 6.03417 10.7516 6.03417C10.9926 6.03417 11.1975 5.91816 11.3553 5.74804L12.5691 4.50155ZM14.6084 3.158C14.5756 2.77207 14.2926 2.44824 13.8969 2.44824C13.5109 2.44824 13.2199 2.77207 13.1871 3.158L13.0355 5.26483L13.0338 8.73535C13.0338 9.24902 13.4268 9.66152 13.8969 9.66152C14.3687 9.66152 14.7697 9.24902 14.7697 8.73535L14.7697 5.26483Z" fill="white" fill-opacity="0.85"/>
 </g>
</svg>
