<?xml version="1.0" encoding="UTF-8"?>
<!--Generator: Apple Native CoreSVG 341-->
<!DOCTYPE svg
PUBLIC "-//W3C//DTD SVG 1.1//EN"
       "http://www.w3.org/Graphics/SVG/1.1/DTD/svg11.dtd">
<svg version="1.1" xmlns="http://www.w3.org/2000/svg" xmlns:xlink="http://www.w3.org/1999/xlink" viewBox="0 0 28.1568 26.0941">
 <g>
  <rect height="26.0941" opacity="0" width="28.1568" x="0" y="0"/>
  <path d="M19.2475 18.5045C19.2475 19.6035 18.9095 20.6307 18.3328 21.4859L15.88 21.4859C16.8385 20.843 17.4731 19.7481 17.4731 18.5062C17.4731 16.5291 15.8617 14.915 13.8969 14.915C11.9338 14.915 10.3207 16.5291 10.3207 18.5062C10.3207 19.7481 10.9559 20.843 11.9146 21.4859L9.46259 21.4859C8.886 20.6307 8.54805 19.6035 8.54805 18.5045C8.54805 15.5555 10.9682 13.1389 13.8969 13.1389C16.8273 13.1389 19.2475 15.5555 19.2475 18.5045ZM6.76894 18.1293C6.77695 18.6074 6.36445 18.9924 5.82676 18.9924L3.56152 18.9924C3.03535 18.9924 2.62734 18.6074 2.62734 18.1293C2.62734 17.6494 3.03359 17.2645 3.56152 17.2645L5.82676 17.2645C6.36445 17.2645 6.76094 17.6494 6.76894 18.1293ZM25.1664 18.1293C25.1664 18.6074 24.7717 18.9924 24.2322 18.9924L21.9687 18.9924C21.4346 18.9924 21.0346 18.6074 21.0266 18.1293C21.0186 17.6494 21.4328 17.2645 21.9687 17.2645L24.2322 17.2645C24.7717 17.2645 25.1664 17.6494 25.1664 18.1293ZM7.2082 10.5828L8.80898 12.1818C9.1834 12.5545 9.18515 13.1195 8.85254 13.4602C8.52168 13.8008 7.95488 13.7875 7.57422 13.4068L5.97168 11.8096C5.58926 11.4254 5.58926 10.8684 5.92988 10.5375C6.26875 10.2049 6.81601 10.1986 7.2082 10.5828ZM21.8656 10.5375C22.1982 10.8764 22.2062 11.4254 21.8221 11.8096L20.2195 13.4068C19.8389 13.7875 19.2818 13.7928 18.943 13.4602C18.6023 13.1293 18.6121 12.5545 18.9848 12.1818L20.5953 10.5828C20.9795 10.1986 21.533 10.1969 21.8656 10.5375Z" fill="white" fill-opacity="0.85"/>
  <path d="M2.35624 23.3297L25.4473 23.3297C25.9766 23.3297 26.4164 22.9078 26.4164 22.4078C26.4164 21.9008 25.9783 21.4859 25.4473 21.4859L2.35624 21.4859C1.81894 21.4859 1.38711 21.9061 1.38711 22.4078C1.38711 22.9025 1.8207 23.3297 2.35624 23.3297Z" fill="white" fill-opacity="0.85"/>
  <path d="M13.8969 3.91914L15.3242 5.741L16.4563 6.90566C16.6141 7.07577 16.8189 7.19179 17.06 7.19179C17.4963 7.19179 17.8066 6.87792 17.8066 6.45663C17.8066 6.21816 17.7066 6.02675 17.5143 5.84589L14.506 3.02871C14.2816 2.82382 14.1141 2.74668 13.9049 2.74668C13.6975 2.74668 13.5281 2.82382 13.3055 3.02871L10.2973 5.84589C10.1049 6.02675 10.0049 6.21816 10.0049 6.45663C10.0049 6.87792 10.3152 7.19179 10.7516 7.19179C10.9926 7.19179 11.1975 7.07577 11.3553 6.90566L12.5691 5.65917ZM14.6084 4.31562C14.5756 3.92968 14.2926 3.60585 13.8969 3.60585C13.5109 3.60585 13.2199 3.92968 13.1871 4.31562L13.0355 6.42245L13.0338 9.89296C13.0338 10.4066 13.4268 10.8191 13.8969 10.8191C14.3687 10.8191 14.7697 10.4066 14.7697 9.89296L14.7697 6.42245Z" fill="white" fill-opacity="0.85"/>
 </g>
</svg>
