<?xml version="1.0" encoding="UTF-8"?>
<!--Generator: Apple Native CoreSVG 341-->
<!DOCTYPE svg
PUBLIC "-//W3C//DTD SVG 1.1//EN"
       "http://www.w3.org/Graphics/SVG/1.1/DTD/svg11.dtd">
<svg version="1.1" xmlns="http://www.w3.org/2000/svg" xmlns:xlink="http://www.w3.org/1999/xlink" viewBox="0 0 20.5381 20.1848">
 <g>
  <rect height="20.1848" opacity="0" width="20.5381" x="0" y="0"/>
  <path d="M10.0875 20.175C15.6576 20.175 20.1767 15.6559 20.1767 10.0875C20.1767 4.51914 15.6576 0 10.0875 0C4.51914 0 0 4.51914 0 10.0875C0 15.6559 4.51914 20.175 10.0875 20.175ZM10.0875 18.1879C5.60839 18.1879 1.9871 14.5666 1.9871 10.0875C1.9871 5.60839 5.60839 1.9871 10.0875 1.9871C14.5666 1.9871 18.1897 5.60839 18.1897 10.0875C18.1897 14.5666 14.5666 18.1879 10.0875 18.1879Z" fill="white" fill-opacity="0.85"/>
  <path d="M5.12245 12.0246L6.22773 12.0246C6.54101 12.0246 6.79394 11.7957 6.79394 11.4939C6.79394 11.1967 6.54101 10.9678 6.22773 10.9678L5.12245 10.9678C4.80468 10.9678 4.55624 11.2047 4.55624 11.4939C4.55624 11.7797 4.80468 12.0246 5.12245 12.0246ZM6.98886 9.30722C7.21074 9.5291 7.55507 9.54687 7.76269 9.33476C7.9748 9.11914 7.95077 8.78457 7.73515 8.56093L6.94706 7.7746C6.71718 7.54296 6.37909 7.55898 6.17499 7.75507C5.96913 7.96718 5.96737 8.29277 6.19901 8.52265ZM10.0883 4.00624C9.79277 4.00624 9.55585 4.26269 9.55585 4.5662L9.55585 6.2373L9.58515 6.54472L9.55566 6.5205L8.95663 5.9207C8.8537 5.8205 8.71347 5.74609 8.57167 5.74609C8.3037 5.74609 8.10234 5.95722 8.10234 6.21542C8.10234 6.35195 8.15898 6.47792 8.28144 6.59237L9.72011 7.94843C9.84433 8.06464 9.95878 8.11523 10.0883 8.11523C10.2178 8.11523 10.3322 8.06464 10.4564 7.94843L11.8951 6.59237C12.0256 6.47792 12.0742 6.35195 12.0742 6.21542C12.0742 5.95722 11.8728 5.74609 11.6049 5.74609C11.4631 5.74609 11.3131 5.8205 11.2279 5.9207L10.6867 6.48847L10.5914 6.56875L10.6207 6.2373L10.6207 4.5662C10.6207 4.26269 10.382 4.00624 10.0883 4.00624ZM12.4299 9.33476C12.6375 9.53886 12.9641 9.5371 13.1957 9.30722L13.9775 8.52265C14.2012 8.29277 14.2074 7.96718 14.0016 7.75507C13.7975 7.54296 13.4594 7.55097 13.2277 7.7746L12.4494 8.56093C12.2178 8.79257 12.2098 9.11914 12.4299 9.33476ZM13.9568 12.0246L15.0541 12.0246C15.3834 12.0246 15.6203 11.7877 15.6203 11.4939C15.6203 11.2047 15.3834 10.9678 15.0541 10.9678L13.9568 10.9678C13.6453 10.9678 13.3809 11.1967 13.3809 11.4939C13.3809 11.7957 13.6453 12.0246 13.9568 12.0246ZM12.7539 11.6586C12.7539 10.1971 11.548 8.9832 10.0883 8.9832C8.63652 8.9832 7.42265 10.1971 7.42265 11.6586C7.42265 11.9252 7.4707 12.1891 7.55781 12.4459L12.6187 12.4459C12.7059 12.1891 12.7539 11.9252 12.7539 11.6586ZM5.13729 14.173L15.0393 14.173C15.3523 14.173 15.6203 13.9301 15.6203 13.6205C15.6203 13.3109 15.3604 13.068 15.0393 13.068L5.13729 13.068C4.82421 13.068 4.55624 13.3127 4.55624 13.6205C4.55624 13.9266 4.83397 14.173 5.13729 14.173Z" fill="white" fill-opacity="0.85"/>
 </g>
</svg>
