<?xml version="1.0" encoding="UTF-8"?>
<!--Generator: Apple Native CoreSVG 341-->
<!DOCTYPE svg
PUBLIC "-//W3C//DTD SVG 1.1//EN"
       "http://www.w3.org/Graphics/SVG/1.1/DTD/svg11.dtd">
<svg version="1.1" xmlns="http://www.w3.org/2000/svg" xmlns:xlink="http://www.w3.org/1999/xlink" viewBox="0 0 25.1486 26.1091">
 <g>
  <rect height="26.1091" opacity="0" width="25.1486" x="0" y="0"/>
  <path d="M1.14747 24.9579C2.41642 26.2268 4.0793 26.4407 6.21368 25.6295C9.66367 24.3008 13.624 21.4348 17.3146 17.7424C24.2139 10.8432 26.4431 5.43132 23.5617 2.55164C20.682-0.328047 15.2621 1.89324 8.3629 8.79245C4.67052 12.4813 1.81251 16.4514 0.483803 19.8997C-0.337095 22.0243-0.111704 23.6907 1.14747 24.9579ZM2.44356 23.6698C1.63106 22.8493 1.57422 21.7081 2.2711 20.1784C3.81739 16.8346 6.49102 13.2503 9.65098 10.0805C15.7127 4.01706 20.2164 1.78249 22.2656 3.83971C24.3309 5.89694 22.0883 10.3944 16.0266 16.4561C12.8648 19.6241 9.27071 22.2879 5.93497 23.8342C4.40352 24.5391 3.25606 24.4805 2.44356 23.6698ZM1.56388 23.9141L2.18946 24.5495L23.0637 3.68503L22.4266 3.05144Z" fill="white" fill-opacity="0.85"/>
 </g>
</svg>
