<?xml version="1.0" encoding="UTF-8"?>
<!--Generator: Apple Native CoreSVG 341-->
<!DOCTYPE svg
PUBLIC "-//W3C//DTD SVG 1.1//EN"
       "http://www.w3.org/Graphics/SVG/1.1/DTD/svg11.dtd">
<svg version="1.1" xmlns="http://www.w3.org/2000/svg" xmlns:xlink="http://www.w3.org/1999/xlink" viewBox="0 0 8.66249 23.114">
 <g>
  <rect height="23.114" opacity="0" width="8.66249" x="0" y="0"/>
  <path d="M4.15234 6.81503C6.03534 6.81503 7.55897 5.29765 7.55897 3.40663C7.55897 1.52539 6.03534 0 4.15234 0C2.26933 0 0.745703 1.52539 0.745703 3.40663C0.745703 5.29765 2.26933 6.81503 4.15234 6.81503ZM4.15234 5.28437C3.11132 5.28437 2.27811 4.44765 2.27811 3.40663C2.27811 2.36737 3.11132 1.53241 4.15234 1.53241C5.19336 1.53241 6.02656 2.36737 6.02656 3.40663C6.02656 4.44765 5.19336 5.28437 4.15234 5.28437ZM0.760154 7.72851L7.54901 7.72851C7.96679 7.72851 8.30116 7.38612 8.30116 6.96835C8.30116 6.54707 7.96679 6.21445 7.54901 6.21445L0.760154 6.21445C0.334374 6.21445 0 6.54707 0 6.96835C0 7.38612 0.334374 7.72851 0.760154 7.72851ZM0.760154 10.958L7.54901 10.958C7.96679 10.958 8.30116 10.6156 8.30116 10.1961C8.30116 9.77831 7.96679 9.44394 7.54901 9.44394L0.760154 9.44394C0.334374 9.44394 0 9.77831 0 10.1961C0 10.6156 0.334374 10.958 0.760154 10.958ZM0.760154 14.2195L7.54901 14.2195C7.96679 14.2195 8.30116 13.8834 8.30116 13.4674C8.30116 13.0496 7.96679 12.7055 7.54901 12.7055L0.760154 12.7055C0.334374 12.7055 0 13.0496 0 13.4674C0 13.8834 0.334374 14.2195 0.760154 14.2195ZM1.31562 13.5949L1.31562 17.7473C1.31562 19.0726 1.95761 19.7146 3.24921 19.7146L5.0582 19.7146C6.34355 19.7146 6.99354 19.0726 6.99354 17.7473L6.99354 13.5949ZM4.15234 23.1043C5.38378 23.1043 6.37655 22.1097 6.37655 20.8863C6.37655 19.6549 5.38378 18.6621 4.15234 18.6621C2.9289 18.6621 1.93613 19.6549 1.93613 20.8863C1.93613 22.1097 2.9289 23.1043 4.15234 23.1043ZM4.15234 21.6838C3.71542 21.6838 3.35488 21.3232 3.35488 20.8863C3.35488 20.4432 3.71542 20.0826 4.15234 20.0826C4.59726 20.0826 4.95781 20.4432 4.95781 20.8863C4.95781 21.3232 4.59726 21.6838 4.15234 21.6838Z" fill="white" fill-opacity="0.85"/>
 </g>
</svg>
