<?xml version="1.0" encoding="UTF-8"?>
<!--Generator: Apple Native CoreSVG 341-->
<!DOCTYPE svg
PUBLIC "-//W3C//DTD SVG 1.1//EN"
       "http://www.w3.org/Graphics/SVG/1.1/DTD/svg11.dtd">
<svg version="1.1" xmlns="http://www.w3.org/2000/svg" xmlns:xlink="http://www.w3.org/1999/xlink" viewBox="0 0 37.7562 21.9828">
 <g>
  <rect height="21.9828" opacity="0" width="37.7562" x="0" y="0"/>
  <path d="M30.4209 3.50977L31.7586 4.57968L34.2937 1.99472C34.5342 1.75604 34.7988 1.65761 35.15 1.65761L36.5377 1.65761C37.0607 1.65761 37.3949 1.31015 37.3949 0.819917C37.3949 0.329685 37.0572 0 36.5377 0L35.2703 0C34.3207 0 33.6279 0.250195 33.0379 0.846483ZM7.96405 18.8082C9.49393 18.8082 10.7078 17.5961 10.7078 16.0725C10.7078 14.5506 9.48593 13.3287 7.96405 13.3287C6.45019 13.3287 5.22656 14.5506 5.22656 16.0725C5.22656 17.5881 6.45019 18.8082 7.96405 18.8082ZM27.6682 18.8082C29.19 18.8082 30.4119 17.5881 30.4119 16.0725C30.4119 14.5506 29.19 13.3287 27.6682 13.3287C26.1623 13.3287 24.9307 14.5586 24.9307 16.0725C24.9307 17.5881 26.1543 18.8082 27.6682 18.8082ZM33.8873 5.90644L33.4461 5.2584C32.2896 3.5748 30.867 2.90117 28.5398 2.90117L20.7881 2.90117C16.7295 2.90117 15.083 3.30059 12.6588 4.81582L8.74609 7.2707L5.13163 7.71641C1.7207 8.13535 0 9.72207 0 12.4963L0 14.1725C0 15.889 1.01308 16.8935 2.66249 16.8935L4.11016 16.8935C4.05879 16.6293 4.02422 16.3598 4.02422 16.0725C4.02422 13.8922 5.79179 12.1344 7.96405 12.1344C10.1443 12.1344 11.9021 13.8922 11.9021 16.0725C11.9021 16.3598 11.8756 16.6293 11.8162 16.8935L23.8143 16.8935C23.7629 16.6293 23.7283 16.3598 23.7283 16.0725C23.7283 13.9002 25.5039 12.1344 27.6682 12.1344C29.8484 12.1344 31.6062 13.8922 31.6062 16.0725C31.6062 16.3598 31.5797 16.6293 31.5203 16.8935L32.5273 16.8935C34.2855 16.8935 35.1396 15.9408 35.1396 13.9932L35.1396 9.73534C35.1396 8.483 34.6711 7.04433 33.8873 5.90644Z" fill="white" fill-opacity="0.85"/>
 </g>
</svg>
