<?xml version="1.0" encoding="UTF-8"?>
<!--Generator: Apple Native CoreSVG 341-->
<!DOCTYPE svg
PUBLIC "-//W3C//DTD SVG 1.1//EN"
       "http://www.w3.org/Graphics/SVG/1.1/DTD/svg11.dtd">
<svg version="1.1" xmlns="http://www.w3.org/2000/svg" xmlns:xlink="http://www.w3.org/1999/xlink" viewBox="0 0 35.501 24.4004">
 <g>
  <rect height="24.4004" opacity="0" width="35.501" x="0" y="0"/>
  <path d="M7.96405 20.017C9.49393 20.017 10.7078 18.8049 10.7078 17.2812C10.7078 15.7594 9.48593 14.5375 7.96405 14.5375C6.45019 14.5375 5.22656 15.7594 5.22656 17.2812C5.22656 18.7969 6.45019 20.017 7.96405 20.017ZM27.6682 20.017C29.19 20.017 30.4119 18.7969 30.4119 17.2812C30.4119 15.7594 29.19 14.5375 27.6682 14.5375C26.1623 14.5375 24.9307 15.7674 24.9307 17.2812C24.9307 18.7969 26.1543 20.017 27.6682 20.017ZM33.8873 7.11524L33.4461 6.46719C32.2896 4.7836 30.867 4.10997 28.5398 4.10997L20.7881 4.10997C16.7295 4.10997 15.083 4.50938 12.6588 6.02461L8.74609 8.4795L5.13163 8.9252C1.7207 9.34415 0 10.9309 0 13.7051L0 15.3812C0 17.0978 1.01308 18.1023 2.66249 18.1023L4.11016 18.1023C4.05879 17.8381 4.02422 17.5685 4.02422 17.2812C4.02422 15.101 5.79179 13.3432 7.96405 13.3432C10.1443 13.3432 11.9021 15.101 11.9021 17.2812C11.9021 17.5685 11.8756 17.8381 11.8162 18.1023L23.8143 18.1023C23.7629 17.8381 23.7283 17.5685 23.7283 17.2812C23.7283 15.109 25.5039 13.3432 27.6682 13.3432C29.8484 13.3432 31.6062 15.101 31.6062 17.2812C31.6062 17.5685 31.5797 17.8381 31.5203 18.1023L32.5273 18.1023C34.2855 18.1023 35.1396 17.1496 35.1396 15.2019L35.1396 10.9441C35.1396 9.6918 34.6711 8.25313 33.8873 7.11524ZM19.3566 13.7094C18.525 13.7094 17.8633 13.0732 17.8633 12.2867C17.8633 11.502 18.509 10.8801 19.3566 10.8801C20.1945 10.8801 20.843 11.502 20.843 12.2867C20.843 13.0732 20.1865 13.7094 19.3566 13.7094ZM19.3566 9.07402C18.7408 9.07402 18.3225 8.67149 18.2977 8.04141L18.0838 1.2623C18.0555 0.50527 18.5625 0 19.3531 0C20.1402 0 20.6455 0.50527 20.6189 1.2623L20.4023 8.03614C20.3775 8.67149 19.9707 9.07402 19.3566 9.07402Z" fill="white" fill-opacity="0.85"/>
 </g>
</svg>
