<?xml version="1.0" encoding="UTF-8"?>
<!--Generator: Apple Native CoreSVG 341-->
<!DOCTYPE svg
PUBLIC "-//W3C//DTD SVG 1.1//EN"
       "http://www.w3.org/Graphics/SVG/1.1/DTD/svg11.dtd">
<svg version="1.1" xmlns="http://www.w3.org/2000/svg" xmlns:xlink="http://www.w3.org/1999/xlink" viewBox="0 0 35.501 24.4884">
 <g>
  <rect height="24.4884" opacity="0" width="35.501" x="0" y="0"/>
  <path d="M2.66249 18.1463L5.85604 18.1463L5.85604 16.2489L2.84882 16.2489C2.24921 16.2489 1.89745 15.8473 1.89745 15.1579L1.89745 13.7491C1.89745 12.0784 2.98847 11.1571 5.37538 10.8534L9.39569 10.3518L13.6709 7.69046C15.8098 6.35511 17.0539 6.0514 20.7881 6.0514L28.5398 6.0514C30.1941 6.0514 31.1021 6.48851 31.8818 7.59769L32.323 8.23246C32.9047 9.06898 33.2422 10.0903 33.2422 10.9881L33.2422 15.1819C33.2422 15.9122 32.9553 16.2489 32.2988 16.2489L29.9193 16.2489L29.9193 18.1463L32.5273 18.1463C34.2855 18.1463 35.1396 17.1936 35.1396 15.2459L35.1396 10.9881C35.1396 9.73578 34.6711 8.29711 33.8873 7.15922L33.4461 6.51118C32.2896 4.82758 30.867 4.15395 28.5398 4.15395L20.7881 4.15395C16.7295 4.15395 15.083 4.55337 12.6588 6.0686L8.74609 8.52348L5.13163 8.96919C1.7207 9.38813 0 10.9748 0 13.7491L0 15.4252C0 17.1418 1.01308 18.1463 2.66249 18.1463ZM10.1373 18.1463L25.5379 18.1463L25.5379 16.2489L10.1373 16.2489ZM7.96405 20.3746C9.91991 20.3746 11.4621 18.8325 11.4621 16.8766C11.4621 14.9172 9.91991 13.375 7.96405 13.375C6.00644 13.375 4.46426 14.9172 4.46426 16.8766C4.46426 18.8325 6.00644 20.3746 7.96405 20.3746ZM7.96405 18.5457C7.02948 18.5457 6.3037 17.82 6.3037 16.8854C6.3037 15.9508 7.02948 15.225 7.96405 15.225C8.89863 15.225 9.62441 15.9508 9.62441 16.8854C9.62441 17.82 8.89863 18.5457 7.96405 18.5457ZM27.71 20.3746C29.6658 20.3746 31.208 18.8325 31.208 16.8766C31.208 14.9172 29.6658 13.375 27.71 13.375C25.7523 13.375 24.2102 14.9172 24.2102 16.8766C24.2102 18.8325 25.7523 20.3746 27.71 20.3746ZM27.71 18.5457C26.7754 18.5457 26.0496 17.82 26.0496 16.8854C26.0496 15.9508 26.7754 15.225 27.71 15.225C28.6428 15.225 29.3703 15.9508 29.3703 16.8854C29.3703 17.82 28.6428 18.5457 27.71 18.5457Z" fill="white" fill-opacity="0.85"/>
  <path d="M15.6369 19.5983C15.0498 19.5983 14.7971 20.0965 15.1049 20.5994L17.2486 24.1278C17.5369 24.6174 18.1363 24.5996 18.4228 24.1278L20.5746 20.5994C20.8842 20.093 20.6137 19.5983 20.0363 19.5983Z" fill="white" fill-opacity="0.85"/>
 </g>
</svg>
