<?xml version="1.0" encoding="UTF-8"?>
<!--Generator: Apple Native CoreSVG 341-->
<!DOCTYPE svg
PUBLIC "-//W3C//DTD SVG 1.1//EN"
       "http://www.w3.org/Graphics/SVG/1.1/DTD/svg11.dtd">
<svg version="1.1" xmlns="http://www.w3.org/2000/svg" xmlns:xlink="http://www.w3.org/1999/xlink" viewBox="0 0 33.0439 26.3707">
 <g>
  <rect height="26.3707" opacity="0" width="33.0439" x="0" y="0"/>
  <path d="M2.47441 19.2437L5.383 19.2437L5.383 17.3365L2.64394 17.3365C2.15702 17.3365 1.90546 17.0512 1.90546 16.4584L1.90546 15.1517C1.90546 13.6603 2.83319 12.8668 5.01327 12.6004L8.78944 12.1343L12.7947 9.63279C14.756 8.41462 15.8697 8.13044 19.3287 8.13044L26.5443 8.13044C28.0486 8.13044 28.8422 8.51521 29.534 9.5072L29.9557 10.1029C30.4769 10.8595 30.7754 11.7761 30.7754 12.5781L30.7754 16.4824C30.7754 17.1115 30.5904 17.3365 30.0369 17.3365L27.8594 17.3365L27.8594 19.2437L30.2469 19.2437C31.8844 19.2437 32.6826 18.3629 32.6826 16.5439L32.6826 12.5781C32.6826 11.4252 32.2504 10.0762 31.5199 9.02791L31.1 8.42069C30.0217 6.86756 28.7099 6.23299 26.5443 6.23299L19.3287 6.23299C15.5551 6.23299 14.0373 6.59334 11.7728 8.01541L8.1416 10.298L4.77929 10.7064C1.59824 11.0978 0 12.5781 0 15.1517L0 16.7107C0 18.3111 0.93945 19.2437 2.47441 19.2437ZM7.40488 19.514C6.58144 19.514 5.96054 18.8931 5.96054 18.0715C5.96054 17.24 6.58144 16.6191 7.40488 16.6191C8.23105 16.6191 8.85546 17.24 8.85546 18.0715C8.85546 18.8931 8.23105 19.514 7.40488 19.514ZM7.40488 21.3158C9.22499 21.3158 10.666 19.8863 10.666 18.0644C10.666 16.2373 9.22499 14.806 7.40488 14.806C5.58925 14.806 4.15801 16.2373 4.15801 18.0644C4.15801 19.8863 5.58925 21.3158 7.40488 21.3158ZM9.6121 19.2437L23.4473 19.2437L23.4473 17.3365L9.6121 17.3365ZM25.7703 21.3158C27.5842 21.3158 29.0314 19.8863 29.0314 18.0644C29.0314 16.2373 27.5842 14.806 25.7703 14.806C23.9547 14.806 22.5252 16.2373 22.5252 18.0644C22.5252 19.8863 23.9547 21.3158 25.7703 21.3158ZM25.7703 19.514C24.9486 19.514 24.3277 18.8931 24.3277 18.0715C24.3277 17.24 24.9486 16.6191 25.7703 16.6191C26.5982 16.6191 27.2227 17.24 27.2227 18.0715C27.2227 18.8931 26.5982 19.514 25.7703 19.514Z" fill="white" fill-opacity="0.85"/>
  <path d="M16.2863 4.6662L28.2516 4.6662C29.1207 4.6662 29.5609 4.13554 29.5609 3.23378L29.5609 2.25293C29.5609 0.759569 28.8207 0 27.1449 0L23.4807 0C21.6992 0 20.3545 0.434376 18.0916 1.40781L15.9516 2.33984C15.2668 2.6457 15.0539 3.07793 15.0539 3.57167C15.0539 4.26015 15.443 4.6662 16.2863 4.6662Z" fill="white" fill-opacity="0.85"/>
 </g>
</svg>
