<?xml version="1.0" encoding="UTF-8"?>
<!--Generator: Apple Native CoreSVG 341-->
<!DOCTYPE svg
PUBLIC "-//W3C//DTD SVG 1.1//EN"
       "http://www.w3.org/Graphics/SVG/1.1/DTD/svg11.dtd">
<svg version="1.1" xmlns="http://www.w3.org/2000/svg" xmlns:xlink="http://www.w3.org/1999/xlink" viewBox="0 0 35.501 16.3804">
 <g>
  <rect height="16.3804" opacity="0" width="35.501" x="0" y="0"/>
  <path d="M0.850971 1.65761L3.89941 1.65761C4.29062 1.65761 4.56504 1.75604 4.81171 2.00272L8.28203 5.46854L9.83866 4.60781L6.07733 0.84824C5.47753 0.250195 4.76874 0 3.77285 0L0.850971 0C0.329685 0 0 0.331443 0 0.819917C0 1.31015 0.327927 1.65761 0.850971 1.65761ZM7.96405 16.007C9.49393 16.007 10.7078 14.7949 10.7078 13.2713C10.7078 11.7494 9.48593 10.5275 7.96405 10.5275C6.45019 10.5275 5.22656 11.7494 5.22656 13.2713C5.22656 14.7869 6.45019 16.007 7.96405 16.007ZM27.6682 16.007C29.19 16.007 30.4119 14.7869 30.4119 13.2713C30.4119 11.7494 29.19 10.5275 27.6682 10.5275C26.1623 10.5275 24.9307 11.7574 24.9307 13.2713C24.9307 14.7869 26.1543 16.007 27.6682 16.007ZM33.8873 3.10527L33.4461 2.45722C32.2896 0.773627 30.867 0.0999951 28.5398 0.0999951L20.7881 0.0999951C16.7295 0.0999951 15.083 0.499409 12.6588 2.01464L8.74609 4.46953L5.13163 4.91523C1.7207 5.33417 0 6.92089 0 9.6951L0 11.3713C0 13.0879 1.01308 14.0924 2.66249 14.0924L4.11016 14.0924C4.05879 13.8281 4.02422 13.5586 4.02422 13.2713C4.02422 11.091 5.79179 9.3332 7.96405 9.3332C10.1443 9.3332 11.9021 11.091 11.9021 13.2713C11.9021 13.5586 11.8756 13.8281 11.8162 14.0924L23.8143 14.0924C23.7629 13.8281 23.7283 13.5586 23.7283 13.2713C23.7283 11.099 25.5039 9.3332 27.6682 9.3332C29.8484 9.3332 31.6062 11.091 31.6062 13.2713C31.6062 13.5586 31.5797 13.8281 31.5203 14.0924L32.5273 14.0924C34.2855 14.0924 35.1396 13.1396 35.1396 11.192L35.1396 6.93417C35.1396 5.68183 34.6711 4.24316 33.8873 3.10527Z" fill="white" fill-opacity="0.85"/>
 </g>
</svg>
