<?xml version="1.0" encoding="UTF-8"?>
<!--Generator: Apple Native CoreSVG 341-->
<!DOCTYPE svg
PUBLIC "-//W3C//DTD SVG 1.1//EN"
       "http://www.w3.org/Graphics/SVG/1.1/DTD/svg11.dtd">
<svg version="1.1" xmlns="http://www.w3.org/2000/svg" xmlns:xlink="http://www.w3.org/1999/xlink" viewBox="0 0 35.501 16.3804">
 <g>
  <rect height="16.3804" opacity="0" width="35.501" x="0" y="0"/>
  <path d="M0.850971 1.65761L3.89941 1.65761C4.29062 1.65761 4.56504 1.75604 4.81171 2.00272L8.28203 5.46854L9.83866 4.60781L6.07733 0.84824C5.47753 0.250195 4.76874 0 3.77285 0L0.850971 0C0.329685 0 0 0.331443 0 0.819917C0 1.31015 0.327927 1.65761 0.850971 1.65761ZM2.66249 14.0924L5.85604 14.0924L5.85604 12.1949L2.84882 12.1949C2.24921 12.1949 1.89745 11.7934 1.89745 11.1039L1.89745 9.6951C1.89745 8.0244 2.98847 7.10311 5.37538 6.7994L9.39569 6.29783L13.6709 3.63651C15.8098 2.30115 17.0539 1.99744 20.7881 1.99744L28.5398 1.99744C30.1941 1.99744 31.1021 2.43455 31.8818 3.54373L32.323 4.1785C32.9047 5.01502 33.2422 6.03631 33.2422 6.93417L33.2422 11.1279C33.2422 11.8582 32.9553 12.1949 32.2988 12.1949L29.9193 12.1949L29.9193 14.0924L32.5273 14.0924C34.2855 14.0924 35.1396 13.1396 35.1396 11.192L35.1396 6.93417C35.1396 5.68183 34.6711 4.24316 33.8873 3.10527L33.4461 2.45722C32.2896 0.773627 30.867 0.0999951 28.5398 0.0999951L20.7881 0.0999951C16.7295 0.0999951 15.083 0.499409 12.6588 2.01464L8.74609 4.46953L5.13163 4.91523C1.7207 5.33417 0 6.92089 0 9.6951L0 11.3713C0 13.0879 1.01308 14.0924 2.66249 14.0924ZM10.1373 14.0924L25.5379 14.0924L25.5379 12.1949L10.1373 12.1949ZM7.96405 16.3207C9.91991 16.3207 11.4621 14.7785 11.4621 12.8226C11.4621 10.8633 9.91991 9.32109 7.96405 9.32109C6.00644 9.32109 4.46426 10.8633 4.46426 12.8226C4.46426 14.7785 6.00644 16.3207 7.96405 16.3207ZM7.96405 14.4918C7.02948 14.4918 6.3037 13.766 6.3037 12.8314C6.3037 11.8969 7.02948 11.1711 7.96405 11.1711C8.89863 11.1711 9.62441 11.8969 9.62441 12.8314C9.62441 13.766 8.89863 14.4918 7.96405 14.4918ZM27.71 16.3207C29.6658 16.3207 31.208 14.7785 31.208 12.8226C31.208 10.8633 29.6658 9.32109 27.71 9.32109C25.7523 9.32109 24.2102 10.8633 24.2102 12.8226C24.2102 14.7785 25.7523 16.3207 27.71 16.3207ZM27.71 14.4918C26.7754 14.4918 26.0496 13.766 26.0496 12.8314C26.0496 11.8969 26.7754 11.1711 27.71 11.1711C28.6428 11.1711 29.3703 11.8969 29.3703 12.8314C29.3703 13.766 28.6428 14.4918 27.71 14.4918Z" fill="white" fill-opacity="0.85"/>
 </g>
</svg>
