<?xml version="1.0" encoding="UTF-8"?>
<!--Generator: Apple Native CoreSVG 341-->
<!DOCTYPE svg
PUBLIC "-//W3C//DTD SVG 1.1//EN"
       "http://www.w3.org/Graphics/SVG/1.1/DTD/svg11.dtd">
<svg version="1.1" xmlns="http://www.w3.org/2000/svg" xmlns:xlink="http://www.w3.org/1999/xlink" viewBox="0 0 35.501 16.1805">
 <g>
  <rect height="16.1805" opacity="0" width="35.501" x="0" y="0"/>
  <path d="M7.96405 15.907C9.49393 15.907 10.7078 14.6949 10.7078 13.1713C10.7078 11.6494 9.48593 10.4275 7.96405 10.4275C6.45019 10.4275 5.22656 11.6494 5.22656 13.1713C5.22656 14.6869 6.45019 15.907 7.96405 15.907ZM27.6682 15.907C29.19 15.907 30.4119 14.6869 30.4119 13.1713C30.4119 11.6494 29.19 10.4275 27.6682 10.4275C26.1623 10.4275 24.9307 11.6574 24.9307 13.1713C24.9307 14.6869 26.1543 15.907 27.6682 15.907ZM33.8873 3.00527L33.4461 2.35722C32.2896 0.673632 30.867 0 28.5398 0L20.7881 0C16.7295 0 15.083 0.399414 12.6588 1.91465L8.74609 4.36953L5.13163 4.81523C1.7207 5.23418 0 6.8209 0 9.59511L0 11.2713C0 12.9879 1.01308 13.9924 2.66249 13.9924L4.11016 13.9924C4.05879 13.7281 4.02422 13.4586 4.02422 13.1713C4.02422 10.991 5.79179 9.2332 7.96405 9.2332C10.1443 9.2332 11.9021 10.991 11.9021 13.1713C11.9021 13.4586 11.8756 13.7281 11.8162 13.9924L23.8143 13.9924C23.7629 13.7281 23.7283 13.4586 23.7283 13.1713C23.7283 10.999 25.5039 9.2332 27.6682 9.2332C29.8484 9.2332 31.6062 10.991 31.6062 13.1713C31.6062 13.4586 31.5797 13.7281 31.5203 13.9924L32.5273 13.9924C34.2855 13.9924 35.1396 13.0396 35.1396 11.092L35.1396 6.83417C35.1396 5.58183 34.6711 4.14316 33.8873 3.00527Z" fill="white" fill-opacity="0.85"/>
 </g>
</svg>
