<?xml version="1.0" encoding="UTF-8"?>
<!--Generator: Apple Native CoreSVG 341-->
<!DOCTYPE svg
PUBLIC "-//W3C//DTD SVG 1.1//EN"
       "http://www.w3.org/Graphics/SVG/1.1/DTD/svg11.dtd">
<svg version="1.1" xmlns="http://www.w3.org/2000/svg" xmlns:xlink="http://www.w3.org/1999/xlink" viewBox="0 0 20.6381 24.4957">
 <g>
  <rect height="24.4957" opacity="0" width="20.6381" x="0" y="0"/>
  <path d="M12.1168 18.774L14.9361 18.774C16.8666 18.774 17.758 17.7822 17.758 15.6205L17.758 10.8346C17.758 9.44374 17.2344 7.86836 16.3769 6.60176L15.8789 5.86758C14.6098 3.99668 13.0459 3.26621 10.4453 3.26621L1.72871 3.26621C1.09863 3.26621 0.528905 3.28398 0 3.29551L0 5.20272C0.517382 5.1912 1.08711 5.17342 1.72871 5.17342L10.4453 5.17342C12.3518 5.17342 13.4 5.70116 14.2951 6.9621L14.8012 7.67499C15.4707 8.62421 15.8508 9.808 15.8508 10.8346L15.8508 15.5549C15.8508 16.4289 15.4787 16.8748 14.6785 16.8748L12.1168 16.8748ZM0.00800788 18.774L6.95702 18.774L6.95702 16.8748L0.00800788 16.8748ZM9.52148 21.2855C11.6646 21.2855 13.3418 19.6182 13.3418 17.467C13.3418 15.3186 11.6646 13.6494 9.52148 13.6494C7.3748 13.6494 5.69141 15.3186 5.69141 17.467C5.69141 19.6182 7.3748 21.2855 9.52148 21.2855ZM9.52148 19.4539C8.40937 19.4539 7.53359 18.5879 7.53359 17.4758C7.53359 16.3619 8.40937 15.4959 9.52148 15.4959C10.6238 15.4959 11.5014 16.3619 11.5014 17.4758C11.5014 18.5879 10.6238 19.4539 9.52148 19.4539ZM12.2994 4.14121L13.6291 5.22089L16.8117 1.99472C17.0504 1.75429 17.307 1.65761 17.668 1.65761L19.4258 1.65761C19.9488 1.65761 20.2767 1.31015 20.2767 0.819917C20.2767 0.331443 19.9471 0 19.4258 0L17.7865 0C16.8369 0 16.1441 0.248437 15.5541 0.84824Z" fill="white" fill-opacity="0.85"/>
 </g>
</svg>
