<?xml version="1.0" encoding="UTF-8"?>
<!--Generator: Apple Native CoreSVG 341-->
<!DOCTYPE svg
PUBLIC "-//W3C//DTD SVG 1.1//EN"
       "http://www.w3.org/Graphics/SVG/1.1/DTD/svg11.dtd">
<svg version="1.1" xmlns="http://www.w3.org/2000/svg" xmlns:xlink="http://www.w3.org/1999/xlink" viewBox="0 0 33.2369 24.8457">
 <g>
  <rect height="24.8457" opacity="0" width="33.2369" x="0" y="0"/>
  <path d="M9.64744 11.3369C10.708 11.9422 12.04 11.5881 12.6551 10.5258C13.2638 9.47323 12.8982 8.13319 11.8457 7.52616C10.7931 6.91913 9.45135 7.27323 8.84432 8.33553C8.23729 9.38807 8.59315 10.7281 9.64744 11.3369ZM23.3576 19.2494C24.4084 19.8547 25.7502 19.5006 26.3572 18.448C26.966 17.3857 26.6084 16.0537 25.5558 15.4387C24.5033 14.8396 23.1535 15.1937 22.5545 16.248C21.9394 17.3006 22.3051 18.6406 23.3576 19.2494ZM32.8549 12.7674L32.806 12.1441C32.6791 10.5172 31.9584 9.47069 30.3402 8.5369L24.958 5.42811C22.1277 3.79725 20.8308 3.41288 18.5369 3.50077L14.8281 3.63397L12.1297 2.4912C9.591 1.41093 7.75741 1.82362 6.6453 3.75585L5.9785 4.91717C5.29003 6.10428 5.58534 7.20994 6.73358 7.86658L7.74315 8.45936C7.81327 8.25272 7.90018 8.05233 8.01014 7.84745C8.88163 6.33612 10.8144 5.8205 12.3258 6.69999C13.8433 7.57147 14.3545 9.49451 13.4812 11.0138C13.3713 11.209 13.2383 11.3863 13.0937 11.5451L21.4533 16.3719C21.5154 16.1652 21.6023 15.9648 21.7203 15.768C22.5918 14.2584 24.5326 13.741 26.0359 14.6125C27.5455 15.484 28.0646 17.415 27.1914 18.9264C27.0734 19.1215 26.9484 19.2988 26.8039 19.4594L27.5019 19.8635C28.726 20.5691 29.692 20.2523 30.4812 18.8887L32.19 15.9336C32.6871 15.0699 32.941 13.8734 32.8549 12.7674Z" fill="white" fill-opacity="0.85"/>
  <path d="M0.127921 8.73963C-0.135358 9.20232 0.0242112 9.774 0.455849 10.0275L25.8564 24.6916C26.2881 24.9388 26.8678 24.797 27.115 24.3539C27.3801 23.8912 27.2205 23.3195 26.7969 23.066L1.38826 8.40193C0.964635 8.15467 0.376943 8.29647 0.127921 8.73963Z" fill="white" fill-opacity="0.85"/>
  <path d="M3.43046 4.70467L5.51737 1.10253C5.88729 0.457607 5.36484-0.110946 4.71015 0.0185458L1.54101 0.615811C1.07968 0.704482 0.868551 1.06464 1.03183 1.51444L2.09101 4.54413C2.31015 5.18905 3.05878 5.34959 3.43046 4.70467Z" fill="white" fill-opacity="0.85"/>
 </g>
</svg>
