<?xml version="1.0" encoding="UTF-8"?>
<!--Generator: Apple Native CoreSVG 341-->
<!DOCTYPE svg
PUBLIC "-//W3C//DTD SVG 1.1//EN"
       "http://www.w3.org/Graphics/SVG/1.1/DTD/svg11.dtd">
<svg version="1.1" xmlns="http://www.w3.org/2000/svg" xmlns:xlink="http://www.w3.org/1999/xlink" viewBox="0 0 20.6107 24.1293">
 <g>
  <rect height="24.1293" opacity="0" width="20.6107" x="0" y="0"/>
  <path d="M0 3.18984L0 18.9041L5.00118 18.9041C4.94004 18.607 4.90997 18.3029 4.90997 17.9766C4.90997 15.5346 6.90469 13.5451 9.34492 13.5451C11.7896 13.5451 13.7728 15.5266 13.7728 17.9766C13.7728 18.3029 13.7383 18.607 13.6691 18.9041L14.8058 18.9041C16.7779 18.9041 17.7402 17.8351 17.7402 15.6416L17.7402 10.8396C17.7402 9.44355 17.2228 7.8123 16.3441 6.53593L15.8363 5.81152C14.5344 3.92734 12.9439 3.17031 10.3168 3.17031L1.60019 3.17031C1.02773 3.17031 0.492578 3.18008 0 3.18984ZM9.34492 21.2119C11.1312 21.2119 12.5705 19.7664 12.5705 17.9766C12.5705 16.185 11.1312 14.7475 9.34492 14.7475C7.56309 14.7475 6.1043 16.193 6.1043 17.9766C6.1043 19.7664 7.55508 21.2119 9.34492 21.2119ZM12.2641 4.14922L13.6017 5.22714L16.7844 2.00097C17.015 1.76054 17.2814 1.65585 17.6326 1.65585L19.3922 1.65585C19.9135 1.65585 20.2494 1.3164 20.2494 0.826167C20.2494 0.337693 19.9117 0 19.3922 0L17.7512 0C16.8016 0 16.1185 0.254687 15.5187 0.85449Z" fill="white" fill-opacity="0.85"/>
 </g>
</svg>
