<?xml version="1.0" encoding="UTF-8"?>
<!--Generator: Apple Native CoreSVG 341-->
<!DOCTYPE svg
PUBLIC "-//W3C//DTD SVG 1.1//EN"
       "http://www.w3.org/Graphics/SVG/1.1/DTD/svg11.dtd">
<svg version="1.1" xmlns="http://www.w3.org/2000/svg" xmlns:xlink="http://www.w3.org/1999/xlink" viewBox="0 0 35.501 30.2908">
 <g>
  <rect height="30.2908" opacity="0" width="35.501" x="0" y="0"/>
  <path d="M10.1783 28.1848L24.9406 28.1848C25.3041 28.1848 25.5984 27.8807 25.5984 27.5172C25.5984 27.1635 25.3041 26.8674 24.9406 26.8674L10.1783 26.8674C9.81308 26.8674 9.51875 27.1635 9.51875 27.5172C9.51875 27.8807 9.81308 28.1848 10.1783 28.1848ZM11.6156 29.5389L11.6156 25.5044C11.6156 24.7901 10.9359 24.5354 10.3627 24.9667L7.67168 26.9821C7.30781 27.2581 7.29805 27.7772 7.67168 28.0612L10.3627 30.0811C10.9084 30.4946 11.6156 30.2719 11.6156 29.5389ZM23.5113 29.5389C23.5113 30.2559 24.2008 30.5106 24.7642 30.0811L27.4553 28.0612C27.8289 27.7772 27.8111 27.2483 27.4553 26.9821L24.7642 24.9667C24.199 24.5354 23.5113 24.7901 23.5113 25.5044Z" fill="white" fill-opacity="0.85"/>
  <path d="M2.66249 21.0475L5.85604 21.0475L5.85604 19.1501L2.84882 19.1501C2.24921 19.1501 1.89745 18.7485 1.89745 18.0591L1.89745 16.6503C1.89745 14.9796 2.98847 14.0583 5.37538 13.7546L9.39569 13.253L13.6709 10.5917C15.8098 9.25631 17.0539 8.9526 20.7881 8.9526L28.5398 8.9526C30.1941 8.9526 31.1021 9.38971 31.8818 10.4989L32.323 11.1337C32.9047 11.9702 33.2422 12.9915 33.2422 13.8893L33.2422 18.0831C33.2422 18.8134 32.9553 19.1501 32.2988 19.1501L29.9193 19.1501L29.9193 21.0475L32.5273 21.0475C34.2855 21.0475 35.1396 20.0948 35.1396 18.1471L35.1396 13.8893C35.1396 12.637 34.6711 11.1983 33.8873 10.0604L33.4461 9.41238C32.2896 7.72879 30.867 7.05515 28.5398 7.05515L20.7881 7.05515C16.7295 7.05515 15.083 7.45457 12.6588 8.9698L8.74609 11.4247L5.13163 11.8704C1.7207 12.2893 0 13.876 0 16.6503L0 18.3264C0 20.043 1.01308 21.0475 2.66249 21.0475ZM10.1373 21.0475L25.5379 21.0475L25.5379 19.1501L10.1373 19.1501ZM7.96405 23.2758C9.91991 23.2758 11.4621 21.7337 11.4621 19.7778C11.4621 17.8184 9.91991 16.2762 7.96405 16.2762C6.00644 16.2762 4.46426 17.8184 4.46426 19.7778C4.46426 21.7337 6.00644 23.2758 7.96405 23.2758ZM7.96405 21.4469C7.02948 21.4469 6.3037 20.7212 6.3037 19.7866C6.3037 18.852 7.02948 18.1262 7.96405 18.1262C8.89863 18.1262 9.62441 18.852 9.62441 19.7866C9.62441 20.7212 8.89863 21.4469 7.96405 21.4469ZM27.71 23.2758C29.6658 23.2758 31.208 21.7337 31.208 19.7778C31.208 17.8184 29.6658 16.2762 27.71 16.2762C25.7523 16.2762 24.2102 17.8184 24.2102 19.7778C24.2102 21.7337 25.7523 23.2758 27.71 23.2758ZM27.71 21.4469C26.7754 21.4469 26.0496 20.7212 26.0496 19.7866C26.0496 18.852 26.7754 18.1262 27.71 18.1262C28.6428 18.1262 29.3703 18.852 29.3703 19.7866C29.3703 20.7212 28.6428 21.4469 27.71 21.4469Z" fill="white" fill-opacity="0.85"/>
 </g>
</svg>
