<?xml version="1.0" encoding="UTF-8"?>
<!--Generator: Apple Native CoreSVG 341-->
<!DOCTYPE svg
PUBLIC "-//W3C//DTD SVG 1.1//EN"
       "http://www.w3.org/Graphics/SVG/1.1/DTD/svg11.dtd">
<svg version="1.1" xmlns="http://www.w3.org/2000/svg" xmlns:xlink="http://www.w3.org/1999/xlink" viewBox="0 0 22.7515 21.4965">
 <g>
  <rect height="21.4965" opacity="0" width="22.7515" x="0" y="0"/>
  <path d="M1.44999 18.9656L20.9947 18.9656L20.9947 18.2322C20.9947 17.8064 20.7437 17.551 20.3117 17.551L19.7447 17.551L19.7447 6.98046L20.5865 6.98046C21.1851 6.98046 21.5363 6.53886 21.5363 6.09277C21.5363 5.7664 21.351 5.47734 20.9545 5.24941L12.481 0.359374C12.0764 0.125976 11.6398 0 11.2183 0C10.7969 0 10.3523 0.125976 9.96366 0.359374L1.49023 5.24941C1.08574 5.47734 0.908396 5.7664 0.908396 6.09277C0.908396 6.53886 1.25957 6.98046 1.85995 6.98046L2.69999 6.98046L2.69999 17.551L2.14101 17.551C1.70898 17.551 1.44999 17.8064 1.44999 18.2322ZM4.32401 17.551L4.32401 5.67245L10.8779 1.99999C10.9846 1.93866 11.1072 1.90487 11.2183 1.90487C11.333 1.90487 11.4521 1.93866 11.5668 1.99999L18.1207 5.67245L18.1207 17.551ZM0.881441 21.4867L21.499 21.4867C21.9797 21.4867 22.3902 21.0849 22.3902 20.5972C22.3902 20.1148 21.9797 19.7158 21.499 19.7158L0.881441 19.7158C0.399022 19.7158 0 20.1148 0 20.5972C0 21.0832 0.399022 21.4867 0.881441 21.4867Z" fill="white" fill-opacity="0.85"/>
  <path d="M8.06424 14.3934C8.40838 14.3934 8.64432 14.1477 8.64432 13.7777L8.64432 12.3154L9.17479 11.8045L10.7598 14.0654C10.8875 14.2631 11.0578 14.3934 11.2998 14.3934C11.6058 14.3934 11.8603 14.1689 11.8603 13.8744C11.8603 13.7078 11.7982 13.5871 11.7016 13.4461L10.0226 11.0965L11.5887 9.4619C11.7314 9.30311 11.8051 9.20389 11.8051 9.02733C11.8051 8.74354 11.5824 8.51463 11.2826 8.51463C11.1053 8.51463 10.9269 8.61756 10.8152 8.74432L8.67361 11.0982L8.64432 11.0982L8.64432 6.94607C8.64432 6.57615 8.40838 6.32244 8.06424 6.32244C7.71561 6.32244 7.46991 6.56814 7.46991 6.93806L7.46991 13.7777C7.46991 14.1477 7.71561 14.3934 8.06424 14.3934ZM13.4726 14.3934C13.7537 14.3934 14.0359 14.2135 14.0359 13.7777L14.0359 10.9724C14.0359 10.315 14.268 9.64471 15.041 9.64119C15.2433 9.64119 15.4545 9.60662 15.6062 9.50467C15.7367 9.42752 15.8166 9.29627 15.8166 9.10643C15.8166 8.72928 15.5519 8.51463 15.1801 8.51463C14.5744 8.51463 14.1781 9.0492 14.0439 9.65135L13.9836 9.65135L13.9836 9.10897C13.9836 8.76483 13.7582 8.51463 13.4531 8.51463C13.1383 8.51463 12.9094 8.76483 12.9094 9.10897L12.9094 13.7777C12.9094 14.1477 13.1195 14.3934 13.4726 14.3934Z" fill="white" fill-opacity="0.85"/>
 </g>
</svg>
