<?xml version="1.0" encoding="UTF-8"?>
<!--Generator: Apple Native CoreSVG 341-->
<!DOCTYPE svg
PUBLIC "-//W3C//DTD SVG 1.1//EN"
       "http://www.w3.org/Graphics/SVG/1.1/DTD/svg11.dtd">
<svg version="1.1" xmlns="http://www.w3.org/2000/svg" xmlns:xlink="http://www.w3.org/1999/xlink" viewBox="0 0 24.226 20.1848">
 <g>
  <rect height="20.1848" opacity="0" width="24.226" x="0" y="0"/>
  <path d="M0.721518 8.12363C-0.00973073 8.12363-0.190785 8.66894 0.204136 9.22109L2.47249 12.3723C2.78948 12.8092 3.27757 12.8012 3.58831 12.3723L5.8469 9.21308C6.24007 8.66894 6.051 8.12363 5.33929 8.12363ZM22.0239 10.0875C22.0239 4.51914 17.503 0 11.9364 0C6.368 0 1.85687 4.50937 1.84886 10.099C1.85687 10.6476 2.29378 11.0846 2.83441 11.0846C3.38303 11.0846 3.83596 10.6396 3.83596 10.091C3.83596 5.60839 7.45725 1.9871 11.9364 1.9871C16.4155 1.9871 20.0368 5.60839 20.0368 10.0875C20.0368 14.5666 16.4155 18.1879 11.9364 18.1879C9.3096 18.1879 7.0131 16.9437 5.54279 15.0176C5.1469 14.5609 4.58421 14.4129 4.10726 14.7519C3.66214 15.0734 3.55902 15.725 3.99475 16.2355C5.84631 18.6584 8.71858 20.175 11.9364 20.175C17.503 20.175 22.0239 15.6559 22.0239 10.0875Z" fill="white" fill-opacity="0.85"/>
  <path d="M8.77425 13.9051C9.11663 13.9051 9.35432 13.6514 9.35432 13.2895L9.35432 11.8254L9.88479 11.3162L11.468 13.5772C11.5957 13.7748 11.7678 13.9051 12.008 13.9051C12.3159 13.9051 12.5766 13.6807 12.5766 13.3861C12.5766 13.2195 12.5065 13.0908 12.4116 12.9578L10.7326 10.6082L12.2987 8.96561C12.4414 8.81308 12.5151 8.71562 12.5151 8.53105C12.5151 8.25527 12.2924 8.02636 11.9926 8.02636C11.8233 8.02636 11.6369 8.12128 11.5252 8.25429L9.38186 10.6002L9.35432 10.6002L9.35432 6.44979C9.35432 6.08788 9.11663 5.82616 8.77425 5.82616C8.42386 5.82616 8.17816 6.07987 8.17816 6.44178L8.17816 13.2895C8.17816 13.6514 8.42386 13.9051 8.77425 13.9051ZM14.1826 13.9051C14.4619 13.9051 14.7459 13.7252 14.7459 13.2895L14.7459 10.4762C14.7459 9.82675 14.978 9.14843 15.751 9.14491C15.9534 9.14491 16.1645 9.11835 16.3145 9.0164C16.4467 8.93925 16.5266 8.79999 16.5266 8.61015C16.5266 8.24101 16.2619 8.02636 15.8901 8.02636C15.2844 8.02636 14.8864 8.55116 14.7539 9.16308L14.6936 9.16308L14.6936 8.61269C14.6936 8.27655 14.4682 8.02636 14.1631 8.02636C13.8465 8.02636 13.6194 8.27655 13.6194 8.61269L13.6194 13.2895C13.6194 13.6594 13.8278 13.9051 14.1826 13.9051Z" fill="white" fill-opacity="0.85"/>
 </g>
</svg>
