<?xml version="1.0" encoding="UTF-8"?>
<!--Generator: Apple Native CoreSVG 341-->
<!DOCTYPE svg
PUBLIC "-//W3C//DTD SVG 1.1//EN"
       "http://www.w3.org/Graphics/SVG/1.1/DTD/svg11.dtd">
<svg version="1.1" xmlns="http://www.w3.org/2000/svg" xmlns:xlink="http://www.w3.org/1999/xlink" viewBox="0 0 15.1242 21.6992">
 <g>
  <rect height="21.6992" opacity="0" width="15.1242" x="0" y="0"/>
  <path d="M14.7629 3.20351L14.7629 18.4975C14.7629 20.607 13.6752 21.693 11.5914 21.693L3.17148 21.693C1.07968 21.693 0 20.607 0 18.4975L0 3.20351C0 1.10195 1.07968 0 3.17148 0L11.5914 0C13.6752 0 14.7629 1.10195 14.7629 3.20351ZM3.96796 12.6539C3.39471 12.6539 3.15741 12.8867 3.15741 13.452L3.15741 17.9564C3.15741 18.5315 3.39471 18.7545 3.96796 18.7545L10.7531 18.7545C11.3344 18.7545 11.5717 18.5315 11.5717 17.9564L11.5717 13.452C11.5717 12.8867 11.3344 12.6539 10.7531 12.6539ZM3.96796 2.94647C3.39471 2.94647 3.15741 3.16952 3.15741 3.74452L3.15741 8.24902C3.15741 8.81426 3.39471 9.04707 3.96796 9.04707L10.7531 9.04707C11.3344 9.04707 11.5717 8.81426 11.5717 8.24902L11.5717 3.74452C11.5717 3.16952 11.3344 2.94647 10.7531 2.94647Z" fill="white" fill-opacity="0.85"/>
 </g>
</svg>
