<?xml version="1.0" encoding="UTF-8"?>
<!--Generator: Apple Native CoreSVG 341-->
<!DOCTYPE svg
PUBLIC "-//W3C//DTD SVG 1.1//EN"
       "http://www.w3.org/Graphics/SVG/1.1/DTD/svg11.dtd">
<svg version="1.1" xmlns="http://www.w3.org/2000/svg" xmlns:xlink="http://www.w3.org/1999/xlink" viewBox="0 0 19.2076 19.0082">
 <g>
  <rect height="19.0082" opacity="0" width="19.2076" x="0" y="0"/>
  <path d="M4.31855 18.9824L14.5277 18.9824C16.9318 18.9824 18.8463 17.2857 18.8463 14.8281C18.8463 12.3705 16.9318 10.6756 14.5277 10.6756L4.31855 10.6756C1.91445 10.6756 0 12.3705 0 14.8281C0 17.2857 1.91445 18.9824 4.31855 18.9824ZM11.7432 17.2281C10.3646 17.2281 9.25878 16.2494 9.25878 14.8183C9.25878 13.3935 10.3646 12.4148 11.7432 12.4148L14.6945 12.4148C16.0811 12.4148 17.1789 13.3935 17.1789 14.8264C17.1789 16.2494 16.0811 17.2281 14.6945 17.2281Z" fill="white" fill-opacity="0.85"/>
  <path d="M4.74296 9.17518L14.1016 9.17518C16.7664 9.17518 18.8463 7.32733 18.8463 4.58847C18.8463 1.84785 16.7664 0 14.1016 0L4.74296 0C2.07988 0 0 1.84785 0 4.58847C0 7.32733 2.07988 9.17518 4.74296 9.17518ZM4.74296 7.42285C3.10878 7.42285 1.8162 6.28144 1.8162 4.58847C1.8162 2.8955 3.10878 1.75409 4.74296 1.75409L14.1016 1.75409C15.7357 1.75409 17.0283 2.8955 17.0283 4.58847C17.0283 6.28144 15.7357 7.42285 14.1016 7.42285Z" fill="white" fill-opacity="0.85"/>
  <path d="M4.74296 6.78516L7.53906 6.78516C8.80039 6.78516 9.81035 5.88633 9.81035 4.58847C9.81035 3.28085 8.80039 2.38202 7.53906 2.38202L4.74296 2.38202C3.48163 2.38202 2.47167 3.28085 2.47167 4.58046C2.47167 5.88633 3.48163 6.78516 4.74296 6.78516Z" fill="white" fill-opacity="0.85"/>
 </g>
</svg>
