<?xml version="1.0" encoding="UTF-8"?>
<!--Generator: Apple Native CoreSVG 341-->
<!DOCTYPE svg
PUBLIC "-//W3C//DTD SVG 1.1//EN"
       "http://www.w3.org/Graphics/SVG/1.1/DTD/svg11.dtd">
<svg version="1.1" xmlns="http://www.w3.org/2000/svg" xmlns:xlink="http://www.w3.org/1999/xlink" viewBox="0 0 23.4198 22.8577">
 <g>
  <rect height="22.8577" opacity="0" width="23.4198" x="0" y="0"/>
  <path d="M0.245543 22.5195C0.560189 22.8243 1.05569 22.8111 1.3721 22.4964L5.51077 18.3595L4.3807 17.2392L0.243785 21.3761C-0.0726188 21.6925-0.0903923 22.2031 0.245543 22.5195ZM3.55336 17.272L5.52152 19.2224C6.5721 20.265 8.00511 20.2321 9.10803 19.1292L19.2934 8.94386L18.0219 7.66887L7.8762 17.8243C7.51292 18.1859 7.01995 18.1681 6.6389 17.787L4.98069 16.1386C4.59964 15.7673 4.59964 15.2726 4.97269 14.8995L15.1131 4.7636L13.8336 3.48411L3.64476 13.6792C2.52582 14.8044 2.49301 16.2277 3.55336 17.272ZM5.24261 12.8068L7.60629 15.1802C7.80863 15.3843 8.09515 15.3745 8.29925 15.1722C8.48109 14.9921 8.47132 14.6833 8.29124 14.4952L5.91956 12.1396ZM7.28968 10.7792L9.6516 13.1429C9.84769 13.339 10.1405 13.339 10.3366 13.1429C10.5246 12.9548 10.5086 12.6523 10.3285 12.4659L7.96488 10.1023ZM9.33324 8.7259L11.6969 11.0976C11.893 11.2839 12.184 11.2937 12.3801 11.0976C12.5682 10.9095 12.5664 10.6105 12.3721 10.4126L10.0102 8.04895ZM11.3785 6.6886L13.7405 9.06204C13.9348 9.25012 14.2213 9.24837 14.4174 9.06204C14.609 8.88196 14.5975 8.56341 14.4174 8.37532L12.0475 6.01341ZM12.2125 3.01126L19.7787 10.5792C20.1571 10.9558 20.7694 10.9558 21.1459 10.5792C21.5287 10.2044 21.5305 9.58059 21.1459 9.20403L13.5877 1.64584C13.1916 1.24174 12.5891 1.25952 12.2125 1.64584C11.836 2.0224 11.8182 2.61868 12.2125 3.01126ZM14.1084 3.22181L19.5504 8.68332L20.5172 7.71478C20.8955 7.33822 20.9035 6.72592 20.5172 6.3476L19.2295 5.0599L20.3483 3.93939L21.4024 4.99525C21.7772 5.37181 22.3947 5.37005 22.7695 4.99525C23.1541 4.61068 23.1541 3.99838 22.7695 3.62007L19.4379 0.288426C19.0596-0.0961418 18.4473-0.0961418 18.0627 0.288426C17.6879 0.663227 17.6862 1.2808 18.0627 1.6556L19.1266 2.70971L18.0078 3.83022L16.4406 2.26303C16.0641 1.88647 15.4438 1.88647 15.0655 2.26303Z" fill="white" fill-opacity="0.85"/>
 </g>
</svg>
