<?xml version="1.0" encoding="UTF-8"?>
<!--Generator: Apple Native CoreSVG 341-->
<!DOCTYPE svg
PUBLIC "-//W3C//DTD SVG 1.1//EN"
       "http://www.w3.org/Graphics/SVG/1.1/DTD/svg11.dtd">
<svg version="1.1" xmlns="http://www.w3.org/2000/svg" xmlns:xlink="http://www.w3.org/1999/xlink" viewBox="0 0 20.5381 20.1848">
 <g>
  <rect height="20.1848" opacity="0" width="20.5381" x="0" y="0"/>
  <path d="M20.1767 10.0875C20.1767 15.6478 15.6576 20.175 10.0875 20.175C4.52715 20.175 0 15.6478 0 10.0875C0 4.51914 4.52715 0 10.0875 0C15.6576 0 20.1767 4.51914 20.1767 10.0875ZM6.84648 5.41621C6.34863 5.41621 6.01269 5.71132 6.01269 6.21562C6.01269 6.70214 6.34863 7.01327 6.84648 7.01327L9.07207 7.01327L9.07207 13.6432C9.07207 14.3209 9.41934 14.7738 10.0635 14.7738C10.7201 14.7738 11.0789 14.3352 11.0789 13.6432L11.0789 7.01327L13.3205 7.01327C13.8184 7.01327 14.1623 6.70214 14.1623 6.21562C14.1623 5.71132 13.8184 5.41621 13.3205 5.41621Z" fill="white" fill-opacity="0.85"/>
 </g>
</svg>
