<?xml version="1.0" encoding="UTF-8"?>
<!--Generator: Apple Native CoreSVG 341-->
<!DOCTYPE svg
PUBLIC "-//W3C//DTD SVG 1.1//EN"
       "http://www.w3.org/Graphics/SVG/1.1/DTD/svg11.dtd">
<svg version="1.1" xmlns="http://www.w3.org/2000/svg" xmlns:xlink="http://www.w3.org/1999/xlink" viewBox="0 0 18.5894 18.2316">
 <g>
  <rect height="18.2316" opacity="0" width="18.5894" x="0" y="0"/>
  <path d="M18.2281 3.17148L18.2281 15.0646C18.2281 17.1502 17.1404 18.2281 15.0246 18.2281L3.20351 18.2281C1.0957 18.2281 0 17.1502 0 15.0646L0 3.17148C0 1.08769 1.0957 0 3.20351 0L15.0246 0C17.1404 0 18.2281 1.08769 18.2281 3.17148ZM10.1486 3.93886C9.54843 3.93886 9.28203 4.20097 8.90468 4.58457L4.09726 9.44179C3.44062 10.0984 3.4705 10.7574 4.11562 11.3963L7.01425 14.3109C7.65937 14.9463 8.32284 14.9912 8.98124 14.3328L13.8437 9.5121C14.2193 9.13652 14.4894 8.87812 14.4894 8.26191L14.4894 6.38593C14.4894 5.91464 14.3758 5.64745 14.0527 5.32265L13.1519 4.43164C12.8289 4.11836 12.5617 3.93886 12.0967 3.93886ZM11.9252 6.49159C12.2242 6.78261 12.2277 7.26698 11.9252 7.56776C11.6227 7.87831 11.1418 7.87831 10.8473 7.57577C10.5482 7.28476 10.5465 6.79238 10.849 6.49159C11.1453 6.19081 11.6262 6.19081 11.9252 6.49159Z" fill="white" fill-opacity="0.85"/>
 </g>
</svg>
