<?xml version="1.0" encoding="UTF-8"?>
<!--Generator: Apple Native CoreSVG 341-->
<!DOCTYPE svg
PUBLIC "-//W3C//DTD SVG 1.1//EN"
       "http://www.w3.org/Graphics/SVG/1.1/DTD/svg11.dtd">
<svg version="1.1" xmlns="http://www.w3.org/2000/svg" xmlns:xlink="http://www.w3.org/1999/xlink" viewBox="0 0 18.5894 18.2316">
 <g>
  <rect height="18.2316" opacity="0" width="18.5894" x="0" y="0"/>
  <path d="M3.20351 18.2281L15.0246 18.2281C17.1404 18.2281 18.2281 17.1502 18.2281 15.0646L18.2281 3.17148C18.2281 1.08769 17.1404 0 15.0246 0L3.20351 0C1.0957 0 0 1.08769 0 3.17148L0 15.0646C0 17.1502 1.0957 18.2281 3.20351 18.2281ZM3.31444 16.3148C2.40643 16.3148 1.91327 15.8465 1.91327 14.8977L1.91327 3.34023C1.91327 2.39139 2.40643 1.91503 3.31444 1.91503L14.9137 1.91503C15.8137 1.91503 16.3148 2.39139 16.3148 3.34023L16.3148 14.8977C16.3148 15.8465 15.8137 16.3148 14.9137 16.3148Z" fill="white" fill-opacity="0.85"/>
  <path d="M7.08086 14.1275C7.69941 14.7398 8.33632 14.7812 8.96816 14.1494L13.6393 9.50234C14.0113 9.14628 14.2619 8.8914 14.2619 8.30624L14.2619 6.49491C14.2619 6.04491 14.15 5.78925 13.8482 5.47949L12.9758 4.61503C12.6678 4.31503 12.4103 4.14531 11.9603 4.14531L10.0992 4.14531C9.52558 4.14531 9.25917 4.39765 8.89687 4.76796L4.26132 9.44355C3.63749 10.0754 3.66562 10.706 4.27792 11.3184ZM10.7641 7.6414C10.4766 7.36366 10.4748 6.88632 10.7658 6.59882C11.0471 6.30956 11.5191 6.30956 11.8004 6.59882C12.0861 6.87655 12.0896 7.34413 11.8004 7.63339C11.5094 7.9289 11.0516 7.9289 10.7641 7.6414Z" fill="white" fill-opacity="0.85"/>
 </g>
</svg>
