<?xml version="1.0" encoding="UTF-8"?>
<!--Generator: Apple Native CoreSVG 341-->
<!DOCTYPE svg
PUBLIC "-//W3C//DTD SVG 1.1//EN"
       "http://www.w3.org/Graphics/SVG/1.1/DTD/svg11.dtd">
<svg version="1.1" xmlns="http://www.w3.org/2000/svg" xmlns:xlink="http://www.w3.org/1999/xlink" viewBox="0 0 20.5381 20.1848">
 <g>
  <rect height="20.1848" opacity="0" width="20.5381" x="0" y="0"/>
  <path d="M20.1767 10.0875C20.1767 15.6478 15.6576 20.175 10.0875 20.175C4.52715 20.175 0 15.6478 0 10.0875C0 4.51914 4.52715 0 10.0875 0C15.6576 0 20.1767 4.51914 20.1767 10.0875ZM7.09492 7.33828C6.78984 7.33828 6.57695 7.55917 6.57695 7.84999C6.57695 8.13554 6.78984 8.35468 7.09492 8.35468L9.3918 8.35468L9.3918 14.0678C9.3918 14.5029 9.68613 14.8008 10.0955 14.8008C10.5146 14.8008 10.801 14.5029 10.801 14.0678L10.801 8.35468L13.0818 8.35468C13.3869 8.35468 13.5998 8.13554 13.5998 7.84999C13.5998 7.55917 13.3869 7.33828 13.0818 7.33828ZM6.8789 5.58007C6.70039 5.58007 6.55293 5.72929 6.55293 5.90957C6.55293 6.09785 6.70039 6.23906 6.8789 6.23906L13.2721 6.23906C13.4523 6.23906 13.5998 6.08984 13.5998 5.90957C13.5998 5.72929 13.4523 5.58007 13.2721 5.58007Z" fill="white" fill-opacity="0.85"/>
 </g>
</svg>
