<?xml version="1.0" encoding="UTF-8"?>
<!--Generator: Apple Native CoreSVG 341-->
<!DOCTYPE svg
PUBLIC "-//W3C//DTD SVG 1.1//EN"
       "http://www.w3.org/Graphics/SVG/1.1/DTD/svg11.dtd">
<svg version="1.1" xmlns="http://www.w3.org/2000/svg" xmlns:xlink="http://www.w3.org/1999/xlink" viewBox="0 0 18.5894 18.2316">
 <g>
  <rect height="18.2316" opacity="0" width="18.5894" x="0" y="0"/>
  <path d="M18.2281 3.17148L18.2281 15.0646C18.2281 17.1502 17.1404 18.2281 15.0246 18.2281L3.20351 18.2281C1.0957 18.2281 0 17.1502 0 15.0646L0 3.17148C0 1.08769 1.0957 0 3.20351 0L15.0246 0C17.1404 0 18.2281 1.08769 18.2281 3.17148ZM6.1457 6.36171C5.85039 6.36171 5.62949 6.58261 5.62949 6.87343C5.62949 7.15898 5.85039 7.37812 6.1457 7.37812L8.44258 7.37812L8.44258 13.0912C8.44258 13.5264 8.73867 13.8242 9.15605 13.8242C9.56542 13.8242 9.85175 13.5264 9.85175 13.0912L9.85175 7.37812L12.1326 7.37812C12.4377 7.37812 12.6506 7.15898 12.6506 6.87343C12.6506 6.58261 12.4377 6.36171 12.1326 6.36171ZM5.93144 4.60351C5.75117 4.60351 5.60371 4.75273 5.60371 4.933C5.60371 5.12128 5.75117 5.2625 5.93144 5.2625L12.3228 5.2625C12.5031 5.2625 12.6506 5.11328 12.6506 4.933C12.6506 4.75273 12.5031 4.60351 12.3228 4.60351Z" fill="white" fill-opacity="0.85"/>
 </g>
</svg>
