<?xml version="1.0" encoding="UTF-8"?>
<!--Generator: Apple Native CoreSVG 341-->
<!DOCTYPE svg
PUBLIC "-//W3C//DTD SVG 1.1//EN"
       "http://www.w3.org/Graphics/SVG/1.1/DTD/svg11.dtd">
<svg version="1.1" xmlns="http://www.w3.org/2000/svg" xmlns:xlink="http://www.w3.org/1999/xlink" viewBox="0 0 20.5381 20.1848">
 <g>
  <rect height="20.1848" opacity="0" width="20.5381" x="0" y="0"/>
  <path d="M10.0875 20.175C15.6576 20.175 20.1767 15.6559 20.1767 10.0875C20.1767 4.51914 15.6576 0 10.0875 0C4.51914 0 0 4.51914 0 10.0875C0 15.6559 4.51914 20.175 10.0875 20.175ZM10.0875 18.1879C5.60839 18.1879 1.9871 14.5666 1.9871 10.0875C1.9871 5.60839 5.60839 1.9871 10.0875 1.9871C14.5666 1.9871 18.1897 5.60839 18.1897 10.0875C18.1897 14.5666 14.5666 18.1879 10.0875 18.1879Z" fill="white" fill-opacity="0.85"/>
  <path d="M14.6219 5.52109C13.3814 4.28866 11.2434 4.45116 9.82265 5.8621C9.01191 6.69589 8.65761 7.73749 8.65234 8.7373C8.62929 10.2264 8.48359 11.0576 7.10019 12.418L7.72675 13.0428C9.09511 11.6594 9.90058 11.5412 11.3959 11.4986C12.4135 11.4676 13.4373 11.1408 14.2711 10.3186C15.6918 8.88984 15.8623 6.74999 14.6219 5.52109ZM13.9785 6.15644C14.8809 7.05702 14.7361 8.57929 13.634 9.67343C12.5221 10.7756 11.0113 10.9283 10.117 10.0242C9.20663 9.13339 9.35937 7.61288 10.4793 6.50722C11.5734 5.40683 13.0859 5.25409 13.9785 6.15644ZM5.00448 14.7957L5.32597 15.1287C5.56737 15.3701 5.92147 15.3701 6.16288 15.1287L8.04901 13.2311C8.29042 12.9799 8.29042 12.6488 8.04901 12.3977L7.72753 12.0727C7.49413 11.833 7.14179 11.833 6.90038 12.0727L5.00448 13.9801C4.77284 14.2215 4.76308 14.5543 5.00448 14.7957ZM14.3033 9.48574L14.7836 8.98144L11.2174 5.40722L10.7211 5.90351ZM12.9641 10.801L13.4764 10.3189L9.89413 6.73847L9.39784 7.22675ZM9.36581 9.07754L9.66855 9.76738L13.6736 5.76405L13.0762 5.37519ZM10.5203 10.509L11.1533 10.841L14.8316 7.1707L14.433 6.56523Z" fill="white" fill-opacity="0.85"/>
 </g>
</svg>
