<?xml version="1.0" encoding="UTF-8"?>
<!--Generator: Apple Native CoreSVG 341-->
<!DOCTYPE svg
PUBLIC "-//W3C//DTD SVG 1.1//EN"
       "http://www.w3.org/Graphics/SVG/1.1/DTD/svg11.dtd">
<svg version="1.1" xmlns="http://www.w3.org/2000/svg" xmlns:xlink="http://www.w3.org/1999/xlink" viewBox="0 0 21.6453 21.9134">
 <g>
  <rect height="21.9134" opacity="0" width="21.6453" x="0" y="0"/>
  <path d="M19.643 2.30239C17.2064-0.132373 12.9742 0.187158 10.1523 2.99927C8.51816 4.64145 7.84609 6.6936 7.81601 8.70063C7.76289 11.6928 7.49199 13.3498 4.74648 16.0813L5.86406 17.1909C8.58749 14.4614 10.2365 14.2446 13.2287 14.1293C15.258 14.0602 17.2879 13.4352 18.9381 11.785C21.7582 8.96313 22.0777 4.73091 19.643 2.30239ZM18.475 3.46235C20.3795 5.37309 20.1602 8.24653 17.7781 10.6188C15.3801 13.0088 12.5084 13.2362 10.6119 11.3334C8.70116 9.43696 8.9205 6.55727 11.3185 4.16723C13.6988 1.78696 16.5803 1.56586 18.475 3.46235ZM9.4457 12.4997C9.68926 12.7575 9.97734 12.9655 10.277 13.1575C9.43945 13.3077 8.64999 13.5913 7.80272 14.1426C8.35409 13.3051 8.63769 12.5077 8.77988 11.6684C8.9621 11.9662 9.18789 12.2481 9.4457 12.4997ZM0.383787 20.944L0.970313 21.5403C1.48203 22.0377 2.22871 22.0377 2.73241 21.5403L6.45371 17.8092C6.96542 17.2975 6.96542 16.5526 6.45371 16.0489L5.86718 15.4526C5.36347 14.9489 4.61055 14.9489 4.10684 15.4526L0.383787 19.1916C-0.127929 19.6873-0.127929 20.4323 0.383787 20.944ZM8.7078 8.61157L9.20312 9.10512L16.2582 2.0518L15.7629 1.54672ZM9.22128 10.8348L9.70859 11.3319L18.4752 2.57329L17.9959 2.06997ZM10.6055 12.2288L11.1105 12.7241L19.8754 3.95747L19.3801 3.45415ZM12.8402 12.744L13.3258 13.2456L20.3906 6.18247L19.8873 5.68716ZM14.9049 1.82368L20.0498 6.96059L20.5434 6.46703L15.4002 1.33012ZM12.7418 2.26684L19.6625 9.20356L20.1738 8.69848L13.2389 1.77153ZM11.3635 3.46899L18.4523 10.5739L18.9637 10.0688L11.8605 2.96567ZM10.125 4.70747L17.2139 11.8123L17.7172 11.3073L10.6221 4.20415ZM8.92284 6.08579L15.8516 13.0225L16.3469 12.5254L9.41191 5.59848ZM8.46542 8.23286L13.6344 13.4081L14.1377 12.9047L8.96249 7.73579Z" fill="white" fill-opacity="0.85"/>
 </g>
</svg>
