<?xml version="1.0" encoding="UTF-8"?>
<!--Generator: Apple Native CoreSVG 341-->
<!DOCTYPE svg
PUBLIC "-//W3C//DTD SVG 1.1//EN"
       "http://www.w3.org/Graphics/SVG/1.1/DTD/svg11.dtd">
<svg version="1.1" xmlns="http://www.w3.org/2000/svg" xmlns:xlink="http://www.w3.org/1999/xlink" viewBox="0 0 20.5381 20.1848">
 <g>
  <rect height="20.1848" opacity="0" width="20.5381" x="0" y="0"/>
  <path d="M10.0875 20.175C15.6576 20.175 20.1767 15.6559 20.1767 10.0875C20.1767 4.51914 15.6576 0 10.0875 0C4.51914 0 0 4.51914 0 10.0875C0 15.6559 4.51914 20.175 10.0875 20.175ZM10.0875 18.1879C5.60839 18.1879 1.9871 14.5666 1.9871 10.0875C1.9871 5.60839 5.60839 1.9871 10.0875 1.9871C14.5666 1.9871 18.1897 5.60839 18.1897 10.0875C18.1897 14.5666 14.5666 18.1879 10.0875 18.1879Z" fill="white" fill-opacity="0.85"/>
  <path d="M5.50311 14.5646L14.6719 14.5646C15.3412 14.5646 15.5469 13.9486 15.2904 13.4357L10.9053 4.64042C10.535 3.90956 9.64003 3.92557 9.29374 4.62265L4.89257 13.4357C4.63612 13.9486 4.84179 14.5646 5.50311 14.5646ZM7.51913 13.6668L9.73613 8.96054C9.808 8.79726 9.95175 8.71386 10.0875 8.71386C10.233 8.71386 10.3687 8.79726 10.4389 8.96054L12.6559 13.6668L10.9055 13.6668L10.0875 10.0865L9.26952 13.6668Z" fill="white" fill-opacity="0.85"/>
 </g>
</svg>
