<?xml version="1.0" encoding="UTF-8"?>
<!--Generator: Apple Native CoreSVG 341-->
<!DOCTYPE svg
PUBLIC "-//W3C//DTD SVG 1.1//EN"
       "http://www.w3.org/Graphics/SVG/1.1/DTD/svg11.dtd">
<svg version="1.1" xmlns="http://www.w3.org/2000/svg" xmlns:xlink="http://www.w3.org/1999/xlink" viewBox="0 0 20.5381 20.1848">
 <g>
  <rect height="20.1848" opacity="0" width="20.5381" x="0" y="0"/>
  <path d="M20.1767 10.0973C20.1767 15.6656 15.6576 20.1848 10.0875 20.1848C4.52715 20.1848 0 15.6656 0 10.0973C0 4.53691 4.52715 0.00976562 10.0875 0.00976562C15.6576 0.00976562 20.1767 4.53691 20.1767 10.0973ZM11.1139 5.34531L9.02441 9.53496L7.29628 6.09648C7.17382 5.87109 6.96972 5.72734 6.74257 5.72734C6.51191 5.72734 6.30156 5.87109 6.19687 6.09648L3.28027 11.9289C3.08066 12.3352 3.26327 12.8135 3.7664 12.8135L7.38339 12.8135L7.11581 13.3344C6.8789 13.8072 7.0748 14.3494 7.6623 14.3494L15.8043 14.3494C16.4096 14.3494 16.5975 13.8072 16.365 13.3344L12.3803 5.35331C12.2463 5.08886 12.0146 4.92109 11.7387 4.92109C11.4777 4.92109 11.2381 5.08085 11.1139 5.34531ZM12.0633 9.35214L14.0205 13.5299L12.4623 13.5299L11.7387 10.3562L11.0168 13.5299L9.46034 13.5299L11.4228 9.35214C11.485 9.21464 11.6047 9.14101 11.7387 9.14101C11.8717 9.14101 11.9914 9.21464 12.0633 9.35214ZM6.97323 9.04882L8.0871 11.4078L7.80117 11.9797L7.2498 11.9797L6.74257 9.78905L6.23183 11.9797L5.12987 11.9797L6.52617 9.04882C6.56874 8.93788 6.64316 8.89003 6.74257 8.89003C6.82597 8.89003 6.93241 8.93788 6.97323 9.04882Z" fill="white" fill-opacity="0.85"/>
 </g>
</svg>
