<?xml version="1.0" encoding="UTF-8"?>
<!--Generator: Apple Native CoreSVG 341-->
<!DOCTYPE svg
PUBLIC "-//W3C//DTD SVG 1.1//EN"
       "http://www.w3.org/Graphics/SVG/1.1/DTD/svg11.dtd">
<svg version="1.1" xmlns="http://www.w3.org/2000/svg" xmlns:xlink="http://www.w3.org/1999/xlink" viewBox="0 0 28.9527 20.5867">
 <g>
  <rect height="20.5867" opacity="0" width="28.9527" x="0" y="0"/>
  <path d="M8.8569 2.79824L12.5385 10.1734L10.5301 14.1932L8.14791 9.14081C8.04147 8.90839 7.85084 8.79667 7.64596 8.79667C7.44909 8.79667 7.26022 8.90839 7.15378 9.14081L4.12272 15.5486L6.53131 15.5486L7.64596 10.7594L8.76061 15.5486L9.85296 15.5486L8.99143 17.273L1.25534 17.273C0.133077 17.273-0.268287 16.2174 0.179563 15.3297L6.43503 2.79824C6.68698 2.31387 7.13678 1.99356 7.64596 1.99356C8.15514 1.99356 8.6067 2.31387 8.8569 2.79824Z" fill="white" fill-opacity="0.85"/>
  <path d="M9.63327 20.5867L27.1717 20.5867C28.4645 20.5867 28.8924 19.4041 28.3727 18.3762L19.8022 1.21016C19.5032 0.621877 18.976 0.267776 18.4065 0.267776C17.8307 0.267776 17.3098 0.605861 17.0286 1.18613L8.4403 18.3762C7.92233 19.4041 8.3485 20.5867 9.63327 20.5867ZM13.4495 18.8543L17.7024 9.81054C17.8532 9.4957 18.1227 9.33965 18.4065 9.33965C18.6858 9.33965 18.9536 9.4957 19.1026 9.81054L23.3573 18.8543L19.9858 18.8543L18.4065 11.9736L16.821 18.8543Z" fill="white" fill-opacity="0.85"/>
 </g>
</svg>
