<?xml version="1.0" encoding="UTF-8"?>
<!--Generator: Apple Native CoreSVG 341-->
<!DOCTYPE svg
PUBLIC "-//W3C//DTD SVG 1.1//EN"
       "http://www.w3.org/Graphics/SVG/1.1/DTD/svg11.dtd">
<svg version="1.1" xmlns="http://www.w3.org/2000/svg" xmlns:xlink="http://www.w3.org/1999/xlink" viewBox="0 0 30.1865 20.5633">
 <g>
  <rect height="20.5633" opacity="0" width="30.1865" x="0" y="0"/>
  <path d="M6.14159 20.5633L23.6721 20.5633C24.9683 20.5633 25.3945 19.3807 24.8748 18.351L20.5218 9.61928L27.9683 20.0258C28.2318 20.3939 28.5697 20.5392 28.8986 20.5392C29.3976 20.5392 29.8252 20.2318 29.8252 19.6012L29.8252 16.6355C29.8252 16.2144 29.475 15.8625 29.0521 15.8625C28.631 15.8625 28.2889 16.2144 28.2889 16.6355L28.2889 17.8836L16.1904 0.97324C15.5047 0.00625014 14.3125 0.0222659 13.6268 0.97324L1.53632 17.8836L1.53632 16.6355C1.53632 16.2144 1.19413 15.8625 0.771285 15.8625C0.342185 15.8625 0 16.2144 0 16.6355L0 19.6012C0 20.2318 0.427538 20.5392 0.9248 20.5392C1.25546 20.5392 1.59335 20.3939 1.85683 20.0258L9.30334 9.61928L4.94863 18.351C4.43066 19.3807 4.84882 20.5633 6.14159 20.5633ZM9.9498 18.8389L14.2027 9.79335C14.3535 9.47851 14.631 9.32246 14.9068 9.32246C15.1861 9.32246 15.4619 9.47851 15.6029 9.79335L19.8656 18.8389L16.4861 18.8389L14.9068 11.9564L13.3213 18.8389Z" fill="white" fill-opacity="0.85"/>
 </g>
</svg>
