<?xml version="1.0" encoding="UTF-8"?>
<!--Generator: Apple Native CoreSVG 341-->
<!DOCTYPE svg
PUBLIC "-//W3C//DTD SVG 1.1//EN"
       "http://www.w3.org/Graphics/SVG/1.1/DTD/svg11.dtd">
<svg version="1.1" xmlns="http://www.w3.org/2000/svg" xmlns:xlink="http://www.w3.org/1999/xlink" viewBox="0 0 21.3263 20.9515">
 <g>
  <rect height="20.9515" opacity="0" width="21.3263" x="0" y="0"/>
  <path d="M18.2361 17.032C18.2361 18.2965 17.3996 19.1277 16.1246 19.1277C14.8398 19.1277 14.0033 18.2965 14.0033 17.032L14.0033 15.9185L18.2361 15.9185Z" fill="white" fill-opacity="0.85"/>
  <path d="M20.965 0.930073C20.965 1.44189 20.5434 1.87381 20.0324 1.87754L20.0324 17.032C20.0324 19.3869 18.4918 20.9107 16.1246 20.9107C13.7459 20.9107 12.1955 19.3869 12.1955 17.032L12.1955 1.87674C11.658 1.86515 11.2717 1.44017 11.2717 0.930073C11.2717 0.410545 11.6662 0 12.2195 0L20.0252 0C20.5412 0 20.965 0.415818 20.965 0.930073ZM14.0033 1.87792L14.0033 6.44687L16.0373 6.44687C16.3709 6.44687 16.6451 6.71308 16.6451 7.03339C16.6451 7.383 16.3869 7.65097 16.0453 7.65097L14.0033 7.65097L14.0033 9.61093L16.0453 9.61093C16.3789 9.61093 16.6451 9.88515 16.6451 10.2072C16.6451 10.5586 16.3869 10.8185 16.0453 10.8185L14.0033 10.8185L14.0033 12.7865L16.0373 12.7865C16.3709 12.7865 16.6371 13.0625 16.6371 13.3881C16.6451 13.7342 16.3967 13.9924 16.0373 13.9924L14.0033 13.9924L14.0033 17.032C14.0033 18.2965 14.8398 19.1277 16.1246 19.1277C17.3996 19.1277 18.2361 18.2965 18.2361 17.032L18.2361 1.87792Z" fill="white" fill-opacity="0.85"/>
  <path d="M6.95644 4.39804L6.95644 17.032C6.95644 18.2965 6.11991 19.1277 4.85292 19.1277C3.56815 19.1277 2.73163 18.2965 2.73163 17.032L2.73163 13.9924L4.75761 13.9924C5.11698 13.9924 5.37343 13.7342 5.36542 13.3881C5.36542 13.0625 5.0912 12.7865 4.75761 12.7865L2.73163 12.7865L2.73163 10.8185L4.76562 10.8185C5.10722 10.8185 5.37343 10.5586 5.37343 10.2072C5.37343 9.88515 5.09921 9.61093 4.76562 9.61093L2.73163 9.61093L2.73163 7.65097L4.76562 7.65097C5.10722 7.65097 5.37343 7.383 5.37343 7.03339C5.37343 6.71308 5.0912 6.44687 4.75761 6.44687L2.73163 6.44687L2.73163 4.39804Z" fill="white" fill-opacity="0.85"/>
  <path d="M9.69334 0.930073C9.69334 1.44189 9.26384 1.87381 8.75272 1.87754L8.75272 17.032C8.75272 19.3869 7.2201 20.9107 4.85292 20.9107C2.46621 20.9107 0.923827 19.3869 0.923827 17.032L0.923827 1.87714C0.382358 1.8694 0 1.44272 0 0.930073C0 0.410545 0.386521 0 0.939839 0L8.74549 0C9.26151 0 9.69334 0.415818 9.69334 0.930073ZM2.73163 1.87792L2.73163 17.032C2.73163 18.2965 3.56815 19.1277 4.85292 19.1277C6.11991 19.1277 6.95644 18.2965 6.95644 17.032L6.95644 1.87792Z" fill="white" fill-opacity="0.85"/>
 </g>
</svg>
