<?xml version="1.0" encoding="UTF-8"?>
<!--Generator: Apple Native CoreSVG 341-->
<!DOCTYPE svg
PUBLIC "-//W3C//DTD SVG 1.1//EN"
       "http://www.w3.org/Graphics/SVG/1.1/DTD/svg11.dtd">
<svg version="1.1" xmlns="http://www.w3.org/2000/svg" xmlns:xlink="http://www.w3.org/1999/xlink" viewBox="0 0 17.107 21.1441">
 <g>
  <rect height="21.1441" opacity="0" width="17.107" x="0" y="0"/>
  <path d="M0 17.9406C0 20.0502 1.07968 21.1379 3.17148 21.1379L13.5742 21.1379C15.6678 21.1379 16.7457 20.0502 16.7457 17.9406L16.7457 3.20527C16.7457 1.10371 15.6678 0 13.5742 0L3.17148 0C1.07968 0 0 1.10371 0 3.20527ZM1.91327 17.8217L1.91327 3.32421C1.91327 2.41444 2.38163 1.91327 3.33222 1.91327L13.4152 1.91327C14.3641 1.91327 14.8324 2.41444 14.8324 3.32421L14.8324 17.8217C14.8324 18.7314 14.3641 19.2246 13.4152 19.2246L3.33222 19.2246C2.38163 19.2246 1.91327 18.7314 1.91327 17.8217Z" fill="white" fill-opacity="0.85"/>
  <path d="M4.79999 5.93026L11.9555 5.93026C12.3078 5.93026 12.5705 5.6578 12.5705 5.30546C12.5705 4.96464 12.3078 4.69394 11.9555 4.69394L4.79999 4.69394C4.43788 4.69394 4.17694 4.96464 4.17694 5.30546C4.17694 5.6578 4.43788 5.93026 4.79999 5.93026Z" fill="white" fill-opacity="0.85"/>
  <path d="M4.79999 9.26991L11.9555 9.26991C12.3078 9.26991 12.5705 8.99745 12.5705 8.64511C12.5705 8.30253 12.3078 8.03359 11.9555 8.03359L4.79999 8.03359C4.43788 8.03359 4.17694 8.30253 4.17694 8.64511C4.17694 8.99745 4.43788 9.26991 4.79999 9.26991Z" fill="white" fill-opacity="0.85"/>
  <path d="M4.79999 12.6078L8.25663 12.6078C8.61698 12.6078 8.87792 12.3469 8.87792 12.0043C8.87792 11.6439 8.61698 11.3732 8.25663 11.3732L4.79999 11.3732C4.43788 11.3732 4.17694 11.6439 4.17694 12.0043C4.17694 12.3469 4.43788 12.6078 4.79999 12.6078Z" fill="white" fill-opacity="0.85"/>
 </g>
</svg>
