<?xml version="1.0" encoding="UTF-8"?>
<!--Generator: Apple Native CoreSVG 341-->
<!DOCTYPE svg
PUBLIC "-//W3C//DTD SVG 1.1//EN"
       "http://www.w3.org/Graphics/SVG/1.1/DTD/svg11.dtd">
<svg version="1.1" xmlns="http://www.w3.org/2000/svg" xmlns:xlink="http://www.w3.org/1999/xlink" viewBox="0 0 23.4906 18.2316">
 <g>
  <rect height="18.2316" opacity="0" width="23.4906" x="0" y="0"/>
  <path d="M3.20351 18.2316L19.9258 18.2316C22.0416 18.2316 23.1293 17.1519 23.1293 15.0682L23.1293 3.17499C23.1293 1.08945 22.0416 0.00351548 19.9258 0.00351548L3.20351 0.00351548C1.0957 0.00351548 0 1.08945 0 3.17499L0 15.0682C0 17.1519 1.0957 18.2316 3.20351 18.2316ZM3.31444 16.3184C2.40643 16.3184 1.91327 15.8482 1.91327 14.8994L1.91327 3.34198C1.91327 2.39315 2.40643 1.91678 3.31444 1.91678L19.8148 1.91678C20.7149 1.91678 21.216 2.39315 21.216 3.34198L21.216 14.8994C21.216 15.8482 20.7149 16.3184 19.8148 16.3184Z" fill="white" fill-opacity="0.85"/>
  <path d="M4.84452 5.82147L18.2963 5.82147C18.6549 5.82147 18.9176 5.54901 18.9176 5.18866C18.9176 4.84609 18.6549 4.58515 18.2963 4.58515L4.84452 4.58515C4.48065 4.58515 4.21171 4.84609 4.21171 5.18866C4.21171 5.54901 4.48065 5.82147 4.84452 5.82147ZM4.84452 9.58183L11.5848 9.58183C11.9451 9.58183 12.206 9.30937 12.206 8.95702C12.206 8.61445 11.9451 8.3455 11.5848 8.3455L4.84452 8.3455C4.48065 8.3455 4.21171 8.61445 4.21171 8.95702C4.21171 9.30937 4.48065 9.58183 4.84452 9.58183Z" fill="white" fill-opacity="0.85"/>
 </g>
</svg>
