<?xml version="1.0" encoding="UTF-8"?>
<!--Generator: Apple Native CoreSVG 341-->
<!DOCTYPE svg
PUBLIC "-//W3C//DTD SVG 1.1//EN"
       "http://www.w3.org/Graphics/SVG/1.1/DTD/svg11.dtd">
<svg version="1.1" xmlns="http://www.w3.org/2000/svg" xmlns:xlink="http://www.w3.org/1999/xlink" viewBox="0 0 17.114 21.1316">
 <g>
  <rect height="21.1316" opacity="0" width="17.114" x="0" y="0"/>
  <path d="M16.7457 3.20703L16.7457 14.0549C16.7457 15.042 16.3545 15.524 15.8726 15.9566C14.6494 17.1299 14.8892 18.7832 16.0881 19.3119C16.4568 19.4773 16.7527 19.7959 16.7527 20.2291C16.7527 20.7459 16.359 21.1316 15.8502 21.1316L3.14745 21.1316C1.08769 21.1316 0 20.0519 0 17.9664L0 3.20703C0 1.09746 1.07968 0.00175774 3.17148 0.00175774L13.5742 0.00175774C15.6678 0.00175774 16.7457 1.10547 16.7457 3.20703ZM13.2355 16.318L3.46737 16.318C2.43983 16.318 1.81659 16.9318 1.81659 17.8143C1.81659 18.7385 2.358 19.3203 3.39354 19.3203L13.6438 19.3203C13.1297 18.44 13.0691 17.3236 13.5439 16.294C13.4551 16.31 13.3484 16.318 13.2355 16.318ZM2.42441 2.22851L2.42441 14.1494C2.42441 14.4795 2.69237 14.7475 3.01444 14.7475C3.33476 14.7475 3.61073 14.4795 3.61073 14.1494L3.61073 2.22851C3.61073 1.89843 3.33476 1.63847 3.01444 1.63847C2.69237 1.63847 2.42441 1.89843 2.42441 2.22851ZM6.31092 7.77343C5.91619 7.77343 5.58885 8.09453 5.58885 8.48749C5.58885 8.89198 5.91619 9.22109 6.31092 9.22109L11.7172 9.22109C12.1182 9.22109 12.4392 8.89198 12.4392 8.48749C12.4392 8.09453 12.1182 7.77343 11.7172 7.77343ZM6.31092 4.94375C5.91619 4.94375 5.58885 5.26484 5.58885 5.66933C5.58885 6.0623 5.91619 6.3914 6.31092 6.3914L13.4299 6.3914C13.8246 6.3914 14.1519 6.0623 14.1519 5.66933C14.1519 5.26484 13.8246 4.94375 13.4299 4.94375Z" fill="white" fill-opacity="0.85"/>
 </g>
</svg>
