<?xml version="1.0" encoding="UTF-8"?>
<!--Generator: Apple Native CoreSVG 341-->
<!DOCTYPE svg
PUBLIC "-//W3C//DTD SVG 1.1//EN"
       "http://www.w3.org/Graphics/SVG/1.1/DTD/svg11.dtd">
<svg version="1.1" xmlns="http://www.w3.org/2000/svg" xmlns:xlink="http://www.w3.org/1999/xlink" viewBox="0 0 20.4978 17.2016">
 <g>
  <rect height="17.2016" opacity="0" width="20.4978" x="0" y="0"/>
  <path d="M4.65156 17.1838L15.4689 17.1838C15.9805 17.1838 16.3963 16.7699 16.3963 16.2619C16.3963 15.7469 15.9822 15.332 15.4689 15.332L4.65156 15.332C4.14004 15.332 3.74023 15.7521 3.74023 16.2619C3.74023 16.7664 4.14179 17.1838 4.65156 17.1838Z" fill="white" fill-opacity="0.85"/>
  <path d="M0.911323 12.0764L19.2092 12.0764C19.7207 12.0764 20.1365 11.6625 20.1365 11.1545C20.1365 10.6314 19.7224 10.2246 19.2092 10.2246L0.911323 10.2246C0.399802 10.2246 0 10.635 0 11.1545C0 11.6572 0.40156 12.0764 0.911323 12.0764Z" fill="white" fill-opacity="0.85"/>
  <path d="M4.65156 6.96718L15.4689 6.96718C15.9805 6.96718 16.3963 6.5453 16.3963 6.0373C16.3963 5.52402 15.9822 5.11543 15.4689 5.11543L4.65156 5.11543C4.14004 5.11543 3.74023 5.52754 3.74023 6.0373C3.74023 6.54179 4.14179 6.96718 4.65156 6.96718Z" fill="white" fill-opacity="0.85"/>
  <path d="M0.911323 1.85175L19.2092 1.85175C19.7207 1.85175 20.1365 1.43788 20.1365 0.929877C20.1365 0.414841 19.7224 0 19.2092 0L0.911323 0C0.399802 0 0 0.420114 0 0.929877C0 1.43437 0.40156 1.85175 0.911323 1.85175Z" fill="white" fill-opacity="0.85"/>
 </g>
</svg>
