<?xml version="1.0" encoding="UTF-8"?>
<!--Generator: Apple Native CoreSVG 341-->
<!DOCTYPE svg
PUBLIC "-//W3C//DTD SVG 1.1//EN"
       "http://www.w3.org/Graphics/SVG/1.1/DTD/svg11.dtd">
<svg version="1.1" xmlns="http://www.w3.org/2000/svg" xmlns:xlink="http://www.w3.org/1999/xlink" viewBox="0 0 23.5597 14.6699">
 <g>
  <rect height="14.6699" opacity="0" width="23.5597" x="0" y="0"/>
  <path d="M17.7127 14.6619C19.192 14.6619 20.5824 13.8715 21.1914 12.6213L21.2199 12.6213L21.2199 13.7152C21.2357 14.309 21.6345 14.6699 22.2043 14.6699C22.7908 14.6699 23.1984 14.2949 23.1984 13.6375L23.1984 7.18613C23.1984 5.02734 21.5568 3.625 18.9621 3.625C16.9838 3.625 15.3838 4.44433 14.8377 5.73398C14.7355 5.96835 14.6627 6.19746 14.6627 6.41757C14.6627 6.91581 15.0359 7.25175 15.556 7.25175C15.9203 7.25175 16.2021 7.11171 16.3978 6.81191C16.9746 5.74589 17.7308 5.26151 18.8984 5.26151C20.3094 5.26151 21.1666 6.05233 21.1666 7.33867L21.1666 8.13632L18.1248 8.30683C15.5556 8.44882 14.1295 9.60546 14.1295 11.4781C14.1295 13.382 15.6142 14.6619 17.7127 14.6619ZM18.2625 13.083C17.0408 13.083 16.2004 12.4131 16.2004 11.4039C16.2004 10.4338 16.9777 9.78788 18.3931 9.69725L21.1666 9.5205L21.1666 10.5012C21.1666 11.9555 19.8793 13.083 18.2625 13.083Z" fill="white" fill-opacity="0.85"/>
  <path d="M1.08046 14.6514C1.7369 14.6514 2.07518 14.3857 2.28709 13.693L6.14354 2.49667L6.1994 2.49667L10.041 13.693C10.2512 14.3857 10.5894 14.6514 11.2396 14.6514C11.9242 14.6514 12.3652 14.2404 12.3652 13.6027C12.3652 13.3682 12.3271 13.1645 12.2314 12.9014L7.90798 1.22616C7.61306 0.407222 7.05974 0.0042963 6.17108 0.0042963C5.32305 0.0042963 4.76524 0.400972 4.47657 1.21815L0.130273 12.9516C0.0398433 13.2023 0 13.4148 0 13.623C0 14.259 0.412691 14.6514 1.08046 14.6514ZM2.98964 10.657L9.35448 10.657C9.84803 10.657 10.2539 10.2512 10.2539 9.75761C10.2539 9.25605 9.84803 8.8582 9.35448 8.8582L2.98964 8.8582C2.49609 8.8582 2.09024 9.25605 2.09024 9.75761C2.09024 10.2512 2.49609 10.657 2.98964 10.657Z" fill="white" fill-opacity="0.85"/>
 </g>
</svg>
