<?xml version="1.0" encoding="UTF-8"?>
<!--Generator: Apple Native CoreSVG 341-->
<!DOCTYPE svg
PUBLIC "-//W3C//DTD SVG 1.1//EN"
       "http://www.w3.org/Graphics/SVG/1.1/DTD/svg11.dtd">
<svg version="1.1" xmlns="http://www.w3.org/2000/svg" xmlns:xlink="http://www.w3.org/1999/xlink" viewBox="0 0 24.0265 14.6613">
 <g>
  <rect height="14.6613" opacity="0" width="24.0265" x="0" y="0"/>
  <path d="M18.1002 14.6471C19.7683 14.6471 21.0449 13.8648 21.6388 12.4709L21.7168 12.4709L21.7168 13.6615C21.7168 14.2969 22.1269 14.6551 22.6861 14.6551C23.2656 14.6551 23.6652 14.2783 23.6652 13.6271L23.6652 4.49335C23.6652 3.84844 23.2656 3.45742 22.6861 3.45742C22.1181 3.45742 21.7168 3.84844 21.7168 4.4916L21.7168 5.68047L21.6388 5.68047C21.0431 4.31055 19.7168 3.4875 18.1002 3.4875C15.3904 3.4875 13.6088 5.71113 13.6088 9.06601C13.6088 12.4377 15.3904 14.6471 18.1002 14.6471ZM18.6595 12.9453C16.8379 12.9453 15.6902 11.4576 15.6902 9.07129C15.6902 6.68847 16.8396 5.17948 18.6595 5.17948C20.476 5.17948 21.6644 6.73027 21.6644 9.07929C21.6644 11.4496 20.4937 12.9453 18.6595 12.9453Z" fill="white" fill-opacity="0.85"/>
  <path d="M1.08046 14.6471C1.7369 14.6471 2.07518 14.3814 2.28709 13.6887L6.14354 2.49237L6.1994 2.49237L10.041 13.6887C10.2512 14.3814 10.5894 14.6471 11.2396 14.6471C11.9242 14.6471 12.3652 14.2361 12.3652 13.5984C12.3652 13.3639 12.3271 13.1602 12.2314 12.8971L7.90798 1.22186C7.61306 0.402926 7.05974 0 6.17108 0C5.32305 0 4.76524 0.396675 4.47657 1.21385L0.130273 12.9473C0.0398433 13.1981 0 13.4105 0 13.6188C0 14.2547 0.412691 14.6471 1.08046 14.6471ZM2.98964 10.6527L9.35448 10.6527C9.84803 10.6527 10.2539 10.2469 10.2539 9.75331C10.2539 9.25175 9.84803 8.8539 9.35448 8.8539L2.98964 8.8539C2.49609 8.8539 2.09024 9.25175 2.09024 9.75331C2.09024 10.2469 2.49609 10.6527 2.98964 10.6527Z" fill="white" fill-opacity="0.85"/>
 </g>
</svg>
