<?xml version="1.0" encoding="UTF-8"?>
<!--Generator: Apple Native CoreSVG 341-->
<!DOCTYPE svg
PUBLIC "-//W3C//DTD SVG 1.1//EN"
       "http://www.w3.org/Graphics/SVG/1.1/DTD/svg11.dtd">
<svg version="1.1" xmlns="http://www.w3.org/2000/svg" xmlns:xlink="http://www.w3.org/1999/xlink" viewBox="0 0 34.2175 14.6875">
 <g>
  <rect height="14.6875" opacity="0" width="34.2175" x="0" y="0"/>
  <path d="M29.5101 14.6875C31.4562 14.6875 33.1466 13.6435 33.7419 12.1691C33.8216 11.9644 33.8562 11.7668 33.8562 11.6055C33.8562 11.0906 33.4611 10.7344 32.9542 10.7344C32.4962 10.7344 32.257 10.9266 31.9902 11.3992C31.5107 12.3961 30.7253 12.9609 29.5304 12.9609C27.8123 12.9609 26.6955 11.5975 26.6955 9.29121C26.6955 7.00624 27.814 5.61073 29.5357 5.61073C30.6685 5.61073 31.4726 6.14374 31.9777 7.21835C32.2154 7.65917 32.475 7.83905 32.9126 7.83905C33.4257 7.83905 33.8216 7.50663 33.8216 6.98652C33.8216 6.83418 33.7783 6.65429 33.7251 6.4957C33.1982 4.98066 31.5076 3.88242 29.4826 3.88242C26.5029 3.88242 24.5736 6.01621 24.5736 9.29921C24.5736 12.6008 26.5189 14.6875 29.5101 14.6875Z" fill="white" fill-opacity="0.85"/>
  <path d="M14.6638 14.6795C15.2767 14.6795 15.7004 14.2834 15.7004 13.642L15.7004 12.5141L15.7041 12.5141C16.2457 13.8449 17.4959 14.6875 19.0937 14.6875C21.7652 14.6875 23.4839 12.5828 23.4839 9.30078C23.4839 6.01523 21.7554 3.91406 19.1062 3.91406C17.565 3.91406 16.3148 4.75488 15.7431 6.08828L15.7359 6.08828L15.7359 1.42655C15.7359 0.779685 15.3142 0.345508 14.6931 0.345508C14.0845 0.345508 13.6584 0.779685 13.6584 1.4248L13.6584 13.642C13.6584 14.2914 14.0527 14.6795 14.6638 14.6795ZM18.5664 12.9434C16.9113 12.9434 15.7324 11.5283 15.7324 9.30878C15.7324 7.09101 16.9113 5.66268 18.5664 5.66268C20.273 5.66268 21.3506 7.04921 21.3506 9.30078C21.3506 11.5586 20.2748 12.9434 18.5664 12.9434Z" fill="white" fill-opacity="0.85"/>
  <path d="M1.02655 14.6601C1.54881 14.6601 1.96112 14.3873 2.16326 13.7326L3.26405 10.6603L8.90683 10.6603L10.0076 13.7326C10.2195 14.3953 10.6141 14.6601 11.1283 14.6601C11.7267 14.6601 12.208 14.265 12.208 13.6557C12.208 13.4264 12.1717 13.2324 12.0795 12.9746L7.76657 1.24139C7.49021 0.450777 6.9617 0.0681633 6.09335 0.0681633C5.26563 0.0681633 4.74063 0.444527 4.46251 1.23163L0.126757 13.0231C0.0363278 13.2721 0 13.4695 0 13.6777C0 14.2916 0.452927 14.6601 1.02655 14.6601ZM3.78709 8.9623L6.04003 2.44198L6.14569 2.44198L8.39863 8.9623Z" fill="white" fill-opacity="0.85"/>
 </g>
</svg>
