<?xml version="1.0" encoding="UTF-8"?>
<!--Generator: Apple Native CoreSVG 341-->
<!DOCTYPE svg
PUBLIC "-//W3C//DTD SVG 1.1//EN"
       "http://www.w3.org/Graphics/SVG/1.1/DTD/svg11.dtd">
<svg version="1.1" xmlns="http://www.w3.org/2000/svg" xmlns:xlink="http://www.w3.org/1999/xlink" viewBox="0 0 19.5222 14.6176">
 <g>
  <rect height="14.6176" opacity="0" width="19.5222" x="0" y="0"/>
  <path d="M10.182 14.393L18.1992 14.393C18.7754 14.393 19.1609 14.0242 19.1609 13.4693C19.1609 12.9109 18.7771 12.5359 18.1992 12.5359L12.1537 12.5359L12.1537 12.4801L15.7492 8.8752C17.8976 6.70742 18.6867 5.53711 18.6867 4.05351C18.6867 1.73008 16.6568 0 13.8363 0C11.6051 0 9.79608 1.13105 9.18631 2.90781C9.0744 3.22129 9.02733 3.48769 9.02733 3.7539C9.02733 4.31855 9.39236 4.71034 9.96931 4.71034C10.5056 4.71034 10.7695 4.46562 10.9459 3.92011C11.0205 3.64648 11.1226 3.38261 11.2701 3.15781C11.7595 2.33866 12.6595 1.83222 13.8135 1.83222C15.3154 1.83222 16.4865 2.8664 16.4865 4.1705C16.4865 5.23203 15.9847 5.93691 14.2381 7.72579L9.7869 12.2178C9.33026 12.6711 9.14686 12.9891 9.14686 13.4092C9.14686 14.0172 9.55545 14.393 10.182 14.393Z" fill="white" fill-opacity="0.85"/>
  <path d="M5.24237 14.6111C5.91659 14.6111 6.35428 14.1893 6.35428 13.515L6.35428 1.24902C6.35428 0.484177 5.86951 0.0658208 5.09179 0.0658208C4.53183 0.0658208 4.21387 0.216601 3.68243 0.557614L0.569333 2.57734C0.153319 2.84609 0 3.1209 0 3.49062C0 3.97011 0.347459 4.30429 0.858002 4.30429C1.13749 4.30429 1.28027 4.23593 1.47538 4.10819L4.1039 2.44979L4.15 2.44979L4.15 13.515C4.15 14.1893 4.57167 14.6111 5.24237 14.6111Z" fill="white" fill-opacity="0.85"/>
 </g>
</svg>
