<?xml version="1.0" encoding="UTF-8"?>
<!--Generator: Apple Native CoreSVG 341-->
<!DOCTYPE svg
PUBLIC "-//W3C//DTD SVG 1.1//EN"
       "http://www.w3.org/Graphics/SVG/1.1/DTD/svg11.dtd">
<svg version="1.1" xmlns="http://www.w3.org/2000/svg" xmlns:xlink="http://www.w3.org/1999/xlink" viewBox="0 0 20.4978 17.2156">
 <g>
  <rect height="17.2156" opacity="0" width="20.4978" x="0" y="0"/>
  <path d="M0.911323 17.1908L19.2092 17.1908C19.7207 17.1908 20.1365 16.7769 20.1365 16.2689C20.1365 15.7539 19.7224 15.3391 19.2092 15.3391L0.911323 15.3391C0.399802 15.3391 0 15.7592 0 16.2689C0 16.7734 0.40156 17.1908 0.911323 17.1908Z" fill="white" fill-opacity="0.85"/>
  <path d="M0.911323 12.0834L19.2092 12.0834C19.7207 12.0834 20.1365 11.6695 20.1365 11.1615C20.1365 10.6385 19.7224 10.2316 19.2092 10.2316L0.911323 10.2316C0.399802 10.2316 0 10.642 0 11.1615C0 11.6643 0.40156 12.0834 0.911323 12.0834Z" fill="white" fill-opacity="0.85"/>
  <path d="M13.8465 6.96894L19.2092 6.97421C19.7207 6.97597 20.1365 6.55234 20.1365 6.04434C20.1365 5.53106 19.7224 5.12422 19.2092 5.12247L13.8465 5.11719C13.3349 5.11544 12.9351 5.5293 12.9351 6.03906C12.9351 6.54179 13.3367 6.96894 13.8465 6.96894Z" fill="white" fill-opacity="0.85"/>
  <path d="M13.8465 1.85175L19.2092 1.85878C19.7207 1.86054 20.1365 1.44492 20.1365 0.936914C20.1365 0.421878 19.7224 0.00879418 19.2092 0.00703644L13.8465 5.47297e-06C13.3349-0.00175227 12.9351 0.42012 12.9351 0.929883C12.9351 1.43437 13.3367 1.85175 13.8465 1.85175Z" fill="white" fill-opacity="0.85"/>
  <path d="M2.74277 7.4043C4.03222 7.4043 5.08574 6.525 5.08574 5.18203C5.08574 3.90567 4.21503 3.05196 3.03711 3.05196C2.24062 3.05196 1.64961 3.45001 1.41035 4.28106L1.58945 4.34454C1.67305 2.67578 2.78301 1.53652 4.40586 1.44785C4.78926 1.42481 5.075 1.13828 5.075 0.756644C5.075 0.296878 4.68808 0.0361372 4.18848 0.0361372C1.97793 0.0361372 0.0240237 1.90235 0.0240237 4.40821C0.0240237 6.2293 1.1959 7.4043 2.74277 7.4043ZM8.84589 7.4043C10.1318 7.4043 11.1933 6.525 11.1933 5.18203C11.1933 3.90567 10.3226 3.05196 9.13847 3.05196C8.34823 3.05196 7.75722 3.45001 7.50995 4.28106L7.69081 4.34454C7.77265 2.67578 8.88261 1.52852 10.4975 1.44785C10.8889 1.42481 11.1844 1.13828 11.1844 0.756644C11.1844 0.296878 10.8072 0.0361372 10.2898 0.0361372C8.09355 0.0361372 6.12363 1.90235 6.12363 4.40821C6.12363 6.2293 7.30527 7.4043 8.84589 7.4043Z" fill="white" fill-opacity="0.85"/>
 </g>
</svg>
