<?xml version="1.0" encoding="UTF-8"?>
<!--Generator: Apple Native CoreSVG 341-->
<!DOCTYPE svg
PUBLIC "-//W3C//DTD SVG 1.1//EN"
       "http://www.w3.org/Graphics/SVG/1.1/DTD/svg11.dtd">
<svg version="1.1" xmlns="http://www.w3.org/2000/svg" xmlns:xlink="http://www.w3.org/1999/xlink" viewBox="0 0 20.4978 17.2016">
 <g>
  <rect height="17.2016" opacity="0" width="20.4978" x="0" y="0"/>
  <path d="M0.911323 1.85175L19.2092 1.85175C19.7207 1.85175 20.1365 1.43788 20.1365 0.929877C20.1365 0.414841 19.7224 0 19.2092 0L0.911323 0C0.399802 0 0 0.420114 0 0.929877C0 1.43437 0.40156 1.85175 0.911323 1.85175ZM12.0332 12.0764L19.2092 12.0764C19.7207 12.0764 20.1365 11.6625 20.1365 11.1545C20.1365 10.6314 19.7224 10.2246 19.2092 10.2246L12.0332 10.2246C11.5217 10.2246 11.1219 10.635 11.1219 11.1545C11.1219 11.6572 11.5234 12.0764 12.0332 12.0764ZM0.911323 17.1918L19.2092 17.1918C19.7207 17.1918 20.1365 16.7779 20.1365 16.2699C20.1365 15.7549 19.7224 15.34 19.2092 15.34L0.911323 15.34C0.399802 15.34 0 15.7602 0 16.2699C0 16.7744 0.40156 17.1918 0.911323 17.1918Z" fill="white" fill-opacity="0.85"/>
  <path d="M1.26211 7.70722L18.8681 7.70722C19.7008 7.70722 20.1365 7.28749 20.1365 6.45487L20.1365 5.61347C20.1365 4.79687 19.7008 4.36914 18.8681 4.36914L1.26211 4.36914C0.429491 4.36914 0.00175774 4.79687 0.00175774 5.61347L0.00175774 6.45487C0.00175774 7.28749 0.429491 7.70722 1.26211 7.70722ZM1.26211 12.8226L8.57812 12.8226C9.41074 12.8226 9.83847 12.3949 9.83847 11.5623L9.83847 10.7289C9.83847 9.9123 9.41074 9.47656 8.57812 9.47656L1.26211 9.47656C0.429491 9.47656 0.00175774 9.9123 0.00175774 10.7289L0.00175774 11.5623C0.00175774 12.3949 0.429491 12.8226 1.26211 12.8226Z" fill="white" fill-opacity="0.85"/>
 </g>
</svg>
