<?xml version="1.0" encoding="UTF-8"?>
<!--Generator: Apple Native CoreSVG 341-->
<!DOCTYPE svg
PUBLIC "-//W3C//DTD SVG 1.1//EN"
       "http://www.w3.org/Graphics/SVG/1.1/DTD/svg11.dtd">
<svg version="1.1" xmlns="http://www.w3.org/2000/svg" xmlns:xlink="http://www.w3.org/1999/xlink" viewBox="0 0 17.107 21.1441">
 <g>
  <rect height="21.1441" opacity="0" width="17.107" x="0" y="0"/>
  <path d="M3.17148 21.1379L13.5742 21.1379C15.6678 21.1379 16.7457 20.0422 16.7457 17.9406L16.7457 9.08047C16.7457 7.72402 16.5711 7.10157 15.7213 6.23575L10.5918 1.02617C9.77576 0.192382 9.09725 0 7.8787 0L3.17148 0C1.08769 0 0 1.10371 0 3.20527L0 17.9406C0 20.0502 1.07968 21.1379 3.17148 21.1379ZM3.32421 19.2246C2.38163 19.2246 1.91327 18.7314 1.91327 17.8217L1.91327 3.32421C1.91327 2.42245 2.38163 1.91327 3.33222 1.91327L7.49512 1.91327L7.49512 7.26894C7.49512 8.6664 8.17714 9.34218 9.56835 9.34218L14.8324 9.34218L14.8324 17.8217C14.8324 18.7314 14.3641 19.2246 13.4152 19.2246ZM9.7494 7.65488C9.34472 7.65488 9.18241 7.48281 9.18241 7.07988L9.18241 2.17909L14.5666 7.65488Z" fill="white" fill-opacity="0.85"/>
  <path d="M11.8576 11.9057L4.70214 11.9057C4.34003 11.9057 4.06932 12.1746 4.06932 12.5172C4.06932 12.8695 4.34003 13.142 4.70214 13.142L11.8576 13.142C12.2082 13.142 12.4709 12.8695 12.4709 12.5172C12.4709 12.1746 12.2082 11.9057 11.8576 11.9057Z" fill="white" fill-opacity="0.85"/>
  <path d="M11.8576 15.182L4.70214 15.182C4.34003 15.182 4.06932 15.4625 4.06932 15.8148C4.06932 16.1574 4.34003 16.4184 4.70214 16.4184L11.8576 16.4184C12.2082 16.4184 12.4709 16.1574 12.4709 15.8148C12.4709 15.4625 12.2082 15.182 11.8576 15.182Z" fill="white" fill-opacity="0.85"/>
 </g>
</svg>
