<?xml version="1.0" encoding="UTF-8"?>
<!--Generator: Apple Native CoreSVG 341-->
<!DOCTYPE svg
PUBLIC "-//W3C//DTD SVG 1.1//EN"
       "http://www.w3.org/Graphics/SVG/1.1/DTD/svg11.dtd">
<svg version="1.1" xmlns="http://www.w3.org/2000/svg" xmlns:xlink="http://www.w3.org/1999/xlink" viewBox="0 0 15.7136 18.6219">
 <g>
  <rect height="18.6219" opacity="0" width="15.7136" x="0" y="0"/>
  <path d="M1.08046 16.6273C1.7369 16.6273 2.07518 16.3617 2.28709 15.6689L6.14354 4.47264L6.1994 4.47264L10.041 15.6689C10.2512 16.3617 10.5894 16.6273 11.2396 16.6273C11.9242 16.6273 12.3652 16.2164 12.3652 15.5787C12.3652 15.3441 12.3271 15.1404 12.2314 14.8773L7.90798 3.20213C7.61306 2.38319 7.05974 1.98027 6.17108 1.98027C5.32305 1.98027 4.76524 2.37694 4.47657 3.19412L0.130273 14.9275C0.0398433 15.1783 0 15.3908 0 15.599C0 16.235 0.412691 16.6273 1.08046 16.6273ZM2.98964 12.633L9.35448 12.633C9.84803 12.633 10.2539 12.2271 10.2539 11.7336C10.2539 11.232 9.84803 10.8342 9.35448 10.8342L2.98964 10.8342C2.49609 10.8342 2.09024 11.232 2.09024 11.7336C2.09024 12.2271 2.49609 12.633 2.98964 12.633Z" fill="white" fill-opacity="0.85"/>
  <path d="M14.497 8.39081C15.0093 8.39081 15.3523 8.07245 15.3523 7.53398L15.3523 0.938666C15.3523 0.358982 14.9785 0 14.4068 0C13.9138 0 13.6428 0.185351 13.3033 0.415818L11.783 1.45312C11.4681 1.66152 11.3449 1.85488 11.3449 2.11093C11.3449 2.49921 11.6242 2.77499 11.9674 2.77499C12.175 2.77499 12.2992 2.71464 12.5226 2.5621L13.6142 1.83378L13.6435 1.83378L13.6435 7.53398C13.6435 8.07245 13.9945 8.39081 14.497 8.39081Z" fill="white" fill-opacity="0.85"/>
 </g>
</svg>
