<?xml version="1.0" encoding="UTF-8"?>
<!--Generator: Apple Native CoreSVG 341-->
<!DOCTYPE svg
PUBLIC "-//W3C//DTD SVG 1.1//EN"
       "http://www.w3.org/Graphics/SVG/1.1/DTD/svg11.dtd">
<svg version="1.1" xmlns="http://www.w3.org/2000/svg" xmlns:xlink="http://www.w3.org/1999/xlink" viewBox="0 0 30.7363 21.0593">
 <g>
  <rect height="21.0593" opacity="0" width="30.7363" x="0" y="0"/>
  <path d="M7.28456 19.1127L25.5806 19.1127C26.0939 19.1127 26.5017 18.6988 26.5017 18.1908C26.5017 17.6758 26.0957 17.2609 25.5806 17.2609L7.28456 17.2609C6.77128 17.2609 6.37323 17.681 6.37323 18.1908C6.37323 18.6953 6.77479 19.1127 7.28456 19.1127Z" fill="white" fill-opacity="0.85"/>
  <path d="M7.28456 14.0052L25.5806 14.0052C26.0939 14.0052 26.5017 13.5914 26.5017 13.0834C26.5017 12.5603 26.0957 12.1535 25.5806 12.1535L7.28456 12.1535C6.77128 12.1535 6.37323 12.5638 6.37323 13.0834C6.37323 13.5861 6.77479 14.0052 7.28456 14.0052Z" fill="white" fill-opacity="0.85"/>
  <path d="M7.28456 8.89606L25.5806 8.89606C26.0939 8.89606 26.5017 8.47418 26.5017 7.96618C26.5017 7.4529 26.0957 7.04431 25.5806 7.04431L7.28456 7.04431C6.77128 7.04431 6.37323 7.45642 6.37323 7.96618C6.37323 8.47067 6.77479 8.89606 7.28456 8.89606Z" fill="white" fill-opacity="0.85"/>
  <path d="M7.63534 4.52692L25.2414 4.52692C26.074 4.52692 26.5017 4.10895 26.5017 3.27458L26.5017 2.43317C26.5017 1.61657 26.074 1.18884 25.2414 1.18884L7.63534 1.18884C6.80273 1.18884 6.37499 1.61657 6.37499 2.43317L6.37499 3.27458C6.37499 4.10895 6.80273 4.52692 7.63534 4.52692Z" fill="white" fill-opacity="0.85"/>
  <path d="M0.993159 5.59938L4.52148 3.45563C5.01288 3.16735 5.00136 2.56794 4.52148 2.28142L0.993159 0.129659C0.488474-0.17991 0 0.0905964 0 0.667938L0 5.06735C0 5.65446 0.490232 5.90719 0.993159 5.59938Z" fill="white" fill-opacity="0.85"/>
 </g>
</svg>
