<?xml version="1.0" encoding="UTF-8"?>
<!--Generator: Apple Native CoreSVG 341-->
<!DOCTYPE svg
PUBLIC "-//W3C//DTD SVG 1.1//EN"
       "http://www.w3.org/Graphics/SVG/1.1/DTD/svg11.dtd">
<svg version="1.1" xmlns="http://www.w3.org/2000/svg" xmlns:xlink="http://www.w3.org/1999/xlink" viewBox="0 0 17.107 21.1441">
 <g>
  <rect height="21.1441" opacity="0" width="17.107" x="0" y="0"/>
  <path d="M16.7457 3.20527L16.7457 17.9406C16.7457 20.0502 15.6678 21.1379 13.5742 21.1379L3.17148 21.1379C1.07968 21.1379 0 20.0502 0 17.9406L0 3.20527C0 1.10371 1.07968 0 3.17148 0L13.5742 0C15.6678 0 16.7457 1.10371 16.7457 3.20527ZM4.77089 9.63241C3.93085 9.63241 3.4496 10.0809 3.4496 10.9484L3.4496 16.392C3.4496 17.2578 3.93085 17.708 4.77089 17.708L11.9898 17.708C12.8574 17.708 13.2996 17.2578 13.2996 16.392L13.2996 10.9484C13.2996 10.0809 12.8574 9.63241 11.9898 9.63241ZM4.62343 6.72128C4.23827 6.72128 3.96405 7.00351 3.96405 7.35761C3.96405 7.72499 4.23827 8.00897 4.62343 8.00897L9.19297 8.00897C9.56836 8.00897 9.84882 7.72499 9.84882 7.35761C9.84882 7.00351 9.56836 6.72128 9.19297 6.72128ZM4.62343 3.80038C4.23827 3.80038 3.96405 4.08261 3.96405 4.44823C3.96405 4.8121 4.23827 5.09608 4.62343 5.09608L12.4469 5.09608C12.8205 5.09608 13.0947 4.8121 13.0947 4.44823C13.0947 4.08261 12.8205 3.80038 12.4469 3.80038Z" fill="white" fill-opacity="0.85"/>
 </g>
</svg>
