<?xml version="1.0" encoding="UTF-8"?>
<!--Generator: Apple Native CoreSVG 341-->
<!DOCTYPE svg
PUBLIC "-//W3C//DTD SVG 1.1//EN"
       "http://www.w3.org/Graphics/SVG/1.1/DTD/svg11.dtd">
<svg version="1.1" xmlns="http://www.w3.org/2000/svg" xmlns:xlink="http://www.w3.org/1999/xlink" viewBox="0 0 19.642 19.4609">
 <g>
  <rect height="19.4609" opacity="0" width="19.642" x="0" y="0"/>
  <path d="M0 7.94765C0 12.3342 3.56465 15.8971 7.94941 15.8971C9.58007 15.8971 11.0766 15.3959 12.3242 14.55L16.8108 19.0445C17.0916 19.3254 17.4637 19.4592 17.8553 19.4592C18.6863 19.4592 19.2807 18.8311 19.2807 18.0098C19.2807 17.6234 19.1389 17.2629 18.8705 16.9945L14.4185 12.5168C15.3506 11.2346 15.8988 9.6582 15.8988 7.94765C15.8988 3.56289 12.3342 0 7.94941 0C3.56465 0 0 3.56289 0 7.94765ZM2.03026 7.94765C2.03026 4.68475 4.683 2.03026 7.94765 2.03026C11.2158 2.03026 13.8668 4.68475 13.8668 7.94765C13.8668 11.2123 11.2158 13.8668 7.94765 13.8668C4.683 13.8668 2.03026 11.2123 2.03026 7.94765Z" fill="white" fill-opacity="0.85"/>
  <path d="M5.05077 7.37011L10.9012 7.37011C11.2979 7.37011 11.6031 7.04452 11.6031 6.65488C11.6031 6.25644 11.3014 5.93964 10.9012 5.93964L5.05077 5.93964C4.64432 5.93964 4.33905 6.2582 4.33905 6.65488C4.33905 7.04628 4.64608 7.37011 5.05077 7.37011ZM5.05077 9.94589L9.26699 9.94589C9.66191 9.94589 9.9832 9.63183 9.9832 9.23867C9.9832 8.84199 9.66543 8.51543 9.26699 8.51543L5.05077 8.51543C4.64432 8.51543 4.33905 8.84374 4.33905 9.23867C4.33905 9.63183 4.64608 9.94589 5.05077 9.94589Z" fill="white" fill-opacity="0.85"/>
 </g>
</svg>
