<?xml version="1.0" encoding="UTF-8"?>
<!--Generator: Apple Native CoreSVG 341-->
<!DOCTYPE svg
PUBLIC "-//W3C//DTD SVG 1.1//EN"
       "http://www.w3.org/Graphics/SVG/1.1/DTD/svg11.dtd">
<svg version="1.1" xmlns="http://www.w3.org/2000/svg" xmlns:xlink="http://www.w3.org/1999/xlink" viewBox="0 0 20.5037 25.2004">
 <g>
  <rect height="25.2004" opacity="0" width="20.5037" x="0" y="0"/>
  <path d="M0.853706 25.2004L12.9932 25.2004C13.4701 25.2004 13.8549 24.8236 13.8549 24.3467C13.8549 23.868 13.4701 23.4832 12.9932 23.4832L0.853706 23.4832C0.376756 23.4832 0 23.868 0 24.3467C0 24.8236 0.376756 25.2004 0.853706 25.2004Z" fill="white" fill-opacity="0.85"/>
  <path d="M0.853706 20.5658L19.2807 20.5658C19.7576 20.5658 20.1424 20.1873 20.1424 19.7023C20.1424 19.2254 19.7576 18.8486 19.2807 18.8486L0.853706 18.8486C0.376756 18.8486 0 19.2254 0 19.7023C0 20.1873 0.376756 20.5658 0.853706 20.5658Z" fill="white" fill-opacity="0.85"/>
  <path d="M2.82207 15.9135L17.3186 15.9135C19.1859 15.9135 20.1424 14.965 20.1424 13.1297L20.1424 2.81406C20.1424 0.982224 19.1859 0.0160158 17.3186 0.0160158L2.82207 0.0160158C0.974216 0.0160158 0 0.99199 0 2.81406L0 13.1297C0 14.957 0.966209 15.9135 2.82207 15.9135ZM2.99784 14.1647C2.21874 14.1647 1.75682 13.7045 1.75682 12.9156L1.75682 12.3385L4.08554 10.2113C4.45136 9.88281 4.84218 9.72031 5.23183 9.72031C5.64648 9.72031 6.0709 9.89082 6.44824 10.2309L8.05527 11.6879L12.0961 8.09551C12.509 7.73945 12.9609 7.56719 13.452 7.56719C13.9074 7.56719 14.4047 7.73945 14.782 8.11328L18.4256 11.566L18.4256 12.9299C18.4256 13.7045 17.9354 14.1647 17.1828 14.1647ZM6.62851 8.1334C5.46112 8.1334 4.50507 7.18086 4.50507 6.00996C4.50507 4.85058 5.46112 3.89453 6.62851 3.89453C7.78964 3.89453 8.74394 4.85058 8.74394 6.00996C8.74394 7.18086 7.78964 8.1334 6.62851 8.1334Z" fill="white" fill-opacity="0.85"/>
 </g>
</svg>
