<?xml version="1.0" encoding="UTF-8"?>
<!--Generator: Apple Native CoreSVG 341-->
<!DOCTYPE svg
PUBLIC "-//W3C//DTD SVG 1.1//EN"
       "http://www.w3.org/Graphics/SVG/1.1/DTD/svg11.dtd">
<svg version="1.1" xmlns="http://www.w3.org/2000/svg" xmlns:xlink="http://www.w3.org/1999/xlink" viewBox="0 0 30.7363 21.0373">
 <g>
  <rect height="21.0373" opacity="0" width="30.7363" x="0" y="0"/>
  <path d="M7.28456 1.91785C6.77479 1.91785 6.37323 2.34324 6.37323 2.84773C6.37323 3.35749 6.77128 3.7696 7.28456 3.7696L25.5806 3.7696C26.0957 3.7696 26.5017 3.36101 26.5017 2.84773C26.5017 2.33972 26.0939 1.91785 25.5806 1.91785Z" fill="white" fill-opacity="0.85"/>
  <path d="M7.28456 7.03328C6.77479 7.03328 6.37323 7.45242 6.37323 7.95515C6.37323 8.46491 6.77128 8.88503 7.28456 8.88503L25.5806 8.88503C26.0957 8.88503 26.5017 8.47019 26.5017 7.95515C26.5017 7.44715 26.0939 7.03328 25.5806 7.03328Z" fill="white" fill-opacity="0.85"/>
  <path d="M7.28456 12.1425C6.77479 12.1425 6.37323 12.5598 6.37323 13.0723C6.37323 13.5821 6.77128 13.9942 7.28456 13.9942L25.5806 13.9942C26.0957 13.9942 26.5017 13.5856 26.5017 13.0723C26.5017 12.5563 26.0939 12.1425 25.5806 12.1425Z" fill="white" fill-opacity="0.85"/>
  <path d="M7.63534 16.5098C6.80273 16.5098 6.37499 16.9296 6.37499 17.7622L6.37499 18.6053C6.37499 19.4202 6.80273 19.8479 7.63534 19.8479L25.2414 19.8479C26.074 19.8479 26.5017 19.4202 26.5017 18.6053L26.5017 17.7622C26.5017 16.9296 26.074 16.5098 25.2414 16.5098Z" fill="white" fill-opacity="0.85"/>
  <path d="M0.993159 15.4391C0.490232 15.1313 0 15.3841 0 15.9712L0 20.3626C0 20.9462 0.488474 21.2167 0.993159 20.9089L4.52148 18.7571C5.00136 18.4626 5.01288 17.8712 4.52148 17.5749Z" fill="white" fill-opacity="0.85"/>
 </g>
</svg>
