<?xml version="1.0" encoding="UTF-8"?>
<!--Generator: Apple Native CoreSVG 341-->
<!DOCTYPE svg
PUBLIC "-//W3C//DTD SVG 1.1//EN"
       "http://www.w3.org/Graphics/SVG/1.1/DTD/svg11.dtd">
<svg version="1.1" xmlns="http://www.w3.org/2000/svg" xmlns:xlink="http://www.w3.org/1999/xlink" viewBox="0 0 17.107 21.1441">
 <g>
  <rect height="21.1441" opacity="0" width="17.107" x="0" y="0"/>
  <path d="M0 17.9406C0 20.0502 1.07968 21.1379 3.17148 21.1379L13.5742 21.1379C15.6678 21.1379 16.7457 20.0502 16.7457 17.9406L16.7457 3.20527C16.7457 1.10371 15.6678 0 13.5742 0L3.17148 0C1.07968 0 0 1.10371 0 3.20527ZM1.91327 17.8217L1.91327 3.32421C1.91327 2.41444 2.38163 1.91327 3.33222 1.91327L13.4152 1.91327C14.3641 1.91327 14.8324 2.41444 14.8324 3.32421L14.8324 17.8217C14.8324 18.7314 14.3641 19.2246 13.4152 19.2246L3.33222 19.2246C2.38163 19.2246 1.91327 18.7314 1.91327 17.8217Z" fill="white" fill-opacity="0.85"/>
  <path d="M4.75995 5.29725L12.3006 5.29725C12.6609 5.29725 12.9236 5.02479 12.9236 4.67245C12.9236 4.33163 12.6609 4.06093 12.3006 4.06093L4.75995 4.06093C4.38983 4.06093 4.12889 4.33163 4.12889 4.67245C4.12889 5.02479 4.38983 5.29725 4.75995 5.29725ZM4.75995 8.0994L9.17168 8.0994C9.52226 8.0994 9.79296 7.82694 9.79296 7.4746C9.79296 7.13378 9.52226 6.86308 9.17168 6.86308L4.75995 6.86308C4.38983 6.86308 4.12889 7.13378 4.12889 7.4746C4.12889 7.82694 4.38983 8.0994 4.75995 8.0994ZM4.8994 17.4475L11.8613 17.4475C12.6961 17.4475 13.1232 17.0186 13.1232 16.1855L13.1232 10.9352C13.1232 10.1021 12.6961 9.66523 11.8613 9.66523L4.8994 9.66523C4.09393 9.66523 3.62596 10.1021 3.62596 10.9352L3.62596 16.1855C3.62596 17.0186 4.09393 17.4475 4.8994 17.4475Z" fill="white" fill-opacity="0.85"/>
 </g>
</svg>
