<?xml version="1.0" encoding="UTF-8"?>
<!--Generator: Apple Native CoreSVG 341-->
<!DOCTYPE svg
PUBLIC "-//W3C//DTD SVG 1.1//EN"
       "http://www.w3.org/Graphics/SVG/1.1/DTD/svg11.dtd">
<svg version="1.1" xmlns="http://www.w3.org/2000/svg" xmlns:xlink="http://www.w3.org/1999/xlink" viewBox="0 0 22.2363 21.7609">
 <g>
  <rect height="21.7609" opacity="0" width="22.2363" x="0" y="0"/>
  <path d="M6.2871 21.7609C6.83065 21.7609 7.23475 21.4947 7.91131 20.9006L11.2541 17.9412L17.2898 17.9412C20.2281 17.9412 21.875 16.2525 21.875 13.3543L21.875 5.78066C21.875 2.88242 20.2281 1.19375 17.2898 1.19375L4.58515 1.19375C1.64687 1.19375 0 2.87441 0 5.78066L0 13.3543C0 16.2605 1.6873 17.9412 4.52363 17.9412L5.04863 17.9412L5.04863 20.3484C5.04863 21.2111 5.50156 21.7609 6.2871 21.7609ZM6.76131 19.61L6.76131 16.8219C6.76131 16.2488 6.51581 16.0279 5.96737 16.0279L4.63964 16.0279C2.79354 16.0279 1.91327 15.0889 1.91327 13.2936L1.91327 5.83339C1.91327 4.03808 2.79354 3.10702 4.63964 3.10702L17.2353 3.10702C19.0734 3.10702 19.9617 4.03808 19.9617 5.83339L19.9617 13.2936C19.9617 15.0889 19.0734 16.0279 17.2353 16.0279L11.1515 16.0279C10.5572 16.0279 10.275 16.1236 9.86171 16.5414Z" fill="white" fill-opacity="0.85"/>
  <path d="M5.96796 6.99784L15.8092 6.99784C16.1445 6.99784 16.4098 6.72734 16.4098 6.38749C16.4098 6.06191 16.1445 5.78867 15.8092 5.78867L5.96796 5.78867C5.63612 5.78867 5.3664 6.06191 5.3664 6.38749C5.3664 6.72734 5.63788 6.99784 5.96796 6.99784Z" fill="white" fill-opacity="0.85"/>
  <path d="M5.96796 10.1129L15.8092 10.1129C16.1445 10.1129 16.4098 9.83437 16.4098 9.49453C16.4098 9.16894 16.1445 8.89394 15.8092 8.89394L5.96796 8.89394C5.63612 8.89394 5.3664 9.1707 5.3664 9.49453C5.3664 9.83437 5.63788 10.1129 5.96796 10.1129Z" fill="white" fill-opacity="0.85"/>
  <path d="M5.96796 13.2199L12.3801 13.2199C12.7154 13.2199 12.9771 12.9494 12.9771 12.6176C12.9771 12.276 12.7154 12.001 12.3801 12.001L5.96796 12.001C5.63612 12.001 5.3664 12.2777 5.3664 12.6176C5.3664 12.9494 5.63788 13.2199 5.96796 13.2199Z" fill="white" fill-opacity="0.85"/>
 </g>
</svg>
