<?xml version="1.0" encoding="UTF-8"?>
<!--Generator: Apple Native CoreSVG 341-->
<!DOCTYPE svg
PUBLIC "-//W3C//DTD SVG 1.1//EN"
       "http://www.w3.org/Graphics/SVG/1.1/DTD/svg11.dtd">
<svg version="1.1" xmlns="http://www.w3.org/2000/svg" xmlns:xlink="http://www.w3.org/1999/xlink" viewBox="0 0 17.107 21.1441">
 <g>
  <rect height="21.1441" opacity="0" width="17.107" x="0" y="0"/>
  <path d="M7.62929 7.38066C7.62929 8.60429 8.22324 9.19823 9.44511 9.19823L16.7457 9.19823L16.7457 17.9406C16.7457 20.0422 15.6678 21.1379 13.5742 21.1379L3.17148 21.1379C1.07968 21.1379 0 20.0502 0 17.9406L0 3.20527C0 1.10371 1.08769 0 3.17148 0L7.62929 0ZM4.5746 15.7978C4.16562 15.7978 3.86308 16.1021 3.86308 16.4934C3.86308 16.881 4.16562 17.1756 4.5746 17.1756L12.1969 17.1756C12.5961 17.1756 12.9004 16.881 12.9004 16.4934C12.9004 16.1021 12.5961 15.7978 12.1969 15.7978ZM4.5746 12.1318C4.16562 12.1318 3.86308 12.4361 3.86308 12.8221C3.86308 13.2133 4.16562 13.5113 4.5746 13.5113L12.1969 13.5113C12.5961 13.5113 12.9004 13.2133 12.9004 12.8221C12.9004 12.4361 12.5961 12.1318 12.1969 12.1318ZM10.4248 0.980467L15.7564 6.39395C16.2639 6.91113 16.5875 7.3334 16.639 7.7707L9.61855 7.7707C9.2414 7.7707 9.05683 7.58613 9.05683 7.21699L9.05683 0.100391C9.50214 0.161719 9.93417 0.483593 10.4248 0.980467Z" fill="white" fill-opacity="0.85"/>
 </g>
</svg>
