<?xml version="1.0" encoding="UTF-8"?>
<!--Generator: Apple Native CoreSVG 341-->
<!DOCTYPE svg
PUBLIC "-//W3C//DTD SVG 1.1//EN"
       "http://www.w3.org/Graphics/SVG/1.1/DTD/svg11.dtd">
<svg version="1.1" xmlns="http://www.w3.org/2000/svg" xmlns:xlink="http://www.w3.org/1999/xlink" viewBox="0 0 20.5381 20.1848">
 <g>
  <rect height="20.1848" opacity="0" width="20.5381" x="0" y="0"/>
  <path d="M20.1767 10.0973C20.1767 15.6656 15.6576 20.1848 10.0875 20.1848C4.52715 20.1848 0 15.6656 0 10.0973C0 4.53691 4.52715 0.00976562 10.0875 0.00976562C15.6576 0.00976562 20.1767 4.53691 20.1767 10.0973ZM12.0236 9.1371C12.2855 10.0648 12.2971 10.9375 12.0902 11.701C12.1879 11.724 12.3131 11.732 12.409 11.7613C13.1654 11.9451 13.6812 12.524 13.7123 13.2023C13.7123 13.3896 13.5445 13.4695 13.4256 13.3293C13.0039 12.9484 12.6301 12.7566 12.1728 12.6297C12.0334 12.5826 11.8824 12.5498 11.7377 12.532C11.3879 13.2066 10.8197 13.7605 10.0687 14.1484C10.4611 14.4832 10.985 14.7434 11.5904 14.9094C13.7193 15.466 15.3342 14.4894 15.9334 12.2674L16.7307 9.25859C16.9605 8.43749 16.6508 7.89511 15.8217 7.68652L11.5504 6.53769C11.4687 6.50038 11.3773 6.49062 11.309 6.47909ZM8.87851 5.41991L4.60722 6.55898C3.7666 6.77558 3.46835 7.3082 3.7 8.14882L4.48925 11.1674C5.0832 13.3894 6.69804 14.366 8.83046 13.7996C10.9584 13.2217 11.8861 11.5695 11.2807 9.33769L10.4684 6.32714C10.2437 5.50781 9.70312 5.21132 8.87851 5.41991ZM9.94824 10.4465C9.91718 11.3041 9.32675 12.0037 8.41855 12.2363C7.52363 12.4787 6.64824 12.1644 6.18925 11.4488C6.0916 11.2978 6.18124 11.1771 6.34902 11.1851C6.91738 11.2322 7.59121 11.1363 8.08652 11.0014C8.58535 10.8709 9.20859 10.6135 9.6748 10.2937C9.82753 10.1926 9.96953 10.2725 9.94824 10.4465ZM14.292 9.90234C14.593 9.98222 14.7625 10.2867 14.6844 10.5779C14.593 10.8726 14.292 11.0582 13.999 10.9738C13.7043 10.9117 13.5285 10.5894 13.6146 10.2867C13.6848 9.99198 13.9893 9.82245 14.292 9.90234ZM6.92617 9.18495C6.95898 9.31366 6.92968 9.41757 6.86132 9.44511C6.69355 9.49745 6.5373 9.32167 6.24257 9.41757C5.91855 9.50722 5.89101 9.72031 5.73476 9.73984C5.67617 9.75761 5.60957 9.67323 5.56875 9.56581C5.44355 9.18495 5.68593 8.79257 6.06054 8.70644C6.43964 8.61054 6.80097 8.83339 6.92617 9.18495ZM9.55136 8.49335C9.60019 8.61054 9.54335 8.70644 9.49101 8.74374C9.32851 8.78456 9.16875 8.61054 8.87753 8.70644C8.56328 8.78456 8.51445 9.00116 8.36796 9.01718C8.31113 9.04023 8.23476 8.95234 8.18593 8.84316C8.08652 8.49335 8.32265 8.07167 8.69199 7.98378C9.07109 7.90917 9.46171 8.10097 9.55136 8.49335Z" fill="white" fill-opacity="0.85"/>
 </g>
</svg>
