<?xml version="1.0" encoding="UTF-8"?>
<!--Generator: Apple Native CoreSVG 341-->
<!DOCTYPE svg
PUBLIC "-//W3C//DTD SVG 1.1//EN"
       "http://www.w3.org/Graphics/SVG/1.1/DTD/svg11.dtd">
<svg version="1.1" xmlns="http://www.w3.org/2000/svg" xmlns:xlink="http://www.w3.org/1999/xlink" viewBox="0 0 20.5381 20.1848">
 <g>
  <rect height="20.1848" opacity="0" width="20.5381" x="0" y="0"/>
  <path d="M10.0875 20.175C15.6576 20.175 20.1767 15.6559 20.1767 10.0875C20.1767 4.51914 15.6576 0 10.0875 0C4.51914 0 0 4.51914 0 10.0875C0 15.6559 4.51914 20.175 10.0875 20.175ZM10.0875 18.1879C5.60839 18.1879 1.9871 14.5666 1.9871 10.0875C1.9871 5.60839 5.60839 1.9871 10.0875 1.9871C14.5666 1.9871 18.1897 5.60839 18.1897 10.0875C18.1897 14.5666 14.5666 18.1879 10.0875 18.1879Z" fill="white" fill-opacity="0.85"/>
  <path d="M8.89238 13.6332C10.9283 13.0738 11.8144 11.5014 11.2373 9.36777L10.4586 6.48554C10.2455 5.69804 9.72968 5.41659 8.94042 5.61991L4.85058 6.70585C4.05155 6.91894 3.76034 7.42499 3.97519 8.22401L4.74413 11.1143C5.30351 13.2363 6.85644 14.165 8.89238 13.6332ZM8.49374 12.1398C7.64042 12.3627 6.80663 12.0617 6.35468 11.3744C6.26679 11.243 6.35468 11.124 6.51894 11.124C7.06249 11.1711 7.69824 11.0769 8.17675 10.9598C8.64902 10.831 9.25371 10.5887 9.70312 10.2805C9.83808 10.1828 9.98457 10.2529 9.96503 10.4154C9.93398 11.2394 9.36835 11.9107 8.49374 12.1398ZM6.41601 9.43788C6.10702 9.52577 6.07148 9.71757 5.93476 9.74687C5.86816 9.75663 5.80155 9.68827 5.76249 9.58437C5.65683 9.21679 5.88769 8.8412 6.24374 8.76484C6.60156 8.67069 6.95585 8.88027 7.06327 9.21679C7.10234 9.34374 7.07304 9.43788 6.99843 9.46718C6.84218 9.508 6.69745 9.35175 6.41601 9.43788ZM8.92792 8.76484C8.62871 8.83319 8.58163 9.04628 8.45468 9.05429C8.39785 9.08359 8.32148 8.99745 8.27265 8.89179C8.18476 8.5455 8.40761 8.15839 8.7539 8.07226C9.12773 7.98964 9.48554 8.17792 9.57343 8.5455C9.62226 8.67069 9.57343 8.76484 9.5166 8.78437C9.37011 8.83319 9.21562 8.67069 8.92792 8.76484ZM15.5721 7.78202L11.484 6.67831C11.4041 6.65702 11.3162 6.64726 11.2478 6.63573L11.9404 9.17245C12.1828 10.0586 12.1943 10.8994 11.999 11.623C12.1029 11.6443 12.2103 11.6523 12.3107 11.6816C13.0389 11.8619 13.5299 12.4143 13.5609 13.066C13.5609 13.2303 13.4029 13.3164 13.2777 13.1894C12.8711 12.8139 12.5221 12.6353 12.0816 12.5102C11.9502 12.4728 11.8027 12.4338 11.6695 12.4223C11.333 13.0668 10.7914 13.5941 10.0643 13.9652C10.4478 14.2805 10.9406 14.5353 11.532 14.6898C13.5564 15.2279 15.1111 14.293 15.6723 12.1709L16.4475 9.28866C16.6641 8.50116 16.3693 7.98534 15.5721 7.78202ZM13.8326 10.9322C13.5529 10.8719 13.3789 10.5646 13.465 10.2752C13.5236 9.9955 13.8211 9.82948 14.1123 9.90761C14.392 9.97597 14.5643 10.2752 14.4896 10.5549C14.4 10.8346 14.1123 11.0068 13.8326 10.9322Z" fill="white" fill-opacity="0.85"/>
 </g>
</svg>
