<?xml version="1.0" encoding="UTF-8"?>
<!--Generator: Apple Native CoreSVG 341-->
<!DOCTYPE svg
PUBLIC "-//W3C//DTD SVG 1.1//EN"
       "http://www.w3.org/Graphics/SVG/1.1/DTD/svg11.dtd">
<svg version="1.1" xmlns="http://www.w3.org/2000/svg" xmlns:xlink="http://www.w3.org/1999/xlink" viewBox="0 0 33.8879 22.9699">
 <g>
  <rect height="22.9699" opacity="0" width="33.8879" x="0" y="0"/>
  <path d="M21.4484 2.66369L31.1523 5.28967C33.124 5.82385 33.8799 7.09337 33.375 9.03575L31.525 15.9104C30.1297 21.0531 26.4029 23.3217 21.4617 22.0098C18.6394 21.2466 16.7398 19.6573 15.8963 17.4726C16.5373 16.8887 17.0425 16.2102 17.4006 15.4449C17.7242 17.7678 19.3042 19.4483 21.967 20.175C25.7406 21.1783 28.5928 19.4211 29.6724 15.4291L31.4896 8.63615C31.7144 7.83107 31.4308 7.31993 30.6418 7.10313L20.9672 4.52423C20.1736 4.31719 19.6883 4.60431 19.483 5.40314L18.0343 10.7946C17.9742 10.2739 17.8663 9.73303 17.7178 9.17677L17.1014 6.87655L17.6535 4.83048C18.1957 2.87033 19.4635 2.13752 21.4484 2.66369ZM23.4533 14.4549C25.2879 14.9326 26.5373 16.3338 26.5994 18.0297C26.6269 18.535 26.1447 18.7588 25.7621 18.408C24.7859 17.5463 23.908 17.0422 22.8451 16.759C21.7885 16.4668 20.7215 16.4738 19.4912 16.7324C18.9789 16.8426 18.6689 16.3932 18.9416 15.982C19.849 14.5561 21.6222 13.9559 23.4533 14.4549ZM27.6033 10.4338C28.3305 10.6274 28.7584 11.366 28.5683 12.0932C28.3695 12.8221 27.6326 13.2483 26.9055 13.0627C26.1765 12.8611 25.7469 12.1127 25.9502 11.3856C26.1473 10.6647 26.8842 10.2305 27.6033 10.4338ZM21.9412 8.91817C22.6701 9.12325 23.098 9.86993 22.9125 10.5971C22.7092 11.326 21.9607 11.7539 21.2433 11.5506C20.5144 11.3535 20.0883 10.6166 20.2738 9.88946C20.4754 9.16231 21.2221 8.72462 21.9412 8.91817Z" fill="white" fill-opacity="0.85"/>
  <path d="M12.0551 19.4877C16.9847 18.1492 19.0918 14.3213 17.7178 9.17677L15.8748 2.29865C15.3539 0.358027 14.0533-0.35701 12.0799 0.165645L2.3582 2.74807C0.381246 3.27424-0.36133 4.54201 0.163083 6.51193L1.99004 13.3848C3.35781 18.5203 7.11835 20.7951 12.0551 19.4877ZM11.5676 17.6449C7.77264 18.6367 4.91874 16.8813 3.84881 12.8928L2.03514 6.09005C1.8201 5.29298 2.09569 4.79962 2.87147 4.58634L12.5461 1.99239C13.3414 1.77735 13.833 2.07423 14.0498 2.88107L15.867 9.68204C16.9271 13.682 15.3475 16.6354 11.5676 17.6449ZM6.33163 9.54181C7.02147 9.35626 7.35448 9.67853 7.64745 9.61017C7.86229 9.55958 7.94667 9.28966 7.85253 8.94161C7.64921 8.08126 6.72577 7.5627 5.87792 7.80958C4.99803 8.02794 4.46796 8.93185 4.70858 9.76915C4.81776 10.1305 5.02206 10.3125 5.23065 10.2672C5.52362 10.1811 5.63729 9.72735 6.33163 9.54181ZM12.0338 7.99239C12.7316 7.80685 13.0584 8.13712 13.3478 8.06876C13.5627 8.01017 13.6551 7.74024 13.5547 7.3922C13.3478 6.5336 12.4342 6.02306 11.5801 6.26817C10.7002 6.48302 10.1683 7.38067 10.4107 8.21974C10.5164 8.57931 10.726 8.77462 10.9328 8.71427C11.232 8.63165 11.3457 8.17618 12.0338 7.99239ZM11.0322 15.6746C13.0691 15.1188 14.3717 13.5809 14.4418 11.6789C14.4516 11.1826 14.0201 10.9971 13.6064 11.3193C12.3117 12.2305 10.9185 12.5998 10.2633 12.7818C9.60624 12.9559 8.21932 13.3395 6.61737 13.1867C6.10604 13.1201 5.81483 13.5027 6.08827 13.9031C7.1076 15.5317 9.00331 16.2029 11.0322 15.6746Z" fill="white" fill-opacity="0.85"/>
 </g>
</svg>
