<?xml version="1.0" encoding="UTF-8"?>
<!--Generator: Apple Native CoreSVG 341-->
<!DOCTYPE svg
PUBLIC "-//W3C//DTD SVG 1.1//EN"
       "http://www.w3.org/Graphics/SVG/1.1/DTD/svg11.dtd">
<svg version="1.1" xmlns="http://www.w3.org/2000/svg" xmlns:xlink="http://www.w3.org/1999/xlink" viewBox="0 0 25.9451 26.6274">
 <g>
  <rect height="26.6274" opacity="0" width="25.9451" x="0" y="0"/>
  <path d="M15.1476 3.03443L16.5213 8.15129C15.523 9.3072 14.496 10.5604 13.5554 11.7771C13.6314 11.5126 13.6752 11.2324 13.6859 10.9399C13.7152 10.5155 13.3529 10.3717 12.9846 10.6327C12.2742 11.1557 11.3451 11.5719 10.0414 11.929C8.73944 12.2717 7.72069 12.3809 6.84784 12.2743C6.3996 12.2397 6.15448 12.546 6.3951 12.8922C7.31756 14.359 9.02225 14.8721 10.7082 14.4309C11.3117 14.2676 11.8559 13.9968 12.3074 13.6355C11.9863 14.3076 11.7913 15.0493 11.7441 15.8747C10.99 16.0866 10.2838 16.5104 9.72382 17.1364C9.26152 17.618 8.97813 18.1594 8.80423 18.6721C5.94057 18.3288 3.70829 16.2292 2.81601 12.9051L1.1789 6.76958C0.702336 5.01509 1.39452 3.83931 3.16581 3.36099L11.7115 1.07408C13.4828 0.603768 14.6746 1.27193 15.1476 3.03443ZM5.93397 7.40708C5.10994 7.62818 4.64823 8.43169 4.86756 9.20689C4.95545 9.54966 5.14373 9.72017 5.32401 9.68111C5.59393 9.59849 5.69608 9.16255 6.35663 8.98677C7.01893 8.81275 7.32264 9.14302 7.60409 9.0649C7.78084 9.02583 7.85897 8.77095 7.77284 8.43618C7.56151 7.65474 6.75975 7.18599 5.93397 7.40708ZM11.3316 5.95532C10.5139 6.17642 10.0539 6.9897 10.2635 7.76314C10.3576 8.0979 10.5414 8.27818 10.7297 8.23111C10.9978 8.15474 11.1 7.72056 11.7623 7.53677C12.4246 7.36099 12.7283 7.6895 13 7.6229C13.1865 7.57583 13.2549 7.3272 13.167 6.99243C12.9592 6.21099 12.1557 5.74399 11.3316 5.95532Z" fill="white" fill-opacity="0.85"/>
  <path d="M21.3832 5.044C20.774 5.60415 17.6097 8.67486 15.0349 12.1083C17.3615 12.418 19.3801 13.8083 20.4912 15.8901C22.7752 12.1379 24.0726 8.07544 24.3873 7.2563C25.2058 5.019 22.9646 3.64244 21.3832 5.044ZM15.8783 16.7254C16.733 17.3122 17.4183 18.145 17.7137 18.917C18.4226 18.6524 18.9654 18.1993 19.4371 17.5426C19.525 17.4227 19.6174 17.293 19.6955 17.1651C18.8812 14.8856 16.5338 13.2756 14.1381 13.3211C14.0412 13.4428 13.9426 13.5805 13.8555 13.7165C13.4094 14.3907 13.1818 15.0844 13.1881 15.8022C13.9982 15.796 15.0351 16.1422 15.8783 16.7254ZM8.01677 23.7666C10.1023 25.7196 13.7761 25.7749 15.7148 23.7063C17.3553 21.9614 17.3101 19.7598 15.6381 18.187C14.1285 16.7766 11.9418 16.7387 10.7414 18.0588C9.43905 19.4608 10.3193 20.8217 9.5328 21.6417C8.8576 22.36 8.17537 22.1104 7.76619 22.5387C7.44608 22.8833 7.53377 23.3364 8.01677 23.7666Z" fill="white" fill-opacity="0.85"/>
 </g>
</svg>
