<?xml version="1.0" encoding="UTF-8"?>
<!--Generator: Apple Native CoreSVG 341-->
<!DOCTYPE svg
PUBLIC "-//W3C//DTD SVG 1.1//EN"
       "http://www.w3.org/Graphics/SVG/1.1/DTD/svg11.dtd">
<svg version="1.1" xmlns="http://www.w3.org/2000/svg" xmlns:xlink="http://www.w3.org/1999/xlink" viewBox="0 0 36.8394 25.7975">
 <g>
  <rect height="25.7975" opacity="0" width="36.8394" x="0" y="0"/>
  <path d="M22.9884 4.09428L32.702 6.71401C34.6524 7.25444 35.4225 8.51068 34.8999 10.4363L33.0499 17.3206C31.6821 22.4536 27.9366 24.7089 23.0149 23.4068C20.7449 22.7939 19.0727 21.6451 18.0737 20.0775C20.6725 17.8279 21.5869 14.3416 20.4825 10.2277L19.3211 5.89308C19.9001 4.19618 21.1326 3.5952 22.9884 4.09428ZM20.7909 17.5411C20.5858 17.8564 20.8051 18.1804 21.2143 18.0943C22.4063 17.8437 23.4012 17.8464 24.4178 18.1208C25.4327 18.388 26.2741 18.8779 27.2005 19.7076C27.5057 19.9747 27.8716 19.8052 27.8485 19.4181C27.7864 17.8661 26.6374 16.5611 24.9487 16.1314C23.2903 15.6724 21.6378 16.2404 20.7909 17.5411ZM27.6221 12.7988C27.4313 13.4876 27.8307 14.1898 28.5116 14.3691C29.2022 14.5564 29.8946 14.1525 30.0757 13.4681C30.2612 12.7775 29.8653 12.0788 29.1747 11.9076C28.4921 11.7185 27.7997 12.1161 27.6221 12.7988ZM21.8782 11.2753C21.6927 11.9722 22.0983 12.6646 22.7792 12.8359C23.4698 13.0267 24.1622 12.6273 24.3495 11.9447C24.5288 11.2638 24.1231 10.5617 23.4423 10.3744C22.7516 10.1906 22.0575 10.5927 21.8782 11.2753Z" fill="white" fill-opacity="0.85"/>
  <path d="M13.4579 20.8829C18.3743 19.5542 20.4778 15.7253 19.1055 10.5923L17.2626 3.7142C16.7514 1.78862 15.4579 1.07534 13.4977 1.58999L3.7743 4.17241C1.79638 4.70483 1.05556 5.95756 1.58622 7.92396L3.41493 14.7888C4.78095 19.9156 8.52645 22.1984 13.4579 20.8829ZM7.58817 10.8038C6.84774 11.0089 6.75809 11.4919 6.4411 11.546C6.29735 11.5771 6.1118 11.4111 6.03192 11.1173C5.7993 10.2925 6.32313 9.40736 7.16024 9.19525C8.01161 8.9849 8.8825 9.48646 9.1036 10.2908C9.19325 10.5925 9.11336 10.8171 8.95536 10.8722C8.60457 10.9921 8.26629 10.6228 7.58817 10.8038ZM13.51 9.2013C12.7741 9.41439 12.6765 9.89115 12.363 9.93373C12.2192 9.96654 12.0319 9.80228 11.9556 9.51478C11.7247 8.69447 12.245 7.80306 13.0786 7.59447C13.9415 7.36986 14.8089 7.87591 15.022 8.68822C15.1116 8.99798 15.0335 9.21459 14.872 9.27142C14.5282 9.38607 14.1882 9.01224 13.51 9.2013ZM12.4784 17.1759C10.4356 17.7068 8.47957 17.0001 7.44168 15.3726C7.23133 15.0495 7.4159 14.7443 7.83289 14.7788C9.06044 14.8792 10.5876 14.6687 11.7282 14.3589C12.8536 14.0634 14.2556 13.4953 15.2843 12.789C15.6276 12.5388 15.9507 12.7119 15.9311 13.1193C15.8575 15.046 14.5309 16.6113 12.4784 17.1759Z" fill="white" fill-opacity="0.85"/>
 </g>
</svg>
