<?xml version="1.0" encoding="UTF-8"?>
<!--Generator: Apple Native CoreSVG 341-->
<!DOCTYPE svg
PUBLIC "-//W3C//DTD SVG 1.1//EN"
       "http://www.w3.org/Graphics/SVG/1.1/DTD/svg11.dtd">
<svg version="1.1" xmlns="http://www.w3.org/2000/svg" xmlns:xlink="http://www.w3.org/1999/xlink" viewBox="0 0 21.2349 25.2363">
 <g>
  <rect height="25.2363" opacity="0" width="21.2349" x="0" y="0"/>
  <path d="M17.6933 21.3209C18.4557 21.8693 19.0293 22.2656 20.0137 22.2656L20.0713 22.2656C20.5137 22.2656 20.8736 22.6256 20.8736 23.0662C20.8736 23.5086 20.5137 23.8605 20.0713 23.8605L20.0137 23.8605C16.893 23.8605 16.6461 21.864 15.1062 21.864C13.5922 21.864 13.1818 23.8605 10.4377 23.8605C7.68554 23.8605 7.2832 21.864 5.76738 21.864C4.22929 21.864 3.97265 23.8605 0.859956 23.8605L0.802339 23.8605C0.351951 23.8605 0 23.5086 0 23.0662C0 22.6256 0.351951 22.2656 0.802339 22.2656L0.859956 22.2656C1.83633 22.2656 2.41797 21.8693 3.18203 21.3209C3.82031 20.8566 4.64296 20.2691 5.76738 20.2691C6.92558 20.2691 7.75624 20.8887 8.39452 21.3609C9.07538 21.8803 9.58866 22.2656 10.4377 22.2656C11.2769 22.2656 11.8 21.8803 12.4791 21.3609C13.1191 20.8887 13.948 20.2691 15.1062 20.2691C16.2324 20.2691 17.0533 20.8566 17.6933 21.3209ZM5.75508 16.0066C5.75508 16.5188 5.83612 17.0114 5.98868 17.4712C5.91865 17.4581 5.84445 17.4529 5.76738 17.4529C4.22929 17.4529 3.97265 19.4494 0.859956 19.4494L0.802339 19.4494C0.351951 19.4494 0 19.0974 0 18.6551C0 18.2144 0.351951 17.8545 0.802339 17.8545L0.859956 17.8545C1.83633 17.8545 2.41797 17.4582 3.18203 16.9098C3.81895 16.4465 4.63946 15.8605 5.7603 15.8582ZM17.6933 16.9098C18.4557 17.4582 19.0293 17.8545 20.0137 17.8545L20.0713 17.8545C20.5137 17.8545 20.8736 18.2144 20.8736 18.6551C20.8736 19.0974 20.5137 19.4494 20.0713 19.4494L20.0137 19.4494C16.893 19.4494 16.6461 17.4529 15.1062 17.4529C15.0353 17.4529 14.9667 17.4573 14.9023 17.4697C15.0551 17.0104 15.1363 16.5182 15.1363 16.0066C15.1363 15.9566 15.1355 15.9069 15.131 15.8588C16.2446 15.8667 17.0581 16.449 17.6933 16.9098Z" fill="white" fill-opacity="0.85"/>
  <path d="M10.4377 19.341C12.2873 19.341 13.7685 17.8598 13.7685 16.0066C13.7685 14.7162 13.0223 13.706 12.0785 13.1506C11.7463 12.9605 11.5918 12.6809 11.5918 12.2082L11.5918 2.50585C11.5918 1.87871 11.0711 1.35801 10.4457 1.35801C9.8123 1.35801 9.29785 1.87871 9.29785 2.50585L9.29785 12.2082C9.29785 12.6648 9.1291 12.9365 8.78886 13.1346C7.85312 13.69 7.11308 14.7162 7.11308 16.0066C7.11308 17.8598 8.59433 19.341 10.4377 19.341ZM14.183 3.63534L16.3267 3.63534C16.6879 3.63534 16.931 3.36288 16.931 3.04257C16.931 2.7205 16.6879 2.44003 16.3267 2.44003L14.183 2.44003C13.8219 2.44003 13.5787 2.7205 13.5787 3.04257C13.5787 3.36288 13.8219 3.63534 14.183 3.63534ZM14.183 6.3496L16.3267 6.3496C16.6879 6.3496 16.931 6.06913 16.931 5.74706C16.931 5.42675 16.6879 5.15429 16.3267 5.15429L14.183 5.15429C13.8219 5.15429 13.5787 5.42675 13.5787 5.74706C13.5787 6.06913 13.8219 6.3496 14.183 6.3496ZM14.183 9.06464L16.3267 9.06464C16.6879 9.06464 16.931 8.79218 16.931 8.47011C16.931 8.1498 16.6879 7.87734 16.3267 7.87734L14.183 7.87734C13.8219 7.87734 13.5787 8.1498 13.5787 8.47011C13.5787 8.79218 13.8219 9.06464 14.183 9.06464ZM14.183 11.7877L16.3267 11.7877C16.6879 11.7877 16.931 11.5152 16.931 11.1932C16.931 10.8728 16.6879 10.6004 16.3267 10.6004L14.183 10.6004C13.8219 10.6004 13.5787 10.8728 13.5787 11.1932C13.5787 11.5152 13.8219 11.7877 14.183 11.7877Z" fill="white" fill-opacity="0.85"/>
 </g>
</svg>
