<?xml version="1.0" encoding="UTF-8"?>
<!--Generator: Apple Native CoreSVG 341-->
<!DOCTYPE svg
PUBLIC "-//W3C//DTD SVG 1.1//EN"
       "http://www.w3.org/Graphics/SVG/1.1/DTD/svg11.dtd">
<svg version="1.1" xmlns="http://www.w3.org/2000/svg" xmlns:xlink="http://www.w3.org/1999/xlink" viewBox="0 0 15.4633 22.0238">
 <g>
  <rect height="22.0238" opacity="0" width="15.4633" x="0" y="0"/>
  <path d="M12.7152 3.79843L14.8607 3.79843C15.2201 3.79843 15.4633 3.52597 15.4633 3.20566C15.4633 2.88359 15.2201 2.61113 14.8607 2.61113L12.7152 2.61113C12.3558 2.61113 12.1127 2.88359 12.1127 3.20566C12.1127 3.52597 12.3558 3.79843 12.7152 3.79843ZM12.7152 6.51269L14.8607 6.51269C15.2201 6.51269 15.4633 6.24023 15.4633 5.91816C15.4633 5.59609 15.2201 5.32539 14.8607 5.32539L12.7152 5.32539C12.3558 5.32539 12.1127 5.59609 12.1127 5.91816C12.1127 6.24023 12.3558 6.51269 12.7152 6.51269ZM12.7152 9.23574L14.8607 9.23574C15.2201 9.23574 15.4633 8.96327 15.4633 8.64121C15.4633 8.32089 15.2201 8.04043 14.8607 8.04043L12.7152 8.04043C12.3558 8.04043 12.1127 8.32089 12.1127 8.64121C12.1127 8.96327 12.3558 9.23574 12.7152 9.23574ZM12.7152 11.9588L14.8607 11.9588C15.2201 11.9588 15.4633 11.6863 15.4633 11.3643C15.4633 11.0359 15.2201 10.7635 14.8607 10.7635L12.7152 10.7635C12.3558 10.7635 12.1127 11.0359 12.1127 11.3643C12.1127 11.6863 12.3558 11.9588 12.7152 11.9588Z" fill="white" fill-opacity="0.85"/>
  <path d="M7.56249 21.9998C10.4998 21.9998 12.8789 19.6303 12.8789 16.6912C12.8789 15.1734 12.2699 13.85 11.1015 12.7777C10.9 12.5922 10.8529 12.4803 10.8547 12.1943L10.8547 3.5789C10.8547 1.45058 9.51775 0 7.56249 0C5.58241 0 4.24101 1.45058 4.24101 3.5789L4.24101 12.1943C4.24101 12.4803 4.20371 12.5939 3.99414 12.7777C2.82675 13.8412 2.21504 15.1734 2.21504 16.6912C2.21504 19.6303 4.6039 21.9998 7.56249 21.9998ZM7.56249 20.3307C5.53378 20.3307 3.9037 18.6828 3.9037 16.6701C3.9037 15.4336 4.48338 14.3512 5.51327 13.6631C5.81424 13.4615 5.92967 13.283 5.92967 12.8844L5.92967 3.63925C5.92967 2.47265 6.59471 1.6869 7.56249 1.6869C8.50721 1.6869 9.17225 2.47265 9.17225 3.63925L9.17225 12.8844C9.17225 13.283 9.28944 13.4615 9.58866 13.6631C10.6185 14.3512 11.2 15.4336 11.2 16.6701C11.2 18.6828 9.5619 20.3307 7.56249 20.3307Z" fill="white" fill-opacity="0.85"/>
  <path d="M7.55096 19.0123C8.84725 19.0123 9.89139 17.9682 9.89139 16.6621C9.89139 15.7547 9.37909 15.0098 8.63417 14.6049C8.32518 14.4389 8.21776 14.3217 8.21776 13.8484L8.21776 8.64316C8.21776 8.17265 7.91854 7.87343 7.55096 7.87343C7.17714 7.87343 6.88417 8.17265 6.88417 8.64316L6.88417 13.8484C6.88417 14.3217 6.7785 14.4389 6.46776 14.6049C5.7246 15.0098 5.21229 15.7547 5.21229 16.6621C5.21229 17.9682 6.25643 19.0123 7.55096 19.0123Z" fill="white" fill-opacity="0.85"/>
 </g>
</svg>
