<?xml version="1.0" encoding="UTF-8"?>
<!--Generator: Apple Native CoreSVG 341-->
<!DOCTYPE svg
PUBLIC "-//W3C//DTD SVG 1.1//EN"
       "http://www.w3.org/Graphics/SVG/1.1/DTD/svg11.dtd">
<svg version="1.1" xmlns="http://www.w3.org/2000/svg" xmlns:xlink="http://www.w3.org/1999/xlink" viewBox="0 0 20.6957 19.9004">
 <g>
  <rect height="19.9004" opacity="0" width="20.6957" x="0" y="0"/>
  <path d="M0 9.96933C0 12.2338 0.853125 14.0639 1.75332 15.5025C2.2293 16.2607 2.48965 16.9642 2.48965 17.5605L2.48965 19.0418C2.48965 19.4914 2.87012 19.8834 3.32949 19.8834C3.78711 19.8834 4.17734 19.4949 4.17734 19.0418L4.17734 18.4615L5.28555 18.4615L5.28555 19.0418C5.28555 19.4949 5.67402 19.8834 6.13515 19.8834C6.59452 19.8834 6.97499 19.4949 6.97499 19.0418L6.97499 18.4615L7.9748 18.4615L7.9748 19.0418C7.9748 19.4949 8.37128 19.8834 8.83241 19.8834C9.29003 19.8834 9.6705 19.4949 9.6705 19.0418L9.6705 18.4615L10.6541 18.4615L10.6541 19.0418C10.6541 19.4949 11.0426 19.8834 11.4922 19.8834C11.9533 19.8834 12.3515 19.4949 12.3515 19.0418L12.3515 18.4615L13.3496 18.4615L13.3496 19.0418C13.3496 19.4949 13.7301 19.8834 14.1912 19.8834C14.6488 19.8834 15.039 19.4914 15.039 19.0418L15.039 18.4615L16.1473 18.4615L16.1473 19.0418C16.1473 19.4949 16.5375 19.8834 16.9951 19.8834C17.4545 19.8834 17.8465 19.4914 17.8465 19.0418L17.8465 17.5721C17.8465 17.0183 18.1344 16.2652 18.6672 15.3711C19.5123 13.9582 20.3344 12.1654 20.3344 9.96933C20.3344 7.60838 19.4195 5.51854 18.1855 3.87674C17.5781 2.99257 17.4592 2.76835 17.4592 2.19336L17.4592 0.928704C17.4592 0.427145 17.0293 0 16.5242 0C16.0244 0 15.607 0.427145 15.607 0.928704L15.607 2.35527C15.607 3.57655 15.8152 3.78827 16.5396 4.76854C17.5816 6.1451 18.4299 7.89061 18.4299 9.96933C18.4299 12.6154 17.0881 14.549 15.1738 15.7287L5.15253 15.7287C3.24628 14.549 1.90448 12.6154 1.90448 9.96933C1.90448 7.89061 2.75272 6.1451 3.78671 4.76854C4.51913 3.78827 4.72733 3.57655 4.72733 2.35527L4.72733 0.928704C4.72733 0.427145 4.30194 0 3.81015 0C3.30859 0 2.87519 0.427145 2.87519 0.928704L2.87519 2.19336C2.87519 2.76835 2.75625 2.99257 2.14083 3.87674C0.914845 5.51854 0 7.60838 0 9.96933Z" fill="white" fill-opacity="0.85"/>
  <path d="M8.91171 13.2934C10.1863 13.2934 11.2017 12.2797 11.2017 10.9935C11.2017 10.1086 10.7012 9.38691 9.9953 8.99101C9.75136 8.858 9.65468 8.69218 9.65468 8.32558L9.65468 3.7662C9.65468 3.34023 9.32714 3.00819 8.91171 3.00819C8.50429 3.00819 8.17675 3.34023 8.17675 3.7662L8.17675 8.32558C8.17675 8.69218 8.08808 8.858 7.83612 8.99101C7.13026 9.38691 6.62968 10.1086 6.62968 10.9935C6.62968 12.2797 7.64511 13.2934 8.91171 13.2934ZM11.3092 4.94804L13.0435 4.94804C13.3213 4.94804 13.5512 4.72617 13.5512 4.44843C13.5512 4.16894 13.323 3.94257 13.0435 3.94257L11.3092 3.94257C11.0314 3.94257 10.8096 4.1707 10.8096 4.44843C10.8096 4.72617 11.0314 4.94804 11.3092 4.94804ZM11.3092 6.68886L13.0435 6.68886C13.323 6.68886 13.5512 6.46249 13.5512 6.18476C13.5512 5.90527 13.323 5.68515 13.0435 5.68515L11.3092 5.68515C11.0314 5.68515 10.8096 5.90703 10.8096 6.18476C10.8096 6.45898 11.0314 6.68886 11.3092 6.68886ZM11.3092 8.44824L13.0435 8.44824C13.323 8.44824 13.5512 8.22187 13.5512 7.93261C13.5512 7.66113 13.323 7.44277 13.0435 7.44277L11.3092 7.44277C11.0314 7.44277 10.8096 7.66464 10.8096 7.93261C10.8096 8.21835 11.0314 8.44824 11.3092 8.44824Z" fill="white" fill-opacity="0.85"/>
 </g>
</svg>
