<?xml version="1.0" encoding="UTF-8"?>
<!--Generator: Apple Native CoreSVG 341-->
<!DOCTYPE svg
PUBLIC "-//W3C//DTD SVG 1.1//EN"
       "http://www.w3.org/Graphics/SVG/1.1/DTD/svg11.dtd">
<svg version="1.1" xmlns="http://www.w3.org/2000/svg" xmlns:xlink="http://www.w3.org/1999/xlink" viewBox="0 0 20.5381 20.1848">
 <g>
  <rect height="20.1848" opacity="0" width="20.5381" x="0" y="0"/>
  <path d="M10.0875 20.175C15.6576 20.175 20.1767 15.6559 20.1767 10.0875C20.1767 4.51914 15.6576 0 10.0875 0C4.51914 0 0 4.51914 0 10.0875C0 15.6559 4.51914 20.175 10.0875 20.175ZM10.0875 18.1879C5.60839 18.1879 1.9871 14.5666 1.9871 10.0875C1.9871 5.60839 5.60839 1.9871 10.0875 1.9871C14.5666 1.9871 18.1897 5.60839 18.1897 10.0875C18.1897 14.5666 14.5666 18.1879 10.0875 18.1879Z" fill="white" fill-opacity="0.85"/>
  <path d="M7.58437 15.8133C9.09531 15.8133 10.3098 14.6041 10.3098 13.1029C10.3098 12.3207 9.99179 11.6334 9.38612 11.0838C9.29198 10.9977 9.27421 10.9426 9.27421 10.8031L9.28222 6.28261C9.28222 5.18827 8.58905 4.44179 7.58437 4.44179C6.57167 4.44179 5.88652 5.18827 5.88652 6.28261L5.88652 10.8031C5.88652 10.9426 5.86874 10.9959 5.76484 11.0838C5.15917 11.6299 4.84745 12.3207 4.84745 13.1029C4.84745 14.6041 6.06542 15.8133 7.58437 15.8133ZM7.58261 14.9432C6.54882 14.9432 5.73358 14.1234 5.73358 13.0924C5.73358 12.4602 6.02128 11.9121 6.54257 11.5631C6.70956 11.4609 6.76464 11.3605 6.76464 11.1447L6.76464 6.31366C6.76464 5.71776 7.08613 5.33768 7.58261 5.33768C8.06308 5.33768 8.38456 5.71776 8.38456 6.31366L8.38456 11.1447C8.38456 11.3605 8.4414 11.4609 8.60839 11.5631C9.13593 11.9121 9.42539 12.4602 9.42539 13.0924C9.42539 14.1234 8.60214 14.9432 7.58261 14.9432ZM7.58261 6.68319C7.77714 6.68319 7.93613 6.52421 7.93613 6.32167C7.93613 6.12538 7.77714 5.96639 7.58261 5.96639C7.37831 5.96639 7.21933 6.12538 7.21933 6.32167C7.21933 6.52421 7.37831 6.68319 7.58261 6.68319ZM7.58261 7.96112C7.77714 7.96112 7.93613 7.79413 7.93613 7.59784C7.93613 7.40331 7.77714 7.23632 7.58261 7.23632C7.37831 7.23632 7.21933 7.40331 7.21933 7.59784C7.21933 7.79413 7.37831 7.96112 7.58261 7.96112ZM7.58261 9.23105C7.77714 9.23105 7.93613 9.06405 7.93613 8.85976C7.93613 8.67323 7.77714 8.50624 7.58261 8.50624C7.37831 8.50624 7.21933 8.67323 7.21933 8.85976C7.21933 9.06405 7.37831 9.23105 7.58261 9.23105ZM7.5746 14.3127C8.25761 14.3127 8.79941 13.7594 8.79941 13.0844C8.79941 12.6154 8.53027 12.2246 8.13417 12.0105C7.9832 11.9324 7.93613 11.8676 7.93613 11.6385L7.93613 10.1377C7.93613 9.9414 7.77714 9.77441 7.58261 9.77441C7.37831 9.77441 7.21933 9.9414 7.21933 10.1377L7.21933 11.6385C7.21933 11.8676 7.16425 11.9244 7.00351 12.0105C6.62069 12.2166 6.3578 12.6154 6.3578 13.0844C6.3578 13.7674 6.8996 14.3127 7.5746 14.3127ZM12.8451 6.45448C13.4693 6.45448 13.9719 5.94569 13.9719 5.31972C13.9719 4.70351 13.4693 4.20272 12.8451 4.20272C12.2289 4.20272 11.7264 4.70351 11.7264 5.31972C11.7264 5.94569 12.2289 6.45448 12.8451 6.45448ZM13.5199 15.577C13.8031 15.577 14.0357 15.3604 14.0357 15.0594L14.0357 9.13632C14.0357 9.04394 14.0988 8.96484 14.1912 8.96484C14.2658 8.96484 14.3467 9.04394 14.3467 9.13632L14.3467 11.0873C14.3467 11.3394 14.5633 11.548 14.8092 11.548C15.0648 11.548 15.2779 11.3394 15.2779 11.0873L15.2779 8.8912C15.2779 7.76796 14.4336 7.02206 13.2242 7.02206L12.4758 7.02206C11.2646 7.02206 10.4221 7.76796 10.4221 8.8912L10.4221 11.0873C10.4221 11.3394 10.6369 11.548 10.8846 11.548C11.1385 11.548 11.3453 11.3394 11.3453 11.0873L11.3453 9.13632C11.3453 9.04394 11.4262 8.96484 11.5088 8.96484C11.6012 8.96484 11.666 9.04394 11.666 9.13632L11.666 15.0594C11.666 15.3604 11.8906 15.577 12.1738 15.577C12.4633 15.577 12.6816 15.3586 12.6816 15.0594L12.6816 11.4559C12.6816 11.3635 12.7562 11.2906 12.8451 11.2906C12.9375 11.2906 13.0184 11.3635 13.0184 11.4559L13.0184 15.0594C13.0184 15.3586 13.235 15.577 13.5199 15.577Z" fill="white" fill-opacity="0.85"/>
 </g>
</svg>
