<?xml version="1.0" encoding="UTF-8"?>
<!--Generator: Apple Native CoreSVG 341-->
<!DOCTYPE svg
PUBLIC "-//W3C//DTD SVG 1.1//EN"
       "http://www.w3.org/Graphics/SVG/1.1/DTD/svg11.dtd">
<svg version="1.1" xmlns="http://www.w3.org/2000/svg" xmlns:xlink="http://www.w3.org/1999/xlink" viewBox="0 0 24.2027 29.0941">
 <g>
  <rect height="29.0941" opacity="0" width="24.2027" x="0" y="0"/>
  <path d="M19.791 14.7803L21.2281 16.2227C21.575 16.5588 21.5722 17.1203 21.2316 17.4592C20.899 17.7998 20.3437 17.806 19.9951 17.4637L18.5562 16.023C18.2156 15.6824 18.2121 15.1191 18.551 14.7803C18.8916 14.4396 19.4521 14.4459 19.791 14.7803ZM18.9285 10.2289C18.9285 12.9689 16.7459 15.1613 14.0111 15.1613C13.4706 15.1613 12.9514 15.0757 12.4675 14.9142L12.4692 13.1658C12.9263 13.4047 13.4504 13.5377 14.0111 13.5377C15.8609 13.5377 17.3049 12.0902 17.3049 10.2289C17.3049 8.36132 15.8609 6.91386 14.0111 6.91386C13.4526 6.91386 12.9304 7.0458 12.4746 7.2833L12.4748 7.12206C12.4748 6.57438 12.3858 6.07159 12.219 5.62792C12.772 5.40814 13.3769 5.29023 14.0111 5.29023C16.7459 5.29023 18.9285 7.48262 18.9285 10.2289ZM24.2027 10.2271C24.2027 10.707 23.808 11.108 23.3263 11.108L21.3049 11.108C20.825 11.108 20.4205 10.7088 20.4205 10.2289C20.4205 9.74101 20.825 9.34629 21.3049 9.34629L23.3263 9.34629C23.808 9.34629 24.2027 9.73926 24.2027 10.2271ZM21.2334 3.00039C21.574 3.34101 21.582 3.90605 21.2316 4.24492L19.807 5.68379C19.4584 6.03242 18.8853 6.02793 18.5545 5.68906C18.2219 5.34844 18.2138 4.78965 18.5562 4.44902L19.9969 3.0039C20.3472 2.66152 20.9025 2.65977 21.2334 3.00039ZM14.8937 0.88613L14.8937 2.90762C14.8937 3.38574 14.5008 3.79199 14.0129 3.79199C13.525 3.79199 13.132 3.38574 13.132 2.90762L13.132 0.88613C13.132 0.396483 13.525 0 14.0129 0C14.5008 0 14.8937 0.396483 14.8937 0.88613Z" fill="white" fill-opacity="0.85"/>
  <path d="M9.17636 25.543C12.1137 25.543 14.4928 23.1734 14.4928 20.2344C14.4928 18.7166 13.8838 17.3932 12.7154 16.3209C12.5138 16.1273 12.4668 16.0234 12.4668 15.7375L12.4748 7.12206C12.4748 4.99374 11.1316 3.54316 9.17636 3.54316C7.19629 3.54316 5.84863 4.99374 5.84863 7.12206L5.85664 15.7375C5.85664 16.0234 5.81758 16.1291 5.60801 16.3209C4.44062 17.3844 3.82891 18.7166 3.82891 20.2344C3.82891 23.1734 6.21777 25.543 9.17636 25.543ZM9.17636 23.8738C7.14765 23.8738 5.51757 22.226 5.51757 20.2133C5.51757 18.9768 6.09725 17.8943 7.12714 17.2062C7.42811 17.0047 7.54354 16.8262 7.54354 16.4275L7.54354 7.18241C7.54354 6.01581 8.20858 5.23006 9.17636 5.23006C10.1211 5.23006 10.7861 6.01581 10.7861 7.18241L10.7861 16.4275C10.7861 16.8262 10.9033 17.0047 11.2025 17.2062C12.2324 17.8943 12.8139 18.9768 12.8139 20.2133C12.8139 22.226 11.1758 23.8738 9.17636 23.8738Z" fill="white" fill-opacity="0.85"/>
  <path d="M9.16483 22.5555C10.4611 22.5555 11.5053 21.5016 11.5053 20.2053C11.5053 19.2978 10.993 18.5529 10.248 18.148C9.93905 17.982 9.83163 17.8648 9.83163 17.3916L9.83163 8.00018C9.83163 7.53143 9.53241 7.23046 9.16483 7.23046C8.79101 7.23046 8.49804 7.53143 8.49804 8.00018L8.49804 17.3916C8.49804 17.8648 8.39237 17.982 8.08163 18.148C7.33847 18.5529 6.82616 19.2978 6.82616 20.2053C6.82616 21.5113 7.8703 22.5555 9.16483 22.5555Z" fill="white" fill-opacity="0.85"/>
 </g>
</svg>
