<?xml version="1.0" encoding="UTF-8"?>
<!--Generator: Apple Native CoreSVG 341-->
<!DOCTYPE svg
PUBLIC "-//W3C//DTD SVG 1.1//EN"
       "http://www.w3.org/Graphics/SVG/1.1/DTD/svg11.dtd">
<svg version="1.1" xmlns="http://www.w3.org/2000/svg" xmlns:xlink="http://www.w3.org/1999/xlink" viewBox="0 0 11.0252 22.018">
 <g>
  <rect height="22.018" opacity="0" width="11.0252" x="0" y="0"/>
  <path d="M5.34569 22.018C8.27499 22.018 10.6638 19.6484 10.6638 16.7076C10.6638 15.1916 10.0549 13.8664 8.88475 12.7941C8.67518 12.6086 8.63963 12.4967 8.63963 12.2125L8.63963 3.5953C8.63963 1.46874 7.30272 0.0164044 5.34569 0.0164044C3.36738 0.0164044 2.02422 1.46874 2.02422 3.5953L2.02422 12.2125C2.02422 12.4967 1.98867 12.6121 1.7791 12.7941C0.601953 13.8594 0 15.1916 0 16.7076C0 19.6484 2.38886 22.018 5.34569 22.018ZM5.34569 20.3488C3.31874 20.3488 1.6789 18.6992 1.6789 16.6883C1.6789 15.45 2.26835 14.3693 3.29823 13.6812C3.59745 13.4797 3.71464 13.3012 3.71464 12.9025L3.71464 3.65741C3.71464 2.49081 4.37167 1.70507 5.34569 1.70507C6.29218 1.70507 6.94921 2.49081 6.94921 3.65741L6.94921 12.9025C6.94921 13.3012 7.06464 13.4797 7.36562 13.6812C8.3955 14.3693 8.98319 15.45 8.98319 16.6883C8.98319 18.6992 7.34511 20.3488 5.34569 20.3488Z" fill="white" fill-opacity="0.85"/>
  <path d="M5.33593 19.0287C6.62245 19.0287 7.66659 17.9846 7.66659 16.6803C7.66659 15.7728 7.16405 15.0279 6.41913 14.6213C6.10038 14.457 5.99472 14.3398 5.99472 13.8666L5.99472 10.6187C5.99472 10.2512 5.6955 9.95194 5.33593 9.95194C4.96835 9.95194 4.66913 10.2512 4.66913 10.6187L4.66913 13.8666C4.66913 14.3398 4.56347 14.457 4.24472 14.6213C3.49979 15.0279 2.9955 15.7728 2.9955 16.6803C2.9955 17.9846 4.0414 19.0287 5.33593 19.0287ZM5.33593 8.96835C5.6955 8.96835 5.99472 8.66737 5.99472 8.30155C5.99472 7.93397 5.6955 7.63475 5.33593 7.63475C4.96835 7.63475 4.66913 7.93397 4.66913 8.30155C4.66913 8.66737 4.96835 8.96835 5.33593 8.96835ZM5.33593 6.6414C5.6955 6.6414 5.99472 6.34218 5.99472 5.9746C5.99472 5.60878 5.6955 5.3078 5.33593 5.3078C4.96835 5.3078 4.66913 5.60878 4.66913 5.9746C4.66913 6.34218 4.96835 6.6414 5.33593 6.6414ZM5.33593 4.32421C5.6955 4.32421 5.99472 4.02499 5.99472 3.65741C5.99472 3.28983 5.6955 2.99061 5.33593 2.99061C4.96835 2.99061 4.66913 3.28983 4.66913 3.65741C4.66913 4.02499 4.96835 4.32421 5.33593 4.32421Z" fill="white" fill-opacity="0.85"/>
 </g>
</svg>
