<?xml version="1.0" encoding="UTF-8"?>
<!--Generator: Apple Native CoreSVG 341-->
<!DOCTYPE svg
PUBLIC "-//W3C//DTD SVG 1.1//EN"
       "http://www.w3.org/Graphics/SVG/1.1/DTD/svg11.dtd">
<svg version="1.1" xmlns="http://www.w3.org/2000/svg" xmlns:xlink="http://www.w3.org/1999/xlink" viewBox="0 0 21.1389 25.2363">
 <g>
  <rect height="25.2363" opacity="0" width="21.1389" x="0" y="0"/>
  <path d="M17.6933 21.3209C18.4557 21.8693 19.0373 22.2656 20.0137 22.2656L20.0713 22.2656C20.5137 22.2656 20.8736 22.6256 20.8736 23.0662C20.8736 23.5086 20.5137 23.8605 20.0713 23.8605L20.0137 23.8605C16.893 23.8605 16.6461 21.864 15.1062 21.864C13.5922 21.864 13.1898 23.8605 10.4377 23.8605C7.68554 23.8605 7.2832 21.864 5.76738 21.864C4.22929 21.864 3.98066 23.8605 0.859956 23.8605L0.802339 23.8605C0.359959 23.8605 0 23.5086 0 23.0662C0 22.6256 0.359959 22.2656 0.802339 22.2656L0.859956 22.2656C1.83633 22.2656 2.41797 21.8693 3.18203 21.3209C3.82031 20.8566 4.64296 20.2691 5.76738 20.2691C6.92558 20.2691 7.75624 20.8887 8.39452 21.3609C9.07538 21.8803 9.58866 22.2656 10.4377 22.2656C11.285 22.2656 11.8 21.8803 12.4791 21.3609C13.1191 20.8887 13.948 20.2691 15.1062 20.2691C16.2324 20.2691 17.0533 20.8566 17.6933 21.3209ZM17.6933 16.9098C18.4557 17.4582 19.0373 17.8545 20.0137 17.8545L20.0713 17.8545C20.5137 17.8545 20.8736 18.2144 20.8736 18.6551C20.8736 19.0974 20.5137 19.4494 20.0713 19.4494L20.0137 19.4494C16.893 19.4494 16.6461 17.4529 15.1062 17.4529C15.0352 17.4529 14.9667 17.4573 14.9023 17.4697C15.0551 17.0104 15.1363 16.5182 15.1363 16.0066C15.1363 15.9566 15.1355 15.9069 15.131 15.8588C16.2447 15.8668 17.0581 16.449 17.6933 16.9098ZM5.75508 16.0066C5.75508 16.5188 5.83612 17.0114 5.98868 17.4712C5.91865 17.4581 5.84445 17.4529 5.76738 17.4529C4.22929 17.4529 3.98066 19.4494 0.859956 19.4494L0.802339 19.4494C0.359959 19.4494 0 19.0974 0 18.6551C0 18.2144 0.359959 17.8545 0.802339 17.8545L0.859956 17.8545C1.83633 17.8545 2.41797 17.4582 3.18203 16.9098C3.81895 16.4465 4.63946 15.8605 5.7603 15.8582Z" fill="white" fill-opacity="0.85"/>
  <path d="M5.00155 6.69461L4.96728 7.23802L3.46581 8.2414L2.89136 8.57193L2.89921 10.0461C2.8912 10.3834 2.6871 10.6018 2.38085 10.592C2.08261 10.6018 1.86601 10.3834 1.87402 10.0621L1.86937 9.15997L0.998037 9.66132C0.705264 9.83788 0.372452 9.74472 0.209171 9.45898C0.0441325 9.183 0.135539 8.84668 0.428311 8.68164L1.30114 8.17561L0.533975 7.72656C0.245499 7.56679 0.165616 7.27031 0.313858 7.02714C0.463858 6.76171 0.7621 6.68183 1.05058 6.85136L2.31483 7.58792L2.89433 7.25195L4.51687 6.45483ZM7.93984 5.65079L7.9375 5.65214L6.3189 6.45404L5.83125 6.21365L5.86671 5.67723L7.37402 4.66894L7.93984 4.34378Z" fill="white" fill-opacity="0.85"/>
  <path d="M7.9375 7.25195L7.93984 7.2533L7.93984 8.56697L7.37402 8.2414L5.86672 7.23434L5.81523 6.45605L5.83125 6.21365ZM2.89921 2.86425L2.89139 4.33883L3.46581 4.66894L4.96724 5.67289L5.0166 6.45605L5.00155 6.69461L2.89433 5.65214L2.32709 5.32328L1.05058 6.06698C0.7621 6.23652 0.463858 6.15663 0.313858 5.8912C0.165616 5.63827 0.245499 5.34179 0.533975 5.19003L1.30875 4.73289L0.428311 4.22245C0.135539 4.06542 0.0441325 3.72108 0.209171 3.44335C0.372452 3.16562 0.705264 3.07421 0.998037 3.25077L1.86938 3.75151L1.87402 2.85624C1.86601 2.53495 2.08261 2.31483 2.38085 2.32636C2.6871 2.31483 2.8912 2.53495 2.89921 2.86425Z" fill="white" fill-opacity="0.85"/>
  <path d="M5.98652 1.01718L5.98652 2.02297L6.75683 1.58397C7.0373 1.4162 7.33378 1.49433 7.48203 1.75526C7.64003 2.02069 7.55214 2.31093 7.27168 2.4787L5.98652 3.21316L5.98652 3.86503L5.81523 6.45605L5.98652 9.04531L5.98652 9.69718L7.27168 10.4316C7.55214 10.5994 7.64003 10.8896 7.48203 11.1551C7.33378 11.4143 7.0373 11.4844 6.75683 11.3246L5.98652 10.882L5.98652 11.8869C5.98652 12.2285 5.74335 12.4717 5.41679 12.4717C5.09648 12.4717 4.85332 12.2285 4.85332 11.8869L4.85332 10.8784L4.07675 11.3246C3.79628 11.4844 3.4998 11.4143 3.35781 11.1551C3.20156 10.8896 3.28945 10.5994 3.56816 10.4316L4.85332 9.69366L4.85332 9.04531L5.0166 6.45605L4.85332 3.86503L4.85332 3.21668L3.56816 2.4787C3.28945 2.31093 3.20156 2.02069 3.35781 1.75526C3.4998 1.49433 3.79628 1.4162 4.07675 1.58397L4.85332 2.02653L4.85332 1.01718C4.85332 0.683583 5.09648 0.432411 5.41679 0.432411C5.74335 0.432411 5.98652 0.683583 5.98652 1.01718Z" fill="white" fill-opacity="0.85"/>
  <path d="M10.4377 19.341C12.2873 19.341 13.7766 17.8598 13.7766 16.0066C13.7766 14.7162 13.0223 13.706 12.0785 13.1506C11.7543 12.9605 11.5918 12.6809 11.5918 12.2082L11.5918 2.50585C11.5918 1.87871 11.0791 1.35801 10.4457 1.35801C9.82031 1.35801 9.29785 1.87871 9.29785 2.50585L9.29785 12.2082C9.29785 12.6648 9.1291 12.9365 8.78886 13.1346C7.85312 13.69 7.11308 14.7162 7.11308 16.0066C7.11308 17.8598 8.59433 19.341 10.4377 19.341ZM14.183 3.63534L16.3267 3.63534C16.6959 3.63534 16.931 3.36288 16.931 3.04257C16.931 2.7205 16.6959 2.44003 16.3267 2.44003L14.183 2.44003C13.8219 2.44003 13.5787 2.7205 13.5787 3.04257C13.5787 3.36288 13.8219 3.63534 14.183 3.63534ZM14.183 6.3496L16.3267 6.3496C16.6959 6.3496 16.931 6.06913 16.931 5.74706C16.931 5.42675 16.6959 5.15429 16.3267 5.15429L14.183 5.15429C13.8219 5.15429 13.5787 5.42675 13.5787 5.74706C13.5787 6.06913 13.8219 6.3496 14.183 6.3496ZM14.183 9.06464L16.3267 9.06464C16.6959 9.06464 16.931 8.79218 16.931 8.47011C16.931 8.1498 16.6959 7.87734 16.3267 7.87734L14.183 7.87734C13.8219 7.87734 13.5787 8.1498 13.5787 8.47011C13.5787 8.79218 13.8219 9.06464 14.183 9.06464ZM14.183 11.7877L16.3267 11.7877C16.6959 11.7877 16.931 11.5152 16.931 11.1932C16.931 10.8728 16.6959 10.6004 16.3267 10.6004L14.183 10.6004C13.8219 10.6004 13.5787 10.8728 13.5787 11.1932C13.5787 11.5152 13.8219 11.7877 14.183 11.7877Z" fill="white" fill-opacity="0.85"/>
 </g>
</svg>
