<?xml version="1.0" encoding="UTF-8"?>
<!--Generator: Apple Native CoreSVG 341-->
<!DOCTYPE svg
PUBLIC "-//W3C//DTD SVG 1.1//EN"
       "http://www.w3.org/Graphics/SVG/1.1/DTD/svg11.dtd">
<svg version="1.1" xmlns="http://www.w3.org/2000/svg" xmlns:xlink="http://www.w3.org/1999/xlink" viewBox="0 0 22.4152 19.1332">
 <g>
  <rect height="19.1332" opacity="0" width="22.4152" x="0" y="0"/>
  <path d="M11.0238 0C4.93359 0 0 4.93359 0 11.0238C0 13.9916 1.16934 16.71 3.1252 18.7107C3.53281 19.1324 4.19452 19.1291 4.62186 18.7275C5.0037 18.3439 4.92401 17.6883 4.47714 17.191C2.98221 15.5979 2.07088 13.4041 2.07088 11.0221C2.07088 6.02245 6.03221 2.0451 11.0238 2.0451C16.0234 2.0451 19.983 6.02245 19.983 11.0221C19.983 13.4041 19.0717 15.5979 17.5768 17.191C17.1299 17.6883 17.0502 18.3439 17.4338 18.7275C17.8576 19.1273 18.5211 19.1324 18.9287 18.7107C20.8846 16.71 22.0539 13.9916 22.0539 11.0238C22.0539 4.93359 17.1203 0 11.0238 0Z" fill="white" fill-opacity="0.85"/>
  <path d="M10.6316 16.1076C11.8525 16.1076 12.8373 15.1229 12.8373 13.8922C12.8373 13.0389 12.3561 12.3338 11.665 11.96C11.4396 11.826 11.3482 11.677 11.3482 11.3244L11.3482 6.8871C11.3482 6.47694 11.0312 6.16346 10.6316 6.16346C10.2303 6.16346 9.91503 6.47694 9.91503 6.8871L9.91503 11.3244C9.91503 11.677 9.83163 11.826 9.59023 11.96C8.90722 12.3338 8.42421 13.0389 8.42421 13.8922C8.42421 15.1229 9.41074 16.1076 10.6316 16.1076ZM12.9412 8.05234L14.6264 8.05234C14.8918 8.05234 15.1129 7.83124 15.1129 7.56581C15.1129 7.29863 14.8936 7.0873 14.6264 7.0873L12.9412 7.0873C12.6758 7.0873 12.4547 7.30038 12.4547 7.56581C12.4547 7.83124 12.6758 8.05234 12.9412 8.05234ZM12.9412 9.72539L14.6264 9.72539C14.8936 9.72539 15.1129 9.51406 15.1129 9.24863C15.1129 8.98144 14.8936 8.7621 14.6264 8.7621L12.9412 8.7621C12.6758 8.7621 12.4547 8.9832 12.4547 9.24863C12.4547 9.5123 12.6758 9.72539 12.9412 9.72539ZM12.9412 11.4232L14.6264 11.4232C14.8936 11.4232 15.1129 11.2119 15.1129 10.9367C15.1129 10.6758 14.8936 10.4582 14.6264 10.4582L12.9412 10.4582C12.6758 10.4582 12.4547 10.6775 12.4547 10.9367C12.4547 11.2102 12.6758 11.4232 12.9412 11.4232Z" fill="white" fill-opacity="0.85"/>
 </g>
</svg>
