<?xml version="1.0" encoding="UTF-8"?>
<!--Generator: Apple Native CoreSVG 341-->
<!DOCTYPE svg
PUBLIC "-//W3C//DTD SVG 1.1//EN"
       "http://www.w3.org/Graphics/SVG/1.1/DTD/svg11.dtd">
<svg version="1.1" xmlns="http://www.w3.org/2000/svg" xmlns:xlink="http://www.w3.org/1999/xlink" viewBox="0 0 24.9318 17.3457">
 <g>
  <rect height="17.3457" opacity="0" width="24.9318" x="0" y="0"/>
  <path d="M0 13.2086C0 13.6965 0.207421 14.0377 0.640231 14.2408C1.74355 14.7744 2.35957 15.4019 3.00527 16.7072C3.22089 17.1125 3.57109 17.3279 4.02421 17.3279L20.5463 17.3279C20.9914 17.3279 21.3416 17.1125 21.5572 16.7072C22.2029 15.4019 22.8189 14.7744 23.9285 14.2408C24.3631 14.0377 24.5705 13.6965 24.5705 13.2086L24.5705 4.12734C24.5705 3.63144 24.3631 3.29023 23.9285 3.09511C22.8189 2.55976 22.2029 1.92422 21.5572 0.628708C21.3416 0.215428 20.9914 0 20.5463 0L4.02421 0C3.57109 0 3.22089 0.215428 3.00527 0.628708C2.35957 1.92422 1.74355 2.55976 0.640231 3.09511C0.207421 3.29023 0 3.63144 0 4.12734ZM1.91327 12.8908L1.91327 4.44511C3.0703 3.96913 3.84432 3.17636 4.42264 1.91327L20.1478 1.91327C20.7164 3.17636 21.5002 3.96913 22.6572 4.44511L22.6572 12.8908C21.5002 13.365 20.7164 14.1596 20.1478 15.4146L4.42264 15.4146C3.84432 14.1596 3.0703 13.365 1.91327 12.8908ZM4.5285 12.9228C4.5285 13.4562 4.89061 13.8121 5.41249 13.8121L19.1482 13.8121C19.6799 13.8121 20.034 13.4562 20.034 12.9228L20.034 4.41132C20.034 3.88768 19.6799 3.52382 19.1482 3.52382L5.41249 3.52382C4.89061 3.52382 4.5285 3.88768 4.5285 4.41132ZM5.79803 12.3523L5.79803 10.8135L6.98339 10.8135L6.98339 12.5408L5.99452 12.5408C5.86737 12.5408 5.79803 12.4795 5.79803 12.3523ZM5.79627 9.5457L5.79627 7.79823L6.98515 7.79823L6.98515 9.5457ZM5.79627 6.53398L5.79627 4.98182C5.79627 4.85917 5.86385 4.78983 5.99276 4.78983L6.98515 4.78983L6.98515 6.53398ZM17.5853 6.53398L17.5853 4.78983L18.5777 4.78983C18.7049 4.78983 18.7662 4.85917 18.7662 4.98182L18.7662 6.53398ZM17.5853 9.5457L17.5853 7.79823L18.7662 7.79823L18.7662 9.5457ZM17.5853 12.5443L17.5853 10.8082L18.7662 10.8082L18.7662 12.3541C18.7662 12.4848 18.7049 12.5443 18.5777 12.5443ZM8.25116 12.5408L8.25116 4.7951L16.3176 4.7951L16.3176 12.5408Z" fill="white" fill-opacity="0.85"/>
 </g>
</svg>
