<?xml version="1.0" encoding="UTF-8"?>
<!--Generator: Apple Native CoreSVG 341-->
<!DOCTYPE svg
PUBLIC "-//W3C//DTD SVG 1.1//EN"
       "http://www.w3.org/Graphics/SVG/1.1/DTD/svg11.dtd">
<svg version="1.1" xmlns="http://www.w3.org/2000/svg" xmlns:xlink="http://www.w3.org/1999/xlink" viewBox="0 0 20.5381 20.1848">
 <g>
  <rect height="20.1848" opacity="0" width="20.5381" x="0" y="0"/>
  <path d="M20.1767 10.0875C20.1767 15.6478 15.6576 20.175 10.0875 20.175C4.52715 20.175 0 15.6478 0 10.0875C0 4.51914 4.52715 0 10.0875 0C15.6576 0 20.1767 4.51914 20.1767 10.0875ZM9.40625 5.12362L9.40625 6.66796C9.40625 7.02909 9.66972 7.32636 10.0469 7.32636C10.4178 7.32636 10.691 7.02909 10.691 6.66796L10.691 5.91835C12.759 6.19882 14.2842 7.92636 14.2842 10.0875C14.2842 12.4377 12.4527 14.2922 10.0875 14.2922C7.73202 14.2922 5.88456 12.4377 5.88456 10.0875C5.88456 9.06308 6.2453 8.15077 6.84335 7.42147C7.09081 7.10233 7.13768 6.69589 6.8371 6.40234C6.53202 6.09804 6.04511 6.13886 5.74706 6.51386C4.9414 7.47558 4.44218 8.73847 4.44218 10.0875C4.44218 13.1906 6.98437 15.7328 10.0875 15.7328C13.1924 15.7328 15.7346 13.1906 15.7346 10.0875C15.7346 6.98437 13.1924 4.44218 10.0955 4.44218C9.65625 4.44218 9.40625 4.72616 9.40625 5.12362ZM7.81347 8.31796L9.41933 10.7744C9.79941 11.3771 10.5254 11.4748 11.0287 10.9812C11.524 10.4584 11.4264 9.75195 10.8414 9.36035L8.40253 7.74393C7.98632 7.491 7.54101 7.8869 7.81347 8.31796Z" fill="white" fill-opacity="0.85"/>
 </g>
</svg>
