<?xml version="1.0" encoding="UTF-8"?>
<!--Generator: Apple Native CoreSVG 341-->
<!DOCTYPE svg
PUBLIC "-//W3C//DTD SVG 1.1//EN"
       "http://www.w3.org/Graphics/SVG/1.1/DTD/svg11.dtd">
<svg version="1.1" xmlns="http://www.w3.org/2000/svg" xmlns:xlink="http://www.w3.org/1999/xlink" viewBox="0 0 20.5381 20.1848">
 <g>
  <rect height="20.1848" opacity="0" width="20.5381" x="0" y="0"/>
  <path d="M10.0875 20.175C15.6576 20.175 20.1767 15.6559 20.1767 10.0875C20.1767 4.51914 15.6576 0 10.0875 0C4.51914 0 0 4.51914 0 10.0875C0 15.6559 4.51914 20.175 10.0875 20.175ZM10.0875 18.1879C5.60839 18.1879 1.9871 14.5666 1.9871 10.0875C1.9871 5.60839 5.60839 1.9871 10.0875 1.9871C14.5666 1.9871 18.1897 5.60839 18.1897 10.0875C18.1897 14.5666 14.5666 18.1879 10.0875 18.1879Z" fill="white" fill-opacity="0.85"/>
  <path d="M10.0875 15.5201C13.0736 15.5201 15.5201 13.0719 15.5201 10.0875C15.5201 7.10312 13.0736 4.65487 10.0955 4.65487C9.67128 4.65487 9.43632 4.92733 9.43632 5.30975L9.43632 6.79648C9.43632 7.14433 9.68476 7.43007 10.0504 7.43007C10.4062 7.43007 10.6662 7.14433 10.6662 6.79648L10.6662 6.06463C12.6588 6.33358 14.1361 8.00351 14.1361 10.0875C14.1361 12.357 12.3721 14.1441 10.0875 14.1441C7.81269 14.1441 6.03085 12.357 6.03085 10.0875C6.03085 9.09589 6.38007 8.2164 6.95858 7.50839C7.19276 7.20604 7.23788 6.82089 6.95233 6.54237C6.66054 6.2496 6.20019 6.28241 5.91542 6.64061C5.13456 7.56776 4.65663 8.78632 4.65663 10.0875C4.65663 13.0719 7.10312 15.5201 10.0875 15.5201ZM10.9941 10.9432C11.4682 10.4434 11.3768 9.76523 10.8086 9.38515L8.45311 7.82733C8.06171 7.57968 7.63143 7.96229 7.89061 8.37655L9.44589 10.7478C9.81445 11.3258 10.5059 11.4154 10.9941 10.9432Z" fill="white" fill-opacity="0.85"/>
 </g>
</svg>
