<?xml version="1.0" encoding="UTF-8"?>
<!--Generator: Apple Native CoreSVG 341-->
<!DOCTYPE svg
PUBLIC "-//W3C//DTD SVG 1.1//EN"
       "http://www.w3.org/Graphics/SVG/1.1/DTD/svg11.dtd">
<svg version="1.1" xmlns="http://www.w3.org/2000/svg" xmlns:xlink="http://www.w3.org/1999/xlink" viewBox="0 0 20.5381 20.1848">
 <g>
  <rect height="20.1848" opacity="0" width="20.5381" x="0" y="0"/>
  <path d="M10.0875 20.175C15.6576 20.175 20.1767 15.6559 20.1767 10.0875C20.1767 4.51914 15.6576 0 10.0955 0C9.49883 0 9.16582 0.354686 9.16582 0.936323L9.16582 3.93984C9.16582 4.42832 9.51152 4.81582 9.99824 4.81582C10.4947 4.81582 10.8387 4.42832 10.8387 3.93984L10.8387 2.03319C14.6855 2.35526 18.1897 5.60839 18.1897 10.0875C18.1897 14.5666 14.5666 18.1879 10.0875 18.1879C5.60839 18.1879 1.9871 14.5666 1.9871 10.0955C1.9871 8.10761 2.69432 6.33905 3.83866 4.95448C4.20018 4.4621 4.2371 3.90605 3.82519 3.48867C3.42031 3.08008 2.74512 3.12343 2.31797 3.67616C0.874806 5.41894 0 7.64843 0 10.0875C0 15.6559 4.51914 20.175 10.0875 20.175Z" fill="white" fill-opacity="0.85"/>
  <path d="M10.0875 11.7301C11.0033 11.7301 11.7398 10.9953 11.7398 10.0875C11.7398 9.52929 11.4639 9.03515 11.0133 8.72636L6.33163 5.48202C5.76698 5.09804 5.21269 5.65761 5.58515 6.23651L8.65078 10.8941C8.97382 11.4008 9.49023 11.7301 10.0875 11.7301Z" fill="white" fill-opacity="0.85"/>
 </g>
</svg>
