<?xml version="1.0" encoding="UTF-8"?>
<!--Generator: Apple Native CoreSVG 341-->
<!DOCTYPE svg
PUBLIC "-//W3C//DTD SVG 1.1//EN"
       "http://www.w3.org/Graphics/SVG/1.1/DTD/svg11.dtd">
<svg version="1.1" xmlns="http://www.w3.org/2000/svg" xmlns:xlink="http://www.w3.org/1999/xlink" viewBox="0 0 14.2889 24.0203">
 <g>
  <rect height="24.0203" opacity="0" width="14.2889" x="0" y="0"/>
  <path d="M0.908784 1.83358L13.0267 1.83358C13.5232 1.83358 13.9275 1.41952 13.9275 0.923042C13.9275 0.428318 13.5232 0.0222659 13.0267 0.0222659L0.908784 0.0222659C0.41406 0.0222659 0 0.428318 0 0.923042C0 1.41952 0.41406 1.83358 0.908784 1.83358ZM12.7558 8.26425L13.068 2.94393L0.859568 2.94393L1.17168 8.26425C2.59629 7.63183 4.62343 7.28066 6.97265 7.28066C9.3121 7.28066 11.341 7.63183 12.7558 8.26425ZM6.97265 13.5459C10.9682 13.5459 13.8713 12.4609 13.8713 10.9613C13.8713 9.47148 10.9441 8.39453 6.97265 8.39453C2.9914 8.39453 0.0562477 9.47148 0.0562477 10.9613C0.0562477 12.4609 2.9914 13.5459 6.97265 13.5459ZM6.97265 11.9961C4.16366 11.9961 2.30488 11.5621 2.30488 10.9613C2.30488 10.3783 4.16366 9.95058 6.97265 9.95058C9.77187 9.95058 11.6226 10.3783 11.6226 10.9613C11.6226 11.5621 9.77187 11.9961 6.97265 11.9961ZM6.66073 18.1662L7.26679 18.1662C10.5937 18.1662 13.0885 16.2715 13.7023 13.0773C12.3506 14.0545 9.95292 14.6074 6.97265 14.6074C4.00038 14.6074 1.58671 14.0545 0.228706 13.0728C0.834563 16.2715 3.33906 18.1662 6.66073 18.1662ZM6.96464 24.0203C8.64433 24.0203 10.8082 23.5871 11.7781 22.6137C12.0398 22.3387 12.0734 21.9697 11.9555 21.5812L11.016 18.4617C9.89354 18.9972 8.5955 19.2801 7.26855 19.2801L6.62694 19.2801C5.31601 19.2801 4.04375 19.0053 2.92129 18.4777L1.97207 21.5812C1.86211 21.9697 1.88945 22.3387 2.15742 22.6137C3.13535 23.5871 5.29121 24.0203 6.96464 24.0203Z" fill="white" fill-opacity="0.85"/>
 </g>
</svg>
