<?xml version="1.0" encoding="UTF-8"?>
<!--Generator: Apple Native CoreSVG 341-->
<!DOCTYPE svg
PUBLIC "-//W3C//DTD SVG 1.1//EN"
       "http://www.w3.org/Graphics/SVG/1.1/DTD/svg11.dtd">
<svg version="1.1" xmlns="http://www.w3.org/2000/svg" xmlns:xlink="http://www.w3.org/1999/xlink" viewBox="0 0 20.5381 20.1848">
 <g>
  <rect height="20.1848" opacity="0" width="20.5381" x="0" y="0"/>
  <path d="M10.0875 20.175C15.6576 20.175 20.1767 15.6559 20.1767 10.0875C20.1767 4.51914 15.6576 0 10.0875 0C4.51914 0 0 4.51914 0 10.0875C0 15.6559 4.51914 20.175 10.0875 20.175ZM10.0875 18.1879C5.60839 18.1879 1.9871 14.5666 1.9871 10.0875C1.9871 5.60839 5.60839 1.9871 10.0875 1.9871C14.5666 1.9871 18.1897 5.60839 18.1897 10.0875C18.1897 14.5666 14.5666 18.1879 10.0875 18.1879Z" fill="white" fill-opacity="0.85"/>
  <path d="M8.39863 9.27167C9.55058 9.26367 10.5186 8.85527 11.2814 8.01074C10.5053 7.0453 9.66875 6.59667 8.42792 6.58866C7.18359 6.58866 6.333 7.00058 5.54511 8.03554C6.3205 8.8748 7.31249 9.27968 8.39863 9.27167ZM5.62792 11.9387C6.27069 11.3418 6.76444 10.3695 6.85858 9.5955C6.28944 9.38593 5.61522 8.98534 5.19276 8.5291C4.99823 8.82753 4.79393 9.15527 4.60565 9.52832C4.2201 10.2684 3.80702 10.6477 3.50233 10.9061C3.37381 11.0381 3.29667 11.1695 3.29667 11.3514C3.29667 11.6061 3.53553 11.7648 3.99198 11.7648C4.14843 11.7648 4.31913 11.7648 4.47558 11.7648C4.94804 11.7648 5.30116 11.8287 5.62792 11.9387ZM8.39589 12.9068C9.35234 12.9068 10.0414 12.4252 10.6178 12.1525C9.92812 11.5301 9.49843 10.6234 9.4416 9.758C9.10136 9.84687 8.75312 9.89042 8.41464 9.89042C8.06366 9.89042 7.72519 9.84687 7.39648 9.76601C7.32187 10.5834 6.89569 11.5203 6.23261 12.1605C6.7787 12.3932 7.44023 12.9068 8.39589 12.9068ZM11.1709 11.9076C11.5307 11.818 11.899 11.7506 12.3637 11.7383C12.7264 11.733 13.1023 11.6797 13.2686 11.565C12.8445 10.9463 12.0512 9.17206 11.6062 8.48827C11.165 8.95077 10.4881 9.38515 9.97148 9.58398C10.0478 10.3713 10.4908 11.2689 11.1709 11.9076ZM15.485 10.7728C16.617 10.7728 17.3354 10.3617 17.3354 9.72421C17.3354 8.2662 16.5664 7.27695 15.4059 7.27695C14.3953 7.27695 13.7568 7.89218 13.5207 8.85312C13.3572 9.45468 13.1166 9.71484 12.9055 9.8916C13.1328 10.2695 13.4572 10.8769 13.7586 11.3723C14.3445 11.1059 14.6945 10.7728 15.485 10.7728ZM15.5035 9.31738C15.2932 9.31738 15.1236 9.13808 15.1236 8.92949C15.1236 8.72714 15.2932 8.54335 15.5035 8.54335C15.6979 8.54335 15.8834 8.72714 15.8834 8.92949C15.8834 9.13808 15.6979 9.31738 15.5035 9.31738ZM4.48397 13.6375C5.20683 13.6375 5.94569 13.3381 6.32382 12.8787C5.80897 12.583 5.28358 12.3291 4.72421 12.2877C4.53065 12.3383 4.31835 12.3551 4.11503 12.3879C3.77557 12.4687 3.45565 12.617 3.45565 12.9537C3.45565 13.3889 3.90331 13.6375 4.48397 13.6375ZM12.259 13.6535C12.8414 13.6535 13.2846 13.3969 13.2846 12.9617C13.2846 12.6102 12.9516 12.3541 12.5998 12.316C12.383 12.3027 12.2062 12.2975 11.9734 12.2842C11.4764 12.3248 10.7939 12.6418 10.3998 12.8859C10.7664 13.3541 11.5264 13.6535 12.259 13.6535Z" fill="white" fill-opacity="0.85"/>
 </g>
</svg>
