<?xml version="1.0" encoding="UTF-8"?>
<!--Generator: Apple Native CoreSVG 341-->
<!DOCTYPE svg
PUBLIC "-//W3C//DTD SVG 1.1//EN"
       "http://www.w3.org/Graphics/SVG/1.1/DTD/svg11.dtd">
<svg version="1.1" xmlns="http://www.w3.org/2000/svg" xmlns:xlink="http://www.w3.org/1999/xlink" viewBox="0 0 28.466 17.5578">
 <g>
  <rect height="17.5578" opacity="0" width="28.466" x="0" y="0"/>
  <path d="M14.0572 17.5578C21.8482 17.5578 28.1047 13.6904 28.1047 8.77402C28.1047 3.86738 21.8367 0 14.0572 0C6.26621 0 0 3.86738 0 8.77402C0 13.6904 6.25019 17.5578 14.0572 17.5578ZM14.0572 15.6445C7.3871 15.6445 1.91327 12.4949 1.91327 8.77402C1.91327 5.06288 7.40038 1.91327 14.0572 1.91327C20.7061 1.91327 26.1914 5.06288 26.1914 8.77402C26.1914 12.4949 20.7176 15.6445 14.0572 15.6445ZM20.6416 8.73945C18.9832 7.18515 16.573 6.29219 14.0572 6.29219C11.5334 6.29219 9.13124 7.18515 7.47285 8.73945L8.67597 9.93964C10.0336 8.68261 11.9726 7.98398 14.0572 7.98398C16.1418 7.98398 18.0809 8.68261 19.4385 9.93964ZM6.18515 8.32401C7.0746 10.0398 10.0469 11.0801 14.0572 11.0801C18.0676 11.0801 21.0398 10.0398 21.9293 8.32401C22.3305 7.50116 21.3703 7.06347 20.9201 7.56601C19.7205 8.95409 16.7197 9.38827 14.0572 9.38827C11.4766 9.38827 8.39393 8.97011 7.19432 7.56601C6.74413 7.06347 5.78398 7.50116 6.18515 8.32401Z" fill="white" fill-opacity="0.85"/>
 </g>
</svg>
