<?xml version="1.0" encoding="UTF-8"?>
<!--Generator: Apple Native CoreSVG 341-->
<!DOCTYPE svg
PUBLIC "-//W3C//DTD SVG 1.1//EN"
       "http://www.w3.org/Graphics/SVG/1.1/DTD/svg11.dtd">
<svg version="1.1" xmlns="http://www.w3.org/2000/svg" xmlns:xlink="http://www.w3.org/1999/xlink" viewBox="0 0 20.5381 20.1848">
 <g>
  <rect height="20.1848" opacity="0" width="20.5381" x="0" y="0"/>
  <path d="M20.1767 10.0973C20.1767 15.6656 15.6576 20.1848 10.0875 20.1848C4.52715 20.1848 0 15.6656 0 10.0973C0 4.53691 4.52715 0.00976562 10.0875 0.00976562C15.6576 0.00976562 20.1767 4.53691 20.1767 10.0973ZM8.02988 4.24414C7.06855 4.3664 6.48633 4.99218 6.26543 5.93729C6.08418 6.71366 5.92949 7.84531 5.92949 9.11855L5.92949 12.6088C5.92949 13.6137 6.49687 14.074 7.50918 14.1102L6.47363 15.7691C6.33515 15.9795 6.44707 16.2385 6.70253 16.2385L6.9873 16.2385C7.14257 16.2385 7.22773 16.1861 7.30136 16.0602L7.58027 15.6223L12.5879 15.6223L12.8668 16.0602C12.9422 16.1861 13.0256 16.2385 13.1791 16.2385L13.4525 16.2385C13.7018 16.2385 13.8232 15.9795 13.6777 15.7568L12.6687 14.1154C13.7289 14.0926 14.2473 13.5727 14.2473 12.6088L14.2473 9.11855C14.2473 7.84531 14.0926 6.71366 13.9113 5.93729C13.6904 4.99218 13.1082 4.3664 12.1469 4.24414C11.8178 4.19804 11.0326 4.13671 10.0875 4.13671C9.14238 4.13671 8.35898 4.19804 8.02988 4.24414ZM12.1123 14.8414L8.05409 14.8414L8.50195 14.1189L11.6644 14.1189ZM12.9998 12.4039C12.9998 12.7795 12.6943 13.0752 12.3303 13.0752C11.9512 13.0752 11.6635 12.7795 11.6635 12.4039C11.6635 12.0203 11.9512 11.7344 12.3303 11.7344C12.7059 11.7344 12.9998 12.0203 12.9998 12.4039ZM8.50527 12.4039C8.50527 12.7875 8.21581 13.0672 7.83847 13.0672C7.46288 13.0672 7.18495 12.7875 7.18495 12.4039C7.18495 12.0203 7.46464 11.7424 7.83847 11.7424C8.22558 11.7424 8.50527 12.0203 8.50527 12.4039ZM12.549 6.65038C12.7789 6.67792 12.9279 6.8332 12.975 7.06484C13.0363 7.39531 13.1518 8.18281 13.1518 9.13574L13.1518 10.2756C13.1518 10.5658 13.0187 10.7566 12.7205 10.7877C11.9893 10.8703 10.998 10.9094 10.0875 10.9111C8.95371 10.8996 7.96601 10.8445 7.45624 10.7877C7.158 10.7566 7.02499 10.5658 7.02499 10.2756L7.02499 9.13574C7.02499 8.18281 7.14042 7.39531 7.20175 7.06484C7.24706 6.8332 7.39609 6.67792 7.61171 6.65038C8.14726 6.59179 8.83261 6.54823 10.0875 6.54472C11.3406 6.53847 12.026 6.59179 12.549 6.65038ZM11.65 5.42343C11.65 5.60527 11.5027 5.75077 11.3146 5.75077L8.8621 5.75077C8.67402 5.75077 8.53652 5.60527 8.53652 5.42343C8.53652 5.22558 8.67402 5.1041 8.8621 5.1041L11.3146 5.1041C11.5027 5.1041 11.65 5.22558 11.65 5.42343Z" fill="white" fill-opacity="0.85"/>
 </g>
</svg>
