<?xml version="1.0" encoding="UTF-8"?>
<!--Generator: Apple Native CoreSVG 341-->
<!DOCTYPE svg
PUBLIC "-//W3C//DTD SVG 1.1//EN"
       "http://www.w3.org/Graphics/SVG/1.1/DTD/svg11.dtd">
<svg version="1.1" xmlns="http://www.w3.org/2000/svg" xmlns:xlink="http://www.w3.org/1999/xlink" viewBox="0 0 23.1523 26.5512">
 <g>
  <rect height="26.5512" opacity="0" width="23.1523" x="0" y="0"/>
  <path d="M0 25.3281C0 25.8176 0.404295 26.2219 0.893745 26.2219C1.3912 26.2219 1.79374 25.8176 1.79374 25.3281L1.79374 10.217C1.79374 4.71679 5.12519 1.79374 11.3986 1.79374C17.6658 1.79374 20.9973 4.71679 20.9973 10.217L20.9973 25.3281C20.9973 25.8176 21.4078 26.2219 21.8973 26.2219C22.3867 26.2219 22.791 25.8176 22.791 25.3281L22.791 10.217C22.791 3.56133 18.8275 0 11.3986 0C3.96347 0 0 3.56133 0 10.217ZM6.90292 21.8484L15.8898 21.8484C17.4879 21.8484 18.4248 20.7754 18.4248 19.2219L18.4248 13.4109C18.4248 11.2516 18.1652 9.36424 17.8676 8.08963C17.4851 6.39413 16.4342 5.38144 14.8521 5.17675C14.2773 5.1041 12.9717 4.99745 11.4021 4.99745C9.82909 4.99745 8.51718 5.1041 7.94062 5.17675C6.36035 5.38144 5.30937 6.39413 4.92519 8.08963C4.62754 9.36424 4.36797 11.2516 4.36797 13.4109L4.36797 19.2219C4.36797 20.7754 5.30488 21.8484 6.90292 21.8484ZM11.4021 16.3205C9.52265 16.3107 7.86171 16.2264 7.01718 16.1225C6.59394 16.0701 6.37577 15.8031 6.37577 15.3381L6.37577 13.4357C6.37577 11.8611 6.54804 10.5463 6.66093 9.98749C6.73105 9.62636 6.95722 9.40819 7.28456 9.36737C8.17265 9.25546 9.30273 9.19687 11.4021 9.19511C13.4768 9.19687 14.6201 9.25546 15.4842 9.35937C15.8275 9.40819 16.0617 9.62636 16.1318 9.98749C16.2447 10.5463 16.417 11.8611 16.417 13.4357L16.417 15.3381C16.417 15.8129 16.1988 16.0701 15.7756 16.1225C14.5619 16.2842 12.9152 16.3107 11.4021 16.3205ZM9.38749 7.8621C9.02363 7.8621 8.77343 7.6119 8.77343 7.24804C8.77343 6.88241 9.02363 6.63046 9.38749 6.63046L13.4053 6.63046C13.7691 6.63046 14.0193 6.88241 14.0193 7.24804C14.0193 7.6119 13.7691 7.8621 13.4053 7.8621ZM7.64023 20.0582C6.97421 20.0582 6.48319 19.5592 6.48319 18.8851C6.48319 18.2174 6.97421 17.7264 7.64023 17.7264C8.31601 17.7264 8.81503 18.2174 8.81503 18.8851C8.81503 19.5592 8.29999 20.0582 7.64023 20.0582ZM15.1445 20.0582C14.4768 20.0582 13.9777 19.5592 13.9777 18.8851C13.9777 18.2174 14.4768 17.7264 15.1445 17.7264C15.8186 17.7264 16.3096 18.2174 16.3096 18.8851C16.3096 19.5592 15.8025 20.0582 15.1445 20.0582ZM5.73222 25.3246L6.22109 25.3246C6.48105 25.3246 6.62831 25.2332 6.78183 25.0061L9.16347 21.1615L7.3916 21.1615L5.31074 24.5057C5.08086 24.8775 5.28867 25.3246 5.73222 25.3246ZM6.46327 24.3035L16.3016 24.3035L16.3016 22.9369L6.46327 22.9369ZM16.5615 25.3246L17.0107 25.3246C17.4498 25.3246 17.684 24.8713 17.4498 24.4881L15.3812 21.1615L13.6094 21.1615L15.9928 25.0061C16.1365 25.2332 16.3016 25.3246 16.5615 25.3246Z" fill="white" fill-opacity="0.85"/>
 </g>
</svg>
