<?xml version="1.0" encoding="UTF-8"?>
<!--Generator: Apple Native CoreSVG 341-->
<!DOCTYPE svg
PUBLIC "-//W3C//DTD SVG 1.1//EN"
       "http://www.w3.org/Graphics/SVG/1.1/DTD/svg11.dtd">
<svg version="1.1" xmlns="http://www.w3.org/2000/svg" xmlns:xlink="http://www.w3.org/1999/xlink" viewBox="0 0 24.5187 17.367">
 <g>
  <rect height="17.367" opacity="0" width="24.5187" x="0" y="0"/>
  <path d="M6.74784 15.448L17.0769 17.1847C19.1043 17.5202 20.4248 16.4501 20.4248 14.4618L20.4248 2.78429C20.4248 0.797771 19.1043-0.280352 17.0769 0.0632025L6.74784 1.80793C4.79901 2.12668 3.73085 3.15364 3.73085 4.84289L3.73085 12.4032C3.73085 14.0845 4.79901 15.1212 6.74784 15.448ZM0.96054 9.54933C0.368552 9.54933 0 9.16242 0 8.62883C0 8.0757 0.368552 7.6968 0.96054 7.6968L23.1986 7.6968C23.7906 7.6968 24.1574 8.0757 24.1574 8.62883C24.1574 9.16242 23.7906 9.54933 23.1986 9.54933Z" fill="white" fill-opacity="0.85"/>
 </g>
</svg>
