<?xml version="1.0" encoding="UTF-8"?>
<!--Generator: Apple Native CoreSVG 341-->
<!DOCTYPE svg
PUBLIC "-//W3C//DTD SVG 1.1//EN"
       "http://www.w3.org/Graphics/SVG/1.1/DTD/svg11.dtd">
<svg version="1.1" xmlns="http://www.w3.org/2000/svg" xmlns:xlink="http://www.w3.org/1999/xlink" viewBox="0 0 20.5381 20.1848">
 <g>
  <rect height="20.1848" opacity="0" width="20.5381" x="0" y="0"/>
  <path d="M10.0875 20.175C15.6576 20.175 20.1767 15.6559 20.1767 10.0875C20.1767 4.51914 15.6576 0 10.0875 0C4.51914 0 0 4.51914 0 10.0875C0 15.6559 4.51914 20.175 10.0875 20.175ZM10.0875 18.1879C5.60839 18.1879 1.9871 14.5666 1.9871 10.0875C1.9871 5.60839 5.60839 1.9871 10.0875 1.9871C14.5666 1.9871 18.1897 5.60839 18.1897 10.0875C18.1897 14.5666 14.5666 18.1879 10.0875 18.1879Z" fill="white" fill-opacity="0.85"/>
  <path d="M7.66894 15.734L12.498 15.734C13.1963 15.734 13.609 15.3523 13.6418 14.6576L13.9703 7.18964L14.682 7.18964C14.948 7.18964 15.1449 6.98827 15.1529 6.73378C15.1609 6.46953 14.948 6.26992 14.682 6.26992L12.4543 6.26992L12.4543 5.55448C12.4543 4.72812 11.9049 4.21327 10.9998 4.21327L9.14316 4.21327C8.24785 4.21327 7.70468 4.72812 7.70468 5.55448L7.70468 6.26992L5.46894 6.26992C5.21444 6.26992 5.00155 6.46953 4.9998 6.73378C4.99628 6.98827 5.21444 7.18964 5.46894 7.18964L6.2082 7.18964L6.5412 14.6576C6.56425 15.3523 6.9662 15.734 7.66894 15.734ZM8.42968 14.2379C8.23085 14.2379 8.0746 14.0977 8.07285 13.8953L7.88007 8.35038C7.87831 8.13476 8.00878 7.99452 8.24492 7.99452C8.4455 7.99452 8.60351 8.12499 8.60527 8.34511L8.78202 13.8936C8.78378 14.0959 8.6498 14.2379 8.42968 14.2379ZM10.0732 14.2379C9.85312 14.2379 9.70664 14.0977 9.70664 13.8953L9.70664 8.34159C9.70664 8.13124 9.84511 7.99452 10.0732 7.99452C10.2934 7.99452 10.4398 8.13124 10.4398 8.34159L10.4398 13.8953C10.4398 14.0977 10.2934 14.2379 10.0732 14.2379ZM11.707 14.2379C11.4887 14.2379 11.3529 14.0959 11.3564 13.8936L11.5332 8.34511C11.543 8.12499 11.6912 7.99452 11.8998 7.99452C12.1297 7.99452 12.2602 8.13476 12.2584 8.35038L12.0656 13.8953C12.0639 14.0977 11.9076 14.2379 11.707 14.2379ZM8.74902 6.26992L8.75077 5.59101C8.75253 5.34589 8.93456 5.18339 9.1912 5.18339L10.9553 5.18339C11.2137 5.18339 11.3922 5.34589 11.3957 5.59101L11.3975 6.26992Z" fill="white" fill-opacity="0.85"/>
 </g>
</svg>
