<?xml version="1.0" encoding="UTF-8"?>
<!--Generator: Apple Native CoreSVG 341-->
<!DOCTYPE svg
PUBLIC "-//W3C//DTD SVG 1.1//EN"
       "http://www.w3.org/Graphics/SVG/1.1/DTD/svg11.dtd">
<svg version="1.1" xmlns="http://www.w3.org/2000/svg" xmlns:xlink="http://www.w3.org/1999/xlink" viewBox="0 0 18.5894 18.2316">
 <g>
  <rect height="18.2316" opacity="0" width="18.5894" x="0" y="0"/>
  <path d="M3.20351 18.2281L15.0246 18.2281C17.1404 18.2281 18.2281 17.1502 18.2281 15.0646L18.2281 3.17148C18.2281 1.08769 17.1404 0 15.0246 0L3.20351 0C1.0957 0 0 1.08769 0 3.17148L0 15.0646C0 17.1502 1.0957 18.2281 3.20351 18.2281ZM3.31444 16.3148C2.40643 16.3148 1.91327 15.8465 1.91327 14.8977L1.91327 3.34023C1.91327 2.39139 2.40643 1.91503 3.31444 1.91503L14.9137 1.91503C15.8137 1.91503 16.3148 2.39139 16.3148 3.34023L16.3148 14.8977C16.3148 15.8465 15.8137 16.3148 14.9137 16.3148Z" fill="white" fill-opacity="0.85"/>
  <path d="M6.70839 14.7574L11.5375 14.7574C12.234 14.7574 12.6484 14.3758 12.6812 13.6811L13.0098 6.21308L13.7215 6.21308C13.9875 6.21308 14.1844 6.01171 14.1924 5.75722C14.2004 5.49296 13.9875 5.29335 13.7215 5.29335L11.5018 5.29335L11.5018 4.57792C11.5018 3.75155 10.9443 3.23671 10.0473 3.23671L8.19062 3.23671C7.2873 3.23671 6.74414 3.75155 6.74414 4.57792L6.74414 5.29335L4.50839 5.29335C4.2539 5.29335 4.04101 5.49296 4.03925 5.75722C4.03573 6.01171 4.2539 6.21308 4.50839 6.21308L5.24589 6.21308L5.58066 13.6811C5.6037 14.3758 6.00566 14.7574 6.70839 14.7574ZM7.46913 13.2613C7.26855 13.2613 7.11406 13.1211 7.1123 12.9187L6.91952 7.37382C6.91601 7.1582 7.05624 7.01796 7.28437 7.01796C7.48495 7.01796 7.64296 7.14843 7.64472 7.36855L7.82148 12.917C7.82324 13.1193 7.69726 13.2613 7.46913 13.2613ZM9.11269 13.2613C8.89257 13.2613 8.74433 13.1211 8.74433 12.9187L8.74433 7.36503C8.74433 7.15468 8.88457 7.01796 9.11269 7.01796C9.33105 7.01796 9.47929 7.15468 9.47929 7.36503L9.47929 12.9187C9.47929 13.1211 9.33105 13.2613 9.11269 13.2613ZM10.7465 13.2613C10.5281 13.2613 10.3924 13.1193 10.3941 12.917L10.5709 7.36855C10.5824 7.14843 10.7307 7.01796 10.9393 7.01796C11.1691 7.01796 11.2996 7.1582 11.2978 7.37382L11.1051 12.9187C11.1016 13.1211 10.9471 13.2613 10.7465 13.2613ZM7.78847 5.29335L7.79023 4.61444C7.79198 4.36933 7.97402 4.20683 8.23066 4.20683L9.99472 4.20683C10.2531 4.20683 10.4316 4.36933 10.4334 4.61444L10.4369 5.29335Z" fill="white" fill-opacity="0.85"/>
 </g>
</svg>
