<?xml version="1.0" encoding="UTF-8"?>
<!--Generator: Apple Native CoreSVG 341-->
<!DOCTYPE svg
PUBLIC "-//W3C//DTD SVG 1.1//EN"
       "http://www.w3.org/Graphics/SVG/1.1/DTD/svg11.dtd">
<svg version="1.1" xmlns="http://www.w3.org/2000/svg" xmlns:xlink="http://www.w3.org/1999/xlink" viewBox="0 0 20.5381 20.1848">
 <g>
  <rect height="20.1848" opacity="0" width="20.5381" x="0" y="0"/>
  <path d="M20.1767 10.0973C20.1767 15.6656 15.6576 20.1848 10.0875 20.1848C4.52715 20.1848 0 15.6656 0 10.0973C0 4.53691 4.52715 0.00976562 10.0875 0.00976562C15.6576 0.00976562 20.1767 4.53691 20.1767 10.0973ZM6.39941 14.8438C6.43222 15.573 6.85546 15.9697 7.58651 15.9697L12.5965 15.9697C13.0991 15.9697 13.4672 15.7756 13.6537 15.4088L12.1609 13.9163L12.156 14.0602C12.1525 14.2643 11.9883 14.4143 11.7762 14.4143C11.5543 14.4143 11.4088 14.2625 11.4105 14.0584L11.4385 13.1941L10.4629 12.2186L10.4629 14.0602C10.4629 14.2643 10.3129 14.4143 10.0732 14.4143C9.8416 14.4143 9.70136 14.2643 9.70136 14.0602L9.70136 11.4572L8.62302 10.3791L8.74218 14.0584C8.7457 14.2625 8.60019 14.4143 8.37656 14.4143C8.16621 14.4143 8.00019 14.2643 7.99843 14.0602L7.84788 9.6041L6.09402 7.85058ZM5.25155 5.26308C5.05644 5.45819 5.06269 5.78632 5.25155 5.98143L14.2148 14.935C14.402 15.1283 14.7363 15.1283 14.9332 14.935C15.1283 14.7301 15.1301 14.4215 14.9332 14.2166L5.97968 5.26308C5.7828 5.05819 5.45644 5.05995 5.25155 5.26308ZM9.11835 3.99706C8.18496 3.99706 7.61699 4.53495 7.61699 5.39941L7.61699 5.87344L9.78737 8.04382C9.85115 7.97193 9.94906 7.93163 10.0732 7.93163C10.3129 7.93163 10.4629 8.07187 10.4629 8.29374L10.4629 8.71933L11.5483 9.80475L11.5971 8.29902C11.6006 8.06562 11.7586 7.93163 11.9805 7.93163C12.2201 7.93163 12.3523 8.07538 12.3506 8.30253L12.2753 10.5317L13.9065 12.163L14.1236 7.09745L14.8584 7.09745C15.1475 7.09745 15.3461 6.89257 15.3541 6.6248C15.3621 6.3455 15.1475 6.13613 14.8584 6.13613L12.5598 6.13613L12.5598 5.39941C12.5598 4.53495 11.9855 3.99706 11.0406 3.99706ZM11.4516 5.43417L11.4516 6.13613L8.70917 6.13613L8.70917 5.43417C8.70917 5.17929 8.89648 5.01503 9.1664 5.01503L10.9961 5.01503C11.266 5.01503 11.4516 5.17929 11.4516 5.43417Z" fill="white" fill-opacity="0.85"/>
 </g>
</svg>
