<?xml version="1.0" encoding="UTF-8"?>
<!--Generator: Apple Native CoreSVG 341-->
<!DOCTYPE svg
PUBLIC "-//W3C//DTD SVG 1.1//EN"
       "http://www.w3.org/Graphics/SVG/1.1/DTD/svg11.dtd">
<svg version="1.1" xmlns="http://www.w3.org/2000/svg" xmlns:xlink="http://www.w3.org/1999/xlink" viewBox="0 0 18.5894 18.2316">
 <g>
  <rect height="18.2316" opacity="0" width="18.5894" x="0" y="0"/>
  <path d="M18.2281 3.17148L18.2281 15.0646C18.2281 17.1502 17.1404 18.2281 15.0246 18.2281L3.20351 18.2281C1.0957 18.2281 0 17.1502 0 15.0646L0 3.17148C0 1.08769 1.0957 0 3.20351 0L15.0246 0C17.1404 0 18.2281 1.08769 18.2281 3.17148ZM8.1789 3.01074C7.23574 3.01074 6.66777 3.54863 6.66777 4.41308L6.66777 5.14804L4.35312 5.14804C4.08534 5.14804 3.8707 5.35917 3.86542 5.63847C3.86191 5.90624 4.08534 6.11112 4.35312 6.11112L5.11366 6.11112L5.45995 13.8574C5.48476 14.5867 5.908 14.9816 6.63905 14.9816L11.649 14.9816C12.3738 14.9816 12.8113 14.5867 12.8441 13.8574L13.1842 6.11112L13.9189 6.11112C14.1982 6.11112 14.3969 5.90624 14.4049 5.63847C14.4129 5.35917 14.1982 5.14804 13.9189 5.14804L11.6185 5.14804L11.6185 4.41308C11.6185 3.54863 11.0363 3.01074 10.1012 3.01074ZM7.6082 7.31093L7.79472 13.0703C7.79648 13.2762 7.65898 13.4262 7.42909 13.4262C7.21874 13.4262 7.05273 13.2779 7.05097 13.0738L6.85468 7.3162C6.85292 7.08906 6.99492 6.94531 7.23632 6.94531C7.44667 6.94531 7.60644 7.07929 7.6082 7.31093ZM9.51367 7.30742L9.51367 13.0738C9.51367 13.2779 9.36542 13.4262 9.13378 13.4262C8.90038 13.4262 8.7539 13.2779 8.7539 13.0738L8.7539 7.30742C8.7539 7.08378 8.89238 6.94531 9.13378 6.94531C9.36542 6.94531 9.51367 7.08378 9.51367 7.30742ZM11.4014 7.3162L11.2068 13.0738C11.2051 13.2779 11.0391 13.4262 10.8287 13.4262C10.6051 13.4262 10.4613 13.2762 10.4631 13.0703L10.6496 7.31093C10.6594 7.07929 10.8111 6.94531 11.0312 6.94531C11.2709 6.94531 11.4031 7.08906 11.4014 7.3162ZM10.5041 4.44784L10.5041 5.14804L7.76171 5.14804L7.76171 4.44784C7.76171 4.19296 7.94902 4.02695 8.21718 4.02695L10.0486 4.02695C10.3186 4.02695 10.5041 4.19296 10.5041 4.44784Z" fill="white" fill-opacity="0.85"/>
 </g>
</svg>
