<?xml version="1.0" encoding="UTF-8"?>
<!--Generator: Apple Native CoreSVG 341-->
<!DOCTYPE svg
PUBLIC "-//W3C//DTD SVG 1.1//EN"
       "http://www.w3.org/Graphics/SVG/1.1/DTD/svg11.dtd">
<svg version="1.1" xmlns="http://www.w3.org/2000/svg" xmlns:xlink="http://www.w3.org/1999/xlink" viewBox="0 0 22.0137 23.8449">
 <g>
  <rect height="23.8449" opacity="0" width="22.0137" x="0" y="0"/>
  <path d="M5.046 8.15383L5.58417 19.3336C5.61346 19.9098 5.99999 20.3086 6.54081 20.3086L15.115 20.3086C15.6701 20.3086 16.0584 19.9195 16.0779 19.3336L16.0847 19.1854L17.6078 20.7075C17.2224 21.551 16.4126 22.0363 15.324 22.0363L6.34784 22.0363C4.83691 22.0363 3.88203 21.1291 3.81015 19.6324L3.18404 6.29308ZM8.43598 11.5416L8.62323 18.0853C8.633 18.4693 8.366 18.7301 7.95448 18.7301C7.55976 18.7301 7.28925 18.4791 7.27948 18.0906L7.05382 10.1603ZM11.5221 14.6257L11.5221 18.0924C11.5221 18.4728 11.2373 18.7301 10.831 18.7301C10.4266 18.7301 10.1498 18.4728 10.1498 18.0924L10.1498 13.2543ZM14.3995 17.5012L14.3826 18.0906C14.3728 18.4791 14.1023 18.7301 13.7156 18.7301C13.3041 18.7301 13.0371 18.4693 13.0486 18.0853L13.1022 16.2047ZM15.2515 2.37382L15.2515 3.83984L19.6019 3.83984C20.0832 3.83984 20.4582 4.21406 20.4582 4.69179C20.4582 5.17304 20.0832 5.55526 19.6019 5.55526L18.5224 5.55526L18.0515 15.5569L16.33 13.8347L16.7096 5.55526L8.05431 5.55526L6.33967 3.83984L6.39453 3.83984L6.39453 2.37382C6.39453 0.880468 7.35742 0 8.96581 0L12.6803 0C14.2967 0 15.2515 0.880468 15.2515 2.37382ZM14.6756 7.85682L14.5553 12.0592L13.2571 10.7604L13.3398 7.85507C13.3496 7.46659 13.6201 7.21386 14.0139 7.21386C14.4201 7.21386 14.6853 7.4746 14.6756 7.85682ZM11.5221 7.85331L11.5221 9.02458L10.1727 7.67463C10.2454 7.39389 10.4938 7.21386 10.831 7.21386C11.2373 7.21386 11.5221 7.47284 11.5221 7.85331ZM9.09608 1.63437C8.55233 1.63437 8.19686 1.95878 8.19686 2.46445L8.19686 3.83984L13.4492 3.83984L13.4492 2.46445C13.4492 1.95878 13.0937 1.63437 12.5517 1.63437Z" fill="white" fill-opacity="0.85"/>
  <path d="M19.1252 20.5349C19.4367 20.8385 19.931 20.8385 20.2248 20.5349C20.5248 20.2252 20.5363 19.7389 20.2248 19.4371L2.53515 1.73144C2.23339 1.42793 1.72929 1.42793 1.42578 1.73144C1.13379 2.02343 1.13379 2.5373 1.42578 2.83105Z" fill="white" fill-opacity="0.85"/>
 </g>
</svg>
