<?xml version="1.0" encoding="UTF-8"?>
<!--Generator: Apple Native CoreSVG 341-->
<!DOCTYPE svg
PUBLIC "-//W3C//DTD SVG 1.1//EN"
       "http://www.w3.org/Graphics/SVG/1.1/DTD/svg11.dtd">
<svg version="1.1" xmlns="http://www.w3.org/2000/svg" xmlns:xlink="http://www.w3.org/1999/xlink" viewBox="0 0 22.0137 23.8449">
 <g>
  <rect height="23.8449" opacity="0" width="22.0137" x="0" y="0"/>
  <path d="M6.89073 9.99736L7.12363 18.3383C7.13515 18.7516 7.41894 19.0078 7.83847 19.0078C8.26679 19.0078 8.54706 18.7418 8.53378 18.3348L8.33741 11.4431L10.1215 13.226L10.1215 18.34C10.1215 18.7453 10.4098 19.0078 10.831 19.0078C11.2541 19.0078 11.5504 18.7453 11.5504 18.34L11.5504 14.654L13.1948 16.2973L13.1363 18.3348C13.1248 18.7418 13.4051 19.0078 13.8334 19.0078C14.2449 19.0078 14.5269 18.7516 14.5385 18.3383L14.5574 17.6591L17.6078 20.7075C17.2224 21.551 16.4126 22.0363 15.324 22.0363L6.34784 22.0363C4.83691 22.0363 3.88203 21.1291 3.81015 19.6324L3.18478 6.29382ZM15.2515 2.37382L15.2515 3.83984L19.6019 3.83984C20.0832 3.83984 20.4582 4.21406 20.4582 4.69179C20.4582 5.17304 20.0832 5.55526 19.6019 5.55526L18.5217 5.55526L18.0513 15.5567L14.7095 12.2134L14.8349 7.71991C14.8465 7.31288 14.5742 7.04862 14.1432 7.04862C13.7344 7.04862 13.4523 7.30487 13.4408 7.71815L13.3509 10.8542L11.5504 9.05291L11.5504 7.71639C11.5504 7.31112 11.2541 7.04862 10.831 7.04862C10.4411 7.04862 10.1651 7.2735 10.1267 7.62859L6.33967 3.83984L6.39453 3.83984L6.39453 2.37382C6.39453 0.880468 7.35742 0 8.96581 0L12.6803 0C14.2967 0 15.2515 0.880468 15.2515 2.37382ZM9.09608 1.63437C8.55233 1.63437 8.19686 1.95878 8.19686 2.46445L8.19686 3.83984L13.4492 3.83984L13.4492 2.46445C13.4492 1.95878 13.0937 1.63437 12.5517 1.63437Z" fill="white" fill-opacity="0.85"/>
  <path d="M19.1252 20.5349C19.4367 20.8385 19.931 20.8385 20.2248 20.5349C20.5248 20.2252 20.5363 19.7389 20.2248 19.4371L2.53515 1.73144C2.23339 1.42793 1.72929 1.42793 1.42578 1.73144C1.13379 2.02343 1.13379 2.5373 1.42578 2.83105Z" fill="white" fill-opacity="0.85"/>
 </g>
</svg>
