<?xml version="1.0" encoding="UTF-8"?>
<!--Generator: Apple Native CoreSVG 341-->
<!DOCTYPE svg
PUBLIC "-//W3C//DTD SVG 1.1//EN"
       "http://www.w3.org/Graphics/SVG/1.1/DTD/svg11.dtd">
<svg version="1.1" xmlns="http://www.w3.org/2000/svg" xmlns:xlink="http://www.w3.org/1999/xlink" viewBox="0 0 23.5732 25.925">
 <g>
  <rect height="25.925" opacity="0" width="23.5732" x="0" y="0"/>
  <path d="M19.2264 8.28125L22.5621 12.6881C23.0682 13.3256 23.2119 13.8043 23.2119 14.874L23.2119 20.3156C23.2119 22.3994 22.1242 23.4871 20.0066 23.4871L3.20351 23.4871C1.0957 23.4871 0 22.3994 0 20.3156L0 14.874C0 13.8043 0.151758 13.3256 0.648043 12.6881L3.98828 8.28476C5.07734 6.8455 5.74492 6.44004 7.40234 6.44004L8.86231 6.44004L8.86231 8.0455L7.35019 8.0455C6.68476 8.0455 6.16308 8.25858 5.7455 8.82909L2.13397 13.6785C1.97596 13.8916 2.04432 14.1553 2.36307 14.1553L8.32891 14.1553C8.88984 14.1553 9.15879 14.5875 9.15879 15.0277L9.15879 15.1055C9.15879 16.3506 10.1385 17.6016 11.6051 17.6016C13.0814 17.6016 14.0611 16.3506 14.0611 15.1055L14.0611 15.0277C14.0611 14.5875 14.3221 14.1553 14.883 14.1553L20.7715 14.1553C21.1236 14.1553 21.1857 13.8652 21.0182 13.6346L17.44 8.82909C17.0242 8.25858 16.5008 8.0455 15.8371 8.0455L14.3496 8.0455L14.3496 6.44004L15.8096 6.44004C17.4652 6.44004 18.1408 6.84375 19.2264 8.28125Z" fill="white" fill-opacity="0.85"/>
  <path d="M8.25586 4.76015C8.4748 4.76015 8.71074 4.66796 8.86503 4.49413L10.2564 3.00585L11.6051 1.37871L12.9537 3.00585L14.3451 4.49413C14.5012 4.66796 14.7291 4.76015 14.948 4.76015C15.3969 4.76015 15.7576 4.43378 15.7576 3.97714C15.7576 3.74394 15.6689 3.56836 15.5049 3.4043L12.2892 0.311131C12.0588 0.0824213 11.8471 0 11.6051 0C11.3728 0 11.1531 0.0824213 10.9209 0.311131L7.70703 3.4043C7.54297 3.56836 7.4543 3.74394 7.4543 3.97714C7.4543 4.43378 7.80703 4.76015 8.25586 4.76015ZM11.6051 13.2289C12.1006 13.2289 12.5129 12.8256 12.5129 12.3469L12.5129 3.83202L12.3473 1.03105C12.3207 0.622265 12.0156 0.290626 11.6051 0.290626C11.1963 0.290626 10.8912 0.622265 10.8646 1.03105L10.707 3.83202L10.707 12.3469C10.707 12.8256 11.1096 13.2289 11.6051 13.2289Z" fill="white" fill-opacity="0.85"/>
 </g>
</svg>
