<?xml version="1.0" encoding="UTF-8"?>
<!--Generator: Apple Native CoreSVG 341-->
<!DOCTYPE svg
PUBLIC "-//W3C//DTD SVG 1.1//EN"
       "http://www.w3.org/Graphics/SVG/1.1/DTD/svg11.dtd">
<svg version="1.1" xmlns="http://www.w3.org/2000/svg" xmlns:xlink="http://www.w3.org/1999/xlink" viewBox="0 0 20.5381 20.1848">
 <g>
  <rect height="20.1848" opacity="0" width="20.5381" x="0" y="0"/>
  <path d="M10.0875 20.175C15.6576 20.175 20.1767 15.6559 20.1767 10.0875C20.1767 4.51914 15.6576 0 10.0875 0C4.51914 0 0 4.51914 0 10.0875C0 15.6559 4.51914 20.175 10.0875 20.175ZM10.0875 18.1879C5.60839 18.1879 1.9871 14.5666 1.9871 10.0875C1.9871 5.60839 5.60839 1.9871 10.0875 1.9871C14.5666 1.9871 18.1897 5.60839 18.1897 10.0875C18.1897 14.5666 14.5666 18.1879 10.0875 18.1879Z" fill="white" fill-opacity="0.85"/>
  <path d="M6.00077 14.01L14.176 14.01C15.2021 14.01 15.7328 13.4811 15.7328 12.4674L15.7328 9.81543C15.7328 9.2959 15.6547 9.0707 15.4127 8.75762L13.7801 6.6039C13.1908 5.83593 12.8746 5.62929 12.0215 5.62929L8.15351 5.62929C7.30214 5.62929 6.97616 5.83593 6.39667 6.6039L4.76405 8.75762C4.52206 9.0707 4.44394 9.2959 4.44394 9.81543L4.44394 12.4674C4.44394 13.4811 4.98085 14.01 6.00077 14.01ZM5.88847 9.45976C5.72968 9.45976 5.70038 9.32051 5.77577 9.21582L7.44589 7.00078C7.6289 6.75019 7.81991 6.64804 8.13534 6.64804L12.0477 6.64804C12.3648 6.64804 12.5559 6.7582 12.7291 7.00078L14.409 9.21582C14.4844 9.3125 14.4471 9.45976 14.2883 9.45976L11.6217 9.45976C11.3625 9.45976 11.2453 9.65859 11.2453 9.86543L11.2453 9.98086C11.2453 10.6424 10.7934 11.058 10.0875 11.058C9.38164 11.058 8.94746 10.6424 8.94746 9.98086L8.94746 9.86543C8.94746 9.65859 8.81249 9.45976 8.55507 9.45976Z" fill="white" fill-opacity="0.85"/>
 </g>
</svg>
