<?xml version="1.0" encoding="UTF-8"?>
<!--Generator: Apple Native CoreSVG 341-->
<!DOCTYPE svg
PUBLIC "-//W3C//DTD SVG 1.1//EN"
       "http://www.w3.org/Graphics/SVG/1.1/DTD/svg11.dtd">
<svg version="1.1" xmlns="http://www.w3.org/2000/svg" xmlns:xlink="http://www.w3.org/1999/xlink" viewBox="0 0 23.5732 17.0551">
 <g>
  <rect height="17.0551" opacity="0" width="23.5732" x="0" y="0"/>
  <path d="M3.20351 17.0551L20.0066 17.0551C22.1242 17.0551 23.2119 15.9691 23.2119 13.8836L23.2119 8.11464C23.2119 7.05469 23.0842 6.5502 22.5621 5.92871L19.2264 1.85723C18.075 0.461523 17.4652 0.0177735 15.8096 0.0177735L7.40234 0.0177735C5.74492 0.0177735 5.1414 0.463281 3.98828 1.8625L0.648043 5.92871C0.135742 6.5502 0 7.05469 0 8.11464L0 13.8836C0 15.9771 1.0957 17.0551 3.20351 17.0551ZM2.38749 7.32305C2.06874 7.32305 2.00038 7.04336 2.16639 6.83828L5.71913 2.40683C6.15898 1.85409 6.65839 1.61523 7.32382 1.61523L15.8881 1.61523C16.5535 1.61523 17.0529 1.85409 17.491 2.40683L21.0518 6.83828C21.2098 7.04336 21.1512 7.32305 20.8307 7.32305L14.4996 7.32305C13.983 7.32305 13.7574 7.68105 13.7574 8.07363L13.7574 8.10117C13.7574 9.16368 12.9303 10.3016 11.6051 10.3016C10.2896 10.3016 9.46249 9.16368 9.46249 8.10117L9.46249 8.07363C9.46249 7.68105 9.22714 7.32305 8.7123 7.32305ZM3.28984 15.1418C2.38182 15.1418 1.88866 14.6734 1.88866 13.7246L1.88866 9.01073L7.80762 9.01073C8.1123 10.7613 9.6332 12.0562 11.6051 12.0562C13.5787 12.0562 15.0996 10.7533 15.4025 9.01073L21.3232 9.01073L21.3232 13.7246C21.3232 14.6734 20.8221 15.1418 19.9203 15.1418Z" fill="white" fill-opacity="0.85"/>
 </g>
</svg>
