<?xml version="1.0" encoding="UTF-8"?>
<!--Generator: Apple Native CoreSVG 341-->
<!DOCTYPE svg
PUBLIC "-//W3C//DTD SVG 1.1//EN"
       "http://www.w3.org/Graphics/SVG/1.1/DTD/svg11.dtd">
<svg version="1.1" xmlns="http://www.w3.org/2000/svg" xmlns:xlink="http://www.w3.org/1999/xlink" viewBox="0 0 25.8176 25.7734">
 <g>
  <rect height="25.7734" opacity="0" width="25.8176" x="0" y="0"/>
  <path d="M10.3465 20.36C11.0727 20.36 11.891 20.2473 12.7281 19.9525C13.5652 20.2473 14.3853 20.36 15.1098 20.36C17.1129 20.36 18.608 19.4719 19.1963 18.9846C20.0158 19.3807 20.7838 19.5609 21.4977 19.5609C23.8303 19.5609 25.4562 17.8826 25.4562 15.4834C25.4562 14.299 24.9785 13.0445 23.8889 11.9232C24.7459 10.9973 25.0967 9.89726 25.0967 8.83086C25.0967 6.48633 23.3174 4.30879 21.0705 3.9959C20.9033 1.73125 18.3742 0.135742 15.9719 0.135742C14.7494 0.135742 13.5918 0.511328 12.7281 1.37969C11.8644 0.511328 10.7148 0.135742 9.48613 0.135742C7.08203 0.135742 4.55293 1.73125 4.39551 3.9959C2.14063 4.30879 0.351562 6.48633 0.351562 8.83086C0.351562 9.89726 0.710352 10.9973 1.56738 11.9232C0.477735 13.0445 0 14.299 0 15.4834C0 17.8826 1.62597 19.5609 3.95859 19.5609C4.67422 19.5609 5.44218 19.3807 6.25996 18.9846C6.84023 19.4719 8.34336 20.36 10.3465 20.36ZM10.3465 18.7182C8.19413 18.7182 7.06484 17.5967 6.51894 16.9553C5.56484 17.6604 4.95507 17.8725 4.06054 17.8725C2.64472 17.8725 1.6955 16.899 1.6955 15.4342C1.6955 14.4623 2.06307 13.6605 3.33788 12.4994C3.69511 12.1865 3.64374 11.6697 3.36269 11.3789C2.29218 10.3352 2.02499 9.57168 2.02499 8.65058C2.02499 6.85722 3.41679 5.47694 5.51855 5.60058C5.94023 5.61659 6.06523 5.34628 6.0332 5.11816C5.79569 3.21132 7.38144 1.78456 9.60918 1.78456C10.9244 1.78456 11.8811 2.28632 12.7281 3.18495C13.5752 2.28632 14.5336 1.78456 15.8488 1.78456C18.0748 1.78456 19.6605 3.21132 19.423 5.11816C19.391 5.34628 19.516 5.61659 19.9377 5.60058C22.0332 5.47694 23.4232 6.85722 23.4232 8.65058C23.4232 9.57168 23.1658 10.3352 22.0953 11.3789C21.8125 11.6697 21.7611 12.1865 22.1201 12.4994C23.3932 13.6605 23.7607 14.4623 23.7607 15.4342C23.7607 16.899 22.8035 17.8725 21.3975 17.8725C20.5029 17.8725 19.8914 17.6604 18.9311 16.9553C18.3914 17.5967 17.2639 18.7182 15.1098 18.7182C14.3641 18.7182 13.706 18.5975 12.7281 18.1955C11.752 18.5975 11.0922 18.7182 10.3465 18.7182Z" fill="white" fill-opacity="0.85"/>
  <path d="M12.7281 25.7734C13.6867 25.7734 14.3178 25.4523 14.3178 24.9643C14.3178 24.3402 14.142 22.5553 14.142 21.2055C14.142 19.042 16.4285 14.8646 16.7643 14.3434L15.4295 13.4406C14.942 14.3312 14.3586 15.3365 13.5553 17.1119L13.5553 13.7885L11.9027 13.7885L11.9027 17.1217C11.0977 15.3463 10.5062 14.3215 10.0285 13.4406L8.70176 14.3434C9.02148 14.8646 11.316 19.042 11.316 21.2055C11.316 22.5553 11.1402 24.3402 11.1402 24.9643C11.1402 25.4523 11.7695 25.7734 12.7281 25.7734Z" fill="white" fill-opacity="0.85"/>
  <path d="M7.50195 15.5682C9.32988 15.5682 10.3826 14.7301 10.8406 13.5146C11.3742 13.8672 11.993 14.0492 12.7281 14.0492C13.4633 14.0492 14.082 13.8672 14.6174 13.5146C15.0754 14.7301 16.1264 15.5682 17.9543 15.5682C18.3021 15.5682 18.5977 15.2922 18.5977 14.9346C18.5977 14.585 18.3021 14.2912 17.9543 14.2912C16.3225 14.2699 15.6025 13.3625 15.5625 11.9777C15.5545 11.4684 14.8508 11.2695 14.5543 11.7053C14.1389 12.323 13.5547 12.6693 12.7281 12.6693C11.9016 12.6693 11.3174 12.323 10.9019 11.7053C10.6072 11.2695 9.90351 11.4684 9.89551 11.9777C9.85547 13.3625 9.13554 14.2699 7.50195 14.2912C7.1541 14.2912 6.86035 14.585 6.86035 14.9346C6.86035 15.2922 7.1541 15.5682 7.50195 15.5682Z" fill="white" fill-opacity="0.85"/>
 </g>
</svg>
