<?xml version="1.0" encoding="UTF-8"?>
<!--Generator: Apple Native CoreSVG 341-->
<!DOCTYPE svg
PUBLIC "-//W3C//DTD SVG 1.1//EN"
       "http://www.w3.org/Graphics/SVG/1.1/DTD/svg11.dtd">
<svg version="1.1" xmlns="http://www.w3.org/2000/svg" xmlns:xlink="http://www.w3.org/1999/xlink" viewBox="0 0 20.9623 18.7215">
 <g>
  <rect height="18.7215" opacity="0" width="20.9623" x="0" y="0"/>
  <path d="M0 15.9225C0 17.465 1.0914 18.7215 2.79726 18.7215L17.8055 18.7215C19.5096 18.7215 20.601 17.465 20.601 15.9225C20.601 15.4574 20.482 14.9809 20.2291 14.5434L12.7103 1.43691C12.1797 0.509567 11.2496 0.0205046 10.3062 0.0205046C9.35312 0.0205046 8.41777 0.513082 7.89062 1.43691L0.371875 14.5531C0.120703 14.9889 0 15.4574 0 15.9225ZM4.90468 10.3367L9.41835 2.44979C9.60859 2.11737 9.96406 1.96268 10.3062 1.96268C10.6467 1.96268 10.9826 2.11111 11.1746 2.45155L15.6723 10.3367Z" fill="white" fill-opacity="0.85"/>
 </g>
</svg>
