<?xml version="1.0" encoding="UTF-8"?>
<!--Generator: Apple Native CoreSVG 341-->
<!DOCTYPE svg
PUBLIC "-//W3C//DTD SVG 1.1//EN"
       "http://www.w3.org/Graphics/SVG/1.1/DTD/svg11.dtd">
<svg version="1.1" xmlns="http://www.w3.org/2000/svg" xmlns:xlink="http://www.w3.org/1999/xlink" viewBox="0 0 20.5381 20.2629">
 <g>
  <rect height="20.2629" opacity="0" width="20.5381" x="0" y="0"/>
  <path d="M20.1767 10.1754C20.1767 15.7357 15.6576 20.2629 10.0875 20.2629C4.52715 20.2629 0 15.7357 0 10.1754C0 4.60703 4.52715 0.0878906 10.0875 0.0878906C15.6576 0.0878906 20.1767 4.60703 20.1767 10.1754ZM8.74062 5.53906L5.00937 12.0293C4.3164 13.2449 4.88046 14.431 6.24433 14.431L13.9582 14.431C15.3158 14.431 15.8861 13.2449 15.1852 12.0293L11.4476 5.53105C10.784 4.39004 9.42656 4.358 8.74062 5.53906ZM10.25 6.74686L13.568 12.4996C13.6586 12.6506 13.6098 12.7883 13.417 12.7883L6.77752 12.7883C6.59451 12.7883 6.53768 12.6506 6.63631 12.4996L9.93652 6.74686C10.0146 6.59412 10.1701 6.60213 10.25 6.74686Z" fill="white" fill-opacity="0.85"/>
 </g>
</svg>
