<?xml version="1.0" encoding="UTF-8"?>
<!--Generator: Apple Native CoreSVG 341-->
<!DOCTYPE svg
PUBLIC "-//W3C//DTD SVG 1.1//EN"
       "http://www.w3.org/Graphics/SVG/1.1/DTD/svg11.dtd">
<svg version="1.1" xmlns="http://www.w3.org/2000/svg" xmlns:xlink="http://www.w3.org/1999/xlink" viewBox="0 0 20.5381 20.1848">
 <g>
  <rect height="20.1848" opacity="0" width="20.5381" x="0" y="0"/>
  <path d="M10.0875 20.175C15.6576 20.175 20.1767 15.6559 20.1767 10.0875C20.1767 4.51914 15.6576 0 10.0875 0C4.51914 0 0 4.51914 0 10.0875C0 15.6559 4.51914 20.175 10.0875 20.175ZM10.0875 18.1879C5.60839 18.1879 1.9871 14.5666 1.9871 10.0875C1.9871 5.60839 5.60839 1.9871 10.0875 1.9871C14.5666 1.9871 18.1897 5.60839 18.1897 10.0875C18.1897 14.5666 14.5666 18.1879 10.0875 18.1879Z" fill="white" fill-opacity="0.85"/>
  <path d="M5.19452 11.8758C4.52812 13.032 5.07187 14.1713 6.37636 14.1713L13.8119 14.1713C15.1066 14.1713 15.6602 13.032 14.984 11.8758L11.3848 5.61952C10.7494 4.5121 9.44511 4.48808 8.78574 5.62753ZM6.74276 12.3283L9.93027 6.76814C10.0066 6.62693 10.1621 6.63494 10.2385 6.76814L13.4438 12.3283C13.5281 12.4678 13.4856 12.6135 13.2963 12.6135L6.88221 12.6135C6.70096 12.6135 6.65213 12.4678 6.74276 12.3283Z" fill="white" fill-opacity="0.85"/>
 </g>
</svg>
