<?xml version="1.0" encoding="UTF-8"?>
<!--Generator: Apple Native CoreSVG 341-->
<!DOCTYPE svg
PUBLIC "-//W3C//DTD SVG 1.1//EN"
       "http://www.w3.org/Graphics/SVG/1.1/DTD/svg11.dtd">
<svg version="1.1" xmlns="http://www.w3.org/2000/svg" xmlns:xlink="http://www.w3.org/1999/xlink" viewBox="0 0 33.3103 25.6825">
 <g>
  <rect height="25.6825" opacity="0" width="33.3103" x="0" y="0"/>
  <path d="M3.12917 25.2059C3.40397 25.6588 3.97564 25.8121 4.41529 25.5649L31.7958 9.768C32.2354 9.51273 32.3967 8.95082 32.1495 8.50766C31.8729 8.04672 31.2932 7.8934 30.8633 8.14067L3.47487 23.9455C3.04323 24.1946 2.88014 24.7627 3.12917 25.2059Z" fill="white" fill-opacity="0.85"/>
  <path d="M4.38678 19.9735L5.18288 19.5123C4.99831 19.3198 4.83151 19.1184 4.69753 18.8735C3.82429 17.3622 4.34518 15.4329 5.85475 14.5596C7.36608 13.6881 9.29713 14.2055 10.1686 15.7168C10.3044 15.9538 10.4073 16.2039 10.4774 16.4506L19.6036 11.1873C19.4173 10.9948 19.2522 10.7952 19.1165 10.5565C18.245 9.04692 18.7641 7.10786 20.2755 6.23462C21.785 5.36313 23.7161 5.88051 24.5893 7.39184C24.7233 7.62875 24.8182 7.87895 24.8901 8.13364L26.9614 6.93774C28.1016 6.2811 28.3961 5.16137 27.7165 3.98657L26.1268 1.22798C25.4419 0.0426315 24.295-0.25561 23.1028 0.427395L17.6434 3.57798L16.7944 2.4311C15.8165 1.11509 14.5938 0.853371 13.1749 1.67153L10.4428 3.24575C8.13562 4.5813 7.00085 5.68325 6.00319 7.55962L4.25222 10.8743L1.94987 12.6991C-0.022001 14.2647-0.486843 15.7959 0.503389 17.4987L1.44714 19.1518C2.13561 20.3389 3.23854 20.6319 4.38678 19.9735ZM8.53307 19.2045C9.59361 18.5895 9.95123 17.2575 9.33443 16.1952C8.7274 15.1426 7.38561 14.7868 6.33483 15.3938C5.28053 16.0026 4.92292 17.3426 5.53171 18.3952C6.13874 19.4477 7.48053 19.8116 8.53307 19.2045ZM22.9538 10.8795C24.0046 10.2725 24.3622 8.93246 23.7551 7.87817C23.1464 6.81762 21.8063 6.46176 20.7538 7.06879C19.7012 7.67758 19.3436 9.02563 19.9507 10.0702C20.5594 11.1307 21.8915 11.4866 22.9538 10.8795Z" fill="white" fill-opacity="0.85"/>
  <path d="M31.0981 25.0867C31.7204 25.0867 32.1917 24.791 32.4934 24.3408C32.7036 24.0471 32.8713 23.5899 32.8713 23.2332C32.8713 22.8883 32.6372 22.6674 32.2807 22.6674C31.9979 22.6674 31.7815 22.8688 31.7229 23.1746C31.6296 23.6946 31.4731 24.0196 31.0635 24.0196C30.5704 24.0196 30.2878 23.2983 30.2878 21.9061C30.2878 20.5059 30.6157 19.8039 31.0635 19.8039C31.4235 19.8039 31.6385 20.1569 31.7051 20.6373C31.761 21.0033 32.01 21.1801 32.3065 21.1801C32.6364 21.1801 32.8368 20.9442 32.8368 20.6045C32.8368 20.2131 32.6628 19.669 32.3096 19.2989C32.0069 18.9498 31.5622 18.7447 31.0538 18.7447C30.1549 18.7447 29.6198 19.3049 29.3393 19.9924C29.0799 20.5838 29.0133 21.2594 29.0133 21.9061C29.0133 22.6936 29.095 23.4297 29.4184 24.0496C29.7735 24.7442 30.3307 25.0867 31.0981 25.0867ZM20.5434 25.0344C20.9309 25.0344 21.1731 24.7887 21.1731 24.3914L21.1731 22.391L22.5663 22.391L22.5663 24.3914C22.5663 24.7905 22.7987 25.0344 23.1942 25.0344C23.5835 25.0344 23.8176 24.7887 23.8176 24.3914L23.8176 19.4401C23.8176 19.0561 23.5835 18.8069 23.1942 18.8069C22.8005 18.8069 22.5663 19.0561 22.5663 19.4401L22.5663 21.3604L21.1731 21.3604L21.1731 19.4401C21.1731 19.042 20.9186 18.8069 20.5434 18.8069C20.1587 18.8069 19.9235 19.0578 19.9235 19.4401L19.9235 24.3914C19.9235 24.7905 20.1604 25.0344 20.5434 25.0344ZM25.2132 25.0326L26.3305 25.0326C27.9487 25.0326 28.4866 23.51 28.4866 21.8883C28.4866 20.1643 27.8864 18.8069 26.3305 18.8069L25.2132 18.8069C24.8319 18.8069 24.5782 19.0233 24.5782 19.4543L24.5782 24.3764C24.5782 24.8092 24.8337 25.0326 25.2132 25.0326ZM25.81 23.994L25.81 19.842L26.1762 19.842C27.0444 19.842 27.2255 20.9086 27.2255 21.8963C27.2255 22.9026 27.0684 23.994 26.1762 23.994Z" fill="white" fill-opacity="0.85"/>
 </g>
</svg>
