<?xml version="1.0" encoding="UTF-8"?>
<!--Generator: Apple Native CoreSVG 341-->
<!DOCTYPE svg
PUBLIC "-//W3C//DTD SVG 1.1//EN"
       "http://www.w3.org/Graphics/SVG/1.1/DTD/svg11.dtd">
<svg version="1.1" xmlns="http://www.w3.org/2000/svg" xmlns:xlink="http://www.w3.org/1999/xlink" viewBox="0 0 40.234 29.1117">
 <g>
  <rect height="29.1117" opacity="0" width="40.234" x="0" y="0"/>
  <path d="M16.851 5.10909C16.3475 5.41424 15.896 5.71539 15.4883 6.02252C15.3768 5.08626 15.0196 4.23498 14.4796 3.53377L13.8289 4.1871C13.5627 4.44531 13.143 4.44531 12.8768 4.1871C12.6123 3.92441 12.6203 3.50117 12.8768 3.24472L13.5371 2.58435C12.8391 2.03927 11.9905 1.67752 11.0558 1.56343L11.0558 2.46288C11.0558 2.82577 10.7408 3.1328 10.3779 3.1328C10.0185 3.1328 9.71952 2.82577 9.71952 2.46288L9.71952 1.56056C8.77993 1.67227 7.92623 2.03392 7.22423 2.5808L7.8871 3.24472C8.1453 3.50117 8.1453 3.92441 7.8871 4.1871C7.62089 4.44531 7.19315 4.44531 6.93495 4.1871L6.27842 3.53162C5.61189 4.39802 5.22167 5.49151 5.22167 6.68945C5.22167 7.99687 5.71386 9.20039 6.42714 9.99766C6.58964 10.1689 6.65175 10.3375 6.65175 10.5193C6.65175 10.9281 6.31484 11.2713 5.89453 11.2713C5.66484 11.2713 5.44316 11.1453 5.28789 10.9697C4.31289 9.86543 3.70449 8.33027 3.70449 6.69121C3.70449 3.03144 6.72792 0 10.3779 0C13.486 0 16.1377 2.196 16.851 5.10909ZM0.551756 5.175L2.42402 6.40918C2.7 6.58047 2.68574 6.8748 2.43379 7.04609L0.53574 8.28027C0.296288 8.44355 0 8.3123 0 7.99824L0 5.46777C0.00625014 5.14394 0.302538 5.02246 0.551756 5.175ZM11.4625 6.78906C11.4705 7.41386 11.0197 7.91074 10.3709 7.92421C10.268 7.91621 10.0682 7.90117 9.90253 7.87109L6.69452 7.33847C6.46034 7.29062 6.34061 7.15136 6.33436 6.96875C6.3246 6.79941 6.43632 6.63613 6.65448 6.58027L9.79941 5.80488C9.97128 5.75879 10.1861 5.72148 10.3096 5.70371C10.9246 5.68769 11.4225 6.14824 11.4625 6.78906Z" fill="white" fill-opacity="0.85"/>
  <path d="M10.7336 27.9619C11.0084 28.4211 11.5801 28.5681 12.0197 28.3191L39.4082 12.524C39.8398 12.267 40.0029 11.7051 39.7539 11.2637C39.4773 10.8027 38.8976 10.6494 38.4678 10.8967L11.0793 26.7016C10.6476 26.9488 10.4863 27.5187 10.7336 27.9619Z" fill="white" fill-opacity="0.85"/>
  <path d="M11.993 22.7135L12.7891 22.2523C12.6027 22.058 12.4457 21.8584 12.3019 21.6215C11.4305 20.1021 11.9496 18.1791 13.4609 17.2996C14.9705 16.4281 16.9015 16.9437 17.773 18.4551C17.9168 18.7 18.0117 18.9502 18.0898 19.1906L27.208 13.9273C27.0234 13.7428 26.8566 13.5334 26.7227 13.2965C25.8494 11.7851 26.3685 9.84609 27.8799 8.98261C29.3894 8.10312 31.3223 8.61875 32.1937 10.1381C32.3277 10.375 32.4324 10.6172 32.5025 10.8736L34.5676 9.67597C35.714 9.01933 36.0006 7.89961 35.3226 6.72656L33.7312 3.96621C33.0463 2.78086 31.9012 2.48438 30.709 3.16563L25.2558 6.31797L24.4006 5.16934C23.4209 3.85332 22.1982 3.59336 20.7873 4.40977L18.0553 5.98399C15.74 7.31953 14.6053 8.42324 13.6156 10.2978L11.8584 13.6143L9.55429 15.4471C7.58418 17.0029 7.12734 18.5342 8.10781 20.2369L9.06132 21.89C9.74804 23.0771 10.8527 23.3701 11.993 22.7135ZM16.1375 21.9428C17.198 21.3277 17.5556 19.9957 16.9469 18.9432C16.3318 17.8809 14.9998 17.5268 13.9473 18.1338C12.8867 18.7408 12.5291 20.0809 13.1361 21.1334C13.7449 22.1957 15.0849 22.5498 16.1375 21.9428ZM30.5582 13.6178C31.6107 13.0107 31.9666 11.6707 31.3596 10.6182C30.7525 9.56386 29.4107 9.20175 28.36 9.80878C27.3137 10.4158 26.948 11.7639 27.5568 12.8182C28.1639 13.8707 29.5057 14.2266 30.5582 13.6178Z" fill="white" fill-opacity="0.85"/>
 </g>
</svg>
