<?xml version="1.0" encoding="UTF-8"?>
<!--Generator: Apple Native CoreSVG 341-->
<!DOCTYPE svg
PUBLIC "-//W3C//DTD SVG 1.1//EN"
       "http://www.w3.org/Graphics/SVG/1.1/DTD/svg11.dtd">
<svg version="1.1" xmlns="http://www.w3.org/2000/svg" xmlns:xlink="http://www.w3.org/1999/xlink" viewBox="0 0 40.234 29.1117">
 <g>
  <rect height="29.1117" opacity="0" width="40.234" x="0" y="0"/>
  <path d="M16.851 5.10909C16.3475 5.41424 15.896 5.71539 15.4883 6.02252C15.3768 5.08626 15.0196 4.23498 14.4796 3.53377L13.8289 4.1871C13.5627 4.44531 13.143 4.44531 12.8768 4.1871C12.6123 3.92441 12.6203 3.50117 12.8768 3.24472L13.5371 2.58435C12.8391 2.03927 11.9905 1.67752 11.0558 1.56343L11.0558 2.46288C11.0558 2.82577 10.7408 3.1328 10.3779 3.1328C10.0185 3.1328 9.71952 2.82577 9.71952 2.46288L9.71952 1.56056C8.77993 1.67227 7.92623 2.03392 7.22423 2.5808L7.8871 3.24472C8.1453 3.50117 8.1453 3.92441 7.8871 4.1871C7.62089 4.44531 7.19315 4.44531 6.93495 4.1871L6.27842 3.53162C5.61189 4.39802 5.22167 5.49151 5.22167 6.68945C5.22167 7.99687 5.71386 9.20039 6.42714 9.99766C6.58964 10.1689 6.65175 10.3375 6.65175 10.5193C6.65175 10.9281 6.31484 11.2713 5.89453 11.2713C5.66484 11.2713 5.44316 11.1453 5.28789 10.9697C4.31289 9.86543 3.70449 8.33027 3.70449 6.69121C3.70449 3.03144 6.72792 0 10.3779 0C13.486 0 16.1377 2.196 16.851 5.10909ZM0.551756 5.175L2.42402 6.40918C2.7 6.58047 2.68574 6.8748 2.43379 7.04609L0.53574 8.28027C0.296288 8.44355 0 8.3123 0 7.99824L0 5.46777C0.00625014 5.14394 0.302538 5.02246 0.551756 5.175ZM11.4625 6.78906C11.4705 7.41386 11.0197 7.91074 10.3709 7.92421C10.268 7.91621 10.0682 7.90117 9.90253 7.87109L6.69452 7.33847C6.46034 7.29062 6.34061 7.15136 6.33436 6.96875C6.3246 6.79941 6.43632 6.63613 6.65448 6.58027L9.79941 5.80488C9.97128 5.75879 10.1861 5.72148 10.3096 5.70371C10.9246 5.68769 11.4225 6.14824 11.4625 6.78906Z" fill="white" fill-opacity="0.85"/>
  <path d="M10.7336 27.9619C11.0084 28.4211 11.5801 28.5681 12.0197 28.3191L39.4082 12.524C39.8398 12.267 40.0029 11.7051 39.7539 11.2637C39.4773 10.8027 38.8976 10.6494 38.4678 10.8967L11.0793 26.7016C10.6476 26.9488 10.4863 27.5187 10.7336 27.9619Z" fill="white" fill-opacity="0.85"/>
  <path d="M11.9271 22.6139L13.8967 21.4738L13.1424 20.1629L11.2965 21.2287C10.8834 21.4668 10.4721 21.3229 10.1922 20.8457L9.41874 19.4986C8.86463 18.5449 9.17108 17.6949 10.4699 16.6685L13.0328 14.6381L14.9611 11.0318C15.8223 9.40898 16.7631 8.49569 18.8113 7.31093L21.5094 5.75195C22.1644 5.37773 22.7146 5.4871 23.16 6.09062L24.6553 8.1246L31.2818 4.29335C31.6932 4.05527 32.1062 4.18945 32.3844 4.66835L33.8432 7.19707C34.115 7.67597 34.0369 8.10332 33.6158 8.34316L30.8947 9.91367L31.6508 11.2228L34.5017 9.57812C35.642 8.92148 35.9365 7.80175 35.2568 6.62695L33.6014 3.75449C32.9146 2.56914 31.7695 2.2709 30.5773 2.95391L25.0922 6.12051L24.4006 5.18711C23.4209 3.86934 22.1982 3.60938 20.7873 4.42578L18.0553 6C15.74 7.3373 14.6053 8.43926 13.6156 10.3139L11.8584 13.6303L9.55429 15.4631C7.58418 17.0189 7.12734 18.5502 8.10781 20.2529L8.9955 21.7922C9.68222 22.9793 10.7869 23.2723 11.9271 22.6139ZM16.8846 19.7484L28.2853 13.1648L27.531 11.8539L16.1285 18.4375ZM16.2637 22.1738C17.6242 21.3955 18.0812 19.6978 17.2949 18.3471C16.5068 16.983 14.8172 16.534 13.4566 17.3123C12.1041 18.0986 11.6471 19.7883 12.4351 21.1506C13.2197 22.5031 14.9094 22.9601 16.2637 22.1738ZM15.534 20.9086C14.8863 21.2906 14.0832 21.0721 13.7092 20.4244C13.3351 19.7687 13.5457 18.9736 14.2014 18.5916C14.849 18.2176 15.6521 18.4281 16.0262 19.0838C16.4002 19.7314 16.1896 20.5346 15.534 20.9086ZM30.6826 13.8488C32.0432 13.0705 32.4922 11.3826 31.7139 10.0221C30.9275 8.65801 29.2379 8.20898 27.8773 8.9873C26.515 9.77363 26.0678 11.4633 26.8541 12.8273C27.6324 14.1861 29.3221 14.6351 30.6826 13.8488ZM29.9547 12.5836C29.299 12.9656 28.5039 12.7471 28.1299 12.0994C27.7478 11.4437 27.9664 10.6486 28.6141 10.2666C29.268 9.89257 30.0648 10.1111 30.4469 10.7588C30.8209 11.4144 30.6006 12.2096 29.9547 12.5836Z" fill="white" fill-opacity="0.85"/>
 </g>
</svg>
