<?xml version="1.0" encoding="UTF-8"?>
<!--Generator: Apple Native CoreSVG 341-->
<!DOCTYPE svg
PUBLIC "-//W3C//DTD SVG 1.1//EN"
       "http://www.w3.org/Graphics/SVG/1.1/DTD/svg11.dtd">
<svg version="1.1" xmlns="http://www.w3.org/2000/svg" xmlns:xlink="http://www.w3.org/1999/xlink" viewBox="0 0 33.3103 26.008">
 <g>
  <rect height="26.008" opacity="0" width="33.3103" x="0" y="0"/>
  <path d="M3.12917 25.3686C3.40397 25.8215 3.97564 25.9749 4.41529 25.7276L31.7958 9.93073C32.2354 9.67546 32.3967 9.11355 32.1495 8.67039C31.8729 8.20945 31.2932 8.05613 30.8633 8.3034L3.47487 24.1083C3.04323 24.3573 2.88014 24.9255 3.12917 25.3686Z" fill="white" fill-opacity="0.85"/>
  <path d="M4.32272 20.0143L6.29224 18.8805L5.53795 17.5696L3.69206 18.6354C3.27897 18.8735 2.86764 18.7313 2.58776 18.2524L1.81256 16.9054C1.26022 15.9436 1.55865 15.1034 2.86549 14.069L5.42662 12.0448L7.34693 8.43054C8.21783 6.8157 9.15866 5.89617 11.2051 4.71941L13.8952 3.16043C14.5583 2.78445 15.1085 2.89382 15.5555 3.49734L17.0428 5.52332L23.6756 1.70183C24.0887 1.46375 24.5018 1.59793 24.7799 2.07508L26.2387 4.60555C26.5089 5.0827 26.4245 5.50379 26.0114 5.74989L23.2823 7.32039L24.0366 8.63132L26.8956 6.9866C28.0358 6.3282 28.3223 5.20848 27.6506 4.03543L25.9872 1.16122C25.3102-0.0241334 24.1571-0.322375 22.9729 0.36063L17.4878 3.52723L16.7944 2.59383C15.8165 1.27782 14.5938 1.0161 13.1749 1.83426L10.4428 3.40848C8.13562 4.74403 7.00085 5.84598 6.00319 7.72235L4.25222 11.037L1.94987 12.8618C-0.022001 14.4274-0.486843 15.9587 0.503389 17.6614L1.38132 19.1909C2.06979 20.386 3.17448 20.679 4.32272 20.0143ZM9.27839 17.1569L20.6809 10.5716L19.9169 9.26063L8.52409 15.846ZM8.65748 19.5805C10.018 18.796 10.4671 17.1063 9.69049 15.7538C8.9024 14.3915 7.21276 13.9345 5.85221 14.719C4.49167 15.5071 4.04265 17.195 4.82897 18.5591C5.60729 19.9116 7.30495 20.3686 8.65748 19.5805ZM7.92956 18.3153C7.2819 18.6893 6.47877 18.4788 6.10475 17.8231C5.72271 17.1755 5.94127 16.3723 6.58893 15.9983C7.24284 15.626 8.03971 15.8348 8.42175 16.4905C8.79577 17.1382 8.57546 17.943 7.92956 18.3153ZM23.0782 11.2555C24.4307 10.479 24.8878 8.78133 24.1014 7.42879C23.3214 6.06649 21.6255 5.61746 20.2729 6.39402C18.9106 7.18211 18.4616 8.87 19.2417 10.2341C20.028 11.5866 21.7159 12.0436 23.0782 11.2555ZM22.3503 9.99031C21.6928 10.3723 20.8915 10.1538 20.5174 9.50613C20.1434 8.85047 20.354 8.05535 21.0096 7.67331C21.6555 7.30105 22.4604 7.50984 22.8344 8.1655C23.2165 8.81492 22.9962 9.61805 22.3503 9.99031Z" fill="white" fill-opacity="0.85"/>
  <path d="M31.0981 25.2495C31.7204 25.2495 32.1917 24.9538 32.4934 24.5036C32.7036 24.2098 32.8713 23.7526 32.8713 23.396C32.8713 23.051 32.6372 22.8301 32.2807 22.8301C31.9979 22.8301 31.7815 23.0315 31.7229 23.3374C31.6296 23.8573 31.4731 24.1823 31.0635 24.1823C30.5704 24.1823 30.2878 23.461 30.2878 22.0688C30.2878 20.6686 30.6157 19.9667 31.0635 19.9667C31.4235 19.9667 31.6385 20.3196 31.7051 20.8001C31.761 21.1661 32.01 21.3428 32.3065 21.3428C32.6364 21.3428 32.8368 21.1069 32.8368 20.7672C32.8368 20.3758 32.6628 19.8317 32.3096 19.4616C32.0069 19.1126 31.5622 18.9075 31.0538 18.9075C30.1549 18.9075 29.6198 19.4676 29.3393 20.1551C29.0799 20.7465 29.0133 21.4221 29.0133 22.0688C29.0133 22.8563 29.095 23.5924 29.4184 24.2124C29.7735 24.9069 30.3307 25.2495 31.0981 25.2495ZM20.5434 25.1971C20.9309 25.1971 21.1731 24.9514 21.1731 24.5542L21.1731 22.5538L22.5663 22.5538L22.5663 24.5542C22.5663 24.9532 22.7987 25.1971 23.1942 25.1971C23.5835 25.1971 23.8176 24.9514 23.8176 24.5542L23.8176 19.6028C23.8176 19.2188 23.5835 18.9696 23.1942 18.9696C22.8005 18.9696 22.5663 19.2188 22.5663 19.6028L22.5663 21.5231L21.1731 21.5231L21.1731 19.6028C21.1731 19.2047 20.9186 18.9696 20.5434 18.9696C20.1587 18.9696 19.9235 19.2206 19.9235 19.6028L19.9235 24.5542C19.9235 24.9532 20.1604 25.1971 20.5434 25.1971ZM25.2132 25.1954L26.3305 25.1954C27.9487 25.1954 28.4866 23.6727 28.4866 22.051C28.4866 20.327 27.8864 18.9696 26.3305 18.9696L25.2132 18.9696C24.8319 18.9696 24.5782 19.186 24.5782 19.617L24.5782 24.5391C24.5782 24.9719 24.8337 25.1954 25.2132 25.1954ZM25.81 24.1567L25.81 20.0047L26.1762 20.0047C27.0444 20.0047 27.2255 21.0713 27.2255 22.059C27.2255 23.0653 27.0684 24.1567 26.1762 24.1567Z" fill="white" fill-opacity="0.85"/>
 </g>
</svg>
