<?xml version="1.0" encoding="UTF-8"?>
<!--Generator: Apple Native CoreSVG 341-->
<!DOCTYPE svg
PUBLIC "-//W3C//DTD SVG 1.1//EN"
       "http://www.w3.org/Graphics/SVG/1.1/DTD/svg11.dtd">
<svg version="1.1" xmlns="http://www.w3.org/2000/svg" xmlns:xlink="http://www.w3.org/1999/xlink" viewBox="0 0 38.1449 18.2394">
 <g>
  <rect height="18.2394" opacity="0" width="38.1449" x="0" y="0"/>
  <path d="M26.9744 4.07675L27.1388 5.50079L35.0219 5.50079C36.7363 5.50079 37.7836 6.53691 37.7836 8.25L37.7836 12.3816C37.7836 14.0789 36.7802 15.1027 35.1308 15.1027L31.6078 15.1027C31.111 16.4182 29.8501 17.3328 28.3439 17.3328C26.8364 17.3328 25.5752 16.4182 25.0783 15.1027L10.8764 15.1027C10.3791 16.4182 9.11753 17.3328 7.61268 17.3328C6.10513 17.3328 4.84395 16.4182 4.34703 15.1027L2.66249 15.1027C1.01308 15.1027 0 14.1 0 12.3816L0 10.1732C0 7.72012 1.45742 6.34512 4.55878 5.89414L6.92739 5.54302L8.24348 7.2704L4.80253 7.77831C2.75096 8.08202 1.89745 8.79784 1.89745 10.1732L1.89745 12.116C1.89745 12.8037 2.24921 13.207 2.84882 13.207L4.17026 13.207C4.45657 11.5553 5.87003 10.3332 7.61268 10.3332C9.35221 10.3332 10.7667 11.5553 11.0533 13.207L24.9015 13.207C25.1878 11.5553 26.6013 10.3332 28.3439 10.3332C30.085 10.3332 31.4983 11.5553 31.7846 13.207L34.948 13.207C35.5379 13.207 35.8914 12.8037 35.8914 12.116L35.8914 8.48398C35.8914 7.80253 35.5379 7.39296 34.948 7.39296L25.4045 7.39296L25.0629 4.27578C24.9562 3.35409 24.4283 2.88651 23.4906 2.88651L19.6103 2.88651C16.6687 2.88651 15.0892 3.28808 13.1461 4.49355L11.8175 5.32039L10.6573 3.80236L12.134 2.87793C14.3705 1.46856 16.2865 0.989066 19.6103 0.989066L23.5416 0.989066C25.5762 0.989066 26.7375 2.0377 26.9744 4.07675ZM5.95233 13.8435C5.95233 14.7781 6.67635 15.5039 7.61268 15.5039C8.5455 15.5039 9.27304 14.7781 9.27304 13.8435C9.27304 12.9072 8.5455 12.1832 7.61268 12.1832C6.67635 12.1832 5.95233 12.9072 5.95233 13.8435ZM26.6836 13.8435C26.6836 14.7781 27.4094 15.5039 28.3439 15.5039C29.2767 15.5039 30.0043 14.7781 30.0043 13.8435C30.0043 12.9072 29.2767 12.1832 28.3439 12.1832C27.4094 12.1832 26.6836 12.9072 26.6836 13.8435Z" fill="white" fill-opacity="0.85"/>
  <path d="M2.62753 2.8291L5.01581 2.8291C6.10331 2.8291 6.50819 3.01113 7.05682 3.72753L9.66796 7.17324C10.5183 8.29082 11.4717 8.77636 12.8582 8.77636L15.0127 8.77636L15.0127 9.59336C15.0127 10.2998 15.6357 10.5102 16.1594 10.1676L18.6238 8.58378C19.1066 8.27226 19.1164 7.66699 18.6158 7.3457L16.1691 5.76992C15.6357 5.41933 15.0127 5.62968 15.0127 6.34589L15.0127 7.14961L12.8582 7.14961C11.9349 7.14961 11.5691 6.9498 10.9637 6.16679L8.33124 2.73535C7.49862 1.63906 6.51776 1.2041 5.01581 1.2041L2.62753 1.2041C2.18378 1.2041 1.81991 1.56797 1.81991 2.01172C1.81991 2.45722 2.18378 2.8291 2.62753 2.8291Z" fill="white" fill-opacity="0.85"/>
 </g>
</svg>
