<?xml version="1.0" encoding="UTF-8"?>
<!--Generator: Apple Native CoreSVG 341-->
<!DOCTYPE svg
PUBLIC "-//W3C//DTD SVG 1.1//EN"
       "http://www.w3.org/Graphics/SVG/1.1/DTD/svg11.dtd">
<svg version="1.1" xmlns="http://www.w3.org/2000/svg" xmlns:xlink="http://www.w3.org/1999/xlink" viewBox="0 0 35.5043 26.675">
 <g>
  <rect height="26.675" opacity="0" width="35.5043" x="0" y="0"/>
  <path d="M2.47441 19.4785L4.8164 19.4785L4.8164 17.5713L2.64394 17.5713C2.15702 17.5713 1.90546 17.2859 1.90546 16.6931L1.90546 14.8933C1.90546 13.6732 2.61972 13.0691 4.49022 12.801L8.25663 12.2531L12.3019 9.72751C14.0853 8.62322 15.5166 8.24919 18.2328 8.24919L21.8476 8.24919C22.6699 8.24919 23.0719 8.60759 23.1652 9.41658L23.5068 12.4449L32.5008 12.4449C32.9877 12.4449 33.249 12.7302 33.249 13.323L33.249 16.6931C33.249 17.2877 32.9894 17.5713 32.5008 17.5713L28.4556 17.5713L28.4556 19.4785L32.6685 19.4785C34.2035 19.4785 35.1429 18.5248 35.1429 16.9455L35.1429 13.1041C35.1429 11.5152 34.1631 10.5447 32.5666 10.5447L25.2332 10.5447L25.0847 9.2158C24.8638 7.31874 23.7912 6.35175 21.8924 6.35175L18.2328 6.35175C15.1459 6.35175 13.3746 6.79569 11.2801 8.10565L7.60077 10.4185L4.24647 10.9168C1.36074 11.3482 0 12.615 0 14.8933L0 16.9455C0 18.5459 0.93945 19.4785 2.47441 19.4785ZM7.07753 21.5506C8.89764 21.5506 10.3387 20.1211 10.3387 18.2974C10.3387 16.472 8.89764 15.0408 7.07753 15.0408C5.26015 15.0408 3.83066 16.472 3.83066 18.2974C3.83066 20.1211 5.26015 21.5506 7.07753 21.5506ZM7.07753 19.7488C6.25409 19.7488 5.63319 19.1279 5.63319 18.3062C5.63319 17.4748 6.25409 16.8539 7.07753 16.8539C7.9037 16.8539 8.52812 17.4748 8.52812 18.3062C8.52812 19.1279 7.9037 19.7488 7.07753 19.7488ZM9.32225 19.4785L24.1377 19.4785L24.1377 17.5713L9.32225 17.5713ZM26.3644 21.5506C28.1783 21.5506 29.6078 20.1211 29.6078 18.2974C29.6078 16.472 28.1783 15.0408 26.3644 15.0408C24.5471 15.0408 23.1016 16.472 23.1016 18.2974C23.1016 20.1211 24.5471 21.5506 26.3644 21.5506ZM26.3644 19.7488C25.5347 19.7488 24.9121 19.1279 24.9121 18.3062C24.9121 17.4748 25.5347 16.8539 26.3644 16.8539C27.1826 16.8539 27.8088 17.4748 27.8088 18.3062C27.8088 19.1279 27.1826 19.7488 26.3644 19.7488Z" fill="white" fill-opacity="0.85"/>
  <path d="M14.8766 4.81835L23.3801 4.81835C24.2492 4.81835 24.6894 4.28769 24.6894 3.38593L24.6894 2.29296C24.6894 0.759569 23.9492 0 22.2734 0L21.2142 0C19.5609 0 18.5916 0.228906 16.6543 1.28594L14.5338 2.52402C13.873 2.88769 13.6361 3.23008 13.6361 3.72382C13.6361 4.4123 14.0252 4.81835 14.8766 4.81835Z" fill="white" fill-opacity="0.85"/>
 </g>
</svg>
