<?xml version="1.0" encoding="UTF-8"?>
<!--Generator: Apple Native CoreSVG 341-->
<!DOCTYPE svg
PUBLIC "-//W3C//DTD SVG 1.1//EN"
       "http://www.w3.org/Graphics/SVG/1.1/DTD/svg11.dtd">
<svg version="1.1" xmlns="http://www.w3.org/2000/svg" xmlns:xlink="http://www.w3.org/1999/xlink" viewBox="0 0 34.4609 26.1819">
 <g>
  <rect height="26.1819" opacity="0" width="34.4609" x="0" y="0"/>
  <path d="M6.64666 8.22513L7.44276 8.67826C7.51288 8.42982 7.6078 8.18139 7.74354 7.94447C8.61502 6.43315 10.5461 5.91576 12.0574 6.78901C13.575 7.65873 14.0861 9.58978 13.2146 11.1011C13.0806 11.346 12.9138 11.5554 12.7373 11.74L21.8537 17.0033C21.9256 16.7548 22.0285 16.5064 22.1625 16.2695C23.0357 14.7662 24.9748 14.2408 26.4781 15.1122C27.9877 15.9837 28.5068 17.9148 27.6336 19.4261C27.4996 19.663 27.3345 19.8724 27.1482 20.057L29.2213 21.2546C30.3615 21.9113 31.4732 21.6042 32.1529 20.4312L33.7426 17.6788C34.4275 16.4872 34.1181 15.3509 32.926 14.6599L27.4648 11.5093L28.0302 10.1997C28.6914 8.68939 28.301 7.4978 26.89 6.68139L24.158 5.10717C21.8428 3.77163 20.3244 3.3437 18.2004 3.41557L14.4515 3.55854L11.7211 2.47983C9.37986 1.54721 7.82557 1.91987 6.84334 3.6226L5.89159 5.26596C5.20311 6.45482 5.49842 7.56049 6.64666 8.22513ZM9.37908 11.4322C10.4396 12.0392 11.7734 11.6833 12.3885 10.6228C12.9955 9.57025 12.6299 8.22846 11.5791 7.62143C10.5265 7.0144 9.18475 7.37025 8.57772 8.42279C7.96893 9.48334 8.32655 10.8171 9.37908 11.4322ZM23.7998 19.7492C24.8523 20.3642 26.1924 20.0003 26.8012 18.9478C27.4082 17.8953 27.0506 16.5535 25.998 15.9464C24.9455 15.3394 23.5974 15.7033 22.9967 16.7478C22.3896 17.8003 22.7473 19.1421 23.7998 19.7492Z" fill="white" fill-opacity="0.85"/>
  <path d="M0.127921 8.95345C-0.135358 9.41614 0.0242112 9.98782 0.455849 10.2413L27.8363 26.0622C28.2599 26.3077 28.8396 26.1659 29.0967 25.7245C29.3599 25.2618 29.2004 24.6902 28.7687 24.4349L1.38826 8.61576C0.964635 8.36849 0.376943 8.5183 0.127921 8.95345Z" fill="white" fill-opacity="0.85"/>
  <path d="M3.43046 4.9185L5.51737 1.31635C5.88729 0.679439 5.36484 0.102879 4.71015 0.23237L1.54101 0.829635C1.07968 0.918307 0.868551 1.27846 1.03183 1.72827L2.09101 4.76596C2.31015 5.40287 3.05878 5.56342 3.43046 4.9185Z" fill="white" fill-opacity="0.85"/>
 </g>
</svg>
