<?xml version="1.0" encoding="UTF-8"?>
<!--Generator: Apple Native CoreSVG 341-->
<!DOCTYPE svg
PUBLIC "-//W3C//DTD SVG 1.1//EN"
       "http://www.w3.org/Graphics/SVG/1.1/DTD/svg11.dtd">
<svg version="1.1" xmlns="http://www.w3.org/2000/svg" xmlns:xlink="http://www.w3.org/1999/xlink" viewBox="0 0 38.1449 16.2613">
 <g>
  <rect height="16.2613" opacity="0" width="38.1449" x="0" y="0"/>
  <path d="M12.9676 7.86991C11.581 7.86991 10.6277 7.38436 9.77733 6.26679L7.17421 2.82108C6.61757 2.10292 6.21268 1.92264 5.12518 1.92264L2.7369 1.92264C2.29315 1.92264 1.92929 1.54901 1.92929 1.10526C1.92929 0.661513 2.29315 0.295889 2.7369 0.295889L5.12518 0.295889C6.62714 0.295889 7.608 0.73085 8.44061 1.8289L11.073 5.26034C11.6785 6.04335 12.0443 6.24315 12.9676 6.24315L15.2342 6.24315L15.2342 5.43944C15.2342 4.72323 15.8572 4.51112 16.3906 4.86347L18.8373 6.43749C19.3379 6.75878 19.3281 7.36581 18.8453 7.67733L16.3808 9.26112C15.8572 9.6037 15.2342 9.39159 15.2342 8.68515L15.2342 7.86991ZM2.66249 14.2773L3.79882 14.2773C3.72343 13.957 3.67109 13.6377 3.67109 13.2943C3.67109 11.1123 5.43867 9.35624 7.61268 9.35624C9.7912 9.35624 11.5508 11.1123 11.5508 13.2943C11.5508 13.6377 11.5082 13.965 11.431 14.2773L24.5318 14.2773C24.4467 13.957 24.4041 13.6377 24.4041 13.2943C24.4041 11.1221 26.1717 9.35624 28.3439 9.35624C30.5242 9.35624 32.282 11.1123 32.282 13.2943C32.282 13.6377 32.2394 13.957 32.156 14.2773L35.1308 14.2773C36.7802 14.2773 37.7836 13.2535 37.7836 11.558L37.7836 7.58828C37.7836 5.87695 36.7363 4.83907 35.0219 4.83907L27.1789 4.83907L26.9744 3.08769C26.7375 1.04863 25.5762 0 23.5416 0L19.6103 0C16.2865 0 14.3705 0.479493 12.134 1.88887L8.17147 4.36953L4.55878 4.90508C1.45742 5.35605 0 6.73105 0 9.18417L0 11.558C0 13.2746 1.01308 14.2773 2.66249 14.2773ZM7.61268 16.0301C9.14081 16.0301 10.3564 14.818 10.3564 13.2943C10.3564 11.7724 9.1328 10.5506 7.61268 10.5506C6.09706 10.5506 4.87343 11.7724 4.87343 13.2943C4.87343 14.8099 6.09706 16.0301 7.61268 16.0301ZM28.3439 16.0301C29.8658 16.0301 31.0877 14.8099 31.0877 13.2943C31.0877 11.7724 29.8658 10.5506 28.3439 10.5506C26.8301 10.5506 25.5984 11.7805 25.5984 13.2943C25.5984 14.8099 26.8221 16.0301 28.3439 16.0301Z" fill="white" fill-opacity="0.85"/>
 </g>
</svg>
