<?xml version="1.0" encoding="UTF-8"?>
<!--Generator: Apple Native CoreSVG 341-->
<!DOCTYPE svg
PUBLIC "-//W3C//DTD SVG 1.1//EN"
       "http://www.w3.org/Graphics/SVG/1.1/DTD/svg11.dtd">
<svg version="1.1" xmlns="http://www.w3.org/2000/svg" xmlns:xlink="http://www.w3.org/1999/xlink" viewBox="0 0 18.3094 18.3039">
 <g>
  <rect height="18.3039" opacity="0" width="18.3094" x="0" y="0"/>
  <path d="M17.948 16.092L17.948 0.378902C16.3871 0.683394 15.0814 1.25234 13.6527 2.14863L9.19393 4.94804L5.12753 5.54843C1.63925 6.06601 0 7.60331 0 10.3607L0 13.0275C0 14.9633 1.13105 16.092 2.99433 16.092L4.27636 16.092C4.1832 15.7371 4.12109 15.3689 4.12109 14.9812C4.12109 12.533 6.11581 10.5515 8.57206 10.5515C11.0088 10.5515 12.9937 12.533 12.9937 14.9812C12.9937 15.3689 12.9414 15.7451 12.8642 16.092ZM8.57206 18.1787C10.3426 18.1787 11.7615 16.765 11.7615 14.9812C11.7615 13.2107 10.3346 11.7758 8.57206 11.7758C6.78202 11.7758 5.36308 13.2107 5.36308 14.9812C5.36308 16.7552 6.78202 18.1787 8.57206 18.1787ZM1.24414 1.65761L4.50625 1.65761C4.90546 1.65761 5.17988 1.75604 5.41855 2.00272L9.36211 5.94003L10.9187 5.08105L6.68417 0.846483C6.08437 0.250195 5.37733 0 4.38769 0L1.24414 0C0.722852 0 0.393167 0.329685 0.393167 0.819917C0.393167 1.30839 0.721095 1.65761 1.24414 1.65761Z" fill="white" fill-opacity="0.85"/>
 </g>
</svg>
