<?xml version="1.0" encoding="UTF-8"?>
<!--Generator: Apple Native CoreSVG 341-->
<!DOCTYPE svg
PUBLIC "-//W3C//DTD SVG 1.1//EN"
       "http://www.w3.org/Graphics/SVG/1.1/DTD/svg11.dtd">
<svg version="1.1" xmlns="http://www.w3.org/2000/svg" xmlns:xlink="http://www.w3.org/1999/xlink" viewBox="0 0 38.1449 16.4613">
 <g>
  <rect height="16.4613" opacity="0" width="38.1449" x="0" y="0"/>
  <path d="M0.850971 1.65761L3.54628 1.65761C3.93749 1.65761 4.21191 1.75429 4.45859 2.00272L7.93066 5.46679L9.48553 4.60781L5.72421 0.846483C5.1244 0.250195 4.41737 0 3.42773 0L0.850971 0C0.329685 0 0 0.329685 0 0.819917C0 1.30839 0.327927 1.65761 0.850971 1.65761ZM2.66249 14.2136L5.50291 14.2136L5.50291 12.318L2.84882 12.318C2.24921 12.318 1.89745 11.9146 1.89745 11.2269L1.89745 9.28416C1.89745 7.90877 2.75096 7.19295 4.80253 6.88924L8.82108 6.29608L13.1461 3.60447C15.0892 2.39901 16.6687 1.99744 19.6103 1.99744L23.4906 1.99744C24.4283 1.99744 24.9562 2.46502 25.0629 3.38671L25.4045 6.50389L34.948 6.50389C35.5379 6.50389 35.8914 6.91346 35.8914 7.59491L35.8914 11.2269C35.8914 11.9146 35.5379 12.318 34.948 12.318L31.0234 12.318L31.0234 14.2136L35.1308 14.2136C36.7802 14.2136 37.7836 13.1898 37.7836 11.4926L37.7836 7.36092C37.7836 5.64784 36.7363 4.61171 35.0219 4.61171L27.1388 4.61171L26.9744 3.18768C26.7375 1.14863 25.5762 0.0999951 23.5416 0.0999951L19.6103 0.0999951C16.2865 0.0999951 14.3705 0.579488 12.134 1.98886L8.17147 4.46953L4.55878 5.00507C1.45742 5.45605 0 6.83105 0 9.28416L0 11.4926C0 13.2109 1.01308 14.2136 2.66249 14.2136ZM9.78418 14.2136L26.1879 14.2136L26.1879 12.318L9.78418 12.318ZM7.61268 16.4437C9.56678 16.4437 11.1107 14.9015 11.1107 12.9457C11.1107 10.9863 9.56678 9.44413 7.61268 9.44413C5.65507 9.44413 4.11289 10.9863 4.11289 12.9457C4.11289 14.9015 5.65507 16.4437 7.61268 16.4437ZM7.61268 14.6148C6.67635 14.6148 5.95233 13.889 5.95233 12.9545C5.95233 12.0181 6.67635 11.2941 7.61268 11.2941C8.5455 11.2941 9.27304 12.0181 9.27304 12.9545C9.27304 13.889 8.5455 14.6148 7.61268 14.6148ZM28.3439 16.4437C30.2998 16.4437 31.842 14.9015 31.842 12.9457C31.842 10.9863 30.2998 9.44413 28.3439 9.44413C26.3863 9.44413 24.8441 10.9863 24.8441 12.9457C24.8441 14.9015 26.3863 16.4437 28.3439 16.4437ZM28.3439 14.6148C27.4094 14.6148 26.6836 13.889 26.6836 12.9545C26.6836 12.0181 27.4094 11.2941 28.3439 11.2941C29.2767 11.2941 30.0043 12.0181 30.0043 12.9545C30.0043 13.889 29.2767 14.6148 28.3439 14.6148Z" fill="white" fill-opacity="0.85"/>
 </g>
</svg>
