<?xml version="1.0" encoding="UTF-8"?>
<!--Generator: Apple Native CoreSVG 341-->
<!DOCTYPE svg
PUBLIC "-//W3C//DTD SVG 1.1//EN"
       "http://www.w3.org/Graphics/SVG/1.1/DTD/svg11.dtd">
<svg version="1.1" xmlns="http://www.w3.org/2000/svg" xmlns:xlink="http://www.w3.org/1999/xlink" viewBox="0 0 38.1449 29.0285">
 <g>
  <rect height="29.0285" opacity="0" width="38.1449" x="0" y="0"/>
  <path d="M10.3564 19.6779C10.3564 21.2015 9.14081 22.4137 7.61268 22.4137C6.09706 22.4137 4.87343 21.1935 4.87343 19.6779C4.87343 18.156 6.09706 16.9342 7.61268 16.9342C9.1328 16.9342 10.3564 18.156 10.3564 19.6779ZM31.0877 19.6779C31.0877 21.1935 29.8658 22.4137 28.3439 22.4137C26.8221 22.4137 25.5984 21.1935 25.5984 19.6779C25.5984 18.1641 26.8301 16.9342 28.3439 16.9342C29.8658 16.9342 31.0877 18.156 31.0877 19.6779ZM26.9744 9.47128L27.1789 11.2227L35.0219 11.2227C36.7363 11.2227 37.7836 12.2605 37.7836 13.9719L37.7836 17.9416C37.7836 19.6371 36.7802 20.6609 35.1308 20.6609L32.156 20.6609C32.2394 20.3406 32.282 20.0213 32.282 19.6779C32.282 17.4959 30.5242 15.7398 28.3439 15.7398C26.1717 15.7398 24.4041 17.5057 24.4041 19.6779C24.4041 20.0213 24.4467 20.3406 24.5318 20.6609L11.431 20.6609C11.5082 20.3486 11.5508 20.0213 11.5508 19.6779C11.5508 17.4959 9.7912 15.7398 7.61268 15.7398C5.43867 15.7398 3.67109 17.4959 3.67109 19.6779C3.67109 20.0213 3.72343 20.3406 3.79882 20.6609L2.66249 20.6609C1.01308 20.6609 0 19.6582 0 17.9416L0 15.5678C0 13.1146 1.45742 11.7397 4.55878 11.2887L8.17147 10.7531L12.134 8.27246C12.9678 7.74699 13.7571 7.35079 14.5916 7.0608L14.5916 8.68554C14.5916 10.3383 15.6318 11.4008 17.2322 11.4008L21.7633 11.4008C23.3619 11.4008 24.4004 10.3383 24.4004 8.68554L24.4004 6.458C25.9056 6.72266 26.7732 7.73995 26.9744 9.47128Z" fill="white" fill-opacity="0.85"/>
  <path d="M17.2322 10.0377L21.7633 10.0377C22.5916 10.0377 23.0213 9.60175 23.0213 8.70956L23.0213 5.20742C23.0213 4.325 22.5916 3.8873 21.7633 3.8873L17.2322 3.8873C16.4004 3.8873 15.9707 4.325 15.9707 5.20742L15.9707 8.70956C15.9707 9.60175 16.4004 10.0377 17.2322 10.0377ZM20.8043 4.62031L21.9636 4.62031L21.9636 2.71641C21.9636 1.75976 22.5515 1.14609 23.4566 1.14609C24.3679 1.14609 24.9496 1.75976 24.9496 2.71641L24.9496 3.775C24.9496 4.09434 25.2131 4.35156 25.5324 4.35156C25.8517 4.35156 26.109 4.09434 26.109 3.775L26.109 2.85605C26.109 1.1123 25.0687 0 23.4566 0C21.8605 0 20.8043 1.1123 20.8043 2.85605Z" fill="white" fill-opacity="0.85"/>
 </g>
</svg>
