<?xml version="1.0" encoding="UTF-8"?>
<!--Generator: Apple Native CoreSVG 341-->
<!DOCTYPE svg
PUBLIC "-//W3C//DTD SVG 1.1//EN"
       "http://www.w3.org/Graphics/SVG/1.1/DTD/svg11.dtd">
<svg version="1.1" xmlns="http://www.w3.org/2000/svg" xmlns:xlink="http://www.w3.org/1999/xlink" viewBox="0 0 35.5043 26.675">
 <g>
  <rect height="26.675" opacity="0" width="35.5043" x="0" y="0"/>
  <path d="M2.47441 19.6066L3.44648 19.6066C3.37285 19.2738 3.33828 19.0095 3.33828 18.6634C3.33828 16.5338 5.00937 14.9437 7.07753 14.9437C9.25409 14.9437 10.8275 16.5996 10.8275 18.6875C10.8275 19.0095 10.7947 19.2738 10.7113 19.6066L22.7139 19.6066C22.6598 19.3234 22.6172 19.0271 22.6172 18.6793C22.6172 16.5513 24.2883 14.9596 26.3644 14.9596C28.541 14.9596 30.1144 16.6154 30.1144 18.7033C30.1144 19.0511 30.0816 19.3154 29.9937 19.6066L32.6685 19.6066C34.2035 19.6066 35.1429 18.6547 35.1429 17.0754L35.1429 13.3879C35.1429 11.8008 34.1631 10.8285 32.5666 10.8285L25.275 10.8285L25.0847 9.19803C24.8558 7.30096 23.7912 6.32596 21.8924 6.32596L18.2328 6.32596C15.1459 6.32596 13.3746 6.76991 11.2801 8.07811L7.60077 10.391L4.24647 10.8892C1.36074 11.3207 0 12.591 0 14.8658L0 17.0754C0 18.6758 0.93945 19.6066 2.47441 19.6066ZM7.07753 21.2369C8.49471 21.2369 9.63495 20.1082 9.63495 18.6875C9.63495 17.2765 8.49471 16.1461 7.07753 16.1461C5.66484 16.1461 4.53261 17.2765 4.53261 18.6875C4.53261 20.1002 5.66484 21.2369 7.07753 21.2369ZM26.3644 21.2369C27.7834 21.2369 28.9138 20.1002 28.9138 18.6875C28.9138 17.2765 27.7834 16.1461 26.3644 16.1461C24.9615 16.1461 23.8115 17.2845 23.8115 18.6875C23.8115 20.1002 24.9535 21.2369 26.3644 21.2369Z" fill="white" fill-opacity="0.85"/>
  <path d="M14.5687 4.81835L23.074 4.81835C23.9431 4.81835 24.3816 4.28769 24.3816 3.38593L24.3816 2.29296C24.3816 0.759569 23.6414 0 21.9656 0L20.9064 0C19.2531 0 18.2855 0.228906 16.3465 1.28594L14.226 2.52402C13.567 2.88769 13.3283 3.23008 13.3283 3.72382C13.3283 4.4123 13.7174 4.81835 14.5687 4.81835Z" fill="white" fill-opacity="0.85"/>
 </g>
</svg>
