<?xml version="1.0" encoding="UTF-8"?>
<!--Generator: Apple Native CoreSVG 341-->
<!DOCTYPE svg
PUBLIC "-//W3C//DTD SVG 1.1//EN"
       "http://www.w3.org/Graphics/SVG/1.1/DTD/svg11.dtd">
<svg version="1.1" xmlns="http://www.w3.org/2000/svg" xmlns:xlink="http://www.w3.org/1999/xlink" viewBox="0 0 35.5043 27.1921">
 <g>
  <rect height="27.1921" opacity="0" width="35.5043" x="0" y="0"/>
  <path d="M9.63495 18.946C9.63495 20.3667 8.49471 21.4954 7.07753 21.4954C5.66484 21.4954 4.53261 20.3587 4.53261 18.946C4.53261 17.5351 5.66484 16.4046 7.07753 16.4046C8.49471 16.4046 9.63495 17.5351 9.63495 18.946ZM28.9138 18.946C28.9138 19.9187 28.378 20.7605 27.5809 21.1904L24.1226 17.7324C24.5568 16.9416 25.401 16.4046 26.3644 16.4046C27.7834 16.4046 28.9138 17.5351 28.9138 18.946ZM20.6509 19.8652L10.7113 19.8652C10.7947 19.5324 10.8275 19.2681 10.8275 18.946C10.8275 16.8582 9.25409 15.2023 7.07753 15.2023C5.00937 15.2023 3.33828 16.7923 3.33828 18.922C3.33828 19.2681 3.37285 19.5324 3.44648 19.8652L2.47441 19.8652C0.93945 19.8652 0 18.9343 0 17.3339L0 15.1244C0 12.8496 1.36074 11.5793 4.24647 11.1478L7.60077 10.6496L9.9508 9.17229ZM25.0847 9.45659L25.275 11.0871L32.5666 11.0871C34.1631 11.0871 35.1429 12.0593 35.1429 13.6464L35.1429 17.3339C35.1429 18.9132 34.2035 19.8652 32.6685 19.8652L29.9937 19.8652C30.0816 19.574 30.1144 19.3097 30.1144 18.9619C30.1144 16.874 28.541 15.2181 26.3644 15.2181C25.0564 15.2181 23.9092 15.8499 23.2404 16.8503L13.5942 7.2049C14.8937 6.75726 16.3073 6.58453 18.2328 6.58453L21.8924 6.58453C23.7912 6.58453 24.8558 7.55953 25.0847 9.45659Z" fill="white" fill-opacity="0.85"/>
  <path d="M24.3816 2.55153L24.3816 3.6445C24.3816 4.54625 23.9431 5.07692 23.074 5.07692L14.5687 5.07692C13.7174 5.07692 13.3283 4.67086 13.3283 3.98239C13.3283 3.48864 13.567 3.14626 14.226 2.78259L16.3465 1.5445C18.2855 0.487472 19.2531 0.258567 20.9064 0.258567L21.9656 0.258567C23.6414 0.258567 24.3816 1.01814 24.3816 2.55153Z" fill="white" fill-opacity="0.85"/>
  <path d="M28.2599 25.766C28.5635 26.066 29.0658 26.0677 29.3596 25.766C29.6596 25.4625 29.6631 24.9681 29.3596 24.6664L7.03866 2.35523C6.72714 2.04371 6.23905 2.04371 5.92753 2.35523C5.63554 2.64723 5.62753 3.14508 5.92753 3.45484Z" fill="white" fill-opacity="0.85"/>
 </g>
</svg>
