<?xml version="1.0" encoding="UTF-8"?>
<!--Generator: Apple Native CoreSVG 341-->
<!DOCTYPE svg
PUBLIC "-//W3C//DTD SVG 1.1//EN"
       "http://www.w3.org/Graphics/SVG/1.1/DTD/svg11.dtd">
<svg version="1.1" xmlns="http://www.w3.org/2000/svg" xmlns:xlink="http://www.w3.org/1999/xlink" viewBox="0 0 35.5043 27.1921">
 <g>
  <rect height="27.1921" opacity="0" width="35.5043" x="0" y="0"/>
  <path d="M11.3561 10.5766L8.25663 12.5117L4.49022 13.0595C2.61972 13.3277 1.90546 13.9318 1.90546 15.1519L1.90546 16.9517C1.90546 17.5445 2.15702 17.8298 2.64394 17.8298L3.91124 17.8298C4.23068 16.3644 5.50978 15.2994 7.07753 15.2994C8.64764 15.2994 9.93564 16.3644 10.2575 17.8298L18.6142 17.8298L20.5227 19.7371L10.12 19.7371C9.65606 20.9613 8.47921 21.8091 7.07753 21.8091C5.67795 21.8091 4.50842 20.9613 4.04772 19.7371L2.47441 19.7371C0.93945 19.7371 0 18.8044 0 17.2041L0 15.1519C0 12.8736 1.36074 11.6068 4.24647 11.1754L7.60077 10.6771L9.96772 9.18919ZM25.0847 9.47437L25.2332 10.8033L32.5666 10.8033C34.1631 10.8033 35.1429 11.7738 35.1429 13.3626L35.1429 17.2041C35.1429 18.7833 34.2035 19.7371 32.6685 19.7371L29.3908 19.7371C29.1087 20.4908 28.5566 21.101 27.8473 21.4568L26.3962 20.0059C27.199 19.991 27.8088 19.3757 27.8088 18.5648C27.8088 17.7333 27.1826 17.1124 26.3644 17.1124C25.5486 17.1124 24.933 17.7128 24.914 18.5238L23.4566 17.0665C23.9903 16.0084 25.0853 15.2994 26.3644 15.2994C27.9292 15.2994 29.2078 16.3644 29.5272 17.8298L32.5008 17.8298C32.9894 17.8298 33.249 17.5462 33.249 16.9517L33.249 13.5816C33.249 12.9888 32.9877 12.7035 32.5008 12.7035L23.5068 12.7035L23.1652 9.67515C23.0719 8.86616 22.6699 8.50776 21.8476 8.50776L18.2328 8.50776C16.9946 8.50776 16.0234 8.58548 15.1655 8.77599L13.6141 7.22473C14.9079 6.78131 16.317 6.61031 18.2328 6.61031L21.8924 6.61031C23.7912 6.61031 24.8638 7.5773 25.0847 9.47437ZM5.63319 18.5648C5.63319 19.3865 6.25409 20.0074 7.07753 20.0074C7.9037 20.0074 8.52812 19.3865 8.52812 18.5648C8.52812 17.7333 7.9037 17.1124 7.07753 17.1124C6.25409 17.1124 5.63319 17.7333 5.63319 18.5648Z" fill="white" fill-opacity="0.85"/>
  <path d="M24.6894 2.55153L24.6894 3.6445C24.6894 4.54625 24.2492 5.07692 23.3801 5.07692L14.8766 5.07692C14.0252 5.07692 13.6361 4.67086 13.6361 3.98239C13.6361 3.48864 13.873 3.14626 14.5338 2.78259L16.6543 1.5445C18.5916 0.487472 19.5609 0.258567 21.2142 0.258567L22.2734 0.258567C23.9492 0.258567 24.6894 1.01814 24.6894 2.55153Z" fill="white" fill-opacity="0.85"/>
  <path d="M28.2599 25.766C28.5635 26.066 29.0658 26.0677 29.3596 25.766C29.6596 25.4625 29.6631 24.9681 29.3596 24.6664L7.03866 2.35523C6.72714 2.04371 6.23905 2.04371 5.92753 2.35523C5.63554 2.64723 5.62753 3.14508 5.92753 3.45484Z" fill="white" fill-opacity="0.85"/>
 </g>
</svg>
