<?xml version="1.0" encoding="UTF-8"?>
<!--Generator: Apple Native CoreSVG 341-->
<!DOCTYPE svg
PUBLIC "-//W3C//DTD SVG 1.1//EN"
       "http://www.w3.org/Graphics/SVG/1.1/DTD/svg11.dtd">
<svg version="1.1" xmlns="http://www.w3.org/2000/svg" xmlns:xlink="http://www.w3.org/1999/xlink" viewBox="0 0 20.5381 20.1848">
 <g>
  <rect height="20.1848" opacity="0" width="20.5381" x="0" y="0"/>
  <path d="M20.1767 10.0875C20.1767 15.6478 15.6576 20.175 10.0875 20.175C4.52715 20.175 0 15.6478 0 10.0875C0 4.51914 4.52715 0 10.0875 0C15.6576 0 20.1767 4.51914 20.1767 10.0875ZM11.8787 5.05702C11.252 5.358 10.7465 5.50195 10.0635 5.50195C9.3787 5.50195 8.88124 5.358 8.24648 5.05702C8.06288 4.97011 7.8748 4.9621 7.66015 5.05702L4.3664 6.45664C3.8998 6.65449 3.70116 7.01894 3.82187 7.50507L4.23398 9.19198C4.33691 9.67636 4.67831 9.88124 5.16874 9.77655L6.2291 9.54276L6.28417 14.0848C6.2957 14.976 6.76601 15.4205 7.66074 15.4205L12.4644 15.4205C13.3672 15.4205 13.8295 14.976 13.8393 14.0848L13.9059 9.54276L14.9645 9.77655C15.4549 9.88124 15.7883 9.67636 15.8992 9.19198L16.3113 7.50507C16.432 7.01894 16.2254 6.65449 15.7668 6.45664L12.465 5.05702C12.2584 4.9621 12.0703 4.97011 11.8787 5.05702ZM10.0635 7.00878C9.35195 7.00878 8.79609 6.67401 8.56425 6.09022C9.02519 6.2537 9.53593 6.32479 10.0635 6.32479C10.5893 6.32479 11.1 6.2537 11.5609 6.09022C11.3371 6.66601 10.7893 7.00878 10.0635 7.00878Z" fill="white" fill-opacity="0.85"/>
 </g>
</svg>
