<?xml version="1.0" encoding="UTF-8"?>
<!--Generator: Apple Native CoreSVG 341-->
<!DOCTYPE svg
PUBLIC "-//W3C//DTD SVG 1.1//EN"
       "http://www.w3.org/Graphics/SVG/1.1/DTD/svg11.dtd">
<svg version="1.1" xmlns="http://www.w3.org/2000/svg" xmlns:xlink="http://www.w3.org/1999/xlink" viewBox="0 0 20.5381 20.1848">
 <g>
  <rect height="20.1848" opacity="0" width="20.5381" x="0" y="0"/>
  <path d="M10.0875 20.175C15.6576 20.175 20.1767 15.6559 20.1767 10.0875C20.1767 4.51914 15.6576 0 10.0875 0C4.51914 0 0 4.51914 0 10.0875C0 15.6559 4.51914 20.175 10.0875 20.175ZM10.0875 18.1879C5.60839 18.1879 1.9871 14.5666 1.9871 10.0875C1.9871 5.60839 5.60839 1.9871 10.0875 1.9871C14.5666 1.9871 18.1897 5.60839 18.1897 10.0875C18.1897 14.5666 14.5666 18.1879 10.0875 18.1879Z" fill="white" fill-opacity="0.85"/>
  <path d="M7.74491 15.2256L12.3803 15.2256C13.2387 15.2256 13.6842 14.7961 13.6939 13.9412L13.7508 9.55878L14.7801 9.7828C15.2457 9.88749 15.5721 9.69237 15.6812 9.2248L16.0818 7.60878C16.183 7.13769 15.9977 6.79003 15.5559 6.60195L12.3791 5.25019C12.168 5.15702 11.9994 5.16503 11.8113 5.25019C11.1996 5.53964 10.7234 5.68183 10.0617 5.68183C9.40175 5.68183 8.91757 5.53964 8.31386 5.25019C8.13378 5.16503 7.95546 5.15702 7.74609 5.25019L4.56932 6.60195C4.12753 6.79003 3.93417 7.13769 4.05136 7.60878L4.45194 9.2248C4.55312 9.69237 4.86972 9.88749 5.3371 9.7828L6.3664 9.55878L6.42949 13.9412C6.44101 14.7961 6.87851 15.2256 7.74491 15.2256ZM10.0617 7.12577C9.37499 7.12577 8.83241 6.80253 8.62011 6.24003C9.05976 6.39198 9.55722 6.46308 10.0617 6.46308C10.5662 6.46308 11.0637 6.39198 11.5051 6.24003C11.2848 6.79452 10.7662 7.12577 10.0617 7.12577Z" fill="white" fill-opacity="0.85"/>
 </g>
</svg>
