<?xml version="1.0" encoding="UTF-8"?>
<!--Generator: Apple Native CoreSVG 341-->
<!DOCTYPE svg
PUBLIC "-//W3C//DTD SVG 1.1//EN"
       "http://www.w3.org/Graphics/SVG/1.1/DTD/svg11.dtd">
<svg version="1.1" xmlns="http://www.w3.org/2000/svg" xmlns:xlink="http://www.w3.org/1999/xlink" viewBox="0 0 24.226 20.1848">
 <g>
  <rect height="20.1848" opacity="0" width="24.226" x="0" y="0"/>
  <path d="M0.721518 8.12363C-0.00973073 8.12363-0.190785 8.66894 0.204136 9.22109L2.47249 12.3723C2.78948 12.8092 3.27757 12.8012 3.58831 12.3723L5.8469 9.21308C6.24007 8.66894 6.051 8.12363 5.33929 8.12363ZM22.0239 10.0875C22.0239 4.51914 17.503 0 11.9364 0C6.368 0 1.85687 4.50937 1.84886 10.099C1.85687 10.6476 2.29378 11.0846 2.83441 11.0846C3.38303 11.0846 3.83596 10.6396 3.83596 10.091C3.83596 5.60839 7.45725 1.9871 11.9364 1.9871C16.4155 1.9871 20.0368 5.60839 20.0368 10.0875C20.0368 14.5666 16.4155 18.1879 11.9364 18.1879C9.3096 18.1879 7.0131 16.9437 5.54279 15.0176C5.1469 14.5609 4.58421 14.4129 4.10726 14.7519C3.66214 15.0734 3.55902 15.725 3.99475 16.2355C5.84631 18.6584 8.71858 20.175 11.9364 20.175C17.503 20.175 22.0239 15.6559 22.0239 10.0875Z" fill="white" fill-opacity="0.85"/>
  <path d="M11.9364 14.7C12.3346 14.7 12.6082 14.4746 12.6082 14.0246L12.6082 7.10428L14.8741 7.10428C15.235 7.10428 15.4832 6.86835 15.4832 6.53241C15.4832 6.18398 15.2287 5.95878 14.8741 5.95878L8.99866 5.95878C8.63597 5.95878 8.38949 6.18573 8.38949 6.53241C8.38949 6.87733 8.64574 7.10428 8.99866 7.10428L11.2565 7.10428L11.2565 14.0246C11.2565 14.4746 11.5461 14.7 11.9364 14.7ZM9.78148 11.1498C9.83656 11.1498 9.89164 11.14 9.94847 11.1223L14.1676 9.46308C14.3266 9.39999 14.403 9.30409 14.403 9.15312C14.403 8.94433 14.2635 8.8414 14.1028 8.8414C14.0459 8.8414 13.9908 8.85292 13.9278 8.8707L9.70062 10.5281C9.54964 10.5992 9.47328 10.7049 9.47328 10.8478C9.47328 11.0148 9.59671 11.1498 9.78148 11.1498ZM9.78148 13.0103C9.83656 13.0103 9.89164 13.0006 9.94847 12.973L14.1676 11.3174C14.3266 11.2543 14.403 11.1584 14.403 11.0074C14.403 10.8066 14.2635 10.6957 14.1028 10.6957C14.0459 10.6957 13.9908 10.7135 13.9278 10.733L9.70062 12.3887C9.54964 12.4518 9.47328 12.5592 9.47328 12.7021C9.47328 12.8691 9.59671 13.0103 9.78148 13.0103Z" fill="white" fill-opacity="0.85"/>
 </g>
</svg>
