<?xml version="1.0" encoding="UTF-8"?>
<!--Generator: Apple Native CoreSVG 341-->
<!DOCTYPE svg
PUBLIC "-//W3C//DTD SVG 1.1//EN"
       "http://www.w3.org/Graphics/SVG/1.1/DTD/svg11.dtd">
<svg version="1.1" xmlns="http://www.w3.org/2000/svg" xmlns:xlink="http://www.w3.org/1999/xlink" viewBox="0 0 22.7515 21.4965">
 <g>
  <rect height="21.4965" opacity="0" width="22.7515" x="0" y="0"/>
  <path d="M1.44999 18.9656L20.9947 18.9656L20.9947 18.2322C20.9947 17.8064 20.7437 17.551 20.3117 17.551L19.7447 17.551L19.7447 6.98046L20.5865 6.98046C21.1851 6.98046 21.5363 6.53886 21.5363 6.09277C21.5363 5.7664 21.351 5.47734 20.9545 5.24941L12.481 0.359374C12.0764 0.125976 11.6398 0 11.2183 0C10.7969 0 10.3523 0.125976 9.96366 0.359374L1.49023 5.24941C1.08574 5.47734 0.908396 5.7664 0.908396 6.09277C0.908396 6.53886 1.25957 6.98046 1.85995 6.98046L2.69999 6.98046L2.69999 17.551L2.14101 17.551C1.70898 17.551 1.44999 17.8064 1.44999 18.2322ZM4.32401 17.551L4.32401 5.67245L10.8779 1.99999C10.9846 1.93866 11.1072 1.90487 11.2183 1.90487C11.333 1.90487 11.4521 1.93866 11.5668 1.99999L18.1207 5.67245L18.1207 17.551ZM0.881441 21.4867L21.499 21.4867C21.9797 21.4867 22.3902 21.0849 22.3902 20.5972C22.3902 20.1148 21.9797 19.7158 21.499 19.7158L0.881441 19.7158C0.399022 19.7158 0 20.1148 0 20.5972C0 21.0832 0.399022 21.4867 0.881441 21.4867Z" fill="white" fill-opacity="0.85"/>
  <path d="M11.2281 15.1883C11.6246 15.1883 11.8982 14.9726 11.8982 14.5129L11.8982 7.60232L14.1658 7.60232C14.525 7.60232 14.7732 7.35662 14.7732 7.02069C14.7732 6.67225 14.5187 6.44706 14.1658 6.44706L8.29042 6.44706C7.92772 6.44706 7.67948 6.67401 7.67948 7.02069C7.67948 7.36561 7.93573 7.60232 8.29042 7.60232L10.5482 7.60232L10.5482 14.5129C10.5482 14.9726 10.8361 15.1883 11.2281 15.1883ZM9.07323 11.6478C9.1203 11.6478 9.18339 11.6363 9.23847 11.6105L13.4576 9.95311C13.6166 9.88827 13.693 9.79237 13.693 9.64139C13.693 9.4326 13.5535 9.33143 13.3928 9.33143C13.3377 9.33143 13.2826 9.3492 13.2195 9.36698L8.99061 11.0262C8.83964 11.0892 8.76327 11.1931 8.76327 11.3361C8.76327 11.5049 8.88671 11.6478 9.07323 11.6478ZM9.07323 13.4986C9.1203 13.4986 9.18339 13.4889 9.23847 13.4711L13.4576 11.8137C13.6166 11.7506 13.693 11.6547 13.693 11.5037C13.693 11.2949 13.5535 11.192 13.3928 11.192C13.3377 11.192 13.2826 11.2035 13.2195 11.2213L8.99061 12.8769C8.83964 12.94 8.76327 13.0555 8.76327 13.1904C8.76327 13.3654 8.88671 13.4986 9.07323 13.4986Z" fill="white" fill-opacity="0.85"/>
 </g>
</svg>
