<?xml version="1.0" encoding="UTF-8"?>
<!--Generator: Apple Native CoreSVG 341-->
<!DOCTYPE svg
PUBLIC "-//W3C//DTD SVG 1.1//EN"
       "http://www.w3.org/Graphics/SVG/1.1/DTD/svg11.dtd">
<svg version="1.1" xmlns="http://www.w3.org/2000/svg" xmlns:xlink="http://www.w3.org/1999/xlink" viewBox="0 0 24.2049 19.7961">
 <g>
  <rect height="19.7961" opacity="0" width="24.2049" x="0" y="0"/>
  <path d="M23.8435 11.8701C23.8435 5.64747 19.073 0.538875 12.9941 0.00293831C12.6553-0.029874 12.3998 0.215828 12.3998 0.554694L12.3998 3.8043C12.3998 4.08907 12.6012 4.30645 12.8842 4.33301C16.6191 4.80957 19.517 8.00293 19.517 11.8701C19.517 13.6332 18.9115 15.2613 17.8488 16.61C17.6945 16.8023 17.7025 17.0471 17.8719 17.2244L20.2322 19.5785C20.4646 19.8144 20.823 19.8109 21.0359 19.559C22.7926 17.4783 23.8435 14.7949 23.8435 11.8701Z" fill="white" fill-opacity="0.85"/>
  <path d="M0 11.8701C0 14.8029 1.05098 17.4863 2.80586 19.5652C3.01875 19.8172 3.36914 19.8109 3.61132 19.5768L5.96992 17.2227C6.13925 17.0453 6.14726 16.8006 5.99296 16.6082C4.92578 15.2613 4.32656 13.6332 4.32656 11.8701C4.32656 8.00293 7.22617 4.80957 10.9594 4.33301C11.2441 4.30645 11.4437 4.08907 11.4437 3.8043L11.4437 0.554694C11.4437 0.215828 11.1883-0.029874 10.8494 0.00293831C4.77226 0.538875 0 5.64747 0 11.8701Z" fill="white" fill-opacity="0.85"/>
  <path d="M11.9098 16.5656C12.3062 16.5656 12.5816 16.35 12.5816 15.8902L12.5816 8.97968L14.8475 8.97968C15.2084 8.97968 15.4549 8.73398 15.4549 8.39805C15.4549 8.04961 15.2021 7.82442 14.8475 7.82442L8.97206 7.82442C8.60937 7.82442 8.36113 8.05137 8.36113 8.39805C8.36113 8.74297 8.61738 8.97968 8.97206 8.97968L11.2379 8.97968L11.2379 15.8902C11.2379 16.35 11.5195 16.5656 11.9098 16.5656ZM9.75488 13.0252C9.80996 13.0252 9.86504 13.0137 9.92812 12.9879L14.149 11.3305C14.3 11.2656 14.3746 11.1697 14.3746 11.0188C14.3746 10.81 14.2369 10.7088 14.0744 10.7088C14.0193 10.7088 13.9642 10.7266 13.9012 10.7443L9.67402 12.4035C9.52128 12.4666 9.44668 12.5705 9.44668 12.7135C9.44668 12.8822 9.56836 13.0252 9.75488 13.0252ZM9.75488 14.876C9.80996 14.876 9.86504 14.8662 9.92812 14.8484L14.149 13.191C14.3 13.1279 14.3746 13.032 14.3746 12.8811C14.3746 12.6723 14.2369 12.5693 14.0744 12.5693C14.0193 12.5693 13.9642 12.5809 13.9012 12.5986L9.67402 14.2543C9.52128 14.3174 9.44668 14.4328 9.44668 14.5678C9.44668 14.7428 9.56836 14.876 9.75488 14.876Z" fill="white" fill-opacity="0.85"/>
 </g>
</svg>
