<?xml version="1.0" encoding="UTF-8"?>
<!--Generator: Apple Native CoreSVG 341-->
<!DOCTYPE svg
PUBLIC "-//W3C//DTD SVG 1.1//EN"
       "http://www.w3.org/Graphics/SVG/1.1/DTD/svg11.dtd">
<svg version="1.1" xmlns="http://www.w3.org/2000/svg" xmlns:xlink="http://www.w3.org/1999/xlink" viewBox="0 0 20.5381 20.1848">
 <g>
  <rect height="20.1848" opacity="0" width="20.5381" x="0" y="0"/>
  <path d="M10.0875 20.175C15.6576 20.175 20.1767 15.6559 20.1767 10.0875C20.1767 4.51914 15.6576 0 10.0875 0C4.51914 0 0 4.51914 0 10.0875C0 15.6559 4.51914 20.175 10.0875 20.175ZM10.0875 18.1879C5.60839 18.1879 1.9871 14.5666 1.9871 10.0875C1.9871 5.60839 5.60839 1.9871 10.0875 1.9871C14.5666 1.9871 18.1897 5.60839 18.1897 10.0875C18.1897 14.5666 14.5666 18.1879 10.0875 18.1879Z" fill="white" fill-opacity="0.85"/>
  <path d="M10.0795 14.7C10.4777 14.7 10.7514 14.4746 10.7514 14.0246L10.7514 7.10428L13.0172 7.10428C13.3781 7.10428 13.6264 6.86835 13.6264 6.53241C13.6264 6.18398 13.3719 5.95878 13.0172 5.95878L7.14179 5.95878C6.7791 5.95878 6.53261 6.18573 6.53261 6.53241C6.53261 6.87733 6.78711 7.10428 7.14179 7.10428L9.39961 7.10428L9.39961 14.0246C9.39961 14.4746 9.68925 14.7 10.0795 14.7ZM7.92461 11.1498C7.97969 11.1498 8.03476 11.14 8.0916 11.1223L12.3107 9.46308C12.4697 9.39999 12.5461 9.30409 12.5461 9.15312C12.5461 8.94433 12.4066 8.8414 12.2441 8.8414C12.1891 8.8414 12.134 8.85292 12.0709 8.8707L7.84375 10.5281C7.69277 10.5992 7.6164 10.7049 7.6164 10.8478C7.6164 11.0148 7.73984 11.1498 7.92461 11.1498ZM7.92461 13.0103C7.97969 13.0103 8.03476 13.0006 8.0916 12.973L12.3107 11.3174C12.4697 11.2543 12.5461 11.1584 12.5461 11.0074C12.5461 10.8066 12.4066 10.6957 12.2441 10.6957C12.1891 10.6957 12.134 10.7135 12.0709 10.733L7.84375 12.3887C7.69277 12.4518 7.6164 12.5592 7.6164 12.7021C7.6164 12.8691 7.73984 13.0103 7.92461 13.0103Z" fill="white" fill-opacity="0.85"/>
 </g>
</svg>
