<?xml version="1.0" encoding="UTF-8"?>
<!--Generator: Apple Native CoreSVG 341-->
<!DOCTYPE svg
PUBLIC "-//W3C//DTD SVG 1.1//EN"
       "http://www.w3.org/Graphics/SVG/1.1/DTD/svg11.dtd">
<svg version="1.1" xmlns="http://www.w3.org/2000/svg" xmlns:xlink="http://www.w3.org/1999/xlink" viewBox="0 0 22.301 21.9477">
 <g>
  <rect height="21.9477" opacity="0" width="22.301" x="0" y="0"/>
  <path d="M10.9689 21.9379C16.9984 21.9379 21.9396 16.9984 21.9396 10.9689C21.9396 4.93945 16.9984 0 10.9689 0C4.93945 0 0 4.93945 0 10.9689C0 16.9984 4.93945 21.9379 10.9689 21.9379ZM10.9689 18.2242C6.96133 18.2242 3.71367 14.9766 3.71367 10.9689C3.71367 6.95332 6.96133 3.71367 10.9689 3.71367C14.9846 3.71367 18.226 6.95332 18.226 10.9689C18.226 14.9766 14.9846 18.2242 10.9689 18.2242Z" fill="white" fill-opacity="0.85"/>
  <path d="M10.9689 15.5814C11.3672 15.5814 11.6408 15.3561 11.6408 14.9061L11.6408 7.98573L13.9066 7.98573C14.2676 7.98573 14.5158 7.7498 14.5158 7.41386C14.5158 7.06542 14.2613 6.84023 13.9066 6.84023L8.03125 6.84023C7.66855 6.84023 7.42207 7.06718 7.42207 7.41386C7.42207 7.75878 7.67832 7.98573 8.03125 7.98573L10.2891 7.98573L10.2891 14.9061C10.2891 15.3561 10.5787 15.5814 10.9689 15.5814ZM8.81406 12.0312C8.86914 12.0312 8.92422 12.0215 8.98906 12.0037L13.2002 10.3445C13.3592 10.2814 13.4355 10.1855 13.4355 10.0346C13.4355 9.82578 13.2961 9.72285 13.1336 9.72285C13.0785 9.72285 13.0234 9.73437 12.9603 9.75214L8.7332 11.4096C8.58223 11.4807 8.50586 11.5863 8.50586 11.7293C8.50586 11.8963 8.6293 12.0312 8.81406 12.0312ZM8.81406 13.8918C8.86914 13.8918 8.92422 13.882 8.98906 13.8545L13.2002 12.1988C13.3592 12.1357 13.4355 12.0398 13.4355 11.8889C13.4355 11.6881 13.2961 11.5771 13.1336 11.5771C13.0785 11.5771 13.0234 11.5949 12.9603 11.6145L8.7332 13.2701C8.58223 13.3332 8.50586 13.4406 8.50586 13.5836C8.50586 13.7506 8.6293 13.8918 8.81406 13.8918Z" fill="white" fill-opacity="0.85"/>
 </g>
</svg>
