<?xml version="1.0" encoding="UTF-8"?>
<!--Generator: Apple Native CoreSVG 341-->
<!DOCTYPE svg
PUBLIC "-//W3C//DTD SVG 1.1//EN"
       "http://www.w3.org/Graphics/SVG/1.1/DTD/svg11.dtd">
<svg version="1.1" xmlns="http://www.w3.org/2000/svg" xmlns:xlink="http://www.w3.org/1999/xlink" viewBox="0 0 18.5894 18.2316">
 <g>
  <rect height="18.2316" opacity="0" width="18.5894" x="0" y="0"/>
  <path d="M3.20351 18.2281L15.0246 18.2281C17.1404 18.2281 18.2281 17.1502 18.2281 15.0646L18.2281 3.17148C18.2281 1.08769 17.1404 0 15.0246 0L3.20351 0C1.0957 0 0 1.08769 0 3.17148L0 15.0646C0 17.1502 1.0957 18.2281 3.20351 18.2281ZM3.31444 16.3148C2.40643 16.3148 1.91327 15.8465 1.91327 14.8977L1.91327 3.34023C1.91327 2.39139 2.40643 1.91503 3.31444 1.91503L14.9137 1.91503C15.8137 1.91503 16.3148 2.39139 16.3148 3.34023L16.3148 14.8977C16.3148 15.8465 15.8137 16.3148 14.9137 16.3148Z" fill="white" fill-opacity="0.85"/>
  <path d="M9.11894 13.7234C9.51542 13.7234 9.79081 13.498 9.79081 13.048L9.79081 6.12772L12.0566 6.12772C12.4176 6.12772 12.6641 5.89178 12.6641 5.55585C12.6641 5.20741 12.4113 4.98222 12.0566 4.98222L6.18124 4.98222C5.81855 4.98222 5.57207 5.20917 5.57207 5.55585C5.57207 5.90077 5.82656 6.12772 6.18124 6.12772L8.43906 6.12772L8.43906 13.048C8.43906 13.498 8.72871 13.7234 9.11894 13.7234ZM6.96406 10.1732C7.01914 10.1732 7.07422 10.1635 7.1373 10.1457L11.3502 8.48652C11.5092 8.42343 11.5855 8.32753 11.5855 8.17656C11.5855 7.96777 11.4461 7.86484 11.2836 7.86484C11.2285 7.86484 11.1734 7.87636 11.1103 7.89413L6.8832 9.55155C6.73047 9.62265 6.65586 9.72831 6.65586 9.87128C6.65586 10.0383 6.77754 10.1732 6.96406 10.1732ZM6.96406 12.0338C7.01914 12.0338 7.07422 12.024 7.1373 11.9965L11.3502 10.3408C11.5092 10.2777 11.5855 10.1818 11.5855 10.0309C11.5855 9.83007 11.4461 9.71914 11.2836 9.71914C11.2285 9.71914 11.1734 9.73691 11.1103 9.75644L6.8832 11.4121C6.73047 11.4752 6.65586 11.5826 6.65586 11.7256C6.65586 11.8926 6.77754 12.0338 6.96406 12.0338Z" fill="white" fill-opacity="0.85"/>
 </g>
</svg>
