<?xml version="1.0" encoding="UTF-8"?>
<!--Generator: Apple Native CoreSVG 341-->
<!DOCTYPE svg
PUBLIC "-//W3C//DTD SVG 1.1//EN"
       "http://www.w3.org/Graphics/SVG/1.1/DTD/svg11.dtd">
<svg version="1.1" xmlns="http://www.w3.org/2000/svg" xmlns:xlink="http://www.w3.org/1999/xlink" viewBox="0 0 24.226 20.1848">
 <g>
  <rect height="20.1848" opacity="0" width="24.226" x="0" y="0"/>
  <path d="M0.721518 8.12363C-0.00973073 8.12363-0.190785 8.66894 0.204136 9.22109L2.47249 12.3723C2.78948 12.8092 3.27757 12.8012 3.58831 12.3723L5.8469 9.21308C6.24007 8.66894 6.051 8.12363 5.33929 8.12363ZM22.0239 10.0875C22.0239 4.51914 17.503 0 11.9364 0C6.368 0 1.85687 4.50937 1.84886 10.099C1.85687 10.6476 2.29378 11.0846 2.83441 11.0846C3.38303 11.0846 3.83596 10.6396 3.83596 10.091C3.83596 5.60839 7.45725 1.9871 11.9364 1.9871C16.4155 1.9871 20.0368 5.60839 20.0368 10.0875C20.0368 14.5666 16.4155 18.1879 11.9364 18.1879C9.3096 18.1879 7.0131 16.9437 5.54279 15.0176C5.1469 14.5609 4.58421 14.4129 4.10726 14.7519C3.66214 15.0734 3.55902 15.725 3.99475 16.2355C5.84631 18.6584 8.71858 20.175 11.9364 20.175C17.503 20.175 22.0239 15.6559 22.0239 10.0875Z" fill="white" fill-opacity="0.85"/>
  <path d="M10.8965 14.3322L11.0278 14.3322C12.1617 14.3322 13.3967 13.9314 14.1682 13.2041C14.803 12.5859 15.2586 11.7439 15.2586 10.9392C15.2586 10.5793 15.0416 10.3133 14.6311 10.3133C14.2516 10.3133 14.0645 10.5402 14.0008 10.8951C13.9182 11.433 13.6879 11.9016 13.3528 12.2527C12.8338 12.8064 12.075 13.0908 11.2994 13.0908L11.2994 10.0941L13.2848 9.31347C13.434 9.25039 13.5166 9.14648 13.5166 9.01328C13.5166 8.81874 13.3852 8.69179 13.2067 8.69179C13.1498 8.69179 13.0948 8.70956 13.0397 8.7291L11.2994 9.41738L11.2994 8.2496L13.2848 7.45917C13.434 7.40409 13.5166 7.29218 13.5166 7.14296C13.5166 7.01425 13.435 6.83749 13.2147 6.83749C13.1578 6.83749 13.1028 6.85702 13.0397 6.8828L11.2994 7.57284L11.2994 6.31659C11.2994 5.91855 11.0344 5.63398 10.6346 5.63398C10.2366 5.63398 9.9555 5.91855 9.9555 6.31659L9.9555 8.08808L8.718 8.57558C8.56878 8.63066 8.50218 8.7248 8.50218 8.87402C8.50218 9.05253 8.63363 9.18749 8.80414 9.18749C8.85296 9.18749 8.91605 9.17597 8.97914 9.15019L9.9555 8.76308L9.9555 9.93886L8.718 10.4299C8.56878 10.493 8.50218 10.5791 8.50218 10.7283C8.50218 10.8971 8.63363 11.04 8.80414 11.04C8.85296 11.04 8.92406 11.0223 8.97914 11.0045L9.9555 10.6094L9.9555 13.4672C9.9555 13.9945 10.333 14.3322 10.8965 14.3322Z" fill="white" fill-opacity="0.85"/>
 </g>
</svg>
