<?xml version="1.0" encoding="UTF-8"?>
<!--Generator: Apple Native CoreSVG 341-->
<!DOCTYPE svg
PUBLIC "-//W3C//DTD SVG 1.1//EN"
       "http://www.w3.org/Graphics/SVG/1.1/DTD/svg11.dtd">
<svg version="1.1" xmlns="http://www.w3.org/2000/svg" xmlns:xlink="http://www.w3.org/1999/xlink" viewBox="0 0 24.2049 19.8808">
 <g>
  <rect height="19.8808" opacity="0" width="24.2049" x="0" y="0"/>
  <path d="M23.8435 11.9178C23.8435 9.01855 22.8031 6.3457 21.0623 4.27031C20.8547 4.02011 20.498 4.02011 20.2621 4.2623L17.9578 6.56484C17.7547 6.76796 17.7467 7.05097 17.9232 7.27363C18.9185 8.56269 19.517 10.1768 19.517 11.9178C19.517 13.6826 18.9115 15.3107 17.8488 16.6611C17.6945 16.8535 17.7025 17.0982 17.8719 17.2756L20.2242 19.6279C20.4646 19.8683 20.8133 19.8683 21.0359 19.6066C22.7908 17.5277 23.8435 14.8443 23.8435 11.9178Z" fill="white" fill-opacity="0.85"/>
  <path d="M11.9178 4.32656C13.6783 4.32656 15.2941 4.933 16.5912 5.93183C16.8041 6.09863 17.0791 6.0791 17.2787 5.87773L19.5812 3.57343C19.8252 3.33125 19.8154 2.9791 19.5582 2.76797C17.4926 1.04043 14.8232 0 11.9178 0C9.02031 0 6.35097 1.04043 4.28711 2.76797C4.02988 2.9791 4.01836 3.33125 4.2623 3.57343L6.56484 5.87773C6.76445 6.0791 7.05097 6.09863 7.28163 5.92207C8.56894 4.933 10.1768 4.32656 11.9178 4.32656Z" fill="white" fill-opacity="0.85"/>
  <path d="M0 11.9178C0 14.8461 1.05625 17.5348 2.81465 19.6137C3.02402 19.8719 3.3789 19.8683 3.61308 19.6279L5.96367 17.2756C6.133 17.0982 6.15077 16.8535 5.99472 16.6611C4.93378 15.3107 4.32656 13.6826 4.32656 11.9178C4.32656 10.1768 4.91699 8.56269 5.92031 7.27363C6.08886 7.05097 6.08886 6.76796 5.88574 6.56484L3.58144 4.2623C3.33926 4.02011 2.98711 4.02187 2.77422 4.2791C1.03867 6.35097 0 9.02031 0 11.9178Z" fill="white" fill-opacity="0.85"/>
  <path d="M10.8699 16.2402L11.0012 16.2402C12.1432 16.2402 13.3701 15.8394 14.1416 15.1121C14.7764 14.5019 15.232 13.6519 15.232 12.849C15.232 12.4971 15.023 12.2213 14.6027 12.2213C14.233 12.2213 14.0379 12.458 13.9742 12.8031C13.8898 13.341 13.6613 13.8096 13.3244 14.1705C12.8152 14.7145 12.0564 14.9988 11.2808 14.9988L11.2808 12.0119L13.2582 11.2215C13.4074 11.1584 13.4883 11.0545 13.4883 10.9213C13.4883 10.7348 13.3586 10.5998 13.1801 10.5998C13.1232 10.5998 13.0762 10.6193 13.0131 10.6451L11.2808 11.3352L11.2808 10.1576L13.2582 9.36894C13.4154 9.31386 13.4883 9.20019 13.4883 9.05097C13.4883 8.93027 13.4146 8.74726 13.1881 8.74726C13.1312 8.74726 13.0762 8.76503 13.0131 8.79081L11.2808 9.48085L11.2808 8.23436C11.2808 7.82655 11.006 7.54999 10.608 7.54999C10.21 7.54999 9.93515 7.82655 9.93515 8.23436L9.93515 9.99609L8.69941 10.4916C8.54043 10.5387 8.47558 10.6408 8.47558 10.782C8.47558 10.9605 8.60703 11.1035 8.77578 11.1035C8.82461 11.1035 8.88945 11.0857 8.95254 11.0662L9.93515 10.6711L9.93515 11.8486L8.69941 12.3379C8.54043 12.401 8.47558 12.4871 8.47558 12.6363C8.47558 12.8068 8.60703 12.9498 8.77578 12.9498C8.82461 12.9498 8.89746 12.9383 8.96054 12.9125L9.93515 12.5254L9.93515 15.3832C9.93515 15.9025 10.3144 16.2402 10.8699 16.2402Z" fill="white" fill-opacity="0.85"/>
 </g>
</svg>
