<?xml version="1.0" encoding="UTF-8"?>
<!--Generator: Apple Native CoreSVG 341-->
<!DOCTYPE svg
PUBLIC "-//W3C//DTD SVG 1.1//EN"
       "http://www.w3.org/Graphics/SVG/1.1/DTD/svg11.dtd">
<svg version="1.1" xmlns="http://www.w3.org/2000/svg" xmlns:xlink="http://www.w3.org/1999/xlink" viewBox="0 0 20.5381 20.1848">
 <g>
  <rect height="20.1848" opacity="0" width="20.5381" x="0" y="0"/>
  <path d="M20.1767 10.0875C20.1767 15.6478 15.6576 20.175 10.0875 20.175C4.52715 20.175 0 15.6478 0 10.0875C0 4.51914 4.52715 0 10.0875 0C15.6576 0 20.1767 4.51914 20.1767 10.0875ZM8.02519 6.17831L8.02519 8.01269L6.73984 8.52148C6.58086 8.57831 6.51426 8.68046 6.51426 8.83144C6.51426 9.01972 6.6457 9.15644 6.82598 9.15644C6.87656 9.15644 6.94766 9.14667 7.01074 9.11913L8.02519 8.71698L8.02519 9.94238L6.73984 10.4467C6.58086 10.5098 6.51426 10.6039 6.51426 10.7549C6.51426 10.9352 6.6457 11.0799 6.82598 11.0799C6.87656 11.0799 6.95566 11.0621 7.01074 11.0426L8.02519 10.6324L8.02519 13.6002C8.02519 14.1478 8.42304 14.5023 9.01659 14.5023L9.1496 14.5023C10.3314 14.5023 11.616 14.09 12.4141 13.3299C13.0736 12.6904 13.5488 11.8156 13.5488 10.9879C13.5488 10.6111 13.3185 10.3301 12.8894 10.3301C12.4949 10.3301 12.2963 10.5703 12.2309 10.9385C12.1465 11.4941 11.9064 11.9725 11.5598 12.3352C11.0213 12.9084 10.2412 13.2008 9.43456 13.2008L9.43456 10.0924L11.4943 9.28691C11.6533 9.22382 11.7342 9.10839 11.7342 8.97343C11.7342 8.76914 11.6045 8.64218 11.4162 8.64218C11.3594 8.64218 11.3008 8.66171 11.2377 8.67949L9.43456 9.39257L9.43456 8.17695L11.4943 7.36347C11.6533 7.30839 11.7342 7.18495 11.7342 7.03398C11.7342 6.8955 11.6525 6.71073 11.4242 6.71073C11.3674 6.71073 11.3088 6.73827 11.2377 6.76406L9.43456 7.47538L9.43456 6.17831C9.43456 5.76171 9.15448 5.46386 8.73788 5.46386C8.32304 5.46386 8.02519 5.76171 8.02519 6.17831Z" fill="white" fill-opacity="0.85"/>
 </g>
</svg>
