<?xml version="1.0" encoding="UTF-8"?>
<!--Generator: Apple Native CoreSVG 341-->
<!DOCTYPE svg
PUBLIC "-//W3C//DTD SVG 1.1//EN"
       "http://www.w3.org/Graphics/SVG/1.1/DTD/svg11.dtd">
<svg version="1.1" xmlns="http://www.w3.org/2000/svg" xmlns:xlink="http://www.w3.org/1999/xlink" viewBox="0 0 18.5894 18.2316">
 <g>
  <rect height="18.2316" opacity="0" width="18.5894" x="0" y="0"/>
  <path d="M18.2281 3.17148L18.2281 15.0646C18.2281 17.1502 17.1404 18.2281 15.0246 18.2281L3.20351 18.2281C1.0957 18.2281 0 17.1502 0 15.0646L0 3.17148C0 1.08769 1.0957 0 3.20351 0L15.0246 0C17.1404 0 18.2281 1.08769 18.2281 3.17148ZM11.2217 5.38319L11.2217 10.1977C11.2217 11.4643 10.3951 12.2641 9.14003 12.2641C7.88319 12.2641 7.05037 11.4643 7.05037 10.1977L7.05037 5.38319C7.05037 4.7078 6.6994 4.30976 6.08163 4.30976C5.46835 4.30976 5.11914 4.70605 5.11914 5.38319L5.11914 10.3838C5.11914 12.4906 6.73808 13.8551 9.14003 13.8551C11.5402 13.8551 13.1609 12.4906 13.1609 10.3838L13.1609 5.38319C13.1609 4.70605 12.81 4.30976 12.1824 4.30976C11.5789 4.30976 11.2217 4.7078 11.2217 5.38319Z" fill="white" fill-opacity="0.85"/>
 </g>
</svg>
