<?xml version="1.0" encoding="UTF-8"?>
<!--Generator: Apple Native CoreSVG 341-->
<!DOCTYPE svg
PUBLIC "-//W3C//DTD SVG 1.1//EN"
       "http://www.w3.org/Graphics/SVG/1.1/DTD/svg11.dtd">
<svg version="1.1" xmlns="http://www.w3.org/2000/svg" xmlns:xlink="http://www.w3.org/1999/xlink" viewBox="0 0 20.5381 20.1848">
 <g>
  <rect height="20.1848" opacity="0" width="20.5381" x="0" y="0"/>
  <path d="M20.1767 10.0973C20.1767 15.6656 15.6576 20.1848 10.0875 20.1848C4.52715 20.1848 0 15.6656 0 10.0973C0 4.53691 4.52715 0.00976562 10.0875 0.00976562C15.6576 0.00976562 20.1767 4.53691 20.1767 10.0973ZM9.49218 4.14647L9.49218 4.88026C6.233 5.17929 4.73222 7.9578 4.73222 9.94804C4.73222 10.2568 4.93886 10.5053 5.22011 10.5053C5.40448 10.5053 5.57928 10.3926 5.74217 10.1904C6.06034 9.69784 6.41405 9.4996 6.88339 9.4996C7.33847 9.4996 7.65214 9.70487 7.95937 10.2025C8.09511 10.4174 8.2166 10.5053 8.39316 10.5053C8.5537 10.5053 8.6912 10.4174 8.81093 10.2123C8.97011 9.93925 9.22539 9.74003 9.49218 9.63065L9.49218 14.3154C9.49218 14.6949 9.21132 14.9695 8.82831 14.9695C8.45683 14.9695 8.18398 14.6896 8.18398 14.3102C8.18398 13.9365 7.93554 13.6543 7.57968 13.6543C7.23456 13.6543 6.99238 13.94 6.99238 14.3154C6.99238 15.3543 7.78867 16.1383 8.83359 16.1383C9.86699 16.1383 10.6838 15.3877 10.6838 14.326L10.6838 9.63065C10.9426 9.74003 11.1978 9.93925 11.357 10.2123C11.475 10.4121 11.6143 10.5053 11.7766 10.5053C11.9514 10.5053 12.0728 10.4174 12.2086 10.2025C12.5158 9.70487 12.8295 9.4996 13.2846 9.4996C13.7539 9.4996 14.1076 9.69784 14.4338 10.1904C14.5967 10.3926 14.7635 10.5053 14.9479 10.5053C15.2291 10.5053 15.4357 10.2568 15.4357 9.94804C15.4357 7.9578 13.935 5.17929 10.6838 4.88026L10.6838 4.14647C10.6838 3.81288 10.4158 3.55468 10.084 3.55468C9.75214 3.55468 9.49218 3.81288 9.49218 4.14647Z" fill="white" fill-opacity="0.85"/>
 </g>
</svg>
