<?xml version="1.0" encoding="UTF-8"?>
<!--Generator: Apple Native CoreSVG 341-->
<!DOCTYPE svg
PUBLIC "-//W3C//DTD SVG 1.1//EN"
       "http://www.w3.org/Graphics/SVG/1.1/DTD/svg11.dtd">
<svg version="1.1" xmlns="http://www.w3.org/2000/svg" xmlns:xlink="http://www.w3.org/1999/xlink" viewBox="0 0 20.5381 20.1848">
 <g>
  <rect height="20.1848" opacity="0" width="20.5381" x="0" y="0"/>
  <path d="M10.0875 20.175C15.6576 20.175 20.1767 15.6559 20.1767 10.0875C20.1767 4.51914 15.6576 0 10.0875 0C4.51914 0 0 4.51914 0 10.0875C0 15.6559 4.51914 20.175 10.0875 20.175ZM10.0875 18.1879C5.60839 18.1879 1.9871 14.5666 1.9871 10.0875C1.9871 5.60839 5.60839 1.9871 10.0875 1.9871C14.5666 1.9871 18.1897 5.60839 18.1897 10.0875C18.1897 14.5666 14.5666 18.1879 10.0875 18.1879Z" fill="white" fill-opacity="0.85"/>
  <path d="M9.51875 5.54921L10.6572 5.54921L10.6572 4.33436C10.6572 4.02382 10.4008 3.77889 10.084 3.77889C9.76718 3.77889 9.51875 4.02382 9.51875 4.33436ZM5.39471 10.4689C5.57557 10.4689 5.73885 10.358 5.89647 10.1594C6.20487 9.69257 6.54706 9.49433 6.99862 9.49433C7.44394 9.49433 7.74785 9.69784 8.04003 10.1777C8.16777 10.3713 8.28574 10.4689 8.45253 10.4689C8.60956 10.4689 8.73554 10.3713 8.85526 10.1795C9.12792 9.73691 9.62187 9.4703 10.084 9.4703C10.5461 9.4703 11.04 9.73691 11.3127 10.1795C11.4324 10.3713 11.5584 10.4689 11.7154 10.4689C11.8822 10.4689 12.0002 10.3713 12.1279 10.1777C12.4201 9.69784 12.732 9.49433 13.1693 9.49433C13.6209 9.49433 13.9631 9.69257 14.2795 10.1594C14.4371 10.358 14.5924 10.4689 14.7732 10.4689C15.043 10.4689 15.2381 10.232 15.2381 9.93652C15.2381 7.90097 13.6121 5.02206 10.084 5.02206C6.55761 5.02206 4.92987 7.90097 4.92987 9.93652C4.92987 10.232 5.12499 10.4689 5.39471 10.4689ZM8.87792 15.8945C9.87499 15.8945 10.6572 15.175 10.6572 14.1434L10.6572 9.13808L9.51875 9.13808L9.51875 14.1328C9.51875 14.5025 9.24589 14.7772 8.87617 14.7772C8.51444 14.7772 8.2496 14.499 8.2496 14.1293C8.2496 13.777 8.01444 13.5 7.67187 13.5C7.34003 13.5 7.11113 13.7787 7.11113 14.1328C7.11113 15.1451 7.87284 15.8945 8.87792 15.8945Z" fill="white" fill-opacity="0.85"/>
 </g>
</svg>
