<?xml version="1.0" encoding="UTF-8"?>
<!--Generator: Apple Native CoreSVG 341-->
<!DOCTYPE svg
PUBLIC "-//W3C//DTD SVG 1.1//EN"
       "http://www.w3.org/Graphics/SVG/1.1/DTD/svg11.dtd">
<svg version="1.1" xmlns="http://www.w3.org/2000/svg" xmlns:xlink="http://www.w3.org/1999/xlink" viewBox="0 0 36.2554 17.7664">
 <g>
  <rect height="17.7664" opacity="0" width="36.2554" x="0" y="0"/>
  <path d="M33.3955 2.258C34.9832 3.97011 35.8941 6.34725 35.8941 8.88182C35.8941 11.4199 35.0095 13.7732 33.3955 15.5092C32.9611 15.9756 32.365 15.958 32.0261 15.5562C31.6943 15.173 31.7972 14.6824 32.1681 14.2627C33.4398 12.8498 34.1511 10.9551 34.1511 8.88182C34.1511 6.81034 33.4433 4.91737 32.1681 3.50448C31.7955 3.08475 31.6908 2.59413 32.0261 2.21092C32.3668 1.80292 32.9646 1.78808 33.3955 2.258ZM3.86796 2.20565C4.20332 2.58885 4.09863 3.08123 3.72597 3.50096C2.45078 4.9121 1.74296 6.80682 1.74296 8.87831C1.74296 10.9516 2.45429 12.8463 3.72597 14.2574C4.09687 14.6771 4.1998 15.1695 3.86796 15.5527C3.5291 15.9527 2.93301 15.9721 2.49863 15.5057C0.886329 13.7697 0 11.4164 0 8.87831C0 6.34374 0.910938 3.96659 2.49863 2.25272C2.92949 1.78456 3.52734 1.7994 3.86796 2.20565Z" fill="white" fill-opacity="0.85"/>
  <path d="M30.5593 5.06776C31.3966 6.08202 31.8691 7.43397 31.8691 8.88182C31.8691 10.3297 31.3966 11.6816 30.5593 12.6959C30.1631 13.174 29.5209 13.1607 29.1775 12.759C28.8545 12.3775 28.9779 11.9064 29.3009 11.4689C29.8412 10.7857 30.1261 9.84647 30.1261 8.88182C30.1261 7.91717 29.8412 6.97167 29.3009 6.29471C28.9797 5.85545 28.8545 5.38612 29.1775 5.00643C29.5209 4.59667 30.1631 4.58788 30.5593 5.06776ZM6.71659 5.00116C7.03964 5.3826 6.91444 5.85194 6.59316 6.28944C6.05292 6.96639 5.76796 7.91366 5.76796 8.87831C5.76796 9.84296 6.05292 10.7805 6.59316 11.4637C6.9162 11.9029 7.03964 12.374 6.71659 12.7537C6.37323 13.1555 5.73105 13.1705 5.33476 12.6906C4.49746 11.6781 4.025 10.3262 4.025 8.87831C4.025 7.43046 4.49746 6.0785 5.33476 5.06249C5.73105 4.58436 6.37323 4.59139 6.71659 5.00116Z" fill="white" fill-opacity="0.85"/>
  <path d="M26.8306 8.88182C26.8306 13.7887 22.8556 17.7556 17.9488 17.7556C13.042 17.7556 9.06699 13.7887 9.06699 8.88182C9.06699 3.97499 13.042 0 17.9488 0C22.8556 0 26.8306 3.97499 26.8306 8.88182ZM17.4316 3.7369L17.4316 4.37205C14.6176 4.63202 13.3238 7.03651 13.3238 8.75487C13.3238 9.01659 13.5011 9.23573 13.7451 9.23573C13.9064 9.23573 14.0537 9.1328 14.1935 8.95194C14.4779 8.5367 14.7783 8.36248 15.1818 8.36248C15.5676 8.36248 15.8457 8.54198 16.1076 8.9703C16.2238 9.1496 16.3338 9.23573 16.481 9.23573C16.622 9.23573 16.748 9.1496 16.85 8.98006C16.9834 8.74881 17.1986 8.57362 17.4316 8.48026L17.4316 12.5154C17.4316 12.8434 17.1943 13.0824 16.8629 13.0824C16.5429 13.0824 16.3039 12.8398 16.3039 12.5101C16.3039 12.1934 16.0945 11.9484 15.7857 11.9484C15.4797 11.9484 15.2685 12.1951 15.2685 12.5154C15.2685 13.4148 15.9627 14.0984 16.8664 14.0984C17.7603 14.0984 18.459 13.4465 18.459 12.5242L18.459 8.48026C18.684 8.57362 18.9072 8.74881 19.0406 8.98006C19.1408 9.14608 19.2685 9.23573 19.4096 9.23573C19.5568 9.23573 19.6588 9.1496 19.783 8.9703C20.0449 8.54198 20.315 8.36248 20.7088 8.36248C21.1123 8.36248 21.4127 8.5367 21.6891 8.95194C21.8369 9.1328 21.9744 9.23573 22.1375 9.23573C22.3894 9.23573 22.5668 9.01659 22.5668 8.75487C22.5668 7.03651 21.273 4.63202 18.459 4.37205L18.459 3.7369C18.459 3.45838 18.2363 3.23123 17.9453 3.23123C17.6543 3.23123 17.4316 3.45838 17.4316 3.7369Z" fill="white" fill-opacity="0.85"/>
 </g>
</svg>
