<?xml version="1.0" encoding="UTF-8"?>
<!--Generator: Apple Native CoreSVG 341-->
<!DOCTYPE svg
PUBLIC "-//W3C//DTD SVG 1.1//EN"
       "http://www.w3.org/Graphics/SVG/1.1/DTD/svg11.dtd">
<svg version="1.1" xmlns="http://www.w3.org/2000/svg" xmlns:xlink="http://www.w3.org/1999/xlink" viewBox="0 0 36.2554 17.7664">
 <g>
  <rect height="17.7664" opacity="0" width="36.2554" x="0" y="0"/>
  <path d="M3.86796 15.5527C4.1998 15.1695 4.09687 14.6771 3.72597 14.2574C2.45429 12.8463 1.74296 10.9516 1.74296 8.87831C1.74296 6.80682 2.45078 4.9121 3.72597 3.50096C4.09863 3.08123 4.20332 2.58885 3.86796 2.20565C3.52734 1.7994 2.92949 1.78456 2.49863 2.25272C0.910938 3.96659 0 6.34374 0 8.87831C0 11.4164 0.886329 13.7697 2.49863 15.5057C2.93301 15.9721 3.5291 15.9527 3.86796 15.5527ZM32.0261 15.5562C32.365 15.958 32.9611 15.9756 33.3955 15.5092C35.0095 13.7732 35.8941 11.4199 35.8941 8.88182C35.8941 6.34725 34.9832 3.97011 33.3955 2.258C32.9646 1.78808 32.3668 1.80292 32.0261 2.21092C31.6908 2.59413 31.7955 3.08475 32.1681 3.50448C33.4433 4.91737 34.1511 6.81034 34.1511 8.88182C34.1511 10.9551 33.4398 12.8498 32.1681 14.2627C31.7972 14.6824 31.6943 15.173 32.0261 15.5562Z" fill="white" fill-opacity="0.85"/>
  <path d="M6.71659 12.7537C7.03964 12.374 6.9162 11.9029 6.59316 11.4637C6.05292 10.7805 5.76796 9.84296 5.76796 8.87831C5.76796 7.91366 6.05292 6.96639 6.59316 6.28944C6.91444 5.85194 7.03964 5.3826 6.71659 5.00116C6.37323 4.59139 5.73105 4.58436 5.33476 5.06249C4.49746 6.0785 4.025 7.43046 4.025 8.87831C4.025 10.3262 4.49746 11.6781 5.33476 12.6906C5.73105 13.1705 6.37323 13.1555 6.71659 12.7537ZM29.1775 12.759C29.5209 13.1607 30.1631 13.174 30.5593 12.6959C31.3966 11.6816 31.8691 10.3297 31.8691 8.88182C31.8691 7.43397 31.3966 6.08202 30.5593 5.06776C30.1631 4.58788 29.5209 4.59667 29.1775 5.00643C28.8545 5.38612 28.9797 5.85545 29.3009 6.29471C29.8412 6.97167 30.1261 7.91717 30.1261 8.88182C30.1261 9.84647 29.8412 10.7857 29.3009 11.4689C28.9779 11.9064 28.8545 12.3775 29.1775 12.759Z" fill="white" fill-opacity="0.85"/>
  <path d="M17.9488 17.7556C22.8556 17.7556 26.8306 13.7887 26.8306 8.88182C26.8306 3.97499 22.8556 0 17.9488 0C13.042 0 9.06699 3.97499 9.06699 8.88182C9.06699 13.7887 13.042 17.7556 17.9488 17.7556ZM17.9488 15.8617C14.0887 15.8617 10.9609 12.742 10.9609 8.88182C10.9609 5.02167 14.0887 1.89569 17.9488 1.89569C21.8072 1.89569 24.9349 5.02167 24.9349 8.88182C24.9349 12.742 21.8072 15.8617 17.9488 15.8617Z" fill="white" fill-opacity="0.85"/>
  <path d="M17.4662 4.96463L18.4502 4.96463L18.4502 3.92127C18.4502 3.64979 18.231 3.4324 17.9533 3.4324C17.6756 3.4324 17.4662 3.64979 17.4662 3.92127ZM13.9144 9.20917C14.0722 9.20917 14.2 9.11776 14.3443 8.94843C14.6092 8.5412 14.9078 8.36873 15.2918 8.36873C15.6775 8.36873 15.9379 8.54647 16.1945 8.96503C16.301 9.13104 16.4092 9.20917 16.5467 9.20917C16.6842 9.20917 16.8004 9.13104 16.9006 8.96678C17.1279 8.58377 17.5588 8.35272 17.9533 8.35272C18.3558 8.35272 18.7787 8.58377 19.0158 8.96678C19.1142 9.13104 19.2305 9.20917 19.368 9.20917C19.5055 9.20917 19.6137 9.13104 19.7201 8.96503C19.9767 8.54647 20.2371 8.36873 20.6228 8.36873C21.0068 8.36873 21.2974 8.5412 21.5703 8.94843C21.7066 9.11776 21.8424 9.20917 22.0019 9.20917C22.2406 9.20917 22.4064 9.00331 22.4064 8.75311C22.4064 6.9992 20.999 4.50233 17.9533 4.50233C14.9076 4.50233 13.5082 6.9992 13.5082 8.75311C13.5082 9.00331 13.674 9.20917 13.9144 9.20917ZM16.9187 13.8875C17.7763 13.8875 18.4502 13.2666 18.4502 12.3824L18.4502 8.0658L17.4662 8.0658L17.4662 12.3736C17.4662 12.69 17.2351 12.9211 16.917 12.9211C16.5988 12.9211 16.3758 12.6883 16.3758 12.3701C16.3758 12.0648 16.1699 11.8234 15.8762 11.8234C15.5834 11.8234 15.3838 12.0666 15.3838 12.3736C15.3838 13.2385 16.0433 13.8875 16.9187 13.8875Z" fill="white" fill-opacity="0.85"/>
 </g>
</svg>
