<?xml version="1.0" encoding="UTF-8"?>
<!--Generator: Apple Native CoreSVG 341-->
<!DOCTYPE svg
PUBLIC "-//W3C//DTD SVG 1.1//EN"
       "http://www.w3.org/Graphics/SVG/1.1/DTD/svg11.dtd">
<svg version="1.1" xmlns="http://www.w3.org/2000/svg" xmlns:xlink="http://www.w3.org/1999/xlink" viewBox="0 0 12.0933 26.3597">
 <g>
  <rect height="26.3597" opacity="0" width="12.0933" x="0" y="0"/>
  <path d="M0.690425 26.3597L11.0336 26.3597C11.4244 26.3597 11.732 26.0654 11.732 25.6718C11.732 25.2801 11.4244 24.992 11.0336 24.992L0.690425 24.992C0.307615 24.992 0 25.2801 0 25.6718C0 26.0654 0.307615 26.3597 0.690425 26.3597Z" fill="white" fill-opacity="0.85"/>
  <path d="M0.690425 23.601L11.0336 23.601C11.4244 23.601 11.732 23.3146 11.732 22.9211C11.732 22.5293 11.4244 22.2332 11.0336 22.2332L0.690425 22.2332C0.307615 22.2332 0 22.5293 0 22.9211C0 23.3146 0.307615 23.601 0.690425 23.601Z" fill="white" fill-opacity="0.85"/>
  <path d="M5.86288 20.4992C9.4664 20.4992 11.732 18.3775 11.732 15.2566L11.732 6.97166C11.732 6.28944 11.2881 5.85956 10.5978 5.85956C9.91738 5.85956 9.48594 6.28944 9.48594 6.97166L9.48594 15.0539C9.48594 17.1332 8.1541 18.5139 5.86288 18.5139C3.57792 18.5139 2.24783 17.1332 2.24783 15.0539L2.24783 6.97166C2.24783 6.28944 1.80038 5.85956 1.1119 5.85956C0.433199 5.85956 0.00175774 6.28944 0.00175774 6.97166L0.00175774 15.2566C0.00175774 18.3775 2.25937 20.4992 5.86288 20.4992Z" fill="white" fill-opacity="0.85"/>
 </g>
</svg>
