<?xml version="1.0" encoding="UTF-8"?>
<!--Generator: Apple Native CoreSVG 341-->
<!DOCTYPE svg
PUBLIC "-//W3C//DTD SVG 1.1//EN"
       "http://www.w3.org/Graphics/SVG/1.1/DTD/svg11.dtd">
<svg version="1.1" xmlns="http://www.w3.org/2000/svg" xmlns:xlink="http://www.w3.org/1999/xlink" viewBox="0 0 18.5894 18.2316">
 <g>
  <rect height="18.2316" opacity="0" width="18.5894" x="0" y="0"/>
  <path d="M18.2281 3.17148L18.2281 15.0646C18.2281 17.1502 17.1404 18.2281 15.0246 18.2281L3.20351 18.2281C1.0957 18.2281 0 17.1502 0 15.0646L0 3.17148C0 1.08769 1.0957 0 3.20351 0L15.0246 0C17.1404 0 18.2281 1.08769 18.2281 3.17148ZM11.3123 5.17811L9.16933 11.699L9.0957 11.699L6.96073 5.17811C6.78416 4.57831 6.49608 4.31777 5.94667 4.31777C5.36894 4.31777 4.95234 4.6998 4.95234 5.25272C4.95234 5.42557 4.9834 5.5621 5.04277 5.7535L7.64805 12.6994C7.94336 13.5148 8.34473 13.8471 9.13925 13.8471C9.90526 13.8471 10.3474 13.4758 10.6383 12.6693L13.232 5.7535C13.2949 5.55858 13.3162 5.41678 13.3162 5.24569C13.3162 4.69003 12.9041 4.31777 12.3246 4.31777C11.7752 4.31777 11.4889 4.5748 11.3123 5.17811Z" fill="white" fill-opacity="0.85"/>
 </g>
</svg>
