<?xml version="1.0" encoding="UTF-8"?>
<!--Generator: Apple Native CoreSVG 341-->
<!DOCTYPE svg
PUBLIC "-//W3C//DTD SVG 1.1//EN"
       "http://www.w3.org/Graphics/SVG/1.1/DTD/svg11.dtd">
<svg version="1.1" xmlns="http://www.w3.org/2000/svg" xmlns:xlink="http://www.w3.org/1999/xlink" viewBox="0 0 13.573 22.6449">
 <g>
  <rect height="22.6449" opacity="0" width="13.573" x="0" y="0"/>
  <path d="M13.2117 6.30663L13.2117 16.3285C13.2117 20.0267 10.4879 22.6351 6.60761 22.6351C2.73359 22.6351 0 20.0267 0 16.3285L0 6.30663C0 2.60039 2.73359 0 6.60761 0C10.4879 0 13.2117 2.60039 13.2117 6.30663ZM2.84804 15.9197C2.84804 18.0184 4.50546 19.6775 6.60761 19.6775C8.708 19.6775 10.3557 18.0184 10.3557 15.9197C10.3557 13.8176 8.708 12.1664 6.60761 12.1664C4.50546 12.1664 2.84804 13.8176 2.84804 15.9197ZM8.90625 15.9197C8.90625 17.2236 7.90175 18.2246 6.60761 18.2246C5.30194 18.2246 4.29745 17.2236 4.29745 15.9197C4.29745 14.6141 5.30194 13.6096 6.60761 13.6096C7.90175 13.6096 8.90625 14.6141 8.90625 15.9197ZM2.84804 6.6914C2.84804 8.79355 4.50546 10.4447 6.60761 10.4447C8.708 10.4447 10.3557 8.79355 10.3557 6.6914C10.3557 4.59101 8.708 2.93359 6.60761 2.93359C4.50546 2.93359 2.84804 4.59101 2.84804 6.6914ZM7.94667 6.6914C7.94667 7.46035 7.36327 8.05175 6.60761 8.05175C5.85019 8.05175 5.25702 7.46035 5.25702 6.6914C5.25702 5.92773 5.85019 5.33632 6.60761 5.33632C7.36327 5.33632 7.94667 5.92773 7.94667 6.6914Z" fill="white" fill-opacity="0.85"/>
 </g>
</svg>
