<?xml version="1.0" encoding="UTF-8"?>
<!--Generator: Apple Native CoreSVG 341-->
<!DOCTYPE svg
PUBLIC "-//W3C//DTD SVG 1.1//EN"
       "http://www.w3.org/Graphics/SVG/1.1/DTD/svg11.dtd">
<svg version="1.1" xmlns="http://www.w3.org/2000/svg" xmlns:xlink="http://www.w3.org/1999/xlink" viewBox="0 0 20.5381 20.1812">
 <g>
  <rect height="20.1812" opacity="0" width="20.5381" x="0" y="0"/>
  <path d="M10.0875 20.175C15.6576 20.175 20.1767 15.6559 20.1767 10.0875C20.1767 4.51914 15.6576 0 10.0875 0C4.51914 0 0 4.51914 0 10.0875C0 15.6559 4.51914 20.175 10.0875 20.175ZM10.0875 18.1879C5.60839 18.1879 1.9871 14.5666 1.9871 10.0875C1.9871 5.60839 5.60839 1.9871 10.0875 1.9871C14.5666 1.9871 18.1897 5.60839 18.1897 10.0875C18.1897 14.5666 14.5666 18.1879 10.0875 18.1879Z" fill="white" fill-opacity="0.85"/>
  <path d="M4.75722 7.84609C4.75722 8.15116 5.00292 8.40663 5.31425 8.40663C5.63182 8.40663 5.88905 8.15116 5.88905 7.84609L5.88905 6.8328C5.88905 6.23475 6.22323 5.89081 6.83105 5.89081L7.85761 5.89081C8.16269 5.89081 8.42616 5.63534 8.42616 5.316C8.42616 5.00468 8.16269 4.75898 7.85761 4.75898L6.83105 4.75898C5.53749 4.75898 4.75722 5.55702 4.75722 6.8328ZM15.4115 7.84609L15.4115 6.8328C15.4115 5.55702 14.6152 4.75898 13.3279 4.75898L12.3031 4.75898C11.9998 4.75898 11.7346 5.00468 11.7346 5.316C11.7346 5.63534 11.9998 5.89081 12.3031 5.89081L13.3279 5.89081C13.9375 5.89081 14.2797 6.23475 14.2797 6.8328L14.2797 7.84609C14.2797 8.15116 14.5289 8.40663 14.8465 8.40663C15.1578 8.40663 15.4115 8.15116 15.4115 7.84609ZM4.75722 12.3262L4.75722 13.3314C4.75722 14.6072 5.53749 15.4053 6.83105 15.4053L7.85761 15.4053C8.16269 15.4053 8.42616 15.1613 8.42616 14.85C8.42616 14.5307 8.16269 14.2734 7.85761 14.2734L6.83105 14.2734C6.22323 14.2734 5.88905 13.9313 5.88905 13.3314L5.88905 12.3262C5.88905 12.0211 5.63182 11.7496 5.31425 11.7496C5.00292 11.7496 4.75722 12.0211 4.75722 12.3262ZM15.4115 12.3262C15.4115 12.0211 15.1578 11.7496 14.8465 11.7496C14.5289 11.7496 14.2797 12.0211 14.2797 12.3262L14.2797 13.3314C14.2797 13.9313 13.9375 14.2734 13.3279 14.2734L12.3031 14.2734C11.9998 14.2734 11.7346 14.5307 11.7346 14.85C11.7346 15.1613 11.9998 15.4053 12.3031 15.4053L13.3279 15.4053C14.6152 15.4053 15.4115 14.6072 15.4115 13.3314Z" fill="white" fill-opacity="0.85"/>
 </g>
</svg>
