<?xml version="1.0" encoding="UTF-8"?>
<!--Generator: Apple Native CoreSVG 341-->
<!DOCTYPE svg
PUBLIC "-//W3C//DTD SVG 1.1//EN"
       "http://www.w3.org/Graphics/SVG/1.1/DTD/svg11.dtd">
<svg version="1.1" xmlns="http://www.w3.org/2000/svg" xmlns:xlink="http://www.w3.org/1999/xlink" viewBox="0 0 20.5381 20.1848">
 <g>
  <rect height="20.1848" opacity="0" width="20.5381" x="0" y="0"/>
  <path d="M14.0879 18.856L14.3346 17.4883C12.1654 17.5328 10.75 13.9254 10.3187 10.9271C14.1318 7.47011 16.8482 3.08652 14.7371 1.37851L13.8279 2.42519C14.9977 3.26777 12.9793 6.64179 9.41836 9.88574C5.88847 8.43496 2.33984 7.88359 0.549214 9.99687L1.55507 10.7615C2.78867 9.41112 5.58691 9.8037 8.95176 11.2004C9.43183 14.3717 11.1143 18.7295 14.0879 18.856ZM11.7092 15.8613C18.1752 11.692 19.125 6.65683 18.582 5.01074L17.2506 5.40898C17.6551 6.55957 16.8824 10.9648 10.815 14.8057ZM9.12089 19.7537L10.1799 18.6432C8.53886 18.2125 5.07264 14.9727 4.94882 9.39355L3.56054 9.50976C3.69589 15.0875 7.03827 18.7654 9.12089 19.7537ZM12.5846 7.03651L13.1781 5.78671C10.4541 3.98105 5.6246 2.48066 1.87539 4.94043L1.98085 6.3996C5.28476 3.87069 9.86504 5.24511 12.5846 7.03651ZM10.0875 0C4.51914 0 0 4.51914 0 10.0875C0 15.6559 4.51914 20.175 10.0875 20.175C15.6576 20.175 20.1767 15.6559 20.1767 10.0875C20.1767 4.51914 15.6576 0 10.0875 0ZM10.0875 1.56366C14.7934 1.56366 18.6113 5.38339 18.6113 10.0875C18.6113 14.7916 14.7934 18.6113 10.0875 18.6113C5.38339 18.6113 1.56542 14.7916 1.56542 10.0875C1.56542 5.38339 5.38339 1.56366 10.0875 1.56366Z" fill="white" fill-opacity="0.85"/>
 </g>
</svg>
