<?xml version="1.0" encoding="UTF-8"?>
<!--Generator: Apple Native CoreSVG 341-->
<!DOCTYPE svg
PUBLIC "-//W3C//DTD SVG 1.1//EN"
       "http://www.w3.org/Graphics/SVG/1.1/DTD/svg11.dtd">
<svg version="1.1" xmlns="http://www.w3.org/2000/svg" xmlns:xlink="http://www.w3.org/1999/xlink" viewBox="0 0 20.5381 20.1848">
 <g>
  <rect height="20.1848" opacity="0" width="20.5381" x="0" y="0"/>
  <path d="M10.0875 20.175C15.6576 20.175 20.1767 15.6559 20.1767 10.0875C20.1767 4.51914 15.6576 0 10.0875 0C4.51914 0 0 4.51914 0 10.0875C0 15.6559 4.51914 20.175 10.0875 20.175ZM10.0875 18.1879C5.60839 18.1879 1.9871 14.5666 1.9871 10.0875C1.9871 5.60839 5.60839 1.9871 10.0875 1.9871C14.5666 1.9871 18.1897 5.60839 18.1897 10.0875C18.1897 14.5666 14.5666 18.1879 10.0875 18.1879Z" fill="white" fill-opacity="0.85"/>
  <path d="M7.5123 14.6402C8.0994 14.6402 8.48788 14.3361 8.61561 13.7617L10.0307 8.11814L10.1043 8.11814L11.5256 13.7617C11.6551 14.3361 12.0418 14.6402 12.6209 14.6402C13.2105 14.6402 13.5742 14.3352 13.71 13.7563L15.4977 6.60253C15.535 6.49511 15.543 6.39569 15.543 6.30604C15.543 5.81913 15.2068 5.47597 14.7066 5.47597C14.1984 5.47597 13.9432 5.733 13.8215 6.33534L12.5387 12.2L12.465 12.2L10.9844 6.23847C10.8672 5.75507 10.5709 5.52363 10.0715 5.52363C9.57207 5.52363 9.26152 5.75155 9.15234 6.23495L7.67616 12.2L7.60253 12.2L6.31971 6.33534C6.19979 5.733 5.95077 5.47597 5.44257 5.47597C4.93612 5.47597 4.608 5.81913 4.608 6.30604C4.608 6.39569 4.61601 6.49511 4.6453 6.60253L6.43125 13.7563C6.56699 14.3352 6.93066 14.6402 7.5123 14.6402Z" fill="white" fill-opacity="0.85"/>
 </g>
</svg>
