<?xml version="1.0" encoding="UTF-8"?>
<!--Generator: Apple Native CoreSVG 341-->
<!DOCTYPE svg
PUBLIC "-//W3C//DTD SVG 1.1//EN"
       "http://www.w3.org/Graphics/SVG/1.1/DTD/svg11.dtd">
<svg version="1.1" xmlns="http://www.w3.org/2000/svg" xmlns:xlink="http://www.w3.org/1999/xlink" viewBox="0 0 18.5894 18.2316">
 <g>
  <rect height="18.2316" opacity="0" width="18.5894" x="0" y="0"/>
  <path d="M18.2281 3.17148L18.2281 15.0646C18.2281 17.1502 17.1404 18.2281 15.0246 18.2281L3.20351 18.2281C1.0957 18.2281 0 17.1502 0 15.0646L0 3.17148C0 1.08769 1.0957 0 3.20351 0L15.0246 0C17.1404 0 18.2281 1.08769 18.2281 3.17148ZM13.0293 5.21698L11.6914 11.2953L11.616 11.2953L10.0848 5.1121C9.96581 4.61191 9.65624 4.36718 9.13027 4.36718C8.60429 4.36718 8.29199 4.60663 8.17929 5.11034L6.64628 11.2953L6.57089 11.2953L5.241 5.21698C5.12733 4.58808 4.85526 4.31777 4.32225 4.31777C3.7955 4.31777 3.45234 4.67421 3.45234 5.18769C3.45234 5.28085 3.46034 5.38651 3.4914 5.49745L5.33945 12.9197C5.47871 13.5269 5.86543 13.8471 6.47538 13.8471C7.08456 13.8471 7.49608 13.5279 7.62733 12.9234L9.08945 7.09002L9.17109 7.09002L10.635 12.9234C10.7662 13.5279 11.1777 13.8471 11.7771 13.8471C12.3951 13.8471 12.7818 13.5269 12.9211 12.9197L14.7789 5.49745C14.81 5.38651 14.818 5.28085 14.818 5.18769C14.818 4.67421 14.473 4.31777 13.9463 4.31777C13.415 4.31777 13.143 4.58808 13.0293 5.21698Z" fill="white" fill-opacity="0.85"/>
 </g>
</svg>
