<?xml version="1.0" encoding="UTF-8"?>
<!--Generator: Apple Native CoreSVG 341-->
<!DOCTYPE svg
PUBLIC "-//W3C//DTD SVG 1.1//EN"
       "http://www.w3.org/Graphics/SVG/1.1/DTD/svg11.dtd">
<svg version="1.1" xmlns="http://www.w3.org/2000/svg" xmlns:xlink="http://www.w3.org/1999/xlink" viewBox="0 0 17.107 21.1441">
 <g>
  <rect height="21.1441" opacity="0" width="17.107" x="0" y="0"/>
  <path d="M3.17148 21.1379L13.5742 21.1379C15.6598 21.1379 16.7457 20.0422 16.7457 17.9406L16.7457 3.20351C16.7457 1.09394 15.6678 0 13.5742 0L10.6545 0C10.2943 0 10.076 0.227344 10.076 0.58418C10.076 1.54883 9.40273 2.2793 8.37285 2.2793C7.34296 2.2793 6.66171 1.54883 6.66171 0.58418C6.66171 0.227344 6.44335 0 6.0832 0L3.17148 0C1.07968 0 0 1.09394 0 3.20351L0 17.9406C0 20.0422 1.08769 21.1379 3.17148 21.1379ZM3.33222 19.2246C2.38163 19.2246 1.91327 18.7234 1.91327 17.8217L1.91327 3.32245C1.91327 2.41268 2.38163 1.91151 3.33222 1.91151L6.21737 1.91151L5.07187 1.23183C5.2582 2.97772 6.55761 4.09804 8.37285 4.09804C10.1898 4.09804 11.4892 2.97772 11.6836 1.23183L10.5301 1.91151L13.4152 1.91151C14.3641 1.91151 14.8324 2.41268 14.8324 3.32245L14.8324 17.8217C14.8324 18.7234 14.3641 19.2246 13.4152 19.2246Z" fill="white" fill-opacity="0.85"/>
  <path d="M4.79823 7.48984L11.9537 7.48984C12.3061 7.48984 12.567 7.21737 12.567 6.85702C12.567 6.5162 12.3061 6.2455 11.9537 6.2455L4.79823 6.2455C4.43612 6.2455 4.17518 6.5162 4.17518 6.85702C4.17518 7.21737 4.43612 7.48984 4.79823 7.48984Z" fill="white" fill-opacity="0.85"/>
  <path d="M4.79823 10.8775L8.25487 10.8775C8.61522 10.8775 8.87616 10.6068 8.87616 10.266C8.87616 9.91367 8.61522 9.64121 8.25487 9.64121L4.79823 9.64121C4.43612 9.64121 4.17518 9.91367 4.17518 10.266C4.17518 10.6068 4.43612 10.8775 4.79823 10.8775Z" fill="white" fill-opacity="0.85"/>
 </g>
</svg>
