<?xml version="1.0" encoding="UTF-8"?>
<!--Generator: Apple Native CoreSVG 341-->
<!DOCTYPE svg
PUBLIC "-//W3C//DTD SVG 1.1//EN"
       "http://www.w3.org/Graphics/SVG/1.1/DTD/svg11.dtd">
<svg version="1.1" xmlns="http://www.w3.org/2000/svg" xmlns:xlink="http://www.w3.org/1999/xlink" viewBox="0 0 21.0066 21.1445">
 <g>
  <rect height="21.1445" opacity="0" width="21.0066" x="0" y="0"/>
  <path d="M14.1648 7.58182C14.3244 7.58182 14.4494 7.46834 14.4804 7.30428C14.9101 4.94003 15.2242 4.458 17.6578 4.11542C17.8351 4.09237 17.9504 3.95761 17.9504 3.79804C17.9504 3.62421 17.8351 3.4912 17.6578 3.46991C15.247 3.12734 14.8494 2.6123 14.4804 0.298827C14.4459 0.111718 14.3244 0 14.1648 0C13.991 0 13.866 0.111718 13.8367 0.290819C13.4105 2.63554 13.0824 3.12382 10.6656 3.46991C10.482 3.4912 10.3668 3.62421 10.3668 3.79804C10.3668 3.95761 10.482 4.08261 10.6656 4.11542C13.0631 4.4826 13.4562 4.92948 13.8367 7.29627C13.8597 7.46834 13.9767 7.58182 14.1648 7.58182ZM2.80683 15.6072C2.96562 15.6072 3.07383 15.499 3.09511 15.35C3.37929 13.5017 3.38633 13.3844 5.36797 13.0806C5.51875 13.0576 5.62519 12.9556 5.62519 12.8004C5.62519 12.6433 5.52051 12.5414 5.36797 12.5201C3.38105 12.1971 3.38105 12.0832 3.09511 10.249C3.07383 10.0982 2.96387 9.99002 2.80683 9.99002C2.65781 9.99002 2.54961 10.0982 2.52656 10.2508C2.24414 12.0867 2.23887 12.2076 0.260741 12.5201C0.102929 12.5414 0 12.6398 0 12.8004C0 12.9556 0.102929 13.0558 0.25371 13.0806C2.24238 13.4019 2.2459 13.514 2.52656 15.35C2.54961 15.499 2.65781 15.6072 2.80683 15.6072ZM6.11074 18.4209C6.23144 18.4209 6.31308 18.3312 6.34062 18.2105C6.52343 17.1248 6.48164 17.0847 7.70605 16.8549C7.82675 16.8256 7.90664 16.7394 7.90664 16.6267C7.90664 16.514 7.82851 16.4164 7.70781 16.3951C6.48964 16.167 6.53945 16.1429 6.34062 15.0297C6.31308 14.917 6.22168 14.8273 6.11074 14.8273C5.99004 14.8273 5.90664 14.917 5.8791 15.0457C5.65175 16.1429 5.73359 16.191 4.52343 16.3951C4.39121 16.4181 4.31133 16.506 4.31133 16.6267C4.31133 16.7394 4.39121 16.8256 4.51191 16.8549C5.73359 17.0847 5.65175 17.1248 5.8791 18.2088C5.90664 18.3312 5.99004 18.4209 6.11074 18.4209Z" fill="white" fill-opacity="0.85"/>
  <path d="M19.1016 19.3265C19.583 18.8273 19.583 18.056 19.0935 17.5568L6.32481 4.75723C5.83711 4.25977 5.02052 4.25977 4.54532 4.75723C4.06388 5.25821 4.06388 6.02949 4.55333 6.52871L17.3238 19.3265C17.8098 19.824 18.6281 19.816 19.1016 19.3265ZM18.4508 18.666C18.2965 18.8238 18.0482 18.8238 17.8904 18.666L8.83965 9.60819L9.39472 9.0541L18.4508 18.1154C18.6068 18.2715 18.6086 18.5099 18.4508 18.666Z" fill="white" fill-opacity="0.85"/>
 </g>
</svg>
