<?xml version="1.0" encoding="UTF-8"?>
<!--Generator: Apple Native CoreSVG 341-->
<!DOCTYPE svg
PUBLIC "-//W3C//DTD SVG 1.1//EN"
       "http://www.w3.org/Graphics/SVG/1.1/DTD/svg11.dtd">
<svg version="1.1" xmlns="http://www.w3.org/2000/svg" xmlns:xlink="http://www.w3.org/1999/xlink" viewBox="0 0 20.5381 20.1848">
 <g>
  <rect height="20.1848" opacity="0" width="20.5381" x="0" y="0"/>
  <path d="M10.0875 20.175C15.6576 20.175 20.1767 15.6559 20.1767 10.0875C20.1767 4.51914 15.6576 0 10.0875 0C4.51914 0 0 4.51914 0 10.0875C0 15.6559 4.51914 20.175 10.0875 20.175ZM10.0875 18.1879C5.60839 18.1879 1.9871 14.5666 1.9871 10.0875C1.9871 5.60839 5.60839 1.9871 10.0875 1.9871C14.5666 1.9871 18.1897 5.60839 18.1897 10.0875C18.1897 14.5666 14.5666 18.1879 10.0875 18.1879Z" fill="white" fill-opacity="0.85"/>
  <path d="M13.2238 4.80429L6.8871 4.80429C6.17343 4.80429 5.69413 5.30312 5.69413 6.04257L5.69413 7.36855L14.4168 7.36855L14.4168 6.04257C14.4168 5.30312 13.9375 4.80429 13.2238 4.80429ZM7.52304 6.76659C7.26386 6.76659 7.05351 6.54823 7.05351 6.28906C7.05351 6.02187 7.26386 5.81152 7.52304 5.81152C7.78222 5.81152 7.99257 6.02187 7.99257 6.28906C7.99257 6.54823 7.78222 6.76659 7.52304 6.76659ZM8.87421 6.76659C8.60702 6.76659 8.40468 6.54823 8.40468 6.28906C8.40468 6.02187 8.60702 5.81152 8.87421 5.81152C9.13339 5.81152 9.34374 6.02187 9.34374 6.28906C9.34374 6.54823 9.13339 6.76659 8.87421 6.76659ZM11.6633 6.58456C11.4885 6.58456 11.366 6.4621 11.366 6.28906C11.366 6.11777 11.4885 5.99531 11.6633 5.99531L12.8545 5.99531C13.0275 5.99531 13.15 6.11777 13.15 6.28906C13.15 6.4621 13.0275 6.58456 12.8545 6.58456ZM6.8871 15.3289L13.2238 15.3289C13.9375 15.3289 14.4168 14.8381 14.4168 14.0986L14.4168 8.08652L5.69413 8.08652L5.69413 14.0986C5.69413 14.8381 6.17343 15.3289 6.8871 15.3289ZM10.0555 14.2258C8.55839 14.2258 7.35077 13.0084 7.35077 11.5211C7.35077 10.032 8.55839 8.8164 10.0555 8.8164C11.5508 8.8164 12.7602 10.032 12.7602 11.5211C12.7602 13.0084 11.5508 14.2258 10.0555 14.2258ZM10.0555 13.5148C11.1674 13.5148 12.0492 12.641 12.0492 11.5211C12.0492 10.4172 11.1674 9.52734 10.0555 9.52734C8.94355 9.52734 8.06171 10.4172 8.06171 11.5211C8.06171 12.641 8.94355 13.5148 10.0555 13.5148Z" fill="white" fill-opacity="0.85"/>
 </g>
</svg>
