<?xml version="1.0" encoding="UTF-8"?>
<!--Generator: Apple Native CoreSVG 341-->
<!DOCTYPE svg
PUBLIC "-//W3C//DTD SVG 1.1//EN"
       "http://www.w3.org/Graphics/SVG/1.1/DTD/svg11.dtd">
<svg version="1.1" xmlns="http://www.w3.org/2000/svg" xmlns:xlink="http://www.w3.org/1999/xlink" viewBox="0 0 24.2542 23.1906">
 <g>
  <rect height="23.1906" opacity="0" width="24.2542" x="0" y="0"/>
  <path d="M20.6879 13.831C20.3954 13.7579 20.0962 13.7146 19.819 13.7146C19.1169 13.7146 18.4555 13.933 17.5422 14.4646C17.4761 14.4265 17.4114 14.39 17.3481 14.3555C17.3081 11.4113 14.9038 9.02772 11.9505 9.02772C8.96198 9.02772 6.5407 11.4553 6.5407 14.4357C6.5407 17.4162 8.96198 19.8375 11.9505 19.8375C12.0907 19.8375 12.2298 19.8321 12.366 19.8164L13.0219 21.5853C13.0811 21.7439 13.1535 21.8924 13.2388 22.0287L5.62351 22.0287C4.17996 22.0287 3.20496 21.0324 3.20496 19.5515L3.20496 7.51698L20.6879 7.51698ZM16.0607 13.816C15.7869 13.7466 15.5242 13.7146 15.2557 13.7146C14.8643 13.7146 14.4389 13.8008 14.0385 13.934C13.5036 13.4225 12.7426 13.2709 12.0596 13.5184C11.1014 13.868 10.5559 14.9406 10.9587 16.0211L11.9135 18.596C9.61239 18.5779 7.7821 16.7352 7.7821 14.4357C7.7821 12.1176 9.63229 10.2674 11.9505 10.2674C14.05 10.2674 15.7696 11.7955 16.0607 13.816ZM20.6879 3.45937L20.6879 6.0623L3.20496 6.0623L3.20496 3.45937C3.20496 1.98027 4.17996 0.974216 5.62351 0.974216L18.2774 0.974216C19.7112 0.974216 20.6879 1.98027 20.6879 3.45937ZM5.93582 3.94433C5.93582 4.458 6.36433 4.89804 6.88952 4.89804C7.41296 4.89804 7.83347 4.458 7.83347 3.94433C7.83347 3.41289 7.41296 2.98262 6.88952 2.98262C6.36433 2.98262 5.93582 3.41289 5.93582 3.94433ZM8.64401 3.94433C8.64401 4.458 9.06628 4.89804 9.58971 4.89804C10.1131 4.89804 10.5354 4.458 10.5354 3.94433C10.5354 3.41289 10.1131 2.98262 9.58971 2.98262C9.06628 2.98262 8.64401 3.41289 8.64401 3.94433ZM15.1717 3.36875C14.8339 3.36875 14.6087 3.60019 14.6087 3.94433C14.6087 4.28222 14.8339 4.51367 15.1717 4.51367L17.5231 4.51367C17.8672 4.51367 18.0924 4.28222 18.0924 3.94433C18.0924 3.60019 17.8672 3.36875 17.5231 3.36875Z" fill="white" fill-opacity="0.85"/>
  <path d="M15.3149 22.0287L19.7616 22.0287C20.2983 22.0287 20.7614 21.7289 20.969 21.1779L23.0323 15.6217C23.2149 15.1172 22.9631 14.7351 22.6192 14.6101C22.269 14.4771 21.8213 14.6004 21.6325 15.0969L21.4958 15.4564C21.0163 15.2078 20.5645 14.8766 19.8401 14.8766C18.7067 14.8766 18.3049 15.6266 17.5422 15.6266C16.7778 15.6266 16.368 14.8766 15.2364 14.8766C14.5102 14.8766 14.0665 15.2078 13.5887 15.4564L13.4422 15.0969C13.2614 14.6004 12.8057 14.4771 12.4635 14.6101C12.1116 14.7351 11.8678 15.1172 12.0505 15.6217L14.1137 21.1779C14.3133 21.7289 14.7844 22.0287 15.3149 22.0287ZM15.7092 20.5349C15.5547 20.5349 15.4516 20.4736 15.3868 20.2986L13.9565 16.4765C14.4104 16.2332 14.7337 15.9756 15.2364 15.9756C16.095 15.9756 16.37 16.7256 17.5422 16.7256C18.7047 16.7256 18.9797 15.9756 19.8401 15.9756C20.3491 15.9756 20.6643 16.2332 21.1182 16.4765L19.6879 20.2986C19.6231 20.4736 19.52 20.5349 19.3655 20.5349Z" fill="white" fill-opacity="0.85"/>
 </g>
</svg>
