<?xml version="1.0" encoding="UTF-8"?>
<!--Generator: Apple Native CoreSVG 341-->
<!DOCTYPE svg
PUBLIC "-//W3C//DTD SVG 1.1//EN"
       "http://www.w3.org/Graphics/SVG/1.1/DTD/svg11.dtd">
<svg version="1.1" xmlns="http://www.w3.org/2000/svg" xmlns:xlink="http://www.w3.org/1999/xlink" viewBox="0 0 21.2349 20.5395">
 <g>
  <rect height="20.5395" opacity="0" width="21.2349" x="0" y="0"/>
  <path d="M17.6933 3.61174C18.4557 4.15393 19.0293 4.55647 20.0137 4.55647L20.0713 4.55647C20.5137 4.55647 20.8736 4.90842 20.8736 5.34904C20.8736 5.79142 20.5137 6.15314 20.0713 6.15314L20.0137 6.15314C16.893 6.15314 16.6461 4.1549 15.1062 4.1549C13.5922 4.1549 13.1818 6.15314 10.4377 6.15314C7.68554 6.15314 7.2832 4.1549 5.76738 4.1549C4.22929 4.1549 3.97265 6.15314 0.859956 6.15314L0.802339 6.15314C0.351951 6.15314 0 5.79142 0 5.34904C0 4.90842 0.351951 4.55647 0.802339 4.55647L0.859956 4.55647C1.83633 4.55647 2.41797 4.15393 3.18203 3.61174C3.82031 3.14924 4.64296 2.55999 5.76738 2.55999C6.92558 2.55999 7.75624 3.17327 8.39452 3.65354C9.07538 4.16311 9.58866 4.55647 10.4377 4.55647C11.2769 4.55647 11.8 4.16311 12.4791 3.65354C13.1191 3.17327 13.948 2.55999 15.1062 2.55999C16.2324 2.55999 17.0533 3.14924 17.6933 3.61174Z" fill="white" fill-opacity="0.85"/>
  <path d="M17.6933 9.50491C18.4557 10.0551 19.0293 10.4496 20.0137 10.4496L20.0713 10.4496C20.5137 10.4496 20.8736 10.8096 20.8736 11.2502C20.8736 11.6926 20.5137 12.0445 20.0713 12.0445L20.0137 12.0445C16.893 12.0445 16.6461 10.0481 15.1062 10.0481C14.1044 10.0481 13.5858 10.9223 12.5512 11.5119L12.5512 9.49359C13.1807 9.02951 13.9907 8.45315 15.1062 8.45315C16.2324 8.45315 17.0533 9.04241 17.6933 9.50491ZM8.30645 9.48163L8.30645 11.5037C7.28114 10.9142 6.76579 10.0481 5.76738 10.0481C4.22929 10.0481 3.97265 12.0445 0.859956 12.0445L0.802339 12.0445C0.351951 12.0445 0 11.6926 0 11.2502C0 10.8096 0.351951 10.4496 0.802339 10.4496L0.859956 10.4496C1.83633 10.4496 2.41797 10.0551 3.18203 9.50491C3.82031 9.04241 4.64296 8.45315 5.76738 8.45315C6.8733 8.45315 7.68059 9.01962 8.30645 9.48163Z" fill="white" fill-opacity="0.85"/>
  <path d="M7.74707 14.4358C7.07461 14.4358 6.79258 15.0869 7.20137 15.6022L9.7955 18.9617C10.1797 19.4391 10.6719 19.4346 11.0516 18.9617L13.6439 15.5942C14.0465 15.0852 13.7592 14.4358 13.0965 14.4358ZM9.52988 8.78809L9.52988 16.1949C9.52988 16.6719 9.93418 17.077 10.4297 17.077C10.9252 17.077 11.3357 16.6719 11.3357 16.1949L11.3357 8.78809C11.3357 8.30939 10.9252 7.90607 10.4297 7.90607C9.93418 7.90607 9.52988 8.30939 9.52988 8.78809Z" fill="white" fill-opacity="0.85"/>
 </g>
</svg>
