<?xml version="1.0" encoding="UTF-8"?>
<!--Generator: Apple Native CoreSVG 341-->
<!DOCTYPE svg
PUBLIC "-//W3C//DTD SVG 1.1//EN"
       "http://www.w3.org/Graphics/SVG/1.1/DTD/svg11.dtd">
<svg version="1.1" xmlns="http://www.w3.org/2000/svg" xmlns:xlink="http://www.w3.org/1999/xlink" viewBox="0 0 21.2349 20.5441">
 <g>
  <rect height="20.5441" opacity="0" width="21.2349" x="0" y="0"/>
  <path d="M17.6933 9.50722C18.4557 10.0574 19.0293 10.4519 20.0137 10.4519L20.0713 10.4519C20.5137 10.4519 20.8736 10.8119 20.8736 11.2525C20.8736 11.6949 20.5137 12.0469 20.0713 12.0469L20.0137 12.0469C16.893 12.0469 16.6461 10.0504 15.1062 10.0504C14.7523 10.0504 14.4586 10.1595 14.1821 10.3292L13.1941 9.05212C13.7132 8.72944 14.3371 8.45547 15.1062 8.45547C16.2324 8.45547 17.0533 9.04472 17.6933 9.50722ZM7.66083 9.04013L6.67363 10.3191C6.40279 10.1549 6.11423 10.0504 5.76738 10.0504C4.22929 10.0504 3.97265 12.0469 0.859956 12.0469L0.802339 12.0469C0.351951 12.0469 0 11.6949 0 11.2525C0 10.8119 0.351951 10.4519 0.802339 10.4519L0.859956 10.4519C1.83633 10.4519 2.41797 10.0574 3.18203 9.50722C3.82031 9.04472 4.64296 8.45547 5.76738 8.45547C6.52692 8.45547 7.14559 8.72266 7.66083 9.04013Z" fill="white" fill-opacity="0.85"/>
  <path d="M17.6933 3.61406C18.4557 4.15624 19.0293 4.55879 20.0137 4.55879L20.0713 4.55879C20.5137 4.55879 20.8736 4.91074 20.8736 5.35136C20.8736 5.79374 20.5137 6.15546 20.0713 6.15546L20.0137 6.15546C16.893 6.15546 16.6461 4.15721 15.1062 4.15721C13.5922 4.15721 13.1818 6.15546 10.4377 6.15546C7.68554 6.15546 7.2832 4.15721 5.76738 4.15721C4.22929 4.15721 3.97265 6.15546 0.859956 6.15546L0.802339 6.15546C0.351951 6.15546 0 5.79374 0 5.35136C0 4.91074 0.351951 4.55879 0.802339 4.55879L0.859956 4.55879C1.83633 4.55879 2.41797 4.15624 3.18203 3.61406C3.82031 3.15156 4.64296 2.5623 5.76738 2.5623C6.92558 2.5623 7.75624 3.17558 8.39452 3.65586C9.07538 4.16543 9.58866 4.55879 10.4377 4.55879C11.2769 4.55879 11.8 4.16543 12.4791 3.65586C13.1191 3.17558 13.948 2.5623 15.1062 2.5623C16.2324 2.5623 17.0533 3.15156 17.6933 3.61406Z" fill="white" fill-opacity="0.85"/>
  <path d="M7.74707 12.799L13.0965 12.799C13.7592 12.799 14.0465 12.1496 13.6439 11.6326L11.0516 8.27303C10.6719 7.79217 10.1797 7.78768 9.7955 8.27303L7.20137 11.6246C6.79258 12.1478 7.07461 12.799 7.74707 12.799ZM9.52988 11.0318L9.52988 18.4404C9.52988 18.9174 9.93418 19.3287 10.4297 19.3287C10.9252 19.3287 11.3357 18.9174 11.3357 18.4404L11.3357 11.0318C11.3357 10.5549 10.9252 10.1515 10.4297 10.1515C9.93418 10.1515 9.52988 10.5549 9.52988 11.0318Z" fill="white" fill-opacity="0.85"/>
 </g>
</svg>
