<?xml version="1.0" encoding="UTF-8"?>
<!--Generator: Apple Native CoreSVG 341-->
<!DOCTYPE svg
PUBLIC "-//W3C//DTD SVG 1.1//EN"
       "http://www.w3.org/Graphics/SVG/1.1/DTD/svg11.dtd">
<svg version="1.1" xmlns="http://www.w3.org/2000/svg" xmlns:xlink="http://www.w3.org/1999/xlink" viewBox="0 0 22.0085 21.6082">
 <g>
  <rect height="21.6082" opacity="0" width="22.0085" x="0" y="0"/>
  <path d="M8.78305 15.9742C9.46215 16.4918 9.97719 16.8852 10.8245 16.8852C11.6735 16.8852 12.1868 16.4918 12.8676 15.9742C12.9347 15.9254 13.0036 15.8748 13.0754 15.8232L14.242 16.9891C13.4612 17.5797 12.6688 18.4801 10.8245 18.4801C8.07407 18.4801 7.67172 16.4836 6.1559 16.4836C4.61606 16.4836 4.36918 18.4801 1.24848 18.4801L1.19086 18.4801C0.748483 18.4801 0.388524 18.1201 0.388524 17.6778C0.388524 17.2371 0.748483 16.8852 1.19086 16.8852L1.24848 16.8852C2.22485 16.8852 2.80649 16.4826 3.57055 15.9405C4.20883 15.4699 5.02973 14.8887 6.1559 14.8887C7.3141 14.8887 8.14477 15.502 8.78305 15.9742Z" fill="white" fill-opacity="0.85"/>
  <path d="M18.0801 10.0393C18.8442 10.5895 19.4258 10.984 20.4022 10.984L20.4598 10.984C20.9022 10.984 21.2621 11.344 21.2621 11.7846C21.2621 12.227 20.9022 12.5789 20.4598 12.5789L20.4022 12.5789C17.2815 12.5789 17.0346 10.5824 15.4948 10.5824C14.9005 10.5824 14.4774 10.8893 14.0161 11.2633L12.8483 10.0956C12.8545 10.0909 12.8611 10.086 12.8676 10.0811C13.5059 9.60881 14.3366 8.98752 15.4948 8.98752C16.6209 8.98752 17.4418 9.57678 18.0801 10.0393ZM6.23874 8.99028L9.69261 12.4422C7.91993 12.0002 7.43327 10.5824 6.1559 10.5824C4.61606 10.5824 4.36918 12.5789 1.24848 12.5789L1.19086 12.5789C0.748483 12.5789 0.388524 12.227 0.388524 11.7846C0.388524 11.344 0.748483 10.984 1.19086 10.984L1.24848 10.984C2.22485 10.984 2.80649 10.5895 3.57055 10.0393C4.20883 9.57678 5.02973 8.98752 6.1559 8.98752C6.18401 8.98752 6.21192 8.98789 6.23874 8.99028Z" fill="white" fill-opacity="0.85"/>
  <path d="M18.0801 4.14612C18.8442 4.6883 19.4258 5.09084 20.4022 5.09084L20.4598 5.09084C20.9022 5.09084 21.2621 5.4428 21.2621 5.88342C21.2621 6.3258 20.9022 6.68751 20.4598 6.68751L20.4022 6.68751C17.2815 6.68751 17.0346 4.68927 15.4948 4.68927C13.9789 4.68927 13.5766 6.68751 10.8245 6.68751C10.1145 6.68751 9.56105 6.55371 9.10641 6.35406L5.86132 3.10929C5.95679 3.09922 6.05512 3.09436 6.1559 3.09436C7.3141 3.09436 8.14477 3.70764 8.78305 4.18791C9.46215 4.69748 9.97719 5.09084 10.8245 5.09084C11.6735 5.09084 12.1868 4.69748 12.8676 4.18791C13.5059 3.70764 14.3366 3.09436 15.4948 3.09436C16.6209 3.09436 17.4418 3.68362 18.0801 4.14612Z" fill="white" fill-opacity="0.85"/>
  <path d="M19.1006 20.199C19.4041 20.499 19.9082 20.5008 20.2002 20.199C20.5002 19.8875 20.5037 19.4029 20.2002 19.0994L2.49223 1.39319C2.18872 1.08968 1.68638 1.08167 1.38286 1.39319C1.08911 1.68694 1.08911 2.19905 1.38286 2.4928Z" fill="white" fill-opacity="0.85"/>
 </g>
</svg>
