<?xml version="1.0" encoding="UTF-8"?>
<!--Generator: Apple Native CoreSVG 341-->
<!DOCTYPE svg
PUBLIC "-//W3C//DTD SVG 1.1//EN"
       "http://www.w3.org/Graphics/SVG/1.1/DTD/svg11.dtd">
<svg version="1.1" xmlns="http://www.w3.org/2000/svg" xmlns:xlink="http://www.w3.org/1999/xlink" viewBox="0 0 17.107 21.1441">
 <g>
  <rect height="21.1441" opacity="0" width="17.107" x="0" y="0"/>
  <path d="M4.54823 8.04257C4.23769 8.04257 3.98749 7.78788 3.98749 7.48183C3.98749 7.18281 4.23944 6.93086 4.54823 6.93086L5.83886 6.93086L6.62578 3.66698C6.77128 3.08046 7.55292 3.09023 7.68339 3.68026L8.53359 7.82657L9.41054 5.01152C9.59687 4.44277 10.3457 4.42773 10.4894 4.98847L10.9859 6.93086L12.1975 6.93086C12.5195 6.93086 12.76 7.17128 12.76 7.48183C12.76 7.78788 12.5115 8.04257 12.1975 8.04257L10.6488 8.04257C10.3461 8.04257 10.1375 7.87558 10.0684 7.5914L9.91894 7.00253L9.01191 10.1023C8.82734 10.6826 8.05097 10.6791 7.925 10.0891L7.13066 6.25682L6.7998 7.58203C6.72792 7.86327 6.5203 8.04257 6.20526 8.04257ZM4.61581 13.776C4.23866 13.776 3.95292 13.4822 3.95292 13.1131C3.95292 12.7555 4.23866 12.4795 4.61581 12.4795L12.1441 12.4795C12.5195 12.4795 12.7973 12.7555 12.7973 13.1131C12.7973 13.4822 12.5195 13.776 12.1441 13.776ZM4.61581 16.7355C4.23866 16.7355 3.95292 16.4596 3.95292 16.102C3.95292 15.7328 4.23866 15.4391 4.61581 15.4391L8.25214 15.4391C8.63729 15.4391 8.90526 15.7328 8.90526 16.102C8.90526 16.4596 8.63729 16.7355 8.25214 16.7355ZM0 17.9406C0 20.0502 1.07968 21.1379 3.17148 21.1379L13.5742 21.1379C15.6678 21.1379 16.7457 20.0502 16.7457 17.9406L16.7457 3.20527C16.7457 1.10371 15.6678 0 13.5742 0L3.17148 0C1.07968 0 0 1.10371 0 3.20527Z" fill="white" fill-opacity="0.85"/>
 </g>
</svg>
