<?xml version="1.0" encoding="UTF-8"?>
<!--Generator: Apple Native CoreSVG 341-->
<!DOCTYPE svg
PUBLIC "-//W3C//DTD SVG 1.1//EN"
       "http://www.w3.org/Graphics/SVG/1.1/DTD/svg11.dtd">
<svg version="1.1" xmlns="http://www.w3.org/2000/svg" xmlns:xlink="http://www.w3.org/1999/xlink" viewBox="0 0 20.5381 20.1848">
 <g>
  <rect height="20.1848" opacity="0" width="20.5381" x="0" y="0"/>
  <path d="M20.1767 10.0973C20.1767 15.6656 15.6576 20.1848 10.0875 20.1848C4.52715 20.1848 0 15.6656 0 10.0973C0 4.53691 4.52715 0.00976562 10.0875 0.00976562C15.6576 0.00976562 20.1767 4.53691 20.1767 10.0973ZM7.6873 3.91249C6.49726 5.68378 5.84004 7.85937 5.84004 10.1043C5.84004 12.3492 6.49726 14.5391 7.6873 16.2863C7.94902 16.6686 8.42168 16.766 8.78164 16.5283C9.15488 16.2684 9.22304 15.7967 8.9623 15.4031C7.95058 13.9201 7.38378 12.0344 7.38378 10.1043C7.38378 8.14843 7.94257 6.2787 8.9623 4.8037C9.22304 4.40214 9.15488 3.93046 8.78164 3.68026C8.41367 3.4248 7.94101 3.52226 7.6873 3.91249ZM10.3354 5.62109C9.45801 6.84179 8.97578 8.43574 8.97578 10.1043C8.97578 11.7391 9.45801 13.333 10.3354 14.5857C10.5953 14.9484 11.0449 15.0504 11.4146 14.8019C11.7754 14.5625 11.8641 14.0748 11.59 13.6582C10.9176 12.7035 10.5355 11.4252 10.5355 10.1043C10.5355 8.77362 10.9176 7.4953 11.59 6.54061C11.8641 6.12577 11.7754 5.63808 11.4146 5.39863C11.0449 5.15644 10.5953 5.25038 10.3354 5.62109ZM12.9709 7.30488C12.432 8.05859 12.1213 9.08945 12.1213 10.1043C12.1213 11.1432 12.432 12.174 12.9709 12.8859C13.2051 13.2301 13.6805 13.325 14.0351 13.0908C14.4262 12.8176 14.5016 12.3414 14.2098 11.9133C13.8748 11.4381 13.681 10.7787 13.681 10.1043C13.681 9.40409 13.8748 8.74472 14.2098 8.28554C14.5096 7.85741 14.4342 7.36523 14.0351 7.09999C13.6805 6.87558 13.2148 6.96874 12.9709 7.30488Z" fill="white" fill-opacity="0.85"/>
 </g>
</svg>
