<?xml version="1.0" encoding="UTF-8"?>
<!--Generator: Apple Native CoreSVG 341-->
<!DOCTYPE svg
PUBLIC "-//W3C//DTD SVG 1.1//EN"
       "http://www.w3.org/Graphics/SVG/1.1/DTD/svg11.dtd">
<svg version="1.1" xmlns="http://www.w3.org/2000/svg" xmlns:xlink="http://www.w3.org/1999/xlink" viewBox="0 0 24.7014 23.1958">
 <g>
  <rect height="23.1958" opacity="0" width="24.7014" x="0" y="0"/>
  <path d="M0.794528 13.5965L3.67519 13.5965C4.00741 13.5965 4.2955 13.4332 4.40253 13.1254L4.94061 11.2102L4.37734 11.2102L5.87636 18.2637C6.02793 18.9832 7.15546 18.9832 7.26268 18.2557L8.33456 11.1813L9.63613 22.5582C9.73632 23.411 10.9648 23.403 11.0357 22.5582L12.2078 9.27186L13.3861 22.5502C13.457 23.411 14.6855 23.411 14.7857 22.5502L16.0891 11.1813L17.1592 18.2637C17.2664 18.9912 18.3939 18.9912 18.5455 18.2637L20.04 11.252L19.5072 11.26L20.0105 13.0463C20.1529 13.4319 20.4478 13.5965 20.8012 13.5965L23.5535 13.5965C23.9916 13.5965 24.34 13.2481 24.34 12.818C24.34 12.3879 23.9916 12.0315 23.5535 12.0315L21.1974 12.0315L20.4303 9.03227C20.2316 8.27251 19.2115 8.27251 19.0475 9.03227L17.9693 14.1817L16.6803 5.70434C16.5553 4.86665 15.3809 4.88442 15.2842 5.71235L14.175 15.3895L12.9187 1.09028C12.8416 0.226027 11.5803 0.226027 11.5031 1.09028L10.2469 15.3895L9.13944 5.71235C9.041 4.86665 7.8666 4.86665 7.7416 5.70434L6.45429 14.1817L5.3744 9.03227C5.21835 8.31606 4.18222 8.31606 3.9916 9.03227L3.22441 12.0315L0.794528 12.0315C0.348436 12.0315 0 12.3879 0 12.818C0 13.2481 0.348436 13.5965 0.794528 13.5965Z" fill="white" fill-opacity="0.85"/>
 </g>
</svg>
