<?xml version="1.0" encoding="UTF-8"?>
<!--Generator: Apple Native CoreSVG 341-->
<!DOCTYPE svg
PUBLIC "-//W3C//DTD SVG 1.1//EN"
       "http://www.w3.org/Graphics/SVG/1.1/DTD/svg11.dtd">
<svg version="1.1" xmlns="http://www.w3.org/2000/svg" xmlns:xlink="http://www.w3.org/1999/xlink" viewBox="0 0 15.1211 23.8499">
 <g>
  <rect height="23.8499" opacity="0" width="15.1211" x="0" y="0"/>
  <path d="M14.7594 11.9298C14.7594 7.70755 13.4369 3.76849 11.0488 0.514585C10.1858-0.661579 8.46722 0.417514 9.38362 1.61165C11.5803 4.5634 12.7387 8.1136 12.7387 11.9298C12.7387 15.746 11.5723 19.2882 9.39416 22.2277C8.50081 23.4068 10.1617 24.5452 11.0647 23.3275C13.4369 20.0831 14.7594 16.1441 14.7594 11.9298Z" fill="white" fill-opacity="0.85"/>
  <path d="M9.28595 11.9298C9.28595 8.79485 8.29455 5.84544 6.50529 3.46575C5.55002 2.20639 3.91312 3.44075 4.80374 4.5718C6.41311 6.64758 7.27327 9.1929 7.27327 11.9298C7.27327 14.6685 6.41311 17.2138 4.80374 19.2861C3.91312 20.4206 5.55002 21.6515 6.50529 20.3876C8.29455 18.0062 9.28595 15.0648 9.28595 11.9298Z" fill="white" fill-opacity="0.85"/>
  <path d="M3.82854 11.9298C3.82854 9.89348 3.1299 7.97981 1.88186 6.46224C0.94651 5.32416-0.548008 6.55228 0.205111 7.55676C1.3762 9.05871 1.80785 10.2796 1.80785 11.9298C1.80785 13.58 1.3762 14.8027 0.205111 16.3029C-0.54 17.2993 0.954518 18.5194 1.88186 17.3894C3.1299 15.8798 3.82854 13.9661 3.82854 11.9298Z" fill="white" fill-opacity="0.85"/>
 </g>
</svg>
