<?xml version="1.0" encoding="UTF-8"?>
<!--Generator: Apple Native CoreSVG 341-->
<!DOCTYPE svg
PUBLIC "-//W3C//DTD SVG 1.1//EN"
       "http://www.w3.org/Graphics/SVG/1.1/DTD/svg11.dtd">
<svg version="1.1" xmlns="http://www.w3.org/2000/svg" xmlns:xlink="http://www.w3.org/1999/xlink" viewBox="0 0 23.4906 18.2316">
 <g>
  <rect height="18.2316" opacity="0" width="23.4906" x="0" y="0"/>
  <path d="M0 10.0504L0 8.64121L3.60976 8.64121L5.30332 4.50097C5.56054 3.8748 6.44296 3.88457 6.63984 4.47519L8.77715 10.9617L9.40762 9.21601C9.54063 8.84609 9.76856 8.64121 10.1953 8.64121L12.5025 8.64121L14.2023 4.50097C14.4533 3.8748 15.342 3.88457 15.5309 4.47519L17.6762 10.9617L18.2986 9.21601C18.4397 8.84609 18.6693 8.64121 19.0863 8.64121L23.1293 8.64121L23.1293 10.0504L19.4941 10.0504L18.3564 13.6445C18.1596 14.2582 17.1938 14.2742 17.0066 13.6703L14.8641 6.7658L13.698 9.48085C13.5455 9.85253 13.3336 10.0504 12.9103 10.0504L10.5951 10.0504L9.45742 13.6445C9.26054 14.2582 8.30274 14.2742 8.11563 13.6703L5.96504 6.77283L4.85761 9.48085C4.70058 9.85429 4.48339 10.0504 3.90624 10.0504ZM3.20351 18.2316L19.9258 18.2316C22.0416 18.2316 23.1293 17.1519 23.1293 15.0682L23.1293 3.17499C23.1293 1.08945 22.0416 0.00351548 19.9258 0.00351548L3.20351 0.00351548C1.0957 0.00351548 0 1.08945 0 3.17499L0 15.0682C0 17.1519 1.0957 18.2316 3.20351 18.2316Z" fill="white" fill-opacity="0.85"/>
 </g>
</svg>
