<?xml version="1.0" encoding="UTF-8"?>
<!--Generator: Apple Native CoreSVG 341-->
<!DOCTYPE svg
PUBLIC "-//W3C//DTD SVG 1.1//EN"
       "http://www.w3.org/Graphics/SVG/1.1/DTD/svg11.dtd">
<svg version="1.1" xmlns="http://www.w3.org/2000/svg" xmlns:xlink="http://www.w3.org/1999/xlink" viewBox="0 0 20.1504 21.274">
 <g>
  <rect height="21.274" opacity="0" width="20.1504" x="0" y="0"/>
  <path d="M0.810347 12.6356L5.14355 12.6356C5.63222 12.6356 5.93984 12.4104 6.04628 11.9706L7.46328 5.45691L7.34023 5.45691L9.86855 20.6638C10.0051 21.4811 11.2578 21.4731 11.4174 20.6655L13.8473 9.25535L13.734 9.25437L14.2729 11.8854C14.3713 12.3874 14.6656 12.6356 15.1773 12.6356L18.9769 12.6356C19.4291 12.6356 19.7891 12.2854 19.7891 11.8448C19.7891 11.3892 19.4389 11.0425 18.9769 11.0425L15.3932 11.0425L15.6363 11.2118L14.4918 6.14912C14.3189 5.36006 13.1602 5.37158 12.9625 6.18017L10.5467 16.9589L10.6955 16.9958L8.15214 1.56377C8.02538 0.767679 6.86406 0.74639 6.68672 1.5585L4.60117 11.2101L4.77031 11.0425L0.810347 11.0425C0.351951 11.0425 0 11.4024 0 11.8448C0 12.2854 0.351951 12.6356 0.810347 12.6356Z" fill="white" fill-opacity="0.85"/>
 </g>
</svg>
