<?xml version="1.0" encoding="UTF-8"?>
<!--Generator: Apple Native CoreSVG 341-->
<!DOCTYPE svg
PUBLIC "-//W3C//DTD SVG 1.1//EN"
       "http://www.w3.org/Graphics/SVG/1.1/DTD/svg11.dtd">
<svg version="1.1" xmlns="http://www.w3.org/2000/svg" xmlns:xlink="http://www.w3.org/1999/xlink" viewBox="0 0 20.5381 20.1848">
 <g>
  <rect height="20.1848" opacity="0" width="20.5381" x="0" y="0"/>
  <path d="M10.0875 20.175C15.6576 20.175 20.1767 15.6559 20.1767 10.0875C20.1767 4.51914 15.6576 0 10.0875 0C4.51914 0 0 4.51914 0 10.0875C0 15.6559 4.51914 20.175 10.0875 20.175ZM10.0875 18.1879C5.60839 18.1879 1.9871 14.5666 1.9871 10.0875C1.9871 5.60839 5.60839 1.9871 10.0875 1.9871C14.5666 1.9871 18.1897 5.60839 18.1897 10.0875C18.1897 14.5666 14.5666 18.1879 10.0875 18.1879Z" fill="white" fill-opacity="0.85"/>
  <path d="M14.9842 11.8662C15.325 11.8662 15.5797 11.6098 15.5797 11.2592L15.5797 8.90331C15.5797 8.55097 15.3232 8.29628 14.9842 8.29628C14.6318 8.29628 14.3691 8.56073 14.3691 8.90331L14.3691 11.2592C14.3691 11.6035 14.6318 11.8662 14.9842 11.8662Z" fill="white" fill-opacity="0.85"/>
  <path d="M13.0148 14.0469C13.3574 14.0469 13.6201 13.7859 13.6201 13.4434L13.6201 6.71913C13.6201 6.37655 13.3574 6.11562 13.0148 6.11562C12.6723 6.11562 12.4096 6.37655 12.4096 6.71913L12.4096 13.4434C12.4096 13.7859 12.674 14.0469 13.0148 14.0469Z" fill="white" fill-opacity="0.85"/>
  <path d="M11.0553 12.3842C11.3978 12.3842 11.6588 12.1215 11.6588 11.7869L11.6588 8.37558C11.6588 8.03926 11.3961 7.77031 11.0553 7.77031C10.7225 7.77031 10.45 8.04101 10.45 8.37558L10.45 11.7869C10.45 12.1215 10.7225 12.3842 11.0553 12.3842Z" fill="white" fill-opacity="0.85"/>
  <path d="M9.10195 15.3525C9.43652 15.3525 9.69921 15.0881 9.69921 14.7375L9.69921 5.42499C9.69921 5.08065 9.43652 4.81796 9.10195 4.81796C8.76113 4.81796 8.49042 5.08241 8.49042 5.42499L8.49042 14.7375C8.49042 15.0961 8.75136 15.3525 9.10195 15.3525Z" fill="white" fill-opacity="0.85"/>
  <path d="M7.14062 13.2176C7.4832 13.2176 7.74765 12.9451 7.74765 12.606L7.74765 7.54843C7.74765 7.20937 7.4832 6.94492 7.14062 6.94492C6.79804 6.94492 6.5371 7.20937 6.5371 7.54843L6.5371 12.606C6.5371 12.9469 6.7998 13.2176 7.14062 13.2176Z" fill="white" fill-opacity="0.85"/>
  <path d="M5.16952 11.4721C5.52187 11.4721 5.78632 11.1996 5.78632 10.865L5.78632 9.29745C5.78632 8.96288 5.52187 8.69042 5.16952 8.69042C4.83847 8.69042 4.57402 8.96288 4.57402 9.29745L4.57402 10.865C4.57402 11.1996 4.84648 11.4721 5.16952 11.4721Z" fill="white" fill-opacity="0.85"/>
 </g>
</svg>
