<?xml version="1.0" encoding="UTF-8"?>
<!--Generator: Apple Native CoreSVG 341-->
<!DOCTYPE svg
PUBLIC "-//W3C//DTD SVG 1.1//EN"
       "http://www.w3.org/Graphics/SVG/1.1/DTD/svg11.dtd">
<svg version="1.1" xmlns="http://www.w3.org/2000/svg" xmlns:xlink="http://www.w3.org/1999/xlink" viewBox="0 0 22.8456 21.5397">
 <g>
  <rect height="21.5397" opacity="0" width="22.8456" x="0" y="0"/>
  <path d="M20.5101 8.19291L20.5101 13.345C20.5101 13.8204 20.1296 14.2054 19.64 14.2054C19.1503 14.2054 18.7814 13.8204 18.7814 13.345L18.7814 8.19291C18.7814 7.71752 19.1503 7.3228 19.64 7.3228C20.1296 7.3228 20.5101 7.71752 20.5101 8.19291Z" fill="white" fill-opacity="0.85"/>
  <path d="M17.1515 3.38001L17.1515 13.0327L15.4228 11.3049L15.4228 3.38001C15.4228 2.90463 15.7917 2.5099 16.2814 2.5099C16.7648 2.5099 17.1515 2.90463 17.1515 3.38001Z" fill="white" fill-opacity="0.85"/>
  <path d="M13.7849 15.2632L13.7849 16.0995C13.7849 16.5829 13.4062 16.9599 12.9228 16.9599C12.4251 16.9599 12.0562 16.5829 12.0562 16.0995L12.0562 13.536ZM13.7849 6.28802L13.7849 9.66792L12.0562 7.94018L12.0562 6.28802C12.0562 5.80463 12.4251 5.41791 12.9228 5.41791C13.4062 5.41791 13.7849 5.80463 13.7849 6.28802Z" fill="white" fill-opacity="0.85"/>
  <path d="M10.4281 11.9092L10.4281 20.3073C10.4281 20.7907 10.0476 21.1757 9.54818 21.1757C9.0683 21.1757 8.69935 20.7907 8.69935 20.3073L8.69935 10.182ZM10.4281 1.23236L10.4281 6.31296L8.69935 4.58521L8.69935 1.23236C8.69935 0.748961 9.0683 0.362244 9.54818 0.362244C10.0476 0.362244 10.4281 0.748961 10.4281 1.23236Z" fill="white" fill-opacity="0.85"/>
  <path d="M7.06947 8.5535L7.06947 16.5089C7.06947 16.9923 6.68275 17.3773 6.19134 17.3773C5.70971 17.3773 5.34076 16.9923 5.34076 16.5089L5.34076 6.82628Z" fill="white" fill-opacity="0.85"/>
  <path d="M3.70287 9.08998L3.70287 12.4462C3.70287 12.9296 3.32416 13.3146 2.83275 13.3146C2.34311 13.3146 1.97416 12.9296 1.97416 12.4462L1.97416 9.08998C1.97416 8.60834 2.34311 8.21186 2.83275 8.21186C3.32416 8.21186 3.70287 8.60834 3.70287 9.08998Z" fill="white" fill-opacity="0.85"/>
  <path d="M20.3165 20.096C20.6218 20.3978 21.1259 20.3943 21.4161 20.096C21.7214 19.7827 21.7179 19.3017 21.4161 18.9999L3.85365 1.43118C3.54838 1.12591 3.04603 1.12591 2.74428 1.42767C2.44428 1.71966 2.44603 2.23704 2.74428 2.52727Z" fill="white" fill-opacity="0.85"/>
 </g>
</svg>
