<?xml version="1.0" encoding="UTF-8"?>
<!--Generator: Apple Native CoreSVG 341-->
<!DOCTYPE svg
PUBLIC "-//W3C//DTD SVG 1.1//EN"
       "http://www.w3.org/Graphics/SVG/1.1/DTD/svg11.dtd">
<svg version="1.1" xmlns="http://www.w3.org/2000/svg" xmlns:xlink="http://www.w3.org/1999/xlink" viewBox="0 0 35.501 16.2609">
 <g>
  <rect height="16.2609" opacity="0" width="35.501" x="0" y="0"/>
  <path d="M2.66249 14.0326L5.85604 14.0326L5.85604 12.1352L2.84882 12.1352C2.24921 12.1352 1.89745 11.7336 1.89745 11.0441L1.89745 9.63534C1.89745 7.96464 2.98847 7.04334 5.37538 6.73963L9.39569 6.23807L13.6709 3.57674C15.8098 2.24139 17.0539 1.93768 20.7881 1.93768L28.5398 1.93768C30.1941 1.93768 31.1021 2.37479 31.8818 3.48397L32.323 4.11874C32.9047 4.95526 33.2422 5.97655 33.2422 6.8744L33.2422 11.0682C33.2422 11.7984 32.9553 12.1352 32.2988 12.1352L29.9193 12.1352L29.9193 14.0326L32.5273 14.0326C34.2855 14.0326 35.1396 13.0799 35.1396 11.1322L35.1396 6.8744C35.1396 5.62206 34.6711 4.18339 33.8873 3.0455L33.4461 2.39746C32.2896 0.713864 30.867 0.0402319 28.5398 0.0402319L20.7881 0.0402319C16.7295 0.0402319 15.083 0.439646 12.6588 1.95488L8.74609 4.40976L5.13163 4.85547C1.7207 5.27441 0 6.86113 0 9.63534L0 11.3115C0 13.0281 1.01308 14.0326 2.66249 14.0326ZM10.1373 14.0326L25.5379 14.0326L25.5379 12.1352L10.1373 12.1352ZM7.96405 16.2609C9.91991 16.2609 11.4621 14.7187 11.4621 12.7629C11.4621 10.8035 9.91991 9.26132 7.96405 9.26132C6.00644 9.26132 4.46426 10.8035 4.46426 12.7629C4.46426 14.7187 6.00644 16.2609 7.96405 16.2609ZM7.96405 14.432C7.02948 14.432 6.3037 13.7062 6.3037 12.7717C6.3037 11.8371 7.02948 11.1113 7.96405 11.1113C8.89863 11.1113 9.62441 11.8371 9.62441 12.7717C9.62441 13.7062 8.89863 14.432 7.96405 14.432ZM27.71 16.2609C29.6658 16.2609 31.208 14.7187 31.208 12.7629C31.208 10.8035 29.6658 9.26132 27.71 9.26132C25.7523 9.26132 24.2102 10.8035 24.2102 12.7629C24.2102 14.7187 25.7523 16.2609 27.71 16.2609ZM27.71 14.432C26.7754 14.432 26.0496 13.7062 26.0496 12.7717C26.0496 11.8371 26.7754 11.1113 27.71 11.1113C28.6428 11.1113 29.3703 11.8371 29.3703 12.7717C29.3703 13.7062 28.6428 14.432 27.71 14.432Z" fill="white" fill-opacity="0.85"/>
  <path d="M18.417 10.5945C20.1637 10.5945 21.8605 10.083 23.2402 9.15585C23.5488 8.94471 23.6232 8.58026 23.4361 8.28769C23.2365 8.00136 22.849 7.93847 22.5441 8.14687C21.3969 8.93476 19.9322 9.37539 18.417 9.37539C16.9195 9.37539 15.4451 8.93476 14.2978 8.14687C13.9752 7.93847 13.6055 7.99335 13.4041 8.28769C13.2125 8.56425 13.2851 8.94471 13.584 9.15585C14.9557 10.083 16.6605 10.5945 18.417 10.5945Z" fill="white" fill-opacity="0.85"/>
  <path d="M18.417 8.1496C19.717 8.1496 20.9637 7.77753 21.9162 7.08046C22.2018 6.88886 22.2842 6.52616 22.0863 6.23534C21.9055 5.95351 21.51 5.87812 21.1936 6.09452C20.4352 6.61503 19.4447 6.91445 18.417 6.91445C17.3875 6.91445 16.3908 6.61503 15.6502 6.09452C15.3142 5.87812 14.9348 5.95351 14.7494 6.23534C14.5596 6.52616 14.6225 6.88886 14.9195 7.08046C15.8846 7.77753 17.141 8.1496 18.417 8.1496Z" fill="white" fill-opacity="0.85"/>
  <path d="M18.417 5.70116C19.2027 5.70116 20.016 5.44901 20.5975 5.03358C20.868 4.84198 20.9416 4.47128 20.7598 4.18573C20.5549 3.87187 20.1691 3.81601 19.8234 4.0537C19.4762 4.31581 18.9572 4.46777 18.417 4.46777C17.8945 4.46777 17.3658 4.31581 17.0105 4.0537C16.6711 3.82402 16.2889 3.87988 16.076 4.18573C15.8941 4.47128 15.9598 4.84198 16.2383 5.03358C16.8037 5.44901 17.6055 5.70116 18.417 5.70116Z" fill="white" fill-opacity="0.85"/>
 </g>
</svg>
