<?xml version="1.0" encoding="UTF-8"?>
<!--Generator: Apple Native CoreSVG 341-->
<!DOCTYPE svg
PUBLIC "-//W3C//DTD SVG 1.1//EN"
       "http://www.w3.org/Graphics/SVG/1.1/DTD/svg11.dtd">
<svg version="1.1" xmlns="http://www.w3.org/2000/svg" xmlns:xlink="http://www.w3.org/1999/xlink" viewBox="0 0 20.5381 20.1848">
 <g>
  <rect height="20.1848" opacity="0" width="20.5381" x="0" y="0"/>
  <path d="M10.0875 20.175C15.6576 20.175 20.1767 15.6559 20.1767 10.0875C20.1767 4.51914 15.6576 0 10.0875 0C4.51914 0 0 4.51914 0 10.0875C0 15.6559 4.51914 20.175 10.0875 20.175ZM10.0875 18.1879C5.60839 18.1879 1.9871 14.5666 1.9871 10.0875C1.9871 5.60839 5.60839 1.9871 10.0875 1.9871C14.5666 1.9871 18.1897 5.60839 18.1897 10.0875C18.1897 14.5666 14.5666 18.1879 10.0875 18.1879Z" fill="white" fill-opacity="0.85"/>
  <path d="M10.0795 5.96191C7.91698 5.96191 5.80604 6.59785 4.12343 7.74179C3.76249 8 3.66854 8.44609 3.89296 8.79277C4.13339 9.14745 4.59452 9.21386 4.97127 8.95839C6.39667 7.98925 8.21679 7.43397 10.0795 7.43397C11.96 7.43397 13.7721 7.98124 15.1895 8.95839C15.5742 9.21386 16.0273 9.14745 16.266 8.79277C16.5082 8.43808 16.4062 7.99199 16.0453 7.74179C14.3369 6.59785 12.2437 5.96191 10.0795 5.96191Z" fill="white" fill-opacity="0.85"/>
  <path d="M10.0795 8.98515C8.49609 8.98515 6.96776 9.44609 5.76288 10.2889C5.41523 10.5373 5.32304 10.9701 5.55995 11.323C5.77987 11.667 6.24901 11.7476 6.64881 11.4869C7.56718 10.8375 8.80468 10.4732 10.0795 10.4732C11.3641 10.4732 12.5918 10.8375 13.5199 11.4869C13.9197 11.7476 14.3809 11.667 14.607 11.323C14.8359 10.9701 14.7535 10.5373 14.3961 10.2889C13.225 9.44609 11.6887 8.98515 10.0795 8.98515Z" fill="white" fill-opacity="0.85"/>
  <path d="M10.0795 12.0102C9.0787 12.0102 8.09218 12.3094 7.40331 12.8234C7.07421 13.0559 6.98281 13.5064 7.2037 13.8461C7.45741 14.2203 7.92128 14.2859 8.33436 14.0074C8.77851 13.684 9.42636 13.4982 10.0795 13.4982C10.7504 13.4982 11.3982 13.684 11.8344 14.0074C12.2457 14.2939 12.7113 14.2283 12.965 13.8461C13.1779 13.5064 13.0945 13.0639 12.7637 12.8234C12.0508 12.3094 11.058 12.0102 10.0795 12.0102Z" fill="white" fill-opacity="0.85"/>
 </g>
</svg>
