<?xml version="1.0" encoding="UTF-8"?>
<!--Generator: Apple Native CoreSVG 341-->
<!DOCTYPE svg
PUBLIC "-//W3C//DTD SVG 1.1//EN"
       "http://www.w3.org/Graphics/SVG/1.1/DTD/svg11.dtd">
<svg version="1.1" xmlns="http://www.w3.org/2000/svg" xmlns:xlink="http://www.w3.org/1999/xlink" viewBox="0 0 17.0754 25.0269">
 <g>
  <rect height="25.0269" opacity="0" width="17.0754" x="0" y="0"/>
  <path d="M3.17499 23.8678L13.5373 23.8678C15.6133 23.8678 16.7141 22.7572 16.7141 20.6502L16.7141 5.87539C16.7141 3.81016 15.6471 2.65782 13.6271 2.65782L13.4068 2.65782C13.443 2.77988 13.457 2.91875 13.457 3.05664L13.457 3.96191C13.457 4.16386 13.435 4.36054 13.381 4.53065L13.5873 4.53065C14.4156 4.53065 14.8412 5.06835 14.8412 5.89492L14.8412 20.6307C14.8412 21.5053 14.3658 21.9949 13.4557 21.9949L3.25839 21.9949C2.34647 21.9949 1.87284 21.5053 1.87284 20.6307L1.87284 5.89492C1.87284 5.06835 2.29843 4.53065 3.12675 4.53065L3.33124 4.53065C3.27734 4.36054 3.25527 4.16386 3.25527 3.96191L3.25527 3.05664C3.25527 2.91875 3.26933 2.77988 3.30722 2.65782L3.08515 2.65782C1.06699 2.65782 0 3.81016 0 5.87539L0 20.6502C0 22.7572 1.09902 23.8678 3.17499 23.8678ZM5.34648 5.08398L11.3658 5.08398C11.9533 5.08398 12.3074 4.70859 12.3074 4.08203L12.3074 3.05664C12.3074 2.42832 11.9533 2.05469 11.3658 2.05469L10.5377 2.05469C10.4641 0.91953 9.52148 0 8.35703 0C7.19257 0 6.25 0.91953 6.17636 2.05469L5.34648 2.05469C4.76074 2.05469 4.40664 2.42832 4.40664 3.05664L4.40664 4.08203C4.40664 4.70859 4.76074 5.08398 5.34648 5.08398ZM8.35703 2.99648C7.88124 2.99648 7.49511 2.60058 7.49511 2.13633C7.49511 1.65429 7.88124 1.26816 8.35703 1.26816C8.83281 1.26816 9.21718 1.65429 9.21718 2.13633C9.21718 2.60058 8.83281 2.99648 8.35703 2.99648Z" fill="white" fill-opacity="0.85"/>
  <path d="M4.94686 11.0021L6.43612 11.0021C6.73612 11.0021 6.94023 10.8326 7.00858 10.5521L7.25761 9.54003L7.9373 12.807C8.04999 13.383 8.82031 13.3865 8.99159 12.8283L9.74667 10.2049L9.84628 10.566C9.92168 10.8449 10.1187 11.0021 10.4144 11.0021L11.8006 11.0021C12.0961 11.0021 12.341 10.751 12.341 10.4617C12.341 10.16 12.1041 9.92481 11.8006 9.92481L10.7525 9.92481L10.3129 8.21601C10.1709 7.66934 9.4414 7.69062 9.25859 8.2293L8.53183 10.607L7.80605 7.04101C7.68534 6.47304 6.91503 6.45527 6.77304 7.02949L6.0705 9.92481L4.94686 9.92481C4.65136 9.92481 4.40644 10.1697 4.40644 10.4617C4.40644 10.751 4.6496 11.0021 4.94686 11.0021ZM4.14882 15.8232L12.5687 15.8232C12.9211 15.8232 13.198 15.5508 13.198 15.1984C13.198 14.8559 12.9211 14.5789 12.5687 14.5789L4.14882 14.5789C3.79472 14.5789 3.51601 14.8559 3.51601 15.1984C3.51601 15.5508 3.79472 15.8232 4.14882 15.8232ZM4.14882 19.4713L9.01445 19.4713C9.35702 19.4713 9.63573 19.1828 9.63573 18.8402C9.63573 18.4977 9.36679 18.227 9.01445 18.227L4.14882 18.227C3.79472 18.227 3.51601 18.4977 3.51601 18.8402C3.51601 19.1828 3.80273 19.4713 4.14882 19.4713Z" fill="white" fill-opacity="0.85"/>
 </g>
</svg>
