<?xml version="1.0" encoding="UTF-8"?>
<!--Generator: Apple Native CoreSVG 341-->
<!DOCTYPE svg
PUBLIC "-//W3C//DTD SVG 1.1//EN"
       "http://www.w3.org/Graphics/SVG/1.1/DTD/svg11.dtd">
<svg version="1.1" xmlns="http://www.w3.org/2000/svg" xmlns:xlink="http://www.w3.org/1999/xlink" viewBox="0 0 23.0566 20.1691">
 <g>
  <rect height="20.1691" opacity="0" width="23.0566" x="0" y="0"/>
  <path d="M6.54218 20.1656C10.1555 20.1656 13.0808 17.2224 13.0808 13.6252C13.0808 10.0084 10.167 7.08476 6.54218 7.08476C2.91562 7.08476 0 10.0084 0 13.6252C0 17.2322 2.91562 20.1656 6.54218 20.1656ZM6.53417 18.5049C3.81288 18.5049 1.66249 16.3367 1.66249 13.6172C1.66249 10.9172 3.82265 8.73748 6.53417 8.73748C9.25644 8.73748 11.4184 10.9172 11.4184 13.6172C11.4184 16.3332 9.25644 18.5049 6.53417 18.5049ZM6.54218 15.2164C7.42519 15.2164 8.15741 14.5082 8.15741 13.6252C8.15741 12.7084 7.43495 12.0099 6.54218 12.0099C5.65742 12.0099 4.94296 12.6986 4.94121 13.6234C4.93945 14.5082 5.64765 15.2164 6.54218 15.2164ZM6.68573 8.36228L8.38963 8.30447L6.87089 0.825194C6.76444 0.282226 6.52382 0 5.9375 0L2.74746 0C2.27481 0 1.89707 0.383983 1.89707 0.858395C1.89707 1.33105 2.27481 1.70702 2.74746 1.70702L5.17285 1.70702C5.26425 1.70702 5.29882 1.73007 5.3121 1.78769ZM6.68553 5.17967L14.5336 5.17967C14.9822 5.17967 15.3422 4.81971 15.3422 4.37909C15.3422 3.92245 14.9822 3.56249 14.5336 3.56249L6.59413 3.56249ZM11.934 13.6824L16.1064 13.6824C17.5707 13.6824 18.6808 12.5332 18.6808 11.108C18.6808 9.6535 17.5707 8.50428 16.1064 8.50428L9.3041 8.50428L10.7762 10.1144L15.9117 10.1144C16.4885 10.1144 16.899 10.541 16.899 11.0965C16.899 11.6555 16.4885 12.0723 15.9117 12.0723L11.926 12.0723ZM16.3094 16.5349L17.7461 15.759L16.5455 12.6283L14.7998 12.6701ZM17.8914 20.1656C19.3084 20.1656 20.4635 19.0123 20.4635 17.5855C20.4635 16.1703 19.3084 15.025 17.8914 15.025C16.4744 15.025 15.3193 16.1703 15.3193 17.5855C15.3193 19.0123 16.4824 20.1656 17.8914 20.1656ZM17.8914 18.6998C17.2641 18.6998 16.7851 18.2209 16.7851 17.5855C16.7851 16.9617 17.2641 16.4908 17.8914 16.4908C18.5268 16.4908 18.9959 16.9617 18.9959 17.5855C18.9959 18.2209 18.5268 18.6998 17.8914 18.6998ZM19.7576 18.4861L21.8369 18.4861C22.3096 18.4861 22.6953 18.1021 22.6953 17.6277C22.6953 17.1551 22.3096 16.7791 21.8369 16.7791L19.7096 16.7791Z" fill="white" fill-opacity="0.85"/>
 </g>
</svg>
