<?xml version="1.0" encoding="UTF-8"?>
<!--Generator: Apple Native CoreSVG 341-->
<!DOCTYPE svg
PUBLIC "-//W3C//DTD SVG 1.1//EN"
       "http://www.w3.org/Graphics/SVG/1.1/DTD/svg11.dtd">
<svg version="1.1" xmlns="http://www.w3.org/2000/svg" xmlns:xlink="http://www.w3.org/1999/xlink" viewBox="0 0 19.1133 18.7555">
 <g>
  <rect height="18.7555" opacity="0" width="19.1133" x="0" y="0"/>
  <path d="M17.5654 1.19805C16.5588 0.19492 15.1648 0 13.3877 0L5.34023 0C3.58711 0 2.1914 0.19492 1.18652 1.19805C0.183397 2.20117 0 3.57558 0 5.33222L0 13.3877C0 15.1701 0.183397 16.5463 1.18652 17.5476C2.19316 18.5508 3.58711 18.7439 5.35624 18.7439L13.3877 18.7439C15.1648 18.7439 16.5605 18.5508 17.5654 17.5476C18.5685 16.5428 18.7519 15.1701 18.7519 13.3877L18.7519 5.35624C18.7519 3.57558 18.5685 2.1914 17.5654 1.19805ZM16.8387 5.08281L16.8387 13.6531C16.8387 14.6695 16.7082 15.6037 16.1617 16.152C15.6215 16.6904 14.674 16.8307 13.6611 16.8307L5.09081 16.8307C4.07792 16.8307 3.13046 16.6904 2.58221 16.152C2.04374 15.6037 1.91327 14.6695 1.91327 13.6531L1.91327 5.10683C1.91327 4.07617 2.04374 3.13397 2.58221 2.59374C3.13046 2.04725 4.08593 1.91503 5.11484 1.91503L13.6611 1.91503C14.674 1.91503 15.6215 2.05526 16.1617 2.59374C16.7082 3.14198 16.8387 4.06816 16.8387 5.08281Z" fill="white" fill-opacity="0.85"/>
  <path d="M4.28807 14.8857L14.4559 14.8857C14.8117 14.8857 15.0957 14.6063 15.0957 14.2522C15.0957 13.9043 14.8117 13.6221 14.4559 13.6221L4.28807 13.6221C3.94022 13.6221 3.65624 13.9043 3.65624 14.2522C3.65624 14.6063 3.94022 14.8857 4.28807 14.8857ZM5.06268 7.88983L7.22225 7.88983C8.05155 7.88983 8.6287 7.32069 8.6287 6.48338L8.6287 4.94882C8.6287 4.11151 8.05155 3.53436 7.22225 3.53436L5.06268 3.53436C4.22538 3.53436 3.64823 4.11151 3.64823 4.94882L3.64823 6.48338C3.64823 7.32069 4.22538 7.88983 5.06268 7.88983Z" fill="white" fill-opacity="0.85"/>
 </g>
</svg>
