<?xml version="1.0" encoding="UTF-8"?>
<!--Generator: Apple Native CoreSVG 341-->
<!DOCTYPE svg
PUBLIC "-//W3C//DTD SVG 1.1//EN"
       "http://www.w3.org/Graphics/SVG/1.1/DTD/svg11.dtd">
<svg version="1.1" xmlns="http://www.w3.org/2000/svg" xmlns:xlink="http://www.w3.org/1999/xlink" viewBox="0 0 18.5894 18.2316">
 <g>
  <rect height="18.2316" opacity="0" width="18.5894" x="0" y="0"/>
  <path d="M3.20351 18.2281L15.0246 18.2281C17.1404 18.2281 18.2281 17.1502 18.2281 15.0646L18.2281 3.17148C18.2281 1.08769 17.1404 0 15.0246 0L3.20351 0C1.0957 0 0 1.08769 0 3.17148L0 15.0646C0 17.1502 1.0957 18.2281 3.20351 18.2281ZM3.31444 16.3148C2.40643 16.3148 1.91327 15.8465 1.91327 14.8977L1.91327 3.34023C1.91327 2.39139 2.40643 1.91503 3.31444 1.91503L14.9137 1.91503C15.8137 1.91503 16.3148 2.39139 16.3148 3.34023L16.3148 14.8977C16.3148 15.8465 15.8137 16.3148 14.9137 16.3148Z" fill="white" fill-opacity="0.85"/>
  <path d="M3.81151 8.51132C3.9455 8.66308 4.17714 8.65507 4.3289 8.49179C5.57382 7.15976 7.23984 6.44843 9.11894 6.44843C11.0078 6.44843 12.6854 7.16152 13.933 8.50331C14.075 8.64531 14.2969 8.65331 14.4326 8.50331L15.1447 7.76542C15.2654 7.6412 15.277 7.46464 15.1723 7.32617C13.8785 5.72968 11.4801 4.65878 9.11894 4.65878C6.76406 4.65878 4.36562 5.72968 3.07186 7.32617C2.95917 7.46464 2.9787 7.6412 3.0914 7.76542Z" fill="white" fill-opacity="0.85"/>
  <path d="M5.9871 10.6693C6.14062 10.8273 6.34472 10.8158 6.51249 10.6498C7.15273 9.94375 8.15449 9.49257 9.11894 9.50058C10.0816 9.49257 11.0852 9.94375 11.7512 10.6578C11.9012 10.8273 12.1053 10.8273 12.249 10.6693L13.065 9.87187C13.1875 9.74941 13.207 9.56836 13.0863 9.43613C12.2152 8.38828 10.6906 7.72402 9.11894 7.72402C7.55527 7.72402 6.0289 8.38828 5.1578 9.43613C5.03886 9.57636 5.04862 9.7414 5.18886 9.87187Z" fill="white" fill-opacity="0.85"/>
  <path d="M9.11894 13.5693C9.26894 13.5693 9.37539 13.5055 9.61425 13.2924L10.893 12.0625C11.0074 11.9383 11.0269 11.76 10.924 11.6277C10.5281 11.1039 9.82128 10.7611 9.11894 10.7611C8.40507 10.7611 7.70898 11.1172 7.29882 11.6783C7.20742 11.7928 7.23847 11.9418 7.36093 12.0625L8.63164 13.2924C8.8625 13.4975 8.96894 13.5693 9.11894 13.5693Z" fill="white" fill-opacity="0.85"/>
 </g>
</svg>
