<?xml version="1.0" encoding="UTF-8"?>
<!--Generator: Apple Native CoreSVG 341-->
<!DOCTYPE svg
PUBLIC "-//W3C//DTD SVG 1.1//EN"
       "http://www.w3.org/Graphics/SVG/1.1/DTD/svg11.dtd">
<svg version="1.1" xmlns="http://www.w3.org/2000/svg" xmlns:xlink="http://www.w3.org/1999/xlink" viewBox="0 0 23.1262 21.3902">
 <g>
  <rect height="21.3902" opacity="0" width="23.1262" x="0" y="0"/>
  <path d="M18.7402 11.4053C18.9061 11.6004 18.883 11.8434 18.7057 12.0189L17.1709 13.5246C16.9332 13.7393 16.6539 13.7525 16.4553 13.5246C15.8014 12.8203 14.9429 12.2203 13.9835 11.8204C13.9956 10.7714 14.0101 9.67355 14.0247 8.56948C15.9917 9.0757 17.6771 10.1181 18.7402 11.4053ZM8.79488 11.8106C7.84537 12.2022 6.99549 12.7915 6.35216 13.4918C6.134 13.7312 5.83165 13.7588 5.59396 13.5326L4.0592 12.0189C3.87384 11.8273 3.85881 11.6004 4.02463 11.4053C5.09052 10.1162 6.7788 9.07269 8.74909 8.5674C8.76492 9.66871 8.78078 10.7639 8.79488 11.8106Z" fill="white" fill-opacity="0.85"/>
  <path d="M8.71048 5.81732C6.24299 6.32448 4.04152 7.5574 2.25177 9.45312C2.04513 9.67304 1.72951 9.6748 1.5131 9.46464L0.14611 8.07461C-0.0409982 7.88125-0.0445137 7.62949 0.113298 7.44414C1.97865 5.1309 5.15598 3.33966 8.67272 2.71535C8.68268 3.6929 8.69578 4.73935 8.71048 5.81732ZM22.6516 7.44414C22.8094 7.62949 22.8139 7.88125 22.6188 8.07461L21.2518 9.44336C21.0371 9.65351 20.733 9.66328 20.5344 9.46464C18.7555 7.56383 16.5442 6.32509 14.06 5.8163C14.0734 4.7388 14.0847 3.69261 14.0922 2.71492C17.6101 3.33891 20.7794 5.13042 22.6516 7.44414Z" fill="white" fill-opacity="0.85"/>
  <path d="M11.3824 18.9822C12.3145 18.9822 13.0602 18.2381 13.0602 17.3228C13.0602 16.3996 12.3145 15.6715 11.3824 15.6715C10.4531 15.6715 9.70295 16.3996 9.70295 17.3228C9.70295 18.2381 10.4531 18.9822 11.3824 18.9822ZM11.3904 14.0256C12.0645 14.0256 12.4793 13.5994 12.4979 12.9041C12.5307 9.67422 12.5934 5.81485 12.6174 2.66835C12.6174 1.97812 12.0908 1.46543 11.3842 1.46543C10.6776 1.46543 10.1475 1.97812 10.1475 2.66835C10.1795 5.81309 10.244 9.67422 10.2848 12.9041C10.3033 13.5994 10.7147 14.0256 11.3904 14.0256Z" fill="white" fill-opacity="0.85"/>
 </g>
</svg>
