<?xml version="1.0" encoding="UTF-8"?>
<!--Generator: Apple Native CoreSVG 341-->
<!DOCTYPE svg
PUBLIC "-//W3C//DTD SVG 1.1//EN"
       "http://www.w3.org/Graphics/SVG/1.1/DTD/svg11.dtd">
<svg version="1.1" xmlns="http://www.w3.org/2000/svg" xmlns:xlink="http://www.w3.org/1999/xlink" viewBox="0 0 23.1262 23.4639">
 <g>
  <rect height="23.4639" opacity="0" width="23.1262" x="0" y="0"/>
  <path d="M6.46287 7.54993C4.89657 8.20408 3.4776 9.19156 2.25177 10.49C2.04513 10.7099 1.72951 10.7116 1.5131 10.5015L0.14611 9.11145C-0.0409982 8.91809-0.0445137 8.66634 0.113298 8.48099C1.13065 7.21935 2.53827 6.11299 4.17864 5.26642ZM22.6516 8.48099C22.8094 8.66634 22.8139 8.91809 22.6188 9.11145L21.2518 10.4802C21.0371 10.6904 20.733 10.7001 20.5344 10.5015C18.1375 7.94036 14.9557 6.58118 11.3824 6.58118C11.2857 6.58118 11.1894 6.58218 11.0965 6.59491L8.32197 3.82009C9.31841 3.61382 10.3466 3.5056 11.3824 3.5056C15.9295 3.5056 20.3074 5.58392 22.6516 8.48099Z" fill="white" fill-opacity="0.85"/>
  <path d="M11.2369 12.3224C9.35829 12.3571 7.51679 13.2608 6.35216 14.5286C6.134 14.7681 5.83165 14.7956 5.59396 14.5695L4.0592 13.0558C3.87384 12.8642 3.85881 12.6372 4.02463 12.4421C5.05737 11.1931 6.67439 10.1747 8.56577 9.65216ZM18.7402 12.4421C18.9061 12.6372 18.883 12.8802 18.7057 13.0558L18.1256 13.6248L14.1342 9.63292C16.0536 10.1511 17.6967 11.1786 18.7402 12.4421Z" fill="white" fill-opacity="0.85"/>
  <path d="M14.6674 16.5523C14.827 16.7509 14.7861 17.0062 14.615 17.1755L12.2164 19.48C11.825 19.8599 11.6201 19.9681 11.3842 19.9681C11.15 19.9681 10.9451 19.8519 10.552 19.48L8.15958 17.1755C7.98752 17.0115 7.93615 16.8023 8.04962 16.6267C8.72658 15.7191 9.97169 14.9857 11.3842 14.9857C12.7611 14.9857 13.9922 15.688 14.6674 16.5523Z" fill="white" fill-opacity="0.85"/>
  <path d="M19.6289 19.0163C19.9342 19.3198 20.4365 19.3163 20.7285 19.0163C21.024 18.7048 21.0303 18.222 20.7285 17.922L4.23595 1.43118C3.93068 1.12591 3.43458 1.12591 3.12658 1.42767C2.83283 1.71966 2.83283 2.24505 3.12658 2.52727Z" fill="white" fill-opacity="0.85"/>
 </g>
</svg>
