<?xml version="1.0" encoding="UTF-8"?>
<!--Generator: Apple Native CoreSVG 341-->
<!DOCTYPE svg
PUBLIC "-//W3C//DTD SVG 1.1//EN"
       "http://www.w3.org/Graphics/SVG/1.1/DTD/svg11.dtd">
<svg version="1.1" xmlns="http://www.w3.org/2000/svg" xmlns:xlink="http://www.w3.org/1999/xlink" viewBox="0 0 20.5381 20.1848">
 <g>
  <rect height="20.1848" opacity="0" width="20.5381" x="0" y="0"/>
  <path d="M20.1767 10.0875C20.1767 15.6559 15.6576 20.175 10.0875 20.175C4.51914 20.175 0 15.6559 0 10.0875C0 4.51914 4.51914 0 10.0875 0C15.6576 0 20.1767 4.51914 20.1767 10.0875ZM1.9871 10.0875C1.9871 14.5666 5.60839 18.1879 10.0875 18.1879C14.5666 18.1879 18.1897 14.5666 18.1897 10.0875C18.1897 5.60839 14.5666 1.9871 10.0875 1.9871C5.60839 1.9871 1.9871 5.60839 1.9871 10.0875Z" fill="white" fill-opacity="0.85"/>
  <path d="M14.0865 10.4162C14.1992 10.5484 14.1894 10.733 14.0555 10.8555L13.2439 11.6582C13.0984 11.8162 12.8908 11.8162 12.7328 11.6467C12.3915 11.2766 11.9562 10.977 11.4824 10.7752C11.488 10.1596 11.4956 9.51575 11.5037 8.86987C12.5445 9.13486 13.4764 9.68211 14.0865 10.4162ZM8.68314 10.7788C8.2177 10.9797 7.79389 11.2755 7.46523 11.6387C7.2957 11.8064 7.08808 11.8162 6.93281 11.6582L6.12753 10.8555C5.9873 10.725 5.97753 10.5564 6.09023 10.4162C6.69793 9.68497 7.62497 9.13912 8.66024 8.87274C8.66839 9.51894 8.67617 10.1631 8.68314 10.7788ZM8.64334 7.55776C7.342 7.82802 6.18777 8.4774 5.26405 9.4666C5.1123 9.62988 4.87714 9.63788 4.7414 9.48437L4.01601 8.7332C3.89355 8.60898 3.88378 8.43066 3.99648 8.28867C5.0311 7.01251 6.76022 6.07149 8.61884 5.73931C8.62678 6.31425 8.63509 6.92805 8.64334 7.55776ZM16.1803 8.28867C16.293 8.43066 16.2832 8.60898 16.159 8.7332L15.4353 9.47636C15.2978 9.62812 15.0725 9.62011 14.9385 9.47636C14.0072 8.47675 12.8361 7.82346 11.5204 7.5538C11.5285 6.92472 11.5361 6.31139 11.542 5.73646C13.4072 6.06641 15.1429 7.00906 16.1803 8.28867Z" fill="white" fill-opacity="0.85"/>
  <path d="M10.0875 11.9111C10.441 11.9111 10.6689 11.6744 10.6822 11.3094C10.7017 9.53066 10.7291 7.44062 10.7531 5.70409C10.7531 5.32557 10.4533 5.05448 10.0795 5.05448C9.70918 5.05448 9.41387 5.32557 9.41387 5.70409C9.43965 7.44062 9.47324 9.53066 9.49453 11.3094C9.50605 11.6744 9.72773 11.9111 10.0875 11.9111ZM10.0795 14.5703C10.5869 14.5703 10.9976 14.1666 10.9976 13.6662C10.9976 13.1721 10.5869 12.7684 10.0795 12.7684C9.58183 12.7684 9.15957 13.1641 9.15957 13.6662C9.15957 14.1666 9.58183 14.5703 10.0795 14.5703Z" fill="white" fill-opacity="0.85"/>
 </g>
</svg>
