<?xml version="1.0" encoding="UTF-8"?>
<!--Generator: Apple Native CoreSVG 341-->
<!DOCTYPE svg
PUBLIC "-//W3C//DTD SVG 1.1//EN"
       "http://www.w3.org/Graphics/SVG/1.1/DTD/svg11.dtd">
<svg version="1.1" xmlns="http://www.w3.org/2000/svg" xmlns:xlink="http://www.w3.org/1999/xlink" viewBox="0 0 29.0086 19.3879">
 <g>
  <rect height="19.3879" opacity="0" width="29.0086" x="0" y="0"/>
  <path d="M14.3205 0C12.1263 0 9.98729 0.64297 8.27654 1.80274C7.90682 2.06621 7.80936 2.52461 8.0408 2.88007C8.29276 3.24531 8.75818 3.31347 9.14548 3.05097C10.592 2.07304 12.4332 1.51249 14.3205 1.51249C16.2301 1.51249 18.057 2.06503 19.5035 3.05097C19.8908 3.31347 20.3545 3.24531 20.5984 2.88007C20.8459 2.5166 20.7502 2.0582 20.3707 1.80274C18.6457 0.64297 16.5146 0 14.3205 0Z" fill="white" fill-opacity="0.85"/>
  <path d="M14.3205 3.0707C12.7222 3.0707 11.1631 3.54043 9.94061 4.39199C9.58416 4.64746 9.4867 5.09082 9.73065 5.45429C9.96385 5.80878 10.4355 5.88945 10.8476 5.62343C11.7783 4.97323 13.0299 4.59745 14.3205 4.59745C15.6191 4.59745 16.8689 4.97323 17.8014 5.62343C18.2135 5.88945 18.6834 5.80878 18.9166 5.45429C19.1605 5.09082 19.0648 4.64746 18.7004 4.39199C17.5099 3.54043 15.9508 3.0707 14.3205 3.0707Z" fill="white" fill-opacity="0.85"/>
  <path d="M14.3205 6.14492C13.3119 6.14492 12.3015 6.44941 11.6039 6.97051C11.2642 7.2082 11.1711 7.66933 11.3955 8.01952C11.6642 8.40429 12.1324 8.46991 12.5578 8.19413C13.0135 7.85917 13.6603 7.67167 14.3205 7.67167C15.0047 7.67167 15.6516 7.85917 16.0912 8.19413C16.5148 8.47792 16.9928 8.4123 17.2597 8.01952C17.4779 7.66933 17.383 7.21621 17.0531 6.97051C16.3217 6.44941 15.3113 6.14492 14.3205 6.14492Z" fill="white" fill-opacity="0.85"/>
  <path d="M2.90468 19.3621L25.7443 19.3621C27.5408 19.3621 28.6472 18.2734 28.6472 16.4912L28.6472 13.165C28.6472 11.3846 27.5408 10.2941 25.7443 10.2941L2.90468 10.2941C1.10644 10.2941 0 11.3846 0 13.165L0 16.4912C0 18.2734 1.10644 19.3621 2.90468 19.3621ZM4.04393 15.2269C3.55897 15.2269 3.21327 14.883 3.21327 14.406C3.21327 13.9211 3.55897 13.5674 4.04393 13.5674L7.3494 13.5674C7.82811 13.5674 8.18182 13.9211 8.18182 14.406C8.18182 14.883 7.82811 15.2269 7.3494 15.2269ZM12.4945 16.2021C11.735 16.2021 11.1076 15.5748 11.1076 14.8135C11.1076 14.0752 11.735 13.4461 12.4945 13.4461C13.2426 13.4461 13.8699 14.0752 13.8699 14.8135C13.8699 15.5748 13.2426 16.2021 12.4945 16.2021ZM16.3646 16.2021C15.6051 16.2021 14.9795 15.5748 14.9795 14.8135C14.9795 14.0752 15.6051 13.4461 16.3646 13.4461C17.1144 13.4461 17.74 14.0752 17.74 14.8135C17.74 15.5748 17.1144 16.2021 16.3646 16.2021ZM20.2347 16.2021C19.4769 16.2021 18.8496 15.5748 18.8496 14.8135C18.8496 14.0752 19.4769 13.4461 20.2347 13.4461C20.9863 13.4461 21.6137 14.0752 21.6137 14.8135C21.6137 15.5748 20.9863 16.2021 20.2347 16.2021ZM24.1084 16.2021C23.3471 16.2021 22.7197 15.5748 22.7197 14.8215C22.7197 14.0752 23.3471 13.4461 24.1084 13.4461C24.8644 13.4461 25.4918 14.0752 25.4918 14.8215C25.4918 15.5748 24.8644 16.2021 24.1084 16.2021Z" fill="white" fill-opacity="0.85"/>
 </g>
</svg>
