<?xml version="1.0" encoding="UTF-8"?>
<!--Generator: Apple Native CoreSVG 341-->
<!DOCTYPE svg
PUBLIC "-//W3C//DTD SVG 1.1//EN"
       "http://www.w3.org/Graphics/SVG/1.1/DTD/svg11.dtd">
<svg version="1.1" xmlns="http://www.w3.org/2000/svg" xmlns:xlink="http://www.w3.org/1999/xlink" viewBox="0 0 20.5381 20.1848">
 <g>
  <rect height="20.1848" opacity="0" width="20.5381" x="0" y="0"/>
  <path d="M10.0875 20.175C15.6576 20.175 20.1767 15.6559 20.1767 10.0875C20.1767 4.51914 15.6576 0 10.0875 0C4.51914 0 0 4.51914 0 10.0875C0 15.6559 4.51914 20.175 10.0875 20.175ZM10.0875 18.1879C5.60839 18.1879 1.9871 14.5666 1.9871 10.0875C1.9871 5.60839 5.60839 1.9871 10.0875 1.9871C14.5666 1.9871 18.1897 5.60839 18.1897 10.0875C18.1897 14.5666 14.5666 18.1879 10.0875 18.1879Z" fill="white" fill-opacity="0.85"/>
  <path d="M4.73339 9.48437C4.86737 9.63788 5.10253 9.62988 5.25605 9.4666C6.50976 8.12402 8.18808 7.40741 10.0795 7.40741C11.9744 7.40741 13.6723 8.12577 14.9287 9.47636C15.0725 9.62011 15.2898 9.62812 15.4256 9.47636L16.151 8.7332C16.2734 8.60898 16.2832 8.43066 16.1803 8.28867C14.868 6.67988 12.4582 5.6037 10.0795 5.6037C7.70878 5.6037 5.29101 6.67988 3.98671 8.28867C3.87577 8.43066 3.89355 8.60898 4.008 8.7332Z" fill="white" fill-opacity="0.85"/>
  <path d="M6.9248 11.6582C7.08007 11.8162 7.28593 11.8064 7.45546 11.6387C8.10097 10.9273 9.108 10.4744 10.0795 10.4824C11.051 10.4744 12.0598 10.9273 12.7311 11.6467C12.8828 11.8162 13.0887 11.8162 13.2342 11.6582L14.0555 10.8555C14.1797 10.733 14.1992 10.5484 14.0785 10.4162C13.2004 9.35957 11.6635 8.69003 10.0795 8.69003C8.50351 8.69003 6.95859 9.35957 6.08847 10.4162C5.96777 10.5564 5.97929 10.725 6.11952 10.8555Z" fill="white" fill-opacity="0.85"/>
  <path d="M10.0795 14.5793C10.2312 14.5793 10.3394 14.5172 10.5801 14.3023L11.8676 13.0637C11.9855 12.9359 12.0033 12.7559 11.8986 12.6236C11.501 12.0945 10.7871 11.7482 10.0795 11.7482C9.36035 11.7482 8.65097 12.1078 8.24531 12.6742C8.1539 12.7887 8.18496 12.9412 8.30917 13.0637L9.58867 14.3023C9.82128 14.5074 9.92773 14.5793 10.0795 14.5793Z" fill="white" fill-opacity="0.85"/>
 </g>
</svg>
