<?xml version="1.0" encoding="UTF-8"?>
<!--Generator: Apple Native CoreSVG 341-->
<!DOCTYPE svg
PUBLIC "-//W3C//DTD SVG 1.1//EN"
       "http://www.w3.org/Graphics/SVG/1.1/DTD/svg11.dtd">
<svg version="1.1" xmlns="http://www.w3.org/2000/svg" xmlns:xlink="http://www.w3.org/1999/xlink" viewBox="0 0 23.6326 23.7113">
 <g>
  <rect height="23.7113" opacity="0" width="23.6326" x="0" y="0"/>
  <path d="M2.53041 7.48386C2.08039 7.66179 1.8414 8.07226 1.8414 8.70234L1.8414 15.1586C1.8414 16.0242 2.29901 16.4738 3.1371 16.4738L7.75606 16.4738L8.81711 18.2992L3.11757 18.2992C1.10097 18.2992 0.0160158 17.2436 0.0160158 15.2402L0.0160158 8.61445C0.0160158 7.21891 0.551983 6.27308 1.5728 5.83643ZM23.2713 8.61445L23.2713 15.2402C23.2713 17.2355 22.1943 18.2992 20.1697 18.2992L10.8938 18.2992L9.83147 16.4738L20.1502 16.4738C20.9705 16.4738 21.4459 16.0242 21.4459 15.1586L21.4459 8.70234C21.4459 7.83046 20.9705 7.37909 20.1502 7.37909L4.53832 7.37909L3.47595 5.55371L20.1697 5.55371C22.1943 5.55371 23.2713 6.6289 23.2713 8.61445Z" fill="white" fill-opacity="0.85"/>
  <path d="M6.45878 0.929877C6.45878 1.43866 6.03593 1.85175 5.52891 1.85175L0.921869 1.85175C0.413083 1.85175 0 1.43515 0 0.929877C0 0.421091 0.416599 0 0.921869 0L5.52891 0C6.03769 0 6.45878 0.424607 6.45878 0.929877ZM14.8553 0.929877C14.8553 1.43866 14.4404 1.85175 13.9334 1.85175L9.32636 1.85175C8.81757 1.85175 8.40449 1.43515 8.40449 0.929877C8.40449 0.421091 8.82109 0 9.32636 0L13.9334 0C14.4422 0 14.8553 0.424607 14.8553 0.929877ZM23.2678 0.929877C23.2678 1.43866 22.8449 1.85175 22.3379 1.85175L17.7389 1.85175C17.2238 1.85175 16.809 1.43515 16.809 0.929877C16.809 0.421091 17.2256 0 17.7389 0L22.3379 0C22.8467 0 23.2678 0.424607 23.2678 0.929877Z" fill="white" fill-opacity="0.85"/>
  <path d="M11.6236 23.6935C12.8623 23.6935 13.8961 22.6695 13.8961 21.4291C13.8961 20.1887 12.8703 19.1629 11.6236 19.1629C10.393 19.1629 9.36719 20.1887 9.36719 21.4291C9.36719 22.6775 10.385 23.6935 11.6236 23.6935ZM11.6236 22.2539C11.1664 22.2539 10.7988 21.8926 10.7988 21.4291C10.7988 20.9639 11.1664 20.5883 11.6236 20.5883C12.0889 20.5883 12.4644 20.9719 12.4644 21.4291C12.4644 21.8926 12.0889 22.2539 11.6236 22.2539ZM10.1217 20.5435L11.7318 19.7391L2.99784 4.73222C2.76113 4.31816 2.25136 4.16914 1.76797 4.40234C1.32012 4.65859 1.20938 5.20839 1.4541 5.63222Z" fill="white" fill-opacity="0.85"/>
 </g>
</svg>
