<?xml version="1.0" encoding="UTF-8"?>
<!--Generator: Apple Native CoreSVG 341-->
<!DOCTYPE svg
PUBLIC "-//W3C//DTD SVG 1.1//EN"
       "http://www.w3.org/Graphics/SVG/1.1/DTD/svg11.dtd">
<svg version="1.1" xmlns="http://www.w3.org/2000/svg" xmlns:xlink="http://www.w3.org/1999/xlink" viewBox="0 0 20.5576 21.039">
 <g>
  <rect height="21.039" opacity="0" width="20.5576" x="0" y="0"/>
  <path d="M17.4625 3.67929C17.6975 3.67929 17.8775 3.47089 17.8492 3.21816L17.7748 2.4164L18.4461 2.88066C18.6269 3.01621 18.9037 2.97539 19.0314 2.77324C19.1672 2.56484 19.0705 2.2748 18.8275 2.17988L18.1119 1.83965L18.8471 1.48613C19.066 1.3832 19.1609 1.12422 19.0412 0.907811C18.9295 0.705664 18.6314 0.648828 18.4363 0.796874L17.7801 1.25586L17.8572 0.469139C17.8855 0.216405 17.7055 0 17.4625 0C17.2018 0 17.0199 0.20039 17.05 0.461131L17.1191 1.26211L16.4469 0.795116C16.2482 0.656835 15.976 0.699413 15.866 0.907811C15.7365 1.12422 15.8287 1.38496 16.0539 1.48964L16.781 1.83789L16.0601 2.18164C15.8269 2.28008 15.7285 2.55058 15.8598 2.77324C15.9715 2.97539 16.2482 3.02421 16.4469 2.88066L17.1191 2.41992L17.058 3.21816C17.0377 3.4789 17.2115 3.67929 17.4625 3.67929Z" fill="white" fill-opacity="0.85"/>
  <path d="M17.4625 17.989C17.6975 17.989 17.8775 17.7806 17.8492 17.5342L17.7748 16.7324L18.4461 17.1984C18.6269 17.334 18.9037 17.2931 19.0314 17.0812C19.1672 16.8728 19.0705 16.5846 18.8275 16.4976L18.1119 16.1476L18.8471 15.7959C19.066 15.6992 19.1609 15.442 19.0412 15.2176C18.9295 15.0154 18.6314 14.9568 18.4363 15.1066L17.7801 15.5656L17.8572 14.7789C17.8855 14.5324 17.7055 14.316 17.4625 14.316C17.2018 14.316 17.0199 14.5164 17.05 14.7709L17.1191 15.5719L16.4469 15.1049C16.2482 14.9648 15.976 15.0092 15.866 15.2176C15.7365 15.442 15.8287 15.693 16.0539 15.7976L16.781 16.1459L16.0601 16.4914C15.8269 16.5881 15.7285 16.8586 15.8598 17.0812C15.9715 17.2851 16.2482 17.334 16.4469 17.1904L17.1191 16.7297L17.058 17.5342C17.0377 17.7887 17.2115 17.989 17.4625 17.989Z" fill="white" fill-opacity="0.85"/>
  <path d="M10.3467 19.3605C11.8998 19.3605 13.0953 18.2033 13.0953 16.5728C13.0953 14.2154 10.6873 12.8982 6.29863 12.8982C4.48574 12.8982 2.51933 13.2463 0.845113 13.8127C0.402537 13.9697 0.208398 14.3537 0.318358 14.7314C0.431834 15.1242 0.81484 15.3486 1.28496 15.1863C2.83242 14.6349 4.55312 14.3392 6.29863 14.3392C9.78027 14.3392 11.6623 15.2033 11.6623 16.5728C11.6623 17.4123 11.0812 17.9275 10.3467 17.9275C9.63847 17.9275 9.19433 17.4557 9.04355 16.6969C8.94628 16.2986 8.61933 16.0082 8.17304 16.0779C7.70898 16.1476 7.52793 16.5715 7.62871 17.0105C7.86601 18.331 8.8912 19.3605 10.3467 19.3605Z" fill="white" fill-opacity="0.85"/>
  <path d="M16.5953 12.3826C18.9094 12.3826 20.5576 10.9004 20.5576 8.83495C20.5576 6.80234 18.9945 5.31484 17.0375 5.31484C15.298 5.31484 13.956 6.5084 13.6654 8.09687C13.5769 8.54043 13.7998 8.91542 14.1865 8.99589C14.59 9.07987 14.9658 8.84472 15.0756 8.34882C15.2557 7.3955 16.0736 6.74784 17.0375 6.74784C18.192 6.74784 19.1166 7.60487 19.1166 8.83495C19.1166 10.0863 18.1246 10.9496 16.5953 10.9496C13.6256 10.9496 10.3828 9.25039 6.46953 9.25039C4.45078 9.25039 2.5955 9.57089 0.845113 10.1746C0.402537 10.3316 0.208398 10.7156 0.318358 11.0951C0.431834 11.4879 0.81484 11.7105 1.28496 11.5482C2.89257 10.9516 4.558 10.6932 6.46953 10.6932C10.3467 10.6932 13.2727 12.3826 16.5953 12.3826Z" fill="white" fill-opacity="0.85"/>
  <path d="M1.28144 7.70507C2.68769 7.26464 4.14453 7.0373 5.53124 7.0373C7.31582 7.0373 8.63945 7.32323 10.3369 7.32323C12.1228 7.32323 13.2711 6.10195 13.2711 4.49824C13.2711 2.86601 12.0205 1.68301 10.4639 1.68301C9.34179 1.68301 8.33711 2.38262 7.90234 3.32969C7.72148 3.69414 7.79414 4.10742 8.16582 4.30781C8.5205 4.49745 8.95585 4.38046 9.18554 3.95117C9.39511 3.48476 9.89433 3.12402 10.4639 3.12402C11.2357 3.12402 11.8301 3.65878 11.8301 4.49824C11.8301 5.33945 11.2482 5.89023 10.3369 5.89023C8.73339 5.89023 7.38144 5.60254 5.53124 5.60254C3.94296 5.60254 2.31933 5.88047 0.846871 6.33418C0.396287 6.46191 0.208398 6.85742 0.318358 7.23867C0.430076 7.62968 0.799801 7.84433 1.28144 7.70507Z" fill="white" fill-opacity="0.85"/>
 </g>
</svg>
