<?xml version="1.0" encoding="UTF-8"?>
<!--Generator: Apple Native CoreSVG 341-->
<!DOCTYPE svg
PUBLIC "-//W3C//DTD SVG 1.1//EN"
       "http://www.w3.org/Graphics/SVG/1.1/DTD/svg11.dtd">
<svg version="1.1" xmlns="http://www.w3.org/2000/svg" xmlns:xlink="http://www.w3.org/1999/xlink" viewBox="0 0 20.5381 20.1848">
 <g>
  <rect height="20.1848" opacity="0" width="20.5381" x="0" y="0"/>
  <path d="M20.1767 10.0973C20.1767 15.6656 15.6576 20.1848 10.0875 20.1848C4.52715 20.1848 0 15.6656 0 10.0973C0 4.53691 4.52715 0.00976562 10.0875 0.00976562C15.6576 0.00976562 20.1767 4.53691 20.1767 10.0973ZM4.27616 12.0125C3.96113 12.1332 3.80058 12.4242 3.89999 12.6859C3.98066 12.9805 4.28144 13.1633 4.62128 13.0408C5.5537 12.7078 6.59003 12.5213 7.65742 12.5213C9.76933 12.5213 10.8393 13.0143 10.8393 13.7924C10.8393 14.265 10.5371 14.5191 10.1355 14.5191C9.74277 14.5191 9.52421 14.2916 9.44081 13.8455C9.36913 13.5687 9.13242 13.3377 8.80488 13.3916C8.43554 13.4357 8.30058 13.7721 8.37402 14.0746C8.51659 14.9273 9.18163 15.59 10.1355 15.59C11.1307 15.59 11.9199 14.8471 11.9199 13.7924C11.9199 12.2805 10.385 11.4424 7.65742 11.4424C6.54745 11.4424 5.3123 11.6617 4.27616 12.0125ZM12.0625 8.59746C11.9898 8.93828 12.1826 9.21679 12.4639 9.27343C12.7496 9.33359 13.0449 9.15429 13.1211 8.80019C13.2258 8.25195 13.6717 7.89296 14.2234 7.89296C14.8852 7.89296 15.3986 8.35663 15.3986 9.06816C15.3986 9.79648 14.8488 10.2521 13.9473 10.2521C12.15 10.2521 10.1771 9.21503 7.75663 9.21503C6.51972 9.21503 5.35663 9.43086 4.27616 9.79316C3.96113 9.90586 3.80058 10.2031 3.89999 10.4746C3.98066 10.7727 4.28144 10.9439 4.62128 10.8215C5.58378 10.4529 6.5871 10.2984 7.75663 10.2984C10.1098 10.2984 11.89 11.3355 13.9473 11.3355C15.4246 11.3355 16.4758 10.3865 16.4758 9.06816C16.4758 7.7666 15.4672 6.81581 14.2234 6.81581C13.108 6.81581 12.2326 7.57793 12.0625 8.59746ZM8.55351 5.67441C8.41777 5.92812 8.46835 6.25917 8.75683 6.40019C9.02206 6.5412 9.34589 6.45429 9.50292 6.12773C9.6246 5.86913 9.88046 5.67362 10.2084 5.67362C10.6232 5.67362 10.9404 5.9455 10.9404 6.41816C10.9404 6.89433 10.641 7.17422 10.1355 7.17422C9.14453 7.17422 8.32499 6.98769 7.17948 6.98769C6.20273 6.98769 5.19941 7.17246 4.28944 7.45488C3.95312 7.54804 3.80058 7.84707 3.89999 8.12832C3.97714 8.41484 4.27616 8.58788 4.61249 8.47871C5.46132 8.20429 6.32441 8.07285 7.17948 8.07285C8.26464 8.07285 9.08066 8.24335 10.1355 8.24335C11.2693 8.24335 12.0238 7.4541 12.0238 6.41816C12.0238 5.36347 11.207 4.60273 10.2084 4.60273C9.4705 4.60273 8.81972 5.05117 8.55351 5.67441Z" fill="white" fill-opacity="0.85"/>
 </g>
</svg>
