<?xml version="1.0" encoding="UTF-8"?>
<!--Generator: Apple Native CoreSVG 341-->
<!DOCTYPE svg
PUBLIC "-//W3C//DTD SVG 1.1//EN"
       "http://www.w3.org/Graphics/SVG/1.1/DTD/svg11.dtd">
<svg version="1.1" xmlns="http://www.w3.org/2000/svg" xmlns:xlink="http://www.w3.org/1999/xlink" viewBox="0 0 20.5576 17.682">
 <g>
  <rect height="17.682" opacity="0" width="20.5576" x="0" y="0"/>
  <path d="M10.3467 17.682C11.8998 17.682 13.0953 16.5248 13.0953 14.8943C13.0953 12.5369 10.6873 11.2197 6.29863 11.2197C4.48574 11.2197 2.51933 11.5678 0.845113 12.1342C0.402537 12.2912 0.208398 12.6752 0.318358 13.0529C0.431834 13.4457 0.81484 13.6701 1.28496 13.5078C2.83242 12.9564 4.55312 12.6607 6.29863 12.6607C9.78027 12.6607 11.6623 13.5248 11.6623 14.8943C11.6623 15.7338 11.0812 16.249 10.3467 16.249C9.63847 16.249 9.19433 15.7771 9.04355 15.0183C8.94628 14.6201 8.61933 14.3297 8.17304 14.3994C7.70898 14.4691 7.52793 14.893 7.62871 15.332C7.86601 16.6525 8.8912 17.682 10.3467 17.682Z" fill="white" fill-opacity="0.85"/>
  <path d="M16.5953 10.7041C18.9094 10.7041 20.5576 9.22187 20.5576 7.15644C20.5576 5.12382 18.9945 3.63632 17.0375 3.63632C15.298 3.63632 13.956 4.82988 13.6654 6.41836C13.5769 6.86191 13.7998 7.23691 14.1865 7.31738C14.59 7.40136 14.9658 7.1662 15.0756 6.67031C15.2557 5.71698 16.0736 5.06933 17.0375 5.06933C18.192 5.06933 19.1166 5.92636 19.1166 7.15644C19.1166 8.40781 18.1246 9.27109 16.5953 9.27109C13.6256 9.27109 10.3828 7.57187 6.46953 7.57187C4.45078 7.57187 2.5955 7.89238 0.845113 8.49609C0.402537 8.65312 0.208398 9.0371 0.318358 9.41659C0.431834 9.80937 0.81484 10.032 1.28496 9.86972C2.89257 9.27304 4.558 9.01464 6.46953 9.01464C10.3467 9.01464 13.2727 10.7041 16.5953 10.7041Z" fill="white" fill-opacity="0.85"/>
  <path d="M1.28144 6.02656C2.68769 5.58613 4.14453 5.35878 5.53124 5.35878C7.31582 5.35878 8.63945 5.64472 10.3369 5.64472C12.1228 5.64472 13.2711 4.42343 13.2711 2.81972C13.2711 1.1875 12.0205 0.0044924 10.4639 0.0044924C9.34179 0.0044924 8.33711 0.704102 7.90234 1.65117C7.72148 2.01562 7.79414 2.4289 8.16582 2.62929C8.5205 2.81894 8.95585 2.70195 9.18554 2.27265C9.39511 1.80624 9.89433 1.4455 10.4639 1.4455C11.2357 1.4455 11.8301 1.98027 11.8301 2.81972C11.8301 3.66094 11.2482 4.21172 10.3369 4.21172C8.73339 4.21172 7.38144 3.92402 5.53124 3.92402C3.94296 3.92402 2.31933 4.20195 0.846871 4.65566C0.396287 4.7834 0.208398 5.1789 0.318358 5.56015C0.430076 5.95117 0.799801 6.16581 1.28144 6.02656Z" fill="white" fill-opacity="0.85"/>
 </g>
</svg>
