<?xml version="1.0" encoding="UTF-8"?>
<!--Generator: Apple Native CoreSVG 341-->
<!DOCTYPE svg
PUBLIC "-//W3C//DTD SVG 1.1//EN"
       "http://www.w3.org/Graphics/SVG/1.1/DTD/svg11.dtd">
<svg version="1.1" xmlns="http://www.w3.org/2000/svg" xmlns:xlink="http://www.w3.org/1999/xlink" viewBox="0 0 28.9666 20.609">
 <g>
  <rect height="20.609" opacity="0" width="28.9666" x="0" y="0"/>
  <path d="M27.8334 4.83691C28.7303 5.53418 28.8482 6.51425 28.1377 7.42265L21.4609 15.9291C21.1258 16.3592 20.5715 16.4435 20.0731 16.1916C18.4189 15.3408 16.1922 14.7471 14.3035 14.7471C14.0052 14.7471 13.6981 14.7619 13.3845 14.795L12.3757 13.0597C13.0419 12.9509 13.6899 12.8953 14.3035 12.8953C16.0756 12.8953 18.1547 13.3641 20.0924 14.1535C20.3207 14.2459 20.4281 14.2229 20.6076 13.998L26.2842 6.77284C26.4619 6.5453 26.4344 6.33476 26.1953 6.1703C22.9098 4.10214 18.6647 2.9203 14.3035 2.9203C11.8184 2.9203 9.37148 3.30375 7.12554 4.02777L6.1045 2.27126C8.54767 1.5218 11.3946 1.06855 14.3035 1.06855C19.7928 1.06855 25.0648 2.68359 27.8334 4.83691ZM5.38848 4.65448C4.32897 5.0801 3.33254 5.59035 2.41171 6.1703C2.17441 6.33476 2.14511 6.5453 2.31308 6.77284L7.99941 13.9998C8.17715 14.2229 8.28808 14.2441 8.51465 14.1535C9.17028 13.8862 9.84141 13.6556 10.5115 13.4711L11.4686 15.1181C10.4164 15.3711 9.39112 15.7461 8.52598 16.1916C8.02754 16.4435 7.48125 16.3592 7.1461 15.9291L0.467584 7.42265C-0.250968 6.51425-0.133 5.53418 0.763872 4.83691C1.70406 4.10822 2.92963 3.44118 4.35743 2.88008Z" fill="white" fill-opacity="0.85"/>
  <path d="M12.7422 17.3099L14.3689 16.4887L5.10996 0.560349C4.87149 0.141015 4.34668-0.0177735 3.85801 0.23496C3.40313 0.468943 3.29063 1.04355 3.54063 1.47441ZM14.3035 20.609C15.5723 20.609 16.6326 19.5566 16.6326 18.2781C16.6326 16.9853 15.5803 15.9393 14.3035 15.9393C13.017 15.9393 11.9727 16.9853 11.9727 18.2781C11.9727 19.5646 13.009 20.609 14.3035 20.609ZM14.3035 19.1678C13.801 19.1678 13.4059 18.7646 13.4059 18.2781C13.4059 17.7773 13.801 17.3662 14.3035 17.3662C14.7883 17.3662 15.2074 17.7773 15.2074 18.2781C15.2074 18.7646 14.7883 19.1678 14.3035 19.1678Z" fill="white" fill-opacity="0.85"/>
 </g>
</svg>
