<?xml version="1.0" encoding="UTF-8"?>
<!--Generator: Apple Native CoreSVG 341-->
<!DOCTYPE svg
PUBLIC "-//W3C//DTD SVG 1.1//EN"
       "http://www.w3.org/Graphics/SVG/1.1/DTD/svg11.dtd">
<svg version="1.1" xmlns="http://www.w3.org/2000/svg" xmlns:xlink="http://www.w3.org/1999/xlink" viewBox="0 0 17.6556 20.968">
 <g>
  <rect height="20.968" opacity="0" width="17.6556" x="0" y="0"/>
  <path d="M0 18.6936C0 20.0695 0.9082 20.9617 2.30995 20.9617L14.9844 20.9617C16.3941 20.9617 17.2943 20.0695 17.2943 18.6936L17.2943 2.26815C17.2943 0.893942 16.3941 0 14.9844 0L2.30995 0C0.9082 0 0 0.893942 0 2.26815ZM1.91327 18.5168L1.91327 2.44491C1.91327 2.12186 2.12186 1.91327 2.42713 1.91327L14.8654 1.91327C15.1805 1.91327 15.381 2.12186 15.381 2.44491L15.381 18.5168C15.381 18.8398 15.1805 19.0484 14.8654 19.0484L2.42713 19.0484C2.12186 19.0484 1.91327 18.8398 1.91327 18.5168Z" fill="white" fill-opacity="0.85"/>
  <path d="M3.39315 6.58455L13.9074 6.58455C14.0859 6.58455 14.2271 6.44334 14.2271 6.27283L14.2271 3.3869C14.2271 3.20838 14.0859 3.06717 13.9074 3.06717L3.39315 3.06717C3.21639 3.06717 3.07518 3.20838 3.07518 3.3869L3.07518 6.27283C3.07518 6.44334 3.21639 6.58455 3.39315 6.58455ZM7.17382 5.32713C6.87479 5.32713 6.66366 5.12225 6.66366 4.82498C6.66366 4.52947 6.87479 4.32459 7.17382 4.32459L10.1285 4.32459C10.4258 4.32459 10.6307 4.52947 10.6307 4.82498C10.6307 5.12225 10.4258 5.32713 10.1285 5.32713Z" fill="white" fill-opacity="0.85"/>
 </g>
</svg>
