<?xml version="1.0" encoding="UTF-8"?>
<!--Generator: Apple Native CoreSVG 341-->
<!DOCTYPE svg
PUBLIC "-//W3C//DTD SVG 1.1//EN"
       "http://www.w3.org/Graphics/SVG/1.1/DTD/svg11.dtd">
<svg version="1.1" xmlns="http://www.w3.org/2000/svg" xmlns:xlink="http://www.w3.org/1999/xlink" viewBox="0 0 27.8839 24.5332">
 <g>
  <rect height="24.5332" opacity="0" width="27.8839" x="0" y="0"/>
  <path d="M26.7709 9.06308C27.6492 9.74531 27.7654 10.7211 27.0716 11.6029L20.6806 19.75C20.3347 20.1926 19.7777 20.2832 19.2765 20.0285C17.6881 19.215 15.567 18.6408 13.7582 18.6408C13.4558 18.6408 13.145 18.6568 12.828 18.6927L11.8089 16.9398C12.4837 16.8262 13.1396 16.7674 13.7582 16.7674C15.4744 16.7674 17.4701 17.2166 19.3377 17.9928C19.5287 18.0594 19.6041 18.0541 19.7578 17.8648L25.2205 10.9236C25.3724 10.7184 25.3431 10.5656 25.1334 10.4269C22.5986 8.80826 19.4603 7.77262 16.0496 7.44847L16.0496 5.53126C20.4398 5.90078 24.488 7.28384 26.7709 9.06308ZM5.10047 9.01836C4.13249 9.41602 3.22438 9.88932 2.38297 10.4269C2.17945 10.5656 2.14215 10.7184 2.30211 10.9236L7.7568 17.8648C7.91852 18.0541 7.9859 18.0594 8.17692 17.9928C8.76208 17.7506 9.35892 17.5403 9.95506 17.3698L10.9199 19.0295C9.9668 19.2748 9.04128 19.6217 8.24606 20.0285C7.74489 20.2832 7.18786 20.1926 6.84196 19.75L0.442942 11.6029C-0.242798 10.7211-0.126588 9.74531 0.75173 9.06308C1.62434 8.38342 2.75333 7.76157 4.06297 7.23352ZM11.4738 7.44767C9.85225 7.60123 8.29245 7.91549 6.8331 8.3816L5.81021 6.62224C7.52846 6.08026 9.46477 5.69926 11.4738 5.53062Z" fill="white" fill-opacity="0.85"/>
  <path d="M14.6283 10.9703L14.6283 13.3234C14.6283 13.7988 14.2416 14.1838 13.7679 14.1838C13.2881 14.1838 12.8996 13.7988 12.8996 13.3234L12.8996 10.9703C12.8996 10.4984 13.2881 10.1055 13.7679 10.1055C14.2416 10.1055 14.6283 10.4984 14.6283 10.9703ZM14.6283 5.63691L14.6283 7.99004C14.6283 8.46367 14.2416 8.8584 13.7679 8.8584C13.2881 8.8584 12.8996 8.46367 12.8996 7.99004L12.8996 5.63691C12.8996 5.16504 13.2881 4.77656 13.7679 4.77656C14.2416 4.77656 14.6283 5.16504 14.6283 5.63691ZM6.81461 0.833005C6.92106 1.30586 6.63004 1.70761 6.16794 1.87968C5.4193 2.13808 4.76305 2.61054 4.24801 3.22773C3.92868 3.60117 3.47809 3.71386 3.0736 3.47968C2.6195 3.20918 2.49704 2.63359 2.86696 2.17227C3.59489 1.28359 4.55095 0.602734 5.55856 0.257422C6.17692 0.0462896 6.70641 0.29375 6.81461 0.833005ZM21.9711 0.257422C22.9787 0.602734 23.9347 1.28359 24.6627 2.17227C25.0326 2.63359 24.9101 3.20918 24.456 3.47968C24.0515 3.71386 23.601 3.60117 23.2816 3.22773C22.7648 2.61054 22.1023 2.13808 21.3617 1.87968C20.8916 1.70761 20.6086 1.30586 20.715 0.833005C20.8232 0.29375 21.3527 0.0462896 21.9711 0.257422ZM10.166 0.267187C11.1593 0.604492 12.1216 1.27383 12.8461 2.1625C13.216 2.62734 13.1148 3.18086 12.667 3.45839C12.258 3.70312 11.8039 3.61718 11.465 3.21796C10.9517 2.61054 10.299 2.13808 9.55661 1.87968C9.0945 1.70761 8.82478 1.31738 8.90642 0.856052C9.00486 0.329297 9.52009 0.0382817 10.166 0.267187ZM18.6232 0.856052C18.7048 1.31738 18.4334 1.70761 17.9748 1.87968C17.2306 2.13808 16.5779 2.61054 16.0646 3.21796C15.7257 3.61718 15.2716 3.70312 14.8627 3.45839C14.4148 3.18086 14.3136 2.62734 14.6836 2.1625C15.408 1.27383 16.372 0.604492 17.3636 0.267187C18.0095 0.0382817 18.5248 0.329297 18.6232 0.856052Z" fill="white" fill-opacity="0.85"/>
  <path d="M13.7679 24.5332C15.0384 24.5332 16.0988 23.4808 16.0988 22.2023C16.0988 20.9158 15.0465 19.8635 13.7679 19.8635C12.4832 19.8635 11.4308 20.9158 11.4308 22.2023C11.4308 23.4889 12.4752 24.5332 13.7679 24.5332ZM13.7679 23.092C13.2672 23.092 12.872 22.6951 12.872 22.2023C12.872 21.7016 13.2672 21.2887 13.7679 21.2887C14.2545 21.2887 14.6656 21.7096 14.6656 22.2023C14.6656 22.6951 14.2545 23.092 13.7679 23.092ZM13.8271 20.4111L5.02555 5.27265C4.77907 4.85156 4.25427 4.69277 3.77185 4.94726C3.31697 5.18749 3.19822 5.75585 3.45447 6.18671L12.2004 21.2324Z" fill="white" fill-opacity="0.85"/>
 </g>
</svg>
