<?xml version="1.0" encoding="UTF-8"?>
<!--Generator: Apple Native CoreSVG 341-->
<!DOCTYPE svg
PUBLIC "-//W3C//DTD SVG 1.1//EN"
       "http://www.w3.org/Graphics/SVG/1.1/DTD/svg11.dtd">
<svg version="1.1" xmlns="http://www.w3.org/2000/svg" xmlns:xlink="http://www.w3.org/1999/xlink" viewBox="0 0 24.5543 25.3113">
 <g>
  <rect height="25.3113" opacity="0" width="24.5543" x="0" y="0"/>
  <path d="M2.49044 5.86965C2.07497 6.07897 1.85175 6.50128 1.85175 7.11835L1.85175 14.1965C1.85175 15.1137 2.34491 15.6006 3.22656 15.6006L8.14194 15.6006L9.21739 17.4523L3.20703 17.4523C1.11328 17.4523 0 16.3488 0 14.2861L0 7.0287C0 5.61505 0.518864 4.65591 1.51519 4.19043ZM24.193 7.0287L24.193 14.2861C24.193 16.3488 23.0877 17.4523 20.9877 17.4523L11.3202 17.4523L10.2437 15.6006L20.9584 15.6006C21.832 15.6006 22.3412 15.1137 22.3412 14.1965L22.3412 7.11835C22.3412 6.20116 21.832 5.71424 20.9584 5.71424L20.4909 5.71424C20.3773 5.43105 20.2629 5.17938 20.1682 4.96504C20.0044 4.61529 19.8139 4.24354 19.6056 3.8625L20.9877 3.8625C23.0877 3.8625 24.193 4.96601 24.193 7.0287ZM12.6653 3.8625C12.457 4.24354 12.2665 4.61529 12.1027 4.96504C12.008 5.17938 11.8936 5.43105 11.78 5.71424L4.49583 5.71424L3.41924 3.8625Z" fill="white" fill-opacity="0.85"/>
  <path d="M16.7309 1.76562C17.4988 2.94199 18.3682 4.36816 18.9035 5.53652C19.2264 6.2498 19.627 7.12597 19.627 8.09394C19.627 10.1266 18.2307 11.4873 16.1395 11.4873C14.0402 11.4873 12.6439 10.1266 12.6439 8.09394C12.6439 7.12597 13.0445 6.2498 13.3674 5.53652C13.9027 4.36816 14.7721 2.94199 15.54 1.76562C15.7289 1.51289 15.9133 1.3791 16.1395 1.3791C16.3576 1.3791 16.542 1.51289 16.7309 1.76562Z" fill="white" fill-opacity="0.85"/>
  <path d="M12.0805 22.9927C13.359 22.9927 14.4193 21.9404 14.4193 20.6619C14.4193 19.3691 13.367 18.3248 12.0805 18.3248C10.8037 18.3248 9.74961 19.3691 9.74961 20.6619C9.74961 21.9484 10.7939 22.9927 12.0805 22.9927ZM12.0805 21.5515C11.5877 21.5515 11.1846 21.1484 11.1846 20.6619C11.1846 20.1611 11.5877 19.75 12.0805 19.75C12.5732 19.75 12.9861 20.1611 12.9861 20.6619C12.9861 21.1484 12.5732 21.5515 12.0805 21.5515ZM10.5191 19.6937L12.1459 18.8724L2.88066 2.93612C2.64042 2.51679 2.11562 2.358 1.62695 2.61073C1.17207 2.84472 1.05957 3.42108 1.31758 3.85018Z" fill="white" fill-opacity="0.85"/>
 </g>
</svg>
