<?xml version="1.0" encoding="UTF-8"?>
<!--Generator: Apple Native CoreSVG 341-->
<!DOCTYPE svg
PUBLIC "-//W3C//DTD SVG 1.1//EN"
       "http://www.w3.org/Graphics/SVG/1.1/DTD/svg11.dtd">
<svg version="1.1" xmlns="http://www.w3.org/2000/svg" xmlns:xlink="http://www.w3.org/1999/xlink" viewBox="0 0 28.9666 19.8978">
 <g>
  <rect height="19.8978" opacity="0" width="28.9666" x="0" y="0"/>
  <path d="M27.8334 8.402C28.7303 9.09927 28.8482 10.0793 28.1377 10.9877L21.4609 19.4942C21.1258 19.9243 20.5715 20.0086 20.0731 19.7567C18.4189 18.9059 16.1922 18.3121 14.3035 18.3121C12.4148 18.3121 10.1783 18.9059 8.52598 19.7567C8.02754 20.0086 7.48926 19.9243 7.1461 19.4942L0.467584 10.9877C-0.250968 10.0793-0.133 9.09927 0.763872 8.402C3.60357 6.1851 7.858 5.0281 12.0051 4.72279L12.0051 6.61022C8.52735 6.89316 5.33606 7.88498 2.41171 9.7434C2.17441 9.89985 2.14511 10.1104 2.31308 10.3379L7.99941 17.5649C8.16914 17.7879 8.28633 17.8092 8.51289 17.7186C10.4506 16.9292 12.5217 16.4586 14.3035 16.4586C16.0756 16.4586 18.1547 16.9292 20.0924 17.7186C20.3189 17.8092 20.4281 17.7879 20.6059 17.5649L26.2842 10.3379C26.4602 10.1104 26.4309 9.89985 26.1953 9.7434C23.5198 8.03051 20.1937 6.93712 16.6019 6.62056L16.6019 4.72205C20.7758 5.02709 25.0116 6.18887 27.8334 8.402Z" fill="white" fill-opacity="0.85"/>
  <path d="M14.3035 14.1559C14.7824 14.1559 15.1727 13.7577 15.1727 13.2788L15.1727 10.9098C15.1727 10.4309 14.7824 10.0327 14.3035 10.0327C13.8229 10.0327 13.4246 10.4309 13.4246 10.9098L13.4246 13.2788C13.4246 13.7577 13.8229 14.1559 14.3035 14.1559ZM14.3035 8.77681C14.7824 8.77681 15.1727 8.38657 15.1727 7.90767L15.1727 5.53247C15.1727 5.05181 14.7824 4.66157 14.3035 4.66157C13.8229 4.66157 13.4246 5.05181 13.4246 5.53247L13.4246 7.90767C13.4246 8.38657 13.8229 8.77681 14.3035 8.77681ZM3.51602 3.35766C3.92403 3.5936 4.38789 3.48091 4.70449 3.1022C5.23281 2.47974 5.89082 2.01177 6.64649 1.7436C7.11563 1.56802 7.40039 1.16275 7.30195 0.684622C7.18223 0.140093 6.64746-0.11264 6.02207 0.102007C5.01192 0.449077 4.04883 1.13697 3.31563 2.03443C2.93243 2.50103 3.0629 3.08364 3.51602 3.35766ZM13.1938 3.33638C13.6451 3.05356 13.748 2.49478 13.3746 2.02466C12.6432 1.1272 11.6703 0.452593 10.6779 0.111773C10.017-0.120648 9.49473 0.173882 9.3963 0.705911C9.32091 1.17603 9.58614 1.56802 10.0518 1.7436C10.7994 2.01177 11.4592 2.47974 11.9742 3.09067C12.3166 3.49692 12.7777 3.58286 13.1938 3.33638ZM15.4035 3.33638C15.8275 3.58286 16.2807 3.49692 16.6311 3.09067C17.1381 2.47974 17.7978 2.01177 18.5473 1.7436C19.0191 1.56802 19.2861 1.17603 19.2027 0.705911C19.1123 0.173882 18.59-0.120648 17.9273 0.111773C16.927 0.452593 15.9559 1.1272 15.2244 2.02466C14.8492 2.49478 14.9539 3.05356 15.4035 3.33638ZM25.0893 3.35766C25.5424 3.08364 25.6746 2.50103 25.2914 2.03443C24.5582 1.13697 23.5934 0.449077 22.577 0.102007C21.9498-0.11264 21.415 0.140093 21.3051 0.684622C21.1986 1.16275 21.4914 1.56802 21.9605 1.7436C22.7145 2.01177 23.3742 2.47974 23.8945 3.1022C24.2174 3.48091 24.675 3.5936 25.0893 3.35766Z" fill="white" fill-opacity="0.85"/>
 </g>
</svg>
