<?xml version="1.0" encoding="UTF-8"?>
<!--Generator: Apple Native CoreSVG 341-->
<!DOCTYPE svg
PUBLIC "-//W3C//DTD SVG 1.1//EN"
       "http://www.w3.org/Graphics/SVG/1.1/DTD/svg11.dtd">
<svg version="1.1" xmlns="http://www.w3.org/2000/svg" xmlns:xlink="http://www.w3.org/1999/xlink" viewBox="0 0 27.893 23.6566">
 <g>
  <rect height="23.6566" opacity="0" width="27.893" x="0" y="0"/>
  <path d="M26.778 8.1705C27.6546 8.85898 27.7806 9.83475 27.0868 10.7166L20.686 18.8556C20.3401 19.3 19.7831 19.3969 19.2819 19.1342C17.6935 18.3305 15.5804 17.7482 13.7681 17.7482C13.4648 17.7482 13.1527 17.7646 12.8341 17.8011L11.8137 16.0454C12.4891 15.9318 13.1468 15.873 13.7681 15.873C15.4798 15.873 17.4835 16.3223 19.3511 17.1002C19.5438 17.173 19.6192 17.1678 19.7712 16.9705L25.2259 10.0293C25.3858 9.83378 25.3485 9.67304 25.1468 9.53436C21.9374 7.49627 17.7667 6.3828 13.7698 6.3828C11.4388 6.3828 9.0538 6.76 6.83985 7.48782L5.81445 5.72359C8.19001 4.98587 10.9604 4.5414 13.7698 4.5414C19.0017 4.5414 24.0901 6.08281 26.778 8.1705ZM5.10863 8.12434C4.14874 8.52499 3.23762 8.99761 2.39286 9.53436C2.18134 9.67304 2.1538 9.83378 2.30399 10.0293L7.76669 16.9705C7.92041 17.1678 7.9958 17.173 8.18681 17.1002C8.77125 16.8567 9.36823 16.6455 9.96534 16.4744L10.9331 18.1382C9.97541 18.3841 9.045 18.7313 8.24794 19.1342C7.74677 19.3969 7.19951 19.3 6.84385 18.8556L0.452833 10.7166C-0.248923 9.83475-0.124705 8.85898 0.753613 8.1705C1.62906 7.49054 2.76001 6.86853 4.07113 6.34057Z" fill="white" fill-opacity="0.85"/>
  <path d="M8.48603 0.921869C8.48603 1.4289 8.07119 1.85175 7.56416 1.85175L2.35947 1.85175C1.85068 1.85175 1.42959 1.42714 1.42959 0.921869C1.42959 0.413083 1.85244 0 2.35947 0L7.56416 0C8.07295 0 8.48603 0.414841 8.48603 0.921869ZM17.2972 0.921869C17.2972 1.4289 16.8726 1.85175 16.3673 1.85175L11.1608 1.85175C10.6538 1.85175 10.231 1.42714 10.231 0.921869C10.231 0.413083 10.6556 0 11.1608 0L16.3673 0C16.8761 0 17.2972 0.414841 17.2972 0.921869ZM26.1003 0.921869C26.1003 1.4289 25.6757 1.85175 25.1704 1.85175L19.964 1.85175C19.4552 1.85175 19.0421 1.42714 19.0421 0.921869C19.0421 0.413083 19.4587 0 19.964 0L25.1704 0C25.6774 0 26.1003 0.414841 26.1003 0.921869Z" fill="white" fill-opacity="0.85"/>
  <path d="M13.7796 23.6469C15.0483 23.6469 16.1104 22.5945 16.1104 21.308C16.1104 20.0232 15.0581 18.9709 13.7796 18.9709C12.4948 18.9709 11.4407 20.0232 11.4407 21.308C11.4407 22.5945 12.4851 23.6469 13.7796 23.6469ZM13.7796 22.1976C13.2788 22.1976 12.8819 21.8025 12.8819 21.308C12.8819 20.8152 13.2788 20.4041 13.7796 20.4041C14.2644 20.4041 14.6853 20.8152 14.6853 21.308C14.6853 21.8025 14.2644 22.1976 13.7796 22.1976ZM12.2183 20.3478L13.837 19.5266L5.0372 4.38632C4.78896 3.95898 4.26416 3.80644 3.7835 4.05292C3.32861 4.29491 3.21612 4.86952 3.46611 5.30037Z" fill="white" fill-opacity="0.85"/>
 </g>
</svg>
