<?xml version="1.0" encoding="UTF-8"?>
<!--Generator: Apple Native CoreSVG 341-->
<!DOCTYPE svg
PUBLIC "-//W3C//DTD SVG 1.1//EN"
       "http://www.w3.org/Graphics/SVG/1.1/DTD/svg11.dtd">
<svg version="1.1" xmlns="http://www.w3.org/2000/svg" xmlns:xlink="http://www.w3.org/1999/xlink" viewBox="0 0 22.0428 19.6867">
 <g>
  <rect height="19.6867" opacity="0" width="22.0428" x="0" y="0"/>
  <path d="M2.00179 19.6867L15.2719 19.6867C16.2621 19.6867 16.9531 19.126 17.2069 18.1988L21.5692 2.52734C21.9879 1.03066 21.2092 0.0160158 19.6797 0.0160158L6.4096 0.0160158C5.41937 0.0160158 4.73636 0.576757 4.4764 1.49589L0.11234 17.1754C-0.306409 18.6641 0.472299 19.6867 2.00179 19.6867ZM2.01408 17.2611L3.85784 10.6738L9.59535 10.6738L7.60316 17.7918L2.43459 17.7918C2.07365 17.7918 1.91897 17.6113 2.01408 17.2611ZM4.37443 8.79766L6.15588 2.44706C6.24924 2.09764 6.47151 1.91092 6.8094 1.91092L12.0446 1.91092L10.1182 8.79766ZM9.53889 17.7918L11.5213 10.6738L17.3666 10.6738L15.5274 17.2557C15.434 17.5971 15.2135 17.7918 14.8721 17.7918ZM12.0379 8.79766L13.9705 1.91092L19.2469 1.91092C19.6096 1.91092 19.7643 2.09139 19.6692 2.44159L17.8895 8.79766Z" fill="white" fill-opacity="0.85"/>
 </g>
</svg>
