<?xml version="1.0" encoding="UTF-8"?>
<!--Generator: Apple Native CoreSVG 341-->
<!DOCTYPE svg
PUBLIC "-//W3C//DTD SVG 1.1//EN"
       "http://www.w3.org/Graphics/SVG/1.1/DTD/svg11.dtd">
<svg version="1.1" xmlns="http://www.w3.org/2000/svg" xmlns:xlink="http://www.w3.org/1999/xlink" viewBox="0 0 14.9937 23.732">
 <g>
  <rect height="23.732" opacity="0" width="14.9937" x="0" y="0"/>
  <path d="M7.30644 23.7222C10.9629 23.7205 13.1463 22.7959 13.1463 21.1988C13.1463 19.7463 11.2945 18.8447 8.16112 18.7019L8.16112 14.6742C12.0785 14.3621 14.6324 11.8236 14.6324 8.12753C14.6324 6.07538 13.7687 3.37617 12.5154 1.45625C11.9094 0.517382 10.0072 0 7.31445 0C4.6039 0 2.70801 0.517382 2.09746 1.45625C0.845898 3.37441 0 6.07363 0 8.12753C0 11.8334 2.55391 14.3621 6.47129 14.6742L6.47129 18.7019C3.32988 18.8367 1.47812 19.7463 1.47812 21.1988C1.47812 22.7959 3.65351 23.7205 7.30644 23.7222ZM7.31445 2.56679C5.15292 2.56679 3.66229 2.30234 3.66229 1.99003C3.66229 1.6875 5.16093 1.43105 7.31445 1.43105C9.46972 1.43105 10.9666 1.6875 10.9666 1.99003C10.9666 2.30234 9.46972 2.56679 7.31445 2.56679Z" fill="white" fill-opacity="0.85"/>
 </g>
</svg>
