<?xml version="1.0" encoding="UTF-8"?>
<!--Generator: Apple Native CoreSVG 341-->
<!DOCTYPE svg
PUBLIC "-//W3C//DTD SVG 1.1//EN"
       "http://www.w3.org/Graphics/SVG/1.1/DTD/svg11.dtd">
<svg version="1.1" xmlns="http://www.w3.org/2000/svg" xmlns:xlink="http://www.w3.org/1999/xlink" viewBox="0 0 22.301 21.9477">
 <g>
  <rect height="21.9477" opacity="0" width="22.301" x="0" y="0"/>
  <path d="M10.9689 21.9379C16.9984 21.9379 21.9396 16.9984 21.9396 10.9689C21.9396 4.93945 16.9984 0 10.9689 0C4.93945 0 0 4.93945 0 10.9689C0 16.9984 4.93945 21.9379 10.9689 21.9379ZM10.9689 18.2242C6.96133 18.2242 3.71367 14.9766 3.71367 10.9689C3.71367 6.95332 6.96133 3.71367 10.9689 3.71367C14.9846 3.71367 18.226 6.95332 18.226 10.9689C18.226 14.9766 14.9846 18.2242 10.9689 18.2242Z" fill="white" fill-opacity="0.85"/>
  <path d="M8.5164 15.4826C8.93398 15.4826 9.24081 15.2184 9.3455 14.7875L10.9414 8.53183L11.0062 8.53183L12.5941 14.7875C12.6971 15.2344 12.9941 15.4826 13.4375 15.4826C13.8871 15.4826 14.2037 15.2264 14.2826 14.7715L15.7455 7.47929C15.7668 7.4039 15.7748 7.30351 15.7748 7.20761C15.7748 6.83241 15.4926 6.61093 15.1311 6.61093C14.8412 6.61093 14.5609 6.8121 14.5086 7.14198L13.3756 13.8225L13.3188 13.8225L11.6535 7.19609C11.5603 6.82636 11.3467 6.62519 10.9752 6.62519C10.6215 6.62519 10.3918 6.83613 10.3004 7.21386L8.62539 13.8225L8.57031 13.8225L7.4373 7.14198C7.39472 6.82636 7.13046 6.61093 6.80507 6.61093C6.42207 6.61093 6.17285 6.8414 6.17285 7.20761C6.17285 7.27948 6.18261 7.38163 6.20215 7.4873L7.66328 14.7715C7.75195 15.2104 8.05703 15.4826 8.5164 15.4826ZM5.44316 10.99C5.44316 11.1766 5.58261 11.3143 5.76738 11.3143L16.1785 11.3143C16.365 11.3143 16.5045 11.1766 16.5045 10.99C16.5045 10.8115 16.365 10.6818 16.1785 10.6818L5.76738 10.6818C5.58261 10.6818 5.44316 10.8115 5.44316 10.99Z" fill="white" fill-opacity="0.85"/>
 </g>
</svg>
