<?xml version="1.0" encoding="UTF-8"?>
<!--Generator: Apple Native CoreSVG 341-->
<!DOCTYPE svg
PUBLIC "-//W3C//DTD SVG 1.1//EN"
       "http://www.w3.org/Graphics/SVG/1.1/DTD/svg11.dtd">
<svg version="1.1" xmlns="http://www.w3.org/2000/svg" xmlns:xlink="http://www.w3.org/1999/xlink" viewBox="0 0 24.226 20.1848">
 <g>
  <rect height="20.1848" opacity="0" width="24.226" x="0" y="0"/>
  <path d="M0.721518 8.12363C-0.00973073 8.12363-0.190785 8.66894 0.204136 9.22109L2.47249 12.3723C2.78948 12.8092 3.27757 12.8012 3.58831 12.3723L5.8469 9.21308C6.24007 8.66894 6.051 8.12363 5.33929 8.12363ZM22.0239 10.0875C22.0239 4.51914 17.503 0 11.9364 0C6.368 0 1.85687 4.50937 1.84886 10.099C1.85687 10.6476 2.29378 11.0846 2.83441 11.0846C3.38303 11.0846 3.83596 10.6396 3.83596 10.091C3.83596 5.60839 7.45725 1.9871 11.9364 1.9871C16.4155 1.9871 20.0368 5.60839 20.0368 10.0875C20.0368 14.5666 16.4155 18.1879 11.9364 18.1879C9.3096 18.1879 7.0131 16.9437 5.54279 15.0176C5.1469 14.5609 4.58421 14.4129 4.10726 14.7519C3.66214 15.0734 3.55902 15.725 3.99475 16.2355C5.84631 18.6584 8.71858 20.175 11.9364 20.175C17.503 20.175 22.0239 15.6559 22.0239 10.0875Z" fill="white" fill-opacity="0.85"/>
  <path d="M9.48382 14.6012C9.90139 14.6012 10.2082 14.3369 10.3129 13.9061L11.9088 7.65038L11.9737 7.65038L13.5616 13.9061C13.6645 14.3529 13.9536 14.6012 14.4049 14.6012C14.8563 14.6012 15.1631 14.3449 15.25 13.89L16.7129 6.59784C16.7262 6.52245 16.7342 6.42206 16.7342 6.32616C16.7342 5.95097 16.46 5.72948 16.0985 5.72948C15.8006 5.72948 15.5284 5.93065 15.476 6.26054L14.343 12.941L14.2862 12.941L12.6129 6.31464C12.5295 5.94491 12.3141 5.74374 11.9426 5.74374C11.5889 5.74374 11.3592 5.95468 11.2678 6.33241L9.5928 12.941L9.53948 12.941L8.40471 6.26054C8.36213 5.94491 8.09788 5.72948 7.77249 5.72948C7.38948 5.72948 7.13226 5.95995 7.13226 6.32616C7.13226 6.39804 7.14202 6.50018 7.16956 6.60585L8.63246 13.89C8.71136 14.3289 9.02445 14.6012 9.48382 14.6012ZM6.41058 10.1086C6.41058 10.2951 6.55003 10.4328 6.7348 10.4328L17.1459 10.4328C17.3325 10.4328 17.4719 10.2951 17.4719 10.1086C17.4719 9.93007 17.3325 9.80038 17.1459 9.80038L6.7348 9.80038C6.55003 9.80038 6.41058 9.93007 6.41058 10.1086Z" fill="white" fill-opacity="0.85"/>
 </g>
</svg>
