<?xml version="1.0" encoding="UTF-8"?>
<!--Generator: Apple Native CoreSVG 341-->
<!DOCTYPE svg
PUBLIC "-//W3C//DTD SVG 1.1//EN"
       "http://www.w3.org/Graphics/SVG/1.1/DTD/svg11.dtd">
<svg version="1.1" xmlns="http://www.w3.org/2000/svg" xmlns:xlink="http://www.w3.org/1999/xlink" viewBox="0 0 20.5381 20.1848">
 <g>
  <rect height="20.1848" opacity="0" width="20.5381" x="0" y="0"/>
  <path d="M20.1767 10.0875C20.1767 15.6478 15.6576 20.175 10.0875 20.175C4.52715 20.175 0 15.6478 0 10.0875C0 4.51914 4.52715 0 10.0875 0C15.6576 0 20.1767 4.51914 20.1767 10.0875ZM13.7619 6.10897L13.1355 9.7871L11.7057 9.7871L10.7941 6.16659C10.709 5.77831 10.4803 5.56562 10.0937 5.56562C9.72324 5.56562 9.48203 5.78984 9.38711 6.18261L8.47558 9.7871L7.0412 9.7871L6.42284 6.10897C6.3785 5.77831 6.10272 5.55136 5.76054 5.55136C5.36074 5.55136 5.09824 5.79335 5.09824 6.17636C5.09824 6.24999 5.10976 6.36015 5.12753 6.46933L5.79277 9.7871L4.67773 9.7871C4.48144 9.7871 4.34199 9.91855 4.34199 10.1068C4.34199 10.3031 4.48144 10.4443 4.67773 10.4443L5.9207 10.4443L6.64453 14.0301C6.72695 14.4937 7.05507 14.7793 7.53749 14.7793C7.97362 14.7793 8.2955 14.5035 8.40995 14.0461L9.32148 10.4443L10.8553 10.4443L11.7668 14.0461C11.8795 14.5195 12.1818 14.7793 12.65 14.7793C13.1279 14.7793 13.4498 14.5115 13.5385 14.0301L14.2641 10.4443L15.507 10.4443C15.7033 10.4443 15.8428 10.3031 15.8428 10.1068C15.8428 9.91855 15.7033 9.7871 15.507 9.7871L14.392 9.7871L15.0572 6.46132C15.0687 6.38241 15.0785 6.28202 15.0785 6.17636C15.0785 5.78788 14.791 5.55136 14.4145 5.55136C14.0998 5.55136 13.8143 5.76405 13.7619 6.10897ZM7.65175 13.0377L7.59843 13.0377L7.1496 10.4443L8.32363 10.4443ZM12.5863 13.0377L12.5295 13.0377L11.8674 10.4443L13.0271 10.4443ZM10.6918 9.7871L9.48495 9.7871L10.06 7.56346L10.1248 7.56346Z" fill="white" fill-opacity="0.85"/>
 </g>
</svg>
