<?xml version="1.0" encoding="UTF-8"?>
<!--Generator: Apple Native CoreSVG 341-->
<!DOCTYPE svg
PUBLIC "-//W3C//DTD SVG 1.1//EN"
       "http://www.w3.org/Graphics/SVG/1.1/DTD/svg11.dtd">
<svg version="1.1" xmlns="http://www.w3.org/2000/svg" xmlns:xlink="http://www.w3.org/1999/xlink" viewBox="0 0 18.5894 18.2316">
 <g>
  <rect height="18.2316" opacity="0" width="18.5894" x="0" y="0"/>
  <path d="M3.20351 18.2281L15.0246 18.2281C17.1404 18.2281 18.2281 17.1502 18.2281 15.0646L18.2281 3.17148C18.2281 1.08769 17.1404 0 15.0246 0L3.20351 0C1.0957 0 0 1.08769 0 3.17148L0 15.0646C0 17.1502 1.0957 18.2281 3.20351 18.2281ZM3.31444 16.3148C2.40643 16.3148 1.91327 15.8465 1.91327 14.8977L1.91327 3.34023C1.91327 2.39139 2.40643 1.91503 3.31444 1.91503L14.9137 1.91503C15.8137 1.91503 16.3148 2.39139 16.3148 3.34023L16.3148 14.8977C16.3148 15.8465 15.8137 16.3148 14.9137 16.3148Z" fill="white" fill-opacity="0.85"/>
  <path d="M6.66464 13.6246C7.08222 13.6246 7.39081 13.3603 7.49374 12.9295L9.0914 6.67382L9.15624 6.67382L10.7441 12.9295C10.8471 13.3764 11.1424 13.6246 11.5875 13.6246C12.0371 13.6246 12.3519 13.3684 12.4326 12.9135L13.8955 5.62128C13.915 5.54589 13.923 5.4455 13.923 5.3496C13.923 4.9744 13.6506 4.75292 13.2811 4.75292C12.9895 4.75292 12.7189 4.95409 12.6586 5.28397L11.5256 11.9645L11.4687 11.9645L9.80351 5.33807C9.71034 4.96835 9.49492 4.76718 9.12519 4.76718C8.77148 4.76718 8.5418 4.97812 8.45039 5.35585L6.77538 11.9645L6.7203 11.9645L5.58729 5.28397C5.54471 4.96835 5.28046 4.75292 4.95507 4.75292C4.57206 4.75292 4.32285 4.98339 4.32285 5.3496C4.32285 5.42147 4.33261 5.52362 4.35038 5.62929L5.81328 12.9135C5.90195 13.3523 6.20703 13.6246 6.66464 13.6246ZM3.59316 9.13203C3.59316 9.31855 3.73261 9.45624 3.91738 9.45624L14.3285 9.45624C14.515 9.45624 14.6545 9.31855 14.6545 9.13203C14.6545 8.95351 14.515 8.82382 14.3285 8.82382L3.91738 8.82382C3.73261 8.82382 3.59316 8.95351 3.59316 9.13203Z" fill="white" fill-opacity="0.85"/>
 </g>
</svg>
