<?xml version="1.0" encoding="UTF-8"?>
<!--Generator: Apple Native CoreSVG 341-->
<!DOCTYPE svg
PUBLIC "-//W3C//DTD SVG 1.1//EN"
       "http://www.w3.org/Graphics/SVG/1.1/DTD/svg11.dtd">
<svg version="1.1" xmlns="http://www.w3.org/2000/svg" xmlns:xlink="http://www.w3.org/1999/xlink" viewBox="0 0 20.5381 20.1848">
 <g>
  <rect height="20.1848" opacity="0" width="20.5381" x="0" y="0"/>
  <path d="M10.0875 20.175C15.6576 20.175 20.1767 15.6559 20.1767 10.0875C20.1767 4.51914 15.6576 0 10.0875 0C4.51914 0 0 4.51914 0 10.0875C0 15.6559 4.51914 20.175 10.0875 20.175ZM10.0875 18.1879C5.60839 18.1879 1.9871 14.5666 1.9871 10.0875C1.9871 5.60839 5.60839 1.9871 10.0875 1.9871C14.5666 1.9871 18.1897 5.60839 18.1897 10.0875C18.1897 14.5666 14.5666 18.1879 10.0875 18.1879Z" fill="white" fill-opacity="0.85"/>
  <path d="M7.62519 14.6012C8.04276 14.6012 8.35136 14.3369 8.45604 13.9061L10.0519 7.65038L10.1168 7.65038L11.7047 13.9061C11.8076 14.3529 12.0949 14.6012 12.548 14.6012C12.9977 14.6012 13.3062 14.3449 13.3932 13.89L14.8561 6.59784C14.8693 6.52245 14.8773 6.42206 14.8773 6.32616C14.8773 5.95097 14.6031 5.72948 14.2416 5.72948C13.9438 5.72948 13.6715 5.93065 13.6191 6.26054L12.4861 12.941L12.4293 12.941L10.756 6.31464C10.6709 5.94491 10.4572 5.74374 10.0857 5.74374C9.73203 5.74374 9.50234 5.95468 9.41094 6.33241L7.73593 12.941L7.68085 12.941L6.54784 6.26054C6.50526 5.94491 6.241 5.72948 5.91562 5.72948C5.53261 5.72948 5.27538 5.95995 5.27538 6.32616C5.27538 6.39804 5.28515 6.50018 5.31269 6.60585L6.77382 13.89C6.85449 14.3289 7.16757 14.6012 7.62519 14.6012ZM4.5537 10.1086C4.5537 10.2951 4.69316 10.4328 4.87792 10.4328L15.2891 10.4328C15.4756 10.4328 15.615 10.2951 15.615 10.1086C15.615 9.93007 15.4756 9.80038 15.2891 9.80038L4.87792 9.80038C4.69316 9.80038 4.5537 9.93007 4.5537 10.1086Z" fill="white" fill-opacity="0.85"/>
 </g>
</svg>
