<?xml version="1.0" encoding="UTF-8"?>
<!--Generator: Apple Native CoreSVG 341-->
<!DOCTYPE svg
PUBLIC "-//W3C//DTD SVG 1.1//EN"
       "http://www.w3.org/Graphics/SVG/1.1/DTD/svg11.dtd">
<svg version="1.1" xmlns="http://www.w3.org/2000/svg" xmlns:xlink="http://www.w3.org/1999/xlink" viewBox="0 0 23.4944 23.7372">
 <g>
  <rect height="23.7372" opacity="0" width="23.4944" x="0" y="0"/>
  <path d="M1.25158 22.4202C2.93322 24.1 5.38771 24.1213 7.08809 22.1938C8.87579 20.1504 10.9143 16.3223 13.7275 13.509C15.8016 11.427 18.1668 13.3766 21.1209 10.7868C22.5559 9.6477 23.3957 7.78208 23.0602 6.28834L19.1906 7.34537C18.6174 7.49733 18.2236 7.14088 18.0477 6.53736L17.7627 5.54049C17.5867 4.93697 17.7982 4.43208 18.3635 4.28189L22.2391 3.22759C22.1176 2.82603 21.783 2.26939 21.3281 1.80475C19.0072-0.569468 15.1172-0.55853 12.8533 1.58639C9.4844 4.78756 11.9727 8.08892 9.90607 10.152C7.33166 12.7184 3.50002 14.796 1.46642 16.5837C-0.467362 18.2795-0.436307 20.7323 1.25158 22.4202ZM2.34454 21.3227C1.31095 20.2696 1.32247 18.72 2.53009 17.6553C4.56036 15.8772 8.65743 13.5928 11.007 11.245C13.5916 8.66041 10.8746 5.52291 13.9623 2.68111C15.65 1.12837 18.6488 1.15298 20.4113 2.93638L20.8602 2.136L18.0102 2.88131C16.5264 3.27623 15.875 4.42623 16.3205 5.96509L16.5957 6.91763C17.0785 8.61021 18.077 9.11665 19.4524 8.74751L22.4113 7.9481L21.5916 7.52486C21.3865 8.25435 21.0102 8.969 20.3984 9.57721C17.9949 11.9239 15.1801 9.87584 12.6283 12.4098C10.0594 14.977 7.7963 19.0936 6.01818 21.1354C4.934 22.3803 3.37462 22.3821 2.34454 21.3227ZM14.026 9.77916L16.1135 9.21978C16.2893 9.17095 16.3985 8.9774 16.3496 8.79009C16.3088 8.61607 16.1233 8.50064 15.9297 8.55748L13.8502 9.11509C13.6664 9.16392 13.567 9.34771 13.6043 9.52701C13.6336 9.73834 13.8422 9.82798 14.026 9.77916ZM13.7738 8.72251L15.8338 8.17291C16.0193 8.12408 16.1365 7.94029 16.0779 7.73521C16.0256 7.54966 15.8338 7.45376 15.6598 7.49283L13.5803 8.05845C13.3947 8.09927 13.2873 8.29283 13.3361 8.46861C13.3965 8.67369 13.5705 8.77935 13.7738 8.72251ZM13.5154 7.66587L15.5834 7.11626C15.769 7.06744 15.8781 6.88365 15.8178 6.67857C15.7752 6.49302 15.5834 6.38912 15.4094 6.43443L13.3201 6.99205C13.1346 7.04087 13.0369 7.23619 13.084 7.41197C13.1311 7.61529 13.3104 7.72271 13.5154 7.66587ZM17.8621 11.5571L18.8852 11.309L17.6188 6.68736L16.5957 6.91763ZM4.13654 20.7022C4.77775 20.7022 5.29552 20.1827 5.29552 19.5432C5.29552 18.9055 4.77775 18.378 4.13654 18.378C3.49708 18.378 2.9713 18.9055 2.9713 19.5432C2.9713 20.1827 3.49708 20.7022 4.13654 20.7022Z" fill="white" fill-opacity="0.85"/>
 </g>
</svg>
