<?xml version="1.0" encoding="UTF-8"?>
<!--Generator: Apple Native CoreSVG 341-->
<!DOCTYPE svg
PUBLIC "-//W3C//DTD SVG 1.1//EN"
       "http://www.w3.org/Graphics/SVG/1.1/DTD/svg11.dtd">
<svg version="1.1" xmlns="http://www.w3.org/2000/svg" xmlns:xlink="http://www.w3.org/1999/xlink" viewBox="0 0 23.778 23.6546">
 <g>
  <rect height="23.6546" opacity="0" width="23.778" x="0" y="0"/>
  <path d="M18.5609 16.8404L19.4187 16.9753C19.7966 17.0312 20.1372 17.2601 20.3581 17.5875L22.415 20.6642C22.6331 21.0003 22.6589 21.3621 22.4204 21.6085L20.5634 23.4656C20.3152 23.7156 19.965 23.7121 19.6208 23.4876L16.5308 21.4033C16.215 21.1939 15.9746 20.8515 15.9205 20.4718L15.7855 19.6158L11.8386 15.6688C12.1278 15.2829 12.4562 14.8699 12.8259 14.4307L17.3478 18.9509L17.5414 20.0429L19.9294 21.8466L20.79 20.9861L18.9898 18.5865L17.896 18.4027L13.3277 13.8451C13.6441 13.475 13.9977 13.0819 14.3867 12.6678ZM6.82044 2.14135L12.2038 7.53383C12.2809 7.82803 12.3837 8.11763 12.5101 8.39995C12.2194 8.68927 11.9365 8.96479 11.6686 9.21476L5.63158 3.17318C4.94154 2.49115 4.23783 2.48314 3.57259 3.15638L2.10951 4.62923C1.43802 5.31048 1.42826 5.99467 2.12005 6.68646L7.87168 12.4425C7.4001 12.7932 6.96471 13.093 6.56313 13.3519L1.08647 7.86732C-0.352789 6.42806-0.358062 4.88588 1.04662 3.48119L2.42279 2.10151C3.82748 0.696823 5.37493 0.703854 6.82044 2.14135ZM3.90872 5.58314L7.47318 9.15112C7.64779 9.32572 7.63978 9.59779 7.47142 9.76264C7.30658 9.93197 7.0265 9.93549 6.8519 9.76088L3.29096 6.21419C3.11635 6.04584 3.12611 5.76224 3.29447 5.58139C3.46908 5.42182 3.75365 5.43432 3.90872 5.58314ZM5.14954 4.35033L8.71576 7.90678C8.88236 8.07514 8.8806 8.34897 8.70423 8.53783C8.54916 8.69115 8.25131 8.71068 8.08471 8.53607L4.53978 4.96361C4.37494 4.79701 4.36693 4.51967 4.54506 4.34858C4.70365 4.18725 4.97845 4.17924 5.14954 4.35033Z" fill="white" fill-opacity="0.85"/>
  <path d="M1.67943 22.2851C3.4138 23.9999 5.75247 23.9896 7.43118 22.3011C9.49564 20.2206 9.48527 17.5619 15.5611 11.4464C17.6544 12.3818 20.1591 12.0304 21.8283 10.3693C23.6441 8.55522 23.9292 5.67104 22.5117 3.38276L19.829 6.06362C19.5794 6.31147 19.2843 6.32573 19.0204 6.06538L17.9169 4.95737C17.6495 4.68198 17.6273 4.37709 17.8751 4.12572L20.564 1.45112C18.2917 0.0433074 15.4173 0.320457 13.6033 2.14252C11.9324 3.81342 11.573 6.30659 12.5101 8.39995C6.36575 14.5144 3.74037 14.4654 1.6599 16.5218C-0.0365843 18.2005-0.0469347 20.5472 1.67943 22.2851ZM14.8197 9.14487C13.1306 7.45756 13.064 4.79506 14.6679 3.20717C15.5474 2.31966 16.7956 1.94759 18.0011 2.11576L16.6958 3.41928C15.9714 4.13744 15.991 5.06947 16.7464 5.80717L18.1706 7.21811C18.9003 7.94604 19.8386 7.96557 20.5292 7.26694L21.8488 5.94115C22.0249 7.16264 21.6466 8.40913 20.7574 9.30639C19.1615 10.9023 16.5132 10.8242 14.8197 9.14487ZM2.79036 21.1724C1.70599 20.0685 1.75013 18.6873 2.76634 17.663C5.02416 15.423 6.63958 16.1361 13.2787 9.66381C13.4226 9.8558 13.5808 10.0318 13.7488 10.2078C13.915 10.374 14.099 10.5419 14.291 10.6824C7.82493 17.3232 8.53979 18.9386 6.3015 21.1804C5.27552 22.2126 3.8845 22.247 2.79036 21.1724ZM4.51888 20.6269C5.16009 20.6269 5.68412 20.1011 5.68412 19.4617C5.68412 18.8222 5.16009 18.3027 4.51888 18.3027C3.87943 18.3027 3.3599 18.8222 3.3599 19.4617C3.3599 20.1011 3.87943 20.6269 4.51888 20.6269Z" fill="white" fill-opacity="0.85"/>
 </g>
</svg>
