<?xml version="1.0" encoding="UTF-8"?>
<!--Generator: Apple Native CoreSVG 341-->
<!DOCTYPE svg
PUBLIC "-//W3C//DTD SVG 1.1//EN"
       "http://www.w3.org/Graphics/SVG/1.1/DTD/svg11.dtd">
<svg version="1.1" xmlns="http://www.w3.org/2000/svg" xmlns:xlink="http://www.w3.org/1999/xlink" viewBox="0 0 23.5139 23.7687">
 <g>
  <rect height="23.7687" opacity="0" width="23.5139" x="0" y="0"/>
  <path d="M1.25334 22.4439C2.93498 24.1238 5.4295 24.1789 7.07384 22.2255C8.36875 20.699 11.1455 16.1085 13.7213 13.5328C15.3729 11.8812 17.2178 12.7822 19.2158 11.973L17.5434 5.8568C17.3436 5.12242 17.6481 4.50972 18.4803 4.28062L22.2408 3.25133C22.1113 2.85153 21.7768 2.29313 21.3139 1.82848C18.993-0.545732 15.151-0.590848 12.8471 1.59411C9.48615 4.79528 11.9744 8.09664 9.90783 10.1597C7.21955 12.84 3.48576 14.8019 1.46017 16.6074C-0.457597 18.3193-0.444315 20.748 1.25334 22.4439ZM4.13829 20.7302C3.48556 20.7302 2.96075 20.2054 2.96075 19.5589C2.96075 18.9142 3.48556 18.3814 4.13829 18.3814C4.77853 18.3814 5.30958 18.9142 5.30958 19.5589C5.30958 20.2054 4.77853 20.7302 4.13829 20.7302ZM13.376 7.67457C13.1576 7.73316 12.9686 7.62399 12.894 7.39313C12.8371 7.21207 12.9641 6.99723 13.1692 6.94039L15.4217 6.33395C15.6152 6.28512 15.8168 6.40231 15.8789 6.60563C15.9508 6.82848 15.8123 7.02731 15.6072 7.08414ZM13.6557 8.82262C13.4391 8.88121 13.2598 8.77028 13.1852 8.53942C13.1248 8.36012 13.2518 8.14528 13.4568 8.09645L15.7094 7.48199C15.8949 7.44117 16.1063 7.54859 16.1649 7.75367C16.227 7.97828 16.1 8.17535 15.8949 8.23219ZM13.9434 9.96891C13.7383 10.0275 13.5199 9.91832 13.4729 9.68746C13.4338 9.48863 13.5447 9.30133 13.7463 9.24449L15.9988 8.64606C16.2137 8.57945 16.409 8.70465 16.4596 8.89821C16.5119 9.09703 16.3815 9.31012 16.1959 9.35895ZM20.3832 11.4234C20.749 11.19 21.1238 10.8935 21.5094 10.5232C22.7363 9.3607 23.3438 7.63004 23.0539 6.31208L20.0826 7.1402C19.7717 7.22458 19.5131 7.24235 19.2367 7.20056Z" fill="white" fill-opacity="0.85"/>
 </g>
</svg>
