<?xml version="1.0" encoding="UTF-8"?>
<!--Generator: Apple Native CoreSVG 341-->
<!DOCTYPE svg
PUBLIC "-//W3C//DTD SVG 1.1//EN"
       "http://www.w3.org/Graphics/SVG/1.1/DTD/svg11.dtd">
<svg version="1.1" xmlns="http://www.w3.org/2000/svg" xmlns:xlink="http://www.w3.org/1999/xlink" viewBox="0 0 20.5381 20.1848">
 <g>
  <rect height="20.1848" opacity="0" width="20.5381" x="0" y="0"/>
  <path d="M20.1767 10.0973C20.1767 15.6656 15.6576 20.1848 10.0875 20.1848C4.52715 20.1848 0 15.6656 0 10.0973C0 4.53691 4.52715 0.00976562 10.0875 0.00976562C15.6576 0.00976562 20.1767 4.53691 20.1767 10.0973ZM5.07714 7.71504C4.53749 7.71504 4.13183 8.11269 4.13183 8.65859L4.13183 11.5154C4.13183 12.0613 4.53749 12.4607 5.07714 12.4607L15.1156 12.4607C15.6553 12.4607 16.0512 12.0516 16.0512 11.5039L16.0512 8.65859C16.0512 8.11269 15.6553 7.71504 15.1156 7.71504Z" fill="white" fill-opacity="0.85"/>
 </g>
</svg>
