<?xml version="1.0" encoding="UTF-8"?>
<!--Generator: Apple Native CoreSVG 341-->
<!DOCTYPE svg
PUBLIC "-//W3C//DTD SVG 1.1//EN"
       "http://www.w3.org/Graphics/SVG/1.1/DTD/svg11.dtd">
<svg version="1.1" xmlns="http://www.w3.org/2000/svg" xmlns:xlink="http://www.w3.org/1999/xlink" viewBox="0 0 18.573 18.2195">
 <g>
  <rect height="18.2195" opacity="0" width="18.573" x="0" y="0"/>
  <path d="M16.8109 1.39277C17.7262 2.29824 18.2117 3.64141 18.2117 5.35039L18.2117 12.8621C18.2117 14.5693 17.7262 15.9143 16.8109 16.818C15.9232 17.7092 14.5801 18.2107 12.8631 18.2107L5.34238 18.2107C3.6334 18.2107 2.28848 17.7172 1.39277 16.818C0.477539 15.9143 0 14.5693 0 12.8621L0 5.35039C0 3.64141 0.485547 2.29824 1.39277 1.39277C2.28047 0.50332 3.6334 0 5.34238 0L12.8631 0C14.5801 0 15.9152 0.495312 16.8109 1.39277ZM11.7889 5.14687L9.10252 7.82103L6.42011 5.14687C6.23925 4.96777 6.02558 4.8791 5.7703 4.8791C5.24804 4.8791 4.84101 5.27812 4.84101 5.78612C4.84101 6.03358 4.94121 6.25878 5.11855 6.43612L7.79841 9.11921L5.11855 11.7869C4.94121 11.9705 4.84101 12.1877 4.84101 12.4352C4.84101 12.9512 5.24804 13.368 5.7703 13.368C6.03534 13.368 6.25526 13.2633 6.43612 13.0904L9.10013 10.4225L11.7648 13.0904C11.9439 13.2633 12.1656 13.368 12.4387 13.368C12.9512 13.368 13.36 12.9512 13.36 12.4352C13.36 12.1877 13.2598 11.9705 13.0807 11.7869L10.4031 9.11761L13.0807 6.43612C13.2598 6.25878 13.36 6.03358 13.36 5.78612C13.36 5.27812 12.9512 4.8791 12.4387 4.8791C12.1736 4.8791 11.96 4.96777 11.7889 5.14687Z" fill="white" fill-opacity="0.85"/>
 </g>
</svg>
