<?xml version="1.0" encoding="UTF-8"?>
<!--Generator: Apple Native CoreSVG 341-->
<!DOCTYPE svg
PUBLIC "-//W3C//DTD SVG 1.1//EN"
       "http://www.w3.org/Graphics/SVG/1.1/DTD/svg11.dtd">
<svg version="1.1" xmlns="http://www.w3.org/2000/svg" xmlns:xlink="http://www.w3.org/1999/xlink" viewBox="0 0 20.5381 20.1848">
 <g>
  <rect height="20.1848" opacity="0" width="20.5381" x="0" y="0"/>
  <path d="M20.1767 10.0875C20.1767 15.6478 15.6576 20.175 10.0875 20.175C4.52715 20.175 0 15.6478 0 10.0875C0 4.51914 4.52715 0 10.0875 0C15.6576 0 20.1767 4.51914 20.1767 10.0875ZM12.7865 6.13124L10.098 8.80432L7.416 6.13124C7.2369 5.95214 7.01522 5.86347 6.75995 5.86347C6.2457 5.86347 5.83867 6.26249 5.83867 6.7705C5.83867 7.01796 5.93886 7.24491 6.1082 7.4205L8.79093 10.1039L6.1082 12.7713C5.93886 12.9549 5.83867 13.1721 5.83867 13.4195C5.83867 13.9355 6.2457 14.3523 6.75995 14.3523C7.03124 14.3523 7.25292 14.2477 7.43378 14.0748L10.0957 11.409L12.7607 14.0748C12.9416 14.2477 13.1633 14.3523 13.4346 14.3523C13.9408 14.3523 14.3478 13.9355 14.3478 13.4195C14.3478 13.1721 14.2557 12.9549 14.0783 12.7713L11.4004 10.1023L14.0783 7.4205C14.2557 7.24491 14.3478 7.01796 14.3478 6.7705C14.3478 6.26249 13.9408 5.86347 13.4346 5.86347C13.1713 5.86347 12.9576 5.95214 12.7865 6.13124Z" fill="white" fill-opacity="0.85"/>
 </g>
</svg>
