<?xml version="1.0" encoding="UTF-8"?>
<!--Generator: Apple Native CoreSVG 341-->
<!DOCTYPE svg
PUBLIC "-//W3C//DTD SVG 1.1//EN"
       "http://www.w3.org/Graphics/SVG/1.1/DTD/svg11.dtd">
<svg version="1.1" xmlns="http://www.w3.org/2000/svg" xmlns:xlink="http://www.w3.org/1999/xlink" viewBox="0 0 20.5381 20.2433">
 <g>
  <rect height="20.2433" opacity="0" width="20.5381" x="0" y="0"/>
  <path d="M10.0875 20.2433C15.6576 20.2433 20.1767 15.7242 20.1767 10.1559C20.1767 4.58574 15.6576 0.0666016 10.0875 0.0666016C4.51914 0.0666016 0 4.58574 0 10.1559C0 15.7242 4.51914 20.2433 10.0875 20.2433ZM10.0875 18.2563C5.60839 18.2563 1.9871 14.635 1.9871 10.1559C1.9871 5.67675 5.60839 2.0537 10.0875 2.0537C14.5666 2.0537 18.1897 5.67675 18.1897 10.1559C18.1897 14.635 14.5666 18.2563 10.0875 18.2563Z" fill="white" fill-opacity="0.85"/>
  <path d="M7.43671 15.4908L12.724 15.4908C13.7414 15.4908 14.1533 14.9432 14.3051 13.9355L14.9853 9.33534L5.18163 9.33534L5.85566 13.9355C6.00741 14.9432 6.42734 15.4908 7.43671 15.4908ZM8.67773 14.1496C8.42655 14.1496 8.23398 13.9508 8.23398 13.7139C8.23398 13.5896 8.28105 13.4937 8.37421 13.4103L9.46269 12.3139L8.37421 11.2111C8.27929 11.126 8.23398 11.0266 8.23398 10.9041C8.23398 10.6689 8.42655 10.4684 8.67773 10.4684C8.79042 10.4684 8.89159 10.5172 8.97499 10.6006L10.0715 11.7006L11.1857 10.6006C11.2691 10.5172 11.3686 10.4603 11.4812 10.4603C11.7324 10.4603 11.925 10.6609 11.925 10.9041C11.925 11.0185 11.8877 11.118 11.7945 11.2111L10.698 12.3139L11.7945 13.4103C11.8699 13.4937 11.917 13.5896 11.917 13.7139C11.917 13.9508 11.7244 14.1496 11.4812 14.1496C11.3605 14.1496 11.2611 14.0963 11.1777 14.0191L10.0715 12.9271L8.983 14.0191C8.8996 14.1043 8.79042 14.1496 8.67773 14.1496ZM4.90019 8.54433L15.2605 8.54433C15.8324 8.54433 16.1404 8.19804 16.1404 7.6289L16.1404 7.11327C16.1404 6.53437 15.8324 6.20136 15.2605 6.20136L4.90019 6.20136C4.35409 6.20136 4.0203 6.53437 4.0203 7.11327L4.0203 7.6289C4.0203 8.19804 4.33007 8.54433 4.90019 8.54433Z" fill="white" fill-opacity="0.85"/>
 </g>
</svg>
