<?xml version="1.0" encoding="UTF-8"?>
<!--Generator: Apple Native CoreSVG 341-->
<!DOCTYPE svg
PUBLIC "-//W3C//DTD SVG 1.1//EN"
       "http://www.w3.org/Graphics/SVG/1.1/DTD/svg11.dtd">
<svg version="1.1" xmlns="http://www.w3.org/2000/svg" xmlns:xlink="http://www.w3.org/1999/xlink" viewBox="0 0 22.6856 22.3434">
 <g>
  <rect height="22.3434" opacity="0" width="22.6856" x="0" y="0"/>
  <path d="M5.25959 19.7074L7.34612 19.7074C7.53713 19.7074 7.67131 19.7607 7.81077 19.8984L9.29534 21.375C10.5627 22.6521 11.758 22.6424 13.0254 21.375L14.51 19.8984C14.6477 19.7607 14.7836 19.7074 14.9746 19.7074L17.0612 19.7074C18.8602 19.7074 19.7076 18.8662 19.7076 17.0609L19.7076 14.9744C19.7076 14.7834 19.7627 14.6555 19.8987 14.5098L21.3672 13.0252C22.6426 11.7578 22.6346 10.5705 21.3672 9.29512L19.8987 7.81055C19.7592 7.67286 19.7076 7.53692 19.7076 7.35391L19.7076 5.25938C19.7076 3.46836 18.8664 2.6129 17.0612 2.6129L14.9746 2.6129C14.7836 2.6129 14.6459 2.56583 14.51 2.42989L13.0254 0.953326C11.7545-0.323821 10.5662-0.312298 9.29534 0.955083L7.81077 2.42989C7.67307 2.56583 7.53713 2.6129 7.34612 2.6129L5.25959 2.6129C3.46057 2.6129 2.61311 3.45059 2.61311 5.25938L2.61311 7.35391C2.61311 7.53692 2.56604 7.67461 2.4301 7.81055L0.953541 9.29512C-0.321848 10.5705-0.31384 11.7578 0.953541 13.0252L2.4301 14.5098C2.56604 14.6555 2.61311 14.7834 2.61311 14.9744L2.61311 17.0609C2.61311 18.86 3.46233 19.7074 5.25959 19.7074ZM5.38791 17.9332C4.52756 17.9332 4.38908 17.7947 4.38732 16.9344L4.38732 14.3813C4.38732 14.0936 4.30295 13.8742 4.09338 13.6647L2.29513 11.8744C1.68517 11.2564 1.68517 11.0772 2.29513 10.4592L4.09338 8.66895C4.30295 8.45938 4.38732 8.24004 4.38908 7.94434L4.38908 5.39121C4.38908 4.51933 4.51779 4.39238 5.38791 4.39238L7.94104 4.38886C8.2385 4.38886 8.45783 4.3125 8.6674 4.09492L10.4559 2.29667C11.0739 1.68671 11.2514 1.68496 11.8631 2.29667L13.6614 4.09492C13.8612 4.3125 14.0903 4.38886 14.378 4.38886L16.9311 4.39238C17.7932 4.39238 17.9317 4.5291 17.9317 5.39121L17.9317 7.94434C17.9334 8.24004 18.0258 8.45938 18.2354 8.66895L20.0336 10.4592C20.6436 11.0772 20.6436 11.2564 20.0336 11.8744L18.2354 13.6647C18.0258 13.8742 17.9334 14.0936 17.9334 14.3813L17.9317 16.9344C17.9317 17.7947 17.7932 17.9332 16.9311 17.9332L14.378 17.935C14.0903 17.935 13.8664 18.0176 13.6614 18.2387L11.8631 20.0352C11.2531 20.6451 11.0739 20.6451 10.4559 20.0352L8.6674 18.2387C8.45432 18.0176 8.2385 17.935 7.94104 17.935Z" fill="white" fill-opacity="0.85"/>
  <path d="M8.5967 14.999L15.001 8.58496C15.1748 8.41914 15.2653 8.20898 15.2653 7.97305C15.2653 7.47559 14.875 7.10137 14.3873 7.10137C14.1373 7.10137 13.9369 7.18653 13.7676 7.36211L7.33928 13.7602C7.17346 13.934 7.07502 14.1361 7.07502 14.3801C7.07502 14.8695 7.46526 15.2695 7.95295 15.2695C8.21896 15.2695 8.42736 15.1666 8.5967 14.999ZM13.7516 14.999C13.9192 15.1666 14.1293 15.2695 14.3873 15.2695C14.875 15.2695 15.2653 14.8695 15.2653 14.3801C15.2653 14.1361 15.1748 13.934 15.001 13.7602L8.57892 7.36211C8.41134 7.18653 8.20295 7.10137 7.95295 7.10137C7.46526 7.10137 7.07502 7.47559 7.07502 7.97305C7.07502 8.20898 7.17346 8.41914 7.33928 8.58496Z" fill="white" fill-opacity="0.85"/>
 </g>
</svg>
