<?xml version="1.0" encoding="UTF-8"?>
<!--Generator: Apple Native CoreSVG 341-->
<!DOCTYPE svg
PUBLIC "-//W3C//DTD SVG 1.1//EN"
       "http://www.w3.org/Graphics/SVG/1.1/DTD/svg11.dtd">
<svg version="1.1" xmlns="http://www.w3.org/2000/svg" xmlns:xlink="http://www.w3.org/1999/xlink" viewBox="0 0 22.8129 22.46">
 <g>
  <rect height="22.46" opacity="0" width="22.8129" x="0" y="0"/>
  <path d="M1.13018 13.4835L8.96651 21.3198C10.461 22.8144 11.9905 22.8224 13.4753 21.3456L21.3454 13.4675C22.8239 11.989 22.8142 10.4532 21.3214 8.95872L13.4913 1.12864C11.9985-0.364134 10.469-0.380149 8.98428 1.10461L1.1044 8.97473C-0.380365 10.4613-0.364349 11.989 1.13018 13.4835ZM2.56884 12.2185C1.91493 11.5646 1.89989 10.8989 2.57685 10.222L10.2235 2.57531C10.9005 1.89835 11.5661 1.91339 12.22 2.5673L19.8827 10.23C20.5286 10.8759 20.5517 11.5513 19.8747 12.2265L12.228 19.8749C11.5511 20.5501 10.8694 20.5288 10.2315 19.8909Z" fill="white" fill-opacity="0.85"/>
  <path d="M8.65009 15.0591L15.0624 8.64503C15.2282 8.48097 15.3267 8.26906 15.3267 8.03312C15.3267 7.54367 14.9364 7.16144 14.4487 7.16144C14.1987 7.16144 13.9903 7.2466 13.821 7.42394L7.40068 13.8202C7.22685 13.9941 7.13642 14.1962 7.13642 14.4402C7.13642 14.9376 7.51865 15.3296 8.01435 15.3296C8.27236 15.3296 8.48075 15.2267 8.65009 15.0591ZM13.805 15.0591C13.9726 15.2267 14.1827 15.3296 14.4487 15.3296C14.9364 15.3296 15.3267 14.9376 15.3267 14.4402C15.3267 14.1962 15.2282 13.9941 15.0624 13.8202L8.63232 7.42394C8.46474 7.2466 8.26435 7.16144 8.01435 7.16144C7.51865 7.16144 7.13642 7.54367 7.13642 8.03312C7.13642 8.26906 7.22685 8.48097 7.40068 8.64503Z" fill="white" fill-opacity="0.85"/>
 </g>
</svg>
