<?xml version="1.0" encoding="UTF-8"?>
<!--Generator: Apple Native CoreSVG 341-->
<!DOCTYPE svg
PUBLIC "-//W3C//DTD SVG 1.1//EN"
       "http://www.w3.org/Graphics/SVG/1.1/DTD/svg11.dtd">
<svg version="1.1" xmlns="http://www.w3.org/2000/svg" xmlns:xlink="http://www.w3.org/1999/xlink" viewBox="0 0 18.573 18.2195">
 <g>
  <rect height="18.2195" opacity="0" width="18.573" x="0" y="0"/>
  <path d="M5.34238 18.2107L12.8631 18.2107C14.5801 18.2107 15.9232 17.7092 16.8109 16.818C17.7262 15.9143 18.2117 14.5693 18.2117 12.8621L18.2117 5.35039C18.2117 3.64141 17.7262 2.29824 16.8109 1.39277C15.9152 0.495312 14.5801 0 12.8631 0L5.34238 0C3.6334 0 2.28047 0.50332 1.39277 1.39277C0.485547 2.29824 0 3.64141 0 5.35039L0 12.8621C0 14.5693 0.477539 15.9143 1.39277 16.818C2.28848 17.7172 3.6334 18.2107 5.34238 18.2107ZM5.39863 16.2975C4.2457 16.2975 3.36347 15.9943 2.79393 15.4248C2.20839 14.849 1.91327 13.9766 1.91327 12.8041L1.91327 5.40664C1.91327 4.23593 2.20839 3.36347 2.79393 2.78593C3.3537 2.22616 4.2457 1.91327 5.39863 1.91327L12.8051 1.91327C13.9678 1.91327 14.842 2.21815 15.4178 2.78593C16.0033 3.36347 16.2984 4.23593 16.2984 5.40664L16.2984 12.8041C16.2984 13.9766 16.0033 14.849 15.4178 15.4248C14.85 15.9863 13.9678 16.2975 12.8051 16.2975Z" fill="white" fill-opacity="0.85"/>
  <path d="M6.53905 12.9371L12.9434 6.52303C13.1172 6.35722 13.2156 6.14706 13.2156 5.91112C13.2156 5.42167 12.8254 5.03945 12.3297 5.03945C12.0797 5.03945 11.8793 5.1246 11.7117 5.30019L5.28964 11.6982C5.11581 11.8721 5.01738 12.0742 5.01738 12.3182C5.01738 12.8156 5.40761 13.2076 5.90331 13.2076C6.16132 13.2076 6.37147 13.1047 6.53905 12.9371ZM11.6939 12.9371C11.8615 13.1047 12.0717 13.2076 12.3297 13.2076C12.8254 13.2076 13.2156 12.8156 13.2156 12.3182C13.2156 12.0742 13.1172 11.8721 12.9434 11.6982L6.52128 5.30019C6.3537 5.1246 6.15331 5.03945 5.90331 5.03945C5.40761 5.03945 5.01738 5.42167 5.01738 5.91112C5.01738 6.14706 5.11581 6.35722 5.28964 6.52303Z" fill="white" fill-opacity="0.85"/>
 </g>
</svg>
