<?xml version="1.0" encoding="UTF-8"?>
<!--Generator: Apple Native CoreSVG 341-->
<!DOCTYPE svg
PUBLIC "-//W3C//DTD SVG 1.1//EN"
       "http://www.w3.org/Graphics/SVG/1.1/DTD/svg11.dtd">
<svg version="1.1" xmlns="http://www.w3.org/2000/svg" xmlns:xlink="http://www.w3.org/1999/xlink" viewBox="0 0 20.8006 19.6566">
 <g>
  <rect height="19.6566" opacity="0" width="20.8006" x="0" y="0"/>
  <path d="M15.8238 1.17383L19.5461 5.36933C20.2265 6.14628 20.4392 6.61503 20.4392 7.64784L20.4392 12.007C20.4392 13.0318 20.2582 13.5332 19.5883 14.2855L15.8238 18.481C15.1459 19.2236 14.4703 19.6469 13.2072 19.6469L7.23202 19.6469C5.96894 19.6469 5.28535 19.2236 4.61719 18.481L0.852733 14.2855C0.173047 13.5332 0 13.0318 0 12.007L0 7.64784C0 6.61503 0.173047 6.12167 0.852733 5.36933L4.61719 1.17383C5.28535 0.431249 5.96894 0 7.23202 0L13.2072 0C14.4703 0 15.1512 0.425976 15.8238 1.17383ZM12.9146 5.86718L10.2299 8.53973L7.54588 5.86718C7.36502 5.68808 7.15311 5.59941 6.89608 5.59941C6.38183 5.59941 5.9748 5.99843 5.9748 6.50643C5.9748 6.75389 6.06698 6.98085 6.24433 7.15643L8.92419 9.83952L6.24433 12.5072C6.06698 12.6908 5.9748 12.908 5.9748 13.1555C5.9748 13.6715 6.38183 14.0883 6.89608 14.0883C7.16112 14.0883 7.38104 13.9836 7.5619 13.8107L10.2275 11.1444L12.8906 13.8107C13.0697 13.9836 13.2914 14.0883 13.5725 14.0883C14.0787 14.0883 14.4857 13.6715 14.4857 13.1555C14.4857 12.908 14.3855 12.6908 14.2144 12.5072L11.5337 9.83791L14.2144 7.15643C14.3855 6.98085 14.4857 6.75389 14.4857 6.50643C14.4857 5.99843 14.0787 5.59941 13.5725 5.59941C13.3074 5.59941 13.0875 5.68808 12.9146 5.86718Z" fill="white" fill-opacity="0.85"/>
 </g>
</svg>
