<?xml version="1.0" encoding="UTF-8"?>
<!--Generator: Apple Native CoreSVG 341-->
<!DOCTYPE svg
PUBLIC "-//W3C//DTD SVG 1.1//EN"
       "http://www.w3.org/Graphics/SVG/1.1/DTD/svg11.dtd">
<svg version="1.1" xmlns="http://www.w3.org/2000/svg" xmlns:xlink="http://www.w3.org/1999/xlink" viewBox="0 0 22.6936 22.3425">
 <g>
  <rect height="22.3425" opacity="0" width="22.6936" x="0" y="0"/>
  <path d="M13.0254 0.954641L14.51 2.4312C14.6539 2.5689 14.7836 2.61597 14.9746 2.61597L17.0612 2.61597C18.8664 2.61597 19.7076 3.46968 19.7076 5.26069L19.7076 7.35523C19.7076 7.53999 19.7592 7.67417 19.8987 7.81187L21.3752 9.29644C22.6426 10.5656 22.6506 11.7591 21.3752 13.0265L19.8987 14.5111C19.7627 14.6568 19.7076 14.7847 19.7076 14.9757L19.7076 17.0623C19.7076 18.8675 18.8602 19.7087 17.0612 19.7087L14.9746 19.7087C14.7836 19.7087 14.6557 19.7621 14.51 19.8998L13.0254 21.3763C11.758 22.6455 10.5627 22.6535 9.29534 21.3763L7.81077 19.8998C7.67131 19.7621 7.53713 19.7087 7.35413 19.7087L5.25959 19.7087C3.46233 19.7087 2.61311 18.8613 2.61311 17.0623L2.61311 14.9757C2.61311 14.7847 2.56604 14.6568 2.4301 14.5111L0.953541 13.0265C-0.31384 11.7591-0.321848 10.5656 0.953541 9.29644L2.4301 7.81187C2.56604 7.67593 2.61311 7.53999 2.61311 7.35523L2.61311 5.26069C2.61311 3.45191 3.46057 2.61597 5.25959 2.61597L7.35413 2.61597C7.53713 2.61597 7.67307 2.5689 7.81077 2.4312L9.29534 0.956399C10.5627-0.314498 11.7545-0.322506 13.0254 0.954641ZM13.8625 7.20835L11.1746 9.8809L8.49377 7.20835C8.31291 7.02925 8.09299 6.94058 7.83596 6.94058C7.3217 6.94058 6.91467 7.3396 6.91467 7.8476C6.91467 8.09506 7.01487 8.32026 7.1842 8.4976L9.86729 11.1807L7.1842 13.8484C7.01487 14.032 6.91467 14.2492 6.91467 14.4966C6.91467 15.0126 7.3217 15.4294 7.83596 15.4294C8.109 15.4294 8.32892 15.3248 8.50978 15.1519L11.1722 12.4856L13.8385 15.1519C14.0176 15.3248 14.2393 15.4294 14.5123 15.4294C15.0186 15.4294 15.4256 15.0126 15.4256 14.4966C15.4256 14.2492 15.3334 14.032 15.1543 13.8484L12.4768 11.1791L15.1543 8.4976C15.3334 8.32026 15.4256 8.09506 15.4256 7.8476C15.4256 7.3396 15.0186 6.94058 14.5123 6.94058C14.2473 6.94058 14.0354 7.02925 13.8625 7.20835Z" fill="white" fill-opacity="0.85"/>
 </g>
</svg>
