<?xml version="1.0" encoding="UTF-8"?>
<!--Generator: Apple Native CoreSVG 341-->
<!DOCTYPE svg
PUBLIC "-//W3C//DTD SVG 1.1//EN"
       "http://www.w3.org/Graphics/SVG/1.1/DTD/svg11.dtd">
<svg version="1.1" xmlns="http://www.w3.org/2000/svg" xmlns:xlink="http://www.w3.org/1999/xlink" viewBox="0 0 16.0884 15.7404">
 <g>
  <rect height="15.7404" opacity="0" width="16.0884" x="0" y="0"/>
  <path d="M13.8683 0.329563L0.307398 13.8923C-0.0984588 14.2964-0.108224 15.0122 0.312671 15.4268C0.735324 15.8397 1.45465 15.8344 1.85699 15.4321L15.4179 1.87115C15.8291 1.46002 15.8353 0.752997 15.4109 0.336594C14.9865-0.0878165 14.2892-0.0975822 13.8683 0.329563ZM15.4179 13.8888L1.85699 0.327805C1.4529-0.0825433 0.729074-0.0975822 0.312671 0.334836C-0.101974 0.759247-0.0967011 1.4653 0.307398 1.86939L13.8683 15.4303C14.2795 15.8415 14.9945 15.8477 15.4109 15.4251C15.8273 15.0007 15.8291 14.3016 15.4179 13.8888Z" fill="white" fill-opacity="0.85"/>
 </g>
</svg>
