<?xml version="1.0" encoding="UTF-8"?>
<!--Generator: Apple Native CoreSVG 341-->
<!DOCTYPE svg
PUBLIC "-//W3C//DTD SVG 1.1//EN"
       "http://www.w3.org/Graphics/SVG/1.1/DTD/svg11.dtd">
<svg version="1.1" xmlns="http://www.w3.org/2000/svg" xmlns:xlink="http://www.w3.org/1999/xlink" viewBox="0 0 22.8129 22.46">
 <g>
  <rect height="22.46" opacity="0" width="22.8129" x="0" y="0"/>
  <path d="M13.4913 1.12864L21.3214 8.95872C22.8142 10.4532 22.8239 11.989 21.3454 13.4675L13.4753 21.3456C11.9905 22.8224 10.461 22.8144 8.96651 21.3198L1.13018 13.4835C-0.364349 11.989-0.380365 10.4613 1.1044 8.97473L8.98428 1.10461C10.469-0.380149 11.9985-0.364134 13.4913 1.12864ZM13.9159 7.26887L11.2312 9.94142L8.54716 7.26887C8.3663 7.08977 8.15439 7.00109 7.89736 7.00109C7.3751 7.00109 6.97607 7.40012 6.97607 7.90812C6.97607 8.15558 7.06826 8.38253 7.2456 8.55812L9.92547 11.2412L7.2456 13.9089C7.06826 14.0925 6.97607 14.3097 6.97607 14.5572C6.97607 15.0732 7.3751 15.49 7.89736 15.49C8.1624 15.49 8.38232 15.3853 8.56318 15.2124L11.2288 12.5461L13.8919 15.2124C14.071 15.3853 14.2927 15.49 14.5737 15.49C15.08 15.49 15.487 15.0732 15.487 14.5572C15.487 14.3097 15.3868 14.0925 15.2157 13.9089L12.5349 11.2396L15.2157 8.55812C15.3868 8.38253 15.487 8.15558 15.487 7.90812C15.487 7.40012 15.08 7.00109 14.5737 7.00109C14.3087 7.00109 14.0888 7.08977 13.9159 7.26887Z" fill="white" fill-opacity="0.85"/>
 </g>
</svg>
