<?xml version="1.0" encoding="UTF-8"?>
<!--Generator: Apple Native CoreSVG 341-->
<!DOCTYPE svg
PUBLIC "-//W3C//DTD SVG 1.1//EN"
       "http://www.w3.org/Graphics/SVG/1.1/DTD/svg11.dtd">
<svg version="1.1" xmlns="http://www.w3.org/2000/svg" xmlns:xlink="http://www.w3.org/1999/xlink" viewBox="0 0 20.5381 20.1848">
 <g>
  <rect height="20.1848" opacity="0" width="20.5381" x="0" y="0"/>
  <path d="M20.1767 10.0875C20.1767 15.6478 15.6576 20.175 10.0875 20.175C4.52715 20.175 0 15.6478 0 10.0875C0 4.51914 4.52715 0 10.0875 0C15.6576 0 20.1767 4.51914 20.1767 10.0875ZM12.176 5.93827L10.1283 9.54004L10.0644 9.54004L8.0328 5.93827C7.78104 5.44843 7.54706 5.28632 7.09784 5.28632C6.57773 5.28632 6.18867 5.66835 6.18867 6.15214C6.18867 6.33202 6.23301 6.51288 6.34648 6.70877L9.09688 11.3527L9.09688 13.6164C9.09688 14.3004 9.45215 14.7418 10.0875 14.7418C10.7308 14.7418 11.0959 14.3227 11.0959 13.6164L11.0959 11.3367L13.8303 6.70877C13.942 6.52889 13.9881 6.34003 13.9881 6.16815C13.9881 5.66034 13.615 5.28632 13.0869 5.28632C12.6457 5.28632 12.4197 5.45644 12.176 5.93827Z" fill="white" fill-opacity="0.85"/>
 </g>
</svg>
