<?xml version="1.0" encoding="UTF-8"?>
<!--Generator: Apple Native CoreSVG 341-->
<!DOCTYPE svg
PUBLIC "-//W3C//DTD SVG 1.1//EN"
       "http://www.w3.org/Graphics/SVG/1.1/DTD/svg11.dtd">
<svg version="1.1" xmlns="http://www.w3.org/2000/svg" xmlns:xlink="http://www.w3.org/1999/xlink" viewBox="0 0 18.5894 18.2316">
 <g>
  <rect height="18.2316" opacity="0" width="18.5894" x="0" y="0"/>
  <path d="M18.2281 3.17148L18.2281 15.0646C18.2281 17.1502 17.1404 18.2281 15.0246 18.2281L3.20351 18.2281C1.0957 18.2281 0 17.1502 0 15.0646L0 3.17148C0 1.08769 1.0957 0 3.20351 0L15.0246 0C17.1404 0 18.2281 1.08769 18.2281 3.17148ZM5.46914 5.04628C5.46914 5.19862 5.51875 5.36522 5.61718 5.52479L8.0707 9.49315L6.46641 9.49315C6.28164 9.49315 6.14043 9.62811 6.14043 9.82265C6.14043 10.0092 6.28164 10.1504 6.46641 10.1504L8.41875 10.1504L8.43457 10.1785L8.43457 11.191L6.46641 11.191C6.28164 11.191 6.14043 11.342 6.14043 11.5285C6.14043 11.7053 6.28164 11.8562 6.46641 11.8562L8.43457 11.8562L8.43457 13.1143C8.43457 13.5396 8.72265 13.8393 9.14003 13.8393C9.56542 13.8393 9.84374 13.5396 9.84374 13.1143L9.84374 11.8562L11.8359 11.8562C12.0225 11.8562 12.1637 11.7053 12.1637 11.5285C12.1637 11.342 12.0225 11.191 11.8359 11.191L9.84374 11.191L9.84374 10.1785L9.86132 10.1504L11.8359 10.1504C12.0225 10.1504 12.1637 10.0092 12.1637 9.82265C12.1637 9.62811 12.0225 9.49315 11.8359 9.49315L10.2139 9.49315L12.6656 5.52303C12.7676 5.35018 12.8109 5.2369 12.8109 5.04101C12.8109 4.65292 12.5123 4.39062 12.11 4.39062C11.8389 4.39062 11.6146 4.52617 11.4551 4.80605L9.17285 8.79824L9.13203 8.79824L6.8453 4.8078C6.69022 4.52968 6.51561 4.38261 6.18515 4.38261C5.77578 4.38261 5.46914 4.64491 5.46914 5.04628Z" fill="white" fill-opacity="0.85"/>
 </g>
</svg>
