<?xml version="1.0" encoding="UTF-8"?>
<!--Generator: Apple Native CoreSVG 341-->
<!DOCTYPE svg
PUBLIC "-//W3C//DTD SVG 1.1//EN"
       "http://www.w3.org/Graphics/SVG/1.1/DTD/svg11.dtd">
<svg version="1.1" xmlns="http://www.w3.org/2000/svg" xmlns:xlink="http://www.w3.org/1999/xlink" viewBox="0 0 24.2049 19.7961">
 <g>
  <rect height="19.7961" opacity="0" width="24.2049" x="0" y="0"/>
  <path d="M23.8435 11.8701C23.8435 5.64747 19.073 0.538875 12.9941 0.00293831C12.6553-0.029874 12.3998 0.215828 12.3998 0.554694L12.3998 3.8043C12.3998 4.08907 12.6012 4.30645 12.8842 4.33301C16.6191 4.80957 19.517 8.00293 19.517 11.8701C19.517 13.6332 18.9115 15.2613 17.8488 16.61C17.6945 16.8023 17.7025 17.0471 17.8719 17.2244L20.2322 19.5785C20.4646 19.8144 20.823 19.8109 21.0359 19.559C22.7926 17.4783 23.8435 14.7949 23.8435 11.8701Z" fill="white" fill-opacity="0.85"/>
  <path d="M0 11.8701C0 14.8029 1.05098 17.4863 2.80586 19.5652C3.01875 19.8172 3.36914 19.8109 3.61132 19.5768L5.96992 17.2227C6.13925 17.0453 6.14726 16.8006 5.99296 16.6082C4.92578 15.2613 4.32656 13.6332 4.32656 11.8701C4.32656 8.00293 7.22617 4.80957 10.9594 4.33301C11.2441 4.30645 11.4437 4.08907 11.4437 3.8043L11.4437 0.554694C11.4437 0.215828 11.1883-0.029874 10.8494 0.00293831C4.77226 0.538875 0 5.64747 0 11.8701Z" fill="white" fill-opacity="0.85"/>
  <path d="M11.9098 16.4998C12.3166 16.4998 12.5816 16.225 12.5816 15.8067L12.5816 12.8857L15.298 8.49472C15.3982 8.32714 15.4398 8.22363 15.4398 8.04277C15.4398 7.66348 15.1465 7.41621 14.7725 7.41621C14.5066 7.41621 14.2957 7.55801 14.1477 7.81934L11.9426 11.6572L11.9018 11.6572L9.69842 7.82109C9.54862 7.55801 9.37147 7.40821 9.06386 7.40821C8.68105 7.40821 8.38769 7.65547 8.38769 8.04629C8.38769 8.18711 8.42929 8.34043 8.52773 8.50449L11.2459 12.8857L11.2459 15.8067C11.2459 16.225 11.5109 16.4998 11.9098 16.4998ZM9.02617 12.633C9.02617 12.808 9.16738 12.9492 9.34414 12.9492L14.4994 12.9492C14.6762 12.9492 14.8174 12.808 14.8174 12.633C14.8174 12.4562 14.6762 12.315 14.4994 12.315L9.34414 12.315C9.16738 12.315 9.02617 12.4562 9.02617 12.633ZM9.02617 14.2697C9.02617 14.4465 9.16738 14.5877 9.34414 14.5877L14.4994 14.5877C14.6762 14.5877 14.8174 14.4465 14.8174 14.2697C14.8174 14.0947 14.6762 13.9535 14.4994 13.9535L9.34414 13.9535C9.16738 13.9535 9.02617 14.0947 9.02617 14.2697Z" fill="white" fill-opacity="0.85"/>
 </g>
</svg>
