<?xml version="1.0" encoding="UTF-8"?>
<!--Generator: Apple Native CoreSVG 341-->
<!DOCTYPE svg
PUBLIC "-//W3C//DTD SVG 1.1//EN"
       "http://www.w3.org/Graphics/SVG/1.1/DTD/svg11.dtd">
<svg version="1.1" xmlns="http://www.w3.org/2000/svg" xmlns:xlink="http://www.w3.org/1999/xlink" viewBox="0 0 14.4414 18.2957">
 <g>
  <rect height="18.2957" opacity="0" width="14.4414" x="0" y="0"/>
  <path d="M7.0369 18.2859C7.766 18.2859 8.24959 17.7961 8.24959 17.0545L8.24959 10.9019L13.8232 1.96697C13.9853 1.70565 14.0801 1.43299 14.0801 1.13182C14.0801 0.453315 13.5219 0 12.8355 0C12.3549 0 11.9686 0.280661 11.7285 0.71171L7.09628 8.66251L7.00663 8.66251L2.37263 0.721476C2.13357 0.264841 1.75858 0 1.25682 0C0.559956 0 0 0.456831 0 1.13886C0 1.44178 0.0894523 1.7074 0.253318 1.97049L5.8207 10.9019L5.8207 17.0545C5.8207 17.7961 6.30781 18.2859 7.0369 18.2859ZM1.34707 10.4002C1.34707 10.7412 1.62949 11.0156 1.9625 11.0156L12.1816 11.0156C12.5129 11.0156 12.7953 10.7412 12.7953 10.4002C12.7953 10.0609 12.5129 9.78651 12.1816 9.78651L1.9625 9.78651C1.62949 9.78651 1.34707 10.0609 1.34707 10.4002ZM1.34707 13.7105C1.34707 14.0498 1.62949 14.3242 1.9625 14.3242L12.1816 14.3242C12.5129 14.3242 12.7953 14.0498 12.7953 13.7105C12.7953 13.3695 12.5129 13.0951 12.1816 13.0951L1.9625 13.0951C1.62949 13.0951 1.34707 13.3695 1.34707 13.7105Z" fill="white" fill-opacity="0.85"/>
 </g>
</svg>
