<?xml version="1.0" encoding="UTF-8"?>
<!--Generator: Apple Native CoreSVG 341-->
<!DOCTYPE svg
PUBLIC "-//W3C//DTD SVG 1.1//EN"
       "http://www.w3.org/Graphics/SVG/1.1/DTD/svg11.dtd">
<svg version="1.1" xmlns="http://www.w3.org/2000/svg" xmlns:xlink="http://www.w3.org/1999/xlink" viewBox="0 0 22.7515 21.4965">
 <g>
  <rect height="21.4965" opacity="0" width="22.7515" x="0" y="0"/>
  <path d="M1.44999 18.9656L20.9947 18.9656L20.9947 18.2322C20.9947 17.8064 20.7437 17.551 20.3117 17.551L19.7447 17.551L19.7447 6.98046L20.5865 6.98046C21.1851 6.98046 21.5363 6.53886 21.5363 6.09277C21.5363 5.7664 21.351 5.47734 20.9545 5.24941L12.481 0.359374C12.0764 0.125976 11.6398 0 11.2183 0C10.7969 0 10.3523 0.125976 9.96366 0.359374L1.49023 5.24941C1.08574 5.47734 0.908396 5.7664 0.908396 6.09277C0.908396 6.53886 1.25957 6.98046 1.85995 6.98046L2.69999 6.98046L2.69999 17.551L2.14101 17.551C1.70898 17.551 1.44999 17.8064 1.44999 18.2322ZM4.32401 17.551L4.32401 5.67245L10.8779 1.99999C10.9846 1.93866 11.1072 1.90487 11.2183 1.90487C11.333 1.90487 11.4521 1.93866 11.5668 1.99999L18.1207 5.67245L18.1207 17.551ZM0.881441 21.4867L21.499 21.4867C21.9797 21.4867 22.3902 21.0849 22.3902 20.5972C22.3902 20.1148 21.9797 19.7158 21.499 19.7158L0.881441 19.7158C0.399022 19.7158 0 20.1148 0 20.5972C0 21.0832 0.399022 21.4867 0.881441 21.4867Z" fill="white" fill-opacity="0.85"/>
  <path d="M11.2281 15.1224C11.6269 15.1224 11.8982 14.8476 11.8982 14.4293L11.8982 11.5084L14.6164 7.11736C14.7166 6.94978 14.7564 6.84627 14.7564 6.66541C14.7564 6.28612 14.4568 6.03885 14.081 6.03885C13.8232 6.03885 13.6043 6.17264 13.466 6.44198L11.2609 10.2799L11.2121 10.2799L9.00877 6.44373C8.86697 6.17264 8.68006 6.03085 8.38221 6.03085C7.99139 6.03085 7.69804 6.27811 7.69804 6.66893C7.69804 6.80975 7.74765 6.96307 7.84432 7.12713L10.5562 11.5084L10.5562 14.4293C10.5562 14.8476 10.8275 15.1224 11.2281 15.1224ZM8.34452 11.2556C8.34452 11.4306 8.48573 11.5719 8.66073 11.5719L13.8178 11.5719C13.9928 11.5719 14.134 11.4306 14.134 11.2556C14.134 11.0789 13.9928 10.9377 13.8178 10.9377L8.66073 10.9377C8.48573 10.9377 8.34452 11.0789 8.34452 11.2556ZM8.34452 12.8924C8.34452 13.0691 8.48573 13.2103 8.66073 13.2103L13.8178 13.2103C13.9928 13.2103 14.134 13.0691 14.134 12.8924C14.134 12.7174 13.9928 12.5762 13.8178 12.5762L8.66073 12.5762C8.48573 12.5762 8.34452 12.7174 8.34452 12.8924Z" fill="white" fill-opacity="0.85"/>
 </g>
</svg>
