<?xml version="1.0" encoding="UTF-8"?>
<!--Generator: Apple Native CoreSVG 341-->
<!DOCTYPE svg
PUBLIC "-//W3C//DTD SVG 1.1//EN"
       "http://www.w3.org/Graphics/SVG/1.1/DTD/svg11.dtd">
<svg version="1.1" xmlns="http://www.w3.org/2000/svg" xmlns:xlink="http://www.w3.org/1999/xlink" viewBox="0 0 21.0023 18.7605">
 <g>
  <rect height="18.7605" opacity="0" width="21.0023" x="0" y="0"/>
  <path d="M2.77324 0C1.06738 0 0 1.23242 0 2.76699C0 3.23378 0.120703 3.7166 0.38789 4.17636L7.94668 17.3584C8.46582 18.2725 9.38515 18.741 10.3223 18.741C11.2576 18.741 12.1637 18.2777 12.6943 17.3584L20.2531 4.17812C20.506 3.72636 20.641 3.23378 20.641 2.76699C20.641 1.23242 19.5736 0 17.8695 0ZM2.93944 1.84706L17.6953 1.84706C18.3024 1.84706 18.6899 2.32518 18.6899 2.85663C18.6899 3.02734 18.6481 3.22109 18.5529 3.40507L11.1586 16.3438C10.9746 16.6664 10.6467 16.8068 10.3223 16.8068C9.99609 16.8068 9.65663 16.6682 9.47441 16.3455L2.08182 3.4166C1.9867 3.23437 1.95291 3.02909 1.95291 2.85663C1.95291 2.32518 2.3244 1.84706 2.93944 1.84706Z" fill="white" fill-opacity="0.85"/>
  <path d="M4.56795 3.31424C4.17283 3.31424 3.93846 3.69061 4.14803 4.05292L9.89257 14.1088C10.0959 14.4666 10.5371 14.4666 10.7404 14.1088L16.485 4.05292C16.6865 3.69862 16.4602 3.31424 16.0651 3.31424Z" fill="white" fill-opacity="0.85"/>
 </g>
</svg>
