<?xml version="1.0" encoding="UTF-8"?>
<!--Generator: Apple Native CoreSVG 341-->
<!DOCTYPE svg
PUBLIC "-//W3C//DTD SVG 1.1//EN"
       "http://www.w3.org/Graphics/SVG/1.1/DTD/svg11.dtd">
<svg version="1.1" xmlns="http://www.w3.org/2000/svg" xmlns:xlink="http://www.w3.org/1999/xlink" viewBox="0 0 20.5381 20.1848">
 <g>
  <rect height="20.1848" opacity="0" width="20.5381" x="0" y="0"/>
  <path d="M20.1767 10.0875C20.1767 15.6478 15.6576 20.175 10.0875 20.175C4.52715 20.175 0 15.6478 0 10.0875C0 4.51914 4.52715 0 10.0875 0C15.6576 0 20.1767 4.51914 20.1767 10.0875ZM7.17304 5.42558C6.67168 5.42558 6.33574 5.72167 6.33574 6.20468C6.33574 6.70018 6.67695 6.99354 7.17304 6.99354L11.0723 6.99354L11.0723 7.08494L6.74746 12.9445C6.48691 13.2957 6.40371 13.4869 6.40371 13.7766C6.40371 14.2631 6.7582 14.6025 7.28378 14.6025L13.0135 14.6025C13.5096 14.6025 13.857 14.3012 13.857 13.8199C13.857 13.3244 13.5131 13.0346 13.0135 13.0346L8.89373 13.0346L8.89373 12.9414L13.2123 7.08358C13.4709 6.75389 13.5338 6.58553 13.5338 6.27382C13.5338 5.77304 13.1713 5.42558 12.6377 5.42558Z" fill="white" fill-opacity="0.85"/>
 </g>
</svg>
