<?xml version="1.0" encoding="UTF-8"?>
<!--Generator: Apple Native CoreSVG 341-->
<!DOCTYPE svg
PUBLIC "-//W3C//DTD SVG 1.1//EN"
       "http://www.w3.org/Graphics/SVG/1.1/DTD/svg11.dtd">
<svg version="1.1" xmlns="http://www.w3.org/2000/svg" xmlns:xlink="http://www.w3.org/1999/xlink" viewBox="0 0 18.5894 18.2316">
 <g>
  <rect height="18.2316" opacity="0" width="18.5894" x="0" y="0"/>
  <path d="M3.20351 18.2281L15.0246 18.2281C17.1404 18.2281 18.2281 17.1502 18.2281 15.0646L18.2281 3.17148C18.2281 1.08769 17.1404 0 15.0246 0L3.20351 0C1.0957 0 0 1.08769 0 3.17148L0 15.0646C0 17.1502 1.0957 18.2281 3.20351 18.2281ZM3.31444 16.3148C2.40643 16.3148 1.91327 15.8465 1.91327 14.8977L1.91327 3.34023C1.91327 2.39139 2.40643 1.91503 3.31444 1.91503L14.9137 1.91503C15.8137 1.91503 16.3148 2.39139 16.3148 3.34023L16.3148 14.8977C16.3148 15.8465 15.8137 16.3148 14.9137 16.3148Z" fill="white" fill-opacity="0.85"/>
  <path d="M6.41718 13.4541L11.9395 13.4541C12.4117 13.4541 12.7379 13.166 12.7379 12.7051C12.7379 12.2361 12.417 11.9551 11.9395 11.9551L7.95369 11.9551L7.95369 11.8699L12.1232 6.20643C12.3713 5.89178 12.4262 5.7287 12.4262 5.43553C12.4262 4.95155 12.0787 4.62089 11.5814 4.62089L6.3162 4.62089C5.83867 4.62089 5.51777 4.9037 5.51777 5.36639C5.51777 5.83534 5.84218 6.12166 6.3162 6.12166L10.0832 6.12166L10.0832 6.2033L5.91093 11.8668C5.66367 12.2047 5.58222 12.3889 5.58222 12.6635C5.58222 13.1297 5.92968 13.4541 6.41718 13.4541Z" fill="white" fill-opacity="0.85"/>
 </g>
</svg>
