<?xml version="1.0" encoding="UTF-8"?>
<!--Generator: Apple Native CoreSVG 341-->
<!DOCTYPE svg
PUBLIC "-//W3C//DTD SVG 1.1//EN"
       "http://www.w3.org/Graphics/SVG/1.1/DTD/svg11.dtd">
<svg version="1.1" xmlns="http://www.w3.org/2000/svg" xmlns:xlink="http://www.w3.org/1999/xlink" viewBox="0 0 17.107 23.984">
 <g>
  <rect height="23.984" opacity="0" width="17.107" x="0" y="0"/>
  <path d="M0 19.3605C0 21.4701 1.07968 22.5578 3.17148 22.5578L13.5742 22.5578C15.6678 22.5578 16.7457 21.4701 16.7457 19.3605L16.7457 4.62519C16.7457 2.52363 15.6678 1.41992 13.5742 1.41992L3.17148 1.41992C1.07968 1.41992 0 2.52363 0 4.62519ZM1.91327 19.2416L1.91327 4.74413C1.91327 3.83436 2.38163 3.33319 3.33222 3.33319L13.4152 3.33319C14.3641 3.33319 14.8324 3.83436 14.8324 4.74413L14.8324 19.2416C14.8324 20.1514 14.3641 20.6445 13.4152 20.6445L3.33222 20.6445C2.38163 20.6445 1.91327 20.1514 1.91327 19.2416ZM8.37285 7.1869C9.50683 7.1869 10.3223 6.3289 10.2389 5.2082L9.98866 1.54492C9.91327 0.521874 9.1537 0 8.37285 0C7.5955 0 6.84043 0.521874 6.76504 1.54492L6.50683 5.2082C6.42344 6.3289 7.24687 7.1869 8.37285 7.1869ZM8.37285 6.23144C7.86699 6.23144 7.45253 5.80722 7.45253 5.30136C7.45253 4.7955 7.86699 4.38906 8.37285 4.38906C8.8787 4.38906 9.29491 4.7955 9.29491 5.30136C9.29491 5.80722 8.8787 6.23144 8.37285 6.23144ZM8.37285 9.52734L10.5562 9.52734C10.9521 9.52734 11.2486 9.21757 11.2486 8.82343C11.2486 8.4373 10.9521 8.14257 10.5562 8.14257L8.37285 8.14257ZM8.37285 10.9166L8.37285 9.52734L6.18945 9.52734C5.79355 9.52734 5.49706 9.82206 5.49706 10.2082C5.49706 10.6023 5.79355 10.9166 6.18945 10.9166ZM8.37285 12.3014L10.5562 12.3014C10.9521 12.3014 11.2486 11.9933 11.2486 11.5912C11.2486 11.2131 10.9521 10.9166 10.5562 10.9166L8.37285 10.9166ZM8.37285 13.6941L8.37285 12.3014L6.18945 12.3014C5.79355 12.3014 5.49706 12.5978 5.49706 12.984C5.49706 13.3781 5.79355 13.6941 6.18945 13.6941ZM8.37285 15.0771L10.5562 15.0771C10.9521 15.0771 11.2486 14.7691 11.2486 14.367C11.2486 13.9889 10.9521 13.6941 10.5562 13.6941L8.37285 13.6941ZM8.37285 16.4619L8.37285 15.0771L6.18945 15.0771C5.79355 15.0771 5.49706 15.3736 5.49706 15.7598C5.49706 16.1539 5.79355 16.4619 6.18945 16.4619Z" fill="white" fill-opacity="0.85"/>
 </g>
</svg>
