<?xml version="1.0" encoding="UTF-8"?>
<!--Generator: Apple Native CoreSVG 341-->
<!DOCTYPE svg
PUBLIC "-//W3C//DTD SVG 1.1//EN"
       "http://www.w3.org/Graphics/SVG/1.1/DTD/svg11.dtd">
<svg version="1.1" xmlns="http://www.w3.org/2000/svg" xmlns:xlink="http://www.w3.org/1999/xlink" viewBox="0 0 23.1209 17.3433">
 <g>
  <rect height="17.3433" opacity="0" width="23.1209" x="0" y="0"/>
  <path d="M22.7596 8.05722L22.7596 14.2137C22.7596 16.2574 21.6719 17.3371 19.6121 17.3371L3.14745 17.3371C1.08769 17.3371 0 16.2654 0 14.2137L0 8.05722C0 2.58633 2.50996 0 8.22851 0L14.531 0C20.2496 0 22.7596 2.58633 22.7596 8.05722ZM12.5939 4.77206C12.1043 4.77206 11.8266 5.06659 11.8266 5.56601L11.8266 11.9158C11.8266 12.4055 12.1043 12.7178 12.6019 12.7178C13.0818 12.7178 13.3676 12.4117 13.3676 11.9158L13.3676 9.64823L14.1853 9.64823L15.1129 12.0871C15.2664 12.4906 15.5041 12.7178 15.9096 12.7178C16.2758 12.7178 16.6379 12.4803 16.6344 11.9664C16.6309 11.8477 16.5775 11.6566 16.4834 11.4391L15.6199 9.33066C16.3695 8.92499 16.6857 8.07011 16.6857 7.21406C16.6857 5.61191 15.743 4.77206 14.2162 4.77206ZM6.51738 4.77831C6.16874 4.77831 5.86718 5.04199 5.86718 5.40644C5.86718 5.75956 6.14765 6.04882 6.51738 6.04882L8.83711 6.04882L8.83711 6.09765L6.03925 11.292C5.92031 11.4943 5.87949 11.6717 5.87949 11.9051C5.87949 12.3576 6.18828 12.6193 6.64159 12.6193L10.0127 12.6193C10.3568 12.6193 10.6355 12.3389 10.6355 11.9769C10.6355 11.6135 10.3428 11.3488 10.0127 11.3488L7.57323 11.3488L7.57323 11.292L10.3373 6.12421C10.4234 5.94042 10.5006 5.76757 10.5006 5.51913C10.5006 5.06581 10.191 4.77831 9.74472 4.77831ZM15.1342 7.24511C15.1342 7.9789 14.8125 8.54355 14.0707 8.54355L13.3676 8.54355L13.3676 5.96718L14.0725 5.96718C14.7689 5.96718 15.1342 6.5246 15.1342 7.24511Z" fill="white" fill-opacity="0.85"/>
 </g>
</svg>
